<?xml version="1.0" encoding="utf-8"?>
<!-- Generator: Adobe Illustrator 19.0.0, SVG Export Plug-In . SVG Version: 6.00 Build 0)  -->
<svg version="1.1" id="Layer_1" xmlns="http://www.w3.org/2000/svg" xmlns:xlink="http://www.w3.org/1999/xlink" x="0px" y="0px"
	 viewBox="0 0 318 286.5" style="enable-background:new 0 0 318 286.5;" xml:space="preserve">
<style type="text/css">
	.st0{fill:#EF7B05;}
</style>
<path id="_x32__2_" class="st0" d="M236.9,160.3c-18.4-6.9-26.8-25.6-45.1-34.2c-14.9-7-24.5-1.3-29.6-1.3h0c-5,0-14.6-5.7-29.6,1.3
	c-18.3,8.6-26.8,27.3-45.1,34.2c0,0,30.2,3.6,44.1-8.5l-2.1,5.4c0,0,15.9-4.2,24.1-12.1c0,0,0.1-0.1,0.1-0.1
	c4.7-4.4,12.1-4.4,16.8,0c0,0,0.1,0.1,0.1,0.1c8.2,7.9,24.1,12.1,24.1,12.1l-2.1-5.4C206.6,163.9,236.9,160.3,236.9,160.3z"/>
</svg>
