<?xml version="1.0" encoding="utf-8"?>
<!-- Generator: Adobe Illustrator 19.0.0, SVG Export Plug-In . SVG Version: 6.00 Build 0)  -->
<svg version="1.1" id="Layer_1" xmlns="http://www.w3.org/2000/svg" xmlns:xlink="http://www.w3.org/1999/xlink" x="0px" y="0px"
	 viewBox="0 0 322.5 279" style="enable-background:new 0 0 322.5 279;" xml:space="preserve">
<style type="text/css">
	.st0{fill:#EF7B05;}
</style>
<path id="Chevron_3_" class="st0" d="M200.9,154.6c-7.3-5.4-22.3-15.2-31.5-18.7c-2.6-1-5.5-0.8-8,0.4c-2.1,1-4.7,2-6.7,2
	c-2.1,0-4.7-1-6.7-2c-2.5-1.2-5.4-1.4-8-0.4c-9.2,3.5-24.2,13.4-31.5,18.7c-7.7,5.7-7.2,12.6-7.2,12.6c15.4-2.3,29.4-10.7,53.4-10.7
	c24.1,0,41,8.3,53.4,10.7C208.1,167.2,208.6,160.3,200.9,154.6z"/>
</svg>
