<?xml version="1.0" encoding="utf-8"?>
<!-- Generator: Adobe Illustrator 19.0.0, SVG Export Plug-In . SVG Version: 6.00 Build 0)  -->
<svg version="1.1" id="Layer_1" xmlns="http://www.w3.org/2000/svg" xmlns:xlink="http://www.w3.org/1999/xlink" x="0px" y="0px"
	 viewBox="0 0 318 286.5" style="enable-background:new 0 0 318 286.5;" xml:space="preserve">
<style type="text/css">
	.st0{fill:#EF7B05;}
</style>
<g id="Circle_Beard_2_">
	<path id="XMLID_266_" class="st0" d="M213.8,134.8l-9.3-4.6c-1.3,12.8-23.6,21.5-31.3,15.1c-4.1-3.4,0-10.1,0-10.1h-11h-11
		c0,0,3.9,6.9,0,10.1c-7.7,6.4-30-2.3-31.3-15.1l-9.3,4.6c0,0-0.1,24,5.5,33.3c6.1,10.1,23.4,18.3,46.1,18.3
		c22.7,0,40.1-8.2,46.1-18.3C213.9,158.8,213.8,134.8,213.8,134.8z"/>
	<path id="XMLID_265_" class="st0" d="M178.6,95.6c-7.5,0-11,2.7-16.6,2.7c-5.6,0-8.9-2.7-16.4-2.7c-5,0-36.4,1.1-35.2,39.2l9.3-4.6
		c0,0-3.5-18.3,20.3-18.3c12.6,0,14.2-2.7,22-2.7s9.3,2.7,22,2.7c23.8,0,20.3,18.3,20.3,18.3l9.3,4.6
		C215,96.6,183.6,95.6,178.6,95.6z"/>
</g>
</svg>
