<?xml version="1.0" encoding="utf-8"?>
<!-- Generator: Adobe Illustrator 19.0.0, SVG Export Plug-In . SVG Version: 6.00 Build 0)  -->
<svg version="1.1" id="Layer_1" xmlns="http://www.w3.org/2000/svg" xmlns:xlink="http://www.w3.org/1999/xlink" x="0px" y="0px"
	 viewBox="0 0 322.5 279" style="enable-background:new 0 0 322.5 279;" xml:space="preserve">
<style type="text/css">
	.st0{fill:#EF7B05;}
</style>
<g id="_x39__2_">
	<path id="XMLID_198_" class="st0" d="M170.6,106.4c-2.4,0-5.2,3.3-7.2,7.1c0,0,0,0,0,0.1c-1,1.9-3.3,1.9-4.3,0c0,0,0,0,0-0.1
		c-2-3.8-4.8-7.1-7.2-7.1c-9.4,0-33.5,6.9-65.7,50.4c0,0,9.9,6.3,10.9,5.3c11.8-11,35.2-27.7,64.1-27.9
		c28.9,0.2,52.5,16.8,64.2,27.9c1,1,10.9-5.3,10.9-5.3C204,113.3,180,106.4,170.6,106.4z"/>
	<g id="XMLID_196_">
		<path id="XMLID_197_" class="st0" d="M284.5,23l-6.8,6.4c0,29.6-8.4,78.4-35.8,104.7c-22.8,21.9-25.8,29.7-41.9,35.6
			c-7.5,2.8-13.4,3-19.8,1.3c-5.8-1.5-6.7-4.5-6.7-10.4l-12.3,0l0,0.6l0-0.6l-12.3,0c0,5.9-0.9,8.9-6.7,10.4
			c-6.4,1.7-12.2,1.4-19.8-1.3c-16.1-6-19.1-13.7-41.9-35.6C53.1,107.8,44.7,59,44.7,29.4L38,23c0,33.4,1.7,80.4,5.3,115.4l5.8-6.7
			l-5.2,12.2c2,17.4,4.5,31.1,7.5,37.7c1,2.1,2,4.2,3,6.3l3.7-6.3l-0.4,12.7c11.6,22.3,24.6,40.9,36.8,50.6
			c20.4,16.2,48.7,10,66.6,10.2c18-0.2,46.6,6,67.1-10.2c12.2-9.7,25.2-28.3,36.8-50.6l-0.4-12.7l3.7,6.3c1-2.1,2-4.1,3-6.3
			c3-6.5,5.5-20.3,7.5-37.7l-5.2-12.2l5.8,6.7C282.8,103.4,284.5,56.4,284.5,23z"/>
	</g>
</g>
</svg>
