<?xml version="1.0" encoding="utf-8"?>
<!-- Generator: Adobe Illustrator 19.0.0, SVG Export Plug-In . SVG Version: 6.00 Build 0)  -->
<svg version="1.1" id="Layer_1" xmlns="http://www.w3.org/2000/svg" xmlns:xlink="http://www.w3.org/1999/xlink" x="0px" y="0px"
	 viewBox="0 0 282.43243 250.67567" style="enable-background:new 0 0 282.43243 250.67567;" xml:space="preserve">
<style type="text/css">
	.st0{fill:#C4620A;}
</style>
<g id="_x35__1_">
	<g id="XMLID_139_">
		<path id="XMLID_140_" class="st0" d="M197.83252,124.99239c-2.5851-9.01422-31.59846-19.79247-40.13229-19.40751
			c-8.94803,0.40366-14.98882,5.2946-20.51875,5.2946s-11.5709-4.89094-20.51893-5.2946
			c-8.53364-0.38496-37.54719,10.39329-40.13209,19.40751c-2.58506,9.01433,1.19301,34.72617,4.17568,33.64984
			c2.98268-1.07632,5.31462-4.01085,8.73019-6.32176c3.41551-2.31104-2.88303-19.07433,4.32749-22.15572
			c7.21068-3.08118,43.41765-3.37481,43.41765-3.37481s36.20715,0.29362,43.41763,3.37481
			c7.21053,3.08139,0.91182,19.84468,4.32736,22.15572c3.41571,2.31091,5.7475,5.24544,8.73033,6.32176
			C196.63951,159.71855,200.41754,134.00671,197.83252,124.99239z"/>
	</g>
	<path id="XMLID_138_" class="st0" d="M259.32098,26.65724l-6.74367,5.77434c0,34.86306-6.61864,46.05243-14.56682,55.127
		c-7.94832,9.07471-31.49889,34.2821-45.92358,52.43124c-14.42471,18.14941-20.67029,15.60675-28.42308,15.76682
		c-7.75264,0.15991-12.24077-7.31978-12.24077-7.31978h-14.23425h-0.00607h-0.03461h-0.00587h-14.23445
		c0,0-4.48797,7.47969-12.24076,7.31978c-7.75263-0.16006-13.99821,2.3826-28.42307-15.76682
		C67.81927,121.84068,44.26886,96.6333,36.3204,87.55859c-7.9482-9.07457-14.56684-20.26394-14.56684-55.127l-6.74352-5.77434
		c0,0,0.59682,56.29742,0.83064,101.05748l12.18159-3.29395l-12.15512,8.65953c0.04115,8.87108,0.06587,17.15819,0.06587,24.28622
		c0,23.06937,16.45281,45.34445,34.87121,58.54346c12.29069,8.80785,44.58992,23.49069,86.34389,23.49889h0.03461
		c41.75398-0.00819,74.05321-14.69104,86.34409-23.49889c18.41837-13.19901,34.87119-36.36781,34.87119-58.54346
		c0-7.12804,0.02457-15.41515,0.06573-24.28622l-12.15495-8.65953l12.18156,3.29395
		C258.724,82.95466,259.32098,26.65724,259.32098,26.65724z"/>
</g>
</svg>
