<?xml version="1.0" encoding="utf-8"?>
<!-- Generator: Adobe Illustrator 19.0.0, SVG Export Plug-In . SVG Version: 6.00 Build 0)  -->
<svg version="1.1" id="Layer_1" xmlns="http://www.w3.org/2000/svg" xmlns:xlink="http://www.w3.org/1999/xlink" x="0px" y="0px"
	 viewBox="0 0 318 286.5" style="enable-background:new 0 0 318 286.5;" xml:space="preserve">
<style type="text/css">
	.st0{fill:#EF7B05;}
</style>
<g id="_x35__2_">
	<g id="XMLID_145_">
		<path id="XMLID_146_" class="st0" d="M223.7,133.5c-2.6-9-31.6-19.8-40.1-19.4c-8.9,0.4-15,5.3-20.5,5.3s-11.6-4.9-20.5-5.3
			c-8.5-0.4-37.5,10.4-40.1,19.4c-2.6,9,1.2,34.7,4.2,33.6c3-1.1,5.3-4,8.7-6.3c3.4-2.3-2.9-19.1,4.3-22.2
			c7.2-3.1,43.4-3.4,43.4-3.4s36.2,0.3,43.4,3.4c7.2,3.1,0.9,19.8,4.3,22.2c3.4,2.3,5.7,5.2,8.7,6.3
			C222.5,168.3,226.3,142.6,223.7,133.5z"/>
	</g>
	<path id="XMLID_144_" class="st0" d="M285.2,35.2l-6.7,5.8c0,34.9-6.6,46.1-14.6,55.1c-7.9,9.1-31.5,34.3-45.9,52.4
		c-14.4,18.1-20.7,15.6-28.4,15.8c-7.8,0.2-12.2-7.3-12.2-7.3H163h0h0h0h-14.2c0,0-4.5,7.5-12.2,7.3c-7.8-0.2-14,2.4-28.4-15.8
		c-14.4-18.1-38-43.4-45.9-52.4C54.2,87,47.6,75.8,47.6,41l-6.7-5.8c0,0,0.6,56.3,0.8,101.1l12.2-3.3l-12.2,8.7
		c0,8.9,0.1,17.2,0.1,24.3c0,23.1,16.5,45.3,34.9,58.5c12.3,8.8,44.6,23.5,86.3,23.5h0c41.8,0,74.1-14.7,86.3-23.5
		c18.4-13.2,34.9-36.4,34.9-58.5c0-7.1,0-15.4,0.1-24.3l-12.2-8.7l12.2,3.3C284.6,91.5,285.2,35.2,285.2,35.2z"/>
</g>
</svg>
