<?xml version="1.0" encoding="utf-8"?>
<!-- Generator: Adobe Illustrator 19.0.0, SVG Export Plug-In . SVG Version: 6.00 Build 0)  -->
<svg version="1.1" id="Layer_1" xmlns="http://www.w3.org/2000/svg" xmlns:xlink="http://www.w3.org/1999/xlink" x="0px" y="0px"
	 viewBox="0 0 318 286.5" style="enable-background:new 0 0 318 286.5;" xml:space="preserve">
<style type="text/css">
	.st0{fill:#EF7B05;}
</style>
<path id="_x33__3_" class="st0" d="M288.3,71.3c0-1.5,0.1-3,0.1-4.6l-7,4.4c0,0-0.7,11.6-3.4,22c-3.9,14.9-24.5,32.4-45.3,48.4
	c-1.3,1-2.5,2-3.7,3c-2.6-4.5-6.4-9.3-11.5-12.2c-11.5-6.5-27.5-9.3-38-11.4c-2.9-0.6-6.1-0.6-8.9,0.3c-2.3,0.7-5.2,1.4-7.5,1.4
	c-2.3,0-5.2-0.7-7.5-1.4c-2.8-0.9-6-0.9-8.9-0.3c-10.4,2.1-26.5,4.9-38,11.4c-4.8,2.7-8.4,7.1-11,11.3c-1.4-1.2-2.7-2.3-4.2-3.4
	c-20.8-16-41.4-32.1-45.3-47c-2.7-10.4-3.4-22-3.4-22l-7-4.4c0,1.5,0,3.1,0.1,4.6c0,0,0,0.1,0,0.1c0.9,34,11.7,64.2,20.8,78.8
	c29.4,47.3,62.5,65.9,69.7,65.9c8.4,0,34.8-13.2,34.8-13.2v0l0,0c0,0,26.5,13.2,34.8,13.2c7.1,0,40.3-18.7,69.7-65.9
	c9.1-14.6,19.9-44.8,20.8-78.8C288.3,71.4,288.3,71.4,288.3,71.3z M118.3,138.8c4.9-1.3,11.9-1.1,18.7-1.6c6.4-0.5,19.3-3.1,26-3.1
	c6.8,0,19.6,2.5,26,3.1c6.7,0.6,13.8,0.3,18.7,1.6c13.9,3.7,11.1,12.6,5.3,18.5c-5.9,4.3-12.4,8-21.1,10.6c-16.3,5-15-8.8-15-8.8
	h-27.9c0,0,1.8,12.7-15,8.8c-8.8-2.1-15.2-5.9-21-10.5C107.2,151.5,104.4,142.5,118.3,138.8z"/>
</svg>
