<?xml version="1.0" encoding="utf-8"?>
<!-- Generator: Adobe Illustrator 19.0.0, SVG Export Plug-In . SVG Version: 6.00 Build 0)  -->
<svg version="1.1" id="Layer_1" xmlns="http://www.w3.org/2000/svg" xmlns:xlink="http://www.w3.org/1999/xlink" x="0px" y="0px"
	 viewBox="0 0 272.3 164.9" style="enable-background:new 0 0 272.3 164.9;" xml:space="preserve">
<style type="text/css">
	.st0{fill:#EF7B05;}
</style>
<g id="XMLID_8580_">
	<g id="XMLID_8845_">
		<g id="XMLID_8846_">
			<path id="XMLID_8847_" class="st0" d="M33.2,55.3c0,0-1.1,0.1-2.2,0.2c-0.6,0-1.1,0-1.5,0c-0.4,0-0.7,0-0.7,0c0,0-1-0.4-2.1-0.7
				c-1-0.5-1.9-0.9-1.9-0.9s1,0.3,2,0.5c1,0.1,2.1,0.3,2.1,0.3c0,0,0.3,0.1,0.7,0.2c0.4,0.1,0.9,0.2,1.5,0.3
				C32.1,55.2,33.2,55.3,33.2,55.3z"/>
		</g>
	</g>
	<g id="XMLID_8842_">
		<g id="XMLID_8843_">
			<path id="XMLID_8844_" class="st0" d="M42,65.8c0,0-6.9-1.1-7-1.2c-0.1,0-6.6-1.9-6.6-1.9s6.7,1.1,6.8,1.1
				C35.2,63.8,42,65.8,42,65.8z"/>
		</g>
	</g>
	<g id="XMLID_8839_">
		<g id="XMLID_8840_">
			<path id="XMLID_8841_" class="st0" d="M39.5,70.9c0,0-4.5-0.2-4.5-0.2c0,0-4.3-1-4.3-1s4.4,0.2,4.4,0.2
				C35.2,69.9,39.5,70.9,39.5,70.9z"/>
		</g>
	</g>
	<g id="XMLID_8836_">
		<g id="XMLID_8837_">
			<path id="XMLID_8838_" class="st0" d="M46.4,59.5c0,0-4.1,0.1-4.1,0.1c0,0-3.9-0.7-3.9-0.7s3.9-0.1,4-0.1
				C42.4,58.8,46.4,59.5,46.4,59.5z"/>
		</g>
	</g>
	<g id="XMLID_8833_">
		<g id="XMLID_8834_">
			<path id="XMLID_8835_" class="st0" d="M49.2,68.5c0,0-2.8,0.4-2.8,0.4s-2.8-0.4-2.8-0.4s2.7-0.4,2.8-0.4S49.2,68.5,49.2,68.5z"/>
		</g>
	</g>
	<g id="XMLID_8830_">
		<g id="XMLID_8831_">
			<path id="XMLID_8832_" class="st0" d="M30,66.9c0,0-3.1-0.2-3.1-0.2c0,0-2.9-1-2.9-1s3,0.1,3,0.2C27,65.9,30,66.9,30,66.9z"/>
		</g>
	</g>
	<g id="XMLID_8827_">
		<g id="XMLID_8828_">
			<path id="XMLID_8829_" class="st0" d="M36.4,77.4c0,0-3.3-0.2-3.3-0.2c0,0-3.1-1-3.1-1s3.2,0.1,3.2,0.1
				C33.2,76.4,36.4,77.4,36.4,77.4z"/>
		</g>
	</g>
	<g id="XMLID_8824_">
		<g id="XMLID_8825_">
			<path id="XMLID_8826_" class="st0" d="M43.2,84.7c0,0-3.4,0.4-3.4,0.4c0,0-3.3-0.4-3.3-0.4s3.3-0.4,3.3-0.4
				C39.7,84.3,43.2,84.7,43.2,84.7z"/>
		</g>
	</g>
	<g id="XMLID_8821_">
		<g id="XMLID_8822_">
			<path id="XMLID_8823_" class="st0" d="M50.7,76.6c0,0-0.7,0.4-1.4,0.8c-0.4,0.2-0.7,0.3-1,0.4c-0.3,0.1-0.5,0.2-0.5,0.2
				c0,0-0.8,0-1.6,0c-0.8-0.1-1.5-0.2-1.5-0.2s0.7-0.1,1.5-0.2c0.7-0.2,1.4-0.4,1.4-0.4c0,0,0.2,0,0.5-0.1c0.3,0,0.7-0.1,1.1-0.1
				C50,76.8,50.7,76.6,50.7,76.6z"/>
		</g>
	</g>
	<g id="XMLID_8818_">
		<g id="XMLID_8819_">
			<path id="XMLID_8820_" class="st0" d="M52.3,83.5c0,0-0.7,0.3-1.5,0.5c-0.4,0.1-0.8,0.2-1.1,0.2c-0.3,0.1-0.5,0.1-0.5,0.1
				c0,0-0.8-0.2-1.5-0.3c-0.7-0.3-1.4-0.5-1.4-0.5s0.7,0,1.5,0.1c0.7-0.1,1.5-0.1,1.5-0.1c0,0,0.2,0,0.5,0c0.3,0,0.7,0.1,1,0.1
				C51.6,83.6,52.3,83.5,52.3,83.5z"/>
		</g>
	</g>
	<g id="XMLID_8815_">
		<g id="XMLID_8816_">
			<path id="XMLID_8817_" class="st0" d="M44,78.6c0,0-2.6,0.6-2.6,0.6c0,0-2.6-0.2-2.6-0.2s2.5-0.6,2.5-0.6
				C41.3,78.4,44,78.6,44,78.6z"/>
		</g>
	</g>
	<g id="XMLID_8812_">
		<g id="XMLID_8813_">
			<path id="XMLID_8814_" class="st0" d="M57.2,80c0,0-1.7,0.3-1.7,0.3c0,0-1.5-0.6-1.5-0.6s1.6-0.3,1.6-0.3
				C55.6,79.4,57.2,80,57.2,80z"/>
		</g>
	</g>
	<g id="XMLID_8809_">
		<g id="XMLID_8810_">
			<path id="XMLID_8811_" class="st0" d="M51.1,89c0,0-0.9,0.3-1.7,0.7c-0.5,0.1-0.9,0.3-1.2,0.4c-0.3,0.1-0.6,0.2-0.6,0.2
				c0,0-0.9-0.1-1.9-0.1c-0.9-0.2-1.8-0.3-1.8-0.3s0.9-0.1,1.8-0.1c0.9-0.2,1.8-0.3,1.8-0.3c0,0,0.2,0,0.6,0c0.3,0,0.8,0,1.3-0.1
				C50.2,89.1,51.1,89,51.1,89z"/>
		</g>
	</g>
	<g id="XMLID_8806_">
		<g id="XMLID_8807_">
			<path id="XMLID_8808_" class="st0" d="M57.9,93.6c0,0-1.2,0.7-2.4,1.4c-0.6,0.3-1.3,0.5-1.8,0.8C53.3,96,53,96.1,53,96.1
				c0,0-1.4,0.1-2.7,0.3c-1.3,0-2.7-0.1-2.7-0.1s1.3-0.2,2.6-0.3c1.3-0.3,2.6-0.7,2.6-0.7c0,0,0.3-0.1,0.8-0.2
				c0.5-0.1,1.2-0.3,1.8-0.5C56.7,94.1,57.9,93.6,57.9,93.6z"/>
		</g>
	</g>
	<g id="XMLID_8803_">
		<g id="XMLID_8804_">
			<path id="XMLID_8805_" class="st0" d="M62.3,85.1c0,0-4.1,1.3-4.1,1.3c0,0-4.2,0.4-4.2,0.4s4-1.3,4-1.3
				C58,85.5,62.3,85.1,62.3,85.1z"/>
		</g>
	</g>
	<g id="XMLID_8800_">
		<g id="XMLID_8801_">
			<path id="XMLID_8802_" class="st0" d="M65.1,90.8c0,0-3.8,0.6-3.8,0.6c0,0-3.8-0.3-3.8-0.3s3.7-0.6,3.7-0.6
				C61.3,90.5,65.1,90.8,65.1,90.8z"/>
		</g>
	</g>
	<g id="XMLID_8797_">
		<g id="XMLID_8798_">
			<path id="XMLID_8799_" class="st0" d="M65.1,97.1c0,0-4.7,1.8-4.7,1.8c0,0-4.8,0.9-4.8,0.9s4.6-1.7,4.6-1.7
				C60.2,98,65.1,97.1,65.1,97.1z"/>
		</g>
	</g>
	<g id="XMLID_8794_">
		<g id="XMLID_8795_">
			<path id="XMLID_8796_" class="st0" d="M68.3,103.1c0,0-4.4,2-4.5,2.1c0,0-4.7,1.2-4.7,1.2s4.3-2,4.3-2
				C63.5,104.3,68.3,103.1,68.3,103.1z"/>
		</g>
	</g>
	<g id="XMLID_8791_">
		<g id="XMLID_8792_">
			<path id="XMLID_8793_" class="st0" d="M69.1,109c0,0-3.2,2.5-3.2,2.5c0,0-3.6,1.7-3.6,1.7s3.1-2.4,3.1-2.5
				C65.4,110.8,69.1,109,69.1,109z"/>
		</g>
	</g>
	<g id="XMLID_8788_">
		<g id="XMLID_8789_">
			<path id="XMLID_8790_" class="st0" d="M74.7,106.3c0,0-2.4,1.7-2.4,1.8c0,0-2.8,1-2.8,1s2.3-1.7,2.3-1.7
				C71.9,107.3,74.7,106.3,74.7,106.3z"/>
		</g>
	</g>
	<g id="XMLID_8785_">
		<g id="XMLID_8786_">
			<path id="XMLID_8787_" class="st0" d="M75.1,112.5c0,0-2.9,2.5-3,2.5c0,0-3.4,1.8-3.4,1.8s2.8-2.5,2.9-2.5
				C71.6,114.3,75.1,112.5,75.1,112.5z"/>
		</g>
	</g>
	<g id="XMLID_8782_">
		<g id="XMLID_8783_">
			<path id="XMLID_8784_" class="st0" d="M79.5,114.9c0,0-3.3,3.4-3.4,3.5c0,0-3.8,2.7-3.8,2.7s3.2-3.3,3.2-3.4
				C75.6,117.6,79.5,114.9,79.5,114.9z"/>
		</g>
	</g>
	<g id="XMLID_8779_">
		<g id="XMLID_8780_">
			<path id="XMLID_8781_" class="st0" d="M81.5,118.3c0,0-2.1,3.4-2.1,3.4c0,0-2.7,2.8-2.7,2.8s2-3.3,2-3.3
				C78.8,121.2,81.5,118.3,81.5,118.3z"/>
		</g>
	</g>
	<g id="XMLID_8776_">
		<g id="XMLID_8777_">
			<path id="XMLID_8778_" class="st0" d="M85.9,122.6c0,0-0.8,3.1-0.8,3.1c0,0-1.6,2.7-1.6,2.7s0.7-3,0.7-3
				C84.3,125.3,85.9,122.6,85.9,122.6z"/>
		</g>
	</g>
	<g id="XMLID_8773_">
		<g id="XMLID_8774_">
			<path id="XMLID_8775_" class="st0" d="M84.7,119.5c0,0-1.1,2-1.1,2c0,0-1.7,1.5-1.7,1.5s1-2,1-2C83,121,84.7,119.5,84.7,119.5z"
				/>
		</g>
	</g>
	<g id="XMLID_8770_">
		<g id="XMLID_8771_">
			<path id="XMLID_8772_" class="st0" d="M91.1,121.4c0,0-1,2.9-1,2.9c0,0-1.8,2.5-1.8,2.5s1-2.8,1-2.9
				C89.3,124,91.1,121.4,91.1,121.4z"/>
		</g>
	</g>
	<g id="XMLID_8767_">
		<g id="XMLID_8768_">
			<path id="XMLID_8769_" class="st0" d="M93.5,125.7c0,0-0.2,0.9-0.5,1.8c-0.1,0.9-0.3,1.8-0.3,1.8c0,0-0.3,0.8-0.5,1.7
				c-0.2,0.9-0.3,1.7-0.3,1.7s-0.1-0.9-0.1-1.8c0-0.9,0.1-1.8,0.1-1.8c0,0,0.1-0.2,0.2-0.6c0.1-0.3,0.3-0.8,0.5-1.2
				C93.1,126.5,93.5,125.7,93.5,125.7z"/>
		</g>
	</g>
	<g id="XMLID_8764_">
		<g id="XMLID_8765_">
			<path id="XMLID_8766_" class="st0" d="M100.3,125.7c0,0-0.3,1.3-0.7,2.5c-0.1,0.6-0.2,1.3-0.3,1.8c0,0.2-0.1,0.4-0.1,0.6
				c0,0.1,0,0.2,0,0.2c0,0-0.3,1.2-0.6,2.5c-0.2,1.2-0.4,2.5-0.4,2.5s0-1.3,0-2.5c0.1-1.3,0.2-2.6,0.2-2.6c0,0,0-0.1,0.1-0.2
				c0-0.1,0.1-0.3,0.2-0.6c0.2-0.5,0.4-1.1,0.6-1.7C99.8,126.9,100.3,125.7,100.3,125.7z"/>
		</g>
	</g>
	<g id="XMLID_8761_">
		<g id="XMLID_8762_">
			<path id="XMLID_8763_" class="st0" d="M106,127.2c0,0,0.3,4.3,0.2,4.3c0,0-0.6,4.2-0.6,4.2s-0.3-4.2-0.3-4.2
				C105.3,131.5,106,127.2,106,127.2z"/>
		</g>
	</g>
	<g id="XMLID_8758_">
		<g id="XMLID_8759_">
			<path id="XMLID_8760_" class="st0" d="M102.7,118.7c0,0,0.2,2.8,0.2,2.8c0,0-0.6,2.6-0.6,2.6s-0.2-2.7-0.2-2.7
				C102,121.4,102.7,118.7,102.7,118.7z"/>
		</g>
	</g>
	<g id="XMLID_8755_">
		<g id="XMLID_8756_">
			<path id="XMLID_8757_" class="st0" d="M112.3,129.2c0,0-0.1,0.8-0.3,1.7c0,0.8-0.1,1.7-0.1,1.7c0,0-0.2,0.8-0.3,1.6
				c-0.1,0.8-0.2,1.6-0.2,1.6s-0.1-0.8-0.3-1.6c-0.1-0.8-0.1-1.7-0.1-1.7c0,0,0.1-0.2,0.2-0.5c0.1-0.3,0.2-0.7,0.4-1.1
				C112,129.9,112.3,129.2,112.3,129.2z"/>
		</g>
	</g>
	<g id="XMLID_8752_">
		<g id="XMLID_8753_">
			<path id="XMLID_8754_" class="st0" d="M117.9,128.4c0,0,0,1.2,0,2.4c0.1,0.6,0.1,1.2,0.2,1.6c0,0.2,0,0.4,0.1,0.5
				c0,0.1,0,0.2,0,0.2c0,0,0,1.2,0,2.3c0.1,1.1,0.3,2.3,0.3,2.3s-0.4-1.1-0.7-2.2c-0.2-1.2-0.5-2.3-0.5-2.3c0,0,0-0.1,0-0.2
				c0-0.1,0-0.3,0-0.6c0-0.5,0.1-1.1,0.1-1.7C117.7,129.6,117.9,128.4,117.9,128.4z"/>
		</g>
	</g>
	<g id="XMLID_8749_">
		<g id="XMLID_8750_">
			<path id="XMLID_8751_" class="st0" d="M114.7,122.6c0,0-0.1,0.9-0.2,1.8c0,0.4,0.1,0.9,0.1,1.2c0,0.3,0,0.5,0,0.6
				c0,0,0,0.9,0,1.7c0.2,0.9,0.4,1.7,0.4,1.7s-0.4-0.8-0.8-1.6c-0.1-0.4-0.2-0.9-0.3-1.2c-0.1-0.3-0.1-0.6-0.1-0.6
				c0,0,0-0.3,0.1-0.6c0.1-0.3,0.1-0.8,0.2-1.3C114.4,123.5,114.7,122.6,114.7,122.6z"/>
		</g>
	</g>
	<g id="XMLID_8746_">
		<g id="XMLID_8747_">
			<path id="XMLID_8748_" class="st0" d="M122.6,124.5c0,0,0.6,3.5,0.6,3.5c0,0-0.3,3.4-0.3,3.4s-0.6-3.4-0.6-3.4
				C122.3,128,122.6,124.5,122.6,124.5z"/>
		</g>
	</g>
	<g id="XMLID_8743_">
		<g id="XMLID_8744_">
			<path id="XMLID_8745_" class="st0" d="M126.7,128.8c0,0,0.9,4.4,0.9,4.5c0,0,0,4.4,0,4.4s-0.9-4.3-0.9-4.3
				C126.7,133.3,126.7,128.8,126.7,128.8z"/>
		</g>
	</g>
	<g id="XMLID_8740_">
		<g id="XMLID_8741_">
			<path id="XMLID_8742_" class="st0" d="M131.9,131.1c0,0-0.8-3.9-0.8-3.9c0,0,0-0.4,0-1c0-0.5,0.1-1.1,0.1-1.6l0-0.8l0.2,0.7
				c0.2,0.7,0.3,1.2,0.3,1.2s-0.2-0.4-0.5-1.2l0.2,0c0.1,0.5,0.2,1.1,0.4,1.6c0.1,0.6,0.2,1,0.2,1
				C132,127.1,131.9,131.1,131.9,131.1z"/>
		</g>
	</g>
	<g id="XMLID_8737_">
		<g id="XMLID_8738_">
			<path id="XMLID_8739_" class="st0" d="M134.2,137.3c0,0-0.7-2.3-0.7-2.3c0,0,0.2-2.3,0.2-2.3s0.6,2.2,0.6,2.2
				C134.5,134.9,134.2,137.3,134.2,137.3z"/>
		</g>
	</g>
	<g id="XMLID_8734_">
		<g id="XMLID_8735_">
			<path id="XMLID_8736_" class="st0" d="M139.1,128.8c0,0-0.4-2.9-0.4-2.9c0,0,0.4-2.9,0.4-2.9s0.4,2.8,0.4,2.9
				C139.5,125.9,139.1,128.8,139.1,128.8z"/>
		</g>
	</g>
	<g id="XMLID_8731_">
		<g id="XMLID_8732_">
			<path id="XMLID_8733_" class="st0" d="M141.9,136.9c0,0-0.2-4.5-0.2-4.5c0,0,0.6-4.4,0.6-4.4s0.3,4.4,0.3,4.4
				C142.6,132.4,141.9,136.9,141.9,136.9z"/>
		</g>
	</g>
	<g id="XMLID_8728_">
		<g id="XMLID_8729_">
			<path id="XMLID_8730_" class="st0" d="M147.1,132.6c0,0-0.6-3.7-0.6-3.7c0,0,0.3-3.6,0.3-3.6s0.6,3.6,0.6,3.6
				C147.4,128.9,147.1,132.6,147.1,132.6z"/>
		</g>
	</g>
	<g id="XMLID_8725_">
		<g id="XMLID_8726_">
			<path id="XMLID_8727_" class="st0" d="M154.2,136.9c0,0-1-2.4-1-2.5c0,0-0.2-2.6-0.2-2.6s1,2.4,1,2.4
				C154.1,134.3,154.2,136.9,154.2,136.9z"/>
		</g>
	</g>
	<g id="XMLID_8722_">
		<g id="XMLID_8723_">
			<path id="XMLID_8724_" class="st0" d="M156.2,128.4c0,0-1.5-3.8-1.5-3.8c0,0-0.6-3.9-0.6-3.9s1.4,3.7,1.4,3.7
				C155.6,124.4,156.2,128.4,156.2,128.4z"/>
		</g>
	</g>
	<g id="XMLID_8719_">
		<g id="XMLID_8720_">
			<path id="XMLID_8721_" class="st0" d="M161.2,135.7c0,0-0.9-3.3-0.9-3.3c0,0,0-3.3,0-3.3s0.8,3.2,0.8,3.2
				C161.2,132.4,161.2,135.7,161.2,135.7z"/>
		</g>
	</g>
	<g id="XMLID_8716_">
		<g id="XMLID_8717_">
			<path id="XMLID_8718_" class="st0" d="M163.9,125.7c0,0-1.2-3-1.2-3c0,0-0.4-3.2-0.4-3.2s1.2,2.9,1.2,2.9
				C163.5,122.5,163.9,125.7,163.9,125.7z"/>
		</g>
	</g>
	<g id="XMLID_8713_">
		<g id="XMLID_8714_">
			<path id="XMLID_8715_" class="st0" d="M168.7,132.2c0,0-1.6-2.8-1.6-2.8c0,0-0.8-3-0.8-3s1.6,2.7,1.6,2.7
				C167.9,129.2,168.7,132.2,168.7,132.2z"/>
		</g>
	</g>
	<g id="XMLID_8710_">
		<g id="XMLID_8711_">
			<path id="XMLID_8712_" class="st0" d="M174.3,131.8c0,0-2-2.5-2-2.6c0,0-1.2-2.9-1.2-2.9s1.9,2.4,1.9,2.5
				C173.1,128.9,174.3,131.8,174.3,131.8z"/>
		</g>
	</g>
	<g id="XMLID_8707_">
		<g id="XMLID_8708_">
			<path id="XMLID_8709_" class="st0" d="M171,122.6c0,0-1.8-1.5-1.8-1.5c0,0-1-2-1-2s1.7,1.4,1.7,1.5
				C170,120.6,171,122.6,171,122.6z"/>
		</g>
	</g>
	<g id="XMLID_8704_">
		<g id="XMLID_8705_">
			<path id="XMLID_8706_" class="st0" d="M180.2,128.4c0,0-2.7-3.1-2.8-3.1c0,0-2-3.5-2-3.5s2.7,3,2.7,3
				C178.2,124.8,180.2,128.4,180.2,128.4z"/>
		</g>
	</g>
	<g id="XMLID_8701_">
		<g id="XMLID_8702_">
			<path id="XMLID_8703_" class="st0" d="M181.9,120.2c0,0-2.7-1.6-2.7-1.6c0,0-2.1-2.2-2.1-2.2s2.6,1.6,2.6,1.6
				C179.7,118,181.9,120.2,181.9,120.2z"/>
		</g>
	</g>
	<g id="XMLID_8698_">
		<g id="XMLID_8699_">
			<path id="XMLID_8700_" class="st0" d="M188.3,125.2c0,0-2.2-2.1-2.2-2.1c0,0-1.4-2.5-1.4-2.5s2.1,2,2.1,2
				C186.8,122.7,188.3,125.2,188.3,125.2z"/>
		</g>
	</g>
	<g id="XMLID_8695_">
		<g id="XMLID_8696_">
			<path id="XMLID_8697_" class="st0" d="M188.2,117.5c0,0-2.2-0.8-2.3-0.8c0,0-1.7-1.5-1.7-1.5s2.2,0.8,2.2,0.8
				C186.5,116,188.2,117.5,188.2,117.5z"/>
		</g>
	</g>
	<g id="XMLID_8692_">
		<g id="XMLID_8693_">
			<path id="XMLID_8694_" class="st0" d="M198.1,118.4c0,0-3.5-2.4-3.5-2.4c0,0-2.9-3-2.9-3s3.4,2.3,3.4,2.4
				C195.2,115.4,198.1,118.4,198.1,118.4z"/>
		</g>
	</g>
	<g id="XMLID_8689_">
		<g id="XMLID_8690_">
			<path id="XMLID_8691_" class="st0" d="M189.3,114.2c0,0-2.3-1.6-2.3-1.7c0,0-1.7-2.2-1.7-2.2s2.3,1.6,2.3,1.6
				C187.6,111.9,189.3,114.2,189.3,114.2z"/>
		</g>
	</g>
	<g id="XMLID_8686_">
		<g id="XMLID_8687_">
			<path id="XMLID_8688_" class="st0" d="M197,108.3c0,0-3-1.2-3.1-1.2c0,0-2.5-1.9-2.5-1.9s3,1.1,3,1.1
				C194.4,106.4,197,108.3,197,108.3z"/>
		</g>
	</g>
	<g id="XMLID_8683_">
		<g id="XMLID_8684_">
			<path id="XMLID_8685_" class="st0" d="M205,112.1c0,0-2.7-1.2-2.7-1.2c0,0-2.1-1.9-2.1-1.9s2.6,1.2,2.6,1.2
				C202.9,110.2,205,112.1,205,112.1z"/>
		</g>
	</g>
	<g id="XMLID_8680_">
		<g id="XMLID_8681_">
			<path id="XMLID_8682_" class="st0" d="M207.7,108.1c0,0-3.2-1.2-3.2-1.2c0,0-2.7-1.9-2.7-1.9s3.1,1.2,3.1,1.2
				C204.9,106.1,207.7,108.1,207.7,108.1z"/>
		</g>
	</g>
	<g id="XMLID_8677_">
		<g id="XMLID_8678_">
			<path id="XMLID_8679_" class="st0" d="M203.4,102.1c0,0-0.8,0.1-1.6,0.3c-0.4,0-0.8,0-1.2,0c-0.3,0-0.5,0-0.6,0
				c0,0-0.2-0.1-0.5-0.2c-0.3-0.1-0.6-0.3-1-0.5c-0.6-0.5-1.2-1-1.2-1s0.7,0.3,1.4,0.6c0.7,0.2,1.5,0.3,1.5,0.3c0,0,0.2,0.1,0.5,0.1
				c0.3,0.1,0.7,0.2,1,0.3C202.6,102,203.4,102.1,203.4,102.1z"/>
		</g>
	</g>
	<g id="XMLID_8674_">
		<g id="XMLID_8675_">
			<path id="XMLID_8676_" class="st0" d="M206.2,99c0,0-0.9-0.4-1.7-0.9c-0.4-0.3-0.8-0.5-1.1-0.7c-0.3-0.2-0.5-0.3-0.5-0.4
				c0,0-0.6-0.8-1.2-1.5c-0.5-0.8-1-1.6-1-1.6s0.7,0.6,1.3,1.3c0.7,0.6,1.5,1.2,1.5,1.2c0,0,0.2,0.2,0.4,0.4
				c0.3,0.3,0.6,0.6,0.9,0.9C205.5,98.4,206.2,99,206.2,99z"/>
		</g>
	</g>
	<g id="XMLID_8671_">
		<g id="XMLID_8672_">
			<path id="XMLID_8673_" class="st0" d="M216.3,104.8c0,0-1.9-1.3-1.9-1.3c0,0-1.2-1.8-1.2-1.8s1.9,1.2,1.9,1.2
				C215,102.9,216.3,104.8,216.3,104.8z"/>
		</g>
	</g>
	<g id="XMLID_8668_">
		<g id="XMLID_8669_">
			<path id="XMLID_8670_" class="st0" d="M218.2,97.9c0,0-4.6-1.4-4.6-1.4c0,0-4.2-2.1-4.2-2.1s4.5,1.3,4.5,1.3
				C213.9,95.8,218.2,97.9,218.2,97.9z"/>
		</g>
	</g>
	<g id="XMLID_8665_">
		<g id="XMLID_8666_">
			<path id="XMLID_8667_" class="st0" d="M223.8,94.7c0,0-3-0.5-3-0.6c0,0-2.6-1.3-2.6-1.3s2.9,0.5,2.9,0.5
				C221.1,93.4,223.8,94.7,223.8,94.7z"/>
		</g>
	</g>
	<g id="XMLID_8662_">
		<g id="XMLID_8663_">
			<path id="XMLID_8664_" class="st0" d="M213.8,88.7c0,0-3.1-0.3-3.2-0.3c0,0-2.9-1.1-2.9-1.1s3,0.3,3.1,0.3S213.8,88.7,213.8,88.7
				z"/>
		</g>
	</g>
	<g id="XMLID_8659_">
		<g id="XMLID_8660_">
			<path id="XMLID_8661_" class="st0" d="M216.2,82.4c0,0-2.7-0.4-2.8-0.4c0,0-2.4-1.2-2.4-1.2s2.7,0.3,2.7,0.3
				C213.7,81.2,216.2,82.4,216.2,82.4z"/>
		</g>
	</g>
	<g id="XMLID_8656_">
		<g id="XMLID_8657_">
			<path id="XMLID_8658_" class="st0" d="M223.4,86.3c0,0-2.8-0.5-2.8-0.5c0,0-2.4-1.3-2.4-1.3s2.7,0.5,2.7,0.5
				C220.9,85,223.4,86.3,223.4,86.3z"/>
		</g>
	</g>
	<g id="XMLID_8653_">
		<g id="XMLID_8654_">
			<path id="XMLID_8655_" class="st0" d="M227,89.4c0,0-0.6,0.2-1.3,0.5c-0.3,0.1-0.7,0.1-1,0.2c-0.3,0-0.5,0.1-0.5,0.1
				c0,0-0.7-0.2-1.3-0.5c-0.6-0.3-1.2-0.7-1.2-0.7s0.6,0.1,1.3,0.3c0.6,0,1.3,0,1.3,0c0,0,0.2,0,0.4,0.1c0.2,0,0.6,0.1,0.9,0.1
				C226.3,89.4,227,89.4,227,89.4z"/>
		</g>
	</g>
	<g id="XMLID_8650_">
		<g id="XMLID_8651_">
			<path id="XMLID_8652_" class="st0" d="M232.9,83.1c0,0-4.4-1.2-4.4-1.2s-3.9-2-3.9-2s4.2,1.2,4.3,1.2S232.9,83.1,232.9,83.1z"/>
		</g>
	</g>
	<g id="XMLID_8647_">
		<g id="XMLID_8648_">
			<path id="XMLID_8649_" class="st0" d="M219.7,76c0,0-3.1-0.4-3.2-0.4c0,0-2.8-1.2-2.8-1.2s3,0.4,3.1,0.4
				C216.9,74.8,219.7,76,219.7,76z"/>
		</g>
	</g>
	<g id="XMLID_8644_">
		<g id="XMLID_8645_">
			<path id="XMLID_8646_" class="st0" d="M227.4,71.6c0,0-1.1,0-2.2-0.1c-0.5-0.1-1.1-0.2-1.5-0.3c-0.4-0.1-0.7-0.1-0.7-0.2
				c0,0-0.9-0.6-1.8-1.2c-0.8-0.7-1.5-1.4-1.5-1.4s0.9,0.5,1.8,1c0.9,0.4,1.9,0.7,1.9,0.7c0,0,0.2,0.1,0.6,0.3
				c0.4,0.2,0.8,0.4,1.3,0.6C226.4,71.4,227.4,71.6,227.4,71.6z"/>
		</g>
	</g>
	<g id="XMLID_8641_">
		<g id="XMLID_8642_">
			<path id="XMLID_8643_" class="st0" d="M235.8,77.5c0,0-1,0.1-1.9,0.3c-0.5,0-1,0-1.4,0c-0.4,0-0.6,0-0.6,0c0,0-0.2-0.1-0.6-0.3
				c-0.3-0.2-0.8-0.3-1.2-0.6c-0.8-0.5-1.5-1.1-1.5-1.1s0.9,0.3,1.7,0.7c0.9,0.2,1.8,0.4,1.8,0.4c0,0,0.2,0.1,0.6,0.2
				c0.3,0.1,0.8,0.2,1.3,0.3C234.9,77.4,235.8,77.5,235.8,77.5z"/>
		</g>
	</g>
	<g id="XMLID_8638_">
		<g id="XMLID_8639_">
			<path id="XMLID_8640_" class="st0" d="M234.2,69.7c0,0-3-0.8-3-0.8c0,0-2.6-1.5-2.6-1.5s2.9,0.7,2.9,0.7
				C231.5,68.1,234.2,69.7,234.2,69.7z"/>
		</g>
	</g>
	<g id="XMLID_8635_">
		<g id="XMLID_8636_">
			<path id="XMLID_8637_" class="st0" d="M241,65.9c0,0-3.3-0.2-3.3-0.2c0,0-3.1-1-3.1-1s3.2,0.2,3.2,0.2
				C237.8,64.9,241,65.9,241,65.9z"/>
		</g>
	</g>
	<g id="XMLID_8632_">
		<g id="XMLID_8633_">
			<path id="XMLID_8634_" class="st0" d="M229.8,60.4c0,0-2.7-0.4-2.8-0.4c0,0-2.4-1.2-2.4-1.2s2.7,0.3,2.7,0.3
				C227.3,59.2,229.8,60.4,229.8,60.4z"/>
		</g>
	</g>
	<g id="XMLID_8629_">
		<g id="XMLID_8630_">
			<path id="XMLID_8631_" class="st0" d="M235,54.5c0,0-2.7-0.3-2.8-0.3c0,0-2.4-1.2-2.4-1.2s2.7,0.3,2.7,0.3
				C232.5,53.4,235,54.5,235,54.5z"/>
		</g>
	</g>
	<g id="XMLID_8626_">
		<g id="XMLID_8627_">
			<path id="XMLID_8628_" class="st0" d="M244.6,54.9c0,0-2.3-0.2-2.3-0.2c0,0-2-1-2-1s2.3,0.2,2.3,0.2
				C242.5,53.9,244.6,54.9,244.6,54.9z"/>
		</g>
	</g>
	<g id="XMLID_8623_">
		<g id="XMLID_8624_">
			<path id="XMLID_8625_" class="st0" d="M241.4,59.9c0,0-0.7,0.3-1.6,0.4c-0.8,0.1-1.7-0.1-1.7-0.1s-0.2-0.1-0.5-0.3
				c-0.3-0.1-0.6-0.4-0.9-0.6c-0.6-0.5-1-1.2-1-1.2s0.6,0.5,1.3,0.8c0.4,0.1,0.7,0.3,1,0.3c0.3,0.1,0.5,0.1,0.5,0.1s0.7,0.3,1.4,0.5
				C240.6,60,241.4,59.9,241.4,59.9z"/>
		</g>
	</g>
	<g id="XMLID_8620_">
		<g id="XMLID_8621_">
			<path id="XMLID_8622_" class="st0" d="M243.8,48.7c0,0-3.2-0.7-3.2-0.8c0,0-2.8-1.5-2.8-1.5s3.1,0.7,3.1,0.7
				C240.9,47.1,243.8,48.7,243.8,48.7z"/>
		</g>
	</g>
	<g id="XMLID_8617_">
		<g id="XMLID_8618_">
			<path id="XMLID_8619_" class="st0" d="M42.8,49.5c0,0-0.8-0.3-1.6-0.5c-0.4-0.1-0.8-0.1-1.1-0.1c-0.3,0-0.5-0.1-0.5-0.1
				c0,0-0.8-0.2-1.6-0.3c-0.8,0-1.6-0.1-1.6-0.1s0.8-0.2,1.6-0.4c0.4,0,0.8,0,1.2-0.1c0.3,0,0.6,0,0.6,0c0,0,0.2,0.1,0.5,0.2
				c0.3,0.1,0.7,0.3,1.1,0.4C42.1,49,42.8,49.5,42.8,49.5z"/>
		</g>
	</g>
	<g id="XMLID_8614_">
		<g id="XMLID_8615_">
			<path id="XMLID_8616_" class="st0" d="M27.2,47c0,0-3-0.5-3-0.5c0,0-2.6-1.3-2.6-1.3s2.9,0.5,2.9,0.5C24.5,45.7,27.2,47,27.2,47z
				"/>
		</g>
	</g>
	<g id="XMLID_8611_">
		<g id="XMLID_8612_">
			<path id="XMLID_8613_" class="st0" d="M97.6,115.6c0,0-0.8,3.8-0.8,3.9c0,0-1.6,3.5-1.6,3.5s0.7-3.7,0.7-3.7
				C95.9,119.2,97.6,115.6,97.6,115.6z"/>
		</g>
	</g>
	<g id="XMLID_8608_">
		<g id="XMLID_8609_">
			<path id="XMLID_8610_" class="st0" d="M91.1,113.3c0,0-1.7,2.4-1.7,2.4c0,0-2.3,1.8-2.3,1.8s1.6-2.4,1.6-2.4
				C88.7,115.1,91.1,113.3,91.1,113.3z"/>
		</g>
	</g>
	<g id="XMLID_8605_">
		<g id="XMLID_8606_">
			<path id="XMLID_8607_" class="st0" d="M85.9,111.8c0,0-2.5,1.4-2.5,1.4s-2.7,0.5-2.7,0.5s2.4-1.3,2.4-1.3
				C83.2,112.4,85.9,111.8,85.9,111.8z"/>
		</g>
	</g>
	<g id="XMLID_8602_">
		<g id="XMLID_8603_">
			<path id="XMLID_8604_" class="st0" d="M109.1,122.6c0,0,0-3.2,0-3.2c0,0,0.8-3,0.8-3s0.1,3.1,0.1,3.1
				C109.9,119.5,109.1,122.6,109.1,122.6z"/>
		</g>
	</g>
	<g id="XMLID_8599_">
		<g id="XMLID_8600_">
			<path id="XMLID_8601_" class="st0" d="M119.5,123.7c0,0-0.4-2.9-0.4-2.9s0.4-2.9,0.4-2.9s0.4,2.8,0.4,2.9
				S119.5,123.7,119.5,123.7z"/>
		</g>
	</g>
	<g id="XMLID_8596_">
		<g id="XMLID_8597_">
			<path id="XMLID_8598_" class="st0" d="M128.6,124.5c0,0-1-3-1-3.1c0,0-0.1-3.1-0.1-3.1s1,2.9,1,3
				C128.5,121.3,128.6,124.5,128.6,124.5z"/>
		</g>
	</g>
	<g id="XMLID_8593_">
		<g id="XMLID_8594_">
			<path id="XMLID_8595_" class="st0" d="M144.3,125.3c0,0-0.6-3.5-0.6-3.5c0,0,0.3-3.5,0.3-3.5s0.6,3.4,0.6,3.4
				S144.3,125.3,144.3,125.3z"/>
		</g>
	</g>
	<g id="XMLID_8590_">
		<g id="XMLID_8591_">
			<path id="XMLID_8592_" class="st0" d="M152.3,123.4c0,0-1.4-3-1.4-3c0,0-0.6-3.2-0.6-3.2s1.4,2.9,1.4,2.9
				C151.7,120.1,152.3,123.4,152.3,123.4z"/>
		</g>
	</g>
	<g id="XMLID_8587_">
		<g id="XMLID_8588_">
			<path id="XMLID_8589_" class="st0" d="M160.6,122.2c0,0-0.6-0.6-1.2-1.2c-0.3-0.3-0.5-0.7-0.7-0.9c-0.2-0.3-0.3-0.4-0.3-0.5
				c0,0-0.2-0.8-0.4-1.6c-0.1-0.8-0.1-1.6-0.1-1.6s0.3,0.7,0.6,1.5c0.4,0.7,0.8,1.4,0.8,1.4c0,0,0.1,0.2,0.2,0.5
				c0.1,0.3,0.3,0.7,0.4,1C160.2,121.5,160.6,122.2,160.6,122.2z"/>
		</g>
	</g>
	<g id="XMLID_8584_">
		<g id="XMLID_8585_">
			<path id="XMLID_8586_" class="st0" d="M176.6,118.4c0,0-2.9-2.4-3-2.4c0,0-2.2-3-2.2-3s2.9,2.3,2.9,2.4
				C174.3,115.4,176.6,118.4,176.6,118.4z"/>
		</g>
	</g>
	<g id="XMLID_8581_">
		<g id="XMLID_8582_">
			<path id="XMLID_8583_" class="st0" d="M183.1,112.1c0,0-0.7-0.4-1.3-0.8c-0.4-0.1-0.7-0.3-1-0.3c-0.3-0.1-0.4-0.2-0.5-0.2
				c0,0-0.7-0.3-1.4-0.6c-0.7-0.2-1.5-0.3-1.5-0.3s0.8,0,1.6-0.1c0.4,0,0.8,0.1,1.1,0.2c0.3,0,0.5,0.1,0.5,0.1c0,0,0.2,0.1,0.4,0.3
				c0.3,0.2,0.6,0.4,0.9,0.6C182.5,111.5,183.1,112.1,183.1,112.1z"/>
		</g>
	</g>
</g>
</svg>
