<?xml version="1.0" encoding="utf-8"?>
<!-- Generator: Adobe Illustrator 19.0.0, SVG Export Plug-In . SVG Version: 6.00 Build 0)  -->
<svg version="1.1" id="Layer_1" xmlns="http://www.w3.org/2000/svg" xmlns:xlink="http://www.w3.org/1999/xlink" x="0px" y="0px"
	 viewBox="0 0 119.5946 87.16216" style="enable-background:new 0 0 119.5946 87.16216;" xml:space="preserve">
<style type="text/css">
	.st0{fill:#EF7B05;}
</style>
<g id="Zappa_2_">
	<path id="XMLID_438_" class="st0" d="M57.03905,55.25396c0,0-9.28544-0.05774-16.91416-2.51285
		c0,0-0.35455,10.41628,1.18666,14.67268c0.23964,0.66172,0.98339,1.09383,1.80038,1.09383h13.92712h13.92712
		c0.81699,0,1.56087-0.43211,1.80038-1.09383c1.54121-4.25641,1.18666-14.67268,1.18666-14.67268
		C66.32461,55.19622,57.03905,55.25396,57.03905,55.25396z"/>
	<path id="XMLID_437_" class="st0" d="M103.77213,24.93777c-1.99185-8.93272-24.34735-19.61353-30.92287-19.23204
		C65.95458,6.10573,61.3,10.95245,57.03905,10.95245s-8.91553-4.84671-15.81021-5.24673
		c-6.5754-0.38148-28.93115,10.29932-30.92288,19.23204c-1.99185,8.93284,0.91936,34.4122,3.21747,33.34561
		c2.29823-1.06659,4.09505-3.97459,6.7268-6.26461c2.63176-2.29013-2.22142-18.90186,3.33446-21.95541
		c5.556-3.05332,33.45435-3.34429,33.45435-3.34429s27.89848,0.29097,33.45435,3.34429
		c5.556,3.05355,0.70271,19.66528,3.33447,21.95541c2.63175,2.29002,4.42857,5.19802,6.7268,6.26461
		C102.8529,59.34997,105.76398,33.8706,103.77213,24.93777z"/>
</g>
</svg>
