<?xml version="1.0" encoding="utf-8"?>
<!-- Generator: Adobe Illustrator 19.0.0, SVG Export Plug-In . SVG Version: 6.00 Build 0)  -->
<svg version="1.1" id="Layer_1" xmlns="http://www.w3.org/2000/svg" xmlns:xlink="http://www.w3.org/1999/xlink" x="0px" y="0px"
	 viewBox="0 0 310.81082 165.54054" style="enable-background:new 0 0 310.81082 165.54054;" xml:space="preserve">
<style type="text/css">
	.st0{fill:#EF7B05;}
</style>
<path id="XMLID_178_" class="st0" d="M282.25311,23.0756l-6.96066,4.2281c0,0,4.11438,30.4772-18.79404,47.77831
	c-15.11624,11.41599-26.37553,21.222-33.70975,27.43739c-0.62511-4.2756-2.09587-7.3732-5.22945-10.3055
	c-10.46002-9.7886-39.67177-16.0624-47.31845-17.8408c-7.64685-1.7785-13.28127,2.8455-13.28127,2.8455
	s-5.63426-4.624-13.28094-2.8455c-7.64668,1.7784-38.94675,9.32059-49.40694,19.1093c-3.13338,2.9323-2.51602,4.7615-3.14128,9.0372
	c-7.33405-6.2154-18.59352-14.75311-33.70974-26.1692c-22.90844-17.301-18.79418-49.0467-18.79418-49.0467l-6.96069-4.2281
	c-3.65986,39.9218-18.43267,74.05289-12.18418,85.6605c1.10484,2.0526,2.46169,4.3558,4.07456,6.8005
	c1.53385-2.2942,0.95205-1.8468,4.28117-5.0893c0,0-0.39791,0.8939-1.29777,3.1737c-1.00786,2.5531-0.4715,5.2009,1.14252,7.6313
	c2.14478,3.2298,5.41695,7.11471,9.13526,10.6381c3.53886,3.3535,12.96848,9.8436,12.96848,9.8436
	c0.0158-0.0746,0.05317-0.1364,0.07145-0.2097c1.00506-4.03999,3.52042-4.6483,3.52042-4.6483l-0.06701,0.1122
	c-1.87199,3.13721-0.27032,6.62471,3.91273,8.7877c2.8922,1.4955,5.96681,2.8889,9.24622,4.1445
	c0,0,17.78848-14.3539,38.7943-16.407c0,0-3.99044-9.7433-3.99044-25.8746c0-3.533,0.70216-15.5627,19.8903-15.5627
	c20.31602,0,35.79576-2.6453,35.79576-2.6453s15.34703,2.6453,35.79591,2.6453c19.18765,0,19.89046,12.029,19.89046,15.5624
	l-0.00049,0.0003c0,16.1313-3.99026,25.8746-3.99026,25.8746c19.40907,0.0217,38.7943,16.407,38.7943,16.407
	c0.27492,0.1958,0.77112-0.133,0.77112-0.133s1.71445-3.94611-2.46219-8.1261c0,0,3.38049,2.19029,7.2511,5.90359l0.00146,0.0002
	c12.70161-5.8286,22.14424-13.64769,29.04482-21.2967c5.07104-5.6209,5.52347-12.4349,0.6409-18.0998
	c2.03925,2.0923,5.1738,2.6529,7.37817,7.7942c1.74097-2.604,3.19363-5.055,4.36267-7.2267
	C300.68561,97.12849,285.91296,62.9974,282.25311,23.0756z"/>
</svg>
