<?xml version="1.0" encoding="utf-8"?>
<!-- Generator: Adobe Illustrator 19.0.0, SVG Export Plug-In . SVG Version: 6.00 Build 0)  -->
<svg version="1.1" id="Layer_1" xmlns="http://www.w3.org/2000/svg" xmlns:xlink="http://www.w3.org/1999/xlink" x="0px" y="0px"
	 viewBox="-115 45 471 455" style="enable-background:new -115 45 471 455;" xml:space="preserve">
<style type="text/css">
	.st0{fill:#6D6D6D;}
	.st1{fill:#494949;}
	.st2{fill:#313435;}
</style>
<g id="XMLID_694_">
	<rect id="XMLID_1103_" x="-81.5" y="189.6" class="st0" width="16.5" height="66"/>
	<rect id="XMLID_1102_" x="300.5" y="189.6" class="st0" width="16.5" height="66"/>
	<path id="XMLID_1101_" class="st1" d="M-73.3,217.3c-9.1,0-16.5-5.7-16.5-12.6c0-76.7,81.4-139,181.5-139c9.1,0,97.5-1.9,97.5,12.6
		c0,13.8-88.4,12.6-97.5,12.6c-81.9,0-148.5,51-148.5,113.8C-56.8,211.7-64.2,217.3-73.3,217.3z"/>
	<path id="XMLID_1100_" class="st1" d="M308.8,217.3c-9.1,0-16.5-5.7-16.5-12.6c0-62.7-66.6-113.8-148.5-113.8
		c-9.1,0-82.3,0-81.5-12.6c0.9-13.9,72.4-12.6,81.5-12.6c100.1,0,181.5,62.4,181.5,139C325.3,211.7,317.9,217.3,308.8,217.3z"/>
	<path id="XMLID_1099_" class="st1" d="M-56.2,385.1h-28.1c-11,0-19.9-8.9-19.9-19.9v-89.7c0-11,8.9-19.9,19.9-19.9h28.1
		c8.8,0,15.9,7.1,15.9,15.9v97.7C-40.3,378-47.4,385.1-56.2,385.1z"/>
	<path id="XMLID_1098_" class="st0" d="M226.3,475.9c-4.6,0-8.3-3.7-8.3-8.3c0-4.6,3.7-8.3,8.3-8.3c40.9,0,74.3-33.3,74.3-74.3
		c0-4.6,3.7-8.3,8.3-8.3c4.6,0,8.3,3.7,8.3,8.3C317,435.2,276.3,475.9,226.3,475.9z"/>
	<path id="XMLID_1097_" class="st1" d="M291.7,385.1h21.7c11,0,19.9-8.9,19.9-19.9v-89.7c0-11-8.9-19.9-19.9-19.9h-21.7
		c-8.8,0-15.9,7.1-15.9,15.9v97.7C275.8,378,282.9,385.1,291.7,385.1z"/>
	<path id="XMLID_1096_" class="st2" d="M-28.8,402h-24c-2.2,0-4-1.8-4-4V243.4c0-2.2,1.8-4,4-4h24c2.8,0,5,2.2,5,5V397
		C-23.8,399.7-26,402-28.8,402z"/>
	<path id="XMLID_928_" class="st2" d="M288.3,402h-24c-2.8,0-5-2.2-5-5V244.4c0-2.8,2.2-5,5-5h24c2.2,0,4,1.8,4,4V398
		C292.3,400.2,290.5,402,288.3,402z"/>
	<path id="XMLID_695_" class="st2" d="M212.8,484.1h-22.5c-7.4,0-13.5-6.1-13.5-13.5v-6c0-7.4,6.1-13.5,13.5-13.5h22.5
		c7.4,0,13.5,6.1,13.5,13.5v6C226.3,478.1,220.2,484.1,212.8,484.1z"/>
</g>
</svg>
