<?xml version="1.0" encoding="utf-8"?>
<!-- Generator: Adobe Illustrator 19.0.0, SVG Export Plug-In . SVG Version: 6.00 Build 0)  -->
<svg version="1.1" id="Layer_1" xmlns="http://www.w3.org/2000/svg" xmlns:xlink="http://www.w3.org/1999/xlink" x="0px" y="0px"
	 viewBox="-97 187 419 150" style="enable-background:new -97 187 419 150;" xml:space="preserve">
<style type="text/css">
	.st0{fill:#0082C3;}
	.st1{fill:#70B8D8;}
	.st2{fill:#A5C7D8;}
	.st3{fill:#65B1D9;}
	.st4{fill:#6AABD9;}
</style>
<g id="XMLID_625_">
	<g id="XMLID_657_">
		<polygon id="XMLID_669_" class="st0" points="-69.6,302 -74.4,302.2 -74.9,300.2 -69.2,299.9 		"/>
		<path id="XMLID_668_" class="st1" d="M-67.9,298.5l0,0.4c0,1.1-0.8,2.1-2,2.1l-4.1,0.2c-1.1,0-2.1-0.8-2.1-2l-1.5-35.1l6.1-0.3
			l1,24.9C-70.4,290-69.1,298.6-67.9,298.5L-67.9,298.5z"/>
		<path id="XMLID_667_" class="st2" d="M-69.4,263.9l1.5,34.7l-0.1,0c-1.1,0-2.4-8.6-2.5-9.7l-1-24.9L-69.4,263.9z"/>
		<g id="XMLID_658_">
			<path id="XMLID_666_" class="st3" d="M-56.3,250.6l-2.8,0.1c-0.8,0-1.4,0.7-1.4,1.5l0.6,14.2c0,0.8,0.7,1.4,1.5,1.4l2.8-0.1
				c0.8,0,1.4-0.7,1.4-1.5l-0.6-14.2C-54.8,251.2-55.5,250.6-56.3,250.6z"/>
			<path id="XMLID_665_" class="st1" d="M-67.3,267.5l0.2,5.9c-6.8-0.3-12.4-5.9-12.7-12.9c-0.3-6.9,4.7-12.9,11.3-13.9
				c-2.8,2.6-4.5,6.4-4.3,10.6C-72.6,261.4-70.5,265.2-67.3,267.5z"/>
			<path id="XMLID_664_" class="st1" d="M-56.3,269.7c-0.1,0.1-0.2,0.2-0.3,0.3c-2.8,2-6.1,3.3-9.2,3.5l-0.2-5.1
				c2.1,1.2,4.5,1.8,7.1,1.7C-58.1,270.1-57.2,270-56.3,269.7z"/>
			<path id="XMLID_663_" class="st2" d="M-68.5,246.6c0.1,0,0.2,0,0.3,0l0.9,21c-3.2-2.3-5.3-6.1-5.5-10.3
				C-73,253-71.3,249.2-68.5,246.6z"/>
			<path id="XMLID_662_" class="st2" d="M-56.5,250.7l0.7,17.6c0,0.5-0.2,1.1-0.5,1.4c-0.9,0.2-1.8,0.4-2.7,0.4
				c-2.6,0.1-5-0.5-7.1-1.7l-0.9-21.9c3.1-0.1,6.5,0.9,9.5,2.7C-56.9,249.4-56.6,250-56.5,250.7z"/>
			<g id="XMLID_659_">
				<path id="XMLID_661_" class="st4" d="M-66.9,246.4l0.9,21.9c-0.5-0.2-0.9-0.5-1.3-0.9l-0.9-21c0.4,0,0.8-0.1,1.2-0.1
					L-66.9,246.4z"/>
				<path id="XMLID_660_" class="st0" d="M-66,268.4l0.2,5.1l-0.1,0c-0.4,0-0.8,0-1.2,0l-0.2-5.9C-66.9,267.8-66.5,268.1-66,268.4z"
					/>
			</g>
		</g>
	</g>
	<g id="XMLID_627_">
		<g id="XMLID_653_">
			<polygon id="XMLID_656_" class="st0" points="302,301.3 297.2,301.1 296.8,299 302.6,299.2 			"/>
			<path id="XMLID_655_" class="st1" d="M303.9,297.9l0,0.4c0,1.1-1,2-2.2,2l-4.1-0.1c-1.1,0-2-1-2-2.1l1.1-35.1l6.1,0.2l-0.8,24.9
				C302.1,289.2,302.7,297.9,303.9,297.9L303.9,297.9z"/>
			<path id="XMLID_654_" class="st2" d="M305,263.3l-1.1,34.7l-0.1,0c-1.1,0-1.8-8.7-1.7-9.8l0.8-24.9L305,263.3z"/>
		</g>
		<path id="XMLID_652_" class="st3" d="M283.6,249.9l2.8,0.1c0.8,0,1.5,0.7,1.4,1.5l-0.5,14.3c0,0.8-0.7,1.5-1.5,1.4l-2.8-0.1
			c-0.8,0-1.5-0.7-1.4-1.5l0.5-14.3C282.1,250.5,282.8,249.8,283.6,249.9z"/>
		<g id="XMLID_649_">
			<path id="XMLID_651_" class="st2" d="M307.2,259.5c-0.1,3.7-1.7,6.9-4.1,9.3c-3.4,0.2-6.1-0.3-8.3-1.3l0.7-21.8
				c0.1,0,0.2,0,0.3,0C302.4,246.6,307.4,252.6,307.2,259.5z"/>
			<path id="XMLID_650_" class="st2" d="M294.2,245.6l-0.7,21.3c-7.8-4.5-8.3-15.3-8.2-18.8C288.1,246.4,291.3,245.5,294.2,245.6z"
				/>
		</g>
		<path id="XMLID_648_" class="st4" d="M295.5,245.7l-0.7,21.8c-0.5-0.2-0.9-0.4-1.3-0.6l0.7-21.3l0.1,0
			C294.7,245.6,295.1,245.6,295.5,245.7z"/>
		<path id="XMLID_647_" class="st1" d="M293.5,266.8l-0.2,5.8c-3.1-0.1-6.4-1.4-9.3-3.4c-0.1-0.1-0.2-0.2-0.3-0.3
			c-0.3-0.3-0.5-0.9-0.5-1.4l0.6-17.6c0-0.7,0.4-1.3,0.9-1.6c0.2-0.1,0.4-0.2,0.6-0.3C285.2,251.6,285.8,262.4,293.5,266.8z"/>
		<path id="XMLID_643_" class="st1" d="M303.1,268.8c-2.2,2.2-5.2,3.6-8.5,3.8l0.2-5.1C297,268.5,299.7,269,303.1,268.8z"/>
		<path id="XMLID_628_" class="st0" d="M294.8,267.5l-0.2,5.1c-0.4,0-0.8,0.1-1.2,0l-0.1,0l0.2-5.8
			C293.9,267.1,294.3,267.3,294.8,267.5z"/>
	</g>
</g>
</svg>
