<?xml version="1.0" encoding="utf-8"?>
<!-- Generator: Adobe Illustrator 19.0.0, SVG Export Plug-In . SVG Version: 6.00 Build 0)  -->
<svg version="1.1" id="Layer_1" xmlns="http://www.w3.org/2000/svg" xmlns:xlink="http://www.w3.org/1999/xlink" x="0px" y="0px"
	 viewBox="0 0 467 353" style="enable-background:new 0 0 467 353;" xml:space="preserve">
<style type="text/css">
	.st0{fill:#313130;}
	.st1{fill:#323B3F;}
	.st2{fill:#63B0B8;}
	.st3{fill:#40494C;}
	.st4{fill:#81D8DF;}
	.st5{fill:#6FC8D1;}
</style>
<g id="XMLID_728_">
	<path id="XMLID_3004_" class="st0" d="M66.2,121.3c0,0.1-23.1,43.4-29.9,112.8l-6-0.6c7-71,25.4-118.1,25.5-118.2L66.2,121.3z"/>
	<path id="XMLID_3003_" class="st0" d="M413.2,121.3c0,0.1,23.1,43.4,29.9,112.8l6-0.6c-7-71-25.4-118.1-25.5-118.2L413.2,121.3z"/>
	<path id="XMLID_2998_" class="st1" d="M77.8,185.2L77.8,185.2c8.4,0,15.3,6.4,15.3,14.2c-4.1,44.5-2.6,89,0,133.5
		c0,7.8-6.9,14-15.3,14l0,0c-8.4,0-15.3-6.3-15.3-14c0-44.5,0-89,0-133.5C62.5,191.6,69.4,185.2,77.8,185.2L77.8,185.2z"/>
	<path id="XMLID_2997_" class="st1" d="M401.6,185.2L401.6,185.2c-8.5,0-15.3,6.4-15.3,14.2c4.1,44.5,2.6,89,0,133.5
		c0,7.8,6.8,14,15.3,14l0,0c8.4,0,15.3-6.3,15.3-14c0-44.5,0-89,0-133.5C416.9,191.6,410,185.2,401.6,185.2L401.6,185.2z"/>
	<path id="XMLID_2996_" class="st2" d="M57.2,193L57.2,193c-2.9,0-5.3,2.5-5.3,5.7v134.9c0,3.1,2.4,5.6,5.3,5.6l0,0
		c2.9,0,5.3-2.5,5.3-5.6V198.7C62.5,195.5,60.1,193,57.2,193L57.2,193z"/>
	<path id="XMLID_2995_" class="st2" d="M422.2,193L422.2,193c2.9,0,5.3,2.5,5.3,5.7v134.9c0,3.1-2.4,5.6-5.3,5.6l0,0
		c-2.9,0-5.3-2.5-5.3-5.6V198.7C416.9,195.5,419.3,193,422.2,193L422.2,193z"/>
	<path id="XMLID_2994_" class="st3" d="M51.9,332.3c-17.8-7.3-31.1-34.2-31.1-66.2c0-32.1,13.3-59,31.1-66.3V332.3z"/>
	<path id="XMLID_2993_" class="st3" d="M427.5,332.3c17.8-7.3,31.1-34.2,31.1-66.2c0-32.1-13.3-59-31.1-66.3V332.3z"/>
	<path id="XMLID_759_" class="st4" d="M416.6,131.7c3.3-4,6.9-7.4,10.3-11.4C381-32.1,98.4-32.1,52.5,120.3c3.3,4,6.9,7.4,10.3,11.4
		C129,17.7,350.4,17.7,416.6,131.7L416.6,131.7z"/>
	<path id="XMLID_758_" class="st5" d="M416.6,131.7c1.4-1.7,2.8-3.2,4.3-4.8C362-3.9,117.4-3.9,58.5,126.9c1.5,1.6,2.9,3.1,4.3,4.8
		C129,17.7,350.4,17.7,416.6,131.7L416.6,131.7z"/>
	<path id="XMLID_757_" class="st4" d="M45.9,150.1c8.6,0,15.6,7.4,15.6,16.4c0,9.1-6.9,16.4-15.6,16.4c-8.6,0-15.6-7.3-15.6-16.4
		C30.3,157.5,37.2,150.1,45.9,150.1L45.9,150.1z"/>
	<path id="XMLID_756_" class="st4" d="M433.5,150.1c-8.6,0-15.6,7.4-15.6,16.4c0,9.1,6.9,16.4,15.6,16.4c8.6,0,15.6-7.3,15.6-16.4
		C449.1,157.5,442.2,150.1,433.5,150.1L433.5,150.1z"/>
	<path id="XMLID_755_" class="st2" d="M45.9,157.7c4.5,0,8.3,4,8.3,8.8c0,4.9-3.8,8.8-8.3,8.8c-4.5,0-8.3-3.9-8.3-8.8
		C37.5,161.7,41.3,157.7,45.9,157.7L45.9,157.7z"/>
	<path id="XMLID_749_" class="st2" d="M433.5,157.7c-4.6,0-8.3,4-8.3,8.8c0,4.9,3.7,8.8,8.3,8.8c4.5,0,8.3-3.9,8.3-8.8
		C441.9,161.7,438.1,157.7,433.5,157.7L433.5,157.7z"/>
</g>
</svg>
