<?xml version="1.0" encoding="utf-8"?>
<!-- Generator: Adobe Illustrator 19.0.0, SVG Export Plug-In . SVG Version: 6.00 Build 0)  -->
<svg version="1.1" id="Layer_1" xmlns="http://www.w3.org/2000/svg" xmlns:xlink="http://www.w3.org/1999/xlink" x="0px" y="0px"
	 viewBox="0 0 445.2703 322.973" enable-background="new 0 0 445.2703 322.973" xml:space="preserve">
<g id="XMLID_625_">
	<g id="XMLID_657_">
		<polygon id="XMLID_669_" fill="#0082C3" points="32.6725,194.0359 27.852,194.2383 27.3358,192.1671 33.0671,191.9262 		"/>
		<path id="XMLID_668_" fill="#70B8D8" d="M34.309,190.5291l0.0172,0.4113c0.047,1.1306-0.8387,2.0951-1.9955,2.1437l-4.0627,0.1703
			c-1.131,0.0474-2.0956-0.8391-2.143-1.9701l-1.4713-35.0675l6.093-0.2556l1.0443,24.8867
			c0.0474,1.131,1.3354,9.7308,2.4664,9.6834L34.309,190.5291z"/>
		<path id="XMLID_667_" fill="#A5C7D8" d="M32.854,155.873l1.455,34.6561l-0.0517,0.0023c-1.131,0.0474-2.419-8.5524-2.4664-9.6834
			l-1.0443-24.8867L32.854,155.873z"/>
		<g id="XMLID_658_">
			<path id="XMLID_666_" fill="#65B1D9" d="M45.9408,142.6139l-2.8398,0.1189c-0.8116,0.0342-1.4444,0.7222-1.41,1.5355
				l0.598,14.2455c0.034,0.8137,0.722,1.4465,1.5336,1.4123l2.8398-0.1189c0.8124-0.0343,1.4452-0.7223,1.4108-1.5364
				l-0.5979-14.2447C47.4412,143.2124,46.7533,142.5797,45.9408,142.6139z"/>
			<path id="XMLID_665_" fill="#70B8D8" d="M34.9126,159.4952l0.2487,5.9389c-6.786-0.3083-12.3772-5.8937-12.6726-12.9381
				c-0.2916-6.941,4.6603-12.918,11.2885-13.9174c-2.8264,2.6166-4.5206,6.4223-4.3457,10.5875
				C29.6106,153.4333,31.7504,157.1809,34.9126,159.4952z"/>
			<path id="XMLID_664_" fill="#70B8D8" d="M45.9772,161.7093c-0.098,0.1326-0.1975,0.2143-0.297,0.2952
				c-2.7996,2.0233-6.1451,3.2974-9.2299,3.4523l-0.2135-5.09c2.0593,1.2014,4.4814,1.8459,7.0526,1.7379
				C44.1634,162.0684,45.0601,161.9538,45.9772,161.7093z"/>
			<path id="XMLID_663_" fill="#A5C7D8" d="M33.7773,138.5785c0.0771-0.003,0.1793-0.0335,0.2559-0.037l0.8794,20.9536
				c-3.1622-2.3143-5.302-6.0619-5.481-10.3292C29.2567,145.0008,30.9508,141.1951,33.7773,138.5785z"/>
			<path id="XMLID_662_" fill="#A5C7D8" d="M45.7205,142.713l0.7378,17.5852c0.023,0.5396-0.1614,1.0631-0.4811,1.4111
				c-0.9172,0.2445-1.8139,0.3591-2.6878,0.3954c-2.5712,0.1079-4.9933-0.5365-7.0526-1.7379l-0.9203-21.93
				c3.0866-0.1035,6.5259,0.8593,9.4867,2.6666C45.3324,141.4416,45.6927,142.045,45.7205,142.713z"/>
			<g id="XMLID_659_">
				<path id="XMLID_661_" fill="#6AABD9" d="M35.3165,138.4368l0.9203,21.93c-0.4733-0.2376-0.8972-0.5292-1.3242-0.8716
					l-0.8794-20.9536c0.3848-0.0415,0.7695-0.0838,1.1808-0.1011L35.3165,138.4368z"/>
				<path id="XMLID_660_" fill="#0082C3" d="M36.2369,160.3668l0.2135,5.09l-0.1025,0.0046
					c-0.386,0.0157-0.7983,0.0079-1.1866-0.0273l-0.2487-5.9389C35.3396,159.8375,35.7636,160.1292,36.2369,160.3668z"/>
			</g>
		</g>
	</g>
	<g id="XMLID_627_">
		<g id="XMLID_653_">
			<polygon id="XMLID_656_" fill="#0082C3" points="404.2541,193.3022 399.4315,193.1445 399.0711,191.0406 404.8047,191.2277 			
				"/>
			<path id="XMLID_655_" fill="#70B8D8" d="M406.1469,189.9266l-0.0135,0.4114c-0.037,1.1314-0.9928,2.0273-2.1505,1.9891
				l-4.0629-0.1324c-1.1322-0.0369-2.0273-0.9929-1.9903-2.1242l1.1454-35.0796l6.0943,0.1991l-0.8127,24.8954
				c-0.0365,1.131,0.6071,9.8028,1.739,9.8402L406.1469,189.9266z"/>
			<path id="XMLID_654_" fill="#A5C7D8" d="M407.2788,155.2584l-1.1319,34.6682l-0.0513-0.0011
				c-1.1318-0.0374-1.7755-8.7092-1.739-9.8402l0.8127-24.8954L407.2788,155.2584z"/>
		</g>
		<path id="XMLID_652_" fill="#65B1D9" d="M385.8649,141.8542l2.8408,0.0922c0.8123,0.0267,1.4517,0.7086,1.4254,1.523
			l-0.4654,14.2501c-0.0267,0.814-0.709,1.4529-1.5218,1.4266l-2.8404-0.0926c-0.8119-0.0263-1.4512-0.709-1.4245-1.5231
			l0.4654-14.2501C384.3712,142.4663,385.0534,141.8274,385.8649,141.8542z"/>
		<g id="XMLID_649_">
			<path id="XMLID_651_" fill="#A5C7D8" d="M409.4179,151.5092c-0.1194,3.6518-1.6674,6.9228-4.0608,9.2648
				c-3.3792,0.1984-6.1183-0.3028-8.3249-1.3018l0.7118-21.8088c0.0763,0.0027,0.1789,0.0316,0.2556,0.0339
				C404.6374,138.6347,409.6447,144.5653,409.4179,151.5092z"/>
			<path id="XMLID_650_" fill="#A5C7D8" d="M396.4595,137.5697l-0.6941,21.2694c-7.7582-4.4755-8.2817-15.2543-8.2163-18.831
				C390.3575,138.3748,393.5523,137.5008,396.4595,137.5697z"/>
		</g>
		<path id="XMLID_648_" fill="#6AABD9" d="M397.744,137.6633l-0.7118,21.8088c-0.4578-0.1951-0.8623-0.4137-1.2668-0.6331
			l0.6941-21.2694l0.103,0.0035C396.9735,137.5862,397.3588,137.6252,397.744,137.6633z"/>
		<path id="XMLID_647_" fill="#70B8D8" d="M395.7654,158.8391l-0.1883,5.7608c-3.0853-0.1263-6.4434-1.3686-9.2616-3.366
			c-0.1003-0.0806-0.201-0.1616-0.2993-0.2935c-0.3231-0.3447-0.5121-0.8661-0.4948-1.4059l0.5744-17.5913
			c0.0219-0.6691,0.3759-1.2757,0.9022-1.6185c0.1844-0.1227,0.3675-0.2198,0.5511-0.3166
			C387.4837,143.5847,388.0072,154.3636,395.7654,158.8391z"/>
		<path id="XMLID_643_" fill="#70B8D8" d="M405.3571,160.774c-2.2346,2.1924-5.2154,3.5885-8.4912,3.7907l0.1663-5.0925
			C399.2387,160.4712,401.9778,160.9723,405.3571,160.774z"/>
		<path id="XMLID_628_" fill="#0082C3" d="M397.0322,159.4722l-0.1663,5.0925c-0.3875,0.0385-0.8002,0.0514-1.1858,0.0386
			l-0.103-0.0035l0.1883-5.7608C396.1699,159.0585,396.5744,159.2771,397.0322,159.4722z"/>
	</g>
</g>
</svg>
