<?xml version="1.0" encoding="utf-8"?>
<!-- Generator: Adobe Illustrator 19.0.0, SVG Export Plug-In . SVG Version: 6.00 Build 0)  -->
<svg version="1.1" id="Layer_1" xmlns="http://www.w3.org/2000/svg" xmlns:xlink="http://www.w3.org/1999/xlink" x="0px" y="0px"
	 viewBox="0 0 467 353" style="enable-background:new 0 0 467 353;" xml:space="preserve">
<style type="text/css">
	.st0{fill:#40494C;}
	.st1{fill:#2FD5FD;}
	.st2{fill:#23C9F1;}
	.st3{fill:#323B3F;}
</style>
<g id="XMLID_321_">
	<path id="XMLID_566_" class="st0" d="M46.1,126c0,0-32.8,57.7-15.7,116.6c2-1,4-2,6-3c-5.4-31.1,1.3-83.6,21-106.3
		C53.6,130.8,49.9,128.4,46.1,126L46.1,126z"/>
	<path id="XMLID_565_" class="st0" d="M428.2,126c0,0,32.9,57.7,15.8,116.6c-2-1-4-2-6-3c5.4-31.1-1.3-83.6-21-106.3
		C420.8,130.8,424.5,128.4,428.2,126L428.2,126z"/>
	<path id="XMLID_564_" class="st1" d="M413.8,139.1c4.9,6.3,22-10.4,17.9-16.2C338.4-22.2,136-22,42.7,122.9
		c-4.1,5.9,12.9,22.5,17.9,16.2C168.2,12.4,307.9,9.5,413.8,139.1L413.8,139.1z"/>
	<path id="XMLID_563_" class="st2" d="M413.8,139.1c1.4,1.8,3.9,1.7,6.6,0.5c-0.1-0.4-0.2-0.8-0.5-1.2
		C331.9,1.6,142.4,1.8,54.5,138.4c-0.3,0.4-0.4,0.8-0.5,1.2c2.7,1.2,5.1,1.3,6.6-0.5C168.2,12.4,307.9,9.5,413.8,139.1L413.8,139.1z
		"/>
	<path id="XMLID_557_" class="st1" d="M74.6,201.8c2.8,15.2,5.5,30.4,8.3,45.5c2.9,15.2,5.7,62.4,8.4,77.6
		c2.3,11.9-30,13.6-32.2,2.2c-2.6-14-5.1-28-7.7-41.9c-2.6-14-5.1-60.1-7.7-74C41.7,199.8,72.4,189.7,74.6,201.8L74.6,201.8z"/>
	<path id="XMLID_536_" class="st1" d="M399.7,201.8c-2.8,15.2-5.5,30.4-8.3,45.5c-2.9,15.2-5.7,62.4-8.4,77.6
		c-2.3,11.9,30,13.6,32.2,2.2c2.6-14,5.1-28,7.7-41.9c2.6-14,5.1-60.1,7.7-74C432.7,199.8,402,189.7,399.7,201.8L399.7,201.8z"/>
	<path id="XMLID_330_" class="st2" d="M74.6,201.8c2.8,15.2,5.5,30.4,8.3,45.5c2.9,15.2,5.7,62.4,8.4,77.6c1,5.4-5.2,8.8-12.5,9.7
		c0-0.1,0.1-0.1,0.1-0.1c2.8-5-4.9-3.3-5.5-4.6c-2.7-5.2,6-6.1,7.2-7.9c3.2-4.8-6.1-9-9.2-11.3c-8.4-5.8-2.9-12.1,2.1-18.1
		c3.8-4.6,0.7-42.2-3.4-45.6c-12-10-1-16.6-1-19.5c0-10.2-15-5.5-13.6-11.7c1.5-7,9.6-6.9,11.6-13.2c1.6-5.2-12-2.7-15-2.6
		C60.8,195.3,73.2,194.3,74.6,201.8L74.6,201.8z"/>
	<path id="XMLID_329_" class="st2" d="M399.7,201.8c-2.8,15.2-5.5,30.4-8.3,45.5c-2.5,19.9-5.7,62.4-8.4,77.6
		c-1,5.4,5.2,8.8,12.5,9.7c0-0.1-0.1-0.1-0.1-0.1c-2.8-5,4.9-3.3,5.5-4.6c2.7-5.2-6-6.1-7.2-7.9c-3.2-4.8,6.1-9,9.2-11.3
		c8.4-5.8,2.9-12.1-2.1-18.1c-3.8-4.6-0.7-42.2,3.4-45.6c11.9-10,1-16.6,1-19.5c0-10.2,15-5.5,13.6-11.7c-1.5-7-9.6-6.9-11.6-13.2
		c-1.6-5.2,12-2.7,15-2.6C413.6,195.3,401.2,194.3,399.7,201.8L399.7,201.8z"/>
	<path id="XMLID_325_" class="st0" d="M43.8,211.1L43.8,211.1c-4.3,0.8-7.2,4.9-6.4,9.2l12.6,100.4c0.7,4.2,4.9,7.1,9.1,6.3l0,0
		L43.8,211.1z"/>
	<path id="XMLID_324_" class="st0" d="M430.6,211.1L430.6,211.1c4.3,0.8,7.2,4.9,6.4,9.2l-12.6,100.4c-0.7,4.2-4.9,7.1-9.1,6.3l0,0
		L430.6,211.1z"/>
	<path id="XMLID_323_" class="st3" d="M38.4,225.3c-7.5,6.1-11.3,50.5-8.9,63.9c2.5,13.4,10.6,23.7,19.7,26.7L38.4,225.3z"/>
	<path id="XMLID_322_" class="st3" d="M436,225.3c7.5,6.1,11.3,50.5,8.8,63.9c-2.4,13.4-10.5,23.7-19.6,26.7L436,225.3z"/>
</g>
</svg>
