<?xml version="1.0" encoding="utf-8"?>
<!-- Generator: Adobe Illustrator 19.0.0, SVG Export Plug-In . SVG Version: 6.00 Build 0)  -->
<svg version="1.1" id="Layer_1" xmlns="http://www.w3.org/2000/svg" xmlns:xlink="http://www.w3.org/1999/xlink" x="0px" y="0px"
	 viewBox="0 0 551.3514 425.6757" enable-background="new 0 0 551.3514 425.6757" xml:space="preserve">
<g id="XMLID_728_">
	<path id="XMLID_3004_" fill="#313130" d="M104.0979,160.7257c0,0.1142-23.116,43.369-29.921,112.7596l-6.0492-0.5706
		C75.149,201.9262,93.512,154.791,93.6201,154.6768L104.0979,160.7257z"/>
	<path id="XMLID_3003_" fill="#313130" d="M451.1707,160.7257c0,0.1142,23.1161,43.369,29.9212,112.7596l6.049-0.5706
		c-7.0211-70.9883-25.3843-118.1236-25.4924-118.2378L451.1707,160.7257z"/>
	<path id="XMLID_2998_" fill="#323B3F" d="M115.764,224.638L115.764,224.638c8.4255,0,15.3385,6.3911,15.3385,14.1519
		c-4.1047,44.5106-2.5924,89.0209,0,133.5312c0,7.7606-6.913,14.0378-15.3385,14.0378l0,0c-8.4255,0-15.3387-6.2772-15.3387-14.0378
		c0-44.5103,0-89.0206,0-133.5312C100.4252,231.0291,107.3385,224.638,115.764,224.638L115.764,224.638z"/>
	<path id="XMLID_2997_" fill="#323B3F" d="M439.5048,224.638L439.5048,224.638c-8.5336,0-15.3387,6.3911-15.3387,14.1519
		c4.1047,44.5106,2.5924,89.0209,0,133.5312c0,7.7606,6.8051,14.0378,15.3387,14.0378l0,0c8.4253,0,15.3385-6.2772,15.3385-14.0378
		c0-44.5103,0-89.0206,0-133.5312C454.8433,231.0291,447.9301,224.638,439.5048,224.638L439.5048,224.638z"/>
	<path id="XMLID_2996_" fill="#63B0B8" d="M95.1323,232.3988L95.1323,232.3988c-2.9164,0-5.2929,2.5107-5.2929,5.7066V373.006
		c0,3.0814,2.3765,5.5921,5.2929,5.5921l0,0c2.9166,0,5.2929-2.5107,5.2929-5.5921V238.1054
		C100.4252,234.9095,98.0489,232.3988,95.1323,232.3988L95.1323,232.3988z"/>
	<path id="XMLID_2995_" fill="#63B0B8" d="M460.1363,232.3988L460.1363,232.3988c2.9164,0,5.2929,2.5107,5.2929,5.7066V373.006
		c0,3.0814-2.3766,5.5921-5.2929,5.5921l0,0c-2.9164,0-5.2929-2.5107-5.2929-5.5921V238.1054
		C454.8433,234.9095,457.2198,232.3988,460.1363,232.3988L460.1363,232.3988z"/>
	<path id="XMLID_2994_" fill="#40494C" d="M89.8393,371.7505c-17.8228-7.3044-31.1092-34.2388-31.1092-66.195
		c0-32.0703,13.2864-59.0048,31.1092-66.3091V371.7505z"/>
	<path id="XMLID_2993_" fill="#40494C" d="M465.4292,371.7505c17.8231-7.3044,31.1093-34.2388,31.1093-66.195
		c0-32.0703-13.2862-59.0048-31.1093-66.3091V371.7505z"/>
	<path id="XMLID_759_" fill="#81D8DF" d="M454.5193,171.1114c3.3484-3.9946,6.913-7.4183,10.2617-11.4128
		c-45.8112-152.374-328.4821-152.3738-374.2935,0c3.3487,3.9946,6.9132,7.4183,10.2619,11.4128
		C166.939,57.0849,388.3298,57.0849,454.5193,171.1114L454.5193,171.1114z"/>
	<path id="XMLID_758_" fill="#6FC8D1" d="M454.5193,171.1114c1.4041-1.712,2.8083-3.1956,4.3206-4.7933
		c-58.9245-130.8035-303.4865-130.8033-362.4113,0c1.5122,1.5978,2.9164,3.0814,4.3208,4.7933
		C166.939,57.0849,388.3298,57.0849,454.5193,171.1114L454.5193,171.1114z"/>
	<path id="XMLID_757_" fill="#81D8DF" d="M83.7904,189.4863c8.6416,0,15.5546,7.4183,15.5546,16.4346
		c0,9.1302-6.913,16.4346-15.5546,16.4346c-8.6414,0-15.5546-7.3043-15.5546-16.4346
		C68.2358,196.9045,75.149,189.4863,83.7904,189.4863L83.7904,189.4863z"/>
	<path id="XMLID_756_" fill="#81D8DF" d="M471.4781,189.4863c-8.6414,0-15.5546,7.4183-15.5546,16.4346
		c0,9.1302,6.9132,16.4346,15.5546,16.4346c8.6416,0,15.5546-7.3043,15.5546-16.4346
		C487.0327,196.9045,480.1198,189.4863,471.4781,189.4863L471.4781,189.4863z"/>
	<path id="XMLID_755_" fill="#63B0B8" d="M83.7904,197.1329c4.5367,0,8.3174,3.9943,8.3174,8.7879
		c0,4.9075-3.7807,8.7879-8.3174,8.7879c-4.5367,0-8.3174-3.8804-8.3174-8.7879C75.473,201.1272,79.2537,197.1329,83.7904,197.1329
		L83.7904,197.1329z"/>
	<path id="XMLID_749_" fill="#63B0B8" d="M471.4781,197.1329c-4.6447,0-8.3174,3.9943-8.3174,8.7879
		c0,4.9075,3.6727,8.7879,8.3174,8.7879c4.537,0,8.3174-3.8804,8.3174-8.7879
		C479.7956,201.1272,476.0151,197.1329,471.4781,197.1329L471.4781,197.1329z"/>
</g>
</svg>
