<?xml version="1.0" encoding="utf-8"?>
<!-- Generator: Adobe Illustrator 19.0.0, SVG Export Plug-In . SVG Version: 6.00 Build 0)  -->
<svg version="1.1" id="Layer_1" xmlns="http://www.w3.org/2000/svg" xmlns:xlink="http://www.w3.org/1999/xlink" x="0px" y="0px"
	 viewBox="0 0 470.2703 362.8378" enable-background="new 0 0 470.2703 362.8378" xml:space="preserve">
<g id="XMLID_118_">
	<path id="XMLID_134_" fill-rule="evenodd" clip-rule="evenodd" fill="#676766" d="M31.1406,191.547
		c0,0-6.2318,43.1469-6.9443,43.004c-0.534-0.2856,11.7521-7.4292,11.7521-7.4292l5.3414-33.5746L31.1406,191.547z"/>
	<path id="XMLID_133_" fill-rule="evenodd" clip-rule="evenodd" fill="#676766" d="M436.4025,191.547
		c0,0,6.2318,43.1469,6.7662,43.004c0.7122-0.2856-11.7521-7.4292-11.7521-7.4292l-5.1637-33.5746L436.4025,191.547z"/>
	<path id="XMLID_132_" fill-rule="evenodd" clip-rule="evenodd" fill="#313130" d="M64.0816,201.6907L64.0816,201.6907
		c10.8614,0,19.7645,7.1437,19.7645,15.859v112.4392c0,8.715-8.9031,15.8587-19.7645,15.8587l0,0
		c-10.8614,0-19.5864-7.1437-19.5864-15.8587V217.5497C44.4952,208.8344,53.2202,201.6907,64.0816,201.6907L64.0816,201.6907z"/>
	<path id="XMLID_131_" fill-rule="evenodd" clip-rule="evenodd" fill="#313130" d="M403.2834,201.6907L403.2834,201.6907
		c-10.6833,0-19.5864,7.1437-19.5864,15.859v112.4392c0,8.715,8.9031,15.8587,19.5864,15.8587l0,0
		c10.8618,0,19.7645-7.1437,19.7645-15.8587V217.5497C423.0479,208.8344,414.1452,201.6907,403.2834,201.6907L403.2834,201.6907z"/>
	<path id="XMLID_130_" fill-rule="evenodd" clip-rule="evenodd" fill="#232323" d="M44.4952,330.5607
		c-39.7072-8.8583-39.7072-104.7247,0-113.5827c0,0.1426,0,0.4285,0,0.5717v112.4392
		C44.4952,330.2745,44.4952,330.4174,44.4952,330.5607L44.4952,330.5607z"/>
	<path id="XMLID_129_" fill-rule="evenodd" clip-rule="evenodd" fill="#232323" d="M423.0479,330.5607
		c39.7072-8.8583,39.7072-104.7247,0-113.5827c0,0.1426,0,0.4285,0,0.5717v112.4392
		C423.0479,330.2745,423.0479,330.4174,423.0479,330.5607L423.0479,330.5607z"/>
	<path id="XMLID_128_" fill-rule="evenodd" clip-rule="evenodd" fill="#EBEBEB" d="M64.0816,198.2618L64.0816,198.2618
		c1.7806,0,3.205,1.1429,3.205,2.5716v145.8715c0,1.4284-1.4243,2.5716-3.205,2.5716l0,0c-1.7806,0-3.2049-1.1432-3.2049-2.5716
		V200.8334C60.8766,199.4047,62.301,198.2618,64.0816,198.2618L64.0816,198.2618z"/>
	<path id="XMLID_127_" fill-rule="evenodd" clip-rule="evenodd" fill="#EBEBEB" d="M403.2834,198.2618L403.2834,198.2618
		c-1.7806,0-3.2049,1.1429-3.2049,2.5716v145.8715c0,1.4284,1.4243,2.5716,3.2049,2.5716l0,0c1.9588,0,3.3831-1.1432,3.3831-2.5716
		V200.8334C406.6664,199.4047,405.2421,198.2618,403.2834,198.2618L403.2834,198.2618z"/>
	<path id="XMLID_126_" fill-rule="evenodd" clip-rule="evenodd" fill="#313130" d="M28.826,200.262
		c5.8759,1.1432,6.2322,1.1432,12.108,2.4286c33.2727-177.0781,352.2243-177.4778,385.6751,0
		c5.6978-1.2855,6.054-1.2855,11.9299-2.4286C417.2005-16.1196,50.3461-16.8333,28.826,200.262L28.826,200.262z"/>
	<path id="XMLID_119_" fill-rule="evenodd" clip-rule="evenodd" fill="#4D4D4D" d="M35.7703,201.5481l5.1637,1.1425
		c33.2727-177.0781,352.2243-177.4778,385.6751,0l4.9856-1.1425C410.1966,2.3234,57.3506,1.7525,35.7703,201.5481L35.7703,201.5481z
		"/>
</g>
</svg>
