<?xml version="1.0" encoding="utf-8"?>
<!-- Generator: Adobe Illustrator 19.0.0, SVG Export Plug-In . SVG Version: 6.00 Build 0)  -->
<svg version="1.1" id="Layer_1" xmlns="http://www.w3.org/2000/svg" xmlns:xlink="http://www.w3.org/1999/xlink" x="0px" y="0px"
	 viewBox="0 0 551.3514 425.6757" enable-background="new 0 0 551.3514 425.6757" xml:space="preserve">
<g id="XMLID_694_">
	<rect id="XMLID_1103_" x="79.3784" y="128.3243" fill="#6D6D6D" width="17" height="66"/>
	<rect id="XMLID_1102_" x="462.3784" y="128.3243" fill="#6D6D6D" width="16" height="66"/>
	<path id="XMLID_1101_" fill="#494949" d="M87.709,155.3177c-9.1143,0-16.5041-5.6591-16.5041-12.6389
		c0-76.6609,81.4406-139.0289,181.545-139.0289c9.1143,0,97.48-1.9281,97.5041,12.639c0.0228,13.7784-88.3898,12.639-97.5041,12.639
		c-81.904,0-148.5368,51.0281-148.5368,113.7509C104.2131,149.6586,96.8232,155.3177,87.709,155.3177z"/>
	<path id="XMLID_1100_" fill="#494949" d="M469.7907,155.3177c-9.1143,0-16.5041-5.6591-16.5041-12.6389
		c0-62.7228-66.6328-113.7509-148.5368-113.7509c-9.1143,0-82.3305,0.0144-81.5041-12.639
		c0.9106-13.9419,72.3898-12.639,81.5041-12.639c100.1044,0,181.545,62.368,181.545,139.0289
		C486.2949,149.6586,478.905,155.3177,469.7907,155.3177z"/>
	<path id="XMLID_1099_" fill="#494949" d="M104.8121,323.3243H76.7406c-10.9932,0-19.3622-9.1212-19.3622-20.1145V213.483
		c0-10.9932,8.369-19.1587,19.3622-19.1587h28.0714c8.7841,0,16.5663,6.3747,16.5663,15.1588v97.7267
		C121.3784,315.9939,113.5962,323.3243,104.8121,323.3243z"/>
	<path id="XMLID_1098_" fill="#6D6D6D" d="M387.2704,413.8874c-4.5572,0-8.2521-3.6949-8.2521-8.252
		c0-4.5572,3.6949-8.2521,8.2521-8.2521c40.9499,0,74.2684-33.3184,74.2684-74.2684c0-4.5572,3.6949-8.252,8.252-8.252
		c4.5572,0,8.2521,3.6948,8.2521,8.252C478.0428,373.1671,437.3225,413.8874,387.2704,413.8874z"/>
	<path id="XMLID_1097_" fill="#494949" d="M452.6875,323.3243h21.7431c10.9932,0,19.9478-9.1212,19.9478-20.1145V213.483
		c0-10.9932-8.9546-19.1587-19.9478-19.1587h-21.743c-8.7841,0-15.3093,6.3747-15.3093,15.1588v97.7267
		C437.3784,315.9939,443.9034,323.3243,452.6875,323.3243z"/>
	<path id="XMLID_1096_" fill="#313435" d="M132.2242,340.3243H108.21c-2.2074,0-3.8316-2.1511-3.8316-4.3585V181.4147
		c0-2.2075,1.6242-4.0904,3.8317-4.0904h24.0142c2.7597,0,5.1541,2.3306,5.1541,5.0904v152.5511
		C137.3784,337.7256,134.9839,340.3243,132.2242,340.3243z"/>
	<path id="XMLID_928_" fill="#313435" d="M449.2897,340.3243h-24.0143c-2.7597,0-4.8971-2.5988-4.8971-5.3585V182.4147
		c0-2.7598,2.1374-5.0904,4.8971-5.0904h24.0142c2.2075,0,4.0887,1.8829,4.0887,4.0904v154.5511
		C453.3784,338.1732,451.4971,340.3243,449.2897,340.3243z"/>
	<path id="XMLID_695_" fill="#313435" d="M388.3784,408.8408c0,7.4467-6.0368,13.4835-13.4835,13.4835h-23.033
		c-7.4467,0-13.4835-6.0367-13.4835-13.4835v-6.033c0-7.4467,6.0367-13.4835,13.4835-13.4835h23.033
		c7.4467,0,13.4835,6.0368,13.4835,13.4835V408.8408z"/>
</g>
</svg>
