<?xml version="1.0" encoding="utf-8"?>
<!-- Generator: Adobe Illustrator 19.0.0, SVG Export Plug-In . SVG Version: 6.00 Build 0)  -->
<svg version="1.1" id="Layer_1" xmlns="http://www.w3.org/2000/svg" xmlns:xlink="http://www.w3.org/1999/xlink" x="0px" y="0px"
	 viewBox="0 0 551.3514 425.6757" enable-background="new 0 0 551.3514 425.6757" xml:space="preserve">
<g id="XMLID_71_">
	<path id="XMLID_567_" fill="#D8D9D9" d="M473.7953,193.5912v65.3422h-6.9814v-39.412c0-186.9722-376.7173-188.1527-376.7173-1.1805
		v39.412h-6.9813v-65.3421C85.8011,10.7388,476.1628,11.6167,473.7953,193.5912L473.7953,193.5912z"/>
	<path id="XMLID_157_" fill="#CCCDCD" d="M470.4044,258.9333h-3.5905v-39.412c0-186.9722-376.7173-188.1527-376.7173-1.1805v39.412
		h-3.5904V204.578C89.034,22.9045,472.7715,23.784,470.4044,205.7585V258.9333z"/>
	<path id="XMLID_87_" fill="#EBEBEB" d="M73.5412,249.6747l24.6337-6.5822c0.9973-0.2993,2.0944,0.2991,2.3936,1.3962
		l31.6148,127.0822c0.2993,0.9973-0.3989,2.0942-1.3962,2.3935l-24.5339,6.5822c-1.0971,0.1993-2.0942-0.3989-2.3935-1.3962
		L72.2447,252.0682C71.9454,250.9711,72.5438,249.9738,73.5412,249.6747L73.5412,249.6747z"/>
	<polygon id="XMLID_86_" fill="#FEFEFE" points="106.0537,265.1331 109.8435,279.0955 81.5198,286.675 77.7301,272.7126 	"/>
	<path id="XMLID_85_" fill="#D8D9D9" d="M119.4177,315.0985l12.7655,56.4723c0.2993,0.9973-0.3989,2.0942-1.3962,2.3935
		l-24.5339,6.5822c-1.0971,0.1993-2.0942-0.3989-2.3935-1.3962L91.094,331.678L119.4177,315.0985z"/>
	<path id="XMLID_84_" fill="#313130" d="M101.5658,248.2785l11.868-3.1916c1.3962-0.2991,2.8922,0.4989,3.1915,1.8951
		l28.2239,114.3164c0.3989,1.3962-0.3989,2.7924-1.7951,3.1913l-11.968,3.1915L101.5658,248.2785z"/>
	<path id="XMLID_83_" fill="#676766" d="M101.7653,371.471c-12.4666-4.5878-25.4317-31.9384-31.8144-55.7743
		c-6.4827-23.9355-4.3882-46.2752,4.1887-56.5476L101.7653,371.471z"/>
	<path id="XMLID_82_" fill="#5A5A59" d="M78.6276,347.1364c-3.4907-6.5822-6.4827-23.1617-8.6766-31.4397
		c-2.294-8.3773-3.4907-16.4555-3.6902-23.9355c5.1862,4.9867,9.674,12.5662,12.0675,21.6419
		C80.7218,322.4787,80.7218,340.2551,78.6276,347.1364L78.6276,347.1364z"/>
	<path id="XMLID_77_" fill="#EBEBEB" d="M483.3695,250.8551l-24.6337-6.5822c-0.9973-0.2993-2.0945,0.2991-2.3935,1.3962
		l-31.6151,127.0821c-0.2991,0.9973,0.3991,2.0942,1.3965,2.3936l24.5339,6.5822c1.0969,0.1993,2.0942-0.3989,2.3933-1.3962
		l31.6151-127.0821C484.9651,252.1516,484.3668,251.1542,483.3695,250.8551L483.3695,250.8551z"/>
	<polygon id="XMLID_76_" fill="#FEFEFE" points="450.8569,266.3135 447.0672,280.2759 475.3909,287.8555 479.1806,273.8931 	"/>
	<path id="XMLID_75_" fill="#D8D9D9" d="M437.493,325.279l-12.7657,47.4723c-0.2991,0.9973,0.3991,2.0942,1.3965,2.3936
		l24.5339,6.5822c1.0969,0.1993,2.0942-0.3989,2.3933-1.3962l12.7658-47.4723L437.493,325.279z"/>
	<path id="XMLID_74_" fill="#313130" d="M455.3449,249.4589l-11.8682-3.1915c-1.3962-0.2991-2.8922,0.4989-3.1913,1.8951
		l-28.2239,114.3164c-0.3989,1.3962,0.3989,2.7924,1.7951,3.1913l11.9677,3.1915L455.3449,249.4589z"/>
	<path id="XMLID_73_" fill="#676766" d="M455.1454,372.6515c12.4666-4.5878,25.4315-22.9384,31.8144-46.7743
		c6.4826-23.9355,4.3882-55.2752-4.1886-65.5476L455.1454,372.6515z"/>
	<path id="XMLID_72_" fill="#5A5A59" d="M478.2831,348.3169c3.4906-6.5822,6.4826-14.1617,8.6766-22.4397
		c2.294-8.3773,3.4907-25.4555,3.6902-32.9355c-5.1862,4.9866-9.6742,12.5662-12.0675,21.6419
		C476.1887,323.6592,476.1887,341.4356,478.2831,348.3169L478.2831,348.3169z"/>
</g>
</svg>
