<?xml version="1.0" encoding="utf-8"?>
<!-- Generator: Adobe Illustrator 19.0.0, SVG Export Plug-In . SVG Version: 6.00 Build 0)  -->
<svg version="1.1" id="Layer_1" xmlns="http://www.w3.org/2000/svg" xmlns:xlink="http://www.w3.org/1999/xlink" x="0px" y="0px"
	 viewBox="0 0 436 285.3333" enable-background="new 0 0 436 285.3333" xml:space="preserve">
<g id="XMLID_10819_">
	<g id="XMLID_10863_">
		<path id="XMLID_10485_" fill="#30461A" d="M358.6231,136.9756c-0.0013-0.0071,0-0.0106,0-0.0106
			c2.4053-27.9708,5.2948-57.6442-7.8275-83.6207c-12.4991-24.7399-33.8595-37.484-59.3686-42.7229
			c-14.4552-2.9681-138.4801-2.9681-152.9358,0c-25.5083,5.2389-47.1831,17.9831-59.6826,42.7229
			c-13.1219,25.9765-10.142,55.65-8.142,83.6154c0,0,0,0.0089,0,0.016c3,91.2815-99.7904,96.1374-42.8261,114.4378
			c14.6421,4.704,100.0206,15.006,186.9614,15.402c86.9417-0.3959,172.2407-10.6979,186.8828-15.402
			C458.6498,233.113,356.3865,228.2571,358.6231,136.9756z"/>
	</g>
	<g id="XMLID_10844_">
		<g id="XMLID_10859_">
			<path id="XMLID_10483_" fill="#729E3F" d="M407.6436,227.0084c-1.6023-1.2901-3.3165-2.6545-5.1142-4.1104
				c-9.7783,1.5952-22.0776,3.0254-36.7401,4.2646c-38.5698,3.2597-92.4145,5.0547-151.6149,5.0547
				c-59.2013,0-113.0456-1.795-151.6149-5.0547c-13.8733-1.1718-25.6303-2.5158-35.1396-4.008
				c-1.8118,1.4647-3.5393,2.838-5.1452,4.1341c10.0943,1.7639,23.0839,3.3334,38.7641,4.6801
				c38.8019,3.3316,93.1868,5.1665,153.1355,5.1665s114.3332-1.8349,153.1355-5.1665
				C383.8162,230.5519,397.3389,228.8875,407.6436,227.0084z"/>
		</g>
		<g id="XMLID_10855_">
			<path id="XMLID_10481_" fill="#729E3F" d="M387.5172,209.6052c-1.4097-1.4257-2.8159-2.9144-4.2051-4.4688
				c-5.4222,0.6019-11.2901,1.17-17.5973,1.7035c-38.5697,3.2597-92.4136,5.0547-151.6149,5.0547
				c-59.2004,0-113.0451-1.795-151.6149-5.0547c-5.6388-0.4758-10.9163-0.9827-15.848-1.5144
				c-1.4004,1.5598-2.8163,3.0511-4.2358,4.4795c5.6899,0.6525,11.8804,1.2676,18.5631,1.8411
				c38.8023,3.3307,93.1868,5.1665,153.1355,5.1665s114.3332-1.8358,153.1355-5.1665
				C374.5964,211.014,381.3626,210.3323,387.5172,209.6052z"/>
		</g>
		<g id="XMLID_10851_">
			<path id="XMLID_10479_" fill="#729E3F" d="M372.5173,190.8468c-0.9366-1.5135-1.8429-3.0786-2.7137-4.6916
				c-1.3591,0.1225-2.7342,0.2432-4.136,0.3622c-38.5697,3.259-92.4145,5.0538-151.6148,5.0538
				c-59.2013,0-113.0461-1.7947-151.6158-5.0538c-0.7785-0.0666-1.5384-0.1341-2.3045-0.2006
				c-0.8771,1.6148-1.7887,3.1807-2.7315,4.696c1.1571,0.1048,2.3285,0.2077,3.5158,0.3098
				c38.8019,3.3316,93.1873,5.1665,153.136,5.1665s114.3333-1.8349,153.1346-5.1665
				C369.001,191.1672,370.7765,191.0092,372.5173,190.8468z"/>
		</g>
		<g id="XMLID_10846_">
			<path id="XMLID_10470_" fill="#729E3F" d="M361.9668,166.4968c-38.2786,3.068-90.5974,4.7529-147.9424,4.7529
				c-56.4174,0-107.9594-1.6317-146.0631-4.6064c-0.4434,1.6449-0.9241,3.2508-1.4408,4.8194
				c38.3487,3.0378,90.3958,4.704,147.5039,4.704c58.0365,0,110.856-1.7195,149.3734-4.8523
				C362.8846,169.7477,362.407,168.1409,361.9668,166.4968z"/>
		</g>
	</g>
	<g id="XMLID_10821_">
		<g id="XMLID_10834_">
			<g id="XMLID_10836_">
				<path id="XMLID_10838_" fill="#729E3F" d="M97.1496,115.408c-7.3486,0-13.3274-5.9784-13.3274-13.3269
					c0-7.349,5.9788-13.3274,13.3274-13.3274c7.349,0,13.3274,5.9784,13.3274,13.3274
					C110.477,109.4296,104.4986,115.408,97.1496,115.408z M97.1496,95.6384c-3.5527,0-6.4422,2.8904-6.4422,6.4426
					c0,3.5518,2.8895,6.4422,6.4422,6.4422s6.4431-2.8904,6.4431-6.4422C103.5927,98.5288,100.7023,95.6384,97.1496,95.6384z"/>
			</g>
		</g>
		<g id="XMLID_10824_">
			<g id="XMLID_10826_">
				<path id="XMLID_10828_" fill="#729E3F" d="M332.7687,115.408c-7.3485,0-13.3273-5.9784-13.3273-13.3269
					c0-7.349,5.9788-13.3274,13.3273-13.3274c7.3486,0,13.3274,5.9784,13.3274,13.3274
					C346.0961,109.4296,340.1172,115.408,332.7687,115.408z M332.7687,95.6384c-3.5526,0-6.4431,2.8904-6.4431,6.4426
					c0,3.5518,2.8904,6.4422,6.4431,6.4422c3.5527,0,6.4426-2.8904,6.4426-6.4422
					C339.2113,98.5288,336.3214,95.6384,332.7687,95.6384z"/>
			</g>
		</g>
	</g>
</g>
</svg>
