<?xml version="1.0" encoding="utf-8"?>
<!-- Generator: Adobe Illustrator 19.0.0, SVG Export Plug-In . SVG Version: 6.00 Build 0)  -->
<svg version="1.1" id="Layer_1" xmlns="http://www.w3.org/2000/svg" xmlns:xlink="http://www.w3.org/1999/xlink" x="0px" y="0px"
	 viewBox="0 0 559 351" enable-background="new 0 0 559 351" xml:space="preserve">
<g id="XMLID_10809_">
	<g id="XMLID_10886_">
		<path id="XMLID_10907_" fill="#F9ED32" d="M387.4237,133.1922c0,0,4.5977-116.9353-77.3206-116.9353
			c-66.207,0-104.7486,183.1423-104.7486,183.1423l99.3105,82.7587c0,0-33.1035-182.0692,16.5518-198.6209
			S387.4237,133.1922,387.4237,133.1922z"/>
		<path id="XMLID_10900_" fill="#F9ED32" d="M309.4746,283.1456c6.3505,0,12.4138,1.4404,17.8896,3.9871
			c-1.4654-10.8118-3.4823-23.4196-6.1475-38.0784C288.1133,66.9852,337.7685,66.7685,337.7685,66.7685L321.2167,50h-33.1035
			L255,116.6404v148.9657l27.3342,27.3277C289.7948,286.8383,299.2698,283.1456,309.4746,283.1456z"/>
		<path id="XMLID_10896_" fill="#662D91" d="M387.4237,133.1922c0,0-16.5518-115.8613-82.7587-115.8613
			S188.8028,199.3991,188.8028,199.3991l99.3105,82.7587c0,0-33.1035-182.0692,16.5517-198.6209
			S387.4237,133.1922,387.4237,133.1922z"/>
		<circle id="XMLID_10890_" fill="#FBB03B" cx="387.4237" cy="130.1176" r="16.5517"/>
	</g>
	<g id="XMLID_10840_">
		<path id="XMLID_10880_" fill="none" d="M278.2102,251.5759"/>
		<path id="XMLID_10875_" fill="#662D91" d="M245,285V152.2655c0,0-115.8089-66.207-165.4641-33.1035
			S29.9073,235.0242,29.9073,235.0242s16.5651-66.0467,82.7721-66.0467S145.7962,285,145.7962,285H245z"/>
		<circle id="XMLID_10871_" fill="#FBB03B" cx="29.934" cy="235.0242" r="16.5517"/>
		<path id="XMLID_10867_" fill="#FCEE21" d="M311,285V152.2655c0,0,116.019-66.207,165.6743-33.1035
			s49.7337,115.8622,49.7337,115.8622s-16.5126-66.0467-82.7195-66.0467S410.6241,285,410.6241,285H311z"/>
		<circle id="XMLID_10865_" fill="#FBB03B" cx="526.4863" cy="235.0242" r="16.5517"/>
		<circle id="XMLID_10861_" fill="#FBB03B" cx="63.0375" cy="218.4724" r="16.5517"/>
		<path id="XMLID_10857_" fill="#FF1D25" d="M278,268V135.7137c0,0,115.9673-66.207,165.6225-33.1035
			s49.7078,115.8622,49.7078,115.8622s-16.5255-66.2708-82.7325-66.2708S370.1643,268,370.1643,268H278z"/>
		<circle id="XMLID_10853_" fill="#FBB03B" cx="493.3828" cy="218.4724" r="16.5517"/>
		<path id="XMLID_10848_" fill="#7AC943" d="M278.2102,268c0,0,20.6897-84.0742,0-132.3501c0,0-115.8622-66.1751-165.5175-33.0716
			S63.0375,218.4565,63.0375,218.4565s16.5517-66.2628,82.7587-66.2628S186.256,268,186.256,268H278.2102z"/>
		<path id="XMLID_10842_" fill="#0071BC" d="M394.0724,266.2886c0,0,0-47.8162-16.5518-64.3679
			c0,33.1035-33.1035,55.1725-33.1035,55.1725s-16.5517-55.1725-33.1035-71.7242c0,33.1035-33.1035,66.207-33.1035,66.207
			s-33.1035-33.1035-33.1035-66.207c-33.1035,16.5517-33.1035,71.7242-33.1035,71.7242s-33.1035-22.069-33.1035-55.1725
			c-16.5517,16.5517-16.5517,64.3679-16.5517,64.3679c-16.5518-16.5518-33.0016-31.2644-33.0016-31.2644S146,268.1277,146,284.6794
			v33.1c0,0,33.1877-16.5517,132.5-16.5517c99.3105,0,132.5,16.5517,132.5,16.5517v-33.1c0-16.5517,32.9156-49.6552,32.9156-49.6552
			S410.6241,249.7368,394.0724,266.2886z"/>
	</g>
	<g id="XMLID_10813_">
		<path id="XMLID_10832_" fill="#F9ED32" d="M310.1031,16.2568c-23.7249,0-43.8956,19.8411-60.0162,50.0243
			c2.5916,1.3183,5.1581,2.6832,7.6563,4.1523c8.9207,5.2406,17.5754,10.9986,26.787,15.7293
			c1.1621,0.5962,2.3222,1.1961,3.4932,1.778c1.1136,0.4237,2.3994,0.8907,3.1915,1.1099c0.5586,0.1545,1.171,3.9619,1.7744,4.0697
			c0.1815-0.0072,0.3647-0.0037,0.5479-0.0144c4.7755-0.1114,15.2226,9.9461,19.5474,11.4224c0,0,2.4444-19.0948,8.1323-20.9915
			c49.6552-16.5517,66.207,49.6552,66.207,49.6552S392.0214,16.2568,310.1031,16.2568z"/>
		<path id="XMLID_10830_" fill="#662D91" d="M304.665,17.3309c-22.7012,0-43.4573,21.4073-60.9323,49.543
			c4.7899,2.2091,9.49,4.5797,14.0105,7.2377c8.9207,5.2407,17.5754,10.9986,26.787,15.7293
			c1.1621,0.5962,2.3222,1.1961,3.4932,1.778c1.1136,0.4237,2.3994,0.8907,3.1915,1.1099c0.3358,0.0934,0.704,0.1617,1.065,0.2334
			c3.3997-4.5221,7.4838-7.7909,12.3851-9.4253c49.6552-16.5517,82.7587,49.6552,82.7587,49.6552S370.8719,17.3309,304.665,17.3309z
			"/>
		<circle id="XMLID_10817_" fill="#FBB03B" cx="387.4237" cy="130.1176" r="16.5517"/>
	</g>
</g>
</svg>
