<?xml version="1.0" encoding="utf-8"?>
<!-- Generator: Adobe Illustrator 19.0.0, SVG Export Plug-In . SVG Version: 6.00 Build 0)  -->
<svg version="1.1" id="Layer_1" xmlns="http://www.w3.org/2000/svg" xmlns:xlink="http://www.w3.org/1999/xlink" x="0px" y="0px"
	 viewBox="0 0 356 360" enable-background="new 0 0 356 360" xml:space="preserve">
<g id="XMLID_11166_">
	<g id="XMLID_11183_">
		<g id="XMLID_11189_">
			<path id="XMLID_11191_" fill="#F9EEE4" d="M280.6212,218.3569L79.821,148.8639c4.8336,12.3752-39.9751,133.6207-39.9751,133.6207
				s51.9949,6.6731,97.3585,23.2626c41.9533,15.3415,91.086,41.9543,91.086,41.9543S269.4046,225.1774,280.6212,218.3569z"/>
		</g>
		<g id="XMLID_11185_">
			<linearGradient id="XMLID_418_" gradientUnits="userSpaceOnUse" x1="230.0341" y1="24.9515" x2="162.0341" y2="244.9514">
				<stop  offset="0" style="stop-color:#F9EEE4"/>
				<stop  offset="1" style="stop-color:#FFFFFF"/>
			</linearGradient>
			<path id="XMLID_10630_" fill="url(#XMLID_418_)" d="M268.9997,252.6057c30.0204,9.6201,62.1296,0.0493,77.385-22.2506
				c15.7416-22.9559,7.0111-51.6051-13.8591-72.7121c-17.05-17.2431-41.8366-17.1708-43.5837-38.3034
				c-1.9589-23.6923-12.3513-47.722-34.5278-63.5247c-46.6361-33.2322-99.3405-17.0184-127.1019,20.316
				c-40.8309-18.1028-98.5314-4.3259-106.1576,36.6763c-2.2665,14.3529,1.5538,29.7354,10.6061,42.7309
				c8.3278,11.9856,23.489,23.1162,37.6978,28.0336c26.4475,9.153,29.4535,21.309,50.3625,41.1571
				c34.5405,32.7872,83.9527,36.8826,129.84,21.9459C256.0388,249.3423,262.6276,250.5467,268.9997,252.6057
				C269.5614,252.7856,268.9844,252.6004,268.9997,252.6057z"/>
		</g>
	</g>
	<g id="XMLID_11168_">
		<g id="XMLID_11179_">
			<polygon id="XMLID_10628_" fill="#CCC5B4" points="147.5745,287.5988 140.1979,285.046 161.5007,231.8793 			"/>
		</g>
		<g id="XMLID_11175_">
			<polygon id="XMLID_10626_" fill="#CCC5B4" points="202.1884,310.0773 195.0227,306.9734 222.612,256.27 			"/>
		</g>
		<g id="XMLID_11170_">
			<polygon id="XMLID_10624_" fill="#CCC5B4" points="85.0603,268.6326 92.6108,270.6217 102.1868,213.9404 			"/>
		</g>
	</g>
</g>
</svg>
