<?xml version="1.0" encoding="utf-8"?>
<!-- Generator: Adobe Illustrator 19.0.0, SVG Export Plug-In . SVG Version: 6.00 Build 0)  -->
<svg version="1.1" id="Layer_1" xmlns="http://www.w3.org/2000/svg" xmlns:xlink="http://www.w3.org/1999/xlink" x="0px" y="0px"
	 viewBox="226 90 428 283" style="enable-background:new 226 90 428 283;" xml:space="preserve">
<style type="text/css">
	.st0{fill:#603913;}
	.st1{fill:#754C24;}
	.st2{fill:#42210B;}
</style>
<g id="XMLID_12006_">
	<path id="XMLID_12019_" class="st0" d="M564.8,308.7c0,15.9-49.5,34.2-110.6,34.2c-61.1,0-110.6-18.3-110.6-34.2
		c0-15.9,49.5-28.8,110.6-28.8C515.3,279.8,564.8,292.7,564.8,308.7z"/>
	<path id="XMLID_12017_" class="st0" d="M564.8,231.7C545.6,212.5,507.2,126,487.9,126c-19.2,0,9.6,86.5,9.6,86.5
		S555.2,241.4,564.8,231.7z"/>
	<path id="XMLID_12015_" class="st0" d="M334.1,231.7C353.3,212.5,391.8,126,411,126c19.2,0-9.6,86.5-9.6,86.5
		S343.7,241.4,334.1,231.7z"/>
	<path id="XMLID_12013_" class="st1" d="M449.5,308.7c57.7,0,115.4-9.6,115.4-9.6s3-15.2,4-32c0.7-13,0.2-26.9-4-35.3
		c-5.3-10.6-30.7-22.4-48.1-48.1c-14.2-21-20.2-57.7-28.8-57.7c-19.2,0-28.8,9.6-38.5,9.6c-9.6,0-19.2-9.6-38.5-9.6
		c-8.6,0-14.7,36.7-28.8,57.7c-17.4,25.7-42.8,37.5-48.1,48.1c-4.2,8.4-4.7,22.3-4,35.3c0.9,16.8,4,32,4,32S391.8,308.7,449.5,308.7
		z"/>
	<path id="XMLID_12010_" class="st2" d="M568.8,267c-0.9,16.8-4,32-4,32s-57.7,9.6-115.4,9.6c-57.7,0-115.4-9.6-115.4-9.6
		s-3-15.2-4-32l-0.3,0c0,0,62,9.6,119.6,9.6c57.7,0,119.6-9.6,119.6-9.6L568.8,267z"/>
	<path id="XMLID_12008_" class="st1" d="M449.5,337.5c105.8,0,153.8-115.4,173-105.8c19.2,9.6,9.6,48.1-9.6,67.3
		c-19.2,19.2-86.5,48.1-163.4,48.1c-76.9,0-144.2-28.8-163.4-48.1c-19.2-19.2-28.8-57.7-9.6-67.3
		C295.7,222.1,343.7,337.5,449.5,337.5z"/>
</g>
</svg>
