<?xml version="1.0" encoding="utf-8"?>
<!-- Generator: Adobe Illustrator 19.0.0, SVG Export Plug-In . SVG Version: 6.00 Build 0)  -->
<svg version="1.1" id="Layer_1" xmlns="http://www.w3.org/2000/svg" xmlns:xlink="http://www.w3.org/1999/xlink" x="0px" y="0px"
	 viewBox="-118 96 492 377" style="enable-background:new -118 96 492 377;" xml:space="preserve">
<style type="text/css">
	.st0{fill:#BA6520;}
	.st1{fill:#7AC943;}
	.st2{fill:#E58A38;}
	.st3{fill:#FF1D25;}
	.st4{fill:#FCEE21;}
	.st5{fill:#7F3F98;}
</style>
<g id="XMLID_10911_">
	<path id="XMLID_11620_" class="st0" d="M361.9,317.9c0-13.4-231.2-24.3-231.2-24.3s-231.2,10.9-231.2,24.3l31.8,31.9l46.7,13.4
		L161,349.9l121-3.5L361.9,317.9z"/>
	<path id="XMLID_11618_" class="st1" d="M364.6,317.9c0-0.7-0.2-1.4-0.5-1.9c-0.6-1.1-1.4-1.7-2.2-2.2c-1.6-1-3.8-1.8-6.5-2.6
		c-5.1-1.5-12.4-2.9-21.2-4.2c-31-4.7-81.8-8.7-124.9-11.5c-43.1-2.8-78.5-4.5-78.5-4.5l-0.1,0l-0.1,0c0,0-57.8,2.7-115.7,7.1
		c-28.9,2.2-57.9,4.8-79.6,7.8c-10.9,1.5-20,3-26.5,4.6c-3.3,0.8-5.9,1.6-7.9,2.6c-1,0.5-1.9,1-2.6,1.7c-0.4,0.4-0.7,0.8-1,1.3
		c-0.3,0.5-0.5,1.2-0.5,1.9h5.4h-1.4l1.2,0.6c0.1-0.1,0.2-0.4,0.1-0.6h-1.4l1.2,0.6l-0.6-0.3l0.5,0.4l0.1-0.1l-0.6-0.3l0.5,0.4h0
		c0,0,0.4-0.3,1-0.6c1.2-0.6,3.2-1.4,5.9-2.1c5.1-1.4,12.4-2.7,21.3-4c31.2-4.6,81.4-8.5,123.8-11.3c21.2-1.4,40.4-2.5,54.3-3.2
		c7-0.4,12.6-0.7,16.5-0.9c3.9-0.2,6-0.3,6.1-0.3l-0.1-2.7l-0.1,2.7c0,0,0.9,0,2.6,0.1c12.7,0.6,69.8,3.5,123.8,7.8
		c27,2.2,53.1,4.7,72.5,7.4c9.7,1.4,17.6,2.8,23.1,4.3c2.7,0.7,4.8,1.4,5.9,2.1c0.6,0.3,0.9,0.6,1,0.7l0,0l0.3-0.2l-0.3,0.2l0,0
		l0.3-0.2l-0.3,0.2l1.1-0.7h-1.3c0,0.3,0.1,0.6,0.2,0.7l1.1-0.7h-1.3H364.6z"/>
	<path id="XMLID_11616_" class="st2" d="M349.7,354.5c-9.3,13.5-26.2,33.5-60.9,36.5c-83.6,7.3-232.8,7.3-316.4,0
		c-34.7-3-52.1-10.5-60.9-24.3c-6.7-10.6-12.2-48.7-12.2-48.7l37.4,32.3l77.5,0.1l254.9-38.7l92.6,6.2
		C361.9,317.9,355.2,346.5,349.7,354.5z"/>
	<path id="XMLID_11614_" class="st2" d="M240.1,354.5c0,0-30.7-15.1-36.5-24.3c-24.7-39.2-24.3-170.4-73-170.4
		c-48.7,0-48.3,131.2-73,170.4c-5.9,9.3-36.5,24.3-36.5,24.3H240.1z"/>
	<path id="XMLID_11612_" class="st1" d="M-102.4,320c10.1,8.6,22.9,14.4,37.8,18c14.9,3.6,31.8,5.1,50.2,5.1
		c47,0,103.5-9.7,158.8-19.4c55.3-9.7,109.5-19.4,151.4-19.4c14.2,0,26.9,1.1,37.8,3.6c10.9,2.5,19.8,6.5,26.6,12.1
		c1.1,1,2.9,0.8,3.8-0.3c1-1.1,0.8-2.9-0.3-3.8c-7.6-6.3-17.4-10.5-28.8-13.2c-11.4-2.7-24.6-3.8-39-3.8c-42.7,0-97,9.7-152.3,19.4
		C88.1,328,31.8,337.7-14.5,337.7c-18.1,0-34.6-1.5-48.9-5c-14.3-3.5-26.3-8.9-35.5-16.8c-1.1-1-2.8-0.8-3.8,0.3
		C-103.7,317.3-103.5,319-102.4,320z"/>
	<path id="XMLID_11610_" class="st3" d="M-91,330.3c-2.3,1.2-4.6,2.3-7,3.3c0.4,1.9,0.7,3.9,1.2,5.9c0.1,0.1,0.2,0.2,0.4,0.2
		L-91,330.3z"/>
	<path id="XMLID_11608_" class="st3" d="M-98.8,323.3c-0.2,1.1-0.3,2.1-0.5,3.2c0.3,1.8,0.6,3.7,1,5.8c2.5-1,5-2.2,7.3-3.4
		C-93.7,327.2-96.4,325.3-98.8,323.3z"/>
	<path id="XMLID_11605_" class="st4" d="M-90.3,329.2l-0.6-0.4c-2.3,1.3-4.8,2.4-7.3,3.4c0.1,0.5,0.2,0.9,0.3,1.4
		c2.4-1,4.8-2.1,7-3.3L-90.3,329.2z"/>
	<path id="XMLID_11603_" class="st4" d="M-99.4,322.8l-0.4,0.5c0.2,1,0.3,2,0.5,3.2c0.1-1.1,0.3-2.2,0.5-3.2L-99.4,322.8z"/>
	<path id="XMLID_11601_" class="st3" d="M-89.1,341c-0.2,0.1-0.5,0.1-0.7,0c-0.2-0.1-0.4-0.3-0.4-0.5c-0.5-3.4-0.7-6.8-0.8-10.2
		l-5.5,9.4c3.8,2.2,7.7,4.1,11.7,5.7l4.1-10.1C-83.3,337.3-86.1,339.2-89.1,341z"/>
	<path id="XMLID_11599_" class="st3" d="M-80.9,333.9c-3-1.3-6-2.7-8.8-4.3c0.1,3.2,0.3,6.4,0.7,9.7
		C-86.1,337.6-83.4,335.8-80.9,333.9z"/>
	<path id="XMLID_11597_" class="st4" d="M-89.8,341c0.2,0.1,0.5,0.1,0.7,0c3-1.8,5.8-3.6,8.5-5.6l0.5-1.2l-0.7-0.3
		c-2.6,1.9-5.3,3.7-8.1,5.4c-0.4-3.3-0.7-6.5-0.7-9.7l-0.6-0.4l-0.6,1.1c0,3.3,0.3,6.7,0.8,10.2C-90.2,340.7-90,340.9-89.8,341z"/>
	<path id="XMLID_11593_" class="st3" d="M-77.4,345.7c-0.2,0.1-0.4,0.2-0.7,0.1c-0.2-0.1-0.4-0.3-0.5-0.5c-0.9-3.3-1.6-6.6-2.2-10
		l-4.1,10.1c4,1.6,8.1,3,12.2,4.1l2.9-10.5C-72.1,341.3-74.6,343.5-77.4,345.7z"/>
	<path id="XMLID_11589_" class="st3" d="M-70,337.6c-3.2-0.9-6.4-2-9.5-3.2c0.5,3.2,1.2,6.3,2.1,9.5
		C-74.8,341.9-72.4,339.8-70,337.6z"/>
	<path id="XMLID_11583_" class="st4" d="M-78.5,345.3c0.1,0.2,0.2,0.4,0.5,0.5c0.2,0.1,0.5,0,0.7-0.1c2.7-2.1,5.3-4.3,7.8-6.6
		l0.3-1.2l-0.7-0.2c-2.4,2.2-4.8,4.3-7.4,6.3c-0.8-3.2-1.5-6.3-2.1-9.5l-0.7-0.3l-0.5,1.2C-80.1,338.6-79.3,342-78.5,345.3z"/>
	<path id="XMLID_11578_" class="st3" d="M-65.2,349c-0.2,0.2-0.4,0.2-0.6,0.2c-0.2-0.1-0.4-0.2-0.5-0.4c-1.2-3.2-2.3-6.4-3.2-9.7
		l-2.9,10.5c4.1,1.1,8.3,2.1,12.4,2.9l2-10.7C-60.4,344.2-62.8,346.6-65.2,349z"/>
	<path id="XMLID_11574_" class="st3" d="M-58.6,340.3c-3.3-0.6-6.6-1.4-9.9-2.3c0.9,3.1,1.9,6.2,3.1,9.2
		C-63.1,345-60.8,342.7-58.6,340.3z"/>
	<path id="XMLID_11570_" class="st4" d="M-66.4,348.7c0.1,0.2,0.3,0.4,0.5,0.4c0.2,0.1,0.5,0,0.6-0.2c2.5-2.4,4.8-4.8,7.1-7.3
		l0.2-1.2l-0.8-0.1c-2.2,2.4-4.4,4.7-6.8,7c-1.1-3.1-2.2-6.2-3.1-9.2l-0.7-0.2l-0.3,1.2C-68.6,342.3-67.6,345.5-66.4,348.7z"/>
	<path id="XMLID_11564_" class="st3" d="M-53,351.3c-0.2,0.2-0.4,0.3-0.6,0.2c-0.2,0-0.4-0.2-0.5-0.4c-1.4-3.1-2.8-6.2-4-9.4
		l-2,10.7c4.2,0.8,8.3,1.4,12.5,1.9l1.3-10.8C-48.5,346.1-50.7,348.7-53,351.3z"/>
	<path id="XMLID_11560_" class="st3" d="M-47,342.1c-3.4-0.4-6.8-0.9-10.1-1.5c1.2,3,2.5,6,3.8,9C-51.1,347.1-49,344.6-47,342.1z"/>
	<path id="XMLID_11556_" class="st4" d="M-54.1,351.1c0.1,0.2,0.3,0.4,0.5,0.4c0.2,0,0.5,0,0.6-0.2c2.3-2.6,4.5-5.2,6.6-7.8l0.1-1.2
		l-0.8-0.1c-2,2.5-4.1,5-6.3,7.4c-1.4-3-2.6-6-3.8-9l-0.8-0.1l-0.2,1.2C-56.9,344.8-55.5,348-54.1,351.1z"/>
	<path id="XMLID_11549_" class="st3" d="M-40.6,352.7c-0.1,0.2-0.4,0.3-0.6,0.3c-0.2,0-0.4-0.2-0.5-0.4c-1.6-3-3.2-6-4.6-9.1
		l-1.3,10.8c4.2,0.5,8.3,0.8,12.5,1.1l0.7-10.9C-36.5,347.2-38.5,350-40.6,352.7z"/>
	<path id="XMLID_11541_" class="st3" d="M-35.2,343.2c-3.4-0.2-6.9-0.5-10.3-0.9c1.4,2.9,2.9,5.8,4.4,8.7
		C-39,348.4-37.1,345.8-35.2,343.2z"/>
	<path id="XMLID_11537_" class="st4" d="M-41.8,352.6c0.1,0.2,0.3,0.3,0.5,0.4c0.2,0,0.5-0.1,0.6-0.3c2.1-2.7,4.2-5.4,6.1-8.2
		l0.1-1.2l-0.8,0c-1.9,2.6-3.8,5.2-5.9,7.8c-1.5-2.9-3-5.8-4.4-8.7l-0.8-0.1l-0.1,1.2C-44.9,346.5-43.4,349.5-41.8,352.6z"/>
	<path id="XMLID_11533_" class="st3" d="M-28.2,353.4c-0.1,0.2-0.4,0.3-0.6,0.3c-0.2,0-0.4-0.1-0.6-0.3c-1.7-2.9-3.4-5.9-5.1-8.9
		l-0.7,10.9c4.2,0.3,8.3,0.4,12.5,0.5l0.2-10.9C-24.4,347.8-26.3,350.6-28.2,353.4z"/>
	<path id="XMLID_11529_" class="st3" d="M-23.3,343.7c-3.5-0.1-6.9-0.2-10.4-0.4c1.6,2.8,3.2,5.7,4.8,8.5
		C-26.9,349.1-25.1,346.4-23.3,343.7z"/>
	<path id="XMLID_11522_" class="st4" d="M-29.4,353.4c0.1,0.2,0.3,0.3,0.6,0.3c0.2,0,0.5-0.1,0.6-0.3c2-2.8,3.9-5.6,5.8-8.4l0-1.2
		l-0.8,0c-1.8,2.7-3.6,5.4-5.5,8.1c-1.7-2.8-3.3-5.6-4.8-8.5l-0.8,0l-0.1,1.2C-32.8,347.5-31.2,350.4-29.4,353.4z"/>
	<path id="XMLID_11518_" class="st3" d="M-15.9,353.6c-0.1,0.2-0.3,0.3-0.6,0.3c-0.2,0-0.5-0.1-0.6-0.3c-1.9-2.9-3.7-5.7-5.4-8.6
		l-0.2,10.9c4.1,0.1,8.3,0.1,12.4,0l-0.2-10.9C-12.2,347.9-14,350.7-15.9,353.6z"/>
	<path id="XMLID_11514_" class="st3" d="M-11.3,343.7c-3.5,0.1-6.9,0.1-10.4,0c1.7,2.8,3.4,5.5,5.2,8.3
		C-14.7,349.2-13,346.5-11.3,343.7z"/>
	<path id="XMLID_11510_" class="st4" d="M-17.1,353.6c0.1,0.2,0.3,0.3,0.6,0.3c0.2,0,0.5-0.1,0.6-0.3c1.9-2.9,3.7-5.7,5.4-8.6l0-1.3
		l-0.8,0c-1.7,2.8-3.4,5.5-5.2,8.3c-1.8-2.7-3.5-5.5-5.2-8.3l-0.8,0l0,1.2C-20.7,347.9-18.9,350.7-17.1,353.6z"/>
	<path id="XMLID_11508_" class="st3" d="M-3.6,353.4c-0.1,0.2-0.3,0.3-0.6,0.3c-0.2,0-0.5-0.1-0.6-0.3c-2-2.8-3.9-5.6-5.7-8.4
		l0.2,10.9c4.1-0.1,8.3-0.2,12.4-0.4l-0.5-10.9C-0.1,347.5-1.8,350.4-3.6,353.4z"/>
	<path id="XMLID_11506_" class="st3" d="M0.7,343.4c-3.5,0.2-7,0.3-10.4,0.3c1.8,2.7,3.6,5.4,5.5,8.1C-2.5,349-0.9,346.2,0.7,343.4z
		"/>
	<path id="XMLID_11495_" class="st4" d="M-4.7,353.4c0.1,0.2,0.4,0.3,0.6,0.3c0.2,0,0.4-0.1,0.6-0.3c1.8-2.9,3.5-5.9,5.2-8.8
		l-0.1-1.2l-0.8,0c-1.6,2.8-3.3,5.6-4.9,8.4c-1.9-2.7-3.7-5.4-5.5-8.1l-0.8,0l0,1.3C-8.6,347.8-6.7,350.6-4.7,353.4z"/>
	<path id="XMLID_11491_" class="st3" d="M8.7,352.8c-0.1,0.2-0.3,0.3-0.6,0.3c-0.2,0-0.5-0.1-0.6-0.3c-2-2.7-4-5.5-6-8.3l0.5,10.9
		c4.1-0.2,8.2-0.4,12.3-0.7l-0.8-10.9C12,346.8,10.4,349.8,8.7,352.8z"/>
	<path id="XMLID_11487_" class="st3" d="M12.8,342.6c-3.5,0.2-7,0.5-10.4,0.6c1.9,2.6,3.8,5.3,5.7,7.9
		C9.6,348.4,11.2,345.5,12.8,342.6z"/>
	<path id="XMLID_11483_" class="st4" d="M7.6,352.8c0.1,0.2,0.4,0.3,0.6,0.3c0.2,0,0.4-0.1,0.6-0.3c1.7-3,3.3-5.9,4.9-8.9l-0.1-1.2
		l-0.8,0.1c-1.5,2.9-3.1,5.7-4.7,8.5c-1.9-2.6-3.8-5.3-5.7-7.9l-0.8,0l0.1,1.2C3.5,347.3,5.5,350.1,7.6,352.8z"/>
	<path id="XMLID_11479_" class="st3" d="M21,351.9c-0.1,0.2-0.3,0.3-0.5,0.4c-0.2,0-0.5-0.1-0.6-0.3c-2.1-2.7-4.1-5.4-6.2-8.1
		l0.8,10.9c4.1-0.3,8.2-0.6,12.3-1l-1-10.9C24.2,345.9,22.6,348.9,21,351.9z"/>
	<path id="XMLID_11475_" class="st3" d="M24.8,341.7c-3.5,0.3-7,0.6-10.4,0.9c1.9,2.6,3.9,5.2,5.9,7.8L24.8,341.7z"/>
	<path id="XMLID_11470_" class="st4" d="M19.8,352c0.1,0.2,0.4,0.3,0.6,0.3c0.2,0,0.4-0.2,0.5-0.4c1.6-3,3.2-6,4.7-9l-0.1-1.2
		l-0.8,0.1l-4.5,8.6c-2-2.6-4-5.2-5.9-7.8l-0.8,0.1l0.1,1.2C15.7,346.6,17.7,349.3,19.8,352z"/>
	<path id="XMLID_11464_" class="st3" d="M33.2,350.7c-0.1,0.2-0.3,0.3-0.5,0.4c-0.2,0-0.5-0.1-0.6-0.3l-6.3-8l1,10.9
		c4.1-0.4,8.2-0.8,12.2-1.2l-1.2-10.9L33.2,350.7z"/>
	<path id="XMLID_11458_" class="st3" d="M36.8,340.5c-3.5,0.4-7,0.7-10.4,1.1l6.1,7.7L36.8,340.5z"/>
	<path id="XMLID_11454_" class="st4" d="M32,350.8c0.1,0.2,0.4,0.3,0.6,0.3c0.2,0,0.4-0.2,0.5-0.4l4.6-9.1l-0.1-1.2l-0.8,0.1
		l-4.4,8.7l-6.1-7.7l-0.8,0.1l0.1,1.2L32,350.8z"/>
	<path id="XMLID_11450_" class="st3" d="M45.4,349.4c-0.1,0.2-0.3,0.3-0.5,0.4c-0.2,0-0.5-0.1-0.6-0.2l-6.5-7.9l1.2,10.9
		c4.1-0.5,8.1-0.9,12.2-1.4l-1.4-10.8L45.4,349.4z"/>
	<polygon id="XMLID_11446_" class="st3" points="48.9,339 38.4,340.3 44.6,347.8 	"/>
	<path id="XMLID_11439_" class="st4" d="M44.2,349.5c0.1,0.2,0.4,0.3,0.6,0.2c0.2,0,0.4-0.2,0.5-0.4l4.5-9.2l-0.2-1.2l-0.8,0.1
		l-4.3,8.8l-6.2-7.6l-0.8,0.1l0.1,1.2L44.2,349.5z"/>
	<path id="XMLID_11435_" class="st3" d="M57.5,347.8c-0.1,0.2-0.3,0.4-0.5,0.4c-0.2,0-0.5-0.1-0.6-0.2l-6.6-7.8l1.4,10.8l12.2-1.6
		l-1.5-10.8L57.5,347.8z"/>
	<polygon id="XMLID_11431_" class="st3" points="60.9,337.5 50.5,338.8 56.7,346.3 	"/>
	<path id="XMLID_11423_" class="st4" d="M56.4,348c0.2,0.2,0.4,0.3,0.6,0.2c0.2,0,0.4-0.2,0.5-0.4l4.3-9.2l-0.2-1.2l-0.8,0.1
		l-4.1,8.8l-6.3-7.5l-0.8,0.1l0.2,1.2L56.4,348z"/>
	<path id="XMLID_11419_" class="st3" d="M69.7,346.2c-0.1,0.2-0.3,0.4-0.5,0.4c-0.2,0-0.5-0.1-0.6-0.2l-6.7-7.7l1.5,10.8l12.1-1.7
		l-1.6-10.8L69.7,346.2z"/>
	<polygon id="XMLID_11413_" class="st3" points="72.9,335.8 62.5,337.3 68.9,344.7 	"/>
	<path id="XMLID_11409_" class="st4" d="M68.5,346.3c0.2,0.2,0.4,0.3,0.6,0.2c0.2,0,0.4-0.2,0.5-0.4l4.2-9.3l-0.2-1.2l-0.8,0.1
		l-4.1,8.9l-6.4-7.4l-0.8,0.1l0.2,1.2L68.5,346.3z"/>
	<path id="XMLID_11405_" class="st3" d="M81.8,344.4c-0.1,0.2-0.3,0.4-0.5,0.4c-0.2,0-0.5-0.1-0.6-0.2l-6.7-7.7l1.6,10.8l12.1-1.8
		l-1.7-10.8L81.8,344.4z"/>
	<polygon id="XMLID_11395_" class="st3" points="84.9,333.9 74.5,335.5 80.9,342.9 	"/>
	<path id="XMLID_11391_" class="st4" d="M80.6,344.6c0.2,0.2,0.4,0.3,0.6,0.2c0.2,0,0.4-0.2,0.5-0.4l4.2-9.3l-0.2-1.2l-0.8,0.1
		l-4,8.9l-6.4-7.3l-0.8,0.1l0.2,1.2L80.6,344.6z"/>
	<path id="XMLID_11386_" class="st3" d="M93.8,342.5c-0.1,0.2-0.3,0.4-0.5,0.4c-0.2,0-0.5,0-0.6-0.2l-6.8-7.6l1.7,10.8l12.1-1.9
		l-1.8-10.8L93.8,342.5z"/>
	<polygon id="XMLID_11382_" class="st3" points="96.9,332 86.5,333.7 93,341 	"/>
	<path id="XMLID_11378_" class="st4" d="M92.7,342.7c0.2,0.2,0.4,0.3,0.6,0.2c0.2,0,0.4-0.2,0.5-0.4l4.1-9.4l-0.2-1.2l-0.8,0.1
		l-3.9,9l-6.5-7.3l-0.8,0.1l0.2,1.2L92.7,342.7z"/>
	<path id="XMLID_11370_" class="st3" d="M105.9,340.5c-0.1,0.2-0.3,0.4-0.5,0.4s-0.5,0-0.6-0.2l-6.8-7.6l1.8,10.8l12.1-2l-1.8-10.8
		L105.9,340.5z"/>
	<polygon id="XMLID_11366_" class="st3" points="108.9,330.1 98.5,331.8 105.1,339 	"/>
	<path id="XMLID_11361_" class="st4" d="M104.8,340.7c0.2,0.2,0.4,0.3,0.6,0.2s0.4-0.2,0.5-0.4l4-9.4l-0.2-1.2l-0.8,0.1l-3.9,9
		l-6.6-7.3l-0.8,0.1l0.2,1.2L104.8,340.7z"/>
	<path id="XMLID_11357_" class="st3" d="M118,338.5c-0.1,0.2-0.3,0.4-0.5,0.4c-0.2,0-0.5,0-0.6-0.2l-6.9-7.5l1.8,10.8l12.1-2
		l-1.8-10.8L118,338.5z"/>
	<polygon id="XMLID_11351_" class="st3" points="121,328 110.5,329.8 117.1,337 	"/>
	<path id="XMLID_11347_" class="st4" d="M116.8,338.7c0.2,0.2,0.4,0.2,0.6,0.2c0.2,0,0.4-0.2,0.5-0.4l4-9.4l-0.2-1.2L121,328l-3.8,9
		l-6.6-7.2l-0.8,0.1l0.2,1.2L116.8,338.7z"/>
	<path id="XMLID_11343_" class="st3" d="M130,336.4c-0.1,0.2-0.3,0.4-0.5,0.4c-0.2,0-0.5,0-0.6-0.2l-6.9-7.5l1.8,10.8l12-2.1
		L134,327L130,336.4z"/>
	<polygon id="XMLID_11339_" class="st3" points="133,326 122.5,327.7 129.2,334.9 	"/>
	<path id="XMLID_11334_" class="st4" d="M128.9,336.6c0.2,0.2,0.4,0.2,0.6,0.2c0.2,0,0.4-0.2,0.5-0.4l4-9.4l-0.2-1.2L133,326l-3.8,9
		l-6.6-7.2l-0.8,0.1l0.2,1.2L128.9,336.6z"/>
	<path id="XMLID_11328_" class="st3" d="M142,334.4c-0.1,0.2-0.3,0.4-0.5,0.4c-0.2,0-0.5,0-0.6-0.2L134,327l1.9,10.8l12-2.1L146,325
		L142,334.4z"/>
	<polygon id="XMLID_11324_" class="st3" points="145,323.9 134.6,325.7 141.2,332.9 	"/>
	<path id="XMLID_11318_" class="st4" d="M140.9,334.6c0.2,0.2,0.4,0.2,0.6,0.2c0.2,0,0.4-0.2,0.5-0.4l4-9.4l-0.2-1.2l-0.8,0.1
		l-3.8,9l-6.6-7.2l-0.8,0.1l0.2,1.2L140.9,334.6z"/>
	<path id="XMLID_11314_" class="st3" d="M154,332.3c-0.1,0.2-0.3,0.4-0.5,0.4c-0.2,0-0.5,0-0.6-0.2L146,325l1.9,10.8l12-2.1
		l-1.9-10.8L154,332.3z"/>
	<polygon id="XMLID_11310_" class="st3" points="157,321.8 146.6,323.6 153.2,330.8 	"/>
	<path id="XMLID_11303_" class="st4" d="M152.9,332.5c0.2,0.2,0.4,0.2,0.6,0.2c0.2,0,0.4-0.2,0.5-0.4l4-9.4l-0.2-1.2l-0.8,0.1
		l-3.8,9l-6.6-7.2l-0.8,0.1l0.2,1.2L152.9,332.5z"/>
	<path id="XMLID_11299_" class="st3" d="M166.1,330.2c-0.1,0.2-0.3,0.4-0.5,0.4c-0.2,0-0.5,0-0.6-0.2l-6.9-7.5l1.9,10.8l12-2.1
		l-1.8-10.8L166.1,330.2z"/>
	<polygon id="XMLID_11295_" class="st3" points="169.1,319.7 158.6,321.5 165.2,328.7 	"/>
	<path id="XMLID_11291_" class="st4" d="M164.9,330.4c0.2,0.2,0.4,0.3,0.6,0.2c0.2,0,0.4-0.2,0.5-0.4l4-9.4l-0.2-1.2l-0.8,0.1
		l-3.8,9l-6.6-7.2l-0.8,0.1l0.2,1.2L164.9,330.4z"/>
	<path id="XMLID_11285_" class="st3" d="M178.1,328.1c-0.1,0.2-0.3,0.4-0.5,0.4c-0.2,0-0.5,0-0.6-0.2l-6.9-7.5l1.8,10.8l12-2
		l-1.8-10.8L178.1,328.1z"/>
	<polygon id="XMLID_11280_" class="st3" points="181.1,317.6 170.6,319.4 177.2,326.6 	"/>
	<path id="XMLID_11276_" class="st4" d="M177,328.3c0.2,0.2,0.4,0.2,0.6,0.2c0.2,0,0.4-0.2,0.5-0.4l4-9.4l-0.2-1.2l-0.8,0.1l-3.9,9
		l-6.6-7.2l-0.8,0.1l0.2,1.2L177,328.3z"/>
	<path id="XMLID_11270_" class="st3" d="M190.1,326.1c-0.1,0.2-0.3,0.4-0.5,0.4c-0.2,0-0.5,0-0.6-0.2l-6.9-7.6l1.8,10.8l12-2
		l-1.7-10.8L190.1,326.1z"/>
	<polygon id="XMLID_11266_" class="st3" points="193.2,315.7 182.7,317.4 189.3,324.6 	"/>
	<path id="XMLID_11264_" class="st4" d="M189,326.3c0.2,0.2,0.4,0.3,0.6,0.2c0.2,0,0.4-0.2,0.5-0.4l4.1-9.4l-0.2-1.2l-0.8,0.1
		l-3.9,9l-6.6-7.2l-0.8,0.1l0.2,1.2L189,326.3z"/>
	<path id="XMLID_11256_" class="st3" d="M202.1,324.2c-0.1,0.2-0.3,0.4-0.5,0.4c-0.2,0-0.5,0-0.6-0.2l-6.8-7.6l1.7,10.8l12-1.9
		l-1.7-10.8L202.1,324.2z"/>
	<polygon id="XMLID_11251_" class="st3" points="205.3,313.7 194.8,315.4 201.3,322.7 	"/>
	<path id="XMLID_11247_" class="st4" d="M201,324.4c0.2,0.2,0.4,0.3,0.6,0.2c0.2,0,0.4-0.2,0.5-0.4l4.1-9.3l-0.2-1.2l-0.8,0.1
		l-4,8.9l-6.5-7.3l-0.8,0.1l0.2,1.2L201,324.4z"/>
	<path id="XMLID_11235_" class="st3" d="M214.2,322.3c-0.1,0.2-0.3,0.4-0.5,0.4c-0.2,0-0.5,0-0.6-0.2l-6.8-7.7l1.7,10.8l12-1.8
		l-1.6-10.8L214.2,322.3z"/>
	<polygon id="XMLID_11231_" class="st3" points="217.4,311.9 206.9,313.5 213.3,320.8 	"/>
	<path id="XMLID_11226_" class="st4" d="M213,322.5c0.2,0.2,0.4,0.3,0.6,0.2c0.2,0,0.4-0.2,0.5-0.4l4.2-9.3l-0.2-1.2l-0.8,0.1
		l-4,8.9l-6.5-7.3l-0.8,0.1l0.2,1.2L213,322.5z"/>
	<path id="XMLID_11222_" class="st3" d="M226.2,320.6c-0.1,0.2-0.3,0.4-0.5,0.4c-0.2,0-0.5-0.1-0.6-0.2l-6.7-7.7l1.6,10.8l12-1.7
		l-1.4-10.8L226.2,320.6z"/>
	<polygon id="XMLID_11218_" class="st3" points="229.5,310.2 219,311.7 225.4,319.1 	"/>
	<path id="XMLID_11210_" class="st4" d="M225.1,320.7c0.1,0.2,0.4,0.3,0.6,0.2c0.2,0,0.4-0.2,0.5-0.4l4.3-9.2l-0.2-1.2l-0.8,0.1
		l-4.1,8.9l-6.4-7.4l-0.8,0.1l0.2,1.2L225.1,320.7z"/>
	<path id="XMLID_11206_" class="st3" d="M238.2,319c-0.1,0.2-0.3,0.3-0.5,0.4c-0.2,0-0.5-0.1-0.6-0.2l-6.6-7.8l1.4,10.8
		c4-0.5,8-1,12-1.5l-1.3-10.8L238.2,319z"/>
	<polygon id="XMLID_11204_" class="st3" points="241.7,308.7 231.2,310 237.5,317.5 	"/>
	<path id="XMLID_11193_" class="st4" d="M237.1,319.1c0.1,0.2,0.4,0.3,0.6,0.2c0.2,0,0.4-0.2,0.5-0.4l4.5-9.2l-0.1-1.2l-0.8,0.1
		l-4.3,8.8l-6.3-7.5l-0.8,0.1l0.2,1.2L237.1,319.1z"/>
	<path id="XMLID_11187_" class="st3" d="M250.3,317.6c-0.1,0.2-0.3,0.3-0.5,0.4c-0.2,0-0.5-0.1-0.6-0.2l-6.5-7.9l1.3,10.8
		c4-0.5,8-0.9,12-1.3l-1.1-10.9C253.4,311.5,251.8,314.5,250.3,317.6z"/>
	<path id="XMLID_11181_" class="st3" d="M254,307.3c-3.5,0.4-7.1,0.7-10.6,1.2l6.2,7.6L254,307.3z"/>
	<path id="XMLID_11177_" class="st4" d="M249.2,317.7c0.1,0.2,0.4,0.3,0.6,0.2c0.2,0,0.4-0.2,0.5-0.4c1.5-3,3.1-6.1,4.6-9.1
		l-0.1-1.2l-0.8,0.1l-4.4,8.7l-6.2-7.6l-0.8,0.1l0.1,1.2L249.2,317.7z"/>
	<path id="XMLID_11172_" class="st3" d="M262.4,316.4c-0.1,0.2-0.3,0.3-0.5,0.4c-0.2,0-0.5-0.1-0.6-0.3c-2.1-2.7-4.2-5.4-6.3-8
		l1.1,10.9c4-0.4,8-0.8,12-1.1l-0.8-10.9C265.5,310.4,263.9,313.4,262.4,316.4z"/>
	<path id="XMLID_11164_" class="st3" d="M266.3,306.2c-3.6,0.3-7.1,0.6-10.7,0.9c2,2.6,4.1,5.1,6.1,7.7
		C263.2,312,264.7,309.1,266.3,306.2z"/>
	<path id="XMLID_11160_" class="st4" d="M261.2,316.5c0.1,0.2,0.4,0.3,0.6,0.3c0.2,0,0.4-0.2,0.5-0.4c1.6-3,3.2-6,4.8-9l-0.1-1.2
		l-0.8,0.1c-1.6,2.9-3.1,5.7-4.6,8.6c-2-2.6-4-5.1-6.1-7.7l-0.8,0.1l0.1,1.2C257,311.1,259.2,313.8,261.2,316.5z"/>
	<path id="XMLID_11156_" class="st3" d="M274.4,315.5c-0.1,0.2-0.3,0.3-0.5,0.3c-0.2,0-0.4-0.1-0.6-0.3c-2-2.7-4.1-5.5-6.1-8.2
		l0.8,10.9c4-0.3,8-0.6,12-0.8l-0.5-10.9C277.8,309.6,276.1,312.5,274.4,315.5z"/>
	<path id="XMLID_11152_" class="st3" d="M278.6,305.4c-3.6,0.2-7.2,0.4-10.7,0.7c2,2.6,3.9,5.2,5.9,7.8
		C275.4,311.1,277,308.2,278.6,305.4z"/>
	<path id="XMLID_11148_" class="st4" d="M273.3,315.6c0.1,0.2,0.4,0.3,0.6,0.3c0.2,0,0.4-0.1,0.5-0.3c1.6-3,3.3-5.9,5.1-8.9
		l-0.1-1.2l-0.8,0c-1.7,2.8-3.3,5.7-4.8,8.5c-1.9-2.6-3.9-5.2-5.9-7.8l-0.8,0.1l0.1,1.2C269.3,310.1,271.3,312.8,273.3,315.6z"/>
	<path id="XMLID_11139_" class="st3" d="M286.5,314.9c-0.1,0.2-0.3,0.3-0.6,0.3c-0.2,0-0.4-0.1-0.6-0.3c-1.9-2.8-3.9-5.6-5.9-8.3
		l0.5,10.9c4-0.2,8-0.3,12-0.4l-0.1-10.9C290,309.1,288.2,312,286.5,314.9z"/>
	<path id="XMLID_11135_" class="st3" d="M291,305c-3.6,0.1-7.2,0.2-10.8,0.3c1.9,2.7,3.8,5.3,5.6,8C287.6,310.5,289.3,307.8,291,305
		z"/>
	<path id="XMLID_11129_" class="st4" d="M285.4,315c0.1,0.2,0.3,0.3,0.6,0.3c0.2,0,0.4-0.1,0.6-0.3c1.7-2.9,3.5-5.8,5.4-8.7l0-1.3
		l-0.8,0c-1.8,2.8-3.5,5.5-5.1,8.3c-1.8-2.7-3.7-5.4-5.6-8l-0.8,0l0.1,1.2C281.5,309.4,283.5,312.2,285.4,315z"/>
	<path id="XMLID_11125_" class="st3" d="M298.6,314.8c-0.1,0.2-0.3,0.3-0.6,0.3c-0.2,0-0.4-0.1-0.6-0.3c-1.8-2.9-3.7-5.7-5.6-8.6
		l0.1,10.9c4,0,8,0,11.9,0.1l0.4-10.9C302.3,309.2,300.4,312,298.6,314.8z"/>
	<path id="XMLID_11121_" class="st3" d="M303.5,305.1c-3.6-0.1-7.2-0.1-10.8-0.1c1.8,2.7,3.6,5.5,5.3,8.2
		C299.8,310.5,301.6,307.8,303.5,305.1z"/>
	<path id="XMLID_11116_" class="st4" d="M297.4,314.8c0.1,0.2,0.3,0.3,0.6,0.3c0.2,0,0.4-0.1,0.6-0.3c1.9-2.8,3.8-5.7,5.7-8.5l0-1.3
		l-0.8,0c-1.9,2.7-3.7,5.4-5.5,8.1c-1.7-2.8-3.5-5.5-5.3-8.2l-0.8,0l0,1.3C293.8,309.1,295.6,311.9,297.4,314.8z"/>
	<path id="XMLID_11112_" class="st3" d="M310.5,315.3c-0.1,0.2-0.4,0.3-0.6,0.3c-0.2,0-0.4-0.1-0.5-0.3c-1.6-3-3.4-5.9-5.1-8.8
		l-0.4,10.9c4,0.1,7.9,0.4,11.8,0.7l1-10.9C314.6,309.8,312.5,312.5,310.5,315.3z"/>
	<path id="XMLID_11108_" class="st3" d="M316,305.8c-3.6-0.3-7.3-0.5-10.9-0.7c1.7,2.8,3.4,5.6,4.9,8.5C312,311,314,308.4,316,305.8
		z"/>
	<path id="XMLID_11104_" class="st4" d="M309.4,315.2c0.1,0.2,0.3,0.3,0.5,0.3c0.2,0,0.4-0.1,0.6-0.3c2-2.7,4.1-5.4,6.2-8.1l0.1-1.2
		l-0.8-0.1c-2.1,2.6-4,5.2-6,7.8c-1.6-2.8-3.2-5.7-4.9-8.5l-0.8,0l0,1.3C306.1,309.3,307.8,312.2,309.4,315.2z"/>
	<path id="XMLID_11100_" class="st3" d="M322.4,316.4c-0.1,0.2-0.4,0.3-0.6,0.2c-0.2,0-0.4-0.2-0.5-0.4c-1.4-3.1-2.9-6.1-4.6-9.1
		l-1,10.9c3.9,0.4,7.8,0.9,11.6,1.6l1.9-10.7C326.9,311.3,324.6,313.9,322.4,316.4z"/>
	<path id="XMLID_11096_" class="st3" d="M328.6,307.5c-3.6-0.6-7.3-1.1-10.9-1.5c1.5,2.9,3,5.8,4.4,8.8
		C324.2,312.3,326.3,309.8,328.6,307.5z"/>
	<path id="XMLID_11087_" class="st4" d="M321.3,316.3c0.1,0.2,0.3,0.4,0.5,0.4c0.2,0,0.4-0.1,0.6-0.2c2.2-2.6,4.4-5.1,6.8-7.6
		l0.2-1.2l-0.8-0.1c-2.3,2.4-4.5,4.8-6.6,7.3c-1.4-2.9-2.8-5.9-4.4-8.8l-0.8-0.1l-0.1,1.2C318.4,310.2,319.9,313.2,321.3,316.3z"/>
	<path id="XMLID_11083_" class="st3" d="M334,318.6c-0.2,0.2-0.4,0.2-0.6,0.2c-0.2-0.1-0.4-0.2-0.5-0.4c-1.1-3.2-2.3-6.4-3.7-9.5
		l-1.9,10.7c3.8,0.7,7.6,1.5,11.2,2.6l3.2-10.5C339,314,336.4,316.2,334,318.6z"/>
	<path id="XMLID_11079_" class="st3" d="M341.2,310.3c-3.6-1.1-7.3-1.9-10.9-2.6c1.3,3,2.5,6.1,3.6,9.1
		C336.2,314.6,338.6,312.4,341.2,310.3z"/>
	<path id="XMLID_11075_" class="st4" d="M333,318.3c0.1,0.2,0.3,0.4,0.5,0.4c0.2,0.1,0.4,0,0.6-0.2c2.4-2.4,4.9-4.7,7.6-6.8l0.4-1.2
		l-0.8-0.2c-2.6,2.1-5,4.3-7.3,6.6c-1.1-3.1-2.3-6.1-3.6-9.1l-0.8-0.2l-0.2,1.2C330.6,312,331.9,315.2,333,318.3z"/>
	<path id="XMLID_11071_" class="st3" d="M345.2,322.1c-0.2,0.1-0.4,0.2-0.6,0.1c-0.2-0.1-0.3-0.3-0.4-0.5c-0.6-3.3-1.5-6.6-2.5-9.9
		l-3.2,10.5c3.6,1.1,7.1,2.4,10.4,4.1l4.9-9.8C350.7,318.2,347.9,320.1,345.2,322.1z"/>
	<path id="XMLID_11060_" class="st3" d="M353.5,315c-3.5-1.7-7.1-3-10.7-4.2c1,3.2,1.8,6.4,2.4,9.5
		C347.8,318.4,350.6,316.6,353.5,315z"/>
	<path id="XMLID_11056_" class="st4" d="M344.2,321.7c0,0.2,0.2,0.4,0.4,0.5c0.2,0.1,0.4,0,0.6-0.1c2.7-2,5.5-3.9,8.6-5.6l0.6-1.1
		l-0.8-0.4c-2.9,1.6-5.7,3.4-8.3,5.4c-0.6-3.2-1.4-6.4-2.4-9.5l-0.8-0.3l-0.4,1.2C342.7,315.1,343.5,318.4,344.2,321.7z"/>
	<path id="XMLID_11052_" class="st3" d="M354.7,327.2c-0.2-0.1-0.3-0.3-0.3-0.5c0.1-3.3-0.2-6.7-0.7-10.2l-4.9,9.8
		c3.3,1.6,6.3,3.6,9.1,5.8l0.3-0.3c0.7-2.3,1.3-4.5,1.8-6.5c-1.6,0.6-3.2,1.3-4.7,2C355.2,327.4,354.9,327.4,354.7,327.2z"/>
	<path id="XMLID_11048_" class="st3" d="M355.8,325.6c1.5-0.7,3.1-1.4,4.7-2c0.4-1.7,0.8-3.1,1-4.1c-2.1-1.4-4.2-2.7-6.4-3.8
		C355.6,319.1,355.8,322.4,355.8,325.6z"/>
	<path id="XMLID_11040_" class="st4" d="M355.1,315.8l-0.8-0.4l-0.6,1.1c0.5,3.4,0.8,6.9,0.7,10.2c0,0.2,0.1,0.4,0.3,0.5
		c0.2,0.1,0.4,0.1,0.6,0c1.5-0.7,3.1-1.4,4.7-2c0.1-0.6,0.3-1.1,0.4-1.6c-1.6,0.6-3.2,1.3-4.7,2
		C355.8,322.4,355.6,319.1,355.1,315.8z"/>
	<path id="XMLID_11033_" class="st5" d="M-85.6,331.3c-0.5-0.3-1.1-0.1-1.4,0.4l-4.2,8.2c-1.5-0.5-3-0.6-4.5-0.2
		c-1.8,0.4-3.5,1.5-4.6,3.2c-1.1,1.7-1.3,3.7-0.7,5.6c0.6,1.9,2,3.7,4.1,4.8c4.2,2.2,8.9,0.5,10.4-3.2c1.4-3.4,0-7.2-2.8-9.2
		l4.2-8.2C-84.9,332.2-85.1,331.6-85.6,331.3z"/>
	<path id="XMLID_11025_" class="st5" d="M-67.9,348.6l2.3-8.9c0.1-0.5-0.2-1.1-0.7-1.2c-0.5-0.1-1.1,0.2-1.2,0.7l-2.3,8.9
		c-3.5-0.4-6.9,1.6-8.1,5.1c-1.3,3.8,1.2,8.1,5.5,9.2c4.3,1.1,8.4-1.5,9.2-5.4C-62.6,353.4-64.6,349.9-67.9,348.6z"/>
	<path id="XMLID_11019_" class="st5" d="M-45.1,352.4l1-9.2c0.1-0.6-0.3-1.1-0.9-1.1c-0.6-0.1-1.1,0.3-1.1,0.9l-1,9.2
		c-3.5,0.1-6.6,2.7-7.2,6.3c-0.6,4,2.4,7.7,6.7,8.2c4.3,0.5,7.9-2.6,8.2-6.6C-39.2,356.5-41.7,353.3-45.1,352.4z"/>
	<path id="XMLID_11010_" class="st5" d="M-21.9,353.7l0.1-9.2c0-0.6-0.4-1-1-1c-0.6,0-1,0.4-1,1l-0.1,9.2c-3.5,0.4-6.4,3.3-6.5,7
		c-0.2,4,3.1,7.4,7.3,7.5c4.2,0.1,7.6-3.2,7.5-7.3C-15.7,357.2-18.4,354.2-21.9,353.7z"/>
	<path id="XMLID_11004_" class="st5" d="M1.4,353.2L0.9,344c0-0.6-0.5-1-1.1-1c-0.6,0-1,0.5-1,1.1l0.4,9.2c-3.5,0.7-6.1,3.7-6,7.4
		c0.1,4,3.6,7.2,7.7,7c4.2-0.2,7.3-3.7,7-7.7C7.8,356.3,4.9,353.5,1.4,353.2z"/>
	<path id="XMLID_10996_" class="st5" d="M24.6,351.5l-0.8-9.2c-0.1-0.6-0.5-1-1.1-0.9c-0.6,0.1-1,0.5-0.9,1.1l0.8,9.2
		c-3.5,0.8-6,4-5.7,7.7c0.3,4,3.9,7,8,6.7c4.1-0.4,7.1-4,6.7-8C31.2,354.4,28.2,351.7,24.6,351.5z"/>
	<path id="XMLID_10990_" class="st5" d="M47.8,349l-1.1-9.1c-0.1-0.6-0.6-1-1.1-0.9c-0.6,0.1-1,0.6-0.9,1.1l1.1,9.1
		c-3.5,0.9-5.8,4.2-5.4,7.9c0.4,4,4.1,6.9,8.2,6.4c4.1-0.5,6.9-4.2,6.4-8.2C54.5,351.7,51.4,349,47.8,349z"/>
	<path id="XMLID_10981_" class="st5" d="M71,345.8l-1.3-9.1c-0.1-0.6-0.6-0.9-1.1-0.9c-0.6,0.1-0.9,0.6-0.9,1.1l1.3,9.1
		c-3.4,1-5.7,4.4-5.2,8c0.5,4,4.3,6.8,8.3,6.2c4-0.6,6.8-4.3,6.2-8.3C77.7,348.4,74.6,345.8,71,345.8z"/>
	<path id="XMLID_10977_" class="st5" d="M94.1,342.3l-1.5-9.1c-0.1-0.6-0.6-0.9-1.2-0.8c-0.6,0.1-0.9,0.6-0.8,1.2l1.5,9.1
		c-3.4,1-5.7,4.5-5.1,8.1c0.6,4,4.4,6.7,8.4,6.1c4-0.6,6.7-4.4,6.1-8.4C100.9,344.8,97.7,342.2,94.1,342.3z"/>
	<path id="XMLID_10969_" class="st5" d="M117.2,338.5l-1.5-9.1c-0.1-0.6-0.6-0.9-1.2-0.8c-0.6,0.1-0.9,0.6-0.8,1.2l1.5,9.1
		c-3.4,1.1-5.6,4.5-5,8.2c0.7,4,4.4,6.7,8.4,6c4-0.7,6.7-4.5,6-8.4C124,340.9,120.8,338.4,117.2,338.5z"/>
	<path id="XMLID_10961_" class="st5" d="M140.3,334.5l-1.6-9.1c-0.1-0.6-0.6-0.9-1.2-0.8c-0.6,0.1-0.9,0.6-0.8,1.2l1.6,9.1
		c-3.4,1.1-5.6,4.6-5,8.2c0.7,4,4.5,6.6,8.4,5.9c4-0.7,6.6-4.5,5.9-8.4C147.1,336.9,143.9,334.4,140.3,334.5z"/>
	<path id="XMLID_10956_" class="st5" d="M163.4,330.5l-1.6-9.1c-0.1-0.6-0.6-0.9-1.2-0.8c-0.6,0.1-0.9,0.6-0.8,1.2l1.6,9.1
		c-3.4,1.1-5.6,4.6-5,8.2c0.7,4,4.5,6.6,8.4,6c4-0.7,6.6-4.5,6-8.4C170.2,332.9,167,330.4,163.4,330.5z"/>
	<path id="XMLID_10950_" class="st5" d="M186.5,326.6l-1.5-9.1c-0.1-0.6-0.6-0.9-1.2-0.8c-0.6,0.1-0.9,0.6-0.8,1.2l1.5,9.1
		c-3.4,1.1-5.6,4.5-5,8.2c0.7,4,4.4,6.7,8.4,6c4-0.7,6.6-4.4,6-8.4C193.3,329.1,190.1,326.5,186.5,326.6z"/>
	<path id="XMLID_10946_" class="st5" d="M209.6,322.9l-1.4-9.1c-0.1-0.6-0.6-0.9-1.2-0.8c-0.6,0.1-0.9,0.6-0.9,1.2l1.4,9.1
		c-3.4,1-5.7,4.5-5.1,8.1c0.6,4,4.3,6.7,8.3,6.1c3.9-0.6,6.7-4.3,6.1-8.3C216.4,325.5,213.2,322.9,209.6,322.9z"/>
	<path id="XMLID_10942_" class="st5" d="M232.9,319.7l-1.2-9.1c-0.1-0.6-0.6-0.9-1.1-0.9c-0.6,0.1-0.9,0.6-0.9,1.1l1.2,9.1
		c-3.5,1-5.8,4.3-5.3,8c0.6,4,4.2,6.8,8.1,6.3c3.9-0.5,6.7-4.2,6.3-8.2C239.6,322.4,236.5,319.7,232.9,319.7z"/>
	<path id="XMLID_10938_" class="st5" d="M256.2,317l-0.9-9.2c-0.1-0.6-0.6-1-1.1-0.9c-0.6,0.1-1,0.6-0.9,1.1l0.9,9.2
		c-3.5,0.8-5.9,4.2-5.5,7.8c0.4,4,4,6.9,7.9,6.5c3.9-0.4,6.8-3.9,6.5-7.9C262.8,319.9,259.8,317.1,256.2,317z"/>
	<path id="XMLID_10934_" class="st5" d="M279.7,315.2l-0.5-9.2c0-0.6-0.5-1-1.1-1c-0.6,0-1,0.5-1,1.1l0.5,9.2
		c-3.5,0.7-6.1,3.9-5.8,7.6c0.3,4,3.7,7.1,7.6,6.9c3.9-0.2,6.9-3.6,6.8-7.6C286.1,318.5,283.3,315.6,279.7,315.2z"/>
	<path id="XMLID_10929_" class="st5" d="M303.2,315l0.2-9.2c0-0.6-0.4-1-1-1c-0.6,0-1,0.4-1,1l-0.2,9.2c-3.6,0.4-6.4,3.5-6.3,7.2
		c0,4,3.2,7.3,7,7.4c3.8,0.1,7.1-3,7.3-7C309.4,318.8,306.8,315.6,303.2,315z"/>
	<path id="XMLID_10921_" class="st5" d="M326.8,317.1l1.4-9.1c0.1-0.6-0.3-1.1-0.8-1.2c-0.6-0.1-1.1,0.3-1.2,0.8l-1.4,9.1
		c-3.7-0.1-6.7,2.7-7.1,6.4c-0.4,4,2.3,7.6,5.9,8.1c3.6,0.6,7.1-2,8-5.9C332.4,321.8,330.3,318.2,326.8,317.1z"/>
	<path id="XMLID_10917_" class="st5" d="M352.9,313.8c-0.5-0.2-1.1,0-1.3,0.5l-3.6,8.5c-1.6-0.4-3.3-0.2-4.7,0.4
		c-1.7,0.8-3,2.3-3.6,4.3c-1.2,3.9,0.6,7.8,3.6,9.1c1.5,0.6,3.2,0.5,4.8-0.1c1.6-0.7,3.1-1.9,4.1-3.6c1-1.7,1.2-3.7,0.7-5.5
		c-0.5-1.5-1.5-2.8-3-3.7l3.6-8.5C353.6,314.6,353.4,314,352.9,313.8z"/>
</g>
</svg>
