<?xml version="1.0" encoding="utf-8"?>
<!-- Generator: Adobe Illustrator 19.0.0, SVG Export Plug-In . SVG Version: 6.00 Build 0)  -->
<svg version="1.1" id="Layer_1" xmlns="http://www.w3.org/2000/svg" xmlns:xlink="http://www.w3.org/1999/xlink" x="0px" y="0px"
	 viewBox="0 0 416 348" enable-background="new 0 0 416 348" xml:space="preserve">
<g id="XMLID_11996_">
	<polygon id="XMLID_12004_" fill="#4D4D4D" points="107.0739,224 55.0896,224 35.7331,229.9416 31.8639,242.1846 41.2641,248.3053 
		120.6878,269.6065 185.052,273 233.1648,273 266.8983,269.7986 302.8438,266.5368 329.3921,259.9299 360.333,252.7543 378,241.708 
		378,231.2002 364.2315,224 343.769,224 300.6351,216.7355 181.1797,234.842 	"/>
	<path id="XMLID_12002_" fill="#666666" d="M87,218.4791v9.9563c0,0-49.9667-3.3178-49.9667,6.6355
		c0,9.9547,89.4945,34.2881,169.1298,34.2881c79.6331,0,169.4155-24.3333,169.4155-34.2881c0-9.9533-49.5786-6.6355-49.5786-6.6355
		v-9.9563c0,0,59.4864-9.9533,59.4864,19.911c0,29.8613-99.6676,39.8177-179.3008,39.8177
		c-79.6353,0-179.0458-9.9563-179.0458-39.8177C27.1398,208.5258,87,218.4791,87,218.4791z"/>
	<path id="XMLID_12000_" fill="#4D4D4D" d="M76.6582,238.3902c2.964-13.8378,5.8307-26.4956,8.611-38.0847
		c25.2044-105.134,43.1369-122.1753,61.0695-131.1423c19.9112-9.9549,29.8645,9.9539,59.7273,9.9539
		c29.8637,0,39.8169-19.9088,59.7265-9.9539c17.9326,8.967,35.8651,26.0083,61.0726,131.1439
		c2.7772,11.5889,5.644,24.2468,8.6096,38.0831c0,0-39.8193,9.9533-129.4087,9.9533
		C116.4759,248.3435,76.6582,238.3902,76.6582,238.3902z"/>
	<path id="XMLID_11998_" fill="#231F20" d="M326.8651,200.3071c2.7772,11.5889,5.644,24.2468,8.6096,38.0831
		c0,0-39.8193,9.9533-129.4087,9.9533c-89.5901,0-129.4077-9.9533-129.4077-9.9533c2.964-13.8378,5.8307-26.4956,8.611-38.0847
		l-0.2194-0.0386c15.9092,2.8405,54.9159,8.2589,121.0162,8.2589c65.8894,0,104.8591-5.3828,120.864-8.2326L326.8651,200.3071z"/>
</g>
</svg>
