<?xml version="1.0" encoding="utf-8"?>
<!-- Generator: Adobe Illustrator 19.0.0, SVG Export Plug-In . SVG Version: 6.00 Build 0)  -->
<svg version="1.1" id="Layer_1" xmlns="http://www.w3.org/2000/svg" xmlns:xlink="http://www.w3.org/1999/xlink" x="0px" y="0px"
	 viewBox="0 0 436 316.6667" enable-background="new 0 0 436 316.6667" xml:space="preserve">
<g id="XMLID_14664_">
	<path id="XMLID_14675_" fill="#E8E8E8" d="M217.2893,206.5191c-60.5402,0-108.5789,34.0515-120.0478,91.8484
		c3.5208-71.3902,54.0317-114.5904,120.0478-114.5904c66.0153,0,116.5255,43.1988,120.0466,114.5893
		C325.866,240.5694,277.828,206.5191,217.2893,206.5191z"/>
	<path id="XMLID_14674_" fill="#D8D6D4" d="M137.403,35.3029c22.5849,10.3408,34.0833,106.5946,43.4149,161.8494
		c0,5.499-19.6887,15.1626-28.2667,10.7258C124.1058,162.6375,68.4324,96.8916,33.0023,64.9592
		C26.4385,59.0431,111.3927,23.395,137.403,35.3029z"/>
	<path id="XMLID_14673_" fill="#FFBBBC" d="M159.2149,205.9403c-21.69-39.2393-40.2447-70.8034-74.6285-103.711l22.1015-44.0149
		c19.4711,10.7352,47.1885,100.554,59.0227,146.2711C163.9322,205.4963,161.9767,206.4688,159.2149,205.9403z"/>
	<path id="XMLID_14672_" fill="#FCA2A7" d="M98.6149,74.292l8.073-16.0775c19.4711,10.7352,55.7733,113.657,59.0227,146.2711
		C137.3413,117.4945,98.6149,74.292,98.6149,74.292z"/>
	<path id="XMLID_14671_" fill="#E8E8E8" d="M152.1791,56.6197C131.0667-9.3479,28.9349,54.498,18.5457,75.9322
		C9.0123,99.8226,1.4234,194.9961,56.8508,189.091C106.7299,183.7771,101.1246-24.5003,152.1791,56.6197z"/>
	<path id="XMLID_14670_" fill="#D8D6D4" d="M271.7548,93.6336c-8.8134,35.0519-12.5026,70.9946-17.9955,103.5187
		c0,5.499,19.6891,15.1626,28.2671,10.7258c28.445-45.2406,67.8683-75.4942,103.2983-107.4267
		C367.2334,86.3794,292.4735,41.7422,271.7548,93.6336z"/>
	<path id="XMLID_14669_" fill="#FFBBBC" d="M314.9752,73.9468c9.142,12.0571,17.6476,24.4851,29.8353,33.3735
		c-31.1038,31.0981-48.8787,61.4089-69.4482,98.6201c-2.7614,0.528-4.7166-0.444-6.4957-1.4547
		C278.2558,168.2133,297.6409,104.2193,314.9752,73.9468z"/>
	<path id="XMLID_14668_" fill="#FCA2A7" d="M312.696,77.7465c4.0579,3.7316,7.8512,7.7285,11.6297,11.7467
		c-13.6537,19.4923-36.7959,57.764-55.4591,114.9924C271.3827,179.2362,293.706,111.8744,312.696,77.7465z"/>
	<path id="XMLID_14667_" fill="#E8E8E8" d="M271.7548,93.6336c21.1124-65.9673,124.0182,0.5088,134.4075,21.9425
		c23.1807,57.1307,18.6334,139.3739-36.7939,133.4687C319.4892,243.731,322.8093,12.5136,271.7548,93.6336z"/>
	<path id="XMLID_14666_" fill="#F2F2F2" d="M111.63,34.7366c3.1698,7.2599-9.9528,7.5351-24.5052,52.3748
		c-3.9606,12.2043-7.9197,24.8701-16.489,34.508c-8.5696,9.6379-22.9665,15.4885-34.907,10.4131
		c-18.8825-8.0261-18.8522-40.2083-10.8443-56.1469c6.3836-12.7063,25.6968-23.7368,34.6549-29.4689
		C83.2127,31.2677,109.0541,28.836,111.63,34.7366z"/>
	<path id="XMLID_14665_" fill="#F2F2F2" d="M315.6944,80.7085c-3.1695,7.2599,8.9614,7.8595,24.5052,52.3748
		c21.5454,61.7027,31.2499,89.4194,53.4086,75.6736c17.4027-10.795,16.8395-70.9609,8.8316-86.8995
		c-6.3836-12.7063-25.6968-23.7368-34.6545-29.4689C344.1117,77.2396,318.2703,74.8079,315.6944,80.7085z"/>
</g>
</svg>
