<?xml version="1.0" encoding="utf-8"?>
<!-- Generator: Adobe Illustrator 19.0.0, SVG Export Plug-In . SVG Version: 6.00 Build 0)  -->
<svg version="1.1" id="Layer_1" xmlns="http://www.w3.org/2000/svg" xmlns:xlink="http://www.w3.org/1999/xlink" x="0px" y="0px"
	 viewBox="0 0 565.3333 348" enable-background="new 0 0 565.3333 348" xml:space="preserve">
<g id="XMLID_10809_">
	<g id="XMLID_10886_">
		<path id="XMLID_10907_" fill="#F9ED32" d="M387.0903,134.5255c0,0,4.5977-116.9353-77.3206-116.9353
			c-66.207,0-104.7486,183.1423-104.7486,183.1423l99.3105,82.7587c0,0-33.1035-182.0692,16.5517-198.6209
			S387.0903,134.5255,387.0903,134.5255z"/>
		<path id="XMLID_10900_" fill="#F9ED32" d="M309.1412,284.4789c6.3505,0,12.4138,1.4404,17.8896,3.9871
			c-1.4654-10.8118-3.4823-23.4196-6.1475-38.0784C287.7798,68.3185,337.4351,67.9351,337.4351,67.9351L320.8833,51h-33.1035
			l-33.4465,66.9737v148.9657l27.5008,27.3277C289.2948,288.1716,298.9364,284.4789,309.1412,284.4789z"/>
		<path id="XMLID_10896_" fill="#662D91" d="M387.0903,134.5255c0,0-16.5518-115.8613-82.7587-115.8613
			S188.4694,200.7325,188.4694,200.7325l99.3105,82.7587c0,0-33.1035-182.0692,16.5518-198.6209
			S387.0903,134.5255,387.0903,134.5255z"/>
		<circle id="XMLID_10890_" fill="#FBB03B" cx="387.0903" cy="131.4509" r="16.5517"/>
	</g>
	<g id="XMLID_10840_">
		<path id="XMLID_10880_" fill="none" d="M277.8768,252.9093"/>
		<path id="XMLID_10875_" fill="#662D91" d="M244.3333,286V153.5988c0,0-115.6422-66.207-165.2975-33.1035
			S29.4906,236.3575,29.4906,236.3575s16.6067-66.2133,82.8137-66.2133S145.4628,286,145.4628,286H244.3333z"/>
		<circle id="XMLID_10871_" fill="#FBB03B" cx="29.6006" cy="236.3575" r="16.5517"/>
		<path id="XMLID_10867_" fill="#FCEE21" d="M310.3333,286V153.5988c0,0,116.1857-66.207,165.8409-33.1035
			s49.817,115.8622,49.817,115.8622s-16.4709-66.2133-82.6779-66.2133S410.2907,286,410.2907,286H310.3333z"/>
		<circle id="XMLID_10865_" fill="#FBB03B" cx="526.153" cy="236.3575" r="16.5517"/>
		<circle id="XMLID_10861_" fill="#FBB03B" cx="62.7041" cy="219.8058" r="16.5517"/>
		<path id="XMLID_10857_" fill="#FF1D25" d="M277.3333,269V137.047c0,0,116.1339-66.207,165.7892-33.1035
			s49.7911,115.8622,49.7911,115.8622s-16.4838-66.4375-82.6908-66.4375S369.8309,269,369.8309,269H277.3333z"/>
		<circle id="XMLID_10853_" fill="#FBB03B" cx="493.0494" cy="219.8058" r="16.5517"/>
		<path id="XMLID_10848_" fill="#7AC943" d="M277.8768,269c0,0,20.6897-83.9075,0-132.1835c0,0-115.8622-66.0917-165.5175-32.9883
			S62.7041,219.7481,62.7041,219.7481s16.5517-66.4087,82.7587-66.4087S185.9226,269,185.9226,269H277.8768z"/>
		<path id="XMLID_10842_" fill="#0071BC" d="M393.739,267.6219c0,0,0-47.8162-16.5518-64.3679
			c0,33.1035-33.1035,55.1725-33.1035,55.1725s-16.5518-55.1725-33.1035-71.7242c0,33.1035-33.1035,66.207-33.1035,66.207
			s-33.1035-33.1035-33.1035-66.207c-33.1035,16.5517-33.1035,71.7242-33.1035,71.7242s-33.1035-22.069-33.1035-55.1725
			c-16.5517,16.5517-16.5517,64.3679-16.5517,64.3679c-16.5517-16.5518-33.1682-31.2644-33.1682-31.2644
			s16.487,33.1035,16.487,49.6552v33.1c0,0,33.1877-16.5517,132.5-16.5517c99.3105,0,132.5,16.5517,132.5,16.5517v-33.1
			c0-16.5517,33.0822-49.6552,33.0822-49.6552S410.2907,251.0702,393.739,267.6219z"/>
	</g>
	<g id="XMLID_10813_">
		<path id="XMLID_10832_" fill="#F9ED32" d="M309.7697,17.5901c-23.7249,0-43.8956,19.8411-60.0162,50.0243
			c2.5916,1.3183,5.158,2.6832,7.6563,4.1523c8.9207,5.2406,17.5754,10.9986,26.787,15.7293
			c1.1621,0.5962,2.3222,1.1961,3.4931,1.778c1.1136,0.4237,2.3995,0.8907,3.1916,1.1099c0.5586,0.1545,1.171,3.9619,1.7744,4.0697
			c0.1815-0.0072,0.3647-0.0037,0.5479-0.0144c4.7755-0.1114,15.2226,9.9461,19.5474,11.4224c0,0,2.4444-19.0948,8.1322-20.9915
			c49.6552-16.5517,66.207,49.6552,66.207,49.6552S391.688,17.5901,309.7697,17.5901z"/>
		<path id="XMLID_10830_" fill="#662D91" d="M304.3316,18.6642c-22.7013,0-43.4573,21.4073-60.9323,49.543
			c4.7899,2.2091,9.49,4.5797,14.0105,7.2377c8.9207,5.2407,17.5754,10.9986,26.787,15.7293
			c1.1621,0.5962,2.3222,1.1961,3.4931,1.778c1.1136,0.4237,2.3995,0.8907,3.1916,1.1099c0.3358,0.0934,0.704,0.1617,1.065,0.2334
			c3.3997-4.5221,7.4838-7.7909,12.3851-9.4253c49.6552-16.5517,82.7587,49.6552,82.7587,49.6552S370.5385,18.6642,304.3316,18.6642
			z"/>
		<circle id="XMLID_10817_" fill="#FBB03B" cx="387.0903" cy="131.4509" r="16.5517"/>
	</g>
</g>
</svg>
