<?xml version="1.0" encoding="utf-8"?>
<!-- Generator: Adobe Illustrator 19.0.0, SVG Export Plug-In . SVG Version: 6.00 Build 0)  -->
<svg version="1.1" id="Layer_1" xmlns="http://www.w3.org/2000/svg" xmlns:xlink="http://www.w3.org/1999/xlink" x="0px" y="0px"
	 viewBox="-233 119 492 323" enable-background="new -233 119 492 323" xml:space="preserve">
<g id="XMLID_11305_">
	<g id="XMLID_11316_">
		<path id="XMLID_10682_" fill="#F4B11C" d="M215.6665,351.2053c-32.8-14.6-63.5-28.3-99-49.3c1-19,17-45.7,19.6-79.7
			c2.2-29.3-42.9-66.8-60-75.1c-16.6-9.2-71.5-23.9-94.3-5.3c-26.4,21.6-38.8,50.2-53.8,61.9c-37-16.8-68.7-34.8-99.4-53.3
			c-60.8-36.7-100.4,43.6,152,178.2l0,0c0.3,0.1,0.5,0.3,0.8,0.4s0.5,0.3,0.8,0.4l0,0
			C237.1665,459.3052,280.6665,380.2053,215.6665,351.2053z"/>
	</g>
	<g id="XMLID_11312_">
		<path id="XMLID_10680_" fill="#F4950C" d="M238.0665,367.9052c16.4,52.7-130.3-13.4-240-70.7c-141.2-73.8-243.4-146.2-195.5-155.7
			c-39.4-1.8-34.3,74.1,178.1,187.3l0,0c0.3,0.1,0.5,0.3,0.8,0.4s0.5,0.3,0.8,0.4l0,0
			C196.2665,438.8052,261.8665,399.1053,238.0665,367.9052z"/>
	</g>
	<g id="XMLID_11307_">
		<path id="XMLID_10678_" fill="#E74318" d="M118.0665,292.2053c-26.6-6.8-64.7-18.7-98.2-36.2c-32.6-17-64.3-41.2-85.2-59
			c-10,10.6-14.1,16.3-20.7,23c23.6,19.6,57.6,44.2,92.2,62.2c35.1,18.3,74.6,32,104.4,40.1
			C112.6665,313.6053,115.8665,302.4052,118.0665,292.2053z"/>
	</g>
</g>
</svg>
