<?xml version="1.0" encoding="utf-8"?>
<!-- Generator: Adobe Illustrator 19.0.0, SVG Export Plug-In . SVG Version: 6.00 Build 0)  -->
<svg version="1.1" id="Layer_1" xmlns="http://www.w3.org/2000/svg" xmlns:xlink="http://www.w3.org/1999/xlink" x="0px" y="0px"
	 viewBox="0 0 335.3333 285.3333" enable-background="new 0 0 335.3333 285.3333" xml:space="preserve">
<g id="XMLID_11524_">
	<g id="XMLID_11539_">
		<path id="XMLID_10778_" fill-rule="evenodd" clip-rule="evenodd" d="M296.6008,134.0639c0,0-25.6243,29.7099-28.3653,30.4179
			c0,0-0.0495-0.0529-0.1428-0.1542c-0.0736-0.705-0.2503-1.3829-0.535-2.0325L220.8602,19.2488
			C208.6583-8.5924-5.2448,85.1545,6.9571,112.9957l74.2024,130.9919c0.2845,0.6491,0.664,1.2387,1.1325,1.7706
			c0.0106,0.1374,0.0169,0.2093,0.0169,0.2093c-2.379,1.5359-41.5913,0.2418-41.5913,0.2418
			c-35.9907-2.6133-10.5909,16.8291-10.5909,16.8291c5.343,3.8277,16.8089,10.0073,29.187,12.6263
			c25.1832,5.661,76.9887-2.0436,134.8254-27.3916c57.8362-25.3478,100.9594-60.0871,111.5168-80.5724
			c6.4322-10.9417,9.6907-23.4959,10.4971-30.0186C316.1531,137.6821,319.0711,105.829,296.6008,134.0639z"/>
	</g>
	<g id="XMLID_11535_">
		<path id="XMLID_10776_" fill-rule="evenodd" clip-rule="evenodd" fill="#8E1921" d="M172.3491,196.6437
			c-38.9494,17.0703-76.6224,22.8074-103.8121,25.1808l17.4502,31.6677c26.7701-2.8087,63.0495-8.4865,100.3859-24.8498
			c36.7124-16.0899,66.0315-39.2932,86.3214-56.9036l-11.8995-34.0156C240.5771,155.853,210.5695,179.8929,172.3491,196.6437z"/>
	</g>
	<g id="XMLID_11531_">
		<path id="XMLID_10774_" fill-rule="evenodd" clip-rule="evenodd" fill="#1A1A1A" d="M221.3036,19.4743l-0.1203-0.3671
			c-6.095-13.9069-62.5168,2.5239-115.9462,25.9243c-2.7215,1.1937-5.4133,2.394-8.0702,3.5986
			c-0.1601,0.0724-0.3188,0.1452-0.479,0.2181c-0.6063,0.2752-1.2114,0.5514-1.8143,0.8275
			C45.868,72.1364,2.4319,99.2871,7.138,112.4671c11.0714,5.6336,59.3113-7.4295,114.0894-31.437
			C174.4828,57.6901,215.9508,31.8803,221.3036,19.4743z"/>
	</g>
	<g id="XMLID_11527_">
		<path id="XMLID_10772_" fill-rule="evenodd" clip-rule="evenodd" fill="#1A1A1A" d="M302.7002,135.3831
			c-3.4189,8.1693-5.3437,13.6449-19.2911,33.4312c-21.1418,29.9928-52.6894,53.2235-91.0621,70.041
			c-0.3912,0.1714-3.5275,1.546-3.9187,1.7174c-38.3733,16.8178-76.836,24.2703-113.218,19.4884
			c-24.0023-3.1541-29.3321-5.4503-37.6564-8.4729c-28.9537-10.5144-13.8832,8.9841-6.3072,13.8584
			c5.608,3.6078,14.0425,8.2419,26.4476,10.9279c22.2184,6.1207,76.9878-2.0432,134.8248-27.3913
			c0.542-0.2375,2.6982-1.1825,3.2398-1.4199c57.8362-25.3478,100.9588-60.0868,111.5168-80.5724
			c6.4322-10.9417,8.7417-20.2847,9.8891-26.8531C318.7155,131.2637,314.5918,106.9675,302.7002,135.3831z"/>
	</g>
</g>
</svg>
