<?xml version="1.0" encoding="utf-8"?>
<!-- Generator: Adobe Illustrator 19.0.0, SVG Export Plug-In . SVG Version: 6.00 Build 0)  -->
<svg version="1.1" id="Layer_1" xmlns="http://www.w3.org/2000/svg" xmlns:xlink="http://www.w3.org/1999/xlink" x="0px" y="0px"
	 viewBox="150 58 595 364" style="enable-background:new 150 58 595 364;" xml:space="preserve">
<style type="text/css">
	.st0{fill:#F9ED32;}
	.st1{fill:#662D91;}
	.st2{fill:#FBB03B;}
	.st3{fill:none;}
	.st4{fill:#FCEE21;}
	.st5{fill:#FF1D25;}
	.st6{fill:#7AC943;}
	.st7{fill:#0071BC;}
</style>
<g id="XMLID_10809_">
	<g id="XMLID_10886_">
		<path id="XMLID_10907_" class="st0" d="M558.3,202.7c0,0,4.6-116.9-77.3-116.9c-66.2,0-104.7,183.1-104.7,183.1l99.3,82.8
			c0,0-33.1-182.1,16.6-198.6S558.3,202.7,558.3,202.7z"/>
		<path id="XMLID_10900_" class="st0" d="M480.4,352.6c6.4,0,12.4,1.4,17.9,4c-1.5-10.8-3.5-23.4-6.1-38.1
			c-33.1-182.1,16.6-182.1,16.6-182.1l-16.6-16.6H459l-33.1,66.2v149l27.3,27.3C460.7,356.3,470.2,352.6,480.4,352.6z"/>
		<path id="XMLID_10896_" class="st1" d="M558.3,202.7c0,0-16.6-115.9-82.8-115.9S359.7,268.9,359.7,268.9l99.3,82.8
			c0,0-33.1-182.1,16.6-198.6S558.3,202.7,558.3,202.7z"/>
		<circle id="XMLID_10890_" class="st2" cx="558.3" cy="199.6" r="16.6"/>
	</g>
	<g id="XMLID_10840_">
		<path id="XMLID_10880_" class="st3" d="M449.1,321.1"/>
		<path id="XMLID_10875_" class="st1" d="M416,354.2V221.7c0,0-115.9-66.2-165.5-33.1s-49.7,115.9-49.7,115.9s16.6-66.2,82.8-66.2
			s33.1,115.9,33.1,115.9H416z"/>
		<circle id="XMLID_10871_" class="st2" cx="200.8" cy="304.5" r="16.6"/>
		<path id="XMLID_10867_" class="st4" d="M482.2,354.2V221.7c0,0,115.9-66.2,165.5-33.1c49.7,33.1,49.7,115.9,49.7,115.9
			s-16.6-66.2-82.8-66.2s-33.1,115.9-33.1,115.9H482.2z"/>
		<circle id="XMLID_10865_" class="st2" cx="697.4" cy="304.5" r="16.6"/>
		<circle id="XMLID_10861_" class="st2" cx="233.9" cy="288" r="16.6"/>
		<path id="XMLID_10857_" class="st5" d="M449.1,337.6V205.2c0,0,115.9-66.2,165.5-33.1c49.7,33.1,49.7,115.9,49.7,115.9
			s-16.6-66.2-82.8-66.2s-40.5,115.9-40.5,115.9H449.1z"/>
		<circle id="XMLID_10853_" class="st2" cx="664.3" cy="288" r="16.6"/>
		<path id="XMLID_10848_" class="st6" d="M449.1,337.6c0,0,20.7-84.1,0-132.4c0,0-115.9-66.2-165.5-33.1S233.9,288,233.9,288
			s16.6-66.2,82.8-66.2s40.5,115.9,40.5,115.9H449.1z"/>
		<path id="XMLID_10842_" class="st7" d="M565,335.8c0,0,0-47.8-16.6-64.4c0,33.1-33.1,55.2-33.1,55.2s-16.6-55.2-33.1-71.7
			c0,33.1-33.1,66.2-33.1,66.2S416,288,416,254.9c-33.1,16.6-33.1,71.7-33.1,71.7s-33.1-22.1-33.1-55.2
			c-16.6,16.6-16.6,64.4-16.6,64.4c-16.6-16.6-33.1-31.3-33.1-31.3s16.6,33.1,16.6,49.7v33.1c0,0,33.1-16.6,132.4-16.6
			c99.3,0,132.4,16.6,132.4,16.6v-33.1c0-16.6,33.1-49.7,33.1-49.7S581.5,319.2,565,335.8z"/>
	</g>
	<g id="XMLID_10813_">
		<path id="XMLID_10832_" class="st0" d="M481,85.7c-23.7,0-43.9,19.8-60,50c2.6,1.3,5.2,2.7,7.7,4.2c8.9,5.2,17.6,11,26.8,15.7
			c1.2,0.6,2.3,1.2,3.5,1.8c1.1,0.4,2.4,0.9,3.2,1.1c0.6,0.2,1.2,4,1.8,4.1c0.2,0,0.4,0,0.5,0c4.8-0.1,15.2,9.9,19.5,11.4
			c0,0,2.4-19.1,8.1-21c49.7-16.6,66.2,49.7,66.2,49.7S562.9,85.7,481,85.7z"/>
		<path id="XMLID_10830_" class="st1" d="M475.6,86.8c-22.7,0-43.5,21.4-60.9,49.5c4.8,2.2,9.5,4.6,14,7.2
			c8.9,5.2,17.6,11,26.8,15.7c1.2,0.6,2.3,1.2,3.5,1.8c1.1,0.4,2.4,0.9,3.2,1.1c0.3,0.1,0.7,0.2,1.1,0.2c3.4-4.5,7.5-7.8,12.4-9.4
			c49.7-16.6,82.8,49.7,82.8,49.7S541.8,86.8,475.6,86.8z"/>
		<circle id="XMLID_10817_" class="st2" cx="558.3" cy="199.6" r="16.6"/>
	</g>
</g>
</svg>
