<?xml version="1.0" encoding="utf-8"?>
<!-- Generator: Adobe Illustrator 19.0.0, SVG Export Plug-In . SVG Version: 6.00 Build 0)  -->
<svg version="1.1" id="Layer_1" xmlns="http://www.w3.org/2000/svg" xmlns:xlink="http://www.w3.org/1999/xlink" x="0px" y="0px"
	 viewBox="0 0 497.3333 285.3333" enable-background="new 0 0 497.3333 285.3333" xml:space="preserve">
<g id="XMLID_10911_">
	<path id="XMLID_11620_" fill="#BA6520" d="M479.9729,176.6138c0-13.444-231.245-24.3425-231.245-24.3425
		s-231.245,10.8985-231.245,24.3425l31.7767,31.911l46.6555,13.3915l183.241-13.3915l121.0301-3.5124L479.9729,176.6138z"/>
	<path id="XMLID_11618_" fill="#7AC943" d="M482.676,176.6667c0.003-1-0.1977-1.3949-0.4851-1.9247
		c-0.5776-1.0534-1.3591-1.6844-2.1994-2.2419c-1.6433-1.0426-3.7626-1.8432-6.5026-2.6541
		c-5.1187-1.4935-12.3598-2.8901-21.2287-4.2353c-30.9935-4.6972-81.7823-8.6945-124.9007-11.5336
		c-43.1061-2.8357-78.4954-4.5047-78.5048-4.5063l-0.1267-0.005l-0.1267,0.0044c-0.0154,0.0016-57.8413,2.726-115.7028,7.1358
		c-28.9331,2.2042-57.8692,4.8284-79.6447,7.7522c-10.8953,1.4657-19.9868,2.998-26.494,4.626
		c-3.2607,0.8217-5.8647,1.6496-7.8573,2.6057c-1.0009,0.4879-1.8597,0.9977-2.6197,1.7082c-0.3767,0.36-0.7336,0.8065-1.021,1.344
		c-0.2856,0.5298-0.4865,0.9247-0.4849,1.9247h5.4091h-1.3561l1.2063,0.6442c0.0633-0.1143,0.1529-0.6442,0.1498-0.6442h-1.3561
		l1.2063,0.6178l-0.5714-0.3191l0.5096,0.3965l0.0618-0.1006l-0.5714-0.1518l0.5096,0.5572h0.0016
		c0.0308,0,0.3723-0.4894,0.9684-0.7952c1.1584-0.6132,3.2174-1.431,5.9111-2.146c5.0693-1.3593,12.4262-2.7575,21.326-4.0565
		c31.1882-4.5612,81.4147-8.5053,123.7733-11.2764c21.1838-1.3839,40.4138-2.4948,54.3429-3.2486
		c6.9661-0.3753,12.6068-0.6722,16.5037-0.8683c3.9002-0.1947,6.0471-0.299,6.0533-0.3006l-0.1267-2.7027l-0.1267,2.7008
		c0.0032,0.0016,0.899,0.0445,2.5918,0.1264c12.684,0.6225,69.8336,3.5246,123.7671,7.8432
		c26.962,2.1593,53.1304,4.6738,72.4778,7.4231c9.6659,1.3716,17.6422,2.8112,23.0574,4.2538
		c2.6969,0.7137,4.7635,1.4488,5.9497,2.0636c0.5931,0.2981,0.9483,0.5776,1.0195,0.658l0.0185,0.0169l0.2532-0.2192l-0.2811,0.1822
		l0.0278,0.037l0.2532-0.2192l-0.2811,0.2087l1.0812-0.681h-1.2696c-0.0032,0,0.1327,0.6319,0.1884,0.7075l1.0812-0.7075h-1.2696
		H482.676z"/>
	<path id="XMLID_11616_" fill="#E58A38" d="M467.8017,213.1261c-9.3107,13.4826-26.1652,33.4957-60.8533,36.5138
		c-83.6205,7.2704-232.8173,7.2704-316.4424,0c-34.6897-3.0181-52.0677-10.5108-60.8549-24.3425
		c-6.7266-10.588-12.1683-48.6836-12.1683-48.6836l37.4189,32.3142l77.527,0.142l254.8971-38.6792l92.6469,6.223
		C479.9729,176.6138,473.2694,205.2085,467.8017,213.1261z"/>
	<path id="XMLID_11614_" fill="#E58A38" d="M358.2632,212.6667c0,0-30.6629-14.8299-36.5108-24.1114
		c-24.7101-39.209-24.3425-170.2767-73.0245-170.2767c-48.6836,0-48.3159,131.0102-73.0246,170.2193
		c-5.8508,9.2814-36.5138,24.1688-36.5138,24.1688H358.2632z"/>
	<path id="XMLID_11612_" fill="#7AC943" d="M15.7222,178.6682c10.0504,8.6125,22.8921,14.3691,37.7571,17.9865
		c14.8743,3.6174,31.7998,5.1065,50.1726,5.1079c46.9721-0.0078,103.4713-9.7463,158.8136-19.4446
		c55.3237-9.7077,109.5074-19.3722,151.4056-19.3629c14.1823-0.0016,26.9437,1.1075,37.8175,3.6436
		c10.88,2.5346,19.8386,6.4919,26.5513,12.0925c1.1493,0.9561,2.8544,0.8016,3.8089-0.3459
		c0.9577-1.1476,0.8032-2.8528-0.3461-3.8075c-7.5807-6.3143-17.3518-10.5385-28.7847-13.2061
		c-11.4453-2.6674-24.5834-3.7843-39.0469-3.7857c-42.689,0.0078-97.0026,9.7463-152.3387,19.4446
		c-55.3143,9.7031-111.6359,19.369-157.8806,19.3628c-18.0793,0-34.6063-1.4766-48.8921-4.955
		c-14.2919-3.4753-26.3072-8.9401-35.5176-16.8374c-1.1351-0.973-2.8419-0.8418-3.8135,0.2934
		C14.4572,175.9882,14.5869,177.695,15.7222,178.6682z"/>
	<path id="XMLID_11610_" fill="#FF1D25" d="M27.1644,188.9503c-2.2504,1.225-4.6137,2.3215-7.0371,3.3457
		c0.3552,1.8844,0.7429,3.8505,1.1584,5.8554c0.1221,0.0726,0.241,0.1529,0.3646,0.2224L27.1644,188.9503z"/>
	<path id="XMLID_11608_" fill="#FF1D25" d="M19.2963,181.9287c-0.1806,1.058-0.3258,2.13-0.4541,3.2112
		c0.2997,1.7561,0.6426,3.7007,1.0271,5.7812c2.5161-1.0363,4.9612-2.1686,7.2904-3.4288
		C24.3811,185.8258,21.7429,183.9738,19.2963,181.9287z"/>
	<path id="XMLID_11605_" fill="#FCEE21" d="M27.7961,187.8707l-0.6363-0.3783c-2.3293,1.2603-4.7744,2.3926-7.2904,3.4288
		c0.0835,0.4527,0.1699,0.9129,0.258,1.3748c2.4234-1.0241,4.7867-2.1207,7.0371-3.3457L27.7961,187.8707z"/>
	<path id="XMLID_11603_" fill="#FCEE21" d="M18.7388,181.4591l-0.4278,0.4989c0.1575,0.9623,0.3352,2.0282,0.5313,3.182
		c0.1283-1.0812,0.2735-2.1533,0.4541-3.2112L18.7388,181.4591z"/>
	<path id="XMLID_11601_" fill="#FF1D25" d="M29.001,199.625c-0.2025,0.1174-0.4541,0.1235-0.6719,0.0169
		c-0.2178-0.105-0.3677-0.3089-0.3986-0.539c-0.4587-3.4197-0.7212-6.8131-0.7661-10.1526l-5.5141,9.4235
		c3.795,2.2197,7.7352,4.1132,11.7434,5.7398l4.0993-10.1232C34.7961,195.9859,31.9711,197.8719,29.001,199.625z"/>
	<path id="XMLID_11599_" fill="#FF1D25" d="M37.2644,192.5446c-3.0491-1.265-6.0038-2.6921-8.8258-4.3032
		c0.0525,3.1834,0.3043,6.4147,0.7337,9.6691C31.9958,196.2377,34.6911,194.4397,37.2644,192.5446z"/>
	<path id="XMLID_11597_" fill="#FCEE21" d="M28.3291,199.6419c0.2178,0.1066,0.4694,0.1004,0.6719-0.0169
		c2.9702-1.7531,5.7952-3.6391,8.492-5.6346l0.4696-1.1586l-0.6981-0.2872c-2.5733,1.8951-5.2686,3.6931-8.092,5.3659
		c-0.4294-3.2544-0.6812-6.4857-0.7337-9.6691l-0.6426-0.3707l-0.6317,1.0796c0.0449,3.3395,0.3075,6.7329,0.7661,10.1526
		C27.9613,199.333,28.1113,199.5369,28.3291,199.6419z"/>
	<path id="XMLID_11593_" fill="#FF1D25" d="M40.7645,204.325c-0.1838,0.1422-0.4326,0.1839-0.6581,0.1098
		c-0.2285-0.0772-0.4-0.2626-0.4603-0.4881c-0.8773-3.3224-1.6031-6.6478-2.1531-9.9563l-4.0993,10.1232
		c4.0098,1.6248,8.0936,2.9794,12.2037,4.1256l2.9332-10.5172C46.0576,199.9987,43.4721,202.2075,40.7645,204.325z"/>
	<path id="XMLID_11589_" fill="#FF1D25" d="M48.1305,196.3072c-3.2236-0.9189-6.3899-1.9786-9.4668-3.1957
		c0.5314,3.154,1.225,6.325,2.0574,9.496C43.2991,200.5857,45.7642,198.4804,48.1305,196.3072z"/>
	<path id="XMLID_11583_" fill="#FCEE21" d="M39.6461,203.9467c0.0603,0.2255,0.2317,0.4109,0.4603,0.4881
		c0.2255,0.0742,0.4743,0.0324,0.6581-0.1098c2.7076-2.1175,5.2931-4.3263,7.766-6.6031l0.3367-1.2047l-0.7367-0.2101
		c-2.3663,2.1732-4.8315,4.2785-7.4094,6.3003c-0.8324-3.1711-1.526-6.3421-2.0574-9.496l-0.7011-0.2796l-0.4696,1.1586
		C38.0429,197.2989,38.7687,200.6243,39.6461,203.9467z"/>
	<path id="XMLID_11578_" fill="#FF1D25" d="M52.8785,207.6584c-0.1667,0.1605-0.4077,0.2254-0.6395,0.1729
		c-0.2316-0.0539-0.4201-0.2162-0.5004-0.4354c-1.1938-3.216-2.2689-6.4425-3.2081-9.6738l-2.9332,10.5172
		c4.1117,1.1491,8.2543,2.0867,12.4061,2.8604l2.0033-10.7348C57.7239,202.8516,55.3545,205.2827,52.8785,207.6584z"/>
	<path id="XMLID_11574_" fill="#FF1D25" d="M59.4769,198.9901c-3.3332-0.6395-6.6293-1.3871-9.8714-2.2704
		c0.9036,3.0814,1.9307,6.1627,3.0645,9.2349C55.0286,203.6826,57.293,201.3594,59.4769,198.9901z"/>
	<path id="XMLID_11570_" fill="#FCEE21" d="M51.7386,207.3958c0.0803,0.2192,0.2689,0.3815,0.5004,0.4354
		c0.2317,0.0525,0.4728-0.0123,0.6395-0.1729c2.4761-2.3756,4.8454-4.8068,7.1283-7.2936l0.2301-1.231l-0.76-0.1436
		c-2.1839,2.3693-4.4484,4.6924-6.8069,6.9645c-1.1337-3.0722-2.1609-6.1536-3.0645-9.2349l-0.7383-0.2025l-0.3367,1.2047
		C49.4697,200.9533,50.5448,204.1798,51.7386,207.3958z"/>
	<path id="XMLID_11564_" fill="#FF1D25" d="M65.1595,209.9165c-0.1529,0.1714-0.3877,0.2548-0.621,0.2208
		c-0.2331-0.0354-0.4324-0.1838-0.5297-0.3938c-1.4319-3.1138-2.7695-6.2401-4.0021-9.3787l-2.0033,10.7348
		c4.1518,0.7723,8.3144,1.3855,12.4786,1.872l1.2636-10.846C69.6264,204.756,67.4361,207.3556,65.1595,209.9165z"/>
	<path id="XMLID_11560_" fill="#FF1D25" d="M71.1138,200.7896c-3.3964-0.4093-6.7729-0.9082-10.1154-1.5152
		c1.1816,2.9996,2.4622,5.9853,3.8244,8.957C66.9929,205.7863,69.0874,203.3056,71.1138,200.7896z"/>
	<path id="XMLID_11556_" fill="#FCEE21" d="M64.0089,209.7434c0.0973,0.21,0.2965,0.3584,0.5297,0.3938
		c0.2333,0.034,0.468-0.0493,0.621-0.2208c2.2766-2.5609,4.4669-5.1604,6.5861-7.7909l0.1436-1.2418l-0.7755-0.0943
		c-2.0264,2.5161-4.1208,4.9967-6.291,7.4418c-1.3623-2.9718-2.6428-5.9574-3.8244-8.957l-0.7614-0.1406l-0.2301,1.231
		C61.2394,203.5034,62.577,206.6297,64.0089,209.7434z"/>
	<path id="XMLID_11549_" fill="#FF1D25" d="M77.5054,211.3282c-0.1422,0.1822-0.3692,0.2781-0.604,0.2564
		c-0.2347-0.0201-0.4417-0.1545-0.5498-0.36c-1.6111-3.0195-3.1525-6.0485-4.6059-9.0991l-1.2636,10.846
		c4.1627,0.4851,8.3253,0.8403,12.4833,1.0999l0.6719-10.9001C81.6556,205.913,79.6151,208.636,77.5054,211.3282z"/>
	<path id="XMLID_11541_" fill="#FF1D25" d="M82.9298,201.8738c-3.4366-0.224-6.8594-0.5189-10.2636-0.902
		c1.3979,2.9101,2.8667,5.8154,4.4036,8.6945C79.0838,207.0899,81.0347,204.4981,82.9298,201.8738z"/>
	<path id="XMLID_11537_" fill="#FCEE21" d="M76.3515,211.2247c0.108,0.2054,0.3151,0.3399,0.5498,0.36
		c0.2349,0.0217,0.4618-0.0742,0.604-0.2564c2.1098-2.6923,4.1502-5.4152,6.1319-8.1569l0.0788-1.2481l-0.7862-0.0495
		c-1.8951,2.6243-3.8459,5.2161-5.86,7.7925c-1.5369-2.8791-3.0058-5.7844-4.4036-8.6945l-0.7769-0.0879l-0.1436,1.2418
		C73.199,205.1761,74.7405,208.2051,76.3515,211.2247z"/>
	<path id="XMLID_11533_" fill="#FF1D25" d="M89.8666,212.0681c-0.1329,0.1852-0.3552,0.2966-0.5901,0.2872
		c-0.2331-0.0093-0.4463-0.1344-0.5653-0.3336c-1.7499-2.9363-3.4444-5.8818-5.0739-8.8504l-0.6719,10.9001
		c4.158,0.2564,8.3098,0.4108,12.4586,0.4849l0.1945-10.9186C93.7527,206.4689,91.8375,209.274,89.8666,212.0681z"/>
	<path id="XMLID_11529_" fill="#FF1D25" d="M94.851,202.3728c-3.4584-0.0696-6.9105-0.2009-10.3503-0.4032
		c1.5585,2.8359,3.1804,5.6563,4.85,8.4612C91.2334,207.7634,93.0653,205.0758,94.851,202.3728z"/>
	<path id="XMLID_11522_" fill="#FCEE21" d="M88.7112,212.0218c0.1189,0.1991,0.3321,0.3242,0.5653,0.3336
		c0.2349,0.0093,0.4573-0.102,0.5901-0.2872c1.9709-2.7941,3.8861-5.5992,5.752-8.4303l0.0217-1.2481l-0.7892-0.0169
		c-1.7857,2.703-3.6176,5.3906-5.5004,8.058c-1.6696-2.8049-3.2914-5.6253-4.85-8.4612l-0.7847-0.0463l-0.0788,1.2481
		C85.2668,206.14,86.9612,209.0855,88.7112,212.0218z"/>
	<path id="XMLID_11518_" fill="#FF1D25" d="M102.2139,212.2673c-0.1251,0.1947-0.3443,0.3121-0.576,0.3121
		c-0.2349,0.0016-0.4511-0.1174-0.5778-0.3105c-1.8611-2.859-3.6776-5.7397-5.4415-8.6311l-0.1945,10.9186
		c4.1471,0.0742,8.2881,0.0664,12.4183-0.0078l-0.1945-10.9186C105.8792,206.5215,104.0706,209.4053,102.2139,212.2673z"/>
	<path id="XMLID_11514_" fill="#FF1D25" d="M106.8321,202.3913c-3.4722,0.0571-6.9396,0.0633-10.4011,0.0092
		c1.6897,2.7664,3.4258,5.5127,5.2036,8.2527C103.4094,207.91,105.1393,205.1592,106.8321,202.3913z"/>
	<path id="XMLID_11510_" fill="#FCEE21" d="M101.0601,212.2689c0.1267,0.1931,0.3429,0.3121,0.5778,0.3105
		c0.2317,0,0.4509-0.1174,0.576-0.3121c1.8567-2.862,3.6653-5.7458,5.4339-8.6372l-0.0217-1.2511l-0.794,0.0123
		c-1.6928,2.7679-3.4227,5.5187-5.1974,8.2619c-1.7778-2.7401-3.514-5.4863-5.2036-8.2527l-0.7908-0.0108l-0.0217,1.2481
		C97.3824,206.5292,99.1989,209.4099,101.0601,212.2689z"/>
	<path id="XMLID_11508_" fill="#FF1D25" d="M114.5335,212.0294c-0.1189,0.1977-0.329,0.3228-0.5653,0.3306
		c-0.2317,0.0093-0.4511-0.1019-0.5839-0.2904c-1.9522-2.8019-3.866-5.6114-5.7365-8.4395l0.1945,10.9186
		c4.1333-0.0756,8.2605-0.2146,12.3783-0.4123l-0.5205-10.9063C118.015,206.1756,116.2927,209.1087,114.5335,212.0294z"/>
	<path id="XMLID_11506_" fill="#FF1D25" d="M118.846,202.0176c-3.4785,0.1575-6.9537,0.2795-10.4259,0.3459
		c1.7885,2.7046,3.6188,5.3952,5.4833,8.0704C115.5884,207.6429,117.2318,204.8302,118.846,202.0176z"/>
	<path id="XMLID_11495_" fill="#FCEE21" d="M113.3843,212.0696c0.1329,0.1885,0.3522,0.2997,0.5839,0.2904
		c0.2363-0.0078,0.4463-0.1329,0.5653-0.3306c1.7593-2.9207,3.4815-5.8538,5.1666-8.7993l-0.0587-1.2497l-0.7954,0.0372
		c-1.6142,2.8126-3.2576,5.6253-4.9426,8.4163c-1.8644-2.6752-3.6947-5.3657-5.4833-8.0704l-0.794,0.0155l0.0217,1.2511
		C109.5182,206.4582,111.432,209.2677,113.3843,212.0696z"/>
	<path id="XMLID_11491_" fill="#FF1D25" d="M126.8221,211.4333c-0.1112,0.2007-0.3212,0.332-0.5529,0.3459
		c-0.2317,0.0123-0.4557-0.0911-0.5931-0.2765c-2.0264-2.7462-4.016-5.5018-5.9759-8.2726l0.5205,10.9063
		c4.1162-0.1947,8.2265-0.4449,12.3288-0.7415l-0.7877-10.8923C130.1445,205.4882,128.501,208.4645,126.8221,211.4333z"/>
	<path id="XMLID_11487_" fill="#FF1D25" d="M130.8766,201.3117c-3.4799,0.2455-6.9615,0.4587-10.4398,0.6301
		c1.8736,2.6489,3.7781,5.2887,5.715,7.9128C127.7551,207.0157,129.329,204.1645,130.8766,201.3117z"/>
	<path id="XMLID_11483_" fill="#FCEE21" d="M125.676,211.5027c0.1374,0.1854,0.3614,0.2888,0.5931,0.2765
		c0.2317-0.0139,0.4418-0.1452,0.5529-0.3459c1.6789-2.9688,3.3224-5.9451,4.9396-8.9308l-0.0897-1.2481l-0.7954,0.0573
		c-1.5476,2.8528-3.1215,5.7041-4.7248,8.543c-1.9369-2.6241-3.8414-5.2639-5.715-7.9128l-0.7954,0.0386l0.0587,1.2497
		C121.6601,206.0009,123.6496,208.7565,125.676,211.5027z"/>
	<path id="XMLID_11479_" fill="#FF1D25" d="M139.0753,210.5374c-0.1096,0.2039-0.3136,0.3382-0.5452,0.3568
		c-0.2317,0.0201-0.4573-0.0803-0.5979-0.2611c-2.0835-2.6999-4.1425-5.4075-6.1705-8.1306l0.7877,10.8923
		c4.1025-0.295,8.1986-0.6395,12.284-1.0194l-1.0086-10.8723C142.2664,204.5197,140.6832,207.5317,139.0753,210.5374z"/>
	<path id="XMLID_11475_" fill="#FF1D25" d="M142.9135,200.3309c-3.4814,0.3181-6.9659,0.61-10.4458,0.8664
		c1.9415,2.6026,3.9108,5.1945,5.9033,7.777L142.9135,200.3309z"/>
	<path id="XMLID_11470_" fill="#FCEE21" d="M137.9322,210.6331c0.1406,0.1808,0.3661,0.2812,0.5979,0.2611
		c0.2316-0.0187,0.4356-0.1529,0.5452-0.3568c1.6079-3.0058,3.1911-6.0177,4.7495-9.0342l-0.1174-1.2465l-0.794,0.0742
		l-4.5425,8.6434c-1.9926-2.5825-3.9619-5.1744-5.9033-7.777l-0.7956,0.0571l0.0897,1.2481
		C133.7897,205.2256,135.8487,207.9332,137.9322,210.6331z"/>
	<path id="XMLID_11464_" fill="#FF1D25" d="M151.2945,209.3928c-0.105,0.2054-0.3075,0.3429-0.5376,0.3661
		c-0.2317,0.0262-0.4603-0.068-0.6023-0.2502l-6.3298-8.0055l1.0086,10.8723c4.0916-0.3799,8.1724-0.7986,12.247-1.2465
		l-1.1986-10.8537L151.2945,209.3928z"/>
	<path id="XMLID_11458_" fill="#FF1D25" d="M154.9489,199.1168c-3.4814,0.3799-6.9629,0.7397-10.446,1.0673l6.0563,7.6596
		L154.9489,199.1168z"/>
	<path id="XMLID_11454_" fill="#FCEE21" d="M150.1546,209.5087c0.142,0.1822,0.3706,0.2765,0.6023,0.2502
		c0.2301-0.0233,0.4326-0.1607,0.5376-0.3661l4.5874-9.1176l-0.1374-1.2433l-0.7956,0.0849l-4.3897,8.7269l-6.0563-7.6596
		l-0.7954,0.0726l0.1174,1.2465L150.1546,209.5087z"/>
	<path id="XMLID_11450_" fill="#FF1D25" d="M163.4826,208.0414c-0.1019,0.2053-0.3027,0.3475-0.5313,0.3737
		c-0.2317,0.0262-0.4603-0.0648-0.6086-0.2425l-6.4609-7.8975l1.1986,10.8537c4.0731-0.4511,8.1445-0.9314,12.2068-1.441
		l-1.3531-10.8368L163.4826,208.0414z"/>
	<polygon id="XMLID_11446_" fill="#FF1D25" points="166.9827,197.7112 156.5398,198.9422 162.7228,206.5014 	"/>
	<path id="XMLID_11439_" fill="#FCEE21" d="M162.3427,208.1727c0.1484,0.1776,0.3769,0.2687,0.6086,0.2425
		c0.2286-0.0263,0.4294-0.1685,0.5313-0.3737l4.4516-9.1903l-0.1575-1.2403l-0.794,0.1004l-4.2599,8.7902l-6.183-7.5592
		l-0.7954,0.0897l0.1374,1.2433L162.3427,208.1727z"/>
	<path id="XMLID_11435_" fill="#FF1D25" d="M175.6385,206.5123c-0.0988,0.2085-0.2966,0.3537-0.5253,0.3829
		c-0.2316,0.031-0.4571-0.0571-0.6085-0.2331l-6.5706-7.811l1.3531,10.8368l12.1712-1.6002l-1.486-10.8183L175.6385,206.5123z"/>
	<polygon id="XMLID_11431_" fill="#FF1D25" points="179.0087,196.1403 168.5705,197.5135 174.8601,204.9846 	"/>
	<path id="XMLID_11423_" fill="#FCEE21" d="M174.5048,206.6621c0.1514,0.176,0.3769,0.2641,0.6085,0.2331
		c0.2287-0.0293,0.4264-0.1745,0.5253-0.3829l4.334-9.2428l-0.1699-1.2388l-0.794,0.1096l-4.1487,8.8443l-6.2896-7.4711
		l-0.7938,0.0973l0.1575,1.2403L174.5048,206.6621z"/>
	<path id="XMLID_11419_" fill="#FF1D25" d="M187.7697,204.841c-0.0989,0.2101-0.2934,0.3568-0.5251,0.3877
		c-0.2271,0.034-0.4557-0.0525-0.6071-0.2254l-6.6649-7.7338l1.486,10.8183l12.1403-1.7316l-1.594-10.8028L187.7697,204.841z"/>
	<polygon id="XMLID_11413_" fill="#FF1D25" points="191.0286,194.4336 180.5965,195.9211 186.9742,203.3227 	"/>
	<path id="XMLID_11409_" fill="#FCEE21" d="M186.6375,205.0032c0.1514,0.1729,0.3799,0.2594,0.6071,0.2254
		c0.2317-0.0308,0.4262-0.1776,0.5251-0.3877l4.2352-9.2876l-0.1822-1.2372l-0.794,0.1174l-4.0544,8.8892l-6.3777-7.4016
		l-0.7938,0.1096l0.1699,1.2388L186.6375,205.0032z"/>
	<path id="XMLID_11405_" fill="#FF1D25" d="M199.8745,203.0493c-0.0957,0.2116-0.2904,0.3584-0.5205,0.3938
		c-0.2285,0.034-0.4571-0.0509-0.6116-0.2224l-6.7375-7.6674l1.594,10.8028l12.1157-1.841l-1.6835-10.7889L199.8745,203.0493z"/>
	<polygon id="XMLID_11395_" fill="#FF1D25" points="203.0455,192.614 192.6166,194.2004 199.0636,201.5386 	"/>
	<path id="XMLID_11391_" fill="#FCEE21" d="M198.7423,203.2207c0.1545,0.1714,0.3831,0.2564,0.6116,0.2224
		c0.2301-0.0354,0.4248-0.1822,0.5205-0.3938l4.1566-9.323l-0.1947-1.2357l-0.7908,0.1235l-3.9819,8.9246l-6.447-7.3382
		l-0.794,0.1158l0.1822,1.2372L198.7423,203.2207z"/>
	<path id="XMLID_11386_" fill="#FF1D25" d="M211.9578,201.1603c-0.0927,0.2116-0.2874,0.3598-0.5159,0.3968
		c-0.2286,0.0388-0.4603-0.0448-0.6148-0.2162l-6.796-7.6147l1.6835,10.7889l12.0879-1.9277l-1.7515-10.778L211.9578,201.1603z"/>
	<polygon id="XMLID_11382_" fill="#FF1D25" points="215.0547,190.7034 204.6303,192.3654 211.1391,199.6558 	"/>
	<path id="XMLID_11378_" fill="#FCEE21" d="M210.8271,201.3409c0.1545,0.1715,0.3862,0.255,0.6148,0.2162
		c0.2285-0.037,0.4232-0.1852,0.5159-0.3968l4.0931-9.3509l-0.2009-1.2357l-0.7954,0.1297l-3.9155,8.9524l-6.5088-7.2904
		l-0.794,0.1251l0.1947,1.2357L210.8271,201.3409z"/>
	<path id="XMLID_11370_" fill="#FF1D25" d="M224.0208,199.1956c-0.0927,0.2116-0.2842,0.363-0.5128,0.4
		c-0.2285,0.037-0.4572-0.0432-0.6148-0.2132l-6.8424-7.5729l1.7515,10.778l12.0678-1.9956l-1.8042-10.7688L224.0208,199.1956z"/>
	<polygon id="XMLID_11366_" fill="#FF1D25" points="227.0638,188.7202 216.6409,190.4456 223.196,197.6957 	"/>
	<path id="XMLID_11361_" fill="#FCEE21" d="M222.8933,199.3824c0.1575,0.17,0.3862,0.2502,0.6148,0.2132
		c0.2285-0.037,0.4201-0.1884,0.5128-0.4l4.0452-9.3725l-0.2053-1.2342l-0.797,0.1313l-3.8678,8.9755l-6.5551-7.2501l-0.7908,0.1281
		l0.2009,1.2357L222.8933,199.3824z"/>
	<path id="XMLID_11357_" fill="#FF1D25" d="M236.0717,197.1722c-0.0897,0.2116-0.2842,0.363-0.5098,0.4032
		c-0.2285,0.037-0.4603-0.0418-0.6178-0.2116l-6.8781-7.5407l1.8042,10.7688l12.0553-2.0451l-1.8442-10.7641L236.0717,197.1722z"/>
	<polygon id="XMLID_11351_" fill="#FF1D25" points="239.0743,186.6876 228.653,188.456 235.2376,195.6739 	"/>
	<path id="XMLID_11347_" fill="#FCEE21" d="M234.9442,197.3637c0.1575,0.1699,0.3892,0.2486,0.6178,0.2116
		c0.2256-0.0402,0.4201-0.1915,0.5098-0.4032l4.0096-9.3895l-0.213-1.2326l-0.794,0.1374l-3.8368,8.9863l-6.5846-7.2178
		l-0.7923,0.1329l0.2053,1.2342L234.9442,197.3637z"/>
	<path id="XMLID_11343_" fill="#FF1D25" d="M248.1101,195.1102c-0.0927,0.2116-0.2811,0.3614-0.5098,0.4016
		c-0.2285,0.0402-0.4603-0.0402-0.6146-0.2086l-6.9044-7.5204l1.8442,10.7641l12.0354-2.0775l-1.8659-10.7595L248.1101,195.1102z"/>
	<polygon id="XMLID_11339_" fill="#FF1D25" points="251.0881,184.6147 240.6622,186.4141 247.273,193.6135 	"/>
	<path id="XMLID_11334_" fill="#FCEE21" d="M246.9857,195.3031c0.1544,0.1684,0.3861,0.2488,0.6146,0.2086
		c0.2287-0.0402,0.4171-0.19,0.5098-0.4016l3.985-9.4004l-0.213-1.231l-0.794,0.1359l-3.8151,8.9988l-6.6108-7.1994l-0.7938,0.136
		l0.213,1.2326L246.9857,195.3031z"/>
	<path id="XMLID_11328_" fill="#FF1D25" d="M260.1393,193.0234c-0.0927,0.2116-0.2842,0.3616-0.5129,0.4016
		c-0.2254,0.0402-0.4571-0.0386-0.6146-0.2069l-6.9167-7.5082l1.8659,10.7595l12.0261-2.0913l-1.8751-10.758L260.1393,193.0234z"/>
	<polygon id="XMLID_11324_" fill="#FF1D25" points="263.1049,182.5249 252.6759,184.3398 259.296,191.5282 	"/>
	<path id="XMLID_11318_" fill="#FCEE21" d="M259.0118,193.2181c0.1575,0.1683,0.3892,0.2471,0.6146,0.2069
		c0.2287-0.04,0.4202-0.19,0.5129-0.4016l3.9726-9.4034l-0.2132-1.2326l-0.7938,0.1375l-3.8089,9.0034l-6.6201-7.1884l-0.7938,0.139
		l0.213,1.231L259.0118,193.2181z"/>
	<path id="XMLID_11314_" fill="#FF1D25" d="M272.1561,190.9289c-0.0895,0.2116-0.2781,0.3646-0.5066,0.4032
		c-0.2285,0.0402-0.4572-0.037-0.6148-0.2085l-6.9227-7.5036l1.8751,10.758l12.0199-2.0914l-1.8659-10.7595L272.1561,190.9289z"/>
	<polygon id="XMLID_11310_" fill="#FF1D25" points="275.131,180.4336 264.6958,182.25 271.3221,189.4338 	"/>
	<path id="XMLID_11303_" fill="#FCEE21" d="M271.0347,191.1236c0.1575,0.1714,0.3862,0.2486,0.6148,0.2085
		c0.2285-0.0386,0.4171-0.1915,0.5066-0.4032l3.985-9.4018l-0.213-1.2326l-0.797,0.139l-3.8089,9.0002l-6.6263-7.1838l-0.797,0.1374
		l0.2132,1.2326L271.0347,191.1236z"/>
	<path id="XMLID_11299_" fill="#FF1D25" d="M284.176,188.8453c-0.0895,0.2132-0.281,0.3646-0.5066,0.4032
		c-0.2285,0.0402-0.4603-0.0386-0.6178-0.21l-6.9105-7.5112l1.8659,10.7595l12.0107-2.0728l-1.8442-10.7626L284.176,188.8453z"/>
	<polygon id="XMLID_11295_" fill="#FF1D25" points="287.1694,178.3561 276.7218,180.1571 283.342,187.3501 	"/>
	<path id="XMLID_11291_" fill="#FCEE21" d="M283.0516,189.0384c0.1575,0.1714,0.3893,0.2502,0.6178,0.21
		c0.2256-0.0386,0.4171-0.19,0.5066-0.4032l3.9975-9.394l-0.207-1.231l-0.797,0.1359l-3.8274,8.994l-6.6201-7.193l-0.7938,0.1374
		l0.213,1.2326L283.0516,189.0384z"/>
	<path id="XMLID_11285_" fill="#FF1D25" d="M296.1929,186.7926c-0.0897,0.2116-0.2812,0.3614-0.5098,0.3984
		c-0.2285,0.0402-0.4571-0.0402-0.6148-0.2085l-6.8949-7.5313l1.8442,10.7626l12.0106-2.0327l-1.804-10.7704L296.1929,186.7926z"/>
	<polygon id="XMLID_11280_" fill="#FF1D25" points="299.2233,176.3096 288.7604,178.0826 295.3619,185.2927 	"/>
	<path id="XMLID_11276_" fill="#FCEE21" d="M295.0683,186.9826c0.1577,0.1683,0.3863,0.2486,0.6148,0.2085
		c0.2285-0.037,0.4201-0.1868,0.5098-0.3984l4.0313-9.3819l-0.2069-1.234l-0.794,0.1329l-3.8614,8.9831l-6.6015-7.2101
		l-0.794,0.1376l0.207,1.231L295.0683,186.9826z"/>
	<path id="XMLID_11270_" fill="#FF1D25" d="M308.2128,184.7831c-0.0927,0.2116-0.2842,0.3614-0.5128,0.3984
		c-0.2255,0.0402-0.4541-0.0416-0.6116-0.213l-6.8642-7.5578l1.804,10.7704l12.0045-1.9787l-1.7423-10.7811L308.2128,184.7831z"/>
	<polygon id="XMLID_11266_" fill="#FF1D25" points="311.2927,174.317 300.8143,176.0423 307.3911,183.2818 	"/>
	<path id="XMLID_11264_" fill="#FCEE21" d="M307.0883,184.9685c0.1575,0.1714,0.3861,0.2532,0.6116,0.213
		c0.2285-0.037,0.4201-0.1868,0.5128-0.3984l4.0776-9.3618l-0.2007-1.2326l-0.797,0.1283l-3.9016,8.9648l-6.5768-7.2395
		l-0.797,0.1344l0.2069,1.234L307.0883,184.9685z"/>
	<path id="XMLID_11256_" fill="#FF1D25" d="M320.2358,182.8447c-0.0927,0.2085-0.2842,0.3568-0.513,0.3938
		c-0.2285,0.0356-0.4571-0.0463-0.6116-0.2178l-6.8209-7.5993l1.7423,10.7811l12.0106-1.8997l-1.665-10.7921L320.2358,182.8447z"/>
	<polygon id="XMLID_11251_" fill="#FF1D25" points="323.3898,172.3987 312.8897,174.0607 319.4202,181.3356 	"/>
	<path id="XMLID_11247_" fill="#FCEE21" d="M319.1113,183.0207c0.1545,0.1714,0.3831,0.2534,0.6116,0.2178
		c0.2287-0.037,0.4203-0.1854,0.513-0.3938l4.1425-9.3339l-0.1915-1.2356l-0.797,0.1235l-3.9696,8.937l-6.5305-7.2749l-0.8,0.1281
		l0.2007,1.2326L319.1113,183.0207z"/>
	<path id="XMLID_11235_" fill="#FF1D25" d="M332.268,180.9927c-0.0959,0.21-0.2904,0.3568-0.5189,0.3892
		c-0.2287,0.0354-0.4573-0.0495-0.6086-0.221l-6.7622-7.6503l1.665,10.7921l12.0137-1.7994l-1.5662-10.8074L332.268,180.9927z"/>
	<polygon id="XMLID_11231_" fill="#FF1D25" points="335.5085,170.5761 324.9869,172.15 331.4649,179.4759 	"/>
	<path id="XMLID_11226_" fill="#FCEE21" d="M331.1405,181.161c0.1514,0.1715,0.3799,0.2564,0.6086,0.221
		c0.2285-0.0324,0.4231-0.1792,0.5189-0.3892l4.2228-9.2968l-0.1792-1.2373l-0.8032,0.1175l-4.0436,8.8998l-6.4779-7.3259
		l-0.8001,0.1251l0.1915,1.2356L331.1405,181.161z"/>
	<path id="XMLID_11222_" fill="#FF1D25" d="M344.3034,179.2551c-0.0959,0.2085-0.2904,0.3537-0.5191,0.3861
		c-0.2285,0.0324-0.4571-0.0541-0.6054-0.2285l-6.688-7.7167l1.5662,10.8074l12.0137-1.6697l-1.4364-10.8259L344.3034,179.2551z"/>
	<polygon id="XMLID_11218_" fill="#FF1D25" points="347.6644,168.8755 337.1148,170.3428 343.5188,177.7336 	"/>
	<path id="XMLID_11210_" fill="#FCEE21" d="M343.1789,179.4126c0.1483,0.1745,0.3769,0.261,0.6054,0.2285
		c0.2287-0.0324,0.4232-0.1776,0.5191-0.3861l4.3309-9.2474l-0.1637-1.2403l-0.8062,0.1082l-4.1457,8.858l-6.4039-7.3907
		l-0.8031,0.1158l0.1792,1.2373L343.1789,179.4126z"/>
	<path id="XMLID_11206_" fill="#FF1D25" d="M356.351,177.6657c-0.0989,0.2069-0.2966,0.3491-0.5219,0.3769
		c-0.2287,0.0293-0.4541-0.0603-0.6024-0.2365l-6.5923-7.7985l1.4364,10.8259c4.0067-0.5329,8.0133-1.0395,12.0199-1.509
		l-1.2787-10.8476L356.351,177.6657z"/>
	<polygon id="XMLID_11204_" fill="#FF1D25" points="359.8604,167.3309 349.2738,168.6608 355.588,176.1318 	"/>
	<path id="XMLID_11193_" fill="#FCEE21" d="M355.2266,177.8062c0.1483,0.1762,0.3737,0.2657,0.6024,0.2365
		c0.2254-0.0278,0.4231-0.17,0.5219-0.3769l4.4609-9.1887l-0.1452-1.2419l-0.8063,0.0959l-4.2723,8.8009l-6.3142-7.4711
		l-0.8032,0.1066l0.1637,1.2403L355.2266,177.8062z"/>
	<path id="XMLID_11187_" fill="#FF1D25" d="M368.4111,176.2539c-0.1019,0.207-0.2996,0.3445-0.5313,0.3707
		c-0.2256,0.0247-0.4511-0.068-0.5963-0.2472l-6.4716-7.9005l1.2787,10.8476c4.0067-0.4726,8.0164-0.9128,12.0201-1.3114
		l-1.0782-10.8677C371.4663,170.1776,369.9249,173.2126,368.4111,176.2539z"/>
	<path id="XMLID_11181_" fill="#FF1D25" d="M372.0965,165.9826c-3.5464,0.3598-7.0896,0.7459-10.6237,1.16l6.1999,7.5668
		L372.0965,165.9826z"/>
	<path id="XMLID_11177_" fill="#FCEE21" d="M367.2835,176.3775c0.1452,0.1792,0.3707,0.2719,0.5963,0.2472
		c0.2317-0.0263,0.4294-0.1637,0.5313-0.3707c1.5138-3.0414,3.0553-6.0764,4.6214-9.1084l-0.1267-1.2433l-0.8093,0.0804
		l-4.4237,8.7267l-6.1999-7.5668l-0.8062,0.0925l0.1452,1.2419L367.2835,176.3775z"/>
	<path id="XMLID_11172_" fill="#FF1D25" d="M380.4805,175.0693c-0.1082,0.2039-0.3089,0.3382-0.5374,0.3568
		c-0.2287,0.0231-0.4511-0.0758-0.5931-0.258c-2.0791-2.683-4.1859-5.3597-6.3174-8.0226l1.0782,10.8677
		c4.0096-0.3986,8.0133-0.7568,12.0199-1.0627l-0.8372-10.8892C383.6561,169.0562,382.0528,172.0589,380.4805,175.0693z"/>
	<path id="XMLID_11164_" fill="#FF1D25" d="M384.3851,164.8781c-3.5617,0.2811-7.1174,0.5947-10.6668,0.9438
		c2.0419,2.5517,4.0591,5.1125,6.0547,7.6859C381.2806,170.6239,382.8189,167.7494,384.3851,164.8781z"/>
	<path id="XMLID_11160_" fill="#FCEE21" d="M379.3499,175.1681c0.142,0.1822,0.3644,0.2811,0.5931,0.258
		c0.2285-0.0187,0.4292-0.1529,0.5374-0.3568c1.5723-3.0104,3.1756-6.0131,4.813-9.008l-0.0927-1.2449l-0.8157,0.0617
		c-1.5661,2.8713-3.1045,5.7458-4.6121,8.6296c-1.9955-2.5733-4.0128-5.1342-6.0547-7.6859l-0.8125,0.0803l0.1267,1.2433
		C375.1641,169.8084,377.2708,172.4852,379.3499,175.1681z"/>
	<path id="XMLID_11156_" fill="#FF1D25" d="M392.5529,174.1595c-0.1143,0.2007-0.3151,0.332-0.5468,0.3475
		c-0.2285,0.0139-0.4448-0.0881-0.5838-0.2749c-2.0081-2.737-4.053-5.4602-6.1289-8.1708l0.8372,10.8892
		c4.0035-0.3073,8.0071-0.5607,12.0044-0.7568l-0.5251-10.9063C395.883,168.2361,394.1994,171.1939,392.5529,174.1595z"/>
	<path id="XMLID_11152_" fill="#FF1D25" d="M396.7325,164.0781c-3.5804,0.179-7.1544,0.4092-10.7195,0.6749
		c1.9896,2.5996,3.945,5.2068,5.8725,7.8295C393.4672,169.7404,395.0799,166.9031,396.7325,164.0781z"/>
	<path id="XMLID_11148_" fill="#FCEE21" d="M391.4223,174.2321c0.139,0.1868,0.3553,0.2888,0.5838,0.2749
		c0.2317-0.0155,0.4324-0.1468,0.5468-0.3475c1.6465-2.9656,3.3302-5.9234,5.057-8.8721l-0.0618-1.2495l-0.8155,0.0402
		c-1.6527,2.825-3.2653,5.6623-4.847,8.5044c-1.9275-2.6227-3.8829-5.2299-5.8725-7.8295l-0.8123,0.0634l0.0927,1.2449
		C387.3693,168.772,389.4142,171.4951,391.4223,174.2321z"/>
	<path id="XMLID_11139_" fill="#FF1D25" d="M404.6223,173.6018c-0.1205,0.1963-0.3275,0.3198-0.5561,0.3276
		c-0.2285,0.0062-0.4418-0.105-0.5746-0.2936c-1.9152-2.7957-3.8799-5.5805-5.8817-8.3484l0.5251,10.9063
		c4.0005-0.19,7.9948-0.3228,11.9797-0.3692l-0.1359-10.9186C408.1408,167.7882,406.3583,170.6903,404.6223,173.6018z"/>
	<path id="XMLID_11135_" fill="#FF1D25" d="M409.1417,163.6656c-3.5989,0.0541-7.1916,0.1684-10.772,0.3337
		c1.9154,2.6519,3.7966,5.321,5.6346,8.0023C405.6756,169.2091,407.384,166.4319,409.1417,163.6656z"/>
	<path id="XMLID_11129_" fill="#FCEE21" d="M403.4915,173.6358c0.1328,0.1885,0.3461,0.2997,0.5746,0.2936
		c0.2285-0.0078,0.4356-0.1313,0.5561-0.3276c1.736-2.9115,3.5186-5.8137,5.3566-8.6959l-0.0155-1.2511l-0.8217,0.0108
		c-1.7577,2.7663-3.466,5.5435-5.1374,8.3361c-1.838-2.6814-3.7192-5.3504-5.6346-8.0023l-0.8217,0.0386l0.0618,1.2495
		C399.6116,168.0553,401.5763,170.8401,403.4915,173.6358z"/>
	<path id="XMLID_11125_" fill="#FF1D25" d="M416.6668,173.4815c-0.1235,0.1929-0.3367,0.3057-0.5653,0.3043
		c-0.2256-0.0016-0.4356-0.1205-0.5591-0.3167c-1.7948-2.8715-3.6514-5.7259-5.5636-8.5632l0.1359,10.9186
		c3.9851-0.0479,7.9608-0.0185,11.918,0.1159l0.3708-10.9126C420.4264,167.822,418.5204,170.641,416.6668,173.4815z"/>
	<path id="XMLID_11121_" fill="#FF1D25" d="M421.6218,163.7505c-3.6204-0.1112-7.2316-0.1374-10.8337-0.105
		c1.8289,2.7185,3.6082,5.4616,5.3319,8.2141C417.8994,169.1365,419.7283,166.4335,421.6218,163.7505z"/>
	<path id="XMLID_11116_" fill="#FCEE21" d="M415.5424,173.4691c0.1235,0.1961,0.3336,0.3151,0.5591,0.3167
		c0.2285,0.0014,0.4417-0.1114,0.5653-0.3043c1.8535-2.8405,3.7596-5.6595,5.7366-8.4536l0.0432-1.2527l-0.8248-0.0247
		c-1.8936,2.683-3.7224,5.386-5.5017,8.1091c-1.7237-2.7525-3.5031-5.4956-5.3319-8.2141l-0.8248,0.0093l0.0155,1.2511
		C411.8911,167.7433,413.7476,170.5977,415.5424,173.4691z"/>
	<path id="XMLID_11112_" fill="#FF1D25" d="M428.662,173.9247c-0.1359,0.1839-0.3552,0.2904-0.5808,0.275
		c-0.2256-0.0123-0.4262-0.1422-0.5374-0.3429c-1.6373-2.9626-3.3548-5.9065-5.1404-8.8289l-0.3708,10.9126
		c3.9603,0.1359,7.8989,0.3737,11.8067,0.7445l1.038-10.8692C432.718,168.4831,430.6515,171.1878,428.662,173.9247z"/>
	<path id="XMLID_11108_" fill="#FF1D25" d="M434.1638,164.492c-3.6359-0.326-7.2688-0.5499-10.8893-0.6842
		c1.7083,2.8049,3.3548,5.6269,4.9273,8.4704C430.117,169.6525,432.0972,167.056,434.1638,164.492z"/>
	<path id="XMLID_11104_" fill="#FCEE21" d="M427.5438,173.8568c0.1112,0.2007,0.3119,0.3306,0.5374,0.3429
		c0.2256,0.0154,0.4449-0.0911,0.5808-0.275c1.9894-2.7369,4.056-5.4415,6.2154-8.109l0.1174-1.2465l-0.831-0.0772
		c-2.0666,2.564-4.0468,5.1604-5.962,7.7861c-1.5725-2.8435-3.219-5.6655-4.9273-8.4704l-0.8278-0.0326l-0.0432,1.2527
		C424.189,167.9503,425.9065,170.8942,427.5438,173.8568z"/>
	<path id="XMLID_11100_" fill="#FF1D25" d="M440.5336,175.1047c-0.1482,0.1762-0.3706,0.2641-0.5931,0.2349
		c-0.2224-0.0294-0.4139-0.173-0.5096-0.3801c-1.4148-3.0674-2.9377-6.1164-4.5534-9.1438l-1.038,10.8692
		c3.9078,0.3737,7.7816,0.8788,11.5936,1.563l1.9277-10.7487C444.9728,169.9767,442.7022,172.516,440.5336,175.1047z"/>
	<path id="XMLID_11096_" fill="#FF1D25" d="M446.7521,166.123c-3.6421-0.6286-7.2873-1.1089-10.9263-1.4719
		c1.5476,2.9037,3.0087,5.8353,4.3712,8.7778C442.2853,170.9467,444.463,168.5064,446.7521,166.123z"/>
	<path id="XMLID_11087_" fill="#FCEE21" d="M439.4308,174.9595c0.0957,0.207,0.2872,0.3506,0.5096,0.3801
		c0.2225,0.0293,0.4449-0.0587,0.5931-0.2349c2.1686-2.5887,4.4392-5.128,6.8272-7.6055l0.2224-1.2294l-0.831-0.1468
		c-2.2891,2.3834-4.4669,4.8237-6.5551,7.3059c-1.3625-2.9425-2.8236-5.8741-4.3712-8.7778l-0.831-0.0819l-0.1174,1.2465
		C436.4931,168.8431,438.0161,171.8921,439.4308,174.9595z"/>
	<path id="XMLID_11083_" fill="#FF1D25" d="M452.1612,177.2671c-0.1637,0.1591-0.3892,0.2256-0.6055,0.1746
		c-0.2162-0.0541-0.3892-0.21-0.4664-0.4278c-1.0967-3.185-2.3478-6.359-3.7286-9.5147l-1.9277,10.7487
		c3.8089,0.6828,7.553,1.5478,11.1797,2.6428l3.1633-10.4506C457.0854,172.6149,454.5584,174.9008,452.1612,177.2671z"/>
	<path id="XMLID_11079_" fill="#FF1D25" d="M459.3127,168.9945c-3.6174-1.0565-7.2564-1.8937-10.8985-2.5733
		c1.3191,3.032,2.5238,6.0826,3.5834,9.144C454.3051,173.2945,456.7363,171.0951,459.3127,168.9945z"/>
	<path id="XMLID_11075_" fill="#FCEE21" d="M451.0894,177.0139c0.0772,0.2178,0.2502,0.3737,0.4664,0.4278
		c0.2162,0.0509,0.4418-0.0155,0.6055-0.1746c2.3972-2.3663,4.9241-4.6523,7.6148-6.827l0.3614-1.1986l-0.8248-0.2471
		c-2.5764,2.1006-5.0075,4.3-7.3151,6.5706c-1.0595-3.0614-2.2643-6.112-3.5834-9.144l-0.831-0.1514l-0.2224,1.2294
		C448.7416,170.6549,449.9926,173.8289,451.0894,177.0139z"/>
	<path id="XMLID_11071_" fill="#FF1D25" d="M463.2976,180.7363c-0.1822,0.1375-0.4139,0.173-0.6178,0.0927
		c-0.2039-0.0773-0.3491-0.2611-0.3922-0.4835c-0.6271-3.2962-1.4798-6.6046-2.5115-9.9054l-3.1633,10.4506
		c3.6266,1.0951,7.1298,2.4297,10.4134,4.0591l4.8531-9.7849C468.8272,176.8471,465.976,178.7191,463.2976,180.7363z"/>
	<path id="XMLID_11060_" fill="#FF1D25" d="M471.6384,173.6575c-3.4908-1.6727-7.0681-3.0336-10.6761-4.1626
		c0.9854,3.1786,1.804,6.3652,2.4127,9.5377C465.9636,177.0989,468.7099,175.2901,471.6384,173.6575z"/>
	<path id="XMLID_11056_" fill="#FCEE21" d="M462.2876,180.3455c0.0432,0.2224,0.1884,0.4062,0.3922,0.4835
		c0.2039,0.0804,0.4356,0.0448,0.6178-0.0927c2.6784-2.0172,5.5296-3.8893,8.5817-5.5714l0.5561-1.1198l-0.797-0.3877
		c-2.9286,1.6326-5.6748,3.4414-8.2635,5.3751c-0.6086-3.1725-1.4273-6.359-2.4127-9.5377l-0.8248-0.2534l-0.3614,1.1986
		C460.8078,173.7409,461.6605,177.0493,462.2876,180.3455z"/>
	<path id="XMLID_11052_" fill="#FF1D25" d="M472.8585,185.9075c-0.179-0.1144-0.2811-0.3182-0.2779-0.5436
		c0.0617-3.3379-0.1916-6.7498-0.7013-10.1989l-4.8531,9.7849c3.287,1.6218,6.3391,3.5573,9.0513,5.8046l0.2872-0.3461
		c0.6611-2.3291,1.2574-4.5317,1.7702-6.4764c-1.6064,0.6009-3.1603,1.2696-4.6646,2.0002
		C473.2726,186.028,473.0377,186.0235,472.8585,185.9075z"/>
	<path id="XMLID_11048_" fill="#FF1D25" d="M473.8965,184.2841c1.5045-0.7244,3.0613-1.3854,4.6616-1.9816
		c0.4386-1.6974,0.7847-3.0937,1.0287-4.087c-2.0606-1.3931-4.189-2.6551-6.3606-3.7718
		C473.7082,177.7676,473.9459,181.0653,473.8965,184.2841z"/>
	<path id="XMLID_11040_" fill="#FCEE21" d="M473.2263,174.4437l-0.7908-0.3986l-0.5561,1.1198
		c0.5098,3.4491,0.763,6.861,0.7013,10.1989c-0.0032,0.2254,0.0988,0.4292,0.2779,0.5436c0.1792,0.1159,0.4141,0.1205,0.6118,0.0247
		c1.5043-0.7306,3.0583-1.3993,4.6646-2.0002c0.1482-0.5623,0.2904-1.1136,0.4232-1.6296
		c-1.6003,0.5963-3.1571,1.2572-4.6616,1.9816C473.9459,181.0653,473.7082,177.7676,473.2263,174.4437z"/>
	<path id="XMLID_11033_" fill="#7F3F98" d="M32.501,189.9837c-0.4958-0.258-1.1075-0.0634-1.367,0.434l-4.2491,8.1847
		c-1.4782-0.5314-3.0414-0.6055-4.5365-0.2456c-1.8102,0.4449-3.5185,1.509-4.6198,3.1957c-1.1013,1.6898-1.3469,3.7147-0.7429,5.63
		c0.5947,1.9152,2.0481,3.6916,4.1132,4.7666c4.1842,2.17,8.8735,0.5112,10.3687-3.2206c1.3716-3.4213,0.0495-7.1916-2.7832-9.1902
		l4.2491-8.1863C33.193,190.8548,32.9983,190.2416,32.501,189.9837z"/>
	<path id="XMLID_11025_" fill="#7F3F98" d="M50.2327,207.2397l2.2643-8.923c0.139-0.5422-0.1915-1.0936-0.7336-1.2326
		c-0.5422-0.1375-1.0951,0.1915-1.2326,0.7337l-2.2722,8.9447c-3.4829-0.3908-6.9444,1.6449-8.1028,5.1418
		c-1.2728,3.8228,1.194,8.0751,5.5157,9.1671c4.3139,1.0921,8.4194-1.4534,9.1748-5.4121
		C55.5367,212.0433,53.4887,208.5556,50.2327,207.2397z"/>
	<path id="XMLID_11019_" fill="#7F3F98" d="M73.0091,211.0764L73.993,201.9c0.0587-0.5559-0.3429-1.0564-0.9022-1.1166
		c-0.556-0.0587-1.0564,0.3445-1.1151,0.902l-0.9839,9.1748c-3.5309,0.1112-6.6371,2.6937-7.1932,6.3358
		c-0.6085,3.9836,2.3818,7.74,6.6572,8.1956c4.2723,0.4571,7.9377-2.5702,8.2157-6.5907
		C78.9247,215.1278,76.4411,211.9337,73.0091,211.0764z"/>
	<path id="XMLID_11010_" fill="#7F3F98" d="M96.1947,212.3245l0.1404-9.2273c0.0078-0.5591-0.4386-1.021-1.0009-1.0287
		c-0.5591-0.0093-1.0194,0.4386-1.0287,0.9977l-0.139,9.2273c-3.5247,0.4372-6.3559,3.3333-6.5196,7.014
		c-0.1824,4.0283,3.103,7.4434,7.312,7.5035c4.2089,0.0664,7.5653-3.2389,7.5252-7.2702
		C102.4456,215.857,99.7055,212.8681,96.1947,212.3245z"/>
	<path id="XMLID_11004_" fill="#7F3F98" d="M119.4745,211.8488l-0.4308-9.2196c-0.0278-0.5591-0.5006-0.9917-1.0627-0.9654
		c-0.5577,0.0263-0.9901,0.5004-0.9623,1.0611l0.4309,9.2196c-3.5015,0.658-6.1319,3.7487-6.0331,7.4311
		c0.108,4.0313,3.5726,7.2054,7.7244,7.0092c4.1502-0.1931,7.2873-3.6731,7.0277-7.6966
		C125.9308,215.0105,123.0225,212.1762,119.4745,211.8488z"/>
	<path id="XMLID_10996_" fill="#7F3F98" d="M142.7406,210.1543l-0.831-9.1687c-0.0509-0.5591-0.5438-0.97-1.1013-0.9189
		c-0.5591,0.0509-0.97,0.5436-0.9191,1.1013l0.831,9.1717c-3.4784,0.8062-5.9543,4.0468-5.6748,7.7229
		c0.3059,4.0206,3.8924,7.0247,7.9963,6.651c4.1025-0.3707,7.0788-3.9665,6.6649-7.9763
		C149.3266,213.069,146.3085,210.3258,142.7406,210.1543z"/>
	<path id="XMLID_10990_" fill="#7F3F98" d="M165.9601,207.6351l-1.1182-9.1392c-0.0648-0.5561-0.5714-0.9515-1.1275-0.8835
		c-0.556,0.068-0.9514,0.5746-0.8835,1.1306l1.1152,9.1378c-3.4537,0.9159-5.8246,4.2413-5.4138,7.9066
		c0.4465,4.0066,4.1132,6.8857,8.1817,6.39c4.0623-0.4943,6.9229-4.1689,6.3976-8.1662
		C172.6312,210.3536,169.5313,207.6954,165.9601,207.6351z"/>
	<path id="XMLID_10981_" fill="#7F3F98" d="M189.1227,204.5104l-1.3161-9.1114c-0.0802-0.5545-0.5931-0.9392-1.1475-0.8588
		c-0.5531,0.0804-0.9392,0.5947-0.8588,1.1492l1.3159,9.1114c-3.4366,0.9947-5.7257,4.3774-5.2253,8.0334
		c0.5468,3.9943,4.2708,6.7838,8.3068,6.1985c4.0343-0.5839,6.8083-4.3079,6.2091-8.2959
		C195.8539,207.0915,192.703,204.4903,189.1227,204.5104z"/>
	<path id="XMLID_10977_" fill="#7F3F98" d="M212.242,200.964l-1.452-9.0882c-0.0897-0.5531-0.6086-0.9298-1.1616-0.8419
		c-0.5529,0.0881-0.9299,0.607-0.8402,1.16l1.4518,9.0915c-3.4259,1.0472-5.6593,4.4715-5.0909,8.1167
		c0.6178,3.985,4.3742,6.7097,8.384,6.0686c4.0096-0.6411,6.7282-4.4005,6.0764-8.3808
		C219.0104,203.4509,215.8222,200.8946,212.242,200.964z"/>
	<path id="XMLID_10969_" fill="#7F3F98" d="M235.3303,197.1459l-1.5383-9.0775c-0.0927-0.5529-0.6148-0.9251-1.1677-0.831
		c-0.5529,0.0943-0.9237,0.6164-0.831,1.1677l1.5383,9.079c-3.4197,1.0798-5.6129,4.5287-5.0091,8.1662
		c0.6643,3.979,4.4408,6.6633,8.4319,5.9869s6.6711-4.453,5.9914-8.4272C242.1203,199.5755,238.9107,197.0409,235.3303,197.1459z"/>
	<path id="XMLID_10961_" fill="#7F3F98" d="M258.4063,193.1763l-1.5755-9.0698c-0.0959-0.5529-0.618-0.9221-1.1709-0.8262
		c-0.5529,0.0943-0.9237,0.621-0.8278,1.1723l1.5723,9.0728c-3.4135,1.092-5.5913,4.555-4.9642,8.1909
		c0.6858,3.9726,4.4699,6.6371,8.4457,5.9483c3.9788-0.692,6.6387-4.4701,5.9497-8.4443
		C265.2056,195.5874,261.9866,193.0589,258.4063,193.1763z"/>
	<path id="XMLID_10956_" fill="#7F3F98" d="M281.4823,189.1804l-1.56-9.0728c-0.0959-0.5514-0.621-0.9237-1.1709-0.8294
		c-0.5529,0.0958-0.9235,0.621-0.8278,1.1723l1.5631,9.076c-3.4197,1.0906-5.5976,4.555-4.9673,8.1879
		c0.6888,3.9726,4.4637,6.6369,8.4302,5.9543c3.9665-0.6842,6.6293-4.453,5.9529-8.4303
		C288.2815,191.6008,285.0688,189.0662,281.4823,189.1804z"/>
	<path id="XMLID_10950_" fill="#7F3F98" d="M304.5922,185.2758l-1.5013-9.0837c-0.0927-0.5529-0.6148-0.9267-1.1646-0.834
		c-0.5529,0.0911-0.9298,0.6132-0.8372,1.1646l1.5013,9.0821c-3.4259,1.0705-5.6223,4.5256-5.0107,8.1616
		c0.6705,3.9788,4.4269,6.6602,8.384,6.0084c3.9541-0.6564,6.6386-4.4005,5.996-8.3856
		C311.376,187.7503,308.1819,185.1863,304.5922,185.2758z"/>
	<path id="XMLID_10946_" fill="#7F3F98" d="M327.7516,181.5982l-1.3839-9.1038c-0.0865-0.5529-0.6024-0.9328-1.1554-0.8495
		c-0.5559,0.0835-0.936,0.6025-0.8525,1.157l1.3869,9.1022c-3.4443,1.0271-5.6778,4.4576-5.1032,8.1012
		c0.6271,3.9851,4.3402,6.7081,8.2914,6.1058c3.9478-0.5993,6.6756-4.3016,6.0948-8.2929
		C334.5015,184.1668,331.3444,181.5534,327.7516,181.5982z"/>
	<path id="XMLID_10942_" fill="#7F3F98" d="M350.9853,178.3143l-1.1924-9.1285c-0.0742-0.5559-0.5808-0.9483-1.1369-0.8742
		c-0.5561,0.071-0.9484,0.5808-0.8773,1.1353l1.1985,9.1315c-3.469,0.9545-5.7705,4.3465-5.2577,8.0009
		c0.5561,3.9927,4.2075,6.7868,8.1461,6.2711c3.9386-0.5159,6.7375-4.1504,6.2556-8.1539
		C357.6794,181.0345,354.5841,178.3454,350.9853,178.3143z"/>
	<path id="XMLID_10938_" fill="#7F3F98" d="M374.3237,175.6439l-0.902-9.1625c-0.0555-0.5577-0.5529-0.9639-1.1121-0.9098
		c-0.5561,0.0555-0.9638,0.5529-0.9082,1.1091l0.905,9.1609c-3.503,0.8463-5.9002,4.1765-5.4894,7.8432
		c0.4479,4.0082,4.0005,6.8996,7.9237,6.5151c3.9233-0.3893,6.8239-3.914,6.4903-7.9345
		C380.9252,178.5908,377.9226,175.7891,374.3237,175.6439z"/>
	<path id="XMLID_10934_" fill="#7F3F98" d="M397.7829,173.9093l-0.4604-9.1965c-0.0277-0.5591-0.5034-0.9901-1.0625-0.9623
		c-0.5593,0.0278-0.9917,0.5052-0.9638,1.0643l0.4602,9.1963c-3.5464,0.6766-6.0857,3.9063-5.8292,7.5886
		c0.2841,4.0236,3.679,7.0618,7.5683,6.8688c3.8861-0.1963,6.9352-3.5511,6.8302-7.584
		C404.2299,177.1961,401.3816,174.2305,397.7829,173.9093z"/>
	<path id="XMLID_10929_" fill="#7F3F98" d="M421.3593,173.6328l0.2409-9.2042c0.0155-0.5607-0.4263-1.024-0.9854-1.0395
		c-0.5623-0.0155-1.0255,0.4263-1.041,0.987l-0.2409,9.2042c-3.6021,0.4123-6.3576,3.4738-6.3359,7.1638
		c0.0247,4.0329,3.1633,7.2857,6.9722,7.3846c3.7996,0.0973,7.0556-2.9779,7.3181-7.0001
		C427.5283,177.4433,424.9396,174.2337,421.3593,173.6328z"/>
	<path id="XMLID_10921_" fill="#7F3F98" d="M444.9481,175.7658l1.4241-9.0961c0.0863-0.5529-0.2904-1.0735-0.8465-1.16
		c-0.5529-0.0849-1.0719,0.292-1.1584,0.8449l-1.4241,9.0976c-3.6576-0.0541-6.7467,2.7076-7.1113,6.3759
		c-0.4016,4.0206,2.2766,7.5653,5.8663,8.1322c3.5834,0.5545,7.1051-2.0002,8.0133-5.9358
		C450.5426,180.4289,448.4543,176.8316,444.9481,175.7658z"/>
	<path id="XMLID_10917_" fill="#7F3F98" d="M470.9866,172.4265c-0.5159-0.2194-1.1122,0.0247-1.3314,0.539l-3.5835,8.4813
		c-1.631-0.4248-3.2992-0.2363-4.6955,0.4495c-1.6867,0.8248-2.9841,2.3339-3.5834,4.2598
		c-1.1616,3.8678,0.5745,7.7956,3.5617,9.0668c1.5198,0.6425,3.1726,0.5359,4.7543-0.1283
		c1.5785-0.6687,3.0984-1.8967,4.1023-3.6452c1.0009-1.7484,1.2387-3.7254,0.6735-5.5125
		c-0.4665-1.4844-1.5168-2.7973-2.9563-3.6731l3.5957-8.5091C471.7403,173.2388,471.5024,172.6427,470.9866,172.4265z"/>
</g>
</svg>
