<?xml version="1.0" encoding="utf-8"?>
<!-- Generator: Adobe Illustrator 19.0.0, SVG Export Plug-In . SVG Version: 6.00 Build 0)  -->
<svg version="1.1" id="Layer_1" xmlns="http://www.w3.org/2000/svg" xmlns:xlink="http://www.w3.org/1999/xlink" x="0px" y="0px"
	 viewBox="0 0 422 445.3333" enable-background="new 0 0 422 445.3333" xml:space="preserve">
<g id="XMLID_14565_">
	<g id="XMLID_14578_">
		<g id="XMLID_14616_">
			<g id="XMLID_14617_">
				<path id="XMLID_14618_" fill="#EF7B05" d="M47.7053,211.9979c-0.0025,0.1042,0.0481-1.6347,0.4722-4.2698
					c0.2445-1.3634,0.552-3.0418,1.1987-5.0564c0.6031-1.9933,1.5524-4.4002,3.5308-7.0472
					c0.9686-1.3148,2.4436-2.6807,4.2985-3.7391c1.9372-1.0802,4.2549-1.591,6.5264-1.5861
					c4.6839,0.1934,7.7301,2.2497,11.0551,4.3273c2.463,1.8504,5.1655,4.0659,8.0064,6.4614
					c2.6881,2.3707,5.5578,4.8069,8.3769,7.5144c11.4642,10.6241,23.972,23.8247,36.6911,38.5028
					c6.3618,7.3279,12.7553,15.063,18.744,23.2772c2.9545,4.1314,5.8316,8.3794,8.2727,12.903
					c0.6829,1.0897,1.0485,2.3489,1.5861,3.5114c0.4915,1.1869,1.0872,2.3489,1.1844,3.6518
					c0.3992,2.5622-0.7678,5.1342-2.584,6.9505c-3.7926,3.5452-8.8614,5.2989-13.8161,6.4371
					c-5.0127,1.104-10.142,1.4676-15.2133,1.419c-10.1445-0.247-20.0732-2.3008-29.0968-5.8995
					c-9.0643-3.4966-17.2591-8.5872-23.8004-14.879c-6.5725-6.2432-11.6944-13.3578-15.3705-20.4973
					c-3.5794-7.1875-5.8653-14.2541-7.2798-20.6232c-1.3947-6.3717-2.1649-12.0311-2.4655-16.6878
					c-0.5302-4.674-0.363-8.3282-0.3581-10.8299C47.6909,213.337,47.7053,211.9979,47.7053,211.9979z M58.0313,212.6853
					c0,0-0.0679,1.2355-0.1959,3.5625c-0.0486,2.3271-0.5208,5.7542-0.4484,10.0889c-0.1329,4.3566,0.0898,9.6311,0.8188,15.6294
					c0.7722,5.9962,2.2423,12.666,4.7633,19.6983c2.7124,6.9167,6.5775,14.206,12.3704,20.6718
					c5.7393,6.461,13.1446,12.3069,21.9281,16.2498c4.3397,2.0726,9.0355,3.5501,13.8474,4.7513
					c4.8535,1.0559,9.8519,1.6997,14.9201,1.908c5.0713,0.0679,10.2005-0.31,15.2133-1.4091
					c4.9547-1.1382,10.0235-2.892,13.8161-6.4371c1.8138-1.8162,2.9907-4.3928,2.5765-6.9505
					c-0.121-1.3029-0.734-2.4411-1.2473-3.6225c-0.5614-1.1531-0.9443-2.393-1.6466-3.4727
					c-2.5235-4.4607-5.4075-8.6893-8.6407-12.5931c-6.3305-7.9042-13.3484-15.0193-20.3981-21.5869
					c-14.1013-13.1451-28.2467-24.3192-40.3746-33.6617c-3.0492-2.2933-5.9695-4.49-8.7474-6.58
					c-2.7144-1.9397-5.3277-3.7728-8.0327-5.4923c-1.9759-1.1382-4.2187-2.216-5.1025-2.0369c-0.8476,0-1.1358,0.121-2.0077,1.0634
					c-1.6297,1.9154-2.5309,5.2379-2.9326,7.1464C58.0918,211.7385,58.0437,212.5836,58.0313,212.6853z"/>
			</g>
		</g>
		<path id="XMLID_14615_" fill="#EB7FC0" d="M139.8801,301.986c-16.971,1.9373-34.3298-3.0512-46.4482-13.3385
			c-14.39-12.2345-23.607-58.9857-23.5777-59.5571c20.3277-11.7117,92.9063,55.7788,85.0502,68.6719
			C152.1146,299.2929,147.0681,301.1721,139.8801,301.986z"/>
		<g id="XMLID_14610_">
			<g id="XMLID_14611_">
				<path id="XMLID_14612_" fill="#EF7B05" d="M358.3863,212.7146c-0.0099-0.1116-0.058-0.9205-0.4697-3.0249
					c-0.4265-1.8936-1.2592-5.1075-2.5721-7.1751c-0.741-1.0103-0.9785-1.2984-1.9521-1.4532
					c-1.0123-0.2663-3.3418,0.7796-5.4343,1.901c-2.7119,1.7002-5.347,3.5283-8.0932,5.4655
					c-2.7898,2.085-5.7249,4.2767-8.786,6.5631c-12.2345,9.2607-26.2753,20.589-40.2343,33.8968
					c-6.9986,6.635-13.8761,13.8811-20.2017,21.7952c-3.1534,3.9667-6.0399,8.1948-8.5634,12.6605
					c-0.7023,1.0802-1.0847,2.3201-1.6417,3.4777c-0.5138,1.1769-1.1288,2.3246-1.2354,3.6275
					c-0.4067,2.5622,0.7653,5.1342,2.5815,6.9505c3.7976,3.5357,8.854,5.3277,13.8235,6.4128
					c5.0177,1.0604,10.142,1.3947,15.2033,1.3029c10.1128-0.494,19.9646-2.8191,28.581-6.9797
					c8.6988-3.9667,16.0559-9.7591,21.6742-16.23c5.652-6.4808,9.5657-13.6197,12.2489-20.4928
					c2.5428-6.9549,4.0639-13.5711,4.8242-19.5356c0.736-5.967,0.9736-11.2173,0.8476-15.555
					c0.063-4.3179-0.3199-7.7371-0.4023-10.0572C358.4587,213.9446,358.3863,212.7146,358.3863,212.7146z M369.5743,211.9686
					c0,0,0.0099,1.3441,0.0342,3.8531c-0.0243,2.5086,0.2326,6.1703-0.305,10.8612c-0.2906,4.6765-1.0515,10.3602-2.4367,16.7656
					c-1.4284,6.393-3.6612,13.5225-7.2213,20.7829c-3.7054,7.1826-8.7761,14.448-15.4895,20.6763
					c-6.6593,6.2819-14.9028,11.4261-24.0524,14.8988c-9.1298,3.5209-19.117,5.473-29.2878,5.5796
					c-5.0812,0.0238-10.2149-0.3829-15.2232-1.5211c-4.9403-1.1913-10.0161-2.9059-13.8087-6.4659
					c-1.8162-1.8162-2.9882-4.3883-2.5815-6.9505c0.1116-1.2979,0.7072-2.4555,1.2012-3.6419
					c0.5376-1.1675,0.9056-2.4168,1.5886-3.507c2.4412-4.5237,5.3183-8.7712,8.3501-12.8396
					c5.9962-8.2048,12.5301-15.8045,18.9429-23.0694c12.8639-14.511,25.4763-27.5589,36.8388-38.2653
					c2.8235-2.6881,5.662-5.1511,8.3357-7.5293c2.8091-2.395,5.4874-4.6184,7.9429-6.4902c3.2114-2.095,6.1659-4.187,10.7233-4.4632
					c2.2135-0.0798,4.5044,0.3412,6.4565,1.3535c1.8743,0.9835,3.3904,2.3057,4.422,3.5769
					c4.117,5.2091,4.4944,9.3504,5.0906,12.0773C369.5262,210.3052,369.5743,212.0827,369.5743,211.9686z"/>
			</g>
		</g>
		<path id="XMLID_14609_" fill="#EB7FC0" d="M276.9685,301.986c16.971,1.9373,34.3347-3.0512,46.4482-13.3385
			c14.385-12.2345,23.6115-58.9857,23.5777-59.5571c-20.3277-11.7117-92.9063,55.7788-85.0502,68.6719
			C264.7385,299.2929,269.7805,301.1721,276.9685,301.986z"/>
		<g id="XMLID_14579_">
			<g id="XMLID_14600_">
				<path id="XMLID_14608_" fill="#DA8FFF" d="M172.9803,237.3819l61.6759,23.5515c2.9351-6.9842,3.7148-16.8167,1.7775-30.4047
					l-59.264-22.6334C177.1698,207.8953,173.1644,235.1446,172.9803,237.3819z"/>
				<path id="XMLID_14607_" fill="#76D6EE" d="M177.1698,207.8953l59.264,22.6334c-0.0144-0.0679-0.0144-0.1309-0.0243-0.1984
					l-4.9691-32.7903l-49.8193-19.0247L177.1698,207.8953z"/>
				<path id="XMLID_14606_" fill="#EC7FC0" d="M205.0872,276.2676c13.9828,0,24.716-3.7589,29.569-15.3343l-61.6759-23.5515
					C170.5099,267.8397,184.154,276.2676,205.0872,276.2676z"/>
				<polygon id="XMLID_14605_" fill="#A8E858" points="181.6211,178.5152 231.4404,197.54 226.442,164.5419 186.0719,149.1253 				
					"/>
				<polygon id="XMLID_14604_" fill="#E8E644" points="186.0719,149.1253 226.442,164.5419 221.4387,131.5532 190.5232,119.7453 
									"/>
				<polygon id="XMLID_14603_" fill="#FFA462" points="194.974,90.3553 190.5232,119.7453 221.4387,131.5532 216.4448,98.5551 				
					"/>
				<path id="XMLID_14602_" fill="#EC7FC0" d="M211.9117,65.7361l-12.9998-4.9597c-1.2112,9.1783-3.938,29.5789-3.938,29.5789
					l21.4709,8.1998C216.4448,98.5551,212.8853,73.3209,211.9117,65.7361z"/>
				<path id="XMLID_14601_" fill="#DA8FFF" d="M205.0872,32.733c-2.1212,0-4.243,13.46-6.1753,28.0434l12.9998,4.9597
					C209.8143,49.3994,207.451,32.733,205.0872,32.733z"/>
			</g>
			<g id="XMLID_14583_">
				<defs>
					<path id="XMLID_14584_" d="M205.0872,279.5995c-12.7186,0-21.7565-3.0998-27.6268-9.464
						c-6.4803-7.0323-9.033-17.8335-7.803-33.0249c0.189-2.276,3.8026-26.9002,4.2187-29.6994l17.8047-117.5548l3.9281-29.5159
						c3.5888-27.0842,5.2453-30.9349,9.4784-30.9349c4.4077,0,6.0686,4.2286,10.1276,35.9094
						c0.9736,7.5699,4.5287,32.7754,4.5287,32.7754l19.9547,131.741c2.0002,13.9947,1.3416,24.5146-1.971,32.3901
						C232.8256,273.9133,222.1504,279.5995,205.0872,279.5995z"/>
				</defs>
				<clipPath id="XMLID_730_">
					<use xlink:href="#XMLID_14584_"  overflow="visible"/>
				</clipPath>
				<g id="XMLID_14585_" clip-path="url(#XMLID_730_)">
					<g id="XMLID_14598_">
						<polygon id="XMLID_14599_" fill="#EF7B05" points="245.5397,268.1497 161.5885,236.5056 163.9374,230.2718 247.898,261.9114 
													"/>
					</g>
					<g id="XMLID_14596_">
						<polygon id="XMLID_14597_" fill="#EF7B05" points="245.5397,237.0576 161.5935,205.4254 163.9424,199.1916 247.898,230.8287 
													"/>
					</g>
					<g id="XMLID_14594_">
						<polygon id="XMLID_14595_" fill="#EF7B05" points="245.5397,205.9774 161.5935,174.3352 163.9424,168.1019 247.898,199.7441 
													"/>
					</g>
					<g id="XMLID_14592_">
						<polygon id="XMLID_14593_" fill="#EF7B05" points="245.5397,174.8922 161.5885,143.2501 163.9329,137.0168 247.898,168.6589 
													"/>
					</g>
					<g id="XMLID_14590_">
						<polygon id="XMLID_14591_" fill="#EF7B05" points="245.5397,143.8026 161.5935,112.1604 163.9424,105.9316 247.898,137.5688 
													"/>
					</g>
					<g id="XMLID_14588_">
						<polygon id="XMLID_14589_" fill="#EF7B05" points="245.5397,112.7224 161.5885,81.0753 163.9374,74.8465 247.898,106.4886 
													"/>
					</g>
					<g id="XMLID_14586_">
						<polygon id="XMLID_14587_" fill="#EF7B05" points="245.5397,81.6323 161.5885,49.9951 163.9374,43.7618 247.898,75.4034 
													"/>
					</g>
				</g>
			</g>
			<path id="XMLID_14580_" fill="#EF7B05" d="M239.6982,229.8313l-19.9547-131.741c0,0-3.5551-25.2055-4.5287-32.7754
				c-4.059-31.6808-5.72-35.9094-10.1276-35.9094c-4.2331,0-5.8896,3.8507-9.4784,30.9349l-3.9281,29.5159l-17.8047,117.5548
				c-0.4161,2.7992-4.0297,27.4234-4.2187,29.6994c-1.23,15.1914,1.3227,25.9926,7.803,33.0249
				c5.8702,6.3642,14.9082,9.464,27.6268,9.464c17.0632,0,27.7384-5.6862,32.64-17.3781
				C241.0398,254.3459,241.6984,243.826,239.6982,229.8313z M234.6562,260.9334c-4.3878,10.4614-13.7844,15.3343-29.569,15.3343
				c-11.7355,0-19.974-2.7417-25.1807-8.3888c-5.8122-6.3062-8.0793-16.284-6.9262-30.4969
				c0.1453-1.8063,2.8865-20.6476,4.1894-29.4867l17.8042-117.54l3.938-29.6292c1.0559-7.9722,3.5308-26.0595,5.7929-28.0595h0.7554
				c2.4218,2,5.1437,22.8092,6.4515,33.0191c0.9736,7.5848,4.5331,32.8442,4.5331,32.8442l19.9646,131.7878
				C238.3035,243.5908,237.7272,253.6199,234.6562,260.9334z"/>
		</g>
	</g>
	<g id="XMLID_14566_">
		<g id="XMLID_14569_">
			<g id="XMLID_14576_">
				<path id="XMLID_14577_" fill="#EB7FC0" d="M227.7494,257.0098c0,0,7.4107,0.5331,17.7511,5.7348
					c2.6643,1.1239,5.231,2.9545,8.0594,4.737c2.9401,1.6565,5.5122,4.2038,8.3407,6.6256c2.9445,2.3152,5.289,5.473,7.8025,8.5247
					c2.6594,2.9639,4.5674,6.5482,6.5145,10.0934l2.7849,5.347c1.0028,2.2378,1.3565,3.6424,2.0632,5.4735
					c1.2355,3.4966,2.4461,6.7516,3.197,10.5294c0.7896,3.5938,1.7483,7.1102,1.8886,10.4133
					c0.2812,3.3031,0.6492,6.3741,0.3973,9.2508c-0.1017,5.6962-1.0802,10.3166-2.1649,13.3489
					c-0.9686,3.0413-1.9764,4.5624-1.9764,4.5624s0.2376-1.8505,0.0873-5.0276c-0.005-3.1484-0.4647-7.6721-1.4676-12.9512
					c-0.3293-2.635-1.2979-5.4442-1.9422-8.4274c-0.5813-2.9837-1.971-5.9382-2.8092-9.0673
					c-0.7653-3.0318-2.6152-6.4317-3.8358-9.8608c-0.6443-1.5598-1.4145-3.7396-1.9809-4.8629l-2.577-4.5529
					c-1.5499-3.0804-3.1042-6.2383-5.3564-8.8535c-2.1942-2.6738-3.807-5.7542-6.2675-7.9821
					c-2.4025-2.2666-4.2866-5.0276-6.7278-6.8582c-2.3925-1.9179-4.3685-4.175-6.6063-5.7155
					C234.3849,260.7394,227.7494,257.0098,227.7494,257.0098z"/>
			</g>
			<g id="XMLID_14574_">
				<path id="XMLID_14575_" fill="#FFA462" d="M212.8466,352.5031c0,0,2.0632-1.5697,5.6664-4.175
					c3.56-2.4605,8.602-5.9769,14.6999-10.2392c5.7249-4.2718,12.4041-9.348,16.3565-15.5956
					c4.1215-6.1222,4.3442-12.3991,1.787-20.042l-0.9929-2.6643l-1.5593-3.5159c-0.9205-1.8891-1.8554-3.6523-2.9693-5.5702
					c-2.1456-3.7292-4.5917-7.1389-7.2505-10.2194c-5.405-6.0255-11.9438-10.5299-18.3567-13.6683
					c-6.3593-3.1291-12.3649-4.9984-16.7146-6.1703c-4.3491-1.1432-7.0323-1.6372-7.0323-1.6372s2.3196-1.2692,6.8483-2.3925
					c4.4756-1.1432,11.2753-2.1604,19.7176-0.8526c8.2965,1.1626,18.4921,4.8823,27.1472,12.4572
					c4.3977,3.6424,8.2921,8.1467,11.4985,13.0965c1.5692,2.4124,3.0755,5.2215,4.422,7.9335l1.5836,3.5551
					c0.7365,1.8311,1.1239,3.013,1.6278,4.5822c1.9467,5.9377,2.7799,12.7959,1.5062,19.3447
					c-1.2885,6.577-4.6497,12.2345-8.4036,16.4289c-7.9578,8.1854-16.8063,11.74-24.1977,14.2684
					c-7.4831,2.4412-13.8181,3.5357-18.2451,4.2043C215.4569,352.2799,212.8466,352.5031,212.8466,352.5031z"/>
			</g>
			<g id="XMLID_14572_">
				<path id="XMLID_14573_" fill="#E7E643" d="M195.8364,360.2813c0,0,2.0726-1.5206,5.6426-4.1845
					c3.5838-2.5577,8.7855-6.0934,14.5883-10.4812c5.7006-4.3883,12.3119-9.5999,16.6223-16.0415
					c4.616-6.3256,5.6233-13.0191,3.5744-20.4392c-0.5907-1.7825-1.2979-4.0198-2.1356-5.5117
					c-1.0802-2.2765-2.1847-4.9116-3.2402-6.9261c-1.1432-1.6952-1.9908-3.5164-3.0566-5.2796
					c-1.3416-1.6466-2.3633-3.5645-3.6612-5.2404c-2.5478-3.2838-5.3812-6.1316-8.2777-8.7761
					c-2.8964-2.6058-6.0349-4.7276-9.0667-6.6162c-6.1078-3.7197-12.0168-5.9863-16.3029-7.4975
					c-4.3397-1.4338-7.0184-2.0345-7.0184-2.0345s2.3782-1.2593,6.9991-2.1699c4.6011-0.9394,11.5322-1.4046,19.9646,0.5714
					c4.2911,0.8139,8.7617,2.7417,13.3336,5.1635c4.6303,2.3152,8.907,5.9283,13.1406,9.8608
					c1.971,2.0245,3.8745,4.2529,5.72,6.5388c1.7339,2.4312,3.4772,5.1243,5.095,7.8174c1.4046,2.5379,2.3588,4.7077,3.56,7.1295
					c1.5256,3.2159,2.3439,6.0156,3.2401,9.222c1.5355,6.3444,1.7919,13.4645-0.2033,19.79
					c-1.8842,6.3256-5.3569,11.4886-9.164,15.4697c-7.9528,7.7301-16.598,11.5565-23.9894,14.201
					c-7.4296,2.5378-13.7888,3.7971-18.2307,4.5336C198.4809,360.0393,195.8364,360.2813,195.8364,360.2813z"/>
			</g>
			<g id="XMLID_14570_">
				<path id="XMLID_14571_" fill="#A8E858" d="M180.8365,362.0539c0,0,1.8599-1.4333,5.226-4.0297
					c3.3225-2.5086,8.1512-5.899,13.5275-10.1033c5.3182-4.2331,11.4692-9.2993,15.4116-15.673
					c4.3447-6.2581,5.2166-13.0871,3.008-20.6525c-0.6056-1.9278-1.2935-3.8943-2.2621-5.8896
					c-1.172-2.7511-2.0245-4.4657-3.0611-6.4416c-2.1505-4.059-4.5525-7.7495-7.134-11.1305
					c-5.2409-6.6643-11.4692-11.7792-17.6737-15.3244c-6.1559-3.6037-12.0455-5.6956-16.3029-7.0908
					c-4.2286-1.3079-6.8151-1.8693-6.8151-1.8693s2.0875-1.3371,6.3791-2.3831c4.2817-1.1139,10.7813-1.8792,19.0491-0.0774
					c4.117,0.7454,8.5777,2.5279,13.2081,4.9597c4.6303,2.3826,9.1154,6.025,13.3678,10.1901
					c4.3104,4.1656,7.9771,9.2413,11.067,14.5983c1.5355,2.7605,3.1583,5.9189,4.0927,8.1948
					c1.3322,2.9158,2.4317,6.1222,3.3423,9.3579c1.603,6.6063,2.0632,13.8905,0.3244,20.1967
					c-1.6565,6.2774-4.853,11.3432-8.3793,15.1696c-7.3036,7.4107-15.4067,10.9658-22.3666,13.3678
					c-7.0085,2.3057-13.0385,3.3617-17.2765,3.9622C183.3113,361.9185,180.8365,362.0539,180.8365,362.0539z"/>
			</g>
		</g>
		<g id="XMLID_14567_">
			<path id="XMLID_14568_" fill="#D98FFF" d="M198.602,288.0855c-1.9373-3.0804-3.381-8.3501-5.6376-11.1305
				c-4.548-5.3857-8.365-9.4154-14.3706-12.3991c-5.899-3.2645-9.7641-4.0684-14.3656-2.4992
				c-4.7414,1.3758-7.6091,4.3303-9.6287,6.6549c-0.7509,0.9785-1.2979,1.8599-1.8212,2.7219
				c4.243,0.3972,27.6511,26.5133,27.3074,44.0755c-0.2276,11.682-14.4286,27.8301-22.8467,38.9214
				c-1.0604,1.4145-2.0632,2.9545-2.9639,4.6497c-0.925,1.6858-1.9278,4.3397-2.1555,5.4442
				c-0.862,3.9717-1.0847,6.6742-1.598,9.9481c-0.6398,6.3354-0.9448,12.4478-0.3343,18.192
				c0.988,11.5372,4.5867,20.6138,7.1146,26.5034c2.6837,5.9183,4.2286,9.2993,4.2286,9.2993s-0.5426-3.623-1.4725-9.9099
				c-0.5619-3.1385-1.1526-6.8582-1.3947-11.0913c-0.3923-4.1849-0.4702-8.8054,0.121-13.6877
				c0.4211-4.8917,1.4626-10.0646,2.9639-15.3149c0.7796-2.5086,1.5742-5.0951,2.4317-7.6815
				c0.678-1.8212,0.9007-1.9278,1.4963-2.8384c0.5912-0.9007,1.419-1.8212,2.2715-2.7025c3.4147-3.6905,5.1923-7.0135,10.021-10.694
				c4.9552-3.6811,9.038-7.0908,14.1916-11.6051c5.1095-4.4944,6.8726-7.7395,10.2338-16.0609
				c1.6471-4.0779,2.5384-9.1441,2.0538-14.2685c-0.4409-5.1342,0.1017-10.1713-1.9566-14.4817
				C201.0818,295.1664,200.5392,291.4174,198.602,288.0855z"/>
		</g>
	</g>
</g>
</svg>
