<?xml version="1.0" encoding="utf-8"?>
<!-- Generator: Adobe Illustrator 19.0.0, SVG Export Plug-In . SVG Version: 6.00 Build 0)  -->
<svg version="1.1" id="Layer_1" xmlns="http://www.w3.org/2000/svg" xmlns:xlink="http://www.w3.org/1999/xlink" x="0px" y="0px"
	 viewBox="0 0 432.4 268.2" style="enable-background:new 0 0 432.4 268.2;" xml:space="preserve">
<style type="text/css">
	.st0{fill:#DDDD90;}
	.st1{fill:#EF7B05;}
	.st2{fill:#B2151B;}
</style>
<g id="XMLID_13528_">
	<g id="XMLID_11738_">
		<path id="XMLID_11944_" class="st0" d="M90.1,176.1c0,0,0,39.2,7.7,54.5c7.7,15.3,84.3-23,130.3-23c46,0,107.3,38.3,115,23
			c7.7-15.3,7.7-54.5,7.7-54.5l-122.7-52.8L90.1,176.1z"/>
		<path id="XMLID_11882_" class="st1" d="M97.4,185.9c-0.1-2.2-0.2-4.2-0.2-6c0-0.5-0.4-0.8-0.9-0.8c-0.5,0-0.8,0.4-0.8,0.9
			c0.1,1.8,0.1,3.8,0.2,6c0,0.5,0.4,0.8,0.9,0.8C97.1,186.8,97.4,186.4,97.4,185.9z M98.2,197.8c-0.2-2-0.3-4-0.5-5.9
			c0-0.5-0.4-0.8-0.9-0.8c-0.5,0-0.8,0.4-0.8,0.9c0.1,1.9,0.3,3.9,0.5,6c0,0.5,0.5,0.8,0.9,0.8C97.9,198.7,98.2,198.3,98.2,197.8z
			 M99.5,209.6c-0.3-1.9-0.5-3.9-0.7-5.9c-0.1-0.5-0.5-0.8-0.9-0.8c-0.5,0-0.8,0.5-0.8,0.9c0.2,2,0.5,4,0.7,5.9
			c0.1,0.5,0.5,0.8,1,0.7C99.3,210.5,99.6,210.1,99.5,209.6z M101.8,221.2c-0.5-1.8-0.9-3.7-1.3-5.8c-0.1-0.5-0.5-0.8-1-0.7
			c-0.5,0.1-0.8,0.5-0.7,1c0.4,2.1,0.8,4.1,1.3,5.9c0.1,0.5,0.6,0.7,1,0.6C101.6,222.1,101.9,221.7,101.8,221.2z M108.4,227.2
			c-0.5,0-1,0-1.5,0h0c-2.3,0-3.2-0.3-3.4-0.4l-0.3,0.8l0.8-0.4c-0.1-0.2-0.2-0.3-0.2-0.5c-0.2-0.4-0.7-0.6-1.1-0.4
			c-0.4,0.2-0.6,0.7-0.4,1.1c0.1,0.2,0.2,0.4,0.2,0.5c0.1,0.2,0.2,0.3,0.4,0.4c0.5,0.2,1.7,0.6,4.1,0.6h0c0.5,0,1.1,0,1.6,0
			c0.5,0,0.8-0.4,0.8-0.9C109.3,227.5,108.9,227.2,108.4,227.2L108.4,227.2z M120,225.4c-2.1,0.5-4,0.8-5.8,1.1
			c-0.5,0.1-0.8,0.5-0.7,1c0.1,0.5,0.5,0.8,1,0.7c1.8-0.3,3.8-0.7,5.9-1.2c0.5-0.1,0.8-0.6,0.6-1C121,225.6,120.5,225.3,120,225.4z
			 M131.6,222.5c-2,0.5-3.9,1.1-5.8,1.5c-0.5,0.1-0.7,0.6-0.6,1c0.1,0.5,0.6,0.7,1,0.6c1.9-0.5,3.8-1,5.8-1.5c0.5-0.1,0.7-0.6,0.6-1
			C132.5,222.6,132,222.4,131.6,222.5z M143,219.2c-1.9,0.6-3.8,1.1-5.7,1.7c-0.5,0.1-0.7,0.6-0.6,1.1c0.1,0.5,0.6,0.7,1.1,0.6
			c1.9-0.5,3.8-1.1,5.7-1.7c0.5-0.1,0.7-0.6,0.6-1.1C144,219.3,143.5,219.1,143,219.2z M154.5,215.8c-1,0.3-2,0.6-3,0.9
			c-0.9,0.3-1.8,0.5-2.8,0.8c-0.5,0.1-0.7,0.6-0.6,1.1c0.1,0.5,0.6,0.7,1.1,0.6c0.9-0.3,1.8-0.5,2.8-0.8c1-0.3,2-0.6,3-0.9
			c0.5-0.1,0.7-0.6,0.6-1.1C155.4,215.9,154.9,215.7,154.5,215.8z M165.9,212.5c-1.9,0.6-3.8,1.1-5.7,1.7c-0.5,0.1-0.7,0.6-0.6,1.1
			c0.1,0.5,0.6,0.7,1.1,0.6c1.9-0.6,3.8-1.1,5.7-1.7c0.4-0.1,0.7-0.6,0.6-1.1C166.8,212.6,166.4,212.3,165.9,212.5z M177.4,209.2
			c-1.9,0.5-3.8,1-5.8,1.6c-0.5,0.1-0.7,0.6-0.6,1.1s0.6,0.7,1.1,0.6c1.9-0.5,3.8-1.1,5.7-1.6c0.5-0.1,0.7-0.6,0.6-1
			C178.3,209.4,177.9,209.1,177.4,209.2z M189,206.3c-1.9,0.5-3.9,0.9-5.8,1.4c-0.5,0.1-0.7,0.6-0.6,1c0.1,0.5,0.6,0.7,1,0.6
			c1.9-0.5,3.9-1,5.8-1.4c0.5-0.1,0.7-0.6,0.6-1C189.9,206.4,189.5,206.2,189,206.3z M200.7,203.7c-1.9,0.4-3.9,0.8-5.9,1.2
			c-0.5,0.1-0.8,0.6-0.6,1c0.1,0.5,0.6,0.8,1,0.6c2-0.4,3.9-0.8,5.8-1.2c0.5-0.1,0.8-0.5,0.7-1C201.6,203.9,201.2,203.6,200.7,203.7
			z M212.5,201.7c-2,0.3-3.9,0.6-5.9,0.9c-0.5,0.1-0.8,0.5-0.7,1c0.1,0.5,0.5,0.8,1,0.7c2-0.3,3.9-0.6,5.9-0.9
			c0.5-0.1,0.8-0.5,0.7-1C213.4,202,213,201.7,212.5,201.7z M224.5,200.7c-2,0.1-4,0.2-6,0.4c-0.5,0-0.8,0.5-0.8,0.9
			c0,0.5,0.5,0.8,0.9,0.8c2-0.2,4-0.3,5.9-0.4c0.5,0,0.8-0.4,0.8-0.9C225.3,201,224.9,200.7,224.5,200.7z M236.5,201
			c-2-0.2-4-0.3-6-0.3c-0.5,0-0.9,0.4-0.9,0.8c0,0.5,0.4,0.9,0.8,0.9c1.9,0,3.9,0.2,5.9,0.3c0.5,0,0.9-0.3,0.9-0.8
			S237,201,236.5,201z M248.4,202.6c-2-0.3-4-0.7-5.9-0.9c-0.5-0.1-0.9,0.3-1,0.7c-0.1,0.5,0.3,0.9,0.7,1c1.9,0.3,3.9,0.6,5.9,0.9
			c0.5,0.1,0.9-0.2,1-0.7C249.2,203.1,248.9,202.7,248.4,202.6z M260.1,205.1c-1.9-0.5-3.9-0.9-5.8-1.3c-0.5-0.1-0.9,0.2-1,0.7
			c-0.1,0.5,0.2,0.9,0.7,1c1.9,0.4,3.9,0.9,5.8,1.3c0.5,0.1,0.9-0.2,1-0.6C260.9,205.6,260.6,205.2,260.1,205.1z M271.7,208.2
			c-1.9-0.6-3.8-1.1-5.8-1.6c-0.5-0.1-0.9,0.1-1,0.6c-0.1,0.5,0.1,0.9,0.6,1c1.9,0.5,3.8,1.1,5.7,1.6c0.5,0.1,0.9-0.1,1.1-0.6
			C272.4,208.8,272.1,208.3,271.7,208.2z M283.1,211.7c-1.9-0.6-3.8-1.2-5.7-1.8c-0.4-0.1-0.9,0.1-1.1,0.6c-0.1,0.4,0.1,0.9,0.6,1.1
			c1.9,0.6,3.8,1.2,5.7,1.8c0.4,0.1,0.9-0.1,1.1-0.5C283.8,212.3,283.5,211.9,283.1,211.7z M294.4,215.5c-1.9-0.6-3.7-1.3-5.7-1.9
			c-0.4-0.2-0.9,0.1-1.1,0.5c-0.2,0.4,0.1,0.9,0.5,1.1c1.9,0.6,3.8,1.3,5.6,1.9c0.4,0.2,0.9-0.1,1.1-0.5
			C295.1,216.2,294.8,215.7,294.4,215.5z M305.7,219.4c-1.8-0.6-3.5-1.2-5.3-1.9l-0.3-0.1c-0.4-0.2-0.9,0.1-1.1,0.5
			c-0.2,0.4,0.1,0.9,0.5,1.1l0.3,0.1c1.8,0.6,3.6,1.2,5.3,1.9c0.4,0.2,0.9-0.1,1.1-0.5C306.4,220.1,306.1,219.6,305.7,219.4z
			 M317,223.2c-1.8-0.6-3.7-1.2-5.7-1.8c-0.4-0.2-0.9,0.1-1.1,0.5c-0.1,0.4,0.1,0.9,0.5,1.1c1.9,0.7,3.8,1.3,5.7,1.9
			c0.5,0.1,0.9-0.1,1.1-0.6C317.7,223.8,317.4,223.4,317,223.2z M328.4,226.4c-1.8-0.4-3.7-0.9-5.7-1.4c-0.5-0.1-0.9,0.1-1.1,0.6
			c-0.1,0.5,0.1,0.9,0.6,1.1c2.1,0.6,4,1.1,5.8,1.5c0.5,0.1,0.9-0.2,1-0.7C329.1,226.9,328.9,226.5,328.4,226.4z M337.8,225.3
			c-0.3,0.8-0.6,1.5-0.9,2.1l0.8,0.4l-0.3-0.8c-0.1,0-0.7,0.3-2.2,0.3c-0.3,0-0.6,0-1,0c-0.5,0-0.9,0.3-0.9,0.8
			c0,0.5,0.3,0.9,0.8,0.9c0.4,0,0.7,0,1.1,0c1.7,0,2.5-0.3,2.9-0.4c0.2-0.1,0.3-0.2,0.4-0.4c0.3-0.7,0.7-1.4,1-2.2
			c0.2-0.4-0.1-0.9-0.5-1.1C338.5,224.6,338,224.9,337.8,225.3z M340.7,213.9c-0.4,2-0.8,4-1.2,5.8c-0.1,0.5,0.2,0.9,0.6,1
			c0.5,0.1,0.9-0.2,1-0.6c0.4-1.8,0.8-3.8,1.2-5.9c0.1-0.5-0.2-0.9-0.7-1C341.2,213.1,340.8,213.4,340.7,213.9z M342.3,202.1
			c-0.2,2-0.4,4-0.7,5.9c-0.1,0.5,0.3,0.9,0.7,1c0.5,0.1,0.9-0.3,1-0.7c0.3-2,0.5-4,0.7-6c0-0.5-0.3-0.9-0.8-0.9
			C342.7,201.3,342.3,201.6,342.3,202.1z M343.2,190.3c-0.1,1.9-0.3,3.9-0.4,5.9c0,0.5,0.3,0.9,0.8,0.9c0.5,0,0.9-0.3,0.9-0.8
			c0.2-2,0.3-4,0.4-6c0-0.5-0.3-0.9-0.8-0.9C343.7,189.4,343.3,189.8,343.2,190.3z M343.7,178.4c0,1.7-0.1,3.7-0.2,5.9
			c0,0.5,0.3,0.9,0.8,0.9c0.5,0,0.9-0.3,0.9-0.8c0.1-2.2,0.2-4.2,0.2-6c0-0.5-0.4-0.9-0.8-0.9C344.1,177.5,343.8,177.9,343.7,178.4z
			"/>
		<path id="XMLID_11821_" class="st1" d="M101.9,184.1c-0.1-2.1-0.2-4.1-0.3-6c0-0.5-0.4-0.8-0.9-0.8c-0.5,0-0.8,0.4-0.8,0.9
			c0.1,1.9,0.2,3.9,0.3,6c0,0.5,0.4,0.8,0.9,0.8C101.6,184.9,101.9,184.5,101.9,184.1z M102.7,195.9c-0.2-2-0.3-4-0.4-5.9
			c0-0.5-0.4-0.8-0.9-0.8c-0.5,0-0.8,0.4-0.8,0.9c0.1,2,0.3,4,0.4,6c0,0.5,0.4,0.8,0.9,0.8C102.4,196.8,102.7,196.4,102.7,195.9z
			 M103.9,207.8c-0.2-1.9-0.4-3.9-0.6-5.9c0-0.5-0.5-0.8-0.9-0.8c-0.5,0-0.8,0.5-0.8,0.9c0.2,2,0.4,4,0.7,6c0.1,0.5,0.5,0.8,0.9,0.7
			C103.6,208.7,103.9,208.3,103.9,207.8z M105.8,219.5c-0.4-1.7-0.8-3.7-1.1-5.8c-0.1-0.5-0.5-0.8-1-0.7c-0.5,0.1-0.8,0.5-0.7,1
			c0.3,2.2,0.7,4.2,1.1,5.9c0.1,0.5,0.6,0.7,1,0.6C105.6,220.4,105.9,219.9,105.8,219.5z M113.6,222.3c-2.2,0.4-4.2,0.6-5.8,0.7
			c-0.5,0-0.8,0.4-0.8,0.9c0,0.5,0.4,0.8,0.9,0.8c1.8-0.1,3.8-0.3,6-0.7c0.5-0.1,0.8-0.5,0.7-1C114.5,222.5,114.1,222.2,113.6,222.3
			z M125.2,219.7c-2,0.5-3.9,1-5.8,1.4c-0.5,0.1-0.7,0.6-0.6,1c0.1,0.5,0.6,0.7,1,0.6c1.9-0.4,3.8-0.9,5.8-1.4
			c0.5-0.1,0.7-0.6,0.6-1C126.1,219.9,125.6,219.6,125.2,219.7z M136.7,216.6c-2,0.6-3.9,1.1-5.7,1.6c-0.5,0.1-0.7,0.6-0.6,1
			c0.1,0.5,0.6,0.7,1,0.6c1.9-0.5,3.8-1.1,5.8-1.6c0.5-0.1,0.7-0.6,0.6-1.1C137.6,216.7,137.1,216.5,136.7,216.6z M148.1,213.2
			c-1.9,0.6-3.8,1.1-5.7,1.7c-0.5,0.1-0.7,0.6-0.6,1.1c0.1,0.5,0.6,0.7,1.1,0.6c1.9-0.6,3.8-1.1,5.7-1.7c0.5-0.1,0.7-0.6,0.6-1.1
			C149,213.4,148.6,213.1,148.1,213.2z M159.6,209.8c-1.9,0.6-3.8,1.1-5.7,1.7c-0.5,0.1-0.7,0.6-0.6,1.1c0.1,0.5,0.6,0.7,1.1,0.6
			c1.9-0.6,3.8-1.1,5.7-1.7c0.5-0.1,0.7-0.6,0.6-1.1C160.5,210,160,209.7,159.6,209.8z M171,206.5c-1.9,0.5-3.8,1.1-5.7,1.6
			c-0.5,0.1-0.7,0.6-0.6,1.1c0.1,0.5,0.6,0.7,1.1,0.6c1.9-0.5,3.8-1.1,5.7-1.6c0.5-0.1,0.7-0.6,0.6-1.1
			C172,206.7,171.5,206.4,171,206.5z M182.6,203.4c-1.9,0.5-3.9,1-5.8,1.5c-0.5,0.1-0.7,0.6-0.6,1c0.1,0.5,0.6,0.7,1,0.6
			c1.9-0.5,3.8-1,5.8-1.5c0.5-0.1,0.7-0.6,0.6-1C183.5,203.6,183,203.3,182.6,203.4z M194.2,200.7c-1.9,0.4-3.9,0.9-5.8,1.3
			c-0.5,0.1-0.7,0.6-0.6,1c0.1,0.5,0.6,0.7,1,0.6c1.9-0.5,3.9-0.9,5.8-1.3c0.5-0.1,0.8-0.6,0.7-1
			C195.1,200.9,194.7,200.6,194.2,200.7z M206,198.4c-1.9,0.3-3.9,0.7-5.9,1.1c-0.5,0.1-0.8,0.5-0.7,1c0.1,0.5,0.5,0.8,1,0.7
			c2-0.4,3.9-0.7,5.8-1.1c0.5-0.1,0.8-0.5,0.7-1C206.9,198.6,206.4,198.3,206,198.4z M217.8,196.8c-2,0.2-3.9,0.4-6,0.7
			c-0.5,0.1-0.8,0.5-0.7,1c0.1,0.5,0.5,0.8,1,0.7c2-0.3,4-0.5,5.9-0.7c0.5,0,0.8-0.5,0.8-0.9C218.7,197.1,218.3,196.8,217.8,196.8z
			 M229.8,196.3c-0.6,0-1.2,0-1.7,0c-1.4,0-2.8,0-4.3,0.1c-0.5,0-0.8,0.4-0.8,0.9c0,0.5,0.4,0.8,0.9,0.8c1.4-0.1,2.8-0.1,4.2-0.1
			c0.6,0,1.1,0,1.7,0c0.5,0,0.9-0.4,0.9-0.8C230.7,196.7,230.3,196.4,229.8,196.3z M241.8,197.2c-2-0.3-4-0.5-6-0.6
			c-0.5,0-0.9,0.3-0.9,0.8c0,0.5,0.3,0.9,0.8,0.9c1.9,0.1,3.9,0.3,5.9,0.6c0.5,0.1,0.9-0.3,1-0.7
			C242.6,197.7,242.3,197.3,241.8,197.2z M253.7,199.2c-2-0.4-3.9-0.8-5.9-1.1c-0.5-0.1-0.9,0.2-1,0.7c-0.1,0.5,0.2,0.9,0.7,1
			c1.9,0.3,3.9,0.7,5.8,1.1c0.5,0.1,0.9-0.2,1-0.7C254.4,199.7,254.1,199.3,253.7,199.2z M265.3,201.9c-1.9-0.5-3.9-1-5.8-1.4
			c-0.5-0.1-0.9,0.2-1,0.6c-0.1,0.5,0.2,0.9,0.6,1c1.9,0.5,3.9,0.9,5.8,1.4c0.5,0.1,0.9-0.2,1-0.6
			C266,202.5,265.8,202.1,265.3,201.9z M276.8,205.2c-1.9-0.6-3.8-1.1-5.7-1.7c-0.5-0.1-0.9,0.1-1.1,0.6c-0.1,0.5,0.1,0.9,0.6,1.1
			c1.9,0.5,3.8,1.1,5.7,1.7c0.5,0.1,0.9-0.1,1.1-0.6C277.5,205.8,277.3,205.4,276.8,205.2z M288.2,208.9c-1.9-0.6-3.8-1.2-5.7-1.9
			c-0.4-0.1-0.9,0.1-1.1,0.5c-0.1,0.5,0.1,0.9,0.5,1.1c1.9,0.6,3.8,1.2,5.7,1.9c0.4,0.1,0.9-0.1,1.1-0.5
			C288.9,209.5,288.6,209,288.2,208.9z M299.5,212.8c-1.8-0.6-3.7-1.3-5.6-2c-0.4-0.2-0.9,0.1-1.1,0.5c-0.2,0.4,0.1,0.9,0.5,1.1
			c1.9,0.7,3.8,1.3,5.6,1.9c0.4,0.2,0.9-0.1,1.1-0.5C300.2,213.4,299.9,212.9,299.5,212.8z M310.8,216.6c-1.9-0.6-3.7-1.3-5.6-1.9
			c-0.4-0.2-0.9,0.1-1.1,0.5c-0.2,0.4,0.1,0.9,0.5,1.1c1.9,0.7,3.8,1.3,5.6,1.9c0.4,0.2,0.9-0.1,1.1-0.5
			C311.5,217.3,311.2,216.8,310.8,216.6z M322.1,220.3c-1.8-0.5-3.7-1.1-5.7-1.8c-0.4-0.1-0.9,0.1-1.1,0.5c-0.1,0.4,0.1,0.9,0.5,1.1
			c2,0.6,3.9,1.2,5.7,1.8c0.5,0.1,0.9-0.1,1.1-0.6C322.8,220.9,322.5,220.4,322.1,220.3z M333.6,222.9c-1.6-0.2-3.6-0.5-5.8-1
			c-0.5-0.1-0.9,0.2-1,0.6c-0.1,0.5,0.2,0.9,0.6,1c2.2,0.5,4.3,0.9,6,1.1c0.5,0,0.9-0.3,0.9-0.8C334.4,223.3,334,222.9,333.6,222.9z
			 M336.3,213.3c-0.3,2.1-0.7,4.1-1.1,5.8c-0.1,0.5,0.2,0.9,0.6,1c0.5,0.1,0.9-0.2,1-0.6c0.4-1.8,0.8-3.8,1.1-5.9
			c0.1-0.5-0.2-0.9-0.7-1C336.8,212.5,336.4,212.8,336.3,213.3z M337.8,201.5c-0.2,2-0.4,4-0.7,5.9c-0.1,0.5,0.3,0.9,0.7,1
			c0.5,0.1,0.9-0.3,1-0.7c0.2-1.9,0.5-3.9,0.7-6c0-0.5-0.3-0.9-0.8-0.9C338.3,200.7,337.9,201,337.8,201.5z M338.8,189.6
			c-0.1,1.9-0.3,3.9-0.4,5.9c0,0.5,0.3,0.9,0.8,0.9c0.5,0,0.9-0.3,0.9-0.8c0.2-2,0.3-4,0.4-6c0-0.5-0.3-0.9-0.8-0.9
			C339.2,188.8,338.8,189.1,338.8,189.6z M339.4,177.7c-0.1,1.8-0.1,3.8-0.3,6c0,0.5,0.3,0.9,0.8,0.9c0.5,0,0.9-0.3,0.9-0.8
			c0.1-2.1,0.2-4.1,0.3-6c0-0.5-0.4-0.9-0.8-0.9C339.8,176.9,339.4,177.2,339.4,177.7z"/>
		<path id="XMLID_11819_" class="st0" d="M88.4,175.2c-7.2-6.8,9.4-105.6,32.4-128.6c23-23,66.4-30.7,99.7-30.7
			c33.2,0,76.7,7.7,99.7,30.7c23,23,40.9,121,32.4,128.6c-8.5,7.7-70.7-21.3-132.1-21.3C159.1,153.9,95.6,182.1,88.4,175.2z"/>
		<path id="XMLID_11817_" class="st1" d="M350.3,174c-16.3-5-77.3-22.7-129.9-22.7c-52.5,0-113.5,17.7-129.9,22.7
			c-0.7,0.2-1.1,0.9-0.8,1.6c0.2,0.7,0.9,1.1,1.6,0.8c16.2-5,77.1-22.6,129.1-22.6c52,0,112.9,17.6,129.1,22.6
			c0.7,0.2,1.4-0.2,1.6-0.8C351.3,174.9,351,174.2,350.3,174z"/>
		<ellipse id="XMLID_11815_" class="st1" cx="220.4" cy="15.5" rx="8.9" ry="4.3"/>
		<path id="XMLID_11813_" class="st2" d="M111.9,165.9c0.1-0.6,0.2-1.6,0.4-2.9c0.1-0.5-0.3-0.9-0.7-1c-0.5-0.1-0.9,0.3-1,0.7
			c-0.2,1.3-0.3,2.3-0.4,3c-0.1,0.5,0.3,0.9,0.7,0.9C111.4,166.7,111.8,166.4,111.9,165.9z"/>
		<path id="XMLID_11780_" class="st1" d="M192.2,24.5c1.9-0.9,3.7-1.8,5.3-2.5c0.4-0.2,0.6-0.7,0.4-1.1c-0.2-0.4-0.7-0.6-1.1-0.4
			c-1.6,0.7-3.4,1.6-5.3,2.6c-0.4,0.2-0.6,0.7-0.4,1.1C191.2,24.5,191.8,24.7,192.2,24.5z M181.7,29.9c1.8-1,3.5-1.9,5.2-2.7
			c0.4-0.2,0.6-0.7,0.4-1.1c-0.2-0.4-0.7-0.6-1.1-0.4c-1.7,0.9-3.4,1.8-5.2,2.8c-0.4,0.2-0.6,0.7-0.3,1.2
			C180.8,30,181.3,30.1,181.7,29.9z M171.5,35.7c1.7-1,3.4-2,5.1-3c0.4-0.2,0.6-0.8,0.3-1.2c-0.2-0.4-0.8-0.6-1.2-0.3
			c-1.7,1-3.4,2-5.1,3c-0.4,0.2-0.5,0.8-0.3,1.2C170.6,35.8,171.1,35.9,171.5,35.7z M161.6,42c1.6-1.1,3.3-2.2,4.9-3.2
			c0.4-0.3,0.5-0.8,0.3-1.2c-0.3-0.4-0.8-0.5-1.2-0.3c-1.7,1.1-3.3,2.2-5,3.3c-0.4,0.3-0.5,0.8-0.2,1.2
			C160.6,42.2,161.2,42.3,161.6,42z M152.2,49c1.5-1.2,3-2.4,4.6-3.6c0.4-0.3,0.5-0.8,0.2-1.2c-0.3-0.4-0.8-0.5-1.2-0.2
			c-1.6,1.2-3.2,2.4-4.7,3.6c-0.4,0.3-0.4,0.8-0.1,1.2C151.3,49.2,151.8,49.3,152.2,49z M143.6,57c1.3-1.4,2.6-2.8,4.1-4.1
			c0.3-0.3,0.4-0.9,0-1.2c-0.3-0.3-0.9-0.4-1.2,0c-1.5,1.4-2.9,2.8-4.2,4.2c-0.3,0.3-0.3,0.9,0.1,1.2
			C142.8,57.3,143.3,57.3,143.6,57z M137,66.4c0.8-1.5,1.6-2.8,2.4-4c0.2-0.3,0.4-0.6,0.6-0.9c0.3-0.4,0.2-0.9-0.2-1.2
			c-0.4-0.3-0.9-0.2-1.2,0.2c-0.2,0.3-0.5,0.7-0.7,1c-0.8,1.3-1.7,2.6-2.5,4.1c-0.2,0.4-0.1,0.9,0.4,1.2
			C136.2,67,136.8,66.8,137,66.4z M132.2,77.1c0.7-1.9,1.5-3.7,2.2-5.4c0.2-0.4,0-0.9-0.4-1.1c-0.4-0.2-0.9,0-1.1,0.4
			c-0.8,1.7-1.5,3.6-2.3,5.5c-0.2,0.4,0.1,0.9,0.5,1.1C131.6,77.7,132.1,77.5,132.2,77.1z M128.4,88.2c0.6-1.9,1.2-3.8,1.8-5.6
			c0.2-0.4-0.1-0.9-0.5-1.1c-0.4-0.2-0.9,0.1-1.1,0.5c-0.6,1.8-1.2,3.7-1.8,5.6c-0.1,0.4,0.1,0.9,0.6,1.1
			C127.8,88.9,128.3,88.6,128.4,88.2z M125.2,99.5c0.5-1.9,1-3.8,1.6-5.7c0.1-0.5-0.1-0.9-0.6-1.1c-0.5-0.1-0.9,0.1-1.1,0.6
			c-0.5,1.9-1.1,3.8-1.6,5.7c-0.1,0.5,0.1,0.9,0.6,1C124.6,100.2,125,100,125.2,99.5z M122.3,110.9c0.5-1.9,0.9-3.8,1.4-5.7
			c0.1-0.5-0.2-0.9-0.6-1c-0.5-0.1-0.9,0.2-1,0.6c-0.5,1.9-1,3.8-1.4,5.7c-0.1,0.5,0.2,0.9,0.6,1
			C121.7,111.7,122.2,111.4,122.3,110.9z M119.7,122.4c0.4-1.9,0.8-3.8,1.3-5.8c0.1-0.5-0.2-0.9-0.6-1c-0.5-0.1-0.9,0.2-1,0.6
			c-0.4,1.9-0.9,3.9-1.3,5.8c-0.1,0.5,0.2,0.9,0.7,1C119.1,123.2,119.6,122.9,119.7,122.4z M117.3,134c0.4-1.9,0.8-3.8,1.2-5.8
			c0.1-0.5-0.2-0.9-0.7-1c-0.5-0.1-0.9,0.2-1,0.7c-0.4,2-0.8,3.9-1.2,5.8c-0.1,0.5,0.2,0.9,0.7,1C116.8,134.7,117.2,134.4,117.3,134
			z M115.1,145.6c0.3-1.9,0.7-3.8,1.1-5.8c0.1-0.5-0.2-0.9-0.7-1c-0.5-0.1-0.9,0.2-1,0.7c-0.4,2-0.7,4-1.1,5.8
			c-0.1,0.5,0.2,0.9,0.7,1C114.6,146.3,115.1,146,115.1,145.6z M113.2,157.2c0.3-1.7,0.6-3.7,1-5.8c0.1-0.5-0.2-0.9-0.7-1
			c-0.5-0.1-0.9,0.2-1,0.7c-0.4,2.1-0.7,4.1-1,5.8c-0.1,0.5,0.2,0.9,0.7,1C112.7,158,113.1,157.7,113.2,157.2z"/>
		<path id="XMLID_11778_" class="st1" d="M202.7,19.6c0.9-0.4,1.5-0.7,2-0.9c0.5-0.2,0.7-0.3,0.7-0.3c0.4-0.2,0.6-0.7,0.5-1.1
			c-0.2-0.4-0.7-0.6-1.1-0.5c0,0-1,0.4-2.7,1.2c-0.4,0.2-0.6,0.7-0.4,1.1C201.8,19.6,202.3,19.8,202.7,19.6z"/>
		<path id="XMLID_11776_" class="st2" d="M333.7,165.7c-0.1-0.7-0.2-1.7-0.4-3c-0.1-0.5-0.5-0.8-1-0.7c-0.5,0.1-0.8,0.5-0.7,1
			c0.2,1.3,0.3,2.3,0.4,2.9c0.1,0.5,0.5,0.8,0.9,0.7C333.5,166.6,333.8,166.2,333.7,165.7z"/>
		<path id="XMLID_11743_" class="st1" d="M252.5,23c-1.9-1-3.7-1.8-5.3-2.6c-0.4-0.2-0.9,0-1.1,0.4c-0.2,0.4,0,0.9,0.4,1.1
			c1.6,0.7,3.4,1.6,5.3,2.5c0.4,0.2,0.9,0,1.1-0.4C253.1,23.7,252.9,23.2,252.5,23z M263,28.4c-1.8-1-3.6-1.9-5.2-2.8
			c-0.4-0.2-0.9,0-1.1,0.4c-0.2,0.4,0,0.9,0.4,1.1c1.7,0.9,3.4,1.8,5.2,2.7c0.4,0.2,0.9,0.1,1.2-0.3C263.6,29.1,263.5,28.6,263,28.4
			z M273.3,34.2c-1.7-1-3.4-2-5.1-3c-0.4-0.2-0.9-0.1-1.2,0.3c-0.2,0.4-0.1,0.9,0.3,1.2c1.7,1,3.4,1.9,5.1,3
			c0.4,0.2,0.9,0.1,1.2-0.3C273.9,35,273.7,34.5,273.3,34.2z M283.3,40.6c-1.6-1.1-3.3-2.2-5-3.3c-0.4-0.3-0.9-0.1-1.2,0.3
			c-0.3,0.4-0.1,0.9,0.3,1.2c1.6,1.1,3.3,2.1,4.9,3.2c0.4,0.3,0.9,0.2,1.2-0.2C283.8,41.4,283.7,40.9,283.3,40.6z M292.9,47.7
			c-1.5-1.2-3.1-2.5-4.7-3.6c-0.4-0.3-0.9-0.2-1.2,0.2c-0.3,0.4-0.2,0.9,0.2,1.2c1.6,1.2,3.1,2.4,4.6,3.6c0.4,0.3,0.9,0.2,1.2-0.1
			C293.3,48.5,293.2,48,292.9,47.7z M301.6,55.8c-1.3-1.4-2.7-2.8-4.2-4.2c-0.3-0.3-0.9-0.3-1.2,0c-0.3,0.3-0.3,0.9,0,1.2
			c1.5,1.4,2.8,2.7,4.1,4.1c0.3,0.3,0.9,0.4,1.2,0.1C301.8,56.7,301.9,56.2,301.6,55.8z M308.5,65.6c-0.8-1.5-1.6-2.9-2.5-4.1
			c-0.2-0.3-0.4-0.7-0.7-1c-0.3-0.4-0.8-0.5-1.2-0.2c-0.4,0.3-0.5,0.8-0.2,1.2c0.2,0.3,0.4,0.6,0.6,0.9c0.8,1.2,1.6,2.5,2.4,4
			c0.2,0.4,0.7,0.6,1.2,0.4C308.5,66.5,308.7,66,308.5,65.6z M313.3,76.5c-0.7-1.9-1.5-3.8-2.3-5.5c-0.2-0.4-0.7-0.6-1.1-0.4
			c-0.4,0.2-0.6,0.7-0.4,1.1c0.8,1.7,1.5,3.5,2.2,5.4c0.2,0.4,0.7,0.7,1.1,0.5C313.3,77.4,313.5,76.9,313.3,76.5z M317.2,87.7
			c-0.6-1.9-1.2-3.8-1.8-5.6c-0.2-0.4-0.6-0.7-1.1-0.5c-0.4,0.2-0.7,0.6-0.5,1.1c0.6,1.8,1.2,3.7,1.8,5.6c0.1,0.4,0.6,0.7,1.1,0.6
			C317,88.6,317.3,88.1,317.2,87.7z M320.4,99.1c-0.5-1.9-1-3.8-1.6-5.7c-0.1-0.5-0.6-0.7-1.1-0.6c-0.5,0.1-0.7,0.6-0.6,1.1
			c0.5,1.9,1.1,3.8,1.6,5.7c0.1,0.5,0.6,0.7,1,0.6C320.3,100,320.6,99.5,320.4,99.1z M323.3,110.5c-0.5-1.9-0.9-3.8-1.4-5.7
			c-0.1-0.5-0.6-0.7-1-0.6c-0.5,0.1-0.7,0.6-0.6,1c0.5,1.9,0.9,3.8,1.4,5.7c0.1,0.5,0.6,0.7,1,0.6
			C323.2,111.5,323.4,111,323.3,110.5L323.3,110.5z M325.9,122.1c-0.4-1.9-0.8-3.8-1.3-5.8c-0.1-0.5-0.6-0.7-1-0.6
			c-0.5,0.1-0.7,0.6-0.6,1c0.4,1.9,0.9,3.8,1.3,5.8c0.1,0.5,0.5,0.8,1,0.7C325.7,123,326,122.5,325.9,122.1z M328.3,133.6
			c-0.4-1.9-0.8-3.8-1.2-5.8c-0.1-0.5-0.5-0.8-1-0.7c-0.5,0.1-0.8,0.5-0.7,1c0.4,2,0.8,3.9,1.2,5.8c0.1,0.5,0.5,0.8,1,0.7
			C328.1,134.6,328.4,134.1,328.3,133.6z M330.5,145.3c-0.3-1.9-0.7-3.8-1.1-5.8c-0.1-0.5-0.5-0.8-1-0.7c-0.5,0.1-0.8,0.5-0.7,1
			c0.4,2,0.7,3.9,1.1,5.8c0.1,0.5,0.5,0.8,1,0.7C330.3,146.2,330.6,145.7,330.5,145.3z M332.5,156.9c-0.3-1.8-0.6-3.7-1-5.8
			c-0.1-0.5-0.5-0.8-1-0.7c-0.5,0.1-0.8,0.5-0.7,1c0.4,2.1,0.7,4.1,1,5.8c0.1,0.5,0.5,0.8,1,0.7
			C332.2,157.8,332.5,157.4,332.5,156.9z"/>
		<path id="XMLID_11740_" class="st1" d="M241.9,18c-1.8-0.8-2.7-1.2-2.7-1.2c-0.4-0.2-0.9,0-1.1,0.5c-0.2,0.4,0,0.9,0.5,1.1
			c0,0,0.2,0.1,0.7,0.3c0.5,0.2,1.1,0.5,2,0.9c0.4,0.2,0.9,0,1.1-0.4C242.5,18.7,242.4,18.2,241.9,18z"/>
	</g>
	
		<image style="overflow:visible;" width="559" height="468" id="XMLID_10323_" xlink:href="20190612_210504_809_1x.png"  transform="matrix(0.2392 1.752829e-004 -1.752829e-004 0.2392 151.9468 40.1959)">
	</image>
</g>
</svg>
