<?xml version="1.0" encoding="utf-8"?>
<!-- Generator: Adobe Illustrator 19.0.0, SVG Export Plug-In . SVG Version: 6.00 Build 0)  -->
<svg version="1.1" id="Layer_1" xmlns="http://www.w3.org/2000/svg" xmlns:xlink="http://www.w3.org/1999/xlink" x="0px" y="0px"
	 viewBox="0 0 432.4 280.4" style="enable-background:new 0 0 432.4 280.4;" xml:space="preserve">
<style type="text/css">
	.st0{fill-rule:evenodd;clip-rule:evenodd;fill:#4D4D4F;}
	.st1{fill-rule:evenodd;clip-rule:evenodd;fill:#D0E3EF;}
	.st2{fill-rule:evenodd;clip-rule:evenodd;fill:#6D6E70;}
	.st3{fill-rule:evenodd;clip-rule:evenodd;fill:#626366;}
	.st4{fill-rule:evenodd;clip-rule:evenodd;fill:url(#XMLID_70_);}
</style>
<g id="XMLID_10678_">
	<path id="XMLID_13872_" class="st0" d="M90.8,209.6c1.8,0.8,9,3.2,31.7,2.5c68.2-2,127.8-2,196.1,0c22.7,0.7,29.9-1.7,31.7-2.5
		c-0.7,0.2-1.8-0.3-3.2-1.6c-46-43.8-207.1-43.8-253.1,0C92.6,209.3,91.6,209.7,90.8,209.6z"/>
	<path id="XMLID_13835_" class="st1" d="M92,192.4c0,0-1.3,8.7-2.1,12.8c-0.8,4.1,0.7,6,4.1,2.8c46-43.8,207.1-43.8,253.1,0
		c3.4,3.3,4.9,1.3,4.1-2.8c-0.8-4.1-2.1-12.8-2.1-12.8c-4.6-51.5-14.7-90.8-25.2-109.7c-10.5-19-25.8-26.2-52.3-34
		c-30.3-9-71.7-9-102,0c-26.5,7.8-41.9,15-52.3,34C106.8,101.7,96.6,140.9,92,192.4z"/>
	<path id="XMLID_13833_" class="st2" d="M115,194.2c1.4-17.1-1-45.4-0.8-59.9c0.3-34.3,13.8-61.7,36.6-79.3
		c-1.9,0.7-3.7,1.5-5.4,2.3c-20.3,17.6-32.5,43.6-33.1,75.7c-0.3,15.4,1.9,46-0.2,62.6C113,195.1,114,194.7,115,194.2z"/>
	<path id="XMLID_13615_" class="st3" d="M208.1,42.3c-0.3-1.6-0.4-3.9,0.5-5c4.4-5.3,19.5-5.3,23.9,0c0.9,1.1,0.8,3.4,0.5,5
		C224.7,41.8,216.4,41.8,208.1,42.3z"/>
	<path id="XMLID_13613_" class="st1" d="M208.6,37.3c4.4-5.3,19.5-5.3,23.9,0C231.1,40.3,208.9,38.1,208.6,37.3z"/>
	<path id="XMLID_13611_" class="st0" d="M167.8,61.2c-5.3,2.8,0.8,4.4,3.2,1.8C171.9,62,172.8,59.8,167.8,61.2z"/>
	<path id="XMLID_13609_" class="st2" d="M326.1,194.2c-1.4-17.1,1-45.4,0.8-59.9c-0.3-34.3-13.8-61.7-36.6-79.3
		c1.9,0.7,3.7,1.5,5.4,2.3c20.3,17.6,32.5,43.6,33.1,75.7c0.3,15.4-1.9,46,0.2,62.6C328.1,195.1,327.1,194.7,326.1,194.2z"/>
	<path id="XMLID_13607_" class="st0" d="M273.3,61.2c5.3,2.8-0.8,4.4-3.2,1.8C269.2,62,268.3,59.8,273.3,61.2z"/>
	<path id="XMLID_13604_" class="st1" d="M100.4,202.7c-1.7,7.3-4.3,18.8-5.1,26c-1.1,11.1,0.2,18.6,6.5,19.9
		c6.4,1.3,10.3-0.3,28.5-12.3c52.7-34.7,127.6-34.7,180.3,0c18.2,11.9,22.1,13.6,28.5,12.3c6.4-1.3,7.7-8.8,6.5-19.9
		c-0.7-7.2-3.3-18.7-5.1-26C290,166,151.1,166,100.4,202.7z"/>
	<linearGradient id="XMLID_70_" gradientUnits="userSpaceOnUse" x1="126.1155" y1="211.5804" x2="316.4577" y2="211.5804">
		<stop  offset="0" style="stop-color:#626366"/>
		<stop  offset="0.48" style="stop-color:#757876"/>
		<stop  offset="1" style="stop-color:#626366"/>
	</linearGradient>
	<path id="XMLID_10682_" class="st4" d="M318.5,224.6c11.9,7.9,12.1,4.3,12.1-4.2c0-2.4-0.1-5.3-0.3-8.2c-0.4-5.5-0.7-11-1.2-16.5
		c-0.9-0.5-1.9-0.9-2.9-1.4c0.6,6,0.8,12.1,1.3,18.2c0.2,2.7,0.3,5.4,0.3,8c0.1,8.1-0.8,6.5-7.8,1.9c-58-37.1-140.8-37.2-198.8,0
		c-7,4.6-7.9,6.2-7.8-1.9c0-2.7,0.1-5.4,0.3-8c0.5-6,0.7-12.2,1.3-18.2c-1,0.5-1.9,0.9-2.9,1.4c-0.5,5.5-0.7,11-1.2,16.5
		c-0.2,2.9-0.3,5.9-0.3,8.2c-0.1,8.5,0.1,12.1,12.1,4.2C180.1,186.8,261,186.8,318.5,224.6z"/>
	<path id="XMLID_10680_" class="st3" d="M95.1,233.1c-0.4,8.7,1.4,14.4,6.9,15.5c6.4,1.3,10.3-0.3,28.5-12.3
		c52.7-34.7,127.6-34.7,180.3,0c18.2,11.9,22.1,13.6,28.5,12.3c5.5-1.1,7.2-6.8,6.9-15.5c-0.3,6.4-2.3,10.6-6.9,11.6
		c-6.4,1.3-10.3-0.3-28.5-12.3c-52.7-34.7-127.6-34.7-180.3,0c-18.1,11.9-22.1,13.6-28.5,12.3C97.3,243.7,95.4,239.6,95.1,233.1z"/>
</g>
<image style="overflow:visible;" width="1414" height="263" id="XMLID_1433_" xlink:href="OB-Logo-2019-Web-Orange.png"  transform="matrix(9.505703e-002 0 0 9.505703e-002 153.3444 116.8631)">
</image>
</svg>
