<?xml version="1.0" encoding="utf-8"?>
<!-- Generator: Adobe Illustrator 19.0.0, SVG Export Plug-In . SVG Version: 6.00 Build 0)  -->
<svg version="1.1" id="Layer_1" xmlns="http://www.w3.org/2000/svg" xmlns:xlink="http://www.w3.org/1999/xlink" x="0px" y="0px"
	 viewBox="0 0 340.5 428.4" style="enable-background:new 0 0 340.5 428.4;" xml:space="preserve">
<style type="text/css">
	.st0{fill:#EF7B05;}
	.st1{fill:#FFFFFF;}
	.st2{fill:#EB7FC0;}
	.st3{fill:#DA8FFF;}
	.st4{fill:#76D6EE;}
	.st5{fill:#EC7FC0;}
	.st6{fill:#A8E858;}
	.st7{fill:#E8E644;}
	.st8{fill:#FFA462;}
	.st9{clip-path:url(#XMLID_184_);}
	.st10{fill:#E7E643;}
	.st11{fill:#D98FFF;}
</style>
<g id="XMLID_14317_">
	<g id="XMLID_14433_">
		<g id="XMLID_14451_">
			<path id="XMLID_14453_" class="st0" d="M282.3,372.1c-1.7-20.1-12.9-29.4-30.2-30.3c-11.7-0.6-31.4-0.6-47.2,3.3v-0.3h-72.6v0.4
				c-15.9-4-36-4-47.8-3.4c-17.3,0.9-28.5,10.2-30.2,30.3c0,2.2-0.2,2.9-0.2,6.1c0,2.3,0.1,4.7,0.4,7.3c2.1,22.1,18.3,39.3,39,40.2
				c25.1,1.1,62.3-38,62.8-60.2c0.1-2.6,0.5-6,2.6-8.4c1.8-1.9,5.5-2.6,9.4-2.6c3.9,0,7.3,1.1,9.4,2.6c2.2,1.9,2.7,3.5,2.6,8.4
				c-0.2,22.2,37.6,61.3,62.8,60.2c20.7-0.9,37-18.1,39-40.2c0.2-2.5,0.3-4.9,0.4-7.3C282.5,374.9,282.3,373.2,282.3,372.1z
				 M93.3,423.3c-20.1-0.9-35.9-17.1-37.9-38c-2.7-27.8,9-40.2,29.2-41.3c21.1-1.1,69.3-0.1,69.7,22.4
				C154.6,387.5,117.7,424.3,93.3,423.3z M93.3,423.3c-20.1-0.9-35.9-17.1-37.9-38c-2.7-27.8,9-40.2,29.2-41.3
				c21.1-1.1,69.3-0.1,69.7,22.4C154.6,387.5,117.7,424.3,93.3,423.3z M178.8,355.7c-2.3-2-5.9-3.1-10.4-3.1c0,0,0,0-0.1,0
				c0,0,0,0-0.1,0c-4.5,0-8,1.2-10.4,3.1c-1.5,1.1-2.5,2.4-2.9,3.7c-3-6.9-11.1-11.2-21-13.9h68.8c-9.9,2.7-18,7.1-21,13.9
				C181.3,358.1,180.2,356.8,178.8,355.7z M281.1,385.3c-2,20.9-17.7,37.2-37.9,38c-24.4,1-61.3-35.9-61-56.9
				c0.3-22.5,48.6-23.5,69.7-22.4C272.1,345.1,283.7,357.5,281.1,385.3z M281.1,385.3c-2,20.9-17.7,37.2-37.9,38
				c-24.4,1-61.3-35.9-61-56.9c0.3-22.5,48.6-23.5,69.7-22.4C272.1,345.1,283.7,357.5,281.1,385.3z"/>
		</g>
		<g id="XMLID_14435_">
			<g id="XMLID_14445_">
				<g id="XMLID_14449_">
					<path id="XMLID_14299_" class="st1" d="M127.2,346.3l-54.2,70c5.8,4.1,12.8,6.6,20.4,7c0.2,0,0.3,0,0.5,0l53.6-69.2
						C142.4,350.4,135.2,347.9,127.2,346.3z"/>
				</g>
				<g id="XMLID_14446_">
					<path id="XMLID_14297_" class="st1" d="M124.3,345.4c-0.7-0.1-1.3-0.2-2-0.3l-52.6,68c0.4,0.4,0.9,0.8,1.3,1.2L124.3,345.4z"/>
				</g>
			</g>
			<g id="XMLID_14437_">
				<g id="XMLID_14442_">
					<path id="XMLID_14295_" class="st1" d="M213.5,411.6c6.1,4.4,12.4,8,18.5,9.9l46.6-60.4c-2.9-7.3-8-12.2-14.8-14.8L213.5,411.6
						z"/>
				</g>
				<g id="XMLID_14439_">
					<path id="XMLID_14293_" class="st1" d="M211.2,409.9l49.9-64.4c-0.6-0.2-1.2-0.3-1.9-0.5l-49.4,63.8
						C210.3,409.2,210.8,409.5,211.2,409.9z"/>
				</g>
			</g>
		</g>
	</g>
	<g id="XMLID_14319_">
		<g id="XMLID_14347_">
			<g id="XMLID_14423_">
				<g id="XMLID_14425_">
					<path id="XMLID_14427_" class="st0" d="M7.3,192.7c0,0.1,0-1.6,0.5-4.3c0.2-1.4,0.6-3,1.2-5.1c0.6-2,1.6-4.4,3.5-7
						c1-1.3,2.4-2.7,4.3-3.7c1.9-1.1,4.3-1.6,6.5-1.6c4.7,0.2,7.7,2.2,11.1,4.3c2.5,1.9,5.2,4.1,8,6.5c2.7,2.4,5.6,4.8,8.4,7.5
						c11.5,10.6,24,23.8,36.7,38.5c6.4,7.3,12.8,15.1,18.7,23.3c3,4.1,5.8,8.4,8.3,12.9c0.7,1.1,1,2.3,1.6,3.5
						c0.5,1.2,1.1,2.3,1.2,3.7c0.4,2.6-0.8,5.1-2.6,7c-3.8,3.5-8.9,5.3-13.8,6.4c-5,1.1-10.1,1.5-15.2,1.4
						c-10.1-0.2-20.1-2.3-29.1-5.9c-9.1-3.5-17.3-8.6-23.8-14.9c-6.6-6.2-11.7-13.4-15.4-20.5c-3.6-7.2-5.9-14.3-7.3-20.6
						c-1.4-6.4-2.2-12-2.5-16.7c-0.5-4.7-0.4-8.3-0.4-10.8C7.3,194.1,7.3,192.7,7.3,192.7z M17.6,193.4c0,0-0.1,1.2-0.2,3.6
						c0,2.3-0.5,5.8-0.4,10.1c-0.1,4.4,0.1,9.6,0.8,15.6c0.8,6,2.2,12.7,4.8,19.7c2.7,6.9,6.6,14.2,12.4,20.7
						c5.7,6.5,13.1,12.3,21.9,16.2c4.3,2.1,9,3.6,13.8,4.8c4.9,1.1,9.9,1.7,14.9,1.9c5.1,0.1,10.2-0.3,15.2-1.4
						c5-1.1,10-2.9,13.8-6.4c1.8-1.8,3-4.4,2.6-7c-0.1-1.3-0.7-2.4-1.2-3.6c-0.6-1.2-0.9-2.4-1.6-3.5c-2.5-4.5-5.4-8.7-8.6-12.6
						c-6.3-7.9-13.3-15-20.4-21.6c-14.1-13.1-28.2-24.3-40.4-33.7c-3-2.3-6-4.5-8.7-6.6c-2.7-1.9-5.3-3.8-8-5.5
						c-2-1.1-4.2-2.2-5.1-2c-0.8,0-1.1,0.1-2,1.1c-1.6,1.9-2.5,5.2-2.9,7.1C17.7,192.5,17.7,193.3,17.6,193.4z"/>
				</g>
			</g>
			<path id="XMLID_14287_" class="st2" d="M99.5,282.7c-17,1.9-34.3-3.1-46.4-13.3c-14.4-12.2-23.6-59-23.6-59.6
				c20.3-11.7,92.9,55.8,85.1,68.7C111.7,280,106.7,281.9,99.5,282.7z"/>
			<g id="XMLID_14411_">
				<g id="XMLID_14413_">
					<path id="XMLID_14415_" class="st0" d="M318,193.4c0-0.1-0.1-0.9-0.5-3c-0.4-1.9-1.3-5.1-2.6-7.2c-0.7-1-1-1.3-2-1.5
						c-1-0.3-3.3,0.8-5.4,1.9c-2.7,1.7-5.3,3.5-8.1,5.5c-2.8,2.1-5.7,4.3-8.8,6.6c-12.2,9.3-26.3,20.6-40.2,33.9
						c-7,6.6-13.9,13.9-20.2,21.8c-3.2,4-6,8.2-8.6,12.7c-0.7,1.1-1.1,2.3-1.6,3.5c-0.5,1.2-1.1,2.3-1.2,3.6c-0.4,2.6,0.8,5.1,2.6,7
						c3.8,3.5,8.9,5.3,13.8,6.4c5,1.1,10.1,1.4,15.2,1.3c10.1-0.5,20-2.8,28.6-7c8.7-4,16.1-9.8,21.7-16.2
						c5.7-6.5,9.6-13.6,12.2-20.5c2.5-7,4.1-13.6,4.8-19.5c0.7-6,1-11.2,0.8-15.6c0.1-4.3-0.3-7.7-0.4-10.1
						C318.1,194.7,318,193.4,318,193.4z M329.2,192.7c0,0,0,1.3,0,3.9c0,2.5,0.2,6.2-0.3,10.9c-0.3,4.7-1.1,10.4-2.4,16.8
						c-1.4,6.4-3.7,13.5-7.2,20.8c-3.7,7.2-8.8,14.4-15.5,20.7c-6.7,6.3-14.9,11.4-24.1,14.9c-9.1,3.5-19.1,5.5-29.3,5.6
						c-5.1,0-10.2-0.4-15.2-1.5c-4.9-1.2-10-2.9-13.8-6.5c-1.8-1.8-3-4.4-2.6-7c0.1-1.3,0.7-2.5,1.2-3.6c0.5-1.2,0.9-2.4,1.6-3.5
						c2.4-4.5,5.3-8.8,8.4-12.8c6-8.2,12.5-15.8,18.9-23.1c12.9-14.5,25.5-27.6,36.8-38.3c2.8-2.7,5.7-5.2,8.3-7.5
						c2.8-2.4,5.5-4.6,7.9-6.5c3.2-2.1,6.2-4.2,10.7-4.5c2.2-0.1,4.5,0.3,6.5,1.4c1.9,1,3.4,2.3,4.4,3.6c4.1,5.2,4.5,9.4,5.1,12.1
						C329.1,191,329.2,192.8,329.2,192.7z"/>
				</g>
			</g>
			<path id="XMLID_14277_" class="st2" d="M236.6,282.7c17,1.9,34.3-3.1,46.4-13.3c14.4-12.2,23.6-59,23.6-59.6
				c-20.3-11.7-92.9,55.8-85.1,68.7C224.3,280,229.4,281.9,236.6,282.7z"/>
			<g id="XMLID_14349_">
				<g id="XMLID_14391_">
					<path id="XMLID_14275_" class="st3" d="M132.6,218.1l61.7,23.6c2.9-7,3.7-16.8,1.8-30.4l-59.3-22.6
						C136.8,188.6,132.8,215.9,132.6,218.1z"/>
					<path id="XMLID_14273_" class="st4" d="M136.8,188.6l59.3,22.6c0-0.1,0-0.1,0-0.2l-5-32.8l-49.8-19L136.8,188.6z"/>
					<path id="XMLID_14271_" class="st5" d="M164.7,257c14,0,24.7-3.8,29.6-15.3l-61.7-23.6C130.1,248.6,143.8,257,164.7,257z"/>
					<polygon id="XMLID_14269_" class="st6" points="141.2,159.2 191,178.3 186,145.3 145.7,129.9 					"/>
					<polygon id="XMLID_14267_" class="st7" points="145.7,129.9 186,145.3 181,112.3 150.1,100.5 					"/>
					<polygon id="XMLID_14263_" class="st8" points="154.6,71.1 150.1,100.5 181,112.3 176.1,79.3 					"/>
					<path id="XMLID_14261_" class="st5" d="M171.5,46.5l-13-5c-1.2,9.2-3.9,29.6-3.9,29.6l21.5,8.2
						C176.1,79.3,172.5,54.1,171.5,46.5z"/>
					<path id="XMLID_14259_" class="st3" d="M164.7,13.5c-2.1,0-4.2,13.5-6.2,28l13,5C169.4,30.1,167.1,13.5,164.7,13.5z"/>
				</g>
				<g id="XMLID_14357_">
					<defs>
						<path id="XMLID_14240_" d="M164.7,260.3c-12.7,0-21.8-3.1-27.6-9.5c-6.5-7-9-17.8-7.8-33c0.2-2.3,3.8-26.9,4.2-29.7
							l17.8-117.6l3.9-29.5c3.6-27.1,5.2-30.9,9.5-30.9c4.4,0,6.1,4.2,10.1,35.9c1,7.6,4.5,32.8,4.5,32.8l20,131.7
							c2,14,1.3,24.5-2,32.4C192.4,254.6,181.8,260.3,164.7,260.3z"/>
					</defs>
					<clipPath id="XMLID_184_">
						<use xlink:href="#XMLID_14240_"  style="overflow:visible;"/>
					</clipPath>
					<g id="XMLID_14361_" class="st9">
						<g id="XMLID_14387_">
							<polygon id="XMLID_14257_" class="st0" points="205.1,248.9 121.2,217.2 123.5,211 207.5,242.6 							"/>
						</g>
						<g id="XMLID_14383_">
							<polygon id="XMLID_14254_" class="st0" points="205.1,217.8 121.2,186.2 123.5,179.9 207.5,211.6 							"/>
						</g>
						<g id="XMLID_14379_">
							<polygon id="XMLID_14252_" class="st0" points="205.1,186.7 121.2,155.1 123.5,148.8 207.5,180.5 							"/>
						</g>
						<g id="XMLID_14375_">
							<polygon id="XMLID_14250_" class="st0" points="205.1,155.6 121.2,124 123.5,117.7 207.5,149.4 							"/>
						</g>
						<g id="XMLID_14371_">
							<polygon id="XMLID_14248_" class="st0" points="205.1,124.5 121.2,92.9 123.5,86.7 207.5,118.3 							"/>
						</g>
						<g id="XMLID_14367_">
							<polygon id="XMLID_14246_" class="st0" points="205.1,93.5 121.2,61.8 123.5,55.6 207.5,87.2 							"/>
						</g>
						<g id="XMLID_14363_">
							<polygon id="XMLID_14242_" class="st0" points="205.1,62.4 121.2,30.7 123.5,24.5 207.5,56.1 							"/>
						</g>
					</g>
				</g>
				<path id="XMLID_14351_" class="st0" d="M199.3,210.6l-20-131.7c0,0-3.6-25.2-4.5-32.8c-4.1-31.7-5.7-35.9-10.1-35.9
					c-4.2,0-5.9,3.9-9.5,30.9l-3.9,29.5l-17.8,117.6c-0.4,2.8-4,27.4-4.2,29.7c-1.2,15.2,1.3,26,7.8,33c5.9,6.4,14.9,9.5,27.6,9.5
					c17.1,0,27.7-5.7,32.6-17.4C200.6,235.1,201.3,224.6,199.3,210.6z M194.3,241.7c-4.4,10.5-13.8,15.3-29.6,15.3
					c-11.7,0-20-2.7-25.2-8.4c-5.8-6.3-8.1-16.3-6.9-30.5c0.1-1.8,2.9-20.6,4.2-29.5l17.8-117.5l3.9-29.6c1.1-8,3.5-26.6,5.8-28h0.8
					c2.4,1.5,5.1,22.8,6.5,33c1,7.6,4.5,32.8,4.5,32.8l20,131.8C197.9,224.3,197.3,234.3,194.3,241.7z"/>
			</g>
		</g>
		<g id="XMLID_14321_">
			<g id="XMLID_14329_">
				<g id="XMLID_14343_">
					<path id="XMLID_14234_" class="st2" d="M187.4,237.7c0,0,7.4,0.5,17.8,5.7c2.7,1.1,5.2,3,8.1,4.7c2.9,1.7,5.5,4.2,8.3,6.6
						c2.9,2.3,5.3,5.5,7.8,8.5c2.7,3,4.6,6.5,6.5,10.1l2.8,5.3c1,2.2,1.4,3.6,2.1,5.5c1.2,3.5,2.4,6.8,3.2,10.5
						c0.8,3.6,1.7,7.1,1.9,10.4c0.3,3.3,0.6,6.4,0.4,9.3c-0.1,5.7-1.1,10.3-2.2,13.3c-1,3-2,4.6-2,4.6s0.2-1.9,0.1-5
						c0-3.1-0.5-7.7-1.5-13c-0.3-2.6-1.3-5.4-1.9-8.4c-0.6-3-2-5.9-2.8-9.1c-0.8-3-2.6-6.4-3.8-9.9c-0.6-1.6-1.4-3.7-2-4.9l-2.6-4.6
						c-1.5-3.1-3.1-6.2-5.4-8.9c-2.2-2.7-3.8-5.8-6.3-8c-2.4-2.3-4.3-5-6.7-6.9c-2.4-1.9-4.4-4.2-6.6-5.7
						C194,241.5,187.4,237.7,187.4,237.7z"/>
				</g>
				<g id="XMLID_14339_">
					<path id="XMLID_14230_" class="st8" d="M172.5,333.2c0,0,2.1-1.6,5.7-4.2c3.6-2.5,8.6-6,14.7-10.2c5.7-4.3,12.4-9.3,16.4-15.6
						c4.1-6.1,4.3-12.4,1.8-20l-1-2.7l-1.6-3.5c-0.9-1.9-1.9-3.7-3-5.6c-2.1-3.7-4.6-7.1-7.3-10.2c-5.4-6-11.9-10.5-18.4-13.7
						c-6.4-3.1-12.4-5-16.7-6.2c-4.3-1.1-7-1.6-7-1.6s2.3-1.3,6.8-2.4c4.5-1.1,11.3-2.2,19.7-0.9c8.3,1.2,18.5,4.9,27.1,12.5
						c4.4,3.6,8.3,8.1,11.5,13.1c1.6,2.4,3.1,5.2,4.4,7.9l1.6,3.6c0.7,1.8,1.1,3,1.6,4.6c1.9,5.9,2.8,12.8,1.5,19.3
						c-1.3,6.6-4.6,12.2-8.4,16.4c-8,8.2-16.8,11.7-24.2,14.3c-7.5,2.4-13.8,3.5-18.2,4.2C175.1,333,172.5,333.2,172.5,333.2z"/>
				</g>
				<g id="XMLID_14335_">
					<path id="XMLID_14228_" class="st10" d="M155.4,341c0,0,2.1-1.5,5.6-4.2c3.6-2.6,8.8-6.1,14.6-10.5c5.7-4.4,12.3-9.6,16.6-16
						c4.6-6.3,5.6-13,3.6-20.4c-0.6-1.8-1.3-4-2.1-5.5c-1.1-2.3-2.2-4.9-3.2-6.9c-1.1-1.7-2-3.5-3.1-5.3c-1.3-1.6-2.4-3.6-3.7-5.2
						c-2.5-3.3-5.4-6.1-8.3-8.8c-2.9-2.6-6-4.7-9.1-6.6c-6.1-3.7-12-6-16.3-7.5c-4.3-1.4-7-2-7-2s2.4-1.3,7-2.2
						c4.6-0.9,11.5-1.4,20,0.6c4.3,0.8,8.8,2.7,13.3,5.2c4.6,2.3,8.9,5.9,13.1,9.9c2,2,3.9,4.3,5.7,6.5c1.7,2.4,3.5,5.1,5.1,7.8
						c1.4,2.5,2.4,4.7,3.6,7.1c1.5,3.2,2.3,6,3.2,9.2c1.5,6.3,1.8,13.5-0.2,19.8c-1.9,6.3-5.4,11.5-9.2,15.5
						c-8,7.7-16.6,11.6-24,14.2c-7.4,2.5-13.8,3.8-18.2,4.5C158.1,340.8,155.4,341,155.4,341z"/>
				</g>
				<g id="XMLID_14331_">
					<path id="XMLID_14226_" class="st6" d="M140.4,342.8c0,0,1.9-1.4,5.2-4c3.3-2.5,8.2-5.9,13.5-10.1c5.3-4.2,11.5-9.3,15.4-15.7
						c4.3-6.3,5.2-13.1,3-20.7c-0.6-1.9-1.3-3.9-2.3-5.9c-1.2-2.8-2-4.5-3.1-6.4c-2.2-4.1-4.6-7.7-7.1-11.1
						c-5.2-6.7-11.5-11.8-17.7-15.3c-6.2-3.6-12-5.7-16.3-7.1c-4.2-1.3-6.8-1.9-6.8-1.9s2.1-1.3,6.4-2.4c4.3-1.1,10.8-1.9,19-0.1
						c4.1,0.7,8.6,2.5,13.2,5c4.6,2.4,9.1,6,13.4,10.2c4.3,4.2,8,9.2,11.1,14.6c1.5,2.8,3.2,5.9,4.1,8.2c1.3,2.9,2.4,6.1,3.3,9.4
						c1.6,6.6,2.1,13.9,0.3,20.2c-1.7,6.3-4.9,11.3-8.4,15.2c-7.3,7.4-15.4,11-22.4,13.4c-7,2.3-13,3.4-17.3,4
						C142.9,342.6,140.4,342.8,140.4,342.8z"/>
				</g>
			</g>
			<g id="XMLID_14323_">
				<path id="XMLID_14204_" class="st11" d="M158.2,268.8c-1.9-3.1-3.4-8.4-5.6-11.1c-4.5-5.4-8.4-9.4-14.4-12.4
					c-5.9-3.3-9.8-4.1-14.4-2.5c-4.7,1.4-7.6,4.3-9.6,6.7c-0.8,1-1.3,1.9-1.8,2.7c4.2,0.4,27.7,26.5,27.3,44.1
					c-0.2,11.7-14.4,27.8-22.8,38.9c-1.1,1.4-2.1,3-3,4.6c-0.9,1.7-1.9,4.3-2.2,5.4c-0.9,4-1.1,6.7-1.6,9.9
					c-0.6,6.3-0.9,12.4-0.3,18.2c1,11.5,4.6,20.6,7.1,26.5c2.7,5.9,4.2,9.3,4.2,9.3s-0.5-3.6-1.5-9.9c-0.6-3.1-1.2-6.9-1.4-11.1
					c-0.4-4.2-0.5-8.8,0.1-13.7c0.4-4.9,1.5-10.1,3-15.3c0.8-2.5,1.6-5.1,2.4-7.7c0.7-1.8,0.9-1.9,1.5-2.8c0.6-0.9,1.4-1.8,2.3-2.7
					c3.4-3.7,5.2-7,10-10.7c5-3.7,9-7.1,14.2-11.6c5.1-4.5,6.9-7.7,10.2-16.1c1.6-4.1,2.5-9.1,2.1-14.3c-0.4-5.1,0.1-10.2-2-14.5
					C160.7,275.9,160.1,272.1,158.2,268.8z"/>
			</g>
		</g>
	</g>
</g>
</svg>
