<?xml version="1.0" encoding="utf-8"?>
<!-- Generator: Adobe Illustrator 19.0.0, SVG Export Plug-In . SVG Version: 6.00 Build 0)  -->
<svg version="1.1" id="Layer_1" xmlns="http://www.w3.org/2000/svg" xmlns:xlink="http://www.w3.org/1999/xlink" x="0px" y="0px"
	 viewBox="0 0 370.3 323.6" style="enable-background:new 0 0 370.3 323.6;" xml:space="preserve">
<style type="text/css">
	.st0{fill:#EF7B05;}
	.st1{fill:#FFF24A;}
	.st2{fill:#FFCE00;}
</style>
<g id="XMLID_15021_">
	<path id="XMLID_15095_" class="st0" d="M180.7,219.2c-61.3,0-109.9,33.4-121.5,90.2c3.6-70.1,54.7-112.5,121.5-112.5
		c66.8,0,118,42.4,121.5,112.5C290.6,252.6,241.9,219.2,180.7,219.2z"/>
	<path id="XMLID_15094_" class="st1" d="M56.7,108L43.9,88.4l-24.1-1C12,87.2,8,78.5,13,72.8l15.5-17.7l-6.5-22.2
		c-2.1-7.1,5.3-13.5,12.5-10.7l22.4,8.6L77,18c6.5-4.1,15,0.7,14.5,8l-1.6,23l18.9,14.3c6.1,4.6,4,13.9-3.5,15.7l-23.4,5.6
		l-8.4,21.6C70.7,113.3,60.9,114.2,56.7,108z"/>
	<g id="XMLID_15090_">
		<path id="XMLID_15093_" class="st2" d="M86.5,46.1c1.2,1.2,3.3,2.9,3.3,2.9l1.6-23c0.2-3.3-1.4-6.1-3.8-7.8
			C91.3,23.7,85.2,44.7,86.5,46.1z"/>
		<path id="XMLID_15092_" class="st2" d="M108.8,63.4l-0.3-0.2c3,5.9-0.7,10.5-6.4,11.9l-23.4,5.6l-8.4,21.6c-2.3,6-11.3,7.8-17,0.4
			l3.5,5.3c4.1,6.3,14,5.3,16.7-1.6l8.4-21.6l23.4-5.6C112.8,77.3,114.9,68,108.8,63.4z"/>
		<path id="XMLID_15091_" class="st2" d="M39.8,84.3c-1.8-0.1-23.6,1.4-28.3-2.6c1.3,3.1,4.2,5.6,8.3,5.7l24.1,1
			C43.9,88.4,41.6,84.4,39.8,84.3z"/>
	</g>
	<path id="XMLID_15059_" d="M149.4,206.8c0.8-1.7,1.1-3.5,0.8-5.2l0,0v0c-0.4-1.7-1.4-3.3-2.9-4.5c0.8-1.7,1.1-3.5,0.6-5.2v0v0
		c-0.4-1.7-1.5-3.2-3-4.4c0.7-1.7,1-3.5,0.5-5.3l0,0c0,0,0,0,0,0c-0.5-1.7-1.6-3.2-3.2-4.3c0.7-1.8,0.8-3.6,0.3-5.3l0,0c0,0,0,0,0,0
		c-0.5-1.7-1.7-3.1-3.3-4.3c0.6-1.8,0.7-3.6,0.1-5.3l0,0c0,0,0,0,0,0c-0.6-1.7-1.8-3.1-3.4-4.2c0.6-1.8,0.6-3.6-0.1-5.3l0,0
		c0,0,0,0,0,0c-0.7-1.7-1.9-3-3.6-4c0.5-1.8,0.5-3.6-0.2-5.3c0,0,0,0,0,0v0c-0.7-1.7-2.1-3-3.7-3.9c0.4-1.8,0.3-3.7-0.5-5.3
		c0,0,0,0,0,0c0,0,0,0,0,0c-0.8-1.6-2.2-2.9-3.9-3.8c0.3-1.8,0.2-3.7-0.7-5.3c0,0,0,0,0,0s0,0,0,0c-0.9-1.6-2.3-2.8-4.1-3.6
		c0.3-1.9,0-3.7-0.9-5.3c0,0,0,0,0,0l0,0c-1-1.6-2.5-2.7-4.3-3.5c0.2-1.9-0.2-3.7-1.2-5.2c0,0,0,0,0,0l0,0c-1-1.5-2.6-2.6-4.4-3.3
		c0.1-1.9-0.4-3.7-1.4-5.2c0,0,0,0,0,0l0,0c-1.1-1.5-2.7-2.5-4.6-3.1c0-1.9-0.6-3.7-1.7-5.1c0,0,0,0,0,0c0,0,0,0,0,0
		c-1.2-1.4-2.8-2.4-4.7-2.9c-0.1-1.9-0.7-3.6-2-5c0,0,0,0,0,0c0,0,0,0,0,0c-1.3-1.4-3-2.2-4.9-2.6c-2.2-0.3-5.1-0.1-7.3,0.6
		c-1.1-1.1-3.1,0-2.7,1.2c0.8,1.4,2.3,1.2,5.6,0.6c4.3-0.7,6.4,0.9,7.3,1.8c0.8,1,1.2,2,1.4,3c-0.7,0-1.5,0-2.3,0.1
		c-3,0.5-7.8,2-9.3,5.9c-0.6,1.6-0.3,3.3,0.8,4.7c0,0,0,0,0,0.1c0,0,0,0,0,0c0,0,0,0,0,0.1c0,0,0.1,0,0.1,0c1,1.1,2.3,1.7,3.7,1.7
		c0.3,0,0.6,0,0.8-0.1c0.5-0.1,0.9-0.2,1.4-0.4c-0.3,0.4-0.6,0.8-0.8,1.2c-0.7,1.6-0.5,3.2,0.6,4.6c0,0,0,0,0,0c0,0,0,0,0,0.1
		c0,0,0,0,0,0.1c0,0,0,0,0.1,0.1c1,1.2,2.3,1.9,3.9,1.9c0.2,0,0.4,0,0.5,0c0.5-0.1,1.1-0.2,1.6-0.4c-0.4,0.4-0.8,0.8-1,1.2
		c-0.8,1.6-0.7,3.2,0.3,4.7c0,0,0,0,0,0.1c0,0,0,0,0,0.1c0,0,0,0,0,0c0,0,0,0,0,0c1,1.4,2.4,2.1,4.1,2.1c0.1,0,0.2,0,0.3,0
		c0.5,0,1-0.1,1.5-0.3c-0.4,0.4-0.7,0.8-0.9,1.2c-0.9,1.5-0.8,3.2,0.1,4.7c0,0,0,0,0,0.1c0,0,0,0,0.1,0.1c0,0,0,0,0,0c0,0,0,0,0,0
		c1,1.5,2.4,2.3,4.2,2.3h0.1c0.5,0,1-0.1,1.5-0.2c-0.4,0.4-0.7,0.7-1,1.1c-0.9,1.5-1,3.1-0.1,4.7c0,0,0,0,0,0c0,0,0,0,0,0.1
		c0,0,0,0,0,0.1c0,0,0,0,0.1,0.1c0.9,1.5,2.4,2.4,4.1,2.5c0.1,0,0.1,0,0.2,0c0.5,0,1-0.2,1.5-0.3c-0.5,0.4-0.9,0.7-1.2,1.2
		c-1,1.4-1.1,3.1-0.3,4.7c0,0,0,0,0,0c0,0,0,0,0,0c0,0,0,0,0,0.1c0,0,0,0,0.1,0.1c0.9,1.6,2.3,2.5,4.1,2.6c0.1,0,0.3,0,0.4,0
		c0.4,0,0.9-0.1,1.3-0.2c-0.5,0.4-1,0.7-1.3,1.2c-1.1,1.4-1.2,3-0.5,4.7c0,0,0,0,0,0.1c0,0,0,0,0,0.1c0,0,0,0,0,0.1c0,0,0,0,0,0
		c0.8,1.6,2.1,2.6,3.9,2.8c0.2,0,0.4,0,0.7,0c0.4,0,0.8-0.1,1.1-0.2c-0.5,0.3-1,0.7-1.3,1.1c-1.1,1.4-1.4,3-0.7,4.7c0,0,0,0,0,0.1
		c0,0,0,0,0,0.1c0,0,0,0,0,0c0,0,0,0,0,0c0.7,1.7,2.1,2.7,3.9,3c0.3,0,0.6,0.1,0.9,0.1c0.3,0,0.6-0.1,0.8-0.1
		c-0.5,0.3-1,0.6-1.4,1.1c-1.2,1.3-1.5,3-0.9,4.7c0,0,0,0,0,0c0,0,0,0,0,0.1c0,0,0,0,0,0.1c0,0,0,0,0,0.1c0.7,1.7,2,2.8,3.7,3.1
		c0.4,0.1,0.8,0.1,1.2,0.1c0.2,0,0.4-0.1,0.6-0.1c-0.5,0.3-1,0.6-1.4,1c-1.2,1.3-1.6,2.9-1,4.7c0,0,0,0,0,0c0,0,0,0,0,0.1
		c0,0,0,0,0,0.1c0,0,0,0,0,0c0.6,1.7,1.9,2.8,3.6,3.2c0.4,0.1,0.9,0.1,1.4,0.1c0.1,0,0.2,0,0.3,0c-0.5,0.3-1,0.6-1.4,0.9
		c-1.3,1.2-1.7,2.9-1.2,4.6c0,0,0,0,0,0c0,0,0,0,0,0c0,0,0,0.1,0,0.1c0,0,0,0,0,0.1c0.5,1.7,1.8,2.9,3.5,3.3c0.5,0.1,1,0.2,1.6,0.2
		c0,0,0,0,0.1,0c-0.5,0.3-1,0.5-1.4,0.9c-1.3,1.2-1.8,2.8-1.3,4.6c0,0,0,0,0,0c0,0,0,0,0,0.1c0,0,0,0,0,0.1c0,0,0,0,0,0
		c0.5,1.7,1.7,3,3.4,3.4c0.5,0.1,1.1,0.2,1.7,0.2c-0.5,0.3-1,0.5-1.4,0.8c-1.3,1.2-1.8,2.8-1.5,4.5c0,0,0,0,0,0.1c0,0,0,0.1,0,0.1
		c0,0,0,0,0,0c0,0,0,0,0,0.1c0.5,1.7,1.6,3,3.4,3.5c0.5,0.2,1.1,0.2,1.7,0.2c-0.5,0.2-1.1,0.5-1.5,0.8c-1.4,1.1-1.9,2.7-1.6,4.5
		c0,0,0,0,0,0c0,0,0,0,0,0c0,0,0,0.1,0,0.1c0,0,0,0,0,0c0.4,1.8,1.5,3,3.2,3.6c0.7,0.2,1.4,0.3,2.2,0.3c2.7,0,5.9-1.2,8.5-3.4
		c0.6-0.5,1.1-1,1.5-1.6c0.7,0.7,1.4,1.6,1.6,2.8c0.1,0.6,0.7,1,1.3,1c0.1,0,0.2,0,0.2,0c0.7-0.1,1.2-0.8,1.1-1.5
		C151.8,209.6,150.8,208.1,149.4,206.8z M143.5,189.7c0.8,0.7,1.5,1.5,1.8,2.7l0,0c0.3,1.2,0.1,2.3-0.2,3.2
		c-0.7-0.3-1.4-0.7-2.2-0.9c-1.7-0.5-3.4-0.7-5-0.6c1.5-0.7,2.9-1.6,4.2-2.7C142.7,190.9,143.1,190.3,143.5,189.7z M140.9,180.1
		c0.8,0.7,1.5,1.5,1.9,2.7c0.3,1.2,0.2,2.3-0.2,3.2c-0.7-0.3-1.4-0.6-2.2-0.8c-1.7-0.5-3.4-0.6-5-0.5c1.5-0.7,2.9-1.7,4.1-2.9
		C140.1,181.3,140.5,180.7,140.9,180.1z M140,173.2c0.4,1.2,0.3,2.3,0,3.2c-0.7-0.3-1.4-0.6-2.2-0.8c-1.7-0.4-3.4-0.5-5.1-0.3
		c1.4-0.7,2.8-1.7,4-3c0.5-0.6,0.9-1.2,1.3-1.7C138.8,171.3,139.6,172.1,140,173.2z M134.8,161.2c0.8,0.6,1.6,1.4,2,2.6
		c0.4,1.2,0.3,2.2,0.1,3.2c-0.7-0.3-1.4-0.5-2.2-0.7c-1.7-0.4-3.5-0.4-5.1-0.2c1.4-0.8,2.8-1.8,3.9-3.1
		C134.1,162.4,134.4,161.8,134.8,161.2z M131.2,151.8c0.9,0.6,1.7,1.4,2.1,2.5c0.4,1.1,0.4,2.2,0.2,3.2c-0.7-0.3-1.4-0.5-2.2-0.6
		c-1.8-0.3-3.5-0.3-5.1,0c1.4-0.8,2.7-1.9,3.8-3.3C130.5,153.1,130.9,152.5,131.2,151.8z M126.2,144.5c0.5-0.6,0.8-1.2,1.1-1.9
		c0.9,0.6,1.7,1.3,2.2,2.4c0.5,1.1,0.5,2.2,0.3,3.2c-0.7-0.2-1.4-0.5-2.2-0.6c-1.8-0.3-3.5-0.1-5.2,0.2
		C123.8,147,125.2,145.9,126.2,144.5z M122,135.5c0.4-0.6,0.7-1.3,1-1.9c0.9,0.5,1.8,1.2,2.3,2.4c0.5,1.1,0.6,2.2,0.4,3.2
		c-0.7-0.2-1.5-0.4-2.3-0.5c-1.8-0.2-3.6,0-5.2,0.4C119.7,138.1,121,136.9,122,135.5z M118.4,124.7c0.9,0.5,1.8,1.2,2.4,2.3
		c0.6,1.1,0.7,2.2,0.6,3.2c-0.7-0.2-1.5-0.3-2.3-0.4c-1.8-0.1-3.6,0.1-5.2,0.5c1.3-1,2.5-2.2,3.5-3.7
		C117.8,126,118.1,125.3,118.4,124.7z M113.3,115.9c1,0.5,1.9,1.1,2.5,2.2c0.6,1.1,0.8,2.2,0.7,3.2c-0.7-0.1-1.5-0.3-2.3-0.3
		c-1.7-0.1-3.4,0.2-5,0.7c1.2-1,2.3-2.3,3.2-3.8C112.8,117.2,113,116.6,113.3,115.9z M107,109.4c0.3-0.7,0.5-1.3,0.8-2
		c1,0.4,1.9,1,2.6,2c0.7,1.1,0.9,2.1,0.9,3.2c-0.7-0.1-1.4-0.2-2.1-0.2c-0.1,0-0.1,0-0.2,0c-1.7,0-3.4,0.3-4.9,0.9
		C105.2,112.2,106.3,110.9,107,109.4z M101.2,101.2c0.3-0.7,0.5-1.4,0.7-2c1,0.4,2,0.9,2.7,2c0.7,1,1,2.1,1,3.1
		c-0.7-0.1-1.5-0.2-2.3-0.1c-1.8,0.1-3.5,0.6-5,1.2C99.5,104.1,100.5,102.7,101.2,101.2z M95,93.2c0.3-0.7,0.4-1.4,0.6-2.1
		c1,0.3,2,0.9,2.8,1.9c0.8,1,1.1,2,1.2,3.1c-0.7,0-1.5-0.1-2.3,0c-1.7,0.2-3.4,0.6-4.9,1.3C93.5,96.2,94.4,94.8,95,93.2z M86.6,98.2
		c-0.9,0.1-1.6-0.1-2.2-0.9c-0.6-0.7-0.7-1.4-0.4-2.2c0.8-1.9,3.9-3.8,7.2-4.3c0.5-0.1,1.1-0.1,1.7-0.1c-0.1,0.6-0.3,1.2-0.5,1.6
		C91.3,95.3,88.7,97.9,86.6,98.2z M92.5,105.8c-0.9,0.1-1.6-0.2-2.1-1c-0.6-0.7-0.7-1.4-0.3-2.2c0.9-1.9,4.1-3.7,7.5-4
		c0.5-0.1,1.1-0.1,1.7,0c-0.2,0.6-0.4,1.2-0.6,1.6C97.4,103.1,94.7,105.6,92.5,105.8z M98.2,113.6c-0.9,0-1.6-0.3-2.1-1.1
		c-0.5-0.8-0.6-1.5-0.2-2.3c1-1.9,4.3-3.4,7.6-3.6c0.5,0,1.1,0,1.7,0.1c-0.2,0.6-0.4,1.1-0.6,1.5
		C103.1,111.2,100.3,113.5,98.2,113.6z M103.4,121.7c-0.7,0-1.5-0.4-2-1.2c-0.5-0.8-0.5-1.5-0.1-2.2c1-1.8,4.5-3.2,7.8-3.3
		c0.5,0,1.1,0,1.8,0.1c-0.2,0.6-0.5,1.1-0.7,1.5C108.5,119.4,105.5,121.7,103.4,121.7z M108.2,130c-0.9,0-1.5-0.4-2-1.3
		c-0.5-0.8-0.5-1.5,0-2.3c1.1-1.8,4.6-3,8-2.9c0.5,0,1.1,0.1,1.7,0.2c-0.3,0.6-0.5,1.1-0.8,1.5C113.4,128,110.4,129.9,108.2,130z
		 M112.7,138.5c-0.9-0.1-1.5-0.5-1.9-1.3c-0.4-0.8-0.4-1.6,0.1-2.3c1.2-1.7,4.8-2.8,8.1-2.6c0.5,0,1.1,0.1,1.8,0.3
		c-0.3,0.6-0.6,1.1-0.9,1.5C117.9,136.7,114.8,138.8,112.7,138.5z M116.7,147.2c-0.9-0.1-1.5-0.6-1.9-1.4c-0.4-0.8-0.3-1.6,0.2-2.2
		c1.3-1.7,4.8-2.7,8.2-2.3c0.5,0.1,1.1,0.2,1.7,0.3c-0.3,0.6-0.6,1-0.9,1.4C122.1,145.6,118.9,147.5,116.7,147.2z M120.5,156
		c-0.9-0.1-1.5-0.6-1.8-1.5c-0.4-0.9-0.3-1.6,0.3-2.3c1.4-1.6,4.9-2.5,8.2-2c0.5,0.1,1.1,0.2,1.7,0.4c-0.3,0.6-0.7,1-1,1.4
		C125.9,154.6,122.6,156.3,120.5,156z M123.9,165c-0.9-0.2-1.4-0.7-1.8-1.5c-0.3-0.9-0.2-1.6,0.4-2.2c1.4-1.6,5-2.3,8.3-1.7
		c0.5,0.1,1.1,0.2,1.7,0.5c-0.3,0.5-0.7,1-1,1.4C129.3,163.7,126,165.4,123.9,165z M127,174c-0.9-0.2-1.4-0.7-1.7-1.6
		c-0.3-0.9-0.2-1.6,0.5-2.2c1.4-1.5,5.1-2.1,8.4-1.4c0.4,0.1,1,0.3,1.7,0.5c-0.4,0.6-0.8,1-1.1,1.3C132.4,173,129.1,174.5,127,174z
		 M129.8,183.2c-0.9-0.2-1.4-0.7-1.7-1.7c-0.3-0.9-0.1-1.6,0.5-2.2c1.5-1.5,5.1-2,8.4-1.2c0.4,0.1,1,0.3,1.7,0.6
		c-0.4,0.6-0.8,1-1.1,1.3C135.3,182.4,131.9,183.8,129.8,183.2z M132.3,192.5c-0.9-0.2-1.4-0.8-1.6-1.7c-0.2-0.9-0.1-1.6,0.6-2.2
		c1.5-1.4,5.2-1.8,8.4-0.9c0.4,0.1,1,0.3,1.6,0.6c-0.4,0.5-0.8,1-1.2,1.3C137.8,191.8,134.3,193.1,132.3,192.5z M134.6,201.8
		c-0.9-0.3-1.4-0.8-1.6-1.7c-0.2-0.9,0-1.6,0.7-2.2c1.6-1.4,5.2-1.7,8.4-0.7c0.4,0.1,1,0.4,1.6,0.7c-0.4,0.5-0.9,1-1.2,1.2
		C140.1,201.3,136.6,202.5,134.6,201.8z M144.6,208.7c-2.6,2.1-6,3.3-8,2.6c-0.8-0.3-1.3-0.9-1.5-1.8c-0.2-0.9,0-1.6,0.7-2.2
		c1.6-1.3,5.3-1.6,8.5-0.5c0.4,0.1,1,0.4,1.6,0.7C145.4,208,144.9,208.4,144.6,208.7z M147.2,205.3c-0.7-0.4-1.3-0.7-2.1-1
		c-1.7-0.5-3.3-0.7-4.9-0.7c1.5-0.6,2.9-1.5,4.2-2.6c0.6-0.5,1-1.1,1.5-1.6c0.8,0.7,1.4,1.6,1.7,2.7
		C147.8,203.3,147.6,204.4,147.2,205.3z"/>
	<path id="XMLID_15058_" class="st1" d="M304.6,108l12.8-19.5l24.1-1c7.8-0.3,11.8-9,6.8-14.7l-15.5-17.7l6.5-22.2
		c2.1-7.1-5.3-13.5-12.5-10.7l-22.4,8.6L284.4,18c-6.5-4.1-15,0.7-14.5,8l1.6,23l-18.9,14.3c-6.1,4.6-4,13.9,3.5,15.7l23.4,5.6
		l8.4,21.6C290.6,113.3,300.5,114.2,304.6,108z"/>
	<g id="XMLID_15053_">
		<path id="XMLID_15057_" class="st2" d="M274.8,46.1c-1.2,1.2-3.3,2.9-3.3,2.9l-1.6-23c-0.2-3.3,1.4-6.1,3.8-7.8
			C270,23.7,276.2,44.7,274.8,46.1z"/>
		<path id="XMLID_15056_" class="st2" d="M252.5,63.4l0.3-0.2c-3,5.9,0.7,10.5,6.4,11.9l23.4,5.6l8.4,21.6c2.3,6,11.3,7.8,17,0.4
			l-3.5,5.3c-4.1,6.3-14,5.3-16.7-1.6l-8.4-21.6l-23.4-5.6C248.5,77.3,246.5,68,252.5,63.4z"/>
		<path id="XMLID_15054_" class="st2" d="M321.5,84.3c1.8-0.1,23.6,1.4,28.3-2.6c-1.3,3.1-4.2,5.6-8.3,5.7l-24.1,1
			C317.4,88.4,319.7,84.4,321.5,84.3z"/>
	</g>
	<path id="XMLID_15022_" d="M209.1,211.4c-0.1,0.7,0.3,1.4,1.1,1.5c0.1,0,0.2,0,0.2,0c0.6,0,1.2-0.4,1.3-1c0.2-1.2,0.9-2.1,1.6-2.8
		c0.5,0.5,0.9,1.1,1.5,1.6c2.6,2.2,5.8,3.4,8.5,3.4c0.8,0,1.5-0.1,2.2-0.3c1.7-0.6,2.8-1.8,3.2-3.6c0,0,0,0,0,0c0,0,0-0.1,0-0.1
		c0,0,0,0,0,0c0,0,0,0,0,0c0.3-1.8-0.2-3.4-1.6-4.5c-0.4-0.3-1-0.6-1.5-0.8c0.6,0,1.2-0.1,1.7-0.2c1.7-0.5,2.9-1.8,3.4-3.5
		c0,0,0,0,0-0.1c0,0,0,0,0,0c0,0,0,0,0-0.1c0,0,0,0,0-0.1c0.4-1.8-0.1-3.4-1.5-4.5c-0.4-0.3-0.9-0.6-1.4-0.8c0.6,0,1.2-0.1,1.7-0.2
		c1.7-0.5,2.9-1.7,3.4-3.4c0,0,0,0,0,0c0,0,0,0,0-0.1c0,0,0,0,0-0.1c0,0,0,0,0,0c0.4-1.7,0-3.4-1.3-4.6c-0.4-0.4-0.9-0.6-1.4-0.9
		c0,0,0,0,0.1,0c0.6,0,1.1-0.1,1.6-0.2c1.8-0.4,3-1.6,3.5-3.3c0,0,0,0,0-0.1c0,0,0-0.1,0-0.1c0,0,0,0,0,0c0,0,0,0,0,0
		c0.5-1.7,0.1-3.4-1.2-4.6c-0.4-0.4-0.9-0.6-1.4-0.9c0.1,0,0.2,0,0.3,0c0.5,0,0.9,0,1.4-0.1c1.8-0.4,3-1.5,3.6-3.2c0,0,0,0,0,0
		c0,0,0,0,0-0.1c0,0,0,0,0-0.1c0,0,0,0,0,0c0.5-1.7,0.2-3.4-1-4.7c-0.4-0.4-0.9-0.7-1.4-1c0.2,0,0.4,0.1,0.6,0.1
		c0.4,0,0.8,0,1.2-0.1c1.8-0.3,3.1-1.4,3.7-3.1c0,0,0,0,0-0.1c0,0,0,0,0-0.1c0,0,0,0,0-0.1c0,0,0,0,0,0c0.6-1.7,0.3-3.3-0.9-4.7
		c-0.4-0.4-0.9-0.7-1.4-1.1c0.3,0,0.6,0.1,0.8,0.1c0.3,0,0.6,0,0.9-0.1c1.8-0.3,3.2-1.3,3.9-3c0,0,0,0,0,0c0,0,0,0,0,0
		c0,0,0,0,0-0.1c0,0,0,0,0-0.1c0.6-1.7,0.4-3.3-0.7-4.7c-0.3-0.4-0.9-0.8-1.3-1.1c0.4,0.1,0.8,0.2,1.1,0.2c0.2,0,0.5,0,0.7,0
		c1.8-0.2,3.2-1.2,3.9-2.8c0,0,0,0,0,0c0,0,0,0,0-0.1c0,0,0,0,0-0.1c0,0,0,0,0-0.1c0.7-1.6,0.6-3.3-0.5-4.7
		c-0.3-0.4-0.8-0.8-1.3-1.2c0.4,0.1,0.9,0.2,1.3,0.2c0.1,0,0.3,0,0.4,0c1.8-0.1,3.2-1.1,4.1-2.6c0,0,0,0,0.1-0.1c0,0,0,0,0-0.1
		c0,0,0,0,0,0c0,0,0,0,0,0c0.8-1.6,0.7-3.3-0.3-4.7c-0.3-0.4-0.8-0.8-1.2-1.2c0.5,0.1,1,0.3,1.5,0.3c0.1,0,0.1,0,0.2,0
		c1.8-0.1,3.2-1,4.1-2.5c0,0,0,0,0.1-0.1c0,0,0,0,0-0.1c0,0,0,0,0-0.1c0,0,0,0,0,0c0.9-1.6,0.8-3.2-0.1-4.7c-0.3-0.4-0.6-0.8-1-1.1
		c0.5,0.1,1,0.2,1.5,0.2h0.1c1.8,0,3.3-0.8,4.2-2.3c0,0,0,0,0,0c0,0,0,0,0,0c0,0,0,0,0.1-0.1c0,0,0,0,0-0.1c0.9-1.5,1-3.2,0.1-4.7
		c-0.2-0.4-0.6-0.8-0.9-1.2c0.5,0.1,1,0.3,1.5,0.3c0.1,0,0.2,0,0.3,0c1.7,0,3.1-0.8,4.1-2.1c0,0,0,0,0,0c0,0,0,0,0,0c0,0,0,0,0-0.1
		c0,0,0,0,0-0.1c1-1.5,1.1-3.2,0.3-4.7c-0.2-0.4-0.6-0.8-1-1.2c0.5,0.2,1.1,0.4,1.6,0.4c0.2,0,0.4,0,0.5,0c1.5,0,2.9-0.7,3.9-1.9
		c0,0,0,0,0.1-0.1s0,0,0-0.1c0,0,0,0,0-0.1c0,0,0,0,0,0c1.1-1.4,1.3-3.1,0.6-4.6c-0.2-0.4-0.5-0.8-0.8-1.2c0.5,0.2,0.9,0.3,1.4,0.4
		c0.3,0,0.6,0.1,0.8,0.1c1.4,0,2.7-0.6,3.7-1.7c0,0,0.1,0,0.1,0c0,0,0,0,0-0.1c0,0,0,0,0,0c0,0,0,0,0-0.1c1.1-1.4,1.4-3,0.8-4.7
		c-1.6-3.9-6.3-5.4-9.3-5.9c-0.8-0.1-1.5-0.1-2.3-0.1c0.1-1,0.5-2.1,1.4-3c0.9-0.9,3-2.5,7.3-1.8c3.3,0.5,4.9,0.7,5.6-0.6
		c0.4-1.2-1.6-2.3-2.7-1.2c-2.3-0.7-5.1-0.9-7.3-0.6c-1.9,0.4-3.6,1.3-4.9,2.6c0,0,0,0,0,0c0,0,0,0,0,0c-1.2,1.4-1.9,3.1-2,5
		c-1.9,0.5-3.6,1.4-4.7,2.9c0,0,0,0,0,0c0,0,0,0,0,0c-1.2,1.5-1.7,3.2-1.7,5.1c-1.9,0.6-3.5,1.6-4.6,3.1c0,0,0,0,0,0c0,0,0,0,0,0
		c-1.1,1.5-1.5,3.3-1.4,5.2c-1.8,0.7-3.4,1.7-4.4,3.3c0,0,0,0,0,0c0,0,0,0,0,0c-1,1.6-1.4,3.4-1.2,5.2c-1.8,0.7-3.3,1.9-4.3,3.5
		c0,0,0,0,0,0c0,0,0,0,0,0c-0.9,1.6-1.2,3.4-0.9,5.3c-1.8,0.8-3.2,2-4.1,3.6c0,0,0,0,0,0c0,0,0,0,0,0c-0.9,1.6-1,3.4-0.7,5.3
		c-1.7,0.9-3.1,2.1-3.9,3.8c0,0,0,0,0,0c0,0,0,0,0,0c-0.8,1.7-0.9,3.5-0.5,5.3c-1.7,1-3,2.3-3.7,3.9v0c0,0,0,0,0,0
		c-0.7,1.7-0.7,3.5-0.2,5.3c-1.7,1-2.9,2.4-3.6,4c0,0,0,0,0,0l0,0c-0.7,1.7-0.6,3.5-0.1,5.3c-1.6,1.1-2.8,2.5-3.4,4.2c0,0,0,0,0,0
		l0,0c-0.6,1.7-0.5,3.5,0.1,5.3c-1.6,1.1-2.7,2.5-3.3,4.3v0l0,0c-0.5,1.7-0.4,3.5,0.3,5.3c-1.5,1.2-2.7,2.6-3.2,4.3c0,0,0,0,0,0l0,0
		c-0.5,1.7-0.3,3.5,0.5,5.3c-1.5,1.2-2.6,2.7-3,4.4v0v0c-0.4,1.7-0.2,3.5,0.6,5.2c-1.5,1.2-2.5,2.7-2.9,4.5v0l0,0
		c-0.4,1.7-0.1,3.5,0.8,5.2C210.5,208.1,209.5,209.6,209.1,211.4z M219.2,191.4c1.3,1.2,2.7,2.1,4.1,2.7c-1.6,0-3.3,0.1-5,0.6
		c-0.8,0.2-1.5,0.6-2.2,0.9c-0.4-1-0.5-2-0.2-3.2c0,0,0,0,0,0c0.3-1.2,1-2,1.8-2.7C218.2,190.3,218.7,190.9,219.2,191.4z
		 M221.8,181.8c1.2,1.2,2.6,2.2,4.1,2.9c-1.6-0.1-3.3,0-5,0.5c-0.8,0.2-1.5,0.5-2.2,0.8c-0.3-1-0.5-2.1-0.2-3.2
		c0.3-1.2,1.1-2,1.9-2.7C220.8,180.7,221.2,181.3,221.8,181.8z M223.3,170.6c0.4,0.6,0.8,1.2,1.3,1.7c1.2,1.2,2.6,2.2,4,3
		c-1.6-0.1-3.3-0.1-5.1,0.3c-0.8,0.2-1.5,0.5-2.2,0.8c-0.3-1-0.4-2.1,0-3.2C221.7,172.1,222.5,171.3,223.3,170.6z M227.8,163
		c1.1,1.3,2.5,2.3,3.9,3.1c-1.6-0.2-3.4-0.2-5.1,0.2c-0.8,0.2-1.5,0.4-2.2,0.7c-0.3-1-0.3-2.1,0.1-3.2c0.4-1.2,1.2-1.9,2-2.6
		C226.9,161.8,227.3,162.4,227.8,163z M231.3,153.7c1.1,1.3,2.4,2.4,3.8,3.3c-1.6-0.2-3.4-0.3-5.1,0c-0.8,0.1-1.5,0.4-2.2,0.6
		c-0.2-1-0.2-2.1,0.2-3.2c0.5-1.1,1.2-1.9,2.1-2.5C230.4,152.5,230.8,153.1,231.3,153.7z M238.9,147.9c-1.6-0.3-3.4-0.4-5.2-0.2
		c-0.8,0.1-1.5,0.3-2.2,0.6c-0.2-1-0.2-2.1,0.3-3.2c0.5-1.1,1.3-1.9,2.2-2.4c0.3,0.6,0.7,1.2,1.1,1.9
		C236.2,145.9,237.5,147,238.9,147.9z M243,139c-1.6-0.4-3.4-0.6-5.2-0.4c-0.8,0.1-1.5,0.3-2.3,0.5c-0.2-1-0.1-2.1,0.4-3.2
		c0.5-1.1,1.4-1.8,2.3-2.4c0.3,0.6,0.6,1.3,1,1.9C240.3,136.9,241.6,138.1,243,139z M243.9,126.6c0.9,1.5,2.2,2.7,3.5,3.7
		c-1.6-0.4-3.3-0.7-5.2-0.5c-0.8,0.1-1.5,0.2-2.3,0.4c-0.1-1,0-2.1,0.6-3.2c0.6-1.1,1.5-1.8,2.4-2.3
		C243.2,125.3,243.5,126,243.9,126.6z M248.9,117.9c0.8,1.4,1.9,2.7,3.2,3.8c-1.6-0.5-3.3-0.7-5-0.7c-0.8,0-1.5,0.2-2.3,0.3
		c-0.1-1,0.1-2.1,0.7-3.2c0.7-1.1,1.6-1.7,2.5-2.2C248.3,116.6,248.5,117.2,248.9,117.9z M257.2,113.3c-1.5-0.5-3.2-0.8-4.9-0.9
		c-0.1,0-0.1,0-0.2,0c-0.7,0-1.4,0.1-2.1,0.2c0-1,0.2-2.1,0.9-3.2c0.7-1,1.6-1.6,2.6-2c0.2,0.7,0.4,1.3,0.8,2
		C255.1,110.9,256.1,112.2,257.2,113.3z M263,105.3c-1.5-0.6-3.2-1.1-5-1.2c-0.8,0-1.5,0-2.3,0.1c0-1,0.3-2.1,1-3.1
		c0.8-1,1.7-1.6,2.7-2c0.2,0.7,0.3,1.3,0.7,2C260.8,102.7,261.8,104.1,263,105.3z M268.9,97.4c-1.5-0.7-3.1-1.1-4.9-1.3
		c-0.8-0.1-1.5,0-2.3,0c0.1-1,0.4-2.1,1.2-3.1c0.8-1,1.8-1.5,2.8-1.9c0.1,0.7,0.3,1.4,0.6,2.1C266.9,94.8,267.8,96.2,268.9,97.4z
		 M268.8,92.3c-0.2-0.4-0.3-1-0.5-1.6c0.7,0,1.3,0,1.7,0.1c3.3,0.5,6.5,2.4,7.2,4.3c0.3,0.8,0.2,1.5-0.4,2.2c-0.6,0.7-1.3,1-2.2,0.9
		C272.6,97.9,270,95.3,268.8,92.3z M262.6,100.2c-0.2-0.4-0.4-1-0.6-1.6c0.6,0,1.3,0,1.7,0c3.4,0.3,6.6,2.1,7.5,4
		c0.3,0.8,0.2,1.5-0.3,2.2c-0.5,0.7-1.2,1.1-2.1,1C266.6,105.6,263.9,103.1,262.6,100.2z M256.7,108.3c-0.2-0.4-0.4-1-0.6-1.5
		c0.7-0.1,1.3-0.1,1.7-0.1c3.3,0.2,6.7,1.8,7.6,3.6c0.4,0.8,0.3,1.5-0.2,2.3c-0.5,0.8-1.2,1.1-2.1,1.1
		C261,113.5,258.2,111.2,256.7,108.3z M251.2,116.6c-0.2-0.4-0.5-0.9-0.7-1.5c0.6-0.1,1.3-0.1,1.8-0.1c3.3,0,6.8,1.5,7.8,3.3
		c0.4,0.7,0.4,1.5-0.1,2.2c-0.5,0.8-1.3,1.2-2,1.2C255.8,121.7,252.9,119.4,251.2,116.6z M246.2,125.3c-0.3-0.4-0.5-0.9-0.8-1.5
		c0.6-0.1,1.3-0.2,1.7-0.2c3.3-0.1,6.8,1.2,8,2.9c0.5,0.7,0.5,1.4,0,2.3c-0.5,0.8-1.1,1.2-2,1.3C250.9,129.9,248,128,246.2,125.3z
		 M241.5,134c-0.3-0.4-0.6-0.9-0.9-1.5c0.6-0.2,1.3-0.2,1.8-0.3c3.3-0.2,6.9,0.9,8.1,2.6c0.5,0.7,0.5,1.4,0.1,2.3
		c-0.4,0.8-1,1.3-1.9,1.3C246.6,138.8,243.4,136.7,241.5,134z M237.3,143c-0.3-0.4-0.6-0.9-0.9-1.4c0.6-0.2,1.2-0.3,1.7-0.3
		c3.4-0.4,6.9,0.6,8.2,2.3c0.5,0.7,0.6,1.4,0.2,2.2c-0.4,0.9-1,1.3-1.9,1.4C242.4,147.5,239.2,145.6,237.3,143z M233.4,152.1
		c-0.3-0.4-0.7-0.9-1-1.4c0.6-0.2,1.2-0.3,1.7-0.4c3.3-0.5,6.9,0.4,8.2,2c0.6,0.7,0.7,1.4,0.3,2.3c-0.4,0.9-0.9,1.3-1.8,1.5
		C238.7,156.3,235.4,154.6,233.4,152.1z M229.8,161.3c-0.3-0.4-0.7-0.8-1-1.4c0.6-0.2,1.2-0.4,1.7-0.5c3.3-0.6,6.9,0.2,8.3,1.7
		c0.6,0.7,0.7,1.4,0.4,2.2c-0.3,0.9-0.9,1.4-1.8,1.5C235.3,165.4,232,163.7,229.8,161.3z M226.6,170.6c-0.3-0.3-0.7-0.8-1.1-1.3
		c0.6-0.3,1.3-0.4,1.7-0.5c3.2-0.7,6.9-0.1,8.4,1.4c0.6,0.6,0.7,1.3,0.5,2.2c-0.3,0.9-0.8,1.4-1.7,1.6
		C232.2,174.5,228.9,173,226.6,170.6z M223.7,180c-0.3-0.3-0.7-0.8-1.1-1.3c0.6-0.3,1.2-0.5,1.7-0.6c3.3-0.8,6.9-0.3,8.4,1.2
		c0.6,0.6,0.8,1.3,0.5,2.2c-0.3,0.9-0.8,1.4-1.7,1.7C229.4,183.8,226.1,182.4,223.7,180z M221.1,189.5c-0.3-0.3-0.7-0.7-1.2-1.3
		c0.6-0.3,1.2-0.5,1.6-0.6c3.2-0.9,6.9-0.5,8.4,0.9c0.6,0.6,0.8,1.3,0.6,2.2c-0.2,0.9-0.7,1.5-1.6,1.7
		C227,193.1,223.5,191.8,221.1,189.5z M218.8,199.1c-0.3-0.3-0.8-0.7-1.2-1.2c0.6-0.3,1.2-0.5,1.6-0.7c3.2-1,6.9-0.7,8.4,0.7
		c0.7,0.6,0.9,1.3,0.7,2.2c-0.2,0.9-0.7,1.5-1.6,1.7C224.7,202.5,221.3,201.3,218.8,199.1z M215.5,207.5c0.6-0.3,1.2-0.6,1.6-0.7
		c3.2-1,6.9-0.8,8.5,0.5c0.7,0.6,0.9,1.3,0.7,2.2c-0.2,0.9-0.7,1.5-1.5,1.8c-2,0.7-5.5-0.4-8-2.6C216.4,208.4,215.9,208,215.5,207.5
		z M213.8,202.1c0.3-1.2,0.9-2,1.7-2.7c0.4,0.6,0.9,1.1,1.5,1.6c1.3,1.1,2.7,2,4.2,2.6c-1.6,0-3.3,0.2-4.9,0.7
		c-0.8,0.3-1.5,0.6-2.1,1C213.7,204.4,213.5,203.3,213.8,202.1z"/>
</g>
</svg>
