<?xml version="1.0" encoding="utf-8"?>
<!-- Generator: Adobe Illustrator 19.0.0, SVG Export Plug-In . SVG Version: 6.00 Build 0)  -->
<svg version="1.1" id="Layer_1" xmlns="http://www.w3.org/2000/svg" xmlns:xlink="http://www.w3.org/1999/xlink" x="0px" y="0px"
	 viewBox="0 0 432.4 268.2" style="enable-background:new 0 0 432.4 268.2;" xml:space="preserve">
<style type="text/css">
	.st0{fill:#FDC23E;}
	.st1{fill:#FAB22E;}
	.st2{fill:#FEDE55;}
	.st3{fill:#F47F56;}
	.st4{fill:#ED704A;}
	.st5{fill:#D35E39;}
	.st6{fill:#F7B5A4;}
	.st7{opacity:0.35;}
	.st8{fill:#FEFDFF;}
</style>
<g id="XMLID_729_">
	<path id="XMLID_13667_" class="st0" d="M92.8,193.3v43.5c0,0.9,0.5,1.6,1.1,1.6h252.3c0.6,0,1.1-0.7,1.1-1.6v-43.5H92.8z"/>
	<path id="XMLID_13665_" class="st1" d="M92.8,202.2v-9.5c0-0.2,0.5-0.4,1.1-0.4h252.3c0.6,0,1.1,0.2,1.1,0.4v9.5H92.8z"/>
	<polygon id="XMLID_13663_" class="st0" points="327,159.3 314.1,54.3 256.5,151.9 220.1,44.4 183.7,151.9 126.1,54.3 113.2,159.3 
		35.4,84.2 92.8,199.9 347.4,199.9 404.8,84.2 	"/>
	<g id="XMLID_13638_">
		<path id="XMLID_13640_" class="st1" d="M335.9,231.2h-6.6v-22.7h6.6V231.2z M311.1,231.2h-6.8v-22.7h6.8V231.2z M286.1,231.2h-6.8
			v-22.7h6.8V231.2z M261.1,231.2h-6.8v-22.7h6.8V231.2z M236.1,231.2h-6.8v-22.7h6.8V231.2z M211.1,231.2h-6.8v-22.7h6.8V231.2z
			 M186.1,231.2h-6.8v-22.7h6.8V231.2z M161.1,231.2h-6.8v-22.7h6.8V231.2z M136.1,231.2h-6.8v-22.7h6.8V231.2z M111.1,231.2h-6.8
			v-22.7h6.8V231.2z"/>
	</g>
	<polygon id="XMLID_13636_" class="st0" points="327,159.3 314.1,54.3 256.5,151.9 220.1,44.4 183.7,151.9 126.1,54.3 113.2,159.3 
		35.4,84.2 92.8,199.9 347.4,199.9 404.8,84.2 	"/>
	<g id="XMLID_922_">
		<g id="XMLID_13509_">
			<circle id="XMLID_13634_" class="st0" cx="220.3" cy="43.9" r="24.7"/>
			<path id="XMLID_13631_" class="st2" d="M220.3,66.8c-12.6,0-22.9-10.3-22.9-22.9c0-12.6,10.3-22.9,22.9-22.9
				c12.6,0,22.9,10.3,22.9,22.9C243.2,56.5,232.9,66.8,220.3,66.8z"/>
			<path id="XMLID_13629_" class="st1" d="M220.3,64.2c-11.2,0-20.3-9.1-20.3-20.3c0-11.2,9.1-20.3,20.3-20.3
				c11.2,0,20.3,9.1,20.3,20.3C240.6,55.1,231.5,64.2,220.3,64.2z"/>
			<circle id="XMLID_13627_" class="st3" cx="220.3" cy="43.9" r="18.5"/>
			<path id="XMLID_13625_" class="st4" d="M229.4,27.8c1.5,2.7,2.4,5.8,2.4,9.2c0,10.2-8.3,18.5-18.5,18.5c-3.3,0-6.5-0.9-9.2-2.4
				c3.2,5.6,9.2,9.4,16.1,9.4c10.2,0,18.5-8.3,18.5-18.5C238.8,37,235,31,229.4,27.8z"/>
			<path id="XMLID_13623_" class="st5" d="M231.8,29.4c2.5,3.2,4,7.2,4,11.5c0,10.2-8.3,18.5-18.5,18.5c-4.4,0-8.4-1.5-11.5-4
				c3.4,4.3,8.6,7,14.5,7c10.2,0,18.5-8.3,18.5-18.5C238.8,38,236.1,32.8,231.8,29.4z"/>
			<circle id="XMLID_13621_" class="st6" cx="213.4" cy="36.3" r="4.5"/>
		</g>
		<g id="XMLID_11576_">
			<circle id="XMLID_13507_" class="st0" cx="312.8" cy="54.9" r="17.9"/>
			<path id="XMLID_13415_" class="st1" d="M323.8,40.8c2.3,3,3.7,6.8,3.7,10.9c0,9.9-8,17.9-17.9,17.9c-4.1,0-7.9-1.4-10.9-3.7
				c3.3,4.3,8.4,7,14.2,7c9.9,0,17.9-8,17.9-17.9C330.8,49.2,328,44,323.8,40.8z"/>
			<circle id="XMLID_13413_" class="st2" cx="305" cy="46.9" r="3.4"/>
		</g>
		<g id="XMLID_10595_">
			<circle id="XMLID_10792_" class="st0" cx="402.9" cy="86.6" r="13.8"/>
			<path id="XMLID_10608_" class="st1" d="M411.3,75.7c1.8,2.3,2.9,5.2,2.9,8.4c0,7.6-6.2,13.8-13.8,13.8c-3.2,0-6.1-1.1-8.4-2.9
				c2.5,3.3,6.5,5.4,10.9,5.4c7.6,0,13.8-6.2,13.8-13.8C416.7,82.2,414.5,78.2,411.3,75.7z"/>
			<circle id="XMLID_10597_" class="st2" cx="396.9" cy="80.5" r="2.6"/>
		</g>
		<g id="XMLID_6923_">
			<circle id="XMLID_10593_" class="st0" cx="37.3" cy="86.6" r="13.8"/>
			<path id="XMLID_6926_" class="st1" d="M45.7,75.7c1.8,2.3,2.9,5.2,2.9,8.4c0,7.6-6.2,13.8-13.8,13.8c-3.2,0-6.1-1.1-8.4-2.9
				c2.5,3.3,6.5,5.4,10.9,5.4c7.6,0,13.8-6.2,13.8-13.8C51.1,82.2,48.9,78.2,45.7,75.7z"/>
			<circle id="XMLID_6925_" class="st2" cx="31.3" cy="80.5" r="2.6"/>
		</g>
		<g id="XMLID_1411_">
			<circle id="XMLID_6922_" class="st0" cx="126.8" cy="54.9" r="17.9"/>
			<path id="XMLID_1420_" class="st1" d="M137.7,40.8c2.3,3,3.7,6.8,3.7,10.9c0,9.9-8,17.9-17.9,17.9c-4.1,0-7.9-1.4-10.9-3.7
				c3.3,4.3,8.4,7,14.2,7c9.9,0,17.9-8,17.9-17.9C144.7,49.2,142,44,137.7,40.8z"/>
			<circle id="XMLID_1413_" class="st2" cx="119" cy="46.9" r="3.4"/>
		</g>
	</g>
	<path id="XMLID_921_" class="st7" d="M402.9,72.9c-7.6,0-13.8,6.2-13.8,13.8c0,3.5,1.4,6.8,3.6,9.2L327,159.3l-10.7-86.8
		c8.2-1.6,14.5-8.9,14.5-17.6c0-9.9-8-17.9-17.9-17.9c-9.9,0-17.9,8-17.9,17.9c0,6.8,3.8,12.8,9.5,15.8l-47.8,81.2l-28.6-84.5
		c9.9-3.2,17.1-12.5,17.1-23.5c0-13.6-11.1-24.7-24.7-24.7v219.3h126c0.6,0,1.1-0.7,1.1-1.6v-37l49.9-100.7c1.7,0.8,3.6,1.2,5.6,1.2
		c7.6,0,13.8-6.2,13.8-13.8C416.7,79,410.5,72.9,402.9,72.9z"/>
	<polygon id="XMLID_920_" class="st8" points="138.3,105.2 145.6,103.7 138.3,102.1 136.8,94.9 135.3,102.1 128,103.7 135.3,105.2 
		136.8,112.5 	"/>
	<polygon id="XMLID_919_" class="st8" points="155.7,217.6 163.7,215.9 155.7,214.2 154,206.2 152.3,214.2 144.3,215.9 152.3,217.6 
		154,225.6 	"/>
	<polygon id="XMLID_730_" class="st8" points="313.9,185 316.7,195.5 327.2,198.3 316.7,201.1 313.9,211.6 311.1,201.1 300.6,198.3 
		311.1,195.5 	"/>
</g>
</svg>
