<?xml version="1.0" encoding="utf-8"?>
<!-- Generator: Adobe Illustrator 19.0.0, SVG Export Plug-In . SVG Version: 6.00 Build 0)  -->
<svg version="1.1" id="Layer_1" xmlns="http://www.w3.org/2000/svg" xmlns:xlink="http://www.w3.org/1999/xlink" x="0px" y="0px"
	 viewBox="-268 156.3 422 248.7" enable-background="new -268 156.3 422 248.7" xml:space="preserve">
<g id="XMLID_703_">
	<path id="XMLID_10288_" fill="#4D4D4F" d="M-183.7667,352.9333c1.8,0.8,9,3.2,31.7,2.5c68.2-2,127.8-2,196.1,0
		c22.7,0.7,29.9-1.7,31.7-2.5c-0.7,0.2-1.8-0.3-3.2-1.6c-46-43.8-207.1-43.8-253.1,0
		C-181.9667,352.6333-183.0667,353.0333-183.7667,352.9333z"/>
	<path id="XMLID_10286_" fill="#ACB7BF" d="M-182.5667,335.7333c0,0-1.3,8.7-2.1,12.8s0.7,6,4.1,2.8c46-43.8,207.1-43.8,253.1,0
		c3.4,3.3,4.9,1.3,4.1-2.8c-0.8-4.1-2.1-12.8-2.1-12.8c-4.6-51.5-14.7-90.8-25.2-109.7c-10.5-19-25.8-26.2-52.3-34
		c-30.3-9-71.7-9-102,0c-26.5,7.8-41.9,15-52.3,34C-167.8667,245.0333-177.9667,284.2333-182.5667,335.7333z"/>
	<path id="XMLID_10284_" fill="#6D6E70" d="M-159.6667,337.5333c1.4-17.1-1-45.4-0.8-59.9c0.3-34.3,13.8-61.7,36.6-79.3
		c-1.9,0.7-3.7,1.5-5.4,2.3c-20.3,17.6-32.5,43.6-33.1,75.7c-0.3,15.4,1.9,46-0.2,62.6
		C-161.5667,338.4333-160.5667,338.0333-159.6667,337.5333z"/>
	<path id="XMLID_10281_" fill="#626366" d="M-66.4667,185.6333c-0.3-1.6-0.4-3.9,0.5-5c4.4-5.3,19.5-5.3,23.9,0
		c0.9,1.1,0.8,3.4,0.5,5C-49.8667,185.1333-58.2667,185.1333-66.4667,185.6333z"/>
	<path id="XMLID_10279_" fill="#6D6E70" d="M-65.9667,180.6333c4.4-5.3,19.5-5.3,23.9,0
		C-43.4667,183.6333-65.6667,181.3333-65.9667,180.6333z"/>
	<path id="XMLID_10277_" fill="#4D4D4F" d="M-106.7667,204.5333c-5.3,2.8,0.8,4.4,3.2,1.8
		C-102.6667,205.3333-101.7667,203.1333-106.7667,204.5333z"/>
	<path id="XMLID_10275_" fill="#6D6E70" d="M51.5333,337.5333c-1.4-17.1,1-45.4,0.8-59.9c-0.3-34.3-13.8-61.7-36.6-79.3
		c1.9,0.7,3.7,1.5,5.4,2.3c20.3,17.6,32.5,43.6,33.1,75.7c0.3,15.4-1.9,46,0.2,62.6
		C53.5333,338.4333,52.5333,338.0333,51.5333,337.5333z"/>
	<path id="XMLID_10273_" fill="#4D4D4F" d="M-1.2667,204.5333c5.3,2.8-0.8,4.4-3.2,1.8
		C-5.3667,205.3333-6.2667,203.1333-1.2667,204.5333z"/>
	<path id="XMLID_10271_" fill="#ACB7BF" d="M-174.1667,346.0333c-1.7,7.3-4.3,18.8-5.1,26c-1.1,11.1,0.2,18.6,6.5,19.9
		c6.4,1.3,10.3-0.3,28.5-12.3c52.7-34.7,127.6-34.7,180.3,0c18.2,11.9,22.1,13.6,28.5,12.3c6.4-1.3,7.7-8.8,6.5-19.9
		c-0.7-7.2-3.3-18.7-5.1-26C15.4333,309.2333-123.4667,309.2333-174.1667,346.0333z"/>
	
		<linearGradient id="XMLID_2_" gradientUnits="userSpaceOnUse" x1="-148.4659" y1="352.3104" x2="41.8764" y2="352.3104" gradientTransform="matrix(1 0 0 1 0 2.6666)">
		<stop  offset="0" style="stop-color:#626366"/>
		<stop  offset="0.48" style="stop-color:#757876"/>
		<stop  offset="1" style="stop-color:#626366"/>
	</linearGradient>
	<path id="XMLID_10269_" fill="url(#XMLID_2_)" d="M43.8333,367.9333c11.9,7.9,12.1,4.3,12.1-4.2c0-2.4-0.1-5.3-0.3-8.2
		c-0.4-5.5-0.7-11-1.2-16.5c-0.9-0.5-1.9-0.9-2.9-1.4c0.6,6,0.8,12.1,1.3,18.2c0.2,2.7,0.3,5.4,0.3,8c0.1,8.1-0.8,6.5-7.8,1.9
		c-58-37.1-140.8-37.2-198.8,0c-7,4.6-7.9,6.2-7.8-1.9c0-2.7,0.1-5.4,0.3-8c0.5-6,0.7-12.2,1.3-18.2c-1,0.5-1.9,0.9-2.9,1.4
		c-0.5,5.5-0.7,11-1.2,16.5c-0.2,2.9-0.3,5.9-0.3,8.2c-0.1,8.5,0.1,12.1,12.1,4.2
		C-94.4667,330.1333-13.5667,330.1333,43.8333,367.9333z"/>
	<path id="XMLID_10267_" fill="#626366" d="M-179.5667,376.4333c-0.4,8.7,1.4,14.4,6.9,15.5c6.4,1.3,10.3-0.3,28.5-12.3
		c52.7-34.7,127.6-34.7,180.3,0c18.2,11.9,22.1,13.6,28.5,12.3c5.5-1.1,7.2-6.8,6.9-15.5c-0.3,6.4-2.3,10.6-6.9,11.6
		c-6.4,1.3-10.3-0.3-28.5-12.3c-52.7-34.7-127.6-34.7-180.3,0c-18.1,11.9-22.1,13.6-28.5,12.3
		C-177.2667,387.0333-179.1667,382.8333-179.5667,376.4333z"/>
</g>
<path id="XMLID_10246_" fill="#EF7B05" d="M-15.7908,247.496c-1.9899-4.6822-4.9163-9.0133-8.5451-12.642
	c-3.6287-3.6287-7.9598-6.4381-12.7591-8.428c-5.0334-2.107-10.535-3.0435-15.9196-3.0435c-5.5016,0-10.8862,0.9364-15.9196,3.0435
	c-4.7993,1.9899-9.1303,4.7993-12.7591,8.428c-3.6287,3.6287-6.5551,7.8427-8.5451,12.642
	c-2.107,5.0334-3.1605,10.3009-3.0434,15.8025c0,5.3846,1.0535,10.7691,3.0434,15.8025c1.9899,4.6822,4.9163,9.0133,8.5451,12.642
	c3.6287,3.6288,7.9598,6.4381,12.7591,8.428c5.0334,2.107,10.418,3.0435,15.9196,3.0435
	c5.5016,0.1171,10.8862-0.9364,15.9196-2.9264c4.7993-1.99,9.1303-4.7993,12.7591-8.428c3.6287-3.6287,6.5551-7.8427,8.5451-12.642
	c2.107-5.0334,3.1605-10.3009,3.0434-15.8025C-12.7474,257.9139-13.8009,252.5294-15.7908,247.496z M-74.6699,260.255
	c4.6822-1.5217,9.2474-3.3946,9.2474-3.3946c13.1102-4.214,14.2808-9.1303,14.2808-9.1303s2.4582,4.9163,11.9397,8.1939
	c0,0,5.1505,1.7558,9.9497,3.5117c0.2341,0.4682,0.4682-0.1171,0.5853,0.3511c0.9364,1.99,1.4047,3.7458,1.7558,5.2675
	l-7.2012,0.0103c0,0,1.0082,2.5609,1.0082,2.4438c0-1.1706-0.8725-2.3503-1.6919-3.2868c-0.8194-0.8194-2.1818-1.5084-3.2353-1.9766
	c-3.6287-1.5217-7.5884-0.9085-10.8071,1.1384c-0.9364,0.8194-1.8349,1.788-2.3031,2.9585
	c-0.1171,0.3512-0.4682,0.2341-0.5853,0.2341h-2.5752c-0.1171,0-0.2341,0.1171-0.3512-0.2341
	c-0.4682-1.1705-1.1706-1.7558-1.9899-2.5752c-2.8093-2.6923-7.0233-3.1605-10.6521-1.7558
	c-1.1706,0.4682-1.914,1.0115-2.8505,1.8309c-0.8194,0.8194-2.2678,1.869-2.2678,3.0396l2.426-0.1883h-9.1303
	c0.3512-3.0435,2.107-3.9799,3.0434-6.0869C-76.1916,260.4892-74.6699,260.6062-74.6699,260.255L-74.6699,260.255L-74.6699,260.255z
	 M-36.8609,271.0242c0,0.8194-0.1171,1.5217-0.4682,2.2241c-0.2341,0.7023-0.7023,1.2876-1.1706,1.8729
	c-0.4682,0.4682-1.1706,0.9364-1.8729,1.1706c-0.7023,0.3511-1.5217,0.4682-2.2241,0.4682c-1.5217,0-2.9264-0.5853-4.097-1.6388
	c-0.5853-0.4682-0.9364-1.1706-1.1706-1.8729c-0.5853-1.4047-0.5853-3.0435,0-4.4481c0.2341-0.7023,0.7023-1.2876,1.1706-1.8729
	c0.4682-0.4682,1.1706-0.9364,1.8729-1.1706c0.7023-0.2341,1.5217-0.4682,2.2241-0.3511c0.8194,0,1.5217,0.1171,2.2241,0.4682
	c0.7023,0.2341,1.2876,0.7024,1.8729,1.1706c0.4682,0.4682,0.9364,1.1706,1.1706,1.8729
	C-36.9779,269.5025-36.8609,270.3218-36.8609,271.0242z M-57.9309,271.0242c0,0.8194-0.1171,1.5217-0.4682,2.2241
	c-0.2341,0.7023-0.7023,1.2876-1.1706,1.8729c-0.4682,0.4682-1.1706,0.9364-1.8729,1.1706c-1.4047,0.5853-3.0434,0.5853-4.4481,0
	c-0.7023-0.2341-1.2876-0.7023-1.8729-1.1706c-0.4682-0.4682-0.9364-1.1706-1.1706-1.8729c-0.5853-1.4047-0.5853-3.0435,0-4.4481
	c0.2341-0.7023,0.7023-1.2876,1.1706-1.8729c0.4682-0.4682,1.1706-0.9364,1.8729-1.1706c1.4047-0.5853,3.0434-0.5853,4.4481,0
	c0.7023,0.2341,1.2876,0.7024,1.8729,1.1706c0.4682,0.4682,0.9365,1.1706,1.1706,1.8729
	C-58.0479,269.5025-57.9309,270.3218-57.9309,271.0242z M-34.1686,288.3484c-2.4582,3.0435-5.2675,5.0334-8.428,6.2039
	c-3.2776,1.4047-6.9063,2.4582-10.418,2.3411c-3.6287,0-7.1404-0.4682-10.418-1.7558c-3.1605-1.2876-5.9698-3.0435-8.428-5.3846
	c-2.4582-2.3411-4.3311-6.0869-5.6187-9.2474c-1.2876-3.1605-1.9899-6.2039-1.9899-10.8862h6.204
	c0.1171,3.0435,1.0535,5.3846,2.6923,7.0233c0.8194,0.8194,1.8729,1.99,3.0434,2.4582c2.4582,0.9364,5.1505,1.1706,7.6086,0.2341
	c1.1706-0.4682,2.2241-1.0535,3.0434-1.8729c0.8194-0.8194,1.5217-2.3411,1.9899-3.5117c0.3512-0.8194,0.5853-2.9264,0.7023-2.9264
	h1.9899c0.1171,0,0.2341,2.2241,0.5853,2.9264c0.4682,1.1706,1.1706,2.4582,1.9899,3.2776c0.9364,0.8194,1.8729,1.6388,3.0434,2.107
	c2.4582,0.9364,5.1505,1.0535,7.6086,0.1171c1.1706-0.4682,2.107-1.1706,3.0434-1.99c0.8194-0.8194,1.5217-2.8094,1.9899-3.9799
	c0.3512-0.9364,0.7023-2.4582,0.7023-4.097h6.321c0,4.6822-0.7023,7.0233-1.9899,10.1839
	C-29.9546,282.9639-31.8275,286.8267-34.1686,288.3484L-34.1686,288.3484L-34.1686,288.3484z"/>
<path fill="none" stroke="#626366" stroke-miterlimit="10" d="M-174.1667,346.0333c0,0,113.2-69.7,240.2,0"/>
</svg>
