<?xml version="1.0" encoding="utf-8"?>
<!-- Generator: Adobe Illustrator 19.0.0, SVG Export Plug-In . SVG Version: 6.00 Build 0)  -->
<svg version="1.1" id="Layer_1" xmlns="http://www.w3.org/2000/svg" xmlns:xlink="http://www.w3.org/1999/xlink" x="0px" y="0px"
	 viewBox="0 0 304.7 210.1" style="enable-background:new 0 0 304.7 210.1;" xml:space="preserve">
<style type="text/css">
	.st0{fill:#FDC23E;}
	.st1{fill:#FAB22E;}
	.st2{fill:#FEDE55;}
	.st3{opacity:0.35;}
	.st4{fill:#FEFDFF;}
</style>
<g id="XMLID_13746_">
	<rect id="XMLID_13829_" x="54.9" y="127.2" class="st0" width="202.1" height="29.6"/>
	<polygon id="XMLID_13827_" class="st1" points="141.6,156.8 155.9,136.6 170.2,156.8 	"/>
	<polygon id="XMLID_13825_" class="st1" points="170.2,156.8 184.6,136.6 198.9,156.8 	"/>
	<polygon id="XMLID_13823_" class="st1" points="198.9,156.8 213.2,136.6 227.5,156.8 	"/>
	<polygon id="XMLID_13820_" class="st1" points="227.5,156.8 241.9,136.6 256.2,156.8 	"/>
	<polygon id="XMLID_13818_" class="st1" points="55.7,156.8 70,136.6 84.3,156.8 	"/>
	<polygon id="XMLID_13816_" class="st1" points="84.3,156.8 98.6,136.6 113,156.8 	"/>
	<polygon id="XMLID_13814_" class="st1" points="113,156.8 127.3,136.6 141.6,156.8 	"/>
	<path id="XMLID_13812_" class="st0" d="M233.9,104.9c-6.2-18.4-13.2-36.6-21-54.6c-11.1,16.3-21.4,32.8-30.9,49.5
		C174.1,82.3,165.4,65,156,48c-9.5,17-18.1,34.3-26,51.8c-9.5-16.7-19.8-33.2-30.9-49.5c-7.8,18-14.8,36.2-21,54.6
		C67,89,55.2,73.4,42.5,58c4.4,23.3,13.3,70,13.3,70H156h100.1c0,0,8.9-46.6,13.3-70C256.8,73.4,244.9,89,233.9,104.9z"/>
	<path id="XMLID_13810_" class="st1" d="M257,121.3c-0.3-0.1-0.5-0.1-0.8-0.1H55.6c-0.3,0-0.5,0.1-0.8,0.1v7.5
		c0.3,0.1,0.5,0.1,0.8,0.1h200.5c0.3,0,0.5-0.1,0.8-0.1V121.3z"/>
	<path id="XMLID_13808_" class="st2" d="M258.8,124.5c0,1.5-1.2,2.6-2.6,2.6H55.6c-1.5,0-2.6-1.2-2.6-2.6v-2.4
		c0-1.5,1.2-2.6,2.6-2.6h200.5c1.5,0,2.6,1.2,2.6,2.6V124.5z"/>
	<path id="XMLID_13806_" class="st2" d="M258.8,161.9c0,1.5-1.2,2.6-2.6,2.6H55.6c-1.5,0-2.6-1.2-2.6-2.6v-2.4
		c0-1.5,1.2-2.6,2.6-2.6h200.5c1.5,0,2.6,1.2,2.6,2.6V161.9z"/>
	<g id="XMLID_13791_">
		<circle id="XMLID_13804_" class="st0" cx="42.5" cy="57.4" r="9"/>
		<path id="XMLID_13802_" class="st1" d="M48,50.3c1.2,1.5,1.9,3.4,1.9,5.5c0,4.9-4,9-9,9c-2.1,0-3.9-0.7-5.5-1.9
			c1.6,2.1,4.2,3.5,7.1,3.5c4.9,0,9-4,9-9C51.5,54.5,50.1,52,48,50.3z"/>
		<circle id="XMLID_13793_" class="st2" cx="38.6" cy="53.4" r="1.7"/>
	</g>
	<g id="XMLID_13781_">
		<circle id="XMLID_13789_" class="st0" cx="99.1" cy="47" r="9"/>
		<path id="XMLID_13785_" class="st1" d="M104.5,39.9c1.2,1.5,1.9,3.4,1.9,5.5c0,4.9-4,9-9,9c-2.1,0-3.9-0.7-5.5-1.9
			c1.6,2.1,4.2,3.5,7.1,3.5c4.9,0,9-4,9-9C108,44.1,106.6,41.5,104.5,39.9z"/>
		<circle id="XMLID_13783_" class="st2" cx="95.1" cy="43" r="1.7"/>
	</g>
	<g id="XMLID_13773_">
		<circle id="XMLID_13779_" class="st0" cx="269.4" cy="57.4" r="9"/>
		<path id="XMLID_13777_" class="st1" d="M274.8,50.3c1.2,1.5,1.9,3.4,1.9,5.5c0,4.9-4,9-9,9c-2.1,0-3.9-0.7-5.5-1.9
			c1.6,2.1,4.2,3.5,7.1,3.5c4.9,0,9-4,9-9C278.3,54.5,277,52,274.8,50.3z"/>
		<circle id="XMLID_13775_" class="st2" cx="265.5" cy="53.4" r="1.7"/>
	</g>
	<g id="XMLID_13764_">
		<circle id="XMLID_13771_" class="st0" cx="213.3" cy="46.8" r="9"/>
		<path id="XMLID_13769_" class="st1" d="M218.7,39.7c1.2,1.5,1.9,3.4,1.9,5.5c0,4.9-4,9-9,9c-2.1,0-3.9-0.7-5.5-1.9
			c1.6,2.1,4.2,3.5,7.1,3.5c4.9,0,9-4,9-9C222.2,43.9,220.8,41.3,218.7,39.7z"/>
		<circle id="XMLID_13766_" class="st2" cx="209.3" cy="42.8" r="1.7"/>
	</g>
	<g id="XMLID_13756_">
		<circle id="XMLID_13762_" class="st0" cx="155.9" cy="45" r="12.6"/>
		<path id="XMLID_13760_" class="st1" d="M163.6,35.1c1.6,2.1,2.6,4.8,2.6,7.6c0,6.9-5.6,12.6-12.6,12.6c-2.9,0-5.5-1-7.6-2.6
			c2.3,3,5.9,4.9,9.9,4.9c6.9,0,12.6-5.6,12.6-12.5C168.5,40.9,166.5,37.4,163.6,35.1z"/>
		<circle id="XMLID_13758_" class="st2" cx="150.4" cy="39.4" r="2.4"/>
	</g>
	<path id="XMLID_13754_" class="st3" d="M269.4,48.5c-4.9,0-9,4-9,9c0,2.9,1.4,5.5,3.6,7.2c-10.6,13.2-20.7,26.7-30.2,40.3
		c-5.6-16.6-11.8-33.1-18.8-49.4c4.1-0.8,7.1-4.4,7.1-8.8c0-4.9-4-9-9-9c-4.9,0-9,4-9,9c0,3.7,2.2,6.8,5.4,8.2
		c-9.9,14.8-19.2,29.8-27.8,44.8c-6.5-14.6-13.6-29-21.3-43.2c4.6-1.9,7.8-6.4,7.8-11.6c0-6.9-5.6-12.5-12.6-12.5v132.1h100.3
		c1.5,0,2.6-1.2,2.6-2.6v-2.4c0-1.5-1.2-2.6-2.6-2.6h0.8v-29.6h-0.8c0,0,0,0,0,0c1.4,0,2.6-1.2,2.6-2.6v-2.4c0-0.9-0.5-1.8-1.2-2.2
		c2.4-12.3,6.9-36.2,10.2-53.6c0.5,0.1,1,0.1,1.6,0.1c4.9,0,9-4,9-9C278.3,52.5,274.3,48.5,269.4,48.5z"/>
	<polygon id="XMLID_13752_" class="st4" points="101.2,74.1 106.9,72.9 101.2,71.7 100,65.9 98.8,71.7 93.1,72.9 98.8,74.1 
		100,79.8 	"/>
	<polygon id="XMLID_13750_" class="st4" points="71.3,127.2 77.6,125.8 71.3,124.5 70,118.2 68.6,124.5 62.3,125.8 68.6,127.2 
		70,133.5 	"/>
	<polygon id="XMLID_13748_" class="st4" points="217.1,108 219.3,116.3 227.6,118.5 219.3,120.7 217.1,128.9 214.9,120.7 
		206.7,118.5 214.9,116.3 	"/>
</g>
</svg>
