<?xml version="1.0" encoding="utf-8"?>
<!-- Generator: Adobe Illustrator 19.0.0, SVG Export Plug-In . SVG Version: 6.00 Build 0)  -->
<svg version="1.1" id="Layer_1" xmlns="http://www.w3.org/2000/svg" xmlns:xlink="http://www.w3.org/1999/xlink" x="0px" y="0px"
	 viewBox="0 0 303.4 137.2" style="enable-background:new 0 0 303.4 137.2;" xml:space="preserve">
<style type="text/css">
	.st0{fill:#FFB000;}
	.st1{fill:#FFD400;}
	.st2{fill:#FFEC00;}
	.st3{fill:#FFC200;}
</style>
<g id="XMLID_14732_">
	<g id="XMLID_14742_">
		<path id="XMLID_14746_" class="st0" d="M160.9,80.7L187,82c-1.2-15.8-1.1-30.6,1.6-42.8C171.3,53.5,166.1,63.5,160.9,80.7z"/>
		<circle id="XMLID_14745_" class="st0" cx="191.4" cy="36.2" r="7.9"/>
		<path id="XMLID_14744_" class="st0" d="M149.4,80.7L123.2,82c1.2-15.8,1.1-30.6-1.6-42.8C138.9,53.5,144.2,63.5,149.4,80.7z"/>
		<circle id="XMLID_14743_" class="st0" cx="118.9" cy="36.2" r="7.9"/>
	</g>
	<path id="XMLID_14740_" class="st1" d="M172,79.7c-3.2-17.1-6.7-35-16.9-53.5c-10.1,18.5-13.7,36.3-16.9,53.5
		c-10.4-17.1-30.1-26.9-49.5-32.4c21.6,15,32.1,51.2,35.3,84.6h31.1h31.1c3.2-33.3,13.7-69.5,35.3-84.6
		C202.1,52.7,182.4,62.6,172,79.7z"/>
	<circle id="XMLID_14739_" class="st2" cx="223.5" cy="44.8" r="8.8"/>
	<circle id="XMLID_14738_" class="st2" cx="86.8" cy="44.8" r="8.8"/>
	<circle id="XMLID_14737_" class="st2" cx="155.1" cy="20.5" r="8.8"/>
	<path id="XMLID_14736_" class="st3" d="M228.3,47.1c-4.9,0-8.8-4-8.8-8.8c0-0.5,0.1-1,0.1-1.5c-2.9,1.4-5,4.4-5,7.9
		c0,4.9,4,8.8,8.8,8.8c4.4,0,8-3.2,8.7-7.4C231,46.8,229.7,47.1,228.3,47.1z"/>
	<path id="XMLID_14735_" class="st3" d="M91.6,47.1c-4.9,0-8.8-4-8.8-8.8c0-0.5,0.1-1,0.1-1.5c-2.9,1.4-5,4.4-5,7.9
		c0,4.9,4,8.8,8.8,8.8c4.4,0,8-3.2,8.7-7.4C94.3,46.8,93,47.1,91.6,47.1z"/>
	<path id="XMLID_14734_" class="st3" d="M160,22.9c-4.9,0-8.8-4-8.8-8.8c0-0.5,0.1-1,0.1-1.5c-2.9,1.4-5,4.4-5,7.9
		c0,4.9,4,8.8,8.8,8.8c4.4,0,8-3.2,8.7-7.4C162.6,22.6,161.3,22.9,160,22.9z"/>
</g>
</svg>
