<?xml version="1.0" encoding="utf-8"?>
<!-- Generator: Adobe Illustrator 19.0.0, SVG Export Plug-In . SVG Version: 6.00 Build 0)  -->
<svg version="1.1" id="Layer_1" xmlns="http://www.w3.org/2000/svg" xmlns:xlink="http://www.w3.org/1999/xlink" x="0px" y="0px"
	 viewBox="0 0 184.6667 159.3333" enable-background="new 0 0 184.6667 159.3333" xml:space="preserve">
<g id="XMLID_14732_">
	<g id="XMLID_14742_">
		<path id="XMLID_14746_" fill="#FFB000" d="M97.8638,88.3363l26.14,1.3648c-1.2281-15.8449-1.0891-30.6253,1.6303-42.7688
			C108.2919,61.1925,103.0516,71.1515,97.8638,88.3363z"/>
		<circle id="XMLID_14745_" fill="#FFB000" cx="128.3755" cy="43.8371" r="7.9301"/>
		<path id="XMLID_14744_" fill="#FFB000" d="M86.3728,88.3363l-26.1403,1.3648c1.2284-15.8449,1.0891-30.6253-1.63-42.7688
			C75.9447,61.1925,81.185,71.1515,86.3728,88.3363z"/>
		<circle id="XMLID_14743_" fill="#FFB000" cx="55.861" cy="43.8371" r="7.9301"/>
	</g>
	<path id="XMLID_14740_" fill="#FFD400" d="M108.9772,87.332c-3.2012-17.1268-6.7448-35.025-16.859-53.4759
		C82.0041,52.307,78.4603,70.2052,75.2593,87.332c-10.373-17.0714-30.0788-27.006-49.5241-32.48
		c21.6007,15.0154,32.1311,51.4813,35.2992,84.4813h31.0838h31.0839c3.1681-33,13.6982-69.4659,35.2992-84.4813
		C139.056,60.326,119.3503,70.2606,108.9772,87.332z"/>
	<circle id="XMLID_14739_" fill="#FFEC00" cx="160.4772" cy="52.4278" r="8.8247"/>
	<circle id="XMLID_14738_" fill="#FFEC00" cx="23.7593" cy="52.4278" r="8.8247"/>
	<circle id="XMLID_14737_" fill="#FFEC00" cx="92.1182" cy="28.1928" r="8.8247"/>
	<path id="XMLID_14736_" fill="#FFC200" d="M165.3238,54.7985c-4.8737,0-8.8249-3.951-8.8249-8.8249
		c0-0.501,0.0673-0.9839,0.1473-1.4623c-2.9459,1.4297-4.9937,4.4222-4.9937,7.9165c0,4.8739,3.9507,8.8246,8.8243,8.8246
		c4.3732,0,7.9774-3.1885,8.6776-7.3625C167.9915,54.4544,166.7029,54.7985,165.3238,54.7985z"/>
	<path id="XMLID_14735_" fill="#FFC200" d="M28.6056,54.7985c-4.8739,0-8.8246-3.951-8.8246-8.8249
		c0-0.501,0.0673-0.9839,0.1476-1.4623c-2.9461,1.4297-4.9939,4.4222-4.9939,7.9165c0,4.8739,3.9512,8.8246,8.8249,8.8246
		c4.373,0,7.9774-3.1885,8.677-7.3625C31.2738,54.4544,29.985,54.7985,28.6056,54.7985z"/>
	<path id="XMLID_14734_" fill="#FFC200" d="M96.9647,30.5635c-4.8739,0-8.8249-3.951-8.8249-8.8249
		c0-0.501,0.0673-0.9842,0.1473-1.4623c-2.9459,1.4297-4.9937,4.422-4.9937,7.9162c0,4.8737,3.951,8.8249,8.8249,8.8249
		c4.3727,0,7.9774-3.1885,8.677-7.3625C99.6326,30.2191,98.3441,30.5635,96.9647,30.5635z"/>
</g>
</svg>
