<?xml version="1.0" encoding="utf-8"?>
<!-- Generator: Adobe Illustrator 19.0.0, SVG Export Plug-In . SVG Version: 6.00 Build 0)  -->
<svg version="1.1" id="Layer_1" xmlns="http://www.w3.org/2000/svg" xmlns:xlink="http://www.w3.org/1999/xlink" x="0px" y="0px"
	 viewBox="0 0 306.6667 206" enable-background="new 0 0 306.6667 206" xml:space="preserve">
<g id="XMLID_13746_">
	<rect id="XMLID_13829_" x="57.6667" y="134.6667" fill="#FDC23E" width="202" height="29"/>
	<polygon id="XMLID_13827_" fill="#FAB22E" points="144.3856,163.6667 158.7077,143.5095 173.0324,163.6667 	"/>
	<polygon id="XMLID_13825_" fill="#FAB22E" points="173.0324,163.6667 187.3544,143.5095 201.6786,163.6667 	"/>
	<polygon id="XMLID_13823_" fill="#FAB22E" points="201.6786,163.6667 216.0022,143.5095 230.3253,163.6667 	"/>
	<polygon id="XMLID_13820_" fill="#FAB22E" points="230.3253,163.6667 244.6485,143.5095 258.9721,163.6667 	"/>
	<polygon id="XMLID_13818_" fill="#FAB22E" points="58.4448,163.6667 72.7685,143.5095 87.0926,163.6667 	"/>
	<polygon id="XMLID_13816_" fill="#FAB22E" points="87.0926,163.6667 101.4147,143.5095 115.7394,163.6667 	"/>
	<polygon id="XMLID_13814_" fill="#FAB22E" points="115.7394,163.6667 130.0614,143.5095 144.3856,163.6667 	"/>
	<path id="XMLID_13812_" fill="#FDC23E" d="M236.6384,112.2517c-6.169-18.384-13.1735-36.5926-21.002-54.5696
		c-11.0983,16.3061-21.3996,32.8271-30.9016,49.5058c-7.8504-17.5501-16.5153-34.8487-25.9834-51.8404
		c-9.4654,16.9917-18.1314,34.2903-25.9812,51.8404c-9.5025-16.6787-19.8044-33.1997-30.9021-49.5058
		c-7.829,17.977-14.8335,36.1856-21.0025,54.5696C69.805,96.3735,57.9538,80.8975,45.3198,65.5453
		c4.448,23.3163,13.3437,70.1214,13.3437,70.1214h100.0881h100.0896c0,0,8.8966-46.8051,13.3437-70.1214
		C259.5508,80.8975,247.6996,96.3735,236.6384,112.2517z"/>
	<path id="XMLID_13810_" fill="#FAB22E" d="M259.6667,128.684c0-0.0793-0.4064-0.0173-0.6836-0.0173H58.4354
		c-0.2786,0-0.7687-0.062-0.7687,0.0173v7.4653c0,0.0804,0.4901,0.5174,0.7687,0.5174h200.5477c0.2771,0,0.6836-0.437,0.6836-0.5174
		V128.684z"/>
	<path id="XMLID_13808_" fill="#FEDE55" d="M261.6667,131.8515c0,1.4538-1.2303,2.8151-2.6836,2.8151H58.4354
		c-1.4543,0-2.7687-1.3613-2.7687-2.8151v-2.4485c0-1.4548,1.3144-2.7364,2.7687-2.7364h200.5477
		c1.4533,0,2.6836,1.2816,2.6836,2.7364V131.8515z"/>
	<path id="XMLID_13806_" fill="#FEDE55" d="M261.6667,169.2154c0,1.4549-1.2303,2.4512-2.6836,2.4512H58.4354
		c-1.4543,0-2.7687-0.9964-2.7687-2.4512v-2.4474c0-1.4538,1.3144-3.1014,2.7687-3.1014h200.5477
		c1.4533,0,2.6836,1.6476,2.6836,3.1014V169.2154z"/>
	<g id="XMLID_13791_">
		<circle id="XMLID_13804_" fill="#FDC23E" cx="45.3195" cy="64.755" r="8.9522"/>
		<path id="XMLID_13802_" fill="#FAB22E" d="M50.7713,57.6664c1.1637,1.5113,1.864,3.3982,1.864,5.451
			c0,4.9448-4.0087,8.9525-8.9525,8.9525c-2.0539,0-3.9419-0.6982-5.4516-1.864c1.6365,2.126,4.1992,3.5004,7.0885,3.5004
			c4.9438,0,8.952-4.0076,8.952-8.9514C54.2718,61.8651,52.8973,59.304,50.7713,57.6664z"/>
		<circle id="XMLID_13793_" fill="#FEDE55" cx="41.3954" cy="60.74" r="1.7046"/>
	</g>
	<g id="XMLID_13781_">
		<circle id="XMLID_13789_" fill="#FDC23E" cx="101.8413" cy="54.3216" r="8.9517"/>
		<path id="XMLID_13785_" fill="#FAB22E" d="M107.2936,47.232c1.1637,1.5112,1.864,3.3992,1.864,5.451
			c0,4.9458-4.0087,8.9535-8.9525,8.9535c-2.055,0-3.9419-0.6993-5.4516-1.864c1.6354,2.126,4.1992,3.4994,7.088,3.4994
			c4.9443,0,8.9514-4.0066,8.9514-8.9504C110.7929,51.4317,109.4185,48.8695,107.2936,47.232z"/>
		<circle id="XMLID_13783_" fill="#FEDE55" cx="97.9171" cy="50.3055" r="1.7051"/>
	</g>
	<g id="XMLID_13773_">
		<circle id="XMLID_13779_" fill="#FDC23E" cx="272.1848" cy="64.7539" r="8.9525"/>
		<path id="XMLID_13777_" fill="#FAB22E" d="M277.6374,57.6654c1.1642,1.5112,1.8629,3.3992,1.8629,5.451
			c0,4.9459-4.0071,8.9535-8.9525,8.9535c-2.0534,0-3.9403-0.6993-5.4516-1.864c1.6364,2.1249,4.1992,3.4983,7.0886,3.4983
			c4.9448,0,8.9525-4.0066,8.9525-8.9504C281.1373,61.864,279.7633,59.3019,277.6374,57.6654z"/>
		<circle id="XMLID_13775_" fill="#FEDE55" cx="268.2607" cy="60.739" r="1.7043"/>
	</g>
	<g id="XMLID_13764_">
		<circle id="XMLID_13771_" fill="#FDC23E" cx="216.0458" cy="54.1264" r="8.9522"/>
		<path id="XMLID_13769_" fill="#FAB22E" d="M221.4987,47.0379c1.1626,1.5123,1.8629,3.3992,1.8629,5.452
			c0,4.9438-4.0087,8.9535-8.9525,8.9535c-2.0539,0-3.9408-0.7003-5.452-1.864c1.637,2.1249,4.1997,3.4994,7.0885,3.4994
			c4.9443,0,8.9525-4.0076,8.9525-8.9525C224.998,51.2375,223.6235,48.6754,221.4987,47.0379z"/>
		<circle id="XMLID_13766_" fill="#FEDE55" cx="212.1217" cy="50.1115" r="1.7046"/>
	</g>
	<g id="XMLID_13756_">
		<circle id="XMLID_13762_" fill="#FDC23E" cx="158.708" cy="52.3365" r="12.5502"/>
		<path id="XMLID_13760_" fill="#FAB22E" d="M166.352,42.3988c1.6317,2.1186,2.6122,4.7653,2.6122,7.6427
			c0,6.932-5.619,12.552-12.5505,12.552c-2.8799,0-5.5256-0.982-7.6432-2.6133c2.2945,2.9797,5.8878,4.9052,9.9372,4.9052
			c6.9314,0,12.5505-5.618,12.5505-12.5489C171.2582,48.285,169.3311,44.6948,166.352,42.3988z"/>
		<circle id="XMLID_13758_" fill="#FEDE55" cx="153.2066" cy="46.7071" r="2.3895"/>
	</g>
	<path id="XMLID_13754_" opacity="0.35" d="M272.1848,55.8025c-4.9444,0-8.9525,4.0087-8.9525,8.9514
		c0,2.9442,1.4293,5.5491,3.6231,7.1803c-10.6489,13.2429-20.7259,26.6936-30.2169,40.3174
		c-5.5737-16.6108-11.8356-33.0766-18.767-49.3607c4.0682-0.8433,7.1266-4.446,7.1266-8.7646c0-4.9427-4.0082-8.9514-8.9525-8.9514
		c-4.9438,0-8.9519,4.0087-8.9519,8.9514c0,3.6831,2.2261,6.8443,5.4035,8.2177c-9.9053,14.7907-19.1647,29.7525-27.7623,44.8438
		c-6.5302-14.5976-13.6317-29.0199-21.2827-43.2365c4.5769-1.8723,7.7855-6.3642,7.7855-11.6149
		c0-6.9309-5.571-12.5489-12.571-12.5489v131.879h100.3164c1.4533,0,2.6836-0.9964,2.6836-2.4512v-2.4474
		c0-1.4538-1.2303-3.1014-2.6836-3.1014h0.6836v-29h-1v-0.1726c2-0.0115,3-1.196,3-2.6425v-2.4485
		c0-0.934-0.515-1.7544-1.2507-2.225c2.3539-12.3371,6.8884-36.1658,10.2177-53.6168c0.5078,0.0898,1.0235,0.143,1.5562,0.143
		c4.9449,0,8.95-4.0066,8.95-8.9504C281.1398,59.8112,277.1297,55.8025,272.1848,55.8025z"/>
	<polygon id="XMLID_13752_" fill="#FEFDFF" points="103.979,81.4096 109.693,80.2031 103.979,78.9977 102.773,73.2848 
		101.566,78.9977 95.8536,80.2031 101.566,81.4096 102.773,87.1236 	"/>
	<polygon id="XMLID_13750_" fill="#FEFDFF" points="74.1012,134.5171 80.4127,133.1843 74.1012,131.8526 72.7685,125.5426 
		71.4352,131.8526 65.1253,133.1843 71.4352,134.5171 72.7685,140.8291 	"/>
	<polygon id="XMLID_13748_" fill="#FEFDFF" points="219.9228,115.3315 222.1317,123.6025 230.4026,125.813 222.1317,128.0213 
		219.9228,136.2923 217.7144,128.0213 209.4429,125.813 217.7144,123.6025 	"/>
</g>
</svg>
