<?xml version="1.0" encoding="utf-8"?>
<!-- Generator: Adobe Illustrator 19.0.0, SVG Export Plug-In . SVG Version: 6.00 Build 0)  -->
<svg version="1.1" id="Layer_1" xmlns="http://www.w3.org/2000/svg" xmlns:xlink="http://www.w3.org/1999/xlink" x="0px" y="0px"
	 viewBox="0 0 424.6667 363.3333" enable-background="new 0 0 424.6667 363.3333" xml:space="preserve">
<g id="XMLID_266_">
	<path id="XMLID_268_" fill-rule="evenodd" clip-rule="evenodd" fill="#934906" d="M328.8175,169.2148
		c-1.8106-5.4005-38.3412-110.0268-96.0552-129.2556c-10.9836-3.66-34.6588,14.3605-61.2556,21.5196
		c-26.5983,7.1595-56.1185,3.4576-63.7817,12.1369c-40.2645,45.6018-18.619,154.2348-17.4733,159.8142
		c-53.4198,37.7811-77.9828,39.1673-64.6282,59.9939c17.9768,28.0342,89.8002,33.4423,208.0018,1.6259
		c120.3294-32.3892,179.6642-73.1014,181.1397-106.3716C415.8613,163.9616,393.985,175.0756,328.8175,169.2148z"/>
	<path id="XMLID_267_" fill="#EF7B05" d="M315.5027,136.7234c-27.4111,14.99-68.054,30.759-111.6762,42.5008
		c-43.5114,11.712-87.1084,18.6422-118.6231,19.5482c1.8001,18.1749,4.3708,31.4771,4.9433,34.3216
		c35.2318-1.5091,78.3428-8.7515,122.6166-20.6688c44.0484-11.8566,84.7797-27.1356,115.9453-43.4219
		C327.8632,166.5146,323.3027,153.5882,315.5027,136.7234z"/>
</g>
</svg>
