<?xml version="1.0" encoding="utf-8"?>
<!-- Generator: Adobe Illustrator 19.0.0, SVG Export Plug-In . SVG Version: 6.00 Build 0)  -->
<svg version="1.1" id="Layer_1" xmlns="http://www.w3.org/2000/svg" xmlns:xlink="http://www.w3.org/1999/xlink" x="0px" y="0px"
	 viewBox="0 0 368 430.6667" enable-background="new 0 0 368 430.6667" xml:space="preserve">
<g id="XMLID_14417_">
	<g id="XMLID_14500_">
		<path id="XMLID_14501_" fill="#EF7B05" d="M306.8412,360.4411c0.1567-10.4888-1.6401-20.8474-3.5-30.6875
			c-0.21-1.1599-0.7603-2.9749-1-4.125c-0.1201-0.5798-0.3701-2.1174-0.5-2.6875c-0.2598-1.1399-0.3452-1.2451-0.625-2.375
			c-0.1401-0.5601-0.6626-2.0652-0.8125-2.625c-0.5801-2.25-1.0801-3.4873-1.75-5.6875c-0.8403-2.75-1.77-4.5801-2.75-7.25
			c-0.3901-1.0701-1.1426-2.0652-1.5625-3.125c-0.2002-0.53-0.8423-2.0325-1.0625-2.5625
			c-17.6299-43.52-53.9448-76.5227-96.875-82.8125c-5.1602-0.76-10.2852-0.875-15.625-0.875c-5.3501,0-12.9551,0.615-18.125,1.375
			C101.9278,225.8762,54.0563,288.619,53.5329,360.939c-0.0056,0.7697,0.0334,1.5409,0.1086,2.307l2.1362,21.7575l7.259,22.7164
			c0,0,0.2004-30.3205,1.1498-35.7514c1.4722-9.7397,4.106-19.2488,8.0342-28.2839c0.1641-0.7395,1.0581-1.7258,1.0581-2.7939
			l0.0941-0.0459c21-6.656,47.1651-15.4846,47.1651-15.4846c59.0816-18.7354,67.0163-41.0862,67.0163-41.0862
			s12.4313,22.2686,55.3253,36.8953c0,0,23.7591,7.8064,45.7815,15.7771c1.0679,2.1365,2.224,4.3552,3.2104,6.656
			c3.3704,7.7532,5.8584,15.8555,7.4267,24.1531c0.4558,2.4114,0.7238,4.8551,0.8036,7.3079l0.9537,29.3191
			c0,0,3.6192-9.1825,4.3481-19.0663C306.1238,375.5516,306.7791,364.6024,306.8412,360.4411z M254.8157,247.8189
			c0-0.01-0.0103-0.01-0.0103-0.01c0.0103,0,0.0103,0,0.0103,0c0.4897,0.3899,0.9697,0.78,1.4497,1.1799
			C255.7854,248.5889,255.3055,248.1988,254.8157,247.8189z"/>
	</g>
	<g id="XMLID_14206_">
		<g id="XMLID_14281_">
			<path id="XMLID_14327_" fill="#959C9D" d="M126.9209,358.6813c0.2165-0.111,0.4679-0.1339,0.7491-0.0241
				C127.4186,358.6608,127.1689,358.6689,126.9209,358.6813z"/>
			<path id="XMLID_14200_" fill="#EF7B05" d="M115.6346,347.904c-2.4035,1.2261-7.7642,5.4029-11.4973,8.8633
				c-4.8952,0.0135-8.224-4.2603-9.4413-5.1043c0,0,2.362,5.7213,5.3444,8.7425c-0.0521,0.0432-0.1036,0.0844-0.1556,0.1272
				c-7.7117,0.7028-14.4374-7.2976-14.4374-7.2976s4.1865,9.3865,8.0212,11.2122c-11.6454,3.8475-15.066-11.0359-15.066-11.0359
				s-3.8077,18.5398,15.3264,17.5158c9.0547-0.4846,21.1105-31.6106,58.822-12.3453
				C157.3759,361.0468,138.96,336.0058,115.6346,347.904z"/>
			<path id="XMLID_14198_" fill="#EF7B05" d="M241.324,348.6171c2.4361,1.1599,6.0513,4.6898,9.7845,8.1501
				c4.8952,0.0135,8.224-4.2603,9.4413-5.1043c0,0-2.362,5.7213-5.3445,8.7425c0.0521,0.0432,0.1036,0.0844,0.1556,0.1272
				c7.7117,0.7028,14.4373-7.2976,14.4373-7.2976s-4.1865,9.3865-8.0211,11.2122c11.6454,3.8475,15.066-11.0359,15.066-11.0359
				s3.8077,18.5398-15.3264,17.5158c-9.0547-0.4846-21.1106-31.6106-58.822-12.3453
				C197.8698,361.0468,215.3484,336.2491,241.324,348.6171z"/>
			<g id="XMLID_14283_">
				<g id="XMLID_14309_">
					<path id="XMLID_14196_" fill="#B384D9" d="M144.1553,212.3445c-0.7833-0.2211-1.5898,0.2688-1.7545,1.0659l-6.4681,30.9505
						c-0.8981,4.6601,2.6725,8.639,7.4184,8.639h70.2324c3.6844,0,6.4568-3.0108,5.7612-6.6289l-0.9652-4.8476
						c-1.0469-5.4454-5.0769-9.7477-10.4136-11.254L144.1553,212.3445z"/>
					<path id="XMLID_14194_" fill="#D376C2" d="M150.8481,169.6867c-0.1467-0.044-0.3002,0.0447-0.3351,0.1939l-7.6751,32.7643
						c-0.6989,3.458,1.4355,6.8569,4.8539,7.7294l62.2266,15.8811c3.9234,1.0013,7.5358-2.4615,6.7011-6.4237l-5.5958-23.699
						c-1.3167-5.5762-5.5081-10.0266-10.9956-11.6747L150.8481,169.6867z"/>
					<path id="XMLID_14192_" fill="#80D0DD" d="M157.672,129.465l-6.9586,27.3278c-0.6372,2.9522,1.02,5.9176,3.8682,6.9221
						l47.0181,16.5822c4.0356,1.4232,8.0696-2.1284,7.169-6.3118l-4.7815-18.5768c-1.2808-4.9758-4.8411-9.0518-9.5996-10.9899
						L157.672,129.465z"/>
					<path id="XMLID_14190_" fill="#F9DA58" d="M162.9297,93.7386l-5.1045,23.6082c-0.6631,3.0668,0.872,6.1866,3.7064,7.5325
						l34.3841,16.327c3.1832,1.5115,6.7075-1.313,5.9254-4.749l-4.9827-19.6697c-1.0148-4.0058-3.6951-7.3859-7.3643-9.2868
						L162.9297,93.7386z"/>
					<path id="XMLID_14188_" fill="#F7B257" d="M168.2733,64.0015l-5.1676,20.2395c-0.6217,2.4351,0.4404,4.988,2.6059,6.2636
						l23.2368,13.6874c3.2008,1.8854,7.0882-1.0247,6.1809-4.627l-5.0228-19.9416c-1.1252-4.4674-4.276-8.1509-8.5151-9.9547
						L168.2733,64.0015z"/>
					<path id="XMLID_14186_" fill="#F78FB5" d="M177.9848,21.2075l-7.8067,28.6102c-1.3379,4.9031,0.8721,10.0825,5.3376,12.5093
						l7.2507,3.9406c2.8722,1.561,6.229-1.0391,5.4358-4.2104L177.9848,21.2075z"/>
				</g>
				<path id="XMLID_14184_" fill="#EDA6B7" d="M84.773,235.7822c26.7396,24.0163,18.059,31.1817,33.4043,33.8003
					c1.1817,0.2017,2.2224,0.1463,2.8807,0.622l0.1737-0.0683c0,0-4.5832-19.3242-16.4864-34.6587
					c-9.1768-11.8221-28.7748-28.8755-61.0708-28.5274c-4.1774,0.045-8.9515,0.8645-9.7257,4.0793
					c-1.1939,4.9573-3.8316,13.1614-3.2159,25.7474c1.9151,39.1485,39.2577,58.6196,41.0883,57.2648
					c0.0398-0.0295,0.0798-0.059,0.1198-0.0886c2.8846-2.1338,4.4168-5.5654,1.988-7.5703
					c-29.1994-24.1039-32.9152-59.9527-24.0284-66.3134C59.1769,213.4297,78.1249,229.8111,84.773,235.7822z"/>
				<path id="XMLID_14182_" fill="#EDA6B7" d="M277.8055,235.5807c-26.7395,24.0163-18.0591,31.1817-33.4043,33.8003
					c-1.1817,0.2017-2.2225,0.1462-2.8807,0.622l-0.1738-0.0683c0,0,4.5832-19.3242,16.4864-34.6587
					c9.1768-11.8221,28.7748-28.8755,61.0708-28.5274c4.1774,0.045,8.9515,0.8645,9.7257,4.0793
					c1.1938,4.9573,2.5962,13.1615,3.2159,25.7474c0.9358,19.005-13.1058,51.8503-34.9622,57.2166
					c-1.8782,0.4612-4.2956,1.403-6.1261,0.0482c-0.0398-0.0295-0.0798-0.0591-0.1198-0.0887
					c-2.8845-2.1337-4.4168-5.5653-1.988-7.5703c29.1994-24.1039,32.9152-59.9527,24.0284-66.3134
					C303.4016,213.2283,284.4536,229.6096,277.8055,235.5807z"/>
				<path id="XMLID_14180_" fill="#FAE164" d="M133.1451,254.6239l-5.2154,0.0554c-0.6719,0.0071-1.2973,0.3445-1.6724,0.902
					l-2.911,4.3277c-0.9445,1.4041-3.0891,1.1158-3.6291-0.488l-1.6643-4.943c-0.2145-0.6369-0.7285-1.1274-1.3747-1.3118
					l-5.0155-1.4312c-1.6272-0.4644-2.0157-2.5931-0.6572-3.6022l4.1867-3.1104c0.5394-0.4007,0.8471-1.0412,0.8228-1.7128
					l-0.1887-5.2122c-0.0612-1.6911,1.8433-2.7184,3.2228-1.7383l4.2518,3.0207c0.5478,0.3892,1.2521,0.4839,1.8833,0.2532
					l4.8988-1.7901c1.5895-0.5808,3.1549,0.913,2.6491,2.5279l-1.559,4.9772c-0.2008,0.6413-0.0733,1.3403,0.3411,1.8693
					l3.2163,4.1059C135.7743,252.6554,134.8373,254.6059,133.1451,254.6239z"/>
				<path id="XMLID_14178_" fill="#80D0DD" d="M164.6004,262.3955c0-7.524-6.2724-15.2273-13.6234-13.6234
					c-6.6901,1.4597-8.2714,8.1498-8.2714,9.0012c0-1.4597-1.338-6.8117-8.2713-9.0012
					c-7.1748-2.2657-13.6234,6.0994-13.6234,13.6234c0,14.5966,21.8948,26.03,21.8948,26.03S164.6004,277.9652,164.6004,262.3955z"
					/>
				<path id="XMLID_14176_" fill="#FAE164" d="M229.0634,260.1712l-3.2679-4.065c-0.421-0.5237-1.0728-0.8067-1.743-0.7568
					l-5.2012,0.3875c-1.6875,0.1257-2.7867-1.7382-1.86-3.1541l2.8561-4.3641c0.368-0.5623,0.4358-1.2696,0.1812-1.8916
					l-1.9758-4.8269c-0.6411-1.5661,0.7919-3.1875,2.425-2.7437l5.0331,1.3678c0.6485,0.1762,1.3421,0.0221,1.8549-0.4122
					l3.9801-3.3707c1.2914-1.0936,3.2762-0.2318,3.3588,1.4584l0.2545,5.2094c0.0328,0.6712,0.3937,1.2833,0.9652,1.6368
					l4.4357,2.7437c1.4392,0.8902,1.2328,3.0442-0.3491,3.6451l-4.8759,1.8518c-0.6282,0.2386-1.0988,0.771-1.2584,1.4238
					l-1.2387,5.0664C232.236,261.0207,230.1236,261.4901,229.0634,260.1712z"/>
				<path id="XMLID_14174_" fill="#FFC165" d="M191.9633,273.126l-5.0214-1.4103c-0.647-0.1817-1.3419-0.0334-1.8583,0.3965
					l-4.0084,3.337c-1.3006,1.0827-3.2781,0.2041-3.3463-1.4867l-0.2104-5.2114c-0.0271-0.6714-0.3828-1.2865-0.9514-1.6448
					l-4.4123-2.7811c-1.4316-0.9023-1.2071-3.0546,0.3799-3.642l4.8913-1.8105c0.6302-0.2332,1.1052-0.7617,1.2704-1.4131
					l1.2815-5.0558c0.4158-1.6403,2.532-2.0919,3.5811-0.7641l3.2334,4.0924c0.4166,0.5273,1.066,0.8158,1.7365,0.7715
					l5.2043-0.3435c1.6886-0.1115,2.772,1.7617,1.8333,3.1697l-2.8929,4.3398c-0.3727,0.5591-0.4465,1.2659-0.1972,1.8899
					l1.935,4.8434C195.0391,271.9744,193.5925,273.5836,191.9633,273.126z"/>
				<path id="XMLID_14172_" fill="#FAE164" d="M209.437,310.689l-5.0214-1.4103c-0.647-0.1817-1.3419-0.0334-1.8584,0.3965
					l-4.0084,3.337c-1.3006,1.0827-3.278,0.2041-3.3463-1.4868l-0.2104-5.2114c-0.0271-0.6714-0.3829-1.2865-0.9514-1.6449
					l-4.4123-2.781c-1.4316-0.9023-1.2071-3.0546,0.3799-3.642l4.8914-1.8106c0.6302-0.2333,1.1052-0.7617,1.2703-1.4131
					l1.2815-5.0558c0.4158-1.6403,2.532-2.0919,3.5811-0.7641l3.2334,4.0924c0.4166,0.5273,1.066,0.8158,1.7365,0.7715
					l5.2043-0.3436c1.6886-0.1115,2.772,1.7617,1.8333,3.1697l-2.893,4.3398c-0.3727,0.5591-0.4464,1.2659-0.1971,1.8899
					l1.9349,4.8434C212.5129,309.5374,211.0662,311.1466,209.437,310.689z"/>
				<path id="XMLID_14170_" fill="#FFC165" d="M249.7526,286.5785l-5.0214-1.4103c-0.647-0.1817-1.3419-0.0334-1.8583,0.3965
					l-4.0085,3.3369c-1.3006,1.0827-3.278,0.2041-3.3463-1.4867l-0.2104-5.2114c-0.0271-0.6714-0.3829-1.2865-0.9514-1.6449
					l-4.4123-2.7811c-1.4316-0.9023-1.2071-3.0546,0.3799-3.6419l4.8913-1.8106c0.6302-0.2333,1.1053-0.7617,1.2704-1.4131
					l1.2815-5.0558c0.4158-1.6403,2.532-2.0919,3.5811-0.7641l3.2334,4.0924c0.4166,0.5273,1.066,0.8158,1.7365,0.7715
					l5.2043-0.3436c1.6886-0.1115,2.772,1.7617,1.8333,3.1697l-2.8929,4.3398c-0.3728,0.5591-0.4465,1.2659-0.1972,1.8899
					l1.935,4.8434C252.8285,285.4269,251.3818,287.0361,249.7526,286.5785z"/>
				<path id="XMLID_14168_" fill="#FFC165" d="M134.174,288.0356l-5.0214-1.4103c-0.647-0.1817-1.3419-0.0334-1.8583,0.3965
					l-4.0085,3.337c-1.3006,1.0826-3.2781,0.204-3.3463-1.4868l-0.2105-5.2114c-0.0271-0.6714-0.3829-1.2866-0.9513-1.6449
					l-4.4123-2.7811c-1.4316-0.9023-1.2071-3.0545,0.3799-3.642l4.8913-1.8105c0.6302-0.2333,1.1052-0.7617,1.2704-1.4131
					l1.2815-5.0558c0.4158-1.6404,2.532-2.0919,3.5811-0.7641l3.2334,4.0924c0.4166,0.5272,1.066,0.8158,1.7365,0.7715
					l5.2043-0.3436c1.6886-0.1115,2.772,1.7617,1.8333,3.1697l-2.893,4.3398c-0.3727,0.5592-0.4464,1.2659-0.1971,1.8899
					l1.935,4.8435C137.2498,286.884,135.8032,288.4932,134.174,288.0356z"/>
				<path id="XMLID_14166_" fill="#FAE164" d="M168.7642,263.0229l-4.2785-2.9828c-0.5513-0.3843-1.2563-0.4727-1.8854-0.2365
					l-4.8828,1.8335c-1.5842,0.5949-3.1629-0.885-2.6714-2.5043l1.5147-4.9909c0.1951-0.643,0.0614-1.3409-0.3577-1.8662
					l-3.2526-4.0772c-1.0553-1.3228-0.1357-3.2816,1.5562-3.3145l5.2146-0.1017c0.6719-0.0131,1.2943-0.356,1.6644-0.9168
					l2.8725-4.3534c0.932-1.4125,3.079-1.1431,3.6333,0.4558l1.7081,4.928c0.2201,0.6349,0.7385,1.1209,1.3863,1.2996l5.028,1.3867
					c1.6313,0.4499,2.0386,2.5751,0.6892,3.5962l-4.159,3.1474c-0.5358,0.4055-0.8378,1.0487-0.8075,1.72l0.2349,5.2103
					C172.0477,262.9467,170.1523,263.9908,168.7642,263.0229z"/>
				<path id="XMLID_14164_" fill="#D376C2" d="M238.6355,262.3955c0-7.524-6.2724-15.2273-13.6234-13.6234
					c-6.6901,1.4597-8.2714,8.1498-8.2714,9.0012c0-1.4597-1.338-6.8117-8.2713-9.0012
					c-7.1747-2.2657-13.6234,6.0994-13.6234,13.6234c0,14.5966,21.8948,26.03,21.8948,26.03S238.6355,277.9652,238.6355,262.3955z"
					/>
				<path id="XMLID_14162_" fill="#FC86B1" d="M208.4933,285.3105c0-9.836-8.4149-19.9063-18.277-17.8096
					c-8.9754,1.9082-11.0969,10.654-11.0969,11.7671c0-1.9082-1.795-8.9048-11.0967-11.7671
					c-9.6257-2.9619-18.2771,7.9736-18.2771,17.8096c0,19.0817,29.3738,34.0284,29.3738,34.0284
					S208.4933,305.6643,208.4933,285.3105z"/>
			</g>
		</g>
		<path id="XMLID_14160_" fill="#FAE164" d="M157.353,272.1401l-2.123-0.6456c-0.2735-0.0832-0.5658-0.0208-0.7816,0.1667
			l-1.6746,1.4559c-0.5433,0.4724-1.3809,0.0753-1.4173-0.6718l-0.1123-2.303c-0.0144-0.2967-0.1672-0.5701-0.4084-0.7309
			l-1.8725-1.2484c-0.6075-0.4051-0.5226-1.3548,0.1437-1.6071l2.0537-0.7777c0.2646-0.1002,0.4624-0.3315,0.5291-0.6185
			l0.5173-2.2275c0.1679-0.7227,1.0579-0.9126,1.5061-0.3213l1.3815,1.8224c0.178,0.2348,0.453,0.3652,0.7355,0.3487l2.1922-0.1283
			c0.7113-0.0416,1.1764,0.7907,0.7872,1.4084l-1.1999,1.904c-0.1546,0.2453-0.1825,0.5572-0.0746,0.8339l0.8375,2.1483
			C158.6443,271.6453,158.0418,272.3496,157.353,272.1401z"/>
		<path id="XMLID_14157_" fill="#FAE164" d="M209.2489,275.5356l-2.1968-1.5357c-0.2831-0.1978-0.6452-0.2433-0.9683-0.1215
			l-2.5081,0.9454c-0.8138,0.3067-1.6243-0.4553-1.3716-1.2895l0.7789-2.5712c0.1004-0.3312,0.0318-0.6907-0.1833-0.9612
			l-1.6698-2.0995c-0.5418-0.6812-0.0691-1.6903,0.7999-1.7077l2.6783-0.0533c0.345-0.0069,0.6648-0.1836,0.8549-0.4726
			l1.4762-2.243c0.4789-0.7278,1.5816-0.5894,1.8659,0.2341l0.8763,2.5382c0.1129,0.327,0.3791,0.5772,0.7118,0.6691l2.5821,0.7133
			c0.8378,0.2314,1.0465,1.326,0.3533,1.8523l-2.1367,1.6221c-0.2753,0.209-0.4305,0.5403-0.4151,0.8861l0.1197,2.6839
			C210.9353,275.4956,209.9617,276.0338,209.2489,275.5356z"/>
		<g id="XMLID_14265_">
			<path id="XMLID_14155_" fill="#F2B1D8" d="M214.412,296.9147c-5.7931-2.5066-8.4573-9.2348-5.9508-15.0279
				c0.9576-2.213,2.5322-3.9674,4.4344-5.1534c-4.039,0.3609-7.7584,2.8649-9.4819,6.8483
				c-2.5066,5.7931,0.1577,12.5213,5.9508,15.0279c3.5801,1.549,7.5162,1.1212,10.5935-0.7974
				C218.1229,297.9761,216.2218,297.6978,214.412,296.9147z"/>
			<path id="XMLID_14153_" fill="#F2B1D8" d="M224.2329,288.5828c1.6253,6.0993-2.0015,12.3613-8.1008,13.9866
				c-2.33,0.6209-4.6828,0.4732-6.7927-0.2838c2.7874,2.9451,7.0581,4.3107,11.252,3.1931
				c6.0993-1.6253,9.7262-7.8874,8.1009-13.9866c-1.0045-3.7693-3.7806-6.5923-7.194-7.817
				C222.7648,285.0132,223.7252,286.6774,224.2329,288.5828z"/>
			<path id="XMLID_14151_" fill="#F2B1D8" d="M220.0081,285.4778c-0.2427-0.4999-0.5172-0.9691-0.8167-1.4053
				c0.0888,3.0387-1.2149,5.6111-2.8852,6.7119c-2.2735,1.4986-5.0326,1.0893-7.0712-1.8794
				c0.1574,0.5052,0.3561,1.0111,0.5988,1.5111c1.8946,3.9032,5.8944,6.2931,8.5175,4.5983
				C222.2617,292.4879,221.9027,289.3811,220.0081,285.4778z"/>
			<path id="XMLID_14149_" fill="#F2B1D8" d="M216.5757,287.7689c-0.0788,0.3224-0.1801,0.6309-0.3001,0.9232
				c-0.3288-1.7851-1.411-3.1226-2.5225-3.555c-1.5131-0.5886-3.0703-0.0022-3.887,1.9875
				c0.0284-0.3147,0.0809-0.6351,0.1598-0.9576c0.6156-2.5172,2.6481-4.416,4.3896-3.7568
				C217.0116,283.3928,217.1914,285.2517,216.5757,287.7689z"/>
			<path id="XMLID_14147_" fill="#F2B1D8" d="M216.0041,278.8302c5.9044-2.2319,12.5001,0.7452,14.732,6.6495
				c0.8526,2.2555,0.9429,4.6112,0.4024,6.7867c2.649-3.0701,3.5771-7.4568,2.0425-11.5166
				c-2.2319-5.9043-8.8277-8.8815-14.732-6.6496c-3.6489,1.3793-6.1776,4.4259-7.0519,7.9454
				C212.6008,280.6506,214.1596,279.5275,216.0041,278.8302z"/>
		</g>
		<path id="XMLID_14145_" fill="#AEDC97" d="M123.4921,285.9941c0,0-1.8996,8.9841-10.9483,10.9266s-14.539,1.6428-14.539,1.6428
			s-2.7589-2.2698,4.2993-10.1693C109.3622,280.4948,123.4921,285.9941,123.4921,285.9941z"/>
		<path id="XMLID_14143_" fill="#AEDC97" d="M257.5536,304.6506c0,0-8.7299,2.8479-14.9374-4.0164
			c-6.2075-6.8643-8.6937-11.7687-8.6937-11.7687s0.5858-3.5242,10.9563-1.3627
			C255.2494,289.6644,257.5536,304.6506,257.5536,304.6506z"/>
		<path id="XMLID_14141_" fill="#9CD799" d="M123.4879,292.2664c0,0,4.3079,4.7818-0.0765,11.2385
			c-4.3844,6.4566-7.946,9.7837-7.946,9.7837s-3.0815,0.8251-3.5536-6.7618C111.4397,298.9397,123.4879,292.2664,123.4879,292.2664z
			"/>
		<path id="XMLID_14139_" fill="#9CD799" d="M231.387,294.4745c0,0,6.333-1.1475,9.5169,5.9781
			c3.1839,7.1256,4.1393,11.9049,4.1393,11.9049s-0.9197,3.0547-7.6199-0.5357C230.7229,308.2313,231.387,294.4745,231.387,294.4745
			z"/>
		<g id="XMLID_14244_">
			<path id="XMLID_14137_" fill="#B6AFD8" d="M133.2486,290.5725c0-6.3121,5.117-11.4291,11.4291-11.4291
				c2.4113,0,4.6467,0.7485,6.4905,2.0233c-1.9351-3.5635-5.7102-5.9828-10.0504-5.9828c-6.3122,0-11.4291,5.1169-11.4291,11.4291
				c0,3.9009,1.9557,7.3435,4.9385,9.4058C133.748,294.3997,133.2486,292.5445,133.2486,290.5725z"/>
			<path id="XMLID_14135_" fill="#B6AFD8" d="M144.7953,296.2773c-4.9523,3.9137-12.1397,3.0717-16.0535-1.8806
				c-1.495-1.8918-2.2938-4.1098-2.4369-6.3468c-1.596,3.7278-1.1534,8.1896,1.5377,11.5948
				c3.9138,4.9524,11.1011,5.7943,16.0535,1.8806c3.0605-2.4186,4.5489-6.0875,4.3174-9.7066
				C147.4884,293.5123,146.3424,295.0545,144.7953,296.2773z"/>
			<path id="XMLID_14133_" fill="#B6AFD8" d="M145.9673,291.1668c0.3625-0.4213,0.6841-0.8596,0.9654-1.3077
				c-2.7536,1.2882-5.6321,1.1133-7.3058,0.0175c-2.2782-1.4915-2.9982-4.1862-1.0832-7.2361
				c-0.4011,0.345-0.7866,0.7283-1.1491,1.1496c-2.83,3.2888-3.435,7.9088-0.8378,9.6432
				C140.4285,296.0188,143.1373,294.4556,145.9673,291.1668z"/>
			<path id="XMLID_14131_" fill="#B6AFD8" d="M142.5015,288.9265c-0.3272,0.0557-0.6506,0.0851-0.9665,0.0912
				c1.5078-1.0107,2.3056-2.535,2.261-3.7269c-0.0607-1.6224-1.2172-2.8187-3.3676-2.7782c0.3001-0.0988,0.615-0.1779,0.9423-0.2336
				c2.5546-0.4345,5.1044,0.6768,5.1911,2.5369C146.6909,287.5887,145.0562,288.4919,142.5015,288.9265z"/>
			<path id="XMLID_14129_" fill="#B6AFD8" d="M150.4783,284.8523c4.3931,4.5326,4.2799,11.7682-0.2526,16.1612
				c-1.7315,1.6782-3.8577,2.6965-6.0688,3.0644c3.8697,1.2121,8.2642,0.3219,11.3807-2.6987
				c4.5326-4.3931,4.6457-11.6287,0.2527-16.1613c-2.7148-2.8011-6.5151-3.9121-10.0924-3.3169
				C147.456,282.4516,149.1059,283.4363,150.4783,284.8523z"/>
		</g>
		<g id="XMLID_14216_">
			<g id="XMLID_14232_">
				<path id="XMLID_14127_" fill="#F7D0DA" d="M172.9063,285.5652c-3.2242-4.2476-2.3987-10.265,1.8436-13.4401
					c1.6206-1.2129,3.5054-1.8337,5.3957-1.9034c-3.1208-1.4245-6.8937-1.1536-9.8106,1.0296
					c-4.2423,3.1752-5.0677,9.1925-1.8436,13.4401c1.9925,2.625,5.0652,3.9579,8.1234,3.8453
					C175.1968,287.8895,173.9135,286.8922,172.9063,285.5652z"/>
				<path id="XMLID_14125_" fill="#F7D0DA" d="M185.8779,282.6307c-1.3294,5.1248-6.59,8.1737-11.7499,6.8098
					c-1.9711-0.5211-3.6409-1.6118-4.8796-3.0452c0.8314,3.3113,3.4079,6.0912,6.9558,7.029
					c5.1599,1.3639,10.4205-1.685,11.7499-6.8098c0.8215-3.1671-0.0521-6.3847-2.0562-8.7036
					C186.2757,279.4154,186.2932,281.0296,185.8779,282.6307z"/>
				<path id="XMLID_14123_" fill="#F7D0DA" d="M183.5197,280.2783c0.0284-0.4659,0.0207-0.9226-0.0191-1.3656
					c-1.1926,2.252-3.2166,3.5822-4.9012,3.6867c-2.2929,0.1423-4.1533-1.3089-4.424-4.3246
					c-0.0933,0.4339-0.1566,0.8857-0.1851,1.3516c-0.2222,3.6366,1.731,7.0499,4.3624,6.9106
					C182.2754,286.3295,183.2975,283.9149,183.5197,280.2783z"/>
				<path id="XMLID_14121_" fill="#F7D0DA" d="M180.7103,280.3718c-0.1915,0.2021-0.3937,0.3846-0.603,0.5475
					c0.4972-1.4386,0.2548-2.8657-0.384-3.6453c-0.8695-1.0612-2.2578-1.2845-3.6823-0.1755
					c0.1512-0.2174,0.3225-0.429,0.514-0.6311c1.495-1.5775,3.7763-2.1122,4.7846-0.9041
					C182.8426,277.3642,182.2053,278.7943,180.7103,280.3718z"/>
				<path id="XMLID_14119_" fill="#F7D0DA" d="M180.5473,273.049c5.2676,0.8403,8.8874,5.7662,8.085,11.0025
					c-0.3065,2.0002-1.2154,3.755-2.5136,5.1148c3.2198-1.1309,5.7187-3.9404,6.2704-7.5408
					c0.8025-5.2362-2.8173-10.1622-8.085-11.0025c-3.2554-0.5193-6.3769,0.6447-8.4772,2.8447
					C177.2898,272.9538,178.9016,272.7864,180.5473,273.049z"/>
			</g>
			<path id="XMLID_14117_" fill="#F7D0DA" d="M166.553,274.1742c2.8109-6.6679,10.5672-9.7204,17.3242-6.8181
				c2.5812,1.1087,4.6409,2.9273,6.047,5.1217c-0.4847-4.6541-3.4485-8.9455-8.0946-10.9411
				c-6.757-2.9023-14.5133,0.1502-17.3241,6.8181c-1.7371,4.1207-1.1767,8.6565,1.0981,12.2066
				C165.3833,278.4468,165.6749,276.2573,166.553,274.1742z"/>
			<path id="XMLID_14111_" fill="#F7D0DA" d="M192.1199,273.0692c4.4329,5.3728,3.2789,13.6086-2.5774,18.3951
				c-2.2372,1.8284-4.8369,2.8865-7.4428,3.1996c4.298,1.5658,9.4995,0.7624,13.5263-2.5288
				c5.8563-4.7865,7.0103-13.0223,2.5775-18.3951c-2.7395-3.3204-6.9716-4.7677-11.1875-4.2612
				C188.9687,270.1902,190.7351,271.3907,192.1199,273.0692z"/>
			<path id="XMLID_924_" fill="#F7D0DA" d="M177.8983,294.1266c-7.4404,1.0367-14.182-2.9953-15.0578-9.0055
				c-0.3345-2.2959,0.2376-4.5474,1.4845-6.5124c-3.932,2.4278-6.2599,6.4197-5.6577,10.5523
				c0.8758,6.0102,7.6173,10.0422,15.0578,9.0055c4.5981-0.6406,8.3848-3.0681,10.4019-6.2471
				C182.3404,293.0224,180.2227,293.8027,177.8983,294.1266z"/>
		</g>
	</g>
</g>
</svg>
