<?xml version="1.0" encoding="utf-8"?>
<!-- Generator: Adobe Illustrator 19.0.0, SVG Export Plug-In . SVG Version: 6.00 Build 0)  -->
<svg version="1.1" id="Layer_1" xmlns="http://www.w3.org/2000/svg" xmlns:xlink="http://www.w3.org/1999/xlink" x="0px" y="0px"
	 viewBox="0 0 280.4 168.9" style="enable-background:new 0 0 280.4 168.9;" xml:space="preserve">
<style type="text/css">
	.st0{fill:#FEC214;}
	.st1{fill:#F48C22;}
	.st2{fill:#FFFFFF;}
</style>
<g id="XMLID_5637_">
	<g id="XMLID_5689_">
		<g id="XMLID_5698_">
			<path id="XMLID_5699_" class="st0" d="M137.8,29.7c0.2-0.1-9.3,4.8-15.7,14.5c-6.7,9.6-10.2,23.9-4.5,40.4
				c1.9-0.3,3.7-0.5,5.6-0.7c-2.5-23.1,14.3-36.4,14.6-36.2c0.3-0.2,17.1,13.1,14.6,36.2c1.9,0.2,3.7,0.4,5.6,0.7
				c5.7-16.4,2.1-30.8-4.5-40.4C147.1,34.5,137.6,29.6,137.8,29.7z"/>
		</g>
		<g id="XMLID_5696_">
			<path id="XMLID_5697_" class="st0" d="M233.9,62.8c-0.6-1.2-34.6,0.8-40.4,31.8c1.5,0.7,3.1,1.4,4.6,2.1
				c8.8-18.4,27.5-20.7,27.6-20.4c0.3-0.1,7.1,17.7-5,34.1c1.4,1,2.8,2.1,4.1,3.2C249.7,94,235.1,62.7,233.9,62.8z"/>
		</g>
		<g id="XMLID_5694_">
			<path id="XMLID_5695_" class="st0" d="M41.7,62.8c0.6-1.2,34.6,0.8,40.4,31.8c-1.5,0.7-3.1,1.4-4.6,2.1
				C68.7,78.4,50,76,49.8,76.3c-0.3-0.1-7.1,17.7,5,34.1c-1.4,1-2.8,2.1-4.1,3.2C25.9,94,40.5,62.7,41.7,62.8z"/>
		</g>
		<g id="XMLID_5692_">
			<path id="XMLID_5693_" class="st0" d="M189.5,40.1c-1-1-35.3,10.7-32.4,44.3c1.8,0.2,3.5,0.5,5.3,0.8
				c3.8-21.4,22.3-29.2,22.5-28.9c0.3-0.1,12,16.2,4.1,36.4c1.7,0.7,3.3,1.3,5,2.1c9.3-13.5,9.6-27.4,6-37.7
				C196.6,46.7,189.4,39.9,189.5,40.1z"/>
		</g>
		<g id="XMLID_5690_">
			<path id="XMLID_5691_" class="st0" d="M86.1,40.1c1-1,35.3,10.7,32.4,44.3c-1.8,0.2-3.5,0.5-5.3,0.8
				C109.3,63.8,90.9,56,90.7,56.3c-0.3-0.1-12,16.2-4.1,36.4c-1.7,0.7-3.3,1.4-5,2.1c-9.3-13.5-9.6-27.4-6-37.7
				C79,46.7,86.2,39.9,86.1,40.1z"/>
		</g>
	</g>
	<g id="XMLID_5638_">
		<g id="XMLID_5667_">
			<path id="XMLID_5668_" class="st1" d="M234.4,125.9c-53.4-53.4-139.9-53.4-193.2,0c-2.8-2.8-5.5-5.5-8.3-8.3
				c57.9-57.9,151.9-57.9,209.8,0C239.9,120.3,237.2,123.1,234.4,125.9z"/>
		</g>
		<g id="XMLID_5640_">
			<g id="XMLID_5664_">
				<path id="XMLID_5666_" class="st2" d="M39.2,114.3c2.9-2.9,7.2,1.5,4.4,4.4C40.7,121.5,36.3,117.2,39.2,114.3z"/>
			</g>
			<g id="XMLID_5645_">
				<path id="XMLID_5646_" class="st2" d="M222.3,106.8L222.3,106.8c1-1.4,3-1.6,4.3-0.6l0,0c1.4,1,1.6,3,0.6,4.3l0,0
					c-0.6,0.8-1.5,1.2-2.5,1.2l0,0C222.2,111.7,220.7,108.9,222.3,106.8z M53.9,102.6L53.9,102.6c1.4-1,3.3-0.6,4.3,0.8l0,0
					c1,1.4,0.6,3.3-0.8,4.3l0,0c-0.5,0.4-1.1,0.6-1.8,0.6l0,0C52.6,108.3,51.4,104.4,53.9,102.6z M210.7,102.9L210.7,102.9
					c-1.5-0.9-1.9-2.8-1.1-4.2l0,0c0.9-1.5,2.8-1.9,4.2-1.1l0,0c1.5,0.9,1.9,2.8,1.1,4.2l0,0c-0.6,1-1.6,1.5-2.6,1.5l0,0
					C211.7,103.3,211.2,103.2,210.7,102.9z M66.9,94.5L66.9,94.5c1.5-0.8,3.4-0.3,4.2,1.2l0,0c0.8,1.5,0.3,3.4-1.2,4.2l0,0
					c-0.5,0.3-1,0.4-1.5,0.4l0,0C65.2,100.3,64.2,96,66.9,94.5z M196.1,92L196.1,92c0.7-1.5,2.5-2.2,4.1-1.5l0,0
					c1.5,0.7,2.2,2.5,1.5,4.1l0,0c-0.5,1.1-1.6,1.8-2.8,1.8l0,0C196.7,96.3,195.2,94,196.1,92z M80.7,87.8L80.7,87.8
					c1.6-0.7,3.4,0.1,4,1.6l0,0c0.7,1.6-0.1,3.4-1.6,4l0,0c-0.4,0.2-0.8,0.2-1.2,0.2l0,0C78.6,93.7,77.6,89.1,80.7,87.8z M182,86.7
					L182,86.7c0.5-1.6,2.3-2.5,3.9-1.9l0,0c1.6,0.5,2.5,2.3,1.9,3.9l0,0c-0.4,1.3-1.6,2.1-2.9,2.1l0,0
					C182.8,90.8,181.4,88.7,182,86.7z M95.2,82.5L95.2,82.5c1.6-0.5,3.3,0.4,3.8,2l0,0c0.5,1.6-0.4,3.3-2,3.8l0,0
					c-0.3,0.1-0.6,0.1-0.9,0.1l0,0C92.5,88.5,91.8,83.5,95.2,82.5z M167.5,82.9L167.5,82.9c0.9-4,6.9-2.6,6,1.4l0,0
					c-0.3,1.4-1.6,2.4-3,2.4l0,0C168.5,86.7,167,84.8,167.5,82.9z M110.1,78.8c1.7-0.3,3.3,0.8,3.6,2.5l0,0c0.3,1.7-0.8,3.3-2.5,3.6
					l0,0c-0.2,0-0.4,0.1-0.6,0.1l0,0C106.5,84.9,106.9,78.8,110.1,78.8z M152.6,80.5L152.6,80.5c0.5-4.1,6.6-3.3,6.1,0.8l0,0
					c-0.2,1.6-1.5,2.7-3.1,2.7l0,0C153.7,84,152.4,82.3,152.6,80.5z M125.4,76.8C141.3,76.8,109.5,76.8,125.4,76.8
					c1.7-0.1,3.2,1.2,3.3,2.9l0,0c0.1,1.7-1.2,3.2-2.9,3.3l0,0c-0.1,0-0.1,0-0.2,0l0,0C121.5,83,121.7,76.8,125.4,76.8z M140.5,82.7
					L140.5,82.7c-1.7-0.1-3-1.5-3-3.2l0,0c0.1-4.1,6.3-3.9,6.2,0.2l0,0c-0.1,1.7-1.4,3-3.1,3l0,0C140.6,82.8,140.6,82.7,140.5,82.7z
					"/>
			</g>
			<g id="XMLID_5641_">
				<path id="XMLID_5644_" class="st2" d="M232,114.3c2.9-2.9,7.2,1.5,4.4,4.4C233.5,121.5,229.1,117.2,232,114.3z"/>
			</g>
		</g>
	</g>
</g>
</svg>
