<?xml version="1.0" encoding="utf-8"?>
<!-- Generator: Adobe Illustrator 19.0.0, SVG Export Plug-In . SVG Version: 6.00 Build 0)  -->
<svg version="1.1" id="Layer_1" xmlns="http://www.w3.org/2000/svg" xmlns:xlink="http://www.w3.org/1999/xlink" x="0px" y="0px"
	 viewBox="0 0 350.6667 312.6667" enable-background="new 0 0 350.6667 312.6667" xml:space="preserve">
<g id="XMLID_15021_">
	<path id="XMLID_15095_" fill="#EF7B05" d="M175.9836,213.3296c-61.288,0-109.9201,33.4328-121.5306,90.1796
		c3.5645-70.0931,54.699-112.508,121.5306-112.508c66.8304,0,117.964,42.4137,121.5289,112.5069
		C285.9008,246.7612,237.2696,213.3296,175.9836,213.3296z"/>
	<path id="XMLID_15094_" fill="#FFF24A" d="M52.0553,102.0895L39.211,82.5583l-24.1186-0.9621
		c-7.7505-0.309-11.7652-8.9761-6.7944-14.6663l15.4698-17.7087l-6.4959-22.2168c-2.0871-7.1389,5.2979-13.4659,12.4976-10.7068
		l22.4047,8.5868l20.1043-12.7688c6.4602-4.1029,15.0395,0.6534,14.5183,8.0494L85.174,43.1802l18.9208,14.3255
		c6.0798,4.603,3.9968,13.8699-3.5246,15.6816l-23.4077,5.6374l-8.4106,21.6222C66.0494,107.3952,56.1827,108.3656,52.0553,102.0895
		z"/>
	<g id="XMLID_15090_">
		<path id="XMLID_15093_" fill="#FFCE00" d="M81.8501,40.2562c1.1714,1.2258,3.3239,2.924,3.3239,2.924l1.6224-23.0156
			c0.2349-3.3272-1.4196-6.0601-3.848-7.7526C86.6484,17.8634,80.4829,38.8266,81.8501,40.2562z"/>
		<path id="XMLID_15092_" fill="#FFCE00" d="M104.0952,57.5057l-0.308-0.2332c2.9713,5.8507-0.6551,10.4697-6.4303,11.86
			l-23.4073,5.6378l-8.411,21.6221c-2.3432,6.0247-11.3241,7.8087-16.9978,0.3527l3.5146,5.3447
			c4.1269,6.2758,13.9937,5.3053,16.6965-1.6425l8.411-21.6229l23.4073-5.637C108.0916,71.3756,110.1746,62.1088,104.0952,57.5057z"
			/>
		<path id="XMLID_15091_" fill="#FFCE00" d="M35.1306,78.4689c-1.7683-0.0707-23.6443,1.378-28.3299-2.5931
			c1.262,3.1047,4.2454,5.5592,8.2917,5.7208l24.1186,0.9617C39.211,82.5583,36.899,78.5392,35.1306,78.4689z"/>
	</g>
	<path id="XMLID_15059_" d="M144.734,200.9222c0.8297-1.691,1.0631-3.4694,0.6861-5.2172l-0.0867-0.0056v-0.002
		c0-1.7474-1.2926-3.2584-2.7613-4.4906c0.7836-1.7097,1.7613-3.4968,0.7613-5.2374v-0.0024v-0.006
		c0-1.7406-1.5579-3.2275-3.0594-4.4243c0.7378-1.7323,0.9297-3.5321,0.4563-5.266l-0.0161-0.0068
		c-0.0029-0.0016-0.006-0.004-0.006-0.004c-0.4909-1.7323-1.6196-3.1917-3.1626-4.3472c0.6792-1.751,0.8369-3.5544,0.309-5.2744
		l-0.0061-0.0068c-0.0017-0.0016-0.0004-0.004-0.0004-0.004c-0.5471-1.7196-1.7145-3.146-3.2854-4.2555
		c0.6235-1.776,0.7266-3.5873,0.1441-5.2994l-0.0042-0.006c-0.0029-0.0028,0.0016-0.0068,0-0.0111
		c-0.6069-1.7069-1.8286-3.0995-3.4481-4.1629c0.5596-1.7955,0.5919-3.6092-0.0607-5.3022l-0.0042-0.0024
		c-0.0021-0.006,0-0.0075,0-0.0075c-0.6722-1.6894-1.9442-3.0428-3.5957-4.0497c0.4905-1.8137,0.4587-3.6318-0.25-5.3018
		c-0.0029-0.0036-0.0106-0.0036-0.0106-0.0036v-0.0135c0-1.6675-2.0537-2.9788-3.7472-3.9294
		c0.4232-1.8364,0.3152-3.6612-0.4738-5.3145c0,0-0.0024-0.0016-0.0049-0.004c0,0,0.0027-0.006,0.0002-0.0087
		c-0.811-1.6429-2.1918-2.9021-3.9264-3.7864c0.3396-1.8467,0.1567-3.6604-0.6938-5.2827c-0.0025-0.004-0.007-0.004-0.007-0.004
		s0-0.0087-0.0016-0.0127c-0.8771-1.6111-2.3108-2.8167-4.0779-3.6362c0.2639-1.8658,0.0016-3.6771-0.9224-5.2708
		c-0.0029-0.0036-0.0091-0.0036-0.0116-0.0076l-0.0017-0.0127c-0.9607-1.5802-2.4613-2.725-4.2749-3.467
		c0.1679-1.8745-0.1854-3.6755-1.1934-5.2271c-0.0016-0.0044-0.0087-0.0044-0.0108-0.0087l-0.0017-0.0083
		c-1.028-1.5345-2.5743-2.6181-4.4138-3.2831c0.0786-1.8809-0.3604-3.6636-1.4379-5.1723
		c-0.0029-0.0052-0.0087-0.0052-0.0116-0.0068l-0.0017-0.0103c-1.1012-1.4991-2.7115-2.5105-4.5921-3.088
		c-0.0179-1.8868-0.5524-3.6509-1.718-5.1059c-0.0017-0.0044-0.0062-0.0016-0.0087-0.006c0,0-0.0016-0.0068-0.0037-0.0099
		c-1.1918-1.4348-2.8425-2.3738-4.7459-2.8628c-0.1197-1.8785-0.7416-3.6159-1.9736-5.0189
		c-0.003-0.0016-0.0071-0.0016-0.0092-0.004c-0.0042-0.0044,0-0.0083-0.0042-0.0127c-1.2587-1.3887-2.9588-2.2431-4.8897-2.6392
		c-2.2148-0.2975-5.0581-0.0751-7.3286,0.5982c-1.0608-1.1031-3.1276,0.0012-2.7049,1.2465
		c0.784,1.3776,2.3329,1.1881,5.6417,0.6491c4.2836-0.6979,6.4007,0.8818,7.252,1.8197c0.8289,0.9506,1.2175,1.9929,1.3547,3.0082
		c-0.737-0.0119-1.4832-0.0286-2.2667,0.1009c-2.9892,0.4941-7.7775,2.0394-9.333,5.9417
		c-0.6439,1.6147-0.3492,3.2604,0.7914,4.6555c0.0104,0.0143,0.0017,0.0369,0.0158,0.052c0.0125,0.0143,0.0283,0.0187,0.0403,0.0338
		c0.0158,0.0167,0.022,0.0369,0.0379,0.0536c0.0195,0.0226,0.0548,0.0127,0.0764,0.0338c1.008,1.1194,2.2925,1.743,3.742,1.743
		c0.2785,0,0.5629-0.0219,0.8459-0.0671c0.4627-0.0707,0.9299-0.2185,1.3967-0.4024c-0.3193,0.404-0.6023,0.8195-0.7948,1.2489
		c-0.7021,1.5726-0.4751,3.2064,0.5978,4.6289c0.0091,0.0123,0,0.0282,0.0091,0.0417c0.0158,0.0203,0.0349,0.0354,0.0499,0.0556
		c0.0179,0.021,0.0237,0.0437,0.0416,0.0647c0.0175,0.0211,0.0457,0.0294,0.0632,0.0504c0.9906,1.2405,2.3387,1.9222,3.8858,1.9222
		c0.1796,0,0.3625-0.0083,0.5454-0.0294c0.5367-0.052,1.0846-0.2109,1.6324-0.4111c-0.3533,0.3984-0.7511,0.7869-0.9781,1.2239
		c-0.8073,1.5516-0.678,3.2175,0.3184,4.7147c0.0091,0.0167-0.0017,0.035,0.0091,0.052c0.0158,0.021,0.0349,0.0354,0.0482,0.0564
		c0.0088,0.0139,0.0133,0.0266,0.022,0.0393c0.0133,0.0167,0.0325,0.0226,0.0457,0.0393c0.9885,1.3676,2.4151,2.1208,4.0779,2.1208
		c0.1089,0,0.2137-0.0044,0.3226-0.0083c0.4776-0.027,0.9686-0.1339,1.462-0.28c-0.3562,0.3714-0.6747,0.7531-0.9079,1.1599
		c-0.8638,1.5047-0.8073,3.1587,0.1135,4.6801c0.0108,0.0195-0.0016,0.0421,0.0087,0.0604c0.0179,0.027,0.0387,0.0465,0.0565,0.0707
		c0.0071,0.0135,0.0087,0.025,0.0175,0.0377c0.0087,0.0151,0.0262,0.1705,0.037,0.1848c0.9648,1.4844,2.4459,2.4649,4.2263,2.4649
		h0.0607c0.483,0,0.9843-0.2428,1.4911-0.3679c-0.3712,0.3508-0.7075,0.6399-0.9582,1.0339
		c-0.9403,1.4717-0.969,3.0999-0.1135,4.6725c0.0091,0.0143-0.0042,0.0097,0.0046,0.0248c0.0104,0.0203,0.0262,0.0235,0.0387,0.0446
		c0.0116,0.0207,0.0133,0.037,0.0266,0.0572c0.0129,0.0254,0.0412,0.0314,0.0569,0.054c0.907,1.5289,2.3607,2.4136,4.1456,2.4783
		c0.0694,0,0.1388,0.0038,0.2049,0.0038c0.4997,0,1.0272-0.1592,1.5489-0.278c-0.4556,0.3774-0.9315,0.7462-1.2437,1.1903
		c-1.008,1.4364-1.1099,3.1106-0.3201,4.7241c0.0058,0.0143-0.0054,0.0294,0.0017,0.0413c0.0087,0.0167,0.022,0.0294,0.0308,0.0461
		c0.0079,0.021,0.0104,0.0397,0.0221,0.058c0.012,0.0238,0.0386,0.0338,0.0519,0.0548c0.853,1.5758,2.2859,2.5224,4.0891,2.6475
		c0.1388,0.0127,0.2831,0.0171,0.4232,0.0171c0.4289,0,0.8875-0.1422,1.3368-0.2256c-0.4971,0.369-1.0055,0.7341-1.3414,1.1762
		c-1.0563,1.3867-1.2138,3.0376-0.498,4.6666c0.0071,0.0159-0.0087,0.035,0,0.0536c0.0133,0.027,0.0329,0.0481,0.0441,0.0747
		c0.0087,0.0171,0.0087,0.0338,0.0175,0.0504c0.0091,0.0171,0.0266,0.0226,0.0345,0.0377c0.7661,1.6088,2.1429,2.6225,3.9275,2.8227
		c0.2182,0.025,0.4448,0.0377,0.6717,0.0377c0.3641,0,0.762-0.1235,1.1436-0.1839c-0.4888,0.342-0.9993,0.6773-1.3485,1.0967
		c-1.1319,1.3573-1.3722,3.0149-0.7308,4.6936c0.0071,0.0207-0.0104,0.0437-0.0017,0.0644c0.0104,0.027,0.0278,0.0457,0.0387,0.0723
		c0.0042,0.0111,0.0042,0.0195,0.0087,0.0278c0.0046,0.0103,0.0175,0.0143,0.022,0.0246c0.7204,1.664,2.0855,2.725,3.8875,2.9855
		c0.293,0.0461,0.5981,0.0671,0.9078,0.0671c0.2665,0,0.557-0.0941,0.8314-0.1251c-0.5013,0.3293-1.023,0.6479-1.3855,1.059
		c-1.1673,1.3176-1.4528,2.9645-0.8576,4.6539c0.0046,0.0143-0.0062,0.0266-0.0017,0.0409
		c0.0062,0.0211,0.0192,0.0338,0.0262,0.0548c0.0087,0.0226,0.0087,0.0437,0.0166,0.0663c0.0091,0.0211,0.0328,0.0294,0.0416,0.052
		c0.6526,1.662,1.9525,2.7627,3.7204,3.088c0.3704,0.0663,0.7636,0.1001,1.1648,0.1001c0.19,0,0.3974-0.0687,0.5911-0.0838
		c-0.4972,0.3051-1.0168,0.5966-1.3855,0.9839c-1.2217,1.2803-1.5787,2.9291-1.0467,4.6515
		c0.0045,0.0127-0.0088,0.0254-0.0042,0.0397c0.0062,0.0191,0.0174,0.0318,0.0208,0.05c0.007,0.0187,0.007,0.0381,0.0141,0.0592
		c0.0062,0.0199,0.0299,0.0286,0.037,0.0493c0.5998,1.6886,1.8718,2.8401,3.6364,3.2195c0.4369,0.0914,0.9041,0.1366,1.3834,0.1366
		c0.1048,0,0.2208-0.0385,0.3271-0.0437c-0.4967,0.286-1.0209,0.5573-1.3959,0.9279c-1.2628,1.2477-1.674,2.8898-1.1893,4.6372
		c0.0021,0.006-0.0042,0.0127-0.0017,0.0211c0,0,0.0079,0.0167,0.0104,0.027c0.0092,0.0294,0.0062,0.0564,0.015,0.0858
		c0.0071,0.0226,0.0353,0.0286,0.0441,0.052c0.5453,1.7097,1.782,2.893,3.5341,3.3208c0.5022,0.1251,1.0388,0.1831,1.5975,0.1831
		c0.0237,0,0.0499-0.0076,0.0719-0.0076c-0.4934,0.2665-1.0168,0.5144-1.3942,0.8667c-1.2961,1.2052-1.75,2.8251-1.3244,4.5748
		c0.0042,0.0143-0.0108,0.027-0.0062,0.0413c0.0046,0.021,0.0166,0.0354,0.022,0.056c0.0033,0.0211,0.0017,0.0397,0.0087,0.0608
		c0.0037,0.0151,0.0212,0.0183,0.0283,0.0334c0.4839,1.7323,1.6835,2.9621,3.4178,3.4447c0.5288,0.1478,1.1049,0.2058,1.696,0.2169
		c-0.4996,0.2538-1.0272,0.489-1.4162,0.8294c-1.3332,1.1718-1.8419,2.783-1.4707,4.5446c0.0029,0.0211-0.0174,0.0393-0.0129,0.0624
		c0.0071,0.0274,0.022,0.0504,0.0291,0.0771c0.0017,0.0083,0,0.0151,0,0.0151c0.0058,0.0286,0.0237,0.0457,0.0278,0.0667
		c0.454,1.743,1.6316,2.9979,3.3646,3.519c0.5217,0.1545,1.1037,0.2085,1.6948,0.2336c-0.5346,0.2479-1.0862,0.4842-1.4986,0.8298
		c-1.3593,1.1404-1.8984,2.7416-1.5692,4.5117c0.0025,0.0127-0.0087,0.0211-0.0062,0.0338c0.0025,0.0159,0.0112,0.0294,0.015,0.0453
		c0.0054,0.0278,0,0.052,0.007,0.0798c0.0042,0.0203,0.0283,0.0286,0.0349,0.0497c0.3924,1.7518,1.5164,3.0316,3.2203,3.5981
		c0.6763,0.2252,1.4267,0.3337,2.2252,0.3337c2.6882,0,5.8953-1.2378,8.4651-3.3895c0.5982-0.5001,1.0758-1.0467,1.5447-1.5953
		c0.7399,0.7361,1.3905,1.608,1.6195,2.7921c0.1177,0.6169,0.6805,1.0463,1.3173,1.0463c0.0794,0,0.1621-0.004,0.2444-0.0211
		c0.7287-0.1291,1.2088-0.7956,1.0733-1.4928C147.1624,203.7203,146.1677,202.1874,144.734,200.9222z M138.8611,183.8408
		c0.7786,0.6983,1.474,1.5388,1.7671,2.7122l0.0017,0.0024c0.2773,1.1674,0.1181,2.2534-0.2461,3.2068
		c-0.6763-0.338-1.368-0.6649-2.1516-0.9029c-1.6649-0.5069-3.353-0.6546-4.9654-0.6129c1.462-0.653,2.8973-1.5782,4.1502-2.744
		C137.9832,184.9752,138.4267,184.408,138.8611,183.8408z M136.256,174.2561c0.8002,0.6785,1.5251,1.5011,1.8585,2.6713
		c0.3163,1.1631,0.1871,2.2558-0.1505,3.2207c-0.6826-0.317-1.3809-0.6252-2.1666-0.8421c-1.6947-0.4664-3.4057-0.5672-5.031-0.4799
		c1.4557-0.6959,2.8753-1.6592,4.1015-2.8731C135.4159,175.412,135.8391,174.8337,136.256,174.2561z M135.2804,167.3639
		c0.3538,1.1551,0.2619,2.2519-0.0432,3.2251c-0.6921-0.2975-1.3951-0.5883-2.1849-0.7817
		c-1.7097-0.4191-3.4269-0.4731-5.0523-0.3392c1.4329-0.7365,2.8254-1.7307,4.0101-2.9756c0.5321-0.5589,0.9382-1.1508,1.3369-1.743
		C134.166,165.404,134.91,166.2048,135.2804,167.3639z M130.1375,155.2966c0.8443,0.6356,1.6133,1.424,2.0248,2.5831
		c0.387,1.1508,0.3296,2.2499,0.0528,3.2334c-0.6942-0.2749-1.4029-0.5422-2.1957-0.7126c-1.738-0.3801-3.4664-0.3833-5.0934-0.1986
		c1.4179-0.7857,2.788-1.8221,3.9378-3.1166C129.3768,156.5081,129.7609,155.9035,130.1375,155.2966z M126.5681,145.9729
		c0.8646,0.607,1.659,1.37,2.1146,2.5125c0.4365,1.1404,0.4273,2.2372,0.1916,3.2318c-0.7087-0.2566-1.4266-0.5001-2.2268-0.6447
		c-1.7592-0.3214-3.4955-0.2665-5.1229-0.0254c1.4005-0.8338,2.7427-1.9154,3.8484-3.2561
		C125.8593,147.2011,126.2172,146.5858,126.5681,145.9729z M121.537,138.6091c0.461-0.605,0.7923-1.2278,1.1199-1.8515
		c0.8854,0.5756,1.7064,1.312,2.2031,2.439c0.4785,1.1305,0.5109,2.2264,0.3122,3.2318c-0.7133-0.2312-1.4354-0.452-2.2339-0.5716
		c-1.7866-0.2638-3.5475-0.1494-5.1844,0.1589C119.1505,141.1256,120.4832,139.9911,121.537,138.6091z M117.3265,129.5739
		c0.4319-0.6197,0.7354-1.256,1.0342-1.8896c0.9141,0.5446,1.7717,1.2489,2.3212,2.3643c0.5279,1.1138,0.6044,2.2098,0.4452,3.2207
		c-0.7221-0.2058-1.4549-0.4-2.2605-0.4898c-1.7866-0.1919-3.5649-0.0036-5.2098,0.3797
		C115.0203,132.2146,116.3097,131.0261,117.3265,129.5739z M113.6834,118.7781c0.9332,0.5061,1.8145,1.1802,2.4081,2.2721
		c0.5716,1.0924,0.6984,2.1867,0.5849,3.202c-0.7308-0.1772-1.4707-0.342-2.278-0.4c-1.8103-0.1311-3.5537,0.1128-5.1578,0.5438
		c1.307-0.9919,2.5357-2.207,3.4822-3.6839C113.1334,120.0742,113.4107,119.4236,113.6834,118.7781z M108.6037,110.0359
		c0.9607,0.4663,1.876,1.1071,2.5332,2.1827c0.6219,1.0761,0.7915,2.1704,0.7196,3.1941c-0.7329-0.1482-1.4744-0.286-2.28-0.3126
		c-1.7126-0.0504-3.4248,0.1998-4.9828,0.6673c1.22-1.0364,2.3241-2.319,3.1551-3.7657
		C108.1236,111.3496,108.3663,110.6926,108.6037,110.0359z M102.3418,103.5413c0.3404-0.6606,0.5499-1.3212,0.7548-1.9802
		c0.9798,0.4203,1.9246,1.0101,2.6271,2.0473c0.6784,1.0507,0.9079,2.1351,0.8883,3.1603
		c-0.6896-0.1065-1.3771-0.2169-2.1233-0.2169c-0.0561,0-0.1176,0-0.1742,0.0044c-1.7106,0.0187-3.3978,0.338-4.9184,0.8648
		C100.5556,106.335,101.5873,105.013,102.3418,103.5413z M96.5384,95.3017c0.3081-0.6801,0.4847-1.3549,0.6572-2.0262
		c1.0009,0.3813,1.9761,0.9402,2.7264,1.9532c0.7266,1.0221,1.0064,2.0954,1.0363,3.1218c-0.737-0.0842-1.4832-0.1549-2.2771-0.1092
		c-1.7891,0.0965-3.4693,0.5529-4.9916,1.1742C94.832,98.2578,95.8359,96.8552,96.5384,95.3017z M90.3164,87.3548
		c0.2768-0.7094,0.4232-1.4078,0.5587-2.1021c1.0139,0.3337,2.0069,0.9092,2.8117,1.8829c0.784,0.9815,1.1199,2.039,1.2026,3.0626
		c-0.7378-0.0481-1.4794-0.0874-2.2651-0.0083c-1.7197,0.1704-3.382,0.6447-4.8544,1.3136
		C88.8166,90.3109,89.7137,88.8944,90.3164,87.3548z M81.9162,92.3543c-0.8925,0.11-1.5946-0.1398-2.2015-0.8532
		c-0.5982-0.7086-0.7395-1.4153-0.4211-2.2165c0.7678-1.9349,3.949-3.832,7.2342-4.3194c0.4876-0.0687,1.0916-0.1184,1.7488-0.1152
		c-0.1268,0.6153-0.3018,1.1682-0.4739,1.608C86.6426,89.4351,84.0545,92.0246,81.9162,92.3543z M87.8597,99.9139
		c-0.8883,0.0787-1.5584-0.234-2.1075-0.9803c-0.577-0.7226-0.6921-1.4237-0.3446-2.1971c0.8505-1.9063,4.1444-3.6656,7.4957-3.9993
		c0.483-0.0536,1.087-0.0703,1.7347-0.0393c-0.1584,0.6086-0.3641,1.1547-0.5603,1.5869
		C92.7423,97.2326,90.0146,99.7053,87.8597,99.9139z M93.4748,107.7281c-0.8788,0.0493-1.5576-0.2884-2.0855-1.0618
		c-0.5275-0.7647-0.5998-1.486-0.2003-2.2535c0.9594-1.8515,4.3152-3.436,7.6407-3.6147c0.4822-0.0171,1.0908,0.0016,1.745,0.0703
		c-0.1916,0.5942-0.4211,1.1265-0.6368,1.5468C98.4676,105.276,95.6264,107.6109,93.4748,107.7281z M98.6767,115.8001
		c-0.7424,0.0381-1.5268-0.3563-2.0231-1.1524c-0.503-0.7841-0.5425-1.5011-0.1151-2.2499
		c1.0346-1.8014,4.4641-3.2437,7.8062-3.2815c0.5113-0.004,1.1215,0.033,1.77,0.1251c-0.2207,0.5903-0.476,1.113-0.7133,1.5265
		C103.7905,113.5697,100.8371,115.779,98.6767,115.8001z M103.4941,124.1021c-0.8945-0.033-1.5222-0.433-1.9729-1.2568
		c-0.4555-0.8091-0.4573-1.5238,0.0054-2.2535c1.1207-1.7557,4.6204-3.0022,7.9583-2.9315c0.4951,0.0167,1.102,0.0858,1.748,0.2066
		c-0.2511,0.5851-0.5367,1.1031-0.796,1.5071C108.6864,122.0965,105.7105,124.0691,103.4941,124.1021z M107.9802,132.5963
		c-0.9016-0.0624-1.5147-0.4878-1.9467-1.318c-0.4273-0.8338-0.3994-1.5551,0.1002-2.2678
		c1.1997-1.7013,4.7525-2.8445,8.0597-2.6066c0.4976,0.0381,1.1082,0.1295,1.7563,0.28c-0.2744,0.5688-0.5786,1.0709-0.853,1.4634
		C113.2515,130.7906,110.0744,132.8804,107.9802,132.5963z M112.0464,141.2821c-0.8875-0.1001-1.4744-0.5529-1.8523-1.4098
		c-0.3941-0.8445-0.345-1.5631,0.1766-2.2475c1.2612-1.66,4.8349-2.6852,8.1861-2.2971c0.4934,0.054,1.0978,0.1684,1.733,0.3396
		c-0.2993,0.5589-0.6264,1.0467-0.9166,1.428C117.4013,139.6852,114.2683,141.6114,112.0464,141.2821z M115.8163,150.1132
		c-0.8874-0.1267-1.4652-0.6026-1.8236-1.459c-0.3562-0.8759-0.2681-1.6052,0.2964-2.2813c1.3531-1.6263,4.896-2.4644,8.2348-1.9841
		c0.4926,0.0723,1.0908,0.2101,1.7214,0.4068c-0.323,0.5522-0.67,1.0336-0.9798,1.407
		C121.2099,148.7002,117.9467,150.4468,115.8163,150.1132z M119.2203,159.0825c-0.8771-0.1605-1.4312-0.6538-1.7542-1.5365
		c-0.3313-0.8775-0.2249-1.5929,0.3538-2.2451c1.3826-1.5599,5.0435-2.2979,8.3254-1.7136c0.4913,0.089,1.0862,0.2451,1.7106,0.462
		c-0.3446,0.5422-0.7117,1.0137-1.0342,1.3768C124.6575,157.8611,121.3067,159.4825,119.2203,159.0825z M122.3313,168.1682
		c-0.8771-0.1899-1.4208-0.6999-1.7143-1.6028c-0.2884-0.8902-0.1513-1.6036,0.4539-2.2372c1.4395-1.5055,5.1179-2.1307,8.3603-1.43
		c0.4186,0.0894,1.0209,0.2749,1.6711,0.5271c-0.3862,0.5688-0.7811,1.0379-1.0741,1.3446
		C127.7511,167.1597,124.4343,168.6064,122.3313,168.1682z M125.1414,177.3545c-0.8742-0.2145-1.4046-0.744-1.6727-1.6552
		c-0.264-0.8965-0.1048-1.6119,0.5204-2.2264c1.506-1.4769,5.1105-1.9937,8.3965-1.1841c0.4186,0.1041,1.0168,0.3082,1.6623,0.5791
		c-0.402,0.5545-0.8098,1.0094-1.1082,1.3053C130.5827,176.4996,127.2103,177.888,125.1414,177.3545z M127.6463,186.6277
		c-0.8634-0.2395-1.3718-0.7849-1.6079-1.7029c-0.2357-0.9112-0.0586-1.6155,0.5824-2.2165
		c1.5181-1.4177,5.2231-1.8221,8.4351-0.9422c0.4144,0.1144,1.008,0.338,1.6449,0.6256c-0.4211,0.5446-0.8426,0.9883-1.1523,1.2759
		C133.1579,185.8948,129.6711,187.1949,127.6463,186.6277z M129.916,195.9724c-0.8605-0.2586-1.3601-0.8167-1.5842-1.7363
		c-0.2049-0.924-0.0071-1.6322,0.6589-2.2165c1.5796-1.397,5.2053-1.7013,8.4297-0.7214c0.4153,0.1271,1.0064,0.3674,1.6411,0.6733
		c-0.4361,0.5315-0.8705,0.9653-1.1872,1.2449C135.3868,195.4135,131.9574,196.598,129.916,195.9724z M139.934,202.8194
		c-2.5523,2.1391-6.0171,3.2561-8.0419,2.5601c-0.8443-0.2789-1.3202-0.8505-1.5102-1.7784
		c-0.1933-0.9279,0.022-1.6254,0.6942-2.1911c1.5971-1.3343,5.3241-1.5595,8.4746-0.5172c0.4074,0.1355,0.9902,0.3857,1.6112,0.7071
		C140.7085,202.1234,140.2616,202.5461,139.934,202.8194z M142.5483,199.4255c-0.6684-0.3531-1.3464-0.6944-2.1217-0.9506
		c-1.6507-0.549-3.3333-0.7365-4.9413-0.7365c1.4749-0.6153,2.9281-1.5095,4.2088-2.6376c0.5803-0.5128,1.0388-1.0689,1.4882-1.6263
		c0.7574,0.7194,1.4266,1.5726,1.6931,2.7484C143.129,197.3965,142.939,198.4789,142.5483,199.4255z"/>
	<path id="XMLID_15058_" fill="#FFF24A" d="M299.9102,102.0895l12.8439-19.5312l24.1189-0.9621
		c7.7501-0.309,11.7652-8.9761,6.7944-14.6663l-15.4698-17.7087l6.4959-22.2168c2.0872-7.1389-5.2983-13.4659-12.4976-10.7068
		l-22.4051,8.5868l-20.1039-12.7688c-6.4602-4.1029-15.0396,0.6534-14.5183,8.0494l1.6229,23.0152l-18.9209,14.3255
		c-6.0802,4.603-3.9972,13.8699,3.5246,15.6816l23.4077,5.6374l8.4106,21.6222
		C285.9162,107.3952,295.7829,108.3656,299.9102,102.0895z"/>
	<g id="XMLID_15053_">
		<path id="XMLID_15057_" fill="#FFCE00" d="M270.1155,40.2562c-1.1714,1.2258-3.3238,2.924-3.3238,2.924l-1.6225-23.0156
			c-0.2349-3.3272,1.4196-6.0601,3.8476-7.7526C265.3172,17.8634,271.4823,38.8266,270.1155,40.2562z"/>
		<path id="XMLID_15056_" fill="#FFCE00" d="M247.8704,57.5057l0.3076-0.2332c-2.9709,5.8507,0.6555,10.4697,6.4307,11.86
			l23.4073,5.6378l8.4106,21.6221c2.3432,6.0247,11.3246,7.8087,16.9979,0.3527l-3.5142,5.3447
			c-4.1269,6.2758-13.9937,5.3053-16.6965-1.6425l-8.411-21.6229l-23.4073-5.637C243.874,71.3756,241.791,62.1088,247.8704,57.5057z
			"/>
		<path id="XMLID_15054_" fill="#FFCE00" d="M316.8349,78.4689c1.7683-0.0707,23.6439,1.378,28.3299-2.5931
			c-1.262,3.1047-4.2454,5.5592-8.2921,5.7208l-24.1185,0.9617C312.7542,82.5583,315.0666,78.5392,316.8349,78.4689z"/>
	</g>
	<path id="XMLID_15022_" d="M204.4652,205.4752c-0.1355,0.6971,0.3446,1.3637,1.0729,1.4928
		c0.0827,0.0171,0.1654,0.0211,0.2444,0.0211c0.6368,0,1.2001-0.4294,1.3177-1.0463c0.2286-1.1841,0.8796-2.056,1.6195-2.7921
		c0.4685,0.5486,0.9461,1.0952,1.5443,1.5953c2.5702,2.1518,5.7772,3.3895,8.465,3.3895c0.799,0,1.5493-0.1084,2.2256-0.3337
		c1.7035-0.5664,2.8275-1.8463,3.2199-3.5981c0.0071-0.021,0.0308-0.0294,0.0353-0.0497c0.0071-0.0278,0.0017-0.052,0.0071-0.0798
		c0.0033-0.0159,0.012-0.0294,0.0149-0.0453c0.0025-0.0127-0.0087-0.0211-0.0062-0.0338c0.3288-1.77-0.2103-3.3712-1.5692-4.5117
		c-0.4124-0.3456-0.964-0.5819-1.4989-0.8298c0.591-0.025,1.1734-0.0791,1.6951-0.2336c1.7326-0.5212,2.9107-1.776,3.3642-3.519
		c0.0046-0.021,0.022-0.0381,0.0266-0.058c0.0017-0.0087,0-0.0155,0.0017-0.0238c0.0071-0.0266,0.022-0.0497,0.0291-0.0771
		c0.0046-0.023-0.0158-0.0413-0.0133-0.0624c0.3713-1.7617-0.1372-3.3728-1.4707-4.5446c-0.3887-0.3404-0.9162-0.5756-1.4158-0.8294
		c0.5911-0.0111,1.1672-0.0691,1.6956-0.2169c1.7346-0.4826,2.9343-1.7124,3.4182-3.4447c0.0071-0.0151,0.0245-0.0183,0.0283-0.0334
		c0.0071-0.0211,0.005-0.0397,0.0087-0.0608c0.005-0.0206,0.0175-0.035,0.022-0.056c0.0042-0.0143-0.0108-0.027-0.0062-0.0413
		c0.4257-1.7498-0.0283-3.3697-1.3248-4.5748c-0.3774-0.3523-0.9008-0.6002-1.3942-0.8667c0.022,0,0.0486,0.0076,0.0723,0.0076
		c0.5587,0,1.0949-0.058,1.5975-0.1831c1.7521-0.4278,2.9888-1.6111,3.5338-3.3208c0.0092-0.0234,0.037-0.0294,0.0441-0.052
		c0.0087-0.0294,0.0063-0.0564,0.015-0.0858c0.0029-0.0103,0.0087-0.0167,0.0108-0.027c0.0025-0.0083-0.0037-0.0151-0.0021-0.0211
		c0.4847-1.7474,0.074-3.3895-1.1889-4.6372c-0.3749-0.3706-0.8991-0.6419-1.3959-0.9279c0.1065,0.0052,0.2224,0.0437,0.3271,0.0437
		c0.4793,0,0.9461-0.0453,1.3834-0.1366c1.7646-0.3793,3.0362-1.5309,3.636-3.2195c0.0071-0.0207,0.0312-0.0294,0.037-0.0493
		c0.0071-0.021,0.0071-0.0405,0.0141-0.0592c0.0038-0.0183,0.015-0.031,0.0213-0.05c0.0045-0.0143-0.0088-0.027-0.0046-0.0397
		c0.5325-1.7224,0.1754-3.3712-1.0467-4.6515c-0.3683-0.3873-0.8883-0.6788-1.3851-0.9839
		c0.1933,0.0151,0.4011,0.0838,0.5911,0.0838c0.4011,0,0.794-0.0338,1.1644-0.1001c1.7679-0.3253,3.0682-1.426,3.7208-3.088
		c0.0087-0.0226,0.0324-0.031,0.0412-0.052c0.0079-0.0226,0.0079-0.0437,0.0166-0.0663c0.0071-0.0211,0.0204-0.0338,0.0266-0.0548
		c0.0042-0.0143-0.0062-0.0266-0.0017-0.0409c0.5953-1.6894,0.3093-3.3363-0.8576-4.6539c-0.3625-0.4111-0.8842-0.7297-1.3855-1.059
		c0.2744,0.031,0.5645,0.1251,0.8314,0.1251c0.3093,0,0.6148-0.0211,0.9074-0.0671c1.8024-0.2606,3.1675-1.3216,3.8879-2.9855
		c0.0042-0.0103,0.0175-0.0143,0.022-0.0246c0.0042-0.0083,0.0042-0.0167,0.0087-0.0278c0.0104-0.0266,0.0283-0.0453,0.0387-0.0723
		c0.0088-0.0207-0.0087-0.0437-0.0017-0.0644c0.641-1.6787,0.4012-3.3363-0.7312-4.6936c-0.3492-0.4195-0.8592-0.7547-1.3481-1.0967
		c0.3816,0.0604,0.779,0.1839,1.1431,0.1839c0.227,0,0.4539-0.0127,0.6722-0.0377c1.7845-0.2002,3.1613-1.2139,3.9274-2.8227
		c0.0079-0.0151,0.0254-0.0207,0.0341-0.0377c0.0087-0.0167,0.0087-0.0334,0.0178-0.0504c0.0113-0.0266,0.0308-0.0477,0.0437-0.0747
		c0.0087-0.0187-0.0071-0.0377,0-0.0536c0.7162-1.629,0.5587-3.2799-0.4976-4.6666c-0.3363-0.4421-0.8447-0.8072-1.3414-1.1762
		c0.4494,0.0834,0.9079,0.2256,1.3369,0.2256c0.14,0,0.2843-0.0044,0.4231-0.0171c1.8033-0.1251,3.2361-1.0717,4.0891-2.6475
		c0.0133-0.0211,0.0396-0.031,0.052-0.0548c0.0112-0.0183,0.0141-0.0369,0.022-0.058c0.0087-0.0167,0.022-0.0294,0.0308-0.0461
		c0.0071-0.0119-0.0046-0.027,0.0017-0.0413c0.7898-1.6135,0.688-3.2878-0.3201-4.7242c-0.3121-0.4441-0.7881-0.8131-1.2437-1.1905
		c0.5217,0.1188,1.0492,0.2777,1.5489,0.2777c0.0661,0,0.1355-0.0044,0.2049-0.0044c1.7845-0.0648,3.2386-0.9506,4.1456-2.4795
		c0.0158-0.0226,0.0437-0.031,0.0569-0.0564c0.0134-0.0203,0.015-0.0413,0.0266-0.062c0.0121-0.021,0.0278-0.0338,0.0387-0.054
		c0.0087-0.0151-0.0046-0.0294,0.0042-0.0437c0.8559-1.5726,0.8268-3.2386-0.1135-4.7103
		c-0.2507-0.3941-0.5865-0.6077-0.9577-0.9584c0.5067,0.1251,1.008,0.3679,1.4911,0.3679h0.0607c1.78,0,3.2615-0.9805,4.2263-2.4649
		c0.0104-0.0143,0.0283-0.0942,0.037-0.1093c0.0087-0.0127,0.0104-0.062,0.0175-0.0755c0.0175-0.0242,0.0387-0.0626,0.0561-0.0896
		c0.0109-0.0183-0.0016-0.0504,0.0092-0.0698c0.9207-1.5214,0.9768-3.1801,0.1135-4.6848
		c-0.2332-0.4068-0.5516-0.7909-0.9079-1.1623c0.4934,0.1462,0.9843,0.2519,1.462,0.2789c0.1089,0.004,0.2137,0.0078,0.3226,0.0078
		c1.6624,0,3.089-0.7534,4.0779-2.1211c0.0133-0.0167,0.0324-0.0228,0.0457-0.0395c0.0087-0.0127,0.0133-0.0255,0.022-0.0394
		c0.0129-0.0211,0.0324-0.0354,0.0482-0.0564c0.0104-0.0171,0-0.0354,0.0087-0.0521c0.9968-1.4971,1.1261-3.1631,0.3184-4.7147
		c-0.227-0.437-0.6244-0.8254-0.9781-1.2239c0.5483,0.2002,1.0962,0.3591,1.6324,0.4111c0.1833,0.021,0.3662,0.0294,0.5454,0.0294
		c1.5471,0,2.8956-0.6816,3.8862-1.9222c0.0175-0.0211,0.0457-0.0294,0.0632-0.0505c0.0175-0.021,0.0237-0.0437,0.0416-0.0647
		c0.0146-0.0203,0.0341-0.0354,0.0499-0.0556c0.0087-0.0135,0-0.0294,0.0087-0.0417c1.0733-1.4225,1.3003-3.0563,0.5982-4.6289
		c-0.1925-0.4294-0.476-0.8449-0.7952-1.2489c0.4672,0.1839,0.9341,0.3317,1.3967,0.4024c0.2836,0.0453,0.5674,0.0671,0.8463,0.0671
		c1.4495,0,2.7336-0.6236,3.7416-1.743c0.022-0.0211,0.0574-0.0111,0.0765-0.0338c0.0158-0.0167,0.022-0.0369,0.0379-0.0536
		c0.0125-0.0151,0.0282-0.0195,0.0407-0.0338c0.0141-0.0151,0.005-0.0377,0.0158-0.052c1.1407-1.3951,1.4354-3.0408,0.7915-4.6555
		c-1.5556-3.9023-6.3443-5.4475-9.3331-5.9417c-0.7836-0.1295-1.5297-0.1128-2.2667-0.1009
		c0.1372-1.0153,0.5259-2.0576,1.3543-3.0082c0.8517-0.9379,2.9684-2.5176,7.2525-1.8197c3.3089,0.539,4.8577,0.7285,5.6416-0.6491
		c0.4224-1.2453-1.6444-2.3496-2.7049-1.2465c-2.2705-0.6733-5.1138-0.8957-7.3286-0.5982c-1.9308,0.396-3.631,1.2505-4.8897,2.6392
		c-0.0045,0.0044,0,0.0083-0.0045,0.0127c-0.0017,0.0024-0.0058,0.0024-0.0087,0.004c-1.2321,1.403-1.854,3.1405-1.9737,5.0189
		c-1.9034,0.489-3.5545,1.428-4.7463,2.8628c-0.0016,0.0032,0,0.0075,0,0.0075c-0.0062,0.0068-0.0104,0.004-0.0121,0.0083
		c-1.1656,1.455-1.7006,3.2191-1.718,5.1059c-1.8806,0.5776-3.4909,1.5889-4.5921,3.088c0,0,0,0.006-0.002,0.0103
		c-0.0025,0.0016-0.0088,0.0016-0.0113,0.0068c-1.0775,1.5087-1.5164,3.2914-1.4383,5.1723
		c-1.839,0.665-3.3854,1.7486-4.4138,3.2831c-0.0017,0.0028,0,0.0068-0.0017,0.0083c-0.0017,0.0044-0.0087,0.0044-0.0087,0.0044
		c-1.0098,1.5559-1.3634,3.3569-1.1956,5.2315c-1.8136,0.742-3.3139,1.8868-4.2745,3.467c-0.0017,0.0044,0,0.0083-0.0017,0.0127
		c-0.0029,0.004-0.0087,0.004-0.0116,0.0076c-0.9245,1.5937-1.1864,3.405-0.9224,5.2708c-1.7671,0.8195-3.2008,2.0251-4.0779,3.6362
		c-0.0017,0.004,0,0.0068,0,0.0068c-0.0017,0.006-0.0063,0.006-0.0088,0.0099c-0.8505,1.6223-1.0338,3.436-0.6942,5.2827
		c-1.7343,0.8842-3.1152,2.1434-3.9262,3.7864c-0.0029,0.0028,0,0.0067,0,0.0067c-0.0029,0.0044-0.0054,0.0044-0.0054,0.0044
		c-0.789,1.6548-0.5455,3.4797-0.1228,5.3161c-1.6931,0.9506-3.3963,2.2618-3.3963,3.9294v0.0087c0,0-0.3586,0.0048-0.3611,0.0083
		c-0.7092,1.6699-0.9153,3.488-0.4243,5.3018c-1.6519,1.007-3.0116,2.3603-3.6838,4.0473c0,0-0.0424,0.004-0.044,0.0083
		l-0.0262,0.004c-0.6526,1.693-0.6312,3.5067-0.0717,5.3022c-1.6195,1.0634-2.8467,2.456-3.4536,4.1629
		c0,0-0.0003,0.0083-0.0027,0.0111l-0.0059,0.006c-0.582,1.7121-0.3721,3.5234,0.2514,5.2994
		c-1.5709,1.1095-2.1779,2.5359-3.1779,4.2539v0.0056l-0.1129,0.0068c-0.5279,1.72-0.4227,3.5234,0.2565,5.2744
		c-1.543,1.1555-2.657,2.6149-3.148,4.3445l0.0043,0.0067v0.0044c0,1.7363,0.0078,3.5361,0.7461,5.2684
		c-1.5014,1.1968-2.7461,2.6837-2.7461,4.4243v0.006v0.0024c-1,1.7406-0.5223,3.5278,0.2613,5.2374
		c-1.469,1.2322-2.2613,2.7432-3.2613,4.4906v0.002l0.0628,0.0056c-0.3774,1.7478-0.0278,3.5262,0.8014,5.2172
		C205.7638,202.1874,204.8028,203.7203,204.4652,205.4752z M214.5486,185.5023c1.2525,1.1659,2.6882,2.091,4.1498,2.744
		c-1.612-0.0417-3.3001,0.1061-4.9649,0.6129c-0.784,0.2379-1.4753,0.5649-2.1516,0.9029
		c-0.3642-0.9533-0.5234-2.0394-0.2461-3.2068c0.0017-0.0024,0.0017-0.0024,0.0017-0.0024
		c0.2927-1.1734,0.9885-2.0139,1.7671-2.7122C213.5388,184.408,213.982,184.9752,214.5486,185.5023z M217.0975,175.9531
		c1.2263,1.2139,2.6458,2.1772,4.1016,2.8731c-1.6253-0.0874-3.3363,0.0135-5.0311,0.4799
		c-0.7857,0.2169-1.484,0.5251-2.1666,0.8421c-0.338-0.9649-0.4672-2.0576-0.1505-3.2207c0.3334-1.1702,1.0583-1.9929,1.8585-2.6713
		C216.1265,174.8337,216.5497,175.412,217.0975,175.9531z M218.6185,164.7493c0.3983,0.5923,0.8048,1.1841,1.3369,1.743
		c1.1847,1.2449,2.5773,2.2392,4.0101,2.9756c-1.6257-0.1339-3.3425-0.0798-5.0522,0.3392
		c-0.7902,0.1934-1.4927,0.4842-2.1853,0.7817c-0.3051-0.9732-0.3965-2.0699-0.0428-3.2251
		C217.0556,166.2048,217.7996,165.404,218.6185,164.7493z M223.1017,157.0853c1.1494,1.2946,2.5199,2.3309,3.9378,3.1166
		c-1.6275-0.1847-3.3555-0.1815-5.0939,0.1986c-0.7923,0.1704-1.5014,0.4377-2.1952,0.7126
		c-0.2773-0.9835-0.3342-2.0826,0.0528-3.2334c0.4115-1.1591,1.1805-1.9476,2.0248-2.5831
		C222.2043,155.9035,222.5888,156.5081,223.1017,157.0853z M226.5927,147.791c1.1057,1.3406,2.448,2.4223,3.848,3.2561
		c-1.627-0.2411-3.3633-0.2959-5.1225,0.0254c-0.8006,0.1446-1.5181,0.3881-2.2272,0.6447
		c-0.2357-0.9947-0.2444-2.0914,0.192-3.2318c0.4556-1.1424,1.2496-1.9055,2.1142-2.5125
		C225.7484,146.5858,226.1063,147.2011,226.5927,147.791z M234.2114,142.0157c-1.6366-0.3083-3.3974-0.4227-5.184-0.1589
		c-0.7985,0.1196-1.521,0.3404-2.2343,0.5716c-0.1987-1.0054-0.1659-2.1013,0.3126-3.2318c0.4967-1.1269,1.3173-1.8634,2.2031-2.439
		c0.3271,0.6236,0.6589,1.2465,1.1199,1.8515C231.4824,139.9911,232.8147,141.1256,234.2114,142.0157z M238.3088,133.1592
		c-1.6449-0.3833-3.4236-0.5716-5.2098-0.3797c-0.8056,0.0898-1.5385,0.284-2.2605,0.4898
		c-0.1592-1.0109-0.0827-2.1069,0.4448-3.2207c0.55-1.1154,1.4075-1.8197,2.3212-2.3643c0.2993,0.6336,0.6028,1.2699,1.0347,1.8896
		C235.6559,131.0261,236.9454,132.2146,238.3088,133.1592z M239.2428,120.7122c0.9465,1.4769,2.1753,2.692,3.4822,3.6839
		c-1.6046-0.431-3.3475-0.6749-5.1578-0.5438c-0.8077,0.058-1.5472,0.2228-2.278,0.4c-0.1135-1.0153,0.0129-2.1097,0.5849-3.202
		c0.5936-1.092,1.4749-1.7661,2.4081-2.2721C238.5549,119.4236,238.8321,120.0742,239.2428,120.7122z M244.2169,112.0018
		c0.831,1.4467,1.935,2.7293,3.1546,3.7657c-1.5576-0.4675-3.2702-0.7178-4.9824-0.6673c-0.806,0.0266-1.5472,0.1645-2.28,0.3126
		c-0.0723-1.0237,0.0977-2.118,0.7196-3.1941c0.6568-1.0757,1.5725-1.7164,2.5332-2.1827
		C243.5992,110.6926,243.842,111.3496,244.2169,112.0018z M252.5694,107.421c-1.521-0.5267-3.2079-0.8461-4.9188-0.8648
		c-0.0561-0.0044-0.1176-0.0044-0.1742-0.0044c-0.7457,0-1.4337,0.1104-2.1233,0.2169c-0.0191-1.0252,0.2103-2.1097,0.8883-3.1603
		c0.7029-1.0372,1.6478-1.627,2.6275-2.0473c0.2049,0.659,0.4141,1.3196,0.7545,1.9802
		C250.3783,105.013,251.41,106.335,252.5694,107.421z M258.2759,99.4153c-1.5226-0.6213-3.2024-1.0777-4.9915-1.1742
		c-0.7944-0.0457-1.5401,0.025-2.2771,0.1092c0.03-1.0264,0.3097-2.0997,1.0359-3.1218c0.7503-1.0129,1.7259-1.5718,2.7269-1.9532
		c0.1725,0.6713,0.3492,1.3462,0.6568,2.0262C256.1297,96.8552,257.1332,98.2578,258.2759,99.4153z M264.1953,91.5034
		c-1.4724-0.6689-3.1347-1.1432-4.854-1.3136c-0.7856-0.079-1.5273-0.0397-2.2651,0.0083c0.0827-1.0236,0.4186-2.0811,1.2022-3.0626
		c0.8051-0.9736,1.7978-1.5492,2.8121-1.8829c0.1355,0.6944,0.2814,1.3927,0.5587,2.1021
		C262.2515,88.8944,263.149,90.3109,264.1953,91.5034z M264.1628,86.4579c-0.1725-0.4397-0.3475-0.9927-0.4739-1.608
		c0.6568-0.0032,1.2612,0.0465,1.7484,0.1152c3.2852,0.4874,6.4668,2.3845,7.2346,4.3194c0.3184,0.8012,0.1767,1.5079-0.4215,2.2165
		c-0.6069,0.7134-1.3086,0.9633-2.2015,0.8532C267.9107,92.0246,265.323,89.4351,264.1628,86.4579z M257.8881,94.2848
		c-0.1962-0.4322-0.402-0.9784-0.5604-1.5869c0.6473-0.031,1.2516-0.0143,1.7347,0.0393c3.3513,0.3337,6.6452,2.093,7.4957,3.9993
		c0.3475,0.7734,0.2324,1.4745-0.3446,2.1971c-0.5491,0.7464-1.2192,1.059-2.1075,0.9803
		C261.951,99.7053,259.2232,97.2326,257.8881,94.2848z M252.0273,102.4152c-0.2153-0.4203-0.4448-0.9525-0.6368-1.5468
		c0.6547-0.0687,1.2632-0.0874,1.745-0.0703c3.3259,0.1787,6.6813,1.7633,7.6412,3.6147c0.3991,0.7674,0.3271,1.4888-0.2008,2.2535
		c-0.5275,0.7734-1.2068,1.111-2.0854,1.0618C256.3392,107.6109,253.498,105.276,252.0273,102.4152z M246.5644,110.768
		c-0.2374-0.4135-0.4926-0.9363-0.7134-1.5265c0.6481-0.0922,1.2587-0.1291,1.7696-0.1251c3.3425,0.0377,6.772,1.4801,7.8062,3.2815
		c0.4277,0.7488,0.3882,1.4658-0.1152,2.2499c-0.4959,0.796-1.2807,1.1905-2.0227,1.1524
		C251.1286,115.779,248.1747,113.5697,246.5644,110.768z M241.5287,119.3739c-0.2594-0.404-0.5454-0.922-0.796-1.5071
		c0.6456-0.1208,1.2525-0.1899,1.748-0.2066c3.338-0.0707,6.8376,1.1758,7.9583,2.9315c0.4627,0.7297,0.461,1.4443,0.0054,2.2535
		c-0.4505,0.8238-1.0787,1.2239-1.9733,1.2568C246.2547,124.0691,243.2792,122.0965,241.5287,119.3739z M236.8689,128.1474
		c-0.2744-0.3925-0.579-0.8946-0.8534-1.4634c0.6485-0.1505,1.2587-0.2419,1.7567-0.28c3.3072-0.2379,6.8597,0.9053,8.0593,2.6066
		c0.4996,0.7126,0.5279,1.434,0.1006,2.2678c-0.4318,0.8302-1.045,1.2556-1.9467,1.318
		C241.8912,132.8804,238.7141,130.7906,236.8689,128.1474z M232.5923,137.0953c-0.2901-0.3813-0.6173-0.8691-0.9166-1.428
		c0.6352-0.1712,1.2396-0.2856,1.733-0.3396c3.3509-0.3881,6.9249,0.6371,8.1861,2.2971c0.5217,0.6844,0.5707,1.403,0.1767,2.2475
		c-0.3783,0.8568-0.9649,1.3096-1.8524,1.4098C237.6973,141.6114,234.5643,139.6852,232.5923,137.0953z M228.7002,146.2025
		c-0.3096-0.3734-0.6572-0.8548-0.9798-1.407c0.6306-0.1966,1.2288-0.3345,1.7214-0.4068c3.3388-0.4802,6.8817,0.3579,8.2343,1.9841
		c0.5649,0.6761,0.6526,1.4054,0.2964,2.2813c-0.3579,0.8564-0.9357,1.3323-1.8232,1.459
		C234.019,150.4468,230.7558,148.7002,228.7002,146.2025z M225.144,155.4261c-0.323-0.3631-0.6897-0.8346-1.0343-1.3768
		c0.6244-0.2169,1.2188-0.373,1.7105-0.462c3.2818-0.5843,6.9424,0.1537,8.3254,1.7136c0.5786,0.6523,0.6851,1.3676,0.3533,2.2451
		c-0.3226,0.8826-0.8767,1.376-1.7538,1.5365C230.6589,159.4825,227.3076,157.8611,225.144,155.4261z M221.937,164.77
		c-0.2926-0.3067-0.6875-0.7758-1.0737-1.3446c0.6497-0.2522,1.2525-0.4377,1.6711-0.5271c3.2419-0.7007,6.9204-0.0755,8.3603,1.43
		c0.6053,0.6336,0.7425,1.347,0.4539,2.2372c-0.2939,0.9029-0.8372,1.4129-1.7143,1.6028
		C227.5313,168.6064,224.2141,167.1597,221.937,164.77z M219.0255,174.1731c-0.298-0.2959-0.7063-0.7507-1.1082-1.3053
		c0.6456-0.2709,1.2437-0.4751,1.6623-0.5791c3.2865-0.8096,6.8908-0.2928,8.3965,1.1841c0.6256,0.6145,0.7848,1.3299,0.5208,2.2264
		c-0.2681,0.9112-0.7985,1.4407-1.6731,1.6552C224.7553,177.888,221.3829,176.4996,219.0255,174.1731z M216.4167,183.6676
		c-0.3093-0.2876-0.7308-0.7313-1.1519-1.2759c0.6364-0.2876,1.2304-0.5112,1.6445-0.6256c3.2124-0.8799,6.917-0.4755,8.4351,0.9422
		c0.6414,0.601,0.8181,1.3053,0.5824,2.2165c-0.2357,0.918-0.7441,1.4634-1.6079,1.7029
		C222.2941,187.1949,218.8077,185.8948,216.4167,183.6676z M214.0913,193.2165c-0.3167-0.2796-0.7511-0.7134-1.1876-1.2449
		c0.6352-0.3059,1.2263-0.5462,1.6415-0.6733c3.2245-0.9799,6.8501-0.6757,8.4297,0.7214c0.6659,0.5843,0.8638,1.2926,0.6589,2.2165
		c-0.2245,0.9196-0.7241,1.4777-1.5842,1.7363C220.0082,196.598,216.5788,195.4135,214.0913,193.2165z M210.8032,201.5999
		c0.621-0.3214,1.2043-0.5716,1.6116-0.7071c3.1505-1.0423,6.8775-0.8171,8.4746,0.5172c0.6722,0.5656,0.8875,1.2632,0.6942,2.1911
		c-0.19,0.9279-0.6659,1.4995-1.5106,1.7784c-2.0244,0.6959-5.4891-0.4211-8.0419-2.5601
		C211.704,202.5461,211.2571,202.1234,210.8032,201.5999z M209.0898,196.2231c0.2669-1.1758,0.9361-2.029,1.6935-2.7484
		c0.4494,0.5573,0.9074,1.1134,1.4882,1.6263c1.2807,1.1281,2.7336,2.0223,4.2088,2.6376c-1.6078,0-3.2906,0.1875-4.9417,0.7365
		c-0.7749,0.2562-1.4529,0.5974-2.1213,0.9506C209.0266,198.4789,208.8366,197.3965,209.0898,196.2231z"/>
</g>
</svg>
