<?xml version="1.0" encoding="utf-8"?>
<!-- Generator: Adobe Illustrator 19.0.0, SVG Export Plug-In . SVG Version: 6.00 Build 0)  -->
<svg version="1.1" id="Layer_1" xmlns="http://www.w3.org/2000/svg" xmlns:xlink="http://www.w3.org/1999/xlink" x="0px" y="0px"
	 viewBox="0 0 234.6667 240.6667" enable-background="new 0 0 234.6667 240.6667" xml:space="preserve">
<g id="XMLID_924_">
	<g id="XMLID_980_">
		<g id="XMLID_1000_">
			<g id="XMLID_1001_">
				<defs>
					<path id="XMLID_1002_" d="M184.9256,149.8265c-7.686-6.7337-15.372-13.4672-23.058-20.2008
						c-17.8738-15.6589-35.7476-31.3178-53.6212-46.9767c-5.5251-4.8404-11.0501-9.6808-16.5752-14.5212
						c-3.4485-3.0212-6.897-6.0424-10.3455-9.0636c1.9968,20.4415,3.9936,40.8829,5.9904,61.3243
						c0.6932,7.0967,1.3865,14.1936,2.0798,21.2903c0.7801,7.9857,1.5602,15.9715,2.3402,23.9572
						c0.422,4.3204,0.844,8.6407,1.266,12.961c0.5714,5.8497,1.1429,11.6994,1.7143,17.5491
						c0.629,6.4385,0.5382,11.8737,2.2701,15.7686c1.6765,3.7701,5.0606,6.0972,12.4736,6.4815
						c12.5445,0.6503,25.5825-2.5324,37.6138-7.2834c3.4465-1.361,6.8109-2.8498,10.0568-4.4151
						c5.0986-2.7814,10.2149-5.9283,15.0846-9.4461c8.6991-6.2842,16.6078-13.7569,22.2009-22.4776
						C202.5638,162.0704,194.5016,158.2159,184.9256,149.8265z"/>
				</defs>
				<clipPath id="XMLID_1270_">
					<use xlink:href="#XMLID_1002_"  overflow="visible"/>
				</clipPath>
				<g id="XMLID_1238_" clip-path="url(#XMLID_1270_)">
					
						<rect id="XMLID_1242_" x="120.4476" y="21.8669" transform="matrix(-0.8896 0.4568 -0.4568 -0.8896 263.9659 2.4124)" fill="none" width="22.4875" height="22.4876"/>
					<polygon id="XMLID_1241_" fill="#85CBE6" points="141.8023,28.1865 136.5578,17.9726 116.5533,28.2443 121.7872,38.4375 
						127.5177,25.0137 					"/>
					<polygon id="XMLID_1240_" fill="#85CBE6" points="125.7701,46.1944 126.825,48.2488 146.8295,37.9772 145.7852,35.9435 
						131.5007,32.7708 					"/>
					<polygon id="XMLID_1239_" fill="#5CB8DB" points="127.5177,25.0137 121.7872,38.4375 125.7701,46.1944 131.5007,32.7708 
						145.7852,35.9435 141.8023,28.1865 					"/>
				</g>
				<g id="XMLID_1233_" clip-path="url(#XMLID_1270_)">
					
						<rect id="XMLID_1237_" x="130.7194" y="41.8715" transform="matrix(-0.8896 0.4568 -0.4568 -0.8896 292.5127 35.5209)" fill="none" width="22.4875" height="22.4876"/>
					<polygon id="XMLID_1236_" fill="#85CBE6" points="152.074,48.1911 146.8295,37.9772 126.825,48.2488 132.0589,58.4421 
						137.7894,45.0183 					"/>
					<polygon id="XMLID_1235_" fill="#85CBE6" points="136.0419,66.1991 137.0967,68.2534 157.1012,57.9818 156.0569,55.9481 
						141.7724,52.7754 					"/>
					<polygon id="XMLID_1234_" fill="#5CB8DB" points="137.7894,45.0183 132.0589,58.4421 136.0419,66.1991 141.7724,52.7754 
						156.0569,55.9481 152.074,48.1911 					"/>
				</g>
				<g id="XMLID_1228_" clip-path="url(#XMLID_1270_)">
					
						<rect id="XMLID_1232_" x="140.9911" y="61.8761" transform="matrix(-0.8896 0.4568 -0.4568 -0.8896 321.0596 68.6294)" fill="none" width="22.4875" height="22.4876"/>
					<polygon id="XMLID_1231_" fill="#85CBE6" points="162.3457,68.1957 157.1012,57.9818 137.0967,68.2534 142.3306,78.4467 
						148.0611,65.0229 					"/>
					<polygon id="XMLID_1230_" fill="#85CBE6" points="146.3136,86.2037 147.3685,88.258 167.3729,77.9864 166.3287,75.9527 
						152.0441,72.7799 					"/>
					<polygon id="XMLID_1229_" fill="#5CB8DB" points="148.0611,65.0229 142.3306,78.4467 146.3136,86.2037 152.0441,72.7799 
						166.3287,75.9527 162.3457,68.1957 					"/>
				</g>
				<g id="XMLID_1223_" clip-path="url(#XMLID_1270_)">
					
						<rect id="XMLID_1227_" x="151.2628" y="81.8807" transform="matrix(-0.8896 0.4568 -0.4568 -0.8896 349.6064 101.7379)" fill="none" width="22.4875" height="22.4876"/>
					<polygon id="XMLID_1226_" fill="#85CBE6" points="172.6174,88.2003 167.3729,77.9864 147.3685,88.258 152.6024,98.4513 
						158.3328,85.0274 					"/>
					<polygon id="XMLID_1225_" fill="#85CBE6" points="156.5853,106.2083 157.6402,108.2626 177.6447,97.991 176.6004,95.9573 
						162.3159,92.7845 					"/>
					<polygon id="XMLID_1224_" fill="#5CB8DB" points="158.3328,85.0274 152.6024,98.4513 156.5853,106.2083 162.3159,92.7845 
						176.6004,95.9573 172.6174,88.2003 					"/>
				</g>
				<g id="XMLID_1218_" clip-path="url(#XMLID_1270_)">
					
						<rect id="XMLID_1222_" x="161.5345" y="101.8853" transform="matrix(-0.8896 0.4568 -0.4568 -0.8896 378.1533 134.8465)" fill="none" width="22.4875" height="22.4876"/>
					<polygon id="XMLID_1221_" fill="#85CBE6" points="182.8892,108.2049 177.6447,97.991 157.6402,108.2626 162.8741,118.4559 
						168.6046,105.032 					"/>
					<polygon id="XMLID_1220_" fill="#85CBE6" points="166.8571,126.2129 167.9119,128.2672 187.9164,117.9956 186.8721,115.9618 
						172.5876,112.7891 					"/>
					<polygon id="XMLID_1219_" fill="#5CB8DB" points="168.6046,105.032 162.8741,118.4559 166.8571,126.2129 172.5876,112.7891 
						186.8721,115.9618 182.8892,108.2049 					"/>
				</g>
				<g id="XMLID_1213_" clip-path="url(#XMLID_1270_)">
					
						<rect id="XMLID_1217_" x="171.8063" y="121.8899" transform="matrix(-0.8896 0.4568 -0.4568 -0.8896 406.7001 167.955)" fill="none" width="22.4875" height="22.4876"/>
					<polygon id="XMLID_1216_" fill="#85CBE6" points="193.1609,128.2095 187.9164,117.9956 167.9119,128.2672 173.1458,138.4605 
						178.8763,125.0366 					"/>
					<polygon id="XMLID_1215_" fill="#85CBE6" points="177.1288,146.2175 178.1836,148.2719 198.1881,138.0002 197.1438,135.9664 
						182.8593,132.7938 					"/>
					<polygon id="XMLID_1214_" fill="#5CB8DB" points="178.8763,125.0366 173.1458,138.4605 177.1288,146.2175 182.8593,132.7938 
						197.1438,135.9664 193.1609,128.2095 					"/>
				</g>
				<g id="XMLID_1208_" clip-path="url(#XMLID_1270_)">
					
						<rect id="XMLID_1212_" x="182.078" y="141.8945" transform="matrix(-0.8896 0.4568 -0.4568 -0.8896 435.247 201.0635)" fill="none" width="22.4875" height="22.4876"/>
					<polygon id="XMLID_1211_" fill="#85CBE6" points="203.4326,148.2141 198.1881,138.0002 178.1836,148.2719 183.4176,158.4651 
						189.148,145.0412 					"/>
					<polygon id="XMLID_1210_" fill="#85CBE6" points="187.4005,166.222 188.4554,168.2765 208.4598,158.0048 207.4156,155.971 
						193.1311,152.7984 					"/>
					<polygon id="XMLID_1209_" fill="#5CB8DB" points="189.148,145.0412 183.4176,158.4651 187.4005,166.222 193.1311,152.7984 
						207.4156,155.971 203.4326,148.2141 					"/>
				</g>
				<g id="XMLID_1203_" clip-path="url(#XMLID_1270_)">
					
						<rect id="XMLID_1207_" x="192.3497" y="161.8991" transform="matrix(-0.8896 0.4568 -0.4568 -0.8896 463.7938 234.172)" fill="none" width="22.4875" height="22.4876"/>
					<polygon id="XMLID_1206_" fill="#85CBE6" points="213.7043,168.2187 208.4598,158.0048 188.4554,168.2765 193.6893,178.4697 
						199.4198,165.0459 					"/>
					<polygon id="XMLID_1205_" fill="#85CBE6" points="197.6722,186.2266 198.7271,188.281 218.7316,178.0094 217.6873,175.9756 
						203.4028,172.803 					"/>
					<polygon id="XMLID_1204_" fill="#5CB8DB" points="199.4198,165.0459 193.6893,178.4697 197.6722,186.2266 203.4028,172.803 
						217.6873,175.9756 213.7043,168.2187 					"/>
				</g>
				<g id="XMLID_1198_" clip-path="url(#XMLID_1270_)">
					
						<rect id="XMLID_1202_" x="100.4432" y="32.1386" transform="matrix(-0.8896 0.4568 -0.4568 -0.8896 230.8576 30.9591)" fill="none" width="22.4875" height="22.4876"/>
					<polygon id="XMLID_1201_" fill="#85CBE6" points="121.7978,38.4581 116.5533,28.2443 96.5488,38.5159 101.7827,48.7092 
						107.5132,35.2853 					"/>
					<polygon id="XMLID_1200_" fill="#85CBE6" points="105.7657,56.4661 106.8205,58.5205 126.825,48.2488 125.7807,46.2151 
						111.4962,43.0424 					"/>
					<polygon id="XMLID_1199_" fill="#5CB8DB" points="107.5132,35.2853 101.7827,48.7092 105.7657,56.4661 111.4962,43.0424 
						125.7807,46.2151 121.7978,38.4581 					"/>
				</g>
				<g id="XMLID_1193_" clip-path="url(#XMLID_1270_)">
					
						<rect id="XMLID_1197_" x="110.7149" y="52.1432" transform="matrix(-0.8896 0.4568 -0.4568 -0.8896 259.4044 64.0676)" fill="none" width="22.4875" height="22.4876"/>
					<polygon id="XMLID_1196_" fill="#85CBE6" points="132.0695,58.4627 126.825,48.2488 106.8205,58.5205 112.0545,68.7138 
						117.7849,55.2899 					"/>
					<polygon id="XMLID_1195_" fill="#85CBE6" points="116.0374,76.4707 117.0922,78.5251 137.0967,68.2534 136.0525,66.2197 
						121.768,63.047 					"/>
					<polygon id="XMLID_1194_" fill="#5CB8DB" points="117.7849,55.2899 112.0545,68.7138 116.0374,76.4707 121.768,63.047 
						136.0525,66.2197 132.0695,58.4627 					"/>
				</g>
				<g id="XMLID_1188_" clip-path="url(#XMLID_1270_)">
					
						<rect id="XMLID_1192_" x="120.9866" y="72.1478" transform="matrix(-0.8896 0.4568 -0.4568 -0.8896 287.9513 97.1761)" fill="none" width="22.4875" height="22.4876"/>
					<polygon id="XMLID_1191_" fill="#85CBE6" points="142.3412,78.4674 137.0967,68.2534 117.0922,78.5251 122.3262,88.7183 
						128.0567,75.2945 					"/>
					<polygon id="XMLID_1190_" fill="#85CBE6" points="126.3091,96.4753 127.364,98.5297 147.3685,88.258 146.3242,86.2243 
						132.0397,83.0516 					"/>
					<polygon id="XMLID_1189_" fill="#5CB8DB" points="128.0567,75.2945 122.3262,88.7183 126.3091,96.4753 132.0397,83.0516 
						146.3242,86.2243 142.3412,78.4674 					"/>
				</g>
				<g id="XMLID_1183_" clip-path="url(#XMLID_1270_)">
					
						<rect id="XMLID_1187_" x="131.2583" y="92.1524" transform="matrix(-0.8896 0.4568 -0.4568 -0.8896 316.4981 130.2846)" fill="none" width="22.4875" height="22.4876"/>
					<polygon id="XMLID_1186_" fill="#85CBE6" points="152.613,98.472 147.3685,88.258 127.364,98.5297 132.5979,108.7229 
						138.3284,95.2991 					"/>
					<polygon id="XMLID_1185_" fill="#85CBE6" points="136.5809,116.4799 137.6357,118.5343 157.6402,108.2626 156.5959,106.2289 
						142.3114,103.0562 					"/>
					<polygon id="XMLID_1184_" fill="#5CB8DB" points="138.3284,95.2991 132.5979,108.7229 136.5809,116.4799 142.3114,103.0562 
						156.5959,106.2289 152.613,98.472 					"/>
				</g>
				<g id="XMLID_1178_" clip-path="url(#XMLID_1270_)">
					
						<rect id="XMLID_1182_" x="141.5301" y="112.157" transform="matrix(-0.8896 0.4568 -0.4568 -0.8896 345.045 163.3931)" fill="none" width="22.4875" height="22.4876"/>
					<polygon id="XMLID_1181_" fill="#85CBE6" points="162.8847,118.4766 157.6402,108.2626 137.6357,118.5343 142.8696,128.7276 
						148.6001,115.3037 					"/>
					<polygon id="XMLID_1180_" fill="#85CBE6" points="146.8526,136.4845 147.9074,138.5389 167.9119,128.2672 166.8676,126.2335 
						152.5831,123.0608 					"/>
					<polygon id="XMLID_1179_" fill="#5CB8DB" points="148.6001,115.3037 142.8696,128.7276 146.8526,136.4845 152.5831,123.0608 
						166.8676,126.2335 162.8847,118.4766 					"/>
				</g>
				<g id="XMLID_1173_" clip-path="url(#XMLID_1270_)">
					
						<rect id="XMLID_1177_" x="151.8018" y="132.1616" transform="matrix(-0.8896 0.4568 -0.4568 -0.8896 373.5918 196.5016)" fill="none" width="22.4875" height="22.4876"/>
					<polygon id="XMLID_1176_" fill="#85CBE6" points="173.1564,138.4812 167.9119,128.2672 147.9074,138.5389 153.1414,148.7322 
						158.8718,135.3083 					"/>
					<polygon id="XMLID_1175_" fill="#85CBE6" points="157.1243,156.4891 158.1792,158.5435 178.1836,148.2719 177.1394,146.2381 
						162.8549,143.0654 					"/>
					<polygon id="XMLID_1174_" fill="#5CB8DB" points="158.8718,135.3083 153.1414,148.7322 157.1243,156.4891 162.8549,143.0654 
						177.1394,146.2381 173.1564,138.4812 					"/>
				</g>
				<g id="XMLID_1168_" clip-path="url(#XMLID_1270_)">
					
						<rect id="XMLID_1172_" x="162.0735" y="152.1662" transform="matrix(-0.8896 0.4568 -0.4568 -0.8896 402.1387 229.6102)" fill="none" width="22.4875" height="22.4876"/>
					<polygon id="XMLID_1171_" fill="#85CBE6" points="183.4282,158.4858 178.1836,148.2719 158.1792,158.5435 163.4131,168.7368 
						169.1436,155.3129 					"/>
					<polygon id="XMLID_1170_" fill="#85CBE6" points="167.396,176.4937 168.4509,178.5481 188.4554,168.2765 187.4111,166.2427 
						173.1266,163.07 					"/>
					<polygon id="XMLID_1169_" fill="#5CB8DB" points="169.1436,155.3129 163.4131,168.7368 167.396,176.4937 173.1266,163.07 
						187.4111,166.2427 183.4282,158.4858 					"/>
				</g>
				<g id="XMLID_1163_" clip-path="url(#XMLID_1270_)">
					
						<rect id="XMLID_1167_" x="172.3453" y="172.1708" transform="matrix(-0.8896 0.4568 -0.4568 -0.8896 430.6855 262.7187)" fill="none" width="22.4875" height="22.4876"/>
					<polygon id="XMLID_1166_" fill="#85CBE6" points="193.6999,178.4903 188.4554,168.2765 168.4509,178.5481 173.6848,188.7414 
						179.4153,175.3175 					"/>
					<polygon id="XMLID_1165_" fill="#85CBE6" points="177.6678,196.4983 178.7226,198.5527 198.7271,188.281 197.6828,186.2473 
						183.3983,183.0746 					"/>
					<polygon id="XMLID_1164_" fill="#5CB8DB" points="179.4153,175.3175 173.6848,188.7414 177.6678,196.4983 183.3983,183.0746 
						197.6828,186.2473 193.6999,178.4903 					"/>
				</g>
				<g id="XMLID_1158_" clip-path="url(#XMLID_1270_)">
					
						<rect id="XMLID_1162_" x="80.4387" y="42.4102" transform="matrix(-0.8896 0.4568 -0.4568 -0.8896 197.7493 59.5057)" fill="none" width="22.4874" height="22.4876"/>
					<polygon id="XMLID_1161_" fill="#85CBE6" points="101.7933,48.7298 96.5488,38.5159 76.5444,48.7876 81.7783,58.9808 
						87.5088,45.557 					"/>
					<polygon id="XMLID_1160_" fill="#85CBE6" points="85.7612,66.7377 86.8161,68.7921 106.8205,58.5205 105.7763,56.4868 
						91.4918,53.3141 					"/>
					<polygon id="XMLID_1159_" fill="#5CB8DB" points="87.5088,45.557 81.7783,58.9808 85.7612,66.7377 91.4918,53.3141 
						105.7763,56.4868 101.7933,48.7298 					"/>
				</g>
				<g id="XMLID_1153_" clip-path="url(#XMLID_1270_)">
					
						<rect id="XMLID_1157_" x="90.7105" y="62.4148" transform="matrix(-0.8896 0.4568 -0.4568 -0.8896 226.2962 92.6142)" fill="none" width="22.4874" height="22.4876"/>
					<polygon id="XMLID_1156_" fill="#85CBE6" points="112.065,68.7344 106.8205,58.5205 86.8161,68.7921 92.05,78.9854 
						97.7805,65.5616 					"/>
					<polygon id="XMLID_1155_" fill="#85CBE6" points="96.033,86.7423 97.0878,88.7967 117.0922,78.5251 116.048,76.4914 
						101.7635,73.3187 					"/>
					<polygon id="XMLID_1154_" fill="#5CB8DB" points="97.7805,65.5616 92.05,78.9854 96.033,86.7423 101.7635,73.3187 
						116.048,76.4914 112.065,68.7344 					"/>
				</g>
				<g id="XMLID_1148_" clip-path="url(#XMLID_1270_)">
					
						<rect id="XMLID_1152_" x="100.9822" y="82.4194" transform="matrix(-0.8896 0.4568 -0.4568 -0.8896 254.843 125.7227)" fill="none" width="22.4874" height="22.4876"/>
					<polygon id="XMLID_1151_" fill="#85CBE6" points="122.3368,88.739 117.0922,78.5251 97.0878,88.7967 102.3217,98.99 
						108.0522,85.5662 					"/>
					<polygon id="XMLID_1150_" fill="#85CBE6" points="106.3047,106.747 107.3596,108.8013 127.364,98.5297 126.3197,96.496 
						112.0352,93.3232 					"/>
					<polygon id="XMLID_1149_" fill="#5CB8DB" points="108.0522,85.5662 102.3217,98.99 106.3047,106.747 112.0352,93.3232 
						126.3197,96.496 122.3368,88.739 					"/>
				</g>
				<g id="XMLID_1143_" clip-path="url(#XMLID_1270_)">
					
						<rect id="XMLID_1147_" x="111.2539" y="102.424" transform="matrix(-0.8896 0.4568 -0.4568 -0.8896 283.3899 158.8312)" fill="none" width="22.4874" height="22.4876"/>
					<polygon id="XMLID_1146_" fill="#85CBE6" points="132.6085,108.7436 127.364,98.5297 107.3596,108.8013 112.5935,118.9946 
						118.3239,105.5707 					"/>
					<polygon id="XMLID_1145_" fill="#85CBE6" points="116.5764,126.7516 117.6313,128.8059 137.6357,118.5343 136.5915,116.5006 
						122.307,113.3278 					"/>
					<polygon id="XMLID_1144_" fill="#5CB8DB" points="118.3239,105.5707 112.5935,118.9946 116.5764,126.7516 122.307,113.3278 
						136.5915,116.5006 132.6085,108.7436 					"/>
				</g>
				<g id="XMLID_1138_" clip-path="url(#XMLID_1270_)">
					
						<rect id="XMLID_1142_" x="121.5257" y="122.4286" transform="matrix(-0.8896 0.4568 -0.4568 -0.8896 311.9367 191.9397)" fill="none" width="22.4874" height="22.4876"/>
					<polygon id="XMLID_1141_" fill="#85CBE6" points="142.8802,128.7482 137.6357,118.5343 117.6313,128.8059 122.8652,138.9992 
						128.5957,125.5753 					"/>
					<polygon id="XMLID_1140_" fill="#85CBE6" points="126.8482,146.7562 127.903,148.8105 147.9074,138.5389 146.8632,136.5052 
						132.5787,133.3324 					"/>
					<polygon id="XMLID_1139_" fill="#5CB8DB" points="128.5957,125.5753 122.8652,138.9992 126.8482,146.7562 132.5787,133.3324 
						146.8632,136.5052 142.8802,128.7482 					"/>
				</g>
				<g id="XMLID_1133_" clip-path="url(#XMLID_1270_)">
					
						<rect id="XMLID_1137_" x="131.7974" y="142.4332" transform="matrix(-0.8896 0.4568 -0.4568 -0.8896 340.4836 225.0483)" fill="none" width="22.4874" height="22.4876"/>
					<polygon id="XMLID_1136_" fill="#85CBE6" points="153.152,148.7528 147.9074,138.5389 127.903,148.8105 133.1369,159.0038 
						138.8674,145.5799 					"/>
					<polygon id="XMLID_1135_" fill="#85CBE6" points="137.1199,166.7608 138.1747,168.8152 158.1792,158.5435 157.1349,156.5098 
						142.8504,153.3371 					"/>
					<polygon id="XMLID_1134_" fill="#5CB8DB" points="138.8674,145.5799 133.1369,159.0038 137.1199,166.7608 142.8504,153.3371 
						157.1349,156.5098 153.152,148.7528 					"/>
				</g>
				<g id="XMLID_1128_" clip-path="url(#XMLID_1270_)">
					
						<rect id="XMLID_1132_" x="142.0691" y="162.4378" transform="matrix(-0.8896 0.4568 -0.4568 -0.8896 369.0304 258.1568)" fill="none" width="22.4874" height="22.4876"/>
					<polygon id="XMLID_1131_" fill="#85CBE6" points="163.4237,168.7574 158.1792,158.5435 138.1747,168.8152 143.4087,179.0084 
						149.1391,165.5845 					"/>
					<polygon id="XMLID_1130_" fill="#85CBE6" points="147.3916,186.7653 148.4465,188.8198 168.4509,178.5481 167.4066,176.5144 
						153.1222,173.3417 					"/>
					<polygon id="XMLID_1129_" fill="#5CB8DB" points="149.1391,165.5845 143.4087,179.0084 147.3916,186.7653 153.1222,173.3417 
						167.4066,176.5144 163.4237,168.7574 					"/>
				</g>
				<g id="XMLID_1123_" clip-path="url(#XMLID_1270_)">
					
						<rect id="XMLID_1127_" x="152.3408" y="182.4424" transform="matrix(-0.8896 0.4568 -0.4568 -0.8896 397.5772 291.2653)" fill="none" width="22.4874" height="22.4876"/>
					<polygon id="XMLID_1126_" fill="#85CBE6" points="173.6954,188.762 168.4509,178.5481 148.4465,188.8198 153.6804,199.013 
						159.4109,185.5892 					"/>
					<polygon id="XMLID_1125_" fill="#85CBE6" points="157.6633,206.7699 158.7182,208.8243 178.7226,198.5527 177.6784,196.519 
						163.3939,193.3463 					"/>
					<polygon id="XMLID_1124_" fill="#5CB8DB" points="159.4109,185.5892 153.6804,199.013 157.6633,206.7699 163.3939,193.3463 
						177.6784,196.519 173.6954,188.762 					"/>
				</g>
				<g id="XMLID_1118_" clip-path="url(#XMLID_1270_)">
					
						<rect id="XMLID_1122_" x="60.4343" y="52.6819" transform="matrix(-0.8896 0.4568 -0.4568 -0.8896 164.6411 88.0523)" fill="none" width="22.4875" height="22.4876"/>
					<polygon id="XMLID_1121_" fill="#85CBE6" points="81.7889,59.0014 76.5444,48.7876 56.5399,59.0592 61.7738,69.2525 
						67.5043,55.8286 					"/>
					<polygon id="XMLID_1120_" fill="#85CBE6" points="65.7568,77.0094 66.8116,79.0638 86.8161,68.7921 85.7719,66.7584 
						71.4873,63.5857 					"/>
					<polygon id="XMLID_1119_" fill="#5CB8DB" points="67.5043,55.8286 61.7738,69.2525 65.7568,77.0094 71.4873,63.5857 
						85.7719,66.7584 81.7889,59.0014 					"/>
				</g>
				<g id="XMLID_1113_" clip-path="url(#XMLID_1270_)">
					
						<rect id="XMLID_1117_" x="70.706" y="72.6864" transform="matrix(-0.8896 0.4568 -0.4568 -0.8896 193.1879 121.1608)" fill="none" width="22.4875" height="22.4876"/>
					<polygon id="XMLID_1116_" fill="#85CBE6" points="92.0606,79.006 86.8161,68.7921 66.8116,79.0638 72.0456,89.2571 
						77.776,75.8332 					"/>
					<polygon id="XMLID_1115_" fill="#85CBE6" points="76.0285,97.014 77.0834,99.0684 97.0878,88.7967 96.0436,86.763 
						81.7591,83.5903 					"/>
					<polygon id="XMLID_1114_" fill="#5CB8DB" points="77.776,75.8332 72.0456,89.2571 76.0285,97.014 81.7591,83.5903 
						96.0436,86.763 92.0606,79.006 					"/>
				</g>
				<g id="XMLID_1108_" clip-path="url(#XMLID_1270_)">
					
						<rect id="XMLID_1112_" x="80.9777" y="92.6911" transform="matrix(-0.8896 0.4568 -0.4568 -0.8896 221.7347 154.2693)" fill="none" width="22.4875" height="22.4876"/>
					<polygon id="XMLID_1111_" fill="#85CBE6" points="102.3324,99.0107 97.0878,88.7967 77.0834,99.0684 82.3173,109.2616 
						88.0478,95.8378 					"/>
					<polygon id="XMLID_1110_" fill="#85CBE6" points="86.3002,117.0186 87.3551,119.073 107.3596,108.8013 106.3153,106.7676 
						92.0308,103.5949 					"/>
					<polygon id="XMLID_1109_" fill="#5CB8DB" points="88.0478,95.8378 82.3173,109.2616 86.3002,117.0186 92.0308,103.5949 
						106.3153,106.7676 102.3324,99.0107 					"/>
				</g>
				<g id="XMLID_1103_" clip-path="url(#XMLID_1270_)">
					
						<rect id="XMLID_1107_" x="91.2495" y="112.6957" transform="matrix(-0.8896 0.4568 -0.4568 -0.8896 250.2816 187.3779)" fill="none" width="22.4875" height="22.4876"/>
					<polygon id="XMLID_1106_" fill="#85CBE6" points="112.6041,119.0153 107.3596,108.8013 87.3551,119.073 92.589,129.2663 
						98.3195,115.8424 					"/>
					<polygon id="XMLID_1105_" fill="#85CBE6" points="96.572,137.0232 97.6268,139.0776 117.6313,128.8059 116.587,126.7722 
						102.3025,123.5995 					"/>
					<polygon id="XMLID_1104_" fill="#5CB8DB" points="98.3195,115.8424 92.589,129.2663 96.572,137.0232 102.3025,123.5995 
						116.587,126.7722 112.6041,119.0153 					"/>
				</g>
				<g id="XMLID_1098_" clip-path="url(#XMLID_1270_)">
					
						<rect id="XMLID_1102_" x="101.5212" y="132.7003" transform="matrix(-0.8896 0.4568 -0.4568 -0.8896 278.8285 220.4864)" fill="none" width="22.4875" height="22.4876"/>
					<polygon id="XMLID_1101_" fill="#85CBE6" points="122.8758,139.0199 117.6313,128.8059 97.6268,139.0776 102.8607,149.2709 
						108.5912,135.847 					"/>
					<polygon id="XMLID_1100_" fill="#85CBE6" points="106.8437,157.0278 107.8985,159.0822 127.903,148.8105 126.8587,146.7768 
						112.5742,143.6041 					"/>
					<polygon id="XMLID_1099_" fill="#5CB8DB" points="108.5912,135.847 102.8607,149.2709 106.8437,157.0278 112.5742,143.6041 
						126.8587,146.7768 122.8758,139.0199 					"/>
				</g>
				<g id="XMLID_1093_" clip-path="url(#XMLID_1270_)">
					
						<rect id="XMLID_1097_" x="111.7929" y="152.7049" transform="matrix(-0.8896 0.4568 -0.4568 -0.8896 307.3753 253.5949)" fill="none" width="22.4875" height="22.4876"/>
					<polygon id="XMLID_1096_" fill="#85CBE6" points="133.1475,159.0245 127.903,148.8105 107.8985,159.0822 113.1325,169.2755 
						118.8629,155.8516 					"/>
					<polygon id="XMLID_1095_" fill="#85CBE6" points="117.1154,177.0324 118.1703,179.0868 138.1747,168.8152 137.1305,166.7814 
						122.846,163.6087 					"/>
					<polygon id="XMLID_1094_" fill="#5CB8DB" points="118.8629,155.8516 113.1325,169.2755 117.1154,177.0324 122.846,163.6087 
						137.1305,166.7814 133.1475,159.0245 					"/>
				</g>
				<g id="XMLID_1088_" clip-path="url(#XMLID_1270_)">
					
						<rect id="XMLID_1092_" x="122.0646" y="172.7095" transform="matrix(-0.8896 0.4568 -0.4568 -0.8896 335.9221 286.7034)" fill="none" width="22.4875" height="22.4876"/>
					<polygon id="XMLID_1091_" fill="#85CBE6" points="143.4193,179.0291 138.1747,168.8152 118.1703,179.0868 123.4042,189.2801 
						129.1347,175.8562 					"/>
					<polygon id="XMLID_1090_" fill="#85CBE6" points="127.3871,197.037 128.442,199.0914 148.4465,188.8198 147.4022,186.786 
						133.1177,183.6133 					"/>
					<polygon id="XMLID_1089_" fill="#5CB8DB" points="129.1347,175.8562 123.4042,189.2801 127.3871,197.037 133.1177,183.6133 
						147.4022,186.786 143.4193,179.0291 					"/>
				</g>
				<g id="XMLID_1083_" clip-path="url(#XMLID_1270_)">
					
						<rect id="XMLID_1087_" x="132.3364" y="192.7141" transform="matrix(-0.8896 0.4568 -0.4568 -0.8896 364.469 319.8119)" fill="none" width="22.4875" height="22.4876"/>
					<polygon id="XMLID_1086_" fill="#85CBE6" points="153.691,199.0336 148.4465,188.8198 128.442,199.0914 133.6759,209.2847 
						139.4064,195.8608 					"/>
					<polygon id="XMLID_1085_" fill="#85CBE6" points="137.6589,217.0416 138.7137,219.096 158.7182,208.8243 157.6739,206.7906 
						143.3894,203.6179 					"/>
					<polygon id="XMLID_1084_" fill="#5CB8DB" points="139.4064,195.8608 133.6759,209.2847 137.6589,217.0416 143.3894,203.6179 
						157.6739,206.7906 153.691,199.0336 					"/>
				</g>
				<g id="XMLID_1078_" clip-path="url(#XMLID_1270_)">
					
						<rect id="XMLID_1082_" x="40.4299" y="62.9535" transform="matrix(-0.8896 0.4568 -0.4568 -0.8896 131.5328 116.5989)" fill="none" width="22.4874" height="22.4876"/>
					<polygon id="XMLID_1081_" fill="#85CBE6" points="61.7844,69.2731 56.5399,59.0592 36.5355,69.3309 41.7694,79.5241 
						47.4998,66.1003 					"/>
					<polygon id="XMLID_1080_" fill="#85CBE6" points="45.7523,87.281 46.8072,89.3354 66.8116,79.0638 65.7674,77.0301 
						51.4829,73.8574 					"/>
					<polygon id="XMLID_1079_" fill="#5CB8DB" points="47.4998,66.1003 41.7694,79.5241 45.7523,87.281 51.4829,73.8574 
						65.7674,77.0301 61.7844,69.2731 					"/>
				</g>
				<g id="XMLID_1073_" clip-path="url(#XMLID_1270_)">
					
						<rect id="XMLID_1077_" x="50.7016" y="82.9581" transform="matrix(-0.8896 0.4568 -0.4568 -0.8896 160.0796 149.7074)" fill="none" width="22.4874" height="22.4876"/>
					<polygon id="XMLID_1076_" fill="#85CBE6" points="72.0561,89.2777 66.8116,79.0638 46.8072,89.3354 52.0411,99.5287 
						57.7716,86.1049 					"/>
					<polygon id="XMLID_1075_" fill="#85CBE6" points="56.0241,107.2856 57.0789,109.34 77.0834,99.0684 76.0391,97.0347 
						61.7546,93.862 					"/>
					<polygon id="XMLID_1074_" fill="#5CB8DB" points="57.7716,86.1049 52.0411,99.5287 56.0241,107.2856 61.7546,93.862 
						76.0391,97.0347 72.0561,89.2777 					"/>
				</g>
				<g id="XMLID_1068_" clip-path="url(#XMLID_1270_)">
					
						<rect id="XMLID_1072_" x="60.9733" y="102.9627" transform="matrix(-0.8896 0.4568 -0.4568 -0.8896 188.6265 182.8159)" fill="none" width="22.4874" height="22.4876"/>
					<polygon id="XMLID_1071_" fill="#85CBE6" points="82.3279,109.2823 77.0834,99.0684 57.0789,109.34 62.3128,119.5333 
						68.0433,106.1095 					"/>
					<polygon id="XMLID_1070_" fill="#85CBE6" points="66.2958,127.2903 67.3507,129.3446 87.3551,119.073 86.3108,117.0393 
						72.0263,113.8666 					"/>
					<polygon id="XMLID_1069_" fill="#5CB8DB" points="68.0433,106.1095 62.3128,119.5333 66.2958,127.2903 72.0263,113.8666 
						86.3108,117.0393 82.3279,109.2823 					"/>
				</g>
				<g id="XMLID_1063_" clip-path="url(#XMLID_1270_)">
					
						<rect id="XMLID_1067_" x="71.245" y="122.9673" transform="matrix(-0.8896 0.4568 -0.4568 -0.8896 217.1733 215.9245)" fill="none" width="22.4874" height="22.4876"/>
					<polygon id="XMLID_1066_" fill="#85CBE6" points="92.5996,129.2869 87.3551,119.073 67.3507,129.3446 72.5846,139.5379 
						78.315,126.1141 					"/>
					<polygon id="XMLID_1065_" fill="#85CBE6" points="76.5675,147.2949 77.6224,149.3492 97.6268,139.0776 96.5826,137.0439 
						82.298,133.8712 					"/>
					<polygon id="XMLID_1064_" fill="#5CB8DB" points="78.315,126.1141 72.5846,139.5379 76.5675,147.2949 82.298,133.8712 
						96.5826,137.0439 92.5996,129.2869 					"/>
				</g>
				<g id="XMLID_1058_" clip-path="url(#XMLID_1270_)">
					
						<rect id="XMLID_1062_" x="81.5168" y="142.9719" transform="matrix(-0.8896 0.4568 -0.4568 -0.8896 245.7202 249.033)" fill="none" width="22.4874" height="22.4876"/>
					<polygon id="XMLID_1061_" fill="#85CBE6" points="102.8713,149.2915 97.6268,139.0776 77.6224,149.3492 82.8563,159.5425 
						88.5867,146.1187 					"/>
					<polygon id="XMLID_1060_" fill="#85CBE6" points="86.8393,167.2995 87.8941,169.3539 107.8985,159.0822 106.8543,157.0484 
						92.5698,153.8758 					"/>
					<polygon id="XMLID_1059_" fill="#5CB8DB" points="88.5867,146.1187 82.8563,159.5425 86.8393,167.2995 92.5698,153.8758 
						106.8543,157.0484 102.8713,149.2915 					"/>
				</g>
				<g id="XMLID_1053_" clip-path="url(#XMLID_1270_)">
					
						<rect id="XMLID_1057_" x="91.7885" y="162.9765" transform="matrix(-0.8896 0.4568 -0.4568 -0.8896 274.267 282.1415)" fill="none" width="22.4874" height="22.4876"/>
					<polygon id="XMLID_1056_" fill="#85CBE6" points="113.1431,169.2961 107.8985,159.0822 87.8941,169.3539 93.128,179.5471 
						98.8585,166.1233 					"/>
					<polygon id="XMLID_1055_" fill="#85CBE6" points="97.111,187.3041 98.1658,189.3584 118.1703,179.0868 117.126,177.0531 
						102.8415,173.8804 					"/>
					<polygon id="XMLID_1054_" fill="#5CB8DB" points="98.8585,166.1233 93.128,179.5471 97.111,187.3041 102.8415,173.8804 
						117.126,177.0531 113.1431,169.2961 					"/>
				</g>
				<g id="XMLID_1048_" clip-path="url(#XMLID_1270_)">
					
						<rect id="XMLID_1052_" x="102.0602" y="182.9811" transform="matrix(-0.8896 0.4568 -0.4568 -0.8896 302.8139 315.2501)" fill="none" width="22.4874" height="22.4876"/>
					<polygon id="XMLID_1051_" fill="#85CBE6" points="123.4148,189.3007 118.1703,179.0868 98.1658,189.3584 103.3998,199.5517 
						109.1302,186.1279 					"/>
					<polygon id="XMLID_1050_" fill="#85CBE6" points="107.3827,207.3086 108.4376,209.3631 128.442,199.0914 127.3977,197.0577 
						113.1132,193.885 					"/>
					<polygon id="XMLID_1049_" fill="#5CB8DB" points="109.1302,186.1279 103.3998,199.5517 107.3827,207.3086 113.1132,193.885 
						127.3977,197.0577 123.4148,189.3007 					"/>
				</g>
				<g id="XMLID_1043_" clip-path="url(#XMLID_1270_)">
					
						<rect id="XMLID_1047_" x="112.3319" y="202.9857" transform="matrix(-0.8896 0.4568 -0.4568 -0.8896 331.3607 348.3585)" fill="none" width="22.4874" height="22.4876"/>
					<polygon id="XMLID_1046_" fill="#85CBE6" points="133.6865,209.3053 128.442,199.0914 108.4376,209.3631 113.6715,219.5563 
						119.4019,206.1325 					"/>
					<polygon id="XMLID_1045_" fill="#85CBE6" points="117.6544,227.3132 118.7093,229.3676 138.7137,219.096 137.6695,217.0623 
						123.3849,213.8896 					"/>
					<polygon id="XMLID_1044_" fill="#5CB8DB" points="119.4019,206.1325 113.6715,219.5563 117.6544,227.3132 123.3849,213.8896 
						137.6695,217.0623 133.6865,209.3053 					"/>
				</g>
				<g id="XMLID_1038_" clip-path="url(#XMLID_1270_)">
					
						<rect id="XMLID_1042_" x="20.4254" y="73.2252" transform="matrix(-0.8896 0.4568 -0.4568 -0.8896 98.4245 145.1456)" fill="none" width="22.4875" height="22.4876"/>
					<polygon id="XMLID_1041_" fill="#85CBE6" points="41.78,79.5447 36.5355,69.3309 16.531,79.6025 21.7649,89.7958 
						27.4954,76.3719 					"/>
					<polygon id="XMLID_1040_" fill="#85CBE6" points="25.7479,97.5527 26.8027,99.6071 46.8072,89.3354 45.763,87.3017 
						31.4784,84.129 					"/>
					<polygon id="XMLID_1039_" fill="#5CB8DB" points="27.4954,76.3719 21.7649,89.7958 25.7479,97.5527 31.4784,84.129 
						45.763,87.3017 41.78,79.5447 					"/>
				</g>
				<g id="XMLID_1033_" clip-path="url(#XMLID_1270_)">
					
						<rect id="XMLID_1037_" x="30.6971" y="93.2297" transform="matrix(-0.8896 0.4568 -0.4568 -0.8896 126.9714 178.2541)" fill="none" width="22.4875" height="22.4876"/>
					<polygon id="XMLID_1036_" fill="#85CBE6" points="52.0517,99.5493 46.8072,89.3354 26.8027,99.6071 32.0367,109.8004 
						37.7671,96.3765 					"/>
					<polygon id="XMLID_1035_" fill="#85CBE6" points="36.0196,117.5573 37.0745,119.6117 57.0789,109.34 56.0347,107.3063 
						41.7502,104.1336 					"/>
					<polygon id="XMLID_1034_" fill="#5CB8DB" points="37.7671,96.3765 32.0367,109.8004 36.0196,117.5573 41.7502,104.1336 
						56.0347,107.3063 52.0517,99.5493 					"/>
				</g>
				<g id="XMLID_1028_" clip-path="url(#XMLID_1270_)">
					
						<rect id="XMLID_1032_" x="40.9688" y="113.2344" transform="matrix(-0.8896 0.4568 -0.4568 -0.8896 155.5182 211.3626)" fill="none" width="22.4875" height="22.4876"/>
					<polygon id="XMLID_1031_" fill="#85CBE6" points="62.3235,119.5539 57.0789,109.34 37.0745,119.6117 42.3084,129.8049 
						48.0389,116.3811 					"/>
					<polygon id="XMLID_1030_" fill="#85CBE6" points="46.2913,137.5619 47.3462,139.6163 67.3507,129.3446 66.3064,127.3109 
						52.0219,124.1382 					"/>
					<polygon id="XMLID_1029_" fill="#5CB8DB" points="48.0389,116.3811 42.3084,129.8049 46.2913,137.5619 52.0219,124.1382 
						66.3064,127.3109 62.3235,119.5539 					"/>
				</g>
				<g id="XMLID_1023_" clip-path="url(#XMLID_1270_)">
					
						<rect id="XMLID_1027_" x="51.2406" y="133.239" transform="matrix(-0.8896 0.4568 -0.4568 -0.8896 184.0651 244.4711)" fill="none" width="22.4875" height="22.4876"/>
					<polygon id="XMLID_1026_" fill="#85CBE6" points="72.5952,139.5586 67.3507,129.3446 47.3462,139.6163 52.5801,149.8095 
						58.3106,136.3857 					"/>
					<polygon id="XMLID_1025_" fill="#85CBE6" points="56.5631,157.5665 57.6179,159.6209 77.6224,149.3492 76.5781,147.3155 
						62.2936,144.1428 					"/>
					<polygon id="XMLID_1024_" fill="#5CB8DB" points="58.3106,136.3857 52.5801,149.8095 56.5631,157.5665 62.2936,144.1428 
						76.5781,147.3155 72.5952,139.5586 					"/>
				</g>
				<g id="XMLID_1018_" clip-path="url(#XMLID_1270_)">
					
						<rect id="XMLID_1022_" x="61.5123" y="153.2436" transform="matrix(-0.8896 0.4568 -0.4568 -0.8896 212.6119 277.5796)" fill="none" width="22.4875" height="22.4876"/>
					<polygon id="XMLID_1021_" fill="#85CBE6" points="82.8669,159.5632 77.6224,149.3492 57.6179,159.6209 62.8518,169.8141 
						68.5823,156.3903 					"/>
					<polygon id="XMLID_1020_" fill="#85CBE6" points="66.8348,177.5711 67.8896,179.6255 87.8941,169.3539 86.8499,167.3201 
						72.5653,164.1474 					"/>
					<polygon id="XMLID_1019_" fill="#5CB8DB" points="68.5823,156.3903 62.8518,169.8141 66.8348,177.5711 72.5653,164.1474 
						86.8499,167.3201 82.8669,159.5632 					"/>
				</g>
				<g id="XMLID_1013_" clip-path="url(#XMLID_1270_)">
					
						<rect id="XMLID_1017_" x="71.784" y="173.2482" transform="matrix(-0.8896 0.4568 -0.4568 -0.8896 241.1588 310.6881)" fill="none" width="22.4875" height="22.4876"/>
					<polygon id="XMLID_1016_" fill="#85CBE6" points="93.1386,179.5678 87.8941,169.3539 67.8896,179.6255 73.1236,189.8188 
						78.854,176.3949 					"/>
					<polygon id="XMLID_1015_" fill="#85CBE6" points="77.1065,197.5757 78.1614,199.6301 98.1658,189.3584 97.1216,187.3247 
						82.8371,184.152 					"/>
					<polygon id="XMLID_1014_" fill="#5CB8DB" points="78.854,176.3949 73.1236,189.8188 77.1065,197.5757 82.8371,184.152 
						97.1216,187.3247 93.1386,179.5678 					"/>
				</g>
				<g id="XMLID_1008_" clip-path="url(#XMLID_1270_)">
					
						<rect id="XMLID_1012_" x="82.0557" y="193.2528" transform="matrix(-0.8896 0.4568 -0.4568 -0.8896 269.7056 343.7967)" fill="none" width="22.4875" height="22.4876"/>
					<polygon id="XMLID_1011_" fill="#85CBE6" points="103.4104,199.5724 98.1658,189.3584 78.1614,199.6301 83.3953,209.8234 
						89.1258,196.3995 					"/>
					<polygon id="XMLID_1010_" fill="#85CBE6" points="87.3782,217.5803 88.4331,219.6347 108.4376,209.3631 107.3933,207.3293 
						93.1088,204.1566 					"/>
					<polygon id="XMLID_1009_" fill="#5CB8DB" points="89.1258,196.3995 83.3953,209.8234 87.3782,217.5803 93.1088,204.1566 
						107.3933,207.3293 103.4104,199.5724 					"/>
				</g>
				<g id="XMLID_1003_" clip-path="url(#XMLID_1270_)">
					
						<rect id="XMLID_1007_" x="92.3275" y="213.2574" transform="matrix(-0.8896 0.4568 -0.4568 -0.8896 298.2524 376.9052)" fill="none" width="22.4875" height="22.4876"/>
					<polygon id="XMLID_1006_" fill="#85CBE6" points="113.6821,219.5769 108.4376,209.3631 88.4331,219.6347 93.667,229.828 
						99.3975,216.4041 					"/>
					<polygon id="XMLID_1005_" fill="#85CBE6" points="97.65,237.5849 98.7048,239.6393 118.7093,229.3676 117.665,227.3339 
						103.3805,224.1612 					"/>
					<polygon id="XMLID_1004_" fill="#5CB8DB" points="99.3975,216.4041 93.667,229.828 97.65,237.5849 103.3805,224.1612 
						117.665,227.3339 113.6821,219.5769 					"/>
				</g>
			</g>
		</g>
		<g id="XMLID_981_">
			<g id="XMLID_997_">
				<g id="XMLID_998_">
					<path id="XMLID_999_" fill="#FF6B6B" d="M81.4928,58.7772c0,0,13.4135-10.0763,12.0277-21.7937
						c0,0,1.9518,2.1841,2.2152,6.0371c0,0,1.6666-1.6086,2.1531-4.3686C97.8887,38.652,101.4528,48.5871,81.4928,58.7772z"/>
				</g>
			</g>
			<g id="XMLID_994_">
				<g id="XMLID_995_">
					<path id="XMLID_996_" fill="#FFA100" d="M81.4655,59.3309c0,0,6.472-15.4779-0.6516-24.8839c0,0,2.7885,0.8964,4.9652,4.0867
						c0,0,0.6237-2.2308-0.3532-4.8576C85.4259,33.6762,93.5267,40.4427,81.4655,59.3309z"/>
				</g>
			</g>
			<g id="XMLID_991_">
				<g id="XMLID_992_">
					<path id="XMLID_993_" fill="#ADBF3D" d="M81.4073,58.7707c0,0-15.601,6.1692-17.3641,17.8358c0,0-1.3045-2.6225-0.5394-6.4081
						c0,0-2.0327,1.1105-3.2318,3.6435C60.272,73.8419,59.463,63.318,81.4073,58.7707z"/>
				</g>
			</g>
			<g id="XMLID_988_">
				<g id="XMLID_989_">
					<path id="XMLID_990_" fill="#994B79" d="M81.9976,60.756c0,0-3.0226-21.6172-17.2349-27.4201c0,0,3.7157-0.8463,8.2682,1.2807
						c0,0-0.7816-2.9105-3.6173-5.2027C69.4135,29.4139,82.9689,31.6144,81.9976,60.756z"/>
				</g>
			</g>
			<g id="XMLID_985_">
				<g id="XMLID_986_">
					<path id="XMLID_987_" fill="#FF7F95" d="M81.6083,58.7181c0,0-20.8013-6.6141-32.1752,3.6958c0,0,0.8422-3.7167,4.7274-6.9033
						c0,0-2.9625-0.5528-6.2549,1.0143C47.9055,56.525,55.7468,45.2509,81.6083,58.7181z"/>
				</g>
			</g>
			<g id="XMLID_982_">
				<g id="XMLID_983_">
					<path id="XMLID_984_" fill="#53B5DB" d="M83.3322,60.494c0,0-18.8134-19.5406-37.3444-15.0082c0,0,3.1204-3.5625,9.252-4.7444
						c0,0-2.9099-2.3577-7.435-2.5944C47.8048,38.147,63.0464,30.47,83.3322,60.494z"/>
				</g>
			</g>
		</g>
	</g>
	<g id="XMLID_977_" opacity="0.34">
		<path id="XMLID_979_" fill="#FFFFFF" d="M82.9293,68.3533l15.7175,79.0579l14.0761,70.8022
			c6.0329,0.2026,12.1505-0.5039,18.1759-1.8464l-23.072-71.1906L82.9293,68.3533z"/>
		<path id="XMLID_978_" opacity="0.37" fill="#FFFFFF" d="M82.9293,68.3533l15.7175,79.0579l14.0761,70.8022
			c6.0329,0.2026,12.1505-0.5039,18.1759-1.8464l-23.072-71.1906L82.9293,68.3533z"/>
	</g>
</g>
</svg>
