<?xml version="1.0" encoding="utf-8"?>
<!-- Generator: Adobe Illustrator 19.0.0, SVG Export Plug-In . SVG Version: 6.00 Build 0)  -->
<svg version="1.1" id="Layer_1" xmlns="http://www.w3.org/2000/svg" xmlns:xlink="http://www.w3.org/1999/xlink" x="0px" y="0px"
	 viewBox="0 0 275.7 248" style="enable-background:new 0 0 275.7 248;" xml:space="preserve">
<style type="text/css">
	.st0{fill:#AA5507;}
	.st1{fill:#FFFFFF;}
	.st2{fill:#EC5F15;}
</style>
<g id="XMLID_15210_">
	<path id="XMLID_15225_" class="st0" d="M141,137.8c61.1,0,109.6,34.9,121.2,94.1c-3.6-73.2-54.6-117.4-121.2-117.4
		c-66.7,0-117.6,44.3-121.2,117.4C31.3,172.6,79.8,137.8,141,137.8z"/>
	<g id="XMLID_15212_">
		<circle id="XMLID_15224_" class="st0" cx="179.9" cy="61.9" r="39.7"/>
		<g id="XMLID_15218_">
			<circle id="XMLID_15223_" class="st0" cx="98.3" cy="60.6" r="44.3"/>
			<circle id="XMLID_15222_" class="st1" cx="102.1" cy="56.8" r="32.7"/>
			<circle id="XMLID_15221_" class="st2" cx="110.6" cy="56.1" r="20"/>
			<circle id="XMLID_15220_" cx="110.6" cy="56.1" r="10.7"/>
			<circle id="XMLID_15219_" class="st1" cx="104.8" cy="65.6" r="3.2"/>
		</g>
		<g id="XMLID_15213_">
			<circle id="XMLID_15217_" class="st1" cx="174.4" cy="56.8" r="28.5"/>
			<circle id="XMLID_15216_" class="st2" cx="167" cy="56.2" r="17.4"/>
			<circle id="XMLID_15215_" cx="167" cy="56.2" r="9.3"/>
			<circle id="XMLID_15214_" class="st1" cx="162" cy="64.5" r="2.8"/>
		</g>
	</g>
	<polygon id="XMLID_15211_" class="st0" points="104.9,101.6 113.9,125.8 168.2,125.8 183,95.7 165.3,90.4 156.1,121 123.2,121 
		120,95.2 	"/>
</g>
</svg>
