<?xml version="1.0" encoding="utf-8"?>
<!-- Generator: Adobe Illustrator 19.0.0, SVG Export Plug-In . SVG Version: 6.00 Build 0)  -->
<svg version="1.1" id="Layer_1" xmlns="http://www.w3.org/2000/svg" xmlns:xlink="http://www.w3.org/1999/xlink" x="0px" y="0px"
	 viewBox="0 0 187.8 223" style="enable-background:new 0 0 187.8 223;" xml:space="preserve">
<style type="text/css">
	.st0{clip-path:url(#XMLID_874_);}
	.st1{fill:none;}
	.st2{fill:#8B6DB3;}
	.st3{fill:#674494;}
	.st4{fill:#FF87BE;}
	.st5{fill:#FF579A;}
	.st6{opacity:0.34;}
	.st7{fill:#FFFFFF;}
	.st8{opacity:0.37;fill:#FFFFFF;}
</style>
<g id="XMLID_444_">
	<g id="XMLID_448_">
		<g id="XMLID_461_">
			<g id="XMLID_462_">
				<defs>
					<path id="XMLID_463_" d="M161.3,137c-7.9-7-15.9-13.9-23.8-20.9c-27.8-24.3-55.5-48.6-83.3-72.9C57.8,80,61.4,116.7,65,153.4
						c1,10.5,2.1,21,3.1,31.5c1.3,13.1-0.3,22.2,15.2,23c16.7,0.9,34.2-4.8,49.3-12.1c14.7-8,29.5-18.9,38.5-33
						C179.5,149.7,171.2,145.7,161.3,137z"/>
				</defs>
				<clipPath id="XMLID_874_">
					<use xlink:href="#XMLID_463_"  style="overflow:visible;"/>
				</clipPath>
				<g id="XMLID_816_" class="st0">
					
						<rect id="XMLID_859_" x="89.3" y="-60" transform="matrix(-0.8894 0.4571 -0.4571 -0.8894 258.7154 -82.5721)" class="st1" width="100" height="100"/>
					
						<rect id="XMLID_858_" x="89.3" y="-60" transform="matrix(-0.4571 -0.8894 0.8894 -0.4571 211.9256 109.3778)" class="st2" width="100" height="100"/>
					<path id="XMLID_857_" class="st3" d="M204.6,7.5c-1.2-0.8-2.7-0.9-4-0.2c-1.4,0.7-2.1,2.1-2.1,3.6c0,1.6,1,2.9,2.2,3.8l6-3.1
						L204.6,7.5z"/>
					<path id="XMLID_856_" class="st3" d="M188.7,16c-1.2-0.9-2.8-1.1-4.2-0.4c-1.3,0.7-2.1,2-2.2,3.4c-1.2-0.8-2.7-0.9-4-0.2
						c-1.4,0.7-2.1,2.1-2.1,3.6c0,1.6,1,2.9,2.2,3.8l12.1-6.2C190.4,18.4,190,16.9,188.7,16z"/>
					<path id="XMLID_855_" class="st3" d="M166.4,27.4c-1.2-0.9-2.8-1.1-4.2-0.4c-1.3,0.7-2.1,2-2.2,3.4c-1.2-0.8-2.7-0.9-4-0.2
						c-1.4,0.7-2.1,2.1-2.1,3.6c0,1.6,1,2.9,2.2,3.8l12.1-6.2C168.2,29.9,167.7,28.4,166.4,27.4z"/>
					<path id="XMLID_854_" class="st3" d="M144.2,38.8c-1.2-0.9-2.8-1.1-4.2-0.4c-1.3,0.7-2.1,2-2.2,3.4c-1.2-0.8-2.7-0.9-4-0.2
						c-1.4,0.7-2.1,2.1-2.1,3.6c0,1.6,1,2.9,2.2,3.8l12.1-6.2C145.9,41.3,145.5,39.8,144.2,38.8z"/>
					<path id="XMLID_853_" class="st3" d="M121.9,50.3c-1.2-0.9-2.8-1.1-4.2-0.4c-1.3,0.7-2.1,2-2.2,3.4l2.1,4.1l6-3.1
						C123.7,52.7,123.2,51.2,121.9,50.3z"/>
					<path id="XMLID_852_" class="st3" d="M189.9-1.3c-1.3,0.7-2.1,2-2.2,3.4c-1.2-0.8-2.7-0.9-4-0.2c-1.4,0.7-2.1,2.1-2.1,3.6
						c0.1,1.7,1.1,3.1,2.5,4c2.5,1.8,5.7,2.4,8.8,2.6c1.6-2.6,2.9-5.6,3-8.7c0-1.7-0.4-3.3-1.8-4.4C192.9-1.8,191.3-2,189.9-1.3z"/>
					<path id="XMLID_851_" class="st3" d="M167.7,10.1c-1.3,0.7-2.1,2-2.2,3.4c-1.2-0.8-2.7-0.9-4-0.2c-1.4,0.7-2.1,2.1-2.1,3.6
						c0.1,1.7,1.1,3.1,2.5,4c2.5,1.8,5.7,2.4,8.8,2.6c1.6-2.6,2.9-5.6,3-8.7c0-1.7-0.4-3.3-1.8-4.4C170.6,9.6,169,9.4,167.7,10.1z"
						/>
					<path id="XMLID_850_" class="st3" d="M145.4,21.6c-1.3,0.7-2.1,2-2.2,3.4c-1.2-0.8-2.7-0.9-4-0.2c-1.4,0.7-2.1,2.1-2.1,3.6
						c0.1,1.7,1.1,3.1,2.5,4c2.5,1.8,5.7,2.4,8.8,2.6c1.6-2.6,2.9-5.6,3-8.7c0-1.7-0.4-3.3-1.8-4.4
						C148.4,21.1,146.8,20.9,145.4,21.6z"/>
					<path id="XMLID_849_" class="st3" d="M123.2,33c-1.3,0.7-2.1,2-2.2,3.4c-1.2-0.8-2.7-0.9-4-0.2c-1.4,0.7-2.1,2.1-2.1,3.6
						c0.1,1.7,1.1,3.1,2.5,4c2.5,1.8,5.7,2.4,8.8,2.6c1.6-2.6,2.9-5.6,3-8.7c0-1.7-0.4-3.3-1.8-4.4C126.1,32.5,124.5,32.3,123.2,33z
						"/>
					<path id="XMLID_848_" class="st3" d="M189.1-15c-1.4,0.7-2.1,2.1-2.1,3.6c0.1,1.7,1.1,3.1,2.5,4c2.5,1.8,5.7,2.4,8.8,2.6
						l-5.2-10.1C192-15.5,190.4-15.6,189.1-15z"/>
					<path id="XMLID_847_" class="st3" d="M173.1-6.7c-1.3,0.7-2.1,2-2.2,3.4c-1.2-0.8-2.7-0.9-4-0.2c-1.4,0.7-2.1,2.1-2.1,3.6
						c0.1,1.7,1.1,3.1,2.5,4c2.5,1.8,5.7,2.4,8.8,2.6c1.6-2.6,2.9-5.6,3-8.7c0-1.7-0.4-3.3-1.8-4.4C176-7.2,174.4-7.4,173.1-6.7z"/>
					<path id="XMLID_846_" class="st3" d="M150.8,4.7c-1.3,0.7-2.1,2-2.2,3.4c-1.2-0.8-2.7-0.9-4-0.2c-1.4,0.7-2.1,2.1-2.1,3.6
						c0.1,1.7,1.1,3.1,2.5,4c2.5,1.8,5.7,2.4,8.8,2.6c1.6-2.6,2.9-5.6,3-8.7c0-1.7-0.4-3.3-1.8-4.4C153.8,4.2,152.2,4,150.8,4.7z"/>
					<path id="XMLID_845_" class="st3" d="M128.6,16.2c-1.3,0.7-2.1,2-2.2,3.4c-1.2-0.8-2.7-0.9-4-0.2c-1.4,0.7-2.1,2.1-2.1,3.6
						c0.1,1.7,1.1,3.1,2.5,4c2.5,1.8,5.7,2.4,8.8,2.6c1.6-2.6,2.9-5.6,3-8.7c0-1.7-0.4-3.3-1.8-4.4
						C131.6,15.7,129.9,15.5,128.6,16.2z"/>
					<path id="XMLID_844_" class="st3" d="M112.3,32.4c0-1.7-0.4-3.3-1.8-4.4c-1.2-0.9-2.8-1.1-4.2-0.4c-1.3,0.7-2.1,2-2.2,3.4
						l5.2,10.1C110.9,38.5,112.3,35.5,112.3,32.4z"/>
					<path id="XMLID_843_" class="st3" d="M178.5-23.5c-1.3,0.7-2.1,2-2.2,3.4c-1.2-0.8-2.7-0.9-4-0.2c-1.4,0.7-2.1,2.1-2.1,3.6
						c0.1,1.7,1.1,3.1,2.5,4c2.5,1.8,5.7,2.4,8.8,2.6c1.6-2.6,2.9-5.6,3-8.7c0-1.7-0.4-3.3-1.8-4.4C181.4-24,179.8-24.2,178.5-23.5z
						"/>
					<path id="XMLID_842_" class="st3" d="M156.2-12.1c-1.3,0.7-2.1,2-2.2,3.4c-1.2-0.8-2.7-0.9-4-0.2c-1.4,0.7-2.1,2.1-2.1,3.6
						c0.1,1.7,1.1,3.1,2.5,4c2.5,1.8,5.7,2.4,8.8,2.6c1.6-2.6,2.9-5.6,3-8.7c0-1.7-0.4-3.3-1.8-4.4
						C159.2-12.6,157.6-12.8,156.2-12.1z"/>
					<path id="XMLID_841_" class="st3" d="M134-0.7c-1.3,0.7-2.1,2-2.2,3.4c-1.2-0.8-2.7-0.9-4-0.2c-1.4,0.7-2.1,2.1-2.1,3.6
						c0.1,1.7,1.1,3.1,2.5,4c2.5,1.8,5.7,2.4,8.8,2.6c1.6-2.6,2.9-5.6,3-8.7c0-1.7-0.4-3.3-1.8-4.4C137-1.2,135.3-1.4,134-0.7z"/>
					<path id="XMLID_840_" class="st3" d="M111.7,10.7c-1.3,0.7-2.1,2-2.2,3.4c-1.2-0.8-2.7-0.9-4-0.2c-1.4,0.7-2.1,2.1-2.1,3.6
						c0.1,1.7,1.1,3.1,2.5,4c2.5,1.8,5.7,2.4,8.8,2.6c1.6-2.6,2.9-5.6,3-8.7c0-1.7-0.4-3.3-1.8-4.4C114.7,10.3,113.1,10,111.7,10.7z
						"/>
					<path id="XMLID_839_" class="st3" d="M177.7-37.2c-1.4,0.7-2.1,2.1-2.1,3.6c0.1,1.7,1.1,3.1,2.5,4c2.5,1.8,5.7,2.4,8.8,2.6
						L181.7-37C180.6-37.8,179-37.9,177.7-37.2z"/>
					<path id="XMLID_838_" class="st3" d="M161.6-29c-1.3,0.7-2.1,2-2.2,3.4c-1.2-0.8-2.7-0.9-4-0.2c-1.4,0.7-2.1,2.1-2.1,3.6
						c0.1,1.7,1.1,3.1,2.5,4c2.5,1.8,5.7,2.4,8.8,2.6c1.6-2.6,2.9-5.6,3-8.7c0-1.7-0.4-3.3-1.8-4.4C164.6-29.4,163-29.7,161.6-29z"
						/>
					<path id="XMLID_837_" class="st3" d="M139.4-17.5c-1.3,0.7-2.1,2-2.2,3.4c-1.2-0.8-2.7-0.9-4-0.2c-1.4,0.7-2.1,2.1-2.1,3.6
						c0.1,1.7,1.1,3.1,2.5,4c2.5,1.8,5.7,2.4,8.8,2.6c1.6-2.6,2.9-5.6,3-8.7c0-1.7-0.4-3.3-1.8-4.4C142.4-18,140.7-18.2,139.4-17.5z
						"/>
					<path id="XMLID_836_" class="st3" d="M117.1-6.1c-1.3,0.7-2.1,2-2.2,3.4c-1.2-0.8-2.7-0.9-4-0.2c-1.4,0.7-2.1,2.1-2.1,3.6
						c0.1,1.7,1.1,3.1,2.5,4c2.5,1.8,5.7,2.4,8.8,2.6c1.6-2.6,2.9-5.6,3-8.7c0-1.7-0.4-3.3-1.8-4.4C120.1-6.6,118.5-6.8,117.1-6.1z"
						/>
					<path id="XMLID_835_" class="st3" d="M100.9,10.2c0-1.7-0.4-3.3-1.8-4.4c-1.2-0.9-2.8-1.1-4.2-0.4c-1.3,0.7-2.1,2-2.2,3.4
						l5.2,10.1C99.5,16.2,100.8,13.2,100.9,10.2z"/>
					<path id="XMLID_834_" class="st3" d="M167-45.8c-1.3,0.7-2.1,2-2.2,3.4c-1.2-0.8-2.7-0.9-4-0.2c-1.4,0.7-2.1,2.1-2.1,3.6
						c0.1,1.7,1.1,3.1,2.5,4c2.5,1.8,5.7,2.4,8.8,2.6c1.6-2.6,2.9-5.6,3-8.7c0-1.7-0.4-3.3-1.8-4.4C170-46.3,168.4-46.5,167-45.8z"
						/>
					<path id="XMLID_833_" class="st3" d="M144.8-34.4c-1.3,0.7-2.1,2-2.2,3.4c-1.2-0.8-2.7-0.9-4-0.2c-1.4,0.7-2.1,2.1-2.1,3.6
						c0.1,1.7,1.1,3.1,2.5,4c2.5,1.8,5.7,2.4,8.8,2.6c1.6-2.6,2.9-5.6,3-8.7c0-1.7-0.4-3.3-1.8-4.4
						C147.8-34.9,146.2-35.1,144.8-34.4z"/>
					<path id="XMLID_832_" class="st3" d="M122.6-22.9c-1.3,0.7-2.1,2-2.2,3.4c-1.2-0.8-2.7-0.9-4-0.2c-1.4,0.7-2.1,2.1-2.1,3.6
						c0.1,1.7,1.1,3.1,2.5,4c2.5,1.8,5.7,2.4,8.8,2.6c1.6-2.6,2.9-5.6,3-8.7c0-1.7-0.4-3.3-1.8-4.4
						C125.5-23.4,123.9-23.6,122.6-22.9z"/>
					<path id="XMLID_831_" class="st3" d="M100.3-11.5c-1.3,0.7-2.1,2-2.2,3.4c-1.2-0.8-2.7-0.9-4-0.2C92.8-7.6,92-6.2,92-4.7
						c0.1,1.7,1.1,3.1,2.5,4c2.5,1.8,5.7,2.4,8.8,2.6c1.6-2.6,2.9-5.6,3-8.7c0-1.7-0.4-3.3-1.8-4.4C103.3-12,101.7-12.2,100.3-11.5z
						"/>
					<path id="XMLID_830_" class="st3" d="M166.3-59.4c-1.4,0.7-2.1,2.1-2.1,3.6c0.1,1.7,1.1,3.1,2.5,4c2.5,1.8,5.7,2.4,8.8,2.6
						l-5.2-10.1C169.1-60,167.6-60.1,166.3-59.4z"/>
					<path id="XMLID_829_" class="st3" d="M150.2-51.2c-1.3,0.7-2.1,2-2.2,3.4c-1.2-0.8-2.7-0.9-4-0.2c-1.4,0.7-2.1,2.1-2.1,3.6
						c0.1,1.7,1.1,3.1,2.5,4c2.5,1.8,5.7,2.4,8.8,2.6c1.6-2.6,2.9-5.6,3-8.7c0-1.7-0.4-3.3-1.8-4.4
						C153.2-51.7,151.6-51.9,150.2-51.2z"/>
					<path id="XMLID_828_" class="st3" d="M128-39.8c-1.3,0.7-2.1,2-2.2,3.4c-1.2-0.8-2.7-0.9-4-0.2c-1.4,0.7-2.1,2.1-2.1,3.6
						c0.1,1.7,1.1,3.1,2.5,4c2.5,1.8,5.7,2.4,8.8,2.6c1.6-2.6,2.9-5.6,3-8.7c0-1.7-0.4-3.3-1.8-4.4C130.9-40.3,129.3-40.5,128-39.8z
						"/>
					<path id="XMLID_827_" class="st3" d="M105.7-28.3c-1.3,0.7-2.1,2-2.2,3.4c-1.2-0.8-2.7-0.9-4-0.2c-1.4,0.7-2.1,2.1-2.1,3.6
						c0.1,1.7,1.1,3.1,2.5,4c2.5,1.8,5.7,2.4,8.8,2.6c1.6-2.6,2.9-5.6,3-8.7c0-1.7-0.4-3.3-1.8-4.4C108.7-28.8,107.1-29,105.7-28.3z
						"/>
					<path id="XMLID_826_" class="st3" d="M89.5-12.1c0-1.7-0.4-3.3-1.8-4.4c-1.2-0.9-2.8-1.1-4.2-0.4c-1.3,0.7-2.1,2-2.2,3.4
						l5.2,10.1C88-6,89.4-9,89.5-12.1z"/>
					<path id="XMLID_825_" class="st3" d="M155.6-68c-1.3,0.7-2.1,2-2.2,3.4c-1.2-0.8-2.7-0.9-4-0.2c-1.4,0.7-2.1,2.1-2.1,3.6
						c0.1,1.7,1.1,3.1,2.5,4c2.5,1.8,5.7,2.4,8.8,2.6c1.6-2.6,2.9-5.6,3-8.7c0-1.7-0.4-3.3-1.8-4.4C158.6-68.5,157-68.7,155.6-68z"
						/>
					<path id="XMLID_824_" class="st3" d="M133.4-56.6c-1.3,0.7-2.1,2-2.2,3.4c-1.2-0.8-2.7-0.9-4-0.2c-1.4,0.7-2.1,2.1-2.1,3.6
						c0.1,1.7,1.1,3.1,2.5,4c2.5,1.8,5.7,2.4,8.8,2.6c1.6-2.6,2.9-5.6,3-8.7c0-1.7-0.4-3.3-1.8-4.4
						C136.3-57.1,134.7-57.3,133.4-56.6z"/>
					<path id="XMLID_823_" class="st3" d="M111.1-45.2c-1.3,0.7-2.1,2-2.2,3.4c-1.2-0.8-2.7-0.9-4-0.2c-1.4,0.7-2.1,2.1-2.1,3.6
						c0.1,1.7,1.1,3.1,2.5,4c2.5,1.8,5.7,2.4,8.8,2.6c1.6-2.6,2.9-5.6,3-8.7c0-1.7-0.4-3.3-1.8-4.4
						C114.1-45.7,112.5-45.9,111.1-45.2z"/>
					<path id="XMLID_822_" class="st3" d="M88.9-33.7c-1.3,0.7-2.1,2-2.2,3.4c-1.2-0.8-2.7-0.9-4-0.2c-1.4,0.7-2.1,2.1-2.1,3.6
						c0.1,1.7,1.1,3.1,2.5,4c2.5,1.8,5.7,2.4,8.8,2.6c1.6-2.6,2.9-5.6,3-8.7c0-1.7-0.4-3.3-1.8-4.4C91.9-34.2,90.2-34.4,88.9-33.7z"
						/>
					<path id="XMLID_821_" class="st3" d="M154.9-74.2c0.1,0.1,0.2,0.2,0.3,0.2c2.5,1.8,5.7,2.4,8.8,2.6l-3.1-5.9L154.9-74.2z"/>
					<path id="XMLID_820_" class="st3" d="M141.8-60c1.6-2.6,2.9-5.6,3-8.7c0-0.1,0-0.3,0-0.4l-12.1,6.2c0.1,0.1,0.2,0.2,0.3,0.2
						C135.5-60.8,138.7-60.2,141.8-60z"/>
					<path id="XMLID_819_" class="st3" d="M119.5-48.5c1.6-2.6,2.9-5.6,3-8.7c0-0.1,0-0.3,0-0.4l-12.1,6.2c0.1,0.1,0.2,0.2,0.3,0.2
						C113.3-49.4,116.5-48.8,119.5-48.5z"/>
					<path id="XMLID_818_" class="st3" d="M97.3-37.1c1.6-2.6,2.9-5.6,3-8.7c0-0.1,0-0.3,0-0.4L88.2-40c0.1,0.1,0.2,0.2,0.3,0.2
						C91-38,94.3-37.3,97.3-37.1z"/>
					<path id="XMLID_817_" class="st3" d="M78-34.3c0-0.1,0-0.3,0-0.4l-6,3.1l3.1,5.9C76.6-28.3,78-31.3,78-34.3z"/>
				</g>
				<g id="XMLID_772_" class="st0">
					
						<rect id="XMLID_815_" x="135.1" y="29" transform="matrix(-0.8894 0.4571 -0.4571 -0.8894 385.7828 64.6428)" class="st1" width="100" height="100"/>
					
						<rect id="XMLID_814_" x="135.1" y="29" transform="matrix(-0.4571 -0.8894 0.8894 -0.4571 199.4148 279.6959)" class="st2" width="100" height="100"/>
					<path id="XMLID_813_" class="st3" d="M250.3,96.5c-1.2-0.8-2.7-0.9-4-0.2c-1.4,0.7-2.1,2.1-2.1,3.6c0,1.6,1,2.9,2.2,3.8l6-3.1
						L250.3,96.5z"/>
					<path id="XMLID_812_" class="st3" d="M234.4,104.9c-1.2-0.9-2.8-1.1-4.2-0.4c-1.3,0.7-2.1,2-2.2,3.4c-1.2-0.8-2.7-0.9-4-0.2
						c-1.4,0.7-2.1,2.1-2.1,3.6c0,1.6,1,2.9,2.2,3.8l12.1-6.2C236.2,107.4,235.7,105.9,234.4,104.9z"/>
					<path id="XMLID_811_" class="st3" d="M212.2,116.4c-1.2-0.9-2.8-1.1-4.2-0.4c-1.3,0.7-2.1,2-2.2,3.4c-1.2-0.8-2.7-0.9-4-0.2
						c-1.4,0.7-2.1,2.1-2.1,3.6c0,1.6,1,2.9,2.2,3.8l12.1-6.2C213.9,118.8,213.4,117.3,212.2,116.4z"/>
					<path id="XMLID_810_" class="st3" d="M189.9,127.8c-1.2-0.9-2.8-1.1-4.2-0.4c-1.3,0.7-2.1,2-2.2,3.4c-1.2-0.8-2.7-0.9-4-0.2
						c-1.4,0.7-2.1,2.1-2.1,3.6c0,1.6,1,2.9,2.2,3.8l12.1-6.2C191.7,130.3,191.2,128.8,189.9,127.8z"/>
					<path id="XMLID_809_" class="st3" d="M167.7,139.2c-1.2-0.9-2.8-1.1-4.2-0.4c-1.3,0.7-2.1,2-2.2,3.4l2.1,4.1l6-3.1
						C169.4,141.7,169,140.2,167.7,139.2z"/>
					<path id="XMLID_808_" class="st3" d="M235.6,87.7c-1.3,0.7-2.1,2-2.2,3.4c-1.2-0.8-2.7-0.9-4-0.2c-1.4,0.7-2.1,2.1-2.1,3.6
						c0.1,1.7,1.1,3.1,2.5,4c2.5,1.8,5.7,2.4,8.8,2.6c1.6-2.6,2.9-5.6,3-8.7c0-1.7-0.4-3.3-1.8-4.4C238.6,87.2,237,87,235.6,87.7z"
						/>
					<path id="XMLID_807_" class="st3" d="M213.4,99.1c-1.3,0.7-2.1,2-2.2,3.4c-1.2-0.8-2.7-0.9-4-0.2c-1.4,0.7-2.1,2.1-2.1,3.6
						c0.1,1.7,1.1,3.1,2.5,4c2.5,1.8,5.7,2.4,8.8,2.6c1.6-2.6,2.9-5.6,3-8.7c0-1.7-0.4-3.3-1.8-4.4
						C216.4,98.6,214.7,98.4,213.4,99.1z"/>
					<path id="XMLID_806_" class="st3" d="M191.1,110.5c-1.3,0.7-2.1,2-2.2,3.4c-1.2-0.8-2.7-0.9-4-0.2c-1.4,0.7-2.1,2.1-2.1,3.6
						c0.1,1.7,1.1,3.1,2.5,4c2.5,1.8,5.7,2.4,8.8,2.6c1.6-2.6,2.9-5.6,3-8.7c0-1.7-0.4-3.3-1.8-4.4
						C194.1,110,192.5,109.8,191.1,110.5z"/>
					<path id="XMLID_805_" class="st3" d="M168.9,122c-1.3,0.7-2.1,2-2.2,3.4c-1.2-0.8-2.7-0.9-4-0.2c-1.4,0.7-2.1,2.1-2.1,3.6
						c0.1,1.7,1.1,3.1,2.5,4c2.5,1.8,5.7,2.4,8.8,2.6c1.6-2.6,2.9-5.6,3-8.7c0-1.7-0.4-3.3-1.8-4.4
						C171.9,121.5,170.3,121.3,168.9,122z"/>
					<path id="XMLID_804_" class="st3" d="M234.8,74c-1.4,0.7-2.1,2.1-2.1,3.6c0.1,1.7,1.1,3.1,2.5,4c2.5,1.8,5.7,2.4,8.8,2.6
						l-5.2-10.1C237.7,73.5,236.2,73.3,234.8,74z"/>
					<path id="XMLID_803_" class="st3" d="M218.8,82.3c-1.3,0.7-2.1,2-2.2,3.4c-1.2-0.8-2.7-0.9-4-0.2c-1.4,0.7-2.1,2.1-2.1,3.6
						c0.1,1.7,1.1,3.1,2.5,4c2.5,1.8,5.7,2.4,8.8,2.6c1.6-2.6,2.9-5.6,3-8.7c0-1.7-0.4-3.3-1.8-4.4
						C221.8,81.8,220.1,81.6,218.8,82.3z"/>
					<path id="XMLID_802_" class="st3" d="M196.5,93.7c-1.3,0.7-2.1,2-2.2,3.4c-1.2-0.8-2.7-0.9-4-0.2c-1.4,0.7-2.1,2.1-2.1,3.6
						c0.1,1.7,1.1,3.1,2.5,4c2.5,1.8,5.7,2.4,8.8,2.6c1.6-2.6,2.9-5.6,3-8.7c0-1.7-0.4-3.3-1.8-4.4C199.5,93.2,197.9,93,196.5,93.7z
						"/>
					<path id="XMLID_801_" class="st3" d="M174.3,105.1c-1.3,0.7-2.1,2-2.2,3.4c-1.2-0.8-2.7-0.9-4-0.2c-1.4,0.7-2.1,2.1-2.1,3.6
						c0.1,1.7,1.1,3.1,2.5,4c2.5,1.8,5.7,2.4,8.8,2.6c1.6-2.6,2.9-5.6,3-8.7c0-1.7-0.4-3.3-1.8-4.4
						C177.3,104.6,175.7,104.4,174.3,105.1z"/>
					<path id="XMLID_800_" class="st3" d="M158,121.4c0-1.7-0.4-3.3-1.8-4.4c-1.2-0.9-2.8-1.1-4.2-0.4c-1.3,0.7-2.1,2-2.2,3.4
						l5.2,10.1C156.6,127.4,158,124.5,158,121.4z"/>
					<path id="XMLID_799_" class="st3" d="M224.2,65.4c-1.3,0.7-2.1,2-2.2,3.4c-1.2-0.8-2.7-0.9-4-0.2c-1.4,0.7-2.1,2.1-2.1,3.6
						c0.1,1.7,1.1,3.1,2.5,4c2.5,1.8,5.7,2.4,8.8,2.6c1.6-2.6,2.9-5.6,3-8.7c0-1.7-0.4-3.3-1.8-4.4
						C227.2,64.9,225.6,64.7,224.2,65.4z"/>
					<path id="XMLID_798_" class="st3" d="M202,76.9c-1.3,0.7-2.1,2-2.2,3.4c-1.2-0.8-2.7-0.9-4-0.2c-1.4,0.7-2.1,2.1-2.1,3.6
						c0.1,1.7,1.1,3.1,2.5,4c2.5,1.8,5.7,2.4,8.8,2.6c1.6-2.6,2.9-5.6,3-8.7c0-1.7-0.4-3.3-1.8-4.4C204.9,76.4,203.3,76.2,202,76.9z
						"/>
					<path id="XMLID_797_" class="st3" d="M179.7,88.3c-1.3,0.7-2.1,2-2.2,3.4c-1.2-0.8-2.7-0.9-4-0.2c-1.4,0.7-2.1,2.1-2.1,3.6
						c0.1,1.7,1.1,3.1,2.5,4c2.5,1.8,5.7,2.4,8.8,2.6c1.6-2.6,2.9-5.6,3-8.7c0-1.7-0.4-3.3-1.8-4.4
						C182.7,87.8,181.1,87.6,179.7,88.3z"/>
					<path id="XMLID_796_" class="st3" d="M157.5,99.7c-1.3,0.7-2.1,2-2.2,3.4c-1.2-0.8-2.7-0.9-4-0.2c-1.4,0.7-2.1,2.1-2.1,3.6
						c0.1,1.7,1.1,3.1,2.5,4c2.5,1.8,5.7,2.4,8.8,2.6c1.6-2.6,2.9-5.6,3-8.7c0-1.7-0.4-3.3-1.8-4.4C160.4,99.2,158.8,99,157.5,99.7z
						"/>
					<path id="XMLID_795_" class="st3" d="M223.4,51.8c-1.4,0.7-2.1,2.1-2.1,3.6c0.1,1.7,1.1,3.1,2.5,4c2.5,1.8,5.7,2.4,8.8,2.6
						L227.4,52C226.3,51.2,224.7,51.1,223.4,51.8z"/>
					<path id="XMLID_794_" class="st3" d="M207.4,60c-1.3,0.7-2.1,2-2.2,3.4c-1.2-0.8-2.7-0.9-4-0.2c-1.4,0.7-2.1,2.1-2.1,3.6
						c0.1,1.7,1.1,3.1,2.5,4c2.5,1.8,5.7,2.4,8.8,2.6c1.6-2.6,2.9-5.6,3-8.7c0-1.7-0.4-3.3-1.8-4.4C210.3,59.5,208.7,59.3,207.4,60z
						"/>
					<path id="XMLID_793_" class="st3" d="M185.1,71.5c-1.3,0.7-2.1,2-2.2,3.4c-1.2-0.8-2.7-0.9-4-0.2c-1.4,0.7-2.1,2.1-2.1,3.6
						c0.1,1.7,1.1,3.1,2.5,4c2.5,1.8,5.7,2.4,8.8,2.6c1.6-2.6,2.9-5.6,3-8.7c0-1.7-0.4-3.3-1.8-4.4C188.1,71,186.5,70.8,185.1,71.5z
						"/>
					<path id="XMLID_792_" class="st3" d="M162.9,82.9c-1.3,0.7-2.1,2-2.2,3.4c-1.2-0.8-2.7-0.9-4-0.2c-1.4,0.7-2.1,2.1-2.1,3.6
						c0.1,1.7,1.1,3.1,2.5,4c2.5,1.8,5.7,2.4,8.8,2.6c1.6-2.6,2.9-5.6,3-8.7c0-1.7-0.4-3.3-1.8-4.4
						C165.8,82.4,164.2,82.2,162.9,82.9z"/>
					<path id="XMLID_791_" class="st3" d="M146.6,99.1c0-1.7-0.4-3.3-1.8-4.4c-1.2-0.9-2.8-1.1-4.2-0.4c-1.3,0.7-2.1,2-2.2,3.4
						l5.2,10.1C145.2,105.2,146.6,102.2,146.6,99.1z"/>
					<path id="XMLID_790_" class="st3" d="M212.8,43.2c-1.3,0.7-2.1,2-2.2,3.4c-1.2-0.8-2.7-0.9-4-0.2c-1.4,0.7-2.1,2.1-2.1,3.6
						c0.1,1.7,1.1,3.1,2.5,4c2.5,1.8,5.7,2.4,8.8,2.6c1.6-2.6,2.9-5.6,3-8.7c0-1.7-0.4-3.3-1.8-4.4
						C215.7,42.7,214.1,42.5,212.8,43.2z"/>
					<path id="XMLID_789_" class="st3" d="M190.5,54.6c-1.3,0.7-2.1,2-2.2,3.4c-1.2-0.8-2.7-0.9-4-0.2c-1.4,0.7-2.1,2.1-2.1,3.6
						c0.1,1.7,1.1,3.1,2.5,4c2.5,1.8,5.7,2.4,8.8,2.6c1.6-2.6,2.9-5.6,3-8.7c0-1.7-0.4-3.3-1.8-4.4
						C193.5,54.1,191.9,53.9,190.5,54.6z"/>
					<path id="XMLID_788_" class="st3" d="M168.3,66c-1.3,0.7-2.1,2-2.2,3.4c-1.2-0.8-2.7-0.9-4-0.2c-1.4,0.7-2.1,2.1-2.1,3.6
						c0.1,1.7,1.1,3.1,2.5,4c2.5,1.8,5.7,2.4,8.8,2.6c1.6-2.6,2.9-5.6,3-8.7c0-1.7-0.4-3.3-1.8-4.4C171.3,65.6,169.6,65.3,168.3,66z
						"/>
					<path id="XMLID_787_" class="st3" d="M146,77.5c-1.3,0.7-2.1,2-2.2,3.4c-1.2-0.8-2.7-0.9-4-0.2c-1.4,0.7-2.1,2.1-2.1,3.6
						c0.1,1.7,1.1,3.1,2.5,4c2.5,1.8,5.7,2.4,8.8,2.6c1.6-2.6,2.9-5.6,3-8.7c0-1.7-0.4-3.3-1.8-4.4C149,77,147.4,76.8,146,77.5z"/>
					<path id="XMLID_786_" class="st3" d="M212,29.5c-1.4,0.7-2.1,2.1-2.1,3.6c0.1,1.7,1.1,3.1,2.5,4c2.5,1.8,5.7,2.4,8.8,2.6
						L216,29.8C214.8,29,213.3,28.8,212,29.5z"/>
					<path id="XMLID_785_" class="st3" d="M195.9,37.8c-1.3,0.7-2.1,2-2.2,3.4c-1.2-0.8-2.7-0.9-4-0.2c-1.4,0.7-2.1,2.1-2.1,3.6
						c0.1,1.7,1.1,3.1,2.5,4c2.5,1.8,5.7,2.4,8.8,2.6c1.6-2.6,2.9-5.6,3-8.7c0-1.7-0.4-3.3-1.8-4.4
						C198.9,37.3,197.3,37.1,195.9,37.8z"/>
					<path id="XMLID_784_" class="st3" d="M173.7,49.2c-1.3,0.7-2.1,2-2.2,3.4c-1.2-0.8-2.7-0.9-4-0.2c-1.4,0.7-2.1,2.1-2.1,3.6
						c0.1,1.7,1.1,3.1,2.5,4c2.5,1.8,5.7,2.4,8.8,2.6c1.6-2.6,2.9-5.6,3-8.7c0-1.7-0.4-3.3-1.8-4.4C176.7,48.7,175,48.5,173.7,49.2z
						"/>
					<path id="XMLID_783_" class="st3" d="M151.4,60.6c-1.3,0.7-2.1,2-2.2,3.4c-1.2-0.8-2.7-0.9-4-0.2c-1.4,0.7-2.1,2.1-2.1,3.6
						c0.1,1.7,1.1,3.1,2.5,4c2.5,1.8,5.7,2.4,8.8,2.6c1.6-2.6,2.9-5.6,3-8.7c0-1.7-0.4-3.3-1.8-4.4
						C154.4,60.2,152.8,59.9,151.4,60.6z"/>
					<path id="XMLID_782_" class="st3" d="M135.2,76.9c0-1.7-0.4-3.3-1.8-4.4c-1.2-0.9-2.8-1.1-4.2-0.4c-1.3,0.7-2.1,2-2.2,3.4
						l5.2,10.1C133.8,82.9,135.1,80,135.2,76.9z"/>
					<path id="XMLID_781_" class="st3" d="M201.3,20.9c-1.3,0.7-2.1,2-2.2,3.4c-1.2-0.8-2.7-0.9-4-0.2c-1.4,0.7-2.1,2.1-2.1,3.6
						c0.1,1.7,1.1,3.1,2.5,4c2.5,1.8,5.7,2.4,8.8,2.6c1.6-2.6,2.9-5.6,3-8.7c0-1.7-0.4-3.3-1.8-4.4
						C204.3,20.5,202.7,20.2,201.3,20.9z"/>
					<path id="XMLID_780_" class="st3" d="M179.1,32.4c-1.3,0.7-2.1,2-2.2,3.4c-1.2-0.8-2.7-0.9-4-0.2c-1.4,0.7-2.1,2.1-2.1,3.6
						c0.1,1.7,1.1,3.1,2.5,4c2.5,1.8,5.7,2.4,8.8,2.6c1.6-2.6,2.9-5.6,3-8.7c0-1.7-0.4-3.3-1.8-4.4
						C182.1,31.9,180.4,31.7,179.1,32.4z"/>
					<path id="XMLID_779_" class="st3" d="M156.8,43.8c-1.3,0.7-2.1,2-2.2,3.4c-1.2-0.8-2.7-0.9-4-0.2c-1.4,0.7-2.1,2.1-2.1,3.6
						c0.1,1.7,1.1,3.1,2.5,4c2.5,1.8,5.7,2.4,8.8,2.6c1.6-2.6,2.9-5.6,3-8.7c0-1.7-0.4-3.3-1.8-4.4
						C159.8,43.3,158.2,43.1,156.8,43.8z"/>
					<path id="XMLID_778_" class="st3" d="M134.6,55.2c-1.3,0.7-2.1,2-2.2,3.4c-1.2-0.8-2.7-0.9-4-0.2c-1.4,0.7-2.1,2.1-2.1,3.6
						c0.1,1.7,1.1,3.1,2.5,4c2.5,1.8,5.7,2.4,8.8,2.6c1.6-2.6,2.9-5.6,3-8.7c0-1.7-0.4-3.3-1.8-4.4C137.6,54.7,136,54.5,134.6,55.2z
						"/>
					<path id="XMLID_777_" class="st3" d="M200.7,14.7c0.1,0.1,0.2,0.2,0.3,0.2c2.5,1.8,5.7,2.4,8.8,2.6l-3.1-5.9L200.7,14.7z"/>
					<path id="XMLID_776_" class="st3" d="M187.5,29c1.6-2.6,2.9-5.6,3-8.7c0-0.1,0-0.3,0-0.4l-12.1,6.2c0.1,0.1,0.2,0.2,0.3,0.2
						C181.3,28.1,184.5,28.8,187.5,29z"/>
					<path id="XMLID_775_" class="st3" d="M165.3,40.4c1.6-2.6,2.9-5.6,3-8.7c0-0.1,0-0.3,0-0.4l-12.1,6.2c0.1,0.1,0.2,0.2,0.3,0.2
						C159,39.6,162.2,40.2,165.3,40.4z"/>
					<path id="XMLID_774_" class="st3" d="M143,51.9c1.6-2.6,2.9-5.6,3-8.7c0-0.1,0-0.3,0-0.4L133.9,49c0.1,0.1,0.2,0.2,0.3,0.2
						C136.8,51,140,51.6,143,51.9z"/>
					<path id="XMLID_773_" class="st3" d="M123.8,54.6c0-0.1,0-0.3,0-0.4l-6,3.1l3.1,5.9C122.3,60.7,123.7,57.7,123.8,54.6z"/>
				</g>
				<g id="XMLID_728_" class="st0">
					
						<rect id="XMLID_771_" x="180.8" y="117.9" transform="matrix(-0.8894 0.4571 -0.4571 -0.8894 512.8502 211.8578)" class="st1" width="100" height="100"/>
					
						<rect id="XMLID_770_" x="180.8" y="117.9" transform="matrix(-0.4571 -0.8894 0.8894 -0.4571 186.904 450.0141)" class="st2" width="100" height="100"/>
					<path id="XMLID_769_" class="st3" d="M296,185.5c-1.2-0.8-2.7-0.9-4-0.2c-1.4,0.7-2.1,2.1-2.1,3.6c0,1.6,1,2.9,2.2,3.8l6-3.1
						L296,185.5z"/>
					<path id="XMLID_768_" class="st3" d="M280.1,193.9c-1.2-0.9-2.8-1.1-4.2-0.4c-1.3,0.7-2.1,2-2.2,3.4c-1.2-0.8-2.7-0.9-4-0.2
						c-1.4,0.7-2.1,2.1-2.1,3.6c0,1.6,1,2.9,2.2,3.8l12.1-6.2C281.9,196.4,281.4,194.9,280.1,193.9z"/>
					<path id="XMLID_767_" class="st3" d="M257.9,205.3c-1.2-0.9-2.8-1.1-4.2-0.4c-1.3,0.7-2.1,2-2.2,3.4c-1.2-0.8-2.7-0.9-4-0.2
						c-1.4,0.7-2.1,2.1-2.1,3.6c0,1.6,1,2.9,2.2,3.8l12.1-6.2C259.6,207.8,259.2,206.3,257.9,205.3z"/>
					<path id="XMLID_766_" class="st3" d="M235.6,216.8c-1.2-0.9-2.8-1.1-4.2-0.4c-1.3,0.7-2.1,2-2.2,3.4c-1.2-0.8-2.7-0.9-4-0.2
						c-1.4,0.7-2.1,2.1-2.1,3.6c0,1.6,1,2.9,2.2,3.8l12.1-6.2C237.4,219.2,236.9,217.8,235.6,216.8z"/>
					<path id="XMLID_765_" class="st3" d="M213.4,228.2c-1.2-0.9-2.8-1.1-4.2-0.4c-1.3,0.7-2.1,2-2.2,3.4l2.1,4.1l6-3.1
						C215.2,230.7,214.7,229.2,213.4,228.2z"/>
					<path id="XMLID_764_" class="st3" d="M281.4,176.7c-1.3,0.7-2.1,2-2.2,3.4c-1.2-0.8-2.7-0.9-4-0.2c-1.4,0.7-2.1,2.1-2.1,3.6
						c0.1,1.7,1.1,3.1,2.5,4c2.5,1.8,5.7,2.4,8.8,2.6c1.6-2.6,2.9-5.6,3-8.7c0-1.7-0.4-3.3-1.8-4.4
						C284.3,176.2,282.7,176,281.4,176.7z"/>
					<path id="XMLID_763_" class="st3" d="M259.1,188.1c-1.3,0.7-2.1,2-2.2,3.4c-1.2-0.8-2.7-0.9-4-0.2c-1.4,0.7-2.1,2.1-2.1,3.6
						c0.1,1.7,1.1,3.1,2.5,4c2.5,1.8,5.7,2.4,8.8,2.6c1.6-2.6,2.9-5.6,3-8.7c0-1.7-0.4-3.3-1.8-4.4
						C262.1,187.6,260.5,187.4,259.1,188.1z"/>
					<path id="XMLID_762_" class="st3" d="M236.9,199.5c-1.3,0.7-2.1,2-2.2,3.4c-1.2-0.8-2.7-0.9-4-0.2c-1.4,0.7-2.1,2.1-2.1,3.6
						c0.1,1.7,1.1,3.1,2.5,4c2.5,1.8,5.7,2.4,8.8,2.6c1.6-2.6,2.9-5.6,3-8.7c0-1.7-0.4-3.3-1.8-4.4
						C239.8,199,238.2,198.8,236.9,199.5z"/>
					<path id="XMLID_761_" class="st3" d="M214.6,210.9c-1.3,0.7-2.1,2-2.2,3.4c-1.2-0.8-2.7-0.9-4-0.2c-1.4,0.7-2.1,2.1-2.1,3.6
						c0.1,1.7,1.1,3.1,2.5,4c2.5,1.8,5.7,2.4,8.8,2.6c1.6-2.6,2.9-5.6,3-8.7c0-1.7-0.4-3.3-1.8-4.4
						C217.6,210.5,216,210.2,214.6,210.9z"/>
					<path id="XMLID_760_" class="st3" d="M280.6,163c-1.4,0.7-2.1,2.1-2.1,3.6c0.1,1.7,1.1,3.1,2.5,4c2.5,1.8,5.7,2.4,8.8,2.6
						l-5.2-10.1C283.4,162.4,281.9,162.3,280.6,163z"/>
					<path id="XMLID_759_" class="st3" d="M264.5,171.2c-1.3,0.7-2.1,2-2.2,3.4c-1.2-0.8-2.7-0.9-4-0.2c-1.4,0.7-2.1,2.1-2.1,3.6
						c0.1,1.7,1.1,3.1,2.5,4c2.5,1.8,5.7,2.4,8.8,2.6c1.6-2.6,2.9-5.6,3-8.7c0-1.7-0.4-3.3-1.8-4.4
						C267.5,170.8,265.9,170.5,264.5,171.2z"/>
					<path id="XMLID_758_" class="st3" d="M242.3,182.7c-1.3,0.7-2.1,2-2.2,3.4c-1.2-0.8-2.7-0.9-4-0.2c-1.4,0.7-2.1,2.1-2.1,3.6
						c0.1,1.7,1.1,3.1,2.5,4c2.5,1.8,5.7,2.4,8.8,2.6c1.6-2.6,2.9-5.6,3-8.7c0-1.7-0.4-3.3-1.8-4.4
						C245.3,182.2,243.6,182,242.3,182.7z"/>
					<path id="XMLID_757_" class="st3" d="M220,194.1c-1.3,0.7-2.1,2-2.2,3.4c-1.2-0.8-2.7-0.9-4-0.2c-1.4,0.7-2.1,2.1-2.1,3.6
						c0.1,1.7,1.1,3.1,2.5,4c2.5,1.8,5.7,2.4,8.8,2.6c1.6-2.6,2.9-5.6,3-8.7c0-1.7-0.4-3.3-1.8-4.4C223,193.6,221.4,193.4,220,194.1
						z"/>
					<path id="XMLID_756_" class="st3" d="M203.8,210.4c0-1.7-0.4-3.3-1.8-4.4c-1.2-0.9-2.8-1.1-4.2-0.4c-1.3,0.7-2.1,2-2.2,3.4
						l5.2,10.1C202.4,216.4,203.7,213.4,203.8,210.4z"/>
					<path id="XMLID_755_" class="st3" d="M269.9,154.4c-1.3,0.7-2.1,2-2.2,3.4c-1.2-0.8-2.7-0.9-4-0.2c-1.4,0.7-2.1,2.1-2.1,3.6
						c0.1,1.7,1.1,3.1,2.5,4c2.5,1.8,5.7,2.4,8.8,2.6c1.6-2.6,2.9-5.6,3-8.7c0-1.7-0.4-3.3-1.8-4.4
						C272.9,153.9,271.3,153.7,269.9,154.4z"/>
					<path id="XMLID_754_" class="st3" d="M247.7,165.8c-1.3,0.7-2.1,2-2.2,3.4c-1.2-0.8-2.7-0.9-4-0.2c-1.4,0.7-2.1,2.1-2.1,3.6
						c0.1,1.7,1.1,3.1,2.5,4c2.5,1.8,5.7,2.4,8.8,2.6c1.6-2.6,2.9-5.6,3-8.7c0-1.7-0.4-3.3-1.8-4.4
						C250.7,165.3,249,165.1,247.7,165.8z"/>
					<path id="XMLID_753_" class="st3" d="M225.4,177.3c-1.3,0.7-2.1,2-2.2,3.4c-1.2-0.8-2.7-0.9-4-0.2c-1.4,0.7-2.1,2.1-2.1,3.6
						c0.1,1.7,1.1,3.1,2.5,4c2.5,1.8,5.7,2.4,8.8,2.6c1.6-2.6,2.9-5.6,3-8.7c0-1.7-0.4-3.3-1.8-4.4
						C228.4,176.8,226.8,176.6,225.4,177.3z"/>
					<path id="XMLID_752_" class="st3" d="M203.2,188.7c-1.3,0.7-2.1,2-2.2,3.4c-1.2-0.8-2.7-0.9-4-0.2c-1.4,0.7-2.1,2.1-2.1,3.6
						c0.1,1.7,1.1,3.1,2.5,4c2.5,1.8,5.7,2.4,8.8,2.6c1.6-2.6,2.9-5.6,3-8.7c0-1.7-0.4-3.3-1.8-4.4
						C206.2,188.2,204.5,188,203.2,188.7z"/>
					<path id="XMLID_751_" class="st3" d="M269.1,140.8c-1.4,0.7-2.1,2.1-2.1,3.6c0.1,1.7,1.1,3.1,2.5,4c2.5,1.8,5.7,2.4,8.8,2.6
						l-5.2-10.1C272,140.2,270.5,140.1,269.1,140.8z"/>
					<path id="XMLID_750_" class="st3" d="M253.1,149c-1.3,0.7-2.1,2-2.2,3.4c-1.2-0.8-2.7-0.9-4-0.2c-1.4,0.7-2.1,2.1-2.1,3.6
						c0.1,1.7,1.1,3.1,2.5,4c2.5,1.8,5.7,2.4,8.8,2.6c1.6-2.6,2.9-5.6,3-8.7c0-1.7-0.4-3.3-1.8-4.4
						C256.1,148.5,254.4,148.3,253.1,149z"/>
					<path id="XMLID_749_" class="st3" d="M230.8,160.4c-1.3,0.7-2.1,2-2.2,3.4c-1.2-0.8-2.7-0.9-4-0.2c-1.4,0.7-2.1,2.1-2.1,3.6
						c0.1,1.7,1.1,3.1,2.5,4c2.5,1.8,5.7,2.4,8.8,2.6c1.6-2.6,2.9-5.6,3-8.7c0-1.7-0.4-3.3-1.8-4.4
						C233.8,159.9,232.2,159.7,230.8,160.4z"/>
					<path id="XMLID_748_" class="st3" d="M208.6,171.9c-1.3,0.7-2.1,2-2.2,3.4c-1.2-0.8-2.7-0.9-4-0.2c-1.4,0.7-2.1,2.1-2.1,3.6
						c0.1,1.7,1.1,3.1,2.5,4c2.5,1.8,5.7,2.4,8.8,2.6c1.6-2.6,2.9-5.6,3-8.7c0-1.7-0.4-3.3-1.8-4.4
						C211.6,171.4,210,171.2,208.6,171.9z"/>
					<path id="XMLID_747_" class="st3" d="M192.3,188.1c0-1.7-0.4-3.3-1.8-4.4c-1.2-0.9-2.8-1.1-4.2-0.4c-1.3,0.7-2.1,2-2.2,3.4
						l5.2,10.1C190.9,194.2,192.3,191.2,192.3,188.1z"/>
					<path id="XMLID_746_" class="st3" d="M258.5,132.2c-1.3,0.7-2.1,2-2.2,3.4c-1.2-0.8-2.7-0.9-4-0.2c-1.4,0.7-2.1,2.1-2.1,3.6
						c0.1,1.7,1.1,3.1,2.5,4c2.5,1.8,5.7,2.4,8.8,2.6c1.6-2.6,2.9-5.6,3-8.7c0-1.7-0.4-3.3-1.8-4.4
						C261.5,131.7,259.9,131.5,258.5,132.2z"/>
					<path id="XMLID_745_" class="st3" d="M236.2,143.6c-1.3,0.7-2.1,2-2.2,3.4c-1.2-0.8-2.7-0.9-4-0.2c-1.4,0.7-2.1,2.1-2.1,3.6
						c0.1,1.7,1.1,3.1,2.5,4c2.5,1.8,5.7,2.4,8.8,2.6c1.6-2.6,2.9-5.6,3-8.7c0-1.7-0.4-3.3-1.8-4.4
						C239.2,143.1,237.6,142.9,236.2,143.6z"/>
					<path id="XMLID_744_" class="st3" d="M214,155c-1.3,0.7-2.1,2-2.2,3.4c-1.2-0.8-2.7-0.9-4-0.2c-1.4,0.7-2.1,2.1-2.1,3.6
						c0.1,1.7,1.1,3.1,2.5,4c2.5,1.8,5.7,2.4,8.8,2.6c1.6-2.6,2.9-5.6,3-8.7c0-1.7-0.4-3.3-1.8-4.4C217,154.5,215.4,154.3,214,155z"
						/>
					<path id="XMLID_743_" class="st3" d="M191.8,166.5c-1.3,0.7-2.1,2-2.2,3.4c-1.2-0.8-2.7-0.9-4-0.2c-1.4,0.7-2.1,2.1-2.1,3.6
						c0.1,1.7,1.1,3.1,2.5,4c2.5,1.8,5.7,2.4,8.8,2.6c1.6-2.6,2.9-5.6,3-8.7c0-1.7-0.4-3.3-1.8-4.4
						C194.7,166,193.1,165.8,191.8,166.5z"/>
					<path id="XMLID_742_" class="st3" d="M257.7,118.5c-1.4,0.7-2.1,2.1-2.1,3.6c0.1,1.7,1.1,3.1,2.5,4c2.5,1.8,5.7,2.4,8.8,2.6
						l-5.2-10.1C260.6,118,259,117.8,257.7,118.5z"/>
					<path id="XMLID_741_" class="st3" d="M241.7,126.8c-1.3,0.7-2.1,2-2.2,3.4c-1.2-0.8-2.7-0.9-4-0.2c-1.4,0.7-2.1,2.1-2.1,3.6
						c0.1,1.7,1.1,3.1,2.5,4c2.5,1.8,5.7,2.4,8.8,2.6c1.6-2.6,2.9-5.6,3-8.7c0-1.7-0.4-3.3-1.8-4.4
						C244.6,126.3,243,126.1,241.7,126.8z"/>
					<path id="XMLID_740_" class="st3" d="M219.4,138.2c-1.3,0.7-2.1,2-2.2,3.4c-1.2-0.8-2.7-0.9-4-0.2c-1.4,0.7-2.1,2.1-2.1,3.6
						c0.1,1.7,1.1,3.1,2.5,4c2.5,1.8,5.7,2.4,8.8,2.6c1.6-2.6,2.9-5.6,3-8.7c0-1.7-0.4-3.3-1.8-4.4
						C222.4,137.7,220.8,137.5,219.4,138.2z"/>
					<path id="XMLID_739_" class="st3" d="M197.2,149.6c-1.3,0.7-2.1,2-2.2,3.4c-1.2-0.8-2.7-0.9-4-0.2c-1.4,0.7-2.1,2.1-2.1,3.6
						c0.1,1.7,1.1,3.1,2.5,4c2.5,1.8,5.7,2.4,8.8,2.6c1.6-2.6,2.9-5.6,3-8.7c0-1.7-0.4-3.3-1.8-4.4
						C200.1,149.1,198.5,148.9,197.2,149.6z"/>
					<path id="XMLID_738_" class="st3" d="M180.9,165.9c0-1.7-0.4-3.3-1.8-4.4c-1.2-0.9-2.8-1.1-4.2-0.4c-1.3,0.7-2.1,2-2.2,3.4
						l5.2,10.1C179.5,171.9,180.9,168.9,180.9,165.9z"/>
					<path id="XMLID_737_" class="st3" d="M247.1,109.9c-1.3,0.7-2.1,2-2.2,3.4c-1.2-0.8-2.7-0.9-4-0.2c-1.4,0.7-2.1,2.1-2.1,3.6
						c0.1,1.7,1.1,3.1,2.5,4c2.5,1.8,5.7,2.4,8.8,2.6c1.6-2.6,2.9-5.6,3-8.7c0-1.7-0.4-3.3-1.8-4.4
						C250,109.4,248.4,109.2,247.1,109.9z"/>
					<path id="XMLID_736_" class="st3" d="M224.8,121.3c-1.3,0.7-2.1,2-2.2,3.4c-1.2-0.8-2.7-0.9-4-0.2c-1.4,0.7-2.1,2.1-2.1,3.6
						c0.1,1.7,1.1,3.1,2.5,4c2.5,1.8,5.7,2.4,8.8,2.6c1.6-2.6,2.9-5.6,3-8.7c0-1.7-0.4-3.3-1.8-4.4
						C227.8,120.9,226.2,120.7,224.8,121.3z"/>
					<path id="XMLID_735_" class="st3" d="M202.6,132.8c-1.3,0.7-2.1,2-2.2,3.4c-1.2-0.8-2.7-0.9-4-0.2c-1.4,0.7-2.1,2.1-2.1,3.6
						c0.1,1.7,1.1,3.1,2.5,4c2.5,1.8,5.7,2.4,8.8,2.6c1.6-2.6,2.9-5.6,3-8.7c0-1.7-0.4-3.3-1.8-4.4
						C205.5,132.3,203.9,132.1,202.6,132.8z"/>
					<path id="XMLID_734_" class="st3" d="M180.3,144.2c-1.3,0.7-2.1,2-2.2,3.4c-1.2-0.8-2.7-0.9-4-0.2c-1.4,0.7-2.1,2.1-2.1,3.6
						c0.1,1.7,1.1,3.1,2.5,4c2.5,1.8,5.7,2.4,8.8,2.6c1.6-2.6,2.9-5.6,3-8.7c0-1.7-0.4-3.3-1.8-4.4
						C183.3,143.7,181.7,143.5,180.3,144.2z"/>
					<path id="XMLID_733_" class="st3" d="M246.4,103.7c0.1,0.1,0.2,0.2,0.3,0.2c2.5,1.8,5.7,2.4,8.8,2.6l-3.1-5.9L246.4,103.7z"/>
					<path id="XMLID_732_" class="st3" d="M233.2,118c1.6-2.6,2.9-5.6,3-8.7c0-0.1,0-0.3,0-0.4l-12.1,6.2c0.1,0.1,0.2,0.2,0.3,0.2
						C227,117.1,230.2,117.7,233.2,118z"/>
					<path id="XMLID_731_" class="st3" d="M211,129.4c1.6-2.6,2.9-5.6,3-8.7c0-0.1,0-0.3,0-0.4l-12.1,6.2c0.1,0.1,0.2,0.2,0.3,0.2
						C204.7,128.6,208,129.2,211,129.4z"/>
					<path id="XMLID_730_" class="st3" d="M188.7,140.8c1.6-2.6,2.9-5.6,3-8.7c0-0.1,0-0.3,0-0.4l-12.1,6.2c0.1,0.1,0.2,0.2,0.3,0.2
						C182.5,140,185.7,140.6,188.7,140.8z"/>
					<path id="XMLID_729_" class="st3" d="M169.5,143.6c0-0.1,0-0.3,0-0.4l-6,3.1l3.1,5.9C168.1,149.7,169.4,146.7,169.5,143.6z"/>
				</g>
				<g id="XMLID_684_" class="st0">
					
						<rect id="XMLID_727_" x="0.3" y="-14.3" transform="matrix(-0.8894 0.4571 -0.4571 -0.8894 111.5004 44.4953)" class="st1" width="100" height="100"/>
					
						<rect id="XMLID_726_" x="0.3" y="-14.3" transform="matrix(-0.4571 -0.8894 0.8894 -0.4571 41.6074 96.8669)" class="st2" width="100" height="100"/>
					<path id="XMLID_725_" class="st3" d="M115.6,53.2c-1.2-0.8-2.7-0.9-4-0.2c-1.4,0.7-2.1,2.1-2.1,3.6c0,1.6,1,2.9,2.2,3.8l6-3.1
						L115.6,53.2z"/>
					<path id="XMLID_724_" class="st3" d="M99.7,61.7c-1.2-0.9-2.8-1.1-4.2-0.4c-1.3,0.7-2.1,2-2.2,3.4c-1.2-0.8-2.7-0.9-4-0.2
						c-1.4,0.7-2.1,2.1-2.1,3.6c0,1.6,1,2.9,2.2,3.8l12.1-6.2C101.5,64.1,101,62.7,99.7,61.7z"/>
					<path id="XMLID_723_" class="st3" d="M77.5,73.1c-1.2-0.9-2.8-1.1-4.2-0.4c-1.3,0.7-2.1,2-2.2,3.4c-1.2-0.8-2.7-0.9-4-0.2
						C65.7,76.6,65,78,65,79.5c0,1.6,1,2.9,2.2,3.8l12.1-6.2C79.2,75.6,78.7,74.1,77.5,73.1z"/>
					<path id="XMLID_722_" class="st3" d="M55.2,84.5c-1.2-0.9-2.8-1.1-4.2-0.4c-1.3,0.7-2.1,2-2.2,3.4c-1.2-0.8-2.7-0.9-4-0.2
						c-1.4,0.7-2.1,2.1-2.1,3.6c0,1.6,1,2.9,2.2,3.8L57,88.6C57,87,56.5,85.5,55.2,84.5z"/>
					<path id="XMLID_721_" class="st3" d="M33,96c-1.2-0.9-2.8-1.1-4.2-0.4c-1.3,0.7-2.1,2-2.2,3.4l2.1,4.1l6-3.1
						C34.7,98.4,34.3,97,33,96z"/>
					<path id="XMLID_720_" class="st3" d="M100.9,44.4c-1.3,0.7-2.1,2-2.2,3.4c-1.2-0.8-2.7-0.9-4-0.2c-1.4,0.7-2.1,2.1-2.1,3.6
						c0.1,1.7,1.1,3.1,2.5,4c2.5,1.8,5.7,2.4,8.8,2.6c1.6-2.6,2.9-5.6,3-8.7c0-1.7-0.4-3.3-1.8-4.4
						C103.9,43.9,102.3,43.7,100.9,44.4z"/>
					<path id="XMLID_719_" class="st3" d="M78.7,55.9c-1.3,0.7-2.1,2-2.2,3.4c-1.2-0.8-2.7-0.9-4-0.2c-1.4,0.7-2.1,2.1-2.1,3.6
						c0.1,1.7,1.1,3.1,2.5,4c2.5,1.8,5.7,2.4,8.8,2.6c1.6-2.6,2.9-5.6,3-8.7c0-1.7-0.4-3.3-1.8-4.4C81.7,55.4,80,55.2,78.7,55.9z"/>
					<path id="XMLID_718_" class="st3" d="M56.4,67.3c-1.3,0.7-2.1,2-2.2,3.4c-1.2-0.8-2.7-0.9-4-0.2c-1.4,0.7-2.1,2.1-2.1,3.6
						c0.1,1.7,1.1,3.1,2.5,4c2.5,1.8,5.7,2.4,8.8,2.6c1.6-2.6,2.9-5.6,3-8.7c0-1.7-0.4-3.3-1.8-4.4C59.4,66.8,57.8,66.6,56.4,67.3z"
						/>
					<path id="XMLID_717_" class="st3" d="M34.2,78.7c-1.3,0.7-2.1,2-2.2,3.4c-1.2-0.8-2.7-0.9-4-0.2c-1.4,0.7-2.1,2.1-2.1,3.6
						c0.1,1.7,1.1,3.1,2.5,4c2.5,1.8,5.7,2.4,8.8,2.6c1.6-2.6,2.9-5.6,3-8.7c0-1.7-0.4-3.3-1.8-4.4C37.2,78.2,35.6,78,34.2,78.7z"/>
					<path id="XMLID_716_" class="st3" d="M100.1,30.8c-1.4,0.7-2.1,2.1-2.1,3.6c0.1,1.7,1.1,3.1,2.5,4c2.5,1.8,5.7,2.4,8.8,2.6
						L104.2,31C103,30.2,101.5,30.1,100.1,30.8z"/>
					<path id="XMLID_715_" class="st3" d="M84.1,39c-1.3,0.7-2.1,2-2.2,3.4c-1.2-0.8-2.7-0.9-4-0.2c-1.4,0.7-2.1,2.1-2.1,3.6
						c0.1,1.7,1.1,3.1,2.5,4c2.5,1.8,5.7,2.4,8.8,2.6c1.6-2.6,2.9-5.6,3-8.7c0-1.7-0.4-3.3-1.8-4.4C87.1,38.5,85.4,38.3,84.1,39z"/>
					<path id="XMLID_714_" class="st3" d="M61.8,50.4c-1.3,0.7-2.1,2-2.2,3.4c-1.2-0.8-2.7-0.9-4-0.2c-1.4,0.7-2.1,2.1-2.1,3.6
						c0.1,1.7,1.1,3.1,2.5,4c2.5,1.8,5.7,2.4,8.8,2.6c1.6-2.6,2.9-5.6,3-8.7c0-1.7-0.4-3.3-1.8-4.4C64.8,50,63.2,49.7,61.8,50.4z"/>
					<path id="XMLID_713_" class="st3" d="M39.6,61.9c-1.3,0.7-2.1,2-2.2,3.4c-1.2-0.8-2.7-0.9-4-0.2c-1.4,0.7-2.1,2.1-2.1,3.6
						c0.1,1.7,1.1,3.1,2.5,4c2.5,1.8,5.7,2.4,8.8,2.6c1.6-2.6,2.9-5.6,3-8.7c0-1.7-0.4-3.3-1.8-4.4C42.6,61.4,41,61.2,39.6,61.9z"/>
					<path id="XMLID_712_" class="st3" d="M23.3,78.1c0-1.7-0.4-3.3-1.8-4.4c-1.2-0.9-2.8-1.1-4.2-0.4c-1.3,0.7-2.1,2-2.2,3.4
						l5.2,10.1C21.9,84.2,23.3,81.2,23.3,78.1z"/>
					<path id="XMLID_711_" class="st3" d="M89.5,22.2c-1.3,0.7-2.1,2-2.2,3.4c-1.2-0.8-2.7-0.9-4-0.2c-1.4,0.7-2.1,2.1-2.1,3.6
						c0.1,1.7,1.1,3.1,2.5,4c2.5,1.8,5.7,2.4,8.8,2.6c1.6-2.6,2.9-5.6,3-8.7c0-1.7-0.4-3.3-1.8-4.4C92.5,21.7,90.9,21.5,89.5,22.2z"
						/>
					<path id="XMLID_710_" class="st3" d="M67.2,33.6c-1.3,0.7-2.1,2-2.2,3.4c-1.2-0.8-2.7-0.9-4-0.2c-1.4,0.7-2.1,2.1-2.1,3.6
						c0.1,1.7,1.1,3.1,2.5,4c2.5,1.8,5.7,2.4,8.8,2.6c1.6-2.6,2.9-5.6,3-8.7c0-1.7-0.4-3.3-1.8-4.4C70.2,33.1,68.6,32.9,67.2,33.6z"
						/>
					<path id="XMLID_709_" class="st3" d="M45,45c-1.3,0.7-2.1,2-2.2,3.4c-1.2-0.8-2.7-0.9-4-0.2c-1.4,0.7-2.1,2.1-2.1,3.6
						c0.1,1.7,1.1,3.1,2.5,4c2.5,1.8,5.7,2.4,8.8,2.6c1.6-2.6,2.9-5.6,3-8.7c0-1.7-0.4-3.3-1.8-4.4C48,44.6,46.4,44.3,45,45z"/>
					<path id="XMLID_708_" class="st3" d="M22.8,56.5c-1.3,0.7-2.1,2-2.2,3.4c-1.2-0.8-2.7-0.9-4-0.2c-1.4,0.7-2.1,2.1-2.1,3.6
						c0.1,1.7,1.1,3.1,2.5,4c2.5,1.8,5.7,2.4,8.8,2.6c1.6-2.6,2.9-5.6,3-8.7c0-1.7-0.4-3.3-1.8-4.4C25.7,56,24.1,55.8,22.8,56.5z"/>
					<path id="XMLID_707_" class="st3" d="M88.7,8.5c-1.4,0.7-2.1,2.1-2.1,3.6c0.1,1.7,1.1,3.1,2.5,4c2.5,1.8,5.7,2.4,8.8,2.6
						L92.7,8.7C91.6,8,90,7.8,88.7,8.5z"/>
					<path id="XMLID_706_" class="st3" d="M72.7,16.8c-1.3,0.7-2.1,2-2.2,3.4c-1.2-0.8-2.7-0.9-4-0.2c-1.4,0.7-2.1,2.1-2.1,3.6
						c0.1,1.7,1.1,3.1,2.5,4c2.5,1.8,5.7,2.4,8.8,2.6c1.6-2.6,2.9-5.6,3-8.7c0-1.7-0.4-3.3-1.8-4.4C75.6,16.3,74,16.1,72.7,16.8z"/>
					<path id="XMLID_705_" class="st3" d="M50.4,28.2c-1.3,0.7-2.1,2-2.2,3.4c-1.2-0.8-2.7-0.9-4-0.2c-1.4,0.7-2.1,2.1-2.1,3.6
						c0.1,1.7,1.1,3.1,2.5,4c2.5,1.8,5.7,2.4,8.8,2.6c1.6-2.6,2.9-5.6,3-8.7c0-1.7-0.4-3.3-1.8-4.4C53.4,27.7,51.8,27.5,50.4,28.2z"
						/>
					<path id="XMLID_704_" class="st3" d="M28.2,39.6c-1.3,0.7-2.1,2-2.2,3.4c-1.2-0.8-2.7-0.9-4-0.2c-1.4,0.7-2.1,2.1-2.1,3.6
						c0.1,1.7,1.1,3.1,2.5,4c2.5,1.8,5.7,2.4,8.8,2.6c1.6-2.6,2.9-5.6,3-8.7c0-1.7-0.4-3.3-1.8-4.4C31.1,39.1,29.5,38.9,28.2,39.6z"
						/>
					<path id="XMLID_703_" class="st3" d="M11.9,55.9c0-1.7-0.4-3.3-1.8-4.4c-1.2-0.9-2.8-1.1-4.2-0.4c-1.3,0.7-2.1,2-2.2,3.4
						l5.2,10.1C10.5,61.9,11.9,59,11.9,55.9z"/>
					<path id="XMLID_702_" class="st3" d="M78.1-0.1c-1.3,0.7-2.1,2-2.2,3.4c-1.2-0.8-2.7-0.9-4-0.2c-1.4,0.7-2.1,2.1-2.1,3.6
						c0.1,1.7,1.1,3.1,2.5,4c2.5,1.8,5.7,2.4,8.8,2.6c1.6-2.6,2.9-5.6,3-8.7c0-1.7-0.4-3.3-1.8-4.4C81-0.6,79.4-0.8,78.1-0.1z"/>
					<path id="XMLID_701_" class="st3" d="M55.8,11.4c-1.3,0.7-2.1,2-2.2,3.4c-1.2-0.8-2.7-0.9-4-0.2c-1.4,0.7-2.1,2.1-2.1,3.6
						c0.1,1.7,1.1,3.1,2.5,4c2.5,1.8,5.7,2.4,8.8,2.6c1.6-2.6,2.9-5.6,3-8.7c0-1.7-0.4-3.3-1.8-4.4C58.8,10.9,57.2,10.7,55.8,11.4z"
						/>
					<path id="XMLID_700_" class="st3" d="M33.6,22.8c-1.3,0.7-2.1,2-2.2,3.4c-1.2-0.8-2.7-0.9-4-0.2c-1.4,0.7-2.1,2.1-2.1,3.6
						c0.1,1.7,1.1,3.1,2.5,4c2.5,1.8,5.7,2.4,8.8,2.6c1.6-2.6,2.9-5.6,3-8.7c0-1.7-0.4-3.3-1.8-4.4C36.6,22.3,34.9,22.1,33.6,22.8z"
						/>
					<path id="XMLID_699_" class="st3" d="M11.3,34.2c-1.3,0.7-2.1,2-2.2,3.4c-1.2-0.8-2.7-0.9-4-0.2C3.8,38.1,3,39.5,3,41.1
						c0.1,1.7,1.1,3.1,2.5,4c2.5,1.8,5.7,2.4,8.8,2.6c1.6-2.6,2.9-5.6,3-8.7c0-1.7-0.4-3.3-1.8-4.4C14.3,33.7,12.7,33.5,11.3,34.2z"
						/>
					<path id="XMLID_698_" class="st3" d="M77.3-13.7c-1.4,0.7-2.1,2.1-2.1,3.6c0.1,1.7,1.1,3.1,2.5,4c2.5,1.8,5.7,2.4,8.8,2.6
						l-5.2-10.1C80.1-14.3,78.6-14.4,77.3-13.7z"/>
					<path id="XMLID_697_" class="st3" d="M61.2-5.5c-1.3,0.7-2.1,2-2.2,3.4c-1.2-0.8-2.7-0.9-4-0.2c-1.4,0.7-2.1,2.1-2.1,3.6
						c0.1,1.7,1.1,3.1,2.5,4C58,7.1,61.2,7.8,64.2,8c1.6-2.6,2.9-5.6,3-8.7c0-1.7-0.4-3.3-1.8-4.4C64.2-6,62.6-6.2,61.2-5.5z"/>
					<path id="XMLID_696_" class="st3" d="M39,6c-1.3,0.7-2.1,2-2.2,3.4c-1.2-0.8-2.7-0.9-4-0.2c-1.4,0.7-2.1,2.1-2.1,3.6
						c0.1,1.7,1.1,3.1,2.5,4c2.5,1.8,5.7,2.4,8.8,2.6c1.6-2.6,2.9-5.6,3-8.7c0-1.7-0.4-3.3-1.8-4.4C42,5.5,40.3,5.3,39,6z"/>
					<path id="XMLID_695_" class="st3" d="M16.7,17.4c-1.3,0.7-2.1,2-2.2,3.4c-1.2-0.8-2.7-0.9-4-0.2c-1.4,0.7-2.1,2.1-2.1,3.6
						c0.1,1.7,1.1,3.1,2.5,4c2.5,1.8,5.7,2.4,8.8,2.6c1.6-2.6,2.9-5.6,3-8.7c0-1.7-0.4-3.3-1.8-4.4C19.7,16.9,18.1,16.7,16.7,17.4z"
						/>
					<path id="XMLID_694_" class="st3" d="M0.5,33.6c0-1.7-0.4-3.3-1.8-4.4c-1.2-0.9-2.8-1.1-4.2-0.4c-1.3,0.7-2.1,2-2.2,3.4
						l5.2,10.1C-0.9,39.7,0.4,36.7,0.5,33.6z"/>
					<path id="XMLID_693_" class="st3" d="M66.6-22.3c-1.3,0.7-2.1,2-2.2,3.4c-1.2-0.8-2.7-0.9-4-0.2c-1.4,0.7-2.1,2.1-2.1,3.6
						c0.1,1.7,1.1,3.1,2.5,4c2.5,1.8,5.7,2.4,8.8,2.6c1.6-2.6,2.9-5.6,3-8.7c0-1.7-0.4-3.3-1.8-4.4C69.6-22.8,68-23,66.6-22.3z"/>
					<path id="XMLID_692_" class="st3" d="M44.4-10.9c-1.3,0.7-2.1,2-2.2,3.4c-1.2-0.8-2.7-0.9-4-0.2c-1.4,0.7-2.1,2.1-2.1,3.6
						c0.1,1.7,1.1,3.1,2.5,4c2.5,1.8,5.7,2.4,8.8,2.6C49,0,50.3-3,50.4-6.1c0-1.7-0.4-3.3-1.8-4.4C47.4-11.4,45.7-11.6,44.4-10.9z"
						/>
					<path id="XMLID_691_" class="st3" d="M22.1,0.6C20.8,1.2,20,2.6,20,4c-1.2-0.8-2.7-0.9-4-0.2c-1.4,0.7-2.1,2.1-2.1,3.6
						c0.1,1.7,1.1,3.1,2.5,4c2.5,1.8,5.7,2.4,8.8,2.6c1.6-2.6,2.9-5.6,3-8.7c0-1.7-0.4-3.3-1.8-4.4C25.1,0.1,23.5-0.1,22.1,0.6z"/>
					<path id="XMLID_690_" class="st3" d="M-0.1,12c-1.3,0.7-2.1,2-2.2,3.4c-1.2-0.8-2.7-0.9-4-0.2c-1.4,0.7-2.1,2.1-2.1,3.6
						c0.1,1.7,1.1,3.1,2.5,4c2.5,1.8,5.7,2.4,8.8,2.6c1.6-2.6,2.9-5.6,3-8.7c0-1.7-0.4-3.3-1.8-4.4C2.9,11.5,1.3,11.3-0.1,12z"/>
					<path id="XMLID_689_" class="st3" d="M66-28.5c0.1,0.1,0.2,0.2,0.3,0.2c2.5,1.8,5.7,2.4,8.8,2.6L72-31.6L66-28.5z"/>
					<path id="XMLID_688_" class="st3" d="M52.8-14.2c1.6-2.6,2.9-5.6,3-8.7c0-0.1,0-0.3,0-0.4l-12.1,6.2c0.1,0.1,0.2,0.2,0.3,0.2
						C46.6-15.1,49.8-14.5,52.8-14.2z"/>
					<path id="XMLID_687_" class="st3" d="M30.6-2.8c1.6-2.6,2.9-5.6,3-8.7c0-0.1,0-0.3,0-0.4L21.5-5.7c0.1,0.1,0.2,0.2,0.3,0.2
						C24.3-3.7,27.5-3.1,30.6-2.8z"/>
					<path id="XMLID_686_" class="st3" d="M8.3,8.6C9.9,6,11.2,3,11.3,0c0-0.1,0-0.3,0-0.4L-0.8,5.8C-0.7,5.9-0.6,5.9-0.5,6
						C2.1,7.8,5.3,8.4,8.3,8.6z"/>
					<path id="XMLID_685_" class="st3" d="M-11,11.4c0-0.1,0-0.3,0-0.4l-6,3.1l3.1,5.9C-12.4,17.4-11,14.5-11,11.4z"/>
				</g>
				<g id="XMLID_640_" class="st0">
					
						<rect id="XMLID_683_" x="46.1" y="74.7" transform="matrix(-0.8894 0.4571 -0.4571 -0.8894 238.5678 191.7103)" class="st1" width="100" height="100"/>
					
						<rect id="XMLID_682_" x="46.1" y="74.7" transform="matrix(-0.4571 -0.8894 0.8894 -0.4571 29.0966 267.1851)" class="st2" width="100" height="100"/>
					<path id="XMLID_681_" class="st3" d="M161.3,142.2c-1.2-0.8-2.7-0.9-4-0.2c-1.4,0.7-2.1,2.1-2.1,3.6c0,1.6,1,2.9,2.2,3.8l6-3.1
						L161.3,142.2z"/>
					<path id="XMLID_680_" class="st3" d="M145.4,150.7c-1.2-0.9-2.8-1.1-4.2-0.4c-1.3,0.7-2.1,2-2.2,3.4c-1.2-0.8-2.7-0.9-4-0.2
						c-1.4,0.7-2.1,2.1-2.1,3.6c0,1.6,1,2.9,2.2,3.8l12.1-6.2C147.2,153.1,146.7,151.6,145.4,150.7z"/>
					<path id="XMLID_679_" class="st3" d="M123.2,162.1c-1.2-0.9-2.8-1.1-4.2-0.4c-1.3,0.7-2.1,2-2.2,3.4c-1.2-0.8-2.7-0.9-4-0.2
						c-1.4,0.7-2.1,2.1-2.1,3.6c0,1.6,1,2.9,2.2,3.8l12.1-6.2C124.9,164.6,124.5,163.1,123.2,162.1z"/>
					<path id="XMLID_678_" class="st3" d="M100.9,173.5c-1.2-0.9-2.8-1.1-4.2-0.4c-1.3,0.7-2.1,2-2.2,3.4c-1.2-0.8-2.7-0.9-4-0.2
						c-1.4,0.7-2.1,2.1-2.1,3.6c0,1.6,1,2.9,2.2,3.8l12.1-6.2C102.7,176,102.2,174.5,100.9,173.5z"/>
					<path id="XMLID_677_" class="st3" d="M78.7,185c-1.2-0.9-2.8-1.1-4.2-0.4c-1.3,0.7-2.1,2-2.2,3.4l2.1,4.1l6-3.1
						C80.5,187.4,80,185.9,78.7,185z"/>
					<path id="XMLID_676_" class="st3" d="M146.7,133.4c-1.3,0.7-2.1,2-2.2,3.4c-1.2-0.8-2.7-0.9-4-0.2c-1.4,0.7-2.1,2.1-2.1,3.6
						c0.1,1.7,1.1,3.1,2.5,4c2.5,1.8,5.7,2.4,8.8,2.6c1.6-2.6,2.9-5.6,3-8.7c0-1.7-0.4-3.3-1.8-4.4
						C149.6,132.9,148,132.7,146.7,133.4z"/>
					<path id="XMLID_675_" class="st3" d="M124.4,144.8c-1.3,0.7-2.1,2-2.2,3.4c-1.2-0.8-2.7-0.9-4-0.2c-1.4,0.7-2.1,2.1-2.1,3.6
						c0.1,1.7,1.1,3.1,2.5,4c2.5,1.8,5.7,2.4,8.8,2.6c1.6-2.6,2.9-5.6,3-8.7c0-1.7-0.4-3.3-1.8-4.4
						C127.4,144.3,125.8,144.1,124.4,144.8z"/>
					<path id="XMLID_674_" class="st3" d="M102.2,156.3c-1.3,0.7-2.1,2-2.2,3.4c-1.2-0.8-2.7-0.9-4-0.2c-1.4,0.7-2.1,2.1-2.1,3.6
						c0.1,1.7,1.1,3.1,2.5,4c2.5,1.8,5.7,2.4,8.8,2.6c1.6-2.6,2.9-5.6,3-8.7c0-1.7-0.4-3.3-1.8-4.4
						C105.1,155.8,103.5,155.6,102.2,156.3z"/>
					<path id="XMLID_673_" class="st3" d="M79.9,167.7c-1.3,0.7-2.1,2-2.2,3.4c-1.2-0.8-2.7-0.9-4-0.2c-1.4,0.7-2.1,2.1-2.1,3.6
						c0.1,1.7,1.1,3.1,2.5,4c2.5,1.8,5.7,2.4,8.8,2.6c1.6-2.6,2.9-5.6,3-8.7c0-1.7-0.4-3.3-1.8-4.4C82.9,167.2,81.3,167,79.9,167.7z
						"/>
					<path id="XMLID_672_" class="st3" d="M145.9,119.7c-1.4,0.7-2.1,2.1-2.1,3.6c0.1,1.7,1.1,3.1,2.5,4c2.5,1.8,5.7,2.4,8.8,2.6
						l-5.2-10.1C148.7,119.2,147.2,119.1,145.9,119.7z"/>
					<path id="XMLID_671_" class="st3" d="M129.8,128c-1.3,0.7-2.1,2-2.2,3.4c-1.2-0.8-2.7-0.9-4-0.2c-1.4,0.7-2.1,2.1-2.1,3.6
						c0.1,1.7,1.1,3.1,2.5,4c2.5,1.8,5.7,2.4,8.8,2.6c1.6-2.6,2.9-5.6,3-8.7c0-1.7-0.4-3.3-1.8-4.4
						C132.8,127.5,131.2,127.3,129.8,128z"/>
					<path id="XMLID_670_" class="st3" d="M107.6,139.4c-1.3,0.7-2.1,2-2.2,3.4c-1.2-0.8-2.7-0.9-4-0.2c-1.4,0.7-2.1,2.1-2.1,3.6
						c0.1,1.7,1.1,3.1,2.5,4c2.5,1.8,5.7,2.4,8.8,2.6c1.6-2.6,2.9-5.6,3-8.7c0-1.7-0.4-3.3-1.8-4.4
						C110.5,138.9,108.9,138.7,107.6,139.4z"/>
					<path id="XMLID_669_" class="st3" d="M85.3,150.9c-1.3,0.7-2.1,2-2.2,3.4c-1.2-0.8-2.7-0.9-4-0.2c-1.4,0.7-2.1,2.1-2.1,3.6
						c0.1,1.7,1.1,3.1,2.5,4c2.5,1.8,5.7,2.4,8.8,2.6c1.6-2.6,2.9-5.6,3-8.7c0-1.7-0.4-3.3-1.8-4.4
						C88.3,150.4,86.7,150.2,85.3,150.9z"/>
					<path id="XMLID_668_" class="st3" d="M69.1,167.1c0-1.7-0.4-3.3-1.8-4.4c-1.2-0.9-2.8-1.1-4.2-0.4c-1.3,0.7-2.1,2-2.2,3.4
						l5.2,10.1C67.7,173.2,69,170.2,69.1,167.1z"/>
					<path id="XMLID_667_" class="st3" d="M135.2,111.2c-1.3,0.7-2.1,2-2.2,3.4c-1.2-0.8-2.7-0.9-4-0.2c-1.4,0.7-2.1,2.1-2.1,3.6
						c0.1,1.7,1.1,3.1,2.5,4c2.5,1.8,5.7,2.4,8.8,2.6c1.6-2.6,2.9-5.6,3-8.7c0-1.7-0.4-3.3-1.8-4.4
						C138.2,110.7,136.6,110.5,135.2,111.2z"/>
					<path id="XMLID_666_" class="st3" d="M113,122.6c-1.3,0.7-2.1,2-2.2,3.4c-1.2-0.8-2.7-0.9-4-0.2c-1.4,0.7-2.1,2.1-2.1,3.6
						c0.1,1.7,1.1,3.1,2.5,4c2.5,1.8,5.7,2.4,8.8,2.6c1.6-2.6,2.9-5.6,3-8.7c0-1.7-0.4-3.3-1.8-4.4C116,122.1,114.3,121.9,113,122.6
						z"/>
					<path id="XMLID_665_" class="st3" d="M90.7,134c-1.3,0.7-2.1,2-2.2,3.4c-1.2-0.8-2.7-0.9-4-0.2c-1.4,0.7-2.1,2.1-2.1,3.6
						c0.1,1.7,1.1,3.1,2.5,4c2.5,1.8,5.7,2.4,8.8,2.6c1.6-2.6,2.9-5.6,3-8.7c0-1.7-0.4-3.3-1.8-4.4C93.7,133.5,92.1,133.3,90.7,134z
						"/>
					<path id="XMLID_664_" class="st3" d="M68.5,145.5c-1.3,0.7-2.1,2-2.2,3.4c-1.2-0.8-2.7-0.9-4-0.2c-1.4,0.7-2.1,2.1-2.1,3.6
						c0.1,1.7,1.1,3.1,2.5,4c2.5,1.8,5.7,2.4,8.8,2.6c1.6-2.6,2.9-5.6,3-8.7c0-1.7-0.4-3.3-1.8-4.4C71.5,145,69.8,144.8,68.5,145.5z
						"/>
					<path id="XMLID_663_" class="st3" d="M134.4,97.5c-1.4,0.7-2.1,2.1-2.1,3.6c0.1,1.7,1.1,3.1,2.5,4c2.5,1.8,5.7,2.4,8.8,2.6
						l-5.2-10.1C137.3,97,135.8,96.8,134.4,97.5z"/>
					<path id="XMLID_662_" class="st3" d="M118.4,105.7c-1.3,0.7-2.1,2-2.2,3.4c-1.2-0.8-2.7-0.9-4-0.2c-1.4,0.7-2.1,2.1-2.1,3.6
						c0.1,1.7,1.1,3.1,2.5,4c2.5,1.8,5.7,2.4,8.8,2.6c1.6-2.6,2.9-5.6,3-8.7c0-1.7-0.4-3.3-1.8-4.4
						C121.4,105.3,119.7,105.1,118.4,105.7z"/>
					<path id="XMLID_661_" class="st3" d="M96.1,117.2c-1.3,0.7-2.1,2-2.2,3.4c-1.2-0.8-2.7-0.9-4-0.2c-1.4,0.7-2.1,2.1-2.1,3.6
						c0.1,1.7,1.1,3.1,2.5,4c2.5,1.8,5.7,2.4,8.8,2.6c1.6-2.6,2.9-5.6,3-8.7c0-1.7-0.4-3.3-1.8-4.4
						C99.1,116.7,97.5,116.5,96.1,117.2z"/>
					<path id="XMLID_660_" class="st3" d="M73.9,128.6c-1.3,0.7-2.1,2-2.2,3.4c-1.2-0.8-2.7-0.9-4-0.2c-1.4,0.7-2.1,2.1-2.1,3.6
						c0.1,1.7,1.1,3.1,2.5,4c2.5,1.8,5.7,2.4,8.8,2.6c1.6-2.6,2.9-5.6,3-8.7c0-1.7-0.4-3.3-1.8-4.4
						C76.9,128.1,75.3,127.9,73.9,128.6z"/>
					<path id="XMLID_659_" class="st3" d="M57.6,144.9c0-1.7-0.4-3.3-1.8-4.4c-1.2-0.9-2.8-1.1-4.2-0.4c-1.3,0.7-2.1,2-2.2,3.4
						l5.2,10.1C56.2,150.9,57.6,147.9,57.6,144.9z"/>
					<path id="XMLID_658_" class="st3" d="M123.8,88.9c-1.3,0.7-2.1,2-2.2,3.4c-1.2-0.8-2.7-0.9-4-0.2c-1.4,0.7-2.1,2.1-2.1,3.6
						c0.1,1.7,1.1,3.1,2.5,4c2.5,1.8,5.7,2.4,8.8,2.6c1.6-2.6,2.9-5.6,3-8.7c0-1.7-0.4-3.3-1.8-4.4
						C126.8,88.4,125.1,88.2,123.8,88.9z"/>
					<path id="XMLID_657_" class="st3" d="M101.5,100.3c-1.3,0.7-2.1,2-2.2,3.4c-1.2-0.8-2.7-0.9-4-0.2c-1.4,0.7-2.1,2.1-2.1,3.6
						c0.1,1.7,1.1,3.1,2.5,4c2.5,1.8,5.7,2.4,8.8,2.6c1.6-2.6,2.9-5.6,3-8.7c0-1.7-0.4-3.3-1.8-4.4
						C104.5,99.9,102.9,99.6,101.5,100.3z"/>
					<path id="XMLID_656_" class="st3" d="M79.3,111.8c-1.3,0.7-2.1,2-2.2,3.4c-1.2-0.8-2.7-0.9-4-0.2c-1.4,0.7-2.1,2.1-2.1,3.6
						c0.1,1.7,1.1,3.1,2.5,4c2.5,1.8,5.7,2.4,8.8,2.6c1.6-2.6,2.9-5.6,3-8.7c0-1.7-0.4-3.3-1.8-4.4
						C82.3,111.3,80.7,111.1,79.3,111.8z"/>
					<path id="XMLID_655_" class="st3" d="M57.1,123.2c-1.3,0.7-2.1,2-2.2,3.4c-1.2-0.8-2.7-0.9-4-0.2c-1.4,0.7-2.1,2.1-2.1,3.6
						c0.1,1.7,1.1,3.1,2.5,4c2.5,1.8,5.7,2.4,8.8,2.6c1.6-2.6,2.9-5.6,3-8.7c0-1.7-0.4-3.3-1.8-4.4C60,122.7,58.4,122.5,57.1,123.2z
						"/>
					<path id="XMLID_654_" class="st3" d="M123,75.3c-1.4,0.7-2.1,2.1-2.1,3.6c0.1,1.7,1.1,3.1,2.5,4c2.5,1.8,5.7,2.4,8.8,2.6
						L127,75.5C125.9,74.7,124.3,74.6,123,75.3z"/>
					<path id="XMLID_653_" class="st3" d="M107,83.5c-1.3,0.7-2.1,2-2.2,3.4c-1.2-0.8-2.7-0.9-4-0.2c-1.4,0.7-2.1,2.1-2.1,3.6
						c0.1,1.7,1.1,3.1,2.5,4c2.5,1.8,5.7,2.4,8.8,2.6c1.6-2.6,2.9-5.6,3-8.7c0-1.7-0.4-3.3-1.8-4.4C109.9,83,108.3,82.8,107,83.5z"
						/>
					<path id="XMLID_652_" class="st3" d="M84.7,94.9c-1.3,0.7-2.1,2-2.2,3.4c-1.2-0.8-2.7-0.9-4-0.2c-1.4,0.7-2.1,2.1-2.1,3.6
						c0.1,1.7,1.1,3.1,2.5,4c2.5,1.8,5.7,2.4,8.8,2.6c1.6-2.6,2.9-5.6,3-8.7c0-1.7-0.4-3.3-1.8-4.4C87.7,94.4,86.1,94.2,84.7,94.9z"
						/>
					<path id="XMLID_651_" class="st3" d="M62.5,106.4c-1.3,0.7-2.1,2-2.2,3.4c-1.2-0.8-2.7-0.9-4-0.2c-1.4,0.7-2.1,2.1-2.1,3.6
						c0.1,1.7,1.1,3.1,2.5,4c2.5,1.8,5.7,2.4,8.8,2.6c1.6-2.6,2.9-5.6,3-8.7c0-1.7-0.4-3.3-1.8-4.4
						C65.4,105.9,63.8,105.7,62.5,106.4z"/>
					<path id="XMLID_650_" class="st3" d="M46.2,122.6c0-1.7-0.4-3.3-1.8-4.4c-1.2-0.9-2.8-1.1-4.2-0.4c-1.3,0.7-2.1,2-2.2,3.4
						l5.2,10.1C44.8,128.7,46.2,125.7,46.2,122.6z"/>
					<path id="XMLID_649_" class="st3" d="M112.4,66.7c-1.3,0.7-2.1,2-2.2,3.4c-1.2-0.8-2.7-0.9-4-0.2c-1.4,0.7-2.1,2.1-2.1,3.6
						c0.1,1.7,1.1,3.1,2.5,4c2.5,1.8,5.7,2.4,8.8,2.6c1.6-2.6,2.9-5.6,3-8.7c0-1.7-0.4-3.3-1.8-4.4C115.3,66.2,113.7,66,112.4,66.7z
						"/>
					<path id="XMLID_648_" class="st3" d="M90.1,78.1c-1.3,0.7-2.1,2-2.2,3.4c-1.2-0.8-2.7-0.9-4-0.2c-1.4,0.7-2.1,2.1-2.1,3.6
						c0.1,1.7,1.1,3.1,2.5,4c2.5,1.8,5.7,2.4,8.8,2.6c1.6-2.6,2.9-5.6,3-8.7c0-1.7-0.4-3.3-1.8-4.4C93.1,77.6,91.5,77.4,90.1,78.1z"
						/>
					<path id="XMLID_647_" class="st3" d="M67.9,89.5c-1.3,0.7-2.1,2-2.2,3.4c-1.2-0.8-2.7-0.9-4-0.2c-1.4,0.7-2.1,2.1-2.1,3.6
						c0.1,1.7,1.1,3.1,2.5,4c2.5,1.8,5.7,2.4,8.8,2.6c1.6-2.6,2.9-5.6,3-8.7c0-1.7-0.4-3.3-1.8-4.4C70.8,89,69.2,88.8,67.9,89.5z"/>
					<path id="XMLID_646_" class="st3" d="M45.6,101c-1.3,0.7-2.1,2-2.2,3.4c-1.2-0.8-2.7-0.9-4-0.2c-1.4,0.7-2.1,2.1-2.1,3.6
						c0.1,1.7,1.1,3.1,2.5,4c2.5,1.8,5.7,2.4,8.8,2.6c1.6-2.6,2.9-5.6,3-8.7c0-1.7-0.4-3.3-1.8-4.4C48.6,100.5,47,100.3,45.6,101z"
						/>
					<path id="XMLID_645_" class="st3" d="M111.7,60.5c0.1,0.1,0.2,0.2,0.3,0.2c2.5,1.8,5.7,2.4,8.8,2.6l-3.1-5.9L111.7,60.5z"/>
					<path id="XMLID_644_" class="st3" d="M98.5,74.7c1.6-2.6,2.9-5.6,3-8.7c0-0.1,0-0.3,0-0.4l-12.1,6.2c0.1,0.1,0.2,0.2,0.3,0.2
						C92.3,73.9,95.5,74.5,98.5,74.7z"/>
					<path id="XMLID_643_" class="st3" d="M76.3,86.2c1.6-2.6,2.9-5.6,3-8.7c0-0.1,0-0.3,0-0.4l-12.1,6.2c0.1,0.1,0.2,0.2,0.3,0.2
						C70,85.3,73.3,85.9,76.3,86.2z"/>
					<path id="XMLID_642_" class="st3" d="M54,97.6c1.6-2.6,2.9-5.6,3-8.7c0-0.1,0-0.3,0-0.4L45,94.8c0.1,0.1,0.2,0.2,0.3,0.2
						C47.8,96.7,51,97.4,54,97.6z"/>
					<path id="XMLID_641_" class="st3" d="M34.8,100.4c0-0.1,0-0.3,0-0.4l-6,3.1l3.1,5.9C33.4,106.4,34.7,103.4,34.8,100.4z"/>
				</g>
				<g id="XMLID_596_" class="st0">
					
						<rect id="XMLID_639_" x="91.8" y="163.7" transform="matrix(-0.8894 0.4571 -0.4571 -0.8894 365.6352 338.9253)" class="st1" width="100" height="100"/>
					
						<rect id="XMLID_638_" x="91.8" y="163.7" transform="matrix(-0.4571 -0.8894 0.8894 -0.4571 16.5858 437.5033)" class="st2" width="100" height="100"/>
					<path id="XMLID_637_" class="st3" d="M207.1,231.2c-1.2-0.8-2.7-0.9-4-0.2c-1.4,0.7-2.1,2.1-2.1,3.6c0,1.6,1,2.9,2.2,3.8l6-3.1
						L207.1,231.2z"/>
					<path id="XMLID_636_" class="st3" d="M191.2,239.6c-1.2-0.9-2.8-1.1-4.2-0.4c-1.3,0.7-2.1,2-2.2,3.4c-1.2-0.8-2.7-0.9-4-0.2
						c-1.4,0.7-2.1,2.1-2.1,3.6c0,1.6,1,2.9,2.2,3.8l12.1-6.2C192.9,242.1,192.4,240.6,191.2,239.6z"/>
					<path id="XMLID_635_" class="st3" d="M168.9,251.1c-1.2-0.9-2.8-1.1-4.2-0.4c-1.3,0.7-2.1,2-2.2,3.4c-1.2-0.8-2.7-0.9-4-0.2
						c-1.4,0.7-2.1,2.1-2.1,3.6c0,1.6,1,2.9,2.2,3.8l12.1-6.2C170.7,253.5,170.2,252.1,168.9,251.1z"/>
					<path id="XMLID_634_" class="st3" d="M146.7,262.5c-1.2-0.9-2.8-1.1-4.2-0.4c-1.3,0.7-2.1,2-2.2,3.4c-1.2-0.8-2.7-0.9-4-0.2
						c-1.4,0.7-2.1,2.1-2.1,3.6c0,1.6,1,2.9,2.2,3.8l12.1-6.2C148.4,265,147.9,263.5,146.7,262.5z"/>
					<path id="XMLID_633_" class="st3" d="M124.4,273.9c-1.2-0.9-2.8-1.1-4.2-0.4c-1.3,0.7-2.1,2-2.2,3.4l2.1,4.1l6-3.1
						C126.2,276.4,125.7,274.9,124.4,273.9z"/>
					<path id="XMLID_632_" class="st3" d="M192.4,222.4c-1.3,0.7-2.1,2-2.2,3.4c-1.2-0.8-2.7-0.9-4-0.2c-1.4,0.7-2.1,2.1-2.1,3.6
						c0.1,1.7,1.1,3.1,2.5,4c2.5,1.8,5.7,2.4,8.8,2.6c1.6-2.6,2.9-5.6,3-8.7c0-1.7-0.4-3.3-1.8-4.4
						C195.4,221.9,193.7,221.7,192.4,222.4z"/>
					<path id="XMLID_631_" class="st3" d="M170.1,233.8c-1.3,0.7-2.1,2-2.2,3.4c-1.2-0.8-2.7-0.9-4-0.2c-1.4,0.7-2.1,2.1-2.1,3.6
						c0.1,1.7,1.1,3.1,2.5,4c2.5,1.8,5.7,2.4,8.8,2.6c1.6-2.6,2.9-5.6,3-8.7c0-1.7-0.4-3.3-1.8-4.4
						C173.1,233.3,171.5,233.1,170.1,233.8z"/>
					<path id="XMLID_630_" class="st3" d="M147.9,245.2c-1.3,0.7-2.1,2-2.2,3.4c-1.2-0.8-2.7-0.9-4-0.2c-1.4,0.7-2.1,2.1-2.1,3.6
						c0.1,1.7,1.1,3.1,2.5,4c2.5,1.8,5.7,2.4,8.8,2.6c1.6-2.6,2.9-5.6,3-8.7c0-1.7-0.4-3.3-1.8-4.4
						C150.9,244.8,149.2,244.5,147.9,245.2z"/>
					<path id="XMLID_629_" class="st3" d="M125.6,256.7c-1.3,0.7-2.1,2-2.2,3.4c-1.2-0.8-2.7-0.9-4-0.2c-1.4,0.7-2.1,2.1-2.1,3.6
						c0.1,1.7,1.1,3.1,2.5,4c2.5,1.8,5.7,2.4,8.8,2.6c1.6-2.6,2.9-5.6,3-8.7c0-1.7-0.4-3.3-1.8-4.4C128.6,256.2,127,256,125.6,256.7
						z"/>
					<path id="XMLID_628_" class="st3" d="M191.6,208.7c-1.4,0.7-2.1,2.1-2.1,3.6c0.1,1.7,1.1,3.1,2.5,4c2.5,1.8,5.7,2.4,8.8,2.6
						l-5.2-10.1C194.5,208.2,192.9,208,191.6,208.7z"/>
					<path id="XMLID_627_" class="st3" d="M175.5,217c-1.3,0.7-2.1,2-2.2,3.4c-1.2-0.8-2.7-0.9-4-0.2c-1.4,0.7-2.1,2.1-2.1,3.6
						c0.1,1.7,1.1,3.1,2.5,4c2.5,1.8,5.7,2.4,8.8,2.6c1.6-2.6,2.9-5.6,3-8.7c0-1.7-0.4-3.3-1.8-4.4
						C178.5,216.5,176.9,216.3,175.5,217z"/>
					<path id="XMLID_626_" class="st3" d="M153.3,228.4c-1.3,0.7-2.1,2-2.2,3.4c-1.2-0.8-2.7-0.9-4-0.2c-1.4,0.7-2.1,2.1-2.1,3.6
						c0.1,1.7,1.1,3.1,2.5,4c2.5,1.8,5.7,2.4,8.8,2.6c1.6-2.6,2.9-5.6,3-8.7c0-1.7-0.4-3.3-1.8-4.4
						C156.3,227.9,154.7,227.7,153.3,228.4z"/>
					<path id="XMLID_625_" class="st3" d="M131.1,239.8c-1.3,0.7-2.1,2-2.2,3.4c-1.2-0.8-2.7-0.9-4-0.2c-1.4,0.7-2.1,2.1-2.1,3.6
						c0.1,1.7,1.1,3.1,2.5,4c2.5,1.8,5.7,2.4,8.8,2.6c1.6-2.6,2.9-5.6,3-8.7c0-1.7-0.4-3.3-1.8-4.4
						C134,239.3,132.4,239.1,131.1,239.8z"/>
					<path id="XMLID_624_" class="st3" d="M114.8,256.1c0-1.7-0.4-3.3-1.8-4.4c-1.2-0.9-2.8-1.1-4.2-0.4c-1.3,0.7-2.1,2-2.2,3.4
						l5.2,10.1C113.4,262.1,114.7,259.2,114.8,256.1z"/>
					<path id="XMLID_623_" class="st3" d="M180.9,200.1c-1.3,0.7-2.1,2-2.2,3.4c-1.2-0.8-2.7-0.9-4-0.2c-1.4,0.7-2.1,2.1-2.1,3.6
						c0.1,1.7,1.1,3.1,2.5,4c2.5,1.8,5.7,2.4,8.8,2.6c1.6-2.6,2.9-5.6,3-8.7c0-1.7-0.4-3.3-1.8-4.4
						C183.9,199.6,182.3,199.4,180.9,200.1z"/>
					<path id="XMLID_622_" class="st3" d="M158.7,211.6c-1.3,0.7-2.1,2-2.2,3.4c-1.2-0.8-2.7-0.9-4-0.2c-1.4,0.7-2.1,2.1-2.1,3.6
						c0.1,1.7,1.1,3.1,2.5,4c2.5,1.8,5.7,2.4,8.8,2.6c1.6-2.6,2.9-5.6,3-8.7c0-1.7-0.4-3.3-1.8-4.4
						C161.7,211.1,160.1,210.9,158.7,211.6z"/>
					<path id="XMLID_621_" class="st3" d="M136.5,223c-1.3,0.7-2.1,2-2.2,3.4c-1.2-0.8-2.7-0.9-4-0.2c-1.4,0.7-2.1,2.1-2.1,3.6
						c0.1,1.7,1.1,3.1,2.5,4c2.5,1.8,5.7,2.4,8.8,2.6c1.6-2.6,2.9-5.6,3-8.7c0-1.7-0.4-3.3-1.8-4.4
						C139.4,222.5,137.8,222.3,136.5,223z"/>
					<path id="XMLID_620_" class="st3" d="M114.2,234.4c-1.3,0.7-2.1,2-2.2,3.4c-1.2-0.8-2.7-0.9-4-0.2c-1.4,0.7-2.1,2.1-2.1,3.6
						c0.1,1.7,1.1,3.1,2.5,4c2.5,1.8,5.7,2.4,8.8,2.6c1.6-2.6,2.9-5.6,3-8.7c0-1.7-0.4-3.3-1.8-4.4
						C117.2,233.9,115.6,233.7,114.2,234.4z"/>
					<path id="XMLID_619_" class="st3" d="M180.2,186.5c-1.4,0.7-2.1,2.1-2.1,3.6c0.1,1.7,1.1,3.1,2.5,4c2.5,1.8,5.7,2.4,8.8,2.6
						l-5.2-10.1C183,185.9,181.5,185.8,180.2,186.5z"/>
					<path id="XMLID_618_" class="st3" d="M164.1,194.7c-1.3,0.7-2.1,2-2.2,3.4c-1.2-0.8-2.7-0.9-4-0.2c-1.4,0.7-2.1,2.1-2.1,3.6
						c0.1,1.7,1.1,3.1,2.5,4c2.5,1.8,5.7,2.4,8.8,2.6c1.6-2.6,2.9-5.6,3-8.7c0-1.7-0.4-3.3-1.8-4.4
						C167.1,194.2,165.5,194,164.1,194.7z"/>
					<path id="XMLID_617_" class="st3" d="M141.9,206.2c-1.3,0.7-2.1,2-2.2,3.4c-1.2-0.8-2.7-0.9-4-0.2c-1.4,0.7-2.1,2.1-2.1,3.6
						c0.1,1.7,1.1,3.1,2.5,4c2.5,1.8,5.7,2.4,8.8,2.6c1.6-2.6,2.9-5.6,3-8.7c0-1.7-0.4-3.3-1.8-4.4
						C144.8,205.7,143.2,205.5,141.9,206.2z"/>
					<path id="XMLID_616_" class="st3" d="M119.6,217.6c-1.3,0.7-2.1,2-2.2,3.4c-1.2-0.8-2.7-0.9-4-0.2c-1.4,0.7-2.1,2.1-2.1,3.6
						c0.1,1.7,1.1,3.1,2.5,4c2.5,1.8,5.7,2.4,8.8,2.6c1.6-2.6,2.9-5.6,3-8.7c0-1.7-0.4-3.3-1.8-4.4
						C122.6,217.1,121,216.9,119.6,217.6z"/>
					<path id="XMLID_615_" class="st3" d="M103.4,233.8c0-1.7-0.4-3.3-1.8-4.4c-1.2-0.9-2.8-1.1-4.2-0.4c-1.3,0.7-2.1,2-2.2,3.4
						l5.2,10.1C102,239.9,103.3,236.9,103.4,233.8z"/>
					<path id="XMLID_614_" class="st3" d="M169.5,177.9c-1.3,0.7-2.1,2-2.2,3.4c-1.2-0.8-2.7-0.9-4-0.2c-1.4,0.7-2.1,2.1-2.1,3.6
						c0.1,1.7,1.1,3.1,2.5,4c2.5,1.8,5.7,2.4,8.8,2.6c1.6-2.6,2.9-5.6,3-8.7c0-1.7-0.4-3.3-1.8-4.4
						C172.5,177.4,170.9,177.2,169.5,177.9z"/>
					<path id="XMLID_613_" class="st3" d="M147.3,189.3c-1.3,0.7-2.1,2-2.2,3.4c-1.2-0.8-2.7-0.9-4-0.2c-1.4,0.7-2.1,2.1-2.1,3.6
						c0.1,1.7,1.1,3.1,2.5,4c2.5,1.8,5.7,2.4,8.8,2.6c1.6-2.6,2.9-5.6,3-8.7c0-1.7-0.4-3.3-1.8-4.4
						C150.2,188.8,148.6,188.6,147.3,189.3z"/>
					<path id="XMLID_612_" class="st3" d="M125,200.8c-1.3,0.7-2.1,2-2.2,3.4c-1.2-0.8-2.7-0.9-4-0.2c-1.4,0.7-2.1,2.1-2.1,3.6
						c0.1,1.7,1.1,3.1,2.5,4c2.5,1.8,5.7,2.4,8.8,2.6c1.6-2.6,2.9-5.6,3-8.7c0-1.7-0.4-3.3-1.8-4.4C128,200.3,126.4,200.1,125,200.8
						z"/>
					<path id="XMLID_611_" class="st3" d="M102.8,212.2c-1.3,0.7-2.1,2-2.2,3.4c-1.2-0.8-2.7-0.9-4-0.2c-1.4,0.7-2.1,2.1-2.1,3.6
						c0.1,1.7,1.1,3.1,2.5,4c2.5,1.8,5.7,2.4,8.8,2.6c1.6-2.6,2.9-5.6,3-8.7c0-1.7-0.4-3.3-1.8-4.4
						C105.8,211.7,104.1,211.5,102.8,212.2z"/>
					<path id="XMLID_610_" class="st3" d="M168.7,164.2c-1.4,0.7-2.1,2.1-2.1,3.6c0.1,1.7,1.1,3.1,2.5,4c2.5,1.8,5.7,2.4,8.8,2.6
						l-5.2-10.1C171.6,163.7,170.1,163.5,168.7,164.2z"/>
					<path id="XMLID_609_" class="st3" d="M152.7,172.5c-1.3,0.7-2.1,2-2.2,3.4c-1.2-0.8-2.7-0.9-4-0.2c-1.4,0.7-2.1,2.1-2.1,3.6
						c0.1,1.7,1.1,3.1,2.5,4c2.5,1.8,5.7,2.4,8.8,2.6c1.6-2.6,2.9-5.6,3-8.7c0-1.7-0.4-3.3-1.8-4.4C155.7,172,154,171.8,152.7,172.5
						z"/>
					<path id="XMLID_608_" class="st3" d="M130.4,183.9c-1.3,0.7-2.1,2-2.2,3.4c-1.2-0.8-2.7-0.9-4-0.2c-1.4,0.7-2.1,2.1-2.1,3.6
						c0.1,1.7,1.1,3.1,2.5,4c2.5,1.8,5.7,2.4,8.8,2.6c1.6-2.6,2.9-5.6,3-8.7c0-1.7-0.4-3.3-1.8-4.4
						C133.4,183.4,131.8,183.2,130.4,183.9z"/>
					<path id="XMLID_607_" class="st3" d="M108.2,195.3c-1.3,0.7-2.1,2-2.2,3.4c-1.2-0.8-2.7-0.9-4-0.2c-1.4,0.7-2.1,2.1-2.1,3.6
						c0.1,1.7,1.1,3.1,2.5,4c2.5,1.8,5.7,2.4,8.8,2.6c1.6-2.6,2.9-5.6,3-8.7c0-1.7-0.4-3.3-1.8-4.4
						C111.2,194.9,109.5,194.6,108.2,195.3z"/>
					<path id="XMLID_606_" class="st3" d="M91.9,211.6c0-1.7-0.4-3.3-1.8-4.4c-1.2-0.9-2.8-1.1-4.2-0.4c-1.3,0.7-2.1,2-2.2,3.4
						l5.2,10.1C90.5,217.6,91.9,214.7,91.9,211.6z"/>
					<path id="XMLID_605_" class="st3" d="M158.1,155.6c-1.3,0.7-2.1,2-2.2,3.4c-1.2-0.8-2.7-0.9-4-0.2c-1.4,0.7-2.1,2.1-2.1,3.6
						c0.1,1.7,1.1,3.1,2.5,4c2.5,1.8,5.7,2.4,8.8,2.6c1.6-2.6,2.9-5.6,3-8.7c0-1.7-0.4-3.3-1.8-4.4
						C161.1,155.2,159.4,154.9,158.1,155.6z"/>
					<path id="XMLID_604_" class="st3" d="M135.8,167.1c-1.3,0.7-2.1,2-2.2,3.4c-1.2-0.8-2.7-0.9-4-0.2c-1.4,0.7-2.1,2.1-2.1,3.6
						c0.1,1.7,1.1,3.1,2.5,4c2.5,1.8,5.7,2.4,8.8,2.6c1.6-2.6,2.9-5.6,3-8.7c0-1.7-0.4-3.3-1.8-4.4
						C138.8,166.6,137.2,166.4,135.8,167.1z"/>
					<path id="XMLID_603_" class="st3" d="M113.6,178.5c-1.3,0.7-2.1,2-2.2,3.4c-1.2-0.8-2.7-0.9-4-0.2c-1.4,0.7-2.1,2.1-2.1,3.6
						c0.1,1.7,1.1,3.1,2.5,4c2.5,1.8,5.7,2.4,8.8,2.6c1.6-2.6,2.9-5.6,3-8.7c0-1.7-0.4-3.3-1.8-4.4C116.6,178,115,177.8,113.6,178.5
						z"/>
					<path id="XMLID_602_" class="st3" d="M91.4,189.9c-1.3,0.7-2.1,2-2.2,3.4c-1.2-0.8-2.7-0.9-4-0.2c-1.4,0.7-2.1,2.1-2.1,3.6
						c0.1,1.7,1.1,3.1,2.5,4c2.5,1.8,5.7,2.4,8.8,2.6c1.6-2.6,2.9-5.6,3-8.7c0-1.7-0.4-3.3-1.8-4.4
						C94.3,189.5,92.7,189.2,91.4,189.9z"/>
					<path id="XMLID_601_" class="st3" d="M157.4,149.4c0.1,0.1,0.2,0.2,0.3,0.2c2.5,1.8,5.7,2.4,8.8,2.6l-3.1-5.9L157.4,149.4z"/>
					<path id="XMLID_600_" class="st3" d="M144.3,163.7c1.6-2.6,2.9-5.6,3-8.7c0-0.1,0-0.3,0-0.4l-12.1,6.2c0.1,0.1,0.2,0.2,0.3,0.2
						C138,162.8,141.2,163.5,144.3,163.7z"/>
					<path id="XMLID_599_" class="st3" d="M122,175.1c1.6-2.6,2.9-5.6,3-8.7c0-0.1,0-0.3,0-0.4l-12.1,6.2c0.1,0.1,0.2,0.2,0.3,0.2
						C115.8,174.3,119,174.9,122,175.1z"/>
					<path id="XMLID_598_" class="st3" d="M99.8,186.6c1.6-2.6,2.9-5.6,3-8.7c0-0.1,0-0.3,0-0.4l-12.1,6.2c0.1,0.1,0.2,0.2,0.3,0.2
						C93.5,185.7,96.7,186.3,99.8,186.6z"/>
					<path id="XMLID_597_" class="st3" d="M80.5,189.4c0-0.1,0-0.3,0-0.4l-6,3.1l3.1,5.9C79.1,195.4,80.5,192.4,80.5,189.4z"/>
				</g>
				<g id="XMLID_552_" class="st0">
					
						<rect id="XMLID_595_" x="-88.6" y="31.4" transform="matrix(-0.8894 0.4571 -0.4571 -0.8894 -35.7146 171.5627)" class="st1" width="100" height="100"/>
					
						<rect id="XMLID_594_" x="-88.6" y="31.4" transform="matrix(-0.4571 -0.8894 0.8894 -0.4571 -128.7108 84.3561)" class="st2" width="100" height="100"/>
					<path id="XMLID_593_" class="st3" d="M26.6,99c-1.2-0.8-2.7-0.9-4-0.2c-1.4,0.7-2.1,2.1-2.1,3.6c0,1.6,1,2.9,2.2,3.8l6-3.1
						L26.6,99z"/>
					<path id="XMLID_592_" class="st3" d="M10.7,107.4c-1.2-0.9-2.8-1.1-4.2-0.4c-1.3,0.7-2.1,2-2.2,3.4c-1.2-0.8-2.7-0.9-4-0.2
						c-1.4,0.7-2.1,2.1-2.1,3.6c0,1.6,1,2.9,2.2,3.8l12.1-6.2C12.5,109.9,12,108.4,10.7,107.4z"/>
					<path id="XMLID_591_" class="st3" d="M-11.5,118.8c-1.2-0.9-2.8-1.1-4.2-0.4c-1.3,0.7-2.1,2-2.2,3.4c-1.2-0.8-2.7-0.9-4-0.2
						c-1.4,0.7-2.1,2.1-2.1,3.6c0,1.6,1,2.9,2.2,3.8l12.1-6.2C-9.8,121.3-10.2,119.8-11.5,118.8z"/>
					<path id="XMLID_590_" class="st3" d="M-33.8,130.3c-1.2-0.9-2.8-1.1-4.2-0.4c-1.3,0.7-2.1,2-2.2,3.4c-1.2-0.8-2.7-0.9-4-0.2
						c-1.4,0.7-2.1,2.1-2.1,3.6c0,1.6,1,2.9,2.2,3.8l12.1-6.2C-32,132.7-32.5,131.3-33.8,130.3z"/>
					<path id="XMLID_589_" class="st3" d="M-56,141.7c-1.2-0.9-2.8-1.1-4.2-0.4c-1.3,0.7-2.1,2-2.2,3.4l2.1,4.1l6-3.1
						C-54.2,144.2-54.7,142.7-56,141.7z"/>
					<path id="XMLID_588_" class="st3" d="M11.9,90.1c-1.3,0.7-2.1,2-2.2,3.4c-1.2-0.8-2.7-0.9-4-0.2C4.4,94,3.6,95.5,3.7,97
						c0.1,1.7,1.1,3.1,2.5,4c2.5,1.8,5.7,2.4,8.8,2.6c1.6-2.6,2.9-5.6,3-8.7c0-1.7-0.4-3.3-1.8-4.4C14.9,89.7,13.3,89.5,11.9,90.1z"
						/>
					<path id="XMLID_587_" class="st3" d="M-10.3,101.6c-1.3,0.7-2.1,2-2.2,3.4c-1.2-0.8-2.7-0.9-4-0.2c-1.4,0.7-2.1,2.1-2.1,3.6
						c0.1,1.7,1.1,3.1,2.5,4c2.5,1.8,5.7,2.4,8.8,2.6c1.6-2.6,2.9-5.6,3-8.7c0-1.7-0.4-3.3-1.8-4.4C-7.3,101.1-8.9,100.9-10.3,101.6
						z"/>
					<path id="XMLID_586_" class="st3" d="M-32.5,113c-1.3,0.7-2.1,2-2.2,3.4c-1.2-0.8-2.7-0.9-4-0.2c-1.4,0.7-2.1,2.1-2.1,3.6
						c0.1,1.7,1.1,3.1,2.5,4c2.5,1.8,5.7,2.4,8.8,2.6c1.6-2.6,2.9-5.6,3-8.7c0-1.7-0.4-3.3-1.8-4.4C-29.6,112.5-31.2,112.3-32.5,113
						z"/>
					<path id="XMLID_585_" class="st3" d="M-54.8,124.4c-1.3,0.7-2.1,2-2.2,3.4c-1.2-0.8-2.7-0.9-4-0.2c-1.4,0.7-2.1,2.1-2.1,3.6
						c0.1,1.7,1.1,3.1,2.5,4c2.5,1.8,5.7,2.4,8.8,2.6c1.6-2.6,2.9-5.6,3-8.7c0-1.7-0.4-3.3-1.8-4.4C-51.8,124-53.4,123.7-54.8,124.4
						z"/>
					<path id="XMLID_584_" class="st3" d="M11.2,76.5c-1.4,0.7-2.1,2.1-2.1,3.6c0.1,1.7,1.1,3.1,2.5,4c2.5,1.8,5.7,2.4,8.8,2.6
						l-5.2-10.1C14,75.9,12.5,75.8,11.2,76.5z"/>
					<path id="XMLID_583_" class="st3" d="M-4.9,84.7c-1.3,0.7-2.1,2-2.2,3.4c-1.2-0.8-2.7-0.9-4-0.2c-1.4,0.7-2.1,2.1-2.1,3.6
						c0.1,1.7,1.1,3.1,2.5,4c2.5,1.8,5.7,2.4,8.8,2.6c1.6-2.6,2.9-5.6,3-8.7c0-1.7-0.4-3.3-1.8-4.4C-1.9,84.3-3.5,84-4.9,84.7z"/>
					<path id="XMLID_582_" class="st3" d="M-27.1,96.2c-1.3,0.7-2.1,2-2.2,3.4c-1.2-0.8-2.7-0.9-4-0.2c-1.4,0.7-2.1,2.1-2.1,3.6
						c0.1,1.7,1.1,3.1,2.5,4c2.5,1.8,5.7,2.4,8.8,2.6c1.6-2.6,2.9-5.6,3-8.7c0-1.7-0.4-3.3-1.8-4.4C-24.2,95.7-25.8,95.5-27.1,96.2z
						"/>
					<path id="XMLID_581_" class="st3" d="M-49.4,107.6c-1.3,0.7-2.1,2-2.2,3.4c-1.2-0.8-2.7-0.9-4-0.2c-1.4,0.7-2.1,2.1-2.1,3.6
						c0.1,1.7,1.1,3.1,2.5,4c2.5,1.8,5.7,2.4,8.8,2.6c1.6-2.6,2.9-5.6,3-8.7c0-1.7-0.4-3.3-1.8-4.4C-46.4,107.1-48,106.9-49.4,107.6
						z"/>
					<path id="XMLID_580_" class="st3" d="M-65.6,123.9c0-1.7-0.4-3.3-1.8-4.4c-1.2-0.9-2.8-1.1-4.2-0.4c-1.3,0.7-2.1,2-2.2,3.4
						l5.2,10.1C-67,129.9-65.7,126.9-65.6,123.9z"/>
					<path id="XMLID_579_" class="st3" d="M0.5,67.9c-1.3,0.7-2.1,2-2.2,3.4c-1.2-0.8-2.7-0.9-4-0.2c-1.4,0.7-2.1,2.1-2.1,3.6
						c0.1,1.7,1.1,3.1,2.5,4c2.5,1.8,5.7,2.4,8.8,2.6c1.6-2.6,2.9-5.6,3-8.7c0-1.7-0.4-3.3-1.8-4.4C3.5,67.4,1.9,67.2,0.5,67.9z"/>
					<path id="XMLID_578_" class="st3" d="M-21.7,79.3c-1.3,0.7-2.1,2-2.2,3.4c-1.2-0.8-2.7-0.9-4-0.2c-1.4,0.7-2.1,2.1-2.1,3.6
						c0.1,1.7,1.1,3.1,2.5,4c2.5,1.8,5.7,2.4,8.8,2.6c1.6-2.6,2.9-5.6,3-8.7c0-1.7-0.4-3.3-1.8-4.4C-18.8,78.8-20.4,78.6-21.7,79.3z
						"/>
					<path id="XMLID_577_" class="st3" d="M-44,90.8c-1.3,0.7-2.1,2-2.2,3.4c-1.2-0.8-2.7-0.9-4-0.2c-1.4,0.7-2.1,2.1-2.1,3.6
						c0.1,1.7,1.1,3.1,2.5,4c2.5,1.8,5.7,2.4,8.8,2.6c1.6-2.6,2.9-5.6,3-8.7c0-1.7-0.4-3.3-1.8-4.4C-41,90.3-42.6,90.1-44,90.8z"/>
					<path id="XMLID_576_" class="st3" d="M-66.2,102.2c-1.3,0.7-2.1,2-2.2,3.4c-1.2-0.8-2.7-0.9-4-0.2c-1.4,0.7-2.1,2.1-2.1,3.6
						c0.1,1.7,1.1,3.1,2.5,4c2.5,1.8,5.7,2.4,8.8,2.6c1.6-2.6,2.9-5.6,3-8.7c0-1.7-0.4-3.3-1.8-4.4
						C-63.2,101.7-64.9,101.5-66.2,102.2z"/>
					<path id="XMLID_575_" class="st3" d="M-0.3,54.2c-1.4,0.7-2.1,2.1-2.1,3.6c0.1,1.7,1.1,3.1,2.5,4c2.5,1.8,5.7,2.4,8.8,2.6
						L3.8,54.5C2.6,53.7,1.1,53.6-0.3,54.2z"/>
					<path id="XMLID_574_" class="st3" d="M-16.3,62.5c-1.3,0.7-2.1,2-2.2,3.4c-1.2-0.8-2.7-0.9-4-0.2c-1.4,0.7-2.1,2.1-2.1,3.6
						c0.1,1.7,1.1,3.1,2.5,4c2.5,1.8,5.7,2.4,8.8,2.6c1.6-2.6,2.9-5.6,3-8.7c0-1.7-0.4-3.3-1.8-4.4C-13.3,62-15,61.8-16.3,62.5z"/>
					<path id="XMLID_573_" class="st3" d="M-38.6,73.9c-1.3,0.7-2.1,2-2.2,3.4c-1.2-0.8-2.7-0.9-4-0.2c-1.4,0.7-2.1,2.1-2.1,3.6
						c0.1,1.7,1.1,3.1,2.5,4c2.5,1.8,5.7,2.4,8.8,2.6c1.6-2.6,2.9-5.6,3-8.7c0-1.7-0.4-3.3-1.8-4.4C-35.6,73.4-37.2,73.2-38.6,73.9z
						"/>
					<path id="XMLID_572_" class="st3" d="M-60.8,85.4c-1.3,0.7-2.1,2-2.2,3.4c-1.2-0.8-2.7-0.9-4-0.2c-1.4,0.7-2.1,2.1-2.1,3.6
						c0.1,1.7,1.1,3.1,2.5,4c2.5,1.8,5.7,2.4,8.8,2.6c1.6-2.6,2.9-5.6,3-8.7c0-1.7-0.4-3.3-1.8-4.4C-57.8,84.9-59.5,84.7-60.8,85.4z
						"/>
					<path id="XMLID_571_" class="st3" d="M-77.1,101.6c0-1.7-0.4-3.3-1.8-4.4c-1.2-0.9-2.8-1.1-4.2-0.4c-1.3,0.7-2.1,2-2.2,3.4
						l5.2,10.1C-78.5,107.7-77.1,104.7-77.1,101.6z"/>
					<path id="XMLID_570_" class="st3" d="M-10.9,45.7c-1.3,0.7-2.1,2-2.2,3.4c-1.2-0.8-2.7-0.9-4-0.2c-1.4,0.7-2.1,2.1-2.1,3.6
						c0.1,1.7,1.1,3.1,2.5,4c2.5,1.8,5.7,2.4,8.8,2.6c1.6-2.6,2.9-5.6,3-8.7c0-1.7-0.4-3.3-1.8-4.4C-7.9,45.2-9.6,45-10.9,45.7z"/>
					<path id="XMLID_569_" class="st3" d="M-33.2,57.1c-1.3,0.7-2.1,2-2.2,3.4c-1.2-0.8-2.7-0.9-4-0.2c-1.4,0.7-2.1,2.1-2.1,3.6
						c0.1,1.7,1.1,3.1,2.5,4c2.5,1.8,5.7,2.4,8.8,2.6c1.6-2.6,2.9-5.6,3-8.7c0-1.7-0.4-3.3-1.8-4.4C-30.2,56.6-31.8,56.4-33.2,57.1z
						"/>
					<path id="XMLID_568_" class="st3" d="M-55.4,68.5c-1.3,0.7-2.1,2-2.2,3.4c-1.2-0.8-2.7-0.9-4-0.2c-1.4,0.7-2.1,2.1-2.1,3.6
						c0.1,1.7,1.1,3.1,2.5,4c2.5,1.8,5.7,2.4,8.8,2.6c1.6-2.6,2.9-5.6,3-8.7c0-1.7-0.4-3.3-1.8-4.4C-52.4,68-54,67.8-55.4,68.5z"/>
					<path id="XMLID_567_" class="st3" d="M-77.6,80c-1.3,0.7-2.1,2-2.2,3.4c-1.2-0.8-2.7-0.9-4-0.2c-1.4,0.7-2.1,2.1-2.1,3.6
						c0.1,1.7,1.1,3.1,2.5,4c2.5,1.8,5.7,2.4,8.8,2.6c1.6-2.6,2.9-5.6,3-8.7c0-1.7-0.4-3.3-1.8-4.4C-74.7,79.5-76.3,79.3-77.6,80z"
						/>
					<path id="XMLID_566_" class="st3" d="M-11.7,32c-1.4,0.7-2.1,2.1-2.1,3.6c0.1,1.7,1.1,3.1,2.5,4c2.5,1.8,5.7,2.4,8.8,2.6
						l-5.2-10.1C-8.8,31.5-10.4,31.3-11.7,32z"/>
					<path id="XMLID_565_" class="st3" d="M-27.8,40.3c-1.3,0.7-2.1,2-2.2,3.4c-1.2-0.8-2.7-0.9-4-0.2c-1.4,0.7-2.1,2.1-2.1,3.6
						c0.1,1.7,1.1,3.1,2.5,4c2.5,1.8,5.7,2.4,8.8,2.6c1.6-2.6,2.9-5.6,3-8.7c0-1.7-0.4-3.3-1.8-4.4C-24.8,39.8-26.4,39.6-27.8,40.3z
						"/>
					<path id="XMLID_564_" class="st3" d="M-50,51.7c-1.3,0.7-2.1,2-2.2,3.4c-1.2-0.8-2.7-0.9-4-0.2c-1.4,0.7-2.1,2.1-2.1,3.6
						c0.1,1.7,1.1,3.1,2.5,4c2.5,1.8,5.7,2.4,8.8,2.6c1.6-2.6,2.9-5.6,3-8.7c0-1.7-0.4-3.3-1.8-4.4C-47,51.2-48.6,51-50,51.7z"/>
					<path id="XMLID_563_" class="st3" d="M-72.2,63.1c-1.3,0.7-2.1,2-2.2,3.4c-1.2-0.8-2.7-0.9-4-0.2c-1.4,0.7-2.1,2.1-2.1,3.6
						c0.1,1.7,1.1,3.1,2.5,4c2.5,1.8,5.7,2.4,8.8,2.6c1.6-2.6,2.9-5.6,3-8.7c0-1.7-0.4-3.3-1.8-4.4C-69.3,62.6-70.9,62.4-72.2,63.1z
						"/>
					<path id="XMLID_562_" class="st3" d="M-88.5,79.4c0-1.7-0.4-3.3-1.8-4.4c-1.2-0.9-2.8-1.1-4.2-0.4c-1.3,0.7-2.1,2-2.2,3.4
						l5.2,10.1C-89.9,85.4-88.5,82.4-88.5,79.4z"/>
					<path id="XMLID_561_" class="st3" d="M-22.3,23.4c-1.3,0.7-2.1,2-2.2,3.4c-1.2-0.8-2.7-0.9-4-0.2c-1.4,0.7-2.1,2.1-2.1,3.6
						c0.1,1.7,1.1,3.1,2.5,4c2.5,1.8,5.7,2.4,8.8,2.6c1.6-2.6,2.9-5.6,3-8.7c0-1.7-0.4-3.3-1.8-4.4C-19.4,22.9-21,22.7-22.3,23.4z"
						/>
					<path id="XMLID_560_" class="st3" d="M-44.6,34.8c-1.3,0.7-2.1,2-2.2,3.4c-1.2-0.8-2.7-0.9-4-0.2c-1.4,0.7-2.1,2.1-2.1,3.6
						c0.1,1.7,1.1,3.1,2.5,4c2.5,1.8,5.7,2.4,8.8,2.6c1.6-2.6,2.9-5.6,3-8.7c0-1.7-0.4-3.3-1.8-4.4C-41.6,34.4-43.2,34.1-44.6,34.8z
						"/>
					<path id="XMLID_559_" class="st3" d="M-66.8,46.3c-1.3,0.7-2.1,2-2.2,3.4c-1.2-0.8-2.7-0.9-4-0.2c-1.4,0.7-2.1,2.1-2.1,3.6
						c0.1,1.7,1.1,3.1,2.5,4c2.5,1.8,5.7,2.4,8.8,2.6c1.6-2.6,2.9-5.6,3-8.7c0-1.7-0.4-3.3-1.8-4.4C-63.9,45.8-65.5,45.6-66.8,46.3z
						"/>
					<path id="XMLID_558_" class="st3" d="M-89.1,57.7c-1.3,0.7-2.1,2-2.2,3.4c-1.2-0.8-2.7-0.9-4-0.2c-1.4,0.7-2.1,2.1-2.1,3.6
						c0.1,1.7,1.1,3.1,2.5,4c2.5,1.8,5.7,2.4,8.8,2.6c1.6-2.6,2.9-5.6,3-8.7c0-1.7-0.4-3.3-1.8-4.4C-86.1,57.2-87.7,57-89.1,57.7z"
						/>
					<path id="XMLID_557_" class="st3" d="M-23,17.2c0.1,0.1,0.2,0.2,0.3,0.2c2.5,1.8,5.7,2.4,8.8,2.6l-3.1-5.9L-23,17.2z"/>
					<path id="XMLID_556_" class="st3" d="M-36.2,31.5c1.6-2.6,2.9-5.6,3-8.7c0-0.1,0-0.3,0-0.4l-12.1,6.2c0.1,0.1,0.2,0.2,0.3,0.2
						C-42.4,30.6-39.2,31.2-36.2,31.5z"/>
					<path id="XMLID_555_" class="st3" d="M-58.4,42.9c1.6-2.6,2.9-5.6,3-8.7c0-0.1,0-0.3,0-0.4l-12.1,6.2c0.1,0.1,0.2,0.2,0.3,0.2
						C-64.7,42-61.5,42.7-58.4,42.9z"/>
					<path id="XMLID_554_" class="st3" d="M-80.7,54.3c1.6-2.6,2.9-5.6,3-8.7c0-0.1,0-0.3,0-0.4l-12.1,6.2c0.1,0.1,0.2,0.2,0.3,0.2
						C-86.9,53.5-83.7,54.1-80.7,54.3z"/>
					<path id="XMLID_553_" class="st3" d="M-99.9,57.1c0-0.1,0-0.3,0-0.4l-6,3.1l3.1,5.9C-101.3,63.2-100,60.2-99.9,57.1z"/>
				</g>
				<g id="XMLID_508_" class="st0">
					
						<rect id="XMLID_551_" x="-42.9" y="120.4" transform="matrix(-0.8894 0.4571 -0.4571 -0.8894 91.3528 318.7777)" class="st1" width="100" height="100"/>
					
						<rect id="XMLID_550_" x="-42.9" y="120.4" transform="matrix(-0.4571 -0.8894 0.8894 -0.4571 -141.2216 254.6743)" class="st2" width="100" height="100"/>
					<path id="XMLID_549_" class="st3" d="M72.4,187.9c-1.2-0.8-2.7-0.9-4-0.2c-1.4,0.7-2.1,2.1-2.1,3.6c0,1.6,1,2.9,2.2,3.8l6-3.1
						L72.4,187.9z"/>
					<path id="XMLID_548_" class="st3" d="M56.4,196.4c-1.2-0.9-2.8-1.1-4.2-0.4c-1.3,0.7-2.1,2-2.2,3.4c-1.2-0.8-2.7-0.9-4-0.2
						c-1.4,0.7-2.1,2.1-2.1,3.6c0,1.6,1,2.9,2.2,3.8l12.1-6.2C58.2,198.8,57.7,197.4,56.4,196.4z"/>
					<path id="XMLID_547_" class="st3" d="M34.2,207.8c-1.2-0.9-2.8-1.1-4.2-0.4c-1.3,0.7-2.1,2-2.2,3.4c-1.2-0.8-2.7-0.9-4-0.2
						c-1.4,0.7-2.1,2.1-2.1,3.6c0,1.6,1,2.9,2.2,3.8l12.1-6.2C36,210.3,35.5,208.8,34.2,207.8z"/>
					<path id="XMLID_546_" class="st3" d="M12,219.3c-1.2-0.9-2.8-1.1-4.2-0.4c-1.3,0.7-2.1,2-2.2,3.4c-1.2-0.8-2.7-0.9-4-0.2
						c-1.4,0.7-2.1,2.1-2.1,3.6c0,1.6,1,2.9,2.2,3.8l12.1-6.2C13.7,221.7,13.2,220.2,12,219.3z"/>
					<path id="XMLID_545_" class="st3" d="M-10.3,230.7c-1.2-0.9-2.8-1.1-4.2-0.4c-1.3,0.7-2.1,2-2.2,3.4l2.1,4.1l6-3.1
						C-8.5,233.1-9,231.7-10.3,230.7z"/>
					<path id="XMLID_544_" class="st3" d="M57.7,179.1c-1.3,0.7-2.1,2-2.2,3.4c-1.2-0.8-2.7-0.9-4-0.2c-1.4,0.7-2.1,2.1-2.1,3.6
						c0.1,1.7,1.1,3.1,2.5,4c2.5,1.8,5.7,2.4,8.8,2.6c1.6-2.6,2.9-5.6,3-8.7c0-1.7-0.4-3.3-1.8-4.4C60.7,178.6,59,178.4,57.7,179.1z
						"/>
					<path id="XMLID_543_" class="st3" d="M35.4,190.6c-1.3,0.7-2.1,2-2.2,3.4c-1.2-0.8-2.7-0.9-4-0.2c-1.4,0.7-2.1,2.1-2.1,3.6
						c0.1,1.7,1.1,3.1,2.5,4c2.5,1.8,5.7,2.4,8.8,2.6c1.6-2.6,2.9-5.6,3-8.7c0-1.7-0.4-3.3-1.8-4.4
						C38.4,190.1,36.8,189.9,35.4,190.6z"/>
					<path id="XMLID_542_" class="st3" d="M13.2,202c-1.3,0.7-2.1,2-2.2,3.4c-1.2-0.8-2.7-0.9-4-0.2c-1.4,0.7-2.1,2.1-2.1,3.6
						c0.1,1.7,1.1,3.1,2.5,4c2.5,1.8,5.7,2.4,8.8,2.6c1.6-2.6,2.9-5.6,3-8.7c0-1.7-0.4-3.3-1.8-4.4C16.2,201.5,14.5,201.3,13.2,202z
						"/>
					<path id="XMLID_541_" class="st3" d="M-9.1,213.4c-1.3,0.7-2.1,2-2.2,3.4c-1.2-0.8-2.7-0.9-4-0.2c-1.4,0.7-2.1,2.1-2.1,3.6
						c0.1,1.7,1.1,3.1,2.5,4c2.5,1.8,5.7,2.4,8.8,2.6c1.6-2.6,2.9-5.6,3-8.7c0-1.7-0.4-3.3-1.8-4.4C-6.1,212.9-7.7,212.7-9.1,213.4z
						"/>
					<path id="XMLID_540_" class="st3" d="M56.9,165.5c-1.4,0.7-2.1,2.1-2.1,3.6c0.1,1.7,1.1,3.1,2.5,4c2.5,1.8,5.7,2.4,8.8,2.6
						l-5.2-10.1C59.8,164.9,58.2,164.8,56.9,165.5z"/>
					<path id="XMLID_539_" class="st3" d="M40.8,173.7c-1.3,0.7-2.1,2-2.2,3.4c-1.2-0.8-2.7-0.9-4-0.2c-1.4,0.7-2.1,2.1-2.1,3.6
						c0.1,1.7,1.1,3.1,2.5,4c2.5,1.8,5.7,2.4,8.8,2.6c1.6-2.6,2.9-5.6,3-8.7c0-1.7-0.4-3.3-1.8-4.4C43.8,173.2,42.2,173,40.8,173.7z
						"/>
					<path id="XMLID_538_" class="st3" d="M18.6,185.2c-1.3,0.7-2.1,2-2.2,3.4c-1.2-0.8-2.7-0.9-4-0.2c-1.4,0.7-2.1,2.1-2.1,3.6
						c0.1,1.7,1.1,3.1,2.5,4c2.5,1.8,5.7,2.4,8.8,2.6c1.6-2.6,2.9-5.6,3-8.7c0-1.7-0.4-3.3-1.8-4.4C21.6,184.7,20,184.5,18.6,185.2z
						"/>
					<path id="XMLID_537_" class="st3" d="M-3.7,196.6c-1.3,0.7-2.1,2-2.2,3.4c-1.2-0.8-2.7-0.9-4-0.2c-1.4,0.7-2.1,2.1-2.1,3.6
						c0.1,1.7,1.1,3.1,2.5,4c2.5,1.8,5.7,2.4,8.8,2.6c1.6-2.6,2.9-5.6,3-8.7c0-1.7-0.4-3.3-1.8-4.4C-0.7,196.1-2.3,195.9-3.7,196.6z
						"/>
					<path id="XMLID_536_" class="st3" d="M-19.9,212.8c0-1.7-0.4-3.3-1.8-4.4c-1.2-0.9-2.8-1.1-4.2-0.4c-1.3,0.7-2.1,2-2.2,3.4
						l5.2,10.1C-21.3,218.9-20,215.9-19.9,212.8z"/>
					<path id="XMLID_535_" class="st3" d="M46.2,156.9c-1.3,0.7-2.1,2-2.2,3.4c-1.2-0.8-2.7-0.9-4-0.2c-1.4,0.7-2.1,2.1-2.1,3.6
						c0.1,1.7,1.1,3.1,2.5,4c2.5,1.8,5.7,2.4,8.8,2.6c1.6-2.6,2.9-5.6,3-8.7c0-1.7-0.4-3.3-1.8-4.4
						C49.2,156.4,47.6,156.2,46.2,156.9z"/>
					<path id="XMLID_534_" class="st3" d="M24,168.3c-1.3,0.7-2.1,2-2.2,3.4c-1.2-0.8-2.7-0.9-4-0.2c-1.4,0.7-2.1,2.1-2.1,3.6
						c0.1,1.7,1.1,3.1,2.5,4c2.5,1.8,5.7,2.4,8.8,2.6c1.6-2.6,2.9-5.6,3-8.7c0-1.7-0.4-3.3-1.8-4.4C27,167.8,25.4,167.6,24,168.3z"
						/>
					<path id="XMLID_533_" class="st3" d="M1.8,179.7c-1.3,0.7-2.1,2-2.2,3.4c-1.2-0.8-2.7-0.9-4-0.2c-1.4,0.7-2.1,2.1-2.1,3.6
						c0.1,1.7,1.1,3.1,2.5,4c2.5,1.8,5.7,2.4,8.8,2.6c1.6-2.6,2.9-5.6,3-8.7c0-1.7-0.4-3.3-1.8-4.4C4.7,179.3,3.1,179,1.8,179.7z"/>
					<path id="XMLID_532_" class="st3" d="M-20.5,191.2c-1.3,0.7-2.1,2-2.2,3.4c-1.2-0.8-2.7-0.9-4-0.2c-1.4,0.7-2.1,2.1-2.1,3.6
						c0.1,1.7,1.1,3.1,2.5,4c2.5,1.8,5.7,2.4,8.8,2.6c1.6-2.6,2.9-5.6,3-8.7c0-1.7-0.4-3.3-1.8-4.4
						C-17.5,190.7-19.1,190.5-20.5,191.2z"/>
					<path id="XMLID_531_" class="st3" d="M45.5,143.2c-1.4,0.7-2.1,2.1-2.1,3.6c0.1,1.7,1.1,3.1,2.5,4c2.5,1.8,5.7,2.4,8.8,2.6
						l-5.2-10.1C48.3,142.7,46.8,142.5,45.5,143.2z"/>
					<path id="XMLID_530_" class="st3" d="M29.4,151.5c-1.3,0.7-2.1,2-2.2,3.4c-1.2-0.8-2.7-0.9-4-0.2c-1.4,0.7-2.1,2.1-2.1,3.6
						c0.1,1.7,1.1,3.1,2.5,4c2.5,1.8,5.7,2.4,8.8,2.6c1.6-2.6,2.9-5.6,3-8.7c0-1.7-0.4-3.3-1.8-4.4C32.4,151,30.8,150.8,29.4,151.5z
						"/>
					<path id="XMLID_529_" class="st3" d="M7.2,162.9c-1.3,0.7-2.1,2-2.2,3.4c-1.2-0.8-2.7-0.9-4-0.2c-1.4,0.7-2.1,2.1-2.1,3.6
						c0.1,1.7,1.1,3.1,2.5,4c2.5,1.8,5.7,2.4,8.8,2.6c1.6-2.6,2.9-5.6,3-8.7c0-1.7-0.4-3.3-1.8-4.4C10.1,162.4,8.5,162.2,7.2,162.9z
						"/>
					<path id="XMLID_528_" class="st3" d="M-15.1,174.3c-1.3,0.7-2.1,2-2.2,3.4c-1.2-0.8-2.7-0.9-4-0.2c-1.4,0.7-2.1,2.1-2.1,3.6
						c0.1,1.7,1.1,3.1,2.5,4c2.5,1.8,5.7,2.4,8.8,2.6c1.6-2.6,2.9-5.6,3-8.7c0-1.7-0.4-3.3-1.8-4.4
						C-12.1,173.9-13.7,173.6-15.1,174.3z"/>
					<path id="XMLID_527_" class="st3" d="M-31.3,190.6c0-1.7-0.4-3.3-1.8-4.4c-1.2-0.9-2.8-1.1-4.2-0.4c-1.3,0.7-2.1,2-2.2,3.4
						l5.2,10.1C-32.7,196.6-31.4,193.7-31.3,190.6z"/>
					<path id="XMLID_526_" class="st3" d="M34.8,134.6c-1.3,0.7-2.1,2-2.2,3.4c-1.2-0.8-2.7-0.9-4-0.2c-1.4,0.7-2.1,2.1-2.1,3.6
						c0.1,1.7,1.1,3.1,2.5,4c2.5,1.8,5.7,2.4,8.8,2.6c1.6-2.6,2.9-5.6,3-8.7c0-1.7-0.4-3.3-1.8-4.4
						C37.8,134.1,36.2,133.9,34.8,134.6z"/>
					<path id="XMLID_525_" class="st3" d="M12.6,146.1c-1.3,0.7-2.1,2-2.2,3.4c-1.2-0.8-2.7-0.9-4-0.2c-1.4,0.7-2.1,2.1-2.1,3.6
						c0.1,1.7,1.1,3.1,2.5,4c2.5,1.8,5.7,2.4,8.8,2.6c1.6-2.6,2.9-5.6,3-8.7c0-1.7-0.4-3.3-1.8-4.4
						C15.5,145.6,13.9,145.4,12.6,146.1z"/>
					<path id="XMLID_524_" class="st3" d="M-9.7,157.5c-1.3,0.7-2.1,2-2.2,3.4c-1.2-0.8-2.7-0.9-4-0.2c-1.4,0.7-2.1,2.1-2.1,3.6
						c0.1,1.7,1.1,3.1,2.5,4c2.5,1.8,5.7,2.4,8.8,2.6c1.6-2.6,2.9-5.6,3-8.7c0-1.7-0.4-3.3-1.8-4.4C-6.7,157-8.3,156.8-9.7,157.5z"
						/>
					<path id="XMLID_523_" class="st3" d="M-31.9,168.9c-1.3,0.7-2.1,2-2.2,3.4c-1.2-0.8-2.7-0.9-4-0.2c-1.4,0.7-2.1,2.1-2.1,3.6
						c0.1,1.7,1.1,3.1,2.5,4c2.5,1.8,5.7,2.4,8.8,2.6c1.6-2.6,2.9-5.6,3-8.7c0-1.7-0.4-3.3-1.8-4.4
						C-28.9,168.4-30.6,168.2-31.9,168.9z"/>
					<path id="XMLID_522_" class="st3" d="M34,121c-1.4,0.7-2.1,2.1-2.1,3.6c0.1,1.7,1.1,3.1,2.5,4c2.5,1.8,5.7,2.4,8.8,2.6
						l-5.2-10.1C36.9,120.4,35.4,120.3,34,121z"/>
					<path id="XMLID_521_" class="st3" d="M18,129.2c-1.3,0.7-2.1,2-2.2,3.4c-1.2-0.8-2.7-0.9-4-0.2c-1.4,0.7-2.1,2.1-2.1,3.6
						c0.1,1.7,1.1,3.1,2.5,4c2.5,1.8,5.7,2.4,8.8,2.6c1.6-2.6,2.9-5.6,3-8.7c0-1.7-0.4-3.3-1.8-4.4C21,128.7,19.3,128.5,18,129.2z"
						/>
					<path id="XMLID_520_" class="st3" d="M-4.3,140.7c-1.3,0.7-2.1,2-2.2,3.4c-1.2-0.8-2.7-0.9-4-0.2c-1.4,0.7-2.1,2.1-2.1,3.6
						c0.1,1.7,1.1,3.1,2.5,4c2.5,1.8,5.7,2.4,8.8,2.6c1.6-2.6,2.9-5.6,3-8.7c0-1.7-0.4-3.3-1.8-4.4C-1.3,140.2-2.9,140-4.3,140.7z"
						/>
					<path id="XMLID_519_" class="st3" d="M-26.5,152.1c-1.3,0.7-2.1,2-2.2,3.4c-1.2-0.8-2.7-0.9-4-0.2c-1.4,0.7-2.1,2.1-2.1,3.6
						c0.1,1.7,1.1,3.1,2.5,4c2.5,1.8,5.7,2.4,8.8,2.6c1.6-2.6,2.9-5.6,3-8.7c0-1.7-0.4-3.3-1.8-4.4
						C-23.5,151.6-25.2,151.4-26.5,152.1z"/>
					<path id="XMLID_518_" class="st3" d="M-42.8,168.3c0-1.7-0.4-3.3-1.8-4.4c-1.2-0.9-2.8-1.1-4.2-0.4c-1.3,0.7-2.1,2-2.2,3.4
						l5.2,10.1C-44.2,174.4-42.8,171.4-42.8,168.3z"/>
					<path id="XMLID_517_" class="st3" d="M23.4,112.4c-1.3,0.7-2.1,2-2.2,3.4c-1.2-0.8-2.7-0.9-4-0.2c-1.4,0.7-2.1,2.1-2.1,3.6
						c0.1,1.7,1.1,3.1,2.5,4c2.5,1.8,5.7,2.4,8.8,2.6c1.6-2.6,2.9-5.6,3-8.7c0-1.7-0.4-3.3-1.8-4.4
						C26.4,111.9,24.7,111.7,23.4,112.4z"/>
					<path id="XMLID_516_" class="st3" d="M1.1,123.8c-1.3,0.7-2.1,2-2.2,3.4c-1.2-0.8-2.7-0.9-4-0.2c-1.4,0.7-2.1,2.1-2.1,3.6
						c0.1,1.7,1.1,3.1,2.5,4c2.5,1.8,5.7,2.4,8.8,2.6c1.6-2.6,2.9-5.6,3-8.7c0-1.7-0.4-3.3-1.8-4.4C4.1,123.3,2.5,123.1,1.1,123.8z"
						/>
					<path id="XMLID_515_" class="st3" d="M-21.1,135.3c-1.3,0.7-2.1,2-2.2,3.4c-1.2-0.8-2.7-0.9-4-0.2c-1.4,0.7-2.1,2.1-2.1,3.6
						c0.1,1.7,1.1,3.1,2.5,4c2.5,1.8,5.7,2.4,8.8,2.6c1.6-2.6,2.9-5.6,3-8.7c0-1.7-0.4-3.3-1.8-4.4
						C-18.1,134.8-19.8,134.6-21.1,135.3z"/>
					<path id="XMLID_514_" class="st3" d="M-43.4,146.7c-1.3,0.7-2.1,2-2.2,3.4c-1.2-0.8-2.7-0.9-4-0.2c-1.4,0.7-2.1,2.1-2.1,3.6
						c0.1,1.7,1.1,3.1,2.5,4c2.5,1.8,5.7,2.4,8.8,2.6c1.6-2.6,2.9-5.6,3-8.7c0-1.7-0.4-3.3-1.8-4.4C-40.4,146.2-42,146-43.4,146.7z"
						/>
					<path id="XMLID_513_" class="st3" d="M22.7,106.2c0.1,0.1,0.2,0.2,0.3,0.2c2.5,1.8,5.7,2.4,8.8,2.6l-3.1-5.9L22.7,106.2z"/>
					<path id="XMLID_512_" class="st3" d="M9.6,120.5c1.6-2.6,2.9-5.6,3-8.7c0-0.1,0-0.3,0-0.4l-12.1,6.2c0.1,0.1,0.2,0.2,0.3,0.2
						C3.3,119.6,6.5,120.2,9.6,120.5z"/>
					<path id="XMLID_511_" class="st3" d="M-12.7,131.9c1.6-2.6,2.9-5.6,3-8.7c0-0.1,0-0.3,0-0.4l-12.1,6.2c0.1,0.1,0.2,0.2,0.3,0.2
						C-18.9,131-15.7,131.7-12.7,131.9z"/>
					<path id="XMLID_510_" class="st3" d="M-34.9,143.3c1.6-2.6,2.9-5.6,3-8.7c0-0.1,0-0.3,0-0.4l-12.1,6.2c0.1,0.1,0.2,0.2,0.3,0.2
						C-41.2,142.5-38,143.1-34.9,143.3z"/>
					<path id="XMLID_509_" class="st3" d="M-54.2,146.1c0-0.1,0-0.3,0-0.4l-6,3.1l3.1,5.9C-55.6,152.2-54.3,149.2-54.2,146.1z"/>
				</g>
				<g id="XMLID_464_" class="st0">
					
						<rect id="XMLID_507_" x="2.8" y="209.4" transform="matrix(-0.8894 0.4571 -0.4571 -0.8894 218.4202 465.9927)" class="st1" width="100" height="100"/>
					
						<rect id="XMLID_506_" x="2.8" y="209.4" transform="matrix(-0.4571 -0.8894 0.8894 -0.4571 -153.7324 424.9925)" class="st2" width="100" height="100"/>
					<path id="XMLID_505_" class="st3" d="M118.1,276.9c-1.2-0.8-2.7-0.9-4-0.2c-1.4,0.7-2.1,2.1-2.1,3.6c0,1.6,1,2.9,2.2,3.8l6-3.1
						L118.1,276.9z"/>
					<path id="XMLID_504_" class="st3" d="M102.2,285.4c-1.2-0.9-2.8-1.1-4.2-0.4c-1.3,0.7-2.1,2-2.2,3.4c-1.2-0.8-2.7-0.9-4-0.2
						c-1.4,0.7-2.1,2.1-2.1,3.6c0,1.6,1,2.9,2.2,3.8l12.1-6.2C103.9,287.8,103.5,286.3,102.2,285.4z"/>
					<path id="XMLID_503_" class="st3" d="M79.9,296.8c-1.2-0.9-2.8-1.1-4.2-0.4c-1.3,0.7-2.1,2-2.2,3.4c-1.2-0.8-2.7-0.9-4-0.2
						c-1.4,0.7-2.1,2.1-2.1,3.6c0,1.6,1,2.9,2.2,3.8l12.1-6.2C81.7,299.3,81.2,297.8,79.9,296.8z"/>
					<path id="XMLID_502_" class="st3" d="M57.7,308.2c-1.2-0.9-2.8-1.1-4.2-0.4c-1.3,0.7-2.1,2-2.2,3.4c-1.2-0.8-2.7-0.9-4-0.2
						c-1.4,0.7-2.1,2.1-2.1,3.6c0,1.6,1,2.9,2.2,3.8l12.1-6.2C59.4,310.7,59,309.2,57.7,308.2z"/>
					<path id="XMLID_501_" class="st3" d="M35.4,319.7c-1.2-0.9-2.8-1.1-4.2-0.4c-1.3,0.7-2.1,2-2.2,3.4l2.1,4.1l6-3.1
						C37.2,322.1,36.7,320.6,35.4,319.7z"/>
					<path id="XMLID_500_" class="st3" d="M103.4,268.1c-1.3,0.7-2.1,2-2.2,3.4c-1.2-0.8-2.7-0.9-4-0.2c-1.4,0.7-2.1,2.1-2.1,3.6
						c0.1,1.7,1.1,3.1,2.5,4c2.5,1.8,5.7,2.4,8.8,2.6c1.6-2.6,2.9-5.6,3-8.7c0-1.7-0.4-3.3-1.8-4.4
						C106.4,267.6,104.8,267.4,103.4,268.1z"/>
					<path id="XMLID_499_" class="st3" d="M81.2,279.5c-1.3,0.7-2.1,2-2.2,3.4c-1.2-0.8-2.7-0.9-4-0.2c-1.4,0.7-2.1,2.1-2.1,3.6
						c0.1,1.7,1.1,3.1,2.5,4c2.5,1.8,5.7,2.4,8.8,2.6c1.6-2.6,2.9-5.6,3-8.7c0-1.7-0.4-3.3-1.8-4.4C84.1,279,82.5,278.8,81.2,279.5z
						"/>
					<path id="XMLID_498_" class="st3" d="M58.9,291c-1.3,0.7-2.1,2-2.2,3.4c-1.2-0.8-2.7-0.9-4-0.2c-1.4,0.7-2.1,2.1-2.1,3.6
						c0.1,1.7,1.1,3.1,2.5,4c2.5,1.8,5.7,2.4,8.8,2.6c1.6-2.6,2.9-5.6,3-8.7c0-1.7-0.4-3.3-1.8-4.4C61.9,290.5,60.3,290.3,58.9,291z
						"/>
					<path id="XMLID_497_" class="st3" d="M36.7,302.4c-1.3,0.7-2.1,2-2.2,3.4c-1.2-0.8-2.7-0.9-4-0.2c-1.4,0.7-2.1,2.1-2.1,3.6
						c0.1,1.7,1.1,3.1,2.5,4c2.5,1.8,5.7,2.4,8.8,2.6c1.6-2.6,2.9-5.6,3-8.7c0-1.7-0.4-3.3-1.8-4.4C39.6,301.9,38,301.7,36.7,302.4z
						"/>
					<path id="XMLID_496_" class="st3" d="M102.6,254.4c-1.4,0.7-2.1,2.1-2.1,3.6c0.1,1.7,1.1,3.1,2.5,4c2.5,1.8,5.7,2.4,8.8,2.6
						l-5.2-10.1C105.5,253.9,103.9,253.8,102.6,254.4z"/>
					<path id="XMLID_495_" class="st3" d="M86.6,262.7c-1.3,0.7-2.1,2-2.2,3.4c-1.2-0.8-2.7-0.9-4-0.2c-1.4,0.7-2.1,2.1-2.1,3.6
						c0.1,1.7,1.1,3.1,2.5,4c2.5,1.8,5.7,2.4,8.8,2.6c1.6-2.6,2.9-5.6,3-8.7c0-1.7-0.4-3.3-1.8-4.4C89.5,262.2,87.9,262,86.6,262.7z
						"/>
					<path id="XMLID_494_" class="st3" d="M64.3,274.1c-1.3,0.7-2.1,2-2.2,3.4c-1.2-0.8-2.7-0.9-4-0.2c-1.4,0.7-2.1,2.1-2.1,3.6
						c0.1,1.7,1.1,3.1,2.5,4c2.5,1.8,5.7,2.4,8.8,2.6c1.6-2.6,2.9-5.6,3-8.7c0-1.7-0.4-3.3-1.8-4.4
						C67.3,273.6,65.7,273.4,64.3,274.1z"/>
					<path id="XMLID_493_" class="st3" d="M42.1,285.6c-1.3,0.7-2.1,2-2.2,3.4c-1.2-0.8-2.7-0.9-4-0.2c-1.4,0.7-2.1,2.1-2.1,3.6
						c0.1,1.7,1.1,3.1,2.5,4c2.5,1.8,5.7,2.4,8.8,2.6c1.6-2.6,2.9-5.6,3-8.7c0-1.7-0.4-3.3-1.8-4.4
						C45.1,285.1,43.4,284.9,42.1,285.6z"/>
					<path id="XMLID_492_" class="st3" d="M25.8,301.8c0-1.7-0.4-3.3-1.8-4.4c-1.2-0.9-2.8-1.1-4.2-0.4c-1.3,0.7-2.1,2-2.2,3.4
						l5.2,10.1C24.4,307.9,25.8,304.9,25.8,301.8z"/>
					<path id="XMLID_491_" class="st3" d="M92,245.9c-1.3,0.7-2.1,2-2.2,3.4c-1.2-0.8-2.7-0.9-4-0.2c-1.4,0.7-2.1,2.1-2.1,3.6
						c0.1,1.7,1.1,3.1,2.5,4c2.5,1.8,5.7,2.4,8.8,2.6c1.6-2.6,2.9-5.6,3-8.7c0-1.7-0.4-3.3-1.8-4.4C94.9,245.4,93.3,245.2,92,245.9z
						"/>
					<path id="XMLID_490_" class="st3" d="M69.7,257.3c-1.3,0.7-2.1,2-2.2,3.4c-1.2-0.8-2.7-0.9-4-0.2c-1.4,0.7-2.1,2.1-2.1,3.6
						c0.1,1.7,1.1,3.1,2.5,4c2.5,1.8,5.7,2.4,8.8,2.6c1.6-2.6,2.9-5.6,3-8.7c0-1.7-0.4-3.3-1.8-4.4
						C72.7,256.8,71.1,256.6,69.7,257.3z"/>
					<path id="XMLID_489_" class="st3" d="M47.5,268.7c-1.3,0.7-2.1,2-2.2,3.4c-1.2-0.8-2.7-0.9-4-0.2c-1.4,0.7-2.1,2.1-2.1,3.6
						c0.1,1.7,1.1,3.1,2.5,4c2.5,1.8,5.7,2.4,8.8,2.6c1.6-2.6,2.9-5.6,3-8.7c0-1.7-0.4-3.3-1.8-4.4C50.5,268.2,48.8,268,47.5,268.7z
						"/>
					<path id="XMLID_488_" class="st3" d="M25.2,280.2c-1.3,0.7-2.1,2-2.2,3.4c-1.2-0.8-2.7-0.9-4-0.2c-1.4,0.7-2.1,2.1-2.1,3.6
						c0.1,1.7,1.1,3.1,2.5,4c2.5,1.8,5.7,2.4,8.8,2.6c1.6-2.6,2.9-5.6,3-8.7c0-1.7-0.4-3.3-1.8-4.4
						C28.2,279.7,26.6,279.5,25.2,280.2z"/>
					<path id="XMLID_487_" class="st3" d="M91.2,232.2c-1.4,0.7-2.1,2.1-2.1,3.6c0.1,1.7,1.1,3.1,2.5,4c2.5,1.8,5.7,2.4,8.8,2.6
						l-5.2-10.1C94.1,231.7,92.5,231.5,91.2,232.2z"/>
					<path id="XMLID_486_" class="st3" d="M75.1,240.5c-1.3,0.7-2.1,2-2.2,3.4c-1.2-0.8-2.7-0.9-4-0.2c-1.4,0.7-2.1,2.1-2.1,3.6
						c0.1,1.7,1.1,3.1,2.5,4c2.5,1.8,5.7,2.4,8.8,2.6c1.6-2.6,2.9-5.6,3-8.7c0-1.7-0.4-3.3-1.8-4.4C78.1,240,76.5,239.8,75.1,240.5z
						"/>
					<path id="XMLID_485_" class="st3" d="M52.9,251.9c-1.3,0.7-2.1,2-2.2,3.4c-1.2-0.8-2.7-0.9-4-0.2c-1.4,0.7-2.1,2.1-2.1,3.6
						c0.1,1.7,1.1,3.1,2.5,4c2.5,1.8,5.7,2.4,8.8,2.6c1.6-2.6,2.9-5.6,3-8.7c0-1.7-0.4-3.3-1.8-4.4
						C55.9,251.4,54.2,251.2,52.9,251.9z"/>
					<path id="XMLID_484_" class="st3" d="M30.6,263.3c-1.3,0.7-2.1,2-2.2,3.4c-1.2-0.8-2.7-0.9-4-0.2c-1.4,0.7-2.1,2.1-2.1,3.6
						c0.1,1.7,1.1,3.1,2.5,4c2.5,1.8,5.7,2.4,8.8,2.6c1.6-2.6,2.9-5.6,3-8.7c0-1.7-0.4-3.3-1.8-4.4C33.6,262.8,32,262.6,30.6,263.3z
						"/>
					<path id="XMLID_483_" class="st3" d="M14.4,279.6c0-1.7-0.4-3.3-1.8-4.4c-1.2-0.9-2.8-1.1-4.2-0.4c-1.3,0.7-2.1,2-2.2,3.4
						l5.2,10.1C13,285.6,14.3,282.6,14.4,279.6z"/>
					<path id="XMLID_482_" class="st3" d="M80.5,223.6c-1.3,0.7-2.1,2-2.2,3.4c-1.2-0.8-2.7-0.9-4-0.2c-1.4,0.7-2.1,2.1-2.1,3.6
						c0.1,1.7,1.1,3.1,2.5,4c2.5,1.8,5.7,2.4,8.8,2.6c1.6-2.6,2.9-5.6,3-8.7c0-1.7-0.4-3.3-1.8-4.4
						C83.5,223.1,81.9,222.9,80.5,223.6z"/>
					<path id="XMLID_481_" class="st3" d="M58.3,235c-1.3,0.7-2.1,2-2.2,3.4c-1.2-0.8-2.7-0.9-4-0.2c-1.4,0.7-2.1,2.1-2.1,3.6
						c0.1,1.7,1.1,3.1,2.5,4c2.5,1.8,5.7,2.4,8.8,2.6c1.6-2.6,2.9-5.6,3-8.7c0-1.7-0.4-3.3-1.8-4.4C61.3,234.6,59.7,234.3,58.3,235z
						"/>
					<path id="XMLID_480_" class="st3" d="M36,246.5c-1.3,0.7-2.1,2-2.2,3.4c-1.2-0.8-2.7-0.9-4-0.2c-1.4,0.7-2.1,2.1-2.1,3.6
						c0.1,1.7,1.1,3.1,2.5,4c2.5,1.8,5.7,2.4,8.8,2.6c1.6-2.6,2.9-5.6,3-8.7c0-1.7-0.4-3.3-1.8-4.4C39,246,37.4,245.8,36,246.5z"/>
					<path id="XMLID_479_" class="st3" d="M13.8,257.9c-1.3,0.7-2.1,2-2.2,3.4c-1.2-0.8-2.7-0.9-4-0.2c-1.4,0.7-2.1,2.1-2.1,3.6
						c0.1,1.7,1.1,3.1,2.5,4c2.5,1.8,5.7,2.4,8.8,2.6c1.6-2.6,2.9-5.6,3-8.7c0-1.7-0.4-3.3-1.8-4.4
						C16.8,257.4,15.2,257.2,13.8,257.9z"/>
					<path id="XMLID_478_" class="st3" d="M79.8,210c-1.4,0.7-2.1,2.1-2.1,3.6c0.1,1.7,1.1,3.1,2.5,4c2.5,1.8,5.7,2.4,8.8,2.6
						l-5.2-10.1C82.6,209.4,81.1,209.3,79.8,210z"/>
					<path id="XMLID_477_" class="st3" d="M63.7,218.2c-1.3,0.7-2.1,2-2.2,3.4c-1.2-0.8-2.7-0.9-4-0.2c-1.4,0.7-2.1,2.1-2.1,3.6
						c0.1,1.7,1.1,3.1,2.5,4c2.5,1.8,5.7,2.4,8.8,2.6c1.6-2.6,2.9-5.6,3-8.7c0-1.7-0.4-3.3-1.8-4.4
						C66.7,217.7,65.1,217.5,63.7,218.2z"/>
					<path id="XMLID_476_" class="st3" d="M41.5,229.6c-1.3,0.7-2.1,2-2.2,3.4c-1.2-0.8-2.7-0.9-4-0.2c-1.4,0.7-2.1,2.1-2.1,3.6
						c0.1,1.7,1.1,3.1,2.5,4c2.5,1.8,5.7,2.4,8.8,2.6c1.6-2.6,2.9-5.6,3-8.7c0-1.7-0.4-3.3-1.8-4.4
						C44.4,229.2,42.8,228.9,41.5,229.6z"/>
					<path id="XMLID_475_" class="st3" d="M19.2,241.1c-1.3,0.7-2.1,2-2.2,3.4c-1.2-0.8-2.7-0.9-4-0.2c-1.4,0.7-2.1,2.1-2.1,3.6
						c0.1,1.7,1.1,3.1,2.5,4c2.5,1.8,5.7,2.4,8.8,2.6c1.6-2.6,2.9-5.6,3-8.7c0-1.7-0.4-3.3-1.8-4.4
						C22.2,240.6,20.6,240.4,19.2,241.1z"/>
					<path id="XMLID_474_" class="st3" d="M3,257.3c0-1.7-0.4-3.3-1.8-4.4c-1.2-0.9-2.8-1.1-4.2-0.4c-1.3,0.7-2.1,2-2.2,3.4L0,266
						C1.5,263.4,2.9,260.4,3,257.3z"/>
					<path id="XMLID_473_" class="st3" d="M69.1,201.4c-1.3,0.7-2.1,2-2.2,3.4c-1.2-0.8-2.7-0.9-4-0.2c-1.4,0.7-2.1,2.1-2.1,3.6
						c0.1,1.7,1.1,3.1,2.5,4c2.5,1.8,5.7,2.4,8.8,2.6c1.6-2.6,2.9-5.6,3-8.7c0-1.7-0.4-3.3-1.8-4.4
						C72.1,200.9,70.5,200.7,69.1,201.4z"/>
					<path id="XMLID_472_" class="st3" d="M46.9,212.8c-1.3,0.7-2.1,2-2.2,3.4c-1.2-0.8-2.7-0.9-4-0.2c-1.4,0.7-2.1,2.1-2.1,3.6
						c0.1,1.7,1.1,3.1,2.5,4c2.5,1.8,5.7,2.4,8.8,2.6c1.6-2.6,2.9-5.6,3-8.7c0-1.7-0.4-3.3-1.8-4.4
						C49.8,212.3,48.2,212.1,46.9,212.8z"/>
					<path id="XMLID_471_" class="st3" d="M24.6,224.2c-1.3,0.7-2.1,2-2.2,3.4c-1.2-0.8-2.7-0.9-4-0.2c-1.4,0.7-2.1,2.1-2.1,3.6
						c0.1,1.7,1.1,3.1,2.5,4c2.5,1.8,5.7,2.4,8.8,2.6c1.6-2.6,2.9-5.6,3-8.7c0-1.7-0.4-3.3-1.8-4.4C27.6,223.7,26,223.5,24.6,224.2z
						"/>
					<path id="XMLID_470_" class="st3" d="M2.4,235.7c-1.3,0.7-2.1,2-2.2,3.4c-1.2-0.8-2.7-0.9-4-0.2c-1.4,0.7-2.1,2.1-2.1,3.6
						c0.1,1.7,1.1,3.1,2.5,4c2.5,1.8,5.7,2.4,8.8,2.6c1.6-2.6,2.9-5.6,3-8.7c0-1.7-0.4-3.3-1.8-4.4C5.4,235.2,3.7,235,2.4,235.7z"/>
					<path id="XMLID_469_" class="st3" d="M68.4,195.2c0.1,0.1,0.2,0.2,0.3,0.2c2.5,1.8,5.7,2.4,8.8,2.6l-3.1-5.9L68.4,195.2z"/>
					<path id="XMLID_468_" class="st3" d="M55.3,209.4c1.6-2.6,2.9-5.6,3-8.7c0-0.1,0-0.3,0-0.4l-12.1,6.2c0.1,0.1,0.2,0.2,0.3,0.2
						C49,208.6,52.2,209.2,55.3,209.4z"/>
					<path id="XMLID_467_" class="st3" d="M33,220.9c1.6-2.6,2.9-5.6,3-8.7c0-0.1,0-0.3,0-0.4L24,218c0.1,0.1,0.2,0.2,0.3,0.2
						C26.8,220,30,220.6,33,220.9z"/>
					<path id="XMLID_466_" class="st3" d="M10.8,232.3c1.6-2.6,2.9-5.6,3-8.7c0-0.1,0-0.3,0-0.4l-12.1,6.2c0.1,0.1,0.2,0.2,0.3,0.2
						C4.5,231.4,7.8,232.1,10.8,232.3z"/>
					<path id="XMLID_465_" class="st3" d="M-8.5,235.1c0-0.1,0-0.3,0-0.4l-6,3.1l3.1,5.9C-9.9,241.1-8.5,238.2-8.5,235.1z"/>
				</g>
			</g>
		</g>
		<g id="XMLID_449_">
			<g id="XMLID_459_">
				
					<ellipse id="XMLID_460_" transform="matrix(-0.4571 -0.8894 0.8894 -0.4571 40.7887 107.008)" class="st4" cx="53.1" cy="41.1" rx="5.7" ry="6.6"/>
			</g>
			<g id="XMLID_456_">
				<g id="XMLID_457_">
					<path id="XMLID_458_" class="st4" d="M10.2,43.3c-1.8,2.8,7.3,5.8,8.4,8.5c1.5,3.6-4.7,14.6-0.4,16c9.1,3,36.1-16.7,33.5-24.5
						C49.2,35.5,15.3,35.3,10.2,43.3z"/>
				</g>
			</g>
			<g id="XMLID_454_">
				<path id="XMLID_455_" class="st4" d="M79.8,7.5c-9.5-0.5-29,27.2-24.2,33.8c4.9,6.6,36.6-3.8,39.4-13c1.4-4.4-11.2-5.7-13.3-9
					C80.3,16.9,83.1,7.7,79.8,7.5z"/>
			</g>
			<g id="XMLID_452_">
				<path id="XMLID_453_" class="st5" d="M72.1,30.8c-7.6,2.9-12.2,9-12.2,9s7.6,1.3,15.1-1.6c7.6-2.9,13-7,12.2-9
					C86.4,27.2,79.6,27.9,72.1,30.8z"/>
			</g>
			<g id="XMLID_450_">
				<path id="XMLID_451_" class="st5" d="M33.4,50.6c-6.8,4.4-11.3,9.5-10.1,11.4c1.2,1.8,7.7-0.3,14.5-4.7
					c6.8-4.4,10.1-11.4,10.1-11.4S40.2,46.2,33.4,50.6z"/>
			</g>
		</g>
	</g>
	<g id="XMLID_445_" class="st6">
		<path id="XMLID_447_" class="st7" d="M55.6,54.6l15.9,80.9L85.7,208c6.2,0.2,12.5-0.6,18.8-2L81,133.2L55.6,54.6z"/>
		<path id="XMLID_446_" class="st8" d="M55.6,54.6l15.9,80.9L85.7,208c6.2,0.2,12.5-0.6,18.8-2L81,133.2L55.6,54.6z"/>
	</g>
</g>
</svg>
