<?xml version="1.0" encoding="utf-8"?>
<!-- Generator: Adobe Illustrator 19.0.0, SVG Export Plug-In . SVG Version: 6.00 Build 0)  -->
<svg version="1.1" id="Layer_1" xmlns="http://www.w3.org/2000/svg" xmlns:xlink="http://www.w3.org/1999/xlink" x="0px" y="0px"
	 viewBox="0 0 457.3333 312.6667" enable-background="new 0 0 457.3333 312.6667" xml:space="preserve">
<g id="XMLID_14693_">
	<path id="XMLID_14698_" d="M427.1053,59.9069c5.0314,10.7455,0.549,98.0575-41.406,142.4835
		c-17.5612-35.7529-40.0962-69.6276-86.4899-93.1278C346.7739,56.3279,422.1353,49.2907,427.1053,59.9069z"/>
	<path id="XMLID_14697_" fill="#7C7C7B" d="M326.57,126.2509c0,0,36.3691,28.5377,53.8302,65.7824
		c27.083-38.9711,38.7998-110.8063,34.9634-119C411.5376,64.8628,366.1282,91.053,326.57,126.2509z"/>
	<path id="XMLID_14696_" d="M14.4136,59.9069c-5.0314,10.7455-0.5495,98.0575,41.4054,142.4835
		c17.5619-35.7529,40.0962-69.6276,86.4905-93.1278C94.7444,56.3279,19.3836,49.2907,14.4136,59.9069z"/>
	<path id="XMLID_14695_" fill="#7C7C7B" d="M114.9483,126.2509c0,0-36.3685,28.5377-53.8296,65.7824
		c-27.083-38.9711-38.8004-110.8063-34.9634-119C29.9813,64.8628,75.3901,91.053,114.9483,126.2509z"/>
	<path id="XMLID_14694_" d="M220.7585,125.1009c89.5727,0,160.6484,50.1483,177.6176,135.2659
		c-5.2093-105.137-79.9429-168.7582-177.6176-168.7582c-97.6736,0-172.4065,63.6195-177.6164,168.7564
		C60.1126,175.2469,131.1877,125.1009,220.7585,125.1009z"/>
</g>
</svg>
