<?xml version="1.0" encoding="utf-8"?>
<!-- Generator: Adobe Illustrator 19.0.0, SVG Export Plug-In . SVG Version: 6.00 Build 0)  -->
<svg version="1.1" id="Layer_1" xmlns="http://www.w3.org/2000/svg" xmlns:xlink="http://www.w3.org/1999/xlink" x="0px" y="0px"
	 viewBox="0 0 275.7 184.5" style="enable-background:new 0 0 275.7 184.5;" xml:space="preserve">
<style type="text/css">
	.st0{fill:#EF7B05;}
	.st1{fill:#E11D00;}
	.st2{fill:#B70F02;}
</style>
<g id="XMLID_15191_">
	<path id="XMLID_15198_" class="st0" d="M140,80.3c61.2,0,109.7,36.2,121.3,97.6C257.7,102.1,206.6,56.2,140,56.2
		c-66.7,0-117.7,45.9-121.3,121.7C30.3,116.5,78.8,80.3,140,80.3z"/>
	<g id="XMLID_15196_">
		<path id="XMLID_15197_" class="st1" d="M239.7,10.9c2.6-0.1,5.6,4.7,7.2,12.8c1.6,8,1.7,19.2-0.7,30.3c-2.3,11.1-6.8,22-11.4,29.8
			c-2.3,4-7,11.2-8.7,13.5c-9.9,2.5-33.9-16.2-33.8-23.2c0.2-0.2,11.1-9.5,13.3-11.7c4.6-4.4,9.9-10.9,14.6-18.3
			c4.7-7.3,8.5-15.4,11.4-21.9C234.6,15.8,236.9,11,239.7,10.9z"/>
	</g>
	<path id="XMLID_15195_" class="st2" d="M207.9,73.4c-4.3,0-8.5-0.7-12.4-2.1c-1.8,1.5-3.1,2.7-3.2,2.8c-0.1,7,23.9,25.7,33.8,23.2
		c1.7-2.4,6.4-9.6,8.7-13.5c4.6-7.9,9.1-18.8,11.4-29.8c0.6-3,1.1-6,1.4-8.9C240.4,61.8,225.4,73.4,207.9,73.4z"/>
	<g id="XMLID_15193_">
		<path id="XMLID_15194_" class="st1" d="M40.2,10.9c-2.6-0.1-5.6,4.7-7.2,12.8c-1.6,8-1.7,19.2,0.7,30.3c2.3,11.1,6.8,22,11.4,29.8
			c2.3,4,7,11.2,8.7,13.5c9.9,2.5,33.9-16.2,33.8-23.2c-0.2-0.2-11.1-9.5-13.3-11.7c-4.6-4.4-9.9-10.9-14.6-18.3
			c-4.7-7.3-8.5-15.4-11.4-21.9C45.3,15.8,43,11,40.2,10.9z"/>
	</g>
	<path id="XMLID_15192_" class="st2" d="M72,73.4c4.3,0,8.5-0.7,12.4-2.1c1.8,1.5,3.1,2.7,3.2,2.8c0.1,7-23.9,25.7-33.8,23.2
		c-1.7-2.4-6.4-9.6-8.7-13.5C40.5,76,36,65.1,33.7,54c-0.6-3-1.1-6-1.4-8.9C39.5,61.8,54.5,73.4,72,73.4z"/>
</g>
</svg>
