<?xml version="1.0" encoding="utf-8"?>
<!-- Generator: Adobe Illustrator 19.0.0, SVG Export Plug-In . SVG Version: 6.00 Build 0)  -->
<svg version="1.1" id="Layer_1" xmlns="http://www.w3.org/2000/svg" xmlns:xlink="http://www.w3.org/1999/xlink" x="0px" y="0px"
	 viewBox="0 0 234.6667 240.6667" enable-background="new 0 0 234.6667 240.6667" xml:space="preserve">
<g id="XMLID_924_">
	<g id="XMLID_980_">
		<g id="XMLID_991_">
			<path id="XMLID_992_" fill="#FF932E" d="M47.1233,43.4277c0.1945-0.9563,0.4572-1.9074,0.79-2.8252
				c0.1604-0.4745,0.3384-0.948,0.5564-1.4117c0.2478-0.5079,0.355-0.855,0.8093-1.5368l9.1257,6.956
				c-0.0058-0.0925-0.2475,0.1346-0.3748,0.2652c-0.1797,0.1574-0.3221,0.3272-0.4994,0.5277
				c-0.3197,0.3726-0.6071,0.7743-0.8682,1.1952c-0.5405,0.8263-0.9401,1.7002-1.1539,2.6168
				c-0.4484,1.8127-0.1463,3.9623,1.0783,6.0708c1.2225,2.1214,3.2289,4.0973,5.4781,5.8123c1.89,1.4621,4.0079,2.7,6.1877,3.8736
				c-1.0725-1.3121-2.0865-2.6775-3.0198-4.142c-1.5883-2.5879-3.0221-5.4415-3.6503-8.8482
				c-0.6634-3.356-0.2047-7.4786,1.9272-10.9326c1.0445-1.7381,2.4089-3.2337,3.935-4.4762
				c0.7574-0.6313,1.5583-1.2017,2.391-1.7074c0.4323-0.2649,0.8399-0.5095,1.3277-0.7143
				c0.4774-0.2685,0.8193-0.4532,1.6027-0.7044l2.6801,11.1624c0.0816-0.0744-0.2697-0.0452-0.4569-0.039
				c-0.2392,0.0237-0.4671,0.0652-0.7069,0.0957c-0.4906,0.0901-0.9605,0.2207-1.4439,0.366
				c-0.913,0.3137-1.7931,0.7472-2.539,1.3206c-1.515,1.126-2.6125,2.9591-2.9935,5.4057c-0.371,2.4052-0.077,5.2092,0.5726,7.9339
				c0.4078,1.6323,0.9353,3.271,1.5393,4.8992c0.4128-2.768,0.9786-5.5575,1.8952-8.3014c0.9438-2.8936,2.2656-5.831,4.5087-8.4716
				c2.1539-2.6311,5.6483-4.9088,9.6832-5.4359c1.9767-0.3006,4.0212-0.1852,5.9289,0.1818
				c0.9788,0.1973,1.9104,0.428,2.8592,0.7831c0.4461,0.1423,0.9053,0.3183,1.3853,0.5476c0.4997,0.214,0.8659,0.3689,1.5628,0.7892
				l-6.9266,9.1772c0.0974-0.0107-0.1489-0.2364-0.2801-0.3749c-0.1511-0.1701-0.3272-0.3378-0.5208-0.5043
				c-0.3696-0.2963-0.7797-0.6124-1.1879-0.8641c-0.8262-0.5275-1.715-0.9054-2.6269-1.1201
				c-1.8083-0.465-3.9565-0.1427-6.063,1.1134c-2.1305,1.2453-4.0887,3.2428-5.7708,5.4856
				c-1.6491,2.1879-3.0889,4.6441-4.3809,7.1648c0.4189,1.0519,0.8235,2.1086,1.2902,3.1345
				c-0.7203-0.7732-1.3868-1.5637-2.0872-2.3891c-2.6605-0.4119-5.3171-0.9807-7.9607-1.8692
				c-2.8955-0.9807-5.8068-2.3146-8.4398-4.5537c-2.621-2.1878-4.8731-5.6904-5.3871-9.7252
				C46.6297,47.3686,46.7389,45.3495,47.1233,43.4277z"/>
		</g>
		<g id="XMLID_981_">
			<path id="XMLID_990_" fill="#FFCB3D" d="M75.8798,132.4184l31.6063,7.0985l0.0244,0.0475l12.6578-29.8401
				c9.8947,8.6686,19.7895,17.3372,29.6842,26.0059c2.2654,1.9846,4.5307,3.9693,6.7961,5.9539l-21.5779-4.8462l-13.1013,30.8857
				l-0.0244-0.0475l-32.6514-7.3332l-8.6858,20.4763c-0.2956-3.0263-0.5912-6.0526-0.8868-9.0788
				C78.4406,158.6331,77.1602,145.5258,75.8798,132.4184z"/>
			<path id="XMLID_989_" fill="#FFBA00" d="M74.7119,75.6877L70.24,74.6833c-0.3098-3.1716-0.6196-6.3432-0.9295-9.5147
				c2.4078,2.1094,4.8156,4.2188,7.2234,6.3283l-1.7978,4.2381L74.7119,75.6877z"/>
			<path id="XMLID_988_" fill="#FF932E" d="M85.35,209.0638l13.1014-30.8857l32.6514,7.3331l0.0244,0.0475l13.1013-30.8857
				l32.6514,7.3331l0.0244,0.0475l0.8593-2.0258c7.0643,5.9306,11.3447,10.393,4.6376,20.8506
				c-1.3862,2.1614-2.9158,4.2457-4.5632,6.255l-19.1507-4.3011l-12.4504,29.3514c-0.3738,0.2077-0.7475,0.4146-1.1212,0.6184
				c-0.3635,0.1753-0.7295,0.3488-1.0959,0.5222l-31.1096-6.987l-7.6762,18.0963c-2.6085,0.1707-5.2092,0.2007-7.789,0.067
				c-12.4262-0.6442-13.5426-6.741-14.2456-15.9617l2.1261,0.4775L85.35,209.0638z"/>
			<path id="XMLID_987_" fill="#FF932E" d="M98.3285,121.6819l-24.0245-5.3957c-0.8294-8.4903-1.6588-16.9805-2.4881-25.4708
				l12.0536,2.7071l0.0244,0.0475l4.8322-11.3917c6.4167,5.6215,12.8334,11.2431,19.25,16.8647l-9.6233,22.6864L98.3285,121.6819z"
				/>
			<path id="XMLID_986_" fill="#FFBA00" d="M83.8695,93.5225l-12.0536-2.7071c-0.5253-5.3774-1.0505-10.7547-1.5758-16.1321
				l4.4719,1.0043l0.0243,0.0473l1.7978-4.2381c4.064,3.5604,8.1281,7.1209,12.1921,10.6814L83.8939,93.57L83.8695,93.5225z"/>
			<path id="XMLID_985_" fill="#FF7B00" d="M107.4862,139.5169l-31.6063-7.0985c-0.5253-5.3773-1.0505-10.7547-1.5759-16.1321
				l24.0245,5.3957l0.0243,0.0474l9.6233-22.6864c4.0641,3.5605,8.1281,7.1209,12.1922,10.6813l-12.6578,29.8401L107.4862,139.5169z
				"/>
			<path id="XMLID_984_" fill="#FFAE00" d="M121.9451,167.6762l0.0244,0.0475l13.1013-30.8857l21.5779,4.8462
				c5.4206,4.7489,10.8413,9.4979,16.2619,14.2468c1.693,1.4832,3.3359,2.8231,4.8531,4.0968l-0.8593,2.0258l-0.0244-0.0475
				l-32.6514-7.3331l-13.1013,30.8857l-0.0244-0.0475l-32.6514-7.3331L85.35,209.0638l-0.0244-0.0475l-2.1261-0.4775
				c-0.1497-1.9629-0.2809-4.0644-0.4981-6.2884c-0.6979-7.1437-1.3957-14.2875-2.0936-21.4312l8.6858-20.4763L121.9451,167.6762z"
				/>
			<path id="XMLID_983_" fill="#FF7B00" d="M144.0198,213.3242c-11.9784,5.6662-25.4834,10.2388-38.7858,11.1093l7.6762-18.0963
				L144.0198,213.3242z"/>
			<path id="XMLID_982_" fill="#FF7B00" d="M177.838,187.1333c-8.4474,10.3026-20.0223,18.6146-31.6011,25.0504l12.4504-29.3514
				L177.838,187.1333z"/>
		</g>
	</g>
	<g id="XMLID_977_" opacity="0.34">
		<path id="XMLID_979_" fill="#FFFFFF" d="M70.8371,76.6797l15.1818,78.0147l13.5964,69.8678
			c6.0126,0.1631,12.1152-0.5725,18.1299-1.936l-22.5615-70.1963L70.8371,76.6797z"/>
		<path id="XMLID_978_" opacity="0.37" fill="#FFFFFF" d="M70.8371,76.6797l15.1818,78.0147l13.5964,69.8678
			c6.0126,0.1631,12.1152-0.5725,18.1299-1.936l-22.5615-70.1963L70.8371,76.6797z"/>
	</g>
</g>
</svg>
