<?xml version="1.0" encoding="utf-8"?>
<!-- Generator: Adobe Illustrator 19.0.0, SVG Export Plug-In . SVG Version: 6.00 Build 0)  -->
<svg version="1.1" id="Layer_1" xmlns="http://www.w3.org/2000/svg" xmlns:xlink="http://www.w3.org/1999/xlink" x="0px" y="0px"
	 viewBox="0 0 512.9744 386.9807" enable-background="new 0 0 512.9744 386.9807" xml:space="preserve">
<g id="XMLID_1443_">
	<g id="XMLID_2005_">
		<path id="XMLID_2006_" fill="#142155" d="M86.062,284.7921c0,0,13.0239-188.1642,156.6291-194.3098
			c109.7163-4.6914,191.3098,168.9544,191.3098,168.9544L86.062,284.7921z"/>
	</g>
	<g id="XMLID_1976_">
		<g id="XMLID_2003_">
			<polygon id="XMLID_2004_" fill="#E5E9EA" points="146.7708,215.736 146.7814,205.1022 161.3223,195.1881 157.6802,210.3511 			
				"/>
		</g>
		<g id="XMLID_1999_">
			<polygon id="XMLID_2001_" fill="#E5E9EA" points="132.3068,209.2716 130.0653,193.3002 143.3398,205.581 142.9668,216.2229 			
				"/>
		</g>
		<g id="XMLID_1995_">
			<polygon id="XMLID_1997_" fill="#E5E9EA" points="128.8889,220.5662 111.2476,212.2398 130.4496,210.8532 141.2863,217.6599 			
				"/>
		</g>
		<g id="XMLID_1991_">
			<polygon id="XMLID_1993_" fill="#E5E9EA" points="142.1362,221.6466 137.147,231.188 118.6167,235.6504 129.1977,223.1484 			"/>
		</g>
		<g id="XMLID_1986_">
			<polygon id="XMLID_1989_" fill="#E5E9EA" points="152.563,231.9065 148.2276,247.1846 140.3573,232.3658 145.0663,222.684 			"/>
		</g>
		<g id="XMLID_1982_">
			<polygon id="XMLID_1984_" fill="#E5E9EA" points="163.0243,224.5877 174.2115,238.4266 155.8095,232.1569 149.9403,222.2294 			
				"/>
		</g>
		<g id="XMLID_1978_">
			<polygon id="XMLID_1980_" fill="#E5E9EA" points="149.6185,219.0701 158.8952,212.0756 178.684,213.7989 162.6743,221.7201 			
				"/>
		</g>
	</g>
	<g id="XMLID_1945_">
		<g id="XMLID_1971_">
			<polygon id="XMLID_1974_" fill="#E5E9EA" points="248.6342,212.4905 248.6504,201.8529 263.2487,191.927 259.588,207.0991 			"/>
		</g>
		<g id="XMLID_1967_">
			<polygon id="XMLID_1969_" fill="#E5E9EA" points="234.1201,206.0337 231.8789,190.0597 245.1955,202.3366 244.815,212.9796 			
				"/>
		</g>
		<g id="XMLID_1963_">
			<polygon id="XMLID_1965_" fill="#E5E9EA" points="230.6791,217.3311 212.9788,209.0141 232.2531,207.6165 243.1255,214.4176 			
				"/>
		</g>
		<g id="XMLID_1959_">
			<polygon id="XMLID_1961_" fill="#E5E9EA" points="243.9768,218.4041 238.9631,227.9492 220.361,232.4224 230.9894,219.9135 			
				"/>
		</g>
		<g id="XMLID_1954_">
			<polygon id="XMLID_1956_" fill="#E5E9EA" points="254.4373,228.6591 250.0803,243.9383 242.1851,229.1253 246.9193,219.4401 			
				"/>
		</g>
		<g id="XMLID_1952_">
			<polygon id="XMLID_1953_" fill="#E5E9EA" points="264.9444,221.3312 276.1648,235.1675 257.6942,228.9076 251.8103,218.9826 			
				"/>
		</g>
		<g id="XMLID_1947_">
			<polygon id="XMLID_1950_" fill="#E5E9EA" points="251.4924,215.8234 260.8066,208.823 280.6686,210.5353 264.5966,218.4662 			
				"/>
		</g>
	</g>
	<g id="XMLID_1666_">
		<g id="XMLID_1941_">
			<polygon id="XMLID_1943_" fill="#E5E9EA" points="354.0449,208.9881 354.1161,198.3421 369.3121,188.3289 365.4334,203.5331 			
				"/>
		</g>
		<g id="XMLID_1937_">
			<polygon id="XMLID_1939_" fill="#E5E9EA" points="339.029,202.6025 336.7918,186.6304 350.5307,198.842 350.0822,209.4986 			"/>
		</g>
		<g id="XMLID_1934_">
			<polygon id="XMLID_1935_" fill="#E5E9EA" points="335.3998,213.9305 317.0897,205.7028 337.0882,204.1997 348.3223,210.947 			
				"/>
		</g>
		<g id="XMLID_1921_">
			<polygon id="XMLID_1933_" fill="#E5E9EA" points="349.1868,214.9322 343.932,224.5117 324.6176,229.09 335.7076,216.5132 			"/>
		</g>
		<g id="XMLID_1701_">
			<polygon id="XMLID_1787_" fill="#E5E9EA" points="359.9822,225.1356 355.3734,240.4532 347.274,225.6718 352.2288,215.9529 			
				"/>
		</g>
		<g id="XMLID_1697_">
			<polygon id="XMLID_1698_" fill="#E5E9EA" points="370.9105,217.7445 382.4705,231.5279 363.3582,225.3666 357.3032,215.4682 			
				"/>
		</g>
		<g id="XMLID_1672_">
			<polygon id="XMLID_1678_" fill="#E5E9EA" points="356.9868,212.308 366.6874,205.2517 387.2818,206.8576 370.5651,214.8818 			
				"/>
		</g>
	</g>
	<g id="XMLID_1463_">
		<path id="XMLID_1464_" fill="#6090A8" d="M122.4207,252.8782c0,0-72.3293,9.4567-61.8231,17.7622
			c10.5039,8.3057,18.4586,16.1128,16.8203,21.8c-1.6356,5.6901-10.3905,24.2375,26.6224,22.0797
			c37.0111-2.1577,286.1046-23.8778,315.767-24.6489c29.6713-0.7763,17.9289-17.6192,10.7457-16.9086
			c-7.6103,0.7564,44.2974-21.1287,12.4016-31.2164c-31.8958-10.0827-97.9936-10.1813-174.4457-3.4408
			C192.0568,245.0462,122.4207,252.8782,122.4207,252.8782z"/>
	</g>
	<path id="XMLID_1462_" fill="#81B5C9" d="M309.7268,81.5608c-5.381-5.5732-14.2605-13.2084-21.0364-18.6533
		c3.5691,2.8031,8.2983,3.3693,12.916,4.1543c-6.3324-3.6612-25.4331-9.2528-26.3271-14.6705
		c3.032-0.1291,6.4986-1.2252,9.6215-0.8173c-7.9264-1.009-26.3292-6.2443-13.1239-12.3212
		c-8.4489,0.8882-18.0651,2.9593-26.2504,2.696c1.0291-0.9435,0.8417-2.4498,3.3699-3.711
		c-7.6006,0.6861-16.22,0.4243-23.0285,2.6312c3.836-2.4855,8.8245-4.4235,11.7182-7.4615
		c-8.1836,0.3348-15.999,1.8386-22.3201,5.4936c0.2003-2.0804-1.3148-4.4447-0.8068-6.4952
		c-5.9399,0.705-6.4427,8.1053-10.7111,11.2038c-3.0054-3.4513-3.7987-8.3099-8.223-10.57
		c-2.4745,4.3589-5.684,8.6427-6.4621,13.5457c-3.1566-0.8548-6.9247-2.7047-9.6973-4.7371
		c1.8405,15.6943-0.6243,10.2126-17.7815,12.5679c3.7322,1.2504,6.803,3.3089,8.5812,5.8822
		c-1.718,0.256-4.5036,1.3253-5.2521,1.4462c0.5914,0.2505,1.3375,0.4672,2.128,0.6649c-4.259,0.505-7.9813,1.8081-10.6798,4.7336
		c2.2559,0.246,4.0202,1.7283,5.6202,2.1324c-10.7423,5.9475-8.7123,15.0425-12.0517,24.2552
		c1.7766-2.2605,4.6655-2.4255,7.1958-3.7515c2.6725,8.5463-2.765,16.1433,3.1496,24.7672
		c0.7369-0.9446,2.0026-1.8593,2.6428-2.6145c2.3869,8.8306,4.8538,19.4388,13.8781,25.9415
		c-0.4861-2.7937,0.8372-2.8786,1.1959-4.4656c9.6435,9.9168,23.7109,24.6076,38.7369,28.1445
		c-1.1819-1.165-1.7313-2.5564-2.543-3.5865c9.2493,1.7385,20.1111,5.4616,29.3297,4.0794c-2.7501-2.384-4.3092-5.533-4.6303-8.8413
		c11.1431,2.8372,21.8478,4.8689,33.5098-0.0385c-1.8472-0.8096-3.5665-2.4598-6.2868-3.1207
		c10.407-2.7772,22.5959-8.6085,30.6028-15.6144c-1.5558-0.5663-3.4267-1.8204-4.5731-2.1863
		c13.5545-0.0036,10.6842-4.614,10.6215-13.8891c1.116,1.9262,3.682,3.717,4.9659,5.7473c0.6405,0.2774,1.2248,0.2464,1.7621-0.0996
		c1.2558-6.2182,1.4834-14.2027,1.5176-19.7467c1.2525,2.998,2.6526,5.7638,4.4261,8.7429
		c-2.2695-10.1669-2.3865-23.2701-8.188-32.6757C307.8065,80.4687,309.2993,81.3525,309.7268,81.5608z"/>
	<path id="XMLID_1461_" fill="#A0D7E8" d="M254.6834,134.5691c-19.0164-7.9013-37.7811-15.7967-47.7964-32.2787
		c4.2388,5.2461,10.5414,5.0356,17.0987,5.954c-12.7753-2.091-18.3416-19.1167-19.1145-27.979
		c3.0236,3.9726,8.281,3.6779,13.317,3.9045c-4.6501-4.5123-6.3933-12.1061-3.9102-17.15c2.4008,1.0293,5.1291,0.7145,7.5047,2.1008
		c-3.261-7.713,1.6627-22.6558,11.6652-23.8267c-6.0439-0.0046-12.2654,3.0595-15.1677,6.7039
		c-0.362-2.4832-1.6142-5.0774-1.7779-7.6538c-4.283,3.3582-8.5997,6.803-9.9828,11.3551
		c-0.2776-4.0057-1.7043-8.232-5.9209-10.5903c-3.3418,2.1757-4.8501,5.964-4.997,9.1294c0.2746-2.1588-1.3469-4.7201-1.7726-6.6243
		c-6.6732,0.0544-5.0103,6.3904-5.7344,8.6521l-2.4463-0.734c-5.3379,0.2802-10.7803,0.4224-15.4123,2.3637
		c1.5716,0.2532,5.1127,1.9298,7.1867,2.2455c-5.0103,2.102-10.8525,7.4099-12.1158,12.1524
		c2.8081-0.6929,6.1108-0.2639,8.784-0.8289c-5.3261,6.3101-4.2304,12.0618-2.615,19.5074
		c0.1222-1.8553,1.5537-3.9367,4.7964-4.6968c1.4814,8.0507,1.1409,21.1077,8.1257,27.4615
		c-0.9323-4.1934-1.24-8.2337,2.9435-10.7522c4.5531,15.2114,17.2727,27.4105,33.3439,36.8857
		c-5.9317-4.4151-8.3901-13.0754-10.6867-19.3631C220.2478,127.7251,241.1617,135.482,254.6834,134.5691z"/>
	<g id="XMLID_1456_">
		<g id="XMLID_1459_">
			<path id="XMLID_1460_" fill="#74A3B5" d="M86.0914,260.4453c0.1917-0.0795,0.3853-0.1322,0.5794-0.2144
				c0.0193-0.0937,0.0086-0.1764,0.0302-0.2729L86.0914,260.4453z"/>
		</g>
		<g id="XMLID_1457_">
			<path id="XMLID_1458_" fill="#74A3B5" d="M122.5786,303.7588c-7.3062-6.5833-4.2608-11.3638-3.9724-18.6257
				c0.2267-5.7079-3.1979-10.1795-7.3301-15.1238c-2.9405-3.5184-8.7602-10.3636-4.508-14.0572
				c-8.1327,0.5111-13.9628,1.8139-20.0974,4.2788c-1.2056,5.8786,3.784,9.5959,7.5595,14.3333
				c7.6138,9.5569,0.2284,21.7453,6.4175,31.5633c6.9668,11.0454,30.8979,6.634,45.7539,4.0681
				C136.9045,308.5218,128.3743,308.9786,122.5786,303.7588z"/>
		</g>
	</g>
	<g id="XMLID_1454_">
		<path id="XMLID_1455_" fill="#74A3B5" d="M141.9488,250.6163c0,0-3.9637,4.8531,3.7177,16.0305
			c7.6841,11.1774,3.5793,18.5607,6.1641,26.573c2.5872,8.0126,13.0966,15.7882,13.0966,15.7882l10.3985-0.9694
			c0,0-4.0956-6.9939-5.2083-19.3342c-1.1128-12.34-3.7908-19.4639-3.7908-19.4639s-2.8099-10.9408-4.3388-15.5947
			c-1.5336-4.6539-0.1137-4.8876-0.1137-4.8876L141.9488,250.6163z"/>
	</g>
	<g id="XMLID_1452_">
		<path id="XMLID_1453_" fill="#74A3B5" d="M194.3132,245.7316c0,0,1.7703,15.2023,5.165,22.2597
			c3.3854,7.0601,1.5564,11.89,4.4595,22.6116c2.9036,10.7216,4.6692,14.334,4.6692,14.334l11.8361-1.1053
			c0,0-3.7041-9.7087-3.8635-16.6506c-0.1547-6.9419-0.9921-10.5484-4.3505-18.7628c-3.3584-8.2144,1.1375-20.1591,1.1375-20.1591
			l-0.9734-4.2125L194.3132,245.7316z"/>
	</g>
	<g id="XMLID_1450_">
		<path id="XMLID_1451_" fill="#74A3B5" d="M247.3463,240.7894c0,0,5.7112,8.5518,3.404,14.6744
			c-2.3071,6.1193-3.117,5.779-0.7554,9.6857c2.3616,3.9064,6.8123,15.439,6.7396,20.5313
			c-0.0638,5.0953,3.3584,14.4551,3.3584,14.4551l12.2867-1.1454c0,0-1.5653-9.9108-3.8589-16.651
			c-2.2843-6.7456-1.8476-9.3884-1.8476-9.3884s-0.2819-8.8924-0.082-14.4407c0.2092-5.5512-4.3505-18.7424-4.3505-18.7424
			L247.3463,240.7894z"/>
	</g>
	<g id="XMLID_1448_">
		<path id="XMLID_1449_" fill="#74A3B5" d="M300.1842,237.1338c0,0,5.206,6.8668,3.1128,13.4305
			c-2.0932,6.5613-5.4334,7.8049-2.3663,11.6593c3.076,3.8577,10.2205,11.5728,10.4209,16.123
			c0.191,4.547,0.3187,16.9795,0.3187,16.9795l10.5211-0.9809c0,0,3.5131-9.9224,0.4096-17.049
			c-3.1128-7.1294-6.4348-8.9299-7.1357-11.9565c-0.7009-3.0266,0.7008-13.7713,0.3458-18.333
			c-0.8011-10.0606-5.1422-10.101-5.1422-10.101L300.1842,237.1338z"/>
	</g>
	<g id="XMLID_1446_">
		<path id="XMLID_1447_" fill="#74A3B5" d="M350.4237,235.7112c0,0,3.9497,3.2691,4.0592,11.4661
			c0.0997,8.1999-9.1837,8.9066-5.0061,14.3567c4.1687,5.4505,8.9283,8.8723,7.9819,16.4749
			c-0.9464,7.6054-4.5504,13.4742-4.5504,13.4742l11.5947-1.0822c0,0,6.7079-10.4849,3.7498-18.0269
			c-2.9576-7.5448-7.117-11.9275-7.117-11.9275s3.85-3.2748,5.5336-8.9645c1.6836-5.6868-1.9842-15.6006-1.9842-15.6006
			L350.4237,235.7112z"/>
	</g>
	<g id="XMLID_1444_">
		<path id="XMLID_1445_" fill="#74A3B5" d="M407.0062,238.6716c0,0-0.5598,14.4756-4.7937,18.1593
			c-4.2246,3.6808-11.9839,3.6566-8.5516,7.9846c3.4328,4.331,4.3239,9.595,3.7376,15.963c-0.5956,6.3683-4.1737,9.889-4.1737,9.889
			l13.0706,0.443c0,0,4.6715-9.3242,2.7159-14.5396c-1.9467-5.218-4.144-11.5117-4.144-11.5117s6.5227-0.0986,10.8384-6.5132
			c4.3073-6.4173,6.1024-17.7494,6.1024-17.7494L407.0062,238.6716z"/>
	</g>
</g>
</svg>
