<?xml version="1.0" encoding="utf-8"?>
<!-- Generator: Adobe Illustrator 19.0.0, SVG Export Plug-In . SVG Version: 6.00 Build 0)  -->
<svg version="1.1" id="Layer_1" xmlns="http://www.w3.org/2000/svg" xmlns:xlink="http://www.w3.org/1999/xlink" x="0px" y="0px"
	 viewBox="0 0 187.8 223" style="enable-background:new 0 0 187.8 223;" xml:space="preserve">
<style type="text/css">
	.st0{fill:#FFE469;}
	.st1{fill:#A1B025;}
	.st2{fill:#8A961B;}
	.st3{opacity:0.34;}
	.st4{fill:#FFFFFF;}
	.st5{opacity:0.37;fill:#FFFFFF;}
</style>
<g id="XMLID_444_">
	<g id="XMLID_448_">
		<g id="XMLID_451_">
			<g id="XMLID_452_">
				<g id="XMLID_453_">
					<path id="XMLID_462_" class="st0" d="M95.4,186c19-10.7,34.3-25.1,45.7-43c-4.7-4.1-9.4-8.3-14.2-12.4
						c-3.2,4.5-6.6,8.7-10.2,12.8c-3.9,4.3-8,8.4-12.4,12.2c-7.7,6.7-16.2,12.6-25.3,17.7c-7.6,4.2-14.9,7.4-21.3,9.8
						c0.4,4.4,0.9,8.8,1.3,13.3c0.1,1.2,0.2,2.4,0.3,3.5C66.1,198.4,80,194.6,95.4,186z"/>
					<path id="XMLID_461_" class="st1" d="M71.7,158.8c17.5-9.9,31.9-22.9,43-39c-4.8-4.2-9.6-8.4-14.3-12.6c-2.3,3.1-4.8,6-7.4,8.9
						c-3.9,4.3-8,8.4-12.4,12.2c-7.7,6.7-16.2,12.6-25.3,17.7c-0.4,0.2-0.8,0.4-1.2,0.7c0.6,6.4,1.2,12.7,1.9,19.1
						c0,0.2,0,0.3,0,0.5C60.9,164.4,66.2,161.9,71.7,158.8z"/>
					<path id="XMLID_460_" class="st0" d="M45.6,59.3c0.9,9.3,1.8,18.7,2.7,28c4.8-4.3,9.2-9,13.2-14C55.2,67.6,49.3,62.5,45.6,59.3
						z"/>
					<path id="XMLID_459_" class="st2" d="M73.7,83.9c-1.4,1.7-2.9,3.4-4.4,5.1c-3.9,4.3-8,8.4-12.4,12.2c-2.2,1.9-4.4,3.7-6.7,5.5
						c0.7,7.4,1.5,14.9,2.2,22.3c14.2-8.7,26.1-19.5,35.8-32.4C83.4,92.4,78.5,88.1,73.7,83.9z"/>
					<path id="XMLID_458_" class="st2" d="M140.4,170.5c-3.9,4.3-8,8.4-12.4,12.2c-7.7,6.7-16.2,12.6-25.3,17.7
						c-16.2,9-30.8,13.2-39,15.1c2.1,1.8,5.2,2.8,10,3.1c16.1,0.8,33.1-4.7,47.7-11.7c14.2-7.8,28.6-18.3,37.3-31.9
						c6.9-10.8,2.2-15.2-5.2-21.4C149.5,159.6,145.2,165.2,140.4,170.5z"/>
					<path id="XMLID_457_" class="st1" d="M102.7,200.5c9.1-5.1,17.6-11,25.3-17.7c4.4-3.8,8.5-7.9,12.4-12.2
						c4.7-5.3,9.1-10.9,13-16.9c-1.3-1.1-2.8-2.3-4.2-3.6c-2.7-2.4-5.4-4.7-8.1-7.1c-11.4,17.9-26.7,32.3-45.7,43
						c-15.4,8.7-29.3,12.4-36.1,13.9c0.5,6.9,0.7,12.4,4.5,15.6C71.9,213.7,86.5,209.5,102.7,200.5z"/>
					<path id="XMLID_456_" class="st2" d="M79,173.3c9.1-5.1,17.6-11,25.3-17.7c4.4-3.8,8.5-7.9,12.4-12.2c3.6-4.1,7-8.3,10.2-12.8
						c-0.3-0.2-0.5-0.5-0.8-0.7c-3.8-3.3-7.6-6.7-11.4-10c-11.1,16.1-25.5,29.1-43,39c-5.5,3.1-10.8,5.6-15.7,7.5
						c0.5,5.6,1.1,11.2,1.6,16.8C64.1,180.7,71.4,177.5,79,173.3z"/>
					<path id="XMLID_455_" class="st0" d="M80.6,128.4c5.3-4.6,10-9.1,12.4-12.2c2.4-3,5-5.8,7.4-8.9c-4.1-3.6-8.1-7.1-12.2-10.7
						c-7.4,13.2-20.4,23.9-35.8,32.4c0.6,5.9,1.2,11.8,1.7,17.7c0.4-0.2,0.8-0.4,1.2-0.7C64.5,141,72.9,135.1,80.6,128.4z"/>
					<path id="XMLID_454_" class="st1" d="M69.4,89c1.4-1.7,2.9-3.4,4.4-5.1c-4.1-3.5-8.1-7.1-12.2-10.6c-4,5-8.5,9.7-13.2,14
						c0.6,6.5,1.3,13,1.9,19.5c2.3-1.8,4.5-3.6,6.7-5.5C61.3,97.6,65.4,93.7,69.4,89z"/>
				</g>
			</g>
		</g>
		<g id="XMLID_449_">
			<polygon id="XMLID_450_" class="st2" points="32.3,33.1 37,38.6 39.2,31.7 40.6,38.8 45.9,33.9 43.5,40.7 50.6,39.2 45.1,43.9 
				52,46.1 44.8,47.4 49.7,52.7 42.9,50.3 44.5,57.4 39.8,51.9 37.6,58.8 36.3,51.7 30.9,56.6 33.3,49.7 26.2,51.3 31.7,46.6 
				24.8,44.4 32,43.1 27.1,37.7 33.9,40.2 			"/>
		</g>
	</g>
	<g id="XMLID_445_" class="st3">
		<path id="XMLID_447_" class="st4" d="M47,70.3l15.3,78.3L76,218.7c6,0.2,12.1-0.6,18.1-1.9l-22.7-70.4L47,70.3z"/>
		<path id="XMLID_446_" class="st5" d="M47,70.3l15.3,78.3L76,218.7c6,0.2,12.1-0.6,18.1-1.9l-22.7-70.4L47,70.3z"/>
	</g>
</g>
</svg>
