<?xml version="1.0" encoding="utf-8"?>
<!-- Generator: Adobe Illustrator 19.0.0, SVG Export Plug-In . SVG Version: 6.00 Build 0)  -->
<svg version="1.1" id="Layer_1" xmlns="http://www.w3.org/2000/svg" xmlns:xlink="http://www.w3.org/1999/xlink" x="0px" y="0px"
	 viewBox="0 0 234.6667 240.6667" enable-background="new 0 0 234.6667 240.6667" xml:space="preserve">
<g id="XMLID_924_">
	<g id="XMLID_980_">
		<path id="XMLID_990_" fill="#FFCCD7" d="M112.4841,101.5715c-5.0637-4.4363-10.1274-8.8726-15.1912-13.3088
			c-3.8639,2.479-7.8451,4.7746-11.9352,6.8747c-4.3238,2.2201-8.7719,4.219-13.3264,6.0059
			c0.6516,6.6704,1.3032,13.3407,1.9547,20.0111C88.1195,116.7213,100.9769,110.1819,112.4841,101.5715z"/>
		<path id="XMLID_989_" fill="#FF4D73" d="M134.7508,191.3324c-9.0941,4.6695-18.7225,8.392-28.7845,11.1206
			c-8.7197,2.3647-16.7799,3.7139-23.7323,4.4591c0.7122,8.8356,2.0766,14.6465,14.1916,15.2745
			c16.1381,0.8366,33.0937-4.669,47.6706-11.6985c14.2069-7.7501,28.5615-18.3213,37.2855-31.9238
			c6.5422-10.2006,2.6302-14.6968-4.122-20.4156c-8.264,9.3386-17.4572,17.4702-27.5032,24.2869
			C144.9427,185.702,139.9327,188.6716,134.7508,191.3324z"/>
		<path id="XMLID_988_" fill="#FFE8ED" d="M84.5749,77.1206c-5.4279-4.7554-10.8559-9.5107-16.2838-14.266
			c0.4512,4.6189,1.2273,12.5639,2.0975,21.4715C75.2959,82.2097,80.0235,79.8035,84.5749,77.1206z"/>
		<path id="XMLID_987_" fill="#FFA1B5" d="M116.8278,118.3057c-4.8137,3.2664-9.8237,6.236-15.0057,8.8967
			c-8.3203,4.2722-17.0926,7.7414-26.2301,10.3924c0.6192,6.3394,1.2385,12.6788,1.8577,19.0181
			c2.7239-0.5673,5.5454-1.2399,8.4454-2.0416c20.4063-5.6411,38.2529-15.5407,53.3622-29.5444
			c-4.7976-4.2031-9.5951-8.4061-14.3927-12.6092C122.2481,114.4737,119.5727,116.4431,116.8278,118.3057z"/>
		<path id="XMLID_986_" fill="#FF809B" d="M118.2865,159.2675c-9.0941,4.6695-18.7226,8.3918-28.7844,11.1206
			c-3.614,0.9801-7.1111,1.7815-10.468,2.4427c0.5836,5.9741,1.1671,11.9482,1.7507,17.9223
			c6.3044-0.6849,13.6514-1.9266,21.5748-4.1168c24.7545-6.8418,45.7473-19.9441,62.648-39.0499
			c-4.511-3.9521-9.0222-7.9042-13.5332-11.8562c-5.7016,5.395-11.7669,10.2875-18.1821,14.6406
			C128.4785,153.6372,123.4684,156.6067,118.2865,159.2675z"/>
		<path id="XMLID_985_" fill="#FF4D73" d="M66.9588,60.2602c2.6665-4.4133,4.9742-9.458,5.0583-14.6724
			c0.0461-2.8548-0.7067-5.6529-3.0656-7.4485c-2.0391-1.5522-4.7843-1.907-7.0876-0.7243
			c-2.2569,1.1589-3.5842,3.4123-3.6677,5.7796c-1.9724-1.3116-4.5771-1.5461-6.8341-0.3872
			c-2.3031,1.1826-3.6146,3.6203-3.5413,6.1819c0.0846,2.9634,1.92,5.2057,4.2668,6.8318
			C56.374,58.7912,61.8185,59.8555,66.9588,60.2602z"/>
		<path id="XMLID_984_" fill="#FF6989" d="M102.3595,186.6363c-7.9234,2.1902-15.2703,3.4319-21.5748,4.1168
			c0.2991,3.0611,0.5981,6.1222,0.8971,9.1833c0.2428,2.4856,0.3783,4.8194,0.5521,6.9756
			c6.9524-0.7452,15.0126-2.0944,23.7323-4.4591c10.0619-2.7286,19.6903-6.451,28.7845-11.1206
			c5.1819-2.6608,10.192-5.6303,15.0057-8.8967c10.046-6.8167,19.2392-14.9483,27.5032-24.2869
			c-1.6568-1.4032-3.482-2.8789-5.3687-4.5318c-2.2945-2.0102-4.589-4.0203-6.8834-6.0305
			C148.1068,166.6922,127.1141,179.7945,102.3595,186.6363z"/>
		<path id="XMLID_983_" fill="#FF94AB" d="M85.8952,154.5715c-2.9001,0.8017-5.7215,1.4742-8.4454,2.0416
			c0.4172,4.2711,0.8345,8.5423,1.2517,12.8134c0.1108,1.1348,0.2217,2.2696,0.3325,3.4044c3.357-0.6613,6.854-1.4626,10.468-2.4427
			c10.0618-2.7289,19.6903-6.4511,28.7844-11.1206c5.1819-2.6608,10.192-5.6303,15.0057-8.8967
			c6.4152-4.3532,12.4805-9.2456,18.1821-14.6406c-0.8805-0.7713-1.7609-1.5427-2.6413-2.314
			c-3.1918-2.7964-6.3837-5.5927-9.5756-8.3891C124.1481,139.0307,106.3015,148.9304,85.8952,154.5715z"/>
		<path id="XMLID_982_" fill="#FFB5C5" d="M116.8278,118.3057c2.7111-1.9114,5.4203-3.832,8.0369-5.8878
			c-4.1269-3.6155-8.2537-7.231-12.3806-10.8465c-11.5072,8.6104-24.3646,15.1498-38.4981,19.5829
			c0.5353,5.4801,1.0707,10.9604,1.606,16.4405c9.1375-2.651,17.7584-6.4288,26.2301-10.3924
			C107.0756,124.7445,112.0501,121.6741,116.8278,118.3057z"/>
		<path id="XMLID_981_" fill="#FFDBE3" d="M97.2929,88.2626c-4.2393-3.714-8.4787-7.428-12.718-11.142
			c-4.5514,2.6829-9.279,5.089-14.1863,7.2055c0.5476,5.6057,1.0952,11.2115,1.6428,16.8172
			c4.5545-1.7869,9.0027-3.7858,13.3264-6.0059C89.4478,93.0372,93.429,90.7417,97.2929,88.2626z"/>
	</g>
	<g id="XMLID_977_" opacity="0.34">
		<path id="XMLID_979_" fill="#FFFFFF" d="M69.8269,73.7714l15.337,78.3171l13.7355,70.1386
			c6.0185,0.1746,12.1254-0.5526,18.1432-1.91l-22.7094-70.4845L69.8269,73.7714z"/>
		<path id="XMLID_978_" opacity="0.37" fill="#FFFFFF" d="M69.8269,73.7714l15.337,78.3171l13.7355,70.1386
			c6.0185,0.1746,12.1254-0.5526,18.1432-1.91l-22.7094-70.4845L69.8269,73.7714z"/>
	</g>
</g>
</svg>
