<?xml version="1.0" encoding="utf-8"?>
<!-- Generator: Adobe Illustrator 19.0.0, SVG Export Plug-In . SVG Version: 6.00 Build 0)  -->
<svg version="1.1" id="Layer_1" xmlns="http://www.w3.org/2000/svg" xmlns:xlink="http://www.w3.org/1999/xlink" x="0px" y="0px"
	 viewBox="0 0 512.9744 640.468" enable-background="new 0 0 512.9744 640.468" xml:space="preserve">
<g id="XMLID_2203_">
	<g id="XMLID_2603_">
		<g id="XMLID_2604_">
			<path id="XMLID_2605_" fill="#EF7B05" d="M437.7568,317.4096c2.0572-23.6952,3.0363-48.5515-4.1103-71.1445
				c-4.449-14.0812-11.2283-17.3745-17.2672-35.8443c-4.16-15.8574-15.3385-33.4248-22.5677-41.5899
				c-3.6153-4.0845-5.2944-9.5897-9.2541-13.3537c-4.761-8.1017-12.138-14.389-18.3524-21.8995
				c-14.0287-16.9498-32.6255-25.3413-54.6616-36.4314c-17.7852-8.9493-46.6063-17.771-70.4506-15.0721
				c-12.4434,1.4069-41.0416,5.0522-68.604,22.3557c-9.6955,6.0876-20.8431,19.5813-31.2124,28.1374
				c-8.6226,7.1176-16.8342,14.9359-24.1976,23.4266c-12.9876,14.9783-20.1647,48.6049-25.7256,76.5049
				c-5.848,8.5474-9.9831,18.9068-12.8412,28.3798c-5.4389,18.0255-5.7091,37.4669-4.3936,56.6021
				c-0.7976,15.3463,0.053,30.7986,1.9826,46.5219c1.4014,11.4603,3.6453,25.9712,6.3814,37.2687
				c0.4701,1.9324,1.0598,3.8152,1.5904,5.7194c2.0497,14.1537,4.5133,28.265,7.8386,42.3476
				c4.8356,20.4747,17.2761,39.4982,26.8497,59.322c2.8449,5.8894,13.6669,34.0195,25.7294,32.8587
				c1.0762-8.8942-1.7851-18.323-5.628-27.7623c0.1618-0.2302,0.2951-0.5309,0.3758-0.9485
				c-0.3064-12.5928-8.1253-37.6368-16.1863-55.2056c-0.3866-10.6675-0.0723-21.3279-1.2151-32.1048
				c-3.0504-28.7354-11.3395-42.0008-4.9693-70.5024c2.0554-9.1954,1.0096-26.2032,3.5341-39.2949
				c5.0415-6.8255,11.0978-13.269,18.2051-19.1475c4.1182-3.4068,8.4166-6.7585,12.944-9.942
				c16.5058-5.0379,37.0355-6.305,55.6821-6.1194c34.0658,0.34,55.5404-1.3076,89.9397-1.5077
				c34.4467-0.2019,57.5568,14.6737,77.0685,30.521c8.5142,6.9175,15.5435,14.6473,21.1828,22.8638
				c0.2721,3.1092,0.6339,5.9158,1.179,8.2234c6.7624,28.4683-1.3399,41.7761-3.9934,70.5255
				c-1.7513,19.0131,1.1016,37.6438-3.5313,56.593c-4.6048,18.8257-17.4507,73.3732-15.3765,73.8436
				c15.5717,3.511,39.3517-68.1593,43.5225-81.1946c5.0608-15.7639,10.9726-30.5899,14.5926-46.4564
				c2.5804-11.3152,4.6216-25.8367,5.8616-37.3005C439.8643,356.5314,440.3484,336.9058,437.7568,317.4096z"/>
		</g>
	</g>
	<g id="XMLID_2601_">
		<path id="XMLID_2602_" fill="#E5E9EA" d="M151.696,531.0356c0,0-10.5278-51.6488-10.5278-68.5664
			c0-23.4089,9.2067-55.4712,7.7664-70.1627c-1.4403-14.6915-8.1698-79.639,38.4754-80.6763
			c46.6457-1.0369,144.8936-7.4641,157.0809,8.144c12.1882,15.608,18.1858,60.5977,23.1213,69.7786
			c4.9355,9.1808,7.6519,65.1831,6.6179,78.9544c-1.034,13.7714-2.144,62.8999-2.144,62.8999l18.0381,3.5923
			c0,0,14.8764-154.3691,14.365-184.9271c-0.5118-30.5565-32.9562-68.94-80.7776-74.4082
			c-47.8218-5.4682-180.3354-5.5302-202.0883,28.502c-21.7528,34.0318-10.0296,114.0656,1.429,153.4366
			c11.4591,39.371,12.4518,75.1033,12.4518,75.1033L151.696,531.0356z"/>
	</g>
	<g id="XMLID_2598_">
		<g id="XMLID_2599_">
			<ellipse id="XMLID_2600_" fill="#E5E9EA" cx="256.4883" cy="80.3319" rx="74.7171" ry="60.0258"/>
		</g>
	</g>
	<g id="XMLID_2595_">
		<g id="XMLID_2596_">
			<ellipse id="XMLID_2597_" fill="#FFFDEE" cx="247.5555" cy="71.1984" rx="57.8123" ry="46.6293"/>
		</g>
	</g>
	<g id="XMLID_2591_">
		<g id="XMLID_2592_">
			<g id="XMLID_2593_">
				<path id="XMLID_2594_" fill="#F2FFFF" d="M73.754,289.2973l-0.2942-6.8434c0.4504-0.4653,44.5289-44.9223,146.3166-50.8326
					c74.2934-4.3092,100.2283-0.7575,138.0252,7.7881c23.6857,5.3548,78.7532,37.049,81.1895,38.4559l0.5231,6.7867
					c-0.5897-0.3381-61.0074-36.7148-83.6198-41.8272c-33.7402-7.629-58.3431-12.0795-135.6011-7.5938
					C121.4426,240.9701,74.1908,288.8461,73.754,289.2973z"/>
			</g>
		</g>
	</g>
	<g id="XMLID_2587_">
		<g id="XMLID_2588_">
			<g id="XMLID_2589_">
				<path id="XMLID_2590_" fill="#F2FFFF" d="M97.3952,204.2396l1.6796-6.0998c1.7349-1.4193,42.1099-33.3367,157.7292-33.3367
					c115.3097,0,144.7374,18.6009,146.0055,19.3138l1.6796,4.2012c-0.2895-0.1592-35.1415-19.8908-147.6851-19.8908
					C144.2102,168.4273,97.8071,203.907,97.3952,204.2396z"/>
			</g>
		</g>
	</g>
	<g id="XMLID_2582_">
		<g id="XMLID_2583_">
			<g id="XMLID_2584_">
				<g id="XMLID_2585_">
					<path id="XMLID_2586_" fill="#D3D3D3" d="M156.3421,537.5621c-6.3204-11.6407,2.3772-24.6759-0.1196-36.7378
						c-2.0657-9.9843-12.9355-20.0005-17.2006-29.6309c-5.4614-12.3311-5.3756-25.7414-7.4666-38.4084
						c-2.4992-15.1482-6.1896-30.1934-8.4476-45.3593c-3.3338-22.3875-1.5013-47.4389,6.2843-69.4992
						c11.1452-31.5684,62.011-32.6887,104.4605-34.2743c36.3595-1.3573,74.991-3.3854,106.5567,10.2711
						c36.4406,15.7639,50.2933,46.6989,49.3423,73.0346c-2.069,57.0924-14.259,113.8622-21.2499,170.6962
						c-1.3708,11.1343,22.7404,4.0417,23.7359-4.049c4.4213-35.9592,9.7598-72.0387,14.8206-107.9907
						c4.2599-30.2325,12.5349-62.9745,2.9472-93.0298c-7.6519-24.0018-33.6205-46.9398-67.1576-58.6479
						c-36.351-12.6881-89.1361-7.413-128.2903-5.0664c-34.0906,2.0423-73.0694,7.0006-92.6758,26.8331
						c-19.2837,19.5049-20.7268,42.7579-23.0847,65.1157c-3.5121,33.2497,7.7636,66.2678,12.054,99.282
						c1.9348,14.9148,8.2942,28.424,18.1267,41.9264c10.7751,14.7941-2.8252,31.1314,5.6585,46.754
						C139.1433,557.0811,160.4795,545.1783,156.3421,537.5621L156.3421,537.5621z"/>
				</g>
			</g>
		</g>
	</g>
	<g id="XMLID_2564_">
		<g id="XMLID_2565_">
			<path id="XMLID_2566_" fill="#F2FFFF" d="M98.5132,210.7269l-0.684-2.0313c0.1276-0.0744,1.8963-1.1503,7.8053-3.895
				l1.6796,1.4653C101.558,208.9399,98.5441,210.7093,98.5132,210.7269z M116.6596,202.2079l-1.5346-1.5254
				c3.1499-1.283,6.4593-2.55,9.8264-3.7656l1.407,1.5746C123.0302,199.6934,119.7682,200.9427,116.6596,202.2079z
				 M408.4042,200.1233c-0.022-0.0123-3.5928-2.3731-8.6367-4.3463l1.4905-1.5431c5.4112,2.1147,6.4565,2.8936,6.5456,2.9538
				L408.4042,200.1233z M136.3411,195.092l-1.2789-1.6171c3.3779-1.0851,6.8623-2.1361,10.3547-3.1252l1.1565,1.6563
				C143.126,192.9827,139.6833,194.0215,136.3411,195.092z M389.8683,192.4254c-3.209-0.954-6.7014-1.8846-10.3941-2.7678
				l1.0012-1.6951c3.7593,0.8988,7.3296,1.8473,10.5996,2.8207L389.8683,192.4254z M157.0233,189.2223l-1.0396-1.6882
				c3.506-0.8742,7.126-1.7165,10.7554-2.5058l0.9233,1.7132C164.0695,187.5237,160.4908,188.3572,157.0233,189.2223z
				 M368.7831,187.3341c-3.4539-0.6832-7.1161-1.3431-10.8839-1.9643l0.7117-1.7552c3.8128,0.6299,7.5186,1.2989,11.0172,1.989
				L368.7831,187.3341z M178.4594,184.5667l-0.8013-1.7378c3.6237-0.6763,7.3413-1.3132,11.0561-1.8955l0.6845,1.7592
				C185.7219,183.2692,182.0409,183.8994,178.4594,184.5667z M346.8769,183.7047c-3.5149-0.4848-7.2184-0.9556-11.1171-1.4068
				l0.5118-1.7838c3.9315,0.4548,7.6636,0.9307,11.2114,1.4211L346.8769,183.7047z M200.4515,181.1211l-0.562-1.777
				c3.7288-0.4778,7.5215-0.9111,11.2677-1.2899l0.4447,1.7906C207.7947,180.2291,204.0771,180.6558,200.4515,181.1211z
				 M324.5766,181.1139c-3.6017-0.345-7.347-0.6741-11.24-0.984l0.3509-1.798c3.9203,0.3098,7.688,0.6426,11.3113,0.9911
				L324.5766,181.1139z M302.0586,179.3213c-3.6533-0.2319-7.4216-0.4494-11.3118-0.6477l0.2285-1.8052
				c3.9066,0.1982,7.6965,0.4161,11.3671,0.6513L302.0586,179.3213z M222.8245,178.8647l-0.3279-1.8016
				c3.7171-0.274,7.5159-0.5078,11.3892-0.6955l0.2172,1.8089C230.2681,178.3605,226.5088,178.5903,222.8245,178.8647z
				 M279.4186,178.1728c-3.2029-0.124-6.4814-0.2338-9.8354-0.3291l-1.5037-0.0392l0.1107-1.8121l1.4572,0.0392
				c3.4342,0.099,6.7234,0.2088,9.9433,0.3327L279.4186,178.1728z M245.4143,177.7727l-0.106-1.8121
				c3.5233-0.083,7.1358-0.1413,10.7474-0.1221h0.6925v1.8121h-0.6925c-0.0722,0-0.145,0-0.2196,0
				C252.3043,177.6505,248.8316,177.6933,245.4143,177.7727z"/>
		</g>
	</g>
	<g id="XMLID_2543_">
		<g id="XMLID_2544_">
			<path id="XMLID_2545_" fill="#F2FFFF" d="M75.2947,275.6641v-2.6476c1.2372-1.3659,0.7675-1.1042,5.2583-4.806l2.2524,1.1075
				C78.4948,272.8715,75.3116,275.6409,75.2947,275.6641z M430.1486,267.2635c-2.3467-1.4261-5.1551-3.0773-8.3641-4.8771
				l1.8851-1.3591c3.2367,1.8176,6.0676,3.4861,8.4424,4.9268L430.1486,267.2635z M90.1214,263.8766l-2.0746-1.2424
				c2.5724-1.7415,5.339-3.4651,8.2219-5.1214l1.9081,1.345C95.3515,260.4803,92.6403,262.1689,90.1214,263.8766z M413.1365,257.718
				c-2.7915-1.4511-5.772-2.9465-8.92-4.456l1.7129-1.4475c3.1809,1.5236,6.1896,3.0331,9.0092,4.4984L413.1365,257.718z
				 M106.8355,254.2514l-1.7462-1.4334c2.9866-1.4725,6.1201-2.9096,9.3179-4.2719l1.5848,1.5041
				C112.8505,251.3897,109.7686,252.8039,106.8355,254.2514z M395.0239,249.0452c-3.1762-1.3892-6.3622-2.7182-9.4764-3.9518
				l1.5013-1.5396c3.1532,1.2496,6.3791,2.5946,9.5876,3.9979L395.0239,249.0452z M125.574,246.2491l-1.4286-1.5678
				c3.2555-1.2018,6.6535-2.3681,10.0962-3.4669l1.2733,1.6211C132.1253,243.9166,128.7802,245.0651,125.574,246.2491z
				 M375.7843,241.4108l-0.7478-0.2776c-3.0809-1.1398-6.0868-2.2528-9.0988-3.3252l1.391-1.582
				c3.0247,1.0793,6.0446,2.1959,9.1373,3.3408l0.7473,0.2762L375.7843,241.4108z M145.7589,239.7951l-1.1292-1.6635
				c3.4675-0.9535,7.0462-1.8668,10.6362-2.7109l0.9899,1.6987C152.7108,237.9529,149.1795,238.8539,145.7589,239.7951z
				 M166.9614,234.7908l-0.8567-1.7273c3.5623-0.7132,7.263-1.3928,11.0007-2.0209l0.7281,1.7519
				C174.1385,233.4158,170.4786,234.088,166.9614,234.7908z M355.9447,234.4439c-3.529-1.1042-6.8961-2.0527-10.2942-2.9022
				l1.0401-1.6882c3.4727,0.8687,6.9097,1.8368,10.5109,2.9621L355.9447,234.4439z M188.8366,231.1132l-0.6005-1.7696
				c3.6341-0.5023,7.377-0.968,11.225-1.3961l0.4898,1.7838C196.1409,230.1561,192.4374,230.6179,188.8366,231.1132z
				 M335.0064,229.2322c-3.4896-0.6461-7.1687-1.2195-10.9332-1.7008l0.5611-1.7766c3.8429,0.4918,7.5999,1.076,11.1678,1.736
				L335.0064,229.2322z M211.1487,228.6306l-0.3842-1.7946c1.4018-0.1221,2.814-0.237,4.2407-0.345
				c2.4082-0.1856,4.7741-0.3647,7.0988-0.5309l0.3172,1.8016c-2.3134,0.1664-4.6742,0.3414-7.0739,0.5273
				C213.9345,228.3969,212.5336,228.5118,211.1487,228.6306z M233.7272,226.9973l-0.2782-1.8052
				c3.9095-0.2457,7.6969-0.4635,11.3643-0.6564l0.2336,1.8049C241.396,226.5334,237.6254,226.7512,233.7272,226.9973z
				 M312.9449,226.3743c-3.5815-0.2939-7.3662-0.5309-11.2447-0.706l0.1999-1.8088c3.9343,0.179,7.772,0.4197,11.4066,0.7169
				L312.9449,226.3743z M256.3784,225.8168l-0.1783-1.8085c3.9517-0.1577,7.75-0.2798,11.4066-0.3719l0.1112,1.8121
				C264.0834,225.537,260.3072,225.6592,256.3784,225.8168z M290.3907,225.3247c-2.5714-0.0442-5.2358-0.0652-7.9883-0.0652
				l-3.3394,0.0105l-0.0282-1.8121l3.3676-0.0105c2.7807,0,5.4666,0.021,8.0667,0.0652L290.3907,225.3247z"/>
		</g>
	</g>
	<g id="XMLID_2541_">
		<ellipse id="XMLID_2542_" fill="#E5E9EA" cx="151.6972" cy="548.8947" rx="30.074" ry="17.8627"/>
	</g>
	<g id="XMLID_2539_">
		<ellipse id="XMLID_2540_" fill="#D3D3D3" cx="144.8351" cy="549.2698" rx="19.8785" ry="11.5348"/>
	</g>
	<g id="XMLID_2537_">
		<path id="XMLID_2538_" fill="#E5E9EA" d="M402.1644,549.2665c0,9.8673-13.4699,17.8627-30.0784,17.8627
			c-16.6085,0-30.0723-7.9954-30.0723-17.8627c0-9.864,13.4638-17.8594,30.0723-17.8594
			C388.6945,531.407,402.1644,539.4025,402.1644,549.2665z"/>
	</g>
	<g id="XMLID_2535_">
		<ellipse id="XMLID_2536_" fill="#D3D3D3" cx="364.2258" cy="548.8964" rx="19.8788" ry="11.5345"/>
	</g>
	<g id="XMLID_2515_">
		<g id="XMLID_2525_">
			<g id="XMLID_2533_">
				<path id="XMLID_2534_" fill="#D7DBDD" d="M93.4468,222.1785c0,0-1.643,4.178-3.5731,9.1066
					c-1.2433,3.1781-2.8755,6.4696-5.0913,10.6886c-2.9472,5.6096-4.6747,13.9377-4.6747,13.9377l16.9984-6.836
					c0,0-1.179-1.4142-2.7614-1.9274c3.0612-2.5678,3.9207-7.6431,2.7614-10.4639c-1.4098-3.4314-4.5353-4.93-4.5353-4.93
					s5.7922-1.8918,6.312-5.6436C99.4027,222.3571,93.4468,222.1785,93.4468,222.1785z"/>
			</g>
			<g id="XMLID_2530_">
				<g id="XMLID_2531_">
					<polygon id="XMLID_2532_" fill="#60203E" points="108.6933,233.481 108.1956,232.7627 104.7252,233.6492 105.4562,232.2548 
						104.1801,232.0443 103.1287,234.0543 93.5584,236.4967 94.0557,237.215 103.6157,234.7781 106.4461,235.7142 
						107.1306,235.0278 105.1728,234.3802 					"/>
				</g>
			</g>
			<g id="XMLID_2526_">
				<g id="XMLID_2527_">
					<g id="XMLID_2528_">
						<path id="XMLID_2529_" fill="#60203E" d="M94.4146,226.5921l4.221,0.8916l-4.5691,0.5222
							C94.0665,228.0059,93.269,227.376,94.4146,226.5921z"/>
					</g>
				</g>
			</g>
		</g>
		<g id="XMLID_2522_">
			<g id="XMLID_2523_">
				<polygon id="XMLID_2524_" fill="#60203E" points="92.7792,223.879 97.8094,223.2404 98.1294,216.5156 94.6867,216.3243 				"/>
			</g>
		</g>
		<g id="XMLID_2519_">
			<g id="XMLID_2520_">
				<path id="XMLID_2521_" fill="#60203E" d="M97.3839,225.3283c0.0694,0.2388-0.2055,0.4672-0.6146,0.5132
					c-0.411,0.0497-0.7919-0.1044-0.8586-0.3432c-0.0699-0.2388,0.2055-0.469,0.6174-0.5186
					C96.9335,224.9336,97.3173,225.0895,97.3839,225.3283z"/>
			</g>
		</g>
		<g id="XMLID_2516_">
			<g id="XMLID_2517_">
				<path id="XMLID_2518_" fill="#60203E" d="M92.8514,230.1844c-0.8449,0.0971-1.7546,0.0283-2.5438-0.3896l0.5391-0.3537
					c1.6186,0.8494,3.8489-0.3168,3.8766-0.3258l0.525,0.3417C94.7313,229.7346,93.8362,230.0728,92.8514,230.1844z"/>
			</g>
		</g>
	</g>
	<g id="XMLID_2480_">
		<g id="XMLID_2512_">
			<g id="XMLID_2513_">
				<path id="XMLID_2514_" fill="#FFFFFF" d="M136.6995,235.2065c-0.0169,0.3081,0.153,0.5538,0.3894,0.7698l24.4861-5.5088
					c0.1478-0.237,0.3397-0.4814,0.3561-0.7042c0.0502-0.8868-1.1039-1.3576-2.7887-1.4247
					c2.9777-2.6685,4.9683-5.9619,5.1574-9.1932c0.2759-4.6738-3.2555-7.8096-8.4804-8.2448
					c1.3929-1.3381,2.2993-2.9429,2.3941-4.5179c0.1834-3.1748-3.0063-4.9975-7.1269-4.0704
					c-4.1206,0.9274-7.6134,4.2509-7.7969,7.4275c-0.0943,1.5747,0.6474,2.8117,1.9132,3.5514
					c-5.4112,2.8262-9.4098,7.6554-9.6852,12.3311c-0.1834,3.1357,1.354,5.5707,3.9545,6.9777
					C137.8785,233.4139,136.7493,234.366,136.6995,235.2065z"/>
			</g>
		</g>
		<g id="XMLID_2508_">
			<g id="XMLID_2509_">
				<g id="XMLID_2510_">
					<path id="XMLID_2511_" fill="#60203E" d="M151.5149,206.8462l4.4936,0.2211l-4.9772,1.6776
						C151.0313,208.7449,150.2163,208.1082,151.5149,206.8462z"/>
				</g>
			</g>
		</g>
		<g id="XMLID_2505_">
			<g id="XMLID_2506_">
				<polygon id="XMLID_2507_" fill="#60203E" points="176.5406,210.3023 176.2961,209.4386 172.5284,210.8615 173.7514,209.0334 
					172.5528,208.8812 170.7934,211.52 160.3904,215.4592 160.6325,216.3243 171.021,212.3923 173.5094,213.3285 174.4327,212.3992 
					172.7146,211.7516 				"/>
			</g>
		</g>
		<g id="XMLID_2502_">
			<g id="XMLID_2503_">
				<polygon id="XMLID_2504_" fill="#60203E" points="125.1987,220.9502 125.5519,219.9485 129.2498,219.6973 128.213,218.3774 
					129.4619,217.6709 130.9552,219.5806 141.1682,218.8797 140.8121,219.8815 130.6155,220.5788 127.9517,222.6757 
					127.1147,222.1412 128.9557,220.6936 				"/>
			</g>
		</g>
		<g id="XMLID_2499_">
			<g id="XMLID_2500_">
				<polygon id="XMLID_2501_" fill="#60203E" points="144.1018,207.1912 156.5593,203.0045 151.4455,196.1718 146.1732,198.0883 
									"/>
			</g>
		</g>
		<g id="XMLID_2496_">
			<g id="XMLID_2497_">
				<path id="XMLID_2498_" fill="#60203E" d="M148.7591,207.363c-0.0136,0.2954-0.3725,0.6121-0.7924,0.706
					c-0.425,0.0956-0.7511-0.0656-0.7366-0.3592c0.0192-0.2972,0.3725-0.6139,0.8004-0.7078
					C148.4504,206.9046,148.7784,207.0673,148.7591,207.363z"/>
			</g>
		</g>
		<g id="XMLID_2493_">
			<g id="XMLID_2494_">
				<path id="XMLID_2495_" fill="#60203E" d="M155.255,205.3773c-0.0197,0.2938-0.3758,0.6107-0.7985,0.7064
					c-0.4251,0.0935-0.7507-0.0692-0.7309-0.3628c0.0136-0.2975,0.3725-0.6107,0.7976-0.7078
					C154.9435,204.9173,155.2715,205.0801,155.255,205.3773z"/>
			</g>
		</g>
		<g id="XMLID_2490_">
			<g id="XMLID_2491_">
				<path id="XMLID_2492_" fill="#60203E" d="M151.1865,211.5218c-3.2639,0.7343-4.4513-0.623-4.4964-0.6796l0.7399-0.4356
					c0.0422,0.0497,1.0345,1.1608,3.7903,0.54c2.722-0.6125,3.437-2.1024,3.445-2.1165l0.7732-0.0054
					C155.3991,208.9044,154.5067,210.7749,151.1865,211.5218z"/>
			</g>
		</g>
		<g id="XMLID_2487_">
			<g id="XMLID_2488_">
				<path id="XMLID_2489_" fill="#60203E" d="M151.0894,215.1884c-0.0164,0.2955-0.3725,0.6122-0.798,0.7061
					c-0.4232,0.0957-0.7511-0.0674-0.7337-0.3628c0.0164-0.2954,0.3725-0.6107,0.7976-0.706
					C150.7751,214.73,151.103,214.8927,151.0894,215.1884z"/>
			</g>
		</g>
		<g id="XMLID_2484_">
			<g id="XMLID_2485_">
				<path id="XMLID_2486_" fill="#60203E" d="M150.7971,220.7027c-0.0192,0.2953-0.3753,0.6103-0.7976,0.7078
					c-0.4255,0.0935-0.7506-0.0674-0.7314-0.3628c0.0136-0.2975,0.3697-0.6125,0.798-0.7096
					C150.4856,220.2441,150.8145,220.407,150.7971,220.7027z"/>
			</g>
		</g>
		<g id="XMLID_2481_">
			<g id="XMLID_2482_">
				<path id="XMLID_2483_" fill="#60203E" d="M150.4636,225.8078c-0.0192,0.2957-0.3725,0.6107-0.798,0.7063
					c-0.4222,0.094-0.7502-0.0673-0.731-0.3627c0.0164-0.2957,0.3725-0.6143,0.7976-0.7078
					C150.1525,225.3497,150.4805,225.5124,150.4636,225.8078z"/>
			</g>
		</g>
	</g>
	<g id="XMLID_2428_">
		<g id="XMLID_2477_">
			<g id="XMLID_2478_">
				<path id="XMLID_2479_" fill="#FFFFFF" d="M205.3119,221.7305c-0.0249,0.2939,0.1445,0.5504,0.3889,0.7894l25.7406-1.7856
					c0.1586-0.207,0.3669-0.4104,0.3889-0.6208c0.0727-0.839-1.1255-1.4494-2.8858-1.7505
					c3.1752-2.1235,5.3329-4.9815,5.6059-8.0305c0.3917-4.4168-3.2283-7.903-8.6841-9.0569
					c1.4905-1.076,2.4715-2.4794,2.6052-3.9638c0.2646-3.0034-3.0284-5.187-7.3601-4.8862c-4.3322,0.299-8.061,2.973-8.3284,5.976
					c-0.1304,1.4867,0.6118,2.7678,1.9217,3.6491c-5.7227,1.9307-10.0188,5.9655-10.4134,10.3824
					c-0.2613,2.9624,1.2925,5.5001,3.9789,7.2115C206.5824,220.1895,205.3842,220.9379,205.3119,221.7305z"/>
			</g>
		</g>
		<g id="XMLID_2473_">
			<g id="XMLID_2474_">
				<g id="XMLID_2475_">
					<path id="XMLID_2476_" fill="#60203E" d="M221.4565,196.8035l4.6939,0.8495l-5.2447,0.8919
						C220.9057,198.5449,220.0659,197.823,221.4565,196.8035z"/>
				</g>
			</g>
		</g>
		<g id="XMLID_2470_">
			<g id="XMLID_2471_">
				<polygon id="XMLID_2472_" fill="#60203E" points="247.5555,203.638 247.3191,202.778 243.3425,203.6007 244.666,202.0329 
					243.4148,201.7161 241.5128,203.9831 230.5435,206.2642 230.78,207.1242 241.7329,204.8467 244.316,206.0887 245.3031,205.3349 
					243.518,204.4767 				"/>
			</g>
		</g>
		<g id="XMLID_2467_">
			<g id="XMLID_2468_">
				<polygon id="XMLID_2469_" fill="#60203E" points="193.6023,206.5208 193.9945,205.6216 197.8707,205.9031 196.817,204.4963 
					198.1404,204.0008 199.6558,206.034 210.3586,206.8091 209.9613,207.7116 199.2777,206.9346 196.4444,208.5576 
					195.5798,207.9277 197.5399,206.8107 				"/>
			</g>
		</g>
		<g id="XMLID_2464_">
			<g id="XMLID_2465_">
				<polygon id="XMLID_2466_" fill="#60203E" points="213.6957,196.087 226.8199,193.8552 221.6258,186.6227 216.065,187.7041 				
					"/>
			</g>
		</g>
		<g id="XMLID_2461_">
			<g id="XMLID_2462_">
				<path id="XMLID_2463_" fill="#60203E" d="M218.5613,196.9078c-0.022,0.2781-0.403,0.5291-0.8478,0.5593
					c-0.4448,0.0301-0.7816-0.1682-0.7591-0.444c0.022-0.2849,0.403-0.531,0.8506-0.5665
					C218.2475,196.4248,218.5862,196.6266,218.5613,196.9078z"/>
			</g>
		</g>
		<g id="XMLID_2458_">
			<g id="XMLID_2459_">
				<path id="XMLID_2460_" fill="#60203E" d="M225.3988,195.9292c-0.0249,0.2813-0.4058,0.5347-0.8478,0.5666
					c-0.4476,0.0283-0.7868-0.1736-0.7619-0.4516c0.0249-0.2812,0.4086-0.5306,0.8534-0.5625
					C225.0854,195.4516,225.4241,195.6532,225.3988,195.9292z"/>
			</g>
		</g>
		<g id="XMLID_2452_">
			<g id="XMLID_2454_">
				<path id="XMLID_2457_" fill="#60203E" d="M221.0056,201.2133c-3.437,0.2407-4.6409-1.2263-4.6882-1.283l0.7844-0.3112
					c0.0385,0.0529,1.0565,1.2529,3.9507,1.0492c2.8618-0.1946,3.643-1.5182,3.6519-1.5305l0.8088,0.1062
					C225.4743,199.3129,224.4928,200.971,221.0056,201.2133z"/>
			</g>
		</g>
		<g id="XMLID_2445_">
			<g id="XMLID_2448_">
				<path id="XMLID_2451_" fill="#60203E" d="M220.8194,204.6926c-0.0253,0.2795-0.4082,0.5311-0.851,0.5626
					c-0.4448,0.0301-0.784-0.1696-0.7563-0.4512c0.0197-0.2794,0.4007-0.5306,0.8454-0.5625
					C220.5027,204.2132,220.8414,204.4147,220.8194,204.6926z"/>
			</g>
		</g>
		<g id="XMLID_2432_">
			<g id="XMLID_2437_">
				<path id="XMLID_2441_" fill="#60203E" d="M220.3859,209.9042c-0.0249,0.2813-0.403,0.5291-0.8487,0.5644
					c-0.4476,0.03-0.784-0.1696-0.7591-0.4512c0.0253-0.2794,0.4063-0.531,0.851-0.561
					C220.0715,209.4245,220.4131,209.6263,220.3859,209.9042z"/>
			</g>
		</g>
		<g id="XMLID_2429_">
			<g id="XMLID_2430_">
				<path id="XMLID_2431_" fill="#60203E" d="M219.9242,214.7231c-0.0282,0.2794-0.4063,0.5288-0.8482,0.5592
					c-0.4504,0.0301-0.7868-0.1682-0.7619-0.448c0.0253-0.2813,0.4063-0.531,0.851-0.561
					C219.6099,214.2432,219.9491,214.4451,219.9242,214.7231z"/>
			</g>
		</g>
	</g>
	<g id="XMLID_2382_">
		<g id="XMLID_2425_">
			<g id="XMLID_2426_">
				<path id="XMLID_2427_" fill="#FFFFFF" d="M281.2535,218.9207c-0.0248,0.2881,0.1478,0.5643,0.3927,0.8332l25.8654,1.4142
					c0.1609-0.1895,0.3697-0.3682,0.3917-0.5752c0.0751-0.8249-1.1288-1.5805-2.9003-2.0988
					c3.1926-1.72,5.3638-4.2932,5.6364-7.2981c0.3979-4.3444-3.2395-8.2625-8.7202-10.0851
					c1.4961-0.8883,2.4837-2.1627,2.6198-3.6242c0.2669-2.9534-3.0425-5.5353-7.3934-5.7708
					c-4.3552-0.2388-8.1032,1.9589-8.3725,4.9126c-0.1337,1.4635,0.6141,2.8331,1.9292,3.8736
					c-5.75,1.2105-10.0681,4.6916-10.4692,9.0377c-0.2637,2.9146,1.2991,5.6328,3.9962,7.6678
					C282.5329,217.542,281.329,218.1418,281.2535,218.9207z"/>
			</g>
		</g>
		<g id="XMLID_2421_">
			<g id="XMLID_2422_">
				<g id="XMLID_2423_">
					<path id="XMLID_2424_" fill="#60203E" d="M297.4872,196.1134l4.7188,1.4261l-5.2719,0.2392
						C296.9341,197.7788,296.0914,196.9539,297.4872,196.1134z"/>
				</g>
			</g>
		</g>
		<g id="XMLID_2418_">
			<g id="XMLID_2419_">
				<polygon id="XMLID_2420_" fill="#60203E" points="323.7115,206.1471 323.475,205.2624 319.4792,205.5878 320.8084,204.19 
					319.5515,203.7229 317.6416,205.7436 306.6165,206.6533 306.8524,207.5399 317.8611,206.6269 320.4551,208.1875 
					321.4478,207.5557 319.6542,206.4798 				"/>
			</g>
		</g>
		<g id="XMLID_2412_">
			<g id="XMLID_2413_">
				<polygon id="XMLID_2417_" fill="#60203E" points="269.4974,202.3337 269.892,201.486 273.785,202.2471 272.7257,200.7162 
					274.0576,200.387 275.5809,202.5975 286.3311,204.6945 285.9338,205.5455 275.2009,203.4485 272.3503,204.7119 
					271.4796,203.9776 273.4514,203.1088 				"/>
			</g>
		</g>
		<g id="XMLID_2409_">
			<g id="XMLID_2410_">
				<polygon id="XMLID_2411_" fill="#60203E" points="289.6903,194.4394 302.8787,193.8465 297.6626,186.0033 292.0731,186.3911 
									"/>
			</g>
		</g>
		<g id="XMLID_2406_">
			<g id="XMLID_2407_">
				<path id="XMLID_2408_" fill="#60203E" d="M294.5817,195.8604c-0.0253,0.2708-0.4063,0.4741-0.8539,0.4513
					c-0.4476-0.025-0.7868-0.2657-0.7619-0.5383c0.0225-0.2775,0.4063-0.4794,0.8539-0.458
					C294.2646,195.3418,294.6066,195.5825,294.5817,195.8604z"/>
			</g>
		</g>
		<g id="XMLID_2403_">
			<g id="XMLID_2404_">
				<path id="XMLID_2405_" fill="#60203E" d="M301.4525,195.7329c-0.0253,0.2761-0.4091,0.4777-0.8539,0.4566
					c-0.4476-0.0284-0.7896-0.2689-0.7647-0.5433c0.0248-0.2762,0.4091-0.4781,0.8567-0.453
					C301.1353,195.2179,301.4745,195.4603,301.4525,195.7329z"/>
			</g>
		</g>
		<g id="XMLID_2400_">
			<g id="XMLID_2401_">
				<path id="XMLID_2402_" fill="#60203E" d="M297.034,200.4455c-3.4506-0.1859-4.6629-1.7962-4.7103-1.8563l0.7872-0.2106
					c0.0413,0.0565,1.0617,1.3732,3.97,1.5309c2.8783,0.1609,3.6627-1.0568,3.6711-1.071l0.8145,0.2055
					C301.5247,199.1077,300.5376,200.6346,297.034,200.4455z"/>
			</g>
		</g>
		<g id="XMLID_2397_">
			<g id="XMLID_2398_">
				<path id="XMLID_2399_" fill="#60203E" d="M296.8449,203.8838c-0.0254,0.2761-0.4087,0.478-0.8539,0.4548
					c-0.4476-0.0246-0.7868-0.2671-0.7619-0.5415c0.0197-0.2762,0.4058-0.4777,0.8539-0.4548
					C296.5282,203.3673,296.8698,203.613,296.8449,203.8838z"/>
			</g>
		</g>
		<g id="XMLID_2390_">
			<g id="XMLID_2392_">
				<path id="XMLID_2396_" fill="#60203E" d="M296.4086,209.0175c-0.0253,0.2762-0.4063,0.478-0.8539,0.4566
					c-0.4476-0.0266-0.7868-0.2653-0.7619-0.5433c0.0253-0.2762,0.4063-0.4777,0.8567-0.4548
					C296.0942,208.4992,296.4362,208.7435,296.4086,209.0175z"/>
			</g>
		</g>
		<g id="XMLID_2384_">
			<g id="XMLID_2386_">
				<path id="XMLID_2388_" fill="#60203E" d="M295.9408,213.7568c-0.0248,0.2741-0.4081,0.476-0.8534,0.4513
					c-0.4504-0.025-0.7896-0.2657-0.7619-0.5419c0.0249-0.2739,0.4058-0.4776,0.8539-0.453
					C295.627,213.2419,295.9662,213.4807,295.9408,213.7568z"/>
			</g>
		</g>
	</g>
	<g id="XMLID_2269_">
		<g id="XMLID_2371_">
			<g id="XMLID_2374_">
				<path id="XMLID_2379_" fill="#FFFFFF" d="M360.4186,228.1882c0.0586,0.3131,0.3003,0.6531,0.6118,0.9945l25.006,6.2982
					c0.1004-0.1805,0.2449-0.3363,0.212-0.561c-0.1726-0.9006-1.5238-1.9553-3.3596-2.8544c2.5419-1.3167,3.871-3.7674,3.27-7.0415
					c-0.867-4.7354-5.4497-9.7383-11.1781-12.7591c1.1677-0.706,1.741-1.9357,1.4544-3.5267
					c-0.5921-3.2227-4.4767-6.6856-8.6841-7.7422c-4.2121-1.0619-7.1461,0.6865-6.5597,3.9037
					c0.2923,1.5928,1.3995,3.2473,2.9449,4.6365c-5.1246,0.2884-8.2336,3.3517-7.3713,8.0856
					c0.5836,3.1781,2.8473,6.4713,5.9948,9.216C361.2415,226.8961,360.2661,227.3387,360.4186,228.1882z"/>
			</g>
		</g>
		<g id="XMLID_2357_">
			<g id="XMLID_2361_">
				<g id="XMLID_2364_">
					<path id="XMLID_2368_" fill="#60203E" d="M369.3358,205.9242l4.8942,2.442l-4.9439-0.6988
						C369.2861,207.6674,368.246,206.6001,369.3358,205.9242z"/>
				</g>
			</g>
		</g>
		<g id="XMLID_2348_">
			<g id="XMLID_2351_">
				<polygon id="XMLID_2354_" fill="#60203E" points="344.4908,207.6834 344.625,206.8161 348.5452,208.3735 347.1021,206.4834 
					348.2727,206.3631 350.3552,209.0885 361.1777,213.3781 361.0416,214.2432 350.2389,209.9609 347.8861,210.835 
					346.8521,209.8652 348.4753,209.2636 				"/>
			</g>
		</g>
		<g id="XMLID_2339_">
			<g id="XMLID_2342_">
				<polygon id="XMLID_2345_" fill="#60203E" points="361.439,202.6449 373.8153,204.4024 366.611,194.7703 361.4057,194.1738 				
					"/>
			</g>
		</g>
		<g id="XMLID_2329_">
			<g id="XMLID_2333_">
				<path id="XMLID_2336_" fill="#60203E" d="M366.497,205.1102c0.0558,0.299-0.2505,0.4548-0.6808,0.3468
					c-0.434-0.1131-0.8267-0.4389-0.8787-0.7361c-0.0587-0.3026,0.2501-0.4548,0.6807-0.3505
					C366.0494,204.4785,366.4444,204.8094,366.497,205.1102z"/>
			</g>
		</g>
		<g id="XMLID_2319_">
			<g id="XMLID_2322_">
				<path id="XMLID_2326_" fill="#60203E" d="M372.9985,206.2305c0.0526,0.3008-0.2529,0.4566-0.684,0.3504
					c-0.434-0.1134-0.8257-0.4424-0.8815-0.7414c-0.0558-0.3026,0.2529-0.453,0.6835-0.3468
					C372.5476,205.6038,372.9427,205.9315,372.9985,206.2305z"/>
			</g>
		</g>
		<g id="XMLID_2310_">
			<g id="XMLID_2313_">
				<path id="XMLID_2316_" fill="#60203E" d="M370.1451,210.6386c-3.3366-0.8405-4.9519-2.8439-5.0157-2.9182l0.692-0.0885
					c0.0526,0.0657,1.4014,1.7133,4.213,2.4193c2.7835,0.7024,3.1809-0.4991,3.1865-0.5132l0.8309,0.3787
					C374.0297,209.9786,373.5319,211.488,370.1451,210.6386z"/>
			</g>
		</g>
		<g id="XMLID_2301_">
			<g id="XMLID_2304_">
				<path id="XMLID_2307_" fill="#60203E" d="M370.946,214.4078c0.053,0.3008-0.2529,0.453-0.684,0.3436
					c-0.4283-0.108-0.8201-0.4371-0.8759-0.7379c-0.061-0.3026,0.2477-0.453,0.6789-0.3454
					C370.4956,213.7761,370.8906,214.107,370.946,214.4078z"/>
			</g>
		</g>
		<g id="XMLID_2291_">
			<g id="XMLID_2294_">
				<path id="XMLID_2298_" fill="#60203E" d="M372.003,220.0054c0.053,0.3026-0.2529,0.4548-0.6812,0.3486
					c-0.4368-0.1099-0.829-0.4407-0.8815-0.7397c-0.0558-0.3008,0.2501-0.4548,0.6812-0.3454
					C371.5526,219.3752,371.95,219.7078,372.003,220.0054z"/>
			</g>
		</g>
		<g id="XMLID_2281_">
			<g id="XMLID_2284_">
				<path id="XMLID_2287_" fill="#60203E" d="M372.9122,225.1638c0.0526,0.299-0.2533,0.4512-0.6817,0.3432
					c-0.4363-0.1131-0.8285-0.439-0.8815-0.7415c-0.0582-0.2991,0.2477-0.453,0.6817-0.3414
					C372.4641,224.5375,372.8592,224.8629,372.9122,225.1638z"/>
			</g>
		</g>
		<g id="XMLID_2272_">
			<g id="XMLID_2275_">
				<polygon id="XMLID_2278_" fill="#60203E" points="398.6828,219.1914 398.4938,218.3013 394.4787,218.5401 395.8853,217.172 
					394.6566,216.6765 392.6378,218.655 381.5653,219.3204 381.7543,220.2123 392.8104,219.5415 395.3124,221.159 
					396.3418,220.5486 394.612,219.4339 				"/>
			</g>
		</g>
	</g>
	<g id="XMLID_2204_">
		<g id="XMLID_2237_">
			<g id="XMLID_2263_">
				<path id="XMLID_2266_" fill="#D7DBDD" d="M418.3423,216.1934c0,0,2.1576,4.0827,4.6934,8.8978
					c1.6294,3.1056,3.6702,6.3051,6.4011,10.3983c3.6369,5.4453,4.9327,13.1715,4.9327,13.1715l-16.3332-5.472
					c0,0,1.0012-1.4684,2.5137-2.0596c-3.3704-2.405-4.8604-7.422-4.0544-10.2924c0.9786-3.4912,3.9095-5.1424,3.9095-5.1424
					s-6.0061-1.5944-6.996-5.3073C412.4248,216.6715,418.3423,216.1934,418.3423,216.1934z"/>
			</g>
			<g id="XMLID_2252_">
				<g id="XMLID_2256_">
					<polygon id="XMLID_2259_" fill="#60203E" points="404.5444,228.2288 404.9559,227.4872 408.5266,228.1951 407.6259,226.8432 
						408.871,226.5689 410.1616,228.5191 420.0106,230.4729 419.6048,231.214 409.7722,229.2657 407.0638,230.3417 
						406.2968,229.6904 408.1705,228.9474 					"/>
				</g>
			</g>
			<g id="XMLID_2240_">
				<g id="XMLID_2243_">
					<g id="XMLID_2246_">
						<path id="XMLID_2249_" fill="#60203E" d="M417.9252,220.6425l-4.0934,1.1007l4.6155,0.2899
							C418.4474,222.0332,419.1652,221.3663,417.9252,220.6425z"/>
					</g>
				</g>
			</g>
		</g>
		<g id="XMLID_2228_">
			<g id="XMLID_2231_">
				<polygon id="XMLID_2234_" fill="#60203E" points="419.2149,217.8551 414.1213,217.4713 412.9695,210.7836 416.3793,210.4208 
									"/>
			</g>
		</g>
		<g id="XMLID_2219_">
			<g id="XMLID_2222_">
				<path id="XMLID_2224_" fill="#60203E" d="M414.8109,219.531c-0.0446,0.2425,0.2613,0.4566,0.6723,0.4812
					c0.4175,0.0284,0.7793-0.1431,0.8177-0.3855c0.0338-0.2406-0.267-0.4566-0.684-0.4849
					C415.2112,219.1153,414.8438,219.2903,414.8109,219.531z"/>
			</g>
		</g>
		<g id="XMLID_2208_">
			<g id="XMLID_2211_">
				<path id="XMLID_2214_" fill="#60203E" d="M419.9271,224.1446c0.8562,0.0547,1.7574-0.0602,2.4912-0.5168l-0.5836-0.3258
					c-1.5074,0.9292-3.8762-0.1222-3.9043-0.129l-0.4832,0.3664C418.0026,223.7905,418.9372,224.0827,419.9271,224.1446z"/>
			</g>
		</g>
	</g>
</g>
</svg>
