<?xml version="1.0" encoding="utf-8"?>
<!-- Generator: Adobe Illustrator 19.0.0, SVG Export Plug-In . SVG Version: 6.00 Build 0)  -->
<svg version="1.1" id="Layer_1" xmlns="http://www.w3.org/2000/svg" xmlns:xlink="http://www.w3.org/1999/xlink" x="0px" y="0px"
	 viewBox="0 0 473.6487 500.6757" enable-background="new 0 0 473.6487 500.6757" xml:space="preserve">
<g id="XMLID_1355_">
	<linearGradient id="XMLID_67_" gradientUnits="userSpaceOnUse" x1="50.5173" y1="332.9456" x2="456.4114" y2="332.9456">
		<stop  offset="0" style="stop-color:#4C3012"/>
		<stop  offset="0.2295" style="stop-color:#503312"/>
		<stop  offset="0.4437" style="stop-color:#5B3B12"/>
		<stop  offset="0.6517" style="stop-color:#6E4912"/>
		<stop  offset="0.8547" style="stop-color:#885D12"/>
		<stop  offset="1" style="stop-color:#A06F12"/>
	</linearGradient>
	<path id="XMLID_1471_" fill="url(#XMLID_67_)" d="M51.3573,309.2687c14.8214-6.9713,32.97-8.6129,38.5251-10.9362
		c9.2635-5.8077,43.2272-23.2322,56.1923-29.6211c12.968-6.3889,192.6609-2.9059,219.8283,4.0655
		c27.1715,6.9687,88.9063,18.9998,88.9063,18.9998c6.871,6.8444-9.866,39.084-21.5981,47.7961
		c-11.7321,8.7109-16.6723,16.2621-26.5522,24.3932c-9.8787,8.1337-55.5747,35.4314-69.1591,34.2704
		c-13.5857-1.1611-21.6136,0.5811-26.5537,1.7421c-4.94,1.1637-32.1087,0.5811-40.1366-2.3234
		c-8.0264-2.9044-17.9065-4.0655-29.0223-4.648c-11.1129-0.5784-42.608-6.9673-77.1882-31.3618
		c-34.5786-24.3946-51.6535-35.4474-80.2718-39.4984C49.7401,317.2529,48.8886,315.6576,51.3573,309.2687z"/>
	<linearGradient id="XMLID_68_" gradientUnits="userSpaceOnUse" x1="51.1315" y1="328.3817" x2="454.4099" y2="328.3817">
		<stop  offset="0" style="stop-color:#624A12"/>
		<stop  offset="1" style="stop-color:#BF8624"/>
	</linearGradient>
	<path id="XMLID_1470_" fill="url(#XMLID_68_)" d="M51.5992,308.873c14.8186-6.9714,32.728-12.7791,38.2831-15.1037
		c9.2635-5.8065,43.2272-23.2336,56.1923-29.6211c12.968-6.3903,192.6609-2.9045,219.8283,4.0655
		c27.1715,6.97,88.3038,22.6524,88.3038,22.6524c1.8522,11.6167-9.2635,35.43-20.9957,44.1435
		c-11.7321,8.7123-16.6723,16.2621-26.5522,24.3932c-9.8787,8.1324-55.5747,35.43-69.1591,34.2703
		c-13.5857-1.1623-21.6136,0.5799-26.5537,1.7422c-4.94,1.1623-32.1087,0.5798-40.1366-2.3234
		c-8.0264-2.9044-17.9065-4.0641-29.0223-4.6466c-11.1129-0.5786-42.608-6.9701-77.1882-31.3645
		c-34.5786-24.3932-51.8702-34.269-80.2718-39.4956C55.9201,312.3573,49.1306,315.2617,51.5992,308.873z"/>
	<linearGradient id="XMLID_69_" gradientUnits="userSpaceOnUse" x1="51.1315" y1="330.9151" x2="456.2075" y2="330.9151">
		<stop  offset="0" style="stop-color:#624A12"/>
		<stop  offset="0.1304" style="stop-color:#6A5014"/>
		<stop  offset="0.3323" style="stop-color:#80601B"/>
		<stop  offset="0.5803" style="stop-color:#A37B25"/>
		<stop  offset="0.8626" style="stop-color:#D49F34"/>
		<stop  offset="0.8667" style="stop-color:#D5A034"/>
		<stop  offset="1" style="stop-color:#D5AA34"/>
	</linearGradient>
	<path id="XMLID_1467_" fill="url(#XMLID_69_)" d="M454.2068,290.8661c0,0-61.1323-15.6823-88.3038-22.6524
		c-27.1673-6.97-187.1706,3.1031-200.1386,9.4933c-12.9664,6.3889-52.5556,9.8865-75.882,16.0623
		c-5.5551,2.3246-23.4645,8.1323-38.2831,15.1037c-2.4686,6.3888,4.3208,3.4843,32.728,8.7122
		c28.4016,5.2266,45.6931,15.1024,80.2718,39.4956c34.5802,24.3945,66.0753,30.7859,77.1882,31.3645
		c11.1158,0.5825,20.9959,1.7422,29.0223,4.6466c8.0279,2.9032,35.1966,3.4857,40.1366,2.3234
		c4.9401-1.1623,12.968-2.9045,26.5537-1.7422c13.5844,1.1597,59.2804-26.1379,69.1591-34.2703
		c9.8799-8.1311,14.82-15.681,26.5522-24.3932C444.9432,326.2961,462.0854,292.9166,454.2068,290.8661z M426.1064,335.1248
		c-10.1686,9.1213-16.5849,14.7927-25.8711,22.4366c-9.2875,7.6412-52.3572,31.2546-65.1253,30.1637
		c-12.7708-1.0907-20.3173,0.5468-24.9604,1.6389c-4.6431,1.0922-30.1833,0.5441-37.73-2.1857
		c-7.5423-2.7285-16.8327-3.8205-27.2799-4.3674c-10.4472-0.5453-40.0494-6.5517-72.5536-29.4792
		c-32.5055-22.933-48.757-32.2159-75.457-37.1273c-26.7001-4.9155-33.0854-2.1844-30.7632-8.1894
		c13.9306-6.5529,30.7632-12.0125,35.9848-14.1968c8.7062-5.4583,56.0755-4.7818,68.2638-10.788
		c12.1896-6.0063,165.6553-19.7836,191.1942-13.2331c25.5403,6.5517,74.8083,17.0352,79.2572,26.5443
		C445.5105,305.8454,443.4893,319.5352,426.1064,335.1248z"/>
	<linearGradient id="XMLID_70_" gradientUnits="userSpaceOnUse" x1="51.2293" y1="327.4106" x2="429.3406" y2="327.4106">
		<stop  offset="0" style="stop-color:#624A12"/>
		<stop  offset="0.2308" style="stop-color:#654C12"/>
		<stop  offset="0.4029" style="stop-color:#6E5213"/>
		<stop  offset="0.5558" style="stop-color:#7F5C13"/>
		<stop  offset="0.6969" style="stop-color:#956A14"/>
		<stop  offset="0.7697" style="stop-color:#A47315"/>
		<stop  offset="0.8422" style="stop-color:#A77617"/>
		<stop  offset="0.9026" style="stop-color:#B27F1E"/>
		<stop  offset="0.9586" style="stop-color:#C38F29"/>
		<stop  offset="1" style="stop-color:#D5A034"/>
	</linearGradient>
	<path id="XMLID_1466_" fill="url(#XMLID_70_)" d="M51.5992,308.873c14.8186-6.9714,32.728-12.7791,38.2831-15.1037
		c32.6253-8.4581,60.5202-18.3433,56.1923-29.6211c12.968-6.3903,205.5655,20.0245,232.7341,26.9958
		c8.6049,2.2082-20.9676,41.3596-90.9597,49.304c-23.4462,2.6623-56.1713-4.3739-78.4253-2.281
		c-20.2133,1.9037-27.9175,14.5637-4.4475,27.3785c12.4417,6.7953,33.4261,10.3207,58.2135,15.5909
		c17.9699,3.8207,33.474,7.1289,40.4266,6.8442c9.2989-0.3786,27.4544-3.0408,33.1488-3.0408
		c15.6307,0,50.1278-17.7449,62.5271-27.8856c8.6233-6.0843,20.886-17.3648,30.0483-24.9703
		c-6.802,6.9409-16.3949,16.838-26.2764,24.9703c-9.8786,8.1325-47.7043,31.1819-63.874,31.6889
		c-13.6322,0.4289-24.9731,1.1187-29.9145,2.281c-4.9414,1.1611-27.0084,0.8764-35.0363-2.0281
		c-8.0264-2.9058-21.2266-3.475-32.3409-4.0562c-11.1143-0.5813-39.2654-5.5179-73.8442-29.9136
		c-34.5815-24.3932-52.4487-33.8123-80.8517-39.0389C58.7981,310.7595,49.1306,315.2617,51.5992,308.873z"/>
	<path id="XMLID_1465_" fill="#553A12" d="M379.3492,291.1427c-3.7746,12.1661-22.7803,32.8246-84.2731,41.39
		c-8.5937,10.2863-34.6321,4.3158-49.6057,0.7347c-16.7087,4.0536-69.6825-1.9475-75.7751-17.2669
		c-34.4985-16.7321-40.4505-44.6322-30.2088-49.1941C149.7284,262.2404,377.7322,280.4937,379.3492,291.1427z"/>
	<linearGradient id="XMLID_71_" gradientUnits="userSpaceOnUse" x1="92.2544" y1="301.6143" x2="288.2792" y2="125.1128">
		<stop  offset="0" style="stop-color:#533812"/>
		<stop  offset="0.2545" style="stop-color:#624A12"/>
		<stop  offset="0.4725" style="stop-color:#89631A"/>
		<stop  offset="0.6904" style="stop-color:#A97721"/>
		<stop  offset="0.8739" style="stop-color:#BC8425"/>
		<stop  offset="1" style="stop-color:#C38827"/>
	</linearGradient>
	<path id="XMLID_1464_" fill="url(#XMLID_71_)" d="M17.6193,196.7166c3.7044-8.7109,14.8201-12.7791,17.2901-19.1667
		c14.2022-5.2264,17.2901-8.7135,19.1422-11.6167c6.1744-2.322,15.4366-10.4557,17.2901-13.9401
		c8.6457-0.5811,22.4073-8.5199,24.2594-14.3276c12.3473,0,43.8954,7.0941,50.6861-5.1037
		c-6.1729,14.5212,2.4701,20.329,10.4993,27.299c-4.3236,6.9726-6.1757,11.0356,0,23.8159
		c-7.4086,5.2239-3.0865,12.1953,0.618,19.168c3.7029,6.9687,0,7.5498-1.2344,11.0342c-1.2371,3.4857-11.7336,8.1311-6.1771,26.1367
		c5.5592,18.0069,5.5592,15.5911,25.9358,31.8572c20.3764,16.2621,63.6024,25.5555,101.2704,24.3958
		c37.6653-1.1609,73.4812-17.4258,85.8297-33.6893c6.1758-34.8488,3.0879-12.6878-22.8465-28.9526
		c1.8521-9.8758,1.8521-11.0369-6.1758-19.1667c-8.0264-8.1324-18.5244-27.299-18.5244-27.299
		c-0.6179-11.0369-10.4965-18.0056-14.1993-24.9756c0-12.7817-4.3265-28.4627-7.4129-30.7859
		c-8.6443-5.8065-21.6122-17.4219-22.8479-20.9076c-1.2342-3.4857-6.1729-6.3915-12.35-6.9714
		c-6.1744-0.5798-19.7602-6.9714-19.7602-6.9714c-7.4086-6.9673-19.1422-12.1965-24.0809-16.2608
		c-4.94-4.0669-8.0279-7.5526-22.8479-5.8077c-14.8186,1.7409-53.7223,7.5473-61.7489,16.2621
		c-18.5258,2.9059-14.258,1.0369-19.8145,4.5214c-5.5592,3.4843-14.8186,6.3901-24.0822,11.614
		c-9.2637,5.2305-16.2301,8.5214-18.7016,12.0083c-8.0279,4.6454-16.0543,16.2635-22.8451,21.4901
		c-6.7936,5.2278-29.6416,25.5568-33.9637,36.5923c-4.3208,11.0369-11.1172,14.52-3.0865,30.7822
		C10.2093,210.658,15.7658,203.6866,17.6193,196.7166z"/>
	<linearGradient id="XMLID_72_" gradientUnits="userSpaceOnUse" x1="162.4591" y1="183.7882" x2="217.5603" y2="120.4015">
		<stop  offset="0" style="stop-color:#6F4A12"/>
		<stop  offset="0.7939" style="stop-color:#A06F12"/>
	</linearGradient>
	<path id="XMLID_1463_" fill="url(#XMLID_72_)" d="M173.1758,95.3987c5.6607-13.944,6.4685,4.5607,11.3184,22.3068
		c2.1576,6.5887,0,13.1801,13.4774,16.2224c13.4746,3.0421,31.5302,4.0589,16.4385,11.6631
		c-15.0916,7.6055-29.9173,9.631-20.7523,21.2927c9.1637,11.6618,16.1712,12.6745,34.4985,1.5225
		c18.326-11.1547,15.0917-13.1842,19.9416-18.7603c4.8515-5.5761-0.5376,9.1266-3.7717,14.7013
		c-3.2358,5.58-4.8528,12.1688-15.6336,15.7193c-6.4825,2.1341-10.8216,4.4521-14.4246,7.1753
		c-2.3856,1.8031-1.9577,3.0396-4.1039,5.2622c-1.4104,1.4603-3.8409,1.7581-10.2094,3.3613
		c-9.6887,2.4359-27.584-9.6044-35.9411-10.7258c-9.9729-10.1433-4.8513-43.6062-4.8513-43.6062S167.4702,109.4554,173.1758,95.3987
		z"/>
	<linearGradient id="XMLID_73_" gradientUnits="userSpaceOnUse" x1="194.9894" y1="249.1469" x2="293.6878" y2="224.5386">
		<stop  offset="0" style="stop-color:#6F4A12"/>
		<stop  offset="0.7939" style="stop-color:#A06F12"/>
	</linearGradient>
	<path id="XMLID_1462_" fill="url(#XMLID_73_)" d="M199.3186,236.3858c15.6307,4.5633,22.0978,5.0703,31.8005-3.5493
		c9.7027-8.6196,26.9506,5.7917,35.0375,5.2834c5.3891-7.6056,7.0061-15.2098-1.6172-16.2251
		c-8.6245-1.0128-11.9263-15.575-15.6335-3.5479c-0.9289,3.0171-2.2575,5.9375-4.9865,7.6042
		c-2.166,1.3239-1.7381,3.6246-3.2328,4.5633c-2.9922,1.8759-4.0435-0.5097-11.1862,2.1553
		c-11.2367,4.1912-26.7858,1.1504-39.886-6.9727c-3.7719-2.5338,8.6189-5.2278,22.1005-5.5747
		c14.685-0.3786,10.5106-4.5633,14.8215-6.5941c5.9844-2.8158,5.6606,2.1566,15.2282-4.5619
		c8.3869-5.8884,36.248-21.5482,38.9446-31.6876c3.2342-2.5351,1.078,12.1661-8.0856,19.7717
		c-9.1637,7.6068-11.3184,13.1828-5.3889,18.7601c5.9279,5.5788,14.5511,13.1828,9.1622,22.8165
		c-2.6573,4.7513-2.2617-9.2892-6.3882-6.1121c-8.9752,6.9118,30.5226,37.662,21.4812,43.1653
		c-4.5824,2.788-24.5255-33.717-33.8988-31.7339c-5.2033,1.1028-11.6492-1.9831-20.5413-0.462
		C225.191,245.5124,204.17,242.4689,199.3186,236.3858z"/>
	<linearGradient id="XMLID_74_" gradientUnits="userSpaceOnUse" x1="131.6727" y1="243.2378" x2="290.396" y2="158.8431">
		<stop  offset="0" style="stop-color:#7D5C12"/>
		<stop  offset="1" style="stop-color:#D5A034"/>
	</linearGradient>
	<path id="XMLID_1461_" fill="url(#XMLID_74_)" d="M296.8776,283.5372c17.2479-4.0549,32.3846-22.365,15.0932-23.3222
		c-9.1637-0.5056,5.9294-33.4615-14.015-31.4347c-9.9673,1.0167-17.2493,7.6056-21.5602,8.6196
		c-4.3094,1.0154,13.4745,11.3678,20.4821,0.7201c7.0062-10.6477-2.1575-23.321-5.3889-30.4194
		c-3.2329-7.0998-3.2329-13.1842-15.6307-4.5633c-12.398,8.6196-3.24-1.1359,1.6143-7.6068
		c6.4698-8.617,10.2417-30.9264,1.6185-17.7449c-8.6245,13.1828-7.545-3.0421-3.7719-9.631
		c3.7719-6.5926-4.8541-13.1842-10.2446-6.0856c-5.3862,7.0998-19.9416,21.801-26.4114,22.3094
		c-6.4658,0.5058-16.7074,14.1943-21.5573,18.2519c-4.8513,4.0549-19.9445-0.0014-22.6397-2.0295
		c-2.6939-2.0268,10.2403,2.5338,17.2465-3.0421c7.0075-5.5761,23.7191-15.7181,29.6472-18.2519
		c5.9294-2.5351,18.8664-13.1815,21.0211-24.8433c2.1576-11.6617-3.2342-17.7461-7.0075-20.7883
		c-3.7719-3.0409-3.7719,2.0294-10.778,9.6349c-7.0089,7.6054-17.7883,13.1815-17.7883,11.1534s16.1697-11.6617,17.7883-18.7589
		c1.6172-7.0984-2.6966-13.1815-5.9322-16.7308c-3.2329-3.5505-11.3184-7.6054-17.2479-5.5773
		c-5.9281,2.0268-21.5573-15.2096-26.9491-18.2519c-5.3905-3.0435-22.0978-5.0703-35.0362,1.5198
		c-12.9369,6.5901-17.2478,8.6182-16.7073,12.6758c0.5361,4.0563-2.1576,2.5326-5.3919,0
		c-3.2356-2.5351-17.7897,1.014-19.9429,3.5493c-2.1576,2.5338,2.5253-0.3692-13.6459,3.1815
		c-16.1697,3.5505-25.332,8.6209-30.7238,14.1956c-5.9308,5.5786,19.4054-13.6886,29.1067-16.7282
		c9.7012-3.0435,24.7944-7.6081,28.0272-11.1573c3.2357-3.5479,3.9445-1.1521,9.3348,4.4239
		c5.3905,5.5761,1.6157-0.0014,2.6939-5.0704c1.078-5.0703,16.7088-8.6182,24.2554-10.6477
		c7.5465-2.028,25.3361,1.0141,30.1862-0.5056c4.8513-1.5224,23.7162,19.2645,29.1068,18.7589
		c5.3874-0.507,13.8207,0.3111,22.6382,11.1547c7.006,8.6182,10.7794,0.507,16.7087,11.1533
		c2.7965,5.0201,6.4685,12.6746,3.2343,18.2533c-3.2358,5.5773,3.2342,5.0689,8.0855-0.507
		c4.8499-5.5788,11.3198-4.5646,5.3904,10.1393c-5.9279,14.7038,1.6172,13.6885,7.0076,8.1112
		c5.3875-5.5774-1.0782,7.0984-4.3123,17.2364c-3.2343,10.1433-3.6917,14.3148,7.0075,7.6068
		c3.2314-2.0268,11.3184,22.8179,12.9368,31.9431c4.1519,23.4361,15.0917,1.8138,18.8665,0.7998
		c4.3953-1.1822-11.3199,8.6208-1.6186,20.7883c6.8598,8.6051,12.3951,0.5058,17.7869,6.0844
		c5.3903,5.5774,1.0795,9.1279-7.5452,13.1815c-8.626,4.0549-1.6199,14.7053,9.1609,12.1688
		C351.8582,274.919,302.8071,287.5948,296.8776,283.5372z"/>
	<linearGradient id="XMLID_75_" gradientUnits="userSpaceOnUse" x1="58.8304" y1="289.5274" x2="300.4651" y2="138.5373">
		<stop  offset="0" style="stop-color:#7B6812"/>
		<stop  offset="0.8485" style="stop-color:#D5A034"/>
		<stop  offset="1" style="stop-color:#D5A834"/>
	</linearGradient>
	<path id="XMLID_1458_" fill="url(#XMLID_75_)" d="M340.0459,233.4228c1.8535-9.8746,1.8535-11.0369-6.1758-19.1667
		c-8.0264-8.1324-18.5229-27.299-18.5229-27.299c-0.6193-11.0355-10.4979-18.0069-14.2022-24.977
		c0-12.7776-4.325-28.4613-7.41-30.7846c-8.6444-5.8077-21.6137-17.4246-22.8493-20.9089c-1.233-3.483-6.1729-6.3889-12.3487-6.9687
		c-6.1757-0.5839-19.76-6.9714-19.76-6.9714c-7.4115-6.9713-19.1436-12.1965-24.0809-16.2633
		c-4.9399-4.0656-8.0293-7.5513-22.8479-5.8091c-14.82,1.7435-53.7224,7.5512-61.7503,16.2635
		c-18.5258,2.9071-14.2565,1.0369-19.813,4.5212c-5.5592,3.4843-14.8215,6.3889-24.0823,11.6167
		c-9.2635,5.2279-16.2301,8.52-18.7014,12.0069c-8.0278,4.6468-16.0559,16.2621-22.8466,21.4901
		c-6.7949,5.2264-29.6401,25.5568-33.9623,36.5897c-4.3221,11.0369-11.1172,14.5226-3.0879,30.7859
		c2.4686,2.9045,8.0266-4.0655,9.8801-11.0356c3.7043-8.7135,14.8201-12.779,17.2887-19.1667
		c14.2022-5.2292,17.2914-8.7135,19.1422-11.6167c6.1744-2.3246,15.4379-10.4557,17.2901-13.9401
		c8.6457-0.5811,22.4072-8.5199,24.258-14.329c12.3487,0,43.8968,7.0942,50.6888-5.1024
		c-6.1729,14.5212,2.4701,20.3303,10.4979,27.3004c-4.3221,6.9687-6.1743,11.0342,0,23.8145
		c-7.4086,5.2252-3.085,12.1966,0.6165,19.1667c3.7056,6.9687,0,7.5499-1.2329,11.0355
		c-1.2357,3.4857-11.7321,8.1298-6.1771,26.1381c5.5592,18.0042,5.5592,15.5911,25.9357,31.8544
		c20.3766,16.2635,63.6025,25.5583,101.2705,24.3958c37.6653-1.1623,73.481-17.4231,85.8325-33.6891
		C369.0681,227.524,365.9816,249.6863,340.0459,233.4228z M353.4739,260.4705c-12.1262,21.2941-47.9265,25.8468-81.1219,26.8713
		c-33.1938,1.022-72.5957-7.7232-90.553-22.0566c-17.9571-14.3306-20.9761-8.7626-25.8739-24.6302
		c-3.5466-11.4963,2.0309-20.0192,5.7873-25.0114c1.1273-1.4973,7.9646,4.6983,18.3597,8.1138
		c2.7641,0.9108,12.5063,8.5336,13.3155,7.7711c0.8094-0.7586-10.6344-9.2286-13.1438-10.976
		c-11.21-7.7922-14.3739-15.9471-17.0424-20.9645c-3.2637-6.1439-4.5811-10.0836,1.9479-14.6893
		c-8.415-11.168-2.5235-21.7548,1.2864-27.8987c-12.9356-5.3245-21.6081-19.6525-16.1656-32.4501
		c-5.9859,10.7483-50.3048,9.5214-57.5796,4.1982c-1.6326,5.118-18.7241,14.7818-26.3411,15.2942
		c-1.6326,3.0713-7.4943,10.1208-12.9354,12.1674c-6.4699,5.3246-27.2588,20.3728-23.4489,10.6477
		c3.8083-9.7263,26.3552-28.8572,32.3437-33.4627c5.9858-4.6071,19.7923-17.5314,27.9568-22.1396
		c8.1615-4.6057,29.8667-11.3799,34.7659-14.4498c4.8978-3.0714-7.2613,4.1962,9.0632,1.6346
		c7.078-7.6756,44.3462-15.1951,57.407-16.7308c13.0595-1.5356,19.9008,5.5429,24.254,9.1252
		c4.3518,3.5824,16.1079,6.7861,22.6382,12.9274c0,0,9.9223,5.5747,15.3619,6.0856c5.4411,0.5123,13.4677,6.0539,14.5542,9.1266
		c1.0907,3.0701,11.787,10.8516,19.4039,15.9696c2.1956,1.6534,10.0673,16.1257,6.2012,25.6045
		c-4.8513,9.1266-11.0525,9.6324-11.5915,24.5917c-0.2687,2.7867-0.4265,7.5367,2.1576-3.0435
		c0.8754-3.5797,4.4925-7.714,5.3003-8.2343c6.978-4.4866,7.9363-5.4092,9.3157-3.8735
		c4.3686,4.8597,10.0532,10.4239,10.4472,17.4323c0,0,6.6711,14.8893,13.7448,22.054c7.0737,7.1659,21.0225-5.0291-4.0435,17.786
		c2.2829,1.177,8.7387,17.8281,10.5106,16.4367c9.7041-7.6042,15.4225-14.6685,18.4484-12.3068
		C363.5188,243.3447,361.0304,246.2538,353.4739,260.4705z"/>
	<g id="XMLID_1376_">
		<linearGradient id="XMLID_76_" gradientUnits="userSpaceOnUse" x1="135.3885" y1="272.9702" x2="378.5811" y2="298.5308">
			<stop  offset="0" style="stop-color:#A3A652"/>
			<stop  offset="0.0119" style="stop-color:#99994A"/>
			<stop  offset="0.0415" style="stop-color:#857E38"/>
			<stop  offset="0.0754" style="stop-color:#74682A"/>
			<stop  offset="0.1151" style="stop-color:#68571F"/>
			<stop  offset="0.1642" style="stop-color:#5F4C18"/>
			<stop  offset="0.2331" style="stop-color:#594513"/>
			<stop  offset="0.4242" style="stop-color:#584312"/>
			<stop  offset="0.5252" style="stop-color:#5C4815"/>
			<stop  offset="0.6476" style="stop-color:#67571F"/>
			<stop  offset="0.7811" style="stop-color:#7A6F2F"/>
			<stop  offset="0.9216" style="stop-color:#939145"/>
			<stop  offset="0.9939" style="stop-color:#A3A652"/>
		</linearGradient>
		<path id="XMLID_1457_" fill="url(#XMLID_76_)" d="M136.7914,263.7643c-7.5114,13.1854,48.8964,47.2097,81.9396,55.6478
			c35.0165,8.9399,59.8221,16.8539,104.0206,3.164c39.7679-12.3158,56.0572-22.3082,56.5976-31.4334
			c-2.5375-4.7751-4.8541-10.1421-9.1664-11.156c0.539-9.1254-2.9937-15.8929-5.9266-23.3196
			c1.5623,16.7771-64.8565,33.2498-132.0238,24.6514c-42.0803-5.3868-74.0131-28.5818-78.7307-49.1147
			c-3.3469,9.8905-4.3123,15.3354-7.0089,24.462C144.4745,259.7716,139.5316,258.9521,136.7914,263.7643z"/>
		<linearGradient id="XMLID_77_" gradientUnits="userSpaceOnUse" x1="139.0781" y1="290.9825" x2="375.7613" y2="261.9214">
			<stop  offset="0" style="stop-color:#B0B355"/>
			<stop  offset="0.0261" style="stop-color:#9F9D44"/>
			<stop  offset="0.0611" style="stop-color:#8E8734"/>
			<stop  offset="0.1024" style="stop-color:#807627"/>
			<stop  offset="0.1535" style="stop-color:#776B1E"/>
			<stop  offset="0.2252" style="stop-color:#716418"/>
			<stop  offset="0.4242" style="stop-color:#706217"/>
			<stop  offset="0.6389" style="stop-color:#8F8530"/>
			<stop  offset="1" style="stop-color:#CAC960"/>
		</linearGradient>
		<path id="XMLID_1454_" fill="url(#XMLID_77_)" d="M364.2577,256.4115c-6.4714,17.4921-59.2944,32.1959-132.0253,24.9069
			c-42.2281-4.2324-72.5311-28.0762-78.7307-49.1147c-3.4116,10.0824-5.9295,17.3622-7.5466,23.9536
			c-3.2327,2.0282-6.5262,2.976-9.1637,7.6069c-7.5114,13.1854,48.8964,47.2097,81.9396,55.6478
			c35.0165,8.9399,59.8221,16.8539,104.0206,3.164c39.7679-12.3158,56.0572-22.3082,56.5976-31.4334
			c-2.1589-5.5774-3.7746-10.1421-8.087-12.6758C372.733,272.1522,367.2216,260.215,364.2577,256.4115z M313.5851,321.5606
			c-40.7249,10.4134-62.0303,2.5339-93.7858-5.5747c-29.9723-7.6545-84.9683-40.7691-78.1578-52.7288
			c3.3242-5.8381,9.1637,6.5888,17.2492,9.6323c2.3377-0.462-16.1712-14.7039-4.3124-27.8855
			c10.778,16.2224,30.1835,33.9672,80.8517,41.5741c60.7116,9.1133,128.8262-11.1521,128.2858-23.8293
			c14.0121,16.2251-12.4796,25.1664-10.7808,29.4052c0.8909,2.2242,19.4041-7.6054,19.9445-4.0562
			C376.1136,298.2384,351.9737,311.7483,313.5851,321.5606z"/>
		<path id="XMLID_1453_" fill="#4A3812" d="M190.4237,272.638c5.6606-0.7613,21.2913,4.8161,28.2961,6.0831
			c7.009,1.2668,32.0721,1.2695,29.6472,13.6885c-7.814-1.2668-61.1775-16.225-61.1775-16.225
			C187.7271,274.4106,188.8066,272.638,190.4237,272.638z"/>
		
			<linearGradient id="XMLID_78_" gradientUnits="userSpaceOnUse" x1="233.5339" y1="371.2054" x2="273.967" y2="325.5477" gradientTransform="matrix(0.9955 0.0946 -0.0946 0.9955 51.8803 -57.4854)">
			<stop  offset="0.4242" style="stop-color:#706217"/>
			<stop  offset="0.6944" style="stop-color:#716418"/>
			<stop  offset="0.7917" style="stop-color:#776B1D"/>
			<stop  offset="0.861" style="stop-color:#807626"/>
			<stop  offset="0.9171" style="stop-color:#8E8733"/>
			<stop  offset="0.9646" style="stop-color:#9F9D43"/>
			<stop  offset="1" style="stop-color:#B0B353"/>
		</linearGradient>
		<path id="XMLID_1452_" fill="url(#XMLID_78_)" d="M256.2062,288.2435c10.1855,2.0585,28.9251,3.0607,31.9413,3.6949
			c6.4065,1.3384,20.9832,13.5045,20.5314,22.0472c-0.4504,8.5442-18.143,20.3503-29.543,18.9231
			c-15.946-1.9923-28.4354-4.1158-37.4006-6.8098C244.9442,320.7981,255.0465,292.2428,256.2062,288.2435z"/>
		
			<linearGradient id="XMLID_79_" gradientUnits="userSpaceOnUse" x1="221.3566" y1="350.5382" x2="287.4753" y2="342.4199" gradientTransform="matrix(0.9955 0.0946 -0.0946 0.9955 51.8803 -57.4854)">
			<stop  offset="0" style="stop-color:#534212"/>
			<stop  offset="1" style="stop-color:#746A1C"/>
		</linearGradient>
		<path id="XMLID_1451_" fill="url(#XMLID_79_)" d="M255.6095,290.4278c10.1797,2.0586,26.6381,2.8502,29.6555,3.4818
			c6.408,1.337,20.9818,13.5045,20.5272,22.0499c-0.4491,8.5428-17.5392,18.1658-28.9407,16.74
			c-15.9446-1.9937-28.4367-4.1172-37.402-6.8084C242.6628,320.5863,254.4484,294.4258,255.6095,290.4278z"/>
		<path id="XMLID_1450_" fill="#513812" d="M251.9151,290.0055c2.4953,0.3747,3.9055,0.5507,7.714,1.3781
			c4.7332,8.3455,1.2146,29.8222-6.0968,32.1165c-1.506,2.2982-2.3659,4.5924-2.8951,4.9658
			c-5.0907-0.7453-9.6-1.5887-13.5295-2.5576C240.377,319.8105,250.8552,294.533,251.9151,290.0055z"/>
		
			<linearGradient id="XMLID_80_" gradientUnits="userSpaceOnUse" x1="247.2829" y1="339.3485" x2="270.3197" y2="312.8881" gradientTransform="matrix(0.9987 0.0516 -0.0516 0.9987 36.8427 -31.3608)">
			<stop  offset="0" style="stop-color:#706217"/>
			<stop  offset="0.2277" style="stop-color:#7A6F21"/>
			<stop  offset="0.6482" style="stop-color:#96913A"/>
			<stop  offset="1" style="stop-color:#B0B353"/>
		</linearGradient>
		<path id="XMLID_1449_" fill="url(#XMLID_80_)" d="M255.6095,290.4278c10.1797,2.0586,26.6381,2.8502,29.6555,3.4818
			c6.408,1.337,20.9283,13.5059,20.5272,22.0499c-0.4672,10.0347-15.2394,18.1883-26.6367,16.7678
			c6.3165,0.9519,23.6135-5.8806,25.3066-16.2714c1.2766-7.8451-14.7188-19.8298-19.2013-21.1788
			C273.5498,294.4443,263.9921,292.5685,255.6095,290.4278z"/>
		
			<linearGradient id="XMLID_81_" gradientUnits="userSpaceOnUse" x1="222.2211" y1="284.6463" x2="218.2254" y2="341.7874" gradientTransform="matrix(0.9991 0.0431 -0.0431 0.9991 14.3498 -26.3107)">
			<stop  offset="0" style="stop-color:#FCEC42"/>
			<stop  offset="0.1501" style="stop-color:#F1D133"/>
			<stop  offset="0.3891" style="stop-color:#E2AB1E"/>
			<stop  offset="0.5819" style="stop-color:#D99412"/>
			<stop  offset="0.703" style="stop-color:#D68C0D"/>
		</linearGradient>
		<path id="XMLID_1448_" fill="url(#XMLID_81_)" d="M256.9563,289.5872c1.2906-5.8394-0.4799-10.9786-6.6992-12.1926
			c0,0-17.5152-2.4518-26.7479-4.6772c-9.234-2.232-26.5888-8.0967-26.5888-8.0967c-3.6115-0.707-7.5677-0.0067-10.5246,1.8242
			c1.762-0.7678,3.9435-0.9306,6.5782-0.4197c0,0,17.3492,5.8674,26.5861,8.0981c9.2369,2.2266,26.7479,4.6797,26.7479,4.6797
			c6.2193,1.21,8.7273,4.8135,7.4325,10.6543c0,0,2.8177,6.3001,0.38,16.1165c-2.4391,9.8096-7.6311,13.1722-7.6311,13.1722
			c-0.9669,4.4283-4.8696,7.7127-8.6865,8.1085c5.6747,0.8156,10.6808-2.4226,11.9039-7.9775c0,0,5.189-3.3652,7.6281-13.1722
			C259.7726,295.8874,256.9563,289.5872,256.9563,289.5872z"/>
		<path id="XMLID_1445_" fill="#FCBF29" d="M253.7405,289.4574c1.2948-5.8408-1.2132-9.4443-7.4325-10.6543
			c0,0-17.5111-2.4531-26.7479-4.6797c-9.2369-2.2307-26.7015-8.6553-26.7015-8.6553c-6.2179-1.2179-9.9165,1.7051-11.2044,7.5433
			c0,0-4.4389,1.8123-7.6239,12.5473c-3.2947,11.115-0.4504,16.4554-0.4504,16.4554c-1.2878,5.8422,1.6382,8.6671,7.4354,10.6477
			c0,0,11.3113,5.715,25.3503,9.2577c13.127,3.3096,27.4122,4.8969,27.4122,4.8969c6.933,0.9121,11.4282-2.2187,12.7117-8.0701
			c0,0,5.192-3.3626,7.6311-13.1722C256.5581,295.7575,253.7405,289.4574,253.7405,289.4574z M240.0463,313.4614
			c-0.9472,4.3185-3.9492,6.0314-8.8962,5.0638c0,0-6.9892-0.4052-21.0113-3.8379c-13.7167-3.3507-22.1639-7.0984-22.1639-7.0984
			c-4.864-1.9633-6.9625-3.6591-6.0111-7.9695l6.3657-21.2702c0.9486-4.3171,3.9477-6.0328,8.8808-5.0651
			c0,0,12.6681,4.6349,21.6066,6.5888c7.7787,1.6971,20.7621,4.0483,20.7621,4.0483c4.9316,0.9625,6.9667,3.6512,6.0152,7.9762
			L240.0463,313.4614z"/>
		
			<linearGradient id="XMLID_82_" gradientUnits="userSpaceOnUse" x1="173.4676" y1="302.8409" x2="222.2323" y2="317.7497" gradientTransform="matrix(0.9991 0.0431 -0.0431 0.9991 14.3498 -26.3107)">
			<stop  offset="0" style="stop-color:#FCC530"/>
			<stop  offset="0.8061" style="stop-color:#FCEC42"/>
		</linearGradient>
		<path id="XMLID_1444_" fill="url(#XMLID_82_)" d="M189.2823,308.1342c-0.8458-0.3428-1.3074-0.5454-1.3074-0.5454
			c-4.864-1.9633-6.9625-3.6591-6.0111-7.9695l6.3657-21.2702c0.9486-4.3171,3.9477-6.0328,8.8808-5.0651
			c0,0,11.3677,4.1516,20.1626,6.2539c4.3489-1.5793,9.0145-2.6371,13.9025-3.0991c-0.0014,0-0.0112,0-0.0141,0
			c-4.1757-0.7216-8.4487-1.5331-11.7012-2.3154c-9.2369-2.2307-26.7015-8.6553-26.7015-8.6553
			c-6.2179-1.2179-9.9165,1.7051-11.2044,7.5433c0,0-4.4389,1.8123-7.6239,12.5473c-3.2947,11.115-0.4504,16.4554-0.4504,16.4554
			c-1.2878,5.8422,1.6382,8.6671,7.4354,10.6477c0,0,2.7275,1.3741,7.1525,3.1944c0.0083-0.2051-0.0183-0.4025-0.0085-0.605
			C188.2704,312.8074,188.687,310.4431,189.2823,308.1342z"/>
		
			<linearGradient id="XMLID_83_" gradientUnits="userSpaceOnUse" x1="252.4787" y1="326.1501" x2="195.3511" y2="307.5882" gradientTransform="matrix(0.9991 0.0431 -0.0431 0.9991 14.3498 -26.3107)">
			<stop  offset="0" style="stop-color:#FCE74F"/>
			<stop  offset="0.0503" style="stop-color:#FCE44D"/>
			<stop  offset="0.5734" style="stop-color:#FCCD38"/>
			<stop  offset="0.903" style="stop-color:#FCC530"/>
		</linearGradient>
		<path id="XMLID_1443_" fill="url(#XMLID_83_)" d="M233.7776,326.8163c6.933,0.9121,11.4282-2.2187,12.7117-8.0701
			c0,0,5.192-3.3626,7.6311-13.1722c2.4376-9.8164-0.38-16.1165-0.38-16.1165c1.2948-5.8408-1.2132-9.4443-7.4325-10.6543
			c0,0-7.3497-1.03-15.0326-2.3643c-4.8879,0.462-9.5535,1.5198-13.9025,3.0991c0.4856,0.1178,0.9725,0.2303,1.4441,0.335
			c7.7787,1.6971,20.7621,4.0483,20.7621,4.0483c4.9316,0.9625,6.9667,3.6512,6.0152,7.9762l-5.548,21.5641
			c-0.9472,4.3185-3.9492,6.0314-8.8962,5.0638c0,0-6.9892-0.4052-21.0113-3.8379c-10.5824-2.5841-18.0078-5.4-20.8565-6.553
			c-0.5954,2.3089-1.0119,4.6732-1.1231,7.117c-0.0098,0.2025,0.0169,0.3999,0.0085,0.605
			c4.6022,1.8918,11.0382,4.2549,18.1978,6.0633C219.4924,325.2291,233.7776,326.8163,233.7776,326.8163z"/>
		
			<linearGradient id="XMLID_84_" gradientUnits="userSpaceOnUse" x1="220.2517" y1="289.5088" x2="210.7201" y2="338.5443" gradientTransform="matrix(0.9991 0.0431 -0.0431 0.9991 14.3498 -26.3107)">
			<stop  offset="0" style="stop-color:#FCF24E"/>
			<stop  offset="0.198" style="stop-color:#FBED4B"/>
			<stop  offset="0.4249" style="stop-color:#FADF43"/>
			<stop  offset="0.6661" style="stop-color:#F7C836"/>
			<stop  offset="0.9157" style="stop-color:#F3A924"/>
			<stop  offset="1" style="stop-color:#F29C1D"/>
		</linearGradient>
		<path id="XMLID_1441_" fill="url(#XMLID_84_)" d="M253.7405,289.4574c1.2948-5.8408-1.2132-9.4443-7.4325-10.6543
			c0,0-15.338-1.8229-26.7479-4.6797c-9.2101-2.3075-26.7015-8.6553-26.7015-8.6553c-6.2179-1.2179-9.9165,1.7051-11.2044,7.5433
			c0,0,2.753-9.7329,11.4507-7.031c10.0519,3.119,16.3457,6.3413,25.7571,8.744c6.2447,1.5953,14.084,3.0965,26.7479,4.746
			c5.4538,0.7095,9.3466,5.49,7.4564,10.146c1.6917,1.0776,4.0731,19.344-6.968,28.9948
			c-2.6179,10.2373-12.0475,8.0914-12.0475,8.0914c6.2235,1.2167,11.1551-2.1049,12.4386-7.9563c0,0,5.192-3.3626,7.6311-13.1722
			C256.5581,295.7575,253.7405,289.4574,253.7405,289.4574z"/>
		<path id="XMLID_1440_" fill="#FCE64A" d="M173.6938,297.1212c-0.4955-3.8035,1.0836-17.7488,8.9863-23.2322
			c0.2646-2.8926,2.8557-9.7249,11.3198-6.9846c2.9007,1.124,2.1745,2.359,0.5658,2.2943c-2.6896-0.1086-8.1573,1.619-9.576,6.2326
			c-1.2456,0.8327-8.5021,8.4567-8.8456,21.6912C176.016,299.8946,174.3201,301.0583,173.6938,297.1212z"/>
		<path id="XMLID_1439_" fill="#FCEB56" d="M226.1692,320.3388c3.7846,0.4461,12.8638,3.336,15.1015-8.8698
			c1.1119-6.4405,2.328-4.6971,1.603,0.0992c-0.7233,4.7924,0.29,14.4498-15.6293,10.9271
			C211.3308,318.9672,224.7153,320.25,226.1692,320.3388z"/>
		<path id="XMLID_1438_" fill="#FCF5A1" d="M182.7266,273.5434c1.399-5.482,5.8154-9.149,12.8651-5.7864
			C189.4569,265.9711,184.5576,269.3071,182.7266,273.5434z"/>
		<path id="XMLID_1394_" fill="#FCF5A1" d="M229.9073,322.4503c5.2356,0.4064,9.4451,0.4315,11.2635-6.4419
			C239.9393,323.2737,237.3413,323.6179,229.9073,322.4503z"/>
		<path id="XMLID_1392_" fill="#D69108" d="M239.7592,315.3412c-0.9486,4.3185-4.2926,6.9277-8.7455,7.3872
			c-4.38,0.4526-8.3474,1.5118-22.226-2.4161c-11.7224-3.3135-19.1366-8.3494-22.0458-10.7364
			c-2.4137-1.9804-5.3468-5.1458-4.3982-9.4549l5.6973-19.8895c0.95-4.3183,1.9338-4.795,6.8625-3.8311
			c0,0,8.8175,6.0737,17.7545,8.0251c0.2802,0.0609,0.8079-2.7893,1.7522-5.5788c1.347,0.253,5.9661,1.3848,6.3884,1.4536
			c-0.5405,2.2837-0.9979,4.378-1.4033,5.2649c8.208,1.382,19.6602,2.2837,19.6602,2.2837
			c4.9301,0.9623,7.2018,1.6057,6.2532,5.9295L239.7592,315.3412z"/>
		<path id="XMLID_1391_" fill="#4E3012" d="M184.6983,297.5395c2.4391-1.8838,7.5438,2.412,10.3741-4.8122
			c1.5354-3.9213-6.4009-7.305-5.8704-9.8018c0.5292-2.5007,1.0064-6.5411,3.0401-7.8795c0.539-0.3548,1.6298-0.0887,2.2491-0.6565
			c-1.9535-0.3496-3.216-0.4066-4.0943,0.0079c-0.2885,0.2119-0.5657,0.4355-0.8359,0.6686
			c-0.5392,0.6712-0.8882,1.7223-1.2315,3.2832l-6.3657,21.2702c-0.114,0.5097-0.1647,0.9836-0.1787,1.4351
			C182.5507,299.6431,183.4965,298.4662,184.6983,297.5395z"/>
		
			<linearGradient id="XMLID_85_" gradientUnits="userSpaceOnUse" x1="183.5382" y1="309.4483" x2="242.292" y2="323.0127" gradientTransform="matrix(0.9991 0.0431 -0.0431 0.9991 14.35 -26.3108)">
			<stop  offset="0" style="stop-color:#584312"/>
			<stop  offset="0.4667" style="stop-color:#8A8534"/>
			<stop  offset="1" style="stop-color:#584312"/>
		</linearGradient>
		<path id="XMLID_1390_" fill="url(#XMLID_85_)" d="M241.8985,297.227c2.0788-1.9552,3.1906-4.6772,3.7141-8.2594
			c-0.6178-1.7873-2.7697-2.3154-6.2699-2.9986c0,0-15.6309-1.2112-23.411-2.9071c-8.9371-1.9553-20.7382-8.5427-20.7382-8.5427
			c-0.245-0.0477-0.4743-0.09-0.7023-0.1297c-0.6193,0.5679-2.114,0.4898-2.6531,0.8459c-2.0351,1.3384-2.1069,5.1894-2.6361,7.6902
			c-0.5305,2.4968,5.3988,5.3391,3.9056,9.2762c-1.4932,3.9385-5.9703,3.454-8.4094,5.3377
			c-1.2018,0.9267-2.1476,2.1036-2.9132,3.5148c-0.1141,3.3718,2.2939,5.2397,4.422,6.9846
			c2.9105,2.3896,8.1926,6.0566,21.9078,9.4099c14.0263,3.4315,18.2456,2.8848,22.6284,2.4332
			c2.7528-0.2845,5.2918-1.0259,7.0567-2.5696c0.6742-1.5779,1.8354-3.1811,2.0056-4.8042
			C240.0758,309.9731,239.6677,299.324,241.8985,297.227z"/>
		<path id="XMLID_1389_" fill="#513812" d="M240.0463,313.4614l5.548-21.5641c0.2773-1.255,0.2731-2.1949,0.0183-2.9296
			c-0.3616,2.4663-0.9992,4.5249-2.0407,6.2061c-0.4714,0.7612-1.0246,1.4443-1.6734,2.0532
			c-0.8092,0.7599-9.3172,4.6269-2.9641,14.9568c0.867,1.4113-0.4602,3.5507-1.1344,5.1286
			C238.888,316.3632,239.6847,315.1083,240.0463,313.4614z"/>
		<path id="XMLID_1387_" fill="#4E3012" d="M189.675,296.4089c-2.5841-0.6062-4.1012-3.2408-3.3962-5.8845
			c0.6967-2.6424,3.3609-4.284,5.9491-3.679c2.5799,0.6144,4.1041,3.2409,3.4004,5.8819
			C194.9316,295.3658,192.2646,297.0166,189.675,296.4089z"/>
		
			<linearGradient id="XMLID_86_" gradientUnits="userSpaceOnUse" x1="194.253" y1="309.5648" x2="184.8393" y2="308.8195" gradientTransform="matrix(0.9991 0.0431 -0.0431 0.9991 14.3498 -26.3107)">
			<stop  offset="0.103" style="stop-color:#FCEC42"/>
			<stop  offset="0.2124" style="stop-color:#EFD232"/>
			<stop  offset="0.393" style="stop-color:#DCAD1B"/>
			<stop  offset="0.5388" style="stop-color:#D0950C"/>
			<stop  offset="0.6303" style="stop-color:#CC8D07"/>
		</linearGradient>
		<path id="XMLID_1384_" fill="url(#XMLID_86_)" d="M186.5547,287.9854c-1.5157,2.1949-1.0231,5.2239,1.0936,6.7595
			c2.1266,1.5423,5.0737,1.0127,6.5937-1.1848c1.5172-2.195,1.0289-5.2199-1.0992-6.7649
			C191.0275,285.2608,188.0748,285.789,186.5547,287.9854z M187.7581,288.8591c1.047-1.5053,3.0709-1.8733,4.5248-0.8208
			c1.4609,1.0644,1.5974,2.9468,0.556,4.4468c-1.0472,1.5092-2.8711,2.0757-4.3279,1.0154
			C187.0558,292.4479,186.7194,290.3616,187.7581,288.8591z"/>
		<path id="XMLID_1382_" fill="#FCF5A1" d="M194.2139,291.8403c0.8796-2.0904,0.0732-4.2455-2.2364-4.9949
			C194.1617,288.2646,194.5037,290.5667,194.2139,291.8403z"/>
		<path id="XMLID_1381_" fill="#F2AB1D" d="M185.7567,287.199c-5.1033-2.1778-9.9236-3.8974-10.6512-1.672
			c-0.653,1.9751,2.9541,4.8439,8.7682,7.4109C185.1882,290.772,185.3556,288.5452,185.7567,287.199z"/>
		<linearGradient id="XMLID_87_" gradientUnits="userSpaceOnUse" x1="176.0431" y1="288.2452" x2="193.5892" y2="288.2452">
			<stop  offset="0" style="stop-color:#FCC530"/>
			<stop  offset="0.8061" style="stop-color:#FCEC42"/>
		</linearGradient>
		<path id="XMLID_1380_" fill="url(#XMLID_87_)" d="M183.0164,290.6661c2.6348,1.1437,6.8444,2.7708,6.8444,2.7708
			c1.2977,0.6156,2.8585,0.0106,3.4805-1.341l0,0c0.6108-1.3597,0.0549-2.9562-1.2469-3.5638c0,0-4.6811-1.7992-7.0399-2.9112
			c-4.1265-1.946-7.4171-4.2085-8.7639-1.6971C175.1223,286.0975,178.2117,288.573,183.0164,290.6661z"/>
		<path id="XMLID_1379_" fill="#FCF5A1" d="M187.091,289.4336c1.109,0.4554,2.8641,1.1054,2.8641,1.1054
			c0.5546,0.2424,1.1414,0.0411,1.3201-0.4526l0,0c0.1745-0.4886-0.1294-1.0869-0.6811-1.3278c0,0-1.9564-0.7228-2.957-1.1597
			c-1.7395-0.7705-3.1653-1.6482-3.5776-0.7387C183.6977,287.6517,185.0657,288.601,187.091,289.4336z"/>
		<path id="XMLID_1378_" fill="#A7A34A" d="M193.1287,274.1895c11.6703,5.8951,20.7876,11.9517,50.0252,12.1251
			c-7.9956,1.214-15.9376,1.2589-23.4785-0.0291c-7.4044-1.8824-9.5564,17.316-12.222,27.3878
			c-0.5067,1.9168,1.3018,3.4274,5.0766,4.7764c-3.3835-0.4925-10.1545-2.3287-13.279-3.9199
			c1.6931,0.1217,4.8767,0.3694,5.859-2.4491c3.4228-9.8124,9.1144-27.1892,4.9612-28.2535
			C203.9363,281.6904,198.2138,278.5106,193.1287,274.1895z"/>
		<linearGradient id="XMLID_88_" gradientUnits="userSpaceOnUse" x1="213.8726" y1="280.3187" x2="216.9958" y2="281.423">
			<stop  offset="0" style="stop-color:#FCC530"/>
			<stop  offset="0.8061" style="stop-color:#FCEC42"/>
		</linearGradient>
		<path id="XMLID_1377_" fill="url(#XMLID_88_)" d="M213.3449,282.2901l1.0753-3.5201l3.2539,0.7347
			c-1.3665,0.552-3.2878,2.236-3.3848,3.0621C214.0936,282.4755,213.3449,282.2901,213.3449,282.2901z"/>
	</g>
	<path id="XMLID_1375_" fill="#9E7112" d="M211.6376,190.713c0.1126,0.1362-0.2195,1.2576-1.1527,1.9499l0,0
		c-1.5171,1.5689-3.4116,1.582-3.5213,1.447l-29.7655-35.6617c-0.1125-0.135,1.7157-1.7317,2.6517-2.424l0,0
		c0.9344-0.6924,1.7859-1.1451,1.8999-1.0114L211.6376,190.713z"/>
	<path id="XMLID_1374_" fill="#BF8924" d="M211.6672,190.7487c0.0957,0.1166-0.0971,1.0314-1.0302,1.725l-0.0507,0.0464
		c-0.9373,0.691-2.0661,0.9465-2.1618,0.8287l-20.8382-25.4258c-0.0914-1.0868,1.3709-3.2077,3.1302-2.6291L211.6672,190.7487z"/>
	<path id="XMLID_1373_" fill="#EDBD49" d="M211.1873,190.897c0.0957,0.1125-0.0154,0.3389-0.2407,0.5084l0,0
		c-0.2307,0.1708-0.3869,0.3336-0.4799,0.2225l-20.6144-24.7507c-0.4574-0.7915,0.5587-0.9015,0.653-0.7903L211.1873,190.897z"/>
	<path id="XMLID_1372_" fill="#9E7112" d="M241.7747,227.5914c0.045,0.0542,0.0562,2.1644-1.292,2.9879
		c-1.5581,0.9492-3.3173,0.4884-3.361,0.4289l-12.8089-15.3249c-0.045-0.0544,0.3463-0.9531,1.2822-1.6456l0.2026-0.127
		c1.9521-1.2709,3.5692-1.1425,3.6142-1.0856L241.7747,227.5914z"/>
	<path id="XMLID_1371_" fill="#BF8924" d="M241.7591,227.5675c0.0535,0.0701,0.2082,1.6786-0.8036,2.4398
		c-0.7909,0.5944-2.4278,0.1814-2.4827,0.1098l-12.744-15.5736c0.1533-0.7891,2.7557-1.6086,3.9745-1.4563L241.7591,227.5675z"/>
	<path id="XMLID_1370_" fill="#EDBD49" d="M241.3229,227.7714c0.0549,0.0634,0.0618,0.4832-0.1647,0.6526v0.0609
		c-0.2322,0.1722-0.5432,0.0291-0.601-0.0344l-11.9827-14.4457c-0.2168-0.5004,0.6628-0.7745,0.715-0.7095L241.3229,227.7714z"/>
	<path id="XMLID_1369_" fill="#9E7112" d="M293.1931,267.1228c0.1492,0.1814-0.4855,0.8843-1.4214,1.5767l0,0
		c-0.9361,0.6898-3.1133,1.9884-3.261,1.807l-38.9305-46.8602c-0.2028-0.5056,0.6797,19.2235,1.617,18.531l0.0676-0.0648
		c0.9332-0.6924,2.6163-0.9426,2.7684-0.7666L293.1931,267.1228z"/>
	<path id="XMLID_1368_" fill="#BF8924" d="M287.5555,279.6963c0.0674,0.2662-1.3619,0.7989-3.2048,1.1824l0,0
		c-1.8409,0.3808-3.2357,0.7489-3.3098,0.4796l-32.6209-37.91c0.5285-1.8618,6.277-2.0677,6.3537-1.7961L287.5555,279.6963z"/>
	<path id="XMLID_1367_" fill="#EDBD49" d="M286.7314,279.5536c0.0737,0.2614-0.2335,0.5491-0.6821,0.6451l0,0
		c-0.4553,0.0928-0.783,0.2325-0.8626-0.0271l-32.692-36.6151c-0.2084-1.6744,1.3986-1.0286,1.4683-0.7681L286.7314,279.5536z"/>
	<g id="XMLID_1362_">
		<linearGradient id="XMLID_89_" gradientUnits="userSpaceOnUse" x1="118.7357" y1="140.7345" x2="219.871" y2="140.7345">
			<stop  offset="0" style="stop-color:#FFEE2D"/>
			<stop  offset="0.1501" style="stop-color:#F4D320"/>
			<stop  offset="0.3891" style="stop-color:#E5AD0F"/>
			<stop  offset="0.5819" style="stop-color:#DC9604"/>
			<stop  offset="0.703" style="stop-color:#D98E00"/>
		</linearGradient>
		<path id="XMLID_1366_" fill="url(#XMLID_89_)" d="M179.9131,186.5323c-0.8078,4.5619-2.4249,4.4361-2.4249,4.4361
			l-16.1712-34.2227c0,0-37.1922,12.8639-39.6186,13.4344c-2.4249,0.5718-2.9627,0.2542-2.9627,0.2542l26.4101-31.4347
			l-23.715-24.0834c0,0,0.5799-0.3111,3.0528-0.0927c2.4713,0.2197,31.982,9.7263,31.982,9.7263l19.1351-33.9685
			c0,0,1.4849-0.8248,1.6862,2.788c0.197,3.6129,2.6261,32.7017,2.6261,32.7017l39.9579,5.8434l-37.8003,15.1978
			C182.0708,147.1122,180.5114,183.1511,179.9131,186.5323z"/>
		<linearGradient id="XMLID_90_" gradientUnits="userSpaceOnUse" x1="118.4655" y1="140.7444" x2="216.6381" y2="140.7444">
			<stop  offset="0" style="stop-color:#FFE366"/>
			<stop  offset="1" style="stop-color:#FFF77E"/>
		</linearGradient>
		<polygon id="XMLID_1365_" fill="url(#XMLID_90_)" points="177.4867,190.7142 157.2749,155.7317 118.4655,170.1802 
			141.9129,138.9996 121.2493,114.8235 153.23,124.5498 175.5446,90.7746 176.6789,126.0709 216.6381,131.9143 179.1053,145.084 		
			"/>
		<linearGradient id="XMLID_91_" gradientUnits="userSpaceOnUse" x1="123.4173" y1="112.0486" x2="184.7214" y2="159.9446">
			<stop  offset="0" style="stop-color:#FFC71B"/>
			<stop  offset="0.8061" style="stop-color:#FFF731"/>
		</linearGradient>
		<path id="XMLID_1364_" fill="url(#XMLID_91_)" d="M176.4453,118.8043l-0.9007-28.0297L153.23,124.5498l-31.9808-9.7263
			l20.6637,24.1761l-23.4475,31.1806l25.0393-9.3226C145.3879,141.8326,158.4417,125.8604,176.4453,118.8043z"/>
		<linearGradient id="XMLID_92_" gradientUnits="userSpaceOnUse" x1="131.993" y1="132.3435" x2="202.4753" y2="163.7242">
			<stop  offset="0" style="stop-color:#FFC71B"/>
			<stop  offset="0.8061" style="stop-color:#FFEE2D"/>
		</linearGradient>
		<path id="XMLID_1363_" fill="url(#XMLID_92_)" d="M177.4867,190.7142l1.6186-45.6302l37.5328-13.1697l-39.9592-5.8434
			l-0.2336-7.2667c-18.0037,7.0561-31.0574,23.0283-32.9406,42.0533l13.7702-5.1259L177.4867,190.7142z"/>
	</g>
	<path id="XMLID_1361_" fill="#D5A034" d="M328.4122,390.2643c10.5092,0,16.4399-0.0014,29.1082-5.8328
		c12.6639-5.8289,5.6577-0.7572,0.5361,2.0294c-5.1216,2.7893-13.2058,7.6042-28.0271,5.8302
		C316.6588,390.6918,325.1779,389.7573,328.4122,390.2643z"/>
	<path id="XMLID_1360_" fill="#B58721" d="M236.5094,234.0623c6.4671,0,9.7028-5.5747,13.4746-8.6168
		c3.7719-3.0436,3.7719,4.5619-2.6952,10.1392C240.8203,241.162,224.113,239.1339,236.5094,234.0623z"/>
</g>
</svg>
