<?xml version="1.0" encoding="utf-8"?>
<!-- Generator: Adobe Illustrator 19.0.0, SVG Export Plug-In . SVG Version: 6.00 Build 0)  -->
<svg version="1.1" id="Layer_1" xmlns="http://www.w3.org/2000/svg" xmlns:xlink="http://www.w3.org/1999/xlink" x="0px" y="0px"
	 viewBox="0 0 234.6667 240.6667" enable-background="new 0 0 234.6667 240.6667" xml:space="preserve">
<g id="XMLID_924_">
	<g id="XMLID_980_">
		<g id="XMLID_983_">
			<path id="XMLID_992_" fill="#FFD519" d="M116.294,187.583c18.997-10.6817,34.2809-25.0897,45.6954-43.0212
				c-4.7198-4.135-9.4397-8.27-14.1596-12.405c-3.177,4.4693-6.5798,8.7417-10.2196,12.7924
				c-3.8882,4.327-8.0383,8.4131-12.4294,12.2406c-7.7063,6.7172-16.1588,12.6432-25.2706,17.7091
				c-7.6436,4.2493-14.9209,7.431-21.3379,9.8011c0.432,4.4224,0.864,8.8448,1.296,13.2672
				c0.1191,1.2192,0.212,2.4016,0.2966,3.5453C87.0136,200.0302,100.8971,196.2411,116.294,187.583z"/>
			<path id="XMLID_991_" fill="#54B1E3" d="M92.6098,160.4115c17.5399-9.8635,31.9105-22.907,42.9973-38.9629
				c-4.7767-4.1847-9.5533-8.3695-14.33-12.5542c-2.3364,3.0645-4.7859,6.0281-7.3513,8.8831
				c-3.8882,4.327-8.0383,8.4131-12.4294,12.2406c-7.7062,6.7173-16.1588,12.6432-25.2706,17.7091
				c-0.4024,0.2237-0.8009,0.4366-1.2012,0.6545c0.6211,6.3585,1.2423,12.7169,1.8634,19.0754
				c0.0159,0.1621,0.0317,0.3242,0.0475,0.4863C81.8002,165.9758,87.108,163.5054,92.6098,160.4115z"/>
			<path id="XMLID_990_" fill="#FF9217" d="M66.4775,60.8854c0.911,9.3253,1.8219,18.6507,2.7328,27.976
				c4.7672-4.3244,9.1772-8.9913,13.2261-13.9946C76.0293,69.2535,70.1488,64.1018,66.4775,60.8854z"/>
			<path id="XMLID_989_" fill="#704F9C" d="M94.5921,85.5161c-1.4137,1.7302-2.8599,3.4309-4.3507,5.0899
				c-3.8882,4.327-8.0383,8.4131-12.4294,12.2406c-2.1725,1.8937-4.4107,3.7172-6.6999,5.4836
				c0.7273,7.446,1.4548,14.8921,2.1821,22.3381c14.1561-8.6564,26.1158-19.5001,35.7997-32.4475
				C104.26,93.986,99.426,89.7511,94.5921,85.5161z"/>
			<path id="XMLID_988_" fill="#FF335F" d="M161.2943,172.1205c-3.8882,4.327-8.0383,8.4131-12.4294,12.2406
				c-7.7062,6.7172-16.1586,12.6435-25.2706,17.709c-16.2153,9.0148-30.777,13.2247-38.9709,15.0672
				c2.0526,1.7557,5.1662,2.8299,9.9885,3.0799c16.1381,0.8366,33.0937-4.669,47.6706-11.6985
				c14.207-7.7501,28.5616-18.3213,37.2856-31.9238c6.8983-10.7558,2.1756-15.1687-5.2467-21.3608
				C170.3717,161.2089,166.0306,166.8497,161.2943,172.1205z"/>
			<path id="XMLID_987_" fill="#FF9217" d="M123.5944,202.0702c9.112-5.0656,17.5643-10.9918,25.2706-17.709
				c4.3911-3.8276,8.5412-7.9136,12.4294-12.2406c4.7363-5.2708,9.0774-10.9116,13.0271-16.8862
				c-1.3441-1.1213-2.7758-2.3003-4.244-3.5866c-2.696-2.362-5.3921-4.724-8.0881-7.0859
				c-11.4145,17.9315-26.6983,32.3395-45.6954,43.0212c-15.3969,8.6582-29.2804,12.4472-36.1291,13.9296
				c0.5127,6.9399,0.7132,12.4213,4.4586,15.6248C92.8174,215.2949,107.3791,211.0849,123.5944,202.0702z"/>
			<path id="XMLID_986_" fill="#B2C229" d="M99.9102,174.8988c9.1118-5.0659,17.5643-10.9919,25.2706-17.7091
				c4.3911-3.8276,8.5412-7.9136,12.4294-12.2406c3.6399-4.0507,7.0426-8.3231,10.2196-12.7924
				c-0.2701-0.2366-0.5402-0.4733-0.8103-0.7099c-3.8041-3.3327-7.6083-6.6655-11.4124-9.9982
				c-11.0868,16.0559-25.4574,29.0993-42.9973,38.9629c-5.5018,3.0939-10.8095,5.5642-15.6744,7.532
				c0.5456,5.5855,1.0912,11.171,1.6369,16.7565C84.9893,182.3298,92.2665,179.1481,99.9102,174.8988z"/>
			<path id="XMLID_985_" fill="#496FBB" d="M101.4963,130.0182c4.3911-3.8276,8.5412-7.9136,12.4294-12.2406
				c2.5655-2.855,5.0149-5.8186,7.3513-8.8831c-4.0611-3.5578-8.1221-7.1157-12.1832-10.6735
				c-9.6839,12.9474-21.6436,23.7911-35.7997,32.4475c0.5768,5.9045,1.1535,11.8089,1.7303,17.7134
				c0.4004-0.2179,0.7988-0.4308,1.2012-0.6545C85.3375,142.6614,93.7901,136.7354,101.4963,130.0182z"/>
			<path id="XMLID_984_" fill="#FF335F" d="M90.2414,90.606c1.4908-1.659,2.937-3.3596,4.3507-5.0899
				c-4.0519-3.5498-8.1038-7.0996-12.1557-10.6494c-4.0489,5.0033-8.459,9.6702-13.2261,13.9946
				c0.634,6.4897,1.2679,12.9793,1.9018,19.4689c2.2892-1.7664,4.5274-3.5899,6.6999-5.4836
				C82.2031,99.0191,86.3531,94.933,90.2414,90.606z"/>
		</g>
		<g id="XMLID_981_">
			<polygon id="XMLID_982_" fill="#FF335F" points="69.9995,44.8067 69.3465,47.1605 71.1457,48.8135 69.6381,50.7364 
				70.6661,52.9524 68.5392,54.1542 68.644,56.595 66.2189,56.8895 65.3781,59.1829 63.0242,58.5297 61.3714,60.329 
				59.4486,58.8214 57.2324,59.8494 56.0307,57.7225 53.5898,57.8272 53.2953,55.4021 51.0019,54.5614 51.6551,52.2074 
				49.856,50.5546 51.3633,48.6319 50.3355,46.4157 52.4624,45.214 52.3577,42.7732 54.7827,42.4787 55.6235,40.1853 
				57.9773,40.8383 59.6301,39.0392 61.553,40.5467 63.769,39.5187 64.9709,41.6457 67.4116,41.5409 67.7061,43.9659 			"/>
		</g>
	</g>
	<g id="XMLID_977_" opacity="0.34">
		<path id="XMLID_979_" fill="#FFFFFF" d="M67.6092,71.0093l15.5048,78.6438l13.8857,70.4311
			c6.0248,0.187,12.1365-0.5311,18.1576-1.8819l-22.8693-70.7959L67.6092,71.0093z"/>
		<path id="XMLID_978_" opacity="0.37" fill="#FFFFFF" d="M67.6092,71.0093l15.5048,78.6438l13.8857,70.4311
			c6.0248,0.187,12.1365-0.5311,18.1576-1.8819l-22.8693-70.7959L67.6092,71.0093z"/>
	</g>
</g>
</svg>
