<?xml version="1.0" encoding="utf-8"?>
<!-- Generator: Adobe Illustrator 19.0.0, SVG Export Plug-In . SVG Version: 6.00 Build 0)  -->
<svg version="1.1" id="Layer_1" xmlns="http://www.w3.org/2000/svg" xmlns:xlink="http://www.w3.org/1999/xlink" x="0px" y="0px"
	 viewBox="0 0 234.6667 240.6667" enable-background="new 0 0 234.6667 240.6667" xml:space="preserve">
<g id="XMLID_924_">
	<g id="XMLID_980_">
		<g id="XMLID_983_">
			<g id="XMLID_984_">
				<g id="XMLID_985_">
					<path id="XMLID_994_" fill="#FFE469" d="M117.6983,189.718c18.997-10.6817,34.2809-25.0897,45.6954-43.0212
						c-4.7198-4.135-9.4397-8.2701-14.1596-12.405c-3.177,4.4693-6.5798,8.7417-10.2196,12.7923
						c-3.8882,4.327-8.0383,8.4131-12.4294,12.2407c-7.7062,6.7172-16.1588,12.6432-25.2706,17.709
						c-7.6437,4.2493-14.9209,7.431-21.3379,9.8012c0.432,4.4224,0.864,8.8448,1.296,13.2672
						c0.1191,1.2192,0.2121,2.4016,0.2966,3.5453C88.4179,202.1652,102.3014,198.3762,117.6983,189.718z"/>
					<path id="XMLID_993_" fill="#A1B025" d="M94.0141,162.5466c17.54-9.8636,31.9106-22.907,42.9973-38.9629
						c-4.7767-4.1847-9.5533-8.3695-14.33-12.5542c-2.3364,3.0645-4.7859,6.0281-7.3513,8.8831
						c-3.8882,4.327-8.0383,8.4131-12.4294,12.2406c-7.7062,6.7172-16.1588,12.6432-25.2706,17.709
						c-0.4025,0.2238-0.8009,0.4366-1.2013,0.6545c0.6212,6.3585,1.2423,12.717,1.8634,19.0755
						c0.0159,0.1621,0.0317,0.3242,0.0475,0.4864C83.2046,168.1107,88.5123,165.6404,94.0141,162.5466z"/>
					<path id="XMLID_992_" fill="#FFE469" d="M67.8818,63.0204c0.9109,9.3253,1.8219,18.6507,2.7328,27.9761
						c4.7671-4.3244,9.1772-8.9913,13.2261-13.9947C77.4336,71.3885,71.5531,66.2368,67.8818,63.0204z"/>
					<path id="XMLID_991_" fill="#8A961B" d="M95.9964,87.6511c-1.4137,1.7303-2.86,3.4309-4.3508,5.0899
						c-3.8882,4.327-8.0383,8.4131-12.4294,12.2406c-2.1725,1.8937-4.4107,3.7173-6.6999,5.4836
						c0.7274,7.446,1.4548,14.8921,2.1821,22.3381c14.1561-8.6564,26.1158-19.5,35.7997-32.4475
						C105.6643,96.121,100.8304,91.886,95.9964,87.6511z"/>
					<path id="XMLID_990_" fill="#8A961B" d="M162.6986,174.2555c-3.8882,4.3271-8.0382,8.4131-12.4294,12.2406
						c-7.7062,6.7173-16.1586,12.6435-25.2706,17.7091c-16.2153,9.0147-30.777,13.2247-38.9709,15.0672
						c2.0527,1.7556,5.1662,2.8299,9.9885,3.08c16.1381,0.8366,33.0937-4.669,47.6706-11.6985
						c14.2069-7.7501,28.5615-18.3213,37.2856-31.9238c6.8983-10.7558,2.1755-15.1687-5.2467-21.3608
						C171.776,163.3439,167.435,168.9847,162.6986,174.2555z"/>
					<path id="XMLID_989_" fill="#A1B025" d="M124.9987,204.2052c9.1119-5.0656,17.5644-10.9919,25.2706-17.7091
						c4.3911-3.8275,8.5412-7.9136,12.4294-12.2406c4.7363-5.2708,9.0774-10.9116,13.0271-16.8863
						c-1.3441-1.1213-2.7759-2.3003-4.244-3.5866c-2.6961-2.362-5.392-4.7239-8.0881-7.0858
						c-11.4145,17.9315-26.6983,32.3394-45.6954,43.0212c-15.3969,8.6582-29.2804,12.4472-36.1291,13.9296
						c0.5127,6.9399,0.7133,12.4213,4.4586,15.6248C94.2217,217.4299,108.7834,213.22,124.9987,204.2052z"/>
					<path id="XMLID_988_" fill="#8A961B" d="M101.3145,177.0338c9.1117-5.0658,17.5643-10.9918,25.2706-17.709
						c4.3911-3.8276,8.5412-7.9137,12.4294-12.2407c3.6398-4.0507,7.0426-8.323,10.2196-12.7923
						c-0.2701-0.2366-0.5402-0.4733-0.8103-0.7099c-3.8041-3.3328-7.6083-6.6655-11.4124-9.9982
						c-11.0867,16.0559-25.4573,29.0993-42.9973,38.9629c-5.5018,3.0939-10.8095,5.5642-15.6743,7.532
						c0.5456,5.5855,1.0912,11.1709,1.6369,16.7564C86.3936,184.4648,93.6708,181.2832,101.3145,177.0338z"/>
					<path id="XMLID_987_" fill="#FFE469" d="M102.9006,132.1532c5.3411-4.6139,9.9715-9.0974,12.4294-12.2406
						c2.3645-3.0236,5.0149-5.8186,7.3513-8.8831c-4.061-3.5578-8.1221-7.1157-12.1831-10.6735
						c-7.4049,13.1985-20.4187,23.926-35.7997,32.4474c0.5768,5.9044,1.1535,11.8089,1.7303,17.7134
						c0.4003-0.2179,0.7988-0.4308,1.2013-0.6545C86.7418,144.7964,95.1645,138.836,102.9006,132.1532z"/>
					<path id="XMLID_986_" fill="#A1B025" d="M91.6457,92.741c1.4342-1.7082,2.937-3.3596,4.3508-5.0899
						c-4.0519-3.5498-8.1038-7.0996-12.1557-10.6494c-4.049,5.0033-8.459,9.6702-13.2261,13.9947
						c0.6339,6.4896,1.2679,12.9792,1.9018,19.4688c2.2892-1.7663,4.4898-3.634,6.6999-5.4836
						C83.5878,101.3233,87.7167,97.4206,91.6457,92.741z"/>
				</g>
			</g>
		</g>
		<g id="XMLID_981_">
			<polygon id="XMLID_982_" fill="#8A961B" points="54.6179,36.8356 59.3308,42.3427 61.5143,35.4313 62.8349,42.5572 
				68.1848,37.6672 65.7734,44.4917 72.8443,42.9343 67.3466,47.6398 74.2521,49.8262 67.1267,51.1552 72.018,56.4936 
				65.1849,54.0867 66.7491,61.161 62.0436,55.6538 59.8571,62.5594 58.5347,55.444 53.1903,60.331 55.5992,53.497 48.5253,55.0622 
				54.0335,50.3488 47.1255,48.1719 54.2419,46.8441 49.3529,41.5011 56.1823,43.9099 			"/>
		</g>
	</g>
	<g id="XMLID_977_" opacity="0.34">
		<path id="XMLID_979_" fill="#FFFFFF" d="M69.234,74.0315l15.3176,78.2793l13.718,70.1047
			c6.0178,0.1731,12.1242-0.5551,18.1416-1.9132l-22.691-70.4485L69.234,74.0315z"/>
		<path id="XMLID_978_" opacity="0.37" fill="#FFFFFF" d="M69.234,74.0315l15.3176,78.2793l13.718,70.1047
			c6.0178,0.1731,12.1242-0.5551,18.1416-1.9132l-22.691-70.4485L69.234,74.0315z"/>
	</g>
</g>
</svg>
