<?xml version="1.0" encoding="utf-8"?>
<!-- Generator: Adobe Illustrator 19.0.0, SVG Export Plug-In . SVG Version: 6.00 Build 0)  -->
<svg version="1.1" id="Layer_1" xmlns="http://www.w3.org/2000/svg" xmlns:xlink="http://www.w3.org/1999/xlink" x="0px" y="0px"
	 viewBox="0 0 473.6487 500.6757" enable-background="new 0 0 473.6487 500.6757" xml:space="preserve">
<g id="XMLID_448_">
	<path id="XMLID_1350_" fill="#99B800" d="M120.9737,308.3881c43.2114-1.4589,206.1156-9.9932,257.1443,8.2063
		c-0.3113-15.0462-7.5567-66.69-4.1619-81.779c-23.7773-14.7652-184.0358,2.2042-227.9567,29.0662
		C123.4346,277.6811,123.3442,303.6573,120.9737,308.3881z"/>
	<g id="XMLID_1345_">
		
			<linearGradient id="XMLID_67_" gradientUnits="userSpaceOnUse" x1="489.9749" y1="231.6155" x2="622.6269" y2="55.5803" gradientTransform="matrix(-0.9818 0.1899 0.1899 0.9818 675.4893 -69.1246)">
			<stop  offset="0" style="stop-color:#FFE802"/>
			<stop  offset="1" style="stop-color:#99B800"/>
		</linearGradient>
		<path id="XMLID_1349_" fill="url(#XMLID_67_)" d="M135.6887,40.3531c-15.5294-10.3638,29.0428,54.001,30.1575,122.4517
			c0.7383,21.645-1.6069,38.6681-5.577,53.0298c-3.9664,14.3602-17.9288,60.648,0.9337,86.1489
			c6.3949,2.6837,32.4232-3.094,38.7673-8.6072c42.8495-37.2397-4.5238-117.5613-4.9292-137.3079
			C194.7661,142.7689,185.2515,71.0642,135.6887,40.3531z"/>
		
			<linearGradient id="XMLID_68_" gradientUnits="userSpaceOnUse" x1="507.612" y1="124.4235" x2="582.8266" y2="24.6104" gradientTransform="matrix(-0.9818 0.1899 0.1899 0.9818 675.4893 -69.1246)">
			<stop  offset="0" style="stop-color:#99B800"/>
			<stop  offset="1" style="stop-color:#6E6E00"/>
		</linearGradient>
		<path id="XMLID_1348_" fill="url(#XMLID_68_)" d="M135.6887,40.3531c-18.0302-11.7456,27.7871,53.0752,30.1575,122.4517
			c0.8757,5.3161,5.8809,10.0181,7.8497,15.8921c4.086-6.403,20.4079-16.9033,21.8048-30.1587
			C196.8977,135.2802,180.7747,63.5934,135.6887,40.3531z"/>
		
			<linearGradient id="XMLID_69_" gradientUnits="userSpaceOnUse" x1="499.8771" y1="234.7378" x2="623.4333" y2="70.7731" gradientTransform="matrix(-0.9818 0.1899 0.1899 0.9818 675.4893 -69.1246)">
			<stop  offset="0" style="stop-color:#FFF52C"/>
			<stop  offset="0.2608" style="stop-color:#FCF32A"/>
			<stop  offset="0.4895" style="stop-color:#F1EB23"/>
			<stop  offset="0.7062" style="stop-color:#DFDF18"/>
			<stop  offset="0.9142" style="stop-color:#C6CE08"/>
			<stop  offset="1" style="stop-color:#B9C500"/>
		</linearGradient>
		<path id="XMLID_1347_" fill="url(#XMLID_69_)" d="M141.736,46.8128c21.11,41.8462,34.1603,76.8087,30.1503,139.7586
			c-2.8193,44.2242-6.2537,101.5742-10.459,137.0131c-0.5827,4.9347,6.0655,3.6356,6.6012-0.4478
			c4.607-35.1359,9.3552-106.0071,7.828-150.9283C173.6452,107.2761,162.6686,87.962,141.736,46.8128z"/>
		
			<linearGradient id="XMLID_70_" gradientUnits="userSpaceOnUse" x1="508.8365" y1="124.8955" x2="576.6224" y2="34.9405" gradientTransform="matrix(-0.9818 0.1899 0.1899 0.9818 675.4893 -69.1246)">
			<stop  offset="0.3273" style="stop-color:#99B800"/>
			<stop  offset="1" style="stop-color:#7C8600"/>
		</linearGradient>
		<path id="XMLID_1346_" fill="url(#XMLID_70_)" d="M141.3271,46.6006c19.2535,38.168,31.1203,74.7588,30.8489,128.7433
			c0.351,2.9397,4.741,3.8435,3.9012-2.9372C175.5633,107.5902,162.5528,82.3578,141.3271,46.6006z"/>
	</g>
	<g id="XMLID_1340_">
		
			<linearGradient id="XMLID_71_" gradientUnits="userSpaceOnUse" x1="429.734" y1="263.9911" x2="539.1113" y2="118.8426" gradientTransform="matrix(-0.9926 -0.1216 -0.1216 0.9926 737.6431 45.4108)">
			<stop  offset="0" style="stop-color:#FFE802"/>
			<stop  offset="1" style="stop-color:#99B800"/>
		</linearGradient>
		<path id="XMLID_1344_" fill="url(#XMLID_71_)" d="M228.5137,74.4531c24.139,16.4349,34.5257,82.1194,31.3409,116.3958
			c-3.1847,34.2749-5.3634,69.5335-21.0737,87.572c-20.5815-24.0835-36.7007-50.8586-37.3051-80.104
			C200.8315,167.2876,177.5901,108.7102,228.5137,74.4531z"/>
		
			<linearGradient id="XMLID_72_" gradientUnits="userSpaceOnUse" x1="476.9525" y1="160.3854" x2="519.4319" y2="104.0132" gradientTransform="matrix(-0.9926 -0.1216 -0.1216 0.9926 737.6431 45.4108)">
			<stop  offset="0" style="stop-color:#99B800"/>
			<stop  offset="1" style="stop-color:#6E6E00"/>
		</linearGradient>
		<path id="XMLID_1343_" fill="url(#XMLID_72_)" d="M228.5137,74.4531c9.3661,6.3784,16.6621,20.1738,21.9025,36.6706
			c3.554,11.368,6.9449,19.2192-8.7617,37.2576c-20.578-24.0835-51.3399-13.6301-39.9435-43.9225
			C205.6883,93.8692,215.3221,83.3276,228.5137,74.4531z"/>
		
			<linearGradient id="XMLID_73_" gradientUnits="userSpaceOnUse" x1="430.0341" y1="296.1081" x2="554.7391" y2="130.619" gradientTransform="matrix(-0.9926 -0.1216 -0.1216 0.9926 737.6431 45.4108)">
			<stop  offset="0" style="stop-color:#FFF52C"/>
			<stop  offset="0.2608" style="stop-color:#FCF32A"/>
			<stop  offset="0.4895" style="stop-color:#F1EB23"/>
			<stop  offset="0.7062" style="stop-color:#DFDF18"/>
			<stop  offset="0.9142" style="stop-color:#C6CE08"/>
			<stop  offset="1" style="stop-color:#B9C500"/>
		</linearGradient>
		<path id="XMLID_1342_" fill="url(#XMLID_73_)" d="M228.5137,74.4531c11.7184,52.1013,36.3533,143.7262-0.3076,238.24
			c-1.567,4.0433-6.0221,3.0156-12.0912,5.2776C232.8781,271.6623,259.1091,224.4667,228.5137,74.4531z"/>
		
			<linearGradient id="XMLID_74_" gradientUnits="userSpaceOnUse" x1="470.3794" y1="154.6598" x2="512.4877" y2="98.7803" gradientTransform="matrix(-0.9926 -0.1216 -0.1216 0.9926 737.6431 45.4108)">
			<stop  offset="0.3273" style="stop-color:#99B800"/>
			<stop  offset="1" style="stop-color:#7C8600"/>
		</linearGradient>
		<path id="XMLID_1341_" fill="url(#XMLID_74_)" d="M228.5137,74.4531c4.8277,18.1624,10.6689,42.626,14.925,71.8783
			c-0.771,1.3114-2.9351,1.5098-4.122,0.2782C237.1125,125.5295,233.4247,101.5975,228.5137,74.4531z"/>
	</g>
	<g id="XMLID_1334_">
		
			<linearGradient id="XMLID_75_" gradientUnits="userSpaceOnUse" x1="1590.6528" y1="415.3001" x2="1709.9713" y2="256.9592" gradientTransform="matrix(-0.9863 -0.1652 -0.1652 0.9863 2036.5142 128.8503)">
			<stop  offset="0" style="stop-color:#FFE802"/>
			<stop  offset="1" style="stop-color:#99B800"/>
		</linearGradient>
		<path id="XMLID_1339_" fill="url(#XMLID_75_)" d="M401.0301,51.1411c-28.272,15.3466-47.6485,51.5682-69.8984,96.1091
			c-22.2426,44.5423-66.728,124.1503-40.1966,163.8559c12.7752,3.2098,29.8208,4.5985,38.1736,0.9203
			c26.4155-11.6354,38.6732-80.2831,64.0354-121.3346C444.6902,107.2472,415.4953,46.668,401.0301,51.1411z"/>
		
			<linearGradient id="XMLID_76_" gradientUnits="userSpaceOnUse" x1="1616.4999" y1="263.6144" x2="1653.5521" y2="214.4443" gradientTransform="matrix(-0.9863 -0.1652 -0.1652 0.9863 2036.5142 128.8503)">
			<stop  offset="0" style="stop-color:#99B800"/>
			<stop  offset="1" style="stop-color:#6E6E00"/>
		</linearGradient>
		<path id="XMLID_1338_" fill="url(#XMLID_76_)" d="M401.0301,51.1411c-16.3037,8.8499-29.6509,24.64-42.2921,44.9666
			c-3.6952,5.9389-1.2667,32.5764-0.0978,39.5732c14.6898-7.187,63.3044-18.1665,63.7423-32.3091
			C423.4645,68.8517,409.6398,48.4796,401.0301,51.1411z"/>
		<path id="XMLID_1337_" fill="#BFC200" d="M376.0658,161.9535c-22.2462,44.5423-55.3099,153.751-46.9572,150.0728
			c26.4155-11.6354,38.6732-80.2831,64.0354-121.3346C437.4341,111.7588,398.3122,117.4126,376.0658,161.9535z"/>
		
			<linearGradient id="XMLID_77_" gradientUnits="userSpaceOnUse" x1="1600.3154" y1="413.6511" x2="1715.3417" y2="261.0061" gradientTransform="matrix(-0.9863 -0.1652 -0.1652 0.9863 2036.5142 128.8503)">
			<stop  offset="0" style="stop-color:#FFF52C"/>
			<stop  offset="0.2608" style="stop-color:#FCF32A"/>
			<stop  offset="0.4895" style="stop-color:#F1EB23"/>
			<stop  offset="0.7062" style="stop-color:#DFDF18"/>
			<stop  offset="0.9142" style="stop-color:#C6CE08"/>
			<stop  offset="1" style="stop-color:#B9C500"/>
		</linearGradient>
		<path id="XMLID_1336_" fill="url(#XMLID_77_)" d="M401.0301,51.1411c-4.8966,8.059-30.3349,52.9829-52.5812,97.5253
			c-19.7671,39.5691-42.2486,103.781-54.8755,146.9967c-2.6636,9.1252-4.3355,17.3248-5.3706,24.5104
			c2.2764,2.3225,5.8737,3.0582,9.4964-0.1323c0.6622-7.4612,1.5561-15.133,3.3294-21.8626
			c10.8138-44.4211,18.0628-73.7339,44.5398-131.7176C393.6073,61.2473,389.2247,76.4809,401.0301,51.1411z"/>
		
			<linearGradient id="XMLID_78_" gradientUnits="userSpaceOnUse" x1="1624.9331" y1="270.8084" x2="1662.3888" y2="221.1031" gradientTransform="matrix(-0.9863 -0.1652 -0.1652 0.9863 2036.5142 128.8503)">
			<stop  offset="0.3273" style="stop-color:#99B800"/>
			<stop  offset="1" style="stop-color:#7C8600"/>
		</linearGradient>
		<path id="XMLID_1335_" fill="url(#XMLID_78_)" d="M401.0301,51.1411c-4.8966,8.059-30.5483,51.0998-52.5812,97.5253
			c1.5817-2.5623,7.2853-10.2756,11.7186-13.3945C392.518,68.0445,390.6072,73.5081,401.0301,51.1411z"/>
	</g>
	<g id="XMLID_1327_">
		
			<linearGradient id="XMLID_79_" gradientUnits="userSpaceOnUse" x1="140.7984" y1="297.0316" x2="104.8755" y2="44.6371" gradientTransform="matrix(0.9999 -0.0157 0.0157 0.9999 -0.5319 6.1352)">
			<stop  offset="0" style="stop-color:#FFE802"/>
			<stop  offset="0.2856" style="stop-color:#FCE702"/>
			<stop  offset="0.4705" style="stop-color:#F4E302"/>
			<stop  offset="0.627" style="stop-color:#E5DC01"/>
			<stop  offset="0.7676" style="stop-color:#D0D201"/>
			<stop  offset="0.8962" style="stop-color:#B5C501"/>
			<stop  offset="1" style="stop-color:#99B800"/>
		</linearGradient>
		<path id="XMLID_1333_" fill="url(#XMLID_79_)" d="M21.895,66.4989c41.876,46.2312,77.2051,84.9406,93.2882,120.5768
			c16.0831,35.636,51.8899,85.055,80.9616,105.7371c30.8886-14.3698,46.7763-38.7109-3.4163-91.0821
			C154.4063,161.7428,101.9374,90.6511,74.031,76.9659C46.1244,63.2807,11.7255,57.2743,21.895,66.4989z"/>
		
			<linearGradient id="XMLID_80_" gradientUnits="userSpaceOnUse" x1="54.1754" y1="141.9386" x2="94.9126" y2="87.8784" gradientTransform="matrix(0.9999 -0.0157 0.0157 0.9999 -0.5319 6.1352)">
			<stop  offset="0" style="stop-color:#99B800"/>
			<stop  offset="1" style="stop-color:#6E6E00"/>
		</linearGradient>
		<path id="XMLID_1332_" fill="url(#XMLID_80_)" d="M21.895,66.4989c41.876,46.2312,77.2051,84.9406,93.2882,120.5768
			c16.0831,35.636-13.2458-96.4245-41.1522-110.1097C46.1244,63.2807,11.7255,57.2743,21.895,66.4989z"/>
		<path id="XMLID_1331_" fill="#D9CF00" d="M115.1832,187.0756c13.3036,29.4808,40.1062,68.3943,65.4324,92.6677
			c5.2837,5.0669-14.4727-107.4206-23.0679-117.3298c-8.7941-10.1336-7.3576-8.8856-16.3509-19.3691
			C115.5595,113.1515,99.1001,151.4395,115.1832,187.0756z"/>
		
			<linearGradient id="XMLID_81_" gradientUnits="userSpaceOnUse" x1="89.6138" y1="225.2285" x2="145.8664" y2="150.5787" gradientTransform="matrix(0.9999 -0.0157 0.0157 0.9999 -0.5319 6.1352)">
			<stop  offset="0" style="stop-color:#FFF52C"/>
			<stop  offset="0.2608" style="stop-color:#FCF32A"/>
			<stop  offset="0.4895" style="stop-color:#F1EB23"/>
			<stop  offset="0.7062" style="stop-color:#DFDF18"/>
			<stop  offset="0.9142" style="stop-color:#C6CE08"/>
			<stop  offset="1" style="stop-color:#B9C500"/>
		</linearGradient>
		<path id="XMLID_1330_" fill="url(#XMLID_81_)" d="M22.6006,63.5686c46.798,36.8278,83.354,72.99,161.8584,208.3541
			c10.1442,17.4639,18.345,31.5459,25.0148,42.98c4.2053,4.2293,13.2168,7.8249,8.3782-0.3953
			c-7.7884-13.2403-17.5742-29.2867-32.6222-55.0563C162.1765,219.984,77.5342,97.9607,22.6006,63.5686z"/>
		
			<linearGradient id="XMLID_82_" gradientUnits="userSpaceOnUse" x1="42.2177" y1="80.4932" x2="46.2422" y2="75.1525" gradientTransform="matrix(0.9999 -0.0157 0.0157 0.9999 -0.5319 6.1352)">
			<stop  offset="0.3273" style="stop-color:#99B800"/>
			<stop  offset="1" style="stop-color:#7C8600"/>
		</linearGradient>
		<path id="XMLID_1329_" fill="url(#XMLID_82_)" d="M22.6006,63.5686c14.6246,11.5086,28.0079,23.9167,42.2272,38.3417
			c3.6334,2.7676,2.812-0.1309,0.778-2.5306C50.6194,84.0551,35.9297,71.3921,22.6006,63.5686z"/>
		<path id="XMLID_1328_" fill="#F7E300" d="M155.7781,223.8096c8.1898,13.3063,16.8865,27.8484,26.1764,43.7942
			c0.2533-5.5765-0.8577-9.8471-1.0096-15.2832c-5.7362-9.3291-13.6185-21.4342-22.9702-35.0643
			C121.8783,164.6646,96.2483,127.1165,155.7781,223.8096z"/>
	</g>
	<g id="XMLID_1322_">
		
			<linearGradient id="XMLID_83_" gradientUnits="userSpaceOnUse" x1="50.5546" y1="248.154" x2="172.977" y2="85.694" gradientTransform="matrix(0.9999 -0.0157 0.0157 0.9999 -0.5319 6.1352)">
			<stop  offset="0.2606" style="stop-color:#FFE802"/>
			<stop  offset="0.4049" style="stop-color:#FBE602"/>
			<stop  offset="0.5522" style="stop-color:#EFE002"/>
			<stop  offset="0.7009" style="stop-color:#DAD701"/>
			<stop  offset="0.8504" style="stop-color:#BEC901"/>
			<stop  offset="1" style="stop-color:#99B800"/>
		</linearGradient>
		<path id="XMLID_1326_" fill="url(#XMLID_83_)" d="M93.5268,30.5872c24.9352,18.3953,36.9757,56.416,50.2106,102.9916
			c13.2421,46.573,41.5756,130.3552,7.5386,166.5918c-13.2638,1.7165-30.3929,1.1475-37.924-3.4413
			c-13.5064-8.2244-18.9131-34.0352-24.1644-62.7709c16.9154,8.7285,35.8213,7.723,51.3542,16.8827
			c-12.4965-10.7536-39.1075-11.2137-54.036-31.6093c-3.2282-17.4626-6.8761-35.085-12.6195-49.7676
			C39.3243,81.0849,80.1037,24.5161,93.5268,30.5872z"/>
		
			<linearGradient id="XMLID_84_" gradientUnits="userSpaceOnUse" x1="86.0725" y1="95.0177" x2="122.029" y2="47.3019" gradientTransform="matrix(0.9999 -0.0157 0.0157 0.9999 -0.5319 6.1352)">
			<stop  offset="0" style="stop-color:#99B800"/>
			<stop  offset="1" style="stop-color:#6E6E00"/>
		</linearGradient>
		<path id="XMLID_1325_" fill="url(#XMLID_84_)" d="M93.5268,30.5872c11.6895,8.6239,20.5453,21.5624,28.0222,37.675
			c3.7963,8.1829-2.2619,32.7045,0.5212,56.037c-8.74-14.4993-61.8388-35.2489-59.2222-48.35
			C69.1959,44.1608,85.8436,27.1128,93.5268,30.5872z"/>
		
			<linearGradient id="XMLID_85_" gradientUnits="userSpaceOnUse" x1="55.0564" y1="258.1377" x2="180.6468" y2="91.4736" gradientTransform="matrix(0.9999 -0.0157 0.0157 0.9999 -0.5319 6.1352)">
			<stop  offset="0.1818" style="stop-color:#FFF52C"/>
			<stop  offset="0.3952" style="stop-color:#FCF32A"/>
			<stop  offset="0.5823" style="stop-color:#F1EB23"/>
			<stop  offset="0.7596" style="stop-color:#DFDF18"/>
			<stop  offset="0.9298" style="stop-color:#C6CE08"/>
			<stop  offset="1" style="stop-color:#B9C500"/>
		</linearGradient>
		<path id="XMLID_1324_" fill="url(#XMLID_85_)" d="M93.5268,30.5872c3.2534,8.5274,19.579,55.8429,32.8175,102.4172
			c11.762,41.3752,21.3669,107.4261,25.3588,151.5937c1.3534,14.9664,0.6331,27.2878-0.6044,36.7616
			c-2.8011,2.4494-8.874,5.6385-9.9053,1.3748c1.1145-11.1504,3.3657-24.9926,2.6419-36.4985
			c-1.958-45.1512-3.3657-74.9612-18.146-135.3089C98.8758,41.4248,100.2184,56.9864,93.5268,30.5872z"/>
		
			<linearGradient id="XMLID_86_" gradientUnits="userSpaceOnUse" x1="89.2848" y1="95.1897" x2="124.1605" y2="48.9081" gradientTransform="matrix(0.9999 -0.0157 0.0157 0.9999 -0.5319 6.1352)">
			<stop  offset="0.3273" style="stop-color:#A6C700"/>
			<stop  offset="1" style="stop-color:#7C8600"/>
		</linearGradient>
		<path id="XMLID_1323_" fill="url(#XMLID_86_)" d="M93.5268,30.5872c2.8626,7.5052,14.1938,37.0206,26.296,77.6752
			c1.6465,5.5297,3.1376,12.5362,1.6829,13.5117c-3.0763-0.3527-4.075-2.6258-4.665-3.0583
			C98.1121,44.0189,99.4802,54.0755,93.5268,30.5872z"/>
	</g>
	<g id="XMLID_1314_">
		
			<linearGradient id="XMLID_87_" gradientUnits="userSpaceOnUse" x1="200.246" y1="287.9789" x2="365.9976" y2="68.0191" gradientTransform="matrix(0.9999 -0.0157 0.0157 0.9999 -0.5319 6.1352)">
			<stop  offset="0.2424" style="stop-color:#F5DC00"/>
			<stop  offset="1" style="stop-color:#99B800"/>
		</linearGradient>
		<path id="XMLID_1321_" fill="url(#XMLID_87_)" d="M208.4497,294.0291c6.3043-41.3571,17.4726-95.2327,57.1121-157.2419
			c39.6395-62.0062,63.4998-95.7839,74.9252-87.3529c11.4288,8.4296,38.456,29.1365,21.9857,73.7297
			c-16.4703,44.5947-62.9678,121.4833-96.1581,149.1415C243.16,290.4969,221.6954,291.5329,208.4497,294.0291z"/>
		
			<linearGradient id="XMLID_88_" gradientUnits="userSpaceOnUse" x1="297.1574" y1="146.8272" x2="359.9676" y2="63.4752" gradientTransform="matrix(0.9999 -0.0157 0.0157 0.9999 -0.5319 6.1352)">
			<stop  offset="0" style="stop-color:#99B800"/>
			<stop  offset="1" style="stop-color:#6E6E00"/>
		</linearGradient>
		<path id="XMLID_1320_" fill="url(#XMLID_88_)" d="M290.4825,142.1434c6.308-41.3559-3.2643-38.9354,5.6567-51.8258
			c21.8517-31.5734,36.2339-46.8691,44.3478-40.8833c11.4288,8.4296,38.9517,28.3595,21.9857,73.7297
			C345.7999,145.5709,303.7319,139.6485,290.4825,142.1434z"/>
		<path id="XMLID_1319_" fill="#D9CF00" d="M221.1851,233.9942c5.3417-18.4379,12.6232-38.2493,22.9412-59.229
			c5.2765,8.1954,20.1472,23.5779,38.854,62.2983c-0.5175-6.7103-0.1086-13.8174,0.7529-20.9783
			c6.8689,6.0876,15.9962,2.1808,24.4864,4.7087c-0.8433-3.7884-19.8144-12.0307-22.4598-18.1514
			c3.0001-17.2504,8.9681-35.9308,6.8871-46.3332c-6.8472-34.1895-8.6169-41.4813-4.7337-51.7169
			c9.0802,3.5817,29.3651,107.8669,32.6112,117.5129c-18.2653,25.9225-48.6617,45.5783-54.2096,50.2001
			c-8.5627,6.7296-16.8974,11.1105-24.6747,14.0888C236.4791,276.5653,226.1432,259.1632,221.1851,233.9942z"/>
		
			<linearGradient id="XMLID_89_" gradientUnits="userSpaceOnUse" x1="176.9418" y1="306.5486" x2="357.8249" y2="66.5086" gradientTransform="matrix(0.9999 -0.0157 0.0157 0.9999 -0.5319 6.1352)">
			<stop  offset="0.1455" style="stop-color:#FFF52C"/>
			<stop  offset="0.3683" style="stop-color:#FCF32A"/>
			<stop  offset="0.5638" style="stop-color:#F1EB23"/>
			<stop  offset="0.7489" style="stop-color:#DFDF18"/>
			<stop  offset="0.9267" style="stop-color:#C6CE08"/>
			<stop  offset="1" style="stop-color:#B9C500"/>
		</linearGradient>
		<path id="XMLID_1318_" fill="url(#XMLID_89_)" d="M339.5424,53.3398c-39.4948,69.0157-90.0346,148.2889-116.4755,205.4638
			c-12.4604,26.9435-21.2402,45.0204-28.2683,59.5555c0.5427,4.4965,4.5744,1.7234,8.1211,1.1421
			c11.1755-23.8465,22.2282-47.7536,38.1556-80.3864C270.52,178.7879,304.0758,119.1911,339.5424,53.3398z"/>
		
			<linearGradient id="XMLID_90_" gradientUnits="userSpaceOnUse" x1="288.2061" y1="131.126" x2="344.4778" y2="56.4509" gradientTransform="matrix(0.9999 -0.0157 0.0157 0.9999 -0.5319 6.1352)">
			<stop  offset="0.3273" style="stop-color:#99B800"/>
			<stop  offset="1" style="stop-color:#7C8600"/>
		</linearGradient>
		<path id="XMLID_1317_" fill="url(#XMLID_90_)" d="M339.5424,53.3398c-14.5233,25.3784-30.8633,49.9632-46.6279,76.507
			c-1.1544,0.9423,0.5466,5.943,2.0557,6.6938C309.4501,109.7668,324.1652,81.895,339.5424,53.3398z"/>
		<path id="XMLID_1316_" fill="#F7E300" d="M236.5551,231.5366c-3.4996,6.7131-6.7892,13.232-9.8221,19.5167
			c0.3621,4.593,1.9834,8.8581,2.9894,11.5499c3.5213-7.3551,7.2781-15.1358,11.353-23.4883
			C241.0537,237.9548,239.4431,234.4682,236.5551,231.5366z"/>
		<path id="XMLID_1315_" fill="#F7E300" d="M298.4156,120.4543c-3.4997,6.7131-6.7894,13.2306-9.8221,19.5153
			c0.3113,2.0637,0.6007,3.6175,0.912,6.5354c3.5249-7.3537,6.7496-12.4177,10.8281-20.7702
			C300.3084,124.5733,301.3071,123.3858,298.4156,120.4543z"/>
	</g>
	<g id="XMLID_1309_">
		
			<linearGradient id="XMLID_91_" gradientUnits="userSpaceOnUse" x1="218.7058" y1="293.9526" x2="182.8973" y2="42.3611" gradientTransform="matrix(0.9999 -0.0157 0.0157 0.9999 -0.5319 6.1352)">
			<stop  offset="0.2667" style="stop-color:#FFE802"/>
			<stop  offset="0.4097" style="stop-color:#FBE602"/>
			<stop  offset="0.5558" style="stop-color:#EFE002"/>
			<stop  offset="0.7033" style="stop-color:#DAD701"/>
			<stop  offset="0.8516" style="stop-color:#BEC901"/>
			<stop  offset="1" style="stop-color:#99B800"/>
		</linearGradient>
		<path id="XMLID_1313_" fill="url(#XMLID_91_)" d="M118.8057,65.3305c41.8797,46.2313,63.0584,81.0284,79.1414,116.6644
			s51.8899,85.055,80.9654,105.7372c13.9007-20.4177,13.3833-45.3358-14.1432-90.1813
			C237.2427,152.7041,184.705,85.5705,156.7987,71.8852C128.8921,58.2,101.0652,48.4067,118.8057,65.3305z"/>
		
			<linearGradient id="XMLID_92_" gradientUnits="userSpaceOnUse" x1="166.4361" y1="135.8703" x2="141.834" y2="44.6932" gradientTransform="matrix(0.9999 -0.0157 0.0157 0.9999 -0.5319 6.1352)">
			<stop  offset="0" style="stop-color:#99B800"/>
			<stop  offset="1" style="stop-color:#6E6E00"/>
		</linearGradient>
		<path id="XMLID_1312_" fill="url(#XMLID_92_)" d="M118.8057,65.3305c14.4365,15.9362,26.4155,30.5141,36.5706,44.2379
			c10.0899,10.5112,4.3102,3.1809,33.3857,23.863c-2.2078-7.7614,6.2537-19.1584-2.3308-37.6445
			c-11.1611-11.2882-21.4572-19.8899-29.6326-23.9016C128.8921,58.2,101.0652,48.4067,118.8057,65.3305z"/>
		
			<linearGradient id="XMLID_93_" gradientUnits="userSpaceOnUse" x1="182.0804" y1="235.2301" x2="244.7248" y2="152.0981" gradientTransform="matrix(0.9999 -0.0157 0.0157 0.9999 -0.5319 6.1352)">
			<stop  offset="0.5152" style="stop-color:#FFF52C"/>
			<stop  offset="0.6416" style="stop-color:#FCF32A"/>
			<stop  offset="0.7525" style="stop-color:#F1EB23"/>
			<stop  offset="0.8575" style="stop-color:#DFDF18"/>
			<stop  offset="0.9584" style="stop-color:#C6CE08"/>
			<stop  offset="1" style="stop-color:#B9C500"/>
		</linearGradient>
		<path id="XMLID_1311_" fill="url(#XMLID_93_)" d="M126.0006,66.8019c46.7978,36.8263,62.718,64.6762,141.2262,200.0402
			c13.9007,23.9332,24.1462,41.5115,31.8113,54.6374c7.3431,3.163,10.3651,3.2306,8.1682-0.6612
			c-8.9572-15.8426-19.6261-32.9138-39.2159-66.4477C244.9405,214.9033,180.9304,101.194,126.0006,66.8019z"/>
		
			<linearGradient id="XMLID_94_" gradientUnits="userSpaceOnUse" x1="148.6057" y1="100.7891" x2="159.1134" y2="86.845" gradientTransform="matrix(0.9999 -0.0157 0.0157 0.9999 -0.5319 6.1352)">
			<stop  offset="0.3273" style="stop-color:#A3C400"/>
			<stop  offset="1" style="stop-color:#7C8600"/>
		</linearGradient>
		<path id="XMLID_1310_" fill="url(#XMLID_94_)" d="M122.3669,64.4185c23.4007,18.4132,42.6179,38.6296,62.3563,65.4503
			c2.4935,3.1907,2.9314-0.3195,2.6093-1.1875C168.7993,101.8331,142.916,74.6873,122.3669,64.4185z"/>
	</g>
	<g id="XMLID_1304_">
		
			<linearGradient id="XMLID_95_" gradientUnits="userSpaceOnUse" x1="337.1262" y1="276.9519" x2="436.1677" y2="145.5194" gradientTransform="matrix(0.9999 -0.0157 0.0157 0.9999 -0.5319 6.1352)">
			<stop  offset="0" style="stop-color:#FFE802"/>
			<stop  offset="0.2856" style="stop-color:#FCE702"/>
			<stop  offset="0.4705" style="stop-color:#F4E302"/>
			<stop  offset="0.627" style="stop-color:#E5DC01"/>
			<stop  offset="0.7676" style="stop-color:#D0D201"/>
			<stop  offset="0.8962" style="stop-color:#B5C501"/>
			<stop  offset="1" style="stop-color:#99B800"/>
		</linearGradient>
		<path id="XMLID_1308_" fill="url(#XMLID_95_)" d="M407.4792,122.6255c-23.2705,12.7401-40.5009,69.8062-41.923,100.1992
			c-1.4188,30.3942-3.8399,61.5806,7.7628,78.5761c21.0773-19.726,17.3353-52.3947,29.108-76.6806
			c-6.6591,4.4236-13.8573-0.1928-20.5635,4.119c1.4333-5.425,21.823-5.199,26.9004-16.0546
			c-7.0101,7.1167-16.6477,3.9399-24.244,10.1447c1.7879-3.3133,20.4766-10.5911,27.8523-16.7697
			C425.4985,181.5735,439.1531,148.9819,407.4792,122.6255z"/>
		
			<linearGradient id="XMLID_96_" gradientUnits="userSpaceOnUse" x1="382.0022" y1="184.8288" x2="420.5132" y2="133.7229" gradientTransform="matrix(0.9999 -0.0157 0.0157 0.9999 -0.5319 6.1352)">
			<stop  offset="0.2303" style="stop-color:#99B800"/>
			<stop  offset="1" style="stop-color:#7C8600"/>
		</linearGradient>
		<path id="XMLID_1307_" fill="url(#XMLID_96_)" d="M407.4792,122.6255c-9.0296,4.9441-17.1507,16.5644-23.7952,30.7097
			c-4.5275,9.7507-8.4832,16.4184,3.1196,33.4139c21.0773-19.726,45.2054-8.8566,38.9083-36.3289
			C423.5116,140.8154,417.9926,131.376,407.4792,122.6255z"/>
		
			<linearGradient id="XMLID_97_" gradientUnits="userSpaceOnUse" x1="337.7437" y1="306.1533" x2="450.5966" y2="156.3923" gradientTransform="matrix(0.9999 -0.0157 0.0157 0.9999 -0.5319 6.1352)">
			<stop  offset="0.2424" style="stop-color:#FFF52C"/>
			<stop  offset="0.44" style="stop-color:#FCF32A"/>
			<stop  offset="0.6133" style="stop-color:#F1EB23"/>
			<stop  offset="0.7774" style="stop-color:#DFDF18"/>
			<stop  offset="0.935" style="stop-color:#C6CE08"/>
			<stop  offset="1" style="stop-color:#B9C500"/>
		</linearGradient>
		<path id="XMLID_1306_" fill="url(#XMLID_97_)" d="M407.4792,122.6255c-16.7308,45.0176-49.7004,123.8954-29.0754,209.6944
			c0.8794,3.6686,4.929,3.0844,9.9921,5.5063C379.3448,295.8751,362.0747,252.4639,407.4792,122.6255z"/>
		
			<linearGradient id="XMLID_98_" gradientUnits="userSpaceOnUse" x1="376.767" y1="180.195" x2="414.947" y2="129.5284" gradientTransform="matrix(0.9999 -0.0157 0.0157 0.9999 -0.5319 6.1352)">
			<stop  offset="0.6667" style="stop-color:#BDD400"/>
			<stop  offset="1" style="stop-color:#7C8600"/>
		</linearGradient>
		<path id="XMLID_1305_" fill="url(#XMLID_98_)" d="M407.4792,122.6255c-6.489,15.6386-14.6428,36.7533-21.9893,62.1936
			c0.5138,1.2095,2.3957,1.5388,3.5936,0.54C393.6183,166.9625,399.8105,146.1647,407.4792,122.6255z"/>
	</g>
	<g id="XMLID_1299_">
		
			<linearGradient id="XMLID_99_" gradientUnits="userSpaceOnUse" x1="257.3354" y1="259.2679" x2="392.4703" y2="79.9379" gradientTransform="matrix(0.9999 -0.0157 0.0157 0.9999 -0.5319 6.1352)">
			<stop  offset="0" style="stop-color:#FFE802"/>
			<stop  offset="0.3333" style="stop-color:#FFE802"/>
			<stop  offset="0.4634" style="stop-color:#FBE602"/>
			<stop  offset="0.5962" style="stop-color:#EFE002"/>
			<stop  offset="0.7303" style="stop-color:#DAD701"/>
			<stop  offset="0.8651" style="stop-color:#BEC901"/>
			<stop  offset="1" style="stop-color:#99B800"/>
		</linearGradient>
		<path id="XMLID_1303_" fill="url(#XMLID_99_)" d="M309.1605,18.653c-10.4301,39.8487-14.6137,85.0744,3.8399,136.2608
			c5.595,23.2983,13.1263,41.1231,21.6165,55.8209c8.483,14.6963,37.0844,61.8671,24.4141,92.3949
			c-6.0584,3.9661-38.7854,4.3588-44.0439-2.5872c-4.6576-6.1509-23.7047-49.3598-22.9012-86.2729
			c8.4324,5.155,16.0685,3.3118,25.7603,8.161c-2.8228-6.6842-19.8361-12.9055-24.3706-22.1079
			c5.5081-30.4425,5.3163-39.7882-0.0869-53.742C287.9818,132.6242,274.3743,68.1395,309.1605,18.653z"/>
		
			<linearGradient id="XMLID_100_" gradientUnits="userSpaceOnUse" x1="270.7293" y1="144.5314" x2="345.8673" y2="44.82" gradientTransform="matrix(0.9999 -0.0157 0.0157 0.9999 -0.5319 6.1352)">
			<stop  offset="0" style="stop-color:#99B800"/>
			<stop  offset="1" style="stop-color:#6E6E00"/>
		</linearGradient>
		<path id="XMLID_1302_" fill="url(#XMLID_100_)" d="M309.1605,18.653c-10.4301,39.8487-11.8089,84.5619,3.8399,136.2608
			c0.6296,5.8398-3.3405,11.729-3.7168,18.3554c-6.2645-6.1566-10.4916-12.7347-15.8948-26.6885
			C287.9818,132.6242,274.3743,68.1395,309.1605,18.653z"/>
		
			<linearGradient id="XMLID_101_" gradientUnits="userSpaceOnUse" x1="267.9456" y1="262.8855" x2="395.4919" y2="93.6259" gradientTransform="matrix(0.9999 -0.0157 0.0157 0.9999 -0.5319 6.1352)">
			<stop  offset="0.3636" style="stop-color:#FFF52C"/>
			<stop  offset="0.5296" style="stop-color:#FCF32A"/>
			<stop  offset="0.6751" style="stop-color:#F1EB23"/>
			<stop  offset="0.813" style="stop-color:#DFDF18"/>
			<stop  offset="0.9454" style="stop-color:#C6CE08"/>
			<stop  offset="1" style="stop-color:#B9C500"/>
		</linearGradient>
		<path id="XMLID_1301_" fill="url(#XMLID_101_)" d="M304.5934,26.6018c-10.2565,48.4135-17.0313,84.2051,8.9535,154.787
			c17.1687,46.6404,36.6573,107.681,51.6149,144.904c2.0846,5.184-5.4214,4.9306-7.1983,0.6503
			c-15.2978-36.829-41.2897-111.8965-52.9068-160.2507C288.2642,96.7925,294.3224,74.2382,304.5934,26.6018z"/>
		
			<linearGradient id="XMLID_102_" gradientUnits="userSpaceOnUse" x1="270.8587" y1="144.5917" x2="340.7717" y2="51.814" gradientTransform="matrix(0.9999 -0.0157 0.0157 0.9999 -0.5319 6.1352)">
			<stop  offset="0.3273" style="stop-color:#ABCA00"/>
			<stop  offset="1" style="stop-color:#7C8600"/>
		</linearGradient>
		<path id="XMLID_1300_" fill="url(#XMLID_102_)" d="M304.9697,26.3057c-9.6846,48.2934-16.8937,76.8569,4.8279,143.8666
			c0.4632,1.9989-3.2427,4.4676-4.741-3.4798C286.4835,97.2112,292.7915,68.218,304.9697,26.3057z"/>
	</g>
	<g id="XMLID_1181_">
		
			<linearGradient id="XMLID_103_" gradientUnits="userSpaceOnUse" x1="103.648" y1="282.67" x2="386.3575" y2="347.9387" gradientTransform="matrix(0.9999 -0.0157 0.0157 0.9999 -0.5319 6.1352)">
			<stop  offset="0.0364" style="stop-color:#9CBD8C"/>
			<stop  offset="0.2061" style="stop-color:#E8F5D6"/>
			<stop  offset="0.5879" style="stop-color:#FFFFE8"/>
			<stop  offset="0.7263" style="stop-color:#FCFDE6"/>
			<stop  offset="0.8126" style="stop-color:#F4F8DE"/>
			<stop  offset="0.8847" style="stop-color:#E5EFD1"/>
			<stop  offset="0.9485" style="stop-color:#D1E2BE"/>
			<stop  offset="1" style="stop-color:#BAD3A9"/>
		</linearGradient>
		<path id="XMLID_1298_" fill="url(#XMLID_103_)" d="M104.9666,299.1705c51.8717-18.9614,246.3451-23.2018,285.4814,1.8377
			c1.9578,4.7018,2.6744,22.0391,3.7747,32.8092c0.2605,2.5403-7.3286,4.1728-11.8741,3.4648
			c-34.7575-5.4126-86.2384,1.6807-137.8134,1.8391c-53.3485,0.1625-106.534-5.9237-132.5296-1.7607
			c-4.0279,0.6448-9.4095-0.2672-9.1091-3.3669C104.0147,322.4301,104.9666,299.1705,104.9666,299.1705z"/>
		
			<linearGradient id="XMLID_104_" gradientUnits="userSpaceOnUse" x1="111.8368" y1="282.8408" x2="379.0358" y2="344.5286" gradientTransform="matrix(0.9999 -0.0157 0.0157 0.9999 -0.5319 6.1352)">
			<stop  offset="0" style="stop-color:#C2D9A8"/>
			<stop  offset="0.0017" style="stop-color:#C2D9A8"/>
			<stop  offset="0.2363" style="stop-color:#DFEBC0"/>
			<stop  offset="0.4397" style="stop-color:#F1F6CF"/>
			<stop  offset="0.5879" style="stop-color:#F7FAD4"/>
			<stop  offset="0.7224" style="stop-color:#F3F8D1"/>
			<stop  offset="0.8506" style="stop-color:#E8F2C9"/>
			<stop  offset="0.9394" style="stop-color:#DBEBBF"/>
		</linearGradient>
		<path id="XMLID_1297_" fill="url(#XMLID_104_)" d="M114.4774,301.3911c33.4979-14.9554,231.7638-21.5376,267.5925,2.6367
			c5.2657,7.3372,4.2994,16.5204,5.4067,22.4993c0.4089,2.2289-1.2268,6.3865-9.1199,5.0502
			c-33.773-5.717-76.8216,1.9769-133.0109,1.8902c-52.574-0.0827-101.0765-4.7115-129.2001-2.8034
			c-3.4381,0.2328-6.8908-3.0211-6.1633-8.1761C109.9247,303.7827,114.4774,301.3911,114.4774,301.3911z"/>
		<linearGradient id="XMLID_105_" gradientUnits="userSpaceOnUse" x1="156.9685" y1="310.3547" x2="329.4959" y2="310.3547">
			<stop  offset="0.0364" style="stop-color:#9CBD8C"/>
			<stop  offset="0.4848" style="stop-color:#CBDFB9"/>
			<stop  offset="1" style="stop-color:#BAD3A9"/>
		</linearGradient>
		<path id="XMLID_1244_" fill="url(#XMLID_105_)" d="M244.4809,292.4311c0.4632,8.1114,1.3897,17.6334-19.456,16.9281
			C234.2897,306.8905,242.1647,299.8372,244.4809,292.4311z M246.9635,292.7838c-0.4632,8.1114-1.3897,17.6334,19.456,16.9281
			C257.1548,307.2432,249.2798,300.1898,246.9635,292.7838z M266.4196,310.8071c-20.8458-0.7054-19.9193,8.8167-19.456,16.9281
			C249.2798,320.3292,257.1548,313.2758,266.4196,310.8071z M244.4809,327.3825c0.4632-8.1114,1.3897-17.6334-19.456-16.9281
			C234.2897,312.9231,242.1647,319.9765,244.4809,327.3825z M275.9812,309.0065c0,5.9954,13.8971,13.4014,18.9928,12.3434
			c5.5588-0.3527-9.728-10.2274-9.728-12.696c0-2.4687,15.2869-16.2227,9.2648-15.5174
			C293.121,293.8418,275.9812,299.7298,275.9812,309.0065z M296.9861,309.3675c0,4.8024,11.1322,10.7344,15.2109,9.8857
			c4.4514-0.281-7.7918-8.1899-7.7918-10.1667c0-1.9783,12.2432-12.9937,7.4227-12.4289
			C310.7131,297.2225,296.9861,301.9381,296.9861,309.3675z M211.258,308.377c0-5.9954-13.8971-13.4014-18.9928-12.3434
			c-5.5589,0.3527,9.728,10.2274,9.728,12.6961s-15.2869,16.2227-9.2648,15.5174
			C194.1182,323.5417,211.258,317.6552,211.258,308.377z M190.253,308.0147c0-4.8009-11.1285-10.733-15.2107-9.8857
			c-4.4515,0.2838,7.7917,8.1912,7.7917,10.1696c0,1.9755-12.2432,12.9922-7.419,12.4275
			C176.5259,320.1597,190.253,315.4456,190.253,308.0147z M259.594,293.8391c-3.2101,1.2068-4.5273,4.1687-2.9423,6.6125
			c1.5887,2.4467,5.4756,3.4481,8.6894,2.24c3.2101-1.2068,10.9693-6.9845,9.3806-9.4284
			C273.1365,290.818,262.8078,292.6309,259.594,293.8391z M266.4014,317.4017c-2.783-1.7165-6.8652-1.3887-9.1199,0.7302
			c-2.2511,2.1215-1.8205,5.2294,0.9626,6.9459c2.7831,1.7138,12.9201,4.6618,15.1747,2.543
			C275.6699,325.4993,269.188,319.1156,266.4014,317.4017z M231.702,326.5601c3.1232-1.339,4.227-4.3491,2.4681-6.7255
			c-1.7588-2.375-5.7145-3.2154-8.8341-1.8776c-3.1197,1.339-10.4553,7.4266-8.6965,9.8016
			C218.3984,330.1364,228.5825,327.8991,231.702,326.5601z M223.8668,302.6076c2.953,1.5443,6.9882,0.9753,9.0187-1.2716
			c2.0303-2.2468,1.2811-5.3202-1.6684-6.866c-2.9532-1.5443-13.3616-3.882-15.3882-1.6351
			C213.7986,295.0816,220.9173,301.0633,223.8668,302.6076z M167.9959,313.324c2.8519,0.0179,5.1788-1.7289,5.2042-3.9001
			c0.0217-2.171-2.2726-3.9441-5.1245-3.9606s-11.0851,1.9755-11.107,4.1467C156.9469,311.781,165.1442,313.3075,167.9959,313.324z
			 M318.4651,305.0748c-2.8519-0.0165-5.1788,1.7303-5.2005,3.9015c-0.0219,2.171,2.2691,3.9441,5.1208,3.9619
			c2.8519,0.0166,11.0853-1.9754,11.1105-4.1465C329.5141,306.6193,321.317,305.0913,318.4651,305.0748z"/>
		<linearGradient id="XMLID_106_" gradientUnits="userSpaceOnUse" x1="114.2682" y1="309.9214" x2="371.9075" y2="309.9214">
			<stop  offset="0.0364" style="stop-color:#9CBD8C"/>
			<stop  offset="0.1606" style="stop-color:#B3CEA2"/>
			<stop  offset="0.3931" style="stop-color:#D9EAC8"/>
			<stop  offset="0.5152" style="stop-color:#E8F5D6"/>
			<stop  offset="1" style="stop-color:#BAD3A9"/>
		</linearGradient>
		<path id="XMLID_1211_" fill="url(#XMLID_106_)" d="M127.3323,298.5684c0.3113,0.6984-0.1808,1.4617-1.1038,1.7014l-7.3142,1.9232
			c-0.9228,0.2411-1.9252-0.1268-2.2437-0.8238l0,0c-0.3148-0.6971,0.1773-1.4603,1.1003-1.7028l7.314-1.9218
			C126.0078,297.5035,127.0138,297.87,127.3323,298.5684L127.3323,298.5684z M143.7518,295.6603
			c-0.2207-0.7411-1.1472-1.2109-2.0809-1.0525l-7.3829,1.2537c-0.9265,0.1598-1.509,0.8872-1.292,1.6283l0,0
			c0.2208,0.7412,1.1508,1.2122,2.081,1.0538l7.3829-1.2549C143.39,297.1316,143.969,296.4015,143.7518,295.6603L143.7518,295.6603z
			 M160.6022,293.3928c-0.1412-0.6862-1.0169-1.149-1.9615-1.0388l-7.477,0.8721c-0.9444,0.1116-1.5959,0.755-1.4585,1.4396l0,0
			c0.1375,0.6848,1.0171,1.149,1.958,1.0387l7.4806-0.8734C160.0847,294.7208,160.7397,294.0761,160.6022,293.3928
			L160.6022,293.3928z M178.0568,291.763c-0.0869-0.6874-0.93-1.1861-1.8819-1.1158l-7.5493,0.5469
			c-0.9556,0.0717-1.6576,0.6833-1.5707,1.3679l0,0c0.0869,0.6874,0.9302,1.1861,1.8819,1.1173l7.5495-0.5483
			C177.4417,293.0621,178.1438,292.4478,178.0568,291.763L178.0568,291.763z M195.7757,290.5163
			c-0.076-0.7163-0.9083-1.2439-1.8601-1.1847l-7.5277,0.4724c-0.9519,0.0607-1.6611,0.6874-1.5815,1.4011l0,0
			c0.0797,0.7137,0.912,1.2439,1.8601,1.1847l7.5311-0.4738C195.1496,291.8567,195.8517,291.2285,195.7757,290.5163
			L195.7757,290.5163z M213.8385,289.7173c-0.0436-0.7163-0.8505-1.2673-1.8061-1.2343l-7.5456,0.27
			c-0.9519,0.0358-1.69,0.6434-1.643,1.3583l0,0c0.0471,0.7149,0.854,1.2673,1.8059,1.2343l7.5493-0.27
			C213.1508,291.0412,213.8853,290.4322,213.8385,289.7173L213.8385,289.7173z M233.9857,289.0284
			c-0.0434-0.7164-0.8505-1.2674-1.8059-1.2343l-7.5458,0.27c-0.9517,0.0358-1.69,0.6434-1.643,1.3583l0,0
			c0.0471,0.7137,0.854,1.2675,1.8059,1.2329l7.5493-0.27C233.298,290.3509,234.0327,289.7421,233.9857,289.0284L233.9857,289.0284z
			 M254.5961,288.9266c-0.0145-0.7165-0.7925-1.2895-1.7479-1.2812l-7.5531,0.066c-0.9554,0.0083-1.7227,0.598-1.7082,1.3115l0,0
			c0.0146,0.7163,0.7962,1.2909,1.7481,1.2826l7.5565-0.0676C253.8434,290.2298,254.607,289.6429,254.5961,288.9266
			L254.5961,288.9266z M276.3575,289.2626c0.0217-0.7163-0.731-1.3101-1.6866-1.328l-7.5528-0.1391
			c-0.9519-0.0179-1.7481,0.551-1.7662,1.2661l0,0c-0.0217,0.7163,0.7347,1.3115,1.6866,1.328l7.5565,0.1377
			C275.5468,290.5452,276.3358,289.9791,276.3575,289.2626L276.3575,289.2626z M297.1888,290.2188
			c0.0543-0.7163-0.6696-1.3294-1.6213-1.3736l-7.5421-0.3429c-0.9519-0.0428-1.7735,0.5027-1.8241,1.215l0,0
			c-0.0543,0.7163,0.6695,1.3321,1.6249,1.3748l7.5422,0.3431C296.3201,291.4779,297.1345,290.9323,297.1888,290.2188
			L297.1888,290.2188z M318.8125,291.6873c0.1049-0.7137-0.5753-1.3555-1.5237-1.4382l-7.5058-0.6503
			c-0.9483-0.0827-1.8061,0.4298-1.9072,1.1393l0,0c-0.1051,0.7122,0.5753,1.3571,1.5235,1.4369l7.5096,0.653
			C317.8534,292.9078,318.7076,292.3981,318.8125,291.6873L318.8125,291.6873z M339.2675,293.8597
			c0.1555-0.7094-0.4779-1.3763-1.4223-1.4974l-7.4479-0.9519c-0.9411-0.1199-1.835,0.3568-1.9834,1.0621l0,0
			c-0.1555,0.7068,0.4779,1.3777,1.4188,1.4962l7.4552,0.9533C338.2252,295.0403,339.1153,294.565,339.2675,293.8597
			L339.2675,293.8597z M357.207,296.8093c0.2172-0.6999-0.3584-1.3997-1.2884-1.5692l-7.3468-1.3348
			c-0.9265-0.1682-1.8602,0.2617-2.0699,0.9587l0,0c-0.2209,0.6972,0.3547,1.397,1.2812,1.565l7.3503,1.3363
			C356.0598,297.9333,356.9898,297.5035,357.207,296.8093L357.207,296.8093z M371.8172,300.1967
			c0.2787-0.6874-0.1086-1.3845-0.8687-1.5636l-6.0039-1.4203c-0.7564-0.1805-1.5996,0.2313-1.8711,0.9133l0,0
			c-0.2822,0.6861,0.105,1.386,0.8614,1.565l6.0075,1.419C370.6989,301.2892,371.5385,300.8787,371.8172,300.1967L371.8172,300.1967
			z M125.512,327.541c-0.0832-0.7357-0.941-1.2812-1.9145-1.2191l-7.7087,0.4944c-0.9698,0.0621-1.6973,0.7096-1.6141,1.4453l0,0
			c0.0834,0.7343,0.9374,1.2798,1.9109,1.2177l7.7085-0.4946C124.8677,328.9241,125.588,328.2752,125.512,327.541L125.512,327.541z
			 M142.46,327.6043c0.018-0.7603-0.7312-1.3872-1.6866-1.4052l-7.5602-0.1418c-0.9517-0.0179-1.7444,0.5826-1.7696,1.3417l0,0
			c-0.0254,0.7591,0.7273,1.3872,1.6828,1.4052l7.5601,0.1419C141.6421,328.9641,142.4346,328.3634,142.46,327.6043L142.46,327.6043
			z M159.4404,328.537c0.0834-0.6902-0.6115-1.3046-1.5633-1.3748l-7.5276-0.5663c-0.9519-0.0688-1.7914,0.4312-1.8783,1.1199l0,0
			c-0.0941,0.6902,0.608,1.3046,1.5563,1.3763l7.5311,0.5648C158.5067,329.7272,159.35,329.2257,159.4404,328.537L159.4404,328.537z
			 M176.649,329.0785c0.0724-0.6888-0.6406-1.2923-1.5959-1.3528l-7.5565-0.4809c-0.9554-0.0591-1.7879,0.4478-1.8639,1.1339l0,0
			c-0.076,0.686,0.637,1.2922,1.5924,1.3527l7.5565,0.4809C175.7371,330.2715,176.573,329.7645,176.649,329.0785L176.649,329.0785z
			 M247.9154,330.4973c-0.0254-0.7192-0.8144-1.2812-1.7698-1.2647l-7.5493,0.1419c-0.9554,0.0193-1.7117,0.6131-1.6866,1.3294l0,0
			c0.0254,0.7163,0.8179,1.2826,1.7698,1.2646l7.553-0.1433C247.1879,331.8074,247.9371,331.211,247.9154,330.4973
			L247.9154,330.4973z M193.7888,329.7838c0.0724-0.6888-0.6406-1.2923-1.5959-1.3528l-7.5565-0.4809
			c-0.9554-0.0591-1.7879,0.4478-1.8639,1.1339l0,0c-0.076,0.686,0.637,1.2922,1.5924,1.3527l7.5565,0.4809
			C192.8769,330.9768,193.7128,330.4698,193.7888,329.7838L193.7888,329.7838z M212.731,330.2796
			c0.0254-0.6888-0.731-1.2618-1.6901-1.2826l-7.5819-0.1556c-0.9554-0.0193-1.7516,0.5235-1.777,1.2123l0,0
			c-0.0254,0.6887,0.731,1.2619,1.6901,1.2825l7.5819,0.1571C211.9094,331.5113,212.7093,330.9685,212.731,330.2796
			L212.731,330.2796z M309.5044,327.8551c-0.0435-0.7177-0.8505-1.2687-1.8059-1.2357l-7.5458,0.2714
			c-0.9519,0.0344-1.6901,0.6418-1.643,1.3555l0,0c0.0471,0.7163,0.854,1.2702,1.8059,1.2343l7.5493-0.27
			C308.8168,329.1776,309.5515,328.5686,309.5044,327.8551L309.5044,327.8551z M330.3681,326.6359
			c-0.0471-0.7177-0.8505-1.2688-1.8059-1.2357l-7.5456,0.2714c-0.9518,0.0344-1.6938,0.6434-1.6432,1.3569l0,0
			c0.0435,0.7163,0.8505,1.2688,1.8059,1.2343l7.5458-0.27C329.6769,327.9598,330.4117,327.3508,330.3681,326.6359
			L330.3681,326.6359z M229.2013,330.7756c-0.0182-0.7177-0.8-1.2867-1.7553-1.2743l-7.553,0.1032
			c-0.9554,0.0138-1.7153,0.6062-1.6936,1.3197l0,0c0.0145,0.7165,0.8034,1.2868,1.7551,1.273l7.5567-0.102
			C228.4629,332.0816,229.2193,331.4891,229.2013,330.7756L229.2013,330.7756z M267.5886,329.7245
			c-0.0109-0.7178-0.789-1.2895-1.7444-1.2826l-7.5567,0.0662c-0.9517,0.0096-1.719,0.5978-1.7045,1.3128l0,0
			c0.0109,0.7163,0.7925,1.2909,1.7481,1.2826l7.5528-0.0676C266.8357,331.0277,267.5993,330.4395,267.5886,329.7245
			L267.5886,329.7245z M287.9746,328.6265c-0.0615-0.7149-0.8794-1.2549-1.8313-1.2081l-7.5384,0.3761
			c-0.9519,0.0468-1.6794,0.6668-1.6106,1.3803l0,0c0.0615,0.7137,0.8831,1.2563,1.835,1.2068l7.5384-0.3747
			C287.3195,329.9601,288.0398,329.3401,287.9746,328.6265L287.9746,328.6265z M350.2403,326.8301
			c0.0543-0.7163-0.673-1.3294-1.6286-1.3722l-7.5384-0.3319c-0.9556-0.0413-1.7735,0.5056-1.8205,1.2193l0,0
			c-0.0541,0.7163,0.6697,1.3293,1.6213,1.3706l7.5458,0.3321C349.3718,328.0907,350.1897,327.5438,350.2403,326.8301
			L350.2403,326.8301z M367.2354,327.3508c0.0688-0.7176-0.5175-1.3307-1.31-1.3748l-6.2719-0.3472
			c-0.789-0.044-1.4911,0.5015-1.5526,1.2123l0,0c-0.0688,0.7163,0.5175,1.3308,1.3065,1.3748l6.2719,0.3472
			C366.4718,328.6073,367.1666,328.063,367.2354,327.3508L367.2354,327.3508z"/>
		<linearGradient id="XMLID_107_" gradientUnits="userSpaceOnUse" x1="114.9942" y1="309.309" x2="372.0839" y2="309.309">
			<stop  offset="0" style="stop-color:#D8E7BA"/>
			<stop  offset="0.0241" style="stop-color:#DFEBC2"/>
			<stop  offset="0.0898" style="stop-color:#EDF4D3"/>
			<stop  offset="0.1711" style="stop-color:#F8FADF"/>
			<stop  offset="0.2844" style="stop-color:#FDFEE6"/>
			<stop  offset="0.5879" style="stop-color:#FFFFE8"/>
			<stop  offset="0.7949" style="stop-color:#FDFEE6"/>
			<stop  offset="0.891" style="stop-color:#F8FBDE"/>
			<stop  offset="0.964" style="stop-color:#EEF6D2"/>
			<stop  offset="1" style="stop-color:#E7F2C8"/>
		</linearGradient>
		<path id="XMLID_1182_" fill="url(#XMLID_107_)" d="M126.9233,298.129c0.257,0.5813-0.2099,1.2343-1.0532,1.4547l-6.6771,1.7538
			c-0.8396,0.2205-1.7371-0.0703-2.0012-0.6516c-0.2642-0.5814,0.2062-1.2329,1.0458-1.4534l6.6771-1.7536
			C125.758,297.2583,126.6556,297.5476,126.9233,298.129z M141.6854,294.2358l-6.8906,1.1738
			c-0.8686,0.146-1.4223,0.7838-1.2378,1.4217c0.1881,0.6378,1.0458,1.0332,1.918,0.8857l6.8908-1.1723
			c0.8722-0.1474,1.4259-0.7853,1.2378-1.4218C143.4116,294.4838,142.5613,294.0884,141.6854,294.2358z M158.6479,291.9518
			l-6.9812,0.8155c-0.8794,0.1034-1.4946,0.6833-1.3715,1.295c0.123,0.6143,0.9372,1.0277,1.8203,0.9257l6.9812-0.8169
			c0.8829-0.1033,1.4946-0.6846,1.3715-1.2963C160.3452,292.2617,159.531,291.8485,158.6479,291.9518z M176.1533,290.2214
			l-7.032,0.5098c-0.8866,0.0647-1.5417,0.6143-1.4657,1.2274c0.076,0.6129,0.8578,1.0594,1.7444,0.9933l7.032-0.5098
			c0.8867-0.0633,1.5452-0.6143,1.4657-1.2274C177.8217,290.6003,177.0399,290.1554,176.1533,290.2214z M193.9265,288.8962
			l-7.0354,0.4423c-0.8904,0.0564-1.5563,0.6019-1.4874,1.2191c0.0688,0.6158,0.8396,1.0718,1.7297,1.0167l7.0392-0.4435
			c0.8866-0.0552,1.5526-0.6021,1.4838-1.2178C195.5911,289.2957,194.8166,288.8411,193.9265,288.8962z M212.065,288.049
			l-7.0499,0.2521c-0.8902,0.033-1.585,0.5607-1.5452,1.1792c0.0397,0.6172,0.7888,1.0938,1.6829,1.0609l7.0535-0.2507
			c0.8903-0.0331,1.5815-0.5621,1.5417-1.1779C213.708,288.4939,212.9589,288.0187,212.065,288.049z M232.2124,287.3602
			l-7.0537,0.2521c-0.8902,0.0332-1.5815,0.5608-1.5417,1.1779c0.0398,0.6186,0.789,1.0951,1.6828,1.0621l7.0535-0.2521
			c0.8904-0.0318,1.5817-0.5608,1.5418-1.1779C233.8554,287.8038,233.1062,287.3284,232.2124,287.3602z M252.8987,287.2113
			l-7.0607,0.0621c-0.8903,0.0096-1.6069,0.518-1.5959,1.1352c0.0108,0.6199,0.7382,1.1158,1.6321,1.1075l7.0644-0.0619
			c0.8904-0.0069,1.6034-0.5166,1.5924-1.1338C254.5238,287.7004,253.7928,287.2046,252.8987,287.2113z M274.7434,287.5021
			l-7.0571-0.1295c-0.8904-0.0138-1.6323,0.4738-1.6502,1.0924c-0.0182,0.6186,0.6839,1.1338,1.5778,1.1503l7.0609,0.1295
			c0.8939,0.0166,1.6285-0.4738,1.6467-1.091C276.343,288.0338,275.6373,287.52,274.7434,287.5021z M295.6578,288.4155
			l-7.0462-0.3197c-0.8904-0.0399-1.654,0.4284-1.6973,1.0456c-0.0471,0.6186,0.6296,1.1517,1.5235,1.193l7.05,0.3196
			c0.8903,0.0414,1.6502-0.4284,1.6973-1.0443C297.2321,288.9899,296.5517,288.4581,295.6578,288.4155z M317.4119,289.8248
			l-7.0136-0.609c-0.8867-0.0757-1.6829,0.361-1.7698,0.9753c-0.0904,0.6145,0.5501,1.1765,1.4368,1.2537l7.0173,0.609
			c0.8866,0.077,1.6756-0.3624,1.7661-0.9753C318.9428,290.4612,318.3022,289.9019,317.4119,289.8248z M337.9971,291.9422
			l-6.9593-0.8886c-0.8796-0.1116-1.7047,0.292-1.8385,0.9023c-0.1302,0.6102,0.4705,1.1972,1.3499,1.3101l6.963,0.89
			c0.8831,0.1116,1.701-0.2948,1.8348-0.9037C339.4844,292.6406,338.8802,292.0564,337.9971,291.9422z M356.1104,294.8295
			l-6.8689-1.2467c-0.865-0.157-1.7264,0.204-1.9109,0.8059c-0.1881,0.6021,0.3584,1.2192,1.2268,1.3763l6.8726,1.2482
			c0.8687,0.157,1.7191-0.2067,1.9072-0.8073C357.5291,295.6024,356.9791,294.9879,356.1104,294.8295z M371.1656,298.2296
			l-5.6094-1.3266c-0.7095-0.1653-1.4839,0.1763-1.7227,0.7687c-0.2389,0.5909,0.1375,1.2067,0.8468,1.3748l5.6132,1.3266
			c0.7093,0.1682,1.4766-0.179,1.7155-0.7673C372.255,299.0135,371.875,298.399,371.1656,298.2296z M123.5215,326.0311
			l-7.0392,0.4518c-0.8829,0.0578-1.5488,0.6007-1.4837,1.2137c0.0687,0.6129,0.8431,1.0621,1.7299,1.007l7.039-0.4518
			c0.8866-0.0579,1.5526-0.6007,1.4911-1.2123C125.1862,326.4251,124.4117,325.976,123.5215,326.0311z M140.9074,325.8409
			l-7.0608-0.1308c-0.8867-0.0166-1.6286,0.4999-1.6503,1.153c-0.0217,0.653,0.6876,1.1958,1.578,1.2123l7.0606,0.1309
			c0.8904,0.0179,1.6323-0.4987,1.6502-1.1531C142.5033,326.4003,141.8013,325.8589,140.9074,325.8409z M158.0146,326.775
			l-7.0282-0.529c-0.8867-0.0647-1.6684,0.3803-1.7479,0.9975c-0.0832,0.6172,0.5718,1.1709,1.4585,1.2384l7.0318,0.5262
			c0.8866,0.0662,1.672-0.3802,1.7516-0.9973C159.5563,327.3935,158.9049,326.8397,158.0146,326.775z M175.1327,327.3027
			l-7.039-0.4478c-0.8868-0.0552-1.6611,0.3967-1.7299,1.0112c-0.0652,0.6143,0.6007,1.1572,1.4874,1.2123l7.039,0.449
			c0.8866,0.0551,1.6612-0.3967,1.73-1.0112C176.6853,327.9019,176.023,327.3591,175.1327,327.3027z M192.2725,328.008
			l-7.039-0.4478c-0.8868-0.0551-1.6611,0.3967-1.7299,1.0112c-0.0652,0.6143,0.6007,1.1572,1.4874,1.2123l7.039,0.449
			c0.8866,0.0552,1.6612-0.3967,1.73-1.0112C193.8251,328.6073,193.1629,328.0645,192.2725,328.008z M211.088,328.5741
			l-7.0608-0.146c-0.8902-0.0179-1.6321,0.4657-1.6503,1.0828c-0.0217,0.6158,0.6804,1.1297,1.5707,1.1476l7.0644,0.1446
			c0.8866,0.0193,1.6286-0.4669,1.6502-1.0828C212.6839,329.1046,211.9819,328.5906,211.088,328.5741z M246.1927,328.7987
			l-7.0609,0.1336c-0.8902,0.0166-1.5995,0.5318-1.5778,1.1517c0.0217,0.6172,0.7599,1.1077,1.6539,1.0912l7.0572-0.135
			c0.8938-0.0165,1.5959-0.5332,1.5777-1.1504C247.8212,329.2685,247.083,328.7822,246.1927,328.7987z M307.731,326.1854
			l-7.0499,0.2535c-0.8902,0.033-1.585,0.5592-1.5452,1.1764c0.0397,0.62,0.7888,1.0952,1.6829,1.0635l7.0534-0.2534
			c0.8904-0.0303,1.5815-0.5593,1.5417-1.1765C309.374,326.629,308.625,326.1551,307.731,326.1854z M328.5948,324.9676
			l-7.0534,0.2521c-0.8904,0.033-1.5852,0.5607-1.5418,1.1779c0.0398,0.6184,0.789,1.0938,1.6793,1.0621l7.0572-0.2521
			c0.8901-0.0317,1.5778-0.5607,1.5379-1.1765C330.2378,325.4111,329.4887,324.9373,328.5948,324.9676z M227.4931,329.0673
			l-7.0609,0.0965c-0.8902,0.0138-1.6032,0.5262-1.585,1.1433c0.0145,0.62,0.7454,1.1118,1.6393,1.0994l7.0644-0.0964
			c0.8903-0.011,1.5997-0.5249,1.5817-1.1435C229.118,329.5468,228.3869,329.0563,227.4931,329.0673z M265.8948,328.0093
			l-7.0607,0.0621c-0.8904,0.0096-1.6069,0.5166-1.5961,1.1352c0.0109,0.6184,0.7384,1.1144,1.6323,1.1075l7.0607-0.0619
			c0.894-0.0083,1.6069-0.518,1.5961-1.1352C267.5161,328.497,266.7887,328.0025,265.8948,328.0093z M286.1615,326.9844
			l-7.0427,0.3499c-0.8902,0.0468-1.5706,0.5828-1.5163,1.1999c0.0578,0.6172,0.8142,1.0828,1.708,1.0401l7.0464-0.3527
			c0.8939-0.044,1.567-0.5813,1.5127-1.1985C287.8189,327.4033,287.0553,326.9403,286.1615,326.9844z M348.7058,325.0283
			l-7.0499-0.3101c-0.8902-0.0371-1.6502,0.4312-1.6973,1.0484c-0.0434,0.6198,0.637,1.1517,1.5272,1.193l7.0536,0.3085
			c0.8902,0.0401,1.6465-0.4325,1.6901-1.0469C350.2801,325.6013,349.5962,325.0696,348.7058,325.0283z M366.0157,325.5461
			l-5.8592-0.325c-0.7419-0.0387-1.3934,0.4284-1.4477,1.0442c-0.0578,0.6186,0.4923,1.1531,1.2306,1.1944l5.8629,0.3238
			c0.7419,0.0428,1.386-0.4284,1.444-1.0429C367.3078,326.1219,366.7577,325.5889,366.0157,325.5461z"/>
	</g>
	<g id="XMLID_1171_">
		<linearGradient id="XMLID_108_" gradientUnits="userSpaceOnUse" x1="403.8898" y1="355.2405" x2="381.0844" y2="353.6458">
			<stop  offset="0.1091" style="stop-color:#66E0BF"/>
			<stop  offset="1" style="stop-color:#527F64"/>
		</linearGradient>
		<path id="XMLID_1180_" fill="url(#XMLID_108_)" d="M382.3486,337.2821c-1.6756,12.2813,0.6406,26.9171,8.0524,34.6758
			c2.3162,1.058,11.8126-0.3527,12.739-5.9954c-4.1691-5.6427-10.3215-17.3083-13.1517-28.3153
			C389.0113,336.162,383.094,335.228,382.3486,337.2821z"/>
		<linearGradient id="XMLID_109_" gradientUnits="userSpaceOnUse" x1="404.3615" y1="355.2962" x2="380.63" y2="353.6367">
			<stop  offset="0.1091" style="stop-color:#82EDD6"/>
			<stop  offset="1" style="stop-color:#6EA07B"/>
		</linearGradient>
		<path id="XMLID_1177_" fill="url(#XMLID_109_)" d="M389.9883,337.6472c-0.9771-1.4851-6.8943-2.4192-7.6397-0.3651
			c-0.6949,5.0875-2.1389,9.6363-0.2932,16.1483c-1.1508,4.4207,0.4705,6.1841,1.5452,8.2781
			c0.315,5.4884,4.0209,9.544,7.032,10.4257c2.7794,0.7054,12.0442-0.3527,12.9707-5.9954
			c-0.9265-3.5267-2.2656-4.4772-4.5166-8.2877c-0.2316-1.4107-0.8107-3.8793-3.1704-5.5531
			C395.0334,347.9764,391.2441,342.521,389.9883,337.6472z M390.6326,370.3708c-2.3162-1.058-3.4743-3.3503-4.408-7.1717
			c0.0072-6.2104,7.5891-7.9709,11.1249-4.4663c-0.2824-0.6887-0.7167-4.7527-1.3897-5.2019
			c1.0423,3.3504-0.9735,2.9812-1.4875,2.7979c-3.4308-1.2246-8.5916-0.2961-9.4892,3.1685
			c-3.8469-7.6416,7.5024-11.1683,9.587-6.0546c-0.4705-1.3541-0.3982-4.0543-1.2739-4.6729
			c0.4633,2.8214-1.5635,1.2978-1.9688,1.1462c-2.9243-1.0965-6.6627,0.3775-7.8751,1.9397
			c-1.1581-4.4084-0.1123-8.0149,0.3365-11.3184c0.6261-1.722,5.5915-0.9395,6.4129,0.3073
			c1.1075,4.2994,4.1367,9.6005,4.1367,12.4218c1.6213,1.2343,2.1859,4.0186,2.9495,5.4871
			c2.0303,2.6243,3.6516,4.7403,4.2307,7.0327C400.7404,370.5225,392.576,371.258,390.6326,370.3708z"/>
		<path id="XMLID_1176_" fill="#527F64" d="M383.7889,340.5374c-0.1773,1.306-0.4451,2.6643-0.6369,4.0956
			c1.6358-0.9409,4.4912-3.8476,7.238-3.163c-0.0615-0.2079-0.134-0.4229-0.1883-0.6253
			C389.3804,339.5978,384.415,338.8153,383.7889,340.5374z"/>
		<path id="XMLID_1175_" fill="#648C6B" d="M383.152,344.633c0.1918-1.4313,0.4595-2.7896,0.6369-4.0956
			c0.6261-1.722,5.5915-0.9395,6.4129,0.3073c0.0543,0.2024,0.1267,0.4174,0.1883,0.6253c0.2931,0.0731,0.5863,0.1833,0.8759,0.3458
			c-0.4923-1.3983-0.9229-2.7923-1.2776-4.1685c-0.9771-1.4851-6.8943-2.4192-7.6397-0.3651
			c-0.2824,2.0609-0.4779,4.2127-0.5718,6.4044C381.7696,345.0835,382.2943,345.1275,383.152,344.633z"/>
		<path id="XMLID_1174_" fill="#D9EDD6" d="M388.3164,351.2717c1.8385-0.5208,4.806-0.1323,6.1379,1.3775
			c1.0241,1.1614,2.432,3.703,0.9265,3.8793c-1.4838,0.2122-0.6261-1.5787-2.2004-3.3503
			C391.8196,351.6436,389.0509,351.0746,388.3164,351.2717z"/>
		<path id="XMLID_1173_" fill="#D9EDD6" d="M393.7595,357.0576c1.8529,0.0882,4.1691,1.4107,6.2537,5.0255
			c0.7382,1.2812,2.432,3.703,0.9265,3.8794c-1.4839,0.2122-0.8107-1.8515-2.2004-4.5847
			C397.5593,359.0565,394.9175,357.2339,393.7595,357.0576z"/>
		<path id="XMLID_1172_" fill="#527F64" d="M399.5136,369.2247c0,1.0222-1.2413,1.8515-2.7794,1.8515
			c-1.5345,0-2.7794-0.8293-2.7794-1.8515s1.245-1.8515,2.7794-1.8515C398.2723,367.3732,399.5136,368.2025,399.5136,369.2247z"/>
	</g>
	<g id="XMLID_1160_">
		<linearGradient id="XMLID_110_" gradientUnits="userSpaceOnUse" x1="414.4889" y1="373.4482" x2="393.4195" y2="452.0803">
			<stop  offset="0" style="stop-color:#FFFAB0"/>
			<stop  offset="0.3581" style="stop-color:#FDFAB3"/>
			<stop  offset="0.59" style="stop-color:#F5F9BB"/>
			<stop  offset="0.7861" style="stop-color:#E9F8CA"/>
			<stop  offset="0.9612" style="stop-color:#D7F7DF"/>
			<stop  offset="0.9879" style="stop-color:#D4F7E3"/>
		</linearGradient>
		<path id="XMLID_1170_" fill="url(#XMLID_110_)" d="M396.4231,368.6075c17.2953,16.6939,30.5737,46.5522,19.456,71.9444
			c-2.7794,5.6427-4.9402,13.8712-4.9402,16.2227c-4.6324-9.1694-21.6201-36.6775-20.0747-61.5985
			C392.1018,375.6609,396.1153,371.6658,396.4231,368.6075z"/>
		<linearGradient id="XMLID_111_" gradientUnits="userSpaceOnUse" x1="400.3443" y1="422.5943" x2="412.2365" y2="401.9966">
			<stop  offset="0" style="stop-color:#57CD9F"/>
			<stop  offset="1" style="stop-color:#47AB8C"/>
		</linearGradient>
		<path id="XMLID_1169_" fill="url(#XMLID_111_)" d="M402.6006,396.5868c4.3248,5.6427,13.2784,5.4071,15.6489,9.8844
			c0.9228,3.8615,1.4983,7.7944,1.6647,11.7385c-4.6505-7.9874-9.2829-7.5162-15.7682-11.2785
			c-3.7059,6.348-8.9572,7.0534-10.1694,11.9866c-1.1184-3.8655-1.9326-5.4154-2.4937-9.4008
			C390.922,405.533,399.8212,403.8744,402.6006,396.5868z"/>
		<linearGradient id="XMLID_112_" gradientUnits="userSpaceOnUse" x1="409.355" y1="414.0918" x2="406.3926" y2="456.4567">
			<stop  offset="0" style="stop-color:#57CD9F"/>
			<stop  offset="1" style="stop-color:#338073"/>
		</linearGradient>
		<path id="XMLID_1168_" fill="url(#XMLID_112_)" d="M404.4536,413.7491c3.3983,5.4085,13.5895,11.2854,14.4908,17.1058
			c-0.666,3.2801-1.6756,6.523-3.0653,9.697c-2.7794,5.6427-4.9402,13.8712-4.9402,16.2227
			c-2.2293-4.4124-7.3177-13.0707-11.827-23.6453C394.2479,421.7309,403.2195,423.3896,404.4536,413.7491z"/>
		<linearGradient id="XMLID_113_" gradientUnits="userSpaceOnUse" x1="412.0028" y1="432.2606" x2="405.803" y2="455.3985">
			<stop  offset="0.0667" style="stop-color:#338073"/>
			<stop  offset="1" style="stop-color:#0F2B29"/>
		</linearGradient>
		<path id="XMLID_1167_" fill="url(#XMLID_113_)" d="M407.8519,431.1483c3.3948,5.4071,9.4169,6.2296,8.0272,9.4036
			c-2.7794,5.6427-4.9402,13.8712-4.9402,16.2227c-1.5272-3.0252-4.4008-8.0452-7.5095-14.3106
			C403.5271,437.9661,406.3065,436.5554,407.8519,431.1483z"/>
		<path id="XMLID_1166_" fill="#FFFFFF" d="M404.8336,407.3102c-0.2279-0.124-0.456-0.2439-0.6876-0.3789
			c-0.1736,0.2962-0.3547,0.5689-0.532,0.8418c0.3474,2.0802,0.6876,4.1646,1.0243,6.2405c0.4269,0.6393,0.9372,1.2854,1.52,1.937
			C405.7384,413.0934,405.2968,410.2004,404.8336,407.3102z"/>
		<path id="XMLID_1165_" fill="#FFFFFF" d="M403.1109,397.171c-2.0699-11.4837-4.3971-22.0033-6.6879-28.5634
			c1.5959,7.5384,3.5647,18.0797,5.5262,29.3845c0.2424-0.4463,0.4632-0.9106,0.6513-1.4052
			C402.76,396.7935,402.9373,396.9781,403.1109,397.171z"/>
		<linearGradient id="XMLID_114_" gradientUnits="userSpaceOnUse" x1="411.4945" y1="372.4101" x2="391.5577" y2="446.8152">
			<stop  offset="0" style="stop-color:#57CD9F"/>
			<stop  offset="0.9879" style="stop-color:#99C2A1"/>
		</linearGradient>
		<path id="XMLID_1164_" fill="url(#XMLID_114_)" d="M404.8336,407.3102c-0.55-3.4137-1.1255-6.8151-1.7227-10.1392
			c-0.1736-0.1928-0.351-0.3775-0.5103-0.5841c-0.1881,0.4946-0.4089,0.9588-0.6513,1.4052
			c0.5609,3.2154,1.1183,6.4914,1.6647,9.7811c0.1773-0.2728,0.3583-0.5455,0.532-0.8418
			C404.3776,407.0663,404.6057,407.1862,404.8336,407.3102z"/>
		<linearGradient id="XMLID_115_" gradientUnits="userSpaceOnUse" x1="419.3624" y1="374.6774" x2="399.5123" y2="448.7589">
			<stop  offset="0" style="stop-color:#57CD9F"/>
			<stop  offset="0.9879" style="stop-color:#99C2A1"/>
		</linearGradient>
		<path id="XMLID_1163_" fill="url(#XMLID_115_)" d="M407.8519,431.1483c0.1302,0.2067,0.2679,0.394,0.4054,0.5883
			c-0.5863-4.9111-1.2956-10.2756-2.099-15.786c-0.5828-0.6516-1.093-1.2977-1.52-1.937
			c1.0241,6.3067,1.9904,12.5252,2.8372,18.3029C407.6058,431.946,407.7326,431.5616,407.8519,431.1483z"/>
		<linearGradient id="XMLID_116_" gradientUnits="userSpaceOnUse" x1="426.3351" y1="376.3089" x2="406.418" y2="450.6406">
			<stop  offset="0" style="stop-color:#57CD9F"/>
			<stop  offset="1" style="stop-color:#338073"/>
		</linearGradient>
		<path id="XMLID_1162_" fill="url(#XMLID_116_)" d="M407.4756,432.3165c1.0856,7.4227,1.9797,14.1124,2.5369,19.2866
			c-0.0904-4.108-0.731-11.2964-1.7551-19.8665c-0.1375-0.1942-0.2752-0.3816-0.4054-0.5883
			C407.7326,431.5616,407.6058,431.946,407.4756,432.3165z"/>
		<linearGradient id="XMLID_117_" gradientUnits="userSpaceOnUse" x1="407.7594" y1="371.6451" x2="402.6211" y2="390.8216">
			<stop  offset="0" style="stop-color:#F0F9C2"/>
			<stop  offset="1" style="stop-color:#BADEB5"/>
		</linearGradient>
		<path id="XMLID_1161_" fill="url(#XMLID_117_)" d="M396.4231,368.6075c6.9267,6.6842,13.2058,15.4789,17.5343,25.2516
			C399.0504,386.5936,396.1153,371.6658,396.4231,368.6075z"/>
	</g>
	<g id="XMLID_1155_">
		<linearGradient id="XMLID_118_" gradientUnits="userSpaceOnUse" x1="395.9598" y1="380.4763" x2="447.5985" y2="380.4763">
			<stop  offset="0" style="stop-color:#FFE802"/>
			<stop  offset="0.2856" style="stop-color:#FCE702"/>
			<stop  offset="0.4705" style="stop-color:#F4E302"/>
			<stop  offset="0.627" style="stop-color:#E5DC01"/>
			<stop  offset="0.7676" style="stop-color:#D0D201"/>
			<stop  offset="0.8962" style="stop-color:#B5C501"/>
			<stop  offset="1" style="stop-color:#99B800"/>
		</linearGradient>
		<path id="XMLID_1159_" fill="url(#XMLID_118_)" d="M395.9598,368.3719c4.9435,13.637,8.3383,18.3375,17.603,22.101
			c-1.3897-3.8794-0.1521-4.9374,0.9265-7.9943c2.4716,1.8806,2.1641,6.5836,5.4431,9.8486
			c9.6157,1.9232,22.3368,1.0415,27.2947-7.2627c0.8759-1.1999,0.1593-3.3849-1.6936-5.5657
			c-0.3619-0.4256-6.5107,3.7498-6.9558,3.3324c0-4.4675,4.7517-5.4814,4.1908-5.9003c-0.97-0.7273-2.0666-1.3997-3.2643-1.9755
			c-5.8666-2.8214-17.2955,1.4107-29.0285-2.116C398.7393,369.3128,399.9768,366.4915,395.9598,368.3719z"/>
		<linearGradient id="XMLID_119_" gradientUnits="userSpaceOnUse" x1="426.955" y1="383.8444" x2="447.5988" y2="383.8444">
			<stop  offset="0.2303" style="stop-color:#99B800"/>
			<stop  offset="1" style="stop-color:#7C8600"/>
		</linearGradient>
		<path id="XMLID_1158_" fill="url(#XMLID_119_)" d="M431.553,393.0601c6.4853-0.529,12.5836-2.8214,15.6741-7.9955
			c0.8794-1.2054,0.1556-3.4055-1.719-5.5959c-0.4127-0.4821-3.3766,0.7769-6.4672,2.8929
			c0.7743-1.4107,1.8529-4.3504,3.8108-5.3685c-0.9917-0.7495-2.1135-1.4451-3.3475-2.0376
			c-3.5901-1.7275-10.8101,3.5488-12.352,9.4037C426.1717,388.0704,429.0378,393.2641,431.553,393.0601z"/>
		<linearGradient id="XMLID_120_" gradientUnits="userSpaceOnUse" x1="395.9598" y1="376.4211" x2="446.6082" y2="376.4211">
			<stop  offset="0.2424" style="stop-color:#FFF52C"/>
			<stop  offset="0.44" style="stop-color:#FCF32A"/>
			<stop  offset="0.6133" style="stop-color:#F1EB23"/>
			<stop  offset="0.7774" style="stop-color:#DFDF18"/>
			<stop  offset="0.935" style="stop-color:#C6CE08"/>
			<stop  offset="1" style="stop-color:#B9C500"/>
		</linearGradient>
		<path id="XMLID_1157_" fill="url(#XMLID_120_)" d="M395.9598,368.3719c4.94,5.6427,7.7194,9.405,16.9842,13.166
			c9.2647,3.7635,24.0884,3.5267,33.6642,1.4107c-12.0442,0.7054-19.1482,1.8817-30.8848-1.645
			C403.9903,377.7769,399.0468,369.7826,395.9598,368.3719z"/>
		<linearGradient id="XMLID_121_" gradientUnits="userSpaceOnUse" x1="427.0177" y1="383.7096" x2="446.6082" y2="383.7096">
			<stop  offset="0.6667" style="stop-color:#BDD400"/>
			<stop  offset="1" style="stop-color:#7C8600"/>
		</linearGradient>
		<path id="XMLID_1156_" fill="url(#XMLID_121_)" d="M427.0185,384.3371c6.8978,0.4189,14.1034-0.1763,19.5898-1.3885
			c-7.5854,0.4449-13.213,1.0758-19.2713,0.6005C427.3079,383.6539,427.0003,384.3592,427.0185,384.3371z"/>
	</g>
	<g id="XMLID_1150_">
		<path id="XMLID_1154_" fill="#B5B888" d="M399.662,318.5286c-0.0254,11.4301-3.8651,20.6174-12.4641,21.3971
			c-3.8795,0.35-11.7727-4.5874-24.1281-4.5874c9.2648-1.2923,4.1039-8.9476,3.5538-15.3991
			c-0.9663-11.2744,8.4217-22.8131,17.0603-23.2415C392.3227,296.2691,399.6837,307.2295,399.662,318.5286z"/>
		<linearGradient id="XMLID_122_" gradientUnits="userSpaceOnUse" x1="371.0318" y1="312.8662" x2="400.5476" y2="323.609">
			<stop  offset="0" style="stop-color:#F0E800"/>
			<stop  offset="1" style="stop-color:#A8A100"/>
		</linearGradient>
		<path id="XMLID_1153_" fill="url(#XMLID_122_)" d="M399.6657,318.5286c0.0252,11.4273-3.5468,20.9536-11.762,21.3613
			c-8.2152,0.4078-15.656-8.4007-16.6223-19.6723c-0.9663-11.2744,4.8822-23.1466,13.0974-23.5544
			C392.5941,296.2555,399.6404,307.2322,399.6657,318.5286z"/>
		
			<linearGradient id="XMLID_123_" gradientUnits="userSpaceOnUse" x1="363.6531" y1="300.6976" x2="388.0854" y2="324.9022" gradientTransform="matrix(0.9979 -0.0651 0.0651 0.9979 -7.203 29.5616)">
			<stop  offset="0.0727" style="stop-color:#FFFA50"/>
			<stop  offset="0.4424" style="stop-color:#FFE802"/>
			<stop  offset="0.6057" style="stop-color:#F8E402"/>
			<stop  offset="0.8428" style="stop-color:#E5D901"/>
			<stop  offset="1" style="stop-color:#D4CF00"/>
		</linearGradient>
		<path id="XMLID_1152_" fill="url(#XMLID_123_)" d="M400.5668,316.6235c0.9663,11.273-3.7711,20.6847-10.5785,21.0237
			c-6.8074,0.3388-13.1082-8.5261-14.0745-19.7991c-0.9663-11.2744,3.7711-20.6861,10.5785-21.0237
			C393.2997,296.4868,399.6042,305.3503,400.5668,316.6235z"/>
		
			<linearGradient id="XMLID_124_" gradientUnits="userSpaceOnUse" x1="364.1119" y1="300.2345" x2="377.4043" y2="313.403" gradientTransform="matrix(0.9979 -0.0651 0.0651 0.9979 -7.203 29.5616)">
			<stop  offset="0.2606" style="stop-color:#FFE802"/>
			<stop  offset="0.3825" style="stop-color:#FBE602"/>
			<stop  offset="0.5069" style="stop-color:#EFDF01"/>
			<stop  offset="0.6321" style="stop-color:#DAD401"/>
			<stop  offset="0.7212" style="stop-color:#C7CA00"/>
			<stop  offset="1" style="stop-color:#CCCC00"/>
		</linearGradient>
		<path id="XMLID_1151_" fill="url(#XMLID_124_)" d="M379.3303,329.7948c-1.7879-3.3063-3.0292-7.4337-3.4165-11.9467
			c-0.9663-11.2744,3.7711-20.6861,10.5785-21.0237c4.086-0.2026,7.9909,2.9081,10.6652,7.8648
			C390.401,301.6005,378.82,313.5912,379.3303,329.7948z"/>
	</g>
	<g id="XMLID_1140_">
		
			<linearGradient id="XMLID_125_" gradientUnits="userSpaceOnUse" x1="688.5561" y1="355.1414" x2="665.7482" y2="353.5465" gradientTransform="matrix(-1 0 0 1 778.6152 0)">
			<stop  offset="0.1091" style="stop-color:#66E0BF"/>
			<stop  offset="1" style="stop-color:#527F64"/>
		</linearGradient>
		<path id="XMLID_1149_" fill="url(#XMLID_125_)" d="M111.6039,337.1842c1.6721,12.2801-0.6441,26.9158-8.0559,34.6745
			c-2.3162,1.058-11.8126-0.3527-12.7391-5.9954c4.1691-5.6427,10.3215-17.3083,13.1515-28.3153
			C104.9377,336.0628,110.8547,335.1288,111.6039,337.1842z"/>
		
			<linearGradient id="XMLID_126_" gradientUnits="userSpaceOnUse" x1="689.0278" y1="355.1971" x2="665.2955" y2="353.5376" gradientTransform="matrix(-1 0 0 1 778.6152 0)">
			<stop  offset="0.1091" style="stop-color:#82EDD6"/>
			<stop  offset="1" style="stop-color:#6EA07B"/>
		</linearGradient>
		<path id="XMLID_1146_" fill="url(#XMLID_126_)" d="M98.0325,352.2002c-2.3595,1.6724-2.9386,4.1411-3.1702,5.5517
			c-2.2512,3.8105-3.5901,4.761-4.5166,8.2877c0.9265,5.6427,10.1912,6.7007,12.9707,5.9954
			c3.011-0.8817,6.7169-4.9373,7.0318-10.4257c1.0749-2.094,2.6962-3.8573,1.5489-8.2767
			c1.8422-6.5134,0.3982-11.0608-0.2931-16.1484c-0.7491-2.0554-6.6662-1.1213-7.6434,0.3638
			C102.7082,342.4233,98.9156,347.8772,98.0325,352.2002z M92.4303,365.687c0.5791-2.2923,2.2004-4.4084,4.2307-7.0314
			c0.7671-1.4685,1.3282-4.254,2.9495-5.4883c0-2.8214,3.0327-8.1224,4.1365-12.4206c0.8216-1.2468,5.7868-2.0305,6.4129-0.3071
			c0.4525,3.3035,1.4948,6.9087,0.3367,11.317c-1.2089-1.5608-4.9474-3.0362-7.8715-1.9397
			c-0.4089,0.1529-2.4355,1.6752-1.9722-1.1461c-0.8759,0.62-0.8035,3.32-1.2739,4.6729c2.0846-5.1137,13.4339-1.587,9.5905,6.056
			c-0.9013-3.466-6.0584-4.3945-9.4929-3.1685c-0.5138,0.1818-2.5296,0.551-1.4874-2.7993
			c-0.6697,0.4506-1.1075,4.513-1.3897,5.2018c3.5393-3.5047,11.1177-1.744,11.1285,4.4662
			c-0.9372,3.8215-2.0953,6.1139-4.4115,7.1718C101.3728,371.1602,93.2083,370.4232,92.4303,365.687z"/>
		<path id="XMLID_1145_" fill="#527F64" d="M110.1599,340.4396c0.1773,1.3059,0.4453,2.6629,0.637,4.0956
			c-1.6358-0.9423-4.4912-3.849-7.2382-3.163c0.0615-0.2094,0.1375-0.4229,0.1883-0.6255
			C104.5686,339.4999,109.5337,338.7162,110.1599,340.4396z"/>
		<path id="XMLID_1144_" fill="#648C6B" d="M110.7969,344.5352c-0.1918-1.4327-0.4597-2.7897-0.637-4.0956
			c-0.6261-1.7234-5.5913-0.9396-6.4129,0.3071c-0.0508,0.2026-0.1267,0.4161-0.1883,0.6255
			c-0.2931,0.0717-0.5863,0.1818-0.8757,0.3443c0.4921-1.3969,0.9228-2.791,1.2774-4.1685
			c0.9772-1.4852,6.8943-2.4192,7.6434-0.3638c0.2787,2.061,0.4742,4.2128,0.5683,6.4032
			C112.1794,344.9842,111.6546,345.0284,110.7969,344.5352z"/>
		<path id="XMLID_1143_" fill="#D9EDD6" d="M105.6325,351.1725c-1.835-0.5194-4.8062-0.1323-6.1379,1.3775
			c-1.0244,1.1627-2.432,3.703-0.9265,3.8794c1.4873,0.2122,0.6296-1.5773,2.2003-3.3503
			C102.1292,351.5458,104.9014,350.9769,105.6325,351.1725z"/>
		<path id="XMLID_1142_" fill="#D9EDD6" d="M100.1895,356.9584c-1.853,0.0882-4.1691,1.4107-6.2537,5.0255
			c-0.7384,1.2812-2.432,3.703-0.9265,3.8793c1.4873,0.2122,0.8106-1.8515,2.2003-4.5847
			C96.3895,358.9588,99.0314,357.1348,100.1895,356.9584z"/>
		<path id="XMLID_1141_" fill="#527F64" d="M94.4351,369.1255c0,1.0236,1.245,1.8515,2.7831,1.8515
			c1.5344,0,2.7757-0.8279,2.7757-1.8515c0-1.0222-1.2413-1.8515-2.7757-1.8515C95.6801,367.274,94.4351,368.1033,94.4351,369.1255z
			"/>
	</g>
	<g id="XMLID_1129_">
		
			<linearGradient id="XMLID_127_" gradientUnits="userSpaceOnUse" x1="724.4547" y1="340.3407" x2="702.9943" y2="420.432" gradientTransform="matrix(-0.9853 0.171 0.171 0.9853 738.1094 -83.6662)">
			<stop  offset="0" style="stop-color:#FFFAB0"/>
			<stop  offset="0.3581" style="stop-color:#FDFAB3"/>
			<stop  offset="0.59" style="stop-color:#F5F9BB"/>
			<stop  offset="0.7861" style="stop-color:#E9F8CA"/>
			<stop  offset="0.9612" style="stop-color:#D7F7DF"/>
			<stop  offset="0.9879" style="stop-color:#D4F7E3"/>
		</linearGradient>
		<path id="XMLID_1139_" fill="url(#XMLID_127_)" d="M97.6815,368.5248c-13.2892,18.6969-19.6624,49.8462-3.0038,73.4157
			c4.0063,5.1992,7.9837,13.0239,8.5119,15.3411c5.8701-1.2123,18.9965-30.3653,5.9389-63.3054
			C103.5263,374.9101,98.673,371.495,97.6815,368.5248z"/>
		
			<linearGradient id="XMLID_128_" gradientUnits="userSpaceOnUse" x1="707.5404" y1="393.5044" x2="721.8135" y2="368.7826" gradientTransform="matrix(-0.9853 0.171 0.171 0.9853 738.1094 -83.6662)">
			<stop  offset="0" style="stop-color:#57CD9F"/>
			<stop  offset="1" style="stop-color:#47AB8C"/>
		</linearGradient>
		<path id="XMLID_1138_" fill="url(#XMLID_128_)" d="M97.8805,396.894c-2.9894,6.1235-11.8669,7.0575-13.1951,11.7772
			c-0.0398,3.9262,0.275,7.8745,0.9987,11.7814c2.7868-8.4736,7.4554-8.6143,12.9998-13.1644
			c5.0775,5.7722,13.481,7.8716,15.7826,12.5747c0.2316-3.9565,0.1521-5.7612-0.9265-10.4642
			C112.6317,405.4518,102.2559,403.7147,97.8805,396.894z"/>
		
			<linearGradient id="XMLID_129_" gradientUnits="userSpaceOnUse" x1="716.5486" y1="381.4276" x2="713.5652" y2="424.0916" gradientTransform="matrix(-0.9853 0.171 0.171 0.9853 738.1094 -83.6662)">
			<stop  offset="0" style="stop-color:#57CD9F"/>
			<stop  offset="1" style="stop-color:#338073"/>
		</linearGradient>
		<path id="XMLID_1137_" fill="url(#XMLID_129_)" d="M99.9108,414.0453c-2.1316,5.7708-10.85,12.8889-10.4338,18.7411
			c1.3969,3.1437,3.1161,6.2088,5.2007,9.1541c4.0063,5.1992,7.9837,13.0239,8.5119,15.3411
			c3.2101-0.5648,7.2526-9.2879,9.529-19.0826c-2.8845-7.4034-8.2912-6.1112-11.2227-13.7514
			c5.0956,5.6427,9.1093,5.29,11.8887,10.58C115.6138,423.1624,103.2947,423.3814,99.9108,414.0453z"/>
		
			<linearGradient id="XMLID_130_" gradientUnits="userSpaceOnUse" x1="718.574" y1="399.2634" x2="712.2459" y2="422.8801" gradientTransform="matrix(-0.9853 0.171 0.171 0.9853 738.1094 -83.6662)">
			<stop  offset="0.0667" style="stop-color:#338073"/>
			<stop  offset="1" style="stop-color:#0F2B29"/>
		</linearGradient>
		<path id="XMLID_1136_" fill="url(#XMLID_130_)" d="M100.4754,431.6305c-2.1316,5.7695-7.8823,7.3647-5.7977,10.3101
			c4.0063,5.1992,7.9837,13.0239,8.5119,15.3411c2.4754-0.6254,6.3767-7.5659,8.0343-14.1426
			C110.1165,438.7197,103.2113,436.758,100.4754,431.6305z"/>
		<path id="XMLID_1135_" fill="#FFFFFF" d="M98.094,407.751c0.1955-0.1529,0.3908-0.3003,0.59-0.4628
			c0.2388,0.2686,0.4777,0.5138,0.7128,0.7589c0.1267,2.0954,0.257,4.1935,0.391,6.2833c-0.2752,0.6862-0.6333,1.3887-1.0604,2.105
			C98.4994,413.5659,98.2858,410.6577,98.094,407.751z"/>
		<path id="XMLID_1134_" fill="#FFFFFF" d="M97.5114,397.536c-0.5429-11.583-0.6117-22.2513,0.1701-29.0112
			c0.123,7.6334,0.55,18.2754,1.1581,29.6697c-0.3367-0.4078-0.6624-0.8362-0.9591-1.3005
			C97.7719,397.1201,97.638,397.3239,97.5114,397.536z"/>
		
			<linearGradient id="XMLID_131_" gradientUnits="userSpaceOnUse" x1="721.6805" y1="339.2356" x2="701.3389" y2="415.1517" gradientTransform="matrix(-0.9853 0.171 0.171 0.9853 738.1094 -83.6662)">
			<stop  offset="0" style="stop-color:#57CD9F"/>
			<stop  offset="0.9879" style="stop-color:#99C2A1"/>
		</linearGradient>
		<path id="XMLID_1133_" fill="url(#XMLID_131_)" d="M98.094,407.751c-0.2279-3.4358-0.4234-6.8605-0.5826-10.215
			c0.1266-0.2122,0.2605-0.416,0.3691-0.642c0.2967,0.4643,0.6224,0.8927,0.9591,1.3005c0.1701,3.2415,0.3582,6.5409,0.5572,9.8526
			c-0.2351-0.2452-0.474-0.4904-0.7128-0.7589C98.4848,407.4507,98.2895,407.5981,98.094,407.751z"/>
		
			<linearGradient id="XMLID_132_" gradientUnits="userSpaceOnUse" x1="728.5298" y1="341.3065" x2="708.3165" y2="416.7433" gradientTransform="matrix(-0.9853 0.171 0.171 0.9853 738.1094 -83.6662)">
			<stop  offset="0" style="stop-color:#57CD9F"/>
			<stop  offset="0.9879" style="stop-color:#99C2A1"/>
		</linearGradient>
		<path id="XMLID_1132_" fill="url(#XMLID_132_)" d="M100.4754,431.6305c-0.0834,0.2205-0.1773,0.4243-0.2715,0.6324
			c-0.5248-4.9153-1.0315-10.2921-1.4766-15.8275c0.4271-0.7163,0.7853-1.4189,1.0604-2.105
			c0.4125,6.3467,0.8577,12.5997,1.321,18.4022C100.8951,432.3841,100.6816,432.0231,100.4754,431.6305z"/>
		
			<linearGradient id="XMLID_133_" gradientUnits="userSpaceOnUse" x1="734.5927" y1="342.5777" x2="714.2808" y2="418.3827" gradientTransform="matrix(-0.9853 0.171 0.171 0.9853 738.1094 -83.6662)">
			<stop  offset="0" style="stop-color:#57CD9F"/>
			<stop  offset="1" style="stop-color:#338073"/>
		</linearGradient>
		<path id="XMLID_1131_" fill="url(#XMLID_133_)" d="M101.1087,432.7326c0.5935,7.4542,1.2196,14.1618,1.8311,19.332
			c-0.8359-4.0599-1.8166-11.2249-2.7359-19.8018c0.0941-0.2081,0.1881-0.4119,0.2715-0.6324
			C100.6816,432.0231,100.8951,432.3841,101.1087,432.7326z"/>
		
			<linearGradient id="XMLID_134_" gradientUnits="userSpaceOnUse" x1="719.537" y1="342.1456" x2="712.7652" y2="367.4183" gradientTransform="matrix(-0.9853 0.171 0.171 0.9853 738.1094 -83.6662)">
			<stop  offset="0" style="stop-color:#F0F9C2"/>
			<stop  offset="1" style="stop-color:#BADEB5"/>
		</linearGradient>
		<path id="XMLID_1130_" fill="url(#XMLID_134_)" d="M99.3173,371.0914c-5.32,7.4873-10.2672,24.3534-12.3373,34.5463
			C102.6395,393.9033,101.7565,375.6016,99.3173,371.0914z"/>
	</g>
	<g id="XMLID_1124_">
		
			<linearGradient id="XMLID_135_" gradientUnits="userSpaceOnUse" x1="766.4835" y1="254.0788" x2="819.6195" y2="254.0788" gradientTransform="matrix(-0.8208 0.5712 0.5712 0.8208 590.0885 -266.1588)">
			<stop  offset="0" style="stop-color:#FFE802"/>
			<stop  offset="0.2856" style="stop-color:#FCE702"/>
			<stop  offset="0.4705" style="stop-color:#F4E302"/>
			<stop  offset="0.627" style="stop-color:#E5DC01"/>
			<stop  offset="0.7676" style="stop-color:#D0D201"/>
			<stop  offset="0.8962" style="stop-color:#B5C501"/>
			<stop  offset="1" style="stop-color:#99B800"/>
		</linearGradient>
		<path id="XMLID_1128_" fill="url(#XMLID_135_)" d="M97.884,368.4147c6.1777,13.3407-21.5513,57.1557-25.9991,54.1415
			c-1.6213-0.6048-9.5108-9.7851-7.6255-16.3673c1.4766-5.1634,11.5919-18.6033,18.5766-26.6004
			C89.8209,371.5901,93.1794,368.6158,97.884,368.4147z"/>
		
			<linearGradient id="XMLID_136_" gradientUnits="userSpaceOnUse" x1="798.9496" y1="260.59" x2="819.6195" y2="260.59" gradientTransform="matrix(-0.8208 0.5712 0.5712 0.8208 590.0885 -266.1588)">
			<stop  offset="0.2303" style="stop-color:#99B800"/>
			<stop  offset="1" style="stop-color:#7C8600"/>
		</linearGradient>
		<path id="XMLID_1127_" fill="url(#XMLID_136_)" d="M82.8433,411.5518c-4.882,7.2574-9.3806,12.0734-10.9584,11.0044
			c-1.6213-0.6048-9.5108-9.7851-7.6255-16.3673c1.0026-3.5157,13.2349-2.5018,18.3594-2.8724
			C83.3319,405.7507,84.338,409.9414,82.8433,411.5518z"/>
		
			<linearGradient id="XMLID_137_" gradientUnits="userSpaceOnUse" x1="766.4835" y1="253.1035" x2="818.2836" y2="253.1035" gradientTransform="matrix(-0.8208 0.5712 0.5712 0.8208 590.0885 -266.1588)">
			<stop  offset="0.2424" style="stop-color:#FFF52C"/>
			<stop  offset="0.44" style="stop-color:#FCF32A"/>
			<stop  offset="0.6133" style="stop-color:#F1EB23"/>
			<stop  offset="0.7774" style="stop-color:#DFDF18"/>
			<stop  offset="0.935" style="stop-color:#C6CE08"/>
			<stop  offset="1" style="stop-color:#B9C500"/>
		</linearGradient>
		<path id="XMLID_1126_" fill="url(#XMLID_137_)" d="M97.884,368.4147c-0.2678,11.2909-19.4777,45.5315-27.2225,51.5667
			C77.1651,410.7363,90.7691,390.4248,97.884,368.4147z"/>
		
			<linearGradient id="XMLID_138_" gradientUnits="userSpaceOnUse" x1="799.3066" y1="262.8177" x2="818.2836" y2="262.8177" gradientTransform="matrix(-0.8208 0.5712 0.5712 0.8208 590.0885 -266.1588)">
			<stop  offset="0.6667" style="stop-color:#BDD400"/>
			<stop  offset="1" style="stop-color:#7C8600"/>
		</linearGradient>
		<path id="XMLID_1125_" fill="url(#XMLID_138_)" d="M82.6081,403.9902c-4.5275,7.4997-9.0441,13.7292-11.9465,15.9912
			c2.6781-3.8063,6.5578-9.4917,10.698-16.3977C81.859,403.5231,82.7673,403.9006,82.6081,403.9902z"/>
	</g>
	<g id="XMLID_450_">
		<path id="XMLID_1123_" fill="#B5B888" d="M94.2904,318.4294c0.0217,11.4314,3.8651,20.6187,12.4604,21.3971
			c3.8832,0.3513,11.7764-4.5861,24.1282-4.5861c-9.2648-1.2936-4.1041-8.9476-3.5503-15.4003
			c0.9661-11.273-8.4217-22.8119-17.0638-23.2403C101.6263,296.17,94.265,307.1303,94.2904,318.4294z"/>
		
			<linearGradient id="XMLID_139_" gradientUnits="userSpaceOnUse" x1="655.6982" y1="312.7671" x2="685.2132" y2="323.5097" gradientTransform="matrix(-1 0 0 1 778.6152 0)">
			<stop  offset="0" style="stop-color:#F0E800"/>
			<stop  offset="1" style="stop-color:#A8A100"/>
		</linearGradient>
		<path id="XMLID_1122_" fill="url(#XMLID_139_)" d="M94.2832,318.4294c-0.0254,11.4287,3.5503,20.9534,11.7618,21.3613
			c8.2152,0.4078,15.6597-8.3993,16.6223-19.6723c0.9663-11.2744-4.882-23.1466-13.0972-23.5544
			C101.3548,296.1563,94.3084,307.133,94.2832,318.4294z"/>
		
			<linearGradient id="XMLID_140_" gradientUnits="userSpaceOnUse" x1="647.7157" y1="319.1308" x2="672.1479" y2="343.3353" gradientTransform="matrix(-0.9979 -0.0651 -0.0651 0.9979 785.8179 29.5616)">
			<stop  offset="0.5515" style="stop-color:#FFFA50"/>
			<stop  offset="1" style="stop-color:#EFE01F"/>
		</linearGradient>
		<path id="XMLID_455_" fill="url(#XMLID_140_)" d="M93.3819,316.5256c-0.9661,11.273,3.7711,20.6848,10.5785,21.0224
			c6.8076,0.3388,13.1119-8.5247,14.0745-19.7991c0.9663-11.273-3.7709-20.6848-10.5785-21.0223
			C100.6491,296.3876,94.3482,305.2512,93.3819,316.5256z"/>
		
			<linearGradient id="XMLID_141_" gradientUnits="userSpaceOnUse" x1="648.1747" y1="318.6675" x2="661.4665" y2="331.8354" gradientTransform="matrix(-0.9979 -0.0651 -0.0651 0.9979 785.8179 29.5616)">
			<stop  offset="0.2606" style="stop-color:#FFF243"/>
			<stop  offset="0.4392" style="stop-color:#FCF03F"/>
			<stop  offset="0.6216" style="stop-color:#F1E833"/>
			<stop  offset="0.8057" style="stop-color:#E0DC1E"/>
			<stop  offset="0.99" style="stop-color:#C8CB02"/>
			<stop  offset="1" style="stop-color:#C7CA00"/>
		</linearGradient>
		<path id="XMLID_454_" fill="url(#XMLID_141_)" d="M114.6186,329.6956c1.7877-3.3049,3.0327-7.4323,3.4163-11.9467
			c0.9663-11.273-3.7709-20.6848-10.5785-21.0223c-4.0858-0.204-7.9872,2.9067-10.6652,7.8634
			C103.548,301.5013,115.1289,313.4921,114.6186,329.6956z"/>
	</g>
</g>
</svg>
