<?xml version="1.0" encoding="utf-8"?>
<!-- Generator: Adobe Illustrator 19.0.0, SVG Export Plug-In . SVG Version: 6.00 Build 0)  -->
<svg version="1.1" id="Layer_1" xmlns="http://www.w3.org/2000/svg" xmlns:xlink="http://www.w3.org/1999/xlink" x="0px" y="0px"
	 viewBox="0 0 187.8 223" style="enable-background:new 0 0 187.8 223;" xml:space="preserve">
<style type="text/css">
	.st0{fill:#FF932E;}
	.st1{fill:#FFCB3D;}
	.st2{fill:#FFBA00;}
	.st3{fill:#FF7B00;}
	.st4{fill:#FFAE00;}
	.st5{opacity:0.34;}
	.st6{fill:#FFFFFF;}
	.st7{opacity:0.37;fill:#FFFFFF;}
</style>
<g id="XMLID_444_">
	<g id="XMLID_448_">
		<g id="XMLID_459_">
			<path id="XMLID_460_" class="st0" d="M24.8,39.7c0.2-1,0.5-1.9,0.8-2.8c0.2-0.5,0.3-0.9,0.6-1.4c0.2-0.5,0.4-0.9,0.8-1.5l9.1,7
				c0-0.1-0.2,0.1-0.4,0.3c-0.2,0.2-0.3,0.3-0.5,0.5c-0.3,0.4-0.6,0.8-0.9,1.2c-0.5,0.8-0.9,1.7-1.2,2.6c-0.4,1.8-0.1,4,1.1,6.1
				c1.2,2.1,3.2,4.1,5.5,5.8c1.9,1.5,4,2.7,6.2,3.9c-1.1-1.3-2.1-2.7-3-4.1c-1.6-2.6-3-5.4-3.7-8.8c-0.7-3.4-0.2-7.5,1.9-10.9
				c1-1.7,2.4-3.2,3.9-4.5c0.8-0.6,1.6-1.2,2.4-1.7c0.4-0.3,0.8-0.5,1.3-0.7c0.5-0.3,0.8-0.5,1.6-0.7l2.7,11.2c0.1-0.1-0.3,0-0.5,0
				c-0.2,0-0.5,0.1-0.7,0.1c-0.5,0.1-1,0.2-1.4,0.4c-0.9,0.3-1.8,0.7-2.5,1.3c-1.5,1.1-2.6,3-3,5.4c-0.4,2.4-0.1,5.2,0.6,7.9
				c0.4,1.6,0.9,3.3,1.5,4.9c0.4-2.8,1-5.6,1.9-8.3c0.9-2.9,2.3-5.8,4.5-8.5c2.2-2.6,5.6-4.9,9.7-5.4c2-0.3,4-0.2,5.9,0.2
				c1,0.2,1.9,0.4,2.9,0.8c0.4,0.1,0.9,0.3,1.4,0.5c0.5,0.2,0.9,0.4,1.6,0.8L68,50.1c0.1,0-0.1-0.2-0.3-0.4
				c-0.2-0.2-0.3-0.3-0.5-0.5c-0.4-0.3-0.8-0.6-1.2-0.9c-0.8-0.5-1.7-0.9-2.6-1.1c-1.8-0.5-4-0.1-6.1,1.1c-2.1,1.2-4.1,3.2-5.8,5.5
				c-1.6,2.2-3.1,4.6-4.4,7.2c0.4,1.1,0.8,2.1,1.3,3.1c-0.7-0.8-1.4-1.6-2.1-2.4c-2.7-0.4-5.3-1-8-1.9c-2.9-1-5.8-2.3-8.4-4.6
				c-2.6-2.2-4.9-5.7-5.4-9.7C24.3,43.6,24.5,41.6,24.8,39.7z"/>
		</g>
		<g id="XMLID_449_">
			<path id="XMLID_458_" class="st1" d="M53.6,128.7l31.6,7.1l0,0L97.9,106c9.9,8.7,19.8,17.3,29.7,26c2.3,2,4.5,4,6.8,6l-21.6-4.8
				L99.7,164l0,0L67,156.6l-8.7,20.5c-0.3-3-0.6-6.1-0.9-9.1C56.2,154.9,54.9,141.8,53.6,128.7z"/>
			<path id="XMLID_457_" class="st2" d="M52.4,71.9l-4.5-1c-0.3-3.2-0.6-6.3-0.9-9.5c2.4,2.1,4.8,4.2,7.2,6.3L52.4,71.9L52.4,71.9z"
				/>
			<path id="XMLID_456_" class="st0" d="M63.1,205.3l13.1-30.9l32.7,7.3l0,0l13.1-30.9l32.7,7.3l0,0l0.9-2
				c7.1,5.9,11.3,10.4,4.6,20.9c-1.4,2.2-2.9,4.2-4.6,6.3l-19.2-4.3L124,208.4c-0.4,0.2-0.7,0.4-1.1,0.6c-0.4,0.2-0.7,0.3-1.1,0.5
				l-31.1-7L83,220.7c-2.6,0.2-5.2,0.2-7.8,0.1c-12.4-0.6-13.5-6.7-14.2-16L63.1,205.3L63.1,205.3z"/>
			<path id="XMLID_455_" class="st0" d="M76,117.9l-24-5.4c-0.8-8.5-1.7-17-2.5-25.5l12.1,2.7l0,0l4.8-11.4
				c6.4,5.6,12.8,11.2,19.3,16.9L76,117.9L76,117.9z"/>
			<path id="XMLID_454_" class="st2" d="M61.6,89.8l-12.1-2.7C49,81.7,48.5,76.3,48,70.9l4.5,1l0,0l1.8-4.2
				c4.1,3.6,8.1,7.1,12.2,10.7L61.6,89.8L61.6,89.8z"/>
			<path id="XMLID_453_" class="st3" d="M85.2,135.8l-31.6-7.1c-0.5-5.4-1.1-10.8-1.6-16.1l24,5.4l0,0l9.6-22.7
				c4.1,3.6,8.1,7.1,12.2,10.7L85.2,135.8L85.2,135.8z"/>
			<path id="XMLID_452_" class="st4" d="M99.7,163.9L99.7,163.9l13.1-30.8l21.6,4.8c5.4,4.7,10.8,9.5,16.3,14.2
				c1.7,1.5,3.3,2.8,4.9,4.1l-0.9,2l0,0l-32.7-7.3l-13.1,30.9l0,0l-32.7-7.3l-13.1,30.9l0,0l-2.1-0.5c-0.1-2-0.3-4.1-0.5-6.3
				c-0.7-7.1-1.4-14.3-2.1-21.4l8.7-20.5L99.7,163.9z"/>
			<path id="XMLID_451_" class="st3" d="M121.7,209.6c-12,5.7-25.5,10.2-38.8,11.1l7.7-18.1L121.7,209.6z"/>
			<path id="XMLID_450_" class="st3" d="M155.6,183.4c-8.4,10.3-20,18.6-31.6,25.1l12.5-29.4L155.6,183.4z"/>
		</g>
	</g>
	<g id="XMLID_445_" class="st5">
		<path id="XMLID_447_" class="st6" d="M48.6,72.9l15.2,78l13.6,69.9c6,0.2,12.1-0.6,18.1-1.9l-22.6-70.2L48.6,72.9z"/>
		<path id="XMLID_446_" class="st7" d="M48.6,72.9l15.2,78l13.6,69.9c6,0.2,12.1-0.6,18.1-1.9l-22.6-70.2L48.6,72.9z"/>
	</g>
</g>
</svg>
