<?xml version="1.0" encoding="utf-8"?>
<!-- Generator: Adobe Illustrator 19.0.0, SVG Export Plug-In . SVG Version: 6.00 Build 0)  -->
<svg version="1.1" id="Layer_1" xmlns="http://www.w3.org/2000/svg" xmlns:xlink="http://www.w3.org/1999/xlink" x="0px" y="0px"
	 viewBox="0 0 473.6487 341.8919" enable-background="new 0 0 473.6487 341.8919" xml:space="preserve">
<linearGradient id="XMLID_93_" gradientUnits="userSpaceOnUse" x1="92.3073" y1="162.4755" x2="108.8642" y2="142.8812" gradientTransform="matrix(0.9658 -0.2595 0.2595 0.9658 -28.1746 28.1503)">
	<stop  offset="0" style="stop-color:#422600"/>
	<stop  offset="0.9879" style="stop-color:#6F5714"/>
</linearGradient>
<path id="XMLID_1517_" fill="url(#XMLID_93_)" d="M79.8935,127.0018c9.0124,3.6729,19.1031,9.3626,23.1337,14.0042
	c6.034,6.9449,6.7982,20.709,12.3767,25.3846c5.5789,4.6771,16.5876,4.5737,21.1469,8.9047
	c2.0579,1.9175,4.3539-1.0863,2.4235-3.0412c-4.454-4.5167-17.9737-5.7857-21.0656-9.4694
	c-5.4476-6.4841-4.9762-15.8566-12.4331-24.4428c-5.9226-6.8206-20.4425-15.1913-24.783-15.2587
	C77.2927,123.0698,76.0302,125.261,79.8935,127.0018z"/>
<linearGradient id="XMLID_94_" gradientUnits="userSpaceOnUse" x1="103.3066" y1="169.3604" x2="117.2359" y2="152.8758" gradientTransform="matrix(0.9658 -0.2595 0.2595 0.9658 -28.1746 28.1503)">
	<stop  offset="0" style="stop-color:#6B4517"/>
	<stop  offset="0.9879" style="stop-color:#B08A2B"/>
</linearGradient>
<path id="XMLID_1516_" fill="url(#XMLID_94_)" d="M104.5377,139.2139c7.8336,8.1671,7.2374,21.2866,12.816,25.9621
	c5.5789,4.6771,15.0416,4.9042,19.6008,9.2352c2.0579,1.9175,3.9503-0.2022,2.0199-2.1572
	c-4.454-4.5167-17.9737-5.7857-21.0656-9.4694c-5.4476-6.4841-4.9762-15.8566-12.4331-24.4428
	C99.553,131.5212,100.2822,134.7776,104.5377,139.2139z"/>
<path id="XMLID_1515_" fill="#533400" d="M91.2822,195.5994c83.4793-39.9488,203.928-46.5089,264.1522-35.1803
	c42.336,6.5601,70.1281,45.4953,23.2552,84.6736c-39.9502,33.3902-180.6729,78.1105-285.0223,35.7759
	C35.8282,253.4384,49.5434,216.4696,91.2822,195.5994z"/>
<path id="XMLID_1514_" fill="#422600" d="M355.4343,165.7863c-60.2241-11.3301-180.6729-4.77-264.1522,35.1803
	c-18.6212,9.3121-30.8653,21.8868-30.5492,35.3703c-0.8943,6.0509,0.588,12.248,4.6522,18.457
	c-14.6496-26.9942,47.9593-51.4415,49.7487-13.877c-12.5229,10.1373-3.2184,24.3881,7.7516,28.6217
	c23.7643,9.1707,63.2936,13.3102,93.6165,9.5415c105.5416-13.1201,135.3553-51.8761,127.6031-80.4993
	c-13.1172-42.3346,44.7212-17.2915,49.4927-5.3656C389.4225,178.3063,375.7551,168.9335,355.4343,165.7863z"/>
<linearGradient id="XMLID_95_" gradientUnits="userSpaceOnUse" x1="55.0131" y1="226.793" x2="403.0991" y2="226.793">
	<stop  offset="0" style="stop-color:#BEA652"/>
	<stop  offset="0.2909" style="stop-color:#866D2B"/>
	<stop  offset="1" style="stop-color:#C7B057"/>
</linearGradient>
<path id="XMLID_1511_" fill="url(#XMLID_95_)" d="M355.4343,160.4191c-60.2241-11.3287-180.6729-4.7686-264.1522,35.1803
	c-41.7388,20.8702-55.454,57.839,2.385,85.2693c104.3495,42.3346,245.0721-2.3858,285.0223-35.7759
	C425.5624,205.9145,397.7703,166.9792,355.4343,160.4191z M372.4378,243.5625c-38.2817,30.6003-173.1242,71.5839-273.1131,32.7855
	c-55.4221-25.1358-42.2806-59.0137-2.2856-78.1409c79.9911-36.6118,195.4062-42.6248,253.1145-32.2399
	C390.7209,171.9772,417.3512,207.659,372.4378,243.5625z"/>
<linearGradient id="XMLID_96_" gradientUnits="userSpaceOnUse" x1="55.0129" y1="235.0153" x2="403.0992" y2="235.0153">
	<stop  offset="0" style="stop-color:#FFE189"/>
	<stop  offset="0.2909" style="stop-color:#C5A560"/>
	<stop  offset="1" style="stop-color:#FFEB8F"/>
</linearGradient>
<path id="XMLID_1510_" fill="url(#XMLID_96_)" d="M94.8608,274.9058c91.8264,32.7945,209.8903,11.3287,278.4622-34.5846
	c31.603-23.8516,32.1995-47.7032,11.6432-68.426c22.3008,15.784,28.1453,44.4255-6.2767,73.1976
	c-39.9502,33.3902-180.6729,78.1105-285.0223,35.7759c-40.9075-19.4022-46.0225-43.57-30.7438-63.4432
	C47.1568,239.7255,72.7978,265.96,94.8608,274.9058z"/>
<linearGradient id="XMLID_97_" gradientUnits="userSpaceOnUse" x1="113.3375" y1="176.2126" x2="345.0383" y2="176.2126">
	<stop  offset="0" style="stop-color:#604D08"/>
	<stop  offset="1" style="stop-color:#8E7430"/>
</linearGradient>
<path id="XMLID_1509_" fill="url(#XMLID_97_)" d="M119.3075,245.6884c-5.963-56.0504-19.0027-115.0291,32.4973-143.4061
	c43.8269-24.1496,94.1462-22.6194,113.5918-19.3795c21.4658,3.5771,53.3668,9.8378,79.3048,121.6424
	C354.8379,260.5941,133.0217,299.3531,119.3075,245.6884z"/>
<path id="XMLID_1508_" fill="#422600" d="M134.214,240.9169c-11.9251-23.256-26.6379-107.6879,21.9558-134.4633
	c41.3552-22.7863,89.778-19.9583,108.0338-16.3949c24.4473,4.7715,62.0133,35.7759,67.3797,115.0823
	C341.1485,258.026,147.1541,291.5545,134.214,240.9169z"/>
<linearGradient id="XMLID_98_" gradientUnits="userSpaceOnUse" x1="345.0383" y1="219.3429" x2="113.8239" y2="219.3429">
	<stop  offset="0" style="stop-color:#FFF000"/>
	<stop  offset="0.461" style="stop-color:#FFCD00"/>
	<stop  offset="0.6364" style="stop-color:#FFBE00"/>
	<stop  offset="1" style="stop-color:#FFD400"/>
</linearGradient>
<path id="XMLID_1507_" fill="url(#XMLID_98_)" d="M119.3075,245.6884c-1.7423-16.3812-4.1972-33.2168-5.4836-49.4933
	c11.4457,60.822,222.5296,23.2559,220.7667-28.839c3.4769,10.8819,6.8694,23.2135,10.1107,37.1892
	C354.8379,260.5941,133.0217,299.3531,119.3075,245.6884z"/>
<linearGradient id="XMLID_99_" gradientUnits="userSpaceOnUse" x1="327.6701" y1="248.7343" x2="130.1016" y2="199.4749">
	<stop  offset="0" style="stop-color:#F5AB00"/>
	<stop  offset="0.4435" style="stop-color:#F58800"/>
	<stop  offset="0.6121" style="stop-color:#F57900"/>
	<stop  offset="1" style="stop-color:#F58F00"/>
</linearGradient>
<path id="XMLID_1506_" fill="url(#XMLID_99_)" d="M128.2518,244.4941c-1.5827-14.8754-1.8144-10.8561-2.9822-25.6387
	c59.6291,30.4103,183.6551-1.7901,204.5253-30.4103c1.1929,5.3658,2.4223,12.3513,5.3664,25.0431
	C343.5085,255.8257,139.0174,299.3836,128.2518,244.4941z"/>
<linearGradient id="XMLID_100_" gradientUnits="userSpaceOnUse" x1="88.7608" y1="70.5856" x2="68.8352" y2="98.0108" gradientTransform="matrix(0.9658 -0.2595 0.2595 0.9658 -28.1746 28.1503)">
	<stop  offset="0" style="stop-color:#FFF000"/>
	<stop  offset="0.4345" style="stop-color:#F3CD00"/>
	<stop  offset="0.7212" style="stop-color:#EBB300"/>
</linearGradient>
<path id="XMLID_1505_" fill="url(#XMLID_100_)" d="M67.0746,105.8633c-3.6934-18.9186-0.5487-31.3429,1.5782-33.7663
	c2.1276-2.4236,1.6168,1.4176,2.1367,2.2047c0.5195,0.7858,3.8334-4.1155,2.9566-0.4859
	c-0.8768,3.6327-2.5189,29.6967-2.2652,31.7889C70.5404,105.5505,67.3165,107.3403,67.0746,105.8633z"/>
<linearGradient id="XMLID_101_" gradientUnits="userSpaceOnUse" x1="90.7601" y1="76.2932" x2="90.2901" y2="103.2142" gradientTransform="matrix(0.9658 -0.2595 0.2595 0.9658 -28.1746 28.1503)">
	<stop  offset="0" style="stop-color:#FFF000"/>
	<stop  offset="0.7025" style="stop-color:#FFCD00"/>
	<stop  offset="0.9697" style="stop-color:#FFBE00"/>
</linearGradient>
<path id="XMLID_1504_" fill="url(#XMLID_101_)" d="M73.1785,106.0344c1.7329-8.4904,10.9333-28.25,14.522-29.8326
	c1.362-0.6729,1.1943,2.1495,1.1943,2.1495c2.2816-1.8482,4.5506-0.2958,3.4638,3.7001
	c-1.0869,3.996-12.2131,21.1876-15.9129,24.6504C75.0829,107.3747,73.1785,106.0344,73.1785,106.0344z"/>
<linearGradient id="XMLID_102_" gradientUnits="userSpaceOnUse" x1="30.1162" y1="154.4175" x2="25.2341" y2="181.7234" gradientTransform="matrix(0.9325 -0.3612 0.3612 0.9325 -32.1712 -49.4499)">
	<stop  offset="0" style="stop-color:#FFF000"/>
	<stop  offset="0.5036" style="stop-color:#F5CD00"/>
	<stop  offset="1" style="stop-color:#EBA600"/>
</linearGradient>
<path id="XMLID_1503_" fill="url(#XMLID_102_)" d="M64.5663,109.3474c2.9252-1.0124-12.1773-25.6584-14.5079-25.0732
	c-2.3327,0.5826-7.4723-0.3039-5.856,3.8674C45.8178,92.3116,61.8311,111.3662,64.5663,109.3474z"/>
<linearGradient id="XMLID_103_" gradientUnits="userSpaceOnUse" x1="76.2799" y1="-473.0613" x2="91.9342" y2="-446.6573" gradientTransform="matrix(0.9161 0.4007 -0.4007 0.9161 -186.8622 477.6815)">
	<stop  offset="0" style="stop-color:#FFF000"/>
	<stop  offset="0.685" style="stop-color:#FFCD00"/>
	<stop  offset="0.9455" style="stop-color:#FFBE00"/>
</linearGradient>
<path id="XMLID_1502_" fill="url(#XMLID_103_)" d="M71.3876,105.8516c5.008,1.0965,9.4386-26.7881,7.372-28.0172
	c-2.0646-1.228-5.0875-5.4778-6.88-1.382C70.0876,80.5499,68.0237,105.355,71.3876,105.8516z"/>
<linearGradient id="XMLID_104_" gradientUnits="userSpaceOnUse" x1="46.9446" y1="75.4633" x2="64.5354" y2="104.7393" gradientTransform="matrix(0.9658 -0.2595 0.2595 0.9658 -28.1746 28.1503)">
	<stop  offset="0" style="stop-color:#FFF000"/>
	<stop  offset="0.562" style="stop-color:#FFCD00"/>
	<stop  offset="0.7758" style="stop-color:#FFBE00"/>
</linearGradient>
<path id="XMLID_1501_" fill="url(#XMLID_104_)" d="M62.4062,111.325c-0.365,2.9524-24.6855-13.7445-26.9199-17.4666
	c-2.234-3.7205,1.4524-3.7858,1.4524-3.7858c-0.5977-1.0746,0.8776-3.6299,3.3009-1.5036
	C42.664,90.6964,67.4888,107.8354,62.4062,111.325z"/>
<linearGradient id="XMLID_105_" gradientUnits="userSpaceOnUse" x1="67.7501" y1="68.9631" x2="69.5092" y2="102.5287" gradientTransform="matrix(0.9658 -0.2595 0.2595 0.9658 -28.1746 28.1503)">
	<stop  offset="0" style="stop-color:#FFF000"/>
	<stop  offset="0.5796" style="stop-color:#FFCD00"/>
	<stop  offset="0.8" style="stop-color:#FFBE00"/>
</linearGradient>
<path id="XMLID_1500_" fill="url(#XMLID_105_)" d="M66.9341,108.6405c-2.7817,2.2909-15.5665-25.7629-15.3988-28.5851
	c0.1669-2.8252,3.6658-1.2933,3.6658-1.2933c1.0521-1.8263,4.0991-5.4253,5.8231,2.1395
	C62.748,88.4649,69.0376,107.9982,66.9341,108.6405z"/>
<linearGradient id="XMLID_106_" gradientUnits="userSpaceOnUse" x1="48.4235" y1="79.1665" x2="53.4956" y2="107.9319" gradientTransform="matrix(0.9658 -0.2595 0.2595 0.9658 -28.1746 28.1503)">
	<stop  offset="0" style="stop-color:#FFF000"/>
	<stop  offset="0.7245" style="stop-color:#FFCD00"/>
	<stop  offset="1" style="stop-color:#FFBE00"/>
</linearGradient>
<path id="XMLID_1499_" fill="url(#XMLID_106_)" d="M61.7961,113.6493c-0.4734,1.4002-26.0609-9.6693-29.4036-10.6234
	c-3.3434-0.9537-1.6806-5.1076-1.6806-5.1076s1.4521-3.7841,3.4897-3.0963C36.238,95.5085,63.8707,110.3131,61.7961,113.6493z"/>
<linearGradient id="XMLID_107_" gradientUnits="userSpaceOnUse" x1="33.6531" y1="102.6989" x2="64.0817" y2="102.6989" gradientTransform="matrix(0.9658 -0.2595 0.2595 0.9658 -28.1746 28.1503)">
	<stop  offset="0" style="stop-color:#FFF000"/>
	<stop  offset="0.461" style="stop-color:#FFCD00"/>
	<stop  offset="0.6364" style="stop-color:#FFBE00"/>
	<stop  offset="1" style="stop-color:#FFD400"/>
</linearGradient>
<path id="XMLID_1498_" fill="url(#XMLID_107_)" d="M61.422,115.5624c1.5393-6.0481-26.761-4.2337-30.5809-3.5142
	c-1.7831,1.4042,0.1983,3.0339,0.1983,3.0339c-0.9202,1.1724-0.876,3.6325,2.2344,3.722
	C36.3854,118.895,61.9805,120.081,61.422,115.5624z"/>
<linearGradient id="XMLID_108_" gradientUnits="userSpaceOnUse" x1="97.0374" y1="90.7629" x2="99.3538" y2="100.7961" gradientTransform="matrix(0.9658 -0.2595 0.2595 0.9658 -28.1746 28.1503)">
	<stop  offset="0" style="stop-color:#FFF000"/>
	<stop  offset="0.7069" style="stop-color:#FFCD00"/>
	<stop  offset="0.9758" style="stop-color:#FFBE00"/>
</linearGradient>
<path id="XMLID_1497_" fill="url(#XMLID_108_)" d="M77.5227,107.1174c-3.2024-0.5699,9.4191-15.4962,13.5052-17.5208
	c4.0879-2.0235,11.0317-6.0526,12.9147-5.9401c1.8823,0.1127,4.5731,0.9333,1.3153,4.8958
	C101.9998,92.5133,78.5909,110.3785,77.5227,107.1174z"/>
<linearGradient id="XMLID_109_" gradientUnits="userSpaceOnUse" x1="151.9055" y1="267.4557" x2="171.108" y2="255.4566" gradientTransform="matrix(0.7191 -0.3683 0.4559 0.8901 -165.5804 -60.7728)">
	<stop  offset="0" style="stop-color:#422600"/>
	<stop  offset="0.9879" style="stop-color:#6F5714"/>
</linearGradient>
<path id="XMLID_1496_" fill="url(#XMLID_109_)" d="M78.8861,108.0162c1.8765,3.664-1.1016,7.7683-6.0738,10.3158
	c-4.9722,2.5475-10.0569,2.5713-11.9342-1.0925c-1.8758-3.6642-0.549-6.919,6.0981-10.6324
	C72.2798,103.6442,77.0099,104.3536,78.8861,108.0162z"/>
<linearGradient id="XMLID_110_" gradientUnits="userSpaceOnUse" x1="188.1115" y1="301.6157" x2="207.7566" y2="289.3401" gradientTransform="matrix(0.6576 -0.3368 0.3391 0.6622 -161.1766 -17.8811)">
	<stop  offset="0" style="stop-color:#6B4517"/>
	<stop  offset="0.9879" style="stop-color:#B08A2B"/>
</linearGradient>
<path id="XMLID_1495_" fill="url(#XMLID_110_)" d="M77.752,106.8724c0.4057,0.7927,0.5262,1.0829,0.2708,1.869
	c-0.7309-0.0176-0.583,0.8285-0.4387,1.8636c-0.7276-0.2073-1.2526,0.3365-1.2,1.5308c-0.7851,0.0764-1.7537,0.4712-1.7684,1.4153
	c-0.7514,0.2019-2.3124,0.8895-2.7365,1.8091c-1.1025-0.1066-2.6636,0.5811-3.1457,1.7853
	c-0.7943-0.4585-2.0804-0.2467-2.9237,0.1136c-0.5776-0.6505-1.709-0.5659-2.7063-0.0785
	c-0.4564-0.9025-0.8991-0.7521-1.9983-0.9398c-1.8056-0.7233-1.423-6.2862,4.961-9.5237
	C71.668,103.8763,76.3566,104.1476,77.752,106.8724z"/>
<linearGradient id="XMLID_111_" gradientUnits="userSpaceOnUse" x1="116.044" y1="104.1606" x2="83.5118" y2="97.837" gradientTransform="matrix(0.9658 -0.2595 0.2595 0.9658 -28.1746 28.1503)">
	<stop  offset="0" style="stop-color:#FFF000"/>
	<stop  offset="0.891" style="stop-color:#FFCD00"/>
	<stop  offset="1" style="stop-color:#FFC800"/>
</linearGradient>
<path id="XMLID_1494_" fill="url(#XMLID_111_)" d="M78.5368,108.5113c-2.6021-1.5007,27.3299-20.0769,31.4261-17.4718
	c1.2504,1.2076-0.7445,2.9772-0.7445,2.9772c2.8458,1.3974,0.9074,2.2266-0.3,3.4778
	C107.7099,98.7443,78.9894,111.0536,78.5368,108.5113z"/>
<linearGradient id="XMLID_112_" gradientUnits="userSpaceOnUse" x1="33.002" y1="120.5446" x2="64.2028" y2="120.5446" gradientTransform="matrix(0.9658 -0.2595 0.2595 0.9658 -28.1746 28.1503)">
	<stop  offset="0" style="stop-color:#FFF000"/>
	<stop  offset="0.461" style="stop-color:#FFCD00"/>
	<stop  offset="0.6364" style="stop-color:#FFBE00"/>
	<stop  offset="1" style="stop-color:#FFD400"/>
</linearGradient>
<path id="XMLID_1493_" fill="url(#XMLID_112_)" d="M62.2059,118.4627c-0.7382-1.8865-19.9298,12.1614-22.9761,15.7602
	c-3.0471,3.5958-3.8466,7.5131-1.8094,8.2026c1.7153,2.9347,5.7119,4.0213,12.1706-2.9614
	C56.0505,132.4809,64.8639,118.444,62.2059,118.4627z"/>
<linearGradient id="XMLID_113_" gradientUnits="userSpaceOnUse" x1="38.756" y1="114.6682" x2="64.3459" y2="114.6682" gradientTransform="matrix(0.9658 -0.2595 0.2595 0.9658 -28.1746 28.1503)">
	<stop  offset="0.6364" style="stop-color:#FFBE00"/>
	<stop  offset="1" style="stop-color:#B8A800"/>
</linearGradient>
<path id="XMLID_1492_" fill="url(#XMLID_113_)" d="M62.4806,117.9861c-2.8528-1.2476-19.2138,11.7692-22.26,15.368
	C50.426,129.2826,64.4376,119.2729,62.4806,117.9861z"/>
<linearGradient id="XMLID_114_" gradientUnits="userSpaceOnUse" x1="30.3863" y1="110.8335" x2="63.859" y2="110.8335" gradientTransform="matrix(0.9658 -0.2595 0.2595 0.9658 -28.1746 28.1503)">
	<stop  offset="0" style="stop-color:#FFF000"/>
	<stop  offset="0.7245" style="stop-color:#FFCD00"/>
	<stop  offset="1" style="stop-color:#FFBE00"/>
</linearGradient>
<path id="XMLID_1491_" fill="url(#XMLID_114_)" d="M61.8619,117.6597c1.9983,1.1216-10.7012,8.4311-18.6855,10.8863
	c-7.9851,2.4521-13.399,2.9815-12.8109-0.5721c0.5892-3.5524,2.4842-6.8419,9.8372-8.2006
	C47.5548,118.4148,61.8942,114.9102,61.8619,117.6597z"/>
<linearGradient id="XMLID_115_" gradientUnits="userSpaceOnUse" x1="39.6205" y1="131.595" x2="67.4943" y2="114.1775" gradientTransform="matrix(0.9658 -0.2595 0.2595 0.9658 -28.1746 28.1503)">
	<stop  offset="0" style="stop-color:#FFF000"/>
	<stop  offset="0.461" style="stop-color:#FFCD00"/>
	<stop  offset="0.6364" style="stop-color:#FFBE00"/>
	<stop  offset="1" style="stop-color:#FFD400"/>
</linearGradient>
<path id="XMLID_1490_" fill="url(#XMLID_115_)" d="M64.3265,118.7567c1.6924,1.904-2.6518,9.6673-5.8103,15.145
	c-3.1586,5.4794-11.0484,17.4759-11.7102,12.7162c-1.805,0.178-3.5987-3.0487-1.2814-7.0654
	C47.8407,135.5347,61.4811,116.1398,64.3265,118.7567z"/>
<linearGradient id="XMLID_116_" gradientUnits="userSpaceOnUse" x1="67.4985" y1="141.2396" x2="65.0212" y2="112.9241" gradientTransform="matrix(0.9658 -0.2595 0.2595 0.9658 -28.1746 28.1503)">
	<stop  offset="0" style="stop-color:#FFF000"/>
	<stop  offset="0.461" style="stop-color:#FFCD00"/>
	<stop  offset="0.6364" style="stop-color:#FFBE00"/>
	<stop  offset="1" style="stop-color:#FFD400"/>
</linearGradient>
<path id="XMLID_1489_" fill="url(#XMLID_116_)" d="M66.2825,120.892c-1.1648,3.7085-1.7852,11.5869-0.4484,17.7105
	c1.3365,6.1253,3.8596,9.7681,5.7199,8.6515c2.7455-0.1208,6.2785-0.76,4.4433-6.4429c-1.8348-5.6814-6.9154-20.0938-7.085-20.6257
	C67.5371,118.4402,66.7423,118.8552,66.2825,120.892z"/>
<linearGradient id="XMLID_117_" gradientUnits="userSpaceOnUse" x1="66.2642" y1="138.0308" x2="64.113" y2="113.4427" gradientTransform="matrix(0.9658 -0.2595 0.2595 0.9658 -28.1746 28.1503)">
	<stop  offset="0.6364" style="stop-color:#FFBE00"/>
	<stop  offset="1" style="stop-color:#B8A800"/>
</linearGradient>
<path id="XMLID_1488_" fill="url(#XMLID_117_)" d="M66.0868,120.0115c-1.1648,3.7085-1.5895,12.4675-0.2527,18.591
	c0.6412,2.937,1.5546,5.3036,2.5377,6.8481C72.4915,136.8808,68.1862,120.4813,66.0868,120.0115z"/>
<linearGradient id="XMLID_118_" gradientUnits="userSpaceOnUse" x1="68.7557" y1="108.3003" x2="77.7116" y2="137.5934" gradientTransform="matrix(0.9703 -0.2416 0.2416 0.9703 -25.8704 31.4393)">
	<stop  offset="0" style="stop-color:#FFF000"/>
	<stop  offset="0.461" style="stop-color:#FFCD00"/>
	<stop  offset="0.6364" style="stop-color:#FFBE00"/>
	<stop  offset="1" style="stop-color:#FFD400"/>
</linearGradient>
<path id="XMLID_1487_" fill="url(#XMLID_118_)" d="M71.7343,118.3196c0.9131,0.5903,13.1788,22.3259,13.7545,24.6415
	c0.5777,2.3168-2.3883,2.7447-3.3275,2.672c-1.3765,1.8812-4.9185,1.2248-7.0846-2.5361
	c-2.1647-3.7614-8.0092-21.184-6.5358-23.9195C69.0035,118.6505,70.4235,117.564,71.7343,118.3196z"/>
<linearGradient id="XMLID_119_" gradientUnits="userSpaceOnUse" x1="72.1777" y1="107.5248" x2="80.6076" y2="135.0977" gradientTransform="matrix(0.9703 -0.2416 0.2416 0.9703 -25.8704 31.4393)">
	<stop  offset="0" style="stop-color:#D4BF00"/>
	<stop  offset="0.1278" style="stop-color:#E0BF00"/>
	<stop  offset="0.3778" style="stop-color:#F1BE00"/>
	<stop  offset="0.6475" style="stop-color:#FCBE00"/>
	<stop  offset="0.9697" style="stop-color:#FFBE00"/>
</linearGradient>
<path id="XMLID_1486_" fill="url(#XMLID_119_)" d="M71.8101,118.2536c0.958,1.9581,10.3019,19.1146,13.4704,24.6235
	c-5.364-4.9897-11.5638-14.2063-14.9552-24.179C70.1165,117.5458,71.8101,118.2536,71.8101,118.2536z"/>
<linearGradient id="XMLID_120_" gradientUnits="userSpaceOnUse" x1="55.0384" y1="198.1991" x2="63.9777" y2="227.4382" gradientTransform="matrix(0.8637 -0.504 0.504 0.8637 -75.2341 -25.5136)">
	<stop  offset="0" style="stop-color:#FFF000"/>
	<stop  offset="0.461" style="stop-color:#FFCD00"/>
	<stop  offset="0.6364" style="stop-color:#FFBE00"/>
	<stop  offset="1" style="stop-color:#FFD400"/>
</linearGradient>
<path id="XMLID_1485_" fill="url(#XMLID_120_)" d="M76.7032,115.5843c1.0415,0.3094,18.4733,17.1616,19.6758,19.2216
	c1.2023,2.0624-1.5241,3.3055-2.4462,3.499c-0.7946,2.1905-4.3795,2.5543-7.5123-0.4498
	c-3.1308-3.0028-12.9968-18.146-12.3501-21.1859C74.1298,115.1301,74.9603,114.9124,76.7032,115.5843z"/>
<linearGradient id="XMLID_121_" gradientUnits="userSpaceOnUse" x1="55.0384" y1="198.1991" x2="63.8043" y2="226.8711" gradientTransform="matrix(0.8637 -0.504 0.504 0.8637 -75.2341 -25.5136)">
	<stop  offset="0" style="stop-color:#DBBF00"/>
	<stop  offset="0.9697" style="stop-color:#FFBE00"/>
</linearGradient>
<path id="XMLID_1484_" fill="url(#XMLID_121_)" d="M76.7032,115.5843c1.0415,0.3094,18.4733,17.1616,19.6758,19.2216
	c0.6549,1.123-6.2271-3.4086-12.7107-9.9243c7.2196,8.1307,10.6845,13.3347,10.2646,13.4232
	c-0.7946,2.1905-4.3795,2.5543-7.5123-0.4498c-3.1308-3.0028-12.9968-18.146-12.3501-21.1859
	C74.1298,115.1301,74.9603,114.9124,76.7032,115.5843z"/>
<linearGradient id="XMLID_122_" gradientUnits="userSpaceOnUse" x1="70.9418" y1="51.8548" x2="91.1076" y2="51.8548" gradientTransform="matrix(0.9992 -0.039 0.039 0.9992 -0.8991 81.5253)">
	<stop  offset="0" style="stop-color:#FFF000"/>
	<stop  offset="0.461" style="stop-color:#FFCD00"/>
	<stop  offset="0.6364" style="stop-color:#FFBE00"/>
	<stop  offset="1" style="stop-color:#FFD400"/>
</linearGradient>
<path id="XMLID_1483_" fill="url(#XMLID_122_)" d="M71.9515,117.2542c3.5162-2.1807,17.8797,16.2174,20.1163,20.0095
	c1.6414,3.813-1.6199,4.867-2.5136,4.9018c-1.0972,2.4284-6.192,1.4048-7.8544-3.006
	C80.0342,134.7498,69.2936,118.9635,71.9515,117.2542z"/>
<linearGradient id="XMLID_123_" gradientUnits="userSpaceOnUse" x1="73.5115" y1="161.5171" x2="93.409" y2="161.5171" gradientTransform="matrix(0.929 -0.3699 0.3699 0.929 -47.0842 3.3661)">
	<stop  offset="0" style="stop-color:#FFF000"/>
	<stop  offset="0.461" style="stop-color:#FFCD00"/>
	<stop  offset="0.6364" style="stop-color:#FFBE00"/>
	<stop  offset="1" style="stop-color:#FFD400"/>
</linearGradient>
<path id="XMLID_1482_" fill="url(#XMLID_123_)" d="M76.5007,114.0485c2.5877-3.2293,22.2644,9.6674,25.6382,12.4973
	c2.8178,3.0468-1.0043,3.9282-1.836,4.2586c-0.2256,2.6568-4.2697,4.5883-7.3086,0.9849
	C89.9551,128.1875,75.5894,118.0627,76.5007,114.0485z"/>
<linearGradient id="XMLID_124_" gradientUnits="userSpaceOnUse" x1="80.9991" y1="116.3784" x2="106.7762" y2="116.3784" gradientTransform="matrix(0.9658 -0.2595 0.2595 0.9658 -28.1746 28.1503)">
	<stop  offset="0" style="stop-color:#FFF000"/>
	<stop  offset="0.461" style="stop-color:#FFCD00"/>
	<stop  offset="0.6364" style="stop-color:#FFBE00"/>
	<stop  offset="1" style="stop-color:#FFD400"/>
</linearGradient>
<path id="XMLID_1481_" fill="url(#XMLID_124_)" d="M78.4554,111.8713c-1.3017-3.3661,21.9914,0.2676,26.739,3.0044
	c1.981,1.6281,0.2158,4.0976-1.2238,4.4844c-0.3784,3.1888-2.8195,4.906-7.8559,2.2452
	C91.0775,118.9446,76.6287,113.5469,78.4554,111.8713z"/>
<linearGradient id="XMLID_125_" gradientUnits="userSpaceOnUse" x1="81.2504" y1="110.2418" x2="96.9005" y2="110.2418" gradientTransform="matrix(0.9658 -0.2595 0.2595 0.9658 -28.1746 28.1503)">
	<stop  offset="0" style="stop-color:#DEBD00"/>
	<stop  offset="0.9697" style="stop-color:#FFBE00"/>
</linearGradient>
<path id="XMLID_1480_" fill="url(#XMLID_125_)" d="M78.4554,111.8713c-0.8257-2.1361,8.2503-1.4535,16.2079,0.0299
	C92.0764,111.948,85.1695,113.6022,78.4554,111.8713z"/>
<linearGradient id="XMLID_126_" gradientUnits="userSpaceOnUse" x1="113.5033" y1="110.4769" x2="81.7818" y2="110.4769" gradientTransform="matrix(0.9658 -0.2595 0.2595 0.9658 -28.1746 28.1503)">
	<stop  offset="0" style="stop-color:#FFF000"/>
	<stop  offset="1" style="stop-color:#FFD400"/>
</linearGradient>
<path id="XMLID_1479_" fill="url(#XMLID_126_)" d="M78.6916,110.1651c-2.9637-1.9825,23.2001-8.587,29.1574-7.0987
	c2.7108,2.0489,2.7323,3.2766,2.1009,4.3731c1.5596,2.3583,0.2191,4.2651-2.969,3.8864
	C103.7909,110.9461,77.1045,112.445,78.6916,110.1651z"/>
<linearGradient id="XMLID_127_" gradientUnits="userSpaceOnUse" x1="64.462" y1="111.3611" x2="56.9925" y2="139.2377" gradientTransform="matrix(0.9658 -0.2595 0.2595 0.9658 -28.1746 28.1503)">
	<stop  offset="0" style="stop-color:#FFF000"/>
	<stop  offset="0.461" style="stop-color:#FFCD00"/>
	<stop  offset="0.6364" style="stop-color:#FFBE00"/>
	<stop  offset="1" style="stop-color:#FFD400"/>
</linearGradient>
<path id="XMLID_1478_" fill="url(#XMLID_127_)" d="M65.5647,118.9701c-3.1065,0.4318-6.4699,15.8084-6.7699,19.2861
	s2.2084,10.5187,2.6857,8.8485c1.4615,0.8425,2.6339,1.7627,4.0092-2.3109C66.8657,140.7202,68.4862,120.0986,65.5647,118.9701z"/>
<radialGradient id="XMLID_128_" cx="218.0235" cy="-79.0127" r="78.9301" gradientTransform="matrix(0.9955 -0.0943 0.0378 0.3994 2.9806 175.7253)" gradientUnits="userSpaceOnUse">
	<stop  offset="0" style="stop-color:#6F5714"/>
	<stop  offset="1" style="stop-color:#422600"/>
</radialGradient>
<path id="XMLID_1477_" fill="url(#XMLID_128_)" d="M295.61,116.1676c1.6487,17.4117-32.1935,34.8558-75.5888,38.9656
	c-43.3944,4.1083-79.9097-6.6748-81.5585-24.0856c-1.6487-17.4116,32.1943-34.8558,75.5888-38.9648
	C257.4467,87.9736,293.9619,98.7567,295.61,116.1676z"/>
</svg>
