<?xml version="1.0" encoding="utf-8"?>
<!-- Generator: Adobe Illustrator 19.0.0, SVG Export Plug-In . SVG Version: 6.00 Build 0)  -->
<svg version="1.1" id="Layer_1" xmlns="http://www.w3.org/2000/svg" xmlns:xlink="http://www.w3.org/1999/xlink" x="0px" y="0px"
	 viewBox="-159 76.6667 639.3333 409.3333" enable-background="new -159 76.6667 639.3333 409.3333" xml:space="preserve">
<path fill="#3C2415" d="M56.3119,312.254c0,0-57.8119,25.0877-82.3119-10.0873c0,0-23-29.5-27-75.5c0,0-38.5,89,4,128.5s71,33,71,33
	L56.3119,312.254z"/>
<path fill="#3C2415" d="M260.5152,311.254c0,0,57.8119,25.0877,82.3119-10.0873c0,0,23-29.5,27-75.5c0,0,38.5,89-4,128.5
	s-71,33-71,33L260.5152,311.254z"/>
<g id="XMLID_13320_">
	<g id="XMLID_13384_">
		<path id="XMLID_13386_" fill="#D9791D" d="M333.6043,431.8341c-4.2221-39.9981-15.5592-68.8508-24.2926-87.8133
			C252.054,219.7177,67.206,220.9058,9.2377,344.0149c-8.8855,18.8703-20.2743,47.835-24.7405,87.8192
			c-1.0728,9.6043-1.6704,21.6858-1.9554,33.8586c53.0266,3.3823,112.9936,5.2882,176.4982,5.2882
			c63.4867,0,123.4359-1.9052,176.4508-5.2853C335.1869,453.3703,334.5949,441.2195,333.6043,431.8341z"/>
	</g>
	<g id="XMLID_13347_">
		<g id="XMLID_13380_">
			<path id="XMLID_13382_" fill="#B7671D" d="M331.9259,418.81c-52.1327,3.24-110.8166,5.0627-172.8859,5.0627
				c-62.0309,0-120.6819-1.8198-172.7897-5.0568c-0.661,4.2048-1.2521,8.5378-1.7531,13.0182
				c-1.0728,9.6043-1.6704,15.5617-1.9554,27.7346c53.0266,3.3823,112.9936,5.2882,176.4982,5.2882
				c63.4867,0,123.4359-1.9052,176.4508-5.2853c-0.3038-12.3261-0.8958-18.3522-1.8864-27.7375
				C333.1315,427.3508,332.5644,423.0155,331.9259,418.81z"/>
		</g>
		<g id="XMLID_13349_">
			<g id="XMLID_13376_">
				<ellipse id="XMLID_13378_" fill="#3C2415" cx="4.9595" cy="441.8335" rx="12.4505" ry="9.7731"/>
			</g>
			<g id="XMLID_13372_">
				<ellipse id="XMLID_13374_" fill="#3C2415" cx="261.7208" cy="442.7754" rx="12.4503" ry="9.7731"/>
			</g>
			<g id="XMLID_13368_">
				<ellipse id="XMLID_13370_" fill="#3C2415" cx="159.0162" cy="445.131" rx="12.4505" ry="9.7731"/>
			</g>
			<g id="XMLID_13364_">
				<ellipse id="XMLID_13366_" fill="#3C2415" cx="107.6641" cy="445.131" rx="12.4503" ry="9.7731"/>
			</g>
			<g id="XMLID_13359_">
				<ellipse id="XMLID_13361_" fill="#3C2415" cx="56.3119" cy="442.7754" rx="12.4505" ry="9.7731"/>
			</g>
			<g id="XMLID_13355_">
				<ellipse id="XMLID_13357_" fill="#3C2415" cx="210.3686" cy="445.131" rx="12.4505" ry="9.7731"/>
			</g>
			<g id="XMLID_13351_">
				<ellipse id="XMLID_13353_" fill="#3C2415" cx="313.0729" cy="441.8335" rx="12.4505" ry="9.7731"/>
			</g>
		</g>
	</g>
	<g id="XMLID_13322_">
		<g id="XMLID_13343_">
			<path id="XMLID_13345_" fill="#B7671D" d="M192.3333,253.8322c-22-3.5562-44-3.4471-66,0.3117v174.1894h66V253.8322z"/>
		</g>
		<g id="XMLID_13324_">
			<g id="XMLID_13339_">
				<ellipse id="XMLID_13341_" fill="#3C2415" cx="159.0155" cy="402.6435" rx="12.4512" ry="9.7727"/>
			</g>
			<g id="XMLID_13334_">
				<ellipse id="XMLID_13337_" fill="#3C2415" cx="159.0155" cy="281.719" rx="12.4512" ry="9.7727"/>
			</g>
			<g id="XMLID_13330_">
				<ellipse id="XMLID_13332_" fill="#3C2415" cx="159.0155" cy="322.0267" rx="12.4512" ry="9.7727"/>
			</g>
			<g id="XMLID_13326_">
				<ellipse id="XMLID_13328_" fill="#3C2415" cx="159.0155" cy="362.3351" rx="12.4512" ry="9.7727"/>
			</g>
		</g>
	</g>
</g>
</svg>
