<?xml version="1.0" encoding="utf-8"?>
<!-- Generator: Adobe Illustrator 19.0.0, SVG Export Plug-In . SVG Version: 6.00 Build 0)  -->
<svg version="1.1" id="Layer_1" xmlns="http://www.w3.org/2000/svg" xmlns:xlink="http://www.w3.org/1999/xlink" x="0px" y="0px"
	 viewBox="119 41 661 381" style="enable-background:new 119 41 661 381;" xml:space="preserve">
<style type="text/css">
	.st0{fill:#3C2415;}
	.st1{fill-rule:evenodd;clip-rule:evenodd;fill:#D9791D;}
	.st2{fill-rule:evenodd;clip-rule:evenodd;fill:#B7671D;}
	.st3{fill-rule:evenodd;clip-rule:evenodd;fill:#3C2415;}
</style>
<g id="XMLID_13320_">
	<g id="XMLID_13388_">
		<g id="XMLID_13395_">
			<path id="XMLID_13397_" class="st0" d="M332.3,251.7c-81.9,2.6-133.1-36.3-155.5-106.2c-9.4-29.3-6.6-60.2-0.8-88.1
				c-37.5,44.5-49.4,101.5-26.1,156c32.2,75.4,122.1,122.9,218.3,122.3L332.3,251.7z"/>
		</g>
		<g id="XMLID_13391_">
			<path id="XMLID_13393_" class="st0" d="M565.8,251.7c81.9,2.6,133.1-36.3,155.5-106.2c9.4-29.3,6.6-60.2,0.8-88.1
				c37.5,44.5,49.4,101.5,26.1,156C715.9,288.8,626,336.3,529.9,335.7L565.8,251.7z"/>
		</g>
	</g>
	<g id="XMLID_13384_">
		<path id="XMLID_13386_" class="st1" d="M623.6,377.2c-4.2-40-15.6-68.9-24.3-87.8c-57.3-124.3-242.1-123.1-300.1,0
			c-8.9,18.9-20.3,47.8-24.7,87.8c-1.1,9.6-1.7,21.7-2,33.9c53,3.4,113,5.3,176.5,5.3c63.5,0,123.4-1.9,176.5-5.3
			C625.2,398.7,624.6,386.6,623.6,377.2z"/>
	</g>
	<g id="XMLID_13347_">
		<g id="XMLID_13380_">
			<path id="XMLID_13382_" class="st2" d="M621.9,364.1c-52.1,3.2-110.8,5.1-172.9,5.1c-62,0-120.7-1.8-172.8-5.1
				c-0.7,4.2-1.3,8.5-1.8,13c-1.1,9.6-1.7,15.6-2,27.7c53,3.4,113,5.3,176.5,5.3c63.5,0,123.4-1.9,176.5-5.3
				c-0.3-12.3-0.9-18.4-1.9-27.7C623.1,372.7,622.6,368.4,621.9,364.1z"/>
		</g>
		<g id="XMLID_13349_">
			<g id="XMLID_13376_">
				<ellipse id="XMLID_13378_" class="st3" cx="295" cy="387.2" rx="12.5" ry="9.8"/>
			</g>
			<g id="XMLID_13372_">
				<ellipse id="XMLID_13374_" class="st3" cx="551.7" cy="388.1" rx="12.5" ry="9.8"/>
			</g>
			<g id="XMLID_13368_">
				<ellipse id="XMLID_13370_" class="st3" cx="449" cy="390.5" rx="12.5" ry="9.8"/>
			</g>
			<g id="XMLID_13364_">
				<ellipse id="XMLID_13366_" class="st3" cx="397.7" cy="390.5" rx="12.5" ry="9.8"/>
			</g>
			<g id="XMLID_13359_">
				<ellipse id="XMLID_13361_" class="st3" cx="346.3" cy="388.1" rx="12.5" ry="9.8"/>
			</g>
			<g id="XMLID_13355_">
				<ellipse id="XMLID_13357_" class="st3" cx="500.4" cy="390.5" rx="12.5" ry="9.8"/>
			</g>
			<g id="XMLID_13351_">
				<ellipse id="XMLID_13353_" class="st3" cx="603.1" cy="387.2" rx="12.5" ry="9.8"/>
			</g>
		</g>
	</g>
	<g id="XMLID_13322_">
		<g id="XMLID_13343_">
			<path id="XMLID_13345_" class="st2" d="M481.8,199.2c-21.6-3.6-44-3.4-65.6,0.3v174.2h65.6V199.2z"/>
		</g>
		<g id="XMLID_13324_">
			<g id="XMLID_13339_">
				<ellipse id="XMLID_13341_" class="st3" cx="449" cy="348" rx="12.5" ry="9.8"/>
			</g>
			<g id="XMLID_13334_">
				<ellipse id="XMLID_13337_" class="st3" cx="449" cy="227.1" rx="12.5" ry="9.8"/>
			</g>
			<g id="XMLID_13330_">
				<ellipse id="XMLID_13332_" class="st3" cx="449" cy="267.4" rx="12.5" ry="9.8"/>
			</g>
			<g id="XMLID_13326_">
				<ellipse id="XMLID_13328_" class="st3" cx="449" cy="307.7" rx="12.5" ry="9.8"/>
			</g>
		</g>
	</g>
</g>
</svg>
