<?xml version="1.0" encoding="utf-8"?>
<!-- Generator: Adobe Illustrator 19.0.0, SVG Export Plug-In . SVG Version: 6.00 Build 0)  -->
<svg version="1.1" id="Layer_1" xmlns="http://www.w3.org/2000/svg" xmlns:xlink="http://www.w3.org/1999/xlink" x="0px" y="0px"
	 viewBox="0 0 639.3333 409.3333" enable-background="new 0 0 639.3333 409.3333" xml:space="preserve">
<g id="XMLID_13320_">
	<g id="XMLID_13388_">
		<g id="XMLID_13395_">
			<path id="XMLID_13397_" fill="#3C2415" d="M201.2726,229.6674c-81.8967,2.6496-133.0768-36.327-155.506-106.1971
				c-9.4076-29.3049-6.5939-60.17-0.7545-88.0509C7.5466,79.8791-4.383,136.9381,18.8725,191.3954
				c32.2152,75.4418,122.1481,122.9263,218.2966,122.3315L201.2726,229.6674z"/>
		</g>
		<g id="XMLID_13391_">
			<path id="XMLID_13393_" fill="#3C2415" d="M434.7603,229.6674c81.8972,2.6496,133.0759-36.327,155.506-106.1971
				c9.4075-29.3049,6.5944-60.17,0.7549-88.0509c37.465,44.4598,49.3946,101.5188,26.1391,155.9761
				c-32.2161,75.4418-122.149,122.9263-218.2965,122.3315L434.7603,229.6674z"/>
		</g>
	</g>
	<g id="XMLID_13384_">
		<path id="XMLID_13386_" fill-rule="evenodd" clip-rule="evenodd" fill="#D9791D" d="M492.6043,355.1674
			c-4.2221-39.9981-15.5592-68.8508-24.2926-87.8133c-57.2577-124.3031-242.1057-123.115-300.074-0.0059
			c-8.8855,18.8703-20.2743,47.835-24.7405,87.8192c-1.0728,9.6043-1.6704,21.6858-1.9554,33.8586
			c53.0266,3.3823,112.9936,5.2882,176.4982,5.2882c63.4867,0,123.4359-1.9052,176.4508-5.2853
			C494.1869,376.7036,493.5949,364.5528,492.6043,355.1674z"/>
	</g>
	<g id="XMLID_13347_">
		<g id="XMLID_13380_">
			<path id="XMLID_13382_" fill-rule="evenodd" clip-rule="evenodd" fill="#B7671D" d="M490.9259,342.1433
				c-52.1327,3.24-110.8166,5.0627-172.8859,5.0627c-62.0309,0-120.6819-1.8198-172.7897-5.0568
				c-0.661,4.2048-1.2521,8.5378-1.7531,13.0182c-1.0728,9.6043-1.6704,15.5617-1.9554,27.7346
				c53.0266,3.3823,112.9936,5.2882,176.4982,5.2882c63.4867,0,123.4359-1.9052,176.4508-5.2853
				c-0.3038-12.3261-0.8958-18.3522-1.8864-27.7375C492.1315,350.6841,491.5644,346.3488,490.9259,342.1433z"/>
		</g>
		<g id="XMLID_13349_">
			<g id="XMLID_13376_">
				
					<ellipse id="XMLID_13378_" fill-rule="evenodd" clip-rule="evenodd" fill="#3C2415" cx="163.9595" cy="365.1668" rx="12.4505" ry="9.7731"/>
			</g>
			<g id="XMLID_13372_">
				
					<ellipse id="XMLID_13374_" fill-rule="evenodd" clip-rule="evenodd" fill="#3C2415" cx="420.7208" cy="366.1087" rx="12.4503" ry="9.7731"/>
			</g>
			<g id="XMLID_13368_">
				
					<ellipse id="XMLID_13370_" fill-rule="evenodd" clip-rule="evenodd" fill="#3C2415" cx="318.0162" cy="368.4643" rx="12.4505" ry="9.7731"/>
			</g>
			<g id="XMLID_13364_">
				
					<ellipse id="XMLID_13366_" fill-rule="evenodd" clip-rule="evenodd" fill="#3C2415" cx="266.6641" cy="368.4643" rx="12.4503" ry="9.7731"/>
			</g>
			<g id="XMLID_13359_">
				
					<ellipse id="XMLID_13361_" fill-rule="evenodd" clip-rule="evenodd" fill="#3C2415" cx="215.3119" cy="366.1087" rx="12.4505" ry="9.7731"/>
			</g>
			<g id="XMLID_13355_">
				
					<ellipse id="XMLID_13357_" fill-rule="evenodd" clip-rule="evenodd" fill="#3C2415" cx="369.3686" cy="368.4643" rx="12.4505" ry="9.7731"/>
			</g>
			<g id="XMLID_13351_">
				
					<ellipse id="XMLID_13353_" fill-rule="evenodd" clip-rule="evenodd" fill="#3C2415" cx="472.0729" cy="365.1668" rx="12.4505" ry="9.7731"/>
			</g>
		</g>
	</g>
	<g id="XMLID_13322_">
		<g id="XMLID_13343_">
			<path id="XMLID_13345_" fill-rule="evenodd" clip-rule="evenodd" fill="#B7671D" d="M351.3333,177.1655
				c-22-3.5562-44-3.4471-66,0.3117v174.1894h66V177.1655z"/>
		</g>
		<g id="XMLID_13324_">
			<g id="XMLID_13339_">
				
					<ellipse id="XMLID_13341_" fill-rule="evenodd" clip-rule="evenodd" fill="#3C2415" cx="318.0155" cy="325.9768" rx="12.4512" ry="9.7727"/>
			</g>
			<g id="XMLID_13334_">
				
					<ellipse id="XMLID_13337_" fill-rule="evenodd" clip-rule="evenodd" fill="#3C2415" cx="318.0155" cy="205.0523" rx="12.4512" ry="9.7727"/>
			</g>
			<g id="XMLID_13330_">
				
					<ellipse id="XMLID_13332_" fill-rule="evenodd" clip-rule="evenodd" fill="#3C2415" cx="318.0155" cy="245.36" rx="12.4512" ry="9.7727"/>
			</g>
			<g id="XMLID_13326_">
				
					<ellipse id="XMLID_13328_" fill-rule="evenodd" clip-rule="evenodd" fill="#3C2415" cx="318.0155" cy="285.6684" rx="12.4512" ry="9.7727"/>
			</g>
		</g>
	</g>
</g>
</svg>
