<?xml version="1.0" encoding="utf-8"?>
<!-- Generator: Adobe Illustrator 19.0.0, SVG Export Plug-In . SVG Version: 6.00 Build 0)  -->
<svg version="1.1" id="Layer_1" xmlns="http://www.w3.org/2000/svg" xmlns:xlink="http://www.w3.org/1999/xlink" x="0px" y="0px"
	 viewBox="0 0 502.6667 287.3333" enable-background="new 0 0 502.6667 287.3333" xml:space="preserve">
<g id="XMLID_11707_">
	<path id="XMLID_11736_" fill="#FBB040" d="M29.6667,210.9093c0-3.1781,0.3743-6.4101,1.3926-9.4104
		c1.0159-3.0168,2.3596-5.8606,3.9846-8.5463c3.2978-5.3518,7.3424-10.0888,11.6668-14.5079
		c8.7061-8.8037,18.4162-16.3782,28.3356-23.5644c9.9656-7.1291,20.2268-13.7658,30.4329-20.3863
		c5.0933-3.32,10.2071-6.5878,15.1448-9.9941c4.9066-3.3576,9.6029-7.0949,14.3342-10.8781
		c18.7957-15.2807,37.3381-31.1501,56.6703-46.1489c9.6852-7.4863,19.5858-14.7441,30.0342-21.3924
		c5.2384-3.3085,10.6143-6.4639,16.3477-9.1903c2.8692-1.3584,5.8334-2.6057,8.9774-3.6167
		c3.1495-0.9882,6.4817-1.7987,10.2191-1.8329c3.7382,0.0342,7.0697,0.8447,10.2217,1.8329
		c3.1422,1.0111,6.1042,2.2584,8.9774,3.6151c5.7333,2.7281,11.108,5.8835,16.3456,9.1903
		c10.4492,6.6499,20.3504,13.9078,30.0365,21.394c19.3295,14.9988,37.8766,30.8682,56.6713,46.1489
		c4.7223,3.7782,9.4448,7.5304,14.3367,10.8781c4.9376,3.4063,10.0544,6.6741,15.1486,9.9941
		c10.2047,6.6205,20.4743,13.2572,30.4441,20.3863c9.9177,7.1862,19.6461,14.7607,28.3537,23.5661
		c4.3246,4.4174,8.4077,9.1544,11.7048,14.5062c3.2253,5.3289,5.743,11.4829,5.6029,17.981
		c-0.0132,0.6996-0.52,1.2523-1.2179,1.2378c-0.6783-0.0147-1.1657-0.5577-1.1657-1.228v-0.0099
		c0-5.7789-2.7543-11.279-6.0352-16.1351c-3.2841-4.9001-7.3877-9.3127-11.7253-13.4252
		c-8.7304-8.2086-18.5653-15.3052-28.6003-22.0251c-10.0317-6.7526-20.3824-13.0811-30.7729-19.4291
		c-5.1985-3.1749-10.3918-6.3807-15.5446-9.7822c-5.218-3.4342-10.1026-7.1749-14.9554-10.9058
		c-9.6762-7.4961-19.1156-15.1845-28.5766-22.8175c-9.4675-7.6265-18.9584-15.1895-28.6086-22.4981
		c-9.647-7.2923-19.3951-14.4474-29.5215-20.8168c-5.0616-3.1699-10.2177-6.1588-15.488-8.6391
		c-2.6342-1.236-5.2988-2.3367-7.9536-3.1781c-2.6432-0.8332-5.3159-1.4025-7.6779-1.4025c-2.3621,0-5.0339,0.5707-7.6763,1.4025
		c-2.6546,0.8414-5.3199,1.9421-7.9527,3.1781c-5.271,2.4803-10.4288,5.4692-15.4895,8.6391
		c-10.1262,6.3694-19.8751,13.5245-29.5219,20.8168c-9.647,7.3086-19.1405,14.8716-28.6065,22.4981
		c-9.4641,7.6314-18.8991,15.3214-28.5778,22.8175c-4.8414,3.7244-9.7472,7.4829-14.9514,10.9058
		c-5.1528,3.4015-10.3431,6.6073-15.5408,9.7822c-10.3914,6.348-20.7313,12.6765-30.7639,19.4291
		c-10.0349,6.7198-19.8498,13.8164-28.5803,22.0251c-4.3391,4.1125-8.4043,8.5251-11.6908,13.4252
		c-3.2784,4.8641-5.8035,10.3349-5.9609,16.1563c-0.0187,0.698-0.4487,1.2508-1.1475,1.2296
		c-0.6759-0.018-1.0799-0.5626-1.0799-1.2296V210.9093z"/>
	<path id="XMLID_11734_" d="M364.738,267.5774c0,0-26.8828-21.6908-107.5303-21.6908c-80.6477,0-107.5288,21.6908-107.5288,21.6908
		S29.423,245.8866,29.423,213.3438c0-32.5412,72.6378-68.5605,97.6226-86.7731c31.6028-23.041,101.8133-86.7763,130.1621-86.7763
		c28.3462,0,98.5586,63.7353,130.1605,86.7763c24.9846,18.2126,97.6233,54.2319,97.6233,86.7731
		C484.9915,245.8866,364.738,267.5774,364.738,267.5774z"/>
	<path id="XMLID_11732_" fill="#FFFFFF" d="M191.3337,197.1661c0,0-6.9678,14.6335,8.1899,16.0292
		c15.1544,1.3926,11.0598-22.8274,11.0598-22.8274l96.0938-53.4867c0,0,27.8743,12.8919,32.0553,0
		c4.1809-12.8935-14.6335-13.5898-14.6335-13.5898s3.4832-12.5446-6.2747-16.7287c-9.7545-4.181-19.5122,21.43-19.5122,21.43
		l-91.9968,52.7938c0,0-26.4817-15.6787-30.6627,0C171.47,196.4667,191.3337,197.1661,191.3337,197.1661z"/>
	<path id="XMLID_11730_" d="M191.3337,197.1661l-0.7885-0.3734c-0.022,0.0588-1.6721,3.483-1.6811,7.3819
		c-0.0033,2.1183,0.5071,4.4256,2.1483,6.2992c1.6404,1.8785,4.3383,3.214,8.4321,3.5874c0.4485,0.0391,0.883,0.062,1.3053,0.062
		c2.3425,0.0048,4.2861-0.636,5.8142-1.7269c2.2999-1.6404,3.6281-4.207,4.3994-6.9433c0.7729-2.7493,0.9947-5.7122,0.9955-8.2951
		c0-3.8841-0.5111-6.904-0.516-6.9351l-0.8594,0.1451l0.4248,0.7599l96.093-53.485l-0.424-0.7616l-0.3652,0.7893
		c0.0195,0.0082,3.1373,1.4529,7.4682,2.9009c4.3343,1.4464,9.8622,2.9057,14.7836,2.9106
		c2.4589-0.0015,4.7842-0.3635,6.7346-1.3468c1.9535-0.9751,3.5059-2.6237,4.2625-4.9865c0.4435-1.3617,0.649-2.6206,0.649-3.7816
		c0.0097-2.6155-1.0795-4.7028-2.6449-6.2111c-2.3514-2.2747-5.6943-3.4114-8.4533-4.0375
		c-2.7623-0.6163-4.9474-0.6978-4.9833-0.6978l-0.0294,0.8706l0.8382,0.2333c0.013-0.0473,0.6358-2.2911,0.6392-5.2571
		c-0.0034-2.0759-0.3032-4.5169-1.3893-6.8032c-1.0795-2.2861-2.9776-4.4059-6.0204-5.7023
		c-0.8349-0.3587-1.6958-0.5332-2.5471-0.5317c-1.2979,0-2.5568,0.3996-3.7375,1.0501c-2.0708,1.1448-3.9527,3.0609-5.6681,5.2703
		c-2.5569,3.3232-4.7256,7.3412-6.265,10.5422c-1.5425,3.1976-2.4459,5.5751-2.4524,5.5914l0.8153,0.3082l-0.4338-0.7534
		l-91.996,52.7921l0.433,0.7551l0.4435-0.7502c-0.0212-0.0114-2.9906-1.7691-7.1219-3.5336c-4.136-1.766-9.416-3.5466-14.1759-3.558
		c-2.3799,0.0032-4.6547,0.4548-6.5527,1.6616c-1.903,1.2017-3.3633,3.1716-4.0986,5.9551
		c-0.4143,1.5589-0.6075,2.9922-0.6075,4.3114c-0.0074,3.1325,1.1106,5.6111,2.7632,7.4472c2.4818,2.7575,6.066,4.1451,9.0101,4.892
		c2.9482,0.7419,5.2865,0.8234,5.3273,0.8267L191.3337,197.1661l-0.7885-0.3734L191.3337,197.1661l0.0294-0.8708l-0.0359-0.0015
		c-0.4216-0.013-4.4021-0.256-8.1696-1.8361c-1.8842-0.7893-3.7032-1.9079-5.0249-3.4504
		c-1.3216-1.5459-2.1826-3.4928-2.1882-6.1346c0-1.1495,0.168-2.4312,0.5495-3.8597c0.6587-2.4459,1.8304-3.9592,3.3492-4.936
		c1.5198-0.9718,3.4529-1.3893,5.6176-1.3893c4.3244-0.0065,9.4708,1.691,13.492,3.4145c2.0121,0.8626,3.7472,1.7204,4.9766,2.3646
		c0.614,0.3276,1.1015,0.5918,1.4358,0.7778c0.1655,0.0945,0.2935,0.1695,0.3799,0.2201l0.1272,0.0735
		c0.2698,0.1581,0.6041,0.1581,0.8773,0.0032l91.9994-52.7938c0.1695-0.0962,0.3032-0.256,0.3782-0.4435
		c0,0,0.0294-0.0815,0.0913-0.2381c0.4632-1.1757,2.6548-6.5536,5.7399-11.5873c1.5394-2.5145,3.3103-4.9426,5.1595-6.7003
		c0.9229-0.8821,1.8622-1.59,2.7917-2.071c0.9261-0.4826,1.8296-0.7354,2.7101-0.7354c0.6163,0,1.2295,0.1239,1.8655,0.3931
		c2.6481,1.1415,4.1908,2.8829,5.1234,4.8479c0.9361,1.9583,1.2263,4.1484,1.2231,6.0546c0,1.3599-0.1436,2.5715-0.287,3.4341
		c-0.075,0.4288-0.1499,0.7746-0.1989,1.0094l-0.0653,0.2658l-0.0195,0.0651l-0.0033,0.0147
		c-0.0717,0.256-0.0195,0.5333,0.1371,0.7469c0.1598,0.2152,0.4042,0.3456,0.6684,0.3572l0.1566,0.0048
		c0.7859,0.0456,4.4907,0.3375,7.8955,1.6698c1.7023,0.6669,3.32,1.5883,4.4712,2.8096c1.1545,1.2295,1.8753,2.7151,1.8819,4.7223
		c0,0.9539-0.1696,2.0286-0.5609,3.2451c-0.6394,1.9356-1.7939,3.1504-3.3918,3.9674c-1.598,0.8072-3.6625,1.161-5.9518,1.161
		c-4.5789,0.0032-9.9926-1.4025-14.229-2.8228c-2.12-0.7076-3.9496-1.417-5.2443-1.947c-0.6489-0.2658-1.161-0.4876-1.51-0.6409
		c-0.1794-0.0782-0.3131-0.1401-0.4043-0.1793l-0.1337-0.0603c-0.2545-0.119-0.5447-0.106-0.7925,0.0294l-96.0898,53.4899
		c-0.3213,0.1762-0.4974,0.5415-0.4361,0.9067l0.0212,0.1224c0.0912,0.5951,0.472,3.2514,0.472,6.5191
		c0.0032,3.3053-0.4021,7.2303-1.8044,10.2079c-0.698,1.4904-1.6299,2.7363-2.8585,3.6102
		c-1.2311,0.8708-2.7688,1.4008-4.8048,1.4041c-0.3669,0-0.7492-0.018-1.1446-0.0523c-3.8084-0.3587-6.0023-1.5442-7.2824-2.9988
		c-1.2785-1.4611-1.7147-3.2971-1.7155-5.1544c-0.0023-1.6992,0.3742-3.3738,0.7591-4.618
		c0.1909-0.6197,0.3832-1.1301,0.5235-1.4806c0.0718-0.1795,0.1312-0.3148,0.1703-0.4061l0.0457-0.1044l0.013-0.0246
		c0.1264-0.2657,0.1125-0.5739-0.0408-0.8267c-0.1533-0.2495-0.4208-0.4076-0.715-0.4191L191.3337,197.1661z"/>
	<path id="XMLID_11728_" fill="#FFFFFF" d="M323.0817,197.1661c0,0,6.966,14.6335-8.1924,16.0292
		c-15.1519,1.3926-11.059-22.8274-11.059-22.8274l-96.0931-53.4867c0,0-27.875,12.8919-32.0567,0
		c-4.181-12.8935,14.6366-13.5898,14.6366-13.5898s-3.488-12.5446,6.2707-16.7287c9.7594-4.181,19.513,21.43,19.513,21.43
		l91.9985,52.7938c0,0,26.4817-15.6787,30.6627,0C342.9428,196.4667,323.0817,197.1661,323.0817,197.1661z"/>
	<path id="XMLID_11726_" d="M323.0817,197.1661l-0.7861,0.375l0.0099,0.0246c0.1566,0.3244,1.51,3.4194,1.5034,6.609
		c-0.0033,1.8573-0.437,3.6934-1.7154,5.1544c-1.2817,1.4545-3.4767,2.6401-7.2826,2.9988
		c-0.3979,0.0342-0.7826,0.0523-1.148,0.0523c-2.035-0.0033-3.571-0.5333-4.8038-1.4041c-1.8394-1.3061-3.0233-3.4731-3.731-5.9958
		c-0.711-2.516-0.9327-5.3453-0.9294-7.8223c0-1.8653,0.1239-3.5368,0.2444-4.7337c0.0653-0.6001,0.1241-1.0795,0.1696-1.409
		c0.0229-0.1646,0.0424-0.2919,0.0555-0.3765l0.0195-0.1224c0.062-0.3652-0.114-0.7305-0.437-0.9067l-96.0915-53.4899
		c-0.243-0.1354-0.534-0.1484-0.7875-0.0294l-0.1346,0.0603c-0.6768,0.3082-3.8622,1.7122-7.9657,3.0363
		c-4.1003,1.3225-9.13,2.5551-13.4219,2.5536c-2.2886,0-4.3538-0.3538-5.9503-1.161c-1.598-0.817-2.7533-2.0318-3.3908-3.9674
		c-0.3939-1.2164-0.5642-2.2911-0.5642-3.2451c0.0089-2.1393,0.8259-3.6934,2.1181-4.9636c1.9348-1.8949,5.02-3.0069,7.62-3.5825
		c1.3004-0.2919,2.477-0.4599,3.3209-0.548c0.424-0.0504,0.7623-0.0766,0.997-0.0928l0.265-0.018l0.0832-0.0015
		c0.265-0.0115,0.513-0.1419,0.6703-0.3572c0.1581-0.2136,0.2087-0.4909,0.1354-0.7469l-0.0042-0.0147
		c-0.0546-0.2037-0.5691-2.2258-0.5691-4.7744c0-1.9031,0.2887-4.0963,1.2198-6.0546c0.9393-1.965,2.4785-3.7064,5.1307-4.8479
		c0.6318-0.2692,1.2458-0.3931,1.8615-0.3931c0.9416,0,1.9071,0.2887,2.8984,0.8349c1.7342,0.9506,3.5019,2.702,5.1244,4.8105
		c2.4419,3.1586,4.5722,7.0966,6.0798,10.2289c0.7549,1.5688,1.355,2.9368,1.7651,3.912c0.2047,0.4859,0.3612,0.8773,0.4689,1.1415
		c0.105,0.2675,0.1573,0.4044,0.1573,0.4044c0.0733,0.1875,0.2079,0.3473,0.3815,0.4435l91.9968,52.7938
		c0.2707,0.155,0.6066,0.155,0.8773-0.0032l0.1272-0.0735c0.6425-0.3702,3.6625-2.079,7.5564-3.6852
		c3.8939-1.603,8.675-3.0983,12.7287-3.0918c2.1624,0,4.0963,0.4174,5.616,1.3893c1.5165,0.9768,2.6905,2.4901,3.3494,4.936
		c0.3782,1.4285,0.5479,2.7102,0.5479,3.8565c-0.0034,2.7281-0.9229,4.719-2.3188,6.2877
		c-2.0872,2.3465-5.3648,3.6738-8.1368,4.3636c-1.3828,0.3473-2.6319,0.5447-3.5353,0.649c-0.4468,0.0538-0.8088,0.0847-1.06,0.1044
		l-0.2772,0.0162l-0.0913,0.0048c-0.2902,0.0115-0.5577,0.1696-0.7141,0.4191c-0.1501,0.2528-0.1663,0.5611-0.0392,0.8267
		L323.0817,197.1661l0.0326,0.8725c0.0521-0.0065,4.1841-0.1451,8.4174-1.8132c2.1166-0.8382,4.269-2.0629,5.916-3.9054
		c1.6568-1.8361,2.772-4.3164,2.7655-7.4504c0-1.3176-0.1957-2.751-0.6098-4.3082c-0.7339-2.7835-2.1916-4.7534-4.0962-5.9551
		c-1.9014-1.2067-4.1744-1.6584-6.552-1.6616c-4.7614,0.0114-10.0414,1.792-14.1768,3.558
		c-4.132,1.7645-7.1031,3.5222-7.1226,3.5336l0.4435,0.7502l0.437-0.7551l-92.0008-52.7921l-0.4346,0.7534l0.8162-0.3082
		c-0.0107-0.0244-2.1053-5.5295-5.3551-11.0787c-1.6257-2.7703-3.5359-5.5589-5.6632-7.6965
		c-1.0631-1.0698-2.1817-1.9763-3.3656-2.6287c-1.1822-0.6506-2.4386-1.0501-3.7398-1.0501
		c-0.8479-0.0015-1.7099,0.173-2.5488,0.5317c-3.0395,1.2964-4.9392,3.4162-6.0154,5.7023
		c-1.0852,2.2863-1.3869,4.7305-1.3894,6.8032c0.0025,2.966,0.6238,5.2099,0.6377,5.2571l0.8397-0.2333l-0.0342-0.8706
		c-0.0464,0.0032-3.9143,0.1386-7.8735,1.518c-1.9797,0.6931-3.9959,1.6975-5.5614,3.2173
		c-1.5646,1.5083-2.6531,3.5955-2.6441,6.2111c0,1.161,0.2047,2.4198,0.649,3.7816c0.7566,2.3627,2.3098,4.0113,4.2608,4.9865
		c1.952,0.9833,4.2756,1.3454,6.7362,1.3468c4.9213-0.0048,10.4475-1.4642,14.7811-2.9106c4.3309-1.448,7.4519-2.8927,7.4716-2.9009
		l-0.3654-0.7893l-0.424,0.7616l96.093,53.485l0.4241-0.7599l-0.8578-0.1451c-0.0065,0.0311-0.5186,3.0493-0.5186,6.9351
		c0.0065,3.4424,0.3914,7.5629,1.9667,10.9466c0.7957,1.6893,1.898,3.201,3.4276,4.2918s3.4733,1.7317,5.8148,1.7269
		c0.424,0,0.8578-0.0229,1.3078-0.062c4.093-0.3734,6.79-1.7089,8.4305-3.5874c1.6436-1.8737,2.1492-4.181,2.1492-6.2992
		c-0.0098-3.8989-1.6601-7.3232-1.6828-7.3819L323.0817,197.1661l0.0326,0.8725L323.0817,197.1661z"/>
	<path id="XMLID_11724_" fill="#FFFFFF" d="M293.7692,160.2712c0,0,9.7348,25.2065,4.8397,32.0145
		c-8.7989,12.225-13.5995,23.7471-22.5584,26.3333c-4.8649,1.4039-14.5363-3.8353-19.6002-3.9838
		c-5.5589-0.163-16.6759,6.4981-21.8189,4.3767c-7.3779-3.0477-10.5096-14.2436-17.7513-26.542
		c-3.8647-6.5601,4.1835-30.1652,4.1835-30.1652"/>
	<path id="XMLID_11722_" d="M292.9114,160.599c0,0,0.0945,0.2446,0.2642,0.7011c0.5871,1.5916,2.0677,5.7319,3.3983,10.5308
		c1.3273,4.8006,2.4948,10.2877,2.4915,14.4752c0.0098,2.4068-0.4043,4.3555-1.2034,5.4398
		c-4.4321,6.159-7.8401,12.1093-11.2156,16.7794c-1.6893,2.3399-3.3656,4.3521-5.1364,5.9209
		c-1.7741,1.5669-3.6299,2.6889-5.7138,3.2921c-0.4664,0.1321-1.0241,0.2007-1.6502,0.2007
		c-2.3579,0.008-5.6298-0.9785-8.8308-2.0171c-1.6061-0.5203-3.2025-1.0453-4.7011-1.4579
		c-1.4953-0.4093-2.8896-0.7076-4.136-0.7452l-0.2333-0.0048c-1.3607,0-2.8749,0.3244-4.5039,0.7843
		c-2.4377,0.6898-5.1267,1.7057-7.7104,2.5372c-2.5805,0.8365-5.0656,1.4808-6.9645,1.4757c-0.821,0-1.5223-0.1157-2.0832-0.3488
		c-1.6796-0.6931-3.1422-1.8623-4.5226-3.4554c-2.0709-2.3905-3.9168-5.7365-5.9062-9.655
		c-1.9942-3.9168-4.1427-8.3961-6.8822-13.0485c-0.609-1.0109-0.9302-2.7949-0.9221-4.9636
		c-0.0057-4.5316,1.2857-10.6841,2.5862-15.6575c0.6507-2.4851,1.3013-4.6864,1.7897-6.2617
		c0.243-0.7876,0.446-1.4186,0.5869-1.8556c0.1411-0.4321,0.2211-0.6637,0.2211-0.6637c0.1646-0.4859-0.093-1.006-0.5741-1.1692
		c-0.4802-0.1598-1.002,0.093-1.1658,0.5724c-0.005,0.0147-1.3193,3.8712-2.6367,8.9165
		c-1.3159,5.0484-2.6424,11.2645-2.6466,16.1189c0.0082,2.3333,0.2887,4.3668,1.1757,5.898
		c3.5915,6.092,6.1737,11.9413,8.8153,16.7173c1.3208,2.3856,2.6571,4.5056,4.1679,6.2535
		c1.5066,1.7481,3.2001,3.1228,5.2107,3.9527c0.8569,0.3538,1.797,0.4859,2.786,0.4859c3.0443-0.0097,6.6602-1.2523,10.1678-2.4476
		c1.7473-0.6001,3.4569-1.1919,5.0085-1.6322c1.5484-0.4386,2.9425-0.7158,4.0025-0.7142l0.1785,0.0015
		c0.9873,0.0277,2.2764,0.2887,3.7066,0.6833c2.1475,0.5886,4.618,1.4627,7.0525,2.1998c2.4444,0.7305,4.8439,1.3355,6.9637,1.3372
		c0.7534,0,1.4806-0.0766,2.159-0.274c2.397-0.6915,4.5005-1.9795,6.4246-3.6787c2.8831-2.5584,5.3877-6.0368,8.0033-10.009
		c2.6221-3.9722,5.3485-8.4434,8.6229-12.9946c1.1707-1.6469,1.5392-3.92,1.5491-6.5128
		c-0.0033-5.1528-1.5818-11.695-3.1439-17.0059c-1.5654-5.3029-3.1277-9.3452-3.1342-9.3616
		c-0.1825-0.4745-0.7108-0.711-1.187-0.5266C292.9635,159.5929,292.7321,160.1294,292.9114,160.599z"/>
	<path id="XMLID_11720_" fill="#FFFFFF" d="M202.9871,130.2055c-0.3456,6.3545,4.119,19.196,6.0685,24.7172
		c2.3529,6.6775-9.2923,19.7438,4.0659,25.5538c13.3566,5.8068,20.3252-5.81,20.3252-5.81s-3.0281,18.5633,1.7439,19.1682
		c2.1418,0.2707,2.9017-8.132,2.9017-8.132s0.4624,11.3884,3.4838,11.6135c3.0462,0.2314,5.2279-11.0329,5.2279-11.0329
		s0.7207,12.5542,4.0661,12.776c3.0468,0.207,5.2278-11.0312,5.2278-11.0312s1.0037,9.2881,3.4855,9.2881
		c2.4803,0,3.4815-9.2881,3.4815-9.2881s0.6131,8.781,2.9074,8.7092c2.2519-0.0718,2.322-8.7092,2.322-8.7092
		s5.1341,7.8368,7.5508,6.9677c2.0644-0.7484,1.161-8.7124,1.161-8.7124s4.7061,5.6777,6.3889,4.6457
		c4.0147-2.4509-2.9026-18.5845-2.9026-18.5845s12.7745,13.3582,21.4854,3.483c8.7109-9.8719,1.0631-16.2216,2.3253-22.0675
		c1.5197-7.046,7.1487-17.7952,7.1421-24.0699c-0.0195-16.5918-12.7516-38.3478-54.1561-38.3478
		C215.8821,91.3424,203.8978,113.5369,202.9871,130.2055z"/>
	<path id="XMLID_11718_" d="M202.9871,130.2055l-0.9384-0.0489c-0.0147,0.2526-0.0204,0.5136-0.0204,0.7809
		c0.0057,3.4716,1.081,8.1647,2.3758,12.7191c1.2964,4.5446,2.8234,8.9148,3.7627,11.5776
		c0.1843,0.5251,0.2723,1.1301,0.2723,1.8052c0.0073,1.8279-0.6579,4.1679-1.3632,6.6579c-0.698,2.4965-1.43,5.1528-1.4325,7.7798
		c-0.0025,1.8997,0.3987,3.8059,1.5207,5.5181c1.1203,1.7154,2.927,3.1911,5.5824,4.3439c2.7753,1.2099,5.3266,1.7057,7.6184,1.7057
		c4.5902,0,8.0816-1.9877,10.3824-3.9413c2.3065-1.9617,3.47-3.8939,3.5059-3.951l-0.8063-0.4859l-0.9296-0.1499
		c-0.0023,0.0244-0.9571,5.8524-0.9588,11.1813c0.0017,2.1051,0.1436,4.1304,0.5903,5.7626
		c0.2268,0.8154,0.5283,1.3288,0.989,1.9289c0.4517,0.5968,1.1301,0.9439,1.9339,0.9439h0.0025l0.2169,0.2284
		c0.5837,0.005,1.0665-0.1865,1.3867-0.5208c0.5659-0.5953,0.8928-1.3123,1.188-2.1797c0.4305-1.2979,0.7125-2.7841,0.8977-3.9907
		c0.1842-1.2051,0.2657-2.0835,0.2665-2.0965l-0.9376-0.078l-0.9401,0.041c0.0017,0.0244,0.1165,2.8927,0.6213,5.8459
		c0.2551,1.4772,0.6016,2.9719,1.1186,4.1932c0.261,0.6083,0.5617,1.1566,0.9695,1.6083c0.3994,0.4468,0.9613,0.8221,1.6444,0.8742
		l0.1631,0.0051c0.6743-0.0017,1.2507-0.3099,1.7-0.7078c0.7891-0.6995,1.3624-1.7105,1.8907-2.8616
		c0.7778-1.7204,1.3844-3.762,1.8084-5.386c0.4223-1.6274,0.6555-2.8324,0.6587-2.8438l-0.9229-0.181l-0.9393,0.0554
		c0.0008,0.0212,0.181,3.1829,0.7925,6.4246c0.3091,1.6242,0.7167,3.2629,1.3069,4.5887c0.2969,0.6652,0.6369,1.2555,1.082,1.7332
		c0.4386,0.4779,1.0394,0.866,1.7611,0.9132l0.146,0.0065c0.6751,0,1.2523-0.3146,1.7007-0.7093
		c0.7901-0.6978,1.3674-1.7088,1.8949-2.8602c0.7803-1.7252,1.3876-3.7618,1.8124-5.3875c0.4248-1.6225,0.6572-2.8293,0.6597-2.8406
		l-0.923-0.1793l-0.9368,0.0993c0.004,0.0212,0.2551,2.3678,0.834,4.7649c0.2927,1.2018,0.6564,2.415,1.157,3.4015
		c0.2535,0.4924,0.5372,0.9376,0.9164,1.3044c0.3717,0.3603,0.8968,0.6637,1.5148,0.6637c0.6165,0,1.1432-0.3034,1.5133-0.6637
		c0.6539-0.644,1.0598-1.5165,1.4235-2.4982c0.5331-1.4692,0.8952-3.1945,1.1333-4.5707c0.2381-1.3697,0.349-2.3905,0.349-2.402
		l-0.9376-0.0993l-0.9361,0.062c0.0017,0.0229,0.1533,2.2258,0.6018,4.4777c0.2282,1.1268,0.5201,2.2651,0.9506,3.2026
		c0.2169,0.4695,0.468,0.7188,0.8154,1.0791c0.3375,0.3522,0.8463,0.4838,1.4464,0.4838h0.0342h0.0229
		c0.5968,0,1.1007-0.1676,1.4187-0.5393c0.5674-0.6507,0.8528-1.3957,1.1007-2.3235c0.3505-1.3893,0.5235-2.9538,0.6163-4.2387
		c0.0897-1.2817,0.0995-2.2058,0.0995-2.2222l-0.9409,0.0076l-0.7876,0.519c0.0147,0.0179,1.1757,1.798,2.6873,3.6081
		c0.7551,0.9065,1.5973,1.8211,2.4549,2.5419c0.4338,0.357,0.8676,0.6707,1.3208,0.9105c0.4534,0.2316,0.9327,0.1316,1.4709,0.1348
		c0.2381,0,0.4827-0.3984,0.7207-0.3984h0.0034c0.5609,0,0.9327-0.3627,1.1773-0.7982c0.3685-0.6652,0.538-1.3016,0.6522-2.1382
		c0.1142-0.8366,0.15-1.6618,0.15-2.5147c0-1.9909-0.2022-3.7179-0.2054-3.7359l-0.9327,0.1199l-0.724,0.6118
		c0.0099,0.013,1.0176,1.2305,2.2895,2.4632c0.6425,0.6181,1.3468,1.2431,2.0578,1.7389c0.3589,0.2461,0.7175,0.4641,1.0894,0.6272
		c0.375,0.1646,0.7597,0.2826,1.2001,0.2876c0.3099,0.0015,0.6621-0.0764,0.9653-0.2641c0.6816-0.4141,1.1187-1.0792,1.3632-1.7967
		c0.248-0.7257,0.3393-1.5279,0.3393-2.3937c-0.0065-2.971-1.0763-6.7998-2.1265-9.9584c-1.0501-3.1487-2.0969-5.5914-2.1034-5.6078
		l-0.8643,0.3702l-0.6816,0.649c0.0294,0.0309,1.7676,1.8491,4.4353,3.6869c2.671,1.8312,6.2682,3.7146,10.123,3.726
		c2.8471,0.013,5.815-1.1039,8.3163-3.951c3.382-3.8206,4.4745-7.307,4.4647-10.397c-0.0032-2.2454-0.5479-4.2478-1.0631-6.053
		c-0.5185-1.8034-0.9947-3.4129-0.9882-4.8332c0-0.4158,0.0392-0.8154,0.1239-1.2131c0.7274-3.3918,2.5015-7.8288,4.106-12.1891
		c0.7958-2.1867,1.7-4.3571,2.261-6.4019c0.5641-2.0433,1.077-3.9577,1.077-5.6682v-0.3665h-0.8333l0.8333,0.3716v-0.3716h-0.8333
		l0.8333,0.3716v-0.0147c0-8.5282-3.4317-18.3921-12.0089-26.0937c-8.574-7.708-22.4366-13.2001-43.2981-13.1951
		c-20.8649-0.005-34.5161,5.6013-43.0101,13.4299c-8.4948,7.8256-11.8195,17.7937-12.2833,26.3252l0.9296,0.0489l0.9357,0.0538
		c0.4468-8.1435,3.5843-17.6028,11.6609-25.0435c8.0767-7.4374,21.155-12.9276,41.6978-12.9326
		c20.5485,0.0033,33.8215,5.2125,41.9682,12.5324c8.1467,7.3216,11.2346,16.5178,11.2476,24.5178h0.9392l-0.7786,0.3422v0.0244
		c0,1.4318-0.4098,3.214-0.9511,5.1691c-0.8089,2.9336-2.1144,6.2568-3.3275,9.5116c-1.2099,3.2581-2.3912,6.441-2.9846,9.1823
		c-0.1174,0.5397-0.1763,1.0779-0.1763,1.6093c0.0032,1.8247,0.5493,3.5678,1.0581,5.3518c0.512,1.784,0.9889,3.6021,0.9857,5.5343
		c-0.0099,2.6499-0.8525,5.5721-3.9964,9.1464c-2.2046,2.4801-4.5273,3.307-6.9048,3.3215
		c-3.2123,0.0098-6.5522-1.6648-9.0569-3.3982c-1.249-0.8594-2.2961-1.7252-3.0233-2.3743c-0.362-0.3244-0.646-0.5919-0.835-0.7761
		l-0.2153-0.2137l-0.0555-0.0538l-0.0132-0.0164c-0.3163-0.3276-0.8217-0.383-1.1969-0.1336
		c-0.3815,0.2511-0.525,0.7387-0.3488,1.1562c0,0,0.062,0.1451,0.1728,0.4141c0.3914,0.9506,1.3794,3.4195,2.26,6.2274
		c0.887,2.8014,1.6534,5.9715,1.6469,8.1826c0.0034,0.7272-0.0815,1.3437-0.2348,1.779c-0.1533,0.4403-0.3425,0.6719-0.5642,0.804
		l0.0588,0.0994l-0.0294-0.1109l-0.0326,0.013l0.062,0.0979l-0.0294-0.1109l-0.0164,0.0017
		c-0.0555,0.0017-0.2184-0.0277-0.437-0.1272c-0.3881-0.1663-0.9164-0.5218-1.4512-0.9636
		c-0.8089-0.6604-1.6437-1.5051-2.2699-2.1769c-0.3099-0.336-0.5707-0.6295-0.7534-0.8366l-0.2054-0.243l-0.0718-0.0815
		c-0.2642-0.3213-0.711-0.429-1.0925-0.2658c-0.3815,0.1615-0.6131,0.5609-0.5674,0.9735c0,0,0.0097,0.0962,0.0292,0.2854
		c0.0555,0.5577,0.1598,1.8703,0.1598,3.2726c0.0033,1.06-0.062,2.1771-0.2445,2.9973c-0.0848,0.4093-0.2022,0.7467-0.3131,0.9408
		l-0.1403,0.1925l-0.0359,0.0294l0,0l-0.0848,0.0114c-0.0945,0.0049-0.3164-0.0441-0.6001-0.194
		c-0.5023-0.2593-1.1577-0.7958-1.8132-1.4529c-0.9882-0.9867-1.9854-2.239-2.7241-3.2337
		c-0.3717-0.5006-0.6766-0.9342-0.8918-1.2458c-0.106-0.1533-0.1892-0.2787-0.248-0.3587l-0.0815-0.1256
		c-0.2283-0.349-0.6572-0.5054-1.0518-0.3881c-0.3994,0.1191-0.6734,0.4794-0.6768,0.8935c0,0-0.0015,0.1256-0.008,0.3555
		c-0.018,0.8007-0.1077,2.8455-0.4208,4.6311c-0.1533,0.8918-0.3702,1.7187-0.6197,2.2388
		c-0.119,0.2642-0.2478,0.4387-0.3229,0.5088l-0.0635,0.0521l0.0244,0.0489l-0.0016-0.0571l-0.0227,0.0082l0.0244,0.0489
		l-0.0016-0.0571l0.031,0.7119l-0.0065-1.1733h-0.0245l0.7253,0.5332v-0.5332h-0.7253l0.7253,0.5332v-0.0718v0.0604l0.0147-0.0588
		l-0.0147-0.0017v0.0604l-0.3471-0.0588l-0.1843-0.0017c-0.0227-0.0049-0.2404-0.0979-0.3839-0.3179
		c-0.2545-0.3734-0.5769-1.0697-0.7955-1.8573c-0.3341-1.1986-0.5883-2.6269-0.7286-3.744
		c-0.0718-0.5577-0.1335-1.0386-0.1646-1.3811c-0.0164-0.1696-0.0334-0.3066-0.0399-0.3962l-0.0142-0.1386
		c-0.0344-0.4861-0.4336-0.8643-0.9228-0.8741c-0.4876-0.0097-0.9009,0.3555-0.9547,0.8382c0,0-0.0134,0.1352-0.0444,0.3832
		c-0.1109,0.8641-0.4241,3.0607-0.9638,4.9783c-0.2642,0.9573-0.5954,1.8459-0.9312,2.4184
		c-0.168,0.2885-0.3343,0.4891-0.4517,0.5853l-0.1566,0.0898c-0.0017,0-0.0506,0.0097-0.2104-0.1388
		c-0.2755-0.2461-0.6588-0.9294-0.9605-1.7822c-0.4664-1.2817-0.821-2.9336-1.0468-4.2463
		c-0.1151-0.6572-0.1974-1.2345-0.2536-1.6421c-0.0261-0.2039-0.0464-0.3685-0.0603-0.4794l-0.0179-0.1663
		c-0.0506-0.4615-0.4313-0.817-0.8969-0.8382c-0.4657-0.0212-0.8741,0.3034-0.963,0.7633c0,0-0.0311,0.1581-0.0945,0.4548
		c-0.2194,1.0323-0.821,3.6461-1.6706,5.9437c-0.4208,1.1463-0.9124,2.2176-1.4008,2.9335
		c-0.2413,0.3588-0.4836,0.2288-0.6759,0.3739c-0.1974,0.1499-0.3114-0.2214-0.379-0.2214h-0.0204
		c-0.1134,0-0.2675,0.3306-0.5096,0.0778c-0.4166-0.4353-0.8912-1.2199-1.2507-2.4134c-0.5504-1.7953-0.918-3.9568-1.1349-5.7507
		c-0.1102-0.8968-0.1835-1.6285-0.2299-2.1862c-0.0229-0.2789-0.0384-0.476-0.0506-0.6244
		c-0.009-0.1516-0.0155-0.2176-0.0155-0.2176c-0.026-0.4745-0.4027-0.8466-0.8748-0.8808
		c-0.4737-0.0311-0.8969,0.2981-0.9865,0.7645c-0.0008,0-0.0311,0.1647-0.0947,0.4581c-0.2192,1.0323-0.8194,3.6454-1.6673,5.9462
		c-0.4208,1.1446-0.909,2.2148-1.3991,2.9324c-0.2413,0.357-0.4819,0.6029-0.6743,0.7464
		c-0.1957,0.1468-0.3106,0.1479-0.3759,0.1479h-0.0229h0.0017c-0.0733,0-0.1859-0.014-0.3897-0.2357
		c-0.3547-0.3702-0.7681-1.2488-1.0713-2.3267c-0.4695-1.6225-0.7648-3.668-0.9344-5.2939
		c-0.0855-0.8103-0.1418-1.5184-0.1752-2.019c-0.0147-0.2543-0.0286-0.455-0.0351-0.5888c-0.0065-0.1386-0.009-0.2063-0.009-0.2063
		c-0.0204-0.4974-0.4216-0.8885-0.9172-0.9015c-0.4974-0.0114-0.9157,0.3605-0.9613,0.8563c0,0-0.0107,0.1143-0.0342,0.3344
		c-0.08,0.7534-0.3188,2.676-0.7452,4.349c-0.2087,0.8317-0.4729,1.6045-0.7412,2.0921c-0.1296,0.243-0.2617,0.4078-0.3375,0.4729
		l0.1324,0.0424l0.2376,0.1125v-0.1207l-0.0498,0.0082l0.0498,0.1125v-0.1207v0.1306l0.0162-0.1289l-0.0162-0.0017v0.1306
		l-0.3595-0.6976h0.0017c-0.2469,0-0.4305,0.1458-0.6816-0.1656c-0.3669-0.4615-0.7085-1.2553-0.9034-2.4538
		c-0.2014-1.1969-0.2845-2.577-0.2829-4.087c0-2.5536,0.2323-5.251,0.4679-7.335c0.1176-1.0388,0.2333-1.9031,0.3221-2.5195
		c0.0432-0.3114,0.08-0.5423,0.1052-0.712c0.0252-0.1646,0.0391-0.245,0.0391-0.245c0.0726-0.4452-0.1802-0.8783-0.6065-1.0315
		c-0.4225-0.1566-0.8977,0.0108-1.1293,0.4005l-0.0057,0.0104c-0.0995,0.1581-1.228,1.9376-3.3013,3.6382
		c-2.079,1.7023-5.0623,3.3283-8.9677,3.3283c-2.0203,0-4.3024-0.4321-6.8683-1.5475c-2.4125-1.0501-3.8744-2.3008-4.7557-3.6478
		c-0.8806-1.3485-1.2141-2.8421-1.2156-4.489c-0.0042-2.2699,0.6627-4.7926,1.3632-7.271c0.6938-2.4851,1.4252-4.9132,1.4325-7.1667
		c0-0.8349-0.1052-1.6551-0.3784-2.428c-0.9376-2.6548-2.4509-6.9922-3.7284-11.4732c-1.2792-4.4697-2.3107-9.1071-2.3041-12.2006
		c0-0.2364,0.0057-0.4613,0.0172-0.6783L202.9871,130.2055z"/>
	<path id="XMLID_11716_" d="M216.9421,146.6994c1.4602,5.5687,15.3558,19.7831,24.8739,17.2864
		c9.5124-2.4931,14.6431-21.6989,13.1846-27.2675c-1.4619-5.5704-20.4907-0.5789-20.4907-0.5789
		S215.4819,141.1292,216.9421,146.6994z"/>
	<path id="XMLID_11713_" d="M207.5985,149.0737c12.5714-1.9209,28.533-6.1069,45.1533-11.7456
		c16.6186-5.6389,39.2562-14.8781,54.3886-22.6105c0.6913-0.3555,0.9686-1.2034,0.6131-1.898
		c-0.3555-0.6948-1.2034-0.967-1.9014-0.6131c-14.9726,7.6543-37.5089,16.8494-54.0077,22.449
		c-16.4973,5.5964-32.3488,9.748-44.6716,11.6265c-0.7704,0.119-1.3004,0.8382-1.1839,1.6095
		C206.1073,148.6627,206.8281,149.1927,207.5985,149.0737z"/>
	<path id="XMLID_11711_" fill-rule="evenodd" clip-rule="evenodd" d="M278.3172,161.2856
		c7.0214-5.3224,10.5827-8.3067,12.856-12.2478c3.1993-5.5458,1.2589-10.2438-2.7883-12.083
		c-3.8059-1.722-8.3098-0.106-10.0676,3.6199c-1.7611-3.726-6.2682-5.342-10.0766-3.6199
		c-4.0392,1.8393-5.9746,6.5372-2.7787,12.083C267.7318,152.9789,271.2931,155.9632,278.3172,161.2856z"/>
	<path id="XMLID_11709_" fill-rule="evenodd" clip-rule="evenodd" d="M250.7201,170.1937
		c-1.9763,3.4342-0.7811,6.3416,1.7195,7.4798c2.3604,1.0648,5.1504,0.0636,6.2388-2.2388c1.0909,2.3025,3.876,3.3036,6.2323,2.2388
		c2.5032-1.1381,3.7032-4.0455,1.7237-7.4798c-1.404-2.4394-3.6087-4.287-7.956-7.5808
		C254.3312,165.9067,252.1257,167.7543,250.7201,170.1937z"/>
</g>
</svg>
