<?xml version="1.0" encoding="utf-8"?>
<!-- Generator: Adobe Illustrator 19.0.0, SVG Export Plug-In . SVG Version: 6.00 Build 0)  -->
<svg version="1.1" id="Layer_1" xmlns="http://www.w3.org/2000/svg" xmlns:xlink="http://www.w3.org/1999/xlink" x="0px" y="0px"
	 viewBox="-154 96 513 367" style="enable-background:new -154 96 513 367;" xml:space="preserve">
<style type="text/css">
	.st0{fill:#FBB040;}
	.st1{fill:#FFFFFF;}
	.st2{fill-rule:evenodd;clip-rule:evenodd;}
</style>
<g id="XMLID_11707_">
	<path id="XMLID_11736_" class="st0" d="M-114,334.2c-0.1-3.2,0.5-6.4,1.5-9.4c1-3,2.4-5.9,4.1-8.5c3.3-5.4,7.4-10.1,11.7-14.5
		c8.7-8.8,18.4-16.4,28.4-23.6c10-7.1,20.2-13.8,30.4-20.4c5.1-3.3,10.2-6.6,15.1-10c4.9-3.4,9.6-7.1,14.3-10.9
		c18.8-15.3,37.3-31.2,56.7-46.1c9.7-7.5,19.6-14.7,30-21.4c5.2-3.3,10.6-6.5,16.3-9.2c2.9-1.4,5.8-2.6,9-3.6
		c3.1-1,6.5-1.8,10.2-1.8c3.7,0,7.1,0.8,10.2,1.8c3.1,1,6.1,2.3,9,3.6c5.7,2.7,11.1,5.9,16.3,9.2c10.4,6.6,20.4,13.9,30,21.4
		c19.3,15,37.9,30.9,56.7,46.1c4.7,3.8,9.4,7.5,14.3,10.9c4.9,3.4,10.1,6.7,15.1,10c10.2,6.6,20.5,13.3,30.4,20.4
		c9.9,7.2,19.6,14.8,28.4,23.6c4.3,4.4,8.4,9.2,11.7,14.5c3.2,5.3,5.7,11.5,5.6,18c0,0.7-0.6,1.3-1.3,1.2c-0.7,0-1.2-0.6-1.2-1.2v0
		c-0.2-5.8-2.7-11.3-6-16.1c-3.3-4.9-7.4-9.3-11.7-13.4c-8.7-8.2-18.5-15.3-28.6-22c-10-6.8-20.4-13.1-30.8-19.4
		c-5.2-3.2-10.4-6.4-15.5-9.8c-5.2-3.4-10.1-7.2-15-10.9c-9.7-7.5-19.1-15.2-28.6-22.8c-9.5-7.6-19-15.2-28.6-22.5
		c-9.6-7.3-19.4-14.4-29.5-20.8c-5.1-3.2-10.2-6.2-15.5-8.6c-2.6-1.2-5.3-2.3-8-3.2c-2.6-0.8-5.3-1.4-7.7-1.4c-2.4,0-5,0.6-7.7,1.4
		c-2.7,0.8-5.3,1.9-8,3.2c-5.3,2.5-10.4,5.5-15.5,8.6c-10.1,6.4-19.9,13.5-29.5,20.8c-9.6,7.3-19.1,14.9-28.6,22.5
		c-9.5,7.6-18.9,15.3-28.6,22.8c-4.8,3.7-9.7,7.5-15,10.9c-5.2,3.4-10.3,6.6-15.5,9.8c-10.4,6.3-20.7,12.7-30.8,19.4
		c-10,6.7-19.8,13.8-28.6,22c-4.3,4.1-8.4,8.5-11.7,13.4c-3.3,4.9-5.8,10.3-6,16.2c0,0.7-0.6,1.3-1.3,1.2
		C-113.4,335.5-114,335-114,334.2L-114,334.2z"/>
	<path id="XMLID_11734_" d="M221.4,390.9c0,0-26.9-21.7-107.5-21.7c-80.6,0-107.5,21.7-107.5,21.7s-120.3-21.7-120.3-54.2
		c0-32.5,72.6-68.6,97.6-86.8c31.6-23,101.8-86.8,130.2-86.8c28.3,0,98.6,63.7,130.2,86.8c25,18.2,97.6,54.2,97.6,86.8
		C341.7,369.2,221.4,390.9,221.4,390.9z"/>
	<path id="XMLID_11732_" class="st1" d="M48,320.5c0,0-7,14.6,8.2,16c15.2,1.4,11.1-22.8,11.1-22.8l96.1-53.5c0,0,27.9,12.9,32.1,0
		c4.2-12.9-14.6-13.6-14.6-13.6s3.5-12.5-6.3-16.7c-9.8-4.2-19.5,21.4-19.5,21.4l-92,52.8c0,0-26.5-15.7-30.7,0
		C28.1,319.8,48,320.5,48,320.5z"/>
	<path id="XMLID_11730_" d="M48,320.5l-0.8-0.4c0,0.1-1.7,3.5-1.7,7.4c0,2.1,0.5,4.4,2.1,6.3c1.6,1.9,4.3,3.2,8.4,3.6
		c0.4,0,0.9,0.1,1.3,0.1c2.3,0,4.3-0.6,5.8-1.7c2.3-1.6,3.6-4.2,4.4-6.9c0.8-2.7,1-5.7,1-8.3c0-3.9-0.5-6.9-0.5-6.9l-0.9,0.1
		l0.4,0.8l96.1-53.5l-0.4-0.8L163,261c0,0,3.1,1.5,7.5,2.9c4.3,1.4,9.9,2.9,14.8,2.9c2.5,0,4.8-0.4,6.7-1.3c2-1,3.5-2.6,4.3-5
		c0.4-1.4,0.6-2.6,0.6-3.8c0-2.6-1.1-4.7-2.6-6.2c-2.4-2.3-5.7-3.4-8.5-4c-2.8-0.6-4.9-0.7-5-0.7l0,0.9l0.8,0.2c0,0,0.6-2.3,0.6-5.3
		c0-2.1-0.3-4.5-1.4-6.8c-1.1-2.3-3-4.4-6-5.7c-0.8-0.4-1.7-0.5-2.5-0.5c-1.3,0-2.6,0.4-3.7,1.1c-2.1,1.1-4,3.1-5.7,5.3
		c-2.6,3.3-4.7,7.3-6.3,10.5c-1.5,3.2-2.4,5.6-2.5,5.6l0.8,0.3l-0.4-0.8l-92,52.8l0.4,0.8l0.4-0.8c0,0-3-1.8-7.1-3.5
		c-4.1-1.8-9.4-3.5-14.2-3.6c-2.4,0-4.7,0.5-6.6,1.7c-1.9,1.2-3.4,3.2-4.1,6c-0.4,1.6-0.6,3-0.6,4.3c0,3.1,1.1,5.6,2.8,7.4
		c2.5,2.8,6.1,4.1,9,4.9c2.9,0.7,5.3,0.8,5.3,0.8L48,320.5l-0.8-0.4L48,320.5l0-0.9l0,0c-0.4,0-4.4-0.3-8.2-1.8
		c-1.9-0.8-3.7-1.9-5-3.5c-1.3-1.5-2.2-3.5-2.2-6.1c0-1.1,0.2-2.4,0.5-3.9c0.7-2.4,1.8-4,3.3-4.9c1.5-1,3.5-1.4,5.6-1.4
		c4.3,0,9.5,1.7,13.5,3.4c2,0.9,3.7,1.7,5,2.4c0.6,0.3,1.1,0.6,1.4,0.8c0.2,0.1,0.3,0.2,0.4,0.2l0.1,0.1c0.3,0.2,0.6,0.2,0.9,0
		l92-52.8c0.2-0.1,0.3-0.3,0.4-0.4c0,0,0-0.1,0.1-0.2c0.5-1.2,2.7-6.6,5.7-11.6c1.5-2.5,3.3-4.9,5.2-6.7c0.9-0.9,1.9-1.6,2.8-2.1
		c0.9-0.5,1.8-0.7,2.7-0.7c0.6,0,1.2,0.1,1.9,0.4c2.6,1.1,4.2,2.9,5.1,4.8c0.9,2,1.2,4.1,1.2,6.1c0,1.4-0.1,2.6-0.3,3.4
		c-0.1,0.4-0.1,0.8-0.2,1l-0.1,0.3l0,0.1l0,0c-0.1,0.3,0,0.5,0.1,0.7c0.2,0.2,0.4,0.3,0.7,0.4l0.2,0c0.8,0,4.5,0.3,7.9,1.7
		c1.7,0.7,3.3,1.6,4.5,2.8c1.2,1.2,1.9,2.7,1.9,4.7c0,1-0.2,2-0.6,3.2c-0.6,1.9-1.8,3.2-3.4,4c-1.6,0.8-3.7,1.2-6,1.2
		c-4.6,0-10-1.4-14.2-2.8c-2.1-0.7-3.9-1.4-5.2-1.9c-0.6-0.3-1.2-0.5-1.5-0.6c-0.2-0.1-0.3-0.1-0.4-0.2l-0.1-0.1
		c-0.3-0.1-0.5-0.1-0.8,0l-96.1,53.5c-0.3,0.2-0.5,0.5-0.4,0.9l0,0.1c0.1,0.6,0.5,3.3,0.5,6.5c0,3.3-0.4,7.2-1.8,10.2
		c-0.7,1.5-1.6,2.7-2.9,3.6c-1.2,0.9-2.8,1.4-4.8,1.4c-0.4,0-0.7,0-1.1-0.1c-3.8-0.4-6-1.5-7.3-3c-1.3-1.5-1.7-3.3-1.7-5.2
		c0-1.7,0.4-3.4,0.8-4.6c0.2-0.6,0.4-1.1,0.5-1.5c0.1-0.2,0.1-0.3,0.2-0.4l0-0.1l0,0c0.1-0.3,0.1-0.6,0-0.8
		c-0.2-0.2-0.4-0.4-0.7-0.4L48,320.5z"/>
	<path id="XMLID_11728_" class="st1" d="M179.7,320.5c0,0,7,14.6-8.2,16c-15.2,1.4-11.1-22.8-11.1-22.8l-96.1-53.5
		c0,0-27.9,12.9-32.1,0C28.2,247.3,47,246.6,47,246.6s-3.5-12.5,6.3-16.7c9.8-4.2,19.5,21.4,19.5,21.4l92,52.8c0,0,26.5-15.7,30.7,0
		C199.6,319.8,179.7,320.5,179.7,320.5z"/>
	<path id="XMLID_11726_" d="M179.7,320.5l-0.8,0.4l0,0c0.2,0.3,1.5,3.4,1.5,6.6c0,1.9-0.4,3.7-1.7,5.2c-1.3,1.5-3.5,2.6-7.3,3
		c-0.4,0-0.8,0.1-1.1,0.1c-2,0-3.6-0.5-4.8-1.4c-1.8-1.3-3-3.5-3.7-6c-0.7-2.5-0.9-5.3-0.9-7.8c0-1.9,0.1-3.5,0.2-4.7
		c0.1-0.6,0.1-1.1,0.2-1.4c0-0.2,0-0.3,0.1-0.4l0-0.1c0.1-0.4-0.1-0.7-0.4-0.9l-96.1-53.5c-0.2-0.1-0.5-0.1-0.8,0l-0.1,0.1
		c-0.7,0.3-3.9,1.7-8,3c-4.1,1.3-9.1,2.6-13.4,2.6c-2.3,0-4.4-0.4-6-1.2c-1.6-0.8-2.8-2-3.4-4c-0.4-1.2-0.6-2.3-0.6-3.2
		c0-2.1,0.8-3.7,2.1-5c1.9-1.9,5-3,7.6-3.6c1.3-0.3,2.5-0.5,3.3-0.5c0.4-0.1,0.8-0.1,1-0.1l0.3,0l0.1,0c0.3,0,0.5-0.1,0.7-0.4
		c0.2-0.2,0.2-0.5,0.1-0.7l0,0c-0.1-0.2-0.6-2.2-0.6-4.8c0-1.9,0.3-4.1,1.2-6.1c0.9-2,2.5-3.7,5.1-4.8c0.6-0.3,1.2-0.4,1.9-0.4
		c0.9,0,1.9,0.3,2.9,0.8c1.7,1,3.5,2.7,5.1,4.8c2.4,3.2,4.6,7.1,6.1,10.2c0.8,1.6,1.4,2.9,1.8,3.9c0.2,0.5,0.4,0.9,0.5,1.1
		c0.1,0.3,0.2,0.4,0.2,0.4c0.1,0.2,0.2,0.3,0.4,0.4l92,52.8c0.3,0.2,0.6,0.2,0.9,0l0.1-0.1c0.6-0.4,3.7-2.1,7.6-3.7
		c3.9-1.6,8.7-3.1,12.7-3.1c2.2,0,4.1,0.4,5.6,1.4c1.5,1,2.7,2.5,3.3,4.9c0.4,1.4,0.5,2.7,0.5,3.9c0,2.7-0.9,4.7-2.3,6.3
		c-2.1,2.3-5.4,3.7-8.1,4.4c-1.4,0.3-2.6,0.5-3.5,0.6c-0.4,0.1-0.8,0.1-1.1,0.1l-0.3,0l-0.1,0c-0.3,0-0.6,0.2-0.7,0.4
		c-0.2,0.3-0.2,0.6,0,0.8L179.7,320.5l0,0.9c0.1,0,4.2-0.1,8.4-1.8c2.1-0.8,4.3-2.1,5.9-3.9c1.7-1.8,2.8-4.3,2.8-7.5
		c0-1.3-0.2-2.8-0.6-4.3c-0.7-2.8-2.2-4.8-4.1-6c-1.9-1.2-4.2-1.7-6.6-1.7c-4.8,0-10,1.8-14.2,3.6c-4.1,1.8-7.1,3.5-7.1,3.5l0.4,0.8
		l0.4-0.8l-92-52.8l-0.4,0.8l0.8-0.3c0,0-2.1-5.5-5.4-11.1c-1.6-2.8-3.5-5.6-5.7-7.7c-1.1-1.1-2.2-2-3.4-2.6
		c-1.2-0.7-2.4-1.1-3.7-1.1c-0.8,0-1.7,0.2-2.5,0.5c-3,1.3-4.9,3.4-6,5.7c-1.1,2.3-1.4,4.7-1.4,6.8c0,3,0.6,5.2,0.6,5.3l0.8-0.2
		l0-0.9c0,0-3.9,0.1-7.9,1.5c-2,0.7-4,1.7-5.6,3.2c-1.6,1.5-2.7,3.6-2.6,6.2c0,1.2,0.2,2.4,0.6,3.8c0.8,2.4,2.3,4,4.3,5
		c2,1,4.3,1.3,6.7,1.3c4.9,0,10.4-1.5,14.8-2.9c4.3-1.4,7.5-2.9,7.5-2.9l-0.4-0.8L64,261l96.1,53.5l0.4-0.8l-0.9-0.1
		c0,0-0.5,3-0.5,6.9c0,3.4,0.4,7.6,2,10.9c0.8,1.7,1.9,3.2,3.4,4.3c1.5,1.1,3.5,1.7,5.8,1.7c0.4,0,0.9,0,1.3-0.1
		c4.1-0.4,6.8-1.7,8.4-3.6c1.6-1.9,2.1-4.2,2.1-6.3c0-3.9-1.7-7.3-1.7-7.4L179.7,320.5l0,0.9L179.7,320.5z"/>
	<path id="XMLID_11724_" class="st1" d="M150.4,283.6c0,0,9.7,25.2,4.8,32c-8.8,12.2-13.6,23.7-22.6,26.3c-4.9,1.4-14.5-3.8-19.6-4
		c-5.6-0.2-16.7,6.5-21.8,4.4c-7.4-3-10.5-14.2-17.8-26.5c-3.9-6.6,4.2-30.2,4.2-30.2"/>
	<path id="XMLID_11722_" d="M149.6,283.9c0,0,0.1,0.2,0.3,0.7c0.6,1.6,2.1,5.7,3.4,10.5c1.3,4.8,2.5,10.3,2.5,14.5
		c0,2.4-0.4,4.4-1.2,5.4c-4.4,6.2-7.8,12.1-11.2,16.8c-1.7,2.3-3.4,4.4-5.1,5.9c-1.8,1.6-3.6,2.7-5.7,3.3c-0.5,0.1-1,0.2-1.7,0.2
		c-2.4,0-5.6-1-8.8-2c-1.6-0.5-3.2-1-4.7-1.5c-1.5-0.4-2.9-0.7-4.1-0.7l-0.2,0c-1.4,0-2.9,0.3-4.5,0.8c-2.4,0.7-5.1,1.7-7.7,2.5
		c-2.6,0.8-5.1,1.5-7,1.5c-0.8,0-1.5-0.1-2.1-0.3c-1.7-0.7-3.1-1.9-4.5-3.5c-2.1-2.4-3.9-5.7-5.9-9.7c-2-3.9-4.1-8.4-6.9-13
		c-0.6-1-0.9-2.8-0.9-5c0-4.5,1.3-10.7,2.6-15.7c0.7-2.5,1.3-4.7,1.8-6.3c0.2-0.8,0.4-1.4,0.6-1.9c0.1-0.4,0.2-0.7,0.2-0.7
		c0.2-0.5-0.1-1-0.6-1.2c-0.5-0.2-1,0.1-1.2,0.6c0,0-1.3,3.9-2.6,8.9c-1.3,5-2.6,11.3-2.6,16.1c0,2.3,0.3,4.4,1.2,5.9
		c3.6,6.1,6.2,11.9,8.8,16.7c1.3,2.4,2.7,4.5,4.2,6.3c1.5,1.7,3.2,3.1,5.2,4c0.9,0.4,1.8,0.5,2.8,0.5c3,0,6.7-1.3,10.2-2.4
		c1.7-0.6,3.5-1.2,5-1.6c1.5-0.4,2.9-0.7,4-0.7l0.2,0c1,0,2.3,0.3,3.7,0.7c2.1,0.6,4.6,1.5,7.1,2.2c2.4,0.7,4.8,1.3,7,1.3
		c0.8,0,1.5-0.1,2.2-0.3c2.4-0.7,4.5-2,6.4-3.7c2.9-2.6,5.4-6,8-10c2.6-4,5.3-8.4,8.6-13c1.2-1.6,1.5-3.9,1.5-6.5
		c0-5.2-1.6-11.7-3.1-17c-1.6-5.3-3.1-9.3-3.1-9.4c-0.2-0.5-0.7-0.7-1.2-0.5C149.6,282.9,149.4,283.5,149.6,283.9z"/>
	<path id="XMLID_11720_" class="st1" d="M59.7,253.5c-0.3,6.4,4.1,19.2,6.1,24.7c2.4,6.7-9.3,19.7,4.1,25.6
		c13.4,5.8,20.3-5.8,20.3-5.8s-3,18.6,1.7,19.2c2.1,0.3,2.9-8.1,2.9-8.1s0.5,11.4,3.5,11.6c3,0.2,5.2-11,5.2-11s0.7,12.6,4.1,12.8
		c3,0.2,5.2-11,5.2-11s1,9.3,3.5,9.3c2.5,0,3.5-9.3,3.5-9.3s0.6,8.8,2.9,8.7c2.3-0.1,2.3-8.7,2.3-8.7s5.1,7.8,7.6,7
		c2.1-0.7,1.2-8.7,1.2-8.7s4.7,5.7,6.4,4.6c4-2.5-2.9-18.6-2.9-18.6s12.8,13.4,21.5,3.5c8.7-9.9,1.1-16.2,2.3-22.1
		c1.5-7,7.1-17.8,7.1-24.1c0-16.6-12.8-38.3-54.2-38.3C72.5,214.7,60.6,236.9,59.7,253.5z"/>
	<path id="XMLID_11718_" d="M59.7,253.5l-0.9,0c0,0.3,0,0.5,0,0.8c0,3.5,1.1,8.2,2.4,12.7c1.3,4.5,2.8,8.9,3.8,11.6
		c0.2,0.5,0.3,1.1,0.3,1.8c0,1.8-0.7,4.2-1.4,6.7c-0.7,2.5-1.4,5.2-1.4,7.8c0,1.9,0.4,3.8,1.5,5.5c1.1,1.7,2.9,3.2,5.6,4.3
		c2.8,1.2,5.3,1.7,7.6,1.7c4.6,0,8.1-2,10.4-3.9c2.3-2,3.5-3.9,3.5-4l-0.8-0.5l-0.9-0.1c0,0-1,5.9-1,11.2c0,2.1,0.1,4.1,0.6,5.8
		c0.2,0.8,0.5,1.5,1,2.1c0.5,0.6,1.1,1.1,1.9,1.2h0l0.2,0c0.6,0,1.1-0.3,1.4-0.6c0.6-0.6,0.9-1.4,1.2-2.2c0.4-1.3,0.7-2.8,0.9-4
		c0.2-1.2,0.3-2.1,0.3-2.1l-0.9-0.1l-0.9,0c0,0,0.1,2.9,0.6,5.8c0.3,1.5,0.6,3,1.1,4.2c0.3,0.6,0.6,1.2,1,1.6c0.4,0.4,1,0.8,1.6,0.9
		l0.2,0c0.7,0,1.3-0.3,1.7-0.7c0.8-0.7,1.4-1.7,1.9-2.9c0.8-1.7,1.4-3.8,1.8-5.4c0.4-1.6,0.7-2.8,0.7-2.8l-0.9-0.2l-0.9,0.1
		c0,0,0.2,3.2,0.8,6.4c0.3,1.6,0.7,3.3,1.3,4.6c0.3,0.7,0.6,1.3,1.1,1.7c0.4,0.5,1,0.9,1.8,0.9l0.1,0c0.7,0,1.3-0.3,1.7-0.7
		c0.8-0.7,1.4-1.7,1.9-2.9c0.8-1.7,1.4-3.8,1.8-5.4c0.4-1.6,0.7-2.8,0.7-2.8l-0.9-0.2l-0.9,0.1c0,0,0.3,2.4,0.8,4.8
		c0.3,1.2,0.7,2.4,1.2,3.4c0.3,0.5,0.5,0.9,0.9,1.3c0.4,0.4,0.9,0.7,1.5,0.7c0.6,0,1.1-0.3,1.5-0.7c0.7-0.6,1.1-1.5,1.4-2.5
		c0.5-1.5,0.9-3.2,1.1-4.6c0.2-1.4,0.3-2.4,0.3-2.4l-0.9-0.1l-0.9,0.1c0,0,0.2,2.2,0.6,4.5c0.2,1.1,0.5,2.3,1,3.2
		c0.2,0.5,0.5,0.9,0.8,1.3c0.3,0.4,0.8,0.7,1.4,0.7h0h0c0.6,0,1.1-0.3,1.4-0.7c0.6-0.7,0.9-1.5,1.1-2.4c0.4-1.4,0.5-3,0.6-4.3
		c0.1-1.3,0.1-2.2,0.1-2.2l-0.9,0l-0.8,0.5c0,0,1.2,1.8,2.7,3.6c0.8,0.9,1.6,1.8,2.5,2.5c0.4,0.4,0.9,0.7,1.3,0.9
		c0.5,0.2,0.9,0.4,1.5,0.4c0.2,0,0.5,0,0.7-0.1h0c0.6-0.2,0.9-0.6,1.2-1.1c0.4-0.7,0.5-1.4,0.7-2.3c0.1-0.8,0.1-1.7,0.1-2.6
		c0-2-0.2-3.8-0.2-3.8l-0.9,0.1l-0.7,0.6c0,0,1,1.2,2.3,2.5c0.6,0.6,1.3,1.2,2.1,1.7c0.4,0.2,0.7,0.5,1.1,0.6
		c0.4,0.2,0.8,0.3,1.2,0.3c0.3,0,0.7-0.1,1-0.3c0.7-0.4,1.1-1.1,1.4-1.8c0.2-0.7,0.3-1.5,0.3-2.4c0-3-1.1-6.8-2.1-10
		c-1.1-3.1-2.1-5.6-2.1-5.6l-0.9,0.4l-0.7,0.6c0,0,1.8,1.8,4.4,3.7c2.7,1.8,6.3,3.7,10.1,3.7c2.8,0,5.8-1.1,8.3-4
		c3.4-3.8,4.5-7.3,4.5-10.4c0-2.2-0.5-4.2-1.1-6.1c-0.5-1.8-1-3.4-1-4.8c0-0.4,0-0.8,0.1-1.2c0.7-3.4,2.5-7.8,4.1-12.2
		c0.8-2.2,1.6-4.4,2.1-6.4c0.6-2,0.9-4,0.9-5.7v0h-0.6l0.6,0v0h-0.6l0.6,0v0c0-8.5-3.3-18.4-11.9-26.1c-8.6-7.7-22.4-13.2-43.2-13.2
		c-20.9,0-34.5,5.6-43,13.4c-8.5,7.8-11.8,17.8-12.3,26.3L59.7,253.5l0.9,0.1c0.4-8.1,3.6-17.6,11.7-25c8.1-7.4,21.2-12.9,41.7-12.9
		c20.5,0,33.8,5.4,42,12.7c8.1,7.3,11.2,16.6,11.2,24.7h0.9l-0.9,0v0c0,1.4-0.3,3.2-0.9,5.2c-0.8,2.9-2.1,6.3-3.3,9.5
		c-1.2,3.3-2.4,6.4-3,9.2c-0.1,0.5-0.2,1.1-0.2,1.6c0,1.8,0.6,3.6,1.1,5.4c0.5,1.8,1,3.6,1,5.5c0,2.6-0.9,5.6-4,9.1
		c-2.2,2.5-4.5,3.3-6.9,3.3c-3.2,0-6.6-1.7-9.1-3.4c-1.2-0.9-2.3-1.7-3-2.4c-0.4-0.3-0.6-0.6-0.8-0.8l-0.2-0.2l-0.1-0.1l0,0
		c-0.3-0.3-0.8-0.4-1.2-0.1c-0.4,0.3-0.5,0.7-0.3,1.2c0,0,0.1,0.1,0.2,0.4c0.4,1,1.4,3.4,2.3,6.2c0.9,2.8,1.7,6,1.6,8.2
		c0,0.7-0.1,1.3-0.2,1.8c-0.2,0.4-0.3,0.7-0.6,0.8l0.1,0.1l0-0.1l0,0l0.1,0.1l0-0.1l0,0c-0.1,0-0.2,0-0.4-0.1
		c-0.4-0.2-0.9-0.5-1.5-1c-0.8-0.7-1.6-1.5-2.3-2.2c-0.3-0.3-0.6-0.6-0.8-0.8l-0.2-0.2l-0.1-0.1c-0.3-0.3-0.7-0.4-1.1-0.3
		c-0.4,0.2-0.6,0.6-0.6,1c0,0,0,0.1,0,0.3c0.1,0.6,0.2,1.9,0.2,3.3c0,1.1-0.1,2.2-0.2,3c-0.1,0.4-0.2,0.7-0.3,0.9l-0.1,0.2l0,0l0,0
		l-0.1,0c-0.1,0-0.3,0-0.6-0.2c-0.5-0.3-1.2-0.8-1.8-1.5c-1-1-2-2.2-2.7-3.2c-0.4-0.5-0.7-0.9-0.9-1.2c-0.1-0.2-0.2-0.3-0.2-0.4
		l-0.1-0.1c-0.2-0.3-0.7-0.5-1.1-0.4c-0.4,0.1-0.7,0.5-0.7,0.9c0,0,0,0.1,0,0.4c0,0.8-0.1,2.8-0.4,4.6c-0.2,0.9-0.4,1.7-0.6,2.2
		c-0.1,0.3-0.2,0.4-0.3,0.5l-0.1,0.1l0,0l0-0.1l0,0l0,0l0-0.1l0,0.9l0-0.9h0l0,0.1v-0.1h0l0,0.1v-0.1v0.1l0-0.1l0,0v0.1l0-0.1l0,0
		c0,0-0.1-0.1-0.3-0.3c-0.3-0.4-0.5-1.1-0.8-1.9c-0.3-1.2-0.6-2.6-0.7-3.7c-0.1-0.6-0.1-1-0.2-1.4c0-0.2,0-0.3,0-0.4l0-0.1
		c0-0.5-0.4-0.9-0.9-0.9c-0.5,0-0.9,0.4-1,0.8c0,0,0,0.1,0,0.4c-0.1,0.9-0.4,3.1-1,5c-0.3,1-0.6,1.8-0.9,2.4
		c-0.2,0.3-0.3,0.5-0.5,0.6l-0.2,0.1c0,0-0.1,0-0.2-0.1c-0.3-0.2-0.7-0.9-1-1.8c-0.5-1.3-0.8-2.9-1-4.2c-0.1-0.7-0.2-1.2-0.3-1.6
		c0-0.2,0-0.4-0.1-0.5l0-0.2c-0.1-0.5-0.4-0.8-0.9-0.8c-0.5,0-0.9,0.3-1,0.8c0,0,0,0.2-0.1,0.5c-0.2,1-0.8,3.6-1.7,5.9
		c-0.4,1.1-0.9,2.2-1.4,2.9c-0.2,0.4-0.5,0.6-0.7,0.8c-0.2,0.1-0.3,0.2-0.4,0.2h0c-0.1,0-0.3-0.1-0.5-0.3c-0.4-0.4-0.9-1.4-1.3-2.6
		c-0.6-1.8-0.9-4.1-1.1-5.8c-0.1-0.9-0.2-1.7-0.2-2.2c0-0.3,0-0.5-0.1-0.6c0-0.2,0-0.2,0-0.2c0-0.5-0.4-0.9-0.9-0.9
		c-0.5,0-0.9,0.3-1,0.8c0,0,0,0.2-0.1,0.5c-0.2,1-0.8,3.6-1.7,5.9c-0.4,1.1-0.9,2.2-1.4,2.9c-0.2,0.4-0.5,0.6-0.7,0.8
		c-0.2,0.1-0.3,0.2-0.4,0.2h0h0c-0.1,0-0.2,0-0.4-0.3c-0.4-0.4-0.8-1.3-1.1-2.3c-0.5-1.6-0.8-3.7-0.9-5.3c-0.1-0.8-0.1-1.5-0.2-2
		c0-0.3,0-0.5,0-0.6c0-0.1,0-0.2,0-0.2c0-0.5-0.4-0.9-0.9-0.9c-0.5,0-0.9,0.4-1,0.9c0,0,0,0.1,0,0.3c-0.1,0.8-0.3,2.7-0.7,4.3
		c-0.2,0.8-0.5,1.6-0.7,2.1c-0.1,0.2-0.3,0.4-0.3,0.5l-0.1,0l0,0.1v-0.1l0,0l0,0.1v-0.1v0.1l0-0.1l0,0v0.1l0-0.1h0
		c-0.2,0-0.4-0.1-0.7-0.5c-0.4-0.5-0.7-1.4-0.9-2.6c-0.2-1.2-0.3-2.6-0.3-4.2c0-2.6,0.2-5.3,0.5-7.4c0.1-1,0.2-1.9,0.3-2.5
		c0-0.3,0.1-0.6,0.1-0.7c0-0.2,0-0.2,0-0.2c0.1-0.4-0.2-0.9-0.6-1c-0.4-0.2-0.9,0-1.1,0.4l0,0c-0.1,0.2-1.2,1.9-3.3,3.6
		c-2.1,1.7-5.1,3.3-9,3.3c-2,0-4.3-0.4-6.9-1.5c-2.4-1.1-3.9-2.3-4.8-3.6c-0.9-1.3-1.2-2.8-1.2-4.5c0-2.3,0.7-4.8,1.4-7.3
		c0.7-2.5,1.4-4.9,1.4-7.2c0-0.8-0.1-1.7-0.4-2.4c-0.9-2.7-2.5-7-3.7-11.5c-1.3-4.5-2.3-9.1-2.3-12.2c0-0.2,0-0.5,0-0.7L59.7,253.5z
		"/>
	<path id="XMLID_11716_" d="M73.6,270c1.5,5.6,15.4,19.8,24.9,17.3c9.5-2.5,14.6-21.7,13.2-27.3c-1.5-5.6-20.5-0.6-20.5-0.6
		S72.1,264.5,73.6,270z"/>
	<path id="XMLID_11713_" d="M64.3,272.4c12.6-1.9,28.5-6.1,45.2-11.7c16.6-5.6,39.3-14.9,54.4-22.6c0.7-0.4,1-1.2,0.6-1.9
		c-0.4-0.7-1.2-1-1.9-0.6c-15,7.7-37.5,16.8-54,22.4c-16.5,5.6-32.3,9.7-44.7,11.6c-0.8,0.1-1.3,0.8-1.2,1.6
		C62.8,272,63.5,272.5,64.3,272.4z"/>
	<path id="XMLID_11711_" class="st2" d="M135,284.6c7-5.3,10.6-8.3,12.9-12.2c3.2-5.5,1.3-10.2-2.8-12.1c-3.8-1.7-8.3-0.1-10.1,3.6
		c-1.8-3.7-6.3-5.3-10.1-3.6c-4,1.8-6,6.5-2.8,12.1C124.4,276.3,128,279.3,135,284.6z"/>
	<path id="XMLID_11709_" class="st2" d="M107.4,293.5c-2,3.4-0.8,6.3,1.7,7.5c2.4,1.1,5.2,0.1,6.2-2.2c1.1,2.3,3.9,3.3,6.2,2.2
		c2.5-1.1,3.7-4,1.7-7.5c-1.4-2.4-3.6-4.3-8-7.6C111,289.2,108.8,291.1,107.4,293.5z"/>
</g>
</svg>
