<?xml version="1.0" encoding="utf-8"?>
<!-- Generator: Adobe Illustrator 19.0.0, SVG Export Plug-In . SVG Version: 6.00 Build 0)  -->
<svg version="1.1" id="Layer_1" xmlns="http://www.w3.org/2000/svg" xmlns:xlink="http://www.w3.org/1999/xlink" x="0px" y="0px"
	 viewBox="0 0 603.3333 328" enable-background="new 0 0 603.3333 328" xml:space="preserve">
<g id="XMLID_11543_">
	<g id="XMLID_11581_">
		<path id="XMLID_10794_" d="M549.8484,214.5345c-71.4394,2.4372-95.2564-48.015-113.1277-102.1978
			c-18.9487-57.4537-63.1687-86.4804-95.6515-96.896c-0.1743-0.0558-0.5332-0.1356-0.7138-0.1636
			c-33.7197-5.1817-86.2222,2.0945-128.3061,45.5575c-39.6868,40.9885-83.102,76.0289-146.3462,42.7177
			C-5.3812,66.1114-41.6177,212.6055,279.6346,281.8058C598.9514,359.4453,630.1426,211.7946,549.8484,214.5345z"/>
	</g>
	<g id="XMLID_11545_">
		<g id="XMLID_11566_">
			<g id="XMLID_11572_">
				<path id="XMLID_10790_" fill="#FFFFFF" d="M340.3576,175.3864c3.3437-4.659-0.7957-7.481-0.7957-7.481
					c-7.7736-5.2632-12.692,9.4148-12.692,9.4148l-52.9135,11.7495c0,0-13.7787-10.5258-16.994-2.8225
					c0,0-1.7003,4.1187,4.1992,6.7246c3.5077,1.5501-3.955,3.2902-1.5755,7.7375c2.3794,4.4477,7.4957,5.031,15.3957-3.5668
					l56.2766-12.4964c12.364,4.0974,16.3591,1.4912,15.4927-3.292C345.8849,176.5706,338.3676,178.1564,340.3576,175.3864z"/>
			</g>
			<g id="XMLID_11568_">
				<path id="XMLID_10788_" fill="#FFFFFF" d="M271.3286,159.5627c-0.9813-5.6504,3.9749-6.3874,3.9749-6.3874
					c9.2895-1.3517,7.3229,14.0029,7.3229,14.0029l42.5123,33.6243c0,0,16.9877-3.4731,16.5266,4.8615
					c0,0-0.2643,4.4479-6.709,4.2241c-3.8326-0.1326,2.1279,4.6846-1.9516,7.6513c-4.0791,2.9672-8.9382,1.2637-12.3049-9.9167
					l-45.2148-35.7616c-12.9138-1.6971-15.3748-5.7832-12.5119-9.7115C265.8369,158.221,271.9129,162.9227,271.3286,159.5627z"/>
			</g>
		</g>
		<g id="XMLID_11562_">
			<path id="XMLID_10786_" fill-rule="evenodd" clip-rule="evenodd" fill="#FFFFFF" d="M355.2334,118.4752
				c0.6033-0.6942,1.0183-1.3056,1.1395-1.7725c0.0251-0.0941,0.0503-0.1923,0.0745-0.2941
				c1.0579-2.0005,1.865-4.1446,2.3855-6.4152c3.9102-17.058-9.8544-34.7688-30.7461-39.5579
				c-20.8904-4.7888-40.996,5.1579-44.9062,22.2159c-0.5205,2.2706-0.7275,4.5522-0.647,6.8137
				c-0.0217,0.1024-0.0422,0.2017-0.0615,0.2971c-0.0965,0.4905,0.0166,1.2578,0.2667,2.1876
				c0.6237,4.832,2.5437,9.5147,5.5107,13.7272c0.257,3.3225-2.6615,6.2774-2.5089,9.5664c0.1701,3.69,5.218,4.9082,5.179,8.3556
				c-0.0222,1.9704-2.5032,3.9238-2.2287,5.9189c0.4081,2.9573,6.1072,19.6389,11.4051,21.6539
				c2.3066,0.877,11.0611,2.8838,13.5189,3.099c5.6474,0.4941,17.8753-11.0038,19.6983-14.524
				c0.9182-1.7741-0.2664-4.5154,0.5724-6.2986c1.4661-3.1201,6.5406-2.018,8.3018-5.2653
				c1.5394-2.8404,0.2788-6.6771,1.8159-9.5418C348.6446,126.1137,352.5178,122.6603,355.2334,118.4752z"/>
		</g>
		<g id="XMLID_11551_">
			<g id="XMLID_11558_">
				<path id="XMLID_10784_" fill-rule="evenodd" clip-rule="evenodd" d="M303.2716,113.9989
					c-5.7961-1.897-7.9477-0.3927-8.9254,2.3194c-0.9779,2.7116-0.4117,5.6036,5.3844,7.5006
					c5.7954,1.8981,11.2881,1.2379,12.2661-1.4737C312.9739,119.633,309.0688,115.897,303.2716,113.9989z"/>
			</g>
			<g id="XMLID_11554_">
				<path id="XMLID_10782_" fill-rule="evenodd" clip-rule="evenodd" d="M338.5638,126.4544
					c0.3008-2.8672-0.9803-5.1583-7.0248-5.9756c-6.0443-0.8163-11.1872,0.8456-11.4894,3.7125
					c-0.3003,2.8669,4.3551,5.8534,10.3994,6.6693C336.4932,131.6777,338.2625,129.3211,338.5638,126.4544z"/>
			</g>
		</g>
		<g id="XMLID_11547_">
			<path id="XMLID_10780_" fill-rule="evenodd" clip-rule="evenodd" d="M317.8583,139.0337
				c-0.9405,4.1027-5.2305-2.2084-5.2305-2.2084s-6.6107,3.8123-5.6702-0.2905c0.9406-4.1031,4.1431-6.8697,7.1533-6.1797
				C317.1208,131.0451,318.7989,134.9305,317.8583,139.0337z"/>
		</g>
	</g>
</g>
</svg>
