<?xml version="1.0" encoding="utf-8"?>
<!-- Generator: Adobe Illustrator 19.0.0, SVG Export Plug-In . SVG Version: 6.00 Build 0)  -->
<svg version="1.1" id="Layer_1" xmlns="http://www.w3.org/2000/svg" xmlns:xlink="http://www.w3.org/1999/xlink" x="0px" y="0px"
	 viewBox="-191 96 616 367" style="enable-background:new -191 96 616 367;" xml:space="preserve">
<style type="text/css">
	.st0{fill:#FFFFFF;}
	.st1{fill-rule:evenodd;clip-rule:evenodd;fill:#FFFFFF;}
	.st2{fill-rule:evenodd;clip-rule:evenodd;}
</style>
<g id="XMLID_11543_">
	<g id="XMLID_11581_">
		<path id="XMLID_10794_" d="M369.2,302.9c-71.4,2.4-95.3-48-113.1-102.2c-18.9-57.5-63.2-86.5-95.7-96.9c-0.2-0.1-0.5-0.1-0.7-0.2
			c-33.7-5.2-86.2,2.1-128.3,45.6c-39.7,41-83.1,76-146.3,42.7C-186,154.4-222.3,300.9,99,370.1
			C418.3,447.8,449.5,300.1,369.2,302.9z"/>
	</g>
	<g id="XMLID_11545_">
		<g id="XMLID_11566_">
			<g id="XMLID_11572_">
				<path id="XMLID_10790_" class="st0" d="M159.7,263.7c3.3-4.7-0.8-7.5-0.8-7.5c-7.8-5.3-12.7,9.4-12.7,9.4l-52.9,11.7
					c0,0-13.8-10.5-17-2.8c0,0-1.7,4.1,4.2,6.7c3.5,1.6-4,3.3-1.6,7.7c2.4,4.4,7.5,5,15.4-3.6l56.3-12.5c12.4,4.1,16.4,1.5,15.5-3.3
					C165.2,264.9,157.7,266.5,159.7,263.7z"/>
			</g>
			<g id="XMLID_11568_">
				<path id="XMLID_10788_" class="st0" d="M90.7,247.9c-1-5.7,4-6.4,4-6.4c9.3-1.4,7.3,14,7.3,14l42.5,33.6c0,0,17-3.5,16.5,4.9
					c0,0-0.3,4.4-6.7,4.2c-3.8-0.1,2.1,4.7-2,7.7c-4.1,3-8.9,1.3-12.3-9.9l-45.2-35.8c-12.9-1.7-15.4-5.8-12.5-9.7
					C85.2,246.6,91.2,251.3,90.7,247.9z"/>
			</g>
		</g>
		<g id="XMLID_11562_">
			<path id="XMLID_10786_" class="st1" d="M174.6,206.8c0.6-0.7,1-1.3,1.1-1.8c0-0.1,0.1-0.2,0.1-0.3c1.1-2,1.9-4.1,2.4-6.4
				c3.9-17.1-9.9-34.8-30.7-39.6c-20.9-4.8-41,5.2-44.9,22.2c-0.5,2.3-0.7,4.6-0.6,6.8c0,0.1,0,0.2-0.1,0.3c-0.1,0.5,0,1.3,0.3,2.2
				c0.6,4.8,2.5,9.5,5.5,13.7c0.3,3.3-2.7,6.3-2.5,9.6c0.2,3.7,5.2,4.9,5.2,8.4c0,2-2.5,3.9-2.2,5.9c0.4,3,6.1,19.6,11.4,21.7
				c2.3,0.9,11.1,2.9,13.5,3.1c5.6,0.5,17.9-11,19.7-14.5c0.9-1.8-0.3-4.5,0.6-6.3c1.5-3.1,6.5-2,8.3-5.3c1.5-2.8,0.3-6.7,1.8-9.5
				C168,214.4,171.9,211,174.6,206.8z"/>
		</g>
		<g id="XMLID_11551_">
			<g id="XMLID_11558_">
				<path id="XMLID_10784_" class="st2" d="M122.6,202.3c-5.8-1.9-7.9-0.4-8.9,2.3c-1,2.7-0.4,5.6,5.4,7.5
					c5.8,1.9,11.3,1.2,12.3-1.5C132.3,208,128.4,204.2,122.6,202.3z"/>
			</g>
			<g id="XMLID_11554_">
				<path id="XMLID_10782_" class="st2" d="M157.9,214.8c0.3-2.9-1-5.2-7-6c-6-0.8-11.2,0.8-11.5,3.7c-0.3,2.9,4.4,5.9,10.4,6.7
					C155.8,220,157.6,217.7,157.9,214.8z"/>
			</g>
		</g>
		<g id="XMLID_11547_">
			<path id="XMLID_10780_" class="st2" d="M137.2,227.4c-0.9,4.1-5.2-2.2-5.2-2.2s-6.6,3.8-5.7-0.3c0.9-4.1,4.1-6.9,7.2-6.2
				C136.5,219.4,138.1,223.3,137.2,227.4z"/>
		</g>
	</g>
</g>
</svg>
