<?xml version="1.0" encoding="utf-8"?>
<!-- Generator: Adobe Illustrator 19.0.0, SVG Export Plug-In . SVG Version: 6.00 Build 0)  -->
<svg version="1.1" id="Layer_1" xmlns="http://www.w3.org/2000/svg" xmlns:xlink="http://www.w3.org/1999/xlink" x="0px" y="0px"
	 viewBox="203 58 498 364" style="enable-background:new 203 58 498 364;" xml:space="preserve">
<style type="text/css">
	.st0{fill-rule:evenodd;clip-rule:evenodd;fill:#B7671D;}
	.st1{fill:#D9791D;}
	.st2{fill:#3C2415;}
	.st3{fill:#F9F9F9;}
	.st4{fill:#EF7B05;}
</style>
<g id="XMLID_11497_">
	<g id="XMLID_11520_">
		<path id="XMLID_10770_" class="st0" d="M661.6,255.4c-45.6,8.9-53.7,13.6-101.1,19.2c0,0-11.6-81.3-17.4-110.2
			c-5.7-28-30.1-73.5-57.8-64.8c-13.7,4.3-23.8,25.9-38,25.4c-12.6-0.4-18.1-21.2-30.2-25.4c-27.5-9.6-51.9,37.5-57.3,64.8
			c-5.7,28.9-19.3,110.2-19.3,110.2C293,269,285.5,264,239.9,255.4C174.6,242.9,244.1,383,450.8,383
			C657.9,383,725.2,242.9,661.6,255.4z"/>
	</g>
	<g id="XMLID_11516_">
		<path id="XMLID_10767_" class="st1" d="M543.1,164.4c-5.7-28-30.1-73.5-57.8-64.8c-13.7,4.3-23.8,25.9-38,25.4
			c-12.6-0.4-18.1-21.2-30.2-25.4c-27.5-9.6-51.9,37.5-57.3,64.8c-5.7,28.9-23.7,134.2-23.8,134.8c3.7,2.5,7,5,11.2,7.3
			c28.5,15.6,63.7,36.9,103.5,36.9c39.8,0,75.6-21.3,104-36.9c4-2.2,6.7-4.5,10.2-7C564.8,298.9,548.9,193.2,543.1,164.4z"/>
	</g>
	<g id="XMLID_11500_">
		<g id="XMLID_11512_">
			<path id="XMLID_10765_" class="st2" d="M560.7,274c-0.4-2.3-0.1-12.3-2.8-25.8C537,268.2,495.2,282,451,282
				c-44.1,0-85.9-13.8-106.8-33.7c-2.8,13-2.7,22.7-3.3,25.5c3.4,2.5,7.1,5,11.1,7.3c26.6,15.6,61.8,24.2,99,24.2
				c37.2,0,72.4-8.6,99-24.2C553.8,278.8,557.3,276.5,560.7,274z"/>
		</g>
		<g id="XMLID_11502_">
			<circle id="XMLID_10763_" class="st3" cx="450.8" cy="291.5" r="27.4"/>
			<path id="XMLID_11504_" class="st2" d="M450.8,320.7c-16.1,0-29.1-13.1-29.1-29.1s13.1-29.1,29.1-29.1
				c16.1,0,29.1,13.1,29.1,29.1S466.8,320.7,450.8,320.7z M450.8,265.9c-14.1,0-25.6,11.5-25.6,25.6c0,14.1,11.5,25.6,25.6,25.6
				c14.1,0,25.6-11.5,25.6-25.6C476.4,277.4,464.9,265.9,450.8,265.9z"/>
		</g>
	</g>
</g>
<path id="XMLID_13511_" class="st4" d="M474.8,281.3c-1.3-3.1-3.2-5.8-5.5-8.2c-2.4-2.3-5.2-4.2-8.2-5.4c-3.3-1.3-6.8-2-10.3-2
	c-3.5,0-7,0.6-10.3,2c-3.1,1.3-5.9,3.1-8.2,5.4c-2.4,2.3-4.2,5.1-5.5,8.2c-1.4,3.2-2,6.7-2,10.2c0,3.5,0.6,7,2,10.2
	c1.3,3.1,3.2,5.8,5.5,8.2c2.4,2.3,5.2,4.1,8.2,5.4c3.3,1.3,6.8,2,10.3,2c3.5,0.1,7-0.6,10.3-1.9c3.1-1.3,5.9-3.1,8.2-5.4
	c2.4-2.3,4.2-5.1,5.5-8.2c1.3-3.2,2-6.7,2-10.2C476.9,288.1,476.2,284.6,474.8,281.3z M436,289.6c3-1,6.4-2.2,6.4-2.2
	c8.5-2.7,9.4-5.9,9.4-5.9s1.7,3.2,7.8,5.3c0,0,3.4,1.1,6.5,2.3c0.2,0.3,0.3,0.5,0.4,0.9c0.6,1.3,0.9,3.1,1.2,4.1H464
	c0,0,0,0.2,0,0.1c0-0.7-1.1-1.4-1.7-1.9c-0.6-0.5-1.4-0.9-2.1-1.2c-2.3-1-5.1-0.5-7,1.3c-0.6,0.5-1.1,1.3-1.4,2
	c-0.1,0.2-0.2,0.8-0.3,0.8h-1.6c-0.1,0-0.1-0.6-0.2-0.8c-0.3-0.7-0.8-1.4-1.3-2c-1.8-1.7-4.5-2.2-6.9-1.3c-0.7,0.3-1,0.7-1.6,1.3
	c-0.6,0.6-0.9,1.2-0.9,1.9v0.9h-5.1c0.2-2,1-3.2,1.6-4.6C435.5,290.3,436,289.8,436,289.6L436,289.6z M461.2,296.6
	c0,0.5-0.1,1-0.3,1.4c-0.2,0.4-0.4,0.8-0.8,1.2c-0.3,0.3-0.7,0.6-1.2,0.8c-0.5,0.2-1,0.3-1.4,0.3c-1,0-1.9-0.4-2.6-1
	c-0.3-0.3-0.6-0.7-0.8-1.2c-0.4-0.9-0.4-2,0-2.9c0.2-0.4,0.4-0.8,0.8-1.2c0.3-0.3,0.7-0.6,1.2-0.8c0.5-0.2,1-0.3,1.4-0.3
	c0.5,0,1,0.1,1.4,0.3c0.4,0.2,0.8,0.4,1.2,0.8c0.3,0.3,0.6,0.7,0.8,1.2C461.2,295.6,461.3,296.1,461.2,296.6z M447.7,296.6
	c0,0.5-0.1,1-0.3,1.4c-0.2,0.4-0.4,0.8-0.8,1.2c-0.3,0.3-0.7,0.6-1.2,0.8c-0.9,0.4-2,0.4-2.9,0c-0.4-0.2-0.8-0.4-1.2-0.8
	c-0.3-0.3-0.6-0.7-0.8-1.2c-0.4-0.9-0.4-2,0-2.9c0.2-0.4,0.4-0.8,0.8-1.2c0.3-0.3,0.7-0.6,1.2-0.8c0.9-0.4,2-0.4,2.9,0
	c0.4,0.2,0.8,0.4,1.2,0.8c0.3,0.3,0.6,0.7,0.8,1.2C447.6,295.6,447.7,296.1,447.7,296.6z M463,309c-1.5,2-3.4,2.6-5.4,3.4
	c-2.1,0.9-4.4,1.2-6.7,1.2c-2.3,0-4.6-0.4-6.7-1.3c-2-0.8-3.9-2-5.4-3.5c-1.6-1.5-2.8-3.3-3.6-5.3c-0.8-2-1.3-3.4-1.3-6.4h4
	c0.1,2,0.7,2.9,1.8,3.9c0.6,0.6,1.2,1,2,1.3c1.6,0.6,3.3,0.6,4.9,0c0.7-0.3,1.4-0.7,2-1.3c0.6-0.6,1-0.9,1.3-1.6
	c0.2-0.5,0.4-1.3,0.4-1.3h1.3c0.1,0,0.2,0.8,0.4,1.3c0.3,0.7,0.7,1.2,1.3,1.8c0.6,0.6,1.2,0.9,2,1.2c1.6,0.6,3.3,0.6,4.9,0
	c0.7-0.3,1.4-0.8,2-1.3c0.6-0.5,1-1.2,1.3-1.9c0.3-0.6,0.4-1,0.5-2h4.1c0,3-0.4,4.5-1.3,6.5C465.7,305.5,464.5,308,463,309L463,309z
	"/>
</svg>
