<?xml version="1.0" encoding="utf-8"?>
<!-- Generator: Adobe Illustrator 19.0.0, SVG Export Plug-In . SVG Version: 6.00 Build 0)  -->
<svg version="1.1" id="Layer_1" xmlns="http://www.w3.org/2000/svg" xmlns:xlink="http://www.w3.org/1999/xlink" x="0px" y="0px"
	 viewBox="0 0 504 361" style="enable-background:new 0 0 504 361;" xml:space="preserve">
<style type="text/css">
	.st0{fill-rule:evenodd;clip-rule:evenodd;fill:#676766;}
	.st1{fill-rule:evenodd;clip-rule:evenodd;fill:#313130;}
	.st2{fill-rule:evenodd;clip-rule:evenodd;fill:#232323;}
	.st3{fill-rule:evenodd;clip-rule:evenodd;fill:#EBEBEB;}
	.st4{fill-rule:evenodd;clip-rule:evenodd;fill:#4D4D4D;}
</style>
<g id="XMLID_74_">
	<path id="XMLID_134_" class="st0" d="M48.9,180.5c0,0-6.2,43.1-6.9,43c-0.5-0.3,11.8-7.4,11.8-7.4l5.3-33.6L48.9,180.5z"/>
	<path id="XMLID_133_" class="st0" d="M454.2,180.5c0,0,6.2,43.1,6.8,43c0.7-0.3-11.8-7.4-11.8-7.4l-5.2-33.6L454.2,180.5z"/>
	<path id="XMLID_132_" class="st1" d="M81.8,190.7L81.8,190.7c10.9,0,19.8,7.1,19.8,15.9V319c0,8.7-8.9,15.9-19.8,15.9l0,0
		c-10.9,0-19.6-7.1-19.6-15.9V206.5C62.3,197.8,71,190.7,81.8,190.7L81.8,190.7z"/>
	<path id="XMLID_131_" class="st1" d="M421,190.7L421,190.7c-10.7,0-19.6,7.1-19.6,15.9V319c0,8.7,8.9,15.9,19.6,15.9l0,0
		c10.9,0,19.8-7.1,19.8-15.9V206.5C440.8,197.8,431.9,190.7,421,190.7L421,190.7z"/>
	<path id="XMLID_130_" class="st2" d="M62.3,319.6c-39.7-8.9-39.7-104.7,0-113.6c0,0.1,0,0.4,0,0.6V319
		C62.3,319.3,62.3,319.4,62.3,319.6L62.3,319.6z"/>
	<path id="XMLID_129_" class="st2" d="M440.8,319.6c39.7-8.9,39.7-104.7,0-113.6c0,0.1,0,0.4,0,0.6V319
		C440.8,319.3,440.8,319.4,440.8,319.6L440.8,319.6z"/>
	<path id="XMLID_128_" class="st3" d="M81.8,187.3L81.8,187.3c1.8,0,3.2,1.1,3.2,2.6v145.9c0,1.4-1.4,2.6-3.2,2.6l0,0
		c-1.8,0-3.2-1.1-3.2-2.6V189.8C78.6,188.4,80.1,187.3,81.8,187.3L81.8,187.3z"/>
	<path id="XMLID_127_" class="st3" d="M421,187.3L421,187.3c-1.8,0-3.2,1.1-3.2,2.6v145.9c0,1.4,1.4,2.6,3.2,2.6l0,0
		c2,0,3.4-1.1,3.4-2.6V189.8C424.4,188.4,423,187.3,421,187.3L421,187.3z"/>
	<path id="XMLID_126_" class="st1" d="M46.6,189.3c5.9,1.1,6.2,1.1,12.1,2.4c33.3-177.1,352.2-177.5,385.7,0
		c5.7-1.3,6.1-1.3,11.9-2.4C435-27.1,68.1-27.8,46.6,189.3L46.6,189.3z"/>
	<path id="XMLID_101_" class="st4" d="M53.5,190.5l5.2,1.1c33.3-177.1,352.2-177.5,385.7,0l5-1.1C428-8.7,75.1-9.2,53.5,190.5
		L53.5,190.5z"/>
</g>
</svg>
