<?xml version="1.0" encoding="utf-8"?>
<!-- Generator: Adobe Illustrator 19.0.0, SVG Export Plug-In . SVG Version: 6.00 Build 0)  -->
<svg version="1.1" id="Layer_1" xmlns="http://www.w3.org/2000/svg" xmlns:xlink="http://www.w3.org/1999/xlink" x="0px" y="0px"
	 viewBox="0 0 551.3514 425.6757" enable-background="new 0 0 551.3514 425.6757" xml:space="preserve">
<g id="XMLID_321_">
	<path id="XMLID_566_" fill="#40494C" d="M86.4499,163.2915c0,0-32.7828,57.7117-15.7233,116.5973
		c1.9526-1.0275,4.0079-1.9526,5.9605-2.9803c-5.4467-31.1384,1.3359-83.6092,20.9644-106.3204
		C93.9519,168.1215,90.2522,165.7579,86.4499,163.2915L86.4499,163.2915z"/>
	<path id="XMLID_565_" fill="#40494C" d="M468.5653,163.2915c0,0,32.8856,57.7117,15.8264,116.5973
		c-1.9528-1.0275-4.008-1.9526-5.9605-2.9803c5.4467-31.1384-1.3362-83.6092-20.9646-106.3204
		C461.1661,168.1215,464.8658,165.7579,468.5653,163.2915L468.5653,163.2915z"/>
	<path id="XMLID_564_" fill="#2FD5FD" d="M454.1782,176.4456c4.9328,6.269,21.992-10.3795,17.8813-16.2369
		c-93.2755-145.1188-295.7253-144.9146-389.0008,0c-4.1108,5.8575,12.9487,22.5059,17.8815,16.2369
		C208.6137,49.744,348.2515,46.8224,454.1782,176.4456L454.1782,176.4456z"/>
	<path id="XMLID_563_" fill="#23C9F1" d="M454.1782,176.4456c1.4387,1.85,3.9051,1.7472,6.5769,0.5141
		c-0.1028-0.4113-0.2054-0.8223-0.5139-1.2333c-87.9434-136.8007-277.421-136.5835-365.3644,0
		c-0.3082,0.411-0.411,0.8221-0.5138,1.2333c2.672,1.2331,5.1385,1.3359,6.5772-0.5141
		C208.6137,49.744,348.2515,46.8224,454.1782,176.4456L454.1782,176.4456z"/>
	<path id="XMLID_557_" fill="#2FD5FD" d="M115.0191,239.0903c2.7748,15.2095,5.5495,30.419,8.3243,45.5259
		c2.8774,15.2095,5.6521,62.4192,8.4269,77.6284c2.2608,11.921-30.0082,13.5653-32.1661,2.1582
		c-2.5692-13.9764-5.1385-27.9528-7.7077-41.9289c-2.5692-13.9764-5.1384-60.0556-7.7074-74.032
		C82.0309,237.1376,112.7583,227.0665,115.0191,239.0903L115.0191,239.0903z"/>
	<path id="XMLID_536_" fill="#2FD5FD" d="M440.0989,239.0903c-2.7746,15.2095-5.5495,30.419-8.3241,45.5259
		c-2.8774,15.2095-5.6523,62.4192-8.4269,77.6284c-2.261,11.921,30.0079,13.5653,32.1661,2.1582
		c2.5692-13.9764,5.1382-27.9528,7.7075-41.9289c2.5692-13.9764,5.1385-60.0556,7.7077-74.032
		C473.0871,237.1376,442.3597,227.0665,440.0989,239.0903L440.0989,239.0903z"/>
	<path id="XMLID_330_" fill="#23C9F1" d="M115.0191,239.0903c2.7748,15.2095,5.5495,30.419,8.3243,45.5259
		c2.8774,15.2095,5.6521,62.4192,8.4269,77.6284c1.0277,5.4467-5.2413,8.8382-12.5377,9.6602c0-0.1026,0.1028-0.1026,0.1028-0.1026
		c2.7746-5.0356-4.9328-3.2887-5.5495-4.6248c-2.672-5.241,5.9605-6.0633,7.1936-7.9128c3.1859-4.8302-6.0631-9.0436-9.249-11.3046
		c-8.4269-5.7549-2.8774-12.1264,2.0554-18.0869c3.8023-4.6246,0.7193-42.1741-3.3913-45.5654
		c-12.0238-9.9684-1.0277-16.6482-1.0277-19.5256c0-10.1741-15.0041-5.5497-13.5654-11.7154
		c1.5415-6.9884,9.5574-6.8856,11.6128-13.1546c1.6441-5.241-12.0238-2.6718-15.0041-2.5692
		C101.1455,232.616,113.5804,231.5881,115.0191,239.0903L115.0191,239.0903z"/>
	<path id="XMLID_329_" fill="#23C9F1" d="M440.0989,239.0903c-2.7746,15.2095-5.5495,30.419-8.3241,45.5259
		c-2.4904,19.8565-5.6523,62.4192-8.4269,77.6284c-1.0277,5.4467,5.241,8.8382,12.5374,9.6602c0-0.1026-0.1026-0.1026-0.1026-0.1026
		c-2.7748-5.0356,4.9328-3.2887,5.5493-4.6248c2.672-5.241-5.9605-6.0633-7.1936-7.9128c-3.1859-4.8302,6.0633-9.0436,9.249-11.3046
		c8.4269-5.7549,2.8774-12.1264-2.0554-18.0869c-3.8023-4.6246-0.7192-42.1741,3.3915-45.5654
		c11.921-9.9684,1.0277-16.6482,1.0277-19.5256c0-10.1741,15.0039-5.5497,13.5652-11.7154
		c-1.5415-6.9884-9.5574-6.8856-11.6126-13.1546c-1.6443-5.241,12.0236-2.6718,15.0038-2.5692
		C453.9725,232.616,441.5377,231.5881,440.0989,239.0903L440.0989,239.0903z"/>
	<path id="XMLID_325_" fill="#40494C" d="M84.1891,248.4419L84.1891,248.4419c-4.3164,0.8223-7.1938,4.933-6.3718,9.2492
		l12.6405,100.443c0.7195,4.2133,4.9328,7.091,9.1464,6.2687l0,0L84.1891,248.4419z"/>
	<path id="XMLID_324_" fill="#40494C" d="M470.9292,248.4419L470.9292,248.4419c4.3162,0.8223,7.1936,4.933,6.3715,9.2492
		l-12.6405,100.443c-0.7192,4.2133-4.9328,7.091-9.1462,6.2687l0,0L470.9292,248.4419z"/>
	<path id="XMLID_323_" fill="#323B3F" d="M78.7425,262.6239c-7.502,6.0633-11.3046,50.498-8.9408,63.8579
		c2.4664,13.3597,10.5849,23.7392,19.7313,26.7192L78.7425,262.6239z"/>
	<path id="XMLID_322_" fill="#323B3F" d="M476.3758,262.6239c7.502,6.0633,11.3044,50.498,8.838,63.8579
		c-2.3636,13.3597-10.4823,23.7392-19.6287,26.7192L476.3758,262.6239z"/>
</g>
</svg>
