<?xml version="1.0" encoding="utf-8"?>
<!-- Generator: Adobe Illustrator 19.0.0, SVG Export Plug-In . SVG Version: 6.00 Build 0)  -->
<svg version="1.1" id="Layer_1" xmlns="http://www.w3.org/2000/svg" xmlns:xlink="http://www.w3.org/1999/xlink" x="0px" y="0px"
	 viewBox="0 0 551.3514 425.6757" enable-background="new 0 0 551.3514 425.6757" xml:space="preserve">
<g id="XMLID_3016_">
	<path id="XMLID_3092_" fill="#232323" d="M69.5398,238.9539c-2.4304-0.2024-5.2657,2.1266-7.696,5.7723
		c-2.0253,3.1391-3.6456,7.2908-4.4557,11.848c-0.81,4.5568-0.709,9.5188,0.6076,14.4807
		c2.6327,9.6201,10.1264,19.1388,25.4174,24.8098l-2.734,7.696c-18.329-6.7847-27.3416-18.4301-30.582-30.3794
		c-1.6203-6.1771-1.7214-12.3543-0.81-18.0248c1.0126-5.6709,3.038-10.8356,5.6707-14.886
		c4.0506-6.1773,9.6201-9.924,15.1897-9.5187L69.5398,238.9539z"/>
	<path id="XMLID_3091_" fill="#232323" d="M485.6069,238.9539c2.5316-0.2024,5.367,2.1266,7.7973,5.7723
		c2.0251,3.1391,3.6454,7.2908,4.4557,11.848c0.81,4.5568,0.7087,9.5188-0.6077,14.4807
		c-2.633,9.6201-10.1266,19.1388-25.4174,24.8098l2.7341,7.696c18.329-6.7847,27.3414-18.4301,30.582-30.3794
		c1.6201-6.1771,1.7214-12.3543,0.81-18.0248c-1.0126-5.6709-3.038-10.8356-5.6707-14.886
		c-4.0506-6.1773-9.6203-9.924-15.1897-9.5187L485.6069,238.9539z"/>
	<path id="XMLID_3090_" fill="#232323" d="M81.8942,258.7006c5.6707-1.924,11.3417-3.848,17.0124-5.6707
		c8.81-3.038,18.5314,1.7214,21.4681,10.5314c4.8607,24.7087,12.8607,78.127,23.8984,100.709
		c3.038,8.81-1.7214,18.4303-10.5314,21.468c-5.6707,1.924-11.443,3.848-17.1137,5.6707
		C105.0838,357.0805,93.4382,293.0293,81.8942,258.7006L81.8942,258.7006z"/>
	<path id="XMLID_3089_" fill="#232323" d="M473.3539,258.7006c-5.6707-1.924-11.3417-3.848-17.0125-5.6707
		c-8.81-3.038-18.5314,1.7214-21.4683,10.5314c-4.8607,24.7087-12.8604,78.127-23.8984,100.709
		c-3.0378,8.81,1.7216,18.4303,10.5317,21.468c5.6707,1.924,11.4429,3.848,17.1136,5.6707
		C450.1642,357.0805,461.8096,293.0293,473.3539,258.7006L473.3539,258.7006z"/>
	<path id="XMLID_3088_" fill="#313130" d="M81.8942,258.7006l9.4177-3.1393c-12.658,6.9875,3.6454,9.0126,9.0124,11.1393
		c3.443,1.4177,6.2784,1.0127,1.6203,4.7594c-6.1771,4.8607-11.7467,15.3923-1.0127,18.7338
		c1.519,0.5066,9.215,2.4304,7.0884,4.6583c-2.8354,2.8354-6.8858,5.0633-6.4808,9.7216c1.0127,9.3161,4.3544,7.2908,11.5441,9.3161
		c4.3544,1.2153,0.3039,4.3544-1.2151,5.8734c-0.9114,0.9113-3.6456,2.8356-1.924,4.7594
		c1.7214,2.1266,11.0377,30.7352,12.0504,35.0895c0.2024,1.0126-5.8734,6.7849-6.886,10.5316
		c-0.81,3.2404-1.519,6.7847,2.734,7.8987c1.8229,0.5061,12.1519-0.405,10.5316,2.2277c-2.4304,3.9493-6.9873,5.2659-6.481,9.4177
		l-5.2657,1.7214C105.0838,357.0805,93.4382,293.0293,81.8942,258.7006L81.8942,258.7006z"/>
	<path id="XMLID_3087_" fill="#313130" d="M473.3539,258.7006l-9.4177-3.1393c12.658,6.9875-3.6457,9.0126-9.0125,11.1393
		c-3.443,1.4177-6.2784,1.0127-1.6203,4.7594c6.177,4.8607,11.7466,15.3923,1.0126,18.7338
		c-1.519,0.5066-9.215,2.4304-7.0886,4.6583c2.8356,2.8354,6.886,5.0633,6.481,9.7216c-1.0127,9.3161-4.3543,7.2908-11.5441,9.3161
		c-4.3543,1.2153-0.3039,4.3544,1.2151,5.8734c0.9114,0.9113,3.6457,2.8356,1.924,4.7594
		c-1.7214,2.1266-11.0377,30.7352-12.0504,35.0895c-0.2026,1.0126,5.8734,6.7849,6.886,10.5316
		c0.81,3.2404,1.5188,6.7847-2.7341,7.8987c-1.8229,0.5061-12.1519-0.405-10.5316,2.2277c2.4304,3.9493,6.9873,5.2659,6.481,9.4177
		l5.2657,1.7214C450.1642,357.0805,461.8096,293.0293,473.3539,258.7006L473.3539,258.7006z"/>
	<path id="XMLID_3086_" fill="#C92214" d="M77.2359,255.8652L77.2359,255.8652c-1.8227,0.6076-2.7341,2.5317-2.1264,4.3544
		l35.2401,134.2275c0.6076,1.8227,2.6328,2.7343,4.3544,2.1266l0,0c1.8227-0.6077,2.8353-2.5317,2.2277-4.3543L81.6915,257.9918
		C80.9828,256.1691,79.0588,255.2575,77.2359,255.8652L77.2359,255.8652z"/>
	<path id="XMLID_3085_" fill="#C92214" d="M478.0119,255.8652L478.0119,255.8652c1.8229,0.6076,2.7343,2.5317,2.1266,4.3544
		L444.8985,394.447c-0.6076,1.8227-2.6327,2.7343-4.3544,2.1266l0,0c-1.8227-0.6077-2.8354-2.5317-2.2279-4.3543l35.2401-134.2275
		C474.2652,256.1691,476.1892,255.2575,478.0119,255.8652L478.0119,255.8652z"/>
	<path id="XMLID_3084_" fill="#232323" d="M75.1095,260.2195l-4.152,1.4177c-4.3544,1.4177-6.7847,6.2784-5.2657,10.6327
		l29.4681,116.9114c1.4177,4.4556,6.2784,6.7847,10.734,5.367l4.0507-1.4177L75.1095,260.2195z"/>
	<path id="XMLID_3083_" fill="#232323" d="M480.1385,260.2195l4.1517,1.4177c4.3543,1.4177,6.7849,6.2784,5.266,10.6327
		l-29.468,116.9114c-1.4178,4.4556-6.2784,6.7847-10.7341,5.367l-4.0507-1.4177L480.1385,260.2195z"/>
	<path id="XMLID_3018_" fill="#313130" d="M474.0626,222.2454c-3.0378,2.2277-4.9618,5.772-4.9618,9.7214
		c0,6.5823,5.3668,11.9491,11.9491,11.9491c6.5821,0,11.9493-5.3668,11.9493-11.9491c0-4.3544-2.3293-8.1013-5.7722-10.2277
		c-20.567-225.8164-398.6514-225.3978-419.2061,0c-3.443,2.1264-5.772,5.8734-5.772,10.2277c0,6.5823,5.367,11.9491,11.9493,11.9491
		c6.5821,0,11.9491-5.3668,11.9491-11.9491c0-3.9493-1.924-7.4937-4.962-9.7214C99.6953,44.2047,455.5274,43.9601,474.0626,222.2454
		L474.0626,222.2454z"/>
	<path id="XMLID_3017_" fill="#4D4D4D" d="M474.0626,222.2454l-0.2024,0.1011c1.519,0.3039,2.734,0.3039,2.5314-0.7087
		c-30.3967-195.3451-367.1876-194.8799-397.5354,0c-0.2024,0.81,0.9113,0.9114,2.4304,0.7087l-0.1013-0.1011
		C99.6953,44.2047,455.5274,43.9601,474.0626,222.2454L474.0626,222.2454z"/>
</g>
</svg>
