<?xml version="1.0" encoding="utf-8"?>
<!-- Generator: Adobe Illustrator 19.0.0, SVG Export Plug-In . SVG Version: 6.00 Build 0)  -->
<svg version="1.1" id="Layer_1" xmlns="http://www.w3.org/2000/svg" xmlns:xlink="http://www.w3.org/1999/xlink" x="0px" y="0px"
	 viewBox="0 0 445.2703 322.973" enable-background="new 0 0 445.2703 322.973" xml:space="preserve">
<g id="XMLID_683_">
	<g id="XMLID_703_">
		<path id="XMLID_708_" fill="#808080" d="M401.4776,39.5963l-6.6246-1.7324l-7.5746,28.9742l6.6218,1.7323
			c6.391,1.6712,12.9401-2.1357,14.6202-8.558l1.5153-5.7957C411.7054,47.8254,407.8658,41.2687,401.4776,39.5963z"/>
		<path id="XMLID_707_" fill="#B0B0B0" d="M375.5323,45.1941l-1.5167,5.7956c-1.6774,6.4225,2.1699,12.9478,8.5594,14.6204
			l0.5627,0.1453l7.5774-28.9726l-0.5626-0.1468C383.7616,34.9635,377.2035,38.8031,375.5323,45.1941z"/>
		
			<rect id="XMLID_706_" x="374.0233" y="49.6706" transform="matrix(0.253 -0.9675 0.9675 0.253 240.4462 415.0397)" fill="#747474" width="29.9471" height="4.2797"/>
		<path id="XMLID_705_" fill="#7E7E7E" d="M386.5717,87.9434c0.5327,1.3885,1.737,2.4906,3.3123,2.9027l8.1559,2.1319
			c2.6678,0.698,5.3916-0.8968,6.0895-3.5631l9.7655-37.3493c1.2495-4.7772-1.6018-9.6486-6.3791-10.8967l-1.7789-0.4673
			c1.5449,2.0876,2.1783,4.8585,1.4672,7.5776l-9.7669,37.3492c-0.698,2.6663-3.4218,4.2611-6.0895,3.5631L386.5717,87.9434z"/>
		<path id="XMLID_704_" fill="#808080" d="M398.3445,38.7686l-12.0264,45.9878c-0.2859,1.0924-0.1955,2.2023,0.2536,3.187
			l4.7759,1.248c2.6678,0.698,5.3916-0.8968,6.0895-3.5631l9.7669-37.3492c0.7112-2.7191,0.0777-5.4899-1.4672-7.5776
			L398.3445,38.7686z"/>
	</g>
	<g id="XMLID_696_">
		<path id="XMLID_701_" fill="#808080" d="M29.716,39.4433l6.6246-1.7324l7.5746,28.9742l-6.6218,1.7323
			c-6.391,1.6712-12.9401-2.1357-14.6202-8.558l-1.5153-5.7957C19.4882,47.6725,23.3279,41.1157,29.716,39.4433z"/>
		<path id="XMLID_700_" fill="#B0B0B0" d="M55.6614,45.0412l1.5167,5.7956c1.6774,6.4225-2.1699,12.9478-8.5594,14.6204
			l-0.5628,0.1453l-7.5774-28.9726l0.5626-0.1468C47.432,34.8105,53.9902,38.6501,55.6614,45.0412z"/>
		
			<rect id="XMLID_699_" x="27.2233" y="49.5176" transform="matrix(-0.253 -0.9675 0.9675 -0.253 2.8972 105.5519)" fill="#747474" width="29.9471" height="4.2797"/>
		<path id="XMLID_698_" fill="#7E7E7E" d="M44.6219,87.7905c-0.5327,1.3885-1.737,2.4906-3.3123,2.9027l-8.1558,2.1319
			c-2.6677,0.698-5.3916-0.8968-6.0895-3.5631l-9.7655-37.3493c-1.2495-4.7772,1.6018-9.6486,6.3791-10.8967l1.7789-0.4673
			c-1.5449,2.0876-2.1783,4.8585-1.4672,7.5776l9.7669,37.3492c0.698,2.6663,3.4218,4.2611,6.0895,3.5631L44.6219,87.7905z"/>
		<path id="XMLID_697_" fill="#808080" d="M32.8491,38.6157l12.0265,45.9878c0.2859,1.0924,0.1954,2.2023-0.2536,3.187
			l-4.7759,1.248c-2.6677,0.698-5.3916-0.8968-6.0895-3.5631l-9.7669-37.3492c-0.7112-2.7191-0.0777-5.4899,1.4672-7.5776
			L32.8491,38.6157z"/>
	</g>
	<g id="XMLID_688_">
		<path id="XMLID_127_" fill="#7E7E7E" d="M397.5934,87.0217c0,0-0.1373,1.2518-0.3947,3.5989
			c-0.3278,2.4136-0.8204,5.9019-1.8013,10.2708c-0.98,4.3681-2.4617,9.6108-4.6774,15.4313
			c-2.2186,5.8152-5.2154,12.1956-9.183,18.7399c-3.9777,6.5317-8.9077,13.2452-14.9284,19.6098
			c-6.0147,6.3601-13.0985,12.386-21.1555,17.5121c-1.0171,0.6237-2.0383,1.2501-3.0636,1.8788
			c-1.0518,0.5948-2.1077,1.1919-3.1674,1.7912c-2.1308,1.102-4.2266,2.2648-6.4268,3.3382
			c-2.2007,1.0681-4.4001,2.1842-6.6519,3.1791c-1.1212,0.5114-2.2452,1.024-3.3718,1.5377
			c-1.1379,0.4864-2.2783,0.9738-3.421,1.4622c-9.1442,3.9033-18.634,7.3313-28.1733,10.554
			c-9.5386,3.2302-19.1334,6.2536-28.5323,9.3461c-4.7023,1.5394-9.3511,3.1084-13.9254,4.7106
			c-4.5926,1.5264-8.8694,3.5786-12.8704,6.0289c-7.9689,4.9025-14.7626,11.1719-19.7186,18.1835
			c-2.4698,3.5078-4.468,7.2137-5.8365,11.0111c-1.3706,3.7941-2.097,7.6761-2.1355,11.4175
			c-0.0626,3.7456,0.6149,7.3224,1.7244,10.5497c1.1367,3.2248,2.6961,6.1034,4.4501,8.6009
			c3.5044,5.02,7.5605,8.5973,11.0005,11.3084c3.4773,2.6915,6.4225,4.5194,8.4493,5.7177c1.005,0.6157,1.8069,1.0338,2.3325,1.3414
			c0.5303,0.2995,0.804,0.454,0.804,0.454s-0.2752-0.1518-0.8085-0.4458c-0.5286-0.3022-1.3351-0.7123-2.3466-1.3179
			c-2.0399-1.1783-5.005-2.9767-8.5165-5.6379c-3.4744-2.682-7.5802-6.226-11.162-11.2462
			c-1.7923-2.498-3.3973-5.3873-4.5814-8.6406c-1.1568-3.2555-1.8823-6.8798-1.8575-10.6868
			c0.0002-3.8026,0.6989-7.7578,2.0521-11.6259c1.351-3.8716,3.3407-7.6523,5.8082-11.2338
			c4.9533-7.1594,11.7612-13.5728,19.7967-18.6307c4.0094-2.5205,8.414-4.6753,13.0146-6.2657
			c4.562-1.6683,9.1981-3.304,13.8835-4.9091c9.3669-3.2246,18.9171-6.3783,28.3867-9.7303
			c9.4709-3.3445,18.8674-6.886,27.8837-10.8817c1.1266-0.4998,2.2509-0.9986,3.3727-1.4963
			c1.1089-0.5242,2.2153-1.0473,3.319-1.569c2.2231-1.0187,4.3625-2.143,6.5127-3.2219c2.1465-1.0826,4.2543-2.289,6.3611-3.4154
			c1.0161-0.5934,2.0286-1.1847,3.0371-1.7737c0.9919-0.6272,1.98-1.2519,2.964-1.8741
			c7.7918-5.1086,14.6166-11.078,20.3903-17.3527c5.7796-6.2793,10.4859-12.8782,14.2642-19.2771
			c3.7681-6.4116,6.5897-12.6408,8.6612-18.302c2.0685-5.6665,3.4312-10.7531,4.3195-14.9824
			c0.8902-4.2336,1.3166-7.6069,1.5952-9.8666c0.2246-2.3426,0.3444-3.5919,0.3444-3.5919L397.5934,87.0217z"/>
	</g>
	<g id="XMLID_685_">
		<path id="XMLID_125_" fill="#7E7E7E" d="M37.0296,83.5395c0,0,0.1459,1.5672,0.4193,4.5057
			c0.1409,1.4662,0.4063,3.2079,0.6661,5.2936c0.1416,1.0393,0.3537,2.1585,0.5466,3.3515
			c0.1948,1.1944,0.4063,2.4629,0.6984,3.7905c1.0493,5.3306,2.6369,11.7587,5.1332,18.9165
			c2.4979,7.1511,5.8734,15.0463,10.434,23.1952c2.3017,4.0609,4.8843,8.1864,7.7752,12.3088
			c0.7257,1.028,1.4966,2.0367,2.2523,3.0693c0.749,1.0292,1.5321,2.0576,2.3516,3.0784c1.6077,2.0159,3.3196,4.0247,5.1404,5.9504
			c3.6504,3.8372,7.793,7.427,12.6115,10.0887c4.7755,2.6885,10.2733,4.3226,15.9712,4.4467
			c2.8192,0.0713,5.7086-0.2169,8.192-1.299c1.2265-0.5438,2.3216-1.3141,3.0531-2.3028c0.7347-0.985,1.0581-2.1867,0.9308-3.4281
			c-0.1289-1.2431-0.6795-2.4944-1.4781-3.6129c-0.7961-1.1246-1.8238-2.1296-2.9613-3.0156
			c-1.1449-0.881-2.3994-1.653-3.7233-2.3134c-0.6591-0.3355-1.3392-0.6378-2.0282-0.9227
			c-0.3452-0.1414-0.6922-0.2795-1.0442-0.4074l-0.2629-0.0985c-1.0885,2.8767,1.6018-4.8317-0.0137-0.0072l-0.1384-0.0437
			l-0.5457-0.1685c-2.676-0.7589-5.7184-0.5223-8.4974,0.421c-2.8007,0.9371-5.4218,2.5192-7.6667,4.5071
			c-4.5359,3.9547-7.0743,9.9067-7.63,15.9608c-0.2834,3.0341-0.071,6.1147,0.5194,9.1318c0.601,3.0135,1.5725,5.9556,2.7955,8.7875
			c0.6096,1.4174,1.2936,2.8034,2.0217,4.1648c0.7165,1.3639,1.5301,2.6627,2.3393,4.0146
			c1.6488,2.5839,3.4628,5.0845,5.3993,7.4662c7.8276,9.4977,17.6696,16.9362,27.8537,22.7632
			c10.2245,5.8322,20.8098,10.1601,30.927,13.9503c5.066,1.8933,10.0273,3.6326,14.8241,5.357
			c4.7808,1.76,9.332,3.6502,13.6911,5.4605c8.7157,3.6408,16.6643,7.0702,23.7195,10.0867
			c7.0609,3.0025,13.2166,5.6201,18.2859,7.7757c5.0842,2.1197,9.0863,3.7691,11.842,4.825c1.3702,0.548,2.437,0.9248,3.1511,1.1917
			c0.7153,0.2639,1.0845,0.4001,1.0845,0.4001s-0.37-0.1339-1.0869-0.3932c-0.7158-0.2624-1.7852-0.6326-3.1588-1.172
			c-2.7628-1.0388-6.7755-2.6631-11.8735-4.751c-5.0831-2.1239-11.2555-4.7029-18.3356-7.6611
			c-7.0739-2.9721-15.0442-6.3515-23.7792-9.9362c-4.3729-1.7838-8.9215-3.6397-13.7066-5.3672
			c-4.8002-1.6745-9.7942-3.3561-14.8849-5.1962c-10.1738-3.6826-20.8432-7.9029-31.2112-13.6634
			c-10.3297-5.7597-20.3724-13.1595-28.4557-22.7439c-2.0004-2.4055-3.8748-4.9248-5.6116-7.5842
			c-0.8081-1.3162-1.6687-2.6584-2.4241-4.0567c-0.7628-1.3888-1.4824-2.8067-2.1283-4.2628
			c-2.5923-5.7988-4.1977-12.2339-3.6592-18.7507c0.2593-3.2348,1.0512-6.4393,2.3859-9.4233
			c1.3273-2.9991,3.2763-5.7005,5.7144-7.9196c2.4229-2.1914,5.245-3.9469,8.3548-5.029c3.1019-1.0762,6.5326-1.4459,9.8588-0.5441
			c2.9531,0.9135,5.9575,2.3307,8.5389,4.2773c1.2901,0.9892,2.4922,2.1327,3.4754,3.4954
			c0.9789,1.3542,1.7441,2.9614,1.9481,4.7503c0.2149,1.7803-0.2823,3.7037-1.356,5.1445c-1.062,1.4548-2.5257,2.4533-4.0218,3.1344
			c-3.0325,1.3392-6.2231,1.6335-9.2771,1.5917c-6.1201-0.0825-12.103-1.7726-17.2477-4.6024
			c-5.1763-2.7863-9.576-6.5276-13.4137-10.4716c-1.9187-1.985-3.6942-4.0219-5.3871-6.0967
			c-0.8375-1.0197-1.6466-2.0576-2.4328-3.1116c-0.7844-1.0466-1.5838-2.0698-2.3376-3.1125c-3.003-4.1812-5.6917-8.3711-8.093-12.5
			c-4.7597-8.2847-8.3074-16.3307-10.9493-23.6316c-2.6404-7.3077-4.3438-13.8849-5.4828-19.3466
			c-0.3145-1.3602-0.5469-2.6605-0.761-3.8851c-0.2126-1.2261-0.4411-2.3651-0.6007-3.4439
			c-0.2954-2.157-0.5933-4.0133-0.7509-5.4829c-0.3063-2.9353-0.4697-4.5007-0.4697-4.5007L37.0296,83.5395z"/>
	</g>
</g>
</svg>
