<?xml version="1.0" encoding="utf-8"?>
<!-- Generator: Adobe Illustrator 19.0.0, SVG Export Plug-In . SVG Version: 6.00 Build 0)  -->
<svg version="1.1" id="Layer_1" xmlns="http://www.w3.org/2000/svg" xmlns:xlink="http://www.w3.org/1999/xlink" x="0px" y="0px"
	 viewBox="0 0 551.3514 425.6757" enable-background="new 0 0 551.3514 425.6757" xml:space="preserve">
<g id="XMLID_3093_">
	<path id="XMLID_3103_" fill="#6C787F" d="M116.5812,256.5091h4.7251c3.3079,0,6.0249,3.7802,6.0249,8.5056v89.6629
		c0,4.7251-2.717,8.5056-6.0249,8.5056h-4.7251c-1.0632,0-1.8902-1.1813-1.8902-2.717v-101.24
		C114.691,257.6904,115.5181,256.5091,116.5812,256.5091L116.5812,256.5091z"/>
	<path id="XMLID_3102_" fill="#6C787F" d="M440.1214,256.5091h-4.6072c-3.3076,0-6.0249,3.7802-6.0249,8.5056v89.6629
		c0,4.7251,2.7173,8.5056,6.0249,8.5056h4.6072c1.1813,0,2.0081-1.1813,2.0081-2.717v-101.24
		C442.1295,257.6904,441.3027,256.5091,440.1214,256.5091L440.1214,256.5091z"/>
	<path id="XMLID_3101_" fill="#40494C" d="M104.1774,246.3497h8.0328c5.6704,0,10.2776,4.489,10.2776,10.1594v106.674
		c0,5.5522-4.6072,10.1594-10.2776,10.1594h-8.0328c-1.772,0-3.3079-1.4175-3.3079-3.3077V249.6574
		C100.8694,247.7672,102.4053,246.3497,104.1774,246.3497L104.1774,246.3497z"/>
	<path id="XMLID_3100_" fill="#40494C" d="M452.6434,246.3497h-8.0331c-5.6703,0-10.2776,4.489-10.2776,10.1594v106.674
		c0,5.5522,4.6072,10.1594,10.2776,10.1594h8.0331c1.772,0,3.3076-1.4175,3.3076-3.3077V249.6574
		C455.9511,247.7672,454.4155,246.3497,452.6434,246.3497L452.6434,246.3497z"/>
	<rect id="XMLID_3099_" x="97.9161" y="256.6273" fill="#232C30" width="2.9534" height="106.4376"/>
	<path id="XMLID_3098_" fill="#323B3F" d="M78.0698,252.3744h17.4838c1.2993,0,2.3624,1.0632,2.3624,2.3627v117.0697H84.8036
		c-4.9618,0-9.0965-4.0165-9.0965-9.0962V254.7371C75.7071,253.4375,76.7705,252.3744,78.0698,252.3744L78.0698,252.3744z"/>
	<path id="XMLID_3097_" fill="#323B3F" d="M481.1134,252.3744h-22.209v119.4324h13.1128c4.9615,0,9.0962-4.0165,9.0962-9.0962
		V252.3744z"/>
	<path id="XMLID_3096_" fill="#6C787F" d="M464.4566,252.3744c3.6622,0,7.4424,0,11.1046,0
		c-15.1487-233.0653-379.1573-233.4204-394.3017,0c3.662,0,7.3242,0,11.1043,0C92.6535,61.4535,464.167,61.4535,464.4566,252.3744
		L464.4566,252.3744z"/>
	<path id="XMLID_3095_" fill="#5F6C72" d="M464.4566,252.3744h0.1182h0.1182l0,0h0.1179h0.1182l0,0h0.1182h0.1182l0,0h0.1182h0.1179
		h0.1182l0,0h0.1182l0,0h0.2364l0,0h0.1179l0,0h0.2364l0,0h0.1182l0,0h0.1182h0.1179h0.1182l0,0h0.1182h0.1182h0.1179l0,0h0.1182
		h0.1182l0,0h0.1182h0.1182h0.1182l0,0h0.1179h0.1182h0.1182l0,0h0.1182l0,0h0.1179h0.1182h0.1182l0,0h0.1182h0.1182h0.1179l0,0
		h0.1182l0,0c-14.6037-209.4165-366.4467-209.6501-381.189,0h0.1182h0.1182l0,0h0.1182h0.1179h0.1182l0,0h0.1182h0.1182l0,0h0.1182
		h0.1179l0,0h0.1182h0.1182h0.1182l0,0h0.1182h0.1179l0,0h0.1182h0.1182h0.1182l0,0h0.1182h0.1179h0.1182l0,0h0.1182l0,0h0.2364l0,0
		h0.1179l0,0h0.2364l0,0h0.1182l0,0h0.1182h0.1179h0.1182l0,0h0.1182h0.1182h0.1179l0,0h0.1182l0,0h0.1182h0.1182h0.1182l0,0h0.1179
		h0.1182C92.6535,61.4535,464.167,61.4535,464.4566,252.3744L464.4566,252.3744z"/>
	<rect id="XMLID_3094_" x="455.9511" y="256.6273" fill="#232C30" width="2.9534" height="106.4376"/>
</g>
</svg>
