<?xml version="1.0" encoding="utf-8"?>
<!-- Generator: Adobe Illustrator 19.0.0, SVG Export Plug-In . SVG Version: 6.00 Build 0)  -->
<svg version="1.1" id="Layer_1" xmlns="http://www.w3.org/2000/svg" xmlns:xlink="http://www.w3.org/1999/xlink" x="0px" y="0px"
	 viewBox="0 0 504 361" style="enable-background:new 0 0 504 361;" xml:space="preserve">
<style type="text/css">
	.st0{fill:#6C787F;}
	.st1{fill:#40494C;}
	.st2{fill:#232C30;}
	.st3{fill:#323B3F;}
	.st4{fill:#5F6C72;}
</style>
<g id="XMLID_3093_">
	<path id="XMLID_3103_" class="st0" d="M89.6,214.5h4.7c3.3,0,6,3.8,6,8.5v89.7c0,4.7-2.7,8.5-6,8.5h-4.7c-1.1,0-1.9-1.2-1.9-2.7
		V217.2C87.7,215.7,88.5,214.5,89.6,214.5L89.6,214.5z"/>
	<path id="XMLID_3102_" class="st0" d="M413.1,214.5h-4.6c-3.3,0-6,3.8-6,8.5v89.7c0,4.7,2.7,8.5,6,8.5h4.6c1.2,0,2-1.2,2-2.7V217.2
		C415.1,215.7,414.3,214.5,413.1,214.5L413.1,214.5z"/>
	<path id="XMLID_3101_" class="st1" d="M77.2,204.3h8c5.7,0,10.3,4.5,10.3,10.2v106.7c0,5.6-4.6,10.2-10.3,10.2h-8
		c-1.8,0-3.3-1.4-3.3-3.3V207.7C73.9,205.8,75.4,204.3,77.2,204.3L77.2,204.3z"/>
	<path id="XMLID_3100_" class="st1" d="M425.6,204.3h-8c-5.7,0-10.3,4.5-10.3,10.2v106.7c0,5.6,4.6,10.2,10.3,10.2h8
		c1.8,0,3.3-1.4,3.3-3.3V207.7C429,205.8,427.4,204.3,425.6,204.3L425.6,204.3z"/>
	<rect id="XMLID_3099_" x="70.9" y="214.6" class="st2" width="3" height="106.4"/>
	<path id="XMLID_3098_" class="st3" d="M51.1,210.4h17.5c1.3,0,2.4,1.1,2.4,2.4v117.1H57.8c-5,0-9.1-4-9.1-9.1v-108
		C48.7,211.4,49.8,210.4,51.1,210.4L51.1,210.4z"/>
	<path id="XMLID_3097_" class="st3" d="M454.1,210.4h-22.2v119.4H445c5,0,9.1-4,9.1-9.1V210.4z"/>
	<path id="XMLID_3096_" class="st0" d="M437.5,210.4c3.7,0,7.4,0,11.1,0C433.4-22.7,69.4-23,54.3,210.4c3.7,0,7.3,0,11.1,0
		C65.7,19.5,437.2,19.5,437.5,210.4L437.5,210.4z"/>
	<path id="XMLID_3095_" class="st4" d="M437.5,210.4h0.1h0.1l0,0h0.1h0.1l0,0h0.1h0.1l0,0h0.1h0.1h0.1l0,0h0.1l0,0h0.2l0,0h0.1l0,0
		h0.2l0,0h0.1l0,0h0.1h0.1h0.1l0,0h0.1h0.1h0.1l0,0h0.1h0.1l0,0h0.1h0.1h0.1l0,0h0.1h0.1h0.1l0,0h0.1l0,0h0.1h0.1h0.1l0,0h0.1h0.1
		h0.1l0,0h0.1l0,0C427.3,1,75.5,0.7,60.8,210.4h0.1H61l0,0h0.1h0.1h0.1l0,0h0.1h0.1l0,0h0.1h0.1l0,0h0.1h0.1h0.1l0,0h0.1h0.1l0,0
		h0.1h0.1h0.1l0,0h0.1H63h0.1l0,0h0.1l0,0h0.2l0,0h0.1l0,0h0.2l0,0h0.1l0,0h0.1h0.1h0.1l0,0h0.1h0.1h0.1l0,0h0.1l0,0h0.1H65h0.1l0,0
		h0.1h0.1C65.7,19.5,437.2,19.5,437.5,210.4L437.5,210.4z"/>
	<rect id="XMLID_3094_" x="429" y="214.6" class="st2" width="3" height="106.4"/>
</g>
</svg>
