<?xml version="1.0" encoding="utf-8"?>
<!-- Generator: Adobe Illustrator 19.0.0, SVG Export Plug-In . SVG Version: 6.00 Build 0)  -->
<svg version="1.1" id="Layer_1" xmlns="http://www.w3.org/2000/svg" xmlns:xlink="http://www.w3.org/1999/xlink" x="0px" y="0px"
	 viewBox="0 0 432.4 280.4" style="enable-background:new 0 0 432.4 280.4;" xml:space="preserve">
<style type="text/css">
	.st0{fill:#808080;}
	.st1{fill:#B0B0B0;}
	.st2{fill:#747474;}
	.st3{fill:#7E7E7E;}
</style>
<g id="XMLID_683_">
	<g id="XMLID_703_">
		<path id="XMLID_708_" class="st0" d="M406.5,14.8l-6.6-1.7l-7.6,29l6.6,1.7c6.4,1.7,12.9-2.1,14.6-8.6l1.5-5.8
			C416.7,23,412.9,16.4,406.5,14.8z"/>
		<path id="XMLID_707_" class="st1" d="M380.5,20.4l-1.5,5.8c-1.7,6.4,2.2,12.9,8.6,14.6l0.6,0.1l7.6-29l-0.6-0.1
			C388.8,10.1,382.2,14,380.5,20.4z"/>
		
			<rect id="XMLID_706_" x="379" y="24.8" transform="matrix(0.253 -0.9675 0.9675 0.253 268.2083 401.3256)" class="st2" width="29.9" height="4.3"/>
		<path id="XMLID_705_" class="st3" d="M391.6,63.1c0.5,1.4,1.7,2.5,3.3,2.9l8.2,2.1c2.7,0.7,5.4-0.9,6.1-3.6l9.8-37.3
			c1.2-4.8-1.6-9.6-6.4-10.9l-1.8-0.5c1.5,2.1,2.2,4.9,1.5,7.6l-9.8,37.3c-0.7,2.7-3.4,4.3-6.1,3.6L391.6,63.1z"/>
		<path id="XMLID_704_" class="st0" d="M403.3,13.9l-12,46c-0.3,1.1-0.2,2.2,0.3,3.2l4.8,1.2c2.7,0.7,5.4-0.9,6.1-3.6l9.8-37.3
			c0.7-2.7,0.1-5.5-1.5-7.6L403.3,13.9z"/>
	</g>
	<g id="XMLID_696_">
		<path id="XMLID_701_" class="st0" d="M34.7,14.6l6.6-1.7l7.6,29l-6.6,1.7c-6.4,1.7-12.9-2.1-14.6-8.6l-1.5-5.8
			C24.5,22.8,28.3,16.3,34.7,14.6z"/>
		<path id="XMLID_700_" class="st1" d="M60.7,20.2l1.5,5.8c1.7,6.4-2.2,12.9-8.6,14.6l-0.6,0.1l-7.6-29l0.6-0.1
			C52.4,10,59,13.8,60.7,20.2z"/>
		
			<rect id="XMLID_699_" x="32.2" y="24.7" transform="matrix(-0.253 -0.9675 0.9675 -0.253 33.1896 79.2698)" class="st2" width="29.9" height="4.3"/>
		<path id="XMLID_698_" class="st3" d="M49.6,63c-0.5,1.4-1.7,2.5-3.3,2.9L38.2,68c-2.7,0.7-5.4-0.9-6.1-3.6l-9.8-37.3
			c-1.2-4.8,1.6-9.6,6.4-10.9l1.8-0.5c-1.5,2.1-2.2,4.9-1.5,7.6l9.8,37.3c0.7,2.7,3.4,4.3,6.1,3.6L49.6,63z"/>
		<path id="XMLID_697_" class="st0" d="M37.8,13.8l12,46c0.3,1.1,0.2,2.2-0.3,3.2l-4.8,1.2c-2.7,0.7-5.4-0.9-6.1-3.6L29,23.3
			c-0.7-2.7-0.1-5.5,1.5-7.6L37.8,13.8z"/>
	</g>
	<g id="XMLID_688_">
		<path id="XMLID_60_" class="st3" d="M402.6,62.2c0,0-0.1,1.3-0.4,3.6c-0.3,2.4-0.8,5.9-1.8,10.3c-1,4.4-2.5,9.6-4.7,15.4
			c-2.2,5.8-5.2,12.2-9.2,18.7c-4,6.5-8.9,13.2-14.9,19.6c-6,6.4-13.1,12.4-21.2,17.5c-1,0.6-2,1.3-3.1,1.9
			c-1.1,0.6-2.1,1.2-3.2,1.8c-2.1,1.1-4.2,2.3-6.4,3.3c-2.2,1.1-4.4,2.2-6.7,3.2c-1.1,0.5-2.2,1-3.4,1.5c-1.1,0.5-2.3,1-3.4,1.5
			c-9.1,3.9-18.6,7.3-28.2,10.6c-9.5,3.2-19.1,6.3-28.5,9.3c-4.7,1.5-9.4,3.1-13.9,4.7c-4.6,1.5-8.9,3.6-12.9,6
			c-8,4.9-14.8,11.2-19.7,18.2c-2.5,3.5-4.5,7.2-5.8,11c-1.4,3.8-2.1,7.7-2.1,11.4c-0.1,3.7,0.6,7.3,1.7,10.5
			c1.1,3.2,2.7,6.1,4.5,8.6c3.5,5,7.6,8.6,11,11.3c3.5,2.7,6.4,4.5,8.4,5.7c1,0.6,1.8,1,2.3,1.3c0.5,0.3,0.8,0.5,0.8,0.5
			s-0.3-0.2-0.8-0.4c-0.5-0.3-1.3-0.7-2.3-1.3c-2-1.2-5-3-8.5-5.6c-3.5-2.7-7.6-6.2-11.2-11.2c-1.8-2.5-3.4-5.4-4.6-8.6
			c-1.2-3.3-1.9-6.9-1.9-10.7c0-3.8,0.7-7.8,2.1-11.6c1.4-3.9,3.3-7.7,5.8-11.2c5-7.2,11.8-13.6,19.8-18.6c4-2.5,8.4-4.7,13-6.3
			c4.6-1.7,9.2-3.3,13.9-4.9c9.4-3.2,18.9-6.4,28.4-9.7c9.5-3.3,18.9-6.9,27.9-10.9c1.1-0.5,2.3-1,3.4-1.5c1.1-0.5,2.2-1,3.3-1.6
			c2.2-1,4.4-2.1,6.5-3.2c2.1-1.1,4.3-2.3,6.4-3.4c1-0.6,2-1.2,3-1.8c1-0.6,2-1.3,3-1.9c7.8-5.1,14.6-11.1,20.4-17.4
			c5.8-6.3,10.5-12.9,14.3-19.3c3.8-6.4,6.6-12.6,8.7-18.3c2.1-5.7,3.4-10.8,4.3-15c0.9-4.2,1.3-7.6,1.6-9.9
			c0.2-2.3,0.3-3.6,0.3-3.6L402.6,62.2z"/>
	</g>
	<g id="XMLID_685_">
		<path id="XMLID_687_" class="st3" d="M42,58.7c0,0,0.1,1.6,0.4,4.5c0.1,1.5,0.4,3.2,0.7,5.3c0.1,1,0.4,2.2,0.5,3.4
			c0.2,1.2,0.4,2.5,0.7,3.8c1,5.3,2.6,11.8,5.1,18.9c2.5,7.2,5.9,15,10.4,23.2c2.3,4.1,4.9,8.2,7.8,12.3c0.7,1,1.5,2,2.3,3.1
			c0.7,1,1.5,2.1,2.4,3.1c1.6,2,3.3,4,5.1,6c3.7,3.8,7.8,7.4,12.6,10.1c4.8,2.7,10.3,4.3,16,4.4c2.8,0.1,5.7-0.2,8.2-1.3
			c1.2-0.5,2.3-1.3,3.1-2.3c0.7-1,1.1-2.2,0.9-3.4c-0.1-1.2-0.7-2.5-1.5-3.6c-0.8-1.1-1.8-2.1-3-3c-1.1-0.9-2.4-1.7-3.7-2.3
			c-0.7-0.3-1.3-0.6-2-0.9c-0.3-0.1-0.7-0.3-1-0.4l-0.3-0.1c-1.1,2.9,1.6-4.8,0,0l-0.1,0l-0.5-0.2c-2.7-0.8-5.7-0.5-8.5,0.4
			c-2.8,0.9-5.4,2.5-7.7,4.5c-4.5,4-7.1,9.9-7.6,16c-0.3,3-0.1,6.1,0.5,9.1c0.6,3,1.6,6,2.8,8.8c0.6,1.4,1.3,2.8,2,4.2
			c0.7,1.4,1.5,2.7,2.3,4c1.6,2.6,3.5,5.1,5.4,7.5c7.8,9.5,17.7,16.9,27.9,22.8c10.2,5.8,20.8,10.2,30.9,14c5.1,1.9,10,3.6,14.8,5.4
			c4.8,1.8,9.3,3.7,13.7,5.5c8.7,3.6,16.7,7.1,23.7,10.1c7.1,3,13.2,5.6,18.3,7.8c5.1,2.1,9.1,3.8,11.8,4.8c1.4,0.5,2.4,0.9,3.2,1.2
			c0.7,0.3,1.1,0.4,1.1,0.4s-0.4-0.1-1.1-0.4c-0.7-0.3-1.8-0.6-3.2-1.2c-2.8-1-6.8-2.7-11.9-4.8c-5.1-2.1-11.3-4.7-18.3-7.7
			c-7.1-3-15-6.4-23.8-9.9c-4.4-1.8-8.9-3.6-13.7-5.4c-4.8-1.7-9.8-3.4-14.9-5.2c-10.2-3.7-20.8-7.9-31.2-13.7
			c-10.3-5.8-20.4-13.2-28.5-22.7c-2-2.4-3.9-4.9-5.6-7.6c-0.8-1.3-1.7-2.7-2.4-4.1c-0.8-1.4-1.5-2.8-2.1-4.3
			c-2.6-5.8-4.2-12.2-3.7-18.8c0.3-3.2,1.1-6.4,2.4-9.4c1.3-3,3.3-5.7,5.7-7.9c2.4-2.2,5.2-3.9,8.4-5c3.1-1.1,6.5-1.4,9.9-0.5
			c3,0.9,6,2.3,8.5,4.3c1.3,1,2.5,2.1,3.5,3.5c1,1.4,1.7,3,1.9,4.8c0.2,1.8-0.3,3.7-1.4,5.1c-1.1,1.5-2.5,2.5-4,3.1
			c-3,1.3-6.2,1.6-9.3,1.6c-6.1-0.1-12.1-1.8-17.2-4.6c-5.2-2.8-9.6-6.5-13.4-10.5c-1.9-2-3.7-4-5.4-6.1c-0.8-1-1.6-2.1-2.4-3.1
			c-0.8-1-1.6-2.1-2.3-3.1c-3-4.2-5.7-8.4-8.1-12.5c-4.8-8.3-8.3-16.3-10.9-23.6c-2.6-7.3-4.3-13.9-5.5-19.3
			c-0.3-1.4-0.5-2.7-0.8-3.9c-0.2-1.2-0.4-2.4-0.6-3.4c-0.3-2.2-0.6-4-0.8-5.5c-0.3-2.9-0.5-4.5-0.5-4.5L42,58.7z"/>
	</g>
</g>
</svg>
