<?xml version="1.0" encoding="utf-8"?>
<!-- Generator: Adobe Illustrator 19.0.0, SVG Export Plug-In . SVG Version: 6.00 Build 0)  -->
<svg version="1.1" id="Layer_1" xmlns="http://www.w3.org/2000/svg" xmlns:xlink="http://www.w3.org/1999/xlink" x="0px" y="0px"
	 viewBox="0 0 467 353" style="enable-background:new 0 0 467 353;" xml:space="preserve">
<style type="text/css">
	.st0{fill:#D8D9D9;}
	.st1{fill:#CCCDCD;}
	.st2{fill:#EBEBEB;}
	.st3{fill:#FEFEFE;}
	.st4{fill:#313130;}
	.st5{fill:#676766;}
	.st6{fill:#5A5A59;}
</style>
<g id="XMLID_71_">
	<path id="XMLID_567_" class="st0" d="M434.7,150.9v65.3h-7v-39.4c0-187-376.7-188.2-376.7-1.2v39.4h-7v-65.3
		C46.7-32,437.1-31.1,434.7,150.9L434.7,150.9z"/>
	<path id="XMLID_157_" class="st1" d="M431.3,216.2h-3.6v-39.4c0-187-376.7-188.2-376.7-1.2v39.4h-3.6v-53.2
		C50-19.8,433.7-18.9,431.3,163.1V216.2z"/>
	<path id="XMLID_87_" class="st2" d="M34.5,207l24.6-6.6c1-0.3,2.1,0.3,2.4,1.4l31.6,127.1c0.3,1-0.4,2.1-1.4,2.4l-24.5,6.6
		c-1.1,0.2-2.1-0.4-2.4-1.4L33.2,209.4C32.9,208.3,33.5,207.3,34.5,207L34.5,207z"/>
	<polygon id="XMLID_86_" class="st3" points="67,222.4 70.8,236.4 42.5,244 38.7,230 	"/>
	<path id="XMLID_85_" class="st0" d="M80.4,272.4l12.8,56.5c0.3,1-0.4,2.1-1.4,2.4l-24.5,6.6c-1.1,0.2-2.1-0.4-2.4-1.4L52,289
		L80.4,272.4z"/>
	<path id="XMLID_84_" class="st4" d="M62.5,205.6l11.9-3.2c1.4-0.3,2.9,0.5,3.2,1.9l28.2,114.3c0.4,1.4-0.4,2.8-1.8,3.2L92,325
		L62.5,205.6z"/>
	<path id="XMLID_83_" class="st5" d="M62.7,328.8c-12.5-4.6-25.4-31.9-31.8-55.8c-6.5-23.9-4.4-46.3,4.2-56.5L62.7,328.8z"/>
	<path id="XMLID_82_" class="st6" d="M39.6,304.4c-3.5-6.6-6.5-23.2-8.7-31.4c-2.3-8.4-3.5-16.5-3.7-23.9c5.2,5,9.7,12.6,12.1,21.6
		C41.7,279.8,41.7,297.6,39.6,304.4L39.6,304.4z"/>
	<path id="XMLID_77_" class="st2" d="M444.3,208.2l-24.6-6.6c-1-0.3-2.1,0.3-2.4,1.4l-31.6,127.1c-0.3,1,0.4,2.1,1.4,2.4l24.5,6.6
		c1.1,0.2,2.1-0.4,2.4-1.4l31.6-127.1C445.9,209.5,445.3,208.5,444.3,208.2L444.3,208.2z"/>
	<polygon id="XMLID_76_" class="st3" points="411.8,223.6 408,237.6 436.3,245.2 440.1,231.2 	"/>
	<path id="XMLID_75_" class="st0" d="M398.4,282.6l-12.8,47.5c-0.3,1,0.4,2.1,1.4,2.4l24.5,6.6c1.1,0.2,2.1-0.4,2.4-1.4l12.8-47.5
		L398.4,282.6z"/>
	<path id="XMLID_74_" class="st4" d="M416.3,206.8l-11.9-3.2c-1.4-0.3-2.9,0.5-3.2,1.9L373,319.8c-0.4,1.4,0.4,2.8,1.8,3.2l12,3.2
		L416.3,206.8z"/>
	<path id="XMLID_73_" class="st5" d="M416.1,330c12.5-4.6,25.4-22.9,31.8-46.8c6.5-23.9,4.4-55.3-4.2-65.5L416.1,330z"/>
	<path id="XMLID_72_" class="st6" d="M439.2,305.6c3.5-6.6,6.5-14.2,8.7-22.4c2.3-8.4,3.5-25.5,3.7-32.9c-5.2,5-9.7,12.6-12.1,21.6
		C437.1,281,437.1,298.7,439.2,305.6L439.2,305.6z"/>
</g>
</svg>
