<?xml version="1.0" encoding="utf-8"?>
<!-- Generator: Adobe Illustrator 19.0.0, SVG Export Plug-In . SVG Version: 6.00 Build 0)  -->
<svg version="1.1" id="Layer_1" xmlns="http://www.w3.org/2000/svg" xmlns:xlink="http://www.w3.org/1999/xlink" x="0px" y="0px"
	 viewBox="0 0 556.7568 560" enable-background="new 0 0 556.7568 560" xml:space="preserve">
<path id="XMLID_7076_" fill="#343435" d="M111.7681,249.5656c0.35-98.9122,80.8149-178.8158,179.7416-178.462
	c98.9046,0.3314,178.812,80.8108,178.4657,179.73l-17.9043-0.0653c0.3172-89.0325-71.6054-161.4547-160.6233-161.7607
	c-89.0362-0.3097-161.4548,71.6058-161.7716,160.6345L111.7681,249.5656z"/>
<g id="XMLID_7072_">
	<path id="XMLID_7074_" fill="#5E5E5E" d="M291.5097,81.4021C386.7189,81.7263,464.2831,156,469.6399,250h0.3355
		c0.3463-99-79.561-179.2609-178.4657-179.5927C192.583,70.0465,112.1181,150,111.7681,249h0.4082
		C118.1967,155,196.2781,81.0558,291.5097,81.4021z"/>
</g>
<g id="XMLID_7068_">
	<path id="XMLID_7070_" fill="#343435" d="M443.9189,305.8508v73.8883c0,83.7995-65,93.508-148,98.8066v0.3571
		c87-0.3026,157-12.114,157-99.1638V306.558L443.9189,305.8508z"/>
</g>
<g id="XMLID_7057_">
	<path id="XMLID_7066_" fill="#343435" d="M138.9189,414.2415c-42,0-58.1066-34.0663-58.1066-76.1062
		c0-42.0253,16.1066-76.0883,58.1066-76.0883V414.2415z"/>
	<g id="XMLID_7062_">
		<path id="XMLID_7064_" fill="#5E5E5E" d="M122.9189,303.4711v-22.66c-28,0-33.7006,23.2358-33.7006,51.9016
			c0,2.467,0.1254,4.8613,0.4572,7.2372C98.0282,319.36,99.9189,304.6481,122.9189,303.4711z"/>
	</g>
	<rect id="XMLID_7059_" x="129.9189" y="252" fill="#5E5E5E" width="21" height="172"/>
</g>
<g id="XMLID_7045_">
	<path id="XMLID_7054_" fill="#343435" d="M442.9189,414.2415c42,0,61.1029-34.0663,61.1029-76.1062
		c0-42.0253-19.1029-76.0883-61.1029-76.0883V414.2415z"/>
	<g id="XMLID_7049_">
		<path id="XMLID_7052_" fill="#5E5E5E" d="M455.9189,303.4711v-22.66c23,0,45.7718,23.2358,45.7718,51.9016
			c0,2.467-0.161,4.8613-0.4928,7.2372C492.8453,319.36,478.9189,304.6481,455.9189,303.4711z"/>
	</g>
	<rect id="XMLID_7047_" x="429.9189" y="252" fill="#5E5E5E" width="22" height="172"/>
</g>
<ellipse id="XMLID_7043_" fill="#343435" cx="312.9883" cy="475.122" rx="32.4195" ry="16.1346"/>
<g id="XMLID_7032_">
	<path id="XMLID_7034_" fill="#5E5E5E" d="M319.2387,466.1804c8.9592,0,16.9648,1.8829,22.3456,4.8481
		c-3.8677-5.4733-14.8605-9.4359-27.8481-9.4359c-16.2081,0-29.3438,6.1616-29.3438,13.7563c0,3.4006,2.6392,6.5046,6.9983,8.9079
		c-0.9583-1.3598-1.4983-2.8143-1.4983-4.3225C289.8924,472.3419,303.0329,466.1804,319.2387,466.1804z"/>
</g>
</svg>
