<?xml version="1.0" encoding="utf-8"?>
<!-- Generator: Adobe Illustrator 19.0.0, SVG Export Plug-In . SVG Version: 6.00 Build 0)  -->
<svg version="1.1" id="Layer_1" xmlns="http://www.w3.org/2000/svg" xmlns:xlink="http://www.w3.org/1999/xlink" x="0px" y="0px"
	 viewBox="0 0 339 297" style="enable-background:new 0 0 339 297;" xml:space="preserve">
<style type="text/css">
	.st0{fill:#FFFFFF;}
	.st1{fill:#EF7B05;}
</style>
<g id="XMLID_2014_">
	<path id="XMLID_2622_" class="st0" d="M242.9,111.1C242.9,111.1,242.9,111.1,242.9,111.1c-2,3-10.1-1-8-6.6c0,0,0,0,0,0
		c0,0,0,0,0,0c2.5-1.3,4.1-2.6,3.8-3.5C240,104.6,241.2,108,242.9,111.1C242.9,111.1,242.9,111.1,242.9,111.1z"/>
	<path id="XMLID_2621_" class="st0" d="M62.5,146.4c5,7.2,2.6,20-10.5,23c-0.3-5,0-10,1-14.8C53.9,150.4,57.9,148,62.5,146.4z"/>
	<path id="XMLID_2620_" class="st0" d="M281.7,170.3c-0.2-0.7-0.5-1.3-0.7-2c-0.4-1.1-0.8-2.1-1.2-3.2c-0.2-0.5-0.1-1.3-0.6-1.6
		c-15-9.5-24.2-21.5-25.2-41.2c2.6,1.4,5.3,2.5,7.5,4.4c4.8,4,4.2,8,6.4,13.5c2.5,6.2,8.4,6.7,11.5,12.1
		C281.9,156.7,282.2,163.4,281.7,170.3z"/>
	<path id="XMLID_2619_" class="st1" d="M317.2,179.9c-1.5,11.1-3.8,22-6.2,33c-1.3,5.8-2.8,14.4-5.9,19.5c-2,3.1-5.5,4.6-7.6,7.8
		c-2.8,4.4-2.5,9.5-4,14.3c-1.4,4.2-3.6,7.3-5.7,11.2c-0.1-2.7,0-5.4,0-8.2c0-0.8,0-1.7,0-2.5c-0.1-3.5-0.4-6.9-1.3-10.3
		c0-0.1-0.1-0.3-0.1-0.5c0,0,0,0,0,0c0-0.2-0.1-0.3-0.1-0.5c0,0-0.1,0-0.1,0c0,0-0.1,0-0.1,0s0,0,0,0c-1-3-2-5.9-3.3-8.7
		c0,0,0,0,0-0.1c0,0,0-0.1,0-0.1c-3.4-7.2-7.6-14-9-22.1c-1.1-6.7,2.9-14.1,4.2-20.5c1.1-5.4,3.1-13.9,3.8-22
		c0.6-6.9,0.2-13.6-2.4-18c-3.2-5.4-9.1-5.9-11.5-12.1c-2.2-5.5-1.5-9.4-6.4-13.5c-2.2-1.9-4.9-3-7.5-4.4c-1.4-0.7-2.7-1.5-3.9-2.5
		c-3.2-2.5-5.4-5.5-7.1-8.7c0,0,0,0,0,0c-1.7-3.1-2.9-6.5-4.2-10.1c0.3,1-1.2,2.2-3.8,3.5c0,0,0,0,0,0c-6.5,3.5-19.1,7.4-20.9,7.9
		c-9.4,2.7-20.3,3.9-29.6,0.2c3.5-1.6,7.8-2.8,10.6-5.5c-1.8,1.3-9.5,1.7-11.5,1.9c-3.7,0.3-7.1-0.8-10.8-0.7
		c-5.8,0.1-11,3-16.8,3.6c-7.1,0.7-14.6,0-21.7,0c-6.9,0-15.6-0.9-22,2.7c-6.3,3.5-11.4,10.9-16.1,16.3
		c-5.6,6.6-13.4,10.4-21.7,12.4c-3.1,0.7-7.7,1.5-11.8,3c-4.5,1.6-8.6,4-9.5,8.2c-1,4.8-1.3,9.8-1,14.8c0.3,5.3,1.3,10.5,2.7,15.4
		c2.4,8.1,2.7,15.6,0.2,23.9c-2.6,8.7-5.4,17.3-6.9,26.3c-0.2,1-0.3,2-0.4,3.1c-0.7,5.7-0.3,11.3,0.2,17c0.5,5.1,1,10.1,1,15.3
		c0,0.6,0,1.2,0,1.8c0-2.9-6.9-10.8-8.5-13.6c-2.7-5-5.2-10.2-7.4-15.5c-3.8-9.1-6.9-18.3-10.1-27.6c-1.7-5-3.7-9.9-5.6-14.8
		c-3.5-9-5.1-18.3-5.1-27.9c0-9.6,0.9-18.6,1.8-28c0.4-4.3,0.8-8.7,1.6-12.9c1.3-7.4,3.2-14.6,5.8-21.5c5.5-14.8,14.2-28,27.1-37.2
		c-2.6-0.3-5.3,0.8-7.8,1.1c-0.8,0.1,3.8-7.3,4.2-7.8c2.1-2.2,4.6-4.2,6.8-6.3c5.1-4.8,10.6-9,16.4-12.9c11.7-7.8,24.3-14,37.4-19.1
		c9.8-3.8,20.1-5.8,30.5-6.6c9.7-0.8,20.1-3.1,29.8-1.7c2,0.3,10.8,3.6,9.3-0.4c-0.9-2.6-5.6-2.9-7.7-4.3c1.4,0.7,6.1-0.1,7.6-0.1
		c2.8,0,5.6-0.1,8.5,0c5.5,0.2,10.7,1.8,16.1,2.3c10.4,1,19.2,4.4,28,10.1c3.8,2.5,7.6,5.7,10,9.6c-1.1-1.8-0.6-7.3-1.1-9.6
		c-0.7-3.1-1.9-5.9-3.4-8.7c-1.5-2.8-3.5-5.8-6-8.4c8.8,6.4,15.5,14.4,17.4,26.5c2.7-2.7,2.6-9.9,3.8-14c4.3,9.6,2.6,20.1,1.7,30.2
		c4.5,2.5,7.1-1,10.8-3c5.2-2.8,8.8-1,14.3-1.8c-2.8,0.4-5.6,0.6-8.2,1.8c-1.4,0.6-5.2,5.1-6.6,5.1c5.2,0.9,13.7-0.2,17.9,3.9
		c-4.6-2.3-15.5-3.3-19.8-0.6c17,5.1,32.5,15.3,40.5,31.2c1.9,3.8,3.4,8,4.4,12.5c-2-0.7-3.6-2.2-5.2-3.7c3.3,3,3.3,9,5,12.9
		c2.5,6,4.8,12,6.9,18.2c2.4,7.3,5,15.4,6.3,23C317.6,161.1,318.4,171,317.2,179.9z"/>
	<g id="XMLID_2523_">
		<g id="XMLID_2617_">
			<path id="XMLID_2618_" class="st0" d="M200.4,33.6c0,0,0.3,0,1,0.1c0.6,0.1,1.5,0.1,2.5,0.3c2.1,0.3,4.8,0.9,7.5,1.8
				c2.7,0.9,5.3,2.1,7.2,3.1c1,0.5,1.7,1,2.3,1.3c0.6,0.3,0.9,0.5,0.9,0.5c0,0,0.3,0.2,0.8,0.6c0.5,0.4,1.2,0.9,2,1.6
				c1.6,1.3,3.6,3.4,5.4,5.5c1.8,2.1,3.4,4.4,4.4,6.2c0.6,0.9,0.9,1.7,1.2,2.2c0.3,0.5,0.4,0.8,0.4,0.8s-0.2-0.3-0.5-0.8
				c-0.3-0.5-0.8-1.2-1.4-2c-1.2-1.7-2.9-3.8-4.9-5.7c-2-1.9-4-3.7-5.7-4.8c-0.8-0.6-1.5-1.1-2-1.4c-0.5-0.3-0.8-0.5-0.8-0.5
				c0,0-0.3-0.2-0.8-0.6c-0.5-0.3-1.2-0.9-2.1-1.4c-1.8-1.1-4.2-2.5-6.7-3.6c-2.6-1.1-5.2-2-7.2-2.4c-1-0.3-1.9-0.4-2.5-0.5
				C200.8,33.7,200.4,33.6,200.4,33.6z"/>
		</g>
		<g id="XMLID_2615_">
			<path id="XMLID_2616_" class="st0" d="M215.4,24.2c0,0,0.3,0.1,0.8,0.3c0.5,0.2,1.3,0.4,2.1,0.7c1.8,0.6,4,1.7,6.2,3
				c2.2,1.3,4.2,2.8,5.7,4.1c0.7,0.6,1.3,1.2,1.7,1.6c0.4,0.4,0.7,0.6,0.7,0.7c0,0,0.2,0.3,0.6,0.7c0.3,0.4,0.8,1,1.4,1.8
				c1.1,1.5,2.4,3.7,3.5,5.9c1.1,2.2,1.9,4.6,2.4,6.3c0.3,0.9,0.4,1.6,0.5,2.1c0.1,0.5,0.2,0.8,0.2,0.8s-0.1-0.3-0.3-0.8
				c-0.2-0.5-0.4-1.2-0.7-2.1c-0.7-1.7-1.7-3.9-3-5.9c-1.3-2-2.7-4-3.9-5.3c-0.6-0.7-1.1-1.2-1.5-1.6c-0.4-0.4-0.6-0.6-0.6-0.6
				c0,0-0.2-0.3-0.6-0.7c-0.4-0.4-0.9-1-1.5-1.7c-1.3-1.3-3.1-3-5.1-4.5c-2-1.4-4.1-2.7-5.8-3.5c-0.8-0.4-1.5-0.7-2-0.9
				C215.7,24.3,215.4,24.2,215.4,24.2z"/>
		</g>
		<g id="XMLID_2606_">
			<path id="XMLID_2614_" class="st0" d="M295.9,103.8c0,0-0.1-0.5-0.4-1.3c-0.1-0.4-0.3-0.9-0.5-1.4c-0.1-0.3-0.2-0.6-0.3-0.9
				c-0.1-0.3-0.3-0.6-0.4-1c-1-2.7-2.7-6.1-4.7-9.4c-2.1-3.2-4.5-6.2-6.5-8.2c-1-1.1-1.9-1.8-2.5-2.4c-0.6-0.6-1-0.9-1-0.9
				c0,0-0.4-0.4-1-0.9c-0.6-0.6-1.4-1.4-2.5-2.3c-0.5-0.4-1.1-0.9-1.7-1.4c-0.6-0.5-1.3-1-2-1.5c-0.3-0.3-0.7-0.5-1.1-0.8
				c-0.4-0.2-0.8-0.5-1.1-0.7c-0.8-0.5-1.5-1-2.3-1.4c-1.6-0.9-3.2-1.8-4.8-2.4c-1.6-0.7-3.1-1.2-4.4-1.7c-0.6-0.2-1.3-0.4-1.8-0.5
				c-0.5-0.1-1-0.3-1.4-0.4c-0.8-0.2-1.2-0.3-1.2-0.3s0.4,0.1,1.2,0.2c0.4,0.1,0.9,0.2,1.4,0.3c0.6,0.1,1.2,0.2,1.8,0.4
				c1.3,0.4,2.9,0.8,4.5,1.4c1.7,0.5,3.3,1.3,5,2.1c0.8,0.4,1.7,0.9,2.5,1.3c0.4,0.2,0.8,0.4,1.2,0.6c0.4,0.2,0.8,0.5,1.1,0.7
				c0.7,0.5,1.5,0.9,2.2,1.4c0.7,0.5,1.3,0.9,1.9,1.4c1.2,0.8,2.1,1.6,2.7,2.2c0.6,0.5,1,0.9,1.1,0.9c0,0,0.4,0.4,1,1
				c0.6,0.7,1.5,1.5,2.4,2.7c1.9,2.3,4.2,5.5,6.1,8.8c1.8,3.4,3.3,7,4.2,9.8c0.1,0.3,0.2,0.7,0.3,1c0.1,0.3,0.2,0.6,0.2,0.9
				c0.1,0.6,0.3,1.1,0.4,1.5C295.8,103.4,295.9,103.8,295.9,103.8z"/>
		</g>
		<g id="XMLID_2604_">
			<path id="XMLID_2605_" class="st0" d="M285.3,105.4c0,0-0.1-0.3-0.4-0.9c-0.3-0.5-0.5-1.3-1-2.2c-0.9-1.8-2.2-4.2-3.7-6.4
				c-1.5-2.2-3.2-4.3-4.6-5.8c-0.7-0.7-1.3-1.3-1.7-1.8c-0.4-0.4-0.7-0.7-0.7-0.7c0,0-0.2-0.3-0.6-0.7c-0.4-0.4-0.9-1-1.6-1.7
				c-1.4-1.4-3.3-3.1-5.4-4.7c-2.1-1.5-4.3-2.9-6-3.8c-0.8-0.5-1.6-0.8-2.1-1.1c-0.5-0.3-0.8-0.4-0.8-0.4s0.3,0.1,0.8,0.3
				c0.5,0.2,1.3,0.5,2.2,0.9c1.8,0.8,4.1,1.9,6.4,3.3c2.2,1.4,4.4,2.9,5.9,4.3c0.8,0.6,1.4,1.2,1.8,1.6c0.4,0.4,0.7,0.6,0.7,0.7
				c0,0,0.3,0.3,0.7,0.8c0.4,0.5,1,1.1,1.6,2c1.3,1.6,2.8,3.9,4.2,6.3c1.3,2.4,2.5,4.9,3.2,6.8c0.4,0.9,0.6,1.8,0.8,2.3
				C285.2,105.1,285.3,105.4,285.3,105.4z"/>
		</g>
		<g id="XMLID_2602_">
			<path id="XMLID_2603_" class="st0" d="M289.4,122.8c0,0-1.4-1-3.5-2.4c-2.2-1.4-4.8-3.5-7.5-5.6c-2.6-2.2-5.3-4.4-7.1-6.3
				c-0.9-0.9-1.7-1.7-2.3-2.2c-0.6-0.5-0.9-0.9-0.9-0.9c0,0-1.1-1.4-2.7-3.3c-0.4-0.5-0.8-1-1.3-1.6c-0.4-0.6-0.9-1.2-1.3-1.8
				c-0.9-1.3-1.9-2.6-2.9-4c-1.8-2.8-3.7-5.6-4.9-7.8c-1.2-2.2-2.1-3.6-2.1-3.6s0.9,1.4,2.3,3.4c1.3,2.1,3.4,4.7,5.4,7.4
				c1,1.3,2.1,2.5,3.1,3.7c0.5,0.6,1,1.2,1.5,1.7c0.5,0.5,1,1,1.4,1.5c1.7,1.8,2.9,3.1,2.9,3.1c0,0,0.3,0.4,0.8,0.9
				c0.5,0.6,1.2,1.4,2.1,2.3c1.7,2,4.2,4.3,6.6,6.7c2.5,2.3,5,4.6,7.1,6.1C288,121.7,289.4,122.8,289.4,122.8z"/>
		</g>
		<g id="XMLID_2600_">
			<path id="XMLID_2601_" class="st0" d="M274.6,127.6c0,0-1.1-0.9-2.8-2.2c-1.7-1.3-3.8-3.3-5.9-5.2c-2-2.1-4-4.2-5.4-5.9
				c-0.7-0.8-1.3-1.6-1.7-2.1c-0.4-0.5-0.6-0.8-0.7-0.8c0,0-0.8-1.3-1.9-3.1c-0.3-0.5-0.6-1-0.9-1.5c-0.3-0.5-0.6-1.1-0.9-1.7
				c-0.6-1.2-1.3-2.4-1.9-3.7c-1.1-2.6-2.3-5.1-2.9-7.2c-0.7-2-1.2-3.3-1.2-3.3s0.6,1.3,1.5,3.2c0.8,1.9,2.2,4.4,3.5,6.8
				c0.7,1.2,1.5,2.4,2.2,3.5c0.3,0.6,0.7,1.1,1,1.6c0.4,0.5,0.7,0.9,1,1.4c1.2,1.7,2.1,2.8,2.1,2.9c0,0,0.2,0.3,0.6,0.9
				c0.4,0.5,0.9,1.3,1.5,2.2c1.2,1.8,3,4,4.8,6.3c1.9,2.1,3.8,4.3,5.4,5.7C273.5,126.6,274.6,127.6,274.6,127.6z"/>
		</g>
		<g id="XMLID_2598_">
			<path id="XMLID_2599_" class="st0" d="M289.7,187.4c0,0,0.1-1.7,0.2-4.3c0.2-2.6,0.1-6,0.1-9.4c-0.2-3.4-0.3-6.9-0.6-9.4
				c-0.1-1.3-0.2-2.4-0.3-3.1c-0.1-0.8-0.1-1.2-0.1-1.2c0-0.1-0.1-1.8-0.3-4.3c0-0.6-0.1-1.3-0.1-2c-0.1-0.7-0.2-1.5-0.3-2.2
				c-0.2-1.6-0.4-3.2-0.6-4.9c-0.6-3.3-1-6.6-1.6-9c-0.5-2.4-0.9-4.1-0.9-4.1s0.5,1.6,1.2,4c0.8,2.4,1.5,5.6,2.3,8.9
				c0.3,1.6,0.6,3.3,0.9,4.8c0.1,0.8,0.3,1.5,0.4,2.2c0.1,0.7,0.2,1.4,0.3,2c0.4,2.5,0.6,4.2,0.6,4.3c0,0,0,0.5,0.1,1.3
				c0,0.8,0,1.9,0.1,3.2c0.1,2.6,0,6.1-0.1,9.5c-0.3,3.4-0.4,6.9-0.8,9.4C289.9,185.7,289.7,187.4,289.7,187.4z"/>
		</g>
		<g id="XMLID_2596_">
			<path id="XMLID_2597_" class="st0" d="M298.6,168.5c0,0,0.1-0.5,0.3-1.3c0.1-0.8,0.4-1.9,0.6-3.3c0.5-2.8,0.9-6.5,1.1-10.2
				c0.1-3.7,0-7.5-0.2-10.3c-0.1-1.4-0.3-2.6-0.3-3.4c-0.1-0.8-0.2-1.3-0.2-1.3c0,0,0-0.5-0.1-1.3c-0.1-0.8-0.2-1.9-0.4-3.3
				c-0.3-2.7-1-6.3-1.8-9.8c-0.9-3.5-2-7-3-9.5c-0.5-1.3-1-2.3-1.3-3c-0.3-0.7-0.5-1.1-0.5-1.1s0.2,0.4,0.6,1.1
				c0.3,0.7,0.9,1.7,1.5,2.9c1.2,2.5,2.5,5.8,3.7,9.3c1.1,3.5,2,7.1,2.5,9.8c0.3,1.4,0.5,2.5,0.6,3.3c0.1,0.8,0.2,1.3,0.2,1.3
				c0,0,0.1,0.5,0.1,1.4c0,0.9,0.1,2.1,0.1,3.5c0.1,2.9-0.1,6.7-0.5,10.4c-0.4,3.8-1.1,7.5-1.8,10.2c-0.3,1.4-0.7,2.5-0.9,3.3
				C298.7,168.1,298.6,168.5,298.6,168.5z"/>
		</g>
		<g id="XMLID_2594_">
			<path id="XMLID_2595_" class="st0" d="M285.4,223.8c0,0-0.7-5.7-1.4-11.4c-0.3-2.9-0.6-5.8-0.8-7.9c-0.1-1.1-0.2-2-0.2-2.7
				c-0.1-0.6-0.1-1-0.1-1.1c0,0,0.1-1.5,0.2-3.6c0-0.5,0.1-1.1,0.1-1.7c0.1-0.6,0.1-1.2,0.2-1.9c0.1-1.3,0.2-2.7,0.4-4.1
				c0.4-2.8,0.8-5.6,1.3-7.6c0.5-2,0.8-3.4,0.8-3.4s-0.2,1.4-0.5,3.5c-0.4,2.1-0.5,4.8-0.7,7.6c-0.1,1.4,0,2.8-0.1,4.1
				c0,0.7,0,1.3,0,1.9c0,0.6,0,1.2,0.1,1.7c0.1,2.1,0.1,3.5,0.1,3.6c0,0,0,0.4,0,1c0,0.6,0,1.6,0,2.6c0,2.2,0.1,5.1,0.1,7.9
				C285.1,218,285.4,223.8,285.4,223.8z"/>
		</g>
		<g id="XMLID_2592_">
			<path id="XMLID_2593_" class="st0" d="M284.2,249.5c0,0,0.7-2.1,1.7-5.2c1.1-3.1,2.3-7.4,3.5-11.6c1.1-4.3,2.3-8.5,2.9-11.8
				c0.4-1.6,0.7-3,0.9-3.9c0.2-1,0.3-1.5,0.3-1.6c0-0.1,0.5-2.2,1.3-5.3c0.2-0.8,0.4-1.6,0.6-2.5c0.2-0.9,0.4-1.9,0.6-2.8
				c0.4-2,0.8-4.1,1.3-6.2c0.7-4.2,1.5-8.4,1.9-11.6c0.4-3.2,0.7-5.3,0.7-5.3s-0.2,2.1-0.4,5.3c-0.2,3.2-0.8,7.4-1.2,11.7
				c-0.3,2.1-0.6,4.3-0.9,6.2c-0.2,1-0.3,2-0.4,2.9c-0.2,0.9-0.3,1.8-0.5,2.6c-0.6,3.2-1,5.4-1,5.4c0,0-0.1,0.6-0.4,1.6
				c-0.3,1-0.6,2.3-1.1,3.9c-0.8,3.2-2.3,7.4-3.6,11.7c-1.5,4.2-2.9,8.3-4.2,11.4C285,247.5,284.2,249.5,284.2,249.5z"/>
		</g>
		<g id="XMLID_2590_">
			<path id="XMLID_2591_" class="st0" d="M165.3,42.1c0,0,0.5-0.1,1.4-0.2c0.5-0.1,1-0.1,1.7-0.2c0.6-0.1,1.4-0.2,2.2-0.2
				c3.2-0.3,7.4-0.4,11.7-0.3c4.3,0.2,8.5,0.7,11.7,1.3c1.6,0.3,2.9,0.6,3.9,0.8c0.9,0.2,1.5,0.3,1.5,0.3c0,0,0.6,0.2,1.5,0.5
				c0.9,0.3,2.2,0.7,3.6,1.2c0.7,0.3,1.5,0.6,2.4,0.9c0.8,0.4,1.7,0.7,2.6,1.1c0.4,0.2,0.9,0.4,1.4,0.6c0.5,0.2,0.9,0.4,1.4,0.7
				c0.9,0.5,1.9,0.9,2.8,1.4c3.7,1.9,7.2,4.1,9.7,5.9c1.3,0.9,2.3,1.7,3,2.2c0.7,0.5,1.1,0.9,1.1,0.9s-0.4-0.3-1.2-0.8
				c-0.8-0.5-1.8-1.2-3.1-2c-2.6-1.6-6.3-3.6-10-5.3c-0.9-0.4-1.9-0.8-2.8-1.2c-0.5-0.2-0.9-0.4-1.4-0.6c-0.5-0.2-0.9-0.3-1.4-0.5
				c-0.9-0.3-1.8-0.6-2.6-0.9c-0.8-0.3-1.6-0.5-2.4-0.7c-1.5-0.5-2.7-0.8-3.6-1c-0.9-0.2-1.4-0.4-1.4-0.4c0,0-0.6-0.2-1.5-0.4
				c-0.9-0.2-2.2-0.6-3.7-1c-3.1-0.7-7.2-1.5-11.4-1.9c-4.2-0.4-8.4-0.5-11.6-0.4c-0.8,0-1.5,0-2.2,0.1c-0.6,0-1.2,0.1-1.7,0.1
				C165.8,42.1,165.3,42.1,165.3,42.1z"/>
		</g>
		<g id="XMLID_2588_">
			<path id="XMLID_2589_" class="st0" d="M178.1,20.4c0,0,0.5,0,1.3-0.1c0.4,0,0.9-0.1,1.4-0.1c0.3,0,0.6,0,0.9-0.1c0.3,0,0.6,0,1,0
				c2.8-0.1,6.5,0,10.2,0.5c3.7,0.5,7.3,1.4,10,2.3c1.4,0.4,2.5,0.9,3.3,1.1c0.8,0.3,1.3,0.5,1.3,0.5c0,0,0.5,0.2,1.2,0.6
				c0.7,0.4,1.8,0.9,3,1.6c0.6,0.4,1.2,0.7,1.9,1.1c0.7,0.4,1.3,0.9,2.1,1.4c0.4,0.2,0.7,0.5,1.1,0.7c0.4,0.3,0.7,0.5,1.1,0.8
				c0.7,0.6,1.4,1.1,2.1,1.7c2.8,2.3,5.4,4.9,7.2,7c0.5,0.5,0.9,1,1.2,1.4c0.3,0.4,0.6,0.8,0.9,1.1c0.5,0.6,0.8,1,0.8,1
				s-0.3-0.3-0.8-0.9c-0.3-0.3-0.6-0.6-1-1.1c-0.4-0.4-0.8-0.9-1.3-1.3c-1.9-1.9-4.6-4.3-7.5-6.4c-0.7-0.5-1.5-1-2.2-1.5
				c-0.4-0.2-0.7-0.5-1.1-0.7c-0.4-0.2-0.7-0.4-1.1-0.6c-0.7-0.4-1.4-0.8-2.1-1.2c-0.7-0.3-1.3-0.7-1.9-1c-1.2-0.6-2.2-1-3-1.4
				c-0.7-0.3-1.2-0.5-1.2-0.5c0,0-0.5-0.2-1.2-0.6c-0.8-0.3-1.8-0.8-3.1-1.3c-2.6-1-6.1-2.1-9.7-2.9c-3.6-0.7-7.3-1.1-10-1.2
				c-0.3,0-0.7,0-1,0c-0.3,0-0.6,0-0.9,0c-0.6,0-1,0-1.5,0C178.6,20.3,178.1,20.4,178.1,20.4z"/>
		</g>
		<g id="XMLID_2586_">
			<path id="XMLID_2587_" class="st0" d="M236.7,25.2c0,0,0.4,0.6,1.1,1.6c0.7,0.9,1.5,2.3,2.3,3.6c0.8,1.4,1.6,2.7,2.1,3.8
				c0.3,0.5,0.5,1,0.7,1.3c0.2,0.3,0.2,0.5,0.2,0.5c0,0,0.2,0.8,0.5,1.9c0.3,1.1,0.6,2.6,1,4.1c0.3,1.5,0.6,3,0.7,4.1
				c0.1,1.1,0.2,1.9,0.2,1.9s-0.2-0.7-0.5-1.8c-0.3-1.1-0.8-2.5-1.3-3.9c-0.6-1.4-1.1-2.8-1.6-3.8c-0.5-1-0.8-1.7-0.8-1.7
				c0,0-0.1-0.2-0.2-0.5c-0.1-0.3-0.3-0.8-0.4-1.3c-0.3-1.1-0.9-2.6-1.4-4c-0.6-1.4-1.2-2.9-1.7-3.9C237,25.9,236.7,25.2,236.7,25.2
				z"/>
		</g>
		<g id="XMLID_2584_">
			<path id="XMLID_2585_" class="st0" d="M153.8,60.8c0,0,0.6,0.3,1.6,0.8c0.5,0.3,1.1,0.6,1.8,0.9c0.3,0.2,0.7,0.4,1.1,0.6
				c0.4,0.2,0.8,0.4,1.2,0.6c3.4,1.7,8.2,3.6,13,5.2c4.9,1.5,9.8,2.7,13.6,3.3c1.9,0.4,3.5,0.5,4.6,0.7c1.1,0.2,1.8,0.2,1.8,0.2
				c0,0,0.7,0.1,1.8,0.2c1.1,0.1,2.6,0.4,4.5,0.5c0.9,0.1,1.9,0.2,3,0.3c1.1,0,2.2,0.1,3.3,0.1c0.6,0,1.2,0.1,1.8,0.1
				c0.6,0,1.2,0,1.8,0c1.2,0,2.4,0,3.7,0c2.5-0.1,4.9-0.2,7.2-0.5c2.3-0.2,4.4-0.6,6.2-0.9c0.9-0.1,1.7-0.3,2.5-0.5
				c0.7-0.2,1.4-0.3,1.9-0.4c1.1-0.2,1.7-0.3,1.7-0.3s-0.6,0.2-1.6,0.4c-0.5,0.1-1.2,0.3-1.9,0.5c-0.7,0.2-1.5,0.4-2.5,0.6
				c-1.8,0.4-3.9,0.9-6.2,1.2c-2.3,0.4-4.8,0.6-7.2,0.9c-1.2,0.1-2.5,0.2-3.7,0.2c-0.6,0-1.2,0.1-1.8,0.1c-0.6,0-1.2,0-1.8,0
				c-1.2,0-2.3,0-3.4,0c-1.1,0-2.1-0.1-3-0.1c-1.9,0-3.5-0.2-4.6-0.3c-1.1-0.1-1.8-0.2-1.8-0.2c0,0-0.7-0.1-1.9-0.3
				c-1.1-0.2-2.7-0.5-4.6-0.9c-3.8-0.8-8.8-2.2-13.6-4c-4.8-1.8-9.4-4-12.8-5.8c-0.4-0.2-0.8-0.4-1.2-0.6c-0.4-0.2-0.7-0.4-1.1-0.6
				c-0.7-0.4-1.3-0.7-1.7-1C154.3,61.1,153.8,60.8,153.8,60.8z"/>
		</g>
		<g id="XMLID_2582_">
			<path id="XMLID_2583_" class="st0" d="M126.4,52.5c0,0,0.6-0.3,1.7-0.8c0.5-0.3,1.2-0.6,2-0.9c0.4-0.2,0.8-0.3,1.2-0.5
				c0.4-0.1,0.9-0.3,1.4-0.4c2-0.7,4.3-1.1,6.9-1.5c2.6-0.3,5.3-0.3,8.1-0.2c2.8,0.1,5.5,0.6,8.1,1c2.5,0.5,4.9,1.1,6.9,1.7
				c2,0.6,3.7,1.2,4.8,1.6c1.2,0.4,1.8,0.7,1.9,0.7c0,0,0.7,0.3,1.8,0.8c1.1,0.5,2.7,1.2,4.5,2.1c3.6,1.8,8.4,4.3,13.1,6.7
				c4.7,2.4,9.5,4.7,13.2,6.1c0.9,0.4,1.8,0.7,2.5,1c0.8,0.3,1.4,0.5,2,0.7c1.1,0.4,1.7,0.6,1.7,0.6s-0.6-0.2-1.7-0.5
				c-0.6-0.2-1.2-0.4-2-0.6c-0.8-0.2-1.7-0.5-2.6-0.8c-3.8-1.3-8.7-3.3-13.6-5.5c-4.9-2.2-9.7-4.5-13.4-6.1
				c-1.8-0.8-3.4-1.4-4.5-1.9c-1.1-0.4-1.7-0.7-1.8-0.7c0,0-0.7-0.3-1.8-0.8c-1.1-0.5-2.7-1.1-4.7-1.8c-1.9-0.7-4.2-1.4-6.7-2
				c-2.5-0.6-5.1-1.1-7.8-1.4c-2.7-0.3-5.4-0.4-7.9-0.2c-2.5,0.2-4.9,0.6-6.9,1.1c-0.5,0.1-1,0.3-1.4,0.4c-0.4,0.2-0.9,0.3-1.2,0.4
				c-0.8,0.3-1.5,0.5-2,0.8C127.1,52.2,126.4,52.5,126.4,52.5z"/>
		</g>
		<g id="XMLID_2580_">
			<path id="XMLID_2581_" class="st0" d="M123.9,90.2c0,0,0.6,0.1,1.6,0.3c0.5,0.1,1.1,0.2,1.9,0.3c0.7,0.1,1.5,0.3,2.4,0.4
				c3.6,0.6,8.4,1,13.2,1.2c4.8,0.1,9.6-0.1,13.2-0.4c1.8-0.1,3.3-0.4,4.4-0.5c1.1-0.1,1.7-0.2,1.7-0.2c0,0,0.7-0.1,1.7-0.2
				c1-0.1,2.5-0.2,4.3-0.5c0.9-0.1,1.8-0.3,2.8-0.4c1-0.2,2-0.4,3.1-0.6c0.5-0.1,1.1-0.2,1.6-0.3c0.5-0.1,1.1-0.3,1.7-0.4
				c1.1-0.3,2.3-0.5,3.4-0.8c4.5-1.2,9-2.7,12.2-4c1.7-0.6,3-1.2,3.9-1.6c0.9-0.4,1.5-0.6,1.5-0.6s-0.5,0.3-1.4,0.7
				c-0.9,0.4-2.2,1.1-3.8,1.8c-3.2,1.5-7.6,3.2-12.1,4.6c-1.1,0.4-2.3,0.7-3.4,1c-0.6,0.2-1.1,0.3-1.7,0.5c-0.6,0.1-1.1,0.3-1.6,0.4
				c-1.1,0.3-2.1,0.5-3.1,0.8c-1,0.2-1.9,0.4-2.8,0.6c-1.7,0.4-3.2,0.6-4.3,0.8c-1.1,0.2-1.7,0.3-1.7,0.3c0,0-0.7,0.1-1.8,0.1
				c-1.1,0.1-2.6,0.2-4.5,0.3c-3.7,0.1-8.6,0.1-13.4-0.3c-4.8-0.4-9.6-1.1-13.2-1.9c-0.9-0.2-1.7-0.3-2.4-0.5
				c-0.7-0.2-1.3-0.3-1.9-0.4C124.5,90.3,123.9,90.2,123.9,90.2z"/>
		</g>
		<g id="XMLID_2578_">
			<path id="XMLID_2579_" class="st0" d="M165.3,98.9c0,0,0.6,0,1.6,0c0.5,0,1.1,0,1.8,0c0.7,0,1.5,0,2.3,0c3.4,0,7.9-0.4,12.3-1.1
				c4.4-0.7,8.8-1.8,12.1-2.8c1.6-0.5,3-1,3.9-1.3c1-0.3,1.5-0.5,1.5-0.5c0,0,0.6-0.2,1.5-0.5c0.9-0.3,2.3-0.7,3.8-1.3
				c0.8-0.3,1.6-0.6,2.5-0.9c0.9-0.4,1.8-0.8,2.7-1.2c0.5-0.2,1-0.4,1.4-0.6c0.5-0.2,1-0.5,1.4-0.7c1-0.5,2-0.9,2.9-1.5
				c3.9-2.1,7.6-4.4,10.3-6.4c1.4-0.9,2.4-1.8,3.2-2.4c0.8-0.6,1.2-0.9,1.2-0.9s-0.4,0.4-1.1,1c-0.7,0.6-1.7,1.6-3.1,2.6
				c-2.6,2.1-6.2,4.7-10,7c-0.9,0.6-1.9,1.1-2.9,1.7c-0.5,0.3-1,0.5-1.4,0.8c-0.5,0.2-1,0.5-1.4,0.7c-0.9,0.5-1.8,0.9-2.7,1.4
				c-0.9,0.4-1.7,0.8-2.5,1.1c-1.5,0.7-2.9,1.2-3.8,1.6c-0.9,0.4-1.5,0.6-1.5,0.6c0,0-0.6,0.2-1.6,0.5c-1,0.3-2.4,0.7-4.1,1.1
				c-3.4,0.8-7.9,1.7-12.4,2.1c-4.5,0.4-9.1,0.6-12.5,0.4c-0.8,0-1.6,0-2.3-0.1c-0.7-0.1-1.3-0.1-1.8-0.1
				C165.9,98.9,165.3,98.9,165.3,98.9z"/>
		</g>
		<g id="XMLID_2576_">
			<path id="XMLID_2577_" class="st0" d="M41.1,232.9c0,0,0-4.9,0-9.9c0.1-2.5,0.2-4.9,0.3-6.8c0-0.9,0.1-1.7,0.1-2.3
				c0-0.6,0-0.9,0.1-0.9c0-0.1,0.9-4.8,1.8-9.5c1.1-4.7,2.1-9.3,2.1-9.3s-0.6,4.7-1.2,9.5c-0.4,4.8-0.8,9.5-0.8,9.6
				c0,0-0.1,0.3-0.1,0.9c-0.1,0.5-0.2,1.3-0.3,2.2c-0.3,1.8-0.6,4.3-0.9,6.7C41.6,228,41.1,232.9,41.1,232.9z"/>
		</g>
		<g id="XMLID_2574_">
			<path id="XMLID_2575_" class="st0" d="M37.8,229.5c0,0-1.9-6.1-3.8-12.3c-0.8-3.1-1.6-6.3-2.1-8.6c-0.3-1.2-0.5-2.2-0.7-2.9
				c-0.2-0.7-0.3-1.1-0.3-1.2c0-0.1-0.7-6.4-1.3-12.6c-0.3-6.3-0.6-12.5-0.6-12.5s0.8,6.2,1.5,12.4c1.1,6.1,2.3,12.3,2.3,12.4
				c0,0,0,0.5,0.2,1.2c0.1,0.7,0.3,1.7,0.5,2.9c0.4,2.4,0.9,5.6,1.5,8.7C36.3,223.3,37.8,229.5,37.8,229.5z"/>
		</g>
		<g id="XMLID_2572_">
			<path id="XMLID_2573_" class="st0" d="M38.9,185.1c0,0-1.5-10.8-1.5-10.9c0-0.1,0.4-10.7,0.4-10.7s1.5,10.5,1.5,10.6
				C39.3,174.2,38.9,185.1,38.9,185.1z"/>
		</g>
		<g id="XMLID_2570_">
			<path id="XMLID_2571_" class="st0" d="M27.1,147.5c0,0-3,8.7-3.1,8.8c0,0.1-4.7,7.7-4.7,7.7s2.9-8.5,3-8.6
				C22.3,155.4,27.1,147.5,27.1,147.5z"/>
		</g>
		<g id="XMLID_2568_">
			<path id="XMLID_2569_" class="st0" d="M77.7,122.8c0,0-0.3,0.2-0.9,0.6c-0.6,0.4-1.4,1-2.4,1.6c-2,1.3-4.9,2.7-7.9,3.9
				c-3,1.2-6.1,2.1-8.5,2.6c-1.2,0.3-2.2,0.4-2.9,0.6c-0.7,0.1-1.1,0.2-1.2,0.2c0,0-0.4,0-1.1,0.1c-0.7,0-1.7,0.1-2.9,0.1
				c-2.4,0.1-5.5-0.2-8.6-0.6c-3.1-0.5-6.1-1.3-8.3-2c-1.1-0.3-2-0.7-2.6-0.9c-0.6-0.2-1-0.4-1-0.4s0.4,0.1,1,0.3
				c0.7,0.2,1.6,0.5,2.7,0.7c2.2,0.5,5.3,1,8.3,1.3c3.1,0.2,6.1,0.2,8.4-0.1c1.2-0.1,2.1-0.2,2.8-0.3c0.7-0.1,1.1-0.1,1.1-0.1
				c0,0,0.4,0,1.1-0.1c0.7-0.1,1.7-0.2,2.9-0.3c2.4-0.3,5.4-1,8.5-1.9c3-1,6-2.2,8.1-3.3c1.1-0.5,1.9-1,2.5-1.4
				C77.3,123,77.7,122.8,77.7,122.8z"/>
		</g>
		<g id="XMLID_2566_">
			<path id="XMLID_2567_" class="st0" d="M87.9,109.5c0,0-1.4,0.6-3.6,1.4c-0.5,0.2-1.1,0.4-1.7,0.7c-0.6,0.3-1.3,0.4-2,0.6
				c-1.4,0.4-2.9,0.9-4.4,1.3c-3,0.6-6.1,1.4-8.4,1.6c-1.2,0.2-2.1,0.3-2.8,0.4c-0.7,0.1-1.1,0.1-1.1,0.1c-0.1,0-1.6,0-3.9-0.1
				c-0.6,0-1.2,0-1.8,0c-0.6-0.1-1.3-0.1-2-0.2c-1.4-0.1-2.9-0.3-4.4-0.5c-3-0.6-5.9-1-8.1-1.6c-2.2-0.6-3.6-0.9-3.6-0.9
				s1.5,0.3,3.7,0.6c2.2,0.5,5.2,0.6,8.1,0.9c1.5,0.1,3,0.1,4.4,0.1c0.7,0,1.4,0,2,0c0.6,0,1.2-0.1,1.8-0.1c2.2-0.1,3.7-0.2,3.8-0.2
				c0,0,0.4,0,1.1,0c0.7,0,1.6-0.1,2.8-0.2c2.3,0,5.3-0.6,8.4-0.9c1.5-0.3,3-0.6,4.4-0.9c0.7-0.2,1.4-0.3,2-0.5
				c0.6-0.2,1.2-0.4,1.8-0.5C86.4,109.9,87.9,109.5,87.9,109.5z"/>
		</g>
		<g id="XMLID_2564_">
			<path id="XMLID_2565_" class="st0" d="M82.4,73.8c0,0-1.4,0.7-3.5,1.9c-0.5,0.3-1.1,0.6-1.7,0.9c-0.6,0.3-1.2,0.7-1.8,1.1
				c-1.2,0.8-2.6,1.6-3.9,2.5c-2.5,1.9-5.1,3.6-6.9,5.2c-0.9,0.8-1.7,1.4-2.2,1.8c-0.5,0.4-0.8,0.7-0.9,0.8c0,0-1.2,1-3,2.5
				c-0.4,0.4-0.9,0.8-1.4,1.2c-0.5,0.4-1,0.9-1.5,1.4c-1,1-2.2,2-3.3,3.1c-2.1,2.2-4.3,4.4-5.7,6.2c-1.5,1.8-2.4,3-2.4,3
				s0.9-1.3,2.2-3.2c1.3-2,3.3-4.3,5.2-6.7c1-1.2,2.1-2.3,3.1-3.4c0.5-0.5,1-1.1,1.4-1.6c0.5-0.5,0.9-0.9,1.4-1.3
				c1.7-1.6,2.8-2.7,2.9-2.8c0,0,0.3-0.3,0.9-0.7c0.6-0.4,1.4-1,2.4-1.7c1.9-1.5,4.7-3.1,7.4-4.7c1.4-0.7,2.8-1.5,4.1-2.2
				c0.7-0.3,1.3-0.7,1.9-1c0.6-0.3,1.2-0.5,1.7-0.8C81,74.5,82.4,73.8,82.4,73.8z"/>
		</g>
		<g id="XMLID_2562_">
			<path id="XMLID_2563_" class="st0" d="M113,37.5c0,0-0.5,0.2-1.4,0.5c-0.9,0.3-2.1,0.7-3.6,1.3c-2.9,1.1-6.7,2.9-10.4,4.8
				c-3.7,2-7.2,4.2-9.8,6.1c-1.3,0.9-2.3,1.7-3.1,2.3c-0.8,0.6-1.2,0.9-1.2,0.9c0,0-0.5,0.3-1.2,0.9c-0.7,0.5-1.8,1.3-3,2.2
				c-2.5,1.8-5.5,4.5-8.5,7.4c-2.9,2.9-5.6,5.9-7.6,8.3c-1,1.2-1.7,2.2-2.3,2.9c-0.5,0.7-0.9,1.1-0.9,1.1s0.3-0.4,0.8-1.2
				c0.5-0.7,1.2-1.8,2.1-3.1c1.8-2.5,4.4-5.7,7.1-8.8c2.8-3,5.8-6,8.1-8c1.2-1.1,2.2-1.9,2.9-2.4c0.7-0.6,1.1-0.9,1.2-1
				c0,0,0.5-0.4,1.3-0.9c0.8-0.5,1.9-1.3,3.3-2.1c2.7-1.7,6.5-3.7,10.3-5.5c3.8-1.7,7.8-3.3,10.8-4.2c1.5-0.5,2.8-0.8,3.6-1.1
				C112.5,37.7,113,37.5,113,37.5z"/>
		</g>
		<g id="XMLID_2560_">
			<path id="XMLID_2561_" class="st0" d="M113.6,77.9c0,0-1.2,0.4-3.1,1c-1.9,0.6-4.3,1.5-6.7,2.4c-2.4,1-4.8,2-6.6,2.8
				c-0.9,0.4-1.6,0.8-2.2,1c-0.5,0.2-0.8,0.4-0.9,0.4c0,0-1.2,0.5-3,1.2c-0.4,0.2-0.9,0.4-1.4,0.6c-0.5,0.2-1,0.5-1.6,0.7
				c-1.1,0.5-2.2,1-3.4,1.5c-2.2,1.1-4.5,2.2-6.2,3.2c-1.7,0.9-2.8,1.5-2.8,1.5s1-0.7,2.6-1.8c1.5-1.1,3.7-2.4,5.9-3.8
				c1.1-0.6,2.2-1.3,3.2-1.9c0.5-0.3,1-0.6,1.5-0.9c0.5-0.3,1-0.5,1.4-0.7c1.7-0.9,2.9-1.5,2.9-1.5c0,0,0.3-0.1,0.9-0.3
				c0.6-0.2,1.3-0.5,2.3-0.8c1.9-0.7,4.4-1.4,6.9-2.2c2.5-0.7,5-1.4,6.9-1.7C112.3,78.2,113.6,77.9,113.6,77.9z"/>
		</g>
		<g id="XMLID_2558_">
			<path id="XMLID_2559_" class="st0" d="M154.1,24.4c0,0-1.4,0-3.6,0c-2.2,0-5,0.2-7.9,0.4c-2.9,0.4-5.7,0.6-7.8,1.1
				c-1.1,0.2-2,0.4-2.6,0.5c-0.6,0.1-1,0.2-1,0.2c0,0-1.5,0.2-3.5,0.5c-0.5,0.1-1.1,0.2-1.7,0.2c-0.6,0.1-1.2,0.2-1.8,0.4
				c-1.3,0.3-2.7,0.5-4,0.8c-2.7,0.7-5.4,1.4-7.4,2.1c-2,0.6-3.3,1.1-3.3,1.1s1.3-0.5,3.2-1.4c1.9-0.9,4.6-1.8,7.2-2.7
				c1.3-0.4,2.7-0.8,4-1.2c0.6-0.2,1.3-0.4,1.8-0.5c0.6-0.1,1.2-0.3,1.7-0.4c2.1-0.5,3.5-0.8,3.5-0.8c0,0,0.4-0.1,1.1-0.1
				c0.7-0.1,1.6-0.1,2.7-0.2c2.2-0.3,5.1-0.3,8-0.4c2.9,0.1,5.8,0,7.9,0.3C152.7,24.3,154.1,24.4,154.1,24.4z"/>
		</g>
		<g id="XMLID_2556_">
			<path id="XMLID_2557_" class="st0" d="M151.4,38.7c0,0-1.2,0-3,0.1c-1.8,0-4.1,0.3-6.5,0.6c-2.3,0.4-4.7,0.8-6.4,1.3
				c-0.9,0.2-1.6,0.4-2.1,0.5c-0.5,0.1-0.8,0.2-0.8,0.2c0,0-1.2,0.3-2.9,0.6c-0.4,0.1-0.9,0.2-1.4,0.3c-0.5,0.1-1,0.3-1.5,0.4
				c-1,0.3-2.1,0.6-3.2,1c-2.1,0.8-4.3,1.6-5.9,2.4c-1.6,0.7-2.6,1.2-2.6,1.2s1-0.6,2.5-1.5c1.5-1,3.6-2,5.6-3.1
				c1.1-0.5,2.2-0.9,3.2-1.4c0.5-0.2,1-0.4,1.5-0.6c0.5-0.2,0.9-0.3,1.4-0.5c1.7-0.6,2.8-1,2.9-1c0,0,0.3-0.1,0.9-0.2
				c0.5-0.1,1.3-0.2,2.2-0.3c1.8-0.3,4.2-0.5,6.6-0.7c2.4,0,4.8-0.1,6.6,0.1C150.2,38.6,151.4,38.7,151.4,38.7z"/>
		</g>
		<g id="XMLID_2554_">
			<path id="XMLID_2555_" class="st0" d="M120.2,61c0,0-0.9,0.1-2.4,0.2c-1.4,0.1-3.3,0.4-5.2,0.7c-1.9,0.4-3.7,0.8-5.1,1.2
				c-0.7,0.2-1.3,0.4-1.7,0.5c-0.4,0.1-0.6,0.2-0.7,0.2c0,0-0.9,0.2-2.3,0.5c-0.3,0.1-0.7,0.2-1.1,0.2c-0.4,0.1-0.8,0.2-1.2,0.3
				c-0.8,0.2-1.7,0.5-2.6,0.8c-1.7,0.6-3.5,1.2-4.7,1.8c-1.3,0.6-2.1,0.9-2.1,0.9s0.8-0.5,2-1.2c1.2-0.8,2.9-1.6,4.5-2.5
				c0.8-0.4,1.7-0.8,2.5-1.1c0.4-0.2,0.8-0.4,1.2-0.5c0.4-0.1,0.7-0.3,1.1-0.4c1.3-0.5,2.3-0.8,2.3-0.8c0,0,0.3-0.1,0.7-0.1
				c0.4-0.1,1-0.2,1.8-0.3c1.4-0.3,3.4-0.4,5.3-0.6c1.9,0,3.8-0.1,5.3,0C119.2,61,120.2,61,120.2,61z"/>
		</g>
		<g id="XMLID_2552_">
			<path id="XMLID_2553_" class="st0" d="M124.6,104.9c0,0-1.3,0.3-3.3,0.7c-0.5,0.1-1,0.2-1.6,0.3c-0.6,0.1-1.2,0.2-1.8,0.3
				c-1.2,0.2-2.6,0.3-3.9,0.5c-2.7,0.1-5.4,0.3-7.4,0.2c-1,0-1.9-0.1-2.5-0.1c-0.6,0-1-0.1-1-0.1c0,0-1.4-0.3-3.3-0.7
				c-0.5-0.1-1-0.2-1.6-0.3c-0.5-0.2-1.1-0.3-1.7-0.5c-1.2-0.4-2.4-0.7-3.7-1.1c-2.4-1-4.9-1.8-6.6-2.7c-1.8-0.8-2.9-1.4-2.9-1.4
				s1.2,0.4,3,1.1c1.8,0.8,4.3,1.4,6.8,2.1c1.3,0.3,2.5,0.5,3.7,0.7c0.6,0.1,1.2,0.2,1.7,0.3c0.6,0.1,1.1,0.1,1.6,0.2
				c1.9,0.2,3.2,0.4,3.3,0.4c0,0,0.4,0.1,0.9,0.1c0.6,0.1,1.4,0.2,2.4,0.3c2,0.3,4.6,0.4,7.3,0.5c1.3,0,2.6-0.1,3.9-0.1
				c0.6,0,1.2,0,1.8-0.1c0.6-0.1,1.1-0.1,1.6-0.2C123.3,105,124.6,104.9,124.6,104.9z"/>
		</g>
		<g id="XMLID_2550_">
			<path id="XMLID_2551_" class="st0" d="M157.6,81.5c0,0-1.3-0.6-3.2-1.6c-0.5-0.2-1-0.5-1.6-0.8c-0.5-0.3-1.2-0.5-1.8-0.7
				c-1.2-0.5-2.6-1-3.9-1.5c-2.7-0.8-5.4-1.7-7.5-2.1c-1-0.2-1.9-0.4-2.5-0.6c-0.6-0.2-1-0.2-1-0.2c0,0-1.4-0.3-3.4-0.8
				c-0.5-0.1-1.1-0.3-1.6-0.4c-0.6-0.1-1.2-0.2-1.8-0.3c-1.3-0.2-2.6-0.4-4-0.6c-2.7-0.2-5.5-0.5-7.6-0.4c-2.1,0-3.5,0-3.5,0
				s1.4-0.1,3.4-0.3c2.1-0.3,4.9-0.2,7.6-0.3c1.4,0.1,2.8,0.2,4.1,0.3c0.7,0,1.3,0.1,1.9,0.1c0.6,0.1,1.2,0.2,1.7,0.2
				c2.1,0.3,3.5,0.5,3.6,0.5c0,0,0.4,0.1,1,0.3c0.6,0.2,1.5,0.5,2.5,0.8c2.1,0.6,4.8,1.8,7.5,2.8c1.3,0.6,2.6,1.3,3.8,1.9
				c0.6,0.3,1.2,0.6,1.7,0.9c0.5,0.3,1,0.6,1.5,0.9C156.3,80.8,157.6,81.5,157.6,81.5z"/>
		</g>
		<g id="XMLID_2548_">
			<path id="XMLID_2549_" class="st0" d="M236,79.8c0,0-0.8,1-1.9,2.6c-1.1,1.6-2.9,3.6-4.5,5.6c-1.8,1.9-3.6,3.9-5,5.2
				c-0.7,0.7-1.3,1.3-1.8,1.7c-0.4,0.4-0.7,0.6-0.7,0.6c0,0-1.1,0.8-2.7,1.9c-0.4,0.3-0.8,0.6-1.3,0.9c-0.5,0.3-1,0.6-1.5,0.9
				c-1,0.6-2.1,1.3-3.2,1.9c-2.2,1.2-4.4,2.4-6.2,3.2c-1.7,0.8-2.8,1.3-2.8,1.3s1.1-0.6,2.7-1.6c1.6-0.9,3.7-2.4,5.8-3.8
				c1-0.7,2-1.5,2.9-2.2c0.5-0.4,0.9-0.7,1.4-1c0.4-0.4,0.8-0.7,1.2-1c1.4-1.2,2.4-2.1,2.4-2.1c0,0,0.3-0.2,0.7-0.6
				c0.5-0.4,1.1-0.9,1.9-1.5c1.6-1.2,3.5-2.9,5.4-4.6c1.8-1.8,3.7-3.6,5-5.1C235.1,80.8,236,79.8,236,79.8z"/>
		</g>
		<g id="XMLID_2546_">
			<path id="XMLID_2547_" class="st0" d="M157,104.1c0,0-1.7,0.2-4.2,0.5c-0.6,0.1-1.3,0.2-2.1,0.3c-0.7,0.1-1.5,0.1-2.3,0.2
				c-1.6,0.1-3.3,0.2-5,0.2c-3.4-0.1-6.9-0.1-9.5-0.5c-1.3-0.1-2.4-0.2-3.2-0.3c-0.8-0.1-1.2-0.2-1.2-0.2c-0.1,0-1.7-0.4-4.2-1.1
				c-0.6-0.2-1.3-0.3-2-0.5c-0.7-0.2-1.4-0.5-2.2-0.7c-1.5-0.5-3.1-1-4.6-1.6c-3.1-1.3-6.2-2.5-8.3-3.8c-2.2-1.2-3.7-1.9-3.7-1.9
				s1.5,0.7,3.8,1.6c2.2,1.1,5.4,2,8.5,3.1c1.6,0.5,3.2,0.8,4.7,1.2c0.7,0.2,1.5,0.4,2.2,0.6c0.7,0.1,1.4,0.2,2,0.4
				c2.4,0.4,4.1,0.7,4.2,0.7c0,0,0.5,0.1,1.2,0.2c0.7,0.1,1.8,0.3,3.1,0.5c2.5,0.6,5.9,0.8,9.3,1.1c1.7,0,3.4,0.1,5,0.1
				c0.8,0,1.6,0.1,2.3,0c0.7,0,1.4-0.1,2.1-0.1C155.3,104.2,157,104.1,157,104.1z"/>
		</g>
		<g id="XMLID_2544_">
			<path id="XMLID_2545_" class="st0" d="M87.2,120.7c0,0-0.3,0.4-0.8,1c-0.3,0.3-0.6,0.7-1,1.1c-0.4,0.4-0.8,0.9-1.3,1.4
				c-1.9,2.1-4.7,4.7-7.7,7.1c-3,2.3-6.2,4.4-8.8,5.8c-1.3,0.7-2.4,1.2-3.1,1.6c-0.8,0.4-1.2,0.6-1.3,0.6c0,0-0.5,0.2-1.3,0.5
				c-0.8,0.3-1.9,0.7-3.2,1.1c-0.7,0.2-1.4,0.4-2.2,0.6c-0.8,0.2-1.6,0.4-2.4,0.6c-0.4,0.1-0.8,0.2-1.3,0.3
				c-0.4,0.1-0.9,0.2-1.3,0.2c-0.9,0.2-1.8,0.3-2.7,0.5c-3.6,0.5-7.3,0.7-10,0.7c-1.4,0-2.5-0.1-3.3-0.1c-0.8,0-1.2-0.1-1.2-0.1
				s0.5,0,1.2,0c0.8,0,1.9,0,3.3-0.1c2.7-0.1,6.3-0.6,9.8-1.3c0.9-0.2,1.8-0.4,2.6-0.6c0.4-0.1,0.9-0.2,1.3-0.3
				c0.4-0.1,0.8-0.3,1.2-0.4c0.8-0.3,1.6-0.5,2.3-0.7c0.7-0.3,1.4-0.5,2.1-0.8c1.3-0.5,2.3-0.9,3.1-1.3c0.7-0.3,1.2-0.5,1.2-0.5
				c0,0,0.5-0.2,1.3-0.5c0.8-0.3,1.9-0.8,3.1-1.4c2.5-1.2,5.8-3,8.9-5.1c3.1-2.1,6-4.5,8-6.5c0.5-0.5,1-0.9,1.4-1.3
				c0.4-0.4,0.7-0.8,1-1.1C86.9,121.1,87.2,120.7,87.2,120.7z"/>
		</g>
		<g id="XMLID_2542_">
			<path id="XMLID_2543_" class="st0" d="M50.9,206.1c0,0-0.2-1.7-0.6-4.2c-0.3-2.5-0.9-5.9-1.4-9.2c-0.7-3.3-1.3-6.7-1.9-9.2
				c-0.3-1.2-0.5-2.3-0.7-3c-0.2-0.7-0.3-1.2-0.3-1.2c0-0.1-0.3-1.7-0.8-4.2c-0.1-0.6-0.2-1.3-0.4-2c-0.1-0.7-0.3-1.4-0.5-2.2
				c-0.3-1.5-0.7-3.1-1-4.7c-0.8-3.2-1.5-6.4-2.2-8.8c-0.7-2.4-1.1-4-1.1-4s0.6,1.5,1.4,3.9c0.9,2.3,1.9,5.4,2.9,8.6
				c0.5,1.6,0.9,3.2,1.4,4.7c0.2,0.7,0.4,1.5,0.6,2.2c0.2,0.7,0.4,1.3,0.5,2c0.6,2.4,1.1,4.1,1.1,4.1c0,0,0.1,0.5,0.2,1.2
				c0.1,0.8,0.3,1.8,0.5,3.1c0.4,2.5,0.8,5.9,1.2,9.3c0.3,3.4,0.7,6.8,0.8,9.3C50.8,204.4,50.9,206.1,50.9,206.1z"/>
		</g>
		<g id="XMLID_2531_">
			<path id="XMLID_2541_" class="st0" d="M42.9,257.8c0,0-0.6-1-1.5-2.6c-0.9-1.5-2-3.7-3.1-5.8c-1-2.2-2.1-4.3-2.7-6
				c-0.4-0.8-0.7-1.5-0.9-2c-0.2-0.5-0.3-0.8-0.3-0.8c0,0-0.3-1.2-0.8-2.9c-0.2-0.9-0.5-1.9-0.7-2.9c-0.2-1.1-0.5-2.2-0.8-3.4
				c-0.4-2.3-0.9-4.6-1.1-6.3c-0.3-1.7-0.4-2.9-0.4-2.9s0.3,1.1,0.7,2.8c0.4,1.7,1.1,3.9,1.8,6.1c0.4,1.1,0.7,2.2,1.1,3.2
				c0.3,1,0.7,2,1,2.8c0.6,1.6,1,2.7,1.1,2.8c0,0,0.1,0.3,0.2,0.8c0.2,0.5,0.4,1.2,0.6,2.1c0.5,1.7,1.3,4,2.1,6.2
				c0.9,2.2,1.7,4.5,2.4,6.1C42.5,256.8,42.9,257.8,42.9,257.8z"/>
		</g>
		<g id="XMLID_2526_">
			<path id="XMLID_2527_" class="st0" d="M300.9,222.6c0,0,0.3-1.5,0.7-3.8c0.5-2.2,0.8-5.3,1.2-8.3c0.2-3.1,0.6-6.1,0.6-8.4
				c0-1.2,0.1-2.1,0.1-2.8c0-0.7,0-1.1,0-1.1c0-0.1,0.1-1.6,0.2-3.8c0-0.6,0.1-1.2,0.1-1.8c0-0.6,0-1.3,0-2c0-1.4,0-2.9,0-4.4
				c-0.1-3-0.2-5.9-0.5-8.2c-0.2-2.2-0.3-3.7-0.3-3.7s0.3,1.5,0.7,3.7c0.5,2.2,0.8,5.2,1.1,8.1c0.1,1.5,0.2,3,0.3,4.4
				c0,0.7,0.1,1.4,0.1,2c0,0.6,0,1.3,0,1.8c0,2.3,0.1,3.8,0.1,3.9c0,0,0,0.4-0.1,1.1c-0.1,0.7-0.2,1.7-0.3,2.8
				c-0.2,2.3-0.8,5.4-1.2,8.4c-0.7,3-1.2,6-1.9,8.3C301.3,221.1,300.9,222.6,300.9,222.6z"/>
		</g>
		<g id="XMLID_2524_">
			<path id="XMLID_2525_" class="st0" d="M59.3,67.8c0,0-1.1,1.2-2.7,3c-1.6,1.7-3.6,4.3-5.6,6.8c-1.9,2.6-3.9,5.1-5.1,7.2
				c-0.7,1-1.2,1.8-1.6,2.4c-0.4,0.6-0.6,1-0.6,1c0,0-1,1.3-2.3,3.2c-0.3,0.5-0.7,1-1.1,1.5c-0.4,0.6-0.7,1.2-1.1,1.8
				c-0.8,1.2-1.7,2.5-2.5,3.9c-1.6,2.7-3.2,5.4-4.2,7.5c-1.1,2.1-1.8,3.5-1.8,3.5s0.6-1.4,1.5-3.6c0.9-2.2,2.3-5,3.6-7.8
				c0.7-1.4,1.5-2.8,2.2-4.1c0.4-0.7,0.7-1.3,1-1.9c0.4-0.6,0.7-1.1,1-1.6c1.2-2,2.1-3.4,2.1-3.5c0,0,0.3-0.4,0.7-0.9
				c0.4-0.6,1.1-1.4,1.8-2.3c1.5-2,3.6-4.4,5.7-6.8c2.2-2.3,4.4-4.7,6.2-6.3C58.2,68.9,59.3,67.8,59.3,67.8z"/>
		</g>
	</g>
</g>
</svg>
