<?xml version="1.0" encoding="utf-8"?>
<!-- Generator: Adobe Illustrator 19.0.0, SVG Export Plug-In . SVG Version: 6.00 Build 0)  -->
<svg version="1.1" id="Layer_1" xmlns="http://www.w3.org/2000/svg" xmlns:xlink="http://www.w3.org/1999/xlink" x="0px" y="0px"
	 viewBox="-292 116.6 374.3 328.4" enable-background="new -292 116.6 374.3 328.4" xml:space="preserve">
<g id="XMLID_7738_">
	<g id="XMLID_7884_">
		<path id="XMLID_7885_" fill="#EF7B05" d="M-231.7,422.1c-7.6-5.8-11.5-9.6-14-19c-1.9-7.1-6.6-17.1-4.8-24.3
			c1.2-4.8,3.8-6.4,2.2-11.9c-1.1-3.9-3.8-8.3-6.5-11.4c-3.9-4.4-4.7-3.8-4-9.7c0.5-4.9-0.9-6.4-3.1-10.8c-4.3-8.8,0-15.5-1-24.5
			c-1-9.1-0.2-17.9-0.7-26.9c-0.4-8.3,0.5-17.5-2.7-24.9c-3.9-9,1.7-15.6,3.3-24.3c2-11,4.5-15.9,14-21.8c4.1-2.5,7.2-5.5,8.1-10.2
			c0.8-3.8-1.5-9.6,0.6-12.9c2.2-3.3,7.3-4.6,9.7-8.2c1.5-2.3,1.7-4.4,4.3-6.4c2.3-1.7,4.8-1.5,6.4-4.4c2.1-4.1-0.3-8.1,2.7-12
			c2.7-3.5,7.5-4.9,11.5-5.7c7.8-1.5,15.8,5.4,22.2,1.5c3.7-2.3,4.7-4.4,9.2-5.4c4.2-0.9,8.7-0.5,12.9-0.1c-1.5-9.6,17.8-7.2,22.8-8
			c4.3-0.7,7.1-2.5,11.9-3.3c5.5-0.9,5.7-4.8,10.8-7c7.6-3.2,18.9-0.9,26,1.6c3.8,1.4,7.8,3,11.3,5c4.5,2.5,4.9,5.3,7.6,8.5
			c5.5,6.7,17.8,3.9,25.4,4.3c5.5,0.3,8.1,3.6,12,7c4.8,4,6,3.8,11.8,3.8c3.8,0,8.3,0.6,11.4,2.7c3.6,2.5,3.3,5.1,5.3,8.7
			c2.3,4,5.2,4.8,8.8,7.2c4.2,2.8,5.3,7.1,9.2,9.1c3.8,1.9,7.5,0.8,9.9,5.8c2,4.2,0.5,7.8,4.1,11.5c2.9,3.1,7.1,3.7,9.7,7.7
			c2.4,3.7,3.6,8.2,4.9,12.3c2.4,7.7,8.7,13.5,10.3,21.2c1.9,9.2-4,18-6.3,26.9c-2.7,10.6-2.7,17.9-2.2,28.7
			c0.4,9,3.3,17.9,3.7,26.5c0.2,5.1-1.8,8.9-3.9,13.4c-2.3,5-2.7,9.4-3.5,14.7c-0.9,6.1-1.4,6-5.5,9.6c-3.2,2.8-5.8,6.2-7.6,9.9
			c-2.2,4.7-4,9-5.5,13.9c-0.9,2.9-2.7,5.1-3.1,8.3c-0.4,2.8,0.7,5.4,0.5,8.1c-0.2,5.2-2.7,10.3-5.5,14.6c-3,4.6-4.6,8-6.9,12.8
			c-2.2-8.4-0.5-17.2,0-26.3c0.4-8.6,4.9-17.9,3.3-26.5c-0.7-3.9-2.5-6.9-2.7-11.3c-0.7-13.5-7.3-18.2-12.2-29.3
			c-3.7-8.4-1.7-21.2-1.9-30.1c-0.4-18.7-2.4-40.2-22.5-47.9c-14.7-5.7-30.9-7.8-46.5-8.6c-12.9-0.7-26.3,10.3-39,4.1
			c-18.5-9.1-38.2-13.6-58.8-8.5c-15.3,3.8-32.1,14.4-37,30.1c-4,12.8,1.7,23.9-4.8,36.9c-5.8,11.7-13.6,23.1-14.4,36.6
			c-0.5,9.1,4.1,16.7,2.7,25.9c-1.2,8.5-1.1,16.1-1.1,24.9c0,3.6,1,7.5,0.5,10.9C-228.9,418.8-229.8,418.9-231.7,422.1z"/>
	</g>
	<g id="XMLID_7739_">
		<g id="XMLID_7881_">
			<g id="XMLID_7882_">
				<path id="XMLID_7883_" fill="#FFFFFF" d="M-95.9,156.9c0,0,0.6,0.6,1.5,1.7s2.3,2.7,3.6,4.8c1.3,2.1,2.5,4.8,3.1,7.9
					c0.6,3.1,0.5,6.5,0.1,9.8s-1.3,6.7-2.6,9.6c-1.3,2.9-2.9,5.4-4.3,7.5c-1.4,2.1-2.7,3.8-3.5,5c-0.9,1.2-1.4,1.9-1.4,1.9
					s-0.6,0.7-1.4,1.8c-0.8,1.1-1.9,2.7-2.8,4.8c-0.9,2.1-1.6,4.7-1.9,7.7c-0.3,2.9-0.2,6.1,0,9.3c0.2,3.2,0.5,6.4,0.5,9.4
					c0.1,3-0.2,5.8-0.6,8.2c-0.5,2.4-1.1,4.3-1.7,5.5c-0.3,0.7-0.5,1.1-0.7,1.5c-0.2,0.3-0.3,0.5-0.3,0.5s0.1-0.2,0.2-0.5
					c0.1-0.3,0.4-0.8,0.6-1.5c0.5-1.3,1.1-3.2,1.4-5.6c0.3-2.4,0.4-5.1,0.2-8.1s-0.6-6.1-1-9.3c-0.4-3.2-0.7-6.4-0.5-9.5
					c0.1-3.1,0.7-6,1.6-8.4c0.9-2.4,2-4.2,2.9-5.5c0.8-1.2,1.3-1.9,1.4-1.9c0,0,0.6-0.7,1.5-1.9c0.9-1.2,2.3-2.8,3.7-4.7
					c1.5-2,3.1-4.3,4.5-7s2.4-5.7,3-8.9c0.5-3.2,0.8-6.5,0.4-9.5c-0.4-3-1.4-5.7-2.6-7.9c-1.2-2.1-2.4-3.8-3.3-4.9
					C-95.3,157.5-95.9,156.9-95.9,156.9z"/>
			</g>
		</g>
		<g id="XMLID_7878_">
			<g id="XMLID_7879_">
				<path id="XMLID_7880_" fill="#FFFFFF" d="M-82.4,165.6c0,0,0,0.2,0.1,0.5c0,0.2,0.1,0.4,0.2,0.6c0.1,0.3,0.1,0.5,0.3,0.9
					c0.4,1.3,1.3,3,2.4,5c0.5,1,1.1,2.2,1.6,3.4c0.3,0.6,0.4,1.3,0.6,2c0.1,0.7,0.3,1.4,0.4,2.1c0.1,0.4,0.1,0.7,0.2,1.1
					c0,0.4,0.1,0.8,0.1,1.1c0,0.8,0.1,1.5,0.1,2.3s0,1.6-0.1,2.3c0,0.8-0.1,1.6-0.2,2.4c0,0.4-0.1,0.8-0.1,1.2l-0.2,1.2
					c-0.2,0.8-0.3,1.6-0.5,2.3c-0.5,1.5-0.9,3-1.5,4.4c-0.3,0.7-0.6,1.4-0.9,2c-0.3,0.6-0.7,1.3-1,1.9c-0.3,0.6-0.6,1.2-1,1.7
					c-0.3,0.6-0.7,1.1-1,1.6c-1.3,2-2.5,3.6-3.3,4.8c-0.8,1.1-1.3,1.8-1.4,1.8c0,0-0.6,0.7-1.4,1.7c-0.4,0.5-0.9,1.1-1.4,1.8
					c-0.3,0.3-0.5,0.8-0.8,1.2c-0.3,0.4-0.5,0.9-0.8,1.3c-1,1.9-1.8,4.3-2.2,7s-0.4,5.7-0.5,8.8c-0.3,6.1-2,12-3.3,16.3
					c-1.4,4.3-2.3,7.2-2.3,7.2s0.7-2.9,1.8-7.3c1.1-4.4,2.4-10.3,2.3-16.2c0-3-0.2-6,0-8.9c0.2-2.9,1-5.7,2-7.9
					c0.3-0.5,0.6-1,0.8-1.5c0.3-0.5,0.5-1,0.8-1.3c0.6-0.8,1-1.5,1.4-2.1c0.8-1.1,1.3-1.7,1.3-1.8c0,0,0.6-0.7,1.4-1.7
					c0.9-1.1,2.1-2.6,3.5-4.4c0.3-0.5,0.7-1,1-1.5c0.4-0.5,0.7-1,1-1.6c0.3-0.6,0.7-1.1,1-1.7c0.3-0.6,0.6-1.2,0.9-1.9
					c0.7-1.3,1.1-2.7,1.7-4.1c0.2-0.7,0.4-1.4,0.6-2.2l0.3-1.1c0.1-0.4,0.1-0.8,0.2-1.1c1.1-6,0.6-12.3-1.7-16.4
					c-1-2.1-1.8-3.9-2.1-5.2c-0.1-0.3-0.2-0.6-0.2-0.9c-0.1-0.3-0.1-0.5-0.1-0.7C-82.3,165.7-82.4,165.6-82.4,165.6z"/>
			</g>
		</g>
		<g id="XMLID_7875_">
			<g id="XMLID_7876_">
				<path id="XMLID_7877_" fill="#FFFFFF" d="M-71.5,172.1c0,0,0.8,0.4,2.1,1.1c1.3,0.7,3.2,1.8,5.3,3.3s4.4,3.5,6.3,6.1
					c1.9,2.6,3.3,6,3.7,9.5l0.1,1.3c0,0.4,0,0.9,0,1.3s0,0.9,0,1.3s-0.1,0.9-0.1,1.3c-0.2,1.7-0.4,3.4-0.9,5
					c-0.8,3.2-2.4,6.1-4.1,8.2c-1.7,2.1-3.5,3.6-4.7,4.6c-0.6,0.5-1.2,0.8-1.5,1.1c-0.4,0.2-0.6,0.4-0.6,0.4c-0.1,0-0.8,0.5-2.2,1.2
					c-1.3,0.7-3.3,1.6-5.5,2.7c-2.2,1.1-4.9,2.3-7.4,4c-2.5,1.7-4.8,3.9-6.4,6.7l-0.6,1.1c-0.2,0.4-0.3,0.7-0.5,1.1
					c-0.3,0.7-0.6,1.5-0.8,2.3c-0.1,0.4-0.3,0.8-0.4,1.1c-0.1,0.4-0.2,0.8-0.3,1.1c-0.2,0.8-0.4,1.5-0.6,2.3c-0.7,3-1.2,5.9-1.7,8.3
					s-0.9,4.5-1.2,5.9c-0.4,1.4-0.6,2.2-0.6,2.2s0.2-0.8,0.5-2.2s0.6-3.5,0.9-5.9c0.3-2.5,0.7-5.3,1.2-8.4c0.1-0.8,0.3-1.5,0.5-2.3
					c0.1-0.4,0.2-0.8,0.3-1.2c0.1-0.4,0.2-0.8,0.3-1.2c0.2-0.8,0.4-1.6,0.8-2.4c0.2-0.4,0.3-0.8,0.5-1.2l0.5-1.2
					c1.5-3.1,4-5.7,6.5-7.6c2.6-1.9,5.2-3.3,7.4-4.6c2.2-1.2,4.1-2.2,5.3-2.9c1.3-0.7,1.9-1.2,2-1.2c0,0,0.2-0.1,0.6-0.3
					c0.3-0.2,0.8-0.5,1.5-0.9c1.2-0.8,2.9-2.1,4.5-3.9c0.8-0.9,1.6-2,2.3-3.2c0.4-0.6,0.7-1.3,1-1.9c0.3-0.7,0.6-1.4,0.8-2.1
					c0.9-2.9,1.5-6.3,1.3-9.6c-0.1-3.3-1.3-6.5-3-9.1c-1.7-2.6-3.9-4.7-5.9-6.3c-2-1.6-3.8-2.7-5.1-3.5
					C-70.8,172.5-71.5,172.1-71.5,172.1z"/>
			</g>
		</g>
		<g id="XMLID_7872_">
			<g id="XMLID_7873_">
				<path id="XMLID_7874_" fill="#FFFFFF" d="M-118.6,242.4c0,0,0-0.2-0.1-0.6c-0.1-0.4-0.2-1-0.4-1.8c-0.4-1.5-1.2-3.7-2.5-6.1
					c-1.2-2.4-2.9-5.1-4.3-8.3c-0.6-1.6-1.2-3.3-1.5-5.2c-0.2-1.8-0.2-3.8,0.1-5.6c0.3-1.9,0.8-3.7,1.6-5.4c0.3-0.9,0.8-1.7,1.2-2.5
					c0.5-0.8,0.9-1.6,1.5-2.3c2.1-2.9,4.5-5.2,6.6-7s4-3.3,5.2-4.3c0.6-0.5,1.1-0.9,1.5-1.2c0.3-0.3,0.5-0.4,0.5-0.5
					c0,0,0.2-0.2,0.5-0.4c0.2-0.1,0.4-0.3,0.6-0.5c0.2-0.2,0.5-0.4,0.8-0.7c1.1-1,2.6-2.5,4-4.7c1.4-2.1,2.5-4.9,3-8.1
					c0.4-3.2,0.1-6.6-1.1-9.9c-0.6-1.6-1.3-3.2-2.2-4.6c-0.4-0.7-0.9-1.4-1.4-2.1c-0.5-0.6-1-1.3-1.6-1.9c-2.2-2.4-4.7-4.2-7.1-5.4
					c-2.3-1.2-4.4-2-5.9-2.4c-0.7-0.2-1.3-0.3-1.7-0.4c-0.4-0.1-0.6-0.1-0.6-0.1s0.2,0,0.6,0.1c0.4,0.1,1,0.1,1.8,0.3
					c1.5,0.3,3.7,1,6.1,2.1c2.4,1.1,5.1,2.8,7.5,5.2c0.6,0.6,1.2,1.2,1.8,1.9c0.5,0.7,1.1,1.4,1.6,2.1c1,1.5,1.9,3.1,2.6,4.8
					c1.4,3.4,2,7.1,1.7,10.6s-1.4,6.6-2.9,9.1c-1.4,2.5-3,4.2-4.2,5.4c-0.3,0.3-0.6,0.6-0.8,0.8c-0.2,0.2-0.5,0.4-0.6,0.6
					c-0.4,0.3-0.6,0.5-0.6,0.5c-0.1,0.2-3.2,2.2-7.5,5.6c-2.1,1.7-4.5,3.7-6.6,6.4c-0.5,0.6-1,1.3-1.5,2c-0.4,0.7-0.9,1.5-1.3,2.2
					c-0.8,1.5-1.3,3.2-1.7,5c-0.4,1.7-0.5,3.5-0.3,5.2c0.1,1.7,0.6,3.4,1.2,5c1.1,3.2,2.7,6,3.8,8.5c1.2,2.5,1.9,4.7,2.2,6.2
					c0.2,0.8,0.2,1.4,0.3,1.8C-118.6,242.2-118.6,242.4-118.6,242.4z"/>
			</g>
		</g>
		<g id="XMLID_7869_">
			<g id="XMLID_7870_">
				<path id="XMLID_7871_" fill="#FFFFFF" d="M-120.7,252.4c0,0-0.3-0.9-0.9-2.4c-0.6-1.5-1.5-3.6-2.5-6.2c-2.1-5.1-5.3-11.8-7.2-19
					c-0.9-3.6-1.5-7.4-1.3-11c0-0.9,0.1-1.8,0.2-2.6c0-0.4,0.1-0.9,0.1-1.3c0-0.4,0.2-0.8,0.2-1.2c0.2-0.8,0.3-1.6,0.5-2.4
					c0.2-0.7,0.5-1.5,0.7-2.1c0.1-0.3,0.2-0.7,0.3-1c0.1-0.3,0.3-0.6,0.4-1c0.1-0.3,0.3-0.6,0.4-0.9c0.2-0.3,0.3-0.6,0.5-0.8
					c0.3-0.5,0.6-1,0.9-1.4c0.3-0.4,0.6-0.8,0.8-1.2c0.3-0.3,0.5-0.6,0.7-0.9s0.4-0.5,0.6-0.7c0.3-0.4,0.5-0.6,0.5-0.6
					s0.7-0.7,2-1.8c1.2-1.1,3-2.6,4.8-4.4c1-0.9,1.9-2,2.8-3.1c0.9-1.2,1.6-2.5,2.2-4c1.1-3,1.6-6.5,1.3-10
					c-0.1-0.9-0.3-1.7-0.4-2.6c-0.2-0.8-0.4-1.7-0.7-2.5s-0.6-1.6-1-2.3c-0.2-0.4-0.4-0.7-0.6-1.1c-0.2-0.4-0.4-0.7-0.6-1.1
					c-0.5-0.7-0.9-1.4-1.4-2c-0.5-0.6-1-1.2-1.5-1.8c-0.5-0.5-1.1-1.1-1.6-1.6s-1-1-1.5-1.4c-2-1.8-3.6-3.3-4.7-4.4
					c-1.1-1.1-1.7-1.8-1.7-1.8s0.7,0.6,1.8,1.7c1.2,1,2.9,2.5,4.9,4.2c0.5,0.4,1.1,0.9,1.6,1.4s1.1,1,1.7,1.5
					c0.5,0.6,1.1,1.2,1.6,1.8s1,1.3,1.5,2c0.3,0.3,0.5,0.7,0.7,1.1c0.2,0.4,0.4,0.8,0.7,1.1c0.5,0.7,0.8,1.6,1.2,2.4
					c0.4,0.8,0.6,1.7,0.9,2.6c0.2,0.9,0.4,1.8,0.5,2.7c0.5,3.7,0.2,7.4-0.8,10.8c-0.6,1.7-1.4,3.3-2.3,4.6c-0.9,1.3-1.9,2.5-2.9,3.5
					c-1.9,2-3.6,3.6-4.7,4.7c-1.1,1.1-1.7,1.8-1.8,1.8c0,0-0.2,0.2-0.5,0.5c-0.2,0.2-0.3,0.4-0.6,0.6c-0.2,0.2-0.4,0.5-0.7,0.8
					c-1,1.2-2.3,2.9-3.2,5.5c-0.2,0.6-0.5,1.3-0.7,2s-0.4,1.4-0.6,2.2c-0.1,0.4-0.2,0.7-0.3,1.1c-0.1,0.4-0.1,0.8-0.2,1.2
					c-0.1,0.8-0.3,1.6-0.3,2.5c-0.3,3.4,0,7,0.8,10.6c1.5,7.2,4.3,14,6.2,19.2c1,2.6,1.7,4.8,2.3,6.3
					C-121,251.6-120.7,252.4-120.7,252.4z"/>
			</g>
		</g>
		<g id="XMLID_7866_">
			<g id="XMLID_7867_">
				<path id="XMLID_7868_" fill="#FFFFFF" d="M-142.4,239.2c0,0,0.1-0.2,0.2-0.7c0.1-0.2,0.2-0.5,0.3-0.8c0.1-0.2,0.1-0.3,0.2-0.5
					c0-0.2,0.1-0.4,0.1-0.6c0.1-0.4,0.2-0.9,0.3-1.4s0.1-1,0.2-1.6c0.1-1.2,0.1-2.5-0.1-3.9c-0.3-2.9-1.1-6.1-2.5-9.4
					c-1.3-3.3-3.1-6.7-5.2-9.9c-0.5-0.8-1.1-1.6-1.6-2.4c-0.6-0.8-1.1-1.5-1.7-2.2c-1.2-1.4-2.5-2.6-4-3.6c-1.4-0.9-3-1.6-4.5-2.1
					c-1.5-0.4-3-0.7-4.4-0.8c-2.8-0.3-5.3-0.4-7-0.5c-1.8-0.1-2.8-0.2-2.9-0.2c0,0-0.3,0-0.8-0.1c-0.2,0-0.5-0.1-0.9-0.1
					c-0.3-0.1-0.8-0.2-1.2-0.3c-0.9-0.2-2-0.6-3.1-1.2c-1.1-0.7-2.3-1.7-3.2-3c-0.9-1.4-1.4-3.1-1.6-4.8c-0.2-1.8,0-3.6,0.4-5.4
					c0.8-3.6,2.4-7.2,4.8-10.3c2.4-3.1,5.5-5.4,8.6-7.2c3.1-1.8,6.2-3,8.9-3.6c2.7-0.7,5.1-0.9,6.7-0.9c0.8,0,1.5,0,1.9,0.1
					c0.4,0,0.7,0.1,0.7,0.1s-0.2,0-0.7,0c-0.4,0-1.1,0-1.9,0c-1.6,0.1-4,0.4-6.6,1.2c-2.7,0.8-5.7,2.1-8.6,4
					c-2.9,1.9-5.8,4.3-7.9,7.2c-2.1,3-3.5,6.5-4,9.8c-0.6,3.3-0.1,6.5,1.3,8.5s3.5,2.7,5,3c0.4,0.1,0.7,0.1,1,0.2
					c0.3,0,0.6,0.1,0.8,0.1c0.5,0.1,0.7,0.1,0.7,0.1c0.1,0,1.1,0.2,2.8,0.4c1.7,0.2,4.1,0.4,7.1,0.8c1.5,0.2,3.1,0.6,4.8,1.1
					c1.7,0.6,3.3,1.4,4.9,2.5c1.5,1.2,2.9,2.6,4.2,4.1c0.6,0.8,1.2,1.6,1.7,2.4s1,1.7,1.5,2.5c2,3.4,3.6,6.9,4.8,10.4
					c1.2,3.4,1.9,6.8,2.1,9.7c0.1,1.5,0,2.8-0.1,4c-0.1,0.6-0.2,1.1-0.2,1.6c-0.1,0.5-0.3,0.9-0.4,1.4c-0.1,0.2-0.1,0.4-0.2,0.6
					c-0.1,0.2-0.1,0.3-0.2,0.5c-0.1,0.3-0.2,0.6-0.3,0.8C-142.3,238.9-142.4,239.2-142.4,239.2z"/>
			</g>
		</g>
		<g id="XMLID_7863_">
			<g id="XMLID_7864_">
				<path id="XMLID_7865_" fill="#FFFFFF" d="M-139.2,241.9c0,0,0.2-0.8,0.6-2.2c0.4-1.4,0.9-3.4,1.5-5.8s1.2-5.3,1.5-8.3
					c0.3-3.1,0.3-6.4-0.3-9.6c-0.5-3.2-1.5-6.3-2.7-9.2c-1.1-2.9-2.5-5.4-3.7-7.5c-1.3-2.1-2.6-3.7-3.5-4.7c-1-1-1.6-1.6-1.6-1.6
					s-0.6-0.6-1.6-1.5c-1-0.8-2.8-1.8-4.9-2.9c-2.2-1.1-4.8-2.3-7.4-4.2c-1.3-0.9-2.5-2.1-3.5-3.6c-0.4-0.8-0.8-1.6-1-2.5
					s-0.1-1.8,0-2.7c0.3-1.7,1.1-3.3,2.1-4.6s2.2-2.4,3.4-3.3c2.4-1.9,4.9-3.3,7.1-4.4c2.2-1.1,4.1-1.7,5.4-2.1
					c0.7-0.2,1.2-0.3,1.6-0.4c0.4-0.1,0.6-0.1,0.6-0.1s-0.2,0.1-0.6,0.2c-0.4,0.1-0.9,0.3-1.5,0.5c-1.3,0.5-3.2,1.3-5.3,2.4
					c-2.1,1.2-4.5,2.7-6.7,4.6c-1.1,1-2.2,2.1-3,3.3c-0.9,1.2-1.5,2.6-1.6,4.1c-0.1,0.7,0,1.5,0.1,2.1c0.2,0.7,0.5,1.3,0.9,1.9
					c0.8,1.2,2,2.1,3.2,2.9c2.4,1.6,5,2.6,7.3,3.6c2.2,1,4.2,1.9,5.5,2.8s1.9,1.5,2,1.6c0,0,0.7,0.7,1.7,1.9s2.3,3,3.5,5.3
					c1.3,2.3,2.5,5,3.5,8s1.9,6.3,2.3,9.7c0.4,3.4,0.2,6.8-0.3,9.9c-0.5,3.1-1.2,5.9-1.9,8.3c-0.7,2.4-1.3,4.4-1.8,5.7
					C-138.9,241.1-139.2,241.9-139.2,241.9z"/>
			</g>
		</g>
		<g id="XMLID_7860_">
			<g id="XMLID_7861_">
				<path id="XMLID_7862_" fill="#FFFFFF" d="M-137,142.3c0,0-0.2-0.1-0.5-0.2s-0.8-0.4-1.4-0.6c-1.3-0.4-3.1-0.9-5.4-1.1
					c-2.2-0.1-4.9,0.1-7.5,1.1c-1.3,0.5-2.5,1.4-3.5,2.3c-1.1,1-2,2.1-2.5,3.4c-0.6,1.3-0.4,2.6,0.3,3.6c0.8,1.1,1.9,1.7,3.1,1.9
					c1.2,0.2,2.6,0.1,3.8,0c1.2-0.2,2.4-0.5,3.5-0.7c2.2-0.5,4.1-1.1,5.5-1.3c1.4-0.3,2.3-0.4,2.3-0.4c0.1,0,0.9-0.1,2.4,0
					c0.7,0.1,1.7,0.2,2.7,0.7c0.4,0.2,0.9,0.5,1.4,0.7c0.5,0.3,1,0.6,1.5,1c1,0.7,1.9,1.7,2.7,2.9s1.4,2.5,1.8,3.9
					c0.8,2.8,1,6,0.6,9c-0.7,6-2.9,11.7-4.8,15.7c-1,2-2,3.6-2.7,4.7c-0.4,0.5-0.7,1-0.9,1.2c-0.2,0.3-0.3,0.4-0.3,0.4
					s0.1-0.2,0.3-0.4c0.2-0.3,0.5-0.7,0.8-1.3c0.7-1.1,1.5-2.7,2.4-4.8c1.7-4,3.5-9.8,3.8-15.6c0.2-2.9-0.1-5.8-1-8.3
					c-0.5-1.2-1.1-2.3-1.8-3.3c-0.7-0.9-1.5-1.7-2.4-2.2c-0.4-0.3-0.9-0.5-1.2-0.8c-0.4-0.2-0.8-0.4-1.2-0.5
					c-0.7-0.3-1.3-0.3-1.9-0.4c-1.2,0-1.9,0.1-1.9,0.1s-0.8,0-2.1,0.2s-3.2,0.6-5.5,1c-1.2,0.2-2.4,0.4-3.8,0.6
					c-1.4,0.1-2.9,0.2-4.5-0.2c-0.8-0.2-1.6-0.5-2.3-1l-0.5-0.4l-0.5-0.4c-0.3-0.3-0.5-0.7-0.8-1c-1-1.5-1-3.6-0.2-5.1
					c0.7-1.5,1.9-2.7,3.1-3.7c1.2-1,2.5-1.8,4-2.3c2.8-1,5.6-1,7.9-0.7c2.3,0.3,4.1,0.9,5.4,1.4c0.6,0.3,1.1,0.5,1.4,0.7
					C-137.2,142.2-137,142.3-137,142.3z"/>
			</g>
		</g>
		<g id="XMLID_7857_">
			<g id="XMLID_7858_">
				<path id="XMLID_7859_" fill="#FFFFFF" d="M-176,200.7c0,0-0.8-0.3-2.3-0.7s-3.6-0.8-6.2-1.4c-1.3-0.3-2.7-0.7-4.1-1.2
					c-1.4-0.5-3-1.2-4.3-2.2c-1.4-1-2.5-2.5-3.1-4.3s-0.7-3.7-0.3-5.5c0.3-1.8,0.7-3.5,0.8-5.1c0-0.8,0.1-1.6-0.1-2.3
					c-0.2-0.7-0.5-1.3-0.9-1.7l-0.4-0.3c-0.1,0-0.2-0.1-0.3-0.1c-0.3-0.1-0.6-0.1-0.9-0.1c-0.6,0-1.3,0.2-2,0.4
					c-1.4,0.4-2.6,1-3.8,1.6c-1.2,0.6-2.4,1.1-3.4,1.5c-1,0.4-1.9,0.9-2.7,1.2c-1.6,0.6-2.7,0.8-2.8,0.8c0,0-0.3,0-0.9,0.1
					c-0.5,0-1.3,0-2.3-0.5c-1-0.4-1.9-1.3-2.6-2.4c-0.1-0.3-0.3-0.6-0.4-0.8c-0.2-0.3-0.2-0.7-0.4-1c-0.2-0.7-0.3-1.4-0.3-2.2
					c0-3,1.3-6,3-8.8c0.9-1.4,2-2.8,3.3-4c0.7-0.6,1.4-1.1,2.1-1.6c0.3-0.3,0.8-0.5,1.1-0.7l1.2-0.6c3.2-1.5,7-1.9,10.2-1.1
					c3.2,0.8,5.8,2.6,7.6,4.5c1.8,1.9,2.9,3.8,3.5,5.1c0.3,0.7,0.5,1.2,0.7,1.6c0.1,0.4,0.2,0.6,0.2,0.6s-0.1-0.2-0.3-0.6
					c-0.2-0.4-0.4-0.9-0.7-1.6c-0.7-1.3-1.9-3.1-3.7-4.9c-1.9-1.8-4.5-3.3-7.5-4c-3.1-0.6-6.5-0.1-9.4,1.5l-1.1,0.7
					c-0.3,0.2-0.7,0.4-1,0.7c-0.6,0.5-1.3,1-1.9,1.6c-1.1,1.1-2,2.5-2.8,3.8c-1.5,2.7-2.4,5.5-2.3,7.8c0.1,1.1,0.4,1.9,0.9,2.7
					c0.5,0.7,1,1.1,1.5,1.2c0.9,0.3,1.7,0.1,1.8,0.1c0,0,0.8-0.1,2.2-0.5c0.7-0.2,1.6-0.6,2.6-1c1.1-0.4,2.1-0.8,3.4-1.3
					s2.6-1.1,4.2-1.5c0.8-0.2,1.6-0.4,2.6-0.3c0.5,0,1,0.1,1.5,0.3c0.3,0.1,0.5,0.2,0.8,0.4c0.2,0.2,0.4,0.3,0.6,0.5
					c0.8,0.7,1.2,1.7,1.4,2.7c0.2,1,0.1,1.9,0,2.8c-0.2,1.8-0.7,3.6-1.1,5.2s-0.4,3.3,0,4.9c0.4,1.6,1.4,2.9,2.6,3.9
					c1.2,1,2.6,1.7,4,2.3c1.4,0.6,2.7,1,4,1.4c2.5,0.7,4.7,1.3,6.1,1.7C-176.8,200.4-176,200.7-176,200.7z"/>
			</g>
		</g>
		<g id="XMLID_7854_">
			<g id="XMLID_7855_">
				<path id="XMLID_7856_" fill="#FFFFFF" d="M-164.1,241.3c0,0-0.3-0.7-0.8-1.9c-0.5-1.2-1.2-3-2.1-5.2c-0.4-1.1-0.8-2.2-1.4-3.4
					c-0.3-0.6-0.5-1.2-0.8-1.9c-0.3-0.6-0.6-1.2-0.9-1.9c-0.2-0.3-0.3-0.6-0.5-1c-0.2-0.3-0.4-0.6-0.6-0.9c-0.4-0.6-0.8-1.3-1.1-1.9
					c-0.4-0.6-0.9-1.2-1.3-1.8c-0.2-0.3-0.4-0.6-0.7-0.9l-0.8-0.8l-1.5-1.6c-0.6-0.5-1.1-1.1-1.7-1.6c-1.1-1-2.2-2.1-3.2-3
					c-2.1-1.9-4.1-3.8-5.9-5.2c-0.9-0.7-1.7-1.4-2.4-2c-0.7-0.6-1.4-1.1-1.9-1.5c-1.1-0.8-1.7-1.3-1.8-1.3c0,0-0.6-0.5-1.7-1.4
					c-1.1-0.9-2.5-2.2-4.1-3.7c-1.7-1.5-3.5-3.4-5.7-5.1c-1.1-0.9-2.2-1.7-3.5-2.4c-1.2-0.7-2.5-1.3-3.9-1.8c-1.4-0.5-2.8-0.8-4.2-1
					s-2.8-0.4-4.2-0.5c-2.8-0.2-5.4,0-7.5,0.6c-1.1,0.3-2,0.7-2.7,1.3c-0.7,0.5-1.2,1.2-1.5,1.7c-0.3,0.6-0.4,1.1-0.4,1.4
					s-0.1,0.5-0.1,0.5s0-0.2,0-0.5s0.1-0.9,0.4-1.5s0.7-1.3,1.4-1.9c0.7-0.6,1.6-1.1,2.7-1.5c2.1-0.8,4.8-1.1,7.6-1.1
					c1.4,0,2.9,0.1,4.4,0.2c1.5,0.2,3,0.4,4.5,0.8s2.9,0.9,4.3,1.6c1.4,0.7,2.6,1.5,3.8,2.3c2.4,1.6,4.4,3.4,6.1,4.8
					c1.7,1.5,3.2,2.6,4.2,3.4c1.1,0.8,1.7,1.3,1.7,1.3s0.7,0.6,1.7,1.5c0.5,0.5,1.2,1,1.9,1.6c0.7,0.7,1.5,1.4,2.3,2.2
					c1.7,1.6,3.6,3.6,5.6,5.6c1,1,2,2.1,3.1,3.2c0.5,0.6,1,1.1,1.6,1.7c0.5,0.6,1,1.2,1.5,1.8l0.8,0.9c0.2,0.3,0.4,0.6,0.7,1
					c0.4,0.7,0.9,1.3,1.3,1.9c0.4,0.7,0.7,1.4,1.1,2c0.2,0.3,0.3,0.7,0.5,1c0.1,0.3,0.3,0.7,0.4,1c0.3,0.7,0.6,1.3,0.8,2
					s0.5,1.3,0.7,1.9c0.5,1.2,0.8,2.4,1.2,3.5c0.7,2.2,1.3,4,1.8,5.3C-164.3,240.6-164.1,241.3-164.1,241.3z"/>
			</g>
		</g>
		<g id="XMLID_7851_">
			<g id="XMLID_7852_">
				<path id="XMLID_7853_" fill="#FFFFFF" d="M-152.7,241.3c0,0,0-0.4-0.1-1s-0.1-1.5-0.4-2.5c-0.4-2.1-1.3-4.8-2.3-7.4
					c-0.3-0.6-0.6-1.3-0.8-1.9c-0.3-0.6-0.6-1.2-0.9-1.8c-0.6-1.2-1.2-2.2-1.7-3.2c-0.5-0.9-1-1.6-1.4-2.2c-0.3-0.5-0.5-0.8-0.6-0.9
					c0,0-0.2-0.3-0.5-0.9c-0.3-0.5-0.7-1.3-1.2-2.2c-0.6-0.9-1.1-1.9-1.9-2.9c-0.4-0.5-0.7-1.1-1.1-1.6s-0.9-1-1.3-1.6
					c-1.8-2.1-3.7-4-5.5-5.1c-0.8-0.6-1.6-1-2.1-1.3s-0.8-0.5-0.8-0.5s0.3,0.1,0.9,0.3c0.6,0.2,1.4,0.5,2.3,1
					c1.9,0.9,4.2,2.6,6.3,4.5c0.5,0.5,1,1,1.5,1.5s0.9,1,1.4,1.5c0.9,1,1.7,2,2.3,2.8c0.7,0.8,1.2,1.6,1.6,2.1
					c0.4,0.5,0.6,0.8,0.6,0.8s0.2,0.4,0.5,1c0.3,0.6,0.7,1.4,1.1,2.4c0.4,1,1,2.2,1.4,3.5c0.2,0.6,0.5,1.3,0.7,2s0.4,1.4,0.6,2.1
					c0.8,2.8,1.3,5.6,1.5,7.8c0.1,1.1,0.1,2,0.1,2.6C-152.7,241-152.7,241.3-152.7,241.3z"/>
			</g>
		</g>
		<g id="XMLID_7848_">
			<g id="XMLID_7849_">
				<path id="XMLID_7850_" fill="#FFFFFF" d="M-148.4,243.5c0,0-0.1-1.1-0.2-2.8c-0.1-1.7-0.4-3.9-0.7-6.1s-0.8-4.4-1.2-6
					c-0.2-0.8-0.4-1.5-0.5-1.9c-0.1-0.5-0.2-0.7-0.2-0.8c0,0,0-0.3-0.1-0.8s-0.2-1.1-0.3-1.9c-0.3-1.6-0.9-3.6-1.7-5.6
					c-0.8-1.9-1.9-3.8-2.9-5.1c-0.2-0.3-0.5-0.6-0.7-0.9c-0.2-0.2-0.4-0.5-0.6-0.6c-0.3-0.4-0.5-0.6-0.5-0.6s0.2,0.2,0.6,0.5
					c0.2,0.1,0.4,0.3,0.7,0.5c0.3,0.2,0.6,0.4,0.8,0.7c1.2,1.1,2.6,2.8,3.8,4.7c1.1,1.9,2.1,4,2.7,5.6c0.3,0.8,0.5,1.5,0.7,2
					s0.2,0.8,0.3,0.8c0,0,0.1,0.3,0.1,0.8c0.1,0.5,0.2,1.2,0.2,2.1c0.1,1.7,0.3,4,0.2,6.3c0,2.3-0.1,4.5-0.2,6.2
					C-148.3,242.4-148.4,243.5-148.4,243.5z"/>
			</g>
		</g>
		<g id="XMLID_7845_">
			<g id="XMLID_7846_">
				<path id="XMLID_7847_" fill="#FFFFFF" d="M-109.4,201.8c0,0-1.1,1.3-2.8,3.3c-1.6,2-3.9,4.7-4.9,7.9c-0.5,1.6-0.7,3.2-0.6,4.7
					c0,1.5,0.4,3,0.7,4.2c0.8,2.5,1.3,4.1,1.3,4.2c0,0.1,0.4,1.7,0.9,4.3c0.5,2.5,1.3,5.8,1.9,9.1c1.2,6.6,2.3,13.3,2.3,13.3
					s-1.8-6.4-3.7-12.9c-1-3.2-2.1-6.4-2.8-8.8c-0.8-2.4-1.3-4-1.3-4.1s-0.4-1.8-1-4.4c-0.2-1.4-0.4-3-0.3-4.7
					c0.1-1.7,0.5-3.6,1.2-5.2c1.5-3.4,4.1-5.8,5.9-7.7C-110.7,203-109.4,201.8-109.4,201.8z"/>
			</g>
		</g>
		<g id="XMLID_7842_">
			<g id="XMLID_7843_">
				<path id="XMLID_7844_" fill="#FFFFFF" d="M-172.2,245.1c0,0,0-0.2-0.1-0.5c0-0.3-0.2-0.8-0.4-1.4c-0.4-1.2-1.2-2.8-2.5-4.5
					c-1.2-1.7-2.9-3.6-5.1-5.1c-1.1-0.7-2.3-1.4-3.6-1.6l-1-0.2l-1-0.1c-0.7-0.1-1.4,0-2.1-0.1c-2.8,0.1-5.6,0.7-8.6,0.4
					c-1.5-0.1-2.9-0.7-4.1-1.5c-0.3-0.2-0.6-0.4-0.8-0.6c-0.3-0.2-0.5-0.5-0.7-0.7c-0.2-0.2-0.5-0.5-0.6-0.7
					c-0.2-0.3-0.3-0.5-0.5-0.8c-0.2-0.2-0.3-0.5-0.5-0.7c-0.1-0.2-0.2-0.5-0.4-0.7c-0.2-0.5-0.5-0.9-0.7-1.4
					c-0.3-0.8-0.7-1.6-0.9-2.2c-0.5-1.2-0.7-2-0.7-2s-0.2-0.8-0.5-2s-0.7-2.9-1.3-4.9c-0.6-1.9-1.5-4.1-3.1-6
					c-1.5-2-3.7-3.6-6.1-4.8c-2.4-1.2-5.1-2-7.6-2.3c-2.5-0.2-5,0-7,0.6c-2,0.5-3.6,1.2-4.7,1.8c-0.5,0.3-0.9,0.5-1.2,0.7
					s-0.4,0.3-0.4,0.3s0.1-0.1,0.4-0.3c0.3-0.2,0.7-0.5,1.2-0.8c1-0.7,2.6-1.5,4.6-2.1c2-0.7,4.5-1.1,7.1-1c2.7,0.1,5.5,0.7,8.1,1.9
					c2.6,1.1,5.2,2.7,7,4.8c1.9,2.1,3,4.5,3.8,6.5s1.3,3.7,1.7,4.9c0.4,1.2,0.6,1.9,0.6,1.9s0.2,0.8,0.6,2c0.2,0.6,0.4,1.3,0.7,2.1
					c0.1,0.4,0.3,0.8,0.5,1.2c0.1,0.2,0.2,0.4,0.3,0.7c0.1,0.2,0.2,0.4,0.4,0.6c0.1,0.2,0.2,0.4,0.4,0.7c0.1,0.2,0.3,0.4,0.5,0.6
					c0.2,0.2,0.3,0.4,0.5,0.6s0.4,0.3,0.6,0.5c0.8,0.6,1.8,1.2,3.1,1.3c2.4,0.4,5.4,0,8.3,0.1c0.7,0.1,1.5,0.1,2.2,0.2l1.1,0.2
					l1.1,0.3c1.5,0.4,2.7,1.2,3.8,2c2.2,1.7,3.8,3.7,4.9,5.6c1.2,1.8,1.9,3.5,2.2,4.7c0.1,0.6,0.3,1.1,0.3,1.4
					C-172.2,244.9-172.2,245.1-172.2,245.1z"/>
			</g>
		</g>
		<g id="XMLID_7839_">
			<g id="XMLID_7840_">
				<path id="XMLID_7841_" fill="#FFFFFF" d="M-166.2,246.7c0,0-0.2-0.5-0.5-1.2c-0.4-0.8-0.8-1.9-1.4-3.3c-1.2-2.7-3.2-6.1-5.4-9.3
					c-2.2-3.2-4.7-6.3-6.6-8.5c-1-1.1-1.8-2-2.4-2.7s-0.9-1-1-1c0,0-0.3-0.4-0.9-1.1c-0.5-0.7-1.3-1.6-2.3-2.7
					c-1.9-2.2-4.5-4.9-7.3-7.6c-2.8-2.6-5.7-5.1-7.9-6.9c-1.1-0.9-2.1-1.6-2.8-2.1c-0.7-0.5-1.1-0.8-1.1-0.8s0.4,0.2,1.1,0.7
					c0.7,0.4,1.8,1,2.9,1.8c2.4,1.5,5.5,3.8,8.6,6.1c3,2.4,6,4.9,8.1,7c1.1,1,1.9,1.9,2.5,2.5c0.6,0.6,1,1,1,1s0.4,0.4,0.9,1.1
					s1.3,1.7,2.2,2.9c1.8,2.5,4,5.8,5.9,9.3c1.9,3.5,3.6,7.1,4.6,9.9c0.6,1.4,0.9,2.6,1.2,3.4C-166.4,246.3-166.2,246.7-166.2,246.7
					z"/>
			</g>
		</g>
		<g id="XMLID_7836_">
			<g id="XMLID_7837_">
				<path id="XMLID_7838_" fill="#FFFFFF" d="M-53.1,171c0,0,0.1,0.2,0.2,0.5c0.2,0.3,0.5,0.8,1,1.2c1,1,2.8,1.8,4.9,3.1
					c0.5,0.3,1,0.7,1.6,1.1c0.3,0.2,0.5,0.5,0.7,0.7c0.2,0.3,0.5,0.5,0.7,0.8c0.9,1.1,1.6,2.4,2.3,3.8c1.3,2.8,2.4,5.9,3.1,9.1
					c1.4,6.4,1.1,13.1,0.4,18c-0.4,2.5-0.9,4.5-1.3,6c-0.5,1.4-0.9,2.3-0.9,2.3s-0.1,0.2-0.3,0.6c-0.1,0.2-0.2,0.4-0.4,0.7
					c-0.2,0.2-0.3,0.5-0.5,0.8c-0.8,1.3-2.1,3-3.9,4.6c-1.8,1.7-4.1,3.4-6.7,4.9c-2.6,1.5-5.4,3-8.1,4.5c-2.7,1.5-5.4,3.1-7.7,4.8
					c-2.3,1.7-4.2,3.7-5.6,5.6c-1.4,1.9-2.2,3.7-2.7,4.9c-0.3,0.6-0.4,1.1-0.5,1.5c-0.1,0.3-0.2,0.5-0.2,0.5s0.1-0.2,0.2-0.5
					c0.1-0.3,0.2-0.9,0.4-1.5c0.4-1.3,1.2-3.1,2.4-5.1c1.3-2,3.1-4.1,5.4-6c2.3-1.9,4.9-3.7,7.6-5.3c2.7-1.7,5.4-3.2,7.8-4.9
					c2.4-1.6,4.5-3.3,6-5c1.6-1.6,2.6-3.2,3.2-4.4c0.2-0.3,0.3-0.5,0.4-0.8c0.1-0.2,0.2-0.4,0.3-0.6c0.2-0.3,0.2-0.5,0.3-0.5
					c0,0,0.4-0.8,0.9-2c0.5-1.3,1-3.2,1.5-5.5c1-4.6,1.6-11.1,0.6-17.3c-0.5-3.1-1.4-6.2-2.5-9c-1.1-2.7-2.6-5.1-4.7-6.4
					c-2-1.3-3.8-2.3-4.8-3.3c-0.5-0.5-0.8-1-1-1.3C-53,171.2-53.1,171-53.1,171z"/>
			</g>
		</g>
		<g id="XMLID_7833_">
			<g id="XMLID_7834_">
				<path id="XMLID_7835_" fill="#FFFFFF" d="M-36.3,185c0,0-0.1-0.9-0.3-2.4c-0.3-1.5-0.7-3.7-1.4-6.2c-0.8-2.5-1.9-5.4-3.5-8.2
					c-1.6-2.8-3.8-5.6-6.5-7.7c-0.3-0.3-0.7-0.5-1-0.8l-1.1-0.7c-0.7-0.5-1.5-0.8-2.2-1.2c-0.8-0.4-1.6-0.6-2.3-0.9
					c-0.7-0.2-1.5-0.3-2.2-0.3c-1.6,0-3.1,0.2-4.6,0.4c-1.5,0.2-2.9,0.5-4.3,0.7c-2.7,0.4-5,0.6-6.8,0.3c-0.9-0.1-1.7-0.4-2.2-0.7
					s-0.8-0.5-0.8-0.5s-0.3-0.2-0.7-0.7c-0.4-0.4-0.9-1.2-1.1-2.2c-0.2-1-0.3-2.1,0-3.3c0.3-1.2,0.9-2.4,1.4-3.5
					c0.5-1.1,0.7-2.2,0.5-3.4c-0.3-1.2-1-2.5-2-3.6c-1-1-2.3-1.8-3.8-2.4c-1.5-0.6-3.2-0.9-4.8-1.4c-1.7-0.5-3.3-1-4.9-1.4
					c-0.8-0.2-1.6-0.4-2.4-0.6c-0.8-0.2-1.6-0.3-2.4-0.4c-3.1-0.4-6.1-0.4-8.6,0.2c-0.6,0.1-1.2,0.2-1.8,0.4
					c-0.6,0.2-1.1,0.3-1.6,0.4c-0.5,0.1-1,0.3-1.4,0.4c-0.4,0.2-0.8,0.3-1.2,0.4c-1.4,0.5-2.2,0.8-2.2,0.8s0.8-0.3,2.1-0.9
					c0.3-0.1,0.7-0.3,1.1-0.5c0.4-0.2,0.9-0.3,1.4-0.5c0.5-0.2,1-0.3,1.6-0.5c0.6-0.2,1.2-0.3,1.8-0.5c2.5-0.7,5.6-0.9,8.8-0.6
					c0.8,0.1,1.6,0.1,2.5,0.3c0.8,0.1,1.7,0.3,2.5,0.5c1.6,0.4,3.4,0.8,5,1.2s3.3,0.7,5,1.2c0.8,0.3,1.7,0.6,2.5,1
					c0.8,0.4,1.5,1,2.2,1.6c0.6,0.6,1.2,1.3,1.6,2c0.5,0.7,0.8,1.5,1.1,2.3c0.2,0.8,0.3,1.7,0.2,2.6c-0.1,0.8-0.3,1.6-0.6,2.2
					c-0.5,1.3-0.9,2.3-1.1,3.2c-0.2,0.8-0.1,1.6,0.1,2.1c0.2,0.5,0.4,0.8,0.6,1c0.2,0.2,0.3,0.3,0.3,0.3s0.1,0.1,0.4,0.3
					c0.3,0.1,0.7,0.3,1.4,0.5c1.3,0.3,3.5,0.3,6.1,0c1.3-0.1,2.8-0.3,4.3-0.4c1.5-0.1,3.2-0.3,4.9-0.2c0.9,0.1,1.8,0.2,2.7,0.5
					c0.8,0.4,1.7,0.6,2.5,1.1s1.6,0.8,2.3,1.4l1.1,0.8c0.4,0.3,0.7,0.6,1,0.9c2.8,2.4,4.9,5.4,6.4,8.3c1.5,3,2.5,6,3.1,8.5
					c0.6,2.6,0.9,4.8,1.1,6.3C-36.4,184.2-36.3,185-36.3,185z"/>
			</g>
		</g>
		<g id="XMLID_7830_">
			<g id="XMLID_7831_">
				<path id="XMLID_7832_" fill="#FFFFFF" d="M-62.2,249.6c0,0,0.8-0.4,2.2-1.1c0.3-0.2,0.7-0.4,1.2-0.6c0.4-0.2,0.9-0.5,1.3-0.8
					c0.9-0.6,2-1.1,3.1-1.9c4.5-2.9,10.4-7.1,15.4-12.3c5-5.1,9.3-10.9,11.6-15.7c0.5-1.2,1.1-2.3,1.5-3.3s0.7-1.9,1-2.6
					c0.3-0.7,0.4-1.3,0.5-1.8c0.1-0.4,0.2-0.7,0.2-0.7s0.1-0.3,0.2-0.7c0.1-0.2,0.1-0.4,0.2-0.7c0-0.1,0.1-0.3,0.1-0.5
					c0-0.2,0.1-0.3,0.1-0.5c0.1-0.7,0.3-1.6,0.5-2.7c0.2-1,0.3-2.2,0.4-3.5c0.1-0.6,0.1-1.3,0.1-2c0-0.7,0.1-1.4,0.1-2.2
					c0-0.7,0-1.5-0.1-2.3c0-0.8-0.1-1.6-0.2-2.4c-0.3-3.2-1.1-6.6-2.3-9.8c-1.2-3.2-2.8-6.3-4.5-9.1c-1.7-2.8-3.5-5.2-5.1-7.3
					c-1.6-2.1-3-3.8-4-4.9c-1-1.2-1.5-1.8-1.5-1.8s0.6,0.6,1.6,1.8c1,1.1,2.5,2.7,4.2,4.7s3.6,4.4,5.5,7.1s3.7,5.8,5.1,9
					c1.4,3.3,2.4,6.7,2.9,10.1c0.1,0.8,0.3,1.7,0.3,2.5c0.1,0.8,0.1,1.6,0.2,2.4s0,1.5,0,2.3c0,0.7,0,1.4,0,2.1
					c-0.1,1.4-0.1,2.6-0.3,3.7c-0.2,1.1-0.3,2.1-0.4,2.9c0,0.2-0.1,0.4-0.1,0.6c0,0.2-0.1,0.3-0.1,0.5c-0.1,0.3-0.1,0.6-0.2,0.8
					c-0.1,0.4-0.2,0.7-0.2,0.7s-0.1,0.3-0.2,0.7c-0.1,0.4-0.3,1.1-0.6,1.9c-0.3,0.8-0.7,1.7-1.1,2.8c-0.5,1-1.1,2.2-1.7,3.4
					c-2.7,4.9-7.3,10.7-12.7,15.6c-5.4,4.9-11.4,9-16.1,11.6c-1.2,0.7-2.3,1.2-3.2,1.7c-0.5,0.3-0.9,0.5-1.4,0.7
					c-0.4,0.2-0.8,0.4-1.2,0.5C-61.4,249.2-62.2,249.6-62.2,249.6z"/>
			</g>
		</g>
		<g id="XMLID_7827_">
			<g id="XMLID_7828_">
				<path id="XMLID_7829_" fill="#FFFFFF" d="M-180.4,248.8c0,0-0.1-0.2-0.2-0.5c-0.1-0.2-0.1-0.3-0.2-0.6c-0.1-0.2-0.3-0.4-0.4-0.7
					c-0.4-0.5-0.9-1.1-1.7-1.4c-0.8-0.3-1.8-0.4-2.8-0.3c-1.1,0.1-2.2,0.4-3.4,0.7c-1.2,0.3-2.5,0.6-3.9,0.7
					c-2.8,0.2-5.7-0.2-8.5-1.1c-2.8-0.9-5.5-2.3-7.7-4.1c-0.3-0.2-0.6-0.4-0.8-0.6c-0.3-0.2-0.5-0.5-0.7-0.7c-0.5-0.5-1-0.9-1.4-1.4
					c-0.8-1-1.7-1.8-2.4-2.7c-1.4-1.7-2.5-3.2-3.3-4.2s-1.2-1.6-1.3-1.6c0,0-0.5-0.6-1.2-1.6c-0.8-0.9-1.8-2.2-3.4-3.7
					c-1.5-1.4-3.3-3-5.4-4.4s-4.5-2.7-7.2-3.3c-2.6-0.6-5.4-0.4-7.9,0.2s-4.8,1.5-6.4,2.7c-1.7,1.2-2.8,2.5-3.3,3.6
					c-0.1,0.3-0.3,0.5-0.3,0.7c-0.1,0.2-0.1,0.4-0.2,0.6c-0.1,0.3-0.1,0.5-0.1,0.5s0-0.2,0.1-0.5c0-0.2,0.1-0.4,0.1-0.6
					c0.1-0.2,0.2-0.5,0.3-0.8c0.5-1.1,1.5-2.6,3.2-3.9c1.7-1.3,3.9-2.4,6.5-3.2c2.5-0.7,5.5-1.2,8.4-0.7s5.6,1.6,7.9,3
					c2.3,1.4,4.3,2.9,6,4.3c1.6,1.4,2.9,2.7,3.8,3.7c0.8,1,1.3,1.6,1.4,1.6c0,0,0.5,0.7,1.2,1.7c0.8,1.1,1.7,2.6,3,4.3
					c0.6,0.9,1.3,1.8,2.1,2.7c0.4,0.4,0.8,0.9,1.2,1.4c0.2,0.2,0.4,0.5,0.7,0.7c0.2,0.2,0.5,0.4,0.7,0.6c1.9,1.8,4.3,3.2,6.9,4.2
					s5.4,1.6,8,1.5c1.3,0,2.6-0.2,3.8-0.5c1.2-0.2,2.4-0.4,3.5-0.5c1.1,0,2.1,0.1,2.9,0.5c0.8,0.4,1.3,1,1.7,1.6
					c0.1,0.3,0.3,0.5,0.4,0.7s0.1,0.4,0.2,0.6C-180.4,248.6-180.4,248.8-180.4,248.8z"/>
			</g>
		</g>
		<g id="XMLID_7824_">
			<g id="XMLID_7825_">
				<path id="XMLID_7826_" fill="#FFFFFF" d="M-194.4,252.7c0,0-0.4,0-1,0.1c-0.6,0-1.5,0.2-2.6,0.2c-0.6,0-1.2,0-1.8,0
					c-0.6,0-1.3,0-2-0.1s-1.4-0.2-2.1-0.3c-0.7-0.2-1.4-0.4-2.2-0.5c-2.9-0.8-5.7-2.1-7.6-3.4c-1-0.6-1.7-1.2-2.3-1.5
					c-0.6-0.4-0.9-0.6-0.9-0.6s-0.3-0.3-0.8-0.7c-0.5-0.5-1.1-1.1-1.9-1.9c-1.5-1.6-3.4-3.7-5.3-5.8s-3.8-4.2-5.3-5.7
					c-0.8-0.7-1.4-1.3-1.9-1.7c-0.5-0.4-0.7-0.7-0.7-0.7s0.3,0.2,0.8,0.6s1.3,0.8,2.1,1.5c1.7,1.3,3.9,3.1,6,5
					c2.1,1.9,4.3,3.8,5.9,5.1c0.8,0.7,1.5,1.2,2,1.6s0.8,0.6,0.8,0.6s0.3,0.3,0.8,0.7c0.5,0.4,1.1,1.1,2,1.7c1.7,1.4,4.1,2.9,6.7,4
					c0.7,0.3,1.3,0.5,2,0.8c0.7,0.2,1.4,0.3,2,0.5c0.6,0.2,1.3,0.3,1.9,0.4c0.6,0.1,1.2,0.2,1.7,0.2c1.1,0.1,2,0.1,2.6,0.1
					C-194.8,252.7-194.4,252.7-194.4,252.7z"/>
			</g>
		</g>
		<g id="XMLID_7821_">
			<g id="XMLID_7822_">
				<path id="XMLID_7823_" fill="#FFFFFF" d="M-208.5,263c0,0-1.5-1-3.8-2.6s-5.3-3.7-8.4-5.7c-3.1-2-6.3-3.9-8.8-5.1
					c-1.2-0.6-2.3-1.1-3-1.4c-0.8-0.3-1.2-0.5-1.2-0.5s-0.4-0.2-1.1-0.6c-0.4-0.2-0.8-0.4-1.3-0.6c-0.5-0.2-1-0.5-1.7-0.7
					c-2.4-0.9-5.9-1.7-9.4-1.5c-3.5,0.1-7,1.1-9.5,2c-1.3,0.4-2.3,0.8-3,1.1c-0.7,0.3-1.1,0.5-1.1,0.5s0.4-0.2,1.1-0.6
					c0.7-0.4,1.7-0.9,2.9-1.4c2.5-1.1,5.9-2.5,9.6-3c3.7-0.6,7.5-0.1,10.2,0.6c0.7,0.2,1.3,0.4,1.9,0.6s1,0.4,1.4,0.5
					c0.8,0.3,1.2,0.5,1.2,0.5s0.5,0.2,1.2,0.6c0.8,0.4,1.8,1,3,1.8c2.5,1.5,5.5,3.7,8.4,6c2.9,2.3,5.7,4.7,7.9,6.5
					C-209.9,261.8-208.5,263-208.5,263z"/>
			</g>
		</g>
		<g id="XMLID_7818_">
			<g id="XMLID_7819_">
				<path id="XMLID_7820_" fill="#FFFFFF" d="M-218.7,267.3c0,0-0.3-0.1-0.7-0.2c-0.5-0.1-1.1-0.3-2-0.4c-1.6-0.2-3.9-0.3-6.1-0.1
					c-2.2,0.2-4.4,0.5-6,0.9c-0.8,0.2-1.5,0.3-2,0.5c-0.5,0.1-0.8,0.2-0.8,0.2s-0.3,0-0.8,0.1c-0.5,0.1-1.1,0.1-1.9,0.3
					c-1.6,0.3-3.7,0.7-5.7,1.4s-3.9,1.6-5.2,2.6c-0.6,0.5-1.1,0.9-1.5,1.3c-0.3,0.4-0.5,0.6-0.5,0.6s0.1-0.2,0.4-0.6
					c0.3-0.4,0.7-0.9,1.3-1.5c1.2-1.2,3-2.5,4.9-3.5c2-1.1,4.1-1.9,5.7-2.4c0.8-0.3,1.5-0.5,2-0.6c0.5-0.1,0.8-0.2,0.8-0.2
					s0.3,0,0.8-0.1s1.2-0.1,2.1-0.2c1.7-0.1,4-0.1,6.3,0.1s4.5,0.6,6.1,1.1c0.8,0.2,1.5,0.5,1.9,0.7
					C-219,267.2-218.7,267.3-218.7,267.3z"/>
			</g>
		</g>
		<g id="XMLID_7815_">
			<g id="XMLID_7816_">
				<path id="XMLID_7817_" fill="#FFFFFF" d="M-217.7,276.5c0,0-0.1,0-0.4-0.1c-0.2-0.1-0.6-0.2-1-0.3c-0.8-0.2-2-0.2-3.1-0.1
					c-1.1,0.1-2.2,0.4-3,0.6c-0.4,0.1-0.7,0.2-1,0.3c-0.2,0.1-0.4,0.1-0.4,0.1s-0.2,0-0.4,0c-0.2,0-0.6,0-1,0.1
					c-0.8,0.1-2,0.2-3.1,0.4c-2.2,0.4-4.4,1.1-4.4,1.1s1.9-1.3,4-2.5c1-0.6,2.1-1.1,3-1.4c0.4-0.2,0.8-0.3,1-0.4
					c0.3-0.1,0.4-0.1,0.4-0.2c0,0,0.2,0,0.5,0c0.3,0,0.7,0,1.2,0c1,0,2.2,0.1,3.4,0.3c1.2,0.3,2.4,0.7,3.2,1.1
					c0.4,0.2,0.7,0.5,0.9,0.6C-217.8,276.4-217.7,276.5-217.7,276.5z"/>
			</g>
		</g>
		<g id="XMLID_7812_">
			<g id="XMLID_7813_">
				<path id="XMLID_7814_" fill="#FFFFFF" d="M-211.2,278.7c0,0-1.2,0.1-2.9,0.3c-1.7,0.2-4.1,0.4-6.3,0.9c-2.3,0.5-4.4,1.2-6,1.9
					c-1.6,0.7-2.7,1.2-2.7,1.3c0,0-1.2,0.3-2.8,0.8c-1.7,0.5-3.8,1.1-6,1.9c-2.1,0.8-4.2,1.7-5.6,2.6c-0.4,0.2-0.7,0.4-1,0.6
					s-0.5,0.4-0.7,0.5c-0.4,0.3-0.6,0.5-0.6,0.5s0.2-0.2,0.5-0.6c0.2-0.2,0.4-0.4,0.6-0.7c0.2-0.2,0.5-0.5,0.9-0.8
					c1.3-1.1,3.2-2.4,5.3-3.5c2-1.1,4.1-2.1,5.7-2.8c1.6-0.7,2.6-1.2,2.7-1.2c0,0,0.3-0.1,0.8-0.2c0.5-0.1,1.2-0.4,2.1-0.6
					c1.8-0.6,4.2-0.9,6.6-1.1c2.4-0.2,4.8-0.1,6.5,0C-212.3,278.6-211.2,278.7-211.2,278.7z"/>
			</g>
		</g>
		<g id="XMLID_7809_">
			<g id="XMLID_7810_">
				<path id="XMLID_7811_" fill="#FFFFFF" d="M-214.4,294.4c0,0-0.3-0.1-0.9-0.2c-0.3-0.1-0.6-0.1-1-0.2c-0.4-0.1-0.8-0.1-1.3-0.2
					c-2-0.2-4.6-0.1-7.1,0.5s-4.9,1.6-6.7,2.4c-0.9,0.4-1.6,0.8-2.1,1.1s-0.8,0.5-0.8,0.5s-0.3,0.1-0.9,0.4c-0.5,0.2-1.3,0.5-2.1,1
					c-1.7,0.8-4,2-6.2,3.3c-2.2,1.3-4.4,2.7-6,3.7c-1.6,1.1-2.7,1.8-2.7,1.8s1-0.8,2.4-2.1c1.5-1.3,3.4-2.9,5.5-4.5
					c2-1.6,4.2-3.1,5.9-4.2c0.8-0.5,1.6-1,2.1-1.3c0.5-0.3,0.8-0.5,0.8-0.5s0.4-0.2,0.9-0.4c0.6-0.2,1.4-0.5,2.4-0.9
					c2-0.7,4.6-1.4,7.4-1.6c2.7-0.3,5.5-0.1,7.4,0.4c0.5,0.1,0.9,0.2,1.3,0.4c0.4,0.1,0.7,0.2,1,0.3
					C-214.7,294.2-214.4,294.4-214.4,294.4z"/>
			</g>
		</g>
		<g id="XMLID_7806_">
			<g id="XMLID_7807_">
				<path id="XMLID_7808_" fill="#FFFFFF" d="M-216.6,300.9c0,0-0.2,0-0.6,0.1c-0.4,0.1-1,0.2-1.6,0.4c-1.3,0.3-3,1.1-4.6,2
					c-1.6,0.9-3.1,1.9-4.2,2.7s-1.9,1.4-1.9,1.4s-0.2,0.1-0.6,0.3c-0.4,0.2-0.9,0.4-1.4,0.8c-1.2,0.6-2.7,1.6-4.3,2.5
					c-1.5,0.9-3.1,1.9-4.2,2.6c-1.1,0.7-1.9,1.2-1.9,1.2s0.7-0.6,1.6-1.6c1-0.9,2.3-2.2,3.6-3.4c1.3-1.2,2.7-2.4,3.8-3.3
					c0.5-0.5,1-0.8,1.3-1.1c0.3-0.3,0.5-0.4,0.5-0.4s0.2-0.1,0.6-0.3c0.4-0.2,0.9-0.5,1.6-0.8c1.3-0.6,3.1-1.4,4.9-2s3.7-1,5.1-1.1
					c0.7-0.1,1.3-0.1,1.7-0.1C-216.8,300.9-216.6,300.9-216.6,300.9z"/>
			</g>
		</g>
		<g id="XMLID_7803_">
			<g id="XMLID_7804_">
				<path id="XMLID_7805_" fill="#FFFFFF" d="M-217.7,310.6c0,0-1.1,0.9-2.9,2.3c-1.8,1.4-4.1,3.2-6.4,5c-2.3,1.8-4.6,3.7-6.3,5.1
					c-0.8,0.7-1.5,1.3-2,1.8c-0.5,0.4-0.8,0.7-0.8,0.7s-0.3,0.2-0.8,0.6c-0.5,0.4-1.2,0.9-2,1.6c-1.7,1.3-3.8,3.2-5.7,5.3
					c-1.9,2.1-3.5,4.4-4.5,6.3c-0.1,0.2-0.3,0.5-0.4,0.7s-0.2,0.4-0.3,0.6c-0.2,0.4-0.3,0.7-0.5,1c-0.3,0.6-0.4,0.9-0.4,0.9
					s0.1-0.3,0.3-0.9c0.1-0.3,0.2-0.7,0.3-1.1c0.1-0.2,0.1-0.4,0.2-0.7c0.1-0.2,0.2-0.5,0.3-0.7c0.8-2,2.2-4.6,3.8-7
					c1.7-2.4,3.6-4.6,5.2-6.2c0.8-0.8,1.4-1.4,1.9-1.9s0.8-0.7,0.8-0.7s0.3-0.3,0.9-0.6c0.6-0.4,1.3-0.9,2.3-1.6
					c1.9-1.3,4.4-2.9,6.9-4.4s5.1-3,7-4.2C-218.9,311.4-217.7,310.6-217.7,310.6z"/>
			</g>
		</g>
		<g id="XMLID_7800_">
			<g id="XMLID_7801_">
				<path id="XMLID_7802_" fill="#FFFFFF" d="M-226.9,326.8c0,0-0.2,0.1-0.6,0.3s-1,0.4-1.6,0.9c-1.3,0.8-2.7,2.2-4,3.8
					c-1.3,1.6-2.3,3.3-3,4.6c-0.4,0.7-0.7,1.2-0.9,1.6c-0.2,0.4-0.3,0.6-0.3,0.7c0,0-0.2,0.2-0.4,0.6c-0.3,0.4-0.6,0.9-1,1.5
					c-0.8,1.2-1.9,2.9-3,4.6c-2.1,3.4-4.1,6.8-4.1,6.8s1.4-3.7,2.8-7.5c0.7-1.9,1.5-3.7,2.1-5.1c0.3-0.7,0.6-1.3,0.8-1.7
					c0.2-0.4,0.3-0.7,0.3-0.7s0.2-0.2,0.5-0.6c0.3-0.4,0.7-0.9,1.2-1.5c1-1.2,2.4-2.9,4-4.3c1.6-1.4,3.3-2.6,4.8-3.2
					c0.7-0.4,1.3-0.5,1.8-0.6C-227.1,326.9-226.9,326.8-226.9,326.8z"/>
			</g>
		</g>
		<g id="XMLID_7797_">
			<g id="XMLID_7798_">
				<path id="XMLID_7799_" fill="#FFFFFF" d="M-233.4,349c0,0-0.3,0.7-0.7,1.7c-0.4,1-1.1,2.4-1.7,3.7c-0.6,1.3-1.2,2.7-1.6,3.7
					c-0.4,1-0.7,1.7-0.7,1.7s-0.1,0.2-0.3,0.4c-0.2,0.3-0.4,0.6-0.7,1.1c-0.6,0.9-1.2,2.1-1.8,3.4c-0.5,1.3-0.9,2.6-1.1,3.7
					c-0.1,0.5-0.1,1-0.1,1.3s0,0.5,0,0.5s0-0.2-0.1-0.5c0-0.3-0.2-0.7-0.2-1.3c-0.1-1.1-0.1-2.6,0.1-4c0.2-1.5,0.6-2.9,1-4
					c0.2-0.5,0.3-1,0.4-1.3c0.1-0.3,0.2-0.5,0.2-0.5s0.1-0.2,0.3-0.5c0.2-0.3,0.5-0.7,0.8-1.1c0.7-0.9,1.6-2.1,2.5-3.3
					c0.9-1.2,1.8-2.3,2.5-3.2C-233.8,349.6-233.4,349-233.4,349z"/>
			</g>
		</g>
		<g id="XMLID_7794_">
			<g id="XMLID_7795_">
				<path id="XMLID_7796_" fill="#FFFFFF" d="M-232.8,370.7c0,0-0.3,1-0.7,2.4c-0.2,0.7-0.4,1.5-0.7,2.4c-0.2,0.9-0.5,1.9-0.7,2.8
					c-0.1,0.5-0.2,1-0.3,1.4c-0.1,0.5-0.2,0.9-0.3,1.4c-0.2,0.9-0.3,1.8-0.5,2.5s-0.2,1.3-0.3,1.8c-0.1,0.4-0.1,0.7-0.1,0.7
					s-0.3,1-0.7,2.3c-0.4,1.4-1,3.3-1.5,5.1c-0.5,1.8-1,3.7-1.3,5.1c-0.1,0.7-0.2,1.3-0.2,1.7c0,0.4,0.2,0.6,0.2,0.6
					s-0.2-0.2-0.3-0.6s-0.1-1-0.1-1.8c0-1.5,0.2-3.4,0.4-5.3s0.4-3.8,0.6-5.3c0.2-1.5,0.3-2.5,0.3-2.5s0.1-0.3,0.2-0.7
					c0.1-0.4,0.3-1.1,0.6-1.8c0.3-0.7,0.6-1.5,0.9-2.4c0.2-0.4,0.3-0.9,0.5-1.4c0.2-0.5,0.4-0.9,0.6-1.4c0.4-0.9,0.8-1.8,1.2-2.7
					c0.4-0.8,0.8-1.6,1.1-2.3C-233.2,371.6-232.8,370.7-232.8,370.7z"/>
			</g>
		</g>
		<g id="XMLID_7791_">
			<g id="XMLID_7792_">
				<path id="XMLID_7793_" fill="#FFFFFF" d="M-14.7,164.5c0,0-0.2,0.1-0.6,0.3c-0.2,0.1-0.4,0.2-0.6,0.4c-0.2,0.2-0.5,0.4-0.8,0.7
					c-0.6,0.5-1.2,1.2-1.6,2.2c-0.2,0.5-0.3,1.1-0.3,1.7c0,0.6,0.1,1.2,0.3,1.9c0.8,2.5,2.9,5,5.1,7.5c1.1,1.2,2.4,2.5,3.6,3.9
					c0.3,0.3,0.6,0.7,0.9,1.1l0.8,1.1l0.8,1.2l0.6,1.2c1.7,3.3,2.5,7.1,2.8,10.5c0.2,1.7,0.3,3.4,0.4,4.9c0.1,0.8,0.1,1.6,0.1,2.3
					c0,0.8,0,1.5,0,2.2c-0.1,2.8-0.5,5.2-0.9,6.8c-0.4,1.6-0.7,2.6-0.7,2.7s-0.4,1-1,2.5c-0.7,1.5-1.7,3.6-3.2,5.9
					c-1.5,2.3-3.4,4.8-5.7,7.2c-1.1,1.2-2.4,2.4-3.7,3.6c-0.7,0.6-1.3,1.2-2,1.7c-0.7,0.6-1.4,1.1-2.1,1.7l-1,0.8l-1.1,0.8
					c-0.7,0.5-1.4,1-2.1,1.5s-1.5,0.9-2.2,1.4c-0.7,0.4-1.4,0.9-2.2,1.3c-3,1.6-6,2.3-8.5,3c-2.6,0.6-4.7,1.2-6.1,1.7
					c-1.4,0.5-2.2,0.8-2.2,0.8s0.8-0.3,2.2-1c1.4-0.5,3.5-1.2,6-2s5.4-1.7,8.2-3.3c0.7-0.4,1.4-0.9,2.1-1.4s1.4-0.9,2.1-1.5
					c0.7-0.5,1.4-1.1,2-1.6l1-0.8l1-0.9c0.7-0.6,1.3-1.2,2-1.7c0.6-0.6,1.2-1.2,1.9-1.8c1.2-1.2,2.4-2.4,3.4-3.6
					c2.1-2.5,3.9-4.9,5.1-7.2c1.3-2.2,2.1-4.2,2.7-5.6c0.5-1.4,0.8-2.3,0.8-2.3c0-0.1,0.3-0.9,0.8-2.4c0.4-1.5,0.9-3.7,1.1-6.3
					c0.1-0.7,0.1-1.3,0.1-2.1c0-0.7,0-1.5,0-2.2c0-1.6-0.1-3.2-0.2-4.9c-0.2-3.3-0.7-6.9-2.2-10.1l-0.5-1.2l-0.7-1.1l-0.7-1.1
					c-0.2-0.4-0.5-0.7-0.8-1c-1.1-1.4-2.3-2.7-3.3-4c-2.2-2.6-4.1-5.2-4.9-7.9c-0.2-0.7-0.2-1.3-0.2-2c0.1-0.6,0.2-1.2,0.4-1.7
					c0.5-1,1.2-1.7,1.8-2.2c0.3-0.3,0.6-0.5,0.9-0.6c0.3-0.2,0.5-0.3,0.7-0.4C-14.9,164.6-14.7,164.5-14.7,164.5z"/>
			</g>
		</g>
		<g id="XMLID_7788_">
			<g id="XMLID_7789_">
				<path id="XMLID_7790_" fill="#FFFFFF" d="M-1.7,189.4c0,0,0.1,0.2,0.4,0.4c0.2,0.3,0.6,0.7,1,1.3c0.8,1.1,2,2.7,3.3,4.7
					c2.6,4,5.6,9.7,7,16.1c0.7,3.2,0.9,6.5,0.5,9.6c-0.2,1.5-0.6,3-1,4.4c-0.5,1.4-1,2.6-1.7,3.7c-0.3,0.6-0.6,1.1-0.9,1.6
					s-0.7,0.9-1,1.3c-0.3,0.4-0.6,0.8-0.8,1.2c-0.3,0.3-0.6,0.6-0.8,0.9c-1,1.1-1.5,1.8-1.6,1.8c0,0-0.7,0.6-1.7,1.6
					c-1.1,0.9-2.7,2.2-4.7,3.5c-1,0.7-2.1,1.3-3.3,2c-1.2,0.6-2.4,1.4-3.8,2c-2.7,1.3-5.5,2.5-8.3,3.8c-5.6,2.6-11.4,4.9-15.8,6.3
					c-2.2,0.7-4.1,1.2-5.4,1.5c-1.3,0.3-2.1,0.5-2.1,0.5s0.7-0.2,2-0.6c1.3-0.3,3.1-1,5.3-1.8c4.3-1.6,9.9-4.3,15.3-7.2
					c2.7-1.4,5.5-2.9,8-4.3c1.3-0.7,2.4-1.5,3.5-2.1c1.1-0.8,2.1-1.4,3-2.1c1.8-1.4,3.2-2.7,4.2-3.6c0.9-1,1.5-1.5,1.5-1.6
					c0.1,0,0.6-0.6,1.6-1.6c0.2-0.3,0.5-0.5,0.8-0.8c0.3-0.3,0.5-0.7,0.8-1c0.3-0.4,0.6-0.8,1-1.2c0.3-0.4,0.6-0.9,0.9-1.4
					c0.6-1,1.2-2.1,1.7-3.3c0.5-1.2,0.9-2.5,1.1-4c0.5-2.8,0.5-6,0-9c-1-6.2-3.7-12-6-16.1c-1.2-2.1-2.3-3.7-3-4.9
					c-0.4-0.6-0.7-1-0.9-1.3C-1.6,189.5-1.7,189.4-1.7,189.4z"/>
			</g>
		</g>
		<g id="XMLID_7785_">
			<g id="XMLID_7786_">
				<path id="XMLID_7787_" fill="#FFFFFF" d="M-19,254.9c0,0,2.6-1.9,6.5-4.8c2-1.4,4.3-3,6.8-4.8s5.1-3.7,7.7-5.6
					c2.6-2,5.1-4,7.5-5.9c2.6-1.8,5-3.2,6.8-4.7c0.5-0.4,0.9-0.7,1.2-1.1c0.3-0.3,0.8-0.8,1.2-1.1c0.7-0.7,1.3-1.2,1.6-1.7
					c0.1-0.2,0.3-0.4,0.3-0.6c0-0.1,0.1-0.1,0.1-0.2c0-0.1,0-0.1,0-0.2c0-0.2,0-0.3,0-0.4c0,0,0-0.2,0-0.4c0-0.2-0.1-0.4-0.4-0.7
					c-0.2-0.2-0.4-0.4-0.8-0.7c-0.4-0.3-0.9-0.8-1.2-1.6l-0.1-0.3v-0.2v-0.1c0-0.1,0-0.3,0-0.4c0-0.3,0-0.6-0.1-0.9
					c0-0.3,0-0.6,0.1-1c0-0.3,0.1-0.7,0.2-1c0.3-1.4,0.9-2.6,1.6-3.8c0.7-1.2,1.5-2.4,2.2-3.6s1.2-2.5,1.3-3.9
					c0.1-1.4-0.3-2.8-1-4.1s-1.6-2.5-2.7-3.4c-1.1-0.9-2.5-1.6-3.8-2.1c-2.7-1.1-5.4-1.8-7.5-2.9c-2.2-1-3.7-2.4-4.5-3.5
					c-0.5-0.5-0.7-1-0.9-1.3c-0.2-0.3-0.3-0.5-0.3-0.5s0.1,0.2,0.3,0.5c0.2,0.3,0.5,0.8,0.9,1.3c0.9,1.1,2.4,2.3,4.6,3.1
					c2.1,0.9,4.8,1.5,7.6,2.5c1.4,0.5,2.9,1.1,4.2,2c1.3,0.9,2.4,2.3,3.3,3.7c0.8,1.4,1.4,3.1,1.4,4.9c0,1.7-0.6,3.3-1.3,4.7
					c-0.7,1.4-1.4,2.6-2,3.8c-0.6,1.2-1.1,2.3-1.2,3.3c-0.1,0.3-0.1,0.5-0.1,0.7c0,0.2,0,0.5,0,0.7c0,0.2,0.1,0.4,0.1,0.7
					c0,0.1,0,0.2,0,0.3v0.1l0,0l0,0c0,0.1,0.2,0.3,0.5,0.5s0.7,0.5,1,0.8s0.7,0.7,0.9,1c0.2,0.4,0.3,0.7,0.4,1
					c0.1,0.6,0.1,0.9,0.1,0.9s0,0.3-0.1,1c0,0.1-0.1,0.3-0.1,0.5c-0.1,0.2-0.1,0.3-0.2,0.5c-0.2,0.4-0.4,0.7-0.7,1.1
					c-0.6,0.7-1.3,1.3-2.1,2c-0.4,0.3-0.8,0.7-1.2,1c-0.5,0.4-0.9,0.8-1.5,1.2c-2.1,1.5-4.7,2.8-7.2,4.4c-2.5,1.7-5.1,3.6-7.8,5.5
					c-2.7,1.8-5.5,3.5-8,5.2c-2.6,1.6-5,3.1-7,4.4C-16.3,253.1-19,254.9-19,254.9z"/>
			</g>
		</g>
		<g id="XMLID_7782_">
			<g id="XMLID_7783_">
				<path id="XMLID_7784_" fill="#FFFFFF" d="M32.4,219.7c0,0-0.2,0-0.4,0.1c-0.3,0.1-0.7,0.1-1.2,0.4c-0.5,0.2-1.1,0.5-1.7,1
					s-1,1.2-1.4,2.1c-0.3,0.9-0.4,1.9-0.4,3s0.2,2.2,0.3,3.4c0.2,1.2,0.4,2.4,0.6,3.7c0.1,1.3,0.3,2.6,0.3,3.9
					c0.1,2.6-0.2,5.4-1.1,7.8c-0.3,0.6-0.5,1.2-0.7,1.7c-0.3,0.5-0.6,1.1-0.9,1.6s-0.7,0.9-1,1.4c-0.3,0.4-0.7,0.9-1,1.3
					c-1.4,1.5-2.9,2.6-4,3.2c-1.1,0.6-1.8,0.9-1.8,0.9s-0.7,0.3-1.9,0.6c-1.2,0.3-2.8,0.6-4.7,0.9c-1.9,0.2-4.1,0.4-6.4,0.6
					c-1.2,0.1-2.3,0.3-3.5,0.5c-1.2,0.2-2.4,0.5-3.6,0.7c-4.9,1.1-9.7,2.4-13.3,3.3c-1.8,0.4-3.4,0.7-4.4,0.9
					c-1.1,0.2-1.7,0.3-1.7,0.3s0.6-0.2,1.7-0.4s2.6-0.7,4.3-1.2c3.6-1.1,8.3-2.8,13.1-4.2c1.2-0.3,2.4-0.7,3.6-1
					c1.2-0.3,2.4-0.5,3.6-0.8c2.3-0.4,4.5-0.7,6.3-1.1c1.8-0.3,3.3-0.8,4.3-1.1c1-0.4,1.5-0.6,1.6-0.6c0,0,0.6-0.2,1.6-0.7
					c0.9-0.5,2.2-1.3,3.5-2.5c0.3-0.3,0.6-0.7,1-1c0.3-0.4,0.7-0.7,1-1.2c0.3-0.4,0.6-0.9,0.9-1.3c0.3-0.5,0.5-1,0.8-1.5
					c0.9-2.1,1.4-4.5,1.5-7c0.1-1.3,0-2.5-0.1-3.8c-0.1-1.2-0.2-2.5-0.3-3.7c-0.1-1.2-0.2-2.4-0.1-3.5s0.3-2.2,0.6-3.1
					c0.4-0.9,1-1.7,1.6-2.2s1.3-0.8,1.8-1c0.5-0.2,1-0.2,1.3-0.3C32.2,219.7,32.4,219.7,32.4,219.7z"/>
			</g>
		</g>
		<g id="XMLID_7779_">
			<g id="XMLID_7780_">
				<path id="XMLID_7781_" fill="#FFFFFF" d="M-5.5,263c0,0,2.2-0.1,5.5-0.2c3.3-0.2,7.7-0.5,12.1-1.1c2.2-0.3,4.3-0.8,6.3-1.3
					s3.8-1.1,5.3-1.8c1.5-0.6,2.7-1.2,3.5-1.7c0.9-0.4,1.3-0.8,1.3-0.8s0.1-0.1,0.4-0.2c0.2-0.1,0.5-0.3,0.9-0.6
					c0.7-0.5,1.7-1.3,2.5-2.5c0.9-1.2,1.6-2.8,2.1-4.7s0.7-4,0.8-6.1c0.1-2.2,0.2-4.3,0.2-6.3c0.1-2,0.3-3.9,0.6-5.5
					c0.3-1.6,0.7-2.9,1.1-3.8c0.2-0.4,0.4-0.8,0.5-1c0.1-0.2,0.2-0.3,0.2-0.3s0,0.1-0.1,0.4c-0.1,0.2-0.2,0.6-0.4,1
					c-0.3,0.9-0.6,2.2-0.8,3.8c-0.2,1.6-0.2,3.5-0.2,5.5c0.1,2,0.2,4.2,0.3,6.3c0.1,2.2,0,4.4-0.3,6.5s-1,4.1-2,5.6
					c-0.9,1.5-2.1,2.6-2.9,3.3c-0.4,0.3-0.8,0.6-1,0.8c-0.2,0.2-0.4,0.2-0.4,0.3c0,0-0.6,0.4-1.5,0.8c-0.9,0.4-2.3,1-3.9,1.5
					c-1.6,0.6-3.6,1-5.7,1.4c-2.1,0.4-4.3,0.7-6.6,0.8c-4.5,0.3-8.9,0.3-12.3,0.2C-3.3,263.1-5.5,263-5.5,263z"/>
			</g>
		</g>
		<g id="XMLID_7776_">
			<g id="XMLID_7777_">
				<path id="XMLID_7778_" fill="#FFFFFF" d="M36.7,279.8c0,0-0.4,0.1-1,0.4c-0.6,0.2-1.5,0.6-2.6,0.9c-1.1,0.4-2.4,0.8-3.8,1.1
					c-1.4,0.3-3,0.5-4.6,0.5s-3.2-0.3-4.7-0.7c-1.4-0.4-2.8-0.9-3.8-1.5c-1.1-0.5-2-1-2.6-1.3c-0.6-0.3-1-0.5-1-0.6
					c0,0-0.3-0.2-0.9-0.6c-0.3-0.2-0.6-0.4-0.9-0.6c-0.4-0.2-0.8-0.5-1.3-0.7c-1.9-1-4.6-1.8-7.5-1.9c-2.9-0.1-5.9,0.1-8.1,0.1
					c-1.1,0-2,0-2.7,0c-0.6,0-1,0-1,0s0.4,0,1-0.1c0.6,0,1.6-0.1,2.7-0.3c2.2-0.3,5.1-0.9,8.2-1.1c1.5-0.1,3.1-0.1,4.5,0.1
					c1.5,0.2,2.8,0.6,3.9,1c0.6,0.2,1.1,0.4,1.5,0.6s0.8,0.4,1.1,0.6c0.6,0.3,1,0.5,1,0.5s0.3,0.2,0.9,0.6c0.6,0.4,1.3,0.9,2.3,1.5
					c1,0.6,2.1,1.2,3.4,1.7s2.7,0.9,4.1,1.1c1.5,0.2,3,0.2,4.4,0c1.4-0.1,2.7-0.4,3.8-0.6c1.1-0.3,2-0.5,2.7-0.6
					C36.3,279.8,36.7,279.8,36.7,279.8z"/>
			</g>
		</g>
		<g id="XMLID_7773_">
			<g id="XMLID_7774_">
				<path id="XMLID_7775_" fill="#FFFFFF" d="M25.9,325.8c0,0-0.1-0.4-0.3-1.2c-0.2-0.7-0.4-1.8-0.9-3.1c-0.7-2.5-2.1-5.8-3.6-8.9
					c-1.6-3.1-3.6-5.9-5.3-8c-0.9-0.9-1.6-1.7-2.1-2.3c-0.6-0.5-0.9-0.8-0.9-0.9c0,0-0.3-0.4-0.8-0.9c-0.3-0.3-0.6-0.6-0.9-1
					c-0.4-0.4-0.8-0.8-1.2-1.2c-0.5-0.4-1-0.9-1.5-1.4s-1.1-1-1.7-1.5s-1.2-1.1-1.9-1.6c-0.7-0.5-1.3-1-2-1.5
					c-1.3-1.1-2.8-1.9-4.2-2.7c-1.4-0.8-2.7-1.7-3.7-2.5c-1-0.9-1.6-1.7-2-2.4c-0.2-0.3-0.3-0.6-0.4-0.8s-0.1-0.3-0.1-0.3
					s0,0.1,0.1,0.3s0.2,0.4,0.4,0.7c0.4,0.6,1.1,1.4,2.2,2.1c1,0.7,2.3,1.4,3.8,2.1c1.4,0.7,3.1,1.4,4.5,2.3
					c0.7,0.5,1.5,0.9,2.2,1.3c0.7,0.4,1.4,1,2.1,1.4c0.7,0.5,1.3,0.9,1.9,1.4s1.2,0.9,1.7,1.3s1,0.8,1.4,1.1c0.4,0.4,0.8,0.7,1,1
					c0.6,0.5,0.9,0.8,1,0.9c0,0,0.4,0.4,0.9,1c0.5,0.7,1.2,1.6,2.1,2.7c1.5,2.3,3.4,5.5,4.7,8.8c1.3,3.4,2.3,6.8,2.8,9.4
					c0.3,1.3,0.4,2.4,0.6,3.2C25.8,325.3,25.9,325.8,25.9,325.8z"/>
			</g>
		</g>
		<g id="XMLID_7770_">
			<g id="XMLID_7771_">
				<path id="XMLID_7772_" fill="#FFFFFF" d="M15.1,327.9c0,0-0.6-0.8-1.4-1.9c-0.8-1.2-2-2.6-3.2-4.1c-0.6-0.7-1.3-1.4-1.8-2.1
					c-0.3-0.3-0.6-0.7-0.8-1c-0.3-0.3-0.6-0.6-0.8-0.8c-1-1-1.7-1.7-1.7-1.7s-0.5-0.8-1.4-1.8s-2.2-2.3-3.5-3.7
					c-1.3-1.3-2.6-2.7-3.5-3.8c-0.2-0.3-0.4-0.5-0.6-0.8c-0.1-0.2-0.3-0.5-0.4-0.6c-0.2-0.3-0.3-0.5-0.3-0.5s0.2,0.2,0.4,0.5
					c0.1,0.1,0.3,0.3,0.5,0.5c0.2,0.2,0.4,0.4,0.7,0.6c1,0.9,2.5,2,4.1,3c1.5,1,3.1,2.1,4.2,3c0.6,0.5,1,0.9,1.4,1.2
					c0.3,0.3,0.5,0.5,0.5,0.5s0.6,0.8,1.4,2.1c0.2,0.3,0.4,0.6,0.7,1c0.2,0.4,0.4,0.7,0.7,1.1c0.5,0.8,1,1.6,1.5,2.4
					c0.9,1.7,1.8,3.4,2.4,4.7C14.7,327.1,15.1,327.9,15.1,327.9z"/>
			</g>
		</g>
		<g id="XMLID_7767_">
			<g id="XMLID_7768_">
				<path id="XMLID_7769_" fill="#FFFFFF" d="M19.9,371.2c0,0,0-0.5,0-1.3c0-0.4,0-0.9,0-1.5c0-0.6,0-1.2-0.1-1.9
					c-0.2-2.8-0.8-6.4-1.8-9.9s-2.4-6.9-3.6-9.4c-0.6-1.3-1.1-2.3-1.5-3c-0.4-0.7-0.6-1.2-0.6-1.2s-0.2-0.5-0.5-1.2
					c-0.3-0.7-0.7-1.8-1.3-3c-1.1-2.5-2.8-5.6-4.5-8.8c-1.7-3.1-3.5-6.3-4.9-8.6c-1.3-2.3-2.2-3.9-2.2-3.9s1,1.5,2.6,3.7
					c1.6,2.2,3.6,5.1,5.7,8.1c2,3,4,6,5.4,8.4c0.7,1.2,1.3,2.2,1.7,2.9c0.4,0.7,0.6,1.1,0.6,1.2c0,0,0.2,0.5,0.5,1.3
					c0.3,0.8,0.8,1.9,1.2,3.2c1,2.7,2,6.3,2.7,10s0.9,7.4,0.9,10.2c0,0.7,0,1.3-0.1,1.9c0,0.6-0.1,1.1-0.1,1.5
					C20,370.8,19.9,371.2,19.9,371.2z"/>
			</g>
		</g>
		<g id="XMLID_7764_">
			<g id="XMLID_7765_">
				<path id="XMLID_7766_" fill="#FFFFFF" d="M16.2,392.9c0,0,0-0.5-0.1-1.3c-0.1-0.9-0.1-2.1-0.3-3.5c-0.2-2.9-0.7-6.8-1.3-10.6
					c-0.6-3.9-1.4-7.7-2.1-10.5c-0.3-1.4-0.7-2.6-0.9-3.5c-0.2-0.8-0.4-1.3-0.4-1.4c0,0-0.1-0.5-0.3-1.3c-0.2-0.8-0.4-2-0.7-3.4
					c-0.6-2.8-1.6-6.4-2.7-10c-1.2-3.6-2.6-7.1-3.8-9.7c-0.6-1.3-1.2-2.3-1.5-3.1c-0.4-0.7-0.6-1.2-0.6-1.2s0.3,0.4,0.7,1.1
					c0.4,0.7,1.1,1.7,1.8,2.9c1.5,2.4,3.2,5.9,4.7,9.4s2.8,7.1,3.7,9.9c0.5,1.4,0.8,2.6,1,3.4c0.2,0.8,0.4,1.3,0.4,1.4
					c0,0,0.1,0.5,0.3,1.4c0.1,0.9,0.4,2.1,0.6,3.6c0.4,3,0.9,6.9,1.2,10.8c0.3,3.9,0.4,7.8,0.3,10.8c0,1.5-0.1,2.7-0.1,3.5
					C16.2,392.4,16.2,392.9,16.2,392.9z"/>
			</g>
		</g>
		<g id="XMLID_7761_">
			<g id="XMLID_7762_">
				<path id="XMLID_7763_" fill="#FFFFFF" d="M38.3,315.5c0,0-0.2-0.2-0.6-0.5s-0.9-0.7-1.5-1.2c-1.2-1.1-2.6-2.8-3.8-4.6
					c-1.2-1.8-2.3-3.7-3.2-5.1c-0.4-0.7-0.8-1.3-1.1-1.6c-0.3-0.4-0.4-0.6-0.4-0.6s-0.1-0.3-0.3-0.7c-0.2-0.4-0.4-0.9-0.9-1.4
					c-0.8-1.2-2.3-2.6-3.9-4c-1.5-1.4-3.1-2.9-3.9-4.3c-0.2-0.3-0.4-0.7-0.5-0.9c-0.1-0.3-0.2-0.6-0.3-0.8c-0.1-0.4-0.2-0.7-0.2-0.7
					s0.1,0.2,0.3,0.7c0.1,0.2,0.3,0.4,0.4,0.7c0.2,0.2,0.4,0.5,0.7,0.8c1.1,1.1,2.7,2.3,4.5,3.5c1.7,1.2,3.5,2.3,4.8,3.6
					c0.6,0.6,1.1,1.2,1.4,1.6c0.3,0.4,0.4,0.6,0.4,0.7c0,0,0.1,0.3,0.4,0.7c0.2,0.4,0.5,1.1,0.8,1.9c0.7,1.5,1.4,3.5,2.3,5.5
					c0.8,2,2,3.7,2.9,5c0.5,0.6,1,1.1,1.3,1.5C38.2,315.3,38.3,315.5,38.3,315.5z"/>
			</g>
		</g>
		<g id="XMLID_7758_">
			<g id="XMLID_7759_">
				<path id="XMLID_7760_" fill="#FFFFFF" d="M31.8,351.7c0,0-0.2-0.1-0.5-0.3c-0.3-0.2-0.8-0.4-1.3-0.8c-1.1-0.7-2.4-1.9-3.6-3.3
					c-1.2-1.3-2.2-2.8-3-3.9c-0.7-1.1-1.2-1.9-1.3-1.9c0,0-0.3-0.8-0.8-2c-0.5-1.2-1.1-2.7-1.8-4.3c-0.7-1.5-1.5-3-2.2-4
					c-0.3-0.5-0.7-0.9-0.9-1.2c-0.2-0.3-0.3-0.5-0.3-0.5s0.2,0.1,0.4,0.4c0.3,0.3,0.7,0.6,1.1,1c0.9,0.9,2,2.2,3,3.6
					c1,1.4,2,2.8,2.7,3.9c0.7,1.1,1.2,1.8,1.2,1.8s0.3,0.8,0.8,2s1.2,2.7,2.1,4.2s1.9,2.8,2.8,3.8c0.4,0.5,0.9,0.8,1.1,1.1
					C31.7,351.6,31.8,351.7,31.8,351.7z"/>
			</g>
		</g>
		<g id="XMLID_7755_">
			<g id="XMLID_7756_">
				<path id="XMLID_7757_" fill="#FFFFFF" d="M-245.8,311.7c0,0-0.5,0.5-1.3,1.3c-0.8,0.8-1.8,1.8-2.8,2.8s-1.9,2.1-2.5,3
					c-0.3,0.4-0.6,0.8-0.7,1c-0.2,0.2-0.3,0.4-0.3,0.4s-0.1,0.1-0.3,0.3c-0.2,0.2-0.5,0.5-0.9,0.9c-0.7,0.7-1.5,1.8-2.2,2.9
					c-0.7,1.2-1,2.5-1.2,3.5c-0.1,0.5-0.1,0.9-0.2,1.2c0,0.3-0.1,0.5-0.1,0.5s0-0.2-0.1-0.5c0-0.3-0.1-0.7-0.2-1.3
					c-0.1-1.1,0-2.5,0.4-4c0.4-1.4,1-2.8,1.5-3.8c0.3-0.5,0.5-0.9,0.7-1.2c0.2-0.3,0.3-0.5,0.3-0.5s0.2-0.2,0.4-0.4
					c0.3-0.2,0.6-0.6,1.1-0.9c0.9-0.7,2.1-1.6,3.3-2.4c1.2-0.8,2.5-1.5,3.4-2.1C-246.4,312.1-245.8,311.7-245.8,311.7z"/>
			</g>
		</g>
		<g id="XMLID_7752_">
			<g id="XMLID_7753_">
				<path id="XMLID_7754_" fill="#FFFFFF" d="M-247.4,280.3c0,0-0.5,0.4-1.1,1c-0.2,0.1-0.3,0.3-0.5,0.5c-0.2,0.2-0.4,0.4-0.6,0.6
					c-0.4,0.4-0.8,0.8-1.2,1.2c-0.8,0.9-1.6,1.8-2.1,2.5c-0.3,0.3-0.5,0.6-0.7,0.8c-0.2,0.2-0.2,0.3-0.3,0.3c0,0-0.5,0.4-1.2,0.9
					c-0.7,0.5-1.6,1.3-2.5,2c-0.9,0.8-1.7,1.5-2.3,2.2c-0.6,0.6-1,1-1,1s0.3-0.5,0.7-1.3c0.4-0.8,1-1.8,1.6-2.8c0.7-1,1.3-2,1.8-2.7
					s0.9-1.2,0.9-1.2s0.1-0.1,0.4-0.3c0.2-0.2,0.5-0.4,0.9-0.7c0.7-0.6,1.8-1.2,2.8-1.8c0.5-0.3,1.1-0.6,1.6-0.9
					c0.3-0.1,0.5-0.3,0.7-0.4c0.2-0.1,0.5-0.2,0.7-0.3C-248,280.5-247.4,280.3-247.4,280.3z"/>
			</g>
		</g>
		<g id="XMLID_7749_">
			<g id="XMLID_7750_">
				<path id="XMLID_7751_" fill="#FFFFFF" d="M-242,259.2c0,0-0.2-0.1-0.5-0.2c-0.3-0.1-0.7-0.3-1.3-0.5c-1.1-0.3-2.5-0.6-4-0.7
					s-2.9,0.1-4,0.2c-0.5,0.1-1,0.2-1.3,0.2c-0.3,0.1-0.5,0.1-0.5,0.1s-0.2,0-0.5,0c-0.3,0-0.7,0-1.3,0.1c-1,0.1-2.4,0.3-3.7,0.9
					c-1.3,0.5-2.5,1.3-3.2,2.1c-0.4,0.4-0.6,0.8-0.8,1c-0.2,0.3-0.3,0.4-0.3,0.4s0.1-0.2,0.1-0.5c0.1-0.3,0.3-0.7,0.5-1.2
					c0.5-1,1.6-2.2,2.8-3.1c1.3-0.9,2.7-1.6,3.8-1.9c0.6-0.2,1-0.3,1.4-0.4c0.3-0.1,0.5-0.1,0.6-0.1c0,0,0.2,0,0.6,0
					c0.4,0,0.9,0,1.5,0.1c1.2,0.1,2.8,0.3,4.3,0.7s2.9,1,3.9,1.6c0.5,0.3,0.9,0.6,1.1,0.8C-242.2,259.1-242,259.2-242,259.2z"/>
			</g>
		</g>
		<g id="XMLID_7746_">
			<g id="XMLID_7747_">
				<path id="XMLID_7748_" fill="#FFFFFF" d="M-230.1,245.1c0,0-0.1-0.2-0.4-0.6c-0.2-0.4-0.6-0.9-1.1-1.4c-1-1.1-2.5-2.3-4.2-3.3
					c-1.6-1-3.4-1.8-4.8-2.3c-0.7-0.3-1.3-0.5-1.7-0.6c-0.4-0.2-0.6-0.2-0.7-0.2c0,0-0.2-0.1-0.6-0.3c-0.4-0.2-0.9-0.5-1.5-0.8
					c-1.3-0.6-3-1.4-4.8-2c-1.8-0.6-3.6-1.1-5-1.3c-0.7-0.1-1.3-0.2-1.7-0.2s-0.7-0.1-0.7-0.1s0.2,0,0.7-0.1c0.4,0,1-0.1,1.7-0.1
					c1.5-0.1,3.4,0.1,5.3,0.4c1.9,0.3,3.9,0.7,5.3,1.1c0.7,0.2,1.3,0.4,1.7,0.5c0.4,0.1,0.7,0.2,0.7,0.2s0.3,0.1,0.7,0.4
					c0.4,0.2,1,0.6,1.6,0.9c1.3,0.8,3,1.9,4.5,3.3c1.5,1.3,2.9,2.8,3.7,4.1c0.4,0.6,0.7,1.2,0.9,1.6
					C-230.2,244.9-230.1,245.1-230.1,245.1z"/>
			</g>
		</g>
		<g id="XMLID_7743_">
			<g id="XMLID_7744_">
				<path id="XMLID_7745_" fill="#FFFFFF" d="M44.8,251.6c0,0-0.3-0.1-0.8-0.2c-0.5-0.1-1.3-0.3-2.2-0.2c-0.4,0-0.9,0.2-1.3,0.5
					s-0.6,0.7-0.7,1.3c-0.3,1-0.2,2.3-0.1,3.5c0.2,2.5,0.7,5,0.7,7.1c0,1-0.1,2-0.3,2.7c-0.1,0.4-0.2,0.6-0.2,0.7
					c-0.1,0.2-0.1,0.3-0.1,0.3s-0.2,0.3-0.5,0.9c-0.3,0.5-0.8,1.2-1.5,2c-1.4,1.6-3.8,3-6.3,3.6c-2.5,0.7-5,0.7-6.9,0.7
					s-3.1-0.1-3.1-0.1s1.2-0.1,3.1-0.3c1.8-0.2,4.2-0.7,6.4-1.6c2.2-0.9,4-2.4,4.9-3.8c0.5-0.7,0.8-1.3,1-1.8s0.3-0.7,0.3-0.8
					c0,0,0-0.1,0.1-0.2s0.2-0.3,0.2-0.5c0.2-0.4,0.3-1.1,0.5-1.9c0.2-1.8,0.1-4.3,0.2-6.9c0.1-1.3,0.2-2.6,0.7-3.8
					c0.3-0.6,0.7-1.2,1.2-1.5s1.1-0.5,1.6-0.4c1,0,1.8,0.3,2.3,0.5C44.5,251.5,44.8,251.6,44.8,251.6z"/>
			</g>
		</g>
		<g id="XMLID_7740_">
			<g id="XMLID_7741_">
				<path id="XMLID_7742_" fill="#FFFFFF" d="M-53.3,211c0,0-0.2,0.4-0.5,1.1s-0.8,1.7-1.3,2.9c-0.3,0.6-0.7,1.2-1,1.9
					c-0.4,0.7-0.8,1.4-1.3,2c-0.5,0.7-1,1.4-1.6,2c-0.3,0.3-0.6,0.7-0.9,1l-1,0.9c-2.6,2.5-5.7,4.5-8,5.9c-1.1,0.7-2.1,1.3-2.7,1.7
					c-0.6,0.4-1,0.7-1,0.7s-0.4,0.2-1.1,0.6c-0.3,0.2-0.7,0.4-1.1,0.7c-0.2,0.1-0.4,0.3-0.7,0.4c-0.2,0.2-0.5,0.3-0.7,0.5
					c-1,0.7-2.1,1.7-3.2,2.7c-1.1,1.1-2.1,2.4-3.1,3.8c-0.9,1.4-1.6,2.9-2,4.4s-0.5,3-0.7,4.3c-0.2,1.3-0.3,2.3-0.5,3.1
					c-0.2,0.7-0.3,1.1-0.3,1.1s0.1-0.4,0.2-1.2c0.1-0.7,0.1-1.8,0.2-3.1c0.1-1.3,0-2.8,0.3-4.4c0.2-1.6,0.9-3.4,1.7-4.9
					c0.8-1.6,1.8-3.1,2.9-4.4c1.1-1.3,2.2-2.4,3.2-3.3c0.3-0.2,0.5-0.4,0.7-0.6s0.5-0.4,0.7-0.5c0.4-0.3,0.8-0.6,1.2-0.9
					c0.7-0.4,1-0.7,1.1-0.7c0,0,0.4-0.2,1.2-0.6c0.7-0.4,1.7-0.9,2.9-1.4c2.4-1.2,5.5-2.7,8.2-4.9l1-0.8c0.3-0.3,0.6-0.6,0.9-0.9
					c0.6-0.6,1.2-1.2,1.7-1.8c0.5-0.6,1-1.3,1.5-1.8c0.4-0.6,0.8-1.2,1.2-1.8c0.7-1.1,1.3-2.1,1.6-2.7
					C-53.5,211.4-53.3,211-53.3,211z"/>
			</g>
		</g>
	</g>
</g>
</svg>
