<?xml version="1.0" encoding="utf-8"?>
<!-- Generator: Adobe Illustrator 19.0.0, SVG Export Plug-In . SVG Version: 6.00 Build 0)  -->
<svg version="1.1" id="Layer_1" xmlns="http://www.w3.org/2000/svg" xmlns:xlink="http://www.w3.org/1999/xlink" x="0px" y="0px"
	 viewBox="0 0 374.3 328.4" style="enable-background:new 0 0 374.3 328.4;" xml:space="preserve">
<style type="text/css">
	.st0{fill:#EF7B05;}
	.st1{fill:#FFFFFF;}
</style>
<g id="XMLID_7538_">
	<g id="XMLID_7732_">
		<path id="XMLID_7733_" class="st0" d="M353.3,127.5c-4.2-5.3-12-7.6-15.5-13.2c-4.2-6.7,2.1-14.3-0.8-20.7
			c-2.2-4.8-7.3-3.7-11.1-6c-3.2-2-6.7-6.4-8.1-9.8c-1.3-3.1-1.5-6.5-2.6-9.8c-2.7-7.9-7.8-15.4-15.9-18.2
			c14.7-1.2,22.8,11.6,20.4,25c1.3-3.1,2.6-6.5,3.4-9.8c5-20.7-20.1-31.2-37.2-31c-9.1,0.1-22.4,8.8-30.5,2.8
			c-5.9-4.4-7.6-12.3-15.9-14.7c-6.7-1.9-12.3,2-17.9,3.8C218.2,16.2,213,6,201,9.8c-9.7,3.1-13,6.7-23.9,5.6
			c-9.9-1-20.1-2.4-30.1-1.3c-4.5,0.5-10,1.1-13.7,4.2c-3.6,3-3.9,8.4-8.2,10.8c-8.6,4.8-22-7.2-33.1-2.1c-4.9,2.2-9.7,3.2-13.7,7.2
			c-3.8,3.9-6.4,9.1-8.2,14.2c5-4.3,7.8-8.7,15.2-8.1c6.4,0.5,10,4.3,14.3,8.7c-4.6,1.5-10.3,0-15.1,0c-2.3,0-4.7,0.2-7,0.4
			c-8.1,0.7-3.9,8.2-7.6,13c-2.7,3.5-5.4,1.7-9.1,3.3c-11.4,5-3.1,17.3-10.8,24.7c-4.1,3.9-7.5,5.4-5.6,12.3
			c1.2,4.6,7,12.6,11.6,14.4c-6.8-2.7-12.9-4.7-16.2-12c-3.1-6.6-0.4-11,0.7-17.3c-6.1,0.7-9.3,6.8-12.4,11.3
			c-4.1,5.9-7.8,8.3-7.5,16.2c0.4,9.8,1.8,17.7-4.8,25.6c-4.8,5.8-10.5,7.3-9.3,16.2c1.2,8.4,7,14.7,6.7,23.7
			c-0.3,7.5-6.2,13.4-1.5,19.8c4,5.5,12.7,7.3,16.5,14.2c6.5,11.8-2.9,31.6,9.7,40.4c7.9,5.5,11.3,3.5,13.2,13.2
			c1.2,6.4,1.6,12.1,3.9,18.1c2.4,6.1,5.3,11.1,6.8,17.3c1.4,5.7,0.5,13.7,4.1,18.2c0,0,0.1,0,0.1,0c0.8-0.5,3.3-10.9,3.4-12.1
			c1.1-7,2.3-14.1,1.6-21.2c-1.2-12.4-2-26.2-3.3-38.7c-2.7-24.9-6-57.5,3.3-80.8c1.5-3.7,4.9-13.5,8.4-15.5c3.4-2,8.3-1.4,12.1-1.5
			c2-0.1,3.9-0.3,5.9-0.6c2.7,12,16.8,22.2,28.8,19.2c6.9-1.7,12.4-7.7,17.1-12.6c7.1-7.4,8.2-6.1,17.5-8c7.9-1.6,6.8-7.3,14.8-8.2
			c7.9-0.9,14.7,3.6,22.2-0.2c7.8-3.9,9.7-12.4,15-17.9c6.6-7,12.9-1.5,21.9,0.2c7.5,1.4,14-2,20.8-1.7c7.6,0.3,11.5,7,15.1,13
			c9.3,15.8,17.7,29.4,32.7,39.6c4.5,3.1,4.3,1,5.8,6.6c0.8,2.9,0,7.5-0.6,10.1c-0.9,3.5-4.9,7-5.1,10.4c-0.3,5.1,2.3,4.2,4.1,8.2
			c3.5,7.8,2,14.6,0.1,22.7c-2.6,11-0.3,17.3,0.6,28c0.8,9.1-2.5,17-3.3,25.7c-0.7,8.3-0.4,17.7,0.2,25.9c3.4-6.8,2.4-16.4,3.9-23.9
			c1.4-7,3.6-13.6,5.8-20.4c1.9-5.9,3.9-12.4,8.9-16.7c4.4-3.8,11.3-4,15.6-8.2c14.9-14.4-7.3-29.4-0.4-43.3
			c3.1-6.3,11.2-9.7,15.3-15.9c4-6.1,5.6-12.6,6-19.8C360.7,152,361.2,137.5,353.3,127.5z M106.9,160.5c-2.7-2.4-4.6-5.9-5.8-9.6
			c2.2-0.5,4.4-1,6.6-1.5c5.3-1.1,12-3.5,16-7.4c-1.7,5.4-0.2,15.8,2.8,20.4C121.6,167.6,111.3,164.5,106.9,160.5z M137.9,150.8
			c-2.3,2.7-5.4,6.3-7.5,6.8c-1.6-3.9-2.8-8.9-1.2-13c4.3,2.4,6.6,3.3,11.4,3.3C140.3,147.9,139.2,149.2,137.9,150.8z"/>
	</g>
	<g id="XMLID_7539_">
		<g id="XMLID_7729_">
			<g id="XMLID_7730_">
				<path id="XMLID_7731_" class="st1" d="M119.3,94.2c0,0,0-0.3,0-0.7c0-0.5,0.1-1.2,0.2-2c0.4-1.7,1.3-4.2,3.4-6.5
					c2-2.3,5-4.5,8.7-5.7c3.7-1.2,7.9-1.4,12-1c4.1,0.4,8.1,1.3,11.8,2.1c3.7,0.9,7.2,1.7,10.2,2.3c6,1.4,10,2.3,10.1,2.3
					c0.5,0.2,60.9,17,60.9,17s-61.1-14-61.6-14.1c-0.1,0-4.1-1.1-10-2.8c-3-0.8-6.4-1.8-10.1-2.8c-3.7-1-7.6-2.1-11.5-2.6
					c-3.9-0.6-8-0.5-11.6,0.5c-3.6,1-6.6,3-8.6,5.1c-2.1,2.2-3.1,4.5-3.6,6.2c-0.2,0.9-0.3,1.5-0.3,2
					C119.3,93.9,119.3,94.2,119.3,94.2z"/>
			</g>
		</g>
		<g id="XMLID_7726_">
			<g id="XMLID_7727_">
				<path id="XMLID_7728_" class="st1" d="M126.2,94c0,0,0.2-0.1,0.4-0.4c0.3-0.3,0.7-0.6,1.3-1c1.2-0.7,3.2-1.5,5.7-1.6
					c2.5-0.2,5.4,0.3,8.2,1.6c2.8,1.3,5.4,3.5,7.7,6c2.2,2.5,4.1,5.2,5.9,7.7c1.7,2.5,3.3,4.9,4.8,6.8c1.5,1.9,2.8,3.3,3.8,4.3
					c1,0.9,1.7,1.4,1.7,1.5c0,0.1,0.6,0.5,1.7,1.4c0.5,0.4,1.2,0.8,2,1.3c0.4,0.3,0.8,0.5,1.3,0.7c0.5,0.2,1,0.4,1.5,0.7
					c4.2,1.7,10.5,2.4,16.6,1.2c6.1-1.1,11.9-3.7,16.1-5.8c2.1-1,3.9-2,5.1-2.6c1.2-0.6,1.9-1,1.9-1s-0.7,0.4-1.8,1.1
					c-1.2,0.7-2.9,1.7-4.9,2.9c-4.1,2.3-9.8,5.3-16,6.8c-6.2,1.6-13,1.3-17.7-0.3c-0.6-0.2-1.2-0.4-1.7-0.6c-0.5-0.2-1-0.4-1.5-0.7
					c-0.9-0.5-1.7-0.9-2.4-1.3c-1.2-0.9-2-1.4-2-1.4c0,0-0.7-0.6-1.8-1.7c-1-1.1-2.5-2.7-3.9-4.8c-2.9-4.1-5.8-10-9.8-15
					c-2-2.5-4.4-4.7-7-6.1c-2.6-1.4-5.4-2-7.8-2c-2.4,0-4.4,0.6-5.6,1.3c-0.6,0.3-1.1,0.6-1.4,0.9C126.4,93.8,126.2,94,126.2,94z"/>
			</g>
		</g>
		<g id="XMLID_7723_">
			<g id="XMLID_7724_">
				<path id="XMLID_7725_" class="st1" d="M129.8,89.8c0,0,0.1-0.1,0.4-0.3c0.2-0.2,0.6-0.6,1-0.9c0.9-0.7,2.4-1.7,4.3-2.4
					c1.9-0.7,4.3-1.2,6.9-1.3c2.6-0.1,5.3,0.3,8,1c5.3,1.5,10.2,4.2,13.8,6.1c1.8,1,3.3,1.8,4.4,2.3c1.1,0.5,1.7,0.9,1.7,0.9
					c0,0,0.6,0.3,1.7,0.9c1,0.5,2.4,1.4,4.2,2.2c3.5,1.8,8.4,3.6,13.4,5.1c5,1.4,10.2,2.3,14.1,2.7c1,0.1,1.9,0.2,2.7,0.2
					c0.8,0,1.5,0.1,2.1,0.1c1.1,0.1,1.8,0.1,1.8,0.1s-0.7,0-1.8,0c-0.6,0-1.3,0-2.1,0c-0.8,0-1.7,0-2.7-0.1
					c-3.9-0.1-9.2-0.7-14.4-1.8c-5.2-1.2-10.3-2.7-14-4.2c-1.9-0.7-3.4-1.5-4.5-1.9c-1.1-0.5-1.7-0.8-1.8-0.8c0,0-0.7-0.4-1.7-1
					c-1.1-0.6-2.5-1.5-4.3-2.6c-3.5-2.2-8-5.1-13-6.9c-2.5-0.9-5.1-1.4-7.6-1.5c-2.5-0.1-4.8,0.2-6.7,0.8c-1.9,0.6-3.4,1.4-4.4,2.1
					c-0.5,0.3-0.8,0.6-1.1,0.8C129.9,89.7,129.8,89.8,129.8,89.8z"/>
			</g>
		</g>
		<g id="XMLID_7720_">
			<g id="XMLID_7721_">
				<path id="XMLID_7722_" class="st1" d="M110.4,114.7c0,0,0,0.7-0.1,2c0.1,1.2,0.1,3,0.6,5.1c0.8,4.2,3.3,9.5,7.1,13.6
					c3.8,4.2,8.9,6.8,12.9,8c1,0.3,1.9,0.6,2.8,0.8c0.8,0.1,1.6,0.3,2.2,0.4c1.2,0.2,1.9,0.3,2,0.3c0,0,0.8,0.1,1.9,0.3
					c0.3,0,0.6,0.1,1,0.1c0.4,0,0.8,0,1.2,0c0.8,0,1.8,0.1,2.8,0.1c4.1-0.1,9.5-1.1,14.5-3.4c5-2.2,9.5-5.5,12.6-8.3
					c0.8-0.7,1.4-1.4,2.1-2c0.6-0.6,1.1-1.2,1.5-1.6c0.8-0.9,1.3-1.4,1.3-1.4s-0.4,0.5-1.2,1.5c-0.4,0.5-0.8,1.1-1.4,1.7
					c-0.6,0.6-1.2,1.3-1.9,2.1c-2.9,3-7.3,6.6-12.3,9.3c-5,2.7-10.7,4.2-15,4.5c-1.1,0.1-2.1,0.1-3,0.1c-0.4,0-0.9,0-1.3,0
					c-0.4,0-0.7,0-1.1-0.1c-1.3-0.1-2.1-0.1-2.1-0.1c-0.1,0-0.8-0.1-2.1-0.4c-0.7-0.2-1.4-0.3-2.3-0.6c-0.9-0.3-1.8-0.6-2.9-1
					c-4.2-1.6-9.5-4.7-13.2-9.4c-3.8-4.5-5.9-10.2-6.5-14.4c-0.4-2.1-0.3-4-0.3-5.2C110.4,115.4,110.4,114.7,110.4,114.7z"/>
			</g>
		</g>
		<g id="XMLID_7717_">
			<g id="XMLID_7718_">
				<path id="XMLID_7719_" class="st1" d="M113.6,116.9c0,0,0.1,0.6,0.2,1.6c0.1,0.5,0.1,1.1,0.3,1.8c0.2,0.7,0.4,1.4,0.6,2.2
					c1.1,3.2,3.5,7.2,7,10c3.4,2.9,7.6,4.5,10.9,5.2c0.8,0.2,1.6,0.3,2.2,0.4c0.7,0.1,1.3,0.1,1.8,0.2c1,0.1,1.6,0.1,1.6,0.1
					c0,0,0.6,0,1.6,0.1c0.5,0.1,1.1,0.1,1.7,0.1c0.7,0,1.4,0,2.2,0c3.2-0.1,7.5-1,11.6-2.6c4.1-1.6,7.9-3.8,10.7-5.7
					c1.4-0.9,2.5-1.7,3.2-2.4c0.8-0.6,1.2-0.9,1.2-0.9s-0.4,0.4-1.1,1c-0.7,0.7-1.8,1.6-3.1,2.6c-2.6,2.1-6.3,4.7-10.3,6.6
					c-4,2-8.5,3.3-12,3.7c-0.9,0.1-1.7,0.2-2.4,0.2c-0.7,0.1-1.3,0.1-1.9,0.1c-1,0-1.7,0-1.7,0c0,0-0.7,0-1.7-0.2
					c-0.5-0.1-1.2-0.2-1.9-0.3c-0.7-0.2-1.5-0.4-2.4-0.6c-3.4-1-7.9-3.2-11.2-6.5c-3.4-3.3-5.6-7.6-6.4-10.9
					c-0.2-0.8-0.3-1.6-0.5-2.3c-0.1-0.7-0.1-1.3-0.1-1.8C113.6,117.5,113.6,116.9,113.6,116.9z"/>
			</g>
		</g>
		<g id="XMLID_7714_">
			<g id="XMLID_7715_">
				<path id="XMLID_7716_" class="st1" d="M100.2,139.8c0,0-0.2,0.5-0.5,1.4c-0.2,0.9-0.6,2.2-0.7,3.8c-0.2,3.2,0.9,7.4,3.3,10.8
					c2.4,3.4,6.1,5.4,9,6.4c0.7,0.2,1.4,0.4,2,0.6c0.6,0.1,1.2,0.2,1.6,0.2c0.9,0.2,1.4,0.2,1.5,0.2c0,0,0.6,0.1,1.4,0.2
					c0.4,0.1,1,0.1,1.6,0.1c0.6,0,1.3,0,2.1,0c3-0.1,7-1.1,10.6-3c3.6-1.8,6.9-4.5,9.1-6.6c0.5-0.6,1-1.1,1.5-1.5
					c0.4-0.5,0.8-0.9,1.1-1.2c0.6-0.7,0.9-1.1,0.9-1.1s-0.3,0.4-0.8,1.2c-0.3,0.4-0.6,0.8-1,1.3c-0.4,0.5-0.9,1-1.4,1.6
					c-2,2.4-5.1,5.3-8.7,7.6c-3.6,2.3-7.8,3.8-11.1,4.2c-0.8,0.1-1.6,0.1-2.3,0.2c-0.7,0.1-1.3,0.1-1.8,0.1c-1,0-1.6-0.1-1.6-0.1
					c0,0-0.6,0-1.6-0.3c-0.5-0.1-1.1-0.3-1.8-0.4c-0.7-0.2-1.4-0.5-2.2-0.8c-3.1-1.3-7.1-3.9-9.4-7.8c-2.4-3.8-3-8.4-2.6-11.6
					c0.2-1.6,0.7-2.9,1-3.8C99.9,140.2,100.2,139.8,100.2,139.8z"/>
			</g>
		</g>
		<g id="XMLID_7711_">
			<g id="XMLID_7712_">
				<path id="XMLID_7713_" class="st1" d="M137.6,111.8c0,0-0.3,0.3-0.8,0.8c-0.3,0.3-0.6,0.6-0.9,1c-0.4,0.4-0.8,0.8-1.2,1.3
					c-1.7,1.9-3.6,4.8-5.1,7.8c-1.4,3.1-2.5,6.3-2.9,8.7c-0.3,1.2-0.3,2.3-0.5,3c-0.1,0.7-0.1,1.2-0.1,1.2c0,0-0.1,0.4-0.2,1.2
					c-0.1,0.7-0.3,1.7-0.3,2.9c0,0.6-0.1,1.3-0.1,2c0,0.7,0.1,1.4,0.1,2.2c0,0.4,0,0.8,0,1.2c0.1,0.4,0.1,0.8,0.2,1.2
					c0.1,0.8,0.2,1.6,0.3,2.4c0.6,3.2,1.7,6.3,2.8,8.6c0.5,1.2,1.1,2,1.4,2.7c0.4,0.6,0.6,1,0.6,1s-0.2-0.3-0.7-0.9
					c-0.4-0.6-1.1-1.4-1.7-2.5c-1.3-2.1-2.8-5.2-3.8-8.4c-0.3-0.8-0.4-1.6-0.6-2.5c-0.1-0.4-0.2-0.8-0.3-1.2
					c-0.1-0.4-0.1-0.8-0.2-1.2c-0.1-0.8-0.2-1.6-0.3-2.3c0-0.7-0.1-1.4-0.1-2.1c-0.1-1.3,0-2.4,0-3.2c0-0.8,0.1-1.2,0.1-1.3
					c0,0,0.1-0.5,0.3-1.3c0.2-0.8,0.4-1.9,0.8-3.2c0.8-2.6,2.2-5.8,4-8.8c1.9-2.9,4.1-5.6,6.1-7.4c0.4-0.5,0.9-0.9,1.3-1.2
					c0.4-0.3,0.8-0.6,1.1-0.9C137.3,112.1,137.6,111.8,137.6,111.8z"/>
			</g>
		</g>
		<g id="XMLID_7708_">
			<g id="XMLID_7709_">
				<path id="XMLID_7710_" class="st1" d="M59.5,115.8c0,0,0.2,0.6,0.4,1.5c0.1,0.5,0.3,1.1,0.5,1.7c0.1,0.3,0.2,0.7,0.3,1.1
					c0.2,0.4,0.3,0.7,0.5,1.1c0.3,0.8,0.7,1.7,1.1,2.6c0.4,0.9,1,1.8,1.5,2.7c1,1.9,2.5,3.7,3.8,5.5c3,3.5,6.5,6.4,9.4,8.1
					c0.7,0.5,1.4,0.8,2,1.1c0.6,0.3,1.2,0.6,1.6,0.8c0.4,0.2,0.8,0.4,1.1,0.5c0.3,0.1,0.4,0.1,0.4,0.2c0,0,0.6,0.3,1.4,0.7
					c0.9,0.4,2.1,1,3.7,1.5c0.8,0.2,1.6,0.5,2.5,0.8c0.9,0.2,1.9,0.4,2.9,0.6c0.5,0.1,1,0.2,1.6,0.3c0.5,0,1.1,0.1,1.6,0.1
					c1.1,0.1,2.2,0.2,3.3,0.2c1.1,0,2.2-0.1,3.3-0.1l0.8,0l0.8-0.1c0.5-0.1,1.1-0.2,1.6-0.2c2.1-0.2,3.9-0.8,5.6-1.3
					c0.8-0.2,1.5-0.5,2.2-0.8c0.6-0.3,1.2-0.5,1.6-0.7c0.9-0.4,1.4-0.6,1.4-0.6s-0.5,0.3-1.4,0.7c-0.4,0.2-1,0.5-1.6,0.8
					c-0.6,0.3-1.3,0.7-2.1,0.9c-1.6,0.6-3.4,1.4-5.5,1.8c-0.5,0.1-1,0.3-1.6,0.4l-0.8,0.2l-0.8,0.1c-1.1,0.1-2.3,0.3-3.4,0.4
					c-1.1,0.1-2.3,0-3.4,0.1c-0.6,0-1.1,0-1.7,0c-0.6-0.1-1.1-0.1-1.6-0.2c-1.1-0.1-2.1-0.2-3.1-0.4c-1-0.2-1.9-0.4-2.8-0.6
					c-1.7-0.3-3.1-0.9-4.1-1.2c-1-0.4-1.6-0.6-1.6-0.6c0,0-0.2-0.1-0.4-0.2c-0.3-0.1-0.6-0.4-1.1-0.6c-0.5-0.3-1-0.6-1.7-1
					c-0.6-0.4-1.4-0.8-2.1-1.4c-3-2.1-6.4-5.5-9.2-9.3c-1.3-2-2.6-3.9-3.5-6c-0.4-1-1-1.9-1.3-2.9c-0.3-1-0.6-1.8-0.9-2.7
					c-0.1-0.4-0.3-0.8-0.4-1.2c-0.1-0.4-0.2-0.8-0.2-1.1c-0.1-0.7-0.3-1.3-0.4-1.8C59.7,116.4,59.5,115.8,59.5,115.8z"/>
			</g>
		</g>
		<g id="XMLID_7705_">
			<g id="XMLID_7706_">
				<path id="XMLID_7707_" class="st1" d="M70.1,93.7c0,0,0,0.5,0.1,1.3c0,0.4,0.1,0.9,0.1,1.5c0,0.3,0,0.6,0.1,0.9
					c0.1,0.3,0.1,0.7,0.2,1c0.4,2.9,1.5,6.6,3.1,10.1c1.7,3.4,4,6.5,6,8.5c0.4,0.6,1,1,1.4,1.3c0.4,0.4,0.8,0.7,1.1,1
					c0.6,0.6,1,0.9,1.1,0.9c0,0,0.4,0.3,1,0.9c0.6,0.5,1.5,1.3,2.7,2c0.6,0.4,1.2,0.8,1.9,1.2c0.7,0.4,1.4,0.7,2.2,1.1
					c0.4,0.2,0.8,0.4,1.2,0.6c0.4,0.2,0.8,0.3,1.3,0.5c0.9,0.3,1.7,0.7,2.6,1c1.8,0.5,3.6,1,5.3,1.2c1.7,0.3,3.4,0.3,4.8,0.4
					c0.7,0.1,1.3,0,1.9-0.1c0.6,0,1.1-0.1,1.5-0.1c0.8-0.1,1.3-0.1,1.3-0.1s-0.5,0.1-1.3,0.2c-0.4,0.1-0.9,0.2-1.5,0.3
					c-0.6,0.1-1.2,0.2-1.9,0.2c-1.4,0.1-3.1,0.3-4.9,0.1c-1.8,0-3.7-0.4-5.6-0.7c-0.9-0.2-1.9-0.5-2.8-0.7c-0.5-0.1-0.9-0.3-1.4-0.4
					c-0.4-0.2-0.9-0.3-1.3-0.5c-0.8-0.3-1.7-0.7-2.5-1c-0.7-0.4-1.5-0.8-2.1-1.1c-1.3-0.7-2.3-1.4-3.1-1.9c-0.7-0.5-1.2-0.8-1.2-0.8
					c0,0-0.4-0.4-1.1-1c-0.3-0.3-0.7-0.7-1.1-1.2c-0.4-0.5-0.9-0.9-1.4-1.6c-1.9-2.4-4-5.9-5.5-9.6c-1.3-3.8-2.1-7.6-2.2-10.6
					c0-0.4-0.1-0.7-0.1-1c0-0.3,0-0.7,0-1c0-0.6,0-1.1,0.1-1.5C70.1,94.2,70.1,93.7,70.1,93.7z"/>
			</g>
		</g>
		<g id="XMLID_7702_">
			<g id="XMLID_7703_">
				<path id="XMLID_7704_" class="st1" d="M75,99.2c0,0,0.1,0.3,0.4,0.9c0.3,0.6,0.5,1.4,1,2.4c0.9,1.9,2.4,4.4,4.2,6.6
					c1.8,2.2,3.9,4.1,5.5,5.5c0.8,0.7,1.6,1.2,2.1,1.5c0.5,0.4,0.8,0.6,0.8,0.6c0,0,0.3,0.2,0.8,0.6c0.5,0.4,1.1,1,2,1.5
					c1.6,1.3,4,2.6,6.5,3.8c2.5,1.1,5.2,1.9,7.2,2.3c1,0.2,1.9,0.3,2.5,0.4c0.6,0.1,1,0.1,1,0.1s-0.3,0-1,0c-0.6,0-1.5,0-2.5-0.1
					c-2.1-0.1-4.9-0.6-7.7-1.4c-2.7-0.9-5.4-1.9-7.3-3c-1-0.5-1.7-1-2.3-1.3c-0.6-0.3-0.9-0.6-0.9-0.6c0,0-0.3-0.3-0.8-0.7
					c-0.5-0.5-1.2-1.1-2-1.9c-1.6-1.6-3.5-3.9-5-6.4c-1.5-2.5-2.8-5.2-3.4-7.3c-0.4-1-0.6-1.9-0.7-2.5C75.1,99.6,75,99.2,75,99.2z"
					/>
			</g>
		</g>
		<g id="XMLID_7699_">
			<g id="XMLID_7700_">
				<path id="XMLID_7701_" class="st1" d="M51.5,98.4c0,0,1.1,1.6,2.8,4.1c1.7,2.5,4,5.7,6.3,8.8c2.4,3.1,5,6.1,7.1,8.2
					c1,1.1,2,1.9,2.6,2.5c0.6,0.6,1,0.9,1,1c0,0,0.4,0.4,1,1c0.6,0.6,1.4,1.5,2.5,2.4c0.5,0.5,1.1,1,1.7,1.5c0.6,0.5,1.3,1,2.1,1.5
					c0.4,0.3,0.7,0.5,1.1,0.8c0.4,0.3,0.8,0.5,1.2,0.7c0.8,0.5,1.6,1,2.4,1.5c1.7,0.8,3.4,1.8,5.1,2.3c1.6,0.7,3.3,1.1,4.7,1.4
					c0.7,0.2,1.3,0.3,1.9,0.4c0.6,0.1,1.1,0.1,1.5,0.2c0.8,0.1,1.3,0.2,1.3,0.2s-0.5,0-1.3-0.1c-0.4,0-0.9,0-1.5-0.1
					c-0.6,0-1.3,0-2-0.2c-1.4-0.2-3.1-0.4-4.9-1c-1.8-0.4-3.6-1.2-5.4-1.9c-0.9-0.4-1.8-0.9-2.6-1.3c-0.4-0.2-0.9-0.4-1.3-0.6
					c-0.4-0.2-0.8-0.5-1.2-0.7c-0.8-0.5-1.6-0.9-2.3-1.4c-0.7-0.5-1.3-1-2-1.4c-1.2-0.8-2.2-1.7-2.9-2.2c-0.7-0.6-1.1-0.9-1.1-0.9
					c0,0-0.4-0.4-1-1.1c-0.6-0.7-1.5-1.6-2.4-2.8c-1.9-2.4-4.3-5.6-6.4-9c-2.1-3.4-4.1-6.8-5.5-9.4C52.4,100.1,51.5,98.4,51.5,98.4z
					"/>
			</g>
		</g>
		<g id="XMLID_7696_">
			<g id="XMLID_7697_">
				<path id="XMLID_7698_" class="st1" d="M54.3,98.8c0,0,0.1-0.7,0.4-1.9c0.3-1.2,0.9-2.8,2.1-4.6c1.2-1.7,2.9-3.6,5.1-5
					c2.2-1.5,4.8-2.6,7.6-3.3c2.8-0.7,5.6-0.9,8.3-0.9c2.7,0,5.1,0.3,7.2,0.6c2.1,0.3,3.8,0.7,5.1,0.9c1.2,0.2,2,0.4,2,0.4
					c0.1,0,0.7,0.2,1.9,0.6c1.2,0.4,2.8,0.9,4.7,1.6c3.8,1.5,8.9,3.6,13.5,6.3c4.8,2.6,9.1,5.7,12.3,8.1c1.6,1.2,2.8,2.4,3.7,3.1
					c0.9,0.8,1.4,1.2,1.4,1.2s-0.5-0.4-1.5-1.1c-1-0.7-2.3-1.7-3.9-2.8c-3.3-2.2-7.9-5-12.7-7.2c-4.8-2.4-9.8-4-13.7-5.2
					c-1.9-0.6-3.6-0.9-4.7-1.2c-1.1-0.3-1.8-0.5-1.9-0.5c0,0-0.7-0.2-1.9-0.5c-1.2-0.3-2.8-0.8-4.9-1.2c-2-0.4-4.4-0.8-6.9-1
					c-2.5-0.2-5.2-0.2-7.9,0.3c-2.7,0.5-5.2,1.4-7.4,2.7c-2.2,1.2-3.9,3-5.2,4.5c-1.2,1.6-2,3.2-2.3,4.3
					C54.5,98.1,54.3,98.8,54.3,98.8z"/>
			</g>
		</g>
		<g id="XMLID_7693_">
			<g id="XMLID_7694_">
				<path id="XMLID_7695_" class="st1" d="M64.8,92.2c0,0,0.5-0.1,1.4-0.3c0.9-0.1,2.1-0.5,3.6-0.7c3-0.5,7.1-0.7,11.3-0.6
					c4.1,0.2,8.2,0.9,11.3,1.6c1.5,0.3,2.8,0.8,3.7,1c0.9,0.2,1.4,0.4,1.5,0.4c0,0,0.5,0.2,1.4,0.6c0.8,0.4,2,0.9,3.3,1.6
					c2.7,1.3,6.1,3.6,9.3,5.9c3.2,2.5,6,5.2,8,7.5c1,1.1,1.7,2.1,2.3,2.8c0.5,0.7,0.8,1.1,0.8,1.1s-0.3-0.4-0.9-1
					c-0.6-0.6-1.4-1.5-2.5-2.5c-2.1-2-5.2-4.5-8.5-6.6c-3.3-2-6.8-3.9-9.5-4.9c-1.3-0.6-2.5-1-3.3-1.3c-0.8-0.3-1.3-0.5-1.3-0.5
					c0,0-0.5-0.2-1.4-0.5c-0.8-0.3-2-0.8-3.5-1.3c-2.9-0.9-6.8-1.9-10.8-2.5c-4-0.5-8.1-0.6-11.1-0.4c-1.5,0-2.8,0.3-3.7,0.3
					C65.3,92.1,64.8,92.2,64.8,92.2z"/>
			</g>
		</g>
		<g id="XMLID_7690_">
			<g id="XMLID_7691_">
				<path id="XMLID_7692_" class="st1" d="M77.4,90.1c0,0,0.1-0.6,0.4-1.6c0.3-1,0.8-2.5,1.5-4.2c1.5-3.3,4.4-7.5,8.3-10.6
					c3.9-3.2,8.7-5.3,12.4-5.9c0.5-0.1,0.9-0.2,1.4-0.3c0.4-0.1,0.8-0.1,1.2-0.2c0.8-0.1,1.5-0.2,2-0.2c1.1-0.1,1.8-0.1,1.8-0.1
					c0,0,0.7,0,1.8,0.1c1.1,0.1,2.6,0.2,4.4,0.4c3.6,0.3,8.3,1.1,12.9,1c4.7,0,9.3-0.9,12.5-2.5c1.6-0.8,2.8-1.6,3.6-2.2
					c0.8-0.7,1.2-1.1,1.2-1.1s-0.4,0.4-1.1,1.2c-0.8,0.7-1.9,1.7-3.5,2.6c-3.1,1.8-7.8,3.2-12.6,3.5c-4.8,0.4-9.6,0-13.1-0.1
					c-1.8-0.1-3.3,0-4.3,0c-1,0-1.6,0.1-1.7,0.1c0,0-0.7,0-1.7,0c-0.5,0-1.2,0.1-1.9,0.1c-0.4,0-0.8,0-1.2,0.1
					c-0.4,0.1-0.8,0.1-1.3,0.2c-3.5,0.4-8.1,1.9-12,4.7c-4,2.7-7,6.5-8.8,9.7c-0.9,1.6-1.5,3-1.8,4C77.5,89.5,77.4,90.1,77.4,90.1z"
					/>
			</g>
		</g>
		<g id="XMLID_7687_">
			<g id="XMLID_7688_">
				<path id="XMLID_7689_" class="st1" d="M76.1,86.3c0,0,0-0.5,0-1.4c0-0.9,0.1-2.2,0.4-3.8c0.3-1.6,0.8-3.4,1.7-5.2
					c0.8-1.8,1.9-3.7,3.3-5.4c2.7-3.5,6.4-6,9.5-7.3c1.6-0.6,2.9-1.1,3.9-1.3c1-0.3,1.5-0.4,1.6-0.4c0,0,0.6-0.1,1.6-0.1
					c0.5-0.1,1.1,0,1.7-0.1c0.7,0,1.4,0,2.2,0c3.2,0.1,7.3,0.6,11.3,1.2c4,0.5,8.1,0.9,11.1,0.8c1.5-0.1,2.8-0.2,3.7-0.3
					c0.9-0.1,1.4-0.2,1.4-0.2s-0.5,0.1-1.4,0.3c-0.9,0.2-2.1,0.5-3.6,0.7c-3.1,0.4-7.2,0.4-11.3,0.2c-4.1-0.2-8.2-0.3-11.2-0.2
					c-0.8,0-1.4,0.1-2,0.2c-0.6,0.1-1.1,0.1-1.6,0.2c-0.9,0.1-1.4,0.2-1.4,0.2c0,0-0.6,0.1-1.4,0.2c-0.9,0.1-2.1,0.4-3.6,0.8
					c-2.9,0.9-6.5,2.9-9.3,6c-1.4,1.5-2.6,3.2-3.6,4.9c-0.9,1.7-1.6,3.4-2,4.9c-0.4,1.5-0.6,2.8-0.7,3.7
					C76.1,85.7,76.1,86.3,76.1,86.3z"/>
			</g>
		</g>
		<g id="XMLID_7684_">
			<g id="XMLID_7685_">
				<path id="XMLID_7686_" class="st1" d="M79.6,35.1c0,0,0.5-0.3,1.4-0.7c0.4-0.2,1-0.5,1.6-0.8c0.3-0.2,0.6-0.3,1-0.5
					c0.4-0.1,0.7-0.3,1.1-0.4c0.8-0.3,1.6-0.6,2.5-1c0.9-0.4,1.9-0.5,2.9-0.8c2-0.6,4.3-0.8,6.5-1.2c4.5-0.3,9.1,0.1,12.5,0.8
					c0.9,0.1,1.6,0.4,2.3,0.6c0.7,0.2,1.3,0.4,1.8,0.6c1,0.3,1.6,0.5,1.6,0.6c0,0,0.6,0.3,1.5,0.8c0.9,0.5,2.2,1.1,3.5,2.1
					c0.7,0.5,1.4,1,2.2,1.6c0.7,0.6,1.5,1.3,2.3,2c0.4,0.3,0.8,0.7,1.2,1.1c0.4,0.4,0.7,0.8,1.1,1.2c0.7,0.8,1.5,1.6,2.2,2.5
					c0.6,0.9,1.3,1.8,1.9,2.7l0.5,0.7l0.4,0.7c0.3,0.5,0.5,0.9,0.8,1.4c1.1,1.7,1.8,3.5,2.4,5c0.4,0.7,0.6,1.5,0.7,2.1
					c0.2,0.6,0.4,1.2,0.5,1.6c0.3,0.9,0.4,1.4,0.4,1.4s-0.2-0.5-0.5-1.4c-0.2-0.4-0.4-1-0.6-1.6c-0.2-0.6-0.5-1.3-0.9-2
					c-0.8-1.4-1.6-3.1-2.8-4.7c-0.3-0.4-0.6-0.8-0.9-1.3l-0.4-0.6l-0.5-0.6c-0.7-0.8-1.4-1.6-2.1-2.4c-0.7-0.8-1.5-1.5-2.3-2.2
					c-0.4-0.4-0.8-0.7-1.1-1.1c-0.4-0.3-0.8-0.6-1.2-0.9c-0.8-0.6-1.6-1.2-2.3-1.7c-0.8-0.5-1.5-0.9-2.2-1.3
					c-1.3-0.9-2.6-1.3-3.4-1.7c-0.9-0.4-1.4-0.6-1.4-0.6c0,0-0.5-0.3-1.4-0.6c-0.4-0.2-1-0.4-1.6-0.6c-0.6-0.2-1.3-0.6-2.1-0.7
					c-3.1-1-7.4-1.7-11.8-1.8c-2.2,0.2-4.4,0.2-6.4,0.6c-1,0.2-2,0.3-2.9,0.6c-0.9,0.3-1.8,0.5-2.6,0.8c-0.4,0.1-0.8,0.2-1.1,0.3
					c-0.3,0.1-0.7,0.3-1,0.4c-0.6,0.3-1.2,0.5-1.6,0.7C80.1,34.9,79.6,35.1,79.6,35.1z"/>
			</g>
		</g>
		<g id="XMLID_7681_">
			<g id="XMLID_7682_">
				<path id="XMLID_7683_" class="st1" d="M90.3,32.3c0,0,0.4,0,1.1-0.1c0.7,0,1.7-0.2,3-0.1c2.5,0,5.8,0.3,9,1.1
					c3.2,0.8,6.4,2.1,8.6,3.3c1.1,0.6,2,1.2,2.7,1.6c0.7,0.4,1,0.7,1,0.7c0,0,0.3,0.3,0.9,0.8c0.5,0.5,1.3,1.2,2.1,2.1
					c0.4,0.5,0.9,1,1.3,1.5c0.4,0.6,0.9,1.2,1.3,1.8c0.2,0.3,0.5,0.6,0.7,0.9c0.2,0.3,0.4,0.7,0.6,1c0.4,0.7,0.9,1.4,1.3,2.1
					c1.6,2.8,2.7,5.9,3.3,8.2c0.4,1.1,0.5,2.1,0.6,2.8c0.1,0.7,0.2,1.1,0.2,1.1s-0.1-0.4-0.3-1c-0.2-0.6-0.5-1.6-1-2.7
					c-0.9-2.2-2.3-5-4.1-7.5c-0.4-0.6-1-1.2-1.4-1.8c-0.2-0.3-0.5-0.6-0.7-0.9c-0.3-0.3-0.5-0.5-0.8-0.8c-0.5-0.5-1-1-1.4-1.5
					c-0.5-0.4-1-0.9-1.4-1.2c-0.8-0.8-1.7-1.3-2.2-1.8c-0.6-0.4-0.9-0.6-0.9-0.7c0,0-0.3-0.3-0.9-0.7c-0.6-0.4-1.3-1.1-2.3-1.7
					c-2-1.4-4.8-2.9-7.8-4c-3-1.1-6.2-1.8-8.6-2c-1.2-0.2-2.2-0.1-2.9-0.2C90.7,32.3,90.3,32.3,90.3,32.3z"/>
			</g>
		</g>
		<g id="XMLID_7678_">
			<g id="XMLID_7679_">
				<path id="XMLID_7680_" class="st1" d="M96.1,34.6c0,0,0.8,0.3,2.1,0.8c1.3,0.4,2.9,1.4,4.5,2.2c1.5,1,3.1,2,4.1,3
					c1.1,0.9,1.8,1.5,1.8,1.6c0,0,0.5,0.8,1.3,2c0.2,0.3,0.4,0.6,0.6,0.9c0.2,0.4,0.4,0.7,0.5,1.1c0.4,0.8,0.8,1.6,1.1,2.4
					c0.6,1.7,1.3,3.3,1.5,4.7c0.3,1.3,0.5,2.1,0.5,2.1s-0.4-0.8-0.9-2c-0.5-1.2-1.5-2.7-2.3-4.1c-0.5-0.7-1-1.4-1.5-2
					c-0.2-0.3-0.5-0.6-0.7-0.9c-0.3-0.3-0.5-0.5-0.7-0.7c-0.9-0.9-1.5-1.5-1.5-1.6c0,0-0.5-0.7-1.4-1.8c-0.8-1.1-2-2.3-3.3-3.6
					c-1.4-1.1-2.7-2.3-3.8-3C96.9,35.1,96.1,34.6,96.1,34.6z"/>
			</g>
		</g>
		<g id="XMLID_7675_">
			<g id="XMLID_7676_">
				<path id="XMLID_7677_" class="st1" d="M129.1,22c0,0,0.2-0.1,0.6-0.4c0.4-0.3,0.9-0.6,1.6-0.9c1.5-0.7,3.8-1.3,6.6-1.2
					c2.8,0.1,6.1,0.8,9.3,2.1c0.8,0.3,1.6,0.7,2.4,1.1c0.8,0.5,1.6,0.9,2.4,1.4c0.8,0.5,1.6,0.9,2.4,1.4c0.8,0.5,1.5,1.1,2.3,1.6
					c6.2,4.3,11.6,9.6,15.4,13.7c2,2,3.6,3.8,4.7,5c1.1,1.2,1.8,1.9,1.9,2c0,0,0.7,0.8,1.7,2c1,1.2,2.6,2.9,4.3,5
					c3.6,4,8.7,9.1,14.5,13.2c2.9,2.1,6,3.9,9.1,5.2c3.1,1.4,6.1,2.3,8.7,2.8c2.6,0.5,4.9,0.6,6.4,0.6c1.6-0.1,2.5-0.1,2.5-0.1
					s-0.9,0.1-2.5,0.2c-1.6,0.1-3.8,0.1-6.5-0.3c-2.7-0.4-5.8-1.2-9-2.4c-3.2-1.2-6.4-2.9-9.5-4.9c-6.2-3.9-11.6-8.8-15.5-12.7
					c-1.9-2-3.5-3.6-4.6-4.8c-1.1-1.2-1.8-1.9-1.8-1.9c-0.1-0.1-2.5-3-6.2-7.2c-3.7-4.2-8.7-9.7-14.5-14.2c-0.7-0.6-1.4-1.2-2.2-1.7
					c-0.8-0.5-1.5-1-2.3-1.5c-0.8-0.5-1.5-1-2.3-1.5c-0.8-0.4-1.5-0.8-2.3-1.2c-3.1-1.5-6.2-2.3-9-2.5c-2.7-0.2-5,0.3-6.5,0.9
					c-0.7,0.3-1.3,0.6-1.7,0.8C129.3,21.9,129.1,22,129.1,22z"/>
			</g>
		</g>
		<g id="XMLID_7672_">
			<g id="XMLID_7673_">
				<path id="XMLID_7674_" class="st1" d="M135.8,20.4c0,0,0.8-0.4,2.2-1.1c1.5-0.6,3.6-1.4,6.3-1.8c2.7-0.4,5.9-0.5,9.3-0.1
					c3.4,0.5,7,1.4,10.4,2.9c3.4,1.4,6.6,3.2,9.4,5.3c2.8,2,5.3,4.1,7.4,5.9c1,0.9,2,1.8,2.8,2.6c0.8,0.8,1.5,1.5,2.1,2.1
					c1.2,1.2,1.8,1.8,1.9,1.9c0.1,0.1,2.4,2.8,5.9,6.9c3.5,4,8,9.3,13.4,13.8c2.7,2.3,5.5,4.3,8.3,6c2.8,1.7,5.6,2.9,8.1,3.7
					c2.5,0.9,4.6,1.2,6.1,1.5c1.5,0.2,2.4,0.2,2.4,0.2s-0.9,0-2.4-0.1c-1.5-0.2-3.7-0.4-6.3-1.2c-2.5-0.7-5.5-1.8-8.4-3.4
					c-2.9-1.5-5.9-3.5-8.8-5.6c-5.7-4.3-10.6-9.5-14.3-13.3c-3.7-3.8-6.2-6.4-6.2-6.5c0,0-0.7-0.8-1.8-2c-0.5-0.6-1.2-1.3-1.9-2.1
					c-0.8-0.8-1.6-1.7-2.6-2.6c-3.8-3.8-9.2-8.6-15.7-11.6c-3.2-1.5-6.6-2.7-9.9-3.3c-3.3-0.6-6.4-0.7-9.1-0.4
					c-2.7,0.3-4.8,1-6.3,1.5C136.6,20,135.8,20.4,135.8,20.4z"/>
			</g>
		</g>
		<g id="XMLID_7669_">
			<g id="XMLID_7670_">
				<path id="XMLID_7671_" class="st1" d="M165.6,18.8c0,0,0.7-0.1,1.8-0.3c0.6-0.1,1.3-0.2,2.1-0.2c0.4,0,0.8-0.1,1.3-0.1
					c0.5,0,0.9,0,1.4,0c2,0,4.4,0.3,6.9,0.8c2.5,0.5,5.1,1.4,7.6,2.5c2.5,1.1,4.9,2.4,7.1,3.8c2.1,1.4,4.1,2.9,5.6,4.3
					c1.6,1.4,2.8,2.6,3.7,3.5c0.9,0.9,1.3,1.4,1.4,1.5c0,0,0.4,0.6,1.2,1.6c0.7,1,1.7,2.3,2.7,4c0.5,0.9,1.1,1.8,1.7,2.7
					c0.5,1,1.1,2.1,1.7,3.2c0.3,0.5,0.6,1.1,0.9,1.7c0.3,0.6,0.5,1.2,0.8,1.7c0.5,1.2,1.1,2.4,1.6,3.6c2.1,4.8,3.8,9.7,5.1,13.4
					c1.3,3.7,2.1,6.1,2.1,6.1s-1-2.4-2.5-6c-1.5-3.6-3.6-8.3-6-12.9c-0.6-1.2-1.2-2.3-1.8-3.4c-0.3-0.6-0.6-1.1-0.9-1.7
					c-0.3-0.5-0.7-1.1-1-1.6c-0.6-1-1.3-2-1.9-3c-0.6-0.9-1.3-1.8-1.8-2.5c-1.1-1.6-2.2-2.8-2.9-3.7c-0.7-0.9-1.2-1.4-1.2-1.4
					c0,0-0.4-0.6-1.2-1.5c-0.7-0.9-1.8-2.1-3.3-3.5c-1.4-1.4-3.1-2.9-5.1-4.4c-2-1.5-4.2-2.9-6.5-4.1c-2.4-1.2-4.8-2.2-7.2-2.9
					c-2.4-0.7-4.7-1.1-6.7-1.2c-0.5,0-1-0.1-1.4-0.1c-0.5,0-0.9,0-1.3,0c-0.8,0-1.5,0-2.1,0.1C166.3,18.7,165.6,18.8,165.6,18.8z"/>
			</g>
		</g>
		<g id="XMLID_7666_">
			<g id="XMLID_7667_">
				<path id="XMLID_7668_" class="st1" d="M167.6,22c0,0,0.4,0,1.2-0.1c0.4,0,0.9,0,1.4,0c0.5,0,1.2,0,1.8,0.1
					c2.7,0.3,6.2,1.2,9.5,2.9c3.3,1.6,6.3,3.8,8.3,5.7c1,0.9,1.9,1.8,2.4,2.4c0.6,0.6,0.9,1,0.9,1c0,0,0.3,0.4,0.7,1.1
					c0.5,0.7,1.1,1.6,1.8,2.7c1.4,2.3,3,5.5,4.4,8.7c1.4,3.2,2.6,6.5,3.5,8.9c0.9,2.5,1.4,4.1,1.4,4.1s-0.7-1.6-1.9-3.9
					c-1.1-2.3-2.7-5.4-4.3-8.5c-1.7-3-3.5-5.9-5.1-7.9c-0.7-1.1-1.5-1.8-2-2.4c-0.5-0.6-0.8-0.9-0.8-0.9c0,0-0.3-0.4-0.8-1
					c-0.5-0.6-1.2-1.5-2.1-2.4c-1.8-1.9-4.4-4.3-7.3-6.2c-3-1.9-6.3-3.2-8.9-3.7c-0.6-0.2-1.2-0.3-1.8-0.3c-0.5-0.1-1-0.1-1.4-0.1
					C168,22,167.6,22,167.6,22z"/>
			</g>
		</g>
		<g id="XMLID_7663_">
			<g id="XMLID_7664_">
				<path id="XMLID_7665_" class="st1" d="M232.2,33.3c0,0,0.3,0.3,0.9,0.9c0.5,0.6,1.2,1.6,1.8,2.8c1.3,2.5,2.1,6.3,2,10.1
					c0.1,3.8-0.4,7.5-0.3,10.3c-0.1,1.4,0.1,2.5,0.1,3.3c0.1,0.8,0.1,1.3,0.1,1.3c0,0-0.1,0.5,0,1.3c0.1,0.8,0.2,1.9,0.3,3.2
					c0.2,1.3,0.5,2.8,0.9,4.4c0.5,1.6,0.9,3.3,1.7,4.9c1.3,3.3,3.3,6.3,4.8,8.5c0.8,1.1,1.6,1.9,2.1,2.5c0.5,0.6,0.8,0.9,0.8,0.9
					s-0.3-0.3-0.9-0.8c-0.6-0.6-1.4-1.3-2.3-2.3c-1.8-2-4.1-4.9-5.8-8.2c-1-1.6-1.6-3.3-2.3-4.9c-0.6-1.6-1-3.2-1.4-4.6
					c-0.3-1.4-0.5-2.6-0.6-3.4c-0.2-0.8-0.1-1.3-0.2-1.4c0,0,0-0.5,0-1.4c0-0.9,0-2.1,0.2-3.5c0.2-2.9,1-6.5,1.3-10.2
					c0.4-3.6,0-7.3-1-9.9c-0.5-1.3-1.1-2.3-1.5-2.9C232.5,33.7,232.2,33.3,232.2,33.3z"/>
			</g>
		</g>
		<g id="XMLID_7660_">
			<g id="XMLID_7661_">
				<path id="XMLID_7662_" class="st1" d="M299.5,56.2c0,0-0.1-0.1-0.3-0.3c-0.2-0.2-0.6-0.5-1-0.8c-0.9-0.6-2.4-1.4-4.3-1.6
					c-1.9-0.3-4.1-0.1-6.3,0.6c-1.1,0.4-2.2,0.9-3.2,1.6c-0.5,0.3-1,0.7-1.5,1.1c-0.5,0.4-1,0.8-1.4,1.2c-3.7,3.4-6.5,7.8-8.8,10.9
					c-1.1,1.6-2,2.9-2.7,3.9c-0.6,1-1,1.5-1,1.6c0,0-0.4,0.6-1.1,1.5c-0.7,0.9-1.5,2.2-2.5,3.8c-2,3.1-4.3,7.5-5.6,12.3
					c-1.3,4.7-1.5,9.8-0.7,13.4c0.4,1.8,0.8,3.3,1.3,4.3c0.4,1,0.6,1.6,0.6,1.6s-0.3-0.6-0.8-1.5c-0.6-1-1-2.4-1.6-4.2
					c-1-3.6-1.2-8.8-0.2-13.8c1-5,3.1-9.8,4.9-13.2c0.9-1.7,1.7-3.1,2.3-4.1c0.6-1,1-1.5,1-1.6c0,0,0.4-0.6,1.2-1.5
					c0.7-0.9,1.7-2.2,3-3.8c1.2-1.5,2.7-3.3,4.3-5.1c1.6-1.9,3.4-3.8,5.5-5.4c0.5-0.4,1.1-0.8,1.6-1.2c0.5-0.4,1.1-0.7,1.7-1
					c1.1-0.7,2.4-1.1,3.6-1.4c2.4-0.6,4.8-0.6,6.7-0.2c1.9,0.4,3.4,1.3,4.2,2c0.4,0.4,0.8,0.7,1,0.9
					C299.4,56.1,299.5,56.2,299.5,56.2z"/>
			</g>
		</g>
		<g id="XMLID_7657_">
			<g id="XMLID_7658_">
				<path id="XMLID_7659_" class="st1" d="M318.9,158.4c0,0-0.4,0.3-1.2,0.8c-0.8,0.4-2,1.1-3.6,1.5c-3.2,0.9-7.8,0.8-11.9-1
					c-2.1-0.9-4-2-5.6-3.5c-1.6-1.4-2.9-2.9-4-4.2c-0.5-0.7-0.9-1.3-1.3-1.9c-0.3-0.6-0.7-1.1-0.9-1.6c-0.5-0.9-0.8-1.4-0.8-1.4
					c0,0-0.2-0.6-0.6-1.5c-0.4-0.9-0.7-2.2-1.2-3.8c-0.2-0.8-0.4-1.6-0.6-2.5c-0.2-0.9-0.3-1.9-0.5-2.9c-0.3-2-0.6-4-0.9-6.1
					c-0.3-2-0.7-4.1-1.3-5.9c-0.6-1.8-1.4-3.4-2.3-4.7c-0.9-1.3-1.8-2.2-2.5-2.8c-0.7-0.5-1.2-0.8-1.2-0.8s0.5,0.3,1.2,0.7
					c0.7,0.5,1.8,1.3,2.8,2.6c1,1.2,2,2.8,2.8,4.7c0.8,1.8,1.4,3.9,1.9,6c0.5,2,0.9,4.1,1.4,6c0.3,0.9,0.5,1.8,0.7,2.7
					c0.3,0.8,0.5,1.6,0.8,2.4c0.6,1.4,1,2.7,1.4,3.5c0.4,0.8,0.6,1.3,0.6,1.3c0,0,0.2,0.5,0.6,1.4c0.2,0.4,0.4,0.9,0.7,1.5
					c0.3,0.5,0.7,1.2,1.1,1.8c1.7,2.6,4.4,5.9,8.2,7.8c3.7,2,8.1,2.5,11.2,1.9c1.6-0.3,2.8-0.8,3.7-1.2
					C318.4,158.6,318.9,158.4,318.9,158.4z"/>
			</g>
		</g>
		<g id="XMLID_7654_">
			<g id="XMLID_7655_">
				<path id="XMLID_7656_" class="st1" d="M290.2,70.4c0,0-0.4,0.3-1,0.8c-0.3,0.2-0.7,0.5-1.1,0.9c-0.2,0.2-0.4,0.4-0.7,0.5
					c-0.2,0.2-0.5,0.4-0.7,0.7c-2,1.8-4.3,4.5-6.2,7.5c-1.8,3-3.2,6.3-4,8.8c-0.4,1.3-0.6,2.4-0.8,3.1c-0.2,0.8-0.2,1.2-0.2,1.2
					c0,0-0.1,0.5-0.3,1.2c-0.2,0.7-0.5,1.8-0.6,3c-0.1,0.6-0.2,1.3-0.3,2.1c0,0.7-0.1,1.5-0.1,2.3c0,0.4,0,0.8,0,1.2
					c0,0.4,0,0.8,0.1,1.2c0.1,0.8,0.1,1.7,0.2,2.6c0.4,3.4,1.3,6.8,2.3,9.2c0.2,0.6,0.5,1.2,0.7,1.6c0.2,0.5,0.4,0.9,0.6,1.2
					c0.3,0.7,0.5,1.1,0.5,1.1s-0.2-0.4-0.6-1c-0.2-0.3-0.4-0.7-0.7-1.2c-0.3-0.5-0.6-1-0.9-1.6c-1.2-2.3-2.5-5.7-3.3-9.1
					c-0.2-0.9-0.3-1.8-0.5-2.6c-0.1-0.4-0.1-0.9-0.2-1.3c0-0.4-0.1-0.9-0.1-1.3c-0.1-0.8-0.1-1.7-0.1-2.4c0-0.8,0-1.5,0.1-2.2
					c0-1.4,0.2-2.5,0.3-3.3c0.1-0.8,0.2-1.3,0.2-1.3c0,0,0.1-0.5,0.4-1.3c0.3-0.8,0.6-1.9,1.2-3.2c1.1-2.6,2.9-5.9,5.1-8.8
					c2.3-2.9,4.9-5.4,7.1-7c0.3-0.2,0.5-0.4,0.8-0.6c0.3-0.2,0.5-0.3,0.7-0.5c0.5-0.3,0.9-0.6,1.2-0.8
					C289.8,70.6,290.2,70.4,290.2,70.4z"/>
			</g>
		</g>
		<g id="XMLID_7651_">
			<g id="XMLID_7652_">
				<path id="XMLID_7653_" class="st1" d="M308.1,77.8c0,0,0.1,0.4,0.4,1.1c0.1,0.3,0.3,0.8,0.4,1.2c0.2,0.5,0.4,1,0.5,1.6
					c0.7,2.4,1.2,5.7,1.3,9.1c0,3.4-0.4,6.8-1.1,9.3c-0.3,1.3-0.7,2.3-0.9,3c-0.2,0.7-0.4,1.2-0.4,1.2c0,0-0.2,0.4-0.6,1.1
					c-0.4,0.7-0.8,1.6-1.6,2.6c-0.4,0.5-0.7,1.1-1.2,1.7c-0.5,0.6-0.9,1.1-1.4,1.7c-0.2,0.3-0.5,0.6-0.8,0.9
					c-0.3,0.3-0.6,0.6-0.9,0.9c-0.6,0.6-1.1,1.2-1.8,1.7c-2.5,2.2-5.2,4-7.4,5.1c-1,0.6-2,0.9-2.7,1.2c-0.6,0.3-1,0.4-1,0.4
					s0.3-0.2,1-0.6c0.6-0.4,1.5-0.8,2.5-1.5c2-1.3,4.5-3.4,6.6-5.7c0.5-0.6,1-1.2,1.5-1.8c0.2-0.3,0.5-0.6,0.7-0.9
					c0.2-0.3,0.4-0.6,0.6-0.9c0.4-0.6,0.8-1.2,1.2-1.8c0.3-0.6,0.6-1.2,0.9-1.7c0.6-1,0.9-1.9,1.2-2.6c0.3-0.6,0.4-1,0.4-1
					c0,0,0.2-0.4,0.5-1c0.3-0.7,0.7-1.6,1.1-2.7c0.8-2.3,1.6-5.4,2-8.7c0.2-3.2,0.1-6.5-0.3-9c-0.1-0.6-0.2-1.2-0.3-1.7
					c-0.1-0.5-0.2-0.9-0.3-1.3C308.2,78.2,308.1,77.8,308.1,77.8z"/>
			</g>
		</g>
		<g id="XMLID_7648_">
			<g id="XMLID_7649_">
				<path id="XMLID_7650_" class="st1" d="M322.6,129.8c0,0-0.2-0.3-0.6-0.8c-0.4-0.5-1-1.1-1.7-2c-1.3-1.7-2.9-4.1-4.3-6.7
					c-1.3-2.6-2.4-5.4-3.1-7.5c-0.4-1.1-0.6-2-0.7-2.6c-0.2-0.6-0.3-1-0.3-1.1c0,0,0-0.4-0.1-1.1c-0.1-0.6-0.2-1.6-0.2-2.6
					c-0.1-2.2,0.1-5.1,0.4-7.9c0.4-2.8,1.1-5.6,1.7-7.6c0.3-1,0.7-1.8,0.9-2.4c0.2-0.6,0.3-0.9,0.3-0.9s-0.1,0.3-0.2,0.9
					c-0.1,0.6-0.4,1.4-0.5,2.5c-0.4,2-0.7,4.8-0.7,7.6c0,2.8,0.2,5.5,0.6,7.5c0.1,1,0.3,1.9,0.5,2.5c0.1,0.6,0.2,0.9,0.2,1
					c0,0,0,0.4,0.1,1c0.1,0.6,0.2,1.5,0.4,2.5c0.4,2.1,1.1,4.8,2,7.5c1,2.6,2.2,5.2,3.4,7.1c0.5,0.9,1.1,1.7,1.4,2.2
					C322.4,129.5,322.6,129.8,322.6,129.8z"/>
			</g>
		</g>
		<g id="XMLID_7645_">
			<g id="XMLID_7646_">
				<path id="XMLID_7647_" class="st1" d="M333.7,113.5c0,0,0.1,0.3,0.2,0.8c0.1,0.5,0.3,1.2,0.4,2.1c0.3,1.7,0.4,4.1,0.1,6.5
					c-0.3,2.4-0.9,4.8-1.5,6.5c-0.3,0.9-0.7,1.6-0.9,2.1c-0.2,0.5-0.4,0.8-0.4,0.8c0,0-0.2,0.3-0.5,0.7c-0.3,0.4-0.7,1.1-1.4,1.7
					c-1.1,1.4-2.9,3-4.8,4.4c-1.9,1.4-4,2.4-5.6,3c-0.8,0.3-1.5,0.5-2,0.7c-0.5,0.1-0.7,0.2-0.7,0.2s0.3-0.1,0.7-0.3
					c0.4-0.2,1.1-0.5,1.8-0.9c1.5-0.8,3.3-2.2,4.8-3.7c1.5-1.6,2.9-3.3,3.7-4.7c0.5-0.7,0.8-1.3,1-1.7c0.2-0.4,0.4-0.7,0.4-0.7
					c0,0,0.2-0.2,0.4-0.7c0.3-0.4,0.7-1,1.1-1.8c0.8-1.5,1.7-3.6,2.3-5.8c0.6-2.2,0.9-4.5,0.8-6.2c0.1-0.9-0.1-1.6-0.1-2.1
					C333.7,113.8,333.7,113.5,333.7,113.5z"/>
			</g>
		</g>
		<g id="XMLID_7642_">
			<g id="XMLID_7643_">
				<path id="XMLID_7644_" class="st1" d="M306.5,208.6c0,0,0-0.4-0.1-1.2c0-0.2-0.1-0.4-0.1-0.6c0-0.2,0-0.5,0.1-0.7
					c0-0.3,0-0.6,0.1-0.9c0.1-0.3,0.1-0.6,0.2-0.9c0.3-1.3,1-2.7,1.9-4.1c1-1.4,2.1-2.7,3.5-3.9c2.7-2.3,5.7-4.2,7.7-5.7
					c1.1-0.7,1.8-1.5,2.3-2c0.5-0.5,0.9-0.8,0.9-0.8c0,0,0.1-0.1,0.3-0.2c0.1-0.1,0.3-0.3,0.6-0.6c0.5-0.5,1.1-1.2,1.8-2.1
					c0.6-1,1.2-2.2,1.5-3.6c0.3-1.4,0.3-3,0.1-4.6c-0.2-1.6-0.7-3.2-1.3-4.6c-0.6-1.4-1.3-2.7-2-3.7c-0.3-0.5-0.7-1-1-1.4
					c-0.3-0.4-0.6-0.8-0.8-1c-0.5-0.6-0.7-0.9-0.7-0.9s0.3,0.3,0.8,0.8c0.3,0.2,0.6,0.6,0.9,1c0.4,0.4,0.7,0.8,1.1,1.3
					c0.8,1,1.6,2.2,2.4,3.6c0.7,1.4,1.4,3,1.9,4.7c0.4,1.7,0.6,3.5,0.4,5.2c-0.2,1.7-0.7,3.3-1.3,4.5c-0.6,1.2-1.3,2.2-1.9,2.8
					c-0.3,0.3-0.5,0.6-0.6,0.7c-0.2,0.1-0.3,0.2-0.3,0.2c0,0-0.4,0.3-1.1,0.8c-0.7,0.5-1.6,1.2-2.7,1.9c-1.2,0.7-2.5,1.5-3.9,2.3
					c-0.7,0.4-1.4,0.8-2.1,1.3c-0.7,0.4-1.5,0.9-2.1,1.4c-1.4,1-2.6,2.1-3.6,3.3c-1,1.2-1.8,2.5-2.2,3.7c-0.1,0.3-0.2,0.6-0.3,0.9
					c-0.1,0.3-0.1,0.6-0.2,0.8c0,0.3-0.1,0.5-0.1,0.7c0,0.2,0,0.4,0,0.6C306.5,208.2,306.5,208.6,306.5,208.6z"/>
			</g>
		</g>
		<g id="XMLID_7639_">
			<g id="XMLID_7640_">
				<path id="XMLID_7641_" class="st1" d="M310.5,225.3c0,0,0-0.4-0.1-1.1c-0.1-0.7-0.2-1.8-0.3-3c0-0.6,0-1.3,0.1-2
					c0-0.4,0-0.7,0-1.1c0-0.4,0.1-0.8,0.2-1.2c0.1-0.8,0.2-1.6,0.4-2.4c0.2-0.8,0.5-1.6,0.7-2.5c1.1-3.3,2.9-6.3,4.5-8.4
					c0.7-1.1,1.5-1.9,2-2.5c0.5-0.6,0.8-0.9,0.8-1c0,0,0.4-0.3,0.9-0.8c0.6-0.5,1.3-1.2,2.3-2c1.9-1.6,4.5-3.6,7.1-5.5
					c2.6-2,5.1-4,6.9-5.6c0.9-0.8,1.6-1.5,2.1-2c0.5-0.5,0.8-0.8,0.8-0.8s-0.3,0.3-0.7,0.9c-0.5,0.5-1.1,1.4-1.9,2.3
					c-1.6,1.8-3.9,4.2-6.3,6.4c-2.3,2.3-4.7,4.5-6.4,6.2c-0.9,0.9-1.5,1.6-2,2.1c-0.5,0.5-0.8,0.8-0.8,0.9c0,0-0.3,0.3-0.9,0.8
					c-0.5,0.5-1.3,1.2-2.1,2.1c-1.7,1.8-3.6,4.4-5,7.4c-1.5,2.9-2,6.2-2.3,8.7c-0.1,1.2,0,2.3-0.1,3
					C310.5,224.9,310.5,225.3,310.5,225.3z"/>
			</g>
		</g>
		<g id="XMLID_7636_">
			<g id="XMLID_7637_">
				<path id="XMLID_7638_" class="st1" d="M344.3,180.6c0,0,0.2,0.4,0.5,1.2c0.4,0.8,0.7,1.9,1,3.4c0.3,1.4,0.2,3.2-0.3,5
					c-0.5,1.8-1.6,3.6-2.8,5.1c-2.4,3.1-5.3,5.8-7.2,7.9c-0.9,1.1-1.6,2-2.2,2.7c-0.4,0.7-0.7,1.1-0.7,1.1c0,0-0.3,0.4-0.7,1
					c-0.5,0.6-1,1.6-1.6,2.8c-1.2,2.4-2.3,5.9-2.4,9.6c-0.2,3.7,0.6,7.3,1.6,9.9c0.2,0.7,0.5,1.2,0.8,1.7c0.2,0.5,0.5,1,0.7,1.3
					c0.4,0.7,0.7,1.1,0.7,1.1s-0.3-0.4-0.8-1c-0.3-0.3-0.5-0.7-0.8-1.2c-0.3-0.5-0.7-1-0.9-1.7c-1.3-2.5-2.5-6.2-2.7-10.1
					c-0.3-3.9,0.5-7.8,1.5-10.6c0.5-1.4,1.1-2.5,1.5-3.3c0.4-0.8,0.7-1.2,0.7-1.3c0,0,0.4-0.5,0.9-1.2c0.6-0.7,1.5-1.6,2.6-2.6
					c2.1-2.1,5.3-4.4,7.8-7.2c1.3-1.4,2.4-2.9,3-4.5c0.6-1.6,0.8-3.3,0.7-4.7c-0.1-1.4-0.4-2.6-0.7-3.4
					C344.4,181.1,344.3,180.6,344.3,180.6z"/>
			</g>
		</g>
		<g id="XMLID_7633_">
			<g id="XMLID_7634_">
				<path id="XMLID_7635_" class="st1" d="M342.4,123.1c0,0,0.5,0.3,1.3,0.8c0.4,0.2,0.9,0.6,1.4,1c0.6,0.4,1.2,0.8,1.8,1.4
					c1.3,1,2.6,2.4,4,4c1.3,1.6,2.6,3.4,3.7,5.4c1.1,2,1.9,4.1,2.5,6.1c0.6,2,1,4,1.2,5.7c0.2,1.7,0.2,3.2,0.2,4.2
					c0,1-0.1,1.6-0.1,1.7c0,0-0.1,0.6-0.3,1.6c-0.2,1-0.6,2.3-1.2,3.9c-1.1,3.2-3.3,7-6.2,10.3c-1.4,1.6-3.1,3.1-4.6,4.3
					c-1.6,1.2-3.2,2.2-4.6,2.9c-0.7,0.4-1.4,0.7-2,0.9c-0.6,0.3-1.1,0.5-1.6,0.6c-0.9,0.3-1.4,0.5-1.4,0.5s0.5-0.2,1.3-0.6
					c0.4-0.2,0.9-0.4,1.5-0.7c0.6-0.3,1.2-0.6,1.9-1.1c1.4-0.8,2.8-1.9,4.3-3.2c1.4-1.3,2.9-2.9,4.1-4.5c2.5-3.3,4.2-7.1,5-10.1
					c0.4-1.5,0.6-2.8,0.8-3.7c0.1-0.9,0.1-1.4,0.1-1.5c0,0,0.1-0.6,0.2-1.5c0.1-0.9,0.2-2.2,0.2-3.8c0-1.6-0.3-3.4-0.6-5.4
					c-0.4-1.9-1.1-4-1.9-5.9c-0.9-1.9-1.9-3.8-3.1-5.5c-1.2-1.6-2.4-3.1-3.6-4.2c-0.6-0.6-1.1-1.1-1.6-1.5c-0.5-0.4-0.9-0.8-1.3-1.1
					C342.8,123.4,342.4,123.1,342.4,123.1z"/>
			</g>
		</g>
		<g id="XMLID_7630_">
			<g id="XMLID_7631_">
				<path id="XMLID_7632_" class="st1" d="M348.4,133.9c0,0,0.1,0.4,0.4,1c0.2,0.7,0.6,1.6,1,2.8c0.7,2.3,1.4,5.5,1.7,8.8
					c0.2,3.3-0.1,6.7-0.8,9.2c-0.1,0.6-0.3,1.2-0.5,1.7c-0.2,0.5-0.3,0.9-0.5,1.3c-0.2,0.7-0.4,1.1-0.5,1.2c0,0-0.2,0.4-0.6,1.1
					c-0.4,0.6-1,1.5-1.9,2.4c-1.6,1.9-4.3,4-7.2,5.4c-1.5,0.7-3,1.2-4.5,1.5c-1.5,0.2-2.9,0.4-4.1,0.2c-0.6,0-1.1-0.1-1.6-0.2
					c-0.5-0.1-0.9-0.2-1.2-0.3c-0.7-0.2-1-0.3-1-0.3s0.4,0.1,1.1,0.2c0.3,0.1,0.7,0.1,1.2,0.1c0.5,0,1,0.1,1.6,0
					c1.2,0,2.5-0.3,3.9-0.7c1.4-0.4,2.8-1.1,4.1-1.8c2.6-1.6,4.7-3.8,6-5.6c0.7-0.9,1.1-1.7,1.4-2.3c0.3-0.6,0.4-0.9,0.5-1
					c0,0,0.2-0.4,0.5-1c0.1-0.3,0.3-0.7,0.5-1.1c0.2-0.4,0.5-0.9,0.6-1.5c0.8-2.2,1.5-5.3,1.7-8.4c0.1-3.2-0.2-6.4-0.7-8.7
					c-0.2-1.2-0.5-2.2-0.6-2.8C348.5,134.3,348.4,133.9,348.4,133.9z"/>
			</g>
		</g>
		<g id="XMLID_7627_">
			<g id="XMLID_7628_">
				<path id="XMLID_7629_" class="st1" d="M332.4,108c0,0,0.2,0.3,0.5,0.9c0.3,0.6,0.8,1.4,1.2,2.4c0.9,2.1,1.8,4.9,2.4,7.9
					c0.6,3,0.8,6.1,0.7,8.4c0,1.2-0.1,2.1-0.1,2.8c0,0.7-0.1,1.1-0.1,1.1c0,0-0.1,0.4-0.3,1.1c-0.2,0.7-0.4,1.6-0.8,2.6
					c-0.6,2.2-1.8,4.9-3.2,7.5c-1.5,2.6-3.2,4.9-4.6,6.6c-0.7,0.8-1.4,1.4-1.8,1.9c-0.4,0.5-0.7,0.7-0.7,0.7s0.2-0.3,0.6-0.8
					c0.4-0.5,1-1.2,1.5-2.1c1.2-1.8,2.6-4.3,3.7-6.9c1-2.7,1.8-5.4,2.2-7.5c0.2-1,0.3-1.9,0.4-2.6c0.1-0.6,0.1-1,0.1-1
					c0,0,0.1-0.4,0.2-1c0.1-0.6,0.3-1.5,0.4-2.6c0.3-2.2,0.4-5.1,0.3-8c-0.2-2.9-0.8-5.8-1.4-8c-0.3-1.1-0.7-1.9-0.8-2.5
					C332.5,108.4,332.4,108,332.4,108z"/>
			</g>
		</g>
		<g id="XMLID_7624_">
			<g id="XMLID_7625_">
				<path id="XMLID_7626_" class="st1" d="M337.9,156.1c0,0-0.5,0.2-1.3,0.6c-0.2,0.1-0.4,0.2-0.7,0.3c-0.3,0.1-0.6,0.2-0.9,0.3
					c-0.6,0.2-1.3,0.4-2.2,0.5c-0.4,0.1-0.8,0.1-1.3,0.2c-0.4,0-0.9,0-1.4,0c-0.9,0.1-1.9-0.1-2.9-0.2c-2-0.3-4.2-0.8-6.2-1.8
					c-4.1-1.7-7.6-4.5-10.1-6.7c-1.2-1.1-2.3-2-3-2.7c-0.7-0.7-1.1-1.1-1.2-1.1c-0.2-0.2-22.4-24.9-22.4-24.9s24.3,22.7,24.5,22.9
					c0,0,0.4,0.4,1.1,1.2c0.6,0.7,1.6,1.7,2.7,2.8c2.2,2.3,5.4,5.2,9.1,7.1c1.8,1,3.8,1.7,5.7,2.2c1,0.2,1.9,0.4,2.8,0.4
					c0.5,0,0.9,0.1,1.3,0.1c0.4,0,0.8-0.1,1.2-0.1c0.8,0,1.5-0.2,2.1-0.3c0.3-0.1,0.6-0.1,0.9-0.2c0.3-0.1,0.5-0.2,0.7-0.3
					C337.3,156.3,337.9,156.1,337.9,156.1z"/>
			</g>
		</g>
		<g id="XMLID_7621_">
			<g id="XMLID_7622_">
				<path id="XMLID_7623_" class="st1" d="M50.9,228.5c0,0-0.7-0.4-1.9-1c-1.1-0.7-2.8-1.7-4.5-3.3c-3.5-3.1-7.2-8.3-9.1-14.3
					c-2-6-2-12.5-1.4-17.2c0.2-1.2,0.3-2.3,0.5-3.2c0.2-0.9,0.4-1.8,0.6-2.5c0.3-1.4,0.6-2.2,0.6-2.2c0-0.1,0.3-0.8,0.8-2.1
					c0.1-0.3,0.3-0.7,0.4-1.1c0.2-0.4,0.4-0.8,0.6-1.2c0.4-0.8,0.8-1.8,1.4-2.8c2.1-4.1,5.5-9.2,9.5-13.7c3.9-4.6,8.2-8.7,11.5-11.8
					c3.3-3.1,5.5-5,5.5-5s-2.1,2.1-5.2,5.4c-3.1,3.2-7.1,7.6-10.6,12.4c-3.6,4.7-6.6,9.8-8.4,13.9c-0.5,1-0.8,2-1.2,2.8
					c-0.2,0.4-0.3,0.8-0.5,1.2c-0.1,0.4-0.2,0.7-0.3,1c-0.4,1.2-0.6,2-0.7,2c0,0-0.3,0.8-0.7,2.1c-0.2,0.6-0.4,1.4-0.7,2.3
					c-0.2,0.9-0.4,1.9-0.7,3c-0.8,4.4-1.2,10.6,0.3,16.4c1.5,5.9,4.8,11.2,8,14.4c1.6,1.7,3.2,2.7,4.3,3.5
					C50.2,228.1,50.9,228.5,50.9,228.5z"/>
			</g>
		</g>
		<g id="XMLID_7618_">
			<g id="XMLID_7619_">
				<path id="XMLID_7620_" class="st1" d="M52.1,232.4c0,0-0.4-0.1-1.2-0.3c-0.4-0.1-0.9-0.2-1.4-0.3c-0.3-0.1-0.6-0.1-0.9-0.2
					c-0.3-0.1-0.6-0.2-0.9-0.3c-2.6-0.8-5.9-2.4-9-4.5c-3-2.2-5.6-4.9-7.3-7.2c-0.9-1.1-1.4-2.2-1.9-2.9c-0.5-0.7-0.7-1.2-0.7-1.2
					c0,0-0.2-0.5-0.5-1.3c-0.3-0.8-0.7-1.9-1-3.2c-0.2-0.7-0.3-1.4-0.5-2.2c-0.1-0.8-0.2-1.6-0.3-2.4c0-0.4-0.1-0.9-0.1-1.3
					c0-0.4,0-0.9,0-1.3c0-0.9,0-1.8,0-2.7c0.2-1.8,0.3-3.6,0.8-5.2c0.3-1.6,0.9-3.1,1.3-4.3c0.2-0.6,0.5-1.2,0.7-1.7
					c0.2-0.5,0.4-0.9,0.6-1.3c0.3-0.7,0.5-1.1,0.5-1.1s-0.1,0.4-0.4,1.1c-0.1,0.4-0.3,0.8-0.5,1.3c-0.2,0.5-0.4,1.1-0.5,1.7
					c-0.3,1.3-0.7,2.7-0.8,4.4c-0.3,1.6-0.2,3.3-0.2,5.1c0,0.9,0.2,1.7,0.2,2.6c0,0.4,0.1,0.8,0.1,1.2c0.1,0.4,0.2,0.8,0.3,1.2
					c0.2,0.8,0.3,1.5,0.5,2.2c0.2,0.7,0.5,1.3,0.7,2c0.4,1.2,0.9,2.2,1.2,2.9c0.3,0.7,0.5,1.1,0.5,1.1c0,0,0.2,0.5,0.5,1.1
					c0.4,0.7,0.8,1.7,1.5,2.8c1.3,2.3,3.5,5,6.2,7.4c2.7,2.3,5.8,4.2,8.3,5.2c0.3,0.1,0.6,0.3,0.9,0.4c0.3,0.1,0.6,0.2,0.8,0.3
					c0.5,0.2,1,0.3,1.3,0.4C51.7,232.3,52.1,232.4,52.1,232.4z"/>
			</g>
		</g>
		<g id="XMLID_7615_">
			<g id="XMLID_7616_">
				<path id="XMLID_7617_" class="st1" d="M30.2,102c0,0-0.2,0.4-0.5,1.2c-0.2,0.4-0.3,0.8-0.5,1.4c-0.1,0.3-0.2,0.5-0.3,0.8
					c-0.1,0.3-0.1,0.6-0.2,1c-0.7,2.7-0.7,6.4,0.2,9.9c0.9,3.5,2.5,6.8,4,9c0.8,1.1,1.5,2,2,2.6c0.5,0.6,0.8,0.9,0.9,1
					c0,0,0.3,0.4,0.8,1c0.5,0.6,1.2,1.5,2.1,2.4c0.5,0.5,1,1,1.5,1.5c0.6,0.5,1.2,1,1.8,1.6c0.6,0.6,1.3,1.1,2,1.6
					c0.7,0.5,1.4,1.1,2.1,1.6c2.9,2.1,6,4,8.3,5.4c2.3,1.4,3.9,2.3,3.9,2.3s-1.6-0.8-4.1-1.9c-2.4-1.2-5.7-2.7-8.8-4.6
					c-0.8-0.4-1.6-1-2.3-1.4c-0.8-0.5-1.5-1-2.2-1.5c-0.7-0.5-1.4-1-2-1.5c-0.6-0.5-1.2-1-1.7-1.5c-1.1-0.9-1.9-1.7-2.5-2.3
					c-0.6-0.6-0.9-1-1-1c0,0-0.4-0.4-0.8-1.1c-0.5-0.7-1.2-1.7-1.9-3c-1.4-2.6-2.8-6.2-3.4-10c-0.6-3.8-0.2-7.6,0.8-10.3
					c0.1-0.3,0.2-0.7,0.3-1c0.1-0.3,0.3-0.6,0.4-0.8c0.2-0.5,0.4-1,0.6-1.3C30,102.4,30.2,102,30.2,102z"/>
			</g>
		</g>
		<g id="XMLID_7612_">
			<g id="XMLID_7613_">
				<path id="XMLID_7614_" class="st1" d="M29.7,99.4c0,0,0,0.5,0.1,1.3c0,0.4,0.1,0.9,0.2,1.5c0,0.3,0.1,0.6,0.1,0.9
					c0.1,0.3,0.2,0.7,0.2,1c0.2,0.7,0.3,1.5,0.5,2.3c0.2,0.8,0.6,1.6,0.9,2.4c0.2,0.4,0.3,0.8,0.5,1.3c0.2,0.4,0.4,0.8,0.6,1.3
					c0.4,0.8,0.8,1.7,1.3,2.5c2,3.3,4.4,6.2,6.4,8.2c1,1,1.9,1.8,2.6,2.4c0.6,0.6,1,0.9,1,0.9c0,0,0.4,0.4,1,0.9
					c0.6,0.6,1.4,1.4,2.6,2.2c2.1,1.8,5.2,3.9,8.4,6c3.2,2,6.5,3.8,9,5c2.5,1.3,4.2,2.1,4.2,2.1s-1.8-0.7-4.4-1.7
					c-2.6-1.1-6.1-2.5-9.5-4.2c-3.4-1.7-6.8-3.6-9.1-5.3c-1.2-0.8-2.2-1.6-2.9-2.1c-0.7-0.5-1.1-0.8-1.1-0.9c0,0-0.4-0.4-1-1
					c-0.6-0.7-1.5-1.5-2.5-2.7c-1.9-2.3-4.2-5.6-5.9-9.2c-0.4-0.9-0.7-1.8-1.1-2.7c-0.2-0.5-0.4-0.9-0.5-1.4
					c-0.1-0.5-0.2-0.9-0.4-1.4c-0.2-0.9-0.5-1.7-0.6-2.6c-0.1-0.8-0.2-1.6-0.3-2.4c-0.1-0.4-0.1-0.7-0.1-1c0-0.3,0-0.7,0-0.9
					c0-0.6,0-1.1,0-1.5C29.7,99.8,29.7,99.4,29.7,99.4z"/>
			</g>
		</g>
		<g id="XMLID_7609_">
			<g id="XMLID_7610_">
				<path id="XMLID_7611_" class="st1" d="M75.7,55.6c0,0,0.4-0.1,1-0.4c0.7-0.2,1.6-0.7,2.7-1c2.3-0.8,5.3-1.6,8.5-2.2
					c3.2-0.6,6.4-0.8,8.9-0.9c1.2-0.1,2.3,0,3,0c0.7,0,1.2,0,1.2,0c0,0,0.4,0.1,1.1,0.2c0.7,0.1,1.7,0.3,2.8,0.5
					c2.3,0.5,5.4,1.4,8.3,2.4c2.9,1.1,5.7,2.4,7.8,3.5c1,0.5,1.8,1.1,2.4,1.4c0.6,0.3,0.9,0.5,0.9,0.5s-0.4-0.2-1-0.4
					c-0.6-0.3-1.5-0.7-2.5-1.1c-2.1-0.9-5-1.8-8-2.6c-3-0.7-6-1.2-8.3-1.4c-1.1-0.1-2.1-0.2-2.8-0.2c-0.7,0-1.1-0.1-1.1-0.1
					c0,0-0.4-0.1-1.1-0.1c-0.7-0.1-1.7-0.2-2.8-0.3c-2.3-0.2-5.5-0.3-8.6-0.1c-3.1,0.2-6.3,0.7-8.6,1.2c-1.2,0.2-2.1,0.5-2.8,0.7
					C76.1,55.5,75.7,55.6,75.7,55.6z"/>
			</g>
		</g>
		<g id="XMLID_7606_">
			<g id="XMLID_7607_">
				<path id="XMLID_7608_" class="st1" d="M142.9,87.3c0,0,1.6,1.8,3.9,4.6c2.4,2.7,5.6,6.3,9.1,9.6c3.5,3.3,7.3,6.2,10.4,8
					c1.5,0.9,2.9,1.6,3.8,2.1c1,0.4,1.5,0.7,1.6,0.7c0,0,0.6,0.3,1.5,0.7c0.9,0.4,2.2,1,3.9,1.5c3.3,1,7.8,1.9,12.4,1.7
					c4.6-0.1,9.2-1.2,12.5-2.3c1.7-0.5,3-1.1,3.9-1.5c0.9-0.4,1.5-0.6,1.5-0.6s-0.5,0.3-1.4,0.8c-0.9,0.5-2.2,1.2-3.8,1.8
					c-3.2,1.4-7.8,2.9-12.5,3.4c-4.8,0.6-9.6,0-13.2-0.8c-1.8-0.4-3.2-0.9-4.3-1.3c-1-0.4-1.6-0.7-1.6-0.7c0,0-0.6-0.3-1.6-0.9
					c-1-0.6-2.3-1.4-3.9-2.5c-3.1-2.2-6.8-5.4-10.1-9c-3.3-3.6-6.3-7.4-8.4-10.3C144.3,89.3,142.9,87.3,142.9,87.3z"/>
			</g>
		</g>
		<g id="XMLID_7603_">
			<g id="XMLID_7604_">
				<path id="XMLID_7605_" class="st1" d="M223.3,87.8c0,0,0.3,0,0.8-0.1c0.5,0,1.3-0.2,2.2-0.2c1.8-0.1,4.2,0,6.7,0.3
					c2.4,0.3,4.8,0.9,6.6,1.5c0.9,0.3,1.6,0.6,2.2,0.7c0.5,0.2,0.8,0.3,0.8,0.3c0,0,0.3,0.2,0.8,0.5c0.5,0.3,1.1,0.7,1.9,1.2
					c1.5,1,3.4,2.5,5.1,4.2c1.7,1.7,3.2,3.5,4.2,4.9c0.5,0.7,0.9,1.3,1.2,1.8c0.3,0.4,0.4,0.7,0.4,0.7s-0.2-0.2-0.5-0.6
					c-0.4-0.4-0.8-0.9-1.4-1.5c-1.2-1.2-2.9-2.8-4.8-4.1c-1.9-1.3-3.8-2.5-5.4-3.2c-0.8-0.4-1.4-0.7-1.9-0.9
					c-0.5-0.2-0.7-0.3-0.8-0.3c0,0-0.3-0.2-0.7-0.4c-0.5-0.2-1.1-0.6-1.9-1c-1.6-0.8-3.8-1.7-6-2.3c-2.3-0.6-4.6-1.1-6.4-1.2
					c-0.9-0.1-1.6-0.1-2.2-0.1C223.6,87.8,223.3,87.8,223.3,87.8z"/>
			</g>
		</g>
		<g id="XMLID_7600_">
			<g id="XMLID_7601_">
				<path id="XMLID_7602_" class="st1" d="M43.7,210.5c0,0,0-0.4-0.1-1c0-0.6-0.2-1.5-0.2-2.6c-0.2-2.1-0.1-5,0.2-7.9
					c0.3-2.9,0.9-5.8,1.5-7.9c0.3-1.1,0.6-1.9,0.8-2.6c0.2-0.6,0.3-1,0.4-1c0,0,0.2-0.4,0.5-0.9c0.3-0.6,0.7-1.4,1.3-2.3
					c1.1-1.9,2.8-4.2,4.6-6.4c1.8-2.1,3.9-4.1,5.4-5.4c0.8-0.7,1.5-1.2,2-1.6c0.5-0.4,0.8-0.6,0.8-0.6s-0.2,0.2-0.7,0.7
					c-0.4,0.4-1.1,1-1.7,1.8c-1.4,1.5-3.1,3.7-4.6,6c-1.5,2.3-2.8,4.7-3.5,6.6c-0.4,0.9-0.7,1.7-0.9,2.3c-0.2,0.6-0.3,0.9-0.4,0.9
					c0,0-0.2,0.3-0.4,0.9c-0.3,0.6-0.7,1.4-1.1,2.3c-0.8,1.9-1.7,4.6-2.4,7.3c-0.6,2.7-1,5.6-1.2,7.7c-0.1,1.1-0.1,2-0.1,2.6
					C43.8,210.1,43.7,210.5,43.7,210.5z"/>
			</g>
		</g>
		<g id="XMLID_7597_">
			<g id="XMLID_7598_">
				<path id="XMLID_7599_" class="st1" d="M61.9,250c0,0,0.1-0.4,0.3-1.2c0.1-0.4,0.2-0.8,0.3-1.3c0.1-0.3,0.1-0.5,0.2-0.8
					c0-0.3,0.1-0.6,0.1-0.9c0.4-2.6,0.4-6.1,0-9.5c-0.4-3.4-1.2-6.8-1.9-9.3c-0.3-1.3-0.7-2.3-0.9-3.1c-0.2-0.7-0.4-1.2-0.4-1.2
					c0-0.1-0.4-1.8-0.9-4.3c-0.6-2.5-1.3-5.9-1.9-9.3c-0.6-3.4-1-6.8-1-9.4c-0.1-1.3,0-2.3,0-3.1c0-0.7,0-1.2,0-1.2s0,0.4,0.1,1.2
					c0.1,0.7,0.1,1.8,0.3,3.1c0.3,2.5,1.1,5.8,2,9.1c1,3.3,2.1,6.5,2.9,8.9c0.8,2.5,1.4,4.1,1.4,4.2c0,0,0.1,0.5,0.3,1.3
					c0.1,0.8,0.4,1.9,0.6,3.2c0.5,2.7,0.9,6.2,1,9.8c0,3.6-0.3,7.1-1,9.7c-0.1,0.3-0.1,0.6-0.2,0.9c-0.1,0.3-0.2,0.6-0.3,0.8
					c-0.2,0.5-0.3,0.9-0.5,1.3C62,249.6,61.9,250,61.9,250z"/>
			</g>
		</g>
		<g id="XMLID_7594_">
			<g id="XMLID_7595_">
				<path id="XMLID_7596_" class="st1" d="M52.5,270.4c0,0,0.5-1.1,1.1-2.7c0.8-1.6,1.3-3.9,2-6.2c0.4-2.3,1-4.6,1-6.4
					c0.1-1.8,0.3-2.9,0.2-3c0,0,0.2-1.2,0.4-2.9c0.1-0.4,0.1-0.9,0.2-1.4c0-0.5,0.1-1,0.1-1.5c0-1.1,0.1-2.2,0.1-3.3
					c-0.1-2.3-0.1-4.6-0.5-6.3c-0.3-1.7-0.4-2.9-0.4-2.9s0.4,1.1,0.9,2.8c0.6,1.6,1,3.9,1.5,6.2c0.2,1.2,0.3,2.3,0.4,3.4
					c0.1,0.6,0.1,1.1,0.2,1.6c0,0.5,0,1,0,1.4c0,1.8,0,3,0,3.1c0,0,0,0.3-0.2,0.9c-0.1,0.5-0.3,1.3-0.5,2.2c-0.3,1.8-1.3,4.1-2,6.4
					c-1,2.2-1.9,4.4-3,5.9C53.2,269.4,52.5,270.4,52.5,270.4z"/>
			</g>
		</g>
		<g id="XMLID_7591_">
			<g id="XMLID_7592_">
				<path id="XMLID_7593_" class="st1" d="M55.6,282.1c0,0,0.4-0.7,1-1.9c0.7-1.1,1.3-2.7,1.9-4.2c0.5-1.6,1.1-3.2,1.3-4.4
					c0.1-0.6,0.3-1.1,0.3-1.5c0.1-0.4,0.1-0.6,0.1-0.6c0,0,0.3-0.8,0.7-1.9c0.1-0.3,0.2-0.6,0.3-0.9c0.1-0.3,0.2-0.7,0.3-1.1
					c0.2-0.7,0.4-1.5,0.6-2.3c0.3-1.6,0.6-3.2,0.6-4.5c0.1-1.2,0.2-2.1,0.2-2.1s0.1,0.8,0.3,2.1c0.2,1.2,0.2,2.9,0.3,4.6
					c0,0.8-0.1,1.7-0.1,2.5c0,0.4,0,0.8-0.1,1.2c-0.1,0.4-0.1,0.7-0.1,1c-0.2,1.3-0.3,2.2-0.3,2.2c0,0-0.1,0.2-0.3,0.6
					c-0.2,0.4-0.4,0.9-0.7,1.5c-0.5,1.2-1.5,2.7-2.3,4.3c-1,1.4-2,2.9-2.9,3.8C56.1,281.4,55.6,282.1,55.6,282.1z"/>
			</g>
		</g>
		<g id="XMLID_7588_">
			<g id="XMLID_7589_">
				<path id="XMLID_7590_" class="st1" d="M63.1,292.6c0,0,0.5-7.5,0.5-7.6c0-0.1,3.3-6.6,3.3-6.6s-0.5,7.3-0.5,7.4
					C66.4,285.9,63.1,292.6,63.1,292.6z"/>
			</g>
		</g>
		<g id="XMLID_7585_">
			<g id="XMLID_7586_">
				<path id="XMLID_7587_" class="st1" d="M50.3,237.1c0,0-1.6,9.2-1.7,9.3c0,0.1-4.3,8.1-4.3,8.1s1.5-9,1.6-9
					C45.9,245.3,50.3,237.1,50.3,237.1z"/>
			</g>
		</g>
		<g id="XMLID_7582_">
			<g id="XMLID_7583_">
				<path id="XMLID_7584_" class="st1" d="M310.3,273.2c0,0-0.2-0.4-0.6-1.1c-0.2-0.3-0.4-0.8-0.6-1.3c-0.2-0.5-0.5-1.1-0.7-1.7
					c-1-2.5-1.6-6.1-1.5-9.8c0-3.6,0.6-7.2,1.1-9.9c0.3-1.3,0.5-2.5,0.7-3.2c0.2-0.8,0.3-1.2,0.3-1.3c0-0.1,0.6-1.7,1.6-4.2
					c0.9-2.4,2.1-5.7,3.2-8.9c1-3.3,1.7-6.6,1.9-9.2c0.1-0.6,0.1-1.2,0.1-1.7c0-0.5,0-1,0-1.4c0-0.8,0-1.2,0-1.2s0,0.4,0.1,1.2
					c0,0.4,0.1,0.8,0.1,1.4c0.1,0.5,0.1,1.1,0.1,1.8c0.1,2.6-0.3,6.1-0.9,9.5c-0.7,3.4-1.6,6.8-2.3,9.3c-0.7,2.5-1.1,4.2-1.1,4.3
					c0,0-0.2,0.5-0.4,1.2c-0.3,0.7-0.6,1.8-1,3.1c-0.8,2.5-1.7,5.9-2.1,9.4c-0.4,3.5-0.2,7,0.5,9.6c0.1,0.6,0.3,1.2,0.5,1.7
					c0.2,0.5,0.3,1,0.5,1.3C310.1,272.8,310.3,273.2,310.3,273.2z"/>
			</g>
		</g>
		<g id="XMLID_7579_">
			<g id="XMLID_7580_">
				<path id="XMLID_7581_" class="st1" d="M313.1,261.1c0,0,0.2-3.4,0.4-6.9c0.3-1.7,0.5-3.4,0.7-4.8c0.1-0.7,0.2-1.2,0.2-1.6
					c0.1-0.4,0.1-0.6,0.1-0.6c0,0,1.5-3.1,2.9-6.2c1.7-2.9,3.4-5.8,3.4-5.8s-1,3.2-2,6.3c-0.7,3.2-1.5,6.5-1.5,6.5
					c0,0-0.1,0.2-0.2,0.6c-0.1,0.4-0.3,0.9-0.5,1.5c-0.5,1.2-1,2.8-1.6,4.4C314,257.8,313.1,261.1,313.1,261.1z"/>
			</g>
		</g>
		<g id="XMLID_7576_">
			<g id="XMLID_7577_">
				<path id="XMLID_7578_" class="st1" d="M343.7,193.1c0,0-0.3,0.1-0.9,0.3c-0.5,0.2-1.4,0.4-2.2,0.8c-1.8,0.7-4.1,1.9-6.3,3.4
					c-2.1,1.5-3.9,3.3-5.1,4.8c-0.6,0.7-1,1.4-1.4,1.9c-0.3,0.4-0.5,0.7-0.5,0.8c0,0-0.2,0.3-0.6,0.7c-0.3,0.4-0.9,1-1.3,1.8
					c-1.1,1.5-2.2,3.8-3.1,6.1c-0.8,2.4-1.3,4.9-1.5,6.8c-0.1,0.9-0.1,1.7-0.1,2.3c0,0.6,0,0.9,0,0.9s0-0.3-0.1-0.9
					c0-0.6-0.2-1.4-0.2-2.3c-0.1-1.9,0-4.5,0.6-7.1c0.6-2.6,1.4-5.1,2.4-6.9c0.4-0.9,0.9-1.7,1.2-2.2c0.3-0.5,0.5-0.8,0.5-0.8
					c0,0,0.2-0.3,0.7-0.8c0.4-0.4,1-1.1,1.8-1.8c1.5-1.4,3.7-3.1,6.1-4.4c2.4-1.2,4.9-2.2,6.9-2.6c1-0.3,1.8-0.3,2.4-0.5
					C343.4,193.1,343.7,193.1,343.7,193.1z"/>
			</g>
		</g>
		<g id="XMLID_7573_">
			<g id="XMLID_7574_">
				<path id="XMLID_7575_" class="st1" d="M321.8,59.5c0,0-0.3-0.7-0.9-1.9c-0.7-1.1-1.6-2.8-3.1-4.4c-2.9-3.4-7.9-6.9-13.6-8.3
					c-5.7-1.6-11.7-0.9-15.8,0.3c-1,0.3-2,0.6-2.8,0.9c-0.8,0.4-1.5,0.7-2.1,0.9c-1.2,0.5-1.9,0.9-1.9,0.9c0,0-0.7,0.4-1.8,0.9
					c-0.3,0.1-0.6,0.3-0.9,0.5c-0.3,0.2-0.7,0.4-1,0.6c-0.7,0.5-1.6,1-2.5,1.6c-3.5,2.4-7.7,6.4-11,11.2c-3.3,4.7-5.8,10-7.3,14
					c-0.4,1-0.7,2-1,2.8c-0.3,0.8-0.5,1.6-0.7,2.2c-0.4,1.2-0.6,1.9-0.6,1.9s0.2-0.7,0.5-1.9c0.2-0.6,0.3-1.4,0.6-2.2
					c0.3-0.9,0.5-1.8,0.8-2.9c1.3-4.2,3.5-9.7,6.6-14.7c3-5.1,7.1-9.5,10.7-12.3c0.9-0.7,1.8-1.3,2.5-1.8c0.4-0.3,0.7-0.5,1.1-0.8
					c0.4-0.2,0.7-0.4,1-0.6c1.2-0.7,1.9-1.1,1.9-1.1c0,0,0.8-0.4,2.1-0.9c0.7-0.2,1.4-0.5,2.3-0.9c0.9-0.3,2-0.5,3.1-0.8
					c4.5-1,11-1.4,16.9,0.6c5.9,1.9,10.8,5.8,13.6,9.4c1.4,1.8,2.2,3.5,2.8,4.7C321.5,58.9,321.8,59.5,321.8,59.5z"/>
			</g>
		</g>
		<g id="XMLID_7570_">
			<g id="XMLID_7571_">
				<path id="XMLID_7572_" class="st1" d="M313,45.4c0,0-0.6-0.3-1.6-0.7c-0.5-0.2-1.1-0.5-1.8-0.8c-0.4-0.2-0.7-0.3-1.1-0.5
					c-0.4-0.1-0.8-0.3-1.3-0.4c-0.9-0.3-1.9-0.6-2.9-1c-1-0.4-2.2-0.5-3.3-0.8c-2.3-0.6-4.8-0.7-7.3-1c-5-0.2-10,0.4-13.7,1.3
					c-0.9,0.1-1.7,0.5-2.5,0.7c-0.7,0.2-1.4,0.4-1.9,0.6c-0.5,0.2-0.9,0.3-1.2,0.4c-0.3,0.1-0.4,0.2-0.5,0.2c0,0-0.6,0.2-1.6,0.6
					c-1,0.4-2.5,0.8-4.1,1.7c-0.8,0.4-1.7,0.9-2.6,1.3c-0.9,0.6-1.8,1.2-2.8,1.8c-0.5,0.3-1,0.6-1.5,0.9c-0.5,0.4-0.9,0.7-1.4,1.1
					c-0.9,0.8-1.9,1.5-2.8,2.3c-0.9,0.9-1.7,1.7-2.6,2.6l-0.6,0.6l-0.6,0.7c-0.4,0.5-0.7,0.9-1.1,1.4c-1.5,1.7-2.6,3.6-3.6,5.1
					c-0.5,0.8-0.9,1.5-1.2,2.2c-0.3,0.7-0.6,1.3-0.9,1.7c-0.5,1-0.8,1.5-0.8,1.5s0.2-0.6,0.6-1.6c0.2-0.5,0.5-1.1,0.7-1.8
					c0.3-0.7,0.6-1.5,1.1-2.3c0.9-1.6,1.9-3.6,3.3-5.4c0.3-0.5,0.7-1,1-1.5l0.5-0.7l0.6-0.7c0.8-0.9,1.6-1.9,2.5-2.8
					c0.9-0.9,1.8-1.7,2.7-2.6c0.5-0.4,0.9-0.8,1.4-1.3c0.5-0.4,1-0.7,1.4-1.1c1-0.7,1.9-1.4,2.8-2.1c0.9-0.6,1.8-1.1,2.7-1.6
					c1.6-1.1,3.1-1.7,4.2-2.1c1-0.5,1.7-0.8,1.7-0.8c0,0,0.2-0.1,0.5-0.2c0.3-0.1,0.8-0.2,1.3-0.4c0.6-0.1,1.3-0.3,2-0.5
					c0.8-0.2,1.7-0.5,2.6-0.6c3.9-0.7,9.2-0.9,14.3-0.4c2.5,0.5,5.1,0.8,7.4,1.6c1.1,0.4,2.3,0.6,3.3,1c1,0.4,2,0.8,2.9,1.2
					c0.4,0.2,0.9,0.4,1.3,0.5c0.4,0.2,0.7,0.4,1.1,0.6c0.7,0.4,1.3,0.7,1.8,1C312.5,45.1,313,45.4,313,45.4z"/>
			</g>
		</g>
		<g id="XMLID_7567_">
			<g id="XMLID_7568_">
				<path id="XMLID_7569_" class="st1" d="M242.7,75.6c0,0-0.1-0.4-0.4-1.2c-0.1-0.4-0.3-0.9-0.4-1.4c-0.1-0.6-0.3-1.2-0.4-1.9
					c-0.5-2.8-0.4-6.7-0.1-10.5c0.4-3.8,0.8-7.5,0.9-10.3c0.1-1.4,0-2.6,0-3.4c0-0.8,0-1.3,0-1.3c0,0,0-0.5,0-1.3
					c0-0.8-0.1-1.9-0.3-3.2c-0.3-2.6-1.4-6-3.6-8.7c-1.1-1.3-2.5-2.4-4-3.1c-1.5-0.7-3-1.1-4.4-1.2c-1.3-0.1-2.5,0.1-3.2,0.3
					c-0.4,0.1-0.7,0.2-0.9,0.3c-0.2,0.1-0.3,0.1-0.3,0.1s0.1-0.1,0.3-0.1c0.2-0.1,0.5-0.3,0.8-0.4c0.7-0.3,1.9-0.6,3.3-0.7
					c1.4,0,3.1,0.2,4.7,0.8c1.7,0.6,3.3,1.6,4.7,3c2.8,2.7,4.3,6.4,5,9.3c0.4,1.4,0.5,2.6,0.6,3.5c0.1,0.9,0.1,1.4,0.1,1.4
					c0,0,0,0.6-0.1,1.4c-0.1,0.9-0.1,2.1-0.4,3.6c-0.4,2.9-1.2,6.6-1.9,10.3c-0.7,3.7-1.1,7.4-0.9,10.2c0,0.7,0.1,1.3,0.2,1.9
					c0.1,0.6,0.1,1.1,0.2,1.5C242.6,75.2,242.7,75.6,242.7,75.6z"/>
			</g>
		</g>
		<g id="XMLID_7564_">
			<g id="XMLID_7565_">
				<path id="XMLID_7566_" class="st1" d="M233.5,71.6c0,0-0.4-0.3-1.2-0.9c-0.4-0.3-0.8-0.6-1.3-1c-0.5-0.4-1-0.9-1.6-1.5
					c-2.2-2.3-4.7-5.8-6.5-9.6c-1.9-3.8-3.1-7.9-4.1-11c-0.9-3-1.5-5.1-1.6-5.2c0-0.1-0.5-2.1-1.2-5.1c-0.4-1.5-0.9-3.2-1.4-5
					c-0.3-0.9-0.7-1.8-1-2.7c-0.4-0.9-0.8-1.8-1.2-2.7c-1.7-3.6-4.2-6.8-6.5-8.8c-0.6-0.5-1.1-0.9-1.6-1.3c-0.5-0.4-1-0.6-1.3-0.9
					c-0.8-0.5-1.2-0.7-1.2-0.7s0.5,0.2,1.2,0.6c0.4,0.2,0.9,0.4,1.4,0.8c0.5,0.4,1.1,0.8,1.7,1.2c2.5,1.8,5.3,4.9,7.5,8.5
					c0.5,0.9,1,1.8,1.5,2.7c0.4,0.9,0.9,1.8,1.3,2.7c0.7,1.8,1.3,3.5,1.9,5c0.9,3,1.6,5,1.6,5c0,0,0.1,0.6,0.3,1.5
					c0.2,0.9,0.5,2.2,0.8,3.8c0.7,3.1,1.6,7.2,3,11c1.4,3.9,3.5,7.5,5.5,9.9c0.5,0.6,1,1.1,1.4,1.6c0.4,0.5,0.9,0.8,1.2,1.1
					C233.1,71.3,233.5,71.6,233.5,71.6z"/>
			</g>
		</g>
		<g id="XMLID_7561_">
			<g id="XMLID_7562_">
				<path id="XMLID_7563_" class="st1" d="M200.1,82.6c0,0-0.7,0.1-1.9,0.3c-0.6,0.1-1.3,0.2-2.2,0.3c-0.8,0.1-1.8,0.1-2.8,0.1
					c-1,0.1-2.2-0.1-3.4-0.1c-1.2-0.2-2.4-0.2-3.7-0.5c-2.6-0.5-5.3-1.3-7.9-2.4c-2.6-1.1-5.1-2.5-7.2-4c-2.1-1.6-4.1-3.2-5.5-4.8
					c-1.5-1.6-2.6-3-3.3-4.1c-0.8-1-1.1-1.7-1.2-1.7c0,0-0.4-0.7-0.9-1.8c-0.5-1.1-1.3-2.7-2-4.6c-1.6-3.8-3.2-8.9-5-13.9
					c-1.8-5-4.1-9.8-6.6-13c-0.6-0.8-1.2-1.5-1.7-2.1c-0.3-0.3-0.5-0.6-0.8-0.8c-0.3-0.2-0.5-0.5-0.7-0.7c-0.9-0.8-1.3-1.2-1.3-1.2
					s0.5,0.4,1.4,1.2c0.2,0.2,0.5,0.4,0.8,0.6c0.3,0.2,0.5,0.5,0.8,0.8c0.6,0.6,1.3,1.2,1.9,2c2.7,3,5.4,7.8,7.5,12.7
					c2.2,4.9,4.2,9.9,5.9,13.5c0.9,1.8,1.7,3.2,2.2,4.3c0.6,1,1,1.6,1,1.6c0,0,0.3,0.7,1,1.7c0.6,1,1.5,2.4,2.8,4
					c1.2,1.6,2.9,3.2,4.9,4.8c2,1.6,4.2,3.1,6.7,4.3c2.4,1.2,5,2.2,7.4,2.8c1.2,0.4,2.4,0.5,3.6,0.8c1.2,0.1,2.3,0.3,3.3,0.3
					c1,0,2,0.1,2.8,0.1c0.8,0,1.6,0,2.2-0.1C199.5,82.6,200.1,82.6,200.1,82.6z"/>
			</g>
		</g>
		<g id="XMLID_7558_">
			<g id="XMLID_7559_">
				<path id="XMLID_7560_" class="st1" d="M127.4,137.5c0,0,0.2-0.7,0.5-1.7c0.2-1.1,0.8-2.4,1.4-3.8c0.7-1.3,1.3-2.7,1.9-3.7
					c0.3-0.5,0.6-0.9,0.7-1.2c0.2-0.3,0.3-0.5,0.3-0.5c0,0,0.6-0.5,1.5-1.2c0.4-0.4,0.9-0.8,1.5-1.1c0.6-0.4,1.2-0.8,1.8-1.2
					c1.3-0.7,2.5-1.4,3.5-1.8c1-0.4,1.6-0.7,1.6-0.7s-0.6,0.4-1.4,1.1c-0.9,0.6-1.8,1.6-2.8,2.6c-0.5,0.5-0.9,1-1.3,1.5
					c-0.4,0.5-0.8,0.9-1.1,1.4c-0.6,0.8-1,1.4-1,1.4c0,0-0.2,0.1-0.4,0.3c-0.2,0.2-0.5,0.5-0.9,0.9c-0.8,0.7-1.7,1.8-2.6,2.9
					c-0.8,1.2-1.7,2.3-2.2,3.3C127.7,136.9,127.4,137.5,127.4,137.5z"/>
			</g>
		</g>
		<g id="XMLID_7555_">
			<g id="XMLID_7556_">
				<path id="XMLID_7557_" class="st1" d="M55.4,156.2c0,0-0.3-0.3-0.8-0.7c-0.2-0.2-0.5-0.5-0.9-0.8c-0.2-0.2-0.3-0.3-0.5-0.5
					c-0.2-0.1-0.4-0.3-0.7-0.5c-1.8-1.4-4.4-2.7-7.2-3.7c-2.8-0.8-5.7-1.1-7.9-1c-1.1,0-2,0.2-2.6,0.3c-0.6,0.1-1,0.2-1,0.2
					c0,0-0.4,0.1-1,0.1c-0.6,0.1-1.5,0.1-2.5,0.5c-0.5,0.1-1.1,0.3-1.6,0.4c-0.6,0.2-1.2,0.5-1.8,0.7c-0.3,0.1-0.6,0.2-0.9,0.4
					c-0.3,0.2-0.6,0.3-0.9,0.5c-0.6,0.3-1.2,0.6-1.8,1c-1.2,0.8-2.3,1.6-3.3,2.6c-1,0.9-1.8,1.9-2.5,2.7c-0.4,0.4-0.6,0.8-0.9,1.2
					c-0.2,0.4-0.5,0.7-0.6,1c-0.4,0.5-0.6,0.8-0.6,0.8s0.2-0.3,0.4-0.9c0.1-0.3,0.3-0.6,0.5-1c0.2-0.4,0.4-0.9,0.7-1.3
					c0.6-0.9,1.3-2,2.2-3c0.9-1.1,2-2.1,3.1-3.1c0.6-0.5,1.2-0.9,1.8-1.3c0.3-0.2,0.6-0.4,0.9-0.6c0.3-0.2,0.6-0.4,0.9-0.5
					c0.6-0.3,1.2-0.7,1.8-1c0.6-0.2,1.2-0.5,1.7-0.7c1.1-0.5,2-0.7,2.7-0.8c0.7-0.2,1.1-0.3,1.1-0.3c0,0,0.4-0.1,1.2-0.1
					c0.7,0,1.7-0.1,2.9,0.1c2.4,0.2,5.5,0.9,8.3,2.1c2.8,1.3,5.3,3.1,7,4.7c0.2,0.2,0.4,0.4,0.6,0.5c0.2,0.2,0.3,0.4,0.5,0.6
					c0.3,0.3,0.6,0.6,0.8,0.9C55.1,155.9,55.4,156.2,55.4,156.2z"/>
			</g>
		</g>
		<g id="XMLID_7552_">
			<g id="XMLID_7553_">
				<path id="XMLID_7554_" class="st1" d="M40.8,137.8c0,0-0.3,0-0.9,0c-0.5,0.1-1.3,0-2.3,0.2c-1.9,0.2-4.3,0.8-6.5,1.7
					c-2.2,1-4.3,2.3-5.7,3.4c-0.7,0.6-1.2,1.1-1.6,1.5c-0.4,0.4-0.6,0.6-0.6,0.6c0,0-0.2,0.2-0.6,0.6c-0.4,0.3-1,0.8-1.5,1.5
					c-0.3,0.3-0.6,0.7-1,1c-0.3,0.4-0.6,0.8-1,1.3c-0.2,0.2-0.3,0.4-0.5,0.7c-0.1,0.2-0.3,0.5-0.4,0.7c-0.3,0.5-0.6,1-0.9,1.5
					c-1.1,2.1-1.9,4.4-2.2,6.2c-0.2,0.9-0.3,1.6-0.4,2.2c-0.1,0.5-0.1,0.8-0.1,0.8s0-0.3,0-0.8c0-0.5-0.1-1.3,0-2.2
					c0.1-1.8,0.5-4.3,1.4-6.7c0.9-2.3,2-4.7,3.2-6.2c0.5-0.8,1.1-1.4,1.5-1.9c0.4-0.4,0.6-0.7,0.6-0.7c0,0,0.3-0.3,0.8-0.6
					c0.5-0.3,1.1-0.9,2-1.4c1.7-1,4.1-2.1,6.6-2.8c2.5-0.6,5.1-0.9,7-0.8c0.9,0,1.7,0.1,2.3,0.2C40.5,137.7,40.8,137.8,40.8,137.8z"
					/>
			</g>
		</g>
		<g id="XMLID_7549_">
			<g id="XMLID_7550_">
				<path id="XMLID_7551_" class="st1" d="M49.5,155.7c0,0-0.3,0-0.8-0.1c-0.5,0-1.3-0.2-2.2-0.2c-1.8-0.1-4.3,0.2-6.6,0.7
					c-2.3,0.6-4.5,1.6-6,2.5c-0.8,0.4-1.3,0.9-1.8,1.2c-0.4,0.3-0.7,0.5-0.7,0.5c0,0-0.3,0.2-0.7,0.4c-0.4,0.3-1.1,0.6-1.7,1.2
					c-1.4,1-3,2.7-4.4,4.5c-1.4,1.9-2.4,4-3,5.7c-0.3,0.8-0.5,1.6-0.6,2.1c-0.1,0.5-0.2,0.8-0.2,0.8s0-0.3,0.1-0.8
					c0.1-0.5,0.1-1.3,0.3-2.2c0.3-1.8,1.1-4.1,2.2-6.3c1.2-2.2,2.6-4.3,4-5.6c0.6-0.7,1.3-1.2,1.7-1.6c0.4-0.4,0.7-0.6,0.7-0.6
					c0,0,0.3-0.2,0.8-0.5c0.5-0.3,1.2-0.7,2.2-1c1.8-0.8,4.3-1.5,6.8-1.8c2.5-0.2,5.1-0.1,6.9,0.3c0.9,0.1,1.7,0.4,2.2,0.5
					C49.2,155.6,49.5,155.7,49.5,155.7z"/>
			</g>
		</g>
		<g id="XMLID_7546_">
			<g id="XMLID_7547_">
				<path id="XMLID_7548_" class="st1" d="M19.2,201.7c0,0,0-0.4,0-1c0-0.6-0.1-1.5,0-2.6c0.1-2.2,0.5-5.1,1.1-7.9
					c0.7-2.8,1.8-5.6,2.7-7.7c0.5-1,0.9-1.8,1.2-2.4c0.3-0.6,0.5-0.9,0.5-1c0,0,0.3-0.3,0.7-0.8c0.4-0.5,0.9-1.2,1.7-2
					c1.4-1.7,3.5-3.6,5.7-5.4c2.3-1.7,4.7-3.2,6.6-4.1c0.9-0.5,1.8-0.8,2.3-1.1c0.6-0.2,0.9-0.4,0.9-0.4s-0.3,0.2-0.8,0.5
					c-0.5,0.3-1.3,0.7-2.1,1.3c-1.7,1.2-3.9,2.9-5.8,4.8c-1.9,2-3.7,4.1-4.8,5.8c-0.6,0.8-1,1.6-1.3,2.1c-0.3,0.5-0.5,0.8-0.5,0.8
					c0,0-0.2,0.3-0.6,0.8c-0.3,0.5-0.9,1.2-1.4,2.1c-1.1,1.8-2.4,4.3-3.5,6.9c-1,2.7-1.7,5.4-2.1,7.5c-0.2,1.1-0.3,1.9-0.3,2.6
					C19.2,201.4,19.2,201.7,19.2,201.7z"/>
			</g>
		</g>
		<g id="XMLID_7543_">
			<g id="XMLID_7544_">
				<path id="XMLID_7545_" class="st1" d="M252.8,114.7c0,0-0.1,0.1-0.3,0.3c-0.2,0.2-0.5,0.5-0.9,0.7c-0.8,0.6-2.2,1.3-4,1.7
					c-1.8,0.4-3.9,0.5-6.1,0.3c-2.2-0.2-4.6-0.8-6.9-1.5c-2.3-0.7-4.5-1.3-6.6-1.8c-2.1-0.5-4.1-0.6-5.7-0.5
					c-1.7,0.1-2.9,0.6-3.9,0.8c-0.9,0.4-1.4,0.6-1.4,0.7c0,0-0.6,0.2-1.4,0.6c-0.4,0.2-1,0.5-1.5,0.8c-0.6,0.4-1.2,0.8-1.9,1.3
					c-2.7,2-5.8,5.3-9.1,8.6c-1.6,1.6-3.3,3.2-5.1,4.5c-1.7,1.3-3.5,2.4-5.1,3.1c-1.6,0.7-3,1-4,1.2c-0.5,0.1-0.9,0.1-1.2,0.1
					c-0.3,0-0.4,0-0.4,0s0.1,0,0.4-0.1c0.3-0.1,0.7-0.1,1.1-0.2c1-0.2,2.3-0.7,3.8-1.5c1.5-0.8,3.1-1.9,4.7-3.4
					c1.6-1.4,3.1-3.1,4.6-4.8c2.9-3.5,5.8-7.1,8.6-9.5c0.7-0.6,1.4-1.1,1.9-1.5c0.6-0.4,1.2-0.8,1.6-1.1c0.9-0.6,1.5-0.8,1.6-0.9
					c0,0,0.7-0.2,1.8-0.6c1.1-0.2,2.7-0.7,4.7-0.6c1.9,0,4.1,0.3,6.3,1c2.2,0.6,4.4,1.5,6.6,2.3c2.2,0.8,4.4,1.6,6.5,1.9
					c2.1,0.4,4.2,0.5,5.9,0.2c1.7-0.3,3.1-0.8,4-1.3c0.5-0.2,0.8-0.5,1-0.7C252.7,114.7,252.8,114.7,252.8,114.7z"/>
			</g>
		</g>
		<g id="XMLID_7540_">
			<g id="XMLID_7541_">
				<path id="XMLID_7542_" class="st1" d="M312.7,163c0,0-2.1,0.1-5.3,0c-3.2-0.1-7.5-0.3-11.7-1.5c-2.1-0.6-4.2-1.4-6-2.5
					c-1.8-1-3.4-2.3-4.5-3.6c-0.3-0.3-0.6-0.6-0.8-0.9c-0.2-0.3-0.5-0.6-0.7-0.9c-0.4-0.6-0.8-1.1-1-1.5c-0.6-0.8-0.8-1.4-0.8-1.4
					c0,0-0.2-0.6-0.6-1.4c-0.3-0.9-0.8-2.2-1.3-3.7c-0.9-3-2-7-3.1-11c-2.2-8-4.5-15.9-4.5-15.9s2.9,7.7,5.8,15.4
					c1.5,3.9,2.9,7.8,4.1,10.6c0.6,1.4,1.1,2.6,1.5,3.4c0.4,0.8,0.7,1.2,0.7,1.3c0,0,0.2,0.5,0.7,1.3c0.2,0.4,0.5,0.9,0.8,1.4
					c0.2,0.3,0.3,0.5,0.5,0.8c0.2,0.3,0.4,0.6,0.7,0.9c1.8,2.4,5.2,4.9,9.1,6.3c3.9,1.5,8.1,2.1,11.3,2.4
					C310.6,162.9,312.7,163,312.7,163z"/>
			</g>
		</g>
	</g>
</g>
</svg>
