<?xml version="1.0" encoding="utf-8"?>
<!-- Generator: Adobe Illustrator 19.0.0, SVG Export Plug-In . SVG Version: 6.00 Build 0)  -->
<svg version="1.1" id="Layer_1" xmlns="http://www.w3.org/2000/svg" xmlns:xlink="http://www.w3.org/1999/xlink" x="0px" y="0px"
	 viewBox="-299 192 360 177" enable-background="new -299 192 360 177" xml:space="preserve">
<g id="XMLID_257_">
	<g id="XMLID_3206_">
		<g id="XMLID_3215_">
			<path id="XMLID_3216_" fill="#EF7B05" d="M-225.2,205.5c27.2-17.2,19.2,29.8,16.3,32.3c-21.1,18.4-25.4,101.9-25.4,101.9
				l-3.8,21.2C-248.9,309.8-263.2,229.4-225.2,205.5z"/>
		</g>
		<g id="XMLID_3213_">
			<path id="XMLID_3214_" fill="#EF7B05" d="M4.7,205.5c-27.2-17.1-19.1,29.8-16.2,32.4c21.1,18.4,25.4,101.9,25.4,101.9l3.8,21.2
				C28.4,309.8,42.7,229.4,4.7,205.5z"/>
		</g>
		<g id="XMLID_3210_">
			<path id="XMLID_109_" fill="none" d="M-208.2,215.2"/>
		</g>
		<g id="XMLID_3207_">
			<path id="XMLID_106_" fill="none" d="M8.4,281.3"/>
		</g>
	</g>
	<g id="XMLID_3203_">
		<path id="XMLID_104_" fill="#FFFFFF" d="M-213,265.7c0,0,0.1-0.8,0.4-2.2c0.3-1.4,0.7-3.3,1.2-5.6c0.4-2.3,0.9-5,1-7.8
			c0-0.7,0-1.4,0-2.1c0-0.3,0-0.8-0.1-1.1c0-0.3,0-0.7-0.1-1.1c-0.1-1.5-0.4-2.9-0.6-4.4c-0.3-1.5-0.6-3-0.9-4.5
			c-0.3-1.5-0.7-3-0.9-4.5c-0.6-2.9-1.1-5.7-1.4-8c-0.4-2.4-0.6-4.4-0.7-5.8c-0.1-1.4-0.1-2.2-0.1-2.2s0.4,0.7,0.9,2
			c0.6,1.3,1.3,3.1,2.1,5.4c0.8,2.2,1.7,4.9,2.6,7.7c0.8,2.8,1.8,5.9,2.4,9.1c0.3,1.6,0.5,3.3,0.6,4.9c0,0.4,0,0.8,0,1.3
			s0,0.8,0,1.2c0,0.8-0.1,1.6-0.2,2.4c-0.5,3.1-1.4,5.9-2.4,8.1c-1,2.2-1.9,4-2.6,5.2C-212.6,265-213,265.7-213,265.7z"/>
	</g>
	<g id="XMLID_3200_">
		<path id="XMLID_102_" fill="#FFFFFF" d="M-220,277.7c0,0,0.1-0.8,0.4-2.2c0.3-1.4,0.7-3.3,1.2-5.6c0.4-2.3,0.9-5,1-7.8
			c0-0.7,0-1.4,0-2.1c0-0.3,0-0.8-0.1-1.1c0-0.3,0-0.7-0.1-1.1c-0.1-1.5-0.4-2.9-0.6-4.4c-0.3-1.5-0.6-3-0.9-4.5
			c-0.3-1.5-0.7-3-0.9-4.5c-0.6-2.9-1.1-5.7-1.4-8c-0.4-2.4-0.6-4.4-0.7-5.8c-0.1-1.4-0.1-2.2-0.1-2.2s0.4,0.7,0.9,2
			c0.6,1.3,1.3,3.1,2.1,5.4c0.8,2.2,1.7,4.9,2.6,7.7c0.8,2.8,1.8,5.9,2.4,9.1c0.3,1.6,0.5,3.3,0.6,4.9c0,0.4,0,0.8,0,1.3
			s0,0.8,0,1.2c0,0.8-0.1,1.6-0.2,2.4c-0.5,3.1-1.4,5.9-2.4,8.1c-1,2.2-1.9,4-2.6,5.2C-219.6,277-220,277.7-220,277.7z"/>
	</g>
	<g id="XMLID_3197_">
		<path id="XMLID_100_" fill="#FFFFFF" d="M-223,292.7c0,0,0.1-0.8,0.4-2.2c0.3-1.4,0.7-3.3,1.2-5.6c0.4-2.3,0.9-5,1-7.8
			c0-0.7,0-1.4,0-2.1c0-0.3,0-0.8-0.1-1.1c0-0.3,0-0.7-0.1-1.1c-0.1-1.5-0.4-2.9-0.6-4.4c-0.3-1.5-0.6-3-0.9-4.5
			c-0.3-1.5-0.7-3-0.9-4.5c-0.6-2.9-1.1-5.7-1.4-8c-0.4-2.4-0.6-4.4-0.7-5.8c-0.1-1.4-0.1-2.2-0.1-2.2s0.4,0.7,0.9,2
			c0.6,1.3,1.3,3.1,2.1,5.4c0.8,2.2,1.7,4.9,2.6,7.7c0.8,2.8,1.8,5.9,2.4,9.1c0.3,1.6,0.5,3.3,0.6,4.9c0,0.4,0,0.8,0,1.3
			s0,0.8,0,1.2c0,0.8-0.1,1.6-0.2,2.4c-0.5,3.1-1.4,5.9-2.4,8.1s-1.9,4-2.6,5.2C-222.6,292-223,292.7-223,292.7z"/>
	</g>
	<g id="XMLID_3177_">
		<path id="XMLID_98_" fill="#FFFFFF" d="M-226,306.7c0,0,0.1-0.8,0.4-2.2c0.3-1.4,0.7-3.3,1.2-5.6c0.4-2.3,0.9-5,1-7.8
			c0-0.7,0-1.4,0-2.1c0-0.3,0-0.8-0.1-1.1c0-0.3,0-0.7-0.1-1.1c-0.1-1.5-0.4-2.9-0.6-4.4c-0.3-1.5-0.6-3-0.9-4.5
			c-0.3-1.5-0.7-3-0.9-4.5c-0.6-2.9-1.1-5.7-1.4-8c-0.4-2.4-0.6-4.4-0.7-5.8c-0.1-1.4-0.1-2.2-0.1-2.2s0.4,0.7,0.9,2
			c0.6,1.3,1.3,3.1,2.1,5.4c0.8,2.2,1.7,4.9,2.6,7.7c0.8,2.8,1.8,5.9,2.4,9.1c0.3,1.6,0.5,3.3,0.6,4.9c0,0.4,0,0.8,0,1.3
			s0,0.8,0,1.2c0,0.8-0.1,1.6-0.2,2.4c-0.5,3.1-1.4,5.9-2.4,8.1s-1.9,4-2.6,5.2C-225.6,306-226,306.7-226,306.7z"/>
	</g>
	<g id="XMLID_3174_">
		<path id="XMLID_96_" fill="#FFFFFF" d="M-229,311c0,0,0.1-0.6,0.4-1.6c0.3-1,0.7-2.4,1.2-4.1c0.4-1.7,0.9-3.6,1.1-5.5
			c0-0.5,0-1,0-1.5c0-0.2,0-0.6,0-0.8s0-0.5-0.1-0.7c-0.1-1-0.3-2.1-0.6-3.1c-0.3-1.1-0.6-2.1-0.9-3.2c-0.3-1.1-0.7-2.2-0.9-3.2
			c-0.6-2.1-1.1-4.1-1.4-5.9c-0.3-1.7-0.6-3.2-0.7-4.3c-0.1-1-0.2-1.7-0.2-1.7s0.4,0.5,0.9,1.4c0.6,0.9,1.3,2.2,2.1,3.8
			c0.8,1.6,1.7,3.4,2.6,5.5c0.4,1,0.9,2.1,1.3,3.2s0.8,2.3,1.1,3.5c0.3,1.2,0.5,2.5,0.6,3.8c0,0.3,0,0.7,0,1c0,0.4,0,0.5,0,0.9
			c-0.1,0.6-0.1,1.3-0.3,1.9c-0.5,2.4-1.5,4.4-2.4,5.9c-1,1.6-1.9,2.7-2.6,3.5C-228.6,310.6-229,311-229,311z"/>
	</g>
	<g id="XMLID_3171_">
		<path id="XMLID_94_" fill="#FFFFFF" d="M-7.7,267.7c0,0-0.4-0.7-1.1-1.9c-0.7-1.2-1.7-3-2.6-5.2c-1-2.2-1.9-5-2.4-8.1
			c-0.1-0.8-0.2-1.6-0.2-2.4c0-0.5,0-0.8,0-1.2c0-0.4,0-0.9,0-1.3c0.1-1.7,0.3-3.3,0.6-4.9c0.6-3.2,1.5-6.3,2.4-9.1
			c0.9-2.8,1.7-5.5,2.6-7.7c0.8-2.2,1.6-4.1,2.1-5.4c0.6-1.3,0.9-2,0.9-2s0,0.8-0.1,2.2c-0.1,1.4-0.3,3.4-0.7,5.8
			c-0.3,2.4-0.8,5.1-1.4,8c-0.3,1.5-0.6,3-0.9,4.5s-0.7,3-0.9,4.5c-0.3,1.5-0.5,3-0.6,4.4c0,0.4-0.1,0.7-0.1,1.1
			c0,0.3,0,0.8-0.1,1.1c0,0.7,0,1.4,0,2.1c0.1,2.8,0.6,5.5,1,7.8c0.5,2.3,0.9,4.3,1.2,5.6C-7.8,266.9-7.7,267.7-7.7,267.7z"/>
	</g>
	<g id="XMLID_3168_">
		<path id="XMLID_92_" fill="#FFFFFF" d="M-0.7,279.7c0,0-0.4-0.7-1.1-1.9c-0.7-1.2-1.7-3-2.6-5.2c-1-2.2-1.9-5-2.4-8.1
			c-0.1-0.8-0.2-1.6-0.2-2.4c0-0.5,0-0.8,0-1.2s0-0.9,0-1.3c0.1-1.7,0.3-3.3,0.6-4.9c0.6-3.2,1.5-6.3,2.4-9.1
			c0.9-2.8,1.7-5.5,2.6-7.7c0.8-2.2,1.6-4.1,2.1-5.4c0.6-1.3,0.9-2,0.9-2s0,0.8-0.1,2.2s-0.3,3.4-0.7,5.8c-0.3,2.4-0.8,5.1-1.4,8
			c-0.3,1.5-0.6,3-0.9,4.5s-0.7,3-0.9,4.5c-0.3,1.5-0.5,3-0.6,4.4c0,0.4-0.1,0.7-0.1,1.1c0,0.3,0,0.8-0.1,1.1c0,0.7,0,1.4,0,2.1
			c0.1,2.8,0.6,5.5,1,7.8c0.5,2.3,0.9,4.3,1.2,5.6C-0.8,278.9-0.7,279.7-0.7,279.7z"/>
	</g>
	<g id="XMLID_3165_">
		<path id="XMLID_90_" fill="#FFFFFF" d="M2.3,294.7c0,0-0.4-0.7-1.1-1.9c-0.7-1.2-1.7-3-2.6-5.2c-1-2.2-1.9-5-2.4-8.1
			c-0.1-0.8-0.2-1.6-0.2-2.4c0-0.5,0-0.8,0-1.2s0-0.9,0-1.3c0.1-1.7,0.3-3.3,0.6-4.9c0.6-3.2,1.5-6.3,2.4-9.1
			c0.9-2.8,1.7-5.5,2.6-7.7c0.8-2.2,1.6-4.1,2.1-5.4c0.6-1.3,0.9-2,0.9-2s0,0.8-0.1,2.2s-0.3,3.4-0.7,5.8c-0.3,2.4-0.8,5.1-1.4,8
			c-0.3,1.5-0.6,3-0.9,4.5s-0.7,3-0.9,4.5c-0.3,1.5-0.5,3-0.6,4.4c0,0.4-0.1,0.7-0.1,1.1c0,0.3,0,0.8-0.1,1.1c0,0.7,0,1.4,0,2.1
			c0.1,2.8,0.6,5.5,1,7.8c0.5,2.3,0.9,4.3,1.2,5.6C2.2,293.9,2.3,294.7,2.3,294.7z"/>
	</g>
	<g id="XMLID_261_">
		<path id="XMLID_88_" fill="#FFFFFF" d="M5.3,308.7c0,0-0.4-0.7-1.1-1.9c-0.7-1.2-1.7-3-2.6-5.2c-1-2.2-1.9-5-2.4-8.1
			c-0.1-0.8-0.2-1.6-0.2-2.4c0-0.5,0-0.8,0-1.2s0-0.9,0-1.3c0.1-1.7,0.3-3.3,0.6-4.9c0.6-3.2,1.5-6.3,2.4-9.1
			c0.9-2.8,1.7-5.5,2.6-7.7c0.8-2.2,1.6-4.1,2.1-5.4c0.6-1.3,0.9-2,0.9-2s0,0.8-0.1,2.2c-0.1,1.4-0.3,3.4-0.7,5.8
			c-0.3,2.4-0.8,5.1-1.4,8c-0.3,1.5-0.6,3-0.9,4.5s-0.7,3-0.9,4.5c-0.3,1.5-0.5,3-0.6,4.4c0,0.4-0.1,0.7-0.1,1.1
			c0,0.3,0,0.8-0.1,1.1c0,0.7,0,1.4,0,2.1c0.1,2.8,0.6,5.5,1,7.8c0.5,2.3,0.9,4.3,1.2,5.6C5.2,307.9,5.3,308.7,5.3,308.7z"/>
	</g>
	<g id="XMLID_258_">
		<path id="XMLID_86_" fill="#FFFFFF" d="M8.3,313c0,0-0.4-0.4-1.1-1.2c-0.7-0.8-1.6-2-2.6-3.5c-0.9-1.6-1.9-3.5-2.4-5.9
			c-0.1-0.6-0.2-1.2-0.3-1.9c0-0.4,0-0.6,0-0.9c0-0.3,0-0.7,0-1c0.1-1.3,0.3-2.6,0.6-3.8c0.3-1.2,0.7-2.4,1.1-3.5
			c0.4-1.1,0.8-2.1,1.3-3.2c0.9-2,1.7-3.9,2.6-5.5c0.8-1.6,1.6-2.9,2.1-3.8c0.5-0.9,0.9-1.4,0.9-1.4s0,0.6-0.2,1.7
			c-0.1,1-0.3,2.5-0.7,4.3c-0.3,1.7-0.8,3.8-1.4,5.9c-0.3,1.1-0.6,2.2-0.9,3.2c-0.3,1.1-0.7,2.2-0.9,3.2c-0.3,1.1-0.5,2.1-0.6,3.1
			c0,0.3-0.1,0.5-0.1,0.7c0,0.2,0,0.6,0,0.8c0,0.5,0,1,0,1.5c0.1,2,0.6,3.9,1.1,5.5c0.5,1.7,0.9,3.1,1.2,4.1
			C8.2,312.4,8.3,313,8.3,313z"/>
	</g>
</g>
</svg>
