<?xml version="1.0" encoding="utf-8"?>
<!-- Generator: Adobe Illustrator 19.0.0, SVG Export Plug-In . SVG Version: 6.00 Build 0)  -->
<svg version="1.1" id="Layer_1" xmlns="http://www.w3.org/2000/svg" xmlns:xlink="http://www.w3.org/1999/xlink" x="0px" y="0px"
	 viewBox="-294 119 370.3 323" enable-background="new -294 119 370.3 323" xml:space="preserve">
<g id="XMLID_1325_">
	<path id="XMLID_1346_" fill="#FFFFFF" d="M-189.7,260.4608c-4.6,15.3-13.6,38.7-28.8,49.7c-4.9-24.8,5-44,25.4-49.2
		C-192.1,260.7608-190.9,260.5609-189.7,260.4608z"/>
	<g id="XMLID_1333_">
		<path id="XMLID_1343_" fill="#EF7B05" d="M-7.3,271.4608c-0.7,2.9,12.4,13.6,15,26.5c1,4.9,0.5,10.1-0.5,15
			c-9.2,44.9,12.2,55.1,9.4,95c-0.7,9.4,4.8,10,5.7-0.8c0.8-10.2,1-28.6,3.8-36.3c3.2-8.8,7.4-17.5,10.6-26.5
			c0.5,4.4,0.7,5.3,2.3,3.4c1.9-2.2,5.6-8.2,7.9-14.6c2.3-6.4,3.1-13,2.7-18.7c-0.4-5.6-1.9-10.2-2.2-11.9c-0.3-1.7,0.7-0.6,1.4,0.4
			s1.1,1.9,1-2.1s-0.6-12.9-4-20.1c-3.3-7.2-9.5-12.7-13.5-14.9c-4-2.1-6-0.9-6.7,2.2c-0.1,0.3-0.1,0.7-0.2,1.1
			c-4.3-3.5-9.1-4.5-14.3-4.7C3.2,264.2608-5.9,265.6608-7.3,271.4608z"/>
		<path id="XMLID_1335_" fill="#EF7B05" d="M48.7,251.9608c-3,6.6-6.8,12.5-11,17.8c-8.6,10.6-19.3,18.6-31.2,24
			c-0.3,0.2-0.7,0.3-1,0.5c-21.1,9.3-45.8,10.8-68.3,5c-52.9-13.5-104-40.7-126.9-38.8c-1.2,0.1-2.3,0.3-3.4,0.5
			c-20.4,5.2-30.4,24.4-25.4,49.2c0.5,2.7,1.2,5.4,2.1,8.2c7.3,23-1.1,32.9-5.8,53.6c-0.2,0.7-0.3,1.5-0.5,2.2
			c-2.9,14.9-2.1,29.2-6.6,48.2c-0.2,0.8-0.3-14.3-4.2-31.2c-3.9-17.4-11.6-36.7-13.4-41.5c0,2.7-0.4,4.5-1.1,3.9
			c-2.9-2.5-11.3-19-9.3-34.2c-0.4,0.1-2.1,4.1-3,3.4c-0.2-0.2-0.6-1.1-0.8-1.8c-3.2-13.6-2.6-25.1,0.4-37.6c0.6-2.3-1-0.2-1.6,0.6
			c-0.6,0.8-1,0.9-1.1,0.3c-0.8-3.4-1.1-6.7-0.8-9.8c0.9-11.7,8.4-21.4,16.5-26.9c4.9-3.3,10-5.1,14-4.9c-1.4-2.5-2.5-5.1-3.4-7.9
			c-7.3-21.2-2.3-47.7,16.7-59.6c0.1,2.1,0.8,5.9,2,8.1c7.3-12.1,37.8-37.4,57-37.4c0.3,1.6-1.5,6.6-1.7,7.7
			c10.9-6,50.9-21.7,79.1-11.7c-3.2,2.3-4.2,3.4-6.3,5.9c7.4-0.9,39.4-5.7,70.5,13.6c-5.5,2-7,4.3-11.9,6.3
			c10.4,9.3,34.1,15.5,52,10.6c0.3,2.9-1.2,11.4-12.4,17.8c8.2,10.1,38.5,10.1,50,5.4C58.6,221.2608,55.1,238.1609,48.7,251.9608z"
			/>
		<path id="XMLID_1334_" fill="#FFFFFF" d="M36.8,216.2608c-53.6,148.2-190.5-11.9-246.7,29.3c28.7-66.7,123.2,33.5,178.1-43.5
			c-9.3,33.1-31.7,42.7-57.4,43.2c34.3,7.6,64,2.3,91.1-33c-16.6,45.7-50,49.7-85.7,44.2C-40.5,272.0609,4.6,275.9608,36.8,216.2608
			z"/>
	</g>
	<g id="XMLID_1330_">
		<path id="XMLID_322_" fill="#FFFFFF" d="M-250.4,260.8608c-0.6,0.7-1.2,1.4-1.8,2.1s-1.1,1.4-1.6,2.2l-0.7,1.1l-0.7,1.1
			c-0.4,0.8-0.9,1.6-1.2,2.4l-0.5,1.2l-0.5,1.2c-0.3,0.8-0.6,1.6-0.8,2.5c-0.2,0.8-0.4,1.7-0.6,2.5l-0.2,1.3l-0.2,1.3l-3.2-2.2
			c1.5-1.1,3-2.2,4.5-3.2c1.5-1.1,3-2.1,4.5-3.2l6.4-4.5l-2.2,7.8c-0.5,1.9-1,3.8-1.6,5.7c-0.5,1.9-1,3.8-1.4,5.7
			c-0.5,1.9-0.9,3.8-1.3,5.7l-1.2,5.7c-0.4,1.9-0.7,3.8-1,5.8c-0.3,1.9-0.6,3.8-0.9,5.8l-0.8,5.8c-0.2,1.9-0.4,3.9-0.6,5.8l-6.9-4.1
			c1.9-1.4,3.9-2.8,5.8-4.2l5.9-4.1l9.2-6.5l-2.2,11.1c-0.3,1.4-0.5,2.8-0.8,4.2c-0.2,1.4-0.4,2.8-0.6,4.2s-0.3,2.8-0.5,4.2
			c-0.1,1.4-0.2,2.8-0.3,4.2s-0.1,2.8-0.1,4.3c0,1.4,0,2.8,0,4.3c0,1.4,0.1,2.8,0.2,4.3c0.1,1.4,0.2,2.8,0.3,4.3l-5.3-3.1
			c0.4-0.1,0.7-0.3,1.1-0.5c0.4-0.2,0.7-0.4,1-0.6c0.7-0.4,1.3-0.9,1.9-1.5c0.6-0.6,1.1-1.2,1.6-1.8c0.2-0.3,0.4-0.7,0.6-1
			c0.2-0.4,0.4-0.7,0.5-1.1l3.7-8.4l2.7,8.3c0.6,1.7,1.1,3.5,1.7,5.2c0.5,1.8,1,3.5,1.5,5.3s0.9,3.5,1.3,5.3
			c0.4,1.8,0.8,3.6,1.2,5.4s0.7,3.6,1,5.4l0.5,2.7l0.4,2.7c0.2,1.8,0.5,3.6,0.7,5.4s0.3,3.6,0.4,5.4l-1.7-5.2l-1.7-5.2l-1.7-5.1
			c-0.6-1.7-1.2-3.4-1.8-5.1l-1.9-5l-2-5c-0.7-1.7-1.4-3.3-2-5c-0.7-1.6-1.4-3.3-2.1-4.9l6.4-0.1c-0.2,0.6-0.4,1.2-0.7,1.8
			c-0.3,0.6-0.6,1.2-0.9,1.8c-0.7,1.1-1.4,2.2-2.3,3.2s-1.8,1.9-2.9,2.7c-1.1,0.8-2.2,1.5-3.5,2l-4.5,2l-0.8-5.1
			c-0.2-1.5-0.4-3-0.6-4.5s-0.3-3-0.4-4.6c-0.1-1.5-0.2-3.1-0.2-4.6v-2.3v-2.3c0-1.5,0.1-3.1,0.2-4.6s0.2-3.1,0.4-4.6
			c0.2-1.5,0.4-3.1,0.6-4.6s0.5-3,0.8-4.5l7,4.5l-5.9,4.1c-2,1.4-3.9,2.8-5.9,4.1l-8.1,5.5l1.2-9.6c0.2-2,0.5-4,0.8-6l0.5-3l0.5-3
			c0.4-2,0.8-4,1.2-6s0.9-4,1.4-5.9c0.5-2,1-3.9,1.6-5.9c0.6-1.9,1.2-3.9,1.8-5.8c0.7-1.9,1.3-3.8,2.1-5.7c0.7-1.9,1.5-3.8,2.2-5.6
			l4.2,3.4c-1.6,0.9-3.2,1.7-4.9,2.6c-1.6,0.9-3.3,1.7-4.9,2.6l-4.5,2.3l1.3-4.4l0.4-1.4l0.5-1.4c0.3-0.9,0.7-1.8,1.1-2.7
			c0.4-0.9,0.9-1.7,1.3-2.6c0.5-0.8,1-1.6,1.6-2.4s1.2-1.5,1.8-2.2s1.3-1.4,2-2c0.7-0.6,1.4-1.2,2.1-1.8l1.1-0.8L-250.4,260.8608z"
			/>
	</g>
	<g id="XMLID_1326_">
		<path id="XMLID_320_" fill="#FFFFFF" d="M37.1,282.3608c0.6,0.5,1.2,1,1.8,1.5s1.2,1.1,1.7,1.7s1.1,1.2,1.5,1.8
			c0.5,0.6,0.9,1.3,1.4,2c0.4,0.7,0.8,1.4,1.2,2.1s0.7,1.5,1,2.2c0.3,0.8,0.6,1.5,0.8,2.3s0.5,1.6,0.6,2.4l0.7,3.2l-3.8-0.2
			c-1.7-0.1-3.4-0.2-5.2-0.3l3.4-4.1l0.8,2l0.7,2l0.6,2.1l0.5,2.1l0.4,2.1l0.3,2.2l0.3,2.2l0.1,2.2l0.1,2.2v2.2l-0.1,2.2l-0.2,2.2
			l-0.3,2.2l-0.4,2.2l-0.5,2.1l-0.6,2.1l-4.1,14.4l-4.5-14.4c-0.2-0.6-0.4-1.2-0.7-1.8c-0.3-0.6-0.6-1.1-1-1.6s-0.8-1-1.3-1.4
			c-0.5-0.5-1-0.9-1.5-1.2l6.7-3.9v1.8l-0.2,1.8l-0.3,1.7c-0.1,0.6-0.3,1.1-0.4,1.7c-0.3,1.1-0.7,2.2-1.1,3.2s-0.9,2-1.3,2.9
			c-0.5,0.9-1,1.9-1.5,2.7c-0.5,0.9-1.1,1.7-1.6,2.6c-1.1,1.7-2.2,3.3-3.2,4.9l-0.8,1.2l-0.7,1.1c-0.5,0.8-0.9,1.6-1.3,2.4
			c-0.8,1.6-1.6,3.3-2.2,5c-0.3,0.9-0.5,1.7-0.7,2.6s-0.3,1.8-0.4,2.7c0,0.5,0,0.9,0,1.4l0.1,1.4l0.2,1.4l0.4,1.4
			c-0.3-0.4-0.6-0.8-0.9-1.2c-0.3-0.4-0.5-0.9-0.8-1.3c-0.2-0.5-0.4-0.9-0.6-1.4s-0.3-1-0.5-1.5c-0.3-1-0.4-2.1-0.5-3.1
			s-0.1-2.1,0-3.2c0.1-1,0.2-2.1,0.4-3.1c0.2-1,0.4-2,0.7-3c0.3-1,0.6-2,1-3l0.6-1.5c0.2-0.5,0.3-0.9,0.6-1.4
			c0.8-1.8,1.6-3.6,2.4-5.3s1.5-3.4,2.2-5.1c0.3-0.8,0.6-1.7,0.8-2.5c0.2-0.8,0.4-1.6,0.6-2.4l0.2-1.2l0.1-1.2v-1.1v-1.1l-0.3-8.2
			l7,4.3c1,0.6,2,1.3,2.8,2.1c0.9,0.8,1.7,1.7,2.4,2.6c1.4,1.9,2.5,4,3.2,6.3l-8.6-0.1l0.5-1.8l0.5-1.8l0.4-1.8l0.3-1.8l0.3-1.8
			l0.2-1.8l0.2-1.9l0.1-1.9c0-1.2,0-2.5,0-3.7l-0.1-1.9l-0.2-1.9l-0.2-1.9l-0.3-1.9l-0.3-1.9l-0.4-1.9l-1.2-5.2l4.6,1.1
			c1.7,0.4,3.3,0.8,5,1.2l-3,3c0-0.7,0-1.4-0.1-2.1s-0.2-1.4-0.2-2.1c-0.1-0.7-0.2-1.4-0.4-2.1s-0.3-1.4-0.5-2.1s-0.4-1.4-0.7-2.1
			s-0.5-1.4-0.8-2.1s-0.6-1.4-1-2.1C37.9,283.7608,37.5,283.0609,37.1,282.3608z"/>
	</g>
</g>
</svg>
