<?xml version="1.0" encoding="utf-8"?>
<!-- Generator: Adobe Illustrator 19.0.0, SVG Export Plug-In . SVG Version: 6.00 Build 0)  -->
<svg version="1.1" id="Layer_1" xmlns="http://www.w3.org/2000/svg" xmlns:xlink="http://www.w3.org/1999/xlink" x="0px" y="0px"
	 viewBox="-264 -87 430 734" enable-background="new -264 -87 430 734" xml:space="preserve">
<path id="XMLID_340_" fill="#EF7B05" d="M128.5568,71.2667c-14.3-42.7-45-79.9-86.3-104.7l0,0l0,0c-57.6-33-128.6-33.3-180.8-0.7
	c-0.2,0.1-0.3,0.3-0.4,0.5c-0.4-0.1-0.8,0-1.2,0.2c-41.3,24.8-71.9,62-86.3,104.7c-6.9,20.5-10.3,42.3-10.3,65.7
	c-0.1,18.1,1.9,37.3,5.9,57.6c2,10.2,4.6,20.9,12,30.2c5.5,7,13.6,12.9,23.2,17.1c-6.4,3.8-11.1,9.1-13,15.1c-0.7,2.2-1,4.5-1,6.7
	c0.609,3.2843,1.2,2.9,4,6.9c3.9,5.6,10,9.5,16.5,13c-9.1,4.4-13.2,6.5-13.1,16c0,1.5,0.1,2.9,0.2,4.2c1,7.9,10,13.8,17.6,18
	l0.5,0.3c-5.8,6.8-11.1,8.3-10.7,16c0,1.4,0.1,2.8,0.5,4.3c1.7,6.9,7.8,8.4,15.5,13.3c-2.7,5.1-4.1,6.3-4,11.2
	c-0.1,5.2,2.1615,7.4872,4.4,9.3c3.9384,3.3195,6.4,3.9,10.1,6.9l7.9,6.6c-0.2,1.8-0.2,1.7-0.2,3.5c0,3.1,0.2,4.3,0.5,7.6
	c-0.4-0.1-0.9-0.2-1.3-0.3c-0.8-0.2-1.6,0.2-1.9,0.9c-0.1,0.3-0.1,0.6,0.1,0.8c0,0-0.1,0.1-0.1,0.2c-0.2,0.7,0.2,1.3,1,1.5
	c0,0.3,0.2,0.7,0.6,0.9c0.7,0.4,1-1,1.1-0.3c-0.1,0.9-0.6-0.1-0.8,0.4l-0.4,0.8c-1,1.7-2,3.6-1.8,5.5c-0.1,0.8,0,1.6,0.4,2.5
	c0.1,0.2,0.2,0.4,0.4,0.6c-20.5,16.9-31.7,28.5-31.8,50.9c-0.2,10.2,2,20.5,6.6,30.1c4.7,9.7,13.8,17.7,31,24
	c0.6,0.2,1.4,0.1,1.8-0.4c0.3-0.4,0.4-0.8,0.1-1.2c0.2-0.5,0.1-1-0.3-1.3c-2.6-2.3-4.1-5.2-4.4-8.1c1.4,4.1,4.4,7.8,8.7,10.7
	c0.5,0.3,1.1,0.4,1.6,0.1c0.5-0.2,0.8-0.7,0.8-1.2c0-0.3,0-0.7,0-1l0,0c0-0.1,0-0.2,0-0.3c0.1-2.9,1-5.8,2.5-8.5
	c4.3,6.9001,13.4,12,23.8,13.2c0.1,0.1,0.1,0.2,0.2,0.3c0.3,0.3,0.7,0.5,1.2,0.5c0.3,0,0.7-0.1,1-0.3c0.5-0.4,0.6-0.9,0.4-1.4
	c0.1-0.1,0.1-0.3,0.1-0.5l2.2-2c0.4-0.4,0.5-0.9,0.2-1.3c0.3-0.5,0.1-1.1-0.4-1.4c-0.6-0.5-1.6-0.4-2.1,0.1l-2,1.9
	c-8.8-9.8-11.5-21.4001-11.5-33.9001c0.1-7.7,1.1-15.6,2.4-23.7c1.4-8.4,2.5-17,2.4-25.3c-0.3568-9.8499-3.1-11.3-14.1-22.2
	c-0.1-0.1-0.3-0.2-0.4-0.2l1.6-6.6c0-0.2,0-0.4-0.1-0.6l0.1-0.4c0.1-0.4-0.1-0.7-0.4-1c-0.3-0.3-0.7-0.4-1.2-0.4c-1.1,0-2.2,0-3.4,0
	c1.3-2.2,2.5-4.5,3.6-6.8c1.9-3.8,3.9-3.7,6.4-7c3.9-5.2,8.5-9.1,9.4-16.7c0.1-1,0.1,3,0.1,2c0.1-6.7-3-8.9-8.7-13
	c0.5-0.8,1-1.6,1.5-2.4c3.2-5.8,4.8-11.4,4.7-16.6c0.1-2.3-0.2-0.5-0.7-2.6c-1.2-4.5-5.3-5.1-10.5-7.7c2.8-3.5,5.1-7.2,6.5-11.1
	c1.3-3.6,1.9-7.2,1.8-10.8c-0.4318-5.4999-2.5-4.4-7.7-10.1c1.2-1.5,2.4-3,3.4-4.6c3-4.5,4.4-8.8,4.3-12.8c0-1.3-0.1-2.6-0.4-3.8
	c0-0.2-0.1-0.3-0.1-0.5c0.2-0.7,0.2-1.4,0.2-2.1c0.1-2.1-0.6-4.5-2.3-6.5c-1.9-2.4-4.6,1.9-7.2,0.2l-1.2-0.8
	c-22.3-14.7-36-38.2-35.7-61.9c0-0.7-0.7-0.9-1.5-0.9l0,0c-0.3,0-0.5-0.3-0.7-0.2c-0.3-0.1-0.6-0.4-0.9-0.6
	c-0.1-0.3-0.4-0.6-0.7-0.7c-0.1,0-0.1-0.1-0.2-0.1c-2.3-2.2-3.9-6.3-4.9-4.5c-0.2-0.4-0.7-0.6-1.3-0.7c-0.7-3.4-1.1-6.8-1.1-10.2
	c0-5.6,1-11.1,2.9-16.5l13.1,23.8c0.3,0.6,1.1,0.9,1.8,0.7s1.2-0.8,1-1.4c0-0.1,0-0.3-0.1-0.4c0.1-0.2,0.1-0.4,0.1-0.6
	c-2.7-12.2-4.1-24.6-4.2-37c-0.1-15.6,1.8-31.3,5.6-46.7c0.6,0.1,1.2,0.2,1.8,0.2c2,0,4-0.5,5.4-1.6c0.2-0.2,0.4-0.4,0.5-0.7
	c0.7-2.6,1.8-5.1,3.2-7.6l-0.1,2.2c0,0.3,0,0.7,0,1.1c-0.1,1-0.1,2.7,1.6,3.9c1.8,1.2,4.3,1.1,6.5,1h0.9c1.5-0.1,3,0,4.6,0.1
	c1.3,0.1,2.6,0.1,3.9,0.1c2.4,0,4.8-0.3,6.9-1.3c2.9-1.4,4-3.7,5-5.8l0.4-0.9c2.4-4.7,7-8.8,12.9-11.9c-3.6,4.4-5.5,9.3-5.4,14.3
	c0,0.6,0,1.2,0,1.7c0,0.7,0.7,1.4,1.5,1.4l27.7,0.6l0,0c0.7,0,1.3-0.7,1.5-1.3c1.6-7.2,8.5-14.4,21-21.9c3.2-1.9,6.6-3.8,9.9-5.7
	c7.2-4,14.6-8.1,20.6-13c5-4.1,9-8.8,12-13.9c-0.1,16.6-4.6,33-13.2,48c-0.2,0.3-0.2,0.7,0,1c-0.3,0.5-0.1,1,0.3,1.4
	c0.3,0.2,0.7,0.4,1,0.4c0.2,0,0.5,0,0.7-0.1c17.7-7.8,31.1-23.9,36.6-44c2.6-9.6,3.4-19.4,3.5-29.1c0-1.1,0-2.2,0-3.3
	c3.9,11.4,6,23.2,6.1,35c0,6.9-0.6,13.8-1.9,20.6c0,0.2,0,0.4,0.1,0.6c0,0.1,0,0.3-0.1,0.4c-0.1,0.6,0.3,1.1,0.9,1.3
	c0.2,0.1,0.4,0.1,0.6,0.1c0.4,0,0.9-0.2,1.2-0.5c12.2-12.9,18.6-29.1,18.5-45.4c0.1-5.8-0.7-11.6-2.2-17.3
	c33.9,40.4,52,87.2,52.2,134.2c0,13.1-1.4,26.1-4.2,39.1c0,0.2,0,0.4,0.1,0.6c0,0.1,0,0.3-0.1,0.4c-0.1,0.6,0.3,1.2,1,1.4
	s1.5-0.1,1.8-0.7l13.1-23.8c1.9,5.4,2.9,10.9,2.9,16.5c0,3.4-0.4,6.8-1.1,10.2c-0.5,0-1.1,0.2-1.3,0.7c-1-1.8-2.6,2.3-4.9,4.5
	c-0.1,0-0.1,0.1-0.2,0.1c-0.3,0.1-0.6,0.4-0.7,0.6c-0.3,0.2-0.6,0.3-0.9,0.4c-0.2-0.1-0.4-0.1-0.7-0.1c-0.8-0.2-1.5,0.6-1.5,1.3
	c0.2,14.3-4.8,28.6-13.6,40.9c-2.2,1.7-4.3,3.4-6.5,5c-0.5,0.4-0.7,1-0.4,1.5c-0.2,0.4-0.2,0.9,0.2,1.3c0.1,0.1,0.1,0.1,0.2,0.1
	c-4.6,5-9.7,9.5-15.6,13.3l-1.2,0.8c-2.6,1.7-5.3,3.4-7.3,5.8c-1.7,2.1-2.5-1.6-2.3,0.5c0,0.7,0,1.4,0.2,2.1
	c-0.1,0.1-0.1,0.3-0.1,0.5c-0.3,1.2-0.4,2.5-0.4,3.8c-0.1,3.9,0.5604,4.6227,3.6432,8.4668c1,1.6,2.8568,2.4332,4.0568,3.9332
	c-5.2,5.7-7.8,4.8-7.7,12.1c-0.1,3.5,0.5,5.2,1.8,8.8c1.4,3.9,3.7,7.6,6.5,11.1c-5.7818,0.3585-8.4068,0.6085-10.5,4.7
	c-0.5,2.1-0.8,4.3-0.7,6.6c-0.1,5.2,1.5,4.8,4.7,10.6c0.4,0.8,1,1.6,1.5,2.4c-5.6,4.2-8.8,3.3-8.7,10c0,1,0,2,0.1,3
	c2.3182,8.0585,3.4632,6.2137,9.4,10.7c4.5,2.2,4.5,2.2,6.4,6c1.1,2.3,2.3,2.6,3.6,4.8c-1.1,0-2.2,0.1-3.4,0c-0.4,0-0.9,0.1-1.2,0.4
	s-0.4,0.6-0.4,1l0.1,0.4c-0.1,0.2-0.1,0.4-0.1,0.6l1.6,6.6c-0.2,0-0.3,0.1-0.4,0.2c-11,10.9-14.2,16.2-14.1,30.2
	c-0.1,8.3,1.1,16.9,2.4,25.3c1.3,8.1,2.4,16.1,2.4,23.7c0,12.5-2.8,34-11.5,43.9001l-2,0.1c-0.6-0.5-1.5,3.4-2.1,3.9
	c-0.5,0.4-0.6,1-0.4,1.4c-0.2,0.4-0.2,1,0.2,1.3l2.2-2c0,0.2,0,0.3,0.1,0.5c-0.2,0.5-0.1,1,0.4,1.4c0.3,0.2,0.6-1.7,1-1.7
	s0.9-0.2,1.2-0.5c0.1-0.1,0.2-0.2,0.2-0.3c10.4-1.2,19.6-21.3,23.8-28.2c1.5,2.7,2.4,5.6,2.5,8.5c0,0.1,0,0.2,0,0.3l0,0
	c0,0.3,0,0.7,0,1c0,0.5,0.3,0.9,0.8,1.2c0.5,0.2,1.2,0.2,1.6-0.1c4.3-2.9,7.2-6.6,8.7-10.7c-0.4,2.9-1.9,5.8-4.4,8.1
	c-0.4,0.4-0.5,0.9-0.3,1.3c-0.2,0.4-0.2,0.9,0.1,1.2c0.4,0.5,1.2,0.7,1.8,0.4c17.2-6.3,26.3-19.2,31-29
	c4.4932-5.5916,5.4932-6.2583,6.6-15.1c0-22.4-11.2-47-31.8-63.9c0.2-0.2,0.3-0.4,0.4-0.6c0.4-0.8,0.5-1.6,0.4-2.5
	c0.2-2-0.8-3.8-1.8-5.5l-0.4-0.8c-0.3-0.5-0.7-1.5-0.8-2.4c0.1-0.6,0.4,2.8,1.1,2.3c0.4-0.2,0.6-0.6,0.6-0.9c0.8-0.2,1.2-0.9,1-1.5
	l-0.1-0.1c0.1-0.3,0.2-0.6,0.1-0.9c-0.2-0.7-1.1-1.1-1.9-0.9c-0.4,0.1-0.9,0.2-1.3,0.3c0.4-3.3,0.6,0.5,0.5-2.6
	c0-1.9-0.1-3.7-0.2-5.5l7.9-6.6c4.9579-2.9908,7.4-3.2,10.1-6.9c3-4.2,4.5-6.1,4.4-11.3c-1.0568-4.5667-0.6791-2.3178-4-5.2
	c7.6-5,13.7-4.4,15.5-11.3c0.4-1.5,0.5-0.9,0.5-2.3c0.3-7.7-4.9-8.2-10.7-15l0.5-0.3c8.3099-0.55,16.6-2.1,17.6-10
	c0.2-1.3,0.2-2.7,0.2-4.2c0.1-9.4-4-14.6-13.1-19c7.1932-1.7667,12.6-1.4,16.5-7c2.8-4,4.2-8.5,4-12.9c0.1-2.2-0.3-4.5-1-6.7
	c-1.9-6-6.6-11.3-13-15.1c9.6-4.2,17.7-10.1,23.2-17.1c7.4-9.4,10-20.1,12-30.2c4-20.4,6-39.5,5.9-57.6
	C138.8568,113.4667,135.4568,91.7667,128.5568,71.2667z"/>
</svg>
