<?xml version="1.0" encoding="utf-8"?>
<!-- Generator: Adobe Illustrator 19.0.0, SVG Export Plug-In . SVG Version: 6.00 Build 0)  -->
<svg version="1.1" id="Layer_1" xmlns="http://www.w3.org/2000/svg" xmlns:xlink="http://www.w3.org/1999/xlink" x="0px" y="0px"
	 viewBox="0 0 331.8 314.9" style="enable-background:new 0 0 331.8 314.9;" xml:space="preserve">
<style type="text/css">
	.st0{fill:#EF7B05;}
	.st1{fill:#FFFFFF;}
</style>
<g id="XMLID_2084_">
	<path id="XMLID_2096_" class="st0" d="M67.5,134c0,0-52.6-24.4-35.3-67.3s89.6-70.6,166.1-36.9s123.2,38.5,123.2,38.5
		s-32.6,35.8-86.8,19.5S84.3,109,67.5,134z"/>
	<path id="XMLID_2095_" class="st0" d="M191.8,46c0,0,11.9-12.6,27-7.5c17.6,5.9,39.7,14,58.4,15.1c20.8,1.2,39.1-0.3,39.1-0.3
		s-10.6,20.1-56.7,9.5s-54.5-9.5-54.5-9.5L191.8,46z"/>
	<path id="XMLID_2094_" class="st0" d="M54.8,100.7c0,0-16.3,12.7-24.2,38c-6.2,19.8-3.6,93.7-3.6,93.7s21-43.8,21.7-48.8
		c0.7-5.1,11.6-38.4,11.6-38.4L54.8,100.7z"/>
	<path id="XMLID_2093_" class="st0" d="M53.4,111.7c0,0,23.1-66.5,87.4-62.4s76,29.9,116.2,34.7s49.9,2.2,49.9,2.2s-13,33.1-64,38
		s-102-19-142.7-11.4C59.3,120.4,53.4,111.7,53.4,111.7z"/>
	<path id="XMLID_2092_" class="st0" d="M74.3,128.4c0,0,7-12.8,30.8-11.3c23.8,1.4,45.8,20,82.2,23.4c36.4,3.3,65.1-8.3,65.1-8.3
		s-35.2,1.6-69.5-15.5c-34.2-17-50.1-39.4-72.1-37.7C88.8,80.6,74.3,128.4,74.3,128.4z"/>
	<path id="XMLID_2091_" class="st0" d="M286.6,144.8c-17.7-43.8-84.7-69.5-121.2-68.4h-0.2c0,0-0.1,0-0.1,0v0c0,0,0,0,0,0
		c0,0,0,0,0,0v0c0,0-0.1,0-0.1,0h-0.2C128,75.3,61.1,101,43.3,144.8c-17.7,43.8-20.2,84.1-14.1,119.8c4,23.8,8.2,39.7,8.2,39.7
		s4.7-22.4,2.6-46.6c-2.2-24.2,11.3-41.5,14.8-52.9s-1.1-49.7,11.4-66.8c22-30.1,44.5-26.9,63.6-27.7c9.8-0.4,18.4-0.2,24.6,0.1
		c3.5,0.2,7,0.2,10.5,0.1c3.5,0.1,7,0.1,10.5-0.1c6.2-0.3,14.9-0.5,24.6-0.1c19.2,0.8,41.7-2.4,63.6,27.7
		c12.5,17.1,7.9,55.4,11.4,66.8c3.5,11.4,17,28.8,14.8,52.9c-2.2,24.2,2.6,46.6,2.6,46.6s4.2-15.9,8.2-39.7
		C306.7,228.9,304.3,188.6,286.6,144.8z"/>
	<path id="XMLID_2090_" class="st1" d="M41.5,114.2c0,0,18.8,3.1,32.3,14.7c13.3,11.4-5.9,1.7-5.9,1.7S47.5,119,33.5,119
		C19.5,119,41.5,114.2,41.5,114.2z"/>
	<path id="XMLID_2089_" class="st1" d="M42.2,115c0,0-0.1-0.9-0.3-2.5c-0.1-1.7-0.3-4.1-0.3-7.2c0-3.1,0.2-6.9,0.8-11.3
		c0.6-4.3,1.5-9.2,3.2-14.4c0.8-2.6,1.8-5.2,3.1-7.9c0.6-1.3,1.3-2.7,2-4c0.7-1.3,1.5-2.7,2.4-4c1.7-2.6,3.7-5.2,5.9-7.7
		c1.1-1.2,2.3-2.4,3.5-3.6c0.6-0.6,1.3-1.1,1.9-1.7c0.7-0.5,1.3-1.1,2-1.6c2.7-2.1,5.7-4,8.9-5.6c0.8-0.4,1.6-0.8,2.4-1.2
		c0.4-0.2,0.8-0.4,1.2-0.6l1.2-0.5l1.2-0.5l1.3-0.5l1.3-0.5l1.3-0.4c6.8-2.4,13.9-3.9,21.2-4.6c7.3-0.7,14.6-0.4,21.6,0.6
		c7.1,1,13.9,2.8,20.3,5.1c3.2,1.1,6.3,2.4,9.2,3.7c1.5,0.7,2.9,1.4,4.3,2.1c1.4,0.7,2.8,1.4,4.2,2c5.5,2.6,10.7,4.9,15.7,6.9
		c4.9,2,9.5,3.7,13.6,5.2c4.1,1.5,7.6,2.7,10.6,3.6c5.9,1.9,9.3,2.9,9.3,2.9s-0.9-0.1-2.5-0.5c-1.6-0.3-4-0.8-7.1-1.6
		c-3-0.7-6.7-1.7-10.9-2.9c-4.2-1.2-8.9-2.6-13.9-4.4c-5.1-1.8-10.5-3.8-16.1-6.3c-1.4-0.6-2.8-1.2-4.2-1.9
		c-1.5-0.6-2.9-1.3-4.3-1.9c-2.9-1.2-5.9-2.4-9-3.4c-6.2-2.1-12.8-3.6-19.6-4.6c-6.8-0.9-13.8-1.1-20.7-0.5
		c-6.9,0.6-13.7,2-20.2,4.2l-1.2,0.4l-1.2,0.4l-1.2,0.4l-1.2,0.5l-1.2,0.5c-0.4,0.1-0.8,0.3-1.1,0.5c-0.8,0.3-1.5,0.7-2.3,1
		c-3,1.4-5.8,3.1-8.4,5c-2.6,1.9-5,4-7.2,6.2c-2.2,2.2-4.1,4.6-5.8,7c-3.4,4.9-5.9,10-7.8,14.9c-1.8,4.9-3.1,9.6-3.9,13.8
		c-0.8,4.2-1.3,8-1.5,11c-0.2,3.1-0.3,5.5-0.3,7.2C42.2,114.1,42.2,115,42.2,115z"/>
	<path id="XMLID_2088_" class="st1" d="M49.6,115.5c0,0,0.1-0.7,0.3-2c0.2-1.3,0.5-3.2,1.1-5.6c0.5-2.4,1.3-5.3,2.4-8.5
		c1.1-3.2,2.5-6.8,4.5-10.6c0.5-0.9,1-1.9,1.6-2.8c0.6-0.9,1.1-1.9,1.8-2.9c1.3-1.9,2.7-3.8,4.3-5.6c3.2-3.7,7.3-7.1,12.2-9.5
		c0.6-0.3,1.2-0.6,1.8-0.9c0.6-0.3,1.3-0.5,1.9-0.8l0.5-0.2l0.2-0.1l0.3-0.1l1-0.3c0.6-0.2,1.3-0.4,2-0.6c2.7-0.8,5.5-1.3,8.3-1.5
		c2.8-0.2,5.7-0.1,8.6,0.3c2.9,0.4,5.7,1.1,8.4,1.9c5.5,1.8,10.5,4.3,15.4,6.9c2.4,1.3,4.8,2.6,7.2,3.9c2.3,1.3,4.7,2.6,7,3.8
		c2.3,1.2,4.6,2.3,6.8,3.4c1.1,0.5,2.2,1,3.4,1.5c1.1,0.5,2.2,1,3.3,1.4c2.2,0.9,4.4,1.7,6.5,2.5c2.1,0.8,4.1,1.6,6.1,2.3
		c3.9,1.4,7.5,2.7,10.7,3.7c3.2,1,6,1.9,8.4,2.5c2.3,0.6,4.2,1.1,5.5,1.3c1.3,0.3,2,0.3,2,0.3s-0.7,0-2-0.1
		c-1.3-0.1-3.2-0.4-5.6-0.9c-2.4-0.5-5.3-1.1-8.6-2c-3.3-0.9-7-1.9-11-3.1c-2-0.6-4.1-1.3-6.2-2c-2.1-0.7-4.3-1.4-6.6-2.3
		c-4.6-1.6-9.2-3.7-13.9-6.1c-4.7-2.3-9.5-4.9-14.3-7.5c-4.8-2.5-9.8-4.9-14.9-6.6c-5.1-1.7-10.5-2.5-15.8-2.2
		c-1.3,0.1-2.6,0.3-3.9,0.4c-0.6,0.1-1.3,0.2-1.9,0.3c-0.6,0.1-1.2,0.3-1.9,0.4c-0.6,0.1-1.3,0.4-1.9,0.5l-1,0.3
		c-0.3,0.1-0.6,0.2-0.9,0.3c-0.6,0.2-1.2,0.4-1.8,0.7c-0.6,0.3-1.1,0.5-1.7,0.8c-4.5,2.2-8.4,5.2-11.6,8.6c-1.6,1.7-3.1,3.5-4.3,5.2
		c-0.7,0.9-1.3,1.8-1.9,2.7c-0.6,0.9-1.1,1.8-1.7,2.7c-2.1,3.6-3.7,7-5,10.1c-1.3,3.1-2.2,5.9-3,8.2c-0.7,2.3-1.2,4.2-1.5,5.4
		C49.7,114.8,49.6,115.5,49.6,115.5z"/>
	<path id="XMLID_2087_" class="st1" d="M68.3,120.7c0,0,0-0.4,0.1-1.3c0.1-0.8,0.4-2,0.9-3.5c0.5-1.5,1.3-3.2,2.6-5.1
		c1.2-1.8,2.9-3.8,5-5.5c1.1-0.9,2.2-1.7,3.5-2.4c0.6-0.4,1.3-0.7,2-1.1c0.3-0.2,0.7-0.3,1-0.5c0.4-0.1,0.7-0.3,1.1-0.5
		c2.9-1.2,6.1-2.1,9.5-2.6c0.4-0.1,0.8-0.1,1.3-0.2l0.6-0.1l0.2,0l0.2,0l0.3,0c0.4,0,0.8-0.1,1.3-0.1c0.4,0,0.8-0.1,1.3-0.1
		c1.8-0.1,3.6-0.1,5.4,0c3.6,0.2,7.2,0.8,10.7,1.7c3.5,0.9,6.9,2.1,10.1,3.5c3.3,1.3,6.4,2.8,9.3,4.3c3,1.4,5.8,2.9,8.5,4.3
		c2.7,1.3,5.3,2.6,7.7,3.7c2.4,1.1,4.6,2,6.6,2.8c1,0.4,1.9,0.7,2.8,1c0.9,0.3,1.7,0.6,2.4,0.8c0.7,0.2,1.4,0.4,2,0.6
		c0.6,0.2,1.1,0.3,1.5,0.4c0.8,0.2,1.2,0.3,1.2,0.3s-0.4-0.1-1.3-0.2c-0.8-0.1-2-0.3-3.6-0.6c-0.8-0.2-1.6-0.3-2.5-0.5
		c-0.9-0.2-1.9-0.5-2.9-0.8c-2.1-0.6-4.4-1.3-6.9-2.2c-2.5-0.9-5.2-2-8-3.2c-2.8-1.2-5.7-2.5-8.7-3.9c-3-1.4-6.1-2.7-9.3-4
		c-3.2-1.2-6.5-2.4-9.8-3.3c-3.3-0.9-6.7-1.5-10.1-1.7c-0.8-0.1-1.7-0.1-2.5-0.1c-0.8-0.1-1.6,0-2.5,0c-0.4,0-0.8,0-1.2,0
		c-0.4,0-0.8,0.1-1.3,0.1c-0.8,0-1.6,0.2-2.4,0.2c-3.2,0.4-6.2,1.1-9,2c-2.8,1-5.3,2.2-7.4,3.7c-0.5,0.3-1,0.8-1.5,1.1
		c-0.5,0.4-0.9,0.8-1.4,1.2c-0.9,0.8-1.6,1.6-2.3,2.4c-1.3,1.6-2.3,3.2-3,4.6c-0.7,1.4-1.1,2.5-1.3,3.3
		C68.4,120.2,68.3,120.7,68.3,120.7z"/>
	<path id="XMLID_2086_" class="st1" d="M47.6,121.9c0,0-0.1,0.2-0.4,0.6c-0.3,0.4-0.7,1.1-1.1,1.9c-0.5,0.8-1,1.9-1.7,3.1
		c-0.6,1.2-1.3,2.6-1.9,4.1c-0.7,1.5-1.3,3.2-2,5c-0.3,0.9-0.6,1.8-1,2.8c-0.3,1-0.6,2-0.9,3c-0.3,1-0.5,2-0.8,3.1
		c-0.2,1.1-0.5,2.1-0.7,3.2c-0.2,1.1-0.4,2.2-0.5,3.3c-0.1,1.1-0.3,2.3-0.4,3.4c-0.6,4.5-1,9-1.4,13.3c-0.4,4.2-0.7,8.2-0.9,11.6
		c-0.5,6.8-0.7,11.3-0.7,11.3s0-4.5,0.1-11.4c0.1-3.4,0.2-7.4,0.3-11.7c0.2-4.3,0.4-8.8,0.7-13.4c0.1-1.1,0.2-2.3,0.3-3.4
		c0.1-1.1,0.2-2.3,0.4-3.4c0.1-1.1,0.3-2.2,0.5-3.3c0.2-1.1,0.4-2.2,0.6-3.2c0.3-1.1,0.5-2.1,0.8-3.1c0.3-1,0.6-2,0.8-2.9
		c0.6-1.9,1.2-3.7,1.8-5.3c0.6-1.6,1.2-3.1,1.8-4.4c0.6-1.3,1.1-2.4,1.6-3.3c0.5-0.9,0.8-1.6,1.1-2.1c0.3-0.5,0.4-0.8,0.4-0.8
		L47.6,121.9z"/>
	<path id="XMLID_2085_" class="st1" d="M59.3,126.7c0,0-0.1,0.2-0.4,0.5c-0.3,0.3-0.7,0.8-1.2,1.4c-1,1.3-2.3,3.1-3.7,5.5
		c-0.4,0.6-0.7,1.2-1,1.9c-0.4,0.7-0.7,1.3-1,2.1c-0.2,0.4-0.4,0.7-0.5,1.1c-0.2,0.4-0.3,0.8-0.5,1.1c-0.2,0.4-0.3,0.8-0.5,1.2
		c-0.1,0.4-0.3,0.8-0.4,1.2c-0.1,0.4-0.3,0.8-0.4,1.2c-0.1,0.4-0.3,0.8-0.4,1.3c-0.3,0.9-0.5,1.7-0.7,2.6c-0.1,0.4-0.2,0.9-0.3,1.3
		l-0.2,0.7c0,0.2-0.1,0.5-0.1,0.7c-0.1,0.9-0.3,1.8-0.4,2.7c-0.1,0.9-0.2,1.9-0.3,2.8c-0.1,0.9-0.1,1.9-0.2,2.8
		c-0.1,1.9-0.3,3.7-0.4,5.5c-0.3,3.5-0.5,6.9-0.8,9.7c-0.3,2.8-0.5,5.2-0.7,6.8c-0.2,1.6-0.3,2.6-0.3,2.6s0.1-0.9,0.1-2.6
		c0.1-1.7,0.2-4,0.2-6.9c0.1-2.8,0.1-6.2,0.2-9.7c0-1.8,0-3.6,0-5.5c0-0.9,0-1.9,0-2.8c0-1,0.1-1.9,0.1-2.9c0.1-1,0.2-1.9,0.3-2.9
		c0-0.2,0-0.5,0.1-0.7l0.1-0.7c0.1-0.5,0.2-0.9,0.2-1.4c0.1-0.9,0.4-1.9,0.6-2.8c0.1-0.5,0.2-0.9,0.3-1.4c0.1-0.4,0.3-0.9,0.4-1.3
		c0.1-0.4,0.3-0.9,0.4-1.3c0.1-0.4,0.3-0.8,0.4-1.3c0.1-0.4,0.3-0.8,0.4-1.2c0.1-0.4,0.3-0.8,0.5-1.2c0.3-0.8,0.6-1.5,1-2.2
		c0.3-0.7,0.6-1.4,1-2.1c1.3-2.6,2.6-4.7,3.6-6.1c0.5-0.7,0.9-1.3,1.2-1.6c0.3-0.4,0.5-0.6,0.5-0.6L59.3,126.7z"/>
</g>
</svg>
