<?xml version="1.0" encoding="utf-8"?>
<!-- Generator: Adobe Illustrator 19.0.0, SVG Export Plug-In . SVG Version: 6.00 Build 0)  -->
<svg version="1.1" id="Layer_1" xmlns="http://www.w3.org/2000/svg" xmlns:xlink="http://www.w3.org/1999/xlink" x="0px" y="0px"
	 viewBox="-280.5 -75.25 471 697.5" enable-background="new -280.5 -75.25 471 697.5" xml:space="preserve">
<g>
	<path fill="#EF7B05" d="M38.9,289.7423c-0.3,0.6,0.2,1.3,1.1,1.5c0.2,0,0.3,0.1,0.5,0.1c0.7,0,1.3-0.3,1.5-0.8
		c1.7-4,3.2-8.1,4.6-12.3l0.1-0.1c5.1418-12.0984,8.9869-25.3852,11.5472-39.2188l-7.2303,0.5926
		C49.6907,257.1762,45.6541,273.9829,38.9,289.7423z"/>
	<path fill="#EF7B05" d="M51.011,239.5869c0.0018-0.0237,0.0042-0.0471,0.0059-0.0707"/>
	<path fill="#EF7B05" d="M-167.6,257.1423"/>
	<path fill="#EF7B05" d="M-167.6,257.1423l-1.4-15.7c0,0,0.2-30.3,1.1-35.8c1.5-9.7,4.1-19.2,8.0001-28.3c0.2-0.7,1.1-1.7,1.1-2.8
		h0.1c21-6.7,47.2-15.5,47.2-15.5c59.0999-18.7,66.9999-41.1,66.9999-41.1s12.4,22.3,55.3,36.9c0,0,14.6,4.8,31.5,10.7
		c7.5341,26.1709,10.4426,50.8641,8.7169,73.9738l7.2303-0.5926c3.3532-18.1575,4.5168-37.4019,3.5528-56.6812
		c2.4,6.2,4.2,12.7,5.4,19.3c0.5,2.4,0.7,4.9,0.8,7.3l0.9966,29.2002L69,238.0423c-0.0008,0.0063-0.0019,0.0132-0.0027,0.0196
		L69,238.1423l-0.0139,0.0011C66.2659,259.0741,55.766,300.1591,34.1,310.8423c-0.7,0.4-0.9,1.1-0.4,1.6c0,0.1,0.1,0.1,0.2,0.1
		c-7.2,11.7-14.4,23.9-17.4,36.9c-2.7,11.7-1.9,23.6-1.2,35.2c0.7,10.1,1.3,20.6-0.3,30.8c-1,6-2.8,12-4.6,17.9
		c-2.9,9.4-5.8,19.1-5.4,29c0.3,5.7,1.7,11.4,3,16.9c1,4.1,2.1,8.3,2.6,12.5c0.5,3.8,0.6,7.8,0.7,11.6c0.1,3.8,0.2,7.7,0.7,11.6
		c1.2,9.4,4.8,16.9,10.8,22.1c5.6,4.9,13.4,7.6,20.9,7.6c2.9,0,5.7-0.4,8.3-1.2c1.4-0.4,2.6-1,3.9-1.7c-1.5,3.9-1.3,8.1,0.7,11.8
		c0.6,1.1,1.1,2.3,1.6,3.4c1,2.3,2.1,4.7,3.8,6.5c-6.6,0.2-13.1-1.6-17.3-5.1c-0.6-0.5-1.6-0.6-2.2-0.2c-0.7,0.4-0.8,1.1-0.3,1.6
		c5.5,5.6,14.3,7.9,22.8,7.9c3.8,0,7.6-0.4,11-1.2c4.7-1.1,8.9-2.8,12.3-5.1c-0.1,0.5,0.2,1,0.8,1.2c0.2,0.1,0.4,0.1,0.7,0.1
		c0.6,0,1.1-0.2,1.4-0.6c9.2,1.7,20-1.5,26.7-8.2c5.2-5.1,8.1-11.9,9.4-21.2c3.6,1.8,7.6,3,11.7,3.2c0.5,0,1,0,1.6,0
		c8.1,0,16.2-3.3,21.6-8.9c4.7-4.8,7.3-11.4,7.7-18.9c0-0.6-0.5-1.1-1.2-1.2c-0.7-0.1-1.5,0.1-1.8,0.6c-2.2,3.3-6.4,5.6-11.9,6.4
		c-4.8,0.7-9.9,0.3-14.2-1.2c3.5-2.2,5.9-5.8,6.4-10.1c0.4-3,0-6.1-0.4-9c-0.1-1.1-0.3-2.3-0.4-3.4c-0.9-9.4,1.5-18.9,3.8-28.1
		c1.3-5.4,2.7-11,3.4-16.6c1.5-11.2-4.8-22.4-10.8-33.2c-3.9-7.1-8-14.4-9.7-21.5c-1.8-7.5-0.1-15.3,1.5-22.8
		c1.7-7.7,3.4-15.6,1.5-23.5c-1.6-6.8-6.3-14.9-11.2-23.4c-5.7-9.8-11.5-19.9-12.3-27.8c-1.5-14,0.3-25,2.1-35.7
		c2.3-13.3,4.3-26-0.7-42.6c-0.5-2.3-1.1-4.6-2-6.9c-0.1-0.2-0.3-0.3-0.5-0.4c2.1-7.6,3.3-15.4,2.6-23.2c-0.2-2.3-0.6-4.6-2-6.8
		c1.7-3.3,3.4-6.4,5.2-9.5c1.8-3.2,3.6-6.5,5.4-10c0.4-0.7,0.7-1.5,1.2-2.2c0,0,0,0,0-0.1c1.3-2.4,3-4.7,5.5-6.4
		c1.4-0.9,3.1-1.6,4.8-2.3c2.3-0.9,4.6-1.9,6.5-3.4c4.8-3.8,4.6-9.6,4-14.6l-2.3-20.4c-0.7-4.6,0-9.3,0.6-14
		c0.7-5.2,1.4-10.5,0.3-15.7c0-0.4,0-0.7,0-1.1c0-0.3-0.2-0.5-0.5-0.7c-0.5-1.6-1.1-3.1-2-4.6c-3-5.2-8.5-9.2-13.9-13.2l-2.6-1.9
		c-4.8-3.6-9.5-6.4-14-9c-8.5-5-15.9-9.3-20.9-17.9c-1.6-2.7-3.2-6.7-4.9-11c-2-5-4.1-10.2-6.2-13.4c-2.7-4-8.7-7.7-15.1-9.2
		c-5.4-1.3-10.7-1-15.4,0.9c-1.3,0.6-3.1,1-4.6,1.3h-0.1c-0.5,0.1-1,0.2-1.4,0.2h-0.1c0,0,0,0-0.1,0c-2,0.2-4.1,0.1-6.1-0.3
		c0,0,0,0-0.1,0c-5.6-1-11.4-3.9-17.7-7.1c-7.1-3.6-15.2-7.6-24.5-9.5c-10.2-2.1-21.8-4.4-33.3-3.3
		c-9.4,0.9001-18.1,3.9001-26.6,6.9001c-3.8,1.3-7.4,2.6-11.1,3.7c-0.2,0-0.3,0.1-0.5,0.1c-6.4,1.9-12.9,3.2-19.7,2.9
		c-3.2-0.1-6.4-0.6-9.6-1.1c-4.2-0.6-8.7-1.3-13.1-1.1c-9.4,0.3-16.3,5.4-22.9,10.4c-4.6,3.4-9.3,6.9-14.7,8.8
		c-21.8,7.5-37.5,15.3-49.5,24.6c-15.2,11.8-23.7,25.9-23.9,39.7c0,1.9,0.1,3.9,0.2,5.9c0.3,5.1,0.6,9.9-1.7,14.3
		c-1.7,3.3-4.8,6-8,9c-2.3,2-4.6,4.2-6.4,6.5c-3.3,4.1-4.2,9.9-2.3,14.1c1.2,2.6,3.3,4.4,6.3,5.4l2.1,0.7c-2.7,3.4-5.4,7-6.8,11
		c-1.8,5-1,10,2.1,13.6c1.5,1.7,3.5,3.2,5.5,4.6c2.4,1.7,4.6,3.3,5.8,5.3c1.3,2.2,1.2,4.6,1.1,7.3c0,1-0.1,2.1,0,3.1
		c0.4,9.9,13,24.7,18.4,29c0.3,1.4,0.7,2.7,1.1,4.1c-0.2,0.1-0.4,0.2-0.5,0.4c-1,2.3-1.6,4.6-2.1,6.9c-5.3,16.6-3.1,29.3-0.8,42.7
		c1.9,10.6,3.8,21.6,2.2,35.6c-0.9,7.8-7,18-12.9,27.8c-5.2,8.6-10,16.7-11.7,23.4c-2,7.9-0.2,15.9,1.5,23.6
		c1.7,7.5,3.5,15.2,1.6,22.7c-1.8,7.1-6.1,14.4-10.2,21.5c-6.3,10.8-12.8,22-11.3,33.2c0.8,5.6,2.2,11.2,3.6,16.6
		c2.4,9.2,4.8,18.7,3.9,28.1c-0.1,1.1-0.3,2.3-0.4,3.4c-0.4,3-0.8,6-0.4,9.1c0.6,4.4,3.1,7.9,6.7,10.1c-4.6,1.5-10.1,2-15.2,1.2
		c-5.6-0.9-10-3.2-12.2-6.4c-0.3-0.5-1.1-0.8-1.9-0.6c-0.7,0.1-1.2,0.6-1.2,1.2c0.4,7.5,3.2,14,8.1,18.9c5.6,5.6,14.1,8.9,22.5,8.9
		c0.5,0,1.1,0,1.6,0c4.3-0.2,8.5-1.4,12.3-3.2c1.3,9.3,4.4,16.1,9.8,21.2c7,6.7,18.3,9.9,27.9,8.1c0.3,0.4,0.8,0.6,1.4,0.6
		c0.2,0,0.5,0,0.7-0.1c0.7-0.2,0.9-0.7,0.8-1.2c3.6,2.3,8,4,13,5.1c3.5,0.8,7.5,1.2,11.4,1.2c8.9,0,18-2.2,23.8-7.9
		c0.5-0.5,0.4-1.2-0.3-1.6c-0.7-0.4-1.7-0.3-2.2,0.1c-4.3,3.6-11.2,5.4-18.2,5.2c1.8-1.8,2.9-4.1,4-6.5c0.5-1.1,1-2.3,1.7-3.4
		c2.1-3.8,2.3-8,0.7-11.9c1.3,0.7,2.7,1.3,4.2,1.8c2.8,0.8,5.6,1.2,8.5,1.2c8.5,0,16.9-3.3,22-7.6c6.2-5.2,10-12.6,11.3-22.1
		c0.5-3.9,0.6-7.8,0.7-11.6c0.1-3.8,0.2-7.8,0.8-11.6c0.6-4.2,1.7-8.4,2.7-12.5c1.4-5.5,2.9-11.2,3.2-16.9c0.5-9.9-2.6-19.6-5.6-29
		c-1.9-5.8-3.8-11.9-4.8-17.9c-1.8-10.1-1.1-20.6-0.4-30.8c0.8-11.6,1.6-23.6-1.3-35.2c-3.2-13-10.7-25.1-18.2-36.9
		c0.1-0.1,0.2-0.1,0.2-0.1c0.5-0.5,0.1-1-0.5-1.6c-15-15-17.1-18.5-26.9-35.8"/>
</g>
<g id="XMLID_571_">
	<path id="XMLID_426_" fill="#FFFFFF" d="M71.6,50.4423c0,0,0.1-0.1,0.2-0.3c0.2-0.2,0.4-0.6,0.5-1c0.4-0.9,0.5-2.5-0.2-4.3
		c-0.6-1.8-2.3-3.4-4.7-4.5c-1.2-0.6-2.5-1-3.9-1.4c-1.5-0.4-2.9-0.7-4.6-1c-3.2-0.5-6.7-0.7-10.4-0.4c-3.7,0.3-7.5,1.1-11.3,2.5
		c-1.9,0.7-3.7,1.6-5.8,2.4c-2,0.8-4.4,1.5-7,1.2c-0.6-0.1-1.3-0.2-1.9-0.5l-0.2-0.1c-0.1,0,0,0-0.1-0.1l0,0h-0.1l-0.4-0.2
		c-0.2-0.1-0.6-0.3-0.9-0.5c-1.1-0.7-2-1.7-2.7-2.8c-1.4-2.1-2-4.5-2.4-6.8c-0.3-2.3-0.4-4.5-0.6-6.6s-0.7-4.1-1.6-5.7
		c-1.9-3.4-5.6-5.3-9.4-6.3s-7.8-1.3-11.5-1.4c-3.7-0.2-7.3-0.1-10.6,0c-6.6,0.3-12,0.9-15.8,1.5s-6,1-6,1s0.5-0.2,1.5-0.5
		s2.5-0.7,4.3-1.2c3.8-0.9,9.2-2.1,15.8-2.7c3.3-0.3,6.9-0.5,10.8-0.5c3.8,0,7.9,0.1,12.1,1.1c2.1,0.5,4.2,1.3,6.2,2.4
		c1,0.6,1.9,1.3,2.8,2.1c0.4,0.5,0.8,0.8,1.2,1.4l0.6,0.8c0.2,0.3,0.3,0.5,0.4,0.7c1.3,2.1,1.8,4.5,2.1,6.8c0.3,2.3,0.3,4.5,0.6,6.5
		c0.3,2,0.9,4,1.9,5.6c0.5,0.8,1.1,1.5,1.8,1.9c0.2,0.1,0.3,0.2,0.5,0.3l0.4,0.2h0.1l0,0c-0.1-0.1,0,0,0,0l0.2,0.1
		c0.4,0.2,0.8,0.3,1.3,0.3c1.8,0.2,3.7-0.2,5.6-0.9s3.8-1.6,5.9-2.3c4-1.4,8.1-2.1,12-2.3s7.6,0.2,10.9,0.9c1.6,0.4,3.3,0.8,4.7,1.3
		c1.5,0.5,2.8,1.1,4,1.8c2.4,1.4,4.2,3.4,4.7,5.3c0.6,1.9,0.2,3.6-0.2,4.5c-0.2,0.5-0.5,0.8-0.7,1
		C71.7,50.3423,71.6,50.4423,71.6,50.4423z"/>
</g>
<g id="XMLID_608_">
	<path id="XMLID_424_" fill="#FFFFFF" d="M104.7,136.7423c0,0,0.3,0,0.8,0.1c0.2,0,0.6,0,0.9,0.1c0.4,0,0.8,0,1.2,0
		c0.5,0,0.9,0,1.5-0.1c0.5-0.1,1.1-0.1,1.7-0.3c0.6-0.1,1.2-0.3,1.9-0.6c0.3-0.1,0.7-0.2,1-0.4c0.3-0.2,0.7-0.3,1-0.5
		c0.7-0.3,1.3-0.8,2-1.2c0.6-0.5,1.4-0.9,2-1.5c1.3-1.1,2.5-2.5,3.5-4c1-1.5,1.8-3.3,2.2-5.1c0.1-0.5,0.1-0.9,0.2-1.4
		c0-0.2,0.1-0.5,0.1-0.7v-0.8c0-0.5,0-0.9,0-1.4s-0.1-1-0.1-1.5c-0.2-2-0.7-4-1.3-5.9c-0.6-2-1.2-4-1.7-5.9c-0.3-1-0.5-1.9-0.7-2.9
		c-0.2-0.9-0.4-2-0.5-2.9c-0.2-1.9-0.2-3.7,0-5.3c0.4-3.3,1.7-5.9,3-7.3c0.3-0.4,0.6-0.7,0.9-0.9c0.3-0.3,0.5-0.4,0.7-0.6
		c0.4-0.3,0.6-0.4,0.6-0.4s-0.2,0.2-0.5,0.6c-0.2,0.2-0.4,0.4-0.6,0.7s-0.4,0.6-0.7,1c-0.9,1.5-1.7,4-1.7,7.1c0,1.5,0.2,3.2,0.5,4.9
		c0.2,0.9,0.4,1.7,0.6,2.6c0.3,0.9,0.5,1.8,0.9,2.7c0.6,1.9,1.4,3.8,2,5.8s1.2,4.2,1.5,6.4c0.1,0.6,0.1,1.1,0.1,1.7
		c0,0.6,0,1.2,0,1.7v0.8c0,0.4-0.1,0.6-0.1,0.9c-0.1,0.6-0.1,1.1-0.3,1.7c-0.5,2.2-1.6,4.2-2.8,6c-1.2,1.7-2.7,3.2-4.3,4.3
		c-0.8,0.6-1.6,1-2.4,1.5c-0.8,0.4-1.6,0.8-2.4,1c-0.4,0.1-0.8,0.3-1.2,0.4s-0.8,0.2-1.1,0.3c-0.7,0.2-1.4,0.3-2.1,0.3
		c-0.7,0.1-1.3,0.1-1.9,0.1c-0.3,0-0.6,0-0.8,0c-0.3,0-0.5-0.1-0.8-0.1c-1-0.1-1.6-0.3-2.1-0.5
		C104.9,136.8423,104.7,136.7423,104.7,136.7423z"/>
</g>
<g id="XMLID_613_">
	<path id="XMLID_422_" fill="#FFFFFF" d="M96.8,326.3423c0,0,0.2,0.4,0.7,1.1c0.4,0.7,1.1,1.7,1.8,3c0.8,1.3,1.7,2.9,2.7,4.8
		s2,4.1,2.9,6.5c0.9,2.5,1.8,5.3,2.2,8.3c0.5,3,0.6,6.3,0.4,9.5c-0.1,3.3-0.3,6.6-0.5,10c-0.1,1.7-0.1,3.4-0.1,5.1v1.3l0.1,1.2
		l0.2,2.6c0.4,3.3,0.9,6.6,1.8,9.9c0.9,3.2,1.9,6.4,3.1,9.3c1.2,3,2.5,5.8,3.7,8.5c1.3,2.6,2.6,5.1,3.8,7.4
		c2.5,4.5,4.7,8.3,6.2,10.9s2.4,4.1,2.4,4.1s-0.3-0.3-0.8-1s-1.2-1.6-2.1-2.8c-0.9-1.2-2-2.7-3.2-4.4c-1.2-1.7-2.6-3.7-4-5.9
		c-1.4-2.2-2.9-4.6-4.3-7.2s-2.9-5.5-4.2-8.5s-2.5-6.2-3.4-9.6s-1.6-6.8-2-10.4l-0.2-2.6l-0.1-1.3v-1.3c0-1.8,0.1-3.5,0.2-5.2
		c0.2-3.4,0.6-6.8,0.8-10s0.3-6.3,0-9.2c-0.3-2.9-0.9-5.6-1.6-8c-1.5-4.9-3.3-8.9-4.5-11.6
		C97.5,327.9423,96.8,326.3423,96.8,326.3423z"/>
</g>
<g id="XMLID_625_">
	<path id="XMLID_420_" fill="#FFFFFF" d="M-203.3,462.0923c0,0-0.1-0.4-0.2-1.2c-0.1-0.4-0.1-0.8-0.2-1.4c0-0.3,0-0.6-0.1-0.9
		c0-0.3,0-0.7,0-1c0-2.9,0.8-7,2.7-11.6c0.9-2.3,2.1-4.7,3.4-7.2c0.6-1.2,1.3-2.5,1.9-3.8c0.6-1.3,1.3-2.7,1.9-4
		c0.7-1.4,1.2-2.8,1.8-4.2c0.6-1.4,1.1-2.9,1.7-4.4s1-3,1.6-4.5c0.5-1.5,0.9-3.1,1.4-4.6c0.4-1.5,0.8-3.1,1.2-4.6
		c0.3-1.6,0.7-3.1,1-4.7s0.5-3.1,0.8-4.6c0.2-1.5,0.4-3.1,0.6-4.5c0.1-1.5,0.3-3,0.4-4.4s0.2-2.9,0.3-4.2c0.1-2.8,0.2-5.4,0.1-7.8
		c0-2.4-0.2-4.6-0.2-6.6c-0.2-2-0.3-3.7-0.4-5.1c-0.3-2.8-0.5-4.4-0.5-4.4s0.4,1.6,1.1,4.4c0.3,1.4,0.6,3.1,1,5.1
		c0.3,2,0.6,4.2,0.8,6.7c0.2,2.4,0.3,5.1,0.4,7.9c0,1.4,0,2.9-0.1,4.3c-0.1,1.5-0.2,3-0.3,4.5c-0.2,1.5-0.3,3.1-0.5,4.7
		s-0.5,3.2-0.7,4.8c-0.3,1.6-0.7,3.2-1,4.8c-0.4,1.6-0.8,3.2-1.2,4.8c-0.5,1.6-0.9,3.2-1.5,4.7s-1.1,3.1-1.6,4.6
		c-0.6,1.5-1.2,3-1.8,4.5c-0.7,1.4-1.3,2.9-2,4.3s-1.4,2.7-2.1,4c-0.7,1.3-1.4,2.5-2.1,3.7c-1.4,2.4-2.7,4.7-3.8,6.8
		c-2.2,4.3-3.4,8.1-3.7,10.9c-0.1,0.7-0.1,1.3-0.2,1.9c0,0.5-0.1,1,0,1.4C-203.3,461.6923-203.3,462.0923-203.3,462.0923z"/>
</g>
<g id="XMLID_626_">
	<path id="XMLID_359_" fill="#FFFFFF" d="M-112.3,458.4923c0,0,0.2,0.4,0.5,1c0.2,0.3,0.4,0.7,0.6,1.3c0.2,0.5,0.4,1.1,0.6,1.8
		c0.8,2.7,1.3,6.9,0.4,11.7c-0.4,2.4-1.1,5-2.1,7.6s-2.2,5.3-3.6,8c-1.4,2.6-2.8,5.4-4.3,8.2c-1.4,2.8-2.8,5.6-3.9,8.5
		c-0.6,1.4-1,2.9-1.4,4.4l-0.3,1.1l-0.2,1.2c-0.1,0.8-0.3,1.6-0.4,2.3s-0.2,1.5-0.2,2.2s-0.1,1.5-0.1,2.2c0,1.5,0,3,0.2,4.4
		c0.3,2.9,0.7,5.7,1.3,8.3s1.3,5.1,2,7.4c0.7,2.3,1.4,4.3,2.1,6.2c0.7,1.8,1.3,3.4,1.7,4.7c1,2.6,1.5,4.1,1.5,4.1s-0.2-0.4-0.5-1
		c-0.4-0.7-0.9-1.6-1.5-2.9c-0.6-1.2-1.4-2.8-2.2-4.5c-0.8-1.8-1.8-3.8-2.6-6c-0.9-2.2-1.8-4.7-2.6-7.4c-0.8-2.7-1.4-5.6-1.8-8.6
		c-0.4-3.1-0.5-6.2-0.1-9.5c0.1-0.9,0.2-1.6,0.4-2.4l0.2-1.2l0.3-1.3c0.4-1.6,0.9-3.2,1.5-4.7c1.2-3.1,2.6-6,4.1-8.8s3.1-5.4,4.5-8
		s2.8-5.1,3.8-7.6c1.1-2.5,1.9-4.9,2.5-7.1c1.1-4.5,1.1-8.5,0.7-11.2c-0.1-0.7-0.2-1.3-0.4-1.8c-0.1-0.5-0.2-1-0.4-1.3
		C-112.1,458.7923-112.3,458.4923-112.3,458.4923z"/>
</g>
<g id="XMLID_650_">
	<path id="XMLID_357_" fill="#FFFFFF" d="M-206.6,553.2923c0,0,0.2-0.2,0.6-0.7c0.4-0.4,0.9-1.1,1.6-1.9c0.3-0.4,0.7-0.9,1.1-1.4
		c0.4-0.5,0.8-1.1,1.2-1.7c0.4-0.6,0.8-1.3,1.3-2c0.4-0.7,0.8-1.5,1.3-2.3c0.8-1.6,1.7-3.4,2.4-5.4c0.7-1.9,1.3-4,1.8-6.2
		s0.7-4.5,0.9-6.9c0.1-2.3,0-4.8-0.1-7.2c-0.1-2.5-0.2-5-0.1-7.5c0.1-1.3,0.2-2.5,0.4-3.8c0.1-0.6,0.2-1.2,0.4-1.9
		c0.2-0.6,0.3-1.1,0.5-1.7c0.8-2.4,2-4.4,3.2-6.2c1.2-1.8,2.6-3.4,3.9-4.8c2.6-2.7,5.1-4.7,6.8-6s2.7-2.1,2.7-2.1s-0.8,0.9-2.3,2.5
		c-0.7,0.8-1.6,1.8-2.6,2.9s-2.1,2.4-3.2,3.8c-1.1,1.4-2.3,3.1-3.3,4.8c-1,1.8-1.9,3.8-2.6,5.8c-0.2,0.5-0.3,1.1-0.4,1.7
		c-0.1,0.5-0.2,1.1-0.3,1.6c-0.2,1.1-0.2,2.3-0.3,3.4c-0.1,2.3,0.1,4.8,0.2,7.3c0.1,2.5,0.2,5,0,7.5s-0.6,5-1.2,7.3
		c-0.6,2.3-1.4,4.5-2.3,6.5c-0.9,2-1.9,3.8-3,5.4c-1,1.6-2.1,3-3.1,4.1c-0.5,0.6-1,1.1-1.4,1.6c-0.5,0.5-0.9,0.9-1.3,1.3
		c-0.8,0.8-1.5,1.3-1.9,1.6C-206.4,553.1923-206.6,553.2923-206.6,553.2923z"/>
</g>
<g id="XMLID_653_">
	<path id="XMLID_355_" fill="#FFFFFF" d="M-96.5,477.25c0,0-0.3,0-0.8,0c-0.5-0.1-1.3-0.1-2.2-0.4c-1.8-0.6-4.4-2.1-6.4-4.8
		c-1-1.3-1.9-2.9-2.7-4.7c-0.7-1.8-1.4-3.7-1.9-5.6c-0.5-2-1.1-3.9-1.6-6s-0.9-4.3-1.1-6.5s-0.2-4.5,0.2-6.7
		c0.3-2.2,1.1-4.4,2.1-6.3l0.4-0.7l0.4-0.7c0.3-0.5,0.6-0.9,0.9-1.3c0.6-0.8,1.2-1.6,1.8-2.3c1.2-1.4,2.4-2.7,3.5-3.9s2-2.3,2.7-3.3
		c0.8-1,1.3-2,1.7-2.8s0.7-1.5,0.8-2s0.2-0.7,0.2-0.7s0,0.3-0.1,0.8c0,0.5-0.1,1.3-0.4,2.2s-0.6,2-1.3,3.2c-0.6,1.2-1.4,2.5-2.4,3.8
		c-0.9,1.3-2,2.7-3.1,4.2c-0.5,0.7-1,1.5-1.5,2.3c-0.2,0.4-0.5,0.8-0.7,1.2l-0.3,0.6l-0.3,0.7c-0.8,1.7-1.3,3.6-1.6,5.5
		c-0.3,2-0.2,4,0,6c0.2,2.1,0.5,4.1,0.9,6.1s0.9,4.1,1.3,6c0.5,1.9,0.9,3.8,1.4,5.5c0.6,1.7,1.2,3.2,2,4.5s1.7,2.4,2.6,3.3
		c0.9,0.9,1.8,1.5,2.6,1.9s1.5,0.7,2,0.8C-96.8,477.25-96.5,477.25-96.5,477.25z"/>
</g>
<g id="XMLID_657_">
	<path id="XMLID_353_" fill="#FFFFFF" d="M42.6,548.3423c0,0,1.4-0.3,3.8-1c1.2-0.3,2.6-0.7,4.2-1.3s3.4-1.3,5.1-2.3
		c0.4-0.2,0.9-0.5,1.3-0.8c0.2-0.2,0.4-0.3,0.7-0.5c0.2-0.2,0.4-0.3,0.6-0.5c0.8-0.7,1.6-1.5,2.3-2.4c1.4-1.8,2.4-4,2.6-6.3
		c0-0.6,0-1.2,0-1.7l-0.1-0.4l-0.1-0.4c-0.1-0.3-0.1-0.7-0.3-0.9l-0.3-0.8l-0.4-0.8c-0.3-0.5-0.6-1.1-1-1.5c-1.5-2-3.6-3.7-5.9-5.4
		c-1.1-0.9-2.3-1.7-3.4-2.6c-0.6-0.5-1.1-0.9-1.7-1.4c-0.5-0.5-1-0.9-1.5-1.4c-2.1-2.1-3.8-4.4-5.2-6.7c-1.4-2.3-2.4-4.8-3.2-7.2
		c-0.8-2.4-1.2-4.7-1.4-6.9c-0.1-1.1-0.2-2.1-0.2-3.1c0-0.5,0-1,0-1.4c0-0.5,0.1-0.9,0.1-1.4c0-0.9,0.2-1.7,0.3-2.4
		c0.1-0.4,0.1-0.7,0.2-1.1c0.1-0.3,0.2-0.7,0.2-1c0.3-1.2,0.6-2.1,0.8-2.8c0.2-0.6,0.3-1,0.3-1s-0.1,0.3-0.2,1
		c-0.1,0.3-0.1,0.7-0.2,1.2s-0.1,1-0.2,1.6c0,0.3-0.1,0.6-0.1,1c0,0.3,0,0.7,0,1.1c0,0.7-0.1,1.5,0,2.4c0,0.4,0,0.9,0,1.3
		s0.1,0.9,0.1,1.4c0.1,0.9,0.3,1.9,0.4,2.9c0.4,2,1,4.2,1.8,6.4c0.9,2.2,1.9,4.4,3.3,6.5s3.1,4.1,4.9,5.9c0.5,0.5,1,0.9,1.6,1.4
		c0.4,0.4,1,0.8,1.6,1.2c1.1,0.8,2.3,1.7,3.4,2.5c2.3,1.7,4.6,3.6,6.4,6c0.9,1.2,1.6,2.5,2.1,4.2c0.1,0.4,0.2,0.7,0.2,1l0.1,0.2v0.1
		v0.1c0,0,0,0.2,0,0.1l0,0l0.1,0.6c0.1,0.8,0.1,1.5,0,2.3c-0.3,3-1.8,5.5-3.5,7.4c-0.9,1-1.8,1.8-2.8,2.5c-0.3,0.2-0.5,0.4-0.8,0.5
		c-0.2,0.1-0.5,0.3-0.7,0.4c-0.5,0.3-1,0.6-1.5,0.8c-2,1-3.9,1.5-5.6,1.9s-3.2,0.6-4.4,0.7c-1.2,0.2-2.2,0.2-2.9,0.3
		C43,548.3423,42.6,548.3423,42.6,548.3423z"/>
</g>
<g id="XMLID_658_">
	<path id="XMLID_351_" fill="#FFFFFF" d="M-206.8,188.8923l0.2,1.6l0.3,1.5l0.4,1.5l0.4,1.5l0.5,1.5l0.6,1.4l0.6,1.4l0.7,1.4
		l0.8,1.3l0.8,1.3l0.9,1.2l1,1.2l1,1.1l1.1,1.1l1.1,1l1.2,1l1.2,0.9l1.2,0.8l1.3,0.8l1.3,0.7l1.4,0.6l1.4,0.6l1.4,0.5l1.4,0.4
		l1.5,0.4l1.5,0.3l1.5,0.2l1.5,0.1h1.5h1.5l1.5-0.1l1.5-0.2l2.1-0.2l-0.4,2c-0.6,2.8-0.8,5.7-1.1,8.7l-0.6,8.9l-0.6,8.9
		c-0.2,3-0.5,6-0.8,8.9c-0.3,3-0.7,6-1.2,8.9c-0.5,3-1,5.9-1.8,8.8s-1.7,5.8-3,8.5c-0.7,1.3-1.4,2.7-2.4,3.8c-1,1.2-2.1,2.2-3.4,2.9
		c1.3-0.8,2.3-1.9,3.1-3.2c0.8-1.2,1.5-2.5,2-3.9c1.1-2.7,1.8-5.6,2.4-8.5c0.6-2.9,1-5.8,1.3-8.8c0.3-2.9,0.6-5.9,0.8-8.9
		s0.3-5.9,0.5-8.9l0.4-8.9c0.1-3,0.3-6,0.5-9s0.5-6,1.1-9.1l1.7,1.8l-1.6,0.2l-1.7,0.1h-1.7l-1.7-0.1l-1.6-0.2l-1.6-0.2l-1.6-0.3
		l-1.6-0.4l-1.6-0.5l-1.5-0.6l-1.5-0.7l-1.5-0.7l-1.4-0.8l-1.4-0.9l-1.4-1l-1.2-1l-1.2-1.1l-1.1-1.2l-1.1-1.2l-1-1.3l-0.9-1.4
		l-0.8-1.4l-0.8-1.4l-0.7-1.5l-0.6-1.5l-0.5-1.5l-0.4-1.5l-0.3-1.6l-0.3-1.6l-0.2-1.6l-0.1-1.6L-206.8,188.8923z"/>
</g>
<g id="XMLID_670_">
	<path id="XMLID_349_" fill="#FFFFFF" d="M133.1,152.7423c0,0-0.6-0.1-1.7-0.2c-0.6,0-1.3-0.1-2.1,0s-1.8,0.1-2.8,0.3
		c-2.1,0.4-4.5,1.2-7.1,2.7c-1.2,0.8-2.5,1.7-3.7,2.8s-2.4,2.3-3.5,3.7s-2,3-2.9,4.7c-0.4,0.9-0.8,1.8-1.1,2.7s-0.6,1.9-0.9,2.9
		c-1,4-1.4,8.3-1.3,12.8s0.8,9.1,1.6,13.8c0.9,4.7,1.9,9.5,2.8,14.4c0.4,2.4,0.8,4.9,1.1,7.4c0.1,1.2,0.2,2.5,0.3,3.7l0.1,1.8
		l0.1,1.9c0.1,4.9-0.2,9.7-0.4,14.3s-0.3,9,0,13.1c0.1,1,0.2,2.1,0.3,3c0.1,0.5,0.1,1,0.2,1.5s0.2,1,0.3,1.4
		c0.1,0.9,0.4,1.9,0.6,2.8c0.3,0.9,0.5,1.8,0.8,2.6c1.1,3.4,2.6,6.4,4.3,8.8s3.5,4.3,5.1,5.6c0.4,0.4,0.8,0.6,1.2,0.9
		s0.7,0.5,1.1,0.7c0.7,0.4,1.3,0.8,1.9,1c1.1,0.5,1.6,0.7,1.6,0.7s-0.6-0.2-1.7-0.5c-0.6-0.2-1.2-0.5-2-0.8
		c-0.4-0.2-0.8-0.4-1.2-0.6s-0.9-0.5-1.3-0.8c-1.8-1.2-3.8-3-5.7-5.4s-3.6-5.4-5-8.9c-0.4-0.9-0.6-1.8-1-2.7
		c-0.3-0.9-0.6-1.9-0.8-2.9c-0.1-0.5-0.2-1-0.3-1.5s-0.2-1-0.3-1.5c-0.2-1.1-0.3-2.1-0.4-3.2c-0.4-4.3-0.5-8.8-0.4-13.4
		s0.3-9.3,0.2-14.1l-0.1-1.8l-0.1-1.8c-0.1-1.2-0.2-2.4-0.3-3.6c-0.3-2.4-0.7-4.8-1.1-7.2c-0.8-4.8-1.9-9.6-2.7-14.4
		c-0.9-4.8-1.4-9.6-1.4-14.3c0-4.7,0.6-9.3,1.8-13.4c0.3-1,0.7-2,1.1-3s0.8-2,1.3-2.8c1-1.8,2.1-3.5,3.3-4.9c2.5-2.9,5.3-5,8-6.4
		s5.3-2.1,7.5-2.3c2.2-0.3,3.9,0,5,0.2C132.5,152.6423,133.1,152.7423,133.1,152.7423z"/>
</g>
<g id="XMLID_671_">
	<path id="XMLID_327_" fill="#FFFFFF" d="M-138,41.4923c0,0-0.4,0.1-1.3,0.2c-0.4,0.1-0.9,0.2-1.5,0.4s-1.2,0.5-1.9,0.8
		c-1.4,0.7-2.8,1.9-4.2,3.5s-2.5,3.8-3.4,6.2c-0.4,1.2-0.7,2.5-0.9,3.9c-0.1,0.6-0.2,1.5-0.2,2.1c0,0.7-0.1,1.5-0.1,2.2
		c0,3,0.5,6.2,0.9,9.5c0.5,3.3,1.1,6.8,1.2,10.5c0.1,3.7-0.2,7.5-1.4,11.1c-0.6,1.8-1.5,3.6-2.6,5.2s-2.6,3-4.1,4.1
		c-1.6,1.1-3.3,1.9-5,2.5s-3.3,1.2-4.9,1.7c-1.6,0.5-3,1.2-4.4,1.9c-0.3,0.2-0.7,0.4-1,0.6l-0.2,0.1h-0.1c0,0,0.1-0.1,0,0l0,0
		l-0.1,0.1l-0.5,0.4c-0.3,0.2-0.7,0.5-0.9,0.7c-0.3,0.2-0.5,0.5-0.8,0.7c-0.5,0.5-0.9,1.1-1.4,1.6c-0.4,0.6-0.8,1.1-1.2,1.8
		c-0.3,0.6-0.7,1.2-1,1.8c-0.1,0.3-0.3,0.6-0.4,0.9c-0.1,0.3-0.2,0.6-0.3,0.9c-0.9,2.5-1.4,4.9-1.8,7c-0.3,2.1-0.5,4-0.6,5.6
		c-0.2,3.1-0.3,5-0.3,5s0-0.5-0.1-1.3c-0.1-0.8-0.2-2.1-0.2-3.7c0-1.6-0.1-3.5,0.1-5.7s0.5-4.7,1.3-7.4s2-5.6,4.3-8
		c0.3-0.3,0.6-0.6,0.9-0.9c0.3-0.3,0.6-0.5,0.9-0.8l0.5-0.4l0.1-0.1l0,0l0.1-0.1h0.1l0.3-0.2c0.4-0.2,0.7-0.5,1.1-0.7
		c1.5-0.9,3.1-1.6,4.7-2.2c3.2-1.2,6.5-2.3,9.1-4.1c2.7-1.9,4.5-4.7,5.6-7.9s1.4-6.7,1.4-10.1c-0.1-3.5-0.5-6.9-0.9-10.3
		s-0.6-6.7-0.5-9.9c0-0.8,0.1-1.6,0.2-2.4c0.1-0.8,0.2-1.5,0.3-2.3c0.3-1.5,0.8-2.9,1.3-4.2c1.1-2.6,2.6-4.8,4.2-6.4
		s3.3-2.7,4.8-3.3c0.7-0.3,1.4-0.5,2-0.6s1.1-0.2,1.6-0.2C-138.5,41.4923-138,41.4923-138,41.4923z"/>
</g>
<g id="XMLID_673_">
	<path id="XMLID_325_" fill="#FFFFFF" d="M-158.8,113.2923c0,0-0.8,0.7-2.3,1.9s-3.6,2.9-5.9,5.1c-1.1,1.1-2.3,2.4-3.4,3.8
		c-1.1,1.4-2,3-2.7,4.7c-0.7,1.7-1,3.6-1,5.6c0,1.9,0.4,3.9,1,5.9c0.5,2,1.2,4.1,1.6,6.3c0.5,2.1,0.6,4.5,0.4,6.6
		c-0.3,2.2-1,4.2-1.9,6c-0.9,1.7-2,3.2-3.2,4.4c-1.2,1.2-2.4,2.1-3.6,2.8c-0.6,0.4-1.2,0.6-1.7,0.9c-0.5,0.2-1,0.4-1.5,0.6
		c-0.9,0.3-1.7,0.4-2.2,0.5s-0.8,0.1-0.8,0.1s0.3-0.1,0.7-0.3c0.5-0.2,1.1-0.5,2-0.9c0.4-0.2,0.8-0.5,1.3-0.8c0.4-0.3,1-0.6,1.4-1.1
		c1-0.8,2-1.8,3-3c1-1.2,1.8-2.7,2.5-4.3s1.1-3.4,1.3-5.2c0.2-1.9-0.1-3.8-0.6-5.8c-0.4-2-1.1-4-1.7-6.1s-1-4.4-1-6.8
		c0-2.3,0.6-4.6,1.5-6.6c0.9-2,2.1-3.7,3.4-5.1c1.3-1.4,2.7-2.6,4-3.6c2.6-2,5-3.4,6.7-4.3c0.8-0.5,1.5-0.8,2-1
		C-159.1,113.3923-158.8,113.2923-158.8,113.2923z"/>
</g>
<g id="XMLID_674_">
	<path id="XMLID_323_" fill="#FFFFFF" d="M39.1,295.1423c0,0-0.2,0.3-0.7,1c-0.4,0.6-1.1,1.6-1.9,2.8c-0.8,1.2-1.7,2.7-2.7,4.4
		c-0.5,0.9-1,1.8-1.6,2.8c-0.5,1-1.1,2-1.7,3.1c-1.1,2.2-2.3,4.6-3.4,7.2s-2.2,5.4-3.3,8.3c-1.1,2.9-2,5.9-3,9
		c-0.9,3.1-1.8,6.3-2.5,9.5c-0.8,3.2-1.5,6.4-2.1,9.6s-1.2,6.3-1.7,9.4s-1,6-1.4,8.8s-0.8,5.5-1.2,7.9c-0.7,4.9-1.3,9-1.7,11.9
		c-0.5,2.9-0.7,4.5-0.7,4.5s0-1.7,0.1-4.6s0.3-7.1,0.6-12c0.2-2.5,0.4-5.2,0.7-8s0.6-5.9,1-8.9c0.4-3.1,0.9-6.3,1.5-9.5
		s1.3-6.5,2-9.8c0.8-3.3,1.7-6.5,2.7-9.6s2.1-6.2,3.3-9.1c1.2-2.9,2.4-5.7,3.7-8.3c1.3-2.6,2.6-5,3.9-7.1c0.7-1.1,1.3-2.1,1.9-3
		s1.3-1.8,1.8-2.7c1.2-1.7,2.3-3.1,3.2-4.2c0.9-1.2,1.7-2,2.2-2.6C38.8,295.4423,39.1,295.1423,39.1,295.1423z"/>
</g>
</svg>
