<?xml version="1.0" encoding="utf-8"?>
<!-- Generator: Adobe Illustrator 19.0.0, SVG Export Plug-In . SVG Version: 6.00 Build 0)  -->
<svg version="1.1" id="Layer_1" xmlns="http://www.w3.org/2000/svg" xmlns:xlink="http://www.w3.org/1999/xlink" x="0px" y="0px"
	 viewBox="-364 57 510 700" style="enable-background:new -364 57 510 700;" xml:space="preserve">
<style type="text/css">
	.st0{fill:#EF7B05;}
</style>
<g id="XMLID_7657_">
	<path id="XMLID_7713_" class="st0" d="M-3.1,166.6c-26.5-28.1-69.8-44.3-112.6-41.6c-0.2,0-0.3-0.1-0.5-0.1c-0.1,0-0.2,0.1-0.3,0.1
		c0,0,0,0-0.1,0c-0.7,0-1.3-0.4-1.4-1c-3-12.7,2.5-26.7,13.8-35.6c-32.6-1.1-64.7,6.7-91.8,23.5c-0.3,0.2-0.8,0.3-1.2,0.2
		c-0.1,0.2-0.2,0.4-0.4,0.6c-26.3,15.8-48.2,36.7-64.3,60.9c0.2,0.3,0.3,0.6,0.2,1c-16.3,45.4-14.8,94.7,3.9,139.4
		c-7.1-51.4,7.6-104,42.1-148.5c0.5-0.6,1.4-0.7,2.1-0.4c0.7,0.4,0.9,1.2,0.4,1.7c-37.7,48.6-51.3,106.8-38.8,162.5
		c0.4-5.9,1.8-11.8,4.2-17.5c0.2-0.5,0.7-0.8,1.4-0.8c0.5,0,1.2,0.3,1.4,0.7l10.1,18.4c-4.3-25.9-3-52.2,3.5-77.8
		c0-0.1-0.1-0.3,0-0.4c0,0,0.1,0,0.1-0.1c9.4-36.8,29.4-72.1,59.4-103c0.5-0.5,1.5-0.6,2.1-0.2c0.6,0.4,0.7,1.2,0.2,1.8
		c-29.4,30.3-49.3,65-58.6,101.2c1.5,0.2,3.2,0,4.3-0.6c1.1-3.7,2.9-7.3,5.3-10.8c-0.2-0.2-0.3-0.5-0.3-0.8
		c0.6-4.4,4.4-8.7,10.2-11.4c3.8-1.8,8-2.8,12-3.7c1.2-0.3,2.4-0.6,3.5-0.9c26.3-6.8,48.8-24.3,58.8-45.7c0.2-0.5,0.7-0.7,1.3-0.7
		c0.3-0.3,0.6-0.4,1-0.4c0.8-0.1,1.5,0.5,1.6,1.2c1.5,20.8-12.9,41.9-35.1,51.4c-0.1,0-0.1,0.1-0.2,0.1c-0.1,0-0.2,0.1-0.3,0.1
		c-7.5,4.8-11.8,11.6-11.8,18.4l25.1,0.4c2.2-7.5,9.4-14.8,21.9-22.3c3.3-2,6.6-3.8,10-5.7c7.1-3.9,14.4-7.9,20.2-12.7
		c6.4-5.2,11-11.4,13.9-18.1c0-0.2,0-0.5,0-0.7c0-0.5,0.3-0.8,0.7-1.1c1.5-4,2.3-8.1,2.4-12.3c0.3-10.9-4-22.5-12.5-33.6
		c-0.4-0.6-0.2-1.4,0.5-1.7c0.7-0.4,1.6-0.2,2.1,0.4c8.8,11.5,13.2,23.6,12.9,35c-0.1,5-1.2,9.8-3.1,14.5
		c1.1,17.8-2.8,35.7-11.3,52.1c14.9-8,26.1-22.5,31-40.4c4.8-17.6,3.5-35.9,2.2-53.6c0-0.7,0.6-1.3,1.4-1.3c0.9-0.1,1.5,0.5,1.6,1.2
		c0.3,4.4,0.6,8.8,0.9,13.2c0,0.1,0.1,0.1,0.2,0.2c8.3,19.3,11.1,40.2,8.2,60.5c15.1-18.6,18.6-43.1,9-64.2c-2.1-2.3-4.2-4.7-6.5-7
		c-0.5-0.5-0.4-1.3,0.2-1.8c0.6-0.4,1.6-0.4,2.1,0.2c1.9,1.9,3.6,3.9,5.4,5.9c0.5,0.1,0.9,0.3,1.1,0.7c0.1,0.3,0.2,0.6,0.4,0.9
		c46,51.1,66.2,113.5,56.1,173.8l10.1-18.4c0.3-0.5,0.9-0.8,1.4-0.7c0.6,0,1.1,0.4,1.4,0.8c1.6,3.9,2.8,7.8,3.5,11.8
		c0.3-0.4,0.6-0.6,1.2-0.6c0.3,0,0.6,0.1,0.8,0.2c0-0.1,0.1-0.2,0.1-0.3c10.2-53.7-3.9-109.3-40.1-156C-3.1,166.8-3,166.7-3.1,166.6
		z"/>
	<path id="XMLID_7712_" class="st0" d="M-7.5,587.5c2.4-0.2,4.8-0.4,7.2-0.9c2.2-16.4-0.6-29.7-8.5-40.5c-3.9-4.5-8-9.1-11.3-14
		c-5.4,4-8.2,10.2-7.4,16.8c0.8,7.1,5.2,13.7,9,18.6c2.7,3.5,4.7,7.5,6.6,11.4c1.5,2.9,2.9,5.7,4.5,8.3
		C-7.5,587.3-7.6,587.4-7.5,587.5z"/>
	<path id="XMLID_7711_" class="st0" d="M35.7,329.3c0.1-0.2,0.1-0.5,0.2-0.7c-0.1,0-0.2-0.1-0.2-0.1C35.7,328.8,35.7,329,35.7,329.3
		z"/>
	<path id="XMLID_7710_" class="st0" d="M-226.5,441.5c2-5.9,3.1-11.4,3.5-16.4c-0.1-0.2-0.2-0.4-0.2-0.7c0.1-0.3,0.2-0.5,0.3-0.8
		c0.9-17.9-8.2-30.1-27.6-37.1c0,0,0,0,0,0c-7.1,3.4-12.3,8.9-14.2,15.1c-1.8,5.7-0.9,11.5,2.8,16.7c4.7,6.7,13.1,11,21.3,15.1
		C-235.8,435.9-230.7,438.5-226.5,441.5z"/>
	<path id="XMLID_7709_" class="st0" d="M-275.3,366.5c6.3,8,16.3,14.6,28.1,18.5c0.1,0,0.2,0.1,0.3,0.2c17.5,7,26.5,18.5,27.1,34.6
		c0.5-0.4,1.1-0.8,1.7-1.1c3.7-2.1,8.8-2.8,13.1-2c3.6,0.7,6.9,2.3,9.4,4.6c-0.1-0.1-0.1-0.2-0.1-0.2c-1.7-2-4.1-3.6-6.6-5.2
		l-1.2-0.8c-12.8-8.4-22.7-19.8-29-32.4c-0.3,0.2-0.6,0.4-1,0.4c-0.3,0-0.7-0.1-1-0.3c-28.2-20.1-48.6-48.4-57.1-78.7
		c1,10.7,2.6,21.7,4.8,33.2C-284.9,347.1-282.4,357.5-275.3,366.5z"/>
	<path id="XMLID_7708_" class="st0" d="M0.6,504.1c0.3,0,0.6,0.1,0.8,0.3c1.6-1.4,2.6-3.2,2.8-5.2c0.3-2.3-0.5-4.6-2.3-6.3
		c-0.3-0.3-0.4-0.6-0.3-1c-4-5.6-6.2-12.6-6.5-20.8c-0.4-0.6-0.3-1.3-0.1-2.3c0-0.3,0-0.5,0-0.7l0,0c-0.3-4.2-1.6-5.9-4.5-9.5
		l-0.9-1.1c-1.3-1.6-2.6-3.2-3.9-4.7c-0.3-0.4-0.7-0.8-1-1.2c-6.7,7.6-8.7,17.7-5.2,27.5c3.4,9.6,12.6,17.9,21.1,25.2
		C0.5,504.2,0.6,504.1,0.6,504.1z"/>
	<path id="XMLID_7707_" class="st0" d="M-6.8,544.2c2.2-6.2,7.5-13.2,15.6-17.2c-6-5.9-9.5-13.1-9.7-20.4c-4.7-4-9.6-8.4-13.8-13.1
		c-4.7,2-8.9,7.3-9.9,11.5c-1.6,6.3-0.3,13.2,3.8,20.6C-17.3,532.2-12,538.3-6.8,544.2z"/>
	<path id="XMLID_7706_" class="st0" d="M47.9,177.7c0.2-0.1,0.4,0,0.7,0.1c-16.2-26-39.2-48.4-67-65.2C-44,98-72.1,90-99.9,88.5
		c-10.9,7.5-16.9,19.8-15.6,31.6c0.1,0,0.2,0,0.3,0c0.8,0.2,1.3,0.9,1,1.6l-0.3,0.8c46.1-2.4,92.6,16.5,118.7,48.4
		c0.3,0.4,0.2,0.9,0,1.3c30.9,42.8,43.9,92.4,37.4,141.1c18.9-42.5,20.9-90.5,5.1-133.8C46.6,178.6,47.1,177.9,47.9,177.7z"/>
	<path id="XMLID_7705_" class="st0" d="M-194.4,427.7c-1.5-3.7-5.3-7.5-11.3-8.6c-3.5-0.7-7.8,0-10.8,1.7c-1.8,1-2.9,2.2-3.4,3.6
		c-0.3,5.6-1.6,11.7-3.8,18.4c-0.1,0.3-0.3,0.5-0.6,0.7c5.7,4.1,10,10.8,12,18.5c0.8-1.5,1.9-2.9,3.3-4.7l0.9-1.1
		c1.3-1.6,2.6-3.2,4-4.8c2.3-2.7,4.6-5.4,6.5-8.3c3.1-4.7,4.3-8.9,3.7-12.8c-0.1,0-0.2,0-0.4-0.1c-0.7-0.4-1-1.1-0.5-1.7
		C-194.5,428.2-194.5,427.9-194.4,427.7z"/>
	<path id="XMLID_7704_" class="st0" d="M-7.9,456.1l0.9,1.1c1.4,1.7,2.5,3.1,3.3,4.7c2.1-7.7,6.4-14.4,12-18.5
		c-0.3-0.2-0.5-0.4-0.6-0.7c-2.2-6.6-3.5-12.7-3.8-18.4c-0.5-1.3-1.7-2.6-3.4-3.6c-3-1.7-7.3-2.3-10.8-1.7c-6,1.1-9.8,4.9-11.3,8.6
		c0.1,0.2,0.1,0.5,0.3,0.7c0.4,0.6,0.2,1.4-0.5,1.7c-0.1,0.1-0.2,0.1-0.4,0.1c-0.6,3.8,0.6,8.1,3.7,12.8c1.9,2.8,4.2,5.6,6.5,8.3
		C-10.6,452.8-9.2,454.4-7.9,456.1z"/>
	<path id="XMLID_7703_" class="st0" d="M-227.7,526c5.7-5.3,9.1-12,9.6-18.6c-2.9-2-4.7-4.8-5.1-7.8c-0.1-1.2,0-2.3,0.3-3.4
		c-0.2-0.1-0.3-0.2-0.4-0.4c-3-5.4-9.7-9.3-16.4-13c-6.5,7.5-12.5,14.7-10.4,23.1c2,8.2,11.4,14.4,21.9,20.4
		C-228,526.1-227.9,526-227.7,526z"/>
	<path id="XMLID_7702_" class="st0" d="M-211.2,547.2c-0.1-0.1-0.2-0.2-0.2-0.3c-1.7-7.2-8-14.4-15.4-18c-0.3,0.2-0.6,0.3-0.9,0.3
		c-0.3,0-0.6-0.1-0.8-0.2c-2-1.2-4-2.3-6-3.5c-5.2,9.5-5.2,19.1,0.1,26.4c2.5,3.5,6.1,6.5,9.7,9.5l6.3,5.3
		C-217.4,559.5-215,553-211.2,547.2z"/>
	<path id="XMLID_7701_" class="st0" d="M-212.3,606.2c-0.3,0-0.5,0-0.8,0c-2-0.1-4.1-0.6-5.8-1.5c-29.2,23.7-39.4,59-25,88.8
		c4,8.3,11.3,18.9,24.3,25.4c-2.7-4.7-2.6-10.4,0.7-14.9c0.4-0.5,1.1-0.7,1.8-0.5c0.7,0.2,1.1,0.8,1,1.4c-0.9,5.1,1.4,10.4,5.9,14.4
		c0.4-3.7,1.9-7.3,4.3-10.6c0.3-0.4,0.9-0.6,1.4-0.6c0.6,0.1,1.1,0.4,1.3,0.8c2.7,6.3,10.5,11.5,19.5,13.4
		c-13.9-16.7-12-37.5-8.5-59.2c3.5-22,5.3-43-9.8-59.2c-0.1,0.4-0.5,0.7-1,0.9C-205.9,605.4-209,606.2-212.3,606.2z"/>
	<path id="XMLID_7700_" class="st0" d="M-201.6,452.7c-1.3,1.6-2.7,3.1-3.9,4.7l-0.9,1.1c-2.9,3.6-4.2,5.3-4.5,9.5l0,0
		c0,0.3,0,0.5,0,0.7c0.1,1,0.2,1.7-0.1,2.3c-0.3,8.2-2.5,15.2-6.5,20.8c0.1,0.3,0,0.7-0.3,1c-1.8,1.8-2.6,4-2.3,6.3
		c0.2,2,1.3,3.7,2.8,5.2c0.2-0.1,0.5-0.3,0.8-0.3c0.1,0,0.1,0,0.1,0c8.5-7.3,17.6-15.6,21.1-25.2c3.5-9.8,1.5-19.9-5.2-27.5
		C-200.9,451.9-201.2,452.3-201.6,452.7z"/>
	<path id="XMLID_7699_" class="st0" d="M-239.4,479.8c0.1,0,0.2,0.1,0.3,0.1c0,0,0,0,0,0l0,0c6.7,3.7,13.6,7.5,17.4,12.9
		c5.1-5.9,7.6-13.7,7.7-23.3c-0.7-10.4-5.7-20.1-12.9-24.9c-0.4-0.2-0.5-0.6-0.5-0.9c-0.3,0-0.6-0.1-0.8-0.3c-4.1-3-8.8-5.4-13.9-8
		c-0.5-0.3-1.1-0.5-1.6-0.8c-9.9,2.4-15.6,16.4-14.1,27.7c0.9,6.8,9.2,12.3,16.3,16.2L-239.4,479.8z"/>
	<path id="XMLID_7698_" class="st0" d="M-215.1,506.6c-0.2,7.3-3.7,14.5-9.7,20.4c8.1,4,13.5,11.1,15.6,17.2
		c5.2-5.9,10.5-12,14.1-18.6c4.1-7.4,5.4-14.4,3.8-20.6c-1.1-4.2-5.2-9.5-9.9-11.5C-205.5,498.3-210.4,502.6-215.1,506.6z"/>
	<path id="XMLID_7697_" class="st0" d="M-207.1,546.1c-7.9,10.9-10.7,24.1-8.5,40.5c2.4,0.4,4.7,0.7,7.2,0.9c0-0.1,0-0.2,0-0.3
		c1.7-2.6,3.1-5.4,4.5-8.3c1.9-3.9,4-7.9,6.6-11.4c5.6-7.3,8.3-13.1,8.9-18.6c0.7-6.6-2-12.7-7.4-16.8
		C-199.1,537-203.1,541.6-207.1,546.1z"/>
	<path id="XMLID_7696_" class="st0" d="M-216.7,589c0.8,1.6,0.6,3.8-0.7,6.1l-0.4,0.8c-1,1.8-2,3.5-1.3,5c0.1,0.1,0.2,0.2,0.3,0.3
		c0.1-0.1,0.2-0.2,0.3-0.3c0.6-0.5,1.6-0.4,2.1,0.1c0.6,0.5,0.5,1.3-0.1,1.8c0,0-0.1,0.1-0.1,0.1c1.1,0.4,2.4,0.8,3.8,0.8
		c2.7,0.1,5.4-0.5,8-1.1l1.9-12.3C-207.7,590.2-212.2,589.8-216.7,589C-216.7,589-216.7,589-216.7,589z"/>
	<path id="XMLID_7695_" class="st0" d="M-166.8,227c0.1-0.1,0.3,0,0.4-0.1c19.7-8.5,32.9-26.5,33.4-44.9
		c-11.1,20.5-33.2,37.2-58.9,43.8c-1.2,0.3-2.4,0.6-3.6,0.9c-4.1,1-7.9,1.9-11.4,3.5c-4,1.9-6.9,4.6-8,7.4c0.1,0,0.2,0,0.3,0
		c0.1,0,0,0.1,0.1,0.1c0,0,0,0.1,0.1,0.1c0.4,0.3,0.5,0.8,0.3,1.2l-0.5,8.6c-0.1,1,0,1.6,0.5,2c0.9,0.6,2.7,0.5,4.4,0.4l0.9,0
		c1.6,0,3.3,0,4.9,0.1c3.4,0.2,6.7,0.4,9.1-0.8c2-1,2.9-2.7,3.8-4.5l0.4-0.9c3.8-7.5,12.6-13.7,23.5-16.8
		C-167,227.1-167,227-166.8,227z"/>
	<path id="XMLID_7694_" class="st0" d="M-2.9,606.2c-0.3,0-0.5,0-0.8,0c-3.2,0-6.4-0.8-9.2-1.5c-0.5-0.1-0.8-0.5-1-0.9
		c-15.2,16.2-13.3,37.3-9.8,59.2c3.5,21.7,5.4,42.5-8.5,59.2c9-1.9,16.8-7.1,19.5-13.4c0.2-0.5,0.7-0.8,1.3-0.8
		c0.6-0.1,1.1,0.2,1.4,0.6c2.4,3.3,3.9,6.9,4.3,10.6c4.6-4,6.8-9.3,5.9-14.4c-0.1-0.6,0.3-1.2,1-1.4c0.7-0.2,1.4,0,1.8,0.5
		c3.2,4.6,3.4,10.2,0.7,14.9c13-6.4,20.3-17.1,24.3-25.4c14.3-29.8,4.2-65.2-25.1-88.8C1.2,605.6-1,606.1-2.9,606.2z"/>
	<path id="XMLID_7693_" class="st0" d="M12.7,529c-0.3,0.1-0.6,0.2-0.8,0.2c-0.3,0-0.7-0.1-0.9-0.3c-7.4,3.5-13.7,10.7-15.4,18
		c0,0.1-0.2,0.2-0.2,0.3c3.8,5.8,6.2,12.3,7.3,19.5l6.3-5.3c3.5-2.9,7.2-6,9.7-9.5c5.3-7.4,5.3-16.9,0.1-26.4
		C16.8,526.7,14.8,527.8,12.7,529z"/>
	<path id="XMLID_7692_" class="st0" d="M7.3,495.7c-0.1,0.2-0.2,0.3-0.4,0.4c0.3,1.1,0.4,2.3,0.3,3.4c-0.4,3.1-2.2,5.8-5.1,7.8
		C2.6,514,6,520.7,11.7,526c0.2,0,0.3,0.1,0.5,0.2c10.5-6,19.8-12.2,21.9-20.4c2.1-8.4-3.9-15.5-10.4-23.1
		C17,486.4,10.4,490.3,7.3,495.7z"/>
	<path id="XMLID_7691_" class="st0" d="M26.3,435.6c-5.1,2.6-9.9,5-13.9,8c-0.2,0.2-0.5,0.2-0.8,0.3c0,0.4-0.2,0.7-0.5,0.9
		C3.7,449.5-1.3,459.2-2,469.6c0.1,9.6,2.6,17.4,7.7,23.3c3.9-5.4,10.9-9.3,17.7-13l2.2-1.2c7.1-4,15.4-9.4,16.3-16.2
		c1.5-11.3-4.2-25.3-14.1-27.7C27.3,435,26.8,435.3,26.3,435.6z"/>
	<path id="XMLID_7690_" class="st0" d="M1.5,595.1c-1.2-2.3-1.5-4.4-0.7-6.1c0,0,0,0-0.1,0c-4.4,0.8-9,1.2-13.6,1.2l1.9,12.3
		c2.6,0.7,5.3,1.3,8,1.1c1.4-0.1,2.7-0.4,3.8-0.8c0,0-0.1-0.1-0.1-0.1c-0.6-0.5-0.7-1.3-0.1-1.8c0.6-0.5,1.5-0.6,2.1-0.1
		c0.1,0.1,0.2,0.2,0.3,0.3c0.1-0.1,0.2-0.2,0.3-0.3c0.7-1.5-0.3-3.2-1.3-5L1.5,595.1z"/>
	<path id="XMLID_7689_" class="st0" d="M34.5,386.6c-19.5,7-28.6,19.2-27.6,37.1c0.1,0.3,0.2,0.5,0.3,0.8c0.1,0.2-0.1,0.4-0.2,0.7
		c0.4,5,1.6,10.5,3.5,16.4c4.2-3.1,9.3-5.6,14.2-8.1c8.2-4.1,16.6-8.4,21.3-15.1c3.6-5.2,4.6-11,2.8-16.7
		C46.8,395.5,41.6,390,34.5,386.6C34.5,386.6,34.5,386.6,34.5,386.6z"/>
	<path id="XMLID_7688_" class="st0" d="M10.2,393.3c-6,8.3-13.6,15.7-22.6,21.7l-1.2,0.8c-2.5,1.6-4.9,3.2-6.6,5.2
		c-0.1,0.1-0.1,0.2-0.1,0.2c2.5-2.2,5.8-3.9,9.4-4.6c4.4-0.8,9.4-0.1,13.1,2c0.6,0.4,1.2,0.7,1.7,1.1c0.6-16,9.6-27.6,27.1-34.6
		c0.1-0.1,0.1-0.2,0.3-0.2c11.8-3.9,21.8-10.5,28.1-18.5c7.1-9,9.6-19.4,11.5-29.3c2.2-11.2,3.8-21.9,4.7-32.4
		C63.9,338.4,40.9,369.4,10.2,393.3z"/>
	<path id="XMLID_7660_" class="st0" d="M-16.8,110.6C-16.8,110.6-16.8,110.6-16.8,110.6C-16.8,110.6-16.8,110.6-16.8,110.6
		c-57.6-33-128.6-33.3-180.9-0.7c-0.2,0.1-0.3,0.3-0.4,0.5c-0.4-0.1-0.8,0-1.2,0.2c-41.3,24.8-71.9,62-86.3,104.7
		c-12.1,36.1-13.5,76.1-4.4,122.4c2,10.2,4.6,20.9,12,30.2c5.7,7.2,14.2,13.3,24.2,17.5c-6.9,3.8-12,9.3-14,15.6
		c-2,6.3-0.9,12.9,3.1,18.6c4.1,5.9,10.7,9.9,17.5,13.5c-10.9,4.4-15.2,19.6-13.9,29.6c1,7.9,10,13.8,17.6,18l1.1,0.6
		c-6.8,8-13.2,15.5-10.8,25c1.8,7.1,8,12.6,15.9,17.6c-5.9,10.4-5.9,21,0,29.3c2.7,3.7,6.4,6.9,10.1,9.9l8,6.7
		c-0.5,5-0.4,10.4,0.4,16.1c-0.5-0.1-1-0.2-1.5-0.3c-0.8-0.2-1.6,0.2-1.9,0.9c-0.2,0.7,0.2,1.3,1,1.5c0,0.3,0.2,0.7,0.6,0.9
		c2,1.3,0.8,4,0.2,5.1l-0.4,0.8c-1.2,2.1-2.5,4.5-1.4,7c0.2,0.4,0.6,0.8,0.9,1.2c-30,24.4-40.4,60.8-25.6,91.5
		c4.7,9.7,13.8,22.7,31,29c0.6,0.2,1.4,0.1,1.8-0.4c0.4-0.5,0.4-1.2-0.1-1.6c-2.9-2.6-4.5-6-4.5-9.3c1.4,4.1,4.4,8,8.8,10.9
		c0.5,0.3,1.1,0.4,1.6,0.1c0.5-0.2,0.8-0.7,0.8-1.2c-0.1-3.4,0.7-6.7,2.5-9.8c4.3,6.9,13.4,12,23.8,13.2c0.1,0.1,0.1,0.2,0.2,0.3
		c0.3,0.3,0.7,0.5,1.2,0.5c0.3,0,0.7-0.1,1-0.3c0.6-0.4,0.6-1.1,0.2-1.6l2.4-2.3c0.6-0.5,0.5-1.3-0.1-1.8c-0.6-0.5-1.6-0.4-2.1,0.1
		l-2,1.9c-14.4-16.1-12.6-36.9-9.1-58.6c3.6-22.2,5.6-45.3-11.7-62.5c-0.1-0.1-0.4-0.2-0.6-0.2l1.8-11.6c0.1-0.4-0.1-0.7-0.4-1
		c-0.3-0.3-0.7-0.4-1.2-0.4c-1.3,0-2.6,0-4,0c1.5-2.5,2.9-5.2,4.2-7.8c1.9-3.8,3.9-7.7,6.4-11c3.9-5.2,8.5-12.1,9.4-19.7
		c0.9-7.6-2.5-14.8-9-19.3c0.6-1,1.3-2,1.9-3.1c4.4-7.9,5.7-15.4,4-22.2c-1.2-4.7-5.6-10.5-11.1-13c3-3.7,5.5-7.6,7-11.8
		c3.9-10.8,1.5-22.1-6.3-30.4c1.4-1.7,2.7-3.4,3.9-5.1c3.7-5.6,5-10.9,3.9-15.5c-0.1-0.3-0.2-0.6-0.3-0.9c0.8-2.6,0.1-5.6-2-8.2
		c-1.9-2.4-4.6-4.1-7.2-5.8l-1.2-0.8c-22.3-14.7-36-38.5-35.7-62.2c0-0.7-0.7-1.3-1.5-1.3c0,0,0,0,0,0c-0.8,0-1.5,0.6-1.5,1.2
		c-0.1,9.9,2.2,19.7,6.4,29c-29.7-21.8-50.5-52.7-57-85.3c-0.1-0.6-0.7-0.9-1.4-1c-1.4-28.1,1.8-53.7,9.8-77.6
		c3.9-11.6,9-22.7,15.2-33.3c-13.7,44.7-10.8,92.7,8.5,136c0.2,0.5,0.8,0.8,1.4,0.8c0.2,0,0.4,0,0.5-0.1c0.1,0,0.1-0.1,0.2-0.2
		c1.7,10,4,19.9,7.4,29.7c0.1,0.2,0.2,0.3,0.4,0.5c0.1,0.1,0.1,0.1,0.1,0.2c0.3,0.2,0.6,0.3,0.9,0.3c0.1,0,0.3,0,0.4,0c0,0,0,0,0,0
		c0,0,0,0,0,0c0.1,0,0.2-0.1,0.3-0.2c0.2-0.1,0.5-0.2,0.6-0.4c0.1-0.2,0.1-0.3,0.1-0.5c0-0.1,0.1-0.2,0-0.3c1.1,1,2.5,1.9,4,2.5
		c0.2,0.1,0.4,0.1,0.7,0.1c0.6,0,1.1-0.3,1.3-0.7c0.4-0.6,0.1-1.4-0.7-1.7c-2.3-1-4.2-2.6-5.1-4.6c-0.2-0.4-0.7-0.6-1.3-0.7
		c-1.9-9.2-1.5-18.6,1.8-27.7l13.1,23.8c0.3,0.6,1.1,0.9,1.8,0.7c0.7-0.2,1.2-0.8,1-1.4c-6.1-28.1-5.5-56.8,1.3-84.7
		c0.6,0.1,1.2,0.2,1.8,0.2c2,0,4-0.5,5.4-1.6c0.2-0.2,0.4-0.4,0.5-0.7c0.7-2.6,1.9-5.2,3.3-7.7l-0.2,3.3c-0.1,1-0.2,2.8,1.6,4
		c1.8,1.2,4.3,1.1,6.5,1l0.9,0c1.5-0.1,3,0,4.6,0.1c1.3,0.1,2.6,0.1,3.9,0.1c2.4,0,4.8-0.3,6.9-1.3c2.9-1.4,4-3.7,5-5.8l0.4-0.9
		c2.6-5.1,7.8-9.6,14.5-12.7c-4.8,5-7.4,10.9-7,16.9c0,0.7,0.7,1.2,1.5,1.2l27.7,0.4c0,0,0,0,0,0c0.7,0,1.3-0.4,1.5-1
		c1.6-7.2,8.5-14.3,21-21.8c3.2-1.9,6.6-3.8,9.9-5.6c7.2-4,14.6-8.1,20.6-13c5-4.1,9-8.8,12-13.9c0.1,16.9-4.4,33.8-13.2,49.1
		c-0.3,0.5-0.2,1.1,0.3,1.4c0.3,0.2,0.7,0.4,1,0.4c0.2,0,0.5,0,0.7-0.1c17.7-7.8,31.1-23.9,36.6-44c2.9-10.7,3.6-21.6,3.4-32.5
		c6.4,18.3,7.8,37.7,4.3,56.6c-0.1,0.6,0.3,1.1,0.9,1.3c0.2,0.1,0.4,0.1,0.6,0.1c0.4,0,0.9-0.2,1.2-0.5
		c16.7-17.6,22.5-41.6,15.8-63.2c43.9,52,61.6,114.8,48.4,174.8c-0.1,0.6,0.3,1.2,1,1.4c0.7,0.2,1.5-0.1,1.8-0.7l13.1-23.8
		c3.2,9,3.7,18.5,1.8,27.7c-0.5,0-1.1,0.2-1.3,0.7c-1,2-2.9,3.7-5.1,4.6c-0.7,0.3-1,1.1-0.7,1.7c0.3,0.4,0.8,0.7,1.3,0.7
		c0.2,0,0.5,0,0.7-0.1c1.5-0.6,2.8-1.5,4-2.5c0,0.1,0,0.2,0.1,0.3c0,0.2,0,0.4,0.1,0.5c0.1,0.2,0.4,0.3,0.6,0.4
		c0.1,0.1,0.2,0.2,0.3,0.2c0,0,0,0,0,0c0,0,0,0,0,0c0.1,0,0.3,0,0.4,0c0.3,0,0.6-0.1,0.9-0.3c0.1,0,0.1-0.1,0.1-0.2
		c0.2-0.1,0.3-0.3,0.4-0.5c2.9-8.4,5-17,6.7-25.5c22.7-44.3,26.6-95.6,10.6-141.9c6.5,11,11.9,22.5,15.9,34.5
		c8.6,25.6,11.7,53.3,9.4,83.8c0,0,0,0-0.1,0c-0.8-0.2-1.6,0.2-1.8,0.9c-10.4,32.1-31.2,62-59.2,85.6c6.3-11.1,9.7-23.2,9.6-35.4
		c0-0.7-0.7-1.2-1.5-1.2c-0.8-0.2-1.5,0.6-1.5,1.3c0.2,14.3-4.8,28.6-13.6,40.9c-2.2,1.7-4.3,3.4-6.5,5c-0.6,0.5-0.7,1.2-0.2,1.8
		c0.2,0.2,0.6,0.3,0.9,0.3c-4.7,5.3-10.2,10.1-16.3,14.1l-1.2,0.8c-2.6,1.7-5.3,3.4-7.3,5.8c-2.2,2.6-2.8,5.7-2,8.2
		c-0.1,0.3-0.2,0.6-0.3,0.9c-1.1,4.7,0.2,9.9,3.9,15.5c1.2,1.8,2.5,3.5,3.9,5.1c-7.8,8.3-10.2,19.5-6.3,30.4c1.5,4.2,4,8.1,7,11.8
		c-5.5,2.5-9.9,8.3-11.1,13c-1.7,6.8-0.4,14.3,4,22.2c0.6,1,1.3,2,1.9,3.1c-6.5,4.6-9.8,11.7-9,19.3c0.9,7.6,5.5,14.6,9.4,19.7
		c2.5,3.3,4.5,7.2,6.4,11c1.3,2.6,2.7,5.3,4.2,7.8c-1.3,0-2.6,0.1-4,0c-0.4,0-0.9,0.1-1.2,0.4c-0.3,0.3-0.4,0.6-0.4,1l1.8,11.6
		c-0.2,0.1-0.4,0.1-0.6,0.2c-17.3,17.2-15.2,40.3-11.7,62.5c3.5,21.7,5.3,42.5-9.1,58.6l-2-1.9c-0.6-0.5-1.5-0.6-2.1-0.1
		c-0.6,0.5-0.7,1.3-0.1,1.8l2.4,2.3c-0.4,0.5-0.3,1.2,0.2,1.6c0.3,0.2,0.6,0.3,1,0.3c0.4,0,0.9-0.2,1.2-0.5c0.1-0.1,0.2-0.2,0.2-0.3
		c10.4-1.2,19.6-6.3,23.8-13.2c1.8,3.1,2.6,6.5,2.5,9.8c0,0.5,0.3,0.9,0.8,1.2c0.5,0.2,1.2,0.2,1.6-0.1c4.3-2.9,7.4-6.8,8.8-10.9
		c-0.1,3.4-1.6,6.7-4.5,9.3c-0.5,0.4-0.5,1.1-0.1,1.6c0.4,0.5,1.2,0.7,1.8,0.4c17.2-6.3,26.3-19.2,31-29
		c14.7-30.7,4.4-67.1-25.6-91.5c0.3-0.4,0.7-0.7,0.9-1.2c1.1-2.5-0.2-4.9-1.4-7L4.2,594c-0.6-1.1-1.8-3.8,0.2-5.1
		c0.4-0.2,0.6-0.6,0.6-0.9c0.8-0.2,1.2-0.9,1-1.5c-0.2-0.7-1.1-1.1-1.9-0.9c-0.5,0.1-1,0.2-1.5,0.3c0.7-5.7,0.9-11.1,0.4-16.1l8-6.7
		c3.7-3.1,7.4-6.2,10.1-9.9c5.9-8.2,5.9-18.9,0-29.3c7.8-5,14.1-10.5,15.9-17.6c2.4-9.5-4-17-10.8-25l1.1-0.6
		c7.7-4.3,16.6-10.1,17.6-18c1.3-10-3-25.2-13.9-29.6c6.9-3.6,13.4-7.6,17.5-13.5c4-5.7,5.1-12.3,3.1-18.6c-2-6.3-7.1-11.9-14-15.6
		c10-4.2,18.5-10.3,24.2-17.5c7.4-9.4,10-20.1,12-30.2c9.2-46.3,7.7-86.3-4.4-122.4C55.2,172.5,24.5,135.4-16.8,110.6z M-262,418.3
		c-3.6-5.2-4.6-11-2.8-16.7c2-6.2,7.2-11.6,14.2-15.1c0,0,0,0,0,0c19.5,7,28.6,19.2,27.6,37.1c-0.1,0.3-0.2,0.5-0.3,0.8
		c-0.1,0.2,0.1,0.4,0.2,0.7c-0.4,5-1.6,10.5-3.5,16.4c-4.2-3.1-9.3-5.6-14.2-8.1C-248.8,429.3-257.3,425-262,418.3z M-257.9,462.4
		c-1.5-11.3,4.2-25.3,14.1-27.7c0.5,0.3,1.1,0.5,1.6,0.8c5.1,2.6,9.9,5,13.9,8c0.2,0.2,0.5,0.2,0.8,0.3c0,0.4,0.2,0.7,0.5,0.9
		c7.3,4.8,12.3,14.5,12.9,24.9c-0.1,9.6-2.7,17.4-7.7,23.3c-3.9-5.4-10.7-9.2-17.4-12.9l0,0c0,0,0,0,0,0c-0.1,0-0.2-0.1-0.3-0.1
		l-2.2-1.2C-248.7,474.7-257,469.3-257.9,462.4z M-250.1,505.8c-2.1-8.4,3.9-15.6,10.4-23.1c6.7,3.7,13.4,7.6,16.4,13
		c0.1,0.2,0.2,0.3,0.4,0.4c-0.3,1.1-0.4,2.3-0.3,3.4c0.4,3.1,2.2,5.8,5.1,7.8c-0.4,6.7-3.8,13.3-9.6,18.6c-0.2,0-0.3,0.1-0.5,0.2
		C-238.7,520.2-248,514.1-250.1,505.8z M-224.9,561.4c-3.5-3-7.2-6-9.7-9.5c-5.3-7.4-5.3-16.9-0.1-26.4c1.9,1.2,3.9,2.4,6,3.5
		c0.3,0.1,0.6,0.2,0.8,0.2c0.3,0,0.7-0.1,0.9-0.3c7.4,3.5,13.7,10.7,15.4,18c0,0.1,0.2,0.2,0.2,0.3c-3.8,5.8-6.2,12.3-7.3,19.5
		L-224.9,561.4z M-202.1,603.8c15.2,16.2,13.3,37.3,9.8,59.2c-3.5,21.7-5.4,42.5,8.5,59.2c-9-1.9-16.8-7.1-19.5-13.4
		c-0.2-0.5-0.7-0.8-1.3-0.8c-0.6-0.1-1.1,0.2-1.4,0.6c-2.4,3.3-3.9,6.9-4.3,10.6c-4.6-4-6.8-9.3-5.9-14.4c0.1-0.6-0.3-1.2-1-1.4
		c-0.7-0.2-1.4,0-1.8,0.5c-3.2,4.6-3.4,10.2-0.7,14.9c-13-6.4-20.3-17.1-24.3-25.4c-14.3-29.8-4.2-65.2,25-88.8
		c1.7,0.9,3.9,1.4,5.8,1.5c0.3,0,0.5,0,0.8,0c3.2,0,6.4-0.8,9.2-1.5C-202.6,604.6-202.3,604.2-202.1,603.8z M-203,590.2l-1.9,12.3
		c-2.6,0.7-5.3,1.3-8,1.1c-1.4-0.1-2.7-0.4-3.8-0.8c0,0,0.1-0.1,0.1-0.1c0.6-0.5,0.7-1.3,0.1-1.8c-0.6-0.5-1.5-0.6-2.1-0.1
		c-0.1,0.1-0.2,0.2-0.3,0.3c-0.1-0.1-0.2-0.2-0.3-0.3c-0.7-1.5,0.3-3.2,1.3-5l0.4-0.8c1.2-2.3,1.5-4.4,0.7-6.1c0,0,0,0,0.1,0
		C-212.2,589.8-207.7,590.2-203,590.2z M-188.3,548.9c-0.6,5.6-3.4,11.3-8.9,18.6c-2.7,3.5-4.7,7.5-6.6,11.4
		c-1.5,2.9-2.9,5.7-4.5,8.3c-0.1,0.1,0,0.2,0,0.3c-2.4-0.2-4.8-0.4-7.2-0.9c-2.2-16.4,0.6-29.7,8.5-40.5c3.9-4.5,8-9.1,11.4-14
		C-190.3,536.1-187.6,542.3-188.3,548.9z M-191.4,505c1.6,6.3,0.3,13.2-3.8,20.6c-3.6,6.5-8.9,12.7-14.1,18.6
		c-2.2-6.2-7.5-13.2-15.6-17.2c6-5.9,9.5-13.1,9.7-20.4c4.7-4,9.6-8.4,13.8-13.1C-196.6,495.6-192.4,500.9-191.4,505z M-195.4,479
		c-3.4,9.6-12.6,17.9-21.1,25.2c-0.1,0-0.1,0-0.1,0c-0.3,0-0.6,0.1-0.8,0.3c-1.6-1.4-2.6-3.2-2.8-5.2c-0.3-2.3,0.5-4.6,2.3-6.3
		c0.3-0.3,0.4-0.6,0.3-1c4-5.6,6.2-12.6,6.5-20.8c0.4-0.6,0.3-1.3,0.1-2.3c0-0.3,0-0.5,0-0.7l0,0c0.3-4.2,1.6-5.9,4.5-9.5l0.9-1.1
		c1.3-1.6,2.6-3.2,3.9-4.7c0.3-0.4,0.7-0.8,1-1.2C-193.8,459.1-191.8,469.2-195.4,479z M-194.2,430.1c0.1,0.1,0.2,0.1,0.4,0.1
		c0.6,3.8-0.6,8.1-3.7,12.8c-1.9,2.8-4.2,5.6-6.5,8.3c-1.4,1.6-2.7,3.2-4,4.8l-0.9,1.1c-1.4,1.7-2.5,3.1-3.3,4.7
		c-2.1-7.7-6.4-14.4-12-18.5c0.3-0.2,0.5-0.4,0.6-0.7c2.2-6.6,3.5-12.7,3.8-18.4c0.5-1.3,1.7-2.6,3.4-3.6c3-1.7,7.3-2.3,10.8-1.7
		c6,1.1,9.8,4.9,11.3,8.6c-0.1,0.2-0.1,0.5-0.3,0.7C-195.1,429-194.9,429.8-194.2,430.1z M-234.6,382.7c0.3,0.2,0.6,0.3,1,0.3
		c0.4,0,0.7-0.2,1-0.4c6.4,12.6,16.3,24,29,32.4l1.2,0.8c2.5,1.6,4.9,3.2,6.6,5.2c0.1,0.1,0.1,0.2,0.1,0.2c-2.5-2.2-5.8-3.9-9.4-4.6
		c-4.4-0.8-9.4-0.1-13.1,2c-0.6,0.4-1.2,0.7-1.7,1.1c-0.6-16-9.6-27.6-27.1-34.6c-0.1-0.1-0.1-0.2-0.3-0.2
		c-11.8-3.9-21.8-10.5-28.1-18.5c-7.1-9-9.6-19.4-11.5-29.3c-2.3-11.4-3.9-22.5-4.8-33.2C-283.2,334.3-262.8,362.5-234.6,382.7z
		 M-190.7,244l-0.4,0.9c-0.9,1.8-1.7,3.6-3.8,4.5c-2.4,1.1-5.6,1-9.1,0.8c-1.6-0.1-3.3-0.2-4.9-0.1l-0.9,0c-1.7,0.1-3.5,0.1-4.4-0.4
		c-0.5-0.4-0.6-1-0.5-2l0.5-8.6c0.2-0.4,0.1-0.9-0.3-1.2c0,0,0-0.1-0.1-0.1c0,0,0-0.1-0.1-0.1c-0.1,0-0.2,0-0.3,0
		c1.2-2.9,4-5.6,8-7.4c3.5-1.6,7.3-2.5,11.4-3.5c1.2-0.3,2.4-0.6,3.6-0.9c25.7-6.6,47.8-23.3,58.9-43.8
		c-0.5,18.5-13.8,36.4-33.4,44.9c-0.1,0-0.3,0-0.4,0.1c-0.1,0.1-0.2,0.1-0.3,0.2C-178.1,230.3-186.9,236.5-190.7,244z M35.7,329.3
		c0-0.3-0.1-0.6-0.1-0.8c0.1,0,0.2,0.1,0.2,0.1C35.8,328.8,35.8,329.1,35.7,329.3z M37.1,322.8c0,0.1-0.1,0.2-0.1,0.3
		c-0.2-0.1-0.5-0.2-0.8-0.2c-0.5,0-0.9,0.3-1.2,0.6c-0.7-4-1.8-8-3.5-11.8c-0.2-0.5-0.7-0.8-1.4-0.8c-0.5,0-1.2,0.3-1.4,0.7
		L18.6,330c10.1-60.3-10.1-122.7-56.1-173.8c-0.1-0.3-0.2-0.6-0.4-0.9c-0.2-0.4-0.6-0.6-1.1-0.7c-1.8-2-3.5-3.9-5.4-5.9
		c-0.5-0.5-1.5-0.6-2.1-0.2c-0.6,0.4-0.7,1.2-0.2,1.8c2.2,2.3,4.3,4.7,6.5,7c9.6,21.1,6.1,45.6-9,64.2c2.9-20.4,0.1-41.2-8.2-60.5
		c0-0.1-0.1-0.1-0.2-0.2c-0.2-4.4-0.6-8.8-0.9-13.2c-0.1-0.7-0.7-1.3-1.6-1.2c-0.8,0-1.5,0.6-1.4,1.3c1.3,17.7,2.6,36-2.2,53.6
		c-4.9,17.8-16.1,32.3-31,40.4c8.5-16.4,12.4-34.3,11.3-52.1c1.9-4.6,3-9.5,3.1-14.5c0.3-11.4-4.2-23.5-12.9-35
		c-0.5-0.6-1.4-0.8-2.1-0.4c-0.7,0.4-0.9,1.2-0.5,1.7c8.5,11.1,12.8,22.7,12.5,33.6c-0.1,4.2-1,8.3-2.4,12.3
		c-0.4,0.2-0.8,0.6-0.7,1.1c0,0.2,0,0.5,0,0.7c-2.8,6.7-7.5,12.9-13.9,18.1c-5.8,4.7-13.1,8.8-20.2,12.7c-3.4,1.9-6.8,3.7-10,5.7
		c-12.5,7.5-19.7,14.9-21.9,22.3l-25.1-0.4c0-6.8,4.4-13.6,11.8-18.4c0.1,0,0.2-0.1,0.3-0.1c0.1,0,0.1-0.1,0.2-0.1
		c22.2-9.5,36.6-30.6,35.1-51.4c0-0.7-0.8-1.3-1.6-1.2c-0.4,0-0.8,0.2-1,0.4c-0.5,0-1,0.2-1.3,0.7c-10,21.4-32.6,38.9-58.8,45.7
		c-1.2,0.3-2.4,0.6-3.5,0.9c-4,1-8.2,2-12,3.7c-5.8,2.7-9.7,6.9-10.2,11.4c0,0.3,0.1,0.6,0.3,0.8c-2.4,3.4-4.2,7-5.3,10.8
		c-1.1,0.6-2.8,0.8-4.3,0.6c9.4-36.1,29.2-70.8,58.6-101.2c0.5-0.5,0.4-1.3-0.2-1.8c-0.6-0.4-1.6-0.4-2.1,0.2
		c-29.9,30.8-50,66.2-59.4,103c0,0-0.1,0-0.1,0.1c-0.1,0.1,0,0.3,0,0.4c-6.5,25.6-7.8,51.9-3.5,77.8l-10.1-18.4
		c-0.3-0.5-0.9-0.8-1.4-0.7c-0.6,0-1.1,0.4-1.4,0.8c-2.4,5.7-3.8,11.6-4.2,17.5c-12.6-55.7,1-113.9,38.8-162.5
		c0.5-0.6,0.3-1.4-0.4-1.7c-0.7-0.4-1.6-0.2-2.1,0.4c-34.6,44.5-49.2,97.1-42.1,148.5c-18.8-44.7-20.2-94-3.9-139.4
		c0.1-0.3,0-0.7-0.2-1c16-24.2,37.9-45.1,64.3-60.9c0.2-0.1,0.3-0.4,0.4-0.6c0.4,0.1,0.8,0,1.2-0.2c27-16.8,59.1-24.6,91.8-23.5
		c-11.2,8.9-16.8,22.9-13.8,35.6c0.1,0.6,0.7,1,1.4,1c0,0,0,0,0.1,0c0.1,0,0.2-0.1,0.3-0.1c0.2,0,0.3,0.1,0.5,0.1
		c42.8-2.7,86.1,13.6,112.6,41.6c0,0.1,0,0.1,0,0.2C33.2,213.5,47.2,269.1,37.1,322.8z M41.7,313.1c6.5-48.6-6.5-98.2-37.4-141.1
		c0.3-0.4,0.3-0.9,0-1.3c-26.2-31.9-72.7-50.7-118.7-48.4l0.3-0.8c0.2-0.7-0.2-1.4-1-1.6c-0.1,0-0.2,0-0.3,0
		c-1.3-11.7,4.7-24.1,15.6-31.6c27.9,1.6,56,9.6,81.4,24.2c27.9,16.7,50.8,39.2,67,65.2c-0.2,0-0.4-0.1-0.7-0.1
		c-0.8,0.2-1.2,0.9-1,1.6C62.6,222.6,60.6,270.6,41.7,313.1z M-18.4,443c-3.1-4.7-4.3-8.9-3.7-12.8c0.1,0,0.2,0,0.4-0.1
		c0.7-0.4,1-1.1,0.5-1.7c-0.2-0.2-0.2-0.5-0.3-0.7c1.5-3.7,5.3-7.5,11.3-8.6c3.5-0.7,7.8,0,10.8,1.7c1.8,1,2.9,2.2,3.4,3.6
		c0.3,5.6,1.6,11.7,3.8,18.4c0.1,0.3,0.3,0.5,0.6,0.7c-5.7,4.1-10,10.8-12,18.5c-0.8-1.5-1.9-2.9-3.3-4.7l-0.9-1.1
		c-1.3-1.6-2.6-3.2-4-4.8C-14.2,448.6-16.6,445.8-18.4,443z M-20.6,479c-3.5-9.8-1.5-19.9,5.2-27.5c0.3,0.4,0.7,0.8,1,1.2
		c1.3,1.6,2.7,3.1,3.9,4.7l0.9,1.1c2.9,3.6,4.2,5.3,4.5,9.5l0,0c0,0.3,0,0.5,0,0.7c-0.1,1-0.2,1.7,0.1,2.3
		c0.3,8.2,2.5,15.2,6.5,20.8c-0.1,0.3,0,0.7,0.3,1c1.8,1.8,2.6,4,2.3,6.3C4,501.2,3,503,1.4,504.4c-0.2-0.1-0.5-0.3-0.8-0.3
		c-0.1,0-0.1,0-0.1,0C-8,496.8-17.2,488.6-20.6,479z M-24.6,505c1.1-4.2,5.2-9.5,9.9-11.5c4.2,4.7,9.1,9,13.8,13.1
		c0.2,7.3,3.7,14.5,9.7,20.4c-8.1,4-13.5,11.1-15.6,17.2c-5.2-5.9-10.5-12-14.1-18.6C-24.9,518.2-26.2,511.3-24.6,505z M-12.1,578.9
		c-1.9-3.9-4-7.9-6.6-11.4c-3.7-4.9-8.2-11.5-9-18.6c-0.7-6.6,2-12.7,7.4-16.8c3.4,4.9,7.4,9.5,11.3,14c7.9,10.9,10.7,24.1,8.5,40.5
		c-2.4,0.4-4.7,0.7-7.2,0.9c0-0.1,0-0.2,0-0.3C-9.2,584.6-10.6,581.8-12.1,578.9z M28,693.5c-4,8.3-11.3,18.9-24.3,25.4
		c2.7-4.7,2.6-10.4-0.7-14.9c-0.4-0.5-1.1-0.7-1.8-0.5c-0.7,0.2-1.1,0.8-1,1.4c0.9,5.1-1.4,10.4-5.9,14.4c-0.4-3.7-1.9-7.3-4.3-10.6
		c-0.3-0.4-0.9-0.6-1.4-0.6c-0.6,0.1-1.1,0.4-1.3,0.8c-2.7,6.3-10.5,11.5-19.5,13.4c13.9-16.7,12-37.5,8.5-59.2
		c-3.5-22-5.3-43,9.8-59.2c0.1,0.4,0.5,0.7,1,0.9c2.8,0.7,5.9,1.5,9.2,1.5c0.3,0,0.5,0,0.8,0c2-0.1,4.1-0.6,5.8-1.5
		C32.1,628.4,42.3,663.7,28,693.5z M3.2,600.9C3.2,601,3,601.1,3,601.2c-0.1-0.1-0.2-0.2-0.3-0.3c-0.6-0.5-1.6-0.4-2.1,0.1
		c-0.6,0.5-0.5,1.3,0.1,1.8c0,0,0.1,0.1,0.1,0.1c-1.1,0.4-2.4,0.8-3.8,0.8c-2.7,0.1-5.4-0.5-8-1.1l-1.9-12.3c4.6,0,9.2-0.4,13.6-1.2
		c0,0,0,0,0.1,0c-0.8,1.6-0.6,3.8,0.7,6.1l0.4,0.8C2.9,597.7,3.9,599.4,3.2,600.9z M18.6,551.9c-2.5,3.5-6.1,6.5-9.7,9.5l-6.3,5.3
		C1.5,559.5-1,553-4.7,547.2c0.1-0.1,0.2-0.2,0.2-0.3c1.7-7.2,8-14.4,15.4-18c0.3,0.2,0.6,0.3,0.9,0.3c0.3,0,0.6-0.1,0.8-0.2
		c2-1.2,4-2.3,6-3.5C23.9,534.9,23.9,544.5,18.6,551.9z M34.1,505.8c-2,8.2-11.4,14.4-21.9,20.4c-0.2-0.1-0.3-0.2-0.5-0.2
		c-5.7-5.3-9.1-12-9.6-18.6c2.9-2,4.7-4.8,5.1-7.8c0.1-1.2,0-2.3-0.3-3.4c0.2-0.1,0.3-0.2,0.4-0.4c3-5.4,9.7-9.3,16.4-13
		C30.2,490.3,36.2,497.4,34.1,505.8z M41.9,462.4c-0.9,6.8-9.2,12.3-16.3,16.2l-2.2,1.2c-6.8,3.7-13.8,7.6-17.7,13
		C0.7,487-1.9,479.2-2,469.6c0.7-10.4,5.7-20.1,12.9-24.9c0.4-0.2,0.5-0.6,0.5-0.9c0.3,0,0.6-0.1,0.8-0.3c4.1-3,8.8-5.4,13.9-8
		c0.5-0.3,1.1-0.5,1.6-0.8C37.7,437.1,43.4,451.1,41.9,462.4z M48.8,401.6c1.8,5.7,0.9,11.5-2.8,16.7c-4.7,6.7-13.1,11-21.3,15.1
		c-4.9,2.5-10,5-14.2,8.1c-2-5.9-3.1-11.4-3.5-16.4c0.1-0.2,0.2-0.4,0.2-0.7c-0.1-0.3-0.2-0.5-0.3-0.8c-0.9-17.9,8.2-30.1,27.6-37.1
		c0,0,0,0,0,0C41.6,390,46.8,395.5,48.8,401.6z M70.9,337.2c-2,9.9-4.5,20.3-11.5,29.3c-6.4,8-16.3,14.6-28.1,18.5
		c-0.1,0-0.2,0.1-0.3,0.2c-17.4,7-26.5,18.5-27.1,34.6c-0.5-0.4-1.1-0.8-1.7-1.1c-3.7-2.1-8.8-2.8-13.1-2c-3.6,0.7-6.9,2.3-9.4,4.6
		c0.1-0.1,0.1-0.2,0.1-0.2c1.7-2,4.1-3.6,6.6-5.2l1.2-0.8c9-5.9,16.6-13.4,22.6-21.7c30.7-23.9,53.7-54.9,65.4-88.5
		C74.7,315.3,73.1,326,70.9,337.2z"/>
	<path id="XMLID_7659_" class="st0" d="M71.3,322.1c-8.4,28.8-27.5,57.1-59,70.8c3.3-10.9,6.6-21.8,9.9-32.7
		c1.1-3.8-2.9-9.1,1.4-10.5c3.3-1,5.4-8,6.7-5.7c1.5,2.7,3.4-6.7,3.5-9.8c1.8-40.6,5.8-81.1,11.8-121.4c0.8-5,1.5-10,2.4-15.1
		c0.5-3.1,0.1-12.1,3-14.2c3.3-2.4,5,5.3,6,7.6c2,4.5,3.9,9,5.6,13.6c6.8,17.8,11.7,36.2,13.7,54.9
		C78.5,280.5,77.2,301.7,71.3,322.1z"/>
	<path id="XMLID_7658_" class="st0" d="M-287.3,322.1c8.4,28.8,27.5,57.1,59,70.8c-3.3-10.9-6.6-21.8-9.9-32.7
		c-1.1-3.8,2.9-9.1-1.4-10.5c-3.3-1-5.4-8-6.7-5.7c-1.5,2.7-3.3-6.7-3.5-9.8c-1.8-40.6-5.8-81.1-11.8-121.4c-0.8-5-1.5-10-2.4-15.1
		c-0.5-3.1-0.1-12.1-3-14.2c-3.3-2.4-5,5.3-6,7.6c-2,4.5-3.9,9-5.6,13.6c-6.8,17.8-11.7,36.2-13.7,54.9
		C-294.5,280.5-293.2,301.7-287.3,322.1z"/>
</g>
</svg>
