<?xml version="1.0" encoding="utf-8"?>
<!-- Generator: Adobe Illustrator 19.0.0, SVG Export Plug-In . SVG Version: 6.00 Build 0)  -->
<svg version="1.1" id="Layer_1" xmlns="http://www.w3.org/2000/svg" xmlns:xlink="http://www.w3.org/1999/xlink" x="0px" y="0px"
	 viewBox="0 0 300 240" style="enable-background:new 0 0 300 240;" xml:space="preserve">
<style type="text/css">
	.st0{fill:#EF7B05;}
</style>
<g id="XMLID_8686_">
	<path id="XMLID_8687_" class="st0" d="M277,168.5c0.2-10.5-1.6-20.8-3.5-30.7c-0.2-1.2-0.8-3-1-4.1c-0.1-0.6-0.4-2.1-0.5-2.7
		c-0.3-1.1-0.3-1.2-0.6-2.4c-0.1-0.6-0.7-2.1-0.8-2.6c-0.6-2.3-1.1-3.5-1.8-5.7c-0.8-2.8-1.8-4.6-2.8-7.3c-0.4-1.1-1.1-2.1-1.6-3.1
		c-0.2-0.5-0.8-2-1.1-2.6c-17.6-43.5-53.9-76.5-96.9-82.8c-5.2-0.8-10.3-0.9-15.6-0.9c-5.4,0-13,0.6-18.1,1.4
		C72.1,34,24.2,96.7,23.7,169c0,0.8,0,1.5,0.1,2.3l2.1,21.8l7.3,22.7c0,0,0.2-30.3,1.1-35.8c1.5-9.7,4.1-19.2,8-28.3
		c0.2-0.7,1.1-1.7,1.1-2.8l0.1,0c21-6.7,47.2-15.5,47.2-15.5c59.1-18.7,67-41.1,67-41.1s12.4,22.3,55.3,36.9c0,0,23.8,7.8,45.8,15.8
		c1.1,2.1,2.2,4.4,3.2,6.7c3.4,7.8,5.9,15.9,7.4,24.2c0.5,2.4,0.7,4.9,0.8,7.3l1,29.3c0,0,3.6-9.2,4.3-19.1
		C276.3,183.6,276.9,172.7,277,168.5z M224.9,55.9C224.9,55.9,224.9,55.9,224.9,55.9C224.9,55.9,224.9,55.9,224.9,55.9
		c0.5,0.4,1,0.8,1.4,1.2C225.9,56.7,225.4,56.3,224.9,55.9z"/>
</g>
</svg>
