<?xml version="1.0" encoding="utf-8"?>
<!-- Generator: Adobe Illustrator 19.0.0, SVG Export Plug-In . SVG Version: 6.00 Build 0)  -->
<svg version="1.1" id="Layer_1" xmlns="http://www.w3.org/2000/svg" xmlns:xlink="http://www.w3.org/1999/xlink" x="0px" y="0px"
	 viewBox="0 0 598 606" style="enable-background:new 0 0 598 606;" xml:space="preserve">
<style type="text/css">
	.st0{fill:#EF7B05;}
	.st1{fill:#FFFFFF;}
</style>
<g id="XMLID_2225_">
	<path id="XMLID_22071_" class="st0" d="M543.6,160.6c-11.6-8.7-27.1-11.2-33.9,3.8c5.8-7.4,14.2,1.4,9.4,7.4
		c-6,7.6-20.1-2.4-19.8-9.8c0.5-13.2,33.7-18.9,14.5-36c-14.2-12.6-32.5-1.6-46.5,1.9c-22.7,5.6-40.4-18.5-26.8-36
		c4.6-5.9,15-15.1,23.6-11.2c8.2,3.6,7.7,13.7-0.1,17.2c-0.2-1.1,0-2.1-0.3-3.2c-9.7,0.1-14.9,11.9-5.5,16.6
		c10.9,5.6,22.9-8.8,24.9-17.1c8.3-33.1-28.9-43.1-55-38.2c-11.6,2.2-20.2,4.2-29.1,12c-6.5,5.7-18.5,22-30.1,14
		c-9.5-6.5-3-22.6-8.8-31.2c-7.6-11.3-26.9-13-39.7-11.5c-18.7,2.2-24.8,17.3-36.9,28.8c-3.3-29.6-84.7-22.1-103.5-10.9
		c-13.1,7.8-22,15.1-23,29.9c-0.6,10.1,1.3,18.8-12.6,20.9c-11.8,1.8-17.4-6.5-11.7-16.2c2.3,0.7,5,2.7,6.4,4.7
		c-1.5,1.7-1.7,3.1-4.2,4.2c7.6-2.6,9.7-12.3,2.4-16.7c-8.5-5.1-20.8,4.7-25.7,10.6c-12.8,15.4-7.6,40.8,15.4,42.8
		c-13.9-23.4-55.7,25-47.3,44.7c4.8,11.4,21.6,14.3,18.3,28.5c-2.4,10.7-18.4,20-26.9,8.5c-11.4-15.5,20.9-15.2,5.7-5.2
		c12.9-1.9,6.4-15.8-3.6-16.1c-10.3-0.3-16.9,11.7-19.3,19.4c-8.7,27.9,31.7,45.4,47.7,19.6c-17.8,8.1-44.8,42.1-23.1,56.6
		c9.6,6.4,25.5,9.3,29.7,21.6c3.4,10-6,27-18.6,26.2c-6.6-0.4-12.6-6.6-6.8-12.2c4.9-4.7,7.5,1.8,4.1,5.8
		c15.1-11-12.5-23.3-18.3-1.6c-4,15.1,12.8,28.5,28,21.9c-24.7,10.7-19.8,34.1,1.2,43.5c13.4,6,40.3,10.4,32,29.9
		c-6.9,16.3-35.4,30-16.3,49.2c9.4,9.4,24.1,7.2,28.3,21.9c2.9,10.1-5.1,29-18.8,26.3c-28.6-5.5,13-21.5-2.4-6.8
		c20.1-9.6-23.3-29.4-20.9,1.8c1.9,25.5,48.5,24,59.1,4.9c7.5-13.5,2.8-30.5,10.5-43.5c7.3-12.3,19.5-19.2,24.2-33.9
		c8.6-26.5-3.1-61.9-36.4-57.4c15.4-2.1,24.4-14.4,19.7-28.4c-3.7-11-24.9-15.3-19.7-2.5c0.3,0.3,0.3,0.4,0,0.1
		c8.3-10.3,16.1,8.9,3.3,13.1c-12.7,4.1-19.1-10.8-17.1-20c2.4-10.5,12-14.4,20.3-20.4c20.2-14.6,27.8-32.9,2.9-47.2
		c8.1,8.8,25.3,7.1,34.9,1.3c20.1-12.2,12.9-51-12.7-52.4c-35.7-2-9.4,36.1-1,14.7c-10.5,1-3.2-10.7,4.5-3.4c8,7.5-1,17-9.9,17.8
		c-20.6,1.9-19.7-26.4-14.7-38.2c11.6-27,31.7-6.6,51.4-14.8c23.7-9.9-1.7-40.8-0.6-56.8c1.1-15.5,54.4-32.6,68.2-41.3
		c-16.4,4.3-58.1,35.4-53.6,46.5c11.3,27.9,96.8,17.8,120.8,26c35.3,12-2.5,38.2,5.3,59.5c7.7,21,44.2-11.4,60.5,2.4
		c25.8,21.7-23.1,46.5-34,59.4c-6.5,7.7-10.6,19.2-1.2,26.7c8.5,6.8,19.2,2,28.8,2c30.3,0,17.6,30.2,4.2,42.2
		c-21.7,19.5-37.4,41.1-18,68c6.9,9.5,14.8,19,8,30.5c-4.6,7.8-23.2,20-30.7,9.3c-5.4-7.6,5.8-21.3,8.9-8.3
		c-1.6-0.1-3.5,0.3-5.1,0.2c2.4-0.4,4.3-1.7,7-2c-0.2-23.5-27.8-13.9-29,5c-1.4,21.7,20.1,31.1,40,33.2c23.3,2.5,40.8-16.5,46-36.6
		c8.1,26-28.3,43.5-18.5,69.1c12,31.3,75.7,13.3,60.2-18.3c-6.9-14.1-22.1-14.1-31.2-2.5c7.2-10.1,17.3,3,13.9,11.3
		c-5.3,12.8-20.1,9.7-24.3-1.6c-11.8-31.6,29.8-26.1,41.7-42.4c28.1-38.8-53.6-65.9-32.8-98.5c14.2-22.4,54.9-6.4,69.7-25.1
		c18-22.7-21.3-44.9-28.5-62.7c-7.6-18.8,17.4-15.2,26.7-26.5c3.6-4.4,7-15.8,4.1-21c-3.9-6.9-14.7-4.1-19-10
		c-11.2-15.3,19.3-22.5,28.1-26.8c16.5-8.1,28.9-33.8,19.1-49.9C551.4,167.7,547.7,163.8,543.6,160.6z"/>
	<g id="XMLID_7463_">
		<path id="XMLID_319_" class="st1" d="M421.2,245.4c0,0,0.2,0,0.6,0.1c0.4,0.1,1,0.2,1.7,0.6c0.7,0.4,1.5,0.9,2.3,1.8
			c0.4,0.4,0.8,0.9,1.1,1.4c0.4,0.6,0.6,1.1,1,1.7c0.6,1.2,1.3,2.5,1.8,4c0.3,0.8,0.5,1.6,0.6,2.4c0.1,0.8,0.3,1.6,0.4,2.5
			c0.2,1.7,0.3,3.6-0.1,5.4c-0.3,1.8-0.8,3.6-1.3,5.3c-0.2,0.5-0.3,0.9-0.5,1.3c-0.2,0.5-0.4,0.9-0.6,1.3c-0.5,0.8-1,1.6-1.6,2.3
			c-1.2,1.4-2.6,2.6-3.9,3.6c-1.4,1-2.8,1.9-4.1,2.7c-1.3,0.8-2.6,1.5-3.8,2.1c-2.3,1.3-4.2,2.4-5.5,3.3c-1.3,0.9-2,1.5-2,1.5
			s0.1-0.2,0.4-0.5c0.3-0.3,0.7-0.8,1.3-1.3c1.1-1.1,2.9-2.5,5.2-4c2.2-1.5,4.9-3.2,7.4-5.2c1.3-1,2.5-2.2,3.5-3.5
			c0.5-0.6,1-1.3,1.4-2.1c0.2-0.4,0.4-0.7,0.5-1.1c0.1-0.4,0.3-0.9,0.4-1.2c0.5-1.7,1-3.4,1.3-5c0.3-1.7,0.4-3.3,0.2-4.9
			c-0.1-0.8-0.2-1.6-0.3-2.4c-0.1-0.7-0.2-1.5-0.4-2.2c-0.4-1.4-0.9-2.8-1.5-4c-0.5-1.2-1-2.3-1.6-3.2c-0.6-0.8-1.3-1.5-1.9-1.9
			c-0.6-0.4-1.2-0.7-1.6-0.8C421.4,245.4,421.2,245.4,421.2,245.4z"/>
	</g>
	<g id="XMLID_5309_">
		<path id="XMLID_317_" class="st1" d="M422.2,375.5c0,0,1.3-1.3,3.6-3.5c2.3-2.2,5.6-5.4,9.4-9.4c1.8-2,3.8-4.3,5.7-6.7
			c1.9-2.5,3.7-5.2,5.4-8.2c1.6-3,3-6.2,4-9.5c0.5-1.7,0.9-3.4,1.2-5.2c0.3-1.8,0.4-3.5,0.2-5.2c-0.1-0.8-0.3-1.6-0.7-2.3
			c-0.2-0.3-0.4-0.7-0.6-1c-0.3-0.4-0.5-0.6-0.8-0.9c-1.2-1-2.8-1.6-4.5-1.9c-1.7-0.3-3.4-0.4-5.2-0.4c-0.9,0-1.7,0-2.6,0
			c-0.8,0-1.7,0.1-2.5,0.1c-3.4,0.2-6.6,0.7-9.6,1.4c-3,0.7-5.8,1.6-8.4,2.6c-2.5,1-4.8,2.1-6.8,3.1c-2,1-3.6,2-4.9,2.9
			c-0.7,0.4-1.3,0.8-1.8,1.2c-0.5,0.4-0.9,0.7-1.3,0.9c-0.7,0.5-1.1,0.8-1.1,0.8s0.3-0.3,1-0.9c0.3-0.3,0.7-0.6,1.2-1
			c0.5-0.4,1.1-0.8,1.7-1.3c1.3-1,2.9-2.1,4.8-3.3c1.9-1.1,4.1-2.4,6.7-3.5c2.5-1.1,5.4-2.2,8.5-3c3.1-0.8,6.4-1.4,9.9-1.7
			c1.7-0.2,3.5-0.2,5.3-0.2c0.9,0,1.8,0,2.7,0.1c0.9,0.1,1.8,0.2,2.8,0.3c1.9,0.4,3.8,1,5.4,2.3c0.4,0.3,0.8,0.8,1.1,1.1
			c0.4,0.4,0.6,0.9,0.9,1.3c0.5,0.9,0.8,1.9,0.9,2.9c0.3,2,0.1,3.9-0.2,5.8c-0.3,1.8-0.7,3.7-1.3,5.4c-1.1,3.5-2.6,6.8-4.3,9.8
			c-1.7,3-3.7,5.8-5.7,8.2c-2,2.5-4.1,4.7-6,6.6c-3.9,3.9-7.5,6.8-9.9,8.9C423.6,374.3,422.2,375.5,422.2,375.5z"/>
	</g>
	<g id="XMLID_4467_">
		<path id="XMLID_315_" class="st1" d="M182.3,310.5c0,0-0.2,0.2-0.5,0.5c-0.3,0.3-0.7,0.7-1.3,1.3c-1.2,1.1-2.9,2.5-5.1,4.2
			c-2.2,1.6-4.8,3.4-7.5,5.4c-1.4,1-2.8,2-4.2,3c-1.4,1.1-2.8,2.2-4.1,3.3c-1.3,1.2-2.6,2.4-3.8,3.7c-1.1,1.3-2.3,2.6-3.2,3.9
			c-0.9,1.4-1.8,2.7-2.5,4c-0.7,1.3-1.2,2.7-1.6,3.9c-0.2,0.6-0.3,1.2-0.5,1.8c-0.1,0.6-0.2,1.2-0.3,1.7c-0.1,0.5-0.1,1-0.2,1.5
			c-0.1,0.5,0,0.9-0.1,1.3c-0.1,0.8,0,1.4,0,1.8c0,0.4,0,0.6,0,0.6s0-0.2-0.1-0.6c-0.1-0.4-0.3-1-0.3-1.8c0-0.4-0.1-0.8-0.1-1.3
			c0-0.5,0-1,0-1.6c0-0.6,0.1-1.2,0.2-1.8c0.1-0.6,0.2-1.3,0.4-2c0.3-1.3,0.7-2.8,1.4-4.2c0.6-1.5,1.4-2.9,2.3-4.4
			c0.9-1.5,2-2.9,3.2-4.3c1.2-1.4,2.5-2.7,3.9-3.9c2.8-2.4,5.8-4.5,8.6-6.3c2.9-1.8,5.6-3.4,7.8-4.9c2.3-1.4,4.2-2.6,5.5-3.5
			C181.5,311,182.3,310.5,182.3,310.5z"/>
	</g>
	<g id="XMLID_2236_">
		<path id="XMLID_313_" class="st1" d="M180.1,263.9c0,0-0.3,0-0.9,0c-0.6,0-1.4,0-2.5-0.1c-1.1-0.1-2.4-0.3-3.9-0.7
			c-1.5-0.4-3.1-0.9-4.8-1.8c-1.7-0.8-3.5-1.9-5.2-3.3c-1.7-1.4-3.4-3-4.7-5c-0.3-0.5-0.7-1-1-1.5c-0.3-0.5-0.6-1-0.9-1.6
			c-0.6-1.1-1.1-2.3-1.5-3.5c-0.8-2.4-1.3-5-1.5-7.5c-0.1-2.6,0.1-5.2,0.7-7.6c0.5-2.5,1.5-4.8,2.7-6.9c1.2-2.1,2.6-4,4.2-5.5
			c1.5-1.6,3.2-2.8,4.8-3.8c1.6-1,3.2-1.8,4.6-2.3c1.4-0.6,2.7-0.9,3.8-1.1c1.1-0.2,1.9-0.3,2.5-0.3c0.6,0,0.9-0.1,0.9-0.1
			s-0.3,0.1-0.9,0.2c-0.6,0.1-1.4,0.4-2.4,0.8c-1,0.4-2.2,0.9-3.5,1.6c-1.3,0.7-2.7,1.6-4.1,2.7c-1.4,1.1-2.8,2.4-4.1,3.9
			c-1.3,1.5-2.5,3.3-3.5,5.2c-1,2-1.7,4.1-2.2,6.3c-0.5,2.2-0.6,4.6-0.5,6.9c0.1,2.3,0.5,4.6,1.2,6.8c0.2,0.5,0.4,1.1,0.6,1.6
			c0.2,0.5,0.4,1,0.6,1.5c0.2,0.5,0.5,1,0.8,1.5c0.2,0.5,0.6,0.9,0.8,1.4c1.2,1.8,2.6,3.4,4,4.8c1.5,1.4,3,2.5,4.5,3.5
			c1.5,0.9,3,1.7,4.4,2.2c1.4,0.6,2.6,0.9,3.6,1.2c1,0.2,1.8,0.4,2.4,0.5C179.8,263.9,180.1,263.9,180.1,263.9z"/>
	</g>
</g>
</svg>
