<?xml version="1.0" encoding="utf-8"?>
<!-- Generator: Adobe Illustrator 19.0.0, SVG Export Plug-In . SVG Version: 6.00 Build 0)  -->
<svg version="1.1" id="Layer_1" xmlns="http://www.w3.org/2000/svg" xmlns:xlink="http://www.w3.org/1999/xlink" x="0px" y="0px"
	 viewBox="-285 115.5 387.5 330.5" enable-background="new -285 115.5 387.5 330.5" xml:space="preserve">
<path id="XMLID_7213_" fill="#EF7B05" d="M-204.8,247.3c0,0-17.2-16.8-40.4,6.9c-23.2,23.7-24.9,90.8-24.9,90.8l11.6-20.8
	c0,0-0.6,31.8,6.1,53.8s20.5,28.9,22.7,42.8c2.2,13.9,7,17.3,7,17.3s4.3-19.2,4.6-35.5c0.4-18.5-12.7-50.1,0.6-86.6
	C-204.2,279.5-204.8,247.3-204.8,247.3z"/>
<path id="XMLID_7212_" fill="#EF7B05" d="M-39.1,132.4c0,0,45.8-0.2,72.9,40.3s42.6,94.3,31,133s-22.8,69.7-26.6,92
	c-3.5,20.4-3.2,25-3.2,25l-4,15.5c0,0-11.2-25.7-8.4-48.9s-0.4-81.3-7.1-102.1s-33.8-41.4-58.7-40.3s-38.4,13.9-82.7,6.2
	c-51.4-8.9-57.9-6.6-81.9,15.4c0,0-22.5-61.1,29.5-100.4s124.8-49.2,158-44"/>
<path id="XMLID_7210_" fill="#FFFFFF" d="M-44.7,139.4c-2.3,1.4-4.7,2.7-7,4.2c-1.2,0.7-2.3,1.4-3.5,2.2c-1.2,0.7-2.3,1.4-3.4,2.2
	c-2.3,1.5-4.5,2.9-6.6,4.3c-2.1,1.4-4.2,2.8-6.1,4.1c-1.9,1.3-3.8,2.6-5.5,3.7C-83.5,164.8-88,168-88,168s4.3-3.5,10.7-8.7
	c1.6-1.3,3.4-2.7,5.2-4.1c1.9-1.5,3.8-3,5.9-4.6c2.1-1.6,4.2-3.2,6.3-4.8c1.1-0.8,2.2-1.6,3.3-2.4c1.1-0.8,2.2-1.6,3.3-2.4
	c2.2-1.6,4.5-3.2,6.7-4.8"/>
<path id="XMLID_7209_" fill="#FFFFFF" d="M-106.9,133.6c-6.6,3.9-14.2,8.6-22.3,13.9c-4,2.7-8.1,5.5-12.2,8.4
	c-4.1,3-8.2,6.1-12.1,9.3c-4,3.3-7.8,6.7-11.3,10.3c-0.9,0.9-1.8,1.8-2.6,2.7c-0.4,0.5-0.8,0.9-1.2,1.4s-0.8,0.9-1.2,1.4
	c-0.4,0.5-0.8,0.9-1.1,1.4c-0.4,0.5-0.7,1-1.1,1.5l-0.5,0.8l-0.2,0.3l-0.2,0.4c-0.3,0.5-0.6,1-1,1.5c-2.6,4.1-4.6,8.4-6.1,12.6
	c-1.5,4.2-2.5,8.4-3,12.3c-0.5,3.9-0.7,7.5-0.6,10.8c0.1,3.2,0.4,6,0.8,8.3c0.4,2.3,0.8,4.1,1.2,5.2c0.3,1.2,0.6,1.8,0.6,1.8
	s-0.3-0.6-0.7-1.8c-0.4-1.2-0.9-2.9-1.4-5.2c-0.5-2.3-0.9-5.1-1.2-8.3c-0.2-3.2-0.2-6.9,0.1-10.9c0.4-4,1.2-8.3,2.6-12.7
	c1.4-4.4,3.2-8.9,5.7-13.3c0.3-0.5,0.6-1.1,0.9-1.6l0.2-0.4l0.3-0.4l0.5-0.8c0.3-0.5,0.7-1.1,1-1.6c0.4-0.5,0.8-1,1.2-1.6
	c0.4-0.5,0.8-1.1,1.2-1.6c0.4-0.5,0.8-1,1.2-1.5c0.8-1,1.7-2,2.5-3c3.5-3.9,7.3-7.5,11.1-11c3.9-3.5,7.9-6.9,11.9-10
	c4-3.2,8-6.2,12-9.1c7.9-5.6,15.4-10.7,21.9-14.9"/>
<path id="XMLID_7208_" fill="#FFFFFF" d="M-69.4,134.8c-6.8,4.2-14.7,9.1-23.1,14.6c-8.4,5.5-17.2,11.5-25.8,17.8
	c-4.3,3.2-8.5,6.5-12.5,9.9c-2,1.7-4,3.4-5.8,5.2c-0.5,0.4-0.9,0.9-1.4,1.3c-0.4,0.5-0.9,0.9-1.3,1.4l-0.7,0.7l-0.2,0.2l-0.1,0.2
	l-0.3,0.4c-0.4,0.5-0.8,1-1.2,1.4c-1.6,2-3.1,3.9-4.3,6c-0.7,1-1.2,2.1-1.8,3.1c-0.3,0.5-0.6,1.1-0.8,1.6c-0.3,0.5-0.5,1-0.8,1.6
	c-1,2.1-1.8,4.2-2.6,6.3c-0.7,2.1-1.3,4.1-1.8,6.1c-1,4-1.6,7.7-1.9,11c-0.3,3.3-0.4,6.3-0.3,8.7c0.1,2.4,0.2,4.3,0.3,5.6
	c0.1,1.3,0.3,2,0.3,2s-0.1-0.7-0.3-2c-0.2-1.3-0.4-3.2-0.5-5.6s-0.1-5.3,0.1-8.7c0.2-3.4,0.7-7.1,1.6-11.2c0.4-2,1-4.1,1.7-6.2
	s1.5-4.3,2.5-6.4c0.2-0.5,0.5-1.1,0.8-1.6s0.5-1.1,0.8-1.6c0.6-1.1,1.1-2.2,1.8-3.2c1.3-2.1,2.7-4.2,4.3-6.3c0.4-0.5,0.8-1,1.2-1.5
	l0.3-0.4l0.2-0.2l0.2-0.2l0.6-0.7c0.4-0.5,0.9-1,1.3-1.4c0.5-0.5,0.9-0.9,1.4-1.4c1.8-1.9,3.8-3.7,5.7-5.5c4-3.6,8.1-7,12.4-10.3
	c8.5-6.6,17.2-12.9,25.4-18.6c8.3-5.7,16.1-10.9,22.8-15.3"/>
<path id="XMLID_7207_" fill="#FFFFFF" d="M-94.7,239.8c0,0,0-0.8,0.1-2.3s0.4-3.6,1-6.3s1.5-5.9,2.9-9.5s3.2-7.5,5.6-11.6
	c2.4-4.1,5.3-8.2,8.7-12.4c3.4-4.1,7.4-8.1,11.8-11.9c4.4-3.8,9.2-7.4,14.3-10.6c1.3-0.9,2.6-1.6,3.9-2.4l2-1.2l2-1.1l2-1.1l1-0.6
	l1-0.5l4.1-2.1c5.6-2.7,11.2-5.1,17-7c5.7-1.9,11.6-3.4,17.3-4.2c5.7-0.8,11.4-1,16.7-0.5c5.3,0.4,10.3,1.6,14.8,3.1
	s8.4,3.4,11.8,5.3c3.3,1.9,6.1,3.8,8.3,5.4c2.2,1.6,3.9,3,5,3.9c1.1,0.9,1.7,1.4,1.7,1.4l-3.5,4.5c0,0-0.6-0.5-1.7-1.4
	c-1.1-0.9-2.7-2.3-4.7-3.9c-2.1-1.6-4.6-3.5-7.7-5.3c-3.1-1.9-6.7-3.7-10.8-5.2c-4.1-1.5-8.7-2.7-13.7-3.3s-10.3-0.6-15.9,0
	c-5.5,0.6-11.2,1.8-16.8,3.5c-5.6,1.7-11.3,3.8-16.7,6.3l-4.1,1.9l-1,0.5l-1,0.5l-2,1l-2,1l-2,1.1c-1.3,0.7-2.6,1.4-3.9,2.2
	c-5.1,3-10,6.4-14.4,10s-8.4,7.5-12,11.4c-3.5,3.9-6.5,8-9,11.9c-2.5,4-4.4,7.8-5.8,11.3c-1.5,3.5-2.5,6.7-3.1,9.4
	c-0.7,2.7-1,4.8-1.2,6.3C-94.7,239-94.7,239.8-94.7,239.8z"/>
<path id="XMLID_7206_" fill="#FFFFFF" d="M-35.4,236.3c0,0,1.4-1.8,4.1-4.6c2.7-2.8,6.7-6.7,12.1-10.7s12.1-8.1,19.8-11.3
	c3.9-1.6,8-2.9,12.3-3.8c1.1-0.2,2.2-0.4,3.2-0.6c1.1-0.2,2.2-0.3,3.3-0.5c1.1-0.1,2.2-0.2,3.3-0.4h0.4h0.5h0.8l1.6-0.1
	c4.7,0,9.3,0.9,13.6,2.6c4.3,1.7,8.1,4.2,11.5,7.1s6.2,6,8.7,9.2c2.4,3.2,4.5,6.4,6.2,9.5c3.4,6.1,5.7,11.6,7.1,15.4
	c0.7,1.9,1.2,3.5,1.5,4.6s0.5,1.7,0.5,1.7l-7.5,2c0,0-0.1-0.5-0.3-1.4c-0.2-1-0.6-2.4-1.2-4.2c-1.1-3.6-2.9-8.9-5.8-14.7
	c-1.4-2.9-3.2-6-5.2-9.1c-2.1-3-4.5-6.1-7.4-8.8c-2.9-2.7-6.1-5.1-9.8-6.9c-3.6-1.8-7.7-2.8-11.8-3h-1.6h-0.8h-0.2h-0.1h-0.1
	c-0.1,0,0.1,0,0,0h-0.4c-1.1,0.1-2.1,0.1-3.2,0.1c-1.1,0.1-2.1,0.2-3.2,0.3c-1,0.1-2.1,0.3-3.1,0.4c-4.2,0.7-8.2,1.7-12.1,3
	c-7.7,2.6-14.5,6.3-20,9.9c-5.5,3.6-9.7,7.3-12.6,9.9C-34,234.6-35.4,236.3-35.4,236.3z"/>
<path id="XMLID_7204_" fill="none" d="M-39.1,132.4c0,0,45.8-0.2,72.9,40.3s42.6,94.3,31,133s-22.8,69.7-26.6,92
	c-3.5,20.4-3.2,25-3.2,25l-4,15.5c0,0-11.2-25.7-8.4-48.9s-0.4-81.3-7.1-102.1s-33.8-41.4-58.7-40.3s-38.4,13.9-82.7,6.2
	c-51.4-8.9-57.9-6.6-81.9,15.4c0,0-22.5-61.1,29.5-100.4s124.8-49.2,158-44"/>
<g id="XMLID_7179_">
	<path id="XMLID_172_" fill="#FFFFFF" d="M-208.2,266.7c0,0,0-0.3,0.1-0.8c0.1-0.5,0.1-1.3,0.1-2.2c0-0.9-0.2-2.1-0.4-3.3
		c-0.3-1.3-0.7-2.6-1.4-4s-1.6-2.8-2.8-4.1c-1.2-1.3-2.6-2.4-4.4-3.2c-1.6-0.8-3.6-1.3-5.5-1.5c-2-0.2-4,0-6,0.5
		c-2,0.4-3.9,1.2-5.7,2.2c-0.9,0.5-1.7,1.1-2.5,1.6c-0.4,0.3-0.9,0.6-1.2,1c-0.4,0.3-0.7,0.6-1.1,0.9c-1.4,1.3-2.7,2.7-3.8,4.2
		c-1.1,1.4-2.1,2.9-2.9,4.2c-0.8,1.4-1.6,2.7-2.2,3.8c-0.6,1.2-1.1,2.2-1.5,3.1c-0.8,1.7-1.3,2.7-1.3,2.7s0.1-0.3,0.2-0.8
		c0.1-0.5,0.3-1.2,0.5-2.2c0.3-0.9,0.6-2,1-3.3c0.5-1.3,1-2.7,1.7-4.2c1.4-3,3.4-6.4,6.5-9.5c0.4-0.4,0.8-0.8,1.2-1.1
		c0.4-0.4,0.8-0.7,1.2-1c0.5-0.4,0.9-0.7,1.4-1s1-0.6,1.4-0.9c2-1.1,4.1-2,6.4-2.6c2.3-0.5,4.6-0.7,6.9-0.4c2.3,0.2,4.5,0.9,6.5,2
		c1.9,1,3.6,2.5,4.8,4.1c1.3,1.6,2.1,3.3,2.7,4.9c0.6,1.6,0.9,3.2,1,4.5c0.1,1.4,0,2.6-0.1,3.5c0,0.5-0.2,0.9-0.2,1.3
		c-0.1,0.4-0.2,0.7-0.2,0.9C-208.1,266.5-208.2,266.7-208.2,266.7z"/>
</g>
<g id="XMLID_7175_">
	<path id="XMLID_170_" fill="#FFFFFF" d="M-181.8,170.6c0,0-0.3,0.2-0.9,0.6c-0.3,0.2-0.6,0.5-1.1,0.8c-0.4,0.3-0.9,0.7-1.4,1.1
		c-0.5,0.4-1.1,0.9-1.7,1.4c-0.6,0.5-1.3,1.1-1.9,1.7c-0.3,0.3-0.7,0.6-1,1c-0.3,0.3-0.7,0.7-1.1,1.1c-0.7,0.7-1.5,1.5-2.2,2.3
		c-1.5,1.7-3.1,3.5-4.6,5.6c-1.5,2-3,4.3-4.3,6.7c-0.7,1.2-1.3,2.5-1.9,3.7c-0.5,1.3-1.1,2.6-1.6,4c-0.3,0.7-0.4,1.4-0.6,2.1l-0.3,1
		l-0.3,1.1c-0.4,1.5-0.7,2.9-1,4.4c-0.7,2.9-1.3,5.9-1.8,8.8c-0.5,2.9-0.9,5.8-1,8.5c-0.2,2.8-0.2,5.5,0,8c0.2,2.5,0.5,5,0.8,7.2
		c0.7,4.4,1.9,8,3.3,10.2c0.7,1.1,1.3,1.9,1.7,2.5c0.5,0.5,0.8,0.8,0.8,0.8s-0.3-0.2-0.9-0.7c-0.5-0.5-1.3-1.2-2.1-2.3
		c-1.6-2.2-3.3-5.7-4.4-10.2c-1.1-4.4-2-9.8-1.8-15.6c0.1-2.9,0.3-5.9,0.8-8.9c0.4-3,1-6,1.7-9c0.3-1.5,0.7-3,1.1-4.4l0.3-1.1
		l0.3-1.1c0.2-0.7,0.4-1.5,0.7-2.2c1-2.9,2.4-5.6,3.9-8.1s3.2-4.8,4.9-6.8c0.8-1,1.7-2,2.5-2.9c0.9-0.9,1.7-1.8,2.6-2.5
		c0.8-0.8,1.6-1.5,2.5-2.2c0.4-0.3,0.8-0.7,1.2-1s0.8-0.6,1.2-0.9c0.7-0.6,1.4-1.1,2.1-1.5c0.7-0.5,1.3-0.9,1.9-1.2
		c1.1-0.7,2.1-1.2,2.7-1.5C-182.1,170.8-181.8,170.6-181.8,170.6z"/>
</g>
<g id="XMLID_2850_">
	<path id="XMLID_104_" fill="#FFFFFF" d="M-211.5,340.6l-2.4,2.8l-2.2,2.9l-2.1,3l-1.9,3.1l-1.7,3.2l-1.6,3.3l-1.4,3.4l-1.2,3.4
		l-1.1,3.5l-0.9,3.5l-0.7,3.6l-0.5,3.6l-0.3,3.6l-0.1,3.6l0.1,3.6l0.3,3.6l-2.8,0.4l-2.7-14.2c-0.9-4.7-1.7-9.5-2.6-14.2l-1.3-7.1
		l-1.2-7.1c-0.2-1.1-0.5-2.1-1-2.8c-0.3-0.3-0.5-0.5-0.9-0.7l-0.2-0.1c-0.1,0-0.1,0-0.1,0c-0.1,0-0.1,0-0.2,0c-0.2,0-0.4,0-0.5,0
		c-0.8,0.1-1.7,0.7-2.4,1.5c-0.8,0.8-1.4,1.7-2,2.6l-1.9,3.1l-0.2-3.6c-0.2-2.9-0.3-5.8-0.4-8.8c-0.1-2.9-0.3-5.9-0.4-8.8l-0.3-8.8
		c-0.1-2.9-0.2-5.9-0.2-8.8c0.4,2.9,0.7,5.8,1,8.7l0.9,8.7c0.3,2.9,0.6,5.8,0.9,8.7c0.3,2.9,0.5,5.8,0.8,8.7l-2.1-0.5
		c0.6-1.1,1.4-2.2,2.3-3.2c0.9-0.9,2-1.9,3.6-2.3c0.4-0.1,0.8-0.1,1.3-0.1c0.2,0,0.5,0.1,0.7,0.1c0.1,0,0.3,0.1,0.3,0.1l0.2,0.1
		c0.8,0.3,1.5,0.8,1.9,1.5c1,1.3,1.3,2.6,1.6,3.9l1.4,7.1l1.3,7.1c0.9,4.7,1.8,9.4,2.6,14.2l2.5,14.2l-2.8,0.4l-0.2-3.8v-3.8
		l0.2-3.8l0.4-3.7l0.6-3.7l0.8-3.7l1-3.6l1.2-3.5l1.4-3.5l1.6-3.4l1.8-3.3l2-3.2l2.1-3l2.3-2.9l2.5-2.8L-211.5,340.6z"/>
</g>
</svg>
