<?xml version="1.0" encoding="utf-8"?>
<!-- Generator: Adobe Illustrator 19.0.0, SVG Export Plug-In . SVG Version: 6.00 Build 0)  -->
<svg version="1.1" id="Layer_1" xmlns="http://www.w3.org/2000/svg" xmlns:xlink="http://www.w3.org/1999/xlink" x="0px" y="0px"
	 viewBox="-364 57 510 700" style="enable-background:new -364 57 510 700;" xml:space="preserve">
<style type="text/css">
	.st0{fill:#EF7B05;}
</style>
<g id="XMLID_7496_">
	<path id="XMLID_7546_" class="st0" d="M10.6,121c1.6,2.2,3.2,4.4,4.7,6.8c0,0,0,0,0,0c0,0,0,0,0,0c20.6,39.8,29.4,63.4,33.4,91.9
		c3,11.4,4.5,23,4.5,34.6c1.4-1.2,3.1-2,5-2.3c2.7-0.4,5.7,0.2,8.1,1.7c12-20.3,16.3-41.4,13-62.1c-0.5-0.1-1-0.4-1.1-0.8
		C66.7,163,42.8,138.4,10.6,121z"/>
	<path id="XMLID_7545_" class="st0" d="M-191.3,92.5c-15.3,9.9-27.5,22.4-35,36.3c0,0,0,0,0,0c0.1,0.3,0.1,0.7-0.1,1
		c-24.3,32.7-35.4,68.9-32.3,104.7c10.8-4.5,22.4-8.4,34.4-11.8c-0.1-0.1-0.2-0.2-0.3-0.3C-239.6,178.3-226.7,129.9-191.3,92.5z"/>
	<path id="XMLID_7544_" class="st0" d="M43.6,213.6c-0.1-0.4,0.1-0.8,0.5-1.1c-4.5-25.1-13.4-47.7-32-83.7
		c-6.3-10.1-13.9-18.7-22.6-26.2c26.3,34.3,26.7,77.7,0.7,112.2c19.7,3.7,38.6,8.5,56.4,14.7c-0.3-3.2-0.7-6.3-1.1-9.3
		C44.8,218.1,44.3,215.8,43.6,213.6z"/>
	<path id="XMLID_7543_" class="st0" d="M-229.5,127.9c1.7-3.2,3.7-6.2,5.8-9.2c-36.7,34.9-60.1,77.3-66.3,121
		c1.9,4.8,4.3,9.5,7,14.1c2.3-1.4,5.3-2.1,8.1-1.7c1.9,0.3,3.6,1.2,5,2.3c0-13.9,2-27.8,6.3-41.4c0.2-0.5,0.8-0.8,1.4-0.9
		c2.2-28.8,13.3-57.3,32.8-83.6C-229.6,128.4-229.7,128.2-229.5,127.9z"/>
	<path id="XMLID_7542_" class="st0" d="M6.9,116.2c0.3,0,0.7,0,1,0.2c30.9,15.6,54.9,37.7,68.6,63C72.5,166.6,65.7,154,55.9,142
		C35,116.6,3,96.2-34.2,83.7C-17.4,92-4,102.7,6.9,116.2z"/>
	<path id="XMLID_7541_" class="st0" d="M-152.7,207.9c0.2,0.7-0.4,1.4-1.4,1.5c-0.1,0-0.2,0-0.3,0c-0.8,0-1.6-0.4-1.7-1
		c-11.5-41.8-7.2-86.2,12-126.6c-18.7,20.1-52.4,70.5-43.9,132.4c0,0.1-0.1,0.2-0.1,0.3c47.3-8.6,99.6-9.9,149.1-3.9
		c-47-39.4-79-87.2-92.6-138.4l0,0c-0.5,0.1-0.9,0.1-1.4,0.2c-0.1,0.1-0.2,0.2-0.3,0.2c-0.8,0.3-2,1.1-3.6,2.3
		C-159.2,116.8-164.8,163.9-152.7,207.9z"/>
	<path id="XMLID_7540_" class="st0" d="M60.1,398.3c-3.2-19.7,1.9-32.3,6.3-43.5c5.6-14.2,10.5-26.6-3.5-49.4
		c-2.4,7.1-5.5,14.1-9.5,20.7c-1.5,2.5-3.8,5.3-7.5,6.3c0,0.1,0,0.2,0,0.2c0.6,0.2,1.2,0.5,1.2,1l2,26.7c1,13.5,2.2,28.9-3.9,42.9
		c-0.8,1.9-1.8,3.9-2.9,5.7c0,0,0.1,0,0.1,0c0.8,0.4,1.1,1.1,0.6,1.7c-8.5,10.1-7.5,24,2,33.6c0.7-0.2,1.4-0.1,1.9,0.3
		c12.9,11.1,20.7,26.2,24,46.2c1.3,8,1.9,16.2,2.4,24.1c0.5,8.3,1.1,16.8,2.6,25.1c3,17.4,10,34.5,16.7,51.1
		c3.7,9.2,7.6,18.7,10.7,28.1c9.6,28.7,10.6,52.8,3.4,72.1c0.1-0.1,0.3-0.3,0.4-0.5c31.4-40.6,36-80.9,12.8-114.6
		c-17.9-19.5-17.9-39-17.8-59.6c0-11.9,0.1-24.2-3.3-37.3c-6.3-24.2-15-36.3-22.8-46.9C68.8,422.6,62.6,414,60.1,398.3z"/>
	<path id="XMLID_7539_" class="st0" d="M-34.1,211.1c1.8,0.2,3.7,0.4,5.5,0.7c-1.3-23.2-9.3-100.7-55.1-139.5
		c-6.3-0.8-12.6-1.5-19-1.9c-0.4,0-0.8-0.2-1.1-0.4c-8.2,0.2-16.3,0.8-24.3,1.7c13.6,51.5,46.1,99.6,93.8,138.9
		C-34.2,210.7-34.2,210.9-34.1,211.1z"/>
	<path id="XMLID_7538_" class="st0" d="M-25.3,212.3c4.1,0.6,8.1,1.3,12.2,2.1c0-0.1,0-0.2,0-0.3c26.9-35.3,25.4-80.2-3.8-114.5
		c-0.5-0.6-0.2-1.3,0.5-1.7C-28.1,89.2-41.8,82.4-58,77c-6.7-1.6-13.5-2.9-20.4-4c44.3,40.2,52,116.2,53.3,138.9
		C-25.1,212.1-25.3,212.2-25.3,212.3z"/>
	<path id="XMLID_7537_" class="st0" d="M-221.2,221.9c0,0,0,0.1,0,0.1c9.8-2.7,19.8-5,30.2-7c-0.2-0.2-0.4-0.3-0.4-0.6
		c-9.6-70,33.9-127.1,51.7-141.1c0-0.1,0.1-0.1,0.1-0.2c-6.1,0.9-12.2,2.1-18.1,3.4c-0.1,0.1-0.2,0.3-0.4,0.3
		c-7.8,2.6-15.3,5.7-22.2,9.4C-221.3,123.9-237,175.3-221.2,221.9z"/>
	<path id="XMLID_7536_" class="st0" d="M13.2,441.8c3.3,4,6.8,8,9.8,12.2c3.9,5.5,6.5,10.7,7.9,15.7c0-0.5,0-1-0.1-1.5
		c-0.5-3.9-1.5-7.9-2.4-11.7c-1.7-6.9-3.5-14-2.4-21.2c1.1-7.4,5.3-14.2,9.3-20.8c2.4-3.9,4.8-8,6.6-12.1c5.9-13.6,4.8-28,3.7-42
		l-1.5-20c-2.7,10.1-6.7,18.4-12.2,25.5c-7.2,9.3-17.5,17-27.4,24.5l-6.5,4.9c0,0.2,0.1,0.4,0,0.5c-6.6,11.1-0.8,23.7,3.2,30.1
		C4.6,431.6,9,436.8,13.2,441.8z"/>
	<path id="XMLID_7535_" class="st0" d="M40.8,575.3c-1.6-6.8-3.6-13.7-5.6-20.4c-2.5-8.5-5.1-17.3-6.8-26.1
		c-2.2-11.2-4.1-24.7-2.2-37c-2.3,2.1-5.1,3.9-8.5,5.2c-14.7,12.7-12.5,21.3-9.2,34.1l0.4,1.5c1.2,4.8,3.1,9.6,4.8,14.3
		c3.5,9.2,7,18.6,6.5,28.3c-0.6,11.6-7,22.5-13.1,33c-1.6,2.7-3.2,5.4-4.7,8.2c-20.1,36.8-22.5,77.8-6.8,115.7
		c2.8-1.6,5.6-3.2,8.5-4.7C39.6,679.9,52.6,625.9,40.8,575.3z"/>
	<path id="XMLID_7534_" class="st0" d="M-17.1,599.5c-1.8-4.8-4.8-9.4-7.7-13.9c-1.2-1.8-2.3-3.6-3.4-5.5c-0.1-0.1-0.1-0.3-0.2-0.4
		c1,4.6,1.6,9.2,1.6,13.9c0,15.9-7.2,31.5-14.2,46.7c-3.9,8.4-7.9,17-10.6,25.5c-4.8,15.3-7.8,42,20.1,60.9
		c-7.9-10.6-8.4-24.3-7-35.1c2.7-20.6,5.5-41.9,14.9-62c1.4-3,3-6,4.6-9c-0.6-0.4-0.8-1-0.4-1.5C-13.6,612.3-15.4,603.9-17.1,599.5z
		"/>
	<path id="XMLID_7533_" class="st0" d="M56.8,494c-0.1-13.9-0.2-27.1-6-40.8c-1.7-2-3.6-3.9-5.6-5.7c-0.2,0.1-0.4,0.2-0.7,0.2
		c-0.5,0-1-0.2-1.4-0.5c-7.2-6.5-10.4-15.1-9.5-23.5c-2.1,3.9-3.7,7.9-4.4,12c-1.1,6.8,0.6,13.4,2.4,20.4c1,3.9,2,7.9,2.5,11.9
		c0.4,3.5,0.2,7.4-0.7,11.2c0,0,0,0,0,0.1c0,0,0,0.1,0,0.1c-0.5,2.1-1.2,4.1-2.3,6c-4,13.7-1.9,29.9,0.7,43.1
		c1.7,8.7,4.3,17.5,6.8,26c2,6.7,4,13.6,5.6,20.5c11.5,49.6-0.5,102.5-33.9,149.4c15.5-7.3,32.8-12.8,50.7-16.1l1.3-4.8
		c8.3-31.4,16.1-61,13.7-92.2c-1.3-16.5-5.4-33.2-9.3-49.3c-4.2-16.8-8.5-34.3-9.5-51.7C56.9,504.6,56.9,499.2,56.8,494z"/>
	<path id="XMLID_7532_" class="st0" d="M16.4,494.3c0.2-0.1,0.3-0.1,0.5-0.1c0.2-0.1,0.4-0.1,0.6-0.1c0.1,0,0.2,0,0.3,0
		c4.4-2,7.5-5,9.6-8.5c0-0.1-0.1-0.2,0-0.3c3.1-8.6,0.6-18.7-7.4-30.1c-2.9-4.1-6.3-8.2-9.6-12.1C5.9,438,1.5,432.7-2,427.2
		c-6.2-10-8-19.7-5.2-27.8l-6.1,4.6c-0.1,0.1,0,0.3-0.1,0.4c-8.2,7.5-8.9,17.3-2.3,30.6c1.2,2.3,2.5,4.7,3.7,7
		c4.5,8.2,9.2,16.7,8.6,25.4c-0.8,10.5-9.1,20.1-17.2,29.5c-5.3,6.1-10.7,12.4-13.9,18.8c-2.9,5.8-4.1,11.6-4.2,17.4
		c0.4,0.2,0.6,0.6,0.6,0.9c0,5.3,0.5,10.6,1.5,15.9c0.9,4,2.1,8,3.2,12c2.1,5.9,4.8,11.7,8.1,17.3c1.1,1.8,2.3,3.6,3.4,5.4
		c3,4.6,6,9.3,7.9,14.3c1.1,3.1,1.6,6,1.6,8.8c4.2-8.3,7.6-16.7,7.9-25.4c0.2-7-1.6-14.1-3.3-20.9c-1.4-5.6-2.9-11.5-3.3-17.3
		C-12.3,521.8-3.4,505.5,16.4,494.3z"/>
	<path id="XMLID_7531_" class="st0" d="M-215.7,107.4c0.5-0.4,1.2-0.4,1.9-0.3c8.5-8.7,18.9-16.4,30.8-22.7c0.6-0.6,1.2-1.1,1.8-1.7
		c-33.7,10.6-63.1,27.2-83.5,48.3c-29,29.8-38.7,67.2-27.7,101.8C-284.1,186.9-257.1,142.6-215.7,107.4z"/>
	<path id="XMLID_7530_" class="st0" d="M-235.6,410.6c1.3,2.5,2.7,4.9,4,7.3c5.1,9.1,10.5,18.5,9.8,28.4c-0.4,6.4-3.2,12.6-6,18.5
		c-1.6,3.4-3.2,6.9-4.4,10.5c-2.4,7.3-2.1,17.1,5.2,23c0.4,0.3,0.7,0.5,1.1,0.8c0.9,0.6,1.9,1.3,3,1.8c0.6,0.3,0.8,0.8,0.7,1.3
		c12,10.6,17.4,24.4,16.3,41.9c-0.4,5.3-1.6,10.7-2.9,15.8c2.1-4.1,4.6-8.1,7-12.1c1.5-2.5,3.1-5,4.5-7.5c9.7-16.9,10.7-30.5,3-40.4
		c-0.3-0.3-0.3-0.7-0.1-1c-0.6-0.7-1.2-1.4-1.8-2.1c-8.1-9.3-16.4-19-17.2-29.5c-0.6-8.7,4-17.2,8.6-25.4c1.3-2.3,2.6-4.7,3.8-7
		c6.7-13.3,6-23.1-2.3-30.6c-0.1-0.1-0.1-0.2-0.1-0.4l-17.7-13.4c-5.1-3.8-10.3-7.8-15.1-11.9C-244.1,388.3-240.5,401.2-235.6,410.6
		z"/>
	<path id="XMLID_7529_" class="st0" d="M-194,541.3c-1.5,2.5-3,5-4.5,7.6c-6.4,10.5-13.1,21.3-13,32.7c0,0.5-0.4,0.8-0.9,1
		c0.5,11.8,6.7,23.1,12.7,34.1c2.3,4.2,4.7,8.6,6.7,13c9.4,20.1,12.2,41.4,14.9,62c1.4,10.8,0.9,24.5-7,35.1
		c27.9-18.9,24.9-45.7,20.1-60.9c-2.7-8.5-6.7-17.2-10.6-25.5c-7-15.1-14.3-30.8-14.2-46.7c0-10.1,3-20.4,5.9-30.4
		c4.8-16.6,9.4-32.2,1.7-47.7c-1.1-2.2-2.6-4.5-4.2-6.7C-184.3,517.9-186.8,528.7-194,541.3z"/>
	<path id="XMLID_7528_" class="st0" d="M-243,491.8c1.9,12.4,0,25.8-2.2,37c-1.7,8.8-4.3,17.6-6.8,26.1c-2,6.7-4,13.5-5.6,20.4
		c-11.8,50.6,1.2,104.6,36.6,152c2.9,1.5,5.8,3.1,8.5,4.7c15.7-37.9,13.3-78.9-6.8-115.7c-1.5-2.7-3.1-5.4-4.7-8.2
		c-6.2-10.5-12.5-21.4-13.1-33c-0.5-9.7,3.1-19.2,6.5-28.3c1.8-4.7,3.6-9.5,4.8-14.3l0.4-1.5c3.4-12.8,5.6-21.4-9.2-34.1
		C-237.9,495.7-240.7,493.9-243,491.8z"/>
	<path id="XMLID_7527_" class="st0" d="M-260.9,574.9c1.6-6.9,3.6-13.8,5.6-20.5c2.5-8.5,5.1-17.3,6.8-26
		c2.6-13.2,4.7-29.4,0.7-43.1c-1-1.9-1.7-3.9-2.3-6c0,0,0-0.1-0.1-0.1c0,0,0,0,0-0.1c-0.9-3.8-1.2-7.7-0.7-11.1
		c0.5-4,1.5-8,2.5-11.9c1.8-7,3.4-13.7,2.4-20.4c-0.4-2.3-1.1-4.6-2-6.8c-0.5,6.8-4.9,13.5-12.7,17.5c-0.1,0-0.1,0-0.2,0
		c-2.4,2.1-4.6,4.3-6.6,6.7c-5.8,13.8-5.9,26.9-6,40.8c0,5.2-0.1,10.6-0.4,16.2c-1.1,17.4-5.4,34.8-9.5,51.7
		c-4,16.1-8.1,32.7-9.3,49.3c-2.4,31.2,5.4,60.9,13.7,92.2l1.3,4.8c18,3.3,35.2,8.8,50.7,16.1C-260.4,677.4-272.5,624.6-260.9,574.9
		z"/>
	<path id="XMLID_7526_" class="st0" d="M-258.4,402.5c1.8,4.1,4.2,8.1,6.6,12.1c4,6.6,8.1,13.4,9.3,20.8c1.1,7.1-0.7,14.3-2.4,21.2
		c-1,3.8-2,7.8-2.4,11.7c-0.4,3.3-0.2,6.9,0.7,10.4c0.9,1.9,1.7,3.9,2.3,6c2.1,3.9,5.4,7.2,10.1,9.4c0,0,0,0,0,0
		c-3.3-6.1-3-13.4-1.1-19.3c1.2-3.6,2.8-7.2,4.5-10.7c2.8-6,5.5-11.7,5.8-17.8c0.6-9.4-4.6-18.5-9.6-27.4c-1.4-2.5-2.8-4.9-4.1-7.4
		c-5.3-10.2-9.2-24.4,0.3-35c-3.6-3.3-7.1-6.7-10-10.4c-5.6-7.1-9.5-15.4-12.2-25.5l-1.5,20C-263.2,374.5-264.3,389-258.4,402.5z"/>
	<path id="XMLID_7525_" class="st0" d="M-323.3,691.4c-7.2-19.3-6.2-43.5,3.4-72.1c3.2-9.4,7-18.9,10.7-28.1
		c6.7-16.6,13.7-33.7,16.7-51.1c1.4-8.3,2-16.9,2.6-25.1c0.5-7.9,1.1-16.1,2.4-24.1c3.3-20,11.1-35.1,24-46.2
		c0.2-0.1,0.4-0.2,0.6-0.2c0.1,0,0.1-0.1,0.1-0.2c11-5.7,14.6-18.1,7.6-26.5c-0.5-0.5-0.2-1.2,0.4-1.6c-0.1-0.2-0.2-0.4-0.4-0.6
		c-2.4-4-4.9-8.1-6.7-12.3c-6.1-14-4.9-29.3-3.9-42.9l2-26.7c0-0.5,0.5-0.9,1.2-1c0-0.1,0-0.2,0-0.2c-3.8-1-6-3.8-7.5-6.3
		c-4-6.7-7.1-13.6-9.5-20.7c-13.9,22.8-9.1,35.2-3.5,49.4c4.4,11.2,9.4,23.8,6.3,43.5c-2.5,15.7-8.7,24.3-15.9,34.2
		c-7.7,10.6-16.5,22.7-22.8,46.9c-3.4,13.1-3.4,25.4-3.3,37.3c0.1,20.6,0.1,40.1-17.9,59.7c-23.1,33.5-18.4,73.9,12.9,114.5
		C-323.6,691.1-323.5,691.3-323.3,691.4z"/>
	<path id="XMLID_7517_" class="st0" d="M-320,700.5c0.8,0.9,1.6,1.8,2.4,2.8c0,0.1,0.1,0.1,0.2,0.1c0.2,0.2,0.4,0.3,0.7,0.4
		c0.1,0,0.1,0.1,0.2,0.1h0c0.1,0,0.3,0,0.4,0h0c0,0,0,0,0.1,0c0.2,0,0.5,0,0.7-0.1c0,0,0,0,0,0c0,0,0,0,0.1,0c0.1,0,0.2-0.1,0.3-0.1
		c0.2-0.1,0.4-0.3,0.5-0.5c0,0,0,0,0,0c0,0,0,0,0,0c0.1-0.1,0.1-0.2,0.1-0.4c0-0.1-0.1-0.3-0.1-0.4c0-0.1,0-0.1,0-0.2
		c-12.7-20.3-13.3-48-1.9-82.2c3.1-9.4,7-18.8,10.7-28c6.8-16.7,13.8-33.9,16.8-51.5c1.5-8.4,2-17,2.6-25.3c0.5-7.9,1.1-16,2.3-23.9
		c1.8-11,5-20.4,9.7-28.5c-2.6,10.4-2.6,20.6-2.7,31.2c0,5.2-0.1,10.6-0.4,16.1c-1.1,17.2-5.3,34.6-9.5,51.3
		c-4,16.2-8.1,32.9-9.4,49.6c-2.4,31.5,5.4,61.3,13.8,92.9l1.5,5.6c0,0.1,0.1,0.1,0.2,0.2c0.1,0.1,0.1,0.2,0.3,0.3
		c0.2,0.1,0.4,0.2,0.6,0.3c0.1,0,0.1,0.1,0.3,0.1c24.3,4.3,47.4,12.8,66.6,24.5c0.1,0.1,0.3,0.1,0.5,0.1c0.2,0.2,0.4,0.3,0.7,0.4
		c0.2,0,0.3,0.1,0.5,0.1c0.7,0,1.4-0.3,1.7-0.9c16.7-38.9,14.5-81.2-6.2-119.1c-1.5-2.7-3.1-5.5-4.7-8.2
		c-6-10.3-12.3-20.9-12.9-32.1c-0.5-9.3,3-18.6,6.4-27.5c1.8-4.7,3.6-9.6,4.9-14.5l0.4-1.5c2.5-9.6,4.5-17.2-0.8-26
		c10,9.8,14.4,22.5,13.3,38.3c-0.4,5.7-1.8,11.4-3.3,17c-1.8,7-3.6,14.2-3.4,21.4c0.4,12.3,6.8,24,12.9,35.3
		c2.3,4.2,4.7,8.6,6.7,12.9c9.2,19.8,12,40.9,14.7,61.4c1.4,10.8,1.5,30.5-14.2,41c-0.1,0.1-0.1,0.2-0.2,0.4
		c-0.1,0.1-0.2,0.3-0.3,0.4c0,0.2,0.1,0.3,0.1,0.5c0,0.1,0,0.3,0.1,0.4c0,0,0.1,0.1,0.1,0.1c0,0,0,0.1,0,0.1c0,0,0.1,0,0.1,0
		c0.3,0.2,0.7,0.4,1.1,0.4c0.3,0,0.7-0.1,1-0.2c40.8-19.6,37.6-52.1,32-69.7c-2.7-8.7-6.8-17.4-10.7-25.8
		c-6.9-14.9-14.1-30.4-14-45.9c0-9.9,3-20,5.9-29.8c4.7-16.2,9.6-32.9,1.5-49.1c-3.3-6.7-8.9-13.1-14.2-19.2
		c-8.2-9.5-15.9-18.4-16.6-28.3c-0.6-8.2,3.9-16.4,8.3-24.3c1.3-2.4,2.6-4.7,3.8-7.1c6.7-13.4,6.1-23.9-1.8-31.9
		c0-0.3-0.1-0.7-0.5-1l-18.7-14.1c-5.3-4-10.7-8.2-15.7-12.5c0.4-0.5,0.3-1.2-0.4-1.6c-0.4-0.3-1-0.3-1.5-0.2
		c-3.4-3.1-6.6-6.3-9.2-9.7c-6.8-8.7-11.2-19.2-13.7-33c0,0,0.1-0.1,0.1-0.1c0.1-0.4-0.2-0.8-0.6-1.1c-0.4-0.4-0.9-0.7-1.6-0.6
		c0,0,0,0,0,0c-2.6-0.6-4.4-2.9-5.6-5c-4.2-7-7.6-14.4-9.9-21.9c-0.2-0.7-1.2-1.1-2.1-1c-0.2,0-0.2,0.1-0.4,0.2
		c-0.1-0.1-0.2-0.2-0.3-0.2c-0.9-0.3-1.9,0-2.3,0.6c-15.6,24.6-10.5,37.6-4.5,52.7c4.3,10.9,9.3,23.3,6.2,42.5
		c-2.5,15.2-8.5,23.6-15.6,33.3c-7.8,10.8-16.7,23.1-23.1,47.7c-3.4,13.3-3.4,25.7-3.4,37.8c0.1,20.2,0.1,39.3-17.4,58.4
		c-23.4,34-19.2,74.6,11.7,115.4C-327.8,691.5-326.2,693.5-320,700.5z M-277.8,708.2l-1.3-4.8c-8.3-31.4-16.1-61-13.7-92.2
		c1.3-16.5,5.4-33.2,9.3-49.3c4.2-16.9,8.4-34.3,9.5-51.7c0.3-5.5,0.4-10.9,0.4-16.2c0.1-13.9,0.2-27,6-40.8c2-2.4,4.2-4.6,6.6-6.7
		c0.1,0,0.1,0,0.2,0c7.8-4,12.2-10.7,12.7-17.5c0.9,2.2,1.6,4.5,2,6.8c1,6.8-0.6,13.4-2.4,20.4c-1,3.9-2,7.9-2.5,11.9
		c-0.4,3.5-0.2,7.3,0.7,11.1c0,0,0,0,0,0.1c0,0,0,0.1,0.1,0.1c0.5,2,1.2,4.1,2.3,6c4,13.7,1.9,30-0.7,43.1c-1.7,8.7-4.3,17.5-6.8,26
		c-2,6.7-4,13.6-5.6,20.5c-11.5,49.6,0.5,102.5,33.9,149.4C-242.6,716.9-259.8,711.4-277.8,708.2z M-225.3,531.1l-0.4,1.5
		c-1.2,4.8-3.1,9.6-4.8,14.3c-3.5,9.2-7,18.6-6.5,28.3c0.6,11.6,7,22.5,13.1,33c1.6,2.7,3.2,5.4,4.7,8.2
		c20.1,36.8,22.5,77.8,6.8,115.7c-2.8-1.6-5.6-3.2-8.5-4.7c-35.3-47.4-48.3-101.4-36.6-152c1.6-6.8,3.6-13.7,5.6-20.4
		c2.5-8.5,5.1-17.3,6.8-26.1c2.2-11.2,4.1-24.7,2.2-37c2.3,2.1,5.1,3.9,8.5,5.2C-219.7,509.7-221.9,518.3-225.3,531.1z
		 M-182.2,515.5c7.8,15.5,3.2,31.1-1.7,47.7c-2.9,9.9-5.9,20.2-5.9,30.4c0,15.9,7.2,31.5,14.2,46.7c3.9,8.4,7.9,17,10.6,25.5
		c4.8,15.3,7.8,42-20.1,60.9c7.9-10.6,8.4-24.3,7-35.1c-2.7-20.6-5.5-41.9-14.9-62c-2-4.4-4.4-8.8-6.7-13c-6-11-12.2-22.3-12.7-34.1
		c0.5-0.2,0.9-0.6,0.9-1c-0.1-11.4,6.6-22.2,13-32.7c1.5-2.5,3.1-5,4.5-7.6c7.2-12.6,9.7-23.4,7.6-32.4
		C-184.8,511.1-183.4,513.3-182.2,515.5z M-221.1,390.6l17.7,13.4c0.1,0.1,0,0.3,0.1,0.4c8.2,7.5,8.9,17.3,2.3,30.6
		c-1.2,2.3-2.5,4.7-3.8,7c-4.5,8.2-9.2,16.6-8.6,25.4c0.8,10.5,9.1,20.1,17.2,29.5c0.6,0.7,1.2,1.4,1.8,2.1c-0.2,0.3-0.2,0.7,0.1,1
		c7.8,9.9,6.8,23.5-3,40.4c-1.4,2.5-3,5-4.5,7.5c-2.4,4-4.9,8-7,12.1c1.3-5.2,2.6-10.5,2.9-15.8c1.2-17.6-4.2-31.4-16.3-41.9
		c0.1-0.5,0-1-0.7-1.3c-1.1-0.5-2.1-1.2-3-1.8c-0.3-0.3-0.7-0.5-1.1-0.8c-7.3-5.9-7.6-15.6-5.2-23c1.1-3.5,2.8-7,4.4-10.5
		c2.8-5.9,5.6-12.1,6-18.5c0.6-10-4.7-19.4-9.8-28.4c-1.4-2.5-2.8-4.9-4-7.3c-4.9-9.4-8.6-22.3-0.6-32
		C-231.4,382.8-226.2,386.7-221.1,390.6z M-260.7,340.6c2.7,10.1,6.7,18.4,12.2,25.5c2.9,3.7,6.3,7.1,10,10.4
		c-9.6,10.6-5.6,24.7-0.3,35c1.3,2.5,2.7,4.9,4.1,7.4c5,8.8,10.2,18,9.6,27.4c-0.4,6.1-3,11.8-5.8,17.8c-1.6,3.5-3.3,7.1-4.5,10.7
		c-1.9,5.9-2.2,13.2,1.1,19.3c0,0,0,0,0,0c-4.8-2.2-8.1-5.6-10.1-9.4c-0.6-2-1.4-4-2.3-6c-0.9-3.5-1-7.2-0.7-10.4
		c0.5-3.9,1.5-7.9,2.4-11.7c1.7-6.9,3.5-14,2.4-21.2c-1.1-7.4-5.3-14.2-9.3-20.8c-2.4-3.9-4.8-8-6.6-12.1c-5.9-13.6-4.8-28-3.7-42
		L-260.7,340.6z M-336.7,576.5c18-19.6,18-39.1,17.9-59.7c0-11.9-0.1-24.2,3.3-37.3c6.3-24.2,15-36.3,22.8-46.9
		c7.2-9.9,13.4-18.5,15.9-34.2c3.2-19.7-1.9-32.3-6.3-43.5c-5.6-14.2-10.5-26.6,3.5-49.4c2.4,7.1,5.5,14.1,9.5,20.7
		c1.5,2.5,3.8,5.3,7.5,6.3c0,0.1,0,0.2,0,0.2c-0.7,0.2-1.2,0.5-1.2,1l-2,26.7c-1,13.5-2.2,28.9,3.9,42.9c1.8,4.2,4.3,8.3,6.7,12.3
		c0.1,0.2,0.2,0.4,0.4,0.6c-0.7,0.4-0.9,1.1-0.4,1.6c7,8.4,3.4,20.8-7.6,26.5c-0.1,0-0.1,0.1-0.1,0.2c-0.2,0.1-0.4,0.1-0.6,0.2
		c-12.9,11.1-20.7,26.2-24,46.2c-1.3,8-1.9,16.2-2.4,24.1c-0.5,8.3-1.1,16.8-2.6,25.1c-3,17.4-10,34.5-16.7,51.1
		c-3.7,9.2-7.6,18.7-10.7,28.1c-9.6,28.7-10.6,52.8-3.4,72.1c-0.1-0.1-0.3-0.3-0.4-0.5C-355.1,650.3-359.8,610-336.7,576.5z"/>
	<path id="XMLID_7509_" class="st0" d="M63.5,398c-3.1-19.2,1.8-31.6,6.2-42.5c6-15,11.1-28-4.5-52.7c-0.4-0.6-1.4-0.9-2.3-0.6
		c-0.1,0-0.2,0.2-0.3,0.2c-0.1-0.1-0.2-0.2-0.4-0.2c-0.9-0.2-1.9,0.3-2.1,1c-2.3,7.5-5.7,14.8-9.9,21.9c-1.2,2-3,4.3-5.6,5
		c0,0,0,0,0,0c-0.7-0.1-1.2,0.2-1.6,0.6c-0.4,0.3-0.7,0.6-0.6,1.1c0,0,0.1,0.1,0.1,0.1c-2.5,13.7-6.9,24.3-13.7,33
		c-7,9-17.1,16.6-26.8,24l-18.7,14.1c-0.4,0.3-0.5,0.6-0.5,1c-7.8,8-8.5,18.5-1.8,31.9c1.2,2.4,2.5,4.7,3.8,7.1
		c4.4,7.9,8.9,16.1,8.3,24.3c-0.7,9.8-8.4,18.8-16.6,28.2c-5.3,6.2-10.9,12.6-14.2,19.3c-5.8,11.6-4.9,23.4-2.2,35.2
		c0.8,4.2,1.9,8.3,3.3,12.4c0.1,0.5,0.3,1,0.4,1.5c2.9,9.8,5.8,19.9,5.9,29.8c0,15.5-7.1,30.9-14,45.8c-3.9,8.4-7.9,17.1-10.7,25.8
		c-5.6,17.6-8.8,50.1,32,69.7c0.3,0.1,0.6,0.2,1,0.2c0.4,0,0.8-0.1,1.1-0.4c0,0,0.1,0,0.1,0c0,0,0-0.1,0-0.1c0,0,0.1-0.1,0.1-0.1
		c0.1-0.1,0.1-0.3,0.1-0.4c0.1-0.2,0.2-0.3,0.1-0.5c0-0.2-0.2-0.3-0.3-0.4c-0.1-0.1-0.1-0.3-0.2-0.4c-15.6-10.5-15.6-30.2-14.2-41
		c2.7-20.5,5.5-41.7,14.7-61.4c2-4.3,4.4-8.7,6.7-12.9c6.1-11.3,12.5-22.9,12.9-35.2c0.2-7.3-1.6-14.5-3.4-21.4
		c-1.4-5.6-2.9-11.3-3.3-17c-1-15.9,3.4-28.5,13.4-38.3c-5.3,8.8-3.3,16.4-0.8,26l0.4,1.5c1.3,4.9,3.1,9.8,4.9,14.5
		c3.4,9,6.9,18.3,6.4,27.6c-0.6,11.1-6.8,21.8-12.8,32.1c-1.6,2.7-3.2,5.5-4.7,8.2c-20.7,37.9-23,80.2-6.2,119.1
		c0.2,0.5,0.9,0.9,1.7,0.9c0.2,0,0.3,0,0.5-0.1c0.3-0.1,0.5-0.2,0.7-0.4c0.2,0,0.4,0,0.5-0.1c19.2-11.7,42.2-20.1,66.6-24.5
		c0.1,0,0.2-0.1,0.3-0.1c0.2-0.1,0.4-0.2,0.6-0.3c0.1-0.1,0.2-0.2,0.3-0.3c0-0.1,0.2-0.1,0.2-0.2l1.5-5.6
		c8.3-31.5,16.2-61.3,13.8-92.8c-1.3-16.7-5.4-33.4-9.4-49.6c-4.1-16.8-8.4-34.1-9.5-51.3c-0.3-5.5-0.4-10.9-0.4-16
		c-0.1-10.6-0.1-20.8-2.7-31.2c4.7,8.1,7.9,17.5,9.7,28.5c1.3,7.9,1.8,16.1,2.3,23.9c0.5,8.3,1.1,16.9,2.6,25.3
		c3,17.6,10.1,34.8,16.8,51.5c3.7,9.1,7.6,18.6,10.7,28c11.4,34.2,10.8,61.9-1.9,82.2c0,0.1,0,0.1,0,0.2c-0.1,0.1-0.2,0.3-0.1,0.4
		c0,0.1,0,0.3,0.1,0.4l0,0c0,0,0,0,0,0c0.1,0.2,0.3,0.4,0.5,0.5c0.1,0.1,0.2,0.1,0.3,0.1c0,0,0,0,0.1,0c0,0,0,0,0,0
		c0.2,0.1,0.5,0.1,0.7,0.1c0.1,0,0.3,0,0.4,0c0,0,0,0,0,0c0.1,0,0.1-0.1,0.2-0.1c0.3-0.1,0.5-0.2,0.7-0.4c0.1,0,0.2,0,0.2-0.1
		c0.8-0.9,1.6-1.9,2.4-2.8c6.1-7,7.8-9,8-9.8c30.8-40.8,35.1-81.4,11.6-115.5c-17.4-19-17.4-38.1-17.3-58.3c0-12,0.1-24.4-3.4-37.7
		c-6.4-24.6-15.3-36.9-23.1-47.7C72.1,421.7,66,413.3,63.5,398z M-2.1,396c0.1-0.2,0-0.4,0-0.5l6.5-4.9c9.9-7.5,20.1-15.2,27.4-24.5
		c5.6-7.1,9.5-15.4,12.2-25.5l1.5,20c1.1,14,2.1,28.4-3.7,42c-1.8,4.1-4.2,8.1-6.6,12.1c-4,6.6-8.1,13.4-9.3,20.8
		c-1.1,7.1,0.7,14.3,2.4,21.2c1,3.8,2,7.8,2.4,11.7c0.1,0.5,0,1,0.1,1.5c-1.4-5-4-10.2-7.9-15.7c-3-4.2-6.4-8.3-9.8-12.2
		c-4.2-5-8.6-10.2-12-15.7C-2.9,419.7-8.7,407.1-2.1,396z M-19,620.6c-1.6,3-3.2,6-4.6,9c-9.4,20-12.2,41.4-14.9,62
		c-1.4,10.8-0.9,24.5,7,35.1c-27.9-18.9-24.9-45.7-20.1-60.9c2.7-8.6,6.7-17.2,10.6-25.5c7-15.1,14.3-30.8,14.2-46.7
		c0-4.6-0.7-9.2-1.6-13.9c0.1,0.1,0.1,0.3,0.2,0.4c1.1,1.8,2.3,3.6,3.4,5.5c2.9,4.5,5.9,9.1,7.7,13.9c1.6,4.4,3.5,12.7-2.3,19.6
		C-19.8,619.6-19.6,620.2-19,620.6z M-10.8,544c0.4,5.8,1.9,11.7,3.3,17.3c1.8,6.8,3.6,13.9,3.3,20.9c-0.3,8.7-3.7,17.2-7.9,25.4
		c0-2.8-0.4-5.8-1.6-8.8c-1.9-5-5-9.8-7.9-14.3c-1.2-1.8-2.3-3.6-3.4-5.4c-3.4-5.6-6.1-11.4-8.1-17.3c-1.2-4.1-2.3-8.1-3.2-12
		c-1-5.3-1.6-10.6-1.5-15.9c0-0.4-0.3-0.7-0.6-0.9c0.1-5.9,1.3-11.6,4.2-17.4c3.2-6.4,8.7-12.7,13.9-18.8c8.1-9.3,16.4-19,17.2-29.5
		c0.6-8.7-4.1-17.2-8.6-25.4c-1.3-2.3-2.6-4.7-3.7-7c-6.7-13.3-5.9-23.1,2.3-30.6c0.1-0.1,0.1-0.2,0.1-0.4l6.1-4.6
		c-2.8,8.1-1,17.8,5.2,27.8c3.5,5.6,7.9,10.8,12.2,15.9c3.3,3.9,6.7,8,9.6,12.1c8,11.3,10.5,21.4,7.4,30.1c0,0.1,0.1,0.2,0,0.3
		c-2.1,3.5-5.2,6.5-9.6,8.5c-0.1,0-0.2,0-0.3,0c-0.2,0-0.4,0.1-0.6,0.1c-0.2,0-0.4,0-0.5,0.1C-3.4,505.5-12.3,521.8-10.8,544z
		 M-4.3,732.1c-15.7-37.9-13.3-78.9,6.8-115.7c1.5-2.7,3.1-5.4,4.7-8.2c6.2-10.5,12.5-21.4,13.1-33c0.5-9.7-3.1-19.2-6.5-28.3
		c-1.8-4.7-3.6-9.5-4.8-14.3l-0.4-1.5c-3.4-12.8-5.6-21.4,9.2-34.1c3.4-1.3,6.3-3.1,8.5-5.2c-1.9,12.4,0,25.8,2.2,37
		c1.7,8.8,4.3,17.6,6.8,26.1c2,6.7,4,13.5,5.6,20.4c11.8,50.6-1.2,104.6-36.6,152C1.4,728.8-1.5,730.4-4.3,732.1z M66.8,561.8
		c4,16.1,8.1,32.7,9.3,49.3c2.4,31.2-5.4,60.9-13.7,92.2l-1.3,4.8c-18,3.3-35.2,8.8-50.7,16.1c33.4-46.9,45.4-99.7,33.9-149.4
		c-1.6-6.9-3.6-13.8-5.6-20.5c-2.5-8.5-5.1-17.3-6.8-26c-2.6-13.2-4.7-29.4-0.7-43.1c1-1.9,1.8-4,2.3-6c0,0,0-0.1,0-0.1
		c0,0,0,0,0-0.1c0.9-3.8,1.2-7.7,0.7-11.2c-0.5-4-1.5-8-2.5-11.9c-1.8-7-3.4-13.7-2.4-20.4c0.6-4.2,2.3-8.1,4.4-12
		c-0.9,8.3,2.3,17,9.5,23.5c0.3,0.3,0.9,0.5,1.4,0.5c0.2,0,0.4-0.1,0.7-0.2c2,1.8,3.8,3.7,5.6,5.7c5.8,13.8,5.9,26.9,6,40.8
		c0,5.2,0.1,10.6,0.4,16.2C58.3,527.5,62.6,545,66.8,561.8z M102.1,516.8c0,20.6-0.1,40.1,17.8,59.6c23.2,33.7,18.5,74-12.8,114.6
		c-0.1,0.1-0.3,0.3-0.4,0.5c7.2-19.3,6.2-43.4-3.4-72.1c-3.2-9.4-7-18.9-10.7-28.1c-6.7-16.6-13.7-33.7-16.7-51.1
		c-1.4-8.3-2-16.9-2.6-25.1c-0.5-7.9-1.1-16.1-2.4-24.1c-3.3-20-11.1-35.1-24-46.2c-0.5-0.4-1.2-0.4-1.9-0.3
		c-9.5-9.6-10.5-23.5-2-33.6c0.5-0.6,0.2-1.4-0.6-1.7c0,0-0.1,0-0.1,0c1-1.9,2.1-3.8,2.9-5.7c6.1-14,4.9-29.3,3.9-42.9l-2-26.7
		c0-0.5-0.6-0.9-1.2-1c0-0.1,0-0.2,0-0.2c3.8-1,6-3.8,7.5-6.3c4-6.7,7.1-13.7,9.5-20.7c13.9,22.8,9.1,35.2,3.5,49.4
		c-4.4,11.2-9.5,23.8-6.3,43.5c2.5,15.7,8.7,24.3,16,34.2c7.7,10.6,16.5,22.7,22.8,46.9C102.2,492.6,102.1,504.9,102.1,516.8z"/>
	<path id="XMLID_7497_" class="st0" d="M-293.8,241c-0.1,0.6,0.5,1.1,1.2,1.2c2,4.6,4.2,9.2,6.9,13.7c0.2,0.3,0.6,0.5,1,0.6
		c0.1,0.1,0.1,0.2,0.2,0.2c0.8,0.4,1.9,0.3,2.5-0.2c1.6-1.5,4.1-2.3,6.2-2c1.9,0.3,3.6,1.5,4.6,3.1c0.8,1.3,1.1,2.9,1.3,4.4
		c0,0.3,0,0.6,0,0.9c0,0.7,0.8,1.2,1.7,1.2c0,0,0.1,0,0.1,0c0,0,0,0,0,0c0,0,0,0,0,0c0.1,0,0.1,0,0.2,0c1-0.1,1.7-0.7,1.6-1.4
		c0-0.3-0.1-0.6-0.2-0.9c-0.8-13,0.4-26,3.5-38.7c0,4.5,0.2,9,0.7,13.5c0,0.1,0.1,0.2,0.2,0.3c0,0.1,0,0.2,0.1,0.3
		c0.1,0.1,0.2,0.1,0.2,0.2c0.1,0.1,0.1,0.1,0.2,0.2c0.3,0.2,0.7,0.3,1,0.3c0,0,0.1,0,0.1,0c0.1,0,0.1,0,0.1,0c0.2,0,0.4,0,0.6-0.1
		c85.2-36,214.4-38,307.3-4.9c0.1,0,0.2,0,0.3,0c1.6,9.7,2.2,19.4,1.6,29.2c0,0.3-0.1,0.6-0.2,0.9c-0.1,0.7,0.6,1.3,1.6,1.4
		c0.1,0,0.1,0,0.2,0c0,0,0,0,0,0c0,0,0,0,0,0c0,0,0.1,0,0.1,0c0.9,0,1.7-0.5,1.7-1.2c0-0.3,0-0.6,0-0.9c0.2-1.5,0.5-3,1.3-4.4
		c1-1.6,2.7-2.8,4.6-3.1c2.1-0.3,4.6,0.4,6.2,2c0.6,0.6,1.7,0.7,2.5,0.2c0.1-0.1,0.1-0.1,0.2-0.2c0.4-0.1,0.8-0.3,1-0.6
		c23.1-38.1,19.5-79-10.1-115.2C33.3,109.5-8.8,85.9-56.7,74.6c-0.1,0-0.1,0-0.2-0.1c0,0-0.1,0-0.1,0c-14.3-3.3-29.1-5.6-44.2-6.6
		c-0.3-0.3-0.7-0.6-1.4-0.6c-11.3,0.2-22.5,1.2-33.5,2.7c0,0-0.1-0.1-0.1-0.1c-0.6-0.2-1.3,0-1.7,0.3c-52.5,7.5-100.2,29-129.6,59.3
		c-31.4,32.3-40.6,73.2-26,110.3C-293.6,240.3-293.7,240.6-293.8,241z M-262.3,212.2c-0.6,0.1-1.2,0.4-1.4,0.9
		c-4.3,13.6-6.3,27.5-6.3,41.4c-1.4-1.2-3.1-2-5-2.3c-2.7-0.4-5.7,0.2-8.1,1.7c-2.7-4.6-5.1-9.3-7-14.1c6.2-43.7,29.6-86.1,66.3-121
		c-2.1,3-4.1,6.1-5.8,9.2c-0.1,0.2-0.1,0.5,0,0.7C-249,154.9-260,183.4-262.3,212.2z M-258.8,234.5c-3-35.8,8.1-72,32.3-104.7
		c0.2-0.3,0.3-0.7,0.1-1c0,0,0,0,0,0c7.5-14,19.7-26.4,35-36.3c-35.4,37.3-48.3,85.8-33.3,129.9c0,0.1,0.2,0.2,0.3,0.3
		C-236.4,226.1-247.9,230.1-258.8,234.5z M-9.8,214.9c26.1-34.5,25.6-77.9-0.7-112.2c8.8,7.5,16.3,16.1,22.6,26.2
		c18.6,36,27.5,58.6,32,83.7c-0.4,0.3-0.7,0.7-0.5,1.1c0.7,2.2,1.2,4.4,1.8,6.7c0.4,3,0.8,6.1,1.1,9.3
		C28.8,223.5,9.9,218.6-9.8,214.9z M79.4,191.7c3.3,20.7-1,41.8-13,62.1c-2.3-1.4-5.3-2.1-8.1-1.7c-1.9,0.3-3.6,1.2-5,2.3
		c0-11.6-1.5-23.2-4.5-34.6c-4.1-28.6-12.8-52.1-33.4-91.9c0,0,0,0,0,0c0,0,0,0,0,0c-1.5-2.4-3.1-4.6-4.7-6.8
		c32.2,17.3,56.1,41.9,67.6,69.9C78.4,191.3,78.9,191.5,79.4,191.7z M55.9,142c9.8,12,16.6,24.5,20.6,37.3
		c-13.7-25.3-37.6-47.4-68.6-63c-0.3-0.1-0.7-0.2-1-0.2C-4,102.7-17.4,92-34.2,83.7C3,96.2,35,116.6,55.9,142z M-58,77
		c16.3,5.4,30,12.2,41.6,20.9c-0.8,0.4-1,1.1-0.5,1.7c29.2,34.3,30.7,79.2,3.8,114.5c-0.1,0.1,0,0.2,0,0.3c-4-0.7-8.1-1.4-12.2-2.1
		c0.1-0.1,0.2-0.2,0.2-0.4c-1.3-22.7-9-98.7-53.3-138.9C-71.6,74.1-64.8,75.4-58,77z M-103.9,70c0.3,0.2,0.6,0.4,1.1,0.4
		c6.4,0.4,12.7,1.1,19,1.9c45.8,38.8,53.8,116.3,55.1,139.5c-1.8-0.3-3.6-0.4-5.5-0.7c-0.1-0.2-0.1-0.4-0.3-0.5
		c-47.8-39.4-80.2-87.4-93.8-138.9C-120.2,70.8-112,70.2-103.9,70z M-136.9,74.9c1.6-1.3,2.8-2.1,3.6-2.3c0.2,0,0.2-0.2,0.3-0.2
		c0.5-0.1,0.9-0.1,1.4-0.2l0,0c13.5,51.2,45.5,99,92.6,138.4c-49.5-6-101.7-4.7-149.1,3.9c0-0.1,0.1-0.2,0.1-0.3
		c-8.5-61.8,25.2-112.3,43.9-132.4c-19.2,40.3-23.5,84.8-12,126.6c0.2,0.6,0.9,1,1.7,1c0.1,0,0.2,0,0.3,0c0.9-0.1,1.6-0.8,1.4-1.5
		C-164.8,163.9-159.2,116.8-136.9,74.9z M-158.3,76.9c0.2-0.1,0.3-0.2,0.4-0.3c6-1.3,12-2.5,18.1-3.4c0,0.1-0.1,0.1-0.1,0.2
		c-17.8,14-61.3,71-51.7,141.1c0,0.2,0.2,0.4,0.4,0.6c-10.4,2-20.4,4.3-30.2,7c0,0,0-0.1,0-0.1c-15.7-46.5-0.1-98,40.7-135.6
		C-173.6,82.6-166.2,79.5-158.3,76.9z M-264.7,131c20.4-21,49.8-37.7,83.5-48.3c-0.6,0.6-1.2,1.1-1.8,1.7
		c-11.9,6.3-22.2,14-30.8,22.7c-0.7-0.2-1.4-0.1-1.9,0.3c-41.4,35.2-68.4,79.5-76.7,125.4C-303.4,198.2-293.7,160.8-264.7,131z"/>
</g>
</svg>
