<?xml version="1.0" encoding="utf-8"?>
<!-- Generator: Adobe Illustrator 19.0.0, SVG Export Plug-In . SVG Version: 6.00 Build 0)  -->
<svg version="1.1" id="Layer_1" xmlns="http://www.w3.org/2000/svg" xmlns:xlink="http://www.w3.org/1999/xlink" x="0px" y="0px"
	 viewBox="-180 -23 598 606" enable-background="new -180 -23 598 606" xml:space="preserve">
<g id="XMLID_2222_">
	<path id="XMLID_4558_" fill="#EF7B05" d="M320.9,273.4c0.6-9.6,10.2-19.2,9.6-28.9c-0.5-9.6-11.1-17.8-12.9-27.2
		c-1.8-9.5,5-21.8,2-30.8c-3-9.1-15.3-13.1-19.6-21.4c-4.4-8.3-1.8-22.5-7.5-29.7c-5.7-7.1-18.3-5.6-25.3-11.2
		c-4.3-3.5-3.9-15.9-9-19.1c-4.7-2.9-13.9,4-19.1,1.5c-5-2.4-6.8-14.8-12.1-16.8c-5.2-2-13.2,6.7-18.6,5.3
		c-5.4-1.4-9.2-13.2-14.6-14c-5.6-0.8-11.8,9.5-17.2,9.4c-5.7-0.1-11.8-10.5-17.1-9.7c-6.6,1-6.1,11.2-11.6,13.4
		c-6.1,2.4-12.6-8.8-18.8-2.1c-2.6,2.8-0.2,9.9-6.9,7.8c-3-0.9-5.2-6.9-6.5-10.2c-7-1.8-8.9,7.3-14.7,3.2
		c-4.2-2.9-4.9-11.2-10.7-12.1c-5.4-0.8-11.5,9.6-17.1,9.7c-5.4,0.1-11.7-10.2-17.2-9.4c-5.4,0.8-9.2,12.6-14.6,14
		c-5.4,1.4-13.3-7.3-18.6-5.3s-7.1,14.3-12.1,16.8c-5.2,2.5-14.4-4.4-19.1-1.5c-5.1,3.2-4.7,15.6-9,19.1c-7,5.7-19.7,4.2-25.3,11.2
		c-5.7,7.2-3.1,21.4-7.5,29.7c-4.3,8.2-16.6,12.3-19.6,21.4c-3,9,3.7,21.3,2,30.8c-1.8,9.4-12.3,17.6-12.9,27.2
		c-0.5,9.7,9,19.3,9.6,28.9c0.6,9.7-7.5,20.9-5.7,30.2c0.9,4.7,4.2,8.6,7.7,12.4c-0.9,1-1.8,2-2.8,3.6c-0.6,0.9-1.2,2.1-1.6,3.9
		c-0.1,0.4-0.1,1-0.2,1.5v0.8c-0.1-0.6,0.1,1.2,0.1,1.1v0.1l0.1,0.5c0,0,0.1,0.3,0.2,0.6c0.1,0.3,0.2,0.5,0.3,0.8
		c0.2,0.5,0.5,1.1,0.7,1.4l0.5,0.8c0.4,0.6,0.7,0.8,1.1,1.2c0.7,0.7,1.3,1.2,2,1.7c1.2,0.9,2.4,1.7,3.4,2.4c0.8,0.6,1.6,1.1,2.2,1.6
		c-0.1,0.1-0.2,0.2-0.3,0.4c-0.6,0.8-1.4,1.6-2.2,2.5c-0.8,0.9-1.7,1.8-2.7,2.9c-0.2,0.3-0.5,0.6-0.7,0.9s-0.5,0.7-0.8,1.1l-0.4,0.7
		c-0.1,0.3-0.3,0.6-0.4,0.9c-0.2,0.5-0.5,1.5-0.5,2.4c-0.1-0.6,0.1,1.2,0.1,1.1v0.1v0.2l0.1,0.3c0.1,0.3,0.2,0.6,0.3,0.9
		c0.2,0.6,0.5,1.2,0.8,1.5l0.6,0.7c0.8,0.8,1.4,1.3,2.1,1.7c1.2,0.8,2.3,1.2,3.4,1.7c1,0.5,2,0.9,2.8,1.3c0.1,0,0.1,0.1,0.2,0.1
		c-0.4,0.7-1,1.4-1.6,2.1c-0.7,0.9-1.3,1.7-2,2.5c-0.7,1-1.4,1.7-2.1,3.6c-0.1,0.3-0.2,0.6-0.2,0.9l-0.1,0.5c0,0.2,0,0.4,0,0.6
		s0,0.4,0.1,0.6l0.1,0.3c0,0,0.4,1,0.2,0.6l0.2,0.3l0.1,0.2l0.3,0.4c0.2,0.3,0.4,0.5,0.6,0.7c0.5,0.4,0.6,0.5,0.9,0.7
		c1.1,0.7,2.1,1,3,1.3c1.8,0.6,3.5,1,4.9,1.5c0.4,0.1,0.8,0.3,1.2,0.5c-0.2,0.2-0.5,0.3-0.7,0.5c-0.6,0.4-1.2,0.7-1.9,1
		c-1.3,0.6-2.5,1.2-3.7,2c-0.6,0.4-1.2,0.8-1.7,1.3c-0.3,0.3-0.5,0.6-0.8,1l-0.2,0.3l-0.1,0.2v0.1c-0.1,0.4,0,0.2-0.1,0.3l-0.1,0.5
		c0,1.3,0.3,1.7,0.5,2.4c0.2,0.6,0.5,1.1,0.7,1.6c1,2,1.9,3.5,2.5,4.9c0.6,1.3,0.9,2.5,0.8,3.2c0,0.4-0.1,0.7-0.2,0.8
		c-0.1,0.2-0.1,0.3-0.1,0.3s0.1-0.1,0.2-0.2c0.1-0.2,0.3-0.4,0.3-0.8c0.2-0.8,0.1-2-0.4-3.5c-0.4-1.5-1.1-3.3-1.8-5.3
		c-0.2-0.5-0.3-1-0.5-1.6c-0.2-0.5-0.2-1.2-0.2-1.2c0.1-0.6,1-1.2,2.1-1.7s2.3-0.9,3.7-1.3c0.7-0.2,1.4-0.5,2.1-0.8s1.5-0.6,2.5-1.5
		c0.2-0.1,0.6-0.7,0.8-1.3c0.1-0.1,0.1-0.3,0.1-0.4v-0.2l0.1-0.3c0-0.9,0-0.4,0-0.6v-0.2l-0.1-0.4c-0.1-0.3-0.2-0.6-0.3-0.7
		c-0.2-0.3-0.5-0.8-0.7-1c-1-1-1.8-1.3-2.6-1.7c-1.6-0.8-3.3-1.4-4.8-2.1c-0.6-0.2-1-0.5-1.5-0.8c0.2-0.3,0.5-0.6,0.8-0.9
		c0.7-0.7,1.4-1.4,2.1-2.1c0.6-0.6,1.1-1.2,1.7-1.9c0,0.5,0,0.9,0.1,1.5l0.2,1.1l0.1,0.5c0.1,0.3-0.1-0.3,0.2,0.7l0.1,0.1l0.4,0.9
		c0.3,0.6,0.7,1.2,1.1,1.8c1.3,1.7,2.5,2.6,3.6,3.5c1.1,0.8,2.2,1.5,3.2,2.1c1.3,0.8,2.5,1.5,3.6,2.2c0.2,1.7,0.6,3.1,1.5,4.2
		l0.1,0.1c-0.5,0.8-1.1,1.6-1.6,2.4c-2.2,3-4.9,5.8-6.1,9.9l-0.1,0.4v0.1c0-0.2-0.1,0.3-0.1,0.3v0.2l-0.1,0.6c0,0.5,0,1.2,0,1.7
		c0.1,0.9,0.3,1.8,0.5,2.6c0.4,1.5,0.9,2.8,1.4,4c0.9,2.4,1.5,4.4,1.8,6.1s0.2,3-0.1,3.9c-0.3,0.8-0.5,1.3-0.5,1.3s0.3-0.4,0.7-1.2
		c0.4-0.8,0.9-2.2,0.9-4.1c0.1-1.9-0.2-4.2-0.7-6.8c-0.2-1.3-0.4-2.7-0.6-4.1c-0.1-0.7-0.1-1.4-0.1-2c0.1-0.3,0-0.3,0.1-0.7l0.1-0.6
		v-0.2c0-0.1-0.1,0.4,0,0.2v-0.1l0.1-0.2c1-2.2,3.6-4.3,6.4-7c1.1-1.1,2.4-2.2,3.6-4.1c0.2,0,0.3,0.1,0.5,0.1c0,0,0,0-0.1,0.1
		c-0.2,0.3-0.6,0.9-0.8,1.4c-0.1,0.3-0.2,0.5-0.4,0.8c-0.1,0.4-0.3,0.9-0.3,1.3c-0.1,0.4-0.2,0.9-0.2,1.3c0,0.1,0.1,1.9,0,1.2v0.1
		l0.1,0.5l0.1,0.7c0.1,0.3,0.1,0.6,0.2,0.9c0.2,0.6,0.4,1.3,0.6,1.7c0.3,0.6,0.7,1.3,1,1.7c0.3,0.4,0.7,0.9,1,1.3l1,1
		c1.2,1.1,2.3,2,3.3,2.7c1,0.8,1.9,1.4,2.6,2c0.1,0.1,0.1,0.1,0.2,0.1c-0.3,0.6-0.7,1.2-1.2,1.8c-1.3,1.9-2.9,3.6-4.4,6.8
		c-0.2,0.5-0.4,1-0.5,1.5c-0.2,0.6-0.3,1.3-0.3,1.9c0,0.4,0,0.8,0,1.2l0.1,0.6v0.3c0,0,0.3,1.4,0.2,0.8l0.2,0.4l0.1,0.2l0.2,0.4
		c0.3,0.7,0.8,1.5,1.2,1.9c0.3,0.3,0.6,0.7,1,0.9c0.6,0.5,1.2,0.9,1.7,1.2c2.2,1.3,4,1.9,5.6,2.6c0.8,0.4,1.5,0.7,2.1,1.1
		c0.6,0.3,0.9,0.7,0.8,0.5l0,0l0,0c0,0,0,0,0-0.1l0,0v0.2c0,0,0,0,0,0.1l0,0c0,0,0,0,0-0.1v0.1V429c0,0.1,0,0.2,0,0.3
		c-0.2,0.6-0.4,1.3-0.8,2c-1.4,3-3.5,5.6-4.3,9.5c-0.1,1-0.2,2.3,0.3,3.3c0.1,0.2,0.5,0.9,0.8,1.3s0.6,0.6,0.9,0.9
		c1.2,0.9,2.3,1.3,3.2,1.8c2,0.8,3.6,1.5,4.9,2.1c1.3,0.7,2.2,1.4,2.6,2c0.5,0.6,0.5,1.1,0.6,1.1c0,0,0-0.5-0.3-1.2
		c-0.3-0.8-1.1-1.8-2.3-2.8s-2.8-2-4.5-3.2c-0.8-0.6-1.8-1.3-2.5-2.1c-0.1-0.2-0.4-0.4-0.4-0.6s-0.1,0-0.2-0.5c-0.1-0.3,0-0.6,0.1-1
		c0.3-0.9,1.1-2.1,2-3.3c0.9-1.2,2-2.5,3.1-4c0.6-0.8,1.1-1.7,1.6-2.8c0.2-0.7,0.5-1.1,0.6-2.4c0-0.3,0-0.6,0.1-0.8v-0.4v-0.4
		c0.1,0.4-0.1-0.6-0.1-0.6l-0.1-0.2l-0.1-0.4c-0.7-2-1.8-3-2.7-3.8s-1.8-1.4-2.7-2c-1.7-1.1-3.5-2.1-4.7-3.1c-0.1,0-0.1-0.1-0.2-0.1
		c0.7-0.9,2.1-2.5,3.6-4.1c0.8-0.9,1.7-2,2.7-3.4c0.4-0.6,0.8-1.3,1.2-2.3c0.4,0.8,0.9,1.5,1.5,2c1.3,1.1,3.1,1.4,5,1.3
		c-0.5,1.5-1.3,3.1-2,5.1c-0.4,1.2-0.9,2.6-1.2,4.3l-0.2,1.4c0,0.5,0,1.1,0,1.7c0,0.5,0.2,1.3,0.4,1.9l0.1,0.5l0.1,0.2
		c0.5,1.3,0.2,0.4,0.3,0.7l0.2,0.3l0.2,0.3c0.2,0.3,0.4,0.6,0.6,0.8c0.4,0.5,1,1.1,1.2,1.3l0.9,0.7l0.9,0.5c1.1,0.7,2.1,1,3.1,1.4
		c1.9,0.7,3.5,1.1,4.9,1.7c0.7,0.3,1.3,0.5,1.6,0.7c0.4,0.2,0.3,0.3,0.3-0.3l0.1,0.6c0,0,0,0.1,0,0.2c-0.1,0.5-0.3,1.1-0.7,1.7
		c-0.6,1.2-1.5,2.6-2.3,3.9s-1.6,2.6-2.3,4.2c-0.3,0.8-0.6,1.7-0.8,2.7v0.8v0.1c0-0.2,0,0.3,0,0.3v0.1v0.2l0.1,0.5l0.2,0.7
		c0.5,1.7,1.2,2.7,1.8,3.7s1.2,1.8,1.8,2.6c1.1,1.6,2,2.9,2.6,4.1c0.5,1.2,0.8,2.2,0.7,2.9c-0.1,0.7-0.3,1-0.3,1s0.2-0.3,0.5-1
		s0.3-1.9,0-3.3s-1-3.1-1.7-4.9c-0.4-0.9-0.8-1.9-1.2-2.9s-0.8-2.2-0.9-3v-0.3v-0.5v-0.3v-0.1c0-0.1,0,0.4,0,0.2l0,0
		c0-0.1,0.1-0.1,0.1-0.2c0.1-0.3,0.3-0.7,0.6-1.2c0.6-0.9,1.5-1.9,2.5-3s2.1-2.2,3.2-3.7c0.6-0.7,1.1-1.6,1.6-2.8
		c0.1-0.3,0.2-0.6,0.3-1c0.1-0.3,0.2-0.6,0.3-1c1.1,0.5,1.9,0.8,2.6,1.1c-0.1,0.8-0.3,1.6-0.5,2.5c-0.4,2.5-1.3,5.2-0.9,9.9
		c0.2,1.3,0.4,2.6,1.1,4.1c0.2,0.4,0.3,0.7,0.5,1c0-0.1,0.9,1.6,0.5,0.9l0.1,0.1l0.1,0.2l0.9,1c0.6,0.6,1.3,1.3,1.8,1.6l1.2,0.7
		c0.8,0.4,1.5,0.7,2.1,0.9c2.6,0.8,4.5,1,6.2,1.3c1.7,0.2,3.2,0.5,3.6,0.6c0.3,0,0-0.1-0.2-0.9l0.3,0.6c-0.1-0.1-0.1-0.3-0.1-0.5
		c0-0.1,0-0.2,0-0.2v0.1c0,0.1,0,0.1,0.1,0.2c0.1,0.8-0.1,2.4-0.4,3.9c-0.3,1.6-0.7,3.2-1,4.9c-0.3,1.7-0.6,3.6-0.3,5.9
		c0,0.5,0.3,1.2,0.5,1.8l0.1,0.2c0.2,0.6,0.1,0.2,0.1,0.3v0.1l0.1,0.2l0.3,0.4c0.5,0.7,1.3,1.7,1.8,2.1c2.3,1.9,4.2,2.7,5.9,3.5
		s3.1,1.4,4.1,2.1s1.8,1.3,2,1.9c0.3,0.6,0.3,1,0.4,1c0,0,0.1-0.4,0-1.1c-0.1-0.8-0.6-1.8-1.5-2.9s-2.1-2.3-3.4-3.6
		c-1.3-1.3-3-2.9-4-4.6c-0.3-0.5-0.3-0.6-0.5-1l-0.2-0.5l-0.1-0.2v-0.1c0,0.1-0.1-0.3,0.1,0.2l0,0c0.1-0.1,0-0.1,0.1-0.3
		c0.1-0.5,0.5-1.7,1.1-2.9c0.6-1.4,1.3-2.8,2-4.3c0.7-1.7,1.5-3.4,2-6.2l0.1-1.2v-0.6c0-0.2,0-0.6-0.1-0.9c-0.1-0.6-0.2-1.2-0.3-1.8
		l0,0c0.5,0.4,1,0.7,1.5,1s0.8,0.4,1.2,0.6c1.6,0.7,2.6,0.9,3.7,1.2c0.6,0.1,1.1,0.2,1.6,0.3c-0.4,0.9-0.7,1.8-1.1,2.9
		c-0.3,1.2-0.8,2.3-0.8,4.6v0.8c0,0.3,0.1,0.7,0.1,1c0.1,0.3,0.1,0.7,0.2,1l0.1,0.5c-0.3-0.7,0.5,1.2,0.4,1v0.1l0.3,0.4l0.5,0.7
		c0.2,0.3,0.4,0.5,0.6,0.8c0.2,0.2,0.4,0.5,0.7,0.7c0.2,0.2,0.3,0.2,0.4,0.3l0.8,0.5c0.5,0.3,0.9,0.5,1.4,0.7
		c0.8,0.3,1.6,0.5,2.2,0.7c2.7,0.6,4.9,0.9,6.2,1.2c0.2,0,0.3,0.1,0.4,0.1c-0.7,1.4-1.7,2.8-2.5,4.1c-0.8,1.3-1.6,2.4-2,3.4
		c-0.5,1-0.7,1.9-0.8,2.5c0,0.6,0,0.9,0,0.9s0.1-0.3,0.3-0.7c0.3-0.4,0.7-1,1.5-1.6c0.7-0.6,1.7-1.2,2.9-2c0.3-0.2,0.6-0.4,0.9-0.5
		c-0.1-5.1-0.3-10.3-0.6-15.2c-0.7-0.4-1.4-0.8-2.1-1.2c0.5-0.6,1-1.2,1.4-1.9c0.1-0.2,0.3-0.4,0.4-0.6c-0.5-7.7-1.2-14.7-2.3-20.2
		l-0.1-0.1l0.1-0.1c-0.1-0.5-0.2-1.1-0.3-1.6l0.3-0.3c-9.8-11.3-18.4-24-22.1-36.7c-1.6-5.6-4.1-14.3-6.8-26
		c-7.3-11.1-23.6-39-21.3-49.9c2.2-10.8,9.6-16.6,9.6-16.6l1-0.1c-0.3-2.6-0.5-5.4-0.8-8.1c3.1-6.8,5.9-15.7,6.3-17.8
		c2.3-13.9-4.2-28.3-2.2-32c2.2-4.1,7.7-5.2,12.7-6.8c0.4,0.5,0.8,0.9,1.2,1.4c0.5,0.6,0.9,1.1,1.2,1.6c-0.4,0.5-1,1-1.6,1.5
		c-1.1,0.9-2.1,1.8-3.2,2.7c-1.1,1-2.4,2.1-3.7,4.2c-0.3,0.4-0.6,1.3-0.9,1.9c-0.1,0.4-0.2,0.8-0.3,1.3l-0.1,0.7v0.3
		c0,1.4,0,0.5,0,0.8v0.5c0,0,0,0.3,0.1,0.6l0.2,0.8c0.1,0.5,0.3,1.1,0.4,1.4l0.4,0.8c1,1.9,2,3,2.9,4.1c1.8,2,3.5,3.8,4.3,5.3
		c0.4,0.6,0.4,1.2,0.5,0.8v0.2l-0.1,0.1c-0.1,0.2-0.4,0.6-0.7,1c-1.3,1.5-3.1,3-4.9,4.8c-0.9,0.9-1.8,1.9-2.7,3.2
		c-0.4,0.7-0.9,1.5-1.2,2.5c-0.2,0.4-0.2,1.1-0.3,1.6v0.2c0,0.3,0-0.3,0,0.6v0.2l0.1,0.4v0.2l0.1,0.4c0.1,0.3,0.2,0.6,0.3,0.9
		c0.2,0.7,0.4,0.9,0.6,1.3c0.4,0.8,0.8,1.3,1.2,1.8c0.8,1,1.6,1.8,2.4,2.6c1.6,1.5,3.1,2.7,4.2,4c0.5,0.6,1,1.3,1.2,1.7
		c0.1,0.1,0.1,0.2,0.1,0.3v0.1c0-0.1,0,0,0,0l0,0c0,0.2,0,0.6,0,0.7s-0.1,0.1-0.1,0.2c-0.3,1.2-1.2,2.8-2.1,4.2
		c-0.9,1.4-1.9,2.8-2.8,4.2c-0.8,1.5-1.8,2.9-1.9,5c0,0.2,0,0.5,0,0.8c0.1,0.3,0,0.4,0.2,0.9c0.2,0.4,0.2,0.6,0.5,1
		c0.5,0.9,1.1,1.4,1.7,1.8c1.2,0.8,2.3,1.2,3.3,1.5c2.1,0.6,3.8,0.9,5.1,1.3c2.8,0.6,3.9,1.9,3.9,1.9s-0.2-0.4-0.8-0.9
		s-1.6-1.1-2.9-1.7c-1.3-0.6-3-1.2-4.9-2.1c-0.9-0.4-1.9-1-2.7-1.7c-0.4-0.3-0.7-0.8-0.9-1.1c-0.1-0.1-0.2-0.6-0.3-0.9
		c0.1,0,0-0.3,0.1-0.5c0.2-0.9,1-2.1,1.9-3.3c0.9-1.2,2-2.4,3.1-3.7c1.1-1.4,2.4-2.8,3.3-5.3c0.1-0.4,0.2-0.8,0.3-1.2
		c0.1-0.4,0.1-0.5,0.1-0.8v-0.2v-0.1c0-0.6,0-0.2,0-0.4l-0.1-0.6c0-0.4-0.1-0.8-0.3-1.2c-0.4-1.5-1.1-2.5-1.8-3.4
		c-1.3-1.8-2.8-3.3-4.1-4.8c-0.6-0.8-1.3-1.5-1.7-2.2c-0.2-0.3-0.5-0.7-0.5-1c0-0.1-0.1-0.1-0.1-0.2l0,0l0,0v-0.2v-0.2
		c0,0,0-0.1,0,0l0,0c0.1,0,0,0,0.1-0.1s0.1-0.1,0.1-0.2c0.1-0.1,0.2-0.2,0.3-0.4c0.5-0.6,1.1-1.2,1.9-1.9c1.6-1.4,3.5-2.6,5.6-4.7
		c0.5-0.6,1.1-1.1,1.6-1.9l0.4-0.6c0.2-0.3,0.3-0.7,0.5-1c0.1-0.3,0.3-0.8,0.4-1.1l0.1-0.5c0.6-3.1-0.3-5.1-1-6.8
		c-1.6-3.2-3.4-5.2-4.9-7.2c-0.5-0.7-0.9-1.3-1.3-1.9c0.4-0.4,0.9-0.8,1.5-1.3c1.1-0.8,2.1-1.6,3.2-2.4c1.2-0.9,2.4-1.8,3.9-3.6
		l0.5-0.8l0.3-0.4c0.1-0.2,0.2-0.4,0.4-0.7c0.2-0.5,0.4-1,0.6-1.5c0.1-0.3,0.1-0.3,0.1-0.4l0.1-0.3l0.1-0.3c0.1-0.4-0.1,0.6,0.1-0.9
		v-0.4c0-0.5,0-1,0-1.5c-0.1-0.9-0.3-1.7-0.5-2.4c-0.9-2.6-2-3.9-2.9-5.3c1.6-2.6,2.5-6.1,3.4-9.6c0.3-0.2,0.6-0.5,0.9-0.8
		c0.4-0.4,0.9-0.9,1.3-1.5c0.2-0.2,0.5-0.7,0.8-1.3c0.3-0.5,0.6-1.3,0.7-1.6l0.2-0.6v-0.1c0,0.2,0.4-1.7,0.2-1.1l0.1-0.9
		c0-0.8,0-1.4-0.1-1.9c0.4-0.4,0.8-0.8,1.2-1.2c5.6-4.1,16.1,1.8,22.2-1.3c6.1-3.2,8.9-16,15.2-18.3c6.6-2.5,15.7,5.9,21.9,4.3
		c5.2-1.4,9.1-13.2,15.2-14.5c5.6-1.2,13.5,8,19.2,6.4c5.8-1.6,8.7-13.8,14-16c5.7-2.4,15.5,4,20,0.4c4.4-3.5,2.4-9.9,3.1-14.8
		c1-6.9,5.5-1.7,9.2-5.9c0.6-0.7,1.1-1.4,1.5-2.2c-0.3,5-3.4,8.8-1,14.4c1.3,3.2,11.3,1.4,13.1,4.8c1.6,3-4.7,12-2.7,15.2
		c1.8,3,11.6-0.2,13.9,3.1c2,3-3.3,12.7-1.1,15.9c2.1,3.1,11.9-0.3,13.9,2.8c2.1,3.2-3.7,12.6-1.9,15.8c2,3.5,12.1,1.8,13.4,5.1
		c1.3,3.3-6.7,11-6,16.2c0.5,3.3,3.6,3.4,5.4,4.9c2.2,1.9,2.7,4.8,2.7,7.9c0,2.6-0.7,5-2,7.1s-4,3.6-3.9,6.6
		c0.1,3.3,3.7,4.8,4.3,7.8c0.7,3.4-0.6,9.8-0.5,13.7c0.1,4.1,0.4,6.2,2.5,8.2c-0.1,1.2-0.2,2.4-0.3,3.5l1,0.1c0,0,7.3,5.8,9.6,16.6
		c2.3,10.9-14,38.8-21.3,49.9c-2.7,11.7-5.1,20.4-6.8,26c-3.7,12.7-12.4,25.4-22.1,36.7l0.3,0.3c-0.1,0.3-0.1,0.6-0.2,0.9v0.1
		l0.5,0.7c-0.3,0.1-0.5,0.3-0.8,0.5c-1,5.2-1.7,11.8-2.2,19.1c0.3,0.5,0.7,0.9,1,1.3c0.5,0.6,1,1.2,1.4,1.9c-0.9,0.5-1.8,1-2.7,1.6
		c-0.2,4.7-0.4,9.6-0.5,14.5c0.5,0.3,1,0.6,1.5,0.9c1.2,0.7,2.2,1.4,2.9,2c0.7,0.6,1.2,1.1,1.5,1.6c0.2,0.5,0.3,0.7,0.3,0.7
		s0-0.3,0-0.9c-0.1-0.6-0.3-1.5-0.8-2.5s-1.2-2.1-2-3.4c-0.8-1.2-1.8-2.6-2.5-4.1c0.1,0,0.2,0,0.4-0.1c1.3-0.3,3.5-0.6,6.2-1.2
		c0.7-0.2,1.4-0.4,2.2-0.7c0.5-0.2,0.9-0.4,1.4-0.7l0.8-0.5c0.2-0.1,0.2-0.1,0.4-0.3c0.2-0.2,0.5-0.4,0.7-0.7
		c0.2-0.2,0.4-0.5,0.6-0.8l0.5-0.7l0.3-0.4v-0.1c-0.1,0.2,0.7-1.7,0.4-1l0.1-0.5c0.1-0.3,0.2-0.7,0.2-1c0.1-0.3,0.1-0.7,0.1-1v-0.8
		c0-2.3-0.5-3.4-0.8-4.6c-0.4-1.1-0.7-2.1-1.1-2.9c0.5-0.1,1.1-0.2,1.6-0.3c1-0.2,2.1-0.5,3.7-1.2c0.4-0.2,0.8-0.3,1.2-0.6
		c0.5-0.3,1-0.7,1.5-1l0,0c-0.1,0.6-0.2,1.2-0.3,1.8c0,0.3-0.1,0.7-0.1,0.9v0.6l0.1,1.2c0.4,2.8,1.3,4.6,2,6.2
		c0.7,1.5,1.3,2.9,2,4.3c0.6,1.2,0.9,2.4,1.1,2.9c0.1,0.2,0,0.1,0.1,0.3l0,0c0.2-0.5,0.1-0.1,0.1-0.2v0.1l-0.1,0.2l-0.2,0.5
		c-0.2,0.4-0.1,0.5-0.5,1c-1,1.7-2.7,3.2-4,4.6c-1.4,1.3-2.6,2.5-3.4,3.6c-0.9,1.1-1.4,2.1-1.5,2.9s0,1.1,0,1.1s0.1-0.4,0.4-1
		s1-1.2,2-1.9c1-0.7,2.4-1.3,4.1-2.1c1.7-0.8,3.7-1.6,5.9-3.5c0.5-0.4,1.3-1.4,1.8-2.1l0.3-0.4l0.1-0.2v-0.1
		c0.1-0.1-0.1,0.3,0.1-0.3l0.1-0.2c0.2-0.6,0.4-1.3,0.5-1.8c0.3-2.4,0-4.2-0.3-5.9c-0.3-1.7-0.7-3.4-1-4.9s-0.5-3.1-0.4-3.9
		c0-0.1,0.1-0.1,0.1-0.2v-0.1c0,0,0,0.1,0,0.2c0,0.2,0,0.3-0.1,0.5l0.3-0.6c-0.2,0.8-0.5,0.9-0.2,0.9c0.5-0.1,1.9-0.4,3.6-0.6
		s3.6-0.5,6.2-1.3c0.7-0.2,1.4-0.5,2.1-0.9l1.2-0.7c0.5-0.4,1.3-1,1.8-1.6l0.9-1l0.1-0.2l0.1-0.1c-0.4,0.7,0.6-1,0.5-0.9
		c0.2-0.3,0.3-0.7,0.5-1c0.7-1.5,0.9-2.8,1.1-4.1c0.4-4.7-0.5-7.4-0.9-9.9c-0.2-0.9-0.4-1.7-0.5-2.5c0.6-0.3,1.5-0.7,2.6-1.1
		c0.1,0.4,0.2,0.7,0.3,1c0.1,0.3,0.2,0.7,0.3,1c0.5,1.1,1.1,2,1.6,2.8c1.1,1.5,2.2,2.7,3.2,3.7c1,1.1,1.9,2.1,2.5,3
		c0.3,0.4,0.5,0.9,0.6,1.2c0,0.1,0,0.1,0.1,0.2l0,0c0,0.2,0-0.2,0-0.2v0.1v0.3v0.5v0.3c-0.1,0.8-0.5,2-0.9,3s-0.8,2-1.2,2.9
		c-0.8,1.9-1.4,3.5-1.7,4.9c-0.3,1.4-0.3,2.6,0,3.3c0.3,0.7,0.5,0.9,0.5,1c0,0-0.2-0.4-0.3-1c-0.1-0.7,0.1-1.7,0.7-2.9
		c0.5-1.2,1.4-2.5,2.6-4.1c0.6-0.8,1.2-1.6,1.8-2.6c0.6-1,1.3-2,1.8-3.7l0.2-0.7l0.1-0.5v-0.2v-0.1c0,0,0-0.4,0-0.3v-0.1v-0.8
		c-0.1-1.1-0.4-1.9-0.8-2.7c-0.7-1.6-1.5-2.9-2.3-4.2c-0.8-1.3-1.6-2.6-2.3-3.9c-0.3-0.6-0.5-1.2-0.7-1.7c0-0.1,0-0.1,0-0.2l0.1-0.6
		c0,0.7-0.1,0.5,0.3,0.3s0.9-0.5,1.6-0.7c1.4-0.5,3-1,4.9-1.7c0.9-0.3,1.9-0.7,3.1-1.4l0.9-0.5l0.9-0.7c0.2-0.2,0.8-0.8,1.2-1.3
		c0.2-0.3,0.4-0.6,0.6-0.8l0.2-0.3l0.2-0.3c0.1-0.3-0.2,0.6,0.3-0.7l0.1-0.2l0.1-0.5c0.2-0.6,0.4-1.4,0.4-1.9c0-0.6,0.1-1.2,0-1.7
		l-0.2-1.4c-0.3-1.7-0.7-3.1-1.2-4.3c-0.7-1.9-1.4-3.6-2-5.1c2,0,3.7-0.2,5-1.3c0.6-0.5,1.1-1.2,1.5-2c0.4,1,0.8,1.7,1.2,2.3
		c0.9,1.4,1.8,2.4,2.7,3.4c1.5,1.6,2.9,3.1,3.6,4.1c-0.1,0-0.1,0.1-0.2,0.1c-1.2,1-3,2-4.7,3.1c-0.9,0.6-1.8,1.2-2.7,2
		c-0.9,0.8-2,1.8-2.7,3.8l-0.1,0.4l-0.1,0.2c0,0-0.2,1-0.1,0.6v0.4v0.4c0,0.3,0,0.6,0.1,0.8c0.1,1.3,0.4,1.7,0.6,2.4
		c0.5,1.1,1.1,2,1.6,2.8c1.1,1.6,2.2,2.8,3.1,4s1.7,2.4,2,3.3c0.1,0.4,0.2,0.8,0.1,1c-0.1,0.5-0.2,0.3-0.2,0.5
		c-0.1,0.1-0.3,0.4-0.4,0.6c-0.7,0.8-1.6,1.5-2.5,2.1c-1.7,1.2-3.3,2.3-4.5,3.2c-1.2,1-2,2-2.3,2.8c-0.4,0.8-0.3,1.3-0.3,1.2
		c0,0,0.1-0.5,0.6-1.1c0.4-0.6,1.3-1.3,2.6-2c1.3-0.7,2.9-1.3,4.9-2.1c1-0.5,2.1-0.9,3.2-1.8c0.3-0.3,0.6-0.5,0.9-0.9s0.7-1,0.8-1.3
		c0.5-1,0.5-2.3,0.3-3.3c-0.8-3.9-2.9-6.5-4.3-9.5c-0.4-0.7-0.6-1.4-0.8-2c0-0.1,0-0.2,0-0.3v0.1v-0.1c0,0,0,0,0,0.1l0,0
		c0,0,0,0,0-0.1v-0.2l0,0v0.1l0,0l0,0c0,0.2,0.2-0.2,0.8-0.5c0.5-0.3,1.3-0.7,2.1-1.1c1.6-0.7,3.4-1.3,5.6-2.6
		c0.5-0.3,1.1-0.7,1.7-1.2c0.3-0.3,0.7-0.6,1-0.9c0.4-0.4,0.9-1.2,1.2-1.9l0.2-0.4l0.1-0.2l0.2-0.4c-0.1,0.5,0.2-0.8,0.2-0.8v-0.3
		l0.1-0.6c0-0.4,0-0.8,0-1.2c-0.1-0.6-0.2-1.3-0.3-1.9c-0.2-0.5-0.3-1-0.5-1.5c-1.5-3.2-3.1-4.9-4.4-6.8c-0.5-0.7-0.9-1.3-1.2-1.8
		c0.1-0.1,0.1-0.1,0.2-0.1c0.7-0.6,1.6-1.2,2.6-2s2.1-1.6,3.3-2.7l1-1c0.3-0.4,0.7-0.8,1-1.3s0.7-1.1,1-1.7c0.2-0.4,0.5-1.1,0.6-1.7
		c0.1-0.3,0.2-0.6,0.2-0.9l0.1-0.7l0.1-0.5v-0.1c0,0.7,0.1-1.1,0-1.2c0-0.4-0.1-0.9-0.2-1.3s-0.2-0.9-0.3-1.3
		c-0.1-0.4-0.2-0.6-0.4-0.8c-0.2-0.5-0.6-1.1-0.8-1.4c0,0,0,0-0.1-0.1c0.2,0,0.3-0.1,0.5-0.1c1.2,1.9,2.5,2.9,3.6,4.1
		c2.9,2.6,5.4,4.7,6.4,7l0.1,0.2v0.1c0.1,0.2,0-0.2,0-0.2v0.2l0.1,0.6c0.1,0.4,0,0.5,0.1,0.7c0,0.6,0,1.3-0.1,2
		c-0.2,1.4-0.4,2.8-0.6,4.1c-0.4,2.6-0.7,4.9-0.7,6.8s0.5,3.3,0.9,4.1c0.5,0.8,0.7,1.2,0.7,1.2s-0.2-0.4-0.5-1.3
		c-0.2-0.9-0.3-2.2-0.1-3.9c0.3-1.7,0.9-3.7,1.8-6.1c0.4-1.2,0.9-2.5,1.4-4c0.2-0.8,0.4-1.6,0.5-2.6c0-0.5,0.1-1.3,0-1.7l-0.1-0.6
		v-0.2c0,0-0.1-0.5-0.1-0.3v-0.1l-0.1-0.4c-1.2-4.1-3.9-6.9-6.1-9.9c-0.6-0.8-1.2-1.6-1.6-2.4l0.1-0.1c0.8-1.1,1.3-2.6,1.5-4.2
		c1-0.7,2.3-1.4,3.6-2.2c1-0.6,2-1.2,3.2-2.1c1.1-0.8,2.3-1.8,3.6-3.5c0.4-0.6,0.8-1.2,1.1-1.8l0.4-0.9l0.1-0.1
		c0.4-1.1,0.1-0.4,0.2-0.7l0.1-0.5l0.2-1.1c0.1-0.5,0.1-1,0.1-1.5c0.6,0.7,1.2,1.3,1.7,1.9c0.7,0.7,1.4,1.4,2.1,2.1
		c0.3,0.3,0.6,0.7,0.8,0.9c-0.4,0.3-0.9,0.6-1.5,0.8c-1.5,0.7-3.2,1.3-4.8,2.1c-0.8,0.4-1.7,0.8-2.6,1.7c-0.2,0.2-0.5,0.6-0.7,1
		c-0.1,0.1-0.2,0.5-0.3,0.7l-0.1,0.4v0.2c0,0.3,0-0.3,0,0.6l0.1,0.3v0.2c0,0.1,0.1,0.3,0.1,0.4c0.2,0.6,0.6,1.2,0.8,1.3
		c1,0.9,1.7,1.2,2.5,1.5s1.4,0.5,2.1,0.8c1.3,0.4,2.6,0.8,3.7,1.3s2,1.1,2.1,1.7c0,0,0,0.7-0.2,1.2c-0.1,0.5-0.3,1.1-0.5,1.6
		c-0.7,2-1.4,3.8-1.8,5.3s-0.5,2.7-0.4,3.5c0.1,0.4,0.2,0.7,0.3,0.8c0.1,0.2,0.2,0.2,0.2,0.2s0-0.1-0.1-0.3
		c-0.1-0.2-0.2-0.4-0.2-0.8c-0.1-0.8,0.2-1.9,0.8-3.2c0.6-1.4,1.5-2.9,2.5-4.9c0.2-0.5,0.5-1,0.7-1.6s0.5-1.1,0.5-2.4l-0.1-0.5
		c0-0.1,0.1,0.2-0.1-0.3v-0.1l-0.1-0.2l-0.2-0.3c-0.2-0.5-0.5-0.7-0.8-1c-0.6-0.5-1.1-1-1.7-1.3c-1.2-0.7-2.5-1.3-3.7-2
		c-0.6-0.3-1.3-0.6-1.9-1c-0.3-0.1-0.5-0.3-0.7-0.5c0.3-0.2,0.8-0.3,1.2-0.5c1.4-0.5,3.1-0.9,4.9-1.5c0.9-0.3,1.9-0.6,3-1.3
		c0.3-0.2,0.5-0.3,0.9-0.7c0.2-0.2,0.4-0.5,0.6-0.7l0.3-0.4l0.1-0.2l0.2-0.3c-0.1,0.4,0.2-0.6,0.2-0.6l0.1-0.3
		c0-0.2,0.1-0.4,0.1-0.6s0-0.4,0-0.6l-0.1-0.5c-0.1-0.3-0.1-0.6-0.2-0.9c-0.7-1.9-1.4-2.6-2.1-3.6c-0.7-0.8-1.3-1.7-2-2.5
		c-0.6-0.7-1.1-1.5-1.6-2.1c0.1,0,0.1-0.1,0.2-0.1c0.8-0.4,1.8-0.8,2.8-1.3s2.1-1,3.4-1.7c0.6-0.4,1.3-0.8,2.1-1.7l0.6-0.7
		c0.3-0.4,0.6-1,0.8-1.5c0.1-0.3,0.2-0.6,0.3-0.9l0.1-0.3v-0.2v-0.1c0,0.2,0.1-1.7,0.1-1.1c-0.1-0.9-0.3-1.9-0.5-2.4
		c-0.1-0.3-0.3-0.6-0.4-0.9l-0.4-0.7c-0.3-0.5-0.5-0.8-0.8-1.1c-0.3-0.4-0.5-0.7-0.7-0.9c-1-1.1-1.9-2.1-2.7-2.9
		c-0.8-0.9-1.6-1.7-2.2-2.5c-0.1-0.1-0.2-0.2-0.3-0.4c0.5-0.5,1.3-1,2.2-1.6c1-0.7,2.1-1.4,3.4-2.4c0.6-0.5,1.3-1,2-1.7
		c0.4-0.4,0.7-0.7,1.1-1.2l0.5-0.8c0.2-0.2,0.5-0.9,0.7-1.4c0.1-0.3,0.2-0.5,0.3-0.8c0.1-0.3,0.2-0.6,0.2-0.6l0.1-0.5v-0.1
		c0,0.2,0.2-1.6,0.1-1.1v-0.8c0-0.5-0.1-1.2-0.2-1.5c-0.4-1.8-1.1-3-1.6-3.9c-1-1.5-1.9-2.6-2.8-3.6c3.5-3.8,6.8-7.7,7.7-12.4
		C328.4,294.2,320.2,283.1,320.9,273.4z M-64.2,348.7L-64.2,348.7L-64.2,348.7L-64.2,348.7z M-61.9,368.7L-61.9,368.7L-61.9,368.7
		C-62,368.7-62,368.6-61.9,368.7z M-54.7,376.2L-54.7,376.2C-54.7,376.2-54.6,376.1-54.7,376.2z M50.8,466.6L50.8,466.6l-0.2-0.4
		v-0.1C50.6,466.1,50.7,466.4,50.8,466.6z M50,465.8c0.1,0.1,0.2,0.2,0.3,0.3c0.1,0.1,0.2,0.2,0.3,0.4v0.1c-0.1-0.1-0.3-0.2-0.4-0.3
		C50.2,466.1,50,466,50,465.8L50,465.8C50,465.8,49.9,465.7,50,465.8z M24.6,435.9c0.1-0.6,0.1-1.3,0.2-1.9c0-0.2,0-0.2,0-0.6v-0.9
		c0-0.6-0.1-1.2-0.2-1.8l-0.2-0.9l-0.1-0.3l-0.1-0.4l-0.1-0.2c-0.8-2.2-0.3-0.8-0.5-1.3l-0.1-0.2c0.5-0.2,1-0.4,1.5-0.5
		c0.1,1.4,0.2,3.2,0.1,1.7v0.1v0.2l0.1,0.4c0.1,0.7,0.3,1.4,0.6,2.1c0.5,1.4,1.2,2.8,2,3.8c0.3,0.4,0.6,0.8,1,1.2
		c0.3,0.3,0.7,0.8,1,1l0.7,0.6l0.7,0.6l0.6,0.4c0.1,0.1,0.2,0.1,0.2,0.1c-0.2,0.4-0.5,0.9-0.7,1.4s-0.4,0.9-0.7,1.7l-0.3,1.1
		c-0.1,0.3-0.2,0.7-0.3,1.3c-0.1,0.5-0.2,1.1-0.2,1.6c0,0.6-0.1,1,0,1.8c0,0.7,0.1,1.4,0.3,2.1c0.1,0.3,0.1,0.7,0.2,1
		c0,0,0,0.1,0.1,0.3c-2.4-1.8-4.3-2.4-6.1-3.2l-2.1-3.9C22.8,442.2,23.9,440.1,24.6,435.9z M20.1,446.3L20.1,446.3
		c-0.1-0.1-0.1-0.2-0.2-0.2l-0.1-0.2v-0.1C19.5,445.3,19.9,445.9,20.1,446.3z M20,446.3c-0.1,0-0.2-0.1-0.2-0.1
		c-0.2-0.2-0.4-0.3-0.4-0.4v-0.1C19.5,445.7,19.8,446,20,446.3z M8.7,433.9c0,0.2,0,0.5,0,1C8.7,434.6,8.6,434.2,8.7,433.9z
		 M29.5,279.9c0,0,0-0.1,0-0.2c0,0,0,0,0-0.1V279.9z M194.7,477.6L194.7,477.6c0,0.1,0,0.2,0,0.2v0.1c-0.1-0.3-0.2-0.5-0.2-0.7V477
		c0,0,0-0.1,0.1,0s0.1,0.2,0.1,0.4C194.7,477.5,194.6,477.6,194.7,477.6v-0.2l0.1-0.4C194.7,477.2,194.8,476.4,194.7,477.6
		L194.7,477.6z M198.9,466.6c0.1-0.3,0.2-0.6,0.2-0.5v0.1L198.9,466.6L198.9,466.6z M199.4,466.2c-0.1,0.1-0.3,0.2-0.4,0.3v-0.1
		c0.1-0.1,0.2-0.3,0.3-0.4c0.1-0.1,0.2-0.2,0.3-0.3c0.1-0.1,0,0,0.1,0v0.1C199.7,466,199.5,466.1,199.4,466.2z M225.4,448.2
		c-1.8,0.8-3.7,1.4-6.1,3.2c0.1-0.2,0.1-0.3,0.1-0.3c0.1-0.3,0.2-0.7,0.2-1c0.1-0.7,0.2-1.4,0.3-2.1c0.1-0.8,0-1.2,0-1.8
		c0-0.5-0.1-1.1-0.2-1.6c-0.1-0.6-0.2-0.9-0.3-1.3l-0.3-1.1c-0.3-0.8-0.5-1.2-0.7-1.7c-0.3-0.5-0.5-1-0.7-1.4
		c0.1-0.1,0.2-0.1,0.2-0.1l0.6-0.4l0.7-0.6l0.7-0.6c0.2-0.2,0.7-0.7,1-1c0.3-0.4,0.7-0.8,1-1.2c0.8-1,1.5-2.4,2-3.8
		c0.2-0.7,0.4-1.4,0.6-2.1l0.1-0.4v-0.2v-0.1c-0.1,1.5,0-0.3,0.1-1.7c0.5,0.2,1,0.4,1.5,0.5l-0.1,0.2c-0.2,0.6,0.3-0.9-0.5,1.3
		l-0.1,0.2l-0.1,0.4l-0.1,0.3l-0.2,0.9c-0.1,0.6-0.2,1.2-0.2,1.8v0.9c0,0.3,0,0.4,0,0.6c0,0.6,0.1,1.3,0.2,1.9
		c0.7,4.2,1.8,6.4,2.5,8.4c0.4,1,0.7,2,0.9,2.6C227.6,447.3,226.6,447.7,225.4,448.2z M229.6,446.3c0.2-0.4,0.6-1,0.3-0.5v0.1
		l-0.1,0.2C229.7,446.1,229.7,446.2,229.6,446.3L229.6,446.3z M230.3,445.8c0,0.1-0.2,0.2-0.4,0.4c-0.1,0-0.2,0.1-0.2,0.1
		C229.9,446,230.2,445.7,230.3,445.8C230.3,445.7,230.3,445.7,230.3,445.8z M241,433.9c0.1,0.3,0,0.7,0,1
		C241,434.4,241,434.1,241,433.9z M256.3,421.6l-0.1,0.1l0,0C256.2,421.6,256.3,421.5,256.3,421.6
		C256.3,421.6,256.2,421.7,256.3,421.6z M-27.2,403.7c0-0.1,0-0.2,0.1-0.3C-27.1,403.3-27.2,403.5-27.2,403.7z M-26.9,390.2
		l-0.2-0.3c0-0.1,0.1,0,0,0C-27,389.9-26.9,390.1-26.9,390.2L-26.9,390.2z M-26.6,416.7c0-0.1-0.1-0.2-0.1-0.2
		C-26.7,416.4-26.6,416.6-26.6,416.7C-26.5,416.7-26.5,416.7-26.6,416.7z M-26.4,417L-26.4,417L-26.4,417L-26.4,417L-26.4,417
		L-26.4,417z M-6.5,421.7L-6.5,421.7l-0.1-0.1C-6.5,421.8-6.7,421.1-6.5,421.7z M-6.6,421.8C-6.7,421.7-6.6,421.8-6.6,421.8
		C-6.5,421.9-6.5,421.9-6.6,421.8C-6.5,421.9-6.5,421.9-6.6,421.8z M-0.3,434.5C-0.3,434.6-0.3,434.6-0.3,434.5
		C-0.3,434.6-0.3,434.5-0.3,434.5C-0.3,434.3-0.3,434.5-0.3,434.5z M31.1,251.4C31.1,251.4,31,251.4,31.1,251.4
		C31,251.4,31,251.4,31.1,251.4C31.1,251.3,31.1,251.3,31.1,251.4L31.1,251.4z M250,434.6L250,434.6c0-0.1-0.1-0.3,0-0.2
		C250,434.5,250,434.6,250,434.6z M256.3,421.8C256.2,421.9,256.2,421.9,256.3,421.8C256.2,421.9,256.2,421.9,256.3,421.8
		C256.3,421.8,256.4,421.7,256.3,421.8z M276.1,417L276.1,417L276.1,417L276.1,417L276.1,417L276.1,417z M276.3,416.7
		C276.2,416.7,276.2,416.7,276.3,416.7c0-0.1,0.1-0.2,0.1-0.2C276.3,416.5,276.3,416.6,276.3,416.7z M276.6,390.2L276.6,390.2
		c0-0.1,0.1-0.3,0.1-0.3s0.1-0.1,0,0L276.6,390.2z M276.9,403.4c0,0.1,0,0.2,0.1,0.3C276.9,403.5,276.8,403.3,276.9,403.4z
		 M311.6,368.7L311.6,368.7C311.7,368.6,311.7,368.7,311.6,368.7L311.6,368.7z M313.9,348.7L313.9,348.7L313.9,348.7L313.9,348.7z"
		/>
	<g id="XMLID_4528_">
		<path id="XMLID_350_" fill="#FFFFFF" d="M292.4,388.2c0,0-0.4-0.2-1.2-0.7c-0.7-0.5-1.8-1.3-2.7-2.7c-0.9-1.4-1.8-3.3-2.1-5.7
			c-0.2-1.2-0.1-2.5,0.1-3.8s0.7-2.7,1.5-4s2-2.5,3.2-3.4c1.2-1,2.4-1.9,3.1-3c0.3-0.6,0.5-1.1,0.6-1.8c0-0.5-0.1-1.2-0.4-1.8
			c-0.6-1.3-1.7-2.4-3-3.5c-0.6-0.5-1.3-1.1-2-1.6s-1.5-1.2-2.2-1.8c-1.4-1.4-2.8-2.9-3.4-5.2c-0.3-1.1-0.2-2.5,0.2-3.6l0.2-0.4
			v-0.1V345l0.1-0.1l0.1-0.1c0.1-0.1,0.1-0.2,0.2-0.3l0.3-0.4c0.4-0.5,0.9-0.9,1.3-1.2c1.9-1.3,3.9-1.7,5.4-2.4
			c1.4-0.6,2.8-1.7,3-2.7c0-0.2,0.1-0.5,0-0.7c0.1,0.1-0.2-0.5-0.2-0.4c0,0-0.1-0.2-0.2-0.3c-0.3-0.4-1-0.8-1.8-1.2l-1.2-0.6
			l-0.7-0.3l-0.3-0.2h-0.1l0,0l-0.1-0.1l-0.1-0.1l-0.6-0.4c-0.2-0.1-0.4-0.4-0.7-0.6c-0.5-0.4-0.8-0.8-1.1-1.2
			c-1.2-1.7-1.9-3.7-2-5.7s0.3-4,1.4-5.7c0.2-0.4,0.6-0.8,0.9-1.2c0.4-0.3,0.7-0.7,1.1-1c0.3-0.2,0.7-0.5,1.1-0.8
			c0.4-0.2,0.7-0.5,1.1-0.7c1.4-0.9,2.7-1.6,3.6-2.5s1.3-2,1-3.1c-0.2-1-1.2-1.9-2.2-2.4c-1-0.6-2.2-1-3.2-1.2
			c-1.1-0.3-2.2-0.4-3.1-0.7c-1-0.3-1.9-0.6-2.6-0.9c-1.6-0.7-2.5-1.8-2.9-2.6c-0.4-0.8-0.3-1.3-0.4-1.3c0,0,0.1,0.5,0.5,1.2
			s1.4,1.6,3,2.1c0.8,0.3,1.6,0.5,2.6,0.6c1,0.2,2,0.2,3.2,0.4c1.2,0.2,2.4,0.5,3.7,1.1c1.2,0.6,2.6,1.5,3.2,3.3
			c0.1,0.2,0.1,0.5,0.2,0.7v0.3v0.1l0.2,0.1c0,0,0.2,0.2,0.2,0.1l0,0c0,0.4-0.2,0.9-0.3,1.3c-0.2,0.9-0.8,1.7-1.4,2.3
			c-1.2,1.3-2.6,2.1-3.9,3c-0.3,0.2-0.7,0.4-1,0.7c-0.3,0.2-0.6,0.4-0.9,0.7c-0.3,0.2-0.5,0.5-0.7,0.8s-0.4,0.6-0.6,0.9
			c-0.7,1.2-1,2.8-0.9,4.3s0.7,3,1.6,4.2c0.3,0.3,0.5,0.6,0.7,0.8c0.1,0.1,0.2,0.2,0.4,0.3l0.6,0.4l0.1,0.1c0,0,0.1,0.1-0.1,0l0,0
			h0.1l0.3,0.1l0.6,0.3l1.3,0.6c0.9,0.4,1.9,0.9,2.8,1.9c0.2,0.3,0.4,0.5,0.6,0.9l0.1,0.3l0.1,0.2l0.1,0.2l0,0c0.1,0.2,0,0.1,0,0.2
			v0.1c0.2,0.7,0.2,1.4,0,2.1c-0.3,1.4-1.1,2.4-1.9,3.1c-0.9,0.8-1.8,1.3-2.8,1.8c-1.9,0.7-3.7,1.2-4.9,2c-1.2,0.8-1.7,2-1.4,3.3
			c0.3,1.3,1.3,2.7,2.5,3.9c0.6,0.6,1.2,1.1,1.9,1.6c0.7,0.6,1.5,1.1,2.1,1.8c1.4,1.2,2.7,2.6,3.5,4.5c0.4,0.9,0.6,1.9,0.5,3.1
			c-0.1,0.9-0.5,2-1,2.8c-1.1,1.6-2.5,2.5-3.7,3.4s-2.2,1.7-2.9,2.8c-0.7,1.1-1.2,2.2-1.5,3.4c-0.3,1.2-0.4,2.3-0.3,3.4
			c0.1,2.2,0.7,4.1,1.5,5.5s1.7,2.3,2.3,2.9C292,387.9,292.4,388.2,292.4,388.2z"/>
	</g>
	<g id="XMLID_4524_">
		<path id="XMLID_348_" fill="#FFFFFF" d="M243.9,255.7c-0.5-1.1-0.6-2.3-0.5-3.5s0.5-2.4,0.9-3.5s0.9-2.2,1.4-3.3
			c0.5-1.1,1-2.2,1.3-3.3c0.6-2.2,0.7-4.7-0.3-6.6c-0.5-0.9-1.4-1.6-2.4-1.9c-0.9-0.2-2.1-0.2-3.3-0.1c-1.2,0.1-2.4,0.4-3.7,0.4
			c-0.6,0-1.3,0-2-0.3c-0.3-0.1-0.7-0.2-1-0.4h-0.1l-0.1-0.1L234,233l-0.2-0.1c-0.1-0.1-0.2-0.1-0.4-0.3c-1.2-1-1.8-2.3-2-3.7
			c-0.2-1.3,0-2.6,0.2-3.9c0.3-1.2,0.7-2.4,1.2-3.6c0.5-1.2,1.1-2.1,1.5-3.2c0.4-1.1,0.8-2.2,1-3.2c0.2-1.1,0.3-2.2,0-3.1
			c-0.1-0.5-0.4-0.9-0.6-1.3c-0.1-0.1-0.2-0.2-0.2-0.3l-0.2-0.2c-0.2-0.2-0.5-0.4-0.7-0.5c-0.4-0.2-0.8-0.4-1.3-0.6
			c-0.5-0.1-1-0.2-1.6-0.3c-1.1-0.1-2.3-0.2-3.6-0.3c-1.2-0.1-2.6-0.3-3.8-1c-0.6-0.3-1.2-0.8-1.7-1.3l-0.1-0.1v-0.1l-0.1-0.1l0,0
			l-0.1-0.2l-0.2-0.4c-0.2-0.2-0.3-0.6-0.4-1c-0.5-1.5-0.3-2.8-0.1-4.1c0.5-2.5,1.4-4.7,1.6-6.9c0.3-2.2-0.8-3.9-2.9-4.6
			c-1-0.4-2.2-0.7-3.4-1.2l-0.8-0.4l-0.9-0.5c-0.3-0.2-0.5-0.4-0.8-0.6c-0.3-0.2-0.5-0.4-0.7-0.6c-0.9-0.9-1.7-1.9-2.3-3
			c-0.6-1.1-1.1-2.3-1.3-3.5c-0.6-2.5-0.3-5.1,0.7-7.4l0.3,0.8l-1.3-0.6l-1.2-0.7l-1.1-0.9l-0.9-1l-0.8-1.1l-0.7-1.2l-0.6-1.2
			l-0.4-1.3l-0.3-1.3l-0.2-1.3v-1.3l0.1-1.3l0.3-1.3l0.4-1.3l0.6-1.2l0.8-1.1l-0.7,1.1l-0.5,1.2l-0.3,1.3l-0.2,1.3l-0.1,1.3l0.1,1.3
			l0.2,1.3l0.4,1.2l0.5,1.2l0.6,1.1l0.7,1.1l0.8,1l0.9,0.9l1,0.8l1.1,0.6l1.2,0.5l0.6,0.2l-0.2,0.6c-0.9,2.1-1,4.4-0.4,6.6
			c0.3,1.1,0.7,2.1,1.3,3.1c0.6,1,1.3,1.9,2.1,2.6c0.2,0.2,0.4,0.4,0.6,0.5c0.2,0.2,0.4,0.4,0.7,0.5l0.7,0.4l0.8,0.4
			c1,0.4,2.2,0.7,3.4,1.1c0.6,0.2,1.2,0.5,1.8,0.9c0.1,0.1,0.3,0.2,0.4,0.3s0.3,0.3,0.4,0.4l0.2,0.2l0.1,0.1
			c0.1,0.1,0.1,0.1,0.1,0.1l0.3,0.4c0.8,1.2,1,2.7,0.9,4c-0.2,2.6-1.2,4.9-1.6,7.1c-0.2,1.1-0.2,2.2,0,3c0.1,0.2,0.1,0.4,0.3,0.6
			l0.2,0.4l0.1,0.2l0,0c0,0,0.1,0.1,0-0.1l0,0l0.1,0.1c0.3,0.3,0.7,0.7,1.1,0.9c0.9,0.5,2,0.6,3.1,0.8c1.1,0.1,2.4,0.2,3.6,0.3
			c1.3,0.2,2.5,0.4,3.9,1.3c0.3,0.2,0.5,0.4,0.7,0.6l0,0l0.1,0.1l0,0l0.1,0.1l0.2,0.2c0.1,0.1,0.2,0.3,0.4,0.4
			c0.4,0.6,0.8,1.2,0.9,1.9c0.4,1.4,0.3,2.8,0,4c-0.3,1.3-0.7,2.5-1.2,3.6s-1.1,2.3-1.6,3.3s-0.9,2.1-1.1,3.2
			c-0.3,1.1-0.4,2.2-0.3,3.3c0.1,1,0.6,2,1.2,2.6c1.6,1.4,4,1,6.4,0.7c1.2-0.1,2.5-0.2,3.9,0.2c1.2,0.4,2.4,1.4,3,2.6
			c1.2,2.4,0.8,5.1,0.1,7.4c-0.4,1.2-0.9,2.3-1.5,3.3c-0.5,1.1-1.1,2.1-1.6,3.2s-0.9,2.2-1,3.4C243.4,253.3,243.5,254.5,243.9,255.7
			z"/>
	</g>
	<g id="XMLID_2235_">
		<path id="XMLID_319_" fill="#FFFFFF" d="M-62.7,258.6c0,0,0.6,1.7,1.6,4.7s2.4,7.3,4,12.5c0.8,2.6,1.7,5.4,2.6,8.4
			c0.5,1.5,0.9,3,1.3,4.7c0.3,1.7,0.5,3.4,0.3,5.3c-0.1,0.9-0.4,1.8-0.8,2.7c-0.2,0.4-0.4,0.9-0.6,1.2c-0.2,0.4-0.5,0.8-0.8,1.2
			c-1,1.5-2.2,2.8-3,4.2c-0.4,0.7-0.7,1.4-0.8,2.2v0.3v0.1v0.2c0,0.2,0,0.5,0,0.6c0,0.3,0.1,0.7,0.2,1.1c0.4,1.5,1.3,3,2.3,4.4
			s2.2,2.8,3.4,4.2c1.1,1.4,2.3,2.9,3.1,4.7c0.4,0.9,0.7,1.9,0.7,2.9c0,0.5,0,1-0.1,1.5l-0.1,0.4l0,0v0.1v0.1v0.2
			c-0.1,0.2-0.1,0.4-0.2,0.6c-0.8,2-2,3.2-3.1,4.6c-1.1,1.3-2.1,2.6-2.5,3.9c-0.1,0.3-0.1,0.7-0.2,1c0,0.3,0,0.6,0.2,1
			c0,0.1,0.1,0.3,0.1,0.4c0.1,0.2,0.2,0.4,0.3,0.5c0.2,0.2,0.4,0.5,0.6,0.8c1,1,2.3,1.8,3.5,2.6c1.2,0.8,2.5,1.6,3.5,2.7
			c2,2.2,2.7,4.9,2.6,7.2c-0.1,2.3-0.8,4.2-1.5,5.6c-0.7,1.5-1.3,2.5-1.8,3.2c-0.4,0.7-0.7,1.1-0.7,1.1s0.2-0.4,0.6-1.2
			c0.4-0.8,0.9-1.9,1.5-3.3c0.6-1.5,1.2-3.3,1.1-5.5c-0.1-2.1-0.9-4.6-2.6-6.3c-0.9-0.9-2.1-1.6-3.4-2.3c-1.3-0.7-2.6-1.5-3.9-2.7
			c-0.3-0.3-0.6-0.6-0.9-1.1c-0.1-0.2-0.2-0.4-0.3-0.5c-0.1-0.3-0.2-0.5-0.3-0.7c-0.2-0.4-0.2-0.9-0.3-1.4c0-0.5,0-1,0.2-1.4
			c0.2-0.9,0.7-1.7,1.2-2.5c0.5-0.7,1-1.4,1.6-2.1c0.5-0.7,1-1.3,1.5-2s0.9-1.4,1.1-2c0.1-0.2,0.1-0.4,0.2-0.6v-0.2v-0.1
			c0,0,0-0.1,0,0l0,0v-0.3c0.1-0.4,0.1-0.7,0-1.1c-0.1-0.7-0.3-1.5-0.6-2.2c-1.4-3-4.1-5.6-6.3-8.5c-1.1-1.5-2.1-3.2-2.6-5.2
			c-0.1-0.5-0.2-1-0.2-1.6c0-0.3,0-0.5,0-0.7v-0.2c0-0.2,0-0.2,0-0.2l0.1-0.4c0.2-1,0.6-2,1.1-2.8c1-1.7,2.2-3,3.2-4.4
			s1.7-2.7,1.9-4.3c0.5-3.1-0.5-6.3-1.3-9.3s-1.6-5.9-2.3-8.5c-1.4-5.3-2.5-9.7-3.3-12.7C-62.3,260.3-62.7,258.6-62.7,258.6z"/>
	</g>
</g>
</svg>
