<?xml version="1.0" encoding="utf-8"?>
<!-- Generator: Adobe Illustrator 19.0.0, SVG Export Plug-In . SVG Version: 6.00 Build 0)  -->
<svg version="1.1" id="Layer_1" xmlns="http://www.w3.org/2000/svg" xmlns:xlink="http://www.w3.org/1999/xlink" x="0px" y="0px"
	 viewBox="0 0 387.5 330.5" style="enable-background:new 0 0 387.5 330.5;" xml:space="preserve">
<style type="text/css">
	.st0{fill:#FFFFFF;}
	.st1{fill:#EF7B05;}
	.st2{clip-path:url(#XMLID_98_);fill:#FFFFFF;}
</style>
<g id="XMLID_2841_">
	<path id="XMLID_3670_" class="st0" d="M64.5,97c-7.4,10.4-10.5,19.5-11.7,23.5c-0.6,0.1-1.1,0.3-1.7,0.4c-3.6,1-7.2,2.3-10.7,4.1
		c-1.6,0.8-3.1,1.7-4.4,2.8c-1.7-9.3,0.5-13.6,8.7-21.6C50,101.2,61.3,99.7,64.5,97z"/>
	<g id="XMLID_3032_">
		<g id="XMLID_3658_">
			<path id="XMLID_3669_" class="st1" d="M90.1,117.8c0,0-23.3-5.2-42.9,27.2s2.2,119.8,6,142.3c0,0-0.5-46.3,11.9-87.4
				S90.1,117.8,90.1,117.8z"/>
			<path id="XMLID_3668_" class="st1" d="M87.1,119.2l-1,2.5l-2.6,6.4l-4.4,10.9l-2,4.9l-0.2,0.4c0,0-2.3,4.6-5.5,12
				c-5.1,11.9-12.3,31-16,50.2c-2.7,14-7.5,22.9-12.1,28.6c-5.6,6.9-10.7,8.8-10.7,8.8s3-24-5.7-47.1c-5.4-14.5-7.3-34.7-2.7-50.5
				c2.2-7.6,6-14.2,11.6-18.5c1.4-1.1,2.8-2,4.4-2.8c3.5-1.7,7.1-3.1,10.7-4.1c0.6-0.2,1.1-0.3,1.7-0.4c8.8-2.2,17.2-2.6,23.5-2.4
				c1,0,2,0.1,2.8,0.2C84.1,118.6,87.1,119.2,87.1,119.2z"/>
			<path id="XMLID_3666_" class="st1" d="M76,120.7c0,0,5.4-50.9,63-68.3s112.3,0,137.8,38.8s82.1,37.4,82.1,37.4
				s-39.2,37.2-88.1,12.9s-95.7-3.6-128.1,3.5C103.1,153.7,76,120.7,76,120.7z"/>
			<path id="XMLID_3665_" class="st1" d="M187.9,46c0,0,36.9-3.1,63.5,13.3c26.6,16.4,42.1,30.1,61.7,33.6s38.5,2.4,38.5,2.4
				S308.1,124,267,106.4c-11.2-4.8-20.3-10-28.2-15c-21.3-13.6-34.1-26.5-55.7-28.6c-29.7-2.9-39.6,3.9-39.6,3.9S150,53.8,187.9,46z
				"/>
			<path id="XMLID_3664_" class="st1" d="M253.1,141.7c-31.5-15.8-72.6,4.6-117.5-0.4c-28.2-3.2-43.5-13.7-51-21.1
				c-0.8,0.7-1.6,1.3-2.4,2c-7.5,6-14.8,12.3-23.5,16c0.9,1.7,2,3.5,3.1,5.4c31.5,52.1,90.8,21.2,149.1,13.1
				c58.2-8.1,78.1,16.2,78.1,16.2S284.5,157.5,253.1,141.7z"/>
			<path id="XMLID_3662_" class="st1" d="M163.3,62.3c-0.3,2.9-0.8,6.1-1.5,9.2c-0.2,1-0.4,1.9-0.7,2.9c-2.5,10.2-6.2,19.6-6.2,19.6
				L112,118.9l-16.2,9.9l-6.4,3.9l-4.8,3l-5.5,3.4l-3,1.9l-0.9-0.7l-8.4-6.4l-6.7-5.1l-7.9-6c0,0,0.1-0.4,0.3-1.1
				c0.1-0.3,0.2-0.7,0.3-1.1c1.1-4.1,4.3-13.1,11.7-23.5c4.1-5.8,9.6-12.1,16.7-18.2c23.8-20.2,56.5-29.1,73.6-30.4c0,0,0,0,0.1,0
				c0.5-0.1,1.1-0.1,1.6-0.1c3.5-0.2,5.5,1.8,6.4,5c0.2,0.5,0.3,1.1,0.4,1.7C163.6,57.1,163.6,59.6,163.3,62.3z"/>
			<path id="XMLID_3661_" class="st0" d="M76.5,109.7c0,0,0.6-0.6,1.9-1.8c1.2-1.1,3.1-2.8,5.5-4.7c2.4-1.9,5.5-4.2,9.1-6.6
				c3.6-2.4,7.7-5,12.4-7.5c4.7-2.5,9.8-5.1,15.4-7.4c5.6-2.3,11.6-4.4,18-6.1c6.4-1.7,13.1-3,19.9-3.8l0.6-0.1l0.2,0l0.2,0l0.3,0
				l1.3-0.1c0.9-0.1,1.7-0.2,2.6-0.2c1.7-0.2,3.4-0.3,5.2-0.5c1.7-0.1,3.5-0.2,5.2-0.3l2.6-0.2l2.6-0.1c1.7,0,3.5-0.1,5.2-0.1
				c1.7,0,3.5,0.1,5.2,0.1c0.9,0,1.7,0,2.6,0.1c0.9,0.1,1.7,0.1,2.6,0.2c1.7,0.1,3.5,0.2,5.2,0.4c6.9,0.6,13.6,1.8,20,3.4
				c6.4,1.6,12.4,3.8,18.1,6c5.6,2.2,10.9,4.4,15.7,6.4c4.9,2,9.4,3.7,13.4,5.1c4,1.4,7.5,2.5,10.5,3.3c2.9,0.8,5.3,1.3,6.9,1.6
				c1.6,0.3,2.5,0.3,2.5,0.3s-0.9,0-2.5-0.2c-1.6-0.2-4-0.5-7-1.2c-3-0.7-6.6-1.6-10.7-2.8c-4.1-1.2-8.7-2.8-13.6-4.6
				c-4.9-1.8-10.2-3.9-15.9-5.9c-5.6-2-11.6-4-17.9-5.5c-0.8-0.2-1.6-0.4-2.4-0.5c-0.8-0.2-1.6-0.4-2.4-0.5
				c-1.6-0.3-3.2-0.6-4.9-0.9c-1.6-0.2-3.3-0.5-5-0.7c-1.7-0.2-3.4-0.3-5-0.5c-1.7-0.2-3.4-0.2-5.1-0.3c-0.9,0-1.7-0.1-2.6-0.1
				c-0.9-0.1-1.7,0-2.6-0.1c-1.7,0-3.4,0-5.2-0.1c-1.7,0-3.5,0.1-5.2,0.1l-2.6,0.1l-2.6,0.1c-1.7,0.1-3.4,0.2-5.2,0.3
				c-1.7,0.1-3.4,0.3-5.2,0.4c-0.9,0.1-1.7,0.2-2.6,0.2l-1.3,0.1l-0.3,0l-0.1,0l-0.2,0l-0.6,0.1c-6.7,0.8-13.3,1.9-19.6,3.5
				c-6.3,1.6-12.3,3.5-17.9,5.6c-5.6,2.2-10.8,4.5-15.5,6.8c-9.4,4.7-16.8,9.6-21.8,13.2c-2.5,1.8-4.5,3.3-5.8,4.3
				C77.2,109.1,76.5,109.7,76.5,109.7z"/>
			<path id="XMLID_3660_" class="st0" d="M50.6,135.3c0,0-0.2,0.2-0.6,0.6c-0.4,0.4-0.9,0.9-1.6,1.7c-1.4,1.5-3.3,3.6-5.3,6.4
				c-1,1.4-2,3-3,4.7c-1,1.7-1.8,3.6-2.6,5.6c-0.7,2-1.3,4.2-1.6,6.4c-0.2,1.1-0.3,2.2-0.3,3.4l0,0.9c0,0.2,0,0.6,0,0.9l0.1,1.8
				c0,1.2,0.2,2.3,0.2,3.5c0.1,1.2,0.2,2.3,0.4,3.5c0.3,2.3,0.6,4.5,1.1,6.7c0.4,2.2,0.8,4.3,1.2,6.3c0.4,2,0.7,3.9,0.9,5.7
				c0.3,1.8,0.4,3.4,0.4,4.9c0,0.7,0,1.4,0,2.1c0,0.6-0.1,1.2-0.1,1.7c-0.1,0.5-0.1,1-0.2,1.4c-0.1,0.4-0.1,0.7-0.2,1
				c-0.1,0.5-0.2,0.8-0.2,0.8s0-0.3,0-0.9c0-0.3,0-0.6,0.1-1c0-0.4,0-0.9,0-1.4c0-0.5,0-1.1-0.1-1.7c-0.1-0.6-0.1-1.3-0.2-2
				c-0.1-0.7-0.2-1.5-0.3-2.3c-0.1-0.8-0.3-1.6-0.5-2.5c-0.2-0.9-0.4-1.8-0.6-2.7c-0.2-0.9-0.5-1.9-0.7-2.9c-0.5-2-1-4.1-1.5-6.3
				c-0.1-0.5-0.2-1.1-0.4-1.7c-0.1-0.6-0.2-1.1-0.3-1.7c-0.2-1.1-0.4-2.3-0.6-3.5c-0.2-1.2-0.3-2.4-0.4-3.6
				c-0.1-1.2-0.2-2.4-0.3-3.6l0-1.8c0-0.3,0-0.6,0-0.9l0-0.9c0-1.2,0.2-2.5,0.3-3.7c0.4-2.4,1.1-4.7,1.9-6.8c0.8-2.1,1.9-4,3-5.8
				c1.1-1.7,2.2-3.3,3.4-4.6c2.3-2.7,4.4-4.6,6-5.9c0.8-0.6,1.4-1.1,1.9-1.4C50.4,135.5,50.6,135.3,50.6,135.3z"/>
			<path id="XMLID_3659_" class="st0" d="M62,142.7c0,0-0.2,0.1-0.4,0.4c-0.3,0.2-0.7,0.6-1.1,1.1c-0.2,0.2-0.5,0.5-0.8,0.8
				c-0.3,0.3-0.6,0.6-0.9,1c-0.3,0.4-0.6,0.8-0.9,1.2c-0.3,0.4-0.6,0.9-1,1.3c-0.6,1-1.2,2-1.8,3.2c-0.6,1.2-1,2.5-1.4,3.8
				c-0.2,0.7-0.4,1.4-0.5,2.1c-0.1,0.4-0.1,0.7-0.2,1.1c-0.1,0.4-0.1,0.7-0.1,1.1c0,0.4-0.1,0.7-0.1,1.1l0,0.6l0,0.6
				c0,0.8,0,1.5,0.1,2.3c0.1,1.6,0.1,3.2,0.2,4.8c0.1,1.6,0.1,3.1,0.1,4.6c0,1.5,0.1,3,0.1,4.3c0,1.4,0,2.7,0,3.9
				c0,2.4-0.1,4.4-0.1,5.8c-0.1,1.4-0.1,2.2-0.1,2.2s-0.1-0.8-0.3-2.2c-0.2-1.4-0.4-3.4-0.7-5.8c-0.1-1.2-0.3-2.5-0.4-3.9
				c-0.1-1.4-0.3-2.8-0.4-4.3c-0.1-1.5-0.2-3-0.3-4.6c-0.1-1.6-0.2-3.2-0.3-4.8c0-0.8,0-1.7,0-2.5l0-0.6l0.1-0.6
				c0-0.4,0.1-0.8,0.1-1.2c0-0.8,0.3-1.6,0.4-2.4c0.1-0.8,0.4-1.5,0.6-2.3c0.5-1.5,1.1-2.8,1.8-4.1c0.2-0.3,0.4-0.6,0.5-0.9
				c0.2-0.3,0.4-0.6,0.6-0.8c0.4-0.5,0.8-1,1.2-1.5c0.4-0.5,0.8-0.9,1.2-1.3c0.4-0.4,0.8-0.7,1.1-1c0.4-0.3,0.7-0.6,1-0.8
				c0.3-0.2,0.6-0.5,0.9-0.7c0.6-0.4,1-0.6,1.3-0.8C61.9,142.7,62,142.7,62,142.7z"/>
		</g>
		<g id="XMLID_3655_">
			<defs>
				<path id="XMLID_3656_" d="M81.8,127.2c0,0,5.1-48.2,59.4-64.6s106,0,130.1,36.7s58.9,39.4,58.9,39.4s-18.4,31.2-64.5,8.2
					s-90.4-3.4-120.9,3.3C107.4,158.4,81.8,127.2,81.8,127.2z"/>
			</defs>
			<clipPath id="XMLID_98_">
				<use xlink:href="#XMLID_3656_"  style="overflow:visible;"/>
			</clipPath>
			<path id="XMLID_3657_" class="st2" d="M330.9,140.8c0,0-0.2,0.1-0.5,0.2c-0.3,0.1-0.9,0.3-1.5,0.4c-1.3,0.3-3.2,0.8-5.7,1.2
				c-2.5,0.4-5.5,0.8-8.9,0.9c-3.5,0.1-7.4,0-11.6-0.6c-4.2-0.6-8.7-1.5-13.4-3.1c-2.3-0.7-4.7-1.7-7-2.7c-1.2-0.6-2.4-1.1-3.5-1.7
				c-0.6-0.3-1.2-0.6-1.8-0.9c-0.6-0.3-1.2-0.7-1.7-1l-0.9-0.5l-0.9-0.5c-0.6-0.3-1.2-0.7-1.7-1c-1.2-0.7-2.3-1.3-3.5-2
				c-2.4-1.3-4.8-2.5-7.2-3.7c-4.9-2.4-10.1-4.5-15.3-6.4c-5.2-1.8-10.6-3.3-15.9-4.5c-5.3-1.1-10.6-2-15.8-2.5
				c-5.1-0.6-10.2-0.9-14.9-1c-4.8-0.1-9.2,0-13.4,0.1c-1,0-2.1,0.1-3,0.1c-1,0.1-2,0.1-2.9,0.2c-1.9,0.1-3.7,0.3-5.4,0.4
				c-3.4,0.3-6.3,0.6-8.7,0.8c-2.4,0.3-4.3,0.5-5.6,0.7c-1.3,0.2-2,0.3-2,0.3s0.7-0.1,2-0.3c1.3-0.2,3.2-0.5,5.6-0.8
				c2.4-0.3,5.3-0.7,8.7-1.1c1.7-0.2,3.5-0.4,5.4-0.5c0.9-0.1,1.9-0.2,2.9-0.2c1-0.1,2-0.1,3-0.2c4.2-0.2,8.7-0.4,13.4-0.4
				c4.8,0,9.8,0.2,15,0.6c5.2,0.4,10.6,1.1,16,2.2c5.4,1,10.8,2.4,16.2,4.1c5.3,1.7,10.6,3.8,15.6,6.1c2.5,1.2,5,2.4,7.4,3.6
				c1.2,0.6,2.4,1.3,3.6,1.9c0.6,0.3,1.2,0.6,1.8,1l0.9,0.5l0.9,0.5c0.6,0.3,1.1,0.6,1.7,0.9c0.6,0.3,1.1,0.6,1.7,0.8
				c1.1,0.6,2.3,1,3.4,1.5c2.3,0.9,4.6,1.8,6.8,2.4c4.5,1.4,8.8,2.2,12.9,2.6c4,0.4,7.8,0.4,11.1,0.2c3.3-0.2,6.1-0.6,8.5-1
				c2.3-0.4,4.1-0.9,5.3-1.3c0.6-0.2,1-0.3,1.3-0.4c0.3-0.1,0.4-0.2,0.4-0.2L330.9,140.8z"/>
		</g>
		<g id="XMLID_3643_">
			<path id="XMLID_172_" class="st0" d="M334.1,100c0,0-0.3,0.2-0.9,0.6c-0.6,0.4-1.5,0.9-2.7,1.5c-1.2,0.6-2.7,1.3-4.4,2
				c-1.7,0.7-3.7,1.5-5.9,2.1c-2.2,0.7-4.6,1.4-7.2,1.9c-2.6,0.6-5.3,1-8.2,1.3c-2.9,0.3-5.9,0.5-8.9,0.5c-3,0-6.1-0.1-9.2-0.4
				c-1.5-0.2-3.1-0.4-4.6-0.6c-1.5-0.3-3-0.5-4.5-0.8c-1.5-0.3-3-0.6-4.4-1c-1.4-0.4-2.9-0.8-4.2-1.1c-1.4-0.4-2.7-0.8-4.1-1.3
				c-1.3-0.5-2.6-0.9-3.8-1.4c-1.2-0.4-2.4-1-3.6-1.4c-1.1-0.5-2.2-0.9-3.3-1.5c-2.1-1-4-1.9-5.6-2.8c-1.6-0.9-3.1-1.7-4.2-2.4
				c-2.3-1.4-3.6-2.2-3.6-2.2s1.4,0.6,3.8,1.7c1.2,0.6,2.7,1.1,4.4,1.9c1.7,0.7,3.7,1.4,5.8,2.3c1.1,0.4,2.2,0.8,3.3,1.2
				c1.2,0.4,2.3,0.8,3.6,1.2c1.2,0.4,2.5,0.8,3.8,1.1c1.3,0.3,2.6,0.7,4,1.1c1.4,0.3,2.8,0.6,4.2,1c1.4,0.3,2.9,0.6,4.3,0.8
				c1.5,0.3,2.9,0.5,4.4,0.7c1.5,0.2,3,0.4,4.5,0.5c3,0.3,6,0.5,8.9,0.5c2.9,0,5.8-0.1,8.7-0.2c2.8-0.3,5.5-0.5,8.1-0.9
				c2.5-0.4,5-0.8,7.2-1.3c4.4-1,8-2.2,10.5-3.1C332.8,100.7,334.1,100,334.1,100z"/>
		</g>
		<g id="XMLID_3033_">
			<path id="XMLID_170_" class="st0" d="M78.6,162.7c0,0,0-0.2,0.1-0.6c0.1-0.4,0.2-1,0.3-1.8c0-0.4,0.1-0.8,0.1-1.3
				c0-0.5,0-1,0.1-1.5c0-0.5,0-1.1-0.1-1.7c-0.1-0.6-0.1-1.2-0.2-1.9c-0.2-1.3-0.5-2.7-0.9-4.1c-0.4-1.4-1-2.9-1.6-4.4
				c-0.6-1.5-1.5-2.9-2.4-4.4c-0.9-1.4-2-2.9-3-4.1c-1.2-1.4-2.3-2.6-3.6-3.8c-1.3-1.1-2.5-2.3-3.8-3.3c-1.3-1-2.6-2-3.8-2.9
				c-1.3-0.9-2.5-1.7-3.6-2.4c-4.6-2.9-7.6-4.9-7.6-4.9s0.2,0.1,0.6,0.2c0.4,0.1,1,0.3,1.7,0.6c0.7,0.3,1.7,0.6,2.7,1
				c1,0.4,2.2,0.9,3.4,1.5c1.2,0.6,2.6,1.2,3.9,2c1.4,0.8,2.8,1.6,4.2,2.6c1.4,1,2.9,2.1,4.2,3.3c1.3,1.2,2.7,2.6,3.9,3.9
				c1.2,1.5,2.3,3,3.3,4.6c0.9,1.6,1.7,3.3,2.3,4.9c0.6,1.6,1.1,3.3,1.4,4.9c0.3,1.6,0.4,3.1,0.4,4.5c0,0.7,0,1.4-0.1,2
				c-0.1,0.6-0.2,1.2-0.2,1.8c-0.1,0.6-0.2,1.1-0.3,1.5c-0.1,0.5-0.3,0.9-0.4,1.3c-0.2,0.8-0.5,1.3-0.7,1.7
				C78.7,162.5,78.6,162.7,78.6,162.7z"/>
		</g>
	</g>
	<g id="XMLID_2842_">
		<path id="XMLID_104_" class="st0" d="M21.8,184c0.4,6,0.7,12,0.9,18c0.3,6,0.4,12,0.4,18.1c0,3,0,6,0,9c0,1.5-0.1,3-0.1,4.5
			c0,1.5-0.1,3-0.2,4.5c-0.1,1.5-0.2,3-0.3,4.5c-0.1,1.5-0.3,3-0.4,4.5c-0.1,1.5-0.4,3-0.6,4.5c-0.2,1.5-0.5,3-0.8,4.5l-1.2-1.1
			c1.9-0.7,3.6-1.9,5.2-3.2c1.6-1.4,3-2.9,4.2-4.6c2.6-3.3,4.7-7.1,6.9-10.8l1.4-2.4l0.4,2.7c0.1,1,0.4,2,0.6,2.9c0.2,1,0.5,2,0.8,3
			c0.6,2,1.2,3.9,1.8,5.9c1.2,3.9,2.5,7.9,3.8,11.8c1.3,3.9,2.6,7.9,3.8,11.8c0.6,2,1.2,4,1.7,6c0.3,1,0.5,2,0.8,3
			c0.2,1,0.5,2,0.6,3.1l-1.4-0.1l0.6-3l0.5-3l0.4-3l0.3-3c0.1-1,0.1-2,0.2-3.1c0.1-1,0.1-2,0.2-3.1c0.1-2,0.2-4.1,0.2-6.1
			c0.1-4.1,0.2-8.2,0.3-12.3c0-2,0.1-4.1,0.2-6.1c0.1-2,0.3-4.1,0.5-6.1c-0.2,2-0.3,4.1-0.3,6.1c0,2,0,4.1,0,6.1
			c0,4.1,0.1,8.2,0.1,12.3c0,4.1-0.1,8.2-0.3,12.3l-0.2,3.1l-0.3,3.1l-0.4,3.1l-0.6,3.1l-0.8,4.2l-0.6-4.2c-0.1-1-0.4-2-0.6-3
			c-0.3-1-0.5-2-0.8-3c-0.6-2-1.2-3.9-1.8-5.9L42.8,261c-1.3-3.9-2.6-7.8-3.9-11.8c-0.6-2-1.2-4-1.8-6c-0.3-1-0.6-2-0.8-3
			c-0.2-1-0.5-2-0.6-3.1l1.7,0.3c-2.1,3.7-4.2,7.6-6.9,11.1c-1.4,1.7-2.8,3.4-4.6,4.9c-1.7,1.5-3.7,2.7-5.8,3.5l-1.5,0.6l0.3-1.7
			c0.3-1.5,0.6-2.9,0.8-4.4c0.2-1.5,0.5-2.9,0.6-4.4c0.2-1.5,0.3-3,0.4-4.5c0.1-1.5,0.3-3,0.3-4.5l0.3-4.5c0.1-1.5,0.2-3,0.2-4.5
			c0.1-3,0.2-6,0.3-9c0-3,0.1-6,0.1-9l0-9L21.8,184z"/>
	</g>
</g>
</svg>
