<?xml version="1.0" encoding="utf-8"?>
<!-- Generator: Adobe Illustrator 19.0.0, SVG Export Plug-In . SVG Version: 6.00 Build 0)  -->
<svg version="1.1" id="Layer_1" xmlns="http://www.w3.org/2000/svg" xmlns:xlink="http://www.w3.org/1999/xlink" x="0px" y="0px"
	 viewBox="0 0 428 652" style="enable-background:new 0 0 428 652;" xml:space="preserve">
<style type="text/css">
	.st0{fill:#EF7B05;}
</style>
<path id="XMLID_926_" class="st0" d="M7.71533,121.06731C-1.33935,215.04614,29.85401,239.1264,29.7837,240.25214
	c-0.04004,0.6062,0.50146,1.13025,1.23242,1.19464c0.71191,0.05383,1.39355-0.35699,1.50928-0.9541
	c0.22656-1.18091,0.31543-2.37787,0.26953-3.57251c1.93311-22.84277,8.52979-45.13464,19.63184-66.30945
	c0.04834-0.09399,0.08057-0.19397,0.09961-0.29486c2.54932-14.86383,12.07812-28.01563,26.79394-37.50055
	c0.10547-0.05365,0.20361-0.11414,0.28564-0.1864c4.14746-2.64752,8.70215-5.00574,13.62549-7.03046
	c25.7832-10.59839,55.98779-10.1236,80.79541,1.27496c0.20508,0.09357,0.43115,0.14331,0.66846,0.14331
	c3.08447,0,6.03857-1.22156,8.89648-2.40295c2.57715-1.06543,5.01416-2.07294,7.35449-2.15552
	c18.24561,7.57636,42.35742,20.71558,54.31104,40.48255c4.08643,6.19458,9.92969,15.89868,15.36816,27.80212
	c1.56055,6.33197,3.27344,12.64386,5.39551,18.84119c1.87451,5.47656,4.04541,10.88965,6.39307,16.25293
	c7.61279,36.34216,1.5,79.56458-50.33594,111.26563c0,0-0.00293,0.00366-0.00488,0.005
	c-0.00439-0.00134-0.00684-0.00592-0.01123-0.00684c-0.76025-0.15204-1.48779,0.22278-1.67139,0.83539
	c-0.3667,1.23798-0.59961,2.51117-0.8374,3.7829c-12.20947,25.61652-12.77783,55.80975-1.23291,79.88141
	c9.30029,19.40088,26.04736,34.21674,48.58496,43.06128l-2.61523,0.31409c-55.27051,10.9845-45.13428,54.44019-36.99268,89.35718
	l1.25098,5.42084c1.05127,4.57361-1.26172,8.05981-3.38623,10.17706c-4.03271,4.02576-10.99902,6.72729-17.33984,6.72729
	c-5.27881,0-9.83447,0-11.77539-11.79578c-0.10254-0.59296-0.62012-1.07043-1.47754-0.98053
	c-0.72754,0.04382-1.2832,0.55237-1.27246,1.15857c0.21582,9.64246,7.1333,18.05469,18.04639,21.95129
	c7.71582,2.75037,16.03516,2.78094,23.33008,0.30267c-2.78223,3.61951-4.53418,7.89093-5.09521,12.54938
	c-0.99707,8.34515,2.1084,16.89569,8.31396,22.86884c0.01514,0.01465,0.04297,0.00775,0.05811,0.02191
	c0.01758,0.01508,0.01025,0.03882,0.02832,0.05389c7.75342,6.17859,15.74414,9.29504,23.62646,9.29504
	c4.4375,0,8.8374-0.98962,13.14014-2.97815c0.44678-0.20496,0.72217-0.60162,0.70605-1.02527l-0.11328-3.33008
	c-0.01611-0.38757-0.26416-0.74457-0.66309-0.94495c-0.4043-0.20496-0.89502-0.22736-1.32129-0.04932
	c-2.46387,0.98102-5.4292,0.99426-8.34082,0.0224c-3.56934-1.19006-6.5835-3.7049-7.85596-6.56616
	c-2.16699-4.8548-0.78174-11.09595,3.70947-16.69116c3.19775-3.98474,7.53271-7.39063,11.72705-10.68054
	c1.17041-0.91846,2.34033-1.83691,3.48877-2.76862c0.6958-0.56604,1.60107-1.19464,2.63623-1.91681
	c7.06348-4.93054,20.20898-14.10919,18.39697-35.87286c0,0-0.00293-0.00275-0.00293-0.00458
	c0.09229-1.10016-0.19727-2.89191-0.69141-5.20581c7.53223,13.29254,8.75635,29.2099,2.38721,42.82617
	c-1.62305,3.46838-3.73633,6.91443-5.77979,10.24866c-4.24316,6.91907-8.63232,14.0741-9.04736,21.99103
	c-0.39893,7.81055,3.52051,15.29108,10.24414,19.52594c3.87695,2.44269,8.63818,3.6734,13.28564,3.6734
	c4.38867,0,8.6748-1.09698,12.01807-3.30823c3.65527-2.42029,5.99609-6.33881,6.25977-10.49384
	c0.16602-2.59467-0.5625-5.04694-1.94629-7.1272c4.25732-1.53607,6.98779-5.32355,7.80225-8.81433
	c0.78174-3.32556,0.35547-6.68213-0.06006-9.9278c-0.12891-1.00336-0.25879-2.00128-0.35059-3.00464
	c-1.05811-11.42139,0.58398-19.78888,5.43896-27.16986c-0.14795,1.35437-0.23193,2.71698-0.1543,4.10016
	c0.62012,11.04712,9.85596,21.35333,22.45117,25.06232c3.53662,1.04352,7.2627,1.54248,10.99365,1.54248
	c9.56494,0,19.14648-3.29407,25.56738-9.2193c0.35059-0.32501,0.44775-0.78839,0.24854-1.19421
	c-0.19971-0.40582-0.66357-0.67743-1.19189-0.70892c-1.3335-0.06891-2.97266-0.49982-4.67188-1.08734
	c-0.06934-0.03516-0.09082-0.10864-0.16992-0.13379c-0.88721-0.28302-1.73145-0.61395-2.56396-0.9577
	c-2.4165-1.17499-4.81787-2.77228-6.68262-4.79773c-2.00586-2.1756-4.15674-5.69745-3.04102-10.10626
	c0.0083-0.03375-0.02686-0.06024-0.02148-0.09399c0.00537-0.03381,0.04639-0.05389,0.04834-0.08856
	c1.11084-22.11334,11.08008-44.02856,20.72021-65.22162c5.02539-11.05579,10.22852-22.48633,14.0293-33.69092
	c12.98926-38.34296,6.85303-60.92419-18.75732-68.94385c15.26904-12.26593,18.94092-24.76648,20.00879-41.93146
	c0.77588-12.53979-8.81592-22.70221-18.09473-32.52679c-7.73193-8.18762-15.03223-15.92151-15.03809-24.10913
	c-1.49902-16.1488-1.77881-32.58661-2.04883-48.48212c-0.71729-42.55731-1.46094-86.56165-25.69727-129.97217
	c-26.03125-43.04798-59.08789-90.95948-122.15527-114.66236c-31.8623-11.28857-67.5498-13.3277-100.88135-6.11377
	c-0.18555-0.01141-0.36084-0.07623-0.54883-0.02283c-0.63916,0.1908-1.20361,0.38983-1.83154,0.58203
	c-0.4707,0.10822-0.93994,0.21869-1.40967,0.33093c-0.49219,0.05432-0.99072,0.08722-1.48145,0.14612
	c-0.32813,0.03925-0.58057,0.20087-0.7876,0.38757c-5.33057,1.34619-10.59326,2.91785-15.75439,4.74792
	C67.93066,34.14452,56.5918,40.39709,34.2837,72.62536l-1.76904,2.52991c-4.58984,6.55518-11.7085,16.76691-17.39502,27.71448
	c-0.0415,0.07806-0.09863,0.16156-0.13867,0.23871c-0.00781,0.01465,0.00586,0.02881-0.00098,0.04291
	C11.92334,109.0689,8.44016,117.83401,7.71533,121.06731 M63.57666,122.47588c0.37207-0.26117,0.73486-0.52789,1.11084-0.78668
	C64.31201,121.94799,63.94873,122.21478,63.57666,122.47588z M66.32764,139.9873c-0.39404,0.3811-0.78223,0.76563-1.16406,1.15344
	C65.54541,140.75287,65.93311,140.36841,66.32764,139.9873z M374.72412,574.70947c0,0,0.00488,0.00641,0.00488,0.01099
	c0-0.00458-0.00537-0.00641-0.00537-0.00641c0.0708-1.40613,0.17627-2.81079,0.31396-4.21375
	C374.8999,571.90179,374.79492,573.30487,374.72412,574.70947z M90.81836,75.3037c-0.27832,0.29077-0.55762,0.57947-0.83105,0.87714
	C90.26074,75.88317,90.54004,75.59447,90.81836,75.3037z M89.35449,76.88921c-0.26123,0.29358-0.52441,0.58551-0.78125,0.88519
	C88.83008,77.47466,89.09277,77.18285,89.35449,76.88921z M87.94824,78.52294c-0.24951,0.30023-0.5,0.59924-0.74463,0.90503
	C87.44824,79.12218,87.69873,78.82323,87.94824,78.52294z M86.59326,80.2102c-0.23779,0.30646-0.47656,0.61218-0.70947,0.92365
	C86.1167,80.82226,86.35547,80.51672,86.59326,80.2102z M92.34033,73.77007c-0.30029,0.29132-0.60156,0.58032-0.89648,0.8797
	C91.73877,74.3504,92.04004,74.06139,92.34033,73.77007z M93.95654,72.25927c-0.33984,0.30511-0.68018,0.60876-1.01465,0.92426
	C93.27637,72.86797,93.6167,72.56438,93.95654,72.25927z M96.0459,70.46569c-0.52881,0.42773-1.05176,0.86908-1.56934,1.32196
	C94.99414,71.33471,95.51709,70.89342,96.0459,70.46569z M43.2002,139.76331c-0.42139,0.435-0.8291,0.87604-1.24268,1.3147
	C42.3711,140.63934,42.77881,140.1983,43.2002,139.76331z M40.56543,142.56543c-0.40674,0.44562-0.80029,0.89679-1.19873,1.34601
	C39.76514,143.46228,40.1587,143.01111,40.56543,142.56543z M38.04444,145.41339c-0.39258,0.45685-0.77148,0.91876-1.15527,1.37903
	C37.27295,146.33209,37.65186,145.87024,38.04444,145.41339z M35.63428,148.30981c-0.37451,0.46448-0.73633,0.93365-1.10254,1.40143
	C34.89795,149.24347,35.25977,148.77435,35.63428,148.30981z M33.33887,151.24976c-0.35742,0.47284-0.70313,0.94995-1.05176,1.42596
	C32.63575,152.19971,32.98145,151.7226,33.33887,151.24976z M31.15821,154.23138c-0.34033,0.48102-0.66846,0.966-1,1.45013
	C30.48975,155.19739,30.81836,154.71246,31.15821,154.23138z M29.09424,157.25195c-0.32178,0.4881-0.63281,0.97968-0.9458,1.47064
	C28.46143,158.23163,28.77246,157.74011,29.09424,157.25195z M27.146,160.31305c-0.30322,0.49359-0.5957,0.99042-0.88965,1.48669
	C26.5503,161.30341,26.84278,160.8067,27.146,160.31305z M25.3169,163.40649c-0.28467,0.50073-0.55957,1.00427-0.83496,1.50757
	C24.75733,164.41071,25.03223,163.90729,25.3169,163.40649z M23.60645,166.53461c-0.26611,0.50696-0.52246,1.01636-0.7793,1.5257
	C23.08399,167.55096,23.34034,167.04163,23.60645,166.53461z M22.01758,169.69165c-0.24805,0.51416-0.48682,1.03046-0.7251,1.54688
	C21.53077,170.72211,21.76954,170.20587,22.01758,169.69165z M20.54883,172.87878c-0.22852,0.51929-0.44824,1.04047-0.66699,1.56189
	C20.10059,173.91925,20.32032,173.39813,20.54883,172.87878z M19.20118,176.09436c-0.2085,0.52332-0.40869,1.04828-0.60742,1.57355
	C18.79248,177.14264,18.99268,176.6178,19.20118,176.09436z M17.97705,179.33496c-0.18848,0.52667-0.36865,1.05469-0.54736,1.58313
	C17.6084,180.38965,17.78858,179.86169,17.97705,179.33496z M45.9458,137.01263c-0.43652,0.42462-0.85938,0.85583-1.2876,1.2843
	C45.08643,137.86853,45.50928,137.43726,45.9458,137.01263z M61.29834,124.09191c-0.44385,0.32379-0.87305,0.65613-1.31152,0.98322
	C60.4253,124.74804,60.8545,124.4157,61.29834,124.09191z M58.01465,126.55761c-0.46289,0.3576-0.91113,0.72363-1.36768,1.08496
	C57.10352,127.28124,57.55176,126.91521,58.01465,126.55761z M54.83594,129.08502c-0.46289,0.37866-0.91113,0.76532-1.3667,1.14783
	C53.92481,129.85028,54.37305,129.46368,54.83594,129.08502z M48.80079,134.31451c-0.44873,0.4118-0.8833,0.83075-1.32422,1.24646
	C47.91748,135.14526,48.35205,134.72632,48.80079,134.31451z M73.47656,133.95361c-0.4668,0.3457-0.93262,0.69257-1.3877,1.04596
	C72.54443,134.64612,73.00928,134.29938,73.47656,133.95361z M70.9668,135.89362c-0.44092,0.35645-0.87891,0.71478-1.30811,1.07855
	C70.08789,136.6084,70.52588,136.25012,70.9668,135.89362z M73.43604,115.8189c0.00195,0.40625,0.01904,0.80994,0.03271,1.21423
	C73.45508,116.62884,73.43799,116.22515,73.43604,115.8189z M76.28076,99.30431c-0.12207,0.36072-0.23828,0.72235-0.35303,1.08435
	C76.04248,100.0266,76.15869,99.66503,76.28076,99.30431z M75.62842,101.35595c-0.1084,0.36371-0.20996,0.72833-0.31104,1.09296
	C75.41846,102.08416,75.52002,101.71972,75.62842,101.35595z M75.05469,103.4212c-0.09424,0.36554-0.18066,0.73175-0.26709,1.0979
	C74.87402,104.15289,74.96045,103.78686,75.05469,103.4212z M74.1582,107.56322c-0.06543,0.37408-0.12061,0.74786-0.17773,1.12183
	C74.0376,108.31109,74.09277,107.93731,74.1582,107.56322z M73.83936,109.63726c-0.0498,0.37805-0.08838,0.75549-0.12939,1.133
	C73.75098,110.39263,73.78955,110.01537,73.83936,109.63726z M73.61133,111.70635c-0.03369,0.38342-0.05518,0.76569-0.07959,1.14819
	C73.55615,112.47198,73.57764,112.08984,73.61133,111.70635z M73.47559,113.76836c-0.0166,0.39056-0.01953,0.7793-0.02539,1.16852
	C73.45605,114.5476,73.45898,114.15899,73.47559,113.76836z M85.29053,81.94762c-0.22754,0.31403-0.45508,0.62781-0.67773,0.94641
	C84.83545,82.57531,85.06299,82.26165,85.29053,81.94762z M84.04297,83.7304c-0.21729,0.32141-0.43408,0.64301-0.646,0.96869
	C83.60889,84.37334,83.82568,84.05193,84.04297,83.7304z M82.84961,85.5606c-0.20605,0.32782-0.41162,0.65601-0.6123,0.98761
	C82.43799,86.21655,82.64355,85.88842,82.84961,85.5606z M81.71533,87.43133c-0.19482,0.33331-0.38867,0.66736-0.57764,1.00409
	C81.32666,88.09863,81.52002,87.76476,81.71533,87.43133z M79.63232,91.27892c-0.17236,0.34503-0.3418,0.6911-0.50781,1.03888
	C79.29053,91.96996,79.45996,91.62402,79.63232,91.27892z M78.68896,93.24895c-0.16064,0.3501-0.31787,0.70148-0.47168,1.05396
	C78.37158,93.95031,78.52832,93.59917,78.68896,93.24895z M77.81396,95.24596c-0.14795,0.35388-0.29199,0.70892-0.43311,1.06482
	C77.52246,95.95483,77.66602,95.59991,77.81396,95.24596z M77.00928,97.26751c-0.13428,0.35651-0.26416,0.71411-0.39209,1.0722
	C76.74512,97.98156,76.875,97.62408,77.00928,97.26751z M375.18848,569.25769c0.11035-0.98584,0.21729-1.97198,0.3584-2.95624
	C375.40576,567.28571,375.29883,568.27179,375.18848,569.25769z M31.81153,222.77661
	c0.02686-0.15796,0.05811-0.31525,0.08496-0.47314 M32.14844,220.90027c0.13379-0.74152,0.27002-1.48267,0.41357-2.22278
	C32.41846,219.4176,32.28223,220.15869,32.14844,220.90027z M47.99805,173.41644c0.53369-1.07446,1.07861-2.14636,1.63477-3.21527
	c0.12354-0.23669,0.20947-0.49121,0.25732-0.75372c0.09229-0.5036,0.21045-1.00049,0.31787-1.50012
	c-0.13574,0.63055-0.27734,1.25958-0.38867,1.89648C49.19825,171.03119,48.59131,172.22217,47.99805,173.41644z M32.85791,217.2005
	c0.146-0.71881,0.29639-1.43695,0.45166-2.15436C33.1543,215.76349,33.00391,216.48169,32.85791,217.2005z M33.6377,213.56317
	c0.16309-0.72205,0.33252-1.44312,0.50537-2.16364C33.97022,212.12006,33.80079,212.84113,33.6377,213.56317z M34.49219,209.95819
	c0.1875-0.7533,0.3833-1.50507,0.58105-2.25665C34.87549,208.45306,34.67969,209.2049,34.49219,209.95819z M35.42237,206.37543
	c0.2373-0.87262,0.48535-1.74329,0.73633-2.61346C35.90772,204.63214,35.65967,205.50281,35.42237,206.37543z M37.76563,198.49963
	c0.29736-0.92169,0.59961-1.84253,0.91309-2.76117C38.36524,196.6571,38.06299,197.578,37.76563,198.49963z M39.12012,194.47607
	c0.26367-0.75439,0.5293-1.50854,0.80322-2.2608C39.64942,192.96759,39.38379,193.72168,39.12012,194.47607z M40.43995,190.82709
	c0.26563-0.71094,0.53467-1.42126,0.81006-2.13025C40.97461,189.40582,40.70557,190.11615,40.43995,190.82709z M41.81202,187.27069
	c0.27832-0.69812,0.56152-1.39508,0.84863-2.09125C42.37354,185.87555,42.09034,186.57263,41.81202,187.27069z M43.25049,183.76428
	c0.2998-0.70984,0.60693-1.41809,0.9165-2.12579C43.85743,182.34619,43.5503,183.05444,43.25049,183.76428z M44.76026,180.28833
	c0.33936-0.75891,0.68799-1.51569,1.03857-2.27209C45.44825,178.77264,45.09961,179.52942,44.76026,180.28833z M46.34327,176.83856
	c0.48145-1.02039,0.97412-2.03809,1.47607-3.05365C47.31739,174.80048,46.82471,175.81818,46.34327,176.83856z M52.22608,161.03015
	c0.26416-0.70825,0.53516-1.41418,0.83105-2.11182C52.76123,159.61603,52.49024,160.32196,52.22608,161.03015z M50.4292,166.90375
	c0.15576-0.65466,0.33691-1.30219,0.51904-1.9494C50.76612,165.60156,50.58496,166.24908,50.4292,166.90375z M51.15332,164.19653
	c0.26709-0.89545,0.55908-1.78375,0.87646-2.66394C51.71241,162.41284,51.42041,163.30103,51.15332,164.19653z M64.19971,142.13763
	c-0.37207,0.3941-0.73584,0.79242-1.09521,1.19305C63.46436,142.92999,63.82764,142.53174,64.19971,142.13763z M62.20118,144.3548
	c-0.35059,0.40839-0.69092,0.82172-1.02881,1.23639C61.51026,145.17645,61.85059,144.76324,62.20118,144.3548z M60.33496,146.63538
	c-0.32959,0.42334-0.64648,0.85223-0.9624,1.2818C59.68848,147.48761,60.00537,147.05878,60.33496,146.63538z M58.60157,148.979
	c-0.30859,0.44-0.60254,0.88623-0.89697,1.33228C57.99903,149.86517,58.29297,149.41907,58.60157,148.979z M57.00537,151.38086
	c-0.29004,0.46136-0.5625,0.92944-0.83691,1.39685C56.44287,152.31024,56.71534,151.84222,57.00537,151.38086z M55.54737,153.8396
	c-0.27344,0.4906-0.52734,0.98846-0.78418,1.48535C55.02002,154.828,55.27393,154.33026,55.54737,153.8396z M54.23047,156.35309
	c-0.26514,0.54138-0.50781,1.09064-0.75342,1.63904C53.72266,157.44373,53.96534,156.89453,54.23047,156.35309z M67.34961,139.02008
	c0.40479-0.37531,0.81689-0.74634,1.23438-1.11469C68.1665,138.27368,67.75439,138.64478,67.34961,139.02008z M73.49463,117.85296
	c0.02393,0.44781,0.06543,0.89227,0.10449,1.3371C73.56006,118.74523,73.51855,118.30083,73.49463,117.85296z M73.65381,119.86785
	c0.06836,0.64563,0.15332,1.28735,0.25439,1.92523C73.80713,121.1552,73.72217,120.51348,73.65381,119.86785z M73.91748,121.86053
	c0.10547,0.65924,0.22949,1.31372,0.37109,1.96332C74.14697,123.17425,74.02295,122.51977,73.91748,121.86053z M74.4458,124.46105
	c0.10303,0.43378,0.2041,0.8681,0.32373,1.29688C74.6499,125.32909,74.54883,124.89483,74.4458,124.46105z M75.00049,126.50677
	c0.11719,0.38452,0.23047,0.77008,0.36182,1.15002C75.23096,127.27685,75.11768,126.89129,75.00049,126.50677z"/>
</svg>
