<?xml version="1.0" encoding="utf-8"?>
<!-- Generator: Adobe Illustrator 19.0.0, SVG Export Plug-In . SVG Version: 6.00 Build 0)  -->
<svg version="1.1" id="Layer_1" xmlns="http://www.w3.org/2000/svg" xmlns:xlink="http://www.w3.org/1999/xlink" x="0px" y="0px"
	 viewBox="-361.5 113 490 580" style="enable-background:new -361.5 113 490 580;" xml:space="preserve">
<style type="text/css">
	.st0{fill:#EF7B05;}
</style>
<path id="XMLID_228_" class="st0" d="M91.5,454.8c0-3.3-1.3-6.3-3.3-8.6c3.2-3.2,5.3-7.5,5.3-12.4c0-7-4.2-13-10.2-15.8
	c4.1-3.5,6.8-8.6,6.8-14.5c0-10.5-8.5-19-19-19c-1.9,0-3.7,0.4-5.4,0.9c1.1-3.6,1.8-7.7,1.8-12c0-14.4-6.9-26-15.3-26
	c-0.4,0-0.7,0.1-1.1,0.2c-1.9-5.7-6.1-10.1-11.4-11.9c0-0.3,0.1-0.6,0.1-0.9c0-14-10-25.4-22.3-25.4c-0.7,0-1.5,0.2-2.2,0.3
	c0-0.1,0-0.2,0-0.3c0-11-18.1-20-40.4-20c-3.5,0-6.8,0.2-10,0.6c0-0.2,0-0.4,0-0.6c0-16.8-16.6-30.5-37.1-30.5
	c-9.1,0-17.4,2.7-23.9,7.2c-9-4.1-20.4-6.6-32.9-6.6c-29.2,0-52.8,13.6-52.8,30.5c0,0.2,0,0.4,0.1,0.6c-3.2-0.4-6.5-0.6-10-0.6
	c-22.3,0-40.4,9-40.4,20c0,0.1,0,0.2,0,0.2c-0.7-0.1-1.4-0.2-2.2-0.2c-12.3,0-22.3,11.4-22.3,25.4c0,0.3,0.1,0.6,0.1,0.9
	c-5.3,1.7-9.5,6.1-11.4,11.9c-0.4,0-0.7-0.2-1.1-0.2c-8.5,0-15.3,11.6-15.3,26c0,4.4,0.7,8.4,1.8,12c-1.7-0.5-3.5-0.9-5.4-0.9
	c-10.5,0-19,8.5-19,19c0,5.8,2.7,11,6.8,14.4c-6,2.8-10.2,8.8-10.2,15.8c0,4.8,2,9.2,5.3,12.4c-2,2.3-3.3,5.3-3.3,8.6
	c0,4.4,2.1,8.2,5.4,10.6c-1.8,1.5-2.9,3.8-2.9,6.3c0,3.2,1.8,5.9,4.5,7.4c-3.3,1.4-5.5,4.2-5.5,7.4c0,4.3,4,7.9,9.2,8.3
	c-1.6,1.1-2.8,2.6-2.8,4.5c0,2.7,2.3,4.8,5.3,5.5c0,0.4,0,0.7,0.1,1.1c-0.9,1.3-1.5,3-1.5,4.8c0,3.8,2.3,6.9,5.5,7.7
	c3.6,2.9,7.4,6.7,10,12.5c6,13,8.3,10.7,8.3,10.7s-9.4-50.7-9.4-64.8c0-14,71.4-101.2,101.3-109.5c29.5-8.2,39.8,16.5,71.4,17h2.5
	c32.2,0,35.6-27,65.7-18.7c29.9,8.4,107,97.2,107,111.3c0,14.1-9.4,64.8-9.4,64.8s2.3,2.2,8.2-10.7c2.9-6.4,7.2-10.3,11-13.4
	c0,0,0-0.1,0-0.1c2.4-1.2,4.1-4,4.1-7.2c0-2.3-0.8-4.3-2.2-5.7c3.4-0.4,6.1-2.7,6.1-5.6c0-1.8-1.1-3.4-2.8-4.5
	c5.2-0.5,9.2-4,9.2-8.3c0-3.2-2.2-6-5.5-7.4c2.6-1.4,4.5-4.2,4.5-7.3c0-2.5-1.2-4.8-2.9-6.3C89.4,462.9,91.5,459.1,91.5,454.8z"/>
</svg>
