<?xml version="1.0" encoding="utf-8"?>
<!-- Generator: Adobe Illustrator 19.0.0, SVG Export Plug-In . SVG Version: 6.00 Build 0)  -->
<svg version="1.1" id="Layer_1" xmlns="http://www.w3.org/2000/svg" xmlns:xlink="http://www.w3.org/1999/xlink" x="0px" y="0px"
	 viewBox="-180 -23 598 606" enable-background="new -180 -23 598 606" xml:space="preserve">
<g id="XMLID_312_">
	<path id="XMLID_2243_" fill="#EF7B05" d="M58.5,58c-59.8-0.5-107.8,43.3-125.3,93.2c-5,14.3-8.4,30.1-9.8,45.1
		c-2,20.8,0.4,41.1,8.3,60.7c6.8,16.9,15.6,33,20.3,50.6c10,37.5-0.7,69.9-5.4,106.9c-4.4,34.3,12.2,82.3,54.2,90.8
		c32.3,6.6,66.2-22.4,44.4-49.6c9.3,22.1-23,32-36,13.3c-16-22.9-0.6-55.1,15.1-74.3c14.4-17.7,22.3-42.4,24.4-64.1
		c2.6-27-4.5-53.6-11.8-79.6c-6.5-23.2-17.9-44.8-6.4-68.4c6.5-13.3,19.6-25.1,32.7-33.2c13.1-8.1,24.1-12.4,40.2-12.2
		c15,0.2,32.4,3.1,45-6.3c17.6-13.1-11.1-45.7-22.8-53.9C106.5,63.5,82.2,58.2,58.5,58z"/>
	<path id="XMLID_2242_" fill="#EF7B05" d="M115.8,146.2c10.2-0.2,21,3.7,31.8,0.8c7.4-2,15.5-4.9,19-11.6c0.8-1.5,46.8-0.4,67.8,6.6
		c9.7,3.2,16.8,8.4,25.2,13.6c27.1,16.7,41.6,39.5,52.5,67.2c11.3,28.9,16.7,62,3.9,91.3c-10.4,23.8-33.7,39.7-54.4,55.9
		c-0.2,0.2-0.2,0.3,0,0c14.5-24.6,26.4-60.4,8.7-86.2c-13.8-20-82.6-28.2-103.3-40.9c-19-11.6-28.4-35.2-29.1-55.5
		c-2.8,18.1-5.8,49.6,6.3,65.3c-6.9-9.9-15.6-16.1-19.9-27.9c-4.7-12.8-5.5-26.8-1.7-40c-5.5,19.4-24.2,35.1-35.8,51.6
		c-13.1,18.7-29.6,33.4-32.7,56.4c-2.5,18.6-26,43.8-15.9,61.9c-6.8-12.8-6.7-24.3-13.5-37.5c-8.4-16.4-14-34.1-15.2-52.2
		C6,211.1,53.6,162.4,108.8,147.1C111.1,146.6,113.4,146.3,115.8,146.2z"/>
	<g id="XMLID_314_">
		<path id="XMLID_351_" fill="#FFFFFF" d="M154.1,126.5c0,0-0.2,0.5-0.7,1.5s-1.3,2.4-2.5,4c-1.3,1.6-3,3.5-5.3,5.3
			s-5.2,3.5-8.5,4.9s-7.1,2.6-11.1,3.3c-4,0.8-8.3,1.2-12.6,1.4c-2.2,0.1-4.3,0.2-6.5,0.3s-4.3,0.2-6.5,0.3s-4.3,0.3-6.5,0.5
			c-1.1,0.1-2.2,0.3-3.2,0.4l-1.7,0.2l-1.5,0.3c-1,0.2-2.1,0.3-3.1,0.5s-2.1,0.5-3.1,0.7c-1.1,0.2-2.1,0.5-3.1,0.8s-2.1,0.5-3.1,0.9
			c-4,1.3-8,2.7-11.7,4.5c-1.9,0.8-3.6,1.8-5.4,2.6c-1.7,1-3.4,1.8-5,2.8s-3.2,1.9-4.7,2.9c-0.7,0.5-1.5,1-2.2,1.5s-1.4,1-2,1.5
			c-0.7,0.5-1.3,1-2,1.4c-0.6,0.5-1.2,1-1.8,1.5c-1.2,1-2.3,1.8-3.3,2.8c-1,0.9-2,1.7-2.9,2.5s-1.6,1.6-2.4,2.3
			c-1.5,1.4-2.5,2.5-3.3,3.3s-1.2,1.2-1.2,1.2s0.3-0.5,0.7-1.5c0.3-0.5,0.6-1.1,0.9-1.8c0.2-0.3,0.4-0.7,0.6-1.1
			c0.2-0.4,0.5-0.8,0.7-1.2c0.5-0.9,1.1-1.8,1.8-2.8s1.5-2.1,2.3-3.2c0.8-1.2,1.8-2.3,2.8-3.5c0.5-0.6,1-1.2,1.6-1.9
			c0.6-0.6,1.2-1.2,1.8-1.9c1.2-1.3,2.6-2.5,4-3.8s3-2.5,4.5-3.8c0.8-0.7,1.6-1.2,2.5-1.8s1.7-1.2,2.6-1.8c0.9-0.6,1.8-1.1,2.8-1.7
			c0.9-0.6,1.9-1.1,2.9-1.6s2-1,3-1.6c1-0.5,2.1-0.9,3.1-1.4c2.1-1,4.3-1.8,6.4-2.6c1.1-0.4,2.2-0.7,3.4-1.1c1.1-0.4,2.3-0.7,3.4-1
			c1.2-0.3,2.3-0.6,3.5-0.8s2.4-0.5,3.6-0.7l1.8-0.3l1.7-0.2c1.2-0.1,2.3-0.3,3.5-0.4c2.4-0.2,4.7-0.3,7-0.3s4.5,0,6.7,0
			c2.2,0.1,4.3,0.1,6.4,0.1c4.2,0.1,8.1,0.1,11.9-0.2c3.7-0.2,7.1-0.8,10.3-1.5c3.1-0.8,5.9-1.8,8.3-2.9c2.4-1.1,4.4-2.4,5.9-3.6
			c1.5-1.2,2.6-2.2,3.4-3C153.7,126.9,154.1,126.5,154.1,126.5z"/>
	</g>
	<g id="XMLID_313_">
		<path id="XMLID_349_" fill="#FFFFFF" d="M274.3,361.9c0,0,2.6-2.5,7.1-6.8c2.2-2.2,5-4.8,8-7.9s6.4-6.6,9.7-10.7
			c3.4-4.1,6.8-8.7,9.8-13.9c1.5-2.6,2.9-5.3,4.2-8.2c0.6-1.4,1.2-2.9,1.7-4.4c0.6-1.6,1-3.1,1.5-4.6c1.8-6.3,2.7-13,3.2-19.9
			s0.5-14,0.3-21.1c-0.4-6.9-1.7-13.9-3.1-20.7c-1.5-6.8-3.2-13.4-5.5-19.7c-1.2-3-2.5-6-3.9-8.8c-1.5-2.8-3.1-5.5-4.7-8
			c-3.3-5.1-7-9.5-10.7-13.3s-7.3-7.1-10.6-9.9c-3.3-2.8-6.4-5.1-8.8-6.9c-2.5-1.9-4.5-3.4-5.8-4.4s-2-1.7-2-1.7s0.7,0.6,2,1.6
			c1.4,1,3.4,2.4,6,4.1c2.6,1.8,5.7,3.9,9.2,6.6c3.5,2.7,7.3,5.8,11.1,9.6c3.8,3.8,7.7,8.2,11.3,13.2c1.8,2.5,3.5,5.2,5,8.1
			c1.6,2.9,3,5.9,4.3,9c2.5,6.3,4.5,13,6.3,19.8c0.9,3.4,1.6,6.9,2.3,10.5c0.6,3.6,1.2,7.1,1.4,10.8c0.2,3.6,0.2,7.2,0.2,10.8
			c0,3.6-0.1,7.2-0.3,10.7c-0.5,7.1-1.5,14.1-3.4,20.7s-4.8,12.7-8.1,18c-3.3,5.3-7.1,9.9-10.7,13.9c-3.7,4-7.3,7.4-10.5,10.3
			c-3.3,2.9-6.2,5.3-8.6,7.3s-4.4,3.5-5.7,4.5C275,361.3,274.3,361.9,274.3,361.9z"/>
	</g>
</g>
</svg>
