<?xml version="1.0" encoding="utf-8"?>
<!-- Generator: Adobe Illustrator 19.0.0, SVG Export Plug-In . SVG Version: 6.00 Build 0)  -->
<svg version="1.1" id="Layer_1" xmlns="http://www.w3.org/2000/svg" xmlns:xlink="http://www.w3.org/1999/xlink" x="0px" y="0px"
	 viewBox="-220 47.1 517.6 466.9" enable-background="new -220 47.1 517.6 466.9" xml:space="preserve">
<g id="XMLID_131_">
	<path id="XMLID_20885_" fill="#654639" d="M126.7833,184.426L126.7833,184.426L126.7833,184.426c0.5,0.4,1,0.8,1.4,1.2
		C127.7833,185.226,127.2833,184.826,126.7833,184.426z"/>
	<path id="XMLID_20884_" fill="#654639" d="M159.6833,484.426c0.7-2,1.7-3.8,2.9-5.3c0.5,0.8,1,1.6,1.1,2.6
		C164.0833,483.926,160.9833,486.326,159.6833,484.426z"/>
	<path id="XMLID_20881_" fill="#654639" d="M218.5833,443.526c1.3-2.2,2.7-4.4,4-6.6
		C222.3833,439.726,221.1833,442.326,218.5833,443.526z"/>
	<path id="XMLID_20871_" fill="#EF7B05" d="M172.7833,263.726c-0.1-0.6-0.2-1.1-0.4-1.7c-0.3-1.1-0.5-2.3-0.8-3.4
		c-0.1-0.6-0.3-1.1-0.4-1.7c-0.1-0.6-0.3-1.1-0.5-1.7c-0.3-1.1-0.6-2.2-0.9-3.3c-0.2-0.6-0.3-1.1-0.5-1.7c-0.8-2.8-1.8-5.5-2.7-8.1
		c-0.4-1.1-0.8-2.1-1.2-3.2c-0.2-0.5-0.4-1-0.6-1.6c-0.5-1.2-1-2.4-1.5-3.7c-0.5-1.1-1-2.2-1.5-3.3c-0.3-0.7-0.6-1.3-0.9-2
		c-0.1-0.1-0.1-0.1-0.2-0.2c-0.1-0.1-0.2-0.2-0.3-0.2c0.1,0.1,0.1,0.3,0.2,0.4c0,0.1,0.1,0.1,0.1,0.1c1.4,2.8,2.6,5.7,3.8,8.6
		c0.2,0.5,0.4,1.1,0.6,1.6c0.4,1.1,0.8,2.1,1.2,3.2c1,2.7,1.9,5.4,2.7,8.1c0.7,2.2,1.3,4.4,1.9,6.7c0.1,0.6,0.3,1.1,0.4,1.7
		c0.3,1.1,0.5,2.3,0.8,3.4c0.1,0.6,0.3,1.1,0.4,1.7c0.1,0.6,0.3,1.2,0.4,1.8c0.1-0.1,0.2-0.2,0.2-0.3
		C172.9833,264.626,172.8833,264.226,172.7833,263.726z M175.9833,308.626c0,0,0.2-2.1,0.3-8.7c-0.1-0.4-0.2-0.7-0.3-1.1
		c-0.1,7.3-0.1,9.6-0.1,9.6 M172.7833,263.726c-0.1-0.6-0.2-1.1-0.4-1.7c-0.3-1.1-0.5-2.3-0.8-3.4c-0.1-0.6-0.3-1.1-0.4-1.7
		c-0.2-0.6-0.3-1.1-0.5-1.7c-0.3-1.1-0.6-2.2-0.9-3.3c-0.2-0.6-0.3-1.1-0.5-1.7c-0.8-2.8-1.8-5.5-2.7-8.1c-0.4-1.1-0.8-2.1-1.2-3.2
		c-0.2-0.5-0.5-1-0.7-1.6c-0.5-1.2-0.9-2.4-1.4-3.7c-0.5-1.1-1-2.2-1.5-3.3c-0.3-0.6-0.7-1.2-1.1-1.9c1.4,2.8,2.6,5.7,3.8,8.6
		c0.2,0.5,0.4,1.1,0.6,1.6c0.4,1.1,0.8,2.1,1.2,3.2c1,2.7,1.9,5.4,2.7,8.1c0.7,2.2,1.3,4.4,1.9,6.7c0.1,0.6,0.3,1.1,0.4,1.7
		c0.3,1.1,0.5,2.3,0.8,3.4c0.1,0.6,0.3,1.1,0.4,1.7c0.1,0.6,0.3,1.2,0.4,1.8c0.1-0.1,0.2-0.2,0.2-0.3
		C172.9833,264.626,172.8833,264.226,172.7833,263.726z M160.3833,228.026c0.1,0.1,0.1,0.3,0.2,0.4l0.1-0.1
		C160.4833,228.226,160.4833,228.126,160.3833,228.026z M156.5833,389.326c0-0.2,0-0.4,0.1-0.6 M156.5833,389.326
		c-0.1,1.5-0.2,3-0.4,4.5c-0.4,5.6-0.8,11.4,0.5,16.9c1,4.2,3,8.1,4.1,12.2c-0.1,0.1-0.1,0.1-0.1,0.2c-0.2,0.4-0.2,0.8-0.1,1.1v0.1
		c0,0.3,0.1,0.6,0.3,0.8c0,0.1,0.1,0.2,0.1,0.3c0.2,0.4,0.6,0.7,0.6,1.1l0,0c1,2.4,3.2,4.6,4.9,6.9l0,0c2,2.5,3.9,5,5,7.7
		c3.6,4.6,0,12.1-4.2,16.8c-4.5,5-10,11.7-6.8,17.8c0.6,1.1,1.5,2.2,2.2,3.2c4.8-6.2,13.3-9.7,20.8-13c9.4-4.2,19.8-11.3,19.4-21.6
		c0-1.1-0.2-2.2-0.5-3.3c0-0.1-0.1-0.2-0.1-0.4c-1.2-4.3-3.7-8.3-4.9-12.6c-1.8-6.3-0.4-13.1,3.2-18.6c2.9-4.5,7.2-8.1,12.2-9.8
		c1.3-0.4,2.6-0.7,3.9-0.9c-0.7,1-1.4,2.1-2.1,3.2c-1.8,3.2-2.9,6.7-2.5,10.3c0.6,4.9,4,8.8,6.8,12.9c0.6,0.8,1.2,1.7,1.7,2.6
		c1.5,2.6,2.4,6,2.2,9c5.7-9.4,11.6-18.8,17.4-28.3c0.9-1.5,1.5-3,2.4-4.6c0-0.1,0.1-0.2,0.2-0.3l0,0c0-0.1-0.1-0.2,0-0.3l0,0
		c0-1.5,0.4-2.9,0-4.4c-1.6-5.2-9-5.9-12.7-10c-3.4-3.8-2.8-9.9-0.1-14.3c2.7-4.4,7-7.4,11-10.6c6.5-5.1,12.7-11.2,14.9-19.1
		c2.2-7.9-1.3-17.9-9.2-20.3c-4.2-1.3-9.6-0.8-12.9-3l0,0c-0.1,0-0.1-0.1-0.2-0.1c-0.1-0.1-0.2-0.1-0.3-0.2
		c-0.7-0.6-1.3-1.3-1.7-2.2c-0.8-1.8-0.5-3.9,0-5.8c0.8-2.9,2.2-5.5,3.9-7.9c0.1-0.2,0.2-0.3,0.3-0.5c0,0,0-0.1,0.1-0.1l0,0
		c3.6-4.9,8.4-9.2,12.2-14c5.8-7.3,9-19.2,2-25.3c-4.5-3.9-11.8-4-16.6-7.1l-0.1-0.1c-1.2-0.8-2.2-1.7-3-2.9
		c-2.8-4.2-1.7-9.5-0.8-14.7c0-0.1,0.1-0.3,0.1-0.4c0.9-4.8,1.6-9.6-1.1-13.4c-1.1-1.6-2.7-2.6-4.4-3.6c-0.1,0-0.2-0.1-0.3-0.1
		c-4.2-2.1-9.3-3.2-12.1-6.9c-3.5-4.8-1.3-10.8,0.7-16.8c0-0.1,0-0.2,0.1-0.2c1.6-4.8,2.9-9.7,1.2-14.1c-3.3-8.2-15.5-9.3-20-16.9
		c-3.4-5.9-1.2-13.2-1.1-20c0.2-11.3-6.1-22-14.4-29.6c-8.3-7.6-18.8-12.6-29.1-17.1c-17-7.5-34.2-14.3-51.5-21.1
		c-3.4-1.3-6.8-2.7-10.2-4c-10.3-4-20.6-8.1-31.4-10.6c-9.1-2.1-18.5-3.1-27.9-2.9c-11.5,0.2-24.4,3.3-29.9,13.3
		c-1.8,3.3-2.7,7.2-5.6,9.6c-5.1,4.4-12.8,1.5-19.3-0.3c-11.1-3.2-26.3-0.6-29.3,10.6c-1.2,4.5-0.1,9.5-1.7,13.8
		c-5.1,13.6-30.9,10.7-33.1,25c-0.8,5.3,2.4,10.3,2.7,15.6c0.4,8.6-7.1,15.7-15,19.3s-16.7,4.9-24.2,9.2s-13.7,13.1-10.9,21.3
		c2.9,8.5,14.4,16.1,9.4,23.5c-1.3,2-3.6,3.1-5.8,4.2c-11.8,5.8-25.2,14.5-24.9,27.6c0.2,8.9,6.9,16,11.9,23.4
		c5,7.3,8.3,18,2.3,24.6c-7.9,8.7-25.4,2.9-31.9,12.8c-5.4,8.2,2.3,18.6,9.5,25.3c11.7,11,23.5,22.1,35.2,33.1
		c-8.4,4.8-16.7,9.6-25.1,14.4c-3.6,2.1-7.6,4.8-7.7,9c-0.1,2.1,1,4.1,2.2,5.9c11.2,16.6,32.9,21.6,51.9,28.1
		c5.5,1.9,11.6,4.7,13.5,10.2c2.1,5.9-1.8,12.6-7.2,15.8c-5.4,3.2-11.9,3.7-18.2,4.2c14.3,7.2,33.3,3.5,43.9-8.5
		c1.8-2.1,3.5-4.7,3.1-7.4c-0.4-2.9-3-5-4-7.7c-2.6-6.6,8.3-13.1,12.9-7.8c-6.2,8,0.8,22,10.9,21.9c-6,5.6-12.3,15.2-6.5,21.1
		c6.1,6.1,16.3-0.8,24.8,0.1c1.2,5.5-0.1,11.5-3.4,16.1c8.4-3.1,13.1-13.8,9.6-22.1c0.2-0.1,0.3-0.1,0.5-0.2c-3.4-6.7-6.3-14-5-21
		c0.1-0.5,0.2-1,0.3-1.5s0.3-1,0.5-1.5c0.8-2.1,2-4.1,2.4-6.4c0.7-4.2-1.7-8.3-4.5-11.4c-2.8-3.2-6.1-6.1-7.9-9.9
		c-2.2-4.8-1.5-10.1-0.5-15.4c0.9-4.7,0-9.5-2.4-13.5c-0.3-0.5-0.6-1.1-0.9-1.6c-1.9-3.3-4.7-5.9-8-7.6c-1.6-0.9-3-1.9-4.2-3.3
		c-3.1-3.6-3.9-8.6-6-12.8c-2.3-4.6-6.2-8.1-8.9-12.4c-4.9-7.9-5.4-17.9-3.4-27c1.7-7.5,4.8-14.4,8.3-21.3l-0.2-3.4
		c0-17,2.6-33.3,7.3-48.4c0,0.4,0,0.7,0.1,1.1l0,0c0.4,5.5,2.4,11,5.4,15.6c1.6,2.4,3.4,4.8,4.2,7.5c2.2,7-2.4,14.5-8.3,19
		c7.3-5,15.3-11.7,14.8-20.5c-0.3-5.5-4-10.1-5.5-15.4c-1.9-7,0.7-15.1,6.4-19.7c5.4-4.4,13.6-6.2,16.2-12.6
		c2.1-5.2-0.5-10.9-1.2-16.4c-1.5-11,5.9-23,16.8-25.3c6-1.3,12.1,0.2,18.2-0.5c1.6-0.2,3.2-0.6,4.3-1.8c1.7-2,0.8-5,0.2-7.6
		c-0.6-2.5-0.8-5.1-0.7-7.7c0-0.1,0-0.3,0-0.4c9.5-4.4,19.6-7.4,30.1-9c4-0.6,8.1-1,12.3-1.1c1.2,0,2.4-0.1,3.5-0.1
		c0.8,0,1.6,0,2.4,0c4.1,0.1,8.1,0.4,12.1,0.9c0.4,0.1,0.8,0.1,1.2,0.2c7.9,1.2,15.6,3.2,22.9,6c5.4,2.1,10.7,4.5,15.8,7.4
		c0.7,0.4,1.4,0.8,2.1,1.2c0.8,0.5,1.6,1,2.4,1.5c0.7,0.4,1.4,0.9,2.1,1.3c18,11.8,33.3,28.7,44.2,49c0.1,2.4,1.3,4.3,3,5.9
		c0.1,0.1,0.1,0.3,0.2,0.4c0,0.1,0.1,0.1,0.1,0.1c1.4,2.8,2.6,5.7,3.8,8.6c0.2,0.5,0.4,1.1,0.6,1.6c0.4,1.1,0.8,2.1,1.2,3.2
		c1,2.7,1.9,5.4,2.7,8.1c0.7,2.2,1.3,4.4,1.9,6.7c0.1,0.6,0.3,1.1,0.4,1.7c0.3,1.1,0.5,2.3,0.8,3.4c0.1,0.6,0.3,1.1,0.4,1.7
		c0.1,0.6,0.3,1.2,0.4,1.8c-0.1,0.1-0.2,0.3-0.3,0.4c0.1-0.1,0.2-0.2,0.4-0.3c0.1,0.5,0.2,1,0.3,1.5c1.9,9.8,3,20.1,2.8,30.6
		c0,0.4,0,0.9,0,1.3c-0.1,7.3-0.1,9.6-0.1,9.6 M-51.3167,227.226c-2,1.9-4.5,3.3-6.6,5c-0.2,0.2-0.5,0.4-0.7,0.6
		c0.2-0.5,0.4-1,0.7-1.5c0.8-1.8,1.7-3.6,2.6-5.4l0,0c3.2-6.3,6.7-12.3,10.7-17.9c0,0.2,0,0.4,0,0.7c0,0.2,0,0.4,0,0.6
		C-44.5167,215.826-46.5167,222.726-51.3167,227.226z M172.7833,263.726c-0.1-0.6-0.2-1.1-0.4-1.7c-0.3-1.1-0.5-2.3-0.8-3.4
		c-0.1-0.6-0.3-1.1-0.4-1.7c-0.1-0.6-0.3-1.1-0.5-1.7c-0.3-1.1-0.6-2.2-0.9-3.3c-0.2-0.6-0.3-1.1-0.5-1.7c-0.8-2.8-1.8-5.5-2.7-8.1
		c-0.4-1.1-0.8-2.1-1.2-3.2c-0.2-0.5-0.4-1-0.6-1.6c-0.5-1.2-1-2.4-1.5-3.7c-0.5-1.1-1-2.2-1.5-3.3c-0.3-0.7-0.6-1.3-0.9-2
		c-0.1-0.1-0.1-0.1-0.2-0.2c-0.1-0.1-0.2-0.2-0.3-0.2c0.1,0.1,0.1,0.3,0.2,0.4c0,0.1,0.1,0.1,0.1,0.1c1.4,2.8,2.6,5.7,3.8,8.6
		c0.2,0.5,0.4,1.1,0.6,1.6c0.4,1.1,0.8,2.1,1.2,3.2c1,2.7,1.9,5.4,2.7,8.1c0.7,2.2,1.3,4.4,1.9,6.7c0.1,0.6,0.3,1.1,0.4,1.7
		c0.3,1.1,0.5,2.3,0.8,3.4c0.1,0.6,0.3,1.1,0.4,1.7c0.1,0.6,0.3,1.2,0.4,1.8c0.1-0.1,0.2-0.2,0.2-0.3
		C172.9833,264.626,172.8833,264.226,172.7833,263.726z"/>
	<path id="XMLID_20870_" fill="#EF7B05" d="M239.7833,412.226c-2.3,3.4-6.1,6.3-6.2,10.4c-0.2,4.7,4.7,8.9,3.6,13.5
		c-1.5,6.2-11.4,5.8-14.9,11.1c-1.7,2.6-1.4,6.2,0,9c1.4,2.8,3.7,5.1,6,7.3c-3.1,0.7-6.5,0.3-9.1-1.3c-2.7-1.7-4.5-4.9-4-8
		c0.3-2.3,1.8-4.4,2.2-6.7c0.8-4.8-3.1-8.7-7.1-11.7c1.9,1.9,2.2,5.3,1.5,8.1c-0.9,3.3-2.8,6.2-3.4,9.6c-0.4,2.5-0.1,5-0.7,7.5
		c-1.7,6.5-9.3,9.3-16,10.3c-6.6,1-14.1,1.7-18.4,6.9c-3.9,4.8-3.2,12.7,1.6,16.7c-8,1.3-15.9-4.9-18.1-12.7
		c-2.2-7.8,0.8-16.3,6.2-22.3c3.6-3.9,8.4-7.4,9.2-12.7c0.3-2.1,0-4-0.7-5.9c-1.1-2.7-3-5.2-5-7.7h-0.1c-1.8-2.2-4-4.5-5-6.9l0,0
		c0-0.4-0.3-0.7-0.5-1.1c0-0.1,0-0.2-0.1-0.3c-0.1-0.3-0.2-0.5-0.2-0.8v-0.1c-0.1-0.4,0-0.8,0.1-1.1c0-0.1,0.1-0.1,0.1-0.2
		c0.3-0.4,0.7-0.6,1.1-0.9c6.6-3.5,14.1-6.3,19.6-11c0.1-0.1,0.3-0.2,0.4-0.3c2.2-2,4.1-4.3,5.4-7c2.6-5.7,2.2-12.6,5.9-17.7
		c1-1.3,2.2-2.4,3.5-3.3c3-2,6.8-2.8,10.6-2.6c1.2,0.1,2.4,0.2,3.6,0.5c0.6,0.1,1.2,0.3,1.8,0.5c5.6,1.8,10.4,5.6,14.6,9.7
		c4.2,4,8.8,8.7,14.6,8.5c0.4,1.5,0.6,3,0.5,4.5C242.2833,406.926,241.3833,409.826,239.7833,412.226z"/>
	<path id="XMLID_19383_" fill="#EF7B05" d="M127.0833,184.626L127.0833,184.626L127.0833,184.626c0.5,0.4,1,0.8,1.4,1.2
		C128.0833,185.426,127.5833,185.026,127.0833,184.626z M127.0833,184.626L127.0833,184.626L127.0833,184.626c0.5,0.4,1,0.8,1.4,1.2
		C128.0833,185.426,127.5833,185.026,127.0833,184.626z M127.0833,184.626L127.0833,184.626L127.0833,184.626c0.5,0.4,1,0.8,1.4,1.2
		C128.0833,185.426,127.5833,185.026,127.0833,184.626z M127.0833,184.626L127.0833,184.626L127.0833,184.626c0.5,0.4,1,0.8,1.4,1.2
		C128.0833,185.426,127.5833,185.026,127.0833,184.626z M127.0833,184.626L127.0833,184.626L127.0833,184.626c0.5,0.4,1,0.8,1.4,1.2
		C128.0833,185.426,127.5833,185.026,127.0833,184.626z M127.0833,184.626L127.0833,184.626L127.0833,184.626c0.5,0.4,1,0.8,1.4,1.2
		C128.0833,185.426,127.5833,185.026,127.0833,184.626z M127.0833,184.626L127.0833,184.626L127.0833,184.626c0.5,0.4,1,0.8,1.4,1.2
		C128.0833,185.426,127.5833,185.026,127.0833,184.626z M127.0833,184.626L127.0833,184.626L127.0833,184.626c0.5,0.4,1,0.8,1.4,1.2
		C128.0833,185.426,127.5833,185.026,127.0833,184.626z M127.0833,184.626L127.0833,184.626L127.0833,184.626c0.5,0.4,1,0.8,1.4,1.2
		C128.0833,185.426,127.5833,185.026,127.0833,184.626z M127.0833,184.626L127.0833,184.626L127.0833,184.626c0.5,0.4,1,0.8,1.4,1.2
		C128.0833,185.426,127.5833,185.026,127.0833,184.626z M127.0833,184.626L127.0833,184.626L127.0833,184.626c0.5,0.4,1,0.8,1.4,1.2
		C128.0833,185.426,127.5833,185.026,127.0833,184.626z M127.0833,184.626L127.0833,184.626L127.0833,184.626c0.5,0.4,1,0.8,1.4,1.2
		C128.0833,185.426,127.5833,185.026,127.0833,184.626z M127.0833,184.626L127.0833,184.626L127.0833,184.626c0.5,0.4,1,0.8,1.4,1.2
		C128.0833,185.426,127.5833,185.026,127.0833,184.626z M127.0833,184.626L127.0833,184.626L127.0833,184.626c0.5,0.4,1,0.8,1.4,1.2
		C128.0833,185.426,127.5833,185.026,127.0833,184.626z M127.0833,184.626L127.0833,184.626L127.0833,184.626c0.5,0.4,1,0.8,1.4,1.2
		C128.0833,185.426,127.5833,185.026,127.0833,184.626z M127.0833,184.626L127.0833,184.626L127.0833,184.626c0.5,0.4,1,0.8,1.4,1.2
		C128.0833,185.426,127.5833,185.026,127.0833,184.626z M127.0833,184.626L127.0833,184.626L127.0833,184.626c0.5,0.4,1,0.8,1.4,1.2
		C128.0833,185.426,127.5833,185.026,127.0833,184.626z M127.0833,184.626L127.0833,184.626L127.0833,184.626c0.5,0.4,1,0.8,1.4,1.2
		C128.0833,185.426,127.5833,185.026,127.0833,184.626z M127.0833,184.626L127.0833,184.626L127.0833,184.626c0.5,0.4,1,0.8,1.4,1.2
		C128.0833,185.426,127.5833,185.026,127.0833,184.626z M127.0833,184.626L127.0833,184.626L127.0833,184.626c0.5,0.4,1,0.8,1.4,1.2
		C128.0833,185.426,127.5833,185.026,127.0833,184.626z M127.0833,184.626L127.0833,184.626L127.0833,184.626c0.5,0.4,1,0.8,1.4,1.2
		C128.0833,185.426,127.5833,185.026,127.0833,184.626z M127.0833,184.626L127.0833,184.626L127.0833,184.626c0.5,0.4,1,0.8,1.4,1.2
		C128.0833,185.426,127.5833,185.026,127.0833,184.626z M127.0833,184.626L127.0833,184.626L127.0833,184.626c0.5,0.4,1,0.8,1.4,1.2
		C128.0833,185.426,127.5833,185.026,127.0833,184.626z M127.0833,184.626L127.0833,184.626L127.0833,184.626c0.5,0.4,1,0.8,1.4,1.2
		C128.0833,185.426,127.5833,185.026,127.0833,184.626z M127.0833,184.626L127.0833,184.626L127.0833,184.626c0.5,0.4,1,0.8,1.4,1.2
		C128.0833,185.426,127.5833,185.026,127.0833,184.626z M127.0833,184.626L127.0833,184.626L127.0833,184.626c0.5,0.4,1,0.8,1.4,1.2
		C128.0833,185.426,127.5833,185.026,127.0833,184.626z M127.0833,184.626L127.0833,184.626L127.0833,184.626c0.5,0.4,1,0.8,1.4,1.2
		C128.0833,185.426,127.5833,185.026,127.0833,184.626z M127.0833,184.626L127.0833,184.626L127.0833,184.626c0.5,0.4,1,0.8,1.4,1.2
		C128.0833,185.426,127.5833,185.026,127.0833,184.626z M127.0833,184.626L127.0833,184.626L127.0833,184.626c0.5,0.4,1,0.8,1.4,1.2
		C128.0833,185.426,127.5833,185.026,127.0833,184.626z M127.0833,184.626L127.0833,184.626L127.0833,184.626c0.5,0.4,1,0.8,1.4,1.2
		C128.0833,185.426,127.5833,185.026,127.0833,184.626z M127.0833,184.626L127.0833,184.626L127.0833,184.626c0.5,0.4,1,0.8,1.4,1.2
		C128.0833,185.426,127.5833,185.026,127.0833,184.626z M127.0833,184.626L127.0833,184.626L127.0833,184.626c0.5,0.4,1,0.8,1.4,1.2
		C128.0833,185.426,127.5833,185.026,127.0833,184.626z M127.0833,184.626L127.0833,184.626L127.0833,184.626c0.5,0.4,1,0.8,1.4,1.2
		C128.0833,185.426,127.5833,185.026,127.0833,184.626z M127.0833,184.626L127.0833,184.626L127.0833,184.626c0.5,0.4,1,0.8,1.4,1.2
		C128.0833,185.426,127.5833,185.026,127.0833,184.626z M127.0833,184.626L127.0833,184.626L127.0833,184.626c0.5,0.4,1,0.8,1.4,1.2
		C128.0833,185.426,127.5833,185.026,127.0833,184.626z"/>
	<path id="XMLID_19378_" fill="#FFFFFF" d="M-24.7167,132.426c0.9,1.7,1.3,3.5,1.4,5.3
		C-23.7167,135.926-24.2167,134.126-24.7167,132.426z"/>
	<path id="XMLID_19368_" fill="#FFFFFF" d="M-17.9167,147.726c-0.2,2.7,0,5.4,0.6,8.1c0.6,2.6,1.6,5.6-0.2,7.6
		c-1,1.2-2.7,1.6-4.3,1.8c-6,0.7-12.2-0.8-18.2,0.5c-10.9,2.3-18.3,14.3-16.8,25.3c0.7,5.5,3.3,11.3,1.2,16.4
		c-2.6,6.5-10.8,8.3-16.2,12.6c-5.7,4.6-8.3,12.6-6.4,19.7c1.4,5.3,5.1,9.9,5.5,15.4c0.6,8.8-7.5,15.4-14.8,20.5
		c5.9-4.4,10.5-12,8.3-19c-0.9-2.8-2.7-5.1-4.2-7.5c-3.1-4.9-5.2-10.9-5.4-16.7c-0.3-6.1,1.5-12.1,5.9-16.2c0.1-0.1,0.1-0.1,0.2-0.2
		c2.3-2.1,5-3.5,7.3-5.6c4.8-4.5,6.8-11.3,6.7-17.9c0-0.4,0-0.9,0-1.3c-0.3-6.1-2.1-12.1-3.9-17.9c1.5,4.8-3.4,9-7.7,11.5
		c-4.1,2.4-8.8,5.6-8.9,10.1c-0.6-14.1,0.8-29.4,10.4-39.7c6.2-6.6,14.9-10.2,21.9-16c5.5-4.5,10-11.6,9.6-18.3
		c1.5,6.1,2.5,12.4,1.6,18.6c-0.8,5.4-3.4,10.9-7.4,14.5c3.4,0,6.9,0.3,10.2,0.9c3.2,0.6,6.8,1.5,9.7-0.1c5-2.7,4.2-9.8,4.8-15.4
		c0.7-6.5,4.5-12.8,10.1-16.1c5.7-3.3,13.1-3.6,18.8-0.3C-9.8167,126.426-17.1167,136.826-17.9167,147.726z"/>
	<path id="XMLID_19364_" fill="#FFFFFF" d="M-117.5167,383.126c1.7-3.9,4.5-7.2,6.3-11c3.8-8.4,1.8-19.1-4.8-25.5
		c4.5,3.5,8.8,7.4,11.7,12.3c2.8,4.9,4,11.1,1.7,16.4c-1.6,3.7-4.9,6.9-4.8,11c0.1,4.6,4.4,7.9,8.3,10.4c7.4,4.7,14.8,9.4,22.2,14.2
		c-11.6-4.2-21.1-17.3-16.7-28.8c1.6-4.2,4.8-7.7,6.6-11.9c3-6.8,1.7-15.3-3.2-20.9c-6.2-7.2-17.3-10-20.7-18.8
		c-3.9-10.1,4.9-20.2,8.1-30.5c5.3-17.4-6.5-36.1-22.2-45.4c4.3,5.4,7.6,11.6,9.4,18.3c0.6,2.2-0.3,5.7-2.4,4.9
		c-0.4-0.2-0.7-0.5-1-0.8c-6.2-6.1-12.3-12.2-18.5-18.3c-1.9,1.7-1.9,4.9-0.6,7.1c1.2,2.3,3.3,3.9,5.2,5.7
		c6.9,6.6,11.1,16.1,11.4,25.7c0.2,6.8-2,14.2-7.7,17.8c-3.6,2.2-7.9,2.6-11.9,3.9c-4,1.2-8.2,3.8-8.9,7.9c-0.4,2.2,0.3,4.6,1.4,6.5
		c3.6,6.4,10.8,9.5,17.3,12.9s13.1,8.6,13.7,15.9c0.8,11.9-15.3,20.8-12.9,32.5c1,4.9,5.2,8.6,9.7,10.9c4.4,2.4,9.3,3.8,13.6,6.4
		C-117.4167,406.826-122.1167,393.426-117.5167,383.126z"/>
	<path id="XMLID_2169_" fill="#FFFFFF" d="M209.0833,354.326c2.9-7.4-2.1-15.6-7.5-21.4c-5.5-5.8-12-11.6-13.3-19.5
		c-1.1-7,2.5-14,7-19.4c4.5-5.5,10.1-10,14.4-15.7c-7.9,5.3-13.2,14.4-13.8,24s3.4,19.3,10.6,25.6c-1.7-11.2,3.4-23.2,12.6-29.7
		c-2.5,6.2-4.7,12.8-4.1,19.5c0.6,6.7,4.8,13.5,11.3,15.2c2,0.5,4.1,0.6,6.1,1.2c5.6,1.8,8.7,8.4,7.9,14.3
		c-0.8,5.9-4.8,10.9-9.4,14.6c-4.6,3.7-10,6.3-15.1,9.4c-3.9,2.4-7.9,5.4-9.3,9.8c-1.8,5.7,1.4,11.8,5,16.6c3.6,4.8,8,9.4,9.1,15.3
		c1.1,5.9-1.5,12-5.4,16.6c-3.9,4.6-9.1,7.8-14.2,11c9.6-2,14.8-15,9.3-23c-3.8-5.6-11.1-8.1-14.8-13.8c-3.2-5-3.1-11.5-1.1-17.1
		s5.7-10.3,9.3-15c-3.8,8-14.3,10.1-20.2,16.7c-6.3,6.9-6,18.8,0.6,25.4c-4.4-6.8-7.5-14.3-9.2-22.2c-1.2-5.5-1.7-11.7,1.2-16.5
		C183.1833,364.426,204.1833,366.826,209.0833,354.326z"/>
	<path id="XMLID_2165_" fill="#FFFFFF" d="M200.3833,252.126c0.1-6.5-0.3-14.2-5.6-18c-3.4-2.4-7.9-2.6-11.8-4
		c-3.9-1.4-7.7-5.5-6.1-9.3c-2.8,1-3.5,4.8-2.5,7.5c1,2.8,3.2,4.9,4.7,7.4c5.8,9.3,2.1,22.5-6.3,29.6c-0.1,0.1-0.2,0.2-0.4,0.3
		c0.1-0.1,0.2-0.3,0.3-0.4c7.4-8.3,6.4-22.9-2.3-29.9c-3.2-2.6-7.4-4.7-10.2-7.5c-1.7-1.7-2.9-3.6-3-5.9c0-0.2,0-0.4,0-0.6
		c0-2.9,1.8-5.5,3-8.2c3.7-8.2,1.8-18.6-4.6-24.9c-5.9-5.9-15.6-9.4-16.6-17.7c3.5,4.7,9.9,5.9,15.2,8.4c10.5,5,17.4,16.7,16.8,28.3
		c6-5.5,7.6-15.2,3.7-22.3c2.9,3.5,5.9,7.2,7.4,11.5c1.6,4.3,1.5,9.5-1.4,13.1c5.9-0.9,10.1-6.9,10.5-12.8c0.4-6-2.1-11.8-5.5-16.7
		c8.8,3.8,14.5,13.6,13.4,23.1c-0.5,4.7-2.5,9.2-3.6,13.8c-1.1,4.6-1.2,10,1.7,13.7c1.2,1.6,2.8,2.8,4.1,4.3
		C205.7833,239.926,205.1833,247.926,200.3833,252.126z"/>
</g>
</svg>
