<?xml version="1.0" encoding="utf-8"?>
<!-- Generator: Adobe Illustrator 19.0.0, SVG Export Plug-In . SVG Version: 6.00 Build 0)  -->
<svg version="1.1" id="Layer_1" xmlns="http://www.w3.org/2000/svg" xmlns:xlink="http://www.w3.org/1999/xlink" x="0px" y="0px"
	 viewBox="-361.5 113 490 580" style="enable-background:new -361.5 113 490 580;" xml:space="preserve">
<style type="text/css">
	.st0{fill:#EF7B05;}
</style>
<path id="XMLID_16_" class="st0" d="M88,340.1c-17.1-39.5-56.3-73.5-72.1-87.4c-20.5-18-74.9-35.7-80.6-37.4
	c-5.7-1.8-26.3-3.3-48.5-2.5c-21.6,0.8-63.9,0.8-124.1,30.8c-28.1,14-46.4,43.8-58.4,69.8c-6,13.3-10.4,26.7-13.3,38.5
	c-3.7,14.8-5.2,27.2-5.2,33.9c0,4.4,1.5,10.4,3.8,17.2c0.7,2.2,1.6,4.4,2.5,6.8c2.6,6.7,5.8,13.9,9.2,21.1l9.1,12.4
	c-0.7,1.6-1.3,3.2-1.7,4.9c-0.4,1.6-0.7,3.3-0.8,4.9c-0.1,0.9-0.2,1.9-0.2,2.8c0,13.6,8.9,25.5,22,31.9c-5.8,5.9-9.2,12.9-9.2,20.6
	c0,20.2,23.7,36.6,53,36.6c2.8,0,5.5-0.2,8.1-0.5c-1.1,2.7-1.7,5.6-1.7,8.5c0,15,15,27.6,35.9,32.2c1.4,0.3,2.9,0.6,4.3,0.8
	c2.1-0.4,3.4-0.5,3.4-0.5h0.8c0.7-0.1,1.5-0.2,2.2-0.3c7.4-1.6,12.8-9.1,16.6-20.2c0.6-1.7,1.1-3.4,1.6-5.2c0.7-2.4,1.3-4.8,1.8-7.4
	c0,0,0,0,0,0c0-0.1,0-0.1,0-0.2c0.4-1.8,0.8-3.7,1.1-5.7c0,0,0,0,0,0c-28-7-55.8-18.5-77.5-34.5c-4.2-4.4-8-9.1-11-14.2
	c-1.1-20.3-1.7-56.9-1.4-78.6c0.1-8.9,0.3-15.3,0.7-17c2.8-12,33.7-33.9,56-48.4c6.1-4,11.7-7.5,15.8-10.1
	c11-6.9,20.9-15.8,29.2-24.8c12.5-13.4,21.8-27.1,27.3-34.3c0,0-10.8,25.7-13.5,30.6c-0.8,1.5-1.6,2.9-2.7,4.3
	c-8.2,12.6-20,21-21.9,22.4c3.1-1.4,26.5-12.3,40-21.3c1-0.7,2.1-1.3,3-2.1c0.2-0.2,0.4-0.3,0.7-0.5c0.3-0.2,0.6-0.5,0.9-0.7
	c0.3-0.2,0.6-0.5,0.9-0.7c11.5-9,21.4-21.2,22.9-23c-1,1.9-7,14.1,1,29.1c1.8,3.4,4.3,7,7.8,10.6c8.5,8.9,29.7,18.9,34.8,21.3
	c-3.5-2.1-14.8-9.9-16.1-24.2c-0.1-1.4-0.4-3.3-0.7-5.5c-0.9-5.8-2.3-13.2-2.5-14.8c0.7,1.4,3.7,7.8,8.3,15.4
	c4.6,7.8,11.2,16.7,18.6,22.7c7.1,5.8,14.2,12.4,20.4,18.2c7.6,7.1,13.9,13.3,17.6,16c4.5,3.3,7.4,15.1,9.2,30.5
	c3.4,29.5,2.7,72.3,1.4,95.6c-2.8,3.3-5.9,6.4-9.2,9.3c-20.2,12.9-44.4,22.4-68.8,28.5c0,0,0,0,0,0c0.3,1.8,0.6,3.6,1,5.4
	c0,0,0,0,0,0c0,0.1,0,0.2,0,0.3v0.1c0.4,2,0.8,3.8,1.3,5.6c0.5,2,1.1,3.9,1.7,5.7c3.5,10.4,8.2,18,14.6,20.8
	c0.6,0.2,1.2,0.5,1.8,0.5c1.2,0.4,2.5,0.5,3.8,0.5c0,0,9.5,0.9,22.8,5.7c2.2-0.2,4.3-0.4,6.3-0.7c25.7-4,44.7-18.4,44.7-35.7
	c0-6.2-2.5-12.1-6.9-17.3c15.8-9,26.1-23.2,26.1-39.2c0-6-1.5-11.8-4.2-17.1c20.6-5.7,35-18,35.3-32.3c0-0.1,0-0.3,0-0.4
	c0-1.6-0.2-3.1-0.5-4.6c-1-4.6-3.3-8.9-6.9-12.7l0.2-0.3c4.1-7.4,7.7-15.2,10.5-23.4c0.7-2.2,1.4-4.3,2-6.5
	c1.9-6.7,3.1-13.7,3.5-20.8c0.1-1.4,0.1-2.7,0.1-4C96.2,363.9,93.1,351.8,88,340.1z"/>
</svg>
