<?xml version="1.0" encoding="utf-8"?>
<!-- Generator: Adobe Illustrator 19.0.0, SVG Export Plug-In . SVG Version: 6.00 Build 0)  -->
<svg version="1.1" id="Layer_1" xmlns="http://www.w3.org/2000/svg" xmlns:xlink="http://www.w3.org/1999/xlink" x="0px" y="0px"
	 viewBox="-222 33.7945 513.6986 495.2055" enable-background="new -222 33.7945 513.6986 495.2055" xml:space="preserve">
<path id="XMLID_1430_" fill="#EF7B05" d="M268.1132,354.9523c0.2667,0.2368,0.5987,0.3592,0.9361,0.3592
	c0.2477,0,1.4081-0.0653,1.6313-0.1959c11.0757-6.5828,14.1002-18.6817,14.1002-27.8089c0-0.0055,0-0.0123,0-0.0191
	c0-1.9158-0.7455-3.7975-0.9169-5.5541c-0.8055-8.2727-4.6887-16.1808-7.9978-23.8304c-0.7239-1.679-1.6776-3.3553-2.3797-5.0344
	c-2.7921-6.7365-4.1398-11.8676-4.4718-19.4123c0.1551-1.3729,0.2773-2.7458,0.3317-4.116c0.068-1.6899-0.0396-3.369-0.0777-5.0507
	c0.0109-0.1742,0.0292-0.3483,0.0346-0.5225c0.8654-21.8384-7.235-42.9502-16.3241-64.4566
	c-16.5836-39.2193-37.5738-83.8295-76.8965-116.8687C142.9346,54.5896,83.8317,27.8011,26.2437,43.7983
	c-25.3869-2.7472-52.4348,0.2721-78.2245,8.7558c-23.4412,7.7094-45.6229,19.743-65.9374,35.7605
	c-13.4323,10.5994-22.5978,20.2736-28.8296,30.4513c-5.3718,8.7598-10.6295,22.5786-9.8158,35.2462
	c-0.1143,1.7375-0.1389,3.471-0.0463,5.1841c-7.5788,6.0562-14.265,12.3669-19.6314,19.03
	c-7.7285,9.598-15.408,19.9498-16.97,31.6595c-0.3129,2.3607-0.4926,5.3011-0.2803,8.3095
	c-0.4572,6.2086,0.3157,14.4269,5.976,18.8327c-4.0085,8.7218-5.8345,17.5483-5.3773,25.9244
	c-0.5279,8.5122,1.1293,16.6938,5.1024,23.9487c1.2654,2.3118,3.4833,6.274,6.923,7.6781
	c-2.3104,3.4969-5.2113,6.8223-8.1639,10.0511c-0.996,1.0912-1.992,2.177-2.9608,3.271
	c-11.7886,13.318-18.5538,26.6278-20.1104,39.5622c-0.2939,2.4424-0.2476,4.8507-0.0626,7.2318
	c-1.0695,14.8406,7.2114,28.8375,11.9247,35.438c0.0381,0.0789,0.0082,0.1714,0.0626,0.2422
	c4.9201,6.3896,7.8101,9.0428,10.0144,9.0428c0.3374,0,0.6586-0.0626,0.9742-0.185c2.1716-0.8504,2.4437-4.1568,2.0981-9.5871
	c0.2912-2.7376-0.0517-6.7216-0.5252-11.9138c-0.0109-0.1388-0.0245-0.2939-0.0381-0.4341l0.4844,1.8246
	c1.2382,4.648,2.4192,9.3966,2.8274,14.1154c-0.049,0.5892-0.0082,1.1851-0.1007,1.7716
	c-1.0885,6.9991-6.3787,15.1195-15.74,17.4816c-0.7076,0.1769-1.1593,0.8763-1.0287,1.5974
	c0.1197,0.6694,0.7021,1.1457,1.3715,1.1457c0,0,0.098-0.0027,0.1524-0.0081c3.3472-0.3647,6.5882-1.4886,9.5354-3.173
	c-2.5417,2.7308-5.8589,4.9582-10.0307,6.0113c-0.7075,0.1769-1.1593,0.8763-1.0287,1.5974
	c0.1198,0.6694,0.7021,1.1457,1.3715,1.1457c0,0,0.098-0.0027,0.1524-0.0081c8.5231-0.9307,16.4584-6.6481,20.2138-14.5698
	c2.9853-6.3039,3.3553-13.1915,3.4452-19.5362c4.7514,3.1336,6.9093,8.4455,7.4454,13.7534
	c-0.0054,0.0531-0.0054,0.1102-0.0109,0.1633c-0.5443,4.9637-3.3145,9.4973-6.2481,14.2977
	c-0.2803,0.4599-0.5334,0.9225-0.8109,1.3824c-1.6056,1.3933-3.4098,2.5675-5.497,3.3499
	c-0.7184,0.2694-1.0831,1.0722-0.8164,1.7933c0.2123,0.5579,0.7402,0.9035,1.3062,0.9035c0.1633,0,0.3266-0.0272,0.4898-0.0898
	c0.6041-0.2259,1.1266-0.5592,1.6954-0.8354c-0.517,1.0178-0.8545,2.0832-1.2953,3.1213c-0.4599,0.2245-0.8871,0.4966-1.3797,0.6803
	c-0.7184,0.2694-1.0831,1.0722-0.8164,1.7933c0.1524,0.3973,0.4817,0.6286,0.8518,0.7633
	c-2.1716,6.2576-3.0016,12.786-2.6805,19.2953c-0.7892,13.3153,3.5132,26.8578,12.8445,37.8423
	c0.2721,0.3239,0.664,0.4926,1.0613,0.4926c0.2721,0,0.5497-0.0789,0.7892-0.2449c0.5878-0.4055,0.7783-1.1892,0.4381-1.8178
	c-0.6477-1.1824-1.1239-2.4233-1.5756-3.6724c0.1252,0.0367,0.2177,0.1619,0.3483,0.1619c0.2721,0,0.5497-0.0789,0.7892-0.2449
	c0.5878-0.4055,0.7783-1.1892,0.4381-1.8178c-1.8722-3.4207-2.8165-7.1584-3.1376-11.0648
	c0.4844-6.3107,2.4573-12.9452,5.5814-19.5552c0.1143,0.2545,0.2749,0.4926,0.5252,0.645c2.1498,1.3103,4.5146,2.3213,6.9502,3.1948
	c-2.0246,0.1075-4.0466,0.0952-6.0304-0.1905c-0.6368-0.0653-1.2845,0.2857-1.5076,0.9089c-0.2231,0.6232,0.0218,1.3171,0.5878,1.66
	c6.3842,3.8914,14.2868,5.8644,22.1949,5.8644c1.1375,0,2.2695-0.1007,3.4016-0.1823c0.185,0.483,0.2966,0.9538,0.4218,1.4273
	c-0.117,0.4055-0.2068,0.8137-0.3783,1.2151c-3.8044,9.0211-19.6641,14.7222-26.4346,17.155
	c-0.5824,0.2095-0.9525,0.7783-0.9198,1.396c0.0381,0.6177,0.4789,1.1375,1.0831,1.2736c1.9947,0.4545,3.935,0.6123,5.8508,0.6368
	c-2.3158,0.9307-4.4248,1.6967-6.0141,2.2668c-0.5824,0.2095-0.9525,0.7783-0.9198,1.396c0.0381,0.6177,0.4789,1.1375,1.0831,1.2736
	c13.4269,3.0615,25.1937-4.4874,33.4828-11.4893c0.1143,6.0685,2.1389,12.0798,5.8616,17.2203
	c0.3592,0.5062,1.0069,0.7048,1.6001,0.4953c0.5824-0.2122,0.9579-0.7837,0.9144-1.4042c-0.1143-1.7552-0.1279-3.5091-0.0816-5.2589
	c0.019-0.1089,0.0898-0.2,0.0816-0.3143c-0.0191-0.3198,0.0027-0.6382-0.0136-0.9579c0.6096-12.2445,5.1868-24.1406,13.0513-34.0448
	c0.0218,0.4599-0.0599,0.8776-0.0054,1.3511c-0.2014,2.4097-0.1905,4.7786-0.0599,7.1162
	c-0.7402,12.835,2.8356,24.8889,18.3551,31.8364c1.4096,0.6313,2.7975,1.2327,4.1581,1.8205
	c8.338,3.6139,15.5386,6.7325,17.3346,12.2812c0.0354,0.1116,0.0218,0.2476,0.0517,0.3592
	c-0.5824,2.8315-1.8995,6.0576-4.1391,9.8239c-0.3374,0.5688-0.2286,1.2981,0.2612,1.7417
	c0.2612,0.2422,0.5987,0.3646,0.9361,0.3646c0.2667,0,0.5225-0.0939,0.7565-0.2449c-0.5769,1.1946-1.1729,2.3989-1.9539,3.7119
	c-0.3374,0.5687-0.2286,1.298,0.2612,1.7416c0.2612,0.2422,0.5987,0.3647,0.9361,0.3647c0.2885,0,0.5715-0.0871,0.8218-0.2667
	c2.7594-2.0083,5.4426-3.7009,8.0333-5.3364c4.433-2.7961,8.6156-5.4385,12.224-9.0892
	c8.7816-6.7311,15.7862-17.0149,20.2464-29.7546c3.5431-10.1287,4.7895-21.0438,5.9977-31.6024l0.4681-4.0792
	c0.0572-0.4626-0.1578-0.8871-0.5034-1.1865c0.0109-0.1021,0.0245-0.2054,0.0354-0.3075l0.4681-4.0792
	c0.0653-0.5415-0.1905-1.0722-0.6586-1.3552c-25.3488-15.393-43.3257-42.0522-48.6132-71.1714
	c-0.2612-1.4491-0.5225-2.8968-0.7211-4.3554c-0.2558-1.8777-0.4735-3.7622-0.6232-5.6548c-0.0599-0.762-0.6259-1.3389-1.4967-1.279
	c-0.3837,0.0299-0.7184,0.215-0.9497,0.4885c-0.1306-0.0912-0.2857-0.1606-0.4109-0.2558c-0.3565-0.2708-0.664-0.5865-0.9851-0.8858
	c-4.0819-3.8289-5.4807-10.0565-6.9012-16.6271c-0.7402-3.4397-1.5076-6.9937-2.6886-10.3817
	c-3.8316-11.0022-5.8753-20.9703-6.2372-30.1764c0.1061-2.7186,0.3266-5.3868,0.7511-7.9761
	c0.7402-4.5201,2.1226-7.1896,4.3432-8.4061c1.377-0.7429,4.0384-0.2259,5.6984,1.1239c0.4354,0.351,1.094,1.0096,1.094,1.7552
	c-0.0327,0.1714-0.0599,0.3401-0.0925,0.5089c-0.1306,0.7293,0.3266,1.4314,1.045,1.6056c0.713,0.1633,1.4477-0.2449,1.66-0.9525
	c0.0871-0.2939,0.1415-0.5878,0.1633-0.8844c0.7402-4.3214,0.9171-8.6945,0.781-13.054c4.5718,1.9893,9.6279,3.9745,15.1821,4.1908
	c0.1524,0.0054,0.3129,0.0082,0.4626,0.0082c5.3582,0,12.9017-3.4234,16.0284-7.704c0.0354,0.0476,0.0571,0.1006,0.0925,0.1469
	c3.0914,3.9023,8.8333,7.4673,15.2773,7.4673c0.7973,0,1.6001-0.0544,2.4111-0.1687c0.381-0.0544,0.7293-0.2667,0.947-0.5851
	c0.2259-0.3184,0.2993-0.7157,0.2177-1.0939c-0.2993-1.3661-0.5225-2.7553-0.7674-4.1391c0.1959-0.1034,0.4245-0.1551,0.5497-0.3401
	c0.2259-0.3184,0.2993-0.7157,0.2177-1.094c-1.4858-6.7624-2.2478-13.7439-2.441-20.8859
	c2.4954,11.9505,8.2945,22.6589,17.087,30.7724c0.2667,0.2449,0.6041,0.3701,0.947,0.3701c0.2177,0,0.4381-0.0517,0.6368-0.1552
	c0.5225-0.2667,0.8164-0.83,0.7456-1.4096c-0.1932-1.5702-0.2667-3.1132-0.2585-4.6439c0.185-0.2735,0.3021-0.5865,0.2585-0.9293
	c-0.0762-0.6259-0.0626-1.2341-0.1061-1.8532c0.2449-3.5186,0.8137-7.0087,1.4559-10.613c0.3048-1.709,0.6096-3.4506,0.8817-5.2181
	c0.0789,0.1987,0.1333,0.4082,0.2177,0.6055c3.4724,8.1884,8.1149,13.9113,14.1888,17.4925
	c3.837,2.2641,8.9912,3.7527,14.1181,3.7527c3.8642,0,7.7094-0.8463,10.9614-2.8438c0.3592-0.2204,0.5987-0.5905,0.6531-1.0096
	c0.0544-0.4191-0.0871-0.8382-0.3755-1.1429c-0.7647-0.7974-1.4042-1.6627-2.0682-2.5131c0.6069-0.2817,1.2191-0.5551,1.7906-0.9076
	c0.3592-0.2204,0.5987-0.5905,0.6531-1.0096c0.0544-0.4191-0.0871-0.8381-0.3755-1.1429
	c-5.0072-5.2072-7.7747-11.6607-8.4115-18.2571c0.3483-3.7418,1.3226-7.4373,3.1104-10.8756
	c0.6586,17.8421,16.7877,37.8614,36.2694,43.4386c0.1252,0.0381,0.2504,0.0544,0.381,0.0544c0.3157,0,0.6259-0.1089,0.8763-0.313
	c0.3538-0.2857,0.5443-0.7293,0.5116-1.181L60.405,271.61c0.2177-0.2708,0.3619-0.5959,0.3347-0.9497l-0.2422-3.3281
	c9.7722,5.5161,21.9037,8.5299,33.7903,8.1965c0.5279-0.0136,1.0069-0.3239,1.23-0.8055c0.2231-0.4789,0.1578-1.045-0.1742-1.4586
	c-0.8708-1.0899-1.6518-2.2151-2.4873-3.3186c0.4789-0.0027,0.9552,0.0231,1.4314,0.0095c0.5279-0.0136,1.0069-0.3238,1.23-0.8055
	c0.2231-0.4789,0.1578-1.045-0.1742-1.4586c-14.4419-18.0558-23.6943-38.109-29.7138-58.3826
	c21.2424,17.0421,35.551,39.7948,39.3798,63.6619c0.0871,0.5497,0.4953,0.9933,1.0341,1.1293
	c0.5388,0.1361,1.1049-0.0571,1.4477-0.5007c0.1714-0.2218,0.2857-0.4626,0.4545-0.6858c0.0163,0.0068,0.019,0.0286,0.0354,0.0354
	c0.1687,0.068,0.3429,0.098,0.5116,0.098c0.5551,0,1.0776-0.332,1.2953-0.8817c0.5987-1.5103,1.1348-3.056,1.6464-4.618
	c1.0504-1.9185,1.9675-3.8846,2.7077-5.9025l6.0358,22.7932c0.1851,0.5552,0.7076,5.9321,1.2953,5.9321h0.0218
	c0.5824,0,1.0994-5.347,1.3062-5.8912c0.4518-1.2191,2.7376-4.5566,5.1541-4.3498c1.4749,0.1224,2.9009-0.7381,4.4085-0.3299
	c1.0558,0.2885,2.1172-0.0493,3.1948,0.1494c5.2113,0.966,10.8661-0.6397,14.9834-3.3909
	c-3.0941,19.9974-7.8019,33.2997-9.2034,36.9694l-1.5076,3.8217c-4.0765,10.4906-8.2891,21.2987-7.9571,32.5023
	c0.0109,0.3606,0.0871,0.7193,0.1116,1.084c-0.1061,1.4831-0.1551,2.9633-0.1116,4.46
	c0.3538,11.9383,7.5815,26.2393,22.9242,31.2927c0.5415,0.1823,1.1647-0.0052,1.5348-0.4678
	c-1.6001,3.8642-3.3418,7.6783-5.3228,11.3983c-10.6539,13.4037-24.557,28.1974-42.64,44.547
	c-5.3392,4.8276-6.8304,16.3424-6.4658,26.6099c-0.2694,7.6428,0.6313,15.3711,1.9566,20.0925
	c2.2832,8.1353,7.5108,22.6578,19.4382,30.2176l0,0c0.019,0.0122,0.0327,3.2849,0.0517,3.2849h0.0082
	c-0.0082,0-0.0109-3.2667-0.0218-3.2734c0.0109,0.0068,0.0136-1.6021,0.0245-1.5966c0.2313,0.1401,0.4817-0.5997,0.7347-0.5997
	c0.1524,0,0.3102-0.4305,0.4626-0.4849c0.019-0.0054,0.0218-0.2302,0.0381-0.237c0.1742-0.068,0.2612-0.326,0.3891-0.4498l0,0
	c-0.1306,0.1252-0.2177,0.2296-0.3891,0.2976c0.0354-0.0123,0.0707-0.0322,0.1034-0.0485c0.1442-0.0694,0.1878-0.2358,0.2966-0.3447
	c0.068-0.064,0.1796-0.0485,0.2368-0.1288l2.1716-3.0782c0.86-0.4953,1.7743-0.9472,2.2587-1.1854l1.1974-0.5995
	c0.7021-0.3619,1.4368-0.6916,2.177-1.0209c1.9267-0.8626,3.9187-1.7527,5.3882-3.2576c2.5961-2.6533,2.5662-5.8944,1.9648-9.0484
	c0.7375-2.7581,0.0136-5.7733-0.6858-8.5395c-0.234-0.9266-0.4409-1.841-0.6123-2.7444c0.4272-2.2913,1.3334-4.5269,2.8111-6.5461
	c1.0667-1.4586,3.3526-3.9486,6.6726-4.2234c4.5609-0.332,7.8618,3.2628,9.579,6.7787c1.562,3.1798,2.4682,6.5556,2.7893,9.9681
	c-0.3293,3.1322-1.1783,6.2263-2.5553,9.1626c-0.2721,0.5769-0.1143,1.2654,0.381,1.6682c0.2885,0.2381,0.645,0.2993,1.0042,0.2667
	c-0.3864,1.2314-0.8273,2.4505-1.3852,3.6384c-0.2721,0.5769-0.1143,1.2654,0.381,1.6682c0.4844,0.4027,1.1974,0.4272,1.709,0.0435
	c8.7136-6.4413,15.0025-14.5127,18.1075-22.9024c0.5824,3.3308,1.5457,6.3488,2.8954,9.1571
	c3.6085,7.5053,10.2266,13.2663,18.1619,15.808c0.6041,0.1878,1.2681-0.0544,1.6137-0.5933
	c0.3293-0.5443,0.2531-1.2463-0.1878-1.7062c-1.328-1.3675-2.5281-2.7921-3.6465-4.2466c0.7484,0.3089,1.445,0.7252,2.2206,0.9729
	c0.6041,0.1878,1.2681-0.0544,1.6137-0.5933c0.3293-0.5443,0.2531-1.2463-0.1878-1.7062
	c-7.3148-7.5312-11.3995-16.5033-12.1206-25.6169c0.2395-3.2016,0.8436-6.391,1.943-9.5069
	c1.7743,8.2863,7.8047,16.0366,16.4312,20.6819c0.4953,0.2694,1.1212,0.2095,1.5566-0.1633
	c0.4354-0.3674,0.6041-0.966,0.4245-1.5076c-0.4191-1.2518-0.7429-2.5254-1.0395-3.803c0.2204-0.0476,0.4381-0.1102,0.615-0.2626
	c0.4354-0.3674,0.6041-0.966,0.4245-1.5076c-1.1103-3.3091-1.7389-6.7216-1.9811-10.1545c0.0544-0.8803,0.0762-1.7634,0.1877-2.641
	c1.3117,5.2861,4.3459,10.5056,8.8388,14.3657c5.8426,5.0208,14.4854,7.87,23.0357,7.8673c2.509,0,5.0072-0.2449,7.4291-0.7511
	c0.5824-0.1224,1.0232-0.6041,1.094-1.1974c0.0707-0.5905-0.2395-1.1647-0.7783-1.4232c-1.4559-0.698-2.8111-1.5144-4.1228-2.3811
	c1.2845-0.1238,2.558-0.3102,3.8071-0.5715c0.5824-0.1225,1.0232-0.6041,1.094-1.1974c0.0707-0.5905-0.2395-1.1647-0.7783-1.4232
	c-8.9585-4.2997-15.2882-11.9356-17.3673-20.954c-0.2476-1.079-0.2776-2.1403-0.3918-3.2097
	c0.498-4.4425,2.0328-8.6714,4.8303-12.337c0.1143-0.1578,0.2449-0.3265,0.3647-0.4871c1.9756-2.4723,4.4194-4.7378,7.0753-6.8835
	c0.0245,0.2354,0.0817,0.4857,0.117,0.7252c-0.5034,3.1417-0.1551,6.7216,1.2191,10.6674
	c1.6926,4.8521,3.8914,8.3653,6.9121,11.0539c3.5159,3.1322,8.1693,4.9201,12.6812,4.9201c0.4572,0,0.9144-0.019,1.3661-0.0571
	c5.5406-0.4518,10.7274-3.6873,13.8677-8.651c2.4084-3.7976,3.154-7.8591,2.256-11.4621c0.6259-3.2928,0.2068-6.5202-1.5648-9.217
	c-3.271-4.9827-10.8416-7.3448-16.5237-5.1487c-0.615,0.2368-0.9797,0.8708-0.8763,1.5212
	c0.1034,0.6504,0.6477,1.1375,1.3062,1.1701c1.6845,0.0844,3.0614,0.9851,4.0193,2.0655c-1.5348,0.0177-3.0479,0.2762-4.4493,0.8164
	c-0.615,0.2368-0.9797,0.8708-0.8763,1.5212c0.1034,0.6504,0.6477,1.1375,1.3062,1.1702c1.7035,0.0857,3.0968,1.0042,4.0547,2.1008
	c-3.1485,3.2411-6.0712,4.2466-8.9313,2.8329c-3.8452-1.9049-6.6372-7.3911-8.1068-11.7764
	c0.4055-0.2871,0.8109-0.5756,1.2164-0.8586c8.3707-5.8372,17.0244-11.8757,20.2301-20.6465
	c1.2681-3.4615,1.4777-6.8958,1.1021-10.3055c1.1647-9.183-3.5731-18.185-8.2265-26.9326c-2.0464-3.8506-4.169-7.8373-5.7038-11.726
	c-2.3294-5.9011-3.3282-11.8485-3.5594-17.849c0.4817-10.945,3.3445-22.1023,6.5447-33.6093
	c6.8794,7.6469,10.5015,14.7794,11.2226,22.384c-0.43,4.814-1.8559,9.8742-4.4602,15.4678
	c-0.2558,0.5551-0.1252,1.211,0.3265,1.6219c0.2667,0.2368,0.5987,0.3592,0.9361,0.3592c0.0762,0,0.1469-0.0476,0.2204-0.0599
	c-0.4762,1.2096-0.8953,2.3947-1.4831,3.652C267.5309,353.8856,267.6615,354.5414,268.1132,354.9523z M165.8307,356.1443
	c-0.0381,0.0027-0.0816,0.0055-0.0816,0.0055s0-0.0014-0.0027-0.0014C165.7735,356.147,165.8035,356.147,165.8307,356.1443z
	 M-164.7738,445.2204c-0.1796-0.0177-0.3429,0.0667-0.5143,0.1116c7.8809-15.6747,21.5145-30.9057,34.4352-40.4833
	c1.3579,3.3485,2.6968,7.821,3.0941,12.771c-0.3483,4.0262-1.4586,8.2115-3.8534,12.2962
	C-137.7895,440.4663-152.0654,447.0436-164.7738,445.2204z M156.4041,384.6035c-0.7756-1.2001-1.3362-2.4219-1.943-3.6384
	c0.1197,0.0408,0.2177,0.1048,0.3374,0.1442c0.5443,0.1823,1.1702-0.0027,1.5403-0.4708c0.3592-0.4681,0.3864-1.113,0.0653-1.6083
	c-3.7581-5.8059-5.3555-11.8471-5.7229-17.7972c0.4218-6.8128,2.1961-13.3643,4.15-19.0981
	c2.1009-6.1528,5.214-13.4704,8.5122-21.2179c3.8914-9.1299,7.8918-18.5238,10.4552-26.6115
	c0.4953,1.2899,1.0831,2.6886,1.7253,4.2234c1.5511,3.6955,3.3662,8.1625,4.8303,13.3847
	c-1.0341,12.7466-5.8834,24.8604-10.6212,36.5864c-0.8082,1.9961-1.6083,3.2642-2.4655,4.0248
	c-0.1524-0.0871-0.2612-0.234-0.4463-0.2585c-0.1578-0.0245-0.2639,0.0789-0.4055,0.1021
	c-0.0354-0.0109-0.0517-0.0463-0.0898-0.0558c-0.7293-0.1905-1.5022,0.2613-1.6927,1.0069l-0.2721,1.0939
	c-0.1143,0.4381-0.0054,0.9008,0.2885,1.2437c0.049,0.0571,0.1388,0.0422,0.1932,0.0898
	c-1.5702,10.4158-4.4167,20.4995-8.3979,30.1751C156.6382,385.4962,156.6681,385.009,156.4041,384.6035z"/>
</svg>
