<?xml version="1.0" encoding="utf-8"?>
<!-- Generator: Adobe Illustrator 19.0.0, SVG Export Plug-In . SVG Version: 6.00 Build 0)  -->
<svg version="1.1" id="Layer_1" xmlns="http://www.w3.org/2000/svg" xmlns:xlink="http://www.w3.org/1999/xlink" x="0px" y="0px"
	 viewBox="-361.5 113 490 580" style="enable-background:new -361.5 113 490 580;" xml:space="preserve">
<style type="text/css">
	.st0{fill:#EF7B05;}
</style>
<path id="XMLID_182_" class="st0" d="M91,321.4C37.7,217.2-30.8,199.8-108.7,199.4v0c-78,0.4-146.5,17.8-199.8,122.1
	c-38,74.3,27.1,245.4,27.1,245.4s25.8,18.8,72.4,28.2c21.1,4.3,35.4,6.4,44.9,7.5c0.7,0.1,1.4,0.2,2.1,0.2c4.8,0.5,8.1,0.7,10.3,0.8
	c2.4,0.1,3.4,0,3.4,0l-2.4-35.8c0-0.1,0-0.1,0-0.2c0,0,0,0-0.1,0c-0.3-0.1-0.7-0.2-1-0.3c-16-4.7-31.9-11.2-46.4-19.6
	c-11.8-8-22-17.7-29.5-28.9c-0.9-1.8-1.9-3.5-2.6-5.3c-17.2-38.6-5.3-81.4-0.7-119.3l29.1,0.4l0.2-1.9l3.1-27.4l7,26.8l0.7,2.7
	l30.2,0.5l-4.2-25.4l14.2,24.5l0.6,1l23.2,0.4l0.1-0.3l6.9-26.8l3.2,27.3l7.1,0.1l0.9,0V396l0.8,0l7.1-0.1l3.2-27.3l6.9,26.9
	l0.1,0.3l23.2-0.4l0.6-1l14.1-24.5l-4.1,25.4l30.2-0.5l0.7-2.7l7.1-26.8l3,27.4l0.2,1.9l29.1-0.5c4.4,36.4,9.5,80.5-6,118.5
	c-1.8,4.4-3.8,8.7-6.2,12.9c-1.1,2-2.4,4.1-3.7,6.1c-8.1,8.6-17.8,16.1-28.6,22.4c-11.2,5.5-23,10-34.9,13.4c-0.3,0.1-0.6,0.2-1,0.3
	c0,0,0,0,0,0l-2.2,36c0,0,1,0.1,3.3,0c2.2-0.1,5.5-0.3,10.3-0.8c0.5-0.1,1.1-0.1,1.7-0.2c9.5-1.1,24-3.2,45.4-7.6
	c46.6-9.4,72.5-28.2,72.5-28.2S129,395.8,91,321.4z"/>
</svg>
