<?xml version="1.0" encoding="utf-8"?>
<!-- Generator: Adobe Illustrator 19.0.0, SVG Export Plug-In . SVG Version: 6.00 Build 0)  -->
<svg version="1.1" id="Layer_1" xmlns="http://www.w3.org/2000/svg" xmlns:xlink="http://www.w3.org/1999/xlink" x="0px" y="0px"
	 viewBox="-361.5 103 490 600" style="enable-background:new -361.5 103 490 600;" xml:space="preserve">
<style type="text/css">
	.st0{fill:#EF7B05;}
</style>
<g id="XMLID_7194_">
	<path id="XMLID_7399_" class="st0" d="M-29.9,159.9c7.6-0.8,15.2-0.1,22.5,0.7c1.7,0.2,3.3,0.3,5,0.5c8.3,0.7,17.8,1.1,25.8-1.9
		c1.7-0.6,3.5-1.3,5.5-0.9c0.2,0,0.5,0.2,0.7,0.2c-1.4-2.7-2.8-6.2-4.3-9.9c-2-4.9-4-10-6-13c-2.3-3.4-7.7-6.7-13.2-8
		c-3.1-0.7-7.9-1.2-12.8,0.7c-2.3,1-5.6,1.7-7.6,1.8c-0.1,0-0.1,0-0.2,0c-2,0.2-4,0.1-6-0.2c-5.6,5.5-12.7,11.4-18.8,15.7l-2.5,1.8
		c-4,2.7-8,5.5-10.9,8.9c-3.8,4.4-6.1,7.5-3.9,11.3c1.7,1.3,3.4,2.6,5,4C-48.3,164.3-37.9,160.8-29.9,159.9z"/>
	<path id="XMLID_7398_" class="st0" d="M54.1,239.9c9.2-4.5,16.1-11.4,22.1-18.2c3.8-4.2,7.7-9.1,7.8-14.2c-0.4-1.9-1.1-3.8-2.2-5.7
		c-2.8-4.8-8.1-8.7-13.2-12.4l-2.7-2c-4.7-3.5-9.3-6.2-13.7-8.8c-7.1-4.2-13.9-8.2-19.1-14.8c0,0-0.1,0-0.1,0
		c-1.1-1.6-3.9-3.1-5-3.3c-0.8-0.2-1.9,0.3-2.9,0.6c-9,3.4-19.1,3-27.9,2.2c-1.7-0.2-3.4-0.3-5.1-0.5c-7.1-0.7-14.5-1.4-21.6-0.7
		c-6.7,0.7-15.1,3.5-18.5,8.9c0.3,0.2,0.5,0.5,0.5,0.9c-0.3,3.8,4.2,7.4,9.4,7.6c1.4,0,3-0.1,4.6-0.2c3.5-0.3,7.4-0.7,10.4,1.2
		c2.8,1.8,2.9,4.6,3,7c0.1,2,0.1,3.9,1.5,5.2c1.3,1.1,3.5,1.7,5.8,2.2c3,0.7,6.3,1.5,7.9,3.8c0.9,1.3,0.9,2.7,0.9,3.9
		c0,0.9,0,1.8,0.3,2.5c0.8,1.8,3.3,2.9,6,4.1c2.4,1,4.9,2.1,6.5,3.8c2.2,2.3,2.3,5,2.5,7.6c0.1,1,0.1,2,0.3,3c0.5,3,2.4,5.8,4.2,8.5
		l6.8,10.4c0.2,0,0.4,0,0.7,0C33.9,246.5,46.2,243.7,54.1,239.9z"/>
	<path id="XMLID_7397_" class="st0" d="M-264.5,382.2c4.1,13.5,8.4,27.5,5.3,40.7c-1.9,8.1-6.6,15.6-11.1,23
		c-4.6,7.5-9.3,15.2-11,23.3c-1.8,8.6-0.1,17.7,1.6,26.4c2,10.8,4.1,21.9-0.3,32.5c-2,4.9-5.4,9.5-8.7,13.9
		c-4,5.4-7.7,10.4-9.3,16.1c-2.8,9.5,1,19.4,5,27.8c0.9,1.8,1.8,3.7,2.7,5.5c3.6,7.2,7.4,14.7,8.5,22.5c1.7,11.4-3.2,21.6-12.9,27.3
		c-5.9,3.5-14.5,4.9-22.3,3.6c-4.4-0.7-8.1-2.1-10.9-4.1c1,5.3,3.4,9.9,7,13.5c5.2,5.2,13.5,8.3,21.3,7.9
		c7.8-0.4,15.4-4.3,19.7-10.1c3.6-4.8,5.2-11,4.8-18.3c-0.6-9.9-4.6-19.7-8.5-29.1c-1.2-2.9-2.3-5.7-3.4-8.6
		c-4.2-11.2-8.3-25.7-2-39.1c1.8-3.9,4.5-7.7,7.2-11.4c0-0.1,0.1-0.1,0.1-0.2c0,0,0,0,0,0c0.1-0.1,0.2-0.3,0.3-0.4
		c5.8-8.1,11.3-15.7,8.7-23.9c-8.3-26.1,15.9-52,37.2-74.7c2.4-2.6,4.7-5.1,7-7.6c-1.8-15.2-7.5-29.6-13.1-41.5
		c-4.3-7.6-7.2-15.7-8.6-23.9c-5.7-2.3-8.2-7-10.3-11.7c-2.9-6.5-5.9-13.4-8.3-20.5c-0.4,1-0.7,1.9-1,2.9
		C-272.5,356.1-268.5,369.3-264.5,382.2z"/>
	<path id="XMLID_7396_" class="st0" d="M-270.7,385.7c1.9,10.8,3.9,21.9,2.3,36.1c-0.9,8.2-7.1,18.6-13.1,28.5
		c-5.1,8.4-9.9,16.4-11.5,22.9c-1.9,7.5-0.2,15.3,1.6,22.7c1.7,7.7,3.5,15.6,1.5,23.5c-1.9,7.3-6.2,14.8-10.4,22
		c-6.1,10.6-12.5,21.5-11,32c0.8,5.5,2.2,11.1,3.6,16.4c2.4,9.4,4.9,19,4,28.7c-0.1,1.2-0.3,2.3-0.4,3.5c-0.4,3-0.8,5.8-0.4,8.6
		c0.6,4,3,7.3,6.4,9.1c0.5-0.2,1-0.4,1.5-0.7c8.9-5.2,13.3-14.6,11.7-25.2c-1.1-7.5-4.8-14.9-8.3-22c-0.9-1.8-1.8-3.7-2.7-5.5
		c-4.1-8.7-8-18.9-5.1-29c1.7-6,5.8-11.5,9.7-16.8c3.2-4.3,6.5-8.8,8.4-13.4c4.2-10.1,2.2-20.5,0.2-31.5c-1.7-8.9-3.4-18.1-1.5-27.1
		c1.7-8.4,6.6-16.3,11.3-23.9c4.4-7.2,9-14.6,10.8-22.4c3-12.7-1.2-26.5-5.3-39.8c-2.1-6.9-4.2-14-5.4-20.9
		C-273.4,370.1-272.1,377.8-270.7,385.7z"/>
	<path id="XMLID_7395_" class="st0" d="M-225.3,439.3c0.8,7.5,0.7,15.2-1,22.8c-3.1,14.1-12.1,27.2-20.8,39.9
		c-9,13.2-18.4,26.8-20.9,41.4c-3,17.8,4.7,35.8,10.8,47.8l1.9,3.7c5.1,9.8,10.3,19.9,9.1,30.5c-0.6,5.3-2.9,10.5-5.1,15.5
		c-1,2.3-2,4.5-2.8,6.8c-2.8,7.5-3,15.8-0.8,26.2c0.4,1.8,1.2,4.1,2.7,6.5c0.6,0.3,1.1,0.7,1.7,1c0.7,0.4,1,1.1,0.5,1.6
		c0,0.1-0.1,0.1-0.2,0.1c3.2,3.7,8.3,7.3,16.7,9.3c0.1-0.1,0.1-0.3,0.2-0.4c0.3-0.3,0.7-0.4,1.2-0.4c-0.1,0-0.2-0.1-0.2-0.1
		c-9.8-4.1-16.7-12.5-18.1-21.9c-1.1-7.7,1.2-16.2,6.9-25.2c2-3.2,4.3-6.4,6.6-9.4c5.1-7,10.4-14.2,11.9-22
		c2.1-11-3.3-21.4-9.1-32.5c-3.4-6.5-6.9-13.3-8.7-20.2c-4.5-17.2,2-34.5,8.1-47.7c2.1-4.5,4.4-9.1,6.7-13.5
		c0.3-0.6,0.6-1.2,0.9-1.8c0.8-2.5,2-5,3.6-7.3c3.6-7.5,7-15.1,9.1-22.8c4.9-17.8,1.8-33.9-8.5-45.5c-0.3-0.4-0.2-0.8,0.1-1.2
		c-3.5-3.3-6.7-6.7-9.7-10.2c3.3,8.6,6,18,7.2,27.7C-225.1,438.4-225,438.8-225.3,439.3z"/>
	<path id="XMLID_7394_" class="st0" d="M-220.7,490.8C-220.7,490.8-220.7,490.8-220.7,490.8C-220.7,490.8-220.7,490.8-220.7,490.8
		c-1.2,2.4-2.3,4.7-3.5,7.1c-1.8,6-1.1,12.6,2.4,19.6c0.9,1.8,1.8,3.6,2.7,5.4c4,7.6,8.1,15.5,7.9,23.8c-0.1,3.4-1,6.9-1.8,10.2
		c-1.5,6.2-3,12.1,0,17.5c1.7,3,4.5,5.5,7.5,8.1c3.1,2.7,6.3,5.6,8.1,9c4,7.5,0.3,15.3-3.3,22.8c-1.7,3.5-3.4,7.2-4.3,10.8
		c-2.3,9.3,1.3,19.2,9.7,26.4c5.6-1.9,9.7-6.3,11-10.6c2-6.2-0.1-12.8-2.2-18.5l-0.7-1.9c-2.1-5.6-4.3-11.5-3.8-17.4
		c0.3-4.6,2.2-9,4-13.2c1.7-4,3.4-8.1,3.8-12.2c0.7-7.4-2.7-14.5-6.3-21.9c-1.8-3.7-3.6-7.5-4.9-11.3c-3.7-11.3-2.7-23-1.6-34.3
		c0.4-4.6,0.9-9.3,1-13.9c0.3-13.6,0.7-30.4-14.5-40.1c-0.3,3.8-1,7.6-2,11.5C-213.5,475.5-217,483.3-220.7,490.8z"/>
	<path id="XMLID_7393_" class="st0" d="M-208,624.7c0.9-3.8,2.7-7.5,4.4-11.1c3.5-7.4,6.8-14.4,3.3-21.1c-1.6-3.1-4.5-5.6-7.6-8.3
		c-3-2.7-6.2-5.4-8-8.8c-3.3-6-1.8-12.5-0.2-18.8c0.8-3.3,1.6-6.6,1.7-9.8c0.3-7.8-3.8-15.5-7.6-22.9c-0.9-1.8-1.9-3.6-2.8-5.4
		c-2.1-4.2-3.2-8.2-3.5-12.1c-1.2,2.4-2.4,4.7-3.5,7.1c-6,12.9-12.3,29.8-8,46.5c1.7,6.7,5.2,13.4,8.6,19.8
		c5.6,10.8,11.5,22,9.3,33.6c-1.5,8.2-7,15.6-12.2,22.8c-0.4,0.5-0.8,1.1-1.1,1.6c-0.9,4.2,0.3,6.7,2.2,10.4c0.5,0.9,1,1.9,1.5,3
		c0.5,1,1,2.1,1.5,3.1c2.2,4.5,4.4,9.2,5.1,14.1c1,7.1-1.7,13.4-7.5,17.2c-0.7,0.5-1.7,1-2.9,1.4c1.5,1,3,1.8,4.7,2.5
		c2.4,1,5,1.7,7.6,2.1c2.2-1.3,3.5-3.6,4.9-6.9c0.5-1.2,1.1-2.4,1.8-3.6c2.8-5,1.7-10.9-2.8-15.2c-0.3-0.3-0.3-0.7-0.2-1.1
		c-1.9-2.3-3.2-4.9-3.6-7.6c-0.8-5.9,2.2-12.3,8.2-17c0.6-0.4,1.5-0.5,2.1-0.2c0.7,0.3,0.9,1,0.5,1.5c-1.4,2-1.1,4.4,0.9,6.7
		c2.5,2.8,6.7,4.6,10.8,4.3c0.7,0,1.3-0.1,2-0.2C-206.8,644.6-210.4,634.4-208,624.7z"/>
	<path id="XMLID_7392_" class="st0" d="M-240.1,683.1c0.9,0,1.6,0.6,1.5,1.2c0,0.1,0.1,0.2,0.2,0.2c0.2,0.2,0.7,0.3,1,0.3
		c0.7,0,1.6-0.4,2.6-1c4.9-3.3,7.3-9,6.4-15.2c-0.6-4.6-2.8-9.2-4.9-13.6c-0.5-1-1-2.1-1.5-3.1c-0.5-1.1-1-2-1.4-2.9
		c-1.1-2.3-2.1-4.3-2.5-6.6c-0.7,1-1.4,2-2,3c-5.4,8.7-7.6,16.8-6.6,24c0.7,5.1,3.3,9.9,7,13.7
		C-240.2,683.1-240.2,683.1-240.1,683.1C-240.1,683.1-240.1,683.1-240.1,683.1z"/>
	<path id="XMLID_7391_" class="st0" d="M31.7,260.3c2.4,7.1,3.6,14.3,4.4,21.2l0.3,2.6c0.7,6.2,1.5,12.6,3.8,18.6
		c2-5.9,8.1-16.7,24.6-19.7c1.3-2.3,3.1-4.6,5.7-6.5C55.7,273.9,42.2,268.3,31.7,260.3z"/>
	<path id="XMLID_7390_" class="st0" d="M63.3,285.8c-11.2,2.8-16.9,10.1-19.3,15.7c0.9-0.3,1.9-0.4,2.8-0.4c2.5,0,5,1,6.9,2.5
		c1.4-2.7,2.9-5.3,4.3-7.9C59.7,292.5,61.5,289.3,63.3,285.8z"/>
	<path id="XMLID_7389_" class="st0" d="M-191.6,496.3c-0.1,4.7-0.6,9.4-1,14c-1,11.2-2.1,22.7,1.5,33.6c1.2,3.7,3,7.5,4.8,11.1
		c3.5,7.3,7.2,14.9,6.4,22.8c-0.4,4.4-2.2,8.6-3.9,12.8c-1.7,4.1-3.5,8.4-3.8,12.7c-0.4,5.6,1.7,11.2,3.7,16.7l0.7,1.9
		c2.2,6,4.3,12.9,2.2,19.6c-2,6.4-9.3,13-19.3,13.4c-5.2,0.1-10.5-1.9-13.6-5.4c-1.2-1.3-1.9-2.7-2.2-4c-2.9,3.6-4.2,7.7-3.7,11.5
		c0.8,5.6,5.8,10.7,12.4,12.7c9.6,2.9,20.7-0.7,26.8-5.7c5.8-4.8,9.3-11.8,10.5-20.8c0.5-3.8,0.6-7.6,0.7-11.4
		c0.1-3.9,0.2-7.9,0.8-11.8c0.6-4.3,1.7-8.5,2.8-12.7c1.4-5.4,2.8-11,3.1-16.5c0.4-9.5-2.6-19.1-5.5-28.4c-1.9-5.9-3.8-12-4.9-18.1
		c-1.8-10.3-1.1-20.9-0.4-31.2c0.8-11.5,1.6-23.3-1.2-34.7c-3.2-13.3-11.2-25.8-19-37.9c0-0.1,0-0.1,0-0.2
		c-8.1-4-15.5-8.6-22.2-13.8c4.8,7.7,7.1,16.8,6.7,26.6C-190.9,463.4-191.3,481.6-191.6,496.3z"/>
	<path id="XMLID_7388_" class="st0" d="M73.5,274.6c0.1,0,0.1,0.1,0.1,0.1c0.9-0.4,1.8-0.8,2.6-1.1c2.2-0.9,4.2-1.7,5.7-3
		c3.9-3.1,3.7-8.1,3.2-12.8L83,237.4c0,0,0,0,0,0c-0.7-4.8,0-9.7,0.6-14.5c0.3-2.4,0.6-4.7,0.8-7c-1.6,2.5-3.6,4.9-5.5,7.2
		c-6.2,7-13.3,14.1-23,18.8c-6.8,3.3-14.3,5-21.5,5c-3.5,0-6.9-0.5-10-1.4c0.8,1.3,1.7,2.6,2.5,3.9c1.2,2.2,2.3,4.4,3.2,6.6
		c0.4,0,0.8,0.1,1,0.4C42,265.7,57.1,272.2,73.5,274.6z"/>
	<path id="XMLID_7387_" class="st0" d="M-257.2,646.9c0.9-2.3,1.9-4.6,2.9-6.9c2.1-4.8,4.3-9.9,4.9-14.9c1.1-10-4-19.9-8.9-29.5
		l-1.9-3.7c-6.2-12.2-14.1-30.5-10.9-48.9c2.5-15,12-28.8,21.2-42.1c8.6-12.5,17.5-25.4,20.5-39.2c1.4-6.5,1.7-12.9,1.3-19.3
		c-1.6,1.7-3.1,3.4-4.7,5.1c-21,22.4-44.8,47.8-36.7,72.9c2.9,9-3.1,17.4-9,25.5c-0.1,0.1-0.2,0.3-0.3,0.4c-2.8,4-5.5,10.2-5.3,15.2
		c0.4,10.8,5.6,21.5,10.6,31.8c5.5,11.3,11.2,23,10.7,35.2c-0.2,4.9-1.4,9.8-2.5,14.6c-1,4.2-2.1,8.5-2.4,12.8
		c-0.5,6.7,4,15.2,10.6,20.9c-0.3-0.8-0.6-1.7-0.8-2.6C-260.4,663.4-260.1,654.7-257.2,646.9z"/>
	<path id="XMLID_7386_" class="st0" d="M-271.1,655.7c0.3-4.4,1.4-8.8,2.4-13.1c1.1-4.6,2.3-9.5,2.5-14.2
		c0.4-11.8-5.1-23.2-10.5-34.4c-5.1-10.4-10.3-21.3-10.8-32.5c0-0.1,0-0.2,0-0.3c-3.8,11.7-0.3,24.2,3.4,34c1.1,2.8,2.2,5.7,3.4,8.5
		c3.9,9.6,8,19.5,8.6,29.7c0.5,7.8-1.2,14.3-5.1,19.6c-1.9,2.6-4.4,4.8-7.3,6.6c0.1,0.2,0.3,0.3,0.3,0.5c1.2,9.3,4.1,15.9,9.3,20.8
		c6.5,6.2,17.1,9.1,25.7,7.1c0,0,0.1,0,0.1,0c-2.3-1.8-4.3-3.9-5.8-6.1C-264.5,676-271.8,664.6-271.1,655.7z"/>
	<path id="XMLID_7385_" class="st0" d="M-18.3,440.3c0,0.1,0,0.1,0,0.2c-7.4,12.1-15.1,24.6-18.2,37.9c-2.7,11.4-1.9,23.3-1.2,34.7
		c0.7,10.2,1.3,20.8-0.4,31.2c-1,6.1-2.9,12.2-4.7,18.1c-2.8,9.3-5.7,18.8-5.3,28.4c0.2,5.5,1.6,11.1,3,16.5c1,4.1,2.1,8.4,2.6,12.7
		c0.5,3.9,0.6,7.9,0.7,11.8c0.1,3.8,0.2,7.6,0.7,11.4c1.1,9,4.5,16,10.1,20.8c5.8,5,16.4,8.6,25.5,5.7c6.3-2,11.1-7.1,11.8-12.7
		c0.5-3.8-0.7-7.9-3.4-11.4c-0.3,1.4-1.1,2.9-2.3,4.2c-3,3.3-8.1,5.2-12.9,5.1c-9.6-0.4-16.6-7-18.5-13.4c-2-6.7,0-13.6,2.1-19.6
		l0.7-2c1.9-5.4,3.9-11.1,3.5-16.6c-0.3-4.3-2-8.6-3.7-12.7c-1.7-4.1-3.4-8.3-3.8-12.7c-0.7-7.9,2.8-15.5,6.2-22.8
		c1.7-3.6,3.4-7.4,4.6-11.1c3.5-10.9,2.4-22.5,1.5-33.7c-0.4-4.6-0.8-9.3-0.9-14c-0.3-14.7-0.7-32.8,16.7-43.1
		c-0.3-9.8,1.8-18.8,6.3-26.5C-3.6,431.8-10.7,436.4-18.3,440.3z"/>
	<path id="XMLID_7384_" class="st0" d="M-7.8,625.1c-0.8-3.6-2.5-7.2-4.1-10.8c-3.4-7.5-6.9-15.2-3.1-22.7c1.7-3.4,4.8-6.2,7.8-9
		c2.9-2.6,5.6-5.2,7.2-8.1c2.9-5.4,1.5-11.3,0-17.5c-0.8-3.3-1.6-6.8-1.7-10.2c-0.3-8.3,3.7-16.2,7.5-23.8c0.9-1.8,1.8-3.6,2.6-5.3
		c3.3-7.1,4.1-13.7,2.3-19.7c-1.1-2.3-2.3-4.7-3.4-7.1c0,0,0,0,0,0c0,0,0,0,0,0c-3.5-7.6-6.8-15.3-8.9-23.2c-1-3.9-1.6-7.7-1.9-11.4
		c-14.4,9.7-14,26.5-13.7,40c0.1,4.6,0.5,9.3,0.9,13.9c1,11.4,2,23.1-1.5,34.4c-1.2,3.8-3,7.6-4.7,11.3c-3.4,7.4-6.7,14.4-6,21.9
		c0.4,4.1,2,8.3,3.6,12.2c1.7,4.3,3.5,8.7,3.8,13.2c0.4,5.9-1.7,11.8-3.7,17.4l-0.7,2c-2,5.7-4,12.3-2.1,18.5
		c1.3,4.3,5.1,8.6,10.4,10.5C-9.1,644.3-5.6,634.4-7.8,625.1z"/>
	<path id="XMLID_7383_" class="st0" d="M54.3,520.4c7.7-25.1-15.1-50.5-35.2-72.9c-1.5-1.6-2.8-3.2-4.3-4.8
		c-0.5,6.4-0.2,12.8,1.1,19c2.9,13.8,11.4,26.7,19.6,39.2c8.8,13.3,17.8,27.1,20.3,42.1c3,18.3-4.5,36.7-10.5,48.9l-1.8,3.7
		c-4.7,9.6-9.7,19.5-8.6,29.5c0.6,5.1,2.7,10.1,4.7,14.9c1,2.3,1.9,4.6,2.8,6.9c2.8,7.8,3,16.4,0.8,27.2c-0.2,0.9-0.5,1.7-0.7,2.5
		c6.2-5.8,10.5-14.2,10-20.8c-0.3-4.3-1.3-8.6-2.3-12.8c-1.1-4.7-2.2-9.6-2.4-14.5c-0.4-12.2,5-23.9,10.3-35.2
		c4.8-10.3,9.7-20.9,10.1-31.8c0.2-5-2.4-11.1-5-15.1c-0.1-0.2-0.2-0.3-0.3-0.5C57.3,537.8,51.5,529.4,54.3,520.4z"/>
	<path id="XMLID_7382_" class="st0" d="M21,651.9c-0.5,1-0.9,2.1-1.4,3.1c-2,4.4-4.1,9-4.7,13.6c-0.8,6.3,1.5,12,6.2,15.3
		c1,0.7,1.7,1,2.4,1c0.2,0,0.6-0.1,0.8-0.3c0.1-0.1,0.2-0.2,0.2-0.3c0-0.7,0.7-1.2,1.5-1.2c0,0,0,0,0.1,0c3.6-3.8,6-8.6,6.7-13.7
		c1-7.3-1.1-15.4-6.3-24c-0.6-0.9-1.2-1.9-1.8-2.8c-0.4,2.2-1.3,4.2-2.3,6.4C21.9,649.8,21.4,650.8,21,651.9z"/>
	<path id="XMLID_7381_" class="st0" d="M-70.7,146.5c0.2-1.5,0.5-3.1,0.9-4.6c1.1-5.2,2.2-10.5-0.1-15.3c-2.5-5.2-9.1-9.5-17.2-11.2
		c-9.2-1.9-18.1-0.3-24,1.3c-0.4,0.1-0.9,0.3-1.6,0.5c-4,1.3-12.3,3.8-20.4,3.3c-4.4,1.3-8.8,2.3-13.5,2.8
		c-11.4,3.7-21.6,12.1-26.6,21.8c-4.8,9.3-5.1,17-0.9,24.7c3.5-4.1,9.5-7.2,16.2-9c21.5-14.6,57.4-16.3,83.5-4c2,1,4,2,5.9,3.1
		C-70.7,156.3-71.6,151.7-70.7,146.5z"/>
	<path id="XMLID_7380_" class="st0" d="M-177,175.3C-177,175.3-177,175.3-177,175.3c0-1.1,0.1-2.2,0.6-3.3
		c-5.2-8.6-5.2-17.4,0.1-27.7c4.4-8.6,12.7-16.1,22.4-20.7c-0.1,0-0.3,0-0.4,0c-3.4-0.1-6.8-0.6-10-1.1c-4.2-0.6-8.3-1.2-12.3-1.1
		c-8.1,0.3-14.3,4.9-20.7,9.7c-2.2,1.6-4.4,3.3-6.7,4.8c0,0.1,0.1,0.3,0.1,0.4c-2.6,10.7-3.1,21.6-1.3,32.4
		c0.6,3.6,1.5,7.5,3.9,10.8c2.1,2.8,9.3,5.5,14.6,6.2c1.6-0.5,3.3-0.8,5-1.1c2.7-0.5,5.3-1,7.4-2c0.1-0.1,0.2-0.1,0.3-0.2
		C-175.5,180.4-176.8,177.9-177,175.3C-177,175.3-177,175.3-177,175.3z"/>
	<path id="XMLID_7379_" class="st0" d="M-144.9,159c8.6,0,17.2,1.1,25.6,3.1c0.1,0,0.2,0,0.4,0c0,0,0.1,0.1,0.1,0.1
		c18.1,4.4,35.4,13,49.7,25.3c19.5,16.9,31,37.9,39.6,56.3c22.3,47.2,31.3,90.5,27.2,129.4c11.6-53.4,3.3-117.7-23-164.1
		c-14-24.6-30.1-40.7-50.8-50.4c-22.8-10.7-53.3-10.2-74,0.5C-148.4,159.1-146.7,159-144.9,159L-144.9,159z"/>
	<path id="XMLID_7378_" class="st0" d="M-213,203.4c-4.1-0.9-7.9-3.1-11.3-6.4c-6.9-6.6-9.8-15.5-7.9-23.7c0.2-0.7,0.4-1.5,0.6-2.3
		c1.1-4,2.2-8.1-0.9-10.8c-2.3-2-6.2-2.3-9.1-2c-3.6,0.4-6.9,1.8-9.9,3.2c-11.7,5.5-22.1,14.7-29.4,25.9c0,0,0,0,0,0
		c-2.3,5-3.6,10.1-3.6,15.1c0,1.9,0.1,3.8,0.2,5.7c0.1,1.8,0.2,3.6,0.2,5.4c0.5,0.1,0.8,0.4,0.9,0.8c2.4,7.8,10.6,14.5,20.9,17.2
		c9.7,2.5,24.7,0.3,33.6-4.9c2-3.3,4.7-6.6,8.5-9.3c1-0.7,2.1-1.4,3.3-2.1c3.2-2,6.1-3.8,7.1-6.4c0.3-0.8,0.4-1.7,0.5-2.6
		c0.1-0.6,0.2-1.2,0.3-1.8c-0.5-0.1-1-0.1-1.7-0.3C-211.3,203.9-212,203.7-213,203.4z"/>
	<path id="XMLID_7377_" class="st0" d="M-263.4,233.7c-9.6-2.4-17.5-8.1-21.3-15c-0.3,1.6-0.8,3.1-1.6,4.7c-1.9,3.6-5.2,6.7-8.5,9.6
		c-2.2,2-4.4,4-6.2,6.2c-2.8,3.5-3.7,8.6-2.1,12.2c0.9,2,2.4,3.3,4.5,3.9l1.8,0.6c15.6-10.3,40.4-12.4,59-5.3c1.2-3,2.2-6,3-8.9
		c0.6-2.1,1.2-4.3,2-6.4c0.5-1.5,1.2-3.2,2-4.9c-6.6,2.9-14.8,4.5-22.4,4.5C-256.8,234.9-260.3,234.5-263.4,233.7z"/>
	<path id="XMLID_7376_" class="st0" d="M-204.3,180.5c-2.7-3.6-3.7-7.7-4.3-11.6c-1.7-10.2-1.4-20.5,0.8-30.7
		c-0.1,0-0.1-0.1-0.2-0.1c0,0,0-0.1-0.1-0.1c-1.6,0.8-3.2,1.6-5,2.2c-20.5,7.1-35.5,14.4-47,22.9c2.2-1.4,4.5-2.6,6.8-3.7
		c3.2-1.5,6.9-3.1,11.1-3.5c4.8-0.5,9.4,0.5,12,2.8c4.2,3.6,2.8,8.5,1.6,12.8c-0.2,0.8-0.4,1.5-0.6,2.2c-1.8,7.6,0.9,15.8,7.3,21.9
		c3,2.9,6.3,4.8,9.7,5.5c1.2,0.3,2,0.5,2.7,0.8c0.3,0.1,0.8,0.2,0.9,0.3c0-0.1,0.5-0.5,1.3-1.2c0,0,0,0,0,0c1.4-1.3,3.4-2,5.3-2.6
		c1.4-0.5,2.7-0.9,3.7-1.6c1.4-1,2.1-2.5,2.8-4.1c0.7-1.5,1.4-3,2.8-4.4c0.5-0.5,1.1-0.8,1.7-1.2C-196,186-202.1,183.6-204.3,180.5z
		"/>
	<path id="XMLID_7375_" class="st0" d="M-145,161.4c-12.2,0-26.9,5.8-28.8,14.1c0.2,1.9,1.1,3.7,2.1,5.2c0.2-0.2,0.4-0.3,0.6-0.4
		c0.8-0.6,1.7-1.2,2.6-1.8c3.7-2.3,8.5-3.4,12.7-4.4l21.4-5.1c4.7-1.1,9.3-2.5,12-4.9C-129.9,162.3-137.4,161.4-145,161.4
		C-145,161.4-145,161.4-145,161.4z"/>
	<path id="XMLID_7374_" class="st0" d="M51.1,628.4c0.2,4.7,1.3,9.5,2.4,14.2c1,4.3,2,8.7,2.3,13.1c0.7,8.9-6.3,20.3-15.6,26.1
		c-1.4,2.3-3.3,4.4-5.6,6.2c0,0,0.1,0,0.1,0c9.5,2.4,19.4-2,24.5-7c5-4.9,7.8-11.5,8.9-20.8c0-0.2,0.2-0.4,0.4-0.5
		c-2.7-1.8-5.2-4-7-6.6c-3.7-5.2-5.4-11.8-4.9-19.6c0.6-10.2,4.5-20.1,8.2-29.6c1.1-2.8,2.2-5.7,3.3-8.5c3.5-9.7,6.8-22,3.4-33.6
		c-0.5,11.2-5.5,21.9-10.3,32.3C56,605.1,50.6,616.6,51.1,628.4z"/>
	<path id="XMLID_7373_" class="st0" d="M35.9,681.3c0.6-0.3,1.1-0.7,1.6-1c1.4-2.4,2.2-4.7,2.6-6.6c2.1-10.4,1.9-18.8-0.7-26.2
		c-0.8-2.3-1.8-4.5-2.7-6.8c-2.1-5-4.3-10.1-4.8-15.4c-1.2-10.6,3.9-20.7,8.7-30.5l1.8-3.7c5.8-12,13.2-29.9,10.3-47.8
		c-2.4-14.6-11.3-28.2-20-41.4c-8.3-12.6-16.9-25.7-19.9-39.8c-1.6-7.4-1.6-15.1-0.8-22.6c-0.1-0.1-0.1-0.1-0.2-0.2
		c-0.4-0.5-0.2-1.1,0.4-1.5c1.2-9.7,3.9-19.2,7-27.8c-2.9,3.7-6,7.2-9.5,10.5c0.3,0.4,0.4,0.8,0.1,1.2c-9.9,11.5-12.8,27.7-8.2,45.5
		c2,7.8,5.3,15.4,8.8,22.8c1.6,2.3,2.7,4.8,3.5,7.3c0.3,0.6,0.6,1.2,0.9,1.8c2.2,4.4,4.4,9,6.4,13.5c5.9,13.2,12,30.5,7.7,47.7
		c-1.7,6.9-5.1,13.6-8.4,20.2c-5.5,11-10.7,21.4-8.7,32.5c1.4,7.8,6.5,15,11.4,22c2.1,3.1,4.4,6.2,6.3,9.4
		c5.4,9.1,7.6,17.5,6.6,25.2c-1.3,9.4-7.9,17.8-17.3,21.9c-0.1,0-0.2,0.1-0.3,0.1c0.4,0,0.8,0.1,1.1,0.4c0.1,0.1,0.2,0.2,0.2,0.4
		c7.9-2,12.8-5.6,15.8-9.3c0,0-0.1-0.1-0.2-0.1C34.9,682.4,35.1,681.7,35.9,681.3z"/>
	<path id="XMLID_7372_" class="st0" d="M21.6,686.9c-1.2-0.3-2.1-0.9-2.8-1.4c-5.5-3.8-8.1-10.1-7.2-17.2c0.7-4.9,2.8-9.6,4.9-14.1
		c0.5-1,0.9-2,1.4-3.1c0.5-1.1,1-2.1,1.4-3c1.8-3.7,3-6.2,2.1-10.5c-0.4-0.5-0.7-1.1-1.1-1.6c-5-7.2-10.2-14.6-11.7-22.8
		c-2.1-11.6,3.5-22.8,8.9-33.6c3.2-6.4,6.5-13.1,8.2-19.8c4.2-16.7-1.9-33.6-7.6-46.5c-1-2.3-2.2-4.6-3.2-6.9
		c-0.3,3.8-1.4,7.7-3.3,11.8c-0.8,1.8-1.7,3.6-2.6,5.4c-3.7,7.4-7.6,15.1-7.3,22.9c0.1,3.2,0.9,6.6,1.7,9.9c1.5,6.2,3,12.7-0.2,18.8
		c-1.8,3.3-4.8,6.1-7.7,8.8c-2.9,2.7-5.7,5.3-7.3,8.3c-3.4,6.7-0.2,13.7,3.2,21.2c1.6,3.6,3.4,7.4,4.2,11.1
		c2.3,9.7-1.2,19.9-9.2,27.6c0.6,0.1,1.2,0.2,1.9,0.2c3.6,0.2,7.6-1.5,10-4.1c2.1-2.3,2.5-4.9,1.1-7c-0.4-0.5-0.1-1.2,0.6-1.5
		c0.7-0.3,1.6-0.2,2.1,0.2c5.7,4.7,8.7,11.1,7.9,17c-0.4,2.8-1.6,5.3-3.4,7.6c0.2,0.4,0.2,0.7-0.2,1c-4.3,4.3-5.3,10.3-2.6,15.2
		c0.6,1.2,1.2,2.4,1.7,3.6c1.4,3.2,2.6,5.5,4.7,6.8c2.5-0.4,4.9-1.1,7.2-2C18.7,688.8,20.1,687.9,21.6,686.9z"/>
	<path id="XMLID_7371_" class="st0" d="M-112.3,114.5c6.3-1.8,16-3.4,26-1.4c9.2,1.9,16.6,6.7,19.4,12.7c2.5,5.3,1.4,11,0.3,16.4
		c-0.3,1.5-0.6,3-0.9,4.5c-0.4,2.9-1.1,12.5,6.9,16.6c0.5-3.1,2.9-5.9,5.1-8.5c3.1-3.6,7.4-6.5,11.5-9.3l2.5-1.7
		c5.7-4,12.3-9.5,17.7-14.7c-5.5-1.4-10.9-4.1-16.5-6.9c-7.2-3.6-14.7-7.4-23.5-9.2c-9.9-2-21.2-4.3-32-3.3
		c-8.9,0.8-17.4,3.8-25.6,6.7c-1,0.3-2,0.7-2.9,1c4.2-0.7,8-1.9,10.3-2.6C-113.3,114.8-112.8,114.6-112.3,114.5z"/>
	<path id="XMLID_7370_" class="st0" d="M-271.2,292.7c-5.5-1.3-11.4-1.5-17.2-1.6c0.1,0.1,0.2,0.2,0.3,0.4c1.6,2.7,1.5,5.5,1.4,8.3
		c0,1-0.1,2,0,3c0.3,7.4,8.6,18.5,14.3,24.5c-0.8-4.8-1.1-9.6-0.7-14.4c0.2-2.5,0.7-5,2.4-7.3c2-2.7,5.4-4.4,9-4.5
		c1.6,0,2.8,0.2,4,0.8l-0.2-1.2C-260.2,297.1-265,294.2-271.2,292.7z"/>
	<path id="XMLID_7369_" class="st0" d="M-293.9,257.3c0.1,0.3,0.1,0.6-0.1,0.9c-2.9,3.7-5.9,7.4-7.4,11.5c-1.6,4.4-0.9,8.7,1.7,11.7
		c1.3,1.5,3.1,2.8,5,4.1c1.4,1,2.9,2.1,4.1,3.2c6.7,0.1,13.7,0.2,20.3,1.7c4.6,1.1,8.5,2.9,11.4,5.1c-0.1-0.9-0.2-1.7-0.1-2.7l0-0.2
		c0,0,0-0.1,0-0.1c0.2-6.7,3.2-14.8,6.8-20c1.5-2.2,3.1-4.3,4.8-6.4c2.9-3.8,5.9-7.7,8-11.8c0.2-0.5,0.4-0.9,0.6-1.4
		C-255.9,246.1-279.1,247.8-293.9,257.3z"/>
	<path id="XMLID_7368_" class="st0" d="M87.8,630.9c0.4-2.8,0-5.6-0.4-8.6c-0.2-1.2-0.3-2.3-0.4-3.5c-0.9-9.7,1.5-19.4,3.8-28.7
		c1.3-5.4,2.7-10.9,3.4-16.4c1.4-10.6-4.7-21.5-10.6-32.1c-4-7.2-8.2-14.7-9.9-22c-1.9-7.9-0.2-15.9,1.5-23.5
		c1.6-7.5,3.3-15.2,1.5-22.8c-1.6-6.5-6.2-14.5-11-22.9c-5.7-10-11.7-20.3-12.6-28.5c-1.5-14.2,0.3-25.4,2.2-36.1
		c1.3-7.7,2.5-15.2,2.3-23.3c-1.1,6.7-3.1,13.5-5,20.2c-3.9,13.3-7.9,27-5.1,39.8c1.8,7.8,6.1,15.2,10.4,22.4
		c4.5,7.6,9.1,15.5,10.8,23.9c1.8,9,0.1,18.2-1.5,27.1c-2,11-3.9,21.4,0.2,31.6c1.9,4.7,5,9.1,8.1,13.5c3.7,5.3,7.6,10.7,9.2,16.8
		c2.8,10.1-0.9,20.3-4.9,29c-0.8,1.9-1.7,3.7-2.6,5.6c-3.4,7.1-6.9,14.4-8,22c-1.5,10.6,2.7,20.1,11.2,25.3c0.4,0.3,0.9,0.4,1.4,0.6
		C84.9,638.2,87.2,634.9,87.8,630.9z"/>
	<path id="XMLID_7367_" class="st0" d="M45.7,361.4c-2,4.7-4.4,9.4-9.8,11.7c-1.2,7.6-3.7,15-7.3,22.2
		c-5.3,11.8-11.4,27.4-13.3,43.5c2.1,2.4,4.3,4.9,6.5,7.4c20.4,22.8,43.6,48.6,35.6,74.7c-2.5,8.2,2.7,15.8,8.3,23.9
		c0.1,0.1,0.2,0.3,0.3,0.4c0,0,0,0,0,0c0,0,0.1,0.1,0.1,0.2c2.5,3.7,5.1,7.5,6.9,11.4c6,13.3,2.1,27.9-1.9,39.1
		c-1,2.9-2.2,5.7-3.3,8.6c-3.7,9.4-7.5,19.2-8.1,29.1c-0.4,7.3,1.1,13.5,4.5,18.3c4.2,5.8,11.4,9.7,18.8,10.1
		c7.4,0.4,15.3-2.7,20.3-7.9c3.4-3.6,5.7-8.1,6.7-13.4c-2.7,2-6.3,3.4-10.5,4.1c-7.4,1.2-15.6-0.2-21.2-3.7
		c-9.3-5.7-13.9-15.9-12.4-27.3c1.1-7.8,4.7-15.3,8.1-22.5c0.9-1.8,1.8-3.7,2.6-5.5c3.8-8.4,7.4-18.2,4.8-27.8
		c-1.6-5.7-5.2-10.8-8.9-16.1c-3.1-4.4-6.3-9-8.3-13.9c-4.2-10.6-2.2-21.7-0.3-32.5c1.6-8.7,3.2-17.8,1.5-26.4
		c-1.6-8.1-6.2-15.8-10.5-23.3c-4.3-7.3-8.8-14.9-10.6-23c-3-13.2,1.1-27.1,5.1-40.7c3.8-12.9,7.6-26.1,5.2-38.4
		c-0.3-0.9-0.5-1.7-0.8-2.6C51.3,348.2,48.5,355,45.7,361.4z"/>
	<path id="XMLID_7366_" class="st0" d="M-11,407.4c-0.2,0-0.3,0-0.5-0.1c-0.9-0.2-1.3-0.9-1.1-1.5c4.3-10.2,7.7-21.1,10.1-32.6
		c4.1-38.8-4.9-82.1-27.2-129.4c-8.7-18.4-20.2-39.5-39.6-56.3c-14.2-12.3-31.5-20.9-49.7-25.3c0.7,0.3,1,1,0.6,1.5
		c-0.2,0.3-0.6,0.6-0.9,0.9c17.3,4.3,33.8,12.6,47.5,24.4c19.1,16.6,30.5,37.4,39.1,55.6c31.2,66.2,36.4,124.6,15.4,173.6
		c-0.3,0.6,0.2,1.3,1.1,1.5c0.2,0,0.3,0.1,0.5,0.1c0.7,0,1.3-0.3,1.5-0.8c1.7-4,3.2-8.1,4.6-12.3C-9.8,407.1-10.3,407.4-11,407.4z"
		/>
	<path id="XMLID_7365_" class="st0" d="M-174.1,169.9c0.3,0.5,0.5,1.1,0.9,1.6c0,0,0,0,0,0c0.1,0.1,0,0.3,0,0.4c0,0.2,0.1,0.3,0,0.5
		l0,0c-0.5,1-0.6,2-0.5,3.1c1.8-8.3,16.6-14.1,28.8-14.1c0,0,0,0,0,0c7.5,0,15.1,0.9,22.5,2.5c0.4-0.4,1-0.8,1.3-1.2
		c0.3-0.5,1.1-0.7,1.8-0.5c-8.4-2-17-3.1-25.6-3.1h0c-1.7,0-3.4,0.1-5.2,0.3c-2,1-3.9,2.1-5.7,3.4c-0.7,0.4-1.7,0.4-2.3-0.1
		c-0.6-0.5-0.6-1.2,0.1-1.7c0.1,0,0.1-0.1,0.2-0.1C-164.7,162.6-170.7,165.8-174.1,169.9z"/>
	<path id="XMLID_7364_" class="st0" d="M-177,175.3C-177,175.3-177,175.3-177,175.3C-177,175.3-177,175.3-177,175.3
		C-177,175.3-177,175.3-177,175.3z"/>
	<path id="XMLID_7363_" class="st0" d="M-50.5,173.5c-0.1,0-0.2,0-0.3,0c-0.9-0.2-1.3-0.8-1.1-1.5c0.1-0.2,0.2-0.3,0.3-0.5
		c-1.6-1.4-3.3-2.7-5-4c0,0,0,0,0,0.1c0.4,0.6,0,1.3-0.8,1.6c-0.2,0.1-0.4,0.1-0.6,0.1c-0.6,0-1.2-0.3-1.5-0.7
		c-0.5-0.8-0.7-1.6-0.9-2.4c-0.2,0-0.5,0-0.7-0.1c-3.2-1.3-5.6-3.4-7.3-6.1c-2-1.1-3.9-2.1-5.9-3.1c-26.1-12.3-62-10.5-83.5,4
		c2.5-0.7,5.1-1.2,7.8-1.5c20.7-10.8,51.2-11.3,74-0.5c20.7,9.7,36.9,25.7,50.8,50.4C1,255.6,9.2,319.8-2.4,373.2
		c-1.2,11.5-3.6,22.7-7.2,33.4c0,0,0.1-0.1,0.1-0.1c24.7-58.1,19.3-141.5-12.9-198.3c-5.9-10.4-12.2-19.2-19.1-26.8
		C-46.1,180.3-49.8,177.1-50.5,173.5z"/>
	<path id="XMLID_7362_" class="st0" d="M-12.5,405.8c-0.3,0.6,0.2,1.3,1.1,1.5c0.2,0,0.3,0.1,0.5,0.1c0.6,0,1.2-0.3,1.4-0.7
		c3.6-10.7,5.9-21.9,7.2-33.4C-4.8,384.7-8.2,395.7-12.5,405.8z"/>
	<path id="XMLID_7361_" class="st0" d="M-158.1,162.6c0.6,0.5,1.6,0.5,2.3,0.1c1.8-1.2,3.7-2.3,5.7-3.4c-2.6,0.3-5.2,0.8-7.8,1.5
		c-0.1,0-0.1,0.1-0.2,0.1C-158.7,161.4-158.8,162.1-158.1,162.6z"/>
	<path id="XMLID_7360_" class="st0" d="M-236.9,253.5c-0.6-0.2-1.2-0.4-1.7-0.6c-0.2,0.5-0.4,1-0.6,1.4c-2.1,4.1-5.1,8-8,11.8
		c-1.6,2.1-3.3,4.3-4.8,6.4c-3.6,5.2-6.6,13.3-6.8,20c0-0.6,0.6-1.1,1.4-1.2c1-0.1,1.7,0.4,1.8,1.1l0,0.3c0.1-6.3,3.1-14.3,6.5-19.1
		c1.5-2.1,3.1-4.2,4.7-6.3c3-3.9,6.1-7.9,8.3-12.1c0.3-0.5,0.4-1.1,0.7-1.6C-236,253.7-236.5,253.7-236.9,253.5z"/>
	<path id="XMLID_7359_" class="st0" d="M-258.8,295.5c0.1,0.1,0.2,0.1,0.2,0.1l-0.4-2.8C-259,293.8-258.9,294.7-258.8,295.5z"/>
	<path id="XMLID_7358_" class="st0" d="M-119.3,162.2c0.2,0,0.3,0.1,0.5,0.1c0,0-0.1-0.1-0.1-0.1
		C-119.1,162.1-119.2,162.2-119.3,162.2z"/>
	<path id="XMLID_7357_" class="st0" d="M-174.2,182.3c-0.1,0.1-0.2,0.1-0.3,0.2c-2.1,1-4.7,1.5-7.4,2c-1.7,0.3-3.4,0.7-5,1.1
		c0.1,0,0.2,0,0.4,0.1c0.9,0.1,1.5,0.7,1.4,1.4c-0.1,0.6-0.8,1-1.6,1c-0.1,0-0.2,0-0.2,0c-1.2-0.1-2.5-0.4-3.9-0.7
		c-0.6,0.4-1.2,0.7-1.7,1.2c-1.4,1.3-2.1,2.9-2.8,4.4c-0.7,1.6-1.4,3.1-2.8,4.1c-1,0.7-2.3,1.1-3.7,1.6c-1.9,0.6-3.9,1.3-5.3,2.6
		c0.6-0.5,1.6-0.6,2.3-0.2c0.7,0.4,0.8,1.2,0.3,1.7c-1.5,1.4-2.5,2-3.8,2c-0.2,0-0.4-0.1-0.6-0.1c-0.1,0.6-0.2,1.2-0.3,1.8
		c-0.1,0.9-0.2,1.8-0.5,2.6c-1,2.6-4,4.4-7.1,6.4c-1.1,0.7-2.2,1.4-3.3,2.1c-3.8,2.7-6.5,6-8.5,9.3c0.1,0,0.2-0.1,0.3-0.1
		c0.7-0.4,1.7-0.3,2.3,0.2c0.6,0.5,0.5,1.3-0.2,1.7c-1.3,0.8-2.8,1.4-4.3,2.1c-0.8,1.8-1.5,3.4-2,4.9c-0.7,2.1-1.3,4.2-2,6.4
		c-0.9,3-1.9,6-3,8.9c0.8,0.3,1.7,0.5,2.4,0.9c0.2,0.1,0.3,0.3,0.4,0.4c1.3-3.2,2.4-6.5,3.4-9.7c0.6-2.1,1.2-4.2,1.9-6.3
		c2.7-7.8,6.4-13.2,11.6-16.8c1-0.7,2-1.3,3.1-2c3.4-2.1,6.9-4.3,8.1-7.5c0.4-1,0.5-2,0.6-3c0.2-1.5,0.4-3,1.5-4
		c0.9-0.9,2.5-1.4,4.1-1.9c1.6-0.5,3.2-1.1,4.6-2c2-1.4,2.9-3.2,3.7-5c0.6-1.4,1.2-2.6,2.3-3.6c2-1.9,5.4-2.5,8.9-3.1
		c2.9-0.5,5.8-1.1,8.4-2.3c0.1,0,0.2-0.1,0.3-0.2c-0.1-0.1-0.3-0.2-0.4-0.3C-173.3,183.5-173.7,182.9-174.2,182.3z"/>
	<path id="XMLID_7356_" class="st0" d="M-134.4,168.9l-21.4,5.1c-4.2,1-8.9,2.1-12.7,4.4c-0.9,0.6-1.7,1.2-2.6,1.8
		c-0.2,0.2-0.4,0.3-0.6,0.4c0.6,0.9,1.1,1.6,1.6,2.1c0,0,0,0,0,0.1c0.5-0.3,0.9-0.6,1.3-1c0.8-0.6,1.5-1.1,2.3-1.6
		c3.3-2,7.5-3,11.6-4l21.4-5.1c5.6-1.3,11.1-3,14.2-6.4c-1.1-0.3-2.2-0.5-3.2-0.8C-125.1,166.4-129.7,167.7-134.4,168.9z"/>
	<path id="XMLID_7355_" class="st0" d="M-118.9,162.3c-0.1,0-0.3-0.1-0.5-0.1c-0.7-0.1-1.5,0-1.8,0.5c-0.3,0.5-0.8,0.8-1.3,1.2
		c1.1,0.2,2.2,0.5,3.2,0.8c0.3-0.3,0.7-0.6,0.9-0.9C-117.9,163.2-118.2,162.6-118.9,162.3z"/>
	<path id="XMLID_7354_" class="st0" d="M40.7,307.8C40.7,307.8,40.7,307.8,40.7,307.8c-0.8,0-1.5-0.5-1.6-1.1
		c-0.1-0.7,0.1-1.4,0.4-2.1c0.1-0.6,0.4-1.3,0.6-2c-2.3-6-3.1-12.3-3.8-18.6l-0.3-2.6c-0.8-6.9-2-14.1-4.4-21.2
		c-1-0.8-2.1-1.6-3.1-2.4c-0.6-0.5-0.5-1.2,0.2-1.7c0.4-0.2,0.8-0.3,1.3-0.2c-0.9-2.2-2-4.4-3.2-6.6c-0.8-1.3-1.6-2.6-2.5-3.9
		c-0.8-0.2-1.7-0.4-2.5-0.6c-0.8-0.3-1.1-1-0.8-1.6c0.3-0.4,0.9-0.6,1.5-0.6l-6.8-10.4c-1.8-2.7-3.6-5.5-4.2-8.5c-0.2-1-0.2-2-0.3-3
		c-0.1-2.6-0.3-5.4-2.5-7.6c-1.7-1.7-4.1-2.8-6.5-3.8c-2.7-1.2-5.2-2.3-6-4.1c-0.3-0.7-0.3-1.6-0.3-2.5c0-1.2,0-2.6-0.9-3.9
		c-1.6-2.3-4.9-3.1-7.9-3.8c-2.3-0.6-4.6-1.1-5.8-2.2c-1.4-1.3-1.5-3.2-1.5-5.2c-0.1-2.4-0.2-5.2-3-7c-3-1.9-6.9-1.6-10.4-1.2
		c-1.6,0.2-3.2,0.3-4.6,0.2c-5.2-0.2-9.7-3.8-9.4-7.6c0-0.3-0.2-0.6-0.5-0.9c-0.3,0.5-0.7,1-0.9,1.6c-0.1,0.3-0.4,0.5-0.8,0.7
		c2.8,2.5,5.5,5.2,8.2,8.1c1,0.3,2.1,0.5,3.2,0.5c1.7,0.1,3.5-0.1,5.2-0.3c3.2-0.3,6-0.6,7.8,0.7c1.8,1.2,1.8,3.1,1.9,5.3
		c0.1,2.2,0.2,4.7,2.3,6.6c1.9,1.7,4.8,2.4,7.3,3c2.7,0.6,5,1.2,6,2.6c0.5,0.8,0.5,1.8,0.6,2.9c0,1,0,2.1,0.5,3.2
		c1.1,2.7,4.3,4.1,7.4,5.4c2.2,0.9,4.3,1.8,5.5,3.1c1.7,1.7,1.8,4,1.9,6.4c0.1,1.1,0.1,2.2,0.3,3.2c0.6,3.3,2.7,6.4,4.5,9.2
		l7.5,11.5c1.2,1.8,2.4,3.6,3.4,5.5c5.8,10.2,7.8,21.1,9,31.4l0.3,2.6c1,8.6,2,17.5,7.2,25.4c0.3,0.4,0.9,0.7,1.5,0.7
		c0.2,0,0.5,0,0.7-0.1c0.8-0.3,1.2-1,0.8-1.6c-0.4-0.6-0.7-1.2-1-1.8C42,307.4,41.5,307.8,40.7,307.8z"/>
	<path id="XMLID_7353_" class="st0" d="M-50.3,173.5c-0.1,0-0.1,0-0.2,0c0.7,3.6,4.4,6.8,9.1,8c-2.6-2.9-5.4-5.6-8.2-8.1
		C-49.8,173.4-50.1,173.5-50.3,173.5z"/>
	<path id="XMLID_7352_" class="st0" d="M-268.4,330.9c0,0-0.1-0.1-0.2-0.1c0.1,0.5,0.3,1.1,0.4,1.6
		C-267.7,332-267.8,331.3-268.4,330.9z"/>
	<path id="XMLID_7351_" class="st0" d="M-286.8,302.8c0-1,0-2,0-3c0.1-2.8,0.2-5.6-1.4-8.3c-0.1-0.1-0.2-0.2-0.3-0.4
		c-0.8,0-1.5,0-2.3,0c-0.9,0-1.6-0.5-1.6-1.2c0-0.6,0.7-1.2,1.6-1.2c0,0,0,0,0,0c0.1,0,0.1,0,0.2,0c-1.3-1.2-2.7-2.2-4.1-3.2
		c-1.9-1.3-3.7-2.6-5-4.1c-2.6-3-3.3-7.3-1.7-11.7c1.4-4.1,4.5-7.9,7.4-11.5c0.2-0.3,0.2-0.6,0.1-0.9c-0.3,0.2-0.6,0.3-0.9,0.5
		c-0.3,0.2-0.7,0.3-1.1,0.3c-0.4,0-0.9-0.1-1.2-0.4c-0.6-0.5-0.6-1.2,0.1-1.7c0.1-0.1,0.2-0.1,0.2-0.1l-1.8-0.6
		c-2.1-0.7-3.6-2-4.5-3.9c-1.6-3.5-0.7-8.7,2.1-12.2c1.7-2.2,4-4.2,6.2-6.2c3.2-2.9,6.5-6,8.5-9.6c0.8-1.5,1.3-3.1,1.6-4.7
		c-0.7-1.3-1.3-2.6-1.7-3.9c-0.2-0.6,0.4-1.3,1.2-1.4c0.4-0.1,0.7,0,1,0.1c0-1.8-0.1-3.6-0.2-5.4c-0.1-1.9-0.2-3.8-0.2-5.7
		c0.1-5,1.3-10.1,3.6-15.1c-0.4,0.6-1.3,0.8-2.2,0.6c-0.8-0.3-1.1-1-0.8-1.6c6.1-9.4,14.5-17.4,23.8-23.1
		c11.5-8.5,26.4-15.9,47-22.9c1.8-0.6,3.4-1.4,5-2.2c-0.6-0.4-0.7-1.1-0.2-1.6l1.3-1.2c0.5-0.4,1.3-0.6,1.9-0.3
		c0.5,0.2,0.7,0.5,0.8,0.9c2.3-1.5,4.6-3.1,6.7-4.8c6.5-4.8,12.6-9.4,20.7-9.7c4.1-0.1,8.1,0.5,12.3,1.1c3.2,0.5,6.6,1,10,1.1
		c0.1,0,0.3,0,0.4,0c2-0.9,4-1.8,6.1-2.5c0.8-0.3,1.8,0,2.1,0.6c0.4,0.6,0,1.3-0.8,1.6c0,0-0.1,0-0.1,0c4.6-0.5,9.1-1.5,13.5-2.8
		c-0.2,0-0.4,0-0.5,0c-0.9-0.1-1.5-0.7-1.4-1.3c0.1-0.6,0.8-1.1,1.8-1c3,0.2,6.1,0,9-0.5c1-0.3,2-0.7,2.9-1
		c8.2-2.9,16.7-5.9,25.6-6.7c10.8-1,22.1,1.3,32,3.3c8.8,1.8,16.3,5.5,23.5,9.2c5.6,2.8,11,5.5,16.5,6.9c0.5-0.4,1-0.9,1.4-1.3
		c0.5-0.5,1.5-0.6,2.3-0.2c0.7,0.4,0.9,1.1,0.3,1.7c-0.2,0.2-0.4,0.4-0.6,0.6c2,0.3,4,0.3,6,0.2c-0.8,0-1.5-0.4-1.6-1
		c-0.1-0.7,0.6-1.2,1.5-1.3c0.5,0,1-0.1,1.7-0.2c0,0-0.1,0-0.1,0c-8.2,1.6-16.3-2.5-25.5-7.1c-7.1-3.6-15.2-7.6-24.5-9.5
		c-10.2-2.1-21.8-4.4-33.3-3.3c-9.4,0.9-18.1,3.9-26.6,6.9c-10.5,3.7-20.4,7.2-31.4,6.7c-3.2-0.1-6.4-0.6-9.6-1.1
		c-4.2-0.6-8.7-1.3-13.1-1.1c-9.4,0.3-16.3,5.4-22.9,10.4c-4.6,3.4-9.3,6.9-14.7,8.8c-21.8,7.5-37.5,15.3-49.5,24.6
		c-15.2,11.8-23.7,25.9-23.9,39.7c0,1.9,0.1,3.9,0.2,5.9c0.3,5.1,0.6,9.9-1.7,14.3c-1.7,3.3-4.8,6-8,9c-2.3,2-4.6,4.2-6.4,6.5
		c-3.3,4.1-4.2,9.9-2.3,14.1c1.2,2.6,3.3,4.4,6.3,5.4l2.1,0.7c-2.7,3.4-5.4,7-6.8,11c-1.8,5-1,10,2.1,13.6c1.5,1.7,3.5,3.2,5.5,4.6
		c2.4,1.7,4.6,3.3,5.8,5.3c1.3,2.2,1.2,4.6,1.1,7.3c0,1-0.1,2.1,0,3.1c0.4,9.9,13,24.7,18.4,29c-0.4-1.5-0.6-3.1-0.9-4.7
		C-278.2,321.3-286.5,310.2-286.8,302.8z"/>
	<path id="XMLID_7350_" class="st0" d="M-11,128.3c0.2,0.6-0.3,1.3-1.2,1.4c-0.8,0.1-1.5,0.2-2.3,0.3c0.1,0,0.1,0,0.2,0
		c2-0.1,5.3-0.8,7.6-1.8c4.9-1.9,9.6-1.4,12.8-0.7c5.5,1.3,10.9,4.6,13.2,8c2,3,4,8.1,6,13c1.5,3.7,2.9,7.2,4.3,9.9
		c1.9,0.6,4.8,2.3,6.3,4.2c0.4,0.6,0.1,1.3-0.7,1.6c-0.7,0.3-1.7,0.1-2.1-0.4c5.2,6.6,12,10.7,19.1,14.8c4.4,2.6,9,5.3,13.7,8.8
		l2.7,2c5.1,3.8,10.4,7.6,13.2,12.4c1.1,1.9,1.8,3.8,2.2,5.7c0-0.4,0-0.7,0-1.1c-0.1-0.7,0.6-1.2,1.5-1.3c0.5,0,0.9,0.1,1.2,0.4
		c-0.5-1.6-1.1-3.1-2-4.6c-3-5.2-8.5-9.2-13.9-13.2l-2.6-1.9c-4.8-3.6-9.5-6.4-14-9c-8.5-5-15.9-9.3-20.9-17.9
		c-1.6-2.7-3.2-6.7-4.9-11c-2-5-4.1-10.2-6.2-13.4c-2.7-4-8.7-7.7-15.1-9.2c-5.4-1.3-10.7-1-15.4,0.9c-1.3,0.6-3.1,1-4.6,1.3
		C-12,127.4-11.2,127.7-11,128.3z"/>
	<path id="XMLID_7349_" class="st0" d="M83.6,222.9c-0.7,4.7-1.3,9.7-0.6,14.5c0,0,0,0,0,0l0,0c-0.1-0.7,0.6-1.2,1.5-1.3
		c0.9,0,1.6,0.4,1.7,1.1c0,0,0,0,0,0c-0.7-4.6,0-9.3,0.6-14c0.7-5.2,1.4-10.5,0.3-15.7c0,3-1.1,5.8-2.7,8.5
		C84.3,218.2,83.9,220.5,83.6,222.9z"/>
	<path id="XMLID_7348_" class="st0" d="M-16,129c0.1,0.6,0.7,1,1.6,1c0.8-0.1,1.5-0.1,2.3-0.3c0.9-0.2,1.4-0.8,1.2-1.4
		c-0.2-0.6-1-1-1.9-0.8c-0.6,0.1-1.2,0.2-1.7,0.2C-15.4,127.7-16.1,128.3-16,129z"/>
	<path id="XMLID_7347_" class="st0" d="M84.8,238.4c-0.1,0-0.1,0-0.2,0c-0.8,0-1.5-0.4-1.6-1l2.3,20.4c0.5,4.8,0.7,9.7-3.2,12.8
		c-1.5,1.2-3.6,2.1-5.7,3c-0.9,0.4-1.8,0.7-2.6,1.1c0.8,0.2,1.3,0.7,1.1,1.3c-0.2,0.6-0.8,0.9-1.6,0.9c-0.1,0-0.2,0-0.3,0
		c-0.8-0.1-1.6-0.3-2.4-0.4c-2.6,1.8-4.4,4.2-5.7,6.5c0.3-0.1,0.5-0.2,0.9-0.2c0.9-0.1,1.7,0.3,1.9,0.9c0.2,0.6-0.4,1.3-1.2,1.4
		c-1.1,0.2-2.1,0.4-3.1,0.7c-1.8,3.5-3.6,6.7-5.4,9.9c-1.4,2.6-2.9,5.2-4.3,7.9c0.7,0.6,1.3,1.2,1.9,1.9c0.1,0.2,0.2,0.4,0.3,0.5
		c1.7-3.3,3.4-6.4,5.2-9.5c1.8-3.2,3.6-6.5,5.4-10c1.5-3,3.3-6.4,6.7-8.7c1.4-0.9,3.1-1.6,4.8-2.3c2.3-0.9,4.6-1.9,6.5-3.4
		c4.8-3.8,4.6-9.6,4-14.6l-2.3-20.4c0,0,0,0,0,0C86.3,237.8,85.7,238.4,84.8,238.4z"/>
	<path id="XMLID_7346_" class="st0" d="M84.5,236.1c-0.9,0.1-1.6,0.6-1.5,1.3l0,0c0.1,0.6,0.8,1,1.6,1c0.1,0,0.1,0,0.2,0
		c0.9-0.1,1.5-0.6,1.4-1.3C86.1,236.5,85.4,236,84.5,236.1z"/>
	<path id="XMLID_7345_" class="st0" d="M-238.8,396C-238.8,396-238.9,396-238.8,396c0,0.1,0.1,0.3,0.2,0.4
		C-238.7,396.3-238.8,396.2-238.8,396z"/>
	<path id="XMLID_7344_" class="st0" d="M-228,438c0.5-0.5,1.5-0.7,2.2-0.3c0.2,0.1,0.2,0.2,0.3,0.4c-1.2-9.7-3.9-19.1-7.2-27.7
		c-3.5-4.2-6.5-8.6-9.1-13.2c5.6,11.9,11.3,26.4,13.1,41.5C-228.5,438.4-228.2,438.2-228,438z"/>
	<path id="XMLID_7343_" class="st0" d="M-225.8,695c-0.2,0.1-0.4,0.1-0.7,0.1c-0.7,0-1.7-0.2-3.3-0.7c-0.8-0.2-1.5-0.4-2-0.5
		c-0.7,0.1-1.4-0.2-1.7-0.7c-0.2-0.3-0.1-0.6,0-1c-8.4-2-13.5-5.6-16.7-9.3c-0.3,0.2-0.7,0.4-1.2,0.4c-0.3,0-0.6-0.1-0.9-0.2
		c-0.9-0.4-1.7-1-2.6-1.5c1.5,2.3,3.5,4.3,5.8,6.1c0.8-0.1,1.5,0.1,1.9,0.6l0.5,0.8c0.1,0.1,0,0.2,0,0.3c3.6,2.3,8,4,13,5.1
		c3.5,0.8,7.5,1.2,11.4,1.2c8.9,0,18-2.2,23.8-7.9c0.5-0.5,0.4-1.2-0.3-1.6c-0.7-0.4-1.7-0.3-2.2,0.1c-4.3,3.6-11.2,5.4-18.2,5.2
		C-220.7,693.4-222.7,694.6-225.8,695z"/>
	<path id="XMLID_7342_" class="st0" d="M-223.1,421.7c10.4,11.5,13.4,27.7,8.5,45.5c-2.1,7.7-5.5,15.3-9.1,22.8
		c0.1-0.1,0.1-0.2,0.2-0.3c0.4-0.6,1.4-0.8,2.2-0.5c0.8,0.3,1.1,1,0.7,1.6c3.7-7.6,7.1-15.3,9.3-23.2c1.1-3.9,1.7-7.8,2-11.5
		c-0.8-0.5-1.5-1-2.3-1.4c-0.7-0.4-0.9-1.1-0.3-1.7c0.5-0.5,1.6-0.6,2.3-0.3c0.2,0.1,0.4,0.3,0.6,0.4c0.4-9.9-1.9-18.9-6.7-26.6
		c-2.5-1.9-4.9-3.9-7.2-6C-223.3,420.9-223.4,421.3-223.1,421.7z"/>
	<path id="XMLID_7341_" class="st0" d="M-220.7,490.8c-1.6,2.3-2.8,4.6-3.5,7.1C-223,495.6-221.8,493.2-220.7,490.8z"/>
	<path id="XMLID_7340_" class="st0" d="M-235.5,686.9c-0.5,0.2-1.1,0.3-1.8,0.3c-0.1,0-0.1,0-0.2,0c-1.2,0-2.4-0.4-3.3-1
		c-0.8-0.6-1.1-1.3-1.1-2c0-0.6,0.7-1.1,1.6-1.1c-3.8-3.8-6.3-8.6-7-13.7c-1-7.3,1.2-15.3,6.6-24c0.6-1,1.3-2,2-3
		c-0.3-1.6-0.3-3.2,0.1-5.2c0.2-0.6,0.9-1.1,1.9-1c0.9,0.1,1.5,0.7,1.3,1.4c0,0.1,0,0.1,0,0.2c0.4-0.5,0.8-1.1,1.1-1.6
		c5.2-7.2,10.7-14.6,12.2-22.8c2.2-11.6-3.6-22.8-9.3-33.6c-3.4-6.4-6.8-13.1-8.6-19.8c-4.3-16.7,2-33.6,8-46.5
		c1.1-2.4,2.3-4.8,3.5-7.1c-0.2-3.1,0.1-6.1,1-9c-0.3,0.6-0.6,1.2-0.9,1.8c-2.3,4.4-4.6,9-6.7,13.5c-6.1,13.2-12.6,30.5-8.1,47.7
		c1.8,6.9,5.3,13.7,8.7,20.2c5.8,11,11.2,21.4,9.1,32.5c-1.5,7.8-6.8,15-11.9,22c-2.2,3.1-4.6,6.2-6.6,9.4
		c-5.6,9.1-7.9,17.6-6.9,25.2c1.3,9.4,8.3,17.8,18.1,21.9c0.1,0,0.2,0.1,0.2,0.1c0.7,0,1.6,0.2,3.3,0.6c0.8,0.2,1.6,0.4,2,0.5
		c0,0,0,0,0,0c1.5-0.2,2.6-0.6,3.6-1.2c-2.6-0.4-5.2-1.1-7.6-2.1C-232.5,688.8-234,687.9-235.5,686.9z"/>
	<path id="XMLID_7339_" class="st0" d="M-228.3,442.4c0.4,6.4,0.2,12.8-1.3,19.3c-3,13.8-11.9,26.7-20.5,39.2
		c-9.2,13.3-18.6,27.1-21.2,42.1c-3.1,18.4,4.7,36.7,10.9,48.9l1.9,3.7c4.9,9.6,10.1,19.4,8.9,29.5c-0.6,5.1-2.8,10.1-4.9,14.9
		c-1,2.3-2,4.6-2.9,6.9c-2.9,7.8-3.2,16.4-0.9,27.2c0.2,0.9,0.5,1.7,0.8,2.6c1.6,1.4,3.3,2.6,5.1,3.6c-1.5-2.4-2.3-4.7-2.7-6.5
		c-2.2-10.4-2-18.8,0.8-26.2c0.8-2.3,1.8-4.5,2.8-6.8c2.2-5,4.5-10.1,5.1-15.5c1.2-10.6-4-20.7-9.1-30.5l-1.9-3.7
		c-6.1-12-13.8-29.9-10.8-47.8c2.5-14.6,11.8-28.2,20.9-41.4c8.7-12.6,17.7-25.7,20.8-39.9c1.7-7.7,1.8-15.3,1-22.8c0,0,0,0,0,0
		C-226.3,440.3-227.3,441.4-228.3,442.4z"/>
	<path id="XMLID_7338_" class="st0" d="M-269.9,338.1c-0.2-0.7-0.4-1.4-0.6-2c-0.2,0.1-0.4,0.2-0.5,0.4c-1,2.3-1.6,4.6-2.1,6.9
		c0.5-1.5,0.9-3,1.5-4.5C-271.4,338.3-270.7,338-269.9,338.1z"/>
	<path id="XMLID_7337_" class="st0" d="M-279.7,544.7c0.8,0.3,1.1,1,0.7,1.6c0,0,0,0,0,0c0.1-0.1,0.2-0.3,0.3-0.4
		c5.8-8.1,11.8-16.5,9-25.5c-8-25.1,15.8-50.5,36.7-72.9c1.6-1.7,3.2-3.4,4.7-5.1c-0.1-1.3-0.2-2.5-0.4-3.8c-2.3,2.5-4.6,5-7,7.6
		c-21.4,22.8-45.6,48.6-37.2,74.7c2.6,8.2-2.9,15.8-8.7,23.9c-0.1,0.1-0.2,0.3-0.3,0.4C-281.4,544.6-280.5,544.4-279.7,544.7z"/>
	<path id="XMLID_7336_" class="st0" d="M-285.9,659c0.7-0.1,1.1,0.2,1.4,0.6c2.8-1.8,5.3-4,7.3-6.6c3.9-5.2,5.6-11.8,5.1-19.6
		c-0.6-10.2-4.7-20.1-8.6-29.7c-1.2-2.8-2.3-5.7-3.4-8.5c-3.7-9.8-7.2-22.3-3.4-34c-0.1-5.6,2.8-12,5.5-15.9
		c-2.7,3.7-5.3,7.5-7.2,11.4c-6.3,13.4-2.2,27.9,2,39.1c1.1,2.9,2.2,5.7,3.4,8.6c3.9,9.4,7.9,19.2,8.5,29.1
		c0.5,7.3-1.1,13.5-4.8,18.3c-4.3,5.8-11.9,9.7-19.7,10.1c-7.8,0.4-16-2.7-21.3-7.9c-3.6-3.6-5.9-8.2-7-13.5c2.8,2,6.5,3.4,10.9,4.1
		c7.8,1.2,16.4-0.2,22.3-3.6c9.7-5.7,14.6-15.9,12.9-27.3c-1.1-7.8-4.9-15.3-8.5-22.5c-0.9-1.8-1.8-3.7-2.7-5.5
		c-4-8.4-7.7-18.2-5-27.8c1.6-5.7,5.4-10.8,9.3-16.1c3.3-4.4,6.6-9,8.7-13.9c4.4-10.6,2.3-21.8,0.3-32.5c-1.6-8.7-3.3-17.8-1.6-26.4
		c1.7-8.1,6.4-15.8,11-23.3c4.5-7.3,9.2-14.9,11.1-23c3.1-13.2-1.2-27.2-5.3-40.7c-3.9-12.9-7.9-26.1-5.4-38.4
		c-2.1,6.5-3,12.4-3.2,18c1.2,7,3.3,14,5.4,20.9c4.1,13.3,8.3,27,5.3,39.8c-1.8,7.8-6.4,15.2-10.8,22.4c-4.7,7.6-9.5,15.5-11.3,23.9
		c-1.9,9-0.1,18.2,1.5,27.1c2.1,11,4,21.4-0.2,31.5c-1.9,4.7-5.2,9.1-8.4,13.4c-3.9,5.3-7.9,10.7-9.7,16.8
		c-2.9,10.1,0.9,20.3,5.1,29c0.9,1.8,1.8,3.7,2.7,5.5c3.6,7.1,7.2,14.4,8.3,22c1.5,10.6-2.8,20.1-11.7,25.2c-0.5,0.3-1,0.4-1.5,0.7
		c0.2,0.1,0.4,0.3,0.7,0.4c0.8,0.3,1,1,0.6,1.6c-0.3,0.4-0.8,0.6-1.4,0.6c-0.3,0-0.6-0.1-0.8-0.2c-0.7-0.3-1.3-0.7-2-1.1
		c-4.6,1.5-10.1,2-15.2,1.2c-5.6-0.9-10-3.2-12.2-6.4c-0.3-0.5-1.1-0.8-1.9-0.6c-0.7,0.1-1.2,0.6-1.2,1.2c0.4,7.5,3.2,14,8.1,18.9
		c5.6,5.6,14.1,8.9,22.5,8.9c0.5,0,1.1,0,1.6,0c4.3-0.2,8.5-1.4,12.3-3.2c0-0.3-0.1-0.5-0.2-0.8C-287.4,659.7-286.8,659.1-285.9,659
		z"/>
	<path id="XMLID_7335_" class="st0" d="M-225.5,438c0.1,0.4,0.1,0.8,0.1,1.3C-225,438.8-225.1,438.4-225.5,438z"/>
	<path id="XMLID_7334_" class="st0" d="M-225.3,439.3C-225.3,439.3-225.3,439.3-225.3,439.3c0-0.4-0.1-0.9-0.1-1.3
		c-0.1-0.1-0.2-0.3-0.3-0.4c-0.7-0.4-1.7-0.2-2.2,0.3c-0.2,0.2-0.4,0.4-0.6,0.7c0.1,1.3,0.3,2.5,0.4,3.8
		C-227.3,441.4-226.3,440.3-225.3,439.3z"/>
	<path id="XMLID_7333_" class="st0" d="M-191.7,441.3c-0.7-0.3-1.3-0.7-1.9-1c0,0.1,0,0.1,0,0.2c7.7,12.1,15.7,24.5,19,37.9
		c2.8,11.4,2,23.2,1.2,34.7c-0.7,10.2-1.4,20.8,0.4,31.2c1.1,6.1,3,12.2,4.9,18.1c2.9,9.3,6,18.8,5.5,28.4
		c-0.3,5.5-1.7,11.1-3.1,16.5c-1.1,4.1-2.2,8.4-2.8,12.7c-0.5,3.9-0.7,7.9-0.8,11.8c-0.1,3.7-0.2,7.6-0.7,11.4
		c-1.2,9-4.7,15.9-10.5,20.8c-6.1,5.1-17.2,8.6-26.8,5.7c-6.6-2-11.6-7.1-12.4-12.7c-0.6-3.9,0.8-8,3.7-11.5c0.3,1.4,1,2.7,2.2,4
		c3.1,3.5,8.4,5.6,13.6,5.4c10-0.4,17.2-7,19.3-13.4c2.1-6.7,0-13.7-2.2-19.6l-0.7-1.9c-2-5.5-4.1-11.1-3.7-16.7
		c0.3-4.3,2.1-8.5,3.8-12.7c1.7-4.1,3.5-8.4,3.9-12.8c0.8-7.9-2.9-15.5-6.4-22.8c-1.8-3.6-3.6-7.4-4.8-11.1
		c-3.6-10.9-2.6-22.5-1.5-33.6c0.4-4.6,0.9-9.3,1-14c0.3-14.7,0.8-32.8-17.5-43.1c0,1-0.1,2-0.2,2.9c15.2,9.7,14.8,26.5,14.5,40.1
		c-0.1,4.6-0.5,9.3-1,13.9c-1,11.3-2.1,23.1,1.6,34.3c1.3,3.8,3.1,7.6,4.9,11.3c3.6,7.4,7,14.4,6.3,21.9c-0.4,4.1-2.1,8.2-3.8,12.2
		c-1.8,4.3-3.7,8.7-4,13.2c-0.4,6,1.7,11.8,3.8,17.4l0.7,1.9c2.1,5.7,4.1,12.3,2.2,18.5c-1.4,4.3-5.4,8.7-11,10.6
		c0.1,0,0.1,0.1,0.2,0.2c0.6,0.5,0.5,1.2-0.2,1.7c-0.3,0.2-0.7,0.3-1.1,0.3c-0.5,0-0.9-0.1-1.2-0.4c-0.3-0.3-0.6-0.6-1-0.9
		c-0.7,0.1-1.3,0.2-2,0.2c-4,0.2-8.3-1.6-10.8-4.3c-2-2.2-2.3-4.7-0.9-6.7c0.4-0.5,0.1-1.2-0.5-1.5c-0.7-0.3-1.6-0.3-2.1,0.2
		c-6,4.7-9.1,11.1-8.2,17c0.4,2.8,1.7,5.3,3.6,7.6c0.1-0.2,0.2-0.4,0.5-0.6c0.7-0.4,1.7-0.3,2.3,0.2c1.8,1.7,3,3.6,3.9,5.6
		c1.3,0.7,2.7,1.3,4.2,1.8c2.8,0.8,5.6,1.2,8.5,1.2c8.5,0,16.9-3.3,22-7.6c6.2-5.2,10-12.6,11.3-22.1c0.5-3.9,0.6-7.8,0.7-11.6
		c0.1-3.8,0.2-7.8,0.8-11.6c0.6-4.2,1.7-8.4,2.7-12.5c1.4-5.5,2.9-11.2,3.2-16.9c0.5-9.9-2.6-19.6-5.6-29
		c-1.9-5.8-3.8-11.9-4.8-17.9c-1.8-10.1-1.1-20.6-0.4-30.8c0.8-11.6,1.6-23.6-1.3-35.2c-3.2-13-10.7-25.1-18.2-36.9
		c-0.3,0.2-0.7,0.4-1.1,0.4C-191.2,441.5-191.5,441.4-191.7,441.3z"/>
	<path id="XMLID_7332_" class="st0" d="M-212,453c-0.5,0.5-0.4,1.3,0.3,1.7c0.8,0.4,1.6,0.9,2.3,1.4c0.1-1,0.2-2,0.2-2.9
		c-0.2-0.1-0.4-0.3-0.6-0.4C-210.5,452.4-211.5,452.5-212,453z"/>
	<path id="XMLID_7331_" class="st0" d="M-204.9,625.1c0.9-3.6,2.6-7.2,4.3-10.8c3.6-7.5,7.2-15.3,3.3-22.8c-1.8-3.4-5-6.2-8.1-9
		c-3-2.7-5.9-5.2-7.5-8.1c-3-5.4-1.6-11.3,0-17.5c0.8-3.3,1.7-6.8,1.8-10.2c0.3-8.3-3.9-16.2-7.9-23.8c-0.9-1.8-1.9-3.6-2.7-5.4
		c-3.5-7.1-4.2-13.6-2.4-19.6c-0.3,0.7-0.7,1.3-1,2c-1.1,2.1-2.1,4.2-3.1,6.3c0.3,3.9,1.4,7.9,3.5,12.1c0.9,1.8,1.8,3.6,2.8,5.4
		c3.9,7.4,7.9,15.1,7.6,22.9c-0.1,3.2-0.9,6.6-1.7,9.8c-1.5,6.3-3.1,12.7,0.2,18.8c1.8,3.3,5,6.1,8,8.8c3.1,2.7,6,5.3,7.6,8.3
		c3.6,6.7,0.2,13.7-3.3,21.1c-1.7,3.6-3.5,7.4-4.4,11.1c-2.4,9.7,1.2,19.9,9.6,27.6c1.1-0.2,2.2-0.4,3.3-0.8
		C-203.5,644.3-207.2,634.4-204.9,625.1z"/>
	<path id="XMLID_7330_" class="st0" d="M-227.3,497.3c1.2-2.4,2.4-4.8,3.6-7.3C-225.3,492.3-226.5,494.7-227.3,497.3z"/>
	<polygon id="XMLID_7329_" class="st0" points="-220.7,490.8 -220.7,490.8 -220.7,490.8 	"/>
	<path id="XMLID_7328_" class="st0" d="M-228.3,506.2c1.1-2.1,2.1-4.3,3.1-6.3c0.3-0.7,0.7-1.3,1-2c0.7-2.5,1.9-4.8,3.5-7.1
		c0,0,0,0,0,0c0.4-0.6,0.1-1.3-0.7-1.6c-0.8-0.3-1.8-0.1-2.2,0.5c-0.1,0.1-0.1,0.2-0.2,0.3c-1.2,2.5-2.4,4.9-3.6,7.3
		C-228.2,500.1-228.6,503.1-228.3,506.2z"/>
	<path id="XMLID_7327_" class="st0" d="M-197.4,653.2c0.3,0.3,0.8,0.4,1.2,0.4c0.4,0,0.7-0.1,1.1-0.3c0.7-0.4,0.8-1.2,0.2-1.7
		c-0.1,0-0.1-0.1-0.2-0.2c-1,0.4-2.1,0.6-3.3,0.8C-198.1,652.6-197.8,652.9-197.4,653.2z"/>
	<path id="XMLID_7326_" class="st0" d="M-269.9,343.8c0.3-0.9,0.6-1.9,1-2.9c0-0.1-0.1-0.2-0.1-0.3
		C-269.4,341.7-269.7,342.7-269.9,343.8z"/>
	<path id="XMLID_7325_" class="st0" d="M-304.7,630.9c-0.4-2.8,0-5.6,0.4-8.6c0.2-1.2,0.3-2.3,0.4-3.5c0.9-9.7-1.6-19.4-4-28.7
		c-1.4-5.4-2.8-11-3.6-16.4c-1.4-10.6,4.9-21.5,11-32c4.2-7.2,8.5-14.7,10.4-22c2-7.9,0.2-15.9-1.5-23.5c-1.7-7.5-3.5-15.2-1.6-22.7
		c1.6-6.5,6.4-14.5,11.5-22.9c6-10,12.2-20.3,13.1-28.5c1.6-14.2-0.4-25.4-2.3-36.1c-1.4-7.9-2.7-15.6-2.4-24
		c-1-6.2-1.3-12.4,0-18.4c-5.3,16.6-3.1,29.3-0.8,42.7c1.9,10.6,3.8,21.6,2.2,35.6c-0.9,7.8-7,18-12.9,27.8
		c-5.2,8.6-10,16.7-11.7,23.4c-2,7.9-0.2,15.9,1.5,23.6c1.7,7.5,3.5,15.2,1.6,22.7c-1.8,7.1-6.1,14.4-10.2,21.5
		c-6.3,10.8-12.8,22-11.3,33.2c0.8,5.6,2.2,11.2,3.6,16.6c2.4,9.2,4.8,18.7,3.9,28.1c-0.1,1.1-0.3,2.3-0.4,3.4c-0.4,3-0.8,6-0.4,9.1
		c0.6,4.4,3.1,7.9,6.7,10.1c1.1-0.4,2-0.8,2.9-1.3C-301.8,638.2-304.2,634.9-304.7,630.9z"/>
	<path id="XMLID_7324_" class="st0" d="M-273.1,361.7c0.2-5.6,1.1-11.5,3.2-18c0.2-1.1,0.5-2.1,0.8-3.2c-0.3-0.9-0.6-1.7-0.9-2.6
		c-0.7,0-1.5,0.2-1.7,0.8c-0.6,1.6-1,3-1.5,4.5C-274.4,349.4-274.1,355.5-273.1,361.7z"/>
	<path id="XMLID_7323_" class="st0" d="M-298.5,642.6c0.6,0,1.1-0.2,1.4-0.6c0.4-0.6,0.2-1.3-0.6-1.6c-0.2-0.1-0.4-0.3-0.7-0.4
		c-1,0.5-1.9,0.9-2.9,1.3c0.6,0.4,1.3,0.8,2,1.1C-299,642.5-298.7,642.6-298.5,642.6z"/>
	<path id="XMLID_7322_" class="st0" d="M-249,688c0,0-0.1,0-0.1,0c-8.6,2.1-19.1-0.8-25.7-7.1c-5.2-4.9-8.1-11.5-9.3-20.8
		c0-0.2-0.2-0.4-0.3-0.5c-0.9,0.6-1.8,1.1-2.7,1.5c1.3,9.3,4.4,16.1,9.8,21.2c7,6.7,18.3,9.9,27.9,8.1c0.3,0.4,0.8,0.6,1.4,0.6
		c0.2,0,0.5,0,0.7-0.1c0.7-0.2,0.9-0.7,0.8-1.2C-247.5,689.2-248.3,688.6-249,688z"/>
	<path id="XMLID_7321_" class="st0" d="M-247.2,688.6c-0.3-0.5-1.1-0.7-1.9-0.6c0.8,0.6,1.6,1.2,2.4,1.8c0-0.1,0-0.2,0-0.3
		L-247.2,688.6z"/>
	<path id="XMLID_7320_" class="st0" d="M-285.9,659c-0.9,0.1-1.6,0.6-1.5,1.3c0,0.3,0.1,0.5,0.2,0.8c0.9-0.5,1.9-1,2.7-1.5
		C-284.8,659.3-285.2,659-285.9,659z"/>
	<path id="XMLID_7319_" class="st0" d="M-267.9,655.8c0.3-4.3,1.4-8.6,2.4-12.8c1.2-4.7,2.3-9.6,2.5-14.6
		c0.4-12.2-5.2-23.9-10.7-35.2c-5-10.3-10.1-20.9-10.6-31.8c-0.2-5,2.5-11.2,5.3-15.2c-2.6,3.7-5.3,7.5-7.1,11.3
		c-0.6,1.2-1,2.5-1.4,3.7c0,0.1,0,0.2,0,0.3c0.5,11.2,5.7,22,10.8,32.5c5.4,11.1,11,22.6,10.5,34.4c-0.2,4.7-1.3,9.6-2.5,14.2
		c-1,4.3-2.1,8.7-2.4,13.1c-0.7,9,6.6,20.3,16.3,26.2c-1-1.6-1.9-3.3-2.5-5.1C-263.9,670.9-268.4,662.5-267.9,655.8z"/>
	<path id="XMLID_7318_" class="st0" d="M-250.5,681.3c-0.6-0.3-1.2-0.7-1.7-1c0.6,0.9,1.2,1.8,2,2.8c0.1,0,0.1-0.1,0.2-0.1
		C-249.5,682.4-249.7,681.7-250.5,681.3z"/>
	<path id="XMLID_7317_" class="st0" d="M-281.9,545.2c0,0.1-0.1,0.1-0.1,0.2C-281.9,545.3-281.9,545.3-281.9,545.2
		C-281.9,545.2-281.9,545.2-281.9,545.2z"/>
	<path id="XMLID_7316_" class="st0" d="M-257.3,676.7c0.6,1.8,1.4,3.5,2.5,5.1c0.9,0.5,1.7,1.1,2.6,1.5c0.3,0.1,0.6,0.2,0.9,0.2
		c0.4,0,0.9-0.2,1.2-0.4c-0.8-0.9-1.5-1.8-2-2.8C-254,679.3-255.7,678.1-257.3,676.7z"/>
	<path id="XMLID_7315_" class="st0" d="M-279,546.3C-279,546.3-279,546.3-279,546.3c0.4-0.6,0.1-1.3-0.7-1.6
		c-0.8-0.3-1.7-0.1-2.2,0.5c0,0.1-0.1,0.1-0.1,0.2c-2.7,3.9-5.6,10.2-5.5,15.9c0.4-1.2,0.8-2.5,1.4-3.7
		C-284.3,553.8-281.6,550-279,546.3z"/>
	<path id="XMLID_7314_" class="st0" d="M-219.4,664.8c-0.2,0.4-0.2,0.7,0.2,1.1c4.5,4.3,5.5,10.2,2.8,15.2c-0.7,1.2-1.2,2.4-1.8,3.6
		c-1.5,3.2-2.7,5.5-4.9,6.9c1.3,0.2,2.7,0.3,4,0.4c1.8-1.8,2.9-4.1,4-6.5c0.5-1.1,1.1-2.3,1.7-3.4c2.1-3.8,2.3-8,0.7-11.9
		C-215.4,668.7-217.7,666.9-219.4,664.8z"/>
	<path id="XMLID_7313_" class="st0" d="M-233.5,692.4c0.3,0.1,0.5,0.2,0.9,0.2c2.4,0.5,4.9,0.9,7.5,1c-2.4-0.4-4.8-1.1-7-2
		c-0.5,0-0.8,0.1-1.2,0.4C-233.4,692.1-233.5,692.2-233.5,692.4z"/>
	<path id="XMLID_7312_" class="st0" d="M-226.8,692.7C-226.8,692.7-226.8,692.7-226.8,692.7c-0.5-0.1-1.3-0.3-2-0.5
		c-1.7-0.4-2.7-0.7-3.3-0.6c2.2,0.9,4.6,1.6,7,2c-2.6-0.2-5.1-0.5-7.5-1c-0.3-0.1-0.5-0.2-0.9-0.2c-0.2,0.3-0.2,0.7,0,1
		c0.3,0.5,1,0.8,1.7,0.7c0.5,0.1,1.2,0.3,2,0.5c1.7,0.4,2.7,0.7,3.3,0.7c0.3,0,0.5,0,0.7-0.1c3.1-0.4,5.2-1.6,6.7-3.1
		c-1.4,0-2.7-0.2-4-0.4C-224.1,692.1-225.3,692.6-226.8,692.7z"/>
	<path id="XMLID_7311_" class="st0" d="M-218.9,664.2c-0.3,0.2-0.4,0.4-0.5,0.6c1.7,2.1,4,3.9,6.6,5.2c-0.8-2-2.1-3.9-3.9-5.6
		C-217.2,663.9-218.2,663.8-218.9,664.2z"/>
	<path id="XMLID_7310_" class="st0" d="M-236.2,648.9c0.5,0.9,0.9,1.9,1.4,2.9c0.5,1,1,2.1,1.5,3.1c2.1,4.4,4.3,9,4.9,13.6
		c0.9,6.2-1.5,11.9-6.4,15.2c-1,0.7-1.9,1-2.6,1c-0.3,0-0.7-0.1-1-0.3c-0.1,0-0.2-0.1-0.2-0.2c0-0.7-0.6-1.2-1.5-1.2
		c0,0-0.1,0-0.1,0c0,0,0,0-0.1,0c1.4,1.4,3,2.7,4.7,3.8c1.2-0.3,2.2-0.9,2.9-1.4c5.7-3.9,8.5-10.1,7.5-17.2
		c-0.7-4.9-2.9-9.6-5.1-14.1c-0.5-1-1-2.1-1.5-3.1c-0.5-1.1-1-2.1-1.5-3c-1.9-3.7-3.1-6.2-2.2-10.4c-1.1,1.5-2.2,3.1-3.3,4.7
		C-238.2,644.6-237.3,646.7-236.2,648.9z"/>
	<path id="XMLID_7309_" class="st0" d="M-240.2,683.1c-0.8,0-1.5,0.5-1.6,1.1c-0.1,0.7,0.3,1.5,1.1,2c0.8,0.6,2,1,3.3,1
		c0.1,0,0.1,0,0.2,0c0.6,0,1.2-0.1,1.8-0.3C-237.2,685.8-238.8,684.5-240.2,683.1z"/>
	<path id="XMLID_7308_" class="st0" d="M-236.7,636.1c-0.9-0.1-1.7,0.3-1.9,1c-0.4,2-0.4,3.7-0.1,5.2c1.1-1.6,2.2-3.1,3.3-4.7
		c0-0.1,0-0.1,0-0.2C-235.2,636.9-235.8,636.3-236.7,636.1z"/>
	<path id="XMLID_7307_" class="st0" d="M-269.5,333c-0.4,0-0.8-0.1-1.1-0.3c-0.3-0.2-0.7-0.5-1.1-0.8c0.3,1.4,0.7,2.7,1.1,4.1
		c0.4-0.3,1-0.5,1.5-0.3c0.9,0.2,1.3,0.9,1.1,1.5c-0.3,0.6-0.4,1.3-0.6,1.9c0,0.1,0.1,0.3,0.1,0.4c-0.2,0.5-0.3,1-0.5,1.4
		c2.4,7.1,5.4,14,8.3,20.5c2.1,4.7,4.6,9.4,10.3,11.7c1.4,8.2,4.3,16.3,8.6,23.9c0-0.1-0.1-0.2-0.1-0.3c-0.3-0.6,0.2-1.3,1-1.5
		c0.8-0.2,1.7,0.1,2,0.7c-4.2-7.6-7.1-15.6-8.4-23.7c-0.1-0.4-0.4-0.8-0.9-0.9c-5.1-1.8-7.4-6.2-9.4-10.6
		c-3.9-8.9-8.2-18.5-10.6-28.3c0,0.1,0,0.1-0.1,0.2C-268.6,332.9-269,333-269.5,333z"/>
	<path id="XMLID_7306_" class="st0" d="M-255.5,296.4c0.1,0.6-0.4,1-1.1,1.2c0.3,0.3,0.6,0.5,0.8,0.8c0.4,0.1,0.6,0.4,0.8,0.7
		l-0.8-6.4C-255.7,294-255.7,295.3-255.5,296.4z"/>
	<path id="XMLID_7305_" class="st0" d="M-255.9,302.1c0,0-0.1,0-0.1,0c-0.6,0-1.2-0.3-1.4-0.8c-0.1-0.3-0.4-0.5-0.6-0.7l0.2,1.2
		c-1.2-0.5-2.4-0.7-4-0.8c-3.6,0.1-7,1.8-9,4.5c-1.7,2.3-2.2,4.9-2.4,7.3c-0.5,4.8-0.1,9.6,0.7,14.4c1.6,1.7,3,2.9,3.9,3.6
		c-1.3-5.9-2-11.8-1.4-17.8c0.2-2.2,0.6-4.5,2-6.4c1.4-1.9,3.9-3.2,6.2-3.2c1.2-0.1,2.6,0.4,3.5,1.1c0.4,0.3,0.7,0.7,0.9,1.1
		l0.1,1.1c0.1,0.6,0.8,1.1,1.6,1.1h0c0.8,0,1.5-0.5,1.6-1.1c0.1-0.5,0-1-0.2-1.5l-0.5-3.6C-254.8,301.9-255.3,302.1-255.9,302.1z"/>
	<path id="XMLID_7304_" class="st0" d="M-258.9,292.9c0-0.1,0-0.2,0-0.3c0,0,0,0.1,0,0.1L-258.9,292.9z"/>
	<path id="XMLID_7303_" class="st0" d="M-223,420.5c0.1-0.2,0.2-0.3,0.4-0.4c0.7-0.4,1.7-0.2,2.2,0.3c1.7,1.9,3.2,4,4.5,6.1
		c6.6,5.2,14.1,9.8,22.2,13.8c-0.2-0.5,0.1-1.1,0.8-1.4c0.8-0.3,1.8,0,2.2,0.6c0.3,0.5,0.7,1.1,1,1.6c0.1-0.1,0.2-0.1,0.2-0.1
		c0.5-0.5,0.3-1.3-0.5-1.6c-21.9-10.3-38.8-25.5-48.6-42.9c2,4.3,4.1,8.9,5.9,13.8C-229.8,413.8-226.6,417.2-223,420.5z"/>
	<path id="XMLID_7302_" class="st0" d="M-257.5,291.3c-0.8,0.1-1.4,0.6-1.4,1.2c0,0.1,0,0.2,0,0.3l0.4,2.8c0.8,0.6,1.4,1.3,2,1.9
		c0.7-0.2,1.2-0.7,1.1-1.2c-0.2-1.1-0.3-2.3-0.2-3.6l0-0.3C-255.8,291.8-256.5,291.3-257.5,291.3z"/>
	<path id="XMLID_7301_" class="st0" d="M-271.6,331.9c0.4,0.3,0.8,0.6,1.1,0.8c0.3,0.2,0.7,0.3,1.1,0.3c0.4,0,0.9-0.1,1.2-0.4
		c0.1,0,0-0.1,0.1-0.2c-0.1-0.5-0.3-1.1-0.4-1.6c-0.9-0.6-2.3-1.9-3.9-3.6C-272.2,328.8-272,330.4-271.6,331.9z"/>
	<path id="XMLID_7300_" class="st0" d="M-220.4,420.4c-0.5-0.6-1.5-0.7-2.2-0.3c-0.2,0.1-0.3,0.3-0.4,0.4c2.3,2.1,4.7,4.1,7.2,6
		C-217.2,424.4-218.6,422.3-220.4,420.4z"/>
	<path id="XMLID_7299_" class="st0" d="M-240.9,395.3c-0.8,0.2-1.3,0.9-1,1.5c0,0.1,0.1,0.2,0.1,0.3c2.6,4.6,5.6,8.9,9.1,13.2
		c-1.9-4.9-3.9-9.5-5.9-13.8c-0.1-0.2-0.2-0.3-0.3-0.5C-239.2,395.4-240.1,395.1-240.9,395.3z"/>
	<path id="XMLID_7298_" class="st0" d="M-269.6,338c0.7,0.1,1,0.6,1.1,1c0.2-0.6,0.4-1.3,0.6-1.9c0.3-0.6-0.2-1.3-1.1-1.5
		c-0.6-0.1-1.1,0-1.5,0.3c0.2,0.7,0.4,1.4,0.6,2C-269.8,338.1-269.7,338-269.6,338z"/>
	<path id="XMLID_7297_" class="st0" d="M-192.9,438.9c-0.7,0.2-1,0.8-0.8,1.4c0.7,0.3,1.3,0.7,1.9,1c0.3,0.1,0.6,0.2,0.9,0.2
		c0.4,0,0.8-0.2,1.1-0.4c-0.3-0.5-0.7-1.1-1-1.6C-191.1,438.9-192.1,438.7-192.9,438.9z"/>
	<path id="XMLID_7296_" class="st0" d="M-269,340.9c0.2-0.5,0.3-0.9,0.5-1.4c0.1-0.1,0-0.3-0.1-0.4c-0.2,0.5-0.4,1-0.5,1.6
		C-269,340.7-269,340.8-269,340.9z"/>
	<path id="XMLID_7295_" class="st0" d="M-269.6,338c-0.1,0-0.2,0-0.3,0c0.3,0.9,0.6,1.7,0.9,2.6c0.2-0.5,0.3-1,0.5-1.6
		C-268.6,338.6-268.9,338.2-269.6,338z"/>
	<path id="XMLID_7294_" class="st0" d="M32.7,688.6c0.3-0.5,1.2-0.8,1.9-0.6c2.2-1.8,4.1-3.9,5.6-6.2c-0.8,0.5-1.6,1.1-2.5,1.5
		c-0.3,0.1-0.6,0.2-0.9,0.2c-0.4,0-0.9-0.2-1.2-0.4c-3,3.7-7.9,7.2-15.8,9.3c0.2,0.3,0.3,0.7,0.1,1c-0.3,0.5-1,0.8-1.7,0.7
		c-0.5,0.1-1.2,0.3-1.9,0.5c-1.6,0.4-2.5,0.7-3.2,0.7c-0.3,0-0.5,0-0.7-0.1c-3-0.4-4.9-1.6-6.4-3.1c-6.6,0.2-13.1-1.6-17.3-5.1
		c-0.6-0.5-1.6-0.6-2.2-0.2c-0.7,0.4-0.8,1.1-0.3,1.6c5.5,5.6,14.3,7.9,22.8,7.9c3.8,0,7.6-0.4,11-1.2c4.7-1.1,8.9-2.8,12.3-5.1
		c0-0.1-0.1-0.3,0-0.4L32.7,688.6z"/>
	<path id="XMLID_7293_" class="st0" d="M10.7,497.9c-0.7-2.5-1.8-4.8-3.4-7.1C8.5,493.2,9.6,495.6,10.7,497.9z"/>
	<path id="XMLID_7292_" class="st0" d="M42.5,646.9c-0.8-2.3-1.8-4.6-2.8-6.9c-2-4.8-4.2-9.9-4.7-14.9c-1.1-10.1,3.8-20,8.6-29.5
		l1.8-3.7c5.9-12.2,13.4-30.5,10.5-48.9c-2.4-15-11.5-28.8-20.3-42.1c-8.2-12.5-16.7-25.4-19.6-39.2c-1.3-6.2-1.5-12.6-1.1-19
		c-1-1.1-2-2.2-2.9-3.2c-0.8,7.5-0.8,15.2,0.8,22.6c3,14.1,11.6,27.2,19.9,39.8c8.7,13.2,17.6,26.8,20,41.4
		c2.9,17.8-4.5,35.8-10.3,47.8l-1.8,3.7c-4.9,9.8-9.9,20-8.7,30.5c0.6,5.3,2.7,10.5,4.8,15.4c1,2.3,1.9,4.5,2.7,6.8
		c2.6,7.5,2.9,15.8,0.7,26.2c-0.4,1.8-1.2,4.2-2.6,6.6c1.8-1.1,3.5-2.3,5-3.7c0.3-0.8,0.5-1.6,0.7-2.5
		C45.5,663.4,45.2,654.7,42.5,646.9z"/>
	<path id="XMLID_7291_" class="st0" d="M12.3,437.6c0.8-0.4,1.8-0.2,2.2,0.4c0.2,0.3,0.5,0.6,0.8,0.9c1.9-16.1,8-31.7,13.3-43.5
		c-2.6,5.1-5.7,10-9.4,14.7c-3.1,8.6-5.8,18.1-7,27.8C12.2,437.7,12.2,437.6,12.3,437.6z"/>
	<path id="XMLID_7290_" class="st0" d="M7.3,490.8c-0.4-0.6-0.1-1.3,0.7-1.6c0.8-0.3,1.8-0.1,2.2,0.5c0.1,0.1,0.1,0.2,0.2,0.3
		c-3.5-7.5-6.7-15.1-8.8-22.8c-4.7-17.8-1.8-34,8.2-45.5c0.3-0.4,0.2-0.8-0.1-1.2c-2.2,2.1-4.6,4.2-7.1,6.2
		c-4.5,7.7-6.7,16.7-6.3,26.5c0.2-0.1,0.4-0.3,0.6-0.4c0.7-0.4,1.7-0.3,2.3,0.2c0.5,0.5,0.4,1.3-0.3,1.7c-0.8,0.5-1.6,1-2.4,1.5
		c0.3,3.7,0.9,7.5,1.9,11.4C0.5,475.5,3.8,483.3,7.3,490.8z"/>
	<path id="XMLID_7289_" class="st0" d="M36,669.6c1-7.7-1.2-16.2-6.6-25.2c-1.9-3.2-4.1-6.4-6.3-9.4c-4.9-7-10-14.2-11.4-22
		c-2-11.1,3.2-21.5,8.7-32.5c3.3-6.5,6.6-13.3,8.4-20.2c4.3-17.2-1.9-34.5-7.7-47.7c-2-4.5-4.2-9.1-6.4-13.5
		c-0.3-0.6-0.6-1.2-0.9-1.8c0.9,2.9,1.2,6,1,9.2c1.1,2.3,2.2,4.6,3.2,6.9c5.7,12.9,11.8,29.8,7.6,46.5c-1.7,6.7-5,13.4-8.2,19.8
		c-5.4,10.8-11,22-8.9,33.6c1.5,8.2,6.7,15.6,11.7,22.8c0.4,0.5,0.7,1.1,1.1,1.6c0-0.1,0-0.1,0-0.2c-0.1-0.6,0.5-1.2,1.4-1.3
		c0.9-0.1,1.7,0.3,1.8,1c0.4,2.1,0.4,3.8,0.1,5.4c0.6,0.9,1.2,1.9,1.8,2.8c5.2,8.7,7.3,16.8,6.3,24c-0.7,5.1-3.1,9.9-6.7,13.7
		c0.8,0.1,1.6,0.5,1.6,1.1c0,0.8-0.4,1.5-1.1,2c-0.8,0.6-2,1-3.1,1c-0.1,0-0.1,0-0.2,0c-0.6,0-1.2-0.1-1.7-0.3
		c-1.4,1-2.9,1.9-4.5,2.6c-2.3,1-4.7,1.7-7.2,2c0.9,0.6,2,1.1,3.4,1.2c0.5-0.1,1.2-0.3,1.9-0.5c1.7-0.4,2.6-0.7,3.3-0.6
		c0.1,0,0.2-0.1,0.3-0.1C28.1,687.4,34.7,679,36,669.6z"/>
	<path id="XMLID_7288_" class="st0" d="M25.6,394.2c0,0.1-0.1,0.2-0.1,0.3C25.6,394.4,25.6,394.3,25.6,394.2
		C25.7,394.2,25.6,394.2,25.6,394.2z"/>
	<path id="XMLID_7287_" class="st0" d="M11.8,439.3c0.1,0.1,0.1,0.1,0.2,0.2c0.1-0.6,0.1-1.1,0.2-1.7
		C11.6,438.1,11.4,438.7,11.8,439.3z"/>
	<path id="XMLID_7286_" class="st0" d="M19.1,447.5c20.1,22.4,42.8,47.8,35.2,72.9c-2.8,9,3,17.4,8.6,25.5c0.1,0.2,0.2,0.3,0.3,0.5
		c0,0,0-0.1-0.1-0.1c-0.4-0.6-0.1-1.3,0.7-1.6c0.8-0.3,1.7,0,2.1,0.5c-0.1-0.1-0.2-0.3-0.3-0.4c-5.6-8.1-10.8-15.7-8.3-23.9
		c8-26.1-15.2-51.9-35.6-74.7c-2.2-2.5-4.4-4.9-6.5-7.4c-0.2,1.3-0.3,2.6-0.4,3.9C16.3,444.3,17.7,445.9,19.1,447.5z"/>
	<path id="XMLID_7285_" class="st0" d="M112.5,635.4c-0.7-0.1-1.5,0.1-1.8,0.6c-2.2,3.3-6.4,5.6-11.9,6.4c-4.8,0.7-9.9,0.3-14.2-1.2
		c-0.6,0.4-1.2,0.8-1.9,1.1c-0.3,0.1-0.6,0.2-0.8,0.2c-0.5,0-1.1-0.2-1.4-0.6c-0.5-0.6-0.2-1.3,0.5-1.6c0.2-0.1,0.4-0.3,0.7-0.4
		c-0.4-0.2-0.9-0.4-1.4-0.6c-8.5-5.2-12.7-14.6-11.2-25.3c1-7.5,4.6-14.9,8-22c0.9-1.9,1.8-3.7,2.6-5.6c4-8.7,7.6-18.9,4.9-29
		c-1.7-6-5.5-11.5-9.2-16.8c-3-4.3-6.2-8.8-8.1-13.5c-4-10.1-2.2-20.5-0.2-31.6c1.6-8.9,3.3-18.1,1.5-27.1
		c-1.7-8.4-6.3-16.3-10.8-23.9c-4.2-7.2-8.6-14.6-10.4-22.4c-2.9-12.7,1.2-26.5,5.1-39.8c2-6.7,3.9-13.5,5-20.2
		c-0.1-5.8-1-11.9-3.1-18.7c2.4,12.3-1.4,25.5-5.2,38.4c-4,13.5-8.1,27.5-5.1,40.7c1.8,8.1,6.3,15.6,10.6,23
		c4.4,7.5,8.9,15.2,10.5,23.3c1.7,8.6,0.1,17.7-1.5,26.4c-1.9,10.8-4,21.9,0.3,32.5c2,4.9,5.2,9.5,8.3,13.9
		c3.8,5.4,7.4,10.4,8.9,16.1c2.6,9.5-0.9,19.4-4.8,27.8c-0.8,1.8-1.7,3.7-2.6,5.5c-3.5,7.2-7,14.7-8.1,22.5
		c-1.6,11.4,3,21.6,12.4,27.3c5.6,3.4,13.8,4.9,21.2,3.7c4.2-0.7,7.8-2.1,10.5-4.1c-1,5.3-3.2,9.8-6.7,13.4
		c-5,5.2-12.9,8.3-20.3,7.9c-7.4-0.4-14.6-4.3-18.8-10.1c-3.5-4.8-5-11-4.5-18.3c0.6-9.9,4.4-19.7,8.1-29.1c1.1-2.9,2.2-5.7,3.3-8.6
		c4-11.2,7.9-25.7,1.9-39.1c-1.8-3.9-4.3-7.7-6.9-11.4c2.6,3.9,5.5,10.4,5.3,16.2c0,0.1,0,0.1,0,0.2c3.4,11.6,0.1,23.9-3.4,33.6
		c-1,2.9-2.1,5.7-3.3,8.5c-3.7,9.6-7.6,19.5-8.2,29.6c-0.5,7.7,1.2,14.3,4.9,19.6c1.8,2.6,4.2,4.8,7,6.6c0.3-0.4,0.8-0.6,1.4-0.6
		c0.9,0.1,1.5,0.6,1.5,1.3c0,0.3-0.1,0.6-0.2,0.9c3.6,1.8,7.6,3,11.7,3.2c0.5,0,1,0,1.6,0c8.1,0,16.2-3.3,21.6-8.9
		c4.7-4.8,7.3-11.4,7.7-18.9C113.8,636.1,113.3,635.6,112.5,635.4z"/>
	<path id="XMLID_7284_" class="st0" d="M56.2,338.9c0.6,1.6,1,3,1.5,4.5c-0.5-2.3-1.1-4.6-2-6.9c-0.1-0.2-0.3-0.3-0.5-0.4
		c-0.2,0.7-0.3,1.3-0.5,2C55.3,338.1,56,338.3,56.2,338.9z"/>
	<path id="XMLID_7283_" class="st0" d="M12.3,437.6c-0.1,0-0.1,0.1-0.1,0.1c-0.1,0.6-0.1,1.1-0.2,1.7c0.9,1.1,1.9,2.2,2.9,3.2
		c0.1-1.3,0.3-2.6,0.4-3.9c-0.2-0.3-0.5-0.6-0.8-0.9C14.1,437.4,13.1,437.3,12.3,437.6z"/>
	<path id="XMLID_7282_" class="st0" d="M5.7,664.2c0.3,0.2,0.4,0.4,0.5,0.6c1.8-2.3,3-4.9,3.4-7.6c0.8-5.9-2.1-12.3-7.9-17
		c-0.5-0.4-1.4-0.5-2.1-0.2c-0.7,0.3-0.9,1-0.6,1.5c1.4,2.1,1,4.6-1.1,7c-2.4,2.6-6.4,4.3-10,4.1c-0.6,0-1.3-0.1-1.9-0.2
		c-0.3,0.3-0.6,0.6-0.9,0.9c-0.3,0.3-0.8,0.4-1.3,0.4c-0.4,0-0.7-0.1-1-0.3c-0.7-0.4-0.8-1.2-0.2-1.7c0.1-0.1,0.1-0.1,0.2-0.2
		c-5.3-1.9-9.1-6.3-10.4-10.5c-1.9-6.2,0.1-12.8,2.1-18.5l0.7-2c2-5.6,4.1-11.4,3.7-17.4c-0.3-4.6-2.1-9-3.8-13.2
		c-1.6-4-3.3-8.1-3.6-12.2c-0.7-7.4,2.6-14.5,6-21.9c1.7-3.7,3.5-7.5,4.7-11.3c3.6-11.3,2.5-23,1.5-34.4c-0.4-4.6-0.8-9.3-0.9-13.9
		c-0.3-13.6-0.7-30.3,13.7-40c-0.1-1-0.2-2-0.2-3c-17.5,10.2-17.1,28.4-16.7,43.1c0.1,4.7,0.5,9.4,0.9,14c1,11.2,2,22.7-1.5,33.7
		c-1.2,3.7-2.9,7.5-4.6,11.1c-3.4,7.3-6.9,14.9-6.2,22.8c0.4,4.4,2.1,8.6,3.8,12.7c1.7,4.1,3.4,8.4,3.7,12.7
		c0.4,5.6-1.6,11.2-3.5,16.6l-0.7,2c-2.1,6-4.2,12.9-2.1,19.6c1.9,6.4,8.9,13,18.5,13.4c4.8,0.1,9.9-1.8,12.9-5.1
		c1.2-1.3,2-2.8,2.3-4.2c2.7,3.6,3.9,7.6,3.4,11.4c-0.8,5.6-5.5,10.7-11.8,12.7c-9.1,2.9-19.7-0.7-25.5-5.7
		c-5.5-4.8-8.9-11.8-10.1-20.8c-0.5-3.8-0.6-7.6-0.7-11.4c-0.1-3.9-0.2-7.9-0.7-11.8c-0.6-4.3-1.6-8.5-2.6-12.7
		c-1.3-5.4-2.7-11-3-16.5c-0.4-9.5,2.5-19.1,5.3-28.4c1.8-5.9,3.7-12,4.7-18.1c1.7-10.3,1-20.9,0.4-31.2
		c-0.7-11.5-1.5-23.3,1.2-34.7c3.1-13.3,10.8-25.8,18.2-37.9c0-0.1,0-0.1,0-0.2c-0.6,0.3-1.2,0.7-1.9,1c-0.3,0.1-0.6,0.2-0.9,0.2
		c-0.4,0-0.8-0.2-1.2-0.4c-7.2,11.7-14.4,23.9-17.4,36.9c-2.7,11.7-1.9,23.6-1.2,35.2c0.7,10.1,1.3,20.6-0.3,30.8
		c-1,6-2.8,12-4.6,17.9c-2.9,9.4-5.8,19.1-5.4,29c0.3,5.7,1.7,11.4,3,16.9c1,4.1,2.1,8.3,2.6,12.5c0.5,3.8,0.6,7.8,0.7,11.6
		c0.1,3.8,0.2,7.7,0.7,11.6c1.2,9.4,4.8,16.9,10.8,22.1c5.6,4.9,13.4,7.6,20.9,7.6c2.9,0,5.7-0.4,8.3-1.2c1.4-0.4,2.6-1,3.9-1.7
		c0.8-2,2-4,3.7-5.7C4,663.9,5,663.8,5.7,664.2z"/>
	<path id="XMLID_7281_" class="st0" d="M-0.8,453c-0.5-0.5-1.6-0.6-2.3-0.2c-0.2,0.1-0.4,0.3-0.6,0.4c0,1,0.1,2,0.2,3
		c0.8-0.5,1.5-1,2.4-1.5C-0.4,454.3-0.3,453.5-0.8,453z"/>
	<path id="XMLID_7280_" class="st0" d="M10.4,490c1.1,2.4,2.3,4.9,3.5,7.3C13.1,494.8,12,492.3,10.4,490z"/>
	<path id="XMLID_7279_" class="st0" d="M7.3,490.8C7.3,490.8,7.3,490.8,7.3,490.8C7.3,490.8,7.3,490.8,7.3,490.8
		C7.3,490.8,7.3,490.8,7.3,490.8z"/>
	<path id="XMLID_7278_" class="st0" d="M-4.6,624.7c-0.9-3.8-2.6-7.5-4.2-11.1c-3.4-7.4-6.6-14.4-3.2-21.2c1.6-3.1,4.3-5.6,7.3-8.3
		c2.9-2.7,5.9-5.4,7.7-8.8c3.2-6,1.7-12.5,0.2-18.8c-0.8-3.3-1.5-6.6-1.7-9.9c-0.2-7.9,3.6-15.5,7.3-22.9c0.9-1.8,1.8-3.6,2.6-5.4
		c1.9-4.1,3-8.1,3.3-11.8c-1-2.2-2.1-4.4-3.1-6.6c-0.3-0.7-0.6-1.3-1-2c1.8,6,1,12.6-2.3,19.7c-0.8,1.8-1.7,3.6-2.6,5.3
		C2,530.5-2,538.4-1.7,546.7c0.1,3.4,0.9,6.9,1.7,10.2c1.5,6.2,2.8,12.1,0,17.5c-1.6,3-4.3,5.5-7.2,8.1c-3,2.7-6,5.6-7.8,9
		c-3.8,7.5-0.3,15.2,3.1,22.7c1.6,3.6,3.3,7.2,4.1,10.8c2.2,9.3-1.3,19.2-9.3,26.4c1,0.4,2.1,0.6,3.2,0.8
		C-5.8,644.6-2.3,634.4-4.6,624.7z"/>
	<path id="XMLID_7277_" class="st0" d="M8,489.2c-0.8,0.3-1.1,1-0.7,1.6c0,0,0,0,0,0c1.6,2.3,2.7,4.6,3.4,7.1c0.3,0.7,0.6,1.3,1,2
		c1.1,2.2,2.1,4.4,3.1,6.6c0.3-3.2-0.1-6.3-1-9.2c-1.2-2.4-2.3-4.8-3.5-7.3c-0.1-0.1-0.1-0.2-0.2-0.3C9.8,489.2,8.8,488.9,8,489.2z"
		/>
	<path id="XMLID_7276_" class="st0" d="M-17.2,651.7c-0.6,0.5-0.5,1.2,0.2,1.7c0.3,0.2,0.7,0.3,1,0.3c0.5,0,0.9-0.1,1.3-0.4
		c0.3-0.3,0.6-0.6,0.9-0.9c-1.1-0.2-2.2-0.4-3.2-0.8C-17.1,651.6-17.2,651.6-17.2,651.7z"/>
	<path id="XMLID_7275_" class="st0" d="M53.6,341.2c0.3,0.9,0.6,1.8,0.8,2.6c-0.2-1-0.5-2-0.7-3C53.7,340.9,53.7,341,53.6,341.2z"/>
	<path id="XMLID_7274_" class="st0" d="M57.5,362.5c0.2,8.1-1,15.6-2.3,23.3c-1.8,10.8-3.7,21.9-2.2,36.1
		c0.9,8.2,6.8,18.5,12.6,28.5c4.9,8.4,9.4,16.4,11,22.9c1.8,7.5,0.1,15.3-1.5,22.8c-1.7,7.7-3.4,15.6-1.5,23.5
		c1.8,7.3,5.9,14.8,9.9,22c5.9,10.6,11.9,21.5,10.6,32.1c-0.7,5.5-2.1,11.1-3.4,16.4c-2.3,9.4-4.7,19-3.8,28.7
		c0.1,1.2,0.3,2.3,0.4,3.5c0.4,3,0.8,5.8,0.4,8.6c-0.5,4-2.8,7.3-6.1,9c0.9,0.5,1.8,1,2.9,1.3c3.5-2.2,5.9-5.8,6.4-10.1
		c0.4-3,0-6.1-0.4-9c-0.1-1.1-0.3-2.3-0.4-3.4c-0.9-9.4,1.5-18.9,3.8-28.1c1.3-5.4,2.7-11,3.4-16.6c1.5-11.2-4.8-22.4-10.8-33.2
		c-3.9-7.1-8-14.4-9.7-21.5c-1.8-7.5-0.1-15.3,1.5-22.8c1.7-7.7,3.4-15.6,1.5-23.5c-1.6-6.8-6.3-14.9-11.2-23.4
		c-5.7-9.8-11.5-19.9-12.3-27.8c-1.5-14,0.3-25,2.1-35.7c2.3-13.3,4.3-26-0.7-42.6C58.9,349.6,58.6,356,57.5,362.5z"/>
	<path id="XMLID_7273_" class="st0" d="M54.6,338.1c-0.3,0.9-0.6,1.9-0.9,2.8c0.3,1,0.5,2,0.7,3c2.1,6.8,2.9,12.9,3.1,18.7
		c1.1-6.4,1.4-12.8,0.1-19.1c-0.5-1.5-0.9-3-1.5-4.5C56,338.3,55.3,338.1,54.6,338.1z"/>
	<path id="XMLID_7272_" class="st0" d="M81,640.4c-0.8,0.3-1,1.1-0.5,1.6c0.3,0.4,0.8,0.6,1.4,0.6c0.3,0,0.6-0.1,0.8-0.2
		c0.7-0.3,1.3-0.7,1.9-1.1c-1-0.4-2-0.8-2.9-1.3C81.4,640.1,81.2,640.3,81,640.4z"/>
	<path id="XMLID_7271_" class="st0" d="M68.1,660.1c-1.1,9.3-3.9,15.9-8.9,20.8c-5.1,5.1-14.9,9.4-24.5,7c0,0-0.1,0-0.1,0
		c-0.8,0.6-1.6,1.3-2.4,1.8c-0.1,0.5,0.2,1,0.8,1.2c0.2,0.1,0.4,0.1,0.7,0.1c0.6,0,1.1-0.2,1.4-0.6c9.2,1.7,20-1.5,26.7-8.2
		c5.2-5.1,8.1-11.9,9.4-21.2c-0.9-0.5-1.8-1-2.7-1.6C68.3,659.8,68.1,659.9,68.1,660.1z"/>
	<path id="XMLID_7270_" class="st0" d="M34.6,688c-0.8-0.2-1.6,0.1-1.9,0.6l-0.5,0.8c-0.1,0.1,0,0.3,0,0.4
		C33,689.2,33.8,688.6,34.6,688z"/>
	<path id="XMLID_7269_" class="st0" d="M69.8,659c-0.6-0.1-1.1,0.2-1.4,0.6c0.9,0.6,1.8,1.1,2.7,1.6c0-0.3,0.1-0.5,0.2-0.9
		C71.4,659.7,70.7,659.1,69.8,659z"/>
	<path id="XMLID_7268_" class="st0" d="M66,545.2c0,0.1,0.1,0.1,0.1,0.2C66.1,545.4,66.1,545.3,66,545.2C66,545.2,66,545.2,66,545.2
		z"/>
	<path id="XMLID_7267_" class="st0" d="M35.9,681.3c-0.7,0.4-0.9,1.1-0.4,1.6c0,0,0.1,0.1,0.2,0.1c0.7-0.9,1.4-1.8,1.9-2.7
		C37,680.7,36.4,681.1,35.9,681.3z"/>
	<path id="XMLID_7266_" class="st0" d="M63.2,546.4c2.6,4,5.2,10.1,5,15.1c-0.4,10.9-5.4,21.5-10.1,31.8
		c-5.3,11.3-10.7,23-10.3,35.2c0.2,4.9,1.3,9.8,2.4,14.5c1,4.2,2,8.5,2.3,12.8c0.5,6.6-3.8,15-10,20.8c-0.6,1.8-1.4,3.6-2.4,5.2
		c9.3-5.9,16.3-17.2,15.6-26.1c-0.3-4.4-1.3-8.8-2.3-13.1c-1.1-4.6-2.2-9.4-2.4-14.2c-0.4-11.8,4.9-23.3,10.1-34.4
		c4.8-10.4,9.8-21.1,10.3-32.3c-0.4-1.4-0.9-2.8-1.5-4.1C68.3,553.8,65.7,550.1,63.2,546.4z"/>
	<path id="XMLID_7265_" class="st0" d="M37.5,680.3c-0.5,0.9-1.2,1.8-1.9,2.7c0.3,0.3,0.7,0.4,1.2,0.4c0.3,0,0.6-0.1,0.9-0.2
		c0.8-0.4,1.7-1,2.5-1.5c1-1.6,1.8-3.4,2.4-5.2C41,678.1,39.3,679.3,37.5,680.3z"/>
	<path id="XMLID_7264_" class="st0" d="M63.9,544.7c-0.8,0.3-1.1,1-0.7,1.6c0,0,0,0.1,0.1,0.1c2.5,3.7,5.1,7.4,6.7,11.2
		c0.6,1.4,1.1,2.7,1.5,4.1c0-0.1,0-0.1,0-0.2c0.2-5.7-2.7-12.2-5.3-16.2c0-0.1-0.1-0.1-0.1-0.2C65.6,544.7,64.7,544.4,63.9,544.7z"
		/>
	<path id="XMLID_7263_" class="st0" d="M5.1,684.7c-0.5-1.2-1.1-2.4-1.7-3.6c-2.7-5-1.6-11,2.6-15.2c0.3-0.3,0.3-0.7,0.2-1
		c-1.7,2.1-3.9,3.9-6.5,5.3c-1.5,3.9-1.3,8.1,0.7,11.8c0.6,1.1,1.1,2.3,1.6,3.4c1,2.3,2.1,4.7,3.8,6.5c1.3,0,2.6-0.2,3.9-0.4
		C7.7,690.2,6.5,687.9,5.1,684.7z"/>
	<path id="XMLID_7262_" class="st0" d="M18.4,691.6c-2.1,0.9-4.4,1.6-6.7,2c2.5-0.2,4.9-0.5,7.1-1c0.3-0.1,0.6-0.2,0.9-0.3
		c-0.1-0.1-0.1-0.3-0.2-0.4C19.2,691.7,18.9,691.6,18.4,691.6z"/>
	<path id="XMLID_7261_" class="st0" d="M12.3,695c0.2,0.1,0.4,0.1,0.7,0.1c0.7,0,1.6-0.2,3.2-0.7c0.7-0.2,1.4-0.4,1.9-0.5
		c0.7,0.1,1.4-0.2,1.7-0.7c0.2-0.3,0.1-0.7-0.1-1c-0.3,0.1-0.6,0.2-0.9,0.3c-2.2,0.5-4.7,0.9-7.1,1c2.3-0.4,4.6-1.1,6.7-2
		c-0.7,0-1.6,0.2-3.3,0.6c-0.7,0.2-1.4,0.4-1.9,0.5c-1.4-0.2-2.5-0.6-3.4-1.2c-1.3,0.2-2.6,0.3-3.9,0.4
		C7.4,693.4,9.3,694.6,12.3,695z"/>
	<path id="XMLID_7260_" class="st0" d="M6.2,664.8c-0.1-0.2-0.2-0.5-0.5-0.6c-0.7-0.4-1.7-0.3-2.3,0.3c-1.7,1.7-2.9,3.6-3.7,5.7
		C2.4,668.8,4.6,666.9,6.2,664.8z"/>
	<path id="XMLID_7259_" class="st0" d="M19.3,648.1c-0.4,0.9-0.9,1.9-1.4,3c-0.4,1-0.9,2-1.4,3.1c-2.1,4.5-4.2,9.2-4.9,14.1
		c-0.9,7.1,1.7,13.4,7.2,17.2c0.7,0.5,1.6,1,2.8,1.4c1.6-1.1,3.1-2.4,4.5-3.8c0,0,0,0-0.1,0c-0.9,0-1.6,0.6-1.5,1.2
		c0,0.1-0.1,0.2-0.2,0.3c-0.2,0.2-0.7,0.3-0.8,0.3c-0.7,0-1.5-0.4-2.4-1c-4.7-3.3-7-9-6.2-15.3c0.6-4.6,2.7-9.2,4.7-13.6
		c0.5-1,0.9-2.1,1.4-3.1c0.5-1.1,0.9-2,1.4-3c1.1-2.2,1.9-4.2,2.3-6.4c-1.1-1.6-2.2-3.3-3.3-4.9C22.2,641.9,21.1,644.4,19.3,648.1z"
		/>
	<path id="XMLID_7258_" class="st0" d="M21.6,686.9c0.5,0.2,1.1,0.3,1.7,0.3c0.1,0,0.1,0,0.2,0c1.1,0,2.3-0.4,3.1-1
		c0.8-0.6,1.2-1.3,1.1-2c0-0.6-0.8-1.1-1.6-1.1C24.7,684.5,23.2,685.8,21.6,686.9z"/>
	<path id="XMLID_7257_" class="st0" d="M24.6,637.1c-0.1-0.6-1-1.1-1.8-1c-0.9,0.1-1.5,0.7-1.4,1.3c0,0.1,0,0.1,0,0.2
		c1.1,1.6,2.2,3.2,3.3,4.9C24.9,640.9,25,639.2,24.6,637.1z"/>
	<path id="XMLID_7256_" class="st0" d="M-19.2,438.9c0.7,0.2,1,0.8,0.8,1.4c7.7-3.9,14.7-8.5,21-13.6c1.3-2.2,2.7-4.3,4.4-6.3
		c0.5-0.6,1.5-0.7,2.2-0.4c0.2,0.1,0.3,0.3,0.4,0.5c3.5-3.3,6.6-6.9,9.5-10.5c2-5.6,4.2-10.8,6.3-15.5
		c-9.2,18.2-25.8,34.1-47.5,44.8c-0.7,0.4-0.9,1.1-0.4,1.6c0,0.1,0.1,0.1,0.2,0.1c0.3-0.5,0.6-1.1,1-1.6
		C-20.9,438.9-20,438.7-19.2,438.9z"/>
	<path id="XMLID_7255_" class="st0" d="M27.7,393.5c0.8,0.2,1.3,0.9,1,1.5c0,0.1-0.1,0.2-0.1,0.3c3.6-7.1,6.1-14.6,7.3-22.2
		c5.4-2.3,7.8-7,9.8-11.7c2.7-6.4,5.6-13.3,7.9-20.3c-0.2-0.6-0.3-1.1-0.5-1.7c-0.1-0.1,0.1-0.3,0.1-0.4c-0.2-0.6-0.4-1.3-0.6-1.9
		c-0.3-0.6,0.2-1.3,1.1-1.5c0.6-0.1,1.1,0.1,1.5,0.4c2.1-7.6,3.3-15.4,2.6-23.2c-0.2-2.3-0.6-4.6-2-6.8c-0.1,0.1-0.1,0.3-0.2,0.4
		c-0.2,0.5-0.9,0.8-1.5,0.8c-0.2,0-0.4,0-0.6-0.1c-0.8-0.2-1.3-0.9-0.9-1.5c0.4-0.7,0.7-1.4,1.1-2.1c-1.9-1.5-4.3-2.5-6.9-2.5
		c-0.9,0-1.9,0.1-2.8,0.4c2.5-5.6,8.2-12.9,19.3-15.7c0,0,0,0,0,0c0.5-0.9,1-1.8,1.5-2.8c-16.6,3-22.6,13.8-24.6,19.7
		c0.6,1.5,1.3,2.9,2.1,4.3c0-0.1,0.1-0.1,0.1-0.2c0-0.4,0.1-0.8,0.2-1.3c0.2-0.3,0.5-0.6,0.8-0.9c0.9-0.7,2.1-1.1,3.2-1.1
		c2.2,0,4.6,1.3,5.9,3.2c1.3,1.9,1.7,4.2,1.9,6.4c1.5,16.4-5.6,33-11.8,47.7c-1.9,4.4-4.1,8.8-9,10.6c-0.5,0.2-0.8,0.5-0.9,0.9
		c-1.1,7.5-3.6,14.9-7.1,22C26,393.6,26.8,393.3,27.7,393.5z"/>
	<path id="XMLID_7254_" class="st0" d="M39.5,304.6c-0.3,0.7-0.5,1.4-0.4,2.1c0.1,0.6,0.8,1.1,1.6,1.1c0,0,0,0,0,0
		c0.7,0,1.3-0.4,1.5-0.9c-0.8-1.4-1.5-2.8-2.1-4.3C39.9,303.4,39.7,304.1,39.5,304.6z"/>
	<path id="XMLID_7253_" class="st0" d="M53.6,303.6c-0.4,0.7-0.7,1.4-1.1,2.1c-0.3,0.6,0.1,1.3,0.9,1.5c0.2,0.1,0.4,0.1,0.6,0.1
		c0.7,0,1.3-0.3,1.5-0.8c0.1-0.1,0.1-0.3,0.2-0.4c-0.1-0.2-0.2-0.4-0.3-0.5C54.9,304.8,54.3,304.2,53.6,303.6z"/>
	<path id="XMLID_7252_" class="st0" d="M67.6,283.7c-0.2-0.6-1.1-1-1.9-0.9c-0.3,0.1-0.6,0.2-0.9,0.2c-0.6,1-1.1,1.9-1.5,2.8
		c0,0,0,0,0,0c1-0.3,2-0.5,3.1-0.7C67.2,285,67.8,284.3,67.6,283.7z"/>
	<path id="XMLID_7251_" class="st0" d="M9.3,420c-0.7-0.3-1.7-0.2-2.2,0.4c-1.7,2-3.1,4.1-4.4,6.3c2.5-2,4.8-4.1,7.1-6.2
		C9.6,420.3,9.5,420.1,9.3,420z"/>
	<path id="XMLID_7250_" class="st0" d="M28.6,395.3c0-0.1,0.1-0.2,0.1-0.3c0.3-0.6-0.2-1.3-1-1.5c-0.8-0.2-1.7,0.1-2,0.7
		c-0.1,0.1-0.1,0.2-0.2,0.3c-2.1,4.6-4.3,9.9-6.3,15.5C22.9,405.3,26,400.4,28.6,395.3z"/>
	<path id="XMLID_7249_" class="st0" d="M53.6,335.7c-0.9,0.2-1.3,0.9-1.1,1.5c0.3,0.6,0.4,1.3,0.6,1.9c0.1-0.5,0.4-0.9,1.1-1
		c0.1,0,0.3,0,0.4,0c0.2-0.7,0.3-1.3,0.5-2C54.7,335.7,54.2,335.6,53.6,335.7z"/>
	<path id="XMLID_7248_" class="st0" d="M-20.2,441.3c0.6-0.3,1.2-0.7,1.9-1c0.2-0.6-0.1-1.1-0.8-1.4c-0.8-0.3-1.8,0-2.1,0.6
		c-0.3,0.5-0.6,1.1-1,1.6c0.3,0.2,0.7,0.4,1.2,0.4C-20.8,441.5-20.5,441.4-20.2,441.3z"/>
	<path id="XMLID_7247_" class="st0" d="M53.2,339.1c0,0.1-0.1,0.3-0.1,0.4c0.2,0.6,0.3,1.1,0.5,1.7c0-0.1,0.1-0.2,0.1-0.3
		C53.6,340.2,53.4,339.7,53.2,339.1z"/>
	<path id="XMLID_7246_" class="st0" d="M54.6,338.1c-0.1,0-0.3-0.1-0.4,0c-0.7,0.1-1,0.6-1.1,1c0.2,0.6,0.4,1.2,0.6,1.8
		C54,339.9,54.3,339,54.6,338.1z"/>
	<path id="XMLID_7245_" class="st0" d="M-171.5,184.6c0.3,0,0.6-0.1,0.9-0.2c0.7-0.3,0.9-1,0.5-1.6c-0.7,0.5-1.5,1-2.4,1.5
		C-172.1,184.4-171.8,184.6-171.5,184.6z"/>
	<path id="XMLID_7244_" class="st0" d="M-173.8,175.6c-0.1,0.6-0.9,1.1-1.8,1c-0.8-0.1-1.4-0.6-1.3-1.3c0.2,2.5,1.5,5,2.8,6.9
		c0.9-0.5,1.7-1,2.5-1.6c-1-1.5-1.9-3.3-2.1-5.2C-173.8,175.5-173.8,175.6-173.8,175.6z"/>
	<path id="XMLID_7243_" class="st0" d="M-176.2,172.4c-0.1-0.1-0.1-0.3-0.2-0.4c-0.5,1.1-0.6,2.2-0.6,3.2c0.2-0.9,0.6-1.8,1-2.6
		C-176,172.5-176.1,172.5-176.2,172.4z"/>
	<path id="XMLID_7242_" class="st0" d="M-173.3,171.4c0.1,0.1,0,0.3,0,0.4C-173.2,171.7-173.2,171.6-173.3,171.4z"/>
	<path id="XMLID_7241_" class="st0" d="M-174.7,173.1c-0.5,0-0.9-0.2-1.3-0.5c-0.4,0.9-0.8,1.7-1,2.6c0,0,0,0.1,0,0.1
		c-0.1,0.6,0.5,1.2,1.3,1.3c0.9,0.1,1.7-0.4,1.8-1c0-0.1,0.1-0.1,0.1-0.2c-0.1-1.1,0-2.1,0.5-3.1l0,0c-0.1,0.3-0.4,0.5-0.8,0.7
		C-174.3,173.1-174.5,173.1-174.7,173.1z"/>
	<path id="XMLID_7240_" class="st0" d="M-171.7,180.6c-0.8,0.6-1.6,1.2-2.5,1.6c0.5,0.6,0.9,1.2,1.3,1.7c0.1,0.1,0.3,0.2,0.4,0.3
		c0.9-0.4,1.6-0.9,2.4-1.5c0,0,0,0,0-0.1C-170.5,182.2-171.1,181.5-171.7,180.6z"/>
	<path id="XMLID_7239_" class="st0" d="M-29.4,162.2c7.1-0.8,14.5,0,21.6,0.7c1.7,0.2,3.4,0.3,5.1,0.5c8.7,0.8,18.9,1.1,27.9-2.2
		c1.1-0.4,2.2-0.8,2.9-0.6c1.1,0.2,3.8,1.7,5,3.3c0,0,0.1,0,0.1,0c-1-1.2-1.9-2.6-2.8-4c-0.2-0.4-0.5-0.9-0.7-1.4
		c-0.2-0.1-0.5-0.2-0.7-0.2c-2-0.4-3.8,0.3-5.5,0.9c-8,3-17.5,2.6-25.8,1.9c-1.7-0.1-3.3-0.3-5-0.5c-7.4-0.7-15-1.5-22.5-0.7
		c-8,0.9-18.4,4.5-21.7,11.6c0.3,0.3,0.6,0.6,1,0.9c0-0.2-0.1-0.3,0-0.5c0-0.7,0.9-1.2,1.7-1.1c0.4,0,0.8,0.2,1.1,0.4
		C-44.5,165.7-36.1,163-29.4,162.2z"/>
	<path id="XMLID_7238_" class="st0" d="M-51.6,171.5c-0.1,0.2-0.2,0.3-0.3,0.5c-0.3,0.6,0.2,1.3,1.1,1.5c0.1,0,0.2,0,0.3,0
		c-0.1-0.4-0.1-0.7-0.1-1.1C-51,172.1-51.3,171.8-51.6,171.5z"/>
	<path id="XMLID_7237_" class="st0" d="M-50.7,171.9c0,0.2,0,0.3,0,0.5c0.4,0.3,0.7,0.6,1.1,1c0.4-0.1,0.7-0.4,0.8-0.7
		c0.2-0.6,0.6-1,0.9-1.6c-0.3-0.2-0.6-0.4-1.1-0.4C-49.8,170.7-50.6,171.2-50.7,171.9z"/>
	<path id="XMLID_7236_" class="st0" d="M-50.5,173.5c0.1,0,0.1,0,0.2,0c0.3,0,0.5-0.1,0.8-0.2c-0.4-0.3-0.7-0.6-1.1-1
		C-50.6,172.7-50.6,173.1-50.5,173.5z"/>
	<path id="XMLID_7235_" class="st0" d="M33.1,163.8c0.5,0.5,1.4,0.7,2.1,0.4c0.8-0.3,1.1-1,0.7-1.6c-1.4-2-4.3-3.6-6.3-4.2
		c0.2,0.5,0.5,1,0.7,1.4C31.2,161.3,32.1,162.6,33.1,163.8z"/>
	<path id="XMLID_7234_" class="st0" d="M-52.7,156.2c2.9-3.3,7-6.1,10.9-8.9l2.5-1.8c6.1-4.3,13.2-10.2,18.8-15.7
		c-1.1-0.2-2.3-0.4-3.4-0.7c-5.4,5.2-12,10.7-17.7,14.7l-2.5,1.7c-4.1,2.8-8.3,5.7-11.5,9.3c-2.2,2.6-4.6,5.4-5.1,8.5
		c0.4,0.2,0.6,0.4,1,0.6c0.8,0.3,1.1,1,0.6,1.6c0,0-0.1,0.1-0.1,0.1c0.8,0.6,1.6,1.3,2.4,1.9C-58.9,163.7-56.5,160.6-52.7,156.2z"/>
	<path id="XMLID_7233_" class="st0" d="M-60.4,166.2c0,0-0.1,0-0.1,0c0.2,0.8,0.4,1.6,0.9,2.4c0.3,0.4,0.9,0.7,1.5,0.7
		c0.2,0,0.4,0,0.6-0.1c0.8-0.3,1.2-1,0.8-1.6c0,0,0,0,0-0.1c-0.8-0.6-1.6-1.3-2.4-1.9C-59.4,166-59.9,166.2-60.4,166.2z"/>
	<path id="XMLID_7232_" class="st0" d="M-19.8,129.3c0.5-0.5,0.4-1.3-0.3-1.7c-0.7-0.4-1.7-0.3-2.3,0.2c-0.4,0.4-0.9,0.9-1.4,1.3
		c1.1,0.3,2.3,0.5,3.4,0.7C-20.2,129.7-20,129.5-19.8,129.3z"/>
	<path id="XMLID_7231_" class="st0" d="M-296.7,255.9l1.9,0.6c0.4,0.1,0.8,0.4,0.9,0.7c0,0,0,0,0,0.1c14.8-9.4,37.9-11.2,55.2-4.4
		c0.3-0.8,0.6-1.5,1-2.3C-256.3,243.5-281.1,245.6-296.7,255.9z"/>
	<path id="XMLID_7230_" class="st0" d="M-234.7,253.1c0.3-0.4,0.2-0.9-0.1-1.2c-0.2,0.6-0.4,1.1-0.7,1.7
		C-235.2,253.5-234.9,253.4-234.7,253.1z"/>
	<path id="XMLID_7229_" class="st0" d="M-237.7,250.6c-0.3,0.8-0.6,1.5-1,2.3c0.6,0.2,1.2,0.4,1.7,0.6c0.4,0.2,0.9,0.2,1.4,0
		c0.3-0.6,0.5-1.1,0.7-1.7c-0.1-0.1-0.2-0.3-0.4-0.4C-236.1,251.2-236.9,250.9-237.7,250.6z"/>
	<path id="XMLID_7228_" class="st0" d="M-294.8,256.5l-1.9-0.6c-0.1,0.1-0.2,0.1-0.2,0.1c-0.7,0.4-0.7,1.2-0.1,1.7
		c0.3,0.3,0.8,0.4,1.2,0.4c0.4,0,0.8-0.1,1.1-0.3c0.3-0.2,0.6-0.3,0.9-0.5c0,0,0,0,0-0.1C-294,256.9-294.3,256.6-294.8,256.5z"/>
	<path id="XMLID_7227_" class="st0" d="M-262.4,231.5c-10.3-2.6-18.5-9.4-20.9-17.2c-0.1-0.4-0.5-0.6-0.9-0.8c0,1.7-0.2,3.5-0.5,5.2
		c3.8,6.9,11.7,12.6,21.3,15c3.1,0.8,6.6,1.2,10.3,1.2c7.6,0,15.8-1.7,22.4-4.5c0.6-1.2,1.2-2.5,2-3.8
		C-237.6,231.8-252.6,234-262.4,231.5z"/>
	<path id="XMLID_7226_" class="st0" d="M-226.4,228.3c0.7-0.4,0.8-1.2,0.2-1.7c-0.6-0.5-1.6-0.6-2.3-0.2c-0.1,0.1-0.2,0.1-0.3,0.1
		c-0.8,1.3-1.4,2.5-2,3.8C-229.3,229.7-227.7,229.1-226.4,228.3z"/>
	<path id="XMLID_7225_" class="st0" d="M-285.2,213.4c-0.9,0.1-1.4,0.8-1.2,1.4c0.4,1.3,1,2.6,1.7,3.9c0.4-1.7,0.5-3.4,0.5-5.2
		C-284.5,213.5-284.8,213.4-285.2,213.4z"/>
	<path id="XMLID_7224_" class="st0" d="M-201.5,179.3c-2.4-3.3-3.3-7.1-3.9-10.8c-1.8-10.8-1.3-21.7,1.3-32.4c0-0.2-0.1-0.3-0.1-0.4
		c-1.3,0.8-2.6,1.6-3.9,2.3c0,0,0,0.1,0.1,0.1c0.1,0,0.1,0.1,0.2,0.1c-2.2,10.2-2.4,20.5-0.8,30.7c0.6,3.9,1.6,8,4.3,11.6
		c2.3,3.1,8.4,5.6,13.5,6.8c1.2-0.7,2.6-1.3,4-1.7C-192.2,184.9-199.4,182.1-201.5,179.3z"/>
	<path id="XMLID_7223_" class="st0" d="M-187,188c0.1,0,0.2,0,0.2,0c0.8,0,1.5-0.4,1.6-1c0.1-0.6-0.5-1.3-1.4-1.4
		c-0.1,0-0.2,0-0.4-0.1c-1.4,0.4-2.8,1-4,1.7C-189.5,187.6-188.2,187.8-187,188z"/>
	<path id="XMLID_7222_" class="st0" d="M-205,134.9c-0.7-0.2-1.5-0.1-1.9,0.3l-1.3,1.2c-0.5,0.5-0.4,1.2,0.2,1.6
		c1.3-0.7,2.6-1.5,3.9-2.3C-204.3,135.4-204.5,135.1-205,134.9z"/>
	<path id="XMLID_7221_" class="st0" d="M-176.3,144.3c-5.3,10.3-5.4,19.1-0.1,27.7c0.1-0.2,0.1-0.3,0.2-0.5c0.2-0.4,0.8-0.6,1.3-0.7
		c0.2-0.3,0.5-0.7,0.8-1c-4.2-7.7-4-15.4,0.9-24.7c5-9.7,15.2-18.1,26.6-21.8c-2.4,0.2-4.8,0.4-7.3,0.3
		C-163.6,128.1-171.9,135.7-176.3,144.3z"/>
	<path id="XMLID_7220_" class="st0" d="M-174.1,170.8c0.4,0.1,0.7,0.3,0.9,0.6c0,0,0,0,0,0c-0.3-0.5-0.6-1.1-0.9-1.6
		c-0.3,0.3-0.5,0.6-0.8,1C-174.6,170.8-174.4,170.7-174.1,170.8z"/>
	<path id="XMLID_7219_" class="st0" d="M-173.2,171.8c0,0.2,0.1,0.3,0,0.5C-173.1,172.2-173.2,172-173.2,171.8z"/>
	<path id="XMLID_7218_" class="st0" d="M-146.6,123.2c0.8-0.3,1.2-1,0.8-1.6c-0.4-0.6-1.3-0.9-2.1-0.6c-2.1,0.7-4.1,1.5-6.1,2.5
		C-151.4,123.6-149,123.5-146.6,123.2C-146.6,123.3-146.6,123.2-146.6,123.2z"/>
	<path id="XMLID_7217_" class="st0" d="M-176,172.6c0.3-0.6,0.7-1.2,1.1-1.8c-0.6,0-1.1,0.2-1.3,0.7c-0.1,0.2-0.1,0.3-0.2,0.5
		c0.1,0.1,0.1,0.3,0.2,0.4C-176.1,172.5-176,172.5-176,172.6z"/>
	<path id="XMLID_7216_" class="st0" d="M-174.9,170.8c-0.4,0.6-0.8,1.2-1.1,1.8c0.3,0.3,0.7,0.5,1.3,0.5c0.2,0,0.5,0,0.7-0.1
		c0.4-0.1,0.7-0.4,0.8-0.7c0.1-0.2,0-0.3,0-0.5c0-0.1,0.1-0.3,0-0.4c-0.2-0.3-0.5-0.5-0.9-0.6C-174.4,170.7-174.6,170.8-174.9,170.8
		z"/>
	<path id="XMLID_7215_" class="st0" d="M70.5,276.5c0.2-0.1,0.3-0.2,0.4-0.3c0.9-0.6,1.8-1,2.7-1.5c-0.1,0-0.1-0.1-0.1-0.1
		c-16.5-2.5-31.5-9-42.5-18.3c-0.3-0.2-0.6-0.3-1-0.4c0.6,1.4,1.2,2.9,1.6,4.3C42.2,268.3,55.7,273.9,70.5,276.5z"/>
	<path id="XMLID_7214_" class="st0" d="M28.8,256.2c-0.7,0.4-0.8,1.2-0.2,1.7c1,0.8,2,1.6,3.1,2.4c-0.5-1.5-1-2.9-1.6-4.3
		C29.6,255.9,29.1,256,28.8,256.2z"/>
	<path id="XMLID_7213_" class="st0" d="M70.5,276.5c0.8,0.1,1.6,0.3,2.4,0.4c0.1,0,0.2,0,0.3,0c0.8,0,1.4-0.4,1.6-0.9
		c0.2-0.6-0.3-1.1-1.1-1.3c-0.9,0.4-1.9,0.9-2.7,1.5C70.8,276.3,70.7,276.4,70.5,276.5z"/>
	<path id="XMLID_7212_" class="st0" d="M87.2,206.3c0-0.3-0.2-0.5-0.5-0.7c0.2,0.6,0.3,1.2,0.5,1.8C87.2,207,87.2,206.7,87.2,206.3z
		"/>
	<path id="XMLID_7211_" class="st0" d="M55.9,241.9c9.7-4.7,16.8-11.8,23-18.8c2-2.2,4-4.6,5.5-7.2c0.2-2.8,0.1-5.6-0.5-8.3
		c-0.1,5.1-4,10-7.8,14.2c-6,6.8-12.9,13.7-22.1,18.2c-7.9,3.8-20.1,6.6-30.8,2.8c-0.2-0.1-0.4,0-0.7,0l0.7,1.1
		c0.4,0.6,0.7,1.1,1.1,1.7c3.2,0.8,6.5,1.4,10,1.4C41.5,246.9,49.1,245.2,55.9,241.9z"/>
	<path id="XMLID_7210_" class="st0" d="M22.6,242.7c-0.6,0-1.2,0.1-1.5,0.6c-0.4,0.6-0.1,1.3,0.8,1.6c0.8,0.3,1.7,0.4,2.5,0.6
		c-0.4-0.6-0.7-1.1-1.1-1.7L22.6,242.7z"/>
	<path id="XMLID_7209_" class="st0" d="M85.4,205.2c-0.9,0-1.6,0.6-1.5,1.3c0,0.4,0,0.7,0,1.1c0.6,2.7,0.7,5.5,0.5,8.3
		c1.6-2.7,2.7-5.5,2.7-8.5c-0.1-0.6-0.3-1.2-0.5-1.8C86.4,205.3,86,205.2,85.4,205.2z"/>
	<path id="XMLID_7208_" class="st0" d="M-208.5,202.2c-0.1,0-0.6-0.1-0.9-0.3c-0.7-0.2-1.5-0.5-2.7-0.8c-3.4-0.8-6.7-2.6-9.7-5.5
		c-6.3-6.1-9.1-14.3-7.3-21.9c0.2-0.7,0.4-1.5,0.6-2.2c1.2-4.3,2.5-9.2-1.6-12.8c-2.7-2.3-7.3-3.3-12-2.8c-4.2,0.5-8,2.1-11.1,3.5
		c-2.3,1.1-4.6,2.4-6.8,3.7c-0.5,0.4-1,0.7-1.5,1.1c-9.1,7-15.6,14.9-19.4,23c0,0,0,0,0,0c7.3-11.2,17.8-20.4,29.4-25.9
		c3-1.4,6.3-2.8,9.9-3.2c2.9-0.3,6.8,0,9.1,2c3.2,2.7,2,6.8,0.9,10.8c-0.2,0.8-0.4,1.5-0.6,2.3c-2,8.2,1,17.1,7.9,23.7
		c3.4,3.3,7.2,5.4,11.3,6.4c1,0.2,1.8,0.5,2.3,0.7c0.7,0.2,1.2,0.3,1.7,0.3c0.3-1.2,0.7-2.4,1.8-3.4c0,0,0,0,0,0c0,0,0,0,0,0
		C-208,201.7-208.5,202.1-208.5,202.2z"/>
	<path id="XMLID_7207_" class="st0" d="M-209,204.4c0.2,0,0.4,0.1,0.6,0.1c1.3,0,2.3-0.7,3.8-2c0.6-0.5,0.4-1.3-0.3-1.7
		c-0.7-0.4-1.7-0.3-2.3,0.2c0,0,0,0,0,0C-208.3,202.1-208.8,203.2-209,204.4z"/>
	<path id="XMLID_7206_" class="st0" d="M-260,163.2c-9.4,5.7-17.7,13.7-23.8,23.1c-0.4,0.6,0,1.3,0.8,1.6c0.8,0.3,1.8,0,2.2-0.6
		c3.8-8.1,10.3-16,19.4-23C-261.1,163.9-260.5,163.5-260,163.2z"/>
	<path id="XMLID_7205_" class="st0" d="M-60.6,163.4c-8-4.1-7.4-13.7-6.9-16.6c0.2-1.5,0.5-3,0.9-4.5c1.1-5.4,2.3-11.1-0.3-16.4
		c-2.8-5.9-10.2-10.8-19.4-12.7c-10-2.1-19.7-0.4-26,1.4c-0.4,0.1-1,0.3-1.7,0.5c-2.3,0.7-6.1,1.9-10.3,2.6c-2.9,1-5.9,2-8.8,2.9
		c8.1,0.5,16.4-2,20.4-3.3c0.6-0.2,1.2-0.4,1.6-0.5c5.9-1.6,14.8-3.2,24-1.3c8.1,1.7,14.7,5.9,17.2,11.2c2.3,4.8,1.2,10.1,0.1,15.3
		c-0.3,1.5-0.6,3.1-0.9,4.6c-0.8,5.2,0.1,9.8,2.3,13.4c2.6,1.5,5.2,3,7.7,4.7C-60.7,164.2-60.7,163.8-60.6,163.4z"/>
	<path id="XMLID_7204_" class="st0" d="M-60.7,164.6c-2.5-1.7-5.1-3.2-7.7-4.7c1.7,2.7,4.1,4.8,7.3,6.1c0.2,0.1,0.4,0.1,0.7,0.1
		C-60.6,165.6-60.7,165.1-60.7,164.6z"/>
	<path id="XMLID_7203_" class="st0" d="M-133.4,118.1c-1-0.1-1.7,0.4-1.8,1c-0.1,0.7,0.5,1.2,1.4,1.3c0.2,0,0.4,0,0.5,0
		c3-0.9,5.9-1.9,8.8-2.9C-127.2,118.1-130.3,118.4-133.4,118.1z"/>
	<path id="XMLID_7202_" class="st0" d="M-59.1,165.7c0,0,0.1-0.1,0.1-0.1c0.4-0.6,0.2-1.3-0.6-1.6c-0.4-0.2-0.7-0.4-1-0.6
		c-0.1,0.4-0.1,0.8-0.1,1.2C-60.2,165-59.6,165.3-59.1,165.7z"/>
	<path id="XMLID_7201_" class="st0" d="M-59.1,165.7c-0.5-0.4-1.1-0.7-1.6-1.1c0,0.5,0.1,1,0.2,1.5c0,0,0.1,0,0.1,0
		C-59.9,166.2-59.4,166-59.1,165.7z"/>
	<path id="XMLID_7200_" class="st0" d="M-258.8,295.5c-2.9-2.2-6.8-4-11.4-5.1c-6.6-1.6-13.6-1.7-20.3-1.7c0.8,0.7,1.5,1.5,2.1,2.4
		c5.8,0.1,11.7,0.3,17.2,1.6c6.2,1.5,11,4.4,13.3,7.9l-0.5-3.5c-0.1-0.1-0.2-0.2-0.3-0.4C-258.7,296.3-258.7,295.9-258.8,295.5z"/>
	<path id="XMLID_7199_" class="st0" d="M-254.4,301.5c0.4-0.6,0.5-1.3,0.1-1.9c-0.1-0.2-0.4-0.3-0.5-0.4l0.3,2.4
		C-254.5,301.5-254.5,301.5-254.4,301.5z"/>
	<path id="XMLID_7198_" class="st0" d="M-258.7,296.7c0,0.1,0.2,0.2,0.3,0.4l-0.2-1.4c-0.1-0.1-0.2-0.1-0.2-0.1
		C-258.7,295.9-258.7,296.3-258.7,296.7z"/>
	<path id="XMLID_7197_" class="st0" d="M-290.7,288.8C-290.7,288.8-290.7,288.8-290.7,288.8c-0.9,0-1.6,0.5-1.6,1.2
		c0,0.7,0.7,1.2,1.6,1.2c0.8,0,1.5,0,2.3,0c-0.6-0.9-1.3-1.7-2.1-2.4C-290.6,288.8-290.6,288.8-290.7,288.8z"/>
	<path id="XMLID_7196_" class="st0" d="M-256.5,297.6c-0.1,0-0.2,0.1-0.3,0.1c-0.1,0-0.2,0-0.2,0c-0.6,0-1-0.3-1.3-0.6l0.5,3.5
		c0.2,0.3,0.4,0.5,0.6,0.7c0.2,0.4,0.8,0.7,1.4,0.8c0,0,0.1,0,0.1,0c0.5,0,1-0.2,1.3-0.5l-0.3-2.4c-0.3-0.3-0.5-0.5-0.8-0.7
		C-255.9,298.1-256.3,297.9-256.5,297.6z"/>
	<path id="XMLID_7195_" class="st0" d="M-257.1,297.7c0.1,0,0.2,0,0.2,0c0.1,0,0.2-0.1,0.3-0.1c-0.6-0.7-1.3-1.3-2-1.9l0.2,1.4
		C-258.1,297.4-257.7,297.7-257.1,297.7z"/>
</g>
</svg>
