<?xml version="1.0" encoding="utf-8"?>
<!-- Generator: Adobe Illustrator 19.0.0, SVG Export Plug-In . SVG Version: 6.00 Build 0)  -->
<svg version="1.1" id="Layer_1" xmlns="http://www.w3.org/2000/svg" xmlns:xlink="http://www.w3.org/1999/xlink" x="0px" y="0px"
	 viewBox="-292 116.6 374.3 328.4" enable-background="new -292 116.6 374.3 328.4" xml:space="preserve">
<g id="XMLID_7538_">
	<g id="XMLID_7732_">
		<path id="XMLID_7733_" fill="#EF7B05" d="M61.3,244.1c-4.2-5.3-12-7.6-15.5-13.2c-4.2-6.7,2.1-14.3-0.8-20.7
			c-2.2-4.8-7.3-3.7-11.1-6c-3.2-2-6.7-6.4-8.1-9.8c-1.3-3.1-1.5-6.5-2.6-9.8c-2.7-7.9-7.8-15.4-15.9-18.2
			c14.7-1.2,22.8,11.6,20.4,25c1.3-3.1,2.6-6.5,3.4-9.8c5-20.7-20.1-31.2-37.2-31c-9.1,0.1-22.4,8.8-30.5,2.8
			c-5.9-4.4-7.6-12.3-15.9-14.7c-6.7-1.9-12.3,2-17.9,3.8c-3.4-9.7-8.6-19.9-20.6-16.1c-9.7,3.1-13,6.7-23.9,5.6
			c-9.9-1-20.1-2.4-30.1-1.3c-4.5,0.5-10,1.1-13.7,4.2c-3.6,3-3.9,8.4-8.2,10.8c-8.6,4.8-22-7.2-33.1-2.1c-4.9,2.2-9.7,3.2-13.7,7.2
			c-3.8,3.9-6.4,9.1-8.2,14.2c5-4.3,7.8-8.7,15.2-8.1c6.4,0.5,10,4.3,14.3,8.7c-4.6,1.5-10.3,0-15.1,0c-2.3,0-4.7,0.2-7,0.4
			c-8.1,0.7-3.9,8.2-7.6,13c-2.7,3.5-5.4,1.7-9.1,3.3c-11.4,5-3.1,17.3-10.8,24.7c-4.1,3.9-7.5,5.4-5.6,12.3
			c1.2,4.6,7,12.6,11.6,14.4c-6.8-2.7-12.9-4.7-16.2-12c-3.1-6.6-0.4-11,0.7-17.3c-6.1,0.7-9.3,6.8-12.4,11.3
			c-4.1,5.9-7.8,8.3-7.5,16.2c0.4,9.8,1.8,17.7-4.8,25.6c-4.8,5.8-10.5,7.3-9.3,16.2c1.2,8.4,7,14.7,6.7,23.7
			c-0.3,7.5-6.2,13.4-1.5,19.8c4,5.5,12.7,7.3,16.5,14.2c6.5,11.8-2.9,31.6,9.7,40.4c7.9,5.5,11.3,3.5,13.2,13.2
			c1.2,6.4,1.6,12.1,3.9,18.1c2.4,6.1,5.3,11.1,6.8,17.3c1.4,5.7,0.5,13.7,4.1,18.2h0.1c0.8-0.5,3.3-10.9,3.4-12.1
			c1.1-7,2.3-14.1,1.6-21.2c-1.2-12.4-2-26.2-3.3-38.7c-2.7-24.9-6-57.5,3.3-80.8c1.5-3.7,4.9-13.5,8.4-15.5c3.4-2,8.3-1.4,12.1-1.5
			c2-0.1,3.9-0.3,5.9-0.6c2.7,12,16.8,22.2,28.8,19.2c6.9-1.7,12.4-7.7,17.1-12.6c7.1-7.4,8.2-6.1,17.5-8c7.9-1.6,6.8-7.3,14.8-8.2
			c7.9-0.9,14.7,3.6,22.2-0.2c7.8-3.9,9.7-12.4,15-17.9c6.6-7,12.9-1.5,21.9,0.2c7.5,1.4,14-2,20.8-1.7c7.6,0.3,11.5,7,15.1,13
			c9.3,15.8,17.7,29.4,32.7,39.6c4.5,3.1,4.3,1,5.8,6.6c0.8,2.9,0,7.5-0.6,10.1c-0.9,3.5-4.9,7-5.1,10.4c-0.3,5.1,2.3,4.2,4.1,8.2
			c3.5,7.8,2,14.6,0.1,22.7c-2.6,11-0.3,17.3,0.6,28c0.8,9.1-2.5,17-3.3,25.7c-0.7,8.3-0.4,17.7,0.2,25.9c3.4-6.8,2.4-16.4,3.9-23.9
			c1.4-7,3.6-13.6,5.8-20.4c1.9-5.9,3.9-12.4,8.9-16.7c4.4-3.8,11.3-4,15.6-8.2c14.9-14.4-7.3-29.4-0.4-43.3
			c3.1-6.3,11.2-9.7,15.3-15.9c4-6.1,5.6-12.6,6-19.8C68.7,268.6,69.2,254.1,61.3,244.1z M-185.1,277.1c-2.7-2.4-4.6-5.9-5.8-9.6
			c2.2-0.5,4.4-1,6.6-1.5c5.3-1.1,12-3.5,16-7.4c-1.7,5.4-0.2,15.8,2.8,20.4C-170.4,284.2-180.7,281.1-185.1,277.1z M-154.1,267.4
			c-2.3,2.7-5.4,6.3-7.5,6.8c-1.6-3.9-2.8-8.9-1.2-13c4.3,2.4,6.6,3.3,11.4,3.3C-151.7,264.5-152.8,265.8-154.1,267.4z"/>
	</g>
	<g id="XMLID_7539_">
		<g id="XMLID_7729_">
			<g id="XMLID_7730_">
				<path id="XMLID_7731_" fill="#FFFFFF" d="M-172.7,210.8c0,0,0-0.3,0-0.7c0-0.5,0.1-1.2,0.2-2c0.4-1.7,1.3-4.2,3.4-6.5
					c2-2.3,5-4.5,8.7-5.7c3.7-1.2,7.9-1.4,12-1s8.1,1.3,11.8,2.1c3.7,0.9,7.2,1.7,10.2,2.3c6,1.4,10,2.3,10.1,2.3
					c0.5,0.2,60.9,17,60.9,17s-61.1-14-61.6-14.1c-0.1,0-4.1-1.1-10-2.8c-3-0.8-6.4-1.8-10.1-2.8c-3.7-1-7.6-2.1-11.5-2.6
					c-3.9-0.6-8-0.5-11.6,0.5s-6.6,3-8.6,5.1c-2.1,2.2-3.1,4.5-3.6,6.2c-0.2,0.9-0.3,1.5-0.3,2
					C-172.7,210.5-172.7,210.8-172.7,210.8z"/>
			</g>
		</g>
		<g id="XMLID_7726_">
			<g id="XMLID_7727_">
				<path id="XMLID_7728_" fill="#FFFFFF" d="M-165.8,210.6c0,0,0.2-0.1,0.4-0.4c0.3-0.3,0.7-0.6,1.3-1c1.2-0.7,3.2-1.5,5.7-1.6
					c2.5-0.2,5.4,0.3,8.2,1.6c2.8,1.3,5.4,3.5,7.7,6c2.2,2.5,4.1,5.2,5.9,7.7c1.7,2.5,3.3,4.9,4.8,6.8c1.5,1.9,2.8,3.3,3.8,4.3
					c1,0.9,1.7,1.4,1.7,1.5c0,0.1,0.6,0.5,1.7,1.4c0.5,0.4,1.2,0.8,2,1.3c0.4,0.3,0.8,0.5,1.3,0.7s1,0.4,1.5,0.7
					c4.2,1.7,10.5,2.4,16.6,1.2c6.1-1.1,11.9-3.7,16.1-5.8c2.1-1,3.9-2,5.1-2.6c1.2-0.6,1.9-1,1.9-1s-0.7,0.4-1.8,1.1
					c-1.2,0.7-2.9,1.7-4.9,2.9c-4.1,2.3-9.8,5.3-16,6.8c-6.2,1.6-13,1.3-17.7-0.3c-0.6-0.2-1.2-0.4-1.7-0.6s-1-0.4-1.5-0.7
					c-0.9-0.5-1.7-0.9-2.4-1.3c-1.2-0.9-2-1.4-2-1.4s-0.7-0.6-1.8-1.7c-1-1.1-2.5-2.7-3.9-4.8c-2.9-4.1-5.8-10-9.8-15
					c-2-2.5-4.4-4.7-7-6.1s-5.4-2-7.8-2c-2.4,0-4.4,0.6-5.6,1.3c-0.6,0.3-1.1,0.6-1.4,0.9C-165.6,210.4-165.8,210.6-165.8,210.6z"/>
			</g>
		</g>
		<g id="XMLID_7723_">
			<g id="XMLID_7724_">
				<path id="XMLID_7725_" fill="#FFFFFF" d="M-162.2,206.4c0,0,0.1-0.1,0.4-0.3c0.2-0.2,0.6-0.6,1-0.9c0.9-0.7,2.4-1.7,4.3-2.4
					c1.9-0.7,4.3-1.2,6.9-1.3c2.6-0.1,5.3,0.3,8,1c5.3,1.5,10.2,4.2,13.8,6.1c1.8,1,3.3,1.8,4.4,2.3c1.1,0.5,1.7,0.9,1.7,0.9
					s0.6,0.3,1.7,0.9c1,0.5,2.4,1.4,4.2,2.2c3.5,1.8,8.4,3.6,13.4,5.1c5,1.4,10.2,2.3,14.1,2.7c1,0.1,1.9,0.2,2.7,0.2
					s1.5,0.1,2.1,0.1c1.1,0.1,1.8,0.1,1.8,0.1s-0.7,0-1.8,0c-0.6,0-1.3,0-2.1,0s-1.7,0-2.7-0.1c-3.9-0.1-9.2-0.7-14.4-1.8
					c-5.2-1.2-10.3-2.7-14-4.2c-1.9-0.7-3.4-1.5-4.5-1.9c-1.1-0.5-1.7-0.8-1.8-0.8c0,0-0.7-0.4-1.7-1c-1.1-0.6-2.5-1.5-4.3-2.6
					c-3.5-2.2-8-5.1-13-6.9c-2.5-0.9-5.1-1.4-7.6-1.5s-4.8,0.2-6.7,0.8c-1.9,0.6-3.4,1.4-4.4,2.1c-0.5,0.3-0.8,0.6-1.1,0.8
					C-162.1,206.3-162.2,206.4-162.2,206.4z"/>
			</g>
		</g>
		<g id="XMLID_7720_">
			<g id="XMLID_7721_">
				<path id="XMLID_7722_" fill="#FFFFFF" d="M-181.6,231.3c0,0,0,0.7-0.1,2c0.1,1.2,0.1,3,0.6,5.1c0.8,4.2,3.3,9.5,7.1,13.6
					c3.8,4.2,8.9,6.8,12.9,8c1,0.3,1.9,0.6,2.8,0.8c0.8,0.1,1.6,0.3,2.2,0.4c1.2,0.2,1.9,0.3,2,0.3c0,0,0.8,0.1,1.9,0.3
					c0.3,0,0.6,0.1,1,0.1s0.8,0,1.2,0c0.8,0,1.8,0.1,2.8,0.1c4.1-0.1,9.5-1.1,14.5-3.4c5-2.2,9.5-5.5,12.6-8.3
					c0.8-0.7,1.4-1.4,2.1-2c0.6-0.6,1.1-1.2,1.5-1.6c0.8-0.9,1.3-1.4,1.3-1.4s-0.4,0.5-1.2,1.5c-0.4,0.5-0.8,1.1-1.4,1.7
					c-0.6,0.6-1.2,1.3-1.9,2.1c-2.9,3-7.3,6.6-12.3,9.3s-10.7,4.2-15,4.5c-1.1,0.1-2.1,0.1-3,0.1c-0.4,0-0.9,0-1.3,0
					c-0.4,0-0.7,0-1.1-0.1c-1.3-0.1-2.1-0.1-2.1-0.1c-0.1,0-0.8-0.1-2.1-0.4c-0.7-0.2-1.4-0.3-2.3-0.6c-0.9-0.3-1.8-0.6-2.9-1
					c-4.2-1.6-9.5-4.7-13.2-9.4c-3.8-4.5-5.9-10.2-6.5-14.4c-0.4-2.1-0.3-4-0.3-5.2C-181.6,232-181.6,231.3-181.6,231.3z"/>
			</g>
		</g>
		<g id="XMLID_7717_">
			<g id="XMLID_7718_">
				<path id="XMLID_7719_" fill="#FFFFFF" d="M-178.4,233.5c0,0,0.1,0.6,0.2,1.6c0.1,0.5,0.1,1.1,0.3,1.8c0.2,0.7,0.4,1.4,0.6,2.2
					c1.1,3.2,3.5,7.2,7,10c3.4,2.9,7.6,4.5,10.9,5.2c0.8,0.2,1.6,0.3,2.2,0.4c0.7,0.1,1.3,0.1,1.8,0.2c1,0.1,1.6,0.1,1.6,0.1
					s0.6,0,1.6,0.1c0.5,0.1,1.1,0.1,1.7,0.1c0.7,0,1.4,0,2.2,0c3.2-0.1,7.5-1,11.6-2.6s7.9-3.8,10.7-5.7c1.4-0.9,2.5-1.7,3.2-2.4
					c0.8-0.6,1.2-0.9,1.2-0.9s-0.4,0.4-1.1,1c-0.7,0.7-1.8,1.6-3.1,2.6c-2.6,2.1-6.3,4.7-10.3,6.6c-4,2-8.5,3.3-12,3.7
					c-0.9,0.1-1.7,0.2-2.4,0.2c-0.7,0.1-1.3,0.1-1.9,0.1c-1,0-1.7,0-1.7,0s-0.7,0-1.7-0.2c-0.5-0.1-1.2-0.2-1.9-0.3
					c-0.7-0.2-1.5-0.4-2.4-0.6c-3.4-1-7.9-3.2-11.2-6.5c-3.4-3.3-5.6-7.6-6.4-10.9c-0.2-0.8-0.3-1.6-0.5-2.3
					c-0.1-0.7-0.1-1.3-0.1-1.8C-178.4,234.1-178.4,233.5-178.4,233.5z"/>
			</g>
		</g>
		<g id="XMLID_7714_">
			<g id="XMLID_7715_">
				<path id="XMLID_7716_" fill="#FFFFFF" d="M-191.8,256.4c0,0-0.2,0.5-0.5,1.4c-0.2,0.9-0.6,2.2-0.7,3.8
					c-0.2,3.2,0.9,7.4,3.3,10.8c2.4,3.4,6.1,5.4,9,6.4c0.7,0.2,1.4,0.4,2,0.6c0.6,0.1,1.2,0.2,1.6,0.2c0.9,0.2,1.4,0.2,1.5,0.2
					c0,0,0.6,0.1,1.4,0.2c0.4,0.1,1,0.1,1.6,0.1c0.6,0,1.3,0,2.1,0c3-0.1,7-1.1,10.6-3c3.6-1.8,6.9-4.5,9.1-6.6
					c0.5-0.6,1-1.1,1.5-1.5c0.4-0.5,0.8-0.9,1.1-1.2c0.6-0.7,0.9-1.1,0.9-1.1s-0.3,0.4-0.8,1.2c-0.3,0.4-0.6,0.8-1,1.3
					s-0.9,1-1.4,1.6c-2,2.4-5.1,5.3-8.7,7.6c-3.6,2.3-7.8,3.8-11.1,4.2c-0.8,0.1-1.6,0.1-2.3,0.2c-0.7,0.1-1.3,0.1-1.8,0.1
					c-1,0-1.6-0.1-1.6-0.1s-0.6,0-1.6-0.3c-0.5-0.1-1.1-0.3-1.8-0.4c-0.7-0.2-1.4-0.5-2.2-0.8c-3.1-1.3-7.1-3.9-9.4-7.8
					c-2.4-3.8-3-8.4-2.6-11.6c0.2-1.6,0.7-2.9,1-3.8C-192.1,256.8-191.8,256.4-191.8,256.4z"/>
			</g>
		</g>
		<g id="XMLID_7711_">
			<g id="XMLID_7712_">
				<path id="XMLID_7713_" fill="#FFFFFF" d="M-154.4,228.4c0,0-0.3,0.3-0.8,0.8c-0.3,0.3-0.6,0.6-0.9,1c-0.4,0.4-0.8,0.8-1.2,1.3
					c-1.7,1.9-3.6,4.8-5.1,7.8c-1.4,3.1-2.5,6.3-2.9,8.7c-0.3,1.2-0.3,2.3-0.5,3c-0.1,0.7-0.1,1.2-0.1,1.2s-0.1,0.4-0.2,1.2
					c-0.1,0.7-0.3,1.7-0.3,2.9c0,0.6-0.1,1.3-0.1,2c0,0.7,0.1,1.4,0.1,2.2c0,0.4,0,0.8,0,1.2c0.1,0.4,0.1,0.8,0.2,1.2
					c0.1,0.8,0.2,1.6,0.3,2.4c0.6,3.2,1.7,6.3,2.8,8.6c0.5,1.2,1.1,2,1.4,2.7c0.4,0.6,0.6,1,0.6,1s-0.2-0.3-0.7-0.9
					c-0.4-0.6-1.1-1.4-1.7-2.5c-1.3-2.1-2.8-5.2-3.8-8.4c-0.3-0.8-0.4-1.6-0.6-2.5c-0.1-0.4-0.2-0.8-0.3-1.2s-0.1-0.8-0.2-1.2
					c-0.1-0.8-0.2-1.6-0.3-2.3c0-0.7-0.1-1.4-0.1-2.1c-0.1-1.3,0-2.4,0-3.2s0.1-1.2,0.1-1.3c0,0,0.1-0.5,0.3-1.3
					c0.2-0.8,0.4-1.9,0.8-3.2c0.8-2.6,2.2-5.8,4-8.8c1.9-2.9,4.1-5.6,6.1-7.4c0.4-0.5,0.9-0.9,1.3-1.2c0.4-0.3,0.8-0.6,1.1-0.9
					C-154.7,228.7-154.4,228.4-154.4,228.4z"/>
			</g>
		</g>
		<g id="XMLID_7708_">
			<g id="XMLID_7709_">
				<path id="XMLID_7710_" fill="#FFFFFF" d="M-232.5,232.4c0,0,0.2,0.6,0.4,1.5c0.1,0.5,0.3,1.1,0.5,1.7c0.1,0.3,0.2,0.7,0.3,1.1
					c0.2,0.4,0.3,0.7,0.5,1.1c0.3,0.8,0.7,1.7,1.1,2.6c0.4,0.9,1,1.8,1.5,2.7c1,1.9,2.5,3.7,3.8,5.5c3,3.5,6.5,6.4,9.4,8.1
					c0.7,0.5,1.4,0.8,2,1.1s1.2,0.6,1.6,0.8c0.4,0.2,0.8,0.4,1.1,0.5c0.3,0.1,0.4,0.1,0.4,0.2c0,0,0.6,0.3,1.4,0.7
					c0.9,0.4,2.1,1,3.7,1.5c0.8,0.2,1.6,0.5,2.5,0.8c0.9,0.2,1.9,0.4,2.9,0.6c0.5,0.1,1,0.2,1.6,0.3c0.5,0,1.1,0.1,1.6,0.1
					c1.1,0.1,2.2,0.2,3.3,0.2c1.1,0,2.2-0.1,3.3-0.1h0.8l0.8-0.1c0.5-0.1,1.1-0.2,1.6-0.2c2.1-0.2,3.9-0.8,5.6-1.3
					c0.8-0.2,1.5-0.5,2.2-0.8c0.6-0.3,1.2-0.5,1.6-0.7c0.9-0.4,1.4-0.6,1.4-0.6s-0.5,0.3-1.4,0.7c-0.4,0.2-1,0.5-1.6,0.8
					c-0.6,0.3-1.3,0.7-2.1,0.9c-1.6,0.6-3.4,1.4-5.5,1.8c-0.5,0.1-1,0.3-1.6,0.4l-0.8,0.2l-0.8,0.1c-1.1,0.1-2.3,0.3-3.4,0.4
					c-1.1,0.1-2.3,0-3.4,0.1c-0.6,0-1.1,0-1.7,0c-0.6-0.1-1.1-0.1-1.6-0.2c-1.1-0.1-2.1-0.2-3.1-0.4c-1-0.2-1.9-0.4-2.8-0.6
					c-1.7-0.3-3.1-0.9-4.1-1.2c-1-0.4-1.6-0.6-1.6-0.6s-0.2-0.1-0.4-0.2c-0.3-0.1-0.6-0.4-1.1-0.6c-0.5-0.3-1-0.6-1.7-1
					c-0.6-0.4-1.4-0.8-2.1-1.4c-3-2.1-6.4-5.5-9.2-9.3c-1.3-2-2.6-3.9-3.5-6c-0.4-1-1-1.9-1.3-2.9c-0.3-1-0.6-1.8-0.9-2.7
					c-0.1-0.4-0.3-0.8-0.4-1.2c-0.1-0.4-0.2-0.8-0.2-1.1c-0.1-0.7-0.3-1.3-0.4-1.8C-232.3,233-232.5,232.4-232.5,232.4z"/>
			</g>
		</g>
		<g id="XMLID_7705_">
			<g id="XMLID_7706_">
				<path id="XMLID_7707_" fill="#FFFFFF" d="M-221.9,210.3c0,0,0,0.5,0.1,1.3c0,0.4,0.1,0.9,0.1,1.5c0,0.3,0,0.6,0.1,0.9
					c0.1,0.3,0.1,0.7,0.2,1c0.4,2.9,1.5,6.6,3.1,10.1c1.7,3.4,4,6.5,6,8.5c0.4,0.6,1,1,1.4,1.3c0.4,0.4,0.8,0.7,1.1,1
					c0.6,0.6,1,0.9,1.1,0.9c0,0,0.4,0.3,1,0.9c0.6,0.5,1.5,1.3,2.7,2c0.6,0.4,1.2,0.8,1.9,1.2c0.7,0.4,1.4,0.7,2.2,1.1
					c0.4,0.2,0.8,0.4,1.2,0.6s0.8,0.3,1.3,0.5c0.9,0.3,1.7,0.7,2.6,1c1.8,0.5,3.6,1,5.3,1.2c1.7,0.3,3.4,0.3,4.8,0.4
					c0.7,0.1,1.3,0,1.9-0.1c0.6,0,1.1-0.1,1.5-0.1c0.8-0.1,1.3-0.1,1.3-0.1s-0.5,0.1-1.3,0.2c-0.4,0.1-0.9,0.2-1.5,0.3
					c-0.6,0.1-1.2,0.2-1.9,0.2c-1.4,0.1-3.1,0.3-4.9,0.1c-1.8,0-3.7-0.4-5.6-0.7c-0.9-0.2-1.9-0.5-2.8-0.7c-0.5-0.1-0.9-0.3-1.4-0.4
					c-0.4-0.2-0.9-0.3-1.3-0.5c-0.8-0.3-1.7-0.7-2.5-1c-0.7-0.4-1.5-0.8-2.1-1.1c-1.3-0.7-2.3-1.4-3.1-1.9c-0.7-0.5-1.2-0.8-1.2-0.8
					s-0.4-0.4-1.1-1c-0.3-0.3-0.7-0.7-1.1-1.2c-0.4-0.5-0.9-0.9-1.4-1.6c-1.9-2.4-4-5.9-5.5-9.6c-1.3-3.8-2.1-7.6-2.2-10.6
					c0-0.4-0.1-0.7-0.1-1s0-0.7,0-1c0-0.6,0-1.1,0.1-1.5C-221.9,210.8-221.9,210.3-221.9,210.3z"/>
			</g>
		</g>
		<g id="XMLID_7702_">
			<g id="XMLID_7703_">
				<path id="XMLID_7704_" fill="#FFFFFF" d="M-217,215.8c0,0,0.1,0.3,0.4,0.9c0.3,0.6,0.5,1.4,1,2.4c0.9,1.9,2.4,4.4,4.2,6.6
					c1.8,2.2,3.9,4.1,5.5,5.5c0.8,0.7,1.6,1.2,2.1,1.5c0.5,0.4,0.8,0.6,0.8,0.6s0.3,0.2,0.8,0.6c0.5,0.4,1.1,1,2,1.5
					c1.6,1.3,4,2.6,6.5,3.8c2.5,1.1,5.2,1.9,7.2,2.3c1,0.2,1.9,0.3,2.5,0.4s1,0.1,1,0.1s-0.3,0-1,0c-0.6,0-1.5,0-2.5-0.1
					c-2.1-0.1-4.9-0.6-7.7-1.4c-2.7-0.9-5.4-1.9-7.3-3c-1-0.5-1.7-1-2.3-1.3c-0.6-0.3-0.9-0.6-0.9-0.6s-0.3-0.3-0.8-0.7
					c-0.5-0.5-1.2-1.1-2-1.9c-1.6-1.6-3.5-3.9-5-6.4s-2.8-5.2-3.4-7.3c-0.4-1-0.6-1.9-0.7-2.5C-216.9,216.2-217,215.8-217,215.8z"/>
			</g>
		</g>
		<g id="XMLID_7699_">
			<g id="XMLID_7700_">
				<path id="XMLID_7701_" fill="#FFFFFF" d="M-240.5,215c0,0,1.1,1.6,2.8,4.1s4,5.7,6.3,8.8c2.4,3.1,5,6.1,7.1,8.2
					c1,1.1,2,1.9,2.6,2.5c0.6,0.6,1,0.9,1,1c0,0,0.4,0.4,1,1c0.6,0.6,1.4,1.5,2.5,2.4c0.5,0.5,1.1,1,1.7,1.5c0.6,0.5,1.3,1,2.1,1.5
					c0.4,0.3,0.7,0.5,1.1,0.8c0.4,0.3,0.8,0.5,1.2,0.7c0.8,0.5,1.6,1,2.4,1.5c1.7,0.8,3.4,1.8,5.1,2.3c1.6,0.7,3.3,1.1,4.7,1.4
					c0.7,0.2,1.3,0.3,1.9,0.4c0.6,0.1,1.1,0.1,1.5,0.2c0.8,0.1,1.3,0.2,1.3,0.2s-0.5,0-1.3-0.1c-0.4,0-0.9,0-1.5-0.1
					c-0.6,0-1.3,0-2-0.2c-1.4-0.2-3.1-0.4-4.9-1c-1.8-0.4-3.6-1.2-5.4-1.9c-0.9-0.4-1.8-0.9-2.6-1.3c-0.4-0.2-0.9-0.4-1.3-0.6
					c-0.4-0.2-0.8-0.5-1.2-0.7c-0.8-0.5-1.6-0.9-2.3-1.4c-0.7-0.5-1.3-1-2-1.4c-1.2-0.8-2.2-1.7-2.9-2.2c-0.7-0.6-1.1-0.9-1.1-0.9
					s-0.4-0.4-1-1.1c-0.6-0.7-1.5-1.6-2.4-2.8c-1.9-2.4-4.3-5.6-6.4-9c-2.1-3.4-4.1-6.8-5.5-9.4C-239.6,216.7-240.5,215-240.5,215z"
					/>
			</g>
		</g>
		<g id="XMLID_7696_">
			<g id="XMLID_7697_">
				<path id="XMLID_7698_" fill="#FFFFFF" d="M-237.7,215.4c0,0,0.1-0.7,0.4-1.9c0.3-1.2,0.9-2.8,2.1-4.6c1.2-1.7,2.9-3.6,5.1-5
					c2.2-1.5,4.8-2.6,7.6-3.3c2.8-0.7,5.6-0.9,8.3-0.9s5.1,0.3,7.2,0.6s3.8,0.7,5.1,0.9c1.2,0.2,2,0.4,2,0.4c0.1,0,0.7,0.2,1.9,0.6
					c1.2,0.4,2.8,0.9,4.7,1.6c3.8,1.5,8.9,3.6,13.5,6.3c4.8,2.6,9.1,5.7,12.3,8.1c1.6,1.2,2.8,2.4,3.7,3.1c0.9,0.8,1.4,1.2,1.4,1.2
					s-0.5-0.4-1.5-1.1c-1-0.7-2.3-1.7-3.9-2.8c-3.3-2.2-7.9-5-12.7-7.2c-4.8-2.4-9.8-4-13.7-5.2c-1.9-0.6-3.6-0.9-4.7-1.2
					c-1.1-0.3-1.8-0.5-1.9-0.5c0,0-0.7-0.2-1.9-0.5c-1.2-0.3-2.8-0.8-4.9-1.2c-2-0.4-4.4-0.8-6.9-1c-2.5-0.2-5.2-0.2-7.9,0.3
					s-5.2,1.4-7.4,2.7c-2.2,1.2-3.9,3-5.2,4.5c-1.2,1.6-2,3.2-2.3,4.3C-237.5,214.7-237.7,215.4-237.7,215.4z"/>
			</g>
		</g>
		<g id="XMLID_7693_">
			<g id="XMLID_7694_">
				<path id="XMLID_7695_" fill="#FFFFFF" d="M-227.2,208.8c0,0,0.5-0.1,1.4-0.3c0.9-0.1,2.1-0.5,3.6-0.7c3-0.5,7.1-0.7,11.3-0.6
					c4.1,0.2,8.2,0.9,11.3,1.6c1.5,0.3,2.8,0.8,3.7,1s1.4,0.4,1.5,0.4c0,0,0.5,0.2,1.4,0.6c0.8,0.4,2,0.9,3.3,1.6
					c2.7,1.3,6.1,3.6,9.3,5.9c3.2,2.5,6,5.2,8,7.5c1,1.1,1.7,2.1,2.3,2.8c0.5,0.7,0.8,1.1,0.8,1.1s-0.3-0.4-0.9-1
					c-0.6-0.6-1.4-1.5-2.5-2.5c-2.1-2-5.2-4.5-8.5-6.6c-3.3-2-6.8-3.9-9.5-4.9c-1.3-0.6-2.5-1-3.3-1.3c-0.8-0.3-1.3-0.5-1.3-0.5
					s-0.5-0.2-1.4-0.5c-0.8-0.3-2-0.8-3.5-1.3c-2.9-0.9-6.8-1.9-10.8-2.5c-4-0.5-8.1-0.6-11.1-0.4c-1.5,0-2.8,0.3-3.7,0.3
					C-226.7,208.7-227.2,208.8-227.2,208.8z"/>
			</g>
		</g>
		<g id="XMLID_7690_">
			<g id="XMLID_7691_">
				<path id="XMLID_7692_" fill="#FFFFFF" d="M-214.6,206.7c0,0,0.1-0.6,0.4-1.6s0.8-2.5,1.5-4.2c1.5-3.3,4.4-7.5,8.3-10.6
					c3.9-3.2,8.7-5.3,12.4-5.9c0.5-0.1,0.9-0.2,1.4-0.3c0.4-0.1,0.8-0.1,1.2-0.2c0.8-0.1,1.5-0.2,2-0.2c1.1-0.1,1.8-0.1,1.8-0.1
					s0.7,0,1.8,0.1s2.6,0.2,4.4,0.4c3.6,0.3,8.3,1.1,12.9,1c4.7,0,9.3-0.9,12.5-2.5c1.6-0.8,2.8-1.6,3.6-2.2
					c0.8-0.7,1.2-1.1,1.2-1.1s-0.4,0.4-1.1,1.2c-0.8,0.7-1.9,1.7-3.5,2.6c-3.1,1.8-7.8,3.2-12.6,3.5c-4.8,0.4-9.6,0-13.1-0.1
					c-1.8-0.1-3.3,0-4.3,0s-1.6,0.1-1.7,0.1c0,0-0.7,0-1.7,0c-0.5,0-1.2,0.1-1.9,0.1c-0.4,0-0.8,0-1.2,0.1c-0.4,0.1-0.8,0.1-1.3,0.2
					c-3.5,0.4-8.1,1.9-12,4.7c-4,2.7-7,6.5-8.8,9.7c-0.9,1.6-1.5,3-1.8,4C-214.5,206.1-214.6,206.7-214.6,206.7z"/>
			</g>
		</g>
		<g id="XMLID_7687_">
			<g id="XMLID_7688_">
				<path id="XMLID_7689_" fill="#FFFFFF" d="M-215.9,202.9c0,0,0-0.5,0-1.4c0-0.9,0.1-2.2,0.4-3.8s0.8-3.4,1.7-5.2
					c0.8-1.8,1.9-3.7,3.3-5.4c2.7-3.5,6.4-6,9.5-7.3c1.6-0.6,2.9-1.1,3.9-1.3c1-0.3,1.5-0.4,1.6-0.4c0,0,0.6-0.1,1.6-0.1
					c0.5-0.1,1.1,0,1.7-0.1c0.7,0,1.4,0,2.2,0c3.2,0.1,7.3,0.6,11.3,1.2c4,0.5,8.1,0.9,11.1,0.8c1.5-0.1,2.8-0.2,3.7-0.3
					c0.9-0.1,1.4-0.2,1.4-0.2s-0.5,0.1-1.4,0.3c-0.9,0.2-2.1,0.5-3.6,0.7c-3.1,0.4-7.2,0.4-11.3,0.2c-4.1-0.2-8.2-0.3-11.2-0.2
					c-0.8,0-1.4,0.1-2,0.2c-0.6,0.1-1.1,0.1-1.6,0.2c-0.9,0.1-1.4,0.2-1.4,0.2s-0.6,0.1-1.4,0.2c-0.9,0.1-2.1,0.4-3.6,0.8
					c-2.9,0.9-6.5,2.9-9.3,6c-1.4,1.5-2.6,3.2-3.6,4.9c-0.9,1.7-1.6,3.4-2,4.9s-0.6,2.8-0.7,3.7
					C-215.9,202.3-215.9,202.9-215.9,202.9z"/>
			</g>
		</g>
		<g id="XMLID_7684_">
			<g id="XMLID_7685_">
				<path id="XMLID_7686_" fill="#FFFFFF" d="M-212.4,151.7c0,0,0.5-0.3,1.4-0.7c0.4-0.2,1-0.5,1.6-0.8c0.3-0.2,0.6-0.3,1-0.5
					c0.4-0.1,0.7-0.3,1.1-0.4c0.8-0.3,1.6-0.6,2.5-1c0.9-0.4,1.9-0.5,2.9-0.8c2-0.6,4.3-0.8,6.5-1.2c4.5-0.3,9.1,0.1,12.5,0.8
					c0.9,0.1,1.6,0.4,2.3,0.6c0.7,0.2,1.3,0.4,1.8,0.6c1,0.3,1.6,0.5,1.6,0.6c0,0,0.6,0.3,1.5,0.8s2.2,1.1,3.5,2.1
					c0.7,0.5,1.4,1,2.2,1.6c0.7,0.6,1.5,1.3,2.3,2c0.4,0.3,0.8,0.7,1.2,1.1s0.7,0.8,1.1,1.2c0.7,0.8,1.5,1.6,2.2,2.5
					c0.6,0.9,1.3,1.8,1.9,2.7l0.5,0.7l0.4,0.7c0.3,0.5,0.5,0.9,0.8,1.4c1.1,1.7,1.8,3.5,2.4,5c0.4,0.7,0.6,1.5,0.7,2.1
					c0.2,0.6,0.4,1.2,0.5,1.6c0.3,0.9,0.4,1.4,0.4,1.4s-0.2-0.5-0.5-1.4c-0.2-0.4-0.4-1-0.6-1.6c-0.2-0.6-0.5-1.3-0.9-2
					c-0.8-1.4-1.6-3.1-2.8-4.7c-0.3-0.4-0.6-0.8-0.9-1.3l-0.4-0.6l-0.5-0.6c-0.7-0.8-1.4-1.6-2.1-2.4c-0.7-0.8-1.5-1.5-2.3-2.2
					c-0.4-0.4-0.8-0.7-1.1-1.1c-0.4-0.3-0.8-0.6-1.2-0.9c-0.8-0.6-1.6-1.2-2.3-1.7c-0.8-0.5-1.5-0.9-2.2-1.3
					c-1.3-0.9-2.6-1.3-3.4-1.7c-0.9-0.4-1.4-0.6-1.4-0.6s-0.5-0.3-1.4-0.6c-0.4-0.2-1-0.4-1.6-0.6s-1.3-0.6-2.1-0.7
					c-3.1-1-7.4-1.7-11.8-1.8c-2.2,0.2-4.4,0.2-6.4,0.6c-1,0.2-2,0.3-2.9,0.6c-0.9,0.3-1.8,0.5-2.6,0.8c-0.4,0.1-0.8,0.2-1.1,0.3
					c-0.3,0.1-0.7,0.3-1,0.4c-0.6,0.3-1.2,0.5-1.6,0.7C-211.9,151.5-212.4,151.7-212.4,151.7z"/>
			</g>
		</g>
		<g id="XMLID_7681_">
			<g id="XMLID_7682_">
				<path id="XMLID_7683_" fill="#FFFFFF" d="M-201.7,148.9c0,0,0.4,0,1.1-0.1c0.7,0,1.7-0.2,3-0.1c2.5,0,5.8,0.3,9,1.1
					c3.2,0.8,6.4,2.1,8.6,3.3c1.1,0.6,2,1.2,2.7,1.6c0.7,0.4,1,0.7,1,0.7s0.3,0.3,0.9,0.8c0.5,0.5,1.3,1.2,2.1,2.1
					c0.4,0.5,0.9,1,1.3,1.5c0.4,0.6,0.9,1.2,1.3,1.8c0.2,0.3,0.5,0.6,0.7,0.9s0.4,0.7,0.6,1c0.4,0.7,0.9,1.4,1.3,2.1
					c1.6,2.8,2.7,5.9,3.3,8.2c0.4,1.1,0.5,2.1,0.6,2.8c0.1,0.7,0.2,1.1,0.2,1.1s-0.1-0.4-0.3-1c-0.2-0.6-0.5-1.6-1-2.7
					c-0.9-2.2-2.3-5-4.1-7.5c-0.4-0.6-1-1.2-1.4-1.8c-0.2-0.3-0.5-0.6-0.7-0.9c-0.3-0.3-0.5-0.5-0.8-0.8c-0.5-0.5-1-1-1.4-1.5
					c-0.5-0.4-1-0.9-1.4-1.2c-0.8-0.8-1.7-1.3-2.2-1.8c-0.6-0.4-0.9-0.6-0.9-0.7c0,0-0.3-0.3-0.9-0.7c-0.6-0.4-1.3-1.1-2.3-1.7
					c-2-1.4-4.8-2.9-7.8-4c-3-1.1-6.2-1.8-8.6-2c-1.2-0.2-2.2-0.1-2.9-0.2C-201.3,148.9-201.7,148.9-201.7,148.9z"/>
			</g>
		</g>
		<g id="XMLID_7678_">
			<g id="XMLID_7679_">
				<path id="XMLID_7680_" fill="#FFFFFF" d="M-195.9,151.2c0,0,0.8,0.3,2.1,0.8c1.3,0.4,2.9,1.4,4.5,2.2c1.5,1,3.1,2,4.1,3
					c1.1,0.9,1.8,1.5,1.8,1.6c0,0,0.5,0.8,1.3,2c0.2,0.3,0.4,0.6,0.6,0.9c0.2,0.4,0.4,0.7,0.5,1.1c0.4,0.8,0.8,1.6,1.1,2.4
					c0.6,1.7,1.3,3.3,1.5,4.7c0.3,1.3,0.5,2.1,0.5,2.1s-0.4-0.8-0.9-2c-0.5-1.2-1.5-2.7-2.3-4.1c-0.5-0.7-1-1.4-1.5-2
					c-0.2-0.3-0.5-0.6-0.7-0.9c-0.3-0.3-0.5-0.5-0.7-0.7c-0.9-0.9-1.5-1.5-1.5-1.6c0,0-0.5-0.7-1.4-1.8c-0.8-1.1-2-2.3-3.3-3.6
					c-1.4-1.1-2.7-2.3-3.8-3C-195.1,151.7-195.9,151.2-195.9,151.2z"/>
			</g>
		</g>
		<g id="XMLID_7675_">
			<g id="XMLID_7676_">
				<path id="XMLID_7677_" fill="#FFFFFF" d="M-162.9,138.6c0,0,0.2-0.1,0.6-0.4c0.4-0.3,0.9-0.6,1.6-0.9c1.5-0.7,3.8-1.3,6.6-1.2
					s6.1,0.8,9.3,2.1c0.8,0.3,1.6,0.7,2.4,1.1c0.8,0.5,1.6,0.9,2.4,1.4c0.8,0.5,1.6,0.9,2.4,1.4c0.8,0.5,1.5,1.1,2.3,1.6
					c6.2,4.3,11.6,9.6,15.4,13.7c2,2,3.6,3.8,4.7,5c1.1,1.2,1.8,1.9,1.9,2c0,0,0.7,0.8,1.7,2s2.6,2.9,4.3,5c3.6,4,8.7,9.1,14.5,13.2
					c2.9,2.1,6,3.9,9.1,5.2c3.1,1.4,6.1,2.3,8.7,2.8c2.6,0.5,4.9,0.6,6.4,0.6c1.6-0.1,2.5-0.1,2.5-0.1s-0.9,0.1-2.5,0.2
					s-3.8,0.1-6.5-0.3s-5.8-1.2-9-2.4c-3.2-1.2-6.4-2.9-9.5-4.9c-6.2-3.9-11.6-8.8-15.5-12.7c-1.9-2-3.5-3.6-4.6-4.8
					s-1.8-1.9-1.8-1.9c-0.1-0.1-2.5-3-6.2-7.2s-8.7-9.7-14.5-14.2c-0.7-0.6-1.4-1.2-2.2-1.7s-1.5-1-2.3-1.5s-1.5-1-2.3-1.5
					c-0.8-0.4-1.5-0.8-2.3-1.2c-3.1-1.5-6.2-2.3-9-2.5c-2.7-0.2-5,0.3-6.5,0.9c-0.7,0.3-1.3,0.6-1.7,0.8
					C-162.7,138.5-162.9,138.6-162.9,138.6z"/>
			</g>
		</g>
		<g id="XMLID_7672_">
			<g id="XMLID_7673_">
				<path id="XMLID_7674_" fill="#FFFFFF" d="M-156.2,137c0,0,0.8-0.4,2.2-1.1c1.5-0.6,3.6-1.4,6.3-1.8s5.9-0.5,9.3-0.1
					c3.4,0.5,7,1.4,10.4,2.9c3.4,1.4,6.6,3.2,9.4,5.3c2.8,2,5.3,4.1,7.4,5.9c1,0.9,2,1.8,2.8,2.6c0.8,0.8,1.5,1.5,2.1,2.1
					c1.2,1.2,1.8,1.8,1.9,1.9c0.1,0.1,2.4,2.8,5.9,6.9c3.5,4,8,9.3,13.4,13.8c2.7,2.3,5.5,4.3,8.3,6s5.6,2.9,8.1,3.7
					c2.5,0.9,4.6,1.2,6.1,1.5c1.5,0.2,2.4,0.2,2.4,0.2s-0.9,0-2.4-0.1c-1.5-0.2-3.7-0.4-6.3-1.2c-2.5-0.7-5.5-1.8-8.4-3.4
					c-2.9-1.5-5.9-3.5-8.8-5.6c-5.7-4.3-10.6-9.5-14.3-13.3c-3.7-3.8-6.2-6.4-6.2-6.5c0,0-0.7-0.8-1.8-2c-0.5-0.6-1.2-1.3-1.9-2.1
					c-0.8-0.8-1.6-1.7-2.6-2.6c-3.8-3.8-9.2-8.6-15.7-11.6c-3.2-1.5-6.6-2.7-9.9-3.3c-3.3-0.6-6.4-0.7-9.1-0.4
					c-2.7,0.3-4.8,1-6.3,1.5C-155.4,136.6-156.2,137-156.2,137z"/>
			</g>
		</g>
		<g id="XMLID_7669_">
			<g id="XMLID_7670_">
				<path id="XMLID_7671_" fill="#FFFFFF" d="M-126.4,135.4c0,0,0.7-0.1,1.8-0.3c0.6-0.1,1.3-0.2,2.1-0.2c0.4,0,0.8-0.1,1.3-0.1
					s0.9,0,1.4,0c2,0,4.4,0.3,6.9,0.8s5.1,1.4,7.6,2.5s4.9,2.4,7.1,3.8c2.1,1.4,4.1,2.9,5.6,4.3c1.6,1.4,2.8,2.6,3.7,3.5
					c0.9,0.9,1.3,1.4,1.4,1.5c0,0,0.4,0.6,1.2,1.6c0.7,1,1.7,2.3,2.7,4c0.5,0.9,1.1,1.8,1.7,2.7c0.5,1,1.1,2.1,1.7,3.2
					c0.3,0.5,0.6,1.1,0.9,1.7c0.3,0.6,0.5,1.2,0.8,1.7c0.5,1.2,1.1,2.4,1.6,3.6c2.1,4.8,3.8,9.7,5.1,13.4s2.1,6.1,2.1,6.1
					s-1-2.4-2.5-6c-1.5-3.6-3.6-8.3-6-12.9c-0.6-1.2-1.2-2.3-1.8-3.4c-0.3-0.6-0.6-1.1-0.9-1.7c-0.3-0.5-0.7-1.1-1-1.6
					c-0.6-1-1.3-2-1.9-3c-0.6-0.9-1.3-1.8-1.8-2.5c-1.1-1.6-2.2-2.8-2.9-3.7c-0.7-0.9-1.2-1.4-1.2-1.4s-0.4-0.6-1.2-1.5
					c-0.7-0.9-1.8-2.1-3.3-3.5c-1.4-1.4-3.1-2.9-5.1-4.4s-4.2-2.9-6.5-4.1c-2.4-1.2-4.8-2.2-7.2-2.9c-2.4-0.7-4.7-1.1-6.7-1.2
					c-0.5,0-1-0.1-1.4-0.1c-0.5,0-0.9,0-1.3,0c-0.8,0-1.5,0-2.1,0.1C-125.7,135.3-126.4,135.4-126.4,135.4z"/>
			</g>
		</g>
		<g id="XMLID_7666_">
			<g id="XMLID_7667_">
				<path id="XMLID_7668_" fill="#FFFFFF" d="M-124.4,138.6c0,0,0.4,0,1.2-0.1c0.4,0,0.9,0,1.4,0s1.2,0,1.8,0.1
					c2.7,0.3,6.2,1.2,9.5,2.9c3.3,1.6,6.3,3.8,8.3,5.7c1,0.9,1.9,1.8,2.4,2.4c0.6,0.6,0.9,1,0.9,1s0.3,0.4,0.7,1.1
					c0.5,0.7,1.1,1.6,1.8,2.7c1.4,2.3,3,5.5,4.4,8.7s2.6,6.5,3.5,8.9c0.9,2.5,1.4,4.1,1.4,4.1s-0.7-1.6-1.9-3.9
					c-1.1-2.3-2.7-5.4-4.3-8.5c-1.7-3-3.5-5.9-5.1-7.9c-0.7-1.1-1.5-1.8-2-2.4c-0.5-0.6-0.8-0.9-0.8-0.9s-0.3-0.4-0.8-1
					s-1.2-1.5-2.1-2.4c-1.8-1.9-4.4-4.3-7.3-6.2c-3-1.9-6.3-3.2-8.9-3.7c-0.6-0.2-1.2-0.3-1.8-0.3c-0.5-0.1-1-0.1-1.4-0.1
					C-124,138.6-124.4,138.6-124.4,138.6z"/>
			</g>
		</g>
		<g id="XMLID_7663_">
			<g id="XMLID_7664_">
				<path id="XMLID_7665_" fill="#FFFFFF" d="M-59.8,149.9c0,0,0.3,0.3,0.9,0.9c0.5,0.6,1.2,1.6,1.8,2.8c1.3,2.5,2.1,6.3,2,10.1
					c0.1,3.8-0.4,7.5-0.3,10.3c-0.1,1.4,0.1,2.5,0.1,3.3c0.1,0.8,0.1,1.3,0.1,1.3s-0.1,0.5,0,1.3c0.1,0.8,0.2,1.9,0.3,3.2
					c0.2,1.3,0.5,2.8,0.9,4.4c0.5,1.6,0.9,3.3,1.7,4.9c1.3,3.3,3.3,6.3,4.8,8.5c0.8,1.1,1.6,1.9,2.1,2.5c0.5,0.6,0.8,0.9,0.8,0.9
					s-0.3-0.3-0.9-0.8c-0.6-0.6-1.4-1.3-2.3-2.3c-1.8-2-4.1-4.9-5.8-8.2c-1-1.6-1.6-3.3-2.3-4.9c-0.6-1.6-1-3.2-1.4-4.6
					c-0.3-1.4-0.5-2.6-0.6-3.4c-0.2-0.8-0.1-1.3-0.2-1.4c0,0,0-0.5,0-1.4c0-0.9,0-2.1,0.2-3.5c0.2-2.9,1-6.5,1.3-10.2
					c0.4-3.6,0-7.3-1-9.9c-0.5-1.3-1.1-2.3-1.5-2.9C-59.5,150.3-59.8,149.9-59.8,149.9z"/>
			</g>
		</g>
		<g id="XMLID_7660_">
			<g id="XMLID_7661_">
				<path id="XMLID_7662_" fill="#FFFFFF" d="M7.5,172.8c0,0-0.1-0.1-0.3-0.3c-0.2-0.2-0.6-0.5-1-0.8c-0.9-0.6-2.4-1.4-4.3-1.6
					c-1.9-0.3-4.1-0.1-6.3,0.6c-1.1,0.4-2.2,0.9-3.2,1.6c-0.5,0.3-1,0.7-1.5,1.1c-0.5,0.4-1,0.8-1.4,1.2c-3.7,3.4-6.5,7.8-8.8,10.9
					c-1.1,1.6-2,2.9-2.7,3.9c-0.6,1-1,1.5-1,1.6c0,0-0.4,0.6-1.1,1.5c-0.7,0.9-1.5,2.2-2.5,3.8c-2,3.1-4.3,7.5-5.6,12.3
					c-1.3,4.7-1.5,9.8-0.7,13.4c0.4,1.8,0.8,3.3,1.3,4.3c0.4,1,0.6,1.6,0.6,1.6s-0.3-0.6-0.8-1.5c-0.6-1-1-2.4-1.6-4.2
					c-1-3.6-1.2-8.8-0.2-13.8s3.1-9.8,4.9-13.2c0.9-1.7,1.7-3.1,2.3-4.1c0.6-1,1-1.5,1-1.6c0,0,0.4-0.6,1.2-1.5
					c0.7-0.9,1.7-2.2,3-3.8c1.2-1.5,2.7-3.3,4.3-5.1c1.6-1.9,3.4-3.8,5.5-5.4c0.5-0.4,1.1-0.8,1.6-1.2c0.5-0.4,1.1-0.7,1.7-1
					c1.1-0.7,2.4-1.1,3.6-1.4c2.4-0.6,4.8-0.6,6.7-0.2c1.9,0.4,3.4,1.3,4.2,2c0.4,0.4,0.8,0.7,1,0.9C7.4,172.7,7.5,172.8,7.5,172.8z
					"/>
			</g>
		</g>
		<g id="XMLID_7657_">
			<g id="XMLID_7658_">
				<path id="XMLID_7659_" fill="#FFFFFF" d="M26.9,275c0,0-0.4,0.3-1.2,0.8c-0.8,0.4-2,1.1-3.6,1.5c-3.2,0.9-7.8,0.8-11.9-1
					c-2.1-0.9-4-2-5.6-3.5c-1.6-1.4-2.9-2.9-4-4.2c-0.5-0.7-0.9-1.3-1.3-1.9c-0.3-0.6-0.7-1.1-0.9-1.6c-0.5-0.9-0.8-1.4-0.8-1.4
					s-0.2-0.6-0.6-1.5s-0.7-2.2-1.2-3.8c-0.2-0.8-0.4-1.6-0.6-2.5C-5,255-5.1,254-5.3,253c-0.3-2-0.6-4-0.9-6.1
					c-0.3-2-0.7-4.1-1.3-5.9c-0.6-1.8-1.4-3.4-2.3-4.7c-0.9-1.3-1.8-2.2-2.5-2.8c-0.7-0.5-1.2-0.8-1.2-0.8s0.5,0.3,1.2,0.7
					c0.7,0.5,1.8,1.3,2.8,2.6c1,1.2,2,2.8,2.8,4.7c0.8,1.8,1.4,3.9,1.9,6c0.5,2,0.9,4.1,1.4,6c0.3,0.9,0.5,1.8,0.7,2.7
					c0.3,0.8,0.5,1.6,0.8,2.4c0.6,1.4,1,2.7,1.4,3.5s0.6,1.3,0.6,1.3s0.2,0.5,0.6,1.4c0.2,0.4,0.4,0.9,0.7,1.5
					c0.3,0.5,0.7,1.2,1.1,1.8c1.7,2.6,4.4,5.9,8.2,7.8c3.7,2,8.1,2.5,11.2,1.9c1.6-0.3,2.8-0.8,3.7-1.2
					C26.4,275.2,26.9,275,26.9,275z"/>
			</g>
		</g>
		<g id="XMLID_7654_">
			<g id="XMLID_7655_">
				<path id="XMLID_7656_" fill="#FFFFFF" d="M-1.8,187c0,0-0.4,0.3-1,0.8c-0.3,0.2-0.7,0.5-1.1,0.9c-0.2,0.2-0.4,0.4-0.7,0.5
					c-0.2,0.2-0.5,0.4-0.7,0.7c-2,1.8-4.3,4.5-6.2,7.5c-1.8,3-3.2,6.3-4,8.8c-0.4,1.3-0.6,2.4-0.8,3.1c-0.2,0.8-0.2,1.2-0.2,1.2
					s-0.1,0.5-0.3,1.2c-0.2,0.7-0.5,1.8-0.6,3c-0.1,0.6-0.2,1.3-0.3,2.1c0,0.7-0.1,1.5-0.1,2.3c0,0.4,0,0.8,0,1.2
					c0,0.4,0,0.8,0.1,1.2c0.1,0.8,0.1,1.7,0.2,2.6c0.4,3.4,1.3,6.8,2.3,9.2c0.2,0.6,0.5,1.2,0.7,1.6c0.2,0.5,0.4,0.9,0.6,1.2
					c0.3,0.7,0.5,1.1,0.5,1.1s-0.2-0.4-0.6-1c-0.2-0.3-0.4-0.7-0.7-1.2c-0.3-0.5-0.6-1-0.9-1.6c-1.2-2.3-2.5-5.7-3.3-9.1
					c-0.2-0.9-0.3-1.8-0.5-2.6c-0.1-0.4-0.1-0.9-0.2-1.3c0-0.4-0.1-0.9-0.1-1.3c-0.1-0.8-0.1-1.7-0.1-2.4c0-0.8,0-1.5,0.1-2.2
					c0-1.4,0.2-2.5,0.3-3.3c0.1-0.8,0.2-1.3,0.2-1.3s0.1-0.5,0.4-1.3c0.3-0.8,0.6-1.9,1.2-3.2c1.1-2.6,2.9-5.9,5.1-8.8
					c2.3-2.9,4.9-5.4,7.1-7c0.3-0.2,0.5-0.4,0.8-0.6s0.5-0.3,0.7-0.5c0.5-0.3,0.9-0.6,1.2-0.8C-2.2,187.2-1.8,187-1.8,187z"/>
			</g>
		</g>
		<g id="XMLID_7651_">
			<g id="XMLID_7652_">
				<path id="XMLID_7653_" fill="#FFFFFF" d="M16.1,194.4c0,0,0.1,0.4,0.4,1.1c0.1,0.3,0.3,0.8,0.4,1.2c0.2,0.5,0.4,1,0.5,1.6
					c0.7,2.4,1.2,5.7,1.3,9.1c0,3.4-0.4,6.8-1.1,9.3c-0.3,1.3-0.7,2.3-0.9,3c-0.2,0.7-0.4,1.2-0.4,1.2s-0.2,0.4-0.6,1.1
					s-0.8,1.6-1.6,2.6c-0.4,0.5-0.7,1.1-1.2,1.7c-0.5,0.6-0.9,1.1-1.4,1.7c-0.2,0.3-0.5,0.6-0.8,0.9s-0.6,0.6-0.9,0.9
					c-0.6,0.6-1.1,1.2-1.8,1.7c-2.5,2.2-5.2,4-7.4,5.1c-1,0.6-2,0.9-2.7,1.2c-0.6,0.3-1,0.4-1,0.4s0.3-0.2,1-0.6
					c0.6-0.4,1.5-0.8,2.5-1.5c2-1.3,4.5-3.4,6.6-5.7c0.5-0.6,1-1.2,1.5-1.8c0.2-0.3,0.5-0.6,0.7-0.9c0.2-0.3,0.4-0.6,0.6-0.9
					c0.4-0.6,0.8-1.2,1.2-1.8c0.3-0.6,0.6-1.2,0.9-1.7c0.6-1,0.9-1.9,1.2-2.6c0.3-0.6,0.4-1,0.4-1s0.2-0.4,0.5-1
					c0.3-0.7,0.7-1.6,1.1-2.7c0.8-2.3,1.6-5.4,2-8.7c0.2-3.2,0.1-6.5-0.3-9c-0.1-0.6-0.2-1.2-0.3-1.7c-0.1-0.5-0.2-0.9-0.3-1.3
					C16.2,194.8,16.1,194.4,16.1,194.4z"/>
			</g>
		</g>
		<g id="XMLID_7648_">
			<g id="XMLID_7649_">
				<path id="XMLID_7650_" fill="#FFFFFF" d="M30.6,246.4c0,0-0.2-0.3-0.6-0.8s-1-1.1-1.7-2c-1.3-1.7-2.9-4.1-4.3-6.7
					c-1.3-2.6-2.4-5.4-3.1-7.5c-0.4-1.1-0.6-2-0.7-2.6c-0.2-0.6-0.3-1-0.3-1.1c0,0,0-0.4-0.1-1.1c-0.1-0.6-0.2-1.6-0.2-2.6
					c-0.1-2.2,0.1-5.1,0.4-7.9c0.4-2.8,1.1-5.6,1.7-7.6c0.3-1,0.7-1.8,0.9-2.4c0.2-0.6,0.3-0.9,0.3-0.9s-0.1,0.3-0.2,0.9
					c-0.1,0.6-0.4,1.4-0.5,2.5c-0.4,2-0.7,4.8-0.7,7.6c0,2.8,0.2,5.5,0.6,7.5c0.1,1,0.3,1.9,0.5,2.5c0.1,0.6,0.2,0.9,0.2,1
					c0,0,0,0.4,0.1,1s0.2,1.5,0.4,2.5c0.4,2.1,1.1,4.8,2,7.5c1,2.6,2.2,5.2,3.4,7.1c0.5,0.9,1.1,1.7,1.4,2.2
					C30.4,246.1,30.6,246.4,30.6,246.4z"/>
			</g>
		</g>
		<g id="XMLID_7645_">
			<g id="XMLID_7646_">
				<path id="XMLID_7647_" fill="#FFFFFF" d="M41.7,230.1c0,0,0.1,0.3,0.2,0.8s0.3,1.2,0.4,2.1c0.3,1.7,0.4,4.1,0.1,6.5
					c-0.3,2.4-0.9,4.8-1.5,6.5c-0.3,0.9-0.7,1.6-0.9,2.1c-0.2,0.5-0.4,0.8-0.4,0.8s-0.2,0.3-0.5,0.7s-0.7,1.1-1.4,1.7
					c-1.1,1.4-2.9,3-4.8,4.4c-1.9,1.4-4,2.4-5.6,3c-0.8,0.3-1.5,0.5-2,0.7c-0.5,0.1-0.7,0.2-0.7,0.2s0.3-0.1,0.7-0.3
					c0.4-0.2,1.1-0.5,1.8-0.9c1.5-0.8,3.3-2.2,4.8-3.7c1.5-1.6,2.9-3.3,3.7-4.7c0.5-0.7,0.8-1.3,1-1.7s0.4-0.7,0.4-0.7
					s0.2-0.2,0.4-0.7c0.3-0.4,0.7-1,1.1-1.8c0.8-1.5,1.7-3.6,2.3-5.8c0.6-2.2,0.9-4.5,0.8-6.2c0.1-0.9-0.1-1.6-0.1-2.1
					C41.7,230.4,41.7,230.1,41.7,230.1z"/>
			</g>
		</g>
		<g id="XMLID_7642_">
			<g id="XMLID_7643_">
				<path id="XMLID_7644_" fill="#FFFFFF" d="M14.5,325.2c0,0,0-0.4-0.1-1.2c0-0.2-0.1-0.4-0.1-0.6s0-0.5,0.1-0.7
					c0-0.3,0-0.6,0.1-0.9c0.1-0.3,0.1-0.6,0.2-0.9c0.3-1.3,1-2.7,1.9-4.1c1-1.4,2.1-2.7,3.5-3.9c2.7-2.3,5.7-4.2,7.7-5.7
					c1.1-0.7,1.8-1.5,2.3-2s0.9-0.8,0.9-0.8s0.1-0.1,0.3-0.2c0.1-0.1,0.3-0.3,0.6-0.6c0.5-0.5,1.1-1.2,1.8-2.1
					c0.6-1,1.2-2.2,1.5-3.6c0.3-1.4,0.3-3,0.1-4.6c-0.2-1.6-0.7-3.2-1.3-4.6c-0.6-1.4-1.3-2.7-2-3.7c-0.3-0.5-0.7-1-1-1.4
					s-0.6-0.8-0.8-1c-0.5-0.6-0.7-0.9-0.7-0.9s0.3,0.3,0.8,0.8c0.3,0.2,0.6,0.6,0.9,1c0.4,0.4,0.7,0.8,1.1,1.3
					c0.8,1,1.6,2.2,2.4,3.6c0.7,1.4,1.4,3,1.9,4.7c0.4,1.7,0.6,3.5,0.4,5.2s-0.7,3.3-1.3,4.5c-0.6,1.2-1.3,2.2-1.9,2.8
					c-0.3,0.3-0.5,0.6-0.6,0.7c-0.2,0.1-0.3,0.2-0.3,0.2s-0.4,0.3-1.1,0.8s-1.6,1.2-2.7,1.9c-1.2,0.7-2.5,1.5-3.9,2.3
					c-0.7,0.4-1.4,0.8-2.1,1.3c-0.7,0.4-1.5,0.9-2.1,1.4c-1.4,1-2.6,2.1-3.6,3.3c-1,1.2-1.8,2.5-2.2,3.7c-0.1,0.3-0.2,0.6-0.3,0.9
					c-0.1,0.3-0.1,0.6-0.2,0.8c0,0.3-0.1,0.5-0.1,0.7s0,0.4,0,0.6C14.5,324.8,14.5,325.2,14.5,325.2z"/>
			</g>
		</g>
		<g id="XMLID_7639_">
			<g id="XMLID_7640_">
				<path id="XMLID_7641_" fill="#FFFFFF" d="M18.5,341.9c0,0,0-0.4-0.1-1.1c-0.1-0.7-0.2-1.8-0.3-3c0-0.6,0-1.3,0.1-2
					c0-0.4,0-0.7,0-1.1c0-0.4,0.1-0.8,0.2-1.2c0.1-0.8,0.2-1.6,0.4-2.4c0.2-0.8,0.5-1.6,0.7-2.5c1.1-3.3,2.9-6.3,4.5-8.4
					c0.7-1.1,1.5-1.9,2-2.5s0.8-0.9,0.8-1c0,0,0.4-0.3,0.9-0.8c0.6-0.5,1.3-1.2,2.3-2c1.9-1.6,4.5-3.6,7.1-5.5c2.6-2,5.1-4,6.9-5.6
					c0.9-0.8,1.6-1.5,2.1-2s0.8-0.8,0.8-0.8s-0.3,0.3-0.7,0.9c-0.5,0.5-1.1,1.4-1.9,2.3c-1.6,1.8-3.9,4.2-6.3,6.4
					c-2.3,2.3-4.7,4.5-6.4,6.2c-0.9,0.9-1.5,1.6-2,2.1s-0.8,0.8-0.8,0.9c0,0-0.3,0.3-0.9,0.8c-0.5,0.5-1.3,1.2-2.1,2.1
					c-1.7,1.8-3.6,4.4-5,7.4c-1.5,2.9-2,6.2-2.3,8.7c-0.1,1.2,0,2.3-0.1,3C18.5,341.5,18.5,341.9,18.5,341.9z"/>
			</g>
		</g>
		<g id="XMLID_7636_">
			<g id="XMLID_7637_">
				<path id="XMLID_7638_" fill="#FFFFFF" d="M52.3,297.2c0,0,0.2,0.4,0.5,1.2c0.4,0.8,0.7,1.9,1,3.4c0.3,1.4,0.2,3.2-0.3,5
					c-0.5,1.8-1.6,3.6-2.8,5.1c-2.4,3.1-5.3,5.8-7.2,7.9c-0.9,1.1-1.6,2-2.2,2.7c-0.4,0.7-0.7,1.1-0.7,1.1s-0.3,0.4-0.7,1
					c-0.5,0.6-1,1.6-1.6,2.8c-1.2,2.4-2.3,5.9-2.4,9.6c-0.2,3.7,0.6,7.3,1.6,9.9c0.2,0.7,0.5,1.2,0.8,1.7c0.2,0.5,0.5,1,0.7,1.3
					c0.4,0.7,0.7,1.1,0.7,1.1s-0.3-0.4-0.8-1c-0.3-0.3-0.5-0.7-0.8-1.2s-0.7-1-0.9-1.7c-1.3-2.5-2.5-6.2-2.7-10.1
					c-0.3-3.9,0.5-7.8,1.5-10.6c0.5-1.4,1.1-2.5,1.5-3.3s0.7-1.2,0.7-1.3c0,0,0.4-0.5,0.9-1.2c0.6-0.7,1.5-1.6,2.6-2.6
					c2.1-2.1,5.3-4.4,7.8-7.2c1.3-1.4,2.4-2.9,3-4.5c0.6-1.6,0.8-3.3,0.7-4.7c-0.1-1.4-0.4-2.6-0.7-3.4
					C52.4,297.7,52.3,297.2,52.3,297.2z"/>
			</g>
		</g>
		<g id="XMLID_7633_">
			<g id="XMLID_7634_">
				<path id="XMLID_7635_" fill="#FFFFFF" d="M50.4,239.7c0,0,0.5,0.3,1.3,0.8c0.4,0.2,0.9,0.6,1.4,1c0.6,0.4,1.2,0.8,1.8,1.4
					c1.3,1,2.6,2.4,4,4c1.3,1.6,2.6,3.4,3.7,5.4s1.9,4.1,2.5,6.1s1,4,1.2,5.7s0.2,3.2,0.2,4.2s-0.1,1.6-0.1,1.7c0,0-0.1,0.6-0.3,1.6
					c-0.2,1-0.6,2.3-1.2,3.9c-1.1,3.2-3.3,7-6.2,10.3c-1.4,1.6-3.1,3.1-4.6,4.3c-1.6,1.2-3.2,2.2-4.6,2.9c-0.7,0.4-1.4,0.7-2,0.9
					c-0.6,0.3-1.1,0.5-1.6,0.6c-0.9,0.3-1.4,0.5-1.4,0.5s0.5-0.2,1.3-0.6c0.4-0.2,0.9-0.4,1.5-0.7c0.6-0.3,1.2-0.6,1.9-1.1
					c1.4-0.8,2.8-1.9,4.3-3.2c1.4-1.3,2.9-2.9,4.1-4.5c2.5-3.3,4.2-7.1,5-10.1c0.4-1.5,0.6-2.8,0.8-3.7c0.1-0.9,0.1-1.4,0.1-1.5
					c0,0,0.1-0.6,0.2-1.5c0.1-0.9,0.2-2.2,0.2-3.8s-0.3-3.4-0.6-5.4c-0.4-1.9-1.1-4-1.9-5.9c-0.9-1.9-1.9-3.8-3.1-5.5
					c-1.2-1.6-2.4-3.1-3.6-4.2c-0.6-0.6-1.1-1.1-1.6-1.5s-0.9-0.8-1.3-1.1C50.8,240,50.4,239.7,50.4,239.7z"/>
			</g>
		</g>
		<g id="XMLID_7630_">
			<g id="XMLID_7631_">
				<path id="XMLID_7632_" fill="#FFFFFF" d="M56.4,250.5c0,0,0.1,0.4,0.4,1c0.2,0.7,0.6,1.6,1,2.8c0.7,2.3,1.4,5.5,1.7,8.8
					c0.2,3.3-0.1,6.7-0.8,9.2c-0.1,0.6-0.3,1.2-0.5,1.7s-0.3,0.9-0.5,1.3c-0.2,0.7-0.4,1.1-0.5,1.2c0,0-0.2,0.4-0.6,1.1
					c-0.4,0.6-1,1.5-1.9,2.4c-1.6,1.9-4.3,4-7.2,5.4c-1.5,0.7-3,1.2-4.5,1.5c-1.5,0.2-2.9,0.4-4.1,0.2c-0.6,0-1.1-0.1-1.6-0.2
					s-0.9-0.2-1.2-0.3c-0.7-0.2-1-0.3-1-0.3s0.4,0.1,1.1,0.2c0.3,0.1,0.7,0.1,1.2,0.1s1,0.1,1.6,0c1.2,0,2.5-0.3,3.9-0.7
					s2.8-1.1,4.1-1.8c2.6-1.6,4.7-3.8,6-5.6c0.7-0.9,1.1-1.7,1.4-2.3s0.4-0.9,0.5-1c0,0,0.2-0.4,0.5-1c0.1-0.3,0.3-0.7,0.5-1.1
					c0.2-0.4,0.5-0.9,0.6-1.5c0.8-2.2,1.5-5.3,1.7-8.4c0.1-3.2-0.2-6.4-0.7-8.7c-0.2-1.2-0.5-2.2-0.6-2.8
					C56.5,250.9,56.4,250.5,56.4,250.5z"/>
			</g>
		</g>
		<g id="XMLID_7627_">
			<g id="XMLID_7628_">
				<path id="XMLID_7629_" fill="#FFFFFF" d="M40.4,224.6c0,0,0.2,0.3,0.5,0.9c0.3,0.6,0.8,1.4,1.2,2.4c0.9,2.1,1.8,4.9,2.4,7.9
					s0.8,6.1,0.7,8.4c0,1.2-0.1,2.1-0.1,2.8s-0.1,1.1-0.1,1.1s-0.1,0.4-0.3,1.1c-0.2,0.7-0.4,1.6-0.8,2.6c-0.6,2.2-1.8,4.9-3.2,7.5
					c-1.5,2.6-3.2,4.9-4.6,6.6c-0.7,0.8-1.4,1.4-1.8,1.9s-0.7,0.7-0.7,0.7s0.2-0.3,0.6-0.8s1-1.2,1.5-2.1c1.2-1.8,2.6-4.3,3.7-6.9
					c1-2.7,1.8-5.4,2.2-7.5c0.2-1,0.3-1.9,0.4-2.6c0.1-0.6,0.1-1,0.1-1s0.1-0.4,0.2-1s0.3-1.5,0.4-2.6c0.3-2.2,0.4-5.1,0.3-8
					c-0.2-2.9-0.8-5.8-1.4-8c-0.3-1.1-0.7-1.9-0.8-2.5C40.5,225,40.4,224.6,40.4,224.6z"/>
			</g>
		</g>
		<g id="XMLID_7624_">
			<g id="XMLID_7625_">
				<path id="XMLID_7626_" fill="#FFFFFF" d="M45.9,272.7c0,0-0.5,0.2-1.3,0.6c-0.2,0.1-0.4,0.2-0.7,0.3c-0.3,0.1-0.6,0.2-0.9,0.3
					c-0.6,0.2-1.3,0.4-2.2,0.5c-0.4,0.1-0.8,0.1-1.3,0.2c-0.4,0-0.9,0-1.4,0c-0.9,0.1-1.9-0.1-2.9-0.2c-2-0.3-4.2-0.8-6.2-1.8
					c-4.1-1.7-7.6-4.5-10.1-6.7c-1.2-1.1-2.3-2-3-2.7c-0.7-0.7-1.1-1.1-1.2-1.1c-0.2-0.2-22.4-24.9-22.4-24.9s24.3,22.7,24.5,22.9
					c0,0,0.4,0.4,1.1,1.2c0.6,0.7,1.6,1.7,2.7,2.8c2.2,2.3,5.4,5.2,9.1,7.1c1.8,1,3.8,1.7,5.7,2.2c1,0.2,1.9,0.4,2.8,0.4
					c0.5,0,0.9,0.1,1.3,0.1s0.8-0.1,1.2-0.1c0.8,0,1.5-0.2,2.1-0.3c0.3-0.1,0.6-0.1,0.9-0.2s0.5-0.2,0.7-0.3
					C45.3,272.9,45.9,272.7,45.9,272.7z"/>
			</g>
		</g>
		<g id="XMLID_7621_">
			<g id="XMLID_7622_">
				<path id="XMLID_7623_" fill="#FFFFFF" d="M-241.1,345.1c0,0-0.7-0.4-1.9-1c-1.1-0.7-2.8-1.7-4.5-3.3c-3.5-3.1-7.2-8.3-9.1-14.3
					c-2-6-2-12.5-1.4-17.2c0.2-1.2,0.3-2.3,0.5-3.2s0.4-1.8,0.6-2.5c0.3-1.4,0.6-2.2,0.6-2.2c0-0.1,0.3-0.8,0.8-2.1
					c0.1-0.3,0.3-0.7,0.4-1.1c0.2-0.4,0.4-0.8,0.6-1.2c0.4-0.8,0.8-1.8,1.4-2.8c2.1-4.1,5.5-9.2,9.5-13.7c3.9-4.6,8.2-8.7,11.5-11.8
					c3.3-3.1,5.5-5,5.5-5s-2.1,2.1-5.2,5.4c-3.1,3.2-7.1,7.6-10.6,12.4c-3.6,4.7-6.6,9.8-8.4,13.9c-0.5,1-0.8,2-1.2,2.8
					c-0.2,0.4-0.3,0.8-0.5,1.2c-0.1,0.4-0.2,0.7-0.3,1c-0.4,1.2-0.6,2-0.7,2c0,0-0.3,0.8-0.7,2.1c-0.2,0.6-0.4,1.4-0.7,2.3
					c-0.2,0.9-0.4,1.9-0.7,3c-0.8,4.4-1.2,10.6,0.3,16.4c1.5,5.9,4.8,11.2,8,14.4c1.6,1.7,3.2,2.7,4.3,3.5
					C-241.8,344.7-241.1,345.1-241.1,345.1z"/>
			</g>
		</g>
		<g id="XMLID_7618_">
			<g id="XMLID_7619_">
				<path id="XMLID_7620_" fill="#FFFFFF" d="M-239.9,349c0,0-0.4-0.1-1.2-0.3c-0.4-0.1-0.9-0.2-1.4-0.3c-0.3-0.1-0.6-0.1-0.9-0.2
					c-0.3-0.1-0.6-0.2-0.9-0.3c-2.6-0.8-5.9-2.4-9-4.5c-3-2.2-5.6-4.9-7.3-7.2c-0.9-1.1-1.4-2.2-1.9-2.9c-0.5-0.7-0.7-1.2-0.7-1.2
					s-0.2-0.5-0.5-1.3c-0.3-0.8-0.7-1.9-1-3.2c-0.2-0.7-0.3-1.4-0.5-2.2c-0.1-0.8-0.2-1.6-0.3-2.4c0-0.4-0.1-0.9-0.1-1.3
					c0-0.4,0-0.9,0-1.3c0-0.9,0-1.8,0-2.7c0.2-1.8,0.3-3.6,0.8-5.2c0.3-1.6,0.9-3.1,1.3-4.3c0.2-0.6,0.5-1.2,0.7-1.7
					c0.2-0.5,0.4-0.9,0.6-1.3c0.3-0.7,0.5-1.1,0.5-1.1s-0.1,0.4-0.4,1.1c-0.1,0.4-0.3,0.8-0.5,1.3s-0.4,1.1-0.5,1.7
					c-0.3,1.3-0.7,2.7-0.8,4.4c-0.3,1.6-0.2,3.3-0.2,5.1c0,0.9,0.2,1.7,0.2,2.6c0,0.4,0.1,0.8,0.1,1.2c0.1,0.4,0.2,0.8,0.3,1.2
					c0.2,0.8,0.3,1.5,0.5,2.2c0.2,0.7,0.5,1.3,0.7,2c0.4,1.2,0.9,2.2,1.2,2.9c0.3,0.7,0.5,1.1,0.5,1.1s0.2,0.5,0.5,1.1
					c0.4,0.7,0.8,1.7,1.5,2.8c1.3,2.3,3.5,5,6.2,7.4c2.7,2.3,5.8,4.2,8.3,5.2c0.3,0.1,0.6,0.3,0.9,0.4c0.3,0.1,0.6,0.2,0.8,0.3
					c0.5,0.2,1,0.3,1.3,0.4C-240.3,348.9-239.9,349-239.9,349z"/>
			</g>
		</g>
		<g id="XMLID_7615_">
			<g id="XMLID_7616_">
				<path id="XMLID_7617_" fill="#FFFFFF" d="M-261.8,218.6c0,0-0.2,0.4-0.5,1.2c-0.2,0.4-0.3,0.8-0.5,1.4c-0.1,0.3-0.2,0.5-0.3,0.8
					c-0.1,0.3-0.1,0.6-0.2,1c-0.7,2.7-0.7,6.4,0.2,9.9s2.5,6.8,4,9c0.8,1.1,1.5,2,2,2.6c0.5,0.6,0.8,0.9,0.9,1c0,0,0.3,0.4,0.8,1
					s1.2,1.5,2.1,2.4c0.5,0.5,1,1,1.5,1.5c0.6,0.5,1.2,1,1.8,1.6s1.3,1.1,2,1.6s1.4,1.1,2.1,1.6c2.9,2.1,6,4,8.3,5.4
					c2.3,1.4,3.9,2.3,3.9,2.3s-1.6-0.8-4.1-1.9c-2.4-1.2-5.7-2.7-8.8-4.6c-0.8-0.4-1.6-1-2.3-1.4c-0.8-0.5-1.5-1-2.2-1.5
					c-0.7-0.5-1.4-1-2-1.5c-0.6-0.5-1.2-1-1.7-1.5c-1.1-0.9-1.9-1.7-2.5-2.3c-0.6-0.6-0.9-1-1-1c0,0-0.4-0.4-0.8-1.1
					c-0.5-0.7-1.2-1.7-1.9-3c-1.4-2.6-2.8-6.2-3.4-10s-0.2-7.6,0.8-10.3c0.1-0.3,0.2-0.7,0.3-1c0.1-0.3,0.3-0.6,0.4-0.8
					c0.2-0.5,0.4-1,0.6-1.3C-262,219-261.8,218.6-261.8,218.6z"/>
			</g>
		</g>
		<g id="XMLID_7612_">
			<g id="XMLID_7613_">
				<path id="XMLID_7614_" fill="#FFFFFF" d="M-262.3,216c0,0,0,0.5,0.1,1.3c0,0.4,0.1,0.9,0.2,1.5c0,0.3,0.1,0.6,0.1,0.9
					c0.1,0.3,0.2,0.7,0.2,1c0.2,0.7,0.3,1.5,0.5,2.3c0.2,0.8,0.6,1.6,0.9,2.4c0.2,0.4,0.3,0.8,0.5,1.3c0.2,0.4,0.4,0.8,0.6,1.3
					c0.4,0.8,0.8,1.7,1.3,2.5c2,3.3,4.4,6.2,6.4,8.2c1,1,1.9,1.8,2.6,2.4c0.6,0.6,1,0.9,1,0.9s0.4,0.4,1,0.9
					c0.6,0.6,1.4,1.4,2.6,2.2c2.1,1.8,5.2,3.9,8.4,6c3.2,2,6.5,3.8,9,5c2.5,1.3,4.2,2.1,4.2,2.1s-1.8-0.7-4.4-1.7
					c-2.6-1.1-6.1-2.5-9.5-4.2s-6.8-3.6-9.1-5.3c-1.2-0.8-2.2-1.6-2.9-2.1s-1.1-0.8-1.1-0.9c0,0-0.4-0.4-1-1
					c-0.6-0.7-1.5-1.5-2.5-2.7c-1.9-2.3-4.2-5.6-5.9-9.2c-0.4-0.9-0.7-1.8-1.1-2.7c-0.2-0.5-0.4-0.9-0.5-1.4s-0.2-0.9-0.4-1.4
					c-0.2-0.9-0.5-1.7-0.6-2.6c-0.1-0.8-0.2-1.6-0.3-2.4c-0.1-0.4-0.1-0.7-0.1-1c0-0.3,0-0.7,0-0.9c0-0.6,0-1.1,0-1.5
					C-262.3,216.4-262.3,216-262.3,216z"/>
			</g>
		</g>
		<g id="XMLID_7609_">
			<g id="XMLID_7610_">
				<path id="XMLID_7611_" fill="#FFFFFF" d="M-216.3,172.2c0,0,0.4-0.1,1-0.4c0.7-0.2,1.6-0.7,2.7-1c2.3-0.8,5.3-1.6,8.5-2.2
					s6.4-0.8,8.9-0.9c1.2-0.1,2.3,0,3,0c0.7,0,1.2,0,1.2,0s0.4,0.1,1.1,0.2c0.7,0.1,1.7,0.3,2.8,0.5c2.3,0.5,5.4,1.4,8.3,2.4
					c2.9,1.1,5.7,2.4,7.8,3.5c1,0.5,1.8,1.1,2.4,1.4c0.6,0.3,0.9,0.5,0.9,0.5s-0.4-0.2-1-0.4c-0.6-0.3-1.5-0.7-2.5-1.1
					c-2.1-0.9-5-1.8-8-2.6c-3-0.7-6-1.2-8.3-1.4c-1.1-0.1-2.1-0.2-2.8-0.2s-1.1-0.1-1.1-0.1s-0.4-0.1-1.1-0.1
					c-0.7-0.1-1.7-0.2-2.8-0.3c-2.3-0.2-5.5-0.3-8.6-0.1c-3.1,0.2-6.3,0.7-8.6,1.2c-1.2,0.2-2.1,0.5-2.8,0.7
					C-215.9,172.1-216.3,172.2-216.3,172.2z"/>
			</g>
		</g>
		<g id="XMLID_7606_">
			<g id="XMLID_7607_">
				<path id="XMLID_7608_" fill="#FFFFFF" d="M-149.1,203.9c0,0,1.6,1.8,3.9,4.6c2.4,2.7,5.6,6.3,9.1,9.6c3.5,3.3,7.3,6.2,10.4,8
					c1.5,0.9,2.9,1.6,3.8,2.1c1,0.4,1.5,0.7,1.6,0.7c0,0,0.6,0.3,1.5,0.7s2.2,1,3.9,1.5c3.3,1,7.8,1.9,12.4,1.7
					c4.6-0.1,9.2-1.2,12.5-2.3c1.7-0.5,3-1.1,3.9-1.5c0.9-0.4,1.5-0.6,1.5-0.6s-0.5,0.3-1.4,0.8s-2.2,1.2-3.8,1.8
					c-3.2,1.4-7.8,2.9-12.5,3.4c-4.8,0.6-9.6,0-13.2-0.8c-1.8-0.4-3.2-0.9-4.3-1.3c-1-0.4-1.6-0.7-1.6-0.7s-0.6-0.3-1.6-0.9
					s-2.3-1.4-3.9-2.5c-3.1-2.2-6.8-5.4-10.1-9s-6.3-7.4-8.4-10.3C-147.7,205.9-149.1,203.9-149.1,203.9z"/>
			</g>
		</g>
		<g id="XMLID_7603_">
			<g id="XMLID_7604_">
				<path id="XMLID_7605_" fill="#FFFFFF" d="M-68.7,204.4c0,0,0.3,0,0.8-0.1c0.5,0,1.3-0.2,2.2-0.2c1.8-0.1,4.2,0,6.7,0.3
					c2.4,0.3,4.8,0.9,6.6,1.5c0.9,0.3,1.6,0.6,2.2,0.7c0.5,0.2,0.8,0.3,0.8,0.3s0.3,0.2,0.8,0.5c0.5,0.3,1.1,0.7,1.9,1.2
					c1.5,1,3.4,2.5,5.1,4.2c1.7,1.7,3.2,3.5,4.2,4.9c0.5,0.7,0.9,1.3,1.2,1.8c0.3,0.4,0.4,0.7,0.4,0.7s-0.2-0.2-0.5-0.6
					c-0.4-0.4-0.8-0.9-1.4-1.5c-1.2-1.2-2.9-2.8-4.8-4.1c-1.9-1.3-3.8-2.5-5.4-3.2c-0.8-0.4-1.4-0.7-1.9-0.9
					c-0.5-0.2-0.7-0.3-0.8-0.3c0,0-0.3-0.2-0.7-0.4c-0.5-0.2-1.1-0.6-1.9-1c-1.6-0.8-3.8-1.7-6-2.3c-2.3-0.6-4.6-1.1-6.4-1.2
					c-0.9-0.1-1.6-0.1-2.2-0.1C-68.4,204.4-68.7,204.4-68.7,204.4z"/>
			</g>
		</g>
		<g id="XMLID_7600_">
			<g id="XMLID_7601_">
				<path id="XMLID_7602_" fill="#FFFFFF" d="M-248.3,327.1c0,0,0-0.4-0.1-1c0-0.6-0.2-1.5-0.2-2.6c-0.2-2.1-0.1-5,0.2-7.9
					c0.3-2.9,0.9-5.8,1.5-7.9c0.3-1.1,0.6-1.9,0.8-2.6c0.2-0.6,0.3-1,0.4-1c0,0,0.2-0.4,0.5-0.9c0.3-0.6,0.7-1.4,1.3-2.3
					c1.1-1.9,2.8-4.2,4.6-6.4c1.8-2.1,3.9-4.1,5.4-5.4c0.8-0.7,1.5-1.2,2-1.6c0.5-0.4,0.8-0.6,0.8-0.6s-0.2,0.2-0.7,0.7
					c-0.4,0.4-1.1,1-1.7,1.8c-1.4,1.5-3.1,3.7-4.6,6c-1.5,2.3-2.8,4.7-3.5,6.6c-0.4,0.9-0.7,1.7-0.9,2.3s-0.3,0.9-0.4,0.9
					c0,0-0.2,0.3-0.4,0.9c-0.3,0.6-0.7,1.4-1.1,2.3c-0.8,1.9-1.7,4.6-2.4,7.3c-0.6,2.7-1,5.6-1.2,7.7c-0.1,1.1-0.1,2-0.1,2.6
					C-248.2,326.7-248.3,327.1-248.3,327.1z"/>
			</g>
		</g>
		<g id="XMLID_7597_">
			<g id="XMLID_7598_">
				<path id="XMLID_7599_" fill="#FFFFFF" d="M-230.1,366.6c0,0,0.1-0.4,0.3-1.2c0.1-0.4,0.2-0.8,0.3-1.3c0.1-0.3,0.1-0.5,0.2-0.8
					c0-0.3,0.1-0.6,0.1-0.9c0.4-2.6,0.4-6.1,0-9.5c-0.4-3.4-1.2-6.8-1.9-9.3c-0.3-1.3-0.7-2.3-0.9-3.1c-0.2-0.7-0.4-1.2-0.4-1.2
					c0-0.1-0.4-1.8-0.9-4.3c-0.6-2.5-1.3-5.9-1.9-9.3c-0.6-3.4-1-6.8-1-9.4c-0.1-1.3,0-2.3,0-3.1c0-0.7,0-1.2,0-1.2s0,0.4,0.1,1.2
					c0.1,0.7,0.1,1.8,0.3,3.1c0.3,2.5,1.1,5.8,2,9.1c1,3.3,2.1,6.5,2.9,8.9c0.8,2.5,1.4,4.1,1.4,4.2c0,0,0.1,0.5,0.3,1.3
					c0.1,0.8,0.4,1.9,0.6,3.2c0.5,2.7,0.9,6.2,1,9.8c0,3.6-0.3,7.1-1,9.7c-0.1,0.3-0.1,0.6-0.2,0.9c-0.1,0.3-0.2,0.6-0.3,0.8
					c-0.2,0.5-0.3,0.9-0.5,1.3C-230,366.2-230.1,366.6-230.1,366.6z"/>
			</g>
		</g>
		<g id="XMLID_7594_">
			<g id="XMLID_7595_">
				<path id="XMLID_7596_" fill="#FFFFFF" d="M-239.5,387c0,0,0.5-1.1,1.1-2.7c0.8-1.6,1.3-3.9,2-6.2c0.4-2.3,1-4.6,1-6.4
					c0.1-1.8,0.3-2.9,0.2-3c0,0,0.2-1.2,0.4-2.9c0.1-0.4,0.1-0.9,0.2-1.4c0-0.5,0.1-1,0.1-1.5c0-1.1,0.1-2.2,0.1-3.3
					c-0.1-2.3-0.1-4.6-0.5-6.3c-0.3-1.7-0.4-2.9-0.4-2.9s0.4,1.1,0.9,2.8c0.6,1.6,1,3.9,1.5,6.2c0.2,1.2,0.3,2.3,0.4,3.4
					c0.1,0.6,0.1,1.1,0.2,1.6c0,0.5,0,1,0,1.4c0,1.8,0,3,0,3.1c0,0,0,0.3-0.2,0.9c-0.1,0.5-0.3,1.3-0.5,2.2c-0.3,1.8-1.3,4.1-2,6.4
					c-1,2.2-1.9,4.4-3,5.9C-238.8,386-239.5,387-239.5,387z"/>
			</g>
		</g>
		<g id="XMLID_7591_">
			<g id="XMLID_7592_">
				<path id="XMLID_7593_" fill="#FFFFFF" d="M-236.4,398.7c0,0,0.4-0.7,1-1.9c0.7-1.1,1.3-2.7,1.9-4.2c0.5-1.6,1.1-3.2,1.3-4.4
					c0.1-0.6,0.3-1.1,0.3-1.5c0.1-0.4,0.1-0.6,0.1-0.6s0.3-0.8,0.7-1.9c0.1-0.3,0.2-0.6,0.3-0.9s0.2-0.7,0.3-1.1
					c0.2-0.7,0.4-1.5,0.6-2.3c0.3-1.6,0.6-3.2,0.6-4.5c0.1-1.2,0.2-2.1,0.2-2.1s0.1,0.8,0.3,2.1c0.2,1.2,0.2,2.9,0.3,4.6
					c0,0.8-0.1,1.7-0.1,2.5c0,0.4,0,0.8-0.1,1.2c-0.1,0.4-0.1,0.7-0.1,1c-0.2,1.3-0.3,2.2-0.3,2.2s-0.1,0.2-0.3,0.6
					c-0.2,0.4-0.4,0.9-0.7,1.5c-0.5,1.2-1.5,2.7-2.3,4.3c-1,1.4-2,2.9-2.9,3.8C-235.9,398-236.4,398.7-236.4,398.7z"/>
			</g>
		</g>
		<g id="XMLID_7588_">
			<g id="XMLID_7589_">
				<path id="XMLID_7590_" fill="#FFFFFF" d="M-228.9,409.2c0,0,0.5-7.5,0.5-7.6s3.3-6.6,3.3-6.6s-0.5,7.3-0.5,7.4
					S-228.9,409.2-228.9,409.2z"/>
			</g>
		</g>
		<g id="XMLID_7585_">
			<g id="XMLID_7586_">
				<path id="XMLID_7587_" fill="#FFFFFF" d="M-241.7,353.7c0,0-1.6,9.2-1.7,9.3c0,0.1-4.3,8.1-4.3,8.1s1.5-9,1.6-9
					C-246.1,361.9-241.7,353.7-241.7,353.7z"/>
			</g>
		</g>
		<g id="XMLID_7582_">
			<g id="XMLID_7583_">
				<path id="XMLID_7584_" fill="#FFFFFF" d="M18.3,389.8c0,0-0.2-0.4-0.6-1.1c-0.2-0.3-0.4-0.8-0.6-1.3s-0.5-1.1-0.7-1.7
					c-1-2.5-1.6-6.1-1.5-9.8c0-3.6,0.6-7.2,1.1-9.9c0.3-1.3,0.5-2.5,0.7-3.2c0.2-0.8,0.3-1.2,0.3-1.3s0.6-1.7,1.6-4.2
					c0.9-2.4,2.1-5.7,3.2-8.9c1-3.3,1.7-6.6,1.9-9.2c0.1-0.6,0.1-1.2,0.1-1.7s0-1,0-1.4c0-0.8,0-1.2,0-1.2s0,0.4,0.1,1.2
					c0,0.4,0.1,0.8,0.1,1.4c0.1,0.5,0.1,1.1,0.1,1.8c0.1,2.6-0.3,6.1-0.9,9.5c-0.7,3.4-1.6,6.8-2.3,9.3c-0.7,2.5-1.1,4.2-1.1,4.3
					c0,0-0.2,0.5-0.4,1.2c-0.3,0.7-0.6,1.8-1,3.1c-0.8,2.5-1.7,5.9-2.1,9.4s-0.2,7,0.5,9.6c0.1,0.6,0.3,1.2,0.5,1.7s0.3,1,0.5,1.3
					C18.1,389.4,18.3,389.8,18.3,389.8z"/>
			</g>
		</g>
		<g id="XMLID_7579_">
			<g id="XMLID_7580_">
				<path id="XMLID_7581_" fill="#FFFFFF" d="M21.1,377.7c0,0,0.2-3.4,0.4-6.9c0.3-1.7,0.5-3.4,0.7-4.8c0.1-0.7,0.2-1.2,0.2-1.6
					c0.1-0.4,0.1-0.6,0.1-0.6s1.5-3.1,2.9-6.2c1.7-2.9,3.4-5.8,3.4-5.8s-1,3.2-2,6.3c-0.7,3.2-1.5,6.5-1.5,6.5s-0.1,0.2-0.2,0.6
					c-0.1,0.4-0.3,0.9-0.5,1.5c-0.5,1.2-1,2.8-1.6,4.4C22,374.4,21.1,377.7,21.1,377.7z"/>
			</g>
		</g>
		<g id="XMLID_7576_">
			<g id="XMLID_7577_">
				<path id="XMLID_7578_" fill="#FFFFFF" d="M51.7,309.7c0,0-0.3,0.1-0.9,0.3c-0.5,0.2-1.4,0.4-2.2,0.8c-1.8,0.7-4.1,1.9-6.3,3.4
					c-2.1,1.5-3.9,3.3-5.1,4.8c-0.6,0.7-1,1.4-1.4,1.9c-0.3,0.4-0.5,0.7-0.5,0.8c0,0-0.2,0.3-0.6,0.7c-0.3,0.4-0.9,1-1.3,1.8
					c-1.1,1.5-2.2,3.8-3.1,6.1c-0.8,2.4-1.3,4.9-1.5,6.8c-0.1,0.9-0.1,1.7-0.1,2.3s0,0.9,0,0.9s0-0.3-0.1-0.9c0-0.6-0.2-1.4-0.2-2.3
					c-0.1-1.9,0-4.5,0.6-7.1c0.6-2.6,1.4-5.1,2.4-6.9c0.4-0.9,0.9-1.7,1.2-2.2c0.3-0.5,0.5-0.8,0.5-0.8s0.2-0.3,0.7-0.8
					c0.4-0.4,1-1.1,1.8-1.8c1.5-1.4,3.7-3.1,6.1-4.4c2.4-1.2,4.9-2.2,6.9-2.6c1-0.3,1.8-0.3,2.4-0.5
					C51.4,309.7,51.7,309.7,51.7,309.7z"/>
			</g>
		</g>
		<g id="XMLID_7573_">
			<g id="XMLID_7574_">
				<path id="XMLID_7575_" fill="#FFFFFF" d="M29.8,176.1c0,0-0.3-0.7-0.9-1.9c-0.7-1.1-1.6-2.8-3.1-4.4c-2.9-3.4-7.9-6.9-13.6-8.3
					c-5.7-1.6-11.7-0.9-15.8,0.3c-1,0.3-2,0.6-2.8,0.9c-0.8,0.4-1.5,0.7-2.1,0.9c-1.2,0.5-1.9,0.9-1.9,0.9s-0.7,0.4-1.8,0.9
					c-0.3,0.1-0.6,0.3-0.9,0.5s-0.7,0.4-1,0.6c-0.7,0.5-1.6,1-2.5,1.6c-3.5,2.4-7.7,6.4-11,11.2c-3.3,4.7-5.8,10-7.3,14
					c-0.4,1-0.7,2-1,2.8c-0.3,0.8-0.5,1.6-0.7,2.2c-0.4,1.2-0.6,1.9-0.6,1.9s0.2-0.7,0.5-1.9c0.2-0.6,0.3-1.4,0.6-2.2
					c0.3-0.9,0.5-1.8,0.8-2.9c1.3-4.2,3.5-9.7,6.6-14.7c3-5.1,7.1-9.5,10.7-12.3c0.9-0.7,1.8-1.3,2.5-1.8c0.4-0.3,0.7-0.5,1.1-0.8
					c0.4-0.2,0.7-0.4,1-0.6c1.2-0.7,1.9-1.1,1.9-1.1s0.8-0.4,2.1-0.9c0.7-0.2,1.4-0.5,2.3-0.9c0.9-0.3,2-0.5,3.1-0.8
					c4.5-1,11-1.4,16.9,0.6c5.9,1.9,10.8,5.8,13.6,9.4c1.4,1.8,2.2,3.5,2.8,4.7C29.5,175.5,29.8,176.1,29.8,176.1z"/>
			</g>
		</g>
		<g id="XMLID_7570_">
			<g id="XMLID_7571_">
				<path id="XMLID_7572_" fill="#FFFFFF" d="M21,162c0,0-0.6-0.3-1.6-0.7c-0.5-0.2-1.1-0.5-1.8-0.8c-0.4-0.2-0.7-0.3-1.1-0.5
					c-0.4-0.1-0.8-0.3-1.3-0.4c-0.9-0.3-1.9-0.6-2.9-1s-2.2-0.5-3.3-0.8c-2.3-0.6-4.8-0.7-7.3-1c-5-0.2-10,0.4-13.7,1.3
					c-0.9,0.1-1.7,0.5-2.5,0.7c-0.7,0.2-1.4,0.4-1.9,0.6s-0.9,0.3-1.2,0.4c-0.3,0.1-0.4,0.2-0.5,0.2c0,0-0.6,0.2-1.6,0.6
					s-2.5,0.8-4.1,1.7c-0.8,0.4-1.7,0.9-2.6,1.3c-0.9,0.6-1.8,1.2-2.8,1.8c-0.5,0.3-1,0.6-1.5,0.9c-0.5,0.4-0.9,0.7-1.4,1.1
					c-0.9,0.8-1.9,1.5-2.8,2.3c-0.9,0.9-1.7,1.7-2.6,2.6l-0.6,0.6l-0.6,0.7c-0.4,0.5-0.7,0.9-1.1,1.4c-1.5,1.7-2.6,3.6-3.6,5.1
					c-0.5,0.8-0.9,1.5-1.2,2.2s-0.6,1.3-0.9,1.7c-0.5,1-0.8,1.5-0.8,1.5s0.2-0.6,0.6-1.6c0.2-0.5,0.5-1.1,0.7-1.8
					c0.3-0.7,0.6-1.5,1.1-2.3c0.9-1.6,1.9-3.6,3.3-5.4c0.3-0.5,0.7-1,1-1.5l0.5-0.7l0.6-0.7c0.8-0.9,1.6-1.9,2.5-2.8
					c0.9-0.9,1.8-1.7,2.7-2.6c0.5-0.4,0.9-0.8,1.4-1.3c0.5-0.4,1-0.7,1.4-1.1c1-0.7,1.9-1.4,2.8-2.1c0.9-0.6,1.8-1.1,2.7-1.6
					c1.6-1.1,3.1-1.7,4.2-2.1c1-0.5,1.7-0.8,1.7-0.8s0.2-0.1,0.5-0.2c0.3-0.1,0.8-0.2,1.3-0.4c0.6-0.1,1.3-0.3,2-0.5
					c0.8-0.2,1.7-0.5,2.6-0.6c3.9-0.7,9.2-0.9,14.3-0.4c2.5,0.5,5.1,0.8,7.4,1.6c1.1,0.4,2.3,0.6,3.3,1c1,0.4,2,0.8,2.9,1.2
					c0.4,0.2,0.9,0.4,1.3,0.5c0.4,0.2,0.7,0.4,1.1,0.6c0.7,0.4,1.3,0.7,1.8,1C20.5,161.7,21,162,21,162z"/>
			</g>
		</g>
		<g id="XMLID_7567_">
			<g id="XMLID_7568_">
				<path id="XMLID_7569_" fill="#FFFFFF" d="M-49.3,192.2c0,0-0.1-0.4-0.4-1.2c-0.1-0.4-0.3-0.9-0.4-1.4c-0.1-0.6-0.3-1.2-0.4-1.9
					c-0.5-2.8-0.4-6.7-0.1-10.5c0.4-3.8,0.8-7.5,0.9-10.3c0.1-1.4,0-2.6,0-3.4c0-0.8,0-1.3,0-1.3s0-0.5,0-1.3s-0.1-1.9-0.3-3.2
					c-0.3-2.6-1.4-6-3.6-8.7c-1.1-1.3-2.5-2.4-4-3.1c-1.5-0.7-3-1.1-4.4-1.2c-1.3-0.1-2.5,0.1-3.2,0.3c-0.4,0.1-0.7,0.2-0.9,0.3
					c-0.2,0.1-0.3,0.1-0.3,0.1s0.1-0.1,0.3-0.1c0.2-0.1,0.5-0.3,0.8-0.4c0.7-0.3,1.9-0.6,3.3-0.7c1.4,0,3.1,0.2,4.7,0.8
					c1.7,0.6,3.3,1.6,4.7,3c2.8,2.7,4.3,6.4,5,9.3c0.4,1.4,0.5,2.6,0.6,3.5c0.1,0.9,0.1,1.4,0.1,1.4s0,0.6-0.1,1.4
					c-0.1,0.9-0.1,2.1-0.4,3.6c-0.4,2.9-1.2,6.6-1.9,10.3s-1.1,7.4-0.9,10.2c0,0.7,0.1,1.3,0.2,1.9c0.1,0.6,0.1,1.1,0.2,1.5
					C-49.4,191.8-49.3,192.2-49.3,192.2z"/>
			</g>
		</g>
		<g id="XMLID_7564_">
			<g id="XMLID_7565_">
				<path id="XMLID_7566_" fill="#FFFFFF" d="M-58.5,188.2c0,0-0.4-0.3-1.2-0.9c-0.4-0.3-0.8-0.6-1.3-1s-1-0.9-1.6-1.5
					c-2.2-2.3-4.7-5.8-6.5-9.6c-1.9-3.8-3.1-7.9-4.1-11c-0.9-3-1.5-5.1-1.6-5.2c0-0.1-0.5-2.1-1.2-5.1c-0.4-1.5-0.9-3.2-1.4-5
					c-0.3-0.9-0.7-1.8-1-2.7c-0.4-0.9-0.8-1.8-1.2-2.7c-1.7-3.6-4.2-6.8-6.5-8.8c-0.6-0.5-1.1-0.9-1.6-1.3c-0.5-0.4-1-0.6-1.3-0.9
					c-0.8-0.5-1.2-0.7-1.2-0.7s0.5,0.2,1.2,0.6c0.4,0.2,0.9,0.4,1.4,0.8c0.5,0.4,1.1,0.8,1.7,1.2c2.5,1.8,5.3,4.9,7.5,8.5
					c0.5,0.9,1,1.8,1.5,2.7c0.4,0.9,0.9,1.8,1.3,2.7c0.7,1.8,1.3,3.5,1.9,5c0.9,3,1.6,5,1.6,5s0.1,0.6,0.3,1.5
					c0.2,0.9,0.5,2.2,0.8,3.8c0.7,3.1,1.6,7.2,3,11c1.4,3.9,3.5,7.5,5.5,9.9c0.5,0.6,1,1.1,1.4,1.6s0.9,0.8,1.2,1.1
					C-58.9,187.9-58.5,188.2-58.5,188.2z"/>
			</g>
		</g>
		<g id="XMLID_7561_">
			<g id="XMLID_7562_">
				<path id="XMLID_7563_" fill="#FFFFFF" d="M-91.9,199.2c0,0-0.7,0.1-1.9,0.3c-0.6,0.1-1.3,0.2-2.2,0.3c-0.8,0.1-1.8,0.1-2.8,0.1
					c-1,0.1-2.2-0.1-3.4-0.1c-1.2-0.2-2.4-0.2-3.7-0.5c-2.6-0.5-5.3-1.3-7.9-2.4c-2.6-1.1-5.1-2.5-7.2-4c-2.1-1.6-4.1-3.2-5.5-4.8
					c-1.5-1.6-2.6-3-3.3-4.1c-0.8-1-1.1-1.7-1.2-1.7c0,0-0.4-0.7-0.9-1.8c-0.5-1.1-1.3-2.7-2-4.6c-1.6-3.8-3.2-8.9-5-13.9
					s-4.1-9.8-6.6-13c-0.6-0.8-1.2-1.5-1.7-2.1c-0.3-0.3-0.5-0.6-0.8-0.8c-0.3-0.2-0.5-0.5-0.7-0.7c-0.9-0.8-1.3-1.2-1.3-1.2
					s0.5,0.4,1.4,1.2c0.2,0.2,0.5,0.4,0.8,0.6s0.5,0.5,0.8,0.8c0.6,0.6,1.3,1.2,1.9,2c2.7,3,5.4,7.8,7.5,12.7
					c2.2,4.9,4.2,9.9,5.9,13.5c0.9,1.8,1.7,3.2,2.2,4.3c0.6,1,1,1.6,1,1.6s0.3,0.7,1,1.7c0.6,1,1.5,2.4,2.8,4
					c1.2,1.6,2.9,3.2,4.9,4.8c2,1.6,4.2,3.1,6.7,4.3c2.4,1.2,5,2.2,7.4,2.8c1.2,0.4,2.4,0.5,3.6,0.8c1.2,0.1,2.3,0.3,3.3,0.3
					s2,0.1,2.8,0.1s1.6,0,2.2-0.1C-92.5,199.2-91.9,199.2-91.9,199.2z"/>
			</g>
		</g>
		<g id="XMLID_7558_">
			<g id="XMLID_7559_">
				<path id="XMLID_7560_" fill="#FFFFFF" d="M-164.6,254.1c0,0,0.2-0.7,0.5-1.7c0.2-1.1,0.8-2.4,1.4-3.8c0.7-1.3,1.3-2.7,1.9-3.7
					c0.3-0.5,0.6-0.9,0.7-1.2c0.2-0.3,0.3-0.5,0.3-0.5s0.6-0.5,1.5-1.2c0.4-0.4,0.9-0.8,1.5-1.1c0.6-0.4,1.2-0.8,1.8-1.2
					c1.3-0.7,2.5-1.4,3.5-1.8c1-0.4,1.6-0.7,1.6-0.7s-0.6,0.4-1.4,1.1c-0.9,0.6-1.8,1.6-2.8,2.6c-0.5,0.5-0.9,1-1.3,1.5
					c-0.4,0.5-0.8,0.9-1.1,1.4c-0.6,0.8-1,1.4-1,1.4s-0.2,0.1-0.4,0.3s-0.5,0.5-0.9,0.9c-0.8,0.7-1.7,1.8-2.6,2.9
					c-0.8,1.2-1.7,2.3-2.2,3.3C-164.3,253.5-164.6,254.1-164.6,254.1z"/>
			</g>
		</g>
		<g id="XMLID_7555_">
			<g id="XMLID_7556_">
				<path id="XMLID_7557_" fill="#FFFFFF" d="M-236.6,272.8c0,0-0.3-0.3-0.8-0.7c-0.2-0.2-0.5-0.5-0.9-0.8c-0.2-0.2-0.3-0.3-0.5-0.5
					c-0.2-0.1-0.4-0.3-0.7-0.5c-1.8-1.4-4.4-2.7-7.2-3.7c-2.8-0.8-5.7-1.1-7.9-1c-1.1,0-2,0.2-2.6,0.3c-0.6,0.1-1,0.2-1,0.2
					s-0.4,0.1-1,0.1c-0.6,0.1-1.5,0.1-2.5,0.5c-0.5,0.1-1.1,0.3-1.6,0.4c-0.6,0.2-1.2,0.5-1.8,0.7c-0.3,0.1-0.6,0.2-0.9,0.4
					c-0.3,0.2-0.6,0.3-0.9,0.5c-0.6,0.3-1.2,0.6-1.8,1c-1.2,0.8-2.3,1.6-3.3,2.6c-1,0.9-1.8,1.9-2.5,2.7c-0.4,0.4-0.6,0.8-0.9,1.2
					c-0.2,0.4-0.5,0.7-0.6,1c-0.4,0.5-0.6,0.8-0.6,0.8s0.2-0.3,0.4-0.9c0.1-0.3,0.3-0.6,0.5-1c0.2-0.4,0.4-0.9,0.7-1.3
					c0.6-0.9,1.3-2,2.2-3c0.9-1.1,2-2.1,3.1-3.1c0.6-0.5,1.2-0.9,1.8-1.3c0.3-0.2,0.6-0.4,0.9-0.6s0.6-0.4,0.9-0.5
					c0.6-0.3,1.2-0.7,1.8-1c0.6-0.2,1.2-0.5,1.7-0.7c1.1-0.5,2-0.7,2.7-0.8c0.7-0.2,1.1-0.3,1.1-0.3s0.4-0.1,1.2-0.1
					c0.7,0,1.7-0.1,2.9,0.1c2.4,0.2,5.5,0.9,8.3,2.1c2.8,1.3,5.3,3.1,7,4.7c0.2,0.2,0.4,0.4,0.6,0.5c0.2,0.2,0.3,0.4,0.5,0.6
					c0.3,0.3,0.6,0.6,0.8,0.9C-236.9,272.5-236.6,272.8-236.6,272.8z"/>
			</g>
		</g>
		<g id="XMLID_7552_">
			<g id="XMLID_7553_">
				<path id="XMLID_7554_" fill="#FFFFFF" d="M-251.2,254.4c0,0-0.3,0-0.9,0c-0.5,0.1-1.3,0-2.3,0.2c-1.9,0.2-4.3,0.8-6.5,1.7
					c-2.2,1-4.3,2.3-5.7,3.4c-0.7,0.6-1.2,1.1-1.6,1.5c-0.4,0.4-0.6,0.6-0.6,0.6s-0.2,0.2-0.6,0.6c-0.4,0.3-1,0.8-1.5,1.5
					c-0.3,0.3-0.6,0.7-1,1c-0.3,0.4-0.6,0.8-1,1.3c-0.2,0.2-0.3,0.4-0.5,0.7c-0.1,0.2-0.3,0.5-0.4,0.7c-0.3,0.5-0.6,1-0.9,1.5
					c-1.1,2.1-1.9,4.4-2.2,6.2c-0.2,0.9-0.3,1.6-0.4,2.2c-0.1,0.5-0.1,0.8-0.1,0.8s0-0.3,0-0.8s-0.1-1.3,0-2.2
					c0.1-1.8,0.5-4.3,1.4-6.7c0.9-2.3,2-4.7,3.2-6.2c0.5-0.8,1.1-1.4,1.5-1.9c0.4-0.4,0.6-0.7,0.6-0.7s0.3-0.3,0.8-0.6
					s1.1-0.9,2-1.4c1.7-1,4.1-2.1,6.6-2.8c2.5-0.6,5.1-0.9,7-0.8c0.9,0,1.7,0.1,2.3,0.2C-251.5,254.3-251.2,254.4-251.2,254.4z"/>
			</g>
		</g>
		<g id="XMLID_7549_">
			<g id="XMLID_7550_">
				<path id="XMLID_7551_" fill="#FFFFFF" d="M-242.5,272.3c0,0-0.3,0-0.8-0.1c-0.5,0-1.3-0.2-2.2-0.2c-1.8-0.1-4.3,0.2-6.6,0.7
					c-2.3,0.6-4.5,1.6-6,2.5c-0.8,0.4-1.3,0.9-1.8,1.2c-0.4,0.3-0.7,0.5-0.7,0.5s-0.3,0.2-0.7,0.4c-0.4,0.3-1.1,0.6-1.7,1.2
					c-1.4,1-3,2.7-4.4,4.5c-1.4,1.9-2.4,4-3,5.7c-0.3,0.8-0.5,1.6-0.6,2.1s-0.2,0.8-0.2,0.8s0-0.3,0.1-0.8s0.1-1.3,0.3-2.2
					c0.3-1.8,1.1-4.1,2.2-6.3c1.2-2.2,2.6-4.3,4-5.6c0.6-0.7,1.3-1.2,1.7-1.6c0.4-0.4,0.7-0.6,0.7-0.6s0.3-0.2,0.8-0.5
					s1.2-0.7,2.2-1c1.8-0.8,4.3-1.5,6.8-1.8c2.5-0.2,5.1-0.1,6.9,0.3c0.9,0.1,1.7,0.4,2.2,0.5C-242.8,272.2-242.5,272.3-242.5,272.3
					z"/>
			</g>
		</g>
		<g id="XMLID_7546_">
			<g id="XMLID_7547_">
				<path id="XMLID_7548_" fill="#FFFFFF" d="M-272.8,318.3c0,0,0-0.4,0-1c0-0.6-0.1-1.5,0-2.6c0.1-2.2,0.5-5.1,1.1-7.9
					c0.7-2.8,1.8-5.6,2.7-7.7c0.5-1,0.9-1.8,1.2-2.4c0.3-0.6,0.5-0.9,0.5-1c0,0,0.3-0.3,0.7-0.8s0.9-1.2,1.7-2
					c1.4-1.7,3.5-3.6,5.7-5.4c2.3-1.7,4.7-3.2,6.6-4.1c0.9-0.5,1.8-0.8,2.3-1.1c0.6-0.2,0.9-0.4,0.9-0.4s-0.3,0.2-0.8,0.5
					c-0.5,0.3-1.3,0.7-2.1,1.3c-1.7,1.2-3.9,2.9-5.8,4.8c-1.9,2-3.7,4.1-4.8,5.8c-0.6,0.8-1,1.6-1.3,2.1c-0.3,0.5-0.5,0.8-0.5,0.8
					s-0.2,0.3-0.6,0.8c-0.3,0.5-0.9,1.2-1.4,2.1c-1.1,1.8-2.4,4.3-3.5,6.9c-1,2.7-1.7,5.4-2.1,7.5c-0.2,1.1-0.3,1.9-0.3,2.6
					C-272.8,318-272.8,318.3-272.8,318.3z"/>
			</g>
		</g>
		<g id="XMLID_7543_">
			<g id="XMLID_7544_">
				<path id="XMLID_7545_" fill="#FFFFFF" d="M-39.2,231.3c0,0-0.1,0.1-0.3,0.3c-0.2,0.2-0.5,0.5-0.9,0.7c-0.8,0.6-2.2,1.3-4,1.7
					s-3.9,0.5-6.1,0.3c-2.2-0.2-4.6-0.8-6.9-1.5c-2.3-0.7-4.5-1.3-6.6-1.8s-4.1-0.6-5.7-0.5c-1.7,0.1-2.9,0.6-3.9,0.8
					c-0.9,0.4-1.4,0.6-1.4,0.7c0,0-0.6,0.2-1.4,0.6c-0.4,0.2-1,0.5-1.5,0.8c-0.6,0.4-1.2,0.8-1.9,1.3c-2.7,2-5.8,5.3-9.1,8.6
					c-1.6,1.6-3.3,3.2-5.1,4.5c-1.7,1.3-3.5,2.4-5.1,3.1c-1.6,0.7-3,1-4,1.2c-0.5,0.1-0.9,0.1-1.2,0.1s-0.4,0-0.4,0s0.1,0,0.4-0.1
					c0.3-0.1,0.7-0.1,1.1-0.2c1-0.2,2.3-0.7,3.8-1.5s3.1-1.9,4.7-3.4c1.6-1.4,3.1-3.1,4.6-4.8c2.9-3.5,5.8-7.1,8.6-9.5
					c0.7-0.6,1.4-1.1,1.9-1.5c0.6-0.4,1.2-0.8,1.6-1.1c0.9-0.6,1.5-0.8,1.6-0.9c0,0,0.7-0.2,1.8-0.6c1.1-0.2,2.7-0.7,4.7-0.6
					c1.9,0,4.1,0.3,6.3,1c2.2,0.6,4.4,1.5,6.6,2.3c2.2,0.8,4.4,1.6,6.5,1.9c2.1,0.4,4.2,0.5,5.9,0.2c1.7-0.3,3.1-0.8,4-1.3
					c0.5-0.2,0.8-0.5,1-0.7C-39.3,231.3-39.2,231.3-39.2,231.3z"/>
			</g>
		</g>
		<g id="XMLID_7540_">
			<g id="XMLID_7541_">
				<path id="XMLID_7542_" fill="#FFFFFF" d="M20.7,279.6c0,0-2.1,0.1-5.3,0c-3.2-0.1-7.5-0.3-11.7-1.5c-2.1-0.6-4.2-1.4-6-2.5
					c-1.8-1-3.4-2.3-4.5-3.6c-0.3-0.3-0.6-0.6-0.8-0.9c-0.2-0.3-0.5-0.6-0.7-0.9c-0.4-0.6-0.8-1.1-1-1.5c-0.6-0.8-0.8-1.4-0.8-1.4
					s-0.2-0.6-0.6-1.4c-0.3-0.9-0.8-2.2-1.3-3.7c-0.9-3-2-7-3.1-11c-2.2-8-4.5-15.9-4.5-15.9s2.9,7.7,5.8,15.4
					c1.5,3.9,2.9,7.8,4.1,10.6c0.6,1.4,1.1,2.6,1.5,3.4c0.4,0.8,0.7,1.2,0.7,1.3c0,0,0.2,0.5,0.7,1.3c0.2,0.4,0.5,0.9,0.8,1.4
					c0.2,0.3,0.3,0.5,0.5,0.8s0.4,0.6,0.7,0.9c1.8,2.4,5.2,4.9,9.1,6.3c3.9,1.5,8.1,2.1,11.3,2.4C18.6,279.5,20.7,279.6,20.7,279.6z
					"/>
			</g>
		</g>
	</g>
</g>
</svg>
