<?xml version="1.0" encoding="utf-8"?>
<!-- Generator: Adobe Illustrator 19.0.0, SVG Export Plug-In . SVG Version: 6.00 Build 0)  -->
<svg version="1.1" id="Layer_1" xmlns="http://www.w3.org/2000/svg" xmlns:xlink="http://www.w3.org/1999/xlink" x="0px" y="0px"
	 viewBox="-312 123.1 333.1 314.9" enable-background="new -312 123.1 333.1 314.9" xml:space="preserve">
<g id="XMLID_1096_">
	<path id="XMLID_1917_" fill="#EF7B05" d="M-269.7,422.7c-1.9-5.2-4.7-10.4-6-15.6c-1.6-6.3-1.1-12.8-3.3-18.9
		c-1.7-4.7-5.3-8.3-6.3-13.1c-1.2-5.9,1.1-9.6,1.8-15.1c0.2-1.6-2.1-17.4-2.9-17.4c-2.5,0.1-3.6,2.9-5.4,4
		c-8.4-13.6,2.3-26,2.3-39.8c0-7.1-1.8-14.1-1.1-21.1c0.6-5.5,4.2-13,2.2-18.4c-0.8,1.5-1.5,3.2-1.5,4.9c-2.3-5.7-4.8-13.9-3-20
		c2-6.7,7.8-14,11.6-20.1c3.9-6.2,7.9-14.4,13.7-19.1c-6.5,1.5-10.2,7.7-13.6,12.6c2.6-12.9,6.7-23.4,17.6-32
		c5.2-4.1,13.7-8.9,20.6-8.6c-0.8-7.6,11.1-15.5,16.8-19.6c-4.4-0.8-8.1,2.5-12,3.1c1-0.2,6.5-7.6,8.5-8.7c4-2.3,8.6-3.3,12.8-5.1
		c-2.6-0.9-3.4-2.8-4.7-4c0.5,0.4,7.3-1.1,8.6-1c3.6,0.5,7,2.5,10.2,4c-3.1-2.2-5.9-4.8-8.7-7.3c6.2-3.1,16.3-4.3,22.1,0.3
		c-5.8-4.5-7.7-9,1.2-9.2c8.7-0.3,16.2,3.8,24.8,4.4c10.2,0.8-1.1-8.5-5-10.5c1.9,1,7.9-0.2,10.5,0.3c3.4,0.7,6.5,2,9.9,2.8
		c8.4,1.9,16.7,4.5,25.1,6c1.9-6.1,9.5-9,15.6-8.8c-1.6,2.2-1.4,4.5-1.5,7.1c4.9-0.2,9.6-4.5,14.4-5.5c-1.7,6-2.9,11.7,1.2,17.1
		c3,3.9,9.1,5.6,12.5,9.8c-0.3-5.7,10.3-12,15.4-14c-2.1,3.2-3.4,7.2-4.8,10.6c5.5,0.1,9.8-2,13,4.2c-1-2,8.7-1.4,10.4,1
		c2.2,3.2-0.4,5.7-2.1,8.6c-1.7,2.9-1.2,7.3,1.3,9.7c11.5-3.5,30.9,13.9,33.7,24c-1.9-0.7-3.9-1.3-5.8-2.3
		c6.8,3.7,11.6,11.9,14,18.6c-2.6-1.3-5.8-3.3-8.5-3.9c4.9,1.1,9.1,13.4,11.9,16.9c-3.7,6.3,4.8,10,5.8,15.5c0,0.1-2.2,5.3-2.2,6.7
		c-0.1,3.6,2.3,6.5,3.1,9.9c0.9,4.2,1.3,7.8,1.5,12c0.1,4.5,2.4,7.9,3.3,12.2c0.8,3.9,1,8,0.6,11.9c-1-2.4-1.9-6.1-3.7-8.2
		c2.7,3.1,3.7,12.8,3.8,16.7c0.3,7.5-0.1,15.3-2.1,22.6c-1.6,6-2.9,13.2-1.6,19.4c-2.1-2.6-4.4-5.5-4.5-8.9
		c-1.9,4.9-2.8,17.3,0.3,21.7c-2-2.8-7.1,16.1-7.3,17c-1.3,8-2.6,14.3-6.2,21.8c-5.4-14.8,0.4-29.5-2.1-43.7
		c-0.9-5.2-6.4-11.7-9.5-16.5c-6.8-10.7-12.9-20.8-12.9-33.7c0-4.4,1.5-9.2-0.1-13.5c-0.7-2-2.5-3.1-3.3-4.8c-0.6-1.3-0.1-3-1-4.3
		c-3.5-4.9-11.9-1.6-16.9-3.8c-12.8-5.7-11.7-23.9-28-22.9c-4.1,0.2-6.8-0.6-10.3-2.5c-4.8-2.6-8.5-5.9-12.1-9.9
		c-6.9-7.5-10-9.5-20.8-9.6c-10.5-0.2-20.9,1.5-31.4,1.5c-8.2,0-12.3-0.1-19.8,2.3c-6.8,2.1-12.8-0.4-19.8,1
		c-3.9,0.8-9.6,4.6-11.1,8.1c2.2,0,4.3,1.4,6.7,1.1c0,0.3-0.1,1.9,0,2.2c-7.6,2.9-28.7-4.3-32.7,0.6c-6.6,8.1,9.2,13,14.9,12
		c0.3-0.3,0.3-0.3,0,0c-6.7,6-19.2,3.4-23.9-4.1c0.6,0.9-3.9,10.9-4.3,12.6c-0.9,3.8-0.6,6-0.2,9.6c1,9.8-2.2,19.7-2.4,29.4
		c-0.2,8.6,1.2,17.3-0.7,25.8c-1.4,6.5-5.9,10.5-9.4,16.4c-6.9,11.5-2.6,22.7-3.8,35C-267.1,401.2-273,413.7-269.7,422.7z"/>
	<g id="XMLID_1718_">
		<g id="XMLID_1915_">
			<path id="XMLID_1916_" fill="#FFFFFF" d="M-125.3,206.1c0,0-1.8,0.2-4.5,0.6c-2.7,0.4-6.3,0.9-9.9,1.7c-3.6,0.8-7,1.9-9.6,2.9
				c-1.3,0.5-2.3,1-3,1.3s-1.1,0.6-1.2,0.6c0,0-0.4,0.2-1.1,0.5c-0.7,0.4-1.7,0.9-2.8,1.6c-2.2,1.4-4.9,3.5-7.1,6.2
				c-1.1,1.3-2,2.7-2.8,4.1c-0.7,1.4-1.3,2.8-1.6,4c-0.2,0.6-0.3,1.2-0.4,1.7c-0.1,0.5-0.2,1-0.2,1.3c-0.1,0.7-0.1,1.2-0.1,1.2
				s0-0.4,0-1.2c0-0.4,0-0.8,0.1-1.3s0.1-1.1,0.3-1.7c0.2-1.3,0.7-2.7,1.3-4.2c0.7-1.5,1.5-3,2.6-4.4c2.1-2.9,4.7-5.3,7-6.9
				c1.1-0.8,2.1-1.4,2.8-1.8c0.7-0.4,1.1-0.6,1.2-0.6c0,0,0.5-0.2,1.3-0.5s1.9-0.8,3.2-1.2c2.7-0.9,6.3-1.8,10-2.3s7.3-0.9,10.1-1.1
				C-127.2,206.3-125.3,206.1-125.3,206.1z"/>
		</g>
		<g id="XMLID_1913_">
			<path id="XMLID_1914_" fill="#FFFFFF" d="M-137.4,198.1c0,0-0.4,0.1-1.2,0.2c-0.8,0.2-1.9,0.3-3.2,0.7c-2.6,0.6-6,1.8-9.2,3.3
				c-3.2,1.6-6.1,3.5-8.2,5.1c-1.1,0.8-1.9,1.5-2.5,2s-0.9,0.8-0.9,0.8s-0.4,0.3-0.9,0.8c-0.6,0.5-1.4,1.2-2.3,2.1
				c-1.9,1.7-4,4.3-6,7.1c-1.9,2.8-3.4,5.8-4.3,8.1c-0.5,1.1-0.7,2.2-1,2.8c-0.2,0.7-0.4,1.1-0.4,1.1s0.1-0.4,0.3-1.1
				s0.4-1.7,0.8-2.9c0.7-2.4,2.1-5.5,3.8-8.5c1.8-2.9,3.8-5.7,5.6-7.6c0.8-1,1.7-1.8,2.2-2.3c0.6-0.5,0.9-0.9,0.9-0.9s0.4-0.3,1-0.8
				c0.7-0.5,1.5-1.2,2.7-1.9c2.3-1.5,5.4-3.3,8.8-4.7c3.4-1.3,6.8-2.3,9.5-2.8c1.3-0.3,2.4-0.3,3.2-0.5
				C-137.8,198.2-137.4,198.1-137.4,198.1z"/>
		</g>
		<g id="XMLID_1911_">
			<path id="XMLID_1912_" fill="#FFFFFF" d="M-167.8,181.8c0,0,0.2,0.5,0.5,1.3c0.1,0.4,0.3,0.9,0.5,1.5s0.3,1.2,0.5,2
				c0.6,2.9,0.8,6.9-0.2,10.8c-0.3,1-0.5,1.9-0.9,2.9c-0.4,0.9-0.8,1.8-1.2,2.7c-0.5,0.8-1,1.6-1.4,2.4c-0.5,0.7-1,1.4-1.5,2
				c-1,1.2-1.9,2.1-2.6,2.8c-0.7,0.6-1,1-1.1,1c0,0-0.4,0.4-1.1,0.9c-0.7,0.6-1.7,1.3-2.8,2.3c-2.3,1.9-5.4,4.3-7.7,7.3
				s-3.7,6.7-3.8,9.5c0,1.4,0.2,2.6,0.4,3.4c0.3,0.8,0.5,1.2,0.5,1.2s-0.2-0.4-0.5-1.2c-0.3-0.8-0.6-2-0.7-3.4
				c-0.2-2.9,1.1-6.8,3.3-10c2.2-3.3,5.2-6,7.4-8s3.7-3.3,3.7-3.4c0,0,0.4-0.4,1.1-1c0.7-0.6,1.6-1.5,2.6-2.5c0.5-0.6,1-1.1,1.5-1.8
				s1-1.4,1.5-2.2c0.4-0.8,0.8-1.6,1.3-2.5c0.4-0.9,0.7-1.8,1-2.7c1.2-3.7,1.3-7.7,0.8-10.6c-0.1-0.7-0.2-1.4-0.3-2
				c-0.2-0.6-0.3-1.1-0.4-1.5C-167.7,182.3-167.8,181.8-167.8,181.8z"/>
		</g>
		<g id="XMLID_1909_">
			<path id="XMLID_1910_" fill="#FFFFFF" d="M-179.8,208c0,0-1,0.7-2.5,1.7c-1.5,0.9-3.3,2.5-5.1,4c-1.7,1.6-3.5,3.2-4.6,4.6
				c-0.6,0.7-1.1,1.2-1.4,1.6c-0.4,0.4-0.5,0.6-0.5,0.6s-0.8,0.9-2,2.1c-0.3,0.3-0.6,0.7-0.9,1c-0.3,0.4-0.6,0.8-0.9,1.2
				c-0.7,0.8-1.4,1.7-2,2.6c-1.2,1.9-2.6,3.7-3.3,5.3c-0.8,1.5-1.3,2.5-1.3,2.5s0.4-1,1.1-2.6c0.6-1.6,1.7-3.6,2.7-5.6
				c0.6-1,1.2-1.9,1.8-2.9c0.3-0.5,0.6-0.9,0.8-1.3c0.3-0.4,0.6-0.8,0.8-1.1c1.1-1.4,1.8-2.3,1.8-2.4c0,0,0.2-0.3,0.6-0.6
				c0.4-0.4,1-0.9,1.6-1.5c1.3-1.3,3.2-2.7,5.1-4.2c2-1.3,4-2.7,5.6-3.5C-180.8,208.6-179.8,208-179.8,208z"/>
		</g>
		<g id="XMLID_1907_">
			<path id="XMLID_1908_" fill="#FFFFFF" d="M-187.3,208.2c0,0-1.4,0.6-3.4,1.5c-2,1-4.6,2.3-7.1,4c-2.5,1.6-4.7,3.5-6.4,4.9
				c-0.8,0.7-1.5,1.4-2,1.8c-0.5,0.5-0.7,0.7-0.8,0.7c0,0-0.3,0.2-0.8,0.7c-0.5,0.4-1.1,1-1.9,1.8c-1.5,1.5-3.4,3.5-4.7,6
				c-0.3,0.6-0.6,1.2-0.8,1.9c-0.2,0.6-0.3,1.3-0.5,1.9c-0.2,1.3-0.1,2.5,0.1,3.5c0.3,1,0.6,1.8,0.9,2.3s0.5,0.8,0.5,0.8
				s-0.2-0.3-0.6-0.8c-0.4-0.5-0.8-1.3-1.2-2.3c-0.3-1-0.5-2.3-0.4-3.6c0.1-0.7,0.1-1.4,0.3-2c0.2-0.7,0.5-1.3,0.7-2
				c1.1-2.7,3-5,4.4-6.6c0.7-0.8,1.4-1.5,1.8-2c0.4-0.5,0.7-0.7,0.7-0.8c0,0,0.3-0.3,0.8-0.7s1.2-1.1,2.2-1.7
				c1.8-1.3,4.3-3.1,6.9-4.5c2.6-1.5,5.4-2.7,7.4-3.5C-188.7,208.7-187.3,208.2-187.3,208.2z"/>
		</g>
		<g id="XMLID_1905_">
			<path id="XMLID_1906_" fill="#FFFFFF" d="M-192.7,191.5c0,0,0,0.1,0.1,0.3c0.1,0.2,0.2,0.5,0.3,1c0.2,0.8,0.4,2.1,0.2,3.6
				c-0.2,1.5-0.7,3.2-1.6,4.9c-0.9,1.7-2.1,3.4-3.5,4.9s-3,2.9-4.4,4.2c-1.4,1.3-2.9,2.4-4.1,3.4c-2.4,1.9-4.1,3.2-4.1,3.3
				c0,0-0.5,0.3-1.2,0.8c-0.7,0.5-1.7,1.3-2.9,2.2c-2.4,1.8-5.3,4.4-7.6,7.6c-2.3,3.1-3.8,6.8-4.2,9.6c-0.1,0.7-0.1,1.4-0.2,2
				c0,0.6,0,1.1,0.1,1.5c0.1,0.8,0.2,1.3,0.2,1.3s-0.1-0.5-0.2-1.3c-0.1-0.4-0.1-0.9-0.1-1.5c0-0.6,0-1.3,0.1-2
				c0.2-2.9,1.5-6.7,3.7-10.1c2.1-3.4,5-6.3,7.3-8.2c1.1-1,2.1-1.9,2.8-2.4c0.7-0.6,1.1-0.9,1.1-0.9c0.1,0,1.8-1.3,4.3-3.1
				c1.2-0.9,2.8-1.9,4.2-3.1c1.4-1.2,3.1-2.5,4.5-3.9c2.9-2.8,5-6.3,5.5-9.3c0.3-1.5,0.2-2.7,0-3.6c-0.1-0.4-0.2-0.7-0.3-1
				C-192.6,191.7-192.7,191.5-192.7,191.5z"/>
		</g>
		<g id="XMLID_1903_">
			<path id="XMLID_1904_" fill="#FFFFFF" d="M-176.2,179.4c0,0,0.1,0.2,0.4,0.6c0.2,0.4,0.6,0.9,0.9,1.6c0.7,1.3,1.4,3.3,1.7,5.3
				s0.1,4.1-0.2,5.6c-0.1,0.8-0.4,1.4-0.5,1.8c-0.1,0.5-0.2,0.7-0.3,0.7c0,0-0.1,0.2-0.4,0.6c-0.2,0.4-0.5,1-1.1,1.6
				c-0.9,1.3-2.4,2.7-4.1,3.9c-1.7,1.1-3.6,2-5,2.4c-0.7,0.3-1.3,0.3-1.8,0.4c-0.4,0.1-0.7,0.1-0.7,0.1s0.2-0.1,0.7-0.2
				c0.4-0.2,1-0.3,1.7-0.6c1.4-0.6,3.1-1.6,4.5-2.8c1.4-1.3,2.6-2.7,3.3-4c0.4-0.6,0.6-1.1,0.8-1.5c0.2-0.4,0.3-0.6,0.3-0.6
				s0.1-0.2,0.3-0.6c0.1-0.4,0.5-0.9,0.7-1.6c0.5-1.4,0.8-3.2,0.8-5.2c-0.1-1.9-0.4-3.9-1-5.2c-0.2-0.7-0.6-1.2-0.7-1.6
				C-176.1,179.6-176.2,179.4-176.2,179.4z"/>
		</g>
		<g id="XMLID_1901_">
			<path id="XMLID_1902_" fill="#FFFFFF" d="M-273.9,208.1c0,0,0.8-1.1,2-2.7c1.1-1.7,3.1-3.5,4.9-5.5c2.1-1.7,4.1-3.6,5.9-4.7
				c1.7-1.2,2.9-2,2.9-2s1.3-0.6,3.2-1.4c0.5-0.2,1-0.4,1.5-0.6c0.6-0.2,1.1-0.4,1.7-0.6c1.2-0.4,2.5-0.8,3.8-1.1
				c2.7-0.5,5.2-1.1,7.3-1.2c2-0.2,3.3-0.3,3.3-0.3s-1.3,0.2-3.3,0.6c-2,0.2-4.5,1.1-7,1.8c-1.2,0.5-2.4,1-3.6,1.4
				c-0.6,0.2-1.1,0.5-1.6,0.7c-0.5,0.3-1,0.5-1.4,0.8c-1.7,0.9-2.9,1.6-2.9,1.6c-0.1,0-1.2,0.7-3,1.7c-1.8,0.9-3.9,2.6-6.1,4.1
				c-2,1.8-4.1,3.5-5.3,5C-273,207.1-273.9,208.1-273.9,208.1z"/>
		</g>
		<g id="XMLID_1899_">
			<path id="XMLID_1900_" fill="#FFFFFF" d="M-275,218.8c0,0,0.1-0.2,0.2-0.6c0.1-0.4,0.2-1,0.5-1.6c0.4-1.3,1.3-3,2.3-4.6
				c1.1-1.6,2.3-3,3.4-4c0.5-0.5,1-0.9,1.3-1.2c0.3-0.3,0.5-0.4,0.6-0.5c0,0,0.2-0.1,0.6-0.3c0.4-0.2,0.9-0.5,1.5-0.8
				c1.3-0.7,3.1-1.3,4.9-1.8c1.8-0.4,3.7-0.6,5.1-0.7c0.7,0,1.3,0,1.7,0c0.4,0,0.6,0,0.6,0s-0.2,0-0.6,0.1c-0.4,0-1,0-1.7,0.2
				c-1.4,0.2-3.2,0.6-4.8,1.3c-1.7,0.7-3.3,1.5-4.4,2.2c-0.6,0.3-1,0.7-1.3,0.9c-0.3,0.2-0.5,0.4-0.5,0.4s-0.2,0.1-0.6,0.4
				c-0.3,0.2-0.8,0.5-1.4,1c-1.1,0.8-2.5,2-3.7,3.4c-1.2,1.4-2.2,2.9-2.8,4.2c-0.3,0.6-0.5,1.1-0.7,1.5
				C-274.9,218.6-275,218.8-275,218.8z"/>
		</g>
		<g id="XMLID_1897_">
			<path id="XMLID_1898_" fill="#FFFFFF" d="M-260.4,229.9c0,0,0-0.2,0.1-0.6c0.1-0.4,0.1-0.9,0.2-1.6c0.2-1.3,0.7-3,1.4-4.7
				c0.7-1.7,1.6-3.3,2.4-4.4c0.4-0.6,0.8-1,1-1.4c0.2-0.3,0.4-0.5,0.4-0.5s0.2-0.2,0.5-0.4c0.3-0.3,0.7-0.7,1.3-1.1
				c1.1-0.9,2.6-1.8,4.2-2.7c1.6-0.8,3.3-1.4,4.6-1.8c0.6-0.2,1.2-0.3,1.6-0.4c0.4-0.1,0.6-0.1,0.6-0.1s-0.2,0.1-0.6,0.2
				s-0.9,0.3-1.5,0.6c-1.2,0.5-2.8,1.3-4.2,2.3c-1.4,1-2.7,2.1-3.6,3c-0.5,0.4-0.8,0.9-1.1,1.1c-0.3,0.3-0.4,0.5-0.4,0.5
				s-0.2,0.2-0.5,0.4c-0.3,0.3-0.7,0.7-1.1,1.1c-0.9,1-1.9,2.4-2.8,3.9s-1.6,3.1-1.9,4.4c-0.2,0.6-0.3,1.2-0.4,1.5
				C-260.3,229.7-260.4,229.9-260.4,229.9z"/>
		</g>
		<g id="XMLID_1895_">
			<path id="XMLID_1896_" fill="#FFFFFF" d="M-278.2,250.8c0,0,0.2-0.3,0.5-0.8c0.4-0.5,0.9-1.2,1.7-1.9c1.6-1.5,4.1-2.9,6.8-4.1
				c2.7-1.2,5.4-2.2,7.2-3.3c0.9-0.5,1.7-0.9,2.2-1.3c0.5-0.3,0.8-0.6,0.8-0.6s0.3-0.2,0.9-0.5c0.3-0.2,0.6-0.3,1-0.5
				c0.3-0.2,0.7-0.5,1.2-0.8c0.4-0.3,0.9-0.6,1.4-0.9c0.5-0.4,0.9-0.8,1.4-1.2s1-0.8,1.5-1.3s1-0.9,1.4-1.4c0.5-0.5,0.9-1,1.4-1.5
				c0.4-0.5,0.9-1,1.3-1.5c0.8-1,1.4-2,2-2.8c1-1.8,1.7-3,1.7-3s-0.6,1.2-1.4,3.1c-0.5,0.9-1.1,1.9-1.8,3c-0.4,0.5-0.8,1.1-1.1,1.6
				c-0.4,0.6-0.8,1.1-1.3,1.6s-0.9,1.1-1.3,1.6c-0.4,0.5-1,1-1.4,1.4c-0.5,0.5-0.9,0.9-1.4,1.3s-0.9,0.7-1.3,1.1
				c-0.4,0.3-0.8,0.6-1.1,0.9c-0.3,0.3-0.7,0.5-0.9,0.6c-0.5,0.4-0.8,0.6-0.9,0.6c0,0-0.4,0.2-0.9,0.5c-0.6,0.3-1.5,0.7-2.5,1.1
				c-2,0.9-4.8,1.8-7.5,2.7c-2.7,0.9-5.3,2.2-7,3.5c-0.8,0.7-1.4,1.3-1.8,1.8C-277.9,250.6-278.2,250.8-278.2,250.8z"/>
		</g>
		<g id="XMLID_1893_">
			<path id="XMLID_1894_" fill="#FFFFFF" d="M-273.7,277.4c0,0,0-0.4,0-1c0-0.6-0.1-1.5,0-2.6c0-2.2,0.4-5,1.2-7.9
				c0.8-2.8,2.1-5.5,3.2-7.4c0.5-1,1.1-1.7,1.5-2.3c0.4-0.6,0.6-0.9,0.6-0.9s0.3-0.3,0.7-0.8c0.5-0.5,1.1-1.2,1.9-1.9
				c1.6-1.5,4.1-3.2,6.6-4.6c2.6-1.4,5.3-2.4,7.4-3c1-0.3,2-0.4,2.6-0.6c0.6-0.1,1-0.2,1-0.2s-0.3,0.1-1,0.3
				c-0.6,0.2-1.5,0.4-2.5,0.8c-2,0.7-4.6,1.9-7,3.5c-2.3,1.6-4.6,3.4-6,4.9c-0.8,0.7-1.3,1.4-1.7,1.9c-0.4,0.5-0.6,0.8-0.6,0.8
				s-0.3,0.3-0.7,0.8s-1,1.2-1.6,2.1c-1.2,1.8-2.6,4.3-3.7,6.9c-1,2.7-1.6,5.5-1.8,7.6c-0.2,1.1-0.1,2-0.2,2.6
				C-273.7,277-273.7,277.4-273.7,277.4z"/>
		</g>
		<g id="XMLID_1891_">
			<path id="XMLID_1892_" fill="#FFFFFF" d="M-282,265.9c0,0-0.2-0.3-0.4-0.7c-0.3-0.5-0.7-1.1-1.1-2c-0.9-1.7-1.7-4-2.2-6.5
				s-0.6-5-0.5-6.9c0-1,0.2-1.8,0.2-2.3c0.1-0.6,0.1-0.9,0.1-0.9s0.1-0.3,0.3-0.9c0.2-0.5,0.4-1.3,0.7-2.2c0.6-1.8,1.8-4,3.2-6
				c1.4-2,3.1-3.8,4.6-5c0.7-0.6,1.4-1,1.8-1.4c0.4-0.3,0.7-0.5,0.7-0.5s-0.2,0.2-0.6,0.6c-0.4,0.4-1,0.8-1.6,1.5
				c-1.3,1.3-2.8,3.2-4,5.3c-1.1,2.1-2.1,4.3-2.5,6c-0.3,0.8-0.4,1.6-0.5,2.1s-0.2,0.8-0.2,0.8s-0.1,0.3-0.2,0.9
				c-0.1,0.5-0.3,1.3-0.4,2.2c-0.3,1.8-0.4,4.2-0.2,6.7c0.3,2.4,0.9,4.8,1.6,6.5c0.3,0.9,0.7,1.5,0.9,2
				C-282.1,265.6-282,265.9-282,265.9z"/>
		</g>
		<g id="XMLID_1889_">
			<path id="XMLID_1890_" fill="#FFFFFF" d="M-282.1,287.8c0,0,0.9-2.9,1.8-5.9c0.7-3,1.5-6,1.5-6s1-2.9,2-5.7
				c0.8-2.9,1.6-5.7,1.6-5.7s-0.4,3-0.7,5.9c-0.5,3-1.1,5.9-1.1,6c0,0-0.1,0.2-0.2,0.5c-0.1,0.3-0.3,0.8-0.6,1.3
				c-0.5,1.1-1.1,2.5-1.7,4C-280.8,285-282.1,287.8-282.1,287.8z"/>
		</g>
		<g id="XMLID_1887_">
			<path id="XMLID_1888_" fill="#FFFFFF" d="M-282.3,308.1c0,0,0.4-1.3,1.1-3.2c0.6-2,1.7-4.5,2.7-7c1.2-2.5,2.3-5,3.4-6.8
				c0.5-0.9,0.9-1.7,1.2-2.2c0.3-0.6,0.5-0.9,0.5-0.9s0.9-1.1,2.1-2.8c0.3-0.4,0.6-0.9,1-1.3c0.4-0.5,0.8-0.9,1.2-1.4
				c0.8-1,1.7-2,2.6-3.1c1.9-2,3.6-4,5.1-5.4c1.5-1.4,2.4-2.3,2.4-2.3s-0.9,1-2.2,2.5c-1.4,1.5-3,3.6-4.6,5.7
				c-0.8,1.1-1.5,2.2-2.2,3.2c-0.4,0.5-0.7,1-1,1.5s-0.6,1-0.8,1.4c-1.1,1.7-1.8,2.9-1.8,2.9s-0.2,0.3-0.6,0.8
				c-0.3,0.5-0.8,1.2-1.4,2.1c-1.2,1.7-2.5,4.1-3.9,6.5c-1.2,2.4-2.6,4.8-3.3,6.7C-281.7,306.9-282.3,308.1-282.3,308.1z"/>
		</g>
		<g id="XMLID_1885_">
			<path id="XMLID_1886_" fill="#FFFFFF" d="M-277.7,312.4c0,0,0.5-0.8,1.1-1.9c0.6-1.2,1.8-2.6,2.9-4.1c1.3-1.3,2.5-2.8,3.6-3.7
				c0.5-0.5,1-0.9,1.3-1.1c0.3-0.3,0.5-0.4,0.5-0.4s0.8-0.5,2.1-1.1c0.3-0.2,0.6-0.3,1-0.5c0.4-0.2,0.7-0.3,1.1-0.5
				c0.8-0.3,1.6-0.7,2.5-1.1c1.8-0.5,3.4-1.2,4.8-1.4c1.3-0.3,2.2-0.5,2.2-0.5s-0.8,0.3-2.1,0.7c-1.3,0.4-2.9,1.2-4.5,1.9
				c-0.8,0.4-1.5,0.9-2.2,1.3c-0.4,0.2-0.7,0.4-1,0.6c-0.3,0.2-0.6,0.4-0.9,0.6c-1.1,0.8-1.8,1.3-1.8,1.3s-0.8,0.5-1.9,1.3
				c-1.2,0.7-2.5,1.9-3.9,3.1c-1.2,1.3-2.6,2.5-3.3,3.6C-277.2,311.7-277.7,312.4-277.7,312.4z"/>
		</g>
		<g id="XMLID_1883_">
			<path id="XMLID_1884_" fill="#FFFFFF" d="M-282.8,332.2c0,0,0.5-1.1,1.2-2.7c0.6-1.7,1.9-3.6,3.1-5.7c1.4-1.9,2.7-3.9,4-5.3
				c0.6-0.7,1.1-1.3,1.5-1.7s0.6-0.6,0.6-0.6s1-0.8,2.4-1.9c0.4-0.3,0.7-0.6,1.1-0.9s0.9-0.6,1.4-0.9c0.9-0.6,1.9-1.2,3-1.8
				c2.1-1.1,4.2-2.2,5.9-2.8c1.6-0.6,2.7-1.1,2.7-1.1s-1,0.5-2.6,1.3c-1.6,0.7-3.5,2.1-5.5,3.3c-0.9,0.7-1.8,1.4-2.7,2.1
				c-0.4,0.3-0.8,0.7-1.2,1s-0.7,0.7-1,1c-1.3,1.2-2.1,2-2.1,2s-0.3,0.2-0.6,0.6c-0.4,0.4-0.9,0.9-1.6,1.5c-1.4,1.2-2.8,3-4.4,4.7
				c-1.4,1.9-2.8,3.8-3.6,5.3C-282.2,331.2-282.8,332.2-282.8,332.2z"/>
		</g>
		<g id="XMLID_1881_">
			<path id="XMLID_1882_" fill="#FFFFFF" d="M-278.6,339.7c0,0,0.2-0.7,0.6-1.8c0.3-1.1,1.1-2.4,1.7-3.8c0.9-1.2,1.7-2.6,2.6-3.4
				c0.8-0.9,1.4-1.5,1.4-1.5s0.7-0.4,1.7-1c0.3-0.1,0.5-0.3,0.8-0.5c0.3-0.1,0.6-0.3,1-0.4c0.7-0.3,1.4-0.6,2.1-0.8
				c1.5-0.4,3-0.8,4.1-0.9c1.1-0.1,1.9-0.2,1.9-0.2s-0.7,0.2-1.8,0.5c-1.1,0.2-2.4,0.9-3.8,1.4c-0.6,0.3-1.3,0.8-1.8,1.1
				c-0.3,0.2-0.6,0.3-0.8,0.5c-0.2,0.2-0.5,0.4-0.7,0.6c-0.8,0.7-1.4,1.1-1.4,1.2c0,0-0.6,0.5-1.5,1.1c-1,0.6-1.9,1.7-3,2.8
				c-0.8,1.2-1.8,2.4-2.2,3.4C-278.3,339-278.6,339.7-278.6,339.7z"/>
		</g>
		<g id="XMLID_1879_">
			<path id="XMLID_1880_" fill="#FFFFFF" d="M-280,356.9c0,0,0.2-0.8,0.4-2c0.2-1.2,0.8-2.8,1.3-4.4c0.7-1.6,1.3-3.2,1.9-4.3
				c0.3-0.6,0.6-1.1,0.7-1.4c0.2-0.3,0.3-0.5,0.3-0.5s0.6-0.7,1.4-1.6c0.2-0.2,0.4-0.5,0.7-0.8c0.3-0.3,0.5-0.5,0.8-0.8
				c0.6-0.5,1.2-1.1,1.8-1.7c1.3-1.1,2.6-2.2,3.6-2.8c1-0.7,1.7-1.2,1.7-1.2s-0.6,0.6-1.5,1.4c-1,0.8-2,2-3.1,3.2
				c-0.5,0.6-1,1.3-1.5,1.9c-0.2,0.3-0.5,0.6-0.7,0.9c-0.2,0.3-0.4,0.6-0.5,0.8c-0.7,1-1.1,1.7-1.1,1.7s-0.2,0.2-0.4,0.5
				c-0.2,0.3-0.5,0.7-0.9,1.2c-0.8,1-1.6,2.4-2.4,3.9c-0.7,1.5-1.5,3-1.9,4.2C-279.7,356.1-280,356.9-280,356.9z"/>
		</g>
		<g id="XMLID_1877_">
			<path id="XMLID_1878_" fill="#FFFFFF" d="M-286.6,328.4c0,0,0.3-0.2,0.9-0.7c0.5-0.5,1.3-1.1,1.9-2.1c1.4-2,2.2-5.1,2-8.2
				c-0.1-1.5-0.4-3.1-0.9-4.5c-0.2-0.7-0.4-1.4-0.6-2c-0.2-0.6-0.5-1.2-0.7-1.8c-0.9-2.2-1.6-3.7-1.6-3.8c0,0-0.1-0.4-0.4-1.1
				c-0.2-0.6-0.5-1.6-0.8-2.8c-0.7-2.2-1.3-5.4-1.3-8.5s0.5-6.2,1.1-8.4c0.2-0.6,0.3-1.1,0.4-1.5c0.2-0.4,0.3-0.8,0.4-1.1
				c0.2-0.6,0.4-1,0.4-1s-0.1,0.4-0.3,1c-0.1,0.3-0.2,0.7-0.3,1.2s-0.2,1-0.3,1.5c-0.5,2.2-0.7,5.3-0.5,8.3c0.3,3,1,6,1.9,8.1
				c0.4,1.1,0.7,2,1,2.6c0.3,0.6,0.4,1,0.4,1s0.1,0.4,0.4,1.1c0.2,0.7,0.5,1.6,0.9,2.8c0.2,0.6,0.4,1.2,0.6,1.9
				c0.2,0.7,0.3,1.4,0.5,2.1c0.4,1.5,0.6,3.1,0.6,4.7c-0.1,3.2-1.1,6.4-2.7,8.4c-0.8,1-1.6,1.6-2.1,2
				C-286.2,328.2-286.6,328.4-286.6,328.4z"/>
		</g>
		<g id="XMLID_1875_">
			<path id="XMLID_1876_" fill="#FFFFFF" d="M-284.9,383.3c0,0,5.2-10.6,5.2-10.7c0.1-0.1,6.7-9.5,6.7-9.5s-5,10.3-5.1,10.4
				C-278,373.6-284.9,383.3-284.9,383.3z"/>
		</g>
		<g id="XMLID_1873_">
			<path id="XMLID_1874_" fill="#FFFFFF" d="M-278.7,389.6c0,0,2.4-8.1,2.4-8.2s4.1-7.3,4.1-7.3l-2.3,7.9
				C-274.6,382.2-278.7,389.6-278.7,389.6z"/>
		</g>
		<g id="XMLID_1871_">
			<path id="XMLID_1872_" fill="#FFFFFF" d="M-273.6,393.9c0,0-1-3.7-1-3.8l1-3.6l1,3.6C-272.6,390.2-273.6,393.9-273.6,393.9z"/>
		</g>
		<g id="XMLID_1869_">
			<path id="XMLID_1870_" fill="#FFFFFF" d="M-213.6,252.6c0,0-0.4,0.1-1,0.3c-0.6,0.2-1.6,0.4-2.7,0.6c-2.3,0.3-5.4,0.5-8.4-0.1
				c-3.1-0.6-6-2-7.9-3.4c-0.5-0.4-0.9-0.7-1.3-1c-0.3-0.3-0.6-0.6-0.9-0.9c-0.5-0.5-0.8-0.8-0.8-0.8s-0.2-0.4-0.6-0.9
				c-0.4-0.5-0.8-1.4-1.3-2.5c-0.8-2.1-1.3-5.2-0.4-8c0.8-2.8,2.8-5.2,4.6-6.4c0.9-0.7,1.8-1,2.4-1.2s1-0.3,1-0.3s-0.3,0.1-0.9,0.4
				c-0.6,0.3-1.4,0.7-2.2,1.4c-1.7,1.3-3.3,3.8-3.9,6.4c-0.6,2.7,0,5.4,0.9,7.2c0.5,0.9,0.9,1.7,1.3,2.1c0.4,0.5,0.6,0.8,0.6,0.8
				s0.2,0.3,0.6,0.8c0.2,0.2,0.4,0.5,0.7,0.9c0.3,0.3,0.7,0.6,1.1,1c1.6,1.4,4.2,2.9,7,3.7c2.9,0.8,5.9,0.9,8.2,0.7
				c1.1-0.1,2.1-0.2,2.7-0.3C-214,252.7-213.6,252.6-213.6,252.6z"/>
		</g>
		<g id="XMLID_1867_">
			<path id="XMLID_1868_" fill="#FFFFFF" d="M-210.3,252.3c0,0-0.2,0-0.7,0.1c-0.4,0.1-1,0.3-1.8,0.3c-1.5,0.2-3.5,0.1-5.5-0.3
				c-2-0.5-3.9-1.3-5.2-2.1c-0.7-0.4-1.2-0.8-1.5-1.1c-0.4-0.3-0.6-0.4-0.6-0.5c0,0-0.2-0.2-0.5-0.5c-0.3-0.3-0.7-0.8-1.1-1.4
				c-0.9-1.2-1.6-3-2.2-4.8c-0.5-1.8-0.6-3.7-0.5-5.1c0-0.7,0.2-1.2,0.2-1.6c0.1-0.4,0.1-0.6,0.1-0.6s0,0.2,0,0.6c0,0.4-0.1,1,0,1.6
				c0.1,1.3,0.4,3.1,1.1,4.8c0.7,1.6,1.6,3.2,2.6,4.1c0.4,0.5,0.8,0.9,1.1,1.2c0.3,0.3,0.5,0.4,0.5,0.4s0.2,0.2,0.5,0.5
				s0.7,0.7,1.3,1.1c1.1,0.9,2.7,1.8,4.5,2.4c1.8,0.6,3.7,0.9,5.2,0.9c0.7,0.1,1.3-0.1,1.8-0.1
				C-210.5,252.3-210.3,252.3-210.3,252.3z"/>
		</g>
		<g id="XMLID_1865_">
			<path id="XMLID_1866_" fill="#FFFFFF" d="M-253.2,269.4c0,0-0.2-1.1-0.5-2.6c-0.1-0.8-0.1-1.7-0.1-2.8c0.1-1,0.1-2.1,0.3-3.2
				c0.4-2.2,1.1-4.3,1.8-5.8c0.4-0.8,0.7-1.4,0.9-1.8c0.3-0.4,0.4-0.7,0.5-0.7c0,0,0.2-0.2,0.5-0.6c0.3-0.4,0.7-1,1.4-1.5
				c0.6-0.6,1.3-1.3,2.1-1.9c0.8-0.6,1.7-1.2,2.5-1.9c0.4-0.3,0.8-0.7,1.2-1c0.4-0.3,0.7-0.7,1-1.1c0.6-0.8,1-1.6,1.2-2.3
				c0.2-0.7,0.2-1.4,0.2-1.8c-0.1-0.4-0.1-0.7-0.1-0.7s0.1,0.3,0.2,0.7s0.1,1.1,0,1.9s-0.5,1.7-1,2.5c-0.3,0.4-0.6,0.9-1,1.2
				c-0.3,0.4-0.7,0.8-1.1,1.2c-0.8,0.8-1.6,1.5-2.3,2.2c-0.7,0.7-1.2,1.4-1.8,2c-0.5,0.6-0.8,1.1-1.1,1.5s-0.4,0.6-0.4,0.6
				s-0.2,0.2-0.5,0.6c-0.3,0.4-0.6,1-1,1.6c-0.8,1.3-1.7,3.3-2.3,5.3c-0.3,1-0.4,2.1-0.6,3c-0.1,1-0.1,1.9-0.2,2.7
				C-253.3,268.4-253.2,269.4-253.2,269.4z"/>
		</g>
		<g id="XMLID_1863_">
			<path id="XMLID_1864_" fill="#FFFFFF" d="M-255.8,227.9c0,0,0.2-0.2,0.5-0.7c0.3-0.4,0.7-1.1,1.3-1.7c1.1-1.4,2.9-3.1,4.8-4.6
				c2-1.4,4.2-2.7,5.9-3.4c0.9-0.4,1.6-0.6,2.2-0.9c0.5-0.2,0.8-0.3,0.9-0.3c0,0,0.3-0.1,0.9-0.2c0.5-0.1,1.3-0.3,2.2-0.4
				c1.8-0.3,4.3-0.3,6.7-0.2c2.4,0.2,4.8,0.7,6.5,1.3c0.9,0.2,1.5,0.6,2,0.8s0.8,0.3,0.8,0.3s-0.3-0.1-0.8-0.2s-1.2-0.4-2.1-0.6
				c-1.7-0.4-4.1-0.7-6.4-0.7c-2.4,0.1-4.7,0.3-6.4,0.8c-0.9,0.2-1.6,0.4-2.1,0.5c-0.5,0.1-0.8,0.2-0.8,0.2s-0.3,0.1-0.8,0.2
				c-0.5,0.2-1.3,0.3-2.1,0.6c-1.7,0.6-3.9,1.5-6,2.7c-2,1.3-3.9,2.7-5.2,4c-0.7,0.6-1.1,1.2-1.5,1.6
				C-255.6,227.7-255.8,227.9-255.8,227.9z"/>
		</g>
		<g id="XMLID_1861_">
			<path id="XMLID_1862_" fill="#FFFFFF" d="M-240.5,204.7c0,0,0-0.2,0-0.6c0-0.2,0-0.5,0-0.7c0.1-0.3,0.1-0.6,0.2-1
				c0.4-1.4,1.5-3.1,3.2-4.3c1.7-1.2,3.9-1.6,5.4-1.6c0.8,0,1.5,0.1,1.9,0.1c0.5,0.1,0.7,0.1,0.8,0.1c0,0,0.3,0.1,0.7,0.2
				c0.4,0.1,1,0.4,1.7,0.8c0.3,0.2,0.7,0.4,1,0.6s0.7,0.5,1.1,0.8c0.7,0.6,1.4,1.2,2.1,1.9c0.6,0.7,1.2,1.4,1.7,2.1s1,1.4,1.3,2
				c0.7,1.2,1.2,2,1.2,2s-0.6-0.7-1.4-1.8c-0.4-0.5-1-1.1-1.6-1.8c-0.6-0.6-1.3-1.2-2-1.8c-0.7-0.6-1.5-1.1-2.2-1.6
				c-0.4-0.2-0.7-0.4-1.1-0.6c-0.4-0.2-0.7-0.3-1-0.4c-0.6-0.2-1.2-0.4-1.5-0.5c-0.4-0.1-0.6-0.1-0.6-0.1s-0.2-0.1-0.6-0.2
				c-0.4-0.1-0.9-0.2-1.6-0.3c-1.3-0.2-3.2,0-4.9,0.8c-1.7,0.8-2.9,2.3-3.4,3.6c-0.1,0.3-0.2,0.6-0.3,0.9c-0.1,0.3-0.1,0.5-0.1,0.7
				C-240.4,204.4-240.5,204.7-240.5,204.7z"/>
		</g>
		<g id="XMLID_1859_">
			<path id="XMLID_1860_" fill="#FFFFFF" d="M-235.6,182.8c0,0,0-0.4,0-1.1c0.1-0.7,0.2-1.7,0.6-2.9c0.7-2.3,2.7-5.3,5.5-7.2
				c2.8-2,6.5-2.8,9.1-2.8c0.7,0,1.3,0,1.8,0c0.5,0.1,1,0.1,1.4,0.2c0.8,0.1,1.2,0.2,1.3,0.2c0,0,0.5,0.2,1.2,0.4
				c0.4,0.1,0.8,0.3,1.3,0.5c0.5,0.2,1,0.4,1.6,0.8c2.3,1.2,5,3.3,6.9,6c2,2.6,3.2,5.6,3.9,7.9c0.3,1.1,0.6,2.1,0.6,2.8
				c0.1,0.7,0.2,1.1,0.2,1.1s-0.1-0.4-0.3-1c-0.1-0.7-0.5-1.6-0.9-2.7c-0.8-2.2-2.3-5-4.3-7.4c-2-2.4-4.7-4.2-6.9-5.2
				c-0.5-0.2-1.1-0.4-1.5-0.6c-0.4-0.2-0.8-0.3-1.2-0.4c-0.7-0.2-1.1-0.3-1.1-0.3s-0.4-0.2-1.1-0.3c-0.4-0.1-0.8-0.2-1.3-0.3
				c-0.5-0.1-1.1-0.1-1.7-0.2c-2.4-0.1-5.8,0.3-8.6,2c-2.8,1.6-4.9,4.3-5.8,6.6c-0.5,1.1-0.6,2.1-0.8,2.8
				C-235.6,182.4-235.6,182.8-235.6,182.8z"/>
		</g>
		<g id="XMLID_1857_">
			<path id="XMLID_1858_" fill="#FFFFFF" d="M-231,164.1c0,0,0.2-0.2,0.6-0.5c0.2-0.1,0.4-0.3,0.6-0.5c0.1-0.1,0.3-0.2,0.4-0.3
				c0.2-0.1,0.3-0.2,0.5-0.3c1.3-0.9,3.5-1.6,5.6-1.8c2.2-0.2,4.4,0,6.1,0.4c0.8,0.2,1.5,0.4,2,0.6c0.5,0.1,0.8,0.3,0.8,0.3
				s0.3,0.1,0.7,0.4c0.4,0.2,1,0.5,1.7,1c1.4,0.8,3,2.2,4.4,3.6c1.5,1.4,2.8,3,3.8,4.1c0.9,1.2,1.6,2,1.6,2s-0.7-0.7-1.8-1.8
				c-1.1-1.1-2.6-2.4-4.2-3.7c-1.6-1.2-3.3-2.4-4.6-3c-0.7-0.4-1.2-0.6-1.7-0.8c-0.4-0.2-0.7-0.3-0.7-0.3s-0.2-0.1-0.7-0.3
				c-0.4-0.2-1-0.5-1.7-0.7c-1.5-0.5-3.5-0.9-5.6-0.9c-2.1,0.1-4.2,0.5-5.6,1.2c-0.2,0.1-0.4,0.1-0.5,0.2c-0.1,0.1-0.3,0.2-0.4,0.3
				c-0.3,0.2-0.5,0.3-0.7,0.4C-230.8,164-231,164.1-231,164.1z"/>
		</g>
		<g id="XMLID_1855_">
			<path id="XMLID_1856_" fill="#FFFFFF" d="M-170.3,166.2c0,0-0.2,0-0.6,0.1c-0.4,0.1-0.9,0.1-1.4,0.2c-1.2,0.2-2.7,0.7-4.2,1.3
				c-1.4,0.7-2.8,1.5-3.7,2.2c-0.5,0.3-0.8,0.7-1.1,0.9s-0.4,0.4-0.4,0.4s-0.2,0.1-0.4,0.3c-0.3,0.2-0.7,0.5-1.1,0.8
				c-0.9,0.7-1.9,1.8-2.9,2.9c-0.9,1.2-1.7,2.5-2.1,3.5c-0.3,0.5-0.4,1-0.5,1.3s-0.2,0.5-0.2,0.5s0-0.2,0.1-0.5
				c0.1-0.3,0.1-0.8,0.3-1.3c0.3-1.1,0.8-2.6,1.6-3.9c0.8-1.4,1.7-2.7,2.6-3.5c0.4-0.5,0.8-0.8,1-1.1c0.3-0.3,0.4-0.4,0.4-0.4
				s0.2-0.1,0.5-0.3s0.8-0.5,1.3-0.8c1.1-0.6,2.7-1.3,4.3-1.7s3.3-0.7,4.5-0.7c0.6-0.1,1.1,0,1.5,0
				C-170.5,166.2-170.3,166.2-170.3,166.2z"/>
		</g>
		<g id="XMLID_1853_">
			<path id="XMLID_1854_" fill="#FFFFFF" d="M-150.4,152.7c0,0-0.3,0-0.8-0.1c-0.3,0-0.6,0-0.9-0.1c-0.3,0-0.7-0.1-1.2,0
				c-1.7,0-4,0.5-6.1,1.3c-2.1,0.9-3.9,2.2-5.1,3.3c-0.6,0.5-1,1.1-1.3,1.5s-0.5,0.6-0.5,0.6s-0.2,0.2-0.5,0.6
				c-0.3,0.4-0.7,0.9-1.1,1.6c-0.2,0.3-0.4,0.7-0.6,1.1c-0.2,0.4-0.3,0.9-0.5,1.3c-0.1,0.2-0.2,0.5-0.3,0.7s-0.1,0.5-0.2,0.7
				c-0.1,0.5-0.3,1-0.3,1.5c-0.3,2.1-0.1,4.2,0.3,5.8c0.1,0.8,0.5,1.4,0.6,1.8c0.2,0.4,0.3,0.7,0.3,0.7s-0.1-0.2-0.3-0.7
				c-0.2-0.4-0.6-1-0.8-1.8c-0.6-1.5-1-3.7-0.9-5.9c0-0.6,0.1-1.1,0.2-1.6c0-0.3,0.1-0.5,0.1-0.8c0.1-0.3,0.1-0.5,0.2-0.8
				c0.1-0.5,0.3-1,0.4-1.5c0.2-0.5,0.4-0.9,0.5-1.3c0.3-0.8,0.7-1.4,1-1.9c0.3-0.4,0.4-0.7,0.4-0.7s0.2-0.3,0.6-0.6
				c0.4-0.4,0.9-0.9,1.6-1.5c1.4-1.1,3.5-2.3,5.8-3c2.3-0.6,4.7-0.9,6.4-0.7c0.4,0,0.8,0,1.2,0.1c0.3,0.1,0.7,0.1,0.9,0.2
				C-150.7,152.6-150.4,152.7-150.4,152.7z"/>
		</g>
		<g id="XMLID_1851_">
			<path id="XMLID_1852_" fill="#FFFFFF" d="M-191,141.1c0,0,0.6,0.3,1.6,0.8s2.1,1.3,3.3,2.1c1.1,0.9,2.2,1.8,2.9,2.7
				c0.7,0.8,1.3,1.3,1.3,1.4c0,0,0.3,0.6,0.8,1.6c0.1,0.2,0.3,0.5,0.4,0.7c0.1,0.3,0.2,0.6,0.3,0.9c0.2,0.6,0.5,1.2,0.7,1.9
				c0.3,1.3,0.7,2.6,0.8,3.6s0.2,1.6,0.2,1.6s-0.2-0.6-0.5-1.6s-0.9-2.1-1.4-3.3c-0.3-0.6-0.7-1.1-1-1.7c-0.2-0.3-0.3-0.5-0.5-0.8
				c-0.2-0.2-0.3-0.4-0.5-0.6c-0.6-0.8-1-1.3-1-1.3s-0.4-0.6-0.9-1.4c-0.5-0.9-1.4-1.9-2.3-2.9c-1-0.9-1.9-2-2.8-2.5
				C-190.4,141.6-191,141.1-191,141.1z"/>
		</g>
		<g id="XMLID_1849_">
			<path id="XMLID_1850_" fill="#FFFFFF" d="M-201.9,145.9c0,0,0.7,0.3,1.8,0.7s2.4,1.3,3.8,2.1c1.2,1,2.5,1.9,3.3,2.9
				c0.8,0.9,1.4,1.5,1.4,1.5s0.4,0.7,0.9,1.8c0.1,0.3,0.3,0.5,0.4,0.8c0.1,0.3,0.2,0.6,0.3,1c0.2,0.7,0.5,1.4,0.7,2.1
				c0.2,1.5,0.6,2.9,0.5,4c0,1.1,0,1.8,0,1.8s-0.1-0.7-0.3-1.8c-0.1-1.1-0.7-2.4-1.1-3.8c-0.3-0.7-0.6-1.3-0.9-1.9
				c-0.2-0.3-0.3-0.6-0.4-0.9c-0.2-0.3-0.3-0.5-0.5-0.7c-0.6-0.9-1-1.5-1.1-1.5c0,0-0.4-0.6-1-1.6s-1.6-2-2.6-3.1
				c-1.2-0.9-2.3-2-3.3-2.5C-201.2,146.3-201.9,145.9-201.9,145.9z"/>
		</g>
		<g id="XMLID_1847_">
			<path id="XMLID_1848_" fill="#FFFFFF" d="M-92.1,216.9c0,0-1.8-0.2-4.6-0.4c-2.7-0.3-6.4-0.9-10-1.5c-1.8-0.2-3.6-0.5-5.3-0.7
				c-1.7-0.2-3.3-0.3-4.7-0.3c-0.7,0-1.3,0-1.9,0c-0.6,0-1,0-1.4,0.1c-0.8,0-1.3,0.1-1.3,0.1s-0.5,0-1.3,0.1c-0.8,0-1.9,0.2-3.2,0.3
				c-2.6,0.4-6,1.4-8.8,3.3c-2.9,1.9-5.1,4.6-6,7c-0.5,1.2-0.7,2.2-0.9,2.9c-0.1,0.7-0.1,1.2-0.1,1.2s0-0.4,0.1-1.2
				c0.1-0.7,0.2-1.8,0.7-3c0.8-2.4,2.9-5.4,5.7-7.6c2.8-2.3,6.4-3.5,9.1-4.1c1.4-0.3,2.5-0.5,3.3-0.6s1.3-0.1,1.3-0.1s0.5,0,1.4,0
				c0.4,0,0.9,0,1.5,0s1.2,0.1,1.9,0.1c1.4,0.1,3,0.3,4.7,0.6c1.7,0.3,3.5,0.7,5.3,1c3.6,0.8,7.1,1.6,9.8,2.1
				C-93.9,216.6-92.1,216.9-92.1,216.9z"/>
		</g>
		<g id="XMLID_1845_">
			<path id="XMLID_1846_" fill="#FFFFFF" d="M-88,220.1c0,0-0.4,0.1-1.1,0.2c-0.7,0.1-1.7,0.2-2.9,0.3c-2.4,0.1-5.6,0-8.8-0.3
				s-6.3-0.5-8.7-0.5c-1.2,0-2.2,0-2.9,0.1c-0.7,0-1.1,0.1-1.1,0.1s-0.4,0-1.1,0c-0.7,0-1.6,0.1-2.7,0.3c-2.2,0.3-5.2,1.1-7.5,2.9
				c-2.4,1.7-4.2,4.2-4.8,6.3c-0.4,1-0.4,2-0.5,2.6c0,0.6,0,1,0,1s0-0.4-0.1-1c0-0.6,0-1.6,0.3-2.7c0.5-2.2,2.1-4.9,4.5-6.9
				c2.4-2.1,5.5-3.2,7.8-3.7c1.2-0.2,2.2-0.4,2.9-0.5c0.7-0.1,1.1-0.1,1.2-0.1c0,0,0.5,0,1.2,0s1.8,0,3,0.1c2.4,0.2,5.6,0.7,8.7,1.2
				c3.1,0.5,6.3,0.8,8.6,0.9c1.2,0,2.2,0,2.9-0.1C-88.4,220.2-88,220.1-88,220.1z"/>
		</g>
		<g id="XMLID_1843_">
			<path id="XMLID_1844_" fill="#FFFFFF" d="M-67.3,225.8c0,0-1.2,0.1-3.1,0.2c-1.9,0.2-4.4,0-6.9,0c-2.5-0.1-5-0.3-6.9-0.3
				c-0.9,0-1.7,0-2.3-0.1c-0.6,0-0.9,0-0.9,0s-0.3,0-0.9-0.1c-0.5,0-1.3-0.1-2.2-0.1c-1.8-0.1-4.2,0-6.6,0.4
				c-2.4,0.4-4.7,1.1-6.3,1.9c-0.8,0.3-1.4,0.8-1.9,1c-0.4,0.3-0.7,0.4-0.7,0.4s0.2-0.2,0.7-0.5c0.4-0.3,1-0.8,1.8-1.2
				c1.5-1,3.8-1.9,6.2-2.5s4.9-0.9,6.7-1c0.9-0.1,1.7-0.1,2.3-0.1s0.9,0,0.9,0s0.4,0,0.9,0.1c0.6,0.1,1.4,0.2,2.3,0.3
				c1.9,0.2,4.4,0.6,6.9,0.9c2.5,0.2,5,0.6,6.8,0.6C-68.6,225.8-67.3,225.8-67.3,225.8z"/>
		</g>
		<g id="XMLID_1841_">
			<path id="XMLID_1842_" fill="#FFFFFF" d="M-57.8,236.4c0,0-0.9-0.3-2.3-0.7c-1.4-0.5-3.3-0.8-5.1-1.2c-1.9-0.2-3.8-0.6-5.3-0.6
				c-0.7,0-1.3-0.1-1.8-0.1c-0.4,0-0.7,0-0.7,0s-1-0.1-2.4-0.2c-0.4,0-0.7-0.1-1.1-0.1c-0.4,0-0.8,0-1.3,0c-0.9,0-1.8-0.1-2.7-0.1
				c-1.9,0.1-3.7,0.1-5.1,0.4c-1.4,0.2-2.3,0.3-2.3,0.3s0.9-0.2,2.3-0.6c1.4-0.4,3.2-0.7,5.1-1c0.9-0.1,1.9-0.2,2.8-0.3
				c0.4,0,0.9-0.1,1.3-0.1c0.4,0,0.8,0,1.2,0c1.5,0,2.4,0,2.5,0c0,0,0.3,0,0.7,0.1s1.1,0.2,1.8,0.3c1.5,0.2,3.4,0.7,5.3,1.2
				c1.9,0.6,3.7,1.2,5,1.8C-58.7,236-57.8,236.4-57.8,236.4z"/>
		</g>
		<g id="XMLID_1839_">
			<path id="XMLID_1840_" fill="#FFFFFF" d="M-4.2,267.9c0,0-0.3,0.1-0.9,0.2s-1.3,0.3-2.3,0.4c-1.9,0.3-4.5,0.5-7.2,0.5
				c-2.6-0.1-5.3-0.4-7.2-0.8c-1-0.2-1.8-0.4-2.4-0.5c-0.6-0.1-0.9-0.2-0.9-0.2s-0.3-0.1-0.9-0.3c-0.5-0.2-1.3-0.5-2.2-0.9
				c-1.8-0.8-4-2-6.1-3.4c-2.1-1.4-4-3-5.3-4.4c-0.7-0.6-1.2-1.2-1.5-1.6c-0.4-0.4-0.6-0.6-0.6-0.6s0.2,0.2,0.6,0.6
				c0.4,0.3,0.9,0.9,1.7,1.5c1.4,1.2,3.4,2.6,5.6,3.8s4.4,2.2,6.2,2.8c0.9,0.3,1.6,0.5,2.1,0.7s0.8,0.3,0.9,0.3c0,0,0.3,0.1,0.9,0.3
				c0.5,0.2,1.3,0.5,2.2,0.7c1.8,0.5,4.3,1.1,6.9,1.4c2.5,0.3,5.1,0.3,7.1,0.1c1,0,1.8-0.2,2.3-0.2C-4.5,267.9-4.2,267.9-4.2,267.9z
				"/>
		</g>
		<g id="XMLID_1837_">
			<path id="XMLID_1838_" fill="#FFFFFF" d="M-5.7,276.5c0,0-0.9,0-2.2,0.1c-1.3,0.1-3.1,0-4.8-0.1c-1.7-0.3-3.5-0.4-4.8-0.8
				c-0.7-0.2-1.2-0.3-1.6-0.4c-0.4-0.1-0.6-0.2-0.6-0.2s-0.8-0.4-2-1c-0.3-0.1-0.6-0.3-0.9-0.5s-0.6-0.4-1-0.6
				c-0.7-0.4-1.4-0.9-2.1-1.3c-1.3-1-2.7-2-3.6-2.9c-0.9-0.8-1.5-1.4-1.5-1.4s0.7,0.5,1.7,1.2c1,0.8,2.5,1.5,3.9,2.3
				c0.7,0.4,1.5,0.7,2.2,1c0.4,0.2,0.7,0.3,1,0.4c0.3,0.1,0.7,0.2,1,0.3c1.2,0.4,2,0.7,2,0.7s0.8,0.3,2,0.8s2.8,0.9,4.5,1.4
				c1.7,0.3,3.4,0.7,4.7,0.7C-6.6,276.4-5.7,276.5-5.7,276.5z"/>
		</g>
		<g id="XMLID_1835_">
			<path id="XMLID_1836_" fill="#FFFFFF" d="M-82.5,255.2c0,0-0.4,0-1,0s-1.5-0.1-2.5-0.4c-2.1-0.5-4.6-1.8-6.9-3.5
				c-2.3-1.7-4.3-3.6-5.9-4.9c-0.8-0.7-1.4-1.2-1.9-1.6s-0.8-0.6-0.8-0.6s-0.3-0.3-0.7-0.7c-0.4-0.4-1.1-0.9-1.9-1.6
				c-0.8-0.7-1.7-1.3-2.7-2.1c-1.1-0.7-2.1-1.5-3.3-2.1c-2.3-1.4-4.8-2.5-6.6-3.3c-0.9-0.4-1.7-0.6-2.3-0.9
				c-0.6-0.2-0.9-0.3-0.9-0.3s0.3,0.1,0.9,0.2c0.6,0.2,1.4,0.4,2.4,0.7c1.9,0.6,4.5,1.5,7,2.7c1.3,0.6,2.4,1.3,3.6,1.9
				c1.1,0.7,2.1,1.3,3,1.9c0.8,0.6,1.6,1.1,2.1,1.5c0.5,0.4,0.8,0.6,0.8,0.6s0.3,0.3,0.8,0.7c0.5,0.4,1.1,1.1,1.8,1.8
				c1.5,1.5,3.3,3.5,5.4,5.3c2,1.8,4.4,3.3,6.4,3.9c1,0.3,1.8,0.5,2.5,0.6C-82.9,255.2-82.5,255.2-82.5,255.2z"/>
		</g>
		<g id="XMLID_1833_">
			<path id="XMLID_1834_" fill="#FFFFFF" d="M-75.1,258c0,0-0.4-0.8-1-2c-0.6-1.2-1.6-2.7-2.6-4.2c-1.1-1.4-2.2-2.9-3.2-3.8
				c-0.5-0.5-0.9-0.9-1.1-1.2c-0.3-0.3-0.5-0.5-0.5-0.5s-0.6-0.7-1.5-1.7c-0.2-0.2-0.5-0.5-0.7-0.8c-0.3-0.3-0.6-0.5-0.9-0.8
				c-0.6-0.6-1.2-1.2-1.9-1.8c-1.4-1.1-2.8-2.2-4-2.9c-1.1-0.7-1.9-1.2-1.9-1.2s0.8,0.4,2.1,0.9s2.8,1.5,4.4,2.4
				c0.8,0.5,1.5,1,2.2,1.5c0.4,0.3,0.7,0.5,1,0.7c0.3,0.3,0.6,0.5,0.8,0.7c1.1,0.9,1.8,1.5,1.8,1.5s0.2,0.2,0.4,0.5
				c0.3,0.3,0.6,0.8,1,1.4c0.9,1.1,1.8,2.7,2.8,4.3c0.8,1.7,1.7,3.3,2.1,4.6C-75.4,257.1-75.1,258-75.1,258z"/>
		</g>
		<g id="XMLID_1831_">
			<path id="XMLID_1832_" fill="#FFFFFF" d="M-43.3,278.3c0,0-0.4,0.1-1,0.4c-0.7,0.2-1.6,0.4-2.9,0.4c-2.4,0-5.7-1-8.2-2.9
				c-2.6-1.9-4.4-4.7-5.5-6.8c-0.6-1.1-1-2-1.2-2.6c-0.3-0.6-0.4-1-0.4-1s-0.1-0.4-0.3-1s-0.4-1.6-0.8-2.6c-0.6-2.2-1.3-5-2.5-7.7
				c-1.1-2.7-2.7-5.2-4.3-6.8c-0.4-0.4-0.8-0.7-1.1-1s-0.7-0.5-1-0.7c-0.5-0.4-0.9-0.6-0.9-0.6s0.3,0.2,0.9,0.5
				c0.3,0.2,0.7,0.4,1,0.6c0.4,0.3,0.8,0.6,1.2,1c1.7,1.5,3.6,3.9,4.9,6.6c1.4,2.7,2.3,5.5,3.1,7.6c0.4,1,0.7,1.9,0.9,2.5
				c0.2,0.6,0.4,1,0.4,1s0.1,0.4,0.3,1c0.2,0.6,0.5,1.5,1,2.6c0.9,2.1,2.3,4.7,4.7,6.7c2.3,2,5.3,3.2,7.6,3.3
				c1.2,0.1,2.1-0.1,2.8-0.2C-43.7,278.5-43.3,278.3-43.3,278.3z"/>
		</g>
		<g id="XMLID_1829_">
			<path id="XMLID_1830_" fill="#FFFFFF" d="M-27.7,283.2c0,0-0.4-0.1-1.1-0.1c-0.7-0.1-1.6-0.2-2.8-0.4c-2.3-0.4-5.3-1.4-8.1-2.6
				c-2.8-1.3-5.5-3-7.4-4.4c-1-0.7-1.7-1.4-2.2-1.8c-0.5-0.4-0.8-0.7-0.9-0.7c0,0-0.3-0.3-0.7-0.8c-0.4-0.5-1.1-1.2-1.8-2.1
				c-1.4-1.7-3-4.3-4.3-6.9c-1.2-2.7-2.1-5.4-2.6-7.6c-0.3-1-0.3-2-0.4-2.6c-0.1-0.6-0.1-1-0.1-1s0.1,0.3,0.2,1
				c0.2,0.6,0.3,1.5,0.6,2.5c0.6,2.1,1.7,4.7,3.1,7.2c1.5,2.5,3.2,4.8,4.7,6.4c0.7,0.8,1.4,1.4,1.9,1.9c0.5,0.4,0.7,0.7,0.8,0.7
				c0,0,0.3,0.3,0.8,0.8c0.5,0.4,1.1,1.1,2,1.9c1.7,1.5,4.1,3.3,6.8,4.7c2.7,1.4,5.5,2.6,7.7,3.2c1.1,0.4,2.1,0.5,2.7,0.6
				C-28.1,283.1-27.7,283.2-27.7,283.2z"/>
		</g>
		<g id="XMLID_1827_">
			<path id="XMLID_1828_" fill="#FFFFFF" d="M-30.1,276.7c0,0-0.2,0.2-0.5,0.5c-0.2,0.1-0.4,0.3-0.7,0.4c-0.3,0.1-0.7,0.3-1.1,0.3
				c-0.8,0.1-1.8,0-2.8-0.4c-1-0.4-1.8-1.2-2.5-2c-1.3-1.7-2.1-3.6-2.8-5c-0.7-1.4-1.2-2.3-1.2-2.3c0-0.1-5.5-14.8-5.5-14.8
				s7.2,14,7.3,14.1c0,0,0.4,1,0.9,2.4c0.6,1.4,1.1,3.4,2.1,5c0.5,0.8,1.2,1.6,2,2c0.8,0.5,1.7,0.6,2.5,0.6c0.4,0,0.7-0.1,1-0.2
				s0.5-0.2,0.7-0.3C-30.3,276.9-30.1,276.7-30.1,276.7z"/>
		</g>
		<g id="XMLID_1825_">
			<path id="XMLID_1826_" fill="#FFFFFF" d="M-20,247.3c0,0-4-0.1-7.9-0.1c-2-0.1-4-0.3-5.5-0.4c-0.8-0.1-1.4-0.1-1.8-0.1
				s-0.7-0.1-0.7-0.1c-0.1,0-3.8-1-7.6-1.9c-3.6-1.2-7.3-2.4-7.3-2.4s3.7,0.7,7.5,1.5c3.8,0.5,7.6,1,7.7,1c0,0,0.3,0.1,0.7,0.1
				c0.4,0.1,1,0.2,1.8,0.3c1.5,0.3,3.4,0.7,5.3,1C-23.9,246.8-20,247.3-20,247.3z"/>
		</g>
		<g id="XMLID_1823_">
			<path id="XMLID_1824_" fill="#FFFFFF" d="M-16.5,309.4c0,0-0.3-0.8-0.6-2c-0.3-1.2-1.1-2.7-1.8-4.1c-0.9-1.4-1.6-2.8-2.5-3.8
				c-0.8-1-1.2-1.6-1.3-1.7c0,0-0.5-0.7-1.2-1.7c-0.2-0.2-0.4-0.5-0.6-0.8c-0.2-0.3-0.5-0.5-0.7-0.8c-0.5-0.6-1-1.2-1.6-1.8
				c-1.2-1.1-2.4-2.2-3.4-2.9c-1-0.7-1.7-1.2-1.7-1.2s0.7,0.4,1.8,1c1.1,0.5,2.5,1.5,3.9,2.5c0.7,0.5,1.3,1.1,1.9,1.6
				c0.3,0.3,0.6,0.5,0.9,0.7c0.2,0.3,0.5,0.5,0.7,0.7c0.9,0.9,1.5,1.6,1.5,1.6s0.5,0.8,1.1,1.9c0.7,1.1,1.3,2.7,2,4.2
				c0.5,1.6,1,3.2,1.2,4.4C-16.6,308.6-16.5,309.4-16.5,309.4z"/>
		</g>
		<g id="XMLID_1821_">
			<path id="XMLID_1822_" fill="#FFFFFF" d="M-15.2,334.1c0,0-0.2-1.1-0.6-2.8c-0.3-1.7-0.9-3.9-1.5-6c-0.7-2.2-1.4-4.3-2.1-5.9
				c-0.3-0.8-0.6-1.5-0.8-1.9c-0.2-0.5-0.3-0.7-0.3-0.8c0,0-0.4-1.1-1-2.7c-0.1-0.4-0.3-0.8-0.5-1.3c-0.2-0.4-0.4-0.9-0.6-1.4
				c-0.4-0.9-0.8-2-1.3-3c-1-2-2-4-2.9-5.4s-1.4-2.4-1.4-2.4s0.7,0.9,1.7,2.2c1.1,1.3,2.2,3.2,3.5,5.1c0.6,1,1.1,2,1.6,2.9
				c0.3,0.5,0.5,0.9,0.8,1.3c0.2,0.4,0.4,0.8,0.6,1.2c0.7,1.5,1.2,2.6,1.3,2.6c0,0,0.1,0.3,0.3,0.8c0.1,0.5,0.4,1.2,0.6,2
				c0.6,1.7,1,3.9,1.5,6.2c0.3,2.3,0.8,4.5,0.9,6.2C-15.3,332.9-15.2,334.1-15.2,334.1z"/>
		</g>
		<g id="XMLID_1819_">
			<path id="XMLID_1820_" fill="#FFFFFF" d="M-13.1,348.9c0,0-0.2-1-0.4-2.5c-0.1-1.5-0.9-3.5-1.4-5.4c-0.8-1.9-1.6-3.8-2.4-5.1
				c-0.8-1.3-1.3-2.2-1.3-2.2s-0.5-0.9-1.3-2.2c-0.2-0.3-0.4-0.7-0.6-1c-0.3-0.3-0.5-0.7-0.8-1.1c-0.6-0.7-1.1-1.6-1.8-2.4
				c-1.4-1.4-2.7-3-3.9-3.9c-1.2-1-2-1.6-2-1.6s0.9,0.6,2.1,1.4c1.4,0.8,2.9,2.2,4.5,3.5c0.7,0.7,1.4,1.5,2.1,2.2
				c0.3,0.4,0.7,0.7,1,1c0.3,0.4,0.5,0.7,0.8,1c0.9,1.3,1.6,2.1,1.6,2.2c0.1,0,0.5,1,1.1,2.5c0.7,1.4,1.3,3.5,1.9,5.5
				c0.3,2.1,0.8,4.1,0.8,5.6C-13.2,347.9-13.1,348.9-13.1,348.9z"/>
		</g>
		<g id="XMLID_1817_">
			<path id="XMLID_1818_" fill="#FFFFFF" d="M-7.6,356.9c0,0-0.3-0.3-0.7-0.7c-0.2-0.2-0.5-0.5-0.8-0.9s-0.6-0.8-0.9-1.3
				c-1.2-1.9-2.3-4.7-2.6-7.7c-0.1-0.7-0.1-1.5-0.1-2.2c0-0.7-0.1-1.5,0-2.2c0.1-1.4,0.1-2.7,0.3-3.8c0.2-1.1,0.3-2,0.4-2.7
				s0.2-1,0.2-1.1c0-0.2,5.7-22.2,5.7-22.2s-3.7,22.3-3.8,22.5c0,0-0.1,0.4-0.3,1c-0.2,0.6-0.3,1.5-0.6,2.6
				c-0.3,1.1-0.4,2.3-0.6,3.7c-0.1,0.7-0.1,1.4-0.1,2.1c0,0.7-0.1,1.4,0,2.1c0.1,2.9,0.9,5.7,1.9,7.6c0.2,0.5,0.5,0.9,0.8,1.3
				c0.2,0.4,0.5,0.7,0.7,0.9C-7.9,356.6-7.6,356.9-7.6,356.9z"/>
		</g>
		<g id="XMLID_1815_">
			<path id="XMLID_1816_" fill="#FFFFFF" d="M-1.7,351.3c0,0-0.2-0.7-0.6-1.6c-0.4-1-0.6-2.3-1-3.7c-0.2-1.4-0.4-2.8-0.4-3.8
				c0-0.5,0-1,0-1.3s0-0.5,0-0.5s0.2-0.7,0.4-1.7c0.1-0.5,0.3-1.1,0.5-1.7c0.2-0.6,0.4-1.3,0.7-1.9c0.6-1.2,1.1-2.5,1.6-3.4
				s0.8-1.5,0.8-1.5s-0.2,0.6-0.6,1.6c-0.4,0.9-0.7,2.2-1,3.5c-0.1,0.6-0.2,1.3-0.3,1.9c-0.1,0.6-0.2,1.2-0.2,1.7
				c-0.1,1-0.1,1.6-0.1,1.7c0,0,0,0.2-0.1,0.5c0,0.3-0.1,0.7-0.2,1.2c-0.2,1-0.2,2.3-0.2,3.7c0.1,1.3,0.1,2.7,0.3,3.7
				C-1.8,350.6-1.7,351.3-1.7,351.3z"/>
		</g>
		<g id="XMLID_1813_">
			<path id="XMLID_1814_" fill="#FFFFFF" d="M-2.8,313c0,0,0.2-0.4,0.5-1c0.3-0.7,0.9-1.6,1.3-2.8c1-2.3,1.9-5.5,2.5-8.8
				c0.5-3.3,0.6-6.6,0.4-9.1c-0.1-1.2-0.2-2.3-0.3-3c-0.1-0.7-0.2-1.2-0.2-1.2s-0.1-0.4-0.1-1.2c-0.1-0.7-0.2-1.7-0.4-2.9
				c-0.4-2.4-1.3-5.5-2.5-8.5c-1.3-3-2.9-5.8-4.4-7.8c-0.7-1-1.4-1.8-1.8-2.3c-0.5-0.6-0.7-0.9-0.7-0.9s0.3,0.3,0.8,0.8
				s1.3,1.2,2,2.2c1.6,1.9,3.5,4.6,5,7.6s2.7,6.1,3.3,8.5c0.4,1.2,0.5,2.2,0.7,3c0.1,0.7,0.2,1.2,0.2,1.2s0.1,0.5,0.1,1.2
				c0,0.8,0.1,1.8,0.1,3.1c0,2.6-0.3,6-1.1,9.3c-0.8,3.3-2,6.5-3.2,8.7c-0.5,1.2-1.1,2-1.5,2.7C-2.6,312.6-2.8,313-2.8,313z"/>
		</g>
		<g id="XMLID_1811_">
			<path id="XMLID_1812_" fill="#FFFFFF" d="M6.1,341.5c0,0-0.5-4.5-1-9c-0.1-2.3-0.2-4.6-0.3-6.3c0-0.9-0.1-1.6-0.1-2.1
				s0-0.8,0-0.8c0-0.1,0.5-4.5,1.1-8.9c0.8-4.3,1.6-8.7,1.6-8.7s-0.3,4.4-0.6,8.8c-0.1,4.4-0.1,8.8-0.1,8.9c0,0,0,0.3-0.1,0.8
				c0,0.5-0.1,1.2-0.1,2.1c-0.1,1.7-0.2,4-0.4,6.2C6.1,337,6.1,341.5,6.1,341.5z"/>
		</g>
		<g id="XMLID_1809_">
			<path id="XMLID_1810_" fill="#FFFFFF" d="M-118.3,201.7c0,0-0.2-0.2-0.6-0.6c-0.4-0.4-0.9-1-1.6-1.6c-1.4-1.3-3.5-2.6-5.7-3.8
				c-2.3-1.1-4.7-1.8-6.5-2.1c-0.9-0.2-1.7-0.2-2.3-0.3c-0.5-0.1-0.9-0.1-0.9-0.1s-0.3,0-0.9-0.1c-0.5-0.1-1.3-0.2-2.2-0.2
				c-1.8-0.1-4.3,0.1-6.7,0.6s-4.7,1.4-6.3,2.2c-0.8,0.4-1.5,0.8-1.9,1.1c-0.5,0.3-0.7,0.4-0.7,0.4s0.2-0.2,0.7-0.5
				c0.4-0.3,1-0.8,1.8-1.3c1.6-1,3.8-2.1,6.2-2.9c2.4-0.7,4.9-1.2,6.9-1.2c1-0.1,1.8,0,2.4,0c0.6,0,0.9,0,0.9,0s0.4,0,1,0.2
				c0.6,0.1,1.4,0.3,2.4,0.6c1.9,0.5,4.4,1.5,6.6,2.8c2.2,1.4,4.2,3,5.4,4.4c0.7,0.6,1.1,1.3,1.5,1.7
				C-118.5,201.5-118.3,201.7-118.3,201.7z"/>
		</g>
		<g id="XMLID_1807_">
			<path id="XMLID_1808_" fill="#FFFFFF" d="M-93.2,203.3c0,0-0.1,0.2-0.4,0.6c-0.3,0.4-0.8,0.8-1.5,1.2s-1.7,0.6-2.7,0.6
				c-0.5-0.1-1.1-0.1-1.6-0.2s-1.1-0.2-1.6-0.4c-2.1-0.7-4-1.6-5.5-2.2c-1.5-0.6-2.5-1.1-2.5-1.1s-0.9-0.5-2.3-1.3
				c-0.7-0.4-1.5-0.8-2.3-1.3s-1.7-1.1-2.6-1.6c-3.5-2.2-6.9-4.4-6.9-4.4s3.7,1.8,7.4,3.6c0.9,0.5,1.8,0.9,2.7,1.3
				c0.9,0.4,1.7,0.7,2.4,1c1.4,0.6,2.4,1,2.4,1s1,0.5,2.4,1.3c1.4,0.8,3.2,1.9,5.1,2.7c0.5,0.2,1,0.4,1.4,0.5c0.5,0.2,1,0.2,1.4,0.3
				c0.9,0.1,1.9,0,2.6-0.3c0.7-0.3,1.2-0.7,1.6-1C-93.3,203.5-93.2,203.3-93.2,203.3z"/>
		</g>
		<g id="XMLID_1805_">
			<path id="XMLID_1806_" fill="#FFFFFF" d="M-119.2,180.3c0,0-0.2-0.1-0.6-0.3c-0.4-0.2-0.9-0.5-1.6-0.7c-1.3-0.5-3.2-1-5.1-1.4
				c-1.9-0.3-3.8-0.4-5.2-0.3c-0.7,0-1.3,0.1-1.7,0.1s-0.7,0.1-0.7,0.1s-0.3,0-0.7,0s-1,0-1.7,0.1c-1.4,0.1-3.2,0.4-5,0.9
				s-3.5,1.2-4.8,1.9c-0.6,0.3-1.1,0.6-1.5,0.8c-0.4,0.2-0.6,0.3-0.6,0.3s0.2-0.1,0.5-0.4c0.3-0.2,0.8-0.6,1.4-1
				c1.2-0.8,2.8-1.7,4.6-2.5c1.8-0.7,3.6-1.3,5.1-1.6c0.7-0.2,1.3-0.2,1.8-0.3c0.4-0.1,0.7-0.1,0.7-0.1s0.3,0,0.7,0
				c0.5,0,1.1,0,1.8,0.1c1.5,0.1,3.5,0.4,5.4,1c1.9,0.6,3.7,1.3,5,2c0.7,0.3,1.2,0.7,1.5,0.9C-119.4,180.2-119.2,180.3-119.2,180.3z
				"/>
		</g>
		<g id="XMLID_1803_">
			<path id="XMLID_1804_" fill="#FFFFFF" d="M-116,170.1c0,0-0.1-0.3-0.4-0.9c-0.1-0.3-0.3-0.6-0.5-0.9c-0.3-0.3-0.5-0.7-0.9-1.1
				c-0.7-0.7-1.7-1.4-2.9-2c-0.6-0.3-1.2-0.5-1.9-0.6s-1.3-0.3-2.1-0.3c-2.8-0.3-5.7,0.1-7.8,0.5c-1.1,0.1-2,0.3-2.6,0.5
				c-0.6,0.1-1,0.2-1,0.2s-0.4,0.1-1,0.1c-0.6,0.1-1.5,0.3-2.5,0.5c-2.1,0.4-4.7,1.1-7.4,2c-1.3,0.4-2.6,1-3.8,1.4
				c-1.2,0.5-2.3,1.1-3.2,1.5c-1.8,1-3,1.6-3,1.6s1.2-0.8,2.9-1.9c0.9-0.5,2-1.1,3.1-1.8c1.2-0.6,2.4-1.2,3.7-1.8
				c2.6-1.1,5.3-2.1,7.3-2.7c1-0.3,1.9-0.6,2.5-0.7c0.6-0.1,1-0.2,1-0.2s0.4-0.1,1.1-0.1c0.7-0.1,1.6-0.2,2.7-0.3
				c2.2-0.2,5.2-0.4,8.1,0.1c0.7,0.1,1.4,0.3,2.1,0.5c0.7,0.2,1.4,0.5,2,0.8c1.2,0.6,2.2,1.5,2.9,2.3
				C-116.2,168.6-116,170.1-116,170.1z"/>
		</g>
		<g id="XMLID_1801_">
			<path id="XMLID_1802_" fill="#FFFFFF" d="M-108.9,183.5c0,0-4.9-3.7-5-3.7l-3.4-4.9l4.8,3.6
				C-112.4,178.6-108.9,183.5-108.9,183.5z"/>
		</g>
		<g id="XMLID_1799_">
			<path id="XMLID_1800_" fill="#FFFFFF" d="M-125.1,141.9c0,0-0.9,0.3-2.3,0.7c-1.4,0.4-3.2,1-4.9,1.7s-3.4,1.6-4.5,2.4
				c-0.6,0.4-1,0.8-1.3,1c-0.3,0.2-0.5,0.4-0.5,0.4s-0.2,0.1-0.5,0.4c-0.3,0.2-0.7,0.6-1.2,1c-0.9,0.9-2,2.3-2.7,3.9
				c-0.7,1.6-0.9,3.4-0.7,4.7c0,0.3,0.1,0.6,0.2,0.9c0.1,0.3,0.1,0.5,0.2,0.7c0.1,0.4,0.2,0.6,0.2,0.6s-0.1-0.2-0.3-0.5
				c-0.1-0.2-0.2-0.4-0.3-0.6c-0.1-0.3-0.2-0.5-0.3-0.9c-0.4-1.3-0.4-3.2,0.1-5s1.4-3.5,2.3-4.6c0.4-0.6,0.9-1,1.2-1.3
				s0.5-0.5,0.5-0.5s0.2-0.2,0.6-0.4c0.4-0.2,0.9-0.6,1.6-0.9c1.3-0.7,3.2-1.4,5-1.9c1.9-0.5,3.8-0.9,5.2-1.1
				C-126,142.1-125.1,141.9-125.1,141.9z"/>
		</g>
		<g id="XMLID_1797_">
			<path id="XMLID_1798_" fill="#FFFFFF" d="M-119.9,141.9c0,0-0.2,0-0.4,0.1c-0.3,0.1-0.7,0.2-1.1,0.4c-0.9,0.3-2.1,1-3.1,1.7
				c-1,0.8-1.9,1.7-2.5,2.4c-0.3,0.4-0.5,0.7-0.7,0.9s-0.3,0.4-0.3,0.4s-0.1,0.1-0.3,0.3s-0.5,0.5-0.7,0.8c-0.6,0.7-1.2,1.7-1.8,2.8
				c-0.5,1.1-0.8,2.3-1,3.2c-0.1,0.5-0.1,0.8-0.1,1.1c0,0.3,0,0.4,0,0.4s0-0.2-0.1-0.4c0-0.3-0.1-0.7-0.1-1.1c0-0.9,0.1-2.2,0.3-3.5
				c0.3-1.2,0.8-2.5,1.3-3.4c0.2-0.5,0.5-0.8,0.6-1.1c0.2-0.3,0.3-0.4,0.3-0.4s0.1-0.1,0.4-0.4c0.2-0.2,0.5-0.5,0.9-0.9
				c0.8-0.7,2-1.5,3.2-2.1c1.3-0.6,2.6-1,3.6-1.2c0.5-0.1,0.9-0.1,1.2-0.2C-120.1,141.9-119.9,141.9-119.9,141.9z"/>
		</g>
		<g id="XMLID_1795_">
			<path id="XMLID_1796_" fill="#FFFFFF" d="M-160,132.5c0,0,0.5,0.4,1.3,1c0.8,0.6,1.7,1.5,2.7,2.4c0.8,1,1.8,2,2.3,2.9
				c0.6,0.8,1,1.4,0.9,1.5c0,0,0.2,0.7,0.5,1.6c0.1,0.2,0.1,0.5,0.2,0.8c0.1,0.3,0.1,0.6,0.2,0.9c0.1,0.6,0.2,1.2,0.3,1.8
				c0.1,1.3,0.2,2.5,0.1,3.5c-0.1,0.9-0.1,1.6-0.1,1.6s-0.1-0.6-0.2-1.5c-0.1-0.9-0.4-2.1-0.7-3.3c-0.2-0.6-0.4-1.2-0.6-1.7
				c-0.1-0.3-0.2-0.5-0.3-0.8c-0.1-0.2-0.2-0.5-0.3-0.7c-0.4-0.8-0.7-1.4-0.7-1.4s-0.2-0.6-0.6-1.5c-0.3-0.9-1-2-1.6-3.1
				c-0.8-1-1.5-2.1-2.2-2.8C-159.6,133-160,132.5-160,132.5z"/>
		</g>
		<g id="XMLID_1793_">
			<path id="XMLID_1794_" fill="#FFFFFF" d="M-106.8,130c0,0-0.1,0.1-0.4,0.3c-0.2,0.2-0.6,0.4-1,0.7c-0.8,0.6-1.6,1.7-2.3,2.8
				c-0.6,1.1-1,2.3-1.2,3.2c-0.1,0.5-0.1,0.9-0.2,1.1c0,0.3-0.1,0.4-0.1,0.4s0,0.2-0.1,0.4c-0.1,0.3-0.2,0.6-0.2,1.1
				c-0.2,0.9-0.2,2.1,0,3.4c0.2,1.2,0.6,2.4,1.1,3.3c0.2,0.4,0.5,0.7,0.6,1c0.2,0.2,0.2,0.4,0.2,0.4s-0.1-0.1-0.3-0.3
				s-0.5-0.5-0.8-0.9c-0.6-0.8-1.3-1.9-1.7-3.2c-0.4-1.3-0.7-2.6-0.7-3.6c0-0.5,0-0.9,0-1.3c0-0.3,0-0.5,0-0.5s0-0.2,0.1-0.5
				s0.2-0.7,0.4-1.2c0.4-1,1.1-2.2,2-3.3s2-2,2.9-2.5c0.4-0.3,0.8-0.4,1.1-0.6C-106.9,130-106.8,130-106.8,130z"/>
		</g>
		<g id="XMLID_1791_">
			<path id="XMLID_1792_" fill="#FFFFFF" d="M-105.7,142.9c0,0,0.2,0.6,0.6,1.4c0.4,0.8,0.7,2,1.2,3.2c0.3,1.2,0.7,2.4,0.8,3.4
				c0.1,0.5,0.2,0.9,0.2,1.1c0.1,0.3,0.1,0.4,0.1,0.5c0,0,0,0.6-0.1,1.6c0,0.9-0.3,2.1-0.4,3.3c-0.3,1.2-0.5,2.4-0.8,3.2
				c-0.3,0.9-0.4,1.4-0.4,1.4s0.1-0.6,0.1-1.5c0.1-0.9,0.1-2.1,0.1-3.2c-0.1-1.2-0.1-2.4-0.2-3.2c-0.1-0.9-0.2-1.5-0.2-1.5
				s0-0.2,0-0.4c0-0.3,0-0.6,0-1.1c0-0.9-0.1-2.1-0.1-3.3c-0.2-1.2-0.3-2.4-0.5-3.3C-105.6,143.5-105.7,142.9-105.7,142.9z"/>
		</g>
		<g id="XMLID_1789_">
			<path id="XMLID_1790_" fill="#FFFFFF" d="M-85.4,181.7c0,0-0.3,0-0.9,0c-0.3,0-0.7,0-1-0.1c-0.4-0.1-0.9-0.2-1.3-0.3
				c-1.9-0.5-4.4-1.7-6.4-3.5c-2-1.7-3.6-3.9-4.8-5.5c-1.1-1.6-1.9-2.7-1.9-2.7s-0.7-1.1-1.6-2.7c-0.5-0.8-1.2-1.6-1.8-2.6
				c-0.4-0.4-0.8-0.9-1.2-1.3c-0.4-0.4-0.9-0.8-1.4-1.2c-1.9-1.6-4.2-2.6-6.1-2.9c-0.5-0.1-0.9-0.1-1.3-0.1c-0.4,0-0.7,0-1,0
				c-0.6,0-0.9,0.1-0.9,0.1s0.3-0.1,0.9-0.1c0.3,0,0.6-0.1,1-0.1s0.8,0,1.3,0c2,0.1,4.5,1,6.7,2.5c0.5,0.4,1,0.8,1.6,1.2
				c0.5,0.4,0.9,0.9,1.4,1.3c0.8,0.9,1.5,1.8,2.2,2.5c1.1,1.5,1.9,2.6,1.9,2.6s0.7,1.2,1.7,2.8s2.3,3.8,4.1,5.6
				c1.7,1.9,3.9,3.3,5.8,3.9c0.5,0.1,0.9,0.3,1.3,0.4c0.4,0.1,0.7,0.1,1,0.1C-85.7,181.6-85.4,181.7-85.4,181.7z"/>
		</g>
		<g id="XMLID_1787_">
			<path id="XMLID_1788_" fill="#FFFFFF" d="M-83.8,196.9c0,0-0.2-0.1-0.6-0.2c-0.4-0.1-1-0.2-1.7-0.5c-1.4-0.5-3.1-1.5-4.7-2.6
				c-1.6-1.1-3.1-2.3-4.3-3.1c-0.6-0.4-1.1-0.8-1.4-1c-0.3-0.2-0.6-0.4-0.6-0.4s-0.2-0.2-0.5-0.4c-0.3-0.2-0.8-0.6-1.4-0.9
				c-1.1-0.7-2.8-1.5-4.6-2c-1.8-0.4-3.7-0.4-5,0c-0.3,0.1-0.6,0.2-0.9,0.3c-0.3,0.1-0.5,0.2-0.6,0.3c-0.3,0.2-0.5,0.3-0.5,0.3
				s0.2-0.1,0.5-0.4c0.2-0.1,0.4-0.3,0.6-0.4c0.2-0.2,0.5-0.3,0.9-0.5c1.3-0.6,3.3-0.9,5.3-0.7c2,0.2,3.8,0.9,5.2,1.6
				c0.7,0.3,1.2,0.6,1.6,0.8c0.4,0.2,0.6,0.4,0.6,0.4s0.2,0.2,0.6,0.5c0.3,0.3,0.8,0.7,1.3,1.2c1.1,1,2.4,2.3,3.9,3.6
				c1.4,1.2,2.9,2.4,4.2,3c0.6,0.4,1.2,0.5,1.6,0.7C-84,196.8-83.8,196.9-83.8,196.9z"/>
		</g>
		<g id="XMLID_1785_">
			<path id="XMLID_1786_" fill="#FFFFFF" d="M-58.8,205.9c0,0-0.1-0.1-0.2-0.3c-0.2-0.2-0.3-0.5-0.6-0.8c-0.5-0.7-1.4-1.4-2.3-2.1
				c-0.9-0.6-2-1.1-2.8-1.4c-0.4-0.1-0.7-0.2-1-0.3c-0.2-0.1-0.4-0.1-0.4-0.1s-0.1-0.1-0.4-0.2c-0.2-0.1-0.5-0.2-0.9-0.4
				c-0.8-0.3-1.9-0.5-3-0.6c-1.1-0.1-2.2,0-3.1,0.2c-0.4,0.1-0.8,0.2-1,0.2c-0.2,0.1-0.4,0.1-0.4,0.1s0.1-0.1,0.4-0.2
				c0.2-0.1,0.5-0.3,0.9-0.4c0.8-0.3,2-0.7,3.2-0.8c1.2-0.1,2.4-0.1,3.4,0c0.5,0,0.8,0.1,1.1,0.2c0.3,0.1,0.4,0.1,0.4,0.1
				s0.2,0.1,0.4,0.2c0.3,0.1,0.6,0.3,1,0.5c0.8,0.5,1.8,1.2,2.7,2.1c0.8,0.9,1.5,1.8,1.9,2.6c0.2,0.4,0.3,0.7,0.4,1
				C-58.9,205.8-58.8,205.9-58.8,205.9z"/>
		</g>
		<g id="XMLID_1783_">
			<path id="XMLID_1784_" fill="#FFFFFF" d="M-45.6,221.9c0,0,0.1,0.3,0,0.9c0,0.5-0.3,1.3-1,2c-0.7,0.7-1.7,1.3-3,1.6
				c-1.2,0.3-2.7,0.2-4-0.3c-2.6-1-4.5-2.8-6.1-3.9c-0.7-0.6-1.4-1-1.9-1.3c-0.5-0.3-0.7-0.5-0.7-0.5s-0.2-0.2-0.7-0.5
				c-0.5-0.3-1.1-0.7-1.8-1.2c-0.8-0.5-1.7-1-2.8-1.5c-1.1-0.4-2.2-1-3.4-1.3c-2.3-0.8-4.8-1.2-6.7-1.4c-0.9-0.1-1.7-0.1-2.3-0.1
				c-0.5,0-0.9,0-0.9,0s0.3,0,0.9-0.1c0.5,0,1.3-0.1,2.3-0.1c1.9,0,4.4,0.2,6.9,0.8c1.3,0.2,2.5,0.7,3.6,1c1.1,0.4,2.2,0.9,3,1.3
				c0.9,0.5,1.6,0.8,2.1,1.1s0.8,0.5,0.8,0.5s0.3,0.2,0.7,0.6c0.5,0.4,1.1,0.9,1.8,1.6c1.4,1.3,3.1,3.2,5.3,4.2
				c2.2,1.1,5,0.5,6.3-0.7c0.7-0.6,1.1-1.3,1.1-1.8C-45.5,222.3-45.6,221.9-45.6,221.9z"/>
		</g>
		<g id="XMLID_1781_">
			<path id="XMLID_1782_" fill="#FFFFFF" d="M-33.7,200.8c0,0-0.7,0.2-1.8,0.5c-0.6,0.1-1.2,0.2-2,0.2c-0.7,0-1.5,0-2.3,0.1
				c-1.5,0-3.1,0-4.2,0.1c-0.6,0-1,0.1-1.3,0.2c-0.3,0-0.5,0.1-0.5,0.1s-0.2,0-0.5,0s-0.7,0.1-1.2,0.2c-1,0.2-2.3,0.7-3.2,1.7
				c-0.9,1-1.4,2.3-1.3,3.4c0,0.5,0.2,0.9,0.3,1.2c0.2,0.3,0.3,0.4,0.3,0.4s-0.1-0.1-0.3-0.4c-0.2-0.3-0.4-0.7-0.6-1.2
				c-0.3-1.1-0.1-2.7,0.8-4c0.4-0.7,1-1.2,1.6-1.7c0.3-0.2,0.6-0.4,0.9-0.6c0.3-0.1,0.6-0.3,0.9-0.4c0.6-0.2,1.1-0.4,1.4-0.4
				c0.4-0.1,0.6-0.1,0.6-0.1s0.2,0,0.6,0s0.9,0,1.5,0c1.2,0.1,2.7,0.3,4.2,0.6c0.7,0.1,1.5,0.2,2.2,0.3c0.7,0,1.4,0.1,1.9,0
				C-34.4,200.9-33.7,200.8-33.7,200.8z"/>
		</g>
		<g id="XMLID_1779_">
			<path id="XMLID_1780_" fill="#FFFFFF" d="M-75,154.5c0,0-0.1,0.2-0.3,0.5c-0.2,0.3-0.5,0.8-0.8,1.4c-0.6,1.1-1.2,2.8-1.6,4.4
				c-0.3,1.7-0.4,3.3-0.4,4.6c0,0.6,0.1,1.2,0.1,1.5c0,0.4,0.1,0.6,0.1,0.6s0,0.2,0,0.6s0,0.9,0.1,1.5c0.1,1.2,0.5,2.8,1,4.4
				c0.6,1.5,1.4,3,2.1,4.1c0.3,0.5,0.7,0.9,0.9,1.2s0.4,0.5,0.4,0.5s-0.2-0.1-0.4-0.4c-0.3-0.3-0.7-0.6-1.1-1.1
				c-0.9-0.9-1.9-2.3-2.7-3.9c-0.8-1.5-1.4-3.2-1.7-4.5c-0.2-0.6-0.3-1.2-0.3-1.6c-0.1-0.4-0.1-0.6-0.1-0.6s0-0.3,0-0.7
				c0-0.4,0-1,0.1-1.7c0.1-1.4,0.5-3.1,1.1-4.8c0.6-1.7,1.4-3.2,2.2-4.3c0.3-0.6,0.7-1,1-1.3C-75.1,154.7-75,154.5-75,154.5z"/>
		</g>
		<g id="XMLID_1777_">
			<path id="XMLID_1778_" fill="#FFFFFF" d="M-69.8,155.7c0,0-0.1,0.2-0.3,0.5c-0.1,0.3-0.5,0.8-0.6,1.4c-0.5,1.2-0.7,2.8-0.8,4.5
				c0,1.6,0.3,3.3,0.7,4.5c0.2,0.6,0.4,1.1,0.5,1.4c0.1,0.3,0.2,0.5,0.2,0.6c0,0,0.3,0.8,0.6,2c0.1,0.3,0.2,0.6,0.3,0.9
				c0.1,0.3,0.3,0.7,0.4,1c0.3,0.7,0.6,1.4,1,2.2c1.5,2.9,3.2,5.8,3.2,5.8s-2.1-2.6-4.1-5.3c-0.5-0.7-0.9-1.4-1.3-2.1
				c-0.2-0.3-0.4-0.7-0.6-1c-0.2-0.3-0.3-0.6-0.4-0.9c-0.6-1.2-0.9-2-0.9-2s-0.1-0.2-0.2-0.6c-0.1-0.4-0.2-0.9-0.3-1.6
				c-0.2-1.3-0.3-3.1,0-4.8s0.8-3.4,1.4-4.5c0.3-0.6,0.6-1,0.8-1.3C-70,155.9-69.8,155.7-69.8,155.7z"/>
		</g>
		<g id="XMLID_1775_">
			<path id="XMLID_1776_" fill="#FFFFFF" d="M-47.1,165.9c0,0,0-0.3-0.3-0.8c-0.2-0.5-0.7-1.1-1.6-1.5c-0.8-0.4-2-0.7-3.1-0.5
				s-2.2,0.9-2.9,1.8c-1.5,1.9-1.7,4.4-1.3,6.2c0.1,0.4,0.1,0.9,0.2,1.2c0.1,0.4,0.2,0.7,0.3,0.9c0.1,0.5,0.2,0.8,0.2,0.9
				c0,0,0.3,1.2,0.7,3c0.2,0.9,0.4,2,0.6,3.1c0.1,0.6,0.2,1.2,0.3,1.8c0,0.6,0.1,1.2,0.1,1.8c0,0.6,0.1,1.2,0.1,1.8s0,1.2-0.1,1.8
				c-0.1,1.1,0,2.2-0.2,3.1c-0.3,1.8-0.5,3-0.5,3s0.1-1.2,0.2-3c0.1-0.9,0-2-0.1-3.1c0-0.6,0-1.1-0.1-1.7s-0.2-1.2-0.3-1.8
				c-0.1-0.6-0.2-1.2-0.3-1.8c-0.2-0.6-0.3-1.1-0.5-1.7c-0.3-1.1-0.5-2.1-0.9-3c-0.3-0.9-0.6-1.6-0.7-2.1c-0.2-0.5-0.3-0.8-0.3-0.9
				c0,0-0.1-0.4-0.2-0.9c-0.1-0.3-0.1-0.6-0.2-1c0-0.4-0.1-0.9-0.1-1.4c-0.2-2,0.3-4.8,2.2-6.9c0.9-1,2.3-1.7,3.6-1.8
				c1.3-0.1,2.5,0.3,3.3,0.8c0.9,0.5,1.3,1.2,1.5,1.8C-47.1,165.6-47.1,165.9-47.1,165.9z"/>
		</g>
		<g id="XMLID_1773_">
			<path id="XMLID_1774_" fill="#FFFFFF" d="M-21.6,201c0,0-0.4-1-0.9-2.6c-0.4-0.7-0.8-1.6-1.4-2.4c-0.3-0.4-0.6-0.8-1-1.2
				l-0.5-0.6l-0.6-0.6c-0.4-0.4-0.8-0.7-1.2-1.1c-0.4-0.4-0.9-0.6-1.3-0.9c-0.4-0.3-0.8-0.6-1.2-0.8c-0.4-0.2-0.8-0.4-1.2-0.6
				c-0.4-0.2-0.7-0.4-1-0.5s-0.6-0.2-0.8-0.3c-0.5-0.2-0.7-0.2-0.7-0.3c0,0-0.3-0.1-0.7-0.3c-0.4-0.2-1.1-0.3-1.8-0.6
				c-1.5-0.5-3.7-0.8-5.7-0.3c-2.1,0.4-3.8,1.9-4.4,3.3c-0.7,1.4-0.3,2.5-0.4,2.5c0.1,0-0.4-1.1,0.1-2.6c0.2-0.8,0.8-1.6,1.5-2.4
				c0.8-0.7,1.8-1.3,2.9-1.7c2.2-0.7,4.6-0.7,6.3-0.3c0.9,0.2,1.6,0.3,2.1,0.4c0.5,0.2,0.8,0.3,0.8,0.3s0.3,0.1,0.8,0.4
				c0.2,0.1,0.5,0.2,0.9,0.4c0.3,0.2,0.6,0.4,1,0.7c0.4,0.2,0.8,0.5,1.2,0.8c0.4,0.3,0.8,0.7,1.2,1c0.4,0.4,0.8,0.7,1.2,1.1
				c0.4,0.4,0.7,0.9,1.1,1.3l0.5,0.7l0.4,0.7c0.3,0.5,0.6,0.9,0.8,1.4c0.5,0.9,0.8,1.8,1.1,2.6C-21.8,199.9-21.6,201-21.6,201z"/>
		</g>
		<g id="XMLID_1771_">
			<path id="XMLID_1772_" fill="#FFFFFF" d="M-21.9,214.8c0,0-0.9-0.1-2.2-0.2c-0.7-0.1-1.5-0.1-2.3-0.2c-0.8,0-1.7,0-2.6,0
				c-1.8,0-3.6,0.3-4.9,0.4c-0.7,0.1-1.2,0.1-1.6,0.2c-0.4,0.1-0.6,0.1-0.6,0.1s-0.9,0.1-2.2,0.2c-1.3,0.1-3,0.3-4.5,0.9
				c-0.7,0.3-1.4,0.8-1.9,1.4s-0.7,1.3-0.7,1.9c-0.2,1.2,0.6,1.9,0.6,1.9c0.1,0-0.8-0.6-0.9-1.9c-0.1-0.7,0.1-1.4,0.5-2.2
				c0.4-0.8,1.1-1.4,1.9-1.9c1.6-1,3.4-1.4,4.7-1.7c1.3-0.3,2.2-0.5,2.2-0.5s0.3,0,0.7-0.1c0.4-0.1,1,0,1.7,0c1.4,0,3.2,0,5,0.2
				c0.9,0.1,1.8,0.2,2.7,0.3c0.8,0.2,1.6,0.3,2.3,0.5C-22.8,214.6-21.9,214.8-21.9,214.8z"/>
		</g>
		<g id="XMLID_1769_">
			<path id="XMLID_1770_" fill="#FFFFFF" d="M-13.2,224.3c0,0,0.1,0.3,0.2,0.7c0,0.2,0.1,0.5,0.2,0.8s0.1,0.7,0.2,1
				c0.2,1.5,0,3.7-0.5,5.7c-0.7,2-1.7,3.9-2.8,5.2c-0.5,0.7-1.1,1.1-1.4,1.5s-0.6,0.5-0.6,0.5s-0.3,0.2-0.7,0.4
				c-0.4,0.2-1,0.6-1.8,0.9c-0.4,0.2-0.8,0.3-1.2,0.5c-0.5,0.1-0.9,0.2-1.4,0.4c-0.2,0.1-0.5,0.1-0.8,0.2c-0.3,0-0.5,0.1-0.8,0.1
				c-0.5,0.1-1.1,0.1-1.6,0.2c-2.2,0.1-4.3-0.3-5.8-0.8c-0.8-0.2-1.3-0.5-1.7-0.7c-0.4-0.2-0.6-0.3-0.6-0.3s0.2,0.1,0.7,0.2
				c0.4,0.1,1,0.4,1.8,0.5c1.5,0.3,3.6,0.4,5.6,0.2c0.5-0.1,1-0.2,1.5-0.3c0.2-0.1,0.5-0.1,0.7-0.2s0.5-0.2,0.7-0.3
				c0.4-0.2,0.9-0.3,1.3-0.5s0.7-0.4,1.1-0.6c0.7-0.3,1.1-0.7,1.5-1c0.4-0.3,0.6-0.4,0.6-0.4s0.2-0.1,0.6-0.4
				c0.3-0.3,0.9-0.6,1.4-1.2c1.1-1,2.3-2.7,3.1-4.5c0.7-1.9,1.2-3.9,1.1-5.4c0-0.4,0-0.7,0-1s-0.1-0.6-0.1-0.8
				C-13.2,224.5-13.2,224.3-13.2,224.3z"/>
		</g>
		<g id="XMLID_1767_">
			<path id="XMLID_1768_" fill="#FFFFFF" d="M-12,229.3c0,0,0.4,2.8,0.8,5.6c0.1,1.4,0.2,2.8,0.3,3.9c0,0.5,0.1,1,0.1,1.3
				s0,0.5,0,0.5s-0.5,2.8-0.9,5.5c-0.6,2.7-1.3,5.3-1.3,5.3s0.2-2.7,0.3-5.4c0-2.7,0-5.5,0-5.5s0-0.2,0.1-0.5c0-0.3,0.1-0.8,0.1-1.3
				c0.1-1.1,0.2-2.5,0.4-3.8C-12.1,232.1-12,229.3-12,229.3z"/>
		</g>
		<g id="XMLID_1765_">
			<path id="XMLID_1766_" fill="#FFFFFF" d="M-58.1,195.7c0,0-0.3,0.2-0.9,0.5c-0.6,0.3-1.5,0.7-2.7,0.9c-2.3,0.6-5.6,0.6-8.7-0.4
				c-1.5-0.5-3-1.3-4.2-2.2s-2.2-2-2.9-3s-1.2-1.9-1.5-2.5c-0.3-0.6-0.5-1-0.5-1s-0.1-0.4-0.3-1.1c-0.2-0.6-0.4-1.6-0.7-2.7
				c-0.5-2.2-0.8-5.1-1.6-7.9c-0.7-2.8-1.9-5.5-3.3-7.2c-0.7-0.8-1.4-1.5-1.9-1.9c-0.5-0.4-0.8-0.6-0.8-0.6s0.3,0.2,0.9,0.6
				c0.6,0.3,1.3,1,2.1,1.7c1.6,1.6,3,4.3,4,7.1c1,2.8,1.6,5.7,2.2,7.8c0.3,1,0.6,1.9,0.8,2.5s0.4,0.9,0.4,1c0,0,0.1,0.4,0.4,1
				c0.2,0.6,0.6,1.4,1.2,2.4c0.6,0.9,1.3,2,2.4,2.9c1,0.9,2.3,1.7,3.7,2.3c2.8,1.2,6,1.4,8.3,1c1.1-0.2,2.1-0.5,2.7-0.7
				C-58.5,195.9-58.1,195.7-58.1,195.7z"/>
		</g>
		<g id="XMLID_1763_">
			<path id="XMLID_1764_" fill="#FFFFFF" d="M-16.9,214.8c0,0,0.1,0.3,0.2,0.8s0.2,1.3,0,2.1c-0.3,1.8-1.8,3.9-3.9,5.4
				c-2,1.5-4.6,2.2-6.4,2.7c-0.9,0.2-1.7,0.4-2.2,0.5s-0.9,0.2-0.9,0.2s-0.3,0-0.9,0.1c-0.5,0.1-1.2,0.2-2.1,0.3
				c-1.7,0.3-4,0.9-5.8,2.2c-1.8,1.3-3.2,3.3-3.4,4.9c-0.2,0.8,0,1.5,0,2c0.1,0.5,0.2,0.7,0.2,0.7s-0.1-0.3-0.3-0.7
				c-0.1-0.5-0.3-1.2-0.3-2.1c0.1-1.8,1.3-4,3.1-5.6c0.9-0.8,2-1.5,3-2c0.5-0.2,1.1-0.4,1.5-0.6c0.5-0.2,1-0.3,1.4-0.4
				c0.9-0.2,1.6-0.4,2.2-0.6c0.5-0.1,0.8-0.2,0.9-0.2c0,0,0.3,0,0.9-0.1c0.5-0.1,1.3-0.2,2.2-0.3c1.8-0.3,4.2-0.7,6.2-1.9
				c2-1.2,3.6-3,4.1-4.7c0.3-0.8,0.3-1.6,0.2-2.1C-16.9,215.1-16.9,214.8-16.9,214.8z"/>
		</g>
		<g id="XMLID_1761_">
			<path id="XMLID_1762_" fill="#FFFFFF" d="M-213.1,210c0,0,0.2-0.2,0.5-0.6c0.3-0.4,0.9-0.9,1.4-1.7c1.1-1.4,2.1-3.6,2.9-5.8
				c0.6-2.3,0.9-4.6,0.8-6.3c0-0.9-0.2-1.6-0.2-2.1c-0.1-0.5-0.1-0.8-0.1-0.8s-0.1-0.3-0.1-0.8c-0.1-0.5-0.2-1.2-0.4-2
				c-0.1-0.4-0.2-0.8-0.4-1.3c-0.2-0.4-0.4-0.9-0.6-1.4c-0.1-0.2-0.2-0.5-0.3-0.7c-0.1-0.2-0.3-0.5-0.4-0.7c-0.3-0.5-0.5-1-0.9-1.5
				c-1.3-1.9-3-3.6-4.4-4.7c-0.7-0.6-1.3-0.9-1.8-1.2c-0.4-0.3-0.7-0.5-0.7-0.5s0.3,0.1,0.7,0.4c0.4,0.3,1.2,0.5,1.9,1.1
				c1.5,1,3.4,2.5,5,4.4c0.4,0.5,0.7,1,1.1,1.4c0.2,0.2,0.3,0.5,0.5,0.7c0.1,0.3,0.3,0.5,0.4,0.8c0.3,0.5,0.5,1,0.8,1.4
				c0.2,0.5,0.4,0.9,0.6,1.4c0.4,0.8,0.5,1.6,0.7,2.1c0.1,0.5,0.2,0.8,0.2,0.9c0,0,0.1,0.3,0.1,0.9c0,0.6,0.1,1.4,0,2.3
				c-0.1,1.9-0.6,4.3-1.5,6.6c-1,2.3-2.3,4.4-3.5,5.7c-0.5,0.7-1.2,1.2-1.5,1.6C-212.9,209.8-213.1,210-213.1,210z"/>
		</g>
		<g id="XMLID_1759_">
			<path id="XMLID_1760_" fill="#FFFFFF" d="M-267.9,291.7c0,0,0.6-0.4,1.5-1c1-0.5,2-1.6,3.1-2.5c0.9-1.1,1.9-2.1,2.5-3
				c0.6-0.9,1-1.5,1-1.5s0.4-0.6,1-1.4c0.2-0.2,0.3-0.4,0.5-0.7c0.1-0.3,0.3-0.5,0.4-0.8c0.3-0.6,0.7-1.2,1-1.8
				c0.5-1.3,1.1-2.5,1.2-3.6c0.2-1,0.4-1.7,0.4-1.7s0,0.7-0.1,1.7c0,1.1-0.3,2.4-0.6,3.8c-0.2,0.7-0.5,1.3-0.7,2
				c-0.1,0.3-0.2,0.6-0.3,0.9c-0.1,0.3-0.3,0.5-0.4,0.8c-0.5,1-0.8,1.6-0.9,1.7c0,0-0.5,0.6-1.3,1.4c-0.7,0.9-2,1.8-3.1,2.7
				c-1.3,0.8-2.5,1.7-3.6,2C-267.2,291.4-267.9,291.7-267.9,291.7z"/>
		</g>
		<g id="XMLID_1757_">
			<path id="XMLID_1758_" fill="#FFFFFF" d="M-268.3,354.5c0,0,0-0.3,0.1-0.9c0.1-0.6,0.2-1.4,0.5-2.4c0.5-1.9,1.5-4.4,2.8-6.8
				c1.3-2.4,2.7-4.7,3.7-6.4c0.5-0.9,0.9-1.6,1.2-2.1s0.4-0.8,0.4-0.8s0.7-1.2,1.6-2.8c0.4-0.9,0.8-1.9,1.3-3
				c0.2-0.6,0.3-1.1,0.5-1.7c0.1-0.6,0.2-1.2,0.3-1.8c0.3-2.5,0-5-0.7-6.8c-0.2-0.4-0.4-0.8-0.5-1.2c-0.2-0.3-0.4-0.6-0.5-0.9
				c-0.3-0.5-0.5-0.7-0.5-0.7s0.2,0.3,0.6,0.7c0.2,0.2,0.4,0.5,0.6,0.8c0.2,0.3,0.4,0.7,0.7,1.2c0.9,1.7,1.5,4.3,1.4,7
				c0,0.7-0.1,1.3-0.2,2c-0.1,0.6-0.2,1.3-0.4,1.9c-0.4,1.2-0.7,2.3-1.1,3.2c-0.8,1.8-1.4,3-1.4,3.1c0,0-0.2,0.3-0.5,0.8
				c-0.3,0.5-0.8,1.2-1.4,2.1c-1.2,1.7-2.8,3.8-4.2,6.1c-1.5,2.2-2.7,4.6-3.4,6.4c-0.3,0.9-0.6,1.7-0.7,2.3
				C-268.2,354.1-268.3,354.5-268.3,354.5z"/>
		</g>
		<g id="XMLID_1755_">
			<path id="XMLID_1756_" fill="#FFFFFF" d="M-147.3,211.4c0,0-0.2,0.1-0.7,0.3c-0.4,0.2-1.1,0.4-1.7,0.8c-1.4,0.7-3.1,1.9-4.6,3.4
				c-1.4,1.5-2.5,3.2-3.1,4.5c-0.3,0.7-0.5,1.3-0.7,1.7c-0.2,0.4-0.2,0.7-0.2,0.7s-0.1,0.2-0.2,0.7c-0.1,0.4-0.4,1-0.5,1.7
				c-0.4,1.4-0.5,3.3-0.4,5.3c0.2,1.9,0.7,3.8,1.4,5.2c0.3,0.7,0.6,1.2,0.8,1.6s0.3,0.6,0.3,0.6s-0.1-0.2-0.4-0.6
				c-0.2-0.4-0.7-0.8-1-1.5c-0.8-1.3-1.6-3.2-2-5.2s-0.5-4.1-0.2-5.7c0-0.8,0.2-1.4,0.3-1.9s0.2-0.7,0.2-0.7s0.1-0.3,0.3-0.7
				s0.5-1.1,0.9-1.8c0.9-1.4,2.3-3.1,3.9-4.5c1.7-1.3,3.6-2.4,5.1-3c0.7-0.3,1.4-0.5,1.8-0.6C-147.5,211.5-147.3,211.4-147.3,211.4z
				"/>
		</g>
		<g id="XMLID_1753_">
			<path id="XMLID_1754_" fill="#FFFFFF" d="M-166.9,201.3c0,0,0,0.3,0.1,1c0,0.3,0.1,0.7,0.1,1.1c0,0.4,0,0.9-0.1,1.5
				c-0.2,2.1-1.3,4.9-3,7.3c-1.6,2.4-3.7,4.5-5.3,6.1c-0.8,0.8-1.4,1.4-1.9,1.9c-0.4,0.5-0.7,0.7-0.7,0.8c0,0-0.3,0.3-0.7,0.7
				c-0.5,0.4-1.1,1-1.8,1.8c-1.4,1.5-3.2,3.6-4,6.2c-0.9,2.5-1,5.3-0.3,7.2c0.3,1,0.8,1.7,1.1,2.2c0.4,0.5,0.6,0.7,0.6,0.7
				s-0.2-0.3-0.7-0.7c-0.4-0.5-0.9-1.2-1.3-2.2c-0.9-1.9-1.1-4.8-0.3-7.6c0.7-2.8,2.4-5.2,3.7-6.9c0.7-0.8,1.3-1.5,1.7-2
				s0.7-0.7,0.7-0.8c0,0,0.3-0.3,0.8-0.7s1.2-1,2-1.7c1.6-1.4,3.8-3.3,5.6-5.5c1.8-2.2,3-4.7,3.4-6.8c0.1-0.5,0.1-1,0.2-1.4
				c0.1-0.4,0-0.8,0-1.1C-166.9,201.7-166.9,201.3-166.9,201.3z"/>
		</g>
		<g id="XMLID_1751_">
			<path id="XMLID_1752_" fill="#FFFFFF" d="M-219.6,226.6c0,0-0.2,0.2-0.5,0.5c-0.2,0.2-0.3,0.4-0.6,0.6c-0.1,0.1-0.2,0.2-0.3,0.4
				c-0.1,0.2-0.2,0.3-0.3,0.5c-0.9,1.3-1.7,3.2-2.1,5.2c-0.3,2-0.1,4.1,0.3,5.5c0.2,0.7,0.5,1.3,0.7,1.7c0.2,0.4,0.3,0.6,0.3,0.6
				s0.1,0.2,0.3,0.6c0.2,0.4,0.4,1,0.9,1.5c0.2,0.3,0.5,0.6,0.7,1c0.3,0.3,0.6,0.6,1,1c0.2,0.2,0.3,0.3,0.5,0.5l0.6,0.4
				c0.4,0.3,0.8,0.6,1.2,0.9c1.8,1,3.8,1.7,5.4,1.9c0.4,0.1,0.8,0.1,1.1,0.1c0.3,0,0.6,0,0.8,0c0.5,0,0.7,0,0.7,0s-0.3,0-0.7,0.1
				c-0.2,0-0.5,0-0.8,0.1c-0.3,0-0.7,0.1-1.1,0c-1.6,0-3.8-0.5-5.8-1.4c-0.5-0.2-1-0.5-1.4-0.8c-0.2-0.1-0.5-0.3-0.7-0.4
				c-0.2-0.2-0.4-0.3-0.6-0.5c-0.4-0.3-0.8-0.6-1.2-0.9c-0.3-0.4-0.6-0.7-0.9-1c-0.6-0.6-1-1.2-1.2-1.6c-0.3-0.4-0.4-0.7-0.4-0.7
				s-0.2-0.3-0.3-0.8s-0.4-1.2-0.5-2c-0.3-1.7-0.3-3.9,0.3-6c0.7-2.1,1.7-4,2.8-5.2c0.1-0.2,0.2-0.3,0.4-0.5
				c0.1-0.1,0.3-0.2,0.4-0.4c0.2-0.2,0.5-0.4,0.6-0.6C-219.8,226.8-219.6,226.6-219.6,226.6z"/>
		</g>
		<g id="XMLID_1749_">
			<path id="XMLID_1750_" fill="#FFFFFF" d="M-96.4,243.1c0,0-0.1-0.3-0.4-0.8c-0.1-0.2-0.3-0.5-0.4-0.9c-0.2-0.3-0.4-0.7-0.6-1.1
				c-0.9-1.6-2.6-3.5-4.6-5.1c-2-1.5-4.3-2.6-6.1-3.2c-0.9-0.3-1.7-0.4-2.2-0.6c-0.5-0.1-0.9-0.2-0.9-0.2s-0.3-0.1-0.9-0.2
				c-0.5-0.1-1.3-0.3-2.2-0.3c-0.5,0-1,0-1.5-0.1c-0.5,0-1.1,0.1-1.6,0.1c-0.3,0-0.6,0-0.9,0.1c-0.3,0.1-0.6,0.1-0.9,0.2
				c-0.6,0.1-1.2,0.2-1.8,0.4c-2.4,0.7-4.6,1.8-6.1,2.8c-0.8,0.5-1.3,1-1.8,1.4c-0.4,0.3-0.7,0.5-0.7,0.5s0.2-0.2,0.6-0.6
				c0.4-0.4,0.9-1,1.6-1.5c1.4-1.2,3.6-2.5,6-3.5c0.6-0.2,1.2-0.4,1.8-0.6c0.3-0.1,0.6-0.2,0.9-0.3c0.3-0.1,0.6-0.1,0.9-0.2
				c0.6-0.1,1.2-0.2,1.7-0.3c0.6,0,1.1,0,1.6-0.1c1-0.1,1.8,0,2.4,0.1c0.6,0.1,0.9,0.1,1,0.1c0,0,0.4,0.1,1,0.3s1.4,0.4,2.3,0.8
				c1.9,0.8,4.2,2.2,6.1,3.9c1.9,1.8,3.4,3.9,4.2,5.6c0.2,0.4,0.4,0.8,0.5,1.2c0.1,0.4,0.2,0.7,0.3,0.9
				C-96.5,242.8-96.4,243.1-96.4,243.1z"/>
		</g>
		<g id="XMLID_1747_">
			<path id="XMLID_1748_" fill="#FFFFFF" d="M-16.5,321c0,0,0.1-0.4,0.3-1.1c0.2-0.7,0.5-1.6,0.8-2.8c0.6-2.3,1.1-5.5,1.4-8.7
				c0.2-3.2-0.1-6.4-0.5-8.7c-0.2-1.2-0.5-2.1-0.7-2.8s-0.3-1.1-0.3-1.1s-0.1-0.4-0.3-1.1c-0.2-0.7-0.4-1.6-0.9-2.7
				c-0.2-0.5-0.5-1.1-0.7-1.7c-0.3-0.6-0.7-1.2-1-1.8c-0.2-0.3-0.4-0.6-0.5-1c-0.2-0.3-0.4-0.6-0.7-0.9c-0.5-0.6-0.9-1.3-1.4-1.9
				c-1.1-1.1-2.1-2.4-3.3-3.2c-1.1-1-2.3-1.7-3.3-2.3c-0.5-0.3-1-0.6-1.5-0.8c-0.4-0.2-0.8-0.4-1.2-0.5c-0.6-0.3-1-0.5-1-0.5
				s0.4,0.1,1,0.4c0.3,0.1,0.7,0.3,1.2,0.4c0.5,0.2,1,0.4,1.5,0.7c1.1,0.6,2.4,1.2,3.6,2.2c1.3,0.8,2.4,2,3.6,3.1
				c0.6,0.6,1.1,1.2,1.6,1.8c0.3,0.3,0.5,0.6,0.8,0.9c0.2,0.3,0.4,0.6,0.6,1c0.4,0.6,0.8,1.2,1.2,1.8c0.3,0.6,0.6,1.2,0.9,1.8
				c0.6,1.1,0.9,2.1,1.2,2.7c0.3,0.7,0.4,1.1,0.4,1.1s0.1,0.4,0.3,1.2c0.1,0.7,0.4,1.8,0.5,3c0.3,2.5,0.3,5.8-0.1,9
				c-0.5,3.2-1.2,6.4-2,8.7c-0.3,1.2-0.8,2.1-1,2.8C-16.3,320.7-16.5,321-16.5,321z"/>
		</g>
		<g id="XMLID_1745_">
			<path id="XMLID_1746_" fill="#FFFFFF" d="M-16.2,338.6c0,0-0.3-0.2-0.9-0.6c-0.5-0.4-1.4-0.8-2.3-1.6c-1.9-1.3-4.2-3.4-6.2-5.7
				c-2-2.3-3.8-4.9-4.9-6.9c-0.6-1-1-1.9-1.3-2.5c-0.3-0.6-0.5-1-0.5-1s-0.1-0.4-0.3-1c-0.2-0.6-0.5-1.5-0.8-2.6
				c-0.6-2.1-1-5.1-1.2-8c-0.1-2.9,0.1-5.8,0.5-8c0.1-1.1,0.4-1.9,0.5-2.6c0.1-0.6,0.2-1,0.2-1s-0.1,0.4-0.1,1
				c-0.1,0.6-0.3,1.5-0.3,2.6c-0.2,2.1-0.2,5,0.2,7.9c0.4,2.8,1.1,5.6,1.8,7.6c0.3,1,0.7,1.9,0.9,2.4c0.2,0.6,0.4,0.9,0.4,1
				c0,0,0.1,0.4,0.4,1c0.3,0.6,0.6,1.5,1.1,2.5c0.9,2,2.4,4.6,4.2,7c1.8,2.4,3.9,4.6,5.7,6c0.8,0.8,1.6,1.3,2.2,1.7
				C-16.5,338.4-16.2,338.6-16.2,338.6z"/>
		</g>
		<g id="XMLID_1743_">
			<path id="XMLID_1744_" fill="#FFFFFF" d="M-11.2,386.2c0,0,1-4.5,2.1-9.1c0.3-2.3,0.7-4.6,0.9-6.3c0.1-0.9,0.2-1.6,0.3-2.1
				c0.1-0.5,0.1-0.8,0.1-0.8c0-0.1,0.8-4.5,1.5-9c0.4-4.5,0.8-9,0.8-9s0.1,4.5,0.1,9.1c-0.3,4.6-0.6,9.1-0.6,9.2c0,0,0,0.3-0.2,0.8
				c-0.1,0.5-0.3,1.2-0.5,2.1c-0.4,1.7-1,4-1.6,6.3C-9.7,381.8-11.2,386.2-11.2,386.2z"/>
		</g>
		<g id="XMLID_1741_">
			<path id="XMLID_1742_" fill="#FFFFFF" d="M-0.8,310.4c0,0-0.1-0.9-0.1-2.3s-0.4-3.2-0.6-5c-0.4-1.8-0.8-3.6-1.2-4.9
				c-0.2-0.7-0.4-1.2-0.5-1.6s-0.2-0.6-0.2-0.6s-0.2-0.9-0.6-2.2c-0.1-0.3-0.2-0.7-0.3-1c-0.1-0.4-0.3-0.7-0.4-1.1
				c-0.3-0.8-0.6-1.6-0.9-2.5c-0.7-1.6-1.4-3.3-2.1-4.4c-0.7-1.2-1.1-2-1.1-2s0.5,0.7,1.3,1.8c0.9,1.1,1.8,2.6,2.7,4.2
				c0.4,0.8,0.8,1.6,1.2,2.4c0.2,0.4,0.4,0.8,0.6,1.1c0.1,0.4,0.3,0.7,0.4,1c0.5,1.3,0.9,2.2,0.9,2.2s0.1,0.3,0.1,0.7
				c0.1,0.4,0.2,1,0.3,1.7c0.3,1.4,0.4,3.3,0.6,5.1c0,1.9,0.1,3.7,0,5.1C-0.7,309.5-0.8,310.4-0.8,310.4z"/>
		</g>
		<g id="XMLID_1739_">
			<path id="XMLID_1740_" fill="#FFFFFF" d="M-132.2,207.9c0,0-0.3,0.1-0.7,0.2c-0.5,0.2-1.2,0.3-1.9,0.7c-1.6,0.6-3.5,1.7-5.3,3.1
				c-1.7,1.4-3.3,2.9-4.2,4.2c-0.5,0.6-0.8,1.2-1.1,1.6s-0.4,0.6-0.4,0.7c0,0-0.2,0.2-0.4,0.6c-0.3,0.4-0.7,0.9-1,1.6
				c-0.8,1.3-1.6,3.3-2.1,5.3s-0.7,4.1-0.7,5.7c0,0.8,0.1,1.4,0.1,1.9s0.1,0.7,0.1,0.7s-0.1-0.3-0.1-0.7c-0.1-0.5-0.3-1.1-0.3-1.9
				c-0.2-1.6-0.3-3.7,0-5.9c0.3-2.1,0.9-4.3,1.6-5.8c0.3-0.8,0.7-1.4,0.9-1.8c0.2-0.4,0.4-0.7,0.4-0.7s0.2-0.3,0.5-0.7
				s0.8-1,1.4-1.6c1.2-1.3,3-2.8,4.9-4c2-1.2,4.1-2.1,5.8-2.6c0.8-0.3,1.5-0.4,2-0.5C-132.5,208-132.2,207.9-132.2,207.9z"/>
		</g>
		<g id="XMLID_1737_">
			<path id="XMLID_1738_" fill="#FFFFFF" d="M-150.7,154.1c0,0-0.3,0.1-0.8,0.2c-0.3,0.1-0.6,0.1-0.9,0.2c-0.3,0.1-0.7,0.3-1.1,0.4
				c-1.6,0.7-3.6,2.2-4.9,4.1c-1.4,1.9-2.1,4-2.4,5.7c-0.1,0.4-0.1,0.8-0.2,1.1c0,0.3-0.1,0.6-0.1,0.9c-0.1,0.5,0,0.8,0,0.8
				s0,0.3-0.1,0.8s-0.1,1.2-0.1,2c0,0.4,0,0.9,0,1.3c0,0.5,0.1,1,0.1,1.5c0.2,1,0.4,2.1,0.6,3.2c0.3,1.1,0.5,2.2,0.9,3.2
				c0.3,1,0.6,2,0.9,2.8c0.6,1.6,0.9,2.7,0.9,2.7s-0.5-1-1.2-2.6c-0.3-0.8-0.7-1.7-1.2-2.7c-0.4-1-0.8-2.1-1.2-3.2
				c-0.3-1.1-0.6-2.2-0.9-3.3c-0.1-0.5-0.2-1.1-0.3-1.6s-0.1-1-0.2-1.4c-0.1-0.9-0.2-1.6-0.1-2.2c0-0.5,0-0.8,0-0.9
				c0,0,0-0.3,0.1-0.9c0-0.3,0.1-0.6,0.2-1c0.1-0.4,0.2-0.8,0.3-1.2c0.5-1.8,1.6-4.1,3.2-5.9c1.6-1.9,3.8-3.2,5.6-3.8
				c0.4-0.1,0.9-0.2,1.2-0.3c0.4-0.1,0.7-0.1,1-0.2C-151,154.1-150.7,154.1-150.7,154.1z"/>
		</g>
		<g id="XMLID_1735_">
			<path id="XMLID_1736_" fill="#FFFFFF" d="M-172.6,164.4c0,0,0.1-0.2,0.2-0.6c0.1-0.2,0.1-0.4,0.2-0.7c0-0.1,0.1-0.3,0.1-0.4
				c0-0.2,0-0.3,0.1-0.5c0.3-1.4,0.1-3.2-0.3-4.9c-0.5-1.7-1.3-3.4-2.1-4.5c-0.4-0.6-0.8-1-1-1.3c-0.2-0.3-0.4-0.5-0.4-0.5
				s-0.1-0.2-0.4-0.5c-0.2-0.3-0.5-0.8-1-1.3c-0.8-1.1-2.1-2.3-3.5-3.5c-1.4-1.2-2.9-2.3-4-3.2c-1.1-0.8-1.9-1.4-1.9-1.4
				s0.8,0.5,2,1.1c1.2,0.7,2.8,1.6,4.4,2.7c1.5,1.1,3.1,2.2,4.1,3.2c0.5,0.5,0.9,0.9,1.2,1.2s0.5,0.5,0.5,0.5s0.2,0.2,0.4,0.6
				c0.2,0.4,0.6,0.9,0.9,1.6c0.7,1.3,1.3,3.2,1.6,5.1c0.2,1.9,0.1,3.8-0.3,5.2c0,0.2-0.1,0.3-0.1,0.5c-0.1,0.1-0.1,0.3-0.2,0.4
				c-0.1,0.3-0.2,0.5-0.3,0.7C-172.5,164.2-172.6,164.4-172.6,164.4z"/>
		</g>
		<g id="XMLID_1733_">
			<path id="XMLID_1734_" fill="#FFFFFF" d="M-198,181.8c0,0,0.3-1,0.7-2.6c0.5-1.5,0.7-3.7,1-5.8c0.1-2.1,0.3-4.3,0.1-5.9
				c0-0.8-0.1-1.5-0.1-1.9c0-0.5-0.1-0.8-0.1-0.8s0-1.1-0.1-2.6c0-0.4,0-0.8,0-1.3c-0.1-0.4-0.1-0.9-0.2-1.4c-0.1-1-0.2-2-0.4-3
				c-0.5-2-0.9-4.1-1.5-5.5c-0.5-1.5-0.9-2.5-0.9-2.5s0.5,0.9,1.1,2.4c0.8,1.4,1.4,3.4,2.1,5.4c0.3,1,0.5,2.1,0.8,3
				c0.1,0.5,0.2,1,0.3,1.4c0.1,0.5,0.1,0.9,0.2,1.3c0.2,1.6,0.4,2.7,0.4,2.7s0,0.3,0,0.8s-0.1,1.2-0.1,2c0,1.7-0.5,3.8-0.8,6
				c-0.6,2.1-1,4.2-1.7,5.7C-197.6,180.7-198,181.8-198,181.8z"/>
		</g>
		<g id="XMLID_1731_">
			<path id="XMLID_1732_" fill="#FFFFFF" d="M-217.6,201.6c0,0,0.3-0.8,0.7-1.9c0.5-1.1,0.7-2.7,1.1-4.2c0.1-1.6,0.3-3.1,0.2-4.3
				c-0.1-1.2-0.1-2-0.1-2s0-0.8-0.1-1.9c0-0.3,0-0.6,0-0.9c-0.1-0.3-0.1-0.7-0.2-1c-0.1-0.7-0.2-1.5-0.4-2.2c-0.5-1.4-0.9-3-1.5-4
				c-0.5-1.1-0.9-1.8-0.9-1.8s0.5,0.6,1.1,1.6c0.8,0.9,1.4,2.4,2.1,3.8c0.3,0.7,0.5,1.5,0.8,2.2c0.1,0.4,0.2,0.7,0.3,1
				s0.1,0.7,0.2,1c0.2,1.2,0.4,2,0.4,2.1c0,0-0.1,0.9-0.2,2.1c0,1.3-0.5,2.9-0.8,4.5c-0.6,1.5-1.1,3.1-1.8,4.2
				C-217.2,200.9-217.6,201.6-217.6,201.6z"/>
		</g>
		<g id="XMLID_1729_">
			<path id="XMLID_1730_" fill="#FFFFFF" d="M-248.4,206.8c0,0-0.3,0.1-0.7,0.3c-0.4,0.2-1.1,0.5-1.8,0.9c-1.5,0.8-3.3,2.1-4.9,3.6
				c-1.6,1.5-3,3.2-3.9,4.5c-0.5,0.7-0.8,1.3-1,1.7c-0.3,0.4-0.4,0.7-0.4,0.7s-0.2,0.2-0.4,0.6c-0.2,0.4-0.6,0.9-1,1.6
				c-0.8,1.4-1.5,3.3-2.1,5.3c-0.5,2-0.8,4.1-0.8,5.7c0,0.8,0,1.4,0,1.9s0,0.7,0,0.7s0-0.3-0.1-0.7c-0.1-0.5-0.2-1.1-0.3-1.9
				c-0.2-1.6-0.2-3.7,0.1-5.9c0.3-2.1,0.9-4.3,1.5-5.8c0.3-0.8,0.6-1.4,0.8-1.9c0.2-0.4,0.3-0.7,0.4-0.7c0,0,0.2-0.3,0.5-0.7
				c0.3-0.4,0.7-1,1.3-1.7c1.1-1.3,2.8-2.9,4.6-4.3c1.9-1.3,3.8-2.5,5.4-3.1c0.8-0.4,1.5-0.6,1.9-0.7
				C-248.7,206.9-248.4,206.8-248.4,206.8z"/>
		</g>
		<g id="XMLID_1727_">
			<path id="XMLID_1728_" fill="#FFFFFF" d="M-283,268.1c0,0,0-1.2,0-3c-0.1-1.8,0.3-4.2,0.5-6.7c0.5-2.4,0.9-4.8,1.6-6.6
				c0.3-0.9,0.5-1.6,0.7-2.2c0.2-0.5,0.3-0.8,0.3-0.9c0,0,0.6-1.1,1.5-2.7c0.2-0.4,0.5-0.8,0.7-1.3c0.3-0.4,0.6-0.9,0.9-1.3
				c0.7-0.9,1.3-1.9,2.1-2.9c1.6-1.8,3.1-3.7,4.5-4.9c1.3-1.2,2.2-2,2.2-2s-0.8,0.9-2,2.2c-1.3,1.3-2.6,3.3-4,5.2
				c-0.6,1-1.2,2-1.7,3c-0.3,0.5-0.5,0.9-0.8,1.4c-0.2,0.5-0.4,0.9-0.6,1.3c-0.7,1.6-1.2,2.7-1.2,2.7c-0.1,0-0.5,1.2-1.3,2.8
				c-0.8,1.6-1.5,4-2.2,6.3c-0.5,2.4-1.1,4.7-1.2,6.5C-282.9,266.9-283,268.1-283,268.1z"/>
		</g>
		<g id="XMLID_1725_">
			<path id="XMLID_1726_" fill="#FFFFFF" d="M-55.4,274.1c0,0-0.4-0.1-1-0.2c-0.3-0.1-0.7-0.1-1.2-0.3c-0.4-0.2-0.9-0.3-1.4-0.5
				c-2.1-0.9-4.6-2.7-6.5-5c-2-2.3-3.2-5-4.2-7c-0.4-1-0.8-1.9-1-2.5c-0.3-0.6-0.4-1-0.4-1s-0.4-1.4-1-3.4c-0.3-1-0.7-2.2-1.1-3.4
				c-0.2-0.6-0.5-1.2-0.7-1.9c-0.3-0.6-0.5-1.3-0.8-1.9c-1.2-2.5-2.8-4.8-4.3-6.2c-0.4-0.4-0.8-0.7-1.1-1c-0.3-0.3-0.7-0.5-0.9-0.7
				c-0.5-0.4-0.8-0.6-0.8-0.6s0.3,0.2,0.9,0.5c0.3,0.2,0.6,0.3,1,0.6c0.3,0.3,0.7,0.6,1.2,0.9c1.7,1.4,3.6,3.6,5,6
				c0.4,0.6,0.7,1.2,1,1.9c0.3,0.6,0.6,1.3,0.9,1.9c0.5,1.2,1,2.4,1.4,3.4c0.8,2,1.3,3.3,1.3,3.4c0,0,0.1,0.4,0.3,1s0.5,1.5,0.8,2.5
				c0.8,2,1.8,4.7,3.5,7c1.6,2.3,3.9,4.2,5.8,5.3c0.5,0.2,1,0.4,1.4,0.6s0.8,0.2,1.1,0.3C-55.8,274-55.4,274.1-55.4,274.1z"/>
		</g>
		<g id="XMLID_1723_">
			<path id="XMLID_1724_" fill="#FFFFFF" d="M-16.1,250.6c0,0-0.2,0.3-0.6,0.9c-0.4,0.5-1,1.4-2,2.1c-1.9,1.6-5,2.9-8.3,3.2
				c-3.4,0.4-6.7-0.3-9.1-1c-1.2-0.3-2.2-0.7-2.9-1c-0.7-0.2-1.1-0.4-1.1-0.4s-0.4-0.2-1-0.5s-1.5-0.8-2.6-1.3
				c-2.1-1.1-4.8-2.6-7.7-3.9c-2.8-1.3-5.9-2.1-8.2-2.4c-0.6-0.1-1.1-0.1-1.6-0.1s-0.9,0-1.2,0c-0.7,0-1.1,0-1.1,0s0.4,0,1.1-0.1
				c0.3,0,0.8-0.1,1.2-0.1c0.5,0,1,0,1.6,0c2.4,0.1,5.5,0.8,8.5,1.9s5.9,2.4,8,3.4c1.1,0.5,2,0.9,2.6,1.1c0.6,0.3,1,0.4,1.1,0.4
				c0,0,0.4,0.2,1.1,0.5c0.6,0.3,1.6,0.7,2.7,1.1c2.2,0.8,5.3,1.7,8.5,1.6c3.2-0.1,6.3-1.1,8.2-2.5c1-0.7,1.6-1.4,2.1-1.9
				C-16.4,250.9-16.1,250.6-16.1,250.6z"/>
		</g>
		<g id="XMLID_1721_">
			<path id="XMLID_1722_" fill="#FFFFFF" d="M-47.3,224.8c0,0-0.3,0-0.9,0c-0.3,0-0.6,0-1-0.1c-0.4-0.1-0.8-0.1-1.3-0.2
				c-1.9-0.4-4.4-1.5-6.6-3c-2.2-1.5-4-3.4-5.4-4.8c-1.3-1.4-2.3-2.4-2.3-2.4s-0.8-1-2-2.4c-0.6-0.7-1.4-1.5-2.1-2.3
				c-0.4-0.4-0.9-0.8-1.3-1.2c-0.5-0.4-1-0.7-1.5-1.1c-2-1.4-4.4-2.3-6.2-2.6c-0.5-0.1-0.9-0.1-1.3-0.1c-0.4,0-0.7,0-1,0
				c-0.6,0-0.9,0-0.9,0s0.3,0,0.9-0.1c0.3,0,0.6-0.1,1-0.1s0.8,0,1.3,0c1.9,0.1,4.5,0.9,6.7,2.1c0.6,0.3,1.1,0.7,1.6,1
				c0.5,0.4,1,0.8,1.5,1.1c0.9,0.8,1.7,1.5,2.5,2.2c1.3,1.4,2.2,2.3,2.3,2.3c0,0,0.8,1,2,2.6c1.2,1.5,2.8,3.4,4.8,5.1
				c1.9,1.6,4.2,2.9,6.1,3.4c0.5,0.1,0.9,0.2,1.3,0.3s0.7,0.1,1,0.1C-47.6,224.7-47.3,224.8-47.3,224.8z"/>
		</g>
		<g id="XMLID_1719_">
			<path id="XMLID_1720_" fill="#FFFFFF" d="M-93.5,205.2c0-0.1-0.7,0.6-2,0.6c-0.7,0-1.4-0.2-2.2-0.5c-0.4-0.2-0.7-0.4-1.1-0.6
				c-0.3-0.3-0.6-0.6-1-0.9c-1.2-1.3-2.1-2.7-2.8-3.6c-0.4-0.5-0.7-0.8-0.9-1.1c-0.3-0.3-0.4-0.4-0.4-0.4s-0.4-0.7-1.3-1.5
				c-0.4-0.4-0.9-0.9-1.4-1.4c-0.3-0.2-0.6-0.5-0.9-0.7c-0.3-0.2-0.6-0.5-1-0.7c-0.6-0.5-1.3-0.8-2-1.2s-1.3-0.6-1.8-0.9
				c-1.1-0.4-1.9-0.7-1.9-0.7s0.8,0.2,2,0.4c0.6,0.2,1.3,0.4,2,0.7c0.7,0.3,1.5,0.6,2.2,1c0.4,0.2,0.7,0.4,1.1,0.6
				c0.4,0.2,0.7,0.4,1,0.7c0.7,0.4,1.2,0.9,1.7,1.3c0.5,0.4,0.9,0.8,1.2,1c0.3,0.3,0.4,0.4,0.4,0.4s0.1,0.2,0.4,0.5
				c0.2,0.3,0.5,0.8,0.8,1.3c0.7,1.1,1.3,2.6,2.2,3.9c0.9,1.3,2.3,2.1,3.5,2.3C-94.2,205.7-93.5,205.1-93.5,205.2z"/>
		</g>
	</g>
</g>
</svg>
