<?xml version="1.0" encoding="utf-8"?>
<!-- Generator: Adobe Illustrator 19.0.0, SVG Export Plug-In . SVG Version: 6.00 Build 0)  -->
<svg version="1.1" id="Layer_1" xmlns="http://www.w3.org/2000/svg" xmlns:xlink="http://www.w3.org/1999/xlink" x="0px" y="0px"
	 viewBox="0 0 598 606" style="enable-background:new 0 0 598 606;" xml:space="preserve">
<style type="text/css">
	.st0{fill:#EF7B05;}
	.st1{fill:#FFFFFF;}
</style>
<g id="XMLID_2222_">
	<path id="XMLID_4558_" class="st0" d="M500.9,296.4c0.6-9.6,10.2-19.2,9.6-28.9c-0.5-9.6-11.1-17.8-12.9-27.2
		c-1.8-9.5,5-21.8,2-30.8c-3-9.1-15.3-13.1-19.6-21.4c-4.4-8.3-1.8-22.5-7.5-29.7c-5.7-7.1-18.3-5.6-25.3-11.2
		c-4.3-3.5-3.9-15.9-9-19.1c-4.7-2.9-13.9,4-19.1,1.5c-5-2.4-6.8-14.8-12.1-16.8c-5.2-2-13.2,6.7-18.6,5.3
		c-5.4-1.4-9.2-13.2-14.6-14c-5.6-0.8-11.8,9.5-17.2,9.4c-5.7-0.1-11.8-10.5-17.1-9.7c-6.6,1-6.1,11.2-11.6,13.4
		c-6.1,2.4-12.6-8.8-18.8-2.1c-2.6,2.8-0.2,9.9-6.9,7.8c-3-0.9-5.2-6.9-6.5-10.2c-7-1.8-8.9,7.3-14.7,3.2
		c-4.2-2.9-4.9-11.2-10.7-12.1c-5.4-0.8-11.5,9.6-17.1,9.7c-5.4,0.1-11.7-10.2-17.2-9.4c-5.4,0.8-9.2,12.6-14.6,14
		c-5.4,1.4-13.3-7.3-18.6-5.3c-5.3,2-7.1,14.3-12.1,16.8c-5.2,2.5-14.4-4.4-19.1-1.5c-5.1,3.2-4.7,15.6-9,19.1
		c-7,5.7-19.7,4.2-25.3,11.2c-5.7,7.2-3.1,21.4-7.5,29.7c-4.3,8.2-16.6,12.3-19.6,21.4c-3,9,3.7,21.3,2,30.8
		c-1.8,9.4-12.3,17.6-12.9,27.2c-0.5,9.7,9,19.3,9.6,28.9c0.6,9.7-7.5,20.9-5.7,30.2c0.9,4.7,4.2,8.6,7.7,12.4c-0.9,1-1.8,2-2.8,3.6
		c-0.6,0.9-1.2,2.1-1.6,3.9c-0.1,0.4-0.1,1-0.2,1.5l0,0.8c-0.1-0.6,0.1,1.2,0.1,1.1l0,0.1l0.1,0.5c0,0,0.1,0.3,0.2,0.6
		c0.1,0.3,0.2,0.5,0.3,0.8c0.2,0.5,0.5,1.1,0.7,1.4l0.5,0.8c0.4,0.6,0.7,0.8,1.1,1.2c0.7,0.7,1.3,1.2,2,1.7c1.2,0.9,2.4,1.7,3.4,2.4
		c0.8,0.6,1.6,1.1,2.2,1.6c-0.1,0.1-0.2,0.2-0.3,0.4c-0.6,0.8-1.4,1.6-2.2,2.5c-0.8,0.9-1.7,1.8-2.7,2.9c-0.2,0.3-0.5,0.6-0.7,0.9
		c-0.2,0.3-0.5,0.7-0.8,1.1l-0.4,0.7c-0.1,0.3-0.3,0.6-0.4,0.9c-0.2,0.5-0.5,1.5-0.5,2.4c-0.1-0.6,0.1,1.2,0.1,1.1l0,0.1l0,0.2
		l0.1,0.3c0.1,0.3,0.2,0.6,0.3,0.9c0.2,0.6,0.5,1.2,0.8,1.5l0.6,0.7c0.8,0.8,1.4,1.3,2.1,1.7c1.2,0.8,2.3,1.2,3.4,1.7
		c1,0.5,2,0.9,2.8,1.3c0.1,0,0.1,0.1,0.2,0.1c-0.4,0.7-1,1.4-1.6,2.1c-0.7,0.9-1.3,1.7-2,2.5c-0.7,1-1.4,1.7-2.1,3.6
		c-0.1,0.3-0.2,0.6-0.2,0.9l-0.1,0.5c0,0.2,0,0.4,0,0.6c0,0.2,0,0.4,0.1,0.6l0.1,0.3c0,0,0.4,1,0.2,0.6l0.2,0.3l0.1,0.2l0.3,0.4
		c0.2,0.3,0.4,0.5,0.6,0.7c0.5,0.4,0.6,0.5,0.9,0.7c1.1,0.7,2.1,1,3,1.3c1.8,0.6,3.5,1,4.9,1.5c0.4,0.1,0.8,0.3,1.2,0.5
		c-0.2,0.2-0.5,0.3-0.7,0.5c-0.6,0.4-1.2,0.7-1.9,1c-1.3,0.6-2.5,1.2-3.7,2c-0.6,0.4-1.2,0.8-1.7,1.3c-0.3,0.3-0.5,0.6-0.8,1
		l-0.2,0.3l-0.1,0.2l0,0.1c-0.1,0.4,0,0.2-0.1,0.3l-0.1,0.5c0,1.3,0.3,1.7,0.5,2.4c0.2,0.6,0.5,1.1,0.7,1.6c1,2,1.9,3.5,2.5,4.9
		c0.6,1.3,0.9,2.5,0.8,3.2c0,0.4-0.1,0.7-0.2,0.8c-0.1,0.2-0.1,0.3-0.1,0.3s0.1-0.1,0.2-0.2c0.1-0.2,0.3-0.4,0.3-0.8
		c0.2-0.8,0.1-2-0.4-3.5c-0.4-1.5-1.1-3.3-1.8-5.3c-0.2-0.5-0.3-1-0.5-1.6c-0.2-0.5-0.2-1.2-0.2-1.2c0.1-0.6,1-1.2,2.1-1.7
		c1.1-0.5,2.3-0.9,3.7-1.3c0.7-0.2,1.4-0.5,2.1-0.8c0.7-0.3,1.5-0.6,2.5-1.5c0.2-0.1,0.6-0.7,0.8-1.3c0.1-0.1,0.1-0.3,0.1-0.4l0-0.2
		l0.1-0.3c0-0.9,0-0.4,0-0.6l0-0.2l-0.1-0.4c-0.1-0.3-0.2-0.6-0.3-0.7c-0.2-0.3-0.5-0.8-0.7-1c-1-1-1.8-1.3-2.6-1.7
		c-1.6-0.8-3.3-1.4-4.8-2.1c-0.6-0.2-1-0.5-1.5-0.8c0.2-0.3,0.5-0.6,0.8-0.9c0.7-0.7,1.4-1.4,2.1-2.1c0.6-0.6,1.1-1.2,1.7-1.9
		c0,0.5,0,0.9,0.1,1.5l0.2,1.1l0.1,0.5c0.1,0.3-0.1-0.3,0.2,0.7l0.1,0.1l0.4,0.9c0.3,0.6,0.7,1.2,1.1,1.8c1.3,1.7,2.5,2.6,3.6,3.5
		c1.1,0.8,2.2,1.5,3.2,2.1c1.3,0.8,2.5,1.5,3.6,2.2c0.2,1.7,0.6,3.1,1.5,4.2c0,0,0.1,0.1,0.1,0.1c-0.5,0.8-1.1,1.6-1.6,2.4
		c-2.2,3-4.9,5.8-6.1,9.9l-0.1,0.4l0,0.1c0-0.2-0.1,0.3-0.1,0.3l0,0.2l-0.1,0.6c0,0.5,0,1.2,0,1.7c0.1,0.9,0.3,1.8,0.5,2.6
		c0.4,1.5,0.9,2.8,1.4,4c0.9,2.4,1.5,4.4,1.8,6.1c0.3,1.7,0.2,3-0.1,3.9c-0.3,0.8-0.5,1.3-0.5,1.3s0.3-0.4,0.7-1.2
		c0.4-0.8,0.9-2.2,0.9-4.1c0.1-1.9-0.2-4.2-0.7-6.8c-0.2-1.3-0.4-2.7-0.6-4.1c-0.1-0.7-0.1-1.4-0.1-2c0.1-0.3,0-0.3,0.1-0.7l0.1-0.6
		l0-0.2c0-0.1-0.1,0.4,0,0.2l0-0.1l0.1-0.2c1-2.2,3.6-4.3,6.4-7c1.1-1.1,2.4-2.2,3.6-4.1c0.2,0,0.3,0.1,0.5,0.1c0,0,0,0-0.1,0.1
		c-0.2,0.3-0.6,0.9-0.8,1.4c-0.1,0.3-0.2,0.5-0.4,0.8c-0.1,0.4-0.3,0.9-0.3,1.3c-0.1,0.4-0.2,0.9-0.2,1.3c0,0.1,0.1,1.9,0,1.2l0,0.1
		l0.1,0.5l0.1,0.7c0.1,0.3,0.1,0.6,0.2,0.9c0.2,0.6,0.4,1.3,0.6,1.7c0.3,0.6,0.7,1.3,1,1.7c0.3,0.4,0.7,0.9,1,1.3l1,1
		c1.2,1.1,2.3,2,3.3,2.7c1,0.8,1.9,1.4,2.6,2c0.1,0.1,0.1,0.1,0.2,0.1c-0.3,0.6-0.7,1.2-1.2,1.8c-1.3,1.9-2.9,3.6-4.4,6.8
		c-0.2,0.5-0.4,1-0.5,1.5c-0.2,0.6-0.3,1.3-0.3,1.9c0,0.4,0,0.8,0,1.2l0.1,0.6l0,0.3c0,0,0.3,1.4,0.2,0.8l0.2,0.4l0.1,0.2l0.2,0.4
		c0.3,0.7,0.8,1.5,1.2,1.9c0.3,0.3,0.6,0.7,1,0.9c0.6,0.5,1.2,0.9,1.7,1.2c2.2,1.3,4,1.9,5.6,2.6c0.8,0.4,1.5,0.7,2.1,1.1
		c0.6,0.3,0.9,0.7,0.8,0.5l0,0l0,0c0,0,0,0,0-0.1l0,0l0,0.2c0,0,0,0,0,0.1c0,0,0,0,0,0c0,0,0,0,0-0.1l0,0.1c0,0,0-0.1,0-0.1
		c0,0.1,0,0.2,0,0.3c-0.2,0.6-0.4,1.3-0.8,2c-1.4,3-3.5,5.6-4.3,9.5c-0.1,1-0.2,2.3,0.3,3.3c0.1,0.2,0.5,0.9,0.8,1.3
		c0.3,0.4,0.6,0.6,0.9,0.9c1.2,0.9,2.3,1.3,3.2,1.8c2,0.8,3.6,1.5,4.9,2.1c1.3,0.7,2.2,1.4,2.6,2c0.5,0.6,0.5,1.1,0.6,1.1
		c0,0,0-0.5-0.3-1.2c-0.3-0.8-1.1-1.8-2.3-2.8c-1.2-1-2.8-2-4.5-3.2c-0.8-0.6-1.8-1.3-2.5-2.1c-0.1-0.2-0.4-0.4-0.4-0.6
		c0-0.2-0.1,0-0.2-0.5c-0.1-0.3,0-0.6,0.1-1c0.3-0.9,1.1-2.1,2-3.3c0.9-1.2,2-2.5,3.1-4c0.6-0.8,1.1-1.7,1.6-2.8
		c0.2-0.7,0.5-1.1,0.6-2.4c0-0.3,0-0.6,0.1-0.8l0-0.4l0-0.4c0.1,0.4-0.1-0.6-0.1-0.6l-0.1-0.2l-0.1-0.4c-0.7-2-1.8-3-2.7-3.8
		c-0.9-0.8-1.8-1.4-2.7-2c-1.7-1.1-3.5-2.1-4.7-3.1c-0.1,0-0.1-0.1-0.2-0.1c0.7-0.9,2.1-2.5,3.6-4.1c0.8-0.9,1.7-2,2.7-3.4
		c0.4-0.6,0.8-1.3,1.2-2.3c0.4,0.8,0.9,1.5,1.5,2c1.3,1.1,3.1,1.4,5,1.3c-0.5,1.5-1.3,3.1-2,5.1c-0.4,1.2-0.9,2.6-1.2,4.3l-0.2,1.4
		c0,0.5,0,1.1,0,1.7c0,0.5,0.2,1.3,0.4,1.9l0.1,0.5l0.1,0.2c0.5,1.3,0.2,0.4,0.3,0.7l0.2,0.3l0.2,0.3c0.2,0.3,0.4,0.6,0.6,0.8
		c0.4,0.5,1,1.1,1.2,1.3l0.9,0.7l0.9,0.5c1.1,0.7,2.1,1,3.1,1.4c1.9,0.7,3.5,1.1,4.9,1.7c0.7,0.3,1.3,0.5,1.6,0.7
		c0.4,0.2,0.3,0.3,0.3-0.3l0.1,0.6c0,0,0,0.1,0,0.2c-0.1,0.5-0.3,1.1-0.7,1.7c-0.6,1.2-1.5,2.6-2.3,3.9c-0.8,1.3-1.6,2.6-2.3,4.2
		c-0.3,0.8-0.6,1.7-0.8,2.7l0,0.8l0,0.1c0-0.2,0,0.3,0,0.3l0,0.1l0,0.2l0.1,0.5l0.2,0.7c0.5,1.7,1.2,2.7,1.8,3.7
		c0.6,1,1.2,1.8,1.8,2.6c1.1,1.6,2,2.9,2.6,4.1c0.5,1.2,0.8,2.2,0.7,2.9c-0.1,0.7-0.3,1-0.3,1c0,0,0.2-0.3,0.5-1
		c0.3-0.7,0.3-1.9,0-3.3c-0.3-1.4-1-3.1-1.7-4.9c-0.4-0.9-0.8-1.9-1.2-2.9c-0.4-1-0.8-2.2-0.9-3l0-0.3l0-0.5l0-0.3v-0.1
		c0-0.1,0,0.4,0,0.2l0,0c0-0.1,0.1-0.1,0.1-0.2c0.1-0.3,0.3-0.7,0.6-1.2c0.6-0.9,1.5-1.9,2.5-3c1-1.1,2.1-2.2,3.2-3.7
		c0.6-0.7,1.1-1.6,1.6-2.8c0.1-0.3,0.2-0.6,0.3-1c0.1-0.3,0.2-0.6,0.3-1c1.1,0.5,1.9,0.8,2.6,1.1c-0.1,0.8-0.3,1.6-0.5,2.5
		c-0.4,2.5-1.3,5.2-0.9,9.9c0.2,1.3,0.4,2.6,1.1,4.1c0.2,0.4,0.3,0.7,0.5,1c0-0.1,0.9,1.6,0.5,0.9l0.1,0.1l0.1,0.2l0.9,1
		c0.6,0.6,1.3,1.3,1.8,1.6l1.2,0.7c0.8,0.4,1.5,0.7,2.1,0.9c2.6,0.8,4.5,1,6.2,1.3c1.7,0.2,3.2,0.5,3.6,0.6c0.3,0,0-0.1-0.2-0.9
		l0.3,0.6c-0.1-0.1-0.1-0.3-0.1-0.5c0-0.1,0-0.2,0-0.2l0,0.1c0,0.1,0,0.1,0.1,0.2c0.1,0.8-0.1,2.4-0.4,3.9c-0.3,1.6-0.7,3.2-1,4.9
		c-0.3,1.7-0.6,3.6-0.3,5.9c0,0.5,0.3,1.2,0.5,1.8l0.1,0.2c0.2,0.6,0.1,0.2,0.1,0.3l0,0.1l0.1,0.2l0.3,0.4c0.5,0.7,1.3,1.7,1.8,2.1
		c2.3,1.9,4.2,2.7,5.9,3.5c1.7,0.8,3.1,1.4,4.1,2.1c1,0.7,1.8,1.3,2,1.9c0.3,0.6,0.3,1,0.4,1c0,0,0.1-0.4,0-1.1
		c-0.1-0.8-0.6-1.8-1.5-2.9c-0.9-1.1-2.1-2.3-3.4-3.6c-1.3-1.3-3-2.9-4-4.6c-0.3-0.5-0.3-0.6-0.5-1l-0.2-0.5l-0.1-0.2l0-0.1
		c0,0.1-0.1-0.3,0.1,0.2l0,0c0.1-0.1,0-0.1,0.1-0.3c0.1-0.5,0.5-1.7,1.1-2.9c0.6-1.4,1.3-2.8,2-4.3c0.7-1.7,1.5-3.4,2-6.2l0.1-1.2
		l0-0.6c0-0.2,0-0.6-0.1-0.9c-0.1-0.6-0.2-1.2-0.3-1.8l0,0c0.5,0.4,1,0.7,1.5,1c0.5,0.3,0.8,0.4,1.2,0.6c1.6,0.7,2.6,0.9,3.7,1.2
		c0.6,0.1,1.1,0.2,1.6,0.3c-0.4,0.9-0.7,1.8-1.1,2.9c-0.3,1.2-0.8,2.3-0.8,4.6l0,0.8c0,0.3,0.1,0.7,0.1,1c0.1,0.3,0.1,0.7,0.2,1
		l0.1,0.5c-0.3-0.7,0.5,1.2,0.4,1l0,0.1l0.3,0.4l0.5,0.7c0.2,0.3,0.4,0.5,0.6,0.8c0.2,0.2,0.4,0.5,0.7,0.7c0.2,0.2,0.3,0.2,0.4,0.3
		l0.8,0.5c0.5,0.3,0.9,0.5,1.4,0.7c0.8,0.3,1.6,0.5,2.2,0.7c2.7,0.6,4.9,0.9,6.2,1.2c0.2,0,0.3,0.1,0.4,0.1
		c-0.7,1.4-1.7,2.8-2.5,4.1c-0.8,1.3-1.6,2.4-2,3.4c-0.5,1-0.7,1.9-0.8,2.5c0,0.6,0,0.9,0,0.9s0.1-0.3,0.3-0.7
		c0.3-0.4,0.7-1,1.5-1.6c0.7-0.6,1.7-1.2,2.9-2c0.3-0.2,0.6-0.4,0.9-0.5c-0.1-5.1-0.3-10.3-0.6-15.2c-0.7-0.4-1.4-0.8-2.1-1.2
		c0.5-0.6,1-1.2,1.4-1.9c0.1-0.2,0.3-0.4,0.4-0.6c-0.5-7.7-1.2-14.7-2.3-20.2c0,0-0.1-0.1-0.1-0.1l0.1-0.1c-0.1-0.5-0.2-1.1-0.3-1.6
		l0.3-0.3c-9.8-11.3-18.4-24-22.1-36.7c-1.6-5.6-4.1-14.3-6.8-26c-7.3-11.1-23.6-39-21.3-49.9c2.2-10.8,9.6-16.6,9.6-16.6l1-0.1
		c-0.3-2.6-0.5-5.4-0.8-8.1c3.1-6.8,5.9-15.7,6.3-17.8c2.3-13.9-4.2-28.3-2.2-32c2.2-4.1,7.7-5.2,12.7-6.8c0.4,0.5,0.8,0.9,1.2,1.4
		c0.5,0.6,0.9,1.1,1.2,1.6c-0.4,0.5-1,1-1.6,1.5c-1.1,0.9-2.1,1.8-3.2,2.7c-1.1,1-2.4,2.1-3.7,4.2c-0.3,0.4-0.6,1.3-0.9,1.9
		c-0.1,0.4-0.2,0.8-0.3,1.3l-0.1,0.7l0,0.3c0,1.4,0,0.5,0,0.8l0,0.5c0,0,0,0.3,0.1,0.6l0.2,0.8c0.1,0.5,0.3,1.1,0.4,1.4l0.4,0.8
		c1,1.9,2,3,2.9,4.1c1.8,2,3.5,3.8,4.3,5.3c0.4,0.6,0.4,1.2,0.5,0.8l0,0.2l-0.1,0.1c-0.1,0.2-0.4,0.6-0.7,1c-1.3,1.5-3.1,3-4.9,4.8
		c-0.9,0.9-1.8,1.9-2.7,3.2c-0.4,0.7-0.9,1.5-1.2,2.5c-0.2,0.4-0.2,1.1-0.3,1.6l0,0.2c0,0.3,0-0.3,0,0.6l0,0.2l0.1,0.4l0,0.2
		l0.1,0.4c0.1,0.3,0.2,0.6,0.3,0.9c0.2,0.7,0.4,0.9,0.6,1.3c0.4,0.8,0.8,1.3,1.2,1.8c0.8,1,1.6,1.8,2.4,2.6c1.6,1.5,3.1,2.7,4.2,4
		c0.5,0.6,1,1.3,1.2,1.7c0.1,0.1,0.1,0.2,0.1,0.3c0,0,0,0.1,0,0.1c0-0.1,0,0,0,0l0,0c0,0.2,0,0.6,0,0.7c0,0.1-0.1,0.1-0.1,0.2
		c-0.3,1.2-1.2,2.8-2.1,4.2c-0.9,1.4-1.9,2.8-2.8,4.2c-0.8,1.5-1.8,2.9-1.9,5c0,0.2,0,0.5,0,0.8c0.1,0.3,0,0.4,0.2,0.9
		c0.2,0.4,0.2,0.6,0.5,1c0.5,0.9,1.1,1.4,1.7,1.8c1.2,0.8,2.3,1.2,3.3,1.5c2.1,0.6,3.8,0.9,5.1,1.3c2.8,0.6,3.9,1.9,3.9,1.9
		c0,0-0.2-0.4-0.8-0.9c-0.6-0.5-1.6-1.1-2.9-1.7c-1.3-0.6-3-1.2-4.9-2.1c-0.9-0.4-1.9-1-2.7-1.7c-0.4-0.3-0.7-0.8-0.9-1.1
		c-0.1-0.1-0.2-0.6-0.3-0.9c0.1,0,0-0.3,0.1-0.5c0.2-0.9,1-2.1,1.9-3.3c0.9-1.2,2-2.4,3.1-3.7c1.1-1.4,2.4-2.8,3.3-5.3
		c0.1-0.4,0.2-0.8,0.3-1.2c0.1-0.4,0.1-0.5,0.1-0.8l0-0.2l0-0.1c0-0.6,0-0.2,0-0.4l-0.1-0.6c0-0.4-0.1-0.8-0.3-1.2
		c-0.4-1.5-1.1-2.5-1.8-3.4c-1.3-1.8-2.8-3.3-4.1-4.8c-0.6-0.8-1.3-1.5-1.7-2.2c-0.2-0.3-0.5-0.7-0.5-1c0-0.1-0.1-0.1-0.1-0.2
		c0,0,0,0,0,0c0,0,0,0,0,0l0-0.2l0-0.2c0,0,0-0.1,0,0l0,0c0.1,0,0,0,0.1-0.1c0.1-0.1,0.1-0.1,0.1-0.2c0.1-0.1,0.2-0.2,0.3-0.4
		c0.5-0.6,1.1-1.2,1.9-1.9c1.6-1.4,3.5-2.6,5.6-4.7c0.5-0.6,1.1-1.1,1.6-1.9l0.4-0.6c0.2-0.3,0.3-0.7,0.5-1c0.1-0.3,0.3-0.8,0.4-1.1
		l0.1-0.5c0.6-3.1-0.3-5.1-1-6.8c-1.6-3.2-3.4-5.2-4.9-7.2c-0.5-0.7-0.9-1.3-1.3-1.9c0.4-0.4,0.9-0.8,1.5-1.3
		c1.1-0.8,2.1-1.6,3.2-2.4c1.2-0.9,2.4-1.8,3.9-3.6l0.5-0.8l0.3-0.4c0.1-0.2,0.2-0.4,0.4-0.7c0.2-0.5,0.4-1,0.6-1.5
		c0.1-0.3,0.1-0.3,0.1-0.4l0.1-0.3l0.1-0.3c0.1-0.4-0.1,0.6,0.1-0.9l0-0.4c0-0.5,0-1,0-1.5c-0.1-0.9-0.3-1.7-0.5-2.4
		c-0.9-2.6-2-3.9-2.9-5.3c1.6-2.6,2.5-6.1,3.4-9.6c0.3-0.2,0.6-0.5,0.9-0.8c0.4-0.4,0.9-0.9,1.3-1.5c0.2-0.2,0.5-0.7,0.8-1.3
		c0.3-0.5,0.6-1.3,0.7-1.6l0.2-0.6l0-0.1c0,0.2,0.4-1.7,0.2-1.1l0.1-0.9c0-0.8,0-1.4-0.1-1.9c0.4-0.4,0.8-0.8,1.2-1.2
		c5.6-4.1,16.1,1.8,22.2-1.3c6.1-3.2,8.9-16,15.2-18.3c6.6-2.5,15.7,5.9,21.9,4.3c5.2-1.4,9.1-13.2,15.2-14.5
		c5.6-1.2,13.5,8,19.2,6.4c5.8-1.6,8.7-13.8,14-16c5.7-2.4,15.5,4,20,0.4c4.4-3.5,2.4-9.9,3.1-14.8c1-6.9,5.5-1.7,9.2-5.9
		c0.6-0.7,1.1-1.4,1.5-2.2c-0.3,5-3.4,8.8-1,14.4c1.3,3.2,11.3,1.4,13.1,4.8c1.6,3-4.7,12-2.7,15.2c1.8,3,11.6-0.2,13.9,3.1
		c2,3-3.3,12.7-1.1,15.9c2.1,3.1,11.9-0.3,13.9,2.8c2.1,3.2-3.7,12.6-1.9,15.8c2,3.5,12.1,1.8,13.4,5.1c1.3,3.3-6.7,11-6,16.2
		c0.5,3.3,3.6,3.4,5.4,4.9c2.2,1.9,2.7,4.8,2.7,7.9c0,2.6-0.7,5-2,7.1c-1.3,2.1-4,3.6-3.9,6.6c0.1,3.3,3.7,4.8,4.3,7.8
		c0.7,3.4-0.6,9.8-0.5,13.7c0.1,4.1,0.4,6.2,2.5,8.2c-0.1,1.2-0.2,2.4-0.3,3.5l1,0.1c0,0,7.3,5.8,9.6,16.6
		c2.3,10.9-14,38.8-21.3,49.9c-2.7,11.7-5.1,20.4-6.8,26c-3.7,12.7-12.4,25.4-22.1,36.7l0.3,0.3c-0.1,0.3-0.1,0.6-0.2,0.9
		c0,0,0,0.1,0,0.1l0.5,0.7c-0.3,0.1-0.5,0.3-0.8,0.5c-1,5.2-1.7,11.8-2.2,19.1c0.3,0.5,0.7,0.9,1,1.3c0.5,0.6,1,1.2,1.4,1.9
		c-0.9,0.5-1.8,1-2.7,1.6c-0.2,4.7-0.4,9.6-0.5,14.5c0.5,0.3,1,0.6,1.5,0.9c1.2,0.7,2.2,1.4,2.9,2c0.7,0.6,1.2,1.1,1.5,1.6
		c0.2,0.5,0.3,0.7,0.3,0.7s0-0.3,0-0.9c-0.1-0.6-0.3-1.5-0.8-2.5c-0.5-1-1.2-2.1-2-3.4c-0.8-1.2-1.8-2.6-2.5-4.1
		c0.1,0,0.2,0,0.4-0.1c1.3-0.3,3.5-0.6,6.2-1.2c0.7-0.2,1.4-0.4,2.2-0.7c0.5-0.2,0.9-0.4,1.4-0.7l0.8-0.5c0.2-0.1,0.2-0.1,0.4-0.3
		c0.2-0.2,0.5-0.4,0.7-0.7c0.2-0.2,0.4-0.5,0.6-0.8l0.5-0.7l0.3-0.4l0-0.1c-0.1,0.2,0.7-1.7,0.4-1l0.1-0.5c0.1-0.3,0.2-0.7,0.2-1
		c0.1-0.3,0.1-0.7,0.1-1l0-0.8c0-2.3-0.5-3.4-0.8-4.6c-0.4-1.1-0.7-2.1-1.1-2.9c0.5-0.1,1.1-0.2,1.6-0.3c1-0.2,2.1-0.5,3.7-1.2
		c0.4-0.2,0.8-0.3,1.2-0.6c0.5-0.3,1-0.7,1.5-1l0,0c-0.1,0.6-0.2,1.2-0.3,1.8c0,0.3-0.1,0.7-0.1,0.9l0,0.6l0.1,1.2
		c0.4,2.8,1.3,4.6,2,6.2c0.7,1.5,1.3,2.9,2,4.3c0.6,1.2,0.9,2.4,1.1,2.9c0.1,0.2,0,0.1,0.1,0.3l0,0c0.2-0.5,0.1-0.1,0.1-0.2l0,0.1
		l-0.1,0.2l-0.2,0.5c-0.2,0.4-0.1,0.5-0.5,1c-1,1.7-2.7,3.2-4,4.6c-1.4,1.3-2.6,2.5-3.4,3.6c-0.9,1.1-1.4,2.1-1.5,2.9
		c-0.1,0.8,0,1.1,0,1.1c0,0,0.1-0.4,0.4-1c0.3-0.6,1-1.2,2-1.9c1-0.7,2.4-1.3,4.1-2.1c1.7-0.8,3.7-1.6,5.9-3.5
		c0.5-0.4,1.3-1.4,1.8-2.1l0.3-0.4l0.1-0.2l0-0.1c0.1-0.1-0.1,0.3,0.1-0.3l0.1-0.2c0.2-0.6,0.4-1.3,0.5-1.8c0.3-2.4,0-4.2-0.3-5.9
		c-0.3-1.7-0.7-3.4-1-4.9c-0.3-1.5-0.5-3.1-0.4-3.9c0-0.1,0.1-0.1,0.1-0.2l0-0.1c0,0,0,0.1,0,0.2c0,0.2,0,0.3-0.1,0.5l0.3-0.6
		c-0.2,0.8-0.5,0.9-0.2,0.9c0.5-0.1,1.9-0.4,3.6-0.6c1.7-0.2,3.6-0.5,6.2-1.3c0.7-0.2,1.4-0.5,2.1-0.9l1.2-0.7
		c0.5-0.4,1.3-1,1.8-1.6l0.9-1l0.1-0.2l0.1-0.1c-0.4,0.7,0.6-1,0.5-0.9c0.2-0.3,0.3-0.7,0.5-1c0.7-1.5,0.9-2.8,1.1-4.1
		c0.4-4.7-0.5-7.4-0.9-9.9c-0.2-0.9-0.4-1.7-0.5-2.5c0.6-0.3,1.5-0.7,2.6-1.1c0.1,0.4,0.2,0.7,0.3,1c0.1,0.3,0.2,0.7,0.3,1
		c0.5,1.1,1.1,2,1.6,2.8c1.1,1.5,2.2,2.7,3.2,3.7c1,1.1,1.9,2.1,2.5,3c0.3,0.4,0.5,0.9,0.6,1.2c0,0.1,0,0.1,0.1,0.2l0,0
		c0,0.2,0-0.2,0-0.2v0.1l0,0.3l0,0.5l0,0.3c-0.1,0.8-0.5,2-0.9,3c-0.4,1-0.8,2-1.2,2.9c-0.8,1.9-1.4,3.5-1.7,4.9
		c-0.3,1.4-0.3,2.6,0,3.3c0.3,0.7,0.5,0.9,0.5,1c0,0-0.2-0.4-0.3-1c-0.1-0.7,0.1-1.7,0.7-2.9c0.5-1.2,1.4-2.5,2.6-4.1
		c0.6-0.8,1.2-1.6,1.8-2.6c0.6-1,1.3-2,1.8-3.7l0.2-0.7l0.1-0.5l0-0.2l0-0.1c0,0,0-0.4,0-0.3l0-0.1l0-0.8c-0.1-1.1-0.4-1.9-0.8-2.7
		c-0.7-1.6-1.5-2.9-2.3-4.2c-0.8-1.3-1.6-2.6-2.3-3.9c-0.3-0.6-0.5-1.2-0.7-1.7c0-0.1,0-0.1,0-0.2l0.1-0.6c0,0.7-0.1,0.5,0.3,0.3
		c0.4-0.2,0.9-0.5,1.6-0.7c1.4-0.5,3-1,4.9-1.7c0.9-0.3,1.9-0.7,3.1-1.4l0.9-0.5l0.9-0.7c0.2-0.2,0.8-0.8,1.2-1.3
		c0.2-0.3,0.4-0.6,0.6-0.8l0.2-0.3l0.2-0.3c0.1-0.3-0.2,0.6,0.3-0.7l0.1-0.2l0.1-0.5c0.2-0.6,0.4-1.4,0.4-1.9c0-0.6,0.1-1.2,0-1.7
		l-0.2-1.4c-0.3-1.7-0.7-3.1-1.2-4.3c-0.7-1.9-1.4-3.6-2-5.1c2,0,3.7-0.2,5-1.3c0.6-0.5,1.1-1.2,1.5-2c0.4,1,0.8,1.7,1.2,2.3
		c0.9,1.4,1.8,2.4,2.7,3.4c1.5,1.6,2.9,3.1,3.6,4.1c-0.1,0-0.1,0.1-0.2,0.1c-1.2,1-3,2-4.7,3.1c-0.9,0.6-1.8,1.2-2.7,2
		c-0.9,0.8-2,1.8-2.7,3.8l-0.1,0.4l-0.1,0.2c0,0-0.2,1-0.1,0.6l0,0.4l0,0.4c0,0.3,0,0.6,0.1,0.8c0.1,1.3,0.4,1.7,0.6,2.4
		c0.5,1.1,1.1,2,1.6,2.8c1.1,1.6,2.2,2.8,3.1,4c0.9,1.2,1.7,2.4,2,3.3c0.1,0.4,0.2,0.8,0.1,1c-0.1,0.5-0.2,0.3-0.2,0.5
		c-0.1,0.1-0.3,0.4-0.4,0.6c-0.7,0.8-1.6,1.5-2.5,2.1c-1.7,1.2-3.3,2.3-4.5,3.2c-1.2,1-2,2-2.3,2.8c-0.4,0.8-0.3,1.3-0.3,1.2
		c0,0,0.1-0.5,0.6-1.1c0.4-0.6,1.3-1.3,2.6-2c1.3-0.7,2.9-1.3,4.9-2.1c1-0.5,2.1-0.9,3.2-1.8c0.3-0.3,0.6-0.5,0.9-0.9
		c0.3-0.4,0.7-1,0.8-1.3c0.5-1,0.5-2.3,0.3-3.3c-0.8-3.9-2.9-6.5-4.3-9.5c-0.4-0.7-0.6-1.4-0.8-2c0-0.1,0-0.2,0-0.3c0,0,0,0.1,0,0.1
		l0-0.1c0,0,0,0,0,0.1c0,0,0,0,0,0c0,0,0,0,0-0.1l0-0.2l0,0c0,0,0,0.1,0,0.1l0,0l0,0c0,0.2,0.2-0.2,0.8-0.5c0.5-0.3,1.3-0.7,2.1-1.1
		c1.6-0.7,3.4-1.3,5.6-2.6c0.5-0.3,1.1-0.7,1.7-1.2c0.3-0.3,0.7-0.6,1-0.9c0.4-0.4,0.9-1.2,1.2-1.9l0.2-0.4l0.1-0.2l0.2-0.4
		c-0.1,0.5,0.2-0.8,0.2-0.8l0-0.3l0.1-0.6c0-0.4,0-0.8,0-1.2c-0.1-0.6-0.2-1.3-0.3-1.9c-0.2-0.5-0.3-1-0.5-1.5
		c-1.5-3.2-3.1-4.9-4.4-6.8c-0.5-0.7-0.9-1.3-1.2-1.8c0.1-0.1,0.1-0.1,0.2-0.1c0.7-0.6,1.6-1.2,2.6-2c1-0.8,2.1-1.6,3.3-2.7l1-1
		c0.3-0.4,0.7-0.8,1-1.3c0.3-0.5,0.7-1.1,1-1.7c0.2-0.4,0.5-1.1,0.6-1.7c0.1-0.3,0.2-0.6,0.2-0.9l0.1-0.7l0.1-0.5l0-0.1
		c0,0.7,0.1-1.1,0-1.2c0-0.4-0.1-0.9-0.2-1.3c-0.1-0.4-0.2-0.9-0.3-1.3c-0.1-0.4-0.2-0.6-0.4-0.8c-0.2-0.5-0.6-1.1-0.8-1.4
		c0,0,0,0-0.1-0.1c0.2,0,0.3-0.1,0.5-0.1c1.2,1.9,2.5,2.9,3.6,4.1c2.9,2.6,5.4,4.7,6.4,7l0.1,0.2l0,0.1c0.1,0.2,0-0.2,0-0.2l0,0.2
		l0.1,0.6c0.1,0.4,0,0.5,0.1,0.7c0,0.6,0,1.3-0.1,2c-0.2,1.4-0.4,2.8-0.6,4.1c-0.4,2.6-0.7,4.9-0.7,6.8c0,1.9,0.5,3.3,0.9,4.1
		c0.5,0.8,0.7,1.2,0.7,1.2s-0.2-0.4-0.5-1.3c-0.2-0.9-0.3-2.2-0.1-3.9c0.3-1.7,0.9-3.7,1.8-6.1c0.4-1.2,0.9-2.5,1.4-4
		c0.2-0.8,0.4-1.6,0.5-2.6c0-0.5,0.1-1.3,0-1.7l-0.1-0.6l0-0.2c0,0-0.1-0.5-0.1-0.3l0-0.1l-0.1-0.4c-1.2-4.1-3.9-6.9-6.1-9.9
		c-0.6-0.8-1.2-1.6-1.6-2.4c0,0,0.1-0.1,0.1-0.1c0.8-1.1,1.3-2.6,1.5-4.2c1-0.7,2.3-1.4,3.6-2.2c1-0.6,2-1.2,3.2-2.1
		c1.1-0.8,2.3-1.8,3.6-3.5c0.4-0.6,0.8-1.2,1.1-1.8l0.4-0.9l0.1-0.1c0.4-1.1,0.1-0.4,0.2-0.7l0.1-0.5l0.2-1.1c0.1-0.5,0.1-1,0.1-1.5
		c0.6,0.7,1.2,1.3,1.7,1.9c0.7,0.7,1.4,1.4,2.1,2.1c0.3,0.3,0.6,0.7,0.8,0.9c-0.4,0.3-0.9,0.6-1.5,0.8c-1.5,0.7-3.2,1.3-4.8,2.1
		c-0.8,0.4-1.7,0.8-2.6,1.7c-0.2,0.2-0.5,0.6-0.7,1c-0.1,0.1-0.2,0.5-0.3,0.7l-0.1,0.4l0,0.2c0,0.3,0-0.3,0,0.6l0.1,0.3l0,0.2
		c0,0.1,0.1,0.3,0.1,0.4c0.2,0.6,0.6,1.2,0.8,1.3c1,0.9,1.7,1.2,2.5,1.5c0.8,0.3,1.4,0.5,2.1,0.8c1.3,0.4,2.6,0.8,3.7,1.3
		c1.1,0.5,2,1.1,2.1,1.7c0,0,0,0.7-0.2,1.2c-0.1,0.5-0.3,1.1-0.5,1.6c-0.7,2-1.4,3.8-1.8,5.3c-0.4,1.5-0.5,2.7-0.4,3.5
		c0.1,0.4,0.2,0.7,0.3,0.8c0.1,0.2,0.2,0.2,0.2,0.2s0-0.1-0.1-0.3c-0.1-0.2-0.2-0.4-0.2-0.8c-0.1-0.8,0.2-1.9,0.8-3.2
		c0.6-1.4,1.5-2.9,2.5-4.9c0.2-0.5,0.5-1,0.7-1.6c0.2-0.6,0.5-1.1,0.5-2.4l-0.1-0.5c0-0.1,0.1,0.2-0.1-0.3l0-0.1l-0.1-0.2l-0.2-0.3
		c-0.2-0.5-0.5-0.7-0.8-1c-0.6-0.5-1.1-1-1.7-1.3c-1.2-0.7-2.5-1.3-3.7-2c-0.6-0.3-1.3-0.6-1.9-1c-0.3-0.1-0.5-0.3-0.7-0.5
		c0.3-0.2,0.8-0.3,1.2-0.5c1.4-0.5,3.1-0.9,4.9-1.5c0.9-0.3,1.9-0.6,3-1.3c0.3-0.2,0.5-0.3,0.9-0.7c0.2-0.2,0.4-0.5,0.6-0.7l0.3-0.4
		l0.1-0.2l0.2-0.3c-0.1,0.4,0.2-0.6,0.2-0.6l0.1-0.3c0-0.2,0.1-0.4,0.1-0.6c0-0.2,0-0.4,0-0.6l-0.1-0.5c-0.1-0.3-0.1-0.6-0.2-0.9
		c-0.7-1.9-1.4-2.6-2.1-3.6c-0.7-0.8-1.3-1.7-2-2.5c-0.6-0.7-1.1-1.5-1.6-2.1c0.1,0,0.1-0.1,0.2-0.1c0.8-0.4,1.8-0.8,2.8-1.3
		c1-0.5,2.1-1,3.4-1.7c0.6-0.4,1.3-0.8,2.1-1.7l0.6-0.7c0.3-0.4,0.6-1,0.8-1.5c0.1-0.3,0.2-0.6,0.3-0.9l0.1-0.3l0-0.2l0-0.1
		c0,0.2,0.1-1.7,0.1-1.1c-0.1-0.9-0.3-1.9-0.5-2.4c-0.1-0.3-0.3-0.6-0.4-0.9l-0.4-0.7c-0.3-0.5-0.5-0.8-0.8-1.1
		c-0.3-0.4-0.5-0.7-0.7-0.9c-1-1.1-1.9-2.1-2.7-2.9c-0.8-0.9-1.6-1.7-2.2-2.5c-0.1-0.1-0.2-0.2-0.3-0.4c0.5-0.5,1.3-1,2.2-1.6
		c1-0.7,2.1-1.4,3.4-2.4c0.6-0.5,1.3-1,2-1.7c0.4-0.4,0.7-0.7,1.1-1.2l0.5-0.8c0.2-0.2,0.5-0.9,0.7-1.4c0.1-0.3,0.2-0.5,0.3-0.8
		c0.1-0.3,0.2-0.6,0.2-0.6l0.1-0.5l0-0.1c0,0.2,0.2-1.6,0.1-1.1l0-0.8c0-0.5-0.1-1.2-0.2-1.5c-0.4-1.8-1.1-3-1.6-3.9
		c-1-1.5-1.9-2.6-2.8-3.6c3.5-3.8,6.8-7.7,7.7-12.4C508.4,317.2,500.2,306.1,500.9,296.4z M115.8,371.7L115.8,371.7
		C115.8,371.7,115.8,371.7,115.8,371.7C115.8,371.7,115.8,371.7,115.8,371.7z M118.1,391.7C118.1,391.7,118.1,391.7,118.1,391.7
		L118.1,391.7C118,391.7,118,391.6,118.1,391.7z M125.3,399.2C125.3,399.2,125.3,399.2,125.3,399.2
		C125.3,399.2,125.4,399.1,125.3,399.2z M230.8,489.6C230.8,489.6,230.8,489.6,230.8,489.6l-0.2-0.4l0-0.1
		C230.6,489.1,230.7,489.4,230.8,489.6z M230,488.8c0.1,0.1,0.2,0.2,0.3,0.3c0.1,0.1,0.2,0.2,0.3,0.4l0,0.1
		c-0.1-0.1-0.3-0.2-0.4-0.3C230.2,489.1,230,489,230,488.8L230,488.8C230,488.8,229.9,488.7,230,488.8z M204.6,458.9
		c0.1-0.6,0.1-1.3,0.2-1.9c0-0.2,0-0.2,0-0.6l0-0.9c0-0.6-0.1-1.2-0.2-1.8l-0.2-0.9l-0.1-0.3l-0.1-0.4l-0.1-0.2
		c-0.8-2.2-0.3-0.8-0.5-1.3l-0.1-0.2c0.5-0.2,1-0.4,1.5-0.5c0.1,1.4,0.2,3.2,0.1,1.7l0,0.1l0,0.2l0.1,0.4c0.1,0.7,0.3,1.4,0.6,2.1
		c0.5,1.4,1.2,2.8,2,3.8c0.3,0.4,0.6,0.8,1,1.2c0.3,0.3,0.7,0.8,1,1l0.7,0.6l0.7,0.6l0.6,0.4c0.1,0.1,0.2,0.1,0.2,0.1
		c-0.2,0.4-0.5,0.9-0.7,1.4c-0.2,0.5-0.4,0.9-0.7,1.7l-0.3,1.1c-0.1,0.3-0.2,0.7-0.3,1.3c-0.1,0.5-0.2,1.1-0.2,1.6
		c0,0.6-0.1,1,0,1.8c0,0.7,0.1,1.4,0.3,2.1c0.1,0.3,0.1,0.7,0.2,1c0,0,0,0.1,0.1,0.3c-2.4-1.8-4.3-2.4-6.1-3.2l-2.1-3.9
		C202.8,465.2,203.9,463.1,204.6,458.9z M200.1,469.3C200.1,469.3,200.1,469.3,200.1,469.3c-0.1-0.1-0.1-0.2-0.2-0.2l-0.1-0.2l0-0.1
		C199.5,468.3,199.9,468.9,200.1,469.3z M200,469.3c-0.1,0-0.2-0.1-0.2-0.1c-0.2-0.2-0.4-0.3-0.4-0.4c0,0,0-0.1,0-0.1
		C199.5,468.7,199.8,469,200,469.3z M188.7,456.9c0,0.2,0,0.5,0,1C188.7,457.6,188.6,457.2,188.7,456.9z M209.5,302.9
		c0,0,0-0.1,0-0.2c0,0,0,0,0-0.1L209.5,302.9z M374.7,500.6L374.7,500.6c0,0.1,0,0.2,0,0.2c0,0,0,0.1,0,0.1
		c-0.1-0.3-0.2-0.5-0.2-0.7l0-0.2c0,0,0-0.1,0.1,0c0.1,0.1,0.1,0.2,0.1,0.4C374.7,500.5,374.6,500.6,374.7,500.6l0-0.2l0.1-0.4
		C374.7,500.2,374.8,499.4,374.7,500.6L374.7,500.6z M378.9,489.6c0.1-0.3,0.2-0.6,0.2-0.5l0,0.1L378.9,489.6
		C378.9,489.6,378.9,489.6,378.9,489.6z M379.4,489.2c-0.1,0.1-0.3,0.2-0.4,0.3l0-0.1c0.1-0.1,0.2-0.3,0.3-0.4
		c0.1-0.1,0.2-0.2,0.3-0.3c0.1-0.1,0,0,0.1,0l0,0.1C379.7,489,379.5,489.1,379.4,489.2z M405.4,471.2c-1.8,0.8-3.7,1.4-6.1,3.2
		c0.1-0.2,0.1-0.3,0.1-0.3c0.1-0.3,0.2-0.7,0.2-1c0.1-0.7,0.2-1.4,0.3-2.1c0.1-0.8,0-1.2,0-1.8c0-0.5-0.1-1.1-0.2-1.6
		c-0.1-0.6-0.2-0.9-0.3-1.3l-0.3-1.1c-0.3-0.8-0.5-1.2-0.7-1.7c-0.3-0.5-0.5-1-0.7-1.4c0.1-0.1,0.2-0.1,0.2-0.1l0.6-0.4l0.7-0.6
		l0.7-0.6c0.2-0.2,0.7-0.7,1-1c0.3-0.4,0.7-0.8,1-1.2c0.8-1,1.5-2.4,2-3.8c0.2-0.7,0.4-1.4,0.6-2.1l0.1-0.4l0-0.2l0-0.1
		c-0.1,1.5,0-0.3,0.1-1.7c0.5,0.2,1,0.4,1.5,0.5l-0.1,0.2c-0.2,0.6,0.3-0.9-0.5,1.3l-0.1,0.2l-0.1,0.4l-0.1,0.3l-0.2,0.9
		c-0.1,0.6-0.2,1.2-0.2,1.8l0,0.9c0,0.3,0,0.4,0,0.6c0,0.6,0.1,1.3,0.2,1.9c0.7,4.2,1.8,6.4,2.5,8.4c0.4,1,0.7,2,0.9,2.6
		C407.6,470.3,406.6,470.7,405.4,471.2z M409.6,469.3c0.2-0.4,0.6-1,0.3-0.5l0,0.1l-0.1,0.2C409.7,469.1,409.7,469.2,409.6,469.3
		C409.6,469.3,409.6,469.3,409.6,469.3z M410.3,468.8c0,0.1-0.2,0.2-0.4,0.4c-0.1,0-0.2,0.1-0.2,0.1
		C409.9,469,410.2,468.7,410.3,468.8C410.3,468.7,410.3,468.7,410.3,468.8z M421,456.9c0.1,0.3,0,0.7,0,1
		C421,457.4,421,457.1,421,456.9z M436.3,444.6l-0.1,0.1v0C436.2,444.6,436.3,444.5,436.3,444.6
		C436.3,444.6,436.2,444.7,436.3,444.6z M152.8,426.7c0-0.1,0-0.2,0.1-0.3C152.9,426.3,152.8,426.5,152.8,426.7z M153.1,413.2
		l-0.2-0.3c0-0.1,0.1,0,0,0C153,412.9,153.1,413.1,153.1,413.2L153.1,413.2z M153.4,439.7c0-0.1-0.1-0.2-0.1-0.2
		C153.3,439.4,153.4,439.6,153.4,439.7C153.5,439.7,153.5,439.7,153.4,439.7z M153.6,440L153.6,440C153.6,440,153.6,440,153.6,440
		L153.6,440L153.6,440L153.6,440z M173.5,444.7L173.5,444.7l-0.1-0.1C173.5,444.8,173.3,444.1,173.5,444.7z M173.4,444.8
		C173.3,444.7,173.4,444.8,173.4,444.8C173.5,444.9,173.5,444.9,173.4,444.8C173.5,444.9,173.5,444.9,173.4,444.8z M179.7,457.5
		C179.7,457.6,179.7,457.6,179.7,457.5C179.7,457.6,179.7,457.5,179.7,457.5C179.7,457.3,179.7,457.5,179.7,457.5z M211.1,274.4
		C211.1,274.4,211,274.4,211.1,274.4C211,274.4,211,274.4,211.1,274.4C211.1,274.3,211.1,274.3,211.1,274.4L211.1,274.4z M430,457.6
		C430,457.6,430,457.6,430,457.6c0-0.1-0.1-0.3,0-0.2C430,457.5,430,457.6,430,457.6z M436.3,444.8
		C436.2,444.9,436.2,444.9,436.3,444.8C436.2,444.9,436.2,444.9,436.3,444.8C436.3,444.8,436.4,444.7,436.3,444.8z M456.1,440
		L456.1,440L456.1,440L456.1,440C456.1,440,456.1,440,456.1,440L456.1,440z M456.3,439.7C456.2,439.7,456.2,439.7,456.3,439.7
		c0-0.1,0.1-0.2,0.1-0.2C456.3,439.5,456.3,439.6,456.3,439.7z M456.6,413.2L456.6,413.2c0-0.1,0.1-0.3,0.1-0.3c0,0,0.1-0.1,0,0
		L456.6,413.2z M456.9,426.4c0,0.1,0,0.2,0.1,0.3C456.9,426.5,456.8,426.3,456.9,426.4z M491.6,391.7
		C491.6,391.7,491.6,391.7,491.6,391.7C491.7,391.6,491.7,391.7,491.6,391.7L491.6,391.7z M493.9,371.7L493.9,371.7
		C493.9,371.7,493.9,371.7,493.9,371.7C493.9,371.7,493.9,371.7,493.9,371.7z"/>
	<g id="XMLID_4528_">
		<path id="XMLID_350_" class="st1" d="M472.4,411.2c0,0-0.4-0.2-1.2-0.7c-0.7-0.5-1.8-1.3-2.7-2.7c-0.9-1.4-1.8-3.3-2.1-5.7
			c-0.2-1.2-0.1-2.5,0.1-3.8c0.2-1.3,0.7-2.7,1.5-4c0.8-1.3,2-2.5,3.2-3.4c1.2-1,2.4-1.9,3.1-3c0.3-0.6,0.5-1.1,0.6-1.8
			c0-0.5-0.1-1.2-0.4-1.8c-0.6-1.3-1.7-2.4-3-3.5c-0.6-0.5-1.3-1.1-2-1.6c-0.7-0.5-1.5-1.2-2.2-1.8c-1.4-1.4-2.8-2.9-3.4-5.2
			c-0.3-1.1-0.2-2.5,0.2-3.6l0.2-0.4l0-0.1l0-0.1c0,0,0.1-0.1,0.1-0.1l0.1-0.1c0.1-0.1,0.1-0.2,0.2-0.3l0.3-0.4
			c0.4-0.5,0.9-0.9,1.3-1.2c1.9-1.3,3.9-1.7,5.4-2.4c1.4-0.6,2.8-1.7,3-2.7c0-0.2,0.1-0.5,0-0.7c0.1,0.1-0.2-0.5-0.2-0.4
			c0,0-0.1-0.2-0.2-0.3c-0.3-0.4-1-0.8-1.8-1.2l-1.2-0.6l-0.7-0.3l-0.3-0.2l-0.1,0l0,0l-0.1-0.1l-0.1-0.1l-0.6-0.4
			c-0.2-0.1-0.4-0.4-0.7-0.6c-0.5-0.4-0.8-0.8-1.1-1.2c-1.2-1.7-1.9-3.7-2-5.7c-0.1-2,0.3-4,1.4-5.7c0.2-0.4,0.6-0.8,0.9-1.2
			c0.4-0.3,0.7-0.7,1.1-1c0.3-0.2,0.7-0.5,1.1-0.8c0.4-0.2,0.7-0.5,1.1-0.7c1.4-0.9,2.7-1.6,3.6-2.5c0.9-0.9,1.3-2,1-3.1
			c-0.2-1-1.2-1.9-2.2-2.4c-1-0.6-2.2-1-3.2-1.2c-1.1-0.3-2.2-0.4-3.1-0.7c-1-0.3-1.9-0.6-2.6-0.9c-1.6-0.7-2.5-1.8-2.9-2.6
			c-0.4-0.8-0.3-1.3-0.4-1.3c0,0,0.1,0.5,0.5,1.2c0.4,0.7,1.4,1.6,3,2.1c0.8,0.3,1.6,0.5,2.6,0.6c1,0.2,2,0.2,3.2,0.4
			c1.2,0.2,2.4,0.5,3.7,1.1c1.2,0.6,2.6,1.5,3.2,3.3c0.1,0.2,0.1,0.5,0.2,0.7l0,0.3l0,0.1l0.2,0.1c0,0,0.2,0.2,0.2,0.1v0
			c0,0.4-0.2,0.9-0.3,1.3c-0.2,0.9-0.8,1.7-1.4,2.3c-1.2,1.3-2.6,2.1-3.9,3c-0.3,0.2-0.7,0.4-1,0.7c-0.3,0.2-0.6,0.4-0.9,0.7
			c-0.3,0.2-0.5,0.5-0.7,0.8c-0.2,0.3-0.4,0.6-0.6,0.9c-0.7,1.2-1,2.8-0.9,4.3c0.1,1.5,0.7,3,1.6,4.2c0.3,0.3,0.5,0.6,0.7,0.8
			c0.1,0.1,0.2,0.2,0.4,0.3l0.6,0.4l0.1,0.1c0,0,0.1,0.1-0.1,0l0,0l0.1,0l0.3,0.1l0.6,0.3l1.3,0.6c0.9,0.4,1.9,0.9,2.8,1.9
			c0.2,0.3,0.4,0.5,0.6,0.9l0.1,0.3l0.1,0.2l0.1,0.2l0,0c0.1,0.2,0,0.1,0,0.2l0,0.1c0.2,0.7,0.2,1.4,0,2.1c-0.3,1.4-1.1,2.4-1.9,3.1
			c-0.9,0.8-1.8,1.3-2.8,1.8c-1.9,0.7-3.7,1.2-4.9,2c-1.2,0.8-1.7,2-1.4,3.3c0.3,1.3,1.3,2.7,2.5,3.9c0.6,0.6,1.2,1.1,1.9,1.6
			c0.7,0.6,1.5,1.1,2.1,1.8c1.4,1.2,2.7,2.6,3.5,4.5c0.4,0.9,0.6,1.9,0.5,3.1c-0.1,0.9-0.5,2-1,2.8c-1.1,1.6-2.5,2.5-3.7,3.4
			c-1.2,0.9-2.2,1.7-2.9,2.8c-0.7,1.1-1.2,2.2-1.5,3.4c-0.3,1.2-0.4,2.3-0.3,3.4c0.1,2.2,0.7,4.1,1.5,5.5c0.8,1.4,1.7,2.3,2.3,2.9
			C472,410.9,472.4,411.2,472.4,411.2z"/>
	</g>
	<g id="XMLID_4524_">
		<path id="XMLID_348_" class="st1" d="M423.9,278.7c-0.5-1.1-0.6-2.3-0.5-3.5c0.1-1.2,0.5-2.4,0.9-3.5c0.4-1.1,0.9-2.2,1.4-3.3
			c0.5-1.1,1-2.2,1.3-3.3c0.6-2.2,0.7-4.7-0.3-6.6c-0.5-0.9-1.4-1.6-2.4-1.9c-0.9-0.2-2.1-0.2-3.3-0.1c-1.2,0.1-2.4,0.4-3.7,0.4
			c-0.6,0-1.3,0-2-0.3c-0.3-0.1-0.7-0.2-1-0.4l-0.1,0l-0.1-0.1L414,256l-0.2-0.1c-0.1-0.1-0.2-0.1-0.4-0.3c-1.2-1-1.8-2.3-2-3.7
			c-0.2-1.3,0-2.6,0.2-3.9c0.3-1.2,0.7-2.4,1.2-3.6c0.5-1.2,1.1-2.1,1.5-3.2c0.4-1.1,0.8-2.2,1-3.2c0.2-1.1,0.3-2.2,0-3.1
			c-0.1-0.5-0.4-0.9-0.6-1.3c-0.1-0.1-0.2-0.2-0.2-0.3l-0.2-0.2c-0.2-0.2-0.5-0.4-0.7-0.5c-0.4-0.2-0.8-0.4-1.3-0.6
			c-0.5-0.1-1-0.2-1.6-0.3c-1.1-0.1-2.3-0.2-3.6-0.3c-1.2-0.1-2.6-0.3-3.8-1c-0.6-0.3-1.2-0.8-1.7-1.3l-0.1-0.1l0-0.1l-0.1-0.1l0,0
			l-0.1-0.2l-0.2-0.4c-0.2-0.2-0.3-0.6-0.4-1c-0.5-1.5-0.3-2.8-0.1-4.1c0.5-2.5,1.4-4.7,1.6-6.9c0.3-2.2-0.8-3.9-2.9-4.6
			c-1-0.4-2.2-0.7-3.4-1.2l-0.8-0.4l-0.9-0.5c-0.3-0.2-0.5-0.4-0.8-0.6c-0.3-0.2-0.5-0.4-0.7-0.6c-0.9-0.9-1.7-1.9-2.3-3
			c-0.6-1.1-1.1-2.3-1.3-3.5c-0.6-2.5-0.3-5.1,0.7-7.4l0.3,0.8l-1.3-0.6l-1.2-0.7l-1.1-0.9l-0.9-1l-0.8-1.1l-0.7-1.2l-0.6-1.2
			l-0.4-1.3l-0.3-1.3l-0.2-1.3l0-1.3l0.1-1.3l0.3-1.3l0.4-1.3l0.6-1.2l0.8-1.1l-0.7,1.1l-0.5,1.2l-0.3,1.3l-0.2,1.3l-0.1,1.3
			l0.1,1.3l0.2,1.3l0.4,1.2l0.5,1.2l0.6,1.1l0.7,1.1l0.8,1l0.9,0.9l1,0.8l1.1,0.6l1.2,0.5l0.6,0.2l-0.2,0.6c-0.9,2.1-1,4.4-0.4,6.6
			c0.3,1.1,0.7,2.1,1.3,3.1c0.6,1,1.3,1.9,2.1,2.6c0.2,0.2,0.4,0.4,0.6,0.5c0.2,0.2,0.4,0.4,0.7,0.5l0.7,0.4l0.8,0.4
			c1,0.4,2.2,0.7,3.4,1.1c0.6,0.2,1.2,0.5,1.8,0.9c0.1,0.1,0.3,0.2,0.4,0.3c0.1,0.1,0.3,0.3,0.4,0.4l0.2,0.2l0.1,0.1
			c0.1,0.1,0.1,0.1,0.1,0.1l0.3,0.4c0.8,1.2,1,2.7,0.9,4c-0.2,2.6-1.2,4.9-1.6,7.1c-0.2,1.1-0.2,2.2,0,3c0.1,0.2,0.1,0.4,0.3,0.6
			l0.2,0.4l0.1,0.2l0,0c0,0,0.1,0.1,0-0.1l0,0l0.1,0.1c0.3,0.3,0.7,0.7,1.1,0.9c0.9,0.5,2,0.6,3.1,0.8c1.1,0.1,2.4,0.2,3.6,0.3
			c1.3,0.2,2.5,0.4,3.9,1.3c0.3,0.2,0.5,0.4,0.7,0.6l0,0c0,0,0.1,0.1,0.1,0.1l0,0l0.1,0.1l0.2,0.2c0.1,0.1,0.2,0.3,0.4,0.4
			c0.4,0.6,0.8,1.2,0.9,1.9c0.4,1.4,0.3,2.8,0,4c-0.3,1.3-0.7,2.5-1.2,3.6c-0.5,1.1-1.1,2.3-1.6,3.3c-0.5,1-0.9,2.1-1.1,3.2
			c-0.3,1.1-0.4,2.2-0.3,3.3c0.1,1,0.6,2,1.2,2.6c1.6,1.4,4,1,6.4,0.7c1.2-0.1,2.5-0.2,3.9,0.2c1.2,0.4,2.4,1.4,3,2.6
			c1.2,2.4,0.8,5.1,0.1,7.4c-0.4,1.2-0.9,2.3-1.5,3.3c-0.5,1.1-1.1,2.1-1.6,3.2c-0.5,1.1-0.9,2.2-1,3.4
			C423.4,276.3,423.5,277.5,423.9,278.7z"/>
	</g>
	<g id="XMLID_2235_">
		<path id="XMLID_319_" class="st1" d="M117.3,281.6c0,0,0.6,1.7,1.6,4.7c1,3,2.4,7.3,4,12.5c0.8,2.6,1.7,5.4,2.6,8.4
			c0.5,1.5,0.9,3,1.3,4.7c0.3,1.7,0.5,3.4,0.3,5.3c-0.1,0.9-0.4,1.8-0.8,2.7c-0.2,0.4-0.4,0.9-0.6,1.2c-0.2,0.4-0.5,0.8-0.8,1.2
			c-1,1.5-2.2,2.8-3,4.2c-0.4,0.7-0.7,1.4-0.8,2.2l0,0.3c0,0,0,0.1,0,0.1l0,0.2c0,0.2,0,0.5,0,0.6c0,0.3,0.1,0.7,0.2,1.1
			c0.4,1.5,1.3,3,2.3,4.4c1,1.4,2.2,2.8,3.4,4.2c1.1,1.4,2.3,2.9,3.1,4.7c0.4,0.9,0.7,1.9,0.7,2.9c0,0.5,0,1-0.1,1.5l-0.1,0.4l0,0
			l0,0.1l0,0.1l0,0.2c-0.1,0.2-0.1,0.4-0.2,0.6c-0.8,2-2,3.2-3.1,4.6c-1.1,1.3-2.1,2.6-2.5,3.9c-0.1,0.3-0.1,0.7-0.2,1
			c0,0.3,0,0.6,0.2,1c0,0.1,0.1,0.3,0.1,0.4c0.1,0.2,0.2,0.4,0.3,0.5c0.2,0.2,0.4,0.5,0.6,0.8c1,1,2.3,1.8,3.5,2.6
			c1.2,0.8,2.5,1.6,3.5,2.7c2,2.2,2.7,4.9,2.6,7.2c-0.1,2.3-0.8,4.2-1.5,5.6c-0.7,1.5-1.3,2.5-1.8,3.2c-0.4,0.7-0.7,1.1-0.7,1.1
			s0.2-0.4,0.6-1.2c0.4-0.8,0.9-1.9,1.5-3.3c0.6-1.5,1.2-3.3,1.1-5.5c-0.1-2.1-0.9-4.6-2.6-6.3c-0.9-0.9-2.1-1.6-3.4-2.3
			c-1.3-0.7-2.6-1.5-3.9-2.7c-0.3-0.3-0.6-0.6-0.9-1.1c-0.1-0.2-0.2-0.4-0.3-0.5c-0.1-0.3-0.2-0.5-0.3-0.7c-0.2-0.4-0.2-0.9-0.3-1.4
			c0-0.5,0-1,0.2-1.4c0.2-0.9,0.7-1.7,1.2-2.5c0.5-0.7,1-1.4,1.6-2.1c0.5-0.7,1-1.3,1.5-2c0.5-0.7,0.9-1.4,1.1-2
			c0.1-0.2,0.1-0.4,0.2-0.6l0-0.2l0-0.1c0,0,0-0.1,0,0l0,0l0-0.3c0.1-0.4,0.1-0.7,0-1.1c-0.1-0.7-0.3-1.5-0.6-2.2
			c-1.4-3-4.1-5.6-6.3-8.5c-1.1-1.5-2.1-3.2-2.6-5.2c-0.1-0.5-0.2-1-0.2-1.6c0-0.3,0-0.5,0-0.7l0-0.2c0-0.2,0-0.2,0-0.2l0.1-0.4
			c0.2-1,0.6-2,1.1-2.8c1-1.7,2.2-3,3.2-4.4c1-1.4,1.7-2.7,1.9-4.3c0.5-3.1-0.5-6.3-1.3-9.3c-0.8-3-1.6-5.9-2.3-8.5
			c-1.4-5.3-2.5-9.7-3.3-12.7C117.7,283.3,117.3,281.6,117.3,281.6z"/>
	</g>
</g>
</svg>
