<?xml version="1.0" encoding="utf-8"?>
<!-- Generator: Adobe Illustrator 19.0.0, SVG Export Plug-In . SVG Version: 6.00 Build 0)  -->
<svg version="1.1" id="Layer_1" xmlns="http://www.w3.org/2000/svg" xmlns:xlink="http://www.w3.org/1999/xlink" x="0px" y="0px"
	 viewBox="-240 -59 478.5 678" enable-background="new -240 -59 478.5 678" xml:space="preserve">
<g id="XMLID_427_">
	<path id="XMLID_1320_" fill="#EF7B05" d="M44.9,323.1c-0.6,0.3-0.7,0.9-0.5,1.4c-0.1,0.2-0.2,0.4-0.2,0.6c0.2,1.1,0.5,2.2,0.7,3.2
		c0,0,0,0-0.1,0c-0.6,0.3-0.7,0.9-0.5,1.4c-0.1,0.2-0.2,0.4-0.2,0.6c1.9,9.7,4.1,17.9,7.8,27c-2.4,8.9-4.6,17.7-6.3,26.2
		c-2.5,12.1-3.6,23.6-3.5,34.6c-0.4,16.9,2.1,32.6,7.6,46.7c3.5,9,8.3,17.8,13,26.3c8.4,15.2,17,30.9,17.8,47.6
		c0,0.1,0.1,0.2,0.2,0.4s0.1,0.3,0.2,0.4c0.1,0.1,0.3,0.2,0.5,0.3c0.1,0.1,0.2-1.9,0.4-1.9c0.1,0,0.2-2.1,0.3-2.1l0,0
		c0.1,0,0.2,2,0.2,2c0.3,0,0.5,0.9,0.7,0.8l0.1,0.6c0.1,0,0.1,0.2,0.1,0.2c-0.5,1.2-1,2.5-1.6,3.6c-0.3,0.6-0.1,1.3,0.5,1.7
		c0.3,0.2,0.6,0.3,0.9,0.3c0.4,0,0.7-0.1,1-0.3c8.7-6.2,15.8-18.1,18.9-27.7c1.3,2.4,2.6,4.8,3.9,7.2c6.5,12.6,10,23.7,10.5,33.7
		c-0.2,4.5-1,8.7-2.5,12.7c-0.1,0.2,0,0.3,0,0.5s0,0.3,0,0.5c0.1,0.2,0.3,0.2,0.5,0.4c0.1,0.1,0.2,0.2,0.4,0.3c0,0,0,0,0.1,0l0,0
		c0,0,0,0,0.1,0c-0.3,1.2-0.6,2.5-1.1,3.6c-0.1,0.2,0,0.3,0,0.5s0,0.3,0,0.5c0.1,0.2,0.3,0.2,0.5,0.4c0.1,0.1,0.2,0.2,0.4,0.3
		c0,0,0,0,0.1,0l0,0c0.2,0,0.3,0.1,0.5,0.1c0.3,0,0.6-0.1,0.9-0.2c0.1,0,0.1-0.1,0.2-0.2c0.1-0.1,0-0.2,0-0.4c0,0-0.3,0-0.3-0.1
		v-0.9h0.7c4.6-9,5.9-18.9,5.6-27.2c0.7-11.9-2.5-22-5.6-32.1c-2.1-6.7-4-13-4.9-19.8l0.1,0.1c0.3,0,0.6-0.1,0.8-0.2
		c0.1,0,0.1-0.1,0.2-0.2c0.1-0.1,0.3-0.2,0.3-0.3c9-13.2,16.7-27,23.2-41c1.6,20.2,13.8,29.7,25.8,36.4c0.3,0.2,0.6,0.2,0.9,0.2
		c0.4,0,0.8-0.1,1.1-0.4c0.5-0.4,0.6-1.1,0.2-1.7c-0.8-1.1-1.5-2.3-2.2-3.5c0.3,0.1,0.6,0.2,0.8,0.2c0.4,0,0.8-0.1,1.1-0.4
		c0.5-0.4,0.6-1.1,0.2-1.7c-8.3-11.1-12.7-26.5-13.5-45.3c0-10.1,0.9-21,2.9-32.9c4-15.9,6.3-31.8,7.2-47.7c4.8,8.8,15.7,13,25.2,13
		c0.7,0,1.3-0.4,1.5-0.9c0.2-0.6,0-1.1-0.6-1.5c-1.3-0.8-2.6-1.8-3.8-3.1c1,0.1,1.9,0.2,2.8,0.2c0.7,0,1.3-0.4,1.5-0.9
		c0.2-0.6,0-1.1-0.6-1.5c-22.3-13.5-26-90.9-27.6-123.9v-1c0-0.2-0.1-0.3-0.2-0.4c-0.3-6.2-0.8-12.6-1.6-19.3c0-0.2,0.1-0.3,0.1-0.4
		c-0.1-0.4-0.2-0.8-0.3-1.2c1.7,0.3,3.4,0.5,5.1,0.5c8.7,0,16.8-3.7,23.4-10.8c0.4-0.4,0.4-0.9,0.2-1.4c-0.3-0.5-0.8-0.8-1.4-0.8
		s-1.2-0.2-1.9-0.3c1-0.9,2.1-1.9,3-2.9c0.4-0.4,0.4-0.9,0.2-1.4c-0.3-0.5-0.8-0.8-1.4-0.8c-9.2-0.4-15.7-8.2-19.6-14.8
		c-7.4-12.6-12-34.6-13.2-49.9c0.2-2,0.4-3.9,0.7-5.9l0.6-3.8c1-6.7,2.1-13.6,1.7-20.5c0.1-3.9,0-7.8-0.8-11.6
		c-0.9-4.1-2.4-8-3.9-11.9c-0.9-2.3-1.8-4.5-2.5-6.8c-2.8-8.4-3.7-17.4-4.6-26c-1-9.4-1.9-19-5.3-28.2c-7.4-20.6-26.5-37.9-51-46.5
		c-24.5-8.5-53.4-7.9-77.3,1.7c-0.4,0.2-0.7,0.4-0.8,0.8c-15.8,8.4-24.1,34.5-28.4,57.8c-4.3-1.2-8.7-2.2-13.1-2.8
		c-5.2-0.8-10.3-0.9-15.6-0.9c-5.4,0-13,0.6-18.1,1.4C-125.6,40.7-173.4,103.4-174,175.7c0,0.8,0,1.5,0.1,2.3l2.1,21.8l7.3,22.7
		c0,0,0.2-30.3,1.1-35.8c1.5-9.7,4.1-19.2,8-28.3c0.2-0.7,1.1-1.7,1.1-2.8h0.1c21-6.7,47.2-15.5,47.2-15.5C-47.9,121.4-40,99-40,99
		s10.9,19.5,47.5,34c2.5,1.2,5.1,2.2,8.1,3c2.7,0.9,24.9,8.2,45.5,15.7c1.1,2.1,2.2,4.4,3.2,6.7c3.4,7.8,5.9,15.9,7.4,24.2
		c0.5,2.4,0.7,4.9,0.8,7.3 M84.5,532.2c0-1.2,0-2.4,0-3.6c0.8-11.4-3.5-22.6-7.6-33.5c-3.5-9.1-7-18.5-7.6-27.9
		c0.6-13,5.4-26,10.2-38.6c0.4-1.1,0.8-2.2,1.3-3.4c-0.3,5.5-0.5,11.1-0.4,16.6c-0.2,11.9,0.6,23.5,2.7,32.1
		c1.1,4.4,2.7,8.7,4.4,12.9c-0.1,0.3-0.2,0.6-0.2,0.9c1.8,6,2.7,12.2,3,18.4C89.8,514.9,88,523.7,84.5,532.2z"/>
	<g id="XMLID_1317_">
		<path id="XMLID_494_" fill="#FFFFFF" d="M-44.6,7.3c0,0,0.4-0.1,1.3-0.3c0.8-0.2,2.1-0.5,3.7-0.7C-38,6-36,5.9-33.8,5.7
			c1.1,0,2.3-0.1,3.6-0.1s2.6,0,4,0.1c2.8,0.1,5.8,0.3,9,0.7c3.2,0.3,6.5,0.8,9.9,1.4s6.9,1.4,10.5,2.3C5,10.6,6.7,11,8.5,11.6
			l2.7,0.8l2.6,1c0.9,0.3,1.7,0.7,2.6,1c0.9,0.4,1.7,0.7,2.6,1.1c0.8,0.4,1.7,0.8,2.5,1.3s1.6,0.9,2.4,1.4c3.2,1.9,6.1,4.1,8.8,6.3
			c2.7,2.2,5.1,4.7,7.2,7.1c2.2,2.4,3.9,4.8,5.5,7.1c0.8,1.2,1.5,2.3,2.1,3.4c0.3,0.6,0.6,1.1,0.9,1.6s0.5,1.1,0.8,1.6
			c0.5,1,1,2,1.4,2.8c0.4,0.9,0.8,1.7,1.1,2.5c0.6,1.5,1,2.7,1.3,3.5s0.4,1.3,0.4,1.3s-0.2-0.4-0.6-1.2c-0.4-0.8-0.9-1.9-1.7-3.3
			c-0.4-0.7-0.8-1.5-1.3-2.3s-1-1.7-1.6-2.7c-0.3-0.5-0.6-1-0.9-1.5s-0.7-1-1-1.5c-0.7-1-1.5-2.1-2.3-3.2c-1.7-2.1-3.6-4.4-5.8-6.6
			c-2.2-2.2-4.6-4.5-7.2-6.6c-2.7-2.1-5.6-4.1-8.6-5.9c-0.8-0.4-1.6-0.9-2.3-1.3c-0.8-0.4-1.6-0.8-2.4-1.2c-0.8-0.4-1.6-0.7-2.5-1.1
			c-0.8-0.4-1.7-0.7-2.5-1l-2.5-0.9l-2.6-0.8c-1.7-0.6-3.5-1-5.2-1.6c-1.7-0.5-3.5-0.9-5.2-1.4c-1.7-0.4-3.4-0.8-5.1-1.2
			c-3.3-0.7-6.6-1.3-9.7-1.8c-3.1-0.5-6-0.9-8.8-1.2c-2.7-0.3-5.2-0.4-7.5-0.5c-2.2,0-4.2-0.1-5.8,0c-1.6,0-2.9,0.2-3.7,0.3
			C-44.2,7.2-44.6,7.3-44.6,7.3z"/>
	</g>
	<g id="XMLID_1310_">
		<path id="XMLID_492_" fill="#FFFFFF" d="M75,440c0,0,0.4-1.3,1.3-3.5c0.8-2.2,2-5.4,3.5-9.2c1.5-3.8,3.3-8.2,5.4-12.9
			c1-2.3,2.1-4.8,3.2-7.2c1.1-2.4,2.3-4.9,3.4-7.4c1.2-2.5,2.4-4.9,3.5-7.3c1.2-2.4,2.4-4.8,3.5-7.1c2.3-4.6,4.6-8.8,6.5-12.4
			c2-3.6,3.7-6.5,4.9-8.6c1.2-2.1,1.9-3.2,1.9-3.2s-0.6,1.2-1.6,3.4c-1,2.2-2.5,5.2-4.2,9c-3.5,7.4-8.2,17.2-12.8,27.1
			c-4.6,9.9-9.3,19.7-12.7,27.1c-1.8,3.7-3.2,6.8-4.2,8.9C75.6,438.8,75,440,75,440z"/>
	</g>
	<g id="XMLID_1305_">
		<path id="XMLID_490_" fill="#FFFFFF" d="M168.9,373.8c0,0-0.7-1.2-1.8-3.2c-0.6-1-1.2-2.3-2-3.7c-0.8-1.4-1.6-3.1-2.4-4.9
			c-0.9-1.8-1.8-3.8-2.7-5.9c-0.9-2.1-1.8-4.4-2.8-6.7c-0.9-2.4-1.8-4.8-2.7-7.3c-0.9-2.5-1.7-5-2.5-7.6c-0.7-2.6-1.5-5.1-2.2-7.7
			c-0.7-2.5-1.3-5.1-1.9-7.5c-0.5-2.5-1.1-4.8-1.5-7.1c-0.4-2.3-0.8-4.4-1.1-6.4c-0.1-1-0.3-1.9-0.4-2.8s-0.2-1.8-0.3-2.6
			c-0.2-1.6-0.4-3-0.5-4.2c-0.2-2.3-0.3-3.7-0.3-3.7s0.3,1.3,0.7,3.6c0.2,1.1,0.5,2.5,0.8,4.1s0.7,3.4,1.1,5.3
			c0.4,2,0.9,4.1,1.4,6.3c0.5,2.2,1.1,4.6,1.7,7s1.3,4.9,2,7.4s1.5,5.1,2.2,7.6c0.8,2.5,1.6,5.1,2.4,7.6s1.7,4.9,2.5,7.3
			c0.9,2.3,1.7,4.6,2.5,6.7s1.6,4.2,2.3,6c0.7,1.9,1.4,3.6,2,5.1s1.2,2.8,1.6,3.9C168.4,372.6,168.9,373.8,168.9,373.8z"/>
	</g>
	<g id="XMLID_1296_">
		<path id="XMLID_488_" fill="#FFFFFF" d="M115.9,504.7c0,0-1-1.9-2.3-4.9c-0.6-1.5-1.4-3.2-2.1-5.1c-0.4-0.9-0.7-1.9-1.1-2.9
			s-0.7-2-1.1-3c-0.3-1-0.7-2-1-3s-0.6-2-0.9-3c-0.6-1.9-1.1-3.7-1.5-5.3c-0.8-3.1-1.2-5.3-1.2-5.3s1,1.9,2.3,4.9
			c0.6,1.5,1.4,3.2,2.1,5.1c0.4,0.9,0.7,1.9,1.1,2.9s0.7,2,1.1,3c0.3,1,0.7,2,1,3s0.6,2,0.9,3c0.6,1.9,1.1,3.7,1.5,5.3
			C115.5,502.6,115.9,504.7,115.9,504.7z"/>
	</g>
	<g id="XMLID_1293_">
		<path id="XMLID_486_" fill="#FFFFFF" d="M130.8,473.3c0,0,0.3-0.6,0.8-1.7c0.5-1.1,1.2-2.7,2-4.6c0.4-0.9,0.8-2,1.3-3.1
			s0.9-2.3,1.3-3.4c0.4-1.2,0.9-2.5,1.3-3.7c0.5-1.3,0.8-2.6,1.2-3.9c0.4-1.3,0.8-2.6,1.1-3.9c0.3-1.3,0.7-2.6,1-3.8
			c0.3-1.3,0.6-2.5,0.8-3.6c0.2-1.2,0.5-2.2,0.7-3.3c0.4-2,0.7-3.7,0.9-4.9c0.2-1.2,0.3-1.9,0.3-1.9s0,0.7,0.1,1.9
			c0,0.6,0,1.3,0,2.2c0,0.8,0,1.8-0.1,2.8s-0.2,2.2-0.3,3.4c-0.1,1.2-0.3,2.4-0.6,3.7c-0.3,1.3-0.5,2.6-0.8,3.9s-0.7,2.7-1.1,4
			s-0.9,2.7-1.3,3.9c-0.4,1.3-1,2.5-1.5,3.7s-1,2.3-1.6,3.4c-0.5,1.1-1.1,2.1-1.6,3s-1,1.7-1.5,2.4c-0.4,0.7-0.9,1.3-1.2,1.8
			C131.2,472.8,130.8,473.3,130.8,473.3z"/>
	</g>
	<g id="XMLID_1166_">
		<path id="XMLID_484_" fill="#FFFFFF" d="M39.8,329.5c0,0,1-3,2.4-7.6c0.3-1.1,0.7-2.4,1.1-3.7c0.4-1.3,0.8-2.7,1.2-4.1
			c0.4-1.4,0.8-2.9,1.2-4.4c0.4-1.5,0.8-3,1.1-4.6c0.4-1.5,0.7-3.1,1-4.6s0.6-3,0.9-4.5s0.6-2.9,0.8-4.2c0.2-1.3,0.5-2.6,0.7-3.8
			c0.8-4.7,1.3-7.9,1.3-7.9s0,0.8,0,2.2c0,0.7,0,1.6,0,2.5c0,1-0.1,2.1-0.2,3.3c-0.1,2.4-0.4,5.2-0.9,8.2c-0.2,1.5-0.5,3-0.8,4.6
			s-0.6,3.1-1,4.7s-0.8,3.1-1.2,4.6c-0.4,1.5-0.9,3-1.4,4.4c-1,2.8-1.9,5.5-2.9,7.7c-0.5,1.1-0.9,2.1-1.3,3s-0.8,1.7-1.1,2.3
			C40.2,328.8,39.8,329.5,39.8,329.5z"/>
	</g>
	<g id="XMLID_454_">
		<path id="XMLID_482_" fill="#FFFFFF" d="M174,222.5c0,0-0.3,0-1-0.1c-0.6-0.1-1.6-0.1-2.8-0.4c-0.6-0.1-1.3-0.2-2-0.4
			c-0.7-0.2-1.5-0.3-2.3-0.5s-1.7-0.5-2.6-0.8s-1.8-0.7-2.8-1c-1.9-0.8-4-1.7-6.1-3c-2.1-1.2-4.2-2.6-6.3-4.3c-2-1.7-4-3.5-5.9-5.6
			c-1.8-2.1-3.5-4.3-5-6.8c-1.4-2.3-2.7-5-3.7-7.5c-1-2.6-1.7-5.2-2.3-7.8c-0.5-2.6-0.8-5.1-0.9-7.5s0-4.7,0.2-6.8
			c0.1-1,0.2-2,0.4-3c0.2-0.9,0.4-1.8,0.5-2.7c0.2-0.8,0.4-1.6,0.6-2.3s0.4-1.3,0.6-1.9c0.3-1.2,0.7-2,1-2.6
			c0.2-0.6,0.4-0.9,0.4-0.9s-0.1,0.3-0.3,1c-0.2,0.6-0.4,1.5-0.7,2.7c-0.1,0.6-0.3,1.2-0.4,1.9s-0.2,1.5-0.4,2.3
			c-0.1,0.8-0.2,1.7-0.3,2.6c-0.1,0.9-0.1,1.9-0.2,2.9c0,2,0,4.3,0.2,6.6s0.6,4.8,1.1,7.2c0.6,2.5,1.4,5,2.3,7.5
			c1,2.5,2.2,4.8,3.6,7.2c1.4,2.2,3,4.5,4.7,6.5c1.8,2,3.6,3.9,5.6,5.5s3.9,3.1,5.9,4.3c2,1.3,3.9,2.3,5.8,3.2
			c0.9,0.4,1.8,0.8,2.7,1.2c0.9,0.3,1.7,0.6,2.5,0.9s1.5,0.5,2.2,0.7s1.3,0.4,1.9,0.5c1.2,0.3,2.1,0.5,2.7,0.6
			C173.7,222.5,174,222.5,174,222.5z"/>
	</g>
</g>
</svg>
