<?xml version="1.0" encoding="utf-8"?>
<!-- Generator: Adobe Illustrator 19.0.0, SVG Export Plug-In . SVG Version: 6.00 Build 0)  -->
<svg version="1.1" id="Layer_1" xmlns="http://www.w3.org/2000/svg" xmlns:xlink="http://www.w3.org/1999/xlink" x="0px" y="0px"
	 viewBox="0 0 460.27399 599.31506" style="enable-background:new 0 0 460.27399 599.31506;" xml:space="preserve">
<style type="text/css">
	.st0{fill:#EF7B05;}
</style>
<path id="XMLID_799_" class="st0" d="M352.26523,262.68118c-2.68314,20.88745-13.19287,62.1355-34.8833,72.84863
	c-0.74707,0.36499-0.93652,1.1001-0.43652,1.64233c0.0498,0.05469,0.12988,0.07861,0.18945,0.12451
	c-7.17676,11.73389-14.39746,23.8667-17.4209,36.87061c-2.71973,11.65063-1.94824,23.64355-1.20117,35.24316
	c0.65137,10.13672,1.32813,20.61792-0.34766,30.76367c-0.99414,5.98853-2.8291,12.03003-4.60742,17.87427
	c-2.86035,9.39966-5.82129,19.12085-5.37793,28.96851c0.25977,5.71289,1.66406,11.38721,3.01855,16.87598
	c1.01172,4.08179,2.05566,8.30197,2.60645,12.47116c0.5127,3.8457,0.62012,7.80273,0.72168,11.62524
	c0.10156,3.79272,0.20898,7.7146,0.70215,11.57422c1.20898,9.448,4.84766,16.87549,10.80762,22.07153
	c5.60645,4.8811,13.44043,7.60352,20.92578,7.60352c2.87891,0,5.70703-0.40186,8.33984-1.23853
	c1.37012-0.43774,2.63965-1.02246,3.85449-1.67041c-1.49316,3.86133-1.34375,8.09302,0.66992,11.83936
	c0.60156,1.12354,1.11328,2.29224,1.61426,3.43433c1.01074,2.31836,2.06738,4.65771,3.8252,6.47705
	c-6.61621,0.20679-13.13574-1.57178-17.27246-5.14136c-0.55664-0.48975-1.55078-0.5542-2.22754-0.17114
	c-0.68945,0.38843-0.82813,1.10449-0.32227,1.62305c5.50488,5.63916,14.27539,7.8855,22.83105,7.8855
	c3.7959,0,7.55469-0.44409,10.96484-1.22974c4.72852-1.09204,8.86523-2.81763,12.32031-5.06396
	c-0.06152,0.48779,0.17676,0.97485,0.81641,1.19067c0.22168,0.07397,0.44922,0.10669,0.67676,0.10669
	c0.55664,0,1.09473-0.21313,1.39258-0.57813c9.2002,1.74658,19.98926-1.51172,26.71582-8.18188
	c5.17285-5.12598,8.13379-11.9021,9.36816-21.15234c3.59473,1.82983,7.6084,2.97046,11.70898,3.19434
	c0.52539,0.02856,1.04395,0.04688,1.56934,0.04688c8.06152-0.00464,16.21094-3.34644,21.58984-8.93018
	c4.65723-4.84888,7.33398-11.37598,7.73926-18.87329c0.03125-0.55908-0.48145-1.05664-1.22754-1.19531
	c-0.70215-0.1333-1.50586,0.12549-1.84863,0.6311c-2.20801,3.30518-6.42871,5.59326-11.88867,6.448
	c-4.80762,0.74829-9.91016,0.26172-14.22461-1.23828c3.50195-2.2417,5.85254-5.77441,6.42773-10.12524
	c0.39941-3.04346,0-6.09229-0.3916-9.03882c-0.14551-1.1438-0.29785-2.28564-0.40527-3.42773
	c-0.85352-9.39963,1.4873-18.92355,3.75293-28.13351c1.33496-5.42896,2.71387-11.04492,3.44824-16.62915
	c1.46191-11.16064-4.75781-22.35522-10.77637-33.18311c-3.94824-7.09985-8.0293-14.44019-9.74414-21.53296
	c-1.82227-7.52075-0.13867-15.26343,1.48633-22.75146c1.66504-7.67969,3.39258-15.62109,1.47461-23.53223
	c-1.63867-6.78516-6.30176-14.87427-11.23145-23.44189c-5.65039-9.79932-11.48535-19.93604-12.33203-27.78491
	c-1.50684-14.00562,0.34766-25.01416,2.14355-35.65649c2.25293-13.33447,4.29688-26.04224-0.74512-42.6438
	c-0.4668-2.33008-1.0752-4.64429-2.01953-6.91675c-0.08105-0.19214-0.30566-0.29517-0.48926-0.42725
	c2.07129-7.5918,3.26563-15.37085,2.55176-23.1604c-0.2041-2.25977-0.62988-4.62354-1.96484-6.78418
	c1.72266-3.33301,3.44434-6.42822,5.16113-9.50732c1.80371-3.2356,3.60645-6.46875,5.42285-9.99072
	c0.36719-0.71704,0.74902-1.45703,1.16016-2.19775c0.0127-0.02124,0.02441-0.04248,0.03516-0.06445
	c1.31641-2.36084,2.95703-4.7251,5.5498-6.39355c1.41113-0.90601,3.08203-1.59888,4.84668-2.33203
	c2.28516-0.94727,4.64453-1.92944,6.51758-3.43164c4.80273-3.8457,4.60645-9.55225,4.04395-14.59741l-2.25879-20.43066
	c-0.00098-0.00757-0.01172-0.01099-0.01367-0.01807c0-0.00562,0.00781-0.00952,0.00684-0.01465
	c-0.67676-4.55981-0.0127-9.34155,0.62695-13.96631c0.72168-5.20337,1.41992-10.52856,0.32129-15.74585
	c0.00195-0.3728,0.04199-0.7417,0.00781-1.11841c-0.02637-0.2937-0.22461-0.53394-0.47949-0.72729
	c-0.46973-1.5625-1.08301-3.11499-1.97559-4.64624c-3.03125-5.19751-8.53613-9.24219-13.8584-13.15283l-2.62598-1.94824
	c-4.83398-3.62842-9.49121-6.35107-13.99609-8.98608c-8.51172-4.97314-15.8584-9.26758-20.94531-17.91577
	c-1.56934-2.66724-3.18848-6.72314-4.9043-11.01953c-1.99902-5.00879-4.06836-10.18555-6.19434-13.38843
	c-2.66406-4.00586-8.71973-7.70825-15.07227-9.20801c-5.36621-1.26855-10.66211-0.97754-15.38965,0.88257
	c-1.29395,0.58081-3.06836,1.04077-4.55664,1.29785c-0.03613,0.00464-0.06543-0.01685-0.10059-0.0105
	c-0.48047,0.09082-0.95996,0.15869-1.43945,0.2124c-0.03809,0.00269-0.08691,0.01001-0.12305,0.01221
	c-0.02441,0.00122-0.04688,0.00684-0.07031,0.00903c-2.04395,0.20874-4.08105,0.09448-6.13184-0.26978
	c-0.01758-0.00342-0.0332-0.00781-0.05176-0.0105c-5.63477-1.01245-11.38086-3.89233-17.70898-7.06445
	c-7.11328-3.56836-15.17383-7.6106-24.48828-9.49243c-10.21973-2.06348-21.81834-4.40259-33.29002-3.33936
	c-9.39063,0.86938-18.12305,3.94556-26.57715,6.91992c-3.75293,1.32129-7.43262,2.61279-11.11133,3.71094
	c-0.18555,0.02734-0.34668,0.08057-0.49512,0.1499c-6.44531,1.89233-12.89746,3.15649-19.74707,2.87134
	c-3.17676-0.13403-6.41602-0.62158-9.55469-1.09546c-4.24609-0.64038-8.65039-1.29688-13.13672-1.14868
	c-9.39648,0.32373-16.26758,5.44751-22.91211,10.40283c-4.55566,3.39941-9.26367,6.91187-14.67969,8.77539
	c-21.7998,7.49512-37.51758,15.2998-49.46387,24.56226C60.29307,70.62454,51.80186,84.7244,51.56749,98.55643
	c-0.03125,1.93506,0.09473,3.89502,0.22168,5.85229c0.32227,5.07544,0.63281,9.87109-1.70898,14.30859
	c-1.7334,3.29346-4.76465,6.0481-7.96582,8.96704c-2.25293,2.04785-4.58789,4.16968-6.43555,6.50122
	c-3.26465,4.10229-4.22754,9.90112-2.34766,14.10083c1.16504,2.58154,3.3291,4.44165,6.27734,5.37793l2.06934,0.65845
	c-2.71484,3.43677-5.37891,7.00757-6.7832,10.96216c-1.78516,5.02441-1.02539,9.96777,2.09375,13.56421
	c1.5127,1.74683,3.53125,3.17554,5.48633,4.55762c2.36621,1.67017,4.60059,3.25171,5.82227,5.26489
	c1.31543,2.1748,1.21484,4.64941,1.10059,7.26831c-0.04492,1.04688-0.08887,2.09155-0.04492,3.12256
	c0.43066,9.91138,12.9668,24.67578,18.44141,29.04883c0.32031,1.37183,0.71582,2.7312,1.10449,4.09155
	c-0.19141,0.13281-0.4209,0.23926-0.50586,0.43579c-0.98535,2.27246-1.62305,4.58618-2.11035,6.91528
	c-5.27832,16.61572-3.13868,29.32861-0.78125,42.6709c1.87305,10.64087,3.81543,21.64185,2.24023,35.63989
	c-0.88672,7.84204-6.9795,17.97461-12.88379,27.77393c-5.15723,8.56763-10.02246,16.66089-11.74414,23.44897
	c-2.00488,7.92017-0.20215,15.86816,1.54395,23.55518c1.69629,7.48071,3.45508,15.2168,1.55078,22.72803
	c-1.79102,7.09033-6.05566,14.42871-10.18164,21.52637c-6.28906,10.83203-12.80078,22.03247-11.26953,33.20435
	c0.77246,5.58862,2.21484,11.20679,3.60742,16.63794c2.36621,9.20801,4.81445,18.7251,3.92285,28.11545
	c-0.11426,1.13696-0.26563,2.27612-0.42383,3.41357c-0.40527,2.95361-0.8291,6.00879-0.41211,9.06128
	c0.60254,4.35083,3.05273,7.88037,6.69531,10.12061c-4.61621,1.53564-10.08301,2.00415-15.17969,1.19775
	c-5.61914-0.88281-9.95996-3.16626-12.23828-6.42505c-0.3418-0.49512-1.10059-0.76245-1.85352-0.60767
	c-0.73438,0.14111-1.24023,0.63745-1.20898,1.19458c0.43066,7.51172,3.22754,14.04272,8.09961,18.88721
	c5.59375,5.57422,14.08496,8.91162,22.47559,8.91162c0.54492,0,1.08887-0.01416,1.63281-0.04688
	c4.31543-0.22583,8.54102-1.38062,12.31348-3.2395c1.28516,9.28247,4.38574,16.07568,9.80176,21.21655
	c7.03711,6.67017,18.30567,9.92847,27.89844,8.14917c0.29785,0.37451,0.8418,0.5918,1.40527,0.5918
	c0.23438,0,0.46875-0.0376,0.69629-0.11621c0.65625-0.22705,0.89355-0.74341,0.78809-1.24658
	c3.63281,2.28613,8.00195,4.03271,12.99316,5.13379c3.5498,0.78125,7.4541,1.22534,11.40918,1.22534
	c8.90918,0,18.04688-2.2417,23.79199-7.86719c0.51953-0.5083,0.39844-1.22534-0.27832-1.6272
	c-0.66406-0.39307-1.65137-0.3418-2.2334,0.13428c-4.34863,3.59229-11.21387,5.37476-18.17383,5.15918
	c1.82227-1.81592,2.9209-4.14893,3.97461-6.4585c0.51855-1.14111,1.0498-2.31055,1.68262-3.43384
	c2.12012-3.7771,2.26465-8.04468,0.66797-11.93164c1.31738,0.68481,2.7002,1.29736,4.19238,1.75317
	c2.76367,0.84595,5.6377,1.22021,8.49805,1.22021c8.48438,0,16.85059-3.31934,21.95605-7.57129
	c6.22754-5.1958,10.03027-12.62354,11.29492-22.08545c0.5127-3.86426,0.62695-7.78613,0.74121-11.5813
	c0.10742-3.82251,0.2207-7.77515,0.75293-11.61816c0.5752-4.16724,1.66406-8.38742,2.7207-12.46896
	c1.41797-5.48901,2.8916-11.16504,3.15723-16.8811c0.46191-9.85181-2.63184-19.57251-5.61914-28.97217
	c-1.86035-5.84692-3.77832-11.89136-4.81445-17.87891c-1.75391-10.14429-1.05078-20.6272-0.36719-30.76392
	c0.77734-11.59961,1.58203-23.59229-1.25293-35.24512c-3.17773-13.03882-10.71582-25.14648-18.2041-36.85645
	c0.07031-0.05322,0.16406-0.0835,0.2207-0.14771c0.4873-0.54761,0.1088-1.04767-0.48145-1.63647
	c-15.00229-14.96558-17.10938-18.45053-26.91895-35.79892c-0.06543-0.14014-1.3737-4.35498-4.125-10
	c-0.01043-0.02139-1.75-4.25-2.75-8 M115.61241,281.71893l-1.36621-15.7001c0,0,0.20068-30.32056,1.1499-35.75146
	c1.47217-9.73975,4.10596-19.24878,8.03418-28.28394c0.16406-0.7395,1.05811-1.72583,1.05811-2.79395l0.09424-0.0459
	c21-6.65601,47.16504-15.48462,47.16504-15.48462c59.08154-18.73535,67.01611-41.08618,67.01611-41.08618
	s12.43164,22.26855,55.32567,36.89526c0,0,14.61279,4.80151,31.54053,10.71777
	c13.29785,46.19287,12.18164,87.8291-3.43262,124.23608c-0.27246,0.62378,0.20898,1.28735,1.05664,1.48389
	c0.16406,0.03687,0.3291,0.05298,0.4873,0.05298c0.69043,0,1.3291-0.32422,1.54395-0.82983
	c1.72852-4.03076,3.2168-8.14722,4.5957-12.30249c0.02441-0.04272,0.08691-0.06348,0.10547-0.10889
	c11.92188-28.0293,16.80713-61.94482,15.07861-95.91895c2.375,6.24658,4.20166,12.68823,5.44287,19.25562
	c0.45557,2.41138,0.72363,4.85498,0.80371,7.30786l0.95361,29.31909 M420.7309,111.44689v0.00269
	c0,0-0.00391-0.00391-0.00391-0.00635C420.72699,111.44543,420.7309,111.44665,420.7309,111.44689z M112.39301,313.32898
	c-0.00293,0.00391,0,0.00854,0,0.00854c-0.00098,0.00098-0.00195,0.00171-0.00195,0.00269
	C112.39105,313.33923,112.39105,313.33264,112.39301,313.32898z"/>
</svg>
