<?xml version="1.0" encoding="utf-8"?>
<!-- Generator: Adobe Illustrator 19.0.0, SVG Export Plug-In . SVG Version: 6.00 Build 0)  -->
<svg version="1.1" id="Layer_1" xmlns="http://www.w3.org/2000/svg" xmlns:xlink="http://www.w3.org/1999/xlink" x="0px" y="0px"
	 viewBox="-213 85.3333 531.3333 390.6667" enable-background="new -213 85.3333 531.3333 390.6667" xml:space="preserve">
<linearGradient id="XMLID_2_" gradientUnits="userSpaceOnUse" x1="54.5561" y1="380.7299" x2="48.5561" y2="166.7299" gradientTransform="matrix(1 0 0 -1 0 565.3333)">
	<stop  offset="0" style="stop-color:#8E4604"/>
	<stop  offset="1" style="stop-color:#EF7B05"/>
	<stop  offset="1" style="stop-color:#EF7B05"/>
</linearGradient>
<path id="XMLID_196_" fill="url(#XMLID_2_)" d="M233.7467,242.2343c-1.7373-12.0206-12.3777-34.8538-20.0919-44.2323
	c-6.6499-8.0791-34.0575-24.3254-34.0575-24.3254l33.0441,13.4104c0,0-36.7909-41.1721-53.5761-47.2891
	c-10.3919-3.7864-44.2306,1.0727-44.2306,1.0727s-42.7815-31.5002-59.7801-34.3474c-23.5629-3.9445-72.2589,7.7976-93.8548,18.0182
	c-18.8611,8.9269-64.1388,53.417-64.1388,53.417l37.0158-11.9072c0,0-33.5914,21.3394-41.7808,31.5481
	c-7.7858,9.7035-18.8225,32.9632-20.6616,45.2659c-4.1088,27.5065,14.5876,110.285,14.5876,110.285l20.803-19.7804l-16.3178,46.2849
	l15.3001-15.5056L-67.5,455.5923l-2.1146-122.3588l111.7118-51.7831L-5.843,325.8923l120.5979-54.6285l61.4265,61.9698
	l-2.5037,122.3588l27.3408-84.8452l12.9703,8.9076l-15.011-53.9807l19.2449,27.4761
	C218.2225,353.1501,237.7552,269.9447,233.7467,242.2343z"/>
</svg>
