<?xml version="1.0" encoding="utf-8"?>
<!-- Generator: Adobe Illustrator 19.0.0, SVG Export Plug-In . SVG Version: 6.00 Build 0)  -->
<svg version="1.1" id="Layer_1" xmlns="http://www.w3.org/2000/svg" xmlns:xlink="http://www.w3.org/1999/xlink" x="0px" y="0px"
	 viewBox="0 0 522.37762 474.12589" style="enable-background:new 0 0 522.37762 474.12589;" xml:space="preserve">
<style type="text/css">
	.st0{fill:#EF7B05;}
</style>
<path id="XMLID_1621_" class="st0" d="M516.43335,332.89981c-0.00269-0.03003-0.0108-0.05884-0.01355-0.08887
	c0.05695-1.60403,0.14368-3.20209,0.01355-4.82895c-1.23602-15.6106-11.2977-29.70844-21.02869-43.34283
	c-10.35983-14.50842-20.04477-28.2821-20.22095-43.68141c0.93787-11.89586,1.59924-23.89738,1.51794-35.90851
	c0.12195-12.35452-0.91614-24.73064-2.8298-37.01791c-5.04169-32.39186-19.16556-60.23334-41.16556-80.51682
	c0-0.00121,0-0.0036,0-0.0036c0-0.02882,0.37943-0.05043,0.34961-0.07804c-13.04874-12.23325-29.03848-22.29575-44.71921-32.02328
	L362.79486,39.4988c-25.45236-15.78832-50.86002-29.84772-80.12344-28.83439c-24.01306,0.84765-37.66829,7.89296-57.84857,19.30978
	c-0.05693-0.06243-0.0349-0.15248-0.11079-0.20531c-2.41785-1.75052-5.62566-2.62698-8.69403-2.44449
	c-0.11385,0.0072-0.17543,0.09605-0.27843,0.12607c-0.09758-0.02521-0.1636-0.09125-0.26932-0.10445
	c-29.65919,0.66515-59.06815,10.04929-80.69316,25.74397c-21.61961,15.68146-35.09076,36.48362-38.09951,58.67492
	c-6.05273,3.78079-11.76371,7.48235-16.76744,11.15628c-16.75682,12.30649-29.72956,29.28583-40.81584,53.43776
	c-8.72265,19.00002-12.40628,33.83743-11.9509,47.86322c-0.08132,2.14793-0.09213,4.27785,0.019,6.38376
	c0.98123,18.29884,10.08338,34.69467,24.96176,45.1402c0.13282,0.53067,0.10572,1.10696,0.18433,1.65326
	c-0.50959,3.85883-2.05191,7.91696-4.8926,11.95831c-3.30149,4.69928-7.73058,9.00955-12.0133,13.18054
	c-2.16304,2.10831-4.33151,4.21902-6.37529,6.39215c-12.92948,13.71124-19.84146,29.16098-19.4674,43.50372
	c0.01355,0.43945,0.10842,0.86328,0.13282,1.2991c-0.06776,1.21024-0.16263,2.42288-0.13282,3.61871
	c0.43911,16.5195,10.73933,31.63907,26.89439,39.6701c-0.17076,0.73956-0.4093,1.46597-0.54754,2.21036
	c-0.72372,3.92365-0.9216,7.74887-0.72372,11.44803c-0.55567,10.51395,2.32568,20.15982,8.46515,27.63016
	c7.66553,9.33133,20.96364,15.16159,33.74133,15.16159c1.79982,0,3.59423-0.11526,5.36153-0.35538
	c0.67223-0.09125,1.17097-0.59793,1.17639-1.20065c0.00542-0.60272-0.47706-1.1214-1.14928-1.22464
	c-3.03857-0.47305-5.98225-1.27628-8.78229-2.32681c1.13303,0.09003,2.26604,0.1897,3.39365,0.1897
	c1.79982,0,3.59423-0.11526,5.36153-0.35541c0.67223-0.09125,1.17097-0.5979,1.17639-1.20062
	c0.00542-0.60272-0.47706-1.1214-1.14928-1.22464c-5.22058-0.81284-10.15655-2.58618-14.51788-4.99585
	c5.35882,2.29202,10.7854,4.02573,15.58042,4.39313c1.8703,0.14407,3.74603,0.21371,5.62175,0.28094
	c2.78106,0.10327,5.64885,0.20892,8.39738,0.5715c3.58339,0.47784,8.46786,1.65686,11.40884,4.5744
	c0.07319,0.07446,0.19516,0.05884,0.2819,0.11288c-0.24395,0.56668-0.04607,1.21982,0.57194,1.51999
	c0.21143,0.10324,0.43911,0.15128,0.6668,0.15128c0.48791,0,0.96497-0.23053,1.21976-0.63873
	c1.14386-1.85257,1.20078-4.01971,0.44724-6.17126c1.08965-2.94754,0.06776-6.39096-2.88948-9.3049
	c4.07401,2.55734,7.77937,5.41846,10.60109,8.80786c2.59673,3.11923,4.12821,6.50623,4.66491,9.81516
	c-0.36322,2.14554-1.16555,4.1842-2.53439,5.97797c-0.40659,0.53067-0.2819,1.24625,0.2819,1.64725
	c0.2548,0.1825,0.55838,0.27136,0.86739,0.27136c0.22769,0,0.41743-0.13928,0.62073-0.23532
	c-0.44996,1.13098-1.00291,2.22836-1.77001,3.2345c-0.40659,0.53067-0.2819,1.24625,0.2819,1.64728
	c0.2548,0.1825,0.55838,0.27133,0.86739,0.27133c0.36864,0,0.73728-0.12967,1.00834-0.38422l0.36322-0.34338
	c6.97975-6.51703,16.78934-15.70306,17.46428-24.3248c2.56149,3.85641,3.58611,8.61453,4.50769,12.94522l0.13011,0.58591
	c0.08131,0.39862,0.3849,0.73477,0.80775,0.89566c0.17889,0.06964,0.36322,0.10327,0.55296,0.10327
	c0.26021,0,0.51501-0.06485,0.73727-0.1897c5.37238-2.9968,8.74162-7.30707,10.66072-12.02194
	c7.63571,8.48727,20.09084,13.5155,33.45671,13.5155c1.46643,0,2.94641,4.37317,4.42638,4.25311
	c0.4852,0.43222,1.06798,5.31686,1.75917,5.31686c0.04338,0,0.08675,0,0.13011,0c0.69933,0,1.21976-4.94946,1.28482-5.58582
	c0.03795-0.37698-0.17078-2.93695-0.47707-3.17828c0.0488-0.48386-0.22498-2.0574-0.70476-2.29272
	c-0.04065-0.35779-0.20599-1.25684-0.57463-1.46933c-0.40388-0.23773-0.86469-0.47293-1.2821-0.30966
	c-0.88908-0.42142-1.69141-1.13333-2.54253-1.62198c0.80232-0.04684,1.60194,4.31708,2.40698,4.25226
	c0.4852,0.43222,1.06798,5.20554,1.75917,5.20554c0.04338,0,0.08675,0,0.13011,0c0.69933,0,1.21976-4.90836,1.28482-5.54471
	c0.03795-0.37698-0.17078-2.91641-0.47707-3.15775c0.0488-0.48386-0.22498-2.04712-0.70476-2.28244
	c-0.04065-0.35779-0.20599-1.25168-0.57463-1.4642c-0.40388-0.23773-0.86469-0.47037-1.2821-0.30707
	c-6.72224-3.19009-12.34129-8.54715-16.39632-14.80365c3.75958-3.43381,6.9445-7.83047,9.38945-13.16125
	c2.67264-5.82788,4.23935-12.06754,5.76813-18.10672l3.868-15.34348c0.04608,0.0036,0.07861,0.04053,0.12198,0.04053
	c0.31984,0,0.63969-0.10037,0.89992-0.2973c0.58548-0.44183,0.65596-1.2196,0.15721-1.73587
	c-0.17078-0.1777-0.36864-0.36728-0.54211-0.54498l0.09215-0.36673c0.15451-0.60272-0.26292-1.15768-0.89449-1.37259
	l0.16534-0.65808c0.04608,0.0036,0.07861,0.04913,0.12198,0.04913c0.31984,0,0.63969-0.09607,0.89992-0.29297
	c0.58548-0.44183,0.65596-1.21747,0.15721-1.73373c-0.17078-0.1777-0.36864-0.36621-0.54211-0.54388l0.09215-0.36621
	c0.16806-0.66275-0.30357-1.32071-1.0517-1.46957c-0.27919-0.05164-0.51501,0.04083-0.75354,0.11646
	c-6.33192-6.37537-13.81856-13.18774-22.43279-20.97626l-0.88907-0.80682c-8.65759-7.83292-18.47533-18.09354-21.11002-29.71326
	c0.88094-1.58963,1.70767-3.19366,2.37447-4.83853c2.60217-6.4234,3.3286-12.94522,2.94641-19.49347
	c0.42827-12.08557-3.54816-24.32123-7.51645-36.27112c-2.03836-6.14606-4.07671-12.38693-5.55127-18.64343
	c-0.4364-3.02199-0.94328-6.12082-1.61009-9.39375c-0.00812-0.04202-0.05692-0.05882-0.07047-0.09845
	c-0.15721-1.37352-0.18161-2.74104-0.24937-4.11096c0.06776-1.49599,0.09486-2.99438,0.31984-4.48317
	c1.9706-13.00525,10.25685-25.74396,18.26933-38.06245c7.30772-11.24033,14.74828-22.76279,17.58626-34.68507
	c2.8949,19.08286,11.24892,39.6617,25.13794,61.61046c5.08505,8.03464,11.44949,16.96735,22.63878,21.29922
	c6.02834,2.33403,12.76685,2.99197,19.29935,2.99197c4.59172,0,9.08588-0.32416,13.168-0.61952l2.18472-0.15727
	c0.0217,0.00119,0.03796,0.0204,0.03796,0.0204c0.05148,0,0.07047-0.02881,0.09756-0.03001l15.48828-1.11539
	c0.25479,0.16089,0.51501,0.23293,0.75897,0.26414c0.36862,0.33138,0.927,0.45863,1.43658,0.28815
	c0.56381-0.17529,0.93246-0.64835,0.92703-1.17662c-0.00543-0.33138-0.26022-0.91248-0.53128-1.14059
	c-0.09216-0.07445-0.18433-0.13689-0.28189-0.1873c-0.8457-0.96771-1.59924-1.97984-2.42868-2.95596l0.11926-0.0096
	c0.25479,0.16087,0.51501,0.23291,0.75897,0.26413c0.36862,0.33138,0.927,0.45865,1.43658,0.28816
	c0.56381-0.17529,0.93246-0.64835,0.92703-1.17662c-0.00543-0.33138-0.26022-0.91249-0.53128-1.14061
	c-0.09216-0.07443-0.18433-0.13687-0.28189-0.1873c-13.63965-15.59261-24.91296-32.35464-33.67628-49.86827
	c2.55338,4.58641,5.35883,12.15977,8.58171,16.54449c12.08377,16.43906,38.23004,50.11777,77.56061,50.11777
	c0.02982,0,0.06775,0,0.06775,0c-0.50146,0-1.28275-3.33752-1.51044-3.80096c0.22769,0.46344,1.00226-2.77385,1.00226-2.77385
	v-0.24551v6.82033h0.55698c0.18161,0,0.3605-3.09019,0.53397-3.15863c0.05695-0.02161,0.06778-1.60933,0.11658-1.63574
	c0.21683-0.11166,0.37949-1.03159,0.49603-1.21529c0.04337-0.06723,0.10028-0.50739,0.12738-0.58183
	c0.02713-0.06602,0.10031-0.2933,0.11115-0.36295c0.02982-0.17529-0.07318-0.4126-0.11926-0.57109
	c-0.01898-0.07204,0.02982-0.19069-0.00543-0.26152c-0.52313-1.07817-1.07608,0.84483-1.60464-0.23213
	c0.07858,0.00481,0.14908,3.01918,0.22769,3.01918c0.02982,0,0.06775,0,0.06775,0c-0.11383,0-0.50818-6.09698-0.50818-6.1246
	c0-0.0024,0-0.00479,0-0.0072c0,0.03122,0.32455,3.11394,0.45468,3.11394l0,0l0.09146,3.01787h0.01083
	c0.18161,0,0.3605-3.04909,0.53397-3.11752c0.05695-0.02161,0.06778-1.58879,0.11658-1.6152
	c0.21683-0.11165,0.37949-1.0213,0.49603-1.205c0.04337-0.06723,0.10028-0.50224,0.12738-0.57669
	c0.02713-0.06604,0.10031-0.29074,0.11115-0.36038c0.02982-0.17529-0.07318-0.41132-0.11926-0.56979
	c-0.01898-0.07204,0.02982-0.19005-0.00543-0.26089c-5.07419-10.4359-10.37338-20.85696-15.77286-31.23163
	c4.25562,3.61031,7.64383,7.85356,11.11609,12.29109c3.42618,4.37511,6.97162,8.89319,11.51996,12.86249
	c11.93741,10.40468,31.44818,16.85873,50.49274,16.85873c1.12219,0,2.24979-0.02548,3.37195-0.07111
	c0.25211-0.00961,0.46082-0.10039,0.64786-0.22406c-2.42868,11.82623-3.59967,23.8334-3.53732,35.85892
	c-0.06506,2.85272-0.00543,5.70404,0.07047,8.55673c-0.16263,0.1861-0.32254,0.38412-0.34152,0.63626
	c-1.68326,24.45688-12.52832,48.05167-30.02512,66.86316c-0.24667,0.26416-0.4852,0.53427-0.73456,0.79721
	c-6.42679,6.78717-13.71014,12.9476-21.77954,18.25922c-0.10571-0.01563-0.17889-0.08646-0.29004-0.08405
	c-0.76437,0.05762-1.32819,0.65314-1.26312,1.33029c0.1301,1.31589,0.33612,2.61978,0.52313,3.92847
	c-0.32797,0.24854-0.5611,0.5787-0.52313,0.98932c1.59924,16.38623,7.74686,32.17935,17.8302,45.86176
	c-0.03253,0.10086,0,0.2041-0.00272,0.30737c-1.8703,3.7988-4.62967,7.25781-9.03976,9.41296
	c-0.53671,0.26172-0.8132,0.8092-0.68307,1.34229c0.13553,0.5307,0.64511,0.92209,1.25769,0.96051
	c1.08694,0.06604,2.1712,0.09125,3.25815,0.09967c-1.12491,0.95209-2.38531,1.80814-3.83276,2.51532
	c-0.53671,0.26175-0.8132,0.80923-0.68307,1.34232c0.13553,0.53067,0.64511,0.92209,1.25769,0.96051
	c1.23605,0.07443,2.47208,0.11285,3.7081,0.11285c11.604,0,23.23239-3.28854,32.28302-8.95193
	c0.07861,0.01923,0.14368,0.06964,0.22769,0.07684c0.82944,0.06723,1.67514,0.10086,2.52084,0.10086
	c7.19931,0,14.73203-2.47812,20.85522-6.75717c-5.56754,7.9866-15.69971,15.26965-24.63919,17.73337
	c-0.64511,0.17767-1.05173,0.73718-0.96497,1.33029c0.08673,0.5907,0.63968,1.04214,1.31192,1.07095
	c1.01376,0.04324,2.0275,0.06485,3.04669,0.06485c1.03815,0,2.07358-0.10327,3.10904-0.14767
	c-2.18472,1.07697-4.37488,2.01346-6.50269,2.59937c-0.64511,0.17767-1.05173,0.73718-0.96497,1.33029
	c0.08673,0.5907,0.63968,1.04214,1.31192,1.07095c1.01376,0.04324,2.0275,0.06485,3.04669,0.06485
	c18.70844,0,37.5741-7.23022,48.74167-18.84512c8.25916-8.59415,12.24643-19.58832,11.62299-30.35321
	c0.39847-5.49649-0.39304-11.03741-2.4368-16.27216c-0.01898-0.11047,0.04337-0.21854-0.01355-0.3266
	c-0.29819-0.57629-0.534-1.21744-0.79694-1.83334c-0.02438-0.05524-0.03793-0.11407-0.06503-0.16931
	c-0.00272-0.0072-0.01355-0.0072-0.01627-0.0144c-0.62073-1.48877-1.17639-3.04358-1.62366-4.69327
	c0.22769,0.40341,0.44995,0.80804,0.68307,1.21146c5.74915,10.02768,11.7016,20.39392,14.02725,31.25006
	c0.49875,2.3208,0.74271,4.80011,0.86469,7.32385c-0.63156,11.26434-5.27478,22.92007-15.86502,29.09134
	c-0.10843,0.06482-0.12198,0.18369-0.20331,0.26773c-0.11383,0.11526-0.22498,0.22693-0.28189,0.3674
	c-0.05695,0.14407-0.0488,0.29776-0.04337,0.45502c0.0054,0.10806-0.06778,0.20651-0.02982,0.31458
	c0.02438,0.06723,0.09756,0.10086,0.13281,0.16208c0.0271,0.04324,0,0.09366,0.02982,0.13568
	c0.06503,0.08765,0.16806,0.13446,0.24936,0.20172c0.06235,0.048,0.11115,0.10684,0.18161,0.14407
	c0.21957,0.12247,0.46622,0.20889,0.72916,0.20889c0.14096,0,0.28189-0.0192,0.42285-0.06003
	c1.44745-0.4118,2.85965-0.91248,4.2529-1.46716c-1.62094,1.5596-3.39365,2.99557-5.44012,4.18781
	c-0.10843,0.06482-0.12198,0.18369-0.20331,0.26773c-0.11383,0.11526-0.22498,0.22693-0.28189,0.3674
	c-0.05695,0.14407-0.0488,0.29776-0.04337,0.45505c0.0054,0.10803-0.06778,0.20651-0.02982,0.31454
	c0.02438,0.06726,0.09756,0.10086,0.13281,0.16211c0.0271,0.04321,0,0.09363,0.02982,0.13565
	c0.06503,0.08765,0.16806,0.13449,0.24936,0.20172c0.06235,0.048,0.11115,0.10684,0.18161,0.14407
	c0.21957,0.12247,0.46622,0.20889,0.72916,0.20889c0.14096,0,0.28189-0.0192,0.42285-0.06003
	c10.58752-3.01837,19.87939-9.99887,25.49573-19.1525c3.89783-6.35614,6.23434-13.84808,7.09631-22.79761
	c1.8486,3.51065,2.90573,7.26624,3.2337,11.05664c-0.26563,2.89832-0.95682,5.76904-2.14948,8.51367
	c-0.25479,0.58353,0.0271,1.23907,0.65054,1.5296c0.17075,0.07925,0.35236,0.04324,0.53397,0.05643
	c-0.32797,1.125-0.71017,2.2392-1.18451,3.33176c-0.25479,0.58353,0.0271,1.23907,0.65054,1.52963
	c0.62341,0.29053,1.39322,0.11765,1.78897-0.39383c6.13947-7.94098,8.991-17.57004,8.42178-26.7861
	c0.15179-2.20197,0.04337-4.38953-0.18973-6.55786c3.57254,5.23956,5.65155,10.97018,6.11237,16.73322
	c-0.27921,3.34616-1.05713,6.65271-2.49918,9.80798l-1.12216,2.45648c-0.23856,0.51389-0.05423,1.10217,0.44452,1.43835
	c0.29004,0.19571,0.63699,0.24252,0.97852,0.21011c-0.11111,0.26895-0.17889,0.5463-0.30087,0.81284l-1.12216,2.45648
	c-0.23856,0.51389-0.05423,1.10217,0.44452,1.43835s1.18182,0.33618,1.68057,0c6.93365-4.68484,10.62006-12.44095,10.11047-21.28241
	c-0.01355-0.27014-0.08676-0.53308-0.10843-0.80322c0.12738-1.34351,0.18973-2.70862,0.10843-4.11456
	c-0.40118-6.92526-3.12259-13.59836-5.75729-20.05298l-0.79419-1.95703c-1.82422-4.50357-3.03043-8.5809-3.36926-13.15411
	c0.02441-0.40341-0.00812-0.76001,0.02982-1.17422C506.60751,368.9848,517.935,351.76895,516.43335,332.89981z M224.14587,31.82436
	v0.0024c-0.10843,0.02161-0.18703,0.12247-0.29817,0.12247C223.95885,31.94922,224.03745,31.84717,224.14587,31.82436z
	 M431.57587,89.19778l0.00272,0.0024c0.27106,0.25453,0.63971,0.3842,1.00562,0.3842c-0.36591,0-0.73456-0.12967-1.0029-0.383
	l-0.00543-0.00121h0.00272L431.57587,89.19778z"/>
</svg>
