<?xml version="1.0" encoding="utf-8"?>
<!-- Generator: Adobe Illustrator 19.0.0, SVG Export Plug-In . SVG Version: 6.00 Build 0)  -->
<svg version="1.1" id="Layer_1" xmlns="http://www.w3.org/2000/svg" xmlns:xlink="http://www.w3.org/1999/xlink" x="0px" y="0px"
	 viewBox="-323 207 426 393" style="enable-background:new -323 207 426 393;" xml:space="preserve">
<style type="text/css">
	.st0{fill:#EF7B05;}
</style>
<g id="XMLID_8085_">
	<path id="XMLID_8281_" class="st0" d="M-203.1,512.4c0.1-0.6,0.7-1,1.4-0.9c-8-9-15.3-19.1-18.4-29.4c0,14.6,0.3,29.1,0.6,43.4
		c0.2,8.3,0.5,18.7,6.2,26.7c5.1,7,14.5,12.2,25.3,13.7c0.5,0.1,1.1,0.1,1.6,0.1C-201.2,551.5-207.6,531.3-203.1,512.4z"/>
	<path id="XMLID_8280_" class="st0" d="M-267.3,464.9l-0.1,1.6c-4.1,72.8,17.4,100.8,36.1,111.5c11,6.3,26.1,8.3,40.2,5.2
		c11.9-2.6,22.9-8.8,30.6-17.2c-3.9,1.1-7.7,1.8-11.5,2.3c-0.1,0-0.2,0.1-0.3,0.1c-0.1,0-0.1-0.1-0.2-0.1c-3.5,0.4-6.9,0.6-10.2,0.4
		c-0.1,0-0.2,0.1-0.3,0.1c-0.2,0-0.3-0.1-0.5-0.2c-1.6-0.1-3.3-0.2-4.8-0.4c-11.5-1.7-21.6-7.2-27-14.7c-6.2-8.6-6.4-19.3-6.7-27.9
		c-1.1-44.9-1.4-91.3,4.7-137.1c-0.1-0.3-0.1-0.6,0.1-0.9c0,0,0,0,0,0c3.9-29.2,10.4-58.2,21-86.4c0.2-0.6,1-0.9,1.6-0.7
		c0.7,0.2,1,0.9,0.8,1.5c-9.7,25.9-15.9,52.6-19.9,79.5c9.6-18.4,18.4-46.7,26.9-74.1c9.6-31,18.7-60.4,29.1-77.3
		C-251.5,254.8-265.5,429.9-267.3,464.9z"/>
	<path id="XMLID_8279_" class="st0" d="M-38.7,360.2c-35.5-68.1-72.5-111-109.9-127.8c12.9,17.1,20.3,38.5,26.8,57.5
		c2.6,7.6,5.1,14.8,7.8,21.4c14.6,29,54.7,60.9,67.5,70.7c11.9,9,26.5,19.9,43.7,23.8C-16.4,392-29,378.5-36.5,364.5
		C-37.1,363.4-37.8,362-38.7,360.2z"/>
	<path id="XMLID_8278_" class="st0" d="M-68.4,388c-1.2-0.9-2.4-1.8-3.5-2.7c-27.5-21.4-38.9-54.6-48-81.3c0,0,0,0,0,0c0,0,0,0,0,0
		c0-0.1,0-0.2,0-0.4c0-0.2,0-0.3,0-0.5c-1.5-4-2.9-8.2-4.4-12.5c-6.9-20.1-14.7-42.9-28.9-60.1c-0.5-0.2-1.1-0.5-1.6-0.7
		c-7.9,12.3-15.4,33-22.6,55.4c-1.6,40.3,13.1,72.5,44.7,98.4c10.2,8.3,19.3,13.2,28.9,15.5c8.5,2,17.1,2.4,25.5,2.8
		c8.2,0.4,16.6,0.9,25,2.7C-55.1,398-61.8,392.9-68.4,388z"/>
	<path id="XMLID_8277_" class="st0" d="M-70.3,383.5c1.1,0.9,2.3,1.8,3.5,2.7c3.9,2.9,7.8,5.9,10.8,9.2
		c-6.2-15.6-19.4-31.9-27.8-41.3c-0.2-0.3-0.3-0.6-0.3-0.9c-10-9.7-19.8-20.5-26.9-31.4C-102.7,343.8-91.2,367.2-70.3,383.5z"/>
	<path id="XMLID_8276_" class="st0" d="M-36.5,359.2c0.9,1.7,1.7,3.2,2.3,4.3c7.4,13.9,20.1,27.4,33.7,41.1
		c-1.1-31-18.9-82.5-37-106.4c-16.3-21.5-49.6-65.6-111.4-68.4C-110.4,246.4-72.6,289.8-36.5,359.2z"/>
	<path id="XMLID_8275_" class="st0" d="M-182.7,566.4c2.5,0.1,5.1,0.1,7.7-0.2c-2.2-2.3-4.3-4.8-6-7.5c-0.4-0.2-0.6-0.6-0.6-1
		c-5.8-9.6-8.8-21.4-8.1-33.7c-3.6-3.5-7.3-7.2-11-11.2c0,0.1,0.1,0.1,0,0.2C-205.2,531.9-198.3,552.3-182.7,566.4z"/>
	<path id="XMLID_8274_" class="st0" d="M-25.6,555c9.1-13,17.7-39.1,22.4-71.9c-8,21.3-23.3,40-43,51.9c1.9,10.3,4.5,20.5,7.9,30.5
		c2.1-1.2,4.1-2.4,5.9-3.8c0,0,0.1-0.1,0.1-0.1C-29.7,559.6-27.3,557.4-25.6,555z"/>
	<path id="XMLID_8273_" class="st0" d="M-180.6,554.3c1.9-6.1,2.8-12.1,2.5-19.3c-1.4-1.3-2.9-2.8-4.6-4.4c-1.4-1.3-2.9-2.8-4.5-4.2
		C-187.3,536.4-185,546.1-180.6,554.3z"/>
	<path id="XMLID_8272_" class="st0" d="M-149.3,227.2c-0.2,0.1-0.4,0.1-0.6,0.2c0.3,0,0.6,0,0.8,0
		C-149.2,227.3-149.2,227.2-149.3,227.2z"/>
	<path id="XMLID_8271_" class="st0" d="M-10.4,289.5c13.1,17.7,24,39.1,34.5,67.1c0,0,0,0,0,0l0.3,0.9c0,0,0.1,0.1,0.1,0.1
		c0,0,0,0.1,0,0.1l2,5.3c17.6,46.4,37.5,99,35.2,150c-0.3,5.9-0.9,12.7-3.8,19.1c-1.2,2.7-2.5,5.3-4.1,7.8c5.4-3.6,10-8.3,13.6-13.9
		c4.7-7.5,7.6-16.4,8.8-27.2c2.3-21.1-2.8-43.1-14.3-61.9c-0.3-0.6-0.1-1.3,0.5-1.6c0.6-0.3,1.4-0.1,1.7,0.4
		c11.7,19.3,16.9,41.7,14.6,63.3c-1.2,11.2-4.2,20.4-9.1,28.2c-4.5,7.2-10.8,13-18.1,16.9c19-5.1,32-20.8,36.8-35.6
		c6-18.3,3-37.6-0.5-55.9c-3.5-18-7.7-36.2-12.5-54c-7.4-27.1-18.4-62.3-38.8-93.8c-20.6-31.9-48.4-56.2-80.4-70.3
		c-32.3-14.2-68.6-17.3-99.7-9c29.2,0.8,52.1,5,71.5,13.4C-48.7,248.8-27.4,266.3-10.4,289.5z"/>
	<path id="XMLID_8270_" class="st0" d="M-282.9,412.3c0.1-0.6,0.8-1,1.5-1c0.7,0.1,1.1,0.7,1,1.4c-7.1,36.8-14,79.5-7,121.3
		c1.6,9.8,4.4,20.8,12.6,28.6c6.8,6.5,18,11.9,28,6.6l-1.5-2.1c-0.2-0.3-0.3-0.6-0.2-0.9c-13.6-16.5-24.4-46.3-21.4-100l0.1-1.6
		c1.8-34.5,15.4-204.2,105.3-235.1c-27.2,1.5-54.6,14.8-74.8,36.8c-19.1,20.7-29.9,45.4-40.4,76.1c-20.4,59.6-30.5,112.3-30.9,161
		c-0.1,8.9,0.2,18.3,4.3,26.7c2.6,5.3,8.4,14,19.1,15.9c-1.2-3.9-2-7.9-2.7-11.7C-297,492.2-290,449.3-282.9,412.3z"/>
	<path id="XMLID_8269_" class="st0" d="M43.9,544.9c1.2-0.4,2.4-0.9,3.6-1.4c3.9-3,6.1-7.5,8.2-12.2c2.7-6.1,3.3-12.7,3.6-18.3
		c2.2-47.8-15.5-97.3-32.2-141.6c0,0-0.1,0.1-0.1,0.1c0.1,0.4,0.1,0.7,0.2,1.1c6,33.4,20.2,111.8,13.4,150.1
		c-2.1,11.8-4.5,25.2-12.6,36.2c-7.6,10.3-19.6,19-34.2,25c23.9-3.7,45.3-17.7,55.3-36.6c-1.4,0.3-2.8,0.5-4.2,0.7
		c-0.1,0-0.1,0-0.2,0c-0.6,0-1.1-0.3-1.2-0.8c0-0.1,0-0.2,0-0.2c-0.1-0.1-0.2-0.2-0.3-0.3C42.9,545.8,43.2,545.1,43.9,544.9z"/>
	<path id="XMLID_8268_" class="st0" d="M25.8,557.4c7.8-10.6,10.1-23.6,12.2-35.2c6.8-38-7.3-116-13.4-149.3c-0.9-5-1.6-9-2.1-11.8
		c-0.1-0.2-0.1-0.4-0.1-0.6c-0.1-0.9-0.3-1.6-0.3-2.2c-10.5-28.2-21.5-49.7-34.6-67.5c-16.8-22.8-37.7-40-60.6-49.9
		c-18.8-8.1-41.1-12.3-69.4-13.1c59.2,5.7,92.4,49.5,107.1,69c18.9,25.1,37.5,79.9,37.6,110.9c4.8,75.3-12.7,130.1-25.7,148.6
		c-2,2.8-4.6,5.2-7.5,7.4c-0.4,0.5-1.2,1-3.1,2.3c-1.1,0.7-2.9,1.9-3.4,2.5c-0.1,0.4-0.3,0.7-0.7,0.9c-0.2,0.1-0.3,0.1-0.5,0.1
		c-0.4,0-0.7-0.2-0.9-0.4c-2.6,1.4-5.3,2.7-7.9,4c-3.8,1.9-7.3,3.6-10.6,5.5c9.3,5.4,23.3,8.8,36.2,7.3c0.1-0.5,0.6-0.9,1.2-0.9
		c0,0,0,0,0,0c1.4,0,2.8,0,4.1-0.1c1.3-0.3,2.6-0.6,3.8-1C3.8,578,17.5,568.6,25.8,557.4z"/>
	<path id="XMLID_8267_" class="st0" d="M-286.4,548.7c-0.3-0.9-0.6-1.7-0.9-2.6c-10.7-1.9-16.6-10.6-19.1-15.9
		c-4.1-8.4-4.4-17.8-4.3-26.7c0.4-48.7,10.5-101.3,30.9-161c10.5-30.7,21.4-55.4,40.4-76.1c20.2-22,47.6-35.3,74.8-36.8
		c2.3-0.8,4.6-1.6,7.1-2.2c0.3-0.1,0.6-0.2,0.8-0.3c-30.5-0.9-62,13.1-84.7,37.7c-19.3,21-30.3,46-40.9,76.9
		c-20.4,59.9-30.6,112.8-31,161.7c-0.1,9.2,0.2,18.8,4.5,27.6C-303.8,541.3-295.8,547.5-286.4,548.7z"/>
	<path id="XMLID_8266_" class="st0" d="M-248.4,567.2l1.5,2.1c-10,5.3-21.2-0.2-28-6.6c-8.2-7.8-11-18.9-12.6-28.6
		c-7-41.8-0.1-84.5,7-121.3c0.1-0.6-0.3-1.3-1-1.4c-0.7-0.1-1.3,0.3-1.5,1c-7.1,37-14.1,80-7,122.1c0.6,3.8,1.4,7.8,2.7,11.7
		c0.7,0.1,1.3,0.3,1.9,0.4c0.7,0.1,1.2,0.6,1.1,1.3c-0.1,0.6-0.6,1.1-1.3,1.1c0,0-0.1,0-0.1,0c-0.3,0-0.5-0.1-0.8-0.1
		c2,5.7,5,11.1,9.7,15.6c5.3,5.1,13.1,9.5,21.2,9.5c3.6,0,7.3-0.9,10.9-3c-1.3-1.4-2.7-2.8-4-4.4
		C-248.6,566.7-248.6,567-248.4,567.2z"/>
	<path id="XMLID_8265_" class="st0" d="M-285.5,548.8c0.6,0,1.2-0.5,1.3-1.1c0.1-0.6-0.4-1.2-1.1-1.3c-0.7-0.1-1.3-0.2-1.9-0.4
		c0.3,0.9,0.6,1.7,0.9,2.6c0.3,0,0.5,0.1,0.8,0.1C-285.5,548.8-285.5,548.8-285.5,548.8z"/>
	<path id="XMLID_8264_" class="st0" d="M-171.4,568c-0.2,0.2-0.4,0.2-0.6,0.2c3.8-0.5,7.6-1.2,11.5-2.3
		c-7.8,8.5-18.7,14.7-30.6,17.2c-14.2,3.1-29.2,1.1-40.2-5.2c-18.7-10.7-40.1-38.7-36.1-111.5l0.1-1.6
		c1.9-35,15.9-210.1,109.5-234.8c0.1-0.1,0.2-0.3,0.3-0.4c-0.1,0-0.1-0.1-0.1-0.1c-2.3,0-4.6,0-6.9,0.1
		c-89.9,30.9-103.5,200.6-105.3,235.1l-0.1,1.6c-3,53.7,7.9,83.5,21.4,100c0.1-0.3,0.2-0.6,0.5-0.7c0.6-0.4,1.4-0.2,1.8,0.3l2.3,3.1
		c0.2,0.3,0.3,0.6,0.2,0.9c-0.1,0.3-0.3,0.6-0.5,0.8c-0.1,0-0.2,0.1-0.2,0.1c3.9,3.9,8,7,11.9,9.2c8,4.6,18,7,28.2,7
		c4.6,0,9.3-0.5,13.9-1.5c13.9-3,26.5-10.7,34.7-21.2c0.3-0.4,0.3-1,0-1.4c-0.3-0.4-0.9-0.6-1.4-0.4c-4.9,1.7-9.8,2.8-14.6,3.4
		c0.2,0.2,0.3,0.3,0.5,0.5C-171,566.8-171,567.6-171.4,568z"/>
	<path id="XMLID_8263_" class="st0" d="M-216.2,389.3c-0.2,0-0.4-0.1-0.6-0.2c-0.3-0.2-0.5-0.4-0.6-0.7
		c-6.1,45.8-5.8,92.3-4.7,137.1c0.2,8.6,0.5,19.4,6.7,27.9c5.4,7.6,15.5,13.1,27,14.7c1.6,0.2,3.2,0.3,4.8,0.4
		c-0.1-0.1-0.3,0-0.4-0.1c-0.9-0.8-1.6-1.7-2.5-2.5c-0.5-0.1-1.1,0-1.6-0.1c-10.8-1.6-20.2-6.7-25.3-13.7c-5.8-8-6-18.4-6.2-26.7
		c-0.4-14.3-0.6-28.8-0.6-43.4c-0.7-2.3-1.2-4.6-1.5-6.9c-0.1-0.6,0.4-1.2,1.1-1.3c0.2,0,0.3,0.1,0.4,0.1
		c0.2-28.5,1.5-57.3,5.3-85.8c-0.1,0.2-0.2,0.3-0.3,0.5C-215.3,389.1-215.7,389.3-216.2,389.3z"/>
	<path id="XMLID_8262_" class="st0" d="M-194.7,300.5c-0.6-0.2-1.4,0.1-1.6,0.7c-10.5,28.1-17,57.1-21,86.4c1.2-1.9,2.3-3.9,3.4-6.1
		c4-26.9,10.2-53.6,19.9-79.5C-193.7,301.3-194,300.7-194.7,300.5z"/>
	<path id="XMLID_8261_" class="st0" d="M-182.7,566.4c0.2,0.2,0.3,0.3,0.5,0.5c0.5,0.4,0.5,1.2,0,1.7c-0.2,0.2-0.4,0.2-0.6,0.2
		c3.3,0.1,6.8,0,10.2-0.4c-0.3,0-0.5-0.1-0.7-0.3c-0.6-0.6-1.2-1.2-1.7-1.8C-177.6,566.4-180.2,566.5-182.7,566.4z"/>
	<path id="XMLID_8260_" class="st0" d="M-157.7,229.5c-0.2-0.1-0.4-0.3-0.5-0.5c-0.3-0.6,0-1.3,0.7-1.5c0,0,0,0,0,0
		c-2.4,0.6-4.7,1.4-7.1,2.2C-162.3,229.5-160,229.5-157.7,229.5z"/>
	<path id="XMLID_8259_" class="st0" d="M-243.8,569.9c0.1-0.3,0-0.6-0.2-0.9l-2.3-3.1c-0.4-0.5-1.2-0.7-1.8-0.3
		c-0.3,0.2-0.5,0.5-0.5,0.7c1.3,1.6,2.6,3.1,4,4.4c0.1,0,0.2-0.1,0.2-0.1C-244.1,570.5-243.9,570.2-243.8,569.9z"/>
	<path id="XMLID_8258_" class="st0" d="M-182.7,568.8c-0.3,0-0.5-0.1-0.8-0.1c0.2,0.1,0.3,0.2,0.5,0.2
		C-182.9,568.9-182.8,568.8-182.7,568.8z"/>
	<path id="XMLID_8257_" class="st0" d="M-200.6,512.9c0-0.1,0-0.1,0-0.2c-0.3-0.4-0.7-0.8-1-1.2c-0.7-0.1-1.3,0.3-1.4,0.9
		c-4.5,18.9,2,39.1,16.7,53.7c1.2,0.1,2.5,0.2,3.7,0.3C-198.3,552.3-205.2,531.9-200.6,512.9z"/>
	<path id="XMLID_8256_" class="st0" d="M-182.1,568.5c0.5-0.5,0.5-1.2,0-1.7c-0.2-0.2-0.3-0.3-0.5-0.5c-1.3-0.1-2.5-0.1-3.7-0.3
		c0.8,0.8,1.6,1.7,2.5,2.5c0.1,0.1,0.2,0.1,0.4,0.1c0.3,0,0.5,0.1,0.8,0.1C-182.5,568.7-182.3,568.7-182.1,568.5z"/>
	<path id="XMLID_8255_" class="st0" d="M-181.6,557.6c0-0.1-0.1-0.2,0-0.3c0.4-1,0.7-2,1-3c-4.4-8.2-6.7-17.9-6.6-28
		c-0.8-0.8-1.7-1.6-2.5-2.4C-190.3,536.2-187.4,548-181.6,557.6z"/>
	<path id="XMLID_8254_" class="st0" d="M-172,568.3c-0.2,0-0.3,0-0.5,0.1c0.1,0,0.1,0.1,0.2,0.1C-172.2,568.4-172.1,568.3-172,568.3
		z"/>
	<path id="XMLID_8253_" class="st0" d="M-180.4,558.9c-0.1,0-0.3,0-0.4-0.1c-0.1,0-0.1-0.1-0.2-0.1c1.8,2.7,3.8,5.2,6,7.5
		c1-0.1,2-0.2,3.1-0.3c-2.7-2.5-5-5.4-7-8.6c-0.1,0.3-0.2,0.6-0.3,0.8C-179.4,558.6-179.9,558.9-180.4,558.9z"/>
	<path id="XMLID_8252_" class="st0" d="M-173.2,568c0.2,0.2,0.5,0.3,0.7,0.3c0.2,0,0.3,0,0.5-0.1c0.2-0.1,0.4-0.1,0.6-0.2
		c0.5-0.5,0.5-1.2,0-1.7c-0.2-0.1-0.3-0.3-0.5-0.5c-1,0.1-2.1,0.2-3.1,0.3C-174.4,566.8-173.9,567.5-173.2,568z"/>
	<path id="XMLID_8251_" class="st0" d="M-201.7,511.5c0,0,0.1,0,0.1,0c0.6,0.1,0.9,0.6,0.9,1.2c3.6,4,7.4,7.8,11,11.2
		c0-0.2,0-0.4,0-0.5c0-0.6,0.6-1.2,1.3-1.1c0.7,0,1.2,0.6,1.2,1.2c-0.1,0.9,0,1.9,0,2.8c1.5,1.5,3.1,2.9,4.5,4.2
		c1.7,1.6,3.2,3,4.6,4.4c0-0.2,0-0.3,0-0.4c0-0.6,0.5-1.2,1.2-1.2c0.5,0,1,0.4,1.2,0.9c0-0.2-0.1-0.4-0.2-0.6c-1.5-1.4-3.2-3-5-4.7
		c-13.4-12.7-35.9-33.8-38.2-53.9c-0.1-0.5-0.5-0.8-1-0.9c0,2.7,0,5.4,0,8.1C-217,492.4-209.8,502.5-201.7,511.5z"/>
	<path id="XMLID_8250_" class="st0" d="M-221.7,475.3c0.3,2.3,0.8,4.6,1.5,6.9c0-2.7,0-5.4,0-8.1c-0.1,0-0.3-0.1-0.4-0.1
		C-221.2,474-221.7,474.6-221.7,475.3z"/>
	<path id="XMLID_8249_" class="st0" d="M-201.6,511.5c0,0-0.1,0-0.1,0c0.3,0.4,0.7,0.8,1,1.2C-200.7,512.1-201,511.6-201.6,511.5z"
		/>
	<path id="XMLID_8248_" class="st0" d="M-187.2,523.5c0-0.7-0.5-1.2-1.2-1.2c-0.7-0.1-1.3,0.5-1.3,1.1c0,0.2,0,0.4,0,0.5
		c0.8,0.8,1.7,1.6,2.5,2.4C-187.2,525.4-187.2,524.5-187.2,523.5z"/>
	<path id="XMLID_8247_" class="st0" d="M-217.4,388.5c0-0.3,0.1-0.6,0.1-0.9c0,0,0,0,0,0C-217.4,387.9-217.5,388.2-217.4,388.5z"/>
	<path id="XMLID_8246_" class="st0" d="M-179.9,285.1c0-0.6,0.5-1.2,1.3-1.1c0.7,0,1.2,0.6,1.2,1.2c0,0,0,0.1,0,0.1
		c7.2-22.4,14.7-43,22.6-55.4c-0.3-0.1-0.5-0.2-0.8-0.3c-0.2,0-0.4,0-0.6,0c-0.1,0-0.2,0.1-0.3,0.1c0,0-0.1,0-0.1,0c0,0,0,0-0.1,0.1
		c-0.4,0.1-0.7,0.2-1.1,0.3c-10.4,16.9-19.5,46.3-29.1,77.3c-8.5,27.5-17.3,55.7-26.9,74.1c-0.3,2.3-0.7,4.5-1,6.8
		c11-18.1,20.8-49.7,30.3-80.3c1.5-4.8,3-9.7,4.5-14.5C-180,290.7-180,287.9-179.9,285.1z"/>
	<path id="XMLID_8245_" class="st0" d="M-155.8,229.4c-0.1,0-0.3,0.1-0.4,0.1c0.2,0,0.4,0,0.6,0
		C-155.6,229.5-155.7,229.5-155.8,229.4C-155.8,229.5-155.8,229.4-155.8,229.4z"/>
	<path id="XMLID_8244_" class="st0" d="M-217.3,387.6c0,0.3-0.1,0.6-0.1,0.9c0.1,0.3,0.3,0.5,0.6,0.7c0.2,0.1,0.4,0.2,0.6,0.2
		c0.4,0,0.9-0.2,1.1-0.6c0.1-0.2,0.2-0.3,0.3-0.5c0.3-2.3,0.6-4.5,1-6.8C-215,383.6-216.1,385.7-217.3,387.6z"/>
	<path id="XMLID_8243_" class="st0" d="M-157.5,229.7c-0.1,0.1-0.2,0.3-0.3,0.4c0.4-0.1,0.7-0.2,1.1-0.3c0,0,0,0,0.1-0.1
		C-156.9,229.8-157.3,229.8-157.5,229.7z"/>
	<polygon id="XMLID_8242_" class="st0" points="-51.6,407.4 -51.6,407.4 -51.6,407.4 	"/>
	<path id="XMLID_8241_" class="st0" d="M-51.2,407.3c0.2-0.1,0.4-0.1,0.5-0.3c0,0-0.1,0.1-0.2,0.1C-51,407.2-51.1,407.2-51.2,407.3z
		"/>
	<path id="XMLID_8240_" class="st0" d="M-50.5,406.7c0-0.1,0.1-0.1,0.2-0.2c0-0.1,0-0.1,0-0.2c0,0,0,0,0,0.1
		C-50.5,406.5-50.5,406.6-50.5,406.7z"/>
	<path id="XMLID_8239_" class="st0" d="M-52.4,407.1c-0.1-0.1-0.1-0.1-0.1-0.2c-0.1-0.2-0.3-0.3-0.3-0.5c0,0,0,0,0,0
		c-0.1-0.6-0.3-1.1-0.4-1.7c-8.4-1.9-16.8-2.3-25-2.7c-8.4-0.4-17-0.8-25.5-2.8c-9.5-2.2-18.7-7.1-28.9-15.5
		c-31.6-25.9-46.3-58.1-44.7-98.4c-0.9,2.7-1.7,5.5-2.6,8.2c0.6,37.2,15.6,67.4,45.6,91.9c10.5,8.6,20,13.7,29.9,16
		c8.7,2,17.5,2.5,25.9,2.9c8.7,0.4,17.7,0.9,26.5,3.1c0.1,0,0.2,0,0.3,0C-51.9,407.4-52.2,407.3-52.4,407.1z"/>
	<path id="XMLID_8238_" class="st0" d="M-177.3,285.1c0-0.7-0.5-1.2-1.2-1.2c-0.8,0-1.3,0.5-1.3,1.1c-0.1,2.9-0.1,5.7-0.1,8.4
		c0.9-2.8,1.7-5.5,2.6-8.2C-177.3,285.2-177.3,285.2-177.3,285.1z"/>
	<path id="XMLID_8237_" class="st0" d="M-119.8,303.2C-119.8,303.2-119.8,303.2-119.8,303.2c-0.1,0.1,0,0.3,0,0.5
		C-119.9,303.5-119.9,303.3-119.8,303.2z"/>
	<path id="XMLID_8236_" class="st0" d="M-116.3,312.4C-116.4,312.4-116.4,312.3-116.3,312.4c-1.4-2.9-2.7-5.6-3.6-8.4c0,0,0,0,0,0
		c9.1,26.7,20.5,59.8,48,81.3c1.2,0.9,2.3,1.8,3.5,2.7c6.6,4.9,13.3,10,15.1,16.7c0,0,0.1,0,0.1,0c-0.6-3-1.5-6.2-2.8-9.3
		c-3.1-3.3-7-6.3-10.8-9.2c-1.2-0.9-2.4-1.8-3.5-2.7c-20.9-16.3-32.4-39.7-40.7-61.7C-113,318.7-114.8,315.5-116.3,312.4
		C-116.3,312.4-116.3,312.4-116.3,312.4z"/>
	<path id="XMLID_8235_" class="st0" d="M-50.7,407c0,0,0.1,0,0.1-0.1C-50.6,407-50.7,407-50.7,407L-50.7,407z"/>
	<path id="XMLID_8234_" class="st0" d="M-50.4,406.3c0-0.1,0.1-0.1,0.1-0.2l0,0C-50.3,406.1-50.4,406.2-50.4,406.3L-50.4,406.3z"/>
	<path id="XMLID_8233_" class="st0" d="M-50.9,407.1c0,0,0.1,0,0.2-0.1l0,0C-50.8,407-50.8,407-50.9,407.1z"/>
	<path id="XMLID_8232_" class="st0" d="M-50.4,406.4C-50.4,406.3-50.4,406.3-50.4,406.4L-50.4,406.4
		C-50.4,406.3-50.4,406.3-50.4,406.4z"/>
	<path id="XMLID_8231_" class="st0" d="M-52.9,406.3c-0.1-0.5-0.2-1.1-0.3-1.7c0,0-0.1,0-0.1,0C-53.1,405.2-52.9,405.8-52.9,406.3z"
		/>
	<path id="XMLID_8230_" class="st0" d="M-52.4,407.1c-0.1-0.1-0.1-0.1-0.1-0.2C-52.5,407-52.5,407-52.4,407.1z"/>
	<path id="XMLID_8229_" class="st0" d="M-2.8,405.7C-20,401.9-34.7,391-46.5,382c-12.9-9.7-53-41.6-67.5-70.7c0,0.1,0.1,0.2,0.1,0.2
		c0.2,0.4,0,0.8-0.3,1.1c1.1,3,2.2,6,3.3,9.1c7.1,10.9,16.9,21.7,26.9,31.4c0-0.3,0.2-0.6,0.4-0.7c0.5-0.4,1.3-0.4,1.8,0.1
		c2.9,3.2,6.3,7.2,9.9,11.8c9.3,8.2,17.9,15,23.8,19.5c12.8,9.7,28.6,21.6,47.8,24.9c0-0.2,0-0.3,0-0.5
		C-1.2,407.4-2,406.6-2.8,405.7z"/>
	<path id="XMLID_8228_" class="st0" d="M-119.9,304C-119.9,304-119.9,304-119.9,304c0-0.1,0-0.2,0-0.4
		C-119.9,303.8-120,303.9-119.9,304z"/>
	<path id="XMLID_8227_" class="st0" d="M-119.9,304c0.9,2.7,2.2,5.5,3.5,8.3c-1.2-2.9-2.3-6-3.5-9.1c-0.1,0.1,0,0.3,0,0.5
		C-119.9,303.8-120,303.9-119.9,304z"/>
	<path id="XMLID_8226_" class="st0" d="M-115.2,313.2c-0.5,0-1-0.3-1.2-0.7c1.6,3.1,3.3,6.2,5.4,9.4c-1.2-3.1-2.3-6.1-3.3-9.1
		c-0.1,0.1-0.2,0.3-0.4,0.4C-114.9,313.1-115,313.2-115.2,313.2z"/>
	<path id="XMLID_8225_" class="st0" d="M-50.6,406.9c0-0.1,0-0.1,0.1-0.2l0,0C-50.6,406.8-50.6,406.9-50.6,406.9z"/>
	<path id="XMLID_8224_" class="st0" d="M-51.4,407.4c-0.1,0-0.1,0-0.2,0l0,0C-51.5,407.4-51.5,407.4-51.4,407.4
		c0.1,0,0.1-0.1,0.2-0.1l0,0C-51.3,407.3-51.4,407.4-51.4,407.4z"/>
	<polygon id="XMLID_8223_" class="st0" points="-51.6,407.4 -51.6,407.4 -51.6,407.4 	"/>
	<path id="XMLID_8222_" class="st0" d="M-84.1,353.2c0,0.3,0,0.6,0.3,0.9c8.4,9.4,21.6,25.6,27.8,41.3c2.9,3.1,5,6.6,5.6,10.7
		c0,0,0,0,0,0c-2-13.9-12.2-29.6-21.6-41.7C-75.9,360.9-80,357.1-84.1,353.2z"/>
	<polygon id="XMLID_8221_" class="st0" points="-51.6,407.4 -51.6,407.4 -51.6,407.4 	"/>
	<rect id="XMLID_8220_" x="-51.6" y="407.4" class="st0" width="0" height="0"/>
	<path id="XMLID_8219_" class="st0" d="M-52.9,406.3C-52.9,406.3-52.9,406.4-52.9,406.3c0,0.2,0.2,0.4,0.3,0.5
		C-52.7,406.7-52.8,406.6-52.9,406.3C-52.9,406.4-52.9,406.3-52.9,406.3z"/>
	<path id="XMLID_8218_" class="st0" d="M-52.4,407.1c0.2,0.2,0.5,0.3,0.8,0.3l0,0C-51.9,407.4-52.2,407.3-52.4,407.1z"/>
	<path id="XMLID_8217_" class="st0" d="M-50.5,406.7L-50.5,406.7c0.1-0.1,0.1-0.2,0.1-0.4C-50.5,406.5-50.5,406.6-50.5,406.7z"/>
	<path id="XMLID_8216_" class="st0" d="M-51.3,407.3L-51.3,407.3c0.1,0,0.3-0.1,0.4-0.2C-51,407.2-51.1,407.2-51.3,407.3z"/>
	<path id="XMLID_8215_" class="st0" d="M-53.2,404.7c0.6,0.1,1.3,0.2,1.9,0.4c0.6,0.1,0.9,0.7,0.9,1.2c0-0.1,0.1-0.1,0.1-0.2
		c-0.6-4.1-2.7-7.6-5.6-10.7C-54.7,398.5-53.8,401.6-53.2,404.7z"/>
	<path id="XMLID_8214_" class="st0" d="M-50.7,407c0,0,0.1,0,0.1-0.1c0-0.1,0-0.1,0.1-0.2C-50.6,406.8-50.7,406.9-50.7,407z"/>
	<path id="XMLID_8213_" class="st0" d="M-51.4,407.4c0.1,0,0.1-0.1,0.2-0.1c-0.1,0-0.2,0.1-0.3,0.1
		C-51.5,407.4-51.5,407.4-51.4,407.4z"/>
	<polygon id="XMLID_8212_" class="st0" points="-51.6,407.4 -51.6,407.4 -51.6,407.4 	"/>
	<path id="XMLID_8211_" class="st0" d="M-52.9,406.4c0,0.2,0.2,0.4,0.3,0.5c0.1,0.1,0.1,0.2,0.1,0.2c0.2,0.2,0.5,0.3,0.8,0.3l0,0
		l0,0c0.1,0,0.2-0.1,0.3-0.1c0.1,0,0.2-0.1,0.4-0.2c0.1,0,0.1,0,0.2-0.1c0.1-0.1,0.1-0.2,0.2-0.3c0.1-0.1,0.1-0.2,0.1-0.4
		c0,0,0,0,0-0.1c0-0.5-0.3-1.1-0.9-1.2c-0.6-0.2-1.3-0.2-1.9-0.4C-53.1,405.2-52.9,405.8-52.9,406.4
		C-52.9,406.3-52.9,406.4-52.9,406.4z"/>
	<path id="XMLID_8210_" class="st0" d="M-83.6,352.4c-0.3,0.2-0.4,0.5-0.4,0.7c4,3.9,8.1,7.7,12.1,11.2c-3.5-4.5-7-8.5-9.9-11.8
		C-82.3,352.1-83.1,352-83.6,352.4z"/>
	<path id="XMLID_8209_" class="st0" d="M24.5,357.5l-0.3-0.9c0,0,0,0,0,0c0.1,0.3,0.2,0.5,0.3,0.8C24.5,357.4,24.5,357.4,24.5,357.5
		z"/>
	<path id="XMLID_8208_" class="st0" d="M-155.3,227.2c1.8,0,3.6,0.1,5.3,0.1c0.2-0.1,0.4-0.1,0.6-0.2c-0.2-0.2-0.3-0.4-0.3-0.7
		c0-0.7,0.6-1.1,1.3-1.2c1.6,0,3.2,0.1,4.8,0.1c31.2-8.3,67.5-5.1,99.7,9c32,14,59.8,38.3,80.4,70.3c20.4,31.5,31.4,66.7,38.8,93.8
		c4.8,17.8,9.1,36,12.5,54c3.5,18.3,6.5,37.7,0.5,55.9c-4.8,14.7-17.8,30.5-36.8,35.6c-2.2,1.2-4.5,2.2-6.9,3
		c-0.1,0.1-0.3,0.1-0.4,0.1c-0.4,0-0.7-0.2-0.9-0.4c0,0.1,0,0.2,0,0.2c0.2,0.5,0.7,0.8,1.2,0.8c0.1,0,0.1,0,0.2,0
		c1.4-0.2,2.8-0.4,4.2-0.7c0.3-0.5,0.6-1,0.8-1.5c0.3-0.6,1-0.9,1.7-0.6c0.6,0.2,0.8,0.8,0.6,1.3c20-5.3,33.7-21.8,38.8-37.2
		c6.1-18.8,3.2-38.4-0.4-57c-3.5-18.1-7.7-36.3-12.6-54.2c-7.4-27.3-18.5-62.7-39.1-94.4c-20.9-32.3-49.1-56.9-81.5-71.2
		c-37.2-16.3-79.7-18.2-113.9-5.2C-156.2,227.2-155.7,227.2-155.3,227.2C-155.3,227.2-155.3,227.2-155.3,227.2z"/>
	<path id="XMLID_8207_" class="st0" d="M25.1,358.9c0.1,0.3,0,0.7-0.1,1c0,0.2,0.1,0.5,0.1,0.7c0.2,1.1,0.8,2.7,1.2,3.9
		c1.5,4.7,1.8,5.9,1,6.7c0,0-0.1,0-0.1,0.1c16.7,44.3,34.4,93.7,32.2,141.6c-0.3,5.6-0.9,12.2-3.6,18.3c-2.1,4.7-4.3,9.2-8.2,12.2
		c2.2-1,4.4-2.2,6.4-3.6c1.6-2.4,3-5.1,4.1-7.8c2.8-6.4,3.5-13.3,3.8-19.1c2.3-51-17.6-103.6-35.2-150l-2-5.3c0,0,0,0.1,0,0.1
		C24.8,358.2,24.9,358.5,25.1,358.9z"/>
	<path id="XMLID_8206_" class="st0" d="M-157.4,227.5c0.4-0.1,0.8,0,1.1,0.3c0,0,0,0,0,0c0.1-0.1,0.2-0.1,0.3-0.2
		c0.1-0.1,0.2-0.1,0.3-0.2c0.1,0,0.2,0,0.2,0c0.1,0,0.1-0.1,0.1-0.1c-0.5,0-0.9,0-1.4,0c-0.3,0.1-0.6,0.2-0.8,0.3
		C-157.4,227.5-157.4,227.5-157.4,227.5z"/>
	<path id="XMLID_8205_" class="st0" d="M-157.7,229.5c0,0,0.1,0.1,0.1,0.1c0,0,0-0.1,0.1-0.1C-157.5,229.5-157.6,229.5-157.7,229.5z
		"/>
	<path id="XMLID_8204_" class="st0" d="M-158.2,229.1c0.1,0.2,0.3,0.4,0.5,0.5c0.1,0,0.1,0,0.2,0c0.4-0.6,0.7-1.2,1.1-1.8
		c0,0,0.1,0,0.1-0.1c-0.3-0.2-0.7-0.4-1.1-0.3c0,0-0.1,0-0.1,0c0,0,0,0,0,0C-158.2,227.8-158.5,228.5-158.2,229.1z"/>
	<path id="XMLID_8203_" class="st0" d="M-156.6,229.7C-156.6,229.7-156.6,229.7-156.6,229.7c0.2,0,0.3-0.1,0.4-0.1
		c-0.1,0-0.2,0-0.3,0C-156.5,229.6-156.6,229.7-156.6,229.7z"/>
	<path id="XMLID_8202_" class="st0" d="M-156.2,227.7C-156.3,227.7-156.3,227.7-156.2,227.7C-156.3,227.7-156.3,227.7-156.2,227.7
		C-156.3,227.7-156.3,227.7-156.2,227.7z"/>
	<path id="XMLID_8201_" class="st0" d="M-155.9,229.3c0,0-0.1,0-0.1,0c-0.1,0.1-0.2,0.2-0.4,0.3c0.1,0,0.2,0,0.3,0
		c0.1,0,0.3-0.1,0.4-0.1C-155.9,229.4-155.9,229.4-155.9,229.3z"/>
	<path id="XMLID_8200_" class="st0" d="M-155.4,227.3c-0.1,0-0.2,0-0.2,0c0,0,0.1,0,0.1,0C-155.5,227.3-155.5,227.3-155.4,227.3z"/>
	<path id="XMLID_8199_" class="st0" d="M-157.5,229.5c0,0,0,0.1-0.1,0.1c0.3,0.1,0.6,0.1,0.9,0c0.1,0,0.1-0.1,0.2-0.1
		C-156.8,229.5-157.1,229.6-157.5,229.5z"/>
	<path id="XMLID_8198_" class="st0" d="M-157.5,229.5c0.3,0,0.7,0,1,0c0.1-0.1,0.3-0.2,0.4-0.3c-0.1-0.1-0.1-0.2-0.2-0.3
		c-0.1-0.1-0.1-0.2-0.2-0.4c0-0.1-0.1-0.1-0.1-0.2c0-0.1,0.1-0.1,0.1-0.2c0-0.1,0-0.1,0-0.2c0-0.1,0.1-0.1,0.2-0.2c0,0,0,0,0-0.1
		c0,0,0,0,0,0c0,0-0.1,0-0.1,0.1C-156.7,228.3-157.1,229-157.5,229.5z"/>
	<path id="XMLID_8197_" class="st0" d="M69.7,527.1c4.9-7.8,7.9-17,9.1-28.2c2.3-21.6-2.9-44.1-14.6-63.3c-0.3-0.6-1.1-0.8-1.7-0.4
		c-0.6,0.3-0.8,1-0.5,1.6c11.5,18.8,16.6,40.8,14.3,61.9c-1.2,10.8-4,19.7-8.8,27.2c-3.5,5.6-8.2,10.4-13.6,13.9
		c-1.1,1.7-2.3,3.2-3.9,4.6c0.5-0.1,1-0.3,1.5-0.4C58.9,540.2,65.2,534.3,69.7,527.1z"/>
	<path id="XMLID_8196_" class="st0" d="M47.5,543.5c-1.2,0.5-2.4,1-3.6,1.4c-0.7,0.2-1,0.9-0.7,1.5c0.1,0.1,0.2,0.2,0.3,0.3
		c0-0.5,0.2-0.9,0.6-1.2C45.4,545,46.5,544.3,47.5,543.5z"/>
	<path id="XMLID_8195_" class="st0" d="M54,539.9c-2,1.4-4.2,2.6-6.4,3.6c-1,0.8-2.2,1.5-3.5,2.1c-0.5,0.2-0.7,0.7-0.6,1.2
		c0.2,0.3,0.5,0.4,0.9,0.4c0.1,0,0.3,0,0.4-0.1c2.4-0.8,4.7-1.8,6.9-3c-0.5,0.1-1,0.3-1.5,0.4C51.6,543.1,52.8,541.6,54,539.9z"/>
	<path id="XMLID_8194_" class="st0" d="M-151.7,228.4c0.1,0.1,0.1,0.2,0.2,0.3c0.9,0.4,1.8,0.7,2.6,1.1
		c61.8,2.9,95.1,46.9,111.4,68.4c18.1,24,35.8,75.5,37,106.4c0.8,0.8,1.5,1.6,2.3,2.3c0,0,0,0.1,0,0.1c0.1,0.1,0.1,0.2,0.2,0.4
		c0,0.1,0.1,0.2,0.2,0.3c0,0,0,0,0,0c0-30.9-18.6-85.8-37.6-110.9c-14.7-19.5-47.9-63.3-107.1-69c-2-0.1-3.9-0.1-5.9-0.2
		c-0.3,0-0.5-0.1-0.8-0.3c-0.3,0-0.6,0-0.8,0c-0.8,0.2-1.5,0.5-2.2,0.8C-152,228.2-151.8,228.2-151.7,228.4z"/>
	<path id="XMLID_8193_" class="st0" d="M2,407.4c0-0.1-0.1-0.3-0.2-0.4C1.9,407.1,2,407.2,2,407.4C2,407.4,2,407.4,2,407.4z"/>
	<path id="XMLID_8192_" class="st0" d="M-155,227.3c0.1,0,0.1,0,0.2,0c0.6,0.2,1.3,0.5,1.9,0.8c0.3-0.1,0.5,0,0.7,0.1
		c0.8-0.3,1.5-0.5,2.2-0.8c-1.8-0.1-3.5-0.1-5.3-0.1c0,0,0,0,0,0c0,0,0,0,0.1,0C-155.2,227.2-155.1,227.3-155,227.3z"/>
	<path id="XMLID_8191_" class="st0" d="M-155,227.3c-0.1,0-0.1-0.1-0.2-0.1c0,0,0,0-0.1,0c-0.1,0-0.1,0-0.1,0.1c0.1,0,0.1,0,0.2,0
		C-155.1,227.3-155.1,227.3-155,227.3z"/>
	<path id="XMLID_8190_" class="st0" d="M-156,227.5c-0.1,0.1-0.2,0.1-0.3,0.2C-156.2,227.6-156.1,227.6-156,227.5
		C-156,227.5-156,227.5-156,227.5z"/>
	<path id="XMLID_8189_" class="st0" d="M-156,229.2C-156,229.3-156.1,229.3-156,229.2C-156,229.3-156,229.3-156,229.2
		C-156,229.3-156,229.3-156,229.2z"/>
	<path id="XMLID_8188_" class="st0" d="M-156.2,227.8c0.1-0.1,0.1-0.1,0.2-0.2C-156.1,227.6-156.2,227.6-156.2,227.8
		C-156.3,227.7-156.3,227.7-156.2,227.8C-156.3,227.7-156.3,227.7-156.2,227.8z"/>
	<path id="XMLID_8187_" class="st0" d="M-155.2,227.3c-0.1,0-0.1,0-0.2,0c0,0-0.1,0-0.1,0C-155.4,227.3-155.3,227.3-155.2,227.3z"/>
	<path id="XMLID_8186_" class="st0" d="M-156.3,229c0.1,0.1,0.1,0.2,0.2,0.3c0,0,0,0,0,0C-156.1,229.2-156.2,229.1-156.3,229z"/>
	<path id="XMLID_8185_" class="st0" d="M-156.6,228.4c0,0.1,0.1,0.1,0.1,0.2c0-0.1,0-0.3,0-0.4
		C-156.5,228.3-156.6,228.3-156.6,228.4z"/>
	<path id="XMLID_8184_" class="st0" d="M-156.3,227.7C-156.3,227.8-156.3,227.8-156.3,227.7C-156.3,227.8-156.3,227.8-156.3,227.7
		C-156.3,227.7-156.3,227.7-156.3,227.7z"/>
	<path id="XMLID_8183_" class="st0" d="M-0.5,404.6c-13.6-13.7-26.3-27.3-33.7-41.1c-0.6-1.1-1.4-2.6-2.3-4.3
		c-36.2-69.3-74-112.8-112.4-129.4c-0.6,0-1.2,0-1.9-0.1c0.7,0.9,1.4,1.8,2.1,2.7c37.4,16.8,74.4,59.8,109.9,127.8
		c0.9,1.8,1.7,3.2,2.3,4.3c7.5,14,20.1,27.5,33.7,41.2c0.8,0.2,1.6,0.4,2.4,0.5C-0.4,405.7-0.5,405.2-0.5,404.6z"/>
	<path id="XMLID_8182_" class="st0" d="M-153.7,229.9c-0.1-0.1,0-0.2-0.1-0.2c-0.3,0-0.5,0-0.8,0c-0.1,0.1-0.1,0.2-0.2,0.3
		c0.5,0.2,1.1,0.4,1.6,0.7C-153.3,230.3-153.5,230.1-153.7,229.9z"/>
	<path id="XMLID_8181_" class="st0" d="M-155.3,229.6C-155.3,229.6-155.3,229.6-155.3,229.6C-155.3,229.6-155.3,229.6-155.3,229.6
		c-0.1,0-0.2,0-0.3,0c0.3,0.1,0.5,0.2,0.8,0.3c0.1-0.1,0.1-0.2,0.2-0.3C-154.8,229.6-155,229.6-155.3,229.6z"/>
	<path id="XMLID_8180_" class="st0" d="M-155.3,229.6c-0.2,0-0.3-0.1-0.4-0.2c0,0-0.1,0-0.1,0c0,0,0,0.1,0.1,0.1
		c0.1,0,0.1,0.1,0.2,0.1C-155.5,229.6-155.4,229.6-155.3,229.6C-155.3,229.6-155.3,229.6-155.3,229.6z"/>
	<path id="XMLID_8179_" class="st0" d="M-0.3,407.8C-0.3,407.8-0.4,407.8-0.3,407.8c0-0.5-0.1-1-0.1-1.5c-0.8-0.1-1.6-0.3-2.4-0.5
		c0.8,0.8,1.6,1.7,2.5,2.5C-0.3,408.1-0.4,408-0.3,407.8C-0.4,407.8-0.3,407.8-0.3,407.8z"/>
	<path id="XMLID_8178_" class="st0" d="M-155.7,227.3c-0.1,0-0.2,0.1-0.3,0.2c0,0,0.1,0,0.1,0C-155.8,227.4-155.7,227.3-155.7,227.3
		z"/>
	<path id="XMLID_8177_" class="st0" d="M-155.8,229.4C-155.8,229.4-155.8,229.4-155.8,229.4c0-0.1-0.1-0.1-0.1-0.1
		C-155.9,229.4-155.9,229.4-155.8,229.4z"/>
	<path id="XMLID_8176_" class="st0" d="M-155.5,227.3c0,0-0.1,0-0.1,0c-0.1,0-0.1,0.1-0.2,0.1C-155.8,227.4-155.7,227.3-155.5,227.3
		z"/>
	<path id="XMLID_8175_" class="st0" d="M-156.5,228c0,0.1,0,0.1,0,0.2c0-0.1,0.1-0.3,0.2-0.4C-156.3,227.9-156.4,227.9-156.5,228z"
		/>
	<path id="XMLID_8174_" class="st0" d="M-156.3,229c-0.1-0.1-0.1-0.3-0.2-0.4C-156.4,228.8-156.4,228.9-156.3,229z"/>
	<path id="XMLID_8173_" class="st0" d="M1.1,406.6c0.1,0,0.2,0.1,0.3,0.2c0.2,0.1,0.3,0.1,0.4,0.2c0,0,0,0,0.1,0c0,0,0-0.1,0-0.1
		c-0.8-0.8-1.5-1.6-2.3-2.3c0,0.5,0,1.1,0.1,1.6C0.1,406.3,0.6,406.5,1.1,406.6z"/>
	<path id="XMLID_8172_" class="st0" d="M-148.9,229.7c-0.9-0.4-1.8-0.7-2.6-1.1c0.3,0.3,0.5,0.7,0.8,1
		C-150.1,229.7-149.5,229.7-148.9,229.7z"/>
	<path id="XMLID_8171_" class="st0" d="M-153.8,228.7c-0.1,0.1-0.3,0.1-0.4,0.2c0,0.1,0,0.1,0,0.2c-0.1,0.2-0.2,0.4-0.4,0.6
		c0.3,0,0.5,0,0.8,0C-153.9,229.3-153.9,229-153.8,228.7z"/>
	<path id="XMLID_8170_" class="st0" d="M-154.2,228.8C-154.2,228.8-154.2,228.8-154.2,228.8c-0.2,0.4-0.6,0.8-1.1,0.7c0,0,0,0,0,0
		c0.2,0,0.5,0,0.7,0c0.1-0.2,0.2-0.4,0.4-0.6C-154.2,229-154.2,228.9-154.2,228.8z"/>
	<path id="XMLID_8169_" class="st0" d="M-154.2,228.8c-0.5,0.2-1,0.4-1.5,0.6c0.1,0.1,0.3,0.2,0.4,0.2
		C-154.7,229.6-154.4,229.3-154.2,228.8z"/>
	<path id="XMLID_8168_" class="st0" d="M2,407.3c0-0.1,0-0.2-0.1-0.3c0,0,0,0-0.1,0C1.9,407.1,1.9,407.2,2,407.3z"/>
	<path id="XMLID_8167_" class="st0" d="M-0.4,406.3c0,0.5,0.1,1,0.1,1.5c0,0,0,0,0,0c0-0.6,0.5-1.2,1.2-1.2c0.2,0,0.4,0.1,0.5,0.2
		c-0.1,0-0.2-0.1-0.3-0.2C0.6,406.5,0.1,406.3-0.4,406.3z"/>
	<path id="XMLID_8166_" class="st0" d="M-154.6,227.4c0.1,0,0.1,0.1,0.1,0.1c0.1,0.1,0.2,0.2,0.3,0.3c0.1,0.1,0.1,0.3,0.2,0.4
		c0,0.1,0.1,0.1,0.1,0.2c0,0.1-0.1,0.2-0.1,0.3c0,0,0,0.1,0,0.1c0.1-0.1,0.3-0.1,0.4-0.2c0.1-0.2,0.1-0.4,0.3-0.5
		c0.2-0.1,0.3-0.1,0.5-0.1c-0.6-0.2-1.3-0.5-1.9-0.8c-0.1,0-0.1,0-0.2,0c0,0,0.1,0,0.1,0C-154.8,227.4-154.7,227.3-154.6,227.4z"/>
	<path id="XMLID_8165_" class="st0" d="M-155,227.3c-0.1,0-0.1,0-0.2,0C-155.1,227.3-155,227.3-155,227.3
		C-155,227.3-155,227.3-155,227.3z"/>
	<path id="XMLID_8164_" class="st0" d="M-155.9,227.4c0,0-0.1,0-0.1,0c0,0-0.1,0.1-0.1,0.1C-156,227.5-155.9,227.5-155.9,227.4z"/>
	<path id="XMLID_8163_" class="st0" d="M-154.1,228.3c0,0.2,0,0.3-0.1,0.5c0-0.1,0.1-0.2,0.1-0.3
		C-154,228.4-154.1,228.4-154.1,228.3z"/>
	<path id="XMLID_8162_" class="st0" d="M-154.5,227.5c0.1,0.1,0.2,0.2,0.3,0.3C-154.3,227.7-154.4,227.6-154.5,227.5z"/>
	<path id="XMLID_8161_" class="st0" d="M-154.2,227.9c0.1,0.1,0.1,0.3,0.2,0.4C-154.1,228.1-154.2,228-154.2,227.9z"/>
	<path id="XMLID_8160_" class="st0" d="M-154.9,227.3c0.2,0,0.3,0.1,0.4,0.2c0,0-0.1-0.1-0.1-0.1
		C-154.7,227.3-154.8,227.4-154.9,227.3z"/>
	<path id="XMLID_8159_" class="st0" d="M-154.2,228.8C-154.2,228.8-154.2,228.8-154.2,228.8C-154.2,228.8-154.2,228.8-154.2,228.8
		C-154.2,228.8-154.2,228.8-154.2,228.8z"/>
	<path id="XMLID_8158_" class="st0" d="M-156,229.2C-156,229.3-156,229.3-156,229.2c0.1,0.1,0.2,0.1,0.3,0.1c0.5-0.2,1-0.4,1.5-0.6
		c0,0,0-0.1,0-0.1c0.1-0.2,0.1-0.3,0.1-0.5c0-0.2-0.1-0.3-0.2-0.4c-0.1-0.1-0.1-0.3-0.3-0.3c-0.1-0.1-0.3-0.1-0.4-0.2
		c-0.1,0-0.2,0-0.3,0c-0.1,0-0.2,0-0.3,0c-0.1,0-0.2,0.1-0.3,0.1c-0.1,0-0.1,0.1-0.2,0.1c-0.1,0.1-0.1,0.1-0.2,0.2
		c0.2,0.1,0.4,0.3,0.4,0.5C-155.7,228.6-155.8,229-156,229.2z"/>
	<path id="XMLID_8157_" class="st0" d="M-155.8,228.3c-0.1-0.2-0.3-0.4-0.4-0.5c0,0,0,0,0,0c-0.1,0.1-0.1,0.3-0.2,0.4
		c0,0.1,0,0.3,0,0.4c0,0.1,0.1,0.3,0.2,0.4c0.1,0.1,0.2,0.2,0.3,0.2C-155.8,229-155.7,228.6-155.8,228.3z"/>
	<path id="XMLID_8156_" class="st0" d="M27.9,558.7c8.1-11,10.5-24.4,12.6-36.2c6.8-38.3-7.3-116.7-13.4-150.1
		c-0.1-0.4-0.1-0.7-0.2-1.1c-0.3,0.2-0.6,0.3-0.9,0.3c-0.1,0-0.1,0-0.2,0c-0.7-0.1-1.2-0.7-1-1.4c0-0.2,0.1-0.3,0.2-0.5
		c-0.1-0.9-0.8-3.1-1.3-4.6c-0.6-1.9-1-3.2-1.2-4.1c0.5,2.8,1.2,6.8,2.1,11.8c6,33.3,20.1,111.4,13.4,149.3
		c-2.1,11.6-4.4,24.6-12.2,35.2c-8.3,11.2-22,20.5-38.7,26.3c-1.2,0.4-2.5,0.7-3.8,1c3.5-0.1,6.9-0.4,10.3-1
		C8.3,577.8,20.3,569,27.9,558.7z"/>
	<path id="XMLID_8155_" class="st0" d="M-20.8,587.2c-0.7,0-1.3-0.5-1.2-1.2c0-0.1,0.1-0.2,0.1-0.2c-13,1.6-26.9-1.9-36.2-7.3
		c-0.3,0.2-0.6,0.3-0.9,0.5c-0.2,0.1-0.5,0.2-0.7,0.2c-0.4,0-0.8-0.2-1.1-0.5c-0.2-0.2-0.2-0.5-0.2-0.8c-0.1,0.1-0.2,0.1-0.3,0.2
		c-0.4,0.5-0.2,1.3,0.3,1.6c8,5,20.1,9,32.6,9c4.3,0,8.6-0.5,12.8-1.5c-1.2,0.1-2.4,0.1-3.7,0.1C-19.8,587.2-20.3,587.2-20.8,587.2z
		"/>
	<path id="XMLID_8154_" class="st0" d="M22.5,359.1c-0.1-0.3-0.2-0.5-0.3-0.8c0.1,0.6,0.2,1.3,0.3,2.2
		C22.4,359.9,22.3,359.4,22.5,359.1z"/>
	<path id="XMLID_8153_" class="st0" d="M24.6,357.6C24.6,357.5,24.5,357.5,24.6,357.6L24.6,357.6C24.6,357.6,24.6,357.6,24.6,357.6z
		"/>
	<path id="XMLID_8152_" class="st0" d="M24.6,357.7C24.6,357.7,24.6,357.7,24.6,357.7l-0.1-0.3c0,0,0-0.1-0.1-0.1
		C24.5,357.5,24.6,357.6,24.6,357.7z"/>
	<path id="XMLID_8151_" class="st0" d="M24.9,360c0,0.2,0.1,0.4,0.1,0.6C25,360.4,25,360.1,24.9,360C24.9,359.9,24.9,360,24.9,360z"
		/>
	<path id="XMLID_8150_" class="st0" d="M-6.3,583.8c-1.8,0.8-3.7,1.5-5.6,2.2c-1.2,0.4-2.5,0.8-3.7,1.1
		c29.2-1.3,56.5-17.4,67.7-40.4c0-0.1,0-0.2,0-0.2c-1,0.3-2.1,0.5-3.1,0.8C39,566.1,17.6,580.1-6.3,583.8z"/>
	<path id="XMLID_8149_" class="st0" d="M-20.8,584.8c-0.6,0-1,0.4-1.2,0.9c1.8-0.2,3.6-0.5,5.3-1C-18,584.8-19.4,584.8-20.8,584.8
		C-20.8,584.8-20.8,584.8-20.8,584.8z"/>
	<path id="XMLID_8148_" class="st0" d="M51.4,545.1c-0.6-0.3-1.4,0-1.7,0.6c-0.2,0.5-0.5,1-0.8,1.5c1.1-0.2,2.1-0.5,3.1-0.8
		C52.2,545.9,52,545.3,51.4,545.1z"/>
	<path id="XMLID_8147_" class="st0" d="M-6.3,583.8c-3.4,0.5-6.8,0.9-10.3,1c-1.7,0.4-3.5,0.7-5.3,1c0,0.1-0.1,0.1-0.1,0.2
		c0,0.7,0.5,1.2,1.2,1.2c0.5,0,1,0,1.5,0c1.2,0,2.5-0.1,3.7-0.1c1.2-0.3,2.5-0.7,3.7-1.1C-10,585.3-8.2,584.6-6.3,583.8z"/>
	<path id="XMLID_8146_" class="st0" d="M-38.3,565.8c0.7-0.5,1.6-1.1,2.7-1.8c1-0.7,2.3-1.5,2.6-1.8c0.1-0.3,0.3-0.4,0.6-0.5
		c-1.8,1.3-3.8,2.6-5.9,3.8C-38.3,565.6-38.3,565.7-38.3,565.8z"/>
	<path id="XMLID_8145_" class="st0" d="M-59.6,577.7c0.4,0.3,0.9,0.5,1.4,0.8c3.2-1.9,6.8-3.7,10.6-5.5c2.7-1.3,5.3-2.6,7.9-4
		c-0.1-0.1-0.2-0.1-0.2-0.2c-0.1-0.2-0.2-0.3-0.2-0.5c-0.2-0.5-0.3-1.1-0.5-1.6c-2.7,1.4-5.5,2.8-8.2,4.2c-4.2,2-8.1,4-11.7,6.1
		c-0.3,0.2-0.5,0.5-0.5,0.8C-60.6,577.5-60,577.4-59.6,577.7z"/>
	<path id="XMLID_8144_" class="st0" d="M-0.1,467.8c0.7,0.1,1.1,0.7,1,1.4c-1,4.7-2.5,9.3-4.2,13.9c-4.7,32.8-13.3,58.9-22.4,71.9
		c-1.7,2.5-4,4.6-6.7,6.6c0.3-0.1,0.6-0.1,0.9,0c0.6,0.2,0.9,1,0.6,1.6c-0.1,0.1-0.1,0.3-0.3,0.4c3-2.2,5.6-4.6,7.5-7.4
		c12.9-18.5,30.4-73.3,25.7-148.6c0,0,0,0,0,0.1c0,0,0,0,0,0c0,0,0,0.1,0,0.1c0,0,0,0,0,0.1c0,0.2-0.2,0.3-0.3,0.4
		c-0.1,0.1-0.1,0.2-0.1,0.2c0,0,0,0,0,0c0,0,0,0,0,0c-0.2,0.2-0.5,0.3-0.8,0.3l0,0v0l0,0c-0.1,0-0.1,0-0.2,0c-0.3-0.1-0.7-0.2-1-0.2
		c1.3,21,0.7,41.3-1.2,59.9C-1.3,468.1-0.7,467.7-0.1,467.8z"/>
	<path id="XMLID_8143_" class="st0" d="M1.9,408.3c0.1-0.1,0.2-0.2,0.3-0.4c0,0,0,0,0-0.1c0,0.1-0.1,0.2-0.2,0.3
		C1.9,408.2,1.9,408.3,1.9,408.3z"/>
	<path id="XMLID_8142_" class="st0" d="M0.9,408.9c0.3,0,0.6-0.1,0.8-0.3C1.5,408.8,1.2,408.9,0.9,408.9L0.9,408.9z"/>
	<path id="XMLID_8141_" class="st0" d="M0.9,408.9c-0.4,0-0.7-0.1-0.9-0.4c0,0,0,0,0,0c-0.1-0.1-0.2-0.2-0.3-0.3c0,0.2,0,0.3,0,0.5
		c0.3,0.1,0.7,0.2,1,0.2C0.8,408.9,0.8,408.9,0.9,408.9z"/>
	<path id="XMLID_8140_" class="st0" d="M1.8,408.6c0.1-0.1,0.1-0.2,0.1-0.2c0,0,0,0,0,0.1C1.8,408.5,1.8,408.5,1.8,408.6z"/>
	<polygon id="XMLID_8139_" class="st0" points="0.9,408.9 0.9,408.9 0.9,408.9 	"/>
	<path id="XMLID_8138_" class="st0" d="M2,407.4C2,407.4,2,407.4,2,407.4c0,0.2,0.1,0.3,0.1,0.4c0,0,0,0,0,0c0,0,0,0,0-0.1
		c0,0,0,0,0,0C2.2,407.6,2.1,407.5,2,407.4z"/>
	<path id="XMLID_8137_" class="st0" d="M1.9,408.4C1.9,408.4,1.9,408.4,1.9,408.4c0.1-0.1,0.1-0.2,0.1-0.2
		C1.9,408.3,1.9,408.3,1.9,408.4z"/>
	<path id="XMLID_8136_" class="st0" d="M2,407.4C2,407.4,2,407.4,2,407.4C2,407.4,2,407.4,2,407.4C2,407.4,2,407.4,2,407.4z"/>
	<path id="XMLID_8135_" class="st0" d="M0,408.6c0.2,0.2,0.5,0.4,0.9,0.4l0,0C0.6,408.9,0.2,408.8,0,408.6z"/>
	<path id="XMLID_8134_" class="st0" d="M2.1,407.9C2.1,407.8,2.2,407.8,2.1,407.9C2.2,407.8,2.1,407.8,2.1,407.9
		C2.1,407.8,2.1,407.9,2.1,407.9z"/>
	<polygon id="XMLID_8133_" class="st0" points="0.9,408.9 0.9,408.9 0.9,408.9 	"/>
	<path id="XMLID_8132_" class="st0" d="M1.7,408.6C1.7,408.6,1.8,408.6,1.7,408.6C1.8,408.6,1.8,408.6,1.7,408.6
		C1.8,408.6,1.8,408.6,1.7,408.6C1.7,408.6,1.7,408.6,1.7,408.6z"/>
	<path id="XMLID_8131_" class="st0" d="M0.9,408.9L0.9,408.9c0.3,0,0.6-0.1,0.8-0.3c0,0,0,0,0,0C1.5,408.8,1.2,408.9,0.9,408.9z"/>
	<path id="XMLID_8130_" class="st0" d="M-0.4,407.8c0,0.1,0,0.3,0,0.4c0.1,0.1,0.2,0.2,0.3,0.3c0,0,0,0,0,0
		C-0.2,408.4-0.3,408.1-0.4,407.8C-0.3,407.8-0.4,407.8-0.4,407.8z"/>
	<path id="XMLID_8129_" class="st0" d="M2,408.2c0.1-0.1,0.1-0.2,0.2-0.3c0,0,0,0,0,0C2.1,408,2,408.1,2,408.2z"/>
	<path id="XMLID_8128_" class="st0" d="M2.1,407.8C2.1,407.8,2.2,407.8,2.1,407.8c0-0.2-0.1-0.3-0.1-0.4
		C2.1,407.6,2.1,407.7,2.1,407.8z"/>
	<path id="XMLID_8127_" class="st0" d="M1.8,408.6C1.8,408.6,1.8,408.6,1.8,408.6c0.1-0.1,0.1-0.1,0.1-0.2
		C1.8,408.5,1.8,408.5,1.8,408.6z"/>
	<path id="XMLID_8126_" class="st0" d="M1.4,406.7c0.2,0.1,0.3,0.1,0.4,0.2C1.7,406.8,1.5,406.8,1.4,406.7z"/>
	<polygon id="XMLID_8125_" class="st0" points="0.9,408.9 0.9,408.9 0.9,408.9 	"/>
	<path id="XMLID_8124_" class="st0" d="M0.9,408.9c0.3,0,0.6-0.1,0.8-0.3c0.1,0,0.1-0.1,0.1-0.2c0.1-0.1,0.1-0.2,0.1-0.2
		c0.1-0.1,0.1-0.2,0.2-0.4c0-0.1-0.1-0.3-0.1-0.4c0,0,0-0.1,0-0.1c-0.1-0.1-0.1-0.3-0.2-0.4c-0.1-0.1-0.3-0.2-0.4-0.2
		c-0.2-0.1-0.3-0.2-0.5-0.2c-0.7,0-1.2,0.6-1.2,1.2c0,0.3,0.1,0.6,0.3,0.8C0.2,408.8,0.6,408.9,0.9,408.9L0.9,408.9z"/>
	<path id="XMLID_8123_" class="st0" d="M-59.8,579.1c0.2,0,0.5-0.1,0.7-0.2c0.3-0.2,0.6-0.3,0.9-0.5c-0.4-0.3-1-0.5-1.4-0.8
		c-0.5-0.3-1-0.2-1.5,0.1c0,0.3,0,0.5,0.2,0.8C-60.6,579-60.2,579.1-59.8,579.1z"/>
	<path id="XMLID_8122_" class="st0" d="M-176,535.3c-0.2,0.2-0.6,0.3-0.9,0.3c-0.3,0-0.7-0.1-0.9-0.4c-0.1-0.1-0.2-0.2-0.4-0.3
		c0.2,7.2-0.6,13.2-2.5,19.3c0.5,1,1.1,2,1.7,3c2.6-7.2,3.7-14.3,3.4-22.8c0-0.1-0.1-0.1-0.1-0.2C-175.6,534.6-175.6,535-176,535.3z
		"/>
	<path id="XMLID_8121_" class="st0" d="M-181,558.7c-0.2-0.3-0.4-0.7-0.6-1C-181.6,558.1-181.4,558.4-181,558.7z"/>
	<path id="XMLID_8120_" class="st0" d="M-181.6,557.3c0,0.1,0,0.2,0,0.3c0.2,0.3,0.4,0.7,0.6,1c0.1,0,0.1,0.1,0.2,0.1
		c0.1,0,0.3,0.1,0.4,0.1c0.5,0,1-0.3,1.2-0.8c0.1-0.3,0.2-0.6,0.3-0.8c-0.6-1-1.1-2-1.7-3C-180.9,555.3-181.2,556.3-181.6,557.3z"/>
	<path id="XMLID_8119_" class="st0" d="M-176.9,533.3c-0.7,0-1.2,0.6-1.2,1.2c0,0.2,0,0.3,0,0.4c0.1,0.1,0.2,0.2,0.4,0.3
		c0.3,0.2,0.6,0.4,0.9,0.4c0.3,0,0.6-0.1,0.9-0.3c0.3-0.3,0.4-0.7,0.3-1.1C-175.8,533.7-176.4,533.3-176.9,533.3z"/>
	<path id="XMLID_8118_" class="st0" d="M-46.2,535c-0.2,0.1-0.5,0.3-0.7,0.5c-0.2,0.1-0.4,0.2-0.7,0.2c-0.4,0-0.8-0.2-1.1-0.5
		c-0.1-0.2-0.1-0.4-0.1-0.7c0,0.1-0.1,0.1-0.1,0.2c1.9,10.8,4.7,21.6,8.3,32c0.7-0.4,1.5-0.8,2.2-1.2
		C-41.7,555.5-44.4,545.2-46.2,535z"/>
	<path id="XMLID_8117_" class="st0" d="M-38.8,569.3c0.2,0,0.3,0,0.5-0.1c0.4-0.2,0.7-0.5,0.7-0.9c0.5-0.5,2.3-1.7,3.4-2.5
		c1.9-1.2,2.7-1.8,3.1-2.3c-2.6,1.9-5.6,3.6-8.7,5.3C-39.5,569.1-39.1,569.3-38.8,569.3z"/>
	<path id="XMLID_8116_" class="st0" d="M-32.5,561.6c0,0,0.1-0.1,0.1-0.1C-32.4,561.6-32.4,561.6-32.5,561.6z"/>
	<path id="XMLID_8115_" class="st0" d="M-48.7,534c0.1-0.1,0.2-0.2,0.3-0.4C-48.6,533.8-48.6,533.9-48.7,534z"/>
	<path id="XMLID_8114_" class="st0" d="M-39.9,568.7c0.1,0.1,0.1,0.1,0.2,0.2c3.1-1.6,6-3.4,8.7-5.3c0.1-0.1,0.2-0.3,0.3-0.4
		c0.3-0.6,0-1.4-0.6-1.6c-0.3-0.1-0.6-0.1-0.9,0c0,0-0.1,0.1-0.1,0.1c-0.2,0.1-0.4,0.2-0.6,0.5c-0.3,0.3-1.6,1.2-2.6,1.8
		c-1.1,0.7-2,1.3-2.7,1.8c0-0.1-0.1-0.2-0.1-0.4c-0.7,0.4-1.5,0.8-2.2,1.2c0.2,0.5,0.3,1.1,0.5,1.6C-40.1,568.4-40,568.5-39.9,568.7
		z"/>
	<path id="XMLID_8113_" class="st0" d="M-48.8,534.4c0-0.1,0-0.3,0.1-0.4C-48.8,534.1-48.8,534.3-48.8,534.4z"/>
	<path id="XMLID_8112_" class="st0" d="M-46.4,534.3c0,0.2,0.1,0.5,0.1,0.7c19.7-11.9,35-30.7,43-51.9c0.7-4.7,1.3-9.5,1.8-14.4
		c0,0-0.1,0.1-0.1,0.1c-5.6,26.5-23,50.7-46.8,64.7c-0.1,0-0.1,0.1-0.1,0.2c0.2-0.2,0.4-0.3,0.6-0.4
		C-47.1,533.2-46.5,533.6-46.4,534.3z"/>
	<path id="XMLID_8111_" class="st0" d="M0.9,469.2c0.1-0.6-0.3-1.3-1-1.4c-0.6-0.1-1.2,0.3-1.4,0.8c-0.5,4.9-1.1,9.7-1.8,14.4
		C-1.5,478.5,0,473.9,0.9,469.2z"/>
	<path id="XMLID_8110_" class="st0" d="M-47.6,535.6c0.2,0,0.5-0.1,0.7-0.2c0.2-0.1,0.5-0.3,0.7-0.5c0-0.2-0.1-0.5-0.1-0.7
		c-0.1-0.6-0.8-1.1-1.5-1c-0.3,0-0.4,0.2-0.6,0.4c-0.1,0.1-0.2,0.2-0.3,0.4c-0.1,0.1-0.1,0.3-0.1,0.4c0,0.2,0,0.5,0.1,0.7
		C-48.5,535.4-48,535.6-47.6,535.6z"/>
	<path id="XMLID_8109_" class="st0" d="M22.6,361.1c0-0.2-0.1-0.4-0.1-0.6C22.5,360.7,22.5,360.9,22.6,361.1z"/>
	<path id="XMLID_8108_" class="st0" d="M27,371.4c0,0,0.1-0.1,0.1-0.1c-0.1-0.3-0.2-0.5-0.3-0.8C26.8,370.8,26.9,371.1,27,371.4z"/>
	<path id="XMLID_8107_" class="st0" d="M-149.1,227.4c2.3,0.1,4.5,0.3,6.7,0.5c28.3,0.9,50.5,5,69.4,13.1
		c22.9,9.8,43.9,27.1,60.6,49.9c13.1,17.8,24.1,39.2,34.6,67.5c0,0,0,0,0-0.1l-0.3-0.8c-0.2-0.6,0.1-1.3,0.8-1.5
		c0.6-0.2,1.3,0.1,1.6,0.7c-10.5-27.9-21.5-49.3-34.5-67.1c-17-23.1-38.4-40.7-61.7-50.7c-19.4-8.3-42.3-12.6-71.5-13.4
		c-1.9,0.5-3.9,1.1-5.8,1.7C-149.2,227.2-149.2,227.3-149.1,227.4z"/>
	<path id="XMLID_8106_" class="st0" d="M-148.3,225.3c-0.7,0-1.3,0.5-1.3,1.2c0,0.3,0.1,0.5,0.3,0.7c1.9-0.6,3.8-1.2,5.8-1.7
		C-145.1,225.4-146.7,225.3-148.3,225.3z"/>
	<path id="XMLID_8105_" class="st0" d="M23.2,356.5c0.6,0,1.1,0.3,1.3,0.8c-0.1-0.3-0.2-0.5-0.3-0.8c-0.3-0.6-0.9-0.9-1.6-0.7
		c-0.7,0.2-1,0.9-0.8,1.5l0.3,0.8c0-0.1,0-0.3,0-0.4C22,357.2,22.5,356.6,23.2,356.5z"/>
	<path id="XMLID_8104_" class="st0" d="M24.6,357.7c0.1,0.6,0.2,1.3,0.3,2.1c0.2-0.3,0.3-0.6,0.1-1
		C24.9,358.5,24.8,358.2,24.6,357.7z"/>
	<path id="XMLID_8103_" class="st0" d="M26.2,364.6c-0.4-1.2-0.9-2.9-1.2-3.9c0.4,2.4,1,5.8,1.7,9.9c0.1,0.3,0.2,0.5,0.3,0.8
		c0,0,0.1,0,0.1-0.1C28,370.5,27.7,369.3,26.2,364.6z"/>
	<path id="XMLID_8102_" class="st0" d="M-148.4,227.7c2,0,3.9,0.1,5.9,0.2c-2.2-0.2-4.4-0.4-6.7-0.5
		C-148.9,227.5-148.7,227.7-148.4,227.7z"/>
	<path id="XMLID_8101_" class="st0" d="M22.5,360.5c0,0.2,0.1,0.4,0.1,0.6c0.2,1,0.6,2.3,1.2,4.1c0.5,1.5,1.2,3.7,1.3,4.6
		c-0.1,0.1-0.2,0.3-0.2,0.5c-0.1,0.6,0.4,1.2,1,1.4c0.1,0,0.1,0,0.2,0c0.3,0,0.6-0.1,0.9-0.3c-0.1-0.3-0.1-0.6-0.2-0.9
		c-0.9-2.3-1.7-4.6-2.6-6.8l-2.1-5.5c0,0,0,0,0,0.1c0.1,0.3,0.2,0.5,0.3,0.8C22.3,359.4,22.4,359.9,22.5,360.5z"/>
	<path id="XMLID_8100_" class="st0" d="M26.8,370.5c-0.7-4.1-1.3-7.5-1.7-9.9c-0.1-0.2-0.1-0.5-0.1-0.6c0,0,0-0.1,0-0.1
		c-0.1-0.9-0.2-1.6-0.3-2.1c0-0.1-0.1-0.2-0.1-0.4c-0.2-0.5-0.7-0.9-1.3-0.8c-0.7,0.1-1.2,0.6-1.1,1.3c0,0.1,0,0.3,0,0.4l2.1,5.5
		C25.1,366,25.9,368.2,26.8,370.5z"/>
	<path id="XMLID_8099_" class="st0" d="M-148.6,232.4c-1.5-0.7-3-1.2-4.5-1.8c14.2,17.2,22,40,28.9,60.1c1.5,4.3,2.9,8.5,4.4,12.5
		c0,0,0,0,0,0c0.1-0.1,0.2-0.2,0.3-0.3c0.1-0.1,0.2-0.3,0.4-0.3c0,0,0,0,0,0c0,0,0,0,0,0c0.5-0.2,1,0.1,1.3,0.5
		c0.1,0.1,0.2,0.2,0.2,0.3c0,0,0,0,0,0c0.9,2.6,2.1,5.3,3.4,8c-2.7-6.6-5.1-13.8-7.8-21.4C-128.4,270.9-135.8,249.5-148.6,232.4z"/>
	<path id="XMLID_8098_" class="st0" d="M-119.1,302.5c-0.2,0.1-0.3,0.2-0.4,0.3C-119.4,302.7-119.3,302.6-119.1,302.5
		C-119.1,302.5-119.1,302.5-119.1,302.5z"/>
	<path id="XMLID_8097_" class="st0" d="M-119.8,303.1C-119.8,303.1-119.8,303.2-119.8,303.1C-119.8,303.2-119.8,303.2-119.8,303.1
		C-119.8,303.2-119.8,303.1-119.8,303.1z"/>
	<path id="XMLID_8096_" class="st0" d="M-117.5,303.3C-117.5,303.3-117.5,303.3-117.5,303.3c-0.1-0.2-0.2-0.2-0.3-0.3
		C-117.7,303.1-117.5,303.2-117.5,303.3C-117.5,303.3-117.5,303.3-117.5,303.3z"/>
	<path id="XMLID_8095_" class="st0" d="M-116.3,312.4c0,0,0-0.1-0.1-0.1C-116.4,312.3-116.4,312.4-116.3,312.4
		C-116.3,312.4-116.3,312.4-116.3,312.4z"/>
	<path id="XMLID_8094_" class="st0" d="M-114.3,312.7c0.3-0.3,0.5-0.7,0.3-1.1c0-0.1-0.1-0.2-0.1-0.2c-1.3-2.7-2.6-5.4-3.4-8
		C-116.4,306.4-115.4,309.5-114.3,312.7z"/>
	<path id="XMLID_8093_" class="st0" d="M-119.8,303.1c0.1-0.1,0.2-0.2,0.3-0.3C-119.6,302.9-119.8,303-119.8,303.1z"/>
	<path id="XMLID_8092_" class="st0" d="M-117.8,303c-0.3-0.4-0.8-0.6-1.3-0.5l0,0C-118.6,302.4-118.1,302.6-117.8,303z"/>
	<path id="XMLID_8091_" class="st0" d="M-117.5,303.3c0-0.1-0.2-0.2-0.3-0.3c-0.3-0.4-0.8-0.6-1.3-0.5c-0.2,0.1-0.3,0.2-0.4,0.3
		c-0.1,0.1-0.3,0.1-0.3,0.3c0,0,0,0,0,0.1c1.1,3.1,2.3,6.2,3.5,9.1c0,0,0,0.1,0.1,0.1c0.2,0.5,0.7,0.7,1.2,0.7c0.1,0,0.3,0,0.4-0.1
		c0.2-0.1,0.3-0.2,0.4-0.4C-115.4,309.5-116.4,306.4-117.5,303.3C-117.5,303.3-117.5,303.3-117.5,303.3z"/>
	<path id="XMLID_8090_" class="st0" d="M-151.5,228.7c-0.1-0.1-0.1-0.2-0.2-0.3c-0.1-0.2-0.3-0.2-0.5-0.3c-0.1,0-0.2,0.1-0.3,0.1
		C-152.2,228.4-151.8,228.5-151.5,228.7z"/>
	<path id="XMLID_8089_" class="st0" d="M-152.2,228.1c-0.2-0.1-0.5-0.1-0.7-0.1c0.1,0.1,0.3,0.1,0.4,0.2
		C-152.4,228.2-152.3,228.2-152.2,228.1z"/>
	<path id="XMLID_8088_" class="st0" d="M-153.7,229.9c0.2,0.2,0.3,0.5,0.5,0.7c1.5,0.6,3,1.2,4.5,1.8c-0.7-0.9-1.4-1.8-2.1-2.7
		c-1,0-2-0.1-3-0.1C-153.7,229.7-153.7,229.8-153.7,229.9z"/>
	<path id="XMLID_8087_" class="st0" d="M-153.8,228.7c-0.1,0.3-0.2,0.6,0,0.9c1,0,2,0,3,0.1c-0.3-0.3-0.5-0.7-0.8-1
		c-0.3-0.1-0.7-0.3-1-0.4C-152.9,228.4-153.3,228.5-153.8,228.7z"/>
	<path id="XMLID_8086_" class="st0" d="M-153.8,228.7c0.4-0.1,0.8-0.3,1.2-0.4c-0.1-0.1-0.3-0.1-0.4-0.2c-0.2,0-0.4,0-0.5,0.1
		C-153.6,228.3-153.7,228.5-153.8,228.7z"/>
</g>
</svg>
