<?xml version="1.0" encoding="utf-8"?>
<!-- Generator: Adobe Illustrator 19.0.0, SVG Export Plug-In . SVG Version: 6.00 Build 0)  -->
<svg version="1.1" id="Layer_1" xmlns="http://www.w3.org/2000/svg" xmlns:xlink="http://www.w3.org/1999/xlink" x="0px" y="0px"
	 viewBox="0 0 314.2 292.6" style="enable-background:new 0 0 314.2 292.6;" xml:space="preserve">
<style type="text/css">
	.st0{fill:#FFFFFF;}
	.st1{fill:#EF7B05;}
</style>
<g id="XMLID_7354_">
	<path id="XMLID_7537_" class="st0" d="M267.6,140c-28.2-18-35.2-34.3-53.2-54.5c5.9-0.4,12.8,1.2,18.3,2.7
		c8.4,2.3,16,5.9,21.7,12.6C264.2,112.1,267.5,125.3,267.6,140z"/>
	<path id="XMLID_7536_" class="st0" d="M112.7,84.3c21.2,34-3.6,87.9-60.7,65.4c-0.7-2.8-1.4-5.6-2.2-8.4
		c-2.1-7.2-4.1-13.7-2.2-21.2c4.9-19.6,34.1-31.6,51.7-34.8C103.8,84.4,108.3,84.3,112.7,84.3z"/>
	<path id="XMLID_7535_" class="st1" d="M286.9,243.7c-0.1,4,1.3,19.8-4.3,21.3c-0.1-2.7,0-5.4,0.1-8.1c0.1-3.3,0.3-6.6,0-10
		c0-0.7-0.1-1.3-0.2-2c-0.9-6.3-2.3-12.4-3.3-18.7c-0.2-1.4-0.5-2.7-0.6-4.1c-1.5-10.9-8.9-19.3-11.5-29.6
		c-2.4-9.5-0.1-18.1,0.8-27.5c0.8-7.8-0.2-16-0.2-23.9V141c0-0.4-0.1-0.7-0.1-1.1c-0.1-14.7-3.4-27.9-13.1-39.2
		c-5.8-6.7-13.4-10.3-21.7-12.6c-5.6-1.5-12.4-3.1-18.3-2.7c-0.2,0-0.3,0-0.4,0c-0.2,0-0.4,0.1-0.6,0.1c2.5,3.9,6.7,6.4,9.2,10.6
		c-5.4-3.4-12-10.6-19-9c0.4,1.2,2,3.8,3.3,4.4c-5.8-2.8-11.4-7.1-17.8-8.5c-7.7-1.7-17.9-0.9-25.6,0.8c-4.8,1.1-14.5,5.4-16.8,10
		c1.9-3.6,4.2-7.8,6.7-9.7c-5.9-0.1-16.2,5-20.3,8.9c2.7-5.5,12.3-12,18.6-11.7c-8.3-1.9-16.3,1.5-24.3,2.5c-5,0.6-9.9,0.5-14.9,0.5
		c-4.5,0-9,0.1-13.4,1c-12.7,2.3-31.3,9.1-42.6,20.1c-0.2,0.2-0.5,0.5-0.7,0.7c-4.1,4.1-7.1,8.8-8.4,14c-0.1,0.5-0.2,1-0.3,1.4
		c0,0.1,0,0.2,0,0.3c-1.2,6.9,0.7,12.9,2.6,19.6c0.8,2.8,1.6,5.6,2.2,8.4c2.8,11.7,4.2,23.7,1.8,35.7c-2.1,10.5-8.3,19.5-11.3,29.7
		c-1.1,3.7-1.9,7.6-2.5,11.6c-1.2,8.2-1.4,16.7-1.4,24.6c0.1,6.7,2.1,12.4,1.8,19.4c-1.8,0.3-3.2-1.6-4.3-4.7
		c-3.6-10.3-3.8-34.2-4.5-37.9c-1.3-6.7-8.2-12.1-10.7-18.7c-7.7-19.8-11-41.3-10.6-62.5c0.3-18.7,5.6-34.2,10.9-51
		c1-3.1,1.9-6.1,2.9-9.3c4.8-16.2,17.5-29,32.5-36.5c8-4,15.9-8.1,24.2-11.4c7.7-3,16.5-2.7,24.8-3.2c-4.1-2.3-9.8-5.2-14.8-4.9
		c10.1-0.4,22.3-4.5,32-0.1c-3.4-1.8-18-6.4-21.5-5.4c13.9-4.1,28.8-4.2,43.1-3.8c12.8,0.3,22.6,2.9,33.5,8.1
		c1.6,0.8,3.2,1.6,4.9,2.4c-0.4-0.8-0.9-1.5-1.4-2.2c-1.9-2.5-4.6-4.4-6.8-6.6c6.2,1.6,12.7,5.1,18.4,7.9c0.1,0,0.1,0.1,0.2,0.1
		c4.3,2.1,8.8,6.4,13.4,7.7c5,1.4,9.7-1.1,14.7-1.1c0.3,0,0.6,0,1,0c10.4,0.2,20.5,3.3,29.8,7.8c8.8,4.3,14.6,11.9,22.3,17.4
		c-2.9-2.1-6.1-3.8-9.2-5.6c0.5,0.4,1,0.9,1.4,1.3c2.2,2.4,3.8,5.3,5.9,8.2c3.5,4.8,7.6,8.7,10.1,14.2c13.3,29.6,19,64.7,20.2,96.9
		c0.5,14.7-1.5,25.8-9.3,38.4C287.7,225.5,287.3,233.1,286.9,243.7z"/>
	<g id="XMLID_7533_">
		<path id="XMLID_7534_" class="st0" d="M31,215.6c0,0,0-0.4,0-1.1c0-0.7,0-1.8,0.1-3c0.1-2.5,0.5-5.8,1.1-9.1
			c0.6-3.3,1.5-6.5,2.3-8.9c0.4-1.2,0.8-2.2,1-2.9c0.3-0.7,0.4-1.1,0.4-1.1c0,0,0.2-0.4,0.5-1.1c0.3-0.7,0.8-1.6,1.4-2.6
			c1.2-2.2,3-4.9,5-7.5c2-2.5,4.3-4.8,6.2-6.4c0.4-0.4,0.9-0.8,1.3-1c0.4-0.3,0.7-0.6,1-0.8c0.6-0.4,0.9-0.7,0.9-0.7
			s-0.3,0.3-0.8,0.7c-0.3,0.2-0.6,0.5-1,0.8c-0.4,0.3-0.8,0.7-1.2,1.1c-1.8,1.6-3.9,4.1-5.7,6.6c-1.8,2.6-3.5,5.4-4.5,7.6
			c-0.6,1.1-0.9,2-1.2,2.7c-0.3,0.7-0.5,1-0.5,1.1c0,0-0.2,0.4-0.5,1.1c-0.3,0.7-0.7,1.6-1.2,2.8c-0.9,2.3-2,5.5-2.7,8.7
			c-0.7,3.2-1.3,6.5-1.5,8.9c-0.2,1.2-0.2,2.3-0.2,3C31.1,215.2,31,215.6,31,215.6z"/>
	</g>
	<g id="XMLID_7531_">
		<path id="XMLID_7532_" class="st0" d="M27.1,207.6c0,0,0.1-1.7,0.3-4.2c0.2-2.5,0.6-5.8,1.1-9.1c0.6-3.3,1.3-6.6,2-9.1
			c0.3-1.2,0.7-2.2,0.9-3c0.2-0.7,0.4-1.1,0.4-1.2c0,0,0.2-0.4,0.5-1.1c0.3-0.7,0.7-1.6,1.3-2.7c1-2.3,2.8-5.1,4.7-7.7
			c1.9-2.7,4.2-5,6-6.7c0.9-0.8,1.7-1.5,2.2-1.9c0.5-0.5,0.8-0.7,0.8-0.7s-0.3,0.3-0.8,0.8c-0.5,0.5-1.3,1.2-2.1,2
			c-1.7,1.8-3.8,4.2-5.5,6.9c-1.7,2.7-3.3,5.6-4.2,7.8c-0.5,1.1-0.8,2.1-1.1,2.7c-0.3,0.7-0.4,1.1-0.4,1.1c0,0-0.2,0.4-0.4,1.1
			c-0.2,0.7-0.7,1.7-1,2.9c-0.8,2.4-1.7,5.6-2.4,8.9c-0.7,3.3-1.2,6.6-1.6,9C27.3,206,27.1,207.6,27.1,207.6z"/>
	</g>
	<g id="XMLID_7529_">
		<path id="XMLID_7530_" class="st0" d="M23,195.4c0,0,0.1-0.4,0.2-1.2c0.1-0.7,0.3-1.8,0.5-3.1c0.5-2.5,1.2-5.9,2.2-9.2
			c1-3.3,2.2-6.6,3.2-8.9c0.5-1.2,1-2.2,1.3-2.9c0.3-0.7,0.5-1.1,0.6-1.1c0,0,0.2-0.4,0.6-1.1c0.4-0.6,0.9-1.6,1.6-2.6
			c1.3-2.2,3-5,5.1-7.7c2.1-2.6,4.5-5,6.5-6.4c0.2-0.2,0.5-0.4,0.7-0.5c0.2-0.1,0.5-0.3,0.7-0.4c0.4-0.3,0.8-0.5,1.1-0.7
			c0.6-0.4,1-0.6,1-0.6s-0.3,0.2-1,0.6c-0.3,0.2-0.7,0.4-1.1,0.7c-0.2,0.1-0.4,0.3-0.7,0.4c-0.2,0.2-0.4,0.4-0.7,0.6
			c-2,1.5-4.2,4-6.1,6.7c-1.9,2.7-3.5,5.6-4.7,7.8c-0.6,1.1-1.1,2-1.4,2.7c-0.3,0.7-0.5,1.1-0.5,1.1c0,0-0.2,0.4-0.6,1.1
			c-0.4,0.7-0.9,1.6-1.4,2.8c-1.2,2.3-2.5,5.5-3.6,8.7c-1.1,3.2-2,6.5-2.6,9c-0.3,1.2-0.5,2.3-0.7,3C23.1,195,23,195.4,23,195.4z"/>
	</g>
	<g id="XMLID_7527_">
		<path id="XMLID_7528_" class="st0" d="M24.7,179.8c0,0,0.2-1.4,0.6-3.6c0.3-2.2,1.1-5,1.7-7.9c0.9-2.8,1.7-5.7,2.7-7.7
			c0.4-1,0.8-1.9,1.1-2.5c0.2-0.6,0.4-1,0.4-1c0,0,0.8-1.3,1.9-3.2c0.3-0.5,0.6-1,0.9-1.5c0.4-0.5,0.7-1,1.1-1.6
			c0.8-1.1,1.6-2.3,2.5-3.4c1.9-2.1,3.7-4.4,5.3-5.8c1.5-1.5,2.6-2.5,2.6-2.5s-1,1-2.4,2.6c-1.5,1.5-3.2,3.8-4.9,6
			c-0.8,1.2-1.5,2.4-2.3,3.5c-0.4,0.6-0.7,1.1-1,1.6c-0.3,0.5-0.6,1.1-0.8,1.5c-1,1.9-1.7,3.2-1.7,3.2c0,0-0.2,0.3-0.5,0.9
			c-0.3,0.6-0.7,1.4-1.2,2.4c-1.1,1.9-2,4.7-3.1,7.4c-0.8,2.8-1.8,5.6-2.2,7.7C25,178.4,24.7,179.8,24.7,179.8z"/>
	</g>
	<g id="XMLID_7525_">
		<path id="XMLID_7526_" class="st0" d="M19.8,187.8c0,0,0-0.5,0-1.3c0-0.8,0-2.1,0.1-3.5c0.1-2.9,0.3-6.8,0.7-10.7
			c0.4-3.9,1.1-7.7,1.8-10.6c0.3-1.5,0.7-2.6,0.9-3.5c0.2-0.9,0.4-1.3,0.4-1.4c0,0,0.2-0.5,0.5-1.3c0.3-0.8,0.7-1.9,1.3-3.3
			c1.1-2.7,2.9-6,5-9.2c0.5-0.8,1.1-1.6,1.6-2.3c0.5-0.8,1.1-1.5,1.7-2.2c1.1-1.4,2.3-2.6,3.2-3.6c1-1,1.9-1.8,2.4-2.4
			c0.6-0.6,0.9-0.9,0.9-0.9s-0.3,0.3-0.9,0.9c-0.6,0.6-1.4,1.4-2.3,2.5c-0.9,1.1-2,2.3-3,3.8c-0.5,0.7-1.1,1.4-1.6,2.2
			c-0.5,0.8-1,1.6-1.5,2.4c-1.9,3.2-3.5,6.6-4.5,9.3c-0.5,1.3-0.9,2.4-1.1,3.2c-0.3,0.8-0.4,1.3-0.4,1.3c0,0-0.2,0.5-0.4,1.3
			c-0.2,0.8-0.7,2-1,3.4c-0.8,2.8-1.6,6.6-2.2,10.4c-0.6,3.8-1,7.7-1.2,10.6c-0.1,1.4-0.2,2.7-0.2,3.5
			C19.9,187.3,19.8,187.8,19.8,187.8z"/>
	</g>
	<g id="XMLID_7523_">
		<path id="XMLID_7524_" class="st0" d="M18.9,199.4c0,0-0.1-0.6-0.4-1.7c-0.2-1.1-0.7-2.6-1-4.5c-0.8-3.7-1.6-8.8-2.1-13.9
			c-0.4-5.1-0.2-10.3,0.3-14.2c0.1-1,0.3-1.9,0.4-2.6c0.1-0.8,0.3-1.5,0.4-2c0.2-1.2,0.4-1.8,0.4-1.8c0,0,0.2-0.7,0.5-1.8
			c0.3-1.1,0.8-2.6,1.4-4.4c0.3-0.9,0.7-1.9,1-2.9c0.4-1,0.9-2,1.3-3.1c0.2-0.5,0.5-1.1,0.7-1.6c0.3-0.5,0.5-1.1,0.8-1.6
			c0.5-1.1,1.1-2.2,1.6-3.3c1.2-2.2,2.4-4.4,3.6-6.3c1.2-2,2.5-3.8,3.5-5.3c0.5-0.8,1-1.4,1.5-2c0.5-0.6,0.9-1.1,1.2-1.5
			c0.7-0.9,1-1.3,1-1.3s-0.4,0.5-1,1.4c-0.3,0.4-0.7,1-1.1,1.6c-0.4,0.6-0.9,1.3-1.4,2.1c-1,1.6-2.2,3.4-3.3,5.4
			c-1.2,2-2.3,4.2-3.4,6.4c-0.5,1.1-1,2.3-1.5,3.4c-0.2,0.6-0.5,1.1-0.7,1.7c-0.2,0.6-0.4,1.1-0.6,1.7c-0.4,1.1-0.8,2.1-1.2,3.1
			c-0.3,1-0.6,2-0.9,2.9c-0.6,1.8-1,3.3-1.3,4.4c-0.3,1.1-0.4,1.7-0.5,1.7c0,0-0.2,0.7-0.4,1.8c-0.1,0.6-0.3,1.2-0.4,2
			c-0.2,0.8-0.4,1.6-0.5,2.6c-0.6,3.8-0.9,8.9-0.7,14c0.3,5.1,0.9,10.2,1.6,13.9c0.3,1.9,0.7,3.4,0.9,4.5
			C18.8,198.7,18.9,199.4,18.9,199.4z"/>
	</g>
	<g id="XMLID_7521_">
		<path id="XMLID_7522_" class="st0" d="M12.6,163.8c0,0,0.3-6.3,0.8-12.7c0.3-3.2,0.6-6.4,1-8.8c0.2-1.2,0.3-2.2,0.4-2.9
			c0.1-0.7,0.2-1.1,0.2-1.2c0-0.1,0.4-1.6,1-3.9c0.2-0.6,0.3-1.2,0.5-1.8c0.2-0.6,0.5-1.3,0.7-2c0.5-1.4,0.9-2.9,1.5-4.3
			c1.3-2.8,2.4-5.7,3.7-7.7c1.1-2,1.9-3.4,1.9-3.4s-0.7,1.4-1.7,3.5c-1.1,2-2.1,5-3.2,7.8c-0.5,1.5-0.9,3-1.3,4.3
			c-0.2,0.7-0.4,1.4-0.6,2c-0.1,0.7-0.3,1.3-0.4,1.8c-0.5,2.3-0.8,3.8-0.8,3.9c0,0-0.1,0.4-0.3,1.1c-0.1,0.7-0.3,1.7-0.6,2.9
			c-0.5,2.3-1,5.5-1.5,8.6C13.2,157.5,12.6,163.8,12.6,163.8z"/>
	</g>
	<g id="XMLID_7519_">
		<path id="XMLID_7520_" class="st0" d="M34.3,220.8c0,0,0-0.4,0-1c0-0.6,0-1.5,0.1-2.6c0.2-2.2,0.5-5,1-7.9c0.6-2.9,1.3-5.7,2-7.8
			c0.3-1.1,0.7-1.9,0.9-2.5c0.2-0.6,0.4-1,0.4-1c0,0,0.2-0.4,0.5-0.9c0.3-0.6,0.7-1.4,1.2-2.3c1-1.9,2.6-4.3,4.3-6.5
			c1.7-2.2,3.7-4.3,5.2-5.8c0.7-0.7,1.4-1.3,1.9-1.7c0.5-0.4,0.7-0.6,0.7-0.6s-0.2,0.3-0.7,0.7c-0.4,0.4-1.1,1-1.7,1.8
			c-1.4,1.6-3.2,3.7-4.7,6c-1.5,2.3-3,4.7-3.8,6.7c-0.5,0.9-0.8,1.8-1.1,2.3c-0.2,0.6-0.4,0.9-0.4,0.9c0,0-0.2,0.4-0.4,1
			c-0.2,0.6-0.6,1.4-1,2.4c-0.8,2-1.7,4.7-2.4,7.5c-0.7,2.8-1.2,5.6-1.5,7.8c-0.2,1.1-0.2,2-0.3,2.6
			C34.3,220.5,34.3,220.8,34.3,220.8z"/>
	</g>
	<g id="XMLID_7517_">
		<path id="XMLID_7518_" class="st0" d="M293.6,212.3c0,0-0.4-1.4-1-3.5c-0.6-2.1-1.5-5-2.4-7.8c-0.9-2.8-2-5.6-2.8-7.6
			c-0.4-1-0.8-1.9-1.1-2.5c-0.3-0.6-0.4-1-0.4-1c0,0-0.2-0.4-0.4-1c-0.2-0.6-0.6-1.4-1.1-2.4c-0.9-2-2.3-4.5-3.8-6.9
			c-1.6-2.4-3.4-4.6-4.9-6.2c-0.7-0.8-1.4-1.4-1.9-1.8c-0.5-0.4-0.7-0.7-0.7-0.7s0.3,0.2,0.8,0.6c0.5,0.4,1.2,1,2,1.7
			c1.6,1.5,3.6,3.6,5.3,5.9c1.7,2.3,3.3,4.8,4.3,6.8c0.5,1,0.9,1.8,1.2,2.4c0.3,0.6,0.5,0.9,0.5,1c0,0,0.2,0.4,0.4,1
			c0.2,0.6,0.6,1.5,0.9,2.6c0.7,2.1,1.6,5,2.4,7.9c0.8,2.9,1.4,5.8,1.9,7.9C293.3,210.9,293.6,212.3,293.6,212.3z"/>
	</g>
	<g id="XMLID_7515_">
		<path id="XMLID_7516_" class="st0" d="M295.8,202.9c0,0-0.1-0.4-0.1-1.1c-0.1-0.7-0.2-1.6-0.4-2.8c-0.4-2.3-1.2-5.3-2.2-8.2
			c-1-2.9-2.2-5.8-3.2-7.9c-0.5-1.1-1-1.9-1.3-2.5c-0.3-0.6-0.5-1-0.5-1c0,0-0.2-0.4-0.5-1c-0.3-0.6-0.7-1.5-1.2-2.5
			c-1-2-2.6-4.6-4.2-7.1c-1.7-2.5-3.4-4.9-4.8-6.7c-0.7-0.9-1.3-1.6-1.7-2.1c-0.4-0.5-0.7-0.8-0.7-0.8s0.3,0.3,0.7,0.7
			c0.4,0.5,1.1,1.1,1.9,2c1.5,1.7,3.4,4,5.2,6.4c1.8,2.4,3.5,5,4.7,6.9c0.6,1,1.1,1.8,1.4,2.4c0.3,0.6,0.5,0.9,0.5,1
			c0,0,0.2,0.4,0.5,1c0.3,0.6,0.7,1.5,1.2,2.6c0.9,2.2,2,5.1,2.8,8.1c0.8,3,1.5,6.1,1.7,8.4c0.2,1.1,0.2,2.1,0.3,2.8
			C295.8,202.5,295.8,202.9,295.8,202.9z"/>
	</g>
	<g id="XMLID_7513_">
		<path id="XMLID_7514_" class="st0" d="M292.1,177.7c0,0-0.5-1.1-1.2-2.9c-0.7-1.7-1.9-3.9-3.1-6.1c-1.3-2.1-2.6-4.3-3.7-5.8
			c-0.5-0.8-1-1.4-1.3-1.9c-0.3-0.5-0.5-0.7-0.5-0.7c0,0-0.7-1-1.8-2.5c-0.3-0.4-0.6-0.8-0.9-1.2c-0.3-0.4-0.7-0.8-1-1.3
			c-0.7-0.9-1.5-1.8-2.3-2.7c-1.7-1.7-3.3-3.5-4.7-4.7c-1.3-1.2-2.2-2-2.2-2s1,0.7,2.4,1.9c1.5,1.1,3.2,2.8,5.1,4.4
			c0.9,0.9,1.7,1.8,2.5,2.6c0.4,0.4,0.8,0.8,1.1,1.2c0.3,0.4,0.7,0.8,1,1.1c1.2,1.4,2,2.4,2,2.4c0,0,0.2,0.3,0.5,0.8
			c0.3,0.5,0.7,1.2,1.2,2c1.1,1.6,2.2,3.9,3.4,6.1c1,2.3,2.1,4.6,2.7,6.4C291.7,176.6,292.1,177.7,292.1,177.7z"/>
	</g>
	<g id="XMLID_7505_">
		<path id="XMLID_7506_" class="st0" d="M298.4,193.9c0,0-0.1-0.5-0.2-1.5c-0.1-0.9-0.3-2.3-0.6-3.8c-0.5-3.2-1.5-7.3-2.6-11.5
			c-1.2-4.1-2.7-8.1-3.9-11.1c-0.6-1.5-1.1-2.7-1.5-3.6c-0.4-0.9-0.6-1.4-0.6-1.4c0,0-0.2-0.5-0.6-1.4c-0.4-0.9-0.8-2.1-1.5-3.5
			c-1.2-2.9-3-6.7-4.9-10.4c-1.9-3.7-3.8-7.4-5.3-10.1c-1.5-2.7-2.5-4.6-2.5-4.6s1.1,1.8,2.7,4.4c1.6,2.7,3.7,6.3,5.7,9.9
			c2,3.7,4,7.4,5.3,10.2c0.7,1.4,1.2,2.6,1.6,3.5c0.4,0.9,0.6,1.4,0.6,1.4c0,0,0.2,0.6,0.6,1.5c0.3,0.9,0.8,2.2,1.4,3.7
			c1.1,3.1,2.4,7.2,3.4,11.4c1,4.2,1.8,8.4,2.2,11.6c0.2,1.6,0.3,2.9,0.4,3.9C298.4,193.4,298.4,193.9,298.4,193.9z"/>
	</g>
	<g id="XMLID_7503_">
		<path id="XMLID_7504_" class="st0" d="M298.5,178.9c0,0,0-0.5,0.1-1.3c0-0.9,0.2-2.1,0.1-3.6c0.1-2.9-0.2-6.9-0.7-10.8
			c-0.5-3.9-1.4-7.7-2.1-10.6c-0.4-1.4-0.7-2.6-1-3.5c-0.2-0.8-0.4-1.3-0.4-1.4c0,0-0.1-0.5-0.4-1.3c-0.2-0.8-0.5-2-1-3.3
			c-0.8-2.8-2.2-6.3-3.7-9.8c-1.6-3.5-3.3-6.9-4.7-9.3c-0.7-1.3-1.4-2.2-1.8-3c-0.4-0.7-0.7-1.1-0.7-1.1s0.3,0.4,0.7,1.1
			c0.5,0.7,1.2,1.6,1.9,2.9c1.6,2.4,3.5,5.7,5.2,9.2c1.7,3.5,3.2,7,4.2,9.7c0.5,1.4,0.9,2.5,1.2,3.3c0.3,0.8,0.4,1.3,0.4,1.3
			c0,0,0.2,0.5,0.4,1.4c0.2,0.9,0.5,2.1,0.8,3.6c0.6,2.9,1.3,6.9,1.6,10.8c0.3,3.9,0.4,7.9,0.2,10.8c0,1.5-0.2,2.7-0.3,3.6
			C298.6,178.4,298.5,178.9,298.5,178.9z"/>
	</g>
	<g id="XMLID_7501_">
		<path id="XMLID_7502_" class="st0" d="M298.4,137c0,0-0.1-0.3-0.4-0.9c-0.3-0.6-0.6-1.4-1.1-2.4c-0.9-2-2.3-4.5-3.8-7
			c-1.5-2.5-3.2-4.8-4.5-6.6c-0.6-0.9-1.2-1.6-1.6-2.1c-0.4-0.5-0.6-0.8-0.7-0.8c0,0-0.2-0.3-0.6-0.8c-0.4-0.5-0.9-1.2-1.6-2
			c-1.3-1.7-3.2-3.7-5.2-5.7c-2-2-4.1-3.8-5.8-5.1c-0.8-0.7-1.6-1.1-2.1-1.5c-0.5-0.4-0.8-0.6-0.8-0.6s0.3,0.2,0.8,0.5
			c0.5,0.3,1.3,0.8,2.2,1.4c1.8,1.2,4,2.9,6.2,4.7c2.1,1.9,4.2,3.9,5.6,5.5c0.7,0.8,1.3,1.5,1.7,2c0.4,0.5,0.7,0.8,0.7,0.8
			c0,0,0.3,0.3,0.6,0.9c0.4,0.5,0.9,1.3,1.5,2.2c1.2,1.8,2.7,4.3,4.1,6.9c1.3,2.6,2.6,5.2,3.4,7.2c0.4,1,0.7,1.9,0.9,2.4
			C298.3,136.7,298.4,137,298.4,137z"/>
	</g>
	<g id="XMLID_7499_">
		<path id="XMLID_7500_" class="st0" d="M293,119c0,0-0.2-0.4-0.5-1c-0.3-0.6-0.6-1.5-1.2-2.5c-1.1-2.1-2.8-4.7-4.6-7.2
			c-1.9-2.5-4.1-4.7-5.8-6.4c-0.8-0.8-1.6-1.5-2.1-1.9c-0.5-0.5-0.8-0.7-0.9-0.7c0,0-0.3-0.3-0.8-0.7c-0.5-0.5-1.2-1.1-2.1-1.8
			c-1.7-1.5-4.2-3.3-6.7-5c-2.5-1.7-5.1-3.2-7.1-4.3c-1-0.6-1.9-1-2.4-1.3c-0.6-0.3-0.9-0.5-0.9-0.5s0.3,0.2,1,0.4
			c0.6,0.3,1.5,0.6,2.5,1.1c2.1,1,4.8,2.4,7.4,3.9c2.6,1.6,5.2,3.3,7,4.7c0.9,0.7,1.7,1.3,2.2,1.7c0.5,0.4,0.9,0.7,0.9,0.7
			c0,0,0.3,0.3,0.8,0.8c0.5,0.5,1.2,1.2,2,2.1c1.6,1.8,3.7,4.2,5.5,6.8c1.8,2.6,3.3,5.4,4.3,7.5c0.5,1,0.8,2,1.1,2.6
			C292.9,118.7,293,119,293,119z"/>
	</g>
	<g id="XMLID_7497_">
		<path id="XMLID_7498_" class="st0" d="M279.8,95.9c0,0-0.8-0.9-1.9-2.2c-0.3-0.3-0.6-0.7-0.9-1c-0.3-0.4-0.7-0.7-1.1-1.1
			c-0.8-0.7-1.6-1.5-2.5-2.3c-1.9-1.4-3.6-2.8-5.2-3.6c-1.5-0.9-2.5-1.5-2.5-1.5c0,0-1-0.6-2.5-1.4c-0.4-0.2-0.8-0.4-1.2-0.7
			c-0.4-0.2-0.9-0.4-1.4-0.6c-1-0.4-2-0.9-3-1.3c-2.1-0.7-4.2-1.5-5.9-1.7c-1.6-0.3-2.7-0.6-2.7-0.6s1.1,0.1,2.8,0.4
			c1.7,0.1,3.9,0.8,6.1,1.3c1.1,0.3,2.1,0.7,3.2,1.1c0.5,0.2,1,0.4,1.5,0.5c0.4,0.2,0.9,0.4,1.3,0.6c1.6,0.7,2.6,1.2,2.7,1.3
			c0,0,0.3,0.2,0.7,0.5c0.4,0.3,1,0.7,1.8,1.2c1.5,0.9,3.2,2.6,5,4.1c0.8,0.9,1.6,1.7,2.3,2.5c0.4,0.4,0.8,0.8,1,1.2
			c0.3,0.4,0.6,0.8,0.8,1.1C279.1,95,279.8,95.9,279.8,95.9z"/>
	</g>
	<g id="XMLID_7495_">
		<path id="XMLID_7496_" class="st0" d="M30.2,113.6c0,0,0.3-0.4,0.7-1.2c0.2-0.4,0.5-0.9,0.8-1.4c0.3-0.5,0.7-1.1,1.1-1.8
			c1.6-2.6,4.1-5.8,6.9-8.9c2.8-3,5.9-5.8,8.3-7.7c1.2-1,2.3-1.7,3-2.3c0.7-0.6,1.2-0.9,1.2-0.9c0,0,0.5-0.3,1.3-0.7
			c0.8-0.5,1.9-1.1,3.2-1.8c0.7-0.3,1.4-0.7,2.2-1.1c0.8-0.4,1.6-0.7,2.5-1.1c0.4-0.2,0.9-0.4,1.3-0.6c0.5-0.2,0.9-0.3,1.4-0.5
			c0.9-0.3,1.8-0.7,2.8-1c3.8-1.3,7.6-2.2,10.6-2.7c1.5-0.3,2.7-0.4,3.5-0.5c0.9-0.1,1.3-0.2,1.3-0.2s-0.5,0.1-1.3,0.2
			c-0.8,0.2-2.1,0.3-3.5,0.7c-2.9,0.6-6.7,1.7-10.4,3.1c-0.9,0.4-1.8,0.8-2.7,1.1c-0.4,0.2-0.9,0.4-1.3,0.6
			c-0.4,0.2-0.8,0.4-1.3,0.6c-0.8,0.4-1.6,0.8-2.4,1.2c-0.7,0.4-1.4,0.8-2.1,1.2c-1.3,0.7-2.3,1.4-3.1,1.9c-0.7,0.5-1.2,0.8-1.2,0.8
			c0,0-0.5,0.3-1.2,0.8c-0.7,0.5-1.8,1.2-3.1,2.1c-2.5,1.8-5.6,4.4-8.5,7.3c-2.8,2.9-5.5,6-7.2,8.5c-0.5,0.6-0.9,1.2-1.2,1.7
			c-0.3,0.5-0.6,1-0.9,1.3C30.5,113.2,30.2,113.6,30.2,113.6z"/>
	</g>
	<g id="XMLID_7493_">
		<path id="XMLID_7494_" class="st0" d="M23.9,109.7c0,0,1.3-1.6,3.2-4c0.5-0.6,1-1.2,1.6-1.9c0.5-0.7,1.2-1.3,1.9-2.1
			c1.3-1.4,2.7-2.9,4.1-4.4c3-2.8,5.9-5.7,8.4-7.6c1.2-1,2.2-1.8,2.9-2.4c0.7-0.6,1.1-0.9,1.2-0.9c0.1,0,1.8-1.2,4.3-2.9
			c0.6-0.4,1.3-0.9,2-1.4c0.7-0.4,1.5-0.9,2.3-1.4c1.6-0.9,3.3-2,5.1-2.9c3.6-1.8,7.1-3.6,9.9-4.7c2.7-1.2,4.6-1.9,4.6-1.9
			s-1.8,0.8-4.5,2.1c-2.7,1.2-6.2,3.2-9.6,5.1c-1.7,1-3.4,2.1-4.9,3.1c-0.8,0.5-1.5,1-2.3,1.5c-0.7,0.5-1.3,1-1.9,1.4
			c-2.4,1.8-4,3-4.1,3c0,0-0.5,0.3-1.2,0.9c-0.7,0.6-1.8,1.3-3,2.3c-2.5,1.8-5.5,4.6-8.6,7.2c-1.5,1.4-2.9,2.9-4.3,4.2
			c-0.7,0.7-1.4,1.3-1.9,2c-0.6,0.7-1.1,1.3-1.6,1.8C25.3,108.2,23.9,109.7,23.9,109.7z"/>
	</g>
	<g id="XMLID_7491_">
		<path id="XMLID_7492_" class="st0" d="M30.8,100c0,0,0.2-0.4,0.5-1.1c0.4-0.7,0.8-1.7,1.5-2.9c1.2-2.4,3.2-5.4,5.3-8.2
			c2.2-2.8,4.6-5.5,6.5-7.4c1-1,1.8-1.7,2.4-2.3c0.6-0.6,1-0.9,1-0.9c0,0,0.4-0.3,1-0.8c0.6-0.5,1.5-1.1,2.6-1.9
			c2.1-1.5,5.2-3.3,8.3-4.8c3.1-1.5,6.3-2.8,8.8-3.5c1.2-0.4,2.3-0.7,3-0.9c0.7-0.2,1.1-0.3,1.1-0.3s-0.4,0.1-1.1,0.4
			c-0.7,0.3-1.7,0.5-2.9,1c-2.4,0.9-5.5,2.3-8.5,4c-3,1.7-5.9,3.6-7.9,5.2c-1.1,0.8-1.9,1.5-2.5,2c-0.6,0.5-0.9,0.8-1,0.8
			c0,0-0.4,0.3-1,0.8c-0.6,0.5-1.5,1.2-2.5,2.1c-2,1.8-4.5,4.3-6.8,7c-2.2,2.7-4.3,5.6-5.6,7.9c-0.7,1.1-1.2,2.1-1.6,2.8
			C31,99.6,30.8,100,30.8,100z"/>
	</g>
	<g id="XMLID_7489_">
		<path id="XMLID_7490_" class="st0" d="M27.3,88.6c0,0,0.8-1.3,2.1-3.1c0.3-0.5,0.7-1,1-1.5c0.4-0.5,0.8-1.1,1.2-1.6
			c0.9-1.1,1.8-2.3,2.8-3.5c2.1-2.2,4.1-4.5,5.8-6c0.8-0.8,1.6-1.4,2.1-1.9c0.5-0.5,0.8-0.7,0.8-0.7c0,0,1.3-0.9,3.1-2.2
			c0.5-0.3,1-0.7,1.5-1c0.5-0.3,1.1-0.7,1.7-1c1.2-0.7,2.5-1.5,3.7-2.2c2.7-1.3,5.3-2.7,7.3-3.4c2-0.8,3.4-1.3,3.4-1.3
			s-1.3,0.6-3.3,1.5c-2,0.8-4.5,2.4-7.1,3.8c-1.2,0.8-2.4,1.6-3.6,2.4c-0.6,0.4-1.1,0.8-1.6,1.1c-0.5,0.4-1,0.8-1.4,1.1
			c-1.7,1.4-2.9,2.3-2.9,2.3c0,0-0.3,0.2-0.9,0.7c-0.5,0.4-1.3,1-2.1,1.8c-1.8,1.4-3.9,3.5-6.1,5.6c-1,1.1-2,2.3-2.9,3.3
			c-0.5,0.5-0.9,1-1.3,1.5c-0.4,0.5-0.8,1-1.1,1.5C28.2,87.3,27.3,88.6,27.3,88.6z"/>
	</g>
	<g id="XMLID_7487_">
		<path id="XMLID_7488_" class="st0" d="M36.4,115.4c0,0,0.9-1,2.3-2.5c1.3-1.6,3.4-3.4,5.3-5.4c2.1-1.8,4.2-3.7,5.9-4.9
			c0.8-0.6,1.5-1.2,2-1.5c0.5-0.4,0.8-0.6,0.8-0.6c0,0,1.2-0.7,3-1.7c0.4-0.3,0.9-0.5,1.4-0.8c0.5-0.3,1.1-0.5,1.6-0.8
			c1.1-0.6,2.3-1.2,3.5-1.8c2.5-1,4.9-2.2,6.8-2.8c1.9-0.7,3.1-1.1,3.1-1.1s-1.2,0.5-3.1,1.3c-1.9,0.7-4.2,2-6.6,3.2
			c-1.2,0.6-2.3,1.3-3.4,2c-0.5,0.3-1.1,0.6-1.6,0.9c-0.5,0.3-0.9,0.6-1.3,0.9c-1.7,1.1-2.8,1.9-2.8,1.9c0,0-0.3,0.2-0.8,0.5
			c-0.5,0.3-1.2,0.8-2.1,1.4c-1.8,1.1-3.9,2.8-6.1,4.5c-2.1,1.8-4.2,3.5-5.6,5C37.4,114.4,36.4,115.4,36.4,115.4z"/>
	</g>
	<g id="XMLID_7485_">
		<path id="XMLID_7486_" class="st0" d="M89.3,47.1c0,0,0.7,0,1.8,0c0.6,0,1.3,0,2.1,0c0.8,0,1.7,0,2.7,0c3.9,0.1,9.1,0.5,14.3,1.3
			c5.2,0.9,10.3,2.1,14.1,3.2c1.9,0.5,3.5,1.1,4.6,1.5c1.1,0.4,1.8,0.6,1.8,0.6c0,0,0.7,0.3,1.7,0.7c1.1,0.5,2.6,1.1,4.3,1.9
			c0.9,0.4,1.8,0.9,2.8,1.3c1,0.5,2,1.1,3,1.6c0.5,0.3,1.1,0.6,1.6,0.9c0.5,0.3,1.1,0.6,1.6,1c1.1,0.7,2.2,1.3,3.2,2
			c4.3,2.8,8.3,5.8,11.2,8.3c1.5,1.2,2.6,2.3,3.4,3c0.8,0.7,1.3,1.2,1.3,1.2s-0.5-0.4-1.3-1.1c-0.9-0.7-2-1.8-3.5-2.9
			c-3-2.4-7.1-5.3-11.4-7.9c-1.1-0.7-2.2-1.2-3.3-1.9c-0.5-0.3-1.1-0.6-1.6-0.9c-0.5-0.3-1.1-0.5-1.6-0.8c-1.1-0.5-2.1-1-3.1-1.5
			c-1-0.4-1.9-0.9-2.8-1.2c-1.7-0.8-3.2-1.3-4.3-1.8c-1.1-0.4-1.7-0.6-1.7-0.7c0,0-0.7-0.3-1.8-0.7c-1.1-0.4-2.6-1-4.5-1.6
			c-3.7-1.3-8.8-2.7-13.9-3.7c-5.1-0.9-10.3-1.6-14.2-1.8c-1-0.1-1.9-0.1-2.7-0.1c-0.8,0-1.5,0-2.1,0C89.9,47.1,89.3,47.1,89.3,47.1
			z"/>
	</g>
	<g id="XMLID_7483_">
		<path id="XMLID_7484_" class="st0" d="M118.1,43.8c0,0,0.6,0,1.6,0c0.5,0,1.1,0,1.9,0c0.4,0,0.7,0,1.2,0c0.4,0,0.8,0.1,1.3,0.1
			c3.6,0.2,8.3,0.8,12.9,1.8c4.7,1.1,9.2,2.6,12.6,3.9c1.7,0.6,3.1,1.3,4,1.7c1,0.4,1.6,0.7,1.6,0.7c0,0,0.6,0.3,1.5,0.8
			c0.9,0.5,2.2,1.2,3.7,2.2c0.7,0.5,1.5,1,2.4,1.5c0.8,0.6,1.7,1.2,2.6,1.8c0.4,0.3,0.9,0.6,1.3,1c0.4,0.3,0.9,0.7,1.3,1.1
			c0.9,0.7,1.8,1.4,2.7,2.2c1.7,1.6,3.4,3.1,4.9,4.7c1.5,1.5,2.8,3.1,3.9,4.5c0.6,0.7,1,1.3,1.4,1.9c0.4,0.6,0.8,1.1,1,1.5
			c0.6,0.8,0.9,1.3,0.9,1.3s-0.3-0.5-1-1.3c-0.3-0.4-0.7-0.9-1.1-1.4c-0.4-0.6-0.9-1.2-1.5-1.8c-1.1-1.3-2.4-2.8-4-4.3
			c-1.5-1.6-3.3-3-5-4.5c-0.9-0.7-1.8-1.4-2.7-2.1c-0.5-0.3-0.9-0.7-1.3-1c-0.5-0.3-0.9-0.6-1.4-0.9c-0.9-0.6-1.8-1.2-2.6-1.7
			c-0.9-0.5-1.7-1-2.4-1.4c-1.5-0.9-2.8-1.5-3.7-2c-0.9-0.5-1.5-0.7-1.5-0.8c0,0-0.6-0.3-1.5-0.8c-1-0.4-2.3-1.2-3.9-1.8
			c-3.3-1.4-7.7-3.1-12.3-4.3c-4.6-1.2-9.3-2-12.8-2.3c-0.4,0-0.9-0.1-1.3-0.1c-0.4,0-0.8,0-1.1-0.1c-0.7,0-1.3-0.1-1.9-0.1
			C118.7,43.8,118.1,43.8,118.1,43.8z"/>
	</g>
	<g id="XMLID_7481_">
		<path id="XMLID_7482_" class="st0" d="M115.8,31.7c0,0,0.6,0.1,1.6,0.2c1,0.2,2.4,0.3,4.1,0.6c3.4,0.5,7.9,1.6,12.4,2.9
			c4.4,1.4,8.8,3,12,4.5c1.6,0.7,2.9,1.4,3.9,1.8c0.9,0.4,1.5,0.7,1.5,0.8c0,0,0.5,0.3,1.4,0.8c0.9,0.5,2.1,1.2,3.5,2.2
			c2.9,1.8,6.5,4.5,10,7.4c3.4,2.9,6.7,6,9,8.5c1.2,1.2,2,2.3,2.7,3c0.6,0.7,1,1.2,1,1.2s-0.4-0.4-1.1-1.1c-0.7-0.7-1.6-1.8-2.8-2.9
			c-2.4-2.4-5.7-5.3-9.2-8.1c-3.6-2.7-7.3-5.2-10.2-6.9c-1.4-0.9-2.7-1.5-3.6-2c-0.9-0.5-1.4-0.8-1.4-0.8c0,0-0.6-0.3-1.5-0.8
			c-0.9-0.5-2.2-1.2-3.7-1.9c-3.1-1.5-7.4-3.4-11.7-4.9c-4.4-1.5-8.8-2.6-12.2-3.3c-1.7-0.4-3.1-0.6-4.1-0.7
			C116.3,31.8,115.8,31.7,115.8,31.7z"/>
	</g>
	<g id="XMLID_7479_">
		<path id="XMLID_7480_" class="st0" d="M138.9,27.5c0,0,0.5,0.1,1.3,0.2c0.9,0.1,2.1,0.3,3.5,0.6c2.9,0.6,6.7,1.5,10.5,2.7
			c3.8,1.2,7.5,2.7,10.2,4c1.4,0.6,2.5,1.2,3.3,1.6c0.8,0.4,1.2,0.7,1.3,0.7c0,0,0.5,0.3,1.2,0.8c0.7,0.5,1.7,1.2,2.9,2
			c2.4,1.7,5.4,4.2,7.9,7.1c1.3,1.4,2.4,3,3.5,4.5c1,1.5,1.8,3,2.4,4.3c0.3,0.6,0.6,1.3,0.8,1.8c0.2,0.5,0.4,1,0.5,1.4
			c0.2,0.8,0.4,1.3,0.4,1.3s-0.2-0.4-0.4-1.2c-0.1-0.4-0.3-0.9-0.6-1.4c-0.2-0.5-0.5-1.1-0.8-1.8c-0.6-1.3-1.5-2.7-2.5-4.2
			c-1.1-1.4-2.3-2.9-3.6-4.3c-2.7-2.7-5.7-5-8.1-6.6c-1.2-0.8-2.2-1.4-3-1.8c-0.7-0.4-1.2-0.7-1.2-0.7c0,0-0.5-0.3-1.2-0.7
			c-0.8-0.4-1.8-1.1-3.1-1.8c-2.6-1.4-6.2-3-9.9-4.4c-3.7-1.4-7.5-2.5-10.3-3.2c-1.4-0.3-2.6-0.6-3.5-0.7
			C139.4,27.6,138.9,27.5,138.9,27.5z"/>
	</g>
	<g id="XMLID_7477_">
		<path id="XMLID_7478_" class="st0" d="M202.4,46.9c0,0-0.1,0.2-0.4,0.5c-0.2,0.3-0.6,0.7-1,1.3c-0.8,1.1-1.8,2.6-2.7,4.2
			c-0.8,1.6-1.5,3.3-2,4.6c-0.2,0.6-0.4,1.2-0.6,1.6c-0.1,0.4-0.2,0.6-0.2,0.6c0,0-0.1,0.2-0.2,0.6c-0.2,0.4-0.4,0.9-0.6,1.5
			c-0.5,1.2-1.1,2.9-1.6,4.6c-1,3.4-1.8,6.9-1.8,6.9s0.4-3.5,1.1-7c0.4-1.8,0.8-3.5,1.1-4.8c0.2-0.7,0.3-1.2,0.5-1.6
			c0.1-0.4,0.2-0.6,0.2-0.6c0,0,0.1-0.2,0.3-0.6c0.2-0.4,0.4-0.9,0.7-1.6c0.6-1.3,1.5-2.9,2.5-4.5c1-1.5,2.2-3,3.1-4
			c0.4-0.5,0.9-0.9,1.2-1.2C202.3,47.1,202.4,46.9,202.4,46.9z"/>
	</g>
	<g id="XMLID_7475_">
		<path id="XMLID_7476_" class="st0" d="M166.4,41.4c0,0,0.3,0.1,0.9,0.4c0.5,0.3,1.4,0.5,2.2,1c1.8,0.9,4.2,2.4,6.3,4.1
			c2.1,1.8,4.1,3.7,5.4,5.4c0.7,0.8,1.2,1.5,1.6,2c0.4,0.5,0.6,0.8,0.6,0.8c0,0,0.2,0.3,0.5,0.9c0.1,0.3,0.3,0.6,0.5,1
			c0.2,0.4,0.4,0.8,0.6,1.3c0.9,1.9,1.7,4.5,2.3,7.1c0.6,2.6,1.1,5.2,1.6,7.1c0.2,1,0.5,1.7,0.7,2.3c0.2,0.6,0.3,0.9,0.3,0.9
			s-0.1-0.3-0.3-0.8c-0.2-0.5-0.5-1.3-0.8-2.3c-0.6-1.9-1.3-4.5-2-7c-0.7-2.5-1.7-5-2.6-6.7c-0.2-0.5-0.5-0.8-0.7-1.2
			c-0.2-0.3-0.4-0.6-0.6-0.9c-0.3-0.5-0.5-0.8-0.5-0.8c0,0-0.2-0.3-0.6-0.8c-0.4-0.5-0.8-1.2-1.4-2c-1.2-1.7-3-3.7-5-5.6
			c-2-1.8-4.2-3.4-6-4.5c-0.9-0.6-1.6-0.9-2.2-1.2C166.7,41.6,166.4,41.4,166.4,41.4z"/>
	</g>
	<g id="XMLID_7473_">
		<path id="XMLID_7474_" class="st0" d="M231.3,49.5c0,0-0.9,0.2-2.3,0.6c-1.4,0.3-3.2,1-5,1.6c-1.7,0.8-3.5,1.5-4.7,2.2
			c-0.6,0.3-1.1,0.6-1.5,0.8c-0.4,0.2-0.6,0.3-0.6,0.3c0,0-0.8,0.5-2,1.1c-0.3,0.2-0.6,0.3-1,0.5c-0.3,0.2-0.7,0.5-1,0.7
			c-0.7,0.5-1.5,1-2.2,1.5c-1.4,1.2-2.9,2.3-3.8,3.3c-1,1-1.6,1.6-1.6,1.6s0.6-0.7,1.5-1.8c0.8-1.1,2.2-2.4,3.5-3.7
			c0.7-0.6,1.4-1.2,2.1-1.8c0.3-0.3,0.7-0.5,1-0.8c0.3-0.2,0.7-0.4,0.9-0.6c1.2-0.8,2-1.3,2-1.4c0,0,0.2-0.1,0.6-0.3
			c0.4-0.2,1-0.4,1.6-0.7c1.3-0.7,3.2-1.2,5-1.8c1.9-0.4,3.7-1,5.1-1.1C230.4,49.6,231.3,49.5,231.3,49.5z"/>
	</g>
	<g id="XMLID_7471_">
		<path id="XMLID_7472_" class="st0" d="M257.9,64.2c0,0-0.4-0.2-1-0.4c-0.3-0.1-0.7-0.3-1.1-0.5c-0.4-0.2-0.9-0.4-1.5-0.6
			c-2.2-0.9-5.2-1.7-8.2-2.2c-3.1-0.5-6.2-0.6-8.5-0.5c-1.2,0-2.1,0.2-2.8,0.2c-0.7,0-1.1,0.1-1.1,0.1c0,0-0.4,0-1.1,0.1
			c-0.7,0.1-1.6,0.1-2.7,0.3c-0.6,0.1-1.2,0.2-1.8,0.3c-0.6,0.1-1.3,0.3-2,0.5c-0.3,0.1-0.7,0.2-1,0.2c-0.3,0.1-0.7,0.2-1,0.3
			c-0.7,0.2-1.4,0.4-2.1,0.7c-2.8,1-5.5,2.4-7.5,3.5c-1,0.5-1.7,1.1-2.3,1.5c-0.5,0.4-0.9,0.6-0.9,0.6s0.3-0.2,0.8-0.6
			c0.5-0.4,1.2-1,2.2-1.6c1.9-1.3,4.5-2.8,7.3-4c0.7-0.3,1.4-0.5,2.1-0.8c0.4-0.1,0.7-0.3,1.1-0.4c0.4-0.1,0.7-0.2,1-0.3
			c0.7-0.2,1.4-0.4,2-0.6c0.6-0.1,1.3-0.3,1.8-0.4c1.1-0.3,2.1-0.4,2.8-0.5c0.7-0.1,1.1-0.2,1.1-0.2c0,0,0.4-0.1,1.2-0.1
			c0.7,0,1.7-0.1,2.9,0c2.4,0,5.6,0.4,8.6,1c3.1,0.7,6,1.7,8.2,2.7c0.5,0.2,1,0.5,1.4,0.7c0.4,0.2,0.8,0.4,1.1,0.6
			C257.6,64,257.9,64.2,257.9,64.2z"/>
	</g>
	<g id="XMLID_7469_">
		<path id="XMLID_7470_" class="st0" d="M262.8,73.3c0,0-1.2-0.4-2.9-0.9c-1.7-0.7-4.2-1.1-6.6-1.6c-2.4-0.3-4.9-0.7-6.7-0.7
			c-0.9,0-1.7-0.1-2.2-0.1c-0.5,0-0.9,0-0.9,0c0,0-1.3,0-3.1-0.1c-0.5,0-0.9,0-1.5,0c-0.5,0-1.1,0.1-1.6,0.1
			c-1.1,0.1-2.3,0.1-3.5,0.2c-2.4,0.4-4.7,0.6-6.5,1.1c-1.7,0.4-2.9,0.7-2.9,0.7s1.1-0.4,2.9-0.9c1.7-0.6,4.1-1.1,6.4-1.6
			c1.2-0.2,2.4-0.3,3.5-0.5c0.6-0.1,1.1-0.1,1.6-0.2c0.5,0,1,0,1.5-0.1c1.8-0.1,3.1-0.1,3.1-0.1c0,0,0.4,0,0.9,0.1
			c0.6,0.1,1.3,0.2,2.3,0.3c1.9,0.1,4.3,0.7,6.8,1.2c2.4,0.7,4.8,1.3,6.5,2.1C261.6,72.9,262.8,73.3,262.8,73.3z"/>
	</g>
	<g id="XMLID_7467_">
		<path id="XMLID_7468_" class="st0" d="M91.1,58.4c0,0,2.1,0.2,5.4,0.4c3.2,0.3,7.5,0.7,11.8,1.3c4.3,0.6,8.6,1.4,11.8,2.2
			c1.6,0.3,2.9,0.7,3.9,0.9c1,0.2,1.5,0.4,1.5,0.4c0,0,0.6,0.2,1.5,0.5c0.9,0.3,2.2,0.7,3.7,1.3c3,1.1,6.9,2.7,10.7,4.6
			c3.8,1.9,7.4,4,10,5.7c1.3,0.8,2.4,1.6,3.1,2.1c0.8,0.5,1.2,0.8,1.2,0.8s-0.4-0.3-1.2-0.8c-0.8-0.5-1.9-1.2-3.2-2
			c-2.7-1.6-6.4-3.6-10.2-5.3c-3.8-1.7-7.7-3.2-10.8-4.1c-1.5-0.5-2.8-0.9-3.7-1.1c-0.9-0.3-1.4-0.4-1.5-0.4c0,0-0.6-0.2-1.5-0.5
			c-0.9-0.3-2.2-0.7-3.8-1.1c-3.1-0.9-7.4-1.8-11.6-2.6c-4.3-0.8-8.5-1.4-11.7-1.8C93.3,58.7,91.1,58.4,91.1,58.4z"/>
	</g>
	<g id="XMLID_7457_">
		<path id="XMLID_7466_" class="st0" d="M69.2,74.2c0,0,1.5-0.3,3.7-0.7c2.2-0.4,5.2-0.8,8.1-1.2c3-0.3,6-0.6,8.3-0.7
			c1.1-0.1,2.1-0.1,2.8-0.1c0.7,0,1.1,0,1.1,0c0.1,0,1.5,0.1,3.7,0.2c0.6,0,1.1,0.1,1.8,0.1c0.6,0.1,1.3,0.1,2,0.2
			c1.4,0.1,2.8,0.3,4.3,0.4c2.9,0.4,5.8,0.8,7.9,1.2c2.1,0.4,3.6,0.7,3.6,0.7s-1.4-0.2-3.6-0.4c-2.1-0.3-5-0.5-7.9-0.7
			c-1.4-0.1-2.9-0.1-4.3-0.2c-0.7,0-1.3,0-2-0.1c-0.6,0-1.2,0-1.8,0c-2.2,0-3.7,0-3.7,0c0,0-0.4,0-1.1,0c-0.7,0-1.6,0-2.7,0
			c-2.3-0.1-5.2,0.1-8.2,0.2c-3,0.2-6,0.4-8.2,0.7C70.7,74.1,69.2,74.2,69.2,74.2z"/>
	</g>
	<g id="XMLID_7455_">
		<path id="XMLID_7456_" class="st0" d="M60.9,90.2c0,0,1.8-0.7,4.6-1.7c2.7-1.1,6.5-2.2,10.2-3.5c3.8-1.1,7.5-2.3,10.4-2.9
			c1.4-0.4,2.6-0.7,3.5-0.9c0.9-0.2,1.4-0.3,1.4-0.3c0.1,0,2-0.3,4.8-0.8c0.7-0.1,1.5-0.3,2.3-0.4c0.8-0.1,1.7-0.2,2.6-0.4
			c1.8-0.2,3.7-0.5,5.5-0.8c3.8-0.4,7.6-0.8,10.4-1c2.8-0.2,4.7-0.3,4.7-0.3s-1.9,0.2-4.7,0.5c-2.8,0.3-6.6,0.9-10.3,1.5
			c-1.9,0.3-3.7,0.7-5.5,1c-0.9,0.2-1.7,0.3-2.5,0.5c-0.8,0.2-1.6,0.3-2.3,0.5c-2.8,0.6-4.7,1-4.8,1.1c0,0-0.5,0.1-1.4,0.3
			c-0.9,0.2-2.1,0.4-3.5,0.7c-2.9,0.6-6.7,1.5-10.5,2.5c-3.8,1.1-7.5,2.1-10.3,3C62.8,89.6,60.9,90.2,60.9,90.2z"/>
	</g>
	<g id="XMLID_7445_">
		<path id="XMLID_7454_" class="st0" d="M41.2,65.5c0,0,0.3-0.3,0.8-0.9c0.5-0.6,1.2-1.5,2.2-2.5c1.9-2,4.6-4.5,7.5-6.8
			c2.9-2.3,6-4.3,8.5-5.7c1.2-0.7,2.3-1.2,3-1.6c0.7-0.4,1.2-0.6,1.2-0.6c0,0,0.5-0.2,1.2-0.5c0.8-0.3,1.8-0.8,3.1-1.2
			c2.5-1,6-1.9,9.5-2.7c3.5-0.7,7.1-1.1,9.7-1.3c1.3-0.1,2.4-0.1,3.2-0.1c0.8,0,1.2,0,1.2,0s-0.4,0-1.2,0.1
			c-0.8,0.1-1.9,0.1-3.2,0.3c-2.6,0.3-6.2,0.9-9.6,1.7c-3.4,0.9-6.8,2-9.3,3.1c-1.3,0.5-2.3,1-3,1.3c-0.7,0.3-1.1,0.5-1.2,0.5
			c0,0-0.5,0.2-1.2,0.5c-0.7,0.4-1.8,0.8-3,1.5c-2.5,1.3-5.6,3.1-8.6,5.2c-3,2.1-5.8,4.5-7.7,6.4c-1,0.9-1.8,1.8-2.3,2.4
			C41.5,65.2,41.2,65.5,41.2,65.5z"/>
	</g>
	<g id="XMLID_7443_">
		<path id="XMLID_7444_" class="st0" d="M55.2,66.2c0,0,0.3-0.1,0.8-0.4c0.5-0.2,1.2-0.6,2-0.9c1.7-0.7,4-1.5,6.4-2.1
			c2.4-0.6,4.9-0.9,6.8-1.1c0.9-0.1,1.7-0.1,2.3-0.1c0.6,0,0.9,0,0.9,0c0,0,0.3,0,0.9,0.1c0.5,0,1.3,0.1,2.2,0.2
			c1.8,0.2,4.2,0.7,6.5,1.3c2.3,0.7,4.6,1.5,6.2,2.3c0.8,0.4,1.5,0.7,1.9,1c0.5,0.2,0.7,0.4,0.7,0.4s-0.3-0.1-0.8-0.3
			c-0.5-0.2-1.2-0.5-2-0.8c-1.7-0.6-3.9-1.3-6.3-1.8c-2.3-0.4-4.7-0.8-6.5-0.8c-0.9-0.1-1.6-0.1-2.2-0.1c-0.5,0-0.8,0-0.9,0
			c0,0-0.3,0-0.9,0c-0.5,0-1.3-0.1-2.2,0c-1.8,0-4.3,0.2-6.7,0.6c-2.4,0.4-4.8,1-6.5,1.7c-0.9,0.3-1.6,0.6-2.1,0.8
			C55.5,66,55.2,66.2,55.2,66.2z"/>
	</g>
	<g id="XMLID_7441_">
		<path id="XMLID_7442_" class="st0" d="M223.2,42c0,0-0.3,0.1-0.8,0.2c-0.5,0.1-1.2,0.2-2.1,0.5c-1.7,0.5-3.9,1.4-6,2.5
			c-2.1,1.2-3.9,2.6-5.3,3.8c-0.7,0.6-1.2,1.1-1.6,1.5c-0.4,0.4-0.6,0.6-0.6,0.6c0,0-0.2,0.2-0.6,0.6c-0.4,0.4-0.9,0.9-1.4,1.5
			c-1.2,1.3-2.5,3.1-3.8,5.1c-1.2,2-2.2,4.1-2.8,5.7c-0.3,0.8-0.5,1.5-0.7,2c-0.2,0.5-0.3,0.8-0.3,0.8s0.1-0.3,0.2-0.8
			c0.1-0.5,0.3-1.2,0.6-2c0.5-1.7,1.3-3.9,2.4-5.9c1.1-2.1,2.3-4.1,3.5-5.5c0.5-0.7,1-1.3,1.4-1.7c0.4-0.4,0.6-0.6,0.6-0.7
			c0,0,0.2-0.3,0.7-0.6c0.4-0.3,1-0.9,1.7-1.4c1.5-1.1,3.5-2.5,5.7-3.5c2.2-1,4.5-1.7,6.3-2.1c0.9-0.2,1.6-0.3,2.1-0.4
			C222.9,42,223.2,42,223.2,42z"/>
	</g>
	<g id="XMLID_7439_">
		<path id="XMLID_7440_" class="st0" d="M259,58.2c0,0-0.9-0.3-2.3-0.8c-1.3-0.5-3.2-0.9-5-1.4c-1.9-0.3-3.7-0.6-5.2-0.6
			c-0.7,0-1.3-0.1-1.7-0.1c-0.4,0-0.7,0-0.7,0c0,0-1-0.1-2.3-0.2c-0.3,0-0.7,0-1.1-0.1c-0.4,0-0.8,0-1.2,0c-0.9,0-1.8,0-2.7,0.1
			c-1.8,0.2-3.7,0.3-5,0.7c-1.4,0.3-2.3,0.5-2.3,0.5s0.9-0.3,2.2-0.7c1.3-0.5,3.2-0.8,5-1.2c0.9-0.1,1.9-0.2,2.7-0.3
			c0.4,0,0.9-0.1,1.3-0.1c0.4,0,0.8,0,1.1,0c1.4,0,2.4-0.1,2.4-0.1c0,0,0.3,0,0.7,0.1c0.4,0.1,1,0.2,1.8,0.3
			c1.5,0.2,3.3,0.7,5.2,1.1c1.8,0.6,3.7,1.2,5,1.8C258.2,57.8,259,58.2,259,58.2z"/>
	</g>
	<g id="XMLID_7437_">
		<path id="XMLID_7438_" class="st0" d="M288.3,103.8c0,0-0.1-0.3-0.3-0.9c-0.2-0.6-0.5-1.4-0.9-2.4c-0.8-2-2-4.5-3.5-7
			c-1.5-2.4-3-4.8-4.4-6.4c-0.3-0.4-0.6-0.8-0.9-1.1c-0.3-0.3-0.5-0.6-0.7-0.9c-0.4-0.5-0.7-0.8-0.7-0.8c0,0-0.9-1.2-2.2-2.8
			c-1.3-1.7-2.9-3.9-4.6-6.1c-1.7-2.1-3.6-4.1-5.3-5.4c-0.2-0.2-0.4-0.3-0.6-0.5c-0.2-0.1-0.4-0.2-0.6-0.4c-0.4-0.2-0.7-0.4-0.9-0.6
			c-0.5-0.3-0.8-0.5-0.8-0.5s0.3,0.2,0.8,0.5c0.3,0.1,0.6,0.3,1,0.5c0.2,0.1,0.4,0.2,0.6,0.3c0.2,0.1,0.4,0.3,0.6,0.4
			c1.7,1.1,3.8,3.1,5.7,5.1c1.9,2.1,3.6,4.2,5,5.8c1.4,1.6,2.3,2.6,2.3,2.7c0,0,0.2,0.3,0.6,0.8c0.2,0.3,0.4,0.6,0.7,0.9
			c0.3,0.4,0.5,0.8,0.8,1.2c1.3,1.8,2.7,4.3,4.1,6.8c1.3,2.6,2.4,5.2,3,7.2c0.4,1,0.6,1.9,0.8,2.5
			C288.2,103.4,288.3,103.8,288.3,103.8z"/>
	</g>
	<g id="XMLID_7435_">
		<path id="XMLID_7436_" class="st0" d="M269.1,118.3c0,0-0.2-0.4-0.4-1c-0.3-0.7-0.7-1.6-1.2-2.7c-1-2.3-2.7-5.1-4.4-7.9
			c-1.8-2.7-3.9-5.4-5.5-7.2c-0.8-0.9-1.6-1.7-2-2.2c-0.5-0.5-0.8-0.8-0.8-0.9c0,0-0.3-0.3-0.8-0.9c-0.5-0.5-1.2-1.3-2-2.1
			c-1.7-1.7-4.1-3.8-6.7-5.8c-2.6-1.9-5.3-3.7-7.4-4.8c-1-0.6-2-1-2.6-1.4c-0.6-0.3-1-0.5-1-0.5s0.4,0.2,1,0.5
			c0.6,0.3,1.6,0.7,2.6,1.2c2.2,1.1,5,2.6,7.7,4.5c2.7,1.8,5.2,3.8,7.1,5.5c0.9,0.8,1.7,1.5,2.2,2c0.5,0.5,0.8,0.8,0.9,0.8
			c0,0,0.3,0.3,0.8,0.9c0.5,0.6,1.2,1.4,2,2.4c1.6,2,3.5,4.7,5.2,7.6c1.7,2.9,3.1,5.9,4.1,8.2c0.5,1.1,0.8,2.1,1.1,2.8
			C269,117.9,269.1,118.3,269.1,118.3z"/>
	</g>
	<g id="XMLID_7433_">
		<path id="XMLID_7434_" class="st0" d="M291.4,155.8c0,0,0-0.3-0.1-0.9c-0.1-0.6-0.2-1.3-0.4-2.3c-0.3-1.9-0.9-4.4-1.7-6.8
			c-0.8-2.4-1.7-4.8-2.5-6.6c-0.4-0.9-0.8-1.6-1-2.1c-0.2-0.5-0.4-0.8-0.4-0.8c0,0-0.1-0.3-0.4-0.8c-0.2-0.5-0.5-1.2-1-2
			c-0.8-1.7-2.1-3.8-3.5-5.9c-1.4-2-3-3.9-4.3-5.3c-0.6-0.7-1.2-1.2-1.6-1.6c-0.4-0.4-0.6-0.6-0.6-0.6s0.2,0.2,0.7,0.5
			c0.4,0.4,1,0.8,1.7,1.5c1.4,1.2,3.1,3.1,4.7,5c1.5,2,3,4.1,3.9,5.7c0.5,0.8,0.9,1.5,1.1,2c0.3,0.5,0.4,0.8,0.4,0.8
			c0,0,0.2,0.3,0.4,0.9c0.2,0.5,0.5,1.3,0.9,2.2c0.7,1.8,1.4,4.3,2,6.8c0.6,2.5,1,5,1.2,7c0.1,1,0.2,1.8,0.2,2.3
			C291.4,155.5,291.4,155.8,291.4,155.8z"/>
	</g>
	<g id="XMLID_7431_">
		<path id="XMLID_7432_" class="st0" d="M238.3,77c0,0-4.9,0.3-9.9,0.6c-2.5,0.3-4.9,0.6-6.8,0.8c-0.9,0.1-1.7,0.2-2.3,0.3
			c-0.6,0.1-0.9,0.1-0.9,0.1c-0.1,0-4.9,0.5-9.7,0.9c-4.8,0.7-9.5,1.4-9.5,1.4s4.7-1,9.4-2.1c4.8-0.8,9.5-1.6,9.6-1.6
			c0,0,0.3,0,0.9-0.1c0.6,0,1.3-0.1,2.3-0.1c1.9-0.1,4.4-0.2,6.8-0.3C233.3,76.9,238.3,77,238.3,77z"/>
	</g>
	<g id="XMLID_7363_">
		<path id="XMLID_7430_" class="st0" d="M285.6,221.3c0,0-0.1-1.3-0.3-3.3c-0.1-2-0.6-4.6-1-7.2c-0.6-2.6-1.1-5.2-1.7-7.1
			c-0.3-1-0.5-1.8-0.7-2.3c-0.2-0.6-0.3-0.9-0.3-0.9c0,0-0.4-1.3-0.9-3.2c-0.1-0.5-0.3-1-0.4-1.5c-0.2-0.5-0.4-1.1-0.6-1.6
			c-0.4-1.1-0.9-2.4-1.3-3.6c-1.1-2.3-2.1-4.7-3-6.4c-0.9-1.7-1.5-2.9-1.5-2.9s0.7,1.1,1.7,2.7c1.1,1.6,2.2,3.9,3.5,6.2
			c0.6,1.2,1.1,2.4,1.6,3.5c0.2,0.6,0.5,1.1,0.7,1.6c0.2,0.5,0.4,1,0.6,1.5c0.7,1.9,1.1,3.1,1.2,3.2c0,0,0.1,0.4,0.2,1
			c0.1,0.6,0.3,1.4,0.5,2.4c0.5,2,0.8,4.7,1.3,7.3c0.2,2.7,0.5,5.3,0.5,7.3C285.6,220,285.6,221.3,285.6,221.3z"/>
	</g>
	<g id="XMLID_7358_">
		<path id="XMLID_7359_" class="st0" d="M225.2,67c0,0-1.1,0.2-2.7,0.6c-1.6,0.3-3.8,1-5.9,1.6c-2.1,0.8-4.2,1.4-5.8,2.1
			c-0.8,0.3-1.4,0.6-1.9,0.8c-0.5,0.2-0.7,0.3-0.7,0.3c0,0-1.1,0.4-2.6,1c-0.4,0.2-0.8,0.3-1.2,0.5c-0.4,0.2-0.9,0.4-1.3,0.6
			c-0.9,0.4-1.9,0.9-2.9,1.4c-1.9,1-3.8,2-5.2,2.9c-1.4,0.9-2.3,1.4-2.3,1.4s0.9-0.6,2.2-1.6c1.3-1,3.1-2.1,5-3.3
			c0.9-0.6,1.9-1.1,2.8-1.6c0.4-0.3,0.9-0.5,1.3-0.7c0.4-0.2,0.8-0.4,1.2-0.6c1.5-0.7,2.5-1.2,2.5-1.2c0,0,0.3-0.1,0.8-0.3
			c0.5-0.2,1.2-0.4,2-0.7c1.6-0.6,3.8-1.1,6-1.7c2.2-0.4,4.4-1,6.1-1.1C224.1,67.1,225.2,67,225.2,67z"/>
	</g>
	<g id="XMLID_7356_">
		<path id="XMLID_7357_" class="st0" d="M133.1,62.7c0,0-0.5-0.2-1.2-0.6c-0.8-0.4-1.9-1-3.3-1.6c-2.8-1.3-6.6-2.8-10.4-4
			c-3.9-1.2-7.9-2-10.9-2.5c-1.5-0.3-2.8-0.4-3.7-0.5c-0.9-0.1-1.4-0.2-1.5-0.2c0,0-0.5-0.1-1.4-0.2c-0.9-0.1-2.1-0.3-3.6-0.4
			c-3-0.3-6.9-0.4-10.9-0.3c-3.9,0.2-7.9,0.6-10.8,1.1c-1.5,0.2-2.7,0.5-3.5,0.7c-0.8,0.2-1.3,0.3-1.3,0.3s0.5-0.1,1.3-0.3
			c0.8-0.2,2-0.6,3.5-0.8c2.9-0.6,6.8-1.3,10.8-1.6c4-0.3,8-0.4,11-0.2c1.5,0,2.8,0.2,3.7,0.2c0.9,0.1,1.4,0.1,1.5,0.1
			c0,0,0.6,0.1,1.5,0.2c0.9,0.2,2.2,0.4,3.7,0.7c3,0.6,7,1.7,10.9,3c3.9,1.4,7.6,3,10.3,4.4c1.4,0.7,2.5,1.3,3.2,1.8
			C132.7,62.5,133.1,62.7,133.1,62.7z"/>
	</g>
</g>
</svg>
