<?xml version="1.0" encoding="utf-8"?>
<!-- Generator: Adobe Illustrator 19.0.0, SVG Export Plug-In . SVG Version: 6.00 Build 0)  -->
<svg version="1.1" id="Layer_1" xmlns="http://www.w3.org/2000/svg" xmlns:xlink="http://www.w3.org/1999/xlink" x="0px" y="0px"
	 viewBox="0 0 357.4 347.3" style="enable-background:new 0 0 357.4 347.3;" xml:space="preserve">
<style type="text/css">
	.st0{fill:#EF7B05;}
	.st1{fill:#FFFFFF;}
</style>
<g id="XMLID_1918_">
	<path id="XMLID_2011_" class="st0" d="M62.9,325.5c-2.2-10.8-6.1-21.5-9.7-31.6c-3.6-10.2-4.6-20.9-7.4-30.8
		c-1.3-4.6-4.4-8.4-5.7-13.4c-1.4-5.6-2.3-11.3-3.1-17.1c-1.7-12.2,1.3-24.4,0.6-36.6c-0.5-9-3-11.3-8.7-17.6
		c-5.4-5.9-5.8-12.4-6.6-19.9c-0.5-4.5-1.1-7.9-3.7-11.7c-2.3-3.3-6.9-6.1-8.5-9.9c-2.5-6.1,4.4-14.6,4.3-22.1
		c2.3,0.8,4.6,2.8,7.2,2.9c0-5.8-2-13.1,1.9-18.3c0.6-0.8,3.2,0.6,3.8-0.2c0.9-1.3,0-2.3,0.6-3.6c1.4-3.3,0-4.9,3-7.4
		c2-1.7,3.6,0.3,5.5-2.4c1.5-2,0.8-5.7,2.4-8c2.2-3.4,7.8-9.2,11.1-11.5c4.4-3.1,10.7-3.4,14.1-5.7c1.3-0.9,1.1-2.8,3.6-3.7
		c2.5-0.9,5.6,0.7,8,0.6c3.1-0.2,2.7,0.9,4.9-1.2c1.7-1.6,1.5-6.7,4.3-7.9c6.4-2.8,4,7.3,9.7,7.1c3-0.1,11.8-9.5,14.9-11.4
		c5-3.1,9.3-6,15.2-6.2c-0.2,1.4,0.5,3.3,0.2,4.8c4.4-1.8,8.3-7,13.4-9.3c4.6-2.1,9.1-2.9,14.1-2.2c7.1,1,7.4,3.8,12.4-2
		c5.8-6.7,5.7-4.6,12.9-4.4c8.2,0.2,14.5-11.7,23.8-14.1c9.2-2.4,20.6,4.5,29.2,8.1c-0.3,0-0.5,0-0.8,0c6.1,1.4,7.4,1.2,13.1-0.5
		c2.8,6.3,2.1,8.9,9.3,9.8c7.2,0.8,8.1,2.4,13.6,6.6c4.1,3.1,8.9,4,13.5,6.1c5.1,2.4,9.6,6,14.6,8.6c6.4,3.4,5.9,6.9,10.4,11.9
		c3.9,4.3,10.5,2.5,14.3,6.7c4.1,4.7,2.2,6.2,9,9.1c6.4,2.7,11.9,6.1,15.9,11.9c1.5,2.1,2.8,4.3,3,6.7c-2,1.1-4.1,1-6.1-0.3
		c1.8,6.1,0.7,8.6,0.2,14.1c-0.6,6.4,4.9,7.4,5.5,12.8c0.7,5.6-5,6.1-8,10c-4.4,5.7,0,7.9-0.9,13.3c-0.3,1.9-3.3,3.5-3.6,5.6
		c-0.4,3.8,2,5.1,3.7,7.9c3.7,6,3,8,0.2,14.3c-2.2,4.9-4.1,10.6-5.1,16c-1,5.2,1.5,10.8,0.7,15.4c-0.9,5.1-4.6,9.2-5.4,14.8
		c-0.8,5.3-2.4,9.6-3.8,14.8c-3,10.6-3.7,21.4-5.7,32c-0.9,4.7-3.6,7.7-4.8,12.3c-1.5,5.8-1.7,12.1-3.5,17.9
		c-1.7,5.4-2.6,8.9-2.6,14.8c0,4,0.7,11.2-1.9,14.1c-0.1,0.1,0,1.6-0.1,1.8c-3.6-4.8-1.5-14.2-0.6-20.1c1-7.4,1.1-15.3,0.8-22.8
		c-0.6-13,0.1-25.9-0.6-38.9c-0.6-11.2-4.7-21.4-7.8-32.1c-1.4-4.9-4.8-9.7-5.6-14.8c-0.9-5.3,1.6-10.9,3-16
		c2.9-10.2,4.2-21.3-3.2-30.1c-5.6-6.7-12.3-7.9-19.9-11.2c-6.7-3-12.3-6.2-19.8-7.4c-23.4-3.7-48,8.4-70.7,2.5
		c-6.8-1.8-11.5-6-18.4-6.8c-10.8-1.2-20.3,5.6-30.9,6.5c-9.8,0.8-18-5.5-28-2.3c-8.2,2.6-19.3,10.1-23,18.6c-4.3,9.8,0.3,21,0.3,31
		c0,13.8-7.1,26.5-12,39c-10.1,25.8-11.2,62.1-5.7,88.9c0.9,4.4,2.4,10,1.8,14.7C64.2,326.4,63.8,325.9,62.9,325.5z"/>
	<g id="XMLID_1930_">
		<g id="XMLID_2009_">
			<path id="XMLID_2010_" class="st1" d="M190.1,52.6c0,0,0,0.2-0.1,0.6c-0.1,0.4-0.2,0.9-0.4,1.6c-0.4,1.3-1.3,3.2-2.7,5.2
				c-1.4,2-3.4,4-5.8,5.9c-2.4,1.9-5.2,3.5-8,5.1c-5.7,3-11.6,5.8-15.2,9c-0.5,0.4-0.9,0.8-1.3,1.1c-0.4,0.4-0.7,0.8-1.1,1.1
				c-0.7,0.7-1.3,1.3-1.7,1.9c-0.9,1.1-1.4,1.8-1.4,1.8c0,0-0.2,0.2-0.4,0.5c-0.2,0.3-0.5,0.8-0.9,1.4c-0.3,0.6-0.9,1.3-1.2,2.1
				c-0.4,0.9-0.9,1.8-1.3,2.9c-0.3,1.1-0.8,2.3-1.1,3.6c-0.1,0.7-0.3,1.3-0.4,2c-0.2,0.7-0.2,1.4-0.3,2.1c-0.1,0.7-0.1,1.5-0.2,2.2
				c0,0.7,0,1.5,0.1,2.3l0,1.1c0,0.4,0.1,0.8,0.2,1.1l0.4,2.3c1.3,6.1,4.8,11.5,8.1,14.8c0.4,0.4,0.8,0.8,1.2,1.2
				c0.4,0.3,0.8,0.7,1.1,1c0.7,0.7,1.4,1.1,2,1.5c1.1,0.8,1.8,1.2,1.8,1.2s-0.7-0.4-1.8-1.2c-0.6-0.4-1.3-0.8-2-1.4
				c-0.4-0.3-0.8-0.6-1.2-1c-0.4-0.3-0.9-0.7-1.2-1.1c-3.4-3.2-6.9-8.6-8.4-14.8l-0.4-2.3c-0.1-0.4-0.2-0.8-0.2-1.2l-0.1-1.2
				c0-0.8-0.1-1.5-0.1-2.3c0.1-0.8,0.1-1.5,0.2-2.3c0-0.7,0.1-1.5,0.3-2.2c0.1-0.7,0.3-1.4,0.4-2.1c0.3-1.3,0.8-2.5,1.1-3.7
				c0.4-1.1,0.9-2.1,1.3-3c0.4-0.9,0.9-1.6,1.2-2.2c0.4-0.6,0.7-1.1,0.9-1.4c0.2-0.3,0.4-0.5,0.4-0.5c0,0,0.6-0.7,1.5-1.9
				c0.4-0.6,1.1-1.2,1.8-1.9c0.4-0.4,0.7-0.7,1.1-1.1c0.4-0.4,0.9-0.7,1.4-1.1c3.8-3.1,9.8-5.9,15.5-8.8c2.9-1.5,5.7-3,8.1-4.9
				c2.4-1.8,4.4-3.8,5.8-5.7c1.4-1.9,2.3-3.8,2.7-5.1c0.2-0.7,0.4-1.2,0.5-1.6C190,52.8,190.1,52.6,190.1,52.6z"/>
		</g>
		<g id="XMLID_2007_">
			<path id="XMLID_2008_" class="st1" d="M177.8,53.3c0,0-0.8,0-2.2-0.1c-0.7,0-1.6,0-2.5,0.1c-0.5,0-1,0.1-1.6,0.1
				c-0.5,0.1-1.1,0.2-1.7,0.2c-2.4,0.3-5.1,1.1-8,2.1c-2.8,1.1-5.7,2.5-8.4,4.3c-2.7,1.8-5.1,3.9-7.2,6.1c-1,1.1-2,2.2-2.8,3.3
				c-0.4,0.6-0.8,1.1-1.2,1.6c-0.3,0.6-0.7,1.1-1,1.6c-0.7,1-1.1,2-1.6,2.9c-0.5,0.9-0.8,1.7-1,2.3c-0.3,0.7-0.5,1.2-0.6,1.6
				c-0.1,0.4-0.2,0.6-0.2,0.6c0,0.1-0.3,0.8-0.7,2.2c-0.3,1.3-0.8,3.3-1,5.6c-0.6,4.6-0.1,11,1.8,16.9c0.9,3,2.3,5.8,3.8,8.3
				c0.8,1.2,1.5,2.4,2.4,3.5c0.4,0.5,0.8,1,1.2,1.5c0.4,0.5,0.8,0.9,1.2,1.3c0.8,0.9,1.6,1.6,2.3,2.2c0.3,0.3,0.7,0.6,1,0.9
				c0.3,0.3,0.6,0.5,0.9,0.7c1.1,0.8,1.7,1.3,1.7,1.3s-0.6-0.5-1.7-1.3c-0.3-0.2-0.6-0.4-0.9-0.7c-0.3-0.3-0.6-0.6-1-0.9
				c-0.7-0.6-1.5-1.3-2.3-2.2c-0.4-0.4-0.8-0.9-1.3-1.3c-0.4-0.5-0.8-1-1.2-1.5c-0.9-1-1.6-2.2-2.4-3.5c-1.5-2.5-3-5.3-4-8.3
				c-2.1-5.9-2.7-12.4-2.2-17.1c0.2-2.4,0.7-4.3,1-5.7c0.4-1.4,0.6-2.2,0.7-2.2c0,0,0.1-0.2,0.2-0.6c0.1-0.4,0.4-0.9,0.7-1.6
				c0.3-0.7,0.6-1.5,1.1-2.4c0.5-0.9,1-1.9,1.7-2.9c0.3-0.5,0.7-1.1,1-1.6c0.4-0.5,0.8-1.1,1.2-1.6c0.8-1.1,1.9-2.2,2.9-3.3
				c2.2-2.2,4.7-4.3,7.4-6c2.8-1.7,5.7-3.2,8.5-4.2c2.9-1,5.6-1.7,8-1.9c0.6-0.1,1.2-0.1,1.7-0.2c0.6,0,1.1,0,1.6-0.1
				c1-0.1,1.8-0.1,2.5,0C177,53.3,177.8,53.3,177.8,53.3z"/>
		</g>
		<g id="XMLID_2005_">
			<path id="XMLID_2006_" class="st1" d="M156.8,41.4c0,0-0.9,0-2.5-0.1c-1.6,0.1-3.9,0.2-6.6,0.9c-2.7,0.7-5.7,1.9-8.6,3.7
				c-2.9,1.8-5.8,4.1-8.2,6.9c-2.4,2.8-4.3,5.9-5.7,9.1c-1.3,3.2-2.1,6.3-2.6,9c-0.4,2.7-0.5,5-0.5,6.7c0,1.6,0.1,2.6,0.1,2.7
				c0,0.1,0,1,0.2,2.6c0.1,1.6,0.5,3.8,1,6.4c0.6,2.6,1.5,5.6,2.8,8.7c0.7,1.5,1.4,3.1,2.2,4.6c0.9,1.5,1.7,3.1,2.7,4.6
				c3.9,6,8.8,11.3,12.7,14.9c1,0.9,1.9,1.7,2.7,2.4c0.8,0.7,1.6,1.3,2.2,1.8c1.2,1,1.9,1.6,1.9,1.6s-0.7-0.6-1.9-1.5
				c-0.6-0.5-1.4-1.1-2.2-1.8c-0.8-0.7-1.7-1.5-2.8-2.4c-4-3.6-9-8.8-13-14.8c-1-1.5-1.9-3.1-2.8-4.6c-0.8-1.6-1.6-3.1-2.3-4.7
				c-1.4-3.1-2.4-6.1-3-8.8c-0.6-2.7-1-4.9-1.1-6.5c-0.2-1.6-0.2-2.6-0.2-2.6c0-0.1-0.1-1,0-2.7c0-1.7,0.2-4,0.7-6.8
				c0.5-2.8,1.3-5.9,2.8-9.1c1.4-3.2,3.4-6.4,5.9-9.1c2.5-2.8,5.4-5.1,8.4-6.9c3-1.8,6-2.9,8.7-3.6c2.7-0.7,5-0.7,6.6-0.8
				C155.8,41.4,156.8,41.4,156.8,41.4z"/>
		</g>
		<g id="XMLID_2003_">
			<path id="XMLID_2004_" class="st1" d="M127.8,46.1c0,0-0.5,0.5-1.5,1.4c-0.5,0.4-1,1-1.6,1.7c-0.3,0.3-0.6,0.7-1,1
				c-0.3,0.4-0.6,0.8-1,1.2c-1.4,1.7-2.8,3.8-4.3,6.1c-1.4,2.4-2.6,5-3.7,7.7c-1,2.7-1.8,5.6-2.3,8.2c-0.5,2.7-0.8,5.2-0.8,7.4
				c-0.1,2.2,0,4,0.1,5.3c0.1,1.3,0.2,2.1,0.2,2.1c0,0,0.1,0.8,0.3,2c0.2,1.2,0.5,3,1.1,5.1c1.1,4.1,3.3,9.4,6.4,14.1
				c1.5,2.4,3.4,4.6,5.1,6.5c1.8,1.9,3.6,3.6,5.3,4.9c0.8,0.7,1.6,1.2,2.3,1.7c0.7,0.5,1.3,0.9,1.9,1.2c1.1,0.6,1.7,1,1.7,1
				s-0.6-0.4-1.7-1c-0.5-0.3-1.2-0.7-1.9-1.2c-0.7-0.5-1.5-1-2.4-1.7c-1.7-1.3-3.6-2.9-5.5-4.8c-1.8-1.9-3.7-4.1-5.3-6.5
				c-3.2-4.7-5.6-10-6.8-14.2c-0.6-2.1-1-3.9-1.2-5.1c-0.2-1.3-0.3-2-0.3-2.1c0-0.1-0.1-0.8-0.2-2.1c-0.1-1.3-0.2-3.2,0-5.4
				c0.1-2.2,0.4-4.8,1-7.5c0.6-2.7,1.4-5.5,2.5-8.3c1.1-2.7,2.4-5.4,3.9-7.7c1.5-2.3,3-4.4,4.4-6.1c0.4-0.4,0.7-0.8,1-1.2
				c0.3-0.4,0.7-0.7,1-1c0.6-0.6,1.2-1.2,1.6-1.6C127.3,46.6,127.8,46.1,127.8,46.1z"/>
		</g>
		<g id="XMLID_2001_">
			<path id="XMLID_2002_" class="st1" d="M118.3,49.5c0,0-0.6,0.5-1.6,1.4c-0.5,0.4-1.1,1-1.7,1.7c-0.3,0.3-0.7,0.7-1,1.1
				c-0.3,0.4-0.7,0.8-1,1.3c-1.5,1.8-2.9,4.1-4.1,6.7c-1.2,2.6-2.2,5.5-2.8,8.5c-0.7,3-0.9,6.1-1,8.9c0,1.4,0,2.8,0.2,4.1
				c0.1,1.3,0.3,2.6,0.5,3.7c0.4,2.3,0.9,4.2,1.3,5.5c0.4,1.3,0.7,2.1,0.7,2.1c0,0,0.3,0.8,0.7,2c0.5,1.2,1.2,3,2.2,5
				c2,4,5.3,9,9.3,13.5c3.9,4.5,8.5,8.4,12,11.1c1.8,1.4,3.3,2.5,4.4,3.2c1.1,0.7,1.7,1.2,1.7,1.2s-0.6-0.4-1.7-1.1
				c-1.1-0.7-2.6-1.8-4.4-3.1c-3.6-2.7-8.2-6.5-12.3-10.9c-4.1-4.4-7.6-9.4-9.6-13.4c-1.1-2-1.8-3.8-2.4-5c-0.5-1.3-0.8-2-0.8-2.1
				c0,0-0.3-0.8-0.7-2.2c-0.4-1.3-0.9-3.3-1.2-5.6c-0.2-1.2-0.3-2.4-0.4-3.8c-0.1-1.3-0.1-2.7-0.1-4.2c0.1-2.9,0.4-6,1.1-9
				c0.7-3,1.7-5.9,3-8.5c1.3-2.6,2.8-4.9,4.3-6.6c0.4-0.4,0.7-0.9,1.1-1.3c0.4-0.4,0.7-0.7,1.1-1.1c0.7-0.7,1.2-1.2,1.8-1.7
				C117.8,50,118.3,49.5,118.3,49.5z"/>
		</g>
		<g id="XMLID_1999_">
			<path id="XMLID_2000_" class="st1" d="M111.4,47.4c0,0-0.7,0.4-2,1.2c-0.6,0.4-1.5,0.8-2.3,1.5c-0.4,0.3-0.9,0.7-1.3,1
				c-0.2,0.2-0.5,0.4-0.7,0.5c-0.2,0.2-0.4,0.4-0.7,0.7c-0.9,0.9-2,1.8-2.9,3c-0.4,0.6-1,1.1-1.4,1.8c-0.4,0.7-0.8,1.3-1.3,2
				c-1.5,2.8-2.8,6-3.4,9.4c-1.2,6.8-0.3,13.7,1.2,18.7c0.7,2.5,1.5,4.5,2,5.9c0.6,1.4,1,2.2,1,2.3c0,0.1,0.3,0.9,1,2.2
				c0.7,1.3,1.7,3.2,3,5.3c1.4,2.1,3.1,4.4,5.2,6.8c2.1,2.3,4.5,4.7,7,6.8c2.6,2.1,5.3,4.1,7.9,5.8c2.7,1.7,5.2,3.1,7.4,4.2
				c1.1,0.6,2.2,1.1,3.1,1.5c0.9,0.4,1.7,0.8,2.4,1c1.4,0.5,2.1,0.9,2.1,0.9s-0.8-0.3-2.1-0.8c-0.7-0.3-1.5-0.6-2.4-1
				c-0.9-0.4-2-0.9-3.1-1.4c-2.3-1.1-4.8-2.5-7.5-4.1c-2.7-1.6-5.4-3.6-8-5.7c-2.6-2.1-5-4.5-7.2-6.8c-2.1-2.4-4-4.7-5.4-6.8
				c-1.4-2.1-2.5-4-3.2-5.3c-0.7-1.3-1.1-2.2-1.1-2.2c0-0.1-0.4-0.9-1-2.3c-0.5-1.5-1.3-3.5-2-6.1c-1.4-5-2.3-12.1-0.9-18.9
				c0.6-3.4,2-6.6,3.6-9.4c0.4-0.7,0.9-1.3,1.3-2c0.4-0.6,1-1.2,1.4-1.8c0.9-1.2,2-2.1,2.9-3c0.2-0.2,0.5-0.4,0.7-0.6
				c0.2-0.2,0.5-0.4,0.7-0.5c0.5-0.3,0.9-0.7,1.4-1c0.8-0.7,1.6-1.1,2.3-1.4C110.7,47.8,111.4,47.4,111.4,47.4z"/>
		</g>
		<g id="XMLID_1997_">
			<path id="XMLID_1998_" class="st1" d="M87.1,66.3c0,0-0.5,0.5-1.4,1.3c-0.8,0.9-2.1,2.2-3.1,4c-2.2,3.6-3.9,9.2-3.6,14.8
				c0.2,5.7,2.5,11,4.7,14.6c0.6,0.9,1.1,1.7,1.6,2.4c0.5,0.7,1,1.3,1.4,1.8c0.8,1,1.3,1.5,1.3,1.6c0,0,0.5,0.6,1.3,1.5
				c0.2,0.2,0.4,0.5,0.7,0.7c0.3,0.3,0.6,0.5,0.9,0.8c0.6,0.6,1.3,1.2,2.1,1.9c3.1,2.7,7.7,5.8,12.7,8.2c4.9,2.4,10.1,4.3,14,5.7
				c2,0.7,3.6,1.2,4.7,1.6c1.1,0.4,1.8,0.6,1.8,0.6s-0.7-0.2-1.8-0.5c-1.2-0.3-2.8-0.8-4.8-1.5c-3.9-1.3-9.1-3.1-14.1-5.4
				c-5-2.3-9.8-5.3-13-8c-0.8-0.7-1.5-1.3-2.2-1.9c-0.3-0.3-0.6-0.6-0.9-0.8c-0.3-0.3-0.5-0.5-0.7-0.7c-0.9-0.9-1.4-1.4-1.4-1.5
				c0,0-0.6-0.6-1.3-1.6c-0.4-0.5-0.9-1.1-1.4-1.8c-0.5-0.7-1-1.6-1.6-2.5c-2.2-3.7-4.4-9.2-4.5-14.9c-0.2-5.7,1.6-11.3,3.9-14.9
				c1.1-1.8,2.4-3.1,3.2-4C86.6,66.8,87.1,66.3,87.1,66.3z"/>
		</g>
		<g id="XMLID_1995_">
			<path id="XMLID_1996_" class="st1" d="M77.9,57.8c0,0,0.1-0.2,0.5-0.5c0.4-0.3,1.1-0.6,2-0.5c0.9,0.1,2,0.5,2.8,1.6
				c0.7,1.1,0.9,2.6,0.4,4.1c-0.4,1.5-1.5,2.9-3,4c-1.4,1.1-3,2.1-4.7,3.1c-3.3,2-7,4-10.4,6.3c-1.7,1.2-3.4,2.4-4.8,3.9
				c-1.5,1.4-2.7,3-3.7,4.7c-1.9,3.4-2.6,7-2.8,10.1c-0.2,3.1,0,5.7,0.3,7.5c0.3,1.8,0.5,2.9,0.6,3c0,0.1,0.2,1.1,0.7,2.8
				c0.5,1.7,1.4,4.1,2.8,6.8c1.4,2.7,3.3,5.7,5.9,8.4c2.6,2.8,5.7,5.3,9.3,7.2c3.5,1.9,7.4,3.3,11.1,4c3.7,0.7,7.3,0.8,10.3,0.6
				c3-0.2,5.5-0.7,7.2-1.2c0.9-0.2,1.5-0.5,2-0.6c0.5-0.1,0.7-0.2,0.7-0.2s-0.2,0.1-0.7,0.2c-0.5,0.1-1.1,0.4-2,0.6
				c-1.7,0.5-4.2,1-7.2,1.3c-3,0.3-6.6,0.2-10.3-0.5c-3.8-0.6-7.6-2-11.3-3.8c-3.6-1.9-6.9-4.4-9.5-7.2c-2.6-2.8-4.7-5.8-6.1-8.5
				c-1.4-2.7-2.4-5.1-2.9-6.9c-0.6-1.7-0.8-2.8-0.8-2.9c0-0.1-0.2-1.2-0.5-3c-0.3-1.9-0.5-4.5-0.2-7.7c0.2-3.2,1-6.9,3.1-10.3
				c1-1.7,2.3-3.3,3.8-4.7c1.5-1.4,3.2-2.7,4.9-3.8c3.5-2.3,7.2-4.2,10.6-6.2c1.7-1,3.3-1.9,4.7-3c1.4-1.1,2.5-2.4,3-3.9
				c0.5-1.5,0.3-3-0.4-4c-0.7-1.1-1.8-1.5-2.7-1.6c-0.9-0.1-1.6,0.2-2,0.4C78.1,57.6,78,57.8,77.9,57.8z"/>
		</g>
		<g id="XMLID_1993_">
			<path id="XMLID_1994_" class="st1" d="M77.6,77.3c0,0-0.1,0.6-0.3,1.6c-0.1,0.5-0.2,1.1-0.4,1.8c-0.1,0.4-0.1,0.7-0.2,1.1
				c0,0.4-0.1,0.8-0.1,1.3c-0.1,0.9-0.2,1.9-0.2,2.9c-0.1,1,0,2.1,0,3.2c0,2.2,0.5,4.6,0.8,7c1,4.7,2.8,9.1,4.6,12.3
				c0.4,0.8,0.9,1.5,1.3,2.1c0.4,0.6,0.8,1.1,1.1,1.6c0.3,0.4,0.5,0.8,0.7,1c0.2,0.2,0.3,0.4,0.3,0.4c0,0,0.4,0.5,1.1,1.3
				c0.7,0.8,1.5,2,2.8,3.1c0.6,0.6,1.3,1.3,2,2c0.8,0.6,1.6,1.3,2.5,1.9c0.4,0.3,0.9,0.7,1.3,1c0.5,0.3,1,0.6,1.5,0.9
				c1,0.6,2,1.2,3,1.8c1.1,0.5,2.1,1,3.1,1.5l0.8,0.4l0.8,0.3c0.5,0.2,1.1,0.4,1.6,0.5c2,0.8,4.1,1.1,5.8,1.5
				c0.8,0.2,1.6,0.3,2.3,0.4c0.7,0.1,1.3,0.1,1.8,0.2c1,0.1,1.6,0.2,1.6,0.2s-0.6,0-1.6-0.1c-0.5,0-1.1-0.1-1.8-0.1
				c-0.7,0-1.5-0.1-2.4-0.3c-1.7-0.3-3.7-0.6-5.8-1.4c-0.5-0.2-1.1-0.3-1.6-0.5l-0.8-0.3l-0.8-0.3c-1.1-0.5-2.1-0.9-3.2-1.4
				c-1.1-0.5-2-1.1-3.1-1.7c-0.5-0.3-1-0.6-1.5-0.9c-0.5-0.3-0.9-0.7-1.4-1c-0.9-0.7-1.8-1.3-2.6-1.9c-0.7-0.7-1.5-1.3-2.1-1.9
				c-1.4-1.2-2.3-2.3-3-3.1c-0.7-0.8-1.1-1.3-1.1-1.3c0,0-0.1-0.1-0.3-0.4c-0.2-0.2-0.4-0.6-0.7-1.1c-0.3-0.5-0.6-1-1.1-1.6
				c-0.4-0.6-0.9-1.3-1.3-2.2c-1.7-3.2-3.5-7.8-4.4-12.5c-0.3-2.4-0.7-4.8-0.6-7c0-1.1-0.1-2.2,0-3.2c0.1-1,0.2-2,0.3-2.9
				c0-0.4,0.1-0.9,0.1-1.3c0.1-0.4,0.2-0.8,0.3-1.1c0.2-0.7,0.3-1.3,0.4-1.8C77.5,77.9,77.6,77.3,77.6,77.3z"/>
		</g>
		<g id="XMLID_1991_">
			<path id="XMLID_1992_" class="st1" d="M48.6,90.5c0,0-0.2,0.5-0.7,1.4c-0.2,0.4-0.4,1-0.7,1.6c-0.3,0.6-0.5,1.3-0.8,2.1
				c-0.5,1.6-0.9,3.5-1.2,5.5c-0.3,2.1-0.3,4.3-0.2,6.5c0.1,2.2,0.5,4.4,1,6.4c0.6,2,1.2,3.8,1.9,5.3c0.7,1.5,1.4,2.7,1.9,3.5
				c0.5,0.8,0.9,1.3,0.9,1.3c0,0,0.3,0.5,0.9,1.3c0.6,0.7,1.4,1.8,2.6,3c2.2,2.3,5.7,5,9.6,6.8c1.9,0.9,4,1.6,5.9,2.1
				c2,0.5,3.8,0.8,5.4,0.9c0.8,0.1,1.5,0.1,2.2,0.1c0.7,0,1.2,0,1.7,0c0.9-0.1,1.5-0.1,1.5-0.1s-0.5,0-1.5,0.1
				c-0.5,0.1-1,0.1-1.7,0.1c-0.7,0-1.4,0-2.2,0c-1.6,0-3.5-0.4-5.5-0.8c-2-0.5-4.1-1.1-6.1-2c-4-1.8-7.6-4.3-10-6.7
				c-1.2-1.1-2.1-2.2-2.7-3c-0.6-0.8-0.9-1.3-1-1.3c0,0-0.4-0.5-0.9-1.4c-0.5-0.9-1.2-2.1-1.9-3.7c-0.7-1.6-1.3-3.4-1.8-5.5
				c-0.5-2.1-0.8-4.3-0.9-6.5c-0.1-2.2,0.1-4.5,0.4-6.5c0.4-2.1,0.8-4,1.4-5.5c0.3-0.8,0.5-1.5,0.8-2.1c0.3-0.6,0.5-1.2,0.7-1.6
				C48.3,91,48.6,90.5,48.6,90.5z"/>
		</g>
		<g id="XMLID_1989_">
			<path id="XMLID_1990_" class="st1" d="M197.6,49.6c0,0,0.1,0.1,0.4,0.4c0.2,0.3,0.6,0.7,0.9,1.2c0.7,1.1,1.5,2.9,1.7,5.2
				c0.2,2.3-0.1,5-1,7.7c-0.6,1.3-1.1,2.7-1.8,4c-0.7,1.3-1.4,2.7-2.2,4c-0.7,1.3-1.5,2.6-2.2,4c-0.3,0.7-0.7,1.3-1,2
				c-0.3,0.7-0.5,1.3-0.8,2c-0.2,0.7-0.6,1.3-0.7,2c-0.2,0.7-0.3,1.3-0.5,1.9c-0.2,0.6-0.4,1.2-0.5,1.8c-0.1,0.6-0.2,1.2-0.3,1.8
				c-0.4,2.2-0.4,4.2-0.4,5.5c0,1.3,0.1,2.1,0.1,2.2c0,0.1,0,0.8,0.1,2.1c0,0.7,0.2,1.4,0.3,2.3c0.2,0.9,0.2,1.9,0.6,3
				c0.3,1.1,0.5,2.2,1,3.4c0.5,1.2,0.9,2.4,1.5,3.7c0.7,1.2,1.3,2.5,2.1,3.7c0.4,0.6,0.8,1.2,1.3,1.8l0.6,0.9
				c0.2,0.3,0.5,0.6,0.7,0.8c3.7,4.5,8.6,8,12.6,9.9c1,0.4,1.9,0.9,2.8,1.2c0.8,0.3,1.6,0.5,2.2,0.7c1.2,0.4,1.9,0.6,1.9,0.6
				s-0.7-0.2-1.9-0.6c-0.6-0.2-1.4-0.4-2.2-0.7c-0.8-0.3-1.8-0.7-2.8-1.2c-4-1.8-9-5.2-12.9-9.7c-0.2-0.3-0.5-0.5-0.7-0.8l-0.7-0.9
				c-0.4-0.6-0.9-1.2-1.3-1.8c-0.9-1.2-1.5-2.5-2.2-3.7c-0.6-1.2-1.1-2.5-1.6-3.7c-0.5-1.2-0.7-2.4-1.1-3.5c-0.4-1.1-0.5-2.1-0.7-3
				c-0.1-0.9-0.3-1.7-0.4-2.4c-0.1-1.3-0.1-2.1-0.1-2.2c0-0.1-0.1-0.9,0-2.2c0.1-1.4,0.1-3.3,0.6-5.6c0.1-0.6,0.2-1.2,0.3-1.8
				c0.1-0.6,0.3-1.2,0.5-1.9c0.2-0.6,0.4-1.3,0.6-2c0.2-0.7,0.5-1.3,0.8-2c0.3-0.7,0.6-1.3,0.8-2c0.3-0.7,0.7-1.3,1-2
				c0.7-1.3,1.5-2.6,2.2-4c0.8-1.3,1.5-2.6,2.2-3.9c0.7-1.3,1.2-2.7,1.8-4c1-2.6,1.3-5.3,1.1-7.6c-0.2-2.3-0.9-4.1-1.6-5.2
				c-0.4-0.6-0.7-1-0.9-1.2C197.7,49.7,197.6,49.6,197.6,49.6z"/>
		</g>
		<g id="XMLID_1987_">
			<path id="XMLID_1988_" class="st1" d="M238.1,50.3c0,0,0.2,0,0.6,0.1c0.4,0,1,0.2,1.7,0.6c1.4,0.7,3.1,2.5,3.4,5.2
				c0.4,2.7-1,5.9-3.5,8.2c-2.5,2.3-5.8,3.8-9.1,5.2c-3.3,1.4-6.6,2.9-9.5,4.5c-2.9,1.6-5.5,3.4-7.5,5.2c-1,0.9-1.9,1.7-2.6,2.5
				c-0.4,0.4-0.7,0.8-1,1.1c-0.3,0.4-0.6,0.7-0.8,1c-1,1.2-1.4,2.1-1.5,2.1c0,0.1-0.6,0.8-1.3,2.1c-0.2,0.3-0.4,0.7-0.6,1.1
				c-0.2,0.4-0.4,0.9-0.6,1.4c-0.5,1-0.7,2.1-1.1,3.4c-0.6,2.5-0.8,5.6-0.1,8.7c0.7,3.1,2.1,6.3,4.2,9.1c4,5.7,10.1,9.5,14.7,11.8
				c2.3,1.2,4.3,2.1,5.7,2.7c1.4,0.6,2.2,0.9,2.2,0.9s-0.8-0.3-2.2-0.9c-1.4-0.6-3.4-1.4-5.7-2.6c-4.6-2.2-10.8-5.9-15-11.6
				c-2.1-2.8-3.7-6-4.4-9.2c-0.8-3.2-0.6-6.4-0.1-9c0.4-1.3,0.6-2.5,1.1-3.5c0.2-0.5,0.4-1,0.6-1.4c0.2-0.4,0.4-0.8,0.6-1.2
				c0.7-1.4,1.3-2.2,1.3-2.2c0.1,0,0.5-0.9,1.6-2.1c0.3-0.3,0.5-0.7,0.8-1c0.3-0.4,0.7-0.7,1.1-1.1c0.7-0.8,1.7-1.7,2.7-2.6
				c2.1-1.7,4.7-3.5,7.7-5.2c3-1.6,6.3-3.1,9.6-4.4c3.3-1.3,6.6-2.7,9.1-5c2.4-2.2,3.9-5.3,3.5-8c-0.3-2.7-2-4.5-3.3-5.2
				c-0.7-0.3-1.3-0.6-1.7-0.6C238.3,50.3,238.1,50.3,238.1,50.3z"/>
		</g>
		<g id="XMLID_1985_">
			<path id="XMLID_1986_" class="st1" d="M242.5,52.9c0,0,0.2,0.1,0.5,0.4c0.3,0.2,0.8,0.6,1.2,1.2c0.5,0.6,0.9,1.4,1.3,2.4
				c0.3,1,0.5,2.2,0.5,3.4c-0.1,2.5-0.9,5.6-3.2,7.9c-2.2,2.4-5.2,4.2-8.3,5.5c-3.2,1.3-6.5,2.3-9.4,3.4c-3,1.1-5.7,2.4-7.7,4
				c-1,0.7-1.8,1.6-2.5,2.3c-0.6,0.8-1.2,1.5-1.5,2.2c-0.4,0.6-0.6,1.2-0.8,1.6c-0.2,0.4-0.3,0.6-0.3,0.6c0,0.1-0.3,0.8-0.7,2.2
				c-0.4,1.4-0.6,3.5-0.4,5.9c0.4,4.9,3,11.3,8,15.6c0.6,0.6,1.2,1.1,1.9,1.6c0.7,0.5,1.2,1.1,1.9,1.5c1.4,0.9,2.7,1.8,4.1,2.5
				c0.7,0.4,1.3,0.7,2,1.1c0.7,0.3,1.3,0.6,2,0.9c1.3,0.6,2.5,1.1,3.7,1.5c2.3,0.9,4.2,1.6,5.6,2c1.4,0.5,2.1,0.7,2.1,0.7
				s-0.8-0.3-2.2-0.7c-1.4-0.4-3.3-1.1-5.6-1.9c-1.1-0.5-2.4-0.9-3.7-1.5c-0.6-0.3-1.3-0.6-2-0.9c-0.7-0.3-1.3-0.7-2-1
				c-1.4-0.7-2.7-1.6-4.1-2.4c-0.7-0.4-1.3-1-2-1.5c-0.6-0.5-1.4-1-1.9-1.6c-5.2-4.3-8-10.9-8.5-15.9c-0.3-2.5-0.1-4.7,0.3-6.2
				c0.3-1.5,0.7-2.3,0.7-2.4c0,0,0.1-0.3,0.3-0.6c0.2-0.4,0.4-1,0.8-1.6c0.4-0.7,1-1.4,1.6-2.3c0.8-0.8,1.6-1.6,2.7-2.4
				c2.1-1.6,4.9-2.9,7.9-4c3-1.1,6.3-2,9.5-3.2c3.2-1.2,6.1-2.9,8.3-5.2c2.2-2.3,3.2-5.3,3.3-7.8c0-1.3-0.1-2.4-0.4-3.4
				c-0.3-1-0.7-1.8-1.2-2.4c-0.4-0.6-0.9-1-1.2-1.2C242.7,53,242.5,52.9,242.5,52.9z"/>
		</g>
		<g id="XMLID_1983_">
			<path id="XMLID_1984_" class="st1" d="M197.5,52.7c0,0,0,0.7-0.1,2c0,0.6-0.2,1.4-0.3,2.3c-0.2,0.9-0.5,1.8-0.8,2.9
				c-0.8,2-2,4.3-3.6,6.6c-0.4,0.6-0.8,1.1-1.2,1.7c-0.4,0.5-0.9,1.1-1.4,1.7c-1,1.1-1.9,2.2-2.9,3.2c-2,2.1-4,4.2-5.8,6.3
				c-0.4,0.5-0.9,1-1.3,1.5c-0.4,0.5-0.8,1-1.1,1.6c-0.7,1-1.5,1.9-2,2.9c-1.2,1.9-1.8,3.6-2.4,4.7c-0.5,1.2-0.7,1.9-0.7,2
				c0,0.1-0.3,0.7-0.6,1.9c-0.1,0.6-0.3,1.3-0.5,2.2c-0.2,0.8-0.3,1.8-0.5,2.9c-0.5,4.2-0.3,10,1.8,15.2c2,5.3,5.4,9.9,8.5,12.8
				c1.6,1.4,2.9,2.5,4,3.2c1,0.7,1.6,1.1,1.6,1.1s-0.6-0.4-1.6-1c-1.1-0.6-2.5-1.7-4.1-3.1c-3.2-2.8-6.8-7.4-8.9-12.7
				c-2.2-5.3-2.6-11.2-2.2-15.5c0.2-1.1,0.2-2.1,0.4-2.9c0.2-0.9,0.4-1.6,0.5-2.3c0.3-1.3,0.6-2,0.6-2c0,0,0.2-0.8,0.7-2
				c0.6-1.2,1.3-2.9,2.5-4.8c0.5-1,1.3-1.9,2.1-2.9c0.4-0.5,0.8-1,1.2-1.6c0.4-0.5,0.9-1,1.4-1.5c1.8-2.1,3.9-4.1,6-6.2
				c1-1.1,2-2.1,3-3.2c0.5-0.5,0.9-1.1,1.4-1.6c0.4-0.6,0.8-1.1,1.3-1.7c1.6-2.2,2.8-4.4,3.7-6.5c0.3-1,0.7-2,0.9-2.8
				c0.1-0.9,0.4-1.6,0.4-2.3C197.5,53.4,197.5,52.7,197.5,52.7z"/>
		</g>
		<g id="XMLID_1981_">
			<path id="XMLID_1982_" class="st1" d="M288.5,63.6c-0.1,0,0.7,0.4,0.8,1.7c0,1.2-0.9,3-2.8,3.9c-1,0.4-2.1,0.5-3.3,0.5
				c-1.2,0-2.5,0-3.7,0.2c-1.3,0.2-2.5,0.8-3.5,1.6c-1,0.8-1.6,2.1-1.8,3.5c-0.3,2.7,0.6,5.4,1.1,8c0.3,1.3,0.4,2.6,0.5,3.8
				c0.1,1.2,0,2.4,0,3.4c0,1.1-0.2,2-0.3,2.9c-0.1,0.9-0.3,1.6-0.4,2.2c-0.2,1.2-0.4,2-0.4,2c0,0-0.2,0.8-0.5,1.9
				c-0.2,0.6-0.4,1.3-0.7,2.1c-0.3,0.8-0.6,1.7-1,2.6c-0.8,1.9-2,4-3.3,6.2c-0.7,1-1.5,2.1-2.3,3.2c-0.9,1-1.8,2-2.7,3.1
				c-3.7,4-8.3,7-11.9,8.8c-0.9,0.4-1.7,0.9-2.5,1.2c-0.8,0.3-1.4,0.5-2,0.7c-1.1,0.4-1.7,0.7-1.7,0.7s0.6-0.3,1.7-0.7
				c0.5-0.2,1.2-0.5,2-0.8c0.8-0.3,1.6-0.8,2.5-1.3c3.6-1.9,8-5,11.6-9c0.9-1,1.7-2.1,2.6-3.1c0.7-1.1,1.5-2.2,2.2-3.2
				c1.3-2.2,2.4-4.3,3.1-6.1c0.4-0.9,0.7-1.8,1-2.6c0.2-0.8,0.5-1.5,0.6-2.1c0.3-1.1,0.5-1.8,0.5-1.9c0-0.1,0.2-0.7,0.5-2
				c0.1-0.6,0.3-1.3,0.4-2.2c0.1-0.8,0.3-1.8,0.3-2.8c0-1,0.1-2.2,0.1-3.3c0-1.2-0.1-2.4-0.4-3.7c-0.4-2.5-1.2-5.3-0.9-8.2
				c0.2-1.4,0.9-2.8,2-3.7c1.1-0.9,2.4-1.4,3.7-1.6c1.3-0.2,2.6-0.1,3.8-0.2c1.2,0,2.3-0.1,3.3-0.5c1.9-0.8,2.9-2.6,2.8-3.8
				C289.2,64.1,288.5,63.6,288.5,63.6z"/>
		</g>
		<g id="XMLID_1979_">
			<path id="XMLID_1980_" class="st1" d="M273.6,46.2c0,0,0.2,0.1,0.6,0.1c0.4,0.1,1,0.2,1.7,0.5c1.4,0.4,3.5,1.1,5.6,2.7
				c1,0.8,2,1.8,2.7,3.2c0.7,1.3,1.1,2.9,1,4.5c-0.1,1.6-1,3.3-2.3,4.4c-1.4,1.1-3.1,1.6-4.9,1.8c-3.6,0.4-6.9-0.8-10.1-1.3
				c-3.2-0.6-6.2-0.2-8.6,0.8c-2.4,1-4.1,2.2-5.2,3.3c-1.1,1-1.7,1.7-1.7,1.8c0,0-0.2,0.2-0.5,0.5c-0.3,0.3-0.7,0.7-1.1,1.3
				c-0.5,0.6-1,1.3-1.5,2.2c-0.6,0.8-1.1,1.9-1.7,3c-2.3,4.5-4.4,10.9-4.7,17.6c-0.4,6.7,0.5,13.3,1.3,18.2c0.8,4.9,1.4,8.2,1.4,8.2
				s-0.7-3.3-1.6-8.2c-0.9-4.9-1.8-11.6-1.6-18.3c0.2-6.7,2.2-13.3,4.5-17.9c0.6-1.1,1.1-2.2,1.7-3.1c0.5-0.9,1.1-1.7,1.5-2.3
				c0.4-0.6,0.8-1.1,1.1-1.4c0.3-0.3,0.4-0.5,0.5-0.5c0,0,0.6-0.8,1.8-1.8c1.2-1.1,3-2.4,5.5-3.3c0.6-0.2,1.3-0.5,2-0.6
				c0.7-0.1,1.4-0.3,2.2-0.3c0.8,0,1.5,0,2.3,0c0.8,0.1,1.6,0.2,2.4,0.3c3.2,0.5,6.5,1.8,9.9,1.5c1.7-0.2,3.4-0.7,4.7-1.7
				c1.3-1,2.1-2.5,2.3-4.1c0.2-1.6-0.2-3.1-0.9-4.4c-0.7-1.3-1.6-2.3-2.6-3.1c-2-1.6-4.1-2.3-5.5-2.8c-0.7-0.2-1.3-0.4-1.7-0.5
				C273.9,46.2,273.6,46.2,273.6,46.2z"/>
		</g>
		<g id="XMLID_1977_">
			<path id="XMLID_1978_" class="st1" d="M301.8,66.7c0,0-0.2,0-0.5,0c-0.4,0-0.9,0-1.5,0c-1.3,0-3.3,0.1-5.2,1.3
				c-0.9,0.6-1.9,1.5-2.2,2.7c-0.2,0.6-0.2,1.3-0.2,1.9c0.1,0.7,0.4,1.3,0.7,1.9c1.5,2.4,3.7,4.5,5.8,6.7c2.1,2.2,4.2,4.4,5.9,6.7
				c1.7,2.3,3,4.8,3.4,7.1c0.4,2.3,0.1,4.4-0.4,5.7c-0.4,1.4-0.9,2-0.9,2.1c0,0-0.3,0.8-1.2,1.9c-0.2,0.3-0.4,0.6-0.7,0.9
				c-0.3,0.3-0.6,0.6-0.9,1c-0.6,0.7-1.4,1.4-2.2,2.2c-3.4,3-8.7,5.8-13.9,8.5c-1.3,0.6-2.7,1.2-4,1.8c-0.7,0.3-1.3,0.6-2,0.9
				c-0.6,0.3-1.3,0.5-2,0.7c-1.3,0.5-2.6,0.9-3.8,1.3c-1.2,0.4-2.3,0.9-3.4,1.1c-4.3,1.1-7.1,1.8-7.1,1.8s2.8-0.8,7.1-1.9
				c1.1-0.2,2.2-0.7,3.4-1.2c1.2-0.4,2.4-0.9,3.7-1.4c0.6-0.3,1.3-0.4,2-0.8c0.6-0.3,1.3-0.6,1.9-0.9c1.3-0.6,2.6-1.2,4-1.9
				c5.2-2.8,10.3-5.7,13.6-8.7c0.8-0.8,1.6-1.4,2.1-2.1c0.3-0.3,0.6-0.7,0.8-1c0.2-0.3,0.4-0.6,0.6-0.9c0.8-1,1-1.8,1.1-1.8
				c0-0.1,0.5-0.7,0.8-2c0.5-1.2,0.8-3.1,0.5-5.3c-0.3-2.2-1.5-4.6-3.1-6.9c-1.6-2.3-3.7-4.6-5.7-6.8c-2-2.2-4.2-4.4-5.7-6.9
				c-0.3-0.6-0.6-1.3-0.7-2c-0.1-0.7-0.1-1.4,0.2-2c0.4-1.3,1.4-2.2,2.4-2.8c2-1.1,4-1.2,5.3-1.2c0.7,0,1.2,0,1.5,0
				C301.6,66.7,301.8,66.7,301.8,66.7z"/>
		</g>
		<g id="XMLID_1975_">
			<path id="XMLID_1976_" class="st1" d="M307.1,74.3c0,0-0.1-0.1-0.3-0.4c-0.3-0.2-0.7-0.4-1.3-0.4c-0.6,0-1.3,0.3-1.8,1
				c-0.4,0.7-0.6,1.7-0.3,2.6c0.3,1,0.9,1.9,1.7,2.7c0.4,0.4,0.8,0.8,1.3,1.3c0.4,0.5,0.8,0.9,1.3,1.4c0.4,0.5,0.9,1,1.3,1.5
				c0.4,0.5,0.8,1.1,1.2,1.6c0.8,1.1,1.4,2.3,2.1,3.5c2.6,4.9,2.9,10.7,2.3,14.8c-0.1,1-0.3,2-0.5,2.8c-0.2,0.8-0.4,1.6-0.6,2.2
				c-0.5,1.2-0.7,1.8-0.7,1.9c0,0-0.1,0.2-0.2,0.5c-0.1,0.3-0.3,0.8-0.6,1.3c-0.3,0.5-0.6,1.2-1,1.9c-0.4,0.7-1,1.5-1.5,2.3
				c-2.3,3.3-6.2,7.2-10.9,9.9c-4.7,2.6-9.7,4.5-13.5,5.5c-1.9,0.6-3.5,0.9-4.6,1.2c-1.1,0.3-1.8,0.4-1.8,0.4s0.6-0.2,1.8-0.5
				c1.1-0.3,2.7-0.7,4.6-1.3c3.8-1.1,8.7-3.1,13.3-5.8c4.5-2.8,8.2-6.6,10.5-9.9c0.5-0.8,1.1-1.6,1.5-2.3c0.4-0.7,0.7-1.4,1-1.9
				c0.3-0.5,0.5-0.9,0.6-1.3c0.1-0.3,0.2-0.5,0.2-0.5c0,0,0.3-0.7,0.7-1.8c0.2-0.6,0.4-1.3,0.6-2.1c0.3-0.8,0.4-1.7,0.6-2.7
				c0.7-4,0.5-9.6-1.9-14.5c-0.6-1.2-1.2-2.4-2-3.5c-0.4-0.6-0.7-1.1-1.1-1.6c-0.4-0.5-0.9-1-1.3-1.5c-0.4-0.5-0.8-0.9-1.2-1.4
				c-0.4-0.4-0.9-0.9-1.3-1.3c-0.8-0.9-1.5-1.8-1.7-2.8c-0.3-1-0.1-2,0.4-2.7c0.5-0.7,1.3-1,1.9-1c0.6-0.1,1,0.2,1.3,0.4
				C307,74.2,307.1,74.3,307.1,74.3z"/>
		</g>
		<g id="XMLID_1973_">
			<path id="XMLID_1974_" class="st1" d="M33.4,96.8c0,0-0.2,0.5-0.5,1.4c-0.2,0.5-0.4,1-0.6,1.6c-0.1,0.3-0.2,0.7-0.4,1
				c-0.1,0.4-0.2,0.8-0.3,1.2c-0.2,0.8-0.4,1.7-0.6,2.6c-0.2,0.9-0.3,1.9-0.5,3c-0.4,2-0.3,4.3-0.4,6.5c0.2,4.4,1,8.8,2.1,12
				c0.2,0.8,0.6,1.5,0.8,2.1c0.3,0.6,0.5,1.2,0.7,1.6c0.4,0.9,0.6,1.4,0.7,1.5c0,0,0.3,0.5,0.7,1.4c0.5,0.8,1,2.1,2,3.4
				c0.5,0.7,0.9,1.4,1.5,2.2c0.6,0.7,1.2,1.5,1.9,2.2c0.3,0.4,0.7,0.8,1,1.2c0.4,0.4,0.8,0.7,1.1,1.1c0.8,0.7,1.5,1.5,2.3,2.2
				c0.9,0.7,1.7,1.3,2.5,2l0.6,0.5l0.7,0.4c0.4,0.3,0.9,0.5,1.3,0.8c1.7,1.1,3.4,1.9,4.9,2.6c0.7,0.4,1.4,0.6,2,0.8
				c0.6,0.2,1.2,0.4,1.6,0.6c0.9,0.3,1.4,0.5,1.4,0.5s-0.5-0.2-1.4-0.5c-0.4-0.1-1-0.3-1.6-0.5c-0.6-0.2-1.3-0.4-2.1-0.8
				c-1.5-0.7-3.2-1.4-5-2.5c-0.4-0.3-0.9-0.5-1.3-0.8l-0.7-0.4l-0.6-0.5c-0.9-0.6-1.7-1.3-2.6-1.9c-0.9-0.7-1.6-1.4-2.4-2.2
				c-0.4-0.4-0.8-0.7-1.2-1.1c-0.4-0.4-0.7-0.8-1-1.2c-0.7-0.8-1.3-1.5-2-2.2c-0.5-0.8-1.1-1.5-1.5-2.2c-1-1.3-1.6-2.6-2.1-3.4
				c-0.5-0.9-0.8-1.4-0.8-1.4c0,0-0.3-0.6-0.7-1.5c-0.2-0.5-0.4-1-0.7-1.7c-0.2-0.7-0.6-1.4-0.8-2.2c-1-3.2-1.8-7.7-1.8-12.2
				c0.1-2.2,0.1-4.5,0.6-6.5c0.2-1,0.3-2,0.5-3c0.3-0.9,0.5-1.8,0.7-2.6c0.1-0.4,0.2-0.8,0.3-1.2c0.1-0.4,0.3-0.7,0.4-1
				c0.3-0.6,0.5-1.2,0.6-1.6C33.2,97.3,33.4,96.8,33.4,96.8z"/>
		</g>
		<g id="XMLID_1971_">
			<path id="XMLID_1972_" class="st1" d="M42.5,197.4c0,0,0.6-1.2,1.4-3.1c0.8-1.9,2.2-4.2,3.5-6.6c1.5-2.3,2.9-4.6,4.1-6.3
				c0.6-0.8,1.1-1.5,1.5-2c0.3-0.5,0.6-0.8,0.6-0.8c0,0,0.9-1,2.2-2.6c0.3-0.4,0.7-0.8,1.1-1.2c0.4-0.4,0.8-0.8,1.3-1.3
				c0.9-0.9,1.8-1.8,2.7-2.7c2-1.7,3.9-3.6,5.5-4.7c1.5-1.2,2.6-2,2.6-2s-1,0.9-2.5,2.1c-1.5,1.2-3.4,3.1-5.3,4.9
				c-0.9,1-1.8,1.9-2.6,2.8c-0.4,0.5-0.8,0.9-1.2,1.3c-0.4,0.4-0.7,0.9-1,1.2c-1.3,1.5-2.1,2.6-2.1,2.6c0,0-0.3,0.3-0.6,0.8
				c-0.4,0.5-0.9,1.2-1.5,2c-1.3,1.6-2.8,3.8-4.3,6.1c-1.4,2.3-2.9,4.6-3.7,6.4C43.1,196.3,42.5,197.4,42.5,197.4z"/>
		</g>
		<g id="XMLID_1969_">
			<path id="XMLID_1970_" class="st1" d="M49.1,202.9c0,0,0.4-0.8,0.9-2c0.5-1.2,1.4-2.7,2.3-4.2c1-1.4,1.9-2.9,2.8-3.9
				c0.4-0.5,0.8-1,1-1.3c0.2-0.3,0.4-0.5,0.4-0.5c0,0,0.7-0.6,1.6-1.5c0.2-0.2,0.5-0.5,0.8-0.7c0.3-0.2,0.6-0.5,0.9-0.7
				c0.6-0.5,1.3-1,2-1.5c1.4-0.9,2.8-1.9,4-2.4c1.1-0.6,1.9-1,1.9-1s-0.7,0.4-1.8,1.1c-1.1,0.6-2.4,1.7-3.8,2.7
				c-0.6,0.5-1.3,1.1-1.9,1.6c-0.3,0.3-0.6,0.5-0.9,0.8c-0.3,0.3-0.5,0.5-0.7,0.7c-0.9,0.9-1.5,1.5-1.5,1.6c0,0-0.2,0.2-0.4,0.5
				c-0.3,0.3-0.6,0.7-1.1,1.2c-0.9,0.9-1.9,2.3-3,3.7c-0.9,1.5-2,2.9-2.5,4C49.5,202.2,49.1,202.9,49.1,202.9z"/>
		</g>
		<g id="XMLID_1967_">
			<path id="XMLID_1968_" class="st1" d="M45.7,232c0,0,0.5-1.2,1.2-3.1c0.6-1.9,1.8-4.3,2.9-6.7c1.3-2.3,2.5-4.8,3.7-6.4
				c0.5-0.9,1-1.6,1.3-2.1c0.3-0.5,0.5-0.8,0.5-0.8c0,0,0.9-1.1,2.1-2.6c0.3-0.4,0.6-0.8,1-1.2c0.4-0.4,0.8-0.9,1.2-1.3
				c0.8-0.9,1.7-1.9,2.6-2.8c1.9-1.8,3.7-3.6,5.3-4.8c1.5-1.2,2.5-2.1,2.5-2.1s-1,0.9-2.4,2.2c-1.5,1.2-3.2,3.2-5.1,5
				c-0.9,1-1.7,2-2.5,2.9c-0.4,0.5-0.8,0.9-1.1,1.3c-0.3,0.5-0.6,0.9-0.9,1.3c-1.2,1.6-1.9,2.6-2,2.7c0,0-0.2,0.3-0.6,0.8
				c-0.3,0.5-0.8,1.2-1.4,2c-1.2,1.6-2.5,3.9-3.9,6.2c-1.2,2.4-2.5,4.7-3.2,6.6C46.3,230.8,45.7,232,45.7,232z"/>
		</g>
		<g id="XMLID_1965_">
			<path id="XMLID_1966_" class="st1" d="M49.9,246.7c0,0,0-0.4-0.1-1.1c-0.1-0.7,0-1.5,0-2.4c0.1-0.9,0.2-1.7,0.4-2.4
				c0.1-0.3,0.2-0.6,0.2-0.8c0-0.2,0.1-0.3,0.1-0.3c0,0,0.2-0.4,0.5-1c0.3-0.6,0.8-1.3,1.2-2c0.5-0.7,1-1.3,1.5-1.8
				c0.4-0.4,0.7-0.7,0.7-0.7s-0.3,0.3-0.6,0.8c-0.4,0.5-0.8,1.2-1.2,1.9c-0.3,0.8-0.8,1.5-0.9,2.1c-0.2,0.6-0.4,1-0.4,1
				c0,0-0.2,0.4-0.4,1c-0.3,0.6-0.5,1.4-0.7,2.2c-0.1,0.8-0.3,1.7-0.3,2.3C49.9,246.2,49.9,246.7,49.9,246.7z"/>
		</g>
		<g id="XMLID_1963_">
			<path id="XMLID_1964_" class="st1" d="M43,228.8c0,0,1.1-7.2,1.1-7.3c0-0.1,1.9-6.9,1.9-6.9s-1,7-1,7.1
				C44.9,221.8,43,228.8,43,228.8z"/>
		</g>
		<g id="XMLID_1961_">
			<path id="XMLID_1962_" class="st1" d="M52.3,268.9c0,0-0.4-1.5-0.5-3c0-0.8-0.1-1.6-0.1-2.1c0-0.3,0-0.5,0-0.7c0-0.2,0-0.3,0-0.3
				c0,0,0.1-0.4,0.3-0.9c0.1-0.6,0.4-1.3,0.7-2c0.6-1.4,1.4-2.7,1.4-2.7s-0.6,1.4-0.9,2.8c-0.1,0.7-0.3,1.4-0.4,2
				c-0.1,0.6-0.1,0.9-0.1,0.9c0,0,0,0.1-0.1,0.3c0,0.2-0.1,0.4-0.1,0.7c-0.1,0.6-0.2,1.3-0.3,2.1C52.1,267.3,52.3,268.9,52.3,268.9z
				"/>
		</g>
		<g id="XMLID_1959_">
			<path id="XMLID_1960_" class="st1" d="M313.8,227.6c0,0-1.7-3-3.3-5.9c-0.9-1.4-1.8-2.9-2.5-4c-0.3-0.5-0.6-1-0.8-1.3
				c-0.2-0.3-0.3-0.5-0.3-0.5c0,0-1.8-2.9-3.5-5.7c-1.9-2.7-3.8-5.4-3.8-5.4s2.1,2.6,4.1,5.1c1.9,2.7,3.9,5.4,3.9,5.4
				c0,0,0.1,0.2,0.3,0.5c0.2,0.3,0.4,0.8,0.8,1.4c0.6,1.1,1.4,2.6,2.3,4.1C312.3,224.5,313.8,227.6,313.8,227.6z"/>
		</g>
		<g id="XMLID_1957_">
			<path id="XMLID_1958_" class="st1" d="M311.9,246.7c0,0-2.4-8.9-2.4-9c0-0.1-1.4-8.9-1.4-8.9s2.3,8.6,2.3,8.7
				C310.5,237.6,311.9,246.7,311.9,246.7z"/>
		</g>
		<g id="XMLID_1955_">
			<path id="XMLID_1956_" class="st1" d="M308.6,263.3c0,0-0.8-5.6-0.8-5.6c0,0,0.2-5.5,0.2-5.5s0.7,5.4,0.7,5.4
				C308.8,257.7,308.6,263.3,308.6,263.3z"/>
		</g>
		<g id="XMLID_1953_">
			<path id="XMLID_1954_" class="st1" d="M313.8,212.1c0,0-12.2-14.3-12.3-14.4c-0.1-0.1-11.2-14.6-11.2-14.6s11.8,13.9,11.9,14
				C302.4,197.2,313.8,212.1,313.8,212.1z"/>
		</g>
		<g id="XMLID_1951_">
			<path id="XMLID_1952_" class="st1" d="M324.8,194.4c0,0-0.9-0.4-2.3-1.1c-1.4-0.6-3.2-1.7-5-2.7c-1.7-1.1-3.5-2.2-4.7-3.2
				c-0.6-0.5-1.1-0.9-1.5-1.2c-0.4-0.3-0.6-0.5-0.6-0.5c0,0-0.7-0.7-1.8-1.8c-0.3-0.3-0.6-0.6-0.9-0.9c-0.3-0.3-0.6-0.7-0.9-1
				c-0.6-0.7-1.3-1.5-1.9-2.2c-1.2-1.6-2.4-3.2-3.2-4.5c-0.8-1.3-1.3-2.1-1.3-2.1s0.6,0.8,1.4,2c0.8,1.2,2.1,2.7,3.4,4.2
				c0.7,0.7,1.4,1.4,2,2.1c0.3,0.3,0.6,0.7,0.9,1c0.3,0.3,0.6,0.6,0.9,0.8c1.1,1,1.9,1.7,1.9,1.7c0,0,0.2,0.2,0.5,0.5
				c0.3,0.3,0.8,0.7,1.4,1.2c1.1,1.1,2.8,2.2,4.4,3.5c1.7,1.1,3.4,2.3,4.8,2.9C323.9,193.9,324.8,194.4,324.8,194.4z"/>
		</g>
		<g id="XMLID_1949_">
			<path id="XMLID_1950_" class="st1" d="M321.1,174.7c0,0-2.8-1-5.6-2.1c-1.4-0.6-2.7-1.3-3.7-1.8c-0.5-0.2-0.9-0.4-1.2-0.6
				c-0.3-0.1-0.5-0.2-0.5-0.3c0,0-2.4-1.7-4.8-3.4c-2.2-1.9-4.5-3.7-4.5-3.7s2.4,1.7,4.7,3.3c2.5,1.5,5,2.9,5,3c0,0,0.2,0.1,0.5,0.3
				c0.3,0.2,0.7,0.4,1.2,0.7c1,0.6,2.3,1.3,3.6,2C318.4,173.4,321.1,174.7,321.1,174.7z"/>
		</g>
		<g id="XMLID_1947_">
			<path id="XMLID_1948_" class="st1" d="M330.9,82.7c0,0,0.7,0.4,1.8,1c1.1,0.7,2.9,1.6,4.5,3.2c0.9,0.7,1.6,1.8,2.2,3
				c0.6,1.2,1,2.6,0.9,4c-0.1,1.5-0.7,3-1.7,4.1c-1,1.2-2.2,2.1-3.5,3.1c-1.2,0.9-2.5,1.8-3.6,2.8c-1.1,1-1.9,2.2-2.5,3.5
				c-1.1,2.6-1.2,5.3-1.1,7.6c0.1,2.3,0.1,4.3,0.2,5.6c0,1.4,0,2.2,0,2.3c0,0.1,0,0.9-0.2,2.2c-0.2,1.3-0.7,3.3-1.8,5.3
				c-1.1,2-2.8,4.1-5,5.9c-2.2,1.8-4.9,3.3-7.7,4.3c-1.4,0.5-2.9,0.8-4.3,1.1c-1.5,0.2-2.9,0.5-4.3,0.6c-2.8,0.2-5.4,0.2-7.6,0.1
				c-2.2-0.1-4.1-0.2-5.4-0.3c-1.3-0.1-2-0.1-2-0.1s0.7,0,2,0.1c1.3,0.1,3.2,0.2,5.4,0.2c2.2,0,4.8,0,7.6-0.3
				c1.4-0.1,2.8-0.4,4.2-0.6c1.4-0.4,2.9-0.7,4.3-1.2c2.8-1,5.4-2.5,7.5-4.3c2.1-1.8,3.7-3.8,4.8-5.8c1-2,1.4-3.8,1.6-5.1
				c0.2-1.3,0.2-2.1,0.2-2.1c0-0.1,0.1-0.8,0.1-2.2c0-1.4,0-3.3-0.1-5.6c0-2.3,0.1-5.1,1.3-7.9c0.6-1.3,1.6-2.6,2.7-3.6
				c1.2-1,2.4-1.9,3.7-2.8c1.2-0.9,2.5-1.8,3.4-2.9c1-1.1,1.6-2.5,1.7-3.9c0.1-1.4-0.3-2.8-0.8-3.9c-0.6-1.2-1.3-2.2-2.2-2.9
				c-1.6-1.6-3.3-2.6-4.4-3.3C331.6,83.1,330.9,82.7,330.9,82.7z"/>
		</g>
		<g id="XMLID_1945_">
			<path id="XMLID_1946_" class="st1" d="M340.2,98.8c0,0-0.1,0.6-0.3,1.7c0,0.6-0.2,1.2-0.4,2c-0.1,0.4-0.2,0.8-0.3,1.2
				c-0.2,0.4-0.3,0.8-0.5,1.3c-0.7,1.8-1.9,3.7-3.5,5.5c-0.4,0.4-0.8,0.9-1.3,1.3c-0.4,0.5-1,0.8-1.4,1.2l-0.7,0.6
				c-0.3,0.2-0.5,0.3-0.8,0.5l-0.8,0.5l-0.3,0.2c0,0-0.1,0-0.1,0.1l0.1,0.1l1,1.5c0.4,0.5,0.6,1.2,0.9,1.7l0.4,0.9l0.3,0.9
				c0.2,0.6,0.4,1.2,0.5,1.8c0.2,1.2,0.4,2.4,0.4,3.5c0,0.6,0.1,1.1,0,1.6c-0.1,0.5-0.1,1-0.1,1.5c-0.2,2-0.7,3.6-1.1,4.6
				c-0.4,1.1-0.7,1.7-0.7,1.8c0,0-0.3,0.6-0.9,1.6c-0.6,0.9-1.5,2.3-2.7,3.7c-2.4,2.9-6.6,6-11.1,8.1c-2.3,1-4.7,1.8-6.9,2.4
				c-2.3,0.6-4.4,1-6.3,1.2c-1.8,0.3-3.4,0.4-4.5,0.5c-1.1,0.1-1.7,0.1-1.7,0.1s0.6-0.1,1.7-0.2c1.1-0.1,2.6-0.3,4.4-0.6
				c1.8-0.3,4-0.8,6.2-1.4c2.2-0.7,4.6-1.5,6.8-2.5c4.5-2.1,8.4-5.2,10.7-8.2c1.2-1.4,2-2.8,2.6-3.7c0.5-1,0.8-1.6,0.8-1.6
				c0,0,0.4-0.6,0.7-1.7c0.4-1,0.9-2.6,1.2-4.4c0.1-0.5,0.1-1,0.2-1.5c0.1-0.5,0-1,0-1.6c0.1-1.1-0.2-2.2-0.3-3.4
				c-0.1-0.6-0.3-1.2-0.4-1.7l-0.2-0.9l-0.4-0.8c-0.3-0.6-0.4-1.2-0.8-1.7l-1.1-1.7l-0.2-0.3c0-0.1,0.2-0.1,0.3-0.2l0.5-0.3l0.8-0.5
				c0.3-0.2,0.6-0.3,0.8-0.5l0.7-0.6c0.5-0.4,1-0.7,1.4-1.2c0.4-0.4,0.9-0.9,1.3-1.3c1.6-1.8,2.8-3.6,3.6-5.4
				c0.2-0.4,0.4-0.9,0.6-1.2c0.1-0.4,0.2-0.8,0.4-1.2c0.2-0.7,0.4-1.4,0.5-1.9C340.1,99.5,340.2,98.8,340.2,98.8z"/>
		</g>
		<g id="XMLID_1943_">
			<path id="XMLID_1944_" class="st1" d="M219,19.9c0,0-0.5,0.1-1.4,0.4c-0.9,0.2-2.1,0.6-3.5,1.2c-0.7,0.3-1.5,0.6-2.3,1
				c-0.7,0.5-1.6,0.9-2.3,1.5c-1.5,1.2-2.8,2.8-3.5,4.7c-0.7,1.9-0.4,4,0.3,5.7c0.7,1.7,1.8,3.2,2.7,4.5c0.9,1.3,1.7,2.4,2.1,3.2
				c0.5,0.8,0.7,1.3,0.7,1.3c0,0,0.2,0.5,0.6,1.4c0.2,0.4,0.3,1,0.5,1.6c0.1,0.3,0.2,0.6,0.3,1c0.1,0.3,0.1,0.7,0.2,1.1
				c0.3,1.5,0.5,3.3,0.5,5.2c-0.1,1.9-0.3,3.9-0.8,5.9c-0.9,3.9-3,7.5-4.9,9.7c-0.4,0.6-1,1.1-1.4,1.5c-0.4,0.4-0.8,0.8-1.2,1.1
				c-0.7,0.6-1.1,0.9-1.1,0.9s0.4-0.3,1-0.9c0.3-0.3,0.7-0.6,1.1-1.1c0.4-0.5,0.9-0.9,1.3-1.5c1.8-2.3,3.8-5.9,4.6-9.8
				c0.5-1.9,0.6-3.9,0.6-5.8c-0.1-1.8-0.2-3.6-0.6-5c-0.1-0.4-0.2-0.7-0.2-1c-0.1-0.3-0.2-0.6-0.3-0.9c-0.2-0.6-0.3-1.1-0.5-1.5
				c-0.4-0.8-0.6-1.3-0.6-1.3c0,0-0.2-0.5-0.7-1.3c-0.4-0.8-1.1-1.9-2-3.2c-0.9-1.3-1.9-2.8-2.6-4.7c-0.7-1.8-1-4.1-0.2-6.1
				c0.8-2,2.2-3.6,3.7-4.8c0.8-0.6,1.6-1,2.4-1.4c0.8-0.4,1.6-0.7,2.3-1c1.5-0.5,2.7-0.9,3.6-1.1C218.5,20,219,19.9,219,19.9z"/>
		</g>
		<g id="XMLID_1941_">
			<path id="XMLID_1942_" class="st1" d="M215.4,23.7c0,0-0.1,0-0.2,0c-0.2,0-0.4,0-0.7,0.1c-0.6,0.1-1.4,0.3-2.3,0.9
				c-0.9,0.5-1.8,1.4-2.4,2.5c-0.6,1.1-1.1,2.4-0.9,3.7c0.3,2.7,2.2,4.8,3.5,6.4c0.7,0.8,1.2,1.5,1.6,2c0.4,0.5,0.6,0.8,0.6,0.8
				c0,0,0.2,0.3,0.5,0.8c0.3,0.5,0.8,1.2,1.3,2.1c0.5,0.9,1.1,1.9,1.6,3.1c0.5,1.2,1.1,2.4,1.6,3.6c1,2.5,1.6,5.1,2.1,7
				c0.4,2,0.6,3.3,0.6,3.3s-0.3-1.3-0.7-3.2c-0.5-1.9-1.3-4.5-2.4-6.9c-0.5-1.2-1.1-2.4-1.7-3.5c-0.6-1.1-1.2-2.1-1.7-3
				c-0.6-0.8-1-1.5-1.4-2c-0.3-0.5-0.6-0.8-0.6-0.8c0,0-0.2-0.3-0.6-0.8c-0.4-0.5-0.8-1.2-1.5-2c-0.6-0.8-1.4-1.8-2.1-2.9
				c-0.7-1.1-1.2-2.5-1.3-3.9c-0.1-1.4,0.4-2.8,1.1-3.9c0.7-1.1,1.7-1.9,2.6-2.4c0.9-0.5,1.8-0.7,2.4-0.8c0.3-0.1,0.5,0,0.7,0
				C215.3,23.7,215.4,23.7,215.4,23.7z"/>
		</g>
		<g id="XMLID_1939_">
			<path id="XMLID_1940_" class="st1" d="M195.4,19.8c0,0,0.7,0.3,1.3,1.4c0.6,1.1,0.7,3.2-0.4,5.1c-1.2,1.9-3.7,3.1-6.3,3.7
				c-2.7,0.6-5.5,1.1-8.4,1.7c-2.8,0.6-5.7,1.2-8.4,1.7c-2.7,0.5-5.1,1.3-6.7,2.7c-0.8,0.7-1.3,1.5-1.6,2.3
				c-0.3,0.8-0.3,1.5-0.2,2.1c0.1,0.6,0.3,1,0.5,1.3c0.2,0.3,0.3,0.4,0.3,0.4c0,0,0.4,0.6,1.4,1.2c1,0.6,2.7,1.1,4.8,0.8
				c2-0.2,4.2-1.6,6.3-3c2.2-1.5,4.6-3.2,7.4-3.8c2.8-0.7,5.8-0.4,8.2,0.5c2.5,0.9,4.5,2.6,5.8,4.3c1.3,1.7,2,3.3,2.4,4.5
				c0.2,0.6,0.3,1.1,0.3,1.4c0.1,0.3,0.1,0.5,0.1,0.5s0-0.2-0.1-0.5c-0.1-0.3-0.1-0.8-0.4-1.4c-0.4-1.2-1.1-2.8-2.5-4.4
				c-1.3-1.6-3.3-3.2-5.8-4.1c-2.5-0.9-5.4-1.1-8-0.4c-2.7,0.6-5,2.4-7.2,3.9c-2.2,1.5-4.3,3-6.6,3.3c-2.2,0.3-4.1-0.2-5.3-0.8
				c-1.2-0.6-1.7-1.4-1.7-1.4c0,0-0.2-0.2-0.4-0.5c-0.2-0.3-0.4-0.9-0.5-1.6c-0.1-0.7,0-1.6,0.3-2.5c0.4-0.9,1-1.8,1.9-2.6
				c1.8-1.5,4.4-2.2,7.1-2.7c2.7-0.5,5.6-1,8.4-1.5c2.9-0.5,5.7-1,8.4-1.6c2.6-0.5,5.1-1.7,6.3-3.5c1.2-1.8,1.1-3.8,0.5-5
				C196.1,20.1,195.4,19.8,195.4,19.8z"/>
		</g>
		<g id="XMLID_1937_">
			<path id="XMLID_1938_" class="st1" d="M255.8,43.8c0,0,0.2,0.4,0.5,1.1c0.3,0.7,0.7,1.8,0.5,3.2c-0.1,0.7-0.5,1.4-1.2,1.8
				c-0.7,0.5-1.7,0.5-2.4,0.1c-1.6-0.8-2.6-2.4-3.8-3.7c-2.4-2.7-5.1-5.1-7.2-6.7c-1.1-0.8-2-1.4-2.7-1.8c-0.7-0.4-1.1-0.6-1.1-0.6
				c0,0-0.4-0.2-1.1-0.5c-0.7-0.3-1.7-0.6-3-0.7c-1.2-0.1-2.8,0.1-4.1,1c-1.3,0.9-2.2,2.4-2.7,4c-0.4,1.6-0.4,3.4,0.1,4.9
				c0.4,1.6,1.1,2.9,1.7,4.1c0.7,1.1,1.2,2,1.7,2.7c0.4,0.6,0.7,1,0.7,1s-0.3-0.4-0.7-1c-0.5-0.6-1.1-1.5-1.8-2.6
				c-0.6-1.1-1.4-2.5-1.9-4.1c-0.6-1.6-0.6-3.4-0.3-5.1c0.4-1.7,1.3-3.4,2.7-4.4c1.4-1,3.1-1.3,4.5-1.2c1.4,0.1,2.5,0.4,3.3,0.7
				c0.8,0.3,1.2,0.5,1.2,0.5c0,0,0.5,0.2,1.2,0.6c0.7,0.4,1.7,1,2.8,1.9c2.1,1.7,4.8,4.2,7.1,7c1.2,1.3,2.1,3,3.6,3.7
				c0.7,0.4,1.6,0.4,2.2,0c0.6-0.4,1-1.1,1.2-1.7c0.3-1.3-0.1-2.4-0.4-3.1C256,44.2,255.8,43.8,255.8,43.8z"/>
		</g>
		<g id="XMLID_1935_">
			<path id="XMLID_1936_" class="st1" d="M168,34.6c0,0-1.2,0.4-2.9,1.2c-1.7,0.8-4,2.1-5.3,4.1c-0.7,1-1,2.2-1,3.3
				c0,1.1,0.3,2.1,0.7,2.9c0.4,0.8,0.9,1.4,1.3,1.8c0.4,0.4,0.6,0.6,0.6,0.6c0,0,0.2,0.2,0.6,0.6c0.4,0.3,1,0.8,1.8,1.2
				c1.6,0.9,4,1.3,6.4,1.2c2.4-0.1,4.8-0.8,6.5-1.3c1.7-0.5,2.9-0.9,2.9-0.9s-1.1,0.5-2.9,1.1c-1.7,0.6-4.1,1.4-6.5,1.6
				c-2.5,0.3-5-0.1-6.8-1c-0.9-0.4-1.5-0.9-2-1.2c-0.5-0.3-0.7-0.6-0.7-0.6c0,0-0.3-0.3-0.6-0.7c-0.4-0.5-0.9-1.1-1.3-2
				c-0.4-0.9-0.7-2.1-0.7-3.3c0.1-1.2,0.5-2.5,1.3-3.6c1.5-2.1,3.9-3.3,5.6-4C166.8,34.9,168,34.6,168,34.6z"/>
		</g>
		<g id="XMLID_1933_">
			<path id="XMLID_1934_" class="st1" d="M247.9,40.2c0,0-0.8-0.7-2-1.8c-1.2-1.1-2.9-2.5-4.7-3.7c-1.8-1.2-3.7-2.3-5.2-2.9
				c-0.7-0.3-1.4-0.5-1.9-0.6c-0.5-0.2-0.7-0.2-0.7-0.2c0,0-0.3-0.1-0.7-0.2c-0.5-0.1-1.1-0.2-1.9-0.3c-1.6-0.2-3.7,0-5.7,0.7
				c-1,0.4-1.9,0.8-2.7,1.4c-0.8,0.6-1.5,1.2-2,1.8c-0.3,0.3-0.5,0.6-0.6,0.9c-0.2,0.3-0.3,0.5-0.4,0.7c-0.2,0.4-0.3,0.7-0.3,0.7
				s0.1-0.2,0.3-0.7c0.1-0.2,0.2-0.5,0.4-0.7c0.2-0.3,0.3-0.6,0.6-0.9c0.5-0.7,1.1-1.3,1.9-1.9c0.8-0.6,1.8-1.1,2.8-1.5
				c2-0.8,4.2-1.1,5.9-1c0.8,0,1.5,0.1,2,0.2c0.5,0.1,0.8,0.2,0.8,0.2c0,0,0.3,0.1,0.8,0.3c0.5,0.2,1.2,0.4,1.9,0.8
				c1.5,0.7,3.4,1.9,5.2,3.2c1.7,1.4,3.3,2.9,4.5,4C247.1,39.4,247.9,40.2,247.9,40.2z"/>
		</g>
		<g id="XMLID_1931_">
			<path id="XMLID_1932_" class="st1" d="M26.3,138.2c0,0,0,0.3,0.1,0.8c0.1,0.5,0.1,1.3,0.3,2.2c0.3,1.8,1,4.2,1.9,6.5
				c1,2.3,2.2,4.4,3.2,6c0.5,0.8,1,1.4,1.3,1.8c0.3,0.4,0.5,0.7,0.6,0.7c0,0,0.2,0.3,0.5,0.7c0.3,0.4,0.8,1,1.4,1.7
				c1.2,1.4,3,3,4.9,4.4c2,1.4,4.1,2.6,5.7,3.3c0.8,0.4,1.5,0.6,2,0.8c0.5,0.2,0.8,0.3,0.8,0.3s-0.3-0.1-0.8-0.2
				c-0.5-0.2-1.2-0.3-2.1-0.7c-1.7-0.6-3.9-1.7-5.9-3c-2-1.4-3.9-2.9-5.2-4.3c-0.7-0.6-1.2-1.2-1.5-1.6c-0.4-0.4-0.6-0.7-0.6-0.7
				c0,0-0.2-0.3-0.5-0.7c-0.3-0.5-0.8-1.1-1.3-1.9c-1-1.6-2.2-3.9-3-6.2c-0.8-2.4-1.4-4.8-1.6-6.7c-0.2-0.9-0.1-1.7-0.2-2.2
				C26.3,138.6,26.3,138.2,26.3,138.2z"/>
		</g>
	</g>
</g>
</svg>
