<?xml version="1.0" encoding="utf-8"?>
<!-- Generator: Adobe Illustrator 19.0.0, SVG Export Plug-In . SVG Version: 6.00 Build 0)  -->
<svg version="1.1" id="Layer_1" xmlns="http://www.w3.org/2000/svg" xmlns:xlink="http://www.w3.org/1999/xlink" x="0px" y="0px"
	 viewBox="0 0 531.3333 390.6667" enable-background="new 0 0 531.3333 390.6667" xml:space="preserve">
<linearGradient id="XMLID_224_" gradientUnits="userSpaceOnUse" x1="258.5511" y1="96.2651" x2="252.5511" y2="310.2651">
	<stop  offset="0" style="stop-color:#8E4604"/>
	<stop  offset="1" style="stop-color:#EF7B05"/>
	<stop  offset="1" style="stop-color:#EF7B05"/>
</linearGradient>
<path id="XMLID_196_" fill="url(#XMLID_224_)" d="M437.7418,153.896c-1.7373-12.0206-12.3777-34.8538-20.0919-44.2323
	c-6.6499-8.0791-34.0575-24.3254-34.0575-24.3254l33.0441,13.4104c0,0-36.7909-41.1721-53.5761-47.2891
	c-10.3919-3.7864-44.2306,1.0727-44.2306,1.0727s-42.7815-31.5002-59.7801-34.3474c-23.5629-3.9445-72.2589,7.7976-93.8548,18.0182
	c-18.8611,8.9269-64.1388,53.417-64.1388,53.417l37.0158-11.9072c0,0-33.5914,21.3394-41.7808,31.5481
	c-7.7858,9.7035-18.8225,32.9632-20.6616,45.2659c-4.1088,27.5065,14.5876,110.285,14.5876,110.285l20.803-19.7804l-16.3178,46.2849
	l15.3001-15.5056l26.4927,91.4433l-2.1146-122.3588l111.7118-51.7831l-47.9402,44.4418l120.5979-54.6285l61.4265,61.9698
	l-2.5037,122.3588l27.3408-84.8452l12.9703,8.9076l-15.011-53.9807l19.2449,27.4761
	C422.2176,264.8118,441.7503,181.6064,437.7418,153.896z"/>
</svg>
