<?xml version="1.0" encoding="utf-8"?>
<!-- Generator: Adobe Illustrator 19.0.0, SVG Export Plug-In . SVG Version: 6.00 Build 0)  -->
<svg version="1.1" id="Layer_1" xmlns="http://www.w3.org/2000/svg" xmlns:xlink="http://www.w3.org/1999/xlink" x="0px" y="0px"
	 viewBox="0 0 357.4 347.3" style="enable-background:new 0 0 357.4 347.3;" xml:space="preserve">
<style type="text/css">
	.st0{fill:#FFFFFF;}
	.st1{fill:#EF7B05;}
</style>
<g id="XMLID_2640_">
	<path id="XMLID_2714_" class="st0" d="M91,82.6c-1.6,2.9-2.5,5.8-2.4,8.6c-4.9,0.6-10,1.2-15.2,2.1c0,0,0,0-0.1,0c0,0,0,0,0.1,0
		C73.9,85.3,83.9,78.9,91,82.6C91,82.5,91,82.5,91,82.6C91,82.5,91,82.5,91,82.6z"/>
	<path id="XMLID_2713_" class="st0" d="M86.8,150c13.6,12-2.9,33-21.8,37.3c0.1-2.3,0.4-4.6,0.9-7c2.6-11.4,8.5-22.8,18.4-29
		C85.2,150.8,86,150.4,86.8,150z"/>
	<path id="XMLID_2712_" class="st0" d="M286.8,93.6c-7-4.3-47.5-5.8-32.3-18C277.9,60.8,289.6,73.3,286.8,93.6z"/>
	<path id="XMLID_2711_" class="st1" d="M324.7,216c2.1,14.3,1.1,30-3.3,43.8c-2.6,8.2-21.6,26.9-18,35.3c-5-10.1-2.9-20.8-4-31.7
		c-0.2-1.8-0.4-3.5-0.5-5.2c-0.7-5.9-1.7-11.2-4.2-17.1c-4.5-10.8-6.4-21.9-6.7-33.7c-0.2-7,1.7-14.3,1.7-21.3c0,0,0,0,0,0V186
		c0-3.4-0.7-6.8-2.4-10.1c-1.6-3.1-3.5-5.1-5.6-6.3c0,0,0,0,0,0c0,0,0,0,0,0c-5.3-3-11.8-1.5-18.9-3.2c-4.5-1.1-10.7-5.4-13.3-9.4
		c-1.6-2.5-5.1-12.7-3.2-15.4c-16.2,22.9-53.4,24-77.1,16.2c-8.9-2.9-16.8-13.9-26.2-14.4c-9.5-0.4-16.8,9.5-27.1,8
		c-10.6-1.6-19.2-6.1-29.1-1.4c0,0,0,0,0,0c-0.8,0.4-1.6,0.8-2.4,1.3c-9.9,6.2-15.8,17.6-18.4,29c-0.5,2.3-0.8,4.7-0.9,7
		c0,0.1,0,0.3,0,0.4c-0.3,11.6,4,22.9,3.5,34.6C68,234,67.4,247,65.1,259c-0.6,3.3-1.4,6.4-2.3,9.5c-1.1,3.7-2.5,7.1-3.9,10.5
		c-0.4,1-0.2,2-1.2,3.1v0c-1,4.5-3,9-3.3,14.2c0.2-3.1-0.4-5.8-1.6-8.3c-3.1-6.7-9.8-11.6-11.9-19.1c-3.6-13.2-2.8-29.8-3.7-43.6
		c-0.7-11.9-8.2-20.2-10.6-31.4c-4.1-18.4-2.4-37.6,2.5-55.8c0-0.2,0.1-0.4,0.1-0.6c1.9-7,4.2-13.8,6.9-20.3
		c6.5-15.9,21.6-21.1,37.1-23.8c0,0,0,0,0.1,0c5.1-0.9,10.3-1.5,15.2-2.1c-0.1-2.8,0.7-5.7,2.4-8.6c0,0,0-0.1,0-0.1
		c6.6-12,25.2-24.1,33.6-29.5c16.9-11,36.6-13.4,54.9-4.4c9.7,4.8,18.8,10.3,28.5,14.2c0.1,0,0.2,0.1,0.3,0.1
		c6.7,2.6,13.7,4.5,21.5,4.8c0.6,0,1.2,0,1.8,0c6.5,0,12.8-1.1,18.8-1.5c-1.6,1.6-2.8,4.7-3.8,6.4c0,0,0,0.1,0,0.1
		c0.3,0.1,0.6,0.2,0.9,0.2c3.2,0.8,6.6,0.9,9.9,1c-1,0.6-1.9,1.3-2.7,1.9c-15.2,12.2,25.3,13.7,32.3,18c0.1,0.1,0.2,0.1,0.3,0.2
		c0,0,0.1,0.1,0.1,0.1c12.5,9.3,17.7,35.1,22.1,49.7c3.7,12.6,8,23.2,22.6,22.4C326.8,182,322.2,198.7,324.7,216z"/>
	<g id="XMLID_2641_">
		<g id="XMLID_2709_">
			<path id="XMLID_2710_" class="st0" d="M240.1,70.2c0,0-0.2,0.2-0.6,0.7c-0.2,0.2-0.4,0.5-0.7,0.8c-0.3,0.3-0.6,0.7-1,1.1
				c-1.6,1.5-4.3,3.3-7.8,4.5c-3.6,1.2-8,1.6-12.6,1.1c-4.7-0.5-9.5-1.9-14.2-3.4c-4.8-1.5-9.5-3.1-14.1-3.9
				c-4.6-0.8-8.9-0.8-12.6-0.4c-3.7,0.4-6.7,1.2-8.8,2c-2.1,0.7-3.3,1.2-3.4,1.2c0,0-0.4,0.1-0.9,0.4c-0.6,0.2-1.3,0.6-2.3,1.1
				c-1,0.4-2.1,1.1-3.4,1.8c-0.6,0.4-1.3,0.8-2,1.3c-0.7,0.4-1.4,1-2.1,1.5c-2.9,2.2-6.1,5.1-8.9,8.7c-2.8,3.6-5.2,8-6.9,12.7
				c-1.7,4.7-2.6,9.6-2.9,14.3c-0.3,4.7,0.1,9,0.8,12.7c0.6,3.7,1.7,6.6,2.5,8.7c0.9,2,1.4,3.1,1.4,3.1s-0.5-1.1-1.4-3.1
				c-0.8-2-1.9-4.9-2.6-8.6c-0.7-3.7-1.2-8.1-1-12.8c0.2-4.7,1-9.7,2.7-14.5c1.6-4.8,4-9.2,6.8-13c2.8-3.8,6-6.8,9-9.1
				c0.7-0.6,1.5-1.1,2.2-1.6c0.7-0.5,1.4-0.9,2-1.3c1.3-0.7,2.5-1.5,3.5-1.9c1-0.5,1.8-0.9,2.3-1.1c0.6-0.2,0.9-0.4,0.9-0.4
				c0.1,0,1.3-0.6,3.5-1.2c2.2-0.7,5.3-1.5,9.1-1.8c3.8-0.4,8.2-0.3,12.9,0.6c4.6,0.9,9.4,2.5,14.1,4.1c4.7,1.6,9.5,3.1,14.1,3.7
				c4.6,0.5,9,0.2,12.5-0.9c3.6-1.1,6.2-2.8,7.9-4.3c0.4-0.4,0.7-0.7,1-1c0.3-0.3,0.5-0.6,0.7-0.8C239.9,70.5,240.1,70.2,240.1,70.2
				z"/>
		</g>
		<g id="XMLID_2707_">
			<path id="XMLID_2708_" class="st0" d="M245,74.6c0,0,0,0.3-0.1,0.8c0,0.3-0.1,0.6-0.2,1c-0.1,0.4-0.2,0.8-0.4,1.3
				c-0.6,1.9-2,4.5-4.7,6.8c-1.3,1.1-2.8,2.2-4.6,3c-1.7,0.9-3.7,1.6-5.7,2.1c-4.1,1-8.7,0.8-13.1,0.1c-4.4-0.7-8.8-1.8-12.9-2.5
				c-4.1-0.8-8-1.2-11.3-1.1c-3.3,0.1-6.1,0.6-8,1.1c-1,0.3-1.7,0.4-2.2,0.6c-0.5,0.2-0.8,0.3-0.9,0.3c-0.1,0-1.2,0.3-3,1
				c-0.9,0.3-2,0.8-3.2,1.4c-1.2,0.6-2.5,1.3-3.9,2.1c-2.8,1.7-5.8,4-8.7,7c-2.8,3-5.4,6.7-7.3,10.6c-1.9,4-3.2,8.3-3.9,12.4
				c-0.7,4.1-0.8,8.1-0.5,11.4c0.3,3.3,0.9,6.1,1.4,8c0.2,0.9,0.5,1.7,0.7,2.2c0.2,0.5,0.2,0.8,0.2,0.8s-0.1-0.3-0.3-0.8
				c-0.2-0.5-0.4-1.2-0.7-2.2c-0.5-1.9-1.2-4.6-1.5-8c-0.3-3.4-0.3-7.3,0.3-11.5c0.6-4.2,1.8-8.6,3.7-12.7c1.9-4.1,4.4-7.9,7.2-11
				c2.8-3.1,5.9-5.6,8.8-7.4c1.4-0.9,2.8-1.6,4-2.3c1.2-0.6,2.3-1.1,3.2-1.5c1.8-0.8,3-1.1,3-1.1c0,0,0.3-0.1,0.9-0.3
				c0.5-0.2,1.3-0.3,2.3-0.6c2-0.4,4.8-0.9,8.3-0.9c3.4-0.1,7.4,0.5,11.5,1.4c4.1,0.8,8.5,2,12.8,2.8c4.4,0.8,8.9,1.1,12.9,0.1
				c2-0.4,3.9-1.1,5.7-1.9c1.7-0.8,3.3-1.8,4.6-2.9c2.6-2.1,4.1-4.7,4.7-6.6c0.2-0.5,0.3-0.9,0.4-1.3c0.1-0.4,0.1-0.7,0.2-1
				C245,74.9,245,74.6,245,74.6z"/>
		</g>
		<g id="XMLID_2705_">
			<path id="XMLID_2706_" class="st0" d="M247.4,79.5c0,0,0,0.3,0,0.7c0,0.2,0,0.5,0,0.9c-0.1,0.3-0.1,0.8-0.2,1.2
				c-0.2,0.9-0.5,2-1.1,3.1c-0.6,1.1-1.4,2.3-2.4,3.4c-2.1,2.3-5.2,4.3-8.8,5.5c-1.8,0.6-3.8,1-5.8,1c-1,0-2,0.1-3,0.1
				c-1,0-2,0-3-0.1c-4-0.3-8-1-11.8-1.4c-3.8-0.4-7.3-0.4-10.2-0.1c-3,0.4-5.4,1-7.1,1.6c-1.7,0.6-2.7,1-2.7,1c-0.1,0-1,0.4-2.6,1.1
				c-1.6,0.7-3.8,1.9-6.2,3.5c-2.4,1.7-5.1,3.9-7.5,6.7c-2.4,2.8-4.7,6.1-6.3,9.8c-1.7,3.6-2.8,7.5-3.4,11.3
				c-0.6,3.7-0.7,7.3-0.5,10.3c0.2,3,0.7,5.5,1.1,7.2c0.4,1.7,0.7,2.7,0.7,2.7s-0.3-1-0.8-2.7c-0.4-1.7-1-4.2-1.2-7.2
				c-0.3-3-0.2-6.6,0.3-10.4c0.6-3.8,1.6-7.7,3.3-11.5c1.6-3.7,3.8-7.2,6.3-10.1c2.4-2.9,5.1-5.3,7.6-7c2.5-1.8,4.7-3,6.3-3.8
				c1.6-0.8,2.6-1.1,2.7-1.2c0.1,0,1.1-0.4,2.8-1c1.8-0.5,4.3-1.1,7.4-1.5c3.1-0.3,6.7-0.2,10.5,0.3c3.8,0.5,7.7,1.2,11.7,1.6
				c1,0.1,2,0.1,3,0.2c1,0.1,2,0,3,0c2,0,3.9-0.4,5.7-0.9c3.6-1.1,6.7-3,8.8-5.2c1.1-1.1,1.9-2.3,2.5-3.4c0.6-1.1,0.9-2.2,1.1-3
				c0.1-0.4,0.2-0.8,0.2-1.2c0-0.4,0-0.7,0.1-0.9C247.4,79.7,247.4,79.5,247.4,79.5z"/>
		</g>
		<g id="XMLID_2703_">
			<path id="XMLID_2704_" class="st0" d="M290.9,120.4c0,0-0.1-0.3-0.3-0.7c-0.1-0.2-0.2-0.5-0.3-0.9c-0.1-0.3-0.3-0.7-0.5-1.2
				c-0.8-1.7-2.1-4.1-4.2-6.5c-2.1-2.4-5-4.8-8.5-6.4c-3.5-1.7-7.7-2.5-11.8-2.1c-4.1,0.3-8.1,1.7-11.4,3.8
				c-3.3,2.1-5.8,4.9-7.7,7.5c-1.9,2.6-3.2,4.9-4.1,6.6c-0.9,1.7-1.4,2.7-1.5,2.8c0,0.1-0.6,1-1.5,2.7c-0.9,1.6-2.2,4-3.8,6.7
				c-1.7,2.7-3.9,5.7-6.8,8.3c-0.4,0.3-0.7,0.7-1.1,1c-0.4,0.3-0.8,0.6-1.2,0.9c-0.8,0.6-1.6,1.2-2.4,1.8c-0.8,0.6-1.7,1.1-2.6,1.7
				c-0.9,0.5-1.8,1.1-2.6,1.6c-7.1,4.1-15,6.5-21,7.5c-1.5,0.2-2.9,0.4-4.1,0.5c-0.6,0.1-1.2,0.1-1.7,0.1c-0.5,0-1,0-1.5,0.1
				c-1.8,0.1-2.8,0.1-2.8,0.1s1-0.1,2.8-0.2c0.4,0,0.9-0.1,1.5-0.1c0.5,0,1.1,0,1.7-0.2c1.2-0.2,2.6-0.4,4.1-0.6
				c5.9-1.1,13.8-3.6,20.7-7.8c0.9-0.6,1.7-1.1,2.6-1.7c0.9-0.6,1.7-1.1,2.5-1.7c0.8-0.6,1.6-1.2,2.4-1.8c0.4-0.3,0.8-0.6,1.2-0.9
				c0.4-0.3,0.7-0.7,1.1-1c2.8-2.6,4.9-5.6,6.5-8.3c1.6-2.7,2.8-5,3.7-6.7c0.9-1.7,1.4-2.6,1.4-2.7c0-0.1,0.6-1.1,1.5-2.8
				c1-1.7,2.3-4.1,4.3-6.7c2-2.6,4.6-5.5,8.1-7.6c3.4-2.1,7.6-3.5,11.8-3.7c4.2-0.3,8.5,0.6,12,2.4c3.6,1.8,6.5,4.2,8.5,6.7
				c2.1,2.4,3.3,4.9,4.1,6.6c0.2,0.4,0.3,0.8,0.5,1.2c0.1,0.3,0.2,0.6,0.3,0.9C290.8,120.2,290.9,120.4,290.9,120.4z"/>
		</g>
		<g id="XMLID_2701_">
			<path id="XMLID_2702_" class="st0" d="M249.1,85.4c0,0,0,0.2,0,0.7c0,0.2,0,0.5,0,0.8c0,0.3,0,0.7,0,1.1
				c-0.1,1.6-0.5,3.9-1.8,6.3c-1.2,2.5-3.3,5-5.9,7.1c-1.3,1-2.8,2-4.4,2.7c-0.8,0.4-1.6,0.8-2.4,1c-0.8,0.3-1.7,0.6-2.5,0.8
				c-6.9,1.9-14.1,1.9-19.4,2.4c-2.7,0.2-4.9,0.5-6.4,0.7c-1.6,0.2-2.4,0.5-2.5,0.4c-0.1,0-0.9,0.1-2.4,0.5
				c-0.4,0.1-0.8,0.2-1.2,0.3c-0.4,0.1-0.9,0.3-1.4,0.4c-1,0.3-2.1,0.8-3.3,1.3c-2.3,1.1-4.8,2.7-7.2,5c-2.3,2.3-4.4,5.1-5.9,8.3
				c-1.5,3.1-2.4,6.6-2.6,9.9c-0.2,3.3,0.1,6.4,0.7,9c0.2,0.6,0.4,1.2,0.5,1.8c0.1,0.3,0.2,0.6,0.2,0.8c0.1,0.3,0.2,0.5,0.3,0.8
				c0.2,0.5,0.4,1,0.6,1.4c0.2,0.4,0.3,0.8,0.5,1.2c0.7,1.4,1.1,2.1,1.1,2.1s-0.4-0.8-1.2-2.1c-0.2-0.3-0.4-0.7-0.5-1.1
				c-0.2-0.4-0.4-0.9-0.6-1.4c-0.1-0.2-0.2-0.5-0.3-0.8c-0.1-0.3-0.2-0.6-0.3-0.8c-0.2-0.6-0.4-1.2-0.6-1.8
				c-0.6-2.6-1.1-5.7-0.9-9.1c0.2-3.3,1-6.9,2.5-10.2c1.4-3.3,3.5-6.2,5.8-8.6c2.3-2.4,5-4.1,7.3-5.3c1.2-0.5,2.3-1.1,3.3-1.4
				c0.5-0.2,1-0.3,1.4-0.5c0.4-0.1,0.9-0.2,1.2-0.3c1.5-0.4,2.4-0.6,2.5-0.6c0.1,0,1-0.2,2.6-0.4c1.6-0.2,3.8-0.4,6.5-0.5
				c5.3-0.3,12.4-0.1,19.3-1.9c0.9-0.2,1.7-0.5,2.5-0.8c0.8-0.2,1.6-0.6,2.4-1c1.6-0.7,3.1-1.5,4.4-2.5c2.6-2,4.7-4.4,6-6.8
				c1.3-2.4,1.8-4.6,1.9-6.2c0-0.4,0-0.8,0.1-1.1c0-0.3,0-0.6,0-0.8C249.1,85.6,249.1,85.4,249.1,85.4z"/>
		</g>
		<g id="XMLID_2699_">
			<path id="XMLID_2700_" class="st0" d="M225,72.4c0,0-0.3,0.2-0.8,0.5c-0.3,0.2-0.6,0.4-1,0.6c-0.4,0.2-0.9,0.4-1.4,0.6
				c-2.1,0.9-5.4,1.7-9.4,1.4c-4-0.2-8.5-1.5-13.1-3.6c-4.5-2.1-9.1-4.8-13.9-7.2c-4.8-2.4-9.8-4-14.7-4.5
				c-4.9-0.6-9.5-0.3-13.4,0.4c-1,0.2-1.9,0.4-2.8,0.6c-0.9,0.2-1.7,0.5-2.5,0.7c-0.8,0.2-1.5,0.5-2.2,0.7c-0.7,0.2-1.3,0.5-1.8,0.7
				c-2.2,0.9-3.4,1.6-3.5,1.6c-0.1,0-1.3,0.7-3.3,1.8c-1,0.6-2.1,1.4-3.5,2.2c-0.6,0.5-1.3,1-2,1.5c-0.3,0.3-0.7,0.5-1.1,0.8
				c-0.3,0.3-0.7,0.6-1.1,1c-2.9,2.6-6,6.1-8.4,10.3c-2.5,4.3-4.4,9.2-5.4,14.4c-1.1,5.2-1.3,10.5-0.8,15.5c0.4,5,1.6,9.5,3,13.2
				c0.2,0.5,0.3,0.9,0.5,1.4c0.2,0.4,0.4,0.9,0.6,1.3c0.4,0.8,0.7,1.6,1.1,2.3c0.8,1.4,1.5,2.6,2.1,3.6c1.3,1.9,2,3,2,3
				s-0.8-1.1-2.1-2.9c-0.6-1-1.3-2.2-2.1-3.6c-0.4-0.7-0.7-1.5-1.1-2.3c-0.2-0.4-0.4-0.8-0.6-1.3c-0.2-0.4-0.3-0.9-0.5-1.4
				c-1.5-3.7-2.8-8.2-3.3-13.2c-0.5-5-0.4-10.4,0.6-15.7c1-5.3,2.8-10.4,5.3-14.8c2.4-4.4,5.5-8,8.5-10.7c0.4-0.3,0.7-0.7,1.1-1
				c0.4-0.3,0.7-0.6,1.1-0.9c0.7-0.6,1.4-1.1,2-1.6c1.4-0.9,2.5-1.7,3.5-2.3c2.1-1.2,3.3-1.9,3.4-1.9c0.1,0,1.4-0.7,3.6-1.6
				c0.6-0.2,1.2-0.4,1.9-0.7c0.7-0.2,1.4-0.5,2.2-0.7c0.8-0.2,1.7-0.4,2.5-0.7c0.9-0.2,1.9-0.4,2.9-0.5c4-0.7,8.7-0.9,13.7-0.2
				c5,0.6,10.2,2.4,14.9,4.8c4.8,2.4,9.3,5.3,13.8,7.4c4.5,2.2,9,3.5,12.9,3.8c3.9,0.4,7.2-0.4,9.4-1.2c0.5-0.2,1-0.4,1.4-0.6
				c0.4-0.2,0.7-0.4,1-0.5C224.7,72.5,225,72.4,225,72.4z"/>
		</g>
		<g id="XMLID_2697_">
			<path id="XMLID_2698_" class="st0" d="M130.8,68.6c0,0-0.6,0.3-1.6,0.9c-0.5,0.3-1.1,0.6-1.8,1c-0.3,0.2-0.7,0.4-1.1,0.7
				c-0.4,0.3-0.8,0.5-1.2,0.8c-1.6,1.1-3.4,2.6-5.2,4.3c-1.8,1.7-3.5,3.8-5.1,5.9c-1.6,2.2-2.9,4.5-4.1,6.7
				c-0.5,1.2-1.1,2.2-1.5,3.3c-0.2,0.5-0.4,1.1-0.6,1.6c-0.2,0.5-0.3,1-0.5,1.5c-0.3,1-0.5,1.9-0.8,2.7c-0.2,0.8-0.4,1.5-0.5,2.1
				c-0.3,1.2-0.4,1.9-0.4,1.9c0,0-0.1,0.7-0.3,1.9c-0.1,1.2-0.4,2.8-0.4,4.8c-0.2,4,0.3,9.3,1.7,14.3c0.7,2.5,1.6,5,2.6,7.2
				c0.6,1.1,1,2.2,1.6,3.1c0.3,0.5,0.5,1,0.8,1.4c0.3,0.4,0.6,0.9,0.8,1.3c0.5,0.8,1,1.6,1.5,2.2c0.2,0.3,0.5,0.6,0.7,0.9
				c0.2,0.3,0.4,0.5,0.6,0.7c0.7,0.9,1.1,1.4,1.1,1.4s-0.4-0.5-1.2-1.3c-0.2-0.2-0.4-0.4-0.6-0.7c-0.2-0.3-0.4-0.6-0.7-0.9
				c-0.5-0.6-1.1-1.3-1.6-2.1c-0.3-0.4-0.6-0.8-0.9-1.3c-0.3-0.5-0.6-0.9-0.9-1.4c-0.6-0.9-1.1-2-1.7-3.1c-1.1-2.2-2.1-4.7-2.9-7.2
				c-1.6-5.1-2.3-10.5-2.2-14.5c0-2,0.2-3.7,0.3-4.9c0.2-1.2,0.3-1.9,0.3-2c0,0,0.1-0.8,0.4-2c0.1-0.6,0.3-1.3,0.6-2.2
				c0.3-0.8,0.5-1.7,0.9-2.7c0.2-0.5,0.4-1,0.6-1.5c0.2-0.5,0.4-1,0.7-1.6c0.4-1.1,1-2.2,1.6-3.4c1.2-2.3,2.7-4.6,4.4-6.7
				c1.7-2.1,3.5-4.1,5.4-5.8c1.9-1.7,3.7-3.1,5.4-4.2c0.4-0.3,0.8-0.5,1.2-0.8c0.4-0.2,0.8-0.4,1.1-0.6c0.7-0.4,1.3-0.8,1.8-1
				C130.2,68.9,130.8,68.6,130.8,68.6z"/>
		</g>
		<g id="XMLID_2695_">
			<path id="XMLID_2696_" class="st0" d="M283.4,108.7c0,0-0.5-0.1-1.5-0.3c-0.5-0.1-1.1-0.1-1.7-0.2c-0.7-0.1-1.4-0.1-2.3-0.1
				c-3.3-0.1-7.8,0.7-11.8,2.8c-2,1-3.9,2.3-5.4,3.7c-0.4,0.4-0.8,0.7-1.1,1.1c-0.4,0.4-0.7,0.7-1,1.1c-0.7,0.7-1.2,1.5-1.7,2.2
				c-0.5,0.7-0.9,1.4-1.3,2c-0.4,0.6-0.7,1.1-0.9,1.6c-0.5,0.9-0.8,1.4-0.8,1.5c0,0-0.3,0.6-0.8,1.4c-0.5,0.9-1.1,2.2-1.8,3.7
				c-1.5,3-3.2,7.2-5.5,11.1c-1.2,1.9-2.4,3.8-3.8,5.4c-1.4,1.6-2.8,2.9-4.2,3.9c-1.4,1-2.6,1.6-3.5,1.9c-0.9,0.3-1.4,0.5-1.4,0.5
				s0.5-0.2,1.4-0.6c0.9-0.4,2.1-1,3.4-2c1.3-1,2.7-2.3,4-4c1.3-1.6,2.5-3.5,3.6-5.4c2.1-3.9,3.7-8.1,5-11.3
				c0.7-1.6,1.2-2.9,1.7-3.8c0.4-0.9,0.7-1.5,0.7-1.5c0,0,0.3-0.6,0.9-1.5c0.3-0.5,0.6-1,1-1.6c0.4-0.6,0.8-1.3,1.4-2
				c0.6-0.7,1.1-1.4,1.8-2.2c0.4-0.4,0.7-0.7,1.1-1.1c0.4-0.3,0.8-0.7,1.2-1.1c1.7-1.4,3.6-2.6,5.7-3.6c4.2-1.9,8.7-2.6,12.1-2.4
				c0.8,0,1.6,0.1,2.3,0.2c0.7,0.1,1.3,0.2,1.7,0.3C282.9,108.5,283.4,108.7,283.4,108.7z"/>
		</g>
		<g id="XMLID_2693_">
			<path id="XMLID_2694_" class="st0" d="M28,172.7c0,0,0-0.9-0.1-2.6c0-0.8,0-1.8,0-2.9c0-0.6,0-1.2,0-1.8c0-0.6,0.1-1.3,0.1-2
				c0.1-2.8,0.5-6,1.1-9.5c0.6-3.5,1.4-7.1,2.3-10.7c1-3.6,2.2-7.2,3.5-10.4c1.4-3.2,2.7-6.2,4.1-8.7c0.3-0.6,0.7-1.2,1-1.8
				c0.3-0.6,0.7-1.1,1-1.6c0.3-0.5,0.6-1,0.8-1.4c0.3-0.4,0.5-0.8,0.8-1.1c0.9-1.4,1.5-2.2,1.6-2.2c0-0.1,0.6-0.8,1.7-2.1
				c1.1-1.2,2.6-3,4.5-4.8c0.5-0.5,1-1,1.6-1.4c0.6-0.5,1.1-1,1.7-1.5c0.6-0.5,1.3-0.9,1.9-1.4c0.3-0.2,0.6-0.5,1-0.7
				c0.3-0.2,0.7-0.4,1.1-0.7c0.7-0.4,1.4-0.9,2.2-1.3c0.8-0.4,1.5-0.8,2.3-1.2c0.8-0.4,1.6-0.7,2.4-1.1c0.8-0.4,1.6-0.6,2.5-0.9
				c1.7-0.6,3.4-1,5.1-1.4c1.7-0.2,3.4-0.6,5-0.6c3.3-0.3,6.4,0,8.9,0.3c2.6,0.4,4.7,0.8,6.2,1.3c1.5,0.4,2.3,0.6,2.3,0.6
				s-0.8-0.2-2.3-0.6c-1.5-0.4-3.6-0.8-6.2-1.1c-2.6-0.3-5.6-0.5-8.9-0.1c-1.6,0.1-3.3,0.4-5,0.7c-1.7,0.4-3.4,0.8-5,1.5
				c-0.8,0.3-1.6,0.6-2.4,1c-0.8,0.4-1.6,0.7-2.4,1.1c-0.8,0.4-1.5,0.8-2.2,1.2c-0.7,0.4-1.4,0.9-2.1,1.4c-0.3,0.2-0.7,0.5-1,0.7
				c-0.3,0.2-0.6,0.5-1,0.7c-0.6,0.5-1.2,1-1.8,1.4c-0.6,0.5-1.1,1-1.7,1.5c-0.5,0.5-1,0.9-1.5,1.4c-1.9,1.9-3.3,3.6-4.3,4.8
				c-1,1.3-1.5,2-1.6,2.1c-0.1,0-0.6,0.8-1.6,2.2c-0.2,0.3-0.5,0.7-0.8,1.1c-0.3,0.4-0.6,0.9-0.9,1.3c-0.3,0.5-0.6,1-1,1.5
				c-0.3,0.5-0.7,1.1-1,1.7c-1.4,2.4-2.8,5.3-4.3,8.5c-1.4,3.2-2.6,6.7-3.7,10.2c-1,3.6-1.9,7.2-2.5,10.6c-0.6,3.4-1,6.7-1.3,9.5
				c-0.1,0.7-0.1,1.4-0.2,2c0,0.6-0.1,1.2-0.1,1.8c-0.1,1.1-0.1,2.1-0.1,2.9C28,171.8,28,172.7,28,172.7z"/>
		</g>
		<g id="XMLID_2691_">
			<path id="XMLID_2692_" class="st0" d="M44.1,136.3c0,0,0.1-0.5,0.2-1.5c0-0.5,0.1-1,0.3-1.7c0.1-0.3,0.1-0.7,0.2-1
				c0.1-0.4,0.2-0.7,0.3-1.1c0.3-1.6,1-3.4,1.7-5.3c0.8-1.9,1.8-3.8,2.9-5.7c1.2-1.8,2.5-3.5,3.9-5.1c1.4-1.5,2.8-2.8,4.1-3.8
				c1.3-1,2.4-1.8,3.3-2.3c0.8-0.5,1.3-0.8,1.4-0.8c0,0,0.5-0.3,1.4-0.7c0.9-0.3,2.1-0.9,3.6-1.3c3-0.9,7.1-1.5,11.2-1.3
				c2.1,0.1,4.1,0.4,5.9,0.8c0.9,0.3,1.8,0.5,2.7,0.8c0.4,0.1,0.8,0.3,1.2,0.4c0.4,0.2,0.8,0.3,1.1,0.5c0.7,0.3,1.3,0.6,1.9,0.9
				c0.6,0.3,1,0.5,1.4,0.7c0.8,0.4,1.2,0.7,1.2,0.7s-0.5-0.2-1.2-0.6c-0.4-0.2-0.9-0.4-1.5-0.7c-0.6-0.3-1.2-0.5-1.9-0.8
				c-0.4-0.1-0.7-0.3-1.1-0.4c-0.4-0.1-0.8-0.2-1.2-0.4c-0.8-0.3-1.7-0.4-2.7-0.6c-1.9-0.3-3.9-0.6-5.9-0.6c-4,0-8,0.7-10.9,1.7
				c-1.4,0.5-2.6,1-3.4,1.4c-0.8,0.4-1.3,0.7-1.3,0.7c0,0-0.5,0.2-1.3,0.7c-0.8,0.4-1.9,1.1-3.2,2.1c-1.3,0.9-2.7,2.1-4.1,3.5
				c-1.4,1.4-2.7,3-4,4.8c-1.2,1.8-2.2,3.6-3.1,5.5c-0.8,1.8-1.5,3.6-1.9,5.2c-0.1,0.4-0.2,0.8-0.3,1.1c-0.1,0.4-0.1,0.7-0.2,1
				c-0.1,0.6-0.3,1.2-0.3,1.7C44.2,135.7,44.1,136.3,44.1,136.3z"/>
		</g>
		<g id="XMLID_2689_">
			<path id="XMLID_2690_" class="st0" d="M29.3,173c0,0,0.2-0.1,0.4-0.3c0.3-0.2,0.7-0.5,1.2-0.9c1-0.8,2.4-2.1,3.5-4
				c1.2-1.9,2.2-4.3,2.9-7.1c0.8-2.7,1.3-5.7,2.2-8.6c1.7-5.9,4.6-11.3,7.2-15.1c0.6-0.9,1.3-1.8,1.9-2.5c0.6-0.7,1.1-1.4,1.6-1.9
				c0.9-1,1.5-1.6,1.5-1.6c0,0,0.6-0.6,1.6-1.4c0.5-0.4,1.1-0.9,1.8-1.5c0.7-0.5,1.6-1.1,2.5-1.7c1.9-1.2,4.2-2.3,6.8-3.1
				c2.6-0.8,5.5-1.2,8.4-1.2c5.8-0.1,11.4,1.8,15.1,3.9c1.9,1,3.3,2.1,4.3,2.9c1,0.8,1.5,1.3,1.5,1.3s-0.6-0.4-1.5-1.2
				c-1-0.7-2.5-1.8-4.4-2.7c-3.8-2-9.3-3.6-15-3.4c-2.8,0.1-5.6,0.6-8.1,1.4c-2.5,0.9-4.7,2-6.5,3.2c-0.9,0.6-1.7,1.2-2.4,1.7
				c-0.7,0.6-1.3,1.1-1.7,1.5c-0.9,0.9-1.5,1.4-1.5,1.4c0,0-0.6,0.6-1.5,1.5c-0.5,0.5-1,1.1-1.6,1.8c-0.6,0.7-1.2,1.5-1.9,2.4
				c-2.6,3.6-5.6,8.9-7.4,14.6c-0.9,2.9-1.6,5.8-2.4,8.6c-0.8,2.7-1.9,5.2-3.2,7.1c-1.3,1.9-2.7,3.1-3.7,3.9c-0.5,0.4-1,0.6-1.2,0.8
				C29.4,172.9,29.3,173,29.3,173z"/>
		</g>
		<g id="XMLID_2687_">
			<path id="XMLID_2688_" class="st0" d="M33.2,179c0,0,0.4,0,1,0c0.3,0,0.7,0,1.1,0c0.4,0,0.9,0,1.5-0.1c2.2-0.1,5-0.7,7.8-1.4
				c2.8-0.8,5.4-1.9,7.4-2.9c1-0.5,1.8-1,2.3-1.3c0.6-0.3,0.9-0.5,0.9-0.5c0,0,0.3-0.2,0.9-0.5c0.5-0.3,1.3-0.7,2.2-1.3
				c0.4-0.3,0.9-0.6,1.4-0.9c0.5-0.4,1-0.7,1.5-1.1c0.3-0.2,0.5-0.4,0.8-0.6c0.3-0.2,0.5-0.4,0.8-0.7c0.5-0.5,1.1-0.9,1.6-1.4
				c2.1-1.9,3.9-4.1,5.2-5.8c0.7-0.8,1.1-1.6,1.5-2.1c0.3-0.5,0.5-0.8,0.5-0.8s-0.2,0.3-0.5,0.9c-0.3,0.5-0.7,1.3-1.4,2.2
				c-1.2,1.8-2.9,4.1-4.9,6.2c-0.5,0.5-1,1-1.5,1.5c-0.3,0.2-0.5,0.5-0.8,0.7c-0.3,0.2-0.5,0.4-0.8,0.7c-0.5,0.4-1,0.9-1.5,1.3
				c-0.5,0.4-1,0.7-1.4,1c-0.9,0.7-1.6,1.1-2.2,1.5c-0.5,0.3-0.9,0.6-0.9,0.6c0,0-0.4,0.2-1,0.5c-0.6,0.3-1.4,0.7-2.5,1.1
				c-2,0.9-4.8,1.8-7.7,2.5c-2.9,0.6-5.7,0.9-7.9,1c-0.5,0-1,0-1.5,0c-0.4,0-0.8,0-1.1,0C33.6,179,33.2,179,33.2,179z"/>
		</g>
		<g id="XMLID_2685_">
			<path id="XMLID_2686_" class="st0" d="M33.6,192.5c0,0,0.2,0.2,0.5,0.6c0.2,0.2,0.4,0.4,0.6,0.7c0.1,0.1,0.2,0.3,0.4,0.4
				c0.1,0.1,0.3,0.3,0.5,0.4c0.3,0.3,0.7,0.6,1,1c0.4,0.4,0.8,0.6,1.2,1c0.8,0.7,1.9,1.2,2.9,1.7c2.1,0.9,4.3,1.4,6,1.4
				c0.4,0.1,0.8,0,1.2,0c0.3,0,0.6,0,0.9,0c0.5,0,0.8-0.1,0.8-0.1c0,0,0.3,0,0.8-0.1c0.5-0.1,1.2-0.1,2-0.4c0.4-0.1,0.8-0.2,1.3-0.4
				c0.4-0.2,0.9-0.4,1.4-0.6c0.2-0.1,0.5-0.2,0.7-0.3c0.2-0.1,0.5-0.3,0.7-0.4c0.5-0.3,1-0.5,1.4-0.9c0.4-0.3,0.9-0.7,1.3-1l0.3-0.3
				l0.3-0.3c0.2-0.2,0.4-0.4,0.6-0.6c0.8-0.7,1.3-1.6,1.8-2.3c0.3-0.3,0.5-0.7,0.6-1c0.2-0.3,0.3-0.6,0.4-0.8
				c0.2-0.4,0.4-0.7,0.4-0.7s-0.1,0.3-0.3,0.7c-0.1,0.2-0.2,0.5-0.4,0.8c-0.1,0.3-0.3,0.7-0.6,1c-0.5,0.7-1,1.6-1.7,2.4
				c-0.2,0.2-0.4,0.4-0.5,0.6l-0.3,0.3l-0.3,0.3c-0.4,0.4-0.8,0.8-1.3,1.2c-0.4,0.4-0.9,0.7-1.4,1c-0.2,0.2-0.5,0.3-0.7,0.5
				c-0.2,0.1-0.5,0.3-0.7,0.4c-0.5,0.3-1,0.5-1.4,0.7c-0.5,0.2-0.9,0.3-1.3,0.5c-0.8,0.3-1.6,0.4-2.1,0.6c-0.5,0.1-0.8,0.2-0.8,0.2
				c0,0-0.3,0.1-0.9,0c-0.3,0-0.6,0-1,0c-0.4,0-0.8,0-1.2-0.1c-1.8-0.2-4.1-0.9-6.2-2c-1-0.6-2.1-1.2-2.9-2
				c-0.4-0.4-0.9-0.7-1.2-1.1c-0.3-0.4-0.7-0.7-1-1.1c-0.1-0.2-0.3-0.3-0.4-0.5c-0.1-0.2-0.2-0.3-0.3-0.5c-0.2-0.3-0.4-0.6-0.5-0.8
				C33.8,192.7,33.6,192.5,33.6,192.5z"/>
		</g>
		<g id="XMLID_2683_">
			<path id="XMLID_2684_" class="st0" d="M32.3,205c0,0,0.3,0.2,0.7,0.6c0.2,0.2,0.5,0.4,0.9,0.7c0.3,0.3,0.7,0.5,1.2,0.8
				c1.8,1.2,4.3,2.4,6.9,3.5c2.6,1.1,5.2,2.1,7.2,2.9c1,0.4,1.8,0.8,2.4,1c0.6,0.3,0.9,0.4,0.9,0.4c0,0,0.3,0.2,0.9,0.5
				c0.5,0.3,1.3,0.8,2.2,1.4c0.9,0.6,1.9,1.3,2.9,2.2c1,0.9,2,1.9,2.7,3.1c1.7,2.3,2.5,5.1,2.9,7.2c0.1,1.1,0.3,1.9,0.3,2.5
				c0,0.6,0.1,1,0.1,1s0-0.3-0.1-1c0-0.6-0.2-1.5-0.4-2.5c-0.5-2-1.5-4.7-3.2-6.8c-0.8-1.1-1.8-2-2.8-2.8c-1-0.8-2-1.4-2.9-2
				c-0.9-0.5-1.6-0.9-2.2-1.2c-0.5-0.3-0.9-0.4-0.9-0.4c0,0-0.3-0.2-0.9-0.5c-0.6-0.3-1.3-0.7-2.3-1.1c-1.9-0.9-4.5-2.1-7.1-3.3
				c-2.5-1.2-5-2.7-6.7-4c-0.4-0.3-0.8-0.6-1.1-0.9c-0.3-0.3-0.6-0.5-0.8-0.7C32.6,205.2,32.3,205,32.3,205z"/>
		</g>
		<g id="XMLID_2681_">
			<path id="XMLID_2682_" class="st0" d="M36.6,211.6c0,0,0.7,1.3,1.7,3.2c1.1,1.9,2.6,4.4,4.4,6.7c1.8,2.3,3.7,4.5,5.2,6
				c0.8,0.8,1.4,1.4,1.9,1.9c0.5,0.4,0.8,0.7,0.8,0.7c0,0,0.3,0.3,0.7,0.7c0.4,0.5,1.1,1.1,1.8,1.8c0.8,0.7,1.7,1.5,2.7,2.4
				c1,0.8,2.1,1.8,3.1,2.8c1,1,1.9,2.2,2.5,3.4c0.6,1.2,1,2.4,1.3,3.5c0.2,1.1,0.4,1.9,0.4,2.6c0.1,0.6,0.1,1,0.1,1s-0.1-0.4-0.1-1
				c-0.1-0.6-0.3-1.5-0.5-2.5c-0.3-1-0.8-2.2-1.4-3.3c-0.7-1.1-1.6-2.2-2.6-3.1c-2.1-1.9-4.4-3.4-6.1-4.8c-0.8-0.7-1.5-1.3-2-1.7
				c-0.5-0.4-0.7-0.7-0.8-0.7c0,0-0.3-0.3-0.7-0.8c-0.5-0.5-1.1-1.2-1.8-2c-1.5-1.6-3.3-4-5-6.4c-1.7-2.4-3-5-4-7
				C37.2,213,36.6,211.6,36.6,211.6z"/>
		</g>
		<g id="XMLID_2679_">
			<path id="XMLID_2680_" class="st0" d="M40.7,238.8c0,0,0.1,0.2,0.3,0.5c0.2,0.3,0.5,0.9,0.9,1.4c0.7,1.2,1.8,2.6,3,4
				c1.2,1.4,2.5,2.6,3.6,3.5c0.5,0.4,1,0.8,1.3,1c0.3,0.2,0.5,0.4,0.5,0.4c0,0,0.2,0.2,0.5,0.4c0.3,0.2,0.7,0.6,1.3,1
				c1,0.8,2.5,1.7,4,2.6c1.5,0.8,3.1,1.5,4.4,1.9c0.6,0.2,1.1,0.4,1.5,0.5c0.4,0.1,0.6,0.2,0.6,0.2s-0.2,0-0.6-0.1
				c-0.4-0.1-0.9-0.2-1.5-0.3c-1.3-0.3-3-0.8-4.6-1.5c-1.6-0.7-3.2-1.5-4.4-2.3c-0.6-0.3-1.1-0.7-1.4-0.9c-0.3-0.2-0.5-0.4-0.5-0.4
				c0,0-0.2-0.2-0.5-0.5c-0.3-0.3-0.8-0.7-1.2-1.2c-1-1-2.2-2.4-3.4-3.9c-1.1-1.5-2.1-3.1-2.7-4.3c-0.3-0.6-0.5-1.1-0.7-1.5
				C40.8,239,40.7,238.8,40.7,238.8z"/>
		</g>
		<g id="XMLID_2677_">
			<path id="XMLID_2678_" class="st0" d="M39.2,252c0,0,7.7,8.3,7.7,8.4c0.1,0.1,6.5,9,6.5,9s-7.5-8-7.5-8.1
				C45.9,261.2,39.2,252,39.2,252z"/>
		</g>
		<g id="XMLID_2675_">
			<path id="XMLID_2676_" class="st0" d="M319,183.3c0,0-0.1,0.2-0.4,0.6c-0.1,0.2-0.3,0.4-0.4,0.7c-0.1,0.1-0.2,0.3-0.3,0.4
				c-0.1,0.1-0.2,0.3-0.3,0.4c-0.9,1.3-2.4,2.7-4.2,4c-1.8,1.2-3.7,2-5.3,2.4c-0.8,0.2-1.4,0.3-1.9,0.4c-0.5,0.1-0.7,0.1-0.8,0.1
				c0,0-0.3,0-0.8,0c-0.5,0-1.1,0-1.9-0.2c-0.4-0.1-0.8-0.1-1.2-0.2c-0.4-0.1-0.9-0.3-1.3-0.4c-0.2-0.1-0.5-0.1-0.7-0.2
				c-0.2-0.1-0.5-0.2-0.7-0.3c-0.5-0.2-0.9-0.4-1.4-0.6c-0.9-0.5-1.8-1-2.5-1.6c-0.8-0.5-1.4-1.2-2-1.7c-0.3-0.2-0.5-0.5-0.7-0.8
				c-0.2-0.2-0.4-0.4-0.5-0.6c-0.3-0.3-0.4-0.5-0.4-0.5s0.2,0.2,0.5,0.5c0.2,0.2,0.3,0.3,0.6,0.6c0.2,0.2,0.4,0.5,0.8,0.7
				c0.6,0.5,1.2,1,2,1.5c0.8,0.5,1.7,0.9,2.6,1.3c0.4,0.2,0.9,0.3,1.4,0.5c0.2,0.1,0.5,0.1,0.7,0.2c0.2,0,0.5,0.1,0.7,0.1
				c0.4,0.1,0.9,0.2,1.3,0.3c0.4,0,0.8,0.1,1.2,0.1c0.7,0.1,1.3,0,1.8,0c0.4,0,0.7,0,0.7,0c0,0,0.3,0,0.7,0c0.4-0.1,1.1-0.1,1.8-0.2
				c1.5-0.3,3.4-0.9,5.2-1.9c1.7-1,3.3-2.3,4.3-3.5c0.1-0.1,0.3-0.3,0.4-0.4c0.1-0.1,0.2-0.3,0.3-0.4c0.2-0.3,0.4-0.5,0.5-0.7
				C318.8,183.5,319,183.3,319,183.3z"/>
		</g>
		<g id="XMLID_2673_">
			<path id="XMLID_2674_" class="st0" d="M319.9,185.2c0,0-0.6,1.1-1.5,2.8c-0.9,1.7-2.1,4-3.3,6.3c-1.2,2.3-2.5,4.5-3.6,6.2
				c-0.5,0.8-1,1.5-1.3,2c-0.3,0.5-0.5,0.7-0.6,0.8c0,0-0.2,0.3-0.6,0.7c-0.4,0.4-0.9,1-1.6,1.7c-1.4,1.3-3.4,2.9-5.6,3.9
				c-2.2,1.1-4.7,1.5-6.5,1.6c-0.9,0-1.7,0-2.2,0c-0.5,0-0.8-0.1-0.8-0.1s0.3,0,0.8,0c0.5,0,1.3,0,2.2-0.1c1.8-0.2,4.1-0.8,6.2-2
				c2.1-1.2,3.9-2.8,5.1-4.1c0.6-0.7,1.1-1.3,1.5-1.7c0.3-0.4,0.5-0.7,0.5-0.7c0,0,0.2-0.3,0.6-0.7c0.4-0.4,0.9-1.1,1.4-1.8
				c1.1-1.5,2.6-3.7,3.9-5.8c1.3-2.2,2.7-4.4,3.6-6C319.2,186.2,319.9,185.2,319.9,185.2z"/>
		</g>
		<g id="XMLID_2671_">
			<path id="XMLID_2672_" class="st0" d="M318.3,196.5c0,0-0.5,1.2-1.1,3.1c-0.6,1.9-1.4,4.5-2.2,7c-0.8,2.6-1.7,5.1-2.5,7
				c-0.4,0.9-0.7,1.7-1,2.3c-0.3,0.5-0.4,0.9-0.4,0.9c0,0-0.2,0.3-0.5,0.8c-0.3,0.5-0.8,1.2-1.4,2c-1.2,1.6-2.9,3.6-5.1,5
				c-2.1,1.5-4.6,2.3-6.4,2.6c-0.9,0.2-1.7,0.2-2.3,0.3c-0.5,0-0.9,0.1-0.9,0.1s0.3,0,0.9-0.1c0.5-0.1,1.3-0.2,2.2-0.4
				c1.8-0.5,4.2-1.4,6.1-2.9c2-1.5,3.6-3.5,4.6-5.1c0.5-0.8,0.9-1.5,1.2-2c0.3-0.5,0.4-0.8,0.4-0.8c0,0,0.2-0.3,0.5-0.8
				c0.3-0.5,0.7-1.2,1.1-2.1c0.9-1.8,1.9-4.2,2.9-6.7c0.9-2.5,1.9-5,2.6-6.8C317.8,197.8,318.3,196.5,318.3,196.5z"/>
		</g>
		<g id="XMLID_2669_">
			<path id="XMLID_2670_" class="st0" d="M320.3,210.8c0,0-0.2,0.2-0.6,0.6c-0.2,0.2-0.4,0.5-0.6,0.8c-0.2,0.3-0.5,0.6-0.8,1
				c-0.6,0.8-1.2,1.7-1.8,2.7c-0.6,1-1.2,2.2-1.7,3.4c-1,2.3-1.9,4.8-2.6,6.6c-0.3,0.9-0.6,1.7-0.8,2.2c-0.2,0.5-0.3,0.9-0.3,0.9
				c0,0-0.2,0.3-0.4,0.8c-0.2,0.5-0.6,1.2-1,2.1c-0.9,1.7-2.2,3.9-3.9,5.7c-0.9,0.9-1.8,1.7-2.8,2.4c-1,0.7-1.9,1.2-2.8,1.5
				c-0.8,0.4-1.6,0.6-2.1,0.7c-0.5,0.1-0.8,0.2-0.8,0.2s0.3-0.1,0.8-0.3c0.5-0.2,1.2-0.5,2-0.9c0.8-0.4,1.7-1,2.6-1.7
				c0.9-0.7,1.7-1.6,2.5-2.5c1.5-1.9,2.7-4.1,3.4-5.8c0.4-0.8,0.7-1.6,0.9-2.1c0.2-0.5,0.3-0.8,0.3-0.8c0,0,0.6-1.2,1.4-3
				c0.8-1.8,1.8-4.2,3-6.4c0.6-1.1,1.3-2.3,1.9-3.3c0.7-1,1.3-1.9,1.9-2.6c0.3-0.4,0.6-0.7,0.9-1c0.3-0.3,0.5-0.5,0.7-0.7
				C320.1,211.1,320.3,210.8,320.3,210.8z"/>
		</g>
		<g id="XMLID_2667_">
			<path id="XMLID_2668_" class="st0" d="M304,268.3c0,0,0.1-1.2,0.2-3c0-0.5,0-1,0.1-1.5c0-0.5,0.1-1.1,0.2-1.6
				c0.2-1.1,0.3-2.3,0.5-3.6c0.6-2.4,1.1-4.8,1.8-6.5c0.3-0.9,0.5-1.6,0.7-2.1c0.2-0.5,0.3-0.8,0.3-0.8c0,0,0.6-1.1,1.4-2.7
				c0.2-0.4,0.4-0.8,0.7-1.3c0.3-0.4,0.6-0.9,0.9-1.4c0.6-0.9,1.2-1.9,1.9-2.9c1.5-1.8,2.8-3.7,4.1-4.9c1.2-1.3,2-2.1,2-2.1
				s-0.7,0.9-1.9,2.2c-1.2,1.3-2.4,3.3-3.7,5.2c-0.6,1-1.1,2-1.7,3c-0.3,0.5-0.5,0.9-0.8,1.4c-0.2,0.5-0.4,0.9-0.6,1.3
				c-0.7,1.6-1.2,2.7-1.2,2.7c0,0-0.2,0.3-0.4,0.8c-0.2,0.5-0.5,1.2-0.8,2c-0.8,1.6-1.4,4-2.1,6.3c-0.3,1.2-0.5,2.4-0.8,3.5
				c-0.1,0.6-0.3,1.1-0.3,1.6c-0.1,0.5-0.1,1-0.2,1.5C304.2,267.1,304,268.3,304,268.3z"/>
		</g>
		<g id="XMLID_2665_">
			<path id="XMLID_2666_" class="st0" d="M308.2,167.6c0,0-0.1-0.6-0.2-1.6c-0.2-1-0.5-2.4-1.4-3.9c-0.8-1.5-2.1-3.1-3.7-4.5
				c-1.6-1.3-3.7-2.4-5.8-2.9c-2.2-0.5-4.4-0.4-6.4,0.3c-2,0.7-3.6,1.8-5.1,2.7c-1.4,0.9-2.7,1.7-3.6,2.2c-0.9,0.5-1.5,0.7-1.6,0.7
				c0,0-0.6,0.3-1.6,0.6c-0.5,0.1-1.1,0.3-1.8,0.5c-0.7,0.1-1.5,0.3-2.3,0.4c-3.4,0.3-8-0.1-12.1-2c-2.1-0.8-4-2.1-5.6-3.4
				c-0.8-0.7-1.6-1.3-2.2-2c-0.3-0.4-0.7-0.7-1-1c-0.3-0.4-0.6-0.7-0.8-1c-0.5-0.6-0.9-1.3-1.3-1.9c-0.2-0.3-0.4-0.6-0.5-0.8
				c-0.1-0.3-0.2-0.5-0.4-0.7c-0.4-0.9-0.7-1.4-0.7-1.4s0.3,0.5,0.7,1.4c0.1,0.2,0.2,0.5,0.4,0.7c0.2,0.2,0.3,0.5,0.5,0.8
				c0.4,0.6,0.8,1.2,1.4,1.8c0.3,0.3,0.6,0.7,0.8,1c0.3,0.3,0.7,0.6,1,1c0.7,0.7,1.5,1.3,2.3,1.9c1.7,1.2,3.6,2.3,5.6,3.1
				c4.1,1.7,8.5,1.9,11.7,1.4c0.8-0.1,1.5-0.3,2.2-0.4c0.6-0.2,1.2-0.4,1.6-0.5c0.9-0.3,1.4-0.6,1.5-0.6c0,0,0.6-0.2,1.5-0.6
				c0.9-0.4,2.1-1.2,3.6-2c1.5-0.9,3.3-1.9,5.4-2.6c2.1-0.7,4.5-0.7,6.8-0.1c2.2,0.6,4.3,1.8,6,3.2c1.7,1.4,2.9,3.1,3.7,4.7
				c0.8,1.6,1.1,3,1.3,4C308.1,167,308.2,167.6,308.2,167.6z"/>
		</g>
		<g id="XMLID_2663_">
			<path id="XMLID_2664_" class="st0" d="M324.8,169.4c0,0-0.2,0-0.5,0c-0.3,0-0.8,0.1-1.3,0c-1.1-0.1-2.8-0.4-4.5-1.5
				c-1.7-1-3.4-2.7-5-4.7c-1.6-2-2.9-4.4-4.2-6.7c-1.3-2.4-2.6-4.7-4.2-6.6c-0.8-1-1.6-1.8-2.4-2.6c-0.9-0.7-1.7-1.3-2.6-1.7
				c-1.7-0.9-3.3-1-4.4-1c-1.1,0-1.8,0.1-1.8,0.1c0,0-0.7,0.1-1.8,0.3c-1.1,0.2-2.6,0.7-4.4,1.3c-1.8,0.6-4,1.4-6.4,1.8
				c-2.4,0.5-5.1,0.2-7.5-0.8c-2.4-1-4.6-2.6-6.1-4.5c-1.6-1.9-2.7-3.9-3.3-5.8c-0.6-1.9-0.7-3.6-0.7-4.7c0.1-1.1,0.1-1.8,0.1-1.8
				s0,0.7-0.1,1.8c0.1,1.1,0.2,2.8,0.9,4.6c0.7,1.8,1.8,3.8,3.4,5.6c1.6,1.8,3.7,3.3,6.1,4.1c2.3,0.9,4.9,1,7.1,0.5
				c2.3-0.5,4.4-1.3,6.2-2c1.8-0.7,3.4-1.2,4.5-1.5c1.1-0.3,1.8-0.4,1.9-0.4c0,0,0.8-0.1,2-0.1c1.2,0,3,0.3,4.9,1.3
				c0.9,0.5,1.8,1.2,2.7,2c0.9,0.8,1.7,1.8,2.5,2.8c1.5,2.1,2.8,4.5,4,6.9c1.2,2.4,2.4,4.8,3.9,6.8c1.5,2,3.1,3.7,4.8,4.7
				c1.6,1.1,3.3,1.5,4.4,1.6c0.6,0.1,1,0,1.3,0C324.6,169.4,324.8,169.4,324.8,169.4z"/>
		</g>
		<g id="XMLID_2661_">
			<path id="XMLID_2662_" class="st0" d="M297.7,132.8c0,0-0.2,0.1-0.5,0.3c-0.2,0.1-0.4,0.2-0.6,0.4c-0.2,0.1-0.5,0.3-0.8,0.4
				c-1.2,0.6-2.9,1.1-4.6,1.3c-1.8,0.2-3.5,0-4.9-0.2c-0.7-0.1-1.2-0.3-1.6-0.4c-0.4-0.1-0.6-0.2-0.6-0.2c0,0-0.2-0.1-0.6-0.3
				c-0.4-0.2-0.9-0.4-1.4-0.8c-1.2-0.6-2.5-1.8-3.7-3c-1.2-1.3-2.1-2.8-2.6-4c-0.3-0.6-0.4-1.1-0.6-1.5c-0.1-0.4-0.2-0.6-0.2-0.6
				s0.1,0.2,0.2,0.5c0.2,0.3,0.3,0.9,0.7,1.4c0.6,1.1,1.7,2.5,2.9,3.6c1.3,1.1,2.6,2,3.8,2.5c0.5,0.3,1,0.5,1.4,0.6
				c0.3,0.1,0.5,0.2,0.6,0.2c0,0,0.2,0.1,0.6,0.2c0.4,0.1,0.8,0.3,1.5,0.5c1.2,0.4,2.9,0.7,4.6,0.7c1.7-0.1,3.4-0.4,4.6-0.9
				c0.3-0.1,0.6-0.2,0.8-0.3c0.2-0.1,0.4-0.2,0.6-0.3C297.5,132.9,297.7,132.8,297.7,132.8z"/>
		</g>
		<g id="XMLID_2659_">
			<path id="XMLID_2660_" class="st0" d="M315.9,174.5c0,0,0,0.3-0.1,0.9c-0.1,0.5-0.3,1.4-0.9,2.2c-0.5,0.8-1.4,1.6-2.4,2.2
				c-1,0.6-2.3,1-3.6,1.2c-1.3,0.2-2.6,0.1-3.8-0.3c-0.6-0.2-1.2-0.3-1.7-0.6c-0.5-0.2-1-0.4-1.4-0.7c-0.4-0.2-0.8-0.5-1.2-0.7
				c-0.3-0.2-0.6-0.4-0.9-0.6c-0.5-0.3-0.8-0.5-0.8-0.5c0,0-0.3-0.2-0.7-0.6c-0.4-0.4-1-0.9-1.7-1.6c-1.4-1.3-3.1-3.1-5.1-4.5
				c-2-1.5-4.2-2.5-6-2.8c-0.9-0.2-1.6-0.2-2.2-0.1c-0.5,0.1-0.8,0.1-0.8,0.1s0.3-0.1,0.8-0.1c0.5,0,1.3-0.1,2.2,0
				c1.8,0.2,4.2,1.1,6.3,2.4c2.1,1.3,4,3,5.4,4.2c0.7,0.6,1.3,1.1,1.8,1.4c0.4,0.3,0.7,0.5,0.7,0.5c0,0,0.3,0.2,0.7,0.6
				c0.2,0.2,0.5,0.4,0.8,0.6c0.3,0.2,0.7,0.4,1.1,0.7c1.6,1,3.8,2.1,6.3,1.9c1.2-0.1,2.4-0.4,3.4-0.9c1-0.5,1.9-1.2,2.5-2
				c0.6-0.7,0.8-1.5,1-2.1C315.9,174.8,315.9,174.5,315.9,174.5z"/>
		</g>
		<g id="XMLID_2657_">
			<path id="XMLID_2658_" class="st0" d="M212.8,72.7c0,0-1.3-0.6-3.5-1.7c-2.2-1.1-5.4-2.6-9.3-4.4c-3.9-1.7-8.4-3.7-13.4-5.6
				c-5-1.8-10.4-3.6-15.9-4.8c-5.5-1.2-11.1-2-16.4-2.1c-5.3-0.1-10.2,0.6-14.4,1.5c-1,0.3-2,0.6-2.9,0.8c-0.9,0.3-1.8,0.5-2.6,0.8
				c-0.8,0.3-1.6,0.5-2.3,0.9c-0.7,0.3-1.3,0.6-1.9,0.8c-2.3,1.1-3.6,1.8-3.7,1.8c0,0-0.4,0.2-1,0.5c-0.3,0.2-0.7,0.4-1.1,0.6
				c-0.4,0.2-0.9,0.6-1.4,0.9c-2.1,1.3-5,3.3-8,6.2c-0.8,0.7-1.5,1.5-2.3,2.3c-0.8,0.8-1.5,1.7-2.4,2.6c-1.5,1.9-3.1,3.9-4.5,6.1
				c-1.5,2.2-2.7,4.6-3.9,7.1c-0.3,0.6-0.5,1.3-0.8,1.9l-0.4,1l-0.4,1l-0.7,2l-0.6,2c-1.6,5.4-2.2,11.1-2.2,16.5
				c0.1,5.3,0.8,10.3,1.9,14.4c1.1,4.1,2.4,7.4,3.4,9.7c0.5,1.1,1,2,1.3,2.6c0.3,0.6,0.5,0.9,0.5,0.9s-0.2-0.3-0.5-0.9
				c-0.3-0.6-0.8-1.4-1.3-2.6c-1.1-2.2-2.4-5.5-3.5-9.6c-1.1-4.1-2-9.1-2.1-14.4c-0.1-5.4,0.4-11.1,2-16.6l0.6-2.1l0.7-2l0.3-1
				l0.4-1c0.3-0.7,0.5-1.3,0.8-2c1.2-2.6,2.4-5,3.9-7.3c1.4-2.3,3-4.3,4.5-6.3c0.8-0.9,1.6-1.8,2.4-2.7c0.8-0.8,1.6-1.6,2.3-2.4
				c3.1-3,6-5.1,8.1-6.4c0.5-0.3,1-0.7,1.4-0.9c0.4-0.2,0.8-0.5,1.1-0.6c0.6-0.3,0.9-0.5,1-0.6c0.1-0.1,1.4-0.8,3.8-1.8
				c0.6-0.2,1.3-0.5,2-0.8c0.7-0.3,1.5-0.5,2.3-0.8c0.8-0.3,1.7-0.5,2.7-0.8c1-0.2,2-0.5,3-0.8c4.2-0.8,9.3-1.5,14.6-1.3
				c5.4,0.2,11,1,16.5,2.4c5.5,1.3,10.9,3.2,15.9,5.1c5,1.9,9.5,4,13.4,5.8c3.9,1.8,7,3.4,9.3,4.5C211.5,72.1,212.8,72.7,212.8,72.7
				z"/>
		</g>
		<g id="XMLID_2655_">
			<path id="XMLID_2656_" class="st0" d="M36.5,171.1c0,0,6.2-6.9,12.4-13.9c3.1-3.5,6.2-7,8.8-9.4c0.6-0.6,1.2-1.2,1.8-1.7
				c0.6-0.5,1-0.9,1.4-1.2c0.8-0.7,1.3-1.1,1.3-1.1c0,0,0.5-0.4,1.4-0.9c0.8-0.6,2.1-1.3,3.6-2.1c0.8-0.4,1.6-0.7,2.5-1.1
				c0.9-0.4,1.9-0.7,2.9-1c2.1-0.5,4.3-0.8,6.6-0.8c2.2,0.1,4.5,0.4,6.5,1.1c2,0.7,3.7,1.7,5,2.7c0.7,0.5,1.2,1.1,1.7,1.5
				c0.4,0.5,0.8,1,1.1,1.4c0.5,0.8,0.9,1.3,0.9,1.3s-0.3-0.5-0.9-1.3c-0.3-0.4-0.7-0.8-1.2-1.3c-0.5-0.4-1.1-1-1.8-1.5
				c-1.3-1-3.1-1.9-5.1-2.5c-2-0.6-4.2-0.9-6.3-0.9c-2.2,0-4.4,0.4-6.3,1c-1,0.3-1.9,0.6-2.8,1.1c-0.8,0.4-1.7,0.7-2.4,1.2
				c-1.4,0.9-2.6,1.6-3.4,2.2c-0.8,0.6-1.3,0.9-1.3,0.9c0,0-0.5,0.4-1.3,1c-0.4,0.3-0.9,0.7-1.5,1.1c-0.5,0.5-1.1,1-1.8,1.6
				c-2.6,2.3-5.9,5.6-9.1,9C42.9,164.4,36.5,171.1,36.5,171.1z"/>
		</g>
		<g id="XMLID_2653_">
			<path id="XMLID_2654_" class="st0" d="M61.9,183c0,0-0.1,0.2-0.3,0.5c-0.1,0.2-0.2,0.4-0.4,0.6c-0.1,0.2-0.3,0.5-0.6,0.8
				c-0.8,1.1-2.2,2.4-3.7,3.5c-1.6,1-3.3,1.8-4.6,2.2c-0.7,0.2-1.3,0.3-1.7,0.5c-0.4,0.1-0.7,0.1-0.7,0.1c0,0-0.3,0-0.7,0
				c-0.4,0-1,0.1-1.7,0c-1.4,0-3.2-0.3-4.9-0.8c-1.7-0.5-3.3-1.4-4.4-2.1c-0.6-0.3-1-0.8-1.3-1c-0.3-0.2-0.5-0.4-0.5-0.4
				s0.2,0.1,0.5,0.3c0.3,0.2,0.7,0.6,1.3,0.9c1.1,0.7,2.8,1.3,4.5,1.7c1.7,0.3,3.4,0.4,4.7,0.3c0.6,0,1.2-0.1,1.6-0.2
				c0.4-0.1,0.6-0.1,0.6-0.1c0,0,0.2,0,0.6-0.1c0.4-0.1,0.9-0.1,1.6-0.3c1.3-0.3,3-0.9,4.6-1.7c1.5-0.9,3-2,3.9-3
				c0.3-0.2,0.5-0.5,0.6-0.7c0.2-0.2,0.3-0.4,0.4-0.6C61.8,183.1,61.9,183,61.9,183z"/>
		</g>
		<g id="XMLID_2651_">
			<path id="XMLID_2652_" class="st0" d="M258.7,98c0,0-0.7,0-1.8,0c-1.2,0.1-2.8,0.2-4.7,0.7c-1.9,0.5-4.1,1.3-6.3,2.5
				c-2.2,1.2-4.4,2.7-6.4,4.5c-4.1,3.5-7.4,7.8-9.9,11.1c-1.2,1.6-2.2,3-2.9,4c-0.7,1-1.1,1.6-1.2,1.6c0,0-0.5,0.6-1.2,1.5
				c-0.7,0.9-1.8,2.3-3,3.8c-2.5,3.1-6.1,7.1-10.4,10.2c-2.1,1.6-4.4,2.9-6.6,3.9c-2.2,1-4.4,1.6-6.3,1.9c-1.9,0.3-3.5,0.3-4.7,0.3
				c-1.1-0.1-1.8-0.2-1.8-0.2s0.6,0,1.8,0.1c1.1,0,2.7,0,4.6-0.4c1.9-0.4,4-1.1,6.2-2.1c2.2-1,4.4-2.4,6.4-4
				c4.1-3.2,7.5-7.3,9.9-10.4c1.2-1.6,2.2-2.9,2.9-3.9c0.7-1,1.1-1.5,1.1-1.6c0,0,0.5-0.6,1.2-1.6c0.7-1,1.8-2.3,3.1-4
				c2.6-3.2,6.1-7.5,10.3-10.9c2.1-1.7,4.4-3.2,6.6-4.3c2.2-1.1,4.5-1.9,6.4-2.3c1.9-0.5,3.6-0.5,4.8-0.5C258,98,258.7,98,258.7,98z
				"/>
		</g>
		<g id="XMLID_2649_">
			<path id="XMLID_2650_" class="st0" d="M222.7,105.8c0,0-0.8-0.1-2.1-0.2c-1.3-0.1-3.2-0.3-5.5-0.5c-2.3-0.2-5-0.3-7.8-0.3
				c-2.9,0-5.9,0.2-9,0.6c-6,0.9-11.9,3.1-15.7,5.8c-0.5,0.3-0.9,0.7-1.4,1c-0.2,0.2-0.4,0.3-0.6,0.4c-0.2,0.2-0.4,0.3-0.5,0.5
				c-0.7,0.6-1.3,1.2-1.8,1.6c-0.9,1-1.5,1.6-1.5,1.7c0,0-0.2,0.2-0.4,0.4c-0.2,0.3-0.5,0.7-0.9,1.3c-0.4,0.5-0.9,1.2-1.3,2
				c-0.4,0.8-1,1.7-1.5,2.7c-0.2,0.5-0.5,1.1-0.7,1.6c-0.2,0.6-0.4,1.2-0.6,1.8c-0.5,1.2-0.6,2.6-0.9,4c-0.4,2.8-0.4,5.9,0.1,8.9
				c0.6,3,1.7,5.9,3.1,8.4c1.5,2.4,3.1,4.6,4.8,6.1c0.4,0.4,0.8,0.8,1.2,1.1c0.4,0.3,0.8,0.6,1.2,0.9c0.4,0.3,0.7,0.5,1,0.8
				c0.3,0.2,0.6,0.4,0.9,0.6c1.1,0.7,1.8,1,1.8,1s-0.7-0.4-1.8-1c-0.3-0.2-0.6-0.3-0.9-0.5c-0.3-0.2-0.7-0.5-1-0.8
				c-0.4-0.3-0.8-0.6-1.2-0.9c-0.4-0.3-0.8-0.7-1.2-1.1c-1.7-1.5-3.4-3.6-5-6c-1.5-2.5-2.7-5.4-3.4-8.5c-0.6-3.1-0.7-6.3-0.4-9.2
				c0.3-1.5,0.4-2.9,0.9-4.2c0.2-0.7,0.4-1.3,0.6-1.9c0.2-0.6,0.5-1.2,0.7-1.7c0.4-1.1,1-2,1.4-2.9c0.4-0.9,1-1.5,1.4-2.1
				c0.4-0.6,0.7-1,1-1.3c0.3-0.3,0.4-0.5,0.4-0.5c0,0,0.6-0.7,1.6-1.7c0.5-0.5,1.2-1,2-1.7c0.2-0.2,0.4-0.3,0.6-0.5
				c0.2-0.1,0.4-0.3,0.7-0.4c0.5-0.3,0.9-0.6,1.4-1c4-2.7,10-4.8,16.2-5.5c3.1-0.4,6.2-0.4,9.1-0.4c2.9,0.1,5.6,0.3,7.9,0.5
				c2.3,0.2,4.2,0.5,5.5,0.6C221.9,105.7,222.7,105.8,222.7,105.8z"/>
		</g>
		<g id="XMLID_2647_">
			<path id="XMLID_2648_" class="st0" d="M153.1,141.5c0,0-0.7-0.8-1.8-2.2c-1.1-1.4-2.6-3.5-4-6.3c-0.4-0.7-0.6-1.5-1-2.2
				c-0.3-0.8-0.7-1.6-0.9-2.4c-0.3-0.9-0.5-1.7-0.8-2.6c-0.2-0.9-0.4-1.9-0.6-2.8c-0.7-3.9-0.7-8.2-0.1-12.3c0.6-4.2,2.1-8.2,4-11.7
				c1.9-3.5,4.1-6.4,6.4-8.6c2.2-2.3,4.4-3.8,6-4.7c0.8-0.5,1.4-0.9,1.9-1.1c0.5-0.2,0.7-0.4,0.7-0.4c0.1,0,1-0.5,2.7-1.2
				c1.7-0.7,4.1-1.5,7-2.2c2.9-0.7,6.4-1.1,10.1-1.2c1.9,0,3.8,0,5.7,0.2c1,0.1,1.9,0.2,2.9,0.3c1,0.1,1.9,0.3,2.9,0.4
				c7.8,1.3,15.3,3.8,20.8,5.7c2.8,1,5.1,1.9,6.7,2.5c1.6,0.6,2.5,1,2.5,1s-0.9-0.3-2.5-0.9c-1.6-0.6-3.9-1.4-6.7-2.3
				c-5.6-1.9-13.1-4.2-20.8-5.3c-1-0.1-1.9-0.2-2.9-0.3c-1-0.1-1.9-0.2-2.9-0.2c-1.9-0.1-3.8-0.1-5.6,0c-3.7,0.2-7,0.7-9.9,1.4
				c-2.8,0.7-5.2,1.6-6.8,2.3c-1.6,0.7-2.5,1.2-2.6,1.2c-0.1,0.1-1,0.5-2.6,1.4c-1.5,0.9-3.7,2.3-5.9,4.5c-2.3,2-4.5,4.9-6.4,8.2
				c-1.9,3.3-3.4,7.2-4.2,11.3c-0.8,4.1-0.8,8.3-0.2,12.1c0.2,1,0.4,1.9,0.5,2.8c0.3,0.9,0.5,1.8,0.8,2.6c0.2,0.9,0.6,1.7,0.9,2.4
				c0.3,0.8,0.6,1.6,0.9,2.2c1.3,2.8,2.8,5,3.9,6.4C152.5,140.7,153.1,141.5,153.1,141.5z"/>
		</g>
		<g id="XMLID_2645_">
			<path id="XMLID_2646_" class="st0" d="M233.8,106.5c0,0-0.2,0.3-0.6,0.8c-0.4,0.5-1,1.3-1.7,2.1c-1.4,1.7-3.5,3.9-5.7,5.9
				c-2.2,2-4.6,3.9-6.5,5.2c-0.9,0.7-1.7,1.2-2.3,1.5c-0.6,0.4-0.9,0.6-0.9,0.6c0,0-0.4,0.2-0.9,0.5c-0.6,0.3-1.4,0.7-2.4,1.2
				c-2,1-4.7,2-7.4,2.9c-2.7,0.9-5.5,1.5-7.6,1.9c-1,0.2-1.9,0.3-2.5,0.4c-0.6,0.1-1,0.1-1,0.1s0.3-0.1,1-0.2
				c0.6-0.1,1.5-0.3,2.5-0.6c2.1-0.5,4.8-1.3,7.5-2.3c2.6-1.1,5.3-2.2,7.1-3.3c1-0.5,1.7-1,2.3-1.3c0.6-0.3,0.9-0.5,0.9-0.5
				c0,0,0.4-0.2,0.9-0.5c0.6-0.3,1.4-0.8,2.3-1.4c1.9-1.2,4.3-2.9,6.6-4.7c2.3-1.9,4.5-3.9,6-5.6c0.8-0.8,1.4-1.5,1.8-2
				C233.6,106.8,233.8,106.5,233.8,106.5z"/>
		</g>
		<g id="XMLID_2643_">
			<path id="XMLID_2644_" class="st0" d="M138.8,141.9c0,0-0.4-0.6-1.2-1.8c-0.8-1.1-1.9-2.8-3.1-4.8c-2.5-4-5.8-9.4-7.9-15.4
				c-1.1-3-1.9-6.1-2.2-9.1c-0.3-3-0.2-5.9,0.1-8.3c0.3-2.4,0.9-4.4,1.4-5.8c0.5-1.4,0.9-2.1,0.9-2.2c0-0.1,0.4-0.8,1-2
				c0.7-1.2,1.7-2.9,3.1-4.8c2.8-3.7,7.3-8,12.5-11.1c5.2-3.2,10.7-5.4,15-6.8c2.1-0.7,3.9-1.3,5.1-1.7c1.2-0.4,2-0.6,2-0.6
				s-0.7,0.2-1.9,0.6c-1.2,0.4-3,1-5.1,1.8c-4.2,1.6-9.7,4-14.7,7.2c-5.1,3.2-9.4,7.5-12,11.2c-1.3,1.8-2.3,3.5-2.9,4.7
				c-0.6,1.2-0.9,1.9-0.9,2c0,0.1-0.4,0.8-0.9,2.1c-0.5,1.3-1.1,3.2-1.5,5.5c-0.4,2.3-0.6,5.1-0.3,8c0.3,2.9,1,6,2,9
				c2,6,5.1,11.5,7.5,15.6c1.2,2,2.3,3.7,3,4.8C138.4,141.2,138.8,141.9,138.8,141.9z"/>
		</g>
	</g>
</g>
</svg>
