<?xml version="1.0" encoding="utf-8"?>
<!-- Generator: Adobe Illustrator 19.0.0, SVG Export Plug-In . SVG Version: 6.00 Build 0)  -->
<svg version="1.1" id="Layer_1" xmlns="http://www.w3.org/2000/svg" xmlns:xlink="http://www.w3.org/1999/xlink" x="0px" y="0px"
	 viewBox="0 0 481.75674 569.5946" style="enable-background:new 0 0 481.75674 569.5946;" xml:space="preserve">
<style type="text/css">
	.st0{fill:#EF7B05;}
</style>
<path id="XMLID_7460_" class="st0" d="M305.69312,294.24783c-1.46436,13.36865,7.40756,19.2334,8.40756,33.06671
	c0.83044,11.4881,3.50845,19.06317,2.20718,25.50409c-1.78613,8.85156-3.27881,13.98535-4.50098,17.87939
	c-2.15283,6.80859-3.4668,9.89453-4.01221,22.85303c-0.97949,22.59326,1.42578,41.86279,6.04443,58.40186
	c0.81641,2.93262,1.68408,5.79004,2.6377,8.54102c1.17383,3.38867,2.43994,6.63184,3.79248,9.7666
	c-0.50391-0.03613-0.98877-0.06201-1.50586-0.09326c0.72119,0.63281,1.45459,1.27051,2.17529,1.93457
	c2.0415,5.29932,9.36475,21.45752,28.21582,40.00095c31.17529,29.86865,68.4458,35.50537,68.4458,35.50537
	s-33.2583-11.23193-51.42627-74.25436c-0.35107-1.20801-1.02051-3.58301-1.84326-6.59863
	c14.67188,39.33252,67.98975,57.49704,67.98975,57.49704s-23.09619-16.77487-36.55957-47.07907
	c20.29248,14.08936,44.26563,24.14404,55.6333,35.50534c19.98291,19.95898,23.76904,39.74951,10.18115,53.7998
	c0,0,30.90771-22.63721,6.42383-60.50485c-24.50244-37.88037-23.37012-34.20898-36.93555-59.89307
	c-13.59424-25.62402-14.71045-41.52051-15.8457-52.5293c-1.14209-10.99854,23.00293-148.79932,23.00293-184.84912
	s-11.40283-72.59229-27.24561-95.80811c-15.83301-23.20508-39.87012-49.52197-59.08105-57.46631
	c-19.22705-7.97021-72.71387-36.30615-93.06982-40.56885c-20.35645-4.27783-49.55078-8.98389-71.03906-8.98389
	c-21.50439,0-45.11719,5.79199-65.47656,18.63135c-8.30615,5.24805-15.64844,13.90234-21.47266,22.33935
	C21.13404,72.10476,4.39478,136.55301,4.17798,195.2869c-0.0542,14.72168,0.90918,29.09619,2.20068,42.39697
	c2.10547,1.64893,4.354,3.63525,6.43066,6.08789c1.51172,1.78906,2.32551,4.19502,4.11475,6.27979
	c7.87842,9.17969,7.87842,9.91504,7.87842,9.91504 M24.80249,259.96658l42.87158,37.61865c0,0,0.2002-30.3208,1.1499-35.75146
	c1.47217-9.73975,4.10596-19.24854,8.03418-28.28369c0.16406-0.73975,1.05811-1.72607,1.05811-2.79395l0.09424-0.0459
	c21-6.65625,47.16504-15.48486,47.16504-15.48486c59.08154-18.73535,67.01611-41.08594,67.01611-41.08594
	s12.43115,22.26855,55.3252,36.89502c0,0,23.75928,7.80664,45.78174,15.77734c1.06787,2.13623,2.22412,4.35498,3.21045,6.65576
	c3.37012,7.75342,5.8584,15.85547,7.42676,24.15332c0.45557,2.41113,0.72363,4.85498,0.80322,7.30762l0.9541,29.31934
	 M259.45337,137.6741c0.48975,0.39014,0.96973,0.78027,1.44971,1.18018c-0.47998-0.3999-0.95996-0.79004-1.44971-1.16992
	c0-0.01025-0.01025-0.01025-0.01025-0.01025C259.45337,137.6741,259.45337,137.6741,259.45337,137.6741z"/>
</svg>
