<?xml version="1.0" encoding="utf-8"?>
<!-- Generator: Adobe Illustrator 19.0.0, SVG Export Plug-In . SVG Version: 6.00 Build 0)  -->
<svg version="1.1" id="Layer_1" xmlns="http://www.w3.org/2000/svg" xmlns:xlink="http://www.w3.org/1999/xlink" x="0px" y="0px"
	 viewBox="-516 232 442 419" style="enable-background:new -516 232 442 419;" xml:space="preserve">
<style type="text/css">
	.st0{fill:#EF7B05;}
</style>
<path id="XMLID_114_" class="st0" d="M-176.7,551.1c-0.1,7.8,3.7,15.9,8.5,15.9c12.5,0,23.2-5.9,27.4-14.1c2.7,0.8,5.5,1.2,8.5,1.2
	c14.8,0,26.9-9.9,26.9-22.1c0-3.1-0.8-6.1-2.2-8.7c0.7,0,1.4,0.2,2.2,0.2c10,0,18.1-7,18.1-15.6c0-4.8-2.6-9.1-6.6-11.9
	c7.6-3.8,12.8-10.7,12.8-18.7c0-7.5-4.5-14.1-11.3-18c6.6-2.6,11.3-8.7,11.3-15.9c0-9.5-8.1-17.3-18.1-17.3c-0.8,0-1.5,0.1-2.2,0.2
	c11.9-4.9,20.3-16.3,20.3-29.7c0-11.5-6.2-21.4-15.5-27.2c1.3-3.4,1.9-7.1,1.9-11c0-15.6-10.9-28.2-24.3-28.2c-2,0-4,0.3-5.8,0.9
	c-1-1.6-2-3.1-3.1-4.5c0.9-3.5,1.5-7.3,1.5-11.2c0-20.8-13.5-37.6-30.2-37.6c-4.3,0-8.4,1.2-12.1,3.2c-2.6-18.8-17.2-33.3-35.1-33.3
	c-7.5,0-14.4,2.5-20.1,6.8c-6.1-4.2-14.1-6.8-22.9-6.8c-8.4,0-16.1,2.4-22.1,6.3c-5.4-8.5-14.4-15-25.2-17.7
	c-10.8,2.7-19.7,9.2-25.2,17.7c-6-3.9-13.6-6.3-22.1-6.3c-8.8,0-16.8,2.6-22.9,6.8c-5.7-4.3-12.6-6.8-20-6.8
	c-17.9,0-32.6,14.5-35.2,33.3c-3.7-2-7.8-3.2-12.1-3.2c-16.7,0-30.3,16.9-30.3,37.6c0,3.9,0.5,7.7,1.5,11.2
	c-1.1,1.4-2.1,2.8-3.1,4.5c-1.8-0.6-3.8-0.9-5.8-0.9c-13.4,0-24.3,12.6-24.3,28.2c0,3.9,0.7,7.6,1.9,11
	c-9.3,5.8-15.5,15.7-15.5,27.2c0,13.4,8.4,24.8,20.3,29.7c-0.8,0-1.5-0.2-2.2-0.2c-10,0-18.1,7.7-18.1,17.3
	c0,7.2,4.7,13.4,11.3,15.9c-6.8,3.9-11.3,10.5-11.3,18c0,8,5.2,15,12.8,18.7c-4,2.8-6.6,7.1-6.6,11.9c0,8.6,8.1,15.6,18.1,15.6
	c0.8,0,1.5-0.1,2.2-0.2c-1.4,2.7-2.2,5.6-2.2,8.7c0,12.2,12.1,22.1,26.9,22.1c3,0,5.8-0.5,8.5-1.2c4.2,8.2,14.8,14.1,27.4,14.1
	c5.1,0,11.5-9.9,7.4-18.9 M-412.5,548.1c-0.5-1.5-41.4-23.4-43.5-48.5c-0.6-6.5,19.3-148.5,51.5-167.8
	c83-49.8,143.9-37.1,195.9-10.6c45.7,23.2,77.3,169.3,76.6,178.4c-1.9,21.8-42.6,46.3-44.6,51.5"/>
</svg>
