<?xml version="1.0" encoding="utf-8"?>
<!-- Generator: Adobe Illustrator 19.0.0, SVG Export Plug-In . SVG Version: 6.00 Build 0)  -->
<svg version="1.1" id="Layer_1" xmlns="http://www.w3.org/2000/svg" xmlns:xlink="http://www.w3.org/1999/xlink" x="0px" y="0px"
	 viewBox="-190 -19.5 577.5 598.5" enable-background="new -190 -19.5 577.5 598.5" xml:space="preserve">
<g id="XMLID_1607_">
	<path id="XMLID_1702_" fill="#EF7B05" d="M279.5,275.2c-2.8-21-7.5-43.8-14.9-60.7c-16.3-37-49.9-52.8-102.9-75.1
		c-47.2-20-64.4-9.8-113.3,2.2c-1.1-3.5-2.5-6.9-4.6-10c-14.8-21.8-50.7-22.8-80.3-2.2c-29.5,20.7-41.5,55.1-26.7,77
		c3.3,4.8,7.6,8.6,12.6,11.3c-8.7,19.1-13.4,37.8-15.3,50.5c-0.3,2.3-0.6,4.6-1,6.8c-6.5,49-0.3,69.2,5.1,80.2
		c2.5,5.2,4.8,8.4,5.6,11.6c2.8,11.6,1.1,15.4,6.8,27.7c3.7,3.4,13.1,7.9,16,16c5.2,13.8,7.1,11.5,7.1,11.5s-7.2-48.8-8-66.8
		c-0.1-1-0.1-1.9-0.1-2.7c0-8.7,3.9-52.4,31.9-77.5c1.3-1.3,2.7-2.5,4.2-3.6c23.6-18.2,63.8-10.5,68.3-10.5c0.9,0,10,7.2,23.2,14.1
		c12.7,6.7,29.1,13,45.3,12.2c100.5-5.3,121.6,50.5,123.9,62.1c-0.1,1.9-0.3,3.9-0.4,5.9c-1.2,14.4-2.7,31.2-3.8,42.4
		c-1.8,13.4-3.5,24.4-3.5,24.4s2.1,2.3,7.1-11.5c2.5-6.8,10.9-11.1,14.1-14.3c0.6-7.6,2.7-27.2,3.6-29.4c0.9-1.8,1.7-6.1,2.4-11.6
		c1.2-8.6,1.9-19.7,1.9-26.5C284.1,322.8,283.1,300.4,279.5,275.2z"/>
	<g id="XMLID_1699_">
		<path id="XMLID_581_" fill="#FFFFFF" d="M45,128.5c0,0,0.3,0.7,0.9,1.9c0.6,1.2,1.4,3.1,2,5.5c0.7,2.5,1.3,5.5,1.4,9.1
			c0.1,3.6-0.3,7.7-1.4,11.9c-1.1,4.3-3.1,8.7-5.6,13.1c-1.3,2.2-2.7,4.4-4.3,6.5s-3.2,4.2-5.2,6.3c-3.9,4-8.2,7.6-12.9,11
			c-2.3,1.7-4.7,3.4-7.2,4.9c-1.2,0.8-2.5,1.5-3.8,2.2c-0.6,0.4-1.3,0.7-2,1l-2,0.9c-5.3,2.4-10.5,4.8-15.8,7.1
			c-5.3,2.2-10.6,4.2-15.8,5.8s-10.3,3.1-15.4,3.8c-5,0.8-9.8,1-14.1,0.9c-4.4-0.1-8.4-0.5-11.9-0.9c-3.5-0.5-6.6-1-9-1.5
			c-1.2-0.2-2.4-0.5-3.3-0.7c-1-0.2-1.8-0.4-2.4-0.6c-1.3-0.3-2-0.5-2-0.5s0.7,0.1,2.1,0.4c1.3,0.2,3.3,0.5,5.8,0.9
			c5,0.7,12.2,1.5,20.8,1.3c4.3-0.1,9-0.5,13.8-1.4c4.8-0.8,9.8-2.4,14.9-4.1c5.1-1.7,10.3-3.8,15.5-6s10.4-4.7,15.7-7.1l2-0.9
			c0.6-0.3,1.3-0.6,1.9-0.9c1.2-0.7,2.5-1.4,3.7-2.1c2.4-1.5,4.8-3.1,7.1-4.7c4.5-3.3,8.9-6.8,12.7-10.6c1.8-1.8,3.5-3.9,5.1-5.9
			s3-4.1,4.3-6.2c2.6-4.1,4.6-8.4,5.9-12.4c1.3-4.1,1.9-8,2-11.4c0.1-3.5-0.3-6.5-0.8-9s-1.1-4.4-1.6-5.6
			C45.2,129.1,45,128.5,45,128.5z"/>
	</g>
	<g id="XMLID_1696_">
		<path id="XMLID_579_" fill="#FFFFFF" d="M13.5,403.4c0,0-1.7-0.5-4.7-1.4c-1.5-0.4-3.3-1.1-5.3-2c-1-0.4-2.1-0.8-3.2-1.4
			c-1.1-0.6-2.2-1.2-3.4-1.8c-2.4-1.2-4.8-2.9-7.4-4.6c-1.3-0.9-2.5-1.9-3.8-2.9s-2.6-2-3.8-3.2c-1.2-1.1-2.5-2.3-3.8-3.5
			c-1.2-1.3-2.4-2.6-3.6-3.9c-1.3-1.3-2.3-2.7-3.5-4.1c-1.1-1.4-2.3-2.8-3.3-4.3s-2-3-3-4.5c-0.9-1.5-1.8-3.1-2.7-4.6
			c-0.4-0.8-0.9-1.5-1.3-2.3c-0.4-0.8-0.8-1.6-1.1-2.4c-0.7-1.6-1.6-3.1-2.2-4.7c-1.3-3.1-2.5-6.2-3.4-9.1c-0.5-1.5-0.9-2.9-1.3-4.3
			c-0.3-1.4-0.6-2.8-0.9-4.1c-0.1-0.7-0.3-1.3-0.4-1.9c-0.2-0.6-0.3-1.2-0.4-1.9c-0.2-1.2-0.3-2.4-0.5-3.5s-0.3-2.1-0.4-3
			c-0.1-0.9-0.1-1.8-0.2-2.6c-0.2-3.1-0.3-4.9-0.3-4.9s0.3,1.8,0.9,4.8c0.1,0.8,0.3,1.6,0.4,2.5c0.2,0.9,0.5,1.9,0.7,3
			c0.5,2.1,1,4.5,1.8,7c0.4,1.3,0.8,2.6,1.2,4c0.5,1.3,1,2.7,1.5,4.2c1,2.9,2.4,5.8,3.7,8.8c0.7,1.5,1.5,3,2.3,4.5s1.6,3,2.5,4.5
			s1.8,3,2.7,4.5c1,1.4,2,2.9,3,4.3c0.9,1.5,2.1,2.8,3.2,4.2c1.1,1.4,2.1,2.8,3.3,4c1.2,1.3,2.3,2.6,3.4,3.8
			c1.2,1.2,2.4,2.4,3.6,3.5c1.1,1.2,2.4,2.2,3.6,3.2c1.2,1,2.4,2.1,3.6,3c1.2,0.9,2.4,1.8,3.6,2.6c1.1,0.9,2.3,1.6,3.4,2.3
			c1.1,0.7,2.2,1.4,3.2,2s2.1,1.1,3,1.6c1.9,1,3.6,1.9,5,2.5C11.9,402.6,13.5,403.4,13.5,403.4z"/>
	</g>
	<path id="XMLID_1695_" fill="none" stroke="#FFFFFF" stroke-miterlimit="10" d="M300,223.7C300.2,223.7,300,223.7,300,223.7"/>
	<g id="XMLID_1692_">
		<path id="XMLID_577_" fill="#FFFFFF" d="M268.5,214.2c0,6.5-0.2,13-0.1,19.5c0,6.5,0.2,13,0.7,19.4s1.3,12.9,2.7,19.1
			c0.7,3.1,1.6,6.2,2.7,9.2s2.3,6.1,3.1,9.3c0.8,3.2,1.3,6.7,0.9,10.1c-0.4,3.5-1.7,6.7-3.1,9.7s-3.1,5.8-4.3,8.6
			c-0.2,0.4-0.3,0.7-0.4,1.1c-0.1,0.3-0.3,0.7-0.3,1.1c-0.2,0.7-0.4,1.5-0.5,2.2c-0.3,1.5-0.4,3-0.3,4.6c0,3.1,0.6,6.2,1.3,9.4
			c0.7,3.1,1.4,6.3,1.9,9.6c0.5,3.3,0.9,6.6,0.7,10c-0.1,3.4-0.8,6.7-1.8,9.9l-1.6,5l-1.1-5.2c-1.4-6.8-2.8-13.7-4.7-20.3
			c-0.2-0.8-0.5-1.7-0.8-2.5s-0.5-1.6-0.8-2.4c-0.6-1.6-1.2-3.2-1.9-4.8c-0.7-1.6-1.5-3.1-2.3-4.6l-1.3-2.2l-1.4-2.2
			c-1-1.4-2-2.8-3.1-4.1c-1.1-1.3-2.3-2.6-3.5-3.8c-2.5-2.4-5.2-4.5-8.2-6.3s-6.1-3.2-9.5-4.1c-3.3-0.9-6.8-1.4-10.3-1.2
			c3.5-0.4,7-0.2,10.5,0.6c3.4,0.8,6.8,2.1,9.9,3.8c3.1,1.7,6,3.7,8.7,6.1c1.3,1.2,2.6,2.4,3.8,3.8c1.2,1.3,2.3,2.7,3.4,4.1l1.5,2.2
			c0.5,0.8,1,1.5,1.4,2.3c0.9,1.5,1.8,3.1,2.5,4.7c0.8,1.6,1.5,3.2,2.1,4.9c0.3,0.8,0.6,1.7,0.9,2.5s0.6,1.7,0.8,2.5
			c0.5,1.7,1,3.4,1.5,5.1s0.9,3.4,1.3,5.1c0.8,3.4,1.6,6.8,2.3,10.2l-2.7-0.1c0.9-3,1.5-6.1,1.5-9.2c0.1-3.1-0.2-6.3-0.7-9.4
			s-1.3-6.3-2-9.5s-1.3-6.5-1.3-9.9c0-1.7,0.1-3.4,0.4-5.1c0.2-0.8,0.4-1.7,0.6-2.5c0.1-0.4,0.3-0.8,0.4-1.3
			c0.2-0.4,0.3-0.8,0.5-1.2c1.4-3.1,3-5.9,4.4-8.7c1.4-2.8,2.6-5.7,3-8.7s0-6.1-0.7-9.2c-0.8-3.1-1.8-6.1-2.9-9.2s-1.9-6.3-2.6-9.5
			c-1.3-6.4-1.9-13-2.2-19.5c-0.3-6.5-0.2-13,0.1-19.5C267.6,227.1,268,220.6,268.5,214.2z"/>
	</g>
	<g id="XMLID_1689_">
		<path id="XMLID_575_" fill="#FFFFFF" d="M48.2,151.4c0,0,1.1-0.6,2.8-1.4c1.7-0.8,4-1.7,6.4-2.5s4.8-1.4,6.6-1.8
			c1.8-0.4,3-0.6,3-0.6s-1.2,0.3-3,0.9c-1.8,0.6-4.1,1.4-6.3,2.4s-4.4,2.2-6,3.1c-1.6,0.9-2.6,1.6-2.6,1.6L48.2,151.4z"/>
	</g>
	<g id="XMLID_1686_">
		<path id="XMLID_573_" fill="#FFFFFF" d="M42.8,165.7c0,0,0.4-0.1,1-0.1c0.6-0.1,1.6-0.2,2.6-0.3c2.2-0.2,5.1-0.3,8-0.2
			s5.8,0.5,7.9,0.9c1.1,0.2,1.9,0.4,2.6,0.5c0.6,0.1,1,0.2,1,0.2s-0.4-0.1-1-0.1c-0.6-0.1-1.5-0.2-2.6-0.3c-2.1-0.2-5-0.3-7.9-0.2
			s-5.7,0.5-7.8,0.9c-1.1,0.2-1.9,0.4-2.5,0.5s-1,0.2-1,0.2L42.8,165.7z"/>
	</g>
	<g id="XMLID_1683_">
		<path id="XMLID_571_" fill="#FFFFFF" d="M46.2,158.9c0,0,1.7-0.4,4.3-0.9s6-1.1,9.5-1.4c3.5-0.4,6.9-0.5,9.5-0.5s4.3,0,4.3,0
			s-1.7,0.1-4.3,0.3c-2.6,0.2-6,0.6-9.4,1.2c-3.4,0.6-6.7,1.4-9.2,2.1c-2.5,0.7-4.1,1.2-4.1,1.2L46.2,158.9z"/>
	</g>
	<g id="XMLID_1680_">
		<path id="XMLID_569_" fill="#EF7B05" d="M42.3,134.5c0,0,0.3-0.9,0.8-2.3c0.5-1.5,1.3-3.5,1.9-6c0.1-0.6,0.2-1.3,0.3-1.9v-0.5
			v-0.6c0-0.4,0-0.6,0-1c-0.1-1.4-0.4-2.7-0.9-4c-0.6-1.3-1.4-2.3-2.5-3s-2.6-1.1-4.2-1.4c-0.8-0.1-1.6-0.2-2.5-0.3
			s-1.7-0.2-2.5-0.2c-1.6-0.1-3.2-0.1-4.7,0.1c-1.5,0.2-2.9,0.6-4.1,1.1c-0.2,0.1-0.7,0.3-0.9,0.5c-0.2,0.1-0.5,0.3-0.7,0.5
			c-0.5,0.4-1,0.8-1.4,1.2c-0.8,0.9-1.4,1.8-1.7,2.8c-0.4,0.9-0.5,1.8-0.6,2.5c0,0.7,0.1,1.3,0.2,1.7c0.1,0.4,0.2,0.6,0.2,0.6
			s-0.1-0.2-0.4-0.5c-0.2-0.4-0.5-0.9-0.7-1.7s-0.3-1.8-0.1-3s0.6-2.5,1.4-3.7c0.4-0.6,0.8-1.3,1.4-1.8c0.3-0.3,0.6-0.6,0.9-0.9
			c0.4-0.3,0.6-0.4,1-0.8c1.4-0.9,3.1-1.6,4.9-2c1.8-0.4,3.6-0.5,5.5-0.5c0.9,0,1.8,0.1,2.8,0.1c0.9,0.1,1.8,0.2,2.8,0.3
			c1.9,0.3,3.9,0.9,5.7,2.1c1.8,1.3,3,3.1,3.6,4.9c0.6,1.8,0.8,3.7,0.6,5.4c0,0.4-0.1,0.9-0.2,1.3l-0.1,0.5
			c-0.1,0.3-0.1,0.4-0.2,0.6c-0.2,0.7-0.4,1.5-0.7,2.1c-0.5,1.3-1.2,2.4-1.7,3.4c-0.6,0.9-1.2,1.7-1.6,2.3
			C42.9,133.8,42.3,134.5,42.3,134.5z"/>
	</g>
	<g id="XMLID_1677_">
		<path id="XMLID_567_" fill="#EF7B05" d="M4.9,117.4c0,0,0-0.1,0-0.3s0-0.4,0-0.7s-0.1-0.6-0.1-1c-0.1-0.4-0.2-0.8-0.3-1.2
			c-0.2-0.4-0.4-0.8-0.6-1.2c-0.2-0.4-0.5-0.8-0.8-1.2s-0.7-0.7-1.1-0.9c-0.4-0.2-0.8-0.4-1.2-0.6c0.2,0.1,0.1,0,0.1,0l0,0l0,0l0,0
			H0.8H0.7l-0.2-0.1c-0.2-0.1-0.2,0-0.3-0.1c-0.1,0-0.4,0-0.6-0.1c-0.5,0-0.9,0-1.4,0.2c-0.5,0.1-0.9,0.3-1.4,0.5
			c-0.4,0.2-0.8,0.4-1.2,0.7s-0.7,0.5-1,0.8s-0.5,0.5-0.7,0.8c-0.2,0.2-0.3,0.4-0.4,0.6c-0.1,0.1-0.2,0.2-0.2,0.2s0-0.1-0.1-0.3
			c0-0.2-0.1-0.4-0.1-0.8c0-0.3,0-0.8,0.1-1.2c0-0.2,0.1-0.5,0.2-0.8c0.1-0.3,0.2-0.5,0.4-0.8c0.3-0.5,0.7-1.1,1.2-1.6
			c0.5-0.5,1.1-1,1.9-1.3c0.7-0.4,1.6-0.6,2.4-0.7c0.5,0,0.9-0.1,1.4,0c0.3,0,0.6,0.1,0.7,0.1l0.2,0.1h0.1h0.1l0.2,0.1
			c0.9,0.3,1.7,0.8,2.4,1.4s1.2,1.3,1.6,2c0.4,0.7,0.6,1.5,0.7,2.2c0.1,0.7,0.1,1.4,0.1,2c-0.1,0.3-0.1,0.6-0.2,0.9
			c-0.1,0.3-0.2,0.5-0.3,0.7c-0.2,0.4-0.4,0.8-0.7,1.1c-0.2,0.3-0.4,0.4-0.5,0.5C4.9,117.4,4.9,117.4,4.9,117.4z"/>
	</g>
	<g id="XMLID_1674_">
		<path id="XMLID_565_" fill="#EF7B05" d="M12.3,110.4c0,0,0,0-0.1-0.1s-0.2-0.2-0.3-0.3c-0.1-0.2-0.2-0.4-0.3-0.6
			c-0.1-0.2-0.2-0.5-0.3-0.9c-0.1-0.7-0.1-1.5,0.2-2.3s0.9-1.7,1.7-2.2c0.3-0.2,0.9-0.5,1.3-0.7c0.5-0.1,0.9-0.2,1.3-0.2
			c0.9,0,1.7,0.2,2.3,0.5c0.3,0.2,0.5,0.3,0.8,0.5c0.2,0.2,0.4,0.4,0.5,0.5s0.2,0.3,0.2,0.4s0.1,0.1,0.1,0.1s-0.2-0.1-0.5-0.2
			s-0.8-0.2-1.3-0.2s-1.1,0-1.7,0.1c-0.3,0.1-0.6,0.2-0.9,0.3c-0.3,0.1-0.5,0.2-0.8,0.5c-1,0.7-1.6,1.9-1.9,3
			c-0.1,0.5-0.2,1-0.2,1.3C12.3,110.2,12.3,110.4,12.3,110.4z"/>
	</g>
	<g id="XMLID_1671_">
		<path id="XMLID_563_" fill="#EF7B05" d="M-8.9,123.2c0,0-0.1-0.1-0.3-0.4c-0.2-0.3-0.4-0.7-0.8-1.1c-0.3-0.5-0.8-1-1.2-1.6
			c-0.5-0.6-1.1-1.3-1.8-1.9c-0.7-0.7-1.4-1.4-2.3-2c-0.8-0.7-1.8-1.3-2.7-1.9c-1-0.6-2-1.1-3.1-1.6c-0.6-0.2-1.1-0.4-1.7-0.6
			c-0.3-0.1-0.6-0.2-0.9-0.3l-0.8-0.2c-1.4-0.3-2.4-0.4-3.6-0.5c-1.2,0-2.4-0.1-3.5,0s-2.2,0.3-3.3,0.5c-1,0.2-2,0.5-2.9,0.8
			s-1.7,0.6-2.4,1c-0.7,0.3-1.3,0.6-1.8,0.9c-0.5,0.3-0.9,0.5-1.2,0.7s-0.4,0.2-0.4,0.2s0.1-0.1,0.3-0.4c0.2-0.3,0.4-0.7,0.8-1.1
			c0.4-0.5,0.9-1,1.5-1.6c0.3-0.3,0.7-0.6,1-0.9c0.4-0.3,0.8-0.6,1.2-0.9c0.9-0.6,1.9-1.1,3-1.6s2.4-0.9,3.7-1.1
			c1.3-0.3,2.7-0.4,4.1-0.4c1.4,0,3,0.2,4.2,0.5l1.1,0.3c0.4,0.1,0.7,0.2,1,0.3c0.7,0.2,1.3,0.5,2,0.8c1.3,0.6,2.5,1.4,3.5,2.2
			c1.1,0.8,2,1.7,2.8,2.7c0.8,0.9,1.5,1.9,2,2.8c0.2,0.5,0.5,0.9,0.7,1.3c0.2,0.4,0.4,0.9,0.5,1.2c0.3,0.8,0.5,1.5,0.7,2.1
			s0.2,1,0.3,1.4C-8.9,123-8.9,123.2-8.9,123.2z"/>
	</g>
	<g id="XMLID_1668_">
		<path id="XMLID_561_" fill="#EF7B05" d="M-50.5,150.7c0,0-0.1-0.2-0.2-0.4c-0.1-0.1-0.2-0.3-0.3-0.5s-0.3-0.4-0.4-0.5
			c-0.7-0.7-2.1-1.4-3.7-1.3c-0.4,0-0.8,0.1-1.2,0.2c-0.2,0.1-0.4,0.1-0.6,0.2c-0.3,0.1-0.4,0.1-0.6,0.3c-0.8,0.4-1.7,0.9-2.5,1.6
			c-0.9,0.7-1.7,1.5-2.7,2.3s-2,1.6-2.9,2.3s-1.7,1.5-2.4,2.3l-0.2,0.3c0,0,0,0.1,0,0l0,0l-0.1,0.1l-0.1,0.2
			c-0.2,0.2-0.2,0.3-0.4,0.6c-0.2,0.4-0.4,0.9-0.6,1.3c-0.3,0.9-0.4,1.8-0.3,2.6c0,0.2,0.1,0.4,0.1,0.6c0,0.1,0.1,0.2,0.1,0.3v0.1
			l0,0l0,0l0,0c0,0.1-0.1-0.1,0-0.1v0.1l0.2,0.3l0.1,0.2c0.1,0.1,0.2,0.3,0.3,0.4c0.5,0.5,1.1,0.9,1.8,1.1c0.6,0.2,1.2,0.2,1.7,0.1
			c0.5-0.1,0.9-0.3,1.1-0.4c0.2-0.2,0.4-0.3,0.4-0.3s-0.1,0.1-0.2,0.4c-0.2,0.3-0.4,0.7-1,1c-1,0.7-3.1,1.1-5.2-0.1
			c-0.3-0.2-0.5-0.3-0.8-0.6c-0.1-0.1-0.3-0.3-0.4-0.4l-0.3-0.3l-0.1-0.1l-0.1-0.2l-0.1-0.2c-0.1-0.1-0.2-0.3-0.3-0.4
			c-0.2-0.3-0.3-0.6-0.4-0.9c-0.4-1.3-0.5-2.8-0.2-4.2c0.1-0.7,0.4-1.4,0.7-2.1c0.1-0.3,0.4-0.7,0.5-1l0.3-0.4l0.3-0.4
			c0.9-1.2,1.9-2.2,2.9-3c1.1-0.9,2.1-1.6,3.1-2.3s2-1.5,3.1-2.1c1.1-0.7,2.3-1.2,3.5-1.5c0.3-0.1,0.7-0.2,1-0.2h0.4
			c0.2,0,0.3,0,0.5,0c0.6,0,1.2,0.1,1.8,0.2c2.2,0.6,3.6,2,4,3.2c0.2,0.6,0.3,1.1,0.3,1.4C-50.5,150.5-50.5,150.7-50.5,150.7z"/>
	</g>
	<g id="XMLID_1665_">
		<path id="XMLID_526_" fill="#EF7B05" d="M-62.8,177.7c0,0-0.6,0.5-1.6,1.2c-1,0.8-2.5,1.9-4.2,3.3c-1.6,1.4-3.4,3.1-4.5,5.2
			c-0.3,0.5-0.5,1.1-0.8,1.6c-0.1,0.3-0.2,0.6-0.3,0.9c-0.1,0.3-0.1,0.5-0.2,0.8c-0.2,1.2-0.3,2.4-0.1,3.7c0.1,1.2,0.5,2.4,1,3.6
			c0.3,0.6,0.6,1.1,0.9,1.6c0.2,0.2,0.4,0.5,0.5,0.7l0.5,0.6c0.2,0.2,0.5,0.5,0.7,0.7s0.4,0.3,0.6,0.5c0.5,0.3,0.9,0.6,1.4,0.9
			c1,0.5,2,0.9,3,1.2c2,0.5,3.8,0.5,5,0.3c0.6-0.1,1.1-0.2,1.5-0.3c0.3-0.1,0.5-0.1,0.5-0.1s-0.2,0.1-0.4,0.3
			c-0.3,0.2-0.7,0.5-1.3,0.8s-1.4,0.6-2.3,0.8c-0.9,0.2-2,0.4-3.2,0.3c-1.2,0-2.5-0.2-3.9-0.7c-0.7-0.2-1.3-0.5-2-0.9
			c-0.3-0.2-0.7-0.4-1-0.6c-0.3-0.2-0.6-0.4-0.9-0.6H-74h0l-0.1-0.1l-0.2-0.2l-0.4-0.4c-0.3-0.3-0.6-0.6-0.8-0.9
			c-0.5-0.6-1-1.3-1.4-2.1c-0.8-1.5-1.3-3.1-1.5-4.8s-0.1-3.4,0.3-5c0.1-0.4,0.3-0.9,0.4-1.3l0.2-0.5l0.1-0.2l0.1-0.1v-0.1l0,0l0,0
			v-0.1c0.4-0.7,0.8-1.4,1.2-2.1c1.8-2.6,4.2-4.1,6.2-5.2c1-0.6,2-0.9,2.8-1.3c0.9-0.3,1.6-0.6,2.2-0.8
			C-63.5,177.8-62.8,177.7-62.8,177.7z"/>
	</g>
	<g id="XMLID_1662_">
		<path id="XMLID_524_" fill="#EF7B05" d="M-39.8,132.6c0,0,0-0.1-0.1-0.2c0-0.1-0.1-0.3-0.2-0.4c-0.1-0.2-0.2-0.4-0.3-0.6
			c-0.1-0.2-0.2-0.4-0.4-0.6c-0.6-0.9-1.3-1.7-1.9-2.2c-0.2-0.1-0.4-0.3-0.5-0.4c-0.2-0.1-0.4-0.3-0.6-0.4c-0.4-0.3-0.9-0.5-1.4-0.7
			s-0.9-0.3-1.3-0.4c-0.4-0.1-0.6-0.1-0.6-0.1s0-0.1,0.1-0.2c0.1-0.1,0.1-0.3,0.2-0.4c0.1-0.2,0.3-0.4,0.5-0.6
			c0.2-0.2,0.5-0.4,0.8-0.6c0.7-0.3,1.5-0.5,2.5-0.5c0.5,0,1,0.2,1.5,0.4c0.2,0.1,0.5,0.2,0.7,0.4c0.1,0.1,0.3,0.2,0.3,0.2l0.3,0.2
			c0.8,0.7,1.4,1.7,1.7,2.6c0.3,0.9,0.2,1.8,0,2.5c-0.1,0.4-0.3,0.7-0.4,0.9c-0.1,0.3-0.3,0.5-0.5,0.6c-0.1,0.2-0.3,0.2-0.4,0.3
			C-39.7,132.6-39.8,132.6-39.8,132.6z"/>
	</g>
	<g id="XMLID_1659_">
		<path id="XMLID_522_" fill="#EF7B05" d="M-52,211.1c0,0-0.2,0.3-0.6,0.8c-0.4,0.5-1,1.1-1.8,1.9c-0.8,0.7-1.9,1.5-3.2,2
			c-0.2,0.1-0.3,0.1-0.5,0.2c-0.2,0-0.3,0.1-0.5,0.1c-0.4,0.1-0.8,0.2-1.2,0.2c-0.8,0.1-1.6,0-2.4-0.2c-0.8-0.2-1.5-0.6-2.2-1.1
			s-1.2-1.2-1.5-1.9c0-0.1-0.1-0.1-0.1-0.2l-0.1-0.3c-0.1-0.2-0.1-0.4-0.1-0.6c0-0.4,0-0.8,0.1-1.1c0.1-0.7,0.4-1.3,0.7-1.8
			c0.3-0.5,0.8-0.9,1.2-1.1c0.4-0.3,0.8-0.4,1.1-0.4c0.3,0,0.6,0,0.8,0c0.2,0,0.3,0.1,0.3,0.1s-0.1,0-0.3,0.1
			c-0.2,0-0.4,0.1-0.6,0.2c-0.3,0.1-0.5,0.3-0.8,0.6c-0.2,0.3-0.5,0.6-0.6,1.1c-0.2,0.4-0.2,0.9-0.3,1.4c0,0.2,0,0.5,0.1,0.7
			c0,0.1,0.1,0.2,0.1,0.3v0.1c0,0.1,0.1,0.1,0.1,0.2c0.2,0.4,0.6,0.8,1.1,1.1c0.4,0.3,1,0.6,1.5,0.7c0.6,0.2,1.2,0.2,1.8,0.2
			c0.3,0,0.6,0,0.9,0c0.1,0,0.3-0.1,0.5-0.1l0.4-0.1c1.2-0.3,2.2-0.8,3.1-1.3c0.9-0.5,1.7-0.9,2.2-1.2
			C-52.4,211.2-52,211.1-52,211.1z"/>
	</g>
	<g id="XMLID_1656_">
		<path id="XMLID_520_" fill="#EF7B05" d="M-23.9,130.2c0,0-0.2-0.2-0.5-0.6c-0.3-0.4-0.7-1-1.2-1.7s-1-1.5-1.5-2.4
			c-0.6-0.9-1.1-1.8-1.7-2.7c-0.6-0.9-1.2-1.9-1.7-2.7c-0.6-0.9-1-1.7-1.5-2.4c-0.4-0.7-0.8-1.3-1-1.8c-0.2-0.4-0.4-0.7-0.4-0.7
			s1,0.6,2.3,1.8c0.6,0.6,1.3,1.3,2,2.1c0.3,0.4,0.7,0.8,1,1.3c0.3,0.4,0.6,0.9,1,1.4c0.3,0.5,0.6,1,0.9,1.5c0.3,0.5,0.5,1,0.7,1.5
			c0.4,1,0.8,1.9,1,2.7C-24,129-23.9,130.2-23.9,130.2z"/>
	</g>
	<g id="XMLID_1653_">
		<path id="XMLID_518_" fill="#EF7B05" d="M-49.3,145.6c0,0-0.8-0.2-1.8-0.8s-2.2-1.5-3.2-2.7s-1.7-2.5-2.1-3.6
			c-0.4-1.1-0.4-1.9-0.4-1.9s0.2,0.1,0.4,0.3c0.3,0.2,0.6,0.5,1,0.9c0.8,0.8,1.7,1.9,2.7,2.9c0.9,1.1,1.8,2.2,2.4,3.1
			c0.3,0.5,0.6,0.9,0.8,1.1C-49.4,145.5-49.3,145.6-49.3,145.6z"/>
	</g>
	<g id="XMLID_1650_">
		<path id="XMLID_516_" fill="#EF7B05" d="M-62.5,173.8c0,0-0.1,0-0.2,0.1s-0.3,0.2-0.4,0.3c-0.4,0.2-0.9,0.6-1.5,0.9
			c-0.6,0.3-1.3,0.7-2,1c-0.4,0.2-0.7,0.3-1.1,0.5s-0.7,0.3-1.1,0.5s-0.8,0.3-1.1,0.5c-0.4,0.1-0.7,0.3-1.1,0.4
			c-0.4,0.1-0.7,0.2-1.1,0.4c-0.4,0.1-0.7,0.2-1,0.3c-0.7,0.2-1.3,0.3-1.7,0.4c-0.2,0.1-0.4,0.1-0.5,0.1s-0.2,0-0.2,0s0-0.1,0-0.2
			c0-0.1,0.1-0.3,0.1-0.5c0.1-0.2,0.2-0.5,0.3-0.8c0.1-0.3,0.3-0.6,0.5-0.9c0.4-0.6,1-1.3,1.7-1.9c0.4-0.3,0.8-0.6,1.2-0.8
			c0.4-0.3,0.9-0.5,1.3-0.7c0.5-0.2,0.9-0.4,1.4-0.5s1-0.2,1.4-0.3c0.9-0.1,1.8,0,2.6,0.1c0.4,0.1,0.7,0.2,1,0.3s0.6,0.2,0.8,0.3
			c0.2,0.1,0.4,0.2,0.5,0.3C-62.5,173.7-62.5,173.8-62.5,173.8z"/>
	</g>
	<g id="XMLID_1611_">
		<path id="XMLID_494_" fill="#EF7B05" d="M31.7,134.4c0,0,0.1-0.3,0.4-0.7c0.3-0.4,0.7-1,1.1-1.8c0.2-0.4,0.4-0.8,0.7-1.2
			c0.2-0.4,0.4-0.9,0.7-1.3c0.4-0.9,0.8-1.9,1.2-3c0.3-1,0.7-2.1,0.9-3.1c0.1-0.5,0.2-1,0.3-1.5s0.2-0.9,0.2-1.3
			c0.1-0.8,0.2-1.5,0.2-2.1c0-0.5,0.1-0.8,0.1-0.8s0.1,0.3,0.3,0.8c0.1,0.2,0.2,0.5,0.3,0.9s0.2,0.8,0.2,1.2
			c0.1,0.9,0.2,1.9,0.1,3.1c-0.1,0.6-0.1,1.1-0.3,1.7c-0.1,0.6-0.3,1.2-0.5,1.7c-0.2,0.6-0.4,1.1-0.7,1.7c-0.2,0.5-0.6,1-0.9,1.5
			c-0.6,0.9-1.3,1.8-2,2.4c-0.3,0.3-0.6,0.6-0.9,0.8c-0.3,0.2-0.5,0.4-0.8,0.5C31.9,134.2,31.7,134.4,31.7,134.4z"/>
	</g>
	<g id="XMLID_1608_">
		<path id="XMLID_492_" fill="#EF7B05" d="M-61.6,190.5c0,0-0.3,0.5-1,1.2s-1.7,1.7-3,2.7s-2.9,2.1-4.6,3.2
			c-0.4,0.3-0.8,0.6-1.2,0.8c-0.4,0.3-0.8,0.6-1.2,0.9c-0.8,0.6-1.6,1.2-2.3,1.9c-0.7,0.6-1.4,1.3-2,2s-1.1,1.4-1.5,2.2
			c-0.8,1.4-1.1,3.1-1.1,4.5c-0.1,1.5,0.3,2.7,0.6,3.5c0.2,0.4,0.4,0.8,0.5,1s0.2,0.3,0.2,0.3s-0.1-0.1-0.4-0.2
			c-0.2-0.1-0.6-0.3-1-0.7c-0.4-0.3-0.9-0.8-1.2-1.4c-0.4-0.6-0.8-1.4-1.1-2.3c-0.5-1.8-0.6-4,0.2-6.3c0.4-1.1,0.9-2.2,1.6-3.2
			s1.5-1.9,2.4-2.7s1.8-1.5,2.8-2.1c0.5-0.3,1-0.6,1.5-0.9l0.7-0.4c0.3-0.1,0.5-0.2,0.7-0.4c1.9-0.9,3.7-1.6,5.2-2.1s2.8-1,3.7-1.4
			C-62.1,190.7-61.6,190.5-61.6,190.5z"/>
	</g>
</g>
</svg>
