<?xml version="1.0" encoding="utf-8"?>
<!-- Generator: Adobe Illustrator 19.0.0, SVG Export Plug-In . SVG Version: 6.00 Build 0)  -->
<svg version="1.1" id="Layer_1" xmlns="http://www.w3.org/2000/svg" xmlns:xlink="http://www.w3.org/1999/xlink" x="0px" y="0px"
	 viewBox="-329 156 300 250" enable-background="new -329 156 300 250" xml:space="preserve">
<path id="XMLID_58_" fill="#EF7B05" d="M-178.7595,171.4521h-0.3h-0.3c-140.4,0-143.2,151.2-137,204.4c2.8,1.9,6,4.3,8.2,8.1
	c4.4,7.9,6.1,6.5,6.1,6.5s0.2-87,0.2-95.6c0-8.5,32.7-56.1,54.9-61.2c22.4-5,42.3,25,66.3,25h1.7h1.7c24,0,43.9-30,66.3-25
	c22.2,5.1,54.9,52.7,54.9,61.2c0,8.6,0.2,95.6,0.2,95.6s1.7,1.4,6.1-6.5c2.2-3.9,5.4-6.3,8.2-8.1
	C-35.5594,322.7521-38.3594,171.4521-178.7595,171.4521z"/>
</svg>
