<?xml version="1.0" encoding="utf-8"?>
<!-- Generator: Adobe Illustrator 19.0.0, SVG Export Plug-In . SVG Version: 6.00 Build 0)  -->
<svg version="1.1" id="Layer_1" xmlns="http://www.w3.org/2000/svg" xmlns:xlink="http://www.w3.org/1999/xlink" x="0px" y="0px"
	 viewBox="0 0 499.5 697.5" style="enable-background:new 0 0 499.5 697.5;" xml:space="preserve">
<style type="text/css">
	.st0{fill:#EF7B05;}
	.st1{fill:#FFFFFF;}
</style>
<g id="XMLID_316_">
	<path id="XMLID_749_" class="st0" d="M324.8,364.1c-1.5,13.4,7.4,19.2,8.4,33.1c0.8,11.5,3.5,19.1,2.2,25.5
		c-1.8,8.9-3.3,14-4.5,17.9c-2.2,6.8-3.5,9.9-4,22.9c-1,22.6,1.4,41.9,6,58.4c0.8,2.9,1.7,5.8,2.6,8.5c1.2,3.4,2.4,6.6,3.8,9.8
		c-0.5,0-1-0.1-1.5-0.1c0.7,0.6,1.5,1.3,2.2,1.9c2,5.3,9.4,21.5,28.2,40c31.2,29.9,68.4,35.5,68.4,35.5s-33.3-11.2-51.4-74.3
		c-0.4-1.2-1-3.6-1.8-6.6c14.7,39.3,68,57.5,68,57.5s-23.1-16.8-36.6-47.1c20.3,14.1,44.3,24.1,55.6,35.5c20,20,23.8,39.7,10.2,53.8
		c0,0,30.9-22.6,6.4-60.5c-24.5-37.9-23.4-34.2-36.9-59.9c-13.6-25.6-14.7-41.5-15.8-52.5c-1.1-11,23-148.8,23-184.8
		S446,206,430.1,182.8c-15.8-23.2-39.9-49.5-59.1-57.5c-19.2-8-72.7-36.3-93.1-40.6c-20.4-4.3-49.6-9-71-9
		c-21.5,0-45.1,5.8-65.5,18.6c-8.3,5.2-15.6,13.9-21.5,22.3C40.3,142,23.5,206.4,23.3,265.2c-0.1,14.7,0.9,29.1,2.2,42.4
		c2.1,1.6,4.4,3.6,6.4,6.1c1.5,1.8,2.3,4.2,4.1,6.3c7.9,9.2,7.9,9.9,7.9,9.9 M44,329.8l42.9,37.6c0,0,0.2-30.3,1.1-35.8
		c1.5-9.7,4.1-19.2,8-28.3c0.2-0.7,1.1-1.7,1.1-2.8l0.1,0c21-6.7,47.2-15.5,47.2-15.5c59.1-18.7,67-41.1,67-41.1
		s12.4,22.3,55.3,36.9c0,0,23.8,7.8,45.8,15.8c1.1,2.1,2.2,4.4,3.2,6.7c3.4,7.8,5.9,15.9,7.4,24.2c0.5,2.4,0.7,4.9,0.8,7.3l1,29.3
		 M278.6,207.5c0.5,0.4,1,0.8,1.4,1.2C279.6,208.3,279.1,207.9,278.6,207.5C278.6,207.5,278.6,207.5,278.6,207.5
		C278.6,207.5,278.6,207.5,278.6,207.5z"/>
	<g id="XMLID_745_">
		<path id="XMLID_327_" class="st1" d="M121.8,105.8c0,0,0,0.7-0.1,2.1c-0.1,1.4-0.1,3.4-0.1,6.1c0,2.6,0.1,5.8,0.4,9.4
			c0.3,3.6,0.9,7.6,1.9,12c1,4.3,2.4,8.9,4.4,13.5c2,4.6,4.6,9.3,7.9,13.7c3.3,4.3,7.3,8.4,11.8,12c4.5,3.6,9.5,6.7,14.9,9
			c5.3,2.4,11,4,16.7,4.9c1.4,0.2,2.8,0.3,4.3,0.5c0.1,0,0.2,0,0.2,0l0.3,0l0.5,0l1.1,0c0.7,0,1.4,0.1,2.2,0.1
			c1.4,0,2.8-0.1,4.2-0.1c0.7,0,1.4-0.1,2.1-0.2c0.7-0.1,1.4-0.1,2.1-0.2c5.5-0.7,10.7-1.9,15.5-3.5c4.8-1.6,9.2-3.6,13.2-5.5
			c4-2,7.5-4.1,10.6-6c3.1-1.9,5.7-3.7,7.8-5.3c1.1-0.8,2-1.5,2.8-2.1c0.8-0.6,1.5-1.1,2-1.6c1.1-0.9,1.7-1.3,1.7-1.3
			s-0.6,0.5-1.6,1.4c-1,0.9-2.6,2.3-4.6,4c-2,1.7-4.5,3.6-7.5,5.7c-3,2.1-6.4,4.4-10.4,6.6c-3.9,2.2-8.3,4.4-13.2,6.1
			c-4.9,1.8-10.2,3.2-15.9,4c-0.7,0.1-1.4,0.2-2.1,0.3c-0.7,0.1-1.4,0.2-2.2,0.2c-1.5,0.1-3,0.2-4.4,0.2c-0.7,0-1.4,0-2.2,0l-1.1,0
			l-0.5,0l-0.3,0l-0.3,0c-1.5-0.2-3-0.2-4.5-0.5c-6-0.8-11.9-2.5-17.5-5c-5.6-2.5-10.8-5.7-15.5-9.5c-4.7-3.8-8.7-8.1-12.1-12.8
			c-3.3-4.6-5.9-9.5-7.8-14.4c-1.9-4.8-3.2-9.6-4-14.1c-0.8-4.4-1.2-8.6-1.3-12.2c-0.1-3.7,0-6.8,0.1-9.5c0.1-1.3,0.2-2.5,0.3-3.5
			c0.1-1,0.2-1.9,0.3-2.6C121.7,106.5,121.8,105.8,121.8,105.8z"/>
	</g>
	<g id="XMLID_317_">
		<path id="XMLID_325_" class="st1" d="M322.1,475.6c0,0,0.3-1.8,0.8-5c0.3-1.6,0.6-3.5,0.9-5.7c0.2-1.1,0.3-2.3,0.5-3.5
			c0.2-1.2,0.3-2.6,0.5-3.9c0.4-2.7,0.7-5.7,1-8.8c0.2-1.6,0.3-3.2,0.4-4.8c0.1-1.6,0.3-3.3,0.4-5c0.2-3.4,0.4-7,0.6-10.6
			c0.2-3.6,0.2-7.2,0.3-10.9c0-3.7,0-7.3-0.1-10.9c-0.1-3.6-0.3-7.1-0.4-10.6c-0.1-1.7-0.2-3.4-0.4-5c-0.1-1.6-0.2-3.3-0.4-4.8
			c-0.3-3.1-0.6-6.1-0.9-8.8c-0.2-1.4-0.3-2.7-0.5-3.9c-0.2-1.2-0.3-2.4-0.5-3.5c-0.3-2.2-0.5-4.2-0.8-5.7c-0.5-3.2-0.7-5-0.7-5
			s0.5,1.8,1.3,4.9c0.4,1.6,0.9,3.5,1.3,5.7c0.2,1.1,0.5,2.3,0.8,3.5c0.3,1.2,0.5,2.5,0.7,3.9c0.2,1.4,0.5,2.8,0.8,4.3
			c0.2,1.5,0.4,3,0.7,4.6c0.5,3.1,0.8,6.5,1.2,9.9c0.3,3.5,0.6,7,0.7,10.7c0.2,3.6,0.2,7.3,0.2,11c-0.1,3.7-0.1,7.4-0.4,11
			c-0.1,3.6-0.5,7.2-0.8,10.6c-0.2,1.7-0.4,3.4-0.6,5.1c-0.2,1.7-0.4,3.3-0.7,4.8c-0.2,1.6-0.5,3.1-0.7,4.6
			c-0.3,1.5-0.6,2.9-0.8,4.2c-0.3,1.4-0.5,2.7-0.8,3.9c-0.3,1.2-0.6,2.4-0.8,3.5c-0.5,2.2-1,4.1-1.4,5.6
			C322.6,473.8,322.1,475.6,322.1,475.6z"/>
	</g>
</g>
</svg>
