<?xml version="1.0" encoding="utf-8"?>
<!-- Generator: Adobe Illustrator 19.0.0, SVG Export Plug-In . SVG Version: 6.00 Build 0)  -->
<svg version="1.1" id="Layer_1" xmlns="http://www.w3.org/2000/svg" xmlns:xlink="http://www.w3.org/1999/xlink" x="0px" y="0px"
	 viewBox="0 0 517.6 485.1" style="enable-background:new 0 0 517.6 485.1;" xml:space="preserve">
<style type="text/css">
	.st0{fill:#EF7B05;}
	.st1{fill:#FFFFFF;}
</style>
<g id="XMLID_6949_">
	<path id="XMLID_7151_" class="st0" d="M355.3,209.4c-0.1-0.1-0.2-0.3-0.3-0.4C355.1,209.2,355.2,209.3,355.3,209.4
		c2.5,3,1.4,7.1,0.3,11.2C356.7,216.5,357.8,212.4,355.3,209.4z M349.7,186.6c-1.4-1.8-4-2.4-5.8-3.8c-2.3-1.8-3-4.7-3.1-7.7l0,0
		c-0.1,0-0.2-0.1-0.2-0.1c0,0.1,0,0.1,0,0.1v0c0,3,1,5.9,3.2,7.7C345.6,184.3,348.2,184.8,349.7,186.6c3.5,4.5-2.7,11.4-0.9,16.6
		C347,198.1,353.2,191.1,349.7,186.6z M350.2,205.5c-0.4-0.3-0.7-0.7-0.9-1.1c-0.2-0.4-0.4-0.8-0.6-1.1c0.1,0.4,0.3,0.8,0.5,1.1
		C349.6,204.8,349.9,205.2,350.2,205.5z M339.1,173.2c0.1,0.1,0.2,0.2,0.3,0.3c0.2,0.2,0.4,0.4,0.5,0.6c0.1,0.1,0.2,0.2,0.3,0.3
		c-0.1-0.1-0.2-0.2-0.3-0.3C339.6,173.9,339.3,173.5,339.1,173.2z M316.5,160.1c0,0.1,0,0.1,0.1,0.1c1.3,2.7,3.4,5,6,6.6
		c-0.5-0.8-0.8-1.8-0.8-2.7c0.1-1.5,0.6-3,0.9-4.6C320.6,159.2,318.4,159.3,316.5,160.1z M303,156.4c3.5,1.9,6.8,4.3,9.6,7.2
		c0.9-1.6,2.3-2.8,3.9-3.5c-0.5-1.2-1-2.4-1.8-3.3C311.9,153.8,307.3,155.8,303,156.4z M297.6,154.9c-0.3,0.1-0.6,0.3-0.8,0.5
		c1.3,0.8,2.7,1.2,4.2,1.2c0.6,0,1.3-0.1,2-0.2c-0.6-0.4-1.3-0.7-1.9-1C300,154.9,298.8,154.4,297.6,154.9z M472.4,277.9
		c-1.7-2.2-4.3-3.6-6.1-5.7c-4.7-5.7-2.4-14.1-0.6-21.3s1.4-16.7-5.4-19.5c-3.4-1.4-8-0.7-10.4-3.5c-5.6-6.6,9.9-17.1,4.2-23.5
		c-3-3.4-9.4-1.4-12.8-4.5c-4.7-4.3,1.3-11.8,1-18.2c-0.3-5.9-7.6-10.1-12.8-7.6c-6.4-5.7,3.9-19.1-3.2-23.9
		c-1.8-1.2-4.1-1.3-6.1-2.2c-5.2-2.4-5.9-9.2-8.1-14.5c-2.2-5.3-10.4-9.3-12.9-4.1c-0.6-10.2-3.7-23.2-13.8-24.3
		c-2.5-0.3-5.1,0.2-7.3-1c-3.4-1.9-3.5-6.7-5.5-10.1c-2.6-4.3-9.2-5.5-13.2-2.5c-1.6,1.2-2.9,3-4.8,3.6c-3.9,1.2-7.1-2.9-10.2-5.5
		c-3.1-2.6-10-1.5-8.7,2.4c-7.4-5.7-18.3-6.4-26.4-1.7c3.7-10.6-7.5-23.2-18.5-20.7c-2.6,0.6-5.3,1.9-7.8,0.9
		c-2.5-0.9-3.7-3.7-5.2-5.9c-6-8.9-20.6-10.4-28.2-2.8c0.5-7-8-12.9-14.4-9.9c-4.3,2-9.3,7-12.7,3.6c-1.5-1.6-1.4-4.1-2.4-6
		c-3.2-6.7-13.4-2.7-19,2.2c-1-2.8-2-5.6-2.9-8.4c-2.4,0-4.8,1.4-6.2,3.4c1.2-0.4,2.8-0.2,3.4,1.1c1.1,2.3,0.1,5.2,1.1,7.6
		c2,4.8,9.1,3.4,13.9,1.2c-0.6,6,2.6,12,7.6,15.4c-7.8-1.2-16.3,1.8-21,8.2c-6-5.2-15.4-10.5-21.1-4.9c-2.5,2.5-3.3,6.5-6.2,8.6
		c-5.7,4.1-14.6-2.4-20.5,1.4c-5.6,3.6-3.2,12.5-6.3,18.3c-5.2,9.7-23.3,7.7-25.9,18.4c-1.2,5,1.9,10.8-1,15
		c-4.1,5.8-13.3,1-20.1,2.7c-9.7,2.4-10.6,15.6-9.3,25.5c-8.8-1.6-16.9,9.8-12.5,17.6c1.9,3.3,5.4,6.6,4.1,10.1
		c-0.8,2-2.8,3.1-4.8,3.9c-9.3,4.1-21.2,9.6-20.4,19.8c0.5,6.5,6.6,12.3,4.8,18.5c-1.4,4.6-6.4,6.9-10.6,9.3
		c-4.1,2.5-8.2,7.3-6.1,11.7c0.7,1.5,2,2.5,3.4,3.6c1.5-3.6,4.5-6.6,8.3-7.7c2.6-0.7,5.5-0.7,7.8-2.1c9.2-5.6-1.3-25.5,9-28.6
		c2.3-0.7,4.8,0,7.2,0.1c1.9,0.1,3.7-0.4,5.4-1.1c5.1-2.3,8.8-7.8,8.3-13.4c5.7,2,2.5,10.7-2.1,14.7c-4.5,3.9-10.1,10.2-6.4,14.8
		c-1.2-0.4-2.4-0.5-3.6-0.5c-6.8,0.3-13.3,7-12.4,14c0.6,4.5,3.6,9.6,0.9,13.2c-1.9,2.5-5.6,2.8-7.8,4.9c-6.8,6.3,5.5,17.6,2.2,26.3
		c-1.8,4.7-8,8.1-6.7,13c1.4,5.4,9.8,4.5,13.9,8.4c9.8,9.1-14.5,26.4-5.5,36.3c3.7,4.1,11.6,3.9,13.1,9.1c2,6.8-9.7,12.8-6.5,19.1
		c1.5,3,5.6,3.6,7.7,6.2c2.5,3.2,1.1,8-1.2,11.3c-2.3,3.4-5.4,6.4-6.3,10.4s2.4,9.1,6.3,8c-3.9-4.2,2.3-10.8,7.1-13
		c2.8-1.3,5.1-3.5,6.1-6.3c2.2-6-2.9-6.8-4.4-10.1c-2.4-4.9,4.5-9,9.9-10.2c-0.3,6,4.9,11.8,11,12.1c-3,4.8-6.1,10-5.9,15.7
		c0.2,5.7,5.3,11.5,10.8,10.2c-0.2,2.2-0.4,4.4-0.6,6.6c2.7-1,5.4-2,8.1-3c-5.8-0.9-4-9.8-0.6-14.6c2.1-3,4.1-6,6.2-9
		c1.7-2.5,3.4-5,5.1-7.4c2-5.6,4.2-11.5,6.4-17.5c5.1-13.7,5.6-28.5,2-42.6c-1.4-5.3-2.2-10.6-2.3-16c-1.6-7.1-3.1-14.3-3.5-21.4
		c-0.2-3.8-0.4-7.6-0.6-11.4c0-15,2-29.4,5.7-42.9c0,0,0,0.1,0.1,0.1c1.9,3.5,5.7,5.5,8.9,7.9c3.2,2.5,6.1,6.4,4.9,10.2
		c-0.6,1.9-2.1,3.4-2.9,5.2c-3.3,7.5,6.3,14.7,8.4,22.4c0.8-1.4,2.2-2.6,3.6-3.3c3.1-1.6,7.1-3.4,6.8-6.9c-0.2-3.1-4.2-5-4.5-8.1
		c-0.6-5.9,11.1-7.4,10.1-13.2c-0.4-2.3-2.9-3.7-3.7-5.9c-1.4-3.6,2-7.1,5.2-9.1c3.2-2,7.1-4.1,7.8-7.9c0.7-4.1-3-8.2-1.8-12.2
		c1.3-4.3,7.1-5,10.3-8.1c3.3-3.1,3.5-8.2,4.1-12.6c0.6-4.5,2.4-9.6,6.8-10.8c1.8-0.5,3.8-0.2,5.7-0.5c5.8-1,8.8-7.3,10.8-12.9
		c4.4,0.9,6.5,6.5,4.9,10.7c-1.6,4.1-5.8,6.8-10.1,7.9c-4.6,1.2-11.1,2.7-10.5,7.4c0.2,1.4,1.1,2.7,1.7,4c1.8,3.8,0.5,8.8-2.8,11.3
		c-2.5,1.9-5.9,2.6-7.5,5.3c-2.6,4.5,1.7,11.5-2.3,14.9c-1.6,1.3-3.9,1.3-5.8,2.2c-4.6,2-5.2,9.4-1,12.2c1.2,0.8,2.7,1.2,3.8,2.3
		c1.1,1,1.5,3,0.2,3.9c-2.6-1.8-6.6-0.2-8.2,2.6c-2.1,3.4-1.6,7.9-1.6,11.7c0.4,0.2,0.3,0.2,0.7,0.5c0.9-0.4,1.7-0.7,2.2-1.5
		c0.8-1.3,0-2.9-0.1-4.3c-0.6-5.6,7-8,12.7-8.3c-2.7-2.7-5.2-6.1-4.9-9.9c0.3-3.8,5.3-6.9,8.1-4.4c0.4-4.6,0.8-9.1,1.3-13.6
		c0.1-0.8,0.2-1.7,0.8-2.2c0.6-0.5,1.6-0.5,2.4-0.4c3.7,0.4,7.3,0.8,11,1.2c1.4,0.1,2.9,0.3,4.2-0.3c5.3-2.6-0.8-11.4,2.1-16.5
		c3.8-7,17.1,1,22.1-5.3c3.3-4.2-0.5-10.6,1.1-15.7c2-6.3,10.4-7.1,17-6.7c-0.5-4-1-8.2,0.2-12c1.2-3.9,4.6-7.4,8.6-7.3
		c-0.1,2.4-1.3,4.8-3.1,6.4c2.3-1.3,4.2,2.9,2.7,5.1c-1.4,2.2-4.2,3.4-5.3,5.8c-2.9,6.2,6.7,14.7,1.6,19.2c-1.1,1-2.8,1.4-3.7,2.6
		c-4,4.7,7.3,10.8,4.9,16.5c-1.4,3.2-5.9,3.2-8.6,5.4c-3,2.4-3.2,7-1.6,10.4c1.6,3.4,4.7,5.9,7.7,8.2c-5.2-6.8-0.9-18.5,7.5-20.4
		c1.5-0.3,3.3-0.6,3.9-1.9c0.6-1.3-0.3-2.8-0.9-4.1c-2.9-6.5,3.3-15,10.4-14.3c-2.5-1.9-2.1-6.2,0.1-8.6c2.2-2.4,5.4-3.4,8.5-4.3
		c1.5-2.6-0.1-5.8-1.2-8.6c-1.1-2.8-1.1-6.9,1.8-7.8c1.5-0.5,3.2,0.2,4.6-0.6c3.8-2.2-1.8-9.7,0.8-12.2c1.3,0.8,2.7,1.2,4.2,1.2
		c0.6,0,1.3-0.1,2-0.2c3.5,1.9,6.8,4.3,9.6,7.2c0.9-1.6,2.3-2.8,3.9-3.5c0,0.1,0,0.1,0.1,0.1c1.3,2.7,3.4,5,6,6.6
		c-0.5-0.8-0.8-1.8-0.8-2.7c0.1-1.5,0.6-3,0.9-4.6c0.3,0.1,0.5,0.1,0.8,0.2c0.7,0.2,1.3,0.4,1.9,0.8c0.1,0,0.2,0.1,0.2,0.1
		c0.7,0.6,1.4,1.2,2.2,1.8c0,0,0.1,0.1,0.1,0.1c0,0,0,0,0,0c0,0,0.1,0.1,0.1,0.1c0.1,0.1,0.1,0.2,0.2,0.3c0.1,0.1,0.2,0.3,0.3,0.4
		c0.1,0.2,0.2,0.3,0.3,0.5c0.1,0.2,0.2,0.4,0.3,0.5c2,4.8-0.5,10.2-2.2,15.1c-1.7,4.9-2.1,11.4,2.2,14.3c2.6,1.7,6.7,2.1,7.2,5.2
		c0.2,1.3-0.4,2.7-1.1,3.9c-2.6,4.8-5.2,11-1.7,15.2c2,2.3,5.2,3.1,7.7,4.9c1.3,1,2.2,2.8,2.2,4.5c2.4-4.5,3.9-9.7,1-13.5
		c-1.3-1.7-3.4-2.9-4-5c-1.6-4.9,6.3-9.6,4.1-14.3c-0.5-1-1.4-1.8-2.2-2.6c-4.3-4.4-5.6-11.2-3.8-17c0.1-0.2,0.1-0.4,0.2-0.7
		c0.1-0.4,0.3-0.8,0.5-1.2l0,0c0.1,0.1,0.2,0.2,0.3,0.3c0.2,0.2,0.4,0.4,0.5,0.6c0.1,0.1,0.2,0.2,0.3,0.3c0,0,0,0,0,0l0,0
		c0.2,0.1,0.3,0.3,0.4,0.4c0,0,0,0,0,0c0,0.1,0,0.1,0,0.1v0c0,3,0.9,5.9,3.2,7.7c1.8,1.5,4.4,2,5.8,3.8c3.5,4.5-2.6,11.4-0.9,16.6
		c0.1,0.4,0.3,0.8,0.5,1.1c0.3,0.4,0.6,0.8,0.9,1.1c1.4,1.3,3.3,2.1,4.7,3.6c0.1,0.1,0.2,0.2,0.3,0.4c2.5,3,1.4,7.1,0.3,11.2
		c-1.1,4-2.1,8.1,0.2,11.1c2.7,3.5,8.8,3.8,10.4,7.9c1.8,4.7-4.2,9.3-3.7,14.3c0.2,1.8,1.1,3.3,2,4.9c2.9,5.5,4.2,11.9,3.7,18.1
		c1-1.8,2.9-3.3,4.8-4.2c1.8-0.9,3.8-1.9,5.4-3.3c0.1,2.7,0.2,5.5,0.1,8.3c-0.1,4.6,1.2,9.4,0.8,13.9c-0.4,5.5-1.4,11-2.7,16.4
		c-1.2,5.1-1.2,10.1-1.8,15.4c-1.3,11-4,21.9-8.3,32.1c0,0,0,0,0,0.1c-1.4,3.5-1.8,7.4-0.7,11c1,3.4,2.2,6.7,3.7,10
		c1.6,3.6,3.6,7.1,4.4,10.9c1.2,5.8-0.4,11.8-2.1,17.6c0.7,1.6,1.2,3.2,1.5,4.9c1.1,6.7-0.7,13.9-2.6,20.6
		c-1.4,4.9-2.8,9.8-4.2,14.7c13.4-8.7,28.7-21.2,25.9-37c-0.7-4.2-2.7-8.5-0.9-12.4c2.2-4.7,9-5.8,11.2-10.4c0.9-2,1-4.4,0.8-6.8
		c-0.5-5.4-2.2-11.1,2.4-13.1c1.1,1.8,2.1,3.6,2.9,5.6c3.8,8.9,4.3,19.2,1.2,28.4c4.3-0.5,8.7-1,13-1.5c1.9,6.4,0.8,13.6-2.8,19.2
		c6.9-6.7,14.2-17.1,8.4-24.8c-1.6-2.1-4-3.6-5.2-5.9c-2.5-5.1,1.8-10.6,5-15.3c7.5-11.3,8.6-26.5,3-38.8c7.2,5.5,11.1,15,9.9,24
		c3.6-0.7,7.3-1.4,10.9-2.1c2.3,6,4.6,12.1,6.9,18.1c1.6-9.8,2.7-21.2-4.1-28.5c-2-2.1-4.5-3.8-6-6.3c-4.8-8,3.9-19.6-1.7-27
		c-1.3-1.8-3.4-3.1-4.5-5.1c-3.6-6.9,7.1-13.4,7.1-21.2c0.1-5.1-4.4-8.9-6.8-13.3c-2.5-4.4-1.1-12.1,4-11.7
		c5.3,0.4,5.1,8.2,7.1,13.2c2.1,5.6,8.1,8.4,12.6,12.3c3.1,2.7,5.3,7.3,4.9,11C474.5,289.8,476.4,282.9,472.4,277.9z"/>
	<path id="XMLID_7150_" class="st0" d="M386.6,246.8c-2.1,3.7-6.9,5.9-7.4,10.1c-0.3,3,1.8,5.9,1.2,8.9c-0.3,1.5-1.1,2.7-2.2,3.7
		c-1.5,1.4-3.5,2.4-5.4,3.3c-1.9,1-3.8,2.5-4.8,4.2c0.5-6.2-0.8-12.6-3.7-18.1c-0.8-1.6-1.8-3.1-2-4.9c-0.5-5,5.5-9.6,3.7-14.3
		c-1.6-4.2-7.7-4.4-10.4-7.9c-4.7-6.2,4.5-16.4-0.5-22.4c-1.7-2-4.6-2.8-6-5c-3.3-5.2,4.1-12.9,0.4-17.7c-1.4-1.8-4-2.4-5.8-3.8
		c-2.3-1.8-3-4.7-3.1-7.7c-0.1-1.7,0.1-3.4,0.3-5.1c-0.8,1-1.5,2.1-2,3.2c-2.8,6.1-1.7,14,3.1,18.9c0.8,0.8,1.7,1.6,2.2,2.6
		c2.2,4.7-5.7,9.4-4.1,14.3c0.6,2.1,2.7,3.3,4,5c2.9,3.8,1.4,9-1,13.5c-0.1-1.6-0.9-3.4-2.2-4.5c-2.4-1.9-5.7-2.6-7.7-4.9
		c-3.5-4.2-0.8-10.4,1.7-15.2c0.6-1.2,1.3-2.5,1.1-3.9c-0.5-3-4.6-3.5-7.2-5.2c-4.3-2.9-3.9-9.4-2.2-14.3c1.7-4.9,4.1-10.3,2.2-15.1
		c-0.3-0.7-0.7-1.4-1.2-2c-0.6-0.7-1.3-1.3-2.2-1.8c-0.9-0.5-1.9-0.9-2.9-1.1c-2.1-0.4-4.3-0.3-6.2,0.5c-1.6,0.7-3,1.8-3.9,3.5
		c-2.8-2.9-6.1-5.3-9.6-7.2c-0.6-0.4-1.3-0.7-1.9-1c-1.1-0.5-2.3-1-3.4-0.5c-0.3,0.1-0.6,0.3-0.8,0.5c-2.6,2.5,3,10-0.8,12.2
		c-1.3,0.8-3.1,0.1-4.6,0.6c-2.8,0.9-2.9,5-1.8,7.8c1.1,2.8,2.7,5.9,1.2,8.6c-3.1,0.9-6.3,1.9-8.5,4.3c-2.2,2.4-2.6,6.6-0.1,8.6
		c-7.1-0.7-13.3,7.8-10.4,14.3c0.6,1.3,1.5,2.8,0.9,4.1c-0.6,1.4-2.4,1.6-3.9,1.9c-8.4,1.8-12.7,13.5-7.5,20.4c-3-2.3-6-4.8-7.7-8.2
		c-1.6-3.4-1.4-8,1.6-10.4c2.7-2.1,7.2-2.2,8.6-5.4c2.4-5.7-8.9-11.8-4.9-16.5c1-1.2,2.6-1.6,3.7-2.6c5.1-4.6-4.6-13.1-1.6-19.2
		c1.1-2.4,3.9-3.6,5.3-5.8c1.4-2.2-0.4-6.4-2.7-5.1c1.8-1.6,3-3.9,3.1-6.4c-4,0-7.4,3.5-8.6,7.3c-1.2,3.9-0.7,8-0.2,12
		c-6.6-0.4-15,0.4-17,6.7c-1.6,5.1,2.2,11.5-1.1,15.7c-5,6.3-18.2-1.8-22.1,5.3c-2.8,5.2,3.2,13.9-2.1,16.5
		c-1.3,0.6-2.8,0.5-4.2,0.3c-3.7-0.4-7.3-0.8-11-1.2c-0.8-0.1-1.8-0.2-2.4,0.4c-0.6,0.5-0.7,1.4-0.8,2.2c-0.4,4.6-0.9,9.1-1.3,13.6
		c-2.8-2.6-7.8,0.6-8.1,4.4c-0.3,3.8,2.2,7.2,4.9,9.9c-5.7,0.3-13.2,2.7-12.7,8.3c0.2,1.5,0.9,3.1,0.1,4.3c-0.6,1-1.8,1.3-2.9,1.9
		c0-1,0-2.1,0-3.1c0-3.2,0-6.6,1.6-9.4c1.6-2.8,5.6-4.5,8.2-2.6c1.2-0.8,0.8-2.8-0.2-3.9c-1.1-1-2.6-1.4-3.8-2.3
		c-4.1-2.7-3.5-10.2,1-12.2c1.9-0.8,4.2-0.8,5.8-2.2c4-3.3-0.3-10.4,2.3-14.9c1.6-2.7,5-3.4,7.5-5.3c3.3-2.6,4.6-7.5,2.8-11.3
		c-0.6-1.3-1.5-2.5-1.7-4c-0.6-4.7,5.9-6.3,10.5-7.4c4.3-1.1,8.5-3.7,10.1-7.9c1.6-4.2-0.6-9.8-4.9-10.7c-2,5.5-5,11.9-10.8,12.9
		c-1.9,0.3-3.9,0-5.7,0.5c-4.4,1.2-6.2,6.3-6.8,10.8c-0.6,4.5-0.9,9.5-4.1,12.6c-3.2,3.1-9,3.8-10.3,8.1c-1.3,4,2.5,8.1,1.8,12.2
		c-0.7,3.8-4.6,5.8-7.8,7.9c-3.2,2-6.6,5.6-5.2,9.1c0.8,2.2,3.3,3.6,3.7,5.9c1,5.8-10.7,7.3-10.1,13.2c0.3,3.1,4.3,5,4.5,8.1
		c0.3,3.4-3.8,5.3-6.8,6.9c-1.4,0.7-2.8,1.9-3.6,3.3c-2.1-7.8-11.7-14.9-8.4-22.4c0.8-1.8,2.3-3.3,2.9-5.2c1.2-3.8-1.7-7.8-4.9-10.2
		c-3.2-2.5-7-4.4-8.9-7.9c0,0-0.1-0.1-0.1-0.1c-3.4-6.5,1.2-14.4,6.6-19.4c0,0,0.1-0.1,0.1-0.1c5.4-5,12.2-9.3,14.4-16.3
		c1.1-3.5,0.9-7.1,0.5-10.8c-0.4-4.2-1.2-8.4-0.5-12.5c0.1-0.4,0.1-0.9,0.3-1.3c1.3-5.5,4.9-9.6,9.1-13.4c1.2-1.1,2.4-2.1,3.6-3.1
		c2.3-2,4.7-3.9,6.9-6c11.5-11.1,17-27.4,29-38c11.2-9.9,26.7-13.6,41.6-13.8c1.6,0,3.1,0,4.7,0c13.3,0.4,26.5,2.9,39.8,4.3
		c14.7,1.6,29.8,2.1,43.5,7.6c2.4,1,4.8,2.1,7.1,3.4c1.4,0.8,2.7,1.6,4,2.4c11.4,7.4,20.5,18.4,26,30.8c6.3,14.2,8.2,29.9,10,45.4
		c1.6,14,3.3,27.9,4.9,41.9C388.1,239.7,388.5,243.6,386.6,246.8z"/>
	<path id="XMLID_6958_" class="st1" d="M366.7,115.2c3.2,5.6,5.9,11.4,8.3,17.4c-2.5-3.3-6.4-5.5-10.5-5.5c-1.8,0-3.9,0.3-5.1-1.1
		c-0.7-0.8-0.8-1.9-1.2-2.8c-2-6-10.2-7-16.4-5.7c-6.2,1.3-13,3.6-18.5,0.4c-2.4-1.4-4.5-3.9-7.3-4c-3.7-0.2-6.2,3.5-8.4,6.4
		c-2.2,2.9-6.6,5.6-9.3,3.1c0.5,2.4,3.7,2.9,6.1,2.3c2.3-0.6,4.8-1.8,7.1-0.9c4.3,1.8,2.7,8.4,4.9,12.6c0,0,0,0.1,0.1,0.1
		c1.9,3.4,5.9,4.5,10,5.1c0.9,0.1,1.7,0.3,2.6,0.4c4.7,0.6,10.4,2.8,10.8,7.6c0,0.3,0,0.6,0,0.9v0c0,0.4-0.1,0.7-0.1,1.1
		c-0.3,1.5-0.8,3-0.9,4.6c0,0.9,0.3,1.9,0.8,2.7c-2.6-1.5-4.7-3.8-6-6.6c0-0.1,0-0.1-0.1-0.1c-0.5-1.2-1-2.4-1.8-3.3
		c-2.8-3-7.4-1-11.6-0.4c-0.7,0.1-1.3,0.2-2,0.2c-1.5,0-3-0.4-4.2-1.2c-4.4-2.6-6.9-9.1-4-13.6c-4.3-0.9-8.8-1.8-12.6-3.9h0
		c-0.3-0.2-0.6-0.3-0.8-0.5c-4.1-2.5-7.3-6.8-7.2-11.5c-3.9-3.6-11.6,0.4-10.9,5.7c0.2,1.2,0.6,2.4,1.1,3.6c0.5,1.4,0.9,2.7,0.5,4.1
		c-1.7,5.6-11.4,1.6-15.7,5.6c-4.8,4.5,1.7,13.8-2.7,18.6c-2,2.1-5.2,2.3-7.9,3.2c-5,1.8-8.4,7.2-7.9,12.5c0.2,2.4,1,5.4-0.9,7
		c-2.1-3.9-4.3-7.9-4.8-12.2c-0.5-4.4,1.1-9.3,5-11.4c3.8-2.1,9.3-1.2,12.1-4.6c3.3-3.9,0.2-9.8,0.4-15c0.1-3,1.8-5.8,4.1-7.6
		c2.8-2.2,6.5-3.3,9.9-2.3c2.4-3.7,0.3-9-3.3-11.5c-3.6-2.6-8.2-3.1-12.6-3.6c-1.7-0.2-3.7-0.2-4.7,1.2c-1.3,1.8,0.3,4.3,0.2,6.6
		c-0.1,4-5.2,5.9-9.2,5.4c-4-0.5-8-2.3-11.9-1.1c1.6,3-0.1,7.1-3.1,8.9c-3,1.8-6.8,1.6-10,0.4c-1.5-0.5-3.1-1.3-4.5-0.7
		c-2,0.8-2.3,3.5-1.8,5.5c0.5,2,1.7,4,1.6,6.1c0,1-0.3,1.9-0.8,2.7c-1.1,2-3.4,3.4-5.8,4c-0.6,0.2-1.3,0.3-2,0.4
		c-4,0.3-8.1-0.8-12.1-0.4c-1.3,0.1-2.7,0.5-4,1.1c-1.5,0.7-2.8,1.8-3.6,3.1c-0.5,0.9-0.8,1.8-0.8,2.9c0,3.2,2.6,6.6,0.8,9.2
		c-1.4,2-4.4,1.8-6.9,2.1c-0.8,0.1-1.7,0.3-2.4,0.5c-5.5,1.8-9.7,7.5-9.3,13.4c0.2,3.6,1.9,6.9,2.4,10.5c0,0.2,0,0.3,0.1,0.5
		c0.3,3.4-0.9,7.4-4.1,8.5c-0.1,0-0.2,0.1-0.4,0.1c-2.6,0.7-6-0.3-7.6,1.9c-1,1.3-0.7,3.1-0.7,4.8c0.3,6.4-3,12.8-8.3,16.2
		c-1.2-2.3-3.2-4.1-4.7-6.3c-1.9-2.8-2.2-7.4,0.9-8.8c1.5-0.6,3.2-0.2,4.8-0.6c3.4-0.8,4.9-4.8,4.8-8.3c-0.1-3.5-1.1-7-0.3-10.3
		c0.8-3.4,4.6-6.4,7.6-4.7c2.3-7.9-7.1-16.9-2.7-23.8c4.1-6.3,15.5-3.6,19.3-10c2-3.5,1-8.5,3.9-11.2c3.9-3.8,11.9-0.2,15.2-4.5
		c2.2-2.9,0.8-7.6,3.4-10.1c2.2-2,5.7-1.2,8.5-2.2c4.2-1.5,5.8-6.4,6.8-10.7c-3.5,4.3-10.2,3.2-15.5,1.8c-5.4-1.4-12.2-2.3-15.4,2.2
		c-2.8,3.9-1.8,10.6-6.1,12.3c-4.3,1.8-8.4-3.6-13-4c-7.7-0.7-10.3,11.1-16.4,15.2c-0.2-3,0.2-6,1.1-8.9
		c3.3-10.7,13.1-19.4,24.3-20.3c0.9-0.1,1.7-0.1,2.6-0.1c4.5-0.1,9.1,0.1,12.5-2.8c1.8-1.5,2.9-3.7,4.5-5.4c0.9-1.1,2-1.9,3.3-2.6
		c0.8-0.4,1.6-0.8,2.4-1.1c0,0,0,0,0,0c3.5-1.2,7.5-1.1,10.8,0.7c2.1,1.1,4,2.7,6.3,2.7c4.7,0,6.9-6.2,11.3-7.7
		c4.2-1.4,9.3,1.7,13-0.6c2.6-1.7,3.3-5.4,5.8-7.3c3.4-2.5,8.1-0.4,11.8,1.4c3.7,1.9,8.8,3.4,11.6,0.3c0.3,1.4,0.6,2.8,0.9,4.1
		c0.4,1.9,0.8,3.7,1.2,5.6c0.3,1.2,0.6,2.4,1.4,3.2c1.3,1.1,3.2,0.9,4.9,0.8c6.8-0.4,13.6,2.9,17.5,8.4c-0.2-5,4.3-9.6,9.3-9.6
		c7.6,0,14.6,8.9,21.4,5.4c1.8-0.9,3-2.5,4.8-3.5c3.9-2.3,9-0.5,12.8,2c3.8,2.6,7,6,11.3,7.5c-0.5-2.9,2.9-5,5.8-4.5
		c0.2,0,0.4,0.1,0.6,0.1c1.3,0.4,2.4,1.3,3.4,2.3C365,112.2,365.9,113.7,366.7,115.2z"/>
</g>
</svg>
