<?xml version="1.0" encoding="utf-8"?>
<!-- Generator: Adobe Illustrator 19.0.0, SVG Export Plug-In . SVG Version: 6.00 Build 0)  -->
<svg version="1.1" id="Layer_1" xmlns="http://www.w3.org/2000/svg" xmlns:xlink="http://www.w3.org/1999/xlink" x="0px" y="0px"
	 viewBox="-267 47.8767 423.2877 467.1233" enable-background="new -267 47.8767 423.2877 467.1233" xml:space="preserve">
<path id="XMLID_1018_" fill="#EF7B05" d="M140.4154,463.0875c-0.6767-0.0557-1.4299,0.0325-2.1596,0.1137
	c-0.5414,0.058-1.1652,0.1207-1.4947,0.1021l-0.0618,0.0163c-0.0265-0.0012-0.0412-0.0209-0.0412-0.0209
	c-0.0883,0.0279-0.356,0.0046-0.5326,0.0023c-0.3531,0-0.6738-0.0441-1.021-0.0534c2.1567-0.7149,4.2428-1.5876,6.1347-2.8107
	c0.4767-0.3064,0.665-0.8077,0.4884-1.2696c-0.1824-0.4619-0.7003-0.7914-1.3123-0.8332c-0.6767-0.0557-1.4299,0.0325-2.1596,0.1137
	c-0.5414,0.058-1.1652,0.1207-1.4947,0.1021l-0.0618,0.0162c-0.0265-0.0012-0.0412-0.0209-0.0412-0.0209
	c-0.0883,0.0279-0.356,0.0046-0.5326,0.0023c-24.627,0-33.8659-20.3525-36.1197-26.6261c-1.5506-4.3193-2.2332-8.735-2.4098-13.2133
	c0.3707-8.5005,2.4451-17.2285,4.8519-26.1039c2.7481-10.0962,5.708-20.3525,8.568-30.27
	c9.5154-32.9368,19.3486-66.9946,22.9146-101.1591c1.0504-10.0672,1.4829-19.8326,1.3387-29.3068
	c0.2265-40.965-10.4393-76.4641-31.9151-105.7407C72.4777,84.0488,16.421,56.1253-39.4532,54.9857
	c-24.8624-0.4735-48.0889,4.3472-65.1896,13.6751c-2.5598,1.3972-4.8666,2.9964-7.0645,4.6814
	c-0.0088,0.0081-0.0206,0.0174-0.0294,0.0255c-0.0059,0.0035-0.0059,0.0093-0.0118,0.0128l0,0
	c0.0059-0.0035,0.0059-0.0093,0.0118-0.0128c-0.0059,0.0046-0.0118,0.0093-0.0177,0.0139
	c-0.0382,0.0302-0.0765,0.0627-0.1147,0.0928c-0.0559,0.0441-0.1089,0.0905-0.1648,0.1346
	c-0.0294,0.0232-0.0559,0.0464-0.0853,0.0696c-1.5624,1.2232-3.0512,2.4974-4.4399,3.847
	c-31.3237-1.7953-64.0068,15.2139-80.0894,33.1004c-25.6245,28.5037-38.6618,65.9664-38.4176,109.387
	c-0.1707,10.066,0.3649,20.4547,1.6624,31.1496c3.5484,29.1861,11.8045,58.3165,19.784,86.4884
	c4.8018,16.9337,9.7626,34.4431,13.6464,51.7714c1.683,7.5083,3.2218,15.5609,3.5455,23.6692
	c-0.1971,7.4166-1.5594,14.8043-5.1284,21.7892c-7.5558,14.7869-31.771,28.5339-54.5032,24.6092
	c-0.1147-0.0186-0.203,0.0441-0.3177,0.0453c-0.1913,0.0023-0.3707,0.0244-0.5414,0.0777c-0.1795,0.058-0.3325,0.1462-0.4767,0.2576
	c-0.0735,0.0592-0.1913,0.0627-0.2531,0.1369c-0.0529,0.065-0.0117,0.1404-0.0471,0.2089c-0.0383,0.0708-0.1353,0.1033-0.1589,0.181
	c-0.0235,0.0905,0.0559,0.1648,0.0589,0.2542c0.0029,0.1509,0.0265,0.2924,0.0971,0.4271c0.0706,0.1369,0.1854,0.2542,0.3177,0.3632
	c0.0794,0.0627,0.0883,0.159,0.1854,0.2089c2.654,1.3462,5.558,2.3709,8.5503,3.2308c-2.4745-0.0325-4.9519-0.2135-7.4146-0.6382
	c-0.1147-0.0186-0.203,0.0441-0.3178,0.0453c-0.1913,0.0023-0.3707,0.0244-0.5414,0.0778c-0.1795,0.058-0.3325,0.1462-0.4767,0.2576
	c-0.0735,0.0592-0.1913,0.0627-0.253,0.137c-0.053,0.065-0.0118,0.1404-0.0471,0.2089c-0.0382,0.0708-0.1353,0.1033-0.1589,0.1811
	c-0.0236,0.0905,0.0559,0.1648,0.0588,0.2541c0.003,0.1509,0.0265,0.2924,0.0971,0.4271c0.0706,0.1369,0.1854,0.2542,0.3178,0.3633
	c0.0794,0.0627,0.0883,0.159,0.1854,0.2089c7.0792,3.5929,15.6442,5.4868,24.1827,5.4868c3.5396,0,7.0821-0.3249,10.5128-0.991
	c7.8736-1.5249,14.7262-5.6156,19.987-10.2018c-1.5771,3.0788-3.8397,5.7734-7.0998,8.1826
	c-8.3208,6.1482-23.4972,11.0339-33.96,10.7205c-0.712-0.0766-1.477,0.4596-1.5418,1.0862
	c-0.0706,0.6267,0.4943,1.1884,1.2828,1.2789c5.3903,0.6151,11.1896,0.4468,17.0565-0.2716
	c-5.8405,1.7639-11.8457,2.8084-16.7976,2.6599c-0.7121-0.0766-1.477,0.4595-1.5418,1.0862
	c-0.0706,0.6267,0.4943,1.1884,1.2828,1.2789c19.3721,2.2119,43.9992-4.874,58.284-16.3477
	c0.0559,0.1219,0.206,0.1741,0.3001,0.2658c-0.9621,4.9378-3.3984,8.1953-3.4395,8.2371
	c-7.0792,7.6568-14.9233,11.9321-23.3089,12.7026c-0.7356,0.0696-1.3005,0.5501-1.3299,1.1349
	c-0.0294,0.5849,0.4884,1.1002,1.2181,1.2115c2.4774,0.3853,4.8725,0.5617,7.1733,0.5617c0.3001,0,0.5855-0.0279,0.8827-0.0348
	c-2.5863,0.9771-5.2344,1.6317-7.9442,1.88c-0.7356,0.0696-1.3005,0.55-1.3299,1.1349c-0.0294,0.5849,0.4884,1.1001,1.2181,1.2115
	c2.4774,0.3853,4.8724,0.5617,7.1733,0.5617c19.0514-0.0023,31.8092-12.1038,35.5018-19.387
	c15.8619,11.5166,36.4639,18.9959,58.3752,21.0465c0.0589,0.007,0.1177,0.0093,0.1765,0.0093c0.6297,0,1.2063-0.3134,1.4182-0.7915
	c0.2354-0.5222-0.0177-1.1048-0.612-1.4019c-1.6389-0.8193-3.3395-1.8835-5.0666-3.0811c1.3623,0.1706,2.7099,0.3841,4.0839,0.5118
	c0.0589,0.007,0.1177,0.0093,0.1765,0.0093c0.6297,0,1.2063-0.3133,1.4182-0.7914c0.2354-0.5222-0.0177-1.1048-0.612-1.4019
	c-7.138-3.5604-15.244-10.9967-22.847-19.8605c11.5191-10.5163,17.9274-24.5627,18.4629-41.2505
	c0.05-1.5423,0.0383-3.0788-0.0088-4.6083c0-0.0499,0.0088-0.0952,0.0088-0.1451c0.6944-21.643-8.6327-42.6709-13.7405-46.4494
	c-15.5177-11.4795-45.6409-35.8844-48.5421-46.0873c-8.7092-30.639-11.1955-46.7338-11.3131-77.418
	c0.0059-1.2533,0.0059-2.4765,0.0147-3.7808c0.2707-33.5449,19.631-70.9472,50.6429-98.2545
	c8.5444,44.0542,46.4707,85.1735,98.7259,106.1573c0.2295,0.0928,0.4237,0.1648,0.5885,0.2182
	c0.4472,0.2205,0.9003,0.4387,1.3593,0.6545c0.6532,0.3156,1.5065,0.188,1.9713-0.2948c0.4708-0.4804,0.4001-1.1605-0.153-1.5806
	c-0.7473-0.5663-1.0475-0.759-1.7007-0.8866c-0.0353-0.007-0.0765-0.0163-0.1295-0.0302
	c-5.7846-2.835-11.1925-6.0403-16.4033-9.4092c4.7018,2.3465,9.4977,4.5793,14.4673,6.5753
	c0.2295,0.0928,0.4237,0.1648,0.5885,0.2181c0.4472,0.2205,0.9003,0.4387,1.3593,0.6545c0.6532,0.3156,1.5065,0.188,1.9713-0.2948
	c0.4708-0.4804,0.4001-1.1605-0.153-1.5806c-0.7473-0.5663-1.0475-0.7589-1.7007-0.8866c-0.0353-0.007-0.0765-0.0163-0.1295-0.0302
	c-27.943-13.6914-49.4689-33.9893-61.2969-57.2744c41.3099,45.0162,103.3659,78.3499,173.0749,92.6679
	c0.2884,0.1544,0.509,0.3632,0.8033,0.5095c1.48,0.7357,3.1424,1.2777,4.8607,1.7082c-0.3089,1.6328-0.6179,3.2285-0.9151,4.7766
	c-1.7359,9.0193-3.2277,16.8107-3.8073,22.9033c-2.4186,25.454-33.8718,46.96-52.6672,59.8089
	c-5.5786,3.8157-9.9861,6.826-12.5518,9.1562c-0.2119,0.1927-0.3413,0.4317-0.3648,0.6847
	c-0.5149,5.0574-0.6855,10.8412-0.6091,16.8943c-0.206,15.9845,1.7036,34.9456,5.2049,49.1394
	c1.53,6.2039,3.5308,12.7607,7.7736,18.6814c3.8633,5.3974,9.3006,9.3744,15.453,11.7824
	c-3.266,7.0012-9.0329,12.5111-16.318,15.3891c-0.7238,0.2878-1.0298,0.9748-0.6944,1.5551
	c0.2531,0.4363,0.8003,0.6963,1.3711,0.6963c0.1942,0,0.3884-0.0279,0.5708-0.0882c2.398-0.7775,4.8989-1.6572,7.4175-2.6389
	c-2.5421,2.1875-5.458,3.9619-8.6651,5.2291c-0.7238,0.2878-1.0298,0.9748-0.6944,1.5551c0.2531,0.4363,0.8003,0.6963,1.3711,0.6963
	c0.1942,0,0.3884-0.0278,0.5708-0.0882c15.4412-5.0086,35.3164-13.7575,34.825-32.5016
	c13.9289,12.7537,32.8567,22.3485,53.8912,27.1123c0.1412,0.0325,0.2825,0.0464,0.4178,0.0464c0.5826,0,1.1357-0.2692,1.377-0.7102
	c0.3089-0.5431,0.0529-1.179-0.5885-1.4901c-2.4627-1.193-4.7724-2.5705-6.932-4.0779c1.8978,0.5187,3.7926,1.041,5.7257,1.4785
	c0.1412,0.0325,0.2825,0.0464,0.4178,0.0464c0.5826,0,1.1357-0.2692,1.377-0.7102c0.3089-0.5431,0.0529-1.179-0.5885-1.4901
	c-6.0023-2.9059-11.0277-3.1656-15.0087-7.681c10.8365,5.7362,24.7212,11.8754,35.9343,11.8754c0.0235,0,0.0529,0,0.0529,0
	c0.7238,0,1.3358-4.1153,1.4947-4.6584c0.1589-0.564-0.2177-3.0057-0.8945-3.2262c-2.7187-0.8878-5.3609,0.7762-7.9501-0.3123
	c2.5068,0.2391,4.9725,3.197,7.2969,3.197c0.0235,0,0.0529,0,0.0529,0c0.7238,0,1.3358-3.9919,1.4947-4.535
	c0.1589-0.564-0.2177-2.9441-0.8945-3.1646c-18.2599-5.9626-33.6952-17.6039-43.7638-30.5839
	c4.7224,3.8342,9.9597,6.8912,15.4118,9.0567c5.0019,1.9891,11.1337,3.047,17.2772,3.047c6.273,0,12.5577-1.452,17.6597-4.7501
	c0.4767-0.3064,0.665-0.8641,0.4884-1.326C141.5453,463.5152,141.0274,463.1292,140.4154,463.0875z M-110.6127,73.1704
	c0.0235,0.0012,0.0412-0.0012,0.05,0c-0.0118-0.0012-0.0177,0.0058-0.0294,0.0046
	C-110.5921,73.1751-110.6069,73.1716-110.6127,73.1704z M57.1507,357.7112c0,0,0,0.0023,0,0.0046c0-0.0023,0-0.0035,0-0.0035
	c-1,1.1198-2.3715,2.2281-3.5896,3.3097C54.7792,359.9404,56.1507,358.8322,57.1507,357.7112z M56.195,481.7875
	c0,0-0.0059,0-0.0118,0c0.8297,0,1.4947-0.5129,1.5182-1.1582C57.6779,481.2745,57.013,481.7875,56.195,481.7875z"/>
</svg>
