<?xml version="1.0" encoding="utf-8"?>
<!-- Generator: Adobe Illustrator 19.0.0, SVG Export Plug-In . SVG Version: 6.00 Build 0)  -->
<svg version="1.1" id="Layer_1" xmlns="http://www.w3.org/2000/svg" xmlns:xlink="http://www.w3.org/1999/xlink" x="0px" y="0px"
	 viewBox="-211 -86 536 732" style="enable-background:new -211 -86 536 732;" xml:space="preserve">
<style type="text/css">
	.st0{fill:#EF7B05;}
	.st1{fill:#FFFFFF;}
</style>
<g id="XMLID_293_">
	<g id="XMLID_555_">
		<path id="XMLID_558_" class="st0" d="M12.4,546.1c-2.7-8.7-6.8-17.4-10.7-25.8c-6.9-14.8-13.9-30.1-14-45.4
			c0.1-9.7,3-19.7,5.9-29.3c3-10.1,6-20.5,5.9-30.8c0-6.5-1.1-12.9-4.3-19.3c-3.3-6.7-8.9-13.1-14.2-19.2
			c-8.2-9.5-15.9-18.4-16.6-28.3c0-0.3,0-0.7,0-1c0.2-7.5,4.3-15,8.3-22.3c1.3-2.4,2.6-4.7,3.8-7.1c3.1-6.2,4.6-11.8,4.6-16.8
			c0.2-6.2-1.9-11.5-6.3-16.1c0-0.3-0.1-0.7-0.5-1l-18.7-14.1c-5.3-4-10.6-8.1-15.5-12.4c0-0.1-0.1-0.2-0.1-0.3
			c0.3-0.5,0.2-1.1-0.4-1.4c-0.4-0.3-1-0.3-1.5-0.2c-3.4-3.1-6.6-6.3-9.2-9.7c-6.8-8.7-11.2-19.2-13.7-33l0.1-0.1
			c0.1-0.4-0.2-0.8-0.6-1.1c-0.4-0.4-0.9-0.7-1.6-0.6l0,0c-2.6-0.6-4.4-2.9-5.6-5c-4.2-7-7.6-14.4-9.9-21.9c-0.2-0.7-1.2-1.1-2.1-1
			c-0.2,0-0.2,0.1-0.4,0.2c-0.1-0.1-0.2-0.2-0.3-0.2c-0.9-0.3-1.9,0-2.3,0.6c-7.9,12.5-10.5,21.9-10.3,30.2
			c-0.1,8.5,2.8,15.7,5.8,23.5c3.4,8.7,7.2,18.3,7.1,31.4c-0.1,3.2-0.4,6.5-0.9,10.1c-2.5,15.2-8.5,23.6-15.6,33.3
			c-7.8,10.8-16.7,23.1-23.1,47.7c-3.2,12.5-3.4,24.3-3.4,35.7c0,1,0,2.1,0,3.1s0,2,0,3c0,18.8-1.1,36.6-17.4,54.4
			c-10.3,14.9-15.2,31.1-14.9,48c0.1,21.9,9,45.1,26.6,68.4c0.2,0.9,1.9,2.9,8,9.9c0.8,0.9,1.6,1.8,2.4,2.8c0,0.1,0.1,0.1,0.2,0.1
			c0.2,0.2,0.4,0.4,0.7,0.5c0.1,0,0.1,0.2,0.2,0.2l0,0c0.1,0,0.3,0,0.4,0l0,0c0,0,0,0,0.1,0c0.2,0,0.5-0.2,0.7-0.3v-0.1
			c0,0,0,0,0.1,0s0.2-0.1,0.3-0.2c0.2-0.1,0.4-0.3,0.5-0.5l0,0l0,0c0.1-0.1,0.1-0.2,0.1-0.4c0-0.1-0.1-0.3-0.1-0.4
			c0-0.1,0-0.1,0-0.2l0,0l0,0l0,0c0.1-0.1,0.1-0.2,0.1-0.4c0-0.1-0.1-0.3-0.1-0.4c0-0.1,0-0.1,0-0.2c-6.6-10.6-10-23.3-10-37.8
			c0.1-13,2.8-27.5,8.1-43.3c3.1-9.4,7-18.8,10.7-28c6.8-16.7,13.8-33.9,16.8-51.5c1.5-8.4,2-17,2.6-25.3c0.5-7.9,1.1-16,2.3-23.9
			c1.7-10.7,4.9-19.8,9.3-27.7c-2.2,9.8-2.2,19.4-2.3,29.5c0,5.2-0.1,10.6-0.4,16.1c-1.1,17.2-5.3,34.6-9.5,51.3
			c-4,16.2-8.1,32.9-9.4,49.6c-0.3,4.1-0.5,8.2-0.4,12.2c-0.1,27.4,6.9,53.8,14.2,81.6l1.5,5.6c0,0.1,0.1,0.1,0.2,0.2
			c0.1,0.1,0.1,0.2,0.3,0.3c0.2,0.1,0.4,0.2,0.6,0.3c0.1,0,0.1,0.1,0.3,0.1c24.3,4.3,47.4,12.8,66.6,24.5c0.1,0.1,0.3,0.1,0.5,0.1
			c0.2,0.2,0.4,0.3,0.7,0.4c0.2,0,0.3,0.1,0.5,0.1c0.7,0,1.4-0.3,1.7-0.9c7.4-17.3,11.1-35.2,11.1-53.1c0.2-22.8-5.6-45.6-17.3-67
			c-1.5-2.7-3.1-5.5-4.7-8.2c-6-10.3-12.3-20.9-12.9-32.1c0-0.4,0-0.8,0-1.3c0.1-8.5,3.3-17,6.4-25.3c1.8-4.7,3.6-9.6,4.9-14.5
			l0.4-1.5c1.4-5.4,2.7-10.2,2.5-14.9c0-3.3-0.6-6.5-2.1-9.8c7.9,8.4,12,18.7,12.3,31.3c0,1.6,0,3.2-0.1,4.8
			c-0.4,5.7-1.9,11.4-3.3,17c-1.8,7-3.4,14.2-3.4,21.4l0,0c0,0.3,0,0.7,0,1c0.4,12.3,6.8,24,12.9,35.3c2.3,4.2,4.7,8.6,6.7,12.9
			c9.2,19.8,12,40.9,14.7,61.4c0.3,2.4,0.6,5.1,0.6,8.1c-0.1,10.7-2.9,23.9-14.7,31.9c-0.1,0.1-0.1,0.2-0.2,0.4
			c-0.1,0.1-0.2,0.3-0.3,0.4c0,0.2,0.1,0.3,0.1,0.5c0,0.1,0,0.2,0,0.2c-0.1,0.1-0.1,0.2-0.2,0.3c0,0.2,0.1,0.3,0.1,0.5
			c0,0.1,0,0.3,0.1,0.4l0.1,0.1v0.1h0.1c0.3,0.2,0.7,0.4,1.1,0.4c0.3,0,0.7-0.1,1-0.2c28.3-13.6,35.4-33.4,35.3-50.1
			C15.7,558.9,14.2,551.7,12.4,546.1z"/>
		<path id="XMLID_557_" class="st0" d="M297,455.9c-16.3-17.8-17.3-35.6-17.3-54.4c0-1,0-1.9,0-2.9s0-2.1,0-3.1
			c0-11.4-0.1-23.1-3.4-35.6c-6.4-24.6-15.3-36.9-23.1-47.7c-7-9.7-13.1-18.1-15.6-33.3c-0.6-3.6-0.9-6.9-0.9-10.1
			c-0.1-13.1,3.7-22.7,7.1-31.4c3.1-7.7,5.9-14.9,5.8-23.5c0.1-8.3-2.4-17.8-10.3-30.2c-0.4-0.6-1.4-0.9-2.3-0.6
			c-0.1,0-0.2,0.2-0.3,0.2c-0.1-0.1-0.2-0.2-0.4-0.2c-0.9-0.2-1.9,0.3-2.1,1c-2.3,7.5-5.7,14.8-9.9,21.9c-1.2,2-3,4.3-5.6,5l0,0
			c-0.7-0.1-1.2,0.2-1.6,0.6c-0.4,0.3-0.7,0.6-0.6,1.1l0.1,0.1c-2.5,13.7-6.9,24.3-13.7,33c-7,9-17.1,16.6-26.8,24l-18.7,14.1
			c-0.4,0.3-0.5,0.6-0.5,1c-4.4,4.6-6.6,9.9-6.3,16.1c0,5,1.5,10.6,4.6,16.8c1.2,2.4,2.5,4.7,3.8,7.1c4,7.3,8.2,14.8,8.4,22.3
			c0,0.3,0,0.7,0,1c-0.7,9.8-8.4,18.8-16.6,28.2c-5.3,6.2-10.9,12.6-14.2,19.3c-3.3,6.5-4.4,13.2-4.3,19.9c0,5.4,0.8,10.9,2.1,16.3
			c0.8,4.2,1.9,8.3,3.3,12.4c0.1,0.5,0.3,1,0.4,1.5c2.8,9.6,5.7,19.6,5.9,29.3c-0.1,15.3-7.2,30.6-14,45.4
			c-3.9,8.4-7.9,17.1-10.7,25.8c-1.8,5.6-3.3,12.8-3.3,20.6c-0.2,16.7,7,36.5,35.3,50.1c0.3,0.1,0.6,0.2,1,0.2s0.8-0.1,1.1-0.4h0.1
			v-0.1l0.1-0.1c0.1-0.1,0.1-0.3,0.1-0.4c0.1-0.2,0.2-0.3,0.1-0.5c0-0.1-0.1-0.2-0.2-0.3c0-0.1,0-0.2,0-0.2c0.1-0.2,0.2-0.3,0.1-0.5
			c0-0.2-0.2-0.3-0.3-0.4c-0.1-0.1-0.1-0.3-0.2-0.4c-11.8-8-14.7-21.2-14.7-31.9c0-3,0.3-5.8,0.6-8.1c2.7-20.5,5.5-41.7,14.7-61.4
			c2-4.3,4.4-8.7,6.7-12.9c6.1-11.3,12.3-22.9,12.8-35.2c0-0.3-0.2-0.7-0.2-1l0,0c1-7.3-1.4-14.5-3.2-21.4c-1.4-5.6-2.8-11.3-3.2-17
			c-0.1-1.6-0.1-3.3-0.1-4.8c0.3-12.5,4.4-22.9,12.3-31.3c-1.6,3.3-2.2,6.6-2.1,9.8c-0.1,4.7,1.1,9.5,2.5,14.9l0.4,1.5
			c1.3,4.9,3.1,9.8,4.9,14.5c3.1,8.2,6.3,16.7,6.4,25.3c0,0.4,0,0.8,0,1.3c-0.6,11.1-6.8,21.8-12.8,32.1c-1.6,2.7-3.2,5.5-4.7,8.2
			c-11.7,21.4-17.5,44.2-17.3,67c0,17.9,3.7,35.8,11.1,53.1c0.2,0.5,0.9,0.9,1.7,0.9c0.2,0,0.3,0,0.5-0.1c0.3-0.1,0.5-0.2,0.7-0.4
			c0.2,0,0.4,0,0.5-0.1c19.2-11.7,42.2-20.1,66.6-24.5c0.1,0,0.2-0.1,0.3-0.1c0.2-0.1,0.4-0.2,0.6-0.3c0.1-0.1,0.2-0.2,0.3-0.3
			c0-0.1,0.2-0.1,0.2-0.2l1.5-5.6c7.3-27.8,14.3-54.2,14.2-81.6c0-4.1-0.1-8.1-0.4-12.2c-1.3-16.7-5.4-33.4-9.4-49.6
			c-4.1-16.8-8.4-34.1-9.5-51.3c-0.3-5.5-0.4-10.9-0.4-16c-0.1-10-0.1-19.7-2.3-29.5c4.4,7.9,7.6,17.1,9.3,27.7
			c1.3,7.9,1.8,16.1,2.3,23.9c0.5,8.3,1.1,16.9,2.6,25.3c3,17.6,10.1,34.8,16.8,51.5c3.7,9.1,7.6,18.6,10.7,28
			c5.3,15.9,8,30.4,8.1,43.4c0,14.5-3.4,27.2-10,37.8c0,0.1,0,0.1,0,0.2c-0.1,0.1-0.2,0.3-0.1,0.4c0,0.1,0,0.3,0.1,0.4l0,0l0,0l0,0
			c0,0.1,0,0.1,0,0.2c-0.1,0.1-0.2,0.3-0.1,0.4c0,0.1,0,0.3,0.1,0.4l0,0l0,0c0.1,0.2,0.3,0.4,0.5,0.5c0.1,0.1,0.2,0.1,0.3,0.1
			c0,0,0,0,0.1,0l0,0c0.2,0.1,0.5,0.3,0.7,0.3c0.1,0,0.3,0.1,0.4,0.1l0,0c0.1,0,0.1-0.2,0.2-0.2c0.3-0.1,0.5-0.3,0.7-0.4
			c0.1,0,0.2-0.1,0.2-0.1c0.8-0.9,1.6-1.9,2.4-2.8c6.1-7,7.8-9,8-9.9c17.6-23.3,26.5-46.4,26.6-68.4
			C312.3,487.2,307.3,470.9,297,455.9z"/>
		<path id="XMLID_556_" class="st0" d="M222.1,114.7c1.2,7.1,1.8,14.2,1.8,21.4c0,2.3-0.1,4.5-0.2,6.8c0,0.3-0.1,0.6-0.2,0.9
			c0,0.2,0,0.4,0.1,0.5c0,0.2-0.1,0.3-0.1,0.5c-0.1,0.7,0.6,1.3,1.6,1.4c0.1,0,0.1,0,0.2,0l0,0l0,0h0.1c0.9,0,1.7-0.5,1.7-1.2
			c0-0.3,0-0.6,0-0.9c0.2-1.5,0.5-3,1.3-4.4c1-1.6,2.7-2.8,4.6-3.1c2.1-0.3,4.6,0.4,6.2,2c0.6,0.6,1.7,0.7,2.5,0.2
			c0.1-0.1,0.1-0.1,0.2-0.2c0.4-0.1,0.8-0.3,1-0.6c10.2-16.8,15.2-34.2,15-51.4c0.1-22.2-8.3-44.3-25.1-64.8
			c-25.5-31.2-67.7-54.9-115.6-66.1c-0.1,0-0.1,0-0.2-0.1h-0.1C102.6-47.7,87.8-50,72.7-51c-0.3-0.3-0.7-0.6-1.4-0.6
			c-11.3,0.2-22.5,1.2-33.5,2.7L37.7-49c-0.6-0.2-1.3,0-1.7,0.3c-52.5,7.5-100.2,29-129.6,59.3C-115.3,33-126.4,59.5-126.4,86
			c-0.1,12,2.1,24,6.6,35.6c0,0.1-0.1,0.3-0.1,0.4c0,0.2,0,0.3,0.1,0.5c0,0.2-0.1,0.4-0.1,0.5c-0.1,0.6,0.5,1.1,1.2,1.2
			c2,4.6,4.2,9.2,6.9,13.7c0.2,0.3,0.6,0.5,1,0.6c0.1,0.1,0.1,0.2,0.2,0.2c0.8,0.4,1.9,0.3,2.5-0.2c1.6-1.5,4.1-2.3,6.2-2
			c1.9,0.3,3.6,1.5,4.6,3.1c0.8,1.3,1.1,2.9,1.3,4.4c0,0.3,0,0.6,0,0.9c0,0.7,0.8,1.2,1.7,1.2h0.1l0,0l0,0c0.1,0,0.1,0,0.2,0
			c1-0.1,1.7-0.7,1.6-1.4c0-0.2-0.1-0.3-0.1-0.5c0.1-0.2,0.1-0.3,0.1-0.5c0-0.3-0.1-0.6-0.2-0.9c-0.2-2.9-0.2-5.9-0.2-8.8
			c0.2-9.7,1.4-19.4,3.7-28.9c0,4.5,0.2,9,0.7,13.5c0,0.1,0.1,0.2,0.2,0.3c0,0.1,0,0.2,0.1,0.3s0.2,0.1,0.2,0.2
			c0.1,0.1,0.1,0.1,0.2,0.2c0.3,0.2,0.7,0.3,1,0.3h0.1c0.1,0,0.1,0,0.1,0c0.2,0,0.4,0,0.6-0.1c85.2-36,214.4-38,307.3-4.9
			C221.9,114.7,222,114.6,222.1,114.7z"/>
	</g>
	<g id="XMLID_552_">
		<path id="XMLID_282_" class="st1" d="M-22.8,120.9c0,0-0.1-0.4-0.3-1.1c-0.2-0.7-0.5-1.7-0.8-3c-0.1-0.6-0.3-1.4-0.5-2.1
			c-0.2-0.8-0.3-1.7-0.4-2.6c-0.1-0.9-0.3-1.9-0.5-3c-0.1-1-0.2-2.1-0.3-3.3c-0.1-1.1-0.2-2.3-0.2-3.6c0-1.2,0-2.5,0-3.8
			s0-2.7,0.1-4.1c0.1-1.4,0.2-2.8,0.3-4.2c0.3-2.9,0.7-5.8,1.3-8.8c0.5-3,1.4-6,2.1-9c1-2.9,1.8-5.9,3-8.7c1.1-2.8,2.4-5.5,3.7-8.1
			c0.7-1.3,1.4-2.5,2.1-3.7c0.7-1.2,1.3-2.4,2.1-3.5c0.7-1.1,1.4-2.2,2.1-3.2c0.7-1,1.4-2,2.1-2.9c0.7-0.9,1.4-1.8,2-2.6
			c0.7-0.8,1.4-1.5,2-2.2s1.2-1.3,1.8-1.9S0,34.4,0.5,34c1-0.9,1.7-1.6,2.3-2.1c0.5-0.5,0.8-0.7,0.8-0.7s-0.2,0.3-0.5,1
			c-0.3,0.6-0.8,1.6-1.5,2.7c-0.3,0.6-0.7,1.2-1.1,1.9c-0.3,0.7-0.8,1.5-1.2,2.3s-0.9,1.7-1.4,2.5c-0.4,0.9-0.9,1.9-1.4,2.9
			s-1,2-1.5,3.1s-1,2.2-1.5,3.4c-0.3,0.6-0.5,1.1-0.8,1.7c-0.2,0.6-0.5,1.2-0.8,1.8c-0.5,1.2-1.1,2.4-1.6,3.7s-1,2.6-1.5,3.9
			c-0.5,1.3-1,2.7-1.4,4c-1,2.7-1.8,5.5-2.7,8.3c-0.8,2.8-1.6,5.6-2.2,8.4c-0.3,1.4-0.7,2.8-1,4.2s-0.5,2.7-0.8,4.1
			c-0.3,1.3-0.4,2.7-0.7,4c-0.1,0.7-0.2,1.3-0.3,1.9c-0.1,0.6-0.2,1.3-0.3,1.9c-0.2,1.3-0.4,2.5-0.5,3.7c-0.2,1.2-0.2,2.3-0.4,3.4
			c-0.1,1.1-0.2,2.2-0.4,3.2c-0.1,1-0.2,2-0.2,2.9c-0.1,0.9-0.1,1.8-0.2,2.5c-0.1,0.8-0.1,1.5-0.1,2.2c-0.1,1.3-0.2,2.4-0.2,3.1
			C-22.7,120.6-22.8,120.9-22.8,120.9z"/>
	</g>
	<g id="XMLID_549_">
		<path id="XMLID_280_" class="st1" d="M162.8,115.5c0,0-0.2-0.3-0.5-1c-0.3-0.6-0.9-1.5-1.5-2.7c-1.2-2.3-2.9-5.7-4.8-9.8
			s-3.9-8.9-6-14.2c-1-2.6-2.1-5.3-3.1-8.1s-2-5.6-3-8.4c-1-2.8-1.9-5.7-2.8-8.5s-1.7-5.6-2.5-8.3c-1.6-5.4-2.9-10.5-4-14.9
			c-1-4.4-1.8-8.1-2.3-10.7c-0.3-1.3-0.4-2.3-0.5-3s-0.2-1.1-0.2-1.1s0.2,0.3,0.5,1c0.3,0.6,0.9,1.5,1.5,2.7
			c1.2,2.3,2.9,5.7,4.8,9.8s3.9,8.9,6,14.2c1,2.6,2.1,5.3,3.1,8.1s2,5.6,3,8.4c1,2.8,1.9,5.7,2.8,8.5s1.7,5.6,2.5,8.3
			c1.6,5.4,2.9,10.5,4,14.9c1,4.4,1.8,8.1,2.3,10.7c0.3,1.3,0.4,2.3,0.5,3C162.7,115.1,162.8,115.5,162.8,115.5z"/>
	</g>
	<g id="XMLID_546_">
		<path id="XMLID_278_" class="st1" d="M55.6,114.6c0,0-0.2-0.3-0.4-0.9c-0.3-0.6-0.7-1.4-1.2-2.5c-0.2-0.5-0.5-1.1-0.8-1.8
			s-0.5-1.4-0.8-2.2s-0.5-1.7-0.8-2.5c-0.3-0.9-0.5-1.9-0.7-2.9s-0.5-2-0.7-3.1s-0.4-2.2-0.5-3.4c-0.2-1.2-0.3-2.4-0.4-3.6
			c-0.1-1.2-0.2-2.5-0.3-3.8c0-2.6-0.1-5.3,0.2-8c0.1-2.7,0.6-5.5,1-8.2c0.6-2.7,1.1-5.4,2-8c0.7-2.6,1.7-5.1,2.7-7.5
			c0.5-1.2,1.1-2.3,1.6-3.5c0.5-1.1,1.1-2.2,1.7-3.2s1.2-2,1.7-3c0.6-0.9,1.2-1.8,1.8-2.7c0.6-0.8,1.1-1.7,1.7-2.4
			c0.6-0.7,1.2-1.4,1.7-2.1c0.5-0.6,1-1.2,1.5-1.8c0.5-0.5,1-1,1.4-1.4c0.8-0.9,1.5-1.5,2-1.9s0.7-0.7,0.7-0.7s-0.1,0.3-0.4,0.9
			s-0.6,1.4-1.2,2.5c-0.3,0.5-0.6,1.1-0.8,1.7c-0.3,0.7-0.6,1.3-0.9,2.1c-0.3,0.7-0.7,1.5-1.1,2.3c-0.3,0.8-0.7,1.7-1.1,2.6
			c-0.4,0.9-0.8,1.8-1.2,2.8c-0.4,1-0.7,2-1.1,3.1c-0.2,0.5-0.4,1-0.6,1.6c-0.2,0.5-0.4,1.1-0.5,1.7c-0.3,1.1-0.8,2.2-1.1,3.4
			c-0.3,1.2-0.7,2.4-1,3.5c-0.4,1.2-0.6,2.4-0.9,3.7c-0.7,2.4-1.1,5-1.7,7.5c-0.4,2.5-0.9,5.1-1.1,7.6c-0.1,1.3-0.4,2.5-0.4,3.7
			c-0.1,1.2-0.2,2.5-0.3,3.7c-0.1,1.2-0.1,2.4-0.2,3.6c0,0.6-0.1,1.2-0.1,1.7c0,0.6,0,1.1,0,1.7c0,1.1,0,2.2,0,3.3s0.1,2.1,0.1,3.1
			s0,1.9,0.1,2.8c0.1,0.9,0.1,1.7,0.2,2.5c0,0.8,0.1,1.6,0.1,2.3s0.1,1.4,0.2,2c0.1,1.2,0.2,2.1,0.2,2.8
			C55.6,114.2,55.6,114.6,55.6,114.6z"/>
	</g>
	<g id="XMLID_543_">
		<path id="XMLID_276_" class="st1" d="M98.3,111.8c0,0-0.1-0.2-0.3-0.6c-0.2-0.4-0.5-1-0.8-1.8c-0.6-1.6-1.5-3.9-2.2-6.6
			c-0.8-2.8-1.5-6-2.1-9.6c-0.3-1.8-0.6-3.6-0.7-5.5c-0.2-1.9-0.3-3.8-0.5-5.7c-0.1-1.9-0.2-3.8-0.1-5.7c0-1.9,0.1-3.7,0.2-5.5
			s0.3-3.5,0.4-5.1c0.2-1.6,0.4-3.2,0.7-4.6c0.5-2.8,1.1-5.2,1.5-6.8c0.2-0.8,0.4-1.5,0.6-1.9s0.2-0.7,0.2-0.7s0.1,0.2,0.2,0.7
			c0.1,0.4,0.3,1.1,0.4,1.9c0.1,0.8,0.4,1.8,0.5,3c0.2,1.1,0.4,2.4,0.6,3.9c0.2,1.4,0.4,2.9,0.6,4.5s0.4,3.3,0.5,5
			c0.2,1.7,0.3,3.5,0.4,5.4c0.1,1.8,0.2,3.7,0.3,5.5c0.1,1.9,0.2,3.7,0.2,5.6C99,89,99,90.8,99,92.6c0,1.8,0,3.5,0,5.1
			s0,3.1-0.1,4.6c-0.1,1.4-0.1,2.7-0.2,3.9s-0.2,2.2-0.2,3c-0.1,0.8-0.2,1.5-0.2,2C98.4,111.6,98.3,111.8,98.3,111.8z"/>
	</g>
	<g id="XMLID_540_">
		<path id="XMLID_274_" class="st1" d="M19.2,104.7c0,0-0.1-0.1-0.2-0.2c-0.1-0.1-0.4-0.3-0.6-0.5c-0.5-0.4-1.1-1.1-1.6-1.9
			c-0.5-0.8-1-1.8-1.3-2.9c-0.3-1.1-0.4-2.3-0.3-3.5c0.1-1.2,0.4-2.4,0.8-3.4c0.5-1.1,1-2,1.7-2.7c0.6-0.7,1.3-1.3,1.8-1.6
			c0.2-0.2,0.5-0.3,0.6-0.4c0.2-0.1,0.3-0.1,0.3-0.1s0,0.1,0.1,0.2c0.1,0.2,0.2,0.4,0.3,0.7s0.3,0.6,0.4,1c0.1,0.4,0.3,0.8,0.4,1.2
			c0.2,0.9,0.4,1.8,0.5,2.7c0.1,1,0.1,1.9,0,2.9s-0.2,1.9-0.5,2.9c-0.2,0.9-0.6,1.8-0.9,2.6c-0.2,0.4-0.4,0.8-0.5,1.1
			c-0.2,0.4-0.4,0.7-0.5,0.9c-0.1,0.3-0.3,0.5-0.4,0.6C19.2,104.6,19.2,104.7,19.2,104.7z"/>
	</g>
	<g id="XMLID_533_">
		<path id="XMLID_272_" class="st1" d="M36.9,105.7c0,0-0.1-0.1-0.2-0.2c-0.1-0.2-0.3-0.4-0.5-0.7c-0.4-0.6-0.8-1.4-1.2-2.4
			s-0.7-2.2-0.9-3.4s-0.3-2.6-0.2-3.9c0.1-1.3,0.3-2.6,0.6-3.8s0.8-2.3,1.2-3.3c0.5-1,1-1.8,1.4-2.3c0.2-0.3,0.4-0.5,0.5-0.6
			s0.2-0.2,0.2-0.2s0.1,0.1,0.2,0.2c0.1,0.2,0.3,0.4,0.5,0.7c0.4,0.6,0.8,1.4,1.2,2.4s0.7,2.2,0.9,3.4s0.3,2.6,0.2,3.9
			c-0.1,1.3-0.3,2.6-0.6,3.8s-0.8,2.3-1.2,3.3c-0.5,1-1,1.8-1.4,2.3c-0.2,0.3-0.4,0.5-0.5,0.6C36.9,105.6,36.9,105.7,36.9,105.7z"/>
	</g>
	<g id="XMLID_530_">
		<path id="XMLID_270_" class="st1" d="M96.7,104.9c0,0-0.1,0-0.3-0.1c-0.2-0.1-0.4-0.1-0.7-0.2c-0.3-0.1-0.6-0.2-1-0.5
			c-0.4-0.2-0.7-0.5-1.1-0.8c-0.8-0.6-1.5-1.4-2.1-2.4s-1-2.1-1.3-3.2c-0.2-1.2-0.3-2.4-0.1-3.5c0.2-1.1,0.5-2.2,0.9-3
			s1-1.5,1.4-1.9c0.2-0.2,0.4-0.4,0.5-0.5s0.2-0.2,0.2-0.2s0.1,0.1,0.2,0.2c0.1,0.1,0.3,0.3,0.4,0.6c0.2,0.2,0.4,0.5,0.6,0.8
			s0.4,0.7,0.7,1c0.2,0.4,0.4,0.8,0.6,1.2s0.4,0.8,0.6,1.2c0.3,0.8,0.6,1.7,0.8,2.6c0.2,0.9,0.3,1.8,0.3,2.7s0,1.8-0.1,2.7
			c-0.1,0.4-0.1,0.8-0.2,1.2s-0.1,0.7-0.2,1c0,0.3-0.1,0.5-0.2,0.7C96.7,104.9,96.7,104.9,96.7,104.9z"/>
	</g>
	<g id="XMLID_392_">
		<path id="XMLID_268_" class="st1" d="M146,106.7c0,0-0.7-0.5-1.8-1.4c-1.1-0.9-2.6-2.3-4.2-4c-0.8-0.9-1.6-1.9-2.5-3
			s-1.7-2.3-2.5-3.5c-0.8-1.3-1.6-2.6-2.4-4s-1.4-2.8-2.1-4.2c-0.6-1.5-1.3-2.9-1.8-4.4c-0.6-1.5-1-3-1.4-4.4s-0.7-2.9-0.9-4.2
			c-0.2-1.4-0.4-2.6-0.6-3.8c-0.1-1.2-0.2-2.3-0.2-3.3s0-1.8,0-2.5c0.1-1.4,0.2-2.2,0.2-2.2s0.5,0.7,1.2,1.9
			c0.3,0.6,0.8,1.3,1.2,2.2c0.4,0.8,0.9,1.8,1.5,2.8c0.5,1,1.1,2.2,1.7,3.3c0.6,1.2,1.2,2.4,1.8,3.7c0.6,1.3,1.2,2.6,1.8,4
			c0.6,1.4,1.2,2.7,1.8,4.1c0.6,1.4,1.2,2.8,1.8,4.1c0.6,1.4,1.2,2.7,1.7,4c0.6,1.3,1.1,2.6,1.6,3.8s1,2.4,1.4,3.5s0.8,2.1,1.1,3
			c0.3,0.9,0.6,1.7,0.8,2.4C145.8,105.9,146,106.7,146,106.7z"/>
	</g>
	<g id="XMLID_389_">
		<path id="XMLID_266_" class="st1" d="M-34.4,118.8c0,0-0.1-0.2-0.3-0.7c-0.1-0.4-0.4-1.1-0.6-1.9c-0.1-0.4-0.3-0.9-0.4-1.4
			c-0.1-0.5-0.2-1.1-0.4-1.7c-0.1-0.6-0.2-1.2-0.4-1.9c-0.1-0.7-0.2-1.4-0.2-2.1c-0.1-0.7-0.1-1.5-0.2-2.3c0-0.8,0-1.6,0-2.5
			s0.1-1.7,0.1-2.6c0.1-0.9,0.2-1.8,0.3-2.8c0.3-1.9,0.6-3.8,1.2-5.7c0.4-1.9,1.2-3.8,1.8-5.7c0.8-1.8,1.6-3.7,2.6-5.4
			c0.9-1.8,2-3.4,3.1-4.9c0.6-0.8,1.1-1.5,1.7-2.2c0.6-0.7,1.1-1.4,1.7-2c0.6-0.6,1.2-1.2,1.7-1.8c0.6-0.6,1.2-1.1,1.7-1.6
			c0.6-0.5,1.1-1,1.6-1.4c0.6-0.4,1.1-0.8,1.6-1.1s1-0.7,1.4-1s0.9-0.5,1.3-0.7c0.7-0.4,1.4-0.7,1.8-0.9c0.4-0.2,0.6-0.3,0.6-0.3
			s-0.1,0.2-0.4,0.6c-0.3,0.4-0.6,1-1.1,1.7s-1,1.6-1.7,2.5c-0.3,0.5-0.7,1-1,1.5c-0.3,0.6-0.7,1.1-1.1,1.7
			c-0.4,0.6-0.8,1.2-1.1,1.9c-0.4,0.7-0.8,1.3-1.2,2s-0.8,1.4-1.2,2.1c-0.4,0.7-0.8,1.5-1.2,2.2c-0.4,0.8-0.8,1.5-1.2,2.3
			s-0.7,1.6-1.1,2.4c-0.8,1.6-1.4,3.3-2.1,5c-0.6,1.7-1.3,3.4-1.9,5.1c-0.3,0.9-0.6,1.7-0.8,2.5s-0.5,1.7-0.8,2.5
			c-0.2,0.8-0.4,1.6-0.7,2.4c-0.2,0.8-0.4,1.6-0.6,2.4c-0.2,0.8-0.4,1.5-0.5,2.3c-0.2,0.7-0.3,1.4-0.4,2.1c-0.1,0.7-0.3,1.4-0.4,2
			c-0.1,0.6-0.2,1.2-0.3,1.8c-0.2,1.1-0.4,2.1-0.5,3c-0.1,0.8-0.3,1.5-0.3,2C-34.4,118.5-34.4,118.8-34.4,118.8z"/>
	</g>
	<g id="XMLID_386_">
		<path id="XMLID_264_" class="st1" d="M90.2-52.3c0,0-0.9,0.6-2.6,1.5c-0.4,0.2-0.9,0.5-1.4,0.8s-1,0.6-1.5,1s-1.1,0.7-1.7,1.1
			c-0.6,0.4-1.2,0.9-1.9,1.3c-0.6,0.5-1.3,0.9-2,1.5c-0.7,0.5-1.4,1.1-2.1,1.7c-0.7,0.6-1.4,1.2-2.1,1.8c-0.7,0.7-1.4,1.3-2.2,2
			c-1.4,1.4-2.8,2.9-4.2,4.4c-1.4,1.5-2.7,3.2-4,4.9c-1.2,1.7-2.5,3.4-3.5,5.2c-1.1,1.7-2.1,3.6-3,5.3c-0.5,0.9-0.8,1.8-1.3,2.6
			c-0.4,0.9-0.8,1.7-1.2,2.5c-0.3,0.8-0.7,1.7-1,2.5s-0.6,1.6-0.8,2.3c-0.3,0.8-0.5,1.5-0.8,2.2c-0.2,0.7-0.4,1.4-0.6,2
			s-0.4,1.2-0.5,1.8c-0.2,0.5-0.3,1.1-0.4,1.5c-0.4,1.8-0.7,2.9-0.7,2.9s0-1.1,0.1-3c0-0.5,0-1,0.1-1.6s0.2-1.2,0.2-1.8
			c0.1-0.7,0.2-1.4,0.3-2.1c0.1-0.7,0.3-1.5,0.5-2.3s0.3-1.6,0.6-2.5c0.3-0.8,0.5-1.7,0.8-2.6s0.6-1.8,1-2.7
			c0.4-0.9,0.7-1.9,1.2-2.8c0.9-1.8,1.8-3.8,2.9-5.6c1.1-1.9,2.4-3.7,3.6-5.5c1.4-1.7,2.7-3.5,4.2-5c1.4-1.6,3-3,4.5-4.4
			c0.8-0.7,1.6-1.3,2.4-1.9c0.8-0.6,1.5-1.2,2.3-1.7s1.5-1,2.3-1.5c0.7-0.5,1.5-0.9,2.2-1.3c0.7-0.4,1.4-0.8,2.1-1.1
			s1.3-0.6,1.9-0.9c0.6-0.3,1.2-0.5,1.7-0.8c0.5-0.2,1-0.4,1.5-0.5C89.1-51.9,90.2-52.3,90.2-52.3z"/>
	</g>
	<g id="XMLID_383_">
		<path id="XMLID_262_" class="st1" d="M-71.5,184.1c0,0-0.6,0.8-1.9,2.4c-1.2,1.6-2.8,3.9-4.6,7.1c-1.7,3.2-3.5,7.2-4.9,12.1
			c-1.4,4.8-2.5,10.5-3,16.6c-0.5,6.2-0.3,12.9,0.5,20l0.2,1.3v0.3v0.3l0.1,0.7c0.1,0.9,0.3,1.8,0.4,2.7c0.3,1.8,0.6,3.6,1,5.4
			c0.7,3.7,1.6,7.4,2.5,11.2c1.9,7.6,4.3,15.3,6.6,23.2c2.3,7.9,4.6,16,6.3,24.3c0.2,1,0.5,2,0.7,3.1l0.6,3.1
			c0.4,2.1,0.8,4.2,1.1,6.2c0.6,4.2,1.2,8.3,1.6,12.4c0.5,4.1,0.7,8.2,1,12.3c0.1,2,0.1,4.1,0.2,6.1c0,1,0.1,2,0.1,3s0,2,0,3
			c0,2,0,3.9,0,5.9c0,1.9-0.1,3.9-0.2,5.8c-0.1,3.8-0.5,7.5-0.7,11.1c-0.1,1.8-0.4,3.6-0.6,5.3c-0.2,1.7-0.4,3.5-0.6,5.1
			c-0.3,1.7-0.5,3.3-0.8,5c-0.2,1.6-0.5,3.2-0.8,4.8c-1.1,6.2-2.4,11.8-3.7,16.8c-0.7,2.5-1.3,4.8-1.9,6.9c-0.7,2.1-1.2,4.1-1.8,5.8
			c-0.3,0.9-0.5,1.7-0.8,2.5s-0.5,1.5-0.8,2.2c-0.5,1.3-0.9,2.5-1.2,3.4c-0.7,1.8-1,2.8-1,2.8s0.3-1,0.8-2.9s1.4-4.6,2.2-8.2
			c0.4-1.8,0.9-3.7,1.5-5.9c0.5-2.2,1-4.5,1.5-7c1-5,2-10.6,2.8-16.8c0.3-1.5,0.4-3.1,0.6-4.7c0.2-1.6,0.4-3.3,0.6-4.9
			c0.3-3.4,0.6-6.8,0.9-10.4c0.1-3.6,0.4-7.2,0.4-11c0-1.9,0.1-3.8,0.1-5.7c0-1.9-0.1-3.8-0.1-5.8c0-1,0-2-0.1-2.9c0-1-0.1-2-0.1-3
			c-0.1-2-0.2-4-0.3-6c-0.4-4-0.6-8-1.1-12.1c-0.4-4.1-1.1-8.1-1.7-12.2c-0.3-2-0.7-4.1-1.1-6.1l-0.6-3c-0.2-1-0.5-2-0.7-3.1
			c-1.7-8.2-3.9-16.1-6.2-24.1c-2.3-7.9-4.4-15.7-6.3-23.4c-0.9-3.8-1.7-7.6-2.4-11.4c-0.3-1.9-0.6-3.8-0.9-5.6
			c-0.1-0.9-0.2-1.8-0.3-2.7l-0.1-0.7v-0.4v-0.3l-0.1-1.4c-0.4-3.6-0.5-7.2-0.5-10.6c0.1-3.4,0.2-6.7,0.6-9.9
			c0.7-6.3,2.1-12,3.8-16.9c1.7-4.9,3.8-8.9,5.7-12c1-1.5,1.9-2.9,2.8-4c0.9-1.1,1.6-2.1,2.3-2.8C-72.2,184.8-71.5,184.1-71.5,184.1
			z"/>
	</g>
	<g id="XMLID_380_">
		<path id="XMLID_260_" class="st1" d="M199.3,494.9c0,0,0.7-0.8,2-2.2c0.6-0.7,1.5-1.6,2.3-2.7c0.4-0.6,0.8-1.2,1.3-1.8
			c0.2-0.3,0.5-0.6,0.7-1c0.2-0.3,0.4-0.7,0.7-1.1c0.9-1.5,2-3.2,2.9-5.1c0.4-1,1-1.9,1.4-3s0.8-2.2,1.3-3.3
			c1.6-4.7,2.9-10.1,3.6-16.1s0.7-12.6,0.2-19.5s-1.7-14.2-3.4-21.6c-0.9-3.8-1.8-7.5-2.8-11.3s-2-7.7-3.1-11.6
			c-2.1-7.8-4.1-15.8-5.7-23.9c-1.5-8.1-2.5-16.4-2.4-24.7c0.1-4.1,0.4-8.2,1-12.2s1.5-7.9,2.5-11.6c2-7.5,4.6-14.5,6.9-21.1
			c1.2-3.3,2.2-6.5,3.2-9.7c0.2-0.8,0.5-1.6,0.7-2.3c0.2-0.8,0.4-1.6,0.7-2.3c0.4-1.5,0.8-3,1.1-4.5c1.4-5.9,2.2-11.4,2.4-16.4
			c0.2-4.9-0.2-9.2-0.9-12.7c-0.6-3.5-1.6-6.2-2.2-8c-0.7-1.8-1.1-2.7-1.1-2.7s0.5,0.9,1.3,2.6c0.7,1.8,1.9,4.4,2.8,7.9
			s1.5,7.9,1.6,12.9c0,5-0.4,10.8-1.6,16.8c-1.2,6.1-3,12.5-5.1,19.3c-2.1,6.7-4.4,13.7-6.3,21.1c-0.9,3.7-1.7,7.4-2.3,11.2
			c-0.5,3.9-0.8,7.7-0.8,11.7c-0.1,7.9,0.9,15.9,2.4,23.9s3.5,15.9,5.5,23.7c1,3.9,2,7.8,3,11.6c1,3.8,1.8,7.7,2.6,11.4
			c1.6,7.6,2.6,15.1,2.9,22.2s0,13.9-0.9,20c-0.9,6.2-2.5,11.7-4.4,16.3c-0.5,1.2-1,2.3-1.5,3.3c-0.5,1.1-1.1,2-1.6,3
			c-1,2-2.2,3.5-3.2,5.1c-0.3,0.4-0.5,0.7-0.8,1.1c-0.3,0.3-0.5,0.6-0.8,1c-0.5,0.6-1,1.2-1.5,1.7c-0.9,1.1-1.8,1.9-2.5,2.5
			C200,494.1,199.3,494.9,199.3,494.9z"/>
	</g>
	<g id="XMLID_377_">
		<path id="XMLID_258_" class="st1" d="M-86.4,626.6c0,0-0.5-1.6-1.2-4.4c-0.4-1.4-0.8-3.1-1.3-5.1c-0.2-1-0.5-2-0.7-3.1
			c-0.3-1.1-0.5-2.3-0.7-3.5c-0.3-1.2-0.5-2.5-0.8-3.8c-0.2-1.3-0.5-2.7-0.7-4.1c-0.5-2.8-1-5.8-1.4-8.8c-0.4-3.1-0.9-6.3-1.2-9.5
			c-0.4-3.2-0.6-6.5-0.9-9.9c-0.2-3.3-0.4-6.6-0.5-9.9c-0.2-3.3-0.1-6.5-0.2-9.6c0-3.1,0.1-6.1,0.2-9c0.1-1.4,0.1-2.8,0.2-4.1
			s0.2-2.6,0.3-3.9c0.1-1.2,0.2-2.4,0.3-3.6c0.1-1.1,0.2-2.2,0.3-3.2c0.2-2,0.4-3.8,0.6-5.2c0.4-2.9,0.6-4.5,0.6-4.5s0,1.7,0,4.5
			c0,1.4,0,3.2,0,5.2s0,4.3,0,6.7c0,2.5,0.1,5.1,0.1,8c0,2.8,0.2,5.8,0.2,8.9c0.1,3.1,0.3,6.3,0.4,9.5s0.4,6.5,0.6,9.8
			s0.5,6.6,0.8,9.8s0.6,6.4,0.9,9.5c0.4,3.1,0.6,6,1,8.8s0.7,5.5,1,7.9c0.3,2.5,0.6,4.7,0.9,6.7s0.5,3.7,0.7,5.2
			C-86.6,625-86.4,626.6-86.4,626.6z"/>
	</g>
	<g id="XMLID_371_">
		<path id="XMLID_256_" class="st1" d="M-58.8,633.6c0,0,0.5-1.4,1.4-3.9s2.3-6.1,3.9-10.3c0.8-2.1,1.6-4.5,2.5-6.9
			c0.9-2.5,1.8-5.1,2.7-7.7c0.9-2.7,1.7-5.5,2.6-8.3c0.8-2.9,1.6-5.8,2.2-8.7c0.7-3,1.3-5.9,1.7-8.8c0.4-2.9,0.8-5.8,1.1-8.6
			c0.2-2.8,0.4-5.5,0.4-8.1s-0.1-5-0.2-7.3c-0.1-1.1-0.2-2.2-0.3-3.2s-0.2-2-0.3-2.9c-0.3-1.8-0.5-3.4-0.8-4.7
			c-0.2-1.3-0.5-2.3-0.6-3c-0.2-0.7-0.2-1.1-0.2-1.1s0.1,0.4,0.4,1c0.2,0.7,0.7,1.6,1.1,2.9c0.2,0.6,0.4,1.3,0.7,2.1
			c0.2,0.8,0.4,1.6,0.7,2.5c0.2,0.9,0.4,1.9,0.7,2.9c0.2,1,0.4,2.1,0.6,3.3c0.3,2.3,0.6,4.8,0.7,7.4c0.2,2.6,0.2,5.4,0,8.3
			c-0.1,2.9-0.4,5.9-0.8,8.9c-0.4,3-1,6.1-1.7,9c-0.7,3-1.5,6-2.4,8.9s-1.9,5.7-2.9,8.4c-2,5.4-4.1,10.3-6.1,14.4
			c-1.9,4.2-3.7,7.6-4.9,9.9C-58.1,632.3-58.8,633.6-58.8,633.6z"/>
	</g>
	<g id="XMLID_367_">
		<path id="XMLID_254_" class="st1" d="M-73.6,618.8c0,0,0-0.6,0-1.6s0.1-2.5,0.3-4.2s0.4-3.7,0.8-5.9c0.3-2.1,0.8-4.4,1.2-6.7
			c0.5-2.3,1-4.5,1.6-6.6s1.1-4,1.7-5.7c0.5-1.7,1-3,1.4-4s0.6-1.5,0.6-1.5s0,0.6,0,1.6s-0.1,2.5-0.3,4.2s-0.4,3.7-0.8,5.9
			c-0.3,2.1-0.8,4.4-1.3,6.7s-1,4.5-1.6,6.6s-1.1,4-1.7,5.7c-0.5,1.7-1,3-1.4,4C-73.3,618.3-73.6,618.8-73.6,618.8z"/>
	</g>
	<g id="XMLID_364_">
		<path id="XMLID_252_" class="st1" d="M-80.7,611.7c0,0-0.2-0.7-0.5-2c-0.1-0.6-0.3-1.4-0.5-2.3c-0.2-0.9-0.3-1.9-0.5-3
			s-0.3-2.3-0.4-3.5c-0.1-1.2-0.2-2.6-0.3-3.9c0-1.4-0.1-2.8-0.1-4.2s0-2.9,0.1-4.4s0.2-2.9,0.3-4.3c0.1-1.4,0.3-2.8,0.5-4.2
			s0.4-2.7,0.6-3.9c0.2-1.2,0.5-2.4,0.7-3.5s0.5-2,0.8-2.9c0.2-0.9,0.5-1.6,0.7-2.2c0.4-1.2,0.7-1.9,0.7-1.9s0,0.7-0.1,2
			s-0.2,3.1-0.3,5.2c-0.1,2.2-0.3,4.7-0.5,7.4c-0.1,2.7-0.3,5.6-0.4,8.4c-0.1,1.4-0.2,2.9-0.2,4.3c-0.1,1.4-0.1,2.8-0.2,4.1
			c-0.1,2.7-0.2,5.2-0.2,7.4c-0.1,2.2-0.1,4-0.2,5.3C-80.7,611-80.7,611.7-80.7,611.7z"/>
	</g>
	<g id="XMLID_361_">
		<path id="XMLID_250_" class="st1" d="M224.8,616.8c0,0-0.4-1.2-1-3.3c-0.2-0.5-0.3-1.1-0.5-1.7c-0.2-0.6-0.3-1.3-0.5-2.1
			c-0.2-0.7-0.4-1.5-0.5-2.4c-0.2-0.8-0.3-1.7-0.4-2.7c-0.1-0.9-0.3-1.9-0.4-2.9s-0.2-2.1-0.3-3.1c-0.1-1.1-0.2-2.2-0.2-3.3
			s-0.1-2.3-0.1-3.5c0.1-2.4,0.1-4.8,0.4-7.3c0.2-2.5,0.7-5,1-7.5c0.6-2.5,1.1-5,1.8-7.3c0.6-2.4,1.5-4.7,2.3-6.9
			c0.4-1.1,0.9-2.2,1.3-3.2s0.9-2.1,1.4-3c0.5-1,1-1.9,1.4-2.8c0.5-0.9,1-1.7,1.5-2.6c0.5-0.8,0.9-1.6,1.4-2.3s0.9-1.4,1.4-2
			c0.4-0.6,0.8-1.2,1.2-1.8c0.4-0.5,0.8-1,1.1-1.4c1.4-1.7,2.2-2.7,2.2-2.7s-0.6,1.1-1.7,3c-0.3,0.5-0.6,1-0.9,1.6s-0.6,1.2-1,1.9
			c-0.3,0.7-0.7,1.4-1.1,2.1c-0.4,0.8-0.7,1.6-1.1,2.4c-0.4,0.8-0.8,1.7-1.2,2.6c-0.4,0.9-0.8,1.9-1.2,2.9c-0.4,1-0.8,2-1.2,3
			c-0.4,1.1-0.8,2.1-1.1,3.2c-0.7,2.2-1.4,4.5-2,6.8c-0.7,2.3-1.1,4.7-1.6,7.1c-0.4,2.4-0.9,4.8-1.1,7.2c-0.3,2.4-0.5,4.8-0.7,7.1
			c-0.1,1.1-0.1,2.3-0.1,3.4c-0.1,1.1-0.1,2.2,0,3.3c0,1.1,0,2.1,0,3.1s0.1,2,0.1,2.9c0.1,0.9,0.1,1.8,0.2,2.7
			c0.1,0.8,0.2,1.6,0.2,2.4c0.1,0.8,0.1,1.5,0.2,2.1c0.1,0.7,0.2,1.3,0.3,1.8C224.6,615.6,224.8,616.8,224.8,616.8z"/>
	</g>
	<g id="XMLID_344_">
		<path id="XMLID_248_" class="st1" d="M202.3,613.7c0,0-0.3-0.8-0.8-2.2c-0.3-0.7-0.5-1.6-0.8-2.6c-0.1-0.5-0.3-1.1-0.4-1.6
			c-0.1-0.6-0.2-1.2-0.4-1.8c-0.1-0.6-0.3-1.3-0.4-2s-0.2-1.4-0.3-2.2c-0.2-1.5-0.3-3.1-0.3-4.7c0-1.6-0.1-3.3,0.1-5
			c0.1-1.7,0.3-3.5,0.5-5.2c0.3-1.7,0.5-3.5,1-5.1c0.3-1.7,0.9-3.3,1.3-4.9c0.5-1.6,1-3,1.6-4.4c0.3-0.7,0.6-1.4,0.9-2
			s0.6-1.2,0.9-1.8s0.6-1.1,0.9-1.7c0.3-0.5,0.6-1,0.9-1.4c0.5-0.9,1-1.7,1.5-2.3c0.9-1.2,1.4-1.9,1.4-1.9s-0.3,0.8-0.9,2.2
			c-0.3,0.7-0.6,1.5-1,2.5s-0.8,2.1-1.2,3.3c-0.4,1.2-0.8,2.5-1.3,3.9c-0.2,0.7-0.4,1.4-0.6,2.1c-0.2,0.7-0.4,1.5-0.6,2.2
			c-0.4,1.5-0.7,3.1-1,4.8c-0.3,1.6-0.6,3.3-0.9,4.9c-0.2,1.7-0.5,3.3-0.6,5c-0.2,1.6-0.2,3.3-0.3,4.9c0,0.8,0,1.6,0,2.3
			c0,0.8,0,1.5,0,2.2c0,1.5,0,2.8,0.1,4.1c0,1.3,0.1,2.4,0.2,3.5c0.1,1,0.1,1.9,0.2,2.7C202.3,612.8,202.3,613.7,202.3,613.7z"/>
	</g>
	<g id="XMLID_341_">
		<path id="XMLID_246_" class="st1" d="M179.6,632.9c0,0-0.7-1.4-2-4c-0.3-0.6-0.7-1.3-1-2.1s-0.6-1.7-1-2.6c-0.3-0.9-0.7-1.9-1.1-3
			c-0.3-1.1-0.6-2.2-1-3.4c-0.3-1.2-0.7-2.4-1-3.7c-0.2-1.3-0.5-2.6-0.7-4c-0.1-0.7-0.3-1.4-0.4-2.1c-0.1-0.7-0.2-1.4-0.2-2.2
			c-0.2-1.5-0.3-3-0.4-4.5c0-3.1-0.3-6.3,0-9.5c0.1-3.2,0.7-6.5,1.1-9.7c0.7-3.2,1.3-6.4,2.3-9.5c0.8-3.1,2.1-6.1,3.2-8.9
			c0.6-1.4,1.3-2.8,1.9-4.1c0.3-0.7,0.6-1.3,1-2c0.3-0.6,0.7-1.2,1.1-1.9c0.7-1.2,1.4-2.4,2.1-3.5s1.5-2.1,2.2-3.1s1.4-2,2-2.8
			c0.7-0.8,1.4-1.7,2-2.4c0.6-0.8,1.2-1.5,1.8-2.1c0.6-0.6,1.2-1.2,1.7-1.7c2-2,3.2-3.1,3.2-3.1s-1,1.3-2.8,3.5
			c-0.4,0.6-1,1.1-1.4,1.8c-0.5,0.7-1,1.5-1.6,2.3s-1.2,1.7-1.8,2.6c-0.6,0.9-1.2,1.9-1.8,2.9c-0.6,1-1.3,2.1-1.9,3.2
			c-0.6,1.1-1.2,2.3-1.8,3.6c-0.3,0.6-0.6,1.2-0.9,1.9c-0.3,0.6-0.5,1.3-0.8,2c-0.5,1.3-1.2,2.7-1.7,4c-1,2.8-2.1,5.7-2.8,8.7
			c-0.9,3-1.5,6.1-2.1,9.2c-0.4,3.1-1,6.3-1.1,9.4c-0.3,3.1-0.3,6.2-0.3,9.2c0,1.5,0.2,2.9,0.2,4.4c0,0.7,0.1,1.4,0.1,2.1
			c0.1,0.7,0.2,1.4,0.2,2.1c0.2,1.4,0.3,2.7,0.5,4s0.5,2.5,0.7,3.7s0.4,2.3,0.7,3.4c0.3,1.1,0.6,2.1,0.8,3c0.3,0.9,0.5,1.8,0.7,2.6
			s0.5,1.5,0.7,2.2C179.1,631.4,179.6,632.9,179.6,632.9z"/>
	</g>
</g>
</svg>
