<?xml version="1.0" encoding="utf-8"?>
<!-- Generator: Adobe Illustrator 19.0.0, SVG Export Plug-In . SVG Version: 6.00 Build 0)  -->
<svg version="1.1" id="Layer_1" xmlns="http://www.w3.org/2000/svg" xmlns:xlink="http://www.w3.org/1999/xlink" x="0px" y="0px"
	 viewBox="-322.5 75 440 655" style="enable-background:new -322.5 75 440 655;" xml:space="preserve">
<style type="text/css">
	.st0{fill:#EF7B05;}
</style>
<g id="XMLID_8465_">
	<path id="XMLID_8585_" class="st0" d="M0.7,678.5C-2.4,683-5.5,687.9-6,693c-0.4,4.5,1.8,10.3,7.6,12.3c2.7,1,6.2,0.6,8.9-1
		c2.2-1.2,3.3-3,3.2-4.9c0-0.5,0.3-0.9,0.8-1.1c0.1,0,0.1,0,0.2,0c4.2-9.1-0.7-19.5-7.3-29.6c-1.4,2.1-2.9,4.2-4.3,6.2L0.7,678.5z"
		/>
	<path id="XMLID_8584_" class="st0" d="M-45,503.8c-4.6-7.6-10.3-14.9-15.8-22c-4.6-5.8-9.3-11.9-13.4-18.1
		c-7.9-12-11.9-23.2-12.2-33.5c-8.7,23.3-8.2,49.3,2,70.5c9.4,19.5,26.5,34.2,49.7,42.7C-33.6,530.2-38.5,514.6-45,503.8z"/>
	<path id="XMLID_8583_" class="st0" d="M-47.2,633.8c-0.5-6.4-2.3-12.9-4-19.1c-1.5-5.4-3-10.9-3.8-16.5
		c-1.5-11.1,1.8-26.3,15.7-32.6c0.2-4.1,0.9-8.1,2-12c0,0,0,0,0-0.1c0-0.1,0.1-0.2,0.1-0.3c0.2-0.6,0.4-1.1,0.5-1.7
		c0.6-1.6,1.1-3.3,1.4-5l-5.3,0.6c-52.6,10.5-43.1,51-34.8,86.7l1.3,5.4c1,4.3-0.4,8.5-4,12.1c-4.6,4.6-12.2,7.6-19.5,7.6
		c-1.9,0-3.9,0-5.8-0.5c2.7,2.7,6.3,5,10.5,6.5c9.4,3.3,19.7,2.3,27.4-2.7c0.5-0.4,1.1-0.8,1.6-1.1l0,0c0.5-0.4,1.3-0.9,2.2-1.5
		C-56.2,655.7-46,649-47.2,633.8z"/>
	<path id="XMLID_8582_" class="st0" d="M-225.4,416.7c-23.6-11.7-41.7-31.4-49.2-52.9c3,33,16.3,65.5,37.8,93.5
		C-230.9,445.6-226.9,431.6-225.4,416.7z"/>
	<path id="XMLID_8581_" class="st0" d="M39.8,560.2c-10.7,15.8-22.8,33.7-23.1,53.1c-0.1,4.4,0.5,8.9,1,13.2
		c0.8,6.4,1.6,13,0.4,19.5c-1.2,7.2-4.8,13.9-9,20.4c7.3,11,13.1,22.5,8.5,32.8c3.1-1.2,5.3-4.2,6-7.1c0.7-3,0.3-6-0.1-9.2
		c-0.1-1-0.3-2.1-0.4-3.1c-1.3-13.6,1.2-23.2,8.2-31.8c0.2-0.3,0.5-0.4,0.9-0.5c1.4-4.9,3.8-9.7,6.1-14.3c1.6-3.1,3.2-6.4,4.5-9.6
		c7.9-19.9,2.4-44-2.7-64C40,559.7,39.9,559.9,39.8,560.2C39.8,560.1,39.8,560.2,39.8,560.2z"/>
	<path id="XMLID_8580_" class="st0" d="M-14.3,578.7c5.6-12.5,14.4-23.8,23-34.8c2.8-3.5,5.5-7.1,8.2-10.7c34-46,48-85.4,48.1-135.9
		c-4.9-52.8-9.9-107.4-30-158.7c-22.4-56.9-62.3-102-112.3-126.8c-32.6-16.2-68.5-23.1-101.2-19.6c-49.2,15.3-62.8,34.5-67.6,58.5
		c4.1,4.5,7.1,9.7,8.7,15.2c4.3-12.1,12.5-23.4,24-31.8c21.5-15.8,53-21.4,80.4-14c33.1,8.9,59.7,35.5,73,73.1
		c5.3,15,8.5,30.6,11.4,45.8l0.1,0.2c0.3,0.3,0.2,0.7,0.1,1c0.1,0.6,0.2,1.2,0.3,1.7c1.8,9.2,3.7,18.6,6,28
		c4.7,10.4,9.1,22.4,11.8,35.2c6.2,14,13.7,27.7,21,41.1c7.8,14.3,15.9,29,22.3,44.1c10.3,24.3,23.6,70.5-3,107.1
		c-5.2,7.2-11.9,13.8-18.3,20.1c-8.4,8.4-17.2,17-22.6,27.1c-1.3,2.5-2.4,5-3.3,7.6c-0.2,0.4-0.3,0.9-0.4,1.3
		c-5.7,18.8,0.2,40.1,15.6,54.6c0.1,0.1,0.2,0,0.3,0.1c1.5,1.3,2.8,2.6,4.2,4C-16.7,601.4-18.5,588.2-14.3,578.7z"/>
	<path id="XMLID_8579_" class="st0" d="M-17.4,612.9c-14.2-11.5-21.8-28.1-22-44.5c-11.4,6.2-14.2,19.6-12.9,29.6
		c0.7,5.4,2.2,10.9,3.7,16.2c1.8,6.3,3.6,12.8,4.1,19.5c1.2,16.4-10.1,23.9-15.5,27.5c-0.9,0.6-1.6,1.1-2.1,1.5c0,0,0,0,0,0
		c0,0,0,0,0,0c-0.5,0.4-1.1,0.8-1.6,1.1c-5.3,4-8.6,9.6-9.3,16.2c-0.9,7.7,1.9,15.6,7.6,21.1c7.6,6.1,19.5,12,32.7,6.3l0-1
		c-2.7,0.6-5.7,0.5-8.7-0.5c-4.3-1.4-7.9-4.4-9.4-7.9c-2.5-5.5-1-12.5,4-18.7c3.4-4.2,7.8-7.7,12.1-11.1c1.2-0.9,2.3-1.8,3.5-2.7
		c0.7-0.6,1.7-1.3,2.8-2c6.7-4.7,19.1-13.4,17.4-34c0,0,0-0.1,0-0.1c0,0,0-0.1,0-0.1c0.2-1.4-0.7-5.1-1.7-9.3
		c-0.2-0.7-0.3-1.5-0.5-2.2C-14.5,616-15.9,614.4-17.4,612.9C-17.3,612.9-17.4,612.9-17.4,612.9z"/>
	<path id="XMLID_8578_" class="st0" d="M58.4,634.6c0.4-9.9,3.5-19.5,6.6-28.9c1.6-5,3.3-10.1,4.5-15.3c6.3-26.4,2.6-51.2-11.1-73.7
		c-1.6,4-3.2,8.2-4.7,12.4c-3.5,9.4-7.1,19-11.6,27c5.3,20.8,11.9,46.7,3.3,68.1c-1.3,3.3-3,6.6-4.6,9.7c-3.8,7.5-7.4,14.7-7,22.4
		c0.6,10.1,9,19.6,20.6,23c10.8,3.2,23.5,0.9,31.8-5.5c-1.7-0.4-3.6-1.1-5.4-1.9C64.6,665.4,57.8,648.8,58.4,634.6z"/>
	<path id="XMLID_8577_" class="st0" d="M-76,109.8c50.6,25.1,90.9,70.6,113.5,128c20.3,51.6,25.3,106.3,30.2,159.3c0,0,0,0,0,0
		c0,0,0,0,0,0c-0.1,51-14.2,90.7-48.5,137.1c-2.7,3.6-5.4,7.2-8.2,10.7C2.6,556-6.2,567.2-11.7,579.5c-4.7,10.4-1.5,25.9,1.1,37.2
		C0.8,631.6,3.7,651.2-4,667.6c-1.7,3.6-3.8,7.1-5.9,10.5c-4.3,7-8.4,13.6-8.7,21.1c-0.4,7.1,3.1,13.8,9.2,17.6
		c6.6,4.1,16,4.3,21.9,0.4c3.1-2,5-5.3,5.2-8.8c0.1-2.2-0.4-4.3-1.6-6.1c-0.7,1.5-2,2.9-3.9,4c-3.5,2-8,2.5-11.6,1.2
		c-7-2.5-9.7-9.3-9.3-14.6c0.5-5.6,3.8-10.7,7.1-15.5l2.5-3.6c1.8-2.6,3.6-5.2,5.4-7.8c0,0,0,0,0,0c4.2-6.5,7.9-13.2,9.1-20.3
		c1.1-6.2,0.3-12.7-0.5-19c-0.5-4.4-1.1-8.9-1-13.5c0.3-19.6,12.1-37.4,22.8-53.2c0,0,0,0,0,0c5.8-8.6,10.2-20.3,14.4-31.6
		c1.6-4.3,3.2-8.6,4.9-12.7c2.8-6.9,4.5-10.8,9.2-16.8c5.6-7,12-11.2,19.6-12.8c14.1-10.8,19.3-21.3,20.6-41.5
		c0.7-11.7-8.5-21.5-17.5-31c-8-8.5-15.6-16.5-15.6-25.4c-1.5-16.1-1.8-32.6-2.1-48.5c-0.7-42.3-1.5-86.1-25.4-129
		C18.9,168.1-13.8,120.6-76,97.2c-27.3-9.7-57.4-12.4-86.3-8.3C-133.7,88.9-103.7,96.1-76,109.8z"/>
	<path id="XMLID_8576_" class="st0" d="M67.5,500.3c-4,5-5.7,8.4-7.9,13.8c0.2,0.1,0.4,0.2,0.5,0.4c14.6,23.3,18.7,49.1,12.1,76.5
		c-1.2,5.2-2.9,10.4-4.6,15.4c-3,9.2-6.1,18.7-6.5,28.3c-0.4,8.8,2.2,18.7,8.4,26.1c-0.6-2-0.7-4.1-0.2-6.2c0,0,0,0,0,0
		c1.1-22.5,11.2-44.6,20.9-65.9c5-11,10.2-22.4,14-33.5c12.8-37.8,6.7-59.6-18.7-66.7C78.6,489.9,72.7,493.7,67.5,500.3z"/>
	<path id="XMLID_8575_" class="st0" d="M-51.3,239.9l-63.2-74.4c-11.9-14-26.3-29.1-46.2-31.1c-18.4-1.8-35.5,8.6-46.6,17.5
		c-16.4,13.3-27.5,39.4-18.7,58c3.9-2.4,8.1-4.7,12.7-6.5c26.5-10.9,57.5-10.4,83,1.2c2.3-0.1,4.8-1.1,7.3-2.2
		c2.9-1.2,5.8-2.4,8.9-2.4c0.2,0,0.4,0,0.6,0.1c18.7,7.7,43.5,21.2,55.8,41.6c2.8,4.3,6.5,10.2,10.3,17.4
		c-1.2-5.6-2.3-11.3-3.4-16.8C-51,241.5-51.1,240.7-51.3,239.9z"/>
	<path id="XMLID_8574_" class="st0" d="M-209.3,150.3c16.5-13.4,33.5-19.7,48.9-18.2c21.1,2,35.9,17.6,48.2,32l52.7,62.1
		c1.9,2.3,5.6,0.5,5-2.4c-2.2-10.1-4.7-20.2-8.2-30c-6.2-17.4-25.4-59.3-71.2-71.6c-26.5-7.1-57-1.8-77.7,13.5
		c-20.7,15.3-30.6,39.8-25,62.3c0,0.1,0,0.1,0,0.2c0,0.2,0,0.3-0.1,0.4c-0.1,0.1-0.1,0.3-0.2,0.4c-0.1,0,0,0.1-0.1,0.2
		c-37.4,24.3-57.7,60-55.3,95.6c0.1,1.2,0.9,2.2,2.1,2.5c4.5,1.2,8.7,3.5,11.9,6.8c0,0,0,0,0,0c1.7,1.7,4.5,0.8,4.9-1.5
		c3-18,9-35.7,17.8-52.6c0.1-0.2,0.2-0.5,0.3-0.8c2.6-14.3,11.5-27.1,25.2-36.6c1.1-0.8,1.5-2.2,1-3.4
		C-237.3,190-225.9,163.8-209.3,150.3z"/>
	<path id="XMLID_8573_" class="st0" d="M-239.5,197.9c-2.2-9.4-1.8-19.1,0.9-28.4c-0.4-0.1-0.8-0.4-0.9-0.8
		c-1.3-6-4.3-11.6-8.7-16.5c-14,4-33.7,20.6-39.5,31.3c-3.1,5.9-5.7,12-7.3,17.8c-21.5,81.1-37.8,225,88,290.5
		c-44.8-37.5-71.2-90.3-71.1-143c0-0.5,0.4-0.8,1-1c-0.1-0.1-0.2-0.2-0.3-0.3c-6.9-12.4-12.1-25.4-15.8-38.6c0-0.1-0.1-0.1-0.1-0.1
		c-0.1-0.3-0.1-0.7-0.2-1c-0.8-3-1.6-5.9-2.2-8.9c0-0.1,0.1-0.1,0.1-0.2c-0.4,0-0.7-0.1-1.1-0.1c-0.8,0-1.4-0.6-1.3-1.2
		c0-0.6,0.5-1.1,1.4-1.1c0.5,0,1,0.1,1.5,0.2C-298.3,259.9-277.8,223-239.5,197.9z"/>
	<path id="XMLID_8572_" class="st0" d="M-249.8,150.3c-0.3-0.5-0.3-1.1,0.2-1.4c0.3-0.2,0.7-0.3,1.1-0.2c3-13.7,9-25.9,22.7-36.6
		c-17.7,10-27.7,19.7-42.9,41.6l-1.8,2.5c-2.5,3.5-5.7,8.1-9,13.3C-270.9,161.2-259.4,153.3-249.8,150.3z"/>
	<path id="XMLID_8571_" class="st0" d="M-11.6,462.7l2,4c8.4,16.5,13.4,26.5,6.6,42c3.8-4,7.5-8.1,10.7-12.4
		c26.1-35.8,12.9-81.2,2.8-105.1C4.1,376.2-4,361.4-11.8,347.2c-5.7-10.4-11.5-21-16.7-31.9c3.4,26.1-1,54.7-24,79.9
		c2.5,15,12.3,27.6,22.8,41C-23.2,444.6-16.3,453.3-11.6,462.7z"/>
	<path id="XMLID_8570_" class="st0" d="M-71.8,462.5c4,6.2,8.7,12.2,13.3,18c5.6,7.1,11.3,14.5,16,22.2
		c6.3,10.6,11.3,25.5,10.6,38.7c5.6-9.3,13.6-17.5,21.6-25.4c0.2-0.2,0.5-0.5,0.8-0.8c11.9-19.2,7.1-28.8-2.6-47.8l-2-4
		c-4.6-9.1-11.4-17.8-17.9-26.1c-9.7-12.4-19.6-25.2-22.7-39.8c-7.1,7.4-15.9,14.5-26.6,21.1c-0.7,1.4-1.3,2.8-1.9,4.2
		C-85.2,434.6-81.4,447.9-71.8,462.5z"/>
	<path id="XMLID_8569_" class="st0" d="M-270.5,156.2l1.8-2.5c15.2-21.9,25.2-31.6,42.9-41.6c9.9-7.8,23.9-14.8,43.7-21.2
		c0.1-0.1,0.1-0.3,0.2-0.4c-5.3,1.3-10.6,2.9-15.8,4.7c-39.8,18.8-51.2,25.1-73.5,57.3l-1.8,2.5c-4.6,6.6-11.7,16.8-17.4,27.7
		c2.1-4,6-8.7,10.8-13.3C-276.1,164.3-272.9,159.7-270.5,156.2z"/>
	<path id="XMLID_8568_" class="st0" d="M88.1,486.8c15.3-12.3,18.9-24.8,20-41.9c0.8-12.5-8.8-22.7-18.1-32.5
		c-7.7-8.2-15-15.9-15-24.1c-1.5-16.1-1.8-32.6-2-48.5c-0.7-42.6-1.5-86.6-25.7-130c-26-43-59.1-91-122.2-114.7
		c-31.9-11.3-67.5-13.3-100.9-6.1c0.4,0,0.7,0.2,1,0.4c4.1-0.3,8.3-0.5,12.5-0.5c28.9-4.1,59-1.4,86.3,8.3
		c62.2,23.4,95,70.9,120.8,113.6c24,42.9,24.7,86.7,25.4,129c0.3,15.9,0.5,32.4,2.1,48.5c0,8.9,7.6,16.9,15.6,25.4
		c9,9.5,18.2,19.3,17.5,31c-1.2,20.2-6.5,30.7-20.6,41.5c0.1,0,0.3-0.1,0.4-0.1c0.8-0.1,1.5,0.2,1.7,0.9c0.2,0.6-0.3,1.2-1,1.4
		c-0.1,0-0.2,0.1-0.3,0.1c25.4,7.1,31.5,28.9,18.7,66.7c-3.8,11.1-9,22.5-14,33.5c-9.7,21.4-19.8,43.4-20.9,65.9c0,0,0,0,0,0
		c0-0.1,0-0.1,0-0.2c0.2-0.6,0.9-1,1.6-0.9c0.7,0.1,1.1,0.7,1.1,1.3c0,0,0-0.1,0-0.1c1.1-22.1,11.1-44,20.7-65.2
		c5-11.1,10.2-22.5,14-33.7C119.8,517.4,113.7,494.8,88.1,486.8z"/>
	<path id="XMLID_8567_" class="st0" d="M-207,491.9c-125.7-65.5-109.4-209.4-88-290.5c1.5-5.8,4.2-11.9,7.3-17.8
		c-0.1,0.1-0.1,0.2-0.2,0.3c-0.2,0.4-0.7,0.7-1.3,0.7c-0.2,0-0.4,0-0.5-0.1c-0.7-0.2-1-0.9-0.7-1.5c-3.1,5.9-5.7,12-7.3,17.9
		c-22.1,83.5-38.8,233,97.5,297.2c0.4,0.2,0.8,0.1,1.2,0c-0.3,0-0.5-0.1-0.7-0.2C-202.2,495.9-204.6,494-207,491.9z"/>
	<path id="XMLID_8566_" class="st0" d="M-178.2,89.6c-0.5,0.1-0.9,0.2-1.4,0.3c0.2,0,0.4,0,0.5-0.1
		C-178.8,89.8-178.5,89.7-178.2,89.6z"/>
	<path id="XMLID_8565_" class="st0" d="M-298.1,297.4c0,0.6,0.6,1.2,1.3,1.2c0.4,0,0.7,0.1,1.1,0.1c0-0.4,0.2-0.7,0.6-0.9
		c0-0.4-0.1-0.9-0.1-1.3c-0.5,0-1-0.2-1.5-0.2C-297.6,296.3-298.1,296.8-298.1,297.4z"/>
	<path id="XMLID_8564_" class="st0" d="M-57.7,241.8c-12.3-20.4-37.2-33.9-55.8-41.6c-0.2-0.1-0.4-0.1-0.6-0.1c-3.1,0-6,1.2-8.9,2.4
		c-2.6,1.1-5,2.1-7.3,2.2c-25.5-11.6-56.5-12.1-83-1.2c-4.6,1.9-8.8,4.1-12.7,6.5c0.2,0.4,0.4,0.9,0.6,1.3c0.3,0.6,0,1.3-0.7,1.5
		c-0.7,0.3-1.5,0-1.8-0.6c-0.1-0.3-0.2-0.5-0.4-0.8c-14.8,9.8-24.5,23.2-27.1,38.3c-10,19.1-16.4,39.2-19,59.7
		c-1-1.9-2.3-3.7-3.9-5.3c-3.7-3.7-8.6-6.2-13.9-7.2c0.1,0.8,0.1,1.6,0.2,2.4c4.4,1,8.4,3.2,11.5,6.3c3.3,3.3,5.1,7.2,5.3,11.2
		c-0.1,1.1-0.2,2.2-0.2,3.4c0,0.6,0.5,1.1,1.2,1.2c0.7,0.1,1.4-0.4,1.5-1c0.2-1.2,0.3-2.4,0.3-3.6c1.9-22.8,8.5-45.1,19.6-66.3
		c0-0.1,0.1-0.2,0.1-0.3c3.3-19.1,18.1-35.4,40.7-44.7c25.8-10.6,56-10.1,80.8,1.3c0.2,0.1,0.4,0.1,0.7,0.1c3.1,0,6-1.2,8.9-2.4
		c2.6-1.1,5-2.1,7.4-2.2c18.2,7.6,42.4,20.7,54.3,40.5c4.1,6.2,9.9,15.9,15.4,27.8c-0.9-3.8-1.8-7.6-2.6-11.4
		C-51.2,252-54.9,246-57.7,241.8z"/>
	<path id="XMLID_8563_" class="st0" d="M-67.4,701c0.5-0.5,1.4-0.5,2,0c0,0,0,0,0.1,0c-5.7-5.5-8.6-13.4-7.6-21.1
		c0.8-6.5,4.1-12.2,9.3-16.2c0.6-0.4,1.1-0.7,1.6-1.1c0,0,0,0,0,0c-0.3,0.2-0.6,0.3-0.9,0.3c-0.4,0-0.7-0.1-1-0.3
		c-0.5-0.4-0.5-1.2,0-1.6c0,0,0.1-0.1,0.1-0.1l0,0c-0.6,0.4-1.1,0.7-1.6,1.1c-7.8,5-18.1,6.1-27.4,2.7c-4.2-1.5-7.7-3.7-10.5-6.5
		c1.9,0.5,3.9,0.5,5.8,0.5c7.2,0,14.9-3,19.5-7.6c3.6-3.6,5-7.8,4-12.1l-1.3-5.4c-8.3-35.7-17.8-76.2,34.8-86.7l5.3-0.6
		c0.2-1,0.3-2.1,0.4-3.1c-23.1-8.5-40.3-23.2-49.7-42.7c-10.2-21.2-10.7-47.2-2-70.5c-0.1-2.9,0.1-5.7,0.6-8.5
		c-12.2,25.6-12.8,55.8-1.2,79.9c9.3,19.4,26,34.2,48.6,43.1l-2.6,0.3c-55.3,11-45.1,54.4-37,89.4l1.3,5.4c1.1,4.6-1.3,8.1-3.4,10.2
		c-4,4-11,6.7-17.3,6.7c-5.3,0-9.8,0-11.8-11.8c-0.1-0.6-0.6-1.1-1.5-1c-0.7,0-1.3,0.6-1.3,1.2c0.2,9.6,7.1,18.1,18,22
		c7.7,2.8,16,2.8,23.3,0.3c-2.8,3.6-4.5,7.9-5.1,12.5c-1,8.3,2.1,16.9,8.3,22.9c0,0,0,0,0.1,0C-67.9,702.2-68,701.5-67.4,701z"/>
	<path id="XMLID_8562_" class="st0" d="M-82.3,418.4c-0.4,1.5-0.7,2.9-1,4.4c0.7-1.4,1.2-2.8,1.9-4.2c10.7-6.6,19.4-13.7,26.6-21.1
		c-0.2-0.7-0.4-1.4-0.5-2.1c-0.1-0.6,0.4-1.2,1.2-1.3c0.7-0.1,1.5,0.4,1.6,1c0,0,0,0.1,0,0.1c22.9-25.2,27.4-53.8,24-79.9
		c-1.5-3.2-3-6.4-4.4-9.6c7.6,36.3,1.5,79.6-50.3,111.3c0,0,0,0,0,0C-82.6,417.1-82.1,417.7-82.3,418.4z"/>
	<path id="XMLID_8561_" class="st0" d="M-36.7,288.8c1.9,5.5,4.1,11,6.4,16.4c-2.7-12.9-7.1-24.9-11.8-35.2
		C-40.5,276.3-38.8,282.6-36.7,288.8z"/>
	<path id="XMLID_8560_" class="st0" d="M-207.4,152c11.1-9,28.2-19.3,46.6-17.5c20,1.9,34.3,17,46.2,31.1l63.2,74.4
		c-0.3-1.7-0.7-3.4-1-5.2l-60-70.6c-12.2-14.4-27.1-30-48.2-32c-15.4-1.5-32.4,4.8-48.9,18.2c-17.2,13.9-28.8,41.6-19.1,61
		c0.7-0.5,1.5-0.9,2.3-1.4C-234.9,191.4-223.8,165.3-207.4,152z"/>
	<path id="XMLID_8559_" class="st0" d="M-48.5,239.2l-0.1-0.2c0.1,0.4,0.2,0.8,0.2,1.2C-48.3,239.9-48.2,239.5-48.5,239.2z"/>
	<path id="XMLID_8558_" class="st0" d="M-228,212.2c0.3,0.6,1.1,0.8,1.8,0.6c0.7-0.3,1-0.9,0.7-1.5c-0.2-0.4-0.4-0.9-0.6-1.3
		c-0.8,0.5-1.6,0.9-2.3,1.4C-228.3,211.6-228.2,211.9-228,212.2z"/>
	<path id="XMLID_8557_" class="st0" d="M-236.8,198.7c-0.1,0.1-0.1,0.3-0.2,0.4C-237,198.9-236.9,198.8-236.8,198.7z"/>
	<path id="XMLID_8556_" class="st0" d="M10.5,391.1c10.1,23.9,23.3,69.3-2.8,105.1c-3.1,4.3-6.8,8.4-10.7,12.4
		c-1.1,2.5-2.5,5.1-4.2,7.9c-0.2,0.4-0.7,0.6-1.2,0.6c-0.2,0-0.4,0-0.6-0.1c-0.7-0.3-0.9-1-0.6-1.5c0,0,0-0.1,0.1-0.1
		c-0.3,0.2-0.5,0.5-0.8,0.8c-7.9,7.9-16,16-21.6,25.4c-0.1,1.2-0.3,2.3-0.4,3.4c0,0.1,0.1,0.2,0.1,0.3c0,0.1-0.1,0.2-0.2,0.3
		c-0.3,2.3-0.9,4.6-1.7,6.7c0.9-2.6,1.9-5.2,3.3-7.6c5.4-10,14.1-18.7,22.6-27.1c6.4-6.4,13-12.9,18.3-20.1
		c26.6-36.6,13.3-82.8,3-107.1c-6.4-15-14.5-29.8-22.3-44.1c-7.3-13.4-14.8-27-21-41.1c0.7,3.3,1.3,6.7,1.7,10.1
		c5.2,10.8,11,21.5,16.7,31.9C-4,361.4,4.1,376.2,10.5,391.1z"/>
	<path id="XMLID_8555_" class="st0" d="M-36,555c-0.2,0-0.3,0-0.5-0.1c-0.7-0.2-1-0.8-0.8-1.4c-1.1,3.9-1.8,8-2,12
		c0.1,0,0.2-0.1,0.3-0.2c0.7-0.3,1.5-0.1,1.9,0.5c0.4,0.6,0.1,1.2-0.6,1.5c-0.6,0.3-1.1,0.6-1.6,0.9c0.1,16.5,7.8,33.1,22,44.5
		c0,0,0,0,0,0c-1-1-2.1-2-3.2-3c-0.5-0.5-0.5-1.2,0-1.6c0.5-0.4,1.1-0.3,1.6-0.1c-15.4-14.6-21.3-35.9-15.6-54.6
		c-0.1,0.2-0.1,0.5-0.2,0.7C-34.9,554.7-35.4,555-36,555z"/>
	<path id="XMLID_8554_" class="st0" d="M-39.4,289.5c1.9,5.5,4,10.9,6.4,16.3c-2.7-12.8-7.1-24.8-11.8-35.1
		C-43.2,276.9-41.5,283.3-39.4,289.5z"/>
	<path id="XMLID_8553_" class="st0" d="M-48.4,240.2c-0.1,0.2-0.2,0.4-0.4,0.6c-0.2,0.1-0.5,0.2-0.8,0.2c-0.4,0-0.9-0.2-1.1-0.5
		l-0.5-0.6c0.2,0.8,0.3,1.6,0.5,2.4c1.1,5.6,2.2,11.2,3.4,16.8c1.8,3.3,3.5,7,5.3,10.8c-2.3-9.3-4.2-18.8-6-28
		C-48.2,241.4-48.3,240.8-48.4,240.2z"/>
	<path id="XMLID_8552_" class="st0" d="M-37.2,553.1c0.2-0.5,0.4-1.1,0.5-1.7C-36.8,552-37,552.6-37.2,553.1z"/>
	<path id="XMLID_8551_" class="st0" d="M-237.9,169.7c-0.1,0-0.2,0-0.2,0c-0.2,0-0.3-0.1-0.5-0.2c-2.7,9.3-3.1,19-0.9,28.4
		c0.2-0.1,0.4-0.3,0.6-0.4c0.6-0.4,1.5-0.3,1.9,0.2c0.2,0.2,0.2,0.4,0.2,0.7c0-0.1,0.1-0.1,0-0.2c-5.5-22.5,4.3-47,25-62.3
		c20.7-15.3,51.2-20.6,77.7-13.5c45.8,12.3,65,54.2,71.2,71.6c4.7,13.3,0.9,20.9,3.6,34.6l10.5,10.6c-3-15.2-6.1-30.8-11.4-45.8
		c-13.3-37.6-39.9-64.3-73-73.1c-27.4-7.3-58.9-1.8-80.4,14c-11.5,8.5-19.7,19.7-24,31.8c0.2,0.8,0.5,1.6,0.7,2.4
		C-236.7,168.9-237.2,169.5-237.9,169.7z"/>
	<path id="XMLID_8550_" class="st0" d="M-30.3,305.2c-2.4-5.4-4.6-10.8-6.4-16.4c-2.1-6.2-3.8-12.5-5.4-18.9
		c-1.7-3.8-3.5-7.4-5.3-10.8c0.8,3.8,1.7,7.6,2.6,11.4c4.7,10.3,9.1,22.3,11.8,35.1c1.4,3.2,2.9,6.4,4.4,9.6
		C-29,311.9-29.6,308.5-30.3,305.2z"/>
	<path id="XMLID_8549_" class="st0" d="M-32.2,545.2c0-0.1-0.1-0.2-0.1-0.3c0,0.2-0.1,0.4-0.1,0.6
		C-32.3,545.4-32.2,545.4-32.2,545.2z"/>
	<path id="XMLID_8548_" class="st0" d="M-51.3,239.9l0.5,0.6c0.3,0.3,0.7,0.5,1.1,0.5c0.3,0,0.5-0.1,0.8-0.2
		c0.2-0.1,0.3-0.3,0.4-0.6c-0.1-0.4-0.2-0.8-0.2-1.2l-3.6-4.3C-52,236.5-51.6,238.2-51.3,239.9z"/>
	<path id="XMLID_8547_" class="st0" d="M-293.2,309c-0.1-0.4-0.2-0.8-0.3-1.2c0.1,0.3,0.1,0.7,0.2,1
		C-293.3,308.9-293.2,309-293.2,309z"/>
	<path id="XMLID_8546_" class="st0" d="M-236.7,198.3c0,0.1,0,0.3-0.1,0.4C-236.8,198.6-236.7,198.4-236.7,198.3z"/>
	<path id="XMLID_8545_" class="st0" d="M-237.2,199.2c0.1,0,0.1-0.1,0.1-0.2c-0.2,0.2-0.4,0.3-0.7,0.4c-0.7,0.1-1.5-0.3-1.6-0.9
		c-0.1-0.2-0.1-0.5-0.1-0.7c-38.3,25.2-58.7,62-55.6,98.7c0.9,0.1,1.9,0.2,2.8,0.4C-295.7,260.6-275.4,224-237.2,199.2z"/>
	<path id="XMLID_8544_" class="st0" d="M-290.8,307.5c-0.6-2.7-1.1-5.5-1.4-8.3c-0.2-0.1-0.5-0.1-0.7-0.1
		C-292.3,301.9-291.5,304.7-290.8,307.5z"/>
	<path id="XMLID_8543_" class="st0" d="M-295.2,296.5c0,0.5,0.1,0.9,0.1,1.3c0.1-0.1,0.3-0.2,0.4-0.2c0.7-0.1,1.5,0.3,1.6,0.9
		c0,0.2,0.1,0.4,0.1,0.5c0.2,0,0.5,0.1,0.7,0.1c-0.1-0.8-0.2-1.6-0.2-2.4C-293.3,296.7-294.2,296.6-295.2,296.5z"/>
	<path id="XMLID_8542_" class="st0" d="M-238.9,197.4c-0.2,0.1-0.4,0.3-0.6,0.4c0.1,0.2,0.1,0.5,0.1,0.7c0.2,0.6,0.9,1,1.6,0.9
		c0.3,0,0.5-0.2,0.7-0.4c0.1-0.1,0.2-0.2,0.2-0.4c0.1-0.1,0.1-0.3,0.1-0.4c0-0.2,0-0.5-0.2-0.7C-237.4,197.1-238.3,197-238.9,197.4z
		"/>
	<path id="XMLID_8541_" class="st0" d="M-291.7,309.8c-0.1,0-0.2,0-0.3,0c-0.6,0-1.1-0.3-1.3-0.8c3.7,13.3,8.9,26.3,15.8,38.6
		c0.1,0.1,0.2,0.2,0.3,0.3c0.1,0,0.2-0.1,0.4-0.1c0.5,0,0.9,0.2,1.1,0.4c0,0,0,0,0.1,0c0.7-0.3,1-0.9,0.7-1.5
		c-7-12.6-12.2-25.7-15.9-39.2c0.1,0.3,0.1,0.6,0.2,1C-290.5,309.1-290.9,309.7-291.7,309.8z"/>
	<path id="XMLID_8540_" class="st0" d="M-295.7,299c0.6,3,1.4,5.9,2.2,8.9c-0.7-3-1.1-6-1.5-9c-0.2,0-0.5-0.1-0.7-0.1
		C-295.7,298.8-295.8,298.9-295.7,299z"/>
	<path id="XMLID_8539_" class="st0" d="M-295.7,298.8c0.2,0,0.5,0.1,0.7,0.1c0-0.3-0.1-0.7-0.1-1
		C-295.4,298.1-295.7,298.4-295.7,298.8z"/>
	<path id="XMLID_8538_" class="st0" d="M-295,298.9c0.3,3,0.8,6,1.5,9c0.1,0.4,0.2,0.8,0.3,1.2c0.2,0.5,0.7,0.8,1.3,0.8
		c0.1,0,0.2,0,0.3,0c0.7-0.1,1.2-0.7,1.1-1.3c-0.1-0.3-0.1-0.6-0.2-1c-0.8-2.8-1.5-5.6-2.1-8.4C-293.6,299-294.3,298.9-295,298.9z"
		/>
	<path id="XMLID_8537_" class="st0" d="M-292.9,299.1c0-0.2-0.1-0.4-0.1-0.5c-0.1-0.6-0.9-1-1.6-0.9c-0.2,0-0.3,0.2-0.4,0.2
		c0,0.3,0.1,0.7,0.1,1C-294.3,298.9-293.6,299-292.9,299.1z"/>
	<path id="XMLID_8534_" class="st0" d="M-277.1,348c-0.5,0.2-1,0.5-1,1c-0.2,52.7,26.2,105.5,71.1,143c2.7,1.4,5.4,2.8,8.2,4.2
		c0.7,0.3,0.9,1,0.5,1.6c-0.2,0.2-0.4,0.3-0.7,0.4c0.1,0,0.1,0.1,0.2,0.1c0.4,0,0.7-0.1,1-0.4c0.5-0.5,0.5-1.2-0.1-1.6
		c-14.3-10.9-26.9-23.4-37.6-37c0.4-0.1,0.7-0.3,0.9-0.6c6.3-12.2,10.4-26.9,11.9-42.4c0-0.4-0.2-0.9-0.7-1.1
		c-28.6-13.9-49.1-39.9-52-66.2c0-0.2-0.2-0.4-0.3-0.6c-0.2,0.1-0.3,0.1-0.5,0.1C-276.5,348.3-276.8,348.2-277.1,348z M-225.4,416.7
		c-1.5,14.9-5.4,28.9-11.4,40.6c-21.5-28-34.8-60.5-37.8-93.5C-267.1,385.2-249.1,405-225.4,416.7z"/>
	<path id="XMLID_8533_" class="st0" d="M-198.8,496.1c-2.8-1.3-5.5-2.8-8.2-4.2c2.4,2,4.8,4,7.3,5.9c0.2,0.2,0.5,0.2,0.7,0.2
		c0.3-0.1,0.5-0.2,0.7-0.4C-197.9,497.1-198.1,496.4-198.8,496.1z"/>
	<path id="XMLID_8532_" class="st0" d="M-276.7,347.8c-0.1,0-0.2,0.1-0.4,0.1c0.3,0.2,0.6,0.4,0.9,0.4c0.2,0,0.3,0,0.5-0.1
		C-275.9,348-276.2,347.8-276.7,347.8z"/>
	<path id="XMLID_8531_" class="st0" d="M-246.4,151.2c-0.1,0.1-0.1,0.2-0.2,0.3c-0.1,0.1-0.3,0.2-0.4,0.3c-0.1,0-0.1,0.1-0.2,0.1
		c-0.3,0.1-0.7,0.2-1,0.3c4.4,4.9,7.4,10.5,8.7,16.5c0.1,0.4,0.4,0.6,0.9,0.8c0.3-1.2,0.7-2.4,1.2-3.6c-1.6-5.5-4.5-10.7-8.7-15.2
		c0,0.1-0.1,0.2-0.1,0.4C-246.3,151.1-246.4,151.2-246.4,151.2z"/>
	<path id="XMLID_8530_" class="st0" d="M-248.5,148.6c-0.4,0-0.7,0-1.1,0.2c-0.5,0.4-0.6,1-0.2,1.4c0.3-0.1,0.7-0.2,1-0.3
		C-248.8,149.5-248.6,149.1-248.5,148.6z"/>
	<path id="XMLID_8529_" class="st0" d="M-238.2,169.7c0.1,0,0.2,0,0.2,0c0.7-0.1,1.3-0.7,1.1-1.3c-0.2-0.8-0.5-1.6-0.7-2.4
		c-0.4,1.2-0.8,2.4-1.2,3.6C-238.5,169.6-238.4,169.7-238.2,169.7z"/>
	<path id="XMLID_8528_" class="st0" d="M70.7,655.8C70.7,655.8,70.7,655.8,70.7,655.8c-0.8,0-1.4-0.6-1.4-1.2
		c-0.5,2.1-0.4,4.2,0.2,6.2c3.1,3.8,7.2,6.9,12.2,9c-2.4-1.2-4.8-2.8-6.7-4.8c-2-2.2-4.2-5.7-3-10.1c0,0,0-0.1,0-0.1
		C72,655.3,71.4,655.8,70.7,655.8z"/>
	<path id="XMLID_8527_" class="st0" d="M85.2,672.2c-0.2,0.5-0.7,0.7-1.3,0.7c-0.2,0-0.3,0-0.5-0.1c-0.9-0.3-1.7-0.6-2.5-0.9
		c1.9,0.9,3.7,1.5,5.4,1.9c-8.3,6.4-21,8.7-31.8,5.5c-11.6-3.4-20.1-12.9-20.6-23c-0.4-7.7,3.2-14.8,7-22.4c1.6-3.2,3.3-6.4,4.6-9.7
		c8.5-21.4,2-47.2-3.3-68.1c-0.6,1.1-1.3,2.2-2,3.3c5.1,20,10.6,44.2,2.7,64c-1.3,3.2-2.9,6.4-4.5,9.6c-2.4,4.7-4.8,9.4-6.1,14.3
		c0.3-0.1,0.7,0,1,0.2c0.6,0.4,0.8,1.1,0.4,1.6c-0.9,1-1.6,2.1-2.3,3.2c-0.1,1.4-0.2,2.7-0.2,4.1c0.6,11,9.9,21.4,22.5,25.1
		c3.5,1,7.3,1.5,11,1.5c9.6,0,19.1-3.3,25.6-9.2c0.4-0.3,0.4-0.8,0.2-1.2c-0.2-0.4-0.7-0.7-1.2-0.7c-1.3-0.1-3-0.5-4.7-1.1
		C85.1,671.1,85.4,671.7,85.2,672.2z"/>
	<path id="XMLID_8526_" class="st0" d="M71,653.5c-0.7-0.1-1.5,0.3-1.6,0.9c0,0.1,0,0.1,0,0.2c0,0.6,0.6,1.2,1.3,1.2c0,0,0,0,0.1,0
		c0.7,0,1.2-0.4,1.3-1C72.1,654.2,71.7,653.6,71,653.5z"/>
	<path id="XMLID_8525_" class="st0" d="M15.2,702c-0.5,0-0.9-0.2-1.1-0.5c-0.3-0.3-0.3-0.8-0.1-1.2c0.4-0.6,0.6-1.3,0.9-1.9
		c-0.1,0-0.1,0-0.2,0c-0.5,0.2-0.8,0.6-0.8,1.1c0.1,1.8-1.1,3.6-3.2,4.9c-2.7,1.5-6.2,1.9-8.9,1c-5.8-2.1-8-7.8-7.6-12.3
		c0.4-5.1,3.6-10,6.7-14.5l2.5-3.5c1.4-2,2.9-4.1,4.3-6.2c-0.4-0.6-0.8-1.3-1.2-1.9c-0.2-0.3-0.2-0.6-0.1-0.9
		c-1.7,2.6-3.5,5.2-5.4,7.8l-2.5,3.6c-3.3,4.8-6.6,9.9-7.1,15.5c-0.5,5.3,2.3,12.1,9.3,14.6c3.6,1.3,8.1,0.8,11.6-1.2
		c1.9-1.1,3.2-2.5,3.9-4c1.2,1.7,1.8,3.8,1.6,6.1c-0.2,3.5-2.2,6.8-5.2,8.8c-5.9,3.9-15.3,3.7-21.9-0.4c-6-3.8-9.5-10.5-9.2-17.6
		c0.4-7.4,4.4-14,8.7-21.1c2.1-3.4,4.2-6.9,5.9-10.5c7.7-16.4,4.8-36-6.6-50.9c0.2,0.9,0.4,1.8,0.6,2.6c0.4,1.7,0.7,3.2,1,4.6
		c7.5,13.3,8.8,29.2,2.4,42.8c-1.6,3.5-3.7,6.9-5.8,10.2c-4.2,6.9-8.6,14.1-9,22c-0.4,7.8,3.5,15.3,10.2,19.5
		c3.9,2.4,8.6,3.7,13.3,3.7c4.4,0,8.7-1.1,12-3.3c3.7-2.4,6-6.3,6.3-10.5c0.2-2.6-0.6-5-1.9-7.1c-1,0.4-2,0.6-3.2,0.7
		C15.2,702,15.2,702,15.2,702z"/>
	<path id="XMLID_8524_" class="st0" d="M-18.9,608.2c1.1,1,2.2,2.1,3.4,3c0.5,0.4,0.6,1.2,0,1.6c-0.3,0.2-0.6,0.3-1,0.3
		c-0.3,0-0.7-0.1-0.9-0.3c1.5,1.5,2.8,3.1,4.1,4.7c-0.4-1.7-0.8-3.4-1.2-5.3c-1.3-1.4-2.7-2.7-4.2-4
		C-18.6,608.2-18.8,608.3-18.9,608.2z"/>
	<path id="XMLID_8523_" class="st0" d="M17.6,626.5c-0.5-4.3-1.1-8.8-1-13.2c0.3-19.4,12.4-37.3,23.1-53.1c0,0,0-0.1,0-0.1
		c-0.2,0.4-0.5,0.8-0.7,1.1c-0.3,0.4-0.7,0.6-1.2,0.6c-0.2,0-0.5,0-0.7-0.1c-0.7-0.3-0.9-1-0.5-1.5c-10.7,15.8-22.5,33.6-22.8,53.2
		c-0.1,4.5,0.5,9.1,1,13.5c0.8,6.3,1.5,12.7,0.5,19c-1.2,7.2-4.9,13.9-9.1,20.3c0.1-0.3,0.3-0.5,0.6-0.7c0.7-0.3,1.5-0.1,1.9,0.4
		c0.1,0.2,0.2,0.4,0.4,0.6c4.2-6.4,7.7-13.1,9-20.4C19.2,639.5,18.4,632.9,17.6,626.5z"/>
	<path id="XMLID_8522_" class="st0" d="M-20.5,608.3c-0.5,0.4-0.6,1.2,0,1.6c1.1,1,2.2,1.9,3.2,3c0.3,0.2,0.6,0.3,0.9,0.3
		c0.4,0,0.7-0.1,1-0.3c0.5-0.5,0.5-1.2,0-1.6c-1.2-1-2.3-2-3.4-3C-19.4,607.9-20,607.9-20.5,608.3z"/>
	<path id="XMLID_8521_" class="st0" d="M-9.6,630.4c0,0-0.1,0-0.1,0c-0.7-0.1-1.2-0.6-1.2-1.1c0,0,0,0.1,0,0.1
		c1.7,20.6-10.7,29.3-17.4,34c-1.1,0.8-2,1.4-2.8,2c-1.1,0.9-2.3,1.8-3.5,2.7c-4.3,3.4-8.8,6.9-12.1,11.1c-5,6.2-6.5,13.2-4,18.7
		c1.6,3.5,5.1,6.5,9.4,7.9c2.9,1,5.9,1.2,8.7,0.5l0,1c-13.3,5.7-25.1-0.2-32.7-6.3c0,0,0,0,0,0c0.5,0.5,0.4,1.2-0.1,1.6
		c-0.3,0.2-0.6,0.3-0.9,0.3c-0.4,0-0.7-0.1-1-0.4c0,0,0,0,0,0.1c7.8,6.2,15.7,9.3,23.6,9.3c4.4,0,8.8-1,13.1-3
		c0.4-0.2,0.7-0.6,0.7-1l-0.1-3.3c0-0.4-0.3-0.7-0.7-0.9c-0.4-0.2-0.9-0.2-1.3,0c-2.5,1-5.4,1-8.3,0c-3.6-1.2-6.6-3.7-7.9-6.6
		c-2.2-4.9-0.8-11.1,3.7-16.7c3.2-4,7.5-7.4,11.7-10.7c1.2-0.9,2.3-1.8,3.5-2.8c0.7-0.6,1.6-1.2,2.6-1.9
		c7.1-4.9,20.2-14.1,18.4-35.9c0,0,0,0,0,0c0,0.1,0,0.1,0,0.2C-8.3,629.9-8.9,630.4-9.6,630.4z"/>
	<path id="XMLID_8520_" class="st0" d="M-65.5,702.7c0.6-0.4,0.6-1.1,0.1-1.6c0,0,0,0,0,0c0,0,0,0-0.1,0c-0.5-0.4-1.4-0.4-2,0
		c-0.5,0.4-0.5,1.1,0,1.6c0.3,0.2,0.6,0.4,1,0.4C-66.1,703-65.8,702.9-65.5,702.7z"/>
	<path id="XMLID_8519_" class="st0" d="M65.2,499c-4.7,6-6.4,9.9-9.2,16.8c-1.7,4.1-3.3,8.4-4.9,12.7c-4.2,11.3-8.6,23-14.4,31.6
		c0,0,0,0,0,0c0.2-0.3,0.5-0.7,0.7-1c0.4-0.6,1.2-0.7,1.9-0.4c0.6,0.3,0.8,0.9,0.5,1.5c0.1-0.2,0.3-0.4,0.4-0.6
		c-0.3-1.1-0.5-2.1-0.8-3.2c-0.2-0.6,0.3-1.2,1.1-1.4c0.8-0.1,1.5,0.3,1.6,0.9c0,0.1,0.1,0.2,0.1,0.3c4.5-8,8.1-17.6,11.6-27
		c1.6-4.2,3.1-8.4,4.7-12.4c-0.3-0.4-0.5-0.9-0.8-1.4c-0.4-0.6-0.1-1.2,0.6-1.5c0.4-0.2,0.9-0.1,1.3,0.1c2.2-5.4,3.9-8.7,7.9-13.8
		c5.2-6.5,11.1-10.4,18-11.8c-0.1,0-0.3-0.1-0.4-0.1c-0.5-0.1-0.8-0.4-0.9-0.8c-0.1-0.4,0.1-0.8,0.4-1.1c0.1-0.1,0.1-0.1,0.2-0.2
		C77.2,487.8,70.8,492,65.2,499z"/>
	<path id="XMLID_8518_" class="st0" d="M84.2,487.5c0.1,0.4,0.5,0.7,0.9,0.8c0.1,0,0.3,0.1,0.4,0.1c0.1,0,0.2-0.1,0.3-0.1
		c0.7-0.1,1.2-0.8,1-1.4c-0.2-0.6-0.9-1-1.7-0.9c-0.1,0-0.3,0.1-0.4,0.1c-0.1,0.1-0.1,0.1-0.2,0.2C84.2,486.7,84,487.1,84.2,487.5z"
		/>
	<path id="XMLID_8517_" class="st0" d="M40.4,554.9c-0.7,0.1-1.2,0.7-1.1,1.4c0.3,1,0.5,2.1,0.8,3.2c0.7-1.1,1.3-2.2,2-3.3
		c0-0.1-0.1-0.2-0.1-0.3C41.9,555.2,41.2,554.8,40.4,554.9z"/>
	<path id="XMLID_8516_" class="st0" d="M37.2,561.7c0.2,0.1,0.4,0.1,0.7,0.1c0.5,0,0.9-0.2,1.2-0.6c0.2-0.4,0.5-0.8,0.7-1.1
		c0.3-0.5,0.1-1.2-0.5-1.5c-0.7-0.3-1.5-0.1-1.9,0.4c-0.2,0.3-0.5,0.7-0.7,1C36.3,560.7,36.5,561.3,37.2,561.7z"/>
	<path id="XMLID_8515_" class="st0" d="M31.3,647.9c-7,8.6-9.5,18.2-8.2,31.8c0.1,1,0.2,2,0.4,3.1c0.4,3.2,0.8,6.3,0.1,9.2
		c-0.7,2.9-2.8,5.9-6,7.1c4.7-10.3-1.2-21.8-8.5-32.8c-0.5,0.8-1,1.6-1.6,2.4c6.6,10.1,11.5,20.6,7.3,29.6c0.5-0.1,1,0,1.3,0.3
		c0.9,0.8,1.7,1.7,2.3,2.6c4.3-1.5,7-5.3,7.8-8.8c0.8-3.3,0.4-6.7-0.1-9.9c-0.1-1-0.3-2-0.4-3c-1.1-11.4,0.6-19.8,5.4-27.2
		c0.2-1.7,0.5-3.3,0.9-4.9C31.9,647.5,31.5,647.6,31.3,647.9z"/>
	<path id="XMLID_8514_" class="st0" d="M6.2,666C6.2,666,6.2,666,6.2,666C6.2,666,6.2,666,6.2,666z"/>
	<path id="XMLID_8513_" class="st0" d="M33.3,647.6c-0.3-0.2-0.7-0.2-1-0.2c-0.5,1.6-0.7,3.3-0.9,4.9c0.7-1.1,1.5-2.1,2.3-3.2
		C34.1,648.7,33.9,647.9,33.3,647.6z"/>
	<path id="XMLID_8512_" class="st0" d="M14.8,698.4c-0.3,0.6-0.5,1.3-0.9,1.9c-0.2,0.4-0.2,0.8,0.1,1.2c0.3,0.3,0.7,0.5,1.1,0.5
		c0,0,0.1,0,0.1,0c1.2-0.1,2.2-0.4,3.2-0.7c-0.6-1-1.4-1.9-2.3-2.6C15.8,698.4,15.3,698.3,14.8,698.4z"/>
	<path id="XMLID_8511_" class="st0" d="M6.8,665.3c-0.3,0.1-0.5,0.4-0.6,0.7c0,0,0,0,0,0c-0.1,0.3-0.1,0.6,0.1,0.9
		c0.4,0.6,0.8,1.3,1.2,1.9c0.5-0.8,1.1-1.6,1.6-2.4c-0.1-0.2-0.2-0.4-0.4-0.6C8.4,665.2,7.5,665,6.8,665.3z"/>
	<path id="XMLID_8510_" class="st0" d="M61.2,634.7c0.4-9.6,3.5-19.1,6.5-28.3c1.6-5,3.3-10.2,4.6-15.4c6.6-27.5,2.5-53.2-12.1-76.5
		c-0.1-0.2-0.3-0.3-0.5-0.4c-0.3,0.8-0.7,1.6-1,2.5c0,0.1-0.1,0.2-0.1,0.3c13.6,22.5,17.4,47.3,11.1,73.7
		c-1.2,5.1-2.9,10.3-4.5,15.3c-3,9.3-6.2,19-6.6,28.9c-0.6,14.2,6.2,30.8,22.4,37.3c-2.9-1.3-5.7-3.2-8-5.6
		c-1.6-1.8-2.7-3.6-3.3-5.6C63.4,653.4,60.8,643.5,61.2,634.7z"/>
	<path id="XMLID_8509_" class="st0" d="M84.4,670.7c-0.9-0.3-1.7-0.6-2.6-1c0.9,0.5,1.8,0.8,2.7,1.1
		C84.5,670.8,84.4,670.7,84.4,670.7z"/>
	<path id="XMLID_8508_" class="st0" d="M69.6,660.8c0.6,1.9,1.7,3.8,3.3,5.6c2.2,2.4,5.1,4.2,8,5.6c0.8,0.3,1.6,0.7,2.5,0.9
		c0.2,0.1,0.3,0.1,0.5,0.1c0.6,0,1.1-0.3,1.3-0.7c0.2-0.5-0.1-1.1-0.6-1.3c-0.9-0.3-1.8-0.6-2.7-1.1
		C76.8,667.7,72.7,664.6,69.6,660.8z"/>
	<path id="XMLID_8507_" class="st0" d="M59.6,514c-0.4-0.2-0.9-0.3-1.3-0.1c-0.7,0.3-0.9,1-0.6,1.5c0.3,0.4,0.5,0.9,0.8,1.4
		c0-0.1,0.1-0.2,0.1-0.3C58.9,515.6,59.3,514.8,59.6,514z"/>
	<path id="XMLID_8506_" class="st0" d="M-14.2,463.6l2,4c9.7,19,14.5,28.6,2.6,47.8c2.2-2.2,4.4-4.4,6.6-6.7
		c6.8-15.4,1.7-25.5-6.6-42l-2-4c-4.7-9.3-11.5-18.1-18.1-26.5c-10.4-13.3-20.3-25.9-22.8-41c-0.7,0.8-1.5,1.6-2.3,2.4
		c3.1,14.6,13,27.5,22.7,39.8C-25.5,445.8-18.8,454.4-14.2,463.6z"/>
	<path id="XMLID_8505_" class="st0" d="M-52.5,395.1c-0.1-0.6-0.8-1.1-1.6-1c-0.8,0.1-1.3,0.7-1.2,1.3c0.1,0.7,0.3,1.4,0.5,2.1
		C-54,396.8-53.2,396-52.5,395.1C-52.5,395.2-52.5,395.2-52.5,395.1z"/>
	<path id="XMLID_8504_" class="st0" d="M-9.1,517c0.2,0.1,0.4,0.1,0.6,0.1c0.5,0,1-0.2,1.2-0.6c1.7-2.8,3.1-5.4,4.2-7.9
		c-2.2,2.3-4.4,4.5-6.6,6.7c0,0,0,0.1-0.1,0.1C-10,516-9.7,516.7-9.1,517z"/>
	<path id="XMLID_8503_" class="st0" d="M-34.6,546.4l-0.7,0.1c-0.3,1.7-0.8,3.4-1.4,5C-36.1,549.7-35.4,548-34.6,546.4z"/>
	<path id="XMLID_8502_" class="st0" d="M-37.3,553.5C-37.3,553.5-37.3,553.5-37.3,553.5c0-0.1,0.1-0.2,0.1-0.3
		C-37.2,553.2-37.2,553.4-37.3,553.5z"/>
	<path id="XMLID_8501_" class="st0" d="M-33.3,543.7c0.4-0.8,1-1.5,1.4-2.2c0.6-13.2-4.3-28.1-10.6-38.7c-4.6-7.8-10.4-15.1-16-22.2
		c-4.6-5.8-9.3-11.8-13.3-18c-9.6-14.6-13.4-27.9-11.5-39.7c-1.1,2.4-2.2,4.8-3.2,7.3c0.3,10.3,4.4,21.5,12.2,33.5
		c4.1,6.2,8.8,12.3,13.4,18.1c5.5,7.1,11.3,14.4,15.8,22c6.5,10.9,11.4,26.4,10.2,39.6c0.5,0.2,0.9,0.4,1.4,0.6
		C-33.4,543.8-33.3,543.8-33.3,543.7z"/>
	<path id="XMLID_8500_" class="st0" d="M-34,552.3c-0.1,0.4-0.3,0.9-0.4,1.3C-34.3,553.2-34.2,552.7-34,552.3z"/>
	<path id="XMLID_8499_" class="st0" d="M-83.3,417C-83.3,417-83.3,417-83.3,417c-0.8-0.2-1.5,0.2-1.7,0.8c-0.4,1.2-0.6,2.5-0.8,3.8
		c0.7-1.4,1.3-2.8,2.1-4.2C-83.7,417.3-83.5,417.1-83.3,417z"/>
	<path id="XMLID_8498_" class="st0" d="M-86.5,430.1c0.9-2.5,2-4.9,3.2-7.3c0.2-1.5,0.6-3,1-4.4c0.2-0.6-0.3-1.2-1-1.4
		c-0.2,0.1-0.3,0.3-0.4,0.4c-0.7,1.4-1.4,2.8-2.1,4.2C-86.3,424.3-86.5,427.2-86.5,430.1z"/>
	<path id="XMLID_8497_" class="st0" d="M-33.4,543.9c-0.5-0.2-1-0.4-1.4-0.6c-0.1,1.1-0.2,2.1-0.4,3.1l0.7-0.1
		C-34.2,545.5-33.8,544.7-33.4,543.9z"/>
	<path id="XMLID_8496_" class="st0" d="M-32.3,544.9c0.1-1.1,0.4-2.3,0.4-3.4c-0.4,0.8-1,1.5-1.4,2.2c0,0.1-0.1,0.2-0.1,0.2
		c0.1,0,0.2,0.1,0.4,0.1C-32.6,544.2-32.4,544.5-32.3,544.9z"/>
	<path id="XMLID_8495_" class="st0" d="M-33.4,546.2l-1.2,0.1c-0.8,1.7-1.5,3.4-2,5.1c-0.2,0.6-0.3,1.2-0.5,1.7
		c0,0.1-0.1,0.2-0.1,0.4c-0.2,0.6,0.1,1.2,0.8,1.4c0.2,0,0.3,0.1,0.5,0.1c0.6,0,1.1-0.3,1.3-0.7c0.1-0.2,0.1-0.5,0.2-0.7
		c0.1-0.4,0.3-0.9,0.4-1.3c0.8-2.1,1.3-4.4,1.7-6.7C-32.6,545.9-32.9,546.2-33.4,546.2z"/>
	<path id="XMLID_8494_" class="st0" d="M-32.4,545.5c0-0.2,0.1-0.4,0.1-0.6c-0.1-0.4-0.3-0.7-0.8-0.9c-0.1,0-0.2-0.1-0.4-0.1
		c-0.4,0.8-0.8,1.6-1.2,2.5l1.2-0.1C-32.9,546.2-32.6,545.9-32.4,545.5z"/>
	<path id="XMLID_8493_" class="st0" d="M-11.7,579.5C-6.2,567.2,2.6,556,11,545.1c2.8-3.6,5.5-7.1,8.2-10.7
		c34.3-46.4,48.4-86.1,48.5-137.1c0,0,0,0,0,0c0,0.6-0.5,1.1-1.3,1.2c0,0-0.1,0-0.1,0c-0.7,0-1.3-0.5-1.4-1.1c0,0,0,0,0-0.1
		c-0.1,50.5-14.1,89.9-48.1,135.9c-2.7,3.6-5.4,7.1-8.2,10.7c-8.5,11-17.4,22.4-23,34.8c-4.3,9.5-2.4,22.7-0.1,33.6
		c1.3,1.4,2.6,2.9,3.8,4.4C-13.2,605.4-16.3,589.9-11.7,579.5z"/>
	<path id="XMLID_8492_" class="st0" d="M-12.7,619.8c1,4.3,1.9,8,1.7,9.3c0,0,0,0.1,0,0.1c0-0.6,0.5-1.1,1.2-1.1
		c0.8,0,1.4,0.4,1.5,1.1c0.1-1.1-0.2-2.9-0.7-5.2c-1.2-2.2-2.7-4.3-4.3-6.4C-13,618.3-12.9,619.1-12.7,619.8z"/>
	<path id="XMLID_8491_" class="st0" d="M-10.6,616.7c-1.2-1.5-2.4-3-3.8-4.4c0.4,1.8,0.8,3.6,1.2,5.3c1.6,2,3,4.2,4.3,6.4
		c-0.3-1.4-0.6-2.9-1-4.6C-10.2,618.5-10.4,617.6-10.6,616.7z"/>
	<path id="XMLID_8490_" class="st0" d="M-9.7,628.1c-0.7,0-1.2,0.5-1.2,1.1c0,0.6,0.5,1.1,1.2,1.1c0,0,0.1,0,0.1,0
		c0.7,0,1.3-0.4,1.4-1c0-0.1,0-0.1,0-0.2C-8.3,628.5-8.9,628.1-9.7,628.1z"/>
	<path id="XMLID_8489_" class="st0" d="M-248.5,148.6c0.3,0,0.7,0.2,0.9,0.4c0.5,0.5,0.8,1,1.3,1.5c0,0,0,0,0.1,0.1c0,0,0,0,0,0
		c0,0,0.1,0.1,0.1,0.1c4.8-24,18.4-43.2,67.6-58.5c-0.3,0-0.5,0-0.8,0.1c-5.8,1.4-11.4,3-17,5c-12.1,5.7-21.5,10.3-29.4,14.7
		C-239.6,122.8-245.6,134.9-248.5,148.6z"/>
	<path id="XMLID_8488_" class="st0" d="M-176.4,89c-0.6,0.2-1.2,0.4-1.8,0.6c0.8-0.2,1.6-0.4,2.4-0.6C-176,89-176.2,88.9-176.4,89z"
		/>
	<path id="XMLID_8487_" class="st0" d="M-179.4,92.2c-0.4,0-0.9,0.1-1.3,0.1c-0.8,0.1-1.5-0.3-1.6-1c0-0.2,0.1-0.4,0.2-0.5
		c-19.8,6.4-33.8,13.4-43.7,21.2c7.9-4.5,17.3-9,29.4-14.7C-190.8,95.3-185.2,93.6-179.4,92.2z"/>
	<path id="XMLID_8486_" class="st0" d="M-174.9,89.4c-0.2-0.3-0.6-0.4-1-0.4c-0.8,0.2-1.6,0.4-2.4,0.6c-0.3,0.1-0.6,0.2-0.9,0.3
		C-177.7,89.7-176.3,89.6-174.9,89.4z"/>
	<path id="XMLID_8485_" class="st0" d="M-248,149.8c0.7-0.2,1.4,0.2,1.7,0.7c-0.4-0.5-0.8-1-1.3-1.5c-0.2-0.2-0.6-0.3-0.9-0.4
		c-0.1,0.5-0.2,0.9-0.3,1.4C-248.6,149.9-248.3,149.8-248,149.8z"/>
	<path id="XMLID_8484_" class="st0" d="M-246.6,151.5c-0.1,0.1-0.3,0.2-0.4,0.3C-246.9,151.7-246.7,151.7-246.6,151.5z"/>
	<path id="XMLID_8483_" class="st0" d="M-246.4,151.2c0-0.1,0.1-0.1,0.1-0.2c0-0.1,0.1-0.2,0.1-0.4c0,0-0.1-0.1-0.1-0.1
		C-246.2,150.8-246.3,151-246.4,151.2z"/>
	<path id="XMLID_8482_" class="st0" d="M-248.2,152.2c-0.5-0.6-1-1.2-1.6-1.8c0,0,0-0.1-0.1-0.2c-9.6,3-21,10.9-29.6,19.1
		c-2.8,4.4-5.7,9.2-8.3,14.1C-281.9,172.9-262.3,156.2-248.2,152.2z"/>
	<path id="XMLID_8481_" class="st0" d="M-290.4,183C-290.4,183-290.4,183-290.4,183c0-0.1,0.1-0.1,0.1-0.2
		C-290.3,182.8-290.4,182.9-290.4,183z"/>
	<path id="XMLID_8480_" class="st0" d="M-289.7,184.5c0.2,0.1,0.4,0.1,0.5,0.1c0.5,0,1-0.3,1.3-0.7c0-0.1,0.1-0.2,0.2-0.3
		c2.6-5,5.4-9.8,8.3-14.1c-4.8,4.6-8.7,9.3-10.8,13.3c0,0.1-0.1,0.2-0.1,0.3C-290.7,183.6-290.4,184.2-289.7,184.5z"/>
	<path id="XMLID_8479_" class="st0" d="M-246.4,151.2c-0.1,0.1-0.1,0.2-0.2,0.3C-246.5,151.4-246.5,151.3-246.4,151.2z"/>
	<path id="XMLID_8478_" class="st0" d="M-247.1,151.8c-0.2,0.1-0.4,0.2-0.6,0.2c-0.1,0-0.1,0-0.2,0c-0.8-0.1-1.3-0.7-1.1-1.3
		c0-0.2,0.1-0.4,0.1-0.7c-0.3,0.1-0.7,0.2-1,0.3c0,0.1,0,0.1,0.1,0.2c0.6,0.6,1,1.2,1.6,1.8c0.3-0.1,0.7-0.2,1-0.3
		C-247.2,151.9-247.1,151.9-247.1,151.8z"/>
	<path id="XMLID_8477_" class="st0" d="M-246.3,150.5C-246.3,150.5-246.4,150.5-246.3,150.5C-246.4,150.5-246.3,150.5-246.3,150.5
		C-246.3,150.5-246.3,150.5-246.3,150.5z"/>
	<path id="XMLID_8476_" class="st0" d="M-248,149.8c-0.3,0.1-0.5,0.2-0.8,0.2c0,0.2-0.1,0.4-0.1,0.7c-0.1,0.6,0.4,1.2,1.1,1.3
		c0.1,0,0.1,0,0.2,0c0.2,0,0.4-0.1,0.6-0.2c0.2-0.1,0.3-0.2,0.4-0.3c0.1-0.1,0.2-0.2,0.2-0.3c0.1-0.2,0.2-0.4,0.1-0.7
		c0,0,0,0-0.1-0.1C-246.6,149.9-247.3,149.6-248,149.8z"/>
	<path id="XMLID_8475_" class="st0" d="M-178.6,92.2c32.7-3.5,68.6,3.4,101.2,19.6c50,24.8,89.9,69.8,112.3,126.8
		c20.2,51.3,25.2,105.9,30,158.7c0,0,0,0,0,0c0-0.6,0.6-1.1,1.4-1.1h0c0.7,0,1.3,0.5,1.4,1.1c0,0,0,0,0,0
		c-4.9-53-9.9-107.8-30.2-159.3C14.9,180.4-25.4,134.9-76,109.8c-27.7-13.8-57.8-20.9-86.4-20.9c-5,0.7-9.9,1.6-14.7,2.7
		C-177.6,91.8-178.1,92-178.6,92.2z"/>
	<path id="XMLID_8474_" class="st0" d="M-181.1,90.1c-0.3,0-0.6,0.2-0.8,0.4c0.8-0.2,1.5-0.4,2.3-0.5C-180.1,90-180.6,90-181.1,90.1
		z"/>
	<path id="XMLID_8473_" class="st0" d="M-182.1,90.8c1-0.3,2-0.6,3-1c-0.2,0-0.4,0-0.5,0.1c-0.8,0.2-1.5,0.3-2.3,0.5
		C-182,90.6-182,90.7-182.1,90.8z"/>
	<path id="XMLID_8472_" class="st0" d="M-175.4,91.2c-0.6,0.2-1.1,0.4-1.7,0.5c4.9-1.1,9.8-2,14.7-2.7c-4.2,0-8.4,0.2-12.5,0.5
		c0.1,0.1,0.2,0.1,0.3,0.2C-174.3,90.3-174.7,90.9-175.4,91.2z"/>
	<path id="XMLID_8471_" class="st0" d="M66.4,398.4c0,0,0.1,0,0.1,0c0.7,0,1.3-0.6,1.3-1.2c0-0.6-0.6-1.1-1.4-1.1h0
		c-0.8,0-1.4,0.5-1.4,1.1c0,0,0,0,0,0c0,0,0,0,0,0.1C65,397.9,65.6,398.4,66.4,398.4z"/>
	<path id="XMLID_8470_" class="st0" d="M-177.1,91.7c-0.8,0.2-1.5,0.4-2.3,0.5c0.3,0,0.5,0,0.8-0.1C-178.1,92-177.6,91.8-177.1,91.7
		z"/>
	<path id="XMLID_8469_" class="st0" d="M-182.1,90.8c-0.1,0.2-0.2,0.3-0.2,0.5c0.1,0.6,0.8,1,1.6,1c0.4-0.1,0.9-0.1,1.3-0.1
		c0.8-0.2,1.5-0.4,2.3-0.5c0.6-0.2,1.1-0.4,1.7-0.5c0.7-0.2,1.1-0.9,0.8-1.5c0-0.1-0.2-0.2-0.3-0.2c-1.4,0.1-2.8,0.3-4.2,0.4
		C-180.1,90.2-181.1,90.5-182.1,90.8z"/>
	<path id="XMLID_8468_" class="st0" d="M-59.9,661.1c5.4-3.6,16.7-11.1,15.5-27.5c-0.5-6.6-2.3-13.1-4.1-19.5
		c-1.5-5.3-3-10.8-3.7-16.2c-1.3-10,1.4-23.4,12.9-29.6c0-0.9,0-1.9,0-2.8c-13.9,6.3-17.1,21.5-15.7,32.6c0.7,5.6,2.3,11.1,3.8,16.5
		c1.7,6.2,3.5,12.7,4,19.1c1.1,15.2-9,22-14.5,25.6c-0.9,0.6-1.7,1.1-2.2,1.5c0.6-0.4,1.4-0.3,1.9,0.2c0.5,0.5,0.4,1.1-0.1,1.6
		c0,0,0,0,0,0C-61.5,662.2-60.8,661.7-59.9,661.1z"/>
	<path id="XMLID_8467_" class="st0" d="M-62,661.1c-0.5-0.5-1.3-0.5-1.9-0.2c0,0-0.1,0.1-0.1,0.1c-0.5,0.4-0.5,1.2,0,1.6
		c0.3,0.2,0.6,0.3,1,0.3c0.3,0,0.7-0.1,0.9-0.3C-61.5,662.2-61.5,661.5-62,661.1z"/>
	<path id="XMLID_8466_" class="st0" d="M-37.1,565.8c-0.4-0.6-1.2-0.8-1.9-0.5c-0.1,0-0.2,0.1-0.3,0.2c0,0.9,0,1.9,0,2.8
		c0.6-0.3,1-0.7,1.6-0.9C-37,567.1-36.8,566.4-37.1,565.8z"/>
</g>
</svg>
