<?xml version="1.0" encoding="utf-8"?>
<!-- Generator: Adobe Illustrator 19.0.0, SVG Export Plug-In . SVG Version: 6.00 Build 0)  -->
<svg version="1.1" id="Layer_1" xmlns="http://www.w3.org/2000/svg" xmlns:xlink="http://www.w3.org/1999/xlink" x="0px" y="0px"
	 viewBox="0 0 333.1 314.9" style="enable-background:new 0 0 333.1 314.9;" xml:space="preserve">
<style type="text/css">
	.st0{fill:#EF7B05;}
	.st1{fill:#FFFFFF;}
</style>
<g id="XMLID_1096_">
	<path id="XMLID_1917_" class="st0" d="M42.3,299.6c-1.9-5.2-4.7-10.4-6-15.6c-1.6-6.3-1.1-12.8-3.3-18.9c-1.7-4.7-5.3-8.3-6.3-13.1
		c-1.2-5.9,1.1-9.6,1.8-15.1c0.2-1.6-2.1-17.4-2.9-17.4c-2.5,0.1-3.6,2.9-5.4,4c-8.4-13.6,2.3-26,2.3-39.8c0-7.1-1.8-14.1-1.1-21.1
		c0.6-5.5,4.2-13,2.2-18.4c-0.8,1.5-1.5,3.2-1.5,4.9c-2.3-5.7-4.8-13.9-3-20c2-6.7,7.8-14,11.6-20.1c3.9-6.2,7.9-14.4,13.7-19.1
		c-6.5,1.5-10.2,7.7-13.6,12.6c2.6-12.9,6.7-23.4,17.6-32c5.2-4.1,13.7-8.9,20.6-8.6c-0.8-7.6,11.1-15.5,16.8-19.6
		c-4.4-0.8-8.1,2.5-12,3.1c1-0.2,6.5-7.6,8.5-8.7c4-2.3,8.6-3.3,12.8-5.1c-2.6-0.9-3.4-2.8-4.7-4c0.5,0.4,7.3-1.1,8.6-1
		c3.6,0.5,7,2.5,10.2,4c-3.1-2.2-5.9-4.8-8.7-7.3c6.2-3.1,16.3-4.3,22.1,0.3c-5.8-4.5-7.7-9,1.2-9.2c8.7-0.3,16.2,3.8,24.8,4.4
		c10.2,0.8-1.1-8.5-5-10.5c1.9,1,7.9-0.2,10.5,0.3c3.4,0.7,6.5,2,9.9,2.8c8.4,1.9,16.7,4.5,25.1,6c1.9-6.1,9.5-9,15.6-8.8
		c-1.6,2.2-1.4,4.5-1.5,7.1c4.9-0.2,9.6-4.5,14.4-5.5c-1.7,6-2.9,11.7,1.2,17.1c3,3.9,9.1,5.6,12.5,9.8c-0.3-5.7,10.3-12,15.4-14
		c-2.1,3.2-3.4,7.2-4.8,10.6c5.5,0.1,9.8-2,13,4.2c-1-2,8.7-1.4,10.4,1c2.2,3.2-0.4,5.7-2.1,8.6c-1.7,2.9-1.2,7.3,1.3,9.7
		c11.5-3.5,30.9,13.9,33.7,24c-1.9-0.7-3.9-1.3-5.8-2.3c6.8,3.7,11.6,11.9,14,18.6c-2.6-1.3-5.8-3.3-8.5-3.9
		c4.9,1.1,9.1,13.4,11.9,16.9c-3.7,6.3,4.8,10,5.8,15.5c0,0.1-2.2,5.3-2.2,6.7c-0.1,3.6,2.3,6.5,3.1,9.9c0.9,4.2,1.3,7.8,1.5,12
		c0.1,4.5,2.4,7.9,3.3,12.2c0.8,3.9,1,8,0.6,11.9c-1-2.4-1.9-6.1-3.7-8.2c2.7,3.1,3.7,12.8,3.8,16.7c0.3,7.5-0.1,15.3-2.1,22.6
		c-1.6,6-2.9,13.2-1.6,19.4c-2.1-2.6-4.4-5.5-4.5-8.9c-1.9,4.9-2.8,17.3,0.3,21.7c-2-2.8-7.1,16.1-7.3,17c-1.3,8-2.6,14.3-6.2,21.8
		c-5.4-14.8,0.4-29.5-2.1-43.7c-0.9-5.2-6.4-11.7-9.5-16.5c-6.8-10.7-12.9-20.8-12.9-33.7c0-4.4,1.5-9.2-0.1-13.5
		c-0.7-2-2.5-3.1-3.3-4.8c-0.6-1.3-0.1-3-1-4.3c-3.5-4.9-11.9-1.6-16.9-3.8c-12.8-5.7-11.7-23.9-28-22.9c-4.1,0.2-6.8-0.6-10.3-2.5
		c-4.8-2.6-8.5-5.9-12.1-9.9c-6.9-7.5-10-9.5-20.8-9.6c-10.5-0.2-20.9,1.5-31.4,1.5c-8.2,0-12.3-0.1-19.8,2.3
		c-6.8,2.1-12.8-0.4-19.8,1c-3.9,0.8-9.6,4.6-11.1,8.1c2.2,0,4.3,1.4,6.7,1.1c0,0.3-0.1,1.9,0,2.2c-7.6,2.9-28.7-4.3-32.7,0.6
		c-6.6,8.1,9.2,13,14.9,12c0.3-0.3,0.3-0.3,0,0c-6.7,6-19.2,3.4-23.9-4.1c0.6,0.9-3.9,10.9-4.3,12.6c-0.9,3.8-0.6,6-0.2,9.6
		c1,9.8-2.2,19.7-2.4,29.4c-0.2,8.6,1.2,17.3-0.7,25.8c-1.4,6.5-5.9,10.5-9.4,16.4c-6.9,11.5-2.6,22.7-3.8,35
		C44.9,278.1,39,290.6,42.3,299.6z"/>
	<g id="XMLID_1718_">
		<g id="XMLID_1915_">
			<path id="XMLID_1916_" class="st1" d="M186.7,83c0,0-1.8,0.2-4.5,0.6c-2.7,0.4-6.3,0.9-9.9,1.7c-3.6,0.8-7,1.9-9.6,2.9
				c-1.3,0.5-2.3,1-3,1.3c-0.7,0.3-1.1,0.6-1.2,0.6c0,0-0.4,0.2-1.1,0.5c-0.7,0.4-1.7,0.9-2.8,1.6c-2.2,1.4-4.9,3.5-7.1,6.2
				c-1.1,1.3-2,2.7-2.8,4.1c-0.7,1.4-1.3,2.8-1.6,4c-0.2,0.6-0.3,1.2-0.4,1.7c-0.1,0.5-0.2,1-0.2,1.3c-0.1,0.7-0.1,1.2-0.1,1.2
				s0-0.4,0-1.2c0-0.4,0-0.8,0.1-1.3c0.1-0.5,0.1-1.1,0.3-1.7c0.2-1.3,0.7-2.7,1.3-4.2c0.7-1.5,1.5-3,2.6-4.4c2.1-2.9,4.7-5.3,7-6.9
				c1.1-0.8,2.1-1.4,2.8-1.8c0.7-0.4,1.1-0.6,1.2-0.6c0,0,0.5-0.2,1.3-0.5c0.8-0.3,1.9-0.8,3.2-1.2c2.7-0.9,6.3-1.8,10-2.3
				c3.7-0.5,7.3-0.9,10.1-1.1C184.8,83.2,186.7,83,186.7,83z"/>
		</g>
		<g id="XMLID_1913_">
			<path id="XMLID_1914_" class="st1" d="M174.6,75c0,0-0.4,0.1-1.2,0.2c-0.8,0.2-1.9,0.3-3.2,0.7c-2.6,0.6-6,1.8-9.2,3.3
				c-3.2,1.6-6.1,3.5-8.2,5.1c-1.1,0.8-1.9,1.5-2.5,2c-0.6,0.5-0.9,0.8-0.9,0.8c0,0-0.4,0.3-0.9,0.8c-0.6,0.5-1.4,1.2-2.3,2.1
				c-1.9,1.7-4,4.3-6,7.1c-1.9,2.8-3.4,5.8-4.3,8.1c-0.5,1.1-0.7,2.2-1,2.8c-0.2,0.7-0.4,1.1-0.4,1.1s0.1-0.4,0.3-1.1
				c0.2-0.7,0.4-1.7,0.8-2.9c0.7-2.4,2.1-5.5,3.8-8.5c1.8-2.9,3.8-5.7,5.6-7.6c0.8-1,1.7-1.8,2.2-2.3c0.6-0.5,0.9-0.9,0.9-0.9
				c0,0,0.4-0.3,1-0.8c0.7-0.5,1.5-1.2,2.7-1.9c2.3-1.5,5.4-3.3,8.8-4.7c3.4-1.3,6.8-2.3,9.5-2.8c1.3-0.3,2.4-0.3,3.2-0.5
				C174.2,75.1,174.6,75,174.6,75z"/>
		</g>
		<g id="XMLID_1911_">
			<path id="XMLID_1912_" class="st1" d="M144.2,58.7c0,0,0.2,0.5,0.5,1.3c0.1,0.4,0.3,0.9,0.5,1.5c0.2,0.6,0.3,1.2,0.5,2
				c0.6,2.9,0.8,6.9-0.2,10.8c-0.3,1-0.5,1.9-0.9,2.9c-0.4,0.9-0.8,1.8-1.2,2.7c-0.5,0.8-1,1.6-1.4,2.4c-0.5,0.7-1,1.4-1.5,2
				c-1,1.2-1.9,2.1-2.6,2.8c-0.7,0.6-1,1-1.1,1c0,0-0.4,0.4-1.1,0.9c-0.7,0.6-1.7,1.3-2.8,2.3c-2.3,1.9-5.4,4.3-7.7,7.3
				c-2.3,3-3.7,6.7-3.8,9.5c0,1.4,0.2,2.6,0.4,3.4c0.3,0.8,0.5,1.2,0.5,1.2s-0.2-0.4-0.5-1.2c-0.3-0.8-0.6-2-0.7-3.4
				c-0.2-2.9,1.1-6.8,3.3-10c2.2-3.3,5.2-6,7.4-8c2.2-2,3.7-3.3,3.7-3.4c0,0,0.4-0.4,1.1-1c0.7-0.6,1.6-1.5,2.6-2.5
				c0.5-0.6,1-1.1,1.5-1.8c0.5-0.7,1-1.4,1.5-2.2c0.4-0.8,0.8-1.6,1.3-2.5c0.4-0.9,0.7-1.8,1-2.7c1.2-3.7,1.3-7.7,0.8-10.6
				c-0.1-0.7-0.2-1.4-0.3-2c-0.2-0.6-0.3-1.1-0.4-1.5C144.3,59.2,144.2,58.7,144.2,58.7z"/>
		</g>
		<g id="XMLID_1909_">
			<path id="XMLID_1910_" class="st1" d="M132.2,84.9c0,0-1,0.7-2.5,1.7c-1.5,0.9-3.3,2.5-5.1,4c-1.7,1.6-3.5,3.2-4.6,4.6
				c-0.6,0.7-1.1,1.2-1.4,1.6c-0.4,0.4-0.5,0.6-0.5,0.6c0,0-0.8,0.9-2,2.1c-0.3,0.3-0.6,0.7-0.9,1c-0.3,0.4-0.6,0.8-0.9,1.2
				c-0.7,0.8-1.4,1.7-2,2.6c-1.2,1.9-2.6,3.7-3.3,5.3c-0.8,1.5-1.3,2.5-1.3,2.5s0.4-1,1.1-2.6c0.6-1.6,1.7-3.6,2.7-5.6
				c0.6-1,1.2-1.9,1.8-2.9c0.3-0.5,0.6-0.9,0.8-1.3c0.3-0.4,0.6-0.8,0.8-1.1c1.1-1.4,1.8-2.3,1.8-2.4c0,0,0.2-0.3,0.6-0.6
				c0.4-0.4,1-0.9,1.6-1.5c1.3-1.3,3.2-2.7,5.1-4.2c2-1.3,4-2.7,5.6-3.5C131.2,85.5,132.2,84.9,132.2,84.9z"/>
		</g>
		<g id="XMLID_1907_">
			<path id="XMLID_1908_" class="st1" d="M124.7,85.1c0,0-1.4,0.6-3.4,1.5c-2,1-4.6,2.3-7.1,4c-2.5,1.6-4.7,3.5-6.4,4.9
				c-0.8,0.7-1.5,1.4-2,1.8c-0.5,0.5-0.7,0.7-0.8,0.7c0,0-0.3,0.2-0.8,0.7c-0.5,0.4-1.1,1-1.9,1.8c-1.5,1.5-3.4,3.5-4.7,6
				c-0.3,0.6-0.6,1.2-0.8,1.9c-0.2,0.6-0.3,1.3-0.5,1.9c-0.2,1.3-0.1,2.5,0.1,3.5c0.3,1,0.6,1.8,0.9,2.3c0.3,0.5,0.5,0.8,0.5,0.8
				s-0.2-0.3-0.6-0.8c-0.4-0.5-0.8-1.3-1.2-2.3c-0.3-1-0.5-2.3-0.4-3.6c0.1-0.7,0.1-1.4,0.3-2c0.2-0.7,0.5-1.3,0.7-2
				c1.1-2.7,3-5,4.4-6.6c0.7-0.8,1.4-1.5,1.8-2c0.4-0.5,0.7-0.7,0.7-0.8c0,0,0.3-0.3,0.8-0.7c0.5-0.4,1.2-1.1,2.2-1.7
				c1.8-1.3,4.3-3.1,6.9-4.5c2.6-1.5,5.4-2.7,7.4-3.5C123.3,85.6,124.7,85.1,124.7,85.1z"/>
		</g>
		<g id="XMLID_1905_">
			<path id="XMLID_1906_" class="st1" d="M119.3,68.4c0,0,0,0.1,0.1,0.3c0.1,0.2,0.2,0.5,0.3,1c0.2,0.8,0.4,2.1,0.2,3.6
				c-0.2,1.5-0.7,3.2-1.6,4.9c-0.9,1.7-2.1,3.4-3.5,4.9c-1.4,1.5-3,2.9-4.4,4.2c-1.4,1.3-2.9,2.4-4.1,3.4c-2.4,1.9-4.1,3.2-4.1,3.3
				c0,0-0.5,0.3-1.2,0.8c-0.7,0.5-1.7,1.3-2.9,2.2c-2.4,1.8-5.3,4.4-7.6,7.6c-2.3,3.1-3.8,6.8-4.2,9.6c-0.1,0.7-0.1,1.4-0.2,2
				c0,0.6,0,1.1,0.1,1.5c0.1,0.8,0.2,1.3,0.2,1.3s-0.1-0.5-0.2-1.3c-0.1-0.4-0.1-0.9-0.1-1.5c0-0.6,0-1.3,0.1-2
				c0.2-2.9,1.5-6.7,3.7-10.1c2.1-3.4,5-6.3,7.3-8.2c1.1-1,2.1-1.9,2.8-2.4c0.7-0.6,1.1-0.9,1.1-0.9c0.1,0,1.8-1.3,4.3-3.1
				c1.2-0.9,2.8-1.9,4.2-3.1c1.4-1.2,3.1-2.5,4.5-3.9c2.9-2.8,5-6.3,5.5-9.3c0.3-1.5,0.2-2.7,0-3.6c-0.1-0.4-0.2-0.7-0.3-1
				C119.4,68.6,119.3,68.4,119.3,68.4z"/>
		</g>
		<g id="XMLID_1903_">
			<path id="XMLID_1904_" class="st1" d="M135.8,56.3c0,0,0.1,0.2,0.4,0.6c0.2,0.4,0.6,0.9,0.9,1.6c0.7,1.3,1.4,3.3,1.7,5.3
				c0.3,2,0.1,4.1-0.2,5.6c-0.1,0.8-0.4,1.4-0.5,1.8c-0.1,0.5-0.2,0.7-0.3,0.7c0,0-0.1,0.2-0.4,0.6c-0.2,0.4-0.5,1-1.1,1.6
				c-0.9,1.3-2.4,2.7-4.1,3.9c-1.7,1.1-3.6,2-5,2.4c-0.7,0.3-1.3,0.3-1.8,0.4c-0.4,0.1-0.7,0.1-0.7,0.1s0.2-0.1,0.7-0.2
				c0.4-0.2,1-0.3,1.7-0.6c1.4-0.6,3.1-1.6,4.5-2.8c1.4-1.3,2.6-2.7,3.3-4c0.4-0.6,0.6-1.1,0.8-1.5c0.2-0.4,0.3-0.6,0.3-0.6
				c0,0,0.1-0.2,0.3-0.6c0.1-0.4,0.5-0.9,0.7-1.6c0.5-1.4,0.8-3.2,0.8-5.2c-0.1-1.9-0.4-3.9-1-5.2c-0.2-0.7-0.6-1.2-0.7-1.6
				C135.9,56.5,135.8,56.3,135.8,56.3z"/>
		</g>
		<g id="XMLID_1901_">
			<path id="XMLID_1902_" class="st1" d="M38.1,85c0,0,0.8-1.1,2-2.7c1.1-1.7,3.1-3.5,4.9-5.5c2.1-1.7,4.1-3.6,5.9-4.7
				c1.7-1.2,2.9-2,2.9-2c0,0,1.3-0.6,3.2-1.4c0.5-0.2,1-0.4,1.5-0.6c0.6-0.2,1.1-0.4,1.7-0.6c1.2-0.4,2.5-0.8,3.8-1.1
				c2.7-0.5,5.2-1.1,7.3-1.2c2-0.2,3.3-0.3,3.3-0.3s-1.3,0.2-3.3,0.6c-2,0.2-4.5,1.1-7,1.8c-1.2,0.5-2.4,1-3.6,1.4
				c-0.6,0.2-1.1,0.5-1.6,0.7c-0.5,0.3-1,0.5-1.4,0.8c-1.7,0.9-2.9,1.6-2.9,1.6c-0.1,0-1.2,0.7-3,1.7c-1.8,0.9-3.9,2.6-6.1,4.1
				c-2,1.8-4.1,3.5-5.3,5C39,84,38.1,85,38.1,85z"/>
		</g>
		<g id="XMLID_1899_">
			<path id="XMLID_1900_" class="st1" d="M37,95.7c0,0,0.1-0.2,0.2-0.6c0.1-0.4,0.2-1,0.5-1.6c0.4-1.3,1.3-3,2.3-4.6
				c1.1-1.6,2.3-3,3.4-4c0.5-0.5,1-0.9,1.3-1.2c0.3-0.3,0.5-0.4,0.6-0.5c0,0,0.2-0.1,0.6-0.3c0.4-0.2,0.9-0.5,1.5-0.8
				c1.3-0.7,3.1-1.3,4.9-1.8c1.8-0.4,3.7-0.6,5.1-0.7c0.7,0,1.3,0,1.7,0c0.4,0,0.6,0,0.6,0s-0.2,0-0.6,0.1c-0.4,0-1,0-1.7,0.2
				c-1.4,0.2-3.2,0.6-4.8,1.3c-1.7,0.7-3.3,1.5-4.4,2.2c-0.6,0.3-1,0.7-1.3,0.9c-0.3,0.2-0.5,0.4-0.5,0.4c0,0-0.2,0.1-0.6,0.4
				c-0.3,0.2-0.8,0.5-1.4,1c-1.1,0.8-2.5,2-3.7,3.4c-1.2,1.4-2.2,2.9-2.8,4.2c-0.3,0.6-0.5,1.1-0.7,1.5C37.1,95.5,37,95.7,37,95.7z"
				/>
		</g>
		<g id="XMLID_1897_">
			<path id="XMLID_1898_" class="st1" d="M51.6,106.8c0,0,0-0.2,0.1-0.6c0.1-0.4,0.1-0.9,0.2-1.6c0.2-1.3,0.7-3,1.4-4.7
				c0.7-1.7,1.6-3.3,2.4-4.4c0.4-0.6,0.8-1,1-1.4c0.2-0.3,0.4-0.5,0.4-0.5c0,0,0.2-0.2,0.5-0.4c0.3-0.3,0.7-0.7,1.3-1.1
				c1.1-0.9,2.6-1.8,4.2-2.7c1.6-0.8,3.3-1.4,4.6-1.8c0.6-0.2,1.2-0.3,1.6-0.4c0.4-0.1,0.6-0.1,0.6-0.1s-0.2,0.1-0.6,0.2
				c-0.4,0.1-0.9,0.3-1.5,0.6c-1.2,0.5-2.8,1.3-4.2,2.3c-1.4,1-2.7,2.1-3.6,3c-0.5,0.4-0.8,0.9-1.1,1.1c-0.3,0.3-0.4,0.5-0.4,0.5
				c0,0-0.2,0.2-0.5,0.4c-0.3,0.3-0.7,0.7-1.1,1.1c-0.9,1-1.9,2.4-2.8,3.9c-0.9,1.5-1.6,3.1-1.9,4.4c-0.2,0.6-0.3,1.2-0.4,1.5
				C51.7,106.6,51.6,106.8,51.6,106.8z"/>
		</g>
		<g id="XMLID_1895_">
			<path id="XMLID_1896_" class="st1" d="M33.8,127.7c0,0,0.2-0.3,0.5-0.8c0.4-0.5,0.9-1.2,1.7-1.9c1.6-1.5,4.1-2.9,6.8-4.1
				c2.7-1.2,5.4-2.2,7.2-3.3c0.9-0.5,1.7-0.9,2.2-1.3c0.5-0.3,0.8-0.6,0.8-0.6c0,0,0.3-0.2,0.9-0.5c0.3-0.2,0.6-0.3,1-0.5
				c0.3-0.2,0.7-0.5,1.2-0.8c0.4-0.3,0.9-0.6,1.4-0.9c0.5-0.4,0.9-0.8,1.4-1.2c0.5-0.4,1-0.8,1.5-1.3c0.5-0.5,1-0.9,1.4-1.4
				c0.5-0.5,0.9-1,1.4-1.5c0.4-0.5,0.9-1,1.3-1.5c0.8-1,1.4-2,2-2.8c1-1.8,1.7-3,1.7-3s-0.6,1.2-1.4,3.1c-0.5,0.9-1.1,1.9-1.8,3
				c-0.4,0.5-0.8,1.1-1.1,1.6c-0.4,0.6-0.8,1.1-1.3,1.6c-0.5,0.5-0.9,1.1-1.3,1.6c-0.4,0.5-1,1-1.4,1.4c-0.5,0.5-0.9,0.9-1.4,1.3
				c-0.5,0.4-0.9,0.7-1.3,1.1c-0.4,0.3-0.8,0.6-1.1,0.9c-0.3,0.3-0.7,0.5-0.9,0.6c-0.5,0.4-0.8,0.6-0.9,0.6c0,0-0.4,0.2-0.9,0.5
				c-0.6,0.3-1.5,0.7-2.5,1.1c-2,0.9-4.8,1.8-7.5,2.7c-2.7,0.9-5.3,2.2-7,3.5c-0.8,0.7-1.4,1.3-1.8,1.8
				C34.1,127.5,33.8,127.7,33.8,127.7z"/>
		</g>
		<g id="XMLID_1893_">
			<path id="XMLID_1894_" class="st1" d="M38.3,154.3c0,0,0-0.4,0-1c0-0.6-0.1-1.5,0-2.6c0-2.2,0.4-5,1.2-7.9
				c0.8-2.8,2.1-5.5,3.2-7.4c0.5-1,1.1-1.7,1.5-2.3c0.4-0.6,0.6-0.9,0.6-0.9c0,0,0.3-0.3,0.7-0.8c0.5-0.5,1.1-1.2,1.9-1.9
				c1.6-1.5,4.1-3.2,6.6-4.6c2.6-1.4,5.3-2.4,7.4-3c1-0.3,2-0.4,2.6-0.6c0.6-0.1,1-0.2,1-0.2s-0.3,0.1-1,0.3
				c-0.6,0.2-1.5,0.4-2.5,0.8c-2,0.7-4.6,1.9-7,3.5c-2.3,1.6-4.6,3.4-6,4.9c-0.8,0.7-1.3,1.4-1.7,1.9c-0.4,0.5-0.6,0.8-0.6,0.8
				c0,0-0.3,0.3-0.7,0.8c-0.4,0.5-1,1.2-1.6,2.1c-1.2,1.8-2.6,4.3-3.7,6.9c-1,2.7-1.6,5.5-1.8,7.6c-0.2,1.1-0.1,2-0.2,2.6
				C38.3,153.9,38.3,154.3,38.3,154.3z"/>
		</g>
		<g id="XMLID_1891_">
			<path id="XMLID_1892_" class="st1" d="M30,142.8c0,0-0.2-0.3-0.4-0.7c-0.3-0.5-0.7-1.1-1.1-2c-0.9-1.7-1.7-4-2.2-6.5
				c-0.5-2.5-0.6-5-0.5-6.9c0-1,0.2-1.8,0.2-2.3c0.1-0.6,0.1-0.9,0.1-0.9c0,0,0.1-0.3,0.3-0.9c0.2-0.5,0.4-1.3,0.7-2.2
				c0.6-1.8,1.8-4,3.2-6c1.4-2,3.1-3.8,4.6-5c0.7-0.6,1.4-1,1.8-1.4c0.4-0.3,0.7-0.5,0.7-0.5s-0.2,0.2-0.6,0.6
				c-0.4,0.4-1,0.8-1.6,1.5c-1.3,1.3-2.8,3.2-4,5.3c-1.1,2.1-2.1,4.3-2.5,6c-0.3,0.8-0.4,1.6-0.5,2.1c-0.1,0.5-0.2,0.8-0.2,0.8
				c0,0-0.1,0.3-0.2,0.9c-0.1,0.5-0.3,1.3-0.4,2.2c-0.3,1.8-0.4,4.2-0.2,6.7c0.3,2.4,0.9,4.8,1.6,6.5c0.3,0.9,0.7,1.5,0.9,2
				C29.9,142.5,30,142.8,30,142.8z"/>
		</g>
		<g id="XMLID_1889_">
			<path id="XMLID_1890_" class="st1" d="M29.9,164.7c0,0,0.9-2.9,1.8-5.9c0.7-3,1.5-6,1.5-6c0,0,1-2.9,2-5.7
				c0.8-2.9,1.6-5.7,1.6-5.7s-0.4,3-0.7,5.9c-0.5,3-1.1,5.9-1.1,6c0,0-0.1,0.2-0.2,0.5c-0.1,0.3-0.3,0.8-0.6,1.3
				c-0.5,1.1-1.1,2.5-1.7,4C31.2,161.9,29.9,164.7,29.9,164.7z"/>
		</g>
		<g id="XMLID_1887_">
			<path id="XMLID_1888_" class="st1" d="M29.7,185c0,0,0.4-1.3,1.1-3.2c0.6-2,1.7-4.5,2.7-7c1.2-2.5,2.3-5,3.4-6.8
				c0.5-0.9,0.9-1.7,1.2-2.2c0.3-0.6,0.5-0.9,0.5-0.9c0,0,0.9-1.1,2.1-2.8c0.3-0.4,0.6-0.9,1-1.3c0.4-0.5,0.8-0.9,1.2-1.4
				c0.8-1,1.7-2,2.6-3.1c1.9-2,3.6-4,5.1-5.4c1.5-1.4,2.4-2.3,2.4-2.3s-0.9,1-2.2,2.5c-1.4,1.5-3,3.6-4.6,5.7
				c-0.8,1.1-1.5,2.2-2.2,3.2c-0.4,0.5-0.7,1-1,1.5c-0.3,0.5-0.6,1-0.8,1.4c-1.1,1.7-1.8,2.9-1.8,2.9c0,0-0.2,0.3-0.6,0.8
				c-0.3,0.5-0.8,1.2-1.4,2.1c-1.2,1.7-2.5,4.1-3.9,6.5c-1.2,2.4-2.6,4.8-3.3,6.7C30.3,183.8,29.7,185,29.7,185z"/>
		</g>
		<g id="XMLID_1885_">
			<path id="XMLID_1886_" class="st1" d="M34.3,189.3c0,0,0.5-0.8,1.1-1.9c0.6-1.2,1.8-2.6,2.9-4.1c1.3-1.3,2.5-2.8,3.6-3.7
				c0.5-0.5,1-0.9,1.3-1.1c0.3-0.3,0.5-0.4,0.5-0.4c0,0,0.8-0.5,2.1-1.1c0.3-0.2,0.6-0.3,1-0.5c0.4-0.2,0.7-0.3,1.1-0.5
				c0.8-0.3,1.6-0.7,2.5-1.1c1.8-0.5,3.4-1.2,4.8-1.4c1.3-0.3,2.2-0.5,2.2-0.5s-0.8,0.3-2.1,0.7c-1.3,0.4-2.9,1.2-4.5,1.9
				c-0.8,0.4-1.5,0.9-2.2,1.3c-0.4,0.2-0.7,0.4-1,0.6c-0.3,0.2-0.6,0.4-0.9,0.6c-1.1,0.8-1.8,1.3-1.8,1.3c0,0-0.8,0.5-1.9,1.3
				c-1.2,0.7-2.5,1.9-3.9,3.1c-1.2,1.3-2.6,2.5-3.3,3.6C34.8,188.6,34.3,189.3,34.3,189.3z"/>
		</g>
		<g id="XMLID_1883_">
			<path id="XMLID_1884_" class="st1" d="M29.2,209.1c0,0,0.5-1.1,1.2-2.7c0.6-1.7,1.9-3.6,3.1-5.7c1.4-1.9,2.7-3.9,4-5.3
				c0.6-0.7,1.1-1.3,1.5-1.7c0.4-0.4,0.6-0.6,0.6-0.6c0,0,1-0.8,2.4-1.9c0.4-0.3,0.7-0.6,1.1-0.9c0.4-0.3,0.9-0.6,1.4-0.9
				c0.9-0.6,1.9-1.2,3-1.8c2.1-1.1,4.2-2.2,5.9-2.8c1.6-0.6,2.7-1.1,2.7-1.1s-1,0.5-2.6,1.3c-1.6,0.7-3.5,2.1-5.5,3.3
				c-0.9,0.7-1.8,1.4-2.7,2.1c-0.4,0.3-0.8,0.7-1.2,1c-0.4,0.3-0.7,0.7-1,1c-1.3,1.2-2.1,2-2.1,2c0,0-0.3,0.2-0.6,0.6
				c-0.4,0.4-0.9,0.9-1.6,1.5c-1.4,1.2-2.8,3-4.4,4.7c-1.4,1.9-2.8,3.8-3.6,5.3C29.8,208.1,29.2,209.1,29.2,209.1z"/>
		</g>
		<g id="XMLID_1881_">
			<path id="XMLID_1882_" class="st1" d="M33.4,216.6c0,0,0.2-0.7,0.6-1.8c0.3-1.1,1.1-2.4,1.7-3.8c0.9-1.2,1.7-2.6,2.6-3.4
				c0.8-0.9,1.4-1.5,1.4-1.5c0,0,0.7-0.4,1.7-1c0.3-0.1,0.5-0.3,0.8-0.5c0.3-0.1,0.6-0.3,1-0.4c0.7-0.3,1.4-0.6,2.1-0.8
				c1.5-0.4,3-0.8,4.1-0.9c1.1-0.1,1.9-0.2,1.9-0.2s-0.7,0.2-1.8,0.5c-1.1,0.2-2.4,0.9-3.8,1.4c-0.6,0.3-1.3,0.8-1.8,1.1
				c-0.3,0.2-0.6,0.3-0.8,0.5c-0.2,0.2-0.5,0.4-0.7,0.6c-0.8,0.7-1.4,1.1-1.4,1.2c0,0-0.6,0.5-1.5,1.1c-1,0.6-1.9,1.7-3,2.8
				c-0.8,1.2-1.8,2.4-2.2,3.4C33.7,215.9,33.4,216.6,33.4,216.6z"/>
		</g>
		<g id="XMLID_1879_">
			<path id="XMLID_1880_" class="st1" d="M32,233.8c0,0,0.2-0.8,0.4-2c0.2-1.2,0.8-2.8,1.3-4.4c0.7-1.6,1.3-3.2,1.9-4.3
				c0.3-0.6,0.6-1.1,0.7-1.4c0.2-0.3,0.3-0.5,0.3-0.5c0,0,0.6-0.7,1.4-1.6c0.2-0.2,0.4-0.5,0.7-0.8c0.3-0.3,0.5-0.5,0.8-0.8
				c0.6-0.5,1.2-1.1,1.8-1.7c1.3-1.1,2.6-2.2,3.6-2.8c1-0.7,1.7-1.2,1.7-1.2s-0.6,0.6-1.5,1.4c-1,0.8-2,2-3.1,3.2
				c-0.5,0.6-1,1.3-1.5,1.9c-0.2,0.3-0.5,0.6-0.7,0.9c-0.2,0.3-0.4,0.6-0.5,0.8c-0.7,1-1.1,1.7-1.1,1.7c0,0-0.2,0.2-0.4,0.5
				c-0.2,0.3-0.5,0.7-0.9,1.2c-0.8,1-1.6,2.4-2.4,3.9c-0.7,1.5-1.5,3-1.9,4.2C32.3,233,32,233.8,32,233.8z"/>
		</g>
		<g id="XMLID_1877_">
			<path id="XMLID_1878_" class="st1" d="M25.4,205.3c0,0,0.3-0.2,0.9-0.7c0.5-0.5,1.3-1.1,1.9-2.1c1.4-2,2.2-5.1,2-8.2
				c-0.1-1.5-0.4-3.1-0.9-4.5c-0.2-0.7-0.4-1.4-0.6-2c-0.2-0.6-0.5-1.2-0.7-1.8c-0.9-2.2-1.6-3.7-1.6-3.8c0,0-0.1-0.4-0.4-1.1
				c-0.2-0.6-0.5-1.6-0.8-2.8c-0.7-2.2-1.3-5.4-1.3-8.5c0-3.1,0.5-6.2,1.1-8.4c0.2-0.6,0.3-1.1,0.4-1.5c0.2-0.4,0.3-0.8,0.4-1.1
				c0.2-0.6,0.4-1,0.4-1s-0.1,0.4-0.3,1c-0.1,0.3-0.2,0.7-0.3,1.2c-0.1,0.5-0.2,1-0.3,1.5c-0.5,2.2-0.7,5.3-0.5,8.3
				c0.3,3,1,6,1.9,8.1c0.4,1.1,0.7,2,1,2.6c0.3,0.6,0.4,1,0.4,1c0,0,0.1,0.4,0.4,1.1c0.2,0.7,0.5,1.6,0.9,2.8
				c0.2,0.6,0.4,1.2,0.6,1.9c0.2,0.7,0.3,1.4,0.5,2.1c0.4,1.5,0.6,3.1,0.6,4.7c-0.1,3.2-1.1,6.4-2.7,8.4c-0.8,1-1.6,1.6-2.1,2
				C25.8,205.1,25.4,205.3,25.4,205.3z"/>
		</g>
		<g id="XMLID_1875_">
			<path id="XMLID_1876_" class="st1" d="M27.1,260.2c0,0,5.2-10.6,5.2-10.7c0.1-0.1,6.7-9.5,6.7-9.5s-5,10.3-5.1,10.4
				C34,250.5,27.1,260.2,27.1,260.2z"/>
		</g>
		<g id="XMLID_1873_">
			<path id="XMLID_1874_" class="st1" d="M33.3,266.5c0,0,2.4-8.1,2.4-8.2c0-0.1,4.1-7.3,4.1-7.3s-2.3,7.9-2.3,7.9
				C37.4,259.1,33.3,266.5,33.3,266.5z"/>
		</g>
		<g id="XMLID_1871_">
			<path id="XMLID_1872_" class="st1" d="M38.4,270.8c0,0-1-3.7-1-3.8c0,0,1-3.6,1-3.6s1,3.6,1,3.6
				C39.4,267.1,38.4,270.8,38.4,270.8z"/>
		</g>
		<g id="XMLID_1869_">
			<path id="XMLID_1870_" class="st1" d="M98.4,129.5c0,0-0.4,0.1-1,0.3c-0.6,0.2-1.6,0.4-2.7,0.6c-2.3,0.3-5.4,0.5-8.4-0.1
				c-3.1-0.6-6-2-7.9-3.4c-0.5-0.4-0.9-0.7-1.3-1c-0.3-0.3-0.6-0.6-0.9-0.9c-0.5-0.5-0.8-0.8-0.8-0.8c0,0-0.2-0.4-0.6-0.9
				c-0.4-0.5-0.8-1.4-1.3-2.5c-0.8-2.1-1.3-5.2-0.4-8c0.8-2.8,2.8-5.2,4.6-6.4c0.9-0.7,1.8-1,2.4-1.2c0.6-0.2,1-0.3,1-0.3
				s-0.3,0.1-0.9,0.4c-0.6,0.3-1.4,0.7-2.2,1.4c-1.7,1.3-3.3,3.8-3.9,6.4c-0.6,2.7,0,5.4,0.9,7.2c0.5,0.9,0.9,1.7,1.3,2.1
				c0.4,0.5,0.6,0.8,0.6,0.8c0,0,0.2,0.3,0.6,0.8c0.2,0.2,0.4,0.5,0.7,0.9c0.3,0.3,0.7,0.6,1.1,1c1.6,1.4,4.2,2.9,7,3.7
				c2.9,0.8,5.9,0.9,8.2,0.7c1.1-0.1,2.1-0.2,2.7-0.3C98,129.6,98.4,129.5,98.4,129.5z"/>
		</g>
		<g id="XMLID_1867_">
			<path id="XMLID_1868_" class="st1" d="M101.7,129.2c0,0-0.2,0-0.7,0.1c-0.4,0.1-1,0.3-1.8,0.3c-1.5,0.2-3.5,0.1-5.5-0.3
				c-2-0.5-3.9-1.3-5.2-2.1c-0.7-0.4-1.2-0.8-1.5-1.1c-0.4-0.3-0.6-0.4-0.6-0.5c0,0-0.2-0.2-0.5-0.5c-0.3-0.3-0.7-0.8-1.1-1.4
				c-0.9-1.2-1.6-3-2.2-4.8c-0.5-1.8-0.6-3.7-0.5-5.1c0-0.7,0.2-1.2,0.2-1.6c0.1-0.4,0.1-0.6,0.1-0.6s0,0.2,0,0.6c0,0.4-0.1,1,0,1.6
				c0.1,1.3,0.4,3.1,1.1,4.8c0.7,1.6,1.6,3.2,2.6,4.1c0.4,0.5,0.8,0.9,1.1,1.2c0.3,0.3,0.5,0.4,0.5,0.4c0,0,0.2,0.2,0.5,0.5
				c0.3,0.3,0.7,0.7,1.3,1.1c1.1,0.9,2.7,1.8,4.5,2.4c1.8,0.6,3.7,0.9,5.2,0.9c0.7,0.1,1.3-0.1,1.8-0.1
				C101.5,129.2,101.7,129.2,101.7,129.2z"/>
		</g>
		<g id="XMLID_1865_">
			<path id="XMLID_1866_" class="st1" d="M58.8,146.3c0,0-0.2-1.1-0.5-2.6c-0.1-0.8-0.1-1.7-0.1-2.8c0.1-1,0.1-2.1,0.3-3.2
				c0.4-2.2,1.1-4.3,1.8-5.8c0.4-0.8,0.7-1.4,0.9-1.8c0.3-0.4,0.4-0.7,0.5-0.7c0,0,0.2-0.2,0.5-0.6c0.3-0.4,0.7-1,1.4-1.5
				c0.6-0.6,1.3-1.3,2.1-1.9c0.8-0.6,1.7-1.2,2.5-1.9c0.4-0.3,0.8-0.7,1.2-1c0.4-0.3,0.7-0.7,1-1.1c0.6-0.8,1-1.6,1.2-2.3
				c0.2-0.7,0.2-1.4,0.2-1.8c-0.1-0.4-0.1-0.7-0.1-0.7s0.1,0.3,0.2,0.7c0.1,0.4,0.1,1.1,0,1.9c-0.1,0.8-0.5,1.7-1,2.5
				c-0.3,0.4-0.6,0.9-1,1.2c-0.3,0.4-0.7,0.8-1.1,1.2c-0.8,0.8-1.6,1.5-2.3,2.2c-0.7,0.7-1.2,1.4-1.8,2c-0.5,0.6-0.8,1.1-1.1,1.5
				c-0.3,0.4-0.4,0.6-0.4,0.6c0,0-0.2,0.2-0.5,0.6c-0.3,0.4-0.6,1-1,1.6c-0.8,1.3-1.7,3.3-2.3,5.3c-0.3,1-0.4,2.1-0.6,3
				c-0.1,1-0.1,1.9-0.2,2.7C58.7,145.3,58.8,146.3,58.8,146.3z"/>
		</g>
		<g id="XMLID_1863_">
			<path id="XMLID_1864_" class="st1" d="M56.2,104.8c0,0,0.2-0.2,0.5-0.7c0.3-0.4,0.7-1.1,1.3-1.7c1.1-1.4,2.9-3.1,4.8-4.6
				c2-1.4,4.2-2.7,5.9-3.4c0.9-0.4,1.6-0.6,2.2-0.9c0.5-0.2,0.8-0.3,0.9-0.3c0,0,0.3-0.1,0.9-0.2c0.5-0.1,1.3-0.3,2.2-0.4
				c1.8-0.3,4.3-0.3,6.7-0.2c2.4,0.2,4.8,0.7,6.5,1.3c0.9,0.2,1.5,0.6,2,0.8c0.5,0.2,0.8,0.3,0.8,0.3s-0.3-0.1-0.8-0.2
				c-0.5-0.1-1.2-0.4-2.1-0.6c-1.7-0.4-4.1-0.7-6.4-0.7c-2.4,0.1-4.7,0.3-6.4,0.8c-0.9,0.2-1.6,0.4-2.1,0.5
				c-0.5,0.1-0.8,0.2-0.8,0.2c0,0-0.3,0.1-0.8,0.2c-0.5,0.2-1.3,0.3-2.1,0.6c-1.7,0.6-3.9,1.5-6,2.7c-2,1.3-3.9,2.7-5.2,4
				c-0.7,0.6-1.1,1.2-1.5,1.6C56.4,104.6,56.2,104.8,56.2,104.8z"/>
		</g>
		<g id="XMLID_1861_">
			<path id="XMLID_1862_" class="st1" d="M71.5,81.6c0,0,0-0.2,0-0.6c0-0.2,0-0.5,0-0.7c0.1-0.3,0.1-0.6,0.2-1
				c0.4-1.4,1.5-3.1,3.2-4.3c1.7-1.2,3.9-1.6,5.4-1.6c0.8,0,1.5,0.1,1.9,0.1c0.5,0.1,0.7,0.1,0.8,0.1c0,0,0.3,0.1,0.7,0.2
				c0.4,0.1,1,0.4,1.7,0.8c0.3,0.2,0.7,0.4,1,0.6c0.3,0.2,0.7,0.5,1.1,0.8c0.7,0.6,1.4,1.2,2.1,1.9c0.6,0.7,1.2,1.4,1.7,2.1
				c0.5,0.7,1,1.4,1.3,2c0.7,1.2,1.2,2,1.2,2s-0.6-0.7-1.4-1.8c-0.4-0.5-1-1.1-1.6-1.8c-0.6-0.6-1.3-1.2-2-1.8
				c-0.7-0.6-1.5-1.1-2.2-1.6c-0.4-0.2-0.7-0.4-1.1-0.6c-0.4-0.2-0.7-0.3-1-0.4c-0.6-0.2-1.2-0.4-1.5-0.5c-0.4-0.1-0.6-0.1-0.6-0.1
				c0,0-0.2-0.1-0.6-0.2c-0.4-0.1-0.9-0.2-1.6-0.3c-1.3-0.2-3.2,0-4.9,0.8c-1.7,0.8-2.9,2.3-3.4,3.6c-0.1,0.3-0.2,0.6-0.3,0.9
				c-0.1,0.3-0.1,0.5-0.1,0.7C71.6,81.3,71.5,81.6,71.5,81.6z"/>
		</g>
		<g id="XMLID_1859_">
			<path id="XMLID_1860_" class="st1" d="M76.4,59.7c0,0,0-0.4,0-1.1c0.1-0.7,0.2-1.7,0.6-2.9c0.7-2.3,2.7-5.3,5.5-7.2
				c2.8-2,6.5-2.8,9.1-2.8c0.7,0,1.3,0,1.8,0c0.5,0.1,1,0.1,1.4,0.2c0.8,0.1,1.2,0.2,1.3,0.2c0,0,0.5,0.2,1.2,0.4
				c0.4,0.1,0.8,0.3,1.3,0.5c0.5,0.2,1,0.4,1.6,0.8c2.3,1.2,5,3.3,6.9,6c2,2.6,3.2,5.6,3.9,7.9c0.3,1.1,0.6,2.1,0.6,2.8
				c0.1,0.7,0.2,1.1,0.2,1.1s-0.1-0.4-0.3-1c-0.1-0.7-0.5-1.6-0.9-2.7c-0.8-2.2-2.3-5-4.3-7.4c-2-2.4-4.7-4.2-6.9-5.2
				c-0.5-0.2-1.1-0.4-1.5-0.6c-0.4-0.2-0.8-0.3-1.2-0.4c-0.7-0.2-1.1-0.3-1.1-0.3c0,0-0.4-0.2-1.1-0.3c-0.4-0.1-0.8-0.2-1.3-0.3
				c-0.5-0.1-1.1-0.1-1.7-0.2c-2.4-0.1-5.8,0.3-8.6,2c-2.8,1.6-4.9,4.3-5.8,6.6c-0.5,1.1-0.6,2.1-0.8,2.8
				C76.4,59.3,76.4,59.7,76.4,59.7z"/>
		</g>
		<g id="XMLID_1857_">
			<path id="XMLID_1858_" class="st1" d="M81,41c0,0,0.2-0.2,0.6-0.5c0.2-0.1,0.4-0.3,0.6-0.5c0.1-0.1,0.3-0.2,0.4-0.3
				c0.2-0.1,0.3-0.2,0.5-0.3c1.3-0.9,3.5-1.6,5.6-1.8c2.2-0.2,4.4,0,6.1,0.4c0.8,0.2,1.5,0.4,2,0.6c0.5,0.1,0.8,0.3,0.8,0.3
				c0,0,0.3,0.1,0.7,0.4c0.4,0.2,1,0.5,1.7,1c1.4,0.8,3,2.2,4.4,3.6c1.5,1.4,2.8,3,3.8,4.1c0.9,1.2,1.6,2,1.6,2s-0.7-0.7-1.8-1.8
				c-1.1-1.1-2.6-2.4-4.2-3.7c-1.6-1.2-3.3-2.4-4.6-3c-0.7-0.4-1.2-0.6-1.7-0.8c-0.4-0.2-0.7-0.3-0.7-0.3c0,0-0.2-0.1-0.7-0.3
				c-0.4-0.2-1-0.5-1.7-0.7c-1.5-0.5-3.5-0.9-5.6-0.9c-2.1,0.1-4.2,0.5-5.6,1.2c-0.2,0.1-0.4,0.1-0.5,0.2c-0.1,0.1-0.3,0.2-0.4,0.3
				c-0.3,0.2-0.5,0.3-0.7,0.4C81.2,40.9,81,41,81,41z"/>
		</g>
		<g id="XMLID_1855_">
			<path id="XMLID_1856_" class="st1" d="M141.7,43.1c0,0-0.2,0-0.6,0.1c-0.4,0.1-0.9,0.1-1.4,0.2c-1.2,0.2-2.7,0.7-4.2,1.3
				c-1.4,0.7-2.8,1.5-3.7,2.2c-0.5,0.3-0.8,0.7-1.1,0.9c-0.3,0.2-0.4,0.4-0.4,0.4c0,0-0.2,0.1-0.4,0.3c-0.3,0.2-0.7,0.5-1.1,0.8
				c-0.9,0.7-1.9,1.8-2.9,2.9c-0.9,1.2-1.7,2.5-2.1,3.5c-0.3,0.5-0.4,1-0.5,1.3c-0.1,0.3-0.2,0.5-0.2,0.5s0-0.2,0.1-0.5
				c0.1-0.3,0.1-0.8,0.3-1.3c0.3-1.1,0.8-2.6,1.6-3.9c0.8-1.4,1.7-2.7,2.6-3.5c0.4-0.5,0.8-0.8,1-1.1c0.3-0.3,0.4-0.4,0.4-0.4
				c0,0,0.2-0.1,0.5-0.3c0.3-0.2,0.8-0.5,1.3-0.8c1.1-0.6,2.7-1.3,4.3-1.7c1.6-0.4,3.3-0.7,4.5-0.7c0.6-0.1,1.1,0,1.5,0
				C141.5,43.1,141.7,43.1,141.7,43.1z"/>
		</g>
		<g id="XMLID_1853_">
			<path id="XMLID_1854_" class="st1" d="M161.6,29.6c0,0-0.3,0-0.8-0.1c-0.3,0-0.6,0-0.9-0.1c-0.3,0-0.7-0.1-1.2,0
				c-1.7,0-4,0.5-6.1,1.3c-2.1,0.9-3.9,2.2-5.1,3.3c-0.6,0.5-1,1.1-1.3,1.5c-0.3,0.4-0.5,0.6-0.5,0.6c0,0-0.2,0.2-0.5,0.6
				c-0.3,0.4-0.7,0.9-1.1,1.6c-0.2,0.3-0.4,0.7-0.6,1.1c-0.2,0.4-0.3,0.9-0.5,1.3c-0.1,0.2-0.2,0.5-0.3,0.7
				c-0.1,0.2-0.1,0.5-0.2,0.7c-0.1,0.5-0.3,1-0.3,1.5c-0.3,2.1-0.1,4.2,0.3,5.8c0.1,0.8,0.5,1.4,0.6,1.8c0.2,0.4,0.3,0.7,0.3,0.7
				s-0.1-0.2-0.3-0.7c-0.2-0.4-0.6-1-0.8-1.8c-0.6-1.5-1-3.7-0.9-5.9c0-0.6,0.1-1.1,0.2-1.6c0-0.3,0.1-0.5,0.1-0.8
				c0.1-0.3,0.1-0.5,0.2-0.8c0.1-0.5,0.3-1,0.4-1.5c0.2-0.5,0.4-0.9,0.5-1.3c0.3-0.8,0.7-1.4,1-1.9c0.3-0.4,0.4-0.7,0.4-0.7
				c0,0,0.2-0.3,0.6-0.6c0.4-0.4,0.9-0.9,1.6-1.5c1.4-1.1,3.5-2.3,5.8-3c2.3-0.6,4.7-0.9,6.4-0.7c0.4,0,0.8,0,1.2,0.1
				c0.3,0.1,0.7,0.1,0.9,0.2C161.3,29.5,161.6,29.6,161.6,29.6z"/>
		</g>
		<g id="XMLID_1851_">
			<path id="XMLID_1852_" class="st1" d="M121,18c0,0,0.6,0.3,1.6,0.8c1,0.5,2.1,1.3,3.3,2.1c1.1,0.9,2.2,1.8,2.9,2.7
				c0.7,0.8,1.3,1.3,1.3,1.4c0,0,0.3,0.6,0.8,1.6c0.1,0.2,0.3,0.5,0.4,0.7c0.1,0.3,0.2,0.6,0.3,0.9c0.2,0.6,0.5,1.2,0.7,1.9
				c0.3,1.3,0.7,2.6,0.8,3.6c0.1,1,0.2,1.6,0.2,1.6s-0.2-0.6-0.5-1.6c-0.3-1-0.9-2.1-1.4-3.3c-0.3-0.6-0.7-1.1-1-1.7
				c-0.2-0.3-0.3-0.5-0.5-0.8c-0.2-0.2-0.3-0.4-0.5-0.6c-0.6-0.8-1-1.3-1-1.3c0,0-0.4-0.6-0.9-1.4c-0.5-0.9-1.4-1.9-2.3-2.9
				c-1-0.9-1.9-2-2.8-2.5C121.6,18.5,121,18,121,18z"/>
		</g>
		<g id="XMLID_1849_">
			<path id="XMLID_1850_" class="st1" d="M110.1,22.8c0,0,0.7,0.3,1.8,0.7c1.1,0.4,2.4,1.3,3.8,2.1c1.2,1,2.5,1.9,3.3,2.9
				c0.8,0.9,1.4,1.5,1.4,1.5c0,0,0.4,0.7,0.9,1.8c0.1,0.3,0.3,0.5,0.4,0.8c0.1,0.3,0.2,0.6,0.3,1c0.2,0.7,0.5,1.4,0.7,2.1
				c0.2,1.5,0.6,2.9,0.5,4c0,1.1,0,1.8,0,1.8s-0.1-0.7-0.3-1.8c-0.1-1.1-0.7-2.4-1.1-3.8c-0.3-0.7-0.6-1.3-0.9-1.9
				c-0.2-0.3-0.3-0.6-0.4-0.9c-0.2-0.3-0.3-0.5-0.5-0.7c-0.6-0.9-1-1.5-1.1-1.5c0,0-0.4-0.6-1-1.6c-0.6-1-1.6-2-2.6-3.1
				c-1.2-0.9-2.3-2-3.3-2.5C110.8,23.2,110.1,22.8,110.1,22.8z"/>
		</g>
		<g id="XMLID_1847_">
			<path id="XMLID_1848_" class="st1" d="M219.9,93.8c0,0-1.8-0.2-4.6-0.4c-2.7-0.3-6.4-0.9-10-1.5c-1.8-0.2-3.6-0.5-5.3-0.7
				c-1.7-0.2-3.3-0.3-4.7-0.3c-0.7,0-1.3,0-1.9,0c-0.6,0-1,0-1.4,0.1c-0.8,0-1.3,0.1-1.3,0.1c0,0-0.5,0-1.3,0.1
				c-0.8,0-1.9,0.2-3.2,0.3c-2.6,0.4-6,1.4-8.8,3.3c-2.9,1.9-5.1,4.6-6,7c-0.5,1.2-0.7,2.2-0.9,2.9c-0.1,0.7-0.1,1.2-0.1,1.2
				s0-0.4,0.1-1.2c0.1-0.7,0.2-1.8,0.7-3c0.8-2.4,2.9-5.4,5.7-7.6c2.8-2.3,6.4-3.5,9.1-4.1c1.4-0.3,2.5-0.5,3.3-0.6
				c0.8-0.1,1.3-0.1,1.3-0.1c0,0,0.5,0,1.4,0c0.4,0,0.9,0,1.5,0c0.6,0,1.2,0.1,1.9,0.1c1.4,0.1,3,0.3,4.7,0.6c1.7,0.3,3.5,0.7,5.3,1
				c3.6,0.8,7.1,1.6,9.8,2.1C218.1,93.5,219.9,93.8,219.9,93.8z"/>
		</g>
		<g id="XMLID_1845_">
			<path id="XMLID_1846_" class="st1" d="M224,97c0,0-0.4,0.1-1.1,0.2c-0.7,0.1-1.7,0.2-2.9,0.3c-2.4,0.1-5.6,0-8.8-0.3
				c-3.2-0.3-6.3-0.5-8.7-0.5c-1.2,0-2.2,0-2.9,0.1c-0.7,0-1.1,0.1-1.1,0.1c0,0-0.4,0-1.1,0c-0.7,0-1.6,0.1-2.7,0.3
				c-2.2,0.3-5.2,1.1-7.5,2.9c-2.4,1.7-4.2,4.2-4.8,6.3c-0.4,1-0.4,2-0.5,2.6c0,0.6,0,1,0,1s0-0.4-0.1-1c0-0.6,0-1.6,0.3-2.7
				c0.5-2.2,2.1-4.9,4.5-6.9c2.4-2.1,5.5-3.2,7.8-3.7c1.2-0.2,2.2-0.4,2.9-0.5c0.7-0.1,1.1-0.1,1.2-0.1c0,0,0.5,0,1.2,0
				c0.7,0,1.8,0,3,0.1c2.4,0.2,5.6,0.7,8.7,1.2c3.1,0.5,6.3,0.8,8.6,0.9c1.2,0,2.2,0,2.9-0.1C223.6,97.1,224,97,224,97z"/>
		</g>
		<g id="XMLID_1843_">
			<path id="XMLID_1844_" class="st1" d="M244.7,102.7c0,0-1.2,0.1-3.1,0.2c-1.9,0.2-4.4,0-6.9,0c-2.5-0.1-5-0.3-6.9-0.3
				c-0.9,0-1.7,0-2.3-0.1c-0.6,0-0.9,0-0.9,0c0,0-0.3,0-0.9-0.1c-0.5,0-1.3-0.1-2.2-0.1c-1.8-0.1-4.2,0-6.6,0.4
				c-2.4,0.4-4.7,1.1-6.3,1.9c-0.8,0.3-1.4,0.8-1.9,1c-0.4,0.3-0.7,0.4-0.7,0.4s0.2-0.2,0.7-0.5c0.4-0.3,1-0.8,1.8-1.2
				c1.5-1,3.8-1.9,6.2-2.5c2.4-0.6,4.9-0.9,6.7-1c0.9-0.1,1.7-0.1,2.3-0.1c0.6,0,0.9,0,0.9,0c0,0,0.4,0,0.9,0.1
				c0.6,0.1,1.4,0.2,2.3,0.3c1.9,0.2,4.4,0.6,6.9,0.9c2.5,0.2,5,0.6,6.8,0.6C243.4,102.7,244.7,102.7,244.7,102.7z"/>
		</g>
		<g id="XMLID_1841_">
			<path id="XMLID_1842_" class="st1" d="M254.2,113.3c0,0-0.9-0.3-2.3-0.7c-1.4-0.5-3.3-0.8-5.1-1.2c-1.9-0.2-3.8-0.6-5.3-0.6
				c-0.7,0-1.3-0.1-1.8-0.1c-0.4,0-0.7,0-0.7,0c0,0-1-0.1-2.4-0.2c-0.4,0-0.7-0.1-1.1-0.1c-0.4,0-0.8,0-1.3,0
				c-0.9,0-1.8-0.1-2.7-0.1c-1.9,0.1-3.7,0.1-5.1,0.4c-1.4,0.2-2.3,0.3-2.3,0.3s0.9-0.2,2.3-0.6c1.4-0.4,3.2-0.7,5.1-1
				c0.9-0.1,1.9-0.2,2.8-0.3c0.4,0,0.9-0.1,1.3-0.1c0.4,0,0.8,0,1.2,0c1.5,0,2.4,0,2.5,0c0,0,0.3,0,0.7,0.1c0.4,0.1,1.1,0.2,1.8,0.3
				c1.5,0.2,3.4,0.7,5.3,1.2c1.9,0.6,3.7,1.2,5,1.8C253.3,112.9,254.2,113.3,254.2,113.3z"/>
		</g>
		<g id="XMLID_1839_">
			<path id="XMLID_1840_" class="st1" d="M307.8,144.8c0,0-0.3,0.1-0.9,0.2c-0.6,0.1-1.3,0.3-2.3,0.4c-1.9,0.3-4.5,0.5-7.2,0.5
				c-2.6-0.1-5.3-0.4-7.2-0.8c-1-0.2-1.8-0.4-2.4-0.5c-0.6-0.1-0.9-0.2-0.9-0.2c0,0-0.3-0.1-0.9-0.3c-0.5-0.2-1.3-0.5-2.2-0.9
				c-1.8-0.8-4-2-6.1-3.4c-2.1-1.4-4-3-5.3-4.4c-0.7-0.6-1.2-1.2-1.5-1.6c-0.4-0.4-0.6-0.6-0.6-0.6s0.2,0.2,0.6,0.6
				c0.4,0.3,0.9,0.9,1.7,1.5c1.4,1.2,3.4,2.6,5.6,3.8c2.2,1.2,4.4,2.2,6.2,2.8c0.9,0.3,1.6,0.5,2.1,0.7c0.5,0.2,0.8,0.3,0.9,0.3
				c0,0,0.3,0.1,0.9,0.3c0.5,0.2,1.3,0.5,2.2,0.7c1.8,0.5,4.3,1.1,6.9,1.4c2.5,0.3,5.1,0.3,7.1,0.1c1,0,1.8-0.2,2.3-0.2
				C307.5,144.8,307.8,144.8,307.8,144.8z"/>
		</g>
		<g id="XMLID_1837_">
			<path id="XMLID_1838_" class="st1" d="M306.3,153.4c0,0-0.9,0-2.2,0.1c-1.3,0.1-3.1,0-4.8-0.1c-1.7-0.3-3.5-0.4-4.8-0.8
				c-0.7-0.2-1.2-0.3-1.6-0.4c-0.4-0.1-0.6-0.2-0.6-0.2c0,0-0.8-0.4-2-1c-0.3-0.1-0.6-0.3-0.9-0.5c-0.3-0.2-0.6-0.4-1-0.6
				c-0.7-0.4-1.4-0.9-2.1-1.3c-1.3-1-2.7-2-3.6-2.9c-0.9-0.8-1.5-1.4-1.5-1.4s0.7,0.5,1.7,1.2c1,0.8,2.5,1.5,3.9,2.3
				c0.7,0.4,1.5,0.7,2.2,1c0.4,0.2,0.7,0.3,1,0.4c0.3,0.1,0.7,0.2,1,0.3c1.2,0.4,2,0.7,2,0.7c0,0,0.8,0.3,2,0.8
				c1.2,0.5,2.8,0.9,4.5,1.4c1.7,0.3,3.4,0.7,4.7,0.7C305.4,153.3,306.3,153.4,306.3,153.4z"/>
		</g>
		<g id="XMLID_1835_">
			<path id="XMLID_1836_" class="st1" d="M229.5,132.1c0,0-0.4,0-1,0c-0.6,0-1.5-0.1-2.5-0.4c-2.1-0.5-4.6-1.8-6.9-3.5
				c-2.3-1.7-4.3-3.6-5.9-4.9c-0.8-0.7-1.4-1.2-1.9-1.6c-0.5-0.4-0.8-0.6-0.8-0.6c0,0-0.3-0.3-0.7-0.7c-0.4-0.4-1.1-0.9-1.9-1.6
				c-0.8-0.7-1.7-1.3-2.7-2.1c-1.1-0.7-2.1-1.5-3.3-2.1c-2.3-1.4-4.8-2.5-6.6-3.3c-0.9-0.4-1.7-0.6-2.3-0.9
				c-0.6-0.2-0.9-0.3-0.9-0.3s0.3,0.1,0.9,0.2c0.6,0.2,1.4,0.4,2.4,0.7c1.9,0.6,4.5,1.5,7,2.7c1.3,0.6,2.4,1.3,3.6,1.9
				c1.1,0.7,2.1,1.3,3,1.9c0.8,0.6,1.6,1.1,2.1,1.5c0.5,0.4,0.8,0.6,0.8,0.6c0,0,0.3,0.3,0.8,0.7c0.5,0.4,1.1,1.1,1.8,1.8
				c1.5,1.5,3.3,3.5,5.4,5.3c2,1.8,4.4,3.3,6.4,3.9c1,0.3,1.8,0.5,2.5,0.6C229.1,132.1,229.5,132.1,229.5,132.1z"/>
		</g>
		<g id="XMLID_1833_">
			<path id="XMLID_1834_" class="st1" d="M236.9,134.9c0,0-0.4-0.8-1-2c-0.6-1.2-1.6-2.7-2.6-4.2c-1.1-1.4-2.2-2.9-3.2-3.8
				c-0.5-0.5-0.9-0.9-1.1-1.2c-0.3-0.3-0.5-0.5-0.5-0.5c0,0-0.6-0.7-1.5-1.7c-0.2-0.2-0.5-0.5-0.7-0.8c-0.3-0.3-0.6-0.5-0.9-0.8
				c-0.6-0.6-1.2-1.2-1.9-1.8c-1.4-1.1-2.8-2.2-4-2.9c-1.1-0.7-1.9-1.2-1.9-1.2s0.8,0.4,2.1,0.9c1.3,0.5,2.8,1.5,4.4,2.4
				c0.8,0.5,1.5,1,2.2,1.5c0.4,0.3,0.7,0.5,1,0.7c0.3,0.3,0.6,0.5,0.8,0.7c1.1,0.9,1.8,1.5,1.8,1.5c0,0,0.2,0.2,0.4,0.5
				c0.3,0.3,0.6,0.8,1,1.4c0.9,1.1,1.8,2.7,2.8,4.3c0.8,1.7,1.7,3.3,2.1,4.6C236.6,134,236.9,134.9,236.9,134.9z"/>
		</g>
		<g id="XMLID_1831_">
			<path id="XMLID_1832_" class="st1" d="M268.7,155.2c0,0-0.4,0.1-1,0.4c-0.7,0.2-1.6,0.4-2.9,0.4c-2.4,0-5.7-1-8.2-2.9
				c-2.6-1.9-4.4-4.7-5.5-6.8c-0.6-1.1-1-2-1.2-2.6c-0.3-0.6-0.4-1-0.4-1c0,0-0.1-0.4-0.3-1c-0.2-0.6-0.4-1.6-0.8-2.6
				c-0.6-2.2-1.3-5-2.5-7.7c-1.1-2.7-2.7-5.2-4.3-6.8c-0.4-0.4-0.8-0.7-1.1-1c-0.3-0.3-0.7-0.5-1-0.7c-0.5-0.4-0.9-0.6-0.9-0.6
				s0.3,0.2,0.9,0.5c0.3,0.2,0.7,0.4,1,0.6c0.4,0.3,0.8,0.6,1.2,1c1.7,1.5,3.6,3.9,4.9,6.6c1.4,2.7,2.3,5.5,3.1,7.6
				c0.4,1,0.7,1.9,0.9,2.5c0.2,0.6,0.4,1,0.4,1c0,0,0.1,0.4,0.3,1c0.2,0.6,0.5,1.5,1,2.6c0.9,2.1,2.3,4.7,4.7,6.7
				c2.3,2,5.3,3.2,7.6,3.3c1.2,0.1,2.1-0.1,2.8-0.2C268.3,155.4,268.7,155.2,268.7,155.2z"/>
		</g>
		<g id="XMLID_1829_">
			<path id="XMLID_1830_" class="st1" d="M284.3,160.1c0,0-0.4-0.1-1.1-0.1c-0.7-0.1-1.6-0.2-2.8-0.4c-2.3-0.4-5.3-1.4-8.1-2.6
				c-2.8-1.3-5.5-3-7.4-4.4c-1-0.7-1.7-1.4-2.2-1.8c-0.5-0.4-0.8-0.7-0.9-0.7c0,0-0.3-0.3-0.7-0.8c-0.4-0.5-1.1-1.2-1.8-2.1
				c-1.4-1.7-3-4.3-4.3-6.9c-1.2-2.7-2.1-5.4-2.6-7.6c-0.3-1-0.3-2-0.4-2.6c-0.1-0.6-0.1-1-0.1-1s0.1,0.3,0.2,1
				c0.2,0.6,0.3,1.5,0.6,2.5c0.6,2.1,1.7,4.7,3.1,7.2c1.5,2.5,3.2,4.8,4.7,6.4c0.7,0.8,1.4,1.4,1.9,1.9c0.5,0.4,0.7,0.7,0.8,0.7
				c0,0,0.3,0.3,0.8,0.8c0.5,0.4,1.1,1.1,2,1.9c1.7,1.5,4.1,3.3,6.8,4.7c2.7,1.4,5.5,2.6,7.7,3.2c1.1,0.4,2.1,0.5,2.7,0.6
				C283.9,160,284.3,160.1,284.3,160.1z"/>
		</g>
		<g id="XMLID_1827_">
			<path id="XMLID_1828_" class="st1" d="M281.9,153.6c0,0-0.2,0.2-0.5,0.5c-0.2,0.1-0.4,0.3-0.7,0.4c-0.3,0.1-0.7,0.3-1.1,0.3
				c-0.8,0.1-1.8,0-2.8-0.4c-1-0.4-1.8-1.2-2.5-2c-1.3-1.7-2.1-3.6-2.8-5c-0.7-1.4-1.2-2.3-1.2-2.3c0-0.1-5.5-14.8-5.5-14.8
				s7.2,14,7.3,14.1c0,0,0.4,1,0.9,2.4c0.6,1.4,1.1,3.4,2.1,5c0.5,0.8,1.2,1.6,2,2c0.8,0.5,1.7,0.6,2.5,0.6c0.4,0,0.7-0.1,1-0.2
				c0.3-0.1,0.5-0.2,0.7-0.3C281.7,153.8,281.9,153.6,281.9,153.6z"/>
		</g>
		<g id="XMLID_1825_">
			<path id="XMLID_1826_" class="st1" d="M292,124.2c0,0-4-0.1-7.9-0.1c-2-0.1-4-0.3-5.5-0.4c-0.8-0.1-1.4-0.1-1.8-0.1
				c-0.4,0-0.7-0.1-0.7-0.1c-0.1,0-3.8-1-7.6-1.9c-3.6-1.2-7.3-2.4-7.3-2.4s3.7,0.7,7.5,1.5c3.8,0.5,7.6,1,7.7,1
				c0,0,0.3,0.1,0.7,0.1c0.4,0.1,1,0.2,1.8,0.3c1.5,0.3,3.4,0.7,5.3,1C288.1,123.7,292,124.2,292,124.2z"/>
		</g>
		<g id="XMLID_1823_">
			<path id="XMLID_1824_" class="st1" d="M295.5,186.3c0,0-0.3-0.8-0.6-2c-0.3-1.2-1.1-2.7-1.8-4.1c-0.9-1.4-1.6-2.8-2.5-3.8
				c-0.8-1-1.2-1.6-1.3-1.7c0,0-0.5-0.7-1.2-1.7c-0.2-0.2-0.4-0.5-0.6-0.8c-0.2-0.3-0.5-0.5-0.7-0.8c-0.5-0.6-1-1.2-1.6-1.8
				c-1.2-1.1-2.4-2.2-3.4-2.9c-1-0.7-1.7-1.2-1.7-1.2s0.7,0.4,1.8,1c1.1,0.5,2.5,1.5,3.9,2.5c0.7,0.5,1.3,1.1,1.9,1.6
				c0.3,0.3,0.6,0.5,0.9,0.7c0.2,0.3,0.5,0.5,0.7,0.7c0.9,0.9,1.5,1.6,1.5,1.6c0,0,0.5,0.8,1.1,1.9c0.7,1.1,1.3,2.7,2,4.2
				c0.5,1.6,1,3.2,1.2,4.4C295.4,185.5,295.5,186.3,295.5,186.3z"/>
		</g>
		<g id="XMLID_1821_">
			<path id="XMLID_1822_" class="st1" d="M296.8,211c0,0-0.2-1.1-0.6-2.8c-0.3-1.7-0.9-3.9-1.5-6c-0.7-2.2-1.4-4.3-2.1-5.9
				c-0.3-0.8-0.6-1.5-0.8-1.9c-0.2-0.5-0.3-0.7-0.3-0.8c0,0-0.4-1.1-1-2.7c-0.1-0.4-0.3-0.8-0.5-1.3c-0.2-0.4-0.4-0.9-0.6-1.4
				c-0.4-0.9-0.8-2-1.3-3c-1-2-2-4-2.9-5.4c-0.9-1.4-1.4-2.4-1.4-2.4s0.7,0.9,1.7,2.2c1.1,1.3,2.2,3.2,3.5,5.1c0.6,1,1.1,2,1.6,2.9
				c0.3,0.5,0.5,0.9,0.8,1.3c0.2,0.4,0.4,0.8,0.6,1.2c0.7,1.5,1.2,2.6,1.3,2.6c0,0,0.1,0.3,0.3,0.8c0.1,0.5,0.4,1.2,0.6,2
				c0.6,1.7,1,3.9,1.5,6.2c0.3,2.3,0.8,4.5,0.9,6.2C296.7,209.8,296.8,211,296.8,211z"/>
		</g>
		<g id="XMLID_1819_">
			<path id="XMLID_1820_" class="st1" d="M298.9,225.8c0,0-0.2-1-0.4-2.5c-0.1-1.5-0.9-3.5-1.4-5.4c-0.8-1.9-1.6-3.8-2.4-5.1
				c-0.8-1.3-1.3-2.2-1.3-2.2c0,0-0.5-0.9-1.3-2.2c-0.2-0.3-0.4-0.7-0.6-1c-0.3-0.3-0.5-0.7-0.8-1.1c-0.6-0.7-1.1-1.6-1.8-2.4
				c-1.4-1.4-2.7-3-3.9-3.9c-1.2-1-2-1.6-2-1.6s0.9,0.6,2.1,1.4c1.4,0.8,2.9,2.2,4.5,3.5c0.7,0.7,1.4,1.5,2.1,2.2
				c0.3,0.4,0.7,0.7,1,1c0.3,0.4,0.5,0.7,0.8,1c0.9,1.3,1.6,2.1,1.6,2.2c0.1,0,0.5,1,1.1,2.5c0.7,1.4,1.3,3.5,1.9,5.5
				c0.3,2.1,0.8,4.1,0.8,5.6C298.8,224.8,298.9,225.8,298.9,225.8z"/>
		</g>
		<g id="XMLID_1817_">
			<path id="XMLID_1818_" class="st1" d="M304.4,233.8c0,0-0.3-0.3-0.7-0.7c-0.2-0.2-0.5-0.5-0.8-0.9c-0.3-0.4-0.6-0.8-0.9-1.3
				c-1.2-1.9-2.3-4.7-2.6-7.7c-0.1-0.7-0.1-1.5-0.1-2.2c0-0.7-0.1-1.5,0-2.2c0.1-1.4,0.1-2.7,0.3-3.8c0.2-1.1,0.3-2,0.4-2.7
				c0.1-0.7,0.2-1,0.2-1.1c0-0.2,5.7-22.2,5.7-22.2s-3.7,22.3-3.8,22.5c0,0-0.1,0.4-0.3,1c-0.2,0.6-0.3,1.5-0.6,2.6
				c-0.3,1.1-0.4,2.3-0.6,3.7c-0.1,0.7-0.1,1.4-0.1,2.1c0,0.7-0.1,1.4,0,2.1c0.1,2.9,0.9,5.7,1.9,7.6c0.2,0.5,0.5,0.9,0.8,1.3
				c0.2,0.4,0.5,0.7,0.7,0.9C304.1,233.5,304.4,233.8,304.4,233.8z"/>
		</g>
		<g id="XMLID_1815_">
			<path id="XMLID_1816_" class="st1" d="M310.3,228.2c0,0-0.2-0.7-0.6-1.6c-0.4-1-0.6-2.3-1-3.7c-0.2-1.4-0.4-2.8-0.4-3.8
				c0-0.5,0-1,0-1.3c0-0.3,0-0.5,0-0.5c0,0,0.2-0.7,0.4-1.7c0.1-0.5,0.3-1.1,0.5-1.7c0.2-0.6,0.4-1.3,0.7-1.9
				c0.6-1.2,1.1-2.5,1.6-3.4c0.5-0.9,0.8-1.5,0.8-1.5s-0.2,0.6-0.6,1.6c-0.4,0.9-0.7,2.2-1,3.5c-0.1,0.6-0.2,1.3-0.3,1.9
				c-0.1,0.6-0.2,1.2-0.2,1.7c-0.1,1-0.1,1.6-0.1,1.7c0,0,0,0.2-0.1,0.5c0,0.3-0.1,0.7-0.2,1.2c-0.2,1-0.2,2.3-0.2,3.7
				c0.1,1.3,0.1,2.7,0.3,3.7C310.2,227.5,310.3,228.2,310.3,228.2z"/>
		</g>
		<g id="XMLID_1813_">
			<path id="XMLID_1814_" class="st1" d="M309.2,189.9c0,0,0.2-0.4,0.5-1c0.3-0.7,0.9-1.6,1.3-2.8c1-2.3,1.9-5.5,2.5-8.8
				c0.5-3.3,0.6-6.6,0.4-9.1c-0.1-1.2-0.2-2.3-0.3-3c-0.1-0.7-0.2-1.2-0.2-1.2c0,0-0.1-0.4-0.1-1.2c-0.1-0.7-0.2-1.7-0.4-2.9
				c-0.4-2.4-1.3-5.5-2.5-8.5c-1.3-3-2.9-5.8-4.4-7.8c-0.7-1-1.4-1.8-1.8-2.3c-0.5-0.6-0.7-0.9-0.7-0.9s0.3,0.3,0.8,0.8
				c0.5,0.5,1.3,1.2,2,2.2c1.6,1.9,3.5,4.6,5,7.6c1.5,3,2.7,6.1,3.3,8.5c0.4,1.2,0.5,2.2,0.7,3c0.1,0.7,0.2,1.2,0.2,1.2
				c0,0,0.1,0.5,0.1,1.2c0,0.8,0.1,1.8,0.1,3.1c0,2.6-0.3,6-1.1,9.3c-0.8,3.3-2,6.5-3.2,8.7c-0.5,1.2-1.1,2-1.5,2.7
				C309.4,189.5,309.2,189.9,309.2,189.9z"/>
		</g>
		<g id="XMLID_1811_">
			<path id="XMLID_1812_" class="st1" d="M318.1,218.4c0,0-0.5-4.5-1-9c-0.1-2.3-0.2-4.6-0.3-6.3c0-0.9-0.1-1.6-0.1-2.1
				c0-0.5,0-0.8,0-0.8c0-0.1,0.5-4.5,1.1-8.9c0.8-4.3,1.6-8.7,1.6-8.7s-0.3,4.4-0.6,8.8c-0.1,4.4-0.1,8.8-0.1,8.9c0,0,0,0.3-0.1,0.8
				c0,0.5-0.1,1.2-0.1,2.1c-0.1,1.7-0.2,4-0.4,6.2C318.1,213.9,318.1,218.4,318.1,218.4z"/>
		</g>
		<g id="XMLID_1809_">
			<path id="XMLID_1810_" class="st1" d="M193.7,78.6c0,0-0.2-0.2-0.6-0.6c-0.4-0.4-0.9-1-1.6-1.6c-1.4-1.3-3.5-2.6-5.7-3.8
				c-2.3-1.1-4.7-1.8-6.5-2.1c-0.9-0.2-1.7-0.2-2.3-0.3c-0.5-0.1-0.9-0.1-0.9-0.1c0,0-0.3,0-0.9-0.1c-0.5-0.1-1.3-0.2-2.2-0.2
				c-1.8-0.1-4.3,0.1-6.7,0.6c-2.4,0.5-4.7,1.4-6.3,2.2c-0.8,0.4-1.5,0.8-1.9,1.1c-0.5,0.3-0.7,0.4-0.7,0.4s0.2-0.2,0.7-0.5
				c0.4-0.3,1-0.8,1.8-1.3c1.6-1,3.8-2.1,6.2-2.9c2.4-0.7,4.9-1.2,6.9-1.2c1-0.1,1.8,0,2.4,0c0.6,0,0.9,0,0.9,0c0,0,0.4,0,1,0.2
				c0.6,0.1,1.4,0.3,2.4,0.6c1.9,0.5,4.4,1.5,6.6,2.8c2.2,1.4,4.2,3,5.4,4.4c0.7,0.6,1.1,1.3,1.5,1.7
				C193.5,78.4,193.7,78.6,193.7,78.6z"/>
		</g>
		<g id="XMLID_1807_">
			<path id="XMLID_1808_" class="st1" d="M218.8,80.2c0,0-0.1,0.2-0.4,0.6c-0.3,0.4-0.8,0.8-1.5,1.2c-0.7,0.4-1.7,0.6-2.7,0.6
				c-0.5-0.1-1.1-0.1-1.6-0.2c-0.5-0.1-1.1-0.2-1.6-0.4c-2.1-0.7-4-1.6-5.5-2.2c-1.5-0.6-2.5-1.1-2.5-1.1c0,0-0.9-0.5-2.3-1.3
				c-0.7-0.4-1.5-0.8-2.3-1.3c-0.8-0.5-1.7-1.1-2.6-1.6c-3.5-2.2-6.9-4.4-6.9-4.4s3.7,1.8,7.4,3.6c0.9,0.5,1.8,0.9,2.7,1.3
				c0.9,0.4,1.7,0.7,2.4,1c1.4,0.6,2.4,1,2.4,1c0,0,1,0.5,2.4,1.3c1.4,0.8,3.2,1.9,5.1,2.7c0.5,0.2,1,0.4,1.4,0.5
				c0.5,0.2,1,0.2,1.4,0.3c0.9,0.1,1.9,0,2.6-0.3c0.7-0.3,1.2-0.7,1.6-1C218.7,80.4,218.8,80.2,218.8,80.2z"/>
		</g>
		<g id="XMLID_1805_">
			<path id="XMLID_1806_" class="st1" d="M192.8,57.2c0,0-0.2-0.1-0.6-0.3c-0.4-0.2-0.9-0.5-1.6-0.7c-1.3-0.5-3.2-1-5.1-1.4
				c-1.9-0.3-3.8-0.4-5.2-0.3c-0.7,0-1.3,0.1-1.7,0.1c-0.4,0-0.7,0.1-0.7,0.1c0,0-0.3,0-0.7,0c-0.4,0-1,0-1.7,0.1
				c-1.4,0.1-3.2,0.4-5,0.9c-1.8,0.5-3.5,1.2-4.8,1.9c-0.6,0.3-1.1,0.6-1.5,0.8c-0.4,0.2-0.6,0.3-0.6,0.3s0.2-0.1,0.5-0.4
				c0.3-0.2,0.8-0.6,1.4-1c1.2-0.8,2.8-1.7,4.6-2.5c1.8-0.7,3.6-1.3,5.1-1.6c0.7-0.2,1.3-0.2,1.8-0.3c0.4-0.1,0.7-0.1,0.7-0.1
				c0,0,0.3,0,0.7,0c0.5,0,1.1,0,1.8,0.1c1.5,0.1,3.5,0.4,5.4,1c1.9,0.6,3.7,1.3,5,2c0.7,0.3,1.2,0.7,1.5,0.9
				C192.6,57.1,192.8,57.2,192.8,57.2z"/>
		</g>
		<g id="XMLID_1803_">
			<path id="XMLID_1804_" class="st1" d="M196,47c0,0-0.1-0.3-0.4-0.9c-0.1-0.3-0.3-0.6-0.5-0.9c-0.3-0.3-0.5-0.7-0.9-1.1
				c-0.7-0.7-1.7-1.4-2.9-2c-0.6-0.3-1.2-0.5-1.9-0.6c-0.7-0.1-1.3-0.3-2.1-0.3c-2.8-0.3-5.7,0.1-7.8,0.5c-1.1,0.1-2,0.3-2.6,0.5
				c-0.6,0.1-1,0.2-1,0.2c0,0-0.4,0.1-1,0.1c-0.6,0.1-1.5,0.3-2.5,0.5c-2.1,0.4-4.7,1.1-7.4,2c-1.3,0.4-2.6,1-3.8,1.4
				c-1.2,0.5-2.3,1.1-3.2,1.5c-1.8,1-3,1.6-3,1.6s1.2-0.8,2.9-1.9c0.9-0.5,2-1.1,3.1-1.8c1.2-0.6,2.4-1.2,3.7-1.8
				c2.6-1.1,5.3-2.1,7.3-2.7c1-0.3,1.9-0.6,2.5-0.7c0.6-0.1,1-0.2,1-0.2c0,0,0.4-0.1,1.1-0.1c0.7-0.1,1.6-0.2,2.7-0.3
				c2.2-0.2,5.2-0.4,8.1,0.1c0.7,0.1,1.4,0.3,2.1,0.5c0.7,0.2,1.4,0.5,2,0.8c1.2,0.6,2.2,1.5,2.9,2.3C195.8,45.5,196,47,196,47z"/>
		</g>
		<g id="XMLID_1801_">
			<path id="XMLID_1802_" class="st1" d="M203.1,60.4c0,0-4.9-3.7-5-3.7c0,0-3.4-4.9-3.4-4.9s4.8,3.6,4.8,3.6
				C199.6,55.5,203.1,60.4,203.1,60.4z"/>
		</g>
		<g id="XMLID_1799_">
			<path id="XMLID_1800_" class="st1" d="M186.9,18.8c0,0-0.9,0.3-2.3,0.7c-1.4,0.4-3.2,1-4.9,1.7c-1.7,0.7-3.4,1.6-4.5,2.4
				c-0.6,0.4-1,0.8-1.3,1c-0.3,0.2-0.5,0.4-0.5,0.4c0,0-0.2,0.1-0.5,0.4c-0.3,0.2-0.7,0.6-1.2,1c-0.9,0.9-2,2.3-2.7,3.9
				c-0.7,1.6-0.9,3.4-0.7,4.7c0,0.3,0.1,0.6,0.2,0.9c0.1,0.3,0.1,0.5,0.2,0.7c0.1,0.4,0.2,0.6,0.2,0.6s-0.1-0.2-0.3-0.5
				c-0.1-0.2-0.2-0.4-0.3-0.6c-0.1-0.3-0.2-0.5-0.3-0.9c-0.4-1.3-0.4-3.2,0.1-5c0.5-1.8,1.4-3.5,2.3-4.6c0.4-0.6,0.9-1,1.2-1.3
				c0.3-0.3,0.5-0.5,0.5-0.5c0,0,0.2-0.2,0.6-0.4c0.4-0.2,0.9-0.6,1.6-0.9c1.3-0.7,3.2-1.4,5-1.9c1.9-0.5,3.8-0.9,5.2-1.1
				C186,19,186.9,18.8,186.9,18.8z"/>
		</g>
		<g id="XMLID_1797_">
			<path id="XMLID_1798_" class="st1" d="M192.1,18.8c0,0-0.2,0-0.4,0.1c-0.3,0.1-0.7,0.2-1.1,0.4c-0.9,0.3-2.1,1-3.1,1.7
				c-1,0.8-1.9,1.7-2.5,2.4c-0.3,0.4-0.5,0.7-0.7,0.9c-0.2,0.2-0.3,0.4-0.3,0.4c0,0-0.1,0.1-0.3,0.3c-0.2,0.2-0.5,0.5-0.7,0.8
				c-0.6,0.7-1.2,1.7-1.8,2.8c-0.5,1.1-0.8,2.3-1,3.2c-0.1,0.5-0.1,0.8-0.1,1.1c0,0.3,0,0.4,0,0.4s0-0.2-0.1-0.4
				c0-0.3-0.1-0.7-0.1-1.1c0-0.9,0.1-2.2,0.3-3.5c0.3-1.2,0.8-2.5,1.3-3.4c0.2-0.5,0.5-0.8,0.6-1.1c0.2-0.3,0.3-0.4,0.3-0.4
				c0,0,0.1-0.1,0.4-0.4c0.2-0.2,0.5-0.5,0.9-0.9c0.8-0.7,2-1.5,3.2-2.1c1.3-0.6,2.6-1,3.6-1.2c0.5-0.1,0.9-0.1,1.2-0.2
				C191.9,18.8,192.1,18.8,192.1,18.8z"/>
		</g>
		<g id="XMLID_1795_">
			<path id="XMLID_1796_" class="st1" d="M152,9.4c0,0,0.5,0.4,1.3,1c0.8,0.6,1.7,1.5,2.7,2.4c0.8,1,1.8,2,2.3,2.9
				c0.6,0.8,1,1.4,0.9,1.5c0,0,0.2,0.7,0.5,1.6c0.1,0.2,0.1,0.5,0.2,0.8c0.1,0.3,0.1,0.6,0.2,0.9c0.1,0.6,0.2,1.2,0.3,1.8
				c0.1,1.3,0.2,2.5,0.1,3.5c-0.1,0.9-0.1,1.6-0.1,1.6s-0.1-0.6-0.2-1.5c-0.1-0.9-0.4-2.1-0.7-3.3c-0.2-0.6-0.4-1.2-0.6-1.7
				c-0.1-0.3-0.2-0.5-0.3-0.8c-0.1-0.2-0.2-0.5-0.3-0.7c-0.4-0.8-0.7-1.4-0.7-1.4c0,0-0.2-0.6-0.6-1.5c-0.3-0.9-1-2-1.6-3.1
				c-0.8-1-1.5-2.1-2.2-2.8C152.4,9.9,152,9.4,152,9.4z"/>
		</g>
		<g id="XMLID_1793_">
			<path id="XMLID_1794_" class="st1" d="M205.2,6.9c0,0-0.1,0.1-0.4,0.3c-0.2,0.2-0.6,0.4-1,0.7c-0.8,0.6-1.6,1.7-2.3,2.8
				c-0.6,1.1-1,2.3-1.2,3.2c-0.1,0.5-0.1,0.9-0.2,1.1c0,0.3-0.1,0.4-0.1,0.4c0,0,0,0.2-0.1,0.4c-0.1,0.3-0.2,0.6-0.2,1.1
				c-0.2,0.9-0.2,2.1,0,3.4c0.2,1.2,0.6,2.4,1.1,3.3c0.2,0.4,0.5,0.7,0.6,1c0.2,0.2,0.2,0.4,0.2,0.4s-0.1-0.1-0.3-0.3
				c-0.2-0.2-0.5-0.5-0.8-0.9c-0.6-0.8-1.3-1.9-1.7-3.2c-0.4-1.3-0.7-2.6-0.7-3.6c0-0.5,0-0.9,0-1.3c0-0.3,0-0.5,0-0.5
				c0,0,0-0.2,0.1-0.5c0.1-0.3,0.2-0.7,0.4-1.2c0.4-1,1.1-2.2,2-3.3c0.9-1.1,2-2,2.9-2.5c0.4-0.3,0.8-0.4,1.1-0.6
				C205.1,6.9,205.2,6.9,205.2,6.9z"/>
		</g>
		<g id="XMLID_1791_">
			<path id="XMLID_1792_" class="st1" d="M206.3,19.8c0,0,0.2,0.6,0.6,1.4c0.4,0.8,0.7,2,1.2,3.2c0.3,1.2,0.7,2.4,0.8,3.4
				c0.1,0.5,0.2,0.9,0.2,1.1c0.1,0.3,0.1,0.4,0.1,0.5c0,0,0,0.6-0.1,1.6c0,0.9-0.3,2.1-0.4,3.3c-0.3,1.2-0.5,2.4-0.8,3.2
				c-0.3,0.9-0.4,1.4-0.4,1.4s0.1-0.6,0.1-1.5c0.1-0.9,0.1-2.1,0.1-3.2c-0.1-1.2-0.1-2.4-0.2-3.2c-0.1-0.9-0.2-1.5-0.2-1.5
				c0,0,0-0.2,0-0.4c0-0.3,0-0.6,0-1.1c0-0.9-0.1-2.1-0.1-3.3c-0.2-1.2-0.3-2.4-0.5-3.3C206.4,20.4,206.3,19.8,206.3,19.8z"/>
		</g>
		<g id="XMLID_1789_">
			<path id="XMLID_1790_" class="st1" d="M226.6,58.6c0,0-0.3,0-0.9,0c-0.3,0-0.7,0-1-0.1c-0.4-0.1-0.9-0.2-1.3-0.3
				c-1.9-0.5-4.4-1.7-6.4-3.5c-2-1.7-3.6-3.9-4.8-5.5c-1.1-1.6-1.9-2.7-1.9-2.7c0,0-0.7-1.1-1.6-2.7c-0.5-0.8-1.2-1.6-1.8-2.6
				c-0.4-0.4-0.8-0.9-1.2-1.3c-0.4-0.4-0.9-0.8-1.4-1.2c-1.9-1.6-4.2-2.6-6.1-2.9c-0.5-0.1-0.9-0.1-1.3-0.1c-0.4,0-0.7,0-1,0
				c-0.6,0-0.9,0.1-0.9,0.1s0.3-0.1,0.9-0.1c0.3,0,0.6-0.1,1-0.1c0.4,0,0.8,0,1.3,0c2,0.1,4.5,1,6.7,2.5c0.5,0.4,1,0.8,1.6,1.2
				c0.5,0.4,0.9,0.9,1.4,1.3c0.8,0.9,1.5,1.8,2.2,2.5c1.1,1.5,1.9,2.6,1.9,2.6c0,0,0.7,1.2,1.7,2.8c1,1.6,2.3,3.8,4.1,5.6
				c1.7,1.9,3.9,3.3,5.8,3.9c0.5,0.1,0.9,0.3,1.3,0.4c0.4,0.1,0.7,0.1,1,0.1C226.3,58.5,226.6,58.6,226.6,58.6z"/>
		</g>
		<g id="XMLID_1787_">
			<path id="XMLID_1788_" class="st1" d="M228.2,73.8c0,0-0.2-0.1-0.6-0.2c-0.4-0.1-1-0.2-1.7-0.5c-1.4-0.5-3.1-1.5-4.7-2.6
				c-1.6-1.1-3.1-2.3-4.3-3.1c-0.6-0.4-1.1-0.8-1.4-1c-0.3-0.2-0.6-0.4-0.6-0.4c0,0-0.2-0.2-0.5-0.4c-0.3-0.2-0.8-0.6-1.4-0.9
				c-1.1-0.7-2.8-1.5-4.6-2c-1.8-0.4-3.7-0.4-5,0c-0.3,0.1-0.6,0.2-0.9,0.3c-0.3,0.1-0.5,0.2-0.6,0.3c-0.3,0.2-0.5,0.3-0.5,0.3
				s0.2-0.1,0.5-0.4c0.2-0.1,0.4-0.3,0.6-0.4c0.2-0.2,0.5-0.3,0.9-0.5c1.3-0.6,3.3-0.9,5.3-0.7c2,0.2,3.8,0.9,5.2,1.6
				c0.7,0.3,1.2,0.6,1.6,0.8c0.4,0.2,0.6,0.4,0.6,0.4c0,0,0.2,0.2,0.6,0.5c0.3,0.3,0.8,0.7,1.3,1.2c1.1,1,2.4,2.3,3.9,3.6
				c1.4,1.2,2.9,2.4,4.2,3c0.6,0.4,1.2,0.5,1.6,0.7C228,73.7,228.2,73.8,228.2,73.8z"/>
		</g>
		<g id="XMLID_1785_">
			<path id="XMLID_1786_" class="st1" d="M253.2,82.8c0,0-0.1-0.1-0.2-0.3c-0.2-0.2-0.3-0.5-0.6-0.8c-0.5-0.7-1.4-1.4-2.3-2.1
				c-0.9-0.6-2-1.1-2.8-1.4c-0.4-0.1-0.7-0.2-1-0.3c-0.2-0.1-0.4-0.1-0.4-0.1c0,0-0.1-0.1-0.4-0.2c-0.2-0.1-0.5-0.2-0.9-0.4
				c-0.8-0.3-1.9-0.5-3-0.6c-1.1-0.1-2.2,0-3.1,0.2c-0.4,0.1-0.8,0.2-1,0.2c-0.2,0.1-0.4,0.1-0.4,0.1s0.1-0.1,0.4-0.2
				c0.2-0.1,0.5-0.3,0.9-0.4c0.8-0.3,2-0.7,3.2-0.8c1.2-0.1,2.4-0.1,3.4,0c0.5,0,0.8,0.1,1.1,0.2c0.3,0.1,0.4,0.1,0.4,0.1
				c0,0,0.2,0.1,0.4,0.2c0.3,0.1,0.6,0.3,1,0.5c0.8,0.5,1.8,1.2,2.7,2.1c0.8,0.9,1.5,1.8,1.9,2.6c0.2,0.4,0.3,0.7,0.4,1
				C253.1,82.7,253.2,82.8,253.2,82.8z"/>
		</g>
		<g id="XMLID_1783_">
			<path id="XMLID_1784_" class="st1" d="M266.4,98.8c0,0,0.1,0.3,0,0.9c0,0.5-0.3,1.3-1,2c-0.7,0.7-1.7,1.3-3,1.6
				c-1.2,0.3-2.7,0.2-4-0.3c-2.6-1-4.5-2.8-6.1-3.9c-0.7-0.6-1.4-1-1.9-1.3c-0.5-0.3-0.7-0.5-0.7-0.5c0,0-0.2-0.2-0.7-0.5
				c-0.5-0.3-1.1-0.7-1.8-1.2c-0.8-0.5-1.7-1-2.8-1.5c-1.1-0.4-2.2-1-3.4-1.3c-2.3-0.8-4.8-1.2-6.7-1.4c-0.9-0.1-1.7-0.1-2.3-0.1
				c-0.5,0-0.9,0-0.9,0s0.3,0,0.9-0.1c0.5,0,1.3-0.1,2.3-0.1c1.9,0,4.4,0.2,6.9,0.8c1.3,0.2,2.5,0.7,3.6,1c1.1,0.4,2.2,0.9,3,1.3
				c0.9,0.5,1.6,0.8,2.1,1.1c0.5,0.3,0.8,0.5,0.8,0.5c0,0,0.3,0.2,0.7,0.6c0.5,0.4,1.1,0.9,1.8,1.6c1.4,1.3,3.1,3.2,5.3,4.2
				c2.2,1.1,5,0.5,6.3-0.7c0.7-0.6,1.1-1.3,1.1-1.8C266.5,99.2,266.4,98.8,266.4,98.8z"/>
		</g>
		<g id="XMLID_1781_">
			<path id="XMLID_1782_" class="st1" d="M278.3,77.7c0,0-0.7,0.2-1.8,0.5c-0.6,0.1-1.2,0.2-2,0.2c-0.7,0-1.5,0-2.3,0.1
				c-1.5,0-3.1,0-4.2,0.1c-0.6,0-1,0.1-1.3,0.2c-0.3,0-0.5,0.1-0.5,0.1c0,0-0.2,0-0.5,0c-0.3,0-0.7,0.1-1.2,0.2
				c-1,0.2-2.3,0.7-3.2,1.7c-0.9,1-1.4,2.3-1.3,3.4c0,0.5,0.2,0.9,0.3,1.2c0.2,0.3,0.3,0.4,0.3,0.4s-0.1-0.1-0.3-0.4
				c-0.2-0.3-0.4-0.7-0.6-1.2c-0.3-1.1-0.1-2.7,0.8-4c0.4-0.7,1-1.2,1.6-1.7c0.3-0.2,0.6-0.4,0.9-0.6c0.3-0.1,0.6-0.3,0.9-0.4
				c0.6-0.2,1.1-0.4,1.4-0.4c0.4-0.1,0.6-0.1,0.6-0.1c0,0,0.2,0,0.6,0c0.4,0,0.9,0,1.5,0c1.2,0.1,2.7,0.3,4.2,0.6
				c0.7,0.1,1.5,0.2,2.2,0.3c0.7,0,1.4,0.1,1.9,0C277.6,77.8,278.3,77.7,278.3,77.7z"/>
		</g>
		<g id="XMLID_1779_">
			<path id="XMLID_1780_" class="st1" d="M237,31.4c0,0-0.1,0.2-0.3,0.5c-0.2,0.3-0.5,0.8-0.8,1.4c-0.6,1.1-1.2,2.8-1.6,4.4
				c-0.3,1.7-0.4,3.3-0.4,4.6c0,0.6,0.1,1.2,0.1,1.5c0,0.4,0.1,0.6,0.1,0.6c0,0,0,0.2,0,0.6c0,0.4,0,0.9,0.1,1.5
				c0.1,1.2,0.5,2.8,1,4.4c0.6,1.5,1.4,3,2.1,4.1c0.3,0.5,0.7,0.9,0.9,1.2c0.2,0.3,0.4,0.5,0.4,0.5s-0.2-0.1-0.4-0.4
				c-0.3-0.3-0.7-0.6-1.1-1.1c-0.9-0.9-1.9-2.3-2.7-3.9c-0.8-1.5-1.4-3.2-1.7-4.5c-0.2-0.6-0.3-1.2-0.3-1.6
				c-0.1-0.4-0.1-0.6-0.1-0.6c0,0,0-0.3,0-0.7c0-0.4,0-1,0.1-1.7c0.1-1.4,0.5-3.1,1.1-4.8c0.6-1.7,1.4-3.2,2.2-4.3
				c0.3-0.6,0.7-1,1-1.3C236.9,31.6,237,31.4,237,31.4z"/>
		</g>
		<g id="XMLID_1777_">
			<path id="XMLID_1778_" class="st1" d="M242.2,32.6c0,0-0.1,0.2-0.3,0.5c-0.1,0.3-0.5,0.8-0.6,1.4c-0.5,1.2-0.7,2.8-0.8,4.5
				c0,1.6,0.3,3.3,0.7,4.5c0.2,0.6,0.4,1.1,0.5,1.4c0.1,0.3,0.2,0.5,0.2,0.6c0,0,0.3,0.8,0.6,2c0.1,0.3,0.2,0.6,0.3,0.9
				c0.1,0.3,0.3,0.7,0.4,1c0.3,0.7,0.6,1.4,1,2.2c1.5,2.9,3.2,5.8,3.2,5.8s-2.1-2.6-4.1-5.3c-0.5-0.7-0.9-1.4-1.3-2.1
				c-0.2-0.3-0.4-0.7-0.6-1c-0.2-0.3-0.3-0.6-0.4-0.9c-0.6-1.2-0.9-2-0.9-2c0,0-0.1-0.2-0.2-0.6c-0.1-0.4-0.2-0.9-0.3-1.6
				c-0.2-1.3-0.3-3.1,0-4.8c0.3-1.7,0.8-3.4,1.4-4.5c0.3-0.6,0.6-1,0.8-1.3C242,32.8,242.2,32.6,242.2,32.6z"/>
		</g>
		<g id="XMLID_1775_">
			<path id="XMLID_1776_" class="st1" d="M264.9,42.8c0,0,0-0.3-0.3-0.8c-0.2-0.5-0.7-1.1-1.6-1.5c-0.8-0.4-2-0.7-3.1-0.5
				c-1.1,0.2-2.2,0.9-2.9,1.8c-1.5,1.9-1.7,4.4-1.3,6.2c0.1,0.4,0.1,0.9,0.2,1.2c0.1,0.4,0.2,0.7,0.3,0.9c0.1,0.5,0.2,0.8,0.2,0.9
				c0,0,0.3,1.2,0.7,3c0.2,0.9,0.4,2,0.6,3.1c0.1,0.6,0.2,1.2,0.3,1.8c0,0.6,0.1,1.2,0.1,1.8c0,0.6,0.1,1.2,0.1,1.8
				c0,0.6,0,1.2-0.1,1.8c-0.1,1.1,0,2.2-0.2,3.1c-0.3,1.8-0.5,3-0.5,3s0.1-1.2,0.2-3c0.1-0.9,0-2-0.1-3.1c0-0.6,0-1.1-0.1-1.7
				c-0.1-0.6-0.2-1.2-0.3-1.8c-0.1-0.6-0.2-1.2-0.3-1.8c-0.2-0.6-0.3-1.1-0.5-1.7c-0.3-1.1-0.5-2.1-0.9-3c-0.3-0.9-0.6-1.6-0.7-2.1
				c-0.2-0.5-0.3-0.8-0.3-0.9c0,0-0.1-0.4-0.2-0.9c-0.1-0.3-0.1-0.6-0.2-1c0-0.4-0.1-0.9-0.1-1.4c-0.2-2,0.3-4.8,2.2-6.9
				c0.9-1,2.3-1.7,3.6-1.8c1.3-0.1,2.5,0.3,3.3,0.8c0.9,0.5,1.3,1.2,1.5,1.8C264.9,42.5,264.9,42.8,264.9,42.8z"/>
		</g>
		<g id="XMLID_1773_">
			<path id="XMLID_1774_" class="st1" d="M290.4,77.9c0,0-0.4-1-0.9-2.6c-0.4-0.7-0.8-1.6-1.4-2.4c-0.3-0.4-0.6-0.8-1-1.2l-0.5-0.6
				l-0.6-0.6c-0.4-0.4-0.8-0.7-1.2-1.1c-0.4-0.4-0.9-0.6-1.3-0.9c-0.4-0.3-0.8-0.6-1.2-0.8c-0.4-0.2-0.8-0.4-1.2-0.6
				c-0.4-0.2-0.7-0.4-1-0.5c-0.3-0.1-0.6-0.2-0.8-0.3c-0.5-0.2-0.7-0.2-0.7-0.3c0,0-0.3-0.1-0.7-0.3c-0.4-0.2-1.1-0.3-1.8-0.6
				c-1.5-0.5-3.7-0.8-5.7-0.3c-2.1,0.4-3.8,1.9-4.4,3.3c-0.7,1.4-0.3,2.5-0.4,2.5c0.1,0-0.4-1.1,0.1-2.6c0.2-0.8,0.8-1.6,1.5-2.4
				c0.8-0.7,1.8-1.3,2.9-1.7c2.2-0.7,4.6-0.7,6.3-0.3c0.9,0.2,1.6,0.3,2.1,0.4c0.5,0.2,0.8,0.3,0.8,0.3c0,0,0.3,0.1,0.8,0.4
				c0.2,0.1,0.5,0.2,0.9,0.4c0.3,0.2,0.6,0.4,1,0.7c0.4,0.2,0.8,0.5,1.2,0.8c0.4,0.3,0.8,0.7,1.2,1c0.4,0.4,0.8,0.7,1.2,1.1
				c0.4,0.4,0.7,0.9,1.1,1.3l0.5,0.7l0.4,0.7c0.3,0.5,0.6,0.9,0.8,1.4c0.5,0.9,0.8,1.8,1.1,2.6C290.2,76.8,290.4,77.9,290.4,77.9z"
				/>
		</g>
		<g id="XMLID_1771_">
			<path id="XMLID_1772_" class="st1" d="M290.1,91.7c0,0-0.9-0.1-2.2-0.2c-0.7-0.1-1.5-0.1-2.3-0.2c-0.8,0-1.7,0-2.6,0
				c-1.8,0-3.6,0.3-4.9,0.4c-0.7,0.1-1.2,0.1-1.6,0.2c-0.4,0.1-0.6,0.1-0.6,0.1c0,0-0.9,0.1-2.2,0.2c-1.3,0.1-3,0.3-4.5,0.9
				c-0.7,0.3-1.4,0.8-1.9,1.4c-0.5,0.6-0.7,1.3-0.7,1.9c-0.2,1.2,0.6,1.9,0.6,1.9c0.1,0-0.8-0.6-0.9-1.9c-0.1-0.7,0.1-1.4,0.5-2.2
				c0.4-0.8,1.1-1.4,1.9-1.9c1.6-1,3.4-1.4,4.7-1.7c1.3-0.3,2.2-0.5,2.2-0.5c0,0,0.3,0,0.7-0.1c0.4-0.1,1,0,1.7,0c1.4,0,3.2,0,5,0.2
				c0.9,0.1,1.8,0.2,2.7,0.3c0.8,0.2,1.6,0.3,2.3,0.5C289.2,91.5,290.1,91.7,290.1,91.7z"/>
		</g>
		<g id="XMLID_1769_">
			<path id="XMLID_1770_" class="st1" d="M298.8,101.2c0,0,0.1,0.3,0.2,0.7c0,0.2,0.1,0.5,0.2,0.8c0.1,0.3,0.1,0.7,0.2,1
				c0.2,1.5,0,3.7-0.5,5.7c-0.7,2-1.7,3.9-2.8,5.2c-0.5,0.7-1.1,1.1-1.4,1.5c-0.3,0.4-0.6,0.5-0.6,0.5c0,0-0.3,0.2-0.7,0.4
				c-0.4,0.2-1,0.6-1.8,0.9c-0.4,0.2-0.8,0.3-1.2,0.5c-0.5,0.1-0.9,0.2-1.4,0.4c-0.2,0.1-0.5,0.1-0.8,0.2c-0.3,0-0.5,0.1-0.8,0.1
				c-0.5,0.1-1.1,0.1-1.6,0.2c-2.2,0.1-4.3-0.3-5.8-0.8c-0.8-0.2-1.3-0.5-1.7-0.7c-0.4-0.2-0.6-0.3-0.6-0.3s0.2,0.1,0.7,0.2
				c0.4,0.1,1,0.4,1.8,0.5c1.5,0.3,3.6,0.4,5.6,0.2c0.5-0.1,1-0.2,1.5-0.3c0.2-0.1,0.5-0.1,0.7-0.2c0.2-0.1,0.5-0.2,0.7-0.3
				c0.4-0.2,0.9-0.3,1.3-0.5c0.4-0.2,0.7-0.4,1.1-0.6c0.7-0.3,1.1-0.7,1.5-1c0.4-0.3,0.6-0.4,0.6-0.4c0,0,0.2-0.1,0.6-0.4
				c0.3-0.3,0.9-0.6,1.4-1.2c1.1-1,2.3-2.7,3.1-4.5c0.7-1.9,1.2-3.9,1.1-5.4c0-0.4,0-0.7,0-1c0-0.3-0.1-0.6-0.1-0.8
				C298.8,101.4,298.8,101.2,298.8,101.2z"/>
		</g>
		<g id="XMLID_1767_">
			<path id="XMLID_1768_" class="st1" d="M300,106.2c0,0,0.4,2.8,0.8,5.6c0.1,1.4,0.2,2.8,0.3,3.9c0,0.5,0.1,1,0.1,1.3
				c0,0.3,0,0.5,0,0.5c0,0-0.5,2.8-0.9,5.5c-0.6,2.7-1.3,5.3-1.3,5.3s0.2-2.7,0.3-5.4c0-2.7,0-5.5,0-5.5c0,0,0-0.2,0.1-0.5
				c0-0.3,0.1-0.8,0.1-1.3c0.1-1.1,0.2-2.5,0.4-3.8C299.9,109,300,106.2,300,106.2z"/>
		</g>
		<g id="XMLID_1765_">
			<path id="XMLID_1766_" class="st1" d="M253.9,72.6c0,0-0.3,0.2-0.9,0.5c-0.6,0.3-1.5,0.7-2.7,0.9c-2.3,0.6-5.6,0.6-8.7-0.4
				c-1.5-0.5-3-1.3-4.2-2.2c-1.2-0.9-2.2-2-2.9-3c-0.7-1-1.2-1.9-1.5-2.5c-0.3-0.6-0.5-1-0.5-1c0,0-0.1-0.4-0.3-1.1
				c-0.2-0.6-0.4-1.6-0.7-2.7c-0.5-2.2-0.8-5.1-1.6-7.9c-0.7-2.8-1.9-5.5-3.3-7.2c-0.7-0.8-1.4-1.5-1.9-1.9
				c-0.5-0.4-0.8-0.6-0.8-0.6s0.3,0.2,0.9,0.6c0.6,0.3,1.3,1,2.1,1.7c1.6,1.6,3,4.3,4,7.1c1,2.8,1.6,5.7,2.2,7.8
				c0.3,1,0.6,1.9,0.8,2.5c0.2,0.6,0.4,0.9,0.4,1c0,0,0.1,0.4,0.4,1c0.2,0.6,0.6,1.4,1.2,2.4c0.6,0.9,1.3,2,2.4,2.9
				c1,0.9,2.3,1.7,3.7,2.3c2.8,1.2,6,1.4,8.3,1c1.1-0.2,2.1-0.5,2.7-0.7C253.5,72.8,253.9,72.6,253.9,72.6z"/>
		</g>
		<g id="XMLID_1763_">
			<path id="XMLID_1764_" class="st1" d="M295.1,91.7c0,0,0.1,0.3,0.2,0.8c0.1,0.5,0.2,1.3,0,2.1c-0.3,1.8-1.8,3.9-3.9,5.4
				c-2,1.5-4.6,2.2-6.4,2.7c-0.9,0.2-1.7,0.4-2.2,0.5c-0.5,0.1-0.9,0.2-0.9,0.2c0,0-0.3,0-0.9,0.1c-0.5,0.1-1.2,0.2-2.1,0.3
				c-1.7,0.3-4,0.9-5.8,2.2c-1.8,1.3-3.2,3.3-3.4,4.9c-0.2,0.8,0,1.5,0,2c0.1,0.5,0.2,0.7,0.2,0.7s-0.1-0.3-0.3-0.7
				c-0.1-0.5-0.3-1.2-0.3-2.1c0.1-1.8,1.3-4,3.1-5.6c0.9-0.8,2-1.5,3-2c0.5-0.2,1.1-0.4,1.5-0.6c0.5-0.2,1-0.3,1.4-0.4
				c0.9-0.2,1.6-0.4,2.2-0.6c0.5-0.1,0.8-0.2,0.9-0.2c0,0,0.3,0,0.9-0.1c0.5-0.1,1.3-0.2,2.2-0.3c1.8-0.3,4.2-0.7,6.2-1.9
				c2-1.2,3.6-3,4.1-4.7c0.3-0.8,0.3-1.6,0.2-2.1C295.1,92,295.1,91.7,295.1,91.7z"/>
		</g>
		<g id="XMLID_1761_">
			<path id="XMLID_1762_" class="st1" d="M98.9,86.9c0,0,0.2-0.2,0.5-0.6c0.3-0.4,0.9-0.9,1.4-1.7c1.1-1.4,2.1-3.6,2.9-5.8
				c0.6-2.3,0.9-4.6,0.8-6.3c0-0.9-0.2-1.6-0.2-2.1c-0.1-0.5-0.1-0.8-0.1-0.8c0,0-0.1-0.3-0.1-0.8c-0.1-0.5-0.2-1.2-0.4-2
				c-0.1-0.4-0.2-0.8-0.4-1.3c-0.2-0.4-0.4-0.9-0.6-1.4c-0.1-0.2-0.2-0.5-0.3-0.7c-0.1-0.2-0.3-0.5-0.4-0.7c-0.3-0.5-0.5-1-0.9-1.5
				c-1.3-1.9-3-3.6-4.4-4.7c-0.7-0.6-1.3-0.9-1.8-1.2c-0.4-0.3-0.7-0.5-0.7-0.5s0.3,0.1,0.7,0.4c0.4,0.3,1.2,0.5,1.9,1.1
				c1.5,1,3.4,2.5,5,4.4c0.4,0.5,0.7,1,1.1,1.4c0.2,0.2,0.3,0.5,0.5,0.7c0.1,0.3,0.3,0.5,0.4,0.8c0.3,0.5,0.5,1,0.8,1.4
				c0.2,0.5,0.4,0.9,0.6,1.4c0.4,0.8,0.5,1.6,0.7,2.1c0.1,0.5,0.2,0.8,0.2,0.9c0,0,0.1,0.3,0.1,0.9c0,0.6,0.1,1.4,0,2.3
				c-0.1,1.9-0.6,4.3-1.5,6.6c-1,2.3-2.3,4.4-3.5,5.7c-0.5,0.7-1.2,1.2-1.5,1.6C99.1,86.7,98.9,86.9,98.9,86.9z"/>
		</g>
		<g id="XMLID_1759_">
			<path id="XMLID_1760_" class="st1" d="M44.1,168.6c0,0,0.6-0.4,1.5-1c1-0.5,2-1.6,3.1-2.5c0.9-1.1,1.9-2.1,2.5-3
				c0.6-0.9,1-1.5,1-1.5c0,0,0.4-0.6,1-1.4c0.2-0.2,0.3-0.4,0.5-0.7c0.1-0.3,0.3-0.5,0.4-0.8c0.3-0.6,0.7-1.2,1-1.8
				c0.5-1.3,1.1-2.5,1.2-3.6c0.2-1,0.4-1.7,0.4-1.7s0,0.7-0.1,1.7c0,1.1-0.3,2.4-0.6,3.8c-0.2,0.7-0.5,1.3-0.7,2
				c-0.1,0.3-0.2,0.6-0.3,0.9c-0.1,0.3-0.3,0.5-0.4,0.8c-0.5,1-0.8,1.6-0.9,1.7c0,0-0.5,0.6-1.3,1.4c-0.7,0.9-2,1.8-3.1,2.7
				c-1.3,0.8-2.5,1.7-3.6,2C44.8,168.3,44.1,168.6,44.1,168.6z"/>
		</g>
		<g id="XMLID_1757_">
			<path id="XMLID_1758_" class="st1" d="M43.7,231.4c0,0,0-0.3,0.1-0.9c0.1-0.6,0.2-1.4,0.5-2.4c0.5-1.9,1.5-4.4,2.8-6.8
				c1.3-2.4,2.7-4.7,3.7-6.4c0.5-0.9,0.9-1.6,1.2-2.1c0.3-0.5,0.4-0.8,0.4-0.8c0,0,0.7-1.2,1.6-2.8c0.4-0.9,0.8-1.9,1.3-3
				c0.2-0.6,0.3-1.1,0.5-1.7c0.1-0.6,0.2-1.2,0.3-1.8c0.3-2.5,0-5-0.7-6.8c-0.2-0.4-0.4-0.8-0.5-1.2c-0.2-0.3-0.4-0.6-0.5-0.9
				c-0.3-0.5-0.5-0.7-0.5-0.7s0.2,0.3,0.6,0.7c0.2,0.2,0.4,0.5,0.6,0.8c0.2,0.3,0.4,0.7,0.7,1.2c0.9,1.7,1.5,4.3,1.4,7
				c0,0.7-0.1,1.3-0.2,2c-0.1,0.6-0.2,1.3-0.4,1.9c-0.4,1.2-0.7,2.3-1.1,3.2c-0.8,1.8-1.4,3-1.4,3.1c0,0-0.2,0.3-0.5,0.8
				c-0.3,0.5-0.8,1.2-1.4,2.1c-1.2,1.7-2.8,3.8-4.2,6.1c-1.5,2.2-2.7,4.6-3.4,6.4c-0.3,0.9-0.6,1.7-0.7,2.3
				C43.8,231,43.7,231.4,43.7,231.4z"/>
		</g>
		<g id="XMLID_1755_">
			<path id="XMLID_1756_" class="st1" d="M164.7,88.3c0,0-0.2,0.1-0.7,0.3c-0.4,0.2-1.1,0.4-1.7,0.8c-1.4,0.7-3.1,1.9-4.6,3.4
				c-1.4,1.5-2.5,3.2-3.1,4.5c-0.3,0.7-0.5,1.3-0.7,1.7c-0.2,0.4-0.2,0.7-0.2,0.7c0,0-0.1,0.2-0.2,0.7c-0.1,0.4-0.4,1-0.5,1.7
				c-0.4,1.4-0.5,3.3-0.4,5.3c0.2,1.9,0.7,3.8,1.4,5.2c0.3,0.7,0.6,1.2,0.8,1.6c0.2,0.4,0.3,0.6,0.3,0.6s-0.1-0.2-0.4-0.6
				c-0.2-0.4-0.7-0.8-1-1.5c-0.8-1.3-1.6-3.2-2-5.2c-0.4-2-0.5-4.1-0.2-5.7c0-0.8,0.2-1.4,0.3-1.9c0.1-0.5,0.2-0.7,0.2-0.7
				c0,0,0.1-0.3,0.3-0.7c0.2-0.4,0.5-1.1,0.9-1.8c0.9-1.4,2.3-3.1,3.9-4.5c1.7-1.3,3.6-2.4,5.1-3c0.7-0.3,1.4-0.5,1.8-0.6
				C164.5,88.4,164.7,88.3,164.7,88.3z"/>
		</g>
		<g id="XMLID_1753_">
			<path id="XMLID_1754_" class="st1" d="M145.1,78.2c0,0,0,0.3,0.1,1c0,0.3,0.1,0.7,0.1,1.1c0,0.4,0,0.9-0.1,1.5
				c-0.2,2.1-1.3,4.9-3,7.3c-1.6,2.4-3.7,4.5-5.3,6.1c-0.8,0.8-1.4,1.4-1.9,1.9c-0.4,0.5-0.7,0.7-0.7,0.8c0,0-0.3,0.3-0.7,0.7
				c-0.5,0.4-1.1,1-1.8,1.8c-1.4,1.5-3.2,3.6-4,6.2c-0.9,2.5-1,5.3-0.3,7.2c0.3,1,0.8,1.7,1.1,2.2c0.4,0.5,0.6,0.7,0.6,0.7
				s-0.2-0.3-0.7-0.7c-0.4-0.5-0.9-1.2-1.3-2.2c-0.9-1.9-1.1-4.8-0.3-7.6c0.7-2.8,2.4-5.2,3.7-6.9c0.7-0.8,1.3-1.5,1.7-2
				c0.4-0.5,0.7-0.7,0.7-0.8c0,0,0.3-0.3,0.8-0.7c0.5-0.4,1.2-1,2-1.7c1.6-1.4,3.8-3.3,5.6-5.5c1.8-2.2,3-4.7,3.4-6.8
				c0.1-0.5,0.1-1,0.2-1.4c0.1-0.4,0-0.8,0-1.1C145.1,78.6,145.1,78.2,145.1,78.2z"/>
		</g>
		<g id="XMLID_1751_">
			<path id="XMLID_1752_" class="st1" d="M92.4,103.5c0,0-0.2,0.2-0.5,0.5c-0.2,0.2-0.3,0.4-0.6,0.6c-0.1,0.1-0.2,0.2-0.3,0.4
				c-0.1,0.2-0.2,0.3-0.3,0.5c-0.9,1.3-1.7,3.2-2.1,5.2c-0.3,2-0.1,4.1,0.3,5.5c0.2,0.7,0.5,1.3,0.7,1.7c0.2,0.4,0.3,0.6,0.3,0.6
				c0,0,0.1,0.2,0.3,0.6c0.2,0.4,0.4,1,0.9,1.5c0.2,0.3,0.5,0.6,0.7,1c0.3,0.3,0.6,0.6,1,1c0.2,0.2,0.3,0.3,0.5,0.5l0.6,0.4
				c0.4,0.3,0.8,0.6,1.2,0.9c1.8,1,3.8,1.7,5.4,1.9c0.4,0.1,0.8,0.1,1.1,0.1c0.3,0,0.6,0,0.8,0c0.5,0,0.7,0,0.7,0s-0.3,0-0.7,0.1
				c-0.2,0-0.5,0-0.8,0.1c-0.3,0-0.7,0.1-1.1,0c-1.6,0-3.8-0.5-5.8-1.4c-0.5-0.2-1-0.5-1.4-0.8c-0.2-0.1-0.5-0.3-0.7-0.4
				c-0.2-0.2-0.4-0.3-0.6-0.5c-0.4-0.3-0.8-0.6-1.2-0.9c-0.3-0.4-0.6-0.7-0.9-1c-0.6-0.6-1-1.2-1.2-1.6c-0.3-0.4-0.4-0.7-0.4-0.7
				c0,0-0.2-0.3-0.3-0.8c-0.1-0.5-0.4-1.2-0.5-2c-0.3-1.7-0.3-3.9,0.3-6c0.7-2.1,1.7-4,2.8-5.2c0.1-0.2,0.2-0.3,0.4-0.5
				c0.1-0.1,0.3-0.2,0.4-0.4c0.2-0.2,0.5-0.4,0.6-0.6C92.2,103.7,92.4,103.5,92.4,103.5z"/>
		</g>
		<g id="XMLID_1749_">
			<path id="XMLID_1750_" class="st1" d="M215.6,120c0,0-0.1-0.3-0.4-0.8c-0.1-0.2-0.3-0.5-0.4-0.9c-0.2-0.3-0.4-0.7-0.6-1.1
				c-0.9-1.6-2.6-3.5-4.6-5.1c-2-1.5-4.3-2.6-6.1-3.2c-0.9-0.3-1.7-0.4-2.2-0.6c-0.5-0.1-0.9-0.2-0.9-0.2c0,0-0.3-0.1-0.9-0.2
				c-0.5-0.1-1.3-0.3-2.2-0.3c-0.5,0-1,0-1.5-0.1c-0.5,0-1.1,0.1-1.6,0.1c-0.3,0-0.6,0-0.9,0.1c-0.3,0.1-0.6,0.1-0.9,0.2
				c-0.6,0.1-1.2,0.2-1.8,0.4c-2.4,0.7-4.6,1.8-6.1,2.8c-0.8,0.5-1.3,1-1.8,1.4c-0.4,0.3-0.7,0.5-0.7,0.5s0.2-0.2,0.6-0.6
				c0.4-0.4,0.9-1,1.6-1.5c1.4-1.2,3.6-2.5,6-3.5c0.6-0.2,1.2-0.4,1.8-0.6c0.3-0.1,0.6-0.2,0.9-0.3c0.3-0.1,0.6-0.1,0.9-0.2
				c0.6-0.1,1.2-0.2,1.7-0.3c0.6,0,1.1,0,1.6-0.1c1-0.1,1.8,0,2.4,0.1c0.6,0.1,0.9,0.1,1,0.1c0,0,0.4,0.1,1,0.3
				c0.6,0.2,1.4,0.4,2.3,0.8c1.9,0.8,4.2,2.2,6.1,3.9c1.9,1.8,3.4,3.9,4.2,5.6c0.2,0.4,0.4,0.8,0.5,1.2c0.1,0.4,0.2,0.7,0.3,0.9
				C215.5,119.7,215.6,120,215.6,120z"/>
		</g>
		<g id="XMLID_1747_">
			<path id="XMLID_1748_" class="st1" d="M295.5,197.9c0,0,0.1-0.4,0.3-1.1c0.2-0.7,0.5-1.6,0.8-2.8c0.6-2.3,1.1-5.5,1.4-8.7
				c0.2-3.2-0.1-6.4-0.5-8.7c-0.2-1.2-0.5-2.1-0.7-2.8c-0.2-0.7-0.3-1.1-0.3-1.1c0,0-0.1-0.4-0.3-1.1c-0.2-0.7-0.4-1.6-0.9-2.7
				c-0.2-0.5-0.5-1.1-0.7-1.7c-0.3-0.6-0.7-1.2-1-1.8c-0.2-0.3-0.4-0.6-0.5-1c-0.2-0.3-0.4-0.6-0.7-0.9c-0.5-0.6-0.9-1.3-1.4-1.9
				c-1.1-1.1-2.1-2.4-3.3-3.2c-1.1-1-2.3-1.7-3.3-2.3c-0.5-0.3-1-0.6-1.5-0.8c-0.4-0.2-0.8-0.4-1.2-0.5c-0.6-0.3-1-0.5-1-0.5
				s0.4,0.1,1,0.4c0.3,0.1,0.7,0.3,1.2,0.4c0.5,0.2,1,0.4,1.5,0.7c1.1,0.6,2.4,1.2,3.6,2.2c1.3,0.8,2.4,2,3.6,3.1
				c0.6,0.6,1.1,1.2,1.6,1.8c0.3,0.3,0.5,0.6,0.8,0.9c0.2,0.3,0.4,0.6,0.6,1c0.4,0.6,0.8,1.2,1.2,1.8c0.3,0.6,0.6,1.2,0.9,1.8
				c0.6,1.1,0.9,2.1,1.2,2.7c0.3,0.7,0.4,1.1,0.4,1.1c0,0,0.1,0.4,0.3,1.2c0.1,0.7,0.4,1.8,0.5,3c0.3,2.5,0.3,5.8-0.1,9
				c-0.5,3.2-1.2,6.4-2,8.7c-0.3,1.2-0.8,2.1-1,2.8C295.7,197.6,295.5,197.9,295.5,197.9z"/>
		</g>
		<g id="XMLID_1745_">
			<path id="XMLID_1746_" class="st1" d="M295.8,215.5c0,0-0.3-0.2-0.9-0.6c-0.5-0.4-1.4-0.8-2.3-1.6c-1.9-1.3-4.2-3.4-6.2-5.7
				c-2-2.3-3.8-4.9-4.9-6.9c-0.6-1-1-1.9-1.3-2.5c-0.3-0.6-0.5-1-0.5-1c0,0-0.1-0.4-0.3-1c-0.2-0.6-0.5-1.5-0.8-2.6
				c-0.6-2.1-1-5.1-1.2-8c-0.1-2.9,0.1-5.8,0.5-8c0.1-1.1,0.4-1.9,0.5-2.6c0.1-0.6,0.2-1,0.2-1s-0.1,0.4-0.1,1
				c-0.1,0.6-0.3,1.5-0.3,2.6c-0.2,2.1-0.2,5,0.2,7.9c0.4,2.8,1.1,5.6,1.8,7.6c0.3,1,0.7,1.9,0.9,2.4c0.2,0.6,0.4,0.9,0.4,1
				c0,0,0.1,0.4,0.4,1c0.3,0.6,0.6,1.5,1.1,2.5c0.9,2,2.4,4.6,4.2,7c1.8,2.4,3.9,4.6,5.7,6c0.8,0.8,1.6,1.3,2.2,1.7
				C295.5,215.3,295.8,215.5,295.8,215.5z"/>
		</g>
		<g id="XMLID_1743_">
			<path id="XMLID_1744_" class="st1" d="M300.8,263.1c0,0,1-4.5,2.1-9.1c0.3-2.3,0.7-4.6,0.9-6.3c0.1-0.9,0.2-1.6,0.3-2.1
				c0.1-0.5,0.1-0.8,0.1-0.8c0-0.1,0.8-4.5,1.5-9c0.4-4.5,0.8-9,0.8-9s0.1,4.5,0.1,9.1c-0.3,4.6-0.6,9.1-0.6,9.2c0,0,0,0.3-0.2,0.8
				c-0.1,0.5-0.3,1.2-0.5,2.1c-0.4,1.7-1,4-1.6,6.3C302.3,258.7,300.8,263.1,300.8,263.1z"/>
		</g>
		<g id="XMLID_1741_">
			<path id="XMLID_1742_" class="st1" d="M311.2,187.3c0,0-0.1-0.9-0.1-2.3c0-1.4-0.4-3.2-0.6-5c-0.4-1.8-0.8-3.6-1.2-4.9
				c-0.2-0.7-0.4-1.2-0.5-1.6c-0.1-0.4-0.2-0.6-0.2-0.6c0,0-0.2-0.9-0.6-2.2c-0.1-0.3-0.2-0.7-0.3-1c-0.1-0.4-0.3-0.7-0.4-1.1
				c-0.3-0.8-0.6-1.6-0.9-2.5c-0.7-1.6-1.4-3.3-2.1-4.4c-0.7-1.2-1.1-2-1.1-2s0.5,0.7,1.3,1.8c0.9,1.1,1.8,2.6,2.7,4.2
				c0.4,0.8,0.8,1.6,1.2,2.4c0.2,0.4,0.4,0.8,0.6,1.1c0.1,0.4,0.3,0.7,0.4,1c0.5,1.3,0.9,2.2,0.9,2.2c0,0,0.1,0.3,0.1,0.7
				c0.1,0.4,0.2,1,0.3,1.7c0.3,1.4,0.4,3.3,0.6,5.1c0,1.9,0.1,3.7,0,5.1C311.3,186.4,311.2,187.3,311.2,187.3z"/>
		</g>
		<g id="XMLID_1739_">
			<path id="XMLID_1740_" class="st1" d="M179.8,84.8c0,0-0.3,0.1-0.7,0.2c-0.5,0.2-1.2,0.3-1.9,0.7c-1.6,0.6-3.5,1.7-5.3,3.1
				c-1.7,1.4-3.3,2.9-4.2,4.2c-0.5,0.6-0.8,1.2-1.1,1.6c-0.3,0.4-0.4,0.6-0.4,0.7c0,0-0.2,0.2-0.4,0.6c-0.3,0.4-0.7,0.9-1,1.6
				c-0.8,1.3-1.6,3.3-2.1,5.3c-0.5,2-0.7,4.1-0.7,5.7c0,0.8,0.1,1.4,0.1,1.9c0,0.5,0.1,0.7,0.1,0.7s-0.1-0.3-0.1-0.7
				c-0.1-0.5-0.3-1.1-0.3-1.9c-0.2-1.6-0.3-3.7,0-5.9c0.3-2.1,0.9-4.3,1.6-5.8c0.3-0.8,0.7-1.4,0.9-1.8c0.2-0.4,0.4-0.7,0.4-0.7
				c0,0,0.2-0.3,0.5-0.7c0.3-0.4,0.8-1,1.4-1.6c1.2-1.3,3-2.8,4.9-4c2-1.2,4.1-2.1,5.8-2.6c0.8-0.3,1.5-0.4,2-0.5
				C179.5,84.9,179.8,84.8,179.8,84.8z"/>
		</g>
		<g id="XMLID_1737_">
			<path id="XMLID_1738_" class="st1" d="M161.3,31c0,0-0.3,0.1-0.8,0.2c-0.3,0.1-0.6,0.1-0.9,0.2c-0.3,0.1-0.7,0.3-1.1,0.4
				c-1.6,0.7-3.6,2.2-4.9,4.1c-1.4,1.9-2.1,4-2.4,5.7c-0.1,0.4-0.1,0.8-0.2,1.1c0,0.3-0.1,0.6-0.1,0.9c-0.1,0.5,0,0.8,0,0.8
				c0,0,0,0.3-0.1,0.8c-0.1,0.5-0.1,1.2-0.1,2c0,0.4,0,0.9,0,1.3c0,0.5,0.1,1,0.1,1.5c0.2,1,0.4,2.1,0.6,3.2
				c0.3,1.1,0.5,2.2,0.9,3.2c0.3,1,0.6,2,0.9,2.8c0.6,1.6,0.9,2.7,0.9,2.7s-0.5-1-1.2-2.6c-0.3-0.8-0.7-1.7-1.2-2.7
				c-0.4-1-0.8-2.1-1.2-3.2c-0.3-1.1-0.6-2.2-0.9-3.3c-0.1-0.5-0.2-1.1-0.3-1.6c-0.1-0.5-0.1-1-0.2-1.4c-0.1-0.9-0.2-1.6-0.1-2.2
				c0-0.5,0-0.8,0-0.9c0,0,0-0.3,0.1-0.9c0-0.3,0.1-0.6,0.2-1c0.1-0.4,0.2-0.8,0.3-1.2c0.5-1.8,1.6-4.1,3.2-5.9
				c1.6-1.9,3.8-3.2,5.6-3.8c0.4-0.1,0.9-0.2,1.2-0.3c0.4-0.1,0.7-0.1,1-0.2C161,31,161.3,31,161.3,31z"/>
		</g>
		<g id="XMLID_1735_">
			<path id="XMLID_1736_" class="st1" d="M139.4,41.3c0,0,0.1-0.2,0.2-0.6c0.1-0.2,0.1-0.4,0.2-0.7c0-0.1,0.1-0.3,0.1-0.4
				c0-0.2,0-0.3,0.1-0.5c0.3-1.4,0.1-3.2-0.3-4.9c-0.5-1.7-1.3-3.4-2.1-4.5c-0.4-0.6-0.8-1-1-1.3c-0.2-0.3-0.4-0.5-0.4-0.5
				c0,0-0.1-0.2-0.4-0.5c-0.2-0.3-0.5-0.8-1-1.3c-0.8-1.1-2.1-2.3-3.5-3.5c-1.4-1.2-2.9-2.3-4-3.2c-1.1-0.8-1.9-1.4-1.9-1.4
				s0.8,0.5,2,1.1c1.2,0.7,2.8,1.6,4.4,2.7c1.5,1.1,3.1,2.2,4.1,3.2c0.5,0.5,0.9,0.9,1.2,1.2c0.3,0.3,0.5,0.5,0.5,0.5
				c0,0,0.2,0.2,0.4,0.6c0.2,0.4,0.6,0.9,0.9,1.6c0.7,1.3,1.3,3.2,1.6,5.1c0.2,1.9,0.1,3.8-0.3,5.2c0,0.2-0.1,0.3-0.1,0.5
				c-0.1,0.1-0.1,0.3-0.2,0.4c-0.1,0.3-0.2,0.5-0.3,0.7C139.5,41.1,139.4,41.3,139.4,41.3z"/>
		</g>
		<g id="XMLID_1733_">
			<path id="XMLID_1734_" class="st1" d="M114,58.7c0,0,0.3-1,0.7-2.6c0.5-1.5,0.7-3.7,1-5.8c0.1-2.1,0.3-4.3,0.1-5.9
				c0-0.8-0.1-1.5-0.1-1.9c0-0.5-0.1-0.8-0.1-0.8c0,0,0-1.1-0.1-2.6c0-0.4,0-0.8,0-1.3c-0.1-0.4-0.1-0.9-0.2-1.4c-0.1-1-0.2-2-0.4-3
				c-0.5-2-0.9-4.1-1.5-5.5c-0.5-1.5-0.9-2.5-0.9-2.5s0.5,0.9,1.1,2.4c0.8,1.4,1.4,3.4,2.1,5.4c0.3,1,0.5,2.1,0.8,3
				c0.1,0.5,0.2,1,0.3,1.4c0.1,0.5,0.1,0.9,0.2,1.3c0.2,1.6,0.4,2.7,0.4,2.7c0,0,0,0.3,0,0.8c0,0.5-0.1,1.2-0.1,2
				c0,1.7-0.5,3.8-0.8,6c-0.6,2.1-1,4.2-1.7,5.7C114.4,57.6,114,58.7,114,58.7z"/>
		</g>
		<g id="XMLID_1731_">
			<path id="XMLID_1732_" class="st1" d="M94.4,78.5c0,0,0.3-0.8,0.7-1.9c0.5-1.1,0.7-2.7,1.1-4.2c0.1-1.6,0.3-3.1,0.2-4.3
				c-0.1-1.2-0.1-2-0.1-2c0,0,0-0.8-0.1-1.9c0-0.3,0-0.6,0-0.9c-0.1-0.3-0.1-0.7-0.2-1c-0.1-0.7-0.2-1.5-0.4-2.2
				c-0.5-1.4-0.9-3-1.5-4c-0.5-1.1-0.9-1.8-0.9-1.8s0.5,0.6,1.1,1.6c0.8,0.9,1.4,2.4,2.1,3.8c0.3,0.7,0.5,1.5,0.8,2.2
				c0.1,0.4,0.2,0.7,0.3,1c0.1,0.3,0.1,0.7,0.2,1c0.2,1.2,0.4,2,0.4,2.1c0,0-0.1,0.9-0.2,2.1c0,1.3-0.5,2.9-0.8,4.5
				c-0.6,1.5-1.1,3.1-1.8,4.2C94.8,77.8,94.4,78.5,94.4,78.5z"/>
		</g>
		<g id="XMLID_1729_">
			<path id="XMLID_1730_" class="st1" d="M63.6,83.7c0,0-0.3,0.1-0.7,0.3c-0.4,0.2-1.1,0.5-1.8,0.9c-1.5,0.8-3.3,2.1-4.9,3.6
				c-1.6,1.5-3,3.2-3.9,4.5c-0.5,0.7-0.8,1.3-1,1.7c-0.3,0.4-0.4,0.7-0.4,0.7c0,0-0.2,0.2-0.4,0.6c-0.2,0.4-0.6,0.9-1,1.6
				c-0.8,1.4-1.5,3.3-2.1,5.3c-0.5,2-0.8,4.1-0.8,5.7c0,0.8,0,1.4,0,1.9c0,0.5,0,0.7,0,0.7s0-0.3-0.1-0.7c-0.1-0.5-0.2-1.1-0.3-1.9
				c-0.2-1.6-0.2-3.7,0.1-5.9c0.3-2.1,0.9-4.3,1.5-5.8c0.3-0.8,0.6-1.4,0.8-1.9c0.2-0.4,0.3-0.7,0.4-0.7c0,0,0.2-0.3,0.5-0.7
				c0.3-0.4,0.7-1,1.3-1.7c1.1-1.3,2.8-2.9,4.6-4.3c1.9-1.3,3.8-2.5,5.4-3.1c0.8-0.4,1.5-0.6,1.9-0.7C63.3,83.8,63.6,83.7,63.6,83.7
				z"/>
		</g>
		<g id="XMLID_1727_">
			<path id="XMLID_1728_" class="st1" d="M29,145c0,0,0-1.2,0-3c-0.1-1.8,0.3-4.2,0.5-6.7c0.5-2.4,0.9-4.8,1.6-6.6
				c0.3-0.9,0.5-1.6,0.7-2.2c0.2-0.5,0.3-0.8,0.3-0.9c0,0,0.6-1.1,1.5-2.7c0.2-0.4,0.5-0.8,0.7-1.3c0.3-0.4,0.6-0.9,0.9-1.3
				c0.7-0.9,1.3-1.9,2.1-2.9c1.6-1.8,3.1-3.7,4.5-4.9c1.3-1.2,2.2-2,2.2-2s-0.8,0.9-2,2.2c-1.3,1.3-2.6,3.3-4,5.2
				c-0.6,1-1.2,2-1.7,3c-0.3,0.5-0.5,0.9-0.8,1.4c-0.2,0.5-0.4,0.9-0.6,1.3c-0.7,1.6-1.2,2.7-1.2,2.7c-0.1,0-0.5,1.2-1.3,2.8
				c-0.8,1.6-1.5,4-2.2,6.3c-0.5,2.4-1.1,4.7-1.2,6.5C29.1,143.8,29,145,29,145z"/>
		</g>
		<g id="XMLID_1725_">
			<path id="XMLID_1726_" class="st1" d="M256.6,151c0,0-0.4-0.1-1-0.2c-0.3-0.1-0.7-0.1-1.2-0.3c-0.4-0.2-0.9-0.3-1.4-0.5
				c-2.1-0.9-4.6-2.7-6.5-5c-2-2.3-3.2-5-4.2-7c-0.4-1-0.8-1.9-1-2.5c-0.3-0.6-0.4-1-0.4-1c0,0-0.4-1.4-1-3.4
				c-0.3-1-0.7-2.2-1.1-3.4c-0.2-0.6-0.5-1.2-0.7-1.9c-0.3-0.6-0.5-1.3-0.8-1.9c-1.2-2.5-2.8-4.8-4.3-6.2c-0.4-0.4-0.8-0.7-1.1-1
				c-0.3-0.3-0.7-0.5-0.9-0.7c-0.5-0.4-0.8-0.6-0.8-0.6s0.3,0.2,0.9,0.5c0.3,0.2,0.6,0.3,1,0.6c0.3,0.3,0.7,0.6,1.2,0.9
				c1.7,1.4,3.6,3.6,5,6c0.4,0.6,0.7,1.2,1,1.9c0.3,0.6,0.6,1.3,0.9,1.9c0.5,1.2,1,2.4,1.4,3.4c0.8,2,1.3,3.3,1.3,3.4
				c0,0,0.1,0.4,0.3,1c0.2,0.6,0.5,1.5,0.8,2.5c0.8,2,1.8,4.7,3.5,7c1.6,2.3,3.9,4.2,5.8,5.3c0.5,0.2,1,0.4,1.4,0.6
				c0.4,0.2,0.8,0.2,1.1,0.3C256.2,150.9,256.6,151,256.6,151z"/>
		</g>
		<g id="XMLID_1723_">
			<path id="XMLID_1724_" class="st1" d="M295.9,127.5c0,0-0.2,0.3-0.6,0.9c-0.4,0.5-1,1.4-2,2.1c-1.9,1.6-5,2.9-8.3,3.2
				c-3.4,0.4-6.7-0.3-9.1-1c-1.2-0.3-2.2-0.7-2.9-1c-0.7-0.2-1.1-0.4-1.1-0.4c0,0-0.4-0.2-1-0.5c-0.6-0.3-1.5-0.8-2.6-1.3
				c-2.1-1.1-4.8-2.6-7.7-3.9c-2.8-1.3-5.9-2.1-8.2-2.4c-0.6-0.1-1.1-0.1-1.6-0.1c-0.5,0-0.9,0-1.2,0c-0.7,0-1.1,0-1.1,0
				s0.4,0,1.1-0.1c0.3,0,0.8-0.1,1.2-0.1c0.5,0,1,0,1.6,0c2.4,0.1,5.5,0.8,8.5,1.9c3,1.1,5.9,2.4,8,3.4c1.1,0.5,2,0.9,2.6,1.1
				c0.6,0.3,1,0.4,1.1,0.4c0,0,0.4,0.2,1.1,0.5c0.6,0.3,1.6,0.7,2.7,1.1c2.2,0.8,5.3,1.7,8.5,1.6c3.2-0.1,6.3-1.1,8.2-2.5
				c1-0.7,1.6-1.4,2.1-1.9C295.6,127.8,295.9,127.5,295.9,127.5z"/>
		</g>
		<g id="XMLID_1721_">
			<path id="XMLID_1722_" class="st1" d="M264.7,101.7c0,0-0.3,0-0.9,0c-0.3,0-0.6,0-1-0.1c-0.4-0.1-0.8-0.1-1.3-0.2
				c-1.9-0.4-4.4-1.5-6.6-3c-2.2-1.5-4-3.4-5.4-4.8c-1.3-1.4-2.3-2.4-2.3-2.4c0,0-0.8-1-2-2.4c-0.6-0.7-1.4-1.5-2.1-2.3
				c-0.4-0.4-0.9-0.8-1.3-1.2c-0.5-0.4-1-0.7-1.5-1.1c-2-1.4-4.4-2.3-6.2-2.6c-0.5-0.1-0.9-0.1-1.3-0.1c-0.4,0-0.7,0-1,0
				c-0.6,0-0.9,0-0.9,0s0.3,0,0.9-0.1c0.3,0,0.6-0.1,1-0.1c0.4,0,0.8,0,1.3,0c1.9,0.1,4.5,0.9,6.7,2.1c0.6,0.3,1.1,0.7,1.6,1
				c0.5,0.4,1,0.8,1.5,1.1c0.9,0.8,1.7,1.5,2.5,2.2c1.3,1.4,2.2,2.3,2.3,2.3c0,0,0.8,1,2,2.6c1.2,1.5,2.8,3.4,4.8,5.1
				c1.9,1.6,4.2,2.9,6.1,3.4c0.5,0.1,0.9,0.2,1.3,0.3c0.4,0.1,0.7,0.1,1,0.1C264.4,101.6,264.7,101.7,264.7,101.7z"/>
		</g>
		<g id="XMLID_1719_">
			<path id="XMLID_1720_" class="st1" d="M218.5,82.1c0-0.1-0.7,0.6-2,0.6c-0.7,0-1.4-0.2-2.2-0.5c-0.4-0.2-0.7-0.4-1.1-0.6
				c-0.3-0.3-0.6-0.6-1-0.9c-1.2-1.3-2.1-2.7-2.8-3.6c-0.4-0.5-0.7-0.8-0.9-1.1c-0.3-0.3-0.4-0.4-0.4-0.4c0,0-0.4-0.7-1.3-1.5
				c-0.4-0.4-0.9-0.9-1.4-1.4c-0.3-0.2-0.6-0.5-0.9-0.7c-0.3-0.2-0.6-0.5-1-0.7c-0.6-0.5-1.3-0.8-2-1.2c-0.7-0.4-1.3-0.6-1.8-0.9
				c-1.1-0.4-1.9-0.7-1.9-0.7s0.8,0.2,2,0.4c0.6,0.2,1.3,0.4,2,0.7c0.7,0.3,1.5,0.6,2.2,1c0.4,0.2,0.7,0.4,1.1,0.6
				c0.4,0.2,0.7,0.4,1,0.7c0.7,0.4,1.2,0.9,1.7,1.3c0.5,0.4,0.9,0.8,1.2,1c0.3,0.3,0.4,0.4,0.4,0.4c0,0,0.1,0.2,0.4,0.5
				c0.2,0.3,0.5,0.8,0.8,1.3c0.7,1.1,1.3,2.6,2.2,3.9c0.9,1.3,2.3,2.1,3.5,2.3C217.8,82.6,218.5,82,218.5,82.1z"/>
		</g>
	</g>
</g>
</svg>
