<?xml version="1.0" encoding="utf-8"?>
<!-- Generator: Adobe Illustrator 19.0.0, SVG Export Plug-In . SVG Version: 6.00 Build 0)  -->
<svg version="1.1" id="Layer_1" xmlns="http://www.w3.org/2000/svg" xmlns:xlink="http://www.w3.org/1999/xlink" x="0px" y="0px"
	 viewBox="0 0 281.08109 115.54054" style="enable-background:new 0 0 281.08109 115.54054;" xml:space="preserve">
<style type="text/css">
	.st0{fill:#EF7B05;}
</style>
<path id="XMLID_7040_" class="st0" d="M265.47888,40.55769l-30.98384,0.03016c-1.52899-4.1677-4.05322-7.98844-7.98344-10.93621
	c-11.33289-8.49959-33.77191-10.31287-50.6579-3.73982c-16.88597,6.57299-18.81252,20.05914-18.81252,20.05914
	c-0.02487,0.08491-0.04646,0.16987-0.07047,0.25478c-0.4726-0.09518-1.10574-0.28729-1.83311-0.68419
	c-0.74059-0.40418-1.36833-1.12534-2.09483-1.96022c-1.74474-2.00417-4.1339-4.74909-9.99471-4.74997v-0.00012
	c-0.00047,0-0.00095,0.00006-0.00146,0.00006c-0.00053,0-0.00095-0.00006-0.00148-0.00006v0.00012
	c-5.86075,0.00088-8.24997,2.7458-9.99471,4.74997c-0.72644,0.83488-1.35419,1.55604-2.09483,1.96022
	c-0.72737,0.3969-1.36052,0.58902-1.83311,0.68419c-0.024-0.08491-0.04553-0.16988-0.07047-0.25478
	c0,0-1.9266-13.48615-18.81252-20.05914c-16.88598-6.57305-39.325-4.75977-50.65783,3.73982
	c-3.93029,2.94778-6.45452,6.76851-7.98351,10.93621l-30.47342-0.13433l-0.66667,5.33333l29.74664,0.01412
	c-1.16148,6.44689-0.51074,13.18689,0.65063,18.52922c2.26657,10.42624,11.21951,30.37201,31.95862,32.75189
	c20.73911,2.37994,35.13184-10.0862,40.91162-21.98567c5.02417-10.34386,7.2205-18.28975,6.07164-25.77349
	c0.74434-0.15397,1.66466-0.44337,2.67767-0.99601c1.24088-0.67639,2.1196-1.68613,2.96915-2.6623
	c1.63818-1.88205,3.18571-3.65972,7.60257-3.66019c4.41684,0.00047,5.96437,1.77814,7.60255,3.66019
	c0.84955,0.97618,1.72827,1.98592,2.96915,2.6623c1.01308,0.55264,1.93333,0.84204,2.67767,0.99601
	c-1.14886,7.48375,1.04747,15.42964,6.07164,25.77349c5.77972,11.89948,20.17252,24.36562,40.91162,21.98567
	c20.73911-2.37988,29.69205-22.32565,31.95862-32.75189c1.16136-5.34233,1.81206-12.08232,0.65068-18.52922l29.59035-0.11828
	V40.55769z M121.68702,74.10609c-4.70667,9.68958-16.38,21.00433-33.79098,21.00433c-0.00135,0-0.00217,0-0.00311,0
	c-1.58173-0.00047-3.20373-0.09435-4.82044-0.28025c-8.50317-0.9757-15.69463-5.1799-21.37477-12.4967
	c-5.94003-7.65145-8.10544-16.08291-8.62762-18.48492c-1.48809-6.84532-3.70021-23.70472,7.87149-32.38369
	c6.06085-4.54548,16.13202-7.25918,26.9412-7.25918c7.67046,0,15.11694,1.32009,21.53461,3.81821
	c15.47241,6.02323,17.37336,18.14587,17.39067,18.26757l0.023,0.16113l0.04601,0.15632
	C129.06085,54.05357,127.55704,62.02024,121.68702,74.10609z M233.02309,63.84855
	c-0.52217,2.40201-2.68759,10.83347-8.62756,18.48492c-5.68013,7.3168-12.87166,11.521-21.37483,12.4967
	c-1.6167,0.1859-3.23869,0.27979-4.82043,0.28025c-0.00095,0-0.00177,0-0.00311,0c-17.41098,0-29.08426-11.31475-33.79092-21.00433
	c-5.87007-12.08584-7.37389-20.05251-5.19011-27.49717l0.04607-0.15632l0.02299-0.16113
	c0.01732-0.1217,1.9182-12.24434,17.39063-18.26757c6.41766-2.49812,13.86415-3.81821,21.53461-3.81821
	c10.80917,0,20.88036,2.71371,26.94125,7.25918C236.7233,40.14383,234.51118,57.00323,233.02309,63.84855z"/>
</svg>
