<?xml version="1.0" encoding="utf-8"?>
<!-- Generator: Adobe Illustrator 19.0.0, SVG Export Plug-In . SVG Version: 6.00 Build 0)  -->
<svg version="1.1" id="Layer_1" xmlns="http://www.w3.org/2000/svg" xmlns:xlink="http://www.w3.org/1999/xlink" x="0px" y="0px"
	 viewBox="0 0 255.4 172.3" style="enable-background:new 0 0 255.4 172.3;" xml:space="preserve">
<style type="text/css">
	.st0{fill:#1D1D1B;}
	.st1{fill:#FFFFFF;}
</style>
<g id="XMLID_79_">
	<g id="XMLID_83_">
		<g id="XMLID_86_">
			<polygon id="XMLID_102_" class="st0" points="236.3,63.9 236.3,72.4 236.3,80.9 227.8,80.9 227.8,89.4 220.1,89.4 219.3,89.4 
				219.3,97.9 210.8,97.9 210.8,106.4 203.6,106.4 202.3,106.4 147.5,106.4 147.5,97.9 146.8,97.9 139,97.9 139,89.4 130.5,89.4 
				130.5,80.9 130.5,72.4 112.4,72.4 112.4,80.9 112.4,89.4 105.3,89.4 103.9,89.4 103.9,97.9 95.4,97.9 95.4,106.4 88.5,106.4 
				86.9,106.4 40.8,106.4 40.8,97.9 38.7,97.9 32.3,97.9 32.3,89.4 23.8,89.4 23.8,80.9 15.6,80.9 15.6,72.4 15.6,63.9 			"/>
			<g id="XMLID_95_">
				<rect id="XMLID_101_" x="202.3" y="80.9" class="st1" width="8.5" height="8.5"/>
				<rect id="XMLID_100_" x="193.8" y="72.4" class="st1" width="8.5" height="8.5"/>
				<rect id="XMLID_99_" x="193.8" y="89.4" class="st1" width="8.5" height="8.5"/>
				<rect id="XMLID_98_" x="185.4" y="80.9" class="st1" width="8.5" height="8.5"/>
				<rect id="XMLID_97_" x="210.8" y="72.4" class="st1" width="8.5" height="8.5"/>
				<rect id="XMLID_96_" x="176.9" y="89.4" class="st1" width="8.5" height="8.5"/>
			</g>
			<g id="XMLID_88_">
				<rect id="XMLID_94_" x="87.2" y="80.9" class="st1" width="8.5" height="8.5"/>
				<rect id="XMLID_93_" x="78.7" y="72.4" class="st1" width="8.5" height="8.5"/>
				<rect id="XMLID_92_" x="78.7" y="89.4" class="st1" width="8.5" height="8.5"/>
				<rect id="XMLID_91_" x="70.3" y="80.9" class="st1" width="8.5" height="8.5"/>
				<rect id="XMLID_90_" x="95.7" y="72.4" class="st1" width="8.5" height="8.5"/>
				<rect id="XMLID_89_" x="61.8" y="89.4" class="st1" width="8.5" height="8.5"/>
			</g>
		</g>
		<rect id="XMLID_85_" x="7" y="63.9" class="st0" width="8.6" height="8.5"/>
	</g>
	<rect id="XMLID_80_" x="236.3" y="63.9" class="st0" width="8.6" height="8.5"/>
</g>
</svg>
