<?xml version="1.0" encoding="utf-8"?>
<!-- Generator: Adobe Illustrator 19.0.0, SVG Export Plug-In . SVG Version: 6.00 Build 0)  -->
<svg version="1.1" id="Layer_1" xmlns="http://www.w3.org/2000/svg" xmlns:xlink="http://www.w3.org/1999/xlink" x="0px" y="0px"
	 viewBox="-312 206 335 150" enable-background="new -312 206 335 150" xml:space="preserve">
<g id="XMLID_2_">
	<path id="XMLID_3_" fill="#EF7B05" d="M-17.3778,272.9c0-1.1-1.4-1.2-3.3-1.2c-1.6,0-22.6,0-23.9,0c-0.8-8.2-3.3-14.1-7.7-18.3
		c-4.9-4.7-12.3-7.6-24-9.2c-4.8-0.7-9.6-1-14.3-1c-3.1,0-6.3,0.2-9.3,0.4l0,0h-43.8h-43.7l0,0c-3-0.3-6.1-0.4-9.3-0.4
		c-4.7,0-9.5,0.3-14.3,1c-11.7,1.6-19.1,4.4-24,9.2c-4.4,4.2-6.9,10.1-7.7,18.3c-1.3,0-24.2,0-25.9,0c-1.9,0-3.3,0-3.3,1.2
		c0,1.1-0.1,1.9,0,2.4c0.1,0.4-0.3,0.9,1.5,0.9c1.5,0,26,0,27.4,0c0,0.3,0,0.6,0,1c-0.2,5.9-0.6,16.8,6.7,28.5
		c7.9,12.8,23.2,13,23.9,13c0,0,0.1,0,0.3,0c0.6,0,1.7,0.1,3.3,0.1l0,0c6.3,0,18.4-1.3,28.5-10c9.1-7.8,14-14.4,17.5-21.3
		c0.3,0.4,0.9,1.1,0.9,1.8c0,1-4.6,8.6-4.6,8.6s2,0.5,3.6,0.3c1.6-0.2,2.7-4.3,6.3-12.2c3.6-8,3.6-9.9,3.4-11
		c-0.2-1.1-2.8-1.9-2.8-1.9s-0.2,1.3-0.7,2.8s-1.5,4.2-2.1,4.9c-0.6,0.7-1.3,0.6-1.3,0.6l0,0c0.8-1.9,1.5-3.8,2.2-5.8
		c0.1-0.4,1.7-5.3,1.9-10.7c1,0.2,2.5,0.2,2.8,0.2c0.4,0,9.7,0,9.7,0s9.3,0,9.7,0c0.2,0,1.8,0,2.8-0.2c0.2,5.5,1.8,10.4,1.9,10.7
		c0.7,2,1.4,3.9,2.2,5.8l0,0c0,0-0.7,0.1-1.3-0.6s-1.6-3.4-2.1-4.9c-0.5-1.5-0.7-2.8-0.7-2.8s-2.6,0.7-2.8,1.9
		c-0.2,1.2-0.1,3,3.4,11c3.6,8,4.7,12,6.3,12.2s3.6-0.3,3.6-0.3s-4.6-7.6-4.6-8.6c0-0.7,0.5-1.4,0.9-1.8c3.5,6.9,8.4,13.5,17.5,21.3
		c10.1,8.7,22.2,10,28.5,10l0,0c1.6,0,2.8-0.1,3.3-0.1c0.1,0,0.2,0,0.3,0c0.6,0,15.9-0.1,23.9-13c7.2-11.7,6.9-22.6,6.7-28.5
		c0-0.4,0-0.7,0-1c1.5,0,23.9,0,25.4,0c1.8,0,1.4-0.5,1.5-0.9C-17.2778,274.8-17.3778,274-17.3778,272.9z M-159.3778,274.5
		c-1.4-0.1-1.5,2.9-1.8,4.1c-0.3,1.2-0.6,0.7-1.7,0.8c-1.1,0-1.6,1-1.9,2.7s1.6,2.2,1.6,2.2c-3.4,7.5-8.3,14.6-18.2,23.1
		c-9.7,8.4-21.4,9.6-27.5,9.6c-1.6,0-2.7-0.1-3.2-0.1c-0.2,0-0.3,0-0.4,0c-0.1,0-15-0.1-22.5-12.2c-7-11.3-6.6-21.9-6.4-27.6
		c0-0.4,0-0.8,0-1.1c0.5-19.2,8.5-27.1,30.5-30.2c4.7-0.6,9.4-1,14.1-1c14,0,27.3,3.1,34.5,8.1
		C-154.8778,258-158.5778,271.9-159.3778,274.5z M-133.7778,262c-1.5,0-9.8,0-9.8,0s-8.3,0-9.8,0c-0.9,0-1.9,0.1-2.7,0.3
		c-0.3-4.1-1.6-8.2-5.1-10.7c-3.2-2.2-7.6-4.1-12.7-5.5h30.3h30.3c-5.1,1.4-9.4,3.3-12.7,5.5c-3.6,2.5-4.9,6.6-5.1,10.7
		C-131.8778,262.2-132.8778,262-133.7778,262z M-52.3778,304.7c-7.4,12.1-22.3,12.2-22.5,12.2c-0.1,0-0.2,0-0.4,0
		c-0.5,0-1.6,0.1-3.2,0.1c-6.1,0-17.7-1.3-27.5-9.6c-9.9-8.5-14.7-15.6-18.2-23.1c0,0,1.9-0.5,1.6-2.2c-0.3-1.7-0.8-2.6-1.9-2.7
		c-1.1,0-1.4,0.4-1.7-0.8c-0.3-1.2-0.5-4.2-1.8-4.1c-0.8-2.6-4.5-16.6,2.8-21.6c7.2-5,20.5-8.1,34.5-8.1c4.6,0,9.4,0.3,14.1,1
		c22,3,30,10.9,30.5,30.2c0,0.3,0,0.7,0,1.1C-45.7778,282.8-45.3778,293.4-52.3778,304.7z"/>
</g>
</svg>
