<?xml version="1.0" encoding="utf-8"?>
<!-- Generator: Adobe Illustrator 19.0.0, SVG Export Plug-In . SVG Version: 6.00 Build 0)  -->
<svg version="1.1" id="Layer_1" xmlns="http://www.w3.org/2000/svg" xmlns:xlink="http://www.w3.org/1999/xlink" x="0px" y="0px"
	 viewBox="0 0 262.8 111.5" style="enable-background:new 0 0 262.8 111.5;" xml:space="preserve">
<style type="text/css">
	.st0{fill:#EF7B05;}
	.st1{fill:#7F3905;}
</style>
<path id="XMLID_703_" class="st0" d="M234.2,32.8h-2.5c-1.6-6-4.9-10.6-9.8-13.7c-2.9-1.8-7.2-2.3-14-2.3h-100l-0.5,0
	c-0.1,0-0.3,0-0.4,0H59.2c-6.8,0-11.1,0.5-14,2.3c-4.9,3.1-8.2,7.7-9.8,13.7H33c-1.9,0-25.5,2.2-25.5,4.1v9.5
	c0,1.9,23.6,3.4,25.5,3.4h1.4c0.3,8,1.3,17.5,5.7,26.3c1.3,2.6,6.1,8.9,14.8,13.6c6.2,3.4,12.7,5,19.9,5c4.3,0,8.7-0.6,14-1.8
	c6.4-1.5,12.9-4.6,18.7-8.9c8.1-6,11.4-13.5,15.2-22.3c3.3-7.6,6.1-14.1,6.5-20.5c2.7-1.2,6.4-1.2,9.1,0c0.4,6.3,3.2,12.9,6.5,20.5
	c3.8,8.7,7,16.3,15.1,22.3c5.8,4.3,12.3,7.3,18.7,8.8c5.3,1.2,9.7,1.8,14,1.8c7.2,0,13.7-1.6,19.9-5c8.7-4.7,13.5-11,14.8-13.7
	c4.4-8.8,5.4-18.3,5.7-26.3h1.4c1.9,0,24.3-1.4,24.3-3.4v-9.5C258.5,35,236.1,32.8,234.2,32.8z M117.3,59.6l1,0.4L117.3,59.6
	c-3.6,8.3-6.4,14.9-13.3,19.9c-5.2,3.8-10.9,6.5-16.6,7.9c-8.1,1.9-18.8,3.3-29.8-2.7c-7.8-4.3-11.8-9.9-12.4-11.2
	c-5-10-5.1-21.4-5.2-28.2l0-0.9c-0.1-10.1,2.5-16.4,8.3-20c1.9-1.2,5.6-1.6,11-1.6H107c7.2,0,12.3,3.8,15.3,11.5
	C125.1,41.6,121.8,49.1,117.3,59.6z M138.6,35.3c-3.2-0.9-6.8-0.9-10,0c-0.2-1.1-0.5-2-0.9-3.1c-1.5-3.9-3.5-7.5-6-9.5h23.9
	c-2.5,2-4.6,5.6-6,9.5C139.1,33.3,138.8,34.2,138.6,35.3z M227.1,45.4c-0.1,6.8-0.2,18.2-5.2,28.2c-0.6,1.3-4.6,6.9-12.4,11.2
	c-11,6-21.7,4.6-29.8,2.7c-5.7-1.4-11.5-4.1-16.6-7.9c-6.9-5.1-9.7-11.6-13.3-19.9c-4.5-10.5-7.8-18-5-25.3
	c2.9-7.7,8.1-11.5,15.3-11.5h47.8c5.4,0,9.1,0.5,10.9,1.6c5.8,3.6,8.4,10,8.3,20.1L227.1,45.4z"/>
<path id="XMLID_702_" class="st1" d="M227.1,44.6l0,0.8c-0.1,6.8-0.2,18.2-5.2,28.2c-0.6,1.3-4.6,6.9-12.4,11.2
	c-11,6-21.7,4.6-29.8,2.7c-5.7-1.4-11.5-4.1-16.6-7.9c-6.9-5.1-9.7-11.6-13.3-19.9c-4.5-10.5-7.8-18-5-25.3
	c2.9-7.7,8.1-11.5,15.3-11.5h47.8c5.4,0,9.1,0.5,10.9,1.6C224.6,28.1,227.3,34.5,227.1,44.6z"/>
<path id="XMLID_701_" class="st1" d="M117.3,59.6l1,0.4L117.3,59.6c-3.6,8.3-6.4,14.9-13.3,19.9c-5.2,3.8-10.9,6.5-16.6,7.9
	c-8.1,1.9-18.8,3.3-29.8-2.7c-7.8-4.3-11.8-9.9-12.4-11.2c-5-10-5.1-21.4-5.2-28.2l0-0.9c-0.1-10.1,2.5-16.4,8.3-20.1
	c1.9-1.2,5.6-1.6,11-1.6H107c7.2,0,12.3,3.8,15.3,11.5C125.1,41.6,121.8,49.1,117.3,59.6z"/>
</svg>
