<?xml version="1.0" encoding="utf-8"?>
<!-- Generator: Adobe Illustrator 19.0.0, SVG Export Plug-In . SVG Version: 6.00 Build 0)  -->
<svg version="1.1" id="Layer_1" xmlns="http://www.w3.org/2000/svg" xmlns:xlink="http://www.w3.org/1999/xlink" x="0px" y="0px"
	 viewBox="-312 206 335 150" enable-background="new -312 206 335 150" xml:space="preserve">
<g id="XMLID_443_">
	<path id="XMLID_536_" fill="#EF7B05" d="M-39.8,251.7329c0,0,15,0.1,15,0.2c0,0.7,0,3.6,0,10.7c0,0.1-15,0.1-15,0.2
		c-6.6,8.1-9.5,11.7-14.1,30.6c-4.6,18.9-13.3,24.2-39.9,24.2c-4.5,0-8.7-0.7-12.5-1.9c-0.3-0.1-0.6-0.2-0.9-0.3
		c-4.7-1.6-8.9-4-12.5-6.9c-2.5-2-4.7-4.3-6.7-6.6c-0.2-0.3-0.5-0.6-0.7-0.9c-1.1-1.4-2.2-2.9-3.1-4.4c-1.4-2.2-2.6-4.5-3.6-6.7
		c-0.4-0.9-0.8-1.9-1.1-2.8c-0.8-2.1-1.3-4.2-1.7-6.1c-2-10.9-16.5-11.3-18.7,0c-2.7,13.9-14.5,36.7-42.7,36.7
		c-8.6,0-15.4-0.6-21-2.2c-5.9-1.7-10.3-4.6-13.5-9c-2-2.7-3.5-6-4.7-9.9c-0.3-1-0.6-2-0.8-3.1c-1.4-6-2.7-10.4-4-13.9
		c-2.8-7.7-5.6-11.1-10.1-16.7l-21-0.1c0-7.5,0-10.3,0-10.9c0-0.1,21-0.1,21-0.1s24.7-8.4,45.2-7.3c0.3,0,0.6,0,0.9,0
		c6.2,0.4,12.4,0.3,18.5,1.4c4.1,0.7,8.2,1.5,12.3,2.3c6.5,1.2,13,3.4,19.4,4c3.3,0.3,6.5,0.5,9.8,0.5c17.6,0,35-5.5,53-7.6
		c1.4-0.2,2.9-0.3,4.3-0.5c0.9-0.1,1.8-0.1,2.7-0.2c2.6-0.2,5.2-0.2,7.9-0.1c2.3,0.1,4.7,0.3,7,0.5c0.5,0,0.9,0.1,1.4,0.2
		c4,0.5,7.9,1.1,11.4,1.9c6.7,1.4,12.4,2.9,15.5,3.9c0.3,0.1,0.6,0.2,0.9,0.3C-40.5,251.5329-39.8,251.7329-39.8,251.7329z"/>
	<g id="XMLID_522_">
		<g id="XMLID_527_">
			<g id="XMLID_528_">
				<path id="XMLID_535_" fill="#26A69A" d="M-161.5,281.5328c-0.3,0.8-0.6,1.7-0.9,2.5h-73.3c-0.2-0.8-0.3-1.7-0.4-2.5H-161.5z"/>
				<path id="XMLID_534_" fill="#4DB6AC" d="M-162.4,283.9329c-0.4,0.9-0.8,1.9-1.2,2.8h-71.5c0-0.2-0.1-0.4-0.1-0.7
					c-0.2-0.7-0.3-1.4-0.4-2.1H-162.4L-162.4,283.9329z"/>
				<path id="XMLID_533_" fill="#64FFDA" d="M-166,291.5328c-3.8,6.7-8.5,12.3-12.3,14.8c-5.9,3.8-19.2,9.7-36.5,5
					c-0.8-0.2-1.6-0.5-2.4-0.7c-0.6-0.2-1.2-0.4-1.8-0.7c-3.8-1.6-6.9-4.3-9.3-7.5c-1.3-1.7-2.4-3.6-3.3-5.5
					c-0.6-1.3-1.2-2.7-1.7-4.1c-0.1-0.4-0.3-0.8-0.4-1.2h67.7V291.5328z"/>
				<path id="XMLID_532_" fill="#80CBC4" d="M-235.1,286.7328h71.5c-0.8,1.7-1.6,3.3-2.5,4.8h-67.6
					C-234.2,290.0328-234.7,288.3329-235.1,286.7328z"/>
				<path id="XMLID_531_" fill="#BBDEFB" d="M-161.5,281.5328h-74.6c-0.4-2.4-0.6-4.7-0.8-6.9c-0.1-1.8-0.2-3.4-0.2-5
					c0-1.4,0-2.8,0-4l4.4-0.5l20.6-2.2l14.5-1.5l-13.6,0.6l-19.3,0.9l-6.5,0.3c1-6.1,8.8-9.4,17.4-11.2c2.1-0.4,4.2-0.8,6.3-1
					c5.2-0.7,10.1-0.9,13.6-1c0,0,0.2,0,0.6,0h0.4c1.5,0,4.4,0,7.9,0.3c0.3,0,0.6,0,0.9,0.1c0.2,0,0.3,0,0.5,0
					c1.2,0.1,2.5,0.2,3.8,0.4c1,0.1,2,0.3,3,0.4c0.2,0,0.5,0.1,0.7,0.1c0.3,0,0.6,0.1,0.9,0.2c0.3,0.1,0.6,0.1,0.9,0.2
					c0.2,0,0.3,0.1,0.5,0.1c0.2,0,0.4,0.1,0.6,0.1c0.3,0.1,0.6,0.1,0.8,0.2c0.6,0.1,1.1,0.3,1.7,0.4c0.3,0.1,0.5,0.1,0.8,0.2
					c0.3,0.1,0.6,0.2,0.8,0.2c0.3,0.1,0.5,0.2,0.8,0.2c0.3,0.1,0.5,0.2,0.8,0.3s0.5,0.2,0.8,0.3s0.5,0.2,0.8,0.3
					c0.2,0.1,0.4,0.2,0.6,0.2c0.1,0,0.1,0,0.2,0.1c0.2,0.1,0.4,0.2,0.6,0.2c0.1,0,0.2,0.1,0.2,0.1c0.4,0.2,0.9,0.4,1.3,0.6
					c0.9,0.5,1.8,1,2.7,1.5c0.3,0.2,0.5,0.4,0.8,0.6c0.3,0.2,0.6,0.4,0.8,0.7c0.1,0.1,0.2,0.2,0.3,0.3c0.4,0.3,0.8,0.7,1.1,1.1
					c0.9,0.9,1.6,1.9,2.1,3.1c0.2,0.3,0.3,0.7,0.4,1C-158.6,268.7328-159.4,275.1329-161.5,281.5328z"/>
				<polygon id="XMLID_530_" fill="#FFFFFF" points="-197.6,261.4329 -237.2,265.5328 -237,263.2328 -237,263.2328 				"/>
				<path id="XMLID_529_" fill="#CDDC39" d="M-237,263.2328l-0.1,2.3c0-0.5,0-0.9,0-1.3
					C-237.1,263.9329-237.1,263.5328-237,263.2328z"/>
			</g>
		</g>
		<polygon id="XMLID_526_" fill="#FFFFFF" points="-187.1,278.3329 -187.3,269.2328 -191.4,278.3329 		"/>
		<polygon id="XMLID_525_" fill="#FFFFFF" points="-194.7,279.4329 -179.6,279.2328 -182.2,282.1329 -192.1,282.2328 		"/>
		<polygon id="XMLID_524_" fill="#F4F2F2" points="-186,272.1329 -182.6,278.3329 -186,278.3329 		"/>
		<path id="XMLID_523_" opacity="0.2" fill="#FFFFFF" enable-background="new    " d="M-160.8,262.4329c-4.1,3.9-9.6,6.4-15.7,6.4
			c-0.5,0-1,0-1.4,0c-6.8-0.4-12.8-3.9-16.6-9c-2.1-2.8-3.6-6.2-4.2-9.8c1.5,0,4.4,0,7.9,0.3c0.3,0,0.6,0,0.9,0.1c0.2,0,0.3,0,0.5,0
			c1.2,0.1,2.5,0.2,3.8,0.4c1,0.1,2,0.3,3,0.4c0.2,0,0.5,0.1,0.7,0.1c0.3,0,0.6,0.1,0.9,0.2c0.3,0.1,0.6,0.1,0.9,0.2
			c0.2,0,0.3,0.1,0.5,0.1c0.2,0,0.4,0.1,0.6,0.1c0.3,0.1,0.6,0.1,0.8,0.2c0.6,0.1,1.1,0.3,1.7,0.4c0.3,0.1,0.5,0.1,0.8,0.2
			c0.3,0.1,0.6,0.2,0.8,0.2c0.3,0.1,0.5,0.2,0.8,0.2c0.3,0.1,0.5,0.2,0.8,0.3s0.5,0.2,0.8,0.3s0.5,0.2,0.8,0.3
			c0.2,0.1,0.4,0.2,0.6,0.2c0.1,0,0.1,0,0.2,0.1c0.2,0.1,0.4,0.2,0.6,0.2c0.1,0,0.2,0.1,0.2,0.1c0.4,0.2,0.9,0.4,1.3,0.6
			c0.9,0.5,1.8,1,2.7,1.5c0.3,0.2,0.5,0.4,0.8,0.6s0.6,0.4,0.8,0.7c0.1,0.1,0.2,0.2,0.3,0.3c0.4,0.3,0.8,0.7,1.1,1.1
			C-162,260.3329-161.3,261.3329-160.8,262.4329z"/>
	</g>
	<g id="XMLID_453_">
		<g id="XMLID_509_">
			<g id="XMLID_512_">
				<path id="XMLID_521_" fill="#26A69A" d="M-55.6,281.5328c-0.1,0.8-0.3,1.6-0.4,2.5h-73.3c-0.2-0.6-0.4-1.2-0.6-1.7
					c-0.1-0.2-0.2-0.5-0.3-0.7h74.6V281.5328z"/>
				<path id="XMLID_520_" fill="#4DB6AC" d="M-56,283.9329c-0.2,0.9-0.4,1.8-0.6,2.8h-71.5c-0.3-0.6-0.5-1.1-0.7-1.7
					c-0.1-0.4-0.3-0.7-0.4-1.1H-56L-56,283.9329z"/>
				<path id="XMLID_519_" fill="#64FFDA" d="M-58,291.5328c-2.8,8.6-7.9,16.2-16.5,19c-5.1,1.7-10,2.4-14.4,2.5c-0.6,0-1.2,0-1.7,0
					c-3-0.1-5.8-0.4-8.3-0.9c-1-0.2-2-0.4-3-0.7c-0.3-0.1-0.6-0.2-0.9-0.3c-4.6-1.4-8.2-3.3-10.6-4.8c-0.3-0.2-0.7-0.4-1-0.7
					c-0.4-0.3-0.8-0.7-1.3-1c-2-1.8-4.2-4.2-6.2-7.1c-0.2-0.3-0.4-0.6-0.6-0.9c-0.2-0.4-0.5-0.7-0.7-1.1c-0.7-1.1-1.5-2.3-2.2-3.6
					c-0.1-0.1-0.1-0.2-0.2-0.4H-58z"/>
				<path id="XMLID_518_" fill="#80CBC4" d="M-56.6,286.7328c-0.4,1.6-0.8,3.2-1.4,4.8h-67.7c-0.9-1.6-1.7-3.2-2.4-4.8H-56.6z"/>
				<path id="XMLID_515_" fill="#BBDEFB" d="M-54.5,267.6329c0,3.9-0.3,8.8-1.1,13.8h-74.6c-0.8-2.5-1.4-4.9-1.8-7.3
					c-0.5-3.4-0.4-6.7,0.4-9.6l0.6-1.8c2.9-6.8,12.8-10,21.9-11.5c1.1-0.2,2.1-0.3,3.2-0.5l0,0c5.9-0.4,11.5-0.6,16-0.7l0,0h0.1
					c1.7,0.1,3.7,0.2,5.8,0.3c1.7,0.1,3.4,0.3,5.2,0.5c0.5,0.1,1.1,0.1,1.6,0.2c0.5,0.1,0.9,0.1,1.4,0.2c3.7,0.6,7.5,1.4,10.7,2.6
					c0.6,0.2,1.1,0.4,1.7,0.6c4.6,1.9,8,4.6,8.7,8.4c0.1,0.3,0.1,0.7,0.1,1.1c0,0.1,0,0.1,0,0.2
					C-54.6,265.3329-54.5,266.4329-54.5,267.6329z"/>
			</g>
		</g>
		<g id="XMLID_457_">
			<path id="XMLID_506_" fill="#7A0017" d="M-93.1,277.2328c0,0-8.1-35.6-1.3,0.9C-93.4,278.8329-93.1,277.2328-93.1,277.2328z"/>
			<path id="XMLID_499_" fill="#8BC34A" d="M-101.1,282.3329c0,0,6.2-6.2,9.8-6.1c3.6,0.1,9.7,3.8,10.4,5s-2.7,1.5-4.4,1.1
				c-1.7-0.3-1.8,1.6-3,2.3c-1.2,0.7-2.4-1.2-4.1-2.1C-94.1,281.5328-96.7,283.5328-101.1,282.3329z"/>
			<path id="XMLID_496_" fill="#7A0017" d="M-91.3,278.1329c0,0,8.1-39.1,1.7,0.3C-91,279.2328-91.3,278.1329-91.3,278.1329z"/>
			<path id="XMLID_493_" fill="#388E3C" d="M-97.2,261.8329c0,0-9.7-7.9-13.7,0C-106.6,260.3329-103.5,258.8329-97.2,261.8329z"/>
			<path id="XMLID_492_" fill="#388E3C" d="M-107.9,267.8329c0,0,2.2-8,10.8-6.1C-101.9,263.0328-103.2,262.9329-107.9,267.8329z"/>
			<path id="XMLID_491_" fill="#388E3C" d="M-97.2,261.7328c0,0,2.6-7.5,7.4-5.3C-93.2,257.6329-94.4,257.4329-97.2,261.7328z"/>
			<path id="XMLID_485_" fill="#388E3C" d="M-97.4,261.3329c0,0,5.9-4.1,7.8,0.8C-93.1,261.2328-91.9,260.0329-97.4,261.3329z"/>
			<path id="XMLID_482_" fill="#388E3C" d="M-86.9,260.8329c0,0,6.7-8,10.3,0.9C-80.3,262.0328-79,257.6329-86.9,260.8329z"/>
			<path id="XMLID_479_" fill="#388E3C" d="M-86.7,261.0329c0,0,7.8,2,5.5,7.5C-83.2,264.9329-81.2,265.2328-86.7,261.0329z"/>
			<path id="XMLID_476_" fill="#388E3C" d="M-86.8,261.1329c0,0-1.9-9.2-9.1-5.2C-91.8,256.7328-90.3,255.6329-86.8,261.1329z"/>
			<path id="XMLID_473_" fill="#388E3C" d="M-87.5,260.6329c0,0-4.7-5.6-9.6,0.6C-93.6,259.8329-92.4,258.6329-87.5,260.6329z"/>
			<circle id="XMLID_469_" fill="#7A0017" cx="-97.7" cy="262.4329" r="1"/>
			<circle id="XMLID_466_" fill="#7A0017" cx="-96.6" cy="261.7328" r="1"/>
			<circle id="XMLID_463_" fill="#7A0017" cx="-88.1" cy="261.0329" r="1"/>
			<circle id="XMLID_460_" fill="#7A0017" cx="-86.7" cy="261.7328" r="1"/>
		</g>
	</g>
	<path id="XMLID_451_" opacity="0.31" fill="#FFFFFF" enable-background="new    " d="M-199.1,249.9329l-12.1,12.1l-21.9,21.9
		l-2.1,2.1c-0.2-0.7-0.3-1.4-0.4-2.1c-0.2-0.8-0.3-1.7-0.4-2.5c-0.4-2.4-0.6-4.7-0.8-6.9c-0.1-1.8-0.2-3.4-0.2-5l4.4-4.4l2.2-2.2
		l10.9-10.9c2.1-0.4,4.2-0.8,6.3-1c5.2-0.7,10.1-0.9,13.6-1C-199.8,249.9329-199.6,249.9329-199.1,249.9329z"/>
	<path id="XMLID_449_" opacity="0.31" fill="#FFFFFF" enable-background="new    " d="M-166,256.8329l-11.9,11.9l-8.1,8.1l-1.1,1.1
		l-0.3,0.3l-1.1,1l-2.1,2.1l-0.7,0.7l-1.8,1.8l-25.9,25.9c-3.8-1.6-6.9-4.3-9.3-7.5c-1.3-1.7-2.4-3.6-3.3-5.5l12.9-12.9l2.5-2.5
		l21.7-21.6l9-9c1,0.1,2,0.3,3,0.4c0.2,0,0.5,0.1,0.7,0.1c0.3,0,0.6,0.1,0.9,0.2c0.3,0.1,0.6,0.1,0.9,0.2c0.2,0,0.3,0.1,0.5,0.1
		s0.4,0.1,0.6,0.1c0.3,0.1,0.6,0.1,0.8,0.2c0.6,0.1,1.1,0.3,1.7,0.4c0.3,0.1,0.5,0.1,0.8,0.2c0.3,0.1,0.6,0.2,0.8,0.2
		c0.3,0.1,0.5,0.2,0.8,0.2c0.3,0.1,0.5,0.2,0.8,0.3c0.3,0.1,0.5,0.2,0.8,0.3c0.3,0.1,0.5,0.2,0.8,0.3c0.2,0.1,0.4,0.2,0.6,0.2
		c0.1,0,0.1,0,0.2,0.1c0.2,0.1,0.4,0.2,0.6,0.2c0.1,0,0.2,0.1,0.2,0.1c0.4,0.2,0.9,0.4,1.3,0.6
		C-167.7,255.7329-166.8,256.2328-166,256.8329z"/>
	<path id="XMLID_447_" opacity="0.31" fill="#FFFFFF" enable-background="new    " d="M-78.8,250.9329l-8.5,8.5l-0.4,0.4l-0.2,0.2
		l-0.1,0.1l-0.2,0.2l-0.9,0.9l-0.6,0.6l-0.2,0.2l-5.5,5.5l-0.8,0.8l-13.1,13.1l-14,14c-0.7-1.1-1.5-2.3-2.2-3.6
		c-0.1-0.1-0.1-0.2-0.2-0.4c-0.9-1.6-1.7-3.2-2.4-4.8c-0.3-0.6-0.5-1.1-0.7-1.7c-0.1-0.4-0.3-0.7-0.4-1.1c-0.2-0.6-0.4-1.2-0.6-1.7
		c-0.1-0.2-0.2-0.5-0.3-0.7c-0.8-2.5-1.4-4.9-1.8-7.3l22.9-22.9c1.1-0.2,2.1-0.3,3.2-0.5l0,0c5.9-0.4,11.5-0.6,16-0.7l0,0h0.1
		c1.7,0.1,3.7,0.2,5.8,0.3C-82.3,250.5329-80.5,250.7329-78.8,250.9329z"/>
	<path id="XMLID_445_" opacity="0.31" fill="#FFFFFF" enable-background="new    " d="M-54.5,267.6329l-13.8,13.8l-5.2,5.2l-4.8,4.8
		l-20.5,20.5c-1-0.2-2-0.4-3-0.7c-0.3-0.1-0.6-0.2-0.9-0.3c-4.6-1.4-8.2-3.3-10.6-4.8c-0.3-0.2-0.7-0.4-1-0.7l14.1-14l4.8-4.8
		l2.8-2.8l1.1-1.1l1.4-1.4l3.9-3.9l23-23c4.6,1.9,8,4.6,8.7,8.4c0.1,0.3,0.1,0.7,0.1,1.1c0,0.1,0,0.1,0,0.2
		C-54.6,265.3329-54.5,266.4329-54.5,267.6329z"/>
</g>
</svg>
