<?xml version="1.0" encoding="utf-8"?>
<!-- Generator: Adobe Illustrator 19.0.0, SVG Export Plug-In . SVG Version: 6.00 Build 0)  -->
<svg version="1.1" id="Layer_1" xmlns="http://www.w3.org/2000/svg" xmlns:xlink="http://www.w3.org/1999/xlink" x="0px" y="0px"
	 viewBox="-348 225.5 262.8 111.5" enable-background="new -348 225.5 262.8 111.5" xml:space="preserve">
<path id="XMLID_581_" fill="#EF7B05" d="M-92.5,252.5c0-0.4-16.1-1.1-16.6-1.6c-0.6-0.7-1.6-0.8-1.8-0.9c-5.2-0.8-10.1-2.8-15.2-3.5
	c-19.6-2.8-24.2-3.8-37.8-2.4c-13.6,1.4-24.8,4.4-24.8,4.4c-1.8,0.5-4.5,1.2-8.3,1.8c-5.6,1-10.4,0.9-13.9,0.9h-1.4
	c-3.5,0-8.3,0-13.9-0.9c-3.9-0.7-6.6-1.4-8.3-1.9c0,0-11.2-3.1-24.6-4.4c-13.6-1.4-18.2-0.4-37.8,2.4c-5.1,0.8-10.1,2.8-15.2,3.5
	c-0.3,0-1.2,0.2-1.9,0.9c-0.5,0.6-22,1.7-22.1,2c-0.4,4-1.6,6.4-0.9,9.6c0.2,0.9,22.8,1,23.2,1.7c0.6,1,1.2,1.2,1.8,1.9
	c1.1,1.1,1.3,2.5,1.6,3.7c0.7,3.1,1.9,6.2,2.6,9.3c0.1,0.6,1.6,7.5,4,13.8c1.3,3.5,2.3,6.5,4.4,9.5c5.4,8.1,12.8,11.4,15.2,12.4
	c9,3.9,17,2.9,24,2c5.1-0.6,10.4-1.4,16.3-4.8c5.4-3.1,8.3-6.8,11.6-10.8c0,0,6.6-8.1,11.6-22.9c0.8-2.3,1.8-11.1,2.7-11.9
	c0.7-0.5,1.4-0.7,2.7-1.1c1.1-0.3,2-0.4,2.6-0.4s1.8,0,2.4,0c0.6,0,1.5,0.2,2.6,0.4c1.3,0.3,2,0.5,2.7,1.1c0.9,0.7,1.9,9.6,2.7,11.9
	c5.1,14.8,11.6,22.9,11.6,22.9c3.3,4,6.2,7.7,11.6,10.8c5.9,3.4,11.2,4.1,16.3,4.8c7,0.9,15,1.9,24-2c2.4-1,9.8-4.4,15.2-12.4
	c2-3,3.1-6,4.4-9.5c2.4-6.3,3.8-13.2,4-13.8c0.7-3.1,1.9-6.2,2.6-9.3c0.3-1.2,0.6-2.5,1.6-3.7c0.6-0.7,1.2-0.9,1.9-1.9
	c0.5-0.8,17.4-1.6,17.5-2.5C-91.2,258.5-92.1,256.5-92.5,252.5z M-226.2,271.9c-3.4,12.2-5.4,18.9-11.8,27.6
	c-3.9,5.3-6.5,7.2-7.6,7.9c-4.1,2.8-7.8,3.6-11.8,4.4c-11.6,2.5-20.6,0.2-23.5-0.5c-6.1-1.7-8.8-3.8-9.5-4.3c-3-2.4-4.6-5.2-6.4-8.8
	c-7.6-15.5-8-27.8-8-32.4c0-3.7,0.3-6.4,2.1-8.9c2.7-3.7,7.5-4.7,10.6-5.3c14-2.9,27.7-2.5,27.7-2.5c19,0.4,27.2,3.1,32.4,6.5
	c3.4,2.2,5.1,4.5,6,6.9C-224.8,265.7-225.5,269.2-226.2,271.9z M-126.4,298.1c-1.8,3.6-3.4,6.4-6.4,8.8c-0.7,0.5-3.4,2.6-9.5,4.3
	c-2.8,0.8-11.9,3-23.4,0.6c-4.1-0.9-7.8-1.7-11.8-4.4c-1-0.7-3.7-2.6-7.6-7.9c-6.4-8.7-8.5-15.4-11.8-27.6c-0.7-2.7-1.4-6.2-0.3-9.5
	c0.8-2.4,2.5-4.7,6-6.9c5.2-3.4,13.4-6,32.4-6.5c0,0,13.7-0.4,27.7,2.5c3.1,0.6,7.9,1.6,10.6,5.3c1.8,2.4,2.1,5.2,2.1,8.9
	C-118.4,270.3-118.8,282.6-126.4,298.1z"/>
<path id="XMLID_577_" fill="#EDA36B" d="M-118.4,265.8c0,4.6-0.4,16.9-8,32.4c-1.8,3.6-3.4,6.4-6.4,8.8c-0.7,0.5-3.4,2.6-9.5,4.3
	c-2.8,0.8-11.9,3-23.4,0.6c-4.1-0.9-7.8-1.7-11.8-4.4c-1-0.7-3.7-2.6-7.6-7.9c-6.4-8.7-8.5-15.4-11.8-27.6c-0.7-2.7-1.4-6.2-0.3-9.5
	c0.8-2.4,2.5-4.7,6-6.9c5.2-3.4,13.4-6,32.4-6.5c0,0,13.7-0.4,27.7,2.5c3.1,0.6,7.9,1.6,10.6,5.3
	C-118.7,259.3-118.4,262.1-118.4,265.8z"/>
<path id="XMLID_576_" fill="#EDA36B" d="M-226.2,271.9c-3.4,12.2-5.4,18.9-11.8,27.6c-3.9,5.3-6.5,7.2-7.6,7.9
	c-4.1,2.8-7.8,3.6-11.8,4.4c-11.6,2.5-20.6,0.2-23.5-0.5c-6.1-1.7-8.8-3.8-9.5-4.3c-3-2.4-4.6-5.2-6.4-8.8c-7.6-15.5-8-27.8-8-32.4
	c0-3.7,0.3-6.4,2.1-8.9c2.7-3.7,7.5-4.7,10.6-5.3c14-2.9,27.7-2.5,27.7-2.5c19,0.4,27.2,3.1,32.4,6.5c3.4,2.2,5.1,4.5,6,6.9
	C-224.8,265.7-225.5,269.2-226.2,271.9z"/>
</svg>
