<?xml version="1.0" encoding="utf-8"?>
<!-- Generator: Adobe Illustrator 19.0.0, SVG Export Plug-In . SVG Version: 6.00 Build 0)  -->
<svg version="1.1" id="Layer_1" xmlns="http://www.w3.org/2000/svg" xmlns:xlink="http://www.w3.org/1999/xlink" x="0px" y="0px"
	 viewBox="-326 210.8 306.1 141.2" enable-background="new -326 210.8 306.1 141.2" xml:space="preserve">
<g id="XMLID_13930_">
	<path id="XMLID_13936_" fill="#EF7B05" d="M-69.5,270.2c1,0.1,2,0.2,3.1,0.3c0.5,0.1,10,0.1,10.5,0c0.7-0.1,1.1-0.5,1.2-1.3
		c0.3-1.7,0.2-3.3,0.2-5c0-0.2-0.1-0.4-0.1-0.6c-0.1-0.4-0.3-0.6-0.7-0.6c-0.3,0-9.6-0.1-9.9-0.1c-0.9,0-1.9,0-2.9,0
		c-1.8-0.1-3.5-0.2-5.3-0.4c-1.1-0.1-2.2-0.1-3.3-0.2c-1.3-0.2-2.6-0.2-3.9-0.3c-1.3-0.1-2.6-0.2-3.9-0.3c-1.2-0.1-2.5-0.2-3.7-0.3
		c-1.5-0.1-2.9-0.2-4.4-0.2c-6.3-0.2-12.5-0.5-18.8-0.2c-2.2,0.1-4.4,0.1-6.6,0.3c-0.2,0-0.4,0-0.5,0c-2.4,0.1-4.8,0.2-7.2,0.4
		c-1.4,0.1-2.8,0.2-4.2,0.3c-1.5,0.1-3,0.3-4.5,0.5c-2.2,0.3-4.4,0.5-6.6,0.8c-3.2,0.4-6.3,0.9-9.4,1.4c-3.4,0.5-6.7,1.4-10,2.1
		c-3.5,0.8-6.9,1.5-10.4,2.1c-1.1,0.2-2.2,0.3-3.3,0.3c-1.3,0-2.6,0-3.8,0c-1.3,0-2.6,0-3.8,0c-1.1,0-2.2-0.2-3.3-0.3
		c-3.5-0.5-7-1.3-10.4-2.1c-3.3-0.7-6.6-1.6-10-2.1c-3.1-0.5-6.3-1-9.4-1.4c-2.2-0.3-4.4-0.6-6.6-0.8c-1.5-0.2-3-0.3-4.5-0.5
		c-1.4-0.1-2.8-0.2-4.2-0.3c-2.4-0.2-4.8-0.4-7.2-0.4c-0.2,0-0.4,0-0.5,0c-2.2-0.3-4.4-0.2-6.6-0.3c-6.3-0.2-12.5,0-18.8,0.2
		c-1.5,0-2.9,0.1-4.4,0.2c-1.2,0.1-2.5,0.2-3.7,0.3c-1.3,0.1-2.6,0.2-3.9,0.3c-1.3,0.1-2.6,0.1-3.9,0.3c-1.1,0.1-2.2,0.1-3.3,0.2
		c-1.8,0.2-3.5,0.3-5.3,0.4c-0.9,0-1.9,0-2.9,0c-0.3,0-15.6,0-15.9,0.1c-0.4,0.1-0.6,0.3-0.7,0.6c-0.1,0.2-0.1,0.4-0.1,0.6
		c0,1.7-0.1,3.4,0.2,5c0.1,0.8,0.4,1.1,1.2,1.3c0.5,0.1,16,0.1,16.5,0c1-0.1,2-0.2,3.1-0.3c1.4-0.1,1.5,0,1.5,1.4c0,0.2,0,0.4,0,0.7
		c-0.1,1.1-0.1,2.3-0.2,3.4c-0.1,3,0.1,6.1,0.3,9.1c0.1,1-0.1,1.2-1.1,1.2c-1.7-0.1-3.3,0.3-4.9,0.4c-0.5,0.1-15.9,0.3-16,0.8
		c-0.2,0.6-0.3,1.2-0.3,1.9c0,1.2,0.1,2.5,0.2,3.7c0.1,0.9,0.4,1.5,1,2.1c0.8,0.7,16.8,1.3,17.8,1.8c1.7,0.7,3.5,1.3,5.3,1.8
		c0.7,0.2,1.3,0.4,2,0.5c0.3,0.1,0.6,0.1,0.8-0.1c0.6-0.3,0.6-0.3,0.9,0.2c0.1,0.2,0.1,0.3,0.2,0.5c1,2.7,2.9,4.6,5.3,6.1
		c1.5,1,3.2,1.6,4.9,2.1c2.3,0.8,4.6,1.3,6.9,1.9c3.3,0.8,6.6,1.5,10,2.2c3.4,0.7,6.8,1.2,10.3,1.4c1.1,0.1,2.1,0.1,3.2,0.3
		c1.9,0.2,3.7,0.3,5.6,0.3c2.9,0.1,5.8,0,8.8,0c0.3,0,0.6,0,0.9,0c1.8-0.2,3.7-0.4,5.6-0.6c2-0.3,4-0.7,6-1.3
		c1.6-0.5,3.1-1.2,4.3-2.3c1.7-1.5,3.1-3.2,4.3-5.1c1.4-2.3,2.7-4.7,4-7.1c0.1-0.3,0.3-0.5,0.4-0.8c0.2-0.4,0.6-0.7,1.1-0.7
		c0.3,0,0.6-0.1,0.9-0.1c0.7-0.1,1.2-0.5,1.5-1.1c0.1-0.2,0.2-0.3,0.2-0.5c0.8-1.8,1.5-3.7,2.1-5.5c0.6-2.1,1.2-4.2,1.8-6.3
		c0.4-1.4,0.8-2.9,1.3-4.3c0.8-2.3,2.5-3.9,4.9-4.1c2.1-0.2,4.1-0.6,6.1-0.6h1.1c2,0,4.1,0.4,6.1,0.6c2.4,0.3,4.1,1.7,4.9,4
		c0.5,1.4,0.9,2.9,1.3,4.4c0.6,2.1,1.2,4.3,1.8,6.4c0.6,1.9,1.3,3.8,2.1,5.6c0.1,0.2,0.2,0.3,0.2,0.5c0.3,0.7,0.8,1,1.5,1.1
		c0.3,0.1,0.6,0.1,0.9,0.1c0.5,0,0.9,0.3,1.1,0.7l0.4,0.8c1.3,2.4,2.6,4.8,4,7.1c1.2,1.9,2.6,3.6,4.3,5.1c1.3,1.1,2.7,1.9,4.3,2.3
		c2,0.6,4,1,6,1.3c1.8,0.2,3.7,0.4,5.5,0.6c0.3,0,0.6,0,0.9,0c2.9,0,5.8,0.1,8.8,0c1.8-0.1,3.7-0.1,5.6-0.3c1.1-0.1,2.1-0.2,3.2-0.2
		c3.5-0.2,6.9-0.8,10.3-1.4c3.3-0.7,6.7-1.4,10-2.2c2.3-0.6,4.6-1.2,6.9-1.9c1.7-0.6,3.4-1.2,4.9-2.1c2.4-1.5,4.3-3.4,5.3-6.1
		c0.1-0.2,0.1-0.3,0.2-0.5c0.3-0.5,0.3-0.6,0.9-0.2c0.3,0.2,0.5,0.2,0.8,0.1c0.7-0.2,1.3-0.3,2-0.5c1.8-0.5,3.6-1.1,5.3-1.8
		c1.1-0.4,11-1,11.9-1.8c0.6-0.6,1-1.2,1-2.1c0.1-1.2,0.2-2.5,0.2-3.7c0-0.7-0.1-1.3-0.3-1.9c-0.2-0.5-0.5-0.8-1-0.8
		c-1.6-0.2-12.2-0.5-13.9-0.4c-1,0.1-1.1-0.2-1.1-1.2c0.2-3,0.4-6,0.3-9.1c-0.1-1.1-0.1-2.3-0.2-3.4c0-0.2,0-0.4,0-0.7
		C-71,270.2-70.9,270.1-69.5,270.2z M-193.2,279.1c-0.7,3.9-1.8,7.8-3.1,11.6c-0.3,0.8-0.6,1.6-1,2.4c-2,4.3-4.2,8.5-6.9,12.3
		c-0.6,0.8-1.1,1.5-1.8,2.2c-1.8,2.1-4.1,3.3-6.8,4.1c-1.6,0.5-3.2,0.7-4.9,0.9c-1.7,0.2-3.4,0.4-5.1,0.6c-0.4,0.1-0.9,0.1-1.3,0.1
		c-2.3,0-4.6,0.1-6.9-0.1c-2.2-0.2-4.3-0.2-6.5-0.3c-3.6-0.3-7.2-0.8-10.8-1.3c-6.3-0.8-12.3-2.4-18.4-4.1c-2.1-0.6-4.2-1.3-6.2-2.3
		c-1-0.5-1.9-1.1-2.7-1.8c-0.5-0.4-0.9-0.9-1.2-1.4c-0.7-1-1.4-2.1-2-3.1c-0.2-0.3-0.4-0.7-0.5-1.1c-1-3.2-1.9-6.4-2.3-9.8
		c-0.4-3.1-0.8-6.2-0.7-9.4c0-1.6,0-3.1,0-4.7c0-1.7,0.3-3.3,0.8-5c0.5-1.6,1.5-2.6,3.1-3.2c1.1-0.4,2.3-0.5,3.4-0.6
		c1.9-0.2,3.8-0.3,5.7-0.5c2.9-0.3,5.8-0.3,8.8-0.5c3.8-0.2,7.7-0.1,11.8-0.2c2.6,0,5.5,0,8.4,0.1c2.3,0.1,4.6,0.2,6.9,0.3
		c0.2,0,0.4,0,0.6,0c2,0.1,3.9,0.1,5.9,0.3c2.9,0.2,5.8,0.4,8.6,0.8c3.8,0.5,7.7,1,11.5,1.6c2.9,0.5,5.9,1.1,8.8,1.9
		c1.5,0.4,2.6,1.2,3.8,2.2c0.3,0.3,0.5,0.7,0.7,1.1c0.4,1,0.6,1.9,0.6,3C-192.8,276.5-192.9,277.9-193.2,279.1z M-74.3,288
		c-0.4,3.4-1.3,6.6-2.3,9.8c-0.1,0.4-0.3,0.8-0.5,1.1c-0.7,1.1-1.3,2.1-2,3.1c-0.3,0.5-0.7,1-1.2,1.4c-0.9,0.7-1.8,1.3-2.8,1.8
		c-1.9,1-4,1.7-6.2,2.3c-6,1.7-12.1,3.2-18.4,4.1c-3.6,0.5-7.2,1.1-10.8,1.3c-2.2,0.2-4.3,0.2-6.5,0.3c-2.3,0.2-4.6,0.1-6.9,0.1
		c-0.4,0-0.9,0-1.3-0.1c-1.7-0.2-3.4-0.4-5.1-0.6c-1.6-0.2-3.3-0.4-4.8-0.9c-2.6-0.8-4.9-2-6.8-4.1c-0.6-0.7-1.2-1.5-1.8-2.2
		c-2.8-3.8-4.9-8-6.9-12.3c-0.4-0.8-0.7-1.6-1-2.4c-1.2-3.8-2.3-7.6-3.1-11.6c-0.2-1.3-0.4-2.6-0.4-3.9c0-1,0.3-2,0.7-3
		c0.2-0.4,0.4-0.8,0.7-1.1c1.1-1,2.3-1.8,3.8-2.2c2.9-0.8,5.8-1.3,8.8-1.9c3.8-0.7,7.7-1.1,11.5-1.6c2.9-0.4,5.8-0.5,8.6-0.8
		c2-0.1,3.9-0.2,5.9-0.3c0.2,0,0.4,0,0.6,0c2.3-0.1,4.6-0.3,6.9-0.3c2.9-0.1,5.8-0.1,8.4-0.1c4.1,0.1,7.9,0,11.8,0.2
		c2.9,0.2,5.8,0.2,8.8,0.5c1.9,0.2,3.8,0.3,5.7,0.5c1.2,0.1,2.3,0.3,3.4,0.6c1.6,0.5,2.6,1.6,3.1,3.2c0.4,1.6,0.8,3.3,0.8,5
		c0,1.6,0,3.2,0,4.7C-73.6,281.8-73.9,284.9-74.3,288z"/>
	<path id="XMLID_13934_" fill="#EDA36B" d="M-73.6,278.6c0.1,3.1-0.3,6.3-0.7,9.4c-0.4,3.4-1.3,6.6-2.3,9.8
		c-0.1,0.4-0.3,0.8-0.5,1.1c-0.7,1.1-1.3,2.1-2,3.1c-0.3,0.5-0.7,1-1.2,1.4c-0.9,0.7-1.8,1.3-2.8,1.8c-1.9,1-4,1.7-6.2,2.3
		c-6,1.7-12.1,3.2-18.4,4.1c-3.6,0.5-7.2,1.1-10.8,1.3c-2.2,0.2-4.3,0.2-6.5,0.3c-2.3,0.2-4.6,0.1-6.9,0.1c-0.4,0-0.9,0-1.3-0.1
		c-1.7-0.2-3.4-0.4-5.1-0.6c-1.6-0.2-3.3-0.4-4.8-0.9c-2.6-0.8-4.9-2-6.8-4.1c-0.6-0.7-1.2-1.5-1.8-2.2c-2.8-3.8-4.9-8-6.9-12.3
		c-0.4-0.8-0.7-1.6-1-2.4c-1.2-3.8-2.3-7.6-3.1-11.6c-0.2-1.3-0.4-2.6-0.4-3.9c0-1,0.3-2,0.7-3c0.2-0.4,0.4-0.8,0.7-1.1
		c1.1-1,2.3-1.8,3.8-2.2c2.9-0.8,5.8-1.3,8.8-1.9c3.8-0.7,7.7-1.1,11.5-1.6c2.9-0.4,5.8-0.5,8.6-0.8c2-0.1,3.9-0.2,5.9-0.3
		c0.2,0,0.4,0,0.6,0c2.3-0.1,4.6-0.3,6.9-0.3c2.9-0.1,5.8-0.1,8.4-0.1c4.1,0.1,7.9,0,11.8,0.2c2.9,0.2,5.8,0.2,8.8,0.5
		c1.9,0.2,3.8,0.3,5.7,0.5c1.2,0.1,2.3,0.3,3.4,0.6c1.6,0.5,2.6,1.6,3.1,3.2c0.4,1.6,0.8,3.3,0.8,5
		C-73.7,275.5-73.7,277.1-73.6,278.6z"/>
	<path id="XMLID_13932_" fill="#EDA36B" d="M-192.8,275.2c0,1.3-0.1,2.6-0.4,3.9c-0.7,3.9-1.8,7.8-3.1,11.6c-0.3,0.8-0.6,1.6-1,2.4
		c-2,4.3-4.2,8.5-6.9,12.3c-0.6,0.8-1.1,1.5-1.8,2.2c-1.8,2.1-4.1,3.3-6.8,4.1c-1.6,0.5-3.2,0.7-4.9,0.9c-1.7,0.2-3.4,0.4-5.1,0.6
		c-0.4,0.1-0.9,0.1-1.3,0.1c-2.3,0-4.6,0.1-6.9-0.1c-2.2-0.2-4.3-0.2-6.5-0.3c-3.6-0.3-7.2-0.8-10.8-1.3c-6.3-0.8-12.3-2.4-18.4-4.1
		c-2.1-0.6-4.2-1.3-6.2-2.3c-1-0.5-1.9-1.1-2.7-1.8c-0.5-0.4-0.9-0.9-1.2-1.4c-0.7-1-1.4-2.1-2-3.1c-0.2-0.3-0.4-0.7-0.5-1.1
		c-1-3.2-1.9-6.4-2.3-9.8c-0.4-3.1-0.8-6.2-0.7-9.4c0-1.6,0-3.1,0-4.7c0-1.7,0.3-3.3,0.8-5c0.5-1.6,1.5-2.6,3.1-3.2
		c1.1-0.4,2.3-0.5,3.4-0.6c1.9-0.2,3.8-0.3,5.7-0.5c2.9-0.3,5.8-0.3,8.8-0.5c3.8-0.2,7.7-0.1,11.8-0.2c2.6,0,5.5,0,8.4,0.1
		c2.3,0.1,4.6,0.2,6.9,0.3c0.2,0,0.4,0,0.6,0c2,0.1,3.9,0.1,5.9,0.3c2.9,0.2,5.8,0.4,8.6,0.8c3.8,0.5,7.7,1,11.5,1.6
		c2.9,0.5,5.9,1.1,8.8,1.9c1.5,0.4,2.6,1.2,3.8,2.2c0.3,0.3,0.5,0.7,0.7,1.1C-193.1,273.2-192.8,274.2-192.8,275.2z"/>
</g>
</svg>
