<?xml version="1.0" encoding="utf-8"?>
<!-- Generator: Adobe Illustrator 19.0.0, SVG Export Plug-In . SVG Version: 6.00 Build 0)  -->
<svg version="1.1" id="Layer_1" xmlns="http://www.w3.org/2000/svg" xmlns:xlink="http://www.w3.org/1999/xlink" x="0px" y="0px"
	 viewBox="-312 206 335 150" enable-background="new -312 206 335 150" xml:space="preserve">
<g id="XMLID_8_">
	<path id="XMLID_11_" fill="#EF7B05" d="M-17.3278,272.9c0-1.1-1.4-1.2-3.3-1.2h-23.9c-0.8-8-3.3-14.1-7.7-18.3
		c-4.9-4.8-12.3-7.6-24-9.2c-4.8-0.7-9.6-1-14.3-1c-3.2,0-6.3,0.4-9.3,0.4h-87.5c-3,0-6.1-0.4-9.3-0.4c-4.7,0-9.5,0.3-14.3,1
		c-11.7,1.6-19.1,4.4-24,9.2c-4.4,4.2-6.9,10.3-7.7,18.3h-25.9c-1.9,0-3.3,0.1-3.3,1.2s-0.1,2.2,0,2.7c0.1,0.4-0.3,1.2,1.5,1.2h27.4
		c0,0,0,0.4,0,0.7c-0.2,5.9-0.6,16.6,6.7,28.3c7.9,12.8,23.2,12.9,23.9,12.9c0,0,0.1,0,0.3,0c0.6,0,1.7,0.1,3.3,0.1
		c3.2,0,7.8-0.3,12.8-1.7c5-1.4,10.6-3.9,15.7-8.3c9.1-7.8,14-14.5,17.5-21.3c0.3,0.4,0.9,1,0.9,1.8c0,1-4.6,8.6-4.6,8.6
		s2,0.5,3.6,0.3s2.7-4.3,6.3-12.2c3.6-8,3.6-9.9,3.4-11c-0.2-1.1-2.8-1.9-2.8-1.9s-0.2,1.3-0.7,2.8s-1.5,4.3-2.1,4.9
		c-0.6,0.7-1.3,0.6-1.3,0.6c0.8-1.9,1.5-3.8,2.2-5.8c0.1-0.4,1.7-5.5,1.9-10.9c1,0.2,2.5,0,2.8,0c0.4,0,9.7,0,9.7,0s9.3,0,9.7,0
		c0.2,0,1.8,0.2,2.8,0c0.1,5.5,1.8,10.6,1.9,11c0.7,2,1.4,4,2.2,6c0,0,0,0-0.1,0c-0.2,0-0.8-0.2-1.2-0.8c-0.6-0.7-1.6-3.5-2.1-5
		s-0.7-2.9-0.7-2.9s-2.7,0.7-2.8,1.8s-0.1,3,3.4,11c3.6,8,4.7,12,6.3,12.2s3.6-0.3,3.6-0.3s-4.6-7.6-4.6-8.6c0-0.7,0.5-1.4,0.9-1.8
		c3.5,6.9,8.4,13.5,17.5,21.3c10.1,8.7,22.2,10,28.5,10l0,0c1.6,0,2.8-0.1,3.3-0.1c0.1,0,0.2,0,0.3,0c0.6,0,15.9-0.1,23.8-13
		c7.2-11.7,6.9-22.3,6.7-28.2c0-0.4,0-0.7,0-0.7h25.4c1.8,0,1.3-0.8,1.5-1.2C-17.2278,275.1-17.3278,274-17.3278,272.9z
		 M-159.3278,274.6c-1.4-0.1-1.5,2.9-1.8,4.1s-0.6,0.8-1.7,0.8c-1,0-1.6,1-1.9,2.7c-0.3,1.7,1.6,2.2,1.6,2.2
		c-3.5,7.5-8.3,14.6-18.2,23.1c-9.7,8.4-21.4,9.6-27.5,9.6c-1.6,0-2.7-0.1-3.2-0.1c-0.2,0-0.3,0-0.4,0c-0.1,0-15-0.1-22.5-12.2
		c-7-11.3-6.6-21.9-6.4-27.6c0-0.4,0-0.8,0-1.1c0.5-19.3,8.5-27.1,30.5-30.2c4.7-0.6,9.4-1,14.1-1c14,0,27.3,3.1,34.5,8.1
		C-154.8278,258-158.5278,272-159.3278,274.6z M-133.7278,262.7c-1.5,0-9.8,0-9.8,0s-8.3,0-9.8,0c-0.9,0-1.9-0.2-2.7-0.1
		c-0.3-4.1-1.6-8.1-5.1-10.6c-3.2-2.2-7.6-4.4-12.7-5.4h60.6c-5.1,1-9.4,3-12.7,5.2c-3.6,2.5-4.9,6.7-5.1,10.9
		C-131.8278,262.7-132.8278,262.7-133.7278,262.7z M-52.3278,304.7c-7.5,12-22.3,12.2-22.5,12.2c0,0-0.2,0-0.4,0
		c-0.5,0-1.6,0.1-3.2,0.1c-6.1,0-17.7-1.3-27.5-9.6c-9.9-8.5-14.7-15.6-18.2-23.1c0,0,1.9-0.5,1.6-2.2c-0.3-1.7-0.9-2.7-1.9-2.7
		s-1.4,0.4-1.7-0.8c-0.3-1.2-0.5-4.2-1.8-4.1c-0.8-2.6-4.5-16.6,2.8-21.6c7.3-5,20.5-8.1,34.5-8.1c4.6,0,9.4,0.3,14,1
		c22,3,30,10.9,30.5,30.2c0,0.3,0,0.7,0,1.1C-45.7278,282.9-45.3278,293.4-52.3278,304.7z"/>
	<path id="XMLID_600_" fill="#EDA36B" d="M-52.3278,304.7c-7.5,12-22.3,12.2-22.5,12.2c0,0-0.2,0-0.4,0c-0.5,0-1.6,0.1-3.2,0.1
		c-6.1,0-17.7-1.3-27.5-9.6c-9.9-8.5-14.7-15.6-18.2-23.1c0,0,1.9-0.5,1.6-2.2c-0.3-1.7-0.9-2.7-1.9-2.7s-1.4,0.4-1.7-0.8
		c-0.3-1.2-0.5-4.2-1.8-4.1c-0.8-2.6-4.5-16.6,2.8-21.6c7.3-5,20.5-8.1,34.5-8.1c4.6,0,9.4,0.3,14,1c22,3,30,10.9,30.5,30.2
		c0,0.3,0,0.7,0,1.1C-45.7278,282.9-45.3278,293.4-52.3278,304.7z"/>
	<path id="XMLID_606_" fill="#EDA36B" d="M-159.3278,274.6c-1.4-0.1-1.5,2.9-1.8,4.1s-0.6,0.8-1.7,0.8c-1,0-1.6,1-1.9,2.7
		c-0.3,1.7,1.6,2.2,1.6,2.2c-3.5,7.5-8.3,14.6-18.2,23.1c-9.7,8.4-21.4,9.6-27.5,9.6c-1.6,0-2.7-0.1-3.2-0.1c-0.2,0-0.3,0-0.4,0
		c-0.1,0-15-0.1-22.5-12.2c-7-11.3-6.6-21.9-6.4-27.6c0-0.4,0-0.8,0-1.1c0.5-19.3,8.5-27.1,30.5-30.2c4.7-0.6,9.4-1,14.1-1
		c14,0,27.3,3.1,34.5,8.1C-154.8278,258-158.5278,272-159.3278,274.6z"/>
</g>
</svg>
