<?xml version="1.0" encoding="utf-8"?>
<!-- Generator: Adobe Illustrator 19.0.0, SVG Export Plug-In . SVG Version: 6.00 Build 0)  -->
<svg version="1.1" id="Layer_1" xmlns="http://www.w3.org/2000/svg" xmlns:xlink="http://www.w3.org/1999/xlink" x="0px" y="0px"
	 viewBox="-335 225.5 287.2 111.5" enable-background="new -335 225.5 287.2 111.5" xml:space="preserve">
<g id="XMLID_370_">
	<g id="XMLID_435_">
		<g id="XMLID_281_">
			<path id="XMLID_282_" fill="#EF7B05" d="M-97.3,264.9h-4.4c-0.4-1.3-0.9-2.6-1.5-3.9c-4.5-9.2-14.5-15.7-24.8-16.1
				c-0.3,0-0.6,0-0.9,0c-5,0-10,1.5-14.1,4.1c-4.1-2.6-9.1-4.1-14.1-4.1c-0.3,0-0.6,0-0.9,0c-10.3,0.4-20.3,6.8-24.8,16
				c-3.6,2.6-7.8,2.5-12.4,2.5c-4.6,0-8.8,0.1-12.4-2.5c-4.5-9.2-14.5-15.7-24.8-16c-0.3,0-0.6,0-0.9,0c-5,0-10,1.5-14.1,4.1
				c-4.1-2.6-9.1-4.1-14.1-4.1c-0.3,0-0.6,0-0.9,0c-10.3,0.4-20.3,6.8-24.8,16.1c-0.6,1.3-1.1,2.5-1.5,3.9h-4.4
				c-2.9,0-31.9-0.5-31.9-0.5v11.9c0,0,29,0.6,31.9,0.6h3.2c0.4,3.8,1.4,7.6,3.1,11.4c3.4,7.2,9.2,13.9,17.3,19.9
				c3.7,2.8,7.8,5.3,12,7.4c3.1,1.6,6.6,2.4,10.1,2.4s7-0.8,10.1-2.4c4.3-2.2,8.3-4.7,12-7.4c8.1-6,13.9-12.7,17.3-19.9
				c1-2.2,1.8-4.4,2.3-6.6c0.7-2.7,2.8-4.8,5.5-5.4c0.1,0,0.2,0,0.2,0c1.5-0.3,3.5-0.4,4.7-0.4s3.1,0.1,4.7,0.4c0.1,0,0.2,0,0.3,0
				c2.7,0.6,4.8,2.7,5.5,5.4c0.6,2.2,1.3,4.4,2.4,6.6c3.4,7.2,9.2,13.9,17.3,19.9c3.7,2.8,7.8,5.3,12,7.4c3.1,1.6,6.6,2.4,10.1,2.4
				s7-0.8,10.1-2.4c4.3-2.2,8.3-4.7,12-7.4c8.1-6,13.9-12.7,17.3-19.9c1.7-3.7,2.8-7.6,3.2-11.4h3.2c2.9,0,26.6,0.2,26.6,0.2v-11.6
				C-70.7,265.5-94.4,264.9-97.3,264.9z M-212.5,286.2c-3,6.4-8.3,12.5-15.8,18c-3.5,2.6-7.3,5-11.3,7c-2.4,1.2-5.1,1.9-7.8,1.9
				s-5.4-0.6-7.8-1.9c-4-2-7.8-4.4-11.4-7c-7.4-5.5-12.7-11.6-15.7-18c-1.7-3.6-2.6-7.3-2.8-10.9c-0.1-2.7,0.1-5.3,0.7-7.8
				c0.4-1.5,0.9-2.9,1.6-4.3c3.7-7.6,12-13,20.6-13.3c0.2,0,0.5,0,0.7,0c5.1,0,10.4,2,14.1,5.3c3.7-3.3,9-5.3,14.1-5.3
				c0.2,0,0.5,0,0.7,0c8.6,0.3,16.8,5.6,20.6,13.3C-208.7,270-208.8,278.4-212.5,286.2z M-105.3,275.3c-0.2,3.6-1.1,7.3-2.8,10.9
				c-3,6.4-8.3,12.5-15.8,18c-3.5,2.6-7.3,5-11.3,7c-2.4,1.2-5.1,1.9-7.8,1.9s-5.4-0.6-7.8-1.9c-4-2-7.8-4.4-11.3-7
				c-7.4-5.5-12.7-11.6-15.8-18c-3.6-7.8-3.8-16.2-0.5-23c3.7-7.6,12-13,20.6-13.3c0.2,0,0.5,0,0.7,0c5.1,0,10.4,2,14.1,5.3
				c3.7-3.3,9-5.3,14.1-5.3c0.2,0,0.5,0,0.7,0c8.6,0.3,16.8,5.6,20.5,13.3c0.7,1.4,1.2,2.8,1.6,4.3
				C-105.4,270-105.2,272.6-105.3,275.3z"/>
		</g>
	</g>
	<g id="XMLID_372_">
		<path id="XMLID_248_" fill="#7F3905" d="M-105.3,275.3c-0.2,3.6-1.1,7.3-2.8,10.9c-3,6.4-8.3,12.5-15.8,18c-3.5,2.6-7.3,5-11.3,7
			c-2.4,1.2-5.1,1.9-7.8,1.9s-5.4-0.6-7.8-1.9c-4-2-7.8-4.4-11.3-7c-7.4-5.5-12.7-11.6-15.8-18c-3.6-7.8-3.8-16.2-0.5-23
			c3.7-7.6,12-13,20.6-13.3c0.2,0,0.5,0,0.7,0c5.1,0,10.4,2,14.1,5.3c3.7-3.3,9-5.3,14.1-5.3c0.2,0,0.5,0,0.7,0
			c8.6,0.3,16.8,5.6,20.5,13.3c0.7,1.4,1.2,2.8,1.6,4.3C-105.4,270-105.2,272.6-105.3,275.3z"/>
	</g>
	<g id="XMLID_209_">
		<path id="XMLID_246_" fill="#7F3905" d="M-212.5,286.2c-3,6.4-8.3,12.5-15.8,18c-3.5,2.6-7.3,5-11.3,7c-2.4,1.2-5.1,1.9-7.8,1.9
			s-5.4-0.6-7.8-1.9c-4-2-7.8-4.4-11.4-7c-7.4-5.5-12.7-11.6-15.7-18c-1.7-3.6-2.6-7.3-2.8-10.9c-0.1-2.7,0.1-5.3,0.7-7.8
			c0.4-1.5,0.9-2.9,1.6-4.3c3.7-7.6,12-13,20.6-13.3c0.2,0,0.5,0,0.7,0c5.1,0,10.4,2,14.1,5.3c3.7-3.3,9-5.3,14.1-5.3
			c0.2,0,0.5,0,0.7,0c8.6,0.3,16.8,5.6,20.6,13.3C-208.7,270-208.8,278.4-212.5,286.2z"/>
	</g>
</g>
</svg>
