<?xml version="1.0" encoding="utf-8"?>
<!-- Generator: Adobe Illustrator 19.0.0, SVG Export Plug-In . SVG Version: 6.00 Build 0)  -->
<svg version="1.1" id="Layer_1" xmlns="http://www.w3.org/2000/svg" xmlns:xlink="http://www.w3.org/1999/xlink" x="0px" y="0px"
	 viewBox="0 0 274.3 109.5" style="enable-background:new 0 0 274.3 109.5;" xml:space="preserve">
<style type="text/css">
	.st0{fill:#EF7B05;}
	.st1{fill:none;}
</style>
<g id="XMLID_4463_">
	<path id="XMLID_4518_" class="st0" d="M40.4,54.8h-4.6c0.1,0,0.1,0.5,0.2,0.8c0.2,1.1,0.4,2.2,0.5,3.2h4.1
		C40.4,57.8,40.4,55.8,40.4,54.8z"/>
	<path id="XMLID_4517_" class="st0" d="M41.2,43.8h-7.2c0.2,1,0.5,3,0.8,4h5.9C40.7,46.8,40.9,44.8,41.2,43.8z"/>
	<g id="XMLID_4464_">
		<path id="XMLID_4516_" class="st1" d="M167.9,26.8h48.2c-5.4-3-10.2-2.9-10.2-2.9S183.5,19.8,167.9,26.8z"/>
		<path id="XMLID_4515_" class="st1" d="M46.2,32.8c-1.3,1-2.3,3-3.1,5h75.7c-1-2-2.2-3-3.7-5H46.2z"/>
		<path id="XMLID_4514_" class="st1" d="M66.6,24c0,0-4.8-0.1-10.2,2.9h48.2C89,19.8,66.6,24,66.6,24z"/>
		<path id="XMLID_4513_" class="st1" d="M42.2,69.8h71.6c0.9-1,1.7-3,2.5-4h-75C41.5,66.8,41.8,68.8,42.2,69.8z"/>
		<path id="XMLID_4487_" class="st1" d="M66.8,91.8h9.7c2.2,0,4.6-0.4,7.1-0.8c3.9-0.6,7.4-2.2,10.7-3.2H53
			C56.7,89.8,61.3,91.8,66.8,91.8z"/>
		<path id="XMLID_4486_" class="st1" d="M46.3,80.8h58.3c1.6-1,3.1-3,4.4-4H44.1C44.8,77.8,45.5,79.8,46.3,80.8z"/>
		<path id="XMLID_4485_" class="st1" d="M151.1,47.8h80.9c-0.1-1-0.3-3-0.6-4h-80.1C151.1,44.8,151,46.8,151.1,47.8z"/>
		<path id="XMLID_4484_" class="st1" d="M226.4,32.8h-68.9c-1.5,2-2.7,3-3.7,5h75.7C228.7,35.8,227.6,33.8,226.4,32.8z"/>
		<path id="XMLID_4483_" class="st1" d="M188.9,91c2.5,0.4,4.8,0.8,7.1,0.8h9.7c5.6,0,10.2-2,13.9-4h-41.3
			C181.5,88.8,185,90.4,188.9,91z"/>
		<path id="XMLID_4482_" class="st1" d="M153.5,58.8H232c0.1-1,0.2-3,0.2-4h-80.1C152.5,55.8,152.9,57.8,153.5,58.8z"/>
		<path id="XMLID_4481_" class="st1" d="M158.7,69.8h71.6c0.3-1,0.6-3,0.9-4h-75C157,66.8,157.8,68.8,158.7,69.8z"/>
		<path id="XMLID_4480_" class="st1" d="M168,80.8h58.3c0.8-1,1.5-3,2.1-4h-64.8C164.9,77.8,166.4,79.8,168,80.8z"/>
		<path id="XMLID_4465_" class="st0" d="M242.7,35.6l12.3-2l-0.7-3.5c0-0.3-0.8-3.1-0.9-3.4c-0.1-0.1-12,0.3-12,0.3
			c-0.4-1-0.9-1.3-1.6-1.5c-1.4-0.5-3.8-1.3-7.9-1.9c-0.6-0.1-1.2-0.2-1.8-0.3c-1.2-0.2-2.3-0.6-3.4-0.7c-1-0.2-2.1-0.7-3.1-0.7
			h-0.9c-5.9-1-10.7-1.2-14.3-1.6c-0.9-0.1-1.8-0.2-2.5-0.2c-1-0.1-1.8-0.2-2.5-0.2c-0.2,0-0.3,0-0.5,0c-0.3,0-0.6-0.1-0.8-0.1
			c-0.5-0.1-0.8-0.1-0.8-0.1l0,0c-2.7-0.3-6.2-0.5-10.1-0.5c-4,0-7.8,0.2-11.2,0.7c-1.2,0.2-2.3,0.3-3.4,0.5
			c-1.1,0.2-2.4,0.3-3.7,0.5c-0.7,0.1-1.4,0.1-2.1,0.2c-1.7,0.3-3.6,0.7-5.4,0.7h-0.6h-0.1V22c-2,0.9-3.4,0.8-5,1.2
			c-2.1,0.5-4.4,1-6.7,1.4c-11,1.7-22.2,1.7-33.2,0c-2.3-0.3-4.6-1-6.7-1.5c-1.7-0.4-3.4-0.3-5.1-1.3h-0.2h-0.7
			c-1.8,0-3.6-0.5-5.3-0.8c-2.1-0.3-4.1-0.6-5.8-0.8c-4.4-0.8-9.3-1.2-14.6-1.2c-1,0-1.7,0-2.6,0.1c-2.8,0.1-5,0.3-7,0.5v-0.1
			c0,0-8.6,0.6-22.7,2.6c-2.6,1-5.3,0.9-8.2,1.3c-4.1,0.6-6.5,1.4-7.9,1.9c-0.7,0.3-1.2,1-1.6,1.6c0,0-16.8,0.1-16.8,0.1
			c-0.1,0,0.1,1.1,0,1.2c-0.1,0.3-0.2,2.5-0.2,2.8L14,33l15.8,2.6c-0.1,0.7,0.1,1.4,0.4,2.4c0.1,0,0.2,0.1,0.3,0.3
			c0.2,0.2,0.4,0.3,0.7,0.5c0.6,0.4,1.2,1,1.7,2c0.3,0.6,0.6,1.1,0.7,1.9c0.1,0.3,0.2,1.1,0.3,1.1h7.2h80.1c0.2,1,0.3,3,0.2,4H40.6
			h-5.9c0.3,2,0.7,5,1.1,7h4.6h80.1c-0.4,1-0.8,3-1.4,4H40.5h-4.1c0,0,0,0.6,0.1,0.7c0.3,2.1,0.7,4.4,1,6.4c0.1,1,0.3,1.7,0.4,2.5
			c0,0.3,0.1,0.5,0.3,0.7c0.1,0.3,0.1,0.8,0.2,0.8c0.5,2,1.1,5,1.8,7c0.6,1,1.2,3,1.8,4c0.6,1,1.2,2.4,1.9,3.3
			c0.9,1.3,2,1.7,3.1,3.7c1.9,1,4,3,6.4,4c1,0,2.1,0.9,3.2,1.3c1.8,0.6,3.7,1.1,5.7,1.4c1.3,0.2,2.8,0.4,4.2,0.5
			c1.5,0.1,3,0.2,4.5,0.2c3,0,6.2-0.2,9.6-0.6c1.1-0.1,2.3-0.3,3.5-0.5c3.1-0.5,6.1-1.3,9-2.3c0.2,0,0.4,0.1,0.6,0
			c2.8-1.1,5.6-3,8.1-4c2.2-2,4.3-3.3,6.3-5.1c0.6-0.5,1.1-0.9,1.7-1.9c1.3-1,2.6-3,3.8-4c0.9-2,1.8-2.6,2.6-3.9
			c0.5-0.7,1.1-2.1,1.8-3.1c0.7-1,1.5-3,2.4-4c1.1-2,2.2-5,3.2-7c0.7-1,1.4-3,2-4c1.1-3,2.1-5,2.8-7c0.4-1,0.6-1.5,0.8-2
			c0.3-0.9,0.7-1,1.2-2c2.1-2,5.6-2.6,5.6-2.6c0,0,3.5,0.6,5.6,2.6c0.5,1,1,1.1,1.2,2c0.2,0.5,0.4,1,0.8,2c0.7,2,1.7,4,2.8,7
			c0.6,1,1.3,3,2,4c1.1,2,2.2,5,3.2,7c0.8,1,1.6,3,2.4,4c0.7,1,1.3,2.4,1.8,3.1c0.8,1.3,1.7,1.9,2.6,3.9c1.2,1,2.5,3,3.8,4
			c0.6,1,1.1,1.4,1.7,1.9c2,1.8,4.1,3.1,6.3,5.1c2.6,1,5.3,2.9,8.1,4c0.2,0.1,0.4,0,0.6,0c2.9,1,5.9,1.8,9,2.3
			c3.6,0.6,6.9,0.9,10.1,1c1,0,2.1,0.1,3.1,0.1c0.8,0,1.5,0,2.3-0.1c3-0.1,5.8-0.5,8.4-1.1c1.9-0.4,3.8-1,5.5-1.7
			c0.5-0.2,1-0.6,1.5-0.6c0.6,0,1.2-0.4,1.8-0.7c1.7-1,3.2-2.3,4.6-3.3c1.1-2,2.2-2.4,3.1-3.7c0.3-0.4,0.6-1,0.9-1.5
			c0.3-0.5,0.6-0.8,0.9-1.8c0.3,0,0.5-1,0.8-1.6c0.3-0.6,0.5-1,0.8-1.7c0.1-0.3,0.2-0.8,0.3-0.8c0.7-2,1.3-5,1.8-7
			c0.1,0,0.1-0.6,0.2-0.9c0.1-0.1,0.1-0.2,0.2-0.4s0.1-0.2,0.1-0.3c0.1-0.8,0.3-1.4,0.4-2.4c0.3-2,0.7-4,1-7c0.2-1,0.5-3,0.7-4
			c0.4-2,0.7-5,1.1-7c0.3-1,0.6-3,0.8-4c0.1,0,0.2-0.9,0.3-1.2c0.2-0.8,0.4-1.5,0.7-2c0.5-0.9,1.1-1.6,1.7-2
			c0.3-0.2,0.5-0.2,0.7-0.4c0.1-0.2,0.2-0.3,0.3-0.3C242.6,37,242.8,36.3,242.7,35.6z M83.6,91c-2.5,0.4-4.8,0.8-7.1,0.8h-9.7
			c-5.6,0-10.2-2-13.9-4h41.3C91.1,88.8,87.5,90.4,83.6,91z M104.5,80.8H46.3c-0.8-1-1.5-3-2.1-4h64.8
			C107.6,77.8,106.1,79.8,104.5,80.8z M113.8,69.8H42.2c-0.3-1-0.6-3-0.9-4h75C115.5,66.8,114.7,68.8,113.8,69.8z M216.1,26.8h-48.2
			c15.6-7,38-2.9,38-2.9S210.7,23.8,216.1,26.8z M66.6,24c0,0,22.4-4.1,38,2.9H56.5C61.8,23.8,66.6,24,66.6,24z M43,37.8
			c0.8-2,1.9-4,3.1-5h68.9c1.5,2,2.7,3,3.7,5H43z M205.7,91.8H196c-2.2,0-4.6-0.4-7.1-0.8c-3.9-0.6-7.4-2.2-10.7-3.2h41.3
			C215.9,89.8,211.3,91.8,205.7,91.8z M226.3,80.8H168c-1.6-1-3.1-3-4.4-4h64.8C227.8,77.8,227,79.8,226.3,80.8z M230.4,69.8h-71.6
			c-0.9-1-1.7-3-2.5-4h75C231,66.8,230.7,68.8,230.4,69.8z M232,58.8h-78.5c-0.5-1-1-3-1.4-4h80.1C232.1,55.8,232.1,57.8,232,58.8z
			 M231.9,47.8h-80.9c-0.1-1,0-3,0.2-4h80.1C231.6,44.8,231.8,46.8,231.9,47.8z M153.7,37.8c1-2,2.2-3,3.7-5h68.9c1.3,1,2.3,3,3.1,5
			H153.7z"/>
	</g>
</g>
</svg>
