<?xml version="1.0" encoding="utf-8"?>
<!-- Generator: Adobe Illustrator 19.0.0, SVG Export Plug-In . SVG Version: 6.00 Build 0)  -->
<svg version="1.1" id="Layer_1" xmlns="http://www.w3.org/2000/svg" xmlns:xlink="http://www.w3.org/1999/xlink" x="0px" y="0px"
	 viewBox="-335 225.5 287.2 111.5" enable-background="new -335 225.5 287.2 111.5" xml:space="preserve">
<g id="XMLID_209_">
	<g id="XMLID_273_">
		<path id="XMLID_274_" fill="#EF7B05" d="M-97.8,264.2h-4.2c-0.1,0-0.1,0-0.2,0c-0.4-1.3-0.9-2.6-1.5-3.9
			c-4.5-9.2-14.5-15.7-24.8-16.1c-0.3,0-0.6,0-0.9,0c-5,0-10,1.5-14.1,4.1c-4.1-2.6-9.1-4.1-14.1-4.1c-0.3,0-0.6,0-0.9,0
			c-10.3,0.4-20.3,6.8-24.8,16c-3.6,2.6-7.8,2.5-12.4,2.5c-4.6,0-8.8,0-12.4-2.5c-4.5-9.2-14.5-15.7-24.8-16c-0.3,0-0.6,0-0.9,0
			c-5,0-10,1.5-14.1,4.1c-4.1-2.6-9.1-4.1-14.1-4.1c-0.3,0-0.6,0-0.9,0c-10.3,0.4-20.3,6.8-24.8,16.1c-0.6,1.3-1.1,2.5-1.5,3.9
			c-0.1,0-0.1,0-0.2,0h-4.2c-2.9,0-31.9-0.5-31.9-0.5v11.9c0,0,29,0.6,31.9,0.6h3.2c0.4,3.8,1.4,7.6,3.2,11.4
			c3.3,7.2,9.1,13.8,17.2,19.9c3.7,2.8,7.8,5.3,12,7.4c3.1,1.6,6.6,2.4,10.1,2.4s7-0.8,10.1-2.4c4.3-2.2,8.3-4.7,12-7.4
			c8.1-6,13.9-12.7,17.3-19.9c1-2.2,1.8-4.4,2.3-6.6c0.7-2.7,2.8-4.8,5.5-5.4c0.1,0,0.2,0,0.2-0.1c1.6-0.3,3.5-0.4,4.7-0.4
			s3.1,0,4.7,0.4c0.1,0,0.2,0,0.2,0.1c2.7,0.6,4.8,2.7,5.5,5.4c0.5,2.2,1.3,4.4,2.3,6.6c3.4,7.2,9.2,13.9,17.3,19.9
			c3.7,2.8,7.8,5.3,12,7.4c3.1,1.6,6.6,2.4,10.1,2.4s7-0.8,10.1-2.4c4.3-2.2,8.3-4.7,12-7.4c8.1-6,13.9-12.7,17.3-19.9
			c1.7-3.7,2.8-7.6,3.2-11.4h3.2c2.9,0,26.6,0.2,26.6,0.2v-11.7C-71.2,264.7-94.9,264.2-97.8,264.2z M-213,285.5
			c-3,6.4-8.3,12.5-15.7,18c-3.5,2.6-7.3,5-11.3,7c-2.4,1.2-5.1,1.9-7.8,1.9s-5.4-0.7-7.8-1.9c-4-2-7.8-4.4-11.3-7
			c-7.4-5.5-12.7-11.6-15.7-18c-1.7-3.6-2.6-7.3-2.8-10.9c-0.1-2.7,0.1-5.3,0.7-7.8c0.4-1.5,0.9-2.9,1.6-4.3
			c3.7-7.6,12-13,20.6-13.3c0.2,0,0.5,0,0.7,0c5.1,0,10.4,2,14.1,5.3c3.7-3.3,9-5.3,14.1-5.3c0.2,0,0.5,0,0.7,0
			c8.6,0.3,16.8,5.6,20.6,13.3C-209.2,269.3-209.4,277.7-213,285.5z M-108.6,285.5c-3,6.4-8.3,12.5-15.7,18c-3.5,2.6-7.3,5-11.3,7
			c-2.4,1.2-5.1,1.9-7.8,1.9s-5.4-0.7-7.8-1.9c-4-2-7.8-4.4-11.3-7c-7.4-5.5-12.7-11.6-15.7-18c-3.6-7.8-3.8-16.2-0.5-23
			c3.7-7.6,12-13,20.6-13.3c0.2,0,0.5,0,0.7,0c5.1,0,10.4,2,14.1,5.3c3.7-3.3,9-5.3,14.1-5.3c0.2,0,0.5,0,0.7,0
			c8.6,0.3,16.8,5.6,20.6,13.3c0.7,1.4,1.2,2.8,1.6,4.3c0.6,2.5,0.9,5.1,0.7,7.8C-106,278.2-107,281.9-108.6,285.5z"/>
	</g>
</g>
</svg>
