<?xml version="1.0" encoding="utf-8"?>
<!-- Generator: Adobe Illustrator 19.0.0, SVG Export Plug-In . SVG Version: 6.00 Build 0)  -->
<svg version="1.1" id="Layer_1" xmlns="http://www.w3.org/2000/svg" xmlns:xlink="http://www.w3.org/1999/xlink" x="0px" y="0px"
	 viewBox="-342 226.5 274.3 109.5" enable-background="new -342 226.5 274.3 109.5" xml:space="preserve">
<g id="XMLID_5581_">
	<g id="XMLID_5275_">
		<g>
			<path id="XMLID_5278_" fill="#EF7B05" d="M-107.7,254.5h-20.7c-1.8-0.1-3.7-0.2-5.6-0.2c-2.1,0-4.3,0-6.6,0.1h-0.4
				c-0.2,0-0.8,0-1.8,0.1h-0.8l0,0c-6.8,0.2-24.9,1-35.3,3.1c-1.9,0.3-10.7,1.9-17.1,2.6c-6.8,0.8-11.5,0.9-12,0.9l0,0h-0.1
				c0,0,0,0-0.1,0l0,0c-0.5,0-5.2-0.1-12-0.9c-6.4-0.7-15.2-2.3-17.1-2.6c-10.4-2-28.5-2.8-35.3-3.1l0,0h-0.8c-1,0-1.7,0-1.8-0.1
				h-0.4c-2.3,0-4.5-0.1-6.6-0.1c-1.9,0-3.8,0-5.6,0.2h-20.8c-1,0-1.9,0.9-1.9,2v6.6c0,1.2,0.5,2.4,1.3,3.3c1.3,1.4,3.4,4.2,4.7,9.6
				h1.2c2.5,9.2,8.2,21.6,17,28.8c0.3,0.3,0.7,0.5,1,0.8h0.1h0.1c6.7,5.6,17.6,8.4,32.6,8.4c2.9,0,5.9-0.1,9-0.3
				c7.7-0.5,13.7-4.5,17.9-11.7c0.2-0.4,0.4-0.7,0.6-1.1l0,0c0.1-0.1,0.2-0.3,0.2-0.5c1.7-3.5,3.4-7.4,4.8-11l1,0.5
				c1.5-3.9,2.6-7.4,3.2-9.8c1-4.6,1.9-6.1,3.2-6.3l0,0c1.4-0.2,2.9-0.4,4.4-0.4s2.9,0.1,4.4,0.4l0,0c1.3,0.2,2.2,1.7,3.2,6.3
				c0.5,2.4,1.7,5.9,3.2,9.8l1-0.5c1.4,3.6,3.1,7.6,4.8,11c0.1,0.2,0.2,0.3,0.2,0.5l0,0c0.2,0.3,0.4,0.7,0.6,1.1
				c4.2,7.2,10.2,11.2,17.9,11.7c3.1,0.2,6.1,0.3,9,0.3c15,0,25.9-2.8,32.6-8.4h0.1h0.1c0.4-0.2,0.7-0.5,1-0.8
				c8.8-7.3,14.5-19.6,17-28.8h1.2c1.4-5.4,3.4-8.3,4.7-9.6c0.8-0.9,1.3-2.1,1.3-3.3v-6.6C-105.8,255.4-106.6,254.5-107.7,254.5z"/>
		</g>
	</g>
	<path id="XMLID_4595_" fill="#EF7B05" d="M-107.7,254.5h-20.7c-1.8-0.1-3.7-0.2-5.6-0.2c-2.1,0-4.3,0-6.6,0.1h-0.4
		c-0.2,0-0.8,0-1.8,0.1h-0.8l0,0c-6.8,0.2-24.9,1-35.3,3.1c-1.9,0.3-10.7,1.9-17.1,2.6c-6.8,0.8-11.5,0.9-12,0.9l0,0h-0.1
		c0,0,0,0-0.1,0l0,0c-0.5,0-5.2-0.1-12-0.9c-6.4-0.7-15.2-2.3-17.1-2.6c-10.4-2-28.5-2.8-35.3-3.1l0,0h-0.8c-1,0-1.7,0-1.8-0.1h-0.4
		c-2.3,0-4.5-0.1-6.6-0.1c-1.9,0-3.8,0-5.6,0.2h-20.8c-1,0-17.3,0.5-17.3,1.6l-1,5.5c0,1.2,16.9,3.9,17.8,4.8
		c1.3,1.4,3.4,4.2,4.7,9.6h1.2c2.5,9.2,8.2,21.6,17,28.8c0.3,0.3,0.7,0.5,1,0.8h0.1h0.1c6.7,5.6,17.6,8.4,32.6,8.4
		c2.9,0,5.9-0.1,9-0.3c7.7-0.5,13.7-4.5,17.9-11.7c0.2-0.4,0.4-0.7,0.6-1.1l0,0c0.1-0.1,0.2-0.3,0.2-0.5c1.7-3.5,3.4-7.4,4.8-11
		l1,0.5c1.5-3.9,2.6-7.4,3.2-9.8c1-4.6,1.9-6.1,3.2-6.3l0,0c1.4-0.2,2.9-0.4,4.4-0.4s2.9,0.1,4.4,0.4l0,0c1.3,0.2,2.2,1.7,3.2,6.3
		c0.5,2.4,1.7,5.9,3.2,9.8l1-0.5c1.4,3.6,3.1,7.6,4.8,11c0.1,0.2,0.2,0.3,0.2,0.5l0,0c0.2,0.3,0.4,0.7,0.6,1.1
		c4.2,7.2,10.2,11.2,17.9,11.7c3.1,0.2,6.1,0.3,9,0.3c15,0,25.9-2.8,32.6-8.4h0.1h0.1c0.4-0.2,0.7-0.5,1-0.8
		c8.8-7.3,14.5-19.6,17-28.8h1.2c1.4-5.4,3.4-8.3,4.7-9.6c0.8-0.9,18.8-4.2,18.8-5.4v-5.6C-88.3,254.2-106.6,254.5-107.7,254.5z
		 M-243.6,312.2c-3.1,0.2-6.1,0.3-8.9,0.3c-11.2,0-26.1-1.7-33.7-9.9c-7.8-8.4-12.2-16.7-14.1-27c0.6-0.4,0.9-1.2,0.8-2
		c-0.1-0.9-0.3-1.9-0.4-2.9c-1.4-13.1,8.6-12.8,24.5-12.4c0,0,30.9,0.8,41.2,4c10.2,3.2,14.8,4.1,12.6,18.2c-0.3,1.8-0.6,3.6-1,5.4
		c-0.2,0.9,0.1,1.8,0.6,2.4C-224.7,300.1-230.2,311.2-243.6,312.2z M-130.1,302.6c-7.6,8.2-22.5,9.9-33.7,9.9
		c-2.9,0-5.9-0.1-8.9-0.3c-13.4-0.9-18.9-12.1-21.7-23.9c0.6-0.6,0.8-1.5,0.6-2.4c-0.4-1.8-0.7-3.6-1-5.4
		c-2.2-14.1,2.3-14.9,12.6-18.2c10.2-3.2,41.2-4,41.2-4c15.9-0.3,25.9-0.6,24.5,12.4c-0.1,1-0.2,1.9-0.4,2.9c-0.1,0.8,0.2,1.6,0.8,2
		C-117.9,285.9-122.2,294.2-130.1,302.6z"/>
	<g id="XMLID_4541_">
		<path id="XMLID_4594_" fill="#EF7B05" d="M-253.7,255.5c0.8,0.1,1.7,0.1,2.5,0.2C-252,255.7-252.9,255.6-253.7,255.5z"/>
		<path id="XMLID_4593_" fill="#EF7B05" d="M-251.2,255.7c1.3,0.1,2.5,0.2,3.8,0.4C-248.7,256-249.9,255.9-251.2,255.7z"/>
		<path id="XMLID_4592_" fill="#EF7B05" d="M-236.5,257.7c0.2,0,0.4,0.1,0.6,0.1C-236.1,257.7-236.3,257.7-236.5,257.7z"/>
		<path id="XMLID_4591_" fill="#EF7B05" d="M-233.2,258.3c0.3,0.1,0.7,0.1,1.1,0.2C-232.5,258.4-232.9,258.3-233.2,258.3z"/>
		<path id="XMLID_4590_" fill="#EF7B05" d="M-234.7,258c0.4,0.1,0.9,0.2,1.5,0.2C-233.7,258.2-234.2,258.1-234.7,258z"/>
		<path id="XMLID_4589_" fill="#EF7B05" d="M-232.1,258.4c1.1,0.2,2.3,0.4,3.6,0.6C-229.8,258.8-231,258.6-232.1,258.4z"/>
		<path id="XMLID_4588_" fill="#EF7B05" d="M-279.1,254.3c1.1,0,2.2,0,3.4,0.1C-276.8,254.4-278,254.3-279.1,254.3z"/>
		<path id="XMLID_4587_" fill="#EF7B05" d="M-235.9,257.8c0.2,0,0.5,0.1,0.8,0.1C-235.4,257.9-235.6,257.8-235.9,257.8z"/>
		<path id="XMLID_4586_" fill="#EF7B05" d="M-286.5,254.4c-0.5,0-0.9,0-1.4,0.1l0,0C-287.4,254.4-286.9,254.4-286.5,254.4z"/>
		<path id="XMLID_4585_" fill="#EF7B05" d="M-280.7,254.3c-0.5,0-1.1,0-1.6,0l0,0C-281.7,254.3-281.2,254.3-280.7,254.3z"/>
		<path id="XMLID_4584_" fill="#EF7B05" d="M-257.5,255.3c0.8,0.1,1.7,0.1,2.5,0.2C-255.8,255.4-256.6,255.3-257.5,255.3z"/>
		<path id="XMLID_4583_" fill="#EF7B05" d="M-236.5,257.7c-0.3-0.1-0.5-0.1-0.7-0.1c-2.9-0.6-6.5-1.1-10.2-1.4
			c3.7,0.4,7.3,0.9,10.2,1.4C-237.1,257.6-236.8,257.6-236.5,257.7z"/>
		<path id="XMLID_4582_" fill="#EF7B05" d="M-168.8,256.1c1.2-0.1,2.5-0.3,3.8-0.4C-166.3,255.9-167.6,256-168.8,256.1z"/>
		<path id="XMLID_4581_" fill="#EF7B05" d="M-129.8,254.4c-1.4-0.1-2.8-0.1-4.2-0.1l0,0C-132.6,254.3-131.2,254.3-129.8,254.4z"/>
		<path id="XMLID_4580_" fill="#EF7B05" d="M-140.6,254.4c1.7,0,3.4-0.1,5-0.1C-137.2,254.3-138.8,254.4-140.6,254.4h-0.2H-140.6z"
			/>
		<path id="XMLID_4579_" fill="#EF7B05" d="M-141.6,254.4c-0.3,0-0.7,0-1.2,0l0,0C-142.3,254.4-141.9,254.4-141.6,254.4z"/>
		<path id="XMLID_4578_" fill="#EF7B05" d="M-141.6,254.4c0.2,0,0.3,0,0.4,0C-141.3,254.4-141.5,254.4-141.6,254.4z"/>
		<path id="XMLID_4577_" fill="#EF7B05" d="M-106.1,255.4c-0.3-0.5-0.9-0.9-1.6-0.9C-107,254.5-106.4,254.8-106.1,255.4z"/>
		<path id="XMLID_4576_" fill="#EF7B05" d="M-162.5,255.5c3-0.2,5.9-0.4,8.6-0.6C-156.7,255.1-159.6,255.3-162.5,255.5z"/>
		<path id="XMLID_4575_" fill="#EF7B05" d="M-208.1,261.1C-208.1,261.1-208.2,261.1-208.1,261.1
			C-208.2,261.1-208.1,261.1-208.1,261.1L-208.1,261.1z"/>
		<path id="XMLID_4574_" fill="#EF7B05" d="M-211.8,260.9c0.5,0,1,0.1,1.4,0.1C-210.8,261-211.3,260.9-211.8,260.9z"/>
		<path id="XMLID_4573_" fill="#EF7B05" d="M-208.1,261.1c0.1,0,0.2,0,0.4,0C-207.9,261-208,261-208.1,261.1L-208.1,261.1z"/>
		<path id="XMLID_4572_" fill="#EF7B05" d="M-165.1,255.7c0.8-0.1,1.7-0.1,2.5-0.2C-163.4,255.6-164.2,255.7-165.1,255.7z"/>
		<path id="XMLID_4571_" fill="#EF7B05" d="M-308.6,254.5c-0.3,0-0.5,0.1-0.7,0.2C-309.1,254.5-308.8,254.5-308.6,254.5
			L-308.6,254.5z"/>
		<path id="XMLID_4570_" fill="#EF7B05" d="M-217.7,260.4c1.6,0.2,3,0.3,4.2,0.4C-214.7,260.7-216.2,260.6-217.7,260.4z"/>
		<path id="XMLID_4569_" fill="#EF7B05" d="M-208.1,261L-208.1,261C-208.1,261-208.1,261.1-208.1,261
			C-208.1,261.1-208.1,261-208.1,261z"/>
		<path id="XMLID_4568_" fill="#EF7B05" d="M-155.7,313.8c-1.7,0.1-3.4,0.2-5.2,0.3C-159.2,314-157.4,314-155.7,313.8z"/>
		<path id="XMLID_4567_" fill="#EF7B05" d="M-183,310.5c-1.1-0.7-2.2-1.6-3.2-2.5C-185.2,308.9-184.2,309.7-183,310.5z"/>
		<path id="XMLID_4566_" fill="#EF7B05" d="M-150.9,313.3c-1.6,0.2-3.2,0.4-4.9,0.5C-154.1,313.7-152.4,313.5-150.9,313.3z"/>
		<path id="XMLID_4565_" fill="#EF7B05" d="M-190.8,301.8c0.1,0.1,0.1,0.2,0.2,0.3c1.3,2.3,2.8,4.2,4.5,5.8
			c-1.7-1.6-3.1-3.5-4.5-5.8C-190.7,302-190.8,301.9-190.8,301.8z"/>
		<path id="XMLID_4564_" fill="#EF7B05" d="M-192.2,299.2c-0.4-0.9-0.9-1.8-1.3-2.7C-193,297.4-192.6,298.3-192.2,299.2z"/>
		<path id="XMLID_4563_" fill="#EF7B05" d="M-191.2,301L-191.2,301c-0.1-0.2-0.2-0.3-0.3-0.5C-191.4,300.7-191.4,300.9-191.2,301
			L-191.2,301c0.1,0.1,0.1,0.2,0.2,0.3C-191.1,301.3-191.2,301.1-191.2,301z"/>
		<path id="XMLID_4562_" fill="#EF7B05" d="M-130,304.9c-0.2,0.1-0.3,0.3-0.5,0.4C-130.3,305.1-130.2,305-130,304.9
			c3.3-2.7,6.2-6.2,8.6-9.9C-123.8,298.7-126.7,302.1-130,304.9z"/>
		<path id="XMLID_4561_" fill="#EF7B05" d="M-108.5,268.1c-0.3,0.4-0.6,1-0.9,1.5C-109.1,269.1-108.8,268.6-108.5,268.1z"/>
		<path id="XMLID_4560_" fill="#EF7B05" d="M-111.8,276c0.7-2.7,1.5-4.8,2.4-6.3C-110.3,271.2-111.2,273.3-111.8,276L-111.8,276z"/>
		<polygon id="XMLID_4559_" fill="#EF7B05" points="-131.1,305.7 -131.1,305.7 -131.1,305.6 		"/>
		<path id="XMLID_4558_" fill="#EF7B05" d="M-310.4,256.1c0.1-0.3,0.1-0.5,0.3-0.7C-310.3,255.6-310.4,255.8-310.4,256.1z"/>
		<path id="XMLID_4557_" fill="#EF7B05" d="M-119.1,291.2c-0.7,1.3-1.5,2.6-2.3,3.8C-120.6,293.7-119.8,292.5-119.1,291.2z"/>
		<path id="XMLID_4556_" fill="#EF7B05" d="M-116.3,285.3c-0.8,1.9-1.8,3.9-2.9,5.8C-118.1,289.3-117.1,287.3-116.3,285.3z"/>
		<polygon id="XMLID_4555_" fill="#EF7B05" points="-197.3584,289.941 -196.3654,289.4676 -196.3654,289.4676 		"/>
		<path id="XMLID_4554_" fill="#EF7B05" d="M-225,301L-225,301c-0.1,0.2-0.2,0.4-0.3,0.6C-225.2,301.4-225.1,301.2-225,301L-225,301
			c0-0.1,0.1-0.2,0.1-0.2S-224.9,300.9-225,301z"/>
		<path id="XMLID_4553_" fill="#EF7B05" d="M-303.2,276c0.6,2.3,1.4,4.8,2.5,7.4C-301.8,280.8-302.6,278.3-303.2,276L-303.2,276z"/>
		<path id="XMLID_4552_" fill="#EF7B05" d="M-279.3,309.4c6.6,3.1,15.6,4.7,26.8,4.7l0,0C-263.7,314.1-272.7,312.5-279.3,309.4z"/>
		<path id="XMLID_4551_" fill="#EF7B05" d="M-285.2,305.6c-0.2-0.1-0.4-0.2-0.5-0.4C-285.6,305.4-285.4,305.5-285.2,305.6
			L-285.2,305.6L-285.2,305.6z"/>
		<path id="XMLID_4550_" fill="#EF7B05" d="M-299.1,287.3c-0.6-1.3-1.2-2.6-1.7-3.9C-300.3,284.7-299.7,286-299.1,287.3z"/>
		<path id="XMLID_4549_" fill="#EF7B05" d="M-310.5,263.1v-6.6c0-0.1,0-0.3,0-0.4c0,0.1,0,0.3,0,0.4V263.1c0,1.2,0.5,2.4,1.3,3.3
			c0.3,0.3,0.7,0.8,1.1,1.3c-0.4-0.5-0.8-1-1.1-1.3C-310,265.5-310.5,264.4-310.5,263.1z"/>
		<path id="XMLID_4548_" fill="#EF7B05" d="M-201.1,277.9c-0.1-0.4-0.2-0.8-0.4-1.2C-201.3,277.1-201.2,277.5-201.1,277.9z"/>
		<path id="XMLID_4547_" fill="#EF7B05" d="M-203.7,273.9c-0.7-0.1-1.5-0.2-2.2-0.3C-205.2,273.7-204.5,273.8-203.7,273.9
			L-203.7,273.9L-203.7,273.9z"/>
		<path id="XMLID_4546_" fill="#EF7B05" d="M-219.9,289.5c-0.5,1.4-1.1,2.8-1.7,4.2C-221,292.3-220.4,290.9-219.9,289.5
			L-219.9,289.5z"/>
		<path id="XMLID_4545_" fill="#EF7B05" d="M-201.4,276.7c-0.1-0.4-0.2-0.7-0.4-0.9C-201.7,276.1-201.6,276.4-201.4,276.7z"/>
		<path id="XMLID_4544_" fill="#EF7B05" d="M-208.1,273.5c-0.4,0-0.7,0-1.1,0C-208.9,273.5-208.5,273.5-208.1,273.5L-208.1,273.5z"
			/>
		<path id="XMLID_4543_" fill="#EF7B05" d="M-218.9,290c1.1-2.9,2-5.6,2.7-7.8C-216.8,284.4-217.8,287.1-218.9,290L-218.9,290z"/>
		<path id="XMLID_4542_" fill="#EF7B05" d="M-212.5,273.9L-212.5,273.9c0.4-0.1,0.7-0.1,1.1-0.2
			C-211.8,273.8-212.1,273.8-212.5,273.9L-212.5,273.9z"/>
	</g>
	<g id="XMLID_4539_">
		<g>
			<path id="XMLID_4540_" fill="#EDA36B" d="M-252.5,311.4c-11,0-25.6-1.7-32.9-9.5c-7.6-8.1-11.8-16.2-13.7-25.9
				c0.6-0.7,0.9-1.6,0.7-2.5c-0.1-0.9-0.3-1.9-0.4-2.8c-0.4-3.7,0.2-6.3,1.7-8c2.5-2.8,7.7-3.3,14.8-3.3c2,0,4.2,0,6.5,0.1h0.4
				c0.3,0,30.9,0.8,40.9,4l1.1,0.3c9.5,3,12.7,4,10.7,16.6c-0.3,2-0.6,3.7-1,5.4c-0.2,1,0,2,0.5,2.8c-3.6,14.7-10.1,21.8-20.6,22.6
				C-246.7,311.3-249.7,311.4-252.5,311.4z"/>
		</g>
	</g>
	<g id="XMLID_2277_">
		<g>
			<path id="XMLID_4532_" fill="#EDA36B" d="M-163.7,311.4c-2.8,0-5.8-0.1-8.9-0.3c-10.5-0.7-17-7.9-20.6-22.6
				c0.5-0.8,0.7-1.9,0.5-2.8c-0.3-1.7-0.7-3.4-1-5.4c-2-12.6,1.2-13.6,10.7-16.6l1.1-0.3c10-3.2,40.6-3.9,40.9-4h0.4
				c2.3,0,4.5-0.1,6.5-0.1c7.1,0,12.3,0.6,14.8,3.3c1.5,1.7,2.1,4.3,1.7,8c-0.1,1-0.2,1.9-0.4,2.8c-0.1,0.9,0.1,1.8,0.7,2.5
				c-1.9,9.8-6.1,17.8-13.7,25.9C-138.2,309.8-152.8,311.4-163.7,311.4z"/>
		</g>
	</g>
</g>
</svg>
