<?xml version="1.0" encoding="utf-8"?>
<!-- Generator: Adobe Illustrator 19.0.0, SVG Export Plug-In . SVG Version: 6.00 Build 0)  -->
<svg version="1.1" id="Layer_1" xmlns="http://www.w3.org/2000/svg" xmlns:xlink="http://www.w3.org/1999/xlink" x="0px" y="0px"
	 viewBox="0 0 321.2567 202.027" enable-background="new 0 0 321.2567 202.027" xml:space="preserve">
<g id="XMLID_1256_">
	<g id="XMLID_1439_">
		<path id="XMLID_1442_" fill="#71AEB6" d="M269.0657,56.3488c-4.0721-4.0725-18.879-24.5601-106.2035-23.4629
			C75.5374,31.7887,60.7312,52.2762,56.6583,56.3488c-10.8046,12.098-5.8025,69.2588,37.0375,91.4798
			c38.2074,16.6673,46.52-0.6179,53.086-10.6458c7.6621-11.7039,14.7614-11.6932,15.9861-11.5958v0.0207
			c0,0,0.0326-0.0069,0.0944-0.0122c0.0613,0.0053,0.095,0.0122,0.095,0.0122v-0.0207c1.2236-0.0974,8.3233-0.108,15.9861,11.5958
			c6.5657,10.0279,14.8775,27.3131,53.0853,10.6458C274.8694,125.6076,279.8707,68.4467,269.0657,56.3488z"/>
		<path id="XMLID_1441_" fill="#71AEB6" d="M47.9276,71.9565c-0.9736-0.2166-2.0083-0.2362-3.0467-0.0081
			c-3.8203,0.8402-6.2364,4.618-5.3965,8.4383l8.4732,38.56c0.8402,3.8218,4.6176,6.2383,8.4386,5.3973
			c1.7189-0.3771,3.1479-1.3509,4.1304-2.6541C50.1704,104.7053,46.7392,85.3409,47.9276,71.9565z"/>
		<path id="XMLID_1440_" fill="#71AEB6" d="M277.4542,71.9565c0.9736-0.2166,2.0082-0.2362,3.0471-0.0081
			c3.8195,0.8402,6.2357,4.618,5.3962,8.4383l-8.4732,38.56c-0.8399,3.8218-4.6176,6.2383-8.4387,5.3973
			c-1.7189-0.3771-3.1479-1.3509-4.1289-2.6541C275.2112,104.7053,278.6425,85.3409,277.4542,71.9565z"/>
	</g>
	<g id="XMLID_1391_">
		<path id="XMLID_1438_" fill="#3F5F6C" d="M214.7239,76.3406l-9.5415,6.4772l-29.8466-28.8833l-35.7664,37.8586l-29.5042-16.2195
			c-5.6645,5.2861-28.1151,19.3107-45.2316,29.8002c3.7505,8.8135,8.5682,16.648,12.8282,21.3132
			c19.9623,19.924,40.0539,17.1495,48.3435,14.4048c8.2896-2.7454,13.9758-14.5628,19.8558-22.5674
			c5.3796-8.0277,13.9034-9.5121,16.7301-9.7857c2.8313,0.2622,11.3539,1.7089,16.7677,9.7013
			c5.9187,7.9748,11.6652,19.7638,19.9682,22.4671c8.3045,2.704,28.4083,5.3766,48.2714-14.6486
			c4.0495-4.4804,8.5931-11.8588,12.2229-20.2138C242.6638,96.584,214.7239,76.3406,214.7239,76.3406z"/>
		<g id="XMLID_1395_">
			<path id="XMLID_1429_" fill="#FFFFFF" d="M151.1906,113.2145l-16.2766-2.2126l0.3362-3.2001c0,0-5.5825,2.9846-6.5385,3.0667
				c0.4481-1.4115,3.1843-5.3336,3.1843-5.3336l-15.9244,8.0016l15.3207-14.0982L151.1906,113.2145z"/>
			<path id="XMLID_1428_" fill="#FFFFFF" d="M196.2634,90.5948l-5.7737-9.4744l-7.3347,9.469c0,0,6.231-4.0227,7.3354-4.1346
				c-1.9205,3.5205-6.4998,12.4897-6.4998,12.4897L196.2634,90.5948z"/>
			<path id="XMLID_1427_" fill="#FFFFFF" d="M216.519,85.7273c-0.6697,1.2014-1.6019,2.1643-1.7568,3.7513
				c0.0016,0.0092,0.0016,0.0184,0.0034,0.0246c-0.0034,0.0843-0.0065,0.0858-0.008,0.0023
				c0.0015-0.0085,0.0038-0.0153,0.0046-0.0268c-0.7241-3.2062,0.7686-10.3507,0.7686-10.3507l0.0073-0.1364l-7.9561,5.7469
				l17.6812,16.2817C220.0936,95.1941,217.6595,89.7485,216.519,85.7273z"/>
			<g id="XMLID_1397_">
				<path id="XMLID_1398_" fill="#FFFFFF" d="M186.2485,80.4764c0,0-10.4753-22.2696-10.5896-22.0841l-27.2736,28.9979
					l8.6246-4.8399l-8.9075,14.8166c0,0,15.6552-14.3673,21.8755-18.1592c-3.8226,5.6833-6.7424,9.515-9.9413,15.5058
					c2.4718-3.0873,9.5783-7.5149,9.5783-7.5149l-0.3316,4.9741L186.2485,80.4764z"/>
			</g>
			<path id="XMLID_1396_" fill="#FFFFFF" d="M123.529,98.8372l-2.2444-3.0222l-0.0951,0.0444l-11.4858-16.3621
				c-7.1027,5.5277-28.9664,20.2614-28.9664,20.2614l13.41-4.777l-3.7455,5.3735l16.062-7.8484l-14.8495,18.3593l15.0537-7.363
				l1.3502,3.68L123.529,98.8372z"/>
		</g>
	</g>
	<g id="XMLID_1257_" opacity="0.3">
		<path id="XMLID_1390_" fill="#FFFFFF" d="M87.3229,134.4763l52.766-87.3222c-2.7443-0.35-5.7323-0.6218-9.17-0.7268
			c-0.3121-0.01-0.6114-0.0134-0.9196-0.0222l-49.8301,82.4646C82.5666,131.0356,84.9574,132.8962,87.3229,134.4763z"/>
		<path id="XMLID_1346_" fill="#FFFFFF" d="M246.6109,52.6642l-51.5938,85.3855c1.5047,1.196,3.0905,2.1275,4.7836,2.6788
			c0.9261,0.302,2.0056,0.601,3.2077,0.8709l51.729-85.6048C252.3732,54.9067,249.6983,53.7678,246.6109,52.6642z"/>
		<path id="XMLID_1260_" fill="#FFFFFF" d="M122.5706,46.3292c-30.8414,0.2074-45.9768,7.207-55.5106,11.9312
			c-18.5758,12.1485-3.8076,50.1072,8.5376,65.8053L122.5706,46.3292z"/>
		<path id="XMLID_1258_" fill="#FFFFFF" d="M134.5225,134.7048l53.1401-87.9413c-9.2149,1.0082-15.3716,3.0449-24.9116,3.3799
			c-3.5691-0.1065-6.6623-0.4561-9.6235-0.9001l-54.8842,90.8281c12.1133,4.4267,22.5107,2.632,27.9149,0.8426
			C129.2609,139.8867,132.0006,137.5928,134.5225,134.7048z"/>
	</g>
</g>
</svg>
