<?xml version="1.0" encoding="utf-8"?>
<!-- Generator: Adobe Illustrator 19.0.0, SVG Export Plug-In . SVG Version: 6.00 Build 0)  -->
<svg version="1.1" id="Layer_1" xmlns="http://www.w3.org/2000/svg" xmlns:xlink="http://www.w3.org/1999/xlink" x="0px" y="0px"
	 viewBox="0 0 254.79453 99.31507" style="enable-background:new 0 0 254.79453 99.31507;" xml:space="preserve">
<style type="text/css">
	.st0{fill-rule:evenodd;clip-rule:evenodd;fill:#EF7B05;}
</style>
<path id="XMLID_1418_" class="st0" d="M250.32877,24.04452l-18.87444,3.65527c-0.89697-7.34082-3.59932-14.36035-11.08516-17.1709
	c-10.56592-3.96826-26.10435-1.43506-36.95641,0.24609c-12.61768,1.9541-24.73187,6.36621-35.94135,11.80664
	c-12.38525,6.00977-22.52388,10.55762-35.99507,3.85107c-11.20215-5.57666-21.83006-11.3418-34.41649-14.16406
	C64.22734,9.39022,48.7315,7.28134,35.54595,9.45272c-10.74512,1.77002-14.0605,11.6709-15.00923,20.40039L5.32877,27.04452v9.30664
	l14.67635,3.08154c-0.56738,18.63574,1.4036,41.7998,22.49833,48.91748c12.09863,4.08105,26.04018,4.24609,38.70913,2.53955
	c13.09814-1.76514,18.93757-10.39844,25.21931-19.84326c4.49463-6.75977,7.74369-21.57177,17.63139-23.45214
	c8.43018-1.60254,12.93361,7.84375,15.51125,13.29541c4.32178,9.13964,11.89381,23.68994,22.81862,27.90625
	c11.32227,4.36963,24.52307,3.53516,36.41809,1.90186c9.82178-1.34814,21.42413-4.63623,26.15997-13.19336
	c5.9043-10.66943,7.09431-24.67871,7.04695-36.35644c0.00146,0.40137,0.31062,0.76758,0.31062,1.11279
	c0-0.05957,0-0.12158,0-0.18164c0-0.36816-0.30998-0.93359-0.31047-0.98926c0,0.00879-0.15157,0.21777-0.15059,0.55078
	c0.00098-0.9668,0.10504-1.99219,0.11139-3.05908l18.34967-4.0542V24.04452z"/>
</svg>
