<?xml version="1.0" encoding="utf-8"?>
<!-- Generator: Adobe Illustrator 19.0.0, SVG Export Plug-In . SVG Version: 6.00 Build 0)  -->
<svg version="1.1" id="Layer_1" xmlns="http://www.w3.org/2000/svg" xmlns:xlink="http://www.w3.org/1999/xlink" x="0px" y="0px"
	 viewBox="-312 206 335 150" enable-background="new -312 206 335 150" xml:space="preserve">
<g id="XMLID_566_">
	<path id="XMLID_573_" fill="#EF7B05" d="M-113.4,299.25c-2-0.6-3.7-1.4-5.2-2.1C-117.2,297.85-115.4,298.65-113.4,299.25
		c2,0.7,4.2,1.3,6.4,1.8C-109.3,300.55-111.5,299.85-113.4,299.25z M-22,269.45c0-0.2-15.1-0.6-15.1-0.7c0,0,0-1.8,0-2.2
		c0-0.3-1.1-1.4-1.7-1.8c-0.6-0.4-1.5-1.3-2.9-0.9c-1.4,0.4-1.4,0.6-1.5,1.5s-0.2,2.8-0.2,2.8s-1.9-0.1-2.1-0.3
		c-0.2-0.2-2.5-5.3-13.8-7.7c0,0-5.7-1.6-27.6-1.6c0,0-24.5,1-36.7,5.4c-6.7,2.4-7.3,4.9-7.3,4.9s-6.8-0.7-15-0.7
		c-8.1,0-15,0.7-15,0.7s-0.6-2.5-7.3-4.9c-12.3-4.4-36.7-5.4-36.7-5.4c-21.9,0-27.6,1.6-27.6,1.6c-11.3,2.4-13.6,7.5-13.8,7.7
		s-2.1,0.3-2.1,0.3s0-1.9-0.2-2.8c-0.1-0.9,0-1-1.4-1.5c-1.1-0.4-1.6,0.4-2.1,0.9c-0.5,0.4-1,1.5-1,1.8s0,2.2,0,2.2
		c-1,0.1-22,0.5-22,0.7v6.2c0,0.3,21.4,0.5,21.4,0.5s0,1.1,0,1.7s1.5,2.1,1.6,2.2c0.1,0.1,2.3,0.4,3.2,0.1c0.9-0.3,0.6-2.8,0.6-2.8
		c0.7,0.2,2,0.2,2,0.2c-0.1,2.5,1.9,8.6,2.1,9c0.3,0.4,1.7-0.5,1.9-0.6c1.4,4.1,3.8,9.4,7.2,11.6c5.4,3.6,13.7,4.9,18.9,5.3
		c-5.1-0.5-13.4-1.8-18.8-5.3c-3.4-2.3-5.8-7.5-7.2-11.6c0-0.1,0-0.7-0.8-2.6c-1-2.5-2-10.7-1.7-12.8s1.1-5.1,9.6-7.4
		c8.4-2.4,23.9-2.4,23.9-2.4c22.4-0.3,38.4,4,40.6,4.7c2.2,0.6,8.6,1.2,8.7,7.6c0,1.8-0.3,3.9-0.9,5.9l0,0c-0.7-0.2-3.2-1-4.6,1.8
		c-1.2,2.4,1.7,4.1,2.5,4.5c-1,2.5-1.9,4.3-1.9,4.3c-0.2,0.3-0.1,0.4,0,0.6c-1,2.1-2.3,4.3-3.7,5.3c-1.6,1.2-4.2,2.5-7.4,3.5
		c-3.6,1.2-7.8,2.3-12.1,2.7c-6.4,0.7-10.1,1.1-14.5,1.3c4.5-0.2,8.1-0.6,14.5-1.2c4.3-0.5,8.5-1.4,12.1-2.6c3.2-1,5.8-2.3,7.4-3.6
		c1.4-1.1,2.7-3.3,3.7-5.3c0.2,0.2,0.5,0.4,0.7,0.5c0.3,0.3,0.7,0.2,1.4-0.6c0.7-0.8,1.5-3.6,1.5-3.6s0.2,0,0.7-0.7
		c0.6-0.7,2.7-8,2.8-8.5c0,0-0.1-2.6-0.1-3.2s-0.8-1.9,3.6-2.4c4.4-0.5,5.3-0.5,10.6-0.5s6.2,0,10.6,0.5s3.6,1.8,3.6,2.4
		s-0.1,3.2-0.1,3.2c0.1,0.6,2.3,7.8,2.8,8.5s0.7,0.7,0.7,0.7s0.8,2.8,1.5,3.5c0.7,0.8,1,1,1.4,0.6c0.2-0.2,0.5-0.3,0.7-0.6
		c1,2.1,2.3,4.3,3.7,5.3c0.4,0.3,0.9,0.6,1.4,1c-0.5-0.3-1-0.6-1.4-0.9c-1.4-1.1-2.7-3.3-3.7-5.4c0.1-0.2,0.1-0.4,0-0.6
		c0,0-0.9-1.8-1.9-4.3c0.8-0.4,3.7-2.1,2.5-4.5c-1.4-2.8-3.9-2-4.6-1.8l0,0c-0.5-2.1-0.9-4.1-0.9-5.9c0.1-6.4,6.5-7,8.7-7.6
		s18.2-4.9,40.6-4.7c0,0,15.5,0,24,2.4c8.4,2.4,9.3,5.4,9.6,7.4c0.3,2.1-0.7,10.2-1.7,12.7c-0.8,1.9-0.8,2.4-0.8,2.5
		c-1.4,4.1-3.8,9.4-7.2,11.7c-5.4,3.6-13.7,4.9-18.8,5.3c5.2-0.4,13.4-1.7,18.9-5.3c3.4-2.3,5.8-7.4,7.2-11.5c0.2,0.1,1.6,1,1.9,0.6
		c0.3-0.5,2.2-6.5,2.1-9.1c0,0,1.2-0.1,1.9-0.2c0,0-0.3,2.5,0.7,2.8c0.9,0.3,3,0,3.2-0.1c0.1-0.1,1.5-1.6,1.6-2.2c0-0.6,0-1.7,0-1.7
		s15.5-0.2,15.5-0.5C-22.3,275.25-22,269.65-22,269.45z M-75.2,303.05c-1.2,0.1-2.2,0.2-3,0.2C-77.4,303.25-76.4,303.15-75.2,303.05
		z M-107,300.95c1.8,0.4,3.8,0.7,5.7,1c6.4,0.7,10.1,1.1,14.5,1.2c-4.5-0.2-8.1-0.6-14.5-1.3C-103.3,301.65-105.2,301.35-107,300.95
		z M-216.3,303.05c1.2,0.1,2.2,0.2,3,0.2C-214.1,303.25-215.1,303.15-216.3,303.05z"/>
	<path id="XMLID_584_" fill="#EDA36B" d="M-48.4,283.55c-0.8,1.9-0.8,2.4-0.8,2.5c-1.4,4.1-3.8,9.4-7.2,11.7
		c-5.4,3.6-13.7,4.9-18.8,5.3c-1.2,0.1-2.2,0.2-3,0.2c-0.3,0-0.6,0.1-0.8,0.1c-0.3,0-0.6,0.1-0.8,0.1c-0.1,0-0.1,0-0.1,0
		c-1.9,0-3.5-0.1-5.1-0.1c-0.6,0-1.3-0.1-1.9-0.1c-4.5-0.2-8.1-0.6-14.5-1.3c-1.9-0.2-3.9-0.5-5.7-0.9c-2.3-0.5-4.4-1.1-6.4-1.8
		c-2-0.6-3.7-1.4-5.2-2.1c-0.3-0.2-0.6-0.3-0.8-0.5c-0.5-0.3-1-0.6-1.4-0.9c-1.4-1.1-2.7-3.3-3.7-5.4c0.1-0.2,0.1-0.4,0-0.6
		c0,0-0.9-1.8-1.9-4.3c0.8-0.4,3.7-2.1,2.5-4.5c-1.4-2.8-3.9-2-4.6-1.8l0,0c-0.5-2.1-0.9-4.1-0.9-5.9c0.1-6.4,6.5-7,8.7-7.6
		s18.2-4.9,40.6-4.7c0,0,15.5,0,24,2.4c8.4,2.4,9.3,5.4,9.6,7.4C-46.4,272.85-47.4,281.05-48.4,283.55z"/>
	<path id="XMLID_587_" fill="#EDA36B" d="M-162,273.25c0,1.8-0.3,3.9-0.9,5.9l0,0c-0.7-0.2-3.2-1-4.6,1.8c-1.2,2.4,1.7,4.1,2.5,4.5
		c-1,2.5-1.9,4.3-1.9,4.3c-0.2,0.3-0.1,0.4,0,0.6c-1,2.1-2.3,4.3-3.7,5.3c-1.6,1.2-4.2,2.5-7.4,3.5c-3.6,1.2-7.8,2.3-12.1,2.8
		c-9.4,1-12.8,1.5-21.5,1.5c0,0,0,0-0.1,0c-1.6,0-15.5-0.4-23.3-5.7c-3.4-2.3-5.8-7.5-7.2-11.6c0-0.1,0-0.7-0.8-2.6
		c-1-2.5-2-10.7-1.7-12.8s1.1-5,9.6-7.4c8.4-2.4,23.9-2.4,23.9-2.4c22.4-0.3,38.4,4,40.6,4.7C-168.5,266.25-162.1,266.75-162,273.25
		z"/>
</g>
</svg>
