<?xml version="1.0" encoding="utf-8"?>
<!-- Generator: Adobe Illustrator 19.0.0, SVG Export Plug-In . SVG Version: 6.00 Build 0)  -->
<svg version="1.1" id="Layer_1" xmlns="http://www.w3.org/2000/svg" xmlns:xlink="http://www.w3.org/1999/xlink" x="0px" y="0px"
	 viewBox="-348 225.5 262.8 111.5" enable-background="new -348 225.5 262.8 111.5" xml:space="preserve">
<path id="XMLID_682_" fill="#EF7B05" d="M-111.4,257.2c-35.3,0-74,2.1-86.6,4.5c-6,1.1-7.7,1.4-10.3,1.7c-1.8,0.2-4.7,0.2-7.3,0.4
	c-2.6-0.2-5.4-0.2-7.2-0.4c-2.6-0.3-4.3-0.6-10.3-1.7c-12.7-2.3-51.3-4.5-86.6-4.5c-0.2,0-17.4,0.5-17.6,0.6
	c-2.5,1.4-4.2,9.8-0.7,11.7c0.3,0.2,17.8,1.8,18.2,1.8c0.3,0,0.7,0,1.4,0c0.2,0,0.4,0,0.6,0c1.3,0,2.4,1,2.5,2.3l1.7,17.7
	c0.8,7.9,6.6,13.8,13.5,13.8h60.1c6.8,0,12.2-6.1,14.4-13.6c1.1-3.7,2.6-11.9,5.9-14c1.7-1.1,6.3-1.1,8,0c3.3,2.1,4.8,10.2,5.9,14
	c2.2,7.5,7.6,13.6,14.4,13.6h60.1c6.9,0,12.7-6,13.5-13.8l1.7-17.7c0.1-1.3,1.2-2.3,2.5-2.3c0.2,0,0.4,0,0.6,0c0.7,0,1.1,0,1.4,0
	c0.5,0,15.9-2.2,16.2-2.5c3.3-2,1.5-7.8-0.9-9.4C-96.2,259.4-111.2,257.2-111.4,257.2z"/>
<path id="XMLID_681_" fill="#FFFFFF" d="M-300.1,302.1c-5.4,0-9.9-4.8-10.5-11.1l-2.1-21.3c-0.2-2,0.3-3.8,1.6-5.2
	c1.3-1.5,3.3-2.4,5.5-2.5c7.2-0.3,13.7-0.4,19.7-0.4c20.9,0,34.9,1.8,52.5,4.4c4,0.6,6.5,3.5,6.1,7l-2.1,18.3
	c-0.7,6.2-5.2,10.9-10.5,10.9h-60.2V302.1z"/>
<path id="XMLID_680_" fill="#FFFFFF" d="M-191.3,302.1c-5.3,0-9.8-4.7-10.5-10.9l-2.1-18.3c-0.4-3.5,2.2-6.5,6.1-7.1
	c17.6-2.6,31.6-4.4,52.5-4.4c6,0,12.4,0.1,19.7,0.4c2.2,0.1,4.2,1,5.5,2.5c1.2,1.4,1.8,3.2,1.6,5.2l-2.1,21.3
	c-0.6,6.3-5.2,11.1-10.5,11.1h-60.2V302.1z"/>
</svg>
