<?xml version="1.0" encoding="utf-8"?>
<!-- Generator: Adobe Illustrator 19.0.0, SVG Export Plug-In . SVG Version: 6.00 Build 0)  -->
<svg version="1.1" id="Layer_1" xmlns="http://www.w3.org/2000/svg" xmlns:xlink="http://www.w3.org/1999/xlink" x="0px" y="0px"
	 viewBox="-326 174.5 306.1 213.5" enable-background="new -326 174.5 306.1 213.5" xml:space="preserve">
<g id="XMLID_305_">
	<g id="XMLID_14081_">
		<path id="XMLID_99_" fill="#FFFFFF" d="M-230.6039,191.55c-0.5,2.9-1.1,5.7-1.8,8.5l-1,4.2c-0.3,1.4-0.7,2.8-1.1,4.2
			c-0.7,2.8-1.5,5.6-2.3,8.4l-1.1,4.2c-0.4,1.4-0.9,2.8-1.4,4.2l-2.3-2.8c2.5-0.7,5-1.3,7.4-2.1c0.6-0.2,1.2-0.4,1.7-0.6
			c0.6-0.2,1.1-0.4,1.7-0.7c1.1-0.5,2.2-1,3.4-1.6l6.1-3.3l-2.7,6.4c-0.6,1.3-1.1,2.7-1.7,4l-1.6,4.1c-1.1,2.8-2.2,5.5-3.4,8.3
			c-0.6,1.4-1.2,2.7-1.9,4.1c-0.6,1.4-1.3,2.7-2,4.1c-0.7,1.3-1.4,2.7-2.2,4s-1.6,2.6-2.5,3.8c0.5-1.4,0.9-2.9,1.3-4.3
			c0.4-1.4,0.9-2.8,1.3-4.3l2.4-8.6c0.8-2.9,1.7-5.7,2.6-8.6c0.9-2.8,1.9-5.7,3-8.5l3.5,3.1c-2.4,1.3-5,2.5-7.7,3.2
			c-1.3,0.4-2.7,0.7-4,0.9s-2.7,0.4-4,0.6l-3.8,0.5l1.5-3.3c0.5-1.2,1.1-2.6,1.6-3.9l1.5-4l3.1-8.1c0.5-1.4,1-2.7,1.6-4l1.6-4
			C-232.7039,196.95-231.7039,194.25-230.6039,191.55z"/>
	</g>
	<path id="XMLID_14065_" fill="#EF7B05" d="M-46.7039,323.45c-0.6-1.3-27.8-0.4-30.4-0.6c-2.7-0.3-4.5-5.1-4.5-5.1
		c-0.2-0.4-0.3-0.7-0.4-0.9c-5.6-15.5-20.5-26.6-37.9-26.6c-19.6,0-36,14-39.6,32.6c-0.2,0.2-0.5,0.3-1.1,0.1
		c-2.2-0.7-8.1-1.1-10.7-1.2l0,0h-0.3l0,0c-2.6,0-8.5,0.4-10.7,1.2c-0.6,0.2-0.9,0.1-1.1-0.1c-3.6-18.5-20-32.6-39.6-32.6
		c-17.4,0-32.3,11.1-37.9,26.6c-0.1,0.2-0.3,0.5-0.4,0.9c0,0-1.8,4.8-4.5,5.1s-32.9-0.6-33.4,0.6c-0.6,1.3,0.1,8.9,0.3,9.4
		c0.2,0.5,27.6,2.2,29.3,2.2c1.5,0,5.2,0.2,7.2,3.4c3.7,18.5,20,32.5,39.6,32.5c21.7,0,39.5-17.3,40.3-38.8c0.4-0.8,1.1-1.6,1.9-2
		c1.8-1,7.9-1.4,9.3-1.5c1.4,0,7.4,0.5,9.3,1.5c0.8,0.4,1.5,1.2,1.9,2c0.8,21.5,18.6,38.8,40.3,38.8c19.6,0,36-14,39.6-32.5
		c2-3.2,5.6-3.4,7.2-3.4c1.7,0,26.1-1.7,26.3-2.2C-46.8039,332.35-46.1039,324.75-46.7039,323.45z M-223.0039,366.05
		c-19.5,0-35.4-15.9-35.4-35.4s15.9-35.4,35.4-35.4s35.4,15.9,35.4,35.4S-203.5039,366.05-223.0039,366.05z M-120.0039,366.05
		c-19.5,0-35.4-15.9-35.4-35.4s15.9-35.4,35.4-35.4s35.4,15.9,35.4,35.4S-100.5039,366.05-120.0039,366.05z"/>
</g>
</svg>
