<?xml version="1.0" encoding="utf-8"?>
<!-- Generator: Adobe Illustrator 19.0.0, SVG Export Plug-In . SVG Version: 6.00 Build 0)  -->
<svg version="1.1" id="Layer_1" xmlns="http://www.w3.org/2000/svg" xmlns:xlink="http://www.w3.org/1999/xlink" x="0px" y="0px"
	 viewBox="-26 220 273 106" style="enable-background:new -26 220 273 106;" xml:space="preserve">
<style type="text/css">
	.st0{fill:#EF7B05;}
	.st1{fill:none;}
</style>
<g id="XMLID_9_">
	<path id="XMLID_14_" class="st0" d="M94.9,257.1c-2.1-5.1-5.2-9.4-9.1-13.3c-12.9-11.9-31.5-15.3-47.8-8.8c-5.1,2.1-9.3,5.2-13.3,9
		c-3.9,3.9-6.7,8.5-8.7,13.6v0c0,0-3.6,6.7-4,20c0.6,10,4.9,20.2,12.3,27.5c3.9,3.9,8.6,7,13.7,9.1c11,4.3,23.1,4.3,34.1,0
		c5.1-2.1,9.8-5.2,13.7-9c3.9-3.8,7-8.5,9.1-13.6c1.5-3.5,2.5-8,3-11c0.7-10.8-1.4-19-1.4-19C96.1,260.5,95.5,258.7,94.9,257.1z
		 M78.7,284.9c-1.2,3.1-3.1,5.9-5.4,8.2c-2.4,2.3-5.2,4.1-8.2,5.3c-6.5,2.6-13.8,2.6-20.3,0c-3.1-1.2-5.9-3-8.2-5.3
		c-2.3-2.3-4.2-5.1-5.4-8.2c-2.6-6.5-2.6-13.7,0-20.1c1.2-3.1,3.1-5.9,5.4-8.2c2.3-2.3,5.1-4.1,8.2-5.3c6.5-2.6,13.8-2.6,20.3,0
		c3.1,1.2,5.9,3,8.2,5.3c2.3,2.4,4.2,5.1,5.4,8.2c1.3,3.2,2,6.6,2,10C80.7,278.2,80,281.7,78.7,284.9z"/>
	<path id="XMLID_19_" class="st0" d="M190.8,257.5L190.8,257.5c-2-5.1-5.7-9.7-9.7-13.6c-3.9-3.6-8.7-6.5-13.7-8.5
		c-16.3-6.8-35.2-3.3-48,9c-4,3.8-7.4,7.7-9.7,12.7c-0.7,1.6-1.3,3.5-1.8,4.5c0,0-1.7,6.2-1,19c0.4,3,1.3,7.5,2.7,11
		c2.1,5.1,5.2,9.7,9.1,13.5c4,3.9,8.6,7,13.7,9.1c11,4.3,23.2,4.3,34.2,0c5.1-2.1,9.7-5.2,13.6-9c3.9-3.8,7.1-8.5,9.2-13.6
		c1.7-4.1,2.7-9.1,3.1-13c0-0.3,0.1-0.7,0.1-1l0-0.3C193.5,270.6,192.9,263.9,190.8,257.5L190.8,257.5z M173.4,284.9
		c-1.2,3.1-3.1,5.9-5.4,8.2c-2.4,2.3-5.2,4.1-8.2,5.3c-3.2,1.3-6.6,2-10.1,2c-6.8,0-13.3-2.6-18.2-7.3c-2.4-2.3-4.3-5.1-5.5-8.2
		c-2.6-6.5-2.6-13.7,0-20.1c1.2-3.1,3.1-5.9,5.5-8.2c2.3-2.3,5.1-4.1,8.2-5.3c3.2-1.3,6.7-1.9,10.1-1.8c3.5,0,6.9,0.6,10.1,2
		c3.1,1.2,5.9,3,8.2,5.3c2.3,2.3,4.2,5.1,5.4,8.2c1.3,3.1,1.9,6.5,1.9,9.9C175.4,278.2,174.7,281.7,173.4,284.9z"/>
</g>
<path id="XMLID_17_" class="st1" d="M215.7,276.8c-0.1,0.3-0.1,0.7-0.2,1"/>
<path id="XMLID_21_" class="st1" d="M119.3,260.8c0,0,2.1,8.2,1.4,19"/>
<path id="XMLID_20_" class="st1" d="M129.8,279.8c-0.7-12.8,1-19,1-19"/>
</svg>
