<?xml version="1.0" encoding="utf-8"?>
<!-- Generator: Adobe Illustrator 19.0.0, SVG Export Plug-In . SVG Version: 6.00 Build 0)  -->
<svg version="1.1" id="Layer_1" xmlns="http://www.w3.org/2000/svg" xmlns:xlink="http://www.w3.org/1999/xlink" x="0px" y="0px"
	 viewBox="-342 226.5 274.3 109.5" enable-background="new -342 226.5 274.3 109.5" xml:space="preserve">
<g id="XMLID_3437_">
	<path id="XMLID_3487_" fill="#EF7B05" d="M-85.8,262.2l-1.6-7.2c-0.1-1.1-19.2-1.4-20.2-1.8c-1.4-0.5-3.7-1.2-7.7-1.8
		c-18.6-2.8-29.6-3.8-29.6-3.8l0,0c-2.6-0.2-6-0.5-9.8-0.5c-5.2,0-9.9,0.4-14.2,1.2c-4.4,0.6-10.8,1.6-16.5,3
		c-2.1,0.5-4.3,0.9-6.5,1.3c-5.3,0.8-10.6,1.2-15.9,1.2c-5.3,0-10.6-0.4-15.9-1.2c-2.2-0.3-4.4-0.8-6.5-1.3
		c-5.7-1.4-12.1-2.4-16.5-3c-4.3-0.8-9-1.2-14.2-1.2c-3.8,0-7.3,0.2-9.8,0.5l0,0c0,0-11,1-29.6,3.8c-4,0.6-6.3,1.3-7.7,1.8
		c-1.1,0.4-27.6,0.1-27.7,1.2l-0.6,8c-0.1,1.2,25.8,3.1,26.8,3.8c0.9,0.7,1.9,1.9,2.4,3.9c0.3,1.6,0.9,4.5,1.4,7.9
		c0.1,0.6,0.6,1.1,1.2,1.1c0.4,2.8,0.9,5.8,1.4,8.6c0.4,2.5,0.8,5,1.1,7.1c0,0.2,0.1,0.4,0.2,0.6v0.1v0.1c1.2,6,3.1,11,5.4,14.1
		c5.2,7,13.7,10.6,25.5,10.6c3.8,0,8-0.4,12.6-1.1c12.4-2,23.2-9.2,30.5-20.2c0.8-1.1,1.9-3,3.1-5.2c0.5,0.3,1.2,0.1,1.4-0.5
		c3.7-7,8.1-16.7,9-19.8c0.5-1.5,1.4-2.5,2.4-3.2c2.4-1.6,5.6-1.6,7.9,0c1,0.7,2,1.7,2.4,3.2c0.9,3.1,5.4,12.8,9,19.8
		c0.3,0.5,0.9,0.7,1.4,0.5c1.2,2.2,2.3,4.1,3.1,5.2c7.2,11.1,18.1,18.3,30.5,20.2c4.6,0.7,8.8,1.1,12.6,1.1
		c11.8,0,20.4-3.6,25.5-10.6c2.3-3.1,4.2-8.1,5.4-14.1v-0.1v-0.1c0.1-0.2,0.1-0.4,0.2-0.6c0.3-2.1,0.7-4.5,1.1-7.1
		c0.5-2.8,0.9-5.8,1.4-8.6c0.6,0,1.1-0.4,1.2-1.1c0.6-3.4,1.1-6.4,1.4-7.9c0.4-2,1.5-3.2,2.4-3.9
		C-105.2,265.5-85.7,263.4-85.8,262.2z"/>
	<path id="XMLID_3478_" fill="#7F3905" d="M-120.5,308.9c-4.9,6.7-12.9,9.9-24.4,9.9c-3.7,0-7.9-0.3-12.4-1
		c-14-2.2-25.6-11.1-32.4-24.7c0.5-0.3,0.7-0.9,0.5-1.4c-0.8-1.7-1.5-3.4-2.2-5.1c-5.1-14-2.9-23.8,12.3-31.3
		c15.2-7.5,38.5-3.5,38.5-3.5s20,2.9,23.8,15.6c1,3.3,1.5,7.1,1.7,11.2c0,0.4,0.3,0.8,0.7,0.8h0.3
		C-113.6,290.3-116.1,303-120.5,308.9z"/>
	<path id="XMLID_3438_" fill="#7F3905" d="M-226.5,291.7c-0.3,0.5-0.1,1.2,0.5,1.4c-6.9,13.6-18.4,22.5-32.4,24.7
		c-4.5,0.7-8.6,1.1-12.4,1.1c-11.5,0-19.4-3.2-24.4-9.9c-4.4-5.9-6.8-18.6-6.5-29.6h0.3c0.4,0,0.7-0.4,0.7-0.8
		c0.2-4,0.7-7.9,1.7-11.2c3.8-12.7,23.8-15.6,23.8-15.6s23.3-4,38.5,3.5c15.2,7.5,17.4,17.3,12.3,31.3
		C-225,288.3-225.7,290-226.5,291.7z"/>
</g>
</svg>
