<?xml version="1.0" encoding="utf-8"?>
<!-- Generator: Adobe Illustrator 19.0.0, SVG Export Plug-In . SVG Version: 6.00 Build 0)  -->
<svg version="1.1" id="Layer_1" xmlns="http://www.w3.org/2000/svg" xmlns:xlink="http://www.w3.org/1999/xlink" x="0px" y="0px"
	 viewBox="-342 226.5 274.3 109.5" enable-background="new -342 226.5 274.3 109.5" xml:space="preserve">
<g id="XMLID_2107_">
	<g id="XMLID_5578_">
		<g>
			<path id="XMLID_5580_" fill="#EF7B05" d="M-106.8,254.6h-20.7c-1.8-0.1-3.7-0.2-5.6-0.2c-2.1,0-4.3,0-6.6,0.1h-0.4
				c-0.2,0-0.8,0-1.8,0.1h-0.8l0,0c-6.8,0.2-24.9,1-35.3,3.1c-1.9,0.3-10.7,1.9-17.1,2.6c-6.8,0.8-11.5,0.9-12,0.9l0,0h-0.1
				c0,0,0,0-0.1,0l0,0c-0.5,0-5.2-0.1-12-0.9c-6.4-0.7-15.2-2.3-17.1-2.6c-10.4-2-28.5-2.8-35.3-3.1l0,0h-0.8c-1,0-1.7,0-1.8-0.1
				h-0.4c-2.3,0-4.5-0.1-6.6-0.1c-1.9,0-3.8,0-5.6,0.2h-20.8c-1,0-1.9,0.9-1.9,2v6.6c0,1.2,0.5,2.4,1.3,3.3c1.3,1.4,3.4,4.2,4.7,9.6
				h1.2c2.5,9.2,8.2,21.6,17,28.8c0.3,0.3,0.7,0.5,1,0.8h0.1h0.1c6.7,5.6,17.6,8.4,32.6,8.4c2.9,0,5.9-0.1,9-0.3
				c7.7-0.5,13.7-4.5,17.9-11.7c0.2-0.4,0.4-0.7,0.6-1.1l0,0c0.1-0.1,0.2-0.3,0.2-0.5c1.7-3.5,3.4-7.4,4.8-11l1,0.5
				c1.5-3.9,2.6-7.4,3.2-9.8c1-4.6,1.9-6.1,3.2-6.3l0,0c1.4-0.2,2.9-0.4,4.4-0.4s2.9,0.1,4.4,0.4l0,0c1.3,0.2,2.2,1.7,3.2,6.3
				c0.5,2.4,1.7,5.9,3.2,9.8l1-0.5c1.4,3.6,3.1,7.6,4.8,11c0.1,0.2,0.2,0.3,0.2,0.5l0,0c0.2,0.3,0.4,0.7,0.6,1.1
				c4.2,7.2,10.2,11.2,17.9,11.7c3.1,0.2,6.1,0.3,9,0.3c15,0,25.9-2.8,32.6-8.4h0.1h0.1c0.4-0.2,0.7-0.5,1-0.8
				c8.8-7.3,14.5-19.6,17-28.8h1.2c1.4-5.4,3.4-8.3,4.7-9.6c0.8-0.9,1.3-2.1,1.3-3.3v-6.6C-104.9,255.5-105.8,254.6-106.8,254.6z"/>
		</g>
	</g>
	<path id="XMLID_5571_" fill="#EF7B05" d="M-106.8,254.6h-20.7c-1.8-0.1-3.7-0.2-5.6-0.2c-2.1,0-4.3,0-6.6,0.1h-0.4
		c-0.2,0-0.8,0-1.8,0.1h-0.8l0,0c-6.8,0.2-24.9,1-35.3,3.1c-1.9,0.3-10.7,1.9-17.1,2.6c-6.8,0.8-11.5,0.9-12,0.9l0,0h-0.1
		c0,0,0,0-0.1,0l0,0c-0.5,0-5.2-0.1-12-0.9c-6.4-0.7-15.2-2.3-17.1-2.6c-10.4-2-28.5-2.8-35.3-3.1l0,0h-0.8c-1,0-1.7,0-1.8-0.1h-0.4
		c-2.3,0-4.5-0.1-6.6-0.1c-1.9,0-3.8,0-5.6,0.2h-20.8c-1,0-17.3,0.5-17.3,1.6l-1,5.5c0,1.2,16.9,3.9,17.8,4.8
		c1.3,1.4,3.4,4.2,4.7,9.6h1.2c2.5,9.2,8.2,21.6,17,28.8c0.3,0.3,0.7,0.5,1,0.8h0.1h0.1c6.7,5.6,17.6,8.4,32.6,8.4
		c2.9,0,5.9-0.1,9-0.3c7.7-0.5,13.7-4.5,17.9-11.7c0.2-0.4,0.4-0.7,0.6-1.1l0,0c0.1-0.1,0.2-0.3,0.2-0.5c1.7-3.5,3.4-7.4,4.8-11
		l1,0.5c1.5-3.9,2.6-7.4,3.2-9.8c1-4.6,1.9-6.1,3.2-6.3l0,0c1.4-0.2,2.9-0.4,4.4-0.4s2.9,0.1,4.4,0.4l0,0c1.3,0.2,2.2,1.7,3.2,6.3
		c0.5,2.4,1.7,5.9,3.2,9.8l1-0.5c1.4,3.6,3.1,7.6,4.8,11c0.1,0.2,0.2,0.3,0.2,0.5l0,0c0.2,0.3,0.4,0.7,0.6,1.1
		c4.2,7.2,10.2,11.2,17.9,11.7c3.1,0.2,6.1,0.3,9,0.3c15,0,25.9-2.8,32.6-8.4h0.1h0.1c0.4-0.2,0.7-0.5,1-0.8
		c8.8-7.3,14.5-19.6,17-28.8h1.2c1.4-5.4,3.4-8.3,4.7-9.6c0.8-0.9,18.8-4.2,18.8-5.4v-5.6C-87.4,254.4-105.8,254.6-106.8,254.6z
		 M-242.7,312.3c-3.1,0.2-6.1,0.3-8.9,0.3c-11.2,0-26.1-1.7-33.7-9.9c-7.8-8.4-12.2-16.7-14.1-27c0.6-0.4,0.9-1.2,0.8-2
		c-0.1-0.9-0.3-1.9-0.4-2.9c-1.4-13.1,8.6-12.8,24.5-12.4c0,0,30.9,0.8,41.2,4c10.2,3.2,14.8,4.1,12.6,18.2c-0.3,1.8-0.6,3.6-1,5.4
		c-0.2,0.9,0.1,1.8,0.6,2.4C-223.8,300.2-229.3,311.4-242.7,312.3z M-129.2,302.8c-7.6,8.2-22.5,9.9-33.7,9.9
		c-2.9,0-5.9-0.1-8.9-0.3c-13.4-0.9-18.9-12.1-21.7-23.9c0.6-0.6,0.8-1.5,0.6-2.4c-0.4-1.8-0.7-3.6-1-5.4
		c-2.2-14.1,2.3-14.9,12.6-18.2c10.2-3.2,41.2-4,41.2-4c15.9-0.3,25.9-0.6,24.5,12.4c-0.1,1-0.2,1.9-0.4,2.9c-0.1,0.8,0.2,1.6,0.8,2
		C-117,286-121.4,294.3-129.2,302.8z"/>
	<g id="XMLID_5300_">
		<path id="XMLID_5569_" fill="#EF7B05" d="M-252.9,255.7c0.8,0.1,1.7,0.1,2.5,0.2C-251.2,255.8-252,255.7-252.9,255.7z"/>
		<path id="XMLID_5568_" fill="#EF7B05" d="M-250.3,255.9c1.3,0.1,2.5,0.2,3.8,0.4C-247.8,256.1-249.1,256-250.3,255.9z"/>
		<path id="XMLID_5566_" fill="#EF7B05" d="M-235.7,257.8c0.2,0,0.4,0.1,0.6,0.1C-235.3,257.9-235.5,257.8-235.7,257.8z"/>
		<path id="XMLID_5564_" fill="#EF7B05" d="M-232.4,258.4c0.3,0.1,0.7,0.1,1.1,0.2C-231.7,258.5-232,258.4-232.4,258.4z"/>
		<path id="XMLID_5496_" fill="#EF7B05" d="M-233.8,258.1c0.4,0.1,0.9,0.2,1.5,0.2C-232.9,258.3-233.4,258.2-233.8,258.1z"/>
		<path id="XMLID_5493_" fill="#EF7B05" d="M-231.3,258.6c1.1,0.2,2.3,0.4,3.6,0.6C-228.9,258.9-230.2,258.7-231.3,258.6z"/>
		<path id="XMLID_5490_" fill="#EF7B05" d="M-278.2,254.5c1.1,0,2.2,0,3.4,0.1C-276,254.5-277.1,254.5-278.2,254.5z"/>
		<path id="XMLID_5479_" fill="#EF7B05" d="M-235,257.9c0.2,0,0.5,0.1,0.8,0.1C-234.5,258-234.8,258-235,257.9z"/>
		<path id="XMLID_5476_" fill="#EF7B05" d="M-285.6,254.5c-0.5,0-0.9,0-1.4,0.1l0,0C-286.6,254.6-286.1,254.5-285.6,254.5z"/>
		<path id="XMLID_5470_" fill="#EF7B05" d="M-279.8,254.4c-0.5,0-1.1,0-1.6,0l0,0C-280.9,254.4-280.4,254.4-279.8,254.4z"/>
		<path id="XMLID_5455_" fill="#EF7B05" d="M-256.6,255.4c0.8,0.1,1.7,0.1,2.5,0.2C-255,255.5-255.8,255.4-256.6,255.4z"/>
		<path id="XMLID_5452_" fill="#EF7B05" d="M-235.7,257.8c-0.3-0.1-0.5-0.1-0.7-0.1c-2.9-0.6-6.5-1.1-10.2-1.4
			c3.7,0.4,7.3,0.9,10.2,1.4C-236.2,257.7-236,257.7-235.7,257.8z"/>
		<path id="XMLID_5441_" fill="#EF7B05" d="M-168,256.2c1.2-0.1,2.5-0.3,3.8-0.4C-165.5,256-166.7,256.1-168,256.2z"/>
		<path id="XMLID_5437_" fill="#EF7B05" d="M-128.9,254.5c-1.4-0.1-2.8-0.1-4.2-0.1l0,0C-131.7,254.4-130.3,254.4-128.9,254.5z"/>
		<path id="XMLID_5434_" fill="#EF7B05" d="M-139.7,254.5c1.7,0,3.4-0.1,5-0.1C-136.3,254.5-138,254.5-139.7,254.5h-0.2H-139.7z"/>
		<path id="XMLID_5430_" fill="#EF7B05" d="M-140.8,254.5c-0.3,0-0.7,0-1.2,0l0,0C-141.5,254.6-141.1,254.6-140.8,254.5z"/>
		<path id="XMLID_5428_" fill="#EF7B05" d="M-140.8,254.5c0.2,0,0.3,0,0.4,0C-140.5,254.5-140.6,254.5-140.8,254.5z"/>
		<path id="XMLID_5427_" fill="#EF7B05" d="M-105.3,255.5c-0.3-0.5-0.9-0.9-1.6-0.9C-106.2,254.6-105.6,254.9-105.3,255.5z"/>
		<path id="XMLID_5426_" fill="#EF7B05" d="M-161.7,255.7c3-0.2,5.9-0.4,8.6-0.6C-155.8,255.2-158.7,255.4-161.7,255.7z"/>
		<path id="XMLID_5425_" fill="#EF7B05" d="M-207.3,261.2L-207.3,261.2L-207.3,261.2L-207.3,261.2z"/>
		<path id="XMLID_5422_" fill="#EF7B05" d="M-211,261c0.5,0,1,0.1,1.4,0.1C-210,261.1-210.4,261.1-211,261z"/>
		<path id="XMLID_5417_" fill="#EF7B05" d="M-207.2,261.2c0.1,0,0.2,0,0.4,0C-207,261.2-207.1,261.2-207.2,261.2L-207.2,261.2z"/>
		<path id="XMLID_5415_" fill="#EF7B05" d="M-164.2,255.9c0.8-0.1,1.7-0.1,2.5-0.2C-162.5,255.7-163.4,255.8-164.2,255.9z"/>
		<path id="XMLID_5407_" fill="#EF7B05" d="M-307.7,254.6c-0.3,0-0.5,0.1-0.7,0.2C-308.2,254.6-308,254.6-307.7,254.6L-307.7,254.6z
			"/>
		<path id="XMLID_5406_" fill="#EF7B05" d="M-216.9,260.6c1.6,0.2,3,0.3,4.2,0.4C-213.9,260.8-215.3,260.7-216.9,260.6z"/>
		<path id="XMLID_5399_" fill="#EF7B05" d="M-207.2,261.2L-207.2,261.2L-207.2,261.2L-207.2,261.2z"/>
		<path id="XMLID_5395_" fill="#EF7B05" d="M-154.9,314c-1.7,0.1-3.4,0.2-5.2,0.3C-158.3,314.2-156.6,314.1-154.9,314z"/>
		<path id="XMLID_5388_" fill="#EF7B05" d="M-182.2,310.6c-1.1-0.7-2.2-1.6-3.2-2.5C-184.4,309-183.3,309.8-182.2,310.6z"/>
		<path id="XMLID_5387_" fill="#EF7B05" d="M-150,313.4c-1.6,0.2-3.2,0.4-4.9,0.5C-153.2,313.8-151.6,313.6-150,313.4z"/>
		<path id="XMLID_5384_" fill="#EF7B05" d="M-190,302c0.1,0.1,0.1,0.2,0.2,0.3c1.3,2.3,2.8,4.2,4.5,5.8c-1.7-1.6-3.1-3.5-4.5-5.8
			C-189.9,302.1-189.9,302-190,302z"/>
		<path id="XMLID_5383_" fill="#EF7B05" d="M-191.3,299.3c-0.4-0.9-0.9-1.8-1.3-2.7C-192.2,297.5-191.7,298.5-191.3,299.3z"/>
		<path id="XMLID_5382_" fill="#EF7B05" d="M-190.4,301.2L-190.4,301.2c-0.1-0.2-0.2-0.3-0.3-0.5
			C-190.6,300.8-190.5,301-190.4,301.2L-190.4,301.2c0.1,0.1,0.1,0.2,0.2,0.3C-190.3,301.4-190.3,301.3-190.4,301.2z"/>
		<path id="XMLID_5380_" fill="#EF7B05" d="M-129.2,305c-0.2,0.1-0.3,0.3-0.5,0.4C-129.5,305.3-129.3,305.1-129.2,305
			c3.3-2.7,6.2-6.2,8.6-9.9C-123,298.8-125.9,302.3-129.2,305z"/>
		<path id="XMLID_5377_" fill="#EF7B05" d="M-107.7,268.3c-0.3,0.4-0.6,1-0.9,1.5C-108.3,269.2-108,268.7-107.7,268.3z"/>
		<path id="XMLID_5368_" fill="#EF7B05" d="M-111,276.2c0.7-2.7,1.5-4.8,2.4-6.3C-109.4,271.4-110.3,273.4-111,276.2L-111,276.2z"/>
		<polygon id="XMLID_5367_" fill="#EF7B05" points="-130.3,305.8 -130.3,305.8 -130.2,305.8 		"/>
		<path id="XMLID_5366_" fill="#EF7B05" d="M-309.6,256.2c0.1-0.3,0.1-0.5,0.3-0.7C-309.4,255.7-309.5,255.9-309.6,256.2z"/>
		<path id="XMLID_5365_" fill="#EF7B05" d="M-118.3,291.3c-0.7,1.3-1.5,2.6-2.3,3.8C-119.8,293.9-119,292.6-118.3,291.3z"/>
		<path id="XMLID_5363_" fill="#EF7B05" d="M-115.4,285.5c-0.8,1.9-1.8,3.9-2.9,5.8C-117.2,289.4-116.3,287.4-115.4,285.5z"/>
		<polygon id="XMLID_5362_" fill="#EF7B05" points="-196.5213,290.1563 -195.5283,289.6829 -195.5283,289.6829 		"/>
		<path id="XMLID_5361_" fill="#EF7B05" d="M-224.1,301.1L-224.1,301.1c-0.1,0.2-0.2,0.4-0.3,0.6
			C-224.3,301.5-224.2,301.3-224.1,301.1L-224.1,301.1c0-0.1,0.1-0.2,0.1-0.2C-224,301-224.1,301.1-224.1,301.1z"/>
		<path id="XMLID_5360_" fill="#EF7B05" d="M-302.4,276.2c0.6,2.3,1.4,4.8,2.5,7.4C-300.9,281-301.8,278.5-302.4,276.2L-302.4,276.2
			z"/>
		<path id="XMLID_5359_" fill="#EF7B05" d="M-278.4,309.5c6.6,3.1,15.6,4.7,26.8,4.7l0,0C-262.9,314.3-271.9,312.7-278.4,309.5z"/>
		<path id="XMLID_5357_" fill="#EF7B05" d="M-284.3,305.8c-0.2-0.1-0.4-0.2-0.5-0.4C-284.7,305.5-284.5,305.6-284.3,305.8
			L-284.3,305.8L-284.3,305.8z"/>
		<path id="XMLID_5356_" fill="#EF7B05" d="M-298.2,287.4c-0.6-1.3-1.2-2.6-1.7-3.9C-299.4,284.8-298.9,286.1-298.2,287.4z"/>
		<path id="XMLID_5355_" fill="#EF7B05" d="M-309.6,263.2v-6.6c0-0.1,0-0.3,0-0.4c0,0.1,0,0.3,0,0.4V263.2c0,1.2,0.5,2.4,1.3,3.3
			c0.3,0.3,0.7,0.8,1.1,1.3c-0.4-0.5-0.8-1-1.1-1.3C-309.1,265.7-309.6,264.5-309.6,263.2z"/>
		<path id="XMLID_5354_" fill="#EF7B05" d="M-200.2,278c-0.1-0.4-0.2-0.8-0.4-1.2C-200.5,277.2-200.3,277.6-200.2,278z"/>
		<path id="XMLID_5322_" fill="#EF7B05" d="M-202.9,274c-0.7-0.1-1.5-0.2-2.2-0.3C-204.3,273.8-203.6,273.9-202.9,274L-202.9,274
			L-202.9,274z"/>
		<path id="XMLID_5320_" fill="#EF7B05" d="M-219.1,289.6c-0.5,1.4-1.1,2.8-1.7,4.2C-220.2,292.4-219.6,291-219.1,289.6
			L-219.1,289.6z"/>
		<path id="XMLID_5315_" fill="#EF7B05" d="M-200.6,276.8c-0.1-0.4-0.2-0.7-0.4-0.9C-200.8,276.2-200.7,276.5-200.6,276.8z"/>
		<path id="XMLID_5312_" fill="#EF7B05" d="M-207.3,273.7c-0.4,0-0.7,0-1.1,0C-208,273.7-207.6,273.7-207.3,273.7L-207.3,273.7z"/>
		<path id="XMLID_5309_" fill="#EF7B05" d="M-218,290.1c1.1-2.9,2-5.6,2.7-7.8C-216,284.5-216.9,287.2-218,290.1L-218,290.1z"/>
		<path id="XMLID_5305_" fill="#EF7B05" d="M-211.7,274L-211.7,274c0.4-0.1,0.7-0.1,1.1-0.2C-210.9,273.9-211.3,273.9-211.7,274
			L-211.7,274z"/>
	</g>
	<g id="XMLID_5285_">
		<g>
			<path id="XMLID_5289_" fill="#7F3905" d="M-251.7,311.6c-11,0-25.6-1.7-32.9-9.5c-7.6-8.1-11.8-16.2-13.7-25.9
				c0.6-0.7,0.9-1.6,0.7-2.5c-0.1-0.9-0.3-1.9-0.4-2.8c-0.4-3.7,0.2-6.3,1.7-8c2.5-2.8,7.7-3.3,14.8-3.3c2,0,4.2,0,6.5,0.1h0.4
				c0.3,0,30.9,0.8,40.9,4l1.1,0.3c9.5,3,12.7,4,10.7,16.6c-0.3,2-0.6,3.7-1,5.4c-0.2,1,0,2,0.5,2.8c-3.6,14.7-10.1,21.8-20.6,22.6
				C-245.8,311.5-248.8,311.6-251.7,311.6z"/>
		</g>
	</g>
	<g id="XMLID_5280_">
		<g>
			<path id="XMLID_5282_" fill="#7F3905" d="M-162.9,311.6c-2.8,0-5.8-0.1-8.9-0.3c-10.5-0.7-17-7.9-20.6-22.6
				c0.5-0.8,0.7-1.9,0.5-2.8c-0.3-1.7-0.7-3.4-1-5.4c-2-12.6,1.2-13.6,10.7-16.6l1.1-0.3c10-3.2,40.6-3.9,40.9-4h0.4
				c2.3,0,4.5-0.1,6.5-0.1c7.1,0,12.3,0.6,14.8,3.3c1.5,1.7,2.1,4.3,1.7,8c-0.1,1-0.2,1.9-0.4,2.8c-0.1,0.9,0.1,1.8,0.7,2.5
				c-1.9,9.8-6.1,17.8-13.7,25.9C-137.3,309.9-151.9,311.6-162.9,311.6z"/>
		</g>
	</g>
</g>
</svg>
