<?xml version="1.0" encoding="utf-8"?>
<!-- Generator: Adobe Illustrator 19.0.0, SVG Export Plug-In . SVG Version: 6.00 Build 0)  -->
<svg version="1.1" id="Layer_1" xmlns="http://www.w3.org/2000/svg" xmlns:xlink="http://www.w3.org/1999/xlink" x="0px" y="0px"
	 viewBox="-326 210.8 306.1 141.2" enable-background="new -326 210.8 306.1 141.2" xml:space="preserve">
<path id="XMLID_14052_" fill="#EF7B05" d="M-53.2,266.4c0-0.5-0.1-0.9-0.2-1.3c-0.1-0.6-22.5-1-23.1-1.2c-1.2-0.4-2.4-0.8-3.6-1.3
	c-1.5-0.6-2.9-1.3-4.3-2.1c-2.3-1.3-4.6-2.4-7-3.5c-2.7-1.3-5.5-2.5-8.3-3.6c-3.2-1.3-6.6-2.2-10-2.8c-2.2-0.4-4.5-0.6-6.8-0.8
	c-0.6-0.1-1.3,0-2-0.1c-1,0-2.1,0-3.1-0.1c-0.4-0.1-0.8-0.1-1.2,0c-0.9,0.1-1.8,0.1-2.7,0.1c-2.9,0-5.8,0.3-8.7,0.9
	c-2.5,0.4-5,1.1-7.4,1.7c-2.2,0.6-4.4,1.5-6.4,2.4c-3.1,1.5-6.2,3.1-9.2,4.9c-0.9,0.5-1.7,1-2.7,1.4c-1.3,0.5-2.6,0.5-3.8-0.4
	c-0.4-0.3-0.8-0.4-1.3-0.5c-0.6-0.1-1.2-0.2-1.8-0.2c-2-0.2-4-0.2-6.1-0.2c-0.2,0-0.5,0-0.7-0.1c-1.1-0.1-2.2-0.1-3.3,0
	c-0.3,0-0.6,0.1-1,0.1c-0.3,0-0.6,0-1-0.1c-1.1-0.1-2.2-0.1-3.3,0c-0.2,0-0.5,0.1-0.7,0.1c-2,0-4.1,0-6.1,0.2
	c-0.6,0.1-1.2,0.1-1.8,0.2c-0.5,0.1-0.9,0.2-1.3,0.5c-1.2,0.9-2.5,0.8-3.8,0.4c-0.9-0.3-1.8-0.9-2.6-1.4c-3-1.7-6.1-3.4-9.2-4.9
	c-2.1-1-4.2-1.9-6.4-2.4c-2.5-0.6-4.9-1.3-7.4-1.7c-2.9-0.5-5.8-0.8-8.7-0.9c-0.9,0-1.8,0-2.7-0.1c-0.4-0.1-0.8-0.1-1.2,0
	c-1,0.1-2.1,0.1-3.1,0.1c-0.7,0-1.3,0-1.9,0.1c-2.3,0.2-4.5,0.4-6.8,0.8c-3.4,0.6-6.8,1.4-10,2.8c-2.8,1.1-5.6,2.3-8.3,3.6
	c-2.4,1.1-4.7,2.3-7,3.5c-1.4,0.8-2.8,1.4-4.3,2.1c-1.2,0.5-2.3,1-3.6,1.3c-0.6,0.2-30,0.6-30.1,1.2c-0.1,0.4-0.2,0.9-0.2,1.3
	c-0.1,1.8,0,3.7,0.2,5.5c0,0.3,0.1,0.5,0.2,0.8c0.1,0.5,29.4,0.8,29.9,1c0.4,0.2,0.9,0.4,1.4,0.5c1.2,0.4,2,1.2,2.5,2.4
	c0.6,1.7,1.2,3.4,1.5,5.1c0.8,3.9,1.7,7.8,2.8,11.6c0.6,2.3,1.3,4.5,2.3,6.6c1.9,4.1,4.1,8,6.7,11.7c1.7,2.4,3.8,4.4,6.3,6.1
	c1.4,0.9,2.8,1.8,4.3,2.6c3.5,1.9,7.2,3.5,11.2,4.2c1,0.2,2.1,0.4,3.1,0.5c2,0.2,4,0.3,6,0.2c1.7-0.1,3.3-0.2,4.9-0.5
	c4.3-0.8,8.4-2.1,12.3-4.1c5.8-2.9,10.5-7.1,14.1-12.5c1.8-2.7,3.3-5.5,4.7-8.3c0.5-0.9,0.9-1.9,1.3-2.9c0.6-1.4,1-2.9,1.5-4.4
	c0.8-2.6,1.6-5.2,2-7.9c0.5-2.5,0.8-5,1.3-7.5c0.1-0.8,0-1.6-0.6-2.2c-0.4-0.5-0.7-1.1-0.9-1.7c-0.5-1.4-0.4-2.8-0.3-4.2
	c0.1-0.6,0.4-1.1,1-1.5c0.5-0.3,1-0.6,1.6-0.7c1-0.3,2.1-0.5,3.2-0.5c2.4,0,4.8-0.1,7.2-0.1l0,0l0,0h7.2c1.1,0,2.1,0.3,3.2,0.5
	c0.6,0.1,1.1,0.4,1.6,0.8s0.9,0.9,1,1.5c0.2,1.4,0.3,2.8-0.3,4.2c-0.2,0.6-0.5,1.2-0.9,1.7c-0.6,0.6-0.7,1.4-0.6,2.2
	c0.4,2.5,0.8,5,1.3,7.5c0.5,2.7,1.3,5.3,2,7.9c0.4,1.5,0.9,3,1.5,4.4c0.4,1,0.8,2,1.3,2.9c1.5,2.8,3,5.7,4.7,8.3
	c3.6,5.4,8.3,9.5,14.1,12.5c3.9,2,8,3.3,12.3,4.1c1.6,0.3,3.3,0.4,4.9,0.5c2,0.1,4,0,6-0.2c1.1-0.1,2.1-0.3,3.2-0.5
	c4-0.7,7.7-2.3,11.2-4.2c1.5-0.8,2.9-1.7,4.3-2.6c2.5-1.6,4.5-3.7,6.3-6.1c2.7-3.6,4.8-7.6,6.7-11.7c1-2.1,1.7-4.4,2.3-6.6
	c1.1-3.8,2-7.7,2.8-11.6c0.3-1.8,0.9-3.5,1.5-5.1c0.5-1.2,1.3-2,2.5-2.4c0.5-0.1,0.9-0.3,1.3-0.5c0.5-0.2,22.8-0.5,22.9-1
	c0.1-0.3,0.1-0.5,0.2-0.8C-53.2,270.1-53.1,268.3-53.2,266.4z M-194.4,281.2c-0.2,3.7-0.8,7.4-1.7,11c-1.5,5.7-3.9,10.9-7.2,15.8
	c-2.8,4-6.3,7.2-10.6,9.6c-4,2.2-8.2,3.7-12.7,4.3c-1.9,0.3-3.8,0.6-5.7,0.6c-2.8,0.1-5.5-0.3-8.3-1c-2.2-0.5-4.3-1.2-6.4-2
	c-3-1.1-5.6-2.8-8-4.8c-2.2-1.8-4.1-3.9-5.8-6.1c-1.3-1.7-2.3-3.5-3.2-5.4c-1-2.3-2-4.6-2.8-7c-1-2.7-1.5-5.5-1.8-8.3
	c-0.3-2.4-0.4-4.8-0.4-7.2c0-0.3,0-0.5,0-0.8c-0.1-2.5,0.3-4.9,1-7.2c0.7-2.3,1.5-4.5,2.4-6.7c0.4-1.1,1.1-2,1.9-2.9
	c2.1-2.3,4.5-4.1,7.2-5.6c2.8-1.5,5.7-2.7,8.8-3.4c1.6-0.4,3.3-0.6,5-0.8c2.3-0.3,4.5-0.4,6.8-0.5c2.7-0.1,5.3-0.2,8,0.1
	c4.6,0.4,9.1,1.5,13.6,2.9c2.2,0.7,4.3,1.5,6.3,2.6c2.8,1.5,5.3,3.3,7.5,5.5c2.7,2.6,4.4,5.8,5.2,9.4
	C-194.5,275.9-194.2,278.5-194.4,281.2z M-86.7,280.7c0,2.4-0.2,4.8-0.4,7.2c-0.3,2.8-0.8,5.6-1.8,8.3c-0.8,2.4-1.8,4.7-2.8,7
	c-0.9,1.9-1.9,3.7-3.2,5.4c-1.7,2.3-3.6,4.3-5.8,6.1c-2.4,2-5,3.7-8,4.8c-2.1,0.8-4.2,1.5-6.4,2c-2.7,0.6-5.5,1-8.3,1
	c-1.9,0-3.8-0.3-5.7-0.6c-4.5-0.7-8.7-2.1-12.7-4.3c-4.3-2.4-7.8-5.6-10.6-9.6c-3.3-4.8-5.7-10.1-7.2-15.8c-0.9-3.6-1.5-7.3-1.7-11
	c-0.2-2.7,0.1-5.3,0.7-8c0.8-3.6,2.6-6.8,5.2-9.4c2.3-2.2,4.8-4,7.6-5.5c2-1.1,4.1-1.9,6.3-2.6c4.4-1.4,8.9-2.5,13.6-2.9
	c2.7-0.3,5.3-0.2,8-0.1c2.3,0.1,4.5,0.2,6.8,0.5c1.7,0.2,3.3,0.4,5,0.8c3.1,0.7,6,1.9,8.8,3.4c2.7,1.5,5.1,3.3,7.2,5.6
	c0.8,0.9,1.5,1.8,1.9,2.9c0.9,2.2,1.8,4.4,2.4,6.7c0.7,2.3,1.1,4.7,1,7.2C-86.7,280.1-86.7,280.4-86.7,280.7z"/>
<path id="XMLID_14073_" fill="#7F3905" d="M-86.7,280.7c0,2.4-0.2,4.8-0.4,7.2c-0.3,2.8-0.8,5.6-1.8,8.3c-0.8,2.4-1.8,4.7-2.8,7
	c-0.9,1.9-1.9,3.7-3.2,5.4c-1.7,2.3-3.6,4.3-5.8,6.1c-2.4,2-5,3.7-8,4.8c-2.1,0.8-4.2,1.5-6.4,2c-2.7,0.6-5.5,1-8.3,1
	c-1.9,0-3.8-0.3-5.7-0.6c-4.5-0.7-8.7-2.1-12.7-4.3c-4.3-2.4-7.8-5.6-10.6-9.6c-3.3-4.8-5.7-10.1-7.2-15.8c-0.9-3.6-1.5-7.3-1.7-11
	c-0.2-2.7,0.1-5.3,0.7-8c0.8-3.6,2.6-6.8,5.2-9.4c2.3-2.2,4.8-4,7.6-5.5c2-1.1,4.1-1.9,6.3-2.6c4.4-1.4,8.9-2.5,13.6-2.9
	c2.7-0.3,5.3-0.2,8-0.1c2.3,0.1,4.5,0.2,6.8,0.5c1.7,0.2,3.3,0.4,5,0.8c3.1,0.7,6,1.9,8.8,3.4c2.7,1.5,5.1,3.3,7.2,5.6
	c0.8,0.9,1.5,1.8,1.9,2.9c0.9,2.2,1.8,4.4,2.4,6.7c0.7,2.3,1.1,4.7,1,7.2C-86.7,280.1-86.7,280.4-86.7,280.7z"/>
<path id="XMLID_14079_" fill="#7F3905" d="M-194.4,281.2c-0.2,3.7-0.8,7.4-1.7,11c-1.5,5.7-3.9,10.9-7.2,15.8
	c-2.8,4-6.3,7.2-10.6,9.6c-4,2.2-8.2,3.7-12.7,4.3c-1.9,0.3-3.8,0.6-5.7,0.6c-2.8,0.1-5.5-0.3-8.3-1c-2.2-0.5-4.3-1.2-6.4-2
	c-3-1.1-5.6-2.8-8-4.8c-2.2-1.8-4.1-3.9-5.8-6.1c-1.3-1.7-2.3-3.5-3.2-5.4c-1-2.3-2-4.6-2.8-7c-1-2.7-1.5-5.5-1.8-8.3
	c-0.3-2.4-0.4-4.8-0.4-7.2c0-0.3,0-0.5,0-0.8c-0.1-2.5,0.3-4.9,1-7.2c0.7-2.3,1.5-4.5,2.4-6.7c0.4-1.1,1.1-2,1.9-2.9
	c2.1-2.3,4.5-4.1,7.2-5.6c2.8-1.5,5.7-2.7,8.8-3.4c1.6-0.4,3.3-0.6,5-0.8c2.3-0.3,4.5-0.4,6.8-0.5c2.7-0.1,5.3-0.2,8,0.1
	c4.6,0.4,9.1,1.5,13.6,2.9c2.2,0.7,4.3,1.5,6.3,2.6c2.8,1.5,5.3,3.3,7.5,5.5c2.7,2.6,4.4,5.8,5.2,9.4
	C-194.5,275.9-194.2,278.5-194.4,281.2z"/>
</svg>
