<?xml version="1.0" encoding="utf-8"?>
<!-- Generator: Adobe Illustrator 19.0.0, SVG Export Plug-In . SVG Version: 6.00 Build 0)  -->
<svg version="1.1" id="Layer_1" xmlns="http://www.w3.org/2000/svg" xmlns:xlink="http://www.w3.org/1999/xlink" x="0px" y="0px"
	 viewBox="-335 218 288 126" enable-background="new -335 218 288 126" xml:space="preserve">
<g id="XMLID_888_">
	<path id="XMLID_896_" fill="#7F3905" d="M-84.1922,254.2866c-0.3-2.6-2.7-4.5-5.6-4.5h-4.1c0,0-22,0.9-31.4,1.6s-29.1,4.5-38.8,7.2
		c-9.7,2.7-19.9,4.5-24.5,4.5h-2.6h-2.6c-4.6,0-14.8-1.8-24.5-4.5c-9.7-2.7-29.4-6.5-38.8-7.2c-9.4-0.7-31.4-1.6-31.4-1.6h-4.1
		c-2.9,0-5.4,1.9-5.6,4.5c-0.6,5-1.3,13.3-1,20.4c0.5,11,1.5,19.5,3.3,22.2s10,7.2,30.4,13.7s24.2,7,31.1,7.2
		c6.9,0.2,11-0.2,13.8-2.5c2.8-2.2,5.9-8.8,7.9-14.1c2-5.4,5.4-13.2,10.5-17.4c4.7-3.8,8.1-5.1,11-5.3c2.9,0.2,6.3,1.4,11,5.3
		c5.1,4.2,8.4,12,10.5,17.4c2,5.4,5.1,11.9,7.9,14.1c2.8,2.2,6.9,2.7,13.8,2.5c6.9-0.2,10.7-0.7,31.1-7.2s28.6-11,30.4-13.7
		s2.8-11.2,3.3-22.2C-82.8922,267.5865-83.5922,259.2866-84.1922,254.2866z"/>
	<path id="XMLID_895_" fill="#7F3905" d="M-228.3922,310.6866c-9.2-9.1-12.8-22.4-13-35c-0.1-6.7,1.5-13,4.8-18.7c0.4-1,0.8-2,1.2-3
		c-8-1.6-16.3-2.9-21.5-3.3c-9.4-0.7-31.4-1.6-31.4-1.6h-4.1c-2.9,0-5.4,1.9-5.6,4.5c-0.6,5-1.3,13.3-1,20.4
		c0.5,11,1.5,19.5,3.3,22.2s10,7.2,30.4,13.7s24.2,7,31.1,7.2c5.5,0.2,9.1-0.1,11.8-1.3
		C-224.5922,314.2866-226.5922,312.5865-228.3922,310.6866z"/>
	<path id="XMLID_894_" fill="#7F3905" d="M-84.1922,253.6866c-0.3-2.6-2.7-4.5-5.6-4.5h-4.1c0,0-22,0.9-31.4,1.6
		c-5.5,0.4-14.3,1.8-22.7,3.5c3.7,7.5,5.4,16.1,5.5,24.4c0.1,6.7-1.5,13-4.8,18.7c-2.2,6.4-6,11.8-11.2,16.3
		c-0.7,0.7-1.5,1.3-2.2,1.9c2.8,1.6,6.6,1.9,12.7,1.7c6.9-0.2,10.7-0.7,31.1-7.2s28.6-11,30.4-13.7s2.8-11.2,3.3-22.2
		C-82.8922,266.9866-83.5922,258.6866-84.1922,253.6866z"/>
	<path id="XMLID_893_" fill="#7F3905" d="M-273.1922,296.4866c-0.7-7.1-1.4-14.2-2.1-21.3c-0.1-8.9,1.6-17.3,4.9-25.1
		c-8.9-0.4-17.9-0.8-17.9-0.8h-4.1c-2.9,0-5.4,1.9-5.6,4.5c-0.6,5-1.3,13.3-1,20.4c0.5,11,1.5,19.5,3.3,22.2
		c1.7,2.5,8.9,6.6,26.5,12.4C-270.8922,304.7866-272.1922,300.6866-273.1922,296.4866z"/>
	<path id="XMLID_892_" fill="#7F3905" d="M-84.1922,253.6866c-0.3-2.6-2.7-4.5-5.6-4.5h-4.1c0,0-9.4,0.4-18.6,0.8
		c1,2.8,1.8,5.7,2.5,8.7c0.7,7.1,1.4,14.2,2.1,21.3c0.1,10.4-2.2,20.2-6.8,29.2c18.7-6.1,26.3-10.4,28.1-13
		c1.8-2.7,2.8-11.2,3.3-22.2C-82.8922,266.9866-83.5922,258.6866-84.1922,253.6866z"/>
	<g id="XMLID_889_">
		<path id="XMLID_891_" fill="#EDA36B" d="M-73.0922,250.4866c-0.4-1.6-1.1-4-3.4-5.4c-2.2-1.3-4.8-0.9-6.7-0.7
			c-5.2,0.7-10.3,1.5-15.5,1.7c-14,0.4-15-0.1-33.5,1c-6.3,0.4-7.4,0.7-17.2,2.4c-13.8,2.4-10.5,2.1-26.4,5.6
			c-3.9,0.8-9.4,1.4-14.9,1.9c-0.1,0-0.2,0-0.3,0s-0.2,0-0.3,0c-5.6-0.4-11.1-1-14.9-1.9c-15.9-3.4-12.6-3.2-26.4-5.6
			c-9.8-1.7-10.9-2-17.2-2.4c-18.5-1.2-19.5-0.6-33.5-1c-5.2-0.1-10.4-1-15.5-1.7c-1.9-0.2-4.5-0.6-6.7,0.7c-2.4,1.4-3,3.8-3.4,5.4
			c-0.6,2.2-0.7,4.8,1.1,10.8c1.8,6,2.7,9,5.2,12c3.5,4.2,5.4,4.9,7.4,3.7c2.1-1.2,2.7-5.7,3.2-8.1c0.3-1.9,0.5-5.8-0.6-9.2
			c-1.4-4.6-4.7-4.9-3.6-6.4c0.7-1,1.6-2,3.1-2.1c6.7-0.8,11.3-0.5,17.4-0.3c11.6,0.4,14.6,0.5,29.1,2c4.9,0.5,20.6,3,35,7.6
			c2.7,0.9,10.8,3.1,20,3.1c0.2,0,0.6,0,0.8,0s0.6,0,0.8,0c9.2,0,17.3-2.2,20-3.1c14.4-4.6,30.1-7.1,35-7.6
			c14.5-1.5,17.5-1.6,29.1-2c6.1-0.2,10.7-0.5,17.4,0.3c1.5,0.2,2.4,1.2,3.1,2.1c1.1,1.5-2.2,1.9-3.6,6.4c-1.1,3.4-0.9,7.2-0.6,9.2
			c0.4,2.4,1.1,6.9,3.2,8.1c1.9,1.1,3.9,0.5,7.4-3.7c2.4-2.9,3.3-5.9,5.2-12C-72.3922,255.2866-72.5922,252.6866-73.0922,250.4866z"
			/>
		<path id="XMLID_890_" fill="#EDA36B" d="M-181.1922,279.5865c-2.3-1.7-3.7-2.7-6.3-3.4c-0.6-0.2-1.8-0.3-3.6-0.3
			c-1.9,0-3,0.1-3.6,0.3c-2.6,0.6-4,1.7-6.3,3.4c-3.9,2.9-8.2,11-11.2,17.8c-1.5,3.4-3,6.3-3.4,9.2c-0.3,2.1,4,3.2,5.5-0.5
			c6.1-15.6,10.7-22.3,14.9-24.5c1-0.5,2.7-0.7,4.2-0.7s3.2,0.1,4.2,0.7c4.1,2.2,8.8,8.9,14.9,24.5c1.5,3.7,5.7,2.6,5.5,0.5
			c-0.4-3-1.9-5.9-3.3-9.2C-172.9922,290.5865-177.2922,282.4866-181.1922,279.5865z"/>
	</g>
</g>
</svg>
