<?xml version="1.0" encoding="utf-8"?>
<!-- Generator: Adobe Illustrator 19.0.0, SVG Export Plug-In . SVG Version: 6.00 Build 0)  -->
<svg version="1.1" id="Layer_1" xmlns="http://www.w3.org/2000/svg" xmlns:xlink="http://www.w3.org/1999/xlink" x="0px" y="0px"
	 viewBox="-348 225.5 262.8 111.5" enable-background="new -348 225.5 262.8 111.5" xml:space="preserve">
<g id="XMLID_261_">
	<path id="XMLID_527_" fill="#7F3905" d="M-203.85,288.2l-2.1-20.7c-0.5-4.7-4.4-8.3-9.2-8.3h-2.9c-4.8,0-8.7,3.6-9.2,8.3l-2,20.7
		h-2l2.1-20.9c0.6-5.7,5.4-10.1,11.1-10.1h2.9c5.8,0,10.6,4.3,11.1,10.1l2.1,20.9H-203.85z"/>
	<g id="XMLID_524_">
		<path id="XMLID_280_" fill="#BFA695" d="M-226.75,285.7c0,1.2-0.4,2.4-0.9,3.6c-1.7,4.1-3.7,8.1-6.1,11.8c-0.7,1.2-1.6,2.3-2.7,3
			c-1.2,0.7-2.8,0.9-3.9,0c-0.7-0.6-1.1-1.6-1.1-2.6s0.3-1.9,0.6-2.9c0.9-2.9,1.7-5.8,2.6-8.7l0,0c1-3.2,2.3-6,5.6-7.3
			C-230.25,281.6-226.85,282.7-226.75,285.7z"/>
	</g>
	<path id="XMLID_523_" fill="#7F3905" d="M-285.95,320.4c-8.1,0-15.2-2.2-21.1-6.5c-10.9-8.1-14.2-26.1-13.9-36.2
		c0.4-10.3,2.6-17.1,7.6-23.6c5.4-6.9,17.4-10.9,32.8-10.9c18,0,39.8,5.8,48.1,18.7c1.3,2.1,3.2,5.4,3.8,10.1
		c1.2,9.1-3,19-11.9,28.1c-8.1,8.2-19,14.8-30.1,17.9C-272.55,318.6-278.75,320.4-285.95,320.4z"/>
	<path id="XMLID_522_" fill="#EF7B05" d="M-305.65,312.1c-10.2-7.5-13.4-24.6-13.1-34.4c0.3-9,2-15.7,7.2-22.3
		c12.7-16.2,64.5-12.4,77.4,7.6c1,1.6,2.9,4.8,3.5,9.2c2.4,18-19.1,37.6-40.4,43.6C-276.85,317.6-292.85,321.6-305.65,312.1z"/>
	<rect id="XMLID_521_" x="-281.85" y="242.1" fill="#7F3905" width="89" height="2"/>
	<path id="XMLID_520_" fill="#7F3905" d="M-340.95,264.7h21.5c0.9,0,1.7,0.8,1.7,1.7l0,0c0,0.9-0.8,1.7-1.7,1.7h-21.5
		c-0.9,0-1.7-0.8-1.7-1.7l0,0C-342.55,265.4-341.85,264.7-340.95,264.7z"/>
	<g id="XMLID_517_">
		<path id="XMLID_278_" fill="#BFA695" d="M-205.75,285.7c0,1.2,0.4,2.4,0.9,3.6c1.7,4.1,3.7,8.1,6.1,11.8c0.7,1.2,1.6,2.3,2.7,3
			c1.2,0.7,2.8,0.9,3.9,0c0.7-0.6,1.1-1.6,1.1-2.6s-0.3-1.9-0.6-2.9c-0.9-2.9-1.7-5.8-2.6-8.7l0,0c-1-3.2-2.3-6-5.6-7.3
			C-202.35,281.6-205.75,282.7-205.75,285.7z"/>
	</g>
	<path id="XMLID_516_" fill="#7F3905" d="M-147.25,320.4c8.1,0,15.2-2.2,21.1-6.5c10.9-8.1,14.3-26.1,13.9-36.2
		c-0.4-10.3-2.6-17.1-7.6-23.6c-5.4-6.9-17.4-10.9-32.8-10.9c-18,0-39.8,5.8-48.1,18.7c-1.3,2.1-3.2,5.4-3.8,10.1
		c-1.2,9.1,3,19,11.9,28.1c8.1,8.2,19,14.8,30.1,17.9C-160.55,318.6-154.45,320.4-147.25,320.4z"/>
	<path id="XMLID_515_" fill="#EF7B05" d="M-127.45,312.1c10.2-7.5,13.4-24.7,13.1-34.4c-0.3-9-2-15.7-7.2-22.3
		c-12.7-16.2-64.5-12.4-77.4,7.6c-1,1.6-2.9,4.8-3.5,9.2c-2.4,18,19.1,37.6,40.4,43.6C-156.25,317.6-140.25,321.6-127.45,312.1z"/>
	<rect id="XMLID_514_" x="-240.35" y="242.1" fill="#7F3905" width="89" height="2"/>
	<path id="XMLID_513_" fill="#7F3905" d="M-98.25,264.7h-15.5c-0.9,0-1.7,0.8-1.7,1.7l0,0c0,0.9,0.8,1.7,1.7,1.7h15.5
		c0.9,0,1.7-0.8,1.7-1.7l0,0C-96.55,265.4-97.25,264.7-98.25,264.7z"/>
	<g id="XMLID_263_">
		<path id="XMLID_276_" fill="#EDA36B" d="M-308.45,264.2c-3.9,4.6-6.7,10.4-6.1,16.4c0.4,4.1,2.6,8,6,10.4
			c3.4,2.4,7.9,3.1,11.8,1.8c3.4-1.2,6.1-3.8,8.7-6.4c6.3-6.2,12.6-12.4,18.9-18.6l0,0c3.6-3.5,7.1-7.5,6-12.9
			c-0.7-3.4-2.8-5-6.2-5.4c-7.8-0.9-19,1.5-26,4.8C-300.35,256.6-304.85,260-308.45,264.2z"/>
	</g>
	<g id="XMLID_262_">
		<path id="XMLID_274_" fill="#EDA36B" d="M-184.95,260.7c-4.6,3.8-8.5,9-9,15c-0.3,4.1,1.1,8.4,4,11.3c2.9,3,7.2,4.5,11.3,3.9
			c3.6-0.5,6.7-2.6,9.8-4.6c7.3-4.9,14.7-9.8,22-14.7l0,0c4.1-2.8,8.4-6.1,8.3-11.6c-0.1-3.4-1.8-5.4-5-6.4
			c-7.5-2.4-18.9-2-26.4-0.1C-175.55,254.7-180.65,257.2-184.95,260.7z"/>
	</g>
</g>
</svg>
