<?xml version="1.0" encoding="utf-8"?>
<!-- Generator: Adobe Illustrator 19.0.0, SVG Export Plug-In . SVG Version: 6.00 Build 0)  -->
<svg version="1.1" id="Layer_1" xmlns="http://www.w3.org/2000/svg" xmlns:xlink="http://www.w3.org/1999/xlink" x="0px" y="0px"
	 viewBox="-58 187 335 150" style="enable-background:new -58 187 335 150;" xml:space="preserve">
<style type="text/css">
	.st0{fill:#EF7B05;}
	.st1{fill:#26A69A;}
	.st2{fill:#4DB6AC;}
	.st3{fill:#64FFDA;}
	.st4{fill:#80CBC4;}
	.st5{fill:#BBDEFB;}
	.st6{fill:#FFFFFF;}
	.st7{fill:#CDDC39;}
	.st8{fill:#F4F2F2;}
	.st9{opacity:0.2;fill:#FFFFFF;}
	.st10{fill:#7A0017;}
	.st11{fill:#8BC34A;}
	.st12{fill:#388E3C;}
	.st13{opacity:0.31;fill:#FFFFFF;}
</style>
<g id="XMLID_443_">
	<path id="XMLID_536_" class="st0" d="M218.1,246c0,0,15,0.1,15,0.2c0,0.7,0,3.6,0,10.7c0,0.1-15,0.1-15,0.2
		c-6.6,8.1-9.5,11.7-14.1,30.6c-4.6,18.9-13.3,24.2-39.9,24.2c-4.5,0-8.7-0.7-12.5-1.9c-0.3-0.1-0.6-0.2-0.9-0.3
		c-4.7-1.6-8.9-4-12.5-6.9c-2.5-2-4.7-4.3-6.7-6.6c-0.2-0.3-0.5-0.6-0.7-0.9c-1.1-1.4-2.2-2.9-3.1-4.4c-1.4-2.2-2.6-4.5-3.6-6.7
		c-0.4-0.9-0.8-1.9-1.1-2.8c-0.8-2.1-1.3-4.2-1.7-6.1c-2-10.9-16.5-11.3-18.7,0C99.9,289.2,88.1,312,59.9,312
		c-8.6,0-15.4-0.6-21-2.2c-5.9-1.7-10.3-4.6-13.5-9c-2-2.7-3.5-6-4.7-9.9c-0.3-1-0.6-2-0.8-3.1c-1.4-6-2.7-10.4-4-13.9
		c-2.8-7.7-5.6-11.1-10.1-16.7c0,0-14-0.1-14-0.1c0-7.5,0-10.3,0-10.9c0-0.1,14-0.1,14-0.1s24.7-8.4,45.2-7.3c0.3,0,0.6,0,0.9,0
		c6.2,0.4,12.4,0.3,18.5,1.4c4.1,0.7,8.2,1.5,12.3,2.3c6.5,1.2,13,3.4,19.4,4c3.3,0.3,6.5,0.5,9.8,0.5c17.6,0,35-5.5,53-7.6
		c1.4-0.2,2.9-0.3,4.3-0.5c0.9-0.1,1.8-0.1,2.7-0.2c2.6-0.2,5.2-0.2,7.9-0.1c2.3,0.1,4.7,0.3,7,0.5c0.5,0,0.9,0.1,1.4,0.2
		c4,0.5,7.9,1.1,11.4,1.9c6.7,1.4,12.4,2.9,15.5,3.9c0.3,0.1,0.6,0.2,0.9,0.3C217.4,245.8,218.1,246,218.1,246z"/>
	<g id="XMLID_522_">
		<g id="XMLID_527_">
			<g id="XMLID_528_">
				<path id="XMLID_535_" class="st1" d="M96.4,275.8c-0.3,0.8-0.6,1.7-0.9,2.5H22.2c-0.2-0.8-0.3-1.7-0.4-2.5H96.4z"/>
				<path id="XMLID_534_" class="st2" d="M95.5,278.2c-0.4,0.9-0.8,1.9-1.2,2.8H22.8c0-0.2-0.1-0.4-0.1-0.7
					c-0.2-0.7-0.3-1.4-0.4-2.1H95.5z"/>
				<path id="XMLID_533_" class="st3" d="M91.9,285.8c-3.8,6.7-8.5,12.3-12.3,14.8c-5.9,3.8-19.2,9.7-36.5,5
					c-0.8-0.2-1.6-0.5-2.4-0.7c-0.6-0.2-1.2-0.4-1.8-0.7c-3.8-1.6-6.9-4.3-9.3-7.5c-1.3-1.7-2.4-3.6-3.3-5.5
					c-0.6-1.3-1.2-2.7-1.7-4.1c-0.1-0.4-0.3-0.8-0.4-1.2H91.9z"/>
				<path id="XMLID_532_" class="st4" d="M22.8,281h71.5c-0.8,1.7-1.6,3.3-2.5,4.8H24.2C23.7,284.3,23.2,282.6,22.8,281z"/>
				<path id="XMLID_531_" class="st5" d="M96.4,275.8H21.8c-0.4-2.4-0.6-4.7-0.8-6.9c-0.1-1.8-0.2-3.4-0.2-5c0-1.4,0-2.8,0-4
					l4.4-0.5l20.6-2.2l14.5-1.5l-13.6,0.6l-19.3,0.9l-6.5,0.3c1-6.1,8.8-9.4,17.4-11.2c2.1-0.4,4.2-0.8,6.3-1
					c5.2-0.7,10.1-0.9,13.6-1c0,0,0.2,0,0.6,0h0.4c1.5,0,4.4,0,7.9,0.3c0.3,0,0.6,0,0.9,0.1c0.2,0,0.3,0,0.5,0
					c1.2,0.1,2.5,0.2,3.8,0.4c1,0.1,2,0.3,3,0.4c0.2,0,0.5,0.1,0.7,0.1c0.3,0,0.6,0.1,0.9,0.2c0.3,0.1,0.6,0.1,0.9,0.2
					c0.2,0,0.3,0.1,0.5,0.1c0.2,0,0.4,0.1,0.6,0.1c0.3,0.1,0.6,0.1,0.8,0.2c0.6,0.1,1.1,0.3,1.7,0.4c0.3,0.1,0.5,0.1,0.8,0.2
					c0.3,0.1,0.6,0.2,0.8,0.2c0.3,0.1,0.5,0.2,0.8,0.2c0.3,0.1,0.5,0.2,0.8,0.3c0.3,0.1,0.5,0.2,0.8,0.3c0.3,0.1,0.5,0.2,0.8,0.3
					c0.2,0.1,0.4,0.2,0.6,0.2c0.1,0,0.1,0,0.2,0.1c0.2,0.1,0.4,0.2,0.6,0.2c0.1,0,0.2,0.1,0.2,0.1c0.4,0.2,0.9,0.4,1.3,0.6
					c0.9,0.5,1.8,1,2.7,1.5c0.3,0.2,0.5,0.4,0.8,0.6c0.3,0.2,0.6,0.4,0.8,0.7c0.1,0.1,0.2,0.2,0.3,0.3c0.4,0.3,0.8,0.7,1.1,1.1
					c0.9,0.9,1.6,1.9,2.1,3.1c0.2,0.3,0.3,0.7,0.4,1C99.3,263,98.5,269.4,96.4,275.8z"/>
				<polygon id="XMLID_530_" class="st6" points="60.3,255.7 20.7,259.8 20.9,257.5 20.9,257.5 				"/>
				<path id="XMLID_529_" class="st7" d="M20.9,257.5l-0.1,2.3c0-0.5,0-0.9,0-1.3C20.8,258.2,20.8,257.8,20.9,257.5z"/>
			</g>
		</g>
		<polygon id="XMLID_526_" class="st6" points="70.8,272.6 70.6,263.5 66.5,272.6 		"/>
		<polygon id="XMLID_525_" class="st6" points="63.2,273.7 78.3,273.5 75.7,276.4 65.8,276.5 		"/>
		<polygon id="XMLID_524_" class="st8" points="71.9,266.4 75.3,272.6 71.9,272.6 		"/>
		<path id="XMLID_523_" class="st9" d="M97.1,256.7c-4.1,3.9-9.6,6.4-15.7,6.4c-0.5,0-1,0-1.4,0c-6.8-0.4-12.8-3.9-16.6-9
			c-2.1-2.8-3.6-6.2-4.2-9.8c1.5,0,4.4,0,7.9,0.3c0.3,0,0.6,0,0.9,0.1c0.2,0,0.3,0,0.5,0c1.2,0.1,2.5,0.2,3.8,0.4c1,0.1,2,0.3,3,0.4
			c0.2,0,0.5,0.1,0.7,0.1c0.3,0,0.6,0.1,0.9,0.2c0.3,0.1,0.6,0.1,0.9,0.2c0.2,0,0.3,0.1,0.5,0.1c0.2,0,0.4,0.1,0.6,0.1
			c0.3,0.1,0.6,0.1,0.8,0.2c0.6,0.1,1.1,0.3,1.7,0.4c0.3,0.1,0.5,0.1,0.8,0.2c0.3,0.1,0.6,0.2,0.8,0.2c0.3,0.1,0.5,0.2,0.8,0.2
			c0.3,0.1,0.5,0.2,0.8,0.3c0.3,0.1,0.5,0.2,0.8,0.3c0.3,0.1,0.5,0.2,0.8,0.3c0.2,0.1,0.4,0.2,0.6,0.2c0.1,0,0.1,0,0.2,0.1
			c0.2,0.1,0.4,0.2,0.6,0.2c0.1,0,0.2,0.1,0.2,0.1c0.4,0.2,0.9,0.4,1.3,0.6c0.9,0.5,1.8,1,2.7,1.5c0.3,0.2,0.5,0.4,0.8,0.6
			c0.3,0.2,0.6,0.4,0.8,0.7c0.1,0.1,0.2,0.2,0.3,0.3c0.4,0.3,0.8,0.7,1.1,1.1C95.9,254.6,96.6,255.6,97.1,256.7z"/>
	</g>
	<g id="XMLID_453_">
		<g id="XMLID_509_">
			<g id="XMLID_512_">
				<path id="XMLID_521_" class="st1" d="M202.3,275.8c-0.1,0.8-0.3,1.6-0.4,2.5h-73.3c-0.2-0.6-0.4-1.2-0.6-1.7
					c-0.1-0.2-0.2-0.5-0.3-0.7H202.3z"/>
				<path id="XMLID_520_" class="st2" d="M201.9,278.2c-0.2,0.9-0.4,1.8-0.6,2.8h-71.5c-0.3-0.6-0.5-1.1-0.7-1.7
					c-0.1-0.4-0.3-0.7-0.4-1.1H201.9z"/>
				<path id="XMLID_519_" class="st3" d="M199.9,285.8c-2.8,8.6-7.9,16.2-16.5,19c-5.1,1.7-10,2.4-14.4,2.5c-0.6,0-1.2,0-1.7,0
					c-3-0.1-5.8-0.4-8.3-0.9c-1-0.2-2-0.4-3-0.7c-0.3-0.1-0.6-0.2-0.9-0.3c-4.6-1.4-8.2-3.3-10.6-4.8c-0.3-0.2-0.7-0.4-1-0.7
					c-0.4-0.3-0.8-0.7-1.3-1c-2-1.8-4.2-4.2-6.2-7.1c-0.2-0.3-0.4-0.6-0.6-0.9c-0.2-0.4-0.5-0.7-0.7-1.1c-0.7-1.1-1.5-2.3-2.2-3.6
					c-0.1-0.1-0.1-0.2-0.2-0.4H199.9z"/>
				<path id="XMLID_518_" class="st4" d="M201.3,281c-0.4,1.6-0.8,3.2-1.4,4.8h-67.7c-0.9-1.6-1.7-3.2-2.4-4.8H201.3z"/>
				<path id="XMLID_515_" class="st5" d="M203.4,261.9c0,3.9-0.3,8.8-1.1,13.8h-74.6c-0.8-2.5-1.4-4.9-1.8-7.3
					c-0.5-3.4-0.4-6.7,0.4-9.6l0.6-1.8c2.9-6.8,12.8-10,21.9-11.5c1.1-0.2,2.1-0.3,3.2-0.5c0,0,0,0,0,0c5.9-0.4,11.5-0.6,16-0.7
					c0,0,0,0,0,0h0.1c1.7,0.1,3.7,0.2,5.8,0.3c1.7,0.1,3.4,0.3,5.2,0.5c0.5,0.1,1.1,0.1,1.6,0.2c0.5,0.1,0.9,0.1,1.4,0.2
					c3.7,0.6,7.5,1.4,10.7,2.6c0.6,0.2,1.1,0.4,1.7,0.6c4.6,1.9,8,4.6,8.7,8.4c0.1,0.3,0.1,0.7,0.1,1.1c0,0.1,0,0.1,0,0.2
					C203.3,259.6,203.4,260.7,203.4,261.9z"/>
			</g>
		</g>
		<g id="XMLID_457_">
			<path id="XMLID_506_" class="st10" d="M164.8,271.5c0,0-8.1-35.6-1.3,0.9C164.5,273.1,164.8,271.5,164.8,271.5z"/>
			<path id="XMLID_499_" class="st11" d="M156.8,276.6c0,0,6.2-6.2,9.8-6.1c3.6,0.1,9.7,3.8,10.4,5s-2.7,1.5-4.4,1.1
				c-1.7-0.3-1.8,1.6-3,2.3s-2.4-1.2-4.1-2.1C163.8,275.8,161.2,277.8,156.8,276.6z"/>
			<path id="XMLID_496_" class="st10" d="M166.6,272.4c0,0,8.1-39.1,1.7,0.3C166.9,273.5,166.6,272.4,166.6,272.4z"/>
			<path id="XMLID_493_" class="st12" d="M160.7,256.1c0,0-9.7-7.9-13.7,0C151.3,254.6,154.4,253.1,160.7,256.1z"/>
			<path id="XMLID_492_" class="st12" d="M150,262.1c0,0,2.2-8,10.8-6.1C156,257.3,154.7,257.2,150,262.1z"/>
			<path id="XMLID_491_" class="st12" d="M160.7,256c0,0,2.6-7.5,7.4-5.3C164.7,251.9,163.5,251.7,160.7,256z"/>
			<path id="XMLID_485_" class="st12" d="M160.5,255.6c0,0,5.9-4.1,7.8,0.8C164.8,255.5,166,254.3,160.5,255.6z"/>
			<path id="XMLID_482_" class="st12" d="M171,255.1c0,0,6.7-8,10.3,0.9C177.6,256.3,178.9,251.9,171,255.1z"/>
			<path id="XMLID_479_" class="st12" d="M171.2,255.3c0,0,7.8,2,5.5,7.5C174.7,259.2,176.7,259.5,171.2,255.3z"/>
			<path id="XMLID_476_" class="st12" d="M171.1,255.4c0,0-1.9-9.2-9.1-5.2C166.1,251,167.6,249.9,171.1,255.4z"/>
			<path id="XMLID_473_" class="st12" d="M170.4,254.9c0,0-4.7-5.6-9.6,0.6C164.3,254.1,165.5,252.9,170.4,254.9z"/>
			<circle id="XMLID_469_" class="st10" cx="160.2" cy="256.7" r="1"/>
			<circle id="XMLID_466_" class="st10" cx="161.3" cy="256" r="1"/>
			<circle id="XMLID_463_" class="st10" cx="169.8" cy="255.3" r="1"/>
			<circle id="XMLID_460_" class="st10" cx="171.2" cy="256" r="1"/>
		</g>
	</g>
	<path id="XMLID_451_" class="st13" d="M58.8,244.2l-12.1,12.1l-21.9,21.9l-2.1,2.1c-0.2-0.7-0.3-1.4-0.4-2.1
		c-0.2-0.8-0.3-1.7-0.4-2.5c-0.4-2.4-0.6-4.7-0.8-6.9c-0.1-1.8-0.2-3.4-0.2-5l4.4-4.4l2.2-2.2l10.9-10.9c2.1-0.4,4.2-0.8,6.3-1
		c5.2-0.7,10.1-0.9,13.6-1C58.1,244.2,58.3,244.2,58.8,244.2z"/>
	<path id="XMLID_449_" class="st13" d="M91.9,251.1L80,263l-8.1,8.1l-1.1,1.1l-0.3,0.3l-1.1,1l-2.1,2.1l-0.7,0.7l-1.8,1.8
		l-25.9,25.9c-3.8-1.6-6.9-4.3-9.3-7.5c-1.3-1.7-2.4-3.6-3.3-5.5l12.9-12.9l2.5-2.5L63.4,254l9-9c1,0.1,2,0.3,3,0.4
		c0.2,0,0.5,0.1,0.7,0.1c0.3,0,0.6,0.1,0.9,0.2c0.3,0.1,0.6,0.1,0.9,0.2c0.2,0,0.3,0.1,0.5,0.1c0.2,0,0.4,0.1,0.6,0.1
		c0.3,0.1,0.6,0.1,0.8,0.2c0.6,0.1,1.1,0.3,1.7,0.4c0.3,0.1,0.5,0.1,0.8,0.2c0.3,0.1,0.6,0.2,0.8,0.2c0.3,0.1,0.5,0.2,0.8,0.2
		c0.3,0.1,0.5,0.2,0.8,0.3c0.3,0.1,0.5,0.2,0.8,0.3c0.3,0.1,0.5,0.2,0.8,0.3c0.2,0.1,0.4,0.2,0.6,0.2c0.1,0,0.1,0,0.2,0.1
		c0.2,0.1,0.4,0.2,0.6,0.2c0.1,0,0.2,0.1,0.2,0.1c0.4,0.2,0.9,0.4,1.3,0.6C90.2,250,91.1,250.5,91.9,251.1z"/>
	<path id="XMLID_447_" class="st13" d="M179.1,245.2l-8.5,8.5l-0.4,0.4l-0.2,0.2l-0.1,0.1l-0.2,0.2l-0.9,0.9l-0.6,0.6l-0.2,0.2
		l-5.5,5.5l-0.8,0.8l-13.1,13.1l-14,14c-0.7-1.1-1.5-2.3-2.2-3.6c-0.1-0.1-0.1-0.2-0.2-0.4c-0.9-1.6-1.7-3.2-2.4-4.8
		c-0.3-0.6-0.5-1.1-0.7-1.7c-0.1-0.4-0.3-0.7-0.4-1.1c-0.2-0.6-0.4-1.2-0.6-1.7c-0.1-0.2-0.2-0.5-0.3-0.7c-0.8-2.5-1.4-4.9-1.8-7.3
		l22.9-22.9c1.1-0.2,2.1-0.3,3.2-0.5c0,0,0,0,0,0c5.9-0.4,11.5-0.6,16-0.7c0,0,0,0,0,0h0.1c1.7,0.1,3.7,0.2,5.8,0.3
		C175.6,244.8,177.4,245,179.1,245.2z"/>
	<path id="XMLID_445_" class="st13" d="M203.4,261.9l-13.8,13.8l-5.2,5.2l-4.8,4.8l-20.5,20.5c-1-0.2-2-0.4-3-0.7
		c-0.3-0.1-0.6-0.2-0.9-0.3c-4.6-1.4-8.2-3.3-10.6-4.8c-0.3-0.2-0.7-0.4-1-0.7l14.1-14l4.8-4.8l2.8-2.8l1.1-1.1l1.4-1.4l3.9-3.9
		l23-23c4.6,1.9,8,4.6,8.7,8.4c0.1,0.3,0.1,0.7,0.1,1.1c0,0.1,0,0.1,0,0.2C203.3,259.6,203.4,260.7,203.4,261.9z"/>
</g>
</svg>
