<?xml version="1.0" encoding="utf-8"?>
<!-- Generator: Adobe Illustrator 19.0.0, SVG Export Plug-In . SVG Version: 6.00 Build 0)  -->
<svg version="1.1" id="Layer_1" xmlns="http://www.w3.org/2000/svg" xmlns:xlink="http://www.w3.org/1999/xlink" x="0px" y="0px"
	 viewBox="0 0 310.8 172.3" style="enable-background:new 0 0 310.8 172.3;" xml:space="preserve">
<style type="text/css">
	.st0{fill:#1D1D1B;}
	.st1{fill:#FFFFFF;}
</style>
<g id="XMLID_19329_">
	<g id="XMLID_19332_">
		<polygon id="XMLID_19347_" class="st0" points="299.2,64.2 299.2,72.4 299.2,80.6 291,80.6 291,88.8 283.6,88.8 282.8,88.8 
			282.8,97 274.6,97 274.6,105.2 267.6,105.2 266.4,105.2 213.4,105.2 213.4,97 212.8,97 205.3,97 205.3,88.8 197.1,88.8 
			197.1,80.6 197.1,72.4 179.6,72.4 179.6,80.6 179.6,88.8 172.8,88.8 171.4,88.8 171.4,97 163.2,97 163.2,105.2 156.5,105.2 
			155,105.2 110.5,105.2 110.5,97 108.4,97 102.3,97 102.3,88.8 94.1,88.8 94.1,80.6 86.1,80.6 86.1,72.4 86.1,64.2 		"/>
		<g id="XMLID_19340_">
			<rect id="XMLID_19346_" x="266.4" y="80.6" class="st1" width="8.2" height="8.2"/>
			<rect id="XMLID_19345_" x="258.2" y="72.4" class="st1" width="8.2" height="8.2"/>
			<rect id="XMLID_19344_" x="258.2" y="88.8" class="st1" width="8.2" height="8.2"/>
			<rect id="XMLID_19343_" x="250" y="80.6" class="st1" width="8.2" height="8.2"/>
			<rect id="XMLID_19342_" x="274.6" y="72.4" class="st1" width="8.2" height="8.2"/>
			<rect id="XMLID_19341_" x="241.8" y="88.8" class="st1" width="8.2" height="8.2"/>
		</g>
		<g id="XMLID_19333_">
			<rect id="XMLID_19339_" x="155.3" y="80.6" class="st1" width="8.2" height="8.2"/>
			<rect id="XMLID_19338_" x="147.1" y="72.4" class="st1" width="8.2" height="8.2"/>
			<rect id="XMLID_19337_" x="147.1" y="88.8" class="st1" width="8.2" height="8.2"/>
			<rect id="XMLID_19336_" x="138.9" y="80.6" class="st1" width="8.2" height="8.2"/>
			<rect id="XMLID_19335_" x="163.5" y="72.4" class="st1" width="8.2" height="8.2"/>
			<rect id="XMLID_19334_" x="130.7" y="88.8" class="st1" width="8.2" height="8.2"/>
		</g>
	</g>
	<rect id="XMLID_19331_" x="43" y="64.2" class="st0" width="43.1" height="8.2"/>
	<rect id="XMLID_19330_" x="18.4" y="72.4" class="st0" width="24.6" height="8.2"/>
</g>
</svg>
