<?xml version="1.0" encoding="utf-8"?>
<!-- Generator: Adobe Illustrator 19.0.0, SVG Export Plug-In . SVG Version: 6.00 Build 0)  -->
<svg version="1.1" id="Layer_1" xmlns="http://www.w3.org/2000/svg" xmlns:xlink="http://www.w3.org/1999/xlink" x="0px" y="0px"
	 viewBox="-342 226.5 274.3 109.5" enable-background="new -342 226.5 274.3 109.5" xml:space="preserve">
<g id="XMLID_5585_">
	<g id="XMLID_4537_">
		<g>
			<path id="XMLID_4538_" fill="#EF7B05" d="M-107.2,254.6h-20.7c-1.8-0.1-3.7-0.2-5.6-0.2c-2.1,0-4.3,0-6.6,0.1h-0.4
				c-0.2,0-0.8,0-1.8,0.1h-0.8l0,0c-6.8,0.2-24.9,1-35.3,3.1c-1.9,0.3-10.7,1.9-17.1,2.6c-6.8,0.8-11.5,0.9-12,0.9l0,0h-0.1
				c0,0,0,0-0.1,0l0,0c-0.5,0-5.2-0.1-12-0.9c-6.4-0.7-15.2-2.3-17.1-2.6c-10.4-2-28.5-2.8-35.3-3.1l0,0h-0.8c-1,0-1.7,0-1.8-0.1
				h-0.4c-2.3,0-4.5-0.1-6.6-0.1c-1.9,0-3.8,0-5.6,0.2h-20.8c-1,0-1.9,0.9-1.9,2v6.6c0,1.2,0.5,2.4,1.3,3.3c1.3,1.4,3.4,4.2,4.7,9.6
				h1.2c2.5,9.2,8.2,21.6,17,28.8c0.3,0.3,0.7,0.5,1,0.8h0.1h0.1c6.7,5.6,17.6,8.4,32.6,8.4c2.9,0,5.9-0.1,9-0.3
				c7.7-0.5,13.7-4.5,17.9-11.7c0.2-0.4,0.4-0.7,0.6-1.1l0,0c0.1-0.1,0.2-0.3,0.2-0.5c1.7-3.5,3.4-7.4,4.8-11l1,0.5
				c1.5-3.9,2.6-7.4,3.2-9.8c1-4.6,1.9-6.1,3.2-6.3l0,0c1.4-0.2,2.9-0.4,4.4-0.4s2.9,0.1,4.4,0.4l0,0c1.3,0.2,2.2,1.7,3.2,6.3
				c0.5,2.4,1.7,5.9,3.2,9.8l1-0.5c1.4,3.6,3.1,7.6,4.8,11c0.1,0.2,0.2,0.3,0.2,0.5l0,0c0.2,0.3,0.4,0.7,0.6,1.1
				c4.3,7.4,10.3,11.3,18,11.8c3.1,0.2,6.1,0.3,9,0.3c15,0,25.9-2.8,32.6-8.4h0.1h0.1c0.4-0.2,0.7-0.5,1-0.8
				c8.8-7.3,14.5-19.6,17-28.8h1.2c1.4-5.4,3.4-8.3,4.7-9.6c0.8-0.9,1.3-2.1,1.3-3.3v-6.6C-105.3,255.5-106.2,254.6-107.2,254.6z"/>
		</g>
	</g>
	<path id="XMLID_4533_" fill="#EF7B05" d="M-107.2,254.6h-20.7c-1.8-0.1-3.7-0.2-5.6-0.2c-2.1,0-4.3,0-6.6,0.1h-0.4
		c-0.2,0-0.8,0-1.8,0.1h-0.8l0,0c-6.8,0.2-24.9,1-35.3,3.1c-1.9,0.3-10.7,1.9-17.1,2.6c-6.8,0.8-11.5,0.9-12,0.9l0,0h-0.1
		c0,0,0,0-0.1,0l0,0c-0.5,0-5.2-0.1-12-0.9c-6.4-0.7-15.2-2.3-17.1-2.6c-10.4-2-28.5-2.8-35.3-3.1l0,0h-0.8c-1,0-1.7,0-1.8-0.1h-0.4
		c-2.3,0-4.5-0.1-6.6-0.1c-1.9,0-3.8,0-5.6,0.2h-20.8c-1,0-17.3,0.5-17.3,1.6l-1,5.5c0,1.2,16.9,3.9,17.8,4.8
		c1.3,1.4,3.4,4.2,4.7,9.6h1.2c2.5,9.2,8.2,21.6,17,28.8c0.3,0.3,0.7,0.5,1,0.8h0.1h0.1c6.7,5.6,17.6,8.4,32.6,8.4
		c2.9,0,5.9-0.1,9-0.3c7.7-0.5,13.7-4.5,17.9-11.7c0.2-0.4,0.4-0.7,0.6-1.1l0,0c0.1-0.1,0.2-0.3,0.2-0.5c1.7-3.5,3.4-7.4,4.8-11
		l1,0.5c1.5-3.9,2.6-7.4,3.2-9.8c1-4.6,1.9-6.1,3.2-6.3l0,0c1.4-0.2,2.9-0.4,4.4-0.4s2.9,0.1,4.4,0.4l0,0c1.3,0.2,2.2,1.7,3.2,6.3
		c0.5,2.4,1.7,5.9,3.2,9.8l1-0.5c1.4,3.6,3.1,7.6,4.8,11c0.1,0.2,0.2,0.3,0.2,0.5l0,0c0.2,0.3,0.4,0.7,0.6,1.1
		c4.2,7.4,10.2,11.3,17.9,11.8c3.1,0.2,6.1,0.3,9,0.3c15,0,25.9-2.8,32.6-8.4h0.1h0.1c0.4-0.2,0.7-0.5,1-0.8
		c8.8-7.3,14.5-19.6,17-28.8h1.2c1.4-5.4,3.4-8.3,4.7-9.6c0.8-0.9,18.8-4.2,18.8-5.4v-5.7C-87.8,254.4-106.2,254.6-107.2,254.6z
		 M-243.1,312.3c-3.1,0.2-6.1,0.3-8.9,0.3c-11.2,0-26.1-1.7-33.7-9.9c-7.8-8.4-12.2-16.7-14.1-27c0.6-0.4,0.9-1.2,0.8-2
		c-0.1-0.9-0.3-1.9-0.4-2.9c-1.4-13.1,8.6-12.8,24.5-12.4c0,0,30.9,0.8,41.2,4c10.2,3.2,14.8,4.1,12.6,18.2c-0.3,1.8-0.6,3.6-1,5.4
		c-0.2,0.9,0.1,1.8,0.6,2.4C-224.2,300.2-229.7,311.4-243.1,312.3z M-129.6,302.8c-7.6,8.2-22.5,9.9-33.7,9.9
		c-2.9,0-5.9-0.1-8.9-0.3c-13.4-0.9-18.9-12.1-21.7-23.9c0.6-0.6,0.8-1.5,0.6-2.4c-0.4-1.8-0.7-3.6-1-5.4
		c-2.2-14.1,2.3-14.9,12.6-18.2c10.2-3.2,41.2-4,41.2-4c15.9-0.3,25.9-0.6,24.5,12.4c-0.1,1-0.2,1.9-0.4,2.9c-0.1,0.8,0.2,1.6,0.8,2
		C-117.4,286.1-121.8,294.3-129.6,302.8z"/>
	<g id="XMLID_2282_">
		<path id="XMLID_4531_" fill="#EF7B05" d="M-253.3,255.7c0.8,0.1,1.7,0.1,2.5,0.2C-251.6,255.8-252.4,255.7-253.3,255.7z"/>
		<path id="XMLID_4530_" fill="#EF7B05" d="M-250.7,255.9c1.3,0.1,2.5,0.2,3.8,0.4C-248.2,256.1-249.5,256-250.7,255.9z"/>
		<path id="XMLID_4529_" fill="#EF7B05" d="M-236.1,257.8c0.2,0,0.4,0.1,0.6,0.1C-235.7,257.9-235.9,257.8-236.1,257.8z"/>
		<path id="XMLID_4528_" fill="#EF7B05" d="M-232.8,258.4c0.3,0.1,0.7,0.1,1.1,0.2C-232.1,258.5-232.4,258.4-232.8,258.4z"/>
		<path id="XMLID_4527_" fill="#EF7B05" d="M-234.2,258.1c0.4,0.1,0.9,0.2,1.5,0.2C-233.3,258.3-233.8,258.2-234.2,258.1z"/>
		<path id="XMLID_4526_" fill="#EF7B05" d="M-231.7,258.6c1.1,0.2,2.3,0.4,3.6,0.6C-229.3,259-230.6,258.8-231.7,258.6z"/>
		<path id="XMLID_4525_" fill="#EF7B05" d="M-278.6,254.5c1.1,0,2.2,0,3.4,0.1C-276.4,254.5-277.5,254.5-278.6,254.5z"/>
		<path id="XMLID_4524_" fill="#EF7B05" d="M-235.4,257.9c0.2,0,0.5,0.1,0.8,0.1C-234.9,258-235.2,258-235.4,257.9z"/>
		<path id="XMLID_4523_" fill="#EF7B05" d="M-286,254.5c-0.5,0-0.9,0-1.4,0.1l0,0C-287,254.6-286.5,254.5-286,254.5z"/>
		<path id="XMLID_4522_" fill="#EF7B05" d="M-280.2,254.4c-0.5,0-1.1,0-1.6,0l0,0C-281.3,254.4-280.8,254.4-280.2,254.4z"/>
		<path id="XMLID_4521_" fill="#EF7B05" d="M-257,255.4c0.8,0.1,1.7,0.1,2.5,0.2C-255.4,255.5-256.2,255.4-257,255.4z"/>
		<path id="XMLID_4520_" fill="#EF7B05" d="M-236.1,257.8c-0.3-0.1-0.5-0.1-0.7-0.1c-2.9-0.6-6.5-1.1-10.2-1.4
			c3.7,0.4,7.3,0.9,10.2,1.4C-236.6,257.7-236.4,257.8-236.1,257.8z"/>
		<path id="XMLID_4519_" fill="#EF7B05" d="M-168.4,256.2c1.2-0.1,2.5-0.3,3.8-0.4C-165.9,256-167.1,256.1-168.4,256.2z"/>
		<path id="XMLID_4512_" fill="#EF7B05" d="M-129.3,254.5c-1.4-0.1-2.8-0.1-4.2-0.1l0,0C-132.1,254.4-130.7,254.5-129.3,254.5z"/>
		<path id="XMLID_4511_" fill="#EF7B05" d="M-140.1,254.5c1.7,0,3.4-0.1,5-0.1C-136.7,254.5-138.4,254.5-140.1,254.5h-0.2H-140.1z"
			/>
		<path id="XMLID_4510_" fill="#EF7B05" d="M-141.2,254.6c-0.3,0-0.7,0-1.2,0l0,0C-141.9,254.6-141.5,254.6-141.2,254.6z"/>
		<path id="XMLID_4509_" fill="#EF7B05" d="M-141.2,254.6c0.2,0,0.3,0,0.4,0C-140.9,254.5-141,254.6-141.2,254.6z"/>
		<path id="XMLID_4508_" fill="#EF7B05" d="M-105.7,255.5c-0.3-0.5-0.9-0.9-1.6-0.9C-106.6,254.6-106,254.9-105.7,255.5z"/>
		<path id="XMLID_4507_" fill="#EF7B05" d="M-162.1,255.7c3-0.2,5.9-0.4,8.6-0.6C-156.2,255.2-159.1,255.4-162.1,255.7z"/>
		<path id="XMLID_4506_" fill="#EF7B05" d="M-207.7,261.2L-207.7,261.2L-207.7,261.2L-207.7,261.2z"/>
		<path id="XMLID_4505_" fill="#EF7B05" d="M-211.4,261c0.5,0,1,0.1,1.4,0.1C-210.4,261.1-210.8,261.1-211.4,261z"/>
		<path id="XMLID_4504_" fill="#EF7B05" d="M-207.6,261.2c0.1,0,0.2,0,0.4,0C-207.4,261.2-207.5,261.2-207.6,261.2L-207.6,261.2z"/>
		<path id="XMLID_4503_" fill="#EF7B05" d="M-164.6,255.9c0.8-0.1,1.7-0.1,2.5-0.2C-162.9,255.7-163.8,255.8-164.6,255.9z"/>
		<path id="XMLID_4502_" fill="#EF7B05" d="M-308.1,254.6c-0.3,0-0.5,0.1-0.7,0.2C-308.6,254.6-308.4,254.6-308.1,254.6
			L-308.1,254.6z"/>
		<path id="XMLID_4501_" fill="#EF7B05" d="M-217.3,260.6c1.6,0.2,3,0.3,4.2,0.4C-214.3,260.8-215.7,260.7-217.3,260.6z"/>
		<path id="XMLID_4500_" fill="#EF7B05" d="M-207.6,261.2L-207.6,261.2L-207.6,261.2L-207.6,261.2z"/>
		<path id="XMLID_4499_" fill="#EF7B05" d="M-155.3,314c-1.7,0.1-3.4,0.2-5.2,0.3C-158.7,314.2-157,314.1-155.3,314z"/>
		<path id="XMLID_4498_" fill="#EF7B05" d="M-182.6,310.6c-1.1-0.7-2.2-1.6-3.2-2.5C-184.8,309-183.7,309.9-182.6,310.6z"/>
		<path id="XMLID_4497_" fill="#EF7B05" d="M-150.4,313.4c-1.6,0.2-3.2,0.4-4.9,0.5C-153.6,313.8-152,313.7-150.4,313.4z"/>
		<path id="XMLID_4496_" fill="#EF7B05" d="M-190.4,302c0.1,0.1,0.1,0.2,0.2,0.3c1.3,2.3,2.8,4.2,4.5,5.8c-1.7-1.6-3.1-3.5-4.5-5.8
			C-190.3,302.1-190.3,302.1-190.4,302z"/>
		<path id="XMLID_4495_" fill="#EF7B05" d="M-191.7,299.4c-0.4-0.9-0.9-1.8-1.3-2.7C-192.6,297.6-192.1,298.5-191.7,299.4z"/>
		<path id="XMLID_4494_" fill="#EF7B05" d="M-190.8,301.2L-190.8,301.2c-0.1-0.2-0.2-0.3-0.3-0.5C-191,300.8-190.9,301-190.8,301.2
			L-190.8,301.2c0.1,0.1,0.1,0.2,0.2,0.3C-190.7,301.4-190.7,301.3-190.8,301.2z"/>
		<path id="XMLID_4493_" fill="#EF7B05" d="M-129.6,305c-0.2,0.1-0.3,0.3-0.5,0.4C-129.9,305.3-129.7,305.1-129.6,305
			c3.3-2.7,6.2-6.2,8.6-9.9C-123.4,298.8-126.3,302.3-129.6,305z"/>
		<path id="XMLID_4492_" fill="#EF7B05" d="M-108.1,268.3c-0.3,0.4-0.6,1-0.9,1.5C-108.7,269.2-108.4,268.7-108.1,268.3z"/>
		<path id="XMLID_4491_" fill="#EF7B05" d="M-111.4,276.2c0.7-2.7,1.5-4.8,2.4-6.3C-109.8,271.4-110.7,273.4-111.4,276.2
			L-111.4,276.2z"/>
		<polygon id="XMLID_4490_" fill="#EF7B05" points="-130.7,305.8 -130.7,305.8 -130.6,305.8 		"/>
		<path id="XMLID_4489_" fill="#EF7B05" d="M-310,256.2c0.1-0.3,0.1-0.5,0.3-0.7C-309.8,255.7-309.9,255.9-310,256.2z"/>
		<path id="XMLID_4488_" fill="#EF7B05" d="M-118.7,291.3c-0.7,1.3-1.5,2.6-2.3,3.8C-120.2,293.9-119.4,292.6-118.7,291.3z"/>
		<path id="XMLID_4468_" fill="#EF7B05" d="M-115.8,285.5c-0.8,1.9-1.8,3.9-2.9,5.8C-117.6,289.4-116.7,287.4-115.8,285.5z"/>
		<polygon id="XMLID_4462_" fill="#EF7B05" points="-196.9251,290.1578 -195.9322,289.6843 -195.9322,289.6843 		"/>
		<path id="XMLID_4460_" fill="#EF7B05" d="M-224.5,301.1L-224.5,301.1c-0.1,0.2-0.2,0.4-0.3,0.6
			C-224.7,301.5-224.6,301.3-224.5,301.1L-224.5,301.1c0-0.1,0.1-0.2,0.1-0.2C-224.4,301-224.5,301.1-224.5,301.1z"/>
		<path id="XMLID_2361_" fill="#EF7B05" d="M-302.8,276.2c0.6,2.3,1.4,4.8,2.5,7.4C-301.3,281-302.2,278.5-302.8,276.2L-302.8,276.2
			z"/>
		<path id="XMLID_2359_" fill="#EF7B05" d="M-278.8,309.5c6.6,3.1,15.6,4.7,26.8,4.7l0,0C-263.3,314.3-272.3,312.7-278.8,309.5z"/>
		<path id="XMLID_2292_" fill="#EF7B05" d="M-284.7,305.8c-0.2-0.1-0.4-0.2-0.5-0.4C-285.1,305.5-284.9,305.7-284.7,305.8
			L-284.7,305.8L-284.7,305.8z"/>
		<path id="XMLID_2291_" fill="#EF7B05" d="M-298.6,287.4c-0.6-1.3-1.2-2.6-1.7-3.9C-299.8,284.8-299.3,286.1-298.6,287.4z"/>
		<path id="XMLID_2290_" fill="#EF7B05" d="M-310,263.2v-6.6c0-0.1,0-0.3,0-0.4c0,0.1,0,0.3,0,0.4V263.2c0,1.2,0.5,2.4,1.3,3.3
			c0.3,0.3,0.7,0.8,1.1,1.3c-0.4-0.5-0.8-1-1.1-1.3C-309.5,265.7-310,264.5-310,263.2z"/>
		<path id="XMLID_2289_" fill="#EF7B05" d="M-200.6,278c-0.1-0.4-0.2-0.8-0.4-1.2C-200.9,277.2-200.7,277.6-200.6,278z"/>
		<path id="XMLID_2288_" fill="#EF7B05" d="M-203.3,274c-0.7-0.1-1.5-0.2-2.2-0.3C-204.7,273.8-204,273.9-203.3,274L-203.3,274
			L-203.3,274z"/>
		<path id="XMLID_2287_" fill="#EF7B05" d="M-219.5,289.6c-0.5,1.4-1.1,2.8-1.7,4.2C-220.6,292.4-220,291-219.5,289.6L-219.5,289.6z
			"/>
		<path id="XMLID_2286_" fill="#EF7B05" d="M-201,276.9c-0.1-0.4-0.2-0.7-0.4-0.9C-201.2,276.2-201.1,276.5-201,276.9z"/>
		<path id="XMLID_2285_" fill="#EF7B05" d="M-207.7,273.7c-0.4,0-0.7,0-1.1,0C-208.4,273.7-208,273.7-207.7,273.7L-207.7,273.7z"/>
		<path id="XMLID_2284_" fill="#EF7B05" d="M-218.4,290.1c1.1-2.9,2-5.6,2.7-7.8C-216.4,284.5-217.3,287.2-218.4,290.1L-218.4,290.1
			z"/>
		<path id="XMLID_2283_" fill="#EF7B05" d="M-212.1,274L-212.1,274c0.4-0.1,0.7-0.1,1.1-0.2C-211.3,273.9-211.7,274-212.1,274
			L-212.1,274z"/>
	</g>
	<g id="XMLID_2280_">
		<g>
			<path id="XMLID_2281_" fill="#FFFFFF" d="M-252.1,311.6c-11,0-25.6-1.7-32.9-9.5c-7.6-8.1-11.8-16.2-13.7-25.9
				c0.6-0.7,0.9-1.6,0.7-2.5c-0.1-0.9-0.3-1.9-0.4-2.8c-0.4-3.7,0.2-6.3,1.7-8c2.5-2.8,7.7-3.3,14.8-3.3c2,0,4.2,0,6.5,0.1h0.4
				c0.3,0,30.9,0.8,40.9,4l1.1,0.3c9.5,3,12.7,4,10.7,16.6c-0.3,2-0.6,3.7-1,5.4c-0.2,1,0,2,0.5,2.8c-3.6,14.7-10.1,21.8-20.6,22.6
				C-246.2,311.5-249.2,311.6-252.1,311.6z"/>
		</g>
	</g>
	<g id="XMLID_2278_">
		<g>
			<path id="XMLID_2279_" fill="#FFFFFF" d="M-163.3,311.6c-2.8,0-5.8-0.1-8.9-0.3c-10.5-0.7-17-7.9-20.6-22.6
				c0.5-0.8,0.7-1.9,0.5-2.8c-0.3-1.7-0.7-3.4-1-5.4c-2-12.6,1.2-13.6,10.7-16.6l1.1-0.3c10-3.2,40.6-3.9,40.9-4h0.4
				c2.3,0,4.5-0.1,6.5-0.1c7.1,0,12.3,0.6,14.8,3.3c1.5,1.7,2.1,4.3,1.7,8c-0.1,1-0.2,1.9-0.4,2.8c-0.1,0.9,0.1,1.8,0.7,2.5
				c-1.9,9.8-6.1,17.8-13.7,25.9C-137.7,309.9-152.3,311.6-163.3,311.6z"/>
		</g>
	</g>
</g>
</svg>
