<?xml version="1.0" encoding="utf-8"?>
<!-- Generator: Adobe Illustrator 19.0.0, SVG Export Plug-In . SVG Version: 6.00 Build 0)  -->
<svg version="1.1" id="Layer_1" xmlns="http://www.w3.org/2000/svg" xmlns:xlink="http://www.w3.org/1999/xlink" x="0px" y="0px"
	 viewBox="-343 228 273 106" enable-background="new -343 228 273 106" xml:space="preserve">
<path id="XMLID_900_" fill="#EF7B05" d="M-310.6,257.953c26.8-13.4,75.8,2.2,85.5,11.7c18.2,18.2-11.7,43.4-44.6,43.4
	S-337.5,271.253-310.6,257.953z"/>
<path id="XMLID_899_" fill="#EF7B05" d="M-113.1,257.953c-26.8-13.4-75.8,2.2-85.5,11.7c-18.2,18.2,11.7,43.4,44.6,43.4
	S-86.3,271.253-113.1,257.953z"/>
<path id="XMLID_898_" fill="none" stroke="#000000" stroke-width="6" stroke-miterlimit="10" d="M-224.5,278.353
	c0,0,13.3-8.2,26.5,0"/>
<line id="XMLID_682_" fill="none" stroke="#000000" stroke-width="6" stroke-linecap="round" stroke-linejoin="round" stroke-miterlimit="10" x1="-107.5" y1="274.853" x2="-92.5" y2="274.853"/>
<line id="XMLID_642_" fill="none" stroke="#000000" stroke-width="6" stroke-linecap="round" stroke-linejoin="round" stroke-miterlimit="10" x1="-317.5" y1="275.853" x2="-335.5" y2="275.853"/>
<ellipse id="XMLID_641_" transform="matrix(-0.8069 -0.5907 0.5907 -0.8069 -520.2948 386.4566)" cx="-196.9787" cy="278.2737" rx="1.9" ry="3.7"/>
<ellipse id="XMLID_640_" transform="matrix(0.8913 -0.4534 0.4534 0.8913 -150.531 -71.3297)" cx="-224.0363" cy="278.2946" rx="1.9" ry="3.7"/>
<ellipse id="XMLID_639_" cx="-108.6" cy="274.353" rx="1.3" ry="2.4"/>
<ellipse id="XMLID_629_" cx="-316.6" cy="275.353" rx="1.3" ry="2.4"/>
</svg>
