<?xml version="1.0" encoding="utf-8"?>
<!-- Generator: Adobe Illustrator 19.0.0, SVG Export Plug-In . SVG Version: 6.00 Build 0)  -->
<svg version="1.1" id="Layer_1" xmlns="http://www.w3.org/2000/svg" xmlns:xlink="http://www.w3.org/1999/xlink" x="0px" y="0px"
	 viewBox="-312 206 335 150" enable-background="new -312 206 335 150" xml:space="preserve">
<g id="XMLID_325_">
	<path id="XMLID_579_" fill="#EF7B05" d="M-14.2803,272.85c0-1.1-1.4-1.1-3.3-1.1h-23.9c-0.8-8-3.3-14.1-7.7-18.3
		c-4.9-4.7-12.3-7.6-24-9.2c-4.8-0.7-9.6-1-14.3-1c-3.2,0-6.3,0.5-9.3,0.5h-87.5c-3,0-6.1-0.5-9.3-0.5c-4.7,0-9.5,0.3-14.3,1
		c-11.7,1.6-19.1,4.5-24,9.2c-4.4,4.2-6.9,10.3-7.7,18.3h-25.9c-1.9,0-3.3,0-3.3,1.1s-0.1,1.8,0,2.2c0.1,0.4-0.3,0.7,1.5,0.7h27.4
		c0,1,0,0.8,0,1.2c-0.2,5.9-0.6,16.8,6.7,28.6c7.9,12.8,23.2,13,23.9,13c0,0,0.1,0,0.3,0c0.6,0,1.7,0.1,3.3,0.1
		c3.2,0,7.8-0.3,12.8-1.7c5.1-1.4,10.6-3.9,15.7-8.3c9.1-7.8,14-14.5,17.5-21.3c0.3,0.4,0.9,1,0.9,1.8c0,1-4.6,8.6-4.6,8.6
		s2,0.5,3.6,0.3s2.7-4.3,6.3-12.2c3.6-8,3.6-9.9,3.4-11c-0.2-1.1-2.8-1.9-2.8-1.9s-0.2,1.3-0.7,2.8s-1.5,4.2-2.2,4.9
		c-0.6,0.7-1.4,0.6-1.4,0.6l0,0c1-1.9,1.5-3.8,2.2-5.8c0.1-0.4,1.8-5.4,1.9-10.9c1,0.2,2.6,0.1,2.8,0.1c0.4,0,9.7,0,9.7,0
		s9.3,0,9.7,0c0.2,0,1.8,0.1,2.8-0.1c0.1,5.5,2.2,10.4,2.3,10.8c0.7,2,1.6,4,2.6,5.8l0,0c0,0-1.1,0.1-1.7-0.6
		c-0.6-0.7-1.8-3.4-2.3-4.9s-0.8-2.8-0.8-2.8s-2.7,0.7-2.9,1.9c-0.2,1.1-0.2,3,3.4,11c3.6,8,4.7,12,6.3,12.2s3.6-0.3,3.6-0.3
		s-4.6-7.6-4.6-8.6c0-0.7,0.5-1.4,0.9-1.8c3.5,6.9,8.4,13.5,17.5,21.4c10.1,8.7,22.2,10.1,28.5,10.1l0,0c1.6,0,2.8-0.1,3.3-0.2
		c0.1,0,0.2,0,0.3,0c0.6,0,15.9-0.2,23.8-13c7.2-11.7,6.9-22.8,6.7-28.6c0-0.3,0-0.2,0-1.2h25.4c1.8,0,1.3-0.3,1.5-0.7
		C-14.1803,274.65-14.2803,274.05-14.2803,272.85z M-156.2803,274.55c-1.4-0.1-1.5,2.9-1.8,4.1s-0.6,0.8-1.7,0.8c-1,0-1.6,1-1.9,2.7
		c-0.3,1.7,1.6,2.2,1.6,2.2c-3.5,7.5-8.3,14.6-18.2,23.1c-9.7,8.4-21.4,9.6-27.5,9.6c-1.6,0-2.7-0.1-3.2-0.1c-0.2,0-0.3,0-0.4,0
		c-0.1,0-15-0.1-22.5-12.2c-7-11.3-6.6-21.9-6.4-27.6c0-0.4,0-0.8,0-1.1c0.5-19.3,8.5-27.1,30.5-30.2c4.7-0.6,9.4-1,14.1-1
		c14,0,27.3,3.1,34.5,8.1C-151.7803,257.95-155.4803,271.95-156.2803,274.55z M-130.6803,261.75c-1.5,0-9.8,0-9.8,0s-8.3,0-9.8,0
		c-0.9,0-1.9,0.3-2.7,0.4c-0.3-4.1-1.6-7.8-5.1-10.3c-3.2-2.2-7.6-4.1-12.7-5.1h60.6c-5.1,1-9.4,2.9-12.7,5.2
		c-3.6,2.5-4.9,6.3-5.1,10.4C-128.7803,262.15-129.7803,261.75-130.6803,261.75z M-49.2803,304.65c-7.5,12-22.3,12.2-22.5,12.2
		c0,0-0.2,0-0.4,0c-0.5,0-1.6,0.1-3.2,0.1c-6.1,0-17.7-1.3-27.5-9.6c-9.9-8.5-14.7-15.6-18.2-23.1c0,0,1.9-0.5,1.6-2.2
		c-0.3-1.7-0.9-2.6-1.9-2.7c-1,0-1.4,0.4-1.7-0.8c-0.3-1.2-0.5-4.2-1.8-4.1c-0.8-2.6-4.5-16.6,2.8-21.6c7.3-5,20.5-8.1,34.5-8.1
		c4.6,0,9.4,0.3,14,1c22,3,30,10.9,30.5,30.2c0,0.3,0,0.7,0,1.1C-42.6803,282.75-42.2803,293.35-49.2803,304.65z"/>
	<path id="XMLID_582_" fill="#7F3905" d="M-49.2803,304.65c-7.5,12-22.3,12.2-22.5,12.2c0,0-0.2,0-0.4,0c-0.5,0-1.6,0.1-3.2,0.1
		c-6.1,0-17.7-1.3-27.5-9.6c-9.9-8.5-14.7-15.6-18.2-23.1c0,0,1.9-0.5,1.6-2.2c-0.3-1.7-0.9-2.6-1.9-2.7c-1,0-1.4,0.4-1.7-0.8
		c-0.3-1.2-0.5-4.2-1.8-4.1c-0.8-2.6-4.5-16.6,2.8-21.6c7.3-5,20.5-8.1,34.5-8.1c4.6,0,9.4,0.3,14,1c22,3,30,10.9,30.5,30.2
		c0,0.3,0,0.7,0,1.1C-42.6803,282.75-42.2803,293.35-49.2803,304.65z"/>
	<path id="XMLID_601_" fill="#7F3905" d="M-156.2803,274.55c-1.4-0.1-1.5,2.9-1.8,4.1s-0.6,0.8-1.7,0.8c-1,0-1.6,1-1.9,2.7
		c-0.3,1.7,1.6,2.2,1.6,2.2c-3.5,7.5-8.3,14.6-18.2,23.1c-9.7,8.4-21.4,9.6-27.5,9.6c-1.6,0-2.7-0.1-3.2-0.1c-0.2,0-0.3,0-0.4,0
		c-0.1,0-15-0.1-22.5-12.2c-7-11.3-6.6-21.9-6.4-27.6c0-0.4,0-0.8,0-1.1c0.5-19.3,8.5-27.1,30.5-30.2c4.7-0.6,9.4-1,14.1-1
		c14,0,27.3,3.1,34.5,8.1C-151.7803,257.95-155.4803,271.95-156.2803,274.55z"/>
</g>
</svg>
