<?xml version="1.0" encoding="utf-8"?>
<!-- Generator: Adobe Illustrator 19.0.0, SVG Export Plug-In . SVG Version: 6.00 Build 0)  -->
<svg version="1.1" id="Layer_1" xmlns="http://www.w3.org/2000/svg" xmlns:xlink="http://www.w3.org/1999/xlink" x="0px" y="0px"
	 viewBox="0 0 243.9189 234.4595" enable-background="new 0 0 243.9189 234.4595" xml:space="preserve">
<g id="XMLID_444_">
	<g id="XMLID_5604_">
		<g id="XMLID_5622_">
			<path id="XMLID_5636_" fill="#98BE3D" d="M72.7495,49.8582c0,0-12.9176,11.5902-11.1015,22.7209
				c0,0,5.9264-8.8727,16.2664-8.1884c0,0-12.2662,10.2733-14.1881,24.4069L42.4292,98.045
				C31.6705,86.7127,13.3841,87.7855,13.3841,87.7855c7.1287-7.6352,17.4136-5.2146,17.4136-5.2146
				c-6.1172-9.4193-23.3512-9.0088-23.3512-9.0088c12.1528-12.3925,26.1425-3.3286,26.1425-3.3286
				C24.3952,55.4849,4.9109,57.0718,4.9109,57.0718c15.9513-11.826,29.5256-3.4933,34.2112,0.2039
				c1.7114-6.9525,7.163-19.2088,24.4477-21.2658c0,0-15.3551,12.2811-12.2288,29.443
				C51.3411,65.453,55.5418,49.1556,72.7495,49.8582z"/>
			<path id="XMLID_5635_" fill="#FEC214" d="M105.138,123.945c-1.4138-6.0053-3.8647-11.3863-6.0808-15.2273
				c-14.0625-24.343-30.1835-26.8363-47.1276-19.481c-13.4168,5.8245-21.9594,15.5006-20.8761,32.6282
				C69.4776,110.8462,89.2947,118.218,105.138,123.945z"/>
			<g id="XMLID_5623_">
				<path id="XMLID_5634_" fill="#FCDB2F" d="M73.3422,105.8449c0.6194,2.8938,5.0185,1.9582,4.387-0.9505
					C77.1023,101.9923,72.7109,102.9466,73.3422,105.8449z"/>
				<path id="XMLID_5633_" fill="#FCDB2F" d="M65.1909,107.6119c-0.626-2.9004-5.0096-1.9528-4.3882,0.9482
					C61.4462,111.4754,65.8189,110.4986,65.1909,107.6119z"/>
				<path id="XMLID_5632_" fill="#FCDB2F" d="M48.2698,111.2765c0.6259,2.9,5.0162,1.9506,4.3859-0.9499
					C52.0286,107.4273,47.6395,108.3766,48.2698,111.2765z"/>
				<path id="XMLID_5631_" fill="#FCDB2F" d="M79.5641,93.6695c2.9092-0.633,1.9406-5.0135-0.9532-4.3882
					C75.7116,89.9106,76.6604,94.2981,79.5641,93.6695z"/>
				<path id="XMLID_5630_" fill="#FCDB2F" d="M56.2085,96.4317c-0.6281-2.8988-5.014-1.9528-4.3881,0.9499
					C52.4485,100.2798,56.8378,99.3354,56.2085,96.4317z"/>
				<path id="XMLID_5629_" fill="#FCDB2F" d="M86.7116,116.0729c-0.6843-3.182-5.5199-1.6403-4.2559,1.3522
					c1.253,0.2137,2.4707,0.4496,3.6542,0.7019C86.6268,117.6064,86.8802,116.8449,86.7116,116.0729z"/>
				<path id="XMLID_5628_" fill="#FCDB2F" d="M35.7303,113.9924c0.6336,2.9081,5.0162,1.9417,4.3914-0.9499
					C39.4902,110.1387,35.1032,111.0936,35.7303,113.9924z"/>
				<path id="XMLID_5627_" fill="#FCDB2F" d="M64.3589,94.6662c0.2634,1.2112,1.4557,1.9803,2.6669,1.7175
					c1.2122-0.2612,1.9813-1.4574,1.7202-2.668C68.1211,90.822,63.7274,91.757,64.3589,94.6662z"/>
				<path id="XMLID_5626_" fill="#FCDB2F" d="M39.2853,100.0974c0.6237,2.8993,5.0184,1.9511,4.3848-0.9505
					C43.0508,96.2553,38.6605,97.1893,39.2853,100.0974z"/>
				<path id="XMLID_5625_" fill="#FCDB2F" d="M96.5844,111.6385c-1.2154,0.2639-1.9824,1.4574-1.7223,2.6702
					c0.6292,2.897,5.0162,1.9527,4.388-0.9505C98.9889,112.1477,97.7932,111.3774,96.5844,111.6385z"/>
				<path id="XMLID_5624_" fill="#FCDB2F" d="M85.8774,103.1295c0.6293,2.8977,5.0163,1.9549,4.3904-0.9505
					C89.6331,99.2709,85.2526,100.2346,85.8774,103.1295z"/>
			</g>
		</g>
		<g id="XMLID_5605_">
			<path id="XMLID_5620_" fill="#98BE3D" d="M178.8017,49.8582c0,0,12.9186,11.5902,11.1015,22.7209
				c0,0-5.9266-8.8727-16.2643-8.1884c0,0,12.2641,10.2733,14.1848,24.4069l21.2981,9.2474
				c10.7566-11.3323,29.0452-10.2595,29.0452-10.2595c-7.1288-7.6352-17.4136-5.2146-17.4136-5.2146
				c6.1138-9.4193,23.3534-9.0088,23.3534-9.0088c-12.155-12.3925-26.1459-3.3286-26.1459-3.3286
				c9.1972-14.7486,28.6771-13.1617,28.6771-13.1617c-15.9513-11.826-29.5212-3.4933-34.2068,0.2039
				c-1.7137-6.9525-7.1653-19.2088-24.4499-21.2658c0,0,15.3573,12.2811,12.2288,29.443
				C200.2101,65.453,196.0071,49.1556,178.8017,49.8582z"/>
			<path id="XMLID_5619_" fill="#FEC214" d="M146.4142,123.945c3.1958-13.5793,19.5747-49.3074,53.2063-34.7083
				c13.4189,5.8245,21.9615,15.5006,20.8784,32.6282C182.0746,110.8462,162.2564,118.218,146.4142,123.945z"/>
			<g id="XMLID_5606_">
				<path id="XMLID_5618_" fill="#FCDB2F" d="M176.4908,103.1763c2.8994,0.6259,1.9516,5.0163-0.9509,4.387
					c-1.2112-0.2634-1.9803-1.4585-1.718-2.669C174.0863,103.6828,175.2775,102.913,176.4908,103.1763z"/>
				<path id="XMLID_5616_" fill="#FCDB2F" d="M186.3613,107.6119c0.6292-2.9082,5.0163-1.945,4.3849,0.9482
					C190.1213,111.4595,185.7288,110.514,186.3613,107.6119z"/>
				<path id="XMLID_5615_" fill="#FCDB2F" d="M203.2824,111.2765c-0.627,2.9038-5.0184,1.9451-4.3881-0.9499
					C199.5224,107.4322,203.9094,108.369,203.2824,111.2765z"/>
				<path id="XMLID_5614_" fill="#FCDB2F" d="M171.9892,93.6695c-2.9082-0.6309-1.9461-5.014,0.951-4.3882
					c1.2088,0.2624,1.9792,1.4579,1.7179,2.6697C174.3948,93.1626,173.1992,93.9317,171.9892,93.6695z"/>
				<path id="XMLID_5613_" fill="#FCDB2F" d="M195.3426,96.4317c0.6237-2.9032,5.0185-1.9456,4.3882,0.9499
					C199.108,100.2754,194.7145,99.342,195.3426,96.4317z"/>
				<path id="XMLID_5612_" fill="#FCDB2F" d="M164.8384,116.0729c0.2611-1.2116,1.4546-1.9803,2.669-1.7179
					c1.2122,0.2623,1.9824,1.4579,1.7191,2.6673c-0.0308,0.1422-0.0749,0.2767-0.1289,0.4029
					c-1.2552,0.2137-2.4696,0.4496-3.6575,0.7019C164.921,117.6064,164.6698,116.8449,164.8384,116.0729z"/>
				<path id="XMLID_5611_" fill="#FCDB2F" d="M215.8198,113.9924c-0.6282,2.9016-5.0185,1.9455-4.3882-0.9499
					C212.0631,110.1321,216.4513,111.1019,215.8198,113.9924z"/>
				<path id="XMLID_5610_" fill="#FCDB2F" d="M187.1922,94.6662c-0.2644,1.2112-1.4546,1.9803-2.6678,1.7175
					c-1.21-0.2612-1.9826-1.4574-1.7192-2.668C183.4322,90.8176,187.8237,91.7637,187.1922,94.6662z"/>
				<path id="XMLID_5609_" fill="#FCDB2F" d="M212.2636,100.0974c-0.2579,1.211-1.4557,1.9814-2.6679,1.7191
					c-1.2079-0.2628-1.9803-1.459-1.7158-2.6695C208.5081,96.2492,212.8928,97.197,212.2636,100.0974z"/>
				<path id="XMLID_5608_" fill="#FCDB2F" d="M154.9701,111.6385c1.2122,0.2639,1.9769,1.4574,1.7202,2.6702
					c-0.2624,1.2105-1.4591,1.9808-2.6735,1.7179c-1.2034-0.2622-1.9792-1.4579-1.7158-2.6684
					C152.5632,112.1477,153.7578,111.3774,154.9701,111.6385z"/>
				<path id="XMLID_5607_" fill="#FCDB2F" d="M163.9567,100.4605c1.2089,0.2628,1.9803,1.4563,1.7169,2.669
					c-0.2634,1.2116-1.4568,1.9809-2.6712,1.7196c-1.2089-0.2638-1.9792-1.4595-1.7169-2.6701
					C161.5489,100.9663,162.7457,100.1987,163.9567,100.4605z"/>
			</g>
		</g>
	</g>
	<g id="XMLID_446_">
		<path id="XMLID_5600_" fill="#ED1164" d="M223.3584,121.5257c-58.1949-17.6804-74.9948,6.1403-97.5813,6.1403
			c-22.6128,0-39.3178-23.8096-97.5823-6.1403c0,0-3.8195,69.3713,47.0936,69.3713c42.5324,0,37.342-41.2976,50.4887-41.2976
			c13.1412,0,7.952,41.2976,50.4867,41.2976C227.1747,190.897,223.3584,121.5257,223.3584,121.5257z M70.8749,181.0942
			c-26.1248-1.7009-36.499-38.3652-31.0497-47.5437c4.4157-7.4318,52.1616-13.9887,69.1543,5.0168
			C115.1342,145.4542,111.0965,183.7121,70.8749,181.0942z M180.6784,181.0942c-40.226,2.6179-44.2604-35.64-38.1091-42.5269
			c16.9442-18.9669,64.721-12.4817,69.1576-5.0168C217.1785,142.7317,206.8022,179.3933,180.6784,181.0942z"/>
		<g id="XMLID_1395_">
			<path id="XMLID_5598_" fill="#F171A8" d="M90.3867,178.5118c-1.5637,0.6071-3.2409,1.1162-5.0174,1.5306
				c0.2656,3.2691,0.5301,6.5365,0.7957,9.805c1.7522-0.3637,3.3897-0.8199,4.9304-1.3505
				C90.8584,185.1689,90.6259,181.8398,90.3867,178.5118z"/>
			<path id="XMLID_5597_" fill="#F171A8" d="M86.0207,116.9518c-1.8735-0.3989-3.8261-0.7482-5.8593-1.0402
				c0.2932,3.5963,0.5818,7.191,0.875,10.7896c1.9362,0.221,3.8515,0.5163,5.7381,0.8832
				C86.5243,124.0415,86.2719,120.4947,86.0207,116.9518z"/>
			<path id="XMLID_5596_" fill="#F171A8" d="M102.3158,133.1935c2.1269,1.2695,4.051,2.7374,5.7259,4.4212
				c-0.152-4.6532-0.3074-9.3064-0.4595-13.9573c-1.8679-0.6634-3.7809-1.3609-5.7667-2.0662
				C101.983,125.4597,102.1505,129.3266,102.3158,133.1935z"/>
			<path id="XMLID_5592_" fill="#F171A8" d="M104.3424,180.2011c1.8855-1.9152,3.4977-3.9787,4.8983-6.1006
				c-0.1499-4.6449-0.3041-9.2876-0.4572-13.9319c-1.1714,2.9429-2.788,5.8643-4.9369,8.5542
				C104.0096,172.55,104.1782,176.3744,104.3424,180.2011z"/>
			<path id="XMLID_5591_" fill="#F171A8" d="M71.5559,181.1174c-1.1736-0.0616-2.7406-0.1174-5.2366-0.7057
				c0.3901,3.2955,0.7868,6.5893,1.1825,9.8865c1.6365,0.2579,3.3379,0.4375,5.1176,0.5268
				C72.2635,187.5905,71.9119,184.3539,71.5559,181.1174z"/>
			<path id="XMLID_5590_" fill="#F171A8" d="M52.9455,185.0575c-0.6876-4.6806-1.3829-9.3609-2.0738-14.0409
				c-2.7649-2.9963-5.0626-6.4379-6.9073-10.0139c1.0369,6.542,2.0728,13.0823,3.1086,19.6249
				C48.8604,182.2645,50.8132,183.7528,52.9455,185.0575z"/>
			<path id="XMLID_5572_" fill="#F171A8" d="M39.6676,133.8723c0.9401-1.7798,3.2366-2.8851,5.1706-3.6653
				c-0.616-4.1644-1.232-8.3282-1.848-12.4921c-1.8404,0.3857-3.7347,0.8265-5.6709,1.3075
				C38.0973,123.972,38.8841,128.9232,39.6676,133.8723z"/>
			<path id="XMLID_5571_" fill="#F171A8" d="M64.3424,115.0519c-1.8635,0.0557-3.8052,0.1781-5.7976,0.3472
				c0.4507,3.7919,0.9069,7.5866,1.3565,11.3808c1.8293-0.2137,3.7247-0.3752,5.6708-0.4843
				C65.1611,122.5482,64.7522,118.8004,64.3424,115.0519z"/>
			<path id="XMLID_1437_" fill="#F171A8" d="M143.5116,137.6113c1.6705-1.681,3.6013-3.1483,5.7259-4.4184
				c0.1642-3.8664,0.3316-7.7332,0.497-11.6017c-1.9814,0.7053-3.901,1.4028-5.7656,2.0656
				C143.8157,128.3083,143.6636,132.9599,143.5116,137.6113z"/>
			<path id="XMLID_1436_" fill="#F171A8" d="M185.2329,180.4116c-2.1213,0.4997-3.5396,0.6193-5.241,0.7057
				c-0.3515,3.2366-0.7041,6.4726-1.0602,9.7075c1.7786-0.0893,3.4812-0.2689,5.1177-0.5268
				C184.446,187.0009,184.8416,183.7071,185.2329,180.4116z"/>
			<path id="XMLID_1435_" fill="#F171A8" d="M207.5835,161.0111c-1.8448,3.5753-4.1414,7.0153-6.9073,10.0082
				c-0.6899,4.6791-1.3797,9.3587-2.074,14.0382c2.1356-1.3047,4.0883-2.793,5.8758-4.4299
				C205.514,174.0873,206.5476,167.5502,207.5835,161.0111z"/>
			<path id="XMLID_1434_" fill="#F171A8" d="M166.1817,180.0424c-1.7786-0.4144-3.4547-0.9235-5.0174-1.5306
				c-0.2369,3.328-0.475,6.6571-0.7064,9.9851c1.5363,0.53,3.176,0.9863,4.927,1.3505
				C165.6494,186.5789,165.915,183.3109,166.1817,180.0424z"/>
			<path id="XMLID_1400_" fill="#F171A8" d="M123.0774,150.2787c1.6893-0.9085,3.7026-0.9081,5.3975-0.0044
				c0.0396-7.5805,0.0749-15.1628,0.1145-22.7445c-2.118,0.1801-3.4866,0.1818-5.63,0
				C123.0002,135.1143,123.0409,142.6954,123.0774,150.2787z"/>
			<path id="XMLID_1399_" fill="#F171A8" d="M147.7046,168.7244c-2.15-2.69-3.7633-5.6124-4.9336-8.5547
				c-0.1554,4.6438-0.3108,9.2875-0.4618,13.9314c1.4029,2.1214,3.0139,4.1848,4.9028,6.1011
				C147.3751,176.3761,147.5405,172.5505,147.7046,168.7244z"/>
			<path id="XMLID_1398_" fill="#F171A8" d="M185.9834,126.2961c1.9394,0.1086,3.836,0.27,5.6653,0.4816
				c0.4529-3.7947,0.9069-7.5922,1.362-11.387c-1.9967-0.1686-3.9363-0.2898-5.7987-0.3437
				C186.8021,118.7965,186.3922,122.5477,185.9834,126.2961z"/>
			<path id="XMLID_1397_" fill="#F171A8" d="M208.561,117.7088c-0.615,4.1651-1.2299,8.3278-1.8492,12.4927
				c2.55,1.0293,4.3165,2.176,5.0151,3.349c0.0573,0.0981,0.1026,0.2144,0.1565,0.3169c0.7825-4.9501,1.5682-9.9009,2.3528-14.8493
				C212.2967,118.5381,210.4035,118.0945,208.561,117.7088z"/>
			<path id="XMLID_1396_" fill="#F171A8" d="M164.7767,127.5899c1.8844-0.3681,3.8029-0.6634,5.7336-0.8849
				c0.2954-3.599,0.5873-7.1971,0.8816-10.7957c-2.0387,0.2937-3.9914,0.6435-5.8637,1.0424
				C165.278,120.4958,165.0257,124.0436,164.7767,127.5899z"/>
		</g>
	</g>
</g>
</svg>
