<?xml version="1.0" encoding="utf-8"?>
<!-- Generator: Adobe Illustrator 19.0.0, SVG Export Plug-In . SVG Version: 6.00 Build 0)  -->
<svg version="1.1" id="Layer_1" xmlns="http://www.w3.org/2000/svg" xmlns:xlink="http://www.w3.org/1999/xlink" x="0px" y="0px"
	 viewBox="-324 194.7 310.8 172.3" enable-background="new -324 194.7 310.8 172.3" xml:space="preserve">
<g id="XMLID_19329_">
	<g id="XMLID_19332_">
		<polygon id="XMLID_19347_" fill="#1D1D1B" points="-24.8,258.9 -24.8,267.1 -24.8,275.3 -33,275.3 -33,283.5 -40.4,283.5 
			-41.2,283.5 -41.2,291.7 -49.4,291.7 -49.4,299.9 -56.4,299.9 -57.6,299.9 -110.6,299.9 -110.6,291.7 -111.2,291.7 -118.7,291.7 
			-118.7,283.5 -126.9,283.5 -126.9,275.3 -126.9,267.1 -144.4,267.1 -144.4,275.3 -144.4,283.5 -151.2,283.5 -152.6,283.5 
			-152.6,291.7 -160.8,291.7 -160.8,299.9 -167.5,299.9 -169,299.9 -213.5,299.9 -213.5,291.7 -215.6,291.7 -221.7,291.7 
			-221.7,283.5 -229.9,283.5 -229.9,275.3 -237.9,275.3 -237.9,267.1 -237.9,258.9 		"/>
		<g id="XMLID_19340_">
			<rect id="XMLID_19346_" x="-57.6" y="275.3" fill="#FFFFFF" width="8.2" height="8.2"/>
			<rect id="XMLID_19345_" x="-65.8" y="267.1" fill="#FFFFFF" width="8.2" height="8.2"/>
			<rect id="XMLID_19344_" x="-65.8" y="283.5" fill="#FFFFFF" width="8.2" height="8.2"/>
			<rect id="XMLID_19343_" x="-74" y="275.3" fill="#FFFFFF" width="8.2" height="8.2"/>
			<rect id="XMLID_19342_" x="-49.4" y="267.1" fill="#FFFFFF" width="8.2" height="8.2"/>
			<rect id="XMLID_19341_" x="-82.2" y="283.5" fill="#FFFFFF" width="8.2" height="8.2"/>
		</g>
		<g id="XMLID_19333_">
			<rect id="XMLID_19339_" x="-168.7" y="275.3" fill="#FFFFFF" width="8.2" height="8.2"/>
			<rect id="XMLID_19338_" x="-176.9" y="267.1" fill="#FFFFFF" width="8.2" height="8.2"/>
			<rect id="XMLID_19337_" x="-176.9" y="283.5" fill="#FFFFFF" width="8.2" height="8.2"/>
			<rect id="XMLID_19336_" x="-185.1" y="275.3" fill="#FFFFFF" width="8.2" height="8.2"/>
			<rect id="XMLID_19335_" x="-160.5" y="267.1" fill="#FFFFFF" width="8.2" height="8.2"/>
			<rect id="XMLID_19334_" x="-193.3" y="283.5" fill="#FFFFFF" width="8.2" height="8.2"/>
		</g>
	</g>
	<rect id="XMLID_19331_" x="-281" y="258.9" fill="#1D1D1B" width="43.1" height="8.2"/>
	<rect id="XMLID_19330_" x="-305.6" y="267.1" fill="#1D1D1B" width="24.6" height="8.2"/>
</g>
</svg>
