<?xml version="1.0" encoding="utf-8"?>
<!-- Generator: Adobe Illustrator 19.0.0, SVG Export Plug-In . SVG Version: 6.00 Build 0)  -->
<svg version="1.1" id="Layer_1" xmlns="http://www.w3.org/2000/svg" xmlns:xlink="http://www.w3.org/1999/xlink" x="0px" y="0px"
	 viewBox="-338 223.4595 281.0811 115.5405" enable-background="new -338 223.4595 281.0811 115.5405" xml:space="preserve">
<path id="XMLID_7040_" fill="#EF7B05" d="M-72.5211,264.0172l-30.9838,0.0302c-1.529-4.1677-4.0532-7.9884-7.9834-10.9362
	c-11.3329-8.4996-33.7719-10.3129-50.6579-3.7398c-16.886,6.573-18.8125,20.0591-18.8125,20.0591
	c-0.0249,0.0849-0.0465,0.1699-0.0705,0.2548c-0.4726-0.0952-1.1057-0.2873-1.8331-0.6842
	c-0.7406-0.4042-1.3683-1.1253-2.0948-1.9602c-1.7447-2.0042-4.1339-4.7491-9.9947-4.75v-0.0001
	c-0.0005,0-0.0009,0.0001-0.0015,0.0001c-0.0005,0-0.0009-0.0001-0.0015-0.0001v0.0001c-5.8607,0.0009-8.25,2.7458-9.9947,4.75
	c-0.7264,0.8349-1.3542,1.5561-2.0948,1.9602c-0.7274,0.3969-1.3605,0.589-1.8331,0.6842c-0.024-0.0849-0.0455-0.1699-0.0705-0.2548
	c0,0-1.9266-13.4862-18.8125-20.0591c-16.886-6.5731-39.325-4.7598-50.6578,3.7398c-3.9303,2.9478-6.4545,6.7685-7.9835,10.9362
	l-30.4734-0.1343l-0.6667,5.3333l29.7466,0.0141c-1.1615,6.4469-0.5107,13.1869,0.6506,18.5292
	c2.2666,10.4262,11.2195,30.372,31.9586,32.7519c20.7391,2.3799,35.1318-10.0862,40.9116-21.9857
	c5.0242-10.3438,7.2205-18.2897,6.0716-25.7735c0.7443-0.154,1.6647-0.4434,2.6777-0.996c1.2409-0.6764,2.1196-1.6862,2.9691-2.6623
	c1.6382-1.882,3.1857-3.6597,7.6026-3.6602c4.4168,0.0005,5.9644,1.7781,7.6026,3.6602c0.8495,0.9762,1.7283,1.9859,2.9691,2.6623
	c1.0131,0.5526,1.9333,0.842,2.6777,0.996c-1.1489,7.4837,1.0475,15.4296,6.0716,25.7735
	c5.7797,11.8995,20.1725,24.3656,40.9116,21.9857c20.7391-2.3799,29.692-22.3257,31.9586-32.7519
	c1.1614-5.3423,1.8121-12.0823,0.6507-18.5292l29.5903-0.1183V264.0172z M-216.313,297.5656
	c-4.7067,9.6896-16.38,21.0043-33.791,21.0043c-0.0014,0-0.0022,0-0.0031,0c-1.5817-0.0005-3.2037-0.0944-4.8204-0.2803
	c-8.5031-0.9757-15.6946-5.1799-21.3748-12.4967c-5.94-7.6514-8.1054-16.0829-8.6276-18.4849
	c-1.4881-6.8453-3.7002-23.7047,7.8715-32.3837c6.0609-4.5455,16.132-7.2592,26.9412-7.2592c7.6705,0,15.1169,1.3201,21.5346,3.8182
	c15.4724,6.0232,17.3734,18.1459,17.3907,18.2676l0.023,0.1611l0.046,0.1563C-208.9391,277.513-210.443,285.4797-216.313,297.5656z
	 M-104.9769,287.308c-0.5222,2.402-2.6876,10.8335-8.6276,18.4849c-5.6801,7.3168-12.8717,11.521-21.3748,12.4967
	c-1.6167,0.1859-3.2387,0.2798-4.8204,0.2803c-0.0009,0-0.0018,0-0.0031,0c-17.411,0-29.0843-11.3148-33.7909-21.0043
	c-5.8701-12.0858-7.3739-20.0525-5.1901-27.4972l0.0461-0.1563l0.023-0.1611c0.0173-0.1217,1.9182-12.2444,17.3906-18.2676
	c6.4177-2.4981,13.8642-3.8182,21.5346-3.8182c10.8092,0,20.8804,2.7137,26.9413,7.2592
	C-101.2767,263.6033-103.4888,280.4627-104.9769,287.308z"/>
</svg>
