<?xml version="1.0" encoding="utf-8"?>
<!-- Generator: Adobe Illustrator 19.0.0, SVG Export Plug-In . SVG Version: 6.00 Build 0)  -->
<svg version="1.1" id="Layer_1" xmlns="http://www.w3.org/2000/svg" xmlns:xlink="http://www.w3.org/1999/xlink" x="0px" y="0px"
	 viewBox="-312 206 335 150" enable-background="new -312 206 335 150" xml:space="preserve">
<g id="XMLID_552_">
	<path id="XMLID_553_" fill="#EF7B05" d="M-21.9901,267.55c0,0-17.9-0.1-19-0.3c0,0-0.5-3.5-1.6-4.5c-1-1-3-1.8-9.1-2.8
		c-6.1-0.9-20.3-2.4-31-2.4s-30.3,2.2-34.8,3c-4.5,0.7-9,1.6-11.2,5.6c-0.6,1.1-1.5,1.5-4,1.7s-10.8,0-10.8,0s-8.3,0.2-10.8,0
		s-3.4-0.6-4-1.7c-2.2-4-6.7-4.9-11.2-5.6c-4.5-0.7-24-3-34.8-3s-24.9,1.5-31,2.4c-6.1,0.9-8.1,1.8-9.1,2.8s-1.6,4.5-1.6,4.5
		c-1.1,0.2-27,0.3-27,0.3c-1.6,0.1-0.8,4.3-0.6,6c0.2,1.7,1.6,2.5,2.6,2.5s25.7,0,25.7,0c0.1,3,0.8,8.1,1.3,13.5
		c0.5,5.4,2.4,7.9,4.3,8.8c4.5,2.3,22.1,4.9,24.5,5.2c2.4,0.3,10.9,0.9,14.9,0.9s13.1-0.6,17.2-1.1c4.1-0.5,11.4-1.2,14.9-3.4
		c2.9-1.7,4-2.6,5.8-6.4c0.1-0.1,0.9-1.3,2-3.1c1.1-1.8,2.3-4.2,3.3-6.6c1.9-4.9,0.8-6.8,0.4-7.4c-0.4-0.6-0.8-1.8-0.8-1.8
		c0-1.4,0.4-2.1,1.5-2.3c2.3-0.4,9.5-1.4,10.4-1.4c0.9,0,2,0,2,0s1.1,0,2,0c0.9,0,8.1,0.9,10.4,1.4c1,0.2,1.5,0.9,1.5,2.3
		c0,0-0.4,1.1-0.8,1.7c-0.4,0.6-1.6,2.5,0.4,7.4c1.9,4.9,5,9.5,5.3,9.7c0.9,1.9,1.7,3.1,2.5,4c0.9,0.9,1.9,1.6,3.3,2.4
		c3.5,2.1,10.8,2.8,14.9,3.4c4.1,0.5,13.2,1.1,17.2,1.1s12.5-0.6,14.9-0.9s20.1-3,24.5-5.3c1.9-1,3.8-3.3,4.3-8.7
		c0.5-5.4,1.2-10.5,1.3-13.5c0,0,16.7,0,17.7,0s2.4-0.8,2.6-2.5C-21.1901,271.85-20.3901,267.65-21.9901,267.55z M-158.6901,273.85
		c0,0-2.2,0.1-3.5,5.7c0,0-0.6,0.2-1.1,0.2s-2.1-0.2-2.7,0.6c-0.7,0.8-2,2.8-0.3,4.1c0.9,0.7,1.2,0.9,1.2,0.9h-0.1
		c0,0-1.5,3.9-2,5.3c-0.6,1.4-1.2,5.2,2.2,4.6c-1.7,2.8-3.6,3.8-8.6,4.8c-7.5,1.6-17.5,2.5-26.4,2.5c-8.9,0-24.7-2-30.1-3.5
		c-5.4-1.5-6.3-1.6-7.9-2.3c-1.6-0.7-3.3-1.3-4-5.7c-0.7-4.4-2-12.3-2-24.7c0,0-0.4-2.2,2.1-2.9c2.4-0.7,14.1-2.9,25-3.4
		s23.3-0.4,31.3,0.5c8,0.9,17.7,1.8,22.5,3.3C-158.2901,265.45-158.5901,271.75-158.6901,273.85z M-42.7901,266.45
		c0,12.4-1.3,20.2-1.9,24.7c-0.7,4.4-2.4,5-4,5.7c-1.7,0.7-2.4,0.8-7.9,2.3s-21.2,3.5-30.1,3.5c-8.9,0-18.9-1-26.4-2.5
		c-5-1.1-7-2-8.7-4.8c3.4,0.6,2.8-3.3,2.2-4.6c-0.6-1.4-2-5.3-2-5.3s0,0-0.1,0c0.1-0.1,0.3-0.3,1.2-0.9c1.7-1.3,0.4-3.3-0.2-4.1
		c-0.7-0.8-2.2-0.6-2.8-0.6s-1.1-0.2-1.1-0.2c-1.3-5.6-3.5-5.7-3.5-5.7c-0.1-2.1-0.4-8.4,4.4-10c4.8-1.6,14.5-2.4,22.5-3.3
		s20.4-1,31.3-0.5c10.9,0.5,22.6,2.7,25.1,3.4S-42.7901,266.45-42.7901,266.45z"/>
	<path id="XMLID_556_" fill="#EDA36B" d="M-42.7901,266.45c0,12.4-1.3,20.2-1.9,24.7c-0.7,4.4-2.4,5-4,5.7c-1.7,0.7-2.4,0.8-7.9,2.3
		s-21.2,3.5-30.1,3.5c-8.9,0-18.9-1-26.4-2.5c-5-1.1-7-2-8.7-4.8c3.4,0.6,2.8-3.3,2.2-4.6c-0.6-1.4-2-5.3-2-5.3s0,0-0.1,0
		c0.1-0.1,0.3-0.3,1.2-0.9c1.7-1.3,0.4-3.3-0.2-4.1c-0.7-0.8-2.2-0.6-2.8-0.6s-1.1-0.2-1.1-0.2c-1.3-5.6-3.5-5.7-3.5-5.7
		c-0.1-2.1-0.4-8.4,4.4-10c4.8-1.6,14.5-2.4,22.5-3.3s20.4-1,31.3-0.5c10.9,0.5,22.6,2.7,25.1,3.4S-42.7901,266.45-42.7901,266.45z"
		/>
	<path id="XMLID_560_" fill="#EDA36B" d="M-158.6901,273.85c0,0-2.2,0.1-3.5,5.7c0,0-0.6,0.2-1.1,0.2s-2.1-0.2-2.7,0.6
		c-0.7,0.8-2,2.8-0.3,4.1c0.9,0.7,1.2,0.9,1.2,0.9h-0.1c0,0-1.5,3.9-2,5.3c-0.6,1.4-1.2,5.2,2.2,4.6c-1.7,2.8-3.6,3.8-8.6,4.8
		c-7.5,1.6-17.5,2.5-26.4,2.5c-8.9,0-24.7-2-30.1-3.5c-5.4-1.5-6.3-1.6-7.9-2.3c-1.6-0.7-3.3-1.3-4-5.7c-0.7-4.4-2-12.3-2-24.7
		c0,0-0.4-2.2,2.1-2.9c2.4-0.7,14.1-2.9,25-3.4s23.3-0.4,31.3,0.5c8,0.9,17.7,1.8,22.5,3.3
		C-158.2901,265.45-158.5901,271.75-158.6901,273.85z"/>
</g>
</svg>
