<?xml version="1.0" encoding="utf-8"?>
<!-- Generator: Adobe Illustrator 19.0.0, SVG Export Plug-In . SVG Version: 6.00 Build 0)  -->
<svg version="1.1" id="Layer_1" xmlns="http://www.w3.org/2000/svg" xmlns:xlink="http://www.w3.org/1999/xlink" x="0px" y="0px"
	 viewBox="-347 229.2603 264.3836 102.7397" enable-background="new -347 229.2603 264.3836 102.7397" xml:space="preserve">
<g id="XMLID_1405_">
	<path id="XMLID_1410_" fill="#EF7B05" d="M-302.1402,254.2607c-0.0337-0.0044-0.0669-0.0083-0.1011-0.0127
		c0.0518,0.0068,0.3413,0.0034,0.6128-0.0034c0.4243-0.0156,0.6538-0.0307,0.0981-0.0307
		C-303.7691,254.2939-302.9806,254.2846-302.1402,254.2607z"/>
	<path id="XMLID_1406_" fill="#EF7B05" d="M-95.3014,259.4692l-18.7078,3.6553c-0.897-7.3408-3.516-14.3604-11.0018-17.1709
		c-10.5659-3.9683-26.0627-1.4351-36.9147,0.2461c-12.6177,1.9541-24.711,6.3662-35.9205,11.8066
		c-12.3853,6.0098-22.5135,10.5576-35.9847,3.8511c-11.2021-5.5767-21.8249-11.3418-34.4113-14.1641
		c-12.8325-2.8784-28.3258-4.9873-41.5113-2.8159c-10.7451,1.77-14.2259,11.6709-15.1746,20.4004l-19.3733-2.8086v9.3066
		l18.843,3.0815c-0.5674,18.6357,1.4869,41.7998,22.5817,48.9175c12.0986,4.0811,26.0818,4.2461,38.7508,2.5396
		c13.0981-1.7651,18.9584-10.3984,25.2401-19.8433c4.4946-6.7598,7.7541-21.5718,17.6418-23.4521
		c8.4302-1.6025,12.9388,7.8438,15.5165,13.2954c4.3218,9.1396,11.8964,23.6899,22.8212,27.9063
		c11.3223,4.3696,24.5244,3.5352,36.4194,1.9019c9.8218-1.3481,21.4248-4.6362,26.1606-13.1934
		c5.9043-10.6694,6.928-24.6787,6.8806-36.3564c0.0015,0.4014,0.1443,0.7676,0.1443,1.1128c0-0.0596,0-0.1216,0-0.1816
		c0-0.3681-0.1433-0.9336-0.1438-0.9893c0,0.0088-0.0682,0.2178-0.0673,0.5508c0.001-0.9668-0.02-1.9922-0.0136-3.0591
		l18.2247-4.0542L-95.3014,259.4692L-95.3014,259.4692z M-245.2315,301.3466c-3.271,7.0229-7.8354,14.8184-16.9595,16.5322
		c-12.7979,2.4048-26.9351,1.6411-39.334-2.1128c-10.6753-3.2305-14.2261-10.1084-16.3101-19.4473
		c-2.3721-10.624-2.7329-21.9888-1.3062-32.7509c1.2935-9.7764,8.5757-9.0313,17.6108-9.354c0.7285,0,0.3389,0.02-0.0981,0.0308
		c-0.1543,0.0059-0.3335,0.0112-0.5117,0.0161c12.5059,1.6616,24.4663,1.7398,36.8921,4.77
		c9.3237,2.2734,21.1812,5.1714,25.3433,13.9292C-235.5509,282.122-241.2906,292.8896-245.2315,301.3466z M-120.4693,293.4892
		c-1.8867,10.436-4.9028,18.7041-16.9971,22.3237c-11.7334,3.5117-24.4453,4.3105-36.6401,2.5073
		c-10.9346-1.6167-16.1787-9.9272-20.0415-18.312c-3.9683-8.6167-9.4731-19.7622-3.7749-28.7832
		c4.5547-7.2119,14.7642-9.6841,23.0464-11.8271c11.2495-2.9106,22.7026-5.1265,34.4766-5.1265c-10.8774,0,3.8062-0.1821,0,0
		c0.4917-0.0264,0.9844-0.0518,1.478-0.0762c-0.0996,0.0078-0.2031,0.0142-0.3047,0.0215c9.7378-0.4443,18.4258-0.394,19.502,9.8867
		C-118.6876,274.0082-118.6876,283.6396-120.4693,293.4892z"/>
</g>
</svg>
