<?xml version="1.0" encoding="utf-8"?>
<!-- Generator: Adobe Illustrator 19.0.0, SVG Export Plug-In . SVG Version: 6.00 Build 0)  -->
<svg version="1.1" id="Layer_1" xmlns="http://www.w3.org/2000/svg" xmlns:xlink="http://www.w3.org/1999/xlink" x="0px" y="0px"
	 viewBox="0 0 293.9 111.5" style="enable-background:new 0 0 293.9 111.5;" xml:space="preserve">
<style type="text/css">
	.st0{fill:#EF7B05;}
	.st1{fill:#7F3905;}
</style>
<path id="XMLID_470_" class="st0" d="M273.9,28.8c-0.7-0.3-23.7-0.6-24-0.6c-33.8-4-73.5,0.4-85,3.4c-5.4,1.4-7,1.7-9.4,2.1
	c-1.7,0.3-15.5,0.3-17.2,0c-2.4-0.4-3.9-0.7-9.4-2.1c-11.5-2.9-51.2-7.4-85-3.4c-0.3,0-26.1,0.5-26.3,0.8
	c-1.7,2.9-3.8,12.1-0.3,12.3c0,0,30.2-0.6,30.8-0.5c0.8,0.1,0.6,4.9,0.4,6.2c-0.7,6.9,0.1,15.1,2.3,22c3,9.3,10.9,15.3,19.2,15.8
	c19.3,1,34.6,2,53.3,1.4c7-0.2,11.1-5.1,12.9-17c0.7-4.8,1.6-15.1,4.9-17.7c0.9-0.7,2.6-1,4.3-1c0.7,0,2.2,0,2.9,0
	c1.7,0,3.4,0.3,4.3,1c3.2,2.6,4.2,12.9,4.9,17.7c1.7,11.9,5.9,16.8,12.9,17c18.7,0.5,34-0.5,53.3-1.4c8.3-0.4,16.2-6.5,19.2-15.8
	c2.2-6.9,3-15.1,2.3-22c-0.1-1.3-0.4-5.3,0.4-5.4c0.6-0.1,28.6,0.1,28.6,0.1C277.7,41.6,280,31.7,273.9,28.8z M133.9,45.6
	c-0.8,8.3-1.1,14.9-2.7,23.1c-1.5,7.7-3.1,13-7.8,12.9c-18.1-0.2-36-0.3-54.1-1.5c-4.4-0.3-12.4-5-14.7-12.5
	c-2.5-8.4-3.1-16.8-1.5-25.2c0.4-2.3,1.7-4.5,3.5-6.2c1.9-1.8,4.2-2.7,6.4-3.1c6.1-1,12.2-1.1,18-1.2c19-0.1,31,1.2,47.1,5.1
	C132.2,38.2,134.3,41.1,133.9,45.6z M239.5,67.6c-2.3,7.5-10.2,12.2-14.7,12.5c-18.1,1.2-36,1.3-54.1,1.5c-4.7,0.1-6.4-5.2-7.8-12.9
	c-1.5-8.2-1.9-14.8-2.7-23.1c-0.4-4.4,1.7-7.4,5.8-8.4c16.1-3.9,28.1-5.3,47.1-5.1c5.8,0,11.9,0.2,18,1.2c2.1,0.3,4.5,1.2,6.4,3.1
	c1.8,1.7,3,3.8,3.4,6.2C242.5,50.8,242,59.2,239.5,67.6z"/>
<path id="XMLID_468_" class="st1" d="M239.5,67.6c-2.3,7.5-10.2,12.2-14.7,12.5c-18.1,1.2-36,1.3-54.1,1.5
	c-4.7,0.1-6.4-5.2-7.8-12.9c-1.5-8.2-1.9-14.8-2.7-23.1c-0.4-4.4,1.7-7.4,5.8-8.4c16.1-3.9,28.1-5.3,47.1-5.1c5.8,0,11.9,0.2,18,1.2
	c2.1,0.3,4.5,1.2,6.4,3.1c1.8,1.7,3,3.8,3.4,6.2C242.5,50.8,242,59.2,239.5,67.6z"/>
<path id="XMLID_466_" class="st1" d="M133.9,45.6c-0.8,8.3-1.1,14.9-2.7,23.1c-1.5,7.7-3.1,13-7.8,12.9c-18.1-0.2-36-0.3-54.1-1.5
	c-4.4-0.3-12.4-5-14.7-12.5c-2.5-8.4-3.1-16.8-1.5-25.2c0.4-2.3,1.7-4.5,3.5-6.2c1.9-1.8,4.2-2.7,6.4-3.1c6.1-1,12.2-1.1,18-1.2
	c19-0.1,31,1.2,47.1,5.1C132.2,38.2,134.3,41.1,133.9,45.6z"/>
</svg>
