<?xml version="1.0" encoding="utf-8"?>
<!-- Generator: Adobe Illustrator 19.0.0, SVG Export Plug-In . SVG Version: 6.00 Build 0)  -->
<svg version="1.1" id="Layer_1" xmlns="http://www.w3.org/2000/svg" xmlns:xlink="http://www.w3.org/1999/xlink" x="0px" y="0px"
	 viewBox="-342 226.5 274.3 109.5" enable-background="new -342 226.5 274.3 109.5" xml:space="preserve">
<g id="XMLID_218_">
	<g id="XMLID_2112_">
		<g id="XMLID_2115_">
			<g>
				<path id="XMLID_2116_" fill="#EF7B05" d="M-84.1,263.9l-0.3-8.1c-0.1-1.1-22.7-0.6-23.7-1c-1.3-0.5-3.6-1.1-7.3-1.7
					c-17.8-2.7-28.4-3.7-28.4-3.7l0,0c-2.5-0.2-5.8-0.5-9.4-0.5c-5,0-9.5,0.4-13.6,1.2c-4.2,0.6-10.4,1.5-15.8,2.9
					c-2,0.5-4.1,0.9-6.3,1.2c-10.3,1.6-20.7,1.6-31,0c-2.1-0.3-4.3-0.7-6.3-1.2c-5.4-1.3-11.6-2.3-15.8-2.9
					c-4.1-0.8-8.7-1.2-13.6-1.2c-3.7,0-7,0.2-9.4,0.5l0,0c0,0-10.6,0.9-28.4,3.7c-3.8,0.6-6,1.2-7.3,1.7c-1,0.4-29.3,1.9-29.4,3v7
					c-0.1,1.2,27.1,1.8,28,2.6c0.9,0.7,1.9,1.8,2.3,3.8c0.8,3.9,2.7,16.3,4,23.8c0,0.3,0.1,0.5,0.2,0.8c1.1,5.7,3,10.7,5.3,13.9
					c5.1,7,13.7,10.6,25.3,10.6c3.7,0,7.8-0.4,12.2-1.1c12.4-2,22.8-9,29.9-19.8c3.3-4.6,10.9-20.9,12.2-25c1.3-4.1,6.4-4.5,6.4-4.5
					s5.1,0.3,6.4,4.5c1.3,4.1,8.9,20.4,12.2,25c7.1,10.8,17.5,17.8,29.9,19.8c4.4,0.7,8.5,1.1,12.2,1.1c11.6,0,20.1-3.6,25.3-10.6
					c2.4-3.2,4.2-8.2,5.3-13.9c0.1-0.3,0.2-0.5,0.2-0.8c1.2-7.5,3.1-20,4-23.8c0.4-2,1.4-3.1,2.3-3.8
					C-105.7,266.6-83.9,265.1-84.1,263.9z"/>
			</g>
		</g>
	</g>
	<g id="XMLID_2110_">
		<g>
			<path id="XMLID_2111_" fill="#7F3905" d="M-143.8,315.8c-3.5,0-7.4-0.3-11.6-1c-20.9-3.3-29.4-20.9-32.1-28.4
				c-5.1-14-1.8-22.3,11.3-28.8c5.7-2.8,13.6-4.3,22.8-4.3c7.6,0,13.5,1,13.5,1c0.2,0,18.6,2.8,22,14.2c3.7,12.3,0.7,31.7-4.2,38.4
				C-126.4,312.9-133.5,315.8-143.8,315.8L-143.8,315.8z"/>
		</g>
	</g>
	<g id="XMLID_2108_">
		<g>
			<path id="XMLID_2109_" fill="#7F3905" d="M-265.3,315.8c-10.3,0-17.4-2.9-21.8-8.8c-4.9-6.7-7.9-26.1-4.2-38.4
				c3.4-11.4,21.8-14.2,22-14.2c0.1,0,6-1,13.5-1c9.3,0,17.1,1.5,22.8,4.3c13.1,6.4,16.4,14.8,11.3,28.8c-2.7,7.4-11.2,25-32.1,28.4
				C-257.9,315.4-261.8,315.8-265.3,315.8L-265.3,315.8z"/>
		</g>
	</g>
</g>
</svg>
