<?xml version="1.0" encoding="utf-8"?>
<!-- Generator: Adobe Illustrator 19.0.0, SVG Export Plug-In . SVG Version: 6.00 Build 0)  -->
<svg version="1.1" id="Layer_1" xmlns="http://www.w3.org/2000/svg" xmlns:xlink="http://www.w3.org/1999/xlink" x="0px" y="0px"
	 viewBox="-312 206 335 150" enable-background="new -312 206 335 150" xml:space="preserve">
<g id="XMLID_574_">
	<path id="XMLID_575_" fill="#EF7B05" d="M-174.4229,299.55c-0.9,0.3-1.8,0.6-2.8,0.8
		C-176.3229,300.15-175.3229,299.85-174.4229,299.55c1.5-0.5,2.8-1,4-1.6C-171.6229,298.55-172.9229,299.05-174.4229,299.55z
		 M-18.4229,269.75c0-0.2-15.1-0.6-15.1-0.7c0,0,0-1.8,0-2.2c0-0.3-1.1-1.4-1.6-1.8c-0.6-0.4-1.5-1.3-2.9-0.9s-1.4,0.6-1.5,1.5
		s-0.2,2.8-0.2,2.8s-1.9-0.1-2.1-0.3c-0.2-0.2-2.5-5.3-13.8-7.7c0,0-5.7-1.6-27.6-1.6c0,0-24.5,1-36.7,5.4c-6.7,2.4-7.3,4.9-7.3,4.9
		s-6.8-0.7-15-0.7c-8.2,0-15,0.7-15,0.7s-0.6-2.5-7.3-4.9c-12.3-4.4-36.7-5.4-36.7-5.4c-21.9,0-27.6,1.6-27.6,1.6
		c-11.3,2.3-13.6,7.5-13.8,7.7s-2.1,0.3-2.1,0.3s0-1.9-0.1-2.8c-0.1-0.9,0-1-1.4-1.5c-1.4-0.4-1.9,0.4-2.4,0.9c-0.6,0.5-1,1.5-1,1.8
		s0,2.2,0,2.2c0,0.1-21.7,0.5-21.7,0.7s-0.1,5.9-0.1,6.2s21.3,0.5,21.3,0.5s-0.1,1.1,0,1.7c0,0.6,1.4,2.1,1.5,2.2
		c0.1,0.1,2.2,0.4,3.1,0.1c0.9-0.3,0.6-2.8,0.6-2.8c0.8,0.2,2,0.2,2,0.2c-0.1,2.5,1.9,8.6,2.1,9c0.3,0.4,1.7-0.5,1.9-0.6
		c1.4,4.1,3.8,9,7.2,11.3c5.2,3.4,13,4.6,18.1,5c-5.2-0.4-12.9-1.6-18.1-5c-3.4-2.3-5.8-7.3-7.2-11.4c0-0.1,0-0.6-0.8-2.5
		c-1-2.5-2-10.7-1.7-12.7s1.2-5,9.6-7.4c8.4-2.4,24-2.4,24-2.4c22.4-0.3,38.4,4,40.6,4.7c2.2,0.6,8.6,1.2,8.7,7.6
		c0,1.8-0.3,3.9-0.9,5.9l0,0c-0.7-0.2-3.2-1-4.6,1.8c-1.2,2.4,1.7,4.1,2.5,4.5c-1,2.5-1.9,4.3-1.9,4.3c-0.2,0.3-0.1,0.4,0,0.6
		c-1,2.1-2.3,4.3-3.7,5.3c-0.8,0.6-1.8,1.2-3.1,1.8c1.3-0.6,2.3-1.2,3.1-1.8c1.4-1.1,2.7-3.3,3.7-5.3c0.2,0.2,0.5,0.4,0.7,0.6
		c0.3,0.3,0.7,0.1,1.4-0.6c0.7-0.8,1.5-3.5,1.5-3.5s0.2,0,0.7-0.7c0.6-0.8,2.7-8,2.8-8.5c0,0,0-2.6-0.1-3.2c0-0.6-0.8-1.9,3.6-2.4
		c4.4-0.5,5.3-0.5,10.6-0.5s6.2,0,10.6,0.5c4.4,0.5,3.6,1.8,3.6,2.4s-0.1,3.2-0.1,3.2c0.1,0.6,2.3,7.8,2.8,8.5s0.7,0.7,0.7,0.7
		s0.8,2.8,1.5,3.5c0.7,0.8,1,1,1.4,0.6c0.2-0.2,0.5-0.4,0.7-0.6c1,2.1,2.3,4.3,3.7,5.3c1.6,1.3,4.2,2.5,7.4,3.5
		c3.6,1.2,7.8,1.9,12.1,2.3c5.3,0.6,8.7,0.8,12.2,0.9c-3.5-0.1-6.9-0.4-12.2-0.9c-4.3-0.5-8.5-1.3-12.1-2.4c-3.2-1-5.8-2.3-7.4-3.5
		c-1.4-1.1-2.7-3.3-3.7-5.3c0.1-0.2,0.1-0.3,0-0.6c0,0-0.9-1.8-1.9-4.3c0.8-0.4,3.7-2.1,2.5-4.5c-1.4-2.8-3.9-2-4.6-1.8l0,0
		c-0.5-2.1-0.9-4.1-0.9-5.9c0.1-6.4,6.5-7,8.7-7.6s18.2-4.9,40.6-4.7c0,0,15.5,0,24,2.4c8.4,2.4,9.3,5.4,9.6,7.4
		c0.3,2.1-0.7,10.2-1.7,12.7c-0.8,1.9-0.8,2.4-0.8,2.5c-1.4,4.1-3.8,9.1-7.2,11.3c-5.2,3.4-12.9,4.6-18.1,5c5.2-0.4,13-1.6,18.2-5
		c3.4-2.3,5.8-7.3,7.2-11.4c0.2,0.1,1.6,1.1,1.9,0.7c0.3-0.5,2.2-6.5,2.1-9c0,0,1.2,0,2-0.2c0,0-0.3,2.5,0.7,2.8
		c0.9,0.3,3,0,3.2-0.1s1.5-1.6,1.6-2.2c0-0.6,0-1.7,0-1.7s15.5-0.2,15.5-0.5S-18.4229,269.95-18.4229,269.75z M-198.7229,302.85
		c3.5-0.1,6.9-0.4,12.2-0.9c2.2-0.2,4.3-0.5,6.3-0.9c-2,0.4-4.2,0.7-6.3,0.9C-191.8229,302.55-195.2229,302.75-198.7229,302.85z"/>
	<path id="XMLID_589_" fill="#FFF0E3" d="M-44.7229,283.95c-0.8,1.9-0.8,2.4-0.8,2.5c-1.4,4.1-3.8,9.1-7.2,11.3
		c-5.2,3.4-12.9,4.6-18.1,5c-1,0.1-2,0.1-2.8,0.2c-0.3,0-0.6,0.1-0.8,0.1c-0.8,0-1.4,0.1-1.7,0.1c-0.1,0-0.1,0-0.1,0
		c-3,0-5.4-0.1-7.6-0.1c-0.4,0-0.8-0.1-1.2-0.1c-0.2,0-0.4,0-0.6,0c-3.5-0.1-6.9-0.4-12.2-0.9c-4.3-0.5-8.5-1.3-12.1-2.5
		c-3.2-1-5.8-2.3-7.4-3.5c-1.4-1.1-2.7-3.3-3.7-5.3c0.1-0.2,0.1-0.4,0-0.6c0,0-0.9-1.8-1.9-4.3c0.8-0.4,3.7-2.1,2.5-4.5
		c-1.4-2.8-3.9-2-4.6-1.8l0,0c-0.5-2.1-0.9-4.1-0.9-5.9c0.1-6.4,6.5-7,8.7-7.6s18.2-4.9,40.6-4.7c0,0,15.5,0,24,2.4
		c8.4,2.4,9.3,5.4,9.6,7.4C-42.7229,273.25-43.7229,281.45-44.7229,283.95z"/>
	<path id="XMLID_594_" fill="#FFF0E3" d="M-158.3229,273.55c0,1.8-0.3,3.9-0.9,5.9l0,0c-0.7-0.2-3.2-1-4.6,1.8
		c-1.2,2.4,1.7,4.1,2.5,4.5c-1,2.5-1.9,4.3-1.9,4.3c-0.2,0.3-0.1,0.4,0,0.6c-1,2.1-2.3,4.3-3.7,5.3c-1.6,1.2-4.2,2.5-7.4,3.5
		c-3.6,1.2-7.8,2-12.1,2.5c-9.4,1-12.8,1.1-21.5,1.1c0,0,0,0-0.1,0c-1.6,0-15.5-0.1-23.4-5.3c-3.4-2.3-5.8-7.3-7.2-11.4
		c0-0.1,0-0.6-0.8-2.5c-1-2.5-2-10.7-1.7-12.7s1.2-5,9.6-7.4c8.4-2.4,24-2.4,24-2.4c22.4-0.3,38.4,4.1,40.6,4.7
		C-164.8229,266.65-158.4229,267.15-158.3229,273.55z"/>
</g>
</svg>
