<?xml version="1.0" encoding="utf-8"?>
<!-- Generator: Adobe Illustrator 19.0.0, SVG Export Plug-In . SVG Version: 6.00 Build 0)  -->
<svg version="1.1" id="Layer_1" xmlns="http://www.w3.org/2000/svg" xmlns:xlink="http://www.w3.org/1999/xlink" x="0px" y="0px"
	 viewBox="-348 225.5 262.8 111.5" enable-background="new -348 225.5 262.8 111.5" xml:space="preserve">
<path id="XMLID_810_" fill="#EF7B05" d="M-90.8,264.9c-0.1-2.6-0.8-4.5-2.1-7.8c-0.1-0.3-0.4-0.9-1-1.4c-0.8-0.6-18.7-0.7-19-0.7
	c-5.2-0.6-10.4-2.2-15.6-2.8c-19.7-2.2-24.2-2.9-37.5-1.7c-13.2,1.2-24.2,3.8-24.2,3.8c-1.7,0.4-4.4,0.8-8.2,1.4
	c-5.6,0.8-10.4,0.6-13.9,0.6h-1.4c-3.5,0-8.4,0.2-13.9-0.6c-3.8-0.5-6.5-1.1-8.2-1.5c0,0-11-2.5-24.2-3.7
	c-13.3-1.2-17.8-0.4-37.5,1.7c-5.2,0.6-10.4,2.2-15.6,2.8c-0.3,0-24.2,0.1-25,0.7c-0.6,0.5-0.9,1.1-1,1.4c-1.3,3.4-2,5.2-2.1,7.8
	c0,0.7,0,1.3,0.3,2c0.4,0.8,23.9,1,24.4,1.6c0.8,1,0.8,2.1,0.8,3.1c0,2.6,0.4,5.1,0.2,7.8c0,0.5-0.4,6.2,0.2,11.5
	c0.3,2.9,0.5,5.3,1.8,7.8c3.5,6.6,11.2,9.3,13.8,10.1c9.6,3.1,19.7,3.7,28.2,3c6.2-0.5,12.8-1.9,20.2-4.7c6.8-2.6,10.6-6.3,14.6-9.6
	c0,0,8.2-6.7,13.9-18.8c0.9-1.9,1.9-6.8,3-8.8c0.4-0.7,1.4-1.6,2.8-1.8c1.1-0.2,2-0.3,2.7-0.4c0.6,0,1.8,0,2.4,0
	c0.6,0,1.6,0.1,2.7,0.4c1.4,0.3,2.4,1.1,2.8,1.8c1.1,2,2.1,6.9,3,8.8c5.7,12.1,13.9,18.8,13.9,18.8c4,3.3,7.8,7,14.6,9.6
	c7.5,2.8,14,4.1,20.2,4.7c8.5,0.7,18.6,0.2,28.2-3c2.5-0.8,10.3-3.5,13.7-10.1c1.3-2.5,1.5-4.9,1.8-7.8c0.6-5.3,0.2-10.9,0.2-11.5
	c-0.2-2.6,0.3-5.1,0.2-7.8c0-1-0.1-2.1,0.8-3.1c0.5-0.6,18-0.8,18.4-1.6C-90.9,266.2-90.8,265.6-90.8,264.9z M-228.4,273.5
	c-4,10-6.6,15.5-14.6,22.6c-5,4.4-8.4,5.9-9.6,6.5c-5.1,2.3-9.7,3-14.6,3.7c-14.2,2-24.5,0.3-27.5-0.4c-6.7-1.4-9.2-3.1-9.8-3.5
	c-2.7-2-3.7-4.2-4.6-7.2c-3.6-12.8-0.9-23.1,0.1-26.9c0.8-3,1.7-5.4,4-7.4c3.5-3.1,8.4-3.8,11.6-4.3c14.3-2.3,27.9-1.9,27.9-1.9
	c18.8,0.5,26.9,2.6,32,5.4c3.4,1.8,5.1,3.7,5.8,5.7C-226.7,268.4-227.5,271.3-228.4,273.5z M-117,295.1c-0.9,3-1.9,5.2-4.6,7.2
	c-0.6,0.4-3,2.2-9.8,3.5c-3.1,0.6-13.3,2.4-27.5,0.4c-4.9-0.7-9.5-1.4-14.6-3.7c-1.3-0.6-4.7-2.1-9.6-6.5
	c-8-7.1-10.6-12.6-14.6-22.6c-0.9-2.2-1.7-5.1-0.6-7.7c0.8-1.9,2.4-3.8,5.8-5.7c5.1-2.8,13.2-4.9,32-5.4c0,0,13.6-0.4,27.9,1.9
	c3.2,0.5,8.1,1.3,11.5,4.3c2.3,2,3.2,4.3,4,7.4C-116.1,272-113.4,282.3-117,295.1z"/>
<path id="XMLID_802_" fill="#7F3905" d="M-117,295.1c-0.9,3-1.9,5.2-4.6,7.2c-0.6,0.4-3,2.2-9.8,3.5c-3.1,0.6-13.3,2.4-27.5,0.4
	c-4.9-0.7-9.5-1.4-14.6-3.7c-1.3-0.6-4.7-2.1-9.6-6.5c-8-7.1-10.6-12.6-14.6-22.6c-0.9-2.2-1.7-5.1-0.6-7.7c0.8-1.9,2.4-3.8,5.8-5.7
	c5.1-2.8,13.2-4.9,32-5.4c0,0,13.6-0.4,27.9,1.9c3.2,0.5,8.1,1.3,11.5,4.3c2.3,2,3.2,4.3,4,7.4C-116.1,272-113.4,282.3-117,295.1z"
	/>
<path id="XMLID_801_" fill="#7F3905" d="M-228.4,273.5c-4,10-6.6,15.5-14.6,22.6c-5,4.4-8.4,5.9-9.6,6.5c-5.1,2.3-9.7,3-14.6,3.7
	c-14.2,2-24.5,0.3-27.5-0.4c-6.7-1.4-9.2-3.1-9.8-3.5c-2.7-2-3.7-4.2-4.6-7.2c-3.6-12.8-0.9-23.1,0.1-26.9c0.8-3,1.7-5.4,4-7.4
	c3.5-3.1,8.4-3.8,11.6-4.3c14.3-2.3,27.9-1.9,27.9-1.9c18.8,0.5,26.9,2.6,32,5.4c3.4,1.8,5.1,3.7,5.8,5.7
	C-226.7,268.4-227.5,271.3-228.4,273.5z"/>
</svg>
