<?xml version="1.0" encoding="utf-8"?>
<!-- Generator: Adobe Illustrator 19.0.0, SVG Export Plug-In . SVG Version: 6.00 Build 0)  -->
<svg version="1.1" id="Layer_1" xmlns="http://www.w3.org/2000/svg" xmlns:xlink="http://www.w3.org/1999/xlink" x="0px" y="0px"
	 viewBox="-348 225.5 262.8 111.5" enable-background="new -348 225.5 262.8 111.5" xml:space="preserve">
<path id="XMLID_621_" fill="#EF7B05" d="M-110.2,253.4c-0.1-0.4-0.6-1-1.4-1.6c-0.9-0.7-1.9-0.9-2.2-0.9c-5.2-0.9-13.2-3.2-18.3-4.2
	c-19.2-3.5-24.8-3.7-36.8-3.5c-13.4,0.2-21.7,4.1-21.8,4.1c-1.6,0.5-4,1.3-7.6,1.9c-4.8,0.9-12.3,1.1-15.6,1c-3.3,0-10.7-0.1-15.6-1
	c-3.6-0.7-6-1.4-7.6-1.9c0,0-8.4-3.9-21.8-4.1c-12-0.2-17.6-0.1-36.8,3.5c-5.1,0.9-13.1,3.2-18.3,4.2c-0.3,0-1.2,0.2-2.2,0.9
	c-0.8,0.6-1.2,1.2-1.4,1.6c-0.1,0.2-23.3,0.3-23.4,0.5c-0.7,2.7-1.7,8.2-1.4,10c0,0.3,24.9,0.4,24.9,0.5c0.3,0.9,0.8,1.1,1.2,1.8
	c0.7,1.1,0.6,2.3,0.6,3.5c-0.1,3,0.6,5.9,0.8,8.9c0,0.6,0.7,7.2,3.3,13.3c1.4,3.4,2.7,6.3,5.1,9.3c6.6,8,14.9,11.6,17.5,12.8
	c9.8,4.2,17.9,4.1,24.8,3.4c5-0.5,9.8-1.7,15.5-5.1c5.2-3.1,8.7-6.4,11.9-10.5c0,0,6.1-6.8,11.4-24.1c1-3.2,2.3-8.3,3.7-10.6
	c0.4-0.8,1.7-2.2,3.1-2.8c1-0.4,3.8-0.4,4.5-0.4s3.6,0,4.5,0.4c1.4,0.5,2.6,2,3.1,2.8c1.3,2.3,2.7,7.4,3.7,10.6
	c5.4,17.2,11.5,24.1,11.4,24.1c3.3,4.1,6.7,7.4,11.9,10.5c5.7,3.4,10.5,4.6,15.5,5.1c6.9,0.7,14.9,0.9,24.8-3.4
	c2.5-1.1,10.9-4.7,17.5-12.8c2.4-3,3.7-5.9,5.1-9.3c2.6-6.2,3.3-12.7,3.3-13.3c0.3-3,0.9-5.9,0.8-8.9c0-1.2-0.1-2.4,0.6-3.5
	c0.4-0.6,0.9-0.9,1.2-1.8c0-0.1,15.6-0.9,15.7-1.4c0.3-2.2-0.3-6.3-0.9-8.8C-95.6,254-110.1,253.6-110.2,253.4z M-230.5,271.2
	c-3.8,12.6-5.3,19.3-11.7,28.2c-3.9,5.4-7.4,7.3-8.4,8c-4,2.7-7.5,3.5-11.5,4.5c-8.5,2.1-20.8-0.6-23.8-1.7
	c-6.9-2.5-14.5-9.9-17.2-13.2c-8.1-10-6.9-26.7-5.6-31.2c1-3.5,2.3-6.2,5-8.6c4.1-3.7,9-4.8,12.1-5.5c14.2-3.3,26.8-3.3,26.8-3.3
	c17.5,0,24.8,2.7,29.6,6.1c3.1,2.3,4.7,4.6,5.4,7C-228.9,264.9-229.7,268.5-230.5,271.2z M-124.5,297c-2.7,3.3-10.3,10.7-17.2,13.2
	c-3,1.1-15.2,3.8-23.8,1.7c-4-1-7.5-1.8-11.5-4.5c-1-0.7-4.5-2.6-8.4-8c-6.4-8.9-7.9-15.7-11.7-28.2c-0.8-2.7-1.6-6.4-0.7-9.7
	c0.7-2.4,2.2-4.8,5.4-7c4.8-3.4,12-6.1,29.6-6.1c0,0,12.6,0,26.8,3.3c3.1,0.7,8.1,1.8,12.1,5.5c2.6,2.4,3.9,5.1,5,8.6
	C-117.5,270.3-116.3,287-124.5,297z"/>
</svg>
