<?xml version="1.0" encoding="utf-8"?>
<!-- Generator: Adobe Illustrator 19.0.0, SVG Export Plug-In . SVG Version: 6.00 Build 0)  -->
<svg version="1.1" id="Layer_1" xmlns="http://www.w3.org/2000/svg" xmlns:xlink="http://www.w3.org/1999/xlink" x="0px" y="0px"
	 viewBox="-26 220 273 106" style="enable-background:new -26 220 273 106;" xml:space="preserve">
<style type="text/css">
	.st0{fill:#EF7B05;}
	.st1{fill:none;stroke:#000000;stroke-width:6;stroke-miterlimit:10;}
	.st2{fill:none;stroke:#000000;stroke-width:6;stroke-linecap:round;stroke-linejoin:round;stroke-miterlimit:10;}
</style>
<path id="XMLID_900_" class="st0" d="M14.9,252.1c26.8-13.4,75.8,2.2,85.5,11.7c18.2,18.2-11.7,43.4-44.6,43.4S-12,265.4,14.9,252.1
	z"/>
<path id="XMLID_899_" class="st0" d="M212.4,252.1c-26.8-13.4-75.8,2.2-85.5,11.7c-18.2,18.2,11.7,43.4,44.6,43.4
	S239.2,265.4,212.4,252.1z"/>
<path id="XMLID_898_" class="st1" d="M101,272.5c0,0,13.3-8.2,26.5,0"/>
<line id="XMLID_682_" class="st2" x1="218" y1="269" x2="233" y2="269"/>
<line id="XMLID_642_" class="st2" x1="8" y1="270" x2="-3" y2="270"/>
<ellipse id="XMLID_641_" transform="matrix(0.8069 0.5907 -0.5907 0.8069 185.7405 -23.2861)" cx="128.5" cy="272.4" rx="1.9" ry="3.7"/>
<ellipse id="XMLID_640_" transform="matrix(-0.8913 0.4534 -0.4534 -0.8913 315.4345 469.2112)" cx="101.5" cy="272.4" rx="1.9" ry="3.7"/>
<ellipse id="XMLID_639_" cx="216.9" cy="268.5" rx="1.3" ry="2.4"/>
<ellipse id="XMLID_629_" cx="8.9" cy="269.5" rx="1.3" ry="2.4"/>
</svg>
