<?xml version="1.0" encoding="utf-8"?>
<!-- Generator: Adobe Illustrator 19.0.0, SVG Export Plug-In . SVG Version: 6.00 Build 0)  -->
<svg version="1.1" id="Layer_1" xmlns="http://www.w3.org/2000/svg" xmlns:xlink="http://www.w3.org/1999/xlink" x="0px" y="0px"
	 viewBox="0 0 306.1 213.5" style="enable-background:new 0 0 306.1 213.5;" xml:space="preserve">
<style type="text/css">
	.st0{fill:#FFFFFF;}
	.st1{fill:#EF7B05;}
</style>
<g id="XMLID_305_">
	<g id="XMLID_14081_">
		<path id="XMLID_99_" class="st0" d="M91.3,20.4c-0.5,2.9-1.1,5.7-1.8,8.5l-1,4.2c-0.3,1.4-0.7,2.8-1.1,4.2
			c-0.7,2.8-1.5,5.6-2.3,8.4L84,49.9c-0.4,1.4-0.9,2.8-1.4,4.2l-2.3-2.8c2.5-0.7,5-1.3,7.4-2.1c0.6-0.2,1.2-0.4,1.7-0.6
			c0.6-0.2,1.1-0.4,1.7-0.7c1.1-0.5,2.2-1,3.4-1.6l6.1-3.3l-2.7,6.4c-0.6,1.3-1.1,2.7-1.7,4l-1.6,4.1c-1.1,2.8-2.2,5.5-3.4,8.3
			c-0.6,1.4-1.2,2.7-1.9,4.1c-0.6,1.4-1.3,2.7-2,4.1c-0.7,1.3-1.4,2.7-2.2,4c-0.8,1.3-1.6,2.6-2.5,3.8c0.5-1.4,0.9-2.9,1.3-4.3
			c0.4-1.4,0.9-2.8,1.3-4.3l2.4-8.6c0.8-2.9,1.7-5.7,2.6-8.6c0.9-2.8,1.9-5.7,3-8.5l3.5,3.1c-2.4,1.3-5,2.5-7.7,3.2
			c-1.3,0.4-2.7,0.7-4,0.9c-1.3,0.2-2.7,0.4-4,0.6l-3.8,0.5l1.5-3.3c0.5-1.2,1.1-2.6,1.6-3.9l1.5-4l3.1-8.1c0.5-1.4,1-2.7,1.6-4
			l1.6-4C89.2,25.8,90.2,23.1,91.3,20.4z"/>
	</g>
	<path id="XMLID_14065_" class="st1" d="M275.2,152.3c-0.6-1.3-27.8-0.4-30.4-0.6c-2.7-0.3-4.5-5.1-4.5-5.1
		c-0.2-0.4-0.3-0.7-0.4-0.9c-5.6-15.5-20.5-26.6-37.9-26.6c-19.6,0-36,14-39.6,32.6c-0.2,0.2-0.5,0.3-1.1,0.1
		c-2.2-0.7-8.1-1.1-10.7-1.2v0h-0.3v0c-2.6,0-8.5,0.4-10.7,1.2c-0.6,0.2-0.9,0.1-1.1-0.1c-3.6-18.5-20-32.6-39.6-32.6
		c-17.4,0-32.3,11.1-37.9,26.6c-0.1,0.2-0.3,0.5-0.4,0.9c0,0-1.8,4.8-4.5,5.1c-2.7,0.3-32.9-0.6-33.4,0.6c-0.6,1.3,0.1,8.9,0.3,9.4
		c0.2,0.5,27.6,2.2,29.3,2.2c1.5,0,5.2,0.2,7.2,3.4c3.7,18.5,20,32.5,39.6,32.5c21.7,0,39.5-17.3,40.3-38.8c0.4-0.8,1.1-1.6,1.9-2
		c1.8-1,7.9-1.4,9.3-1.5c1.4,0,7.4,0.5,9.3,1.5c0.8,0.4,1.5,1.2,1.9,2c0.8,21.5,18.6,38.8,40.3,38.8c19.6,0,36-14,39.6-32.5
		c2-3.2,5.6-3.4,7.2-3.4c1.7,0,26.1-1.7,26.3-2.2C275.1,161.2,275.8,153.6,275.2,152.3z M98.9,194.9c-19.5,0-35.4-15.9-35.4-35.4
		c0-19.5,15.9-35.4,35.4-35.4c19.5,0,35.4,15.9,35.4,35.4C134.3,179,118.4,194.9,98.9,194.9z M201.9,194.9
		c-19.5,0-35.4-15.9-35.4-35.4c0-19.5,15.9-35.4,35.4-35.4c19.5,0,35.4,15.9,35.4,35.4C237.3,179,221.4,194.9,201.9,194.9z"/>
</g>
</svg>
