<?xml version="1.0" encoding="utf-8"?>
<!-- Generator: Adobe Illustrator 19.0.0, SVG Export Plug-In . SVG Version: 6.00 Build 0)  -->
<svg version="1.1" id="Layer_1" xmlns="http://www.w3.org/2000/svg" xmlns:xlink="http://www.w3.org/1999/xlink" x="0px" y="0px"
	 viewBox="0 0 306.1 141.2" style="enable-background:new 0 0 306.1 141.2;" xml:space="preserve">
<style type="text/css">
	.st0{fill:#7F3905;}
	.st1{fill:#EF7B05;}
</style>
<g id="XMLID_14008_">
	<g id="XMLID_14010_">
		<g id="XMLID_14030_">
			<g id="XMLID_14032_">
				<path id="XMLID_14034_" class="st0" d="M242.4,52.3c3.6,4.8,5.5,10.7,5.2,16.6c-0.2,4.7-0.9,9.4-2,13.7
					c-1.8,7.1-12.6,22.8-27.8,25.6c-15.1,2.8-28.5-2.3-37.1-8.4c-8.6-6.1-11.9-17.4-12.9-20.5c2.3-3.8,0-8.8-2.3-10.6
					c-2.2-19.5,15.7-26.1,24.5-28c8.2-1.8,10.3-3.5,31.1-1.9C230.8,39.6,238,46.5,242.4,52.3z"/>
			</g>
		</g>
		<g id="XMLID_14024_">
			<g id="XMLID_14026_">
				<path id="XMLID_14028_" class="st0" d="M107.1,40.7c8.8,1.9,26.6,8.5,24.5,28c-2.3,1.8-4.5,6.8-2.3,10.6
					c-1,3-4.3,14.4-12.9,20.5c-8.6,6.1-22,11.2-37.1,8.4c-15.2-2.8-26-18.5-27.8-25.6c-1.1-4.3-1.8-9-2-13.7
					c-0.2-6,1.6-11.9,5.2-16.6c4.4-5.7,11.6-12.7,21.3-13.5C96.8,37.2,98.9,38.9,107.1,40.7z"/>
			</g>
		</g>
		<g id="XMLID_14012_">
			<g id="XMLID_14014_">
				<path id="XMLID_14016_" class="st1" d="M167.9,79.3c1,3,4.3,14.4,12.9,20.5c8.6,6.1,22,11.2,37.1,8.4
					c15.2-2.8,26-18.5,27.8-25.6c1.1-4.3,1.8-9,2-13.7c0.2-6-1.6-11.9-5.2-16.6c-4.4-5.7-11.6-12.7-21.3-13.5
					c-20.7-1.6-22.8,0.1-31.1,1.9c-8.8,1.9-26.6,8.5-24.5,28C167.9,70.5,170.1,75.5,167.9,79.3z M131.6,68.7
					c2.2-19.5-15.7-26.1-24.5-28c-8.2-1.8-10.3-3.5-31.1-1.9c-9.7,0.8-16.9,7.7-21.3,13.5c-3.6,4.8-5.5,10.7-5.2,16.6
					c0.2,4.7,0.9,9.4,2,13.7c1.8,7.1,12.6,22.8,27.8,25.6c15.1,2.8,28.5-2.3,37.1-8.4c8.6-6.1,11.9-17.4,12.9-20.5
					C127.1,75.5,129.4,70.5,131.6,68.7z M135.6,68.3c-0.4,2.7-5.2,21.9-14,30.7c-6.8,6.8-23,19.7-47.7,11
					C42.7,99.1,47.3,69.5,46.5,64.6c-3,0-25.1-0.2-25.1-0.2l-1-4.7h27.6c0,0,5.3-23.1,33-24.2c27.6-1.1,38.8,5.6,43.9,9.7
					c6.3,5,9.5,10.4,9.5,19.5c0.8,0.4,0.8-7.6,2.3-8.7c1.3-1,5.7-4.1,10.3-5.5c1-0.2,2.1-0.2,3.3,0c4.6,1.3,9,4.5,10.3,5.5
					c1.5,1.1,1.5,9.1,2.3,8.7c0-9.1,3.2-14.4,9.5-19.5c5.2-4.1,16.3-10.8,43.9-9.7c27.6,1.1,33,24.2,33,24.2h27.6l-1,4.7
					c0,0-22,0.2-25.1,0.2c-0.8,4.9,3.8,34.5-27.3,45.4c-24.7,8.7-40.9-4.2-47.7-11c-8.8-8.8-13.6-28-14-30.7
					c-2.3-2.7-2.7-6.8-2.7-9.8c0-1.9-4.2-3.9-7.3-5.1c-2-0.8-4.2-0.8-6.1,0c-3.2,1.3-7.3,3.3-7.3,5.1
					C138.2,61.5,137.8,65.7,135.6,68.3z"/>
			</g>
		</g>
	</g>
</g>
</svg>
