<?xml version="1.0" encoding="utf-8"?>
<!-- Generator: Adobe Illustrator 19.0.0, SVG Export Plug-In . SVG Version: 6.00 Build 0)  -->
<svg version="1.1" id="Layer_1" xmlns="http://www.w3.org/2000/svg" xmlns:xlink="http://www.w3.org/1999/xlink" x="0px" y="0px"
	 viewBox="-343 228 273 106" enable-background="new -343 228 273 106" xml:space="preserve">
<path id="XMLID_909_" fill="#7F3905" d="M-306.6,260.053c26.8-13.4,75.8,2.2,85.5,11.7c18.2,18.2-11.7,43.4-44.6,43.4
	S-333.5,273.353-306.6,260.053z"/>
<path id="XMLID_908_" fill="#7F3905" d="M-109.1,260.053c-26.8-13.4-75.8,2.2-85.5,11.7c-18.2,18.2,11.7,43.4,44.6,43.4
	S-82.3,273.353-109.1,260.053z"/>
<path id="XMLID_907_" fill="none" stroke="#000000" stroke-width="6" stroke-miterlimit="10" d="M-220.5,280.453
	c0,0,13.3-8.2,26.5,0"/>
<line id="XMLID_906_" fill="none" stroke="#000000" stroke-width="6" stroke-linecap="round" stroke-linejoin="round" stroke-miterlimit="10" x1="-103.5" y1="276.953" x2="-88.5" y2="276.953"/>
<line id="XMLID_905_" fill="none" stroke="#000000" stroke-width="6" stroke-linecap="round" stroke-linejoin="round" stroke-miterlimit="10" x1="-313.5" y1="277.953" x2="-324.5" y2="277.953"/>
<ellipse id="XMLID_904_" transform="matrix(0.5907 -0.8069 0.8069 0.5907 -305.2174 -40.9569)" cx="-192.9795" cy="280.3714" rx="3.7" ry="1.9"/>
<ellipse id="XMLID_903_" transform="matrix(0.4534 0.8913 -0.8913 0.4534 129.6445 349.3843)" cx="-220.0386" cy="280.3942" rx="3.7" ry="1.9"/>
<ellipse id="XMLID_902_" cx="-104.6" cy="276.453" rx="1.3" ry="2.4"/>
<ellipse id="XMLID_901_" cx="-312.6" cy="277.453" rx="1.3" ry="2.4"/>
</svg>
