<?xml version="1.0" encoding="utf-8"?>
<!-- Generator: Adobe Illustrator 19.0.0, SVG Export Plug-In . SVG Version: 6.00 Build 0)  -->
<svg version="1.1" id="Layer_1" xmlns="http://www.w3.org/2000/svg" xmlns:xlink="http://www.w3.org/1999/xlink" x="0px" y="0px"
	 viewBox="-327 212.8 303.4 137.2" enable-background="new -327 212.8 303.4 137.2" xml:space="preserve">
<path id="XMLID_14718_" fill="#B75B08" d="M-44.8047,232.6225c-11.4,4.5-23.9,4.9-36.1,4.4s-24.6-2.7-36.6-0.6
	c-35.7,6.1-57.9,28.5-57.9,28.5s-24.5-22.9-57.7-28.6c-12-2.1-24.4,0.1-36.6,0.6s-24.8,0.2-36.1-4.4c-3.2,11.4-1.2,24.1,5.3,34
	c-1.8-0.2-3.6-0.5-5.4-0.7c2.6,15.2,12.1,29.1,25.4,36.9c-1.6,0.4-3.2,0.8-4.8,1.2c6.6,11.9,18.7,20.2,31.8,23.8
	c13.1,3.7,27.1,3,40.3,0c13.2-3.1,38-14.4,38-14.4s24.8,11.3,38.1,14.4c13.2,3.1,27.2,3.7,40.3,0s25.1-12,31.8-23.8
	c-1.6-0.4-3.2-0.8-4.8-1.2c13.3-7.9,22.8-21.7,25.4-36.9c-1.8,0.2-3.6,0.5-5.4,0.7
	C-43.6047,256.7225-41.6047,243.9225-44.8047,232.6225z M-263.0047,272.5225c36.8-14,53.6-0.7,64.1,18.7
	C-234.9047,301.0225-258.5047,297.2225-263.0047,272.5225z M-151.7047,291.2225c10.4-19.4,27.3-32.7,64.1-18.7
	C-92.1047,297.2225-115.7047,301.0225-151.7047,291.2225z"/>
</svg>
