<?xml version="1.0" encoding="utf-8"?>
<!-- Generator: Adobe Illustrator 19.0.0, SVG Export Plug-In . SVG Version: 6.00 Build 0)  -->
<svg version="1.1" id="Layer_1" xmlns="http://www.w3.org/2000/svg" xmlns:xlink="http://www.w3.org/1999/xlink" x="0px" y="0px"
	 viewBox="0 0 274.3 109.5" style="enable-background:new 0 0 274.3 109.5;" xml:space="preserve">
<style type="text/css">
	.st0{fill:#EF7B05;}
</style>
<g id="XMLID_5585_">
	<g id="XMLID_4537_">
		<defs>
			<path id="XMLID_4538_" d="M234.8,28.1h-20.7c-1.8-0.1-3.7-0.2-5.6-0.2c-2.1,0-4.3,0-6.6,0.1l-0.4,0c-0.2,0-0.8,0-1.8,0.1h-0.8
				l0,0c-6.8,0.2-24.9,1-35.3,3.1c-1.9,0.3-10.7,1.9-17.1,2.6c-6.8,0.8-11.5,0.9-12,0.9v0c0,0-0.1,0-0.1,0c0,0,0,0-0.1,0v0
				c-0.5,0-5.2-0.1-12-0.9c-6.4-0.7-15.2-2.3-17.1-2.6c-10.4-2-28.5-2.8-35.3-3.1l0,0h-0.8c-1,0-1.7,0-1.8-0.1l-0.4,0
				c-2.3,0-4.5-0.1-6.6-0.1c-1.9,0-3.8,0-5.6,0.2H33.9c-1,0-1.9,0.9-1.9,2v6.6c0,1.2,0.5,2.4,1.3,3.3c1.3,1.4,3.4,4.2,4.7,9.6h1.2
				c2.5,9.2,8.2,21.6,17,28.8c0.3,0.3,0.7,0.5,1,0.8l0.1,0l0.1,0c6.7,5.6,17.6,8.4,32.6,8.4c2.9,0,5.9-0.1,9-0.3
				c7.7-0.5,13.7-4.5,17.9-11.7c0.2-0.4,0.4-0.7,0.6-1.1l0,0c0.1-0.1,0.2-0.3,0.2-0.5c1.7-3.5,3.4-7.4,4.8-11l1,0.5
				c1.5-3.9,2.6-7.4,3.2-9.8c1-4.6,1.9-6.1,3.2-6.3l0,0c1.4-0.2,2.9-0.4,4.4-0.4c1.5,0,2.9,0.1,4.4,0.4l0,0c1.3,0.2,2.2,1.7,3.2,6.3
				c0.5,2.4,1.7,5.9,3.2,9.8l1-0.5c1.4,3.6,3.1,7.6,4.8,11c0.1,0.2,0.2,0.3,0.2,0.5l0,0c0.2,0.3,0.4,0.7,0.6,1.1
				C156,83,162,86.9,169.7,87.4c3.1,0.2,6.1,0.3,9,0.3c15,0,25.9-2.8,32.6-8.4l0.1,0l0.1,0c0.4-0.2,0.7-0.5,1-0.8
				c8.8-7.3,14.5-19.6,17-28.8h1.2c1.4-5.4,3.4-8.3,4.7-9.6c0.8-0.9,1.3-2.1,1.3-3.3v-6.6C236.7,29,235.8,28.1,234.8,28.1z"/>
		</defs>
		<use xlink:href="#XMLID_4538_"  style="overflow:visible;fill:#EF7B05;"/>
		<clipPath id="XMLID_28_">
			<use xlink:href="#XMLID_4538_"  style="overflow:visible;"/>
		</clipPath>
	</g>
	<path id="XMLID_4533_" class="st0" d="M234.8,28.1h-20.7c-1.8-0.1-3.7-0.2-5.6-0.2c-2.1,0-4.3,0-6.6,0.1l-0.4,0
		c-0.2,0-0.8,0-1.8,0.1h-0.8l0,0c-6.8,0.2-24.9,1-35.3,3.1c-1.9,0.3-10.7,1.9-17.1,2.6c-6.8,0.8-11.5,0.9-12,0.9v0c0,0-0.1,0-0.1,0
		c0,0,0,0-0.1,0v0c-0.5,0-5.2-0.1-12-0.9c-6.4-0.7-15.2-2.3-17.1-2.6c-10.4-2-28.5-2.8-35.3-3.1l0,0h-0.8c-1,0-1.7,0-1.8-0.1l-0.4,0
		c-2.3,0-4.5-0.1-6.6-0.1c-1.9,0-3.8,0-5.6,0.2H33.9c-1,0-17.3,0.5-17.3,1.6l-1,5.5c0,1.2,16.9,3.9,17.8,4.8
		c1.3,1.4,3.4,4.2,4.7,9.6h1.2c2.5,9.2,8.2,21.6,17,28.8c0.3,0.3,0.7,0.5,1,0.8l0.1,0l0.1,0c6.7,5.6,17.6,8.4,32.6,8.4
		c2.9,0,5.9-0.1,9-0.3c7.7-0.5,13.7-4.5,17.9-11.7c0.2-0.4,0.4-0.7,0.6-1.1l0,0c0.1-0.1,0.2-0.3,0.2-0.5c1.7-3.5,3.4-7.4,4.8-11
		l1,0.5c1.5-3.9,2.6-7.4,3.2-9.8c1-4.6,1.9-6.1,3.2-6.3l0,0c1.4-0.2,2.9-0.4,4.4-0.4c1.5,0,2.9,0.1,4.4,0.4l0,0
		c1.3,0.2,2.2,1.7,3.2,6.3c0.5,2.4,1.7,5.9,3.2,9.8l1-0.5c1.4,3.6,3.1,7.6,4.8,11c0.1,0.2,0.2,0.3,0.2,0.5l0,0
		c0.2,0.3,0.4,0.7,0.6,1.1C156,83,162,86.9,169.7,87.4c3.1,0.2,6.1,0.3,9,0.3c15,0,25.9-2.8,32.6-8.4l0.1,0l0.1,0
		c0.4-0.2,0.7-0.5,1-0.8c8.8-7.3,14.5-19.6,17-28.8h1.2c1.4-5.4,3.4-8.3,4.7-9.6c0.8-0.9,18.8-4.2,18.8-5.4V29
		C254.2,27.9,235.8,28.1,234.8,28.1z M98.9,85.8c-3.1,0.2-6.1,0.3-8.9,0.3c-11.2,0-26.1-1.7-33.7-9.9c-7.8-8.4-12.2-16.7-14.1-27
		c0.6-0.4,0.9-1.2,0.8-2c-0.1-0.9-0.3-1.9-0.4-2.9c-1.4-13.1,8.6-12.8,24.5-12.4c0,0,30.9,0.8,41.2,4c10.2,3.2,14.8,4.1,12.6,18.2
		c-0.3,1.8-0.6,3.6-1,5.4c-0.2,0.9,0.1,1.8,0.6,2.4C117.8,73.7,112.3,84.9,98.9,85.8z M212.4,76.3c-7.6,8.2-22.5,9.9-33.7,9.9
		c-2.9,0-5.9-0.1-8.9-0.3c-13.4-0.9-18.9-12.1-21.7-23.9c0.6-0.6,0.8-1.5,0.6-2.4c-0.4-1.8-0.7-3.6-1-5.4
		c-2.2-14.1,2.3-14.9,12.6-18.2c10.2-3.2,41.2-4,41.2-4c15.9-0.3,25.9-0.6,24.5,12.4c-0.1,1-0.2,1.9-0.4,2.9c-0.1,0.8,0.2,1.6,0.8,2
		C224.6,59.6,220.2,67.8,212.4,76.3z"/>
	<g id="XMLID_2282_">
		<path id="XMLID_4531_" class="st0" d="M88.7,29.2c0.8,0.1,1.7,0.1,2.5,0.2C90.4,29.3,89.6,29.2,88.7,29.2z"/>
		<path id="XMLID_4530_" class="st0" d="M91.3,29.4c1.3,0.1,2.5,0.2,3.8,0.4C93.8,29.6,92.5,29.5,91.3,29.4z"/>
		<path id="XMLID_4529_" class="st0" d="M105.9,31.3c0.2,0,0.4,0.1,0.6,0.1C106.3,31.4,106.1,31.3,105.9,31.3z"/>
		<path id="XMLID_4528_" class="st0" d="M109.2,31.9c0.3,0.1,0.7,0.1,1.1,0.2C109.9,32,109.6,31.9,109.2,31.9z"/>
		<path id="XMLID_4527_" class="st0" d="M107.8,31.6c0.4,0.1,0.9,0.2,1.5,0.2C108.7,31.8,108.2,31.7,107.8,31.6z"/>
		<path id="XMLID_4526_" class="st0" d="M110.3,32.1c1.1,0.2,2.3,0.4,3.6,0.6C112.7,32.5,111.4,32.3,110.3,32.1z"/>
		<path id="XMLID_4525_" class="st0" d="M63.4,28c1.1,0,2.2,0,3.4,0.1C65.6,28,64.5,28,63.4,28z"/>
		<path id="XMLID_4524_" class="st0" d="M106.6,31.4c0.2,0,0.5,0.1,0.8,0.1C107.1,31.5,106.8,31.5,106.6,31.4z"/>
		<path id="XMLID_4523_" class="st0" d="M56,28c-0.5,0-0.9,0-1.4,0.1l0,0C55,28.1,55.5,28,56,28z"/>
		<path id="XMLID_4522_" class="st0" d="M61.8,27.9c-0.5,0-1.1,0-1.6,0l0,0C60.7,27.9,61.2,27.9,61.8,27.9z"/>
		<path id="XMLID_4521_" class="st0" d="M85,28.9c0.8,0.1,1.7,0.1,2.5,0.2C86.6,29,85.8,28.9,85,28.9z"/>
		<path id="XMLID_4520_" class="st0" d="M105.9,31.3c-0.3-0.1-0.5-0.1-0.7-0.1c-2.9-0.6-6.5-1.1-10.2-1.4c3.7,0.4,7.3,0.9,10.2,1.4
			C105.4,31.2,105.6,31.3,105.9,31.3z"/>
		<path id="XMLID_4519_" class="st0" d="M173.6,29.7c1.2-0.1,2.5-0.3,3.8-0.4C176.1,29.5,174.9,29.6,173.6,29.7z"/>
		<path id="XMLID_4512_" class="st0" d="M212.7,28c-1.4-0.1-2.8-0.1-4.2-0.1l0,0C209.9,27.9,211.3,28,212.7,28z"/>
		<path id="XMLID_4511_" class="st0" d="M201.9,28c1.7,0,3.4-0.1,5-0.1C205.3,28,203.6,28,201.9,28l-0.2,0L201.9,28z"/>
		<path id="XMLID_4510_" class="st0" d="M200.8,28.1c-0.3,0-0.7,0-1.2,0l0,0C200.1,28.1,200.5,28.1,200.8,28.1z"/>
		<path id="XMLID_4509_" class="st0" d="M200.8,28.1c0.2,0,0.3,0,0.4,0C201.1,28,201,28.1,200.8,28.1z"/>
		<path id="XMLID_4508_" class="st0" d="M236.3,29c-0.3-0.5-0.9-0.9-1.6-0.9C235.4,28.1,236,28.4,236.3,29z"/>
		<path id="XMLID_4507_" class="st0" d="M179.9,29.2c3-0.2,5.9-0.4,8.6-0.6C185.8,28.7,182.9,28.9,179.9,29.2z"/>
		<path id="XMLID_4506_" class="st0" d="M134.3,34.7C134.3,34.7,134.3,34.7,134.3,34.7C134.3,34.7,134.3,34.7,134.3,34.7L134.3,34.7
			z"/>
		<path id="XMLID_4505_" class="st0" d="M130.6,34.5c0.5,0,1,0.1,1.4,0.1C131.6,34.6,131.2,34.6,130.6,34.5z"/>
		<path id="XMLID_4504_" class="st0" d="M134.4,34.7c0.1,0,0.2,0,0.4,0C134.6,34.7,134.5,34.7,134.4,34.7L134.4,34.7z"/>
		<path id="XMLID_4503_" class="st0" d="M177.4,29.4c0.8-0.1,1.7-0.1,2.5-0.2C179.1,29.2,178.2,29.3,177.4,29.4z"/>
		<path id="XMLID_4502_" class="st0" d="M33.9,28.1c-0.3,0-0.5,0.1-0.7,0.2C33.4,28.1,33.6,28.1,33.9,28.1L33.9,28.1z"/>
		<path id="XMLID_4501_" class="st0" d="M124.7,34.1c1.6,0.2,3,0.3,4.2,0.4C127.7,34.3,126.3,34.2,124.7,34.1z"/>
		<path id="XMLID_4500_" class="st0" d="M134.4,34.7L134.4,34.7C134.4,34.7,134.4,34.7,134.4,34.7C134.4,34.7,134.4,34.7,134.4,34.7
			z"/>
		<path id="XMLID_4499_" class="st0" d="M186.7,87.5c-1.7,0.1-3.4,0.2-5.2,0.3C183.3,87.7,185,87.6,186.7,87.5z"/>
		<path id="XMLID_4498_" class="st0" d="M159.4,84.1c-1.1-0.7-2.2-1.6-3.2-2.5C157.2,82.5,158.3,83.4,159.4,84.1z"/>
		<path id="XMLID_4497_" class="st0" d="M191.6,86.9c-1.6,0.2-3.2,0.4-4.9,0.5C188.4,87.3,190,87.2,191.6,86.9z"/>
		<path id="XMLID_4496_" class="st0" d="M151.6,75.5c0.1,0.1,0.1,0.2,0.2,0.3c1.3,2.3,2.8,4.2,4.5,5.8c-1.7-1.6-3.1-3.5-4.5-5.8
			C151.7,75.6,151.7,75.6,151.6,75.5z"/>
		<path id="XMLID_4495_" class="st0" d="M150.3,72.9c-0.4-0.9-0.9-1.8-1.3-2.7C149.4,71.1,149.9,72,150.3,72.9z"/>
		<path id="XMLID_4494_" class="st0" d="M151.2,74.7L151.2,74.7c-0.1-0.2-0.2-0.3-0.3-0.5C151,74.3,151.1,74.5,151.2,74.7
			L151.2,74.7c0.1,0.1,0.1,0.2,0.2,0.3C151.3,74.9,151.3,74.8,151.2,74.7z"/>
		<path id="XMLID_4493_" class="st0" d="M212.4,78.5c-0.2,0.1-0.3,0.3-0.5,0.4C212.1,78.8,212.3,78.6,212.4,78.5
			c3.3-2.7,6.2-6.2,8.6-9.9C218.6,72.3,215.7,75.8,212.4,78.5z"/>
		<path id="XMLID_4492_" class="st0" d="M233.9,41.8c-0.3,0.4-0.6,1-0.9,1.5C233.3,42.7,233.6,42.2,233.9,41.8z"/>
		<path id="XMLID_4491_" class="st0" d="M230.6,49.7c0.7-2.7,1.5-4.8,2.4-6.3C232.2,44.9,231.3,46.9,230.6,49.7L230.6,49.7z"/>
		<polygon id="XMLID_4490_" class="st0" points="211.3,79.3 211.3,79.3 211.4,79.3 211.3,79.3 		"/>
		<path id="XMLID_4489_" class="st0" d="M32,29.7c0.1-0.3,0.1-0.5,0.3-0.7C32.2,29.2,32.1,29.4,32,29.7z"/>
		<path id="XMLID_4488_" class="st0" d="M223.3,64.8c-0.7,1.3-1.5,2.6-2.3,3.8C221.8,67.4,222.6,66.1,223.3,64.8z"/>
		<path id="XMLID_4468_" class="st0" d="M226.2,59c-0.8,1.9-1.8,3.9-2.9,5.8C224.4,62.9,225.3,60.9,226.2,59z"/>
		
			<rect id="XMLID_4462_" x="145" y="63.4" transform="matrix(0.9027 -0.4304 0.4304 0.9027 -13.104 68.8346)" class="st0" width="1.1" height="0"/>
		<path id="XMLID_4460_" class="st0" d="M117.5,74.6L117.5,74.6c-0.1,0.2-0.2,0.4-0.3,0.6C117.3,75,117.4,74.8,117.5,74.6
			L117.5,74.6c0-0.1,0.1-0.2,0.1-0.2C117.6,74.5,117.5,74.6,117.5,74.6z"/>
		<path id="XMLID_2361_" class="st0" d="M39.2,49.7c0.6,2.3,1.4,4.8,2.5,7.4C40.7,54.5,39.8,52,39.2,49.7L39.2,49.7z"/>
		<path id="XMLID_2359_" class="st0" d="M63.2,83c6.6,3.1,15.6,4.7,26.8,4.7l0,0C78.7,87.8,69.7,86.2,63.2,83z"/>
		<path id="XMLID_2292_" class="st0" d="M57.3,79.3c-0.2-0.1-0.4-0.2-0.5-0.4C56.9,79,57.1,79.2,57.3,79.3L57.3,79.3L57.3,79.3z"/>
		<path id="XMLID_2291_" class="st0" d="M43.4,60.9c-0.6-1.3-1.2-2.6-1.7-3.9C42.2,58.3,42.7,59.6,43.4,60.9z"/>
		<path id="XMLID_2290_" class="st0" d="M32,36.7v-6.6c0-0.1,0-0.3,0-0.4c0,0.1,0,0.3,0,0.4L32,36.7c0,1.2,0.5,2.4,1.3,3.3
			c0.3,0.3,0.7,0.8,1.1,1.3c-0.4-0.5-0.8-1-1.1-1.3C32.5,39.2,32,38,32,36.7z"/>
		<path id="XMLID_2289_" class="st0" d="M141.4,51.5c-0.1-0.4-0.2-0.8-0.4-1.2C141.1,50.7,141.3,51.1,141.4,51.5z"/>
		<path id="XMLID_2288_" class="st0" d="M138.7,47.5c-0.7-0.1-1.5-0.2-2.2-0.3C137.3,47.3,138,47.4,138.7,47.5L138.7,47.5
			L138.7,47.5z"/>
		<path id="XMLID_2287_" class="st0" d="M122.5,63.1c-0.5,1.4-1.1,2.8-1.7,4.2C121.4,65.9,122,64.5,122.5,63.1L122.5,63.1z"/>
		<path id="XMLID_2286_" class="st0" d="M141,50.4c-0.1-0.4-0.2-0.7-0.4-0.9C140.8,49.7,140.9,50,141,50.4z"/>
		<path id="XMLID_2285_" class="st0" d="M134.3,47.2c-0.4,0-0.7,0-1.1,0C133.6,47.2,134,47.2,134.3,47.2L134.3,47.2z"/>
		<path id="XMLID_2284_" class="st0" d="M123.6,63.6c1.1-2.9,2-5.6,2.7-7.8C125.6,58,124.7,60.7,123.6,63.6L123.6,63.6z"/>
		<path id="XMLID_2283_" class="st0" d="M129.9,47.5L129.9,47.5c0.4-0.1,0.7-0.1,1.1-0.2C130.7,47.4,130.3,47.5,129.9,47.5
			L129.9,47.5z"/>
	</g>
	<g id="XMLID_2280_">
		<defs>
			<path id="XMLID_2281_" d="M89.9,85.1c-11,0-25.6-1.7-32.9-9.5c-7.6-8.1-11.8-16.2-13.7-25.9c0.6-0.7,0.9-1.6,0.7-2.5
				c-0.1-0.9-0.3-1.9-0.4-2.8c-0.4-3.7,0.2-6.3,1.7-8c2.5-2.8,7.7-3.3,14.8-3.3c2,0,4.2,0,6.5,0.1l0.4,0c0.3,0,30.9,0.8,40.9,4
				l1.1,0.3c9.5,3,12.7,4,10.7,16.6c-0.3,2-0.6,3.7-1,5.4c-0.2,1,0,2,0.5,2.8c-3.6,14.7-10.1,21.8-20.6,22.6
				C95.8,85,92.8,85.1,89.9,85.1z"/>
		</defs>
		<use xlink:href="#XMLID_2281_"  style="overflow:visible;fill:#FFFFFF;"/>
		<clipPath id="XMLID_29_">
			<use xlink:href="#XMLID_2281_"  style="overflow:visible;"/>
		</clipPath>
	</g>
	<g id="XMLID_2278_">
		<defs>
			<path id="XMLID_2279_" d="M178.7,85.1c-2.8,0-5.8-0.1-8.9-0.3c-10.5-0.7-17-7.9-20.6-22.6c0.5-0.8,0.7-1.9,0.5-2.8
				c-0.3-1.7-0.7-3.4-1-5.4c-2-12.6,1.2-13.6,10.7-16.6l1.1-0.3c10-3.2,40.6-3.9,40.9-4l0.4,0c2.3,0,4.5-0.1,6.5-0.1
				c7.1,0,12.3,0.6,14.8,3.3c1.5,1.7,2.1,4.3,1.7,8c-0.1,1-0.2,1.9-0.4,2.8c-0.1,0.9,0.1,1.8,0.7,2.5c-1.9,9.8-6.1,17.8-13.7,25.9
				C204.3,83.4,189.7,85.1,178.7,85.1z"/>
		</defs>
		<use xlink:href="#XMLID_2279_"  style="overflow:visible;fill:#FFFFFF;"/>
		<clipPath id="XMLID_30_">
			<use xlink:href="#XMLID_2279_"  style="overflow:visible;"/>
		</clipPath>
	</g>
</g>
</svg>
