<?xml version="1.0" encoding="utf-8"?>
<!-- Generator: Adobe Illustrator 19.0.0, SVG Export Plug-In . SVG Version: 6.00 Build 0)  -->
<svg version="1.1" id="Layer_1" xmlns="http://www.w3.org/2000/svg" xmlns:xlink="http://www.w3.org/1999/xlink" x="0px" y="0px"
	 viewBox="-351 194.7 255.4 172.3" enable-background="new -351 194.7 255.4 172.3" xml:space="preserve">
<g id="XMLID_79_">
	<g id="XMLID_83_">
		<g id="XMLID_86_">
			<polygon id="XMLID_102_" fill="#1D1D1B" points="-112.95,264.3 -112.95,272.8 -112.95,281.3 -121.45,281.3 -121.45,289.8 
				-129.15,289.8 -129.95,289.8 -129.95,298.3 -138.45,298.3 -138.45,306.8 -145.65,306.8 -146.95,306.8 -201.75,306.8 
				-201.75,298.3 -202.45,298.3 -210.25,298.3 -210.25,289.8 -218.75,289.8 -218.75,281.3 -218.75,272.8 -236.85,272.8 
				-236.85,281.3 -236.85,289.8 -243.95,289.8 -245.35,289.8 -245.35,298.3 -253.85,298.3 -253.85,306.8 -260.75,306.8 
				-262.35,306.8 -308.45,306.8 -308.45,298.3 -310.55,298.3 -316.95,298.3 -316.95,289.8 -325.45,289.8 -325.45,281.3 
				-333.65,281.3 -333.65,272.8 -333.65,264.3 			"/>
			<g id="XMLID_95_">
				<rect id="XMLID_101_" x="-146.95" y="281.3" fill="#FFFFFF" width="8.5" height="8.5"/>
				<rect id="XMLID_100_" x="-155.45" y="272.8" fill="#FFFFFF" width="8.5" height="8.5"/>
				<rect id="XMLID_99_" x="-155.45" y="289.8" fill="#FFFFFF" width="8.5" height="8.5"/>
				<rect id="XMLID_98_" x="-163.85" y="281.3" fill="#FFFFFF" width="8.5" height="8.5"/>
				<rect id="XMLID_97_" x="-138.45" y="272.8" fill="#FFFFFF" width="8.5" height="8.5"/>
				<rect id="XMLID_96_" x="-172.35" y="289.8" fill="#FFFFFF" width="8.5" height="8.5"/>
			</g>
			<g id="XMLID_88_">
				<rect id="XMLID_94_" x="-262.05" y="281.3" fill="#FFFFFF" width="8.5" height="8.5"/>
				<rect id="XMLID_93_" x="-270.55" y="272.8" fill="#FFFFFF" width="8.5" height="8.5"/>
				<rect id="XMLID_92_" x="-270.55" y="289.8" fill="#FFFFFF" width="8.5" height="8.5"/>
				<rect id="XMLID_91_" x="-278.95" y="281.3" fill="#FFFFFF" width="8.5" height="8.5"/>
				<rect id="XMLID_90_" x="-253.55" y="272.8" fill="#FFFFFF" width="8.5" height="8.5"/>
				<rect id="XMLID_89_" x="-287.45" y="289.8" fill="#FFFFFF" width="8.5" height="8.5"/>
			</g>
		</g>
		<rect id="XMLID_85_" x="-345.25" y="264.3" fill="#1D1D1B" width="11.6" height="8.5"/>
	</g>
	<rect id="XMLID_80_" x="-112.95" y="264.3" fill="#1D1D1B" width="11.6" height="8.5"/>
</g>
</svg>
