<?xml version="1.0" encoding="utf-8"?>
<!-- Generator: Adobe Illustrator 19.0.0, SVG Export Plug-In . SVG Version: 6.00 Build 0)  -->
<svg version="1.1" id="Layer_1" xmlns="http://www.w3.org/2000/svg" xmlns:xlink="http://www.w3.org/1999/xlink" x="0px" y="0px"
	 viewBox="-343 228 273 106" enable-background="new -343 228 273 106" xml:space="preserve">
<path id="XMLID_900_" fill="#EF7B05" d="M-302.1,261.1c26.8-13.4,75.8,2.2,85.5,11.7c18.2,18.2-11.7,43.4-44.6,43.4
	S-329,274.4-302.1,261.1z"/>
<path id="XMLID_899_" fill="#EF7B05" d="M-104.6,261.1c-26.8-13.4-75.8,2.2-85.5,11.7c-18.2,18.2,11.7,43.4,44.6,43.4
	S-77.8,274.4-104.6,261.1z"/>
<path id="XMLID_898_" fill="none" stroke="#000000" stroke-width="6" stroke-miterlimit="10" d="M-216,281.5c0,0,13.3-8.2,26.5,0"/>
<line id="XMLID_682_" fill="none" stroke="#000000" stroke-width="6" stroke-linecap="round" stroke-linejoin="round" stroke-miterlimit="10" x1="-99" y1="278" x2="-84" y2="278"/>
<line id="XMLID_642_" fill="none" stroke="#000000" stroke-width="6" stroke-linecap="round" stroke-linejoin="round" stroke-miterlimit="10" x1="-309" y1="279" x2="-320" y2="279"/>
<ellipse id="XMLID_641_" transform="matrix(0.5907 -0.8069 0.8069 0.5907 -304.2204 -36.8973)" cx="-188.4795" cy="281.4184" rx="3.7" ry="1.9"/>
<ellipse id="XMLID_640_" transform="matrix(0.4534 0.8913 -0.8913 0.4534 133.0374 345.9457)" cx="-215.5386" cy="281.4412" rx="3.7" ry="1.9"/>
<ellipse id="XMLID_639_" cx="-100.1" cy="277.5" rx="1.3" ry="2.4"/>
<ellipse id="XMLID_629_" cx="-308.1" cy="278.5" rx="1.3" ry="2.4"/>
</svg>
