<?xml version="1.0" encoding="utf-8"?>
<!-- Generator: Adobe Illustrator 19.0.0, SVG Export Plug-In . SVG Version: 6.00 Build 0)  -->
<svg version="1.1" id="Layer_1" xmlns="http://www.w3.org/2000/svg" xmlns:xlink="http://www.w3.org/1999/xlink" x="0px" y="0px"
	 viewBox="0 0 262.8 111.5" style="enable-background:new 0 0 262.8 111.5;" xml:space="preserve">
<style type="text/css">
	.st0{fill:#EF7B05;}
</style>
<g id="XMLID_261_">
	<g id="XMLID_322_">
		<path id="XMLID_323_" class="st0" d="M258.6,44.4c0-2.5-0.1-6.4-0.2-8c-0.2-2.3-24.9-6.5-25.4-6.6c-0.6-0.1-29.8-5.1-32.7-5.5
			c-9.3-1.5-27.6-4.2-42.9-1.4c-4.3,0.8-8.6,3.2-11.4,6.4c0,0,0,0,0,0c-0.5,0.5-1.1,1.1-1.9,2c-2.3,2.5-4,5-7.4,6.1
			c-1.1,0.4-3.6,0.4-3.8,0.4c-0.2,0-2.7,0-3.8-0.4c-3.4-1.1-5.1-3.6-7.4-6.1c-0.8-0.9-1.4-1.5-1.9-2c0,0,0,0,0,0
			c-2.8-3.2-7.1-5.6-11.4-6.4c-15.3-2.8-33.7,0-42.9,1.4c-3,0.5-32.2,5.4-32.7,5.5C32,29.9,9.2,34.1,9.1,36.4
			c-0.1,1.6-0.2,5.4-0.2,8c0,0.7,19.7-0.3,21.9,0c0.7,0.1,2.2,0.5,2.5,0.5c0.3,0,0.9,0.2,1.4,0.8c0.3,0.4,0.7,5,0.6,6.4c0,0,0,0,0,0
			c-0.8,7.6,2.4,15.2,4.5,18.6c5.7,9.2,13.7,15.5,23.6,18.8c0.2,0.1,0.3,0.1,0.4,0.1c4.8,1.6,9.4,2.3,13.6,2.3
			c12.6,0,22.2-5.6,24.5-7.1c11-7,15.7-17,18.2-25.6c0.4-1.1,0.8-2.2,1.2-3.4c0.7-1.8,2.1-5.9,3.5-7.2c1.6-1.5,3.8-2.3,6.1-2.4
			c0,0,1.4-0.1,1.9-0.1c0.5,0,1.9,0.1,1.9,0.1c2.2,0.2,4.4,0.9,6.1,2.4c1.4,1.3,2.8,5.4,3.5,7.2c0.4,1.1,0.8,2.3,1.2,3.4
			c2.5,8.6,7.3,18.6,18.2,25.6c2.3,1.5,11.8,7.1,24.5,7.1c4.2,0,8.8-0.6,13.6-2.3c0.1,0,0.3-0.1,0.4-0.1c9.9-3.3,17.9-9.6,23.6-18.8
			c2.1-3.4,5.3-11,4.5-18.6c0,0,0,0,0,0c-0.1-1.3,0.3-6,0.6-6.4c0.5-0.6,1-0.8,1.4-0.8c0.3,0,1.8-0.4,2.5-0.5
			C236.9,44.1,258.6,45.1,258.6,44.4z M116.8,48c-1.7,9.3-4.3,23.3-18,32.1c-1.6,1-16.3,10-33.2,4.2c-0.1,0-0.3-0.1-0.5-0.2
			c-8.6-2.8-15.6-8.4-20.6-16.4c-2-3.2-4.5-9.9-3.6-15.7c0-0.9,0-1.7,0.1-2.5c0.6-6,5-10.5,9.9-13.4c9.9-5.8,42.4-10.1,56.2-7.6
			c3.1,0.6,6.2,2.3,8.2,4.5C116.4,34.2,118.7,38.1,116.8,48z M220.9,67.7c-5,8-11.9,13.6-20.6,16.4c-0.2,0.1-0.4,0.1-0.5,0.2
			c-16.9,5.8-31.6-3.2-33.2-4.2c-13.7-8.8-16.3-22.8-18-32.1c-1.8-9.9,0.4-13.8,1.5-15c2-2.3,5.1-4,8.2-4.5
			c13.8-2.5,46.3,1.7,56.2,7.6c4.9,2.9,9.3,7.4,9.9,13.4c0.1,0.8,0.1,1.7,0.1,2.5C225.3,57.8,222.8,64.5,220.9,67.7z"/>
	</g>
</g>
</svg>
