<?xml version="1.0" encoding="utf-8"?>
<!-- Generator: Adobe Illustrator 19.0.0, SVG Export Plug-In . SVG Version: 6.00 Build 0)  -->
<svg version="1.1" id="Layer_1" xmlns="http://www.w3.org/2000/svg" xmlns:xlink="http://www.w3.org/1999/xlink" x="0px" y="0px"
	 viewBox="-343 228 273 106" enable-background="new -343 228 273 106" xml:space="preserve">
<path fill="#FFFFFF" d="M-138.91,281.63c0,14.21-11.51,25.72-25.72,25.72s-25.73-11.5099-25.73-25.72s11.52-25.73,25.73-25.73
	S-138.91,267.42-138.91,281.63z"/>
<path fill="#EF7B05" d="M-165.1,237.22c-24.12,0-43.67,19.55-43.67,43.67c0,24.11,19.55,43.66,43.67,43.66
	c24.11,0,43.66-19.55,43.66-43.66C-121.44,256.77-140.99,237.22-165.1,237.22z M-164.63,307.35c-14.21,0-25.73-11.5099-25.73-25.72
	s11.52-25.73,25.73-25.73s25.72,11.52,25.72,25.73S-150.42,307.35-164.63,307.35z"/>
<path fill="#FFFFFF" d="M-233.8,281.63c0,14.21-11.52,25.72-25.73,25.72c-14.2,0-25.72-11.5099-25.72-25.72s11.52-25.73,25.72-25.73
	C-245.32,255.9-233.8,267.42-233.8,281.63z"/>
<path fill="#EF7B05" d="M-259.53,237.51c-24.11,0-43.66,19.55-43.66,43.66c0,24.12,19.55,43.67,43.66,43.67
	c24.1201,0,43.67-19.55,43.67-43.67C-215.86,257.06-235.41,237.51-259.53,237.51z M-259.53,307.35
	c-14.2,0-25.72-11.5099-25.72-25.72s11.52-25.73,25.72-25.73c14.21,0,25.73,11.52,25.73,25.73S-245.32,307.35-259.53,307.35z"/>
</svg>
