<?xml version="1.0" encoding="utf-8"?>
<!-- Generator: Adobe Illustrator 19.0.0, SVG Export Plug-In . SVG Version: 6.00 Build 0)  -->
<svg version="1.1" id="Layer_1" xmlns="http://www.w3.org/2000/svg" xmlns:xlink="http://www.w3.org/1999/xlink" x="0px" y="0px"
	 viewBox="0 0 274.3 109.5" style="enable-background:new 0 0 274.3 109.5;" xml:space="preserve">
<style type="text/css">
	.st0{fill:#EF7B05;}
</style>
<g id="XMLID_2107_">
	<g id="XMLID_5578_">
		<defs>
			<path id="XMLID_5580_" d="M235.2,28.1h-20.7c-1.8-0.1-3.7-0.2-5.6-0.2c-2.1,0-4.3,0-6.6,0.1l-0.4,0c-0.2,0-0.8,0-1.8,0.1h-0.8
				l0,0c-6.8,0.2-24.9,1-35.3,3.1c-1.9,0.3-10.7,1.9-17.1,2.6c-6.8,0.8-11.5,0.9-12,0.9v0c0,0-0.1,0-0.1,0c0,0,0,0-0.1,0v0
				c-0.5,0-5.2-0.1-12-0.9c-6.4-0.7-15.2-2.3-17.1-2.6c-10.4-2-28.5-2.8-35.3-3.1l0,0h-0.8c-1,0-1.7,0-1.8-0.1l-0.4,0
				c-2.3,0-4.5-0.1-6.6-0.1c-1.9,0-3.8,0-5.6,0.2H34.3c-1,0-1.9,0.9-1.9,2v6.6c0,1.2,0.5,2.4,1.3,3.3c1.3,1.4,3.4,4.2,4.7,9.6h1.2
				c2.5,9.2,8.2,21.6,17,28.8c0.3,0.3,0.7,0.5,1,0.8l0.1,0l0.1,0c6.7,5.6,17.6,8.4,32.6,8.4c2.9,0,5.9-0.1,9-0.3
				c7.7-0.5,13.7-4.5,17.9-11.7c0.2-0.4,0.4-0.7,0.6-1.1l0,0c0.1-0.1,0.2-0.3,0.2-0.5c1.7-3.5,3.4-7.4,4.8-11l1,0.5
				c1.5-3.9,2.6-7.4,3.2-9.8c1-4.6,1.9-6.1,3.2-6.3l0,0c1.4-0.2,2.9-0.4,4.4-0.4c1.5,0,2.9,0.1,4.4,0.4l0,0c1.3,0.2,2.2,1.7,3.2,6.3
				c0.5,2.4,1.7,5.9,3.2,9.8l1-0.5c1.4,3.6,3.1,7.6,4.8,11c0.1,0.2,0.2,0.3,0.2,0.5l0,0c0.2,0.3,0.4,0.7,0.6,1.1
				c4.2,7.2,10.2,11.2,17.9,11.7c3.1,0.2,6.1,0.3,9,0.3c15,0,25.9-2.8,32.6-8.4l0.1,0l0.1,0c0.4-0.2,0.7-0.5,1-0.8
				c8.8-7.3,14.5-19.6,17-28.8h1.2c1.4-5.4,3.4-8.3,4.7-9.6c0.8-0.9,1.3-2.1,1.3-3.3v-6.6C237.1,29,236.2,28.1,235.2,28.1z"/>
		</defs>
		<use xlink:href="#XMLID_5580_"  style="overflow:visible;fill:#EF7B05;"/>
		<clipPath id="XMLID_28_">
			<use xlink:href="#XMLID_5580_"  style="overflow:visible;"/>
		</clipPath>
	</g>
	<path id="XMLID_5571_" class="st0" d="M235.2,28.1h-20.7c-1.8-0.1-3.7-0.2-5.6-0.2c-2.1,0-4.3,0-6.6,0.1l-0.4,0
		c-0.2,0-0.8,0-1.8,0.1h-0.8l0,0c-6.8,0.2-24.9,1-35.3,3.1c-1.9,0.3-10.7,1.9-17.1,2.6c-6.8,0.8-11.5,0.9-12,0.9v0c0,0-0.1,0-0.1,0
		c0,0,0,0-0.1,0v0c-0.5,0-5.2-0.1-12-0.9c-6.4-0.7-15.2-2.3-17.1-2.6c-10.4-2-28.5-2.8-35.3-3.1l0,0h-0.8c-1,0-1.7,0-1.8-0.1l-0.4,0
		c-2.3,0-4.5-0.1-6.6-0.1c-1.9,0-3.8,0-5.6,0.2H34.3c-1,0-17.3,0.5-17.3,1.6l-1,5.5c0,1.2,16.9,3.9,17.8,4.8
		c1.3,1.4,3.4,4.2,4.7,9.6h1.2c2.5,9.2,8.2,21.6,17,28.8c0.3,0.3,0.7,0.5,1,0.8l0.1,0l0.1,0c6.7,5.6,17.6,8.4,32.6,8.4
		c2.9,0,5.9-0.1,9-0.3c7.7-0.5,13.7-4.5,17.9-11.7c0.2-0.4,0.4-0.7,0.6-1.1l0,0c0.1-0.1,0.2-0.3,0.2-0.5c1.7-3.5,3.4-7.4,4.8-11
		l1,0.5c1.5-3.9,2.6-7.4,3.2-9.8c1-4.6,1.9-6.1,3.2-6.3l0,0c1.4-0.2,2.9-0.4,4.4-0.4c1.5,0,2.9,0.1,4.4,0.4l0,0
		c1.3,0.2,2.2,1.7,3.2,6.3c0.5,2.4,1.7,5.9,3.2,9.8l1-0.5c1.4,3.6,3.1,7.6,4.8,11c0.1,0.2,0.2,0.3,0.2,0.5l0,0
		c0.2,0.3,0.4,0.7,0.6,1.1c4.2,7.2,10.2,11.2,17.9,11.7c3.1,0.2,6.1,0.3,9,0.3c15,0,25.9-2.8,32.6-8.4l0.1,0l0.1,0
		c0.4-0.2,0.7-0.5,1-0.8c8.8-7.3,14.5-19.6,17-28.8h1.2c1.4-5.4,3.4-8.3,4.7-9.6c0.8-0.9,18.8-4.2,18.8-5.4V29
		C254.6,27.9,236.2,28.1,235.2,28.1z M99.3,85.8c-3.1,0.2-6.1,0.3-8.9,0.3c-11.2,0-26.1-1.7-33.7-9.9c-7.8-8.4-12.2-16.7-14.1-27
		c0.6-0.4,0.9-1.2,0.8-2c-0.1-0.9-0.3-1.9-0.4-2.9c-1.4-13.1,8.6-12.8,24.5-12.4c0,0,30.9,0.8,41.2,4c10.2,3.2,14.8,4.1,12.6,18.2
		c-0.3,1.8-0.6,3.6-1,5.4c-0.2,0.9,0.1,1.8,0.6,2.4C118.2,73.7,112.7,84.9,99.3,85.8z M212.8,76.3c-7.6,8.2-22.5,9.9-33.7,9.9
		c-2.9,0-5.9-0.1-8.9-0.3c-13.4-0.9-18.9-12.1-21.7-23.9c0.6-0.6,0.8-1.5,0.6-2.4c-0.4-1.8-0.7-3.6-1-5.4
		c-2.2-14.1,2.3-14.9,12.6-18.2c10.2-3.2,41.2-4,41.2-4c15.9-0.3,25.9-0.6,24.5,12.4c-0.1,1-0.2,1.9-0.4,2.9c-0.1,0.8,0.2,1.6,0.8,2
		C225,59.5,220.6,67.8,212.8,76.3z"/>
	<g id="XMLID_5300_">
		<path id="XMLID_5569_" class="st0" d="M89.1,29.2c0.8,0.1,1.7,0.1,2.5,0.2C90.8,29.3,90,29.2,89.1,29.2z"/>
		<path id="XMLID_5568_" class="st0" d="M91.7,29.4c1.3,0.1,2.5,0.2,3.8,0.4C94.2,29.6,92.9,29.5,91.7,29.4z"/>
		<path id="XMLID_5566_" class="st0" d="M106.3,31.3c0.2,0,0.4,0.1,0.6,0.1C106.7,31.4,106.5,31.3,106.3,31.3z"/>
		<path id="XMLID_5564_" class="st0" d="M109.6,31.9c0.3,0.1,0.7,0.1,1.1,0.2C110.3,32,110,31.9,109.6,31.9z"/>
		<path id="XMLID_5496_" class="st0" d="M108.2,31.6c0.4,0.1,0.9,0.2,1.5,0.2C109.1,31.8,108.6,31.7,108.2,31.6z"/>
		<path id="XMLID_5493_" class="st0" d="M110.7,32.1c1.1,0.2,2.3,0.4,3.6,0.6C113.1,32.4,111.8,32.2,110.7,32.1z"/>
		<path id="XMLID_5490_" class="st0" d="M63.8,28c1.1,0,2.2,0,3.4,0.1C66,28,64.9,28,63.8,28z"/>
		<path id="XMLID_5479_" class="st0" d="M107,31.4c0.2,0,0.5,0.1,0.8,0.1C107.5,31.5,107.2,31.5,107,31.4z"/>
		<path id="XMLID_5476_" class="st0" d="M56.4,28c-0.5,0-0.9,0-1.4,0.1l0,0C55.4,28.1,55.9,28,56.4,28z"/>
		<path id="XMLID_5470_" class="st0" d="M62.2,27.9c-0.5,0-1.1,0-1.6,0l0,0C61.1,27.9,61.6,27.9,62.2,27.9z"/>
		<path id="XMLID_5455_" class="st0" d="M85.4,28.9c0.8,0.1,1.7,0.1,2.5,0.2C87,29,86.2,28.9,85.4,28.9z"/>
		<path id="XMLID_5452_" class="st0" d="M106.3,31.3c-0.3-0.1-0.5-0.1-0.7-0.1c-2.9-0.6-6.5-1.1-10.2-1.4c3.7,0.4,7.3,0.9,10.2,1.4
			C105.8,31.2,106,31.2,106.3,31.3z"/>
		<path id="XMLID_5441_" class="st0" d="M174,29.7c1.2-0.1,2.5-0.3,3.8-0.4C176.5,29.5,175.3,29.6,174,29.7z"/>
		<path id="XMLID_5437_" class="st0" d="M213.1,28c-1.4-0.1-2.8-0.1-4.2-0.1l0,0C210.3,27.9,211.7,27.9,213.1,28z"/>
		<path id="XMLID_5434_" class="st0" d="M202.3,28c1.7,0,3.4-0.1,5-0.1C205.7,28,204,28,202.3,28l-0.2,0L202.3,28z"/>
		<path id="XMLID_5430_" class="st0" d="M201.2,28c-0.3,0-0.7,0-1.2,0l0,0C200.5,28.1,200.9,28.1,201.2,28z"/>
		<path id="XMLID_5428_" class="st0" d="M201.2,28c0.2,0,0.3,0,0.4,0C201.5,28,201.4,28,201.2,28z"/>
		<path id="XMLID_5427_" class="st0" d="M236.7,29c-0.3-0.5-0.9-0.9-1.6-0.9C235.8,28.1,236.4,28.4,236.7,29z"/>
		<path id="XMLID_5426_" class="st0" d="M180.3,29.2c3-0.2,5.9-0.4,8.6-0.6C186.2,28.7,183.3,28.9,180.3,29.2z"/>
		<path id="XMLID_5425_" class="st0" d="M134.7,34.7C134.7,34.7,134.7,34.7,134.7,34.7C134.7,34.7,134.7,34.7,134.7,34.7L134.7,34.7
			z"/>
		<path id="XMLID_5422_" class="st0" d="M131,34.5c0.5,0,1,0.1,1.4,0.1C132,34.6,131.6,34.6,131,34.5z"/>
		<path id="XMLID_5417_" class="st0" d="M134.8,34.7c0.1,0,0.2,0,0.4,0C135,34.7,134.9,34.7,134.8,34.7L134.8,34.7z"/>
		<path id="XMLID_5415_" class="st0" d="M177.8,29.4c0.8-0.1,1.7-0.1,2.5-0.2C179.5,29.2,178.6,29.3,177.8,29.4z"/>
		<path id="XMLID_5407_" class="st0" d="M34.3,28.1c-0.3,0-0.5,0.1-0.7,0.2C33.8,28.1,34,28.1,34.3,28.1L34.3,28.1z"/>
		<path id="XMLID_5406_" class="st0" d="M125.1,34.1c1.6,0.2,3,0.3,4.2,0.4C128.1,34.3,126.7,34.2,125.1,34.1z"/>
		<path id="XMLID_5399_" class="st0" d="M134.8,34.7L134.8,34.7C134.8,34.7,134.8,34.7,134.8,34.7C134.8,34.7,134.8,34.7,134.8,34.7
			z"/>
		<path id="XMLID_5395_" class="st0" d="M187.1,87.5c-1.7,0.1-3.4,0.2-5.2,0.3C183.7,87.7,185.4,87.6,187.1,87.5z"/>
		<path id="XMLID_5388_" class="st0" d="M159.8,84.1c-1.1-0.7-2.2-1.6-3.2-2.5C157.6,82.5,158.7,83.3,159.8,84.1z"/>
		<path id="XMLID_5387_" class="st0" d="M192,86.9c-1.6,0.2-3.2,0.4-4.9,0.5C188.8,87.3,190.4,87.1,192,86.9z"/>
		<path id="XMLID_5384_" class="st0" d="M152,75.5c0.1,0.1,0.1,0.2,0.2,0.3c1.3,2.3,2.8,4.2,4.5,5.8c-1.7-1.6-3.1-3.5-4.5-5.8
			C152.1,75.6,152.1,75.5,152,75.5z"/>
		<path id="XMLID_5383_" class="st0" d="M150.7,72.8c-0.4-0.9-0.9-1.8-1.3-2.7C149.8,71,150.3,72,150.7,72.8z"/>
		<path id="XMLID_5382_" class="st0" d="M151.6,74.7L151.6,74.7c-0.1-0.2-0.2-0.3-0.3-0.5C151.4,74.3,151.5,74.5,151.6,74.7
			L151.6,74.7c0.1,0.1,0.1,0.2,0.2,0.3C151.7,74.9,151.7,74.8,151.6,74.7z"/>
		<path id="XMLID_5380_" class="st0" d="M212.8,78.5c-0.2,0.1-0.3,0.3-0.5,0.4C212.5,78.8,212.7,78.6,212.8,78.5
			c3.3-2.7,6.2-6.2,8.6-9.9C219,72.3,216.1,75.8,212.8,78.5z"/>
		<path id="XMLID_5377_" class="st0" d="M234.3,41.8c-0.3,0.4-0.6,1-0.9,1.5C233.7,42.7,234,42.2,234.3,41.8z"/>
		<path id="XMLID_5368_" class="st0" d="M231,49.7c0.7-2.7,1.5-4.8,2.4-6.3C232.6,44.9,231.7,46.9,231,49.7L231,49.7z"/>
		<polygon id="XMLID_5367_" class="st0" points="211.7,79.3 211.7,79.3 211.8,79.3 211.7,79.3 		"/>
		<path id="XMLID_5366_" class="st0" d="M32.4,29.7c0.1-0.3,0.1-0.5,0.3-0.7C32.6,29.2,32.5,29.4,32.4,29.7z"/>
		<path id="XMLID_5365_" class="st0" d="M223.7,64.8c-0.7,1.3-1.5,2.6-2.3,3.8C222.2,67.4,223,66.1,223.7,64.8z"/>
		<path id="XMLID_5363_" class="st0" d="M226.6,59c-0.8,1.9-1.8,3.9-2.9,5.8C224.8,62.9,225.7,60.9,226.6,59z"/>
		
			<rect id="XMLID_5362_" x="145.4" y="63.4" transform="matrix(0.9027 -0.4304 0.4304 0.9027 -13.0612 69.0053)" class="st0" width="1.1" height="0"/>
		<path id="XMLID_5361_" class="st0" d="M117.9,74.6L117.9,74.6c-0.1,0.2-0.2,0.4-0.3,0.6C117.7,75,117.8,74.8,117.9,74.6
			L117.9,74.6c0-0.1,0.1-0.2,0.1-0.2C118,74.5,117.9,74.6,117.9,74.6z"/>
		<path id="XMLID_5360_" class="st0" d="M39.6,49.7c0.6,2.3,1.4,4.8,2.5,7.4C41.1,54.5,40.2,52,39.6,49.7L39.6,49.7z"/>
		<path id="XMLID_5359_" class="st0" d="M63.6,83c6.6,3.1,15.6,4.7,26.8,4.7l0,0C79.1,87.8,70.1,86.2,63.6,83z"/>
		<path id="XMLID_5357_" class="st0" d="M57.7,79.3c-0.2-0.1-0.4-0.2-0.5-0.4C57.3,79,57.5,79.1,57.7,79.3L57.7,79.3L57.7,79.3z"/>
		<path id="XMLID_5356_" class="st0" d="M43.8,60.9c-0.6-1.3-1.2-2.6-1.7-3.9C42.6,58.3,43.1,59.6,43.8,60.9z"/>
		<path id="XMLID_5355_" class="st0" d="M32.4,36.7v-6.6c0-0.1,0-0.3,0-0.4c0,0.1,0,0.3,0,0.4L32.4,36.7c0,1.2,0.5,2.4,1.3,3.3
			c0.3,0.3,0.7,0.8,1.1,1.3c-0.4-0.5-0.8-1-1.1-1.3C32.9,39.2,32.4,38,32.4,36.7z"/>
		<path id="XMLID_5354_" class="st0" d="M141.8,51.5c-0.1-0.4-0.2-0.8-0.4-1.2C141.5,50.7,141.7,51.1,141.8,51.5z"/>
		<path id="XMLID_5322_" class="st0" d="M139.1,47.5c-0.7-0.1-1.5-0.2-2.2-0.3C137.7,47.3,138.4,47.4,139.1,47.5L139.1,47.5
			L139.1,47.5z"/>
		<path id="XMLID_5320_" class="st0" d="M122.9,63.1c-0.5,1.4-1.1,2.8-1.7,4.2C121.8,65.9,122.4,64.5,122.9,63.1L122.9,63.1z"/>
		<path id="XMLID_5315_" class="st0" d="M141.4,50.3c-0.1-0.4-0.2-0.7-0.4-0.9C141.2,49.7,141.3,50,141.4,50.3z"/>
		<path id="XMLID_5312_" class="st0" d="M134.7,47.2c-0.4,0-0.7,0-1.1,0C134,47.2,134.4,47.2,134.7,47.2L134.7,47.2z"/>
		<path id="XMLID_5309_" class="st0" d="M124,63.6c1.1-2.9,2-5.6,2.7-7.8C126,58,125.1,60.7,124,63.6L124,63.6z"/>
		<path id="XMLID_5305_" class="st0" d="M130.3,47.5L130.3,47.5c0.4-0.1,0.7-0.1,1.1-0.2C131.1,47.4,130.7,47.4,130.3,47.5
			L130.3,47.5z"/>
	</g>
	<g id="XMLID_5285_">
		<defs>
			<path id="XMLID_5289_" d="M90.3,85.1c-11,0-25.6-1.7-32.9-9.5c-7.6-8.1-11.8-16.2-13.7-25.9c0.6-0.7,0.9-1.6,0.7-2.5
				c-0.1-0.9-0.3-1.9-0.4-2.8c-0.4-3.7,0.2-6.3,1.7-8c2.5-2.8,7.7-3.3,14.8-3.3c2,0,4.2,0,6.5,0.1l0.4,0c0.3,0,30.9,0.8,40.9,4
				l1.1,0.3c9.5,3,12.7,4,10.7,16.6c-0.3,2-0.6,3.7-1,5.4c-0.2,1,0,2,0.5,2.8c-3.6,14.7-10.1,21.8-20.6,22.6
				C96.2,85,93.2,85.1,90.3,85.1z"/>
		</defs>
		<use xlink:href="#XMLID_5289_"  style="overflow:visible;fill:#7F3905;"/>
		<clipPath id="XMLID_29_">
			<use xlink:href="#XMLID_5289_"  style="overflow:visible;"/>
		</clipPath>
	</g>
	<g id="XMLID_5280_">
		<defs>
			<path id="XMLID_5282_" d="M179.1,85.1c-2.8,0-5.8-0.1-8.9-0.3c-10.5-0.7-17-7.9-20.6-22.6c0.5-0.8,0.7-1.9,0.5-2.8
				c-0.3-1.7-0.7-3.4-1-5.4c-2-12.6,1.2-13.6,10.7-16.6l1.1-0.3c10-3.2,40.6-3.9,40.9-4l0.4,0c2.3,0,4.5-0.1,6.5-0.1
				c7.1,0,12.3,0.6,14.8,3.3c1.5,1.7,2.1,4.3,1.7,8c-0.1,1-0.2,1.9-0.4,2.8c-0.1,0.9,0.1,1.8,0.7,2.5c-1.9,9.8-6.1,17.8-13.7,25.9
				C204.7,83.4,190.1,85.1,179.1,85.1z"/>
		</defs>
		<use xlink:href="#XMLID_5282_"  style="overflow:visible;fill:#7F3905;"/>
		<clipPath id="XMLID_30_">
			<use xlink:href="#XMLID_5282_"  style="overflow:visible;"/>
		</clipPath>
	</g>
</g>
</svg>
