<?xml version="1.0" encoding="utf-8"?>
<!-- Generator: Adobe Illustrator 19.0.0, SVG Export Plug-In . SVG Version: 6.00 Build 0)  -->
<svg version="1.1" id="Layer_1" xmlns="http://www.w3.org/2000/svg" xmlns:xlink="http://www.w3.org/1999/xlink" x="0px" y="0px"
	 viewBox="0 0 264.38358 102.73972" style="enable-background:new 0 0 264.38358 102.73972;" xml:space="preserve">
<style type="text/css">
	.st0{fill-rule:evenodd;clip-rule:evenodd;fill:#EF7B05;}
</style>
<g id="XMLID_1405_">
	<path id="XMLID_1410_" class="st0" d="M44.85976,25.00041c-0.03369-0.00439-0.06689-0.0083-0.10107-0.0127
		c0.05176,0.00684,0.34131,0.00342,0.61279-0.00342c0.42432-0.01563,0.65381-0.03076,0.09814-0.03076
		C43.23086,25.03361,44.01943,25.02433,44.85976,25.00041z"/>
	<path id="XMLID_1406_" class="st0" d="M251.69862,30.2089l-18.70776,3.65527c-0.89697-7.34082-3.51599-14.36035-11.00183-17.1709
		c-10.56592-3.96826-26.06268-1.43506-36.91473,0.24609c-12.61768,1.9541-24.71103,6.36621-35.9205,11.80664
		c-12.38525,6.00977-22.51347,10.55762-35.98466,3.85107c-11.20215-5.57666-21.82485-11.3418-34.41128-14.16406
		c-12.83252-2.87842-28.32576-4.9873-41.5113-2.81592c-10.74512,1.77002-14.22587,11.6709-15.1746,20.40039L6.69863,33.2089v9.30664
		l14.84302,3.08154c-0.56738,18.63574,1.48694,41.7998,22.58167,48.91748c12.09863,4.08105,26.08185,4.24609,38.75079,2.53955
		c13.09814-1.76514,18.9584-10.39844,25.24014-19.84326c4.49463-6.75977,7.7541-21.57177,17.6418-23.45214
		c8.43017-1.60254,12.93882,7.84375,15.51646,13.29541c4.32178,9.13965,11.89641,23.68994,22.82121,27.90625
		c11.32227,4.36963,24.52438,3.53516,36.4194,1.90186c9.82178-1.34814,21.42479-4.63623,26.16063-13.19336
		c5.9043-10.66943,6.92796-24.67871,6.8806-36.35644c0.00146,0.40137,0.14427,0.76758,0.14427,1.11279
		c0-0.05957,0-0.12158,0-0.18164c0-0.36816-0.14331-0.93359-0.1438-0.98926c0,0.00879-0.06824,0.21777-0.06726,0.55078
		c0.00098-0.9668-0.01996-1.99219-0.01361-3.05908l18.22467-4.0542V30.2089z M101.76846,72.08634
		c-3.271,7.02295-7.83545,14.81836-16.95947,16.53223c-12.79785,2.40479-26.93506,1.64111-39.33398-2.11279
		c-10.67529-3.23047-14.22608-10.1084-16.31006-19.44727c-2.37207-10.62402-2.73291-21.98877-1.30615-32.75097
		c1.29346-9.77637,8.57569-9.03125,17.61084-9.354c0.72852,0,0.33887,0.02002-0.09814,0.03076
		c-0.1543,0.00586-0.3335,0.01123-0.51172,0.01611c12.50586,1.66162,24.46631,1.73975,36.89209,4.77002
		c9.32373,2.27344,21.18115,5.17139,25.34326,13.9292C111.44912,52.86174,105.70937,63.62931,101.76846,72.08634z
		 M226.53065,64.22892c-1.88672,10.43604-4.90283,18.7041-16.99707,22.32373c-11.7334,3.51172-24.44531,4.31055-36.64014,2.50732
		c-10.93457-1.6167-16.17871-9.92725-20.0415-18.31201c-3.96826-8.6167-9.47314-19.7622-3.7749-28.7832
		c4.55469-7.21191,14.76416-9.68408,23.04639-11.82715c11.24951-2.91064,22.70264-5.12646,34.47656-5.12646
		c-10.87744,0,3.80615-0.18213,0,0c0.4917-0.02637,0.98438-0.05176,1.47803-0.07617
		c-0.09961,0.00781-0.20313,0.01416-0.30469,0.02148c9.73779-0.44434,18.42578-0.39404,19.50195,9.88672
		C228.31239,44.74797,228.31239,54.37931,226.53065,64.22892z"/>
</g>
</svg>
