<?xml version="1.0" encoding="utf-8"?>
<!-- Generator: Adobe Illustrator 19.0.0, SVG Export Plug-In . SVG Version: 6.00 Build 0)  -->
<svg version="1.1" id="Layer_1" xmlns="http://www.w3.org/2000/svg" xmlns:xlink="http://www.w3.org/1999/xlink" x="0px" y="0px"
	 viewBox="-339 196.1 280.4 168.9" enable-background="new -339 196.1 280.4 168.9" xml:space="preserve">
<g id="XMLID_5738_">
	<g id="XMLID_5745_">
		<path id="XMLID_5746_" fill="#EF7B05" d="M-159.4,263.4c2-12.7,2.7-32.1-10.1-33.3l-0.1-1.8c0.2,0,4.4-0.3,8,3.7
			c14.7,16.1-10.1,50.5,16.1,78.3c14.1,15.1,40.2,18,51-0.7c4.3-7.5,5.3-17.1,2.5-23.3l1.6-0.7c3.1,6.7,2,17-2.6,25
			C-110.2,340.3-168.5,320.8-159.4,263.4z"/>
	</g>
	<path id="XMLID_5742_" fill="#EF7B05" d="M-173.9,223.2c-7.6,0-7.6,11.4,0,11.4C-166.3,234.6-166.3,223.2-173.9,223.2z
		 M-173.9,232.2c-4.3,0-4.3-6.5,0-6.5C-169.6,225.7-169.6,232.2-173.9,232.2z"/>
	<path id="XMLID_5739_" fill="#EF7B05" d="M-205.4,205.9c-18.2,0-33,14.8-33,33s14.8,33,33,33s33-14.8,33-33
		C-172.5,220.7-187.3,205.9-205.4,205.9z M-205.4,264.7c-14.2,0-25.8-11.6-25.8-25.8s11.6-25.8,25.8-25.8
		c14.2,0,25.8,11.6,25.8,25.8C-179.7,253.1-191.2,264.7-205.4,264.7z"/>
</g>
</svg>
