<?xml version="1.0" encoding="utf-8"?>
<!-- Generator: Adobe Illustrator 19.0.0, SVG Export Plug-In . SVG Version: 6.00 Build 0)  -->
<svg version="1.1" id="Layer_1" xmlns="http://www.w3.org/2000/svg" xmlns:xlink="http://www.w3.org/1999/xlink" x="0px" y="0px"
	 viewBox="0 0 262.8 111.5" style="enable-background:new 0 0 262.8 111.5;" xml:space="preserve">
<style type="text/css">
	.st0{fill:#EF7B05;}
	.st1{fill:#FFFFFF;}
</style>
<g id="XMLID_980_">
	<g id="XMLID_991_">
		<path id="XMLID_992_" class="st0" d="M147.6,52c-3.3-3.3-7.7-5.1-12.4-5.1c-4.7,0-9.1,1.8-12.4,5.1l-2.2-2.2c3.9-3.9,9.1-6,14.6-6
			c5.5,0,10.7,2.1,14.6,6L147.6,52z"/>
	</g>
	<path id="XMLID_990_" class="st0" d="M83,97.5c-22.9,0-41.4-18.6-41.4-41.4c0-22.9,18.6-41.4,41.4-41.4c22.9,0,41.4,18.6,41.4,41.4
		C124.4,78.9,105.8,97.5,83,97.5z"/>
	<circle id="XMLID_989_" class="st0" cx="83" cy="56.1" r="38.2"/>
	<g id="XMLID_987_">
		<path id="XMLID_988_" class="st0" d="M42.4,54.2H8.8c-0.9,0-1.7,0.7-1.7,1.7v0.5c0,0.9,0.7,1.7,1.7,1.7h33.6V54.2z"/>
	</g>
	<path id="XMLID_986_" class="st0" d="M187.4,97.5c22.9,0,41.4-18.6,41.4-41.4c0-22.9-18.6-41.4-41.4-41.4S146,33.2,146,56.1
		C146,78.9,164.6,97.5,187.4,97.5z"/>
	<circle id="XMLID_985_" class="st0" cx="187.4" cy="56.1" r="38.2"/>
	<g id="XMLID_983_">
		<path id="XMLID_984_" class="st0" d="M228.1,54.2h29.6c0.9,0,1.7,0.7,1.7,1.7v0.5c0,0.9-0.7,1.7-1.7,1.7h-29.6V54.2z"/>
	</g>
	<path id="XMLID_982_" class="st1" d="M53,60.7c0-18.6,15-33.6,33.6-33.6c11.1,0,20.9,5.3,27,13.6C107.9,29.5,96.4,21.8,83,21.8
		c-18.9,0-34.3,15.3-34.3,34.3c0,10.4,4.6,19.7,11.9,26C55.9,76.3,53,68.8,53,60.7z"/>
	<path id="XMLID_981_" class="st1" d="M157.3,60.7c0-18.6,15-33.6,33.6-33.6c11.4,0,21.4,5.7,27.5,14.3c-5.5-11.6-17.3-19.6-31-19.6
		c-18.9,0-34.3,15.3-34.3,34.3c0,10.1,4.4,19.3,11.4,25.5C160,75.9,157.3,68.6,157.3,60.7z"/>
</g>
</svg>
