<?xml version="1.0" encoding="utf-8"?>
<!-- Generator: Adobe Illustrator 19.0.0, SVG Export Plug-In . SVG Version: 6.00 Build 0)  -->
<svg version="1.1" id="Layer_1" xmlns="http://www.w3.org/2000/svg" xmlns:xlink="http://www.w3.org/1999/xlink" x="0px" y="0px"
	 viewBox="-351 194.7 255.4 172.3" enable-background="new -351 194.7 255.4 172.3" xml:space="preserve">
<g id="XMLID_79_">
	<g id="XMLID_83_">
		<g id="XMLID_86_">
			<polygon id="XMLID_102_" fill="#1D1D1B" points="-114.7,258.6 -114.7,267.1 -114.7,275.6 -123.2,275.6 -123.2,284.1 
				-130.9,284.1 -131.7,284.1 -131.7,292.6 -140.2,292.6 -140.2,301.1 -147.4,301.1 -148.7,301.1 -203.5,301.1 -203.5,292.6 
				-204.2,292.6 -212,292.6 -212,284.1 -220.5,284.1 -220.5,275.6 -220.5,267.1 -238.6,267.1 -238.6,275.6 -238.6,284.1 
				-245.7,284.1 -247.1,284.1 -247.1,292.6 -255.6,292.6 -255.6,301.1 -262.5,301.1 -264.1,301.1 -310.2,301.1 -310.2,292.6 
				-312.3,292.6 -318.7,292.6 -318.7,284.1 -327.2,284.1 -327.2,275.6 -335.4,275.6 -335.4,267.1 -335.4,258.6 			"/>
			<g id="XMLID_95_">
				<rect id="XMLID_101_" x="-148.7" y="275.6" fill="#FFFFFF" width="8.5" height="8.5"/>
				<rect id="XMLID_100_" x="-157.2" y="267.1" fill="#FFFFFF" width="8.5" height="8.5"/>
				<rect id="XMLID_99_" x="-157.2" y="284.1" fill="#FFFFFF" width="8.5" height="8.5"/>
				<rect id="XMLID_98_" x="-165.6" y="275.6" fill="#FFFFFF" width="8.5" height="8.5"/>
				<rect id="XMLID_97_" x="-140.2" y="267.1" fill="#FFFFFF" width="8.5" height="8.5"/>
				<rect id="XMLID_96_" x="-174.1" y="284.1" fill="#FFFFFF" width="8.5" height="8.5"/>
			</g>
			<g id="XMLID_88_">
				<rect id="XMLID_94_" x="-263.8" y="275.6" fill="#FFFFFF" width="8.5" height="8.5"/>
				<rect id="XMLID_93_" x="-272.3" y="267.1" fill="#FFFFFF" width="8.5" height="8.5"/>
				<rect id="XMLID_92_" x="-272.3" y="284.1" fill="#FFFFFF" width="8.5" height="8.5"/>
				<rect id="XMLID_91_" x="-280.7" y="275.6" fill="#FFFFFF" width="8.5" height="8.5"/>
				<rect id="XMLID_90_" x="-255.3" y="267.1" fill="#FFFFFF" width="8.5" height="8.5"/>
				<rect id="XMLID_89_" x="-289.2" y="284.1" fill="#FFFFFF" width="8.5" height="8.5"/>
			</g>
		</g>
		<rect id="XMLID_85_" x="-344" y="258.6" fill="#1D1D1B" width="8.6" height="8.5"/>
	</g>
	<rect id="XMLID_80_" x="-114.7" y="258.6" fill="#1D1D1B" width="8.6" height="8.5"/>
</g>
</svg>
