<?xml version="1.0" encoding="utf-8"?>
<!-- Generator: Adobe Illustrator 19.0.0, SVG Export Plug-In . SVG Version: 6.00 Build 0)  -->
<svg version="1.1" id="Layer_1" xmlns="http://www.w3.org/2000/svg" xmlns:xlink="http://www.w3.org/1999/xlink" x="0px" y="0px"
	 viewBox="-58 187 335 150" style="enable-background:new -58 187 335 150;" xml:space="preserve">
<style type="text/css">
	.st0{fill:#EF7B05;}
	.st1{fill:#7F3905;}
</style>
<g id="XMLID_547_">
	<path id="XMLID_548_" class="st0" d="M236.1,259.9c0,0-17.9-0.1-19-0.3c0,0-0.5-3.5-1.6-4.5c-1-1-3-1.9-9.1-2.8
		c-6.1-0.9-20.3-2.4-31-2.4c-10.7,0-30.3,2.2-34.8,3c-4.5,0.7-9,1.6-11.2,5.6c-0.6,1.1-1.5,1.5-4,1.7c-2.5,0.2-10.8,0-10.8,0
		s-8.3,0.2-10.8,0c-2.5-0.2-3.4-0.6-4-1.7c-2.2-4-6.7-4.9-11.2-5.6c-4.5-0.7-24-3-34.8-3c-10.8,0-24.9,1.5-31,2.4
		c-6.1,0.9-8.1,1.8-9.1,2.8c-1,1-1.6,4.5-1.6,4.5c-1.1,0.1-21,0.3-21,0.3c-1.6,0.1-0.8,4.1-0.6,5.8c0.2,1.7,1.6,2.3,2.6,2.3
		c1,0,19.6,0,19.6,0c0.2,3,0.8,8.3,1.3,13.7c0.5,5.4,2.4,8,4.3,8.9c4.5,2.3,22.1,4.9,24.5,5.3c2.4,0.3,10.9,0.9,14.9,0.9
		c4,0,13.1-0.6,17.2-1.1c4.1-0.5,11.4-1.2,14.9-3.4c2.9-1.7,4-2.6,5.8-6.4c0.1-0.1,0.9-1.3,2-3.1c1-1.8,2.3-4.2,3.3-6.6
		c1.9-4.9,0.8-6.8,0.4-7.4c-0.4-0.6-0.8-1.8-0.8-1.8c0-1.4,0.4-2.3,1.4-2.5c2.3-0.4,9.5-1.6,10.4-1.6c0.9,0,2,0,2,0s1.1,0,2,0
		c0.9,0,8.1,1.1,10.4,1.6c1,0.2,1.5,1,1.5,2.4c0,0-0.4,1.2-0.8,1.8c-0.4,0.6-1.6,2.5,0.4,7.4c1.9,4.9,5,9.5,5.2,9.7
		c0.9,1.9,1.7,3.1,2.5,4c0.9,0.9,1.9,1.6,3.3,2.4c3.5,2.1,10.8,2.8,14.9,3.4c4.1,0.5,13.2,1.1,17.2,1.1c4,0,12.5-0.6,14.9-0.9
		c2.4-0.3,20.1-3,24.5-5.3c1.9-1,3.8-3.5,4.3-8.9c0.5-5.4,1.2-10.7,1.3-13.7c0,0,16.7,0,17.7,0c1,0,2.4-0.5,2.6-2.3
		C236.9,264,237.7,260,236.1,259.9z M99.4,266.2c0,0-2.2,0.1-3.5,5.7c0,0-0.6,0.2-1.1,0.2s-2.1-0.2-2.8,0.6
		c-0.7,0.8-1.9,2.8-0.2,4.1c1.7,1.3,1.2,0.9,1.2,0.9s-1.5,3.9-2,5.3s-1.2,5.2,2.2,4.6c-1.7,2.8-3.6,3.8-8.6,4.8
		C77,294,67,295,58.1,295s-24.7-2-30.1-3.5c-5.5-1.5-6.3-1.6-7.9-2.3c-1.7-0.7-3.4-1.3-4-5.7c-0.7-4.4-2-12.3-2-24.7
		c0,0-0.4-2.1,2.1-2.9c2.4-0.7,14.2-2.9,25-3.4c10.9-0.5,23.3-0.4,31.3,0.5c8,0.9,17.7,1.8,22.5,3.3
		C99.8,257.8,99.5,264.1,99.4,266.2z M215.3,258.8c0,12.4-1.3,20.2-2,24.7c-0.7,4.4-2.4,5-4,5.7c-1.7,0.7-2.4,0.8-7.9,2.3
		c-5.5,1.5-21.2,3.5-30.1,3.5s-18.9-1-26.4-2.5c-5-1.1-7-2-8.6-4.8c3.4,0.6,2.8-3.3,2.2-4.6s-2-5.3-2-5.3s-0.5,0.3,1.2-0.9
		c1.7-1.3,0.4-3.3-0.2-4.1c-0.7-0.8-2.2-0.6-2.8-0.6c-0.5,0-1.1-0.2-1.1-0.2c-1.3-5.6-3.5-5.7-3.5-5.7c-0.1-2.1-0.4-8.4,4.4-10
		c4.8-1.5,14.5-2.4,22.5-3.3s20.3-1,31.3-0.5s22.6,2.7,25,3.4C215.7,256.7,215.3,258.8,215.3,258.8z"/>
	<path id="XMLID_559_" class="st1" d="M99.4,266.2c0,0-2.2,0.1-3.5,5.7c0,0-0.6,0.2-1.1,0.2s-2.1-0.2-2.8,0.6
		c-0.7,0.8-1.9,2.8-0.2,4.1c1.7,1.3,1.2,0.9,1.2,0.9s-1.5,3.9-2,5.3s-1.2,5.2,2.2,4.6c-1.7,2.8-3.6,3.8-8.6,4.8
		C77,294,67,295,58.1,295s-24.7-2-30.1-3.5c-5.5-1.5-6.3-1.6-7.9-2.3c-1.7-0.7-3.4-1.3-4-5.7c-0.7-4.4-2-12.3-2-24.7
		c0,0-0.4-2.1,2.1-2.9c2.4-0.7,14.2-2.9,25-3.4c10.9-0.5,23.3-0.4,31.3,0.5c8,0.9,17.7,1.8,22.5,3.3
		C99.8,257.8,99.5,264.1,99.4,266.2z"/>
	<path id="XMLID_562_" class="st1" d="M215.3,258.8c0,12.4-1.3,20.2-2,24.7c-0.7,4.4-2.4,5-4,5.7c-1.7,0.7-2.4,0.8-7.9,2.3
		c-5.5,1.5-21.2,3.5-30.1,3.5s-18.9-1-26.4-2.5c-5-1.1-7-2-8.6-4.8c3.4,0.6,2.8-3.3,2.2-4.6s-2-5.3-2-5.3s-0.5,0.3,1.2-0.9
		c1.7-1.3,0.4-3.3-0.2-4.1c-0.7-0.8-2.2-0.6-2.8-0.6c-0.5,0-1.1-0.2-1.1-0.2c-1.3-5.6-3.5-5.7-3.5-5.7c-0.1-2.1-0.4-8.4,4.4-10
		c4.8-1.5,14.5-2.4,22.5-3.3s20.3-1,31.3-0.5s22.6,2.7,25,3.4C215.7,256.7,215.3,258.8,215.3,258.8z"/>
</g>
</svg>
