<?xml version="1.0" encoding="utf-8"?>
<!-- Generator: Adobe Illustrator 19.0.0, SVG Export Plug-In . SVG Version: 6.00 Build 0)  -->
<svg version="1.1" id="Layer_1" xmlns="http://www.w3.org/2000/svg" xmlns:xlink="http://www.w3.org/1999/xlink" x="0px" y="0px"
	 viewBox="0 0 274.3 109.5" style="enable-background:new 0 0 274.3 109.5;" xml:space="preserve">
<style type="text/css">
	.st0{fill:#EF7B05;}
</style>
<path id="XMLID_2113_" class="st0" d="M256.5,35.8l-1.6-7.2c-0.1-1.1-19.2-1.4-20.2-1.8c-1.4-0.5-3.7-1.2-7.7-1.8
	c-18.6-2.8-29.6-3.8-29.6-3.8l0,0c-2.6-0.2-6-0.5-9.8-0.5c-5.2,0-9.9,0.4-14.2,1.2c-4.4,0.6-10.8,1.6-16.5,3
	c-2.1,0.5-4.3,0.9-6.5,1.3c-5.3,0.8-10.6,1.2-15.9,1.2c-5.3,0-10.6-0.4-15.9-1.2c-2.2-0.3-4.4-0.8-6.5-1.3c-5.7-1.4-12.1-2.4-16.5-3
	c-4.3-0.8-9-1.2-14.2-1.2c-3.8,0-7.3,0.2-9.8,0.5l0,0c0,0-11,1-29.6,3.8c-4,0.6-6.3,1.3-7.7,1.8c-1.1,0.4-20.6,0.1-20.7,1.2l-0.6,8
	c-0.1,1.2,18.8,3.1,19.8,3.8c0.9,0.7,1.9,1.9,2.4,3.9c0.3,1.6,0.9,4.5,1.4,7.9c0.1,0.6,0.6,1.1,1.2,1.1c0.4,2.8,0.9,5.8,1.4,8.6
	c0.4,2.5,0.8,5,1.1,7.1c0,0.2,0.1,0.4,0.2,0.6l0,0.1l0,0.1c1.2,6,3.1,11,5.4,14.1c5.2,7,13.7,10.6,25.5,10.6c3.8,0,8-0.4,12.6-1.1
	c12.4-2,23.2-9.2,30.5-20.2c0.8-1.1,1.9-3,3.1-5.2c0.5,0.3,1.2,0.1,1.4-0.5c3.7-7,8.1-16.7,9-19.8c0.5-1.5,1.4-2.5,2.4-3.2
	c2.4-1.6,5.6-1.6,7.9,0c1,0.7,2,1.7,2.4,3.2c0.9,3.1,5.4,12.8,9,19.8c0.3,0.5,0.9,0.7,1.4,0.5c1.2,2.2,2.3,4.1,3.1,5.2
	c7.2,11.1,18.1,18.3,30.5,20.2c4.6,0.7,8.8,1.1,12.6,1.1c11.8,0,20.4-3.6,25.5-10.6c2.3-3.1,4.2-8.1,5.4-14.1l0-0.1l0-0.1
	c0.1-0.2,0.1-0.4,0.2-0.6c0.3-2.1,0.7-4.5,1.1-7.1c0.5-2.8,0.9-5.8,1.4-8.6c0.6,0,1.1-0.4,1.2-1.1c0.6-3.4,1.1-6.4,1.4-7.9
	c0.4-2,1.5-3.2,2.4-3.9C237.2,39.2,256.7,37.1,256.5,35.8z M118,60.2c-0.6,1.7-1.4,3.4-2.2,5.1c-0.3,0.5-0.1,1.2,0.5,1.4
	c-6.8,13.6-18.4,22.5-32.4,24.7c-4.5,0.7-8.6,1.1-12.4,1.1c-11.5,0-19.4-3.3-24.4-10c-4.4-5.9-6.8-18.5-6.5-29.7H41
	c0.4,0,0.7-0.3,0.7-0.7c0.2-4,0.7-7.9,1.7-11.2c3.8-12.7,23.8-15.5,23.8-15.5s23.3-4,38.5,3.5S123.1,46.2,118,60.2z M221.9,82.5
	c-4.9,6.7-12.9,10-24.4,10c-3.7,0-7.9-0.4-12.4-1.1c-14-2.2-25.6-11.1-32.4-24.7c0.5-0.3,0.7-0.9,0.5-1.4c-0.8-1.7-1.5-3.4-2.2-5.1
	c-5.1-14-2.9-23.8,12.3-31.3s38.5-3.5,38.5-3.5s20,2.8,23.8,15.5c1,3.3,1.5,7.2,1.7,11.2c0,0.4,0.3,0.7,0.7,0.7h0.3
	C228.7,64.1,226.3,76.6,221.9,82.5z"/>
</svg>
