<?xml version="1.0" encoding="utf-8"?>
<!-- Generator: Adobe Illustrator 19.0.0, SVG Export Plug-In . SVG Version: 6.00 Build 0)  -->
<svg version="1.1" id="Layer_1" xmlns="http://www.w3.org/2000/svg" xmlns:xlink="http://www.w3.org/1999/xlink" x="0px" y="0px"
	 viewBox="0 0 274.3 109.5" style="enable-background:new 0 0 274.3 109.5;" xml:space="preserve">
<style type="text/css">
	.st0{fill:#EF7B05;}
</style>
<g id="XMLID_5581_">
	<g id="XMLID_5275_">
		<defs>
			<path id="XMLID_5278_" d="M234.3,28h-20.7c-1.8-0.1-3.7-0.2-5.6-0.2c-2.1,0-4.3,0-6.6,0.1l-0.4,0c-0.2,0-0.8,0-1.8,0.1h-0.8l0,0
				c-6.8,0.2-24.9,1-35.3,3.1c-1.9,0.3-10.7,1.9-17.1,2.6c-6.8,0.8-11.5,0.9-12,0.9v0c0,0-0.1,0-0.1,0c0,0,0,0-0.1,0v0
				c-0.5,0-5.2-0.1-12-0.9c-6.4-0.7-15.2-2.3-17.1-2.6c-10.4-2-28.5-2.8-35.3-3.1l0,0h-0.8c-1,0-1.7,0-1.8-0.1l-0.4,0
				c-2.3,0-4.5-0.1-6.6-0.1c-1.9,0-3.8,0-5.6,0.2H33.4c-1,0-1.9,0.9-1.9,2v6.6c0,1.2,0.5,2.4,1.3,3.3c1.3,1.4,3.4,4.2,4.7,9.6h1.2
				c2.5,9.2,8.2,21.6,17,28.8c0.3,0.3,0.7,0.5,1,0.8l0.1,0l0.1,0c6.7,5.6,17.6,8.4,32.6,8.4c2.9,0,5.9-0.1,9-0.3
				c7.7-0.5,13.7-4.5,17.9-11.7c0.2-0.4,0.4-0.7,0.6-1.1l0,0c0.1-0.1,0.2-0.3,0.2-0.5c1.7-3.5,3.4-7.4,4.8-11l1,0.5
				c1.5-3.9,2.6-7.4,3.2-9.8c1-4.6,1.9-6.1,3.2-6.3l0,0c1.4-0.2,2.9-0.4,4.4-0.4c1.5,0,2.9,0.1,4.4,0.4l0,0c1.3,0.2,2.2,1.7,3.2,6.3
				c0.5,2.4,1.7,5.9,3.2,9.8l1-0.5c1.4,3.6,3.1,7.6,4.8,11c0.1,0.2,0.2,0.3,0.2,0.5l0,0c0.2,0.3,0.4,0.7,0.6,1.1
				c4.2,7.2,10.2,11.2,17.9,11.7c3.1,0.2,6.1,0.3,9,0.3c15,0,25.9-2.8,32.6-8.4l0.1,0l0.1,0c0.4-0.2,0.7-0.5,1-0.8
				c8.8-7.3,14.5-19.6,17-28.8h1.2c1.4-5.4,3.4-8.3,4.7-9.6c0.8-0.9,1.3-2.1,1.3-3.3V30C236.2,28.9,235.4,28,234.3,28z"/>
		</defs>
		<use xlink:href="#XMLID_5278_"  style="overflow:visible;fill:#EF7B05;"/>
		<clipPath id="XMLID_28_">
			<use xlink:href="#XMLID_5278_"  style="overflow:visible;"/>
		</clipPath>
	</g>
	<path id="XMLID_4595_" class="st0" d="M234.3,28h-20.7c-1.8-0.1-3.7-0.2-5.6-0.2c-2.1,0-4.3,0-6.6,0.1l-0.4,0c-0.2,0-0.8,0-1.8,0.1
		h-0.8l0,0c-6.8,0.2-24.9,1-35.3,3.1c-1.9,0.3-10.7,1.9-17.1,2.6c-6.8,0.8-11.5,0.9-12,0.9v0c0,0-0.1,0-0.1,0c0,0,0,0-0.1,0v0
		c-0.5,0-5.2-0.1-12-0.9c-6.4-0.7-15.2-2.3-17.1-2.6c-10.4-2-28.5-2.8-35.3-3.1l0,0h-0.8c-1,0-1.7,0-1.8-0.1l-0.4,0
		c-2.3,0-4.5-0.1-6.6-0.1c-1.9,0-3.8,0-5.6,0.2H33.4c-1,0-17.3,0.5-17.3,1.6l-1,5.5c0,1.2,16.9,3.9,17.8,4.8
		c1.3,1.4,3.4,4.2,4.7,9.6h1.2c2.5,9.2,8.2,21.6,17,28.8c0.3,0.3,0.7,0.5,1,0.8l0.1,0l0.1,0c6.7,5.6,17.6,8.4,32.6,8.4
		c2.9,0,5.9-0.1,9-0.3c7.7-0.5,13.7-4.5,17.9-11.7c0.2-0.4,0.4-0.7,0.6-1.1l0,0c0.1-0.1,0.2-0.3,0.2-0.5c1.7-3.5,3.4-7.4,4.8-11
		l1,0.5c1.5-3.9,2.6-7.4,3.2-9.8c1-4.6,1.9-6.1,3.2-6.3l0,0c1.4-0.2,2.9-0.4,4.4-0.4c1.5,0,2.9,0.1,4.4,0.4l0,0
		c1.3,0.2,2.2,1.7,3.2,6.3c0.5,2.4,1.7,5.9,3.2,9.8l1-0.5c1.4,3.6,3.1,7.6,4.8,11c0.1,0.2,0.2,0.3,0.2,0.5l0,0
		c0.2,0.3,0.4,0.7,0.6,1.1c4.2,7.2,10.2,11.2,17.9,11.7c3.1,0.2,6.1,0.3,9,0.3c15,0,25.9-2.8,32.6-8.4l0.1,0l0.1,0
		c0.4-0.2,0.7-0.5,1-0.8c8.8-7.3,14.5-19.6,17-28.8h1.2c1.4-5.4,3.4-8.3,4.7-9.6c0.8-0.9,18.8-4.2,18.8-5.4v-5.6
		C253.7,27.7,235.4,28,234.3,28z M98.4,85.7c-3.1,0.2-6.1,0.3-8.9,0.3c-11.2,0-26.1-1.7-33.7-9.9c-7.8-8.4-12.2-16.7-14.1-27
		c0.6-0.4,0.9-1.2,0.8-2c-0.1-0.9-0.3-1.9-0.4-2.9c-1.4-13.1,8.6-12.8,24.5-12.4c0,0,30.9,0.8,41.2,4c10.2,3.2,14.8,4.1,12.6,18.2
		c-0.3,1.8-0.6,3.6-1,5.4c-0.2,0.9,0.1,1.8,0.6,2.4C117.3,73.6,111.8,84.7,98.4,85.7z M211.9,76.1c-7.6,8.2-22.5,9.9-33.7,9.9
		c-2.9,0-5.9-0.1-8.9-0.3c-13.4-0.9-18.9-12.1-21.7-23.9c0.6-0.6,0.8-1.5,0.6-2.4c-0.4-1.8-0.7-3.6-1-5.4
		c-2.2-14.1,2.3-14.9,12.6-18.2c10.2-3.2,41.2-4,41.2-4c15.9-0.3,25.9-0.6,24.5,12.4c-0.1,1-0.2,1.9-0.4,2.9c-0.1,0.8,0.2,1.6,0.8,2
		C224.1,59.4,219.8,67.7,211.9,76.1z"/>
	<g id="XMLID_4541_">
		<path id="XMLID_4594_" class="st0" d="M88.3,29c0.8,0.1,1.7,0.1,2.5,0.2C90,29.2,89.1,29.1,88.3,29z"/>
		<path id="XMLID_4593_" class="st0" d="M90.8,29.2c1.3,0.1,2.5,0.2,3.8,0.4C93.3,29.5,92.1,29.4,90.8,29.2z"/>
		<path id="XMLID_4592_" class="st0" d="M105.5,31.2c0.2,0,0.4,0.1,0.6,0.1C105.9,31.2,105.7,31.2,105.5,31.2z"/>
		<path id="XMLID_4591_" class="st0" d="M108.8,31.8c0.3,0.1,0.7,0.1,1.1,0.2C109.5,31.9,109.1,31.8,108.8,31.8z"/>
		<path id="XMLID_4590_" class="st0" d="M107.3,31.5c0.4,0.1,0.9,0.2,1.5,0.2C108.3,31.7,107.8,31.6,107.3,31.5z"/>
		<path id="XMLID_4589_" class="st0" d="M109.9,31.9c1.1,0.2,2.3,0.4,3.6,0.6C112.2,32.3,111,32.1,109.9,31.9z"/>
		<path id="XMLID_4588_" class="st0" d="M62.9,27.8c1.1,0,2.2,0,3.4,0.1C65.2,27.9,64,27.8,62.9,27.8z"/>
		<path id="XMLID_4587_" class="st0" d="M106.1,31.3c0.2,0,0.5,0.1,0.8,0.1C106.6,31.4,106.4,31.3,106.1,31.3z"/>
		<path id="XMLID_4586_" class="st0" d="M55.5,27.9c-0.5,0-0.9,0-1.4,0.1l0,0C54.6,27.9,55.1,27.9,55.5,27.9z"/>
		<path id="XMLID_4585_" class="st0" d="M61.3,27.8c-0.5,0-1.1,0-1.6,0l0,0C60.3,27.8,60.8,27.8,61.3,27.8z"/>
		<path id="XMLID_4584_" class="st0" d="M84.5,28.8c0.8,0.1,1.7,0.1,2.5,0.2C86.2,28.9,85.4,28.8,84.5,28.8z"/>
		<path id="XMLID_4583_" class="st0" d="M105.5,31.2c-0.3-0.1-0.5-0.1-0.7-0.1c-2.9-0.6-6.5-1.1-10.2-1.4c3.7,0.4,7.3,0.9,10.2,1.4
			C104.9,31.1,105.2,31.1,105.5,31.2z"/>
		<path id="XMLID_4582_" class="st0" d="M173.2,29.6c1.2-0.1,2.5-0.3,3.8-0.4C175.7,29.4,174.4,29.5,173.2,29.6z"/>
		<path id="XMLID_4581_" class="st0" d="M212.2,27.9c-1.4-0.1-2.8-0.1-4.2-0.1l0,0C209.4,27.8,210.8,27.8,212.2,27.9z"/>
		<path id="XMLID_4580_" class="st0" d="M201.4,27.9c1.7,0,3.4-0.1,5-0.1C204.8,27.8,203.2,27.9,201.4,27.9l-0.2,0L201.4,27.9z"/>
		<path id="XMLID_4579_" class="st0" d="M200.4,27.9c-0.3,0-0.7,0-1.2,0l0,0C199.7,27.9,200.1,27.9,200.4,27.9z"/>
		<path id="XMLID_4578_" class="st0" d="M200.4,27.9c0.2,0,0.3,0,0.4,0C200.7,27.9,200.5,27.9,200.4,27.9z"/>
		<path id="XMLID_4577_" class="st0" d="M235.9,28.9c-0.3-0.5-0.9-0.9-1.6-0.9C235,28,235.6,28.3,235.9,28.9z"/>
		<path id="XMLID_4576_" class="st0" d="M179.5,29c3-0.2,5.9-0.4,8.6-0.6C185.3,28.6,182.4,28.8,179.5,29z"/>
		<path id="XMLID_4575_" class="st0" d="M133.9,34.6C133.9,34.6,133.8,34.6,133.9,34.6C133.8,34.6,133.9,34.6,133.9,34.6L133.9,34.6
			z"/>
		<path id="XMLID_4574_" class="st0" d="M130.2,34.4c0.5,0,1,0.1,1.4,0.1C131.2,34.5,130.7,34.4,130.2,34.4z"/>
		<path id="XMLID_4573_" class="st0" d="M133.9,34.6c0.1,0,0.2,0,0.4,0C134.1,34.5,134,34.5,133.9,34.6L133.9,34.6z"/>
		<path id="XMLID_4572_" class="st0" d="M176.9,29.2c0.8-0.1,1.7-0.1,2.5-0.2C178.6,29.1,177.8,29.2,176.9,29.2z"/>
		<path id="XMLID_4571_" class="st0" d="M33.4,28c-0.3,0-0.5,0.1-0.7,0.2C32.9,28,33.2,28,33.4,28L33.4,28z"/>
		<path id="XMLID_4570_" class="st0" d="M124.3,33.9c1.6,0.2,3,0.3,4.2,0.4C127.3,34.2,125.8,34.1,124.3,33.9z"/>
		<path id="XMLID_4569_" class="st0" d="M133.9,34.5L133.9,34.5C133.9,34.5,133.9,34.6,133.9,34.5C133.9,34.6,133.9,34.5,133.9,34.5
			z"/>
		<path id="XMLID_4568_" class="st0" d="M186.3,87.3c-1.7,0.1-3.4,0.2-5.2,0.3C182.8,87.5,184.6,87.5,186.3,87.3z"/>
		<path id="XMLID_4567_" class="st0" d="M159,84c-1.1-0.7-2.2-1.6-3.2-2.5C156.8,82.4,157.8,83.2,159,84z"/>
		<path id="XMLID_4566_" class="st0" d="M191.1,86.8c-1.6,0.2-3.2,0.4-4.9,0.5C187.9,87.2,189.6,87,191.1,86.8z"/>
		<path id="XMLID_4565_" class="st0" d="M151.2,75.3c0.1,0.1,0.1,0.2,0.2,0.3c1.3,2.3,2.8,4.2,4.5,5.8c-1.7-1.6-3.1-3.5-4.5-5.8
			C151.3,75.5,151.2,75.4,151.2,75.3z"/>
		<path id="XMLID_4564_" class="st0" d="M149.8,72.7c-0.4-0.9-0.9-1.8-1.3-2.7C149,70.9,149.4,71.8,149.8,72.7z"/>
		<path id="XMLID_4563_" class="st0" d="M150.8,74.5L150.8,74.5c-0.1-0.2-0.2-0.3-0.3-0.5C150.6,74.2,150.6,74.4,150.8,74.5
			L150.8,74.5c0.1,0.1,0.1,0.2,0.2,0.3C150.9,74.8,150.8,74.6,150.8,74.5z"/>
		<path id="XMLID_4562_" class="st0" d="M212,78.4c-0.2,0.1-0.3,0.3-0.5,0.4C211.7,78.6,211.8,78.5,212,78.4
			c3.3-2.7,6.2-6.2,8.6-9.9C218.2,72.2,215.3,75.6,212,78.4z"/>
		<path id="XMLID_4561_" class="st0" d="M233.5,41.6c-0.3,0.4-0.6,1-0.9,1.5C232.9,42.6,233.2,42.1,233.5,41.6z"/>
		<path id="XMLID_4560_" class="st0" d="M230.2,49.5c0.7-2.7,1.5-4.8,2.4-6.3C231.7,44.7,230.8,46.8,230.2,49.5L230.2,49.5z"/>
		<polygon id="XMLID_4559_" class="st0" points="210.9,79.2 210.9,79.2 210.9,79.1 210.9,79.2 		"/>
		<path id="XMLID_4558_" class="st0" d="M31.6,29.6c0.1-0.3,0.1-0.5,0.3-0.7C31.7,29.1,31.6,29.3,31.6,29.6z"/>
		<path id="XMLID_4557_" class="st0" d="M222.9,64.7c-0.7,1.3-1.5,2.6-2.3,3.8C221.4,67.2,222.2,66,222.9,64.7z"/>
		<path id="XMLID_4556_" class="st0" d="M225.7,58.8c-0.8,1.9-1.8,3.9-2.9,5.8C223.9,62.8,224.9,60.8,225.7,58.8z"/>
		
			<rect id="XMLID_4555_" x="144.6" y="63.2" transform="matrix(0.9027 -0.4304 0.4304 0.9027 -13.0901 68.6262)" class="st0" width="1.1" height="0"/>
		<path id="XMLID_4554_" class="st0" d="M117,74.5L117,74.5c-0.1,0.2-0.2,0.4-0.3,0.6C116.8,74.9,116.9,74.7,117,74.5L117,74.5
			c0-0.1,0.1-0.2,0.1-0.2C117.1,74.3,117.1,74.4,117,74.5z"/>
		<path id="XMLID_4553_" class="st0" d="M38.8,49.5c0.6,2.3,1.4,4.8,2.5,7.4C40.2,54.3,39.4,51.8,38.8,49.5L38.8,49.5z"/>
		<path id="XMLID_4552_" class="st0" d="M62.7,82.9c6.6,3.1,15.6,4.7,26.8,4.7l0,0C78.3,87.6,69.3,86,62.7,82.9z"/>
		<path id="XMLID_4551_" class="st0" d="M56.8,79.1c-0.2-0.1-0.4-0.2-0.5-0.4C56.4,78.9,56.6,79,56.8,79.1L56.8,79.1L56.8,79.1z"/>
		<path id="XMLID_4550_" class="st0" d="M42.9,60.8c-0.6-1.3-1.2-2.6-1.7-3.9C41.7,58.2,42.3,59.5,42.9,60.8z"/>
		<path id="XMLID_4549_" class="st0" d="M31.5,36.6V30c0-0.1,0-0.3,0-0.4c0,0.1,0,0.3,0,0.4L31.5,36.6c0,1.2,0.5,2.4,1.3,3.3
			c0.3,0.3,0.7,0.8,1.1,1.3c-0.4-0.5-0.8-1-1.1-1.3C32,39,31.5,37.9,31.5,36.6z"/>
		<path id="XMLID_4548_" class="st0" d="M140.9,51.4c-0.1-0.4-0.2-0.8-0.4-1.2C140.7,50.6,140.8,51,140.9,51.4z"/>
		<path id="XMLID_4547_" class="st0" d="M138.3,47.4c-0.7-0.1-1.5-0.2-2.2-0.3C136.8,47.2,137.5,47.3,138.3,47.4L138.3,47.4
			L138.3,47.4z"/>
		<path id="XMLID_4546_" class="st0" d="M122.1,63c-0.5,1.4-1.1,2.8-1.7,4.2C121,65.8,121.6,64.4,122.1,63L122.1,63z"/>
		<path id="XMLID_4545_" class="st0" d="M140.6,50.2c-0.1-0.4-0.2-0.7-0.4-0.9C140.3,49.6,140.4,49.9,140.6,50.2z"/>
		<path id="XMLID_4544_" class="st0" d="M133.9,47c-0.4,0-0.7,0-1.1,0C133.1,47,133.5,47,133.9,47L133.9,47z"/>
		<path id="XMLID_4543_" class="st0" d="M123.1,63.5c1.1-2.9,2-5.6,2.7-7.8C125.2,57.9,124.2,60.6,123.1,63.5L123.1,63.5z"/>
		<path id="XMLID_4542_" class="st0" d="M129.5,47.4L129.5,47.4c0.4-0.1,0.7-0.1,1.1-0.2C130.2,47.3,129.9,47.3,129.5,47.4
			L129.5,47.4z"/>
	</g>
	<g id="XMLID_4539_">
		<defs>
			<path id="XMLID_4540_" d="M89.5,84.9c-11,0-25.6-1.7-32.9-9.5C49,67.3,44.8,59.2,42.9,49.5c0.6-0.7,0.9-1.6,0.7-2.5
				c-0.1-0.9-0.3-1.9-0.4-2.8c-0.4-3.7,0.2-6.3,1.7-8c2.5-2.8,7.7-3.3,14.8-3.3c2,0,4.2,0,6.5,0.1l0.4,0c0.3,0,30.9,0.8,40.9,4
				l1.1,0.3c9.5,3,12.7,4,10.7,16.6c-0.3,2-0.6,3.7-1,5.4c-0.2,1,0,2,0.5,2.8c-3.6,14.7-10.1,21.8-20.6,22.6
				C95.3,84.8,92.3,84.9,89.5,84.9z"/>
		</defs>
		<use xlink:href="#XMLID_4540_"  style="overflow:visible;fill:#EDA36B;"/>
		<clipPath id="XMLID_29_">
			<use xlink:href="#XMLID_4540_"  style="overflow:visible;"/>
		</clipPath>
	</g>
	<g id="XMLID_2277_">
		<defs>
			<path id="XMLID_4532_" d="M178.3,84.9c-2.8,0-5.8-0.1-8.9-0.3c-10.5-0.7-17-7.9-20.6-22.6c0.5-0.8,0.7-1.9,0.5-2.8
				c-0.3-1.7-0.7-3.4-1-5.4c-2-12.6,1.2-13.6,10.7-16.6l1.1-0.3c10-3.2,40.6-3.9,40.9-4l0.4,0c2.3,0,4.5-0.1,6.5-0.1
				c7.1,0,12.3,0.6,14.8,3.3c1.5,1.7,2.1,4.3,1.7,8c-0.1,1-0.2,1.9-0.4,2.8c-0.1,0.9,0.1,1.8,0.7,2.5c-1.9,9.8-6.1,17.8-13.7,25.9
				C203.8,83.3,189.2,84.9,178.3,84.9z"/>
		</defs>
		<use xlink:href="#XMLID_4532_"  style="overflow:visible;fill:#EDA36B;"/>
		<clipPath id="XMLID_30_">
			<use xlink:href="#XMLID_4532_"  style="overflow:visible;"/>
		</clipPath>
	</g>
</g>
</svg>
