<?xml version="1.0" encoding="utf-8"?>
<!-- Generator: Adobe Illustrator 19.0.0, SVG Export Plug-In . SVG Version: 6.00 Build 0)  -->
<svg version="1.1" id="Layer_1" xmlns="http://www.w3.org/2000/svg" xmlns:xlink="http://www.w3.org/1999/xlink" x="0px" y="0px"
	 viewBox="0 0 293.6 240" style="enable-background:new 0 0 293.6 240;" xml:space="preserve">
<style type="text/css">
	.st0{fill:#EF7B05;}
</style>
<path id="XMLID_146_" class="st0" d="M53,124c0.6,10,4.9,20.2,12.3,27.5c3.9,3.9,8.6,7,13.7,9.1c11,4.3,23.1,4.3,34.1,0
	c5.1-2.1,9.8-5.2,13.7-9c3.9-3.9,7-7.3,9.1-12.4c1.5-3.5,2.5-5.8,3-9.8h9.1c0.4,4,1.3,6.3,2.7,9.8c2.1,5,5.2,9.1,9.1,12.9
	c4,3.9,8.6,6.7,13.7,8.8c11,4.3,23.2,4.1,34.2-0.1c5.1-2.1,9.7-5.2,13.6-9.1c4-3.8,7.1-7.4,9.2-12.5c1.8-4.4,2.9-7.9,3.2-12.9
	l46,0.1l-0.2-20.7l-47.9-0.8c0,0-0.1-0.3-0.2-0.7c-2-5.1-5.6-9.8-9.5-13.7c-3.9-3.7-8.7-6.6-13.6-8.6c-16.3-6.8-35.2-3.3-48,8.9
	c-4,3.8-7.3,9.4-9.7,14.4c-0.7,1.6-1.3,4.2-1.8,6.2h-11.5c-0.4-2-0.9-4.6-1.6-6.2c-2.1-5.1-5.2-10.3-9.1-14.1
	c-12.9-11.9-31.5-15.7-47.8-9.3c-5.1,2.1-9.1,5-13,8.8c-3.9,3.8-5.4,8.3-8.4,13.4v0.1l-44.1,0.3l0.5,19.9 M72.1,111.2
	c1.2-3.1,3.1-5.9,5.4-8.2c2.3-2.3,5.1-4.2,8.2-5.3c6.5-2.6,13.8-2.6,20.3,0c3.1,1.2,5.9,3,8.2,5.3c2.3,2.3,4.2,5.1,5.4,8.2
	c1.3,3.2,2,6.6,2,10c0,3.5-0.7,6.9-2,10.1c-1.2,3.1-3.1,5.9-5.4,8.2c-2.3,2.3-5.1,4.1-8.2,5.3c-6.5,2.6-13.8,2.6-20.3,0
	c-3.1-1.2-5.9-3-8.2-5.3c-2.3-2.3-4.2-5.1-5.4-8.2C69.4,124.9,69.4,117.6,72.1,111.2z M166.9,111.2c1.2-3.1,3.1-5.9,5.5-8.2
	c2.3-2.3,5.1-4.2,8.2-5.3c3.2-1.3,6.6-1.9,10.1-1.8c3.5,0,6.9,0.6,10.1,2c3.1,1.2,5.9,3,8.2,5.3c2.3,2.3,4.2,5.1,5.4,8.2
	c1.3,3.1,1.9,6.5,1.9,9.9c0,3.5-0.6,6.9-2,10.1c-1.2,3.1-3.1,5.9-5.4,8.2c-2.4,2.3-5.1,4.1-8.2,5.3c-3.2,1.3-6.6,2-10.1,2
	c-6.8,0.1-13.4-2.6-18.2-7.3c-2.4-2.3-4.3-5.1-5.5-8.2C164.3,124.9,164.3,117.6,166.9,111.2z"/>
</svg>
