<?xml version="1.0" encoding="utf-8"?>
<!-- Generator: Adobe Illustrator 19.0.0, SVG Export Plug-In . SVG Version: 6.00 Build 0)  -->
<svg version="1.1" id="Layer_1" xmlns="http://www.w3.org/2000/svg" xmlns:xlink="http://www.w3.org/1999/xlink" x="0px" y="0px"
	 viewBox="0 0 306.1 141.2" style="enable-background:new 0 0 306.1 141.2;" xml:space="preserve">
<style type="text/css">
	.st0{fill:#FFFFFF;}
	.st1{fill:#EF7B05;}
</style>
<g id="XMLID_175_">
	<g id="XMLID_176_">
		<g id="XMLID_13974_">
			<g id="XMLID_13976_">
				<path id="XMLID_13978_" class="st0" d="M242.8,52.7c3.6,4.8,5.5,10.7,5.2,16.6c-0.2,4.7-0.9,9.4-2,13.7
					c-1.8,7.1-12.6,22.8-27.8,25.6c-15.1,2.8-28.5-2.3-37.1-8.4c-8.6-6.1-11.9-17.4-12.9-20.5c2.3-3.8,0-8.8-2.3-10.6
					c-2.2-19.5,15.7-26.1,24.5-28c8.2-1.8,10.3-3.5,31.1-1.9C231.2,40,238.4,46.9,242.8,52.7z"/>
			</g>
		</g>
		<g id="XMLID_13968_">
			<g id="XMLID_13970_">
				<path id="XMLID_13972_" class="st0" d="M107.5,41.1c8.8,1.9,26.6,8.5,24.5,28c-2.3,1.8-4.5,6.8-2.3,10.6
					c-1,3-4.3,14.4-12.9,20.5c-8.6,6.1-22,11.2-37.1,8.4C64.6,105.8,53.7,90.1,52,83c-1.1-4.3-1.8-9-2-13.7
					c-0.2-6,1.6-11.9,5.2-16.6c4.4-5.7,11.6-12.7,21.3-13.5C97.2,37.6,99.3,39.3,107.5,41.1z"/>
			</g>
		</g>
		<g id="XMLID_177_">
			<g id="XMLID_178_">
				<path id="XMLID_179_" class="st1" d="M168.2,79.7c1,3,4.3,14.4,12.9,20.5c8.6,6.1,22,11.2,37.1,8.4c15.2-2.8,26-18.5,27.8-25.6
					c1.1-4.3,1.8-9,2-13.7c0.2-6-1.6-11.9-5.2-16.6c-4.4-5.7-11.6-12.7-21.3-13.5c-20.7-1.6-22.8,0.1-31.1,1.9
					c-8.8,1.9-26.6,8.5-24.5,28C168.2,70.9,170.5,75.9,168.2,79.7z M132,69.1c2.2-19.5-15.7-26.1-24.5-28
					c-8.2-1.8-10.3-3.5-31.1-1.9c-9.7,0.8-16.9,7.7-21.3,13.5c-3.6,4.8-5.5,10.7-5.2,16.6c0.2,4.7,0.9,9.4,2,13.7
					c1.8,7.1,12.6,22.8,27.8,25.6c15.1,2.8,28.5-2.3,37.1-8.4c8.6-6.1,11.9-17.4,12.9-20.5C127.5,75.9,129.7,70.9,132,69.1z
					 M135.9,68.7c-0.4,2.7-5.2,21.9-14,30.7c-6.8,6.8-23,19.7-47.7,11C43.1,99.5,47.7,69.9,46.9,64.9c-3,0-25.1-0.2-25.1-0.2l-1-4.7
					h27.6c0,0,5.3-23.1,33-24.2c27.6-1.1,38.8,5.6,43.9,9.7c6.3,5,9.5,10.4,9.5,19.5c0.8,0.4,0.8-7.6,2.3-8.7
					c1.3-1,5.7-4.1,10.3-5.5c1-0.2,2.1-0.2,3.3,0c4.6,1.3,9,4.5,10.3,5.5c1.5,1.1,1.5,9.1,2.3,8.7c0-9.1,3.2-14.4,9.5-19.5
					c5.2-4.1,16.3-10.8,43.9-9.7c27.6,1.1,33,24.2,33,24.2h27.6l-1,4.7c0,0-22,0.2-25.1,0.2c-0.8,4.9,3.8,34.5-27.3,45.4
					c-24.7,8.7-40.9-4.2-47.7-11c-8.8-8.8-13.6-28-14-30.7c-2.3-2.7-2.7-6.8-2.7-9.8c0-1.9-4.2-3.9-7.3-5.1c-2-0.8-4.2-0.8-6.1,0
					c-3.2,1.3-7.3,3.3-7.3,5.1C138.6,61.9,138.2,66.1,135.9,68.7z"/>
			</g>
		</g>
	</g>
</g>
</svg>
