<?xml version="1.0" encoding="utf-8"?>
<!-- Generator: Adobe Illustrator 19.0.0, SVG Export Plug-In . SVG Version: 6.00 Build 0)  -->
<svg version="1.1" id="Layer_1" xmlns="http://www.w3.org/2000/svg" xmlns:xlink="http://www.w3.org/1999/xlink" x="0px" y="0px"
	 viewBox="0 0 262.8 111.5" style="enable-background:new 0 0 262.8 111.5;" xml:space="preserve">
<style type="text/css">
	.st0{fill:#EF7B05;}
	.st1{fill:#EDA36B;}
</style>
<g id="XMLID_911_">
	<path id="XMLID_925_" class="st0" d="M258.4,28.3c0-0.4-0.1-1.1-0.6-1.6c-0.6-0.7-23.6-1.9-23.9-1.9c-5.2-0.8-10.2-2.8-15.4-3.5
		c-19.8-2.8-24.4-3.8-38.1-2.4c-13.6,1.4-24.8,4.5-24.8,4.5c-1.8,0.5-4.5,1-8.4,1.7c-5.6,1-10.5,0.8-14,0.8h-1.4
		c-3.5,0-8.4,0.2-14-0.8c-3.9-0.7-6.6-1.3-8.4-1.8c0,0-11.2-3-24.8-4.4c-13.8-1.4-18.4-0.4-38.1,2.4C41.4,22,36.4,24,31.2,24.8
		c-0.3,0-20.2,2.2-20.9,2.9c-0.5,0.6-0.6,1.3-0.6,1.7c-0.4,4-0.7,6.2,0,9.4c0.2,0.9,0.4,1.6,0.9,2.4c0.6,1,20.2-0.8,20.9-0.1
		c1.1,1.2,1.3,2.5,1.6,3.7c0.7,3.2,1.9,6.2,2.6,9.4c0.1,0.6,1.6,7.5,4,13.9c1.3,3.5,2.4,6.5,4.4,9.6C49.5,85.7,57,89,59.4,90.1
		c9.1,3.9,17.2,2.9,24.2,2c5.1-0.6,10.5-1.4,16.4-4.8c5.4-3.1,8.4-6.8,11.7-10.9c0,0,6.6-8.2,11.7-23.1c0.8-2.3,1.8-11.2,2.7-12
		c0.7-0.5,1.4-0.7,2.7-1.1c1.1-0.3,2-0.4,2.6-0.4c0.6,0,1.8,0,2.4,0c0.6,0,1.5,0.2,2.6,0.4c1.3,0.3,2,0.5,2.7,1.1
		c0.9,0.7,1.9,9.6,2.7,12c5.1,14.9,11.7,23.1,11.7,23.1c3.3,4.1,6.3,7.8,11.7,10.9c5.9,3.4,11.3,4.2,16.4,4.8c7,0.9,15.1,1.9,24.2-2
		c2.4-1,9.9-4.4,15.3-12.5c2-3,3.1-6,4.4-9.6c2.4-6.4,3.9-13.3,4-13.9c0.7-3.2,1.9-6.2,2.6-9.4c0.3-1.3,0.6-2.6,1.6-3.7
		c0.6-0.7,23.2,0.1,23.9-0.9c0.5-0.8,0.7-1.5,0.9-2.3C259,34.5,258.8,32.4,258.4,28.3z M87.2,86.7c-11.5,2.4-20.5,0.2-23.3-0.6
		c-6.1-1.7-8.7-3.8-9.4-4.3c-3-2.4-4.6-5.1-6.3-8.7c-7.5-15.4-8-27.6-7.9-32.1c0-3.6,0.3-6.4,2.1-8.8c2.7-3.7,7.5-4.6,10.6-5.3
		c13.9-2.9,27.5-2.5,27.5-2.5c18.9,0.4,27,3,32.1,6.4c0.2,0.2,0.5,0.3,0.7,0.5c0.1,0,0.1,0.1,0.1,0.1c2.6,2,4,3.9,4.7,6
		c1.1,3.3,0.4,6.8-0.3,9.5c-3.4,12.3-5.5,19.1-11.9,27.8c-3.9,5.4-6.6,7.3-7.6,8c-0.5,0.3-1,0.7-1.5,0.9
		C93.5,85.3,90.5,86,87.2,86.7z M166.8,82.7c-1-0.7-3.7-2.6-7.6-8c-6.4-8.8-8.5-15.5-11.9-27.8c-0.7-2.7-1.4-6.3-0.3-9.5
		c0.7-2,2.1-4,4.6-6c0.1-0.1,0.1-0.1,0.2-0.2c0.2-0.1,0.4-0.3,0.6-0.4c5.2-3.4,13.3-6,32.1-6.4c0,0,13.6-0.4,27.5,2.5
		c3.1,0.6,7.8,1.6,10.5,5.3c1.8,2.4,2.1,5.2,2.1,8.8c0,4.5-0.4,16.7-8,32.1c-1.8,3.6-3.4,6.3-6.4,8.7c-0.6,0.5-3.3,2.6-9.4,4.3
		c-2.8,0.8-11.8,3-23.3,0.6c-3.3-0.7-6.3-1.4-9.5-3.1C167.9,83.3,167.3,83,166.8,82.7z"/>
	<path id="XMLID_924_" class="st0" d="M42.4,32.1c-1.8,2.4-2.1,5.2-2.1,8.8c0,4.5,0.4,16.7,7.9,32.1c1.7,3.6,3.4,6.3,6.3,8.7
		c0.7,0.5,3.3,2.6,9.4,4.3c2.8,0.8,11.8,3,23.3,0.6c3.3-0.7,6.3-1.4,9.5-3.1c-3.5,2-6.8,2.8-10.4,3.5c-11.6,2.4-20.8,0.2-23.6-0.6
		c-6.2-1.7-8.9-3.8-9.5-4.4c-3-2.4-4.7-5.2-6.4-8.8c-7.6-15.6-8.1-28-8.1-32.6c0-3.7,0.3-6.5,2.1-8.9c2.8-3.8,7.6-4.7,10.7-5.3
		c14.1-2.9,27.9-2.6,27.9-2.6c19.1,0.5,27.4,3.1,32.6,6.5c0.4,0.3,0.8,0.6,1.2,0.9c-0.2-0.1-0.5-0.3-0.7-0.5
		c-5.2-3.4-13.3-6-32.1-6.4c0,0-13.6-0.4-27.5,2.5C49.9,27.5,45.1,28.4,42.4,32.1z"/>
	<path id="XMLID_917_" class="st1" d="M117.8,46.9c-3.4,12.3-5.5,19.1-11.9,27.8c-3.9,5.4-6.6,7.3-7.6,8c-0.5,0.3-1,0.7-1.5,0.9
		c-3.2,1.7-6.3,2.4-9.5,3.1c-11.5,2.4-20.5,0.2-23.3-0.6c-6.1-1.7-8.7-3.8-9.4-4.3c-3-2.4-4.6-5.1-6.3-8.7
		c-7.5-15.4-8-27.6-7.9-32.1c0-3.6,0.3-6.4,2.1-8.8c2.7-3.7,7.5-4.6,10.6-5.3c13.9-2.9,27.5-2.5,27.5-2.5c18.9,0.4,27,3,32.1,6.4
		c0.2,0.2,0.5,0.3,0.7,0.5c0.1,0,0.1,0.1,0.1,0.1c2.6,2,4,3.9,4.7,6C119.2,40.6,118.5,44.2,117.8,46.9z"/>
	<path id="XMLID_915_" class="st0" d="M118.2,47c-3.3,12.1-5.4,18.8-11.7,27.4c-3.9,5.3-6.5,7.2-7.5,7.9c-0.8,0.5-1.5,1-2.2,1.3
		c0.5-0.3,1-0.6,1.5-0.9c1-0.7,3.7-2.6,7.6-8c6.4-8.8,8.5-15.5,11.9-27.8c0.7-2.7,1.4-6.3,0.3-9.5c-0.7-2.1-2.1-4-4.7-6
		c2.9,2,4.3,4.1,5.1,6.3C119.6,40.9,118.9,44.4,118.2,47z"/>
	<path id="XMLID_914_" class="st0" d="M226.4,40.7c0,4.6-0.4,17-8.1,32.6c-1.8,3.6-3.4,6.4-6.4,8.8c-0.7,0.5-3.4,2.7-9.5,4.4
		c-2.8,0.8-12,3-23.6,0.6c-3.6-0.8-6.9-1.5-10.4-3.5c3.2,1.7,6.3,2.4,9.5,3.1c11.5,2.4,20.5,0.2,23.3-0.6c6.1-1.7,8.7-3.8,9.4-4.3
		c3-2.4,4.6-5.1,6.4-8.7c7.5-15.4,8-27.6,8-32.1c0-3.6-0.3-6.4-2.1-8.8c-2.7-3.7-7.5-4.6-10.5-5.3c-13.9-2.9-27.5-2.5-27.5-2.5
		c-18.9,0.4-27,3-32.1,6.4c-0.2,0.1-0.4,0.3-0.6,0.4c0.4-0.3,0.7-0.5,1.1-0.8c5.3-3.4,13.5-6.1,32.6-6.5c0,0,13.9-0.4,27.9,2.6
		c3.1,0.6,7.9,1.6,10.7,5.3C226.1,34.2,226.4,37,226.4,40.7z"/>
	<path id="XMLID_913_" class="st1" d="M224.8,40.9c0,4.5-0.4,16.7-8,32.1c-1.8,3.6-3.4,6.3-6.4,8.7c-0.6,0.5-3.3,2.6-9.4,4.3
		c-2.8,0.8-11.8,3-23.3,0.6c-3.3-0.7-6.3-1.4-9.5-3.1c-0.5-0.3-1-0.6-1.5-0.9c-1-0.7-3.7-2.6-7.6-8c-6.4-8.8-8.5-15.5-11.9-27.8
		c-0.7-2.7-1.4-6.3-0.3-9.5c0.7-2,2.1-4,4.6-6c0.1-0.1,0.1-0.1,0.2-0.2c0.2-0.1,0.4-0.3,0.6-0.4c5.2-3.4,13.3-6,32.1-6.4
		c0,0,13.6-0.4,27.5,2.5c3.1,0.6,7.8,1.6,10.5,5.3C224.5,34.6,224.8,37.3,224.8,40.9z"/>
	<path id="XMLID_912_" class="st0" d="M168.4,83.6c-0.7-0.4-1.5-0.8-2.2-1.3c-1-0.7-3.7-2.6-7.5-7.9c-6.3-8.6-8.4-15.3-11.7-27.4
		c-0.7-2.6-1.4-6.2-0.3-9.4c0.7-2.1,2.2-4.2,5.1-6.3c-2.6,2-4,4-4.6,6c-1.1,3.3-0.5,6.8,0.3,9.5c3.4,12.3,5.5,19.1,11.9,27.8
		c3.9,5.4,6.6,7.3,7.6,8C167.3,83,167.9,83.3,168.4,83.6z"/>
</g>
</svg>
