<?xml version="1.0" encoding="utf-8"?>
<!-- Generator: Adobe Illustrator 19.0.0, SVG Export Plug-In . SVG Version: 6.00 Build 0)  -->
<svg version="1.1" id="Layer_1" xmlns="http://www.w3.org/2000/svg" xmlns:xlink="http://www.w3.org/1999/xlink" x="0px" y="0px"
	 viewBox="-348 225.5 262.8 111.5" enable-background="new -348 225.5 262.8 111.5" xml:space="preserve">
<g id="XMLID_548_">
	<g id="XMLID_332_">
		<path id="XMLID_333_" fill="#EF7B05" d="M-89.4,252c0-0.5-20.4-1-20.6-1.5c-0.4-0.7-1.3-0.9-2.1-1c-3.2-0.5-6.2-0.8-9.9-1.3
			c-4.9-0.6-8.4-1-14.1-1.8c-0.1,0-0.2,0-0.3,0c-13.1-1.8-21.9-0.1-29.7,1.5c-12.2,2.4-21.5,5.8-28.2,10.4c-2.7,1.5-5,3.4-7.5,5.3
			c-2,1.5-4.1,2.7-6.4,3.6c-1.9,0.7-3.8,1.1-5.8,1.1s-3.9-0.3-5.8-1.1c-2.3-0.9-4.4-2.1-6.4-3.6c-2.5-1.9-4.8-3.8-7.5-5.3
			c-6.6-4.6-16-8.1-28.2-10.4c-7.8-1.5-16.6-3.2-29.7-1.5c-0.1,0-0.2,0-0.3,0c-5.7,0.8-9.1,1.2-14.1,1.8c-3.6,0.5-6.6,0.8-9.9,1.3
			c-0.8,0.1-1.7,0.3-2.1,1c0,0.5-21.3,1.8-21.4,2.3c-0.2,3.7,0.1,7.6,0,11.3c-0.1,1.4,20.7,2.2,21.5,3.4c0.9,1.4,2.4,1.5,4,2
			c2.9,0.9,3.5,3,4,5.6c0.1,0.5,0.2,1,0.3,1.5c0,0.3,0.1,0.6,0.2,0.9c1,4.9,2.5,10.8,5.5,16.6c3,5.8,7.5,11.5,14.6,16
			c2.3,1.5,12,7.2,24.9,7.2c4.3,0,9-0.6,13.8-2.3c0.1,0,0.3-0.1,0.4-0.2c10.1-3.3,18.2-9.7,24-19.1c0.7-1,1.4-2.5,2.1-4.3
			c2.2-4.6,6.6-6.9,10.1-6.9s8,2.4,10.1,6.9c0.7,1.7,1.5,3.2,2.1,4.3c5.8,9.3,13.9,15.8,24,19.1c0.2,0.1,0.3,0.1,0.4,0.2
			c4.8,1.7,9.5,2.3,13.8,2.3c12.8,0,22.6-5.7,24.9-7.2c14.1-9.1,18.1-22.8,20.1-32.6c0.1-0.3,0.1-0.6,0.2-0.9c0.1-0.5,0.2-1,0.3-1.5
			c0.5-2.5,1.2-4.6,4-5.6c1.5-0.5,3.1-0.6,4-2c0.8-1.2,20.6-3.7,20.5-5.1C-89.5,258.6-89.2,255.8-89.4,252z M-231,292.7
			c-5.1,8.2-12.1,13.8-20.9,16.7c-0.2,0.1-0.4,0.1-0.5,0.2c-17.1,5.9-32.1-3.2-33.7-4.3c-13.9-9-16.6-23.2-18.3-32.6
			c-1.9-10.2,0.4-14.1,1.4-15.3c2-2.3,5.1-4,8.3-4.6c14.5-2.6,23.3-0.9,31.8,0.8c20.6,4,32.1,11,35.1,21.3
			C-225.9,281.1-228.8,289.1-231,292.7z M-123.3,272.6c-1.8,9.4-4.4,23.7-18.3,32.6c-1.6,1.1-16.6,10.2-33.7,4.3
			c-0.1,0-0.3-0.1-0.5-0.2c-8.8-2.9-15.8-8.5-20.9-16.7c-2.2-3.6-5.1-11.6-3.3-17.8c2.9-10.3,14.4-17.3,35-21.3
			c8.5-1.7,17.3-3.4,31.8-0.8c3.2,0.6,6.3,2.3,8.3,4.6C-123.7,258.6-121.4,262.5-123.3,272.6z"/>
	</g>
</g>
<g id="XMLID_543_">
	<path id="XMLID_299_" fill="#7F3905" d="M-123.3,272.6c-1.8,9.4-4.4,23.7-18.3,32.6c-1.6,1.1-16.6,10.2-33.7,4.3
		c-0.1,0-0.3-0.1-0.5-0.2c-8.8-2.9-15.8-8.5-20.9-16.7c-2.2-3.6-5.1-11.6-3.3-17.8c2.9-10.3,14.4-17.3,35-21.3
		c8.5-1.7,17.3-3.4,31.8-0.8c3.2,0.6,6.3,2.3,8.3,4.6C-123.7,258.6-121.4,262.5-123.3,272.6z"/>
</g>
<g id="XMLID_540_">
	<path id="XMLID_280_" fill="#7F3905" d="M-231,292.7c-5.1,8.2-12.1,13.8-20.9,16.7c-0.2,0.1-0.4,0.1-0.5,0.2
		c-17.1,5.9-32.1-3.2-33.7-4.3c-13.9-9-16.6-23.2-18.3-32.6c-1.9-10.2,0.4-14.1,1.4-15.3c2-2.3,5.1-4,8.3-4.6
		c14.5-2.6,23.3-0.9,31.8,0.8c20.6,4,32.1,11,35.1,21.3C-225.9,281.1-228.8,289.1-231,292.7z"/>
</g>
</svg>
