<?xml version="1.0" encoding="utf-8"?>
<!-- Generator: Adobe Illustrator 19.0.0, SVG Export Plug-In . SVG Version: 6.00 Build 0)  -->
<svg version="1.1" id="Layer_1" xmlns="http://www.w3.org/2000/svg" xmlns:xlink="http://www.w3.org/1999/xlink" x="0px" y="0px"
	 viewBox="0 0 287.2 111.5" style="enable-background:new 0 0 287.2 111.5;" xml:space="preserve">
<style type="text/css">
	.st0{fill:#EF7B05;}
	.st1{fill:#7F3905;}
</style>
<g id="XMLID_370_">
	<g id="XMLID_435_">
		<g id="XMLID_281_">
			<path id="XMLID_282_" class="st0" d="M237.7,39.4h-4.4c-0.4-1.3-0.9-2.6-1.5-3.9c-4.5-9.2-14.5-15.7-24.8-16.1
				c-0.3,0-0.6,0-0.9,0c-5,0-10,1.5-14.1,4.1c-4.1-2.6-9.1-4.1-14.1-4.1c-0.3,0-0.6,0-0.9,0c-10.3,0.4-20.3,6.8-24.8,16
				c-3.6,2.6-7.8,2.5-12.4,2.5c-4.6,0-8.8,0.1-12.4-2.5c-4.5-9.2-14.5-15.7-24.8-16c-0.3,0-0.6,0-0.9,0c-5,0-10,1.5-14.1,4.1
				c-4.1-2.6-9.1-4.1-14.1-4.1c-0.3,0-0.6,0-0.9,0c-10.3,0.4-20.3,6.8-24.8,16.1c-0.6,1.3-1.1,2.5-1.5,3.9h-4.4
				C39,39.4,10,38.9,10,38.9v11.9c0,0,29,0.6,31.9,0.6h3.2c0.4,3.8,1.4,7.6,3.1,11.4c3.4,7.2,9.2,13.9,17.3,19.9
				c3.7,2.8,7.8,5.3,12,7.4c3.1,1.6,6.6,2.4,10.1,2.4s7-0.8,10.1-2.4c4.3-2.2,8.3-4.7,12-7.4c8.1-6,13.9-12.7,17.3-19.9
				c1-2.2,1.8-4.4,2.3-6.6c0.7-2.7,2.8-4.8,5.5-5.4c0.1,0,0.2,0,0.2,0c1.5-0.3,3.5-0.4,4.7-0.4c1.2,0,3.1,0.1,4.7,0.4
				c0.1,0,0.2,0,0.3,0c2.7,0.6,4.8,2.7,5.5,5.4c0.6,2.2,1.3,4.4,2.4,6.6c3.4,7.2,9.2,13.9,17.3,19.9c3.7,2.8,7.8,5.3,12,7.4
				c3.1,1.6,6.6,2.4,10.1,2.4c3.5,0,7-0.8,10.1-2.4c4.3-2.2,8.3-4.7,12-7.4c8.1-6,13.9-12.7,17.3-19.9c1.7-3.7,2.8-7.6,3.2-11.4h3.2
				c2.9,0,26.6,0.2,26.6,0.2V40C264.3,40,240.6,39.4,237.7,39.4z M122.5,60.7c-3,6.4-8.3,12.5-15.8,18c-3.5,2.6-7.3,5-11.3,7
				c-2.4,1.2-5.1,1.9-7.8,1.9c-2.7,0-5.4-0.6-7.8-1.9c-4-2-7.8-4.4-11.4-7c-7.4-5.5-12.7-11.6-15.7-18c-1.7-3.6-2.6-7.3-2.8-10.9
				c-0.1-2.7,0.1-5.3,0.7-7.8c0.4-1.5,0.9-2.9,1.6-4.3c3.7-7.6,12-13,20.6-13.3c0.2,0,0.5,0,0.7,0c5.1,0,10.4,2,14.1,5.3
				c3.7-3.3,9-5.3,14.1-5.3c0.2,0,0.5,0,0.7,0c8.6,0.3,16.8,5.6,20.6,13.3C126.3,44.5,126.2,52.9,122.5,60.7z M229.7,49.8
				c-0.2,3.6-1.1,7.3-2.8,10.9c-3,6.4-8.3,12.5-15.8,18c-3.5,2.6-7.3,5-11.3,7c-2.4,1.2-5.1,1.9-7.8,1.9c-2.7,0-5.4-0.6-7.8-1.9
				c-4-2-7.8-4.4-11.3-7c-7.4-5.5-12.7-11.6-15.8-18c-3.6-7.8-3.8-16.2-0.5-23c3.7-7.6,12-13,20.6-13.3c0.2,0,0.5,0,0.7,0
				c5.1,0,10.4,2,14.1,5.3c3.7-3.3,9-5.3,14.1-5.3c0.2,0,0.5,0,0.7,0c8.6,0.3,16.8,5.6,20.5,13.3c0.7,1.4,1.2,2.8,1.6,4.3
				C229.6,44.5,229.8,47.1,229.7,49.8z"/>
		</g>
	</g>
	<g id="XMLID_372_">
		<path id="XMLID_248_" class="st1" d="M229.7,49.8c-0.2,3.6-1.1,7.3-2.8,10.9c-3,6.4-8.3,12.5-15.8,18c-3.5,2.6-7.3,5-11.3,7
			c-2.4,1.2-5.1,1.9-7.8,1.9c-2.7,0-5.4-0.6-7.8-1.9c-4-2-7.8-4.4-11.3-7c-7.4-5.5-12.7-11.6-15.8-18c-3.6-7.8-3.8-16.2-0.5-23
			c3.7-7.6,12-13,20.6-13.3c0.2,0,0.5,0,0.7,0c5.1,0,10.4,2,14.1,5.3c3.7-3.3,9-5.3,14.1-5.3c0.2,0,0.5,0,0.7,0
			c8.6,0.3,16.8,5.6,20.5,13.3c0.7,1.4,1.2,2.8,1.6,4.3C229.6,44.5,229.8,47.1,229.7,49.8z"/>
	</g>
	<g id="XMLID_209_">
		<path id="XMLID_246_" class="st1" d="M122.5,60.7c-3,6.4-8.3,12.5-15.8,18c-3.5,2.6-7.3,5-11.3,7c-2.4,1.2-5.1,1.9-7.8,1.9
			c-2.7,0-5.4-0.6-7.8-1.9c-4-2-7.8-4.4-11.4-7c-7.4-5.5-12.7-11.6-15.7-18c-1.7-3.6-2.6-7.3-2.8-10.9c-0.1-2.7,0.1-5.3,0.7-7.8
			c0.4-1.5,0.9-2.9,1.6-4.3c3.7-7.6,12-13,20.6-13.3c0.2,0,0.5,0,0.7,0c5.1,0,10.4,2,14.1,5.3c3.7-3.3,9-5.3,14.1-5.3
			c0.2,0,0.5,0,0.7,0c8.6,0.3,16.8,5.6,20.6,13.3C126.3,44.5,126.2,52.9,122.5,60.7z"/>
	</g>
</g>
</svg>
