<?xml version="1.0" encoding="utf-8"?>
<!-- Generator: Adobe Illustrator 19.0.0, SVG Export Plug-In . SVG Version: 6.00 Build 0)  -->
<svg version="1.1" id="Layer_1" xmlns="http://www.w3.org/2000/svg" xmlns:xlink="http://www.w3.org/1999/xlink" x="0px" y="0px"
	 viewBox="0 0 303.4 137.2" style="enable-background:new 0 0 303.4 137.2;" xml:space="preserve">
<style type="text/css">
	.st0{fill:#B75B08;}
</style>
<path id="XMLID_14718_" class="st0" d="M285.2,22.3c-11.4,4.5-23.9,4.9-36.1,4.4c-12.2-0.5-24.6-2.7-36.6-0.6
	c-35.7,6.1-57.9,28.5-57.9,28.5S130.1,31.7,96.9,26c-12-2.1-24.4,0.1-36.6,0.6c-12.2,0.5-24.8,0.2-36.1-4.4
	c-3.2,11.4-1.2,24.1,5.3,34c-1.8-0.2-3.6-0.5-5.4-0.7c2.6,15.2,12.1,29.1,25.4,36.9c-1.6,0.4-3.2,0.8-4.8,1.2
	c6.6,11.9,18.7,20.2,31.8,23.8c13.1,3.7,27.1,3,40.3,0c13.2-3.1,38-14.4,38-14.4s24.8,11.3,38.1,14.4c13.2,3.1,27.2,3.7,40.3,0
	c13.1-3.7,25.1-12,31.8-23.8c-1.6-0.4-3.2-0.8-4.8-1.2c13.3-7.9,22.8-21.7,25.4-36.9c-1.8,0.2-3.6,0.5-5.4,0.7
	C286.4,46.4,288.4,33.6,285.2,22.3z M67,62.2c36.8-14,53.6-0.7,64.1,18.7C95.1,90.7,71.5,86.9,67,62.2z M178.3,80.9
	c10.4-19.4,27.3-32.7,64.1-18.7C237.9,86.9,214.3,90.7,178.3,80.9z"/>
</svg>
