<?xml version="1.0" encoding="utf-8"?>
<!-- Generator: Adobe Illustrator 19.0.0, SVG Export Plug-In . SVG Version: 6.00 Build 0)  -->
<svg version="1.1" id="Layer_1" xmlns="http://www.w3.org/2000/svg" xmlns:xlink="http://www.w3.org/1999/xlink" x="0px" y="0px"
	 viewBox="0 0 262.8 111.5" style="enable-background:new 0 0 262.8 111.5;" xml:space="preserve">
<style type="text/css">
	.st0{fill:#EF7B05;}
</style>
<path id="XMLID_695_" class="st0" d="M234.7,33h-2.5c-1.6-6.2-4.9-10.9-9.8-14c-2.9-1.8-7.2-2.6-14-2.6h-100l-0.5,0
	c-0.1,0-0.3,0-0.4,0H59.7c-6.8,0-11.1,0.8-14,2.6c-4.9,3.1-8.2,7.8-9.8,14h-2.5C31.6,33,8,34.6,8,36.5V46c0,1.9,23.6,3.5,25.5,3.5
	h1.4c0.3,7.8,1.3,17.5,5.7,26.3c1.3,2.6,6.1,8.9,14.8,13.6c6.2,3.4,12.7,5,19.9,5c4.3,0,8.7-0.6,14-1.8c6.4-1.5,12.9-4.6,18.7-8.8
	c8.1-6,11.4-13.5,15.1-22.3c3.3-7.6,6.1-14.1,6.5-20.5c2.7-1.2,6.4-1.2,9.1,0c0.4,6.3,3.2,12.9,6.5,20.5c3.8,8.7,7,16.3,15.1,22.3
	c5.8,4.3,12.3,7.3,18.7,8.8c5.3,1.2,9.7,1.8,14,1.8c7.2,0,13.7-1.6,19.9-5c8.7-4.7,13.5-11,14.8-13.6c4.4-8.8,5.4-18.4,5.7-26.3h1.4
	c1.9,0,24.5-1.6,24.5-3.5v-9.5C259.1,34.6,236.6,33,234.7,33z M180.3,87.1c-5.7-1.3-11.4-4.1-16.6-7.9c-6.9-5.1-9.7-11.6-13.3-19.9
	c-4.5-10.5-7.8-18.1-5-25.4c2.9-7.7,8.1-11.6,15.3-11.6h47.8c5.4,0,9.1,0.6,10.9,1.8c5.8,3.6,8.4,10,8.3,20.2l0,0.9
	c-0.1,6.8-0.2,18.2-5.2,28.2c-0.6,1.3-4.6,6.9-12.4,11.2C199.1,90.4,188.4,89,180.3,87.1z M118.8,59.7
	C118.8,59.7,118.8,59.7,118.8,59.7l-1-0.4c-3.6,8.3-6.4,14.9-13.3,19.9c-5.2,3.8-10.9,6.5-16.6,7.9C79.8,89,69,90.4,58.1,84.4
	c-7.8-4.3-11.8-9.9-12.4-11.2c-5-10-5.1-21.4-5.2-28.2l0-0.9C40.4,34,43,27.6,48.8,23.9c1.9-1.2,5.5-1.8,10.9-1.8h47.8
	c7.2,0,12.3,3.9,15.3,11.6c2.8,7.3-0.5,14.9-5,25.4L118.8,59.7z M122.1,22.2H146c-2.5,2.5-4.6,5.7-6,9.6c-0.4,1-0.7,2.1-0.9,3.2
	c-3.2-0.9-6.8-0.9-10,0c-0.2-1.1-0.5-2.1-0.9-3.2C126.6,27.9,124.6,24.6,122.1,22.2z"/>
</svg>
