<?xml version="1.0" encoding="utf-8"?>
<!-- Generator: Adobe Illustrator 19.0.0, SVG Export Plug-In . SVG Version: 6.00 Build 0)  -->
<svg version="1.1" id="Layer_1" xmlns="http://www.w3.org/2000/svg" xmlns:xlink="http://www.w3.org/1999/xlink" x="0px" y="0px"
	 viewBox="0 0 288 126" style="enable-background:new 0 0 288 126;" xml:space="preserve">
<style type="text/css">
	.st0{fill:#EF7B05;}
	.st1{fill:#EDA36B;}
</style>
<path id="XMLID_3104_" class="st0" d="M264,43.6l-30.8,0c-1.5-4.2-3.9-8-7.9-10.9c-11.3-8.5-33.7-10.3-50.6-3.7
	C157.8,35.5,155.9,49,155.9,49c0,0.1,0,0.2-0.1,0.3c-0.5-0.1-1.1-0.3-1.8-0.7c-0.7-0.4-1.4-1.6-2.1-2.4c-1.7-2-4.1-5.2-10-5.2h0
	c-2.9,0-5,1.1-6.5,2.1c-1.5,0.9-2.6,2.3-3.4,3.3c-0.7,0.8-1.4,1.7-2.1,2.1c-0.7,0.4-1.4,0.6-1.8,0.7c0-0.1,0-0.1-0.1-0.2
	c0,0-1.9-13.5-18.8-20.1c-16.9-6.6-39.3-4.7-50.7,3.8c-3.9,2.9-6.4,6.8-8,10.9L20,43.5l-0.7,5.3l29.7,0c-1.2,6.5-0.5,13.2,0.6,18.5
	c2.3,10.4,11.2,30.4,32,32.8c20.7,2.4,35.1-10.1,40.9-22c5-10.4,7.2-18.3,6.1-25.8c0.7-0.1,1.7-0.4,2.7-1c1.2-0.7,2.1-1.7,3-2.7
	c1.6-1.9,3.2-3.7,7.6-3.7c4.4,0,6,1.8,7.6,3.7c0.8,1,1.7,2,3,2.7c1,0.5,1.9,0.8,2.7,1c-1.1,7.5,1.1,15.4,6.1,25.8
	c5.8,11.9,20.2,24.4,40.9,22c20.7-2.4,29.7-22.3,32-32.8c1.2-5.3,1.6-12.1,0.5-18.5l29.4-0.1V43.6z M120.6,77.1
	c-4.7,9.7-16.4,21-33.8,21c-1.6,0-3.2-0.1-4.8-0.3c-8.5-1-15.7-5.2-21.4-12.5c-5.9-7.7-8.1-16.1-8.6-18.5
	c-1.5-6.9-3.7-23.7,7.9-32.4c6.1-4.6,16.1-7.3,26.9-7.3c7.7,0,15.1,1.3,21.5,3.8c15.5,6,17.4,18.1,17.4,18.3l0,0.2l0.1,0.2
	C128,57.1,126.5,65.1,120.6,77.1z M231.9,66.9c-0.5,2.4-2.7,10.8-8.6,18.5c-5.7,7.3-12.9,11.5-21.4,12.5c-1.6,0.2-3.2,0.3-4.8,0.3
	c-8.7,0-16-2.8-21.7-6.9c-5.7-4-9.8-9.3-12.1-14.1c-5.9-12.1-7.4-20.1-5.2-27.5l0.1-0.2l0-0.2c0-0.1,1.9-12.2,17.4-18.3
	c6.4-2.5,13.9-3.8,21.5-3.8c10.8,0,20.9,2.7,26.9,7.3C235.6,43.2,233.4,60,231.9,66.9z"/>
<path id="XMLID_3111_" class="st1" d="M231.9,66.9c-0.5,2.4-2.7,10.8-8.6,18.5c-5.7,7.3-12.9,11.5-21.4,12.5
	c-1.6,0.2-3.2,0.3-4.8,0.3c-8.7,0-16-2.8-21.7-6.9c-5.7-4-9.8-9.3-12.1-14.1c-5.9-12.1-7.4-20.1-5.2-27.5l0.1-0.2l0-0.2
	c0-0.1,1.9-12.2,17.4-18.3c6.4-2.5,13.9-3.8,21.5-3.8c10.8,0,20.9,2.7,26.9,7.3C235.6,43.2,233.4,60,231.9,66.9z"/>
<path id="XMLID_3120_" class="st1" d="M120.6,77.1c-4.7,9.7-16.4,21-33.8,21c-1.6,0-3.2-0.1-4.8-0.3c-8.5-1-15.7-5.2-21.4-12.5
	c-5.9-7.7-8.1-16.1-8.6-18.5c-1.5-6.9-3.7-23.7,7.9-32.4c6.1-4.6,16.1-7.3,26.9-7.3c7.7,0,15.1,1.3,21.5,3.8
	c15.5,6,17.4,18.1,17.4,18.3l0,0.2l0.1,0.2C128,57.1,126.5,65.1,120.6,77.1z"/>
</svg>
