<?xml version="1.0" encoding="utf-8"?>
<!-- Generator: Adobe Illustrator 19.0.0, SVG Export Plug-In . SVG Version: 6.00 Build 0)  -->
<svg version="1.1" id="Layer_1" xmlns="http://www.w3.org/2000/svg" xmlns:xlink="http://www.w3.org/1999/xlink" x="0px" y="0px"
	 viewBox="-348 225.5 262.8 111.5" enable-background="new -348 225.5 262.8 111.5" xml:space="preserve">
<g id="XMLID_980_">
	<g id="XMLID_991_">
		<path id="XMLID_992_" fill="#EF7B05" d="M-200.4,277.5c-3.3-3.3-7.7-5.1-12.4-5.1s-9.1,1.8-12.4,5.1l-2.2-2.2
			c3.9-3.9,9.1-6,14.6-6s10.7,2.1,14.6,6L-200.4,277.5z"/>
	</g>
	<path id="XMLID_990_" fill="#EF7B05" d="M-265,323c-22.9,0-41.4-18.6-41.4-41.4c0-22.9,18.6-41.4,41.4-41.4
		c22.9,0,41.4,18.6,41.4,41.4C-223.6,304.4-242.2,323-265,323z"/>
	<circle id="XMLID_989_" fill="#EF7B05" cx="-265" cy="281.6" r="38.2"/>
	<g id="XMLID_987_">
		<path id="XMLID_988_" fill="#EF7B05" d="M-305.6,279.7h-33.6c-0.9,0-1.7,0.7-1.7,1.7v0.5c0,0.9,0.7,1.7,1.7,1.7h33.6
			C-305.6,283.6-305.6,279.7-305.6,279.7z"/>
	</g>
	<path id="XMLID_986_" fill="#EF7B05" d="M-160.6,323c22.9,0,41.4-18.6,41.4-41.4c0-22.9-18.6-41.4-41.4-41.4s-41.4,18.5-41.4,41.4
		C-202,304.4-183.4,323-160.6,323z"/>
	<circle id="XMLID_985_" fill="#EF7B05" cx="-160.6" cy="281.6" r="38.2"/>
	<g id="XMLID_983_">
		<path id="XMLID_984_" fill="#EF7B05" d="M-119.9,279.7h29.6c0.9,0,1.7,0.7,1.7,1.7v0.5c0,0.9-0.7,1.7-1.7,1.7h-29.6V279.7z"/>
	</g>
	<path id="XMLID_982_" fill="#FFFFFF" d="M-295,286.2c0-18.6,15-33.6,33.6-33.6c11.1,0,20.9,5.3,27,13.6
		c-5.7-11.2-17.2-18.9-30.6-18.9c-18.9,0-34.3,15.3-34.3,34.3c0,10.4,4.6,19.7,11.9,26C-292.1,301.8-295,294.3-295,286.2z"/>
	<path id="XMLID_981_" fill="#FFFFFF" d="M-190.7,286.2c0-18.6,15-33.6,33.6-33.6c11.4,0,21.4,5.7,27.5,14.3
		c-5.5-11.6-17.3-19.6-31-19.6c-18.9,0-34.3,15.3-34.3,34.3c0,10.1,4.4,19.3,11.4,25.5C-188,301.4-190.7,294.1-190.7,286.2z"/>
</g>
</svg>
