<?xml version="1.0" encoding="utf-8"?>
<!-- Generator: Adobe Illustrator 19.0.0, SVG Export Plug-In . SVG Version: 6.00 Build 0)  -->
<svg version="1.1" id="Layer_1" xmlns="http://www.w3.org/2000/svg" xmlns:xlink="http://www.w3.org/1999/xlink" x="0px" y="0px"
	 viewBox="-343 228 273 106" enable-background="new -343 228 273 106" xml:space="preserve">
<path id="XMLID_638_" fill="#EDA36B" d="M-306.6,256.053c26.8-13.4,75.8,2.2,85.5,11.7c18.2,18.2-11.7,43.4-44.6,43.4
	S-333.5,269.353-306.6,256.053z"/>
<path id="XMLID_637_" fill="#EDA36B" d="M-109.1,256.053c-26.8-13.4-75.8,2.2-85.5,11.7c-18.2,18.2,11.7,43.4,44.6,43.4
	S-82.3,269.353-109.1,256.053z"/>
<path id="XMLID_636_" fill="none" stroke="#000000" stroke-width="6" stroke-miterlimit="10" d="M-220.5,276.453
	c0,0,13.3-8.2,26.5,0"/>
<line id="XMLID_635_" fill="none" stroke="#000000" stroke-width="6" stroke-linecap="round" stroke-linejoin="round" stroke-miterlimit="10" x1="-103.5" y1="272.953" x2="-88.5" y2="272.953"/>
<line id="XMLID_634_" fill="none" stroke="#000000" stroke-width="6" stroke-linecap="round" stroke-linejoin="round" stroke-miterlimit="10" x1="-313.5" y1="273.953" x2="-333.5" y2="273.953"/>
<ellipse id="XMLID_633_" transform="matrix(-0.8069 -0.5907 0.5907 -0.8069 -511.9449 385.3864)" cx="-192.9787" cy="276.3737" rx="1.9" ry="3.7"/>
<ellipse id="XMLID_632_" transform="matrix(0.8913 -0.4534 0.4534 0.8913 -149.2348 -69.7226)" cx="-220.0363" cy="276.3946" rx="1.9" ry="3.7"/>
<ellipse id="XMLID_631_" cx="-104.6" cy="272.453" rx="1.3" ry="2.4"/>
<ellipse id="XMLID_630_" cx="-312.6" cy="273.453" rx="1.3" ry="2.4"/>
</svg>
