<?xml version="1.0" encoding="utf-8"?>
<!-- Generator: Adobe Illustrator 19.0.0, SVG Export Plug-In . SVG Version: 6.00 Build 0)  -->
<svg version="1.1" id="Layer_1" xmlns="http://www.w3.org/2000/svg" xmlns:xlink="http://www.w3.org/1999/xlink" x="0px" y="0px"
	 viewBox="0 0 274.3 109.5" style="enable-background:new 0 0 274.3 109.5;" xml:space="preserve">
<g id="XMLID_3499_">
	<g id="XMLID_3504_">
		<g id="XMLID_3505_">
			<defs>
				<path id="XMLID_3506_" d="M257.9,36.5l-0.3-8.1c-0.1-1.1-22.7-0.6-23.7-1c-1.3-0.5-3.6-1.1-7.3-1.7C208.7,23,198.1,22,198.1,22
					l0,0c-2.5-0.2-5.8-0.5-9.4-0.5c-5,0-9.5,0.4-13.6,1.2c-4.2,0.6-10.4,1.5-15.8,2.9c-2,0.5-4.1,0.9-6.3,1.2
					c-10.3,1.6-20.7,1.6-31,0c-2.1-0.3-4.3-0.7-6.3-1.2c-5.4-1.3-11.6-2.3-15.8-2.9c-4.1-0.8-8.7-1.2-13.6-1.2c-3.7,0-7,0.2-9.4,0.5
					l0,0c0,0-10.6,0.9-28.4,3.7c-3.8,0.6-6,1.2-7.3,1.7c-1,0.4-29.3,1.9-29.4,3v7c-0.1,1.2,27.1,1.8,28,2.6c0.9,0.7,1.9,1.8,2.3,3.8
					c0.8,3.9,2.7,16.3,4,23.8c0,0.3,0.1,0.5,0.2,0.8c1.1,5.7,3,10.7,5.3,13.9c5.1,7,13.7,10.6,25.3,10.6c3.7,0,7.8-0.4,12.2-1.1
					c12.4-2,22.8-9,29.9-19.8c3.3-4.6,10.9-20.9,12.2-25c1.3-4.1,6.4-4.5,6.4-4.5c0,0,5.1,0.3,6.4,4.5c1.3,4.1,8.9,20.4,12.2,25
					c7.1,10.8,17.5,17.8,29.9,19.8c4.4,0.7,8.5,1.1,12.2,1.1c11.6,0,20.1-3.6,25.3-10.6c2.4-3.2,4.2-8.2,5.3-13.9
					c0.1-0.3,0.2-0.5,0.2-0.8c1.2-7.5,3.1-20,4-23.8c0.4-2,1.4-3.1,2.3-3.8C236.3,39.2,258.1,37.7,257.9,36.5z"/>
			</defs>
			<use xlink:href="#XMLID_3506_"  style="overflow:visible;fill:#EF7B05;"/>
			<clipPath id="XMLID_28_">
				<use xlink:href="#XMLID_3506_"  style="overflow:visible;"/>
			</clipPath>
		</g>
	</g>
	<g id="XMLID_3502_">
		<defs>
			<path id="XMLID_3503_" d="M198.2,88.4c-3.5,0-7.4-0.3-11.6-1C165.8,84,157.2,66.4,154.5,59c-5.1-14-1.8-22.3,11.3-28.8
				c5.7-2.8,13.6-4.3,22.8-4.3c7.6,0,13.5,1,13.5,1c0.2,0,18.6,2.8,22,14.2c3.7,12.3,0.7,31.7-4.2,38.4
				C215.6,85.5,208.5,88.4,198.2,88.4C198.2,88.4,198.2,88.4,198.2,88.4z"/>
		</defs>
		<use xlink:href="#XMLID_3503_"  style="overflow:visible;fill:#EDA36B;"/>
		<clipPath id="XMLID_29_">
			<use xlink:href="#XMLID_3503_"  style="overflow:visible;"/>
		</clipPath>
	</g>
	<g id="XMLID_3500_">
		<defs>
			<path id="XMLID_3501_" d="M76.7,88.4c-10.3,0-17.4-2.9-21.8-8.8C50,72.9,47,53.4,50.7,41.2C54.1,29.7,72.5,27,72.7,27
				c0.1,0,6-1,13.5-1c9.3,0,17.1,1.5,22.8,4.3c13.1,6.4,16.4,14.8,11.3,28.8c-2.7,7.4-11.2,25-32.1,28.4
				C84.1,88,80.2,88.4,76.7,88.4C76.7,88.4,76.7,88.4,76.7,88.4z"/>
		</defs>
		<use xlink:href="#XMLID_3501_"  style="overflow:visible;fill:#EDA36B;"/>
		<clipPath id="XMLID_30_">
			<use xlink:href="#XMLID_3501_"  style="overflow:visible;"/>
		</clipPath>
	</g>
</g>
</svg>
