<?xml version="1.0" encoding="utf-8"?>
<!-- Generator: Adobe Illustrator 19.0.0, SVG Export Plug-In . SVG Version: 6.00 Build 0)  -->
<svg version="1.1" id="Layer_1" xmlns="http://www.w3.org/2000/svg" xmlns:xlink="http://www.w3.org/1999/xlink" x="0px" y="0px"
	 viewBox="-348 225.5 262.8 111.5" enable-background="new -348 225.5 262.8 111.5" xml:space="preserve">
<path id="XMLID_274_" fill="#EF7B05" d="M-90.8,251.2c-10.6-1.8-35.7-5.8-42.6-6.3c-4.1-0.3-21.5-1.6-41.5,0.7
	c-4.5,0.5-11.5,1.4-19.5,4.6c-2.9,1.1-6.5,3-8.4,5.7c-3.2-0.7-6.9-1.3-11.1-1.4c-0.1,0-0.3,0-0.4,0c-4.2,0.1-7.9,0.7-11.1,1.4
	c-1.9-2.7-5.5-4.6-8.4-5.8c-8-3.2-15-4.1-19.5-4.6c-20.1-2.3-37.4-1-41.5-0.7c-6.9,0.5-33,4.5-43.6,6.3c-1.3,0.2-2.2,1.4-2.2,2.7
	c0.1,2.3,0.2,4.7,0.3,7c0,1,0.6,1.8,1.5,2.3c1.3,0.6,20.1-1.2,21.5,1c1.2,1.9,1.6,3.9,1.7,5.4c0.1,1.5,1.3,2.6,2.8,2.5
	c1-0.1,2.1-0.2,3.1-0.2c0.2,3,0.7,6.1,1.2,9.2c1.6,9,3.8,21.4,14.6,29.6c7.3,5.5,14.9,6.4,19,6.9c1.5,0.2,3.9,0.5,7.1,0.5l0,0
	c9.6,0,17.9-2.8,24.7-8.2c1.5-1.2,6.5-5.4,10.2-12h0.1c1.1,0.3,2.5,0.2,3.5-0.7c0.8-0.8,2-2.5,3-6.7c1.3-5.2,2.8-11.3,1.5-15.1
	c-0.3-0.9-0.9-2.5-3-2.9c-0.5-0.1-1.1-0.1-1.7-0.1c-0.1-0.7-0.3-1.3-0.4-2c2.1-1.3,4.2-3.2,5.2-5.8c0.1-0.4,0.5-1.4,0.6-2.7
	c2.8-0.8,6.1-1.5,10-1.5s7.2,0.6,10,1.5c0.1,1.3,0.5,2.3,0.6,2.7c1,2.7,3.1,4.5,5.2,5.8c-0.2,0.6-0.3,1.3-0.4,2
	c-0.6,0-1.2,0-1.7,0.1c-2.1,0.4-2.7,2-3,2.9c-1.3,3.8,0.2,9.9,1.5,15.1c1,4.2,2.2,5.9,3,6.7c0.9,0.9,2.4,1,3.5,0.7h0.1
	c3.7,6.6,8.7,10.8,10.2,12c6.8,5.4,15.1,8.2,24.7,8.2l0,0c3.1,0,5.6-0.3,7.1-0.5c4.1-0.5,11.7-1.4,19-6.9
	c10.8-8.2,13-20.6,14.6-29.6c0.6-3.2,1.1-6.2,1.2-9.2c1,0.1,2.1,0.2,3.1,0.2c1.5,0.1,2.7-1,2.8-2.5s0.5-3.5,1.7-5.4
	c1.4-2.1,19.2-0.3,20.5-1c0.9-0.4,1.4-1.3,1.5-2.3c0.1-2.3,0.2-4.7,0.3-7C-88.5,252.6-89.5,251.5-90.8,251.2z"/>
<path id="XMLID_273_" fill="#EF7B05" d="M-231.3,272.6c0,0.1,0,0.1,0,0.2c0.4,1.9,0.7,4.1,0.9,6.4c0.1,1.5,0.1,3,0.1,4.4
	c-0.3,5.1-2,9.6-4,13.2c-3.7,6.6-8.7,10.7-9.8,11.6c-12,9.6-26,7.9-30.4,7.3c-3.3-0.4-8.9-1.1-14.7-4.3c-1.1-0.6-2.3-1.4-3.4-2.3
	c-2-1.5-3.7-3.2-5.1-5c-2.5-3.1-4.2-6.4-5.5-9.8c-1.5-4-2.3-8.1-3-11.7c-0.1-0.6-0.2-1.2-0.3-1.7c-0.6-3.2-1.1-6.3-1.2-9.3
	c-0.2-4,0.4-7.7,2.7-11.2c3.1-4.8,7.7-7.1,11.7-8.4c8.8-2.9,15.3-2.9,20.5-2.8c2.7,0,6.9,0.3,10.9,0.7c3,0.3,5.9,0.7,8.1,1.3
	c2.6,0.6,5.3,1.2,7.9,2.1c6.1,2.2,11.7,6.5,14.4,17.9C-231.5,271.6-231.4,272.1-231.3,272.6z"/>
<path id="XMLID_272_" fill="#EF7B05" d="M-121.6,280.9c-0.1,0.6-0.2,1.1-0.3,1.7c-0.7,3.6-1.5,7.7-3,11.7c-1.3,3.4-3,6.8-5.5,9.8
	c-1.4,1.8-3.1,3.4-5.1,5c-1.1,0.9-2.3,1.6-3.4,2.3c-5.8,3.2-11.3,3.9-14.7,4.3c-4.3,0.5-18.3,2.2-30.4-7.3c-1.1-0.9-6.1-5-9.8-11.6
	c-2.1-3.7-3.7-8.1-4-13.2c-0.1-1.4-0.1-2.9,0.1-4.4c0.2-2.3,0.5-4.5,0.9-6.4c0-0.1,0-0.1,0-0.2c0.1-0.5,0.2-0.9,0.3-1.4
	c2.6-11.5,8.3-15.8,14.4-17.9c2.6-0.9,5.3-1.5,7.9-2.1c2.2-0.5,5.1-0.9,8.1-1.3c4-0.4,8.1-0.7,10.9-0.7c5.2,0,11.7,0,20.5,2.8
	c3.9,1.3,8.6,3.6,11.7,8.4c2.3,3.5,2.9,7.3,2.7,11.2C-120.5,274.6-121.1,277.7-121.6,280.9z"/>
<g id="XMLID_261_">
	<path id="XMLID_263_" fill="#7F3905" d="M-231.3,272.7c0-0.1,0-0.1,0-0.2c-0.1-0.5-0.2-0.9-0.3-1.4c-2.6-11.5-8.3-15.8-14.4-17.9
		c-2.6-0.9-5.3-1.5-7.9-2.1c-2.2-0.5-5.1-0.9-8.1-1.3c-4-0.4-8.1-0.7-10.9-0.7c-5.2,0-11.7,0-20.5,2.8c-3.9,1.3-8.6,3.6-11.7,8.4
		c-2.3,3.5-2.9,7.3-2.7,11.2c0.1,3,0.7,6.1,1.2,9.3c0.1,0.6,0.2,1.1,0.3,1.7c0.7,3.6,1.5,7.7,3,11.7c1.3,3.4,3,6.8,5.5,9.8
		c1.4,1.8,3.1,3.4,5.1,5c1.1,0.9,2.3,1.6,3.4,2.3c5.8,3.2,11.3,3.9,14.7,4.3c4.3,0.5,18.3,2.2,30.4-7.3c1.1-0.9,6.1-5,9.8-11.6
		c2.1-3.7,3.7-8.1,4-13.2c0.1-1.4,0.1-2.9-0.1-4.4C-230.6,276.8-230.9,274.6-231.3,272.7z"/>
	<path id="XMLID_262_" fill="#7F3905" d="M-123.1,260.4c-3.1-4.8-7.7-7.1-11.7-8.4c-8.8-2.9-15.3-2.9-20.5-2.8
		c-2.7,0-6.9,0.3-10.9,0.7c-3,0.3-5.9,0.7-8.1,1.3c-2.6,0.6-5.3,1.2-7.9,2.1c-6.1,2.2-11.7,6.5-14.4,17.9c-0.1,0.5-0.2,0.9-0.3,1.4
		c0,0.1,0,0.1,0,0.2c-0.4,1.9-0.7,4.1-0.9,6.4c-0.1,1.5-0.1,3-0.1,4.4c0.3,5.1,2,9.6,4,13.2c3.7,6.6,8.7,10.7,9.8,11.6
		c12,9.6,26,7.9,30.4,7.3c3.3-0.4,8.9-1.1,14.7-4.3c1.1-0.6,2.3-1.4,3.4-2.3c2-1.5,3.7-3.2,5.1-5c2.5-3.1,4.2-6.4,5.5-9.8
		c1.5-4,2.3-8.1,3-11.7c0.1-0.6,0.2-1.2,0.3-1.7c0.6-3.2,1.1-6.3,1.2-9.3C-120.2,267.7-120.8,263.9-123.1,260.4z"/>
</g>
</svg>
