<?xml version="1.0" encoding="utf-8"?>
<!-- Generator: Adobe Illustrator 19.0.0, SVG Export Plug-In . SVG Version: 6.00 Build 0)  -->
<svg version="1.1" id="Layer_1" xmlns="http://www.w3.org/2000/svg" xmlns:xlink="http://www.w3.org/1999/xlink" x="0px" y="0px"
	 viewBox="0 0 262.8 111.5" style="enable-background:new 0 0 262.8 111.5;" xml:space="preserve">
<style type="text/css">
	.st0{fill:#7F3905;}
	.st1{fill:#BFA695;}
	.st2{fill:#EF7B05;}
	.st3{fill:#EDA36B;}
</style>
<g id="XMLID_261_">
	<path id="XMLID_527_" class="st0" d="M146.4,63.5l-2.1-20.7c-0.5-4.7-4.4-8.3-9.2-8.3h-2.9c-4.8,0-8.7,3.6-9.2,8.3L121,63.5h-2
		l2.1-20.9c0.6-5.7,5.4-10.1,11.1-10.1h2.9c5.8,0,10.6,4.3,11.1,10.1l2.1,20.9H146.4z"/>
	<g id="XMLID_524_">
		<path id="XMLID_280_" class="st1" d="M123.5,61c0,1.2-0.4,2.4-0.9,3.6c-1.7,4.1-3.7,8.1-6.1,11.8c-0.7,1.2-1.6,2.3-2.7,3
			c-1.2,0.7-2.8,0.9-3.9,0c-0.7-0.6-1.1-1.6-1.1-2.6c0-1,0.3-1.9,0.6-2.9c0.9-2.9,1.7-5.8,2.6-8.7v0c1-3.2,2.3-6,5.6-7.3
			C120,56.9,123.4,58,123.5,61z"/>
	</g>
	<path id="XMLID_523_" class="st0" d="M64.3,95.7c-8.1,0-15.2-2.2-21.1-6.5C32.3,81.1,29,63.1,29.3,53c0.4-10.3,2.6-17.1,7.6-23.6
		c5.4-6.9,17.4-10.9,32.8-10.9c18,0,39.8,5.8,48.1,18.7c1.3,2.1,3.2,5.4,3.8,10.1c1.2,9.1-3,19-11.9,28.1
		c-8.1,8.2-19,14.8-30.1,17.9C77.7,93.9,71.5,95.7,64.3,95.7z"/>
	<path id="XMLID_522_" class="st2" d="M44.6,87.4C34.4,79.9,31.2,62.8,31.5,53c0.3-9,2-15.7,7.2-22.3c12.7-16.2,64.5-12.4,77.4,7.6
		c1,1.6,2.9,4.8,3.5,9.2c2.4,18-19.1,37.6-40.4,43.6C73.4,92.9,57.4,96.9,44.6,87.4z"/>
	<rect id="XMLID_521_" x="68.4" y="17.4" class="st0" width="89" height="2"/>
	<path id="XMLID_520_" class="st0" d="M15.3,40h15.5c0.9,0,1.7,0.8,1.7,1.7v0c0,0.9-0.8,1.7-1.7,1.7H15.3c-0.9,0-1.7-0.8-1.7-1.7v0
		C13.7,40.7,14.4,40,15.3,40z"/>
	<g id="XMLID_517_">
		<path id="XMLID_278_" class="st1" d="M144.5,61c0,1.2,0.4,2.4,0.9,3.6c1.7,4.1,3.7,8.1,6.1,11.8c0.7,1.2,1.6,2.3,2.7,3
			c1.2,0.7,2.8,0.9,3.9,0c0.7-0.6,1.1-1.6,1.1-2.6c0-1-0.3-1.9-0.6-2.9c-0.9-2.9-1.7-5.8-2.6-8.7v0c-1-3.2-2.3-6-5.6-7.3
			C147.9,56.9,144.5,58,144.5,61z"/>
	</g>
	<path id="XMLID_516_" class="st0" d="M203,95.7c8.1,0,15.2-2.2,21.1-6.5C235,81.1,238.4,63.1,238,53c-0.4-10.3-2.6-17.1-7.6-23.6
		c-5.4-6.9-17.4-10.9-32.8-10.9c-18,0-39.8,5.8-48.1,18.7c-1.3,2.1-3.2,5.4-3.8,10.1c-1.2,9.1,3,19,11.9,28.1
		c8.1,8.2,19,14.8,30.1,17.9C189.7,93.9,195.8,95.7,203,95.7z"/>
	<path id="XMLID_515_" class="st2" d="M222.8,87.4c10.2-7.5,13.4-24.7,13.1-34.4c-0.3-9-2-15.7-7.2-22.3
		c-12.7-16.2-64.5-12.4-77.4,7.6c-1,1.6-2.9,4.8-3.5,9.2c-2.4,18,19.1,37.6,40.4,43.6C194,92.9,210,96.9,222.8,87.4z"/>
	<rect id="XMLID_514_" x="109.9" y="17.4" class="st0" width="89" height="2"/>
	<path id="XMLID_513_" class="st0" d="M252,40h-15.5c-0.9,0-1.7,0.8-1.7,1.7v0c0,0.9,0.8,1.7,1.7,1.7H252c0.9,0,1.7-0.8,1.7-1.7v0
		C253.7,40.7,253,40,252,40z"/>
	<g id="XMLID_263_">
		<path id="XMLID_276_" class="st3" d="M41.8,39.5c-3.9,4.6-6.7,10.4-6.1,16.4c0.4,4.1,2.6,8,6,10.4c3.4,2.4,7.9,3.1,11.8,1.8
			c3.4-1.2,6.1-3.8,8.7-6.4c6.3-6.2,12.6-12.4,18.9-18.6l0,0c3.6-3.5,7.1-7.5,6-12.9c-0.7-3.4-2.8-5-6.2-5.4c-7.8-0.9-19,1.5-26,4.8
			C49.9,31.9,45.4,35.3,41.8,39.5z"/>
	</g>
	<g id="XMLID_262_">
		<path id="XMLID_274_" class="st3" d="M165.3,36c-4.6,3.8-8.5,9-9,15c-0.3,4.1,1.1,8.4,4,11.3c2.9,3,7.2,4.5,11.3,3.9
			c3.6-0.5,6.7-2.6,9.8-4.6c7.3-4.9,14.7-9.8,22-14.7l0,0c4.1-2.8,8.4-6.1,8.3-11.6c-0.1-3.4-1.8-5.4-5-6.4
			c-7.5-2.4-18.9-2-26.4-0.1C174.7,30,169.6,32.5,165.3,36z"/>
	</g>
</g>
</svg>
