<?xml version="1.0" encoding="utf-8"?>
<!-- Generator: Adobe Illustrator 19.0.0, SVG Export Plug-In . SVG Version: 6.00 Build 0)  -->
<svg version="1.1" id="Layer_1" xmlns="http://www.w3.org/2000/svg" xmlns:xlink="http://www.w3.org/1999/xlink" x="0px" y="0px"
	 viewBox="-348 225.5 262.8 111.5" enable-background="new -348 225.5 262.8 111.5" xml:space="preserve">
<path id="XMLID_695_" fill="#EF7B05" d="M-113.3,258.5h-2.5c-1.6-6.2-4.9-10.9-9.8-14c-2.9-1.8-7.2-2.6-14-2.6h-100h-0.5
	c-0.1,0-0.3,0-0.4,0h-47.8c-6.8,0-11.1,0.8-14,2.6c-4.9,3.1-8.2,7.8-9.8,14h-2.5c-1.8,0-25.4,1.6-25.4,3.5v9.5
	c0,1.9,23.6,3.5,25.5,3.5h1.4c0.3,7.8,1.3,17.5,5.7,26.3c1.3,2.6,6.1,8.9,14.8,13.6c6.2,3.4,12.7,5,19.9,5c4.3,0,8.7-0.6,14-1.8
	c6.4-1.5,12.9-4.6,18.7-8.8c8.1-6,11.4-13.5,15.1-22.3c3.3-7.6,6.1-14.1,6.5-20.5c2.7-1.2,6.4-1.2,9.1,0c0.4,6.3,3.2,12.9,6.5,20.5
	c3.8,8.7,7,16.3,15.1,22.3c5.8,4.3,12.3,7.3,18.7,8.8c5.3,1.2,9.7,1.8,14,1.8c7.2,0,13.7-1.6,19.9-5c8.7-4.7,13.5-11,14.8-13.6
	c4.4-8.8,5.4-18.4,5.7-26.3h1.4c1.9,0,24.5-1.6,24.5-3.5V262C-88.9,260.1-111.4,258.5-113.3,258.5z M-167.7,312.6
	c-5.7-1.3-11.4-4.1-16.6-7.9c-6.9-5.1-9.7-11.6-13.3-19.9c-4.5-10.5-7.8-18.1-5-25.4c2.9-7.7,8.1-11.6,15.3-11.6h47.8
	c5.4,0,9.1,0.6,10.9,1.8c5.8,3.6,8.4,10,8.3,20.2v0.9c-0.1,6.8-0.2,18.2-5.2,28.2c-0.6,1.3-4.6,6.9-12.4,11.2
	C-148.9,315.9-159.6,314.5-167.7,312.6z M-229.2,285.2L-229.2,285.2l-1-0.4c-3.6,8.3-6.4,14.9-13.3,19.9c-5.2,3.8-10.9,6.5-16.6,7.9
	c-8.1,1.9-18.9,3.3-29.8-2.7c-7.8-4.3-11.8-9.9-12.4-11.2c-5-10-5.1-21.4-5.2-28.2v-0.9c-0.1-10.1,2.5-16.5,8.3-20.2
	c1.9-1.2,5.5-1.8,10.9-1.8h47.8c7.2,0,12.3,3.9,15.3,11.6c2.8,7.3-0.5,14.9-5,25.4L-229.2,285.2z M-225.9,247.7h23.9
	c-2.5,2.5-4.6,5.7-6,9.6c-0.4,1-0.7,2.1-0.9,3.2c-3.2-0.9-6.8-0.9-10,0c-0.2-1.1-0.5-2.1-0.9-3.2
	C-221.4,253.4-223.4,250.1-225.9,247.7z"/>
</svg>
