<?xml version="1.0" encoding="utf-8"?>
<!-- Generator: Adobe Illustrator 19.0.0, SVG Export Plug-In . SVG Version: 6.00 Build 0)  -->
<svg version="1.1" id="Layer_1" xmlns="http://www.w3.org/2000/svg" xmlns:xlink="http://www.w3.org/1999/xlink" x="0px" y="0px"
	 viewBox="-312 206 335 150" enable-background="new -312 206 335 150" xml:space="preserve">
<g id="XMLID_542_">
	<path id="XMLID_543_" fill="#EF7B05" d="M-21.9813,267.5c0,0-17.9-0.1-19-0.2c0,0-0.5-3.5-1.6-4.5c-1-1-3-1.8-9.1-2.8
		c-6.1-0.9-20.3-2.4-31-2.4s-30.3,2.2-34.8,3c-4.5,0.7-9,1.6-11.2,5.6c-0.6,1.1-1.5,1.5-4,1.7s-10.8,0-10.8,0s-8.3,0.2-10.8,0
		s-3.4-0.6-4-1.7c-2.2-4-6.7-4.9-11.2-5.6c-4.5-0.7-24-3-34.8-3s-24.9,1.5-31,2.4c-6.1,0.9-8.1,1.8-9.1,2.8s-1.6,4.5-1.6,4.5
		c-1.1,0.1-29,0.2-29,0.2c-1.6,0.1-0.8,4-0.6,5.7c0.2,1.7,1.6,2.2,2.6,2.2s27.7,0,27.7,0c0.1,3.2,0.8,8.4,1.3,13.8
		c0.5,5.4,2.4,8,4.3,9c4.5,2.3,22.1,5,24.5,5.3s10.9,0.9,14.9,0.9s13.1-0.6,17.2-1.1c4.1-0.5,11.4-1.2,14.9-3.4
		c2.9-1.7,4-2.6,5.8-6.4l0,0c0.2-0.2,3.3-4.9,5.2-9.7c1.9-4.9,0.8-6.8,0.4-7.4c-0.4-0.6-0.8-1.8-0.8-1.8c0-1.4,0.4-2.1,1.5-2.3
		c2.3-0.4,9.5-1.5,10.4-1.5c0.9,0,2,0,2,0s1.1,0,2,0c0.9,0,8.1,1,10.4,1.5c1,0.2,1.5,1,1.5,2.3c0,0-0.4,1.1-0.8,1.8
		c-0.4,0.6-1.6,2.5,0.4,7.4c1.9,4.9,5,9.5,5.2,9.7l0,0c1.8,3.8,3,4.7,5.8,6.4c3.5,2.1,10.8,2.8,14.9,3.4c4.1,0.5,13.2,1.1,17.2,1.1
		s12.5-0.6,14.9-0.9s20.1-3,24.5-5.3c1.9-1,3.8-3.6,4.3-9c0.5-5.4,1.2-10.6,1.3-13.8c0,0,16.7,0,17.7,0s2.4-0.5,2.6-2.2
		C-21.1813,271.5-20.3813,267.6-21.9813,267.5z M-158.6813,273.8c0,0-2.2,0.1-3.5,5.7c0,0-0.6,0.1-1.1,0.1s-2.1-0.2-2.7,0.6
		c-0.7,0.8-1.9,2.8-0.2,4.1c1.7,1.3,1.2,0.9,1.2,0.9s-1.5,3.9-2,5.3c-0.6,1.4-1.2,5.2,2.2,4.6c-1.7,2.8-3.6,3.8-8.6,4.8
		c-7.5,1.6-17.5,2.6-26.4,2.6s-24.6-2-30.1-3.5s-6.3-1.6-7.9-2.3c-1.7-0.7-3.4-1.3-4-5.7c-0.7-4.4-1.9-12.3-1.9-24.7
		c0,0-0.4-2.2,2.1-2.9c2.4-0.7,14.1-2.9,25-3.4c10.9-0.5,23.3-0.4,31.2,0.5c8,0.9,17.7,1.8,22.5,3.3
		C-158.2813,265.4-158.5813,271.7-158.6813,273.8z M-42.7813,266.4c0,12.4-1.3,20.2-1.9,24.7c-0.7,4.4-2.4,5-4,5.7
		c-1.7,0.7-2.4,0.8-7.9,2.3s-21.2,3.5-30.1,3.5c-8.9,0-18.9-1-26.4-2.6c-5-1-7-2-8.6-4.8c3.4,0.6,2.8-3.3,2.2-4.6
		c-0.6-1.4-2-5.3-2-5.3s-0.5,0.3,1.2-0.9c1.7-1.3,0.4-3.3-0.2-4.1c-0.7-0.8-2.2-0.6-2.7-0.6s-1.1-0.1-1.1-0.1
		c-1.3-5.6-3.5-5.7-3.5-5.7c-0.1-2.1-0.4-8.4,4.4-10c4.8-1.5,14.5-2.4,22.5-3.3c8-0.9,20.3-1,31.2-0.5s22.6,2.7,25,3.4
		C-42.3813,264.3-42.7813,266.4-42.7813,266.4z"/>
</g>
</svg>
