<?xml version="1.0" encoding="utf-8"?>
<!-- Generator: Adobe Illustrator 19.0.0, SVG Export Plug-In . SVG Version: 6.00 Build 0)  -->
<svg version="1.1" id="Layer_1" xmlns="http://www.w3.org/2000/svg" xmlns:xlink="http://www.w3.org/1999/xlink" x="0px" y="0px"
	 viewBox="0 0 162.8 99.3" style="enable-background:new 0 0 162.8 99.3;" xml:space="preserve">
<style type="text/css">
	.st0{fill-rule:evenodd;clip-rule:evenodd;fill:#FFFFFF;stroke:#EF7B05;stroke-width:4;stroke-miterlimit:10;}
</style>
<g id="XMLID_277_">
	<path id="XMLID_281_" class="st0" d="M96,50c0,5-5.6,9.1-12.5,9.1l0,0c-6.9,0-12.6-4.1-12.6-9.1v-7.4c0-5,5.6-9.1,12.6-9.1l0,0
		c6.9,0,12.5,4.1,12.5,9.1V50z"/>
	<g id="XMLID_278_">
		<path id="XMLID_280_" class="st0" d="M76.3,38.4c0,0-28.9-23.4-56.2-16.1c0,0-8.7,28,3.8,56c0,0,28.6,4.6,52.4-20.6V38.4z"/>
		<path id="XMLID_279_" class="st0" d="M90.5,38.4c0,0,28.9-23.4,56.2-16.1c0,0,8.7,28-3.8,56c0,0-28.6,4.6-52.4-20.6V38.4z"/>
	</g>
</g>
</svg>
