<?xml version="1.0" encoding="utf-8"?>
<!-- Generator: Adobe Illustrator 19.0.0, SVG Export Plug-In . SVG Version: 6.00 Build 0)  -->
<svg version="1.1" id="Layer_1" xmlns="http://www.w3.org/2000/svg" xmlns:xlink="http://www.w3.org/1999/xlink" x="0px" y="0px"
	 viewBox="-251 346.2 283 110.8" style="enable-background:new -251 346.2 283 110.8;" xml:space="preserve">
<style type="text/css">
	.st0{fill:#EF7B05;stroke:#EF7B05;stroke-width:12;stroke-miterlimit:10;}
</style>
<g id="XMLID_2165_">
	<path id="XMLID_2172_" class="st0" d="M-18.2,367.6c-7.3-6.6-22.7-3.7-31.5-2.8c-10.8,1.1-21.6,2.3-32.4,2.9
		c-7.9,0.4-15.8,0.7-23.6,0.7c-7.9,0-15.8-0.2-23.6-0.7c-10.8-0.6-21.6-1.9-32.4-2.9c-8.8-0.9-24.2-3.8-31.5,2.8
		c-1.8,1.7-3.1,3.6-4.1,5.8c-0.5,1.2-0.9,4-3.3,4.6c-8.5,2.2-26.5,0.3-26.5,0.3l-0.8,10.8c0,0,20-0.1,27,1.3
		c1.7,0.3,0.9,3.8,0.9,3.9c0.2,18.7,11,37.1,29.4,43c20.9,6.7,39.2-3,51.1-20.1c3.7-5.3,6.4-15,13.9-14.9c7.4,0,10.2,9.6,13.9,14.9
		c11.9,17.2,30.2,26.8,51.1,20.1c18.5-5.9,29.3-24.4,29.4-43.2c0-0.8,0.2-4.7,0.2-5.5c0-0.1,24.2-0.9,24.2-0.9v-10.3
		c0,0-16.5,1.1-24.2,0.2c-3.2-0.4-2.5-3.2-2.7-3.5C-14.8,371.6-16.1,369.4-18.2,367.6z M-137.5,427.7c-20.8,15-44,5.5-55.2-15.8
		c-4.8-9.1-4.9-20.7-1.5-30.3c3.7-10.2,11.3-12.1,20.9-11.6c4.8,0.2,41.1,6.4,47.2,9.5C-103.1,390.9-124.6,418.4-137.5,427.7z
		 M-18.7,412c-11.2,21.2-34.4,30.8-55.2,15.8c-12.9-9.3-34.4-36.8-11.5-48.2c6.2-3.1,42.5-9.3,47.2-9.5c9.6-0.4,17.2,1.4,20.9,11.6
		C-13.8,391.3-13.9,402.8-18.7,412z"/>
	<path id="XMLID_2171_" class="st0" d="M-11.4,391.2c0,0.3,0,0.6,0,0.9c0,0.1,0,0.1,0,0.2c0,0,0-0.1,0-0.1
		C-10.9,400.2-11.4,390.7-11.4,391.2z"/>
	<path id="XMLID_2170_" class="st0" d="M-11.4,391.8C-11.4,391.8-11.4,391.8-11.4,391.8c0,0.1,0,0.2,0,0.3c0,0,0,0,0,0
		C-11.4,392-11.4,391.9-11.4,391.8z"/>
	<path id="XMLID_2169_" class="st0" d="M-11.4,391.2c0,0.2,0,0.3,0,0.5c0,0,0,0.1,0,0.1C-11.4,391.6-11.4,391.4-11.4,391.2z"/>
	<path id="XMLID_2168_" class="st0" d="M-200,392.1c0-0.3,0-0.6,0-0.9C-200,390.7-200.5,400.2-200,392.1c0,0.1,0,0.1,0,0.2
		C-200,392.2-200,392.2-200,392.1z"/>
	<path id="XMLID_2167_" class="st0" d="M-200,392.1C-200,392.1-200,392.1-200,392.1c0-0.1,0-0.2,0-0.3c0,0,0,0,0,0
		C-200,391.9-200,392-200,392.1z"/>
	<path id="XMLID_2166_" class="st0" d="M-200,391.7c0-0.2,0-0.3,0-0.5c0,0.2,0,0.4,0,0.6C-200,391.8-200,391.7-200,391.7z"/>
</g>
</svg>
