<?xml version="1.0" encoding="utf-8"?>
<!-- Generator: Adobe Illustrator 19.0.0, SVG Export Plug-In . SVG Version: 6.00 Build 0)  -->
<svg version="1.1" id="Layer_1" xmlns="http://www.w3.org/2000/svg" xmlns:xlink="http://www.w3.org/1999/xlink" x="0" y="0"
	 viewBox="0 0 378.37839 374.32431" style="enable-background:new 0 0 378.37839 374.32431;" xml:space="preserve">
<style type="text/css">
	.st0{fill:#EF7B05;}
</style>
<path id="XMLID_118_" class="st0" d="M262.01297,81.44554c0,0,0,0-0.01001,0c0,0,0.01001,0,0.01001,0.00989
	c0.48999,0.38,0.97003,0.77002,1.45001,1.17004C262.983,82.22545,262.50296,81.83543,262.01297,81.44554z M262.00296,81.44554
	c0,0,0.01001,0,0.01001,0.00989c0.48999,0.38,0.97003,0.77002,1.45001,1.17004c-0.47998-0.40002-0.96002-0.79004-1.45001-1.17993
	C262.01297,81.44554,262.01297,81.44554,262.00296,81.44554z M357.27298,116.29539
	c-8.94-21.30994-22.01001-40.63989-38.46002-56.86987c-16.56-16.16003-36.09998-28.97009-57.51996-37.72009
	c-22.8-9.25989-47.21004-13.89001-71.82002-13.64002c-24.58002-0.23999-48.96002,4.39001-71.73999,13.64002
	c-21.41003,8.78003-40.92999,21.57996-57.52002,37.72009C43.76296,75.6555,30.69295,94.98546,21.76296,116.29539
	c-9.42999,22.47009-14.17999,46.62012-13.96997,70.98999c-0.23999,24.36011,4.48999,48.52002,13.88,70.99998
	c8.94,21.31006,22.00995,40.64014,38.45996,56.86011c16.58001,16.13989,36.11004,28.93994,57.52002,37.71997
	c22.77002,9.25,47.15997,13.89001,71.73999,13.64001c24.58002,0.35999,48.98999-4.16003,71.82002-13.30994
	c21.41998-8.75,40.95001-21.56006,57.52002-37.72009c16.44995-16.21997,29.51996-35.54993,38.44995-56.85999
	c9.40002-22.47997,14.12006-46.64,13.89001-70.99998C371.37296,163.14549,366.68295,138.87547,357.27298,116.29539z
	 M309.5882,225.36812c-0.66666,15-4.40524,31.17616-10.33524,45.36623c-5.76996,13.95996-14.29999,26.80618-25.06,37.80618h0.41003
	c-10.81,11-23.63002,18.50244-37.72005,24.13245c-14.90997,6.08997-30.88995,8.87122-47,8.70129
	c-16.10999,0.15991-32.08997-3.0144-47-9.08435c-14.06-5.68005-26.88-14.11725-37.71997-24.71722
	c-10.82001-10.58997-19.40002-23.34735-25.23004-37.31732c-5.91998-14.18994-12.53825-39.75758-14.59474-55.24394l-2.12523-20.29546
	 M63.21297,194.70682c0-72.83008,47.20001-132.99063,108.25-141.91068c5.16998-0.76001,10.44-1.17036,15.78998-1.17036
	c5.34003,0,10.59003,0.37984,15.75,1.13985c42.92999,6.28992,79.00002,37.87492,96.63002,81.39494
	c0.22003,0.53003,0.42999,1.04739,0.63,1.57742c0.41998,1.05994,0.82001,2.11871,1.21002,3.18878
	c0.97998,2.66992,1.89001,5.38927,2.72998,8.13927c0.66998,2.20007,1.29999,4.42973,1.88,6.67973
	c0.15002,0.55994,0.28998,1.12984,0.42999,1.6899c0.28003,1.12988,0.54004,2.26982,0.79999,3.40984
	c0.13,0.57007,0.25,1.13998,0.37,1.71994c0.24005,1.15002,0.48004,2.30002,0.69,3.45993
	c1.86005,9.84009,2.99658,20.07123,2.84003,30.56006c-0.125,8.37337-0.12216,10.90356-0.12216,10.90356l-0.75262,10.29578
	l-0.75,9.58333 M63.7963,204.5838 M262.00296,81.44554c0,0,0.01001,0,0.01001,0.00989c0.48999,0.38,0.97003,0.77002,1.45001,1.17004
	c-0.47998-0.40002-0.96002-0.79004-1.45001-1.17993C262.01297,81.44554,262.01297,81.44554,262.00296,81.44554z"/>
</svg>
