<svg version="1.1" id="Layer_1" xmlns="http://www.w3.org/2000/svg" xmlns:xlink="http://www.w3.org/1999/xlink" x="400px" y="400px"
	 viewBox="0 0 380 380" style="enable-background:new 0 0 380 380;" xml:space="preserve">
<style type="text/css">
	.st0{fill:#EF7B05;}
</style>
<path id="XMLID_118_" class="st0" d="M263.5,84.7C263.5,84.7,263.5,84.7,263.5,84.7C263.5,84.7,263.5,84.7,263.5,84.7
	c0.5,0.4,1,0.8,1.5,1.2C264.5,85.5,264,85.1,263.5,84.7z M263.5,84.7C263.5,84.7,263.5,84.7,263.5,84.7c0.5,0.4,1,0.8,1.5,1.2
	C264.5,85.5,264,85.1,263.5,84.7C263.5,84.7,263.5,84.7,263.5,84.7z M358.8,119.6c-8.9-21.3-22-40.6-38.5-56.9
	c-16.6-16.2-36.1-29-57.5-37.7C240,15.7,215.6,11.1,191,11.4c-24.6-0.2-49,4.4-71.7,13.6c-21.4,8.8-40.9,21.6-57.5,37.7
	c-16.5,16.2-29.5,35.6-38.5,56.9c-9.4,22.5-14.2,46.6-14,71c-0.2,24.4,4.5,48.5,13.9,71c8.9,21.3,22,40.6,38.5,56.9
	c16.6,16.1,36.1,28.9,57.5,37.7c22.8,9.3,47.2,13.9,71.7,13.6c24.6,0.4,49-4.2,71.8-13.3c21.4-8.8,41-21.6,57.5-37.7
	c16.4-16.2,29.5-35.5,38.4-56.9c9.4-22.5,14.1-46.6,13.9-71C372.9,166.4,368.2,142.2,358.8,119.6z M311.1,228.7
	c-0.7,15-4.4,31-10.3,45.2c-5.8,14-14.3,26.7-25.1,37.7h0.4c-10.8,11-23.6,18.6-37.7,24.3c-14.9,6.1-30.9,8.9-47,8.8
	c-16.1,0.2-32.1-3-47-9.1c-14.1-5.7-26.9-14.1-37.7-24.7c-10.8-10.6-19.4-23.3-25.2-37.3c-5.9-14.2-12.5-39.8-14.6-55.2L64.7,198
	 M64.7,198c0-72.8,47.2-133,108.3-141.9c5.2-0.8,10.4-1.2,15.8-1.2c5.3,0,10.6,0.4,15.8,1.1c42.9,6.3,79,37.9,96.6,81.4
	c0.2,0.5,0.4,1,0.6,1.6c0.4,1.1,0.8,2.1,1.2,3.2c1,2.7,1.9,5.4,2.7,8.1c0.7,2.2,1.3,4.4,1.9,6.7c0.2,0.6,0.3,1.1,0.4,1.7
	c0.3,1.1,0.5,2.3,0.8,3.4c0.1,0.6,0.3,1.1,0.4,1.7c0.2,1.2,0.5,2.3,0.7,3.5c1.9,9.8,3,20.1,2.8,30.6c0,0.6,0,1.2,0,1.8
	c-0.1,6.5-0.4,13-0.8,19.4v0l-0.8,9.6 M65.3,207.9 M263.5,84.7C263.5,84.7,263.5,84.7,263.5,84.7c0.5,0.4,1,0.8,1.5,1.2
	C264.5,85.5,264,85.1,263.5,84.7C263.5,84.7,263.5,84.7,263.5,84.7z"/>
</svg>
