<?xml version="1.0" encoding="utf-8"?>
<!-- Generator: Adobe Illustrator 19.0.0, SVG Export Plug-In . SVG Version: 6.00 Build 0)  -->
<svg version="1.1" id="Layer_1" xmlns="http://www.w3.org/2000/svg" xmlns:xlink="http://www.w3.org/1999/xlink" x="0px" y="0px"
	 viewBox="-261 122.3333 436 316.6667" enable-background="new -261 122.3333 436 316.6667" xml:space="preserve">
<g id="XMLID_11320_">
	<g id="XMLID_11326_">
		<path id="XMLID_10686_" d="M70.5213,287.6319c-0.3226-5.3335-7.9038-109.0399-55.5069-140.5367
			c-9.0594-5.9945-34.9038,4.5578-60.7489,4.5578c-25.8447,0-51.6891-10.5523-60.7486-4.5578
			c-47.6031,31.4968-54.4848,135.2032-54.8076,140.5367c-57.6143,21.2042-80.2073,16.4704-73.1868,38.5959
			c9.451,29.7854,73.2072,52.2009,188.0617,52.2009c116.9232,0,180.6123-22.4156,190.0635-52.2009
			C150.6681,304.1023,128.136,308.8361,70.5213,287.6319z"/>
	</g>
	<g id="XMLID_11322_">
		<path id="XMLID_10684_" fill="#424242" d="M70.4751,287.4129c-0.16-2.4603-1.1397-15.2838-4.0922-32.4664
			c-28.4929,6.8969-69.1626,11.2719-111.55,11.2719c-42.2794,0-83.4714-4.3529-112.245-11.2195
			c-2.8014,16.9074-3.7161,29.587-3.8905,32.3038c32.2892,7.2262,73.1146,11.1771,116.1355,11.1771
			C-2.3658,298.4798,38.2643,294.5691,70.4751,287.4129z"/>
	</g>
</g>
</svg>
