<?xml version="1.0" encoding="utf-8"?>
<!-- Generator: Adobe Illustrator 19.0.0, SVG Export Plug-In . SVG Version: 6.00 Build 0)  -->
<svg version="1.1" id="Layer_1" xmlns="http://www.w3.org/2000/svg" xmlns:xlink="http://www.w3.org/1999/xlink" x="0px" y="0px"
	 viewBox="-118 96 492 377" style="enable-background:new -118 96 492 377;" xml:space="preserve">
<style type="text/css">
	.st0{fill-rule:evenodd;clip-rule:evenodd;}
	.st1{fill-rule:evenodd;clip-rule:evenodd;fill:#8E1921;}
	.st2{fill-rule:evenodd;clip-rule:evenodd;fill:#1A1A1A;}
</style>
<g id="XMLID_11524_">
	<g id="XMLID_11539_">
		<path id="XMLID_10778_" class="st0" d="M252.9,270.1c0,0-25.6,29.7-28.4,30.4c0,0,0-0.1-0.1-0.2c-0.1-0.7-0.3-1.4-0.5-2l-46.7-143
			C165,127.4-48.9,221.2-36.7,249l74.2,131c0.3,0.6,0.7,1.2,1.1,1.8c0,0.1,0,0.2,0,0.2c-2.4,1.5-41.6,0.2-41.6,0.2
			c-36-2.6-10.6,16.8-10.6,16.8c5.3,3.8,16.8,10,29.2,12.6c25.2,5.7,77-2,134.8-27.4c57.8-25.3,101-60.1,111.5-80.6
			c6.4-10.9,9.7-23.5,10.5-30C272.5,273.7,275.4,241.8,252.9,270.1z"/>
	</g>
	<g id="XMLID_11535_">
		<path id="XMLID_10776_" class="st1" d="M128.7,332.6c-38.9,17.1-76.6,22.8-103.8,25.2l17.5,31.7c26.8-2.8,63-8.5,100.4-24.8
			c36.7-16.1,66-39.3,86.3-56.9l-11.9-34C196.9,291.9,166.9,315.9,128.7,332.6z"/>
	</g>
	<g id="XMLID_11531_">
		<path id="XMLID_10774_" class="st2" d="M177.6,155.5l-0.1-0.4c-6.1-13.9-62.5,2.5-115.9,25.9c-2.7,1.2-5.4,2.4-8.1,3.6
			c-0.2,0.1-0.3,0.1-0.5,0.2c-0.6,0.3-1.2,0.6-1.8,0.8c-49,22.5-92.4,49.6-87.7,62.8c11.1,5.6,59.3-7.4,114.1-31.4
			C130.8,193.7,172.3,167.9,177.6,155.5z"/>
	</g>
	<g id="XMLID_11527_">
		<path id="XMLID_10772_" class="st2" d="M259,271.4c-3.4,8.2-5.3,13.6-19.3,33.4c-21.1,30-52.7,53.2-91.1,70
			c-0.4,0.2-3.5,1.5-3.9,1.7c-38.4,16.8-76.8,24.3-113.2,19.5c-24-3.2-29.3-5.5-37.7-8.5c-29-10.5-13.9,9-6.3,13.9
			c5.6,3.6,14,8.2,26.4,10.9c22.2,6.1,77-2,134.8-27.4c0.5-0.2,2.7-1.2,3.2-1.4c57.8-25.3,101-60.1,111.5-80.6
			c6.4-10.9,8.7-20.3,9.9-26.9C275,267.3,270.9,243,259,271.4z"/>
	</g>
</g>
</svg>
