<?xml version="1.0" encoding="utf-8"?>
<!-- Generator: Adobe Illustrator 19.0.0, SVG Export Plug-In . SVG Version: 6.00 Build 0)  -->
<svg version="1.1" id="Layer_1" xmlns="http://www.w3.org/2000/svg" xmlns:xlink="http://www.w3.org/1999/xlink" x="0px" y="0px"
	 viewBox="231 58 451 323" style="enable-background:new 231 58 451 323;" xml:space="preserve">
<style type="text/css">
	.st0{fill:#F9EBD9;}
	.st1{fill:#EF7B05;}
	.st2{fill:#B2151B;}
</style>
<g id="XMLID_11738_">
	<path id="XMLID_11944_" class="st0" d="M318.1,284.1c0,0,0,39.2,7.7,54.5c7.7,15.3,84.3-23,130.3-23c46,0,107.3,38.3,115,23
		c7.7-15.3,7.7-54.5,7.7-54.5l-122.7-52.8L318.1,284.1z"/>
	<path id="XMLID_11882_" class="st1" d="M325.4,293.9c-0.1-2.2-0.2-4.2-0.2-6c0-0.5-0.4-0.8-0.9-0.8c-0.5,0-0.8,0.4-0.8,0.9
		c0.1,1.8,0.1,3.8,0.2,6c0,0.5,0.4,0.8,0.9,0.8C325.1,294.8,325.4,294.4,325.4,293.9z M326.2,305.8c-0.2-2-0.3-4-0.5-5.9
		c0-0.5-0.4-0.8-0.9-0.8c-0.5,0-0.8,0.4-0.8,0.9c0.1,1.9,0.3,3.9,0.5,6c0,0.5,0.5,0.8,0.9,0.8C325.9,306.7,326.2,306.3,326.2,305.8z
		 M327.5,317.6c-0.3-1.9-0.5-3.9-0.7-5.9c-0.1-0.5-0.5-0.8-0.9-0.8c-0.5,0-0.8,0.5-0.8,0.9c0.2,2,0.5,4,0.7,5.9
		c0.1,0.5,0.5,0.8,1,0.7C327.3,318.5,327.6,318.1,327.5,317.6z M329.8,329.2c-0.5-1.8-0.9-3.7-1.3-5.8c-0.1-0.5-0.5-0.8-1-0.7
		c-0.5,0.1-0.8,0.5-0.7,1c0.4,2.1,0.8,4.1,1.3,5.9c0.1,0.5,0.6,0.7,1,0.6C329.6,330.1,329.9,329.7,329.8,329.2z M336.4,335.2
		c-0.5,0-1,0-1.5,0h0c-2.3,0-3.2-0.3-3.4-0.4l-0.3,0.8l0.8-0.4c-0.1-0.2-0.2-0.3-0.2-0.5c-0.2-0.4-0.7-0.6-1.1-0.4
		c-0.4,0.2-0.6,0.7-0.4,1.1c0.1,0.2,0.2,0.4,0.2,0.5c0.1,0.2,0.2,0.3,0.4,0.4c0.5,0.2,1.7,0.6,4.1,0.6h0c0.5,0,1.1,0,1.6,0
		c0.5,0,0.8-0.4,0.8-0.9C337.3,335.5,336.9,335.2,336.4,335.2L336.4,335.2z M348,333.4c-2.1,0.5-4,0.8-5.8,1.1
		c-0.5,0.1-0.8,0.5-0.7,1c0.1,0.5,0.5,0.8,1,0.7c1.8-0.3,3.8-0.7,5.9-1.2c0.5-0.1,0.8-0.6,0.6-1C349,333.6,348.5,333.3,348,333.4z
		 M359.6,330.5c-2,0.5-3.9,1.1-5.8,1.5c-0.5,0.1-0.7,0.6-0.6,1c0.1,0.5,0.6,0.7,1,0.6c1.9-0.5,3.8-1,5.8-1.5c0.5-0.1,0.7-0.6,0.6-1
		C360.5,330.6,360,330.4,359.6,330.5z M371,327.2c-1.9,0.6-3.8,1.1-5.7,1.7c-0.5,0.1-0.7,0.6-0.6,1.1c0.1,0.5,0.6,0.7,1.1,0.6
		c1.9-0.5,3.8-1.1,5.7-1.7c0.5-0.1,0.7-0.6,0.6-1.1C372,327.3,371.5,327.1,371,327.2z M382.5,323.8c-1,0.3-2,0.6-3,0.9
		c-0.9,0.3-1.8,0.5-2.8,0.8c-0.5,0.1-0.7,0.6-0.6,1.1c0.1,0.5,0.6,0.7,1.1,0.6c0.9-0.3,1.8-0.5,2.8-0.8c1-0.3,2-0.6,3-0.9
		c0.5-0.1,0.7-0.6,0.6-1.1C383.4,323.9,382.9,323.7,382.5,323.8z M393.9,320.5c-1.9,0.6-3.8,1.1-5.7,1.7c-0.5,0.1-0.7,0.6-0.6,1.1
		c0.1,0.5,0.6,0.7,1.1,0.6c1.9-0.6,3.8-1.1,5.7-1.7c0.4-0.1,0.7-0.6,0.6-1.1C394.8,320.6,394.4,320.3,393.9,320.5z M405.4,317.2
		c-1.9,0.5-3.8,1-5.8,1.6c-0.5,0.1-0.7,0.6-0.6,1.1c0.1,0.5,0.6,0.7,1.1,0.6c1.9-0.5,3.8-1.1,5.7-1.6c0.5-0.1,0.7-0.6,0.6-1
		C406.3,317.4,405.9,317.1,405.4,317.2z M417,314.3c-1.9,0.5-3.9,0.9-5.8,1.4c-0.5,0.1-0.7,0.6-0.6,1c0.1,0.5,0.6,0.7,1,0.6
		c1.9-0.5,3.9-1,5.8-1.4c0.5-0.1,0.7-0.6,0.6-1C417.9,314.4,417.5,314.2,417,314.3z M428.7,311.7c-1.9,0.4-3.9,0.8-5.9,1.2
		c-0.5,0.1-0.8,0.6-0.6,1c0.1,0.5,0.6,0.8,1,0.6c2-0.4,3.9-0.8,5.8-1.2c0.5-0.1,0.8-0.5,0.7-1C429.6,311.9,429.2,311.6,428.7,311.7z
		 M440.5,309.7c-2,0.3-3.9,0.6-5.9,0.9c-0.5,0.1-0.8,0.5-0.7,1c0.1,0.5,0.5,0.8,1,0.7c2-0.3,3.9-0.6,5.9-0.9c0.5-0.1,0.8-0.5,0.7-1
		C441.4,310,441,309.7,440.5,309.7z M452.5,308.7c-2,0.1-4,0.2-6,0.4c-0.5,0-0.8,0.5-0.8,0.9c0,0.5,0.5,0.8,0.9,0.8
		c2-0.2,4-0.3,5.9-0.4c0.5,0,0.8-0.4,0.8-0.9C453.3,309,452.9,308.7,452.5,308.7z M464.5,309c-2-0.2-4-0.3-6-0.3
		c-0.5,0-0.9,0.4-0.9,0.8c0,0.5,0.4,0.9,0.8,0.9c1.9,0,3.9,0.2,5.9,0.3c0.5,0,0.9-0.3,0.9-0.8C465.3,309.4,465,309,464.5,309z
		 M476.4,310.6c-2-0.3-4-0.7-5.9-0.9c-0.5-0.1-0.9,0.3-1,0.7c-0.1,0.5,0.3,0.9,0.7,1c1.9,0.3,3.9,0.6,5.9,0.9c0.5,0.1,0.9-0.2,1-0.7
		C477.2,311.1,476.9,310.7,476.4,310.6z M488.1,313.1c-1.9-0.5-3.9-0.9-5.8-1.3c-0.5-0.1-0.9,0.2-1,0.7c-0.1,0.5,0.2,0.9,0.7,1
		c1.9,0.4,3.9,0.9,5.8,1.3c0.5,0.1,0.9-0.2,1-0.6C488.9,313.6,488.6,313.2,488.1,313.1z M499.7,316.2c-1.9-0.6-3.8-1.1-5.8-1.6
		c-0.5-0.1-0.9,0.1-1,0.6c-0.1,0.5,0.1,0.9,0.6,1c1.9,0.5,3.8,1.1,5.7,1.6c0.5,0.1,0.9-0.1,1.1-0.6
		C500.4,316.8,500.1,316.3,499.7,316.2z M511.1,319.7c-1.9-0.6-3.8-1.2-5.7-1.8c-0.4-0.1-0.9,0.1-1.1,0.6c-0.1,0.4,0.1,0.9,0.6,1.1
		c1.9,0.6,3.8,1.2,5.7,1.8c0.4,0.1,0.9-0.1,1.1-0.5C511.8,320.3,511.5,319.9,511.1,319.7z M522.4,323.5c-1.9-0.6-3.7-1.3-5.7-1.9
		c-0.4-0.2-0.9,0.1-1.1,0.5c-0.2,0.4,0.1,0.9,0.5,1.1c1.9,0.6,3.8,1.3,5.6,1.9c0.4,0.2,0.9-0.1,1.1-0.5
		C523.1,324.2,522.8,323.7,522.4,323.5z M533.7,327.4c-1.8-0.6-3.5-1.2-5.3-1.9l-0.3-0.1c-0.4-0.2-0.9,0.1-1.1,0.5
		c-0.2,0.4,0.1,0.9,0.5,1.1l0.3,0.1c1.8,0.6,3.6,1.2,5.3,1.9c0.4,0.2,0.9-0.1,1.1-0.5C534.4,328.1,534.1,327.6,533.7,327.4z
		 M545,331.2c-1.8-0.6-3.7-1.2-5.7-1.8c-0.4-0.2-0.9,0.1-1.1,0.5c-0.1,0.4,0.1,0.9,0.5,1.1c1.9,0.7,3.8,1.3,5.7,1.9
		c0.5,0.1,0.9-0.1,1.1-0.6C545.7,331.8,545.4,331.4,545,331.2z M556.4,334.4c-1.8-0.4-3.7-0.9-5.7-1.4c-0.5-0.1-0.9,0.1-1.1,0.6
		c-0.1,0.5,0.1,0.9,0.6,1.1c2.1,0.6,4,1.1,5.8,1.5c0.5,0.1,0.9-0.2,1-0.7S556.9,334.5,556.4,334.4z M565.8,333.3
		c-0.3,0.8-0.6,1.5-0.9,2.1l0.8,0.4l-0.3-0.8c-0.1,0-0.7,0.3-2.2,0.3c-0.3,0-0.6,0-1,0c-0.5,0-0.9,0.3-0.9,0.8
		c0,0.5,0.3,0.9,0.8,0.9c0.4,0,0.7,0,1.1,0c1.7,0,2.5-0.3,2.9-0.4c0.2-0.1,0.3-0.2,0.4-0.4c0.3-0.7,0.7-1.4,1-2.2
		c0.2-0.4-0.1-0.9-0.5-1.1C566.5,332.6,566,332.9,565.8,333.3z M568.7,321.9c-0.4,2-0.8,4-1.2,5.8c-0.1,0.5,0.2,0.9,0.6,1
		c0.5,0.1,0.9-0.2,1-0.6c0.4-1.8,0.8-3.8,1.2-5.9c0.1-0.5-0.2-0.9-0.7-1C569.2,321.1,568.8,321.4,568.7,321.9z M570.3,310.1
		c-0.2,2-0.4,4-0.7,5.9c-0.1,0.5,0.3,0.9,0.7,1c0.5,0.1,0.9-0.3,1-0.7c0.3-2,0.5-4,0.7-6c0-0.5-0.3-0.9-0.8-0.9
		C570.7,309.3,570.3,309.6,570.3,310.1z M571.2,298.3c-0.1,1.9-0.3,3.9-0.4,5.9c0,0.5,0.3,0.9,0.8,0.9c0.5,0,0.9-0.3,0.9-0.8
		c0.2-2,0.3-4,0.4-6c0-0.5-0.3-0.9-0.8-0.9C571.7,297.4,571.3,297.8,571.2,298.3z M571.7,286.4c0,1.7-0.1,3.7-0.2,5.9
		c0,0.5,0.3,0.9,0.8,0.9c0.5,0,0.9-0.3,0.9-0.8c0.1-2.2,0.2-4.2,0.2-6c0-0.5-0.4-0.9-0.8-0.9C572.1,285.5,571.8,285.9,571.7,286.4z"
		/>
	<path id="XMLID_11821_" class="st1" d="M329.9,292.1c-0.1-2.1-0.2-4.1-0.3-6c0-0.5-0.4-0.8-0.9-0.8c-0.5,0-0.8,0.4-0.8,0.9
		c0.1,1.9,0.2,3.9,0.3,6c0,0.5,0.4,0.8,0.9,0.8C329.6,292.9,329.9,292.5,329.9,292.1z M330.7,303.9c-0.2-2-0.3-4-0.4-5.9
		c0-0.5-0.4-0.8-0.9-0.8c-0.5,0-0.8,0.4-0.8,0.9c0.1,2,0.3,4,0.4,6c0,0.5,0.4,0.8,0.9,0.8C330.4,304.8,330.7,304.4,330.7,303.9z
		 M331.9,315.8c-0.2-1.9-0.4-3.9-0.6-5.9c0-0.5-0.5-0.8-0.9-0.8c-0.5,0-0.8,0.5-0.8,0.9c0.2,2,0.4,4,0.7,6c0.1,0.5,0.5,0.8,0.9,0.7
		C331.6,316.7,331.9,316.3,331.9,315.8z M333.8,327.5c-0.4-1.7-0.8-3.7-1.1-5.8c-0.1-0.5-0.5-0.8-1-0.7c-0.5,0.1-0.8,0.5-0.7,1
		c0.3,2.2,0.7,4.2,1.1,5.9c0.1,0.5,0.6,0.7,1,0.6C333.6,328.4,333.9,327.9,333.8,327.5z M341.6,330.3c-2.2,0.4-4.2,0.6-5.8,0.7
		c-0.5,0-0.8,0.4-0.8,0.9c0,0.5,0.4,0.8,0.9,0.8c1.8-0.1,3.8-0.3,6-0.7c0.5-0.1,0.8-0.5,0.7-1C342.5,330.5,342.1,330.2,341.6,330.3z
		 M353.2,327.7c-2,0.5-3.9,1-5.8,1.4c-0.5,0.1-0.7,0.6-0.6,1c0.1,0.5,0.6,0.7,1,0.6c1.9-0.4,3.8-0.9,5.8-1.4c0.5-0.1,0.7-0.6,0.6-1
		C354.1,327.9,353.6,327.6,353.2,327.7z M364.7,324.6c-2,0.6-3.9,1.1-5.7,1.6c-0.5,0.1-0.7,0.6-0.6,1c0.1,0.5,0.6,0.7,1,0.6
		c1.9-0.5,3.8-1.1,5.8-1.6c0.5-0.1,0.7-0.6,0.6-1.1C365.6,324.7,365.1,324.5,364.7,324.6z M376.1,321.2c-1.9,0.6-3.8,1.1-5.7,1.7
		c-0.5,0.1-0.7,0.6-0.6,1.1c0.1,0.5,0.6,0.7,1.1,0.6c1.9-0.6,3.8-1.1,5.7-1.7c0.5-0.1,0.7-0.6,0.6-1.1
		C377,321.4,376.6,321.1,376.1,321.2z M387.6,317.8c-1.9,0.6-3.8,1.1-5.7,1.7c-0.5,0.1-0.7,0.6-0.6,1.1c0.1,0.5,0.6,0.7,1.1,0.6
		c1.9-0.6,3.8-1.1,5.7-1.7c0.5-0.1,0.7-0.6,0.6-1.1C388.5,318,388,317.7,387.6,317.8z M399,314.5c-1.9,0.5-3.8,1.1-5.7,1.6
		c-0.5,0.1-0.7,0.6-0.6,1.1c0.1,0.5,0.6,0.7,1.1,0.6c1.9-0.5,3.8-1.1,5.7-1.6c0.5-0.1,0.7-0.6,0.6-1.1
		C400,314.7,399.5,314.4,399,314.5z M410.6,311.4c-1.9,0.5-3.9,1-5.8,1.5c-0.5,0.1-0.7,0.6-0.6,1c0.1,0.5,0.6,0.7,1,0.6
		c1.9-0.5,3.8-1,5.8-1.5c0.5-0.1,0.7-0.6,0.6-1C411.5,311.6,411,311.3,410.6,311.4z M422.2,308.7c-1.9,0.4-3.9,0.9-5.8,1.3
		c-0.5,0.1-0.7,0.6-0.6,1c0.1,0.5,0.6,0.7,1,0.6c1.9-0.5,3.9-0.9,5.8-1.3c0.5-0.1,0.8-0.6,0.7-1S422.7,308.6,422.2,308.7z
		 M434,306.4c-1.9,0.3-3.9,0.7-5.9,1.1c-0.5,0.1-0.8,0.5-0.7,1c0.1,0.5,0.5,0.8,1,0.7c2-0.4,3.9-0.7,5.8-1.1c0.5-0.1,0.8-0.5,0.7-1
		C434.9,306.6,434.4,306.3,434,306.4z M445.8,304.8c-2,0.2-3.9,0.4-6,0.7c-0.5,0.1-0.8,0.5-0.7,1c0.1,0.5,0.5,0.8,1,0.7
		c2-0.3,4-0.5,5.9-0.7c0.5,0,0.8-0.5,0.8-0.9C446.7,305.1,446.3,304.8,445.8,304.8z M457.8,304.3c-0.6,0-1.2,0-1.7,0
		c-1.4,0-2.8,0-4.3,0.1c-0.5,0-0.8,0.4-0.8,0.9c0,0.5,0.4,0.8,0.9,0.8c1.4-0.1,2.8-0.1,4.2-0.1c0.6,0,1.1,0,1.7,0
		c0.5,0,0.9-0.4,0.9-0.8C458.7,304.7,458.3,304.4,457.8,304.3z M469.8,305.2c-2-0.3-4-0.5-6-0.6c-0.5,0-0.9,0.3-0.9,0.8
		c0,0.5,0.3,0.9,0.8,0.9c1.9,0.1,3.9,0.3,5.9,0.6c0.5,0.1,0.9-0.3,1-0.7C470.6,305.7,470.3,305.3,469.8,305.2z M481.7,307.2
		c-2-0.4-3.9-0.8-5.9-1.1c-0.5-0.1-0.9,0.2-1,0.7c-0.1,0.5,0.2,0.9,0.7,1c1.9,0.3,3.9,0.7,5.8,1.1c0.5,0.1,0.9-0.2,1-0.7
		C482.4,307.7,482.1,307.3,481.7,307.2z M493.3,309.9c-1.9-0.5-3.9-1-5.8-1.4c-0.5-0.1-0.9,0.2-1,0.6c-0.1,0.5,0.2,0.9,0.6,1
		c1.9,0.5,3.9,0.9,5.8,1.4c0.5,0.1,0.9-0.2,1-0.6C494,310.5,493.8,310.1,493.3,309.9z M504.8,313.2c-1.9-0.6-3.8-1.1-5.7-1.7
		c-0.5-0.1-0.9,0.1-1.1,0.6c-0.1,0.5,0.1,0.9,0.6,1.1c1.9,0.5,3.8,1.1,5.7,1.7c0.5,0.1,0.9-0.1,1.1-0.6
		C505.5,313.8,505.3,313.4,504.8,313.2z M516.2,316.9c-1.9-0.6-3.8-1.2-5.7-1.9c-0.4-0.1-0.9,0.1-1.1,0.5c-0.1,0.5,0.1,0.9,0.5,1.1
		c1.9,0.6,3.8,1.2,5.7,1.9c0.4,0.1,0.9-0.1,1.1-0.5C516.9,317.5,516.6,317,516.2,316.9z M527.5,320.8c-1.8-0.6-3.7-1.3-5.6-2
		c-0.4-0.2-0.9,0.1-1.1,0.5c-0.2,0.4,0.1,0.9,0.5,1.1c1.9,0.7,3.8,1.3,5.6,1.9c0.4,0.2,0.9-0.1,1.1-0.5
		C528.2,321.4,527.9,320.9,527.5,320.8z M538.8,324.6c-1.9-0.6-3.7-1.3-5.6-1.9c-0.4-0.2-0.9,0.1-1.1,0.5c-0.2,0.4,0.1,0.9,0.5,1.1
		c1.9,0.7,3.8,1.3,5.6,1.9c0.4,0.2,0.9-0.1,1.1-0.5C539.5,325.3,539.2,324.8,538.8,324.6z M550.1,328.3c-1.8-0.5-3.7-1.1-5.7-1.8
		c-0.4-0.1-0.9,0.1-1.1,0.5c-0.1,0.4,0.1,0.9,0.5,1.1c2,0.6,3.9,1.2,5.7,1.8c0.5,0.1,0.9-0.1,1.1-0.6
		C550.8,328.9,550.5,328.4,550.1,328.3z M561.6,330.9c-1.6-0.2-3.6-0.5-5.8-1c-0.5-0.1-0.9,0.2-1,0.6c-0.1,0.5,0.2,0.9,0.6,1
		c2.2,0.5,4.3,0.9,6,1.1c0.5,0,0.9-0.3,0.9-0.8C562.4,331.3,562,330.9,561.6,330.9z M564.3,321.3c-0.3,2.1-0.7,4.1-1.1,5.8
		c-0.1,0.5,0.2,0.9,0.6,1c0.5,0.1,0.9-0.2,1-0.6c0.4-1.8,0.8-3.8,1.1-5.9c0.1-0.5-0.2-0.9-0.7-1
		C564.8,320.5,564.4,320.8,564.3,321.3z M565.8,309.5c-0.2,2-0.4,4-0.7,5.9c-0.1,0.5,0.3,0.9,0.7,1c0.5,0.1,0.9-0.3,1-0.7
		c0.2-1.9,0.5-3.9,0.7-6c0-0.5-0.3-0.9-0.8-0.9C566.3,308.7,565.9,309,565.8,309.5z M566.8,297.6c-0.1,1.9-0.3,3.9-0.4,5.9
		c0,0.5,0.3,0.9,0.8,0.9c0.5,0,0.9-0.3,0.9-0.8c0.2-2,0.3-4,0.4-6c0-0.5-0.3-0.9-0.8-0.9C567.2,296.8,566.8,297.1,566.8,297.6z
		 M567.4,285.7c-0.1,1.8-0.1,3.8-0.3,6c0,0.5,0.3,0.9,0.8,0.9c0.5,0,0.9-0.3,0.9-0.8c0.1-2.1,0.2-4.1,0.3-6c0-0.5-0.4-0.9-0.8-0.9
		C567.8,284.9,567.4,285.2,567.4,285.7z"/>
	<path id="XMLID_11819_" class="st0" d="M316.4,283.2c-7.2-6.8,9.4-105.6,32.4-128.6c23-23,66.4-30.7,99.7-30.7
		c33.2,0,76.7,7.7,99.7,30.7c23,23,40.9,121,32.4,128.6c-8.5,7.7-70.7-21.3-132.1-21.3C387.1,261.9,323.6,290.1,316.4,283.2z"/>
	<path id="XMLID_11817_" class="st1" d="M578.3,282c-16.3-5-77.3-22.7-129.9-22.7c-52.5,0-113.5,17.7-129.9,22.7
		c-0.7,0.2-1.1,0.9-0.8,1.6c0.2,0.7,0.9,1.1,1.6,0.8c16.2-5,77.1-22.6,129.1-22.6c52,0,112.9,17.6,129.1,22.6
		c0.7,0.2,1.4-0.2,1.6-0.8C579.3,282.9,579,282.2,578.3,282z"/>
	<ellipse id="XMLID_11815_" class="st1" cx="448.4" cy="123.5" rx="8.9" ry="4.3"/>
	<path id="XMLID_11813_" class="st2" d="M339.9,273.9c0.1-0.6,0.2-1.6,0.4-2.9c0.1-0.5-0.3-0.9-0.7-1c-0.5-0.1-0.9,0.3-1,0.7
		c-0.2,1.3-0.3,2.3-0.4,3c-0.1,0.5,0.3,0.9,0.7,0.9C339.4,274.7,339.8,274.4,339.9,273.9z"/>
	<path id="XMLID_11780_" class="st1" d="M420.2,132.5c1.9-0.9,3.7-1.8,5.3-2.5c0.4-0.2,0.6-0.7,0.4-1.1c-0.2-0.4-0.7-0.6-1.1-0.4
		c-1.6,0.7-3.4,1.6-5.3,2.6c-0.4,0.2-0.6,0.7-0.4,1.1C419.2,132.5,419.8,132.7,420.2,132.5z M409.7,137.9c1.8-1,3.5-1.9,5.2-2.7
		c0.4-0.2,0.6-0.7,0.4-1.1c-0.2-0.4-0.7-0.6-1.1-0.4c-1.7,0.9-3.4,1.8-5.2,2.8c-0.4,0.2-0.6,0.7-0.3,1.2
		C408.8,138,409.3,138.1,409.7,137.9z M399.5,143.7c1.7-1,3.4-2,5.1-3c0.4-0.2,0.6-0.8,0.3-1.2c-0.2-0.4-0.8-0.6-1.2-0.3
		c-1.7,1-3.4,2-5.1,3c-0.4,0.2-0.5,0.8-0.3,1.2C398.6,143.8,399.1,143.9,399.5,143.7z M389.6,150c1.6-1.1,3.3-2.2,4.9-3.2
		c0.4-0.3,0.5-0.8,0.3-1.2c-0.3-0.4-0.8-0.5-1.2-0.3c-1.7,1.1-3.3,2.2-5,3.3c-0.4,0.3-0.5,0.8-0.2,1.2
		C388.6,150.2,389.2,150.3,389.6,150z M380.2,157c1.5-1.2,3-2.4,4.6-3.6c0.4-0.3,0.5-0.8,0.2-1.2c-0.3-0.4-0.8-0.5-1.2-0.2
		c-1.6,1.2-3.2,2.4-4.7,3.6c-0.4,0.3-0.4,0.8-0.1,1.2C379.3,157.2,379.8,157.3,380.2,157z M371.6,165c1.3-1.4,2.6-2.8,4.1-4.1
		c0.3-0.3,0.4-0.9,0-1.2c-0.3-0.3-0.9-0.4-1.2,0c-1.5,1.4-2.9,2.8-4.2,4.2c-0.3,0.3-0.3,0.9,0.1,1.2
		C370.8,165.3,371.3,165.3,371.6,165z M365,174.4c0.8-1.5,1.6-2.8,2.4-4c0.2-0.3,0.4-0.6,0.6-0.9c0.3-0.4,0.2-0.9-0.2-1.2
		c-0.4-0.3-0.9-0.2-1.2,0.2c-0.2,0.3-0.5,0.7-0.7,1c-0.8,1.3-1.7,2.6-2.5,4.1c-0.2,0.4-0.1,0.9,0.4,1.2
		C364.2,175,364.8,174.8,365,174.4z M360.2,185.1c0.7-1.9,1.5-3.7,2.2-5.4c0.2-0.4,0-0.9-0.4-1.1c-0.4-0.2-0.9,0-1.1,0.4
		c-0.8,1.7-1.5,3.6-2.3,5.5c-0.2,0.4,0.1,0.9,0.5,1.1C359.6,185.7,360.1,185.5,360.2,185.1z M356.4,196.2c0.6-1.9,1.2-3.8,1.8-5.6
		c0.2-0.4-0.1-0.9-0.5-1.1c-0.4-0.2-0.9,0.1-1.1,0.5c-0.6,1.8-1.2,3.7-1.8,5.6c-0.1,0.4,0.1,0.9,0.6,1.1
		C355.8,196.9,356.3,196.6,356.4,196.2z M353.2,207.5c0.5-1.9,1-3.8,1.6-5.7c0.1-0.5-0.1-0.9-0.6-1.1c-0.5-0.1-0.9,0.1-1.1,0.6
		c-0.5,1.9-1.1,3.8-1.6,5.7c-0.1,0.5,0.1,0.9,0.6,1C352.6,208.2,353,208,353.2,207.5z M350.3,218.9c0.5-1.9,0.9-3.8,1.4-5.7
		c0.1-0.5-0.2-0.9-0.6-1c-0.5-0.1-0.9,0.2-1,0.6c-0.5,1.9-1,3.8-1.4,5.7c-0.1,0.5,0.2,0.9,0.6,1
		C349.7,219.7,350.2,219.4,350.3,218.9z M347.7,230.4c0.4-1.9,0.8-3.8,1.3-5.8c0.1-0.5-0.2-0.9-0.6-1c-0.5-0.1-0.9,0.2-1,0.6
		c-0.4,1.9-0.9,3.9-1.3,5.8c-0.1,0.5,0.2,0.9,0.7,1C347.1,231.2,347.6,230.9,347.7,230.4z M345.3,242c0.4-1.9,0.8-3.8,1.2-5.8
		c0.1-0.5-0.2-0.9-0.7-1c-0.5-0.1-0.9,0.2-1,0.7c-0.4,2-0.8,3.9-1.2,5.8c-0.1,0.5,0.2,0.9,0.7,1C344.8,242.7,345.2,242.4,345.3,242z
		 M343.1,253.6c0.3-1.9,0.7-3.8,1.1-5.8c0.1-0.5-0.2-0.9-0.7-1c-0.5-0.1-0.9,0.2-1,0.7c-0.4,2-0.7,4-1.1,5.8c-0.1,0.5,0.2,0.9,0.7,1
		C342.6,254.3,343.1,254,343.1,253.6z M341.2,265.2c0.3-1.7,0.6-3.7,1-5.8c0.1-0.5-0.2-0.9-0.7-1c-0.5-0.1-0.9,0.2-1,0.7
		c-0.4,2.1-0.7,4.1-1,5.8c-0.1,0.5,0.2,0.9,0.7,1C340.7,266,341.1,265.7,341.2,265.2z"/>
	<path id="XMLID_11778_" class="st1" d="M430.7,127.6c0.9-0.4,1.5-0.7,2-0.9c0.5-0.2,0.7-0.3,0.7-0.3c0.4-0.2,0.6-0.7,0.5-1.1
		c-0.2-0.4-0.7-0.6-1.1-0.5c0,0-1,0.4-2.7,1.2c-0.4,0.2-0.6,0.7-0.4,1.1C429.8,127.6,430.3,127.8,430.7,127.6z"/>
	<path id="XMLID_11776_" class="st2" d="M561.7,273.7c-0.1-0.7-0.2-1.7-0.4-3c-0.1-0.5-0.5-0.8-1-0.7c-0.5,0.1-0.8,0.5-0.7,1
		c0.2,1.3,0.3,2.3,0.4,2.9c0.1,0.5,0.5,0.8,0.9,0.7C561.5,274.6,561.8,274.2,561.7,273.7z"/>
	<path id="XMLID_11743_" class="st1" d="M480.5,131c-1.9-1-3.7-1.8-5.3-2.6c-0.4-0.2-0.9,0-1.1,0.4c-0.2,0.4,0,0.9,0.4,1.1
		c1.6,0.7,3.4,1.6,5.3,2.5c0.4,0.2,0.9,0,1.1-0.4C481.1,131.7,480.9,131.2,480.5,131z M491,136.4c-1.8-1-3.6-1.9-5.2-2.8
		c-0.4-0.2-0.9,0-1.1,0.4c-0.2,0.4,0,0.9,0.4,1.1c1.7,0.9,3.4,1.8,5.2,2.7c0.4,0.2,0.9,0.1,1.2-0.3
		C491.6,137.1,491.5,136.6,491,136.4z M501.3,142.2c-1.7-1-3.4-2-5.1-3c-0.4-0.2-0.9-0.1-1.2,0.3c-0.2,0.4-0.1,0.9,0.3,1.2
		c1.7,1,3.4,1.9,5.1,3c0.4,0.2,0.9,0.1,1.2-0.3C501.9,143,501.7,142.5,501.3,142.2z M511.3,148.6c-1.6-1.1-3.3-2.2-5-3.3
		c-0.4-0.3-0.9-0.1-1.2,0.3c-0.3,0.4-0.1,0.9,0.3,1.2c1.6,1.1,3.3,2.1,4.9,3.2c0.4,0.3,0.9,0.2,1.2-0.2
		C511.8,149.4,511.7,148.9,511.3,148.6z M520.9,155.7c-1.5-1.2-3.1-2.5-4.7-3.6c-0.4-0.3-0.9-0.2-1.2,0.2c-0.3,0.4-0.2,0.9,0.2,1.2
		c1.6,1.2,3.1,2.4,4.6,3.6c0.4,0.3,0.9,0.2,1.2-0.1C521.3,156.5,521.2,156,520.9,155.7z M529.6,163.8c-1.3-1.4-2.7-2.8-4.2-4.2
		c-0.3-0.3-0.9-0.3-1.2,0c-0.3,0.3-0.3,0.9,0,1.2c1.5,1.4,2.8,2.7,4.1,4.1c0.3,0.3,0.9,0.4,1.2,0.1
		C529.8,164.7,529.9,164.2,529.6,163.8z M536.5,173.6c-0.8-1.5-1.6-2.9-2.5-4.1c-0.2-0.3-0.4-0.7-0.7-1c-0.3-0.4-0.8-0.5-1.2-0.2
		c-0.4,0.3-0.5,0.8-0.2,1.2c0.2,0.3,0.4,0.6,0.6,0.9c0.8,1.2,1.6,2.5,2.4,4c0.2,0.4,0.7,0.6,1.2,0.4
		C536.5,174.5,536.7,174,536.5,173.6z M541.3,184.5c-0.7-1.9-1.5-3.8-2.3-5.5c-0.2-0.4-0.7-0.6-1.1-0.4c-0.4,0.2-0.6,0.7-0.4,1.1
		c0.8,1.7,1.5,3.5,2.2,5.4c0.2,0.4,0.7,0.7,1.1,0.5C541.3,185.4,541.5,184.9,541.3,184.5z M545.2,195.7c-0.6-1.9-1.2-3.8-1.8-5.6
		c-0.2-0.4-0.6-0.7-1.1-0.5c-0.4,0.2-0.7,0.6-0.5,1.1c0.6,1.8,1.2,3.7,1.8,5.6c0.1,0.4,0.6,0.7,1.1,0.6
		C545,196.6,545.3,196.1,545.2,195.7z M548.4,207.1c-0.5-1.9-1-3.8-1.6-5.7c-0.1-0.5-0.6-0.7-1.1-0.6c-0.5,0.1-0.7,0.6-0.6,1.1
		c0.5,1.9,1.1,3.8,1.6,5.7c0.1,0.5,0.6,0.7,1,0.6C548.3,208,548.6,207.5,548.4,207.1z M551.3,218.5c-0.5-1.9-0.9-3.8-1.4-5.7
		c-0.1-0.5-0.6-0.7-1-0.6c-0.5,0.1-0.7,0.6-0.6,1c0.5,1.9,0.9,3.8,1.4,5.7c0.1,0.5,0.6,0.7,1,0.6C551.2,219.5,551.4,219,551.3,218.5
		L551.3,218.5z M553.9,230.1c-0.4-1.9-0.8-3.8-1.3-5.8c-0.1-0.5-0.6-0.7-1-0.6c-0.5,0.1-0.7,0.6-0.6,1c0.4,1.9,0.9,3.8,1.3,5.8
		c0.1,0.5,0.5,0.8,1,0.7C553.7,231,554,230.5,553.9,230.1z M556.3,241.6c-0.4-1.9-0.8-3.8-1.2-5.8c-0.1-0.5-0.5-0.8-1-0.7
		c-0.5,0.1-0.8,0.5-0.7,1c0.4,2,0.8,3.9,1.2,5.8c0.1,0.5,0.5,0.8,1,0.7C556.1,242.6,556.4,242.1,556.3,241.6z M558.5,253.3
		c-0.3-1.9-0.7-3.8-1.1-5.8c-0.1-0.5-0.5-0.8-1-0.7c-0.5,0.1-0.8,0.5-0.7,1c0.4,2,0.7,3.9,1.1,5.8c0.1,0.5,0.5,0.8,1,0.7
		C558.3,254.2,558.6,253.7,558.5,253.3z M560.5,264.9c-0.3-1.8-0.6-3.7-1-5.8c-0.1-0.5-0.5-0.8-1-0.7c-0.5,0.1-0.8,0.5-0.7,1
		c0.4,2.1,0.7,4.1,1,5.8c0.1,0.5,0.5,0.8,1,0.7C560.2,265.8,560.5,265.4,560.5,264.9z"/>
	<path id="XMLID_11740_" class="st1" d="M469.9,126c-1.8-0.8-2.7-1.2-2.7-1.2c-0.4-0.2-0.9,0-1.1,0.5c-0.2,0.4,0,0.9,0.5,1.1
		c0,0,0.2,0.1,0.7,0.3c0.5,0.2,1.1,0.5,2,0.9c0.4,0.2,0.9,0,1.1-0.4C470.5,126.7,470.4,126.2,469.9,126z"/>
</g>
<image style="overflow:visible;" width="559" height="468" id="XMLID_10323_" xlink:href="20190612_210504_809_1x.png"  transform="matrix(0.2392 1.752829e-004 -1.752829e-004 0.2392 379.9468 148.1958)">
</image>
</svg>
