<?xml version="1.0" encoding="utf-8"?>
<!-- Generator: Adobe Illustrator 19.0.0, SVG Export Plug-In . SVG Version: 6.00 Build 0)  -->
<svg version="1.1" id="Layer_1" xmlns="http://www.w3.org/2000/svg" xmlns:xlink="http://www.w3.org/1999/xlink" x="0px" y="0px"
	 viewBox="0 0 416 348" enable-background="new 0 0 416 348" xml:space="preserve">
<g id="XMLID_12006_">
	<path id="XMLID_12019_" fill="#603913" d="M322.8594,241.5879c0,15.9292-49.5007,34.1823-110.5578,34.1823
		c-61.0627,0-110.5586-18.253-110.5586-34.1823s49.4959-28.8426,110.5586-28.8426
		C273.3588,212.7453,322.8594,225.6587,322.8594,241.5879z"/>
	<path id="XMLID_12017_" fill="#603913" d="M322.8594,164.6765c-19.23-19.2262-57.6838-105.748-76.9076-105.748
		c-19.23,0,9.6102,86.5218,9.6102,86.5218S313.2459,174.2921,322.8594,164.6765z"/>
	<path id="XMLID_12015_" fill="#603913" d="M92.1304,164.6765c19.2268-19.2262,57.6806-105.748,76.9098-105.748
		c19.2262,0-9.615,86.5218-9.615,86.5218S101.743,174.2921,92.1304,164.6765z"/>
	<path id="XMLID_12013_" fill="#754C24" d="M207.4918,241.5879c57.6838,0,115.3676-9.6142,115.3676-9.6142
		s3.049-15.248,3.9943-32.0013c0.7321-12.9939,0.2039-26.8966-3.9943-35.2959c-5.2949-10.5866-30.6939-22.3533-48.0674-48.0666
		c-14.1822-20.9847-20.203-57.6814-28.8402-57.6814c-19.23,0-28.8436,9.6126-38.46,9.6126c-9.6136,0-19.2254-9.6126-38.4516-9.6126
		c-8.6418,0-14.6603,36.6968-28.8418,57.6814c-17.378,25.7133-42.7749,37.48-48.068,48.0666
		c-4.1997,8.3993-4.731,22.302-3.9974,35.2959c0.9476,16.7533,3.9974,32.0013,3.9974,32.0013S149.811,241.5879,207.4918,241.5879z"
		/>
	<path id="XMLID_12010_" fill="#42210B" d="M326.8537,199.9724c-0.9453,16.7533-3.9943,32.0013-3.9943,32.0013
		s-57.6838,9.6142-115.3676,9.6142c-57.6808,0-115.3614-9.6142-115.3614-9.6142s-3.0499-15.248-3.9974-32.0013l-0.2765-0.0441
		c0,0,61.9546,9.6128,119.6354,9.6128c57.6838,0,119.6368-9.6128,119.6368-9.6128L326.8537,199.9724z"/>
	<path id="XMLID_12008_" fill="#754C24" d="M207.4918,270.4299c105.7541,0,153.8214-115.3654,173.0483-105.7534
		c19.227,9.6156,9.6134,48.0688-9.6103,67.2972c-19.2332,19.2284-86.5274,48.0688-163.438,48.0688
		c-76.9084,0-144.2034-28.8404-163.4303-48.0688c-19.227-19.2284-28.8404-57.6816-9.6136-67.2972
		C53.6758,155.0645,101.743,270.4299,207.4918,270.4299z"/>
</g>
</svg>
