<?xml version="1.0" encoding="utf-8"?>
<!-- Generator: Adobe Illustrator 19.0.0, SVG Export Plug-In . SVG Version: 6.00 Build 0)  -->
<svg version="1.1" id="Layer_1" xmlns="http://www.w3.org/2000/svg" xmlns:xlink="http://www.w3.org/1999/xlink" x="0px" y="0px"
	 viewBox="-118 96 492 323" style="enable-background:new -118 96 492 323;" xml:space="preserve">
<style type="text/css">
	.st0{fill:#F4B11C;}
	.st1{fill:#F4950C;}
	.st2{fill:#E74318;}
</style>
<g id="XMLID_11305_">
	<g id="XMLID_11316_">
		<path id="XMLID_10682_" class="st0" d="M325,337.2c-32.8-14.6-63.5-28.3-99-49.3c1-19,17-45.7,19.6-79.7
			c2.2-29.3-42.9-66.8-60-75.1c-16.6-9.2-71.5-23.9-94.3-5.3c-26.4,21.6-38.8,50.2-53.8,61.9c-37-16.8-68.7-34.8-99.4-53.3
			C-122.7,99.7-162.3,180,90.1,314.6l0,0c0.3,0.1,0.5,0.3,0.8,0.4c0.3,0.1,0.5,0.3,0.8,0.4l0,0C346.5,445.3,390,366.2,325,337.2z"/>
	</g>
	<g id="XMLID_11312_">
		<path id="XMLID_10680_" class="st1" d="M347.4,353.9c16.4,52.7-130.3-13.4-240-70.7C-33.8,209.4-136,137-88.1,127.5
			c-39.4-1.8-34.3,74.1,178.1,187.3l0,0c0.3,0.1,0.5,0.3,0.8,0.4c0.3,0.1,0.5,0.3,0.8,0.4l0,0C305.6,424.8,371.2,385.1,347.4,353.9z
			"/>
	</g>
	<g id="XMLID_11307_">
		<path id="XMLID_10678_" class="st2" d="M227.4,278.2c-26.6-6.8-64.7-18.7-98.2-36.2c-32.6-17-64.3-41.2-85.2-59
			c-10,10.6-14.1,16.3-20.7,23c23.6,19.6,57.6,44.2,92.2,62.2c35.1,18.3,74.6,32,104.4,40.1C222,299.6,225.2,288.4,227.4,278.2z"/>
	</g>
</g>
</svg>
