<?xml version="1.0" encoding="utf-8"?>
<!-- Generator: Adobe Illustrator 19.0.0, SVG Export Plug-In . SVG Version: 6.00 Build 0)  -->
<svg version="1.1" id="Layer_1" xmlns="http://www.w3.org/2000/svg" xmlns:xlink="http://www.w3.org/1999/xlink" x="0px" y="0px"
	 viewBox="226 90 428 283" style="enable-background:new 226 90 428 283;" xml:space="preserve">
<style type="text/css">
	.st0{fill:#4D4D4D;}
	.st1{fill:#666666;}
	.st2{fill:#231F20;}
</style>
<g id="XMLID_11996_">
	<polygon id="XMLID_12004_" class="st0" points="350.4,292.8 298.4,292.8 279,298.6 275.2,310.7 284.6,316.8 364,338.2 428.4,341.7 
		476.5,341.7 510.2,338.4 546.1,335.1 572.7,328.4 603.7,321.2 621.4,310.2 621.4,299.7 607.5,292.8 587.1,292.8 543.9,285.4 
		424.5,303.5 	"/>
	<path id="XMLID_12002_" class="st1" d="M329.9,287v10c0,0-49.8-3.3-49.8,6.6c0,10,89.6,34.3,169.2,34.3
		c79.6,0,169.2-24.3,169.2-34.3c0-10-49.8-6.6-49.8-6.6v-10c0,0,59.7-10,59.7,19.9c0,29.9-99.5,39.8-179.2,39.8
		c-79.6,0-179.2-10-179.2-39.8C270.2,277,329.9,287,329.9,287z"/>
	<path id="XMLID_12000_" class="st0" d="M320,306.9c3-13.8,5.8-26.5,8.6-38.1c25.2-105.1,43.1-122.2,61.1-131.1
		c19.9-10,29.9,10,59.7,10c29.9,0,39.8-19.9,59.7-10c17.9,9,35.9,26,61.1,131.1c2.8,11.6,5.6,24.2,8.6,38.1c0,0-39.8,10-129.4,10
		C359.8,316.8,320,306.9,320,306.9z"/>
	<path id="XMLID_11998_" class="st2" d="M570.2,268.8c2.8,11.6,5.6,24.2,8.6,38.1c0,0-39.8,10-129.4,10c-89.6,0-129.4-10-129.4-10
		c3-13.8,5.8-26.5,8.6-38.1l-0.2,0c15.9,2.8,54.9,8.3,121,8.3C515.3,277,554.2,271.6,570.2,268.8L570.2,268.8z"/>
</g>
</svg>
