<?xml version="1.0" encoding="utf-8"?>
<!-- Generator: Adobe Illustrator 19.0.0, SVG Export Plug-In . SVG Version: 6.00 Build 0)  -->
<svg version="1.1" id="Layer_1" xmlns="http://www.w3.org/2000/svg" xmlns:xlink="http://www.w3.org/1999/xlink" x="0px" y="0px"
	 viewBox="203 58 498 364" style="enable-background:new 203 58 498 364;" xml:space="preserve">
<style type="text/css">
	.st0{fill-rule:evenodd;clip-rule:evenodd;}
	.st1{fill:#1A1A1A;}
</style>
<g id="XMLID_11320_">
	<g id="XMLID_11326_">
		<path id="XMLID_10686_" class="st0" d="M565.6,265c-0.3-5.3-7.9-109-55.5-140.5c-9.1-6-34.9,4.6-60.7,4.6
			c-25.8,0-51.7-10.6-60.7-4.6C341,156,334.1,259.7,333.8,265c-57.6,21.2-80.2,16.5-73.2,38.6c9.5,29.8,73.2,52.2,188.1,52.2
			c116.9,0,180.6-22.4,190.1-52.2C645.7,281.5,623.2,286.2,565.6,265z"/>
	</g>
	<g id="XMLID_11322_">
		<path id="XMLID_10684_" class="st1" d="M565.5,264.8c-0.2-2.5-1.1-15.3-4.1-32.5c-28.5,6.9-69.2,11.3-111.5,11.3
			c-42.3,0-83.5-4.4-112.2-11.2c-2.8,16.9-3.7,29.6-3.9,32.3c32.3,7.2,73.1,11.2,116.1,11.2C492.7,275.8,533.3,271.9,565.5,264.8z"
			/>
	</g>
</g>
</svg>
