<?xml version="1.0" encoding="utf-8"?>
<!-- Generator: Adobe Illustrator 19.0.0, SVG Export Plug-In . SVG Version: 6.00 Build 0)  -->
<svg version="1.1" id="Layer_1" xmlns="http://www.w3.org/2000/svg" xmlns:xlink="http://www.w3.org/1999/xlink" x="0px" y="0px"
	 viewBox="-118 96 492 377" style="enable-background:new -118 96 492 377;" xml:space="preserve">
<style type="text/css">
	.st0{fill:#30461A;}
	.st1{fill:#729E3F;}
</style>
<g id="XMLID_10819_">
	<g id="XMLID_10863_">
		<path id="XMLID_10485_" class="st0" d="M257.2,273.1C257.2,273.1,257.2,273.1,257.2,273.1c2.4-28,5.3-57.7-7.8-83.6
			c-12.5-24.7-33.9-37.5-59.4-42.7c-14.5-3-138.5-3-152.9,0c-25.5,5.2-46.9,18-59.4,42.7c-13.1,26-10.2,55.6-7.8,83.6c0,0,0,0,0,0
			c2.2,91.3-100.1,96.1-43.1,114.4c14.6,4.7,99.9,15,186.8,15.4c86.9-0.4,172.2-10.7,186.8-15.4
			C357.3,369.3,254.9,364.4,257.2,273.1z"/>
	</g>
	<g id="XMLID_10844_">
		<g id="XMLID_10859_">
			<path id="XMLID_10483_" class="st1" d="M306.2,363.1c-1.6-1.3-3.3-2.7-5.1-4.1c-9.8,1.6-22.1,3-36.7,4.3
				c-38.6,3.3-92.4,5.1-151.6,5.1c-59.2,0-113-1.8-151.6-5.1c-13.9-1.2-25.6-2.5-35.1-4c-1.8,1.5-3.5,2.8-5.1,4.1
				c10.1,1.8,23.1,3.3,38.8,4.7c38.8,3.3,93.2,5.2,153.1,5.2s114.3-1.8,153.1-5.2C282.4,366.7,295.9,365,306.2,363.1z"/>
		</g>
		<g id="XMLID_10855_">
			<path id="XMLID_10481_" class="st1" d="M286.1,345.7c-1.4-1.4-2.8-2.9-4.2-4.5c-5.4,0.6-11.3,1.2-17.6,1.7
				c-38.6,3.3-92.4,5.1-151.6,5.1c-59.2,0-113-1.8-151.6-5.1c-5.6-0.5-10.9-1-15.8-1.5c-1.4,1.6-2.8,3.1-4.2,4.5
				c5.7,0.7,11.9,1.3,18.6,1.8c38.8,3.3,93.2,5.2,153.1,5.2s114.3-1.8,153.1-5.2C273.1,347.2,279.9,346.5,286.1,345.7z"/>
		</g>
		<g id="XMLID_10851_">
			<path id="XMLID_10479_" class="st1" d="M271.1,327c-0.9-1.5-1.8-3.1-2.7-4.7c-1.4,0.1-2.7,0.2-4.1,0.4
				c-38.6,3.3-92.4,5.1-151.6,5.1c-59.2,0-113-1.8-151.6-5.1c-0.8-0.1-1.5-0.1-2.3-0.2c-0.9,1.6-1.8,3.2-2.7,4.7
				c1.2,0.1,2.3,0.2,3.5,0.3c38.8,3.3,93.2,5.2,153.1,5.2s114.3-1.8,153.1-5.2C267.6,327.3,269.3,327.1,271.1,327z"/>
		</g>
		<g id="XMLID_10846_">
			<path id="XMLID_10470_" class="st1" d="M260.5,302.6c-38.3,3.1-90.6,4.8-147.9,4.8c-56.4,0-108-1.6-146.1-4.6
				c-0.4,1.6-0.9,3.3-1.4,4.8c38.3,3,90.4,4.7,147.5,4.7c58,0,110.9-1.7,149.4-4.9C261.4,305.9,261,304.3,260.5,302.6z"/>
		</g>
	</g>
	<g id="XMLID_10821_">
		<g id="XMLID_10834_">
			<g id="XMLID_10836_">
				<path id="XMLID_10838_" class="st1" d="M-4.3,251.5c-7.3,0-13.3-6-13.3-13.3c0-7.3,6-13.3,13.3-13.3c7.3,0,13.3,6,13.3,13.3
					C9,245.6,3,251.5-4.3,251.5z M-4.3,231.8c-3.6,0-6.4,2.9-6.4,6.4c0,3.6,2.9,6.4,6.4,6.4s6.4-2.9,6.4-6.4
					C2.1,234.7-0.7,231.8-4.3,231.8z"/>
			</g>
		</g>
		<g id="XMLID_10824_">
			<g id="XMLID_10826_">
				<path id="XMLID_10828_" class="st1" d="M231.3,251.5c-7.3,0-13.3-6-13.3-13.3c0-7.3,6-13.3,13.3-13.3c7.3,0,13.3,6,13.3,13.3
					C244.6,245.6,238.7,251.5,231.3,251.5z M231.3,231.8c-3.6,0-6.4,2.9-6.4,6.4c0,3.6,2.9,6.4,6.4,6.4s6.4-2.9,6.4-6.4
					C237.8,234.7,234.9,231.8,231.3,231.8z"/>
			</g>
		</g>
	</g>
</g>
</svg>
