<?xml version="1.0" encoding="utf-8"?>
<!-- Generator: Adobe Illustrator 19.0.0, SVG Export Plug-In . SVG Version: 6.00 Build 0)  -->
<svg version="1.1" id="Layer_1" xmlns="http://www.w3.org/2000/svg" xmlns:xlink="http://www.w3.org/1999/xlink" x="0px" y="0px"
	 viewBox="-190 -19.5 577.5 598.5" enable-background="new -190 -19.5 577.5 598.5" xml:space="preserve">
<g id="XMLID_1649_">
	<path id="XMLID_1673_" fill="#011156" d="M277.4,236.9c-10.8-46.9-47.7-92.1-82.7-111.5c-24-13.3-65.6-16.3-95.8-15.6
		c-30.2-0.7-71.7,2.3-95.8,15.6c-35,19.4-71.8,64.6-82.6,111.5s-10.4,115.3,27.6,149.8c38,34.4,69.4,39.6,69.4,39.6
		s-71.2-35.2-38-131.8c11.4-33.2,95.9-87.8,108.6-93.6c4.4-2,7.8-3.1,10.8-4.3c3,1.1,6.4,2.3,10.8,4.3
		c12.7,5.8,97.2,60.4,108.6,93.6c33.2,96.6-38,131.8-38,131.8s31.4-5.2,69.4-39.6C287.8,352.3,288.2,283.8,277.4,236.9z"/>
	<g id="XMLID_1669_">
		<path id="XMLID_516_" fill="#FFFFFF" d="M235.7,428.5c0,0,0.2-0.6,0.6-1.8c0.4-1.2,0.9-2.9,1.5-5.2c0.3-1.1,0.6-2.4,0.9-3.7
			c0.3-1.4,0.6-2.8,1-4.4c0.6-3.2,1.3-6.8,1.9-10.7c0.3-2,0.6-4,0.8-6.1c0.1-1.1,0.3-2.1,0.4-3.2s0.2-2.2,0.3-3.3
			c0.5-4.5,0.7-9.3,0.8-14.3c0-2.5,0-5,0-7.5c-0.1-2.5-0.2-5.1-0.4-7.7c-0.1-1.3-0.2-2.6-0.3-3.9c-0.2-1.3-0.4-2.6-0.5-3.9l-0.3-1.9
			L242,349l-0.8-3.8c-1.2-5.2-2.7-10.2-4.4-15.1c-1.8-4.9-3.7-9.6-5.8-14.1c-2.2-4.4-4.4-8.7-6.7-12.5c-2.3-3.9-4.7-7.4-7-10.7
			c-1.2-1.6-2.3-3.1-3.4-4.5s-2.2-2.7-3.2-4c-1.1-1.2-2-2.4-3-3.4c-0.9-1-1.8-2-2.6-2.8c-1.6-1.7-2.9-3-3.8-3.9s-1.3-1.4-1.3-1.4
			s0.5,0.4,1.5,1.2c0.9,0.8,2.4,1.9,4.1,3.6c0.8,0.8,1.8,1.7,2.8,2.7s2.1,2.1,3.2,3.2c1.1,1.2,2.3,2.5,3.5,3.8
			c1.2,1.4,2.4,2.9,3.7,4.4c1.2,1.6,2.5,3.2,3.8,5c1.2,1.8,2.6,3.6,3.8,5.5c2.5,3.8,4.9,8.1,7.2,12.6c2.2,4.5,4.3,9.3,6.2,14.2
			c1.8,5,3.3,10.2,4.6,15.3l0.8,4l0.4,2l0.3,2c0.2,1.3,0.4,2.7,0.5,4s0.2,2.7,0.3,4c0.3,2.6,0.2,5.3,0.3,7.9c0,2.6,0,5.1-0.1,7.7
			c-0.2,5-0.6,9.9-1.2,14.4c-0.5,4.6-1.3,8.8-2.1,12.8c-0.4,2-0.8,3.8-1.2,5.6c-0.4,1.8-0.9,3.4-1.3,5s-0.9,3-1.2,4.4
			c-0.4,1.3-0.8,2.6-1.2,3.7c-0.3,1.1-0.7,2.1-1.1,2.9c-0.3,0.9-0.6,1.6-0.9,2.1C235.9,427.9,235.7,428.5,235.7,428.5z"/>
	</g>
	<g id="XMLID_1655_">
		<path id="XMLID_494_" fill="#FFFFFF" d="M-37.9,424.3c0,0-0.3-0.6-0.7-1.7c-0.5-1.1-1.3-2.6-2-4.7c-0.4-1-0.9-2.2-1.3-3.4
			c-0.4-1.3-0.9-2.6-1.4-4.1s-0.9-3.1-1.4-4.7c-0.5-1.7-0.9-3.5-1.4-5.3c-0.4-1.9-0.8-3.8-1.2-5.8c-0.3-2-0.7-4.1-1-6.3
			c-0.6-4.3-0.9-9-1.1-13.8c-0.1-4.8,0.1-9.8,0.5-14.8c0.5-5,1.3-10,2.4-15.1c1.1-4.9,2.6-9.9,4.2-14.6c1.7-4.7,3.7-9.3,5.8-13.6
			c2.1-4.3,4.4-8.3,6.8-12c1.1-1.9,2.4-3.6,3.6-5.3c1.2-1.7,2.4-3.2,3.6-4.8c1.2-1.5,2.4-2.9,3.5-4.2c1.2-1.3,2.3-2.5,3.3-3.7
			c1.1-1.1,2.1-2.1,3-3.1s1.9-1.8,2.7-2.6c1.6-1.6,3-2.6,3.8-3.4c0.9-0.8,1.4-1.2,1.4-1.2s-0.4,0.5-1.3,1.3
			c-0.8,0.9-2.1,2.1-3.5,3.7c-0.7,0.8-1.6,1.7-2.5,2.7s-1.8,2.1-2.8,3.3c-1,1.2-2,2.5-3,3.8c-1,1.4-2.1,2.8-3.2,4.4
			c-2.1,3.1-4.4,6.5-6.6,10.2c-2.2,3.7-4.3,7.8-6.3,12c-2,4.3-3.8,8.8-5.4,13.4c-1.6,4.7-2.9,9.4-4.1,14.4
			c-1.1,4.8-1.9,9.8-2.4,14.7c-0.5,4.9-0.8,9.8-0.8,14.5c0.1,4.7,0.2,9.2,0.6,13.5c0.4,4.3,1,8.3,1.6,12.1c0.4,1.8,0.7,3.6,1.1,5.3
			c0.4,1.7,0.8,3.3,1.1,4.8c0.4,1.5,0.8,2.9,1.1,4.2c0.4,1.3,0.8,2.4,1.1,3.5c0.6,2.1,1.3,3.8,1.6,4.9
			C-38.1,423.7-37.9,424.3-37.9,424.3z"/>
	</g>
	<g id="XMLID_1651_">
		<path id="XMLID_492_" fill="#FFFFFF" d="M66.5,218.4c0,0,0.3-0.3,1-0.8s1.6-1.3,2.8-2.3c1.2-1,2.7-2.1,4.4-3.4
			c1.7-1.3,3.7-2.8,5.9-4.3c2.2-1.6,4.5-3.2,7.1-4.9c2.5-1.7,5.2-3.5,8.1-5.2c2.8-1.7,5.7-3.6,8.8-5.3c3-1.8,6.1-3.5,9.2-5.2
			s6.3-3.3,9.4-4.9c3.1-1.6,6.2-3.1,9.2-4.5s5.9-2.7,8.8-3.9c1.4-0.6,2.8-1.2,4.1-1.8c1.3-0.5,2.6-1.1,3.9-1.6
			c2.5-1,4.8-1.9,6.8-2.6c2-0.8,3.8-1.4,5.3-1.9c2.9-1,4.6-1.5,4.6-1.5s-1.6,0.9-4.3,2.3c-2.8,1.4-6.7,3.4-11.4,5.9
			c-2.4,1.2-4.9,2.5-7.6,3.9s-5.5,2.9-8.5,4.4c-2.9,1.6-5.9,3.2-9,4.8s-6.2,3.3-9.3,5c-3.1,1.7-6.2,3.4-9.2,5.1c-3,1.7-6,3.4-8.9,5
			s-5.7,3.2-8.3,4.7c-2.6,1.5-5.1,3-7.4,4.3c-4.6,2.7-8.4,4.9-11.1,6.4c-1.3,0.8-2.4,1.4-3.1,1.8C66.9,218.1,66.5,218.4,66.5,218.4z
			"/>
	</g>
</g>
</svg>
