<?xml version="1.0" encoding="utf-8"?>
<!-- Generator: Adobe Illustrator 19.0.0, SVG Export Plug-In . SVG Version: 6.00 Build 0)  -->
<svg version="1.1" id="Layer_1" xmlns="http://www.w3.org/2000/svg" xmlns:xlink="http://www.w3.org/1999/xlink" x="0px" y="0px"
	 viewBox="-118 96 492 377" style="enable-background:new -118 96 492 377;" xml:space="preserve">
<style type="text/css">
	.st0{fill:#F9EEE4;}
	.st1{fill:url(#XMLID_2_);}
	.st2{fill:#CCC5B4;}
</style>
<g id="XMLID_11166_">
	<g id="XMLID_11183_">
		<g id="XMLID_11189_">
			<path id="XMLID_11191_" class="st0" d="M204,306.4L3.2,236.9c4.8,12.4-40,133.6-40,133.6s52,6.7,97.4,23.3
				c42,15.3,91.1,42,91.1,42S192.7,313.2,204,306.4z"/>
		</g>
		<g id="XMLID_11185_">
			<linearGradient id="XMLID_2_" gradientUnits="userSpaceOnUse" x1="153.3674" y1="112.9539" x2="85.3674" y2="332.9539">
				<stop  offset="0" style="stop-color:#F9EEE4"/>
				<stop  offset="1" style="stop-color:#FFFFFF"/>
			</linearGradient>
			<path id="XMLID_10630_" class="st1" d="M192.3,340.6c30,9.6,62.1,0,77.4-22.3c15.7-23,7-51.6-13.9-72.7
				c-17-17.2-41.8-17.2-43.6-38.3c-2-23.7-12.4-47.7-34.5-63.5c-46.6-33.2-99.3-17-127.1,20.3C9.8,146-47.9,159.8-55.5,200.8
				c-2.3,14.4,1.6,29.7,10.6,42.7c8.3,12,23.5,23.1,37.7,28c26.4,9.2,29.5,21.3,50.4,41.2c34.5,32.8,84,36.9,129.8,21.9
				C179.4,337.3,186,338.5,192.3,340.6C192.9,340.8,192.3,340.6,192.3,340.6z"/>
		</g>
	</g>
	<g id="XMLID_11168_">
		<g id="XMLID_11179_">
			<polygon id="XMLID_10628_" class="st2" points="70.9,375.6 63.5,373 84.8,319.9 			"/>
		</g>
		<g id="XMLID_11175_">
			<polygon id="XMLID_10626_" class="st2" points="125.5,398.1 118.4,395 145.9,344.3 			"/>
		</g>
		<g id="XMLID_11170_">
			<polygon id="XMLID_10624_" class="st2" points="8.4,356.6 15.9,358.6 25.5,301.9 			"/>
		</g>
	</g>
</g>
</svg>
