<?xml version="1.0" encoding="utf-8"?>
<!-- Generator: Adobe Illustrator 19.0.0, SVG Export Plug-In . SVG Version: 6.00 Build 0)  -->
<svg version="1.1" id="Layer_1" xmlns="http://www.w3.org/2000/svg" xmlns:xlink="http://www.w3.org/1999/xlink" x="0px" y="0px"
	 viewBox="-262 120.054 433.7838 320.946" enable-background="new -262 120.054 433.7838 320.946" xml:space="preserve">
<g id="XMLID_7037_">
	<path id="XMLID_7039_" fill="#934906" d="M-155.5012,266.4293c1.8106-5.4005,38.3412-110.0269,96.0552-129.2556
		c10.9836-3.66,34.6588,14.3605,61.2556,21.5196c26.5983,7.1595,56.1185,3.4576,63.7817,12.1369
		c40.2645,45.6018,18.6191,154.2348,17.4733,159.8142c53.4198,37.7811,77.9828,39.1673,64.6281,59.9939
		c-17.9768,28.0342-89.8002,33.4424-208.0018,1.6259c-120.3294-32.3892-179.6642-73.1013-181.1396-106.3715
		C-242.545,261.1761-220.6686,272.2901-155.5012,266.4293z"/>
	<path id="XMLID_7038_" fill="#F7031B" d="M-142.1863,233.9379c27.4111,14.99,68.054,30.759,111.6762,42.5008
		c43.5114,11.712,87.1084,18.6422,118.6231,19.5482c-1.8001,18.1749-4.3708,31.4771-4.9433,34.3216
		c-35.2318-1.5091-78.3428-8.7515-122.6166-20.6688c-44.0484-11.8566-84.7797-27.1356-115.9453-43.4219
		C-154.5469,263.7291-149.9864,250.8027-142.1863,233.9379z"/>
</g>
</svg>
