<?xml version="1.0" encoding="utf-8"?>
<!-- Generator: Adobe Illustrator 19.0.0, SVG Export Plug-In . SVG Version: 6.00 Build 0)  -->
<svg version="1.1" id="Layer_1" xmlns="http://www.w3.org/2000/svg" xmlns:xlink="http://www.w3.org/1999/xlink" x="0px" y="0px"
	 viewBox="0 0 422 248.6667" enable-background="new 0 0 422 248.6667" xml:space="preserve">
<g id="XMLID_729_">
	<path id="XMLID_13667_" fill="#FDC23E" d="M81,187.3333v44.1057c0,0.9063,0.6305,0.8943,1.2567,0.8943h252.3228
		c0.6267,0,0.4205,0.012,0.4205-0.8943v-44.1057H81z"/>
	<path id="XMLID_13665_" fill="#FAB22E" d="M81,196.3333v-9.0852c0-0.1975,0.6305-0.9148,1.2567-0.9148h252.3228
		c0.6267,0,0.4205,0.7173,0.4205,0.9148v9.0852H81z"/>
	<polygon id="XMLID_13663_" fill="#FDC23E" points="315.3508,153.8564 302.3692,48.9007 244.8541,146.4586 208.4187,38.96 
		171.9807,146.4586 114.4683,48.8994 101.4833,153.8564 23.7272,78.6557 81.1191,194.3333 335.7164,194.3333 393.109,78.6557 	"/>
	<g id="XMLID_13638_">
		<path id="XMLID_13640_" fill="#FAB22E" d="M324,225.3333h-7v-23h7V225.3333z M299,225.3333h-7v-23h7V225.3333z M274,225.3333h-7
			v-23h7V225.3333z M249,225.3333h-7v-23h7V225.3333z M224,225.3333h-7v-23h7V225.3333z M199,225.3333h-7v-23h7V225.3333z
			 M174,225.3333h-7v-23h7V225.3333z M149,225.3333h-7v-23h7V225.3333z M124,225.3333h-7v-23h7V225.3333z M99,225.3333h-7v-23h7
			V225.3333z"/>
	</g>
	<polygon id="XMLID_13636_" fill="#FDC23E" points="315.3508,153.8564 302.3692,48.9007 244.8541,146.4586 208.4187,38.96 
		171.9807,146.4586 114.4683,48.8994 101.4833,153.8564 23.7272,78.6557 81.1191,194.3333 335.7164,194.3333 393.109,78.6557 	"/>
	<g id="XMLID_922_">
		<g id="XMLID_13509_">
			<circle id="XMLID_13634_" fill="#FDC23E" cx="208.599" cy="38.4632" r="24.6853"/>
			<path id="XMLID_13631_" fill="#FEDE55" d="M208.599,61.3444c-12.6153,0-22.8806-10.2653-22.8806-22.8812
				c0-12.6146,10.2652-22.8799,22.8806-22.8799c12.6166,0,22.8805,10.2653,22.8805,22.8799
				C231.4795,51.0791,221.2155,61.3444,208.599,61.3444z"/>
			<path id="XMLID_13629_" fill="#FAB22E" d="M208.599,58.7923c-11.2101,0-20.3292-9.1192-20.3292-20.3292
				c0-11.2087,9.1191-20.3265,20.3292-20.3265c11.2094,0,20.3291,9.1177,20.3291,20.3265
				C228.9281,49.6732,219.8083,58.7923,208.599,58.7923z"/>
			<circle id="XMLID_13627_" fill="#F47F56" cx="208.5993" cy="38.4632" r="18.5241"/>
			<path id="XMLID_13625_" fill="#ED704A" d="M217.7572,22.3755c1.5417,2.7018,2.4361,5.8224,2.4361,9.1576
				c0,10.2308-8.2936,18.5231-18.5251,18.5231c-3.3352,0-6.455-0.8918-9.1582-2.4342c3.1908,5.5904,9.1933,9.3669,16.089,9.3669
				c10.2308,0,18.5244-8.2949,18.5244-18.5258C227.1233,31.5675,223.3476,25.565,217.7572,22.3755z"/>
			<path id="XMLID_13623_" fill="#D35E39" d="M220.1197,23.9736c2.5176,3.1643,4.0335,7.1619,4.0335,11.5201
				c0,10.2308-8.2936,18.5257-18.5244,18.5257c-4.3574,0-8.3571-1.5185-11.5195-4.0348c3.3935,4.2627,8.6169,7.0043,14.4896,7.0043
				c10.2308,0,18.5244-8.2949,18.5244-18.5258C227.1233,32.5905,224.3831,27.3684,220.1197,23.9736z"/>
			<circle id="XMLID_13621_" fill="#F7B5A4" cx="201.6709" cy="30.8215" r="4.4555"/>
		</g>
		<g id="XMLID_11576_">
			<circle id="XMLID_13507_" fill="#FDC23E" cx="301.1568" cy="49.5063" r="17.9215"/>
			<path id="XMLID_13415_" fill="#FAB22E" d="M312.0726,35.3175c2.3282,3.0251,3.7267,6.8055,3.7267,10.9119
				c0,9.8996-8.0213,17.9241-17.9188,17.9241c-4.1137,0-7.8908-1.4006-10.9146-3.7314c3.2755,4.2561,8.4069,7.0043,14.1914,7.0043
				c9.8956,0,17.9209-8.0206,17.9209-17.9201C319.0782,43.7237,316.326,38.5957,312.0726,35.3175z"/>
			<circle id="XMLID_13413_" fill="#FEDE55" cx="293.3004" cy="41.4711" r="3.4134"/>
		</g>
		<g id="XMLID_10595_">
			<circle id="XMLID_10792_" fill="#FDC23E" cx="391.2204" cy="81.1779" r="13.7525"/>
			<path id="XMLID_10608_" fill="#FAB22E" d="M399.5951,70.2886c1.7875,2.3215,2.8629,5.222,2.8629,8.3744
				c0,7.5966-6.1569,13.7542-13.7522,13.7542c-3.157,0-6.0569-1.0733-8.3757-2.8635c2.515,3.265,6.4504,5.3771,10.8907,5.3771
				c7.594,0,13.7522-6.1575,13.7522-13.7529C404.9729,76.739,402.8588,72.8049,399.5951,70.2886z"/>
			<circle id="XMLID_10597_" fill="#FEDE55" cx="385.1907" cy="75.0098" r="2.6193"/>
		</g>
		<g id="XMLID_6923_">
			<circle id="XMLID_10593_" fill="#FDC23E" cx="25.6168" cy="81.1779" r="13.7522"/>
			<path id="XMLID_6926_" fill="#FAB22E" d="M33.9931,70.2886c1.7869,2.3215,2.8595,5.222,2.8595,8.3744
				c0,7.5966-6.1549,13.7542-13.7509,13.7542c-3.1563,0-6.0555-1.0733-8.3757-2.8635c2.515,3.265,6.4518,5.3771,10.892,5.3771
				c7.5926,0,13.7509-6.1575,13.7509-13.7529C39.369,76.739,37.2561,72.8049,33.9931,70.2886z"/>
			<circle id="XMLID_6925_" fill="#FEDE55" cx="19.587" cy="75.0098" r="2.6197"/>
		</g>
		<g id="XMLID_1411_">
			<circle id="XMLID_6922_" fill="#FDC23E" cx="115.1348" cy="49.5063" r="17.9202"/>
			<path id="XMLID_1420_" fill="#FAB22E" d="M126.0507,35.3175c2.3281,3.0251,3.7267,6.8055,3.7267,10.9119
				c0,9.8996-8.0213,17.9241-17.9175,17.9241c-4.1144,0-7.8915-1.4006-10.9159-3.7314c3.2762,4.2561,8.4069,7.0043,14.1921,7.0043
				c9.8956,0,17.9189-8.0206,17.9189-17.9201C133.055,43.7237,130.3022,38.5957,126.0507,35.3175z"/>
			<circle id="XMLID_1413_" fill="#FEDE55" cx="107.2785" cy="41.4711" r="3.4134"/>
		</g>
	</g>
	<path id="XMLID_921_" opacity="0.35" d="M391.2208,67.4264c-7.5972,0-13.7529,6.1576-13.7529,13.7515
		c0,3.5499,1.3569,6.7751,3.5638,9.2132l-65.6808,63.4653l-10.733-86.7705c8.2399-1.6139,14.4604-8.8647,14.4604-17.5796
		c0-9.8956-8.0252-17.9176-17.9215-17.9176c-9.8983,0-17.9215,8.0219-17.9215,17.9176c0,6.8373,3.8328,12.7775,9.4642,15.7974
		l-47.8454,81.1549l-28.6439-84.51c9.9075-3.2093,16.7746-12.5086,16.7746-23.4855C232.9848,24.8309,222,13.7785,208,13.7785
		v218.5548h126.5795c0.6267,0,0.4205,0.012,0.4205-0.8943v-36.9733l50.2993-100.7169c1.7033,0.7526,3.7594,1.182,5.7424,1.182
		c7.594,0,13.8417-6.1575,13.8417-13.7529C404.8834,73.584,398.8147,67.4264,391.2208,67.4264z"/>
	<polygon id="XMLID_920_" fill="#FEFDFF" points="126.6358,99.7607 133.8898,98.2289 126.6358,96.6984 125.1039,89.445 
		123.5715,96.6984 116.3188,98.2289 123.5715,99.7607 125.1039,107.0154 	"/>
	<polygon id="XMLID_919_" fill="#FEFDFF" points="144.0226,212.1792 152.0359,210.4871 144.0226,208.7963 142.3311,200.7836 
		140.6377,208.7963 132.6263,210.4871 140.6377,212.1792 142.3311,220.1932 	"/>
	<polygon id="XMLID_730_" fill="#FEFDFF" points="302.232,179.5428 305.0359,190.0439 315.5377,192.8505 305.0359,195.6543 
		302.232,206.1567 299.4282,195.6543 288.9264,192.8505 299.4282,190.0439 	"/>
</g>
</svg>
