<?xml version="1.0" encoding="utf-8"?>
<!-- Generator: Adobe Illustrator 19.0.0, SVG Export Plug-In . SVG Version: 6.00 Build 0)  -->
<svg version="1.1" id="Layer_1" xmlns="http://www.w3.org/2000/svg" xmlns:xlink="http://www.w3.org/1999/xlink" x="0px" y="0px"
	 viewBox="0 0 422 248.6667" enable-background="new 0 0 422 248.6667" xml:space="preserve">
<g id="XMLID_703_">
	<path id="XMLID_10288_" fill-rule="evenodd" clip-rule="evenodd" fill="#4D4D4F" d="M78.9257,192.9346
		c1.7991,0.8251,8.9613,3.1549,31.677,2.4753c68.2418-2.0317,127.8227-2.0317,196.0644,0
		c22.7161,0.6796,29.8779-1.6502,31.677-2.4753c-0.7235,0.1708-1.7864-0.2981-3.1638-1.61
		c-45.9913-43.7887-207.0991-43.7887-253.0907,0C80.7121,192.6365,79.6492,193.1054,78.9257,192.9346z"/>
	<path id="XMLID_10286_" fill-rule="evenodd" clip-rule="evenodd" fill="#ACB7BF" d="M80.1289,175.7906
		c0,0-1.3104,8.6684-2.1262,12.7571c-0.8177,4.0854,0.6524,6.0479,4.0869,2.7768c45.9916-43.7887,207.0995-43.7887,253.0907,0
		c3.4363,3.2711,4.9045,1.3086,4.0869-2.7768c-0.8158-4.0887-2.1244-12.7571-2.1244-12.7571
		c-4.5759-51.5069-14.7144-90.7506-25.18-109.7174c-10.4656-18.9686-25.8361-26.165-52.3264-34.0138
		c-30.2973-8.9773-71.7056-8.9773-102.003,0c-26.4904,7.8488-41.8608,15.0452-52.3264,34.0138
		C94.8414,85.0401,84.7029,124.2838,80.1289,175.7906z"/>
	<path id="XMLID_10284_" fill-rule="evenodd" clip-rule="evenodd" fill="#6D6E70" d="M103.0356,177.5678
		c1.3666-17.0568-0.9595-45.3571-0.8471-59.9062c0.2691-34.3444,13.8204-61.709,36.6106-79.2672
		c-1.8661,0.7433-3.6563,1.5066-5.3754,2.299c-20.3387,17.5946-32.4816,43.5814-33.1088,75.6615
		c-0.3,15.3541,1.939,46.0244-0.1507,62.6268C101.1055,178.502,102.0597,178.033,103.0356,177.5678z"/>
	<path id="XMLID_10281_" fill-rule="evenodd" clip-rule="evenodd" fill="#626366" d="M196.1994,25.6899
		c-0.2836-1.5955-0.3926-3.9235,0.5036-4.9957c4.3887-5.2626,19.4756-5.2626,23.8643,0c0.8958,1.0722,0.7868,3.4002,0.5032,4.9957
		C212.8256,25.2083,204.4442,25.2083,196.1994,25.6899z"/>
	<path id="XMLID_10279_" fill-rule="evenodd" clip-rule="evenodd" fill="#6D6E70" d="M196.7029,20.6942
		c4.3887-5.2626,19.4756-5.2626,23.8643,0C219.1749,23.6709,196.9809,21.414,196.7029,20.6942z"/>
	<path id="XMLID_10277_" fill-rule="evenodd" clip-rule="evenodd" fill="#4D4D4F" d="M155.9017,44.5697
		c-5.2555,2.7839,0.7793,4.4267,3.1892,1.7972C159.9904,45.3874,160.8899,43.1792,155.9017,44.5697z"/>
	<path id="XMLID_10275_" fill-rule="evenodd" clip-rule="evenodd" fill="#6D6E70" d="M314.2342,177.5678
		c-1.3662-17.0568,0.9598-45.3571,0.8471-59.9062c-0.269-34.3444-13.8204-61.709-36.6106-79.2672
		c1.8642,0.7433,3.6563,1.5066,5.3753,2.299c20.3372,17.5946,32.4817,43.5814,33.1088,75.6615
		c0.3,15.3541-1.9372,46.0207,0.1507,62.6268C316.1643,178.502,315.21,178.0293,314.2342,177.5678z"/>
	<path id="XMLID_10273_" fill-rule="evenodd" clip-rule="evenodd" fill="#4D4D4F" d="M261.3685,44.5697
		c5.2555,2.7839-0.7797,4.4267-3.1895,1.7972C257.2813,45.3874,256.3798,43.1792,261.3685,44.5697z"/>
	<path id="XMLID_10271_" fill-rule="evenodd" clip-rule="evenodd" fill="#ACB7BF" d="M88.53,186.018
		c-1.7336,7.2802-4.3124,18.8199-5.0519,25.998c-1.1448,11.118,0.1634,18.6415,6.5402,19.9497
		c6.3769,1.3086,10.3041-0.3271,28.4528-12.2628c52.7373-34.6879,127.5904-34.6879,180.3274,0
		c18.1506,11.9357,22.076,13.5714,28.4529,12.2628c6.3769-1.3082,7.6851-8.8317,6.5402-19.9497
		c-0.7395-7.1781-3.3164-18.7178-5.0519-25.998C278.1071,149.313,139.1627,149.313,88.53,186.018z"/>
	<linearGradient id="XMLID_705_" gradientUnits="userSpaceOnUse" x1="114.2008" y1="194.9413" x2="304.5431" y2="194.9413">
		<stop  offset="0" style="stop-color:#626366"/>
		<stop  offset="0.48" style="stop-color:#757876"/>
		<stop  offset="1" style="stop-color:#626366"/>
	</linearGradient>
	<path id="XMLID_10269_" fill-rule="evenodd" clip-rule="evenodd" fill="url(#XMLID_705_)" d="M306.5454,207.9236
		c11.923,7.905,12.1341,4.3321,12.0704-4.2015c-0.0182-2.3734-0.1035-5.2812-0.3398-8.2251
		c-0.4399-5.4989-0.6669-11.0347-1.1724-16.5298c-0.9319-0.476-1.8862-0.9449-2.8549-1.4064
		c0.6271,6.0039,0.8288,12.1318,1.3086,18.1544c0.2144,2.6678,0.3108,5.3537,0.3309,8.0286
		c0.0636,8.065-0.8434,6.5205-7.8417,1.9044c-58.0177-37.0903-140.8053-37.1703-198.823,0
		c-6.9984,4.6161-7.9054,6.1606-7.8417-1.9044c0.0201-2.6749,0.1165-5.3608,0.3309-8.0286
		c0.4816-6.0226,0.6815-12.1504,1.3086-18.1544c-0.9688,0.4615-1.9227,0.9304-2.855,1.4064
		c-0.5054,5.4951-0.7324,11.0309-1.1724,16.5298c-0.236,2.9439-0.3216,5.8517-0.3398,8.2251
		c-0.0636,8.5336,0.1492,12.1065,12.0704,4.2015C168.1663,170.1425,249.1034,170.1425,306.5454,207.9236z"/>
	<path id="XMLID_10267_" fill-rule="evenodd" clip-rule="evenodd" fill="#626366" d="M83.1491,216.4684
		c-0.3506,8.6538,1.3849,14.3745,6.8692,15.4974c6.3769,1.3086,10.3041-0.3271,28.4528-12.2628
		c52.7373-34.6879,127.5904-34.6879,180.3274,0c18.1506,11.9357,22.076,13.5714,28.4529,12.2628
		c5.4825-1.1229,7.2198-6.8436,6.8693-15.4974c-0.3033,6.4438-2.2643,10.6271-6.8693,11.572
		c-6.3769,1.3086-10.3022-0.3271-28.4529-12.2628c-52.7369-34.6879-127.5901-34.6879-180.3274,0
		c-18.1488,11.9357-22.076,13.5714-28.4528,12.2628C85.4134,227.0955,83.4528,222.9122,83.1491,216.4684z"/>
</g>
<path id="XMLID_10246_" fill="#EF7B05" d="M235.0125,106.9456c-1.2805-3.0543-3.1539-5.8244-5.5119-8.1501
	c-2.374-2.3164-5.1735-4.1521-8.2443-5.4059c-3.2677-1.3276-6.7667-1.9921-10.2936-1.9551
	c-3.5229-0.0355-7.0178,0.6291-10.2818,1.9551c-3.0687,1.2577-5.8675,3.0929-8.2443,5.4059
	c-2.358,2.3256-4.2314,5.0957-5.5119,8.1501c-1.3507,3.221-2.032,6.6832-2.0022,10.1758
	c-0.0335,3.4918,0.6437,6.9539,1.9904,10.1758c1.2805,3.0543,3.1539,5.8244,5.5119,8.1501c2.3768,2.313,5.1755,4.1481,8.2443,5.4059
	c3.264,1.326,6.7589,1.9906,10.2818,1.9551c3.5237,0.052,7.0226-0.5965,10.2936-1.908c3.0708-1.2538,5.8703-3.0895,8.2443-5.4059
	c2.358-2.3256,4.2314-5.0957,5.5119-8.1501c1.3467-3.2218,2.0239-6.684,1.9904-10.1758
	C237.0347,113.6617,236.3614,110.183,235.0125,106.9456z M197,115.1899c3-0.954,5.9685-2.1788,5.9685-2.1788
	c8.468-2.6853,9.2028-5.8888,9.2028-5.8888s1.5805,3.1917,7.7283,5.2881c0,0,3.3047,1.1189,6.4611,2.2613
	c0.1531,0.3062,0.2685-0.0889,0.4098,0.2408c0.5737,1.3198,0.9203,2.4208,1.1283,3.4208H225c0,0,0,1.4263,0,1.3556
	c0-0.7286-1.5024-1.389-2.0662-1.9433c-0.5642-0.5221-1.5923-0.9371-2.3051-1.2249c-2.341-0.9702-5.2208-0.4667-7.0531,1.2838
	c-0.5769,0.5376-1.1381,0.6385-1.4714,1.3533c-0.0947,0.2351-0.2707,0.1755-0.3407,0.1755h-1.6488
	c-0.0518,0-0.1267,0.0564-0.2238-0.1755c-0.307-0.7257-0.7508-1.114-1.3073-1.6718c-1.8467-1.7128-4.5132-2.0765-6.8545-1.148
	c-0.7308,0.2999-0.6257,0.8033-1.1944,1.3516c-0.564,0.5516-0.5348,1.2808-0.5348,2.0112v-0.3674h-5.9262
	c0.208-2,1.3958-2.5951,1.9695-3.9149c0.0236-0.106,0.9567-0.0283,0.9567-0.1814V115.1899z M221.433,122.1622
	c0.0041,0.497-0.0921,0.9897-0.2827,1.4486c-0.1773,0.4409-0.4417,0.8414-0.7773,1.1777c-0.3374,0.3314-0.7379,0.5918-1.1778,0.7655
	c-0.459,0.1906-0.9517,0.2867-1.4486,0.2827c-0.9752,0.0067-1.9141-0.3697-2.6146-1.0482
	c-0.3436-0.3322-0.6126-0.7336-0.7891-1.1777c-0.3764-0.925-0.3764-1.9605,0-2.8855c0.1765-0.4441,0.4455-0.8456,0.7891-1.1777
	c0.3351-0.3343,0.7362-0.595,1.1778-0.7655c0.46-0.1848,0.9531-0.273,1.4486-0.2591c0.497-0.0041,0.9897,0.0921,1.4486,0.2827
	c0.4415,0.1705,0.8427,0.4313,1.1777,0.7655c0.3357,0.3363,0.6001,0.7369,0.7773,1.1778
	C221.3447,121.1976,221.4367,121.6779,221.433,122.1622z M207.8535,122.1622c0.0041,0.497-0.0921,0.9897-0.2827,1.4486
	c-0.1773,0.4409-0.4417,0.8414-0.7773,1.1777c-0.3374,0.3314-0.7379,0.5918-1.1777,0.7655c-0.9331,0.3766-1.9759,0.3766-2.9091,0
	c-0.4399-0.1738-0.8404-0.4341-1.1777-0.7655c-0.3357-0.3363-0.6001-0.7369-0.7773-1.1777c-0.3764-0.925-0.3764-1.9605,0-2.8855
	c0.1773-0.4409,0.4417-0.8414,0.7773-1.1777c0.3351-0.3343,0.7362-0.595,1.1777-0.7655c0.9331-0.3766,1.9759-0.3766,2.9091,0
	c0.4415,0.1705,0.8427,0.4312,1.1777,0.7655c0.3357,0.3363,0.6,0.7369,0.7773,1.1777
	C207.7605,121.1805,207.8566,121.6692,207.8535,122.1622z M223.1643,133.3333c-1.5497,2-3.3873,3.2352-5.4059,4.0426
	c-2.1377,0.8722-4.4281,1.5634-6.7367,1.5384c-2.3085,0.0237-4.5987-0.2854-6.7368-1.1564
	c-2.0155-0.8132-3.8521-1.9499-5.4059-3.4696c-1.5515-1.5174-2.7813-3.9324-3.6157-5.9357
	c-0.8491-2.0338-1.2893-4.0192-1.2955-7.0192h4.0279c0.0812,2,0.711,3.5118,1.7666,4.5543c0.5649,0.556,1.233,1.3122,1.9668,1.6117
	c1.5718,0.6119,3.3159,0.7699,4.8877,0.1581c0.7323-0.3024,1.3999-0.6631,1.9668-1.2165c0.5587-0.5514,1.003-1.5127,1.3073-2.2363
	c0.214-0.4997,0.3567-1.8712,0.424-1.8712h1.3073c0.0559,0,0.1867,1.4093,0.3887,1.9107c0.3043,0.7237,0.7486,1.5522,1.3073,2.1037
	c0.5669,0.5534,1.2346,1.0793,1.9668,1.3816c1.5757,0.6126,3.3238,0.6557,4.8995,0.043c0.7287-0.3026,1.3924-0.7209,1.9551-1.274
	c0.5662-0.5477,1.015-1.8264,1.3191-2.5531c0.2618-0.6336,0.417-1.612,0.4593-2.612h4.075c-0.0062,3-0.4464,4.508-1.2955,6.5418
	c-0.8275,2.0013-2.0491,4.4582-3.5922,5.4582H223.1643z"/>
</svg>
