<?xml version="1.0" encoding="utf-8"?>
<!-- Generator: Adobe Illustrator 19.0.0, SVG Export Plug-In . SVG Version: 6.00 Build 0)  -->
<svg version="1.1" id="Layer_1" xmlns="http://www.w3.org/2000/svg" xmlns:xlink="http://www.w3.org/1999/xlink" x="0px" y="0px"
	 viewBox="0 0 250 159.3333" enable-background="new 0 0 250 159.3333" xml:space="preserve">
<g id="XMLID_5637_">
	<g id="XMLID_5689_">
		<g id="XMLID_5698_">
			<path id="XMLID_5699_" fill="#FEC214" d="M125.9277,31.9314c0.2036-0.0948-9.282,4.8079-15.6735,14.4837
				c-6.6632,9.5756-10.2232,23.922-4.5369,40.3705c1.8685-0.2718,3.7402-0.508,5.6149-0.702
				c-2.4665-23.0621,14.2694-36.4083,14.5955-36.1621c0.3232-0.2462,17.059,13.0999,14.5925,36.1621
				c1.8779,0.194,3.7496,0.4302,5.6181,0.702c5.6893-16.4486,2.1263-30.795-4.537-40.3705
				C135.2098,36.7393,125.7259,31.8366,125.9277,31.9314z"/>
		</g>
		<g id="XMLID_5696_">
			<path id="XMLID_5697_" fill="#FEC214" d="M222.0159,65.0491c-0.6384-1.1634-34.5574,0.8193-40.3898,31.8393
				c1.5407,0.6726,3.0784,1.3739,4.5975,2.1047c8.8207-18.3521,27.5012-20.7146,27.6394-20.3969
				c0.303-0.0566,7.106,17.6788-4.9517,34.0878c1.3933,1.0345,2.7648,2.0983,4.1285,3.191
				C237.8586,96.3129,223.2041,64.9573,222.0159,65.0491z"/>
		</g>
		<g id="XMLID_5694_">
			<path id="XMLID_5695_" fill="#FEC214" d="M29.8397,65.0491c0.643-1.1634,34.562,0.8193,40.3914,31.8393
				c-1.5455,0.6726-3.08,1.3739-4.6053,2.1047c-8.8145-18.3521-27.495-20.7146-27.6332-20.3969
				c-0.306-0.0566-7.106,17.6788,4.9515,34.0878c-1.3931,1.0345-2.7678,2.0983-4.1299,3.191
				C14,96.3129,28.6514,64.9573,29.8397,65.0491z"/>
		</g>
		<g id="XMLID_5692_">
			<path id="XMLID_5693_" fill="#FEC214" d="M177.6591,42.3324c-0.9863-1.0407-35.2657,10.7002-32.3799,44.3304
				c1.7521,0.2438,3.5072,0.5234,5.2531,0.8341c3.8316-21.4335,22.2855-29.2003,22.5185-28.9045
				c0.3246-0.1398,12.0405,16.1635,4.0647,36.4283c1.6713,0.6586,3.3318,1.3497,4.9751,2.0735
				c9.2882-13.468,9.5786-27.3654,5.983-37.7106C184.7309,49.016,177.5039,42.2036,177.6591,42.3324z"/>
		</g>
		<g id="XMLID_5690_">
			<path id="XMLID_5691_" fill="#FEC214" d="M74.1995,42.3324c0.9785-1.0407,35.2643,10.7002,32.3783,44.3304
				c-1.7535,0.2438-3.5086,0.5234-5.2513,0.8341c-3.835-21.4335-22.2919-29.2003-22.5185-28.9045
				c-0.3278-0.1398-12.0437,16.1635-4.068,36.4267c-1.6681,0.6602-3.3316,1.3513-4.9779,2.0751
				c-9.2851-13.471-9.5771-27.3654-5.9799-37.7106C67.1247,49.016,74.3549,42.2036,74.1995,42.3324z"/>
		</g>
	</g>
	<g id="XMLID_5638_">
		<g id="XMLID_5667_">
			<path id="XMLID_5668_" fill="#F48C22" d="M222.5315,128.1244c-53.3529-53.3545-139.8577-53.3545-193.2137,0
				c-2.7633-2.7655-5.5311-5.5325-8.2973-8.2989c57.938-57.938,151.8733-57.938,209.8144,0
				C228.0688,122.5918,225.3025,125.3588,222.5315,128.1244z"/>
		</g>
		<g id="XMLID_5640_">
			<g id="XMLID_5664_">
				<path id="XMLID_5666_" fill="#FFFFFF" d="M27.3686,116.5497c2.9324-2.8866,7.213,1.5355,4.3583,4.3599
					C28.8907,123.7761,24.4888,119.4629,27.3686,116.5497z"/>
			</g>
			<g id="XMLID_5645_">
				<path id="XMLID_5646_" fill="#FFFFFF" d="M210.4118,109.0726L210.4118,109.0726c1.0267-1.3553,2.9558-1.6239,4.3132-0.5926l0,0
					c1.3529,1.0259,1.6215,2.959,0.5996,4.3141l0,0c-0.6074,0.7984-1.5237,1.2239-2.4541,1.2239l0,0
					C210.3668,114.018,208.8664,111.1338,210.4118,109.0726z M42.0386,104.9162L42.0386,104.9162
					c1.3933-0.9692,3.31-0.6244,4.2791,0.7704l0,0c0.9708,1.4025,0.626,3.3168-0.7703,4.2877l0,0
					c-0.536,0.3704-1.1463,0.556-1.7567,0.556l0,0C40.7929,110.5303,39.5503,106.6363,42.0386,104.9162z M198.8077,105.1694
					L198.8077,105.1694c-1.4569-0.869-1.9321-2.7632-1.0639-4.2178l0,0c0.8713-1.4639,2.7646-1.9431,4.2309-1.0717l0,0
					c1.4507,0.8753,1.9307,2.7632,1.0578,4.2271l0,0c-0.5748,0.963-1.5983,1.5019-2.6483,1.5019l0,0
					C199.8468,105.6089,199.3064,105.4707,198.8077,105.1694z M55.0716,96.7913L55.0716,96.7913
					c1.4881-0.824,3.3612-0.292,4.1844,1.1929l0,0c0.8325,1.4871,0.292,3.3658-1.196,4.1898l0,0
					c-0.4674,0.2616-0.9831,0.3859-1.4925,0.3859l0,0C53.3879,102.5599,52.307,98.3188,55.0716,96.7913z M184.2775,94.2262
					L184.2775,94.2262c0.7175-1.5401,2.541-2.2173,4.088-1.5075l0,0c1.5485,0.7146,2.215,2.5411,1.5081,4.0874l0,0
					c-0.5141,1.1237-1.6323,1.7947-2.802,1.7947l0,0C184.8707,98.6008,183.3315,96.2959,184.2775,94.2262z M68.872,90.0216
					L68.872,90.0216c1.5625-0.6694,3.3752,0.0606,4.0446,1.6263l0,0c0.6709,1.5649-0.0622,3.3728-1.6247,4.0406l0,0
					c-0.396,0.1716-0.8015,0.2494-1.2101,0.2494l0,0C66.772,95.9379,65.7796,91.3504,68.872,90.0216z M170.1759,88.9677
					L170.1759,88.9677c0.5482-1.6177,2.2971-2.4789,3.9078-1.9329l0,0c1.6153,0.5468,2.4758,2.2949,1.9321,3.9134l0,0
					c-0.441,1.2783-1.6293,2.0843-2.917,2.0843l0,0C170.9849,93.0325,169.5001,90.9574,170.1759,88.9677z M83.32,84.7414
					L83.32,84.7414c1.6247-0.5024,3.3424,0.4154,3.8394,2.0401l0,0c0.5018,1.6239-0.4131,3.3488-2.0377,3.8488l0,0
					c-0.3014,0.0932-0.6042,0.1328-0.9024,0.1328l0,0C80.6905,90.7632,79.9542,85.7573,83.32,84.7414z M155.6174,85.1569
					L155.6174,85.1569c0.9196-3.977,6.9166-2.635,6.0047,1.3871l0,0c-0.3308,1.4235-1.6013,2.3873-3.0024,2.3873l0,0
					C156.6365,88.9313,155.1702,87.0852,155.6174,85.1569z M98.2589,81.0534c1.6697-0.317,3.288,0.7843,3.6002,2.454l0,0
					c0.3138,1.6713-0.7937,3.2812-2.4634,3.5966l0,0c-0.1894,0.038-0.379,0.055-0.5684,0.055l0,0
					C94.6739,87.159,95.0685,81.0534,98.2589,81.0534z M140.744,82.7921L140.744,82.7921c0.5374-4.0538,6.6384-3.2858,6.118,0.7944
					l0,0c-0.2096,1.5549-1.5313,2.6786-3.0504,2.6786l0,0C141.8886,86.2651,140.5172,84.5924,140.744,82.7921z M113.5378,79.0729
					C129.4427,79.0729,97.6329,79.0729,113.5378,79.0729c1.7007-0.1218,3.1702,1.1556,3.2944,2.8564l0,0
					c0.115,1.6939-1.1603,3.1656-2.8596,3.2882l0,0c-0.076,0.007-0.1474,0.007-0.2204,0.007l0,0
					C109.647,85.2245,109.8116,79.0729,113.5378,79.0729z M128.6879,85.0187L128.6879,85.0187
					c-1.7007-0.0628-3.0272-1.4871-2.962-3.1894l0,0c0.146-4.078,6.303-3.9002,6.157,0.2236l0,0
					c-0.059,1.6619-1.4321,2.9728-3.0816,2.9728l0,0C128.7671,85.0257,128.7267,85.0187,128.6879,85.0187z"/>
			</g>
			<g id="XMLID_5641_">
				<path id="XMLID_5644_" fill="#FFFFFF" d="M220.1304,116.5497c2.8858-2.8788,7.2317,1.5137,4.3505,4.3599
					C221.6463,123.7917,217.2336,119.4481,220.1304,116.5497z"/>
			</g>
		</g>
	</g>
</g>
</svg>
