<?xml version="1.0" encoding="utf-8"?>
<!-- Generator: Adobe Illustrator 19.0.0, SVG Export Plug-In . SVG Version: 6.00 Build 0)  -->
<svg version="1.1" id="Layer_1" xmlns="http://www.w3.org/2000/svg" xmlns:xlink="http://www.w3.org/1999/xlink" x="0px" y="0px"
	 viewBox="0 0 433.78378 320.94595" style="enable-background:new 0 0 433.78378 320.94595;" xml:space="preserve">
<style type="text/css">
	.st0{fill-rule:evenodd;clip-rule:evenodd;fill:#934906;}
	.st1{fill:#EF7B05;}
</style>
<g id="XMLID_7037_">
	<path id="XMLID_7039_" class="st0" d="M111.91102,145.32123c1.81063-5.4005,38.34124-110.02686,96.0552-129.25565
		c10.98363-3.66003,34.65884,14.36049,61.25558,21.51956c26.5983,7.15949,56.11847,3.45764,63.78174,12.13688
		c40.2645,45.60176,18.61908,154.23479,17.47327,159.81424c53.41977,37.78108,77.98282,39.16725,64.62814,59.99391
		c-17.97678,28.03421-89.80023,33.44235-208.00177,1.62589C86.77378,238.76686,27.43896,198.0547,25.96353,164.78452
		C24.86724,140.06807,46.74358,151.18205,111.91102,145.32123z"/>
	<path id="XMLID_7038_" class="st1" d="M125.22589,112.8299c27.41112,14.99,68.05403,30.75898,111.67618,42.5008
		c43.51141,11.71202,87.10843,18.64223,118.62308,19.54826c-1.80008,18.17488-4.37085,31.47708-4.94327,34.32156
		c-35.23175-1.50909-78.3428-8.75154-122.61658-20.66876c-44.04837-11.85655-84.77969-27.13556-115.9453-43.42188
		C112.86534,142.62106,117.42582,129.69466,125.22589,112.8299z"/>
</g>
</svg>
