<?xml version="1.0" encoding="utf-8"?>
<!-- Generator: Adobe Illustrator 19.0.0, SVG Export Plug-In . SVG Version: 6.00 Build 0)  -->
<svg version="1.1" id="Layer_1" xmlns="http://www.w3.org/2000/svg" xmlns:xlink="http://www.w3.org/1999/xlink" x="0px" y="0px"
	 viewBox="0 0 187.8 204.1" style="enable-background:new 0 0 187.8 204.1;" xml:space="preserve">
<style type="text/css">
	.st0{clip-path:url(#XMLID_445_);}
	.st1{fill:none;}
	.st2{fill:#FFFFFF;}
	.st3{fill:#FF335F;}
	.st4{fill:#FF8FA7;}
	.st5{fill:#FF9217;}
	.st6{fill:#FFD519;}
	.st7{opacity:0.34;}
	.st8{opacity:0.37;fill:#FFFFFF;}
</style>
<g id="XMLID_993_">
	<g id="XMLID_997_">
		<g id="XMLID_1002_">
			<g id="XMLID_1003_">
				<defs>
					<path id="XMLID_1004_" d="M152.6,131.9c-7.7-6.7-15.4-13.5-23.1-20.2c-26.8-23.5-53.7-47-80.5-70.6c3.5,35.5,6.9,71,10.4,106.6
						c1,10.2,2,20.3,3,30.5c1.2,12.7-0.3,21.5,14.7,22.3c16.1,0.8,33.1-4.7,47.7-11.7c14.2-7.8,28.6-18.3,37.3-31.9
						C170.3,144.2,162.2,140.3,152.6,131.9z"/>
				</defs>
				<clipPath id="XMLID_445_">
					<use xlink:href="#XMLID_1004_"  style="overflow:visible;"/>
				</clipPath>
				<g id="XMLID_2116_" class="st0">
					
						<rect id="XMLID_2161_" x="45.8" y="-50.5" transform="matrix(-0.8896 0.4568 -0.4568 -0.8896 177.0728 -47.0779)" class="st1" width="96.8" height="96.8"/>
					<path id="XMLID_2159_" class="st2" d="M159.4,18.8L73.3,63L29.1-23.1l86.1-44.2L159.4,18.8z"/>
					
						<rect id="XMLID_2158_" x="45.8" y="-50.5" transform="matrix(-0.8896 0.4568 -0.4568 -0.8896 177.0728 -47.0779)" class="st3" width="96.8" height="96.8"/>
					<polygon id="XMLID_2157_" class="st4" points="157.6,19.7 159.4,18.8 157.7,15.6 154.1,17.5 					"/>
					<polygon id="XMLID_2156_" class="st4" points="136.3,26.6 132.6,28.6 136,30.8 139.8,28.9 140,24.7 					"/>
					<polygon id="XMLID_2155_" class="st4" points="114.8,37.7 111,39.6 114.5,41.8 118.3,39.9 118.5,35.8 					"/>
					<polygon id="XMLID_2154_" class="st4" points="93.2,48.7 89.5,50.7 93,52.9 96.8,51 97,46.8 					"/>
					<polygon id="XMLID_2153_" class="st4" points="71.7,59.8 71.6,59.8 73.3,63 75.2,62 75.4,57.9 					"/>
					<polygon id="XMLID_2152_" class="st4" points="137.8,12.3 141.3,14.5 144.8,16.8 145.1,12.6 145.3,8.4 141.5,10.3 					"/>
					<polygon id="XMLID_2151_" class="st4" points="116.3,23.3 119.8,25.6 123.3,27.9 123.5,23.7 123.7,19.5 120,21.4 					"/>
					<polygon id="XMLID_2150_" class="st4" points="94.8,34.4 98.3,36.6 101.8,38.9 102,34.7 102.2,30.5 98.5,32.5 					"/>
					<polygon id="XMLID_2149_" class="st4" points="73.2,45.4 76.8,47.7 80.3,50 80.5,45.8 80.7,41.6 77,43.5 					"/>
					<polygon id="XMLID_2148_" class="st4" points="146.6,-1.8 149.9,0.4 146.7,-5.9 143,-4 					"/>
					<polygon id="XMLID_2147_" class="st4" points="121.5,7 125,9.3 128.6,11.6 128.8,7.4 129,3.2 125.2,5.1 					"/>
					<polygon id="XMLID_2146_" class="st4" points="100,18.1 103.5,20.4 107,22.6 107.2,18.4 107.4,14.2 103.7,16.2 					"/>
					<polygon id="XMLID_2145_" class="st4" points="78.5,29.1 82,31.4 85.5,33.7 85.7,29.5 85.9,25.3 82.2,27.2 					"/>
					<polygon id="XMLID_2144_" class="st4" points="64.2,40.5 64.4,36.4 60.7,38.3 60.6,38.3 63.8,44.6 64,44.7 					"/>
					<polygon id="XMLID_2143_" class="st4" points="126.8,-9.3 130.3,-7 133.8,-4.7 134,-8.9 134.2,-13.1 130.5,-11.2 					"/>
					<polygon id="XMLID_2142_" class="st4" points="105.2,1.8 108.7,4.1 112.3,6.3 112.5,2.1 112.7,-2 109,-0.1 					"/>
					<polygon id="XMLID_2141_" class="st4" points="83.7,12.8 87.2,15.1 90.7,17.4 91,13.2 91.2,9 87.4,10.9 					"/>
					<polygon id="XMLID_2140_" class="st4" points="62.2,23.9 65.7,26.2 69.2,28.4 69.4,24.3 69.6,20.1 65.9,22 					"/>
					<polygon id="XMLID_2139_" class="st4" points="135.5,-23.3 138.9,-21.1 135.6,-27.4 132,-25.6 					"/>
					<polygon id="XMLID_2138_" class="st4" points="110.5,-14.5 114,-12.2 117.5,-10 117.7,-14.1 117.9,-18.3 114.2,-16.4 					"/>
					<polygon id="XMLID_2137_" class="st4" points="88.9,-3.4 92.5,-1.2 96,1.1 96.2,-3.1 96.4,-7.3 92.7,-5.4 					"/>
					<polygon id="XMLID_2136_" class="st4" points="67.4,7.6 70.9,9.9 74.5,12.1 74.7,8 74.9,3.8 71.1,5.7 					"/>
					<polygon id="XMLID_2135_" class="st4" points="53.1,19 53.3,14.8 49.6,16.7 49.5,16.8 52.8,23.1 52.9,23.2 					"/>
					<polygon id="XMLID_2134_" class="st4" points="115.7,-30.8 119.2,-28.5 122.7,-26.2 122.9,-30.4 123.2,-34.6 119.4,-32.7 					
						"/>
					<polygon id="XMLID_2133_" class="st4" points="94.2,-19.7 97.7,-17.5 101.2,-15.2 101.4,-19.4 101.6,-23.6 97.9,-21.6 					"/>
					<polygon id="XMLID_2132_" class="st4" points="72.6,-8.7 76.2,-6.4 79.7,-4.1 79.9,-8.3 80.1,-12.5 76.4,-10.6 					"/>
					<polygon id="XMLID_2131_" class="st4" points="51.1,2.4 54.6,4.6 58.2,6.9 58.4,2.7 58.6,-1.5 54.9,0.5 					"/>
					<polygon id="XMLID_2130_" class="st4" points="124.5,-44.8 127.8,-42.6 124.6,-49 120.9,-47.1 					"/>
					<polygon id="XMLID_2129_" class="st4" points="99.4,-36 102.9,-33.8 106.5,-31.5 106.7,-35.7 106.9,-39.9 103.1,-37.9 					"/>
					<polygon id="XMLID_2128_" class="st4" points="77.9,-25 81.4,-22.7 84.9,-20.4 85.1,-24.6 85.3,-28.8 81.6,-26.9 					"/>
					<polygon id="XMLID_2127_" class="st4" points="56.4,-13.9 59.9,-11.6 63.4,-9.4 63.6,-13.6 63.8,-17.7 60.1,-15.8 					"/>
					<polygon id="XMLID_2126_" class="st4" points="42.1,-2.5 42.3,-6.7 38.6,-4.8 38.5,-4.7 41.7,1.6 41.9,1.7 					"/>
					<polygon id="XMLID_2125_" class="st4" points="104.6,-52.3 108.2,-50 111.7,-47.8 111.9,-52 112.1,-56.1 108.4,-54.2 					"/>
					<polygon id="XMLID_2124_" class="st4" points="83.1,-41.3 86.6,-39 90.2,-36.7 90.4,-40.9 90.6,-45.1 86.8,-43.2 					"/>
					<polygon id="XMLID_2123_" class="st4" points="61.6,-30.2 65.1,-27.9 68.6,-25.7 68.8,-29.9 69.1,-34 65.3,-32.1 					"/>
					<polygon id="XMLID_2122_" class="st4" points="40.1,-19.2 43.6,-16.9 47.1,-14.6 47.3,-18.8 47.5,-23 43.8,-21.1 					"/>
					<polygon id="XMLID_2121_" class="st4" points="113.4,-66.4 113.4,-66.3 116.8,-64.1 115.2,-67.3 					"/>
					<polygon id="XMLID_2120_" class="st4" points="95.4,-53 95.6,-57.2 95.6,-57.2 91.8,-55.3 91.9,-55.3 					"/>
					<polygon id="XMLID_2119_" class="st4" points="73.9,-42 74.1,-46.1 74.1,-46.2 70.3,-44.3 70.4,-44.2 					"/>
					<polygon id="XMLID_2118_" class="st4" points="52.4,-30.9 52.6,-35.1 52.6,-35.1 48.8,-33.2 48.8,-33.2 					"/>
					<polygon id="XMLID_2117_" class="st4" points="31,-24 31,-24.1 29.1,-23.1 30.7,-19.9 30.8,-19.8 					"/>
				</g>
				<g id="XMLID_1398_" class="st0">
					
						<rect id="XMLID_2115_" x="90" y="35.6" transform="matrix(-0.8896 0.4568 -0.4568 -0.8896 299.9384 95.4212)" class="st1" width="96.8" height="96.8"/>
					<path id="XMLID_2113_" class="st2" d="M203.6,104.9l-86.1,44.2L73.3,63l86.1-44.2L203.6,104.9z"/>
					
						<rect id="XMLID_2112_" x="90" y="35.6" transform="matrix(-0.8896 0.4568 -0.4568 -0.8896 299.9384 95.4212)" class="st3" width="96.8" height="96.8"/>
					<polygon id="XMLID_2111_" class="st4" points="201.8,105.8 203.6,104.9 202,101.7 198.3,103.6 					"/>
					<polygon id="XMLID_2110_" class="st4" points="180.5,112.7 176.8,114.7 180.3,116.9 184,115 184.2,110.8 					"/>
					<polygon id="XMLID_2109_" class="st4" points="159,123.8 155.3,125.7 158.7,127.9 162.5,126 162.7,121.9 					"/>
					<polygon id="XMLID_2108_" class="st4" points="137.5,134.8 133.7,136.8 137.2,139 141,137.1 141.2,132.9 					"/>
					<polygon id="XMLID_2107_" class="st4" points="115.9,145.9 115.9,145.9 117.5,149.1 119.5,148.1 119.7,144 					"/>
					<polygon id="XMLID_2106_" class="st4" points="182,98.4 185.5,100.6 189.1,102.9 189.3,98.7 189.5,94.5 185.7,96.4 					"/>
					<polygon id="XMLID_2105_" class="st4" points="160.5,109.4 164,111.7 167.5,114 167.7,109.8 167.9,105.6 164.2,107.5 					"/>
					<polygon id="XMLID_2104_" class="st4" points="139,120.5 142.5,122.7 146,125 146.2,120.8 146.4,116.6 142.7,118.6 					"/>
					<polygon id="XMLID_2103_" class="st4" points="117.4,131.5 121,133.8 124.5,136.1 124.7,131.9 124.9,127.7 121.2,129.6 					
						"/>
					<polygon id="XMLID_2102_" class="st4" points="190.8,84.3 194.2,86.5 190.9,80.2 187.2,82.1 					"/>
					<polygon id="XMLID_2101_" class="st4" points="165.7,93.1 169.2,95.4 172.8,97.7 173,93.5 173.2,89.3 169.5,91.2 					"/>
					<polygon id="XMLID_2100_" class="st4" points="144.2,104.2 147.7,106.4 151.2,108.7 151.4,104.5 151.7,100.3 147.9,102.3 					
						"/>
					<polygon id="XMLID_2099_" class="st4" points="122.7,115.2 126.2,117.5 129.7,119.8 129.9,115.6 130.1,111.4 126.4,113.3 					
						"/>
					<polygon id="XMLID_2098_" class="st4" points="108.4,126.6 108.6,122.5 104.9,124.4 104.8,124.4 108.1,130.7 108.2,130.8 					
						"/>
					<polygon id="XMLID_2097_" class="st4" points="171,76.8 174.5,79.1 178,81.4 178.2,77.2 178.4,73 174.7,74.9 					"/>
					<polygon id="XMLID_2096_" class="st4" points="149.4,87.9 153,90.2 156.5,92.4 156.7,88.2 156.9,84.1 153.2,86 					"/>
					<polygon id="XMLID_2095_" class="st4" points="127.9,98.9 131.4,101.2 135,103.5 135.2,99.3 135.4,95.1 131.6,97 					"/>
					<polygon id="XMLID_2094_" class="st4" points="106.4,110 109.9,112.3 113.4,114.5 113.6,110.4 113.8,106.2 110.1,108.1 					
						"/>
					<polygon id="XMLID_2093_" class="st4" points="179.7,62.8 183.1,65 179.9,58.7 176.2,60.5 					"/>
					<polygon id="XMLID_2092_" class="st4" points="154.7,71.6 158.2,73.9 161.7,76.1 161.9,72 162.1,67.8 158.4,69.7 					"/>
					<polygon id="XMLID_2091_" class="st4" points="133.1,82.7 136.7,84.9 140.2,87.2 140.4,83 140.6,78.8 136.9,80.7 					"/>
					<polygon id="XMLID_2090_" class="st4" points="111.6,93.7 115.1,96 118.7,98.2 118.9,94.1 119.1,89.9 115.3,91.8 					"/>
					<polygon id="XMLID_2089_" class="st4" points="97.3,105.1 97.6,100.9 93.8,102.8 93.8,102.9 97,109.2 97.1,109.3 					"/>
					<polygon id="XMLID_2088_" class="st4" points="159.9,55.3 163.4,57.6 167,59.9 167.2,55.7 167.4,51.5 163.6,53.4 					"/>
					<polygon id="XMLID_2087_" class="st4" points="138.4,66.4 141.9,68.6 145.4,70.9 145.6,66.7 145.8,62.5 142.1,64.5 					"/>
					<polygon id="XMLID_2086_" class="st4" points="116.9,77.4 120.4,79.7 123.9,82 124.1,77.8 124.3,73.6 120.6,75.5 					"/>
					<polygon id="XMLID_2085_" class="st4" points="95.3,88.5 98.9,90.7 102.4,93 102.6,88.8 102.8,84.6 99.1,86.6 					"/>
					<polygon id="XMLID_2084_" class="st4" points="168.7,41.3 172,43.5 168.8,37.1 165.1,39 					"/>
					<polygon id="XMLID_1438_" class="st4" points="143.6,50.1 147.1,52.3 150.7,54.6 150.9,50.4 151.1,46.2 147.3,48.2 					"/>
					<polygon id="XMLID_1418_" class="st4" points="122.1,61.1 125.6,63.4 129.1,65.7 129.3,61.5 129.6,57.3 125.8,59.2 					"/>
					<polygon id="XMLID_1417_" class="st4" points="100.6,72.2 104.1,74.5 107.6,76.7 107.8,72.5 108,68.4 104.3,70.3 					"/>
					<polygon id="XMLID_1416_" class="st4" points="86.3,83.6 86.5,79.4 82.8,81.3 82.7,81.4 85.9,87.7 86.1,87.8 					"/>
					<polygon id="XMLID_1415_" class="st4" points="148.9,33.8 152.4,36.1 155.9,38.3 156.1,34.1 156.3,30 152.6,31.9 					"/>
					<polygon id="XMLID_1413_" class="st4" points="127.3,44.8 130.9,47.1 134.4,49.4 134.6,45.2 134.8,41 131.1,42.9 					"/>
					<polygon id="XMLID_1410_" class="st4" points="105.8,55.9 109.3,58.2 112.8,60.4 113.1,56.2 113.3,52.1 109.5,54 					"/>
					<polygon id="XMLID_1409_" class="st4" points="84.3,66.9 87.8,69.2 91.3,71.5 91.5,67.3 91.7,63.1 88,65 					"/>
					<polygon id="XMLID_1403_" class="st4" points="157.6,19.7 157.6,19.8 161,22 159.4,18.8 					"/>
					<polygon id="XMLID_1402_" class="st4" points="139.6,33.1 139.8,28.9 139.8,28.9 136,30.8 136.1,30.8 					"/>
					<polygon id="XMLID_1401_" class="st4" points="118.1,44.1 118.3,40 118.3,39.9 114.5,41.8 114.6,41.9 					"/>
					<polygon id="XMLID_1400_" class="st4" points="96.6,55.2 96.8,51 96.8,51 93,52.9 93,52.9 					"/>
					<polygon id="XMLID_1399_" class="st4" points="75.2,62.1 75.2,62 73.3,63 74.9,66.2 75,66.3 					"/>
				</g>
				<g id="XMLID_1347_" class="st0">
					
						<rect id="XMLID_1397_" x="134.3" y="121.7" transform="matrix(-0.8896 0.4568 -0.4568 -0.8896 422.8041 237.9203)" class="st1" width="96.8" height="96.8"/>
					<path id="XMLID_1395_" class="st2" d="M247.8,191l-86.1,44.2l-44.2-86.1l86.1-44.2L247.8,191z"/>
					
						<rect id="XMLID_1394_" x="134.3" y="121.7" transform="matrix(-0.8896 0.4568 -0.4568 -0.8896 422.8041 237.9203)" class="st3" width="96.8" height="96.8"/>
					<polygon id="XMLID_1389_" class="st4" points="246,191.9 247.8,191 246.2,187.8 242.5,189.7 					"/>
					<polygon id="XMLID_1388_" class="st4" points="224.7,198.8 221,200.8 224.5,203 228.2,201.1 228.4,196.9 					"/>
					<polygon id="XMLID_1387_" class="st4" points="203.2,209.9 199.5,211.8 202.9,214 206.7,212.1 206.9,208 					"/>
					<polygon id="XMLID_1386_" class="st4" points="181.7,220.9 177.9,222.9 181.4,225.1 185.2,223.2 185.4,219 					"/>
					<polygon id="XMLID_1385_" class="st4" points="160.1,232 160.1,232 161.7,235.2 163.7,234.2 163.9,230.1 					"/>
					<polygon id="XMLID_1384_" class="st4" points="226.2,184.5 229.7,186.7 233.3,189 233.5,184.8 233.7,180.6 230,182.5 					"/>
					<polygon id="XMLID_1383_" class="st4" points="204.7,195.5 208.2,197.8 211.7,200.1 211.9,195.9 212.2,191.7 208.4,193.6 					
						"/>
					<polygon id="XMLID_1382_" class="st4" points="183.2,206.6 186.7,208.8 190.2,211.1 190.4,206.9 190.6,202.7 186.9,204.7 					
						"/>
					<polygon id="XMLID_1381_" class="st4" points="161.6,217.6 165.2,219.9 168.7,222.2 168.9,218 169.1,213.8 165.4,215.7 					
						"/>
					<polygon id="XMLID_1380_" class="st4" points="235,170.4 238.4,172.6 235.1,166.3 231.5,168.2 					"/>
					<polygon id="XMLID_1379_" class="st4" points="209.9,179.2 213.5,181.5 217,183.8 217.2,179.6 217.4,175.4 213.7,177.3 					
						"/>
					<polygon id="XMLID_1378_" class="st4" points="188.4,190.3 191.9,192.5 195.5,194.8 195.7,190.6 195.9,186.4 192.1,188.4 					
						"/>
					<polygon id="XMLID_1377_" class="st4" points="166.9,201.3 170.4,203.6 173.9,205.9 174.1,201.7 174.3,197.5 170.6,199.4 					
						"/>
					<polygon id="XMLID_1376_" class="st4" points="152.6,212.7 152.8,208.6 149.1,210.5 149,210.5 152.3,216.8 152.4,216.9 					
						"/>
					<polygon id="XMLID_1375_" class="st4" points="215.2,162.9 218.7,165.2 222.2,167.5 222.4,163.3 222.6,159.1 218.9,161 					
						"/>
					<polygon id="XMLID_1374_" class="st4" points="193.6,174 197.2,176.3 200.7,178.5 200.9,174.3 201.1,170.2 197.4,172.1 					
						"/>
					<polygon id="XMLID_1373_" class="st4" points="172.1,185 175.6,187.3 179.2,189.6 179.4,185.4 179.6,181.2 175.8,183.1 					
						"/>
					<polygon id="XMLID_1372_" class="st4" points="150.6,196.1 154.1,198.4 157.6,200.6 157.8,196.5 158.1,192.3 154.3,194.2 					
						"/>
					<polygon id="XMLID_1371_" class="st4" points="223.9,148.9 227.3,151.1 224.1,144.8 220.4,146.6 					"/>
					<polygon id="XMLID_1370_" class="st4" points="198.9,157.7 202.4,160 205.9,162.2 206.1,158.1 206.3,153.9 202.6,155.8 					
						"/>
					<polygon id="XMLID_1369_" class="st4" points="177.4,168.8 180.9,171 184.4,173.3 184.6,169.1 184.8,164.9 181.1,166.8 					
						"/>
					<polygon id="XMLID_1368_" class="st4" points="155.8,179.8 159.4,182.1 162.9,184.3 163.1,180.2 163.3,176 159.6,177.9 					
						"/>
					<polygon id="XMLID_1367_" class="st4" points="141.6,191.2 141.8,187 138,188.9 138,189 141.2,195.3 141.4,195.4 					"/>
					<polygon id="XMLID_1366_" class="st4" points="204.1,141.4 207.6,143.7 211.2,146 211.4,141.8 211.6,137.6 207.8,139.5 					
						"/>
					<polygon id="XMLID_1365_" class="st4" points="182.6,152.5 186.1,154.7 189.6,157 189.8,152.8 190,148.6 186.3,150.6 					"/>
					<polygon id="XMLID_1364_" class="st4" points="161.1,163.5 164.6,165.8 168.1,168.1 168.3,163.9 168.5,159.7 164.8,161.6 					
						"/>
					<polygon id="XMLID_1362_" class="st4" points="139.5,174.6 143.1,176.8 146.6,179.1 146.8,174.9 147,170.7 143.3,172.7 					
						"/>
					<polygon id="XMLID_1361_" class="st4" points="212.9,127.4 216.3,129.6 213,123.2 209.4,125.1 					"/>
					<polygon id="XMLID_1360_" class="st4" points="187.8,136.2 191.4,138.4 194.9,140.7 195.1,136.5 195.3,132.3 191.6,134.3 					
						"/>
					<polygon id="XMLID_1359_" class="st4" points="166.3,147.2 169.8,149.5 173.3,151.8 173.6,147.6 173.8,143.4 170,145.3 					
						"/>
					<polygon id="XMLID_1358_" class="st4" points="144.8,158.3 148.3,160.6 151.8,162.8 152,158.6 152.2,154.5 148.5,156.4 					
						"/>
					<polygon id="XMLID_1357_" class="st4" points="130.5,169.7 130.7,165.5 127,167.4 126.9,167.5 130.2,173.8 130.3,173.9 					
						"/>
					<polygon id="XMLID_1356_" class="st4" points="193.1,119.9 196.6,122.2 200.1,124.4 200.3,120.2 200.5,116.1 196.8,118 					
						"/>
					<polygon id="XMLID_1355_" class="st4" points="171.5,130.9 175.1,133.2 178.6,135.5 178.8,131.3 179,127.1 175.3,129 					"/>
					<polygon id="XMLID_1354_" class="st4" points="150,142 153.5,144.3 157.1,146.5 157.3,142.3 157.5,138.2 153.7,140.1 					"/>
					<polygon id="XMLID_1353_" class="st4" points="128.5,153 132,155.3 135.5,157.6 135.7,153.4 135.9,149.2 132.2,151.1 					"/>
					<polygon id="XMLID_1352_" class="st4" points="201.8,105.8 201.8,105.9 205.2,108.1 203.6,104.9 					"/>
					<polygon id="XMLID_1351_" class="st4" points="183.8,119.2 184,115 184,115 180.3,116.9 180.3,116.9 					"/>
					<polygon id="XMLID_1350_" class="st4" points="162.3,130.2 162.5,126.1 162.5,126 158.7,127.9 158.8,128 					"/>
					<polygon id="XMLID_1349_" class="st4" points="140.8,141.3 141,137.1 141,137.1 137.2,139 137.2,139 					"/>
					<polygon id="XMLID_1348_" class="st4" points="119.5,148.2 119.5,148.1 117.5,149.1 119.1,152.3 119.2,152.4 					"/>
				</g>
				<g id="XMLID_1300_" class="st0">
					
						<rect id="XMLID_1346_" x="-40.3" y="-6.3" transform="matrix(-0.8896 0.4568 -0.4568 -0.8896 34.5739 75.7877)" class="st1" width="96.8" height="96.8"/>
					<path id="XMLID_1344_" class="st2" d="M73.3,63l-86.1,44.2L-57,21.1l86.1-44.2L73.3,63z"/>
					
						<rect id="XMLID_1343_" x="-40.3" y="-6.3" transform="matrix(-0.8896 0.4568 -0.4568 -0.8896 34.5739 75.7877)" class="st3" width="96.8" height="96.8"/>
					<polygon id="XMLID_1342_" class="st4" points="71.5,63.9 73.3,63 71.6,59.8 68,61.7 					"/>
					<polygon id="XMLID_1341_" class="st4" points="50.2,70.8 46.5,72.8 49.9,75 53.7,73.1 53.9,68.9 					"/>
					<polygon id="XMLID_1340_" class="st4" points="28.7,81.9 24.9,83.8 28.4,86.1 32.2,84.1 32.4,80 					"/>
					<polygon id="XMLID_1339_" class="st4" points="7.1,93 3.4,94.9 6.9,97.1 10.7,95.2 10.9,91 					"/>
					<polygon id="XMLID_1338_" class="st4" points="-14.4,104 -14.5,104 -12.8,107.2 -10.9,106.2 -10.7,102.1 					"/>
					<polygon id="XMLID_1337_" class="st4" points="51.7,56.5 55.2,58.7 58.7,61 59,56.8 59.2,52.6 55.4,54.6 					"/>
					<polygon id="XMLID_1336_" class="st4" points="30.2,67.5 33.7,69.8 37.2,72.1 37.4,67.9 37.6,63.7 33.9,65.6 					"/>
					<polygon id="XMLID_1335_" class="st4" points="8.7,78.6 12.2,80.8 15.7,83.1 15.9,78.9 16.1,74.7 12.4,76.7 					"/>
					<polygon id="XMLID_1334_" class="st4" points="-12.9,89.6 -9.3,91.9 -5.8,94.2 -5.6,90 -5.4,85.8 -9.1,87.7 					"/>
					<polygon id="XMLID_1333_" class="st4" points="60.5,42.5 63.8,44.6 60.6,38.3 56.9,40.2 					"/>
					<polygon id="XMLID_1332_" class="st4" points="35.4,51.2 38.9,53.5 42.5,55.8 42.7,51.6 42.9,47.4 39.1,49.3 					"/>
					<polygon id="XMLID_1331_" class="st4" points="13.9,62.3 17.4,64.6 20.9,66.8 21.1,62.6 21.3,58.5 17.6,60.4 					"/>
					<polygon id="XMLID_1330_" class="st4" points="-7.6,73.3 -4.1,75.6 -0.6,77.9 -0.4,73.7 -0.2,69.5 -3.9,71.4 					"/>
					<polygon id="XMLID_1329_" class="st4" points="-21.9,84.7 -21.7,80.6 -25.4,82.5 -25.5,82.5 -22.3,88.8 -22.1,88.9 					"/>
					<polygon id="XMLID_1328_" class="st4" points="40.7,34.9 44.2,37.2 47.7,39.5 47.9,35.3 48.1,31.1 44.4,33 					"/>
					<polygon id="XMLID_1327_" class="st4" points="19.1,46 22.6,48.3 26.2,50.5 26.4,46.4 26.6,42.2 22.9,44.1 					"/>
					<polygon id="XMLID_1326_" class="st4" points="-2.4,57.1 1.1,59.3 4.6,61.6 4.9,57.4 5.1,53.2 1.3,55.1 					"/>
					<polygon id="XMLID_1325_" class="st4" points="-23.9,68.1 -20.4,70.4 -16.9,72.6 -16.7,68.5 -16.5,64.3 -20.2,66.2 					"/>
					<polygon id="XMLID_1324_" class="st4" points="49.4,20.9 52.8,23.1 49.5,16.8 45.9,18.7 					"/>
					<polygon id="XMLID_1323_" class="st4" points="24.4,29.7 27.9,32 31.4,34.3 31.6,30.1 31.8,25.9 28.1,27.8 					"/>
					<polygon id="XMLID_1322_" class="st4" points="2.8,40.8 6.4,43 9.9,45.3 10.1,41.1 10.3,36.9 6.6,38.8 					"/>
					<polygon id="XMLID_1320_" class="st4" points="-18.7,51.8 -15.2,54.1 -11.6,56.4 -11.4,52.2 -11.2,48 -15,49.9 					"/>
					<polygon id="XMLID_1319_" class="st4" points="-33,63.2 -32.8,59 -36.5,61 -36.6,61 -33.3,67.3 -33.2,67.4 					"/>
					<polygon id="XMLID_1318_" class="st4" points="29.6,13.4 33.1,15.7 36.6,18 36.8,13.8 37.1,9.6 33.3,11.5 					"/>
					<polygon id="XMLID_1317_" class="st4" points="8.1,24.5 11.6,26.7 15.1,29 15.3,24.8 15.5,20.6 11.8,22.6 					"/>
					<polygon id="XMLID_1316_" class="st4" points="-13.5,35.5 -9.9,37.8 -6.4,40.1 -6.2,35.9 -6,31.7 -9.7,33.6 					"/>
					<polygon id="XMLID_1315_" class="st4" points="-35,46.6 -31.5,48.9 -27.9,51.1 -27.7,46.9 -27.5,42.8 -31.2,44.7 					"/>
					<polygon id="XMLID_1314_" class="st4" points="38.4,-0.6 41.7,1.6 38.5,-4.7 34.8,-2.9 					"/>
					<polygon id="XMLID_1313_" class="st4" points="13.3,8.2 16.8,10.5 20.4,12.7 20.6,8.5 20.8,4.4 17,6.3 					"/>
					<polygon id="XMLID_1312_" class="st4" points="-8.2,19.2 -4.7,21.5 -1.2,23.8 -1,19.6 -0.8,15.4 -4.5,17.3 					"/>
					<polygon id="XMLID_1311_" class="st4" points="-29.7,30.3 -26.2,32.6 -22.7,34.8 -22.5,30.6 -22.3,26.5 -26,28.4 					"/>
					<polygon id="XMLID_1310_" class="st4" points="-44,41.7 -43.8,37.5 -47.5,39.4 -47.6,39.5 -44.4,45.8 -44.2,45.9 					"/>
					<polygon id="XMLID_1309_" class="st4" points="18.5,-8.1 22.1,-5.8 25.6,-3.6 25.8,-7.7 26,-11.9 22.3,-10 					"/>
					<polygon id="XMLID_1308_" class="st4" points="-3,2.9 0.5,5.2 4.1,7.5 4.3,3.3 4.5,-0.9 0.7,1 					"/>
					<polygon id="XMLID_1307_" class="st4" points="-24.5,14 -21,16.3 -17.5,18.5 -17.3,14.4 -17,10.2 -20.8,12.1 					"/>
					<polygon id="XMLID_1306_" class="st4" points="-46,25.1 -42.5,27.3 -39,29.6 -38.8,25.4 -38.6,21.2 -42.3,23.1 					"/>
					<polygon id="XMLID_1305_" class="st4" points="27.3,-22.2 27.3,-22.1 30.7,-19.9 29.1,-23.1 					"/>
					<polygon id="XMLID_1304_" class="st4" points="9.3,-8.8 9.5,-13 9.5,-13 5.7,-11.1 5.8,-11.1 					"/>
					<polygon id="XMLID_1303_" class="st4" points="-12.2,2.3 -12,-1.9 -12,-2 -15.8,0 -15.7,0 					"/>
					<polygon id="XMLID_1302_" class="st4" points="-33.7,13.3 -33.5,9.1 -33.5,9.1 -37.3,11 -37.3,11 					"/>
					<polygon id="XMLID_1301_" class="st4" points="-55.1,20.2 -55.1,20.1 -57,21.1 -55.4,24.3 -55.3,24.4 					"/>
				</g>
				<g id="XMLID_1171_" class="st0">
					
						<rect id="XMLID_1299_" x="3.9" y="79.8" transform="matrix(-0.8896 0.4568 -0.4568 -0.8896 157.4395 218.2868)" class="st1" width="96.8" height="96.8"/>
					<path id="XMLID_1297_" class="st2" d="M117.5,149.1l-86.1,44.2l-44.2-86.1L73.3,63L117.5,149.1z"/>
					
						<rect id="XMLID_1296_" x="3.9" y="79.8" transform="matrix(-0.8896 0.4568 -0.4568 -0.8896 157.4395 218.2868)" class="st3" width="96.8" height="96.8"/>
					<polygon id="XMLID_1295_" class="st4" points="115.7,150 117.5,149.1 115.9,145.9 112.2,147.8 					"/>
					<polygon id="XMLID_1294_" class="st4" points="94.4,156.9 90.7,158.9 94.2,161.1 97.9,159.2 98.1,155 					"/>
					<polygon id="XMLID_1293_" class="st4" points="72.9,168 69.2,169.9 72.6,172.2 76.4,170.2 76.6,166.1 					"/>
					<polygon id="XMLID_1292_" class="st4" points="51.4,179.1 47.6,181 51.1,183.2 54.9,181.3 55.1,177.1 					"/>
					<polygon id="XMLID_1291_" class="st4" points="29.8,190.1 29.8,190.1 31.4,193.3 33.4,192.3 33.6,188.2 					"/>
					<polygon id="XMLID_1290_" class="st4" points="95.9,142.6 99.4,144.8 103,147.1 103.2,142.9 103.4,138.7 99.6,140.7 					"/>
					<polygon id="XMLID_1289_" class="st4" points="74.4,153.6 77.9,155.9 81.4,158.2 81.6,154 81.8,149.8 78.1,151.7 					"/>
					<polygon id="XMLID_1288_" class="st4" points="52.9,164.7 56.4,166.9 59.9,169.2 60.1,165 60.3,160.8 56.6,162.8 					"/>
					<polygon id="XMLID_1287_" class="st4" points="31.3,175.7 34.9,178 38.4,180.3 38.6,176.1 38.8,171.9 35.1,173.8 					"/>
					<polygon id="XMLID_1286_" class="st4" points="104.7,128.6 108.1,130.7 104.8,124.4 101.1,126.3 					"/>
					<polygon id="XMLID_1285_" class="st4" points="79.6,137.3 83.1,139.6 86.7,141.9 86.9,137.7 87.1,133.5 83.4,135.4 					"/>
					<polygon id="XMLID_1284_" class="st4" points="58.1,148.4 61.6,150.7 65.1,152.9 65.3,148.7 65.6,144.6 61.8,146.5 					"/>
					<polygon id="XMLID_1283_" class="st4" points="36.6,159.4 40.1,161.7 43.6,164 43.8,159.8 44,155.6 40.3,157.5 					"/>
					<polygon id="XMLID_1282_" class="st4" points="22.3,170.8 22.5,166.7 18.8,168.6 18.7,168.6 22,174.9 22.1,175 					"/>
					<polygon id="XMLID_1281_" class="st4" points="84.9,121 88.4,123.3 91.9,125.6 92.1,121.4 92.3,117.2 88.6,119.1 					"/>
					<polygon id="XMLID_1280_" class="st4" points="63.3,132.1 66.9,134.4 70.4,136.6 70.6,132.5 70.8,128.3 67.1,130.2 					"/>
					<polygon id="XMLID_1279_" class="st4" points="41.8,143.2 45.3,145.4 48.9,147.7 49.1,143.5 49.3,139.3 45.5,141.2 					"/>
					<polygon id="XMLID_1278_" class="st4" points="20.3,154.2 23.8,156.5 27.3,158.7 27.5,154.6 27.7,150.4 24,152.3 					"/>
					<polygon id="XMLID_1277_" class="st4" points="93.6,107 97,109.2 93.8,102.9 90.1,104.8 					"/>
					<polygon id="XMLID_1276_" class="st4" points="68.6,115.8 72.1,118.1 75.6,120.4 75.8,116.2 76,112 72.3,113.9 					"/>
					<polygon id="XMLID_1275_" class="st4" points="47,126.9 50.6,129.1 54.1,131.4 54.3,127.2 54.5,123 50.8,124.9 					"/>
					<polygon id="XMLID_1274_" class="st4" points="25.5,137.9 29,140.2 32.6,142.5 32.8,138.3 33,134.1 29.3,136 					"/>
					<polygon id="XMLID_1273_" class="st4" points="11.2,149.3 11.5,145.1 7.7,147.1 7.7,147.1 10.9,153.4 11,153.5 					"/>
					<polygon id="XMLID_1272_" class="st4" points="73.8,99.5 77.3,101.8 80.9,104.1 81.1,99.9 81.3,95.7 77.5,97.6 					"/>
					<polygon id="XMLID_1271_" class="st4" points="52.3,110.6 55.8,112.8 59.3,115.1 59.5,110.9 59.7,106.7 56,108.7 					"/>
					<polygon id="XMLID_1270_" class="st4" points="30.8,121.6 34.3,123.9 37.8,126.2 38,122 38.2,117.8 34.5,119.7 					"/>
					<polygon id="XMLID_1269_" class="st4" points="9.2,132.7 12.8,135 16.3,137.2 16.5,133 16.7,128.9 13,130.8 					"/>
					<polygon id="XMLID_1268_" class="st4" points="82.6,85.5 85.9,87.7 82.7,81.4 79,83.2 					"/>
					<polygon id="XMLID_1267_" class="st4" points="57.5,94.3 61,96.6 64.6,98.8 64.8,94.6 65,90.5 61.2,92.4 					"/>
					<polygon id="XMLID_1266_" class="st4" points="36,105.3 39.5,107.6 43,109.9 43.2,105.7 43.5,101.5 39.7,103.4 					"/>
					<polygon id="XMLID_1265_" class="st4" points="14.5,116.4 18,118.7 21.5,120.9 21.7,116.7 21.9,112.6 18.2,114.5 					"/>
					<polygon id="XMLID_1264_" class="st4" points="0.2,127.8 0.4,123.6 -3.3,125.5 -3.4,125.6 -0.2,131.9 0,132 					"/>
					<polygon id="XMLID_1263_" class="st4" points="62.8,78 66.3,80.3 69.8,82.5 70,78.4 70.2,74.2 66.5,76.1 					"/>
					<polygon id="XMLID_1234_" class="st4" points="41.2,89 44.8,91.3 48.3,93.6 48.5,89.4 48.7,85.2 45,87.1 					"/>
					<polygon id="XMLID_1233_" class="st4" points="19.7,100.1 23.2,102.4 26.7,104.6 27,100.5 27.2,96.3 23.4,98.2 					"/>
					<polygon id="XMLID_1232_" class="st4" points="-1.8,111.2 1.7,113.4 5.2,115.7 5.4,111.5 5.6,107.3 1.9,109.2 					"/>
					<polygon id="XMLID_1231_" class="st4" points="71.5,63.9 71.5,64 74.9,66.2 73.3,63 					"/>
					<polygon id="XMLID_1229_" class="st4" points="53.5,77.3 53.7,73.1 53.7,73.1 49.9,75 50,75 					"/>
					<polygon id="XMLID_1221_" class="st4" points="32,88.4 32.2,84.2 32.2,84.1 28.4,86.1 28.5,86.1 					"/>
					<polygon id="XMLID_1218_" class="st4" points="10.5,99.4 10.7,95.2 10.7,95.2 6.9,97.1 6.9,97.1 					"/>
					<polygon id="XMLID_1172_" class="st4" points="-10.9,106.3 -10.9,106.2 -12.8,107.2 -11.2,110.4 -11.1,110.5 					"/>
				</g>
				<g id="XMLID_1005_" class="st0">
					
						<rect id="XMLID_1159_" x="48.2" y="165.9" transform="matrix(-0.8896 0.4568 -0.4568 -0.8896 280.3051 360.7858)" class="st1" width="96.8" height="96.8"/>
					<path id="XMLID_1144_" class="st2" d="M161.7,235.2l-86.1,44.2l-44.2-86.1l86.1-44.2L161.7,235.2z"/>
					
						<rect id="XMLID_1142_" x="48.2" y="165.9" transform="matrix(-0.8896 0.4568 -0.4568 -0.8896 280.3051 360.7858)" class="st3" width="96.8" height="96.8"/>
					<polygon id="XMLID_1130_" class="st4" points="159.9,236.1 161.7,235.2 160.1,232 156.4,233.9 					"/>
					<polygon id="XMLID_1129_" class="st4" points="138.6,243 134.9,245 138.4,247.2 142.1,245.3 142.3,241.1 					"/>
					<polygon id="XMLID_1128_" class="st4" points="117.1,254.1 113.4,256 116.8,258.3 120.6,256.3 120.8,252.2 					"/>
					<polygon id="XMLID_1082_" class="st4" points="95.6,265.2 91.8,267.1 95.3,269.3 99.1,267.4 99.3,263.2 					"/>
					<polygon id="XMLID_1081_" class="st4" points="74,276.2 74,276.2 75.6,279.4 77.6,278.4 77.8,274.3 					"/>
					<polygon id="XMLID_1079_" class="st4" points="140.1,228.7 143.6,230.9 147.2,233.2 147.4,229 147.6,224.8 143.9,226.8 					
						"/>
					<polygon id="XMLID_1078_" class="st4" points="118.6,239.7 122.1,242 125.6,244.3 125.8,240.1 126.1,235.9 122.3,237.8 					
						"/>
					<polygon id="XMLID_1077_" class="st4" points="97.1,250.8 100.6,253 104.1,255.3 104.3,251.1 104.5,246.9 100.8,248.9 					"/>
					<polygon id="XMLID_1054_" class="st4" points="75.5,261.8 79.1,264.1 82.6,266.4 82.8,262.2 83,258 79.3,259.9 					"/>
					<polygon id="XMLID_1053_" class="st4" points="148.9,214.7 152.3,216.8 149,210.5 145.4,212.4 					"/>
					<polygon id="XMLID_1050_" class="st4" points="123.8,223.4 127.4,225.7 130.9,228 131.1,223.8 131.3,219.6 127.6,221.5 					
						"/>
					<polygon id="XMLID_1049_" class="st4" points="102.3,234.5 105.8,236.8 109.4,239 109.6,234.8 109.8,230.7 106,232.6 					"/>
					<polygon id="XMLID_1048_" class="st4" points="80.8,245.5 84.3,247.8 87.8,250.1 88,245.9 88.2,241.7 84.5,243.6 					"/>
					<polygon id="XMLID_1047_" class="st4" points="66.5,256.9 66.7,252.8 63,254.7 62.9,254.7 66.2,261 66.3,261.1 					"/>
					<polygon id="XMLID_1046_" class="st4" points="129.1,207.1 132.6,209.4 136.1,211.7 136.3,207.5 136.5,203.3 132.8,205.2 					
						"/>
					<polygon id="XMLID_1045_" class="st4" points="107.5,218.2 111.1,220.5 114.6,222.7 114.8,218.6 115,214.4 111.3,216.3 					
						"/>
					<polygon id="XMLID_1044_" class="st4" points="86,229.3 89.5,231.5 93.1,233.8 93.3,229.6 93.5,225.4 89.7,227.3 					"/>
					<polygon id="XMLID_1043_" class="st4" points="64.5,240.3 68,242.6 71.5,244.8 71.7,240.7 72,236.5 68.2,238.4 					"/>
					<polygon id="XMLID_1042_" class="st4" points="137.8,193.1 141.2,195.3 138,189 134.3,190.9 					"/>
					<polygon id="XMLID_1038_" class="st4" points="112.8,201.9 116.3,204.2 119.8,206.5 120,202.3 120.2,198.1 116.5,200 					"/>
					<polygon id="XMLID_1036_" class="st4" points="91.3,213 94.8,215.2 98.3,217.5 98.5,213.3 98.7,209.1 95,211 					"/>
					<polygon id="XMLID_1028_" class="st4" points="69.7,224 73.3,226.3 76.8,228.6 77,224.4 77.2,220.2 73.5,222.1 					"/>
					<polygon id="XMLID_1024_" class="st4" points="55.5,235.4 55.7,231.2 51.9,233.2 51.9,233.2 55.1,239.5 55.3,239.6 					"/>
					<polygon id="XMLID_1023_" class="st4" points="118,185.6 121.5,187.9 125.1,190.2 125.3,186 125.5,181.8 121.7,183.7 					"/>
					<polygon id="XMLID_1022_" class="st4" points="96.5,196.7 100,198.9 103.5,201.2 103.7,197 103.9,192.8 100.2,194.8 					"/>
					<polygon id="XMLID_1021_" class="st4" points="75,207.7 78.5,210 82,212.3 82.2,208.1 82.4,203.9 78.7,205.8 					"/>
					<polygon id="XMLID_1020_" class="st4" points="53.4,218.8 57,221.1 60.5,223.3 60.7,219.1 60.9,215 57.2,216.9 					"/>
					<polygon id="XMLID_1019_" class="st4" points="126.8,171.6 130.2,173.8 126.9,167.5 123.3,169.3 					"/>
					<polygon id="XMLID_1018_" class="st4" points="101.7,180.4 105.3,182.7 108.8,184.9 109,180.7 109.2,176.6 105.5,178.5 					
						"/>
					<polygon id="XMLID_1017_" class="st4" points="80.2,191.4 83.7,193.7 87.2,196 87.5,191.8 87.7,187.6 83.9,189.5 					"/>
					<polygon id="XMLID_1016_" class="st4" points="58.7,202.5 62.2,204.8 65.7,207 65.9,202.8 66.1,198.7 62.4,200.6 					"/>
					<polygon id="XMLID_1015_" class="st4" points="44.4,213.9 44.6,209.7 40.9,211.6 40.8,211.7 44.1,218 44.2,218.1 					"/>
					<polygon id="XMLID_1014_" class="st4" points="107,164.1 110.5,166.4 114,168.6 114.2,164.5 114.4,160.3 110.7,162.2 					"/>
					<polygon id="XMLID_1013_" class="st4" points="85.4,175.1 89,177.4 92.5,179.7 92.7,175.5 92.9,171.3 89.2,173.2 					"/>
					<polygon id="XMLID_1012_" class="st4" points="63.9,186.2 67.4,188.5 71,190.7 71.2,186.6 71.4,182.4 67.6,184.3 					"/>
					<polygon id="XMLID_1011_" class="st4" points="42.4,197.3 45.9,199.5 49.4,201.8 49.6,197.6 49.8,193.4 46.1,195.3 					"/>
					<polygon id="XMLID_1010_" class="st4" points="115.7,150 115.7,150.1 119.1,152.3 117.5,149.1 					"/>
					<polygon id="XMLID_1009_" class="st4" points="97.7,163.4 97.9,159.2 97.9,159.2 94.2,161.1 94.2,161.1 					"/>
					<polygon id="XMLID_1008_" class="st4" points="76.2,174.5 76.4,170.3 76.4,170.2 72.6,172.2 72.7,172.2 					"/>
					<polygon id="XMLID_1007_" class="st4" points="54.7,185.5 54.9,181.3 54.9,181.3 51.1,183.2 51.1,183.2 					"/>
					<polygon id="XMLID_1006_" class="st4" points="33.4,192.4 33.4,192.3 31.4,193.3 33,196.5 33.1,196.6 					"/>
				</g>
			</g>
		</g>
		<g id="XMLID_998_">
			<polygon id="XMLID_1001_" class="st5" points="52,8.1 48.2,39.2 44.5,8.1 			"/>
			<polygon id="XMLID_1000_" class="st3" points="30.6,5.1 47.2,38.5 23.2,9.9 			"/>
			<polygon id="XMLID_999_" class="st6" points="26.4,29.6 47.4,39.6 24.6,34.8 			"/>
		</g>
	</g>
	<g id="XMLID_994_" class="st7">
		<path id="XMLID_996_" class="st2" d="M50.2,50.7l15.7,79L80,200.4c6,0.2,12.1-0.5,18.2-1.8l-23.1-71.2L50.2,50.7z"/>
		<path id="XMLID_995_" class="st8" d="M50.2,50.7l15.7,79L80,200.4c6,0.2,12.1-0.5,18.2-1.8l-23.1-71.2L50.2,50.7z"/>
	</g>
</g>
</svg>
