<?xml version="1.0" encoding="utf-8"?>
<!-- Generator: Adobe Illustrator 19.0.0, SVG Export Plug-In . SVG Version: 6.00 Build 0)  -->
<svg version="1.1" id="Layer_1" xmlns="http://www.w3.org/2000/svg" xmlns:xlink="http://www.w3.org/1999/xlink" x="0px" y="0px"
	 viewBox="0 0 280.4 189.2" style="enable-background:new 0 0 280.4 189.2;" xml:space="preserve">
<style type="text/css">
	.st0{fill:#EF7B05;stroke:#FFFFFF;stroke-miterlimit:10;}
	.st1{fill:#FFFFFF;stroke:#EF7B05;stroke-width:4;stroke-miterlimit:10;}
	.st2{fill:#FFFFFF;stroke:#EF7B05;stroke-width:4;stroke-linecap:round;stroke-linejoin:round;stroke-miterlimit:10;}
</style>
<polygon id="XMLID_6847_" class="st0" points="155.4,16.3 168.2,15.3 148.5,76.1 135.7,77 "/>
<path id="XMLID_6845_" class="st1" d="M196,174.4c0,1.2-1.5,2.2-3.3,2.2H85.8c-1.8,0-3.3-1-3.3-2.2v-107c0-1.2,1.5-2.2,3.3-2.2
	h106.9c1.8,0,3.3,1,3.3,2.2V174.4z"/>
<path id="XMLID_6820_" class="st2" d="M151.8,79.4c0,1-0.6,1.9-1.2,1.9h-21.9c-0.7,0-1.2-0.9-1.2-1.9V75c0-1,0.6-1.9,1.2-1.9h21.9
	c0.7,0,1.2,0.9,1.2,1.9V79.4z"/>
<polygon id="XMLID_442_" class="st0" points="121.4,15.8 108.6,15.8 132.8,75.4 145.6,75.4 "/>
<image style="overflow:visible;" width="559" height="468" id="XMLID_6834_" xlink:href="20190612_210504_809_1x.png"  transform="matrix(0.1955 1.432157e-004 -1.432157e-004 0.1955 86.7345 81.3495)">
</image>
</svg>
