<?xml version="1.0" encoding="utf-8"?>
<!-- Generator: Adobe Illustrator 19.0.0, SVG Export Plug-In . SVG Version: 6.00 Build 0)  -->
<svg version="1.1" id="Layer_1" xmlns="http://www.w3.org/2000/svg" xmlns:xlink="http://www.w3.org/1999/xlink" x="0px" y="0px"
	 viewBox="0 0 237.3333 141.3333" enable-background="new 0 0 237.3333 141.3333" xml:space="preserve">
<g id="XMLID_248_">
	<g id="XMLID_7062_">
		
			<radialGradient id="XMLID_281_" cx="125.5441" cy="96.7531" r="82.6774" fx="120.8812" fy="97.0646" gradientTransform="matrix(0.9992 0.0403 -0.0243 0.6032 2.4552 33.3342)" gradientUnits="userSpaceOnUse">
			<stop  offset="0" style="stop-color:#FFFFFF"/>
			<stop  offset="1" style="stop-color:#CCCCCC"/>
		</radialGradient>
		<path id="XMLID_7070_" fill="url(#XMLID_281_)" d="M218.7108,108.9607c-13.2377-45.1628-52.6917-77.8583-99.1847-77.6881
			s-85.7066,33.1537-98.6133,78.4122L218.7108,108.9607z"/>
		
			<rect id="XMLID_7069_" x="20.9221" y="109.3228" transform="matrix(1 -0.0037 0.0037 1 -0.4094 0.4394)" fill="#1D71B8" width="197.7994" height="5.4772"/>
	</g>
	<g id="XMLID_249_">
		<path id="XMLID_7061_" fill="#EE8600" d="M88.4989,86.8967c0-0.4659,0.1381-0.8111,0.4142-1.0182
			c0.2761-0.2071,0.6558-0.3106,1.1562-0.3106c0.3106,0,0.5867,0.0345,0.8456,0.1208c0.2589,0.069,0.4314,0.1381,0.5177,0.1553
			v6.6094c0,1.139,0.2761,2.0018,0.8283,2.6058c0.5522,0.5867,1.3978,0.8974,2.5195,0.8974c1.139,0,1.9673-0.2934,2.5195-0.8974
			c0.5522-0.5867,0.8283-1.4669,0.8283-2.6058v-5.5568c0-0.4659,0.1381-0.8111,0.4142-1.0182
			c0.2761-0.2071,0.6558-0.3106,1.139-0.3106c0.3279,0,0.6213,0.0345,0.8801,0.1208c0.2589,0.069,0.4314,0.1381,0.5177,0.1553
			v7.2479c0,0.8629-0.1553,1.6222-0.4487,2.2952c-0.2934,0.673-0.7248,1.2598-1.2943,1.7257
			c-0.5522,0.4659-1.2253,0.8283-2.0018,1.0699c-0.7766,0.2416-1.6222,0.3624-2.554,0.3624s-1.7775-0.1208-2.554-0.3624
			c-0.7766-0.2416-1.4323-0.604-1.9846-1.0699s-0.9837-1.0527-1.2943-1.7257c-0.3106-0.673-0.4659-1.4496-0.4659-2.2952
			L88.4989,86.8967L88.4989,86.8967z"/>
		<path id="XMLID_7059_" fill="#EE8600" d="M103.3917,83.3245c0-0.4659,0.1381-0.8111,0.4142-1.0182
			c0.2761-0.2071,0.6558-0.3106,1.139-0.3106c0.3106,0,0.604,0.0345,0.8629,0.1208c0.2589,0.069,0.4487,0.1381,0.535,0.1553v3.2961
			h3.7275c0.5695,0,0.9664,0.1208,1.1907,0.3451c0.2416,0.2243,0.3451,0.5522,0.3451,1.0009c0,0.2934-0.0518,0.5522-0.1208,0.7938
			c-0.0863,0.2416-0.1553,0.4142-0.2071,0.5177h-4.9528v5.6085c0,0.4314,0.069,0.7938,0.1726,1.0699
			c0.1208,0.2761,0.2934,0.5005,0.5005,0.673s0.4659,0.2934,0.7421,0.3451c0.2761,0.069,0.5867,0.1035,0.8801,0.1035
			c0.5005,0,0.9664-0.069,1.3978-0.2243s0.7421-0.2934,0.9319-0.4314l1.1907,1.9155c-0.1381,0.1035-0.3279,0.2243-0.5867,0.3797
			c-0.2416,0.1553-0.5522,0.2934-0.9146,0.4314s-0.7593,0.2416-1.208,0.3451c-0.4487,0.0863-0.9319,0.1381-1.4668,0.1381
			c-1.5186,0-2.6576-0.3797-3.4341-1.139s-1.1562-1.7602-1.1562-3.0027V83.3245H103.3917z"/>
		<path id="XMLID_7034_" fill="#EE8600" d="M113.349,80.9948c0-0.4487,0.1381-0.7938,0.4142-1.0009
			c0.2761-0.2243,0.6558-0.3279,1.1562-0.3279c0.3106,0,0.5867,0.0345,0.8456,0.1208c0.2589,0.069,0.4314,0.1381,0.5177,0.1553
			v7.2307c0.4314-0.535,1.0182-1.0009,1.7775-1.3633c0.7593-0.3797,1.6222-0.5695,2.6058-0.5695
			c0.9491,0,1.812,0.1726,2.6231,0.5005c0.7938,0.3279,1.4841,0.7938,2.0881,1.3806c0.5867,0.604,1.0527,1.2943,1.3978,2.1054
			c0.3279,0.8111,0.5005,1.7084,0.5005,2.6748c0,0.9491-0.1726,1.8465-0.5177,2.6576c-0.3451,0.8283-0.8283,1.5186-1.4496,2.1226
			c-0.6213,0.5867-1.346,1.0527-2.2089,1.3806c-0.8456,0.3279-1.7775,0.5005-2.7956,0.5005s-1.95-0.1553-2.7956-0.4487
			c-0.8456-0.2934-1.5876-0.7593-2.2089-1.3633c-0.6213-0.604-1.1044-1.3633-1.4496-2.2607
			c-0.3451-0.8974-0.5177-1.9673-0.5177-3.1926L113.349,80.9948L113.349,80.9948z M120.2518,95.9566
			c0.5867,0,1.1217-0.1035,1.6049-0.3106c0.4832-0.2071,0.9146-0.5005,1.2598-0.8629c0.3451-0.3624,0.6212-0.7938,0.8111-1.277
			c0.1898-0.5005,0.2761-1.0354,0.2761-1.6222s-0.0863-1.139-0.2761-1.6394c-0.1898-0.5005-0.4659-0.9319-0.8111-1.2943
			c-0.3451-0.3624-0.7766-0.6385-1.2598-0.8628c-0.4832-0.2071-1.0354-0.3106-1.6049-0.3106c-0.604,0-1.139,0.1035-1.6394,0.3106
			c-0.4832,0.2071-0.8974,0.5005-1.2425,0.8628c-0.3451,0.3624-0.6213,0.8111-0.8111,1.3115
			c-0.1898,0.5005-0.2934,1.0354-0.2934,1.6049c0,0.604,0.1035,1.1562,0.2934,1.6567c0.1898,0.5005,0.4659,0.9319,0.8283,1.277
			c0.3451,0.3451,0.7766,0.6213,1.2598,0.8283C119.1473,95.8531,119.6823,95.9566,120.2518,95.9566"/>
		<path id="XMLID_7033_" fill="#EE8600" d="M129.0011,90.072c0-1.5531,0.4832-2.7439,1.4496-3.5895
			c0.9664-0.8456,2.3124-1.277,4.0381-1.277c1.0872,0,1.9673,0.1553,2.6403,0.4487c0.673,0.2934,1.0182,0.7421,1.0182,1.346
			c0,0.2934-0.0863,0.5695-0.2416,0.8283c-0.1726,0.2761-0.2934,0.4314-0.3969,0.5005c-0.2934-0.1381-0.6558-0.2589-1.0872-0.3797
			c-0.4314-0.1208-0.9146-0.1726-1.4669-0.1726c-2.0018,0-3.02,1.0354-3.02,3.1235v7.2997h-2.9337V90.072z"/>
		<path id="XMLID_7030_" fill="#EE8600" d="M150.8312,98.1483c-0.1726,0.0345-0.4487,0.069-0.8111,0.1208
			c-0.3624,0.0345-0.8111,0.0863-1.2943,0.1208c-0.5005,0.0345-1.0527,0.0863-1.6739,0.1208
			c-0.6213,0.0345-1.2598,0.0518-1.9328,0.0518c-1.3461,0-2.4332-0.1208-3.2788-0.3451c-0.8456-0.2243-1.5186-0.535-2.0018-0.8974
			c-0.4832-0.3797-0.8283-0.8111-1.0009-1.3115s-0.2761-1.0009-0.2761-1.5186c0-0.6903,0.1035-1.2943,0.3279-1.812
			c0.2071-0.5177,0.5695-0.9491,1.0527-1.3115c0.4832-0.3451,1.1217-0.6213,1.9155-0.7938s1.743-0.2589,2.8819-0.2589
			c0.6558,0,1.277,0.0173,1.8465,0.069c0.5867,0.0345,1.0182,0.0863,1.3115,0.1208c0-0.5867-0.1035-1.0699-0.2934-1.4668
			c-0.1898-0.3797-0.4659-0.6903-0.8111-0.8974c-0.3452-0.2243-0.7593-0.3624-1.2425-0.4487
			c-0.4832-0.0863-1.0182-0.1208-1.6049-0.1208c-0.9837,0-1.7602,0.1035-2.3642,0.3279c-0.5867,0.2243-0.9837,0.3969-1.1735,0.5522
			c-0.1035-0.0863-0.2416-0.2416-0.4314-0.4832c-0.1726-0.2416-0.2761-0.5177-0.2761-0.8628c0-0.2416,0.069-0.4659,0.1898-0.6903
			c0.1208-0.2243,0.3624-0.4314,0.6903-0.604s0.7593-0.3106,1.3115-0.4142c0.5522-0.1035,1.2425-0.1553,2.0881-0.1553
			c1.0182,0,1.9328,0.1035,2.7611,0.2934s1.5531,0.5005,2.1571,0.9146c0.604,0.4142,1.0699,0.9664,1.3978,1.6567
			c0.3279,0.6903,0.5004,1.5186,0.5004,2.485L150.8312,98.1483L150.8312,98.1483z M147.932,92.557
			c-0.1726-0.0345-0.5005-0.0863-0.9664-0.1553c-0.4659-0.069-1.1735-0.1035-2.1226-0.1035c-1.1735,0-2.0191,0.1726-2.554,0.5177
			c-0.535,0.3451-0.7938,0.8801-0.7938,1.6222c0,0.3106,0.0518,0.5867,0.1726,0.8283c0.1035,0.2589,0.3106,0.4659,0.5867,0.6385
			c0.2761,0.1726,0.6558,0.3106,1.1217,0.3969c0.4659,0.0863,1.0527,0.1381,1.7602,0.1381c0.7938,0,1.4151-0.0345,1.881-0.0863
			c0.4659-0.0518,0.7766-0.1035,0.9319-0.1381L147.932,92.557L147.932,92.557z"/>
		<path id="XMLID_7010_" fill="#EE8600" d="M154.9211,79.9076c0.5005,0,0.9146,0.1726,1.2598,0.5005
			c0.3451,0.3279,0.5177,0.7421,0.5177,1.2252c0,0.4832-0.1726,0.8974-0.5177,1.2253c-0.3451,0.3451-0.7593,0.5005-1.2598,0.5005
			s-0.9146-0.1726-1.2598-0.5005c-0.3451-0.3279-0.5177-0.7421-0.5177-1.2253c0-0.4832,0.1726-0.8974,0.5177-1.2252
			C154.0065,80.0802,154.4379,79.9076,154.9211,79.9076 M153.4543,86.8967c0-0.4659,0.138-0.8111,0.4142-1.0182
			c0.2761-0.2071,0.6558-0.3106,1.1562-0.3106c0.3106,0,0.5867,0.0345,0.8456,0.1208c0.2589,0.069,0.4314,0.1208,0.5177,0.1553
			v12.356h-2.9337L153.4543,86.8967L153.4543,86.8967z"/>
		<path id="XMLID_7009_" fill="#EE8600" d="M159.0283,90.5725c0-0.8456,0.1553-1.5876,0.4832-2.2434
			c0.3106-0.6558,0.7593-1.2252,1.3115-1.6912c0.5522-0.4659,1.2253-0.8111,1.9846-1.0527
			c0.7593-0.2416,1.6049-0.3624,2.5023-0.3624c0.9146,0,1.7602,0.1208,2.5195,0.3624c0.7766,0.2416,1.4323,0.604,2.0018,1.0527
			c0.5522,0.4659,1.0009,1.0182,1.2943,1.6912c0.3106,0.6558,0.4659,1.4151,0.4659,2.2434v7.6276h-2.9337v-6.9028
			c0-1.139-0.2934-2.0018-0.8456-2.6058c-0.5695-0.604-1.3978-0.8974-2.5023-0.8974c-1.1217,0-1.95,0.2934-2.5195,0.8974
			c-0.5522,0.5867-0.8456,1.4668-0.8456,2.6058v6.9028h-2.9337v-7.6276H159.0283z"/>
		<path id="XMLID_250_" fill="#EE8600" d="M86.1864,85.9648c-0.4832-1.1044-1.139-2.0708-2.0018-2.8819
			c-0.8456-0.8111-1.8465-1.4496-2.9855-1.9155c-1.139-0.4659-2.3815-0.6903-3.7275-0.6903s-2.5886,0.2243-3.7275,0.6903
			c-1.139,0.4659-2.1399,1.1044-2.9855,1.9155c-0.8456,0.8111-1.5186,1.7775-2.0018,2.8819
			c-0.4832,1.1044-0.7248,2.3124-0.7248,3.6067c0,1.2943,0.2416,2.485,0.7248,3.6067c0.4832,1.1044,1.139,2.0708,2.0018,2.8819
			c0.8456,0.8111,1.8465,1.4496,2.9855,1.9155c1.139,0.4659,2.3815,0.6903,3.7275,0.6903s2.5713-0.2243,3.7275-0.6903
			c1.139-0.4659,2.1399-1.1045,2.9855-1.9155c0.8456-0.8111,1.5186-1.7775,2.0018-2.8819c0.4832-1.1044,0.7248-2.3124,0.7248-3.6067
			C86.9112,88.2773,86.6696,87.0693,86.1864,85.9648 M71.8459,88.8985c1.0527-0.3451,2.4505-0.7766,2.4505-0.7766
			c3.0718-0.9491,3.4687-2.0708,3.4687-2.0708s0.6385,1.1217,2.8647,1.8638c0,0,1.2252,0.3969,2.3815,0.7938
			c0.0518,0.1208,0.1208,0.2243,0.1726,0.3451c0.2071,0.4659,0.3451,0.9491,0.4142,1.4669h-1.5704c0-0.0173,0-0.0173-0.0173-0.0345
			c-0.1208-0.2589-0.2761-0.4832-0.4832-0.6903c-0.2071-0.1898-0.4487-0.3451-0.7075-0.4487
			c-0.2761-0.1035-0.5695-0.1726-0.8801-0.1726c-0.3106,0-0.6212,0.0518-0.8801,0.1726c-0.2761,0.1035-0.5005,0.2589-0.7075,0.4487
			s-0.3624,0.4142-0.4659,0.6903c-0.0345,0.0863-0.069,0.1726-0.0863,0.2589h-0.6213c-0.0173-0.0863-0.0518-0.1726-0.0863-0.2589
			c-0.1208-0.2589-0.2761-0.4832-0.4659-0.6903c-0.2071-0.1898-0.4314-0.3451-0.7075-0.4487
			c-0.2761-0.1035-0.5695-0.1726-0.8801-0.1726c-0.3106,0-0.6213,0.0518-0.8801,0.1726c-0.2761,0.1035-0.5177,0.2589-0.7075,0.4487
			c-0.2071,0.1898-0.3624,0.4142-0.4832,0.6903c0,0.0173,0,0.0173-0.0173,0.0345h-1.5704c0.069-0.5177,0.2071-1.0009,0.4142-1.4669
			C71.7941,89.0021,71.8286,88.9503,71.8459,88.8985 M81.2682,91.349c0,0.1898-0.0345,0.3451-0.1035,0.5005
			s-0.1553,0.2934-0.2761,0.4142c-0.1208,0.1208-0.2589,0.2071-0.4142,0.2761c-0.1553,0.069-0.3451,0.1035-0.5177,0.1035
			c-0.1898,0-0.3624-0.0345-0.535-0.1035c-0.1553-0.069-0.2934-0.1553-0.4142-0.2761c-0.1208-0.1208-0.2071-0.2589-0.2761-0.4142
			c-0.069-0.1553-0.1035-0.3279-0.1035-0.5005c0-0.1898,0.0345-0.3451,0.1035-0.5005c0.069-0.1553,0.1553-0.2934,0.2761-0.4142
			c0.1208-0.1208,0.2589-0.2071,0.4142-0.2761c0.1553-0.069,0.3451-0.1035,0.535-0.1035s0.3624,0.0345,0.5177,0.1035
			c0.1553,0.069,0.3106,0.1553,0.4142,0.2761c0.1208,0.1208,0.2071,0.2589,0.2761,0.4142
			C81.2337,91.0039,81.2682,91.1765,81.2682,91.349 M76.35,91.349c0,0.1898-0.0345,0.3451-0.1035,0.5005
			c-0.069,0.1553-0.1553,0.2934-0.2761,0.4142c-0.1208,0.1208-0.2589,0.2071-0.4142,0.2761
			c-0.1553,0.069-0.3451,0.1035-0.535,0.1035s-0.3624-0.0345-0.5177-0.1035c-0.1553-0.069-0.2934-0.1553-0.4142-0.2761
			c-0.1208-0.1208-0.2071-0.2589-0.2761-0.4142c-0.069-0.1553-0.1035-0.3279-0.1035-0.5005c0-0.1898,0.0345-0.3451,0.1035-0.5005
			c0.069-0.1553,0.1553-0.2934,0.2761-0.4142c0.1208-0.1208,0.2589-0.2071,0.4142-0.2761c0.1553-0.069,0.3279-0.1035,0.5177-0.1035
			s0.3624,0.0345,0.535,0.1035c0.1553,0.069,0.2934,0.1553,0.4142,0.2761c0.1208,0.1208,0.2071,0.2589,0.2761,0.4142
			C76.3154,91.0039,76.35,91.1765,76.35,91.349 M81.8722,95.6633c-0.5522,0.535-1.208,0.9491-1.95,1.2598
			s-1.5704,0.4487-2.4332,0.4487c-0.8801,0-1.6912-0.1553-2.4332-0.4487c-0.7421-0.3106-1.3978-0.7248-1.9673-1.2598
			c-0.5522-0.535-1.0009-1.1562-1.3115-1.881c-0.3106-0.7075-0.4659-1.4668-0.4659-2.2779h1.4841
			c0.0173,0.2589,0.069,0.4832,0.1726,0.7075c0.1208,0.2589,0.2761,0.5005,0.4832,0.6903s0.4314,0.3451,0.7075,0.4487
			c0.2761,0.1035,0.5695,0.1726,0.8801,0.1726c0.3106,0,0.6212-0.0518,0.8801-0.1726c0.2761-0.1035,0.5177-0.2589,0.7075-0.4487
			c0.2071-0.1898,0.3624-0.4142,0.4659-0.6903c0.069-0.1726,0.1208-0.3624,0.1553-0.5522h0.4659
			c0.0173,0.1898,0.069,0.3797,0.1553,0.5522c0.1208,0.2589,0.2761,0.5005,0.4832,0.6903s0.4487,0.3451,0.7075,0.4487
			c0.2761,0.1035,0.5695,0.1726,0.8801,0.1726c0.3279,0,0.6213-0.0518,0.8801-0.1726c0.2761-0.1035,0.5005-0.2589,0.7075-0.4487
			s0.3624-0.4142,0.4659-0.6903c0.1035-0.2243,0.1553-0.4487,0.1726-0.7075h1.4841c-0.0173,0.8111-0.1726,1.5704-0.4659,2.2779
			C82.8731,94.507,82.4244,95.1283,81.8722,95.6633"/>
	</g>
</g>
</svg>
