<?xml version="1.0" encoding="utf-8"?>
<!-- Generator: Adobe Illustrator 19.0.0, SVG Export Plug-In . SVG Version: 6.00 Build 0)  -->
<svg version="1.1" id="Layer_1" xmlns="http://www.w3.org/2000/svg" xmlns:xlink="http://www.w3.org/1999/xlink" x="0px" y="0px"
	 viewBox="-304 124.3333 350.6667 312.6667" enable-background="new -304 124.3333 350.6667 312.6667" xml:space="preserve">
<path id="XMLID_15095_" fill="#EF7B05" d="M-128.0164,337.6629c-61.288,0-109.9201,33.4328-121.5306,90.1796
	c3.5645-70.0931,54.699-112.508,121.5306-112.508c66.8304,0,117.964,42.4137,121.5289,112.5069
	C-18.0992,371.0945-66.7304,337.6629-128.0164,337.6629z"/>
<path id="XMLID_15059_" d="M-200.7496,250.0117c0.0694,0,0.1388,0.0038,0.2049,0.0038c0.4997,0,1.0272-0.1592,1.5489-0.278
	c-0.4556,0.3774-0.9315,0.7462-1.2437,1.1903c-1.008,1.4364-1.1099,3.1106-0.3201,4.7241c0.0058,0.0143-0.0054,0.0294,0.0017,0.0413
	c0.0087,0.0167,0.022,0.0294,0.0308,0.0461c0.0079,0.021,0.0104,0.0397,0.0221,0.058c0.012,0.0238,0.0386,0.0338,0.0519,0.0548
	c0.853,1.5758,2.2859,2.5224,4.0891,2.6475c0.1388,0.0127,0.2831,0.0171,0.4232,0.0171c0.4289,0,0.8875-0.1422,1.3368-0.2256
	c-0.4971,0.369-1.0055,0.7341-1.3414,1.1762c-1.0563,1.3867-1.2138,3.0376-0.498,4.6666c0.0071,0.0159-0.0087,0.035,0,0.0536
	c0.0133,0.027,0.0329,0.0481,0.0441,0.0747c0.0087,0.0171,0.0087,0.0338,0.0175,0.0504c0.0091,0.0171,0.0266,0.0226,0.0345,0.0377
	c0.7661,1.6088,2.1429,2.6225,3.9275,2.8227c0.2182,0.025,0.4448,0.0377,0.6717,0.0377c0.3641,0,0.762-0.1235,1.1436-0.1839
	c-0.4888,0.342-0.9993,0.6773-1.3485,1.0967c-1.1319,1.3573-1.3722,3.0149-0.7308,4.6936c0.0071,0.0207-0.0104,0.0437-0.0017,0.0644
	c0.0104,0.027,0.0278,0.0457,0.0387,0.0723c0.0042,0.0111,0.0042,0.0195,0.0087,0.0278c0.0046,0.0103,0.0175,0.0143,0.022,0.0246
	c0.7204,1.664,2.0855,2.725,3.8875,2.9855c0.293,0.0461,0.5981,0.0671,0.9078,0.0671c0.2665,0,0.557-0.0941,0.8314-0.1251
	c-0.5013,0.3293-1.023,0.6479-1.3855,1.059c-1.1673,1.3176-1.4528,2.9645-0.8576,4.6539c0.0046,0.0143-0.0062,0.0266-0.0017,0.0409
	c0.0062,0.0211,0.0192,0.0338,0.0262,0.0548c0.0087,0.0226,0.0087,0.0437,0.0166,0.0663c0.0091,0.0211,0.0328,0.0294,0.0416,0.052
	c0.6526,1.662,1.9525,2.7627,3.7204,3.088c0.3704,0.0663,0.7636,0.1001,1.1648,0.1001c0.19,0,0.3974-0.0687,0.5911-0.0838
	c-0.4972,0.3051-1.0168,0.5966-1.3855,0.9839c-1.2217,1.2803-1.5787,2.9291-1.0467,4.6515
	c0.0045,0.0127-0.0088,0.0254-0.0042,0.0397c0.0062,0.0191,0.0174,0.0318,0.0208,0.05c0.007,0.0187,0.007,0.0381,0.0141,0.0592
	c0.0062,0.0199,0.0299,0.0286,0.037,0.0493c0.5998,1.6886,1.8718,2.8401,3.6364,3.2195c0.4369,0.0914,0.9041,0.1366,1.3834,0.1366
	c0.1048,0,0.2208-0.0385,0.3271-0.0437c-0.4967,0.286-1.0209,0.5573-1.3959,0.9279c-1.2628,1.2477-1.674,2.8898-1.1893,4.6372
	c0.0021,0.006-0.0042,0.0127-0.0017,0.0211c0,0,0.0079,0.0167,0.0104,0.027c0.0092,0.0294,0.0062,0.0564,0.015,0.0858
	c0.0071,0.0226,0.0353,0.0286,0.0441,0.052c0.5453,1.7097,1.782,2.893,3.5341,3.3208c0.5022,0.1251,1.0388,0.1831,1.5975,0.1831
	c0.0237,0,0.0499-0.0076,0.0719-0.0076c-0.4934,0.2665-1.0168,0.5144-1.3942,0.8667c-1.2961,1.2052-1.75,2.8251-1.3244,4.5748
	c0.0042,0.0143-0.0108,0.027-0.0062,0.0413c0.0046,0.021,0.0166,0.0354,0.022,0.056c0.0033,0.0211,0.0017,0.0397,0.0087,0.0608
	c0.0037,0.0151,0.0212,0.0183,0.0283,0.0334c0.4839,1.7323,1.6835,2.9621,3.4178,3.4447c0.5288,0.1478,1.1049,0.2058,1.696,0.2169
	c-0.4996,0.2538-1.0272,0.489-1.4162,0.8294c-1.3332,1.1718-1.8419,2.783-1.4707,4.5446c0.0029,0.0211-0.0174,0.0393-0.0129,0.0624
	c0.0071,0.0274,0.022,0.0504,0.0291,0.0771c0.0017,0.0083,0,0.0151,0,0.0151c0.0058,0.0286,0.0237,0.0457,0.0278,0.0667
	c0.454,1.743,1.6316,2.9979,3.3646,3.519c0.5217,0.1545,1.1037,0.2085,1.6948,0.2336c-0.5346,0.2479-1.0862,0.4842-1.4986,0.8298
	c-1.3593,1.1404-1.8984,2.7416-1.5692,4.5117c0.0025,0.0127-0.0087,0.0211-0.0062,0.0338c0.0025,0.0159,0.0112,0.0294,0.015,0.0453
	c0.0054,0.0278,0,0.052,0.007,0.0798c0.0042,0.0203,0.0283,0.0286,0.0349,0.0497c0.3924,1.7518,1.5164,3.0316,3.2203,3.5981
	c0.6763,0.2252,1.4267,0.3337,2.2252,0.3337c2.6882,0,5.8953-1.2378,8.4651-3.3895c0.5982-0.5001,1.0758-1.0467,1.5447-1.5953
	c0.7399,0.7361,1.3905,1.608,1.6195,2.7921c0.1177,0.6169,0.6805,1.0463,1.3173,1.0463c0.0794,0,0.1621-0.004,0.2444-0.0211
	c0.7287-0.1291,1.2088-0.7956,1.0733-1.4928c-0.3376-1.7539-1.3323-3.2869-2.766-4.5521c0.8297-1.691,1.0631-3.4694,0.6861-5.2172
	l-0.0867-0.0056v-0.002c0-1.7474-1.2926-3.2584-2.7613-4.4906c0.7836-1.7097,1.7613-3.4968,0.7613-5.2374v-0.0024v-0.006
	c0-1.7406-1.5579-3.2275-3.0594-4.4243c0.7378-1.7323,0.9297-3.5321,0.4563-5.266l-0.0161-0.0068
	c-0.0029-0.0016-0.006-0.004-0.006-0.004c-0.4909-1.7323-1.6196-3.1917-3.1626-4.3472c0.6792-1.751,0.8369-3.5544,0.309-5.2744
	l-0.0061-0.0068c-0.0017-0.0016-0.0004-0.004-0.0004-0.004c-0.5471-1.7196-1.7145-3.146-3.2854-4.2555
	c0.6235-1.776,0.7266-3.5873,0.1441-5.2994l-0.0042-0.006c-0.0029-0.0028,0.0016-0.0068,0-0.0111
	c-0.6069-1.7069-1.8286-3.0995-3.4481-4.1629c0.5596-1.7955,0.5919-3.6092-0.0607-5.3022l-0.0042-0.0024
	c-0.0021-0.006,0-0.0075,0-0.0075c-0.6722-1.6894-1.9442-3.0428-3.5957-4.0497c0.4905-1.8137,0.4587-3.6318-0.25-5.3018
	c-0.0029-0.0036-0.0106-0.0036-0.0106-0.0036v-0.0135c0-1.6675-2.0537-2.9788-3.7472-3.9294
	c0.4232-1.8364,0.3152-3.6612-0.4738-5.3145c0,0-0.0024-0.0016-0.0049-0.004c0,0,0.0027-0.006,0.0002-0.0087
	c-0.811-1.6429-2.1918-2.9021-3.9264-3.7864 M-165.2867,307.1888c0.7786,0.6983,1.474,1.5388,1.7671,2.7122l0.0017,0.0024
	c0.2773,1.1674,0.1181,2.2534-0.2461,3.2068c-0.6763-0.338-1.368-0.6649-2.1516-0.9029c-1.6649-0.5069-3.353-0.6546-4.9654-0.6129
	c1.462-0.653,2.8973-1.5782,4.1502-2.744C-166.1646,308.3232-165.7211,307.756-165.2867,307.1888z M-167.8918,297.6041
	c0.8002,0.6785,1.5251,1.5011,1.8585,2.6713c0.3163,1.1631,0.1871,2.2558-0.1505,3.2207c-0.6826-0.317-1.3809-0.6252-2.1666-0.8421
	c-1.6947-0.4664-3.4057-0.5672-5.031-0.4799c1.4557-0.6959,2.8753-1.6592,4.1015-2.8731
	C-168.7319,298.76-168.3087,298.1817-167.8918,297.6041z M-168.8674,290.7119c0.3538,1.1551,0.2619,2.2519-0.0432,3.2251
	c-0.6921-0.2975-1.3951-0.5883-2.1849-0.7817c-1.7097-0.4191-3.4269-0.4731-5.0523-0.3392
	c1.4329-0.7365,2.8254-1.7307,4.0101-2.9756c0.5321-0.5589,0.9382-1.1508,1.3369-1.743
	C-169.9818,288.752-169.2378,289.5528-168.8674,290.7119z M-174.0103,278.6446c0.8443,0.6356,1.6133,1.424,2.0248,2.5831
	c0.387,1.1508,0.3296,2.2499,0.0528,3.2334c-0.6942-0.2749-1.4029-0.5422-2.1957-0.7126c-1.738-0.3801-3.4664-0.3833-5.0934-0.1986
	c1.4179-0.7857,2.788-1.8221,3.9378-3.1166C-174.771,279.8561-174.3869,279.2515-174.0103,278.6446z M-177.5797,269.3209
	c0.8646,0.607,1.659,1.37,2.1146,2.5125c0.4365,1.1404,0.4273,2.2372,0.1916,3.2318c-0.7087-0.2566-1.4266-0.5001-2.2268-0.6447
	c-1.7592-0.3214-3.4955-0.2665-5.1229-0.0254c1.4005-0.8338,2.7427-1.9154,3.8484-3.2561
	C-178.2885,270.5491-177.9306,269.9338-177.5797,269.3209z M-182.6108,261.9571c0.461-0.605,0.7923-1.2278,1.1199-1.8515
	c0.8854,0.5756,1.7064,1.312,2.2031,2.439c0.4785,1.1305,0.5109,2.2264,0.3122,3.2318c-0.7133-0.2312-1.4354-0.452-2.2339-0.5716
	c-1.7866-0.2638-3.5475-0.1494-5.1844,0.1589C-184.9973,264.4736-183.6646,263.3391-182.6108,261.9571z M-186.8213,252.9219
	c0.4319-0.6197,0.7354-1.256,1.0342-1.8896c0.9141,0.5446,1.7717,1.2489,2.3212,2.3643c0.5279,1.1138,0.6044,2.2098,0.4452,3.2207
	c-0.7221-0.2058-1.4549-0.4-2.2605-0.4898c-1.7866-0.1919-3.5649-0.0036-5.2098,0.3797
	C-189.1275,255.5626-187.8381,254.3741-186.8213,252.9219z M-196.1676,255.9443c-0.9016-0.0624-1.5147-0.4878-1.9467-1.318
	c-0.4273-0.8338-0.3994-1.5551,0.1002-2.2678c1.1997-1.7013,4.7525-2.8445,8.0597-2.6066c0.4976,0.0381,1.1082,0.1295,1.7563,0.28
	c-0.2744,0.5688-0.5786,1.0709-0.853,1.4634C-190.8963,254.1386-194.0734,256.2284-196.1676,255.9443z M-192.1014,264.6301
	c-0.8875-0.1001-1.4744-0.5529-1.8523-1.4098c-0.3941-0.8445-0.345-1.5631,0.1766-2.2475c1.2612-1.66,4.8349-2.6852,8.1861-2.2971
	c0.4934,0.054,1.0978,0.1684,1.733,0.3396c-0.2993,0.5589-0.6264,1.0467-0.9166,1.428
	C-186.7465,263.0332-189.8795,264.9594-192.1014,264.6301z M-188.3315,273.4612c-0.8874-0.1267-1.4652-0.6026-1.8236-1.459
	c-0.3562-0.8759-0.2681-1.6052,0.2964-2.2813c1.3531-1.6263,4.896-2.4644,8.2348-1.9841c0.4926,0.0723,1.0908,0.2101,1.7214,0.4068
	c-0.323,0.5522-0.67,1.0336-0.9798,1.407C-182.9379,272.0482-186.2011,273.7948-188.3315,273.4612z M-184.9275,282.4305
	c-0.8771-0.1605-1.4312-0.6538-1.7542-1.5365c-0.3313-0.8775-0.2249-1.5929,0.3538-2.2451
	c1.3826-1.5599,5.0435-2.2979,8.3254-1.7136c0.4913,0.089,1.0862,0.2451,1.7106,0.462c-0.3446,0.5422-0.7117,1.0137-1.0342,1.3768
	C-179.4903,281.2091-182.8411,282.8305-184.9275,282.4305z M-181.8165,291.5162c-0.8771-0.1899-1.4208-0.6999-1.7143-1.6028
	c-0.2884-0.8902-0.1513-1.6036,0.4539-2.2372c1.4395-1.5055,5.1179-2.1307,8.3603-1.43c0.4186,0.0894,1.0209,0.2749,1.6711,0.5271
	c-0.3862,0.5688-0.7811,1.0379-1.0741,1.3446C-176.3967,290.5077-179.7135,291.9544-181.8165,291.5162z M-179.0064,300.7025
	c-0.8742-0.2145-1.4046-0.744-1.6727-1.6552c-0.264-0.8965-0.1048-1.6119,0.5204-2.2264c1.506-1.4769,5.1105-1.9937,8.3965-1.1841
	c0.4186,0.1041,1.0168,0.3082,1.6623,0.5791c-0.402,0.5545-0.8098,1.0094-1.1082,1.3053
	C-173.5651,299.8476-176.9375,301.236-179.0064,300.7025z M-176.5015,309.9757c-0.8634-0.2395-1.3718-0.7849-1.6079-1.7029
	c-0.2357-0.9112-0.0586-1.6155,0.5824-2.2165c1.5181-1.4177,5.2231-1.8221,8.4351-0.9422c0.4144,0.1144,1.008,0.338,1.6449,0.6256
	c-0.4211,0.5446-0.8426,0.9883-1.1523,1.2759C-170.9899,309.2428-174.4767,310.5429-176.5015,309.9757z M-174.2318,319.3204
	c-0.8605-0.2586-1.3601-0.8167-1.5842-1.7363c-0.2049-0.924-0.0071-1.6322,0.6589-2.2165c1.5796-1.397,5.2053-1.7013,8.4297-0.7214
	c0.4153,0.1271,1.0064,0.3674,1.6411,0.6733c-0.4361,0.5315-0.8705,0.9653-1.1872,1.2449
	C-168.761,318.7615-172.1904,319.946-174.2318,319.3204z M-164.2138,326.1674c-2.5523,2.1391-6.0171,3.2561-8.0419,2.5601
	c-0.8443-0.2789-1.3202-0.8505-1.5102-1.7784c-0.1933-0.9279,0.022-1.6254,0.6942-2.1911c1.5971-1.3343,5.3241-1.5595,8.4746-0.5172
	c0.4074,0.1355,0.9902,0.3857,1.6112,0.7071C-163.4393,325.4714-163.8862,325.8941-164.2138,326.1674z M-161.5995,322.7735
	c-0.6684-0.3531-1.3464-0.6944-2.1217-0.9506c-1.6507-0.549-3.3333-0.7365-4.9413-0.7365c1.4749-0.6153,2.9281-1.5095,4.2088-2.6376
	c0.5803-0.5128,1.0388-1.0689,1.4882-1.6263c0.7574,0.7194,1.4266,1.5726,1.6931,2.7484
	C-161.0188,320.7445-161.2088,321.8269-161.5995,322.7735z"/>
<path id="XMLID_15022_" d="M-60.8458,256.6506c-0.0029,0.0028,0,0.0067,0,0.0067c-0.0029,0.0044-0.0054,0.0044-0.0054,0.0044
	c-0.789,1.6548-0.5455,3.4797-0.1228,5.3161c-1.6931,0.9506-3.3963,2.2618-3.3963,3.9294v0.0087c0,0-0.3586,0.0048-0.3611,0.0083
	c-0.7092,1.6699-0.9153,3.488-0.4243,5.3018c-1.6519,1.007-3.0116,2.3603-3.6838,4.0473c0,0-0.0424,0.004-0.044,0.0083
	l-0.0262,0.004c-0.6526,1.693-0.6312,3.5067-0.0717,5.3022c-1.6195,1.0634-2.8467,2.456-3.4536,4.1629
	c0,0-0.0003,0.0083-0.0027,0.0111l-0.0059,0.006c-0.582,1.7121-0.3721,3.5234,0.2514,5.2994
	c-1.5709,1.1095-2.1779,2.5359-3.1779,4.2539v0.0056l-0.1129,0.0068c-0.5279,1.72-0.4227,3.5234,0.2565,5.2744
	c-1.543,1.1555-2.657,2.6149-3.148,4.3445l0.0043,0.0067v0.0044c0,1.7363,0.0078,3.5361,0.7461,5.2684
	c-1.5014,1.1968-2.7461,2.6837-2.7461,4.4243v0.006v0.0024c-1,1.7406-0.5223,3.5278,0.2613,5.2374
	c-1.469,1.2322-2.2613,2.7432-3.2613,4.4906v0.002l0.0628,0.0056c-0.3774,1.7478-0.0278,3.5262,0.8014,5.2172
	c-1.4334,1.2646-2.3944,2.7975-2.732,4.5525c-0.1355,0.6971,0.3446,1.3637,1.0729,1.4928c0.0827,0.0171,0.1654,0.0211,0.2444,0.0211
	c0.6368,0,1.2001-0.4294,1.3177-1.0463c0.2286-1.1841,0.8796-2.056,1.6195-2.7921c0.4685,0.5486,0.9461,1.0952,1.5443,1.5953
	c2.5702,2.1518,5.7772,3.3895,8.465,3.3895c0.799,0,1.5493-0.1084,2.2256-0.3337c1.7035-0.5664,2.8275-1.8463,3.2199-3.5981
	c0.0071-0.021,0.0308-0.0294,0.0353-0.0497c0.0071-0.0278,0.0017-0.052,0.0071-0.0798c0.0033-0.0159,0.012-0.0294,0.0149-0.0453
	c0.0025-0.0127-0.0087-0.0211-0.0062-0.0338c0.3288-1.77-0.2103-3.3712-1.5692-4.5117c-0.4124-0.3456-0.964-0.5819-1.4989-0.8298
	c0.591-0.025,1.1734-0.0791,1.6951-0.2336c1.7326-0.5212,2.9107-1.776,3.3642-3.519c0.0046-0.021,0.022-0.0381,0.0266-0.058
	c0.0017-0.0087,0-0.0155,0.0017-0.0238c0.0071-0.0266,0.022-0.0497,0.0291-0.0771c0.0046-0.023-0.0158-0.0413-0.0133-0.0624
	c0.3713-1.7617-0.1372-3.3728-1.4707-4.5446c-0.3887-0.3404-0.9162-0.5756-1.4158-0.8294c0.5911-0.0111,1.1672-0.0691,1.6956-0.2169
	c1.7346-0.4826,2.9343-1.7124,3.4182-3.4447c0.0071-0.0151,0.0245-0.0183,0.0283-0.0334c0.0071-0.0211,0.005-0.0397,0.0087-0.0608
	c0.005-0.0206,0.0175-0.035,0.022-0.056c0.0042-0.0143-0.0108-0.027-0.0062-0.0413c0.4257-1.7498-0.0283-3.3697-1.3248-4.5748
	c-0.3774-0.3523-0.9008-0.6002-1.3942-0.8667c0.022,0,0.0486,0.0076,0.0723,0.0076c0.5587,0,1.0949-0.058,1.5975-0.1831
	c1.7521-0.4278,2.9888-1.6111,3.5338-3.3208c0.0092-0.0234,0.037-0.0294,0.0441-0.052c0.0087-0.0294,0.0063-0.0564,0.015-0.0858
	c0.0029-0.0103,0.0087-0.0167,0.0108-0.027c0.0025-0.0083-0.0037-0.0151-0.0021-0.0211c0.4847-1.7474,0.074-3.3895-1.1889-4.6372
	c-0.3749-0.3706-0.8991-0.6419-1.3959-0.9279c0.1065,0.0052,0.2224,0.0437,0.3271,0.0437c0.4793,0,0.9461-0.0453,1.3834-0.1366
	c1.7646-0.3793,3.0362-1.5309,3.636-3.2195c0.0071-0.0207,0.0312-0.0294,0.037-0.0493c0.0071-0.021,0.0071-0.0405,0.0141-0.0592
	c0.0038-0.0183,0.015-0.031,0.0213-0.05c0.0045-0.0143-0.0088-0.027-0.0046-0.0397c0.5325-1.7224,0.1754-3.3712-1.0467-4.6515
	c-0.3683-0.3873-0.8883-0.6788-1.3851-0.9839c0.1933,0.0151,0.4011,0.0838,0.5911,0.0838c0.4011,0,0.794-0.0338,1.1644-0.1001
	c1.7679-0.3253,3.0682-1.426,3.7208-3.088c0.0087-0.0226,0.0324-0.031,0.0412-0.052c0.0079-0.0226,0.0079-0.0437,0.0166-0.0663
	c0.0071-0.0211,0.0204-0.0338,0.0266-0.0548c0.0042-0.0143-0.0062-0.0266-0.0017-0.0409c0.5953-1.6894,0.3093-3.3363-0.8576-4.6539
	c-0.3625-0.4111-0.8842-0.7297-1.3855-1.059c0.2744,0.031,0.5645,0.1251,0.8314,0.1251c0.3093,0,0.6148-0.0211,0.9074-0.0671
	c1.8024-0.2606,3.1675-1.3216,3.8879-2.9855c0.0042-0.0103,0.0175-0.0143,0.022-0.0246c0.0042-0.0083,0.0042-0.0167,0.0087-0.0278
	c0.0104-0.0266,0.0283-0.0453,0.0387-0.0723c0.0088-0.0207-0.0087-0.0437-0.0017-0.0644c0.641-1.6787,0.4012-3.3363-0.7312-4.6936
	c-0.3492-0.4195-0.8592-0.7547-1.3481-1.0967c0.3816,0.0604,0.779,0.1839,1.1431,0.1839c0.227,0,0.4539-0.0127,0.6722-0.0377
	c1.7845-0.2002,3.1613-1.2139,3.9274-2.8227c0.0079-0.0151,0.0254-0.0207,0.0341-0.0377c0.0087-0.0167,0.0087-0.0334,0.0178-0.0504
	c0.0113-0.0266,0.0308-0.0477,0.0437-0.0747c0.0087-0.0187-0.0071-0.0377,0-0.0536c0.7162-1.629,0.5587-3.2799-0.4976-4.6666
	c-0.3363-0.4421-0.8447-0.8072-1.3414-1.1762c0.4494,0.0834,0.9079,0.2256,1.3369,0.2256c0.14,0,0.2843-0.0044,0.4231-0.0171
	c1.8033-0.1251,3.2361-1.0717,4.0891-2.6475c0.0133-0.0211,0.0396-0.031,0.052-0.0548c0.0112-0.0183,0.0141-0.0369,0.022-0.058
	c0.0087-0.0167,0.022-0.0294,0.0308-0.0461c0.0071-0.0119-0.0046-0.027,0.0017-0.0413 M-75.1546,313.1969
	c1.2525,1.1659,2.6882,2.091,4.1498,2.744c-1.612-0.0417-3.3001,0.1061-4.9649,0.6129c-0.784,0.2379-1.4753,0.5649-2.1516,0.9029
	c-0.3642-0.9533-0.5234-2.0394-0.2461-3.2068c0.0017-0.0024,0.0017-0.0024,0.0017-0.0024c0.2927-1.1734,0.9885-2.0139,1.7671-2.7122
	C-76.1644,312.1026-75.7212,312.6698-75.1546,313.1969z M-72.6057,303.6477c1.2263,1.2139,2.6458,2.1772,4.1016,2.8731
	c-1.6253-0.0874-3.3363,0.0135-5.0311,0.4799c-0.7857,0.2169-1.484,0.5251-2.1666,0.8421c-0.338-0.9649-0.4672-2.0576-0.1505-3.2207
	c0.3334-1.1702,1.0583-1.9929,1.8585-2.6713C-73.5767,302.5283-73.1535,303.1066-72.6057,303.6477z M-71.0847,292.4439
	c0.3983,0.5923,0.8048,1.1841,1.3369,1.743c1.1847,1.2449,2.5773,2.2392,4.0101,2.9756c-1.6257-0.1339-3.3425-0.0798-5.0522,0.3392
	c-0.7902,0.1934-1.4927,0.4842-2.1853,0.7817c-0.3051-0.9732-0.3965-2.0699-0.0428-3.2251
	C-72.6476,293.8994-71.9036,293.0986-71.0847,292.4439z M-66.6015,284.7799c1.1494,1.2946,2.5199,2.3309,3.9378,3.1166
	c-1.6275-0.1847-3.3555-0.1815-5.0939,0.1986c-0.7923,0.1704-1.5014,0.4377-2.1952,0.7126
	c-0.2773-0.9835-0.3342-2.0826,0.0528-3.2334c0.4115-1.1591,1.1805-1.9476,2.0248-2.5831
	C-67.4989,283.5981-67.1144,284.2027-66.6015,284.7799z M-63.1105,275.4856c1.1057,1.3406,2.448,2.4223,3.848,3.2561
	c-1.627-0.2411-3.3633-0.2959-5.1225,0.0254c-0.8006,0.1446-1.5181,0.3881-2.2272,0.6447c-0.2357-0.9947-0.2444-2.0914,0.192-3.2318
	c0.4556-1.1424,1.2496-1.9055,2.1142-2.5125C-63.9548,274.2804-63.5969,274.8957-63.1105,275.4856z M-55.4918,269.7103
	c-1.6366-0.3083-3.3974-0.4227-5.184-0.1589c-0.7985,0.1196-1.521,0.3404-2.2343,0.5716c-0.1987-1.0054-0.1659-2.1013,0.3126-3.2318
	c0.4967-1.1269,1.3173-1.8634,2.2031-2.439c0.3271,0.6236,0.6589,1.2465,1.1199,1.8515
	C-58.2208,267.6857-56.8885,268.8202-55.4918,269.7103z M-55.064,257.2685c1.0167,1.4522,2.3062,2.6407,3.6696,3.5853
	c-1.6449-0.3833-3.4236-0.5716-5.2098-0.3797c-0.8056,0.0898-1.5385,0.284-2.2605,0.4898
	c-0.1592-1.0109-0.0827-2.1069,0.4448-3.2207 M-43.8717,256.7052c0.4996,0.7126,0.5279,1.434,0.1006,2.2678
	c-0.4318,0.8302-1.045,1.2556-1.9467,1.318 M-57.1109,264.7899c-0.2901-0.3813-0.6173-0.8691-0.9166-1.428
	c0.6352-0.1712,1.2396-0.2856,1.733-0.3396c3.3509-0.3881,6.9249,0.6371,8.1861,2.2971c0.5217,0.6844,0.5707,1.403,0.1767,2.2475
	c-0.3783,0.8568-0.9649,1.3096-1.8524,1.4098C-52.0059,269.306-55.1389,267.3798-57.1109,264.7899z M-61.003,273.8971
	c-0.3096-0.3734-0.6572-0.8548-0.9798-1.407c0.6306-0.1966,1.2288-0.3345,1.7214-0.4068c3.3388-0.4802,6.8817,0.3579,8.2343,1.9841
	c0.5649,0.6761,0.6526,1.4054,0.2964,2.2813c-0.3579,0.8564-0.9357,1.3323-1.8232,1.459
	C-55.6842,278.1414-58.9474,276.3948-61.003,273.8971z M-64.5592,283.1207c-0.323-0.3631-0.6897-0.8346-1.0343-1.3768
	c0.6244-0.2169,1.2188-0.373,1.7105-0.462c3.2818-0.5843,6.9424,0.1537,8.3254,1.7136c0.5786,0.6523,0.6851,1.3676,0.3533,2.2451
	c-0.3226,0.8826-0.8767,1.376-1.7538,1.5365C-59.0443,287.1771-62.3956,285.5557-64.5592,283.1207z M-67.7662,292.4646
	c-0.2926-0.3067-0.6875-0.7758-1.0737-1.3446c0.6497-0.2522,1.2525-0.4377,1.6711-0.5271c3.2419-0.7007,6.9204-0.0755,8.3603,1.43
	c0.6053,0.6336,0.7425,1.347,0.4539,2.2372c-0.2939,0.9029-0.8372,1.4129-1.7143,1.6028
	C-62.1719,296.301-65.4891,294.8543-67.7662,292.4646z M-70.6777,301.8677c-0.298-0.2959-0.7063-0.7507-1.1082-1.3053
	c0.6456-0.2709,1.2437-0.4751,1.6623-0.5791c3.2865-0.8096,6.8908-0.2928,8.3965,1.1841c0.6256,0.6145,0.7848,1.3299,0.5208,2.2264
	c-0.2681,0.9112-0.7985,1.4407-1.6731,1.6552C-64.9479,305.5826-68.3203,304.1942-70.6777,301.8677z M-73.2865,311.3622
	c-0.3093-0.2876-0.7308-0.7313-1.1519-1.2759c0.6364-0.2876,1.2304-0.5112,1.6445-0.6256c3.2124-0.8799,6.917-0.4755,8.4351,0.9422
	c0.6414,0.601,0.8181,1.3053,0.5824,2.2165c-0.2357,0.918-0.7441,1.4634-1.6079,1.7029
	C-67.4091,314.8895-70.8955,313.5894-73.2865,311.3622z M-75.6119,320.9111c-0.3167-0.2796-0.7511-0.7134-1.1876-1.2449
	c0.6352-0.3059,1.2263-0.5462,1.6415-0.6733c3.2245-0.9799,6.8501-0.6757,8.4297,0.7214c0.6659,0.5843,0.8638,1.2926,0.6589,2.2165
	c-0.2245,0.9196-0.7241,1.4777-1.5842,1.7363C-69.695,324.2926-73.1244,323.1081-75.6119,320.9111z M-78.9,329.2945
	c0.621-0.3214,1.2043-0.5716,1.6116-0.7071c3.1505-1.0423,6.8775-0.8171,8.4746,0.5172c0.6722,0.5656,0.8875,1.2632,0.6942,2.1911
	c-0.19,0.9279-0.6659,1.4995-1.5106,1.7784c-2.0244,0.6959-5.4891-0.4211-8.0419-2.5601
	C-77.9992,330.2407-78.4461,329.818-78.9,329.2945z M-80.6134,323.9177c0.2669-1.1758,0.9361-2.029,1.6935-2.7484
	c0.4494,0.5573,0.9074,1.1134,1.4882,1.6263c1.2807,1.1281,2.7336,2.0223,4.2088,2.6376c-1.6078,0-3.2906,0.1875-4.9417,0.7365
	c-0.7749,0.2562-1.4529,0.5974-2.1213,0.9506C-80.6766,326.1735-80.8666,325.0911-80.6134,323.9177z"/>
<path id="XMLID_15058_" fill="#FFF24A" d="M-25.1365,284.6215l12.8439-19.5312l24.1189-0.9621
	c7.7501-0.309,11.7652-8.9761,6.7944-14.6663L3.1509,231.7532l6.4959-22.2168c2.0872-7.1389-5.2983-13.4659-12.4976-10.7068
	l-22.4051,8.5868l-20.1039-12.7688c-6.4602-4.1029-15.0396,0.6534-14.5183,8.0494l1.6229,23.0152l-18.9209,14.3255
	c-6.0802,4.603-3.9972,13.8699,3.5246,15.6816l23.4077,5.6374l8.4106,21.6222C-39.1305,289.9272-29.2638,290.8976-25.1365,284.6215z
	"/>
<g id="XMLID_15053_">
	<path id="XMLID_15057_" fill="#FFCE00" d="M-54.9312,222.7882c-1.1714,1.2258-3.3238,2.924-3.3238,2.924l-1.6225-23.0156
		c-0.2349-3.3272,1.4196-6.0601,3.8476-7.7526C-59.7295,200.3954-53.5644,221.3586-54.9312,222.7882z"/>
	<path id="XMLID_15056_" fill="#FFCE00" d="M-77.1763,240.0377l0.3076-0.2332c-2.9709,5.8507,0.6555,10.4697,6.4307,11.86
		l23.4073,5.6378l8.4106,21.6221c2.3432,6.0247,11.3246,7.8087,16.9979,0.3527l-3.5142,5.3447
		c-4.1269,6.2758-13.9937,5.3053-16.6965-1.6425l-8.411-21.6229l-23.4073-5.637
		C-81.1727,253.9076-83.2557,244.6408-77.1763,240.0377z"/>
	<path id="XMLID_15054_" fill="#FFCE00" d="M-8.2118,261.0009c1.7683-0.0707,23.6439,1.378,28.3299-2.5931
		c-1.262,3.1047-4.2454,5.5592-8.2921,5.7208l-24.1185,0.9617C-12.2925,265.0903-9.9801,261.0712-8.2118,261.0009z"/>
</g>
<path id="XMLID_15094_" fill="#FFF24A" d="M-214.793,281.9267l-11.6651-20.2576l-24.0193-2.3887
	c-7.7186-0.7674-11.213-9.6571-5.914-15.0429L-239.9,227.476l-5.1689-22.5625c-1.6607-7.25,6.086-13.1285,13.1097-9.9479
	l21.8569,9.8985l20.8252-11.5558c6.6918-3.7131,14.9744,1.5429,14.0161,8.895l-2.9829,22.8787l18.0393,15.4208
	c5.7965,4.955,3.1684,14.0822-4.4471,15.4454l-23.7005,4.2413l-9.6763,21.0862
	C-201.1376,288.0518-211.0445,288.4362-214.793,281.9267z"/>
<g id="XMLID_15090_">
	<path id="XMLID_15093_" fill="#FFCE00" d="M-181.3888,221.9664c1.0968,1.293,3.1449,3.1157,3.1449,3.1157l2.9825-22.8791
		c0.4315-3.3074-1.0582-6.1335-3.3821-7.9669C-175.2728,199.897-182.6689,220.4583-181.3888,221.9664z"/>
	<path id="XMLID_15092_" fill="#FFCE00" d="M-160.2042,240.5029l-0.2937-0.251c2.6196,6.0164-1.274,10.4125-7.1214,11.4584
		l-23.7001,4.2418l-9.6767,21.0861c-2.6959,5.8754-11.7666,7.1244-16.9889-0.6545l3.1919,5.5435
		c3.748,6.5092,13.655,6.1247,16.7645-0.6509l9.6767-21.0869l23.7-4.241C-157.0362,254.5851-154.4081,245.4579-160.2042,240.5029z"
		/>
	<path id="XMLID_15091_" fill="#FFCE00" d="M-230.2892,257.3453c-1.761-0.1753-23.6844-0.0246-28.1266-4.2662
		c1.0759,3.174,3.9088,5.8008,7.9384,6.2018l24.0193,2.3883C-226.4581,261.6692-228.5281,257.5202-230.2892,257.3453z"/>
</g>
</svg>
