<?xml version="1.0" encoding="utf-8"?>
<!-- Generator: Adobe Illustrator 19.0.0, SVG Export Plug-In . SVG Version: 6.00 Build 0)  -->
<svg version="1.1" id="Layer_1" xmlns="http://www.w3.org/2000/svg" xmlns:xlink="http://www.w3.org/1999/xlink" x="0px" y="0px"
	 viewBox="0 0 187.8 204.1" style="enable-background:new 0 0 187.8 204.1;" xml:space="preserve">
<style type="text/css">
	.st0{clip-path:url(#XMLID_445_);}
	.st1{fill:none;}
	.st2{fill:#85CBE6;}
	.st3{fill:#5CB8DB;}
	.st4{fill:#FF6B6B;}
	.st5{fill:#FFA100;}
	.st6{fill:#ADBF3D;}
	.st7{fill:#994B79;}
	.st8{fill:#FF7F95;}
	.st9{fill:#53B5DB;}
	.st10{opacity:0.34;}
	.st11{fill:#FFFFFF;}
	.st12{opacity:0.37;fill:#FFFFFF;}
</style>
<g id="XMLID_709_">
	<g id="XMLID_713_">
		<g id="XMLID_733_">
			<g id="XMLID_734_">
				<defs>
					<path id="XMLID_735_" d="M163,127.4c-7.7-6.7-15.4-13.5-23.1-20.2c-17.9-15.7-35.7-31.3-53.6-47c-5.5-4.8-11.1-9.7-16.6-14.5
						c-3.4-3-6.9-6-10.3-9.1c2,20.4,4,40.9,6,61.3c0.7,7.1,1.4,14.2,2.1,21.3c0.8,8,1.6,16,2.3,24c0.4,4.3,0.8,8.6,1.3,13
						c0.6,5.8,1.1,11.7,1.7,17.5c0.6,6.4,0.5,11.9,2.3,15.8c1.7,3.8,5.1,6.1,12.5,6.5c12.5,0.7,25.6-2.5,37.6-7.3
						c3.4-1.4,6.8-2.8,10.1-4.4c5.1-2.8,10.2-5.9,15.1-9.4c8.7-6.3,16.6-13.8,22.2-22.5C180.6,139.6,172.6,135.8,163,127.4z"/>
				</defs>
				<clipPath id="XMLID_445_">
					<use xlink:href="#XMLID_735_"  style="overflow:visible;"/>
				</clipPath>
				<g id="XMLID_971_" class="st0">
					
						<rect id="XMLID_975_" x="98.5" y="-0.6" transform="matrix(-0.8896 0.4568 -0.4568 -0.8896 212.2477 -29.9286)" class="st1" width="22.5" height="22.5"/>
					<polygon id="XMLID_974_" class="st2" points="119.9,5.8 114.6,-4.4 94.6,5.8 99.8,16 105.6,2.6 					"/>
					<polygon id="XMLID_973_" class="st2" points="103.8,23.8 104.9,25.8 124.9,15.6 123.8,13.5 109.6,10.3 					"/>
					<polygon id="XMLID_972_" class="st3" points="105.6,2.6 99.8,16 103.8,23.8 109.6,10.3 123.8,13.5 119.9,5.8 					"/>
				</g>
				<g id="XMLID_966_" class="st0">
					
						<rect id="XMLID_970_" x="108.8" y="19.5" transform="matrix(-0.8896 0.4568 -0.4568 -0.8896 240.7946 3.1799)" class="st1" width="22.5" height="22.5"/>
					<polygon id="XMLID_969_" class="st2" points="130.1,25.8 124.9,15.6 104.9,25.8 110.1,36 115.8,22.6 					"/>
					<polygon id="XMLID_968_" class="st2" points="114.1,43.8 115.1,45.8 135.2,35.6 134.1,33.5 119.8,30.4 					"/>
					<polygon id="XMLID_967_" class="st3" points="115.8,22.6 110.1,36 114.1,43.8 119.8,30.4 134.1,33.5 130.1,25.8 					"/>
				</g>
				<g id="XMLID_961_" class="st0">
					
						<rect id="XMLID_965_" x="119" y="39.5" transform="matrix(-0.8896 0.4568 -0.4568 -0.8896 269.3414 36.2884)" class="st1" width="22.5" height="22.5"/>
					<polygon id="XMLID_964_" class="st2" points="140.4,45.8 135.2,35.6 115.1,45.8 120.4,56 126.1,42.6 					"/>
					<polygon id="XMLID_963_" class="st2" points="124.4,63.8 125.4,65.8 145.4,55.6 144.4,53.5 130.1,50.4 					"/>
					<polygon id="XMLID_962_" class="st3" points="126.1,42.6 120.4,56 124.4,63.8 130.1,50.4 144.4,53.5 140.4,45.8 					"/>
				</g>
				<g id="XMLID_956_" class="st0">
					
						<rect id="XMLID_960_" x="129.3" y="59.5" transform="matrix(-0.8896 0.4568 -0.4568 -0.8896 297.8883 69.397)" class="st1" width="22.5" height="22.5"/>
					<polygon id="XMLID_959_" class="st2" points="150.7,65.8 145.4,55.6 125.4,65.8 130.7,76 136.4,62.6 					"/>
					<polygon id="XMLID_958_" class="st2" points="134.6,83.8 135.7,85.8 155.7,75.6 154.7,73.5 140.4,70.4 					"/>
					<polygon id="XMLID_957_" class="st3" points="136.4,62.6 130.7,76 134.6,83.8 140.4,70.4 154.7,73.5 150.7,65.8 					"/>
				</g>
				<g id="XMLID_951_" class="st0">
					
						<rect id="XMLID_955_" x="139.6" y="79.5" transform="matrix(-0.8896 0.4568 -0.4568 -0.8896 326.4351 102.5055)" class="st1" width="22.5" height="22.5"/>
					<polygon id="XMLID_954_" class="st2" points="160.9,85.8 155.7,75.6 135.7,85.8 140.9,96 146.7,82.6 					"/>
					<polygon id="XMLID_953_" class="st2" points="144.9,103.8 146,105.8 166,95.6 164.9,93.5 150.6,90.4 					"/>
					<polygon id="XMLID_952_" class="st3" points="146.7,82.6 140.9,96 144.9,103.8 150.6,90.4 164.9,93.5 160.9,85.8 					"/>
				</g>
				<g id="XMLID_946_" class="st0">
					
						<rect id="XMLID_950_" x="149.9" y="99.5" transform="matrix(-0.8896 0.4568 -0.4568 -0.8896 354.982 135.614)" class="st1" width="22.5" height="22.5"/>
					<polygon id="XMLID_949_" class="st2" points="171.2,105.8 166,95.6 146,105.8 151.2,116 156.9,102.6 					"/>
					<polygon id="XMLID_948_" class="st2" points="155.2,123.8 156.2,125.9 176.2,115.6 175.2,113.5 160.9,110.4 					"/>
					<polygon id="XMLID_947_" class="st3" points="156.9,102.6 151.2,116 155.2,123.8 160.9,110.4 175.2,113.5 171.2,105.8 					"/>
				</g>
				<g id="XMLID_941_" class="st0">
					
						<rect id="XMLID_945_" x="160.1" y="119.5" transform="matrix(-0.8896 0.4568 -0.4568 -0.8896 383.5288 168.7225)" class="st1" width="22.5" height="22.5"/>
					<polygon id="XMLID_944_" class="st2" points="181.5,125.8 176.2,115.6 156.2,125.9 161.5,136 167.2,122.6 					"/>
					<polygon id="XMLID_943_" class="st2" points="165.5,143.8 166.5,145.9 186.5,135.6 185.5,133.5 171.2,130.4 					"/>
					<polygon id="XMLID_942_" class="st3" points="167.2,122.6 161.5,136 165.5,143.8 171.2,130.4 185.5,133.5 181.5,125.8 					"/>
				</g>
				<g id="XMLID_936_" class="st0">
					
						<rect id="XMLID_940_" x="170.4" y="139.5" transform="matrix(-0.8896 0.4568 -0.4568 -0.8896 412.0757 201.831)" class="st1" width="22.5" height="22.5"/>
					<polygon id="XMLID_939_" class="st2" points="191.8,145.8 186.5,135.6 166.5,145.9 171.7,156 177.5,142.6 					"/>
					<polygon id="XMLID_938_" class="st2" points="175.7,163.8 176.8,165.9 196.8,155.6 195.7,153.6 181.5,150.4 					"/>
					<polygon id="XMLID_937_" class="st3" points="177.5,142.6 171.7,156 175.7,163.8 181.5,150.4 195.7,153.6 191.8,145.8 					"/>
				</g>
				<g id="XMLID_931_" class="st0">
					
						<rect id="XMLID_935_" x="78.5" y="9.7" transform="matrix(-0.8896 0.4568 -0.4568 -0.8896 179.1394 -1.3819)" class="st1" width="22.5" height="22.5"/>
					<polygon id="XMLID_934_" class="st2" points="99.8,16 94.6,5.8 74.6,16.1 79.8,26.3 85.6,12.9 					"/>
					<polygon id="XMLID_933_" class="st2" points="83.8,34 84.9,36.1 104.9,25.8 103.8,23.8 89.5,20.6 					"/>
					<polygon id="XMLID_932_" class="st3" points="85.6,12.9 79.8,26.3 83.8,34 89.5,20.6 103.8,23.8 99.8,16 					"/>
				</g>
				<g id="XMLID_926_" class="st0">
					
						<rect id="XMLID_930_" x="88.8" y="29.7" transform="matrix(-0.8896 0.4568 -0.4568 -0.8896 207.6863 31.7266)" class="st1" width="22.5" height="22.5"/>
					<polygon id="XMLID_929_" class="st2" points="110.1,36 104.9,25.8 84.9,36.1 90.1,46.3 95.8,32.9 					"/>
					<polygon id="XMLID_928_" class="st2" points="94.1,54 95.1,56.1 115.1,45.8 114.1,43.8 99.8,40.6 					"/>
					<polygon id="XMLID_927_" class="st3" points="95.8,32.9 90.1,46.3 94.1,54 99.8,40.6 114.1,43.8 110.1,36 					"/>
				</g>
				<g id="XMLID_921_" class="st0">
					
						<rect id="XMLID_925_" x="99" y="49.7" transform="matrix(-0.8896 0.4568 -0.4568 -0.8896 236.2331 64.8351)" class="st1" width="22.5" height="22.5"/>
					<polygon id="XMLID_924_" class="st2" points="120.4,56 115.1,45.8 95.1,56.1 100.4,66.3 106.1,52.9 					"/>
					<polygon id="XMLID_923_" class="st2" points="104.4,74.1 105.4,76.1 125.4,65.8 124.4,63.8 110.1,60.6 					"/>
					<polygon id="XMLID_922_" class="st3" points="106.1,52.9 100.4,66.3 104.4,74.1 110.1,60.6 124.4,63.8 120.4,56 					"/>
				</g>
				<g id="XMLID_916_" class="st0">
					
						<rect id="XMLID_920_" x="109.3" y="69.7" transform="matrix(-0.8896 0.4568 -0.4568 -0.8896 264.78 97.9436)" class="st1" width="22.5" height="22.5"/>
					<polygon id="XMLID_919_" class="st2" points="130.7,76.1 125.4,65.8 105.4,76.1 110.6,86.3 116.4,72.9 					"/>
					<polygon id="XMLID_918_" class="st2" points="114.6,94.1 115.7,96.1 135.7,85.8 134.6,83.8 120.4,80.6 					"/>
					<polygon id="XMLID_917_" class="st3" points="116.4,72.9 110.6,86.3 114.6,94.1 120.4,80.6 134.6,83.8 130.7,76.1 					"/>
				</g>
				<g id="XMLID_911_" class="st0">
					
						<rect id="XMLID_915_" x="119.6" y="89.7" transform="matrix(-0.8896 0.4568 -0.4568 -0.8896 293.3268 131.0521)" class="st1" width="22.5" height="22.5"/>
					<polygon id="XMLID_914_" class="st2" points="140.9,96.1 135.7,85.8 115.7,96.1 120.9,106.3 126.6,92.9 					"/>
					<polygon id="XMLID_913_" class="st2" points="124.9,114.1 126,116.1 146,105.8 144.9,103.8 130.6,100.6 					"/>
					<polygon id="XMLID_912_" class="st3" points="126.6,92.9 120.9,106.3 124.9,114.1 130.6,100.6 144.9,103.8 140.9,96.1 					"/>
				</g>
				<g id="XMLID_906_" class="st0">
					
						<rect id="XMLID_910_" x="129.9" y="109.7" transform="matrix(-0.8896 0.4568 -0.4568 -0.8896 321.8737 164.1607)" class="st1" width="22.5" height="22.5"/>
					<polygon id="XMLID_909_" class="st2" points="151.2,116.1 146,105.8 126,116.1 131.2,126.3 136.9,112.9 					"/>
					<polygon id="XMLID_908_" class="st2" points="135.2,134.1 136.2,136.1 156.2,125.9 155.2,123.8 140.9,120.6 					"/>
					<polygon id="XMLID_907_" class="st3" points="136.9,112.9 131.2,126.3 135.2,134.1 140.9,120.6 155.2,123.8 151.2,116.1 					
						"/>
				</g>
				<g id="XMLID_901_" class="st0">
					
						<rect id="XMLID_905_" x="140.1" y="129.7" transform="matrix(-0.8896 0.4568 -0.4568 -0.8896 350.4205 197.2692)" class="st1" width="22.5" height="22.5"/>
					<polygon id="XMLID_904_" class="st2" points="161.5,136.1 156.2,125.9 136.2,136.1 141.5,146.3 147.2,132.9 					"/>
					<polygon id="XMLID_903_" class="st2" points="145.4,154.1 146.5,156.1 166.5,145.9 165.5,143.8 151.2,140.6 					"/>
					<polygon id="XMLID_902_" class="st3" points="147.2,132.9 141.5,146.3 145.4,154.1 151.2,140.6 165.5,143.8 161.5,136.1 					
						"/>
				</g>
				<g id="XMLID_896_" class="st0">
					
						<rect id="XMLID_900_" x="150.4" y="149.7" transform="matrix(-0.8896 0.4568 -0.4568 -0.8896 378.9673 230.3777)" class="st1" width="22.5" height="22.5"/>
					<polygon id="XMLID_899_" class="st2" points="171.7,156.1 166.5,145.9 146.5,156.1 151.7,166.3 157.5,152.9 					"/>
					<polygon id="XMLID_898_" class="st2" points="155.7,174.1 156.8,176.1 176.8,165.9 175.7,163.8 161.4,160.7 					"/>
					<polygon id="XMLID_897_" class="st3" points="157.5,152.9 151.7,166.3 155.7,174.1 161.4,160.7 175.7,163.8 171.7,156.1 					
						"/>
				</g>
				<g id="XMLID_891_" class="st0">
					
						<rect id="XMLID_895_" x="58.5" y="20" transform="matrix(-0.8896 0.4568 -0.4568 -0.8896 146.0312 27.1647)" class="st1" width="22.5" height="22.5"/>
					<polygon id="XMLID_894_" class="st2" points="79.8,26.3 74.6,16.1 54.6,26.4 59.8,36.6 65.6,23.1 					"/>
					<polygon id="XMLID_893_" class="st2" points="63.8,44.3 64.9,46.4 84.9,36.1 83.8,34.1 69.5,30.9 					"/>
					<polygon id="XMLID_892_" class="st3" points="65.6,23.1 59.8,36.6 63.8,44.3 69.5,30.9 83.8,34.1 79.8,26.3 					"/>
				</g>
				<g id="XMLID_886_" class="st0">
					
						<rect id="XMLID_890_" x="68.8" y="40" transform="matrix(-0.8896 0.4568 -0.4568 -0.8896 174.578 60.2732)" class="st1" width="22.5" height="22.5"/>
					<polygon id="XMLID_889_" class="st2" points="90.1,46.3 84.9,36.1 64.9,46.4 70.1,56.6 75.8,43.1 					"/>
					<polygon id="XMLID_888_" class="st2" points="74.1,64.3 75.1,66.4 95.1,56.1 94.1,54.1 79.8,50.9 					"/>
					<polygon id="XMLID_887_" class="st3" points="75.8,43.1 70.1,56.6 74.1,64.3 79.8,50.9 94.1,54.1 90.1,46.3 					"/>
				</g>
				<g id="XMLID_881_" class="st0">
					
						<rect id="XMLID_885_" x="79" y="60" transform="matrix(-0.8896 0.4568 -0.4568 -0.8896 203.1248 93.3817)" class="st1" width="22.5" height="22.5"/>
					<polygon id="XMLID_884_" class="st2" points="100.4,66.3 95.1,56.1 75.1,66.4 80.4,76.6 86.1,63.1 					"/>
					<polygon id="XMLID_883_" class="st2" points="84.4,84.3 85.4,86.4 105.4,76.1 104.4,74.1 90.1,70.9 					"/>
					<polygon id="XMLID_882_" class="st3" points="86.1,63.1 80.4,76.6 84.4,84.3 90.1,70.9 104.4,74.1 100.4,66.3 					"/>
				</g>
				<g id="XMLID_876_" class="st0">
					
						<rect id="XMLID_880_" x="89.3" y="80" transform="matrix(-0.8896 0.4568 -0.4568 -0.8896 231.6717 126.4902)" class="st1" width="22.5" height="22.5"/>
					<polygon id="XMLID_879_" class="st2" points="110.7,86.3 105.4,76.1 85.4,86.4 90.6,96.6 96.4,83.1 					"/>
					<polygon id="XMLID_878_" class="st2" points="94.6,104.3 95.7,106.4 115.7,96.1 114.6,94.1 100.4,90.9 					"/>
					<polygon id="XMLID_877_" class="st3" points="96.4,83.1 90.6,96.6 94.6,104.3 100.4,90.9 114.6,94.1 110.7,86.3 					"/>
				</g>
				<g id="XMLID_871_" class="st0">
					
						<rect id="XMLID_875_" x="99.6" y="100" transform="matrix(-0.8896 0.4568 -0.4568 -0.8896 260.2186 159.5988)" class="st1" width="22.5" height="22.5"/>
					<polygon id="XMLID_874_" class="st2" points="120.9,106.3 115.7,96.1 95.7,106.4 100.9,116.6 106.6,103.2 					"/>
					<polygon id="XMLID_873_" class="st2" points="104.9,124.3 106,126.4 126,116.1 124.9,114.1 110.6,110.9 					"/>
					<polygon id="XMLID_872_" class="st3" points="106.6,103.2 100.9,116.6 104.9,124.3 110.6,110.9 124.9,114.1 120.9,106.3 					
						"/>
				</g>
				<g id="XMLID_866_" class="st0">
					
						<rect id="XMLID_870_" x="109.8" y="120" transform="matrix(-0.8896 0.4568 -0.4568 -0.8896 288.7654 192.7073)" class="st1" width="22.5" height="22.5"/>
					<polygon id="XMLID_869_" class="st2" points="131.2,126.3 126,116.1 106,126.4 111.2,136.6 116.9,123.2 					"/>
					<polygon id="XMLID_868_" class="st2" points="115.2,144.3 116.2,146.4 136.2,136.1 135.2,134.1 120.9,130.9 					"/>
					<polygon id="XMLID_867_" class="st3" points="116.9,123.2 111.2,136.6 115.2,144.3 120.9,130.9 135.2,134.1 131.2,126.3 					
						"/>
				</g>
				<g id="XMLID_861_" class="st0">
					
						<rect id="XMLID_865_" x="120.1" y="140" transform="matrix(-0.8896 0.4568 -0.4568 -0.8896 317.3123 225.8158)" class="st1" width="22.5" height="22.5"/>
					<polygon id="XMLID_864_" class="st2" points="141.5,146.3 136.2,136.1 116.2,146.4 121.5,156.6 127.2,143.2 					"/>
					<polygon id="XMLID_863_" class="st2" points="125.4,164.3 126.5,166.4 146.5,156.1 145.5,154.1 131.2,150.9 					"/>
					<polygon id="XMLID_862_" class="st3" points="127.2,143.2 121.5,156.6 125.4,164.3 131.2,150.9 145.5,154.1 141.5,146.3 					
						"/>
				</g>
				<g id="XMLID_856_" class="st0">
					
						<rect id="XMLID_860_" x="130.4" y="160" transform="matrix(-0.8896 0.4568 -0.4568 -0.8896 345.8591 258.9243)" class="st1" width="22.5" height="22.5"/>
					<polygon id="XMLID_859_" class="st2" points="151.7,166.3 146.5,156.1 126.5,166.4 131.7,176.6 137.5,163.2 					"/>
					<polygon id="XMLID_858_" class="st2" points="135.7,184.3 136.8,186.4 156.8,176.1 155.7,174.1 141.4,170.9 					"/>
					<polygon id="XMLID_857_" class="st3" points="137.5,163.2 131.7,176.6 135.7,184.3 141.4,170.9 155.7,174.1 151.7,166.3 					
						"/>
				</g>
				<g id="XMLID_851_" class="st0">
					
						<rect id="XMLID_855_" x="38.5" y="30.3" transform="matrix(-0.8896 0.4568 -0.4568 -0.8896 112.9229 55.7113)" class="st1" width="22.5" height="22.5"/>
					<polygon id="XMLID_854_" class="st2" points="59.8,36.6 54.6,26.4 34.6,36.6 39.8,46.8 45.6,33.4 					"/>
					<polygon id="XMLID_853_" class="st2" points="43.8,54.6 44.9,56.6 64.9,46.4 63.8,44.3 49.5,41.2 					"/>
					<polygon id="XMLID_852_" class="st3" points="45.6,33.4 39.8,46.8 43.8,54.6 49.5,41.2 63.8,44.3 59.8,36.6 					"/>
				</g>
				<g id="XMLID_846_" class="st0">
					
						<rect id="XMLID_850_" x="48.8" y="50.3" transform="matrix(-0.8896 0.4568 -0.4568 -0.8896 141.4697 88.8198)" class="st1" width="22.5" height="22.5"/>
					<polygon id="XMLID_849_" class="st2" points="70.1,56.6 64.9,46.4 44.9,56.6 50.1,66.8 55.8,53.4 					"/>
					<polygon id="XMLID_848_" class="st2" points="54.1,74.6 55.1,76.6 75.1,66.4 74.1,64.3 59.8,61.2 					"/>
					<polygon id="XMLID_847_" class="st3" points="55.8,53.4 50.1,66.8 54.1,74.6 59.8,61.2 74.1,64.3 70.1,56.6 					"/>
				</g>
				<g id="XMLID_841_" class="st0">
					
						<rect id="XMLID_845_" x="59" y="70.3" transform="matrix(-0.8896 0.4568 -0.4568 -0.8896 170.0166 121.9284)" class="st1" width="22.5" height="22.5"/>
					<polygon id="XMLID_844_" class="st2" points="80.4,76.6 75.1,66.4 55.1,76.6 60.4,86.8 66.1,73.4 					"/>
					<polygon id="XMLID_843_" class="st2" points="64.4,94.6 65.4,96.7 85.4,86.4 84.4,84.3 70.1,81.2 					"/>
					<polygon id="XMLID_842_" class="st3" points="66.1,73.4 60.4,86.8 64.4,94.6 70.1,81.2 84.4,84.3 80.4,76.6 					"/>
				</g>
				<g id="XMLID_836_" class="st0">
					
						<rect id="XMLID_840_" x="69.3" y="90.3" transform="matrix(-0.8896 0.4568 -0.4568 -0.8896 198.5634 155.0369)" class="st1" width="22.5" height="22.5"/>
					<polygon id="XMLID_839_" class="st2" points="90.7,96.6 85.4,86.4 65.4,96.7 70.6,106.8 76.4,93.4 					"/>
					<polygon id="XMLID_838_" class="st2" points="74.6,114.6 75.7,116.7 95.7,106.4 94.6,104.4 80.4,101.2 					"/>
					<polygon id="XMLID_837_" class="st3" points="76.4,93.4 70.6,106.8 74.6,114.6 80.4,101.2 94.6,104.4 90.7,96.6 					"/>
				</g>
				<g id="XMLID_831_" class="st0">
					
						<rect id="XMLID_835_" x="79.6" y="110.3" transform="matrix(-0.8896 0.4568 -0.4568 -0.8896 227.1103 188.1454)" class="st1" width="22.5" height="22.5"/>
					<polygon id="XMLID_834_" class="st2" points="100.9,116.6 95.7,106.4 75.7,116.7 80.9,126.8 86.6,113.4 					"/>
					<polygon id="XMLID_833_" class="st2" points="84.9,134.6 85.9,136.7 106,126.4 104.9,124.4 90.6,121.2 					"/>
					<polygon id="XMLID_832_" class="st3" points="86.6,113.4 80.9,126.8 84.9,134.6 90.6,121.2 104.9,124.4 100.9,116.6 					"/>
				</g>
				<g id="XMLID_826_" class="st0">
					
						<rect id="XMLID_830_" x="89.8" y="130.3" transform="matrix(-0.8896 0.4568 -0.4568 -0.8896 255.6572 221.2539)" class="st1" width="22.5" height="22.5"/>
					<polygon id="XMLID_829_" class="st2" points="111.2,136.6 106,126.4 85.9,136.7 91.2,146.9 96.9,133.4 					"/>
					<polygon id="XMLID_828_" class="st2" points="95.2,154.6 96.2,156.7 116.2,146.4 115.2,144.4 100.9,141.2 					"/>
					<polygon id="XMLID_827_" class="st3" points="96.9,133.4 91.2,146.9 95.2,154.6 100.9,141.2 115.2,144.4 111.2,136.6 					"/>
				</g>
				<g id="XMLID_821_" class="st0">
					
						<rect id="XMLID_825_" x="100.1" y="150.3" transform="matrix(-0.8896 0.4568 -0.4568 -0.8896 284.204 254.3624)" class="st1" width="22.5" height="22.5"/>
					<polygon id="XMLID_824_" class="st2" points="121.5,156.6 116.2,146.4 96.2,156.7 101.5,166.9 107.2,153.4 					"/>
					<polygon id="XMLID_823_" class="st2" points="105.4,174.6 106.5,176.7 126.5,166.4 125.5,164.4 111.2,161.2 					"/>
					<polygon id="XMLID_822_" class="st3" points="107.2,153.4 101.5,166.9 105.4,174.6 111.2,161.2 125.5,164.4 121.5,156.6 					
						"/>
				</g>
				<g id="XMLID_816_" class="st0">
					
						<rect id="XMLID_820_" x="110.4" y="170.3" transform="matrix(-0.8896 0.4568 -0.4568 -0.8896 312.7508 287.4709)" class="st1" width="22.5" height="22.5"/>
					<polygon id="XMLID_819_" class="st2" points="131.7,176.6 126.5,166.4 106.5,176.7 111.7,186.9 117.5,173.4 					"/>
					<polygon id="XMLID_818_" class="st2" points="115.7,194.6 116.8,196.7 136.8,186.4 135.7,184.4 121.4,181.2 					"/>
					<polygon id="XMLID_817_" class="st3" points="117.5,173.4 111.7,186.9 115.7,194.6 121.4,181.2 135.7,184.4 131.7,176.6 					
						"/>
				</g>
				<g id="XMLID_811_" class="st0">
					
						<rect id="XMLID_815_" x="18.5" y="40.5" transform="matrix(-0.8896 0.4568 -0.4568 -0.8896 79.8147 84.258)" class="st1" width="22.5" height="22.5"/>
					<polygon id="XMLID_814_" class="st2" points="39.8,46.9 34.6,36.6 14.6,46.9 19.8,57.1 25.5,43.7 					"/>
					<polygon id="XMLID_813_" class="st2" points="23.8,64.9 24.9,66.9 44.9,56.6 43.8,54.6 29.5,51.4 					"/>
					<polygon id="XMLID_812_" class="st3" points="25.5,43.7 19.8,57.1 23.8,64.9 29.5,51.4 43.8,54.6 39.8,46.9 					"/>
				</g>
				<g id="XMLID_806_" class="st0">
					
						<rect id="XMLID_810_" x="28.8" y="60.5" transform="matrix(-0.8896 0.4568 -0.4568 -0.8896 108.3615 117.3665)" class="st1" width="22.5" height="22.5"/>
					<polygon id="XMLID_809_" class="st2" points="50.1,66.9 44.9,56.6 24.9,66.9 30.1,77.1 35.8,63.7 					"/>
					<polygon id="XMLID_808_" class="st2" points="34.1,84.9 35.1,86.9 55.1,76.6 54.1,74.6 39.8,71.4 					"/>
					<polygon id="XMLID_807_" class="st3" points="35.8,63.7 30.1,77.1 34.1,84.9 39.8,71.4 54.1,74.6 50.1,66.9 					"/>
				</g>
				<g id="XMLID_801_" class="st0">
					
						<rect id="XMLID_805_" x="39" y="80.5" transform="matrix(-0.8896 0.4568 -0.4568 -0.8896 136.9083 150.475)" class="st1" width="22.5" height="22.5"/>
					<polygon id="XMLID_804_" class="st2" points="60.4,86.9 55.1,76.6 35.1,86.9 40.4,97.1 46.1,83.7 					"/>
					<polygon id="XMLID_803_" class="st2" points="44.3,104.9 45.4,106.9 65.4,96.7 64.4,94.6 50.1,91.4 					"/>
					<polygon id="XMLID_802_" class="st3" points="46.1,83.7 40.4,97.1 44.3,104.9 50.1,91.4 64.4,94.6 60.4,86.9 					"/>
				</g>
				<g id="XMLID_796_" class="st0">
					
						<rect id="XMLID_800_" x="49.3" y="100.5" transform="matrix(-0.8896 0.4568 -0.4568 -0.8896 165.4552 183.5835)" class="st1" width="22.5" height="22.5"/>
					<polygon id="XMLID_799_" class="st2" points="70.6,106.9 65.4,96.7 45.4,106.9 50.6,117.1 56.4,103.7 					"/>
					<polygon id="XMLID_798_" class="st2" points="54.6,124.9 55.7,126.9 75.7,116.7 74.6,114.6 60.3,111.4 					"/>
					<polygon id="XMLID_797_" class="st3" points="56.4,103.7 50.6,117.1 54.6,124.9 60.3,111.4 74.6,114.6 70.6,106.9 					"/>
				</g>
				<g id="XMLID_791_" class="st0">
					
						<rect id="XMLID_795_" x="59.6" y="120.6" transform="matrix(-0.8896 0.4568 -0.4568 -0.8896 194.002 216.692)" class="st1" width="22.5" height="22.5"/>
					<polygon id="XMLID_794_" class="st2" points="80.9,126.9 75.7,116.7 55.7,126.9 60.9,137.1 66.6,123.7 					"/>
					<polygon id="XMLID_793_" class="st2" points="64.9,144.9 65.9,146.9 85.9,136.7 84.9,134.6 70.6,131.5 					"/>
					<polygon id="XMLID_792_" class="st3" points="66.6,123.7 60.9,137.1 64.9,144.9 70.6,131.5 84.9,134.6 80.9,126.9 					"/>
				</g>
				<g id="XMLID_786_" class="st0">
					
						<rect id="XMLID_790_" x="69.8" y="140.6" transform="matrix(-0.8896 0.4568 -0.4568 -0.8896 222.5489 249.8006)" class="st1" width="22.5" height="22.5"/>
					<polygon id="XMLID_789_" class="st2" points="91.2,146.9 85.9,136.7 65.9,146.9 71.2,157.1 76.9,143.7 					"/>
					<polygon id="XMLID_788_" class="st2" points="75.2,164.9 76.2,166.9 96.2,156.7 95.2,154.6 80.9,151.5 					"/>
					<polygon id="XMLID_787_" class="st3" points="76.9,143.7 71.2,157.1 75.2,164.9 80.9,151.5 95.2,154.6 91.2,146.9 					"/>
				</g>
				<g id="XMLID_781_" class="st0">
					
						<rect id="XMLID_785_" x="80.1" y="160.6" transform="matrix(-0.8896 0.4568 -0.4568 -0.8896 251.0957 282.9091)" class="st1" width="22.5" height="22.5"/>
					<polygon id="XMLID_784_" class="st2" points="101.5,166.9 96.2,156.7 76.2,166.9 81.4,177.1 87.2,163.7 					"/>
					<polygon id="XMLID_783_" class="st2" points="85.4,184.9 86.5,186.9 106.5,176.7 105.4,174.6 91.2,171.5 					"/>
					<polygon id="XMLID_782_" class="st3" points="87.2,163.7 81.4,177.1 85.4,184.9 91.2,171.5 105.4,174.6 101.5,166.9 					"/>
				</g>
				<g id="XMLID_776_" class="st0">
					
						<rect id="XMLID_780_" x="90.4" y="180.6" transform="matrix(-0.8896 0.4568 -0.4568 -0.8896 279.6425 316.0175)" class="st1" width="22.5" height="22.5"/>
					<polygon id="XMLID_779_" class="st2" points="111.7,186.9 106.5,176.7 86.5,186.9 91.7,197.1 97.5,183.7 					"/>
					<polygon id="XMLID_778_" class="st2" points="95.7,204.9 96.8,206.9 116.8,196.7 115.7,194.6 101.4,191.5 					"/>
					<polygon id="XMLID_777_" class="st3" points="97.5,183.7 91.7,197.1 95.7,204.9 101.4,191.5 115.7,194.6 111.7,186.9 					"/>
				</g>
				<g id="XMLID_771_" class="st0">
					
						<rect id="XMLID_775_" x="-1.5" y="50.8" transform="matrix(-0.8896 0.4568 -0.4568 -0.8896 46.7064 112.8046)" class="st1" width="22.5" height="22.5"/>
					<polygon id="XMLID_774_" class="st2" points="19.8,57.1 14.6,46.9 -5.4,57.2 -0.2,67.4 5.5,54 					"/>
					<polygon id="XMLID_773_" class="st2" points="3.8,75.1 4.9,77.2 24.9,66.9 23.8,64.9 9.5,61.7 					"/>
					<polygon id="XMLID_772_" class="st3" points="5.5,54 -0.2,67.4 3.8,75.1 9.5,61.7 23.8,64.9 19.8,57.1 					"/>
				</g>
				<g id="XMLID_766_" class="st0">
					
						<rect id="XMLID_770_" x="8.7" y="70.8" transform="matrix(-0.8896 0.4568 -0.4568 -0.8896 75.2532 145.9131)" class="st1" width="22.5" height="22.5"/>
					<polygon id="XMLID_769_" class="st2" points="30.1,77.1 24.9,66.9 4.9,77.2 10.1,87.4 15.8,74 					"/>
					<polygon id="XMLID_768_" class="st2" points="14.1,95.1 15.1,97.2 35.1,86.9 34.1,84.9 19.8,81.7 					"/>
					<polygon id="XMLID_767_" class="st3" points="15.8,74 10.1,87.4 14.1,95.1 19.8,81.7 34.1,84.9 30.1,77.1 					"/>
				</g>
				<g id="XMLID_761_" class="st0">
					
						<rect id="XMLID_765_" x="19" y="90.8" transform="matrix(-0.8896 0.4568 -0.4568 -0.8896 103.8001 179.0216)" class="st1" width="22.5" height="22.5"/>
					<polygon id="XMLID_764_" class="st2" points="40.4,97.1 35.1,86.9 15.1,97.2 20.4,107.4 26.1,94 					"/>
					<polygon id="XMLID_763_" class="st2" points="24.3,115.1 25.4,117.2 45.4,106.9 44.4,104.9 30.1,101.7 					"/>
					<polygon id="XMLID_762_" class="st3" points="26.1,94 20.4,107.4 24.3,115.1 30.1,101.7 44.4,104.9 40.4,97.1 					"/>
				</g>
				<g id="XMLID_756_" class="st0">
					
						<rect id="XMLID_760_" x="29.3" y="110.8" transform="matrix(-0.8896 0.4568 -0.4568 -0.8896 132.3469 212.1301)" class="st1" width="22.5" height="22.5"/>
					<polygon id="XMLID_759_" class="st2" points="50.6,117.1 45.4,106.9 25.4,117.2 30.6,127.4 36.4,114 					"/>
					<polygon id="XMLID_758_" class="st2" points="34.6,135.1 35.7,137.2 55.7,126.9 54.6,124.9 40.3,121.7 					"/>
					<polygon id="XMLID_757_" class="st3" points="36.4,114 30.6,127.4 34.6,135.1 40.3,121.7 54.6,124.9 50.6,117.1 					"/>
				</g>
				<g id="XMLID_751_" class="st0">
					
						<rect id="XMLID_755_" x="39.6" y="130.8" transform="matrix(-0.8896 0.4568 -0.4568 -0.8896 160.8938 245.2386)" class="st1" width="22.5" height="22.5"/>
					<polygon id="XMLID_754_" class="st2" points="60.9,137.1 55.7,126.9 35.7,137.2 40.9,147.4 46.6,134 					"/>
					<polygon id="XMLID_753_" class="st2" points="44.9,155.1 45.9,157.2 65.9,146.9 64.9,144.9 50.6,141.7 					"/>
					<polygon id="XMLID_752_" class="st3" points="46.6,134 40.9,147.4 44.9,155.1 50.6,141.7 64.9,144.9 60.9,137.1 					"/>
				</g>
				<g id="XMLID_746_" class="st0">
					
						<rect id="XMLID_750_" x="49.8" y="150.8" transform="matrix(-0.8896 0.4568 -0.4568 -0.8896 189.4406 278.3472)" class="st1" width="22.5" height="22.5"/>
					<polygon id="XMLID_749_" class="st2" points="71.2,157.1 65.9,146.9 45.9,157.2 51.2,167.4 56.9,154 					"/>
					<polygon id="XMLID_748_" class="st2" points="55.2,175.2 56.2,177.2 76.2,166.9 75.2,164.9 60.9,161.7 					"/>
					<polygon id="XMLID_747_" class="st3" points="56.9,154 51.2,167.4 55.2,175.2 60.9,161.7 75.2,164.9 71.2,157.1 					"/>
				</g>
				<g id="XMLID_741_" class="st0">
					
						<rect id="XMLID_745_" x="60.1" y="170.8" transform="matrix(-0.8896 0.4568 -0.4568 -0.8896 217.9875 311.4557)" class="st1" width="22.5" height="22.5"/>
					<polygon id="XMLID_744_" class="st2" points="81.5,177.2 76.2,166.9 56.2,177.2 61.4,187.4 67.2,174 					"/>
					<polygon id="XMLID_743_" class="st2" points="65.4,195.2 66.5,197.2 86.5,186.9 85.4,184.9 71.2,181.7 					"/>
					<polygon id="XMLID_742_" class="st3" points="67.2,174 61.4,187.4 65.4,195.2 71.2,181.7 85.4,184.9 81.5,177.2 					"/>
				</g>
				<g id="XMLID_736_" class="st0">
					
						<rect id="XMLID_740_" x="70.4" y="190.8" transform="matrix(-0.8896 0.4568 -0.4568 -0.8896 246.5343 344.5642)" class="st1" width="22.5" height="22.5"/>
					<polygon id="XMLID_739_" class="st2" points="91.7,197.2 86.5,186.9 66.5,197.2 71.7,207.4 77.4,194 					"/>
					<polygon id="XMLID_738_" class="st2" points="75.7,215.2 76.8,217.2 96.8,206.9 95.7,204.9 81.4,201.7 					"/>
					<polygon id="XMLID_737_" class="st3" points="77.4,194 71.7,207.4 75.7,215.2 81.4,201.7 95.7,204.9 91.7,197.2 					"/>
				</g>
			</g>
		</g>
		<g id="XMLID_714_">
			<g id="XMLID_730_">
				<g id="XMLID_731_">
					<path id="XMLID_732_" class="st4" d="M59.5,36.4c0,0,13.4-10.1,12-21.8c0,0,2,2.2,2.2,6c0,0,1.7-1.6,2.2-4.4
						C75.9,16.2,79.5,26.2,59.5,36.4z"/>
				</g>
			</g>
			<g id="XMLID_727_">
				<g id="XMLID_728_">
					<path id="XMLID_729_" class="st5" d="M59.5,36.9c0,0,6.5-15.5-0.7-24.9c0,0,2.8,0.9,5,4.1c0,0,0.6-2.2-0.4-4.9
						C63.5,11.3,71.6,18,59.5,36.9z"/>
				</g>
			</g>
			<g id="XMLID_724_">
				<g id="XMLID_725_">
					<path id="XMLID_726_" class="st6" d="M59.5,36.3c0,0-15.6,6.2-17.4,17.8c0,0-1.3-2.6-0.5-6.4c0,0-2,1.1-3.2,3.6
						C38.3,51.4,37.5,40.9,59.5,36.3z"/>
				</g>
			</g>
			<g id="XMLID_721_">
				<g id="XMLID_722_">
					<path id="XMLID_723_" class="st7" d="M60,38.3c0,0-3-21.6-17.2-27.4c0,0,3.7-0.8,8.3,1.3c0,0-0.8-2.9-3.6-5.2
						C47.5,7,61,9.2,60,38.3z"/>
				</g>
			</g>
			<g id="XMLID_718_">
				<g id="XMLID_719_">
					<path id="XMLID_720_" class="st8" d="M59.7,36.3c0,0-20.8-6.6-32.2,3.7c0,0,0.8-3.7,4.7-6.9c0,0-3-0.6-6.3,1
						C26,34.1,33.8,22.8,59.7,36.3z"/>
				</g>
			</g>
			<g id="XMLID_715_">
				<g id="XMLID_716_">
					<path id="XMLID_717_" class="st9" d="M61.4,38.1c0,0-18.8-19.5-37.3-15c0,0,3.1-3.6,9.3-4.7c0,0-2.9-2.4-7.4-2.6
						C25.9,15.7,41.1,8,61.4,38.1z"/>
				</g>
			</g>
		</g>
	</g>
	<g id="XMLID_710_" class="st10">
		<path id="XMLID_712_" class="st11" d="M61,45.9L76.7,125l14.1,70.8c6,0.2,12.2-0.5,18.2-1.8l-23.1-71.2L61,45.9z"/>
		<path id="XMLID_711_" class="st12" d="M61,45.9L76.7,125l14.1,70.8c6,0.2,12.2-0.5,18.2-1.8l-23.1-71.2L61,45.9z"/>
	</g>
</g>
</svg>
