<?xml version="1.0" encoding="utf-8"?>
<!-- Generator: Adobe Illustrator 19.0.0, SVG Export Plug-In . SVG Version: 6.00 Build 0)  -->
<svg version="1.1" id="Layer_1" xmlns="http://www.w3.org/2000/svg" xmlns:xlink="http://www.w3.org/1999/xlink" x="0px" y="0px"
	 viewBox="0 0 234.6667 240.6667" enable-background="new 0 0 234.6667 240.6667" xml:space="preserve">
<g id="XMLID_924_">
	<g id="XMLID_980_">
		<polygon id="XMLID_996_" fill="#FFBB00" points="61.3346,42.0041 66.6628,33.0905 67.5475,43.4374 77.3586,40.034 
			71.3854,48.5289 81.0888,52.2283 71.0527,54.8963 76.1081,63.9674 66.705,59.5601 64.7468,69.7585 60.3766,60.3381 
			52.3212,66.8918 55.0287,56.8663 44.6452,56.7088 53.1636,50.7692 45.3106,43.9741 55.654,44.8997 54.006,34.6465 		"/>
		<g id="XMLID_981_">
			<path id="XMLID_990_" fill="#FF3381" d="M173.3273,156.127c-7.686-6.7337-15.372-13.4672-23.058-20.2008
				c-17.8737-15.6589-35.7475-31.3178-53.6213-46.9767c-0.8989,1.0407-2.0029,1.9338-3.3014,2.6006
				c-5.4165,2.7812-12.062,0.6449-14.8432-4.7716c-2.138-4.1639-1.3609-9.0476,1.5695-12.3502
				c-3.4485-3.0212-6.897-6.0424-10.3456-9.0636c1.9969,20.4414,3.9936,40.8829,5.9905,61.3243
				c5.1208-1.8095,10.9163,0.3868,13.466,5.3524c2.7812,5.4164,0.6448,12.062-4.7716,14.8432
				c-2.119,1.0881-4.4244,1.4139-6.6146,1.0947c0.7801,7.9857,1.5602,15.9715,2.3402,23.9572
				c0.4221,4.3203,0.844,8.6407,1.2661,12.9609c7.5944-2.1094,15.8792,1.3198,19.6207,8.6064
				c4.2807,8.3369,0.9926,18.5656-7.3444,22.8464c-2.6565,1.364-5.5049,1.9564-8.2919,1.8649
				c1.6765,3.7701,5.0606,6.0972,12.4736,6.4815c12.5445,0.6503,25.5825-2.5324,37.6138-7.2834
				c-2.8565-1.5737-5.2911-3.9858-6.8928-7.1052c-4.2808-8.3369-0.9926-18.5656,7.3444-22.8464
				c8.3369-4.2807,18.5656-0.9926,22.8464,7.3444c1.4382,2.801,2.0184,5.8152,1.8435,8.7459
				c8.6991-6.2842,16.6078-13.7569,22.201-22.4776C190.9655,168.3708,182.9034,164.5163,173.3273,156.127z M94.5259,103.577
				c4.588-2.3558,10.2171-0.5462,12.5729,4.0418c2.3558,4.588,0.5462,10.2171-4.0418,12.5729
				c-4.588,2.3558-10.2171,0.5462-12.5729-4.0418C88.1283,111.5619,89.9379,105.9328,94.5259,103.577z M116.8363,183.4141
				c-3.5015,1.7979-7.7974,0.4169-9.5953-3.0846c-1.7979-3.5015-0.4169-7.7974,3.0846-9.5953
				c3.5015-1.7979,7.7974-0.4169,9.5953,3.0846C121.7188,177.3202,120.3378,181.6162,116.8363,183.4141z M129.277,157.4827
				c-8.3369,4.2807-18.5656,0.9926-22.8464-7.3444c-4.2808-8.337-0.9925-18.5656,7.3444-22.8464
				c8.337-4.2808,18.5656-0.9926,22.8464,7.3444C140.9022,142.9732,137.614,153.2019,129.277,157.4827z M166.2866,174.4452
				c-5.4164,2.7812-12.062,0.6449-14.8432-4.7716c-2.7812-5.4164-0.6448-12.062,4.7716-14.8432
				c5.4165-2.7812,12.062-0.6449,14.8432,4.7716C173.8394,165.0185,171.7031,171.664,166.2866,174.4452z"/>
			<path id="XMLID_989_" fill="#FFCCE0" d="M89.1838,132.0414c-2.5497-4.9656-8.3452-7.162-13.466-5.3524
				c0.6932,7.0967,1.3865,14.1936,2.0797,21.2903c2.1903,0.3192,4.4956-0.0066,6.6146-1.0947
				C89.8287,144.1034,91.965,137.4579,89.1838,132.0414z"/>
			<circle id="XMLID_988_" fill="#FFCCE0" cx="161.2508" cy="164.6378" r="11.0247"/>
			<path id="XMLID_987_" fill="#FFCCE0" d="M78.5035,86.7784c2.7812,5.4165,9.4267,7.5528,14.8432,4.7716
				c1.2985-0.6667,2.4025-1.5599,3.3014-2.6006C91.123,84.109,85.598,79.2687,80.073,74.4283
				C77.1425,77.7308,76.3654,82.6145,78.5035,86.7784z"/>
			<circle id="XMLID_986_" fill="#FFCCE0" cx="113.5809" cy="177.0741" r="7.1269"/>
			<circle id="XMLID_985_" fill="#FFCCE0" cx="98.7915" cy="111.8844" r="9.3385"/>
			<circle id="XMLID_984_" fill="#FFCCE0" cx="121.526" cy="142.3873" r="16.969"/>
			<path id="XMLID_983_" fill="#FFCCE0" d="M101.0246,193.5038c-3.7414-7.2866-12.0262-10.7158-19.6207-8.6064
				c0.5714,5.8497,1.1428,11.6994,1.7143,17.5491c0.6289,6.4386,0.5381,11.8737,2.2701,15.7686
				c2.787,0.0914,5.6354-0.5009,8.2919-1.8649C102.0172,212.0694,105.3053,201.8407,101.0246,193.5038z"/>
			<path id="XMLID_982_" fill="#FFCCE0" d="M135.9273,187.4617c-8.337,4.2808-11.6252,14.5094-7.3444,22.8464
				c1.6017,3.1194,4.0363,5.5315,6.8928,7.1052c3.4465-1.3609,6.8109-2.8498,10.0568-4.4151
				c5.0987-2.7814,10.215-5.9283,15.0846-9.4462c0.175-2.9307-0.4052-5.9449-1.8435-8.7459
				C154.4929,186.4691,144.2642,183.1809,135.9273,187.4617z"/>
		</g>
	</g>
	<g id="XMLID_977_" opacity="0.34">
		<path id="XMLID_979_" fill="#FFFFFF" d="M71.0596,75.3857l15.5436,78.7193l13.9204,70.4988
			c6.0263,0.1898,12.1391-0.5261,18.161-1.8754l-22.9063-70.8678L71.0596,75.3857z"/>
		<path id="XMLID_978_" opacity="0.37" fill="#FFFFFF" d="M71.0596,75.3857l15.5436,78.7193l13.9204,70.4988
			c6.0263,0.1898,12.1391-0.5261,18.161-1.8754l-22.9063-70.8678L71.0596,75.3857z"/>
	</g>
</g>
</svg>
