<?xml version="1.0" encoding="utf-8"?>
<!-- Generator: Adobe Illustrator 19.0.0, SVG Export Plug-In . SVG Version: 6.00 Build 0)  -->
<svg version="1.1" id="Layer_1" xmlns="http://www.w3.org/2000/svg" xmlns:xlink="http://www.w3.org/1999/xlink" x="0px" y="0px"
	 viewBox="-342 129 273.3333 304" enable-background="new -342 129 273.3333 304" xml:space="preserve">
<path id="XMLID_15328_" fill="#EF7B05" d="M-205.9754,331.8772c59.7891,0,107.2312,34.131,118.5581,92.0625
	c-3.4772-71.5565-53.361-114.8575-118.5581-114.8575c-65.1956,0-115.0789,43.2994-118.5566,114.8563
	C-313.2043,366.0066-265.7626,331.8772-205.9754,331.8772z"/>
<path id="XMLID_15287_" fill="#79CED6" d="M-274.1041,214.1945c-0.0012,0.0028,0.014,0.0051,0.014,0.0051
	c0,0.0051,0,0.0063,0,0.0063l-0.1009,0.0166c-0.0019,0.0103-0.0462,0.0214-0.0479,0.0316
	c-0.3507,1.7366,0.3563,3.3732,1.2159,4.8307c-1.3349,1.2005-2.0672,2.6655-2.0672,4.3171v0.0055l-0.3328,0.0024
	c-0.2198,1.7643,0.0991,3.3835,1.0094,4.7928c-1.259,1.1941-2.1877,2.6651-2.3043,4.3871c-0.0012,0.017-0.0533,0.0304-0.0549,0.0486
	c-0.125,1.7801,0.4209,3.3638,1.4071,4.7168c-1.2325,1.2969-1.9676,2.8216-2.0851,4.4927c-0.0012,0.013,0.0004,0.0253,0,0.0384
	c0,0-0.0081,0.0154-0.0081,0.0245c-0.0198,1.6769,0.578,3.2566,1.7045,4.6496c-1.0842,1.2606-1.776,2.7801-1.8033,4.5508
	c-0.0004,0.0051,0.2308,0.0115,0.2308,0.0115l0.2368,0.0198v0.0028l-0.2343,0.0051c-0.0368,1.7449,0.6591,3.293,1.8287,4.597
	c-1.0209,1.3313-1.5944,2.9051-1.5944,4.6809v0.0012c0,0-0.083,0.004-0.083,0.0063c0.0838,1.6366,0.7506,3.1838,1.9768,4.4942
	c-0.9738,1.3812-1.5226,2.9767-1.3158,4.7339c0.0016,0.0134,0.2063,0.0257,0.2075,0.0391l0.2146,0.013v0.0079
	c0,0.004-0.2173,0.0055-0.2173,0.0055c0.1854,1.6493,1.0525,3.0917,2.3186,4.306c-0.951,1.4563-1.1013,3.1115-1.1013,4.8948v0.0107
	c0,1.7604,1.0866,3.1538,2.3653,4.236c-0.8936,1.5555-1.3129,3.2147-1.0255,4.873c0.0012,0.0079-0.0302,0.0111-0.0286,0.0194
	c0.0024,0.0107-0.0214,0.0218-0.0186,0.034c0.3665,1.6192,1.3367,2.9707,2.7305,4.0537c-0.7604,1.4994-1.0681,3.1712-0.6545,4.9438
	l0,0l0,0c0.002,0.0067-0.0012,0.0142,0.0008,0.021c0,0,0.0059,0.0087,0.0074,0.0138c0.3756,1.7026,1.5026,3.0308,2.9435,4.0162
	c-0.6758,1.5405-0.3202,3.2175-0.3202,4.9232v0.0067v0.0016l-0.0523,0.0063c0,0-0.0244,0.0032-0.0232,0.0055
	c0.5058,1.705,1.6011,2.9735,3.0214,3.8742c-0.6204,1.5931-0.7548,3.2855-0.1012,4.9521c0.0024,0.0055-0.0029,0.0107-0.0006,0.0158
	l0.0015,0.0055c0.0008,0.0055,0.0004,0.0095,0.0004,0.0095c0.0032,0.0079,0.0075,0.0099,0.0075,0.0099
	c0.6398,1.6801,1.806,2.8778,3.2489,3.69c-0.5421,1.6236-0.6027,3.327,0.0968,4.9703l0.0047,0.0043
	c0.0036,0.0067,0.0023,0.0107,0.0023,0.0107c0.7327,1.6255,2.0028,2.7525,3.5247,3.4935c-0.45,1.6366-0.4334,3.34,0.3033,4.962
	c0.1669,0.3654,0.5081,0.5915,0.8794,0.6244c0.1791,0.0158,0.3621-0.0126,0.5341-0.0917c0.537-0.2459,0.7758-0.8766,0.5322-1.4136
	c-0.4765-1.0506-0.4895-2.1993-0.2076-3.3472c0.6311,0.155,1.2776,0.272,1.9359,0.3298c1.4697,0.1293,2.9731,0.0261,4.3543-0.2661
	c3.3052-0.6857,5.8662-2.2507,6.8528-4.1866c0.5583-1.0942,0.5892-2.2706,0.119-3.4125c-0.0091-0.0241-0.0063-0.0486-0.0166-0.072
	c-0.0047-0.0111-0.0123-0.0182-0.017-0.0289c-0.0067-0.015-0.0083-0.0308-0.0154-0.0474c-0.0158-0.0352-0.0462-0.0573-0.0652-0.0906
	c-0.5484-1.0858-1.4432-1.8264-2.6184-2.1289c-0.8442-0.2155-1.83-0.1423-2.86,0.085c2.1261-1.3978,2.9996-3.3242,2.3274-5.3618
	c-0.009-0.036-0.004-0.0724-0.0174-0.1076c-0.0051-0.0146-0.0142-0.0245-0.0202-0.0395c-0.0047-0.0134-0.0047-0.0253-0.0095-0.0387
	c-0.0111-0.0297-0.0352-0.049-0.0482-0.0775c-0.4737-1.1317-1.3191-1.932-2.4776-2.3009c-0.8608-0.2744-1.8841-0.2519-2.9656-0.0589
	c0.9276-0.535,1.709-1.1546,2.1791-1.8893c0.6544-1.0217,0.7979-2.1803,0.45-3.361c-0.0059-0.0241,0-0.0482-0.0067-0.0728
	c-0.0059-0.0174-0.0158-0.0312-0.0214-0.0486c-0.0067-0.0217-0.0067-0.0415-0.0134-0.0617
	c-0.0095-0.0281-0.0321-0.0471-0.0435-0.0743c-0.4042-1.1463-1.191-1.9889-2.3124-2.4199
	c-0.8355-0.3207-1.8545-0.3527-2.9426-0.2167c0.979-0.4974,1.8082-1.0957,2.3214-1.8292c0.6959-0.9937,0.8802-2.1392,0.5666-3.3274
	c-0.0059-0.0293,0.0012-0.0577-0.0075-0.0858c-0.0047-0.0146-0.0123-0.0257-0.0166-0.0407
	c-0.0051-0.0162-0.0043-0.0316-0.0095-0.0479c-0.0099-0.0308-0.0328-0.0526-0.0451-0.0826
	c-0.4029-1.1763-1.1929-2.0518-2.3222-2.5227c-0.7786-0.3246-1.7157-0.3978-2.7137-0.3416
	c0.7165-0.3191,1.3495-0.7046,1.8414-1.1665c1.0898-1.0253,1.5144-2.3582,1.2535-3.7734c-0.004-0.0526,0.0071-0.104-0.0051-0.1574
	c-0.0043-0.0174-0.0134-0.0324-0.0178-0.0498c-0.0028-0.0107-0.0008-0.0225-0.0036-0.0332
	c-0.0067-0.0293-0.0269-0.0506-0.0364-0.0775c-0.567-2.0557-2.3373-3.1732-4.8497-3.1597c2.3317-0.9569,3.5397-2.675,3.2582-4.792
	c-0.0032-0.0328,0.0083-0.0645,0.0028-0.0977c-0.0024-0.0134-0.0087-0.0229-0.0107-0.0352
	c-0.0024-0.017-0.0007-0.0312-0.0032-0.0475c-0.0091-0.0542-0.0399-0.0961-0.0565-0.1475
	c-0.3199-1.4057-1.2404-2.4721-2.6532-2.9929c-0.6251-0.2274-1.344-0.3274-2.1008-0.3519c0.6845-0.2369,1.3203-0.52,1.8284-0.8992
	c1.2325-0.9213,1.8185-2.2281,1.709-3.6915c-0.0004-0.0403,0.0146-0.0783,0.0103-0.1194c-0.0016-0.0158-0.0076-0.0308-0.0103-0.0467
	c-0.0015-0.017,0.0024-0.0324,0.0004-0.0482c-0.0043-0.0332-0.0233-0.0597-0.0304-0.0917c-0.185-1.2123-0.8051-2.1933-1.8347-2.8331
	c-0.7493-0.469-1.7303-0.6939-2.8074-0.7754c1.0332-0.2966,1.9256-0.7311,2.5587-1.3377c0.8691-0.8355,1.2732-1.9201,1.2036-3.1415
	c0-0.0221,0.0103-0.0411,0.0095-0.0621c-0.0008-0.021-0.0075-0.0388-0.0091-0.0585c-0.0024-0.0277,0.0032-0.0534,0.0004-0.0811
	c-0.0032-0.0304-0.0202-0.0542-0.0253-0.083c-0.117-1.2052-0.6734-2.2092-1.652-2.8956c-0.7074-0.4943-1.6516-0.7627-2.6919-0.9027
	c1.0387-0.2503,1.928-0.6615,2.5895-1.2368c0.9288-0.8066,1.3899-1.8928,1.3642-3.1407c0-0.0233,0.0111-0.0435,0.0091-0.0672
	c0,0-0.004-0.0158-0.0043-0.0253c0,0,0.0032-0.0285,0.0024-0.0427c-0.002-0.0356-0.0205-0.0648-0.0257-0.0993
	c-0.1245-1.2515-0.7022-2.2977-1.699-3.0253c-0.6719-0.4895-1.5568-0.7778-2.5306-0.9577c0.7663-0.1435,1.4736-0.3677,2.0668-0.7003
	c1.3037-0.7359,2.0368-1.9304,2.1289-3.3681c0.0087-0.053,0.0332-0.1016,0.0336-0.1578c0.0004-0.0186-0.0047-0.0332-0.0047-0.0502
	c0,0,0.0047-0.0218,0.0043-0.0336c0-0.0316-0.0146-0.0589-0.017-0.0894c-0.0565-2.1392-1.5073-3.6496-3.96-4.2301
	c2.4761-0.3816,4.0482-1.7588,4.2862-3.8719c0.0071-0.0376,0.0277-0.0696,0.0304-0.1087c0.0012-0.0154-0.0036-0.0289-0.0028-0.0447
	c0.0012-0.013,0.0059-0.0241,0.0075-0.0384c0.0047-0.0704-0.0142-0.1321-0.0206-0.1997c0.0099-1.4215-0.622-2.6583-1.8513-3.4875
	c-0.5445-0.3681-1.2107-0.6334-1.932-0.8371c0.964-0.1036,1.8311-0.3507,2.5294-0.7774c1.0507-0.6418,1.7101-1.6394,1.9355-2.8719
	c0.0088-0.036,0.0301-0.0656,0.0348-0.1032c0.0016-0.0126-0.0004-0.0249-0.0004-0.0249c0.0032-0.0229,0.0071-0.032,0.0071-0.032
	c0.0055-0.0387-0.0047-0.0645-0.0028-0.0929c0.123-1.2376-0.2491-2.3535-1.1044-3.2281c-0.639-0.6528-1.5729-1.117-2.6461-1.4496
	c1.1135-0.0384,2.1411-0.2147,2.9241-0.6746c1.0273-0.6018,1.6624-1.5524,1.8762-2.7386c0.0095-0.0332,0.0308-0.0601,0.0372-0.0949
	c0.0055-0.0308,0.002-0.0601,0.0067-0.091c0.0028-0.0154,0.0083-0.0281,0.0103-0.0435c0.0024-0.017-0.0047-0.032-0.0036-0.049
	c0.1712-1.2175-0.1447-2.3404-0.9498-3.2459 M-272.0902,205.1111v0.0051l0,0 M-250.5435,312.1546
	c0.5789,0.1866,0.9529,0.552,1.1862,1.1392c0.7588,2.1562-2.1937,3.4618-3.1233,3.8118c-2.1597,0.811-5.1186,1.0613-7.582,0.4092
	c0.8826-1.393,2.1546-2.6813,3.5769-3.6425C-254.2797,312.3835-251.9571,311.7109-250.5435,312.1546z M-253.3916,304.1266
	c0.5618,0.2171,0.909,0.6058,1.0996,1.2127c0.2021,0.6133,0.1451,1.1657-0.187,1.6809c-0.7794,1.2163-2.9921,2.1839-5.6385,2.4614
	c-1.7014,0.1843-3.5002,0.0142-5.0628-0.4958c0.951-1.3349,2.2926-2.5532,3.7762-3.4432
	C-257.1081,304.161-254.759,303.6062-253.3916,304.1266z M-255.9053,295.9527c0.5781,0.2408,0.9514,0.6698,1.1495,1.2969
	c0.1755,0.6046,0.1047,1.1202-0.2405,1.6121c-0.8379,1.1953-3.1044,2.0589-5.7754,2.1985c-1.7038,0.091-3.5112-0.1767-5.0652-0.7596
	c1.0213-1.3088,2.4314-2.4424,3.9078-3.2234C-259.5707,295.8218-257.2742,295.3904-255.9053,295.9527z M-256.7965,289.0116
	c0.1609,0.743-0.034,1.3511-0.6208,1.9043c-1.7121,1.6133-6.0687,2.0834-9.5116,1.0296c-0.3179-0.0973-0.69-0.2345-1.0763-0.3994
	c1.6734-1.928,4.2526-3.4195,6.5472-3.9636C-260.4999,287.3568-257.3485,286.795-256.7965,289.0116z M-259.8162,279.1145
	c0.779,0.2859,1.2005,0.7833,1.3448,1.5524c0.3116,2.1431-2.4484,2.8624-3.6643,3.0719c-2.3574,0.4041-5.3499,0.0352-7.6642-1.104
	c0.2946-0.3037,0.5868-0.5765,0.8434-0.7908C-266.161,279.5147-262.0566,278.2846-259.8162,279.1145z M-260.6328,270.8386
	c0.5208,0.3246,0.7956,0.7794,0.8711,1.4179c0.0842,0.7805-0.1875,1.3847-0.8664,1.8905c-1.9383,1.4496-6.3641,1.4583-9.6583,0.0202
	c-0.2697-0.1182-0.5797-0.2748-0.9003-0.4535c1.1981-1.1313,2.7524-2.0688,4.3744-2.6564
	C-264.3014,270.1474-261.881,270.0644-260.6328,270.8386z M-260.6747,263.8098c0.0542,0.6422-0.1174,1.1427-0.5587,1.5619
	c-1.0459,1.002-3.4191,1.3875-6.0727,1.0285c-1.777-0.2582-3.4512-0.8671-4.8161-1.6975c1.2455-1.0735,2.8441-1.9339,4.4993-2.4389
	c2.563-0.7849,4.9806-0.7505,6.1692,0.0763C-260.9534,262.6927-260.7071,263.1593-260.6747,263.8098z M-261.1005,255.3369
	c0.019,0.6271-0.1752,1.1099-0.6287,1.5045c-1.1024,0.9601-3.4998,1.2625-6.1316,0.7485c-1.6686-0.3246-3.357-1.0186-4.7263-1.9557
	c1.3013-1.0277,2.9316-1.7884,4.5385-2.1906c2.5852-0.652,4.924-0.5275,6.1071,0.3353
	C-261.4263,254.1543-261.1547,254.6675-261.1005,255.3369z M-261.1262,246.7969c-0.0202,0.7782-0.3554,1.3333-1.0688,1.7366
	c-2.0782,1.1676-6.3127,0.6046-9.4467-1.2542c-0.2934-0.1736-0.6315-0.3998-0.9778-0.6591
	c2.0984-1.4812,4.9818-2.3163,7.3582-2.2918C-264.2915,244.3374-261.1587,244.5525-261.1262,246.7969z M-266.7968,224.3411
	c0.5061,0.2029,0.9996,0.3432,1.4927,0.486c-0.5128,0.0059-1.0154-0.0071-1.5559,0.053c-2.1127,0.2357-4.2408,0.9486-6.0003,2.0304
	c-0.5935-0.981-0.9197-2.0644-0.7758-3.2305c0.1665-1.2534,0.8323-2.1854,1.5706-2.8861
	C-270.6382,222.3301-268.7414,223.5709-266.7968,224.3411z M-267.8344,233.1398c0.4788,0.1637,0.9435,0.2815,1.4057,0.3954
	c-1.9071,0.136-3.9177,0.6295-5.7319,1.514c-0.5702,0.2772-1.0818,0.5907-1.5658,0.9185c-0.6505-0.9521-0.7404-2.0134-0.6581-3.1787
	c0.0004-0.0051,0.2948-0.0091,0.2948-0.0091v-0.0067c0-1.1158,0.3302-2.0961,1.1727-2.93
	C-271.427,231.3312-269.7826,232.4818-267.8344,233.1398z M-267.0068,242.3023c-2.4421,0.3025-5.1249,1.2479-7.1779,2.7948
	c-0.656-0.8454-1.1423-1.8825-1.1396-3.1214c0.0917-1.244,0.6635-2.242,1.3883-3.0368
	C-272.015,240.649-269.4164,241.804-267.0068,242.3023z M-260.785,238.2956c-0.2048,2.2432-3.3511,2.2009-4.3195,2.1317
	c-0.0573-0.0028-0.1143-0.0075-0.174-0.013c-2.3341-0.2048-5.0522-1.259-6.975-2.8659c0.3661-0.2321,0.7216-0.4298,1.0285-0.5797
	c3.2811-1.601,7.55-1.8145,9.5187-0.4848C-261.0269,236.9413-260.7419,237.5221-260.785,238.2956z M-260.0642,229.7899
	c-0.1079,0.6643-0.4195,1.155-0.9648,1.4879c-1.2448,0.7619-3.5891,0.6975-6.1174-0.1609
	c-1.5694-0.5291-3.1332-1.4199-4.3471-2.5488c1.4404-0.8232,3.1791-1.3768,4.8682-1.5635c2.6556-0.2926,5.0336,0.191,6.0541,1.2361
	C-260.1504,228.6701-259.9962,229.1663-260.0642,229.7899z M-258.9562,221.389c-0.087,0.641-0.3677,1.0862-0.8916,1.3934
	c-1.2558,0.7374-3.6722,0.5698-6.1597-0.4263c-1.6058-0.6342-3.1281-1.62-4.2819-2.7892c1.4306-0.7192,3.1431-1.1878,4.9347-1.3037
	c2.6682-0.1661,5.0079,0.4294,5.9699,1.5136C-258.9776,220.234-258.8463,220.7481-258.9562,221.389z M-272.0897,214.6426v-0.0091
	c0,0-0.0475-0.0079-0.0463-0.0115 M-271.552,217.8462 M-275.0897,251.1677v-0.0012c0-1.17,0.3132-2.1981,1.0395-3.0933
	c0.4563,0.3673,0.8582,0.72,1.4051,1.0443c1.7671,1.0467,3.7237,1.7034,5.6426,1.985c-0.5034,0.0771-1.0199,0.1372-1.547,0.2701
	c-1.996,0.4986-3.8677,1.4871-5.4731,2.8497c-0.773-0.9004-1.0671-1.9237-1.0671-3.0415V251.1677z M-275.1206,260.3302
	c-0.0474-1.1712,0.3658-2.2246,1.0364-3.1538c1.6659,1.2194,3.7287,2.102,5.8169,2.5081c0.5002,0.0977,0.9893,0.1613,1.4705,0.2092
	c-0.4804,0.1-0.9537,0.1763-1.45,0.329c-2.0028,0.6105-3.9964,1.6951-5.5452,3.1111
	C-274.4721,262.5726-275.0573,261.5907-275.1206,260.3302z M-274.2484,269.476l0.1588-0.0123v-0.0091
	c0-1.1166,0.0436-2.1759,0.6814-3.1419c1.6793,1.0949,3.6806,1.8826,5.8802,2.2012c0.3025,0.0423,0.5623,0.0767,0.8558,0.1024
	c0.2415,0.0213,0.4387,0.0012,0.6739,0.0115c-0.503,0.1273-1.0121,0.2337-1.5301,0.4211c-1.9624,0.711-3.8211,1.8913-5.3039,3.3768
	C-273.5815,271.6792-274.1152,270.7152-274.2484,269.476z M-273.0897,278.5764v-0.0016c0-1.1257,0.0262-2.2234,0.6502-3.236
	c0.4516,0.2736,0.8312,0.5603,1.3524,0.7869c1.4974,0.652,3.122,1.0459,4.7401,1.1882c0.4519,0.0395,0.8783,0.0285,1.3203,0.0293
	c-1.8481,0.5809-3.7201,1.5488-5.2915,2.8604c-0.48,0.4002-0.7974,0.8201-1.1836,1.2479
	C-272.3631,280.6784-273.0897,279.7333-273.0897,278.5764z M-271.7244,287.6589c-0.2072-1.2376,0.1143-2.3503,0.6343-3.295
	c1.6919,0.8996,3.6622,1.4377,5.5839,1.6069c0.6429,0.0562,1.2768,0.0716,1.8908,0.0522c-2.3265,0.8699-4.701,2.4013-6.3111,4.3796
	C-270.7466,289.7364-271.4468,288.8531-271.7244,287.6589z M-269.6402,296.651l-0.0024-0.0067
	c-0.0016-0.0055,0-0.0095-0.0008-0.0146c-0.272-1.1507-0.0518-2.272,0.4524-3.3254c0.5243,0.2448,1.0376,0.4994,1.6378,0.6829
	c1.0039,0.308,2.0569,0.5053,3.1087,0.5979c0.9929,0.087,1.9802,0.0704,2.9304-0.0214c-0.4701,0.1957-0.9355,0.3717-1.416,0.6279
	c-1.8315,0.9684-3.5702,2.4171-4.8058,4.1217C-268.6976,298.6245-269.4053,297.7443-269.6402,296.651z M-267.1192,305.4769
	l0.0295-0.0028v-0.0055c0-1.1198-0.2308-2.238,0.1931-3.2997c1.2697,0.5223,2.6594,0.8592,4.0908,0.985
	c0.722,0.0637,1.4402,0.0775,2.1527,0.0407c0.5615-0.0293,1.0696-0.1254,1.5924-0.2064c-0.4792,0.2262-0.96,0.4353-1.4424,0.7252
	c-1.7956,1.0775-3.4498,2.6069-4.6108,4.3459C-266.0739,307.4136-266.7981,306.5674-267.1192,305.4769z M-264.2516,314.187
	l-0.0044-0.0059c-0.0012-0.0051-0.0004-0.0091-0.002-0.013c-0.4191-1.0498-0.34-2.168,0.0502-3.2669
	c1.0577,0.3824,2.189,0.6346,3.3389,0.7359c1.0023,0.0882,2.0134,0.0747,2.9782-0.0316c0.5611-0.0589,1.0704-0.1791,1.5903-0.2879
	c-0.4602,0.2475-0.9205,0.4753-1.3804,0.7853c-1.7264,1.1661-3.3131,2.7876-4.3859,4.6014
	C-263.044,316.1142-263.8316,315.3032-264.2516,314.187z M-260.9301,322.7757c-0.4377-1.038-0.4013-2.1629-0.0645-3.2795
	c0.8236,0.2479,1.6888,0.4089,2.569,0.4864c1.7635,0.155,3.5753-0.0119,5.1922-0.4152c-0.4097,0.2531-0.8209,0.48-1.2258,0.7845
	c-1.6363,1.2289-3.1186,2.9162-4.0854,4.7833C-259.5952,324.5926-260.4517,323.8251-260.9301,322.7757z M-246.0781,322.7737
	c-0.6738,1.3226-2.7865,2.5267-5.3855,3.0648c-1.6453,0.3488-3.4326,0.3551-5.0395,0.0071
	c0.7984-1.4385,1.9826-2.7774,3.3278-3.7872c2.1218-1.5982,4.4072-2.3839,5.8596-2.0261c0.5939,0.1518,1.0067,0.5085,1.2756,1.0751
	C-245.7942,321.6812-245.8009,322.2276-246.0781,322.7737z"/>
<path id="XMLID_15286_" fill="#FC3A5B" d="M-269.0897,199.4694c-8.6812-9.5064-28.0263-13.2304-30.9234,5.051
	c-1.4828,9.3554,7.083,21.4051,15.5491,30.7364c8.1621,8.996,22.2663,9.0051,30.5119,0.0854
	c8.7729-9.4894,17.6977-21.7128,15.746-30.5905C-242.171,186.7131-261.0735,190.8214-269.0897,199.4694z"/>
<path id="XMLID_15285_" fill="#ED0033" d="M-249.076,223.699c-9.5815,8.9193-25.9713,8.9102-35.4552-0.0862
	c-6.03-5.7196-12.0912-12.4594-15.4926-18.9753c-1.3954,9.3392,7.1281,21.3256,15.5598,30.619
	c8.1621,8.9964,22.2659,9.0055,30.5119,0.0862c6.2396-6.7493,12.5345-14.8777,14.9599-22.2054
	C-242.0271,216.8169-245.5561,220.4222-249.076,223.699z"/>
<path id="XMLID_15244_" fill="#79CED6" d="M-168.3233,221.7973c0.004,0.0166-0.0008,0.0324,0.0036,0.0486
	c0.0043,0.0154,0.0119,0.0269,0.017,0.0419c0.0091,0.0297,0.0099,0.0589,0.0198,0.089c0.0115,0.0332,0.0368,0.0569,0.051,0.0882
	c0.3875,1.1415,1.1566,1.9873,2.2613,2.4302c0.8426,0.3389,1.8849,0.361,2.9921,0.2337c-1.0122,0.4879-1.8671,1.0854-2.4021,1.8256
	c-0.7161,0.9917-0.9189,2.151-0.6137,3.3562c0.0059,0.0281,0,0.055,0.0079,0.0826c0.0028,0.0099,0.0083,0.0182,0.0119,0.0281
	c0.0032,0.0126,0.0028,0.0249,0.0064,0.0372c0.0102,0.0364,0.0359,0.0625,0.0494,0.0969c0.4057,1.1854,1.206,2.0743,2.34,2.5532
	c0.7541,0.3187,1.6481,0.4346,2.6168,0.3938c-0.6833,0.3084-1.3025,0.6694-1.7869,1.1143
	c-1.0925,1.0024-1.5338,2.3191-1.3135,3.7236c0.0035,0.0676-0.006,0.1313,0.0094,0.2001c0.0032,0.0138,0.0099,0.0245,0.0126,0.0372
	c0.0032,0.0154,0.0004,0.0293,0.0043,0.0447c0.0083,0.038,0.0332,0.0668,0.0459,0.1028c0.5488,2.0546,2.3076,3.1834,4.8125,3.1937
	c-2.3392,0.9379-3.55,2.6469-3.289,4.7706c0.002,0.0304-0.0083,0.0597-0.0036,0.0906l0.0092,0.0328
	c0.0027,0.0166,0,0.032,0.0027,0.0502c0.0087,0.0554,0.0403,0.1,0.0566,0.1514c0.3045,1.4081,1.2063,2.4804,2.6049,3.015
	c0.6358,0.2408,1.369,0.3578,2.1479,0.3863c-0.9368,0.3219-1.7691,0.7382-2.361,1.3223c-0.8778,0.8671-1.2942,1.9877-1.2317,3.2435
	c0,0.0352-0.0138,0.0664-0.0107,0.102l0.0087,0.0419c0.0008,0.0095-0.0016,0.0166-0.0016,0.0166
	c0.0028,0.0328,0.0166,0.051,0.0202,0.0743c0.1593,1.238,0.7766,2.2436,1.8145,2.9039c0.7394,0.4706,1.6797,0.7454,2.7441,0.8391
	c-1.0083,0.2926-1.9019,0.6983-2.5286,1.2918c-0.866,0.824-1.267,1.8992-1.2045,3.1083c-0.0008,0.0297-0.0142,0.0558-0.0126,0.0862
	c0.0012,0.0277,0.0107,0.0522,0.0126,0.0799c0.0012,0.0198-0.0032,0.0384-0.0008,0.0593c0.0024,0.021,0.0154,0.038,0.0186,0.0597
	c0.1127,1.2187,0.673,2.2313,1.6564,2.9288c0.7157,0.5061,1.6627,0.8035,2.7283,0.9435c-1.053,0.2404-1.9901,0.6081-2.6611,1.1831
	c-0.9237,0.7853-1.391,1.8474-1.3946,3.0735c-0.0024,0.0328-0.0174,0.0621-0.0166,0.0953c0,0,0.0067,0.0304,0.0075,0.0478
	c-0.0004,0.0162-0.004,0.0316-0.0031,0.0479c0.0015,0.0411,0.0221,0.0763,0.028,0.1163c0.1084,1.4634,0.8814,2.669,2.2368,3.3974
	c0.5591,0.3001,1.2297,0.4856,1.9415,0.6184c-0.7446,0.1364-1.4405,0.3416-2.0249,0.6595
	c-1.3207,0.7244-2.0727,1.9154-2.1807,3.3531c-0.0086,0.053-0.0332,0.0992-0.034,0.1542c0,0.0162,0.004,0.0301,0.004,0.0475
	l-0.0051,0.036c-0.0008,0.0336,0.015,0.0633,0.017,0.0965c0.0352,2.1352,1.4848,3.6552,3.9324,4.2558
	c-2.4863,0.3594-4.0715,1.7268-4.3278,3.8438c-0.0051,0.0281-0.0221,0.0522-0.0241,0.0822
	c-0.0016,0.0111,0.0024,0.0221,0.0012,0.0332l-0.0103,0.0522c-0.0043,0.0546,0.0142,0.1036,0.0182,0.1562
	c-0.0482,1.4385,0.569,2.6931,1.7991,3.546c0.5548,0.3839,1.238,0.671,1.9937,0.8806c-0.9953,0.0921-1.9111,0.3033-2.6331,0.7402
	c-1.0467,0.6331-1.6983,1.6156-1.9225,2.839c-0.0075,0.0313-0.0272,0.0562-0.032,0.0882c-0.0028,0.0166,0,0.032-0.0024,0.0486
	c-0.0024,0.0154-0.0083,0.0277-0.0107,0.0431c-0.0043,0.0289,0.0067,0.0558,0.0055,0.0858c-0.134,1.2214,0.2179,2.327,1.0534,3.2064
	c0.6161,0.6493,1.5251,1.1182,2.567,1.465c-1.0961,0.0269-2.0992,0.2096-2.8778,0.6504c-1.0451,0.5927-1.6987,1.5425-1.9284,2.7362
	c-0.0072,0.0285-0.0269,0.0506-0.0316,0.0799c-0.004,0.021-0.0012,0.0403-0.0044,0.0629c-0.0032,0.0178-0.0107,0.0332-0.0138,0.0514
	c-0.0036,0.0249,0.0064,0.0482,0.004,0.0728c-0.1692,1.2195,0.1448,2.3436,0.9431,3.2574c0.5741,0.6568,1.4385,1.1538,2.4353,1.5449
	c-1.0981-0.0301-2.1135,0.0992-2.9245,0.4982c-1.0905,0.5362-1.8082,1.4535-2.1091,2.6425c-0.0087,0.0305-0.0293,0.053-0.036,0.0838
	c-0.0027,0.0142-0.0012,0.0257-0.004,0.0399c-0.0036,0.0154-0.0106,0.0269-0.0138,0.0423
	c-0.0079,0.0368,0.0028,0.0716-0.0012,0.1087c-0.3626,2.1147,0.7865,3.8904,3.0965,4.9577
	c-1.0526-0.0724-2.0384,0.0016-2.8411,0.3396c-1.1174,0.4733-1.8924,1.3385-2.274,2.4935c-0.0142,0.0356-0.0407,0.0621-0.051,0.0992
	c-0.0043,0.0174-0.004,0.0332-0.0083,0.049c-0.0032,0.0115-0.0094,0.0198-0.0126,0.0312c-0.0067,0.0245-0.0004,0.0482-0.0055,0.0739
	c-0.2957,1.1989-0.0909,2.3574,0.6232,3.357c1.2625,1.7687,4.0273,2.9367,7.3977,3.1249c1.4092,0.0838,2.911-0.0368,4.3456-0.3824
	c0.6425-0.1546,1.2645-0.3661,1.8655-0.6129c0.4492,1.0929,0.6066,2.2309,0.2906,3.3408c-0.1609,0.567,0.1684,1.1554,0.7363,1.3187
	c0.1815,0.053,0.3669,0.0538,0.5417,0.0119c0.3622-0.0874,0.6663-0.3618,0.777-0.7477c0.4883-1.7133,0.2519-3.4005-0.4357-4.9525
	c1.3954-0.9581,2.4848-2.261,2.9671-3.9727c0,0-0.0004-0.0079,0.0016-0.0111l0.0044-0.0091c0.4483-1.7291,0.1356-3.4049-0.6406-4.93
	c1.306-1.017,2.2999-2.3744,2.6827-4.1265l0.0235-0.0111c0,0,0-0.0079,0-0.0134l-0.0153-0.0032
	c0.002-0.0087-0.009-0.0134-0.009-0.0134c0.4005-1.7509,0.0191-3.4057-0.8303-4.8889c1.2712-1.1012,2.3921-2.5203,2.6397-4.2811
	l0.2149-0.0036v-0.0079v-0.0016v-0.0079c0-1.7635-0.4174-3.3902-1.3142-4.8137c1.2792-1.1878,2.1666-2.6603,2.2856-4.4001
	c0.0008-0.0055,0.0286-0.0091,0.0286-0.0091v-0.0273l0,0l0,0c0-1.8141-0.5305-3.4227-1.5048-4.7928
	c1.2178-1.2776,1.9218-2.7592,2.0443-4.4151l-0.0367-0.034l-0.0091-0.0206c0.0384-1.6825-0.5533-3.2724-1.6676-4.6785
	c1.1044-1.2598,1.8216-2.777,1.8611-4.563c0,0-0.0036-0.0063-0.004-0.0103c0.0308-1.8078-0.7033-3.3717-1.8598-4.671
	c1.0719-1.3887,1.6709-2.9367,1.6104-4.5915l0.0025-0.0099l-0.0013-0.0079l0.0015-0.0134l-0.0095-0.0384
	c-0.0557-1.7683-0.8149-3.2681-1.9826-4.4895c1.0182-1.4776,1.6032-3.1127,1.4435-4.7433l0.1121-0.0051v-0.0028
	c0-1.7671-0.9919-3.2325-2.1991-4.3978c0.9636-1.463,1.1991-3.1024,1.1991-4.8212v-0.0067v-0.0028c0,0-0.1499-0.0079-0.1511-0.013
	c-0.0008-0.0067-0.0809-0.0123-0.0809-0.0123c-0.2906-1.7521-1.237-3.1526-2.4963-4.2384c0.9079-1.5445,1.2473-3.1953,0.9792-4.8509
	c-0.0016-0.0091-0.0169-0.0146-0.0169-0.0146c-0.004-0.0218-0.0039-0.0348-0.0067-0.0475c-0.3642-1.6354-1.3092-3.036-2.7204-4.1356
	c0.7746-1.4848,1.0993-3.1344,0.7117-4.8766c-0.0043-0.0178-0.0172-0.0297-0.0211-0.0459c-0.3709-1.686-1.4253-3.0154-2.8476-4.0095
	c0.6916-1.5287,1.0305-3.202,0.5517-4.9142l0.0985-0.0024v-0.0051 M-154.9972,313.0966c1.5492,0.7398,2.998,1.8252,4.0775,3.0719
	c-2.3396,1.0103-5.3028,1.2013-7.5591,0.7193c-0.9711-0.2084-4.0849-1.0617-3.6536-3.3068c0.1431-0.6149,0.4591-1.0316,1.004-1.3025
	C-159.7963,311.6304-157.3996,311.9511-154.9972,313.0966z M-153.3455,304.4265c1.599,0.6603,3.1063,1.6663,4.2447,2.8454
	c-1.4697,0.7363-3.2234,1.1708-4.9335,1.2408c-2.6583,0.1178-4.9901-0.5113-5.941-1.5986c-0.4045-0.4603-0.5429-0.998-0.4342-1.6342
	c0.0988-0.6287,0.3844-1.0648,0.9079-1.3626C-158.2265,303.1999-155.8212,303.4004-153.3455,304.4265z M-152.1036,295.6804
	c1.5757,0.5536,3.1384,1.4654,4.3424,2.6085c-1.4504,0.8066-3.1985,1.3393-4.8968,1.5018
	c-2.6623,0.2578-5.0312-0.2598-6.0371-1.3179c-0.4144-0.4353-0.5611-0.9347-0.4769-1.5587
	c0.1032-0.6493,0.4084-1.1293,0.9446-1.4527C-156.9568,294.7021-154.6219,294.7884-152.1036,295.6804z M-153.9766,286.3606
	c2.35,0.1977,5.1218,1.2906,7.0624,2.9494c-0.3578,0.2202-0.7054,0.4112-1.0051,0.5544c-3.2486,1.5524-7.6271,1.7331-9.559,0.3914
	c-0.6627-0.4599-0.9454-1.0324-0.8964-1.7912C-158.1577,286.1905-154.9576,286.2791-153.9766,286.3606z M-147.4116,279.5738
	c0.2858,0.174,0.6152,0.4001,0.9513,0.6572c-2.1198,1.4693-5.0249,2.278-7.4159,2.2277c-1.2333-0.0273-4.0695-0.3294-4.079-2.495
	c0.0289-0.7817,0.3717-1.3365,1.0996-1.7343C-154.7627,277.0763-150.5215,277.6845-147.4116,279.5738z M-151.1309,269.2239
	c1.6908,0.3409,3.3669,1.0376,4.7197,1.9786c-0.2907,0.2242-0.5742,0.4255-0.8233,0.582c-3.0443,1.9106-7.4226,2.5579-9.5547,1.4116
	c-0.7465-0.3994-1.1044-0.9565-1.1368-1.741c-0.0202-0.6429,0.1843-1.1333,0.6516-1.5314
	C-156.1549,268.9728-153.7493,268.6964-151.1309,269.2239z M-157.7227,261.3976c1.053-0.9941,3.4389-1.3863,6.0897-0.9901
	c1.7117,0.2539,3.4203,0.8679,4.8113,1.7449c-1.2269,1.0233-2.7923,1.8738-4.5116,2.3926c-2.5709,0.7481-4.975,0.7189-6.1581-0.117
	c-0.4982-0.3492-0.7422-0.8185-0.7837-1.4614C-158.3396,262.3185-158.1652,261.8202-157.7227,261.3976z M-158.5092,252.8587
	c1.0419-1.0289,3.3369-1.4986,5.9901-1.2368c1.6488,0.1594,3.374,0.6698,4.8133,1.4939c-1.2155,1.1293-2.7825,2.066-4.3843,2.6342
	c-2.5267,0.8984-4.9426,0.9549-6.1751,0.1684c-0.5069-0.323-0.7702-0.7714-0.845-1.3946
	C-159.1557,253.8539-158.9631,253.3059-158.5092,252.8587z M-156.6267,243.0201c2.3468-0.3764,5.3218,0.0221,7.6164,1.1759
	c-0.3041,0.308-0.6046,0.5816-0.8691,0.7968c-2.824,2.3029-6.928,3.4871-9.1565,2.6405c-0.7651-0.293-1.1791-0.7924-1.3143-1.5591
	C-160.6507,243.8501-157.5847,243.1731-156.6267,243.0201z M-151.4049,221.3584c0.3147,1.1321,0.153,2.2519-0.2887,3.31
	c-1.9003-0.809-4.1107-1.1989-6.2352-1.1186c-0.5433,0.021-1.0383,0.1079-1.5464,0.1783c0.4666-0.2143,0.9336-0.4262,1.4045-0.7019
	 M-150.9748,227.5165c0.9573,0.6999,1.8227,1.586,1.8227,2.6801v0.0024c0,0.004,0,0.0083,0,0.0083
	c1,1.1451,0.0951,2.2519-0.4071,3.2898c-0.5271-0.2523-1.0476-0.4867-1.6521-0.6761c-1.9252-0.6058-3.9708-0.7956-5.877-0.6473
	c0.4405-0.1815,0.8584-0.3669,1.3075-0.5998C-153.9518,230.6343-152.2275,229.2088-150.9748,227.5165z M-148.8469,236.4045
	c0.8347,0.6785,1.548,1.5805,1.8228,2.7975c0.1866,1.2246-0.1408,2.3226-0.6639,3.2558c-2.2594-1.2254-5.0529-1.7631-7.5128-1.6999
	C-152.8919,239.9078-150.4931,238.3807-148.8469,236.4045z M-161.3051,235.7892c1.7497-1.6069,6.0031-2.0285,9.4851-0.9316
	c0.3258,0.1028,0.7066,0.2455,1.1028,0.4207c-1.6631,1.8742-4.1949,3.3199-6.4729,3.8683
	c-0.0582,0.0142-0.1139,0.0277-0.1705,0.0387c-0.947,0.2119-4.0522,0.72-4.5876-1.4678
	C-162.1054,236.9592-161.9093,236.342-161.3051,235.7892z M-163.6499,227.8055c0.8541-1.1846,3.1345-2.0158,5.8042-2.1198
	c1.6983-0.066,3.4998,0.2238,5.0462,0.8248c-1.0332,1.2958-2.4476,2.4088-3.9213,3.1649c-2.3733,1.2234-4.6821,1.635-6.026,1.0656
	c-0.5888-0.2479-0.9695-0.6872-1.1748-1.3282C-164.0809,228.8063-164.0022,228.2926-163.6499,227.8055z M-159.1457,221.1803
	c-2.3124,1.3535-4.6773,1.8774-6.028,1.3341c-0.5642-0.2258-0.9075-0.6244-1.089-1.2459 M-145.1522,248.2905
	c0,1.1008-0.3338,2.1846-0.9648,3.1894c-1.7897-1.1095-4.0435-1.7869-6.0914-1.9838c-0.5409-0.0534-1.0903-0.0391-1.5996-0.0411
	c1.856-0.5627,3.7096-1.5085,5.3023-2.8054c0.4923-0.4017,1.1125-0.8229,1.5095-1.2534c0.8509,0.7778,1.844,1.7244,1.844,2.8786
	v0.0024C-145.1522,248.2771-145.1522,248.2866-145.1522,248.2905z M-145.3733,260.551c-1.7414-1.1704-3.8742-1.9478-5.9449-2.2546
	c-0.5137-0.0775-0.9929-0.0826-1.4828-0.1107c0.4689-0.1182,0.943-0.2539,1.4235-0.4247c2.0047-0.711,3.9141-1.8897,5.3807-3.3424
	c0.8007,0.8193,1.3658,1.7999,1.4923,2.9656C-144.3804,258.64-144.8134,259.6973-145.3733,260.551z M-144.8889,269.6719
	c-1.6869-1.2491-3.7754-2.1297-5.8213-2.5417c-0.5405-0.1083-1.0494-0.14-1.5658-0.1914c0.2309-0.0447,0.4492-0.0573,0.6849-0.1139
	c0.2862-0.0692,0.5784-0.1475,0.8714-0.2341c2.1281-0.6418,4.0708-1.7291,5.5694-3.0609c0.7738,0.8608,1.2752,1.8568,1.3005,2.9822
	l0.002,0.0091l-0.0024,0.0123C-143.798,267.7787-144.2582,268.823-144.8889,269.6719z M-144.6212,278.7924
	c-0.4456-0.3658-1.0332-0.7196-1.5674-1.0439c-1.7485-1.0644-3.7932-1.7449-5.7074-2.0455c0.4373-0.0664,0.8452-0.1206,1.2861-0.227
	c1.5788-0.3804,3.1388-1.0142,4.5228-1.8814c0.482-0.3009,1.0849-0.6485,1.491-0.9861c0.7675,0.909,1.4439,1.9474,1.4439,3.0889
	v0.0012C-143.1522,276.8727-143.8841,277.9004-144.6212,278.7924z M-145.1839,287.894c-1.8853-1.7177-4.4606-2.8802-6.8904-3.3958
	c0.6101-0.072,1.2349-0.1807,1.862-0.3317c1.8755-0.452,3.7445-1.2764,5.2843-2.4171c0.6544,0.8573,1.1372,1.9102,1.1158,3.1649
	C-143.9099,286.1364-144.4714,287.1138-145.1839,287.894z M-146.0293,297.0311c-1.4749-1.5029-3.4092-2.6781-5.3637-3.3641
	c-0.5128-0.1819-0.9996-0.2875-1.4935-0.4112c0.9533-0.0498,1.9324-0.1799,2.9011-0.4132c1.0265-0.2471,2.0387-0.5983,2.9857-1.0518
	c0.5662-0.2705,1.0364-0.5983,1.5184-0.9185c0.6548,0.9672,1.0387,2.0439,0.9407,3.2218c0,0,0.002,0.0091,0.0012,0.0146
	l-0.0015,0.0071C-144.6109,295.232-145.1807,296.2071-146.0293,297.0311z M-147.0385,306.0666
	c-1.4057-1.5476-3.4184-2.813-5.3539-3.6125c-0.52-0.2151-1.0924-0.3511-1.5997-0.5038c0.5287,0.0028,1.0159,0.0221,1.575-0.0324
	c0.7102-0.0692,1.4093-0.1906,2.1139-0.3602c1.397-0.3369,2.9995-0.8782,4.1778-1.5828c0.5765,0.9873,0.9734,2.0719,0.9734,3.2301
	v0.0051v0.0032C-145.1522,304.3395-146.1848,305.2857-147.0385,306.0666z M-149.0581,315.0697
	c-1.3298-1.6342-3.1396-3.0027-5.0197-3.8999c-0.5006-0.2388-0.9897-0.3958-1.4812-0.5721c0.5302,0.0304,1.0514,0.0735,1.6153,0.049
	c0.9695-0.038,1.9719-0.1748,2.9501-0.4104c1.1218-0.2705,2.2608-0.6876,3.2501-1.2222c0.5488,1.0285,0.5914,2.123,0.5914,3.223
	c0,0.0043,0,0.0079,0,0.0079c0,0.0071-0.0603,0.0087-0.0611,0.0119C-147.4632,313.4228-148.1791,314.3418-149.0581,315.0697z
	 M-151.2914,323.9301c-1.2333-1.7034-2.9489-3.1522-4.7493-4.1249c-0.4456-0.2412-0.8861-0.4045-1.3286-0.5943
	c1.6587,0.1593,3.4753,0.0558,5.1961-0.359c0.8592-0.2072,1.6908-0.4947,2.4685-0.8616c0.4986,1.0542,0.7015,2.1613,0.4223,3.2526
	C-149.5998,322.352-150.3329,323.2377-151.2914,323.9301z M-164.2549,321.8004c0.1819-0.6002,0.5374-1.0142,1.1021-1.2523
	c1.3835-0.5694,3.7599-0.1313,6.0952,1.1352c1.48,0.7987,2.8497,1.9478,3.8525,3.2518c-1.5378,0.5824-3.306,0.841-4.9849,0.7402
	c-2.65-0.1475-4.9181-1.0249-5.7801-2.2329C-164.3253,322.9435-164.4131,322.4042-164.2549,321.8004z"/>
<path id="XMLID_15243_" fill="#FC3A5B" d="M-174.7417,191.278c-11.8951-4.9232-30.9918-0.0854-25.8566,17.6974
	c2.6279,9.1008,15.4977,16.3759,27.1239,21.2319c11.2087,4.682,23.9832-1.2958,27.6641-12.8718
	c3.9162-12.3158,6.8098-27.1714,1.2753-34.3817C-155.781,168.3031-171.1534,180.0452-174.7417,191.278z"/>
<path id="XMLID_15242_" fill="#ED0033" d="M-146.3367,204.7235c-4.8904,12.1426-19.7349,19.09-32.1401,14.969
	c-7.8876-2.6196-16.2363-6.1502-22.0813-10.6065c2.6999,9.0486,15.5044,16.2846,27.0836,21.1212
	c11.2087,4.6817,23.9832-1.2958,27.6641-12.8714c2.7853-8.7591,5.0356-18.7907,4.1222-26.4557
	C-142.8749,195.5002-144.5403,200.2625-146.3367,204.7235z"/>
<path id="XMLID_15241_" fill="#FC6B84" d="M-255.0305,194.2773c-13.3071,3.257-16.8231,16.5483-0.5524,17.767
	C-236.6475,213.4622-239.1504,190.3904-255.0305,194.2773z"/>
<path id="XMLID_15240_" fill="#FC6B84" d="M-186.1042,193.0016c-13.3075,3.257-16.8231,16.5483-0.5524,17.767
	C-167.7212,212.1865-170.2242,189.1147-186.1042,193.0016z"/>
<path id="XMLID_15239_" fill="#FC6B84" d="M-284.4874,205.1357c7.8675-1.9256,9.9458-9.7832,0.3266-10.5037
	C-295.3548,193.7937-293.8752,207.4334-284.4874,205.1357z"/>
<path id="XMLID_15238_" fill="#FC6B84" d="M-156.5786,189.2721c7.8671-1.9256,9.9457-9.7832,0.3266-10.5037
	C-167.446,177.9302-165.9663,191.5698-156.5786,189.2721z"/>
</svg>
