<?xml version="1.0" encoding="utf-8"?>
<!-- Generator: Adobe Illustrator 19.0.0, SVG Export Plug-In . SVG Version: 6.00 Build 0)  -->
<svg version="1.1" id="Layer_1" xmlns="http://www.w3.org/2000/svg" xmlns:xlink="http://www.w3.org/1999/xlink" x="0px" y="0px"
	 viewBox="-295 65.3333 368 430.6667" enable-background="new -295 65.3333 368 430.6667" xml:space="preserve">
<g id="XMLID_14283_">
	<g id="XMLID_14309_">
		<path id="XMLID_14196_" fill="#B384D9" d="M-150.8447,277.6778c-0.7833-0.2211-1.5898,0.2688-1.7545,1.0659l-6.4681,30.9505
			c-0.8981,4.6601,2.6725,8.639,7.4184,8.639h70.2324c3.6844,0,6.4568-3.0108,5.7612-6.6289l-0.9652-4.8476
			c-1.0469-5.4454-5.0769-9.7477-10.4136-11.254L-150.8447,277.6778z"/>
		<path id="XMLID_14194_" fill="#D376C2" d="M-144.1519,235.02c-0.1467-0.044-0.3002,0.0447-0.3351,0.1939l-7.6751,32.7643
			c-0.6989,3.458,1.4355,6.8569,4.8539,7.7294l62.2266,15.8811c3.9234,1.0013,7.5358-2.4615,6.7011-6.4237l-5.5958-23.699
			c-1.3167-5.5762-5.5081-10.0266-10.9956-11.6747L-144.1519,235.02z"/>
		<path id="XMLID_14192_" fill="#80D0DD" d="M-137.328,194.7983l-6.9586,27.3278c-0.6372,2.9522,1.02,5.9176,3.8682,6.9221
			l47.0181,16.5822c4.0356,1.4232,8.0696-2.1284,7.169-6.3118l-4.7815-18.5768c-1.2808-4.9758-4.8411-9.0518-9.5996-10.9899
			L-137.328,194.7983z"/>
		<path id="XMLID_14190_" fill="#F9DA58" d="M-132.0703,159.0719l-5.1045,23.6082c-0.6631,3.0668,0.872,6.1866,3.7064,7.5325
			l34.3841,16.327c3.1832,1.5115,6.7075-1.313,5.9254-4.749l-4.9827-19.6697c-1.0148-4.0058-3.6951-7.3859-7.3643-9.2868
			L-132.0703,159.0719z"/>
		<path id="XMLID_14188_" fill="#F7B257" d="M-126.7267,129.3348l-5.1676,20.2395c-0.6217,2.4351,0.4404,4.988,2.6059,6.2636
			l23.2368,13.6874c3.2008,1.8854,7.0882-1.0247,6.1809-4.627l-5.0228-19.9416c-1.1252-4.4674-4.276-8.1509-8.5151-9.9547
			L-126.7267,129.3348z"/>
		<path id="XMLID_14186_" fill="#F78FB5" d="M-117.0152,86.5408l-7.8067,28.6102c-1.3379,4.9031,0.8721,10.0825,5.3376,12.5093
			l7.2507,3.9406c2.8722,1.561,6.229-1.0391,5.4358-4.2104L-117.0152,86.5408z"/>
	</g>
	<path id="XMLID_14184_" fill="#EDA6B7" d="M-210.227,301.1155c26.7396,24.0163,18.059,31.1817,33.4043,33.8003
		c1.1817,0.2017,2.2224,0.1463,2.8807,0.622l0.1737-0.0683c0,0-4.5832-19.3242-16.4864-34.6587
		c-9.1768-11.8221-28.7748-28.8755-61.0708-28.5274c-4.1774,0.045-8.9515,0.8645-9.7257,4.0793
		c-1.1939,4.9573-3.8316,13.1614-3.2159,25.7474c1.9151,39.1485,39.2577,58.6196,41.0883,57.2648
		c0.0398-0.0295,0.0798-0.059,0.1198-0.0886c2.8846-2.1338,4.4168-5.5654,1.988-7.5703
		c-29.1994-24.1039-32.9152-59.9527-24.0284-66.3134C-235.8231,278.763-216.8751,295.1444-210.227,301.1155z"/>
	<path id="XMLID_14182_" fill="#EDA6B7" d="M-17.1945,300.914c-26.7395,24.0163-18.0591,31.1817-33.4043,33.8003
		c-1.1817,0.2017-2.2225,0.1462-2.8807,0.622l-0.1738-0.0683c0,0,4.5832-19.3242,16.4864-34.6587
		c9.1768-11.8221,28.7748-28.8755,61.0708-28.5274c4.1774,0.045,8.9515,0.8645,9.7257,4.0793
		c1.1938,4.9573,2.5962,13.1615,3.2159,25.7474c0.9358,19.005-13.1058,51.8503-34.9622,57.2166
		c-1.8782,0.4612-4.2956,1.403-6.1261,0.0482c-0.0398-0.0295-0.0798-0.0591-0.1198-0.0887
		c-2.8845-2.1337-4.4168-5.5653-1.988-7.5703c29.1994-24.1039,32.9152-59.9527,24.0284-66.3134
		C8.4016,278.5616-10.5464,294.9429-17.1945,300.914z"/>
	<path id="XMLID_14180_" fill="#FAE164" d="M-161.8549,319.9572l-5.2154,0.0554c-0.6719,0.0071-1.2973,0.3445-1.6724,0.902
		l-2.911,4.3277c-0.9445,1.4041-3.0891,1.1158-3.6291-0.488l-1.6643-4.943c-0.2145-0.6369-0.7285-1.1274-1.3747-1.3118
		l-5.0155-1.4312c-1.6272-0.4644-2.0157-2.5931-0.6572-3.6022l4.1867-3.1104c0.5394-0.4007,0.8471-1.0412,0.8228-1.7128
		l-0.1887-5.2122c-0.0612-1.6911,1.8433-2.7184,3.2228-1.7383l4.2518,3.0207c0.5478,0.3892,1.2521,0.4839,1.8833,0.2532
		l4.8988-1.7901c1.5895-0.5808,3.1549,0.913,2.6491,2.5279l-1.559,4.9772c-0.2008,0.6413-0.0733,1.3403,0.3411,1.8693l3.2163,4.1059
		C-159.2257,317.9887-160.1627,319.9392-161.8549,319.9572z"/>
	<path id="XMLID_14178_" fill="#80D0DD" d="M-130.3996,327.7288c0-7.524-6.2724-15.2273-13.6234-13.6234
		c-6.6901,1.4597-8.2714,8.1498-8.2714,9.0012c0-1.4597-1.338-6.8117-8.2713-9.0012c-7.1748-2.2657-13.6234,6.0994-13.6234,13.6234
		c0,14.5966,21.8948,26.03,21.8948,26.03S-130.3996,343.2985-130.3996,327.7288z"/>
	<path id="XMLID_14176_" fill="#FAE164" d="M-65.9366,325.5045l-3.2679-4.065c-0.421-0.5237-1.0728-0.8067-1.743-0.7568
		l-5.2012,0.3875c-1.6875,0.1257-2.7867-1.7382-1.86-3.1541l2.8561-4.3641c0.368-0.5623,0.4358-1.2696,0.1812-1.8916l-1.9758-4.8269
		c-0.6411-1.5661,0.7919-3.1875,2.425-2.7437l5.0331,1.3678c0.6485,0.1762,1.3421,0.0221,1.8549-0.4122l3.9801-3.3707
		c1.2914-1.0936,3.2762-0.2318,3.3588,1.4584l0.2545,5.2094c0.0328,0.6712,0.3937,1.2833,0.9652,1.6368l4.4357,2.7437
		c1.4392,0.8902,1.2328,3.0442-0.3491,3.6451l-4.8759,1.8518c-0.6282,0.2386-1.0988,0.771-1.2584,1.4238l-1.2387,5.0664
		C-62.764,326.354-64.8764,326.8234-65.9366,325.5045z"/>
	<path id="XMLID_14174_" fill="#FFC165" d="M-103.0367,338.4593l-5.0214-1.4103c-0.647-0.1817-1.3419-0.0334-1.8583,0.3965
		l-4.0084,3.337c-1.3006,1.0827-3.2781,0.2041-3.3463-1.4867l-0.2104-5.2114c-0.0271-0.6714-0.3828-1.2865-0.9514-1.6448
		l-4.4123-2.7811c-1.4316-0.9023-1.2071-3.0546,0.3799-3.642l4.8913-1.8105c0.6302-0.2332,1.1052-0.7617,1.2704-1.4131
		l1.2815-5.0558c0.4158-1.6403,2.532-2.0919,3.5811-0.7641l3.2334,4.0924c0.4166,0.5273,1.066,0.8158,1.7365,0.7715l5.2043-0.3435
		c1.6886-0.1115,2.772,1.7617,1.8333,3.1697l-2.8929,4.3398c-0.3727,0.5591-0.4465,1.2659-0.1972,1.8899l1.935,4.8434
		C-99.9609,337.3077-101.4075,338.9169-103.0367,338.4593z"/>
	<path id="XMLID_14172_" fill="#FAE164" d="M-85.563,376.0223l-5.0214-1.4103c-0.647-0.1817-1.3419-0.0334-1.8584,0.3965
		l-4.0084,3.337c-1.3006,1.0827-3.278,0.2041-3.3463-1.4868l-0.2104-5.2114c-0.0271-0.6714-0.3829-1.2865-0.9514-1.6449
		l-4.4123-2.781c-1.4316-0.9023-1.2071-3.0546,0.3799-3.642l4.8914-1.8106c0.6302-0.2333,1.1052-0.7617,1.2703-1.4131l1.2815-5.0558
		c0.4158-1.6403,2.532-2.0919,3.5811-0.7641l3.2334,4.0924c0.4166,0.5273,1.066,0.8158,1.7365,0.7715l5.2043-0.3436
		c1.6886-0.1115,2.772,1.7617,1.8333,3.1697l-2.893,4.3398c-0.3727,0.5591-0.4464,1.2659-0.1971,1.8899l1.9349,4.8434
		C-82.4871,374.8707-83.9338,376.4799-85.563,376.0223z"/>
	<path id="XMLID_14170_" fill="#FFC165" d="M-45.2474,351.9118l-5.0214-1.4103c-0.647-0.1817-1.3419-0.0334-1.8583,0.3965
		l-4.0085,3.3369c-1.3006,1.0827-3.278,0.2041-3.3463-1.4867l-0.2104-5.2114c-0.0271-0.6714-0.3829-1.2865-0.9514-1.6449
		l-4.4123-2.7811c-1.4316-0.9023-1.2071-3.0546,0.3799-3.6419l4.8913-1.8106c0.6302-0.2333,1.1053-0.7617,1.2704-1.4131
		l1.2815-5.0558c0.4158-1.6403,2.532-2.0919,3.5811-0.7641l3.2334,4.0924c0.4166,0.5273,1.066,0.8158,1.7365,0.7715l5.2043-0.3436
		c1.6886-0.1115,2.772,1.7617,1.8333,3.1697l-2.8929,4.3398c-0.3728,0.5591-0.4465,1.2659-0.1972,1.8899l1.935,4.8434
		C-42.1715,350.7602-43.6182,352.3694-45.2474,351.9118z"/>
	<path id="XMLID_14168_" fill="#FFC165" d="M-160.826,353.3689l-5.0214-1.4103c-0.647-0.1817-1.3419-0.0334-1.8583,0.3965
		l-4.0085,3.337c-1.3006,1.0826-3.2781,0.204-3.3463-1.4868l-0.2105-5.2114c-0.0271-0.6714-0.3829-1.2866-0.9513-1.6449
		l-4.4123-2.7811c-1.4316-0.9023-1.2071-3.0545,0.3799-3.642l4.8913-1.8105c0.6302-0.2333,1.1052-0.7617,1.2704-1.4131
		l1.2815-5.0558c0.4158-1.6404,2.532-2.0919,3.5811-0.7641l3.2334,4.0924c0.4166,0.5272,1.066,0.8158,1.7365,0.7715l5.2043-0.3436
		c1.6886-0.1115,2.772,1.7617,1.8333,3.1697l-2.893,4.3398c-0.3727,0.5592-0.4464,1.2659-0.1971,1.8899l1.935,4.8435
		C-157.7502,352.2173-159.1968,353.8265-160.826,353.3689z"/>
	<path id="XMLID_14166_" fill="#FAE164" d="M-126.2358,328.3562l-4.2785-2.9828c-0.5513-0.3843-1.2563-0.4727-1.8854-0.2365
		l-4.8828,1.8335c-1.5842,0.5949-3.1629-0.885-2.6714-2.5043l1.5147-4.9909c0.1951-0.643,0.0614-1.3409-0.3577-1.8662
		l-3.2526-4.0772c-1.0553-1.3228-0.1357-3.2816,1.5562-3.3145l5.2146-0.1017c0.6719-0.0131,1.2943-0.356,1.6644-0.9168
		l2.8725-4.3534c0.932-1.4125,3.079-1.1431,3.6333,0.4558l1.7081,4.928c0.2201,0.6349,0.7385,1.1209,1.3863,1.2996l5.028,1.3867
		c1.6313,0.4499,2.0386,2.5751,0.6892,3.5962l-4.159,3.1474c-0.5358,0.4055-0.8378,1.0487-0.8075,1.72l0.2349,5.2103
		C-122.9523,328.28-124.8477,329.3241-126.2358,328.3562z"/>
	<path id="XMLID_14164_" fill="#D376C2" d="M-56.3645,327.7288c0-7.524-6.2724-15.2273-13.6234-13.6234
		c-6.6901,1.4597-8.2714,8.1498-8.2714,9.0012c0-1.4597-1.338-6.8117-8.2713-9.0012c-7.1747-2.2657-13.6234,6.0994-13.6234,13.6234
		c0,14.5966,21.8948,26.03,21.8948,26.03S-56.3645,343.2985-56.3645,327.7288z"/>
	<path id="XMLID_14162_" fill="#FC86B1" d="M-86.5067,350.6438c0-9.836-8.4149-19.9063-18.277-17.8096
		c-8.9754,1.9082-11.0969,10.654-11.0969,11.7671c0-1.9082-1.795-8.9048-11.0967-11.7671
		c-9.6257-2.9619-18.2771,7.9736-18.2771,17.8096c0,19.0817,29.3738,34.0284,29.3738,34.0284S-86.5067,370.9976-86.5067,350.6438z"
		/>
</g>
<path id="XMLID_14160_" fill="#FAE164" d="M-137.647,337.4734l-2.123-0.6456c-0.2735-0.0832-0.5658-0.0208-0.7816,0.1667
	l-1.6746,1.4559c-0.5433,0.4724-1.3809,0.0753-1.4173-0.6718l-0.1123-2.303c-0.0144-0.2967-0.1672-0.5701-0.4084-0.7309
	l-1.8725-1.2484c-0.6075-0.4051-0.5226-1.3548,0.1437-1.6071l2.0537-0.7777c0.2646-0.1002,0.4624-0.3315,0.5291-0.6185
	l0.5173-2.2275c0.1679-0.7227,1.0579-0.9126,1.5061-0.3213l1.3815,1.8224c0.178,0.2348,0.453,0.3652,0.7355,0.3487l2.1922-0.1283
	c0.7113-0.0416,1.1764,0.7907,0.7872,1.4084l-1.1999,1.904c-0.1546,0.2453-0.1825,0.5572-0.0746,0.8339l0.8375,2.1483
	C-136.3557,336.9786-136.9582,337.6829-137.647,337.4734z"/>
<path id="XMLID_14157_" fill="#FAE164" d="M-85.7511,340.8689l-2.1968-1.5357c-0.2831-0.1978-0.6452-0.2433-0.9683-0.1215
	l-2.5081,0.9454c-0.8138,0.3067-1.6243-0.4553-1.3716-1.2895l0.7789-2.5712c0.1004-0.3312,0.0318-0.6907-0.1833-0.9612
	l-1.6698-2.0995c-0.5418-0.6812-0.0691-1.6903,0.7999-1.7077l2.6783-0.0533c0.345-0.0069,0.6648-0.1836,0.8549-0.4726l1.4762-2.243
	c0.4789-0.7278,1.5816-0.5894,1.8659,0.2341l0.8763,2.5382c0.1129,0.327,0.3791,0.5772,0.7118,0.6691l2.5821,0.7133
	c0.8378,0.2314,1.0465,1.326,0.3533,1.8523l-2.1367,1.6221c-0.2753,0.209-0.4305,0.5403-0.4151,0.8861l0.1197,2.6839
	C-84.0647,340.8289-85.0383,341.3671-85.7511,340.8689z"/>
<g id="XMLID_14265_">
	<path id="XMLID_14155_" fill="#F2B1D8" d="M-80.588,362.248c-5.7931-2.5066-8.4573-9.2348-5.9508-15.0279
		c0.9576-2.213,2.5322-3.9674,4.4344-5.1534c-4.039,0.3609-7.7584,2.8649-9.4819,6.8483
		c-2.5066,5.7931,0.1577,12.5213,5.9508,15.0279c3.5801,1.549,7.5162,1.1212,10.5935-0.7974
		C-76.8771,363.3094-78.7782,363.0311-80.588,362.248z"/>
	<path id="XMLID_14153_" fill="#F2B1D8" d="M-70.7671,353.9161c1.6253,6.0993-2.0015,12.3613-8.1008,13.9866
		c-2.33,0.6209-4.6828,0.4732-6.7927-0.2838c2.7874,2.9451,7.0581,4.3107,11.252,3.1931c6.0993-1.6253,9.7262-7.8874,8.1009-13.9866
		c-1.0045-3.7693-3.7806-6.5923-7.194-7.817C-72.2352,350.3465-71.2748,352.0107-70.7671,353.9161z"/>
	<path id="XMLID_14151_" fill="#F2B1D8" d="M-74.9919,350.8111c-0.2427-0.4999-0.5172-0.9691-0.8167-1.4053
		c0.0888,3.0387-1.2149,5.6111-2.8852,6.7119c-2.2735,1.4986-5.0326,1.0893-7.0712-1.8794
		c0.1574,0.5052,0.3561,1.0111,0.5988,1.5111c1.8946,3.9032,5.8944,6.2931,8.5175,4.5983
		C-72.7383,357.8212-73.0973,354.7144-74.9919,350.8111z"/>
	<path id="XMLID_14149_" fill="#F2B1D8" d="M-78.4243,353.1022c-0.0788,0.3224-0.1801,0.6309-0.3001,0.9232
		c-0.3288-1.7851-1.411-3.1226-2.5225-3.555c-1.5131-0.5886-3.0703-0.0022-3.887,1.9875c0.0284-0.3147,0.0809-0.6351,0.1598-0.9576
		c0.6156-2.5172,2.6481-4.416,4.3896-3.7568C-77.9884,348.7261-77.8086,350.585-78.4243,353.1022z"/>
	<path id="XMLID_14147_" fill="#F2B1D8" d="M-78.9959,344.1635c5.9044-2.2319,12.5001,0.7452,14.732,6.6495
		c0.8526,2.2555,0.9429,4.6112,0.4024,6.7867c2.649-3.0701,3.5771-7.4568,2.0425-11.5166
		c-2.2319-5.9043-8.8277-8.8815-14.732-6.6496c-3.6489,1.3793-6.1776,4.4259-7.0519,7.9454
		C-82.3992,345.9839-80.8404,344.8608-78.9959,344.1635z"/>
</g>
<path id="XMLID_14145_" fill="#AEDC97" d="M-171.5079,351.3274c0,0-1.8996,8.9841-10.9483,10.9266s-14.539,1.6428-14.539,1.6428
	s-2.7589-2.2698,4.2993-10.1693C-185.6378,345.8281-171.5079,351.3274-171.5079,351.3274z"/>
<path id="XMLID_14143_" fill="#AEDC97" d="M-37.4464,369.9839c0,0-8.7299,2.8479-14.9374-4.0164
	c-6.2075-6.8643-8.6937-11.7687-8.6937-11.7687s0.5858-3.5242,10.9563-1.3627C-39.7506,354.9977-37.4464,369.9839-37.4464,369.9839z
	"/>
<path id="XMLID_14141_" fill="#9CD799" d="M-171.5121,357.5997c0,0,4.3079,4.7818-0.0765,11.2385
	c-4.3844,6.4566-7.946,9.7837-7.946,9.7837s-3.0815,0.8251-3.5536-6.7618C-183.5603,364.273-171.5121,357.5997-171.5121,357.5997z"
	/>
<path id="XMLID_14139_" fill="#9CD799" d="M-63.613,359.8078c0,0,6.333-1.1475,9.5169,5.9781
	c3.1839,7.1256,4.1393,11.9049,4.1393,11.9049s-0.9197,3.0547-7.6199-0.5357C-64.2771,373.5646-63.613,359.8078-63.613,359.8078z"/>
<g id="XMLID_14244_">
	<path id="XMLID_14137_" fill="#B6AFD8" d="M-161.7514,355.9058c0-6.3121,5.117-11.4291,11.4291-11.4291
		c2.4113,0,4.6467,0.7485,6.4905,2.0233c-1.9351-3.5635-5.7102-5.9828-10.0504-5.9828c-6.3122,0-11.4291,5.1169-11.4291,11.4291
		c0,3.9009,1.9557,7.3435,4.9385,9.4058C-161.252,359.733-161.7514,357.8778-161.7514,355.9058z"/>
	<path id="XMLID_14135_" fill="#B6AFD8" d="M-150.2047,361.6106c-4.9523,3.9137-12.1397,3.0717-16.0535-1.8806
		c-1.495-1.8918-2.2938-4.1098-2.4369-6.3468c-1.596,3.7278-1.1534,8.1896,1.5377,11.5948
		c3.9138,4.9524,11.1011,5.7943,16.0535,1.8806c3.0605-2.4186,4.5489-6.0875,4.3174-9.7066
		C-147.5116,358.8456-148.6576,360.3878-150.2047,361.6106z"/>
	<path id="XMLID_14133_" fill="#B6AFD8" d="M-149.0327,356.5001c0.3625-0.4213,0.6841-0.8596,0.9654-1.3077
		c-2.7536,1.2882-5.6321,1.1133-7.3058,0.0175c-2.2782-1.4915-2.9982-4.1862-1.0832-7.2361
		c-0.4011,0.345-0.7866,0.7283-1.1491,1.1496c-2.83,3.2888-3.435,7.9088-0.8378,9.6432
		C-154.5715,361.3521-151.8627,359.7889-149.0327,356.5001z"/>
	<path id="XMLID_14131_" fill="#B6AFD8" d="M-152.4985,354.2598c-0.3272,0.0557-0.6506,0.0851-0.9665,0.0912
		c1.5078-1.0107,2.3056-2.535,2.261-3.7269c-0.0607-1.6224-1.2172-2.8187-3.3676-2.7782c0.3001-0.0988,0.615-0.1779,0.9423-0.2336
		c2.5546-0.4345,5.1044,0.6768,5.1911,2.5369C-148.3091,352.922-149.9438,353.8252-152.4985,354.2598z"/>
	<path id="XMLID_14129_" fill="#B6AFD8" d="M-144.5217,350.1856c4.3931,4.5326,4.2799,11.7682-0.2526,16.1612
		c-1.7315,1.6782-3.8577,2.6965-6.0688,3.0644c3.8697,1.2121,8.2642,0.3219,11.3807-2.6987
		c4.5326-4.3931,4.6457-11.6287,0.2527-16.1613c-2.7148-2.8011-6.5151-3.9121-10.0924-3.3169
		C-147.544,347.7849-145.8941,348.7696-144.5217,350.1856z"/>
</g>
<g id="XMLID_14216_">
	<g id="XMLID_14232_">
		<path id="XMLID_14127_" fill="#F7D0DA" d="M-122.0937,350.8985c-3.2242-4.2476-2.3987-10.265,1.8436-13.4401
			c1.6206-1.2129,3.5054-1.8337,5.3957-1.9034c-3.1208-1.4245-6.8937-1.1536-9.8106,1.0296
			c-4.2423,3.1752-5.0677,9.1925-1.8436,13.4401c1.9925,2.625,5.0652,3.9579,8.1234,3.8453
			C-119.8032,353.2228-121.0865,352.2255-122.0937,350.8985z"/>
		<path id="XMLID_14125_" fill="#F7D0DA" d="M-109.1221,347.964c-1.3294,5.1248-6.59,8.1737-11.7499,6.8098
			c-1.9711-0.5211-3.6409-1.6118-4.8796-3.0452c0.8314,3.3113,3.4079,6.0912,6.9558,7.029
			c5.1599,1.3639,10.4205-1.685,11.7499-6.8098c0.8215-3.1671-0.0521-6.3847-2.0562-8.7036
			C-108.7243,344.7487-108.7068,346.3629-109.1221,347.964z"/>
		<path id="XMLID_14123_" fill="#F7D0DA" d="M-111.4803,345.6116c0.0284-0.4659,0.0207-0.9226-0.0191-1.3656
			c-1.1926,2.252-3.2166,3.5822-4.9012,3.6867c-2.2929,0.1423-4.1533-1.3089-4.424-4.3246
			c-0.0933,0.4339-0.1566,0.8857-0.1851,1.3516c-0.2222,3.6366,1.731,7.0499,4.3624,6.9106
			C-112.7246,351.6628-111.7025,349.2482-111.4803,345.6116z"/>
		<path id="XMLID_14121_" fill="#F7D0DA" d="M-114.2897,345.7051c-0.1915,0.2021-0.3937,0.3846-0.603,0.5475
			c0.4972-1.4386,0.2548-2.8657-0.384-3.6453c-0.8695-1.0612-2.2578-1.2845-3.6823-0.1755c0.1512-0.2174,0.3225-0.429,0.514-0.6311
			c1.495-1.5775,3.7763-2.1122,4.7846-0.9041C-112.1574,342.6975-112.7947,344.1276-114.2897,345.7051z"/>
		<path id="XMLID_14119_" fill="#F7D0DA" d="M-114.4527,338.3823c5.2676,0.8403,8.8874,5.7662,8.085,11.0025
			c-0.3065,2.0002-1.2154,3.755-2.5136,5.1148c3.2198-1.1309,5.7187-3.9404,6.2704-7.5408
			c0.8025-5.2362-2.8173-10.1622-8.085-11.0025c-3.2554-0.5193-6.3769,0.6447-8.4772,2.8447
			C-117.7102,338.2871-116.0984,338.1197-114.4527,338.3823z"/>
	</g>
	<path id="XMLID_14117_" fill="#F7D0DA" d="M-128.447,339.5075c2.8109-6.6679,10.5672-9.7204,17.3242-6.8181
		c2.5812,1.1087,4.6409,2.9273,6.047,5.1217c-0.4847-4.6541-3.4485-8.9455-8.0946-10.9411
		c-6.757-2.9023-14.5133,0.1502-17.3241,6.8181c-1.7371,4.1207-1.1767,8.6565,1.0981,12.2066
		C-129.6167,343.7801-129.3251,341.5906-128.447,339.5075z"/>
	<path id="XMLID_14111_" fill="#F7D0DA" d="M-102.8801,338.4025c4.4329,5.3728,3.2789,13.6086-2.5774,18.3951
		c-2.2372,1.8284-4.8369,2.8865-7.4428,3.1996c4.298,1.5658,9.4995,0.7624,13.5263-2.5288
		c5.8563-4.7865,7.0103-13.0223,2.5775-18.3951c-2.7395-3.3204-6.9716-4.7677-11.1875-4.2612
		C-106.0313,335.5235-104.2649,336.724-102.8801,338.4025z"/>
	<path id="XMLID_924_" fill="#F7D0DA" d="M-117.1017,359.4599c-7.4404,1.0367-14.182-2.9953-15.0578-9.0055
		c-0.3345-2.2959,0.2376-4.5474,1.4845-6.5124c-3.932,2.4278-6.2599,6.4197-5.6577,10.5523
		c0.8758,6.0102,7.6173,10.0422,15.0578,9.0055c4.5981-0.6406,8.3848-3.0681,10.4019-6.2471
		C-112.6596,358.3557-114.7773,359.136-117.1017,359.4599z"/>
</g>
</svg>
