<?xml version="1.0" encoding="utf-8"?>
<!-- Generator: Adobe Illustrator 19.0.0, SVG Export Plug-In . SVG Version: 6.00 Build 0)  -->
<svg version="1.1" id="Layer_1" xmlns="http://www.w3.org/2000/svg" xmlns:xlink="http://www.w3.org/1999/xlink" x="0px" y="0px"
	 viewBox="0 0 273.3333 304" enable-background="new 0 0 273.3333 304" xml:space="preserve">
<g id="XMLID_15237_">
	<path id="XMLID_15328_" fill="#EF7B05" d="M136.0246,202.8772c59.7891,0,107.2312,34.131,118.5581,92.0625
		c-3.4772-71.5565-53.361-114.8575-118.5581-114.8575c-65.1956,0-115.0789,43.2994-118.5566,114.8563
		C28.7957,237.0066,76.2374,202.8772,136.0246,202.8772z"/>
	<path id="XMLID_15287_" fill="#79CED6" d="M87.3674,192.8508c-0.0091-0.0241-0.0063-0.0486-0.0166-0.072
		c-0.0047-0.0111-0.0123-0.0182-0.017-0.0289c-0.0067-0.015-0.0083-0.0308-0.0154-0.0474
		c-0.0158-0.0352-0.0462-0.0573-0.0652-0.0906c-0.5484-1.0858-1.4432-1.8264-2.6184-2.1289c-0.8442-0.2155-1.83-0.1423-2.86,0.085
		c2.1261-1.3978,2.9996-3.3242,2.3274-5.3618c-0.009-0.036-0.004-0.0724-0.0174-0.1076c-0.0051-0.0146-0.0142-0.0245-0.0202-0.0395
		c-0.0047-0.0134-0.0047-0.0253-0.0095-0.0387c-0.0111-0.0297-0.0352-0.049-0.0482-0.0775
		c-0.4737-1.1317-1.3191-1.932-2.4776-2.3009c-0.8608-0.2744-1.8841-0.2519-2.9656-0.0589c0.9276-0.535,1.709-1.1546,2.1791-1.8893
		c0.6544-1.0217,0.7979-2.1803,0.45-3.361c-0.0059-0.0241,0-0.0482-0.0067-0.0728c-0.0059-0.0174-0.0158-0.0312-0.0214-0.0486
		c-0.0067-0.0217-0.0067-0.0415-0.0134-0.0617c-0.0095-0.0281-0.0321-0.0471-0.0435-0.0743
		c-0.4042-1.1463-1.191-1.9889-2.3124-2.4199c-0.8355-0.3207-1.8545-0.3527-2.9426-0.2167c0.979-0.4974,1.8082-1.0957,2.3214-1.8292
		c0.6959-0.9937,0.8802-2.1392,0.5666-3.3274c-0.0059-0.0293,0.0012-0.0577-0.0075-0.0858
		c-0.0047-0.0146-0.0123-0.0257-0.0166-0.0407c-0.0051-0.0162-0.0043-0.0316-0.0095-0.0479
		c-0.0099-0.0308-0.0328-0.0526-0.0451-0.0826c-0.4029-1.1763-1.1929-2.0518-2.3222-2.5227
		c-0.7786-0.3246-1.7157-0.3978-2.7137-0.3416c0.7165-0.3191,1.3495-0.7046,1.8414-1.1665
		c1.0898-1.0253,1.5144-2.3582,1.2535-3.7734c-0.004-0.0526,0.0071-0.104-0.0051-0.1574c-0.0043-0.0174-0.0134-0.0324-0.0178-0.0498
		c-0.0028-0.0107-0.0008-0.0225-0.0036-0.0332c-0.0067-0.0293-0.0269-0.0506-0.0364-0.0775
		c-0.567-2.0557-2.3373-3.1732-4.8497-3.1597c2.3317-0.9569,3.5397-2.675,3.2582-4.792c-0.0032-0.0328,0.0083-0.0645,0.0028-0.0977
		c-0.0024-0.0134-0.0087-0.0229-0.0107-0.0352c-0.0024-0.017-0.0007-0.0312-0.0032-0.0475
		c-0.0091-0.0542-0.0399-0.0961-0.0565-0.1475c-0.3199-1.4057-1.2404-2.4721-2.6532-2.9929
		c-0.6251-0.2274-1.344-0.3274-2.1008-0.3519c0.6845-0.2369,1.3203-0.52,1.8284-0.8992c1.2325-0.9213,1.8185-2.2281,1.709-3.6915
		c-0.0004-0.0403,0.0146-0.0783,0.0103-0.1194c-0.0016-0.0158-0.0076-0.0308-0.0103-0.0467
		c-0.0015-0.017,0.0024-0.0324,0.0004-0.0482c-0.0043-0.0332-0.0233-0.0597-0.0304-0.0917
		c-0.185-1.2123-0.8051-2.1933-1.8347-2.8331c-0.7493-0.469-1.7303-0.6939-2.8074-0.7754c1.0332-0.2966,1.9256-0.7311,2.5587-1.3377
		c0.8691-0.8355,1.2732-1.9201,1.2036-3.1415c0-0.0221,0.0103-0.0411,0.0095-0.0621c-0.0008-0.021-0.0075-0.0388-0.0091-0.0585
		c-0.0024-0.0277,0.0032-0.0534,0.0004-0.0811c-0.0032-0.0304-0.0202-0.0542-0.0253-0.083c-0.117-1.2052-0.6734-2.2092-1.652-2.8956
		c-0.7074-0.4943-1.6516-0.7627-2.6919-0.9027c1.0387-0.2503,1.928-0.6615,2.5895-1.2368c0.9288-0.8066,1.3899-1.8928,1.3642-3.1407
		c0-0.0233,0.0111-0.0435,0.0091-0.0672c0,0-0.004-0.0158-0.0043-0.0253c0,0,0.0032-0.0285,0.0024-0.0427
		c-0.002-0.0356-0.0205-0.0648-0.0257-0.0993c-0.1245-1.2515-0.7022-2.2977-1.699-3.0253
		c-0.6719-0.4895-1.5568-0.7778-2.5306-0.9577c0.7663-0.1435,1.4736-0.3677,2.0668-0.7003
		c1.3037-0.7359,2.0368-1.9304,2.1289-3.3681c0.0087-0.053,0.0332-0.1016,0.0336-0.1578c0.0004-0.0186-0.0047-0.0332-0.0047-0.0502
		c0,0,0.0047-0.0218,0.0043-0.0336c0-0.0316-0.0146-0.0589-0.017-0.0894c-0.0565-2.1392-1.5073-3.6496-3.96-4.2301
		c2.4761-0.3816,4.0482-1.7588,4.2862-3.8719c0.0071-0.0376,0.0277-0.0696,0.0304-0.1087c0.0012-0.0154-0.0036-0.0289-0.0028-0.0447
		c0.0012-0.013,0.0059-0.0241,0.0075-0.0384c0.0047-0.0704-0.0142-0.1321-0.0206-0.1997c0.0099-1.4215-0.622-2.6583-1.8513-3.4875
		c-0.5445-0.3681-1.2107-0.6334-1.932-0.8371c0.964-0.1036,1.8311-0.3507,2.5294-0.7774c1.0507-0.6418,1.7101-1.6394,1.9355-2.8719
		c0.0088-0.036,0.0301-0.0656,0.0348-0.1032c0.0016-0.0126-0.0004-0.0249-0.0004-0.0249c0.0032-0.0229,0.0071-0.032,0.0071-0.032
		c0.0055-0.0387-0.0047-0.0645-0.0028-0.0929c0.123-1.2376-0.2491-2.3535-1.1044-3.2281c-0.639-0.6528-1.5729-1.117-2.6461-1.4496
		c1.1135-0.0384,2.1411-0.2147,2.9241-0.6746c1.0273-0.6018,1.6624-1.5524,1.8762-2.7386c0.0095-0.0332,0.0308-0.0601,0.0372-0.0949
		c0.0055-0.0308,0.002-0.0601,0.0067-0.091c0.0028-0.0154,0.0083-0.0281,0.0103-0.0435c0.0024-0.017-0.0047-0.032-0.0036-0.049
		c0.1712-1.2175-0.1447-2.3404-0.9498-3.2459c-0.5903-0.6655-1.4761-1.1593-2.4986-1.5385c1.1032,0.013,2.1202-0.1317,2.9225-0.5441
		c1.0767-0.5555,1.775-1.482,2.0557-2.6742c0.0091-0.0308,0.0304-0.055,0.0372-0.0886c0.0032-0.0154,0-0.0312,0.0036-0.0467
		c0.0036-0.0178,0.0119-0.0328,0.0155-0.051c0.0094-0.0463-0.0036-0.0905-0.0012-0.136c0.2218-1.4448-0.257-2.7888-1.4061-3.8003
		c-0.4682-0.4144-1.0648-0.7481-1.7145-1.038c0.7457,0.0328,1.4583-0.013,2.0917-0.1878c1.4595-0.4081,2.4689-1.4041,2.8968-2.7955
		c0.015-0.0391,0.0435-0.0708,0.0546-0.1143c0.0028-0.0115,0.0012-0.0233,0.0044-0.0348c0.004-0.0166,0.0142-0.03,0.0181-0.0467
		c0.015-0.0565,0.0043-0.1123,0.0091-0.1681c0.2823-1.4187-0.1238-3.1024-1.204-4.1629C76.4715,73.0174,75.8906,73,75.2512,72h0.004
		c2.3594,1,4.1048-0.3592,4.9173-2.1381c0.0949-0.1068,0.1716-0.0677,0.2191-0.2124c0.0055-0.0178,0.0044,0.0478,0.0099,0.03
		c0.0036-0.0115,0.0119,0.0245,0.0154,0.013c0.0134-0.0407,0.0059-0.0615,0.0142-0.1038c0.3887-1.3986,0.0732-2.7662-0.9383-3.8824
		c-0.4393-0.486-1.03-0.8979-1.6924-1.2672c0.1234,0.0174,0.2539,0.0548,0.3752,0.0655c0.8387,0.0739,1.6196,0.0025,2.3096-0.2221
		c1.1661-0.3792,2.0257-1.1927,2.5196-2.3323c0.0142-0.0273,0.0384-0.0471,0.0498-0.0764c0.0059-0.015,0.0075-0.0307,0.0134-0.0457
		c0.0048-0.0127,0.0123-0.0225,0.0174-0.0351c0.0099-0.0253,0.0059-0.0518,0.013-0.0771c0.4136-1.1609,0.3231-2.3242-0.291-3.3728
		c-0.4436-0.756-1.2028-1.4037-2.1087-1.9711c0.2926,0.0581,0.5888,0.1289,0.8687,0.1534c0.7323,0.0645,1.4148,0.0091,2.0273-0.17
		c1.1644-0.3412,2.0225-1.1281,2.5171-2.2594c0.0071-0.015,0.0254-0.0202,0.032-0.0368c0.0087-0.0198,0.0107-0.0419,0.0198-0.0621
		c0.0067-0.0166,0.0171-0.0301,0.0237-0.0463c0.0091-0.0229,0.0055-0.0467,0.0126-0.0696c0.4409-1.1483,0.3907-2.3159-0.1799-3.3891
		c-0.3974-0.7469-1.1004-1.4065-1.9423-2.0012c0.412,0.1056,0.8189,0.1934,1.2084,0.2278c0.5947,0.0522,1.155,0.0202,1.673-0.0989
		c1.2036-0.2792,2.1273-1.0233,2.6876-2.1415c0.0063-0.0111,0.0202-0.015,0.0261-0.0277c0.0047-0.0115,0.0063-0.0229,0.0115-0.0344
		c0.0071-0.0138,0.017-0.0245,0.0237-0.0384c0.0166-0.0352,0.0138-0.072,0.0269-0.1087c0.8201-1.9391,0.1538-3.8976-1.7695-5.4484
		c0.4757,0.1384,0.9435,0.2372,1.3926,0.2768c0.465,0.0407,0.9134,0.0281,1.3333-0.0451c1.2171-0.2084,2.1839-0.8916,2.8162-1.9585
		c0.009-0.015,0.0277-0.0198,0.0363-0.0364c0.0079-0.0134,0.0103-0.0289,0.0182-0.0427c0.0071-0.0127,0.0162-0.021,0.0225-0.032
		c0.0139-0.0261,0.0139-0.0538,0.0253-0.0803c0.5556-1.0949,0.6228-2.2637,0.157-3.3974c-0.8228-2.0087-3.2503-3.7793-6.4899-4.7311
		c-1.9584-0.5856-4.1989-0.7695-6.2756-0.4314c-0.1922-1.1708-0.0877-2.3211,0.4749-3.3341
		c0.2863-0.5164,0.0996-1.1661-0.414-1.4519c-0.5117-0.2831-1.1637-0.0996-1.4523,0.414c-0.8636,1.5544-1.0194,3.2483-0.7058,4.9138
		c-1.5793,0.6164-2.9324,1.6465-3.7916,3.2036c0,0-0.0012,0.0051-0.0028,0.0079c-0.0024,0.0047-0.0071,0.0071-0.0095,0.0123
		c-0.8379,1.5959-0.9063,3.3143-0.4852,4.9897c-1.4915,0.692-2.7643,1.7457-3.5362,3.3503
		c-0.0051,0.0099-0.0142,0.0142-0.0189,0.0245c0,0-0.0012,0.0051-0.0028,0.0075c-0.0016,0.0036-0.0051,0.0059-0.0067,0.0099
		c-0.0055,0.0127-0.004,0.0245-0.0091,0.0372c-0.7766,1.5986-0.7888,3.2866-0.3037,4.9153
		c-1.4844,0.7801-2.6836,1.9569-3.3298,3.6117c-0.0024,0.0079-0.0087,0.0111-0.0111,0.0174
		c-0.0012,0.0024-0.0012,0.0051-0.0012,0.0051l-0.0024,0.0051c-0.0016,0.0036-0.0008,0.0063-0.0008,0.0063
		c-0.6512,1.6635-0.5726,3.3519-0.0229,4.9426c-1.5101,0.8604-2.6821,2.0921-3.1965,3.7465
		c-0.0043,0.0115-0.0134,0.0186-0.017,0.0301c-0.002,0.0051,0.0898,0.0103,0.0882,0.0154l0.0886,0.0075v0.0103
		c0,1.7283-0.4797,3.414,0.1553,4.9652c-1.4772,0.9668-2.6097,2.2349-3.1048,3.8189c-0.0028,0.0091-0.0235,0.0182-0.0263,0.0273
		c-0.0028,0.0103-0.0215,0.0162-0.0234,0.0265c-0.4231,1.6413-0.0607,3.3361,0.7187,4.9695
		c-1.4322,1.0427-2.7194,2.3697-2.7194,3.9846v0.0051l0,0c0,1.7343-0.2541,3.4065,0.5569,4.9225
		c-1.3744,1.1119-2.2521,2.5219-2.5708,4.1558c-0.0012,0.0028,0.014,0.0051,0.014,0.0051c0,0.0051,0,0.0063,0,0.0063l-0.1009,0.0166
		c-0.0019,0.0103-0.0462,0.0214-0.0479,0.0316c-0.3507,1.7366,0.3563,3.3732,1.2159,4.8307
		c-1.3349,1.2005-2.0672,2.6655-2.0672,4.3171v0.0055l-0.3328,0.0024c-0.2198,1.7643,0.0991,3.3835,1.0094,4.7928
		c-1.259,1.1941-2.1877,2.6651-2.3043,4.3871c-0.0012,0.017-0.0533,0.0304-0.0549,0.0486c-0.125,1.7801,0.4209,3.3638,1.4071,4.7168
		c-1.2325,1.2969-1.9676,2.8216-2.0851,4.4927c-0.0012,0.013,0.0004,0.0253,0,0.0384c0,0-0.0081,0.0154-0.0081,0.0245
		c-0.0198,1.6769,0.578,3.2566,1.7045,4.6496c-1.0842,1.2606-1.776,2.7801-1.8033,4.5508
		c-0.0004,0.0051,0.2308,0.0115,0.2308,0.0115l0.2368,0.0198v0.0028l-0.2343,0.0051c-0.0368,1.7449,0.6591,3.293,1.8287,4.597
		c-1.0209,1.3313-1.5944,2.9051-1.5944,4.6809v0.0012c0,0-0.083,0.004-0.083,0.0063c0.0838,1.6366,0.7506,3.1838,1.9768,4.4942
		c-0.9738,1.3812-1.5226,2.9767-1.3158,4.7339c0.0016,0.0134,0.2063,0.0257,0.2075,0.0391l0.2146,0.013v0.0079
		c0,0.004-0.2173,0.0055-0.2173,0.0055c0.1854,1.6493,1.0525,3.0917,2.3186,4.306c-0.951,1.4563-1.1013,3.1115-1.1013,4.8948v0.0107
		c0,1.7604,1.0866,3.1538,2.3653,4.236c-0.8936,1.5555-1.3129,3.2147-1.0255,4.873c0.0012,0.0079-0.0302,0.0111-0.0286,0.0194
		c0.0024,0.0107-0.0214,0.0218-0.0186,0.034c0.3665,1.6192,1.3367,2.9707,2.7305,4.0537c-0.7604,1.4994-1.0681,3.1712-0.6545,4.9438
		l0,0l0,0c0.002,0.0067-0.0012,0.0142,0.0008,0.021c0,0,0.0059,0.0087,0.0074,0.0138c0.3756,1.7026,1.5026,3.0308,2.9435,4.0162
		c-0.6758,1.5405-0.3202,3.2175-0.3202,4.9232v0.0067v0.0016l-0.0523,0.0063c0,0-0.0244,0.0032-0.0232,0.0055
		c0.5058,1.705,1.6011,2.9735,3.0214,3.8742c-0.6204,1.5931-0.7548,3.2855-0.1012,4.9521c0.0024,0.0055-0.0029,0.0107-0.0006,0.0158
		l0.0015,0.0055c0.0008,0.0055,0.0004,0.0095,0.0004,0.0095c0.0032,0.0079,0.0075,0.0099,0.0075,0.0099
		c0.6398,1.6801,1.806,2.8778,3.2489,3.69c-0.5421,1.6236-0.6027,3.327,0.0968,4.9703l0.0047,0.0043
		c0.0036,0.0067,0.0023,0.0107,0.0023,0.0107c0.7327,1.6255,2.0028,2.7525,3.5247,3.4935c-0.45,1.6366-0.4334,3.34,0.3033,4.962
		c0.1669,0.3654,0.5081,0.5915,0.8794,0.6244c0.1791,0.0158,0.3621-0.0126,0.5341-0.0917c0.537-0.2459,0.7758-0.8766,0.5322-1.4136
		c-0.4765-1.0506-0.4895-2.1993-0.2076-3.3472c0.6311,0.155,1.2776,0.272,1.9359,0.3298c1.4697,0.1293,2.9731,0.0261,4.3543-0.2661
		c3.3052-0.6857,5.8662-2.2507,6.8528-4.1866C87.8067,195.1691,87.8376,193.9927,87.3674,192.8508z M80.8795,184.6761
		c0.5789,0.1866,0.9529,0.552,1.1862,1.1392c0.7588,2.1562-2.1937,3.4618-3.1233,3.8118c-2.1597,0.811-5.1186,1.0613-7.582,0.4092
		c0.8826-1.393,2.1546-2.6813,3.5769-3.6425C77.1433,184.905,79.4659,184.2324,80.8795,184.6761z M78.0314,176.6481
		c0.5618,0.2171,0.909,0.6058,1.0996,1.2127c0.2021,0.6133,0.1451,1.1657-0.187,1.6809c-0.7794,1.2163-2.9921,2.1839-5.6385,2.4614
		c-1.7014,0.1843-3.5002,0.0142-5.0628-0.4958c0.951-1.3349,2.2926-2.5532,3.7762-3.4432
		C74.3149,176.6825,76.664,176.1277,78.0314,176.6481z M75.5177,168.4742c0.5781,0.2408,0.9514,0.6698,1.1495,1.2969
		c0.1755,0.6046,0.1047,1.1202-0.2405,1.6121c-0.8379,1.1953-3.1044,2.0589-5.7754,2.1985
		c-1.7038,0.091-3.5112-0.1767-5.0652-0.7596c1.0213-1.3088,2.4314-2.4424,3.9078-3.2234
		C71.8523,168.3433,74.1488,167.9119,75.5177,168.4742z M74.6265,161.5331c0.1609,0.743-0.034,1.3511-0.6208,1.9043
		c-1.7121,1.6133-6.0687,2.0834-9.5116,1.0296c-0.3179-0.0973-0.69-0.2345-1.0763-0.3994c1.6734-1.928,4.2526-3.4195,6.5472-3.9636
		C70.9231,159.8783,74.0745,159.3165,74.6265,161.5331z M71.6068,151.636c0.779,0.2859,1.2005,0.7833,1.3448,1.5524
		c0.3116,2.1431-2.4484,2.8624-3.6643,3.0719c-2.3574,0.4041-5.3499,0.0352-7.6642-1.104c0.2946-0.3037,0.5868-0.5765,0.8434-0.7908
		C65.262,152.0362,69.3664,150.8061,71.6068,151.636z M70.7902,143.3601c0.5208,0.3246,0.7956,0.7794,0.8711,1.4179
		c0.0842,0.7805-0.1875,1.3847-0.8664,1.8905c-1.9383,1.4496-6.3641,1.4583-9.6583,0.0202
		c-0.2697-0.1182-0.5797-0.2748-0.9003-0.4535c1.1981-1.1313,2.7524-2.0688,4.3744-2.6564
		C67.1216,142.6689,69.542,142.5859,70.7902,143.3601z M70.7483,136.3313c0.0542,0.6422-0.1174,1.1427-0.5587,1.5619
		c-1.0459,1.002-3.4191,1.3875-6.0727,1.0285c-1.777-0.2582-3.4512-0.8671-4.8161-1.6975c1.2455-1.0735,2.8441-1.9339,4.4993-2.4389
		c2.563-0.7849,4.9806-0.7505,6.1692,0.0763C70.4696,135.2142,70.7159,135.6808,70.7483,136.3313z M70.3225,127.8584
		c0.019,0.6271-0.1752,1.1099-0.6287,1.5045c-1.1024,0.9601-3.4998,1.2625-6.1316,0.7485c-1.6686-0.3246-3.357-1.0186-4.7263-1.9557
		c1.3013-1.0277,2.9316-1.7884,4.5385-2.1906c2.5852-0.652,4.924-0.5275,6.1071,0.3353
		C69.9967,126.6758,70.2683,127.189,70.3225,127.8584z M70.2968,119.3184c-0.0202,0.7782-0.3554,1.3333-1.0688,1.7366
		c-2.0782,1.1676-6.3127,0.6046-9.4467-1.2542c-0.2934-0.1736-0.6315-0.3998-0.9778-0.6591
		c2.0984-1.4812,4.9818-2.3163,7.3582-2.2918C67.1315,116.8589,70.2643,117.074,70.2968,119.3184z M64.6262,96.8626
		c0.5061,0.2029,0.9996,0.3432,1.4927,0.486c-0.5128,0.0059-1.0154-0.0071-1.5559,0.053c-2.1127,0.2357-4.2408,0.9486-6.0003,2.0304
		c-0.5935-0.981-0.9197-2.0644-0.7758-3.2305c0.1665-1.2534,0.8323-2.1854,1.5706-2.8861
		C60.7848,94.8516,62.6816,96.0924,64.6262,96.8626z M63.5886,105.6613c0.4788,0.1637,0.9435,0.2815,1.4057,0.3954
		c-1.9071,0.136-3.9177,0.6295-5.7319,1.514c-0.5702,0.2772-1.0818,0.5907-1.5658,0.9185
		c-0.6505-0.9521-0.7404-2.0134-0.6581-3.1787c0.0004-0.0051,0.2948-0.0091,0.2948-0.0091v-0.0067
		c0-1.1158,0.3302-2.0961,1.1727-2.93C59.996,103.8527,61.6404,105.0033,63.5886,105.6613z M64.4162,114.8238
		c-2.4421,0.3025-5.1249,1.2479-7.1779,2.7948c-0.656-0.8454-1.1423-1.8825-1.1396-3.1214c0.0917-1.244,0.6635-2.242,1.3883-3.0368
		C59.408,113.1705,62.0066,114.3255,64.4162,114.8238z M70.638,110.8171c-0.2048,2.2432-3.3511,2.2009-4.3195,2.1317
		c-0.0573-0.0028-0.1143-0.0075-0.174-0.013c-2.3341-0.2048-5.0522-1.259-6.975-2.8659c0.3661-0.2321,0.7216-0.4298,1.0285-0.5797
		c3.2811-1.601,7.55-1.8145,9.5187-0.4848C70.3961,109.4628,70.6811,110.0436,70.638,110.8171z M71.3588,102.3114
		c-0.1079,0.6643-0.4195,1.155-0.9648,1.4879c-1.2448,0.7619-3.5891,0.6975-6.1174-0.1609
		c-1.5694-0.5291-3.1332-1.4199-4.3471-2.5488c1.4404-0.8232,3.1791-1.3768,4.8682-1.5635c2.6556-0.2926,5.0336,0.191,6.0541,1.2361
		C71.2726,101.1916,71.4268,101.6878,71.3588,102.3114z M72.4668,93.9105c-0.087,0.641-0.3677,1.0862-0.8916,1.3934
		c-1.2558,0.7374-3.6722,0.5698-6.1597-0.4263c-1.6058-0.6342-3.1281-1.62-4.2819-2.7892c1.4306-0.7192,3.1431-1.1878,4.9347-1.3037
		c2.6682-0.1661,5.0079,0.4294,5.9699,1.5136C72.4454,92.7555,72.5767,93.2696,72.4668,93.9105z M74.0611,85.5678
		c-0.1297,0.6244-0.4405,1.051-0.9834,1.3317c-1.3045,0.6706-3.7161,0.3879-6.1364-0.7173
		c-1.5714-0.7177-3.0447-1.779-4.1475-3.0023c0.3333-0.1526,0.6548-0.2839,0.9328-0.3784c3.3997-1.1641,7.8109-0.7975,9.6227,0.8011
		C73.9879,84.1664,74.2105,84.792,74.0611,85.5678z M76.0298,77.2816c-0.2044,0.754-0.6655,1.2147-1.4638,1.4373
		c-2.2938,0.6413-6.2893-0.911-8.8911-3.4638c-0.2448-0.2384-0.52-0.5401-0.7944-0.877c0.38-0.151,0.7457-0.276,1.0577-0.3638
		c3.5006-0.9743,7.7571-0.3938,9.4847,1.2969C76.0179,75.8949,76.2062,76.5263,76.0298,77.2816z M78.3718,69.1013
		c-0.737,2.157-3.8299,1.3476-4.7607,1.0419c-2.2428-0.7283-4.6927-2.4223-6.2036-4.4784c0.399-0.1337,0.7805-0.2404,1.1052-0.3112
		c3.5223-0.771,7.8204,0.0514,9.3969,1.794C78.4529,67.7478,78.5964,68.3702,78.3718,69.1013z M81.0733,61.0535
		c-0.2491,0.6062-0.6548,1.0051-1.2495,1.1989c-1.3875,0.4484-3.6571-0.1645-5.9169-1.6113
		c-1.4247-0.9079-2.7054-2.1534-3.5986-3.5235c1.5844-0.4429,3.3938-0.5599,5.083-0.3499c2.6461,0.3527,4.8335,1.3954,5.5733,2.6564
		C81.2678,59.9428,81.299,60.4636,81.0733,61.0535z M84.1887,53.1849c-0.2392,0.5927-0.6176,0.9518-1.1965,1.1234
		c-1.3938,0.4037-3.705-0.3333-5.8786-1.8956c-1.4065-1.0083-2.6449-2.3313-3.4847-3.7398
		c1.5991-0.3828,3.4057-0.4061,5.0901-0.0838c2.6105,0.4883,4.737,1.6307,5.4179,2.9075
		C84.424,52.0358,84.4371,52.5906,84.1887,53.1849z M87.7549,45.4969c-0.2792,0.5682-0.6817,0.9047-1.2744,1.0423
		c-1.4357,0.3159-3.7034-0.5322-5.7817-2.1961c-1.3412-1.072-2.5061-2.4579-3.2736-3.9189c2.5089-0.4508,5.4389,0.0384,7.527,1.0213
		C85.8498,41.8698,88.6805,43.4103,87.7549,45.4969z M86.6731,32.8225c2.5456,0.7497,4.5555,2.1194,5.1178,3.493
		c0.2341,0.569,0.1941,1.1135-0.102,1.6686c-0.3124,0.5405-0.7529,0.8616-1.3539,0.9644c-1.4682,0.24-3.6908-0.7351-5.6741-2.4954
		c-1.2602-1.1155-2.3329-2.5484-3.013-4.0474C83.2769,32.189,85.0574,32.3416,86.6731,32.8225z M76.9867,35.1154
		c0.5595-1.0107,1.4769-1.709,2.569-2.1665c0.8134,1.9415,2.1558,3.7449,3.6876,5.1016c0.3741,0.3325,0.7576,0.6133,1.1396,0.8956
		c-2.3713-0.8011-5.1925-1.0739-7.7192-0.5306C76.4078,37.2625,76.4608,36.1261,76.9867,35.1154z M72.9709,43.4206l0.002-0.0079
		l0.0075-0.0099c0.5101-1.0779,1.3602-1.8221,2.3816-2.3317c0.9229,1.8948,2.3752,3.6382,4.0023,4.9395
		c0.4057,0.3246,0.8177,0.6042,1.2289,0.8735c-0.4836-0.1396-0.9514-0.2946-1.4753-0.3926
		c-2.0632-0.3962-4.3309-0.3586-6.3578,0.191C72.4581,45.5554,72.4691,44.4337,72.9709,43.4206z M69.3333,51.8591v-0.004
		l0.0292-0.0063c0.4077-1.0609,1.2257-1.8446,2.2345-2.41c1.0169,1.8272,2.5616,3.4867,4.2638,4.7066
		c0.4235,0.3041,0.8522,0.5694,1.2773,0.8173c-0.4828-0.1119-0.9466-0.2416-1.4657-0.3108
		c-2.0965-0.2799-4.3611-0.0985-6.3326,0.5291C68.9878,54.0651,69.3333,52.9287,69.3333,51.8591z M66.1865,60.4675
		c0.002-0.0051,0.0004-0.0103,0.002-0.0154l0.0055-0.0075c0.3227-1.0735,1.0977-1.8897,2.1107-2.497
		c1.0933,1.7987,2.7078,3.3811,4.4523,4.4923c0.4282,0.2744,0.8537,0.5148,1.278,0.7363c-1.9149-0.3345-4.0158-0.3408-5.9797,0.0909
		c-0.6125,0.1344-1.1456,0.3468-1.6881,0.5488C65.9508,62.7261,65.8223,61.5909,66.1865,60.4675z M63.3858,69.2393
		c0.3733-1.1684,1.1431-1.9933,2.015-2.5903c1.4563,2.1182,3.7236,3.8485,5.9917,4.9019c-1.953-0.2436-4.0787-0.1384-6.03,0.4085
		c-0.5861,0.1629-1.0898,0.399-1.6054,0.6244C63.3118,71.5971,63.0785,70.4607,63.3858,69.2393z M64.1774,76.7802
		c1.4705,1.4444,3.2661,2.535,5.0735,3.2645c-2.0269-0.1676-4.2289,0.0546-6.2155,0.7359
		c-0.5291,0.1811-1.0142,0.3962-1.4796,0.6275c-0.5243-1.047-0.7445-2.151-0.4705-3.2431l0,0
		c0.3116-1.2143,1.0554-2.0925,1.9098-2.7394C63.3466,75.8854,63.729,76.3405,64.1774,76.7802z M60.9643,84.3222
		c1.3575,1.6006,3.1906,2.9343,5.0893,3.8023c0.5077,0.2317,1.0024,0.3839,1.5006,0.5532
		c-0.5318-0.0218-1.0554-0.0585-1.6204-0.0245c-2.2147,0.1431-4.2957,0.7564-6.0628,1.7145
		c-0.5595-1.0146-0.5377-2.1016-0.5377-3.2036v-0.0091c0,0-0.0475-0.0079-0.0463-0.0115
		C59.5203,85.9181,60.1561,85.0063,60.9643,84.3222z M56.3333,123.6892v-0.0012c0-1.17,0.3132-2.1981,1.0395-3.0933
		c0.4563,0.3673,0.8582,0.72,1.4051,1.0443c1.7671,1.0467,3.7237,1.7034,5.6426,1.985c-0.5034,0.0771-1.0199,0.1372-1.547,0.2701
		c-1.996,0.4986-3.8677,1.4871-5.4731,2.8497c-0.773-0.9004-1.0671-1.9237-1.0671-3.0415V123.6892z M56.3024,132.8517
		c-0.0474-1.1712,0.3658-2.2246,1.0364-3.1538c1.6659,1.2194,3.7287,2.102,5.8169,2.5081c0.5002,0.0977,0.9893,0.1613,1.4705,0.2092
		c-0.4804,0.1-0.9537,0.1763-1.45,0.329c-2.0028,0.6105-3.9964,1.6951-5.5452,3.1111
		C56.9509,135.0941,56.3657,134.1122,56.3024,132.8517z M57.1746,141.9975l0.1588-0.0123v-0.0091
		c0-1.1166,0.0436-2.1759,0.6814-3.1419c1.6793,1.0949,3.6806,1.8826,5.8802,2.2012c0.3025,0.0423,0.5623,0.0767,0.8558,0.1024
		c0.2415,0.0213,0.4387,0.0012,0.6739,0.0115c-0.503,0.1273-1.0121,0.2337-1.5301,0.4211c-1.9624,0.711-3.8211,1.8913-5.3039,3.3768
		C57.8415,144.2007,57.3078,143.2367,57.1746,141.9975z M58.3333,151.0979v-0.0016c0-1.1257,0.0262-2.2234,0.6502-3.236
		c0.4516,0.2736,0.8312,0.5603,1.3524,0.7869c1.4974,0.652,3.122,1.0459,4.7401,1.1882c0.4519,0.0395,0.8783,0.0285,1.3203,0.0293
		c-1.8481,0.5809-3.7201,1.5488-5.2915,2.8604c-0.48,0.4002-0.7974,0.8201-1.1836,1.2479
		C59.0599,153.1999,58.3333,152.2548,58.3333,151.0979z M59.6986,160.1804c-0.2072-1.2376,0.1143-2.3503,0.6343-3.295
		c1.6919,0.8996,3.6622,1.4377,5.5839,1.6069c0.6429,0.0562,1.2768,0.0716,1.8908,0.0522c-2.3265,0.8699-4.701,2.4013-6.3111,4.3796
		C60.6764,162.2579,59.9762,161.3746,59.6986,160.1804z M61.7828,169.1725l-0.0024-0.0067c-0.0016-0.0055,0-0.0095-0.0008-0.0146
		c-0.272-1.1507-0.0518-2.272,0.4524-3.3254c0.5243,0.2448,1.0376,0.4994,1.6378,0.6829c1.0039,0.308,2.0569,0.5053,3.1087,0.5979
		c0.9929,0.087,1.9802,0.0704,2.9304-0.0214c-0.4701,0.1957-0.9355,0.3717-1.416,0.6279c-1.8315,0.9684-3.5702,2.4171-4.8058,4.1217
		C62.7254,171.146,62.0177,170.2658,61.7828,169.1725z M64.3038,177.9984l0.0295-0.0028v-0.0055
		c0-1.1198-0.2308-2.238,0.1931-3.2997c1.2697,0.5223,2.6594,0.8592,4.0908,0.985c0.722,0.0637,1.4402,0.0775,2.1527,0.0407
		c0.5615-0.0293,1.0696-0.1254,1.5924-0.2064c-0.4792,0.2262-0.96,0.4353-1.4424,0.7252c-1.7956,1.0775-3.4498,2.6069-4.6108,4.3459
		C65.3491,179.9351,64.6249,179.0889,64.3038,177.9984z M67.1714,186.7085l-0.0044-0.0059c-0.0012-0.0051-0.0004-0.0091-0.002-0.013
		c-0.4191-1.0498-0.34-2.168,0.0502-3.2669c1.0577,0.3824,2.189,0.6346,3.3389,0.7359c1.0023,0.0882,2.0134,0.0747,2.9782-0.0316
		c0.5611-0.0589,1.0704-0.1791,1.5903-0.2879c-0.4602,0.2475-0.9205,0.4753-1.3804,0.7853
		c-1.7264,1.1661-3.3131,2.7876-4.3859,4.6014C68.379,188.6357,67.5914,187.8247,67.1714,186.7085z M70.4929,195.2972
		c-0.4377-1.038-0.4013-2.1629-0.0645-3.2795c0.8236,0.2479,1.6888,0.4089,2.569,0.4864c1.7635,0.155,3.5753-0.0119,5.1922-0.4152
		c-0.4097,0.2531-0.8209,0.48-1.2258,0.7845c-1.6363,1.2289-3.1186,2.9162-4.0854,4.7833
		C71.8278,197.1141,70.9713,196.3466,70.4929,195.2972z M85.3449,195.2952c-0.6738,1.3226-2.7865,2.5267-5.3855,3.0648
		c-1.6453,0.3488-3.4326,0.3551-5.0395,0.0071c0.7984-1.4385,1.9826-2.7774,3.3278-3.7872
		c2.1218-1.5982,4.4072-2.3839,5.8596-2.0261c0.5939,0.1518,1.0067,0.5085,1.2756,1.0751
		C85.6288,194.2027,85.6221,194.7491,85.3449,195.2952z"/>
	<path id="XMLID_15286_" fill="#FC3A5B" d="M78.7182,15.4303c-8.6812-9.5064-28.0263-13.2304-30.9234,5.051
		c-1.4828,9.3554,7.083,21.4051,15.5491,30.7364c8.1621,8.996,22.2663,9.0051,30.5119,0.0854
		c8.7729-9.4894,17.6977-21.7128,15.746-30.5905C105.6369,2.674,86.7344,6.7823,78.7182,15.4303z"/>
	<path id="XMLID_15285_" fill="#ED0033" d="M98.7319,39.6599c-9.5815,8.9193-25.9713,8.9102-35.4552-0.0862
		c-6.03-5.7196-12.0912-12.4594-15.4926-18.9753c-1.3954,9.3392,7.1281,21.3256,15.5598,30.619
		c8.1621,8.9964,22.2659,9.0055,30.5119,0.0862c6.2396-6.7493,12.5345-14.8777,14.9599-22.2054
		C105.7808,32.7778,102.2518,36.3831,98.7319,39.6599z"/>
	<path id="XMLID_15244_" fill="#79CED6" d="M179.7759,199.1188c1.2625,1.7687,4.0273,2.9367,7.3977,3.1249
		c1.4092,0.0838,2.911-0.0368,4.3456-0.3824c0.6425-0.1546,1.2645-0.3661,1.8655-0.6129c0.4492,1.0929,0.6066,2.2309,0.2906,3.3408
		c-0.1609,0.567,0.1684,1.1554,0.7363,1.3187c0.1815,0.053,0.3669,0.0538,0.5417,0.0119c0.3622-0.0874,0.6663-0.3618,0.777-0.7477
		c0.4883-1.7133,0.2519-3.4005-0.4357-4.9525c1.3954-0.9581,2.4848-2.261,2.9671-3.9727c0,0-0.0004-0.0079,0.0016-0.0111
		l0.0044-0.0091c0.4483-1.7291,0.1356-3.4049-0.6406-4.93c1.306-1.017,2.2999-2.3744,2.6827-4.1265l0.0235-0.0111
		c0,0,0-0.0079,0-0.0134l-0.0153-0.0032c0.002-0.0087-0.009-0.0134-0.009-0.0134c0.4005-1.7509,0.0191-3.4057-0.8303-4.8889
		c1.2712-1.1012,2.3921-2.5203,2.6397-4.2811l0.2149-0.0036v-0.0079v-0.0016v-0.0079c0-1.7635-0.4174-3.3902-1.3142-4.8137
		c1.2792-1.1878,2.1666-2.6603,2.2856-4.4001c0.0008-0.0055,0.0286-0.0091,0.0286-0.0091v-0.0273l0,0l0,0
		c0-1.8141-0.5305-3.4227-1.5048-4.7928c1.2178-1.2776,1.9218-2.7592,2.0443-4.4151l-0.0367-0.034l-0.0091-0.0206
		c0.0384-1.6825-0.5533-3.2724-1.6676-4.6785c1.1044-1.2598,1.8216-2.777,1.8611-4.563c0,0-0.0036-0.0063-0.004-0.0103
		c0.0308-1.8078-0.7033-3.3717-1.8598-4.671c1.0719-1.3887,1.6709-2.9367,1.6104-4.5915l0.0025-0.0099l-0.0013-0.0079l0.0015-0.0134
		l-0.0095-0.0384c-0.0557-1.7683-0.8149-3.2681-1.9826-4.4895c1.0182-1.4776,1.6032-3.1127,1.4435-4.7433l0.1121-0.0051v-0.0028
		c0-1.7671-0.9919-3.2325-2.1991-4.3978c0.9636-1.463,1.1991-3.1024,1.1991-4.8212v-0.0067v-0.0028c0,0-0.1499-0.0079-0.1511-0.013
		c-0.0008-0.0067-0.0809-0.0123-0.0809-0.0123c-0.2906-1.7521-1.237-3.1526-2.4963-4.2384
		c0.9079-1.5445,1.2473-3.1953,0.9792-4.8509c-0.0016-0.0091-0.0169-0.0146-0.0169-0.0146
		c-0.004-0.0218-0.0039-0.0348-0.0067-0.0475c-0.3642-1.6354-1.3092-3.036-2.7204-4.1356c0.7746-1.4848,1.0993-3.1344,0.7117-4.8766
		c-0.0043-0.0178-0.0172-0.0297-0.0211-0.0459c-0.3709-1.686-1.4253-3.0154-2.8476-4.0095c0.6916-1.5287,1.0305-3.202,0.5517-4.9142
		l0.0985-0.0024v-0.0051c0-1.601-1.591-2.9284-3.0888-3.9173c0.6342-1.569,0.7363-3.2467,0.1317-4.9122
		c-0.0028-0.0099-0.0255-0.0213-0.029-0.0312c-0.002-0.0047-0.0169-0.0095-0.0189-0.0146l-0.0075-0.0051
		c0,0-0.0063-0.0043-0.0075-0.0067c-0.5575-1.5686-1.5429-2.8307-3.0668-3.7263c0.5773-1.6192,1.0866-3.3238,0.0866-4.9743l0,0
		v-0.0036c-1-1.537-1.9711-2.6975-3.5421-3.5164c0.5291-1.7307,0.43-3.4377-0.2315-4.9984
		c-0.0036-0.0099-0.0393-0.015-0.0436-0.0245c-0.004-0.0083-0.0171-0.0182-0.0211-0.0265
		c-0.7243-1.4935-1.9935-2.5864-3.5977-3.3234c0.3978-1.6283,0.3073-3.3195-0.4941-4.947c-0.0012-0.0024-0.003-0.0063-0.0046-0.0099
		c0,0-0.0044-0.0047-0.0052-0.0071c-0.0024-0.0047-0.004-0.0099-0.0064-0.0146c-0.0055-0.0107-0.0156-0.0166-0.0216-0.0269
		c-0.7541-1.5603-2.0958-2.6046-3.717-3.2313c0.308-1.6552,0.1352-3.3365-0.7537-4.8813c-0.0016-0.0036-0.0008-0.0063-0.0008-0.0063
		l-0.0044-0.0071c0,0-0.0015-0.0036-0.0028-0.0059c-0.0036-0.0059-0.0103-0.0083-0.0139-0.0154
		c-0.8841-1.5405-2.2447-2.5267-3.8283-3.0783c0.2384-1.6825-0.0242-3.3503-1.0289-4.8161
		c-0.0067-0.0119-0.0071-0.0237-0.0146-0.0356c-0.002-0.0036-0.0059-0.0051-0.0079-0.0087c-0.002-0.0024-0.002-0.0047-0.002-0.0047
		c-0.0083-0.0115-0.0178-0.0146-0.0245-0.0237c-1.0008-1.4725-2.416-2.3258-3.9936-2.7892
		c0.1685-1.7192-0.1542-3.4084-1.2194-4.8628c-0.0028-0.0043-0.0079-0.0059-0.0111-0.0107c0,0-0.002-0.0047-0.004-0.0071
		c-1.0802-1.4128-2.5714-2.2309-4.2242-2.6061c0.0629-1.6939-0.3424-3.346-1.4266-4.7552c-0.3614-0.465-1.0336-0.55-1.4974-0.1941
		c-0.4662,0.359-0.554,1.0293-0.1945,1.4974c0.7066,0.9185,0.9806,2.0403,0.9641,3.2269c-2.104-0.0265-4.2922,0.4871-6.1423,1.3567
		c-3.0628,1.4219-5.2008,3.5322-5.7172,5.6409c-0.2926,1.1902-0.0526,2.3365,0.6591,3.3365
		c0.0154,0.0245,0.019,0.0518,0.0368,0.0759c0.0079,0.0099,0.0182,0.017,0.0273,0.0281c0.0095,0.0127,0.0146,0.0273,0.0241,0.0399
		c0.0111,0.0146,0.0305,0.0166,0.0415,0.0301c0.7833,0.9616,1.8406,1.4939,3.0751,1.5196c0.4263,0.0099,0.8715-0.0439,1.3254-0.153
		c0.4386-0.1056,0.8861-0.2724,1.3361-0.48c-1.6718,1.8185-2.0412,3.8541-0.9427,5.6504c0.0186,0.0344,0.0214,0.0712,0.0431,0.1036
		c0.0087,0.0127,0.0202,0.0217,0.0293,0.0344c0.0063,0.0107,0.0099,0.0217,0.0166,0.0324c0.0076,0.0115,0.0217,0.0134,0.0297,0.0233
		c0.7196,1.0225,1.7438,1.622,2.9751,1.7192c0.5302,0.0415,1.0889-0.0103,1.6694-0.1499c0.38-0.0917,0.7695-0.2392,1.1613-0.4045
		c-0.7446,0.7129-1.342,1.4697-1.6243,2.2669c-0.4049,1.1463-0.2819,2.3084,0.3246,3.3784
		c0.0103,0.0214,0.0103,0.0459,0.0225,0.0668c0.0091,0.0154,0.0213,0.0269,0.0304,0.0423c0.0119,0.0186,0.017,0.0403,0.0289,0.0589
		c0.0091,0.015,0.0277,0.0174,0.0372,0.0312c0.6568,1.0455,1.622,1.6967,2.8244,1.8616c0.6319,0.0862,1.3151,0.0395,2.0301-0.1329
		c0.2728-0.0656,0.5555-0.1791,0.8358-0.2803c-0.8118,0.6955-1.4662,1.4488-1.7932,2.2621
		c-0.4516,1.1277-0.3689,2.2918,0.2123,3.3784c0.0111,0.0241,0.0107,0.051,0.0245,0.0747c0.0067,0.0119,0.0154,0.0202,0.0225,0.032
		c0.0079,0.0142,0.0119,0.0293,0.0198,0.0435c0.0158,0.0269,0.0427,0.0435,0.0609,0.0684c0.6572,1.0538,1.6279,1.7315,2.8375,1.9336
		c0.7153,0.1198,1.4986,0.0759,2.3171-0.1214c0.1186-0.0285,0.2424-0.0822,0.3619-0.1178
		c-0.6003,0.4638-1.1226,0.9636-1.4852,1.5097c-0.8351,1.2534-0.9426,2.6631-0.3511,3.9885
		c0.0146,0.0407,0.0135,0.0826,0.0328,0.121c0.0051,0.0107,0.0142,0.0154,0.0194,0.0261c0.0083,0.017,0.0095,0.034,0.0178,0.0506
		c0.0684,0.1364,0.1629,0.1969,0.2728,0.2886C169.1544,74.9783,171.0136,75,173.3161,75h0.0024
		c-0.5828,0-1.1036,0.9116-1.4804,1.4099c-0.9114,1.2092-1.1123,2.6331-0.6228,3.9938c0.013,0.0546,0.0107,0.1248,0.0336,0.1782
		c0.0067,0.0158,0.019,0.0343,0.0253,0.0501c0.0047,0.0111,0.0047,0.0263,0.0095,0.0373c0.0174,0.0415,0.0498,0.0701,0.0708,0.1068
		c0.6295,1.3124,1.7754,2.1483,3.2791,2.3357c0.6524,0.0787,1.3638,0.019,2.0965-0.1237c-0.5994,0.3832-1.1404,0.8017-1.5417,1.2805
		c-0.9862,1.1708-1.261,2.5711-0.8276,3.9669c0.0095,0.0447,0.0032,0.0906,0.0194,0.1349c0.0059,0.0174,0.0167,0.0309,0.0229,0.0483
		c0.0056,0.0146,0.0047,0.0309,0.0103,0.0459c0.0119,0.032,0.0364,0.053,0.0498,0.0819c0.4543,1.1372,1.2823,1.9502,2.4294,2.34
		c0.8549,0.2887,1.8818,0.2811,2.9711,0.1048c-0.9553,0.5263-1.7579,1.1463-2.2432,1.892c-0.6619,1.0146-0.8078,2.172-0.4583,3.3507
		c0.004,0.0166-0.0008,0.0324,0.0036,0.0486c0.0043,0.0154,0.0119,0.0269,0.017,0.0419c0.0091,0.0297,0.0099,0.0589,0.0198,0.089
		c0.0115,0.0332,0.0368,0.0569,0.051,0.0882c0.3875,1.1415,1.1566,1.9873,2.2613,2.4302c0.8426,0.3389,1.8849,0.361,2.9921,0.2337
		c-1.0122,0.4879-1.8671,1.0854-2.4021,1.8256c-0.7161,0.9917-0.9189,2.151-0.6137,3.3562c0.0059,0.0281,0,0.055,0.0079,0.0826
		c0.0028,0.0099,0.0083,0.0182,0.0119,0.0281c0.0032,0.0126,0.0028,0.0249,0.0064,0.0372c0.0102,0.0364,0.0359,0.0625,0.0494,0.0969
		c0.4057,1.1854,1.206,2.0743,2.34,2.5532c0.7541,0.3187,1.6481,0.4346,2.6168,0.3938c-0.6833,0.3084-1.3025,0.6694-1.7869,1.1143
		c-1.0925,1.0024-1.5338,2.3191-1.3135,3.7236c0.0035,0.0676-0.006,0.1313,0.0094,0.2001c0.0032,0.0138,0.0099,0.0245,0.0126,0.0372
		c0.0032,0.0154,0.0004,0.0293,0.0043,0.0447c0.0083,0.038,0.0332,0.0668,0.0459,0.1028c0.5488,2.0546,2.3076,3.1834,4.8125,3.1937
		c-2.3392,0.9379-3.55,2.6469-3.289,4.7706c0.002,0.0304-0.0083,0.0597-0.0036,0.0906l0.0092,0.0328
		c0.0027,0.0166,0,0.032,0.0027,0.0502c0.0087,0.0554,0.0403,0.1,0.0566,0.1514c0.3045,1.4081,1.2063,2.4804,2.6049,3.015
		c0.6358,0.2408,1.369,0.3578,2.1479,0.3863c-0.9368,0.3219-1.7691,0.7382-2.361,1.3223c-0.8778,0.8671-1.2942,1.9877-1.2317,3.2435
		c0,0.0352-0.0138,0.0664-0.0107,0.102l0.0087,0.0419c0.0008,0.0095-0.0016,0.0166-0.0016,0.0166
		c0.0028,0.0328,0.0166,0.051,0.0202,0.0743c0.1593,1.238,0.7766,2.2436,1.8145,2.9039c0.7394,0.4706,1.6797,0.7454,2.7441,0.8391
		c-1.0083,0.2926-1.9019,0.6983-2.5286,1.2918c-0.866,0.824-1.267,1.8992-1.2045,3.1083c-0.0008,0.0297-0.0142,0.0558-0.0126,0.0862
		c0.0012,0.0277,0.0107,0.0522,0.0126,0.0799c0.0012,0.0198-0.0032,0.0384-0.0008,0.0593c0.0024,0.021,0.0154,0.038,0.0186,0.0597
		c0.1127,1.2187,0.673,2.2313,1.6564,2.9288c0.7157,0.5061,1.6627,0.8035,2.7283,0.9435c-1.053,0.2404-1.9901,0.6081-2.6611,1.1831
		c-0.9237,0.7853-1.391,1.8474-1.3946,3.0735c-0.0024,0.0328-0.0174,0.0621-0.0166,0.0953c0,0,0.0067,0.0304,0.0075,0.0478
		c-0.0004,0.0162-0.004,0.0316-0.0031,0.0479c0.0015,0.0411,0.0221,0.0763,0.028,0.1163c0.1084,1.4634,0.8814,2.669,2.2368,3.3974
		c0.5591,0.3001,1.2297,0.4856,1.9415,0.6184c-0.7446,0.1364-1.4405,0.3416-2.0249,0.6595
		c-1.3207,0.7244-2.0727,1.9154-2.1807,3.3531c-0.0086,0.053-0.0332,0.0992-0.034,0.1542c0,0.0162,0.004,0.0301,0.004,0.0475
		l-0.0051,0.036c-0.0008,0.0336,0.015,0.0633,0.017,0.0965c0.0352,2.1352,1.4848,3.6552,3.9324,4.2558
		c-2.4863,0.3594-4.0715,1.7268-4.3278,3.8438c-0.0051,0.0281-0.0221,0.0522-0.0241,0.0822
		c-0.0016,0.0111,0.0024,0.0221,0.0012,0.0332l-0.0103,0.0522c-0.0043,0.0546,0.0142,0.1036,0.0182,0.1562
		c-0.0482,1.4385,0.569,2.6931,1.7991,3.546c0.5548,0.3839,1.238,0.671,1.9937,0.8806c-0.9953,0.0921-1.9111,0.3033-2.6331,0.7402
		c-1.0467,0.6331-1.6983,1.6156-1.9225,2.839c-0.0075,0.0313-0.0272,0.0562-0.032,0.0882c-0.0028,0.0166,0,0.032-0.0024,0.0486
		c-0.0024,0.0154-0.0083,0.0277-0.0107,0.0431c-0.0043,0.0289,0.0067,0.0558,0.0055,0.0858
		c-0.134,1.2214,0.2179,2.327,1.0534,3.2064c0.6161,0.6493,1.5251,1.1182,2.567,1.465c-1.0961,0.0269-2.0992,0.2096-2.8778,0.6504
		c-1.0451,0.5927-1.6987,1.5425-1.9284,2.7362c-0.0072,0.0285-0.0269,0.0506-0.0316,0.0799
		c-0.004,0.021-0.0012,0.0403-0.0044,0.0629c-0.0032,0.0178-0.0107,0.0332-0.0138,0.0514c-0.0036,0.0249,0.0064,0.0482,0.004,0.0728
		c-0.1692,1.2195,0.1448,2.3436,0.9431,3.2574c0.5741,0.6568,1.4385,1.1538,2.4353,1.5449
		c-1.0981-0.0301-2.1135,0.0992-2.9245,0.4982c-1.0905,0.5362-1.8082,1.4535-2.1091,2.6425
		c-0.0087,0.0305-0.0293,0.053-0.036,0.0838c-0.0027,0.0142-0.0012,0.0257-0.004,0.0399c-0.0036,0.0154-0.0106,0.0269-0.0138,0.0423
		c-0.0079,0.0368,0.0028,0.0716-0.0012,0.1087c-0.3626,2.1147,0.7865,3.8904,3.0965,4.9577
		c-1.0526-0.0724-2.0384,0.0016-2.8411,0.3396c-1.1174,0.4733-1.8924,1.3385-2.274,2.4935
		c-0.0142,0.0356-0.0407,0.0621-0.051,0.0992c-0.0043,0.0174-0.004,0.0332-0.0083,0.049c-0.0032,0.0115-0.0094,0.0198-0.0126,0.0312
		c-0.0067,0.0245-0.0004,0.0482-0.0055,0.0739C178.857,196.9607,179.0618,198.1192,179.7759,199.1188z M190.4883,187.5333
		c1.5492,0.7398,2.998,1.8252,4.0775,3.0719c-2.3396,1.0103-5.3028,1.2013-7.5591,0.7193
		c-0.9711-0.2084-4.0849-1.0617-3.6536-3.3068c0.1431-0.6149,0.4591-1.0316,1.004-1.3025
		C185.6892,186.0671,188.0859,186.3878,190.4883,187.5333z M192.14,178.8632c1.599,0.6603,3.1063,1.6663,4.2447,2.8454
		c-1.4697,0.7363-3.2234,1.1708-4.9335,1.2408c-2.6583,0.1178-4.9901-0.5113-5.941-1.5986
		c-0.4045-0.4603-0.5429-0.998-0.4342-1.6342c0.0988-0.6287,0.3844-1.0648,0.9079-1.3626
		C187.259,177.6366,189.6643,177.8371,192.14,178.8632z M193.3819,170.1171c1.5757,0.5536,3.1384,1.4654,4.3424,2.6085
		c-1.4504,0.8066-3.1985,1.3393-4.8968,1.5018c-2.6623,0.2578-5.0312-0.2598-6.0371-1.3179
		c-0.4144-0.4353-0.5611-0.9347-0.4769-1.5587c0.1032-0.6493,0.4084-1.1293,0.9446-1.4527
		C188.5287,169.1388,190.8636,169.2251,193.3819,170.1171z M191.5089,160.7973c2.35,0.1977,5.1218,1.2906,7.0624,2.9494
		c-0.3578,0.2202-0.7054,0.4112-1.0051,0.5544c-3.2486,1.5524-7.6271,1.7331-9.559,0.3914
		c-0.6627-0.4599-0.9454-1.0324-0.8964-1.7912C187.3278,160.6272,190.5279,160.7158,191.5089,160.7973z M198.0739,154.0105
		c0.2858,0.174,0.6152,0.4001,0.9513,0.6572c-2.1198,1.4693-5.0249,2.278-7.4159,2.2277c-1.2333-0.0273-4.0695-0.3294-4.079-2.495
		c0.0289-0.7817,0.3717-1.3365,1.0996-1.7343C190.7228,151.513,194.964,152.1212,198.0739,154.0105z M194.3546,143.6606
		c1.6908,0.3409,3.3669,1.0376,4.7197,1.9786c-0.2907,0.2242-0.5742,0.4255-0.8233,0.582
		c-3.0443,1.9106-7.4226,2.5579-9.5547,1.4116c-0.7465-0.3994-1.1044-0.9565-1.1368-1.741
		c-0.0202-0.6429,0.1843-1.1333,0.6516-1.5314C189.3306,143.4095,191.7362,143.1331,194.3546,143.6606z M187.7628,135.8343
		c1.053-0.9941,3.4389-1.3863,6.0897-0.9901c1.7117,0.2539,3.4203,0.8679,4.8113,1.7449c-1.2269,1.0233-2.7923,1.8738-4.5116,2.3926
		c-2.5709,0.7481-4.975,0.7189-6.1581-0.117c-0.4982-0.3492-0.7422-0.8185-0.7837-1.4614
		C187.1459,136.7552,187.3203,136.2569,187.7628,135.8343z M186.9763,127.2954c1.0419-1.0289,3.3369-1.4986,5.9901-1.2368
		c1.6488,0.1594,3.374,0.6698,4.8133,1.4939c-1.2155,1.1293-2.7825,2.066-4.3843,2.6342c-2.5267,0.8984-4.9426,0.9549-6.1751,0.1684
		c-0.5069-0.323-0.7702-0.7714-0.845-1.3946C186.3298,128.2906,186.5224,127.7426,186.9763,127.2954z M188.8588,117.4568
		c2.3468-0.3764,5.3218,0.0221,7.6164,1.1759c-0.3041,0.308-0.6046,0.5816-0.8691,0.7968c-2.824,2.3029-6.928,3.4871-9.1565,2.6405
		c-0.7651-0.293-1.1791-0.7924-1.3143-1.5591C184.8348,118.2868,187.9008,117.6098,188.8588,117.4568z M192.0996,93.1739
		c0.8335,0.5836,1.6307,1.4065,1.981,2.6212c0.3147,1.1321,0.153,2.2519-0.2887,3.31c-1.9003-0.809-4.1107-1.1989-6.2352-1.1186
		c-0.5433,0.021-1.0383,0.1079-1.5464,0.1783c0.4666-0.2143,0.9336-0.4262,1.4045-0.7019
		C189.2238,96.4131,190.9158,94.9046,192.0996,93.1739z M194.5107,101.9532c0.9573,0.6999,1.8227,1.586,1.8227,2.6801v0.0024
		c0,0.004,0,0.0083,0,0.0083c1,1.1451,0.0951,2.2519-0.4071,3.2898c-0.5271-0.2523-1.0476-0.4867-1.6521-0.6761
		c-1.9252-0.6058-3.9708-0.7956-5.877-0.6473c0.4405-0.1815,0.8584-0.3669,1.3075-0.5998
		C191.5337,105.071,193.258,103.6455,194.5107,101.9532z M196.6386,110.8412c0.8347,0.6785,1.548,1.5805,1.8228,2.7975
		c0.1866,1.2246-0.1408,2.3226-0.6639,3.2558c-2.2594-1.2254-5.0529-1.7631-7.5128-1.6999
		C192.5936,114.3445,194.9924,112.8174,196.6386,110.8412z M184.1804,110.2259c1.7497-1.6069,6.0031-2.0285,9.4851-0.9316
		c0.3258,0.1028,0.7066,0.2455,1.1028,0.4207c-1.6631,1.8742-4.1949,3.3199-6.4729,3.8683
		c-0.0582,0.0142-0.1139,0.0277-0.1705,0.0387c-0.947,0.2119-4.0522,0.72-4.5876-1.4678
		C183.3801,111.3959,183.5762,110.7787,184.1804,110.2259z M181.8356,102.2422c0.8541-1.1846,3.1345-2.0158,5.8042-2.1198
		c1.6983-0.066,3.4998,0.2238,5.0462,0.8248c-1.0332,1.2958-2.4476,2.4088-3.9213,3.1649c-2.3733,1.2234-4.6821,1.635-6.026,1.0656
		c-0.5888-0.2479-0.9695-0.6872-1.1748-1.3282C181.4046,103.243,181.4833,102.7293,181.8356,102.2422z M179.4082,94.0477
		c0.7904-1.2147,3.0158-2.1506,5.6793-2.382c1.7888-0.1507,3.5524,0.0585,5.0735,0.5579c-0.9679,1.3274-2.327,2.5279-3.8212,3.3934
		c-2.3124,1.3535-4.6773,1.8774-6.028,1.3341c-0.5642-0.2258-0.9075-0.6244-1.089-1.2459
		C179.0191,95.0881,179.0728,94.5602,179.4082,94.0477z M176.8226,85.6421c1.5547-1.8493,5.8627-2.8659,9.3973-2.2187
		c0.289,0.0526,0.6267,0.1348,0.9786,0.2361c-0.909,1.3737-2.2092,2.6413-3.6568,3.5844c-2.2297,1.4515-4.5725,2.0886-5.9624,1.6188
		c-0.5781-0.1973-0.949-0.5729-1.1696-1.1716C176.1472,86.9462,176.2741,86.2945,176.8226,85.6421z M173.5427,77.7497
		c1.4578-1.928,5.5812-3.1332,9.1877-2.6884c0.3215,0.0407,0.7015,0.1099,1.1,0.2032c-0.2214,0.3737-0.4488,0.7125-0.6555,0.985
		c-2.195,2.9102-5.9162,5.0375-8.2799,4.7437c-0.8221-0.1024-1.3464-0.4895-1.6604-1.2048
		C172.9483,79.0676,173.0405,78.4152,173.5427,77.7497z M169.8733,70.0452c1.3009-1.9573,5.4297-3.4076,9.0272-3.1672
		c0.3317,0.0221,0.7247,0.0708,1.1391,0.1439c-1.1894,2.2574-3.361,4.2957-5.4713,5.3483c-0.875,0.4405-3.8137,1.6995-4.8624-0.3246
		C169.3754,71.3559,169.4252,70.7189,169.8733,70.0452z M165.7072,62.8598c0.5449-1.3567,2.5536-2.7121,5.1182-3.4535
		c1.6394-0.4579,3.446-0.6105,5.0786-0.4073c-0.6801,1.4875-1.7619,2.909-3.0367,4.0182c-2.0201,1.7655-4.174,2.7082-5.6124,2.4701
		c-0.6169-0.1032-1.0775-0.4373-1.4136-1C165.5305,63.9373,165.4846,63.4177,165.7072,62.8598z M161.3949,55.4897
		c0.484-1.3634,2.4179-2.8082,4.9272-3.6785c1.618-0.5682,3.408-0.813,5.0462-0.6714c-0.6216,1.5176-1.6505,3.0095-2.892,4.2151
		c-1.9177,1.8671-4.0945,2.9387-5.5326,2.7461c-0.5979-0.0838-1.0253-0.3832-1.3499-0.934
		C161.26,56.6162,161.1912,56.0658,161.3949,55.4897z M159.0987,45.6709c1.9197-1.2815,4.7446-2.1997,7.2925-2.1257
		c-0.5425,1.5587-1.4891,3.102-2.6568,4.3606c-1.8086,1.9533-3.9252,3.1285-5.3918,3.0288
		c-0.6069-0.0482-1.0549-0.3211-1.4148-0.8418C155.7025,48.1663,158.2739,46.2237,159.0987,45.6709z M161.0267,36.2408
		c-0.4508,1.5836-1.2989,3.1593-2.38,4.4495c-1.7003,2.0348-3.7536,3.3286-5.2412,3.3088c-0.6097-0.0126-1.0929-0.2649-1.482-0.7529
		c-0.3752-0.5049-0.4955-1.038-0.3484-1.635c0.3523-1.4417,2.1368-3.0945,4.5437-4.2131
		C157.6452,36.6828,159.3834,36.2681,161.0267,36.2408z M166.8464,41.4459c-2.5793-0.1629-5.3289,0.5251-7.5551,1.6686
		c0.3361-0.3357,0.6738-0.6702,0.9941-1.0546c1.3143-1.569,2.3744-3.5512,2.8908-5.5915c1.1483,0.2902,2.1585,0.8446,2.862,1.7612
		C166.708,39.1518,166.9286,40.2676,166.8464,41.4459z M171.9321,49.0426c-2.0858-0.2432-4.3337,0.0561-6.3155,0.7533
		c-0.5038,0.1752-0.9435,0.3978-1.4009,0.6073c0.367-0.3274,0.7327-0.6647,1.0858-1.0463c1.4164-1.5279,2.5943-3.4674,3.2262-5.478
		c1.0858,0.3527,2.0363,0.9628,2.7006,1.9533c0.0024,0.0032,0.0067,0.0047,0.0067,0.0047c0.0036,0.0059,0.0036,0.0087,0.0051,0.0111
		C171.8867,46.7757,172.0639,47.8832,171.9321,49.0426z M176.5486,56.944c-2.0427-0.3282-4.2847-0.1756-6.3163,0.4116
		c-0.5034,0.1455-0.9446,0.3428-1.4053,0.5251c0.3835-0.3084,0.7651-0.6334,1.1388-0.9972
		c1.5026-1.4587,2.7778-3.3278,3.5128-5.2854c1.0814,0.4096,1.9937,1.0656,2.5543,2.0542l0.0028,0.0032
		c0,0,0.0008,0.004,0.002,0.0063C176.6162,54.6566,176.7312,55.7887,176.5486,56.944z M180.7945,65.0393
		c-0.5667-0.1194-1.125-0.2503-1.7505-0.2926c-2.0067-0.136-4.083,0.1819-5.9272,0.7964c0.3864-0.2819,0.7718-0.5828,1.1542-0.9174
		c1.5607-1.3574,2.9225-3.1621,3.7374-5.1024c1.0921,0.45,1.9795,1.1423,2.4575,2.1562c0,0,0.0051,0.0043,0.0063,0.0067
		c0.0028,0.0047,0.002,0.0103,0.0043,0.015C181.0036,62.7581,181.0448,63.8997,180.7945,65.0393z M184.6754,73.3231
		c-0.5436-0.1463-1.0763-0.3049-1.6805-0.3792c-2.0106-0.2519-4.1285-0.0403-6.0237,0.4899
		c2.0866-1.3784,4.0724-3.4254,5.1989-5.7362c0.9506,0.4614,1.8343,1.1629,2.3769,2.2633
		C185.0313,71.123,184.9692,72.2816,184.6754,73.3231z M185.8502,76.0206c0.9407,0.5132,1.8066,1.2716,2.2946,2.4262l0,0
		c0.433,1.0395,0.3788,2.1641,0.0154,3.2772c-0.4943-0.1597-1.0063-0.3005-1.5559-0.4013
		c-2.0656-0.3792-4.2764-0.2728-6.2562,0.1934c1.6793-0.9893,3.2934-2.3341,4.5338-3.9802
		C185.2598,77.0344,185.5706,76.5275,185.8502,76.0206z M191.3041,87.0521c0,0,0.0044,0.0067,0.0059,0.0107l0.0016,0.0087
		c0.393,1.0557,0.2962,2.1692-0.1071,3.2558c-1.8893-0.6856-4.0885-0.9763-6.3001-0.7892
		c-0.5634,0.0498-1.0759,0.1637-1.5986,0.2645c0.4674-0.2416,0.9344-0.4654,1.4021-0.7699c1.749-1.14,3.3642-2.7303,4.4694-4.5144
		C190.0779,85.0751,190.892,85.875,191.3041,87.0521z M200.3333,122.7272c0,1.1008-0.3338,2.1846-0.9648,3.1894
		c-1.7897-1.1095-4.0435-1.7869-6.0914-1.9838c-0.5409-0.0534-1.0903-0.0391-1.5996-0.0411
		c1.856-0.5627,3.7096-1.5085,5.3023-2.8054c0.4923-0.4017,1.1125-0.8229,1.5095-1.2534c0.8509,0.7778,1.844,1.7244,1.844,2.8786
		v0.0024C200.3333,122.7138,200.3333,122.7233,200.3333,122.7272z M200.1122,134.9877c-1.7414-1.1704-3.8742-1.9478-5.9449-2.2546
		c-0.5137-0.0775-0.9929-0.0826-1.4828-0.1107c0.4689-0.1182,0.943-0.2539,1.4235-0.4247c2.0047-0.711,3.9141-1.8897,5.3807-3.3424
		c0.8007,0.8193,1.3658,1.7999,1.4923,2.9656C201.1051,133.0767,200.6721,134.134,200.1122,134.9877z M200.5966,144.1086
		c-1.6869-1.2491-3.7754-2.1297-5.8213-2.5417c-0.5405-0.1083-1.0494-0.14-1.5658-0.1914c0.2309-0.0447,0.4492-0.0573,0.6849-0.1139
		c0.2862-0.0692,0.5784-0.1475,0.8714-0.2341c2.1281-0.6418,4.0708-1.7291,5.5694-3.0609c0.7738,0.8608,1.2752,1.8568,1.3005,2.9822
		l0.002,0.0091l-0.0024,0.0123C201.6875,142.2154,201.2273,143.2597,200.5966,144.1086z M200.8643,153.2291
		c-0.4456-0.3658-1.0332-0.7196-1.5674-1.0439c-1.7485-1.0644-3.7932-1.7449-5.7074-2.0455
		c0.4373-0.0664,0.8452-0.1206,1.2861-0.227c1.5788-0.3804,3.1388-1.0142,4.5228-1.8814c0.482-0.3009,1.0849-0.6485,1.491-0.9861
		c0.7675,0.909,1.4439,1.9474,1.4439,3.0889v0.0012C202.3333,151.3094,201.6014,152.3371,200.8643,153.2291z M200.3016,162.3307
		c-1.8853-1.7177-4.4606-2.8802-6.8904-3.3958c0.6101-0.072,1.2349-0.1807,1.862-0.3317c1.8755-0.452,3.7445-1.2764,5.2843-2.4171
		c0.6544,0.8573,1.1372,1.9102,1.1158,3.1649C201.5756,160.5731,201.0141,161.5505,200.3016,162.3307z M199.4562,171.4678
		c-1.4749-1.5029-3.4092-2.6781-5.3637-3.3641c-0.5128-0.1819-0.9996-0.2875-1.4935-0.4112
		c0.9533-0.0498,1.9324-0.1799,2.9011-0.4132c1.0265-0.2471,2.0387-0.5983,2.9857-1.0518c0.5662-0.2705,1.0364-0.5983,1.5184-0.9185
		c0.6548,0.9672,1.0387,2.0439,0.9407,3.2218c0,0,0.002,0.0091,0.0012,0.0146l-0.0015,0.0071
		C200.8746,169.6687,200.3048,170.6438,199.4562,171.4678z M198.447,180.5033c-1.4057-1.5476-3.4184-2.813-5.3539-3.6125
		c-0.52-0.2151-1.0924-0.3511-1.5997-0.5038c0.5287,0.0028,1.0159,0.0221,1.575-0.0324c0.7102-0.0692,1.4093-0.1906,2.1139-0.3602
		c1.397-0.3369,2.9995-0.8782,4.1778-1.5828c0.5765,0.9873,0.9734,2.0719,0.9734,3.2301v0.0051v0.0032
		C200.3333,178.7762,199.3007,179.7224,198.447,180.5033z M196.4274,189.5064c-1.3298-1.6342-3.1396-3.0027-5.0197-3.8999
		c-0.5006-0.2388-0.9897-0.3958-1.4812-0.5721c0.5302,0.0304,1.0514,0.0735,1.6153,0.049c0.9695-0.038,1.9719-0.1748,2.9501-0.4104
		c1.1218-0.2705,2.2608-0.6876,3.2501-1.2222c0.5488,1.0285,0.5914,2.123,0.5914,3.223c0,0.0043,0,0.0079,0,0.0079
		c0,0.0071-0.0603,0.0087-0.0611,0.0119C198.0223,187.8595,197.3064,188.7785,196.4274,189.5064z M194.1941,198.3668
		c-1.2333-1.7034-2.9489-3.1522-4.7493-4.1249c-0.4456-0.2412-0.8861-0.4045-1.3286-0.5943
		c1.6587,0.1593,3.4753,0.0558,5.1961-0.359c0.8592-0.2072,1.6908-0.4947,2.4685-0.8616c0.4986,1.0542,0.7015,2.1613,0.4223,3.2526
		C195.8857,196.7887,195.1526,197.6744,194.1941,198.3668z M181.2306,196.2371c0.1819-0.6002,0.5374-1.0142,1.1021-1.2523
		c1.3835-0.5694,3.7599-0.1313,6.0952,1.1352c1.48,0.7987,2.8497,1.9478,3.8525,3.2518c-1.5378,0.5824-3.306,0.841-4.9849,0.7402
		c-2.65-0.1475-4.9181-1.0249-5.7801-2.2329C181.1602,197.3802,181.0724,196.8409,181.2306,196.2371z"/>
	<path id="XMLID_15243_" fill="#FC3A5B" d="M150.2123,20.076c-11.8951-4.9232-30.9918-0.0854-25.8566,17.6974
		c2.6279,9.1008,15.4977,16.3759,27.1239,21.2319c11.2087,4.682,23.9832-1.2958,27.6641-12.8718
		c3.9162-12.3158,6.8098-27.1714,1.2753-34.3817C169.173-2.8989,153.8006,8.8432,150.2123,20.076z"/>
	<path id="XMLID_15242_" fill="#ED0033" d="M178.6173,33.5215c-4.8904,12.1426-19.7349,19.09-32.1401,14.969
		c-7.8876-2.6196-16.2363-6.1502-22.0813-10.6065c2.6999,9.0486,15.5044,16.2846,27.0836,21.1212
		c11.2087,4.6817,23.9832-1.2958,27.6641-12.8714c2.7853-8.7591,5.0356-18.7907,4.1222-26.4557
		C182.0791,24.2982,180.4137,29.0605,178.6173,33.5215z"/>
	<path id="XMLID_15241_" fill="#FC6B84" d="M92.7774,10.2382c-13.3071,3.257-16.8231,16.5483-0.5524,17.767
		C111.1604,29.4231,108.6575,6.3513,92.7774,10.2382z"/>
	<path id="XMLID_15240_" fill="#FC6B84" d="M138.8498,21.7996c-13.3075,3.257-16.8231,16.5483-0.5524,17.767
		C157.2328,40.9845,154.7298,17.9127,138.8498,21.7996z"/>
	<path id="XMLID_15239_" fill="#FC6B84" d="M63.3205,21.0966c7.8675-1.9256,9.9458-9.7832,0.3266-10.5037
		C52.4531,9.7546,53.9327,23.3943,63.3205,21.0966z"/>
	<path id="XMLID_15238_" fill="#FC6B84" d="M168.3754,18.0701c7.8671-1.9256,9.9457-9.7832,0.3266-10.5037
		C157.508,6.7282,158.9877,20.3678,168.3754,18.0701z"/>
</g>
</svg>
