<?xml version="1.0" encoding="utf-8"?>
<!-- Generator: Adobe Illustrator 19.0.0, SVG Export Plug-In . SVG Version: 6.00 Build 0)  -->
<svg version="1.1" id="Layer_1" xmlns="http://www.w3.org/2000/svg" xmlns:xlink="http://www.w3.org/1999/xlink" x="0px" y="0px"
	 viewBox="0 0 250 194.6667" enable-background="new 0 0 250 194.6667" xml:space="preserve">
<g id="XMLID_15191_">
	<path id="XMLID_15198_" fill="#EF7B05" d="M126.6897,79.6772c61.1532,0,109.6777,36.1706,121.2629,97.564
		C244.3961,101.4088,193.3742,55.52,126.6897,55.52c-66.6833,0-117.7049,45.8872-121.2618,121.72
		C17.0139,115.8463,65.5384,79.6772,126.6897,79.6772z"/>
	<g id="XMLID_15196_">
		<path id="XMLID_15197_" fill="#E11D00" d="M226.4072,10.2173c2.6353-0.1193,5.5803,4.7274,7.2292,12.7963
			c1.6327,8.0141,1.6752,19.1935-0.6714,30.2826c-2.2686,11.0918-6.7701,21.991-11.4146,29.8452
			c-2.2577,3.9688-7.0068,11.1783-8.6827,13.5464c-9.8552,2.4639-33.8692-16.1907-33.7893-23.2303
			c0.2138-0.2282,11.0562-9.4788,13.2904-11.7323c4.5599-4.4197,9.9398-10.9405,14.6124-18.2696
			c4.7023-7.2998,8.4723-15.4046,11.4215-21.8678C221.3427,15.1482,223.6317,10.3293,226.4072,10.2173z"/>
	</g>
	<path id="XMLID_15195_" fill="#B70F02" d="M194.6702,72.7561c-4.3124,0-8.4685-0.7413-12.4087-2.0608
		c-1.7855,1.5439-3.1102,2.6843-3.1831,2.7623c-0.08,7.0396,23.9336,25.6946,33.7893,23.2299
		c1.6763-2.3678,6.4254-9.5773,8.6831-13.5461c4.6437-7.8542,9.146-18.7534,11.4146-29.8448
		c0.6343-2.9975,1.0798-5.9961,1.381-8.9426C227.1345,61.1621,212.1013,72.7561,194.6702,72.7561z"/>
	<g id="XMLID_15193_">
		<path id="XMLID_15194_" fill="#E11D00" d="M26.9738,10.2173c-2.6353-0.1193-5.5807,4.7274-7.2292,12.7963
			c-1.6327,8.0141-1.6752,19.1935,0.6714,30.2826c2.2686,11.0918,6.7701,21.991,11.4142,29.8452
			c2.2581,3.9688,7.0072,11.1783,8.6831,13.5464c9.8552,2.4639,33.8692-16.1907,33.7893-23.2303
			c-0.2139-0.2282-11.0567-9.4788-13.2905-11.7323c-4.5603-4.4197-9.9398-10.9405-14.6124-18.2696
			c-4.7023-7.2998-8.4727-15.4046-11.4215-21.8678C32.0383,15.1482,29.7493,10.3293,26.9738,10.2173z"/>
	</g>
	<path id="XMLID_15192_" fill="#B70F02" d="M58.7107,72.7561c4.3124,0,8.4681-0.7413,12.4087-2.0608
		c1.7856,1.5439,3.1098,2.6843,3.1832,2.7623c0.0795,7.0396-23.9341,25.6946-33.7897,23.2299
		c-1.6759-2.3678-6.425-9.5773-8.6827-13.5461c-4.6436-7.8542-9.146-18.7534-11.4146-29.8448
		c-0.6343-2.9975-1.0798-5.9961-1.381-8.9426C26.2464,61.1621,41.2793,72.7561,58.7107,72.7561z"/>
</g>
</svg>
