<?xml version="1.0" encoding="utf-8"?>
<!-- Generator: Adobe Illustrator 19.0.0, SVG Export Plug-In . SVG Version: 6.00 Build 0)  -->
<svg version="1.1" id="Layer_1" xmlns="http://www.w3.org/2000/svg" xmlns:xlink="http://www.w3.org/1999/xlink" x="0px" y="0px"
	 viewBox="0 0 275.7 323.6" style="enable-background:new 0 0 275.7 323.6;" xml:space="preserve">
<style type="text/css">
	.st0{fill:#EF7B05;}
	.st1{fill:#79CED6;}
	.st2{fill:#FC3A5B;}
	.st3{fill:#ED0033;}
	.st4{fill:#FC6B84;}
</style>
<g id="XMLID_15237_">
	<path id="XMLID_15328_" class="st0" d="M141,212c59.8,0,107.2,34.1,118.6,92.1c-3.5-71.6-53.4-114.9-118.6-114.9
		c-65.2,0-115.1,43.3-118.6,114.9C33.8,246.1,81.2,212,141,212z"/>
	<path id="XMLID_15287_" class="st1" d="M92.4,201.9C92.4,201.9,92.4,201.9,92.4,201.9c0-0.1,0-0.1,0-0.1c0,0,0,0,0,0
		c0,0,0-0.1-0.1-0.1c-0.5-1.1-1.4-1.8-2.6-2.1c-0.8-0.2-1.8-0.1-2.9,0.1c2.1-1.4,3-3.3,2.3-5.4c0,0,0-0.1,0-0.1c0,0,0,0,0,0
		c0,0,0,0,0,0c0,0,0,0,0-0.1c-0.5-1.1-1.3-1.9-2.5-2.3c-0.9-0.3-1.9-0.3-3-0.1c0.9-0.5,1.7-1.2,2.2-1.9c0.7-1,0.8-2.2,0.4-3.4
		c0,0,0,0,0-0.1c0,0,0,0,0,0c0,0,0,0,0-0.1c0,0,0,0,0-0.1c-0.4-1.1-1.2-2-2.3-2.4c-0.8-0.3-1.9-0.4-2.9-0.2c1-0.5,1.8-1.1,2.3-1.8
		c0.7-1,0.9-2.1,0.6-3.3c0,0,0-0.1,0-0.1c0,0,0,0,0,0c0,0,0,0,0,0c0,0,0-0.1,0-0.1c-0.4-1.2-1.2-2.1-2.3-2.5
		c-0.8-0.3-1.7-0.4-2.7-0.3c0.7-0.3,1.3-0.7,1.8-1.2c1.1-1,1.5-2.4,1.3-3.8c0-0.1,0-0.1,0-0.2c0,0,0,0,0,0c0,0,0,0,0,0
		c0,0,0-0.1,0-0.1c-0.6-2.1-2.3-3.2-4.8-3.2c2.3-1,3.5-2.7,3.3-4.8c0,0,0-0.1,0-0.1c0,0,0,0,0,0c0,0,0,0,0,0c0-0.1,0-0.1-0.1-0.1
		c-0.3-1.4-1.2-2.5-2.7-3c-0.6-0.2-1.3-0.3-2.1-0.4c0.7-0.2,1.3-0.5,1.8-0.9c1.2-0.9,1.8-2.2,1.7-3.7c0,0,0-0.1,0-0.1c0,0,0,0,0,0
		c0,0,0,0,0,0c0,0,0-0.1,0-0.1c-0.2-1.2-0.8-2.2-1.8-2.8c-0.7-0.5-1.7-0.7-2.8-0.8c1-0.3,1.9-0.7,2.6-1.3c0.9-0.8,1.3-1.9,1.2-3.1
		c0,0,0,0,0-0.1s0,0,0-0.1c0,0,0-0.1,0-0.1c0,0,0-0.1,0-0.1c-0.1-1.2-0.7-2.2-1.7-2.9c-0.7-0.5-1.7-0.8-2.7-0.9
		c1-0.3,1.9-0.7,2.6-1.2c0.9-0.8,1.4-1.9,1.4-3.1c0,0,0,0,0-0.1c0,0,0,0,0,0c0,0,0,0,0,0c0,0,0-0.1,0-0.1c-0.1-1.3-0.7-2.3-1.7-3
		c-0.7-0.5-1.6-0.8-2.5-1c0.8-0.1,1.5-0.4,2.1-0.7c1.3-0.7,2-1.9,2.1-3.4c0-0.1,0-0.1,0-0.2c0,0,0,0,0-0.1c0,0,0,0,0,0
		c0,0,0-0.1,0-0.1c-0.1-2.1-1.5-3.6-4-4.2c2.5-0.4,4-1.8,4.3-3.9c0,0,0-0.1,0-0.1c0,0,0,0,0,0c0,0,0,0,0,0c0-0.1,0-0.1,0-0.2
		c0-1.4-0.6-2.7-1.9-3.5c-0.5-0.4-1.2-0.6-1.9-0.8c1-0.1,1.8-0.4,2.5-0.8c1.1-0.6,1.7-1.6,1.9-2.9c0,0,0-0.1,0-0.1c0,0,0,0,0,0
		c0,0,0,0,0,0c0,0,0-0.1,0-0.1c0.1-1.2-0.2-2.4-1.1-3.2c-0.6-0.7-1.6-1.1-2.6-1.4c1.1,0,2.1-0.2,2.9-0.7c1-0.6,1.7-1.6,1.9-2.7
		c0,0,0-0.1,0-0.1c0,0,0-0.1,0-0.1c0,0,0,0,0,0c0,0,0,0,0,0c0.2-1.2-0.1-2.3-0.9-3.2c-0.6-0.7-1.5-1.2-2.5-1.5
		c1.1,0,2.1-0.1,2.9-0.5c1.1-0.6,1.8-1.5,2.1-2.7c0,0,0-0.1,0-0.1c0,0,0,0,0,0c0,0,0,0,0-0.1c0,0,0-0.1,0-0.1
		c0.2-1.4-0.3-2.8-1.4-3.8c-0.5-0.4-1.1-0.7-1.7-1c0.7,0,1.5,0,2.1-0.2c1.5-0.4,2.5-1.4,2.9-2.8c0,0,0-0.1,0.1-0.1c0,0,0,0,0,0
		c0,0,0,0,0,0c0-0.1,0-0.1,0-0.2c0.3-1.4-0.1-2.8-1.2-3.8c-0.4-0.4-1-0.8-1.7-1.1l0,0c2.4,0.2,4.1-0.7,4.9-2.5
		c0.1-0.1,0.2-0.2,0.2-0.4c0,0,0,0,0-0.1c0,0,0,0,0,0c0,0,0-0.1,0-0.1c0.4-1.4,0.1-2.8-0.9-3.9c-0.4-0.5-1-0.9-1.7-1.3
		c0.1,0,0.3,0.1,0.4,0.1c0.8,0.1,1.6,0,2.3-0.2c1.2-0.4,2-1.2,2.5-2.3c0,0,0,0,0-0.1c0,0,0,0,0,0c0,0,0,0,0,0c0,0,0-0.1,0-0.1
		c0.4-1.2,0.3-2.3-0.3-3.4c-0.4-0.8-1.2-1.4-2.1-2c0.3,0.1,0.6,0.1,0.9,0.2c0.7,0.1,1.4,0,2-0.2c1.2-0.3,2-1.1,2.5-2.3c0,0,0,0,0,0
		c0,0,0,0,0-0.1c0,0,0,0,0,0c0,0,0,0,0-0.1c0.4-1.1,0.4-2.3-0.2-3.4c-0.4-0.7-1.1-1.4-1.9-2c0.4,0.1,0.8,0.2,1.2,0.2
		c0.6,0.1,1.2,0,1.7-0.1c1.2-0.3,2.1-1,2.7-2.1c0,0,0,0,0,0c0,0,0,0,0,0c0,0,0,0,0,0c0,0,0-0.1,0-0.1c0.8-1.9,0.2-3.9-1.8-5.4
		c0.5,0.1,0.9,0.2,1.4,0.3c0.5,0,0.9,0,1.3,0c1.2-0.2,2.2-0.9,2.8-2c0,0,0,0,0,0c0,0,0,0,0,0c0,0,0,0,0,0c0,0,0-0.1,0-0.1
		c0.6-1.1,0.6-2.3,0.2-3.4c-0.8-2-3.3-3.8-6.5-4.7c-2-0.6-4.2-0.8-6.3-0.4c-0.2-1.2-0.1-2.3,0.5-3.3c0.3-0.5,0.1-1.2-0.4-1.5
		c-0.5-0.3-1.2-0.1-1.5,0.4c-0.9,1.6-1,3.2-0.7,4.9c-1.6,0.6-2.9,1.6-3.8,3.2c0,0,0,0,0,0c0,0,0,0,0,0c-0.8,1.6-0.9,3.3-0.5,5
		c-1.5,0.7-2.8,1.7-3.5,3.4c0,0,0,0,0,0c0,0,0,0,0,0c0,0,0,0,0,0c0,0,0,0,0,0c-0.8,1.6-0.8,3.3-0.3,4.9c-1.5,0.8-2.7,2-3.3,3.6
		c0,0,0,0,0,0c0,0,0,0,0,0l0,0c0,0,0,0,0,0c-0.7,1.7-0.6,3.4,0,4.9c-1.5,0.9-2.7,2.1-3.2,3.7c0,0,0,0,0,0c0,0,0,0,0,0l0,0l0,0
		c-0.6,1.7-0.4,3.4,0.2,5c-1.5,1-2.6,2.2-3.1,3.8c0,0,0,0,0,0c0,0,0,0,0,0c-0.4,1.6-0.2,3.3,0.6,5c-1.4,1-2.5,2.4-2.9,4l0,0l0,0
		c-0.4,1.7-0.1,3.4,0.7,4.9c-1.4,1.1-2.3,2.5-2.6,4.2c0,0,0,0,0,0c0,0,0,0,0,0l0,0c0,0,0,0,0,0c-0.4,1.7,0,3.4,0.9,4.8
		c-1.3,1.2-2.2,2.7-2.4,4.3l0,0l0,0c-0.2,1.8,0.3,3.4,1.2,4.8c-1.3,1.2-2.1,2.7-2.2,4.4c0,0,0,0,0,0c-0.1,1.8,0.4,3.4,1.4,4.7
		c-1.2,1.3-2,2.8-2.1,4.5c0,0,0,0,0,0c0,0,0,0,0,0c0,1.7,0.6,3.3,1.7,4.6c-1.1,1.3-1.8,2.8-1.8,4.6c0,0,0,0,0,0l0,0v0c0,0,0,0,0,0
		c0,1.7,0.7,3.3,1.9,4.6c-1,1.3-1.6,2.9-1.6,4.7l0,0c0,0,0,0,0,0c0.1,1.6,0.8,3.2,2,4.5c-1,1.4-1.5,3-1.3,4.7c0,0,0,0,0,0l0,0v0
		c0,0,0,0,0,0c0.2,1.6,1,3.1,2.3,4.3c-1,1.5-1.4,3.1-1.1,4.9l0,0c0.3,1.8,1.2,3.2,2.5,4.2c-0.9,1.6-1.2,3.2-0.9,4.9c0,0,0,0,0,0
		c0,0,0,0,0,0c0.4,1.6,1.3,3,2.7,4.1c-0.8,1.5-1.1,3.2-0.6,4.9l0,0l0,0c0,0,0,0,0,0c0,0,0,0,0,0c0.4,1.7,1.4,3,2.9,4
		c-0.7,1.5-0.9,3.2-0.4,4.9c0,0,0,0,0,0l0,0l0,0c0,0,0,0,0,0c0.5,1.7,1.6,3,3,3.9c-0.6,1.6-0.7,3.3-0.1,5c0,0,0,0,0,0l0,0
		c0,0,0,0,0,0c0,0,0,0,0,0c0.6,1.7,1.8,2.9,3.2,3.7c-0.5,1.6-0.6,3.3,0.1,5l0,0c0,0,0,0,0,0c0.7,1.6,2,2.8,3.5,3.5
		c-0.4,1.6-0.4,3.3,0.3,5c0.2,0.4,0.5,0.6,0.9,0.6c0.2,0,0.4,0,0.5-0.1c0.5-0.2,0.8-0.9,0.5-1.4c-0.5-1.1-0.5-2.2-0.2-3.3
		c0.6,0.2,1.3,0.3,1.9,0.3c1.5,0.1,3,0,4.4-0.3c3.3-0.7,5.9-2.3,6.9-4.2C92.8,204.2,92.8,203.1,92.4,201.9z M85.9,193.8
		c0.6,0.2,1,0.6,1.2,1.1c0.8,2.2-2.2,3.5-3.1,3.8c-2.2,0.8-5.1,1.1-7.6,0.4c0.9-1.4,2.2-2.7,3.6-3.6C82.1,194,84.5,193.3,85.9,193.8
		z M83,185.7c0.6,0.2,0.9,0.6,1.1,1.2c0.2,0.6,0.1,1.2-0.2,1.7c-0.8,1.2-3,2.2-5.6,2.5c-1.7,0.2-3.5,0-5.1-0.5
		c1-1.3,2.3-2.6,3.8-3.4C79.3,185.8,81.7,185.2,83,185.7z M80.5,177.5c0.6,0.2,1,0.7,1.1,1.3c0.2,0.6,0.1,1.1-0.2,1.6
		c-0.8,1.2-3.1,2.1-5.8,2.2c-1.7,0.1-3.5-0.2-5.1-0.8c1-1.3,2.4-2.4,3.9-3.2C76.9,177.4,79.1,177,80.5,177.5z M79.6,170.6
		c0.2,0.7,0,1.4-0.6,1.9c-1.7,1.6-6.1,2.1-9.5,1c-0.3-0.1-0.7-0.2-1.1-0.4c1.7-1.9,4.3-3.4,6.5-4C75.9,169,79.1,168.4,79.6,170.6z
		 M76.6,160.7c0.8,0.3,1.2,0.8,1.3,1.6c0.3,2.1-2.4,2.9-3.7,3.1c-2.4,0.4-5.3,0-7.7-1.1c0.3-0.3,0.6-0.6,0.8-0.8
		C70.3,161.1,74.4,159.9,76.6,160.7z M75.8,152.4c0.5,0.3,0.8,0.8,0.9,1.4c0.1,0.8-0.2,1.4-0.9,1.9c-1.9,1.4-6.4,1.5-9.7,0
		c-0.3-0.1-0.6-0.3-0.9-0.5c1.2-1.1,2.8-2.1,4.4-2.7C72.1,151.7,74.5,151.7,75.8,152.4z M75.7,145.4c0.1,0.6-0.1,1.1-0.6,1.6
		c-1,1-3.4,1.4-6.1,1c-1.8-0.3-3.5-0.9-4.8-1.7c1.2-1.1,2.8-1.9,4.5-2.4c2.6-0.8,5-0.8,6.2,0.1C75.5,144.3,75.7,144.8,75.7,145.4z
		 M75.3,136.9c0,0.6-0.2,1.1-0.6,1.5c-1.1,1-3.5,1.3-6.1,0.7c-1.7-0.3-3.4-1-4.7-2c1.3-1,2.9-1.8,4.5-2.2c2.6-0.7,4.9-0.5,6.1,0.3
		C75,135.7,75.3,136.3,75.3,136.9z M75.3,128.4c0,0.8-0.4,1.3-1.1,1.7c-2.1,1.2-6.3,0.6-9.4-1.3c-0.3-0.2-0.6-0.4-1-0.7
		c2.1-1.5,5-2.3,7.4-2.3C72.1,125.9,75.3,126.1,75.3,128.4z M69.6,105.9c0.5,0.2,1,0.3,1.5,0.5c-0.5,0-1,0-1.6,0.1
		c-2.1,0.2-4.2,0.9-6,2c-0.6-1-0.9-2.1-0.8-3.2c0.2-1.3,0.8-2.2,1.6-2.9C65.8,103.9,67.7,105.2,69.6,105.9z M68.6,114.7
		c0.5,0.2,0.9,0.3,1.4,0.4c-1.9,0.1-3.9,0.6-5.7,1.5c-0.6,0.3-1.1,0.6-1.6,0.9c-0.7-1-1-2-1-3.2c0,0,0,0,0,0l0,0
		c0.1-1.1,0.6-2.1,1.5-2.9C64.7,112.9,66.6,114.1,68.6,114.7z M69.4,123.9c-2.4,0.3-5.1,1.2-7.2,2.8c-0.7-0.8-1.1-1.9-1.1-3.1
		c0.1-1.2,0.7-2.2,1.4-3C64.4,122.2,67,123.4,69.4,123.9z M75.6,119.9c-0.2,2.2-3.4,2.2-4.3,2.1c-0.1,0-0.1,0-0.2,0
		c-2.3-0.2-5.1-1.3-7-2.9c0.4-0.2,0.7-0.4,1-0.6c3.3-1.6,7.5-1.8,9.5-0.5C75.4,118.5,75.7,119.1,75.6,119.9z M76.4,111.4
		c-0.1,0.7-0.4,1.2-1,1.5c-1.2,0.8-3.6,0.7-6.1-0.2c-1.6-0.5-3.1-1.4-4.3-2.5c1.4-0.8,3.2-1.4,4.9-1.6c2.7-0.3,5,0.2,6.1,1.2
		C76.3,110.3,76.4,110.8,76.4,111.4z M77.5,103c-0.1,0.6-0.4,1.1-0.9,1.4c-1.3,0.7-3.7,0.6-6.2-0.4c-1.6-0.6-3.1-1.6-4.3-2.8
		c1.4-0.7,3.1-1.2,4.9-1.3c2.7-0.2,5,0.4,6,1.5C77.4,101.8,77.6,102.3,77.5,103z M79.1,94.6c-0.1,0.6-0.4,1.1-1,1.3
		c-1.3,0.7-3.7,0.4-6.1-0.7c-1.6-0.7-3-1.8-4.1-3c0.3-0.2,0.7-0.3,0.9-0.4c3.4-1.2,7.8-0.8,9.6,0.8C79,93.2,79.2,93.9,79.1,94.6z
		 M81,86.4c-0.2,0.8-0.7,1.2-1.5,1.4c-2.3,0.6-6.3-0.9-8.9-3.5c-0.2-0.2-0.5-0.5-0.8-0.9c0.4-0.2,0.7-0.3,1.1-0.4
		c3.5-1,7.8-0.4,9.5,1.3C81,85,81.2,85.6,81,86.4z M83.4,78.2c-0.7,2.2-3.8,1.3-4.8,1c-2.2-0.7-4.7-2.4-6.2-4.5
		c0.4-0.1,0.8-0.2,1.1-0.3c3.5-0.8,7.8,0.1,9.4,1.8C83.5,76.8,83.6,77.4,83.4,78.2z M86.1,70.1c-0.2,0.6-0.7,1-1.2,1.2
		c-1.4,0.4-3.7-0.2-5.9-1.6c-1.4-0.9-2.7-2.2-3.6-3.5c1.6-0.4,3.4-0.6,5.1-0.3c2.6,0.4,4.8,1.4,5.6,2.7C86.3,69,86.3,69.5,86.1,70.1
		z M89.2,62.3c-0.2,0.6-0.6,1-1.2,1.1c-1.4,0.4-3.7-0.3-5.9-1.9c-1.4-1-2.6-2.3-3.5-3.7c1.6-0.4,3.4-0.4,5.1-0.1
		c2.6,0.5,4.7,1.6,5.4,2.9C89.4,61.1,89.4,61.7,89.2,62.3z M92.8,54.6c-0.3,0.6-0.7,0.9-1.3,1c-1.4,0.3-3.7-0.5-5.8-2.2
		c-1.3-1.1-2.5-2.5-3.3-3.9c2.5-0.5,5.4,0,7.5,1C90.8,50.9,93.7,52.5,92.8,54.6z M91.7,41.9c2.5,0.7,4.6,2.1,5.1,3.5
		c0.2,0.6,0.2,1.1-0.1,1.7c-0.3,0.5-0.8,0.9-1.4,1c-1.5,0.2-3.7-0.7-5.7-2.5c-1.3-1.1-2.3-2.5-3-4C88.3,41.3,90.1,41.4,91.7,41.9z
		 M82,44.2c0.6-1,1.5-1.7,2.6-2.2c0.8,1.9,2.2,3.7,3.7,5.1c0.4,0.3,0.8,0.6,1.1,0.9c-2.4-0.8-5.2-1.1-7.7-0.5
		C81.4,46.3,81.5,45.2,82,44.2z M78,52.5L78,52.5L78,52.5c0.5-1.1,1.4-1.8,2.4-2.3c0.9,1.9,2.4,3.6,4,4.9c0.4,0.3,0.8,0.6,1.2,0.9
		c-0.5-0.1-1-0.3-1.5-0.4c-2.1-0.4-4.3-0.4-6.4,0.2C77.5,54.6,77.5,53.5,78,52.5z M74.4,60.9C74.4,60.9,74.4,60.9,74.4,60.9
		L74.4,60.9c0.4-1.1,1.2-1.9,2.2-2.4c1,1.8,2.6,3.5,4.3,4.7c0.4,0.3,0.8,0.6,1.3,0.8c-0.5-0.1-0.9-0.2-1.5-0.3
		c-2.1-0.3-4.3-0.1-6.3,0.5C74,63.1,74,62,74.4,60.9z M71.2,69.5C71.2,69.5,71.2,69.5,71.2,69.5L71.2,69.5c0.3-1.1,1.1-1.9,2.1-2.5
		c1.1,1.8,2.7,3.4,4.5,4.5c0.4,0.3,0.9,0.5,1.3,0.7c-1.9-0.3-4-0.3-6,0.1c-0.6,0.1-1.1,0.3-1.7,0.5C71,71.8,70.8,70.7,71.2,69.5z
		 M68.4,78.3c0.4-1.2,1.1-2,2-2.6c1.5,2.1,3.7,3.8,6,4.9c-2-0.2-4.1-0.1-6,0.4c-0.6,0.2-1.1,0.4-1.6,0.6
		C68.3,80.7,68.1,79.5,68.4,78.3z M69.2,85.9c1.5,1.4,3.3,2.5,5.1,3.3c-2-0.2-4.2,0.1-6.2,0.7c-0.5,0.2-1,0.4-1.5,0.6
		c-0.5-1-0.7-2.2-0.5-3.2l0,0c0.3-1.2,1.1-2.1,1.9-2.7C68.3,85,68.7,85.4,69.2,85.9z M66,93.4c1.4,1.6,3.2,2.9,5.1,3.8
		c0.5,0.2,1,0.4,1.5,0.6c-0.5,0-1.1-0.1-1.6,0c-2.2,0.1-4.3,0.8-6.1,1.7c-0.6-1-0.8-2.1-0.6-3.2v0c0,0,0,0,0,0
		C64.5,95,65.2,94.1,66,93.4z M61,132.8L61,132.8c0-1.2,0.5-2.2,1.2-3.1c0.5,0.4,0.9,0.7,1.5,1c1.8,1,3.8,1.7,5.7,2
		c-0.5,0.1-1,0.1-1.5,0.3c-2,0.5-4,1.5-5.6,2.8C61.4,134.9,61,133.9,61,132.8C61,132.8,61,132.8,61,132.8z M61.3,141.9
		c0-1.2,0.4-2.2,1-3.2c1.7,1.2,3.7,2.1,5.8,2.5c0.5,0.1,1,0.2,1.5,0.2c-0.5,0.1-1,0.2-1.4,0.3c-2,0.6-4,1.7-5.5,3.1
		C62,144.2,61.4,143.2,61.3,141.9z M62,151.1L62,151.1L62,151.1c-0.1-1.1,0.2-2.2,0.8-3.2c1.7,1.1,3.8,1.9,6,2.2
		c0.3,0,0.6,0.1,0.9,0.1c0.2,0,0.5,0,0.7,0c-0.5,0.1-1,0.2-1.5,0.4c-2,0.7-3.9,1.9-5.4,3.4C62.8,153.3,62.1,152.3,62,151.1z
		 M63.1,160.2L63.1,160.2c-0.2-1.1,0.1-2.2,0.8-3.2c0.5,0.3,0.9,0.6,1.4,0.8c1.5,0.7,3.1,1,4.8,1.2c0.5,0,0.9,0,1.3,0
		c-1.8,0.6-3.7,1.5-5.3,2.9c-0.5,0.4-0.9,0.8-1.3,1.2C64,162.3,63.3,161.3,63.1,160.2z M64.7,169.3c-0.2-1.2,0.1-2.4,0.6-3.3
		c1.7,0.9,3.7,1.4,5.6,1.6c0.6,0.1,1.3,0.1,1.9,0.1c-2.3,0.9-4.7,2.4-6.3,4.4C65.7,171.3,65,170.4,64.7,169.3z M66.8,178.2
		L66.8,178.2C66.8,178.2,66.8,178.2,66.8,178.2c-0.3-1.2-0.1-2.3,0.4-3.3c0.5,0.2,1,0.5,1.6,0.7c1,0.3,2.1,0.5,3.1,0.6
		c1,0.1,2,0.1,2.9,0c-0.5,0.2-0.9,0.4-1.4,0.6c-1.8,1-3.6,2.4-4.8,4.1C67.7,180.2,67,179.3,66.8,178.2z M69.3,187.1L69.3,187.1
		L69.3,187.1c-0.3-1.1-0.2-2.2,0.2-3.3c1.3,0.5,2.7,0.9,4.1,1c0.7,0.1,1.4,0.1,2.2,0c0.6,0,1.1-0.1,1.6-0.2c-0.5,0.2-1,0.4-1.4,0.7
		c-1.8,1.1-3.5,2.6-4.6,4.3C70.3,189,69.6,188.2,69.3,187.1z M72.2,195.8L72.2,195.8C72.2,195.8,72.2,195.8,72.2,195.8
		c-0.4-1.1-0.3-2.2,0-3.3c1.1,0.4,2.2,0.6,3.3,0.7c1,0.1,2,0.1,3,0c0.6-0.1,1.1-0.2,1.6-0.3c-0.5,0.2-0.9,0.5-1.4,0.8
		c-1.7,1.2-3.3,2.8-4.4,4.6C73.4,197.7,72.6,196.9,72.2,195.8z M75.5,204.4c-0.4-1-0.4-2.2-0.1-3.3c0.8,0.2,1.7,0.4,2.6,0.5
		c1.8,0.2,3.6,0,5.2-0.4c-0.4,0.3-0.8,0.5-1.2,0.8c-1.6,1.2-3.1,2.9-4.1,4.8C76.8,206.2,76,205.4,75.5,204.4z M90.3,204.4
		c-0.7,1.3-2.8,2.5-5.4,3.1c-1.6,0.3-3.4,0.4-5,0c0.8-1.4,2-2.8,3.3-3.8c2.1-1.6,4.4-2.4,5.9-2c0.6,0.2,1,0.5,1.3,1.1
		C90.6,203.3,90.6,203.8,90.3,204.4z"/>
	<path id="XMLID_15286_" class="st2" d="M83.7,24.5c-8.7-9.5-28-13.2-30.9,5.1c-1.5,9.4,7.1,21.4,15.5,30.7c8.2,9,22.3,9,30.5,0.1
		c8.8-9.5,17.7-21.7,15.7-30.6C110.6,11.7,91.7,15.9,83.7,24.5z"/>
	<path id="XMLID_15285_" class="st3" d="M103.7,48.7c-9.6,8.9-26,8.9-35.5-0.1c-6-5.7-12.1-12.5-15.5-19C51.4,39,59.9,51,68.3,60.3
		c8.2,9,22.3,9,30.5,0.1c6.2-6.7,12.5-14.9,15-22.2C110.8,41.9,107.3,45.5,103.7,48.7z"/>
	<path id="XMLID_15244_" class="st1" d="M184.8,208.2c1.3,1.8,4,2.9,7.4,3.1c1.4,0.1,2.9,0,4.3-0.4c0.6-0.2,1.3-0.4,1.9-0.6
		c0.4,1.1,0.6,2.2,0.3,3.3c-0.2,0.6,0.2,1.2,0.7,1.3c0.2,0.1,0.4,0.1,0.5,0c0.4-0.1,0.7-0.4,0.8-0.7c0.5-1.7,0.3-3.4-0.4-5
		c1.4-1,2.5-2.3,3-4c0,0,0,0,0,0l0,0c0.4-1.7,0.1-3.4-0.6-4.9c1.3-1,2.3-2.4,2.7-4.1l0,0c0,0,0,0,0,0l0,0c0,0,0,0,0,0
		c0.4-1.8,0-3.4-0.8-4.9c1.3-1.1,2.2-2.5,2.4-4.3c0,0,0,0,0,0v0c0,0,0,0,0,0s0,0,0,0c0.3-1.8-0.2-3.4-1.1-4.8
		c1.3-1.2,2.1-2.7,2.3-4.4c0,0,0,0,0,0s0,0,0,0l0,0l0,0c0.1-1.8-0.4-3.4-1.4-4.8c1.2-1.3,2-2.8,2.1-4.4l0,0l0,0
		c0-1.7-0.5-3.3-1.7-4.7c1.1-1.3,1.8-2.8,1.9-4.6c0,0,0,0,0,0c0-1.8-0.7-3.4-1.9-4.7c1.1-1.4,1.7-2.9,1.6-4.6l0,0l0,0l0,0l0,0
		c-0.1-1.8-0.8-3.3-2-4.5c1-1.5,1.5-3.1,1.3-4.7l0,0l0,0c-0.2-1.8-1-3.2-2.2-4.4c1-1.5,1.5-3.1,1.2-4.8l0,0l0,0c0,0,0,0,0,0
		c0,0,0,0,0,0c-0.3-1.8-1.2-3.2-2.5-4.2c0.9-1.5,1.3-3.2,1-4.9c0,0,0,0,0,0c0,0,0,0,0,0c-0.4-1.6-1.3-3-2.7-4.1
		c0.8-1.5,1.1-3.1,0.7-4.9c0,0,0,0,0,0c-0.4-1.7-1.4-3-2.8-4c0.7-1.5,0.9-3.2,0.5-4.9l0,0c0,0,0,0,0,0c-0.5-1.6-1.5-2.9-3-3.9
		c0.6-1.6,0.8-3.2,0.2-4.9c0,0,0,0,0,0c0,0,0,0,0,0l0,0c0,0,0,0,0,0c-0.6-1.6-1.7-2.8-3.2-3.7c0.6-1.6,0.7-3.3,0-5l0,0l0,0
		c-0.7-1.5-1.9-2.7-3.4-3.5c0.5-1.7,0.5-3.4-0.2-5c0,0,0,0,0,0c0,0,0,0,0,0c-0.7-1.5-2-2.6-3.6-3.3c0.4-1.6,0.3-3.3-0.5-4.9
		c0,0,0,0,0,0c0,0,0,0,0,0c0,0,0,0,0,0c0,0,0,0,0,0c-0.8-1.6-2.1-2.6-3.7-3.2c0.3-1.7,0.1-3.3-0.8-4.9c0,0,0,0,0,0l0,0c0,0,0,0,0,0
		c0,0,0,0,0,0c-0.9-1.5-2.2-2.5-3.8-3.1c0.2-1.7,0-3.4-1-4.8c0,0,0,0,0,0c0,0,0,0,0,0c0,0,0,0,0,0c0,0,0,0,0,0c-1-1.5-2.4-2.3-4-2.8
		c0.2-1.7-0.2-3.4-1.2-4.9c0,0,0,0,0,0c0,0,0,0,0,0c-1.1-1.4-2.6-2.2-4.2-2.6c0.1-1.7-0.3-3.3-1.4-4.8c-0.4-0.5-1-0.6-1.5-0.2
		c-0.5,0.4-0.6,1-0.2,1.5c0.7,0.9,1,2,1,3.2c-2.1,0-4.3,0.5-6.1,1.4c-3.1,1.4-5.2,3.5-5.7,5.6c-0.3,1.2-0.1,2.3,0.7,3.3
		c0,0,0,0.1,0,0.1c0,0,0,0,0,0c0,0,0,0,0,0c0,0,0,0,0,0c0.8,1,1.8,1.5,3.1,1.5c0.4,0,0.9,0,1.3-0.2c0.4-0.1,0.9-0.3,1.3-0.5
		c-1.7,1.8-2,3.9-0.9,5.7c0,0,0,0.1,0,0.1c0,0,0,0,0,0c0,0,0,0,0,0c0,0,0,0,0,0c0.7,1,1.7,1.6,3,1.7c0.5,0,1.1,0,1.7-0.1
		c0.4-0.1,0.8-0.2,1.2-0.4c-0.7,0.7-1.3,1.5-1.6,2.3c-0.4,1.1-0.3,2.3,0.3,3.4c0,0,0,0,0,0.1c0,0,0,0,0,0c0,0,0,0,0,0.1c0,0,0,0,0,0
		c0.7,1,1.6,1.7,2.8,1.9c0.6,0.1,1.3,0,2-0.1c0.3-0.1,0.6-0.2,0.8-0.3c-0.8,0.7-1.5,1.4-1.8,2.3c-0.5,1.1-0.4,2.3,0.2,3.4
		c0,0,0,0.1,0,0.1c0,0,0,0,0,0c0,0,0,0,0,0c0,0,0,0,0.1,0.1c0.7,1.1,1.6,1.7,2.8,1.9c0.7,0.1,1.5,0.1,2.3-0.1c0.1,0,0.2-0.1,0.4-0.1
		c-0.6,0.5-1.1,1-1.5,1.5c-0.8,1.3-0.9,2.7-0.4,4c0,0,0,0.1,0,0.1c0,0,0,0,0,0c0,0,0,0,0,0.1c0.1,0.1,0.2,0.3,0.3,0.3
		c1.1,1.6,2.9,2.3,5.2,1.7l0,0c-0.6,0.4-1.1,0.9-1.5,1.4c-0.9,1.2-1.1,2.6-0.6,4c0,0.1,0,0.1,0,0.2c0,0,0,0,0,0c0,0,0,0,0,0
		c0,0,0,0.1,0.1,0.1c0.6,1.3,1.8,2.1,3.3,2.3c0.7,0.1,1.4,0,2.1-0.1c-0.6,0.4-1.1,0.8-1.5,1.3c-1,1.2-1.3,2.6-0.8,4c0,0,0,0.1,0,0.1
		c0,0,0,0,0,0c0,0,0,0,0,0c0,0,0,0.1,0,0.1c0.5,1.1,1.3,2,2.4,2.3c0.9,0.3,1.9,0.3,3,0.1c-1,0.5-1.8,1.1-2.2,1.9
		c-0.7,1-0.8,2.2-0.5,3.4c0,0,0,0,0,0c0,0,0,0,0,0c0,0,0,0.1,0,0.1c0,0,0,0.1,0.1,0.1c0.4,1.1,1.2,2,2.3,2.4c0.8,0.3,1.9,0.4,3,0.2
		c-1,0.5-1.9,1.1-2.4,1.8c-0.7,1-0.9,2.2-0.6,3.4c0,0,0,0.1,0,0.1c0,0,0,0,0,0c0,0,0,0,0,0c0,0,0,0.1,0,0.1c0.4,1.2,1.2,2.1,2.3,2.6
		c0.8,0.3,1.6,0.4,2.6,0.4c-0.7,0.3-1.3,0.7-1.8,1.1c-1.1,1-1.5,2.3-1.3,3.7c0,0.1,0,0.1,0,0.2c0,0,0,0,0,0c0,0,0,0,0,0
		c0,0,0,0.1,0,0.1c0.5,2.1,2.3,3.2,4.8,3.2c-2.3,0.9-3.5,2.6-3.3,4.8c0,0,0,0.1,0,0.1l0,0c0,0,0,0,0,0.1c0,0.1,0,0.1,0.1,0.2
		c0.3,1.4,1.2,2.5,2.6,3c0.6,0.2,1.4,0.4,2.1,0.4c-0.9,0.3-1.8,0.7-2.4,1.3c-0.9,0.9-1.3,2-1.2,3.2c0,0,0,0.1,0,0.1l0,0c0,0,0,0,0,0
		c0,0,0,0.1,0,0.1c0.2,1.2,0.8,2.2,1.8,2.9c0.7,0.5,1.7,0.7,2.7,0.8c-1,0.3-1.9,0.7-2.5,1.3c-0.9,0.8-1.3,1.9-1.2,3.1
		c0,0,0,0.1,0,0.1c0,0,0,0.1,0,0.1c0,0,0,0,0,0.1c0,0,0,0,0,0.1c0.1,1.2,0.7,2.2,1.7,2.9c0.7,0.5,1.7,0.8,2.7,0.9
		c-1.1,0.2-2,0.6-2.7,1.2c-0.9,0.8-1.4,1.8-1.4,3.1c0,0,0,0.1,0,0.1c0,0,0,0,0,0c0,0,0,0,0,0c0,0,0,0.1,0,0.1
		c0.1,1.5,0.9,2.7,2.2,3.4c0.6,0.3,1.2,0.5,1.9,0.6c-0.7,0.1-1.4,0.3-2,0.7c-1.3,0.7-2.1,1.9-2.2,3.4c0,0.1,0,0.1,0,0.2c0,0,0,0,0,0
		l0,0c0,0,0,0.1,0,0.1c0,2.1,1.5,3.7,3.9,4.3c-2.5,0.4-4.1,1.7-4.3,3.8c0,0,0,0.1,0,0.1c0,0,0,0,0,0l0,0.1c0,0.1,0,0.1,0,0.2
		c0,1.4,0.6,2.7,1.8,3.5c0.6,0.4,1.2,0.7,2,0.9c-1,0.1-1.9,0.3-2.6,0.7c-1,0.6-1.7,1.6-1.9,2.8c0,0,0,0.1,0,0.1c0,0,0,0,0,0
		c0,0,0,0,0,0c0,0,0,0.1,0,0.1c-0.1,1.2,0.2,2.3,1.1,3.2c0.6,0.6,1.5,1.1,2.6,1.5c-1.1,0-2.1,0.2-2.9,0.7c-1,0.6-1.7,1.5-1.9,2.7
		c0,0,0,0.1,0,0.1c0,0,0,0,0,0.1c0,0,0,0,0,0.1c0,0,0,0,0,0.1c-0.2,1.2,0.1,2.3,0.9,3.3c0.6,0.7,1.4,1.2,2.4,1.5
		c-1.1,0-2.1,0.1-2.9,0.5c-1.1,0.5-1.8,1.5-2.1,2.6c0,0,0,0.1,0,0.1c0,0,0,0,0,0c0,0,0,0,0,0c0,0,0,0.1,0,0.1
		c-0.4,2.1,0.8,3.9,3.1,5c-1.1-0.1-2,0-2.8,0.3c-1.1,0.5-1.9,1.3-2.3,2.5c0,0,0,0.1-0.1,0.1c0,0,0,0,0,0c0,0,0,0,0,0c0,0,0,0,0,0.1
		C183.9,206,184.1,207.2,184.8,208.2z M195.5,196.6c1.5,0.7,3,1.8,4.1,3.1c-2.3,1-5.3,1.2-7.6,0.7c-1-0.2-4.1-1.1-3.7-3.3
		c0.1-0.6,0.5-1,1-1.3C190.7,195.1,193.1,195.5,195.5,196.6z M197.1,187.9c1.6,0.7,3.1,1.7,4.2,2.8c-1.5,0.7-3.2,1.2-4.9,1.2
		c-2.7,0.1-5-0.5-5.9-1.6c-0.4-0.5-0.5-1-0.4-1.6c0.1-0.6,0.4-1.1,0.9-1.4C192.3,186.7,194.7,186.9,197.1,187.9z M198.4,179.2
		c1.6,0.6,3.1,1.5,4.3,2.6c-1.5,0.8-3.2,1.3-4.9,1.5c-2.7,0.3-5-0.3-6-1.3c-0.4-0.4-0.6-0.9-0.5-1.6c0.1-0.6,0.4-1.1,0.9-1.5
		C193.5,178.2,195.9,178.3,198.4,179.2z M196.5,169.9c2.3,0.2,5.1,1.3,7.1,2.9c-0.4,0.2-0.7,0.4-1,0.6c-3.2,1.6-7.6,1.7-9.6,0.4
		c-0.7-0.5-0.9-1-0.9-1.8C192.3,169.7,195.5,169.8,196.5,169.9z M203.1,163.1c0.3,0.2,0.6,0.4,1,0.7c-2.1,1.5-5,2.3-7.4,2.2
		c-1.2,0-4.1-0.3-4.1-2.5c0-0.8,0.4-1.3,1.1-1.7C195.7,160.6,200,161.2,203.1,163.1z M199.4,152.7c1.7,0.3,3.4,1,4.7,2
		c-0.3,0.2-0.6,0.4-0.8,0.6c-3,1.9-7.4,2.6-9.6,1.4c-0.7-0.4-1.1-1-1.1-1.7c0-0.6,0.2-1.1,0.7-1.5
		C194.3,152.5,196.7,152.2,199.4,152.7z M192.8,144.9c1.1-1,3.4-1.4,6.1-1c1.7,0.3,3.4,0.9,4.8,1.7c-1.2,1-2.8,1.9-4.5,2.4
		c-2.6,0.7-5,0.7-6.2-0.1c-0.5-0.3-0.7-0.8-0.8-1.5C192.1,145.8,192.3,145.3,192.8,144.9z M192,136.4c1-1,3.3-1.5,6-1.2
		c1.6,0.2,3.4,0.7,4.8,1.5c-1.2,1.1-2.8,2.1-4.4,2.6c-2.5,0.9-4.9,1-6.2,0.2c-0.5-0.3-0.8-0.8-0.8-1.4
		C191.3,137.4,191.5,136.8,192,136.4z M193.9,126.5c2.3-0.4,5.3,0,7.6,1.2c-0.3,0.3-0.6,0.6-0.9,0.8c-2.8,2.3-6.9,3.5-9.2,2.6
		c-0.8-0.3-1.2-0.8-1.3-1.6C189.8,127.4,192.9,126.7,193.9,126.5z M197.1,102.2c0.8,0.6,1.6,1.4,2,2.6c0.3,1.1,0.2,2.3-0.3,3.3
		c-1.9-0.8-4.1-1.2-6.2-1.1c-0.5,0-1,0.1-1.5,0.2c0.5-0.2,0.9-0.4,1.4-0.7C194.2,105.5,195.9,104,197.1,102.2z M199.6,111
		c1,0.7,1.7,1.6,1.9,2.7l0,0c0,0,0,0,0,0c0.3,1.1,0,2.3-0.5,3.3c-0.5-0.3-1.1-0.5-1.7-0.7c-1.9-0.6-4-0.8-5.9-0.6
		c0.4-0.2,0.9-0.4,1.3-0.6C196.6,114.1,198.3,112.7,199.6,111z M201.6,119.9c0.8,0.7,1.5,1.6,1.8,2.8c0.2,1.2-0.1,2.3-0.7,3.3
		c-2.3-1.2-5.1-1.8-7.5-1.7C197.6,123.4,200,121.9,201.6,119.9z M189.2,119.3c1.7-1.6,6-2,9.5-0.9c0.3,0.1,0.7,0.2,1.1,0.4
		c-1.7,1.9-4.2,3.3-6.5,3.9c-0.1,0-0.1,0-0.2,0c-0.9,0.2-4.1,0.7-4.6-1.5C188.4,120.5,188.6,119.9,189.2,119.3z M186.8,111.3
		c0.9-1.2,3.1-2,5.8-2.1c1.7-0.1,3.5,0.2,5,0.8c-1,1.3-2.4,2.4-3.9,3.2c-2.4,1.2-4.7,1.6-6,1.1c-0.6-0.2-1-0.7-1.2-1.3
		C186.4,112.3,186.5,111.8,186.8,111.3z M184.4,103.1c0.8-1.2,3-2.2,5.7-2.4c1.8-0.2,3.6,0.1,5.1,0.6c-1,1.3-2.3,2.5-3.8,3.4
		c-2.3,1.4-4.7,1.9-6,1.3c-0.6-0.2-0.9-0.6-1.1-1.2C184,104.2,184.1,103.6,184.4,103.1z M181.8,94.7c1.6-1.8,5.9-2.9,9.4-2.2
		c0.3,0.1,0.6,0.1,1,0.2c-0.9,1.4-2.2,2.6-3.7,3.6c-2.2,1.5-4.6,2.1-6,1.6c-0.6-0.2-0.9-0.6-1.2-1.2C181.1,96,181.3,95.4,181.8,94.7
		z M178.5,86.8c1.5-1.9,5.6-3.1,9.2-2.7c0.3,0,0.7,0.1,1.1,0.2c-0.2,0.4-0.4,0.7-0.7,1c-2.2,2.9-5.9,5-8.3,4.7
		c-0.8-0.1-1.3-0.5-1.7-1.2C177.9,88.1,178,87.5,178.5,86.8z M174.9,79.1c1.3-2,5.4-3.4,9-3.2c0.3,0,0.7,0.1,1.1,0.1
		c-1.2,2.3-3.4,4.3-5.5,5.3c-0.9,0.4-3.8,1.7-4.9-0.3C174.4,80.4,174.4,79.8,174.9,79.1z M170.7,71.9c0.5-1.4,2.6-2.7,5.1-3.5
		c1.6-0.5,3.4-0.6,5.1-0.4c-0.7,1.5-1.8,2.9-3,4c-2,1.8-4.2,2.7-5.6,2.5c-0.6-0.1-1.1-0.4-1.4-1C170.5,73,170.5,72.5,170.7,71.9z
		 M166.4,64.6c0.5-1.4,2.4-2.8,4.9-3.7c1.6-0.6,3.4-0.8,5-0.7c-0.6,1.5-1.7,3-2.9,4.2c-1.9,1.9-4.1,2.9-5.5,2.7
		c-0.6-0.1-1-0.4-1.3-0.9C166.3,65.7,166.2,65.1,166.4,64.6z M164.1,54.7c1.9-1.3,4.7-2.2,7.3-2.1c-0.5,1.6-1.5,3.1-2.7,4.4
		c-1.8,2-3.9,3.1-5.4,3c-0.6,0-1.1-0.3-1.4-0.8C160.7,57.2,163.3,55.3,164.1,54.7z M166,45.3c-0.5,1.6-1.3,3.2-2.4,4.4
		c-1.7,2-3.8,3.3-5.2,3.3c-0.6,0-1.1-0.3-1.5-0.8c-0.4-0.5-0.5-1-0.3-1.6c0.4-1.4,2.1-3.1,4.5-4.2C162.6,45.8,164.4,45.3,166,45.3z
		 M171.8,50.5c-2.6-0.2-5.3,0.5-7.6,1.7c0.3-0.3,0.7-0.7,1-1.1c1.3-1.6,2.4-3.6,2.9-5.6c1.1,0.3,2.2,0.8,2.9,1.8
		C171.7,48.2,171.9,49.3,171.8,50.5z M176.9,58.1c-2.1-0.2-4.3,0.1-6.3,0.8c-0.5,0.2-0.9,0.4-1.4,0.6c0.4-0.3,0.7-0.7,1.1-1
		c1.4-1.5,2.6-3.5,3.2-5.5c1.1,0.4,2,1,2.7,2c0,0,0,0,0,0c0,0,0,0,0,0C176.9,55.8,177.1,57,176.9,58.1z M181.5,66
		c-2-0.3-4.3-0.2-6.3,0.4c-0.5,0.1-0.9,0.3-1.4,0.5c0.4-0.3,0.8-0.6,1.1-1c1.5-1.5,2.8-3.3,3.5-5.3c1.1,0.4,2,1.1,2.6,2.1l0,0
		c0,0,0,0,0,0C181.6,63.7,181.7,64.9,181.5,66z M185.8,74.1c-0.6-0.1-1.1-0.3-1.8-0.3c-2-0.1-4.1,0.2-5.9,0.8
		c0.4-0.3,0.8-0.6,1.2-0.9c1.6-1.4,2.9-3.2,3.7-5.1c1.1,0.4,2,1.1,2.5,2.2c0,0,0,0,0,0c0,0,0,0,0,0C186,71.8,186,73,185.8,74.1z
		 M189.7,82.4c-0.5-0.1-1.1-0.3-1.7-0.4c-2-0.3-4.1,0-6,0.5c2.1-1.4,4.1-3.4,5.2-5.7c1,0.5,1.8,1.2,2.4,2.3
		C190,80.2,190,81.4,189.7,82.4z M190.9,85.1c0.9,0.5,1.8,1.3,2.3,2.4l0,0c0.4,1,0.4,2.2,0,3.3c-0.5-0.2-1-0.3-1.6-0.4
		c-2.1-0.4-4.3-0.3-6.3,0.2c1.7-1,3.3-2.3,4.5-4C190.3,86.1,190.6,85.6,190.9,85.1z M196.3,96.1C196.3,96.1,196.3,96.1,196.3,96.1
		L196.3,96.1c0.4,1.1,0.3,2.2-0.1,3.3c-1.9-0.7-4.1-1-6.3-0.8c-0.6,0-1.1,0.2-1.6,0.3c0.5-0.2,0.9-0.5,1.4-0.8
		c1.7-1.1,3.4-2.7,4.5-4.5C195.1,94.1,195.9,94.9,196.3,96.1z M204.9,131.8c0.2,1.1-0.1,2.2-0.8,3.2c-1.8-1.1-3.9-1.8-6-2
		c-0.5-0.1-1,0-1.5,0c1.9-0.6,3.7-1.5,5.3-2.8c0.5-0.4,0.9-0.8,1.3-1.3C204.1,129.7,204.7,130.6,204.9,131.8L204.9,131.8
		C204.9,131.8,204.9,131.8,204.9,131.8z M205.1,144.1c-1.7-1.2-3.9-1.9-5.9-2.3c-0.5-0.1-1-0.1-1.5-0.1c0.5-0.1,0.9-0.3,1.4-0.4
		c2-0.7,3.9-1.9,5.4-3.3c0.8,0.8,1.4,1.8,1.5,3C206.1,142.2,205.7,143.2,205.1,144.1z M205.6,153.2c-1.7-1.2-3.8-2.1-5.8-2.5
		c-0.5-0.1-1-0.1-1.6-0.2c0.2,0,0.4-0.1,0.7-0.1c0.3-0.1,0.6-0.1,0.9-0.2c2.1-0.6,4.1-1.7,5.6-3.1c0.8,0.9,1.3,1.9,1.3,3l0,0l0,0
		C206.7,151.3,206.2,152.3,205.6,153.2z M205.6,162.3c-0.4-0.4-0.9-0.7-1.5-1c-1.7-1.1-3.7-1.7-5.7-2c0.4-0.1,0.9-0.1,1.3-0.2
		c1.6-0.4,3.2-1,4.5-1.9c0.5-0.3,0.9-0.6,1.3-1c0.8,0.9,1.2,1.9,1.2,3.1l0,0C206.9,160.4,206.4,161.4,205.6,162.3z M205.3,171.4
		c-1.9-1.7-4.5-2.9-6.9-3.4c0.6-0.1,1.2-0.2,1.9-0.3c1.9-0.5,3.7-1.3,5.3-2.4c0.7,0.9,1.1,1.9,1.1,3.2
		C206.6,169.6,206,170.6,205.3,171.4z M204.5,180.5c-1.5-1.5-3.4-2.7-5.4-3.4c-0.5-0.2-1-0.3-1.5-0.4c1,0,1.9-0.2,2.9-0.4
		c1-0.2,2-0.6,3-1.1c0.6-0.3,1-0.6,1.5-0.9c0.7,1,1,2,0.9,3.2c0,0,0,0,0,0l0,0C205.9,178.7,205.3,179.7,204.5,180.5z M203.2,189.6
		c-1.4-1.5-3.3-2.8-5.2-3.6c-0.5-0.2-1-0.4-1.5-0.5c0.5,0,1,0,1.6,0c0.7-0.1,1.4-0.2,2.1-0.4c1.4-0.3,2.7-0.9,3.9-1.6
		c0.6,1,0.9,2.1,0.7,3.2v0l0,0C204.6,187.9,204,188.8,203.2,189.6z M201.4,198.6c-1.3-1.6-3.1-3-5-3.9c-0.5-0.2-1-0.4-1.5-0.6
		c0.5,0,1.1,0.1,1.6,0c1,0,2-0.2,3-0.4c1.1-0.3,2.2-0.7,3.2-1.2c0.5,1,0.8,2.1,0.5,3.2c0,0,0,0,0,0c0,0,0,0,0,0
		C203,196.9,202.3,197.9,201.4,198.6z M199.2,207.4c-1.2-1.7-2.9-3.2-4.7-4.1c-0.4-0.2-0.9-0.4-1.3-0.6c1.7,0.2,3.5,0.1,5.2-0.4
		c0.9-0.2,1.7-0.5,2.5-0.9c0.5,1.1,0.7,2.2,0.4,3.3C200.9,205.9,200.2,206.7,199.2,207.4z M186.2,205.3c0.2-0.6,0.5-1,1.1-1.3
		c1.4-0.6,3.8-0.1,6.1,1.1c1.5,0.8,2.8,1.9,3.9,3.3c-1.5,0.6-3.3,0.8-5,0.7c-2.7-0.1-4.9-1-5.8-2.2
		C186.2,206.5,186.1,205.9,186.2,205.3z"/>
	<path id="XMLID_15243_" class="st2" d="M155.2,29.2c-11.9-4.9-31-0.1-25.9,17.7c2.6,9.1,15.5,16.4,27.1,21.2
		c11.2,4.7,24-1.3,27.7-12.9c3.9-12.3,6.8-27.2,1.3-34.4C174.2,6.2,158.8,17.9,155.2,29.2z"/>
	<path id="XMLID_15242_" class="st3" d="M183.6,42.6c-4.9,12.1-19.7,19.1-32.1,15c-7.9-2.6-16.2-6.2-22.1-10.6
		c2.7,9,15.5,16.3,27.1,21.1c11.2,4.7,24-1.3,27.7-12.9c2.8-8.8,5-18.8,4.1-26.5C187.1,33.4,185.4,38.1,183.6,42.6z"/>
	<path id="XMLID_15241_" class="st4" d="M97.8,19.3C84.5,22.6,81,35.9,97.2,37.1C116.2,38.5,113.7,15.4,97.8,19.3z"/>
	<path id="XMLID_15240_" class="st4" d="M143.8,30.9c-13.3,3.3-16.8,16.5-0.6,17.8C162.2,50.1,159.7,27,143.8,30.9z"/>
	<path id="XMLID_15239_" class="st4" d="M68.3,30.2c7.9-1.9,9.9-9.8,0.3-10.5C57.5,18.8,58.9,32.5,68.3,30.2z"/>
	<path id="XMLID_15238_" class="st4" d="M173.4,27.1c7.9-1.9,9.9-9.8,0.3-10.5C162.5,15.8,164,29.4,173.4,27.1z"/>
</g>
</svg>
