<?xml version="1.0" encoding="utf-8"?>
<!-- Generator: Adobe Illustrator 19.0.0, SVG Export Plug-In . SVG Version: 6.00 Build 0)  -->
<svg version="1.1" id="Layer_1" xmlns="http://www.w3.org/2000/svg" xmlns:xlink="http://www.w3.org/1999/xlink" x="0px" y="0px"
	 viewBox="0 0 233.9883 119.994" style="enable-background:new 0 0 233.9883 119.994;" xml:space="preserve">
<style type="text/css">
	.st0{fill:url(#XMLID_28_);}
	.st1{fill:#1D71B8;}
	.st2{fill:#EE8600;}
</style>
<g id="XMLID_7062_">
	
		<radialGradient id="XMLID_28_" cx="120.85682" cy="82.73996" r="82.67742" fx="116.19394" fy="83.05141" gradientTransform="matrix(0.99919 0.04029 -0.02432 0.60319 2.11056 27.96254)" gradientUnits="userSpaceOnUse">
		<stop  offset="0" style="stop-color:#FFFFFF"/>
		<stop  offset="1" style="stop-color:#CCCCCC"/>
	</radialGradient>
	<path id="XMLID_7070_" class="st0" d="M214.0235,94.9476c-13.23773-45.16278-52.6917-77.85835-99.18475-77.68816
		S29.13219,50.4132,16.22545,95.67168L214.0235,94.9476z"/>
	
		<rect id="XMLID_7069_" x="16.23481" y="95.30962" transform="matrix(0.99999 -0.00366 0.00366 0.99999 -0.35815 0.42212)" class="st1" width="197.79939" height="5.47724"/>
</g>
<g id="XMLID_38_">
	<path id="XMLID_7061_" class="st2" d="M83.8116,72.88356c0-0.46594,0.13805-0.81108,0.41416-1.01817
		c0.27612-0.20708,0.65577-0.31062,1.15622-0.31062c0.31063,0,0.58674,0.03452,0.8456,0.1208
		c0.25886,0.06902,0.43143,0.13805,0.51771,0.15531v6.60943c0,1.13897,0.27612,2.00182,0.82834,2.60581
		c0.55222,0.58674,1.39782,0.89737,2.51952,0.89737c1.13897,0,1.9673-0.29337,2.51952-0.89737
		c0.55223-0.58674,0.82834-1.46684,0.82834-2.60581v-5.55676c0-0.46594,0.13806-0.81108,0.41417-1.01817
		c0.27612-0.20708,0.65577-0.31062,1.13896-0.31062c0.32788,0,0.62125,0.03452,0.88011,0.1208
		c0.25886,0.06902,0.43143,0.13805,0.51771,0.15531v7.24794c0,0.86285-0.15531,1.62216-0.44868,2.29518
		c-0.29337,0.67303-0.72479,1.25977-1.29427,1.7257c-0.55222,0.46594-1.22525,0.82834-2.00182,1.06994
		s-1.62215,0.3624-2.55404,0.3624c-0.93188,0-1.77747-0.1208-2.55404-0.3624c-0.77657-0.24159-1.43233-0.604-1.98455-1.06994
		c-0.55223-0.46593-0.98365-1.05267-1.29428-1.7257c-0.31062-0.67302-0.46593-1.44958-0.46593-2.29518L83.8116,72.88356
		L83.8116,72.88356z"/>
	<path id="XMLID_7059_" class="st2" d="M98.7044,69.31136c0-0.46594,0.13805-0.81109,0.41417-1.01817
		c0.27611-0.20708,0.65576-0.31062,1.13896-0.31062c0.31062,0,0.604,0.03452,0.86285,0.1208
		c0.25886,0.06903,0.44868,0.13806,0.53497,0.15532v3.29609h3.72752c0.56947,0,0.96639,0.1208,1.19073,0.34514
		c0.2416,0.22434,0.34515,0.55222,0.34515,1.00091c0,0.29337-0.05177,0.55222-0.1208,0.79382
		c-0.08629,0.24159-0.15531,0.41416-0.20708,0.51771h-4.95277v5.60853c0,0.43143,0.06903,0.79382,0.17257,1.06994
		c0.1208,0.27611,0.29337,0.50045,0.50046,0.67302s0.46593,0.29337,0.74205,0.34514
		c0.27612,0.06903,0.58674,0.10355,0.88011,0.10355c0.50045,0,0.96639-0.06903,1.39782-0.22434
		c0.43142-0.15531,0.74204-0.29337,0.93188-0.43142l1.19073,1.91553c-0.13805,0.10355-0.32788,0.22433-0.58674,0.37965
		c-0.24159,0.15531-0.55222,0.29337-0.91462,0.43143s-0.7593,0.2416-1.20798,0.34514
		c-0.44868,0.08629-0.93188,0.13805-1.46685,0.13805c-1.51862,0-2.65758-0.37965-3.43414-1.13896s-1.15622-1.76022-1.15622-3.00272
		V69.31136H98.7044z"/>
	<path id="XMLID_7034_" class="st2" d="M108.6617,66.98167c0-0.44868,0.13805-0.79382,0.41417-1.00091
		c0.27611-0.22434,0.65576-0.32788,1.15622-0.32788c0.31062,0,0.58674,0.03452,0.84559,0.1208
		c0.25886,0.06903,0.43143,0.13805,0.51772,0.15532v7.23068c0.43142-0.53497,1.01816-1.0009,1.77747-1.3633
		c0.75931-0.37965,1.62216-0.56947,2.60581-0.56947c0.94913,0,1.81199,0.17257,2.62307,0.50045
		c0.79382,0.32788,1.4841,0.79382,2.0881,1.38056c0.58674,0.604,1.05268,1.29427,1.39782,2.10535
		c0.32788,0.81108,0.50045,1.70844,0.50045,2.67484c0,0.94913-0.17257,1.8465-0.51771,2.65759
		c-0.34514,0.82833-0.82833,1.51861-1.44958,2.1226c-0.62125,0.58674-1.34605,1.05268-2.2089,1.38056
		c-0.84559,0.32788-1.77747,0.50046-2.79564,0.50046c-1.01816,0-1.95004-0.15532-2.79563-0.44868
		c-0.8456-0.29337-1.58765-0.75931-2.2089-1.3633c-0.62125-0.604-1.10445-1.3633-1.44958-2.26067
		c-0.34514-0.89736-0.51772-1.96729-0.51772-3.19254L108.6617,66.98167L108.6617,66.98167z M115.5645,81.94349
		c0.58674,0,1.1217-0.10354,1.6049-0.31062c0.48319-0.20708,0.91462-0.50045,1.25976-0.86285
		c0.34514-0.3624,0.62125-0.79382,0.81108-1.27702c0.18983-0.50045,0.27612-1.03542,0.27612-1.62215
		c0-0.58674-0.08629-1.13897-0.27612-1.63942s-0.46594-0.93188-0.81108-1.29427c-0.34514-0.3624-0.77657-0.63851-1.25976-0.86285
		c-0.4832-0.20708-1.03542-0.31062-1.6049-0.31062c-0.604,0-1.13896,0.10355-1.63941,0.31062
		c-0.4832,0.20708-0.89737,0.50045-1.24251,0.86285c-0.34514,0.3624-0.62125,0.81108-0.81108,1.31153
		s-0.29337,1.03542-0.29337,1.6049c0,0.60399,0.10355,1.15622,0.29337,1.65667s0.46594,0.93188,0.82833,1.27702
		c0.34514,0.34515,0.77657,0.62125,1.25976,0.82834C114.46005,81.83995,114.99502,81.94349,115.5645,81.94349"/>
	<path id="XMLID_7033_" class="st2" d="M124.3138,76.05885c0-1.55313,0.48319-2.74387,1.44958-3.58945
		c0.96639-0.8456,2.31245-1.27702,4.03814-1.27702c1.08719,0,1.9673,0.15532,2.64032,0.44868
		c0.67302,0.29337,1.01816,0.74205,1.01816,1.34605c0,0.29337-0.08627,0.56948-0.24159,0.82834
		c-0.17256,0.27611-0.29337,0.43142-0.39691,0.50045c-0.29337-0.13805-0.65576-0.25886-1.08719-0.37966
		c-0.43143-0.1208-0.91461-0.17257-1.46684-0.17257c-2.00182,0-3.01997,1.03542-3.01997,3.12352v7.29972h-2.93369V76.05885z"/>
	<path id="XMLID_7030_" class="st2" d="M146.14392,84.13513c-0.17256,0.03452-0.44868,0.06903-0.81108,0.1208
		c-0.3624,0.03452-0.81108,0.08628-1.29428,0.1208c-0.50044,0.03452-1.05267,0.08629-1.67392,0.1208
		c-0.62126,0.03452-1.25977,0.05177-1.9328,0.05177c-1.34604,0-2.43323-0.1208-3.27882-0.34515
		c-0.8456-0.22433-1.51862-0.53497-2.00182-0.89736c-0.4832-0.37966-0.82834-0.81108-1.0009-1.31154
		c-0.17258-0.50045-0.27612-1.0009-0.27612-1.51862c0-0.69028,0.10355-1.29427,0.32788-1.81198
		c0.20709-0.51772,0.56949-0.94913,1.05269-1.31154c0.48318-0.34514,1.1217-0.62125,1.91553-0.79382
		s1.74297-0.25885,2.88193-0.25885c0.65576,0,1.27701,0.01726,1.8465,0.06902c0.58673,0.03452,1.01816,0.08629,1.31154,0.1208
		c0-0.58674-0.10355-1.06994-0.29338-1.46685c-0.18982-0.37965-0.46594-0.69028-0.81108-0.89736
		c-0.34514-0.22434-0.75931-0.3624-1.24251-0.44868c-0.48318-0.08629-1.01816-0.1208-1.60489-0.1208
		c-0.98366,0-1.76022,0.10355-2.36421,0.32788c-0.58675,0.22434-0.98366,0.39691-1.17348,0.55223
		c-0.10355-0.08629-0.24161-0.2416-0.43143-0.48319c-0.17258-0.2416-0.27612-0.51772-0.27612-0.86285
		c0-0.2416,0.06903-0.46594,0.18983-0.69028c0.1208-0.22434,0.3624-0.43143,0.69028-0.604s0.75931-0.31062,1.31154-0.41417
		s1.24251-0.15531,2.0881-0.15531c1.01816,0,1.93279,0.10354,2.76112,0.29337c0.82832,0.18983,1.55313,0.50045,2.15712,0.91462
		c0.60399,0.41416,1.06993,0.96639,1.39781,1.65667c0.3279,0.69028,0.50046,1.51862,0.50046,2.48501L146.14392,84.13513
		L146.14392,84.13513z M143.24475,78.54386c-0.17258-0.03452-0.50046-0.08629-0.9664-0.15531
		c-0.46594-0.06903-1.17348-0.10355-2.1226-0.10355c-1.17348,0-2.01907,0.17257-2.55403,0.51772
		c-0.53497,0.34514-0.79384,0.8801-0.79384,1.62215c0,0.31062,0.05177,0.58674,0.17258,0.82834
		c0.10355,0.25885,0.31062,0.46594,0.58673,0.63851c0.27612,0.17257,0.65578,0.31062,1.12172,0.3969
		c0.46594,0.08629,1.05267,0.13805,1.76021,0.13805c0.79382,0,1.41508-0.03452,1.88101-0.08628
		c0.46594-0.05177,0.77657-0.10355,0.93188-0.13805L143.24475,78.54386L143.24475,78.54386z"/>
	<path id="XMLID_7010_" class="st2" d="M150.23384,65.89447c0.50046,0,0.91461,0.17257,1.25975,0.50045
		c0.34515,0.32788,0.51772,0.74205,0.51772,1.22525c0,0.48319-0.17256,0.89737-0.51772,1.22525
		c-0.34514,0.34514-0.75931,0.50045-1.25975,0.50045c-0.50046,0-0.91463-0.17257-1.25977-0.50045s-0.51772-0.74205-0.51772-1.22525
		c0-0.48319,0.17258-0.89737,0.51772-1.22525S149.75064,65.89447,150.23384,65.89447 M148.767,72.88356
		c0-0.46594,0.13805-0.81108,0.41417-1.01817c0.27611-0.20708,0.65576-0.31062,1.15622-0.31062
		c0.31062,0,0.58675,0.03452,0.8456,0.1208c0.25885,0.06902,0.43143,0.1208,0.51772,0.15531V84.1869h-2.9337V72.88356
		L148.767,72.88356z"/>
	<path id="XMLID_7009_" class="st2" d="M154.341,76.5593c0-0.84559,0.15532-1.58765,0.4832-2.24341
		c0.31062-0.65577,0.75931-1.22525,1.31152-1.69118c0.55223-0.46594,1.22525-0.81108,1.98456-1.05268s1.6049-0.3624,2.50226-0.3624
		c0.91463,0,1.76022,0.1208,2.51953,0.3624c0.77657,0.2416,1.43233,0.604,2.0018,1.05268
		c0.55223,0.46594,1.00092,1.01816,1.29428,1.69118c0.31062,0.65576,0.46594,1.41508,0.46594,2.24341v7.6276h-2.9337v-6.9028
		c0-1.13896-0.29337-2.00182-0.8456-2.60581c-0.56947-0.604-1.39781-0.89737-2.50226-0.89737
		c-1.1217,0-1.95004,0.29337-2.51952,0.89737c-0.55223,0.58674-0.84561,1.46685-0.84561,2.60581v6.9028h-2.93369v-7.6276H154.341z"
		/>
	<path id="XMLID_43_" class="st2" d="M81.49915,71.95168c-0.48319-1.10445-1.13896-2.07085-2.00181-2.88193
		c-0.8456-0.81108-1.8465-1.44958-2.98547-1.91553s-2.38147-0.69028-3.72751-0.69028c-1.34605,0-2.58855,0.22433-3.72752,0.69028
		s-2.13987,1.10445-2.98547,1.91553s-1.51862,1.77747-2.00182,2.88193c-0.48319,1.10445-0.72479,2.31244-0.72479,3.60671
		s0.2416,2.48501,0.72479,3.60671c0.4832,1.10445,1.13897,2.07085,2.00182,2.88193c0.8456,0.81108,1.8465,1.44958,2.98547,1.91553
		s2.38147,0.69028,3.72752,0.69028s2.57129-0.22433,3.72751-0.69028c1.13897-0.46594,2.13987-1.10445,2.98547-1.91553
		s1.51862-1.77747,2.00182-2.88193c0.48319-1.10445,0.72479-2.31244,0.72479-3.60671S81.98235,73.05613,81.49915,71.95168
		 M67.15858,74.88538c1.05268-0.34515,2.4505-0.77657,2.4505-0.77657c3.07175-0.94914,3.46866-2.07085,3.46866-2.07085
		s0.63851,1.1217,2.86466,1.86375c0,0,1.22525,0.39691,2.38147,0.79382c0.05177,0.1208,0.1208,0.22434,0.17257,0.34515
		c0.20708,0.46594,0.34514,0.94913,0.41417,1.46684h-1.57039c0-0.01726,0-0.01726-0.01726-0.03452
		c-0.1208-0.25886-0.27611-0.48319-0.48319-0.69028c-0.20708-0.18983-0.44868-0.34515-0.70754-0.44868
		c-0.27611-0.10355-0.56948-0.17257-0.8801-0.17257c-0.31063,0-0.62125,0.05177-0.88011,0.17257
		c-0.27611,0.10354-0.50045,0.25885-0.70753,0.44868c-0.20708,0.18983-0.3624,0.41416-0.46593,0.69028
		c-0.03452,0.08629-0.06903,0.17257-0.08629,0.25886H72.491c-0.01726-0.08629-0.05177-0.17257-0.08629-0.25886
		c-0.1208-0.25886-0.27611-0.48319-0.46593-0.69028c-0.20708-0.18983-0.43143-0.34515-0.70754-0.44868
		c-0.27611-0.10355-0.56948-0.17257-0.8801-0.17257s-0.62125,0.05177-0.8801,0.17257
		c-0.27612,0.10354-0.51772,0.25885-0.70754,0.44868c-0.20708,0.18983-0.3624,0.41416-0.48319,0.69028
		c0,0.01726,0,0.01726-0.01726,0.03452h-1.57039c0.06903-0.51771,0.20708-1.0009,0.41417-1.46684
		C67.10681,74.98891,67.14132,74.93715,67.15858,74.88538 M76.58091,77.33587c0,0.18983-0.03452,0.34514-0.10355,0.50046
		c-0.06902,0.15531-0.15531,0.29337-0.27611,0.41416c-0.1208,0.1208-0.25886,0.20708-0.41417,0.27612
		c-0.15531,0.06902-0.34514,0.10355-0.51771,0.10355c-0.18983,0-0.3624-0.03452-0.53497-0.10355
		c-0.15531-0.06903-0.29337-0.15531-0.41417-0.27612c-0.1208-0.1208-0.20708-0.25885-0.27611-0.41416
		c-0.06903-0.15532-0.10355-0.32789-0.10355-0.50046c0-0.18983,0.03452-0.34514,0.10355-0.50045s0.15531-0.29337,0.27611-0.41417
		c0.1208-0.1208,0.25886-0.20708,0.41417-0.27611c0.15532-0.06903,0.34515-0.10355,0.53497-0.10355s0.3624,0.03452,0.51771,0.10355
		c0.15531,0.06902,0.31062,0.15531,0.41417,0.27611c0.1208,0.1208,0.20708,0.25886,0.27611,0.41417
		C76.54639,76.99073,76.58091,77.1633,76.58091,77.33587 M71.66266,77.33587c0,0.18983-0.03452,0.34514-0.10354,0.50046
		c-0.06903,0.15531-0.15532,0.29337-0.27612,0.41416c-0.1208,0.1208-0.25886,0.20708-0.41417,0.27612
		c-0.15531,0.06902-0.34514,0.10355-0.53497,0.10355s-0.3624-0.03452-0.51771-0.10355
		c-0.15532-0.06903-0.29337-0.15531-0.41417-0.27612c-0.1208-0.1208-0.20708-0.25885-0.27612-0.41416
		c-0.06902-0.15532-0.10354-0.32789-0.10354-0.50046c0-0.18983,0.03452-0.34514,0.10354-0.50045
		c0.06903-0.15531,0.15531-0.29337,0.27612-0.41417c0.1208-0.1208,0.25885-0.20708,0.41417-0.27611
		c0.15531-0.06903,0.32788-0.10355,0.51771-0.10355s0.3624,0.03452,0.53497,0.10355
		c0.15531,0.06902,0.29337,0.15531,0.41417,0.27611c0.1208,0.1208,0.20708,0.25886,0.27612,0.41417
		C71.62814,76.99073,71.66266,77.1633,71.66266,77.33587 M77.18491,81.65012c-0.55222,0.53497-1.20799,0.94913-1.95004,1.25976
		c-0.74206,0.31062-1.57039,0.44868-2.43324,0.44868c-0.8801,0-1.69118-0.15531-2.43324-0.44868
		c-0.74205-0.31062-1.39782-0.72479-1.9673-1.25976c-0.55222-0.53497-1.00091-1.15622-1.31153-1.88101
		c-0.31063-0.70754-0.46594-1.46685-0.46594-2.27793h1.4841c0.01726,0.25886,0.06903,0.4832,0.17258,0.70754
		c0.1208,0.25885,0.27611,0.50045,0.48319,0.69028s0.43143,0.34514,0.70753,0.44868
		c0.27612,0.10355,0.56948,0.17257,0.88011,0.17257c0.31062,0,0.62125-0.05177,0.8801-0.17257
		c0.27612-0.10355,0.51772-0.25886,0.70754-0.44868c0.20708-0.18983,0.3624-0.41416,0.46593-0.69028
		c0.06903-0.17257,0.1208-0.3624,0.15531-0.55223h0.46594c0.01726,0.18983,0.06903,0.37966,0.15531,0.55223
		c0.1208,0.25885,0.27612,0.50045,0.4832,0.69028s0.44868,0.34514,0.70753,0.44868c0.27612,0.10355,0.56948,0.17257,0.88011,0.17257
		c0.32788,0,0.62125-0.05177,0.8801-0.17257c0.27611-0.10355,0.50045-0.25886,0.70753-0.44868s0.3624-0.41416,0.46594-0.69028
		c0.10354-0.22434,0.15531-0.44868,0.17257-0.70754h1.4841c-0.01726,0.81108-0.17257,1.57039-0.46593,2.27793
		C78.18581,80.4939,77.73713,81.11516,77.18491,81.65012"/>
</g>
</svg>
