<?xml version="1.0" encoding="utf-8"?>
<!-- Generator: Adobe Illustrator 19.0.0, SVG Export Plug-In . SVG Version: 6.00 Build 0)  -->
<svg version="1.1" id="Layer_1" xmlns="http://www.w3.org/2000/svg" xmlns:xlink="http://www.w3.org/1999/xlink" x="0px" y="0px"
	 viewBox="0 0 187.8 204.1" style="enable-background:new 0 0 187.8 204.1;" xml:space="preserve">
<style type="text/css">
	.st0{fill:#FFBB00;}
	.st1{fill:#FF3381;}
	.st2{fill:#FFCCE0;}
	.st3{opacity:0.34;}
	.st4{fill:#FFFFFF;}
	.st5{opacity:0.37;fill:#FFFFFF;}
</style>
<g id="XMLID_688_">
	<g id="XMLID_692_">
		<polygon id="XMLID_708_" class="st0" points="39.1,19.2 44.4,10.3 45.3,20.7 55.1,17.3 49.1,25.8 58.8,29.5 48.8,32.1 53.8,41.2 
			44.4,36.8 42.5,47 38.1,37.6 30,44.1 32.7,34.1 22.4,34 30.9,28 23,21.2 33.4,22.1 31.7,11.9 		"/>
		<g id="XMLID_693_">
			<path id="XMLID_702_" class="st1" d="M151,133.4c-7.7-6.7-15.4-13.5-23.1-20.2c-17.9-15.7-35.7-31.3-53.6-47
				c-0.9,1-2,1.9-3.3,2.6C65.6,71.6,59,69.4,56.2,64c-2.1-4.2-1.4-9,1.6-12.4c-3.4-3-6.9-6-10.3-9.1c2,20.4,4,40.9,6,61.3
				c5.1-1.8,10.9,0.4,13.5,5.4c2.8,5.4,0.6,12.1-4.8,14.8c-2.1,1.1-4.4,1.4-6.6,1.1c0.8,8,1.6,16,2.3,24c0.4,4.3,0.8,8.6,1.3,13
				c7.6-2.1,15.9,1.3,19.6,8.6c4.3,8.3,1,18.6-7.3,22.8c-2.7,1.4-5.5,2-8.3,1.9c1.7,3.8,5.1,6.1,12.5,6.5
				c12.5,0.7,25.6-2.5,37.6-7.3c-2.9-1.6-5.3-4-6.9-7.1c-4.3-8.3-1-18.6,7.3-22.8c8.3-4.3,18.6-1,22.8,7.3c1.4,2.8,2,5.8,1.8,8.7
				c8.7-6.3,16.6-13.8,22.2-22.5C168.7,145.6,160.6,141.8,151,133.4z M72.2,80.8c4.6-2.4,10.2-0.5,12.6,4c2.4,4.6,0.5,10.2-4,12.6
				c-4.6,2.4-10.2,0.5-12.6-4C65.8,88.8,67.7,83.2,72.2,80.8z M94.6,160.7c-3.5,1.8-7.8,0.4-9.6-3.1s-0.4-7.8,3.1-9.6
				c3.5-1.8,7.8-0.4,9.6,3.1S98.1,158.9,94.6,160.7z M107,134.7c-8.3,4.3-18.6,1-22.8-7.3c-4.3-8.3-1-18.6,7.3-22.8
				c8.3-4.3,18.6-1,22.8,7.3C118.6,120.2,115.3,130.4,107,134.7z M144,151.7c-5.4,2.8-12.1,0.6-14.8-4.8c-2.8-5.4-0.6-12.1,4.8-14.8
				c5.4-2.8,12.1-0.6,14.8,4.8C151.6,142.3,149.4,148.9,144,151.7z"/>
			<path id="XMLID_701_" class="st2" d="M66.9,109.3c-2.5-5-8.3-7.2-13.5-5.4c0.7,7.1,1.4,14.2,2.1,21.3c2.2,0.3,4.5,0,6.6-1.1
				C67.5,121.3,69.7,114.7,66.9,109.3z"/>
			<circle id="XMLID_700_" class="st2" cx="139" cy="141.9" r="11"/>
			<path id="XMLID_699_" class="st2" d="M56.2,64c2.8,5.4,9.4,7.6,14.8,4.8c1.3-0.7,2.4-1.6,3.3-2.6c-5.5-4.8-11.1-9.7-16.6-14.5
				C54.9,55,54.1,59.9,56.2,64z"/>
			<circle id="XMLID_698_" class="st2" cx="91.3" cy="154.3" r="7.1"/>
			<circle id="XMLID_697_" class="st2" cx="76.5" cy="89.1" r="9.3"/>
			<circle id="XMLID_696_" class="st2" cx="99.2" cy="119.6" r="17"/>
			<path id="XMLID_695_" class="st2" d="M78.7,170.7c-3.7-7.3-12-10.7-19.6-8.6c0.6,5.8,1.1,11.7,1.7,17.5
				c0.6,6.4,0.5,11.9,2.3,15.8c2.8,0.1,5.6-0.5,8.3-1.9C79.7,189.3,83,179.1,78.7,170.7z"/>
			<path id="XMLID_694_" class="st2" d="M113.6,164.7c-8.3,4.3-11.6,14.5-7.3,22.8c1.6,3.1,4,5.5,6.9,7.1c3.4-1.4,6.8-2.8,10.1-4.4
				c5.1-2.8,10.2-5.9,15.1-9.4c0.2-2.9-0.4-5.9-1.8-8.7C132.2,163.7,122,160.4,113.6,164.7z"/>
		</g>
	</g>
	<g id="XMLID_689_" class="st3">
		<path id="XMLID_691_" class="st4" d="M48.8,52.6l15.5,78.7l13.9,70.5c6,0.2,12.1-0.5,18.2-1.9l-22.9-70.9L48.8,52.6z"/>
		<path id="XMLID_690_" class="st5" d="M48.8,52.6l15.5,78.7l13.9,70.5c6,0.2,12.1-0.5,18.2-1.9l-22.9-70.9L48.8,52.6z"/>
	</g>
</g>
</svg>
