<?xml version="1.0" encoding="utf-8"?>
<!-- Generator: Adobe Illustrator 19.0.0, SVG Export Plug-In . SVG Version: 6.00 Build 0)  -->
<svg version="1.1" id="Layer_1" xmlns="http://www.w3.org/2000/svg" xmlns:xlink="http://www.w3.org/1999/xlink" x="0px" y="0px"
	 viewBox="0 0 504 328" enable-background="new 0 0 504 328" xml:space="preserve">
<g id="XMLID_11497_">
	<g id="XMLID_11520_">
		<path id="XMLID_10770_" fill-rule="evenodd" clip-rule="evenodd" fill="#B7671D" d="M461.5686,183.3555
			c-45.5532,8.9099-53.7016,13.6208-101.101,19.1691c0,0-11.5813-81.2919-17.415-110.1505
			c-5.6619-28.0084-30.0967-73.4704-57.8482-64.7852c-13.7381,4.2989-23.8093,25.8699-38.0355,25.4064
			c-12.5638-0.4059-18.1252-21.217-30.1628-25.4064c-27.5283-9.581-51.8694,37.5413-57.2654,64.7852
			c-5.7241,28.9041-19.3036,110.1505-19.3036,110.1505c-47.3973-5.5483-54.9181-10.4907-100.5163-19.1691
			c-65.3504-12.4374,4.2224,127.6815,210.8947,127.6815C457.8785,311.037,525.1547,170.9181,461.5686,183.3555z"/>
	</g>
	<g id="XMLID_11516_">
		<path id="XMLID_10767_" fill="#D9791D" d="M343.0527,92.3741c-5.6619-28.0084-30.0967-73.4704-57.8482-64.7852
			c-13.7381,4.2989-23.8093,25.8699-38.0355,25.4064c-12.5638-0.4059-18.1252-21.217-30.1628-25.4064
			c-27.5283-9.581-51.8694,37.5413-57.2654,64.7852c-5.7241,28.9041-23.6659,134.1691-23.8062,134.7656
			c3.6759,2.5288,7.0314,4.9546,11.2357,7.2594c28.4505,15.5952,63.6971,36.9349,103.4555,36.9349
			c39.7578,0,75.5838-21.3397,104.0342-36.9349c4.0426-2.2162,6.6785-4.5434,10.2325-6.9666
			C364.787,226.9341,348.8863,121.2327,343.0527,92.3741z"/>
	</g>
	<g id="XMLID_11500_">
		<g id="XMLID_11512_">
			<path id="XMLID_10765_" fill="#3C2415" d="M360.6545,202.034c-0.4464-2.2612-0.1145-12.3184-2.7885-25.8366
				C337.0092,196.1798,295.1613,210,250.9722,210c-44.1342,0-85.9382-13.7847-106.8159-33.7277
				c-2.8341,12.9712-2.6631,22.7384-3.2638,25.4689c3.4412,2.5288,7.1254,4.9548,11.0609,7.2599
				c26.634,15.5948,61.7993,24.1837,99.0189,24.1837c37.2187,0,72.3839-8.5889,99.0175-24.1837
				C353.7747,206.7847,357.3266,204.4574,360.6545,202.034z"/>
		</g>
		<g id="XMLID_11502_">
			<circle id="XMLID_10763_" fill="#F9F9F9" cx="250.7736" cy="219.5147" r="27.3824"/>
			<path id="XMLID_11504_" fill="#3C2415" d="M250.774,248.6611c-16.0713,0-29.1463-13.0751-29.1463-29.1464
				s13.075-29.1462,29.1463-29.1462c16.071,0,29.1456,13.0749,29.1456,29.1462S266.8449,248.6611,250.774,248.6611z
				 M250.774,193.8954c-14.1265,0-25.6193,11.4928-25.6193,25.6193c0,14.1267,11.4928,25.6195,25.6193,25.6195
				c14.1262,0,25.6186-11.4928,25.6186-25.6195C276.3925,205.3882,264.9001,193.8954,250.774,193.8954z"/>
		</g>
	</g>
</g>
<path id="XMLID_13511_" fill="#EF7B05" d="M274.8288,209.3384c-1.2805-3.0543-3.1539-5.8244-5.5119-8.15
	c-2.374-2.3164-5.1735-4.1521-8.2443-5.4059c-3.2677-1.3275-6.7667-1.9921-10.2935-1.9551
	c-3.5229-0.0355-7.0178,0.629-10.2818,1.9551c-3.0687,1.2577-5.8675,3.0929-8.2443,5.4059c-2.358,2.3256-4.2314,5.0957-5.5119,8.15
	c-1.3507,3.221-2.0319,6.6832-2.0022,10.1758c-0.0335,3.4918,0.6437,6.9539,1.9904,10.1758
	c1.2805,3.0543,3.1539,5.8244,5.5119,8.1501c2.3768,2.313,5.1755,4.1481,8.2443,5.4059c3.264,1.326,6.7589,1.9906,10.2818,1.9551
	c3.5237,0.052,7.0226-0.5965,10.2936-1.908c3.0708-1.2538,5.8702-3.0894,8.2443-5.4059c2.358-2.3256,4.2314-5.0957,5.5119-8.1501
	c1.3467-3.2218,2.0239-6.684,1.9904-10.1758C276.8511,216.0544,276.1778,212.5757,274.8288,209.3384z M236.3333,217.5826
	c3-0.954,6.21-2.1788,6.21-2.1788c8.468-2.6853,9.3235-5.8888,9.3235-5.8888s1.6408,3.1917,7.7887,5.2881
	c0,0,3.3349,1.1189,6.4913,2.2613c0.1531,0.3062,0.2836,0.548,0.4249,0.8778c0.5738,1.3198,0.9354,3.0578,1.1434,4.0578h-3.3818
	c0,0,0,0.1523,0,0.0817c0-0.7286-1.2609-1.389-1.8247-1.9433c-0.5642-0.5221-1.4715-0.9371-2.1843-1.2249
	c-2.341-0.9703-5.1604-0.4668-6.9927,1.2837c-0.5769,0.5376-1.108,1.2755-1.4412,1.9902C251.7957,222.4226,251.65,223,251.58,223
	h-1.6488c-0.0518,0-0.1267-0.5806-0.2238-0.8125c-0.3069-0.7257-0.7508-1.4325-1.3073-1.9903
	c-1.8467-1.7128-4.5132-2.2357-6.8545-1.3073c-0.7308,0.2999-0.8672,0.7237-1.4359,1.272c-0.564,0.5516-0.7763,1.2012-0.7763,1.9315
	V223h-5.4432c0.208-2,1.1543-3.2321,1.7281-4.5519c0.0236-0.106,0.7152-0.6653,0.7152-0.8184V217.5826z M261.2493,224.5549
	c0.0041,0.497-0.092,0.9897-0.2827,1.4486c-0.1773,0.4409-0.4417,0.8414-0.7773,1.1777c-0.3374,0.3314-0.7379,0.5918-1.1778,0.7655
	c-0.459,0.1906-0.9517,0.2867-1.4486,0.2827c-0.9752,0.0067-1.9141-0.3697-2.6146-1.0482
	c-0.3436-0.3322-0.6126-0.7336-0.7891-1.1777c-0.3764-0.925-0.3764-1.9605,0-2.8855c0.1765-0.4441,0.4455-0.8456,0.7891-1.1777
	c0.3351-0.3343,0.7362-0.595,1.1778-0.7655c0.46-0.1848,0.9531-0.2729,1.4486-0.2591c0.497-0.0041,0.9897,0.0921,1.4486,0.2827
	c0.4416,0.1705,0.8427,0.4312,1.1778,0.7655c0.3357,0.3363,0.6,0.7369,0.7773,1.1778
	C261.161,223.5903,261.2531,224.0706,261.2493,224.5549z M247.6698,224.5549c0.0041,0.497-0.0921,0.9897-0.2827,1.4486
	c-0.1773,0.4409-0.4417,0.8414-0.7773,1.1777c-0.3374,0.3314-0.7379,0.5918-1.1777,0.7655c-0.9331,0.3766-1.9759,0.3766-2.9091,0
	c-0.4399-0.1738-0.8404-0.4341-1.1777-0.7655c-0.3357-0.3363-0.6-0.7369-0.7773-1.1777c-0.3764-0.925-0.3764-1.9605,0-2.8855
	c0.1773-0.4409,0.4417-0.8414,0.7773-1.1777c0.3351-0.3343,0.7362-0.595,1.1777-0.7655c0.9331-0.3766,1.9759-0.3766,2.9091,0
	c0.4415,0.1705,0.8427,0.4312,1.1777,0.7655c0.3357,0.3363,0.6001,0.7369,0.7773,1.1777
	C247.5768,223.5732,247.6729,224.0619,247.6698,224.5549z M262.9806,237c-1.5497,2-3.3874,2.5982-5.4059,3.4056
	c-2.1377,0.8722-4.4281,1.2449-6.7367,1.2199c-2.3085,0.0237-4.5987-0.4447-6.7367-1.3157
	c-2.0155-0.8132-3.8521-2.0295-5.4059-3.5492c-1.5515-1.5174-2.7812-3.3353-3.6157-5.3386
	c-0.8491-2.0338-1.2893-3.4221-1.2955-6.4221h4.0279c0.0812,2,0.711,2.8748,1.7666,3.9173c0.5649,0.556,1.233,0.9937,1.9669,1.2932
	c1.5718,0.6119,3.3159,0.6107,4.8877-0.0012c0.7323-0.3024,1.3999-0.7427,1.9669-1.2961c0.5587-0.5515,1.003-0.9155,1.3073-1.6392
	c0.214-0.4997,0.3567-1.2741,0.424-1.2741h1.3073c0.0558,0,0.1867,0.7723,0.3887,1.2738c0.3043,0.7237,0.7486,1.2337,1.3073,1.7852
	c0.5669,0.5534,1.2346,0.92,1.9669,1.2224c1.5757,0.6126,3.3238,0.576,4.8994-0.0366c0.7287-0.3026,1.3924-0.7607,1.9551-1.3138
	c0.5662-0.5477,1.015-1.2094,1.3191-1.936c0.2618-0.6336,0.417-0.9949,0.4593-1.9949h4.075c-0.0062,3-0.4464,4.508-1.2955,6.5418
	c-0.8275,2.0013-2.0491,4.4582-3.5921,5.4582H262.9806z"/>
</svg>
