<?xml version="1.0" encoding="utf-8"?>
<!-- Generator: Adobe Illustrator 19.0.0, SVG Export Plug-In . SVG Version: 6.00 Build 0)  -->
<svg version="1.1" id="Layer_1" xmlns="http://www.w3.org/2000/svg" xmlns:xlink="http://www.w3.org/1999/xlink" x="0px" y="0px"
	 viewBox="-44 96 325 323" style="enable-background:new -44 96 325 323;" xml:space="preserve">
<style type="text/css">
	.st0{fill:#F9EBD9;}
	.st1{fill:#EF7B05;}
	.st2{fill:#B2151B;}
</style>
<g id="XMLID_11738_">
	<path id="XMLID_11944_" class="st0" d="M-17.9,320.1c0,0,0,39.2,7.7,54.5c7.7,15.3,84.3-23,130.3-23c46,0,107.3,38.3,115,23
		c7.7-15.3,7.7-54.5,7.7-54.5l-122.7-52.8L-17.9,320.1z"/>
	<path id="XMLID_11882_" class="st1" d="M-10.6,329.9c-0.1-2.2-0.2-4.2-0.2-6c0-0.5-0.4-0.8-0.9-0.8c-0.5,0-0.8,0.4-0.8,0.9
		c0.1,1.8,0.1,3.8,0.2,6c0,0.5,0.4,0.8,0.9,0.8C-10.9,330.8-10.6,330.4-10.6,329.9z M-9.8,341.8c-0.2-2-0.3-4-0.5-5.9
		c0-0.5-0.4-0.8-0.9-0.8c-0.5,0-0.8,0.4-0.8,0.9c0.1,1.9,0.3,3.9,0.5,6c0,0.5,0.5,0.8,0.9,0.8C-10.1,342.7-9.8,342.3-9.8,341.8z
		 M-8.5,353.6c-0.3-1.9-0.5-3.9-0.7-5.9c-0.1-0.5-0.5-0.8-0.9-0.8c-0.5,0-0.8,0.5-0.8,0.9c0.2,2,0.5,4,0.7,5.9
		c0.1,0.5,0.5,0.8,1,0.7C-8.7,354.5-8.4,354.1-8.5,353.6z M-6.2,365.2c-0.5-1.8-0.9-3.7-1.3-5.8c-0.1-0.5-0.5-0.8-1-0.7
		c-0.5,0.1-0.8,0.5-0.7,1c0.4,2.1,0.8,4.1,1.3,5.9c0.1,0.5,0.6,0.7,1,0.6C-6.4,366.1-6.1,365.7-6.2,365.2z M0.4,371.2
		c-0.5,0-1,0-1.5,0h0c-2.3,0-3.2-0.3-3.4-0.4l-0.3,0.8l0.8-0.4c-0.1-0.2-0.2-0.3-0.2-0.5c-0.2-0.4-0.7-0.6-1.1-0.4
		c-0.4,0.2-0.6,0.7-0.4,1.1c0.1,0.2,0.2,0.4,0.2,0.5c0.1,0.2,0.2,0.3,0.4,0.4c0.5,0.2,1.7,0.6,4.1,0.6h0c0.5,0,1.1,0,1.6,0
		c0.5,0,0.8-0.4,0.8-0.9C1.3,371.5,0.9,371.2,0.4,371.2L0.4,371.2z M12,369.4c-2.1,0.5-4,0.8-5.8,1.1c-0.5,0.1-0.8,0.5-0.7,1
		c0.1,0.5,0.5,0.8,1,0.7c1.8-0.3,3.8-0.7,5.9-1.2c0.5-0.1,0.8-0.6,0.6-1C13,369.6,12.5,369.3,12,369.4z M23.6,366.5
		c-2,0.5-3.9,1.1-5.8,1.5c-0.5,0.1-0.7,0.6-0.6,1c0.1,0.5,0.6,0.7,1,0.6c1.9-0.5,3.8-1,5.8-1.5c0.5-0.1,0.7-0.6,0.6-1
		C24.5,366.6,24,366.4,23.6,366.5z M35,363.2c-1.9,0.6-3.8,1.1-5.7,1.7c-0.5,0.1-0.7,0.6-0.6,1.1c0.1,0.5,0.6,0.7,1.1,0.6
		c1.9-0.5,3.8-1.1,5.7-1.7c0.5-0.1,0.7-0.6,0.6-1.1C36,363.3,35.5,363.1,35,363.2z M46.5,359.8c-1,0.3-2,0.6-3,0.9
		c-0.9,0.3-1.8,0.5-2.8,0.8c-0.5,0.1-0.7,0.6-0.6,1.1c0.1,0.5,0.6,0.7,1.1,0.6c0.9-0.3,1.8-0.5,2.8-0.8c1-0.3,2-0.6,3-0.9
		c0.5-0.1,0.7-0.6,0.6-1.1C47.4,359.9,46.9,359.7,46.5,359.8z M57.9,356.5c-1.9,0.6-3.8,1.1-5.7,1.7c-0.5,0.1-0.7,0.6-0.6,1.1
		c0.1,0.5,0.6,0.7,1.1,0.6c1.9-0.6,3.8-1.1,5.7-1.7c0.4-0.1,0.7-0.6,0.6-1.1C58.8,356.6,58.4,356.3,57.9,356.5z M69.4,353.2
		c-1.9,0.5-3.8,1-5.8,1.6c-0.5,0.1-0.7,0.6-0.6,1.1c0.1,0.5,0.6,0.7,1.1,0.6c1.9-0.5,3.8-1.1,5.7-1.6c0.5-0.1,0.7-0.6,0.6-1
		C70.3,353.4,69.9,353.1,69.4,353.2z M81,350.3c-1.9,0.5-3.9,0.9-5.8,1.4c-0.5,0.1-0.7,0.6-0.6,1c0.1,0.5,0.6,0.7,1,0.6
		c1.9-0.5,3.9-1,5.8-1.4c0.5-0.1,0.7-0.6,0.6-1C81.9,350.4,81.5,350.2,81,350.3z M92.7,347.7c-1.9,0.4-3.9,0.8-5.9,1.2
		c-0.5,0.1-0.8,0.6-0.6,1c0.1,0.5,0.6,0.8,1,0.6c2-0.4,3.9-0.8,5.8-1.2c0.5-0.1,0.8-0.5,0.7-1C93.6,347.9,93.2,347.6,92.7,347.7z
		 M104.5,345.7c-2,0.3-3.9,0.6-5.9,0.9c-0.5,0.1-0.8,0.5-0.7,1c0.1,0.5,0.5,0.8,1,0.7c2-0.3,3.9-0.6,5.9-0.9c0.5-0.1,0.8-0.5,0.7-1
		C105.4,346,105,345.7,104.5,345.7z M116.5,344.7c-2,0.1-4,0.2-6,0.4c-0.5,0-0.8,0.5-0.8,0.9c0,0.5,0.5,0.8,0.9,0.8
		c2-0.2,4-0.3,5.9-0.4c0.5,0,0.8-0.4,0.8-0.9C117.3,345,116.9,344.7,116.5,344.7z M128.5,345c-2-0.2-4-0.3-6-0.3
		c-0.5,0-0.9,0.4-0.9,0.8c0,0.5,0.4,0.9,0.8,0.9c1.9,0,3.9,0.2,5.9,0.3c0.5,0,0.9-0.3,0.9-0.8C129.3,345.4,129,345,128.5,345z
		 M140.4,346.6c-2-0.3-4-0.7-5.9-0.9c-0.5-0.1-0.9,0.3-1,0.7c-0.1,0.5,0.3,0.9,0.7,1c1.9,0.3,3.9,0.6,5.9,0.9c0.5,0.1,0.9-0.2,1-0.7
		C141.2,347.1,140.9,346.7,140.4,346.6z M152.1,349.1c-1.9-0.5-3.9-0.9-5.8-1.3c-0.5-0.1-0.9,0.2-1,0.7c-0.1,0.5,0.2,0.9,0.7,1
		c1.9,0.4,3.9,0.9,5.8,1.3c0.5,0.1,0.9-0.2,1-0.6C152.9,349.6,152.6,349.2,152.1,349.1z M163.7,352.2c-1.9-0.6-3.8-1.1-5.8-1.6
		c-0.5-0.1-0.9,0.1-1,0.6c-0.1,0.5,0.1,0.9,0.6,1c1.9,0.5,3.8,1.1,5.7,1.6c0.5,0.1,0.9-0.1,1.1-0.6
		C164.4,352.8,164.1,352.3,163.7,352.2z M175.1,355.7c-1.9-0.6-3.8-1.2-5.7-1.8c-0.4-0.1-0.9,0.1-1.1,0.6c-0.1,0.4,0.1,0.9,0.6,1.1
		c1.9,0.6,3.8,1.2,5.7,1.8c0.4,0.1,0.9-0.1,1.1-0.5C175.8,356.3,175.5,355.9,175.1,355.7z M186.4,359.5c-1.9-0.6-3.7-1.3-5.7-1.9
		c-0.4-0.2-0.9,0.1-1.1,0.5c-0.2,0.4,0.1,0.9,0.5,1.1c1.9,0.6,3.8,1.3,5.6,1.9c0.4,0.2,0.9-0.1,1.1-0.5
		C187.1,360.2,186.8,359.7,186.4,359.5z M197.7,363.4c-1.8-0.6-3.5-1.2-5.3-1.9l-0.3-0.1c-0.4-0.2-0.9,0.1-1.1,0.5
		c-0.2,0.4,0.1,0.9,0.5,1.1l0.3,0.1c1.8,0.6,3.6,1.2,5.3,1.9c0.4,0.2,0.9-0.1,1.1-0.5C198.4,364.1,198.1,363.6,197.7,363.4z
		 M209,367.2c-1.8-0.6-3.7-1.2-5.7-1.8c-0.4-0.2-0.9,0.1-1.1,0.5c-0.1,0.4,0.1,0.9,0.5,1.1c1.9,0.7,3.8,1.3,5.7,1.9
		c0.5,0.1,0.9-0.1,1.1-0.6C209.7,367.8,209.4,367.4,209,367.2z M220.4,370.4c-1.8-0.4-3.7-0.9-5.7-1.4c-0.5-0.1-0.9,0.1-1.1,0.6
		c-0.1,0.5,0.1,0.9,0.6,1.1c2.1,0.6,4,1.1,5.8,1.5c0.5,0.1,0.9-0.2,1-0.7S220.9,370.5,220.4,370.4z M229.8,369.3
		c-0.3,0.8-0.6,1.5-0.9,2.1l0.8,0.4l-0.3-0.8c-0.1,0-0.7,0.3-2.2,0.3c-0.3,0-0.6,0-1,0c-0.5,0-0.9,0.3-0.9,0.8
		c0,0.5,0.3,0.9,0.8,0.9c0.4,0,0.7,0,1.1,0c1.7,0,2.5-0.3,2.9-0.4c0.2-0.1,0.3-0.2,0.4-0.4c0.3-0.7,0.7-1.4,1-2.2
		c0.2-0.4-0.1-0.9-0.5-1.1C230.5,368.6,230,368.9,229.8,369.3z M232.7,357.9c-0.4,2-0.8,4-1.2,5.8c-0.1,0.5,0.2,0.9,0.6,1
		c0.5,0.1,0.9-0.2,1-0.6c0.4-1.8,0.8-3.8,1.2-5.9c0.1-0.5-0.2-0.9-0.7-1C233.2,357.1,232.8,357.4,232.7,357.9z M234.3,346.1
		c-0.2,2-0.4,4-0.7,5.9c-0.1,0.5,0.3,0.9,0.7,1c0.5,0.1,0.9-0.3,1-0.7c0.3-2,0.5-4,0.7-6c0-0.5-0.3-0.9-0.8-0.9
		C234.7,345.3,234.3,345.6,234.3,346.1z M235.2,334.3c-0.1,1.9-0.3,3.9-0.4,5.9c0,0.5,0.3,0.9,0.8,0.9c0.5,0,0.9-0.3,0.9-0.8
		c0.2-2,0.3-4,0.4-6c0-0.5-0.3-0.9-0.8-0.9C235.7,333.4,235.3,333.8,235.2,334.3z M235.7,322.4c0,1.7-0.1,3.7-0.2,5.9
		c0,0.5,0.3,0.9,0.8,0.9c0.5,0,0.9-0.3,0.9-0.8c0.1-2.2,0.2-4.2,0.2-6c0-0.5-0.4-0.9-0.8-0.9C236.1,321.5,235.8,321.9,235.7,322.4z"
		/>
	<path id="XMLID_11821_" class="st1" d="M-6.1,328.1c-0.1-2.1-0.2-4.1-0.3-6c0-0.5-0.4-0.8-0.9-0.8c-0.5,0-0.8,0.4-0.8,0.9
		c0.1,1.9,0.2,3.9,0.3,6c0,0.5,0.4,0.8,0.9,0.8C-6.4,328.9-6.1,328.5-6.1,328.1z M-5.3,339.9c-0.2-2-0.3-4-0.4-5.9
		c0-0.5-0.4-0.8-0.9-0.8c-0.5,0-0.8,0.4-0.8,0.9c0.1,2,0.3,4,0.4,6c0,0.5,0.4,0.8,0.9,0.8C-5.6,340.8-5.3,340.4-5.3,339.9z
		 M-4.1,351.8c-0.2-1.9-0.4-3.9-0.6-5.9c0-0.5-0.5-0.8-0.9-0.8c-0.5,0-0.8,0.5-0.8,0.9c0.2,2,0.4,4,0.7,6c0.1,0.5,0.5,0.8,0.9,0.7
		C-4.4,352.7-4.1,352.3-4.1,351.8z M-2.2,363.5c-0.4-1.7-0.8-3.7-1.1-5.8c-0.1-0.5-0.5-0.8-1-0.7c-0.5,0.1-0.8,0.5-0.7,1
		c0.3,2.2,0.7,4.2,1.1,5.9c0.1,0.5,0.6,0.7,1,0.6C-2.4,364.4-2.1,363.9-2.2,363.5z M5.6,366.3c-2.2,0.4-4.2,0.6-5.8,0.7
		c-0.5,0-0.8,0.4-0.8,0.9c0,0.5,0.4,0.8,0.9,0.8c1.8-0.1,3.8-0.3,6-0.7c0.5-0.1,0.8-0.5,0.7-1C6.5,366.5,6.1,366.2,5.6,366.3z
		 M17.2,363.7c-2,0.5-3.9,1-5.8,1.4c-0.5,0.1-0.7,0.6-0.6,1c0.1,0.5,0.6,0.7,1,0.6c1.9-0.4,3.8-0.9,5.8-1.4c0.5-0.1,0.7-0.6,0.6-1
		C18.1,363.9,17.6,363.6,17.2,363.7z M28.7,360.6c-2,0.6-3.9,1.1-5.7,1.6c-0.5,0.1-0.7,0.6-0.6,1c0.1,0.5,0.6,0.7,1,0.6
		c1.9-0.5,3.8-1.1,5.8-1.6c0.5-0.1,0.7-0.6,0.6-1.1C29.6,360.7,29.1,360.5,28.7,360.6z M40.1,357.2c-1.9,0.6-3.8,1.1-5.7,1.7
		c-0.5,0.1-0.7,0.6-0.6,1.1c0.1,0.5,0.6,0.7,1.1,0.6c1.9-0.6,3.8-1.1,5.7-1.7c0.5-0.1,0.7-0.6,0.6-1.1
		C41,357.4,40.6,357.1,40.1,357.2z M51.6,353.8c-1.9,0.6-3.8,1.1-5.7,1.7c-0.5,0.1-0.7,0.6-0.6,1.1c0.1,0.5,0.6,0.7,1.1,0.6
		c1.9-0.6,3.8-1.1,5.7-1.7c0.5-0.1,0.7-0.6,0.6-1.1C52.5,354,52,353.7,51.6,353.8z M63,350.5c-1.9,0.5-3.8,1.1-5.7,1.6
		c-0.5,0.1-0.7,0.6-0.6,1.1c0.1,0.5,0.6,0.7,1.1,0.6c1.9-0.5,3.8-1.1,5.7-1.6c0.5-0.1,0.7-0.6,0.6-1.1C64,350.7,63.5,350.4,63,350.5
		z M74.6,347.4c-1.9,0.5-3.9,1-5.8,1.5c-0.5,0.1-0.7,0.6-0.6,1c0.1,0.5,0.6,0.7,1,0.6c1.9-0.5,3.8-1,5.8-1.5c0.5-0.1,0.7-0.6,0.6-1
		C75.5,347.6,75,347.3,74.6,347.4z M86.2,344.7c-1.9,0.4-3.9,0.9-5.8,1.3c-0.5,0.1-0.7,0.6-0.6,1c0.1,0.5,0.6,0.7,1,0.6
		c1.9-0.5,3.9-0.9,5.8-1.3c0.5-0.1,0.8-0.6,0.7-1C87.1,344.9,86.7,344.6,86.2,344.7z M98,342.4c-1.9,0.3-3.9,0.7-5.9,1.1
		c-0.5,0.1-0.8,0.5-0.7,1c0.1,0.5,0.5,0.8,1,0.7c2-0.4,3.9-0.7,5.8-1.1c0.5-0.1,0.8-0.5,0.7-1C98.9,342.6,98.4,342.3,98,342.4z
		 M109.8,340.8c-2,0.2-3.9,0.4-6,0.7c-0.5,0.1-0.8,0.5-0.7,1c0.1,0.5,0.5,0.8,1,0.7c2-0.3,4-0.5,5.9-0.7c0.5,0,0.8-0.5,0.8-0.9
		C110.7,341.1,110.3,340.8,109.8,340.8z M121.8,340.3c-0.6,0-1.2,0-1.7,0c-1.4,0-2.8,0-4.3,0.1c-0.5,0-0.8,0.4-0.8,0.9
		c0,0.5,0.4,0.8,0.9,0.8c1.4-0.1,2.8-0.1,4.2-0.1c0.6,0,1.1,0,1.7,0c0.5,0,0.9-0.4,0.9-0.8C122.7,340.7,122.3,340.4,121.8,340.3z
		 M133.8,341.2c-2-0.3-4-0.5-6-0.6c-0.5,0-0.9,0.3-0.9,0.8c0,0.5,0.3,0.9,0.8,0.9c1.9,0.1,3.9,0.3,5.9,0.6c0.5,0.1,0.9-0.3,1-0.7
		C134.6,341.7,134.3,341.3,133.8,341.2z M145.7,343.2c-2-0.4-3.9-0.8-5.9-1.1c-0.5-0.1-0.9,0.2-1,0.7c-0.1,0.5,0.2,0.9,0.7,1
		c1.9,0.3,3.9,0.7,5.8,1.1c0.5,0.1,0.9-0.2,1-0.7C146.4,343.7,146.1,343.3,145.7,343.2z M157.3,345.9c-1.9-0.5-3.9-1-5.8-1.4
		c-0.5-0.1-0.9,0.2-1,0.6c-0.1,0.5,0.2,0.9,0.6,1c1.9,0.5,3.9,0.9,5.8,1.4c0.5,0.1,0.9-0.2,1-0.6C158,346.5,157.8,346.1,157.3,345.9
		z M168.8,349.2c-1.9-0.6-3.8-1.1-5.7-1.7c-0.5-0.1-0.9,0.1-1.1,0.6c-0.1,0.5,0.1,0.9,0.6,1.1c1.9,0.5,3.8,1.1,5.7,1.7
		c0.5,0.1,0.9-0.1,1.1-0.6C169.5,349.8,169.3,349.4,168.8,349.2z M180.2,352.9c-1.9-0.6-3.8-1.2-5.7-1.9c-0.4-0.1-0.9,0.1-1.1,0.5
		c-0.1,0.5,0.1,0.9,0.5,1.1c1.9,0.6,3.8,1.2,5.7,1.9c0.4,0.1,0.9-0.1,1.1-0.5C180.9,353.5,180.6,353,180.2,352.9z M191.5,356.8
		c-1.8-0.6-3.7-1.3-5.6-2c-0.4-0.2-0.9,0.1-1.1,0.5c-0.2,0.4,0.1,0.9,0.5,1.1c1.9,0.7,3.8,1.3,5.6,1.9c0.4,0.2,0.9-0.1,1.1-0.5
		C192.2,357.4,191.9,356.9,191.5,356.8z M202.8,360.6c-1.9-0.6-3.7-1.3-5.6-1.9c-0.4-0.2-0.9,0.1-1.1,0.5c-0.2,0.4,0.1,0.9,0.5,1.1
		c1.9,0.7,3.8,1.3,5.6,1.9c0.4,0.2,0.9-0.1,1.1-0.5C203.5,361.3,203.2,360.8,202.8,360.6z M214.1,364.3c-1.8-0.5-3.7-1.1-5.7-1.8
		c-0.4-0.1-0.9,0.1-1.1,0.5c-0.1,0.4,0.1,0.9,0.5,1.1c2,0.6,3.9,1.2,5.7,1.8c0.5,0.1,0.9-0.1,1.1-0.6
		C214.8,364.9,214.5,364.4,214.1,364.3z M225.6,366.9c-1.6-0.2-3.6-0.5-5.8-1c-0.5-0.1-0.9,0.2-1,0.6c-0.1,0.5,0.2,0.9,0.6,1
		c2.2,0.5,4.3,0.9,6,1.1c0.5,0,0.9-0.3,0.9-0.8C226.4,367.3,226,366.9,225.6,366.9z M228.3,357.3c-0.3,2.1-0.7,4.1-1.1,5.8
		c-0.1,0.5,0.2,0.9,0.6,1c0.5,0.1,0.9-0.2,1-0.6c0.4-1.8,0.8-3.8,1.1-5.9c0.1-0.5-0.2-0.9-0.7-1
		C228.8,356.5,228.4,356.8,228.3,357.3z M229.8,345.5c-0.2,2-0.4,4-0.7,5.9c-0.1,0.5,0.3,0.9,0.7,1c0.5,0.1,0.9-0.3,1-0.7
		c0.2-1.9,0.5-3.9,0.7-6c0-0.5-0.3-0.9-0.8-0.9C230.3,344.7,229.9,345,229.8,345.5z M230.8,333.6c-0.1,1.9-0.3,3.9-0.4,5.9
		c0,0.5,0.3,0.9,0.8,0.9c0.5,0,0.9-0.3,0.9-0.8c0.2-2,0.3-4,0.4-6c0-0.5-0.3-0.9-0.8-0.9C231.2,332.8,230.8,333.1,230.8,333.6z
		 M231.4,321.7c-0.1,1.8-0.1,3.8-0.3,6c0,0.5,0.3,0.9,0.8,0.9c0.5,0,0.9-0.3,0.9-0.8c0.1-2.1,0.2-4.1,0.3-6c0-0.5-0.4-0.9-0.8-0.9
		C231.8,320.9,231.4,321.2,231.4,321.7z"/>
	<path id="XMLID_11819_" class="st0" d="M-19.6,319.2c-7.2-6.8,9.4-105.6,32.4-128.6c23-23,66.4-30.7,99.7-30.7
		c33.2,0,76.7,7.7,99.7,30.7c23,23,40.9,121,32.4,128.6c-8.5,7.7-70.7-21.3-132.1-21.3C51.1,297.9-12.4,326.1-19.6,319.2z"/>
	<path id="XMLID_11817_" class="st1" d="M242.3,318c-16.3-5-77.3-22.7-129.9-22.7C59.9,295.3-1.1,313-17.4,318
		c-0.7,0.2-1.1,0.9-0.8,1.6c0.2,0.7,0.9,1.1,1.6,0.8c16.2-5,77.1-22.6,129.1-22.6c52,0,112.9,17.6,129.1,22.6
		c0.7,0.2,1.4-0.2,1.6-0.8C243.3,318.9,243,318.2,242.3,318z"/>
	<ellipse id="XMLID_11815_" class="st1" cx="112.4" cy="159.5" rx="8.9" ry="4.3"/>
	<path id="XMLID_11813_" class="st2" d="M3.9,309.9c0.1-0.6,0.2-1.6,0.4-2.9c0.1-0.5-0.3-0.9-0.7-1c-0.5-0.1-0.9,0.3-1,0.7
		c-0.2,1.3-0.3,2.3-0.4,3c-0.1,0.5,0.3,0.9,0.7,0.9C3.4,310.7,3.8,310.4,3.9,309.9z"/>
	<path id="XMLID_11780_" class="st1" d="M84.2,168.5c1.9-0.9,3.7-1.8,5.3-2.5c0.4-0.2,0.6-0.7,0.4-1.1c-0.2-0.4-0.7-0.6-1.1-0.4
		c-1.6,0.7-3.4,1.6-5.3,2.6c-0.4,0.2-0.6,0.7-0.4,1.1C83.2,168.5,83.8,168.7,84.2,168.5z M73.7,173.9c1.8-1,3.5-1.9,5.2-2.7
		c0.4-0.2,0.6-0.7,0.4-1.1c-0.2-0.4-0.7-0.6-1.1-0.4c-1.7,0.9-3.4,1.8-5.2,2.8c-0.4,0.2-0.6,0.7-0.3,1.2
		C72.8,174,73.3,174.1,73.7,173.9z M63.5,179.7c1.7-1,3.4-2,5.1-3c0.4-0.2,0.6-0.8,0.3-1.2c-0.2-0.4-0.8-0.6-1.2-0.3
		c-1.7,1-3.4,2-5.1,3c-0.4,0.2-0.5,0.8-0.3,1.2C62.6,179.8,63.1,179.9,63.5,179.7z M53.6,186c1.6-1.1,3.3-2.2,4.9-3.2
		c0.4-0.3,0.5-0.8,0.3-1.2c-0.3-0.4-0.8-0.5-1.2-0.3c-1.7,1.1-3.3,2.2-5,3.3c-0.4,0.3-0.5,0.8-0.2,1.2
		C52.6,186.2,53.2,186.3,53.6,186z M44.2,193c1.5-1.2,3-2.4,4.6-3.6c0.4-0.3,0.5-0.8,0.2-1.2c-0.3-0.4-0.8-0.5-1.2-0.2
		c-1.6,1.2-3.2,2.4-4.7,3.6c-0.4,0.3-0.4,0.8-0.1,1.2C43.3,193.2,43.8,193.3,44.2,193z M35.6,201c1.3-1.4,2.6-2.8,4.1-4.1
		c0.3-0.3,0.4-0.9,0-1.2c-0.3-0.3-0.9-0.4-1.2,0c-1.5,1.4-2.9,2.8-4.2,4.2c-0.3,0.3-0.3,0.9,0.1,1.2C34.8,201.3,35.3,201.3,35.6,201
		z M29,210.4c0.8-1.5,1.6-2.8,2.4-4c0.2-0.3,0.4-0.6,0.6-0.9c0.3-0.4,0.2-0.9-0.2-1.2c-0.4-0.3-0.9-0.2-1.2,0.2
		c-0.2,0.3-0.5,0.7-0.7,1c-0.8,1.3-1.7,2.6-2.5,4.1c-0.2,0.4-0.1,0.9,0.4,1.2C28.2,211,28.8,210.8,29,210.4z M24.2,221.1
		c0.7-1.9,1.5-3.7,2.2-5.4c0.2-0.4,0-0.9-0.4-1.1c-0.4-0.2-0.9,0-1.1,0.4c-0.8,1.7-1.5,3.6-2.3,5.5c-0.2,0.4,0.1,0.9,0.5,1.1
		C23.6,221.7,24.1,221.5,24.2,221.1z M20.4,232.2c0.6-1.9,1.2-3.8,1.8-5.6c0.2-0.4-0.1-0.9-0.5-1.1c-0.4-0.2-0.9,0.1-1.1,0.5
		c-0.6,1.8-1.2,3.7-1.8,5.6c-0.1,0.4,0.1,0.9,0.6,1.1C19.8,232.9,20.3,232.6,20.4,232.2z M17.2,243.5c0.5-1.9,1-3.8,1.6-5.7
		c0.1-0.5-0.1-0.9-0.6-1.1c-0.5-0.1-0.9,0.1-1.1,0.6c-0.5,1.9-1.1,3.8-1.6,5.7c-0.1,0.5,0.1,0.9,0.6,1C16.6,244.2,17,244,17.2,243.5
		z M14.3,254.9c0.5-1.9,0.9-3.8,1.4-5.7c0.1-0.5-0.2-0.9-0.6-1c-0.5-0.1-0.9,0.2-1,0.6c-0.5,1.9-1,3.8-1.4,5.7
		c-0.1,0.5,0.2,0.9,0.6,1C13.7,255.7,14.2,255.4,14.3,254.9z M11.7,266.4c0.4-1.9,0.8-3.8,1.3-5.8c0.1-0.5-0.2-0.9-0.6-1
		c-0.5-0.1-0.9,0.2-1,0.6c-0.4,1.9-0.9,3.9-1.3,5.8c-0.1,0.5,0.2,0.9,0.7,1C11.1,267.2,11.6,266.9,11.7,266.4z M9.3,278
		c0.4-1.9,0.8-3.8,1.2-5.8c0.1-0.5-0.2-0.9-0.7-1c-0.5-0.1-0.9,0.2-1,0.7c-0.4,2-0.8,3.9-1.2,5.8c-0.1,0.5,0.2,0.9,0.7,1
		C8.8,278.7,9.2,278.4,9.3,278z M7.1,289.6c0.3-1.9,0.7-3.8,1.1-5.8c0.1-0.5-0.2-0.9-0.7-1c-0.5-0.1-0.9,0.2-1,0.7
		c-0.4,2-0.7,4-1.1,5.8c-0.1,0.5,0.2,0.9,0.7,1C6.6,290.3,7.1,290,7.1,289.6z M5.2,301.2c0.3-1.7,0.6-3.7,1-5.8
		c0.1-0.5-0.2-0.9-0.7-1c-0.5-0.1-0.9,0.2-1,0.7c-0.4,2.1-0.7,4.1-1,5.8c-0.1,0.5,0.2,0.9,0.7,1C4.7,302,5.1,301.7,5.2,301.2z"/>
	<path id="XMLID_11778_" class="st1" d="M94.7,163.6c0.9-0.4,1.5-0.7,2-0.9c0.5-0.2,0.7-0.3,0.7-0.3c0.4-0.2,0.6-0.7,0.5-1.1
		c-0.2-0.4-0.7-0.6-1.1-0.5c0,0-1,0.4-2.7,1.2c-0.4,0.2-0.6,0.7-0.4,1.1C93.8,163.6,94.3,163.8,94.7,163.6z"/>
	<path id="XMLID_11776_" class="st2" d="M225.7,309.7c-0.1-0.7-0.2-1.7-0.4-3c-0.1-0.5-0.5-0.8-1-0.7c-0.5,0.1-0.8,0.5-0.7,1
		c0.2,1.3,0.3,2.3,0.4,2.9c0.1,0.5,0.5,0.8,0.9,0.7C225.5,310.6,225.8,310.2,225.7,309.7z"/>
	<path id="XMLID_11743_" class="st1" d="M144.5,167c-1.9-1-3.7-1.8-5.3-2.6c-0.4-0.2-0.9,0-1.1,0.4c-0.2,0.4,0,0.9,0.4,1.1
		c1.6,0.7,3.4,1.6,5.3,2.5c0.4,0.2,0.9,0,1.1-0.4C145.1,167.7,144.9,167.2,144.5,167z M155,172.4c-1.8-1-3.6-1.9-5.2-2.8
		c-0.4-0.2-0.9,0-1.1,0.4c-0.2,0.4,0,0.9,0.4,1.1c1.7,0.9,3.4,1.8,5.2,2.7c0.4,0.2,0.9,0.1,1.2-0.3
		C155.6,173.1,155.5,172.6,155,172.4z M165.3,178.2c-1.7-1-3.4-2-5.1-3c-0.4-0.2-0.9-0.1-1.2,0.3c-0.2,0.4-0.1,0.9,0.3,1.2
		c1.7,1,3.4,1.9,5.1,3c0.4,0.2,0.9,0.1,1.2-0.3C165.9,179,165.7,178.5,165.3,178.2z M175.3,184.6c-1.6-1.1-3.3-2.2-5-3.3
		c-0.4-0.3-0.9-0.1-1.2,0.3c-0.3,0.4-0.1,0.9,0.3,1.2c1.6,1.1,3.3,2.1,4.9,3.2c0.4,0.3,0.9,0.2,1.2-0.2
		C175.8,185.4,175.7,184.9,175.3,184.6z M184.9,191.7c-1.5-1.2-3.1-2.5-4.7-3.6c-0.4-0.3-0.9-0.2-1.2,0.2c-0.3,0.4-0.2,0.9,0.2,1.2
		c1.6,1.2,3.1,2.4,4.6,3.6c0.4,0.3,0.9,0.2,1.2-0.1C185.3,192.5,185.2,192,184.9,191.7z M193.6,199.8c-1.3-1.4-2.7-2.8-4.2-4.2
		c-0.3-0.3-0.9-0.3-1.2,0c-0.3,0.3-0.3,0.9,0,1.2c1.5,1.4,2.8,2.7,4.1,4.1c0.3,0.3,0.9,0.4,1.2,0.1
		C193.8,200.7,193.9,200.2,193.6,199.8z M200.5,209.6c-0.8-1.5-1.6-2.9-2.5-4.1c-0.2-0.3-0.4-0.7-0.7-1c-0.3-0.4-0.8-0.5-1.2-0.2
		c-0.4,0.3-0.5,0.8-0.2,1.2c0.2,0.3,0.4,0.6,0.6,0.9c0.8,1.2,1.6,2.5,2.4,4c0.2,0.4,0.7,0.6,1.2,0.4
		C200.5,210.5,200.7,210,200.5,209.6z M205.3,220.5c-0.7-1.9-1.5-3.8-2.3-5.5c-0.2-0.4-0.7-0.6-1.1-0.4c-0.4,0.2-0.6,0.7-0.4,1.1
		c0.8,1.7,1.5,3.5,2.2,5.4c0.2,0.4,0.7,0.7,1.1,0.5C205.3,221.4,205.5,220.9,205.3,220.5z M209.2,231.7c-0.6-1.9-1.2-3.8-1.8-5.6
		c-0.2-0.4-0.6-0.7-1.1-0.5c-0.4,0.2-0.7,0.6-0.5,1.1c0.6,1.8,1.2,3.7,1.8,5.6c0.1,0.4,0.6,0.7,1.1,0.6
		C209,232.6,209.3,232.1,209.2,231.7z M212.4,243.1c-0.5-1.9-1-3.8-1.6-5.7c-0.1-0.5-0.6-0.7-1.1-0.6c-0.5,0.1-0.7,0.6-0.6,1.1
		c0.5,1.9,1.1,3.8,1.6,5.7c0.1,0.5,0.6,0.7,1,0.6C212.3,244,212.6,243.5,212.4,243.1z M215.3,254.5c-0.5-1.9-0.9-3.8-1.4-5.7
		c-0.1-0.5-0.6-0.7-1-0.6c-0.5,0.1-0.7,0.6-0.6,1c0.5,1.9,0.9,3.8,1.4,5.7c0.1,0.5,0.6,0.7,1,0.6C215.2,255.5,215.4,255,215.3,254.5
		L215.3,254.5z M217.9,266.1c-0.4-1.9-0.8-3.8-1.3-5.8c-0.1-0.5-0.6-0.7-1-0.6c-0.5,0.1-0.7,0.6-0.6,1c0.4,1.9,0.9,3.8,1.3,5.8
		c0.1,0.5,0.5,0.8,1,0.7C217.7,267,218,266.5,217.9,266.1z M220.3,277.6c-0.4-1.9-0.8-3.8-1.2-5.8c-0.1-0.5-0.5-0.8-1-0.7
		c-0.5,0.1-0.8,0.5-0.7,1c0.4,2,0.8,3.9,1.2,5.8c0.1,0.5,0.5,0.8,1,0.7C220.1,278.6,220.4,278.1,220.3,277.6z M222.5,289.3
		c-0.3-1.9-0.7-3.8-1.1-5.8c-0.1-0.5-0.5-0.8-1-0.7c-0.5,0.1-0.8,0.5-0.7,1c0.4,2,0.7,3.9,1.1,5.8c0.1,0.5,0.5,0.8,1,0.7
		C222.3,290.2,222.6,289.7,222.5,289.3z M224.5,300.9c-0.3-1.8-0.6-3.7-1-5.8c-0.1-0.5-0.5-0.8-1-0.7c-0.5,0.1-0.8,0.5-0.7,1
		c0.4,2.1,0.7,4.1,1,5.8c0.1,0.5,0.5,0.8,1,0.7C224.2,301.8,224.5,301.4,224.5,300.9z"/>
	<path id="XMLID_11740_" class="st1" d="M133.9,162c-1.8-0.8-2.7-1.2-2.7-1.2c-0.4-0.2-0.9,0-1.1,0.5c-0.2,0.4,0,0.9,0.5,1.1
		c0,0,0.2,0.1,0.7,0.3c0.5,0.2,1.1,0.5,2,0.9c0.4,0.2,0.9,0,1.1-0.4C134.5,162.7,134.4,162.2,133.9,162z"/>
</g>
<image style="overflow:visible;" width="559" height="468" id="XMLID_10323_" xlink:href="20190612_210504_809_1x.png"  transform="matrix(0.2392 1.752829e-004 -1.752829e-004 0.2392 43.9468 184.1958)">
</image>
</svg>
