<?xml version="1.0" encoding="utf-8"?>
<!-- Generator: Adobe Illustrator 19.0.0, SVG Export Plug-In . SVG Version: 6.00 Build 0)  -->
<svg version="1.1" id="Layer_1" xmlns="http://www.w3.org/2000/svg" xmlns:xlink="http://www.w3.org/1999/xlink" x="0px" y="0px"
	 viewBox="-398 231.7 162.8 99.3" enable-background="new -398 231.7 162.8 99.3" xml:space="preserve">
<g id="XMLID_2175_">
	<path id="XMLID_2274_" fill="#EF7B05" d="M-302.4,281.4c0,5-5.6,9.1-12.5,9.1l0,0c-6.9,0-12.6-4.1-12.6-9.1V274
		c0-5,5.6-9.1,12.6-9.1l0,0c6.9,0,12.5,4.1,12.5,9.1V281.4z"/>
	<g id="XMLID_2177_">
		<path id="XMLID_2273_" fill="#EF7B05" d="M-322,269.7c0,0-28.9-23.4-56.2-16.1c0,0-8.7,28,3.8,56c0,0,28.6,4.6,52.4-20.6V269.7z"
			/>
		<path id="XMLID_2272_" fill="#EF7B05" d="M-307.9,269.7c0,0,28.9-23.4,56.2-16.1c0,0,8.7,28-3.8,56c0,0-28.6,4.6-52.4-20.6V269.7z
			"/>
	</g>
</g>
</svg>
