<?xml version="1.0" encoding="utf-8"?>
<!-- Generator: Adobe Illustrator 19.0.0, SVG Export Plug-In . SVG Version: 6.00 Build 0)  -->
<svg version="1.1" id="Layer_1" xmlns="http://www.w3.org/2000/svg" xmlns:xlink="http://www.w3.org/1999/xlink" x="0px" y="0px"
	 viewBox="0 0 244.6 184.5" style="enable-background:new 0 0 244.6 184.5;" xml:space="preserve">
<style type="text/css">
	.st0{fill:#A00202;}
	.st1{fill:#D10702;}
	.st2{fill:#EA1303;}
	.st3{fill:#FF2D17;}
</style>
<g id="XMLID_15107_">
	<path id="XMLID_15116_" class="st0" d="M119.2,80.4c-7.9,10-82.5,21.7-83.4,2.2C34.7,58.4,106.6,62.5,119.2,80.4z"/>
	<path id="XMLID_15115_" class="st1" d="M115.8,76.3C94.7,79.6,61.1,98.9,35.5,138l33.7-6.8l14.1,33c8.8-43.6,23.6-69.8,31.4-77.4
		L115.8,76.3z"/>
	<path id="XMLID_15114_" class="st2" d="M120.5,74.6c-12.8-24.6-35.8-39.2-63.3-49.1c-12.2,13.1-22.8,32-21.4,57.2
		c11.1-11.4,49.7-11.5,81.5-2.2L120.5,74.6z"/>
	<path id="XMLID_15113_" class="st3" d="M99.9,58.1C90.6,48,78.1,40.8,63.5,35.4c-2.2-0.8-4.7,0-6.2,1.9
		c-4.9,6.4-8.2,14.3-10.2,23.5c-0.9,4.2,2.5,8,6.4,7.1c13.4-3.1,27.1-2.8,41.2,0.2C100,69.2,103.7,62.3,99.9,58.1z"/>
	<path id="XMLID_15112_" class="st0" d="M121.7,80.4c7.9,10,82.5,21.7,83.4,2.2C206.3,58.4,134.4,62.5,121.7,80.4z"/>
	<path id="XMLID_15111_" class="st1" d="M125.2,76.3c21.1,3.3,54.7,22.6,80.3,61.7l-33.7-6.8l-14.1,33
		c-8.8-43.6-23.6-69.8-31.4-77.4L125.2,76.3z"/>
	<path id="XMLID_15110_" class="st2" d="M120.5,74.6c12.8-24.6,35.8-39.2,63.3-49.1c12.2,13.1,22.8,32,21.4,57.2
		c-11.1-11.4-49.7-11.5-81.5-2.2L120.5,74.6z"/>
	<path id="XMLID_15109_" class="st3" d="M141.1,58.1c9.2-10.1,21.8-17.3,36.4-22.7c2.2-0.8,4.7,0,6.2,1.9
		c4.9,6.4,8.2,14.3,10.2,23.5c0.9,4.2-2.5,8-6.4,7.1c-13.4-3.1-27.1-2.8-41.2,0.2C141,69.2,137.3,62.3,141.1,58.1z"/>
	<path id="XMLID_15108_" class="st3" d="M123,88.3c1-0.2,1.9-0.5,2.7-1.1c2-1.8,2.2-5.4,2.2-8.5c0-2.1,0-4.3-0.5-6.3
		c-0.4-2.1-1.3-4-2.7-5.2c-1.5-1.2-3.3-1.4-5-1.4c-1.4,0-3,0.2-4,1.5c-1,1.3-1.3,3.8-1.7,5.5c-0.6,3.3-1.5,11.1,0.2,13.3
		C115.9,88.3,120.8,88.6,123,88.3z"/>
</g>
</svg>
