<?xml version="1.0" encoding="utf-8"?>
<!-- Generator: Adobe Illustrator 19.0.0, SVG Export Plug-In . SVG Version: 6.00 Build 0)  -->
<svg version="1.1" id="Layer_1" xmlns="http://www.w3.org/2000/svg" xmlns:xlink="http://www.w3.org/1999/xlink" x="0px" y="0px"
	 viewBox="0 0 162.8 99.3" style="enable-background:new 0 0 162.8 99.3;" xml:space="preserve">
<style type="text/css">
	.st0{fill-rule:evenodd;clip-rule:evenodd;fill:#EF7B05;}
</style>
<g id="XMLID_2175_">
	<path id="XMLID_2274_" class="st0" d="M95.6,49.7c0,5-5.6,9.1-12.5,9.1l0,0c-6.9,0-12.6-4.1-12.6-9.1v-7.4c0-5,5.6-9.1,12.6-9.1
		l0,0c6.9,0,12.5,4.1,12.5,9.1V49.7z"/>
	<g id="XMLID_2177_">
		<path id="XMLID_2273_" class="st0" d="M76,38c0,0-28.9-23.4-56.2-16.1c0,0-8.7,28,3.8,56c0,0,28.6,4.6,52.4-20.6V38z"/>
		<path id="XMLID_2272_" class="st0" d="M90.1,38c0,0,28.9-23.4,56.2-16.1c0,0,8.7,28-3.8,56c0,0-28.6,4.6-52.4-20.6V38z"/>
	</g>
</g>
</svg>
