<?xml version="1.0" encoding="utf-8"?>
<!-- Generator: Adobe Illustrator 19.0.0, SVG Export Plug-In . SVG Version: 6.00 Build 0)  -->
<svg version="1.1" id="Layer_1" xmlns="http://www.w3.org/2000/svg" xmlns:xlink="http://www.w3.org/1999/xlink" x="0px" y="0px"
	 viewBox="0 0 244.6 184.5" style="enable-background:new 0 0 244.6 184.5;" xml:space="preserve">
<style type="text/css">
	.st0{fill:#353535;}
	.st1{opacity:0.5;fill:#353535;}
</style>
<g id="XMLID_14914_">
	<g id="XMLID_15177_">
		<path id="XMLID_15179_" class="st0" d="M188.9,56.4c4.6-0.4,9.5-0.3,13.3,2c5.4,3.3,6.7,9.8,7.3,15.7c1.4,14.3,1.3,28.6-0.3,42.9
			c-0.4,4-1.2,8.4-4.3,11.3c-3.3,3.1-8.5,3.9-13.3,4.2c-22.2,1.3-44.8-4.8-62.4-16.9c-4.5-3.1-8.8-6.8-10.4-11.6
			c-1.8-5.4,13.5-21,17.4-24.7c8.8-8.2,19.7-14.6,31.6-18.6C174.6,58.4,181.7,56.9,188.9,56.4z"/>
		<path id="XMLID_15178_" class="st0" d="M50.9,56.4c-4.6-0.4-9.5-0.3-13.3,2c-5.4,3.3-6.7,9.8-7.3,15.7
			c-1.4,14.3-1.3,28.6,0.3,42.9c0.4,4,1.2,8.4,4.3,11.3c3.3,3.1,8.5,3.9,13.3,4.2c22.2,1.3,44.8-4.8,62.4-16.9
			c4.5-3.1,8.8-6.8,10.4-11.6c1.8-5.4-13.5-21-17.4-24.7C94.8,71.1,83.9,64.7,72,60.7C65.2,58.4,58.1,56.9,50.9,56.4z"/>
	</g>
	<g id="XMLID_14918_">
		<circle id="XMLID_15176_" cx="108.6" cy="94" r="2.4"/>
		<circle id="XMLID_15175_" cx="60.6" cy="65.1" r="2.4"/>
		<circle id="XMLID_15174_" cx="60.6" cy="122.9" r="2.4"/>
		<circle id="XMLID_15173_" cx="60.6" cy="84.4" r="2.4"/>
		<circle id="XMLID_15172_" cx="60.6" cy="103.6" r="2.4"/>
		<circle id="XMLID_15171_" cx="79.8" cy="84.4" r="2.4"/>
		<circle id="XMLID_15170_" cx="70.2" cy="94" r="2.4"/>
		<circle id="XMLID_15169_" cx="70.2" cy="113.2" r="2.4"/>
		<circle id="XMLID_15168_" cx="51" cy="74.7" r="2.4"/>
		<path id="XMLID_15167_" d="M70.2,130.1c-1,0-1.9,0.7-2.3,1.6c1.4-0.2,2.8-0.4,4.2-0.6C71.7,130.5,71,130.1,70.2,130.1z"/>
		<path id="XMLID_15166_" d="M99,120.5c-1.3,0-2.4,1.1-2.4,2.4c0,0.2,0,0.4,0.1,0.6c1.4-0.7,2.8-1.3,4.2-2.1
			C100.4,120.8,99.8,120.5,99,120.5z"/>
		<circle id="XMLID_15165_" cx="79.8" cy="122.9" r="2.4"/>
		<path id="XMLID_15164_" d="M53.4,132.6C53.4,132.6,53.4,132.5,53.4,132.6c0-1.4-1.1-2.5-2.4-2.5c-1.3,0-2.4,1.1-2.4,2.4
			C50.2,132.5,51.8,132.6,53.4,132.6z"/>
		<circle id="XMLID_15163_" cx="51" cy="94" r="2.4"/>
		<path id="XMLID_15162_" d="M48.7,56.2c0.3,1,1.2,1.7,2.3,1.7c0.9,0,1.7-0.5,2.1-1.3c-0.7-0.1-1.5-0.2-2.2-0.2
			C50.2,56.3,49.4,56.3,48.7,56.2z"/>
		<circle id="XMLID_15161_" cx="51" cy="113.2" r="2.4"/>
		<circle id="XMLID_15160_" cx="70.2" cy="74.7" r="2.4"/>
		<circle id="XMLID_15159_" cx="195" cy="103.6" r="2.4"/>
		<circle id="XMLID_15158_" cx="204.6" cy="74.7" r="2.4"/>
		<circle id="XMLID_15157_" cx="195" cy="122.9" r="2.4"/>
		<circle id="XMLID_15156_" cx="195" cy="65.1" r="2.4"/>
		<circle id="XMLID_15155_" cx="204.6" cy="94" r="2.4"/>
		<circle id="XMLID_15154_" cx="195" cy="84.4" r="2.4"/>
		<circle id="XMLID_15153_" cx="204.6" cy="113.2" r="2.4"/>
		<circle id="XMLID_15152_" cx="99" cy="103.6" r="2.4"/>
		<circle id="XMLID_15151_" cx="89.4" cy="74.7" r="2.4"/>
		<circle id="XMLID_15150_" cx="89.4" cy="113.2" r="2.4"/>
		<path id="XMLID_15149_" d="M77.4,65.1c0,1.3,1.1,2.4,2.4,2.4c1.3,0,2.4-1.1,2.4-2.4c0-0.1,0-0.2,0-0.3c-1.2-0.6-2.5-1.2-3.8-1.7
			C77.8,63.6,77.4,64.3,77.4,65.1z"/>
		<circle id="XMLID_15148_" cx="89.4" cy="94" r="2.4"/>
		<circle id="XMLID_15147_" cx="99" cy="84.4" r="2.4"/>
		<circle id="XMLID_15146_" cx="79.8" cy="103.6" r="2.4"/>
		<path id="XMLID_15145_" d="M185.4,130.1c-1.3,0-2.4,1.1-2.4,2.4c0,0,0,0,0,0.1c1.6,0,3.2,0,4.8,0c0,0,0-0.1,0-0.1
			C187.8,131.2,186.8,130.1,185.4,130.1z"/>
		<circle id="XMLID_15144_" cx="41.4" cy="122.9" r="2.4"/>
		<circle id="XMLID_15143_" cx="147" cy="113.2" r="2.4"/>
		<circle id="XMLID_15142_" cx="137.4" cy="84.4" r="2.4"/>
		<circle id="XMLID_15141_" cx="156.6" cy="103.6" r="2.4"/>
		<circle id="XMLID_15140_" cx="137.4" cy="103.6" r="2.4"/>
		<circle id="XMLID_15139_" cx="147" cy="94" r="2.4"/>
		<path id="XMLID_15138_" d="M137.4,120.5c0,0-0.1,0-0.1,0c0.7,0.4,1.4,0.8,2.2,1.2C139.1,120.9,138.3,120.5,137.4,120.5z"/>
		<circle id="XMLID_15137_" cx="156.6" cy="122.9" r="2.4"/>
		<circle id="XMLID_15136_" cx="156.6" cy="84.4" r="2.4"/>
		<circle id="XMLID_15135_" cx="147" cy="74.7" r="2.4"/>
		<path id="XMLID_15134_" d="M30.1,76.5c0.4,0.4,1,0.7,1.7,0.7c1.3,0,2.4-1.1,2.4-2.4s-1.1-2.4-2.4-2.4c-0.5,0-1,0.1-1.3,0.4
			c0,0.4-0.1,0.9-0.1,1.3C30.2,74.8,30.2,75.7,30.1,76.5z"/>
		<path id="XMLID_15133_" d="M31.8,96.4c1.3,0,2.4-1.1,2.4-2.4s-1.1-2.4-2.4-2.4c-1.3,0-2.3,1-2.4,2.3c0,0.1,0,0.2,0,0.3
			C29.4,95.4,30.5,96.4,31.8,96.4z"/>
		<path id="XMLID_15132_" d="M31.8,110.8c-0.7,0-1.3,0.3-1.7,0.7c0.1,1.2,0.2,2.5,0.4,3.7c0.4,0.3,0.8,0.4,1.3,0.4
			c1.3,0,2.4-1.1,2.4-2.4S33.1,110.8,31.8,110.8z"/>
		<circle id="XMLID_15131_" cx="108.6" cy="113.2" r="2.4"/>
		<circle id="XMLID_15130_" cx="41.4" cy="84.4" r="2.4"/>
		<path id="XMLID_15129_" d="M166.2,130.1c-0.5,0-0.9,0.1-1.3,0.4c1.1,0.2,2.2,0.4,3.3,0.6C167.7,130.5,167,130.1,166.2,130.1z"/>
		<circle id="XMLID_15128_" cx="41.4" cy="65.1" r="2.4"/>
		<circle id="XMLID_15127_" cx="41.4" cy="103.6" r="2.4"/>
		<path id="XMLID_15126_" d="M185.4,57.9c1,0,1.8-0.6,2.2-1.4c-1.4,0.1-2.7,0.3-4.1,0.5C184,57.5,184.7,57.9,185.4,57.9z"/>
		<circle id="XMLID_15125_" cx="185.4" cy="94" r="2.4"/>
		<circle id="XMLID_15124_" cx="185.4" cy="74.7" r="2.4"/>
		<circle id="XMLID_15123_" cx="185.4" cy="113.2" r="2.4"/>
		<circle id="XMLID_15122_" cx="118.2" cy="103.6" r="2.4"/>
		<circle id="XMLID_15121_" cx="127.8" cy="94" r="2.4"/>
		<path id="XMLID_15120_" d="M156.6,67.5c1.3,0,2.4-1.1,2.4-2.4c0-0.3-0.1-0.6-0.2-0.9c-1.5,0.7-2.9,1.4-4.3,2.1
			C155,67.1,155.7,67.5,156.6,67.5z"/>
		<path id="XMLID_15119_" d="M130.2,113.2c0-1.3-1.1-2.4-2.4-2.4c-1.1,0-2.1,0.8-2.4,1.9c1.1,0.9,2.3,1.8,3.5,2.7
			C129.7,114.9,130.2,114.2,130.2,113.2z"/>
		<circle id="XMLID_15118_" cx="166.2" cy="113.2" r="2.4"/>
		<circle id="XMLID_15117_" cx="166.2" cy="74.7" r="2.4"/>
		<circle id="XMLID_15015_" cx="166.2" cy="94" r="2.4"/>
		<circle id="XMLID_14993_" cx="175.8" cy="65.1" r="2.4"/>
		<circle id="XMLID_14921_" cx="175.8" cy="103.6" r="2.4"/>
		<circle id="XMLID_14920_" cx="175.8" cy="122.9" r="2.4"/>
		<circle id="XMLID_14919_" cx="175.8" cy="84.4" r="2.4"/>
	</g>
	<path id="XMLID_14917_" d="M123.5,115.6c1.4-0.2,2.8-0.5,3.9-1.3c2.9-2,3.2-6.2,3.2-9.8c0-2.4-0.1-4.9-0.7-7.3
		c-0.6-2.4-1.9-4.7-4-6c-2.1-1.4-4.8-1.6-7.3-1.6c-2.1,0-4.4,0.2-5.8,1.7c-1.4,1.5-1.9,4.3-2.4,6.3c-0.9,3.8-2.2,12.8,0.3,15.3
		C113.3,115.6,120.4,116,123.5,115.6z"/>
	<path id="XMLID_14916_" class="st1" d="M171.4,106.3c-0.5-0.2-4.4-1.7-10-2.9c-5.6-1.3-12.9-2.1-20-2.3c-6-0.1-11.9,0.1-16.7,0.6
		c4.9-1.8,11.5-3.9,18.3-5.9c3.4-1,6.8-2,10.1-2.9c3.2-0.9,6.2-1.7,8.8-2.2c5.2-1.1,9-1.6,9.5-1.7c2.2-0.4,4.3-2.1,3.6-6.2
		c-0.7-4.2-3.3-5-5.6-4.5c-0.6,0.1-4.5,1-10.1,2.7c-2.8,0.9-5.9,2.1-9.1,3.4c-3.2,1.3-6.5,2.8-9.8,4.3c-6.6,3-13,6.3-17.6,9.3
		c-3,2-5.1,3.8-6.1,4.9c-1.9,0.4-3,0.9-3,1.3c0,1.6,13.7,2.5,27,4.7c6.7,1.1,13.2,2.7,18.1,4.3c4.9,1.6,8.1,3.1,8.5,3.3
		c1.9,0.8,4.4,0.5,6.2-3.3C175.3,109.4,173.6,107.2,171.4,106.3z"/>
	<path id="XMLID_14915_" class="st1" d="M68.5,106.3c0.5-0.2,4.4-1.7,10-2.9c5.6-1.3,12.9-2.1,20-2.3c6-0.1,11.9,0.1,16.7,0.6
		c-4.9-1.8-11.5-3.9-18.3-5.9c-3.4-1-6.8-2-10.1-2.9c-3.2-0.9-6.2-1.7-8.8-2.2c-5.2-1.1-9-1.6-9.5-1.7c-2.2-0.4-4.3-2.1-3.6-6.2
		c0.7-4.2,3.3-5,5.6-4.5c0.6,0.1,4.5,1,10.1,2.7c2.8,0.9,5.9,2.1,9.1,3.4c3.2,1.3,6.5,2.8,9.8,4.3c6.6,3,13.1,6.3,17.6,9.3
		c3,2,5.1,3.8,6.1,4.9c1.9,0.4,3,0.9,3,1.3c0,1.6-13.7,2.5-27,4.7c-6.7,1.1-13.2,2.7-18.1,4.3c-4.9,1.6-8.1,3.1-8.5,3.3
		c-1.9,0.8-4.4,0.5-6.2-3.3C64.5,109.4,66.3,107.2,68.5,106.3z"/>
</g>
</svg>
