<?xml version="1.0" encoding="utf-8"?>
<!-- Generator: Adobe Illustrator 19.0.0, SVG Export Plug-In . SVG Version: 6.00 Build 0)  -->
<svg version="1.1" id="Layer_1" xmlns="http://www.w3.org/2000/svg" xmlns:xlink="http://www.w3.org/1999/xlink" x="0px" y="0px"
	 viewBox="0 0 374.3 328.4" style="enable-background:new 0 0 374.3 328.4;" xml:space="preserve">
<style type="text/css">
	.st0{fill:#EF7B05;}
</style>
<g id="XMLID_7951_">
	<g id="XMLID_8267_">
		<g id="XMLID_8578_">
			<path id="XMLID_8579_" class="st0" d="M39.8,121.7c0,0-1.1-4.7-1.2-4.8c0,0,0-4.7,0-4.7s1.1,4.6,1.1,4.6
				C39.7,116.9,39.8,121.7,39.8,121.7z"/>
		</g>
		<g id="XMLID_8576_">
			<path id="XMLID_8577_" class="st0" d="M42,111.7c0,0-1.5-3.9-1.5-3.9c0,0-0.4-3.9-0.4-3.9s1.4,3.8,1.5,3.8
				C41.6,107.7,42,111.7,42,111.7z"/>
		</g>
		<g id="XMLID_8574_">
			<path id="XMLID_8575_" class="st0" d="M49.5,115.5c0,0-1.5-4.6-1.5-4.6c0,0-0.4-4.6-0.4-4.6s1.5,4.4,1.5,4.5
				C49.1,110.8,49.5,115.5,49.5,115.5z"/>
		</g>
		<g id="XMLID_8572_">
			<path id="XMLID_8573_" class="st0" d="M40.1,103.3c0,0-2.2-4-2.3-4c0,0-1.1-4.1-1.1-4.1s2.2,3.8,2.2,3.9
				C39,99.1,40.1,103.3,40.1,103.3z"/>
		</g>
		<g id="XMLID_8570_">
			<path id="XMLID_8571_" class="st0" d="M46.9,104.7c0,0-0.7-0.9-1.4-1.9c-0.3-0.5-0.6-1-0.8-1.4c-0.2-0.4-0.4-0.6-0.4-0.6
				c0,0-0.2-1-0.5-2.1c-0.1-1-0.3-2.1-0.3-2.1s0.4,1,0.8,2c0.5,1,1,1.9,1,2c0,0,0.3,1,0.7,2.1C46.4,103.7,46.9,104.7,46.9,104.7z"/>
		</g>
		<g id="XMLID_8568_">
			<path id="XMLID_8569_" class="st0" d="M48.6,123.7c0,0-0.7-0.8-1.4-1.6c-0.3-0.4-0.6-0.8-0.9-1.1c-0.2-0.3-0.4-0.5-0.4-0.5
				c0,0-0.3-0.9-0.5-1.8c-0.2-0.9-0.3-1.8-0.3-1.8s0.4,0.8,0.9,1.7c0.5,0.8,1,1.6,1,1.6c0,0,0.4,0.9,0.7,1.8
				C48.2,122.8,48.6,123.7,48.6,123.7z"/>
		</g>
		<g id="XMLID_8566_">
			<path id="XMLID_8567_" class="st0" d="M54.8,118.2c0,0-1-3.5-1-3.5c0,0,0.1-3.5,0.1-3.5s1,3.4,1,3.4
				C54.9,114.6,54.8,118.2,54.8,118.2z"/>
		</g>
		<g id="XMLID_8564_">
			<path id="XMLID_8565_" class="st0" d="M51.4,125.8c0,0-1-3.9-1-3.9c0,0,0.1-3.9,0.1-3.9s1,3.8,1,3.8
				C51.5,121.8,51.4,125.8,51.4,125.8z"/>
		</g>
		<g id="XMLID_8562_">
			<path id="XMLID_8563_" class="st0" d="M44.2,136.6c0,0-1.9-4-1.9-4c0,0-0.8-4.1-0.8-4.1s1.9,3.9,1.9,3.9
				C43.4,132.4,44.2,136.6,44.2,136.6z"/>
		</g>
		<g id="XMLID_8560_">
			<path id="XMLID_8561_" class="st0" d="M50.2,135.2c0,0-2.4-3.8-2.4-3.8c0,0-1.3-4-1.3-4s2.3,3.7,2.4,3.7
				C48.8,131.2,50.2,135.2,50.2,135.2z"/>
		</g>
		<g id="XMLID_8558_">
			<path id="XMLID_8559_" class="st0" d="M53.9,134.7c0,0-2-2-2-2c0,0-0.9-2.3-0.9-2.3s1.9,1.9,1.9,2
				C52.9,132.4,53.9,134.7,53.9,134.7z"/>
		</g>
		<g id="XMLID_8556_">
			<path id="XMLID_8557_" class="st0" d="M43,129c0,0-1.3-2.5-1.4-2.5c0,0-0.3-2.6-0.3-2.6s1.3,2.4,1.3,2.4
				C42.7,126.4,43,129,43,129z"/>
		</g>
		<g id="XMLID_8554_">
			<path id="XMLID_8555_" class="st0" d="M58,127.7c0,0-1.4-2.9-1.4-2.9c0,0-0.3-3-0.3-3s1.4,2.8,1.4,2.9
				C57.6,124.6,58,127.7,58,127.7z"/>
		</g>
		<g id="XMLID_8552_">
			<path id="XMLID_8553_" class="st0" d="M62.4,123.4c0,0-2-3-2.1-3c0,0-1-3.2-1-3.2s2,2.9,2,2.9C61.4,120.1,62.4,123.4,62.4,123.4z
				"/>
		</g>
		<g id="XMLID_8550_">
			<path id="XMLID_8551_" class="st0" d="M69.1,128.5c0,0-1.3-3.7-1.3-3.8c0,0-0.2-3.8-0.2-3.8s1.3,3.6,1.3,3.7
				C68.8,124.6,69.1,128.5,69.1,128.5z"/>
		</g>
		<g id="XMLID_8548_">
			<path id="XMLID_8549_" class="st0" d="M63.2,136.1c0,0-0.7-0.6-1.3-1.3c-0.3-0.4-0.5-0.7-0.8-1c-0.2-0.3-0.4-0.5-0.3-0.5
				c0,0-0.1-0.8-0.3-1.6c0-0.8,0.1-1.6,0.1-1.6s0.2,0.8,0.5,1.5c0.4,0.7,0.8,1.4,0.8,1.4c0,0,0.1,0.2,0.2,0.5
				c0.1,0.3,0.2,0.7,0.4,1.1C62.8,135.3,63.2,136.1,63.2,136.1z"/>
		</g>
		<g id="XMLID_8546_">
			<path id="XMLID_8547_" class="st0" d="M69.9,136.6c0,0-1.8-2.2-1.8-2.2c0,0-0.8-2.4-0.8-2.4s1.8,2.1,1.8,2.1
				C69.1,134.1,69.9,136.6,69.9,136.6z"/>
		</g>
		<g id="XMLID_8544_">
			<path id="XMLID_8545_" class="st0" d="M74,135.8c0,0-1.1-3.8-1.1-3.8c0,0,0-3.8,0-3.8s1.1,3.6,1.1,3.7
				C74,131.9,74,135.8,74,135.8z"/>
		</g>
		<g id="XMLID_8542_">
			<path id="XMLID_8543_" class="st0" d="M62.1,145.5c0,0-1.5-3.5-1.5-3.5c0,0-0.4-3.5-0.4-3.5s1.5,3.4,1.5,3.4
				C61.7,141.9,62.1,145.5,62.1,145.5z"/>
		</g>
		<g id="XMLID_8540_">
			<path id="XMLID_8541_" class="st0" d="M55.2,148.2c0,0-0.5-1.1-0.9-2.2c-0.6-1.1-1.1-2.1-1.2-2.2c0,0-0.4-1.1-0.8-2.2
				c-0.5-1.1-1-2.1-1-2.1s0.7,1,1.5,2c0.7,1,1.3,2.1,1.3,2.1c0,0,0.1,0.3,0.2,0.7c0.1,0.4,0.3,1,0.4,1.6
				C54.9,147.1,55.2,148.2,55.2,148.2z"/>
		</g>
		<g id="XMLID_8538_">
			<path id="XMLID_8539_" class="st0" d="M49,147.4c0,0-2.2-4-2.2-4c0,0-1.1-4.1-1.1-4.1s2.1,3.9,2.2,3.9
				C47.9,143.2,49,147.4,49,147.4z"/>
		</g>
		<g id="XMLID_8536_">
			<path id="XMLID_8537_" class="st0" d="M70.7,148.2c0,0-1.8-4.1-1.8-4.2c0,0-0.7-4.2-0.7-4.2s1.8,4,1.8,4
				C69.9,143.9,70.7,148.2,70.7,148.2z"/>
		</g>
		<g id="XMLID_8534_">
			<path id="XMLID_8535_" class="st0" d="M77.2,147.1c0,0-0.9-4.5-0.9-4.5c0,0,0.2-4.4,0.2-4.4s0.9,4.3,0.9,4.4
				C77.4,142.6,77.2,147.1,77.2,147.1z"/>
		</g>
		<g id="XMLID_8532_">
			<path id="XMLID_8533_" class="st0" d="M64.8,154.4c0,0-0.7-2.7-0.7-2.7c0,0,0.4-2.7,0.4-2.7s0.7,2.6,0.7,2.6
				C65.2,151.7,64.8,154.4,64.8,154.4z"/>
		</g>
		<g id="XMLID_8530_">
			<path id="XMLID_8531_" class="st0" d="M58.2,156.9c0,0-1.7-3.6-1.7-3.6c0,0-0.5-3.7-0.5-3.7s1.6,3.5,1.6,3.5
				C57.6,153.1,58.2,156.9,58.2,156.9z"/>
		</g>
		<g id="XMLID_8528_">
			<path id="XMLID_8529_" class="st0" d="M64.4,161.2c0,0-2.4-3-2.4-3c0,0-1.3-3.2-1.3-3.2s2.3,2.9,2.3,2.9
				C63,157.9,64.4,161.2,64.4,161.2z"/>
		</g>
		<g id="XMLID_8526_">
			<path id="XMLID_8527_" class="st0" d="M71.8,157.1c0,0-0.5-0.7-1-1.4c-0.2-0.4-0.3-0.8-0.5-1c-0.1-0.3-0.2-0.5-0.2-0.5
				c0,0,0.1-0.8,0.2-1.6c0.2-0.7,0.4-1.5,0.4-1.5s0.1,0.7,0.1,1.5c0.2,0.7,0.4,1.4,0.4,1.5c0,0,0,0.2,0,0.5c0,0.3,0.1,0.7,0.1,1
				C71.6,156.4,71.8,157.1,71.8,157.1z"/>
		</g>
		<g id="XMLID_8524_">
			<path id="XMLID_8525_" class="st0" d="M77.1,154.2c0,0-1.6-2.9-1.6-2.9c0,0-0.5-3-0.5-3s1.6,2.8,1.6,2.8
				C76.5,151.1,77.1,154.2,77.1,154.2z"/>
		</g>
		<g id="XMLID_8522_">
			<path id="XMLID_8523_" class="st0" d="M82.5,154.7c0,0-1-4-1-4.1c0,0,0.1-4,0.1-4s1,3.9,1,4C82.6,150.6,82.5,154.7,82.5,154.7z"
				/>
		</g>
		<g id="XMLID_8520_">
			<path id="XMLID_8521_" class="st0" d="M76.4,166.9c0,0-0.1-0.8-0.1-1.7c-0.2-0.8-0.4-1.6-0.4-1.6c0,0,0-0.8,0-1.6
				c-0.1-0.8-0.2-1.6-0.2-1.6s0.4,0.8,0.8,1.5c0.3,0.8,0.6,1.6,0.6,1.6c0,0,0,0.2-0.1,0.5c0,0.3-0.1,0.7-0.1,1.2
				C76.6,166,76.4,166.9,76.4,166.9z"/>
		</g>
		<g id="XMLID_8518_">
			<path id="XMLID_8519_" class="st0" d="M70.3,168c0,0-2.1-3.4-2.2-3.4c0,0-1.1-3.6-1.1-3.6s2.1,3.3,2.1,3.3
				C69.2,164.3,70.3,168,70.3,168z"/>
		</g>
		<g id="XMLID_8516_">
			<path id="XMLID_8517_" class="st0" d="M82.6,164.4c0,0-1.3-3.2-1.4-3.2c0,0-0.2-3.3-0.2-3.3s1.3,3.1,1.3,3.1
				C82.3,161.1,82.6,164.4,82.6,164.4z"/>
		</g>
		<g id="XMLID_8514_">
			<path id="XMLID_8515_" class="st0" d="M90.9,164.2c0,0-1.1-2.4-1.1-2.4c0,0,0-2.5,0-2.5s1.1,2.3,1.1,2.3
				C90.9,161.7,90.9,164.2,90.9,164.2z"/>
		</g>
		<g id="XMLID_8512_">
			<path id="XMLID_8513_" class="st0" d="M94,166.3c0,0-0.8-3.5-0.8-3.5c0,0,0.3-3.5,0.3-3.5s0.8,3.4,0.8,3.4
				C94.3,162.8,94,166.3,94,166.3z"/>
		</g>
		<g id="XMLID_8510_">
			<path id="XMLID_8511_" class="st0" d="M79.3,174.2c0,0-1.5-2.3-1.5-2.4c0,0-0.4-2.5-0.4-2.5s1.4,2.3,1.5,2.3
				C78.9,171.6,79.3,174.2,79.3,174.2z"/>
		</g>
		<g id="XMLID_8508_">
			<path id="XMLID_8509_" class="st0" d="M84.2,172.3c0,0-0.6-2.7-0.6-2.7c0,0,0.6-2.7,0.6-2.7s0.6,2.6,0.6,2.7
				C84.8,169.6,84.2,172.3,84.2,172.3z"/>
		</g>
		<g id="XMLID_8506_">
			<path id="XMLID_8507_" class="st0" d="M89.5,174.7c0,0-0.7-4.3-0.7-4.4c0,0,0.4-4.3,0.4-4.3s0.7,4.2,0.7,4.2
				C89.9,170.3,89.5,174.7,89.5,174.7z"/>
		</g>
		<g id="XMLID_8504_">
			<path id="XMLID_8505_" class="st0" d="M87.5,182.8c0,0-2-3-2-3c0,0-0.9-3.2-0.9-3.2s2,2.9,2,2.9
				C86.6,179.6,87.5,182.8,87.5,182.8z"/>
		</g>
		<g id="XMLID_8502_">
			<path id="XMLID_8503_" class="st0" d="M94.3,176.1c0,0-0.1-0.9-0.2-1.7c-0.2-0.8-0.4-1.7-0.4-1.7c0,0-0.1-0.8-0.1-1.7
				c-0.2-0.8-0.3-1.7-0.3-1.7s0.4,0.8,0.9,1.6c0.3,0.8,0.7,1.7,0.7,1.7c0,0,0,0.2,0,0.6c0,0.3-0.1,0.8-0.1,1.2
				C94.5,175.2,94.3,176.1,94.3,176.1z"/>
		</g>
		<g id="XMLID_8500_">
			<path id="XMLID_8501_" class="st0" d="M94.3,187.4c0,0-0.5-0.5-0.9-1c-0.2-0.3-0.3-0.6-0.5-0.8c-0.1-0.2-0.2-0.4-0.2-0.4
				c0,0,0.1-0.6,0.1-1.2c0.2-0.6,0.4-1.2,0.4-1.2s0.1,0.6,0.2,1.2c0.2,0.6,0.4,1.1,0.4,1.1c0,0,0,0.1,0,0.4c0,0.2,0.1,0.5,0.1,0.8
				C94.1,186.8,94.3,187.4,94.3,187.4z"/>
		</g>
		<g id="XMLID_8498_">
			<path id="XMLID_8499_" class="st0" d="M100.3,182.3c0,0-1-4-1.1-4.1c0,0,0.1-4,0.1-4s1,3.9,1,4
				C100.4,178.2,100.3,182.3,100.3,182.3z"/>
		</g>
		<g id="XMLID_8496_">
			<path id="XMLID_8497_" class="st0" d="M108.5,183.4c0,0-1.1-3.2-1.1-3.2c0,0,0-3.2,0-3.2s1.1,3.1,1.1,3.1
				C108.5,180,108.5,183.4,108.5,183.4z"/>
		</g>
		<g id="XMLID_8494_">
			<path id="XMLID_8495_" class="st0" d="M110.4,182c0,0-0.7-3.9-0.7-4c0,0,0.4-3.9,0.4-3.9s0.7,3.8,0.7,3.8
				C110.8,178,110.4,182,110.4,182z"/>
		</g>
		<g id="XMLID_8492_">
			<path id="XMLID_8493_" class="st0" d="M103.3,190.4c0,0-0.8-3.7-0.8-3.7c0,0,0.3-3.6,0.3-3.6s0.8,3.5,0.8,3.6
				C103.6,186.7,103.3,190.4,103.3,190.4z"/>
		</g>
		<g id="XMLID_8490_">
			<path id="XMLID_8491_" class="st0" d="M97.3,189.3c0,0-1.3-2.8-1.3-2.8c0,0-0.2-2.9-0.2-2.9s1.3,2.7,1.3,2.7
				C97.1,186.4,97.3,189.3,97.3,189.3z"/>
		</g>
		<g id="XMLID_8488_">
			<path id="XMLID_8489_" class="st0" d="M94.1,183.1c0,0-1.1-2.5-1.1-2.5c0,0,0-2.6,0-2.6s1.1,2.4,1.1,2.5
				C94.1,180.5,94.1,183.1,94.1,183.1z"/>
		</g>
		<g id="XMLID_8486_">
			<path id="XMLID_8487_" class="st0" d="M101,198.5c0,0-0.4-0.4-0.9-0.8c-0.2-0.2-0.3-0.5-0.5-0.6c-0.1-0.2-0.2-0.3-0.2-0.3
				c0,0,0-0.5,0.1-1c0.2-0.5,0.4-1,0.4-1s0.1,0.5,0.2,1c0.2,0.4,0.4,0.9,0.4,0.9s0.1,0.5,0.1,1C100.9,198,101,198.5,101,198.5z"/>
		</g>
		<g id="XMLID_8484_">
			<path id="XMLID_8485_" class="st0" d="M107.6,197.7c0,0-1.3-3.3-1.3-3.4c0,0-0.2-3.4-0.2-3.4s1.3,3.2,1.3,3.3
				C107.4,194.2,107.6,197.7,107.6,197.7z"/>
		</g>
		<g id="XMLID_8482_">
			<path id="XMLID_8483_" class="st0" d="M110.1,192.5c0,0-1.4-4.6-1.4-4.6c0,0-0.3-4.6-0.3-4.6s1.3,4.4,1.4,4.5
				C109.9,187.9,110.1,192.5,110.1,192.5z"/>
		</g>
		<g id="XMLID_8480_">
			<path id="XMLID_8481_" class="st0" d="M114,194.2c0,0-0.7-4.7-0.7-4.8c0,0,0.4-4.7,0.4-4.7s0.7,4.6,0.7,4.6
				C114.4,189.4,114,194.2,114,194.2z"/>
		</g>
		<g id="XMLID_8478_">
			<path id="XMLID_8479_" class="st0" d="M112.1,206.1c0,0-1.8-3.2-1.8-3.2c0,0-0.7-3.3-0.7-3.3s1.8,3.1,1.8,3.1
				C111.4,202.7,112.1,206.1,112.1,206.1z"/>
		</g>
		<g id="XMLID_8476_">
			<path id="XMLID_8477_" class="st0" d="M116.7,202.3c0,0-0.7-3.9-0.7-4c0,0,0.4-3.9,0.4-3.9s0.7,3.8,0.7,3.8
				C117,198.3,116.7,202.3,116.7,202.3z"/>
		</g>
		<g id="XMLID_8474_">
			<path id="XMLID_8475_" class="st0" d="M120.8,200.9c0,0-1.3-3.1-1.3-3.1c0,0-0.2-3.1-0.2-3.1s1.3,3,1.3,3
				C120.6,197.7,120.8,200.9,120.8,200.9z"/>
		</g>
		<g id="XMLID_8472_">
			<path id="XMLID_8473_" class="st0" d="M120.4,212.3c0,0-0.5-0.6-1.1-1.1c-0.2-0.3-0.4-0.6-0.6-0.9c-0.2-0.2-0.3-0.4-0.3-0.4
				c0,0,0-0.7-0.1-1.4c0.1-0.7,0.2-1.3,0.2-1.3s0.2,0.6,0.3,1.3c0.3,0.6,0.6,1.2,0.6,1.2c0,0,0,0.2,0.1,0.4c0.1,0.2,0.1,0.6,0.2,0.9
				C120.1,211.7,120.4,212.3,120.4,212.3z"/>
		</g>
		<g id="XMLID_8470_">
			<path id="XMLID_8471_" class="st0" d="M126.4,206.3c0,0,0.2-0.7,0.3-1.4c0-0.3,0-0.7,0-0.9c0-0.3,0-0.4,0-0.4
				c0,0,0.2-0.7,0.3-1.3c0-0.7,0.1-1.3,0.1-1.3s0.3,0.7,0.5,1.3c0.1,0.7,0.2,1.4,0.2,1.4c0,0-0.1,0.2-0.2,0.5
				c-0.1,0.3-0.3,0.6-0.4,0.9C126.9,205.7,126.4,206.3,126.4,206.3z"/>
		</g>
		<g id="XMLID_8468_">
			<path id="XMLID_8469_" class="st0" d="M119.3,195c0,0-1.5-2.3-1.5-2.3c0,0-0.4-2.5-0.4-2.5s1.5,2.2,1.5,2.3
				C118.8,192.4,119.3,195,119.3,195z"/>
		</g>
		<g id="XMLID_8466_">
			<path id="XMLID_8467_" class="st0" d="M125.4,200.9c0,0-0.8-2.4-0.8-2.4c0,0,0.3-2.4,0.3-2.4s0.8,2.3,0.8,2.4
				C125.7,198.5,125.4,200.9,125.4,200.9z"/>
		</g>
		<g id="XMLID_8464_">
			<path id="XMLID_8465_" class="st0" d="M123.5,207.4c0,0-0.5-0.6-0.9-1.2c-0.2-0.3-0.4-0.6-0.5-0.9c-0.1-0.2-0.2-0.4-0.2-0.4
				s0-0.7,0-1.4c0.1-0.7,0.2-1.3,0.2-1.3s0.2,0.6,0.4,1.3c0.3,0.6,0.6,1.2,0.6,1.2s0.1,0.7,0.2,1.3
				C123.3,206.8,123.5,207.4,123.5,207.4z"/>
		</g>
		<g id="XMLID_8462_">
			<path id="XMLID_8463_" class="st0" d="M127.9,216.3c0,0-1.1-1.8-1.1-1.8c0,0,0-1.9,0-1.9s1.1,1.8,1.1,1.8
				C127.9,214.3,127.9,216.3,127.9,216.3z"/>
		</g>
		<g id="XMLID_8460_">
			<path id="XMLID_8461_" class="st0" d="M133.2,208c0,0-1.1-4.2-1.1-4.2c0,0,0-4.2,0-4.2s1.1,4.1,1.1,4.1
				C133.2,203.7,133.2,208,133.2,208z"/>
		</g>
		<g id="XMLID_8458_">
			<path id="XMLID_8459_" class="st0" d="M138.8,213.9c0,0-1.7-4-1.7-4c0,0-0.6-4.1-0.6-4.1s1.6,3.9,1.6,3.9
				S138.8,213.9,138.8,213.9z"/>
		</g>
		<g id="XMLID_8456_">
			<path id="XMLID_8457_" class="st0" d="M131.7,214.7c0,0-2-2.9-2-2.9c0,0-0.9-3.1-0.9-3.1s1.9,2.8,2,2.8
				C130.7,211.6,131.7,214.7,131.7,214.7z"/>
		</g>
		<g id="XMLID_8454_">
			<path id="XMLID_8455_" class="st0" d="M137,222.3c0,0-0.9-3.5-0.9-3.5c0,0,0.2-3.5,0.2-3.5s0.9,3.4,0.9,3.4
				C137.2,218.7,137,222.3,137,222.3z"/>
		</g>
		<g id="XMLID_8452_">
			<path id="XMLID_8453_" class="st0" d="M124.9,217.4c0,0-0.7-0.8-1.4-1.7c-0.3-0.4-0.6-0.9-0.8-1.2c-0.2-0.3-0.4-0.6-0.4-0.6
				c0,0-0.2-1-0.5-1.9c-0.1-0.9-0.3-1.9-0.3-1.9s0.4,0.9,0.8,1.8c0.5,0.9,1,1.8,1,1.8c0,0,0.3,1,0.7,1.9
				C124.5,216.5,124.9,217.4,124.9,217.4z"/>
		</g>
		<g id="XMLID_8450_">
			<path id="XMLID_8451_" class="st0" d="M130.2,222.5c0,0-0.7-1.7-0.7-1.8c0,0,0.4-1.8,0.4-1.8s0.7,1.7,0.7,1.7
				C130.6,220.7,130.2,222.5,130.2,222.5z"/>
		</g>
		<g id="XMLID_8448_">
			<path id="XMLID_8449_" class="st0" d="M108.1,204.4c0,0-0.6-0.5-1.2-1c-0.2-0.3-0.5-0.5-0.7-0.8c-0.2-0.2-0.3-0.4-0.3-0.4
				c0,0-0.1-0.6-0.2-1.3c0-0.6,0.1-1.2,0.1-1.2s0.2,0.6,0.4,1.2c0.3,0.5,0.7,1.1,0.7,1.1c0,0,0.1,0.2,0.1,0.4
				c0.1,0.2,0.2,0.5,0.3,0.8C107.8,203.9,108.1,204.4,108.1,204.4z"/>
		</g>
		<g id="XMLID_8446_">
			<path id="XMLID_8447_" class="st0" d="M114.9,204.4c0,0-0.6-1.5-0.6-1.5s0.6-1.5,0.6-1.5s0.6,1.5,0.6,1.5
				S114.9,204.4,114.9,204.4z"/>
		</g>
		<g id="XMLID_8444_">
			<path id="XMLID_8445_" class="st0" d="M97.3,193.9c0,0-1.6-1.3-1.6-1.3c0,0-0.6-1.7-0.6-1.7s1.5,1.3,1.5,1.3
				C96.7,192.2,97.3,193.9,97.3,193.9z"/>
		</g>
		<g id="XMLID_8442_">
			<path id="XMLID_8443_" class="st0" d="M101,193.6c0,0-0.7-1.5-0.7-1.5s0.4-1.5,0.4-1.5s0.7,1.4,0.7,1.4
				C101.4,192.1,101,193.6,101,193.6z"/>
		</g>
		<g id="XMLID_8440_">
			<path id="XMLID_8441_" class="st0" d="M140.3,208.8c0,0-1.1-2.1-1.1-2.1c0,0,0-2.2,0-2.2s1.1,2,1.1,2.1
				C140.3,206.5,140.3,208.8,140.3,208.8z"/>
		</g>
		<g id="XMLID_8438_">
			<path id="XMLID_8439_" class="st0" d="M141.8,221.2c0,0-1.3-2.1-1.3-2.1c0,0-0.2-2.2-0.2-2.2s1.3,2,1.3,2
				C141.6,218.9,141.8,221.2,141.8,221.2z"/>
		</g>
		<g id="XMLID_8436_">
			<path id="XMLID_8437_" class="st0" d="M142.9,215.9c0,0-1.3-2.1-1.3-2.1c0,0-0.2-2.2-0.2-2.2s1.3,2,1.3,2
				C142.7,213.7,142.9,215.9,142.9,215.9z"/>
		</g>
		<g id="XMLID_8434_">
			<path id="XMLID_8435_" class="st0" d="M142.1,227.1c0,0-1.1-1.2-1.1-1.3c0,0,0-1.4,0-1.4s1.1,1.2,1.1,1.2
				S142.1,227.1,142.1,227.1z"/>
		</g>
		<g id="XMLID_8432_">
			<path id="XMLID_8433_" class="st0" d="M139.5,227.4c0,0-0.8-0.6-1.6-1.1c-0.3-0.3-0.7-0.7-0.9-0.9c-0.3-0.3-0.4-0.4-0.4-0.4
				c0,0-0.1-0.2-0.1-0.5c-0.1-0.3-0.2-0.7-0.3-1.1c0-0.8,0-1.6,0-1.6s0.3,0.7,0.6,1.5c0.5,0.7,0.9,1.4,0.9,1.4c0,0,0.1,0.2,0.2,0.5
				c0.1,0.3,0.3,0.6,0.5,1C139,226.7,139.5,227.4,139.5,227.4z"/>
		</g>
		<g id="XMLID_8430_">
			<path id="XMLID_8431_" class="st0" d="M147.8,228.5c0,0-0.9-1.4-0.9-1.4c0,0,0.2-1.5,0.2-1.5s0.9,1.4,0.9,1.4
				C147.9,226.9,147.8,228.5,147.8,228.5z"/>
		</g>
		<g id="XMLID_8428_">
			<path id="XMLID_8429_" class="st0" d="M146.3,218.8c0,0-1.7-3.2-1.7-3.2c0,0-0.6-3.3-0.6-3.3s1.6,3.1,1.6,3.1
				C145.7,215.4,146.3,218.8,146.3,218.8z"/>
		</g>
		<g id="XMLID_8426_">
			<path id="XMLID_8427_" class="st0" d="M147.4,213.4c0,0-0.8-0.9-1.6-1.8c-0.3-0.5-0.7-1-1-1.3c-0.3-0.4-0.4-0.6-0.4-0.6
				c0,0-0.3-1-0.7-2.1c-0.2-1-0.4-2-0.4-2s0.5,1,1,1.9c0.6,0.9,1.2,1.9,1.2,1.9c0,0,0.4,1,0.9,2
				C146.9,212.4,147.4,213.4,147.4,213.4z"/>
		</g>
		<g id="XMLID_8424_">
			<path id="XMLID_8425_" class="st0" d="M152.9,211.8c0,0-1.8-3.2-1.8-3.2c0,0-0.7-3.3-0.7-3.3s1.8,3.1,1.8,3.1
				C152.2,208.4,152.9,211.8,152.9,211.8z"/>
		</g>
		<g id="XMLID_8422_">
			<path id="XMLID_8423_" class="st0" d="M157.2,213.1c0,0-0.8-3.7-0.8-3.7c0,0,0.3-3.6,0.3-3.6s0.8,3.5,0.8,3.6
				C157.5,209.4,157.2,213.1,157.2,213.1z"/>
		</g>
		<g id="XMLID_8420_">
			<path id="XMLID_8421_" class="st0" d="M161.6,210.1c0,0-0.1-2.8-0.1-2.8c0,0,0.9-2.6,0.9-2.6s0.2,2.7,0.2,2.7
				C162.6,207.4,161.6,210.1,161.6,210.1z"/>
		</g>
		<g id="XMLID_8418_">
			<path id="XMLID_8419_" class="st0" d="M150.5,220.7c0,0-0.9-2.4-0.9-2.4c0,0,0.2-2.4,0.2-2.4s0.9,2.3,0.9,2.3
				S150.5,220.7,150.5,220.7z"/>
		</g>
		<g id="XMLID_8416_">
			<path id="XMLID_8417_" class="st0" d="M154.9,221.5c0,0-0.1-0.7-0.1-1.4c-0.1-0.3-0.2-0.7-0.2-0.9c-0.1-0.3-0.1-0.4-0.1-0.4
				c0,0,0-0.7,0-1.3c-0.1-0.7-0.3-1.3-0.3-1.3s0.4,0.6,0.8,1.2c0.3,0.7,0.6,1.3,0.6,1.3c0,0,0,0.2-0.1,0.5c0,0.3-0.1,0.6-0.1,1
				C155.1,220.8,154.9,221.5,154.9,221.5z"/>
		</g>
		<g id="XMLID_8414_">
			<path id="XMLID_8415_" class="st0" d="M152.2,219.3c0,0-0.1-0.7-0.1-1.4c-0.1-0.3-0.2-0.7-0.2-0.9c-0.1-0.3-0.1-0.4-0.1-0.4
				c0,0,0-0.7,0-1.3c-0.1-0.7-0.3-1.3-0.3-1.3s0.4,0.6,0.8,1.2c0.3,0.7,0.6,1.3,0.6,1.3c0,0,0,0.2-0.1,0.5c0,0.3-0.1,0.6-0.1,1
				C152.4,218.7,152.2,219.3,152.2,219.3z"/>
		</g>
		<g id="XMLID_8412_">
			<path id="XMLID_8413_" class="st0" d="M172.5,215.4c0,0-0.1-0.7-0.1-1.4c-0.1-0.3-0.2-0.7-0.2-0.9c-0.1-0.3-0.1-0.4-0.1-0.4
				c0,0,0-0.7,0-1.3c-0.1-0.7-0.3-1.3-0.3-1.3s0.4,0.6,0.8,1.2c0.3,0.7,0.6,1.3,0.6,1.3c0,0,0,0.2-0.1,0.5c0,0.3-0.1,0.6-0.1,1
				C172.7,214.7,172.5,215.4,172.5,215.4z"/>
		</g>
		<g id="XMLID_8410_">
			<path id="XMLID_8411_" class="st0" d="M157.5,222.8c0,0-0.6-2.6-0.6-2.6c0,0,0.6-2.5,0.6-2.5s0.6,2.5,0.6,2.5
				C158,220.2,157.5,222.8,157.5,222.8z"/>
		</g>
		<g id="XMLID_8408_">
			<path id="XMLID_8409_" class="st0" d="M149.5,224.9c0,0-0.6-2.6-0.6-2.6s0.6-2.5,0.6-2.5s0.6,2.5,0.6,2.5
				S149.5,224.9,149.5,224.9z"/>
		</g>
		<g id="XMLID_8406_">
			<path id="XMLID_8407_" class="st0" d="M151.9,231.2c0,0-1.5-2.6-1.5-2.6c0,0-0.4-2.8-0.4-2.8s1.4,2.5,1.5,2.6
				C151.5,228.4,151.9,231.2,151.9,231.2z"/>
		</g>
		<g id="XMLID_8404_">
			<path id="XMLID_8405_" class="st0" d="M146.6,225c0,0-1.6-1.6-1.7-1.6c0,0-0.6-1.9-0.6-1.9s1.6,1.5,1.6,1.6
				C145.9,223.1,146.6,225,146.6,225z"/>
		</g>
		<g id="XMLID_8402_">
			<path id="XMLID_8403_" class="st0" d="M158.9,230.7c0,0-1.1-2.2-1.1-2.3c0,0,0-2.3,0-2.3s1.1,2.2,1.1,2.2
				C158.9,228.3,158.9,230.7,158.9,230.7z"/>
		</g>
		<g id="XMLID_8400_">
			<path id="XMLID_8401_" class="st0" d="M163.5,231.2c0,0-0.6-2.2-0.6-2.2s0.6-2.1,0.6-2.1s0.6,2.1,0.6,2.1
				S163.5,231.2,163.5,231.2z"/>
		</g>
		<g id="XMLID_8398_">
			<path id="XMLID_8399_" class="st0" d="M163,222.1c0,0-0.5-0.5-0.9-1c-0.2-0.3-0.4-0.5-0.5-0.7c-0.1-0.2-0.2-0.3-0.2-0.4
				c0,0,0-0.6,0-1.2c0.1-0.6,0.3-1.1,0.3-1.1s0.1,0.5,0.3,1.1c0.2,0.5,0.5,1,0.5,1c0,0,0,0.1,0,0.4c0,0.2,0.1,0.5,0.1,0.8
				C162.8,221.5,163,222.1,163,222.1z"/>
		</g>
		<g id="XMLID_8396_">
			<path id="XMLID_8397_" class="st0" d="M166.2,222.2c0,0-0.5-0.5-0.9-1c-0.2-0.3-0.4-0.5-0.5-0.7c-0.1-0.2-0.2-0.3-0.2-0.4
				c0,0,0-0.6,0-1.2c0.1-0.6,0.3-1.1,0.3-1.1s0.1,0.5,0.3,1.1c0.2,0.5,0.5,1,0.5,1c0,0,0,0.1,0,0.4c0,0.2,0.1,0.5,0.1,0.8
				C166,221.6,166.2,222.2,166.2,222.2z"/>
		</g>
		<g id="XMLID_8394_">
			<path id="XMLID_8395_" class="st0" d="M169,215.5c0,0-1.3-4.2-1.3-4.2c0,0-0.2-4.2-0.2-4.2s1.3,4,1.3,4.1
				C168.7,211.3,169,215.5,169,215.5z"/>
		</g>
		<g id="XMLID_8392_">
			<path id="XMLID_8393_" class="st0" d="M166,215.8c0,0-1.1-1.1-1.1-1.1c0,0-0.1-1.3-0.1-1.3s1.1,1,1.1,1.1
				C165.9,214.5,166,215.8,166,215.8z"/>
		</g>
		<g id="XMLID_8390_">
			<path id="XMLID_8391_" class="st0" d="M173.8,209.9c0,0-0.9-2.5-0.9-2.6c0,0,0.2-2.6,0.2-2.6s0.9,2.5,0.9,2.5
				C174,207.2,173.8,209.9,173.8,209.9z"/>
		</g>
		<g id="XMLID_8388_">
			<path id="XMLID_8389_" class="st0" d="M178,205.5c0,0-0.9-2.1-0.9-2.2c0,0,0.2-2.2,0.2-2.2s0.9,2.1,0.9,2.1
				C178.2,203.3,178,205.5,178,205.5z"/>
		</g>
		<g id="XMLID_8386_">
			<path id="XMLID_8387_" class="st0" d="M180.7,204.4c0,0-0.2-1.7-0.2-1.7c0,0,0.9-1.5,0.9-1.5s0.2,1.6,0.2,1.7
				C181.6,202.9,180.7,204.4,180.7,204.4z"/>
		</g>
		<g id="XMLID_8384_">
			<path id="XMLID_8385_" class="st0" d="M170.5,223.4c0,0-1.7-3.3-1.7-3.3c0,0-0.6-3.4-0.6-3.4s1.7,3.2,1.7,3.2
				C169.8,219.9,170.5,223.4,170.5,223.4z"/>
		</g>
		<g id="XMLID_8382_">
			<path id="XMLID_8383_" class="st0" d="M175.9,219c0,0-1-2.8-1-2.8c0,0,0.2-2.8,0.2-2.8s0.9,2.7,0.9,2.8
				C176,216.1,175.9,219,175.9,219z"/>
		</g>
		<g id="XMLID_8380_">
			<path id="XMLID_8381_" class="st0" d="M182.5,220.5c0,0-1-2.8-1-2.8c0,0,0.2-2.8,0.2-2.8s0.9,2.7,0.9,2.8
				C182.7,217.6,182.5,220.5,182.5,220.5z"/>
		</g>
		<g id="XMLID_8378_">
			<path id="XMLID_8379_" class="st0" d="M177.5,212.3c0,0-1-2.8-1-2.8c0,0,0.2-2.8,0.2-2.8s0.9,2.7,0.9,2.8
				C177.6,209.4,177.5,212.3,177.5,212.3z"/>
		</g>
		<g id="XMLID_8376_">
			<path id="XMLID_8377_" class="st0" d="M178.8,219.8c0,0-0.7-3.8-0.7-3.8c0,0,0.4-3.7,0.4-3.7s0.7,3.7,0.7,3.7
				C179.3,216,178.8,219.8,178.8,219.8z"/>
		</g>
		<g id="XMLID_8374_">
			<path id="XMLID_8375_" class="st0" d="M181.7,213.9c0,0-0.7-3.8-0.7-3.8c0,0,0.4-3.7,0.4-3.7s0.7,3.7,0.7,3.7
				C182.1,210.1,181.7,213.9,181.7,213.9z"/>
		</g>
		<g id="XMLID_8372_">
			<path id="XMLID_8373_" class="st0" d="M168.3,231.5c0,0-2-2.9-2-2.9c0,0-1-3.1-1-3.1s2,2.8,2,2.8
				C167.3,228.4,168.3,231.5,168.3,231.5z"/>
		</g>
		<g id="XMLID_8370_">
			<path id="XMLID_8371_" class="st0" d="M175.7,229.6c0,0-1.5-3.5-1.5-3.5c0,0-0.4-3.5-0.4-3.5s1.5,3.4,1.5,3.4
				C175.3,226,175.7,229.6,175.7,229.6z"/>
		</g>
		<g id="XMLID_8368_">
			<path id="XMLID_8369_" class="st0" d="M178,230.7c0,0-0.9-2.5-0.9-2.6c0,0,0.2-2.6,0.2-2.6s0.9,2.5,0.9,2.5
				C178.2,228,178,230.7,178,230.7z"/>
		</g>
		<g id="XMLID_8366_">
			<path id="XMLID_8367_" class="st0" d="M172,232.6c0,0-0.7-0.5-1.4-1c-0.3-0.3-0.6-0.6-0.8-0.9c-0.2-0.2-0.4-0.4-0.4-0.4
				c0,0,0-0.2-0.1-0.5c0-0.3-0.1-0.6-0.1-1c0.1-0.7,0.2-1.4,0.2-1.4s0.2,0.7,0.4,1.3c0.4,0.6,0.7,1.2,0.7,1.2c0,0,0.1,0.2,0.2,0.4
				c0.1,0.2,0.2,0.6,0.4,0.9C171.6,231.9,172,232.6,172,232.6z"/>
		</g>
		<g id="XMLID_8364_">
			<path id="XMLID_8365_" class="st0" d="M179.2,224.4c0,0-0.6-2.7-0.6-2.7c0,0,0.6-2.7,0.6-2.7s0.6,2.6,0.6,2.7
				C179.7,221.7,179.2,224.4,179.2,224.4z"/>
		</g>
		<g id="XMLID_8362_">
			<path id="XMLID_8363_" class="st0" d="M177.1,225.5c0,0-0.6-2.7-0.6-2.7c0,0,0.6-2.7,0.6-2.7s0.6,2.6,0.6,2.7
				C177.6,222.8,177.1,225.5,177.1,225.5z"/>
		</g>
		<g id="XMLID_8360_">
			<path id="XMLID_8361_" class="st0" d="M181,233.4c0,0-0.6-1-0.6-1c0,0,0.6-0.9,0.6-0.9s0.6,0.9,0.6,0.9
				C181.6,232.4,181,233.4,181,233.4z"/>
		</g>
		<g id="XMLID_8358_">
			<path id="XMLID_8359_" class="st0" d="M97.2,172.3c0,0-0.7-3.4-0.7-3.4c0,0,0.4-3.3,0.4-3.3s0.7,3.3,0.7,3.3
				C97.6,168.9,97.2,172.3,97.2,172.3z"/>
		</g>
		<g id="XMLID_8356_">
			<path id="XMLID_8357_" class="st0" d="M65.9,148.5c0,0-0.6-0.7-1.2-1.4c-0.2-0.4-0.4-0.8-0.6-1.1c-0.2-0.3-0.3-0.5-0.3-0.5
				c0,0,0-0.8,0.1-1.7c0.2-0.8,0.5-1.6,0.5-1.6s0,0.8,0.1,1.6c0.2,0.8,0.4,1.5,0.4,1.5c0,0,0,0.2,0.1,0.5c0.1,0.3,0.1,0.7,0.2,1.1
				C65.5,147.7,65.9,148.5,65.9,148.5z"/>
		</g>
		<g id="XMLID_8354_">
			<path id="XMLID_8355_" class="st0" d="M71.5,143.1c0,0-0.2-2-0.2-2c0,0,0.9-1.8,0.9-1.8s0.2,1.9,0.2,1.9
				C72.4,141.2,71.5,143.1,71.5,143.1z"/>
		</g>
		<g id="XMLID_8352_">
			<path id="XMLID_8353_" class="st0" d="M56.5,149.8c0,0-0.9-1.7-0.9-1.7c0,0,0.2-1.8,0.2-1.8s0.9,1.7,0.9,1.7
				C56.7,148,56.5,149.8,56.5,149.8z"/>
		</g>
		<g id="XMLID_8350_">
			<path id="XMLID_8351_" class="st0" d="M55.4,142.3c0,0-0.1-0.3-0.2-0.7c-0.2-0.3-0.4-0.5-0.4-0.5s-0.1-0.3-0.1-0.6
				c-0.2-0.3-0.4-0.6-0.4-0.6s0.4,0.2,0.8,0.4c0.3,0.2,0.7,0.6,0.7,0.6s0,0.4,0,0.8C55.6,142,55.4,142.3,55.4,142.3z"/>
		</g>
		<g id="XMLID_8348_">
			<path id="XMLID_8349_" class="st0" d="M47.9,139.6c0,0-2.2-2-2.2-2c0,0-1.2-2.3-1.2-2.3s2.1,1.9,2.1,1.9
				C46.7,137.2,47.9,139.6,47.9,139.6z"/>
		</g>
		<g id="XMLID_8346_">
			<path id="XMLID_8347_" class="st0" d="M63.1,130.1c0,0-1.7-2.1-1.7-2.1c0,0-0.7-2.3-0.7-2.3s1.7,2,1.7,2
				C62.4,127.8,63.1,130.1,63.1,130.1z"/>
		</g>
		<g id="XMLID_8344_">
			<path id="XMLID_8345_" class="st0" d="M66.6,127.1c0,0-1.3-2.5-1.3-2.5c0,0-0.2-2.6-0.2-2.6s1.2,2.4,1.2,2.5
				C66.5,124.5,66.6,127.1,66.6,127.1z"/>
		</g>
		<g id="XMLID_8342_">
			<path id="XMLID_8343_" class="st0" d="M68.9,127.1c0,0-0.6-2.3-0.6-2.3c0,0,0.6-2.3,0.6-2.3s0.6,2.2,0.6,2.3
				C69.4,124.8,68.9,127.1,68.9,127.1z"/>
		</g>
		<g id="XMLID_8340_">
			<path id="XMLID_8341_" class="st0" d="M67.4,145.2c0,0-0.6-2.3-0.6-2.3c0,0,0.6-2.3,0.6-2.3s0.6,2.2,0.6,2.3
				C67.9,142.9,67.4,145.2,67.4,145.2z"/>
		</g>
		<g id="XMLID_8338_">
			<path id="XMLID_8339_" class="st0" d="M134.7,220.1c0,0-0.6-0.4-1.1-0.8c-0.5-0.4-1-0.9-1-0.9s-0.2-0.5-0.3-1.1
				c-0.1-0.5-0.2-1.1-0.2-1.1s0.3,0.5,0.7,0.9c0.4,0.4,0.8,0.9,0.8,0.9s0.2,0.5,0.5,1C134.3,219.6,134.7,220.1,134.7,220.1z"/>
		</g>
		<g id="XMLID_8336_">
			<path id="XMLID_8337_" class="st0" d="M134.7,212.3c0,0-0.6-0.4-1.1-0.8c-0.5-0.4-1-0.9-1-0.9s-0.2-0.5-0.3-1.1
				c-0.1-0.5-0.2-1.1-0.2-1.1s0.3,0.5,0.7,0.9c0.4,0.4,0.8,0.9,0.8,0.9s0.2,0.5,0.5,1C134.3,211.8,134.7,212.3,134.7,212.3z"/>
		</g>
		<g id="XMLID_8334_">
			<path id="XMLID_8335_" class="st0" d="M148.3,212.6c0,0-1.6-2-1.6-2.1c0,0-0.6-2.3-0.6-2.3s1.6,2,1.6,2
				C147.7,210.3,148.3,212.6,148.3,212.6z"/>
		</g>
		<g id="XMLID_8332_">
			<path id="XMLID_8333_" class="st0" d="M158.2,216.3c0,0-0.5-0.5-1.1-1c-0.2-0.3-0.4-0.6-0.6-0.8c-0.2-0.2-0.3-0.4-0.3-0.4
				c0,0-0.1-0.6-0.1-1.3c0.1-0.6,0.1-1.2,0.1-1.2s0.2,0.6,0.4,1.2c0.3,0.5,0.6,1.1,0.6,1.1c0,0,0,0.2,0.1,0.4
				c0.1,0.2,0.1,0.5,0.2,0.8C158,215.8,158.2,216.3,158.2,216.3z"/>
		</g>
		<g id="XMLID_8330_">
			<path id="XMLID_8331_" class="st0" d="M162.3,215.4c0,0-0.5-0.5-1.1-1c-0.2-0.3-0.4-0.6-0.6-0.8c-0.2-0.2-0.3-0.4-0.3-0.4
				c0,0-0.1-0.6-0.1-1.3c0.1-0.6,0.1-1.2,0.1-1.2s0.2,0.6,0.4,1.2c0.3,0.5,0.6,1.1,0.6,1.1c0,0,0,0.2,0.1,0.4
				c0.1,0.2,0.1,0.5,0.2,0.8C162.1,214.8,162.3,215.4,162.3,215.4z"/>
		</g>
		<g id="XMLID_8328_">
			<path id="XMLID_8329_" class="st0" d="M165.3,215.3c0,0-0.8-2.6-0.8-2.6c0,0,0.4-2.6,0.4-2.6s0.7,2.5,0.7,2.5
				C165.6,212.6,165.3,215.3,165.3,215.3z"/>
		</g>
		<g id="XMLID_8326_">
			<path id="XMLID_8327_" class="st0" d="M158.4,227.1c0,0-0.1-0.1-0.3-0.2c-0.2-0.1-0.4-0.3-0.6-0.5c-0.1-0.1-0.2-0.2-0.3-0.3
				c0-0.1-0.1-0.2-0.1-0.3c-0.1-0.2-0.1-0.3-0.1-0.3c0,0,0.2-0.3,0.4-0.7l1.3-2.2l-0.5,2.3c-0.1,0.5-0.3,1.1-0.3,1.1
				s-0.3-0.6-0.5-1.1c0.3,0,0.5,0.1,0.7,0.1c0,0.4,0,0.6,0,0.6c0,0,0,0.1-0.1,0.2c0,0.1,0,0.2-0.1,0.3c0,0.1,0,0.2,0,0.3
				c0,0.2,0.1,0.4,0.2,0.6C158.3,226.9,158.4,227.1,158.4,227.1z"/>
		</g>
		<g id="XMLID_8324_">
			<path id="XMLID_8325_" class="st0" d="M155.8,228.8c0,0-2.3-2.6-2.4-2.6c0,0-1.3-2.9-1.3-2.9s2.3,2.5,2.3,2.5
				C154.5,225.9,155.8,228.8,155.8,228.8z"/>
		</g>
		<g id="XMLID_8322_">
			<path id="XMLID_8323_" class="st0" d="M164.5,226.7c0,0-0.8-0.1-1.5-0.5c-0.7-0.3-1.2-0.8-1.2-0.8s-0.3-0.6-0.3-1.2
				c0-0.6,0.2-1.1,0.2-1.1s0.1,0.5,0.4,1c0.3,0.5,0.8,0.9,0.8,0.9s0.2,0.5,0.7,0.9C163.9,226.3,164.5,226.7,164.5,226.7z"/>
		</g>
		<g id="XMLID_8320_">
			<path id="XMLID_8321_" class="st0" d="M183.1,228.2c0,0-0.8-0.1-1.5-0.5c-0.7-0.3-1.2-0.8-1.2-0.8s-0.3-0.6-0.3-1.2
				c0-0.6,0.2-1.1,0.2-1.1s0.1,0.5,0.4,1c0.3,0.5,0.8,0.9,0.8,0.9s0.2,0.5,0.7,0.9C182.5,227.8,183.1,228.2,183.1,228.2z"/>
		</g>
		<g id="XMLID_8318_">
			<path id="XMLID_8319_" class="st0" d="M169.8,226.4c0,0-0.5-0.2-1-0.4c-0.2-0.2-0.4-0.3-0.6-0.4c-0.2-0.1-0.3-0.2-0.3-0.2
				c0,0-0.1-0.5-0.1-0.9c0.1-0.4,0.2-0.8,0.2-0.8s0.2,0.4,0.4,0.7c0.3,0.3,0.6,0.6,0.6,0.6s0.1,0.3,0.3,0.7
				C169.5,226,169.8,226.4,169.8,226.4z"/>
		</g>
		<g id="XMLID_8316_">
			<path id="XMLID_8317_" class="st0" d="M174.4,231.2c0,0-0.5-0.2-1-0.4c-0.2-0.2-0.4-0.3-0.6-0.4c-0.2-0.1-0.3-0.2-0.3-0.2
				c0,0-0.1-0.5-0.1-0.9c0.1-0.4,0.2-0.8,0.2-0.8s0.2,0.4,0.4,0.7c0.3,0.3,0.6,0.6,0.6,0.6s0.1,0.3,0.3,0.7
				C174.1,230.9,174.4,231.2,174.4,231.2z"/>
		</g>
		<g id="XMLID_8314_">
			<path id="XMLID_8315_" class="st0" d="M172.4,221.5c0,0-1.2-2.9-1.2-3c0,0-0.1-3-0.1-3s1.2,2.8,1.2,2.9
				C172.2,218.4,172.4,221.5,172.4,221.5z"/>
		</g>
		<g id="XMLID_8312_">
			<path id="XMLID_8313_" class="st0" d="M170.6,210.7c0,0-1.1-2.9-1.1-3c0,0,0-3,0-3s1.1,2.8,1.1,2.9
				C170.6,207.6,170.6,210.7,170.6,210.7z"/>
		</g>
		<g id="XMLID_8310_">
			<path id="XMLID_8311_" class="st0" d="M111.5,198.5c0,0-0.6-1.2-0.6-1.2s0.6-1.2,0.6-1.2s0.6,1.2,0.6,1.2
				S111.5,198.5,111.5,198.5z"/>
		</g>
		<g id="XMLID_8308_">
			<path id="XMLID_8309_" class="st0" d="M105.5,199.8c0,0-2-1.7-2-1.7c0,0-1-2.1-1-2.1s1.9,1.6,2,1.7
				C104.5,197.7,105.5,199.8,105.5,199.8z"/>
		</g>
		<g id="XMLID_8306_">
			<path id="XMLID_8307_" class="st0" d="M116,211.7c0,0-1.3-2.1-1.3-2.1c0,0-0.2-2.2-0.2-2.2s1.3,2,1.3,2S116,211.7,116,211.7z"/>
		</g>
		<g id="XMLID_8304_">
			<path id="XMLID_8305_" class="st0" d="M82.3,179.6c0,0-2.2-2.1-2.2-2.1c0,0-1.2-2.5-1.2-2.5s2.1,2.1,2.1,2.1
				C81.1,177.1,82.3,179.6,82.3,179.6z"/>
		</g>
		<g id="XMLID_8302_">
			<path id="XMLID_8303_" class="st0" d="M90.5,180.1c0,0-0.6-0.7-1.1-1.3c-0.2-0.4-0.4-0.7-0.6-1c-0.2-0.3-0.3-0.5-0.3-0.5
				c0,0,0-0.8,0.1-1.6c0.2-0.8,0.4-1.5,0.4-1.5s0.1,0.7,0.1,1.5c0.2,0.7,0.5,1.4,0.5,1.5c0,0,0,0.2,0.1,0.5c0,0.3,0.1,0.7,0.2,1
				C90.2,179.4,90.5,180.1,90.5,180.1z"/>
		</g>
		<g id="XMLID_8300_">
			<path id="XMLID_8301_" class="st0" d="M102.8,178c0,0-1.1-1.7-1.1-1.7c0,0,0-1.8,0-1.8s1.1,1.6,1.1,1.6S102.8,178,102.8,178z"/>
		</g>
		<g id="XMLID_8298_">
			<path id="XMLID_8299_" class="st0" d="M73.6,171.8c0,0-1.1-1.5-1.1-1.6c0,0,0-1.7,0-1.7s1.1,1.5,1.1,1.5
				C73.6,170,73.6,171.8,73.6,171.8z"/>
		</g>
		<g id="XMLID_8296_">
			<path id="XMLID_8297_" class="st0" d="M71.6,163.6c0,0-1.1-1.5-1.1-1.5c0,0,0-1.7,0-1.7s1.1,1.5,1.1,1.5
				C71.5,161.9,71.6,163.6,71.6,163.6z"/>
		</g>
		<g id="XMLID_8294_">
			<path id="XMLID_8295_" class="st0" d="M65.1,159.8c0,0-0.1-0.7-0.2-1.3c-0.2-0.6-0.4-1.3-0.4-1.3s0-0.6,0-1.3
				c-0.1-0.6-0.2-1.3-0.2-1.3s0.4,0.6,0.8,1.2c0.3,0.6,0.6,1.3,0.6,1.3c0,0,0,0.2-0.1,0.4c0,0.3-0.1,0.6-0.1,0.9
				C65.3,159.2,65.1,159.8,65.1,159.8z"/>
		</g>
		<g id="XMLID_8292_">
			<path id="XMLID_8293_" class="st0" d="M65.1,164.2c0,0-1.4-0.9-1.4-0.9c0,0-0.5-1.3-0.5-1.3s1.4,0.8,1.4,0.9
				C64.7,162.9,65.1,164.2,65.1,164.2z"/>
		</g>
		<g id="XMLID_8290_">
			<path id="XMLID_8291_" class="st0" d="M75.5,159.1c0,0-2-1.9-2-1.9c0,0-1-2.2-1-2.2s1.9,1.8,1.9,1.8
				C74.5,156.8,75.5,159.1,75.5,159.1z"/>
		</g>
		<g id="XMLID_8288_">
			<path id="XMLID_8289_" class="st0" d="M85.3,159.6c0,0-1.3-2.8-1.3-2.8c0,0-0.2-2.9-0.2-2.9s1.3,2.7,1.3,2.7
				C85.1,156.6,85.3,159.6,85.3,159.6z"/>
		</g>
		<g id="XMLID_8286_">
			<path id="XMLID_8287_" class="st0" d="M89.5,161.2c0,0-0.8-1.7-0.8-1.7c0,0,0.4-1.8,0.4-1.8s0.7,1.7,0.7,1.7
				C89.8,159.4,89.5,161.2,89.5,161.2z"/>
		</g>
		<g id="XMLID_8284_">
			<path id="XMLID_8285_" class="st0" d="M50.8,150.4c0,0-1.6-1.6-1.6-1.6c0,0-0.6-1.9-0.6-1.9s1.6,1.6,1.6,1.6
				C50.2,148.5,50.8,150.4,50.8,150.4z"/>
		</g>
		<g id="XMLID_8282_">
			<path id="XMLID_8283_" class="st0" d="M61.3,152c0,0-0.7-2.4-0.7-2.4c0,0,0.4-2.4,0.4-2.4s0.7,2.4,0.7,2.4
				C61.7,149.5,61.3,152,61.3,152z"/>
		</g>
		<g id="XMLID_8280_">
			<path id="XMLID_8281_" class="st0" d="M55.4,139.3c0,0-0.5-0.5-1-1.1c-0.2-0.3-0.4-0.6-0.6-0.8c-0.2-0.2-0.3-0.4-0.3-0.4
				s-0.1-0.7-0.1-1.3c0-0.6,0.1-1.3,0.1-1.3s0.2,0.6,0.5,1.2c0.3,0.6,0.6,1.2,0.6,1.2s0.1,0.6,0.3,1.3
				C55.2,138.7,55.4,139.3,55.4,139.3z"/>
		</g>
		<g id="XMLID_8278_">
			<path id="XMLID_8279_" class="st0" d="M65.5,137.9c0,0-0.6-1.6-0.6-1.6c0,0,0.6-1.6,0.6-1.6s0.6,1.6,0.6,1.6
				C66.1,136.3,65.5,137.9,65.5,137.9z"/>
		</g>
		<g id="XMLID_8276_">
			<path id="XMLID_8277_" class="st0" d="M41.6,128.2c0,0-0.6-0.4-1.2-0.8c-0.3-0.2-0.5-0.5-0.7-0.7c-0.2-0.2-0.3-0.3-0.3-0.3
				c0,0-0.2-0.6-0.3-1.2c0-0.6,0-1.2,0-1.2s0.3,0.5,0.5,1.1c0.4,0.5,0.8,1,0.8,1c0,0,0.1,0.1,0.2,0.3c0.1,0.2,0.2,0.5,0.4,0.7
				C41.2,127.7,41.6,128.2,41.6,128.2z"/>
		</g>
		<g id="XMLID_8274_">
			<path id="XMLID_8275_" class="st0" d="M53.2,129.3c0,0-0.6-1.5-0.6-1.5s0.6-1.5,0.6-1.5s0.6,1.5,0.6,1.5S53.2,129.3,53.2,129.3z"
				/>
		</g>
		<g id="XMLID_8272_">
			<path id="XMLID_8273_" class="st0" d="M55,129c0,0,0-1.4,0-1.4c0,0,1.1-1.1,1.1-1.1s0,1.3,0,1.3S55,129,55,129z"/>
		</g>
		<g id="XMLID_8270_">
			<path id="XMLID_8271_" class="st0" d="M46,118c0,0-1.3-1.9-1.3-2c0,0-0.2-2.1-0.2-2.1s1.2,1.9,1.3,1.9C45.8,115.8,46,118,46,118z
				"/>
		</g>
		<g id="XMLID_8268_">
			<path id="XMLID_8269_" class="st0" d="M62.2,117.4c0,0-1.1-2.2-1.1-2.3c0,0,0-2.3,0-2.3s1.1,2.2,1.1,2.2
				C62.1,115,62.2,117.4,62.2,117.4z"/>
		</g>
	</g>
	<g id="XMLID_7952_">
		<g id="XMLID_8265_">
			<path id="XMLID_8266_" class="st0" d="M265.3,172.2c0,0,0.4-1,0.7-1.9c0.1-0.5,0.3-1,0.4-1.4c0.1-0.4,0.2-0.6,0.2-0.6
				c0,0-0.1-1-0.2-2c-0.2-1-0.4-1.9-0.4-1.9s-0.1,1-0.1,1.9c-0.2,1-0.3,1.9-0.3,1.9c0,0,0,1,0,2
				C265.4,171.2,265.3,172.2,265.3,172.2z"/>
		</g>
		<g id="XMLID_8263_">
			<path id="XMLID_8264_" class="st0" d="M261.7,172.4c0,0,0.7-1.7,0.7-1.7c0,0-0.4-1.7-0.4-1.7s-0.7,1.7-0.7,1.7
				C261.3,170.6,261.7,172.4,261.7,172.4z"/>
		</g>
		<g id="XMLID_8261_">
			<path id="XMLID_8262_" class="st0" d="M257.1,172c0,0,0.6-1.8,0.6-1.8c0,0-0.5-1.8-0.5-1.8s-0.6,1.8-0.6,1.8
				C256.6,170.2,257.1,172,257.1,172z"/>
		</g>
		<g id="XMLID_8259_">
			<path id="XMLID_8260_" class="st0" d="M327.3,121.7c0,0,1.1-4.7,1.2-4.8c0,0,0-4.7,0-4.7s-1.1,4.6-1.1,4.6
				C327.4,116.9,327.3,121.7,327.3,121.7z"/>
		</g>
		<g id="XMLID_8257_">
			<path id="XMLID_8258_" class="st0" d="M325.1,111.7c0,0,1.5-3.9,1.5-3.9c0,0,0.4-3.9,0.4-3.9s-1.4,3.8-1.5,3.8
				C325.5,107.7,325.1,111.7,325.1,111.7z"/>
		</g>
		<g id="XMLID_8255_">
			<path id="XMLID_8256_" class="st0" d="M317.6,115.5c0,0,1.5-4.6,1.5-4.6c0,0,0.4-4.6,0.4-4.6s-1.5,4.4-1.5,4.5
				C318,110.8,317.6,115.5,317.6,115.5z"/>
		</g>
		<g id="XMLID_8253_">
			<path id="XMLID_8254_" class="st0" d="M327,103.3c0,0,2.2-4,2.3-4c0,0,1.1-4.1,1.1-4.1s-2.2,3.8-2.2,3.9
				C328.1,99.1,327,103.3,327,103.3z"/>
		</g>
		<g id="XMLID_8251_">
			<path id="XMLID_8252_" class="st0" d="M320.2,104.7c0,0,0.7-0.9,1.4-1.9c0.3-0.5,0.6-1,0.8-1.4c0.2-0.4,0.4-0.6,0.4-0.6
				c0,0,0.2-1,0.5-2.1c0.1-1,0.3-2.1,0.3-2.1s-0.4,1-0.8,2c-0.5,1-1,1.9-1,2c0,0-0.3,1-0.7,2.1C320.7,103.7,320.2,104.7,320.2,104.7
				z"/>
		</g>
		<g id="XMLID_8249_">
			<path id="XMLID_8250_" class="st0" d="M318.5,123.7c0,0,0.7-0.8,1.4-1.6c0.3-0.4,0.6-0.8,0.9-1.1c0.2-0.3,0.4-0.5,0.4-0.5
				c0,0,0.3-0.9,0.5-1.8c0.2-0.9,0.3-1.8,0.3-1.8s-0.4,0.8-0.9,1.7c-0.5,0.8-1,1.6-1,1.6c0,0-0.4,0.9-0.7,1.8
				C319,122.8,318.5,123.7,318.5,123.7z"/>
		</g>
		<g id="XMLID_8247_">
			<path id="XMLID_8248_" class="st0" d="M312.3,118.2c0,0,1-3.5,1-3.5c0,0-0.1-3.5-0.1-3.5s-1,3.4-1,3.4
				C312.2,114.6,312.3,118.2,312.3,118.2z"/>
		</g>
		<g id="XMLID_8245_">
			<path id="XMLID_8246_" class="st0" d="M315.7,125.8c0,0,1-3.9,1-3.9c0,0-0.1-3.9-0.1-3.9s-1,3.8-1,3.8
				C315.6,121.8,315.7,125.8,315.7,125.8z"/>
		</g>
		<g id="XMLID_8243_">
			<path id="XMLID_8244_" class="st0" d="M322.9,136.6c0,0,1.9-4,1.9-4c0,0,0.8-4.1,0.8-4.1s-1.9,3.9-1.9,3.9
				C323.7,132.4,322.9,136.6,322.9,136.6z"/>
		</g>
		<g id="XMLID_8241_">
			<path id="XMLID_8242_" class="st0" d="M316.9,135.2c0,0,2.4-3.8,2.4-3.8c0,0,1.3-4,1.3-4s-2.3,3.7-2.4,3.7
				C318.3,131.2,316.9,135.2,316.9,135.2z"/>
		</g>
		<g id="XMLID_8239_">
			<path id="XMLID_8240_" class="st0" d="M313.2,134.7c0,0,2-2,2-2c0,0,0.9-2.3,0.9-2.3s-1.9,1.9-1.9,2
				C314.2,132.4,313.2,134.7,313.2,134.7z"/>
		</g>
		<g id="XMLID_8237_">
			<path id="XMLID_8238_" class="st0" d="M324.1,129c0,0,1.3-2.5,1.4-2.5c0,0,0.3-2.6,0.3-2.6s-1.3,2.4-1.3,2.4
				C324.4,126.4,324.1,129,324.1,129z"/>
		</g>
		<g id="XMLID_8235_">
			<path id="XMLID_8236_" class="st0" d="M309.1,127.7c0,0,1.4-2.9,1.4-2.9c0,0,0.3-3,0.3-3s-1.4,2.8-1.4,2.9
				C309.5,124.6,309.1,127.7,309.1,127.7z"/>
		</g>
		<g id="XMLID_8233_">
			<path id="XMLID_8234_" class="st0" d="M304.7,123.4c0,0,2-3,2.1-3c0,0,1-3.2,1-3.2s-2,2.9-2,2.9
				C305.7,120.1,304.7,123.4,304.7,123.4z"/>
		</g>
		<g id="XMLID_8231_">
			<path id="XMLID_8232_" class="st0" d="M298,128.5c0,0,1.3-3.7,1.3-3.8c0,0,0.2-3.8,0.2-3.8s-1.3,3.6-1.3,3.7
				C298.3,124.6,298,128.5,298,128.5z"/>
		</g>
		<g id="XMLID_8229_">
			<path id="XMLID_8230_" class="st0" d="M303.9,136.1c0,0,0.7-0.6,1.3-1.3c0.3-0.4,0.5-0.7,0.8-1c0.2-0.3,0.4-0.5,0.3-0.5
				c0,0,0.1-0.8,0.3-1.6c0-0.8-0.1-1.6-0.1-1.6s-0.2,0.8-0.5,1.5c-0.4,0.7-0.8,1.4-0.8,1.4c0,0-0.1,0.2-0.2,0.5
				c-0.1,0.3-0.2,0.7-0.4,1.1C304.3,135.3,303.9,136.1,303.9,136.1z"/>
		</g>
		<g id="XMLID_8227_">
			<path id="XMLID_8228_" class="st0" d="M297.2,136.6c0,0,1.8-2.2,1.8-2.2c0,0,0.8-2.4,0.8-2.4s-1.8,2.1-1.8,2.1
				C298,134.1,297.2,136.6,297.2,136.6z"/>
		</g>
		<g id="XMLID_8225_">
			<path id="XMLID_8226_" class="st0" d="M293.1,135.8c0,0,1.1-3.8,1.1-3.8c0,0,0-3.8,0-3.8s-1.1,3.6-1.1,3.7
				C293.1,131.9,293.1,135.8,293.1,135.8z"/>
		</g>
		<g id="XMLID_8223_">
			<path id="XMLID_8224_" class="st0" d="M305,145.5c0,0,1.5-3.5,1.5-3.5c0,0,0.4-3.5,0.4-3.5s-1.5,3.4-1.5,3.4
				C305.4,141.9,305,145.5,305,145.5z"/>
		</g>
		<g id="XMLID_8221_">
			<path id="XMLID_8222_" class="st0" d="M311.9,148.2c0,0,0.5-1.1,0.9-2.2c0.6-1.1,1.1-2.1,1.2-2.2c0,0,0.4-1.1,0.8-2.2
				c0.5-1.1,1-2.1,1-2.1s-0.7,1-1.5,2c-0.7,1-1.3,2.1-1.3,2.1c0,0-0.1,0.3-0.2,0.7c-0.1,0.4-0.3,1-0.4,1.6
				C312.2,147.1,311.9,148.2,311.9,148.2z"/>
		</g>
		<g id="XMLID_8219_">
			<path id="XMLID_8220_" class="st0" d="M318.1,147.4c0,0,2.2-4,2.2-4c0,0,1.1-4.1,1.1-4.1s-2.1,3.9-2.2,3.9
				C319.2,143.2,318.1,147.4,318.1,147.4z"/>
		</g>
		<g id="XMLID_8217_">
			<path id="XMLID_8218_" class="st0" d="M296.4,148.2c0,0,1.8-4.1,1.8-4.2c0,0,0.7-4.2,0.7-4.2s-1.8,4-1.8,4
				C297.2,143.9,296.4,148.2,296.4,148.2z"/>
		</g>
		<g id="XMLID_8215_">
			<path id="XMLID_8216_" class="st0" d="M289.9,147.1c0,0,0.9-4.5,0.9-4.5c0,0-0.2-4.4-0.2-4.4s-0.9,4.3-0.9,4.4
				C289.7,142.6,289.9,147.1,289.9,147.1z"/>
		</g>
		<g id="XMLID_8213_">
			<path id="XMLID_8214_" class="st0" d="M302.3,154.4c0,0,0.7-2.7,0.7-2.7c0,0-0.4-2.7-0.4-2.7s-0.7,2.6-0.7,2.6
				C301.9,151.7,302.3,154.4,302.3,154.4z"/>
		</g>
		<g id="XMLID_8211_">
			<path id="XMLID_8212_" class="st0" d="M308.9,156.9c0,0,1.7-3.6,1.7-3.6c0,0,0.5-3.7,0.5-3.7s-1.6,3.5-1.6,3.5
				C309.5,153.1,308.9,156.9,308.9,156.9z"/>
		</g>
		<g id="XMLID_8209_">
			<path id="XMLID_8210_" class="st0" d="M302.7,161.2c0,0,2.4-3,2.4-3c0,0,1.3-3.2,1.3-3.2s-2.3,2.9-2.3,2.9
				C304.1,157.9,302.7,161.2,302.7,161.2z"/>
		</g>
		<g id="XMLID_8207_">
			<path id="XMLID_8208_" class="st0" d="M295.3,157.1c0,0,0.5-0.7,1-1.4c0.2-0.4,0.3-0.8,0.5-1c0.1-0.3,0.2-0.5,0.2-0.5
				c0,0-0.1-0.8-0.2-1.6c-0.2-0.7-0.4-1.5-0.4-1.5s-0.1,0.7-0.1,1.5c-0.2,0.7-0.4,1.4-0.4,1.5c0,0,0,0.2,0,0.5c0,0.3-0.1,0.7-0.1,1
				C295.5,156.4,295.3,157.1,295.3,157.1z"/>
		</g>
		<g id="XMLID_8205_">
			<path id="XMLID_8206_" class="st0" d="M290,154.2c0,0,1.6-2.9,1.6-2.9c0,0,0.5-3,0.5-3s-1.6,2.8-1.6,2.8
				C290.6,151.1,290,154.2,290,154.2z"/>
		</g>
		<g id="XMLID_8203_">
			<path id="XMLID_8204_" class="st0" d="M284.6,154.7c0,0,1-4,1-4.1c0,0-0.1-4-0.1-4s-1,3.9-1,4S284.6,154.7,284.6,154.7z"/>
		</g>
		<g id="XMLID_8201_">
			<path id="XMLID_8202_" class="st0" d="M290.7,166.9c0,0,0.1-0.8,0.1-1.7c0.2-0.8,0.4-1.6,0.4-1.6c0,0,0-0.8,0-1.6
				c0.1-0.8,0.2-1.6,0.2-1.6s-0.4,0.8-0.8,1.5c-0.3,0.8-0.6,1.6-0.6,1.6c0,0,0,0.2,0.1,0.5c0,0.3,0.1,0.7,0.1,1.2
				C290.5,166,290.7,166.9,290.7,166.9z"/>
		</g>
		<g id="XMLID_8199_">
			<path id="XMLID_8200_" class="st0" d="M296.8,168c0,0,2.1-3.4,2.2-3.4c0,0,1.1-3.6,1.1-3.6s-2.1,3.3-2.1,3.3
				C297.9,164.3,296.8,168,296.8,168z"/>
		</g>
		<g id="XMLID_8197_">
			<path id="XMLID_8198_" class="st0" d="M284.5,164.4c0,0,1.3-3.2,1.4-3.2c0,0,0.2-3.3,0.2-3.3s-1.3,3.1-1.3,3.1
				C284.8,161.1,284.5,164.4,284.5,164.4z"/>
		</g>
		<g id="XMLID_8195_">
			<path id="XMLID_8196_" class="st0" d="M276.2,164.2c0,0,1.1-2.4,1.1-2.4c0,0,0-2.5,0-2.5s-1.1,2.3-1.1,2.3
				C276.2,161.7,276.2,164.2,276.2,164.2z"/>
		</g>
		<g id="XMLID_8193_">
			<path id="XMLID_8194_" class="st0" d="M273.1,166.3c0,0,0.8-3.5,0.8-3.5c0,0-0.3-3.5-0.3-3.5s-0.8,3.4-0.8,3.4
				C272.8,162.8,273.1,166.3,273.1,166.3z"/>
		</g>
		<g id="XMLID_8191_">
			<path id="XMLID_8192_" class="st0" d="M287.8,174.2c0,0,1.5-2.3,1.5-2.4c0,0,0.4-2.5,0.4-2.5s-1.4,2.3-1.5,2.3
				C288.2,171.6,287.8,174.2,287.8,174.2z"/>
		</g>
		<g id="XMLID_8189_">
			<path id="XMLID_8190_" class="st0" d="M282.9,172.3c0,0,0.6-2.7,0.6-2.7c0,0-0.6-2.7-0.6-2.7s-0.6,2.6-0.6,2.7
				C282.3,169.6,282.9,172.3,282.9,172.3z"/>
		</g>
		<g id="XMLID_8187_">
			<path id="XMLID_8188_" class="st0" d="M277.6,174.7c0,0,0.7-4.3,0.7-4.4c0,0-0.4-4.3-0.4-4.3s-0.7,4.2-0.7,4.2
				C277.2,170.3,277.6,174.7,277.6,174.7z"/>
		</g>
		<g id="XMLID_8185_">
			<path id="XMLID_8186_" class="st0" d="M279.6,182.8c0,0,2-3,2-3c0,0,0.9-3.2,0.9-3.2s-2,2.9-2,2.9
				C280.5,179.6,279.6,182.8,279.6,182.8z"/>
		</g>
		<g id="XMLID_8183_">
			<path id="XMLID_8184_" class="st0" d="M272.8,176.1c0,0,0.1-0.9,0.2-1.7c0.2-0.8,0.4-1.7,0.4-1.7c0,0,0.1-0.8,0.1-1.7
				c0.2-0.8,0.3-1.7,0.3-1.7s-0.4,0.8-0.9,1.6c-0.3,0.8-0.7,1.7-0.7,1.7c0,0,0,0.2,0,0.6c0,0.3,0.1,0.8,0.1,1.2
				C272.6,175.2,272.8,176.1,272.8,176.1z"/>
		</g>
		<g id="XMLID_8181_">
			<path id="XMLID_8182_" class="st0" d="M272.8,187.4c0,0,0.5-0.5,0.9-1c0.2-0.3,0.3-0.6,0.5-0.8c0.1-0.2,0.2-0.4,0.2-0.4
				c0,0-0.1-0.6-0.1-1.2c-0.2-0.6-0.4-1.2-0.4-1.2s-0.1,0.6-0.2,1.2c-0.2,0.6-0.4,1.1-0.4,1.1c0,0,0,0.1,0,0.4
				c0,0.2-0.1,0.5-0.1,0.8C273,186.8,272.8,187.4,272.8,187.4z"/>
		</g>
		<g id="XMLID_8179_">
			<path id="XMLID_8180_" class="st0" d="M266.8,182.3c0,0,1-4,1.1-4.1c0,0-0.1-4-0.1-4s-1,3.9-1,4
				C266.7,178.2,266.8,182.3,266.8,182.3z"/>
		</g>
		<g id="XMLID_8177_">
			<path id="XMLID_8178_" class="st0" d="M258.6,183.4c0,0,1.1-3.2,1.1-3.2c0,0,0-3.2,0-3.2s-1.1,3.1-1.1,3.1
				C258.6,180,258.6,183.4,258.6,183.4z"/>
		</g>
		<g id="XMLID_8175_">
			<path id="XMLID_8176_" class="st0" d="M256.7,182c0,0,0.7-3.9,0.7-4c0,0-0.4-3.9-0.4-3.9s-0.7,3.8-0.7,3.8
				C256.3,178,256.7,182,256.7,182z"/>
		</g>
		<g id="XMLID_8173_">
			<path id="XMLID_8174_" class="st0" d="M263.8,190.4c0,0,0.8-3.7,0.8-3.7c0,0-0.3-3.6-0.3-3.6s-0.8,3.5-0.8,3.6
				C263.5,186.7,263.8,190.4,263.8,190.4z"/>
		</g>
		<g id="XMLID_8171_">
			<path id="XMLID_8172_" class="st0" d="M269.8,189.3c0,0,1.3-2.8,1.3-2.8c0,0,0.2-2.9,0.2-2.9s-1.3,2.7-1.3,2.7
				C270,186.4,269.8,189.3,269.8,189.3z"/>
		</g>
		<g id="XMLID_8169_">
			<path id="XMLID_8170_" class="st0" d="M273,183.1c0,0,1.1-2.5,1.1-2.5c0,0,0-2.6,0-2.6s-1.1,2.4-1.1,2.5
				C273,180.5,273,183.1,273,183.1z"/>
		</g>
		<g id="XMLID_8167_">
			<path id="XMLID_8168_" class="st0" d="M266.1,198.5c0,0,0.4-0.4,0.9-0.8c0.2-0.2,0.3-0.5,0.5-0.6c0.1-0.2,0.2-0.3,0.2-0.3
				c0,0,0-0.5-0.1-1c-0.2-0.5-0.4-1-0.4-1s-0.1,0.5-0.2,1c-0.2,0.4-0.4,0.9-0.4,0.9s-0.1,0.5-0.1,1
				C266.2,198,266.1,198.5,266.1,198.5z"/>
		</g>
		<g id="XMLID_8165_">
			<path id="XMLID_8166_" class="st0" d="M259.5,197.7c0,0,1.3-3.3,1.3-3.4c0,0,0.2-3.4,0.2-3.4s-1.3,3.2-1.3,3.3
				C259.7,194.2,259.5,197.7,259.5,197.7z"/>
		</g>
		<g id="XMLID_8163_">
			<path id="XMLID_8164_" class="st0" d="M257,192.5c0,0,1.4-4.6,1.4-4.6c0,0,0.3-4.6,0.3-4.6s-1.3,4.4-1.4,4.5
				C257.2,187.9,257,192.5,257,192.5z"/>
		</g>
		<g id="XMLID_8161_">
			<path id="XMLID_8162_" class="st0" d="M253.1,194.2c0,0,0.7-4.7,0.7-4.8c0,0-0.4-4.7-0.4-4.7s-0.7,4.6-0.7,4.6
				C252.7,189.4,253.1,194.2,253.1,194.2z"/>
		</g>
		<g id="XMLID_8159_">
			<path id="XMLID_8160_" class="st0" d="M255,206.1c0,0,1.8-3.2,1.8-3.2c0,0,0.7-3.3,0.7-3.3s-1.8,3.1-1.8,3.1
				C255.7,202.7,255,206.1,255,206.1z"/>
		</g>
		<g id="XMLID_8157_">
			<path id="XMLID_8158_" class="st0" d="M250.4,202.3c0,0,0.7-3.9,0.7-4c0,0-0.4-3.9-0.4-3.9s-0.7,3.8-0.7,3.8
				C250.1,198.3,250.4,202.3,250.4,202.3z"/>
		</g>
		<g id="XMLID_8155_">
			<path id="XMLID_8156_" class="st0" d="M246.3,200.9c0,0,1.3-3.1,1.3-3.1c0,0,0.2-3.1,0.2-3.1s-1.3,3-1.3,3
				C246.5,197.7,246.3,200.9,246.3,200.9z"/>
		</g>
		<g id="XMLID_8153_">
			<path id="XMLID_8154_" class="st0" d="M246.7,212.3c0,0,0.5-0.6,1.1-1.1c0.2-0.3,0.4-0.6,0.6-0.9c0.2-0.2,0.3-0.4,0.3-0.4
				c0,0,0-0.7,0.1-1.4c-0.1-0.7-0.2-1.3-0.2-1.3s-0.2,0.6-0.3,1.3c-0.3,0.6-0.6,1.2-0.6,1.2c0,0,0,0.2-0.1,0.4
				c-0.1,0.2-0.1,0.6-0.2,0.9C247,211.7,246.7,212.3,246.7,212.3z"/>
		</g>
		<g id="XMLID_8151_">
			<path id="XMLID_8152_" class="st0" d="M241.5,212.3c0,0,0.5-0.6,1.1-1.1c0.2-0.3,0.4-0.6,0.6-0.9c0.2-0.2,0.3-0.4,0.3-0.4
				c0,0,0-0.7,0.1-1.4c-0.1-0.7-0.2-1.3-0.2-1.3s-0.2,0.6-0.3,1.3c-0.3,0.6-0.6,1.2-0.6,1.2c0,0,0,0.2-0.1,0.4
				c-0.1,0.2-0.1,0.6-0.2,0.9C241.8,211.7,241.5,212.3,241.5,212.3z"/>
		</g>
		<g id="XMLID_8149_">
			<path id="XMLID_8150_" class="st0" d="M240.7,206.3c0,0-0.2-0.7-0.3-1.4c0-0.3,0-0.7,0-0.9c0-0.3,0-0.4,0-0.4
				c0,0-0.2-0.7-0.3-1.3c0-0.7-0.1-1.3-0.1-1.3s-0.3,0.7-0.5,1.3c-0.1,0.7-0.2,1.4-0.2,1.4c0,0,0.1,0.2,0.2,0.5
				c0.1,0.3,0.3,0.6,0.4,0.9C240.2,205.7,240.7,206.3,240.7,206.3z"/>
		</g>
		<g id="XMLID_8147_">
			<path id="XMLID_8148_" class="st0" d="M247.8,195c0,0,1.5-2.3,1.5-2.3c0,0,0.4-2.5,0.4-2.5s-1.5,2.2-1.5,2.3S247.8,195,247.8,195
				z"/>
		</g>
		<g id="XMLID_8145_">
			<path id="XMLID_8146_" class="st0" d="M241.7,200.9c0,0,0.8-2.4,0.8-2.4c0,0-0.3-2.4-0.3-2.4s-0.8,2.3-0.8,2.4
				C241.4,198.5,241.7,200.9,241.7,200.9z"/>
		</g>
		<g id="XMLID_8143_">
			<path id="XMLID_8144_" class="st0" d="M243.6,207.4c0,0,0.5-0.6,0.9-1.2c0.2-0.3,0.4-0.6,0.5-0.9c0.1-0.2,0.2-0.4,0.2-0.4
				s0-0.7,0-1.4c-0.1-0.7-0.2-1.3-0.2-1.3s-0.2,0.6-0.4,1.3c-0.3,0.6-0.6,1.2-0.6,1.2s-0.1,0.7-0.2,1.3
				C243.8,206.8,243.6,207.4,243.6,207.4z"/>
		</g>
		<g id="XMLID_8141_">
			<path id="XMLID_8142_" class="st0" d="M239.2,216.3c0,0,1.1-1.8,1.1-1.8c0,0,0-1.9,0-1.9s-1.1,1.8-1.1,1.8
				C239.2,214.3,239.2,216.3,239.2,216.3z"/>
		</g>
		<g id="XMLID_8139_">
			<path id="XMLID_8140_" class="st0" d="M233.9,208c0,0,1.1-4.2,1.1-4.2c0,0,0-4.2,0-4.2s-1.1,4.1-1.1,4.1
				C233.9,203.7,233.9,208,233.9,208z"/>
		</g>
		<g id="XMLID_8137_">
			<path id="XMLID_8138_" class="st0" d="M228.3,213.9c0,0,1.7-4,1.7-4c0,0,0.6-4.1,0.6-4.1s-1.6,3.9-1.6,3.9
				C228.9,209.7,228.3,213.9,228.3,213.9z"/>
		</g>
		<g id="XMLID_8135_">
			<path id="XMLID_8136_" class="st0" d="M231.3,215.8c0,0,1.7-4,1.7-4c0,0,0.6-4.1,0.6-4.1s-1.6,3.9-1.6,3.9
				C231.9,211.7,231.3,215.8,231.3,215.8z"/>
		</g>
		<g id="XMLID_8133_">
			<path id="XMLID_8134_" class="st0" d="M235.4,214.7c0,0,2-2.9,2-2.9c0,0,0.9-3.1,0.9-3.1s-1.9,2.8-2,2.8
				C236.4,211.6,235.4,214.7,235.4,214.7z"/>
		</g>
		<g id="XMLID_8131_">
			<path id="XMLID_8132_" class="st0" d="M230.1,222.3c0,0,0.9-3.5,0.9-3.5c0,0-0.2-3.5-0.2-3.5s-0.9,3.4-0.9,3.4
				C229.9,218.7,230.1,222.3,230.1,222.3z"/>
		</g>
		<g id="XMLID_8129_">
			<path id="XMLID_8130_" class="st0" d="M242.2,217.4c0,0,0.7-0.8,1.4-1.7c0.3-0.4,0.6-0.9,0.8-1.2c0.2-0.3,0.4-0.6,0.4-0.6
				c0,0,0.2-1,0.5-1.9c0.1-0.9,0.3-1.9,0.3-1.9s-0.4,0.9-0.8,1.8c-0.5,0.9-1,1.8-1,1.8c0,0-0.3,1-0.7,1.9
				C242.6,216.5,242.2,217.4,242.2,217.4z"/>
		</g>
		<g id="XMLID_8127_">
			<path id="XMLID_8128_" class="st0" d="M236.9,222.5c0,0,0.7-1.7,0.7-1.8c0,0-0.4-1.8-0.4-1.8s-0.7,1.7-0.7,1.7
				C236.5,220.7,236.9,222.5,236.9,222.5z"/>
		</g>
		<g id="XMLID_8125_">
			<path id="XMLID_8126_" class="st0" d="M259,204.4c0,0,0.6-0.5,1.2-1c0.2-0.3,0.5-0.5,0.7-0.8c0.2-0.2,0.3-0.4,0.3-0.4
				c0,0,0.1-0.6,0.2-1.3c0-0.6-0.1-1.2-0.1-1.2s-0.2,0.6-0.4,1.2c-0.3,0.5-0.7,1.1-0.7,1.1c0,0-0.1,0.2-0.1,0.4
				c-0.1,0.2-0.2,0.5-0.3,0.8C259.3,203.9,259,204.4,259,204.4z"/>
		</g>
		<g id="XMLID_8123_">
			<path id="XMLID_8124_" class="st0" d="M252.2,204.4c0,0,0.6-1.5,0.6-1.5s-0.6-1.5-0.6-1.5s-0.6,1.5-0.6,1.5
				S252.2,204.4,252.2,204.4z"/>
		</g>
		<g id="XMLID_8121_">
			<path id="XMLID_8122_" class="st0" d="M269.8,193.9c0,0,1.6-1.3,1.6-1.3s0.6-1.7,0.6-1.7s-1.5,1.3-1.5,1.3
				S269.8,193.9,269.8,193.9z"/>
		</g>
		<g id="XMLID_8119_">
			<path id="XMLID_8120_" class="st0" d="M266.1,193.6c0,0,0.7-1.5,0.7-1.5c0,0-0.4-1.5-0.4-1.5s-0.7,1.4-0.7,1.4
				C265.7,192.1,266.1,193.6,266.1,193.6z"/>
		</g>
		<g id="XMLID_8117_">
			<path id="XMLID_8118_" class="st0" d="M268.3,187c0,0,0.7-1.5,0.7-1.5c0,0-0.4-1.5-0.4-1.5s-0.7,1.4-0.7,1.4
				C267.9,185.5,268.3,187,268.3,187z"/>
		</g>
		<g id="XMLID_8115_">
			<path id="XMLID_8116_" class="st0" d="M226.8,208.8c0,0,1.1-2.1,1.1-2.1c0,0,0-2.2,0-2.2s-1.1,2-1.1,2.1
				C226.8,206.5,226.8,208.8,226.8,208.8z"/>
		</g>
		<g id="XMLID_8113_">
			<path id="XMLID_8114_" class="st0" d="M225.3,221.2c0,0,1.3-2.1,1.3-2.1c0,0,0.2-2.2,0.2-2.2s-1.3,2-1.3,2
				C225.5,218.9,225.3,221.2,225.3,221.2z"/>
		</g>
		<g id="XMLID_8111_">
			<path id="XMLID_8112_" class="st0" d="M225,227.1c0,0,1.1-1.2,1.1-1.3c0,0,0-1.4,0-1.4s-1.1,1.2-1.1,1.2
				C225,225.7,225,227.1,225,227.1z"/>
		</g>
		<g id="XMLID_8109_">
			<path id="XMLID_8110_" class="st0" d="M227.6,227.4c0,0,0.8-0.6,1.6-1.1c0.3-0.3,0.7-0.7,0.9-0.9c0.3-0.3,0.4-0.4,0.4-0.4
				c0,0,0.1-0.2,0.1-0.5c0.1-0.3,0.2-0.7,0.3-1.1c0-0.8,0-1.6,0-1.6s-0.3,0.7-0.6,1.5c-0.5,0.7-0.9,1.4-0.9,1.4c0,0-0.1,0.2-0.2,0.5
				c-0.1,0.3-0.3,0.6-0.5,1C228.1,226.7,227.6,227.4,227.6,227.4z"/>
		</g>
		<g id="XMLID_8107_">
			<path id="XMLID_8108_" class="st0" d="M219.3,228.5c0,0,0.9-1.4,0.9-1.4c0,0-0.2-1.5-0.2-1.5s-0.9,1.4-0.9,1.4
				C219.2,226.9,219.3,228.5,219.3,228.5z"/>
		</g>
		<g id="XMLID_8105_">
			<path id="XMLID_8106_" class="st0" d="M220.8,218.8c0,0,1.7-3.2,1.7-3.2c0,0,0.6-3.3,0.6-3.3s-1.6,3.1-1.6,3.1
				C221.4,215.4,220.8,218.8,220.8,218.8z"/>
		</g>
		<g id="XMLID_8103_">
			<path id="XMLID_8104_" class="st0" d="M219.7,213.4c0,0,0.8-0.9,1.6-1.8c0.3-0.5,0.7-1,1-1.3c0.3-0.4,0.4-0.6,0.4-0.6
				c0,0,0.3-1,0.7-2.1c0.2-1,0.4-2,0.4-2s-0.5,1-1,1.9c-0.6,0.9-1.2,1.9-1.2,1.9c0,0-0.4,1-0.9,2
				C220.2,212.4,219.7,213.4,219.7,213.4z"/>
		</g>
		<g id="XMLID_8101_">
			<path id="XMLID_8102_" class="st0" d="M214.2,211.8c0,0,1.8-3.2,1.8-3.2c0,0,0.7-3.3,0.7-3.3s-1.8,3.1-1.8,3.1
				C214.9,208.4,214.2,211.8,214.2,211.8z"/>
		</g>
		<g id="XMLID_8099_">
			<path id="XMLID_8100_" class="st0" d="M209.9,213.1c0,0,0.8-3.7,0.8-3.7c0,0-0.3-3.6-0.3-3.6s-0.8,3.5-0.8,3.6
				C209.6,209.4,209.9,213.1,209.9,213.1z"/>
		</g>
		<g id="XMLID_8097_">
			<path id="XMLID_8098_" class="st0" d="M205.5,210.1c0,0,0.1-2.8,0.1-2.8c0,0-0.9-2.6-0.9-2.6s-0.2,2.7-0.2,2.7
				C204.5,207.4,205.5,210.1,205.5,210.1z"/>
		</g>
		<g id="XMLID_8095_">
			<path id="XMLID_8096_" class="st0" d="M216.6,220.7c0,0,0.9-2.4,0.9-2.4c0,0-0.2-2.4-0.2-2.4s-0.9,2.3-0.9,2.3
				S216.6,220.7,216.6,220.7z"/>
		</g>
		<g id="XMLID_8093_">
			<path id="XMLID_8094_" class="st0" d="M212.2,221.5c0,0,0.1-0.7,0.1-1.4c0.1-0.3,0.2-0.7,0.2-0.9c0.1-0.3,0.1-0.4,0.1-0.4
				c0,0,0-0.7,0-1.3c0.1-0.7,0.3-1.3,0.3-1.3s-0.4,0.6-0.8,1.2c-0.3,0.7-0.6,1.3-0.6,1.3c0,0,0,0.2,0.1,0.5c0,0.3,0.1,0.6,0.1,1
				C212,220.8,212.2,221.5,212.2,221.5z"/>
		</g>
		<g id="XMLID_8091_">
			<path id="XMLID_8092_" class="st0" d="M209.6,222.8c0,0,0.6-2.6,0.6-2.6c0,0-0.6-2.5-0.6-2.5s-0.6,2.5-0.6,2.5
				C209.1,220.2,209.6,222.8,209.6,222.8z"/>
		</g>
		<g id="XMLID_8089_">
			<path id="XMLID_8090_" class="st0" d="M215.2,231.2c0,0,1.5-2.6,1.5-2.6c0,0,0.4-2.8,0.4-2.8s-1.4,2.5-1.5,2.6
				C215.6,228.4,215.2,231.2,215.2,231.2z"/>
		</g>
		<g id="XMLID_8087_">
			<path id="XMLID_8088_" class="st0" d="M220.5,225c0,0,1.6-1.6,1.7-1.6c0,0,0.6-1.9,0.6-1.9s-1.6,1.5-1.6,1.6
				C221.2,223.1,220.5,225,220.5,225z"/>
		</g>
		<g id="XMLID_8085_">
			<path id="XMLID_8086_" class="st0" d="M217.6,223.8c0,0,1.6-1.6,1.7-1.6c0,0,0.6-1.9,0.6-1.9s-1.6,1.5-1.6,1.6
				C218.3,221.9,217.6,223.8,217.6,223.8z"/>
		</g>
		<g id="XMLID_8083_">
			<path id="XMLID_8084_" class="st0" d="M208.2,230.7c0,0,1.1-2.2,1.1-2.3c0,0,0-2.3,0-2.3s-1.1,2.2-1.1,2.2
				C208.2,228.3,208.2,230.7,208.2,230.7z"/>
		</g>
		<g id="XMLID_8081_">
			<path id="XMLID_8082_" class="st0" d="M203.6,231.2c0,0,0.6-2.2,0.6-2.2s-0.6-2.1-0.6-2.1s-0.6,2.1-0.6,2.1
				S203.6,231.2,203.6,231.2z"/>
		</g>
		<g id="XMLID_8079_">
			<path id="XMLID_8080_" class="st0" d="M204.1,222.1c0,0,0.5-0.5,0.9-1c0.2-0.3,0.4-0.5,0.5-0.7c0.1-0.2,0.2-0.3,0.2-0.4
				c0,0,0-0.6,0-1.2c-0.1-0.6-0.3-1.1-0.3-1.1s-0.1,0.5-0.3,1.1c-0.2,0.5-0.5,1-0.5,1c0,0,0,0.1,0,0.4c0,0.2-0.1,0.5-0.1,0.8
				C204.3,221.5,204.1,222.1,204.1,222.1z"/>
		</g>
		<g id="XMLID_8077_">
			<path id="XMLID_8078_" class="st0" d="M198.1,215.5c0,0,1.3-4.2,1.3-4.2c0,0,0.2-4.2,0.2-4.2s-1.3,4-1.3,4.1
				C198.4,211.3,198.1,215.5,198.1,215.5z"/>
		</g>
		<g id="XMLID_8075_">
			<path id="XMLID_8076_" class="st0" d="M201.1,215.8c0,0,1.1-1.1,1.1-1.1c0,0,0.1-1.3,0.1-1.3s-1.1,1-1.1,1.1
				C201.2,214.5,201.1,215.8,201.1,215.8z"/>
		</g>
		<g id="XMLID_8073_">
			<path id="XMLID_8074_" class="st0" d="M193.3,209.9c0,0,0.9-2.5,0.9-2.6c0,0-0.2-2.6-0.2-2.6s-0.9,2.5-0.9,2.5
				C193.1,207.2,193.3,209.9,193.3,209.9z"/>
		</g>
		<g id="XMLID_8071_">
			<path id="XMLID_8072_" class="st0" d="M189.1,205.5c0,0,0.9-2.1,0.9-2.2c0,0-0.2-2.2-0.2-2.2s-0.9,2.1-0.9,2.1
				C188.9,203.3,189.1,205.5,189.1,205.5z"/>
		</g>
		<g id="XMLID_8069_">
			<path id="XMLID_8070_" class="st0" d="M186.5,204.4c0,0,0.2-1.7,0.2-1.7c0,0-0.9-1.5-0.9-1.5s-0.2,1.6-0.2,1.7
				C185.5,202.9,186.5,204.4,186.5,204.4z"/>
		</g>
		<g id="XMLID_8067_">
			<path id="XMLID_8068_" class="st0" d="M196.7,223.4c0,0,1.7-3.3,1.7-3.3c0,0,0.6-3.4,0.6-3.4s-1.7,3.2-1.7,3.2
				C197.3,219.9,196.7,223.4,196.7,223.4z"/>
		</g>
		<g id="XMLID_8065_">
			<path id="XMLID_8066_" class="st0" d="M191.2,219c0,0,1-2.8,1-2.8c0,0-0.2-2.8-0.2-2.8s-0.9,2.7-0.9,2.8
				C191.1,216.1,191.2,219,191.2,219z"/>
		</g>
		<g id="XMLID_8063_">
			<path id="XMLID_8064_" class="st0" d="M189.6,213c0,0,1-2.8,1-2.8c0,0-0.2-2.8-0.2-2.8s-0.9,2.7-0.9,2.8
				C189.4,210.1,189.6,213,189.6,213z"/>
		</g>
		<g id="XMLID_8061_">
			<path id="XMLID_8062_" class="st0" d="M188.3,219.8c0,0,0.7-3.8,0.7-3.8c0,0-0.4-3.7-0.4-3.7s-0.7,3.7-0.7,3.7
				C187.8,216,188.3,219.8,188.3,219.8z"/>
		</g>
		<g id="XMLID_8059_">
			<path id="XMLID_8060_" class="st0" d="M185.4,216.4c0,0,0.7-3.8,0.7-3.8c0,0-0.4-3.7-0.4-3.7s-0.7,3.7-0.7,3.7
				C185,212.6,185.4,216.4,185.4,216.4z"/>
		</g>
		<g id="XMLID_8057_">
			<path id="XMLID_8058_" class="st0" d="M198.8,231.5c0,0,2-2.9,2-2.9c0,0,1-3.1,1-3.1s-2,2.8-2,2.8
				C199.8,228.4,198.8,231.5,198.8,231.5z"/>
		</g>
		<g id="XMLID_8055_">
			<path id="XMLID_8056_" class="st0" d="M191.4,229.6c0,0,1.5-3.5,1.5-3.5c0,0,0.4-3.5,0.4-3.5s-1.5,3.4-1.5,3.4
				C191.8,226,191.4,229.6,191.4,229.6z"/>
		</g>
		<g id="XMLID_8053_">
			<path id="XMLID_8054_" class="st0" d="M189.1,230.7c0,0,0.9-2.5,0.9-2.6c0,0-0.2-2.6-0.2-2.6s-0.9,2.5-0.9,2.5
				C188.9,228,189.1,230.7,189.1,230.7z"/>
		</g>
		<g id="XMLID_8051_">
			<path id="XMLID_8052_" class="st0" d="M184.6,230c0,0,0.9-2.5,0.9-2.6c0,0-0.2-2.6-0.2-2.6s-0.9,2.5-0.9,2.5
				C184.4,227.4,184.6,230,184.6,230z"/>
		</g>
		<g id="XMLID_8049_">
			<path id="XMLID_8050_" class="st0" d="M195.1,232.6c0,0,0.7-0.5,1.4-1c0.3-0.3,0.6-0.6,0.8-0.9c0.2-0.2,0.4-0.4,0.4-0.4
				c0,0,0-0.2,0.1-0.5c0-0.3,0.1-0.6,0.1-1c-0.1-0.7-0.2-1.4-0.2-1.4s-0.2,0.7-0.4,1.3c-0.4,0.6-0.7,1.2-0.7,1.2
				c0,0-0.1,0.2-0.2,0.4c-0.1,0.2-0.2,0.6-0.4,0.9C195.5,231.9,195.1,232.6,195.1,232.6z"/>
		</g>
		<g id="XMLID_8047_">
			<path id="XMLID_8048_" class="st0" d="M187.9,224.4c0,0,0.6-2.7,0.6-2.7c0,0-0.6-2.7-0.6-2.7s-0.6,2.6-0.6,2.7
				C187.4,221.7,187.9,224.4,187.9,224.4z"/>
		</g>
		<g id="XMLID_8045_">
			<path id="XMLID_8046_" class="st0" d="M186.1,223.5c0,0,0.6-2.7,0.6-2.7c0,0-0.6-2.7-0.6-2.7s-0.6,2.6-0.6,2.7
				C185.5,220.8,186.1,223.5,186.1,223.5z"/>
		</g>
		<g id="XMLID_8043_">
			<path id="XMLID_8044_" class="st0" d="M186.1,233.4c0,0,0.6-1,0.6-1c0,0-0.6-0.9-0.6-0.9s-0.6,0.9-0.6,0.9
				C185.5,232.4,186.1,233.4,186.1,233.4z"/>
		</g>
		<g id="XMLID_8041_">
			<path id="XMLID_8042_" class="st0" d="M269.9,172.3c0,0,0.7-3.4,0.7-3.4c0,0-0.4-3.3-0.4-3.3s-0.7,3.3-0.7,3.3
				C269.5,168.9,269.9,172.3,269.9,172.3z"/>
		</g>
		<g id="XMLID_8039_">
			<path id="XMLID_8040_" class="st0" d="M301.2,148.5c0,0,0.6-0.7,1.2-1.4c0.2-0.4,0.4-0.8,0.6-1.1c0.2-0.3,0.3-0.5,0.3-0.5
				c0,0,0-0.8-0.1-1.7c-0.2-0.8-0.5-1.6-0.5-1.6s0,0.8-0.1,1.6c-0.2,0.8-0.4,1.5-0.4,1.5c0,0,0,0.2-0.1,0.5
				c-0.1,0.3-0.1,0.7-0.2,1.1C301.6,147.7,301.2,148.5,301.2,148.5z"/>
		</g>
		<g id="XMLID_8037_">
			<path id="XMLID_8038_" class="st0" d="M295.6,143.1c0,0,0.2-2,0.2-2c0,0-0.9-1.8-0.9-1.8s-0.2,1.9-0.2,1.9
				C294.7,141.2,295.6,143.1,295.6,143.1z"/>
		</g>
		<g id="XMLID_8035_">
			<path id="XMLID_8036_" class="st0" d="M310.6,149.8c0,0,0.9-1.7,0.9-1.7c0,0-0.2-1.8-0.2-1.8s-0.9,1.7-0.9,1.7
				C310.4,148,310.6,149.8,310.6,149.8z"/>
		</g>
		<g id="XMLID_8033_">
			<path id="XMLID_8034_" class="st0" d="M311.7,142.3c0,0,0.1-0.3,0.2-0.7c0.2-0.3,0.4-0.5,0.4-0.5s0.1-0.3,0.1-0.6
				c0.2-0.3,0.4-0.6,0.4-0.6s-0.4,0.2-0.8,0.4c-0.3,0.2-0.7,0.6-0.7,0.6s0,0.4,0,0.8C311.5,142,311.7,142.3,311.7,142.3z"/>
		</g>
		<g id="XMLID_8031_">
			<path id="XMLID_8032_" class="st0" d="M319.2,139.6c0,0,2.2-2,2.2-2c0,0,1.2-2.3,1.2-2.3s-2.1,1.9-2.1,1.9
				C320.4,137.2,319.2,139.6,319.2,139.6z"/>
		</g>
		<g id="XMLID_8029_">
			<path id="XMLID_8030_" class="st0" d="M304,130.1c0,0,1.7-2.1,1.7-2.1c0,0,0.7-2.3,0.7-2.3s-1.7,2-1.7,2
				C304.7,127.8,304,130.1,304,130.1z"/>
		</g>
		<g id="XMLID_8027_">
			<path id="XMLID_8028_" class="st0" d="M300.5,127.1c0,0,1.3-2.5,1.3-2.5c0,0,0.2-2.6,0.2-2.6s-1.2,2.4-1.2,2.5
				S300.5,127.1,300.5,127.1z"/>
		</g>
		<g id="XMLID_8025_">
			<path id="XMLID_8026_" class="st0" d="M298.2,127.1c0,0,0.6-2.3,0.6-2.3c0,0-0.6-2.3-0.6-2.3s-0.6,2.2-0.6,2.3
				C297.7,124.8,298.2,127.1,298.2,127.1z"/>
		</g>
		<g id="XMLID_8023_">
			<path id="XMLID_8024_" class="st0" d="M299.7,145.2c0,0,0.6-2.3,0.6-2.3c0,0-0.6-2.3-0.6-2.3s-0.6,2.2-0.6,2.3
				C299.2,142.9,299.7,145.2,299.7,145.2z"/>
		</g>
		<g id="XMLID_8021_">
			<path id="XMLID_8022_" class="st0" d="M232.4,220.1c0,0,0.6-0.4,1.1-0.8c0.5-0.4,1-0.9,1-0.9s0.2-0.5,0.3-1.1
				c0.1-0.5,0.2-1.1,0.2-1.1s-0.3,0.5-0.7,0.9c-0.4,0.4-0.8,0.9-0.8,0.9s-0.2,0.5-0.5,1C232.8,219.6,232.4,220.1,232.4,220.1z"/>
		</g>
		<g id="XMLID_8019_">
			<path id="XMLID_8020_" class="st0" d="M218.8,212.6c0,0,1.6-2,1.6-2.1c0,0,0.6-2.3,0.6-2.3s-1.6,2-1.6,2
				C219.4,210.3,218.8,212.6,218.8,212.6z"/>
		</g>
		<g id="XMLID_8017_">
			<path id="XMLID_8018_" class="st0" d="M208.9,216.3c0,0,0.5-0.5,1.1-1c0.2-0.3,0.4-0.6,0.6-0.8c0.2-0.2,0.3-0.4,0.3-0.4
				c0,0,0.1-0.6,0.1-1.3c-0.1-0.6-0.1-1.2-0.1-1.2s-0.2,0.6-0.4,1.2c-0.3,0.5-0.6,1.1-0.6,1.1c0,0,0,0.2-0.1,0.4
				c-0.1,0.2-0.1,0.5-0.2,0.8C209.1,215.8,208.9,216.3,208.9,216.3z"/>
		</g>
		<g id="XMLID_8015_">
			<path id="XMLID_8016_" class="st0" d="M201.8,215.3c0,0,0.8-2.6,0.8-2.6c0,0-0.4-2.6-0.4-2.6s-0.7,2.5-0.7,2.5
				C201.5,212.6,201.8,215.3,201.8,215.3z"/>
		</g>
		<g id="XMLID_8013_">
			<path id="XMLID_8014_" class="st0" d="M208.7,227.1c0,0,0.1-0.1,0.3-0.2c0.2-0.1,0.4-0.3,0.6-0.5c0.1-0.1,0.2-0.2,0.3-0.3
				c0-0.1,0.1-0.2,0.1-0.3c0.1-0.2,0.1-0.3,0.1-0.3c0,0-0.2-0.3-0.4-0.7l-1.3-2.2l0.5,2.3c0.1,0.5,0.3,1.1,0.3,1.1s0.3-0.6,0.5-1.1
				c-0.3,0-0.5,0.1-0.7,0.1c0,0.4,0,0.6,0,0.6c0,0,0,0.1,0.1,0.2c0,0.1,0,0.2,0.1,0.3c0,0.1,0,0.2,0,0.3c0,0.2-0.1,0.4-0.2,0.6
				C208.8,226.9,208.7,227.1,208.7,227.1z"/>
		</g>
		<g id="XMLID_8011_">
			<path id="XMLID_8012_" class="st0" d="M211.3,228.8c0,0,2.3-2.6,2.4-2.6c0,0,1.3-2.9,1.3-2.9s-2.3,2.5-2.3,2.5
				C212.6,225.9,211.3,228.8,211.3,228.8z"/>
		</g>
		<g id="XMLID_8009_">
			<path id="XMLID_8010_" class="st0" d="M202.6,226.7c0,0,0.8-0.1,1.5-0.5c0.7-0.3,1.2-0.8,1.2-0.8s0.3-0.6,0.3-1.2
				c0-0.6-0.2-1.1-0.2-1.1s-0.1,0.5-0.4,1c-0.3,0.5-0.8,0.9-0.8,0.9s-0.2,0.5-0.7,0.9C203.2,226.3,202.6,226.7,202.6,226.7z"/>
		</g>
		<g id="XMLID_8007_">
			<path id="XMLID_8008_" class="st0" d="M197.3,226.4c0,0,0.5-0.2,1-0.4c0.2-0.2,0.4-0.3,0.6-0.4c0.2-0.1,0.3-0.2,0.3-0.2
				c0,0,0.1-0.5,0.1-0.9c-0.1-0.4-0.2-0.8-0.2-0.8s-0.2,0.4-0.4,0.7c-0.3,0.3-0.6,0.6-0.6,0.6s-0.1,0.3-0.3,0.7
				C197.6,226,197.3,226.4,197.3,226.4z"/>
		</g>
		<g id="XMLID_8005_">
			<path id="XMLID_8006_" class="st0" d="M192.1,232.6c0,0,0.5-0.2,1-0.4c0.2-0.2,0.4-0.3,0.6-0.4c0.2-0.1,0.3-0.2,0.3-0.2
				c0,0,0.1-0.5,0.1-0.9c-0.1-0.4-0.2-0.8-0.2-0.8s-0.2,0.4-0.4,0.7c-0.3,0.3-0.6,0.6-0.6,0.6s-0.1,0.3-0.3,0.7
				C192.4,232.2,192.1,232.6,192.1,232.6z"/>
		</g>
		<g id="XMLID_8003_">
			<path id="XMLID_8004_" class="st0" d="M194.7,221.5c0,0,1.2-2.9,1.2-3c0,0,0.1-3,0.1-3s-1.2,2.8-1.2,2.9
				C194.9,218.4,194.7,221.5,194.7,221.5z"/>
		</g>
		<g id="XMLID_8001_">
			<path id="XMLID_8002_" class="st0" d="M196.5,210.7c0,0,1.1-2.9,1.1-3c0,0,0-3,0-3s-1.1,2.8-1.1,2.9
				C196.5,207.6,196.5,210.7,196.5,210.7z"/>
		</g>
		<g id="XMLID_7999_">
			<path id="XMLID_8000_" class="st0" d="M255.6,198.5c0,0,0.6-1.2,0.6-1.2s-0.6-1.2-0.6-1.2s-0.6,1.2-0.6,1.2
				S255.6,198.5,255.6,198.5z"/>
		</g>
		<g id="XMLID_7997_">
			<path id="XMLID_7998_" class="st0" d="M258.6,195.1c0,0,0.6-1.2,0.6-1.2c0,0-0.6-1.2-0.6-1.2s-0.6,1.2-0.6,1.2
				C258,193.9,258.6,195.1,258.6,195.1z"/>
		</g>
		<g id="XMLID_7995_">
			<path id="XMLID_7996_" class="st0" d="M261.6,199.8c0,0,2-1.7,2-1.7c0,0,1-2.1,1-2.1s-1.9,1.6-2,1.7
				C262.6,197.7,261.6,199.8,261.6,199.8z"/>
		</g>
		<g id="XMLID_7993_">
			<path id="XMLID_7994_" class="st0" d="M251.1,211.7c0,0,1.3-2.1,1.3-2.1c0,0,0.2-2.2,0.2-2.2s-1.3,2-1.3,2
				S251.1,211.7,251.1,211.7z"/>
		</g>
		<g id="XMLID_7991_">
			<path id="XMLID_7992_" class="st0" d="M247.9,206.6c0,0,1.3-2.1,1.3-2.1c0,0,0.2-2.2,0.2-2.2s-1.3,2-1.3,2
				C248.2,204.3,247.9,206.6,247.9,206.6z"/>
		</g>
		<g id="XMLID_7989_">
			<path id="XMLID_7990_" class="st0" d="M284.8,179.6c0,0,2.2-2.1,2.2-2.1c0,0,1.2-2.5,1.2-2.5s-2.1,2.1-2.1,2.1
				C286,177.1,284.8,179.6,284.8,179.6z"/>
		</g>
		<g id="XMLID_7987_">
			<path id="XMLID_7988_" class="st0" d="M276.6,180.1c0,0,0.6-0.7,1.1-1.3c0.2-0.4,0.4-0.7,0.6-1c0.2-0.3,0.3-0.5,0.3-0.5
				c0,0,0-0.8-0.1-1.6c-0.2-0.8-0.4-1.5-0.4-1.5s-0.1,0.7-0.1,1.5c-0.2,0.7-0.5,1.4-0.5,1.5c0,0,0,0.2-0.1,0.5c0,0.3-0.1,0.7-0.2,1
				C276.9,179.4,276.6,180.1,276.6,180.1z"/>
		</g>
		<g id="XMLID_7985_">
			<path id="XMLID_7986_" class="st0" d="M264.3,178c0,0,1.1-1.7,1.1-1.7c0,0,0-1.8,0-1.8s-1.1,1.6-1.1,1.6
				C264.4,176.1,264.3,178,264.3,178z"/>
		</g>
		<g id="XMLID_7983_">
			<path id="XMLID_7984_" class="st0" d="M293.5,171.8c0,0,1.1-1.5,1.1-1.6c0,0,0-1.7,0-1.7s-1.1,1.5-1.1,1.5
				C293.5,170,293.5,171.8,293.5,171.8z"/>
		</g>
		<g id="XMLID_7981_">
			<path id="XMLID_7982_" class="st0" d="M295.6,163.6c0,0,1.1-1.5,1.1-1.5c0,0,0-1.7,0-1.7s-1.1,1.5-1.1,1.5
				C295.6,161.9,295.6,163.6,295.6,163.6z"/>
		</g>
		<g id="XMLID_7979_">
			<path id="XMLID_7980_" class="st0" d="M302,159.8c0,0,0.1-0.7,0.2-1.3c0.2-0.6,0.4-1.3,0.4-1.3s0-0.6,0-1.3
				c0.1-0.6,0.2-1.3,0.2-1.3s-0.4,0.6-0.8,1.2c-0.3,0.6-0.6,1.3-0.6,1.3c0,0,0,0.2,0.1,0.4c0,0.3,0.1,0.6,0.1,0.9
				C301.8,159.2,302,159.8,302,159.8z"/>
		</g>
		<g id="XMLID_7977_">
			<path id="XMLID_7978_" class="st0" d="M302,164.2c0,0,1.4-0.9,1.4-0.9c0,0,0.5-1.3,0.5-1.3s-1.4,0.8-1.4,0.9
				C302.4,162.9,302,164.2,302,164.2z"/>
		</g>
		<g id="XMLID_7975_">
			<path id="XMLID_7976_" class="st0" d="M291.6,159.1c0,0,2-1.9,2-1.9c0,0,1-2.2,1-2.2s-1.9,1.8-1.9,1.8
				C292.6,156.8,291.6,159.1,291.6,159.1z"/>
		</g>
		<g id="XMLID_7973_">
			<path id="XMLID_7974_" class="st0" d="M281.8,159.6c0,0,1.3-2.8,1.3-2.8c0,0,0.2-2.9,0.2-2.9s-1.3,2.7-1.3,2.7
				C282,156.6,281.8,159.6,281.8,159.6z"/>
		</g>
		<g id="XMLID_7971_">
			<path id="XMLID_7972_" class="st0" d="M277.6,161.2c0,0,0.8-1.7,0.8-1.7c0,0-0.4-1.8-0.4-1.8s-0.7,1.7-0.7,1.7
				C277.3,159.4,277.6,161.2,277.6,161.2z"/>
		</g>
		<g id="XMLID_7969_">
			<path id="XMLID_7970_" class="st0" d="M316.3,150.4c0,0,1.6-1.6,1.6-1.6c0,0,0.6-1.9,0.6-1.9s-1.6,1.6-1.6,1.6
				C316.9,148.5,316.3,150.4,316.3,150.4z"/>
		</g>
		<g id="XMLID_7967_">
			<path id="XMLID_7968_" class="st0" d="M305.8,152c0,0,0.7-2.4,0.7-2.4c0,0-0.4-2.4-0.4-2.4s-0.7,2.4-0.7,2.4
				C305.4,149.5,305.8,152,305.8,152z"/>
		</g>
		<g id="XMLID_7965_">
			<path id="XMLID_7966_" class="st0" d="M311.7,139.3c0,0,0.5-0.5,1-1.1c0.2-0.3,0.4-0.6,0.6-0.8c0.2-0.2,0.3-0.4,0.3-0.4
				s0.1-0.7,0.1-1.3c0-0.6-0.1-1.3-0.1-1.3s-0.2,0.6-0.5,1.2c-0.3,0.6-0.6,1.2-0.6,1.2s-0.1,0.6-0.3,1.3
				C311.9,138.7,311.7,139.3,311.7,139.3z"/>
		</g>
		<g id="XMLID_7963_">
			<path id="XMLID_7964_" class="st0" d="M301.6,137.9c0,0,0.6-1.6,0.6-1.6c0,0-0.6-1.6-0.6-1.6s-0.6,1.6-0.6,1.6
				C301,136.3,301.6,137.9,301.6,137.9z"/>
		</g>
		<g id="XMLID_7961_">
			<path id="XMLID_7962_" class="st0" d="M325.5,128.2c0,0,0.6-0.4,1.2-0.8c0.3-0.2,0.5-0.5,0.7-0.7c0.2-0.2,0.3-0.3,0.3-0.3
				c0,0,0.2-0.6,0.3-1.2c0-0.6,0-1.2,0-1.2s-0.3,0.5-0.5,1.1c-0.4,0.5-0.8,1-0.8,1c0,0-0.1,0.1-0.2,0.3c-0.1,0.2-0.2,0.5-0.4,0.7
				C325.9,127.7,325.5,128.2,325.5,128.2z"/>
		</g>
		<g id="XMLID_7959_">
			<path id="XMLID_7960_" class="st0" d="M313.9,129.3c0,0,0.6-1.5,0.6-1.5s-0.6-1.5-0.6-1.5s-0.6,1.5-0.6,1.5
				S313.9,129.3,313.9,129.3z"/>
		</g>
		<g id="XMLID_7957_">
			<path id="XMLID_7958_" class="st0" d="M312.1,129c0,0,0-1.4,0-1.4c0,0-1.1-1.1-1.1-1.1s0,1.3,0,1.3
				C311,127.9,312.1,129,312.1,129z"/>
		</g>
		<g id="XMLID_7955_">
			<path id="XMLID_7956_" class="st0" d="M321.1,118c0,0,1.3-1.9,1.3-2c0,0,0.2-2.1,0.2-2.1s-1.2,1.9-1.3,1.9
				C321.3,115.8,321.1,118,321.1,118z"/>
		</g>
		<g id="XMLID_7953_">
			<path id="XMLID_7954_" class="st0" d="M304.9,117.4c0,0,1.1-2.2,1.1-2.3c0,0,0-2.3,0-2.3S305,115,305,115
				C305,115,304.9,117.4,304.9,117.4z"/>
		</g>
	</g>
</g>
</svg>
