<?xml version="1.0" encoding="utf-8"?>
<!-- Generator: Adobe Illustrator 19.0.0, SVG Export Plug-In . SVG Version: 6.00 Build 0)  -->
<svg version="1.1" id="Layer_1" xmlns="http://www.w3.org/2000/svg" xmlns:xlink="http://www.w3.org/1999/xlink" x="0px" y="0px"
	 viewBox="0 0 322.5 279" style="enable-background:new 0 0 322.5 279;" xml:space="preserve">
<style type="text/css">
	.st0{fill:#EF7B05;}
</style>
<path id="Warlus_2_" class="st0" d="M205.9,155.7c0,0-1.6-11-8-15.7c-6-4.5-16.3-7.3-24.3-8.9c-1.7-0.3-4.6-0.7-6.7,0.3
	c-1.7,0.9-3.9,1.7-5.6,1.7c-1.7,0-3.9-0.9-5.6-1.7c-2.1-1-5-0.7-6.7-0.3c-8.1,1.6-18.3,4.4-24.3,8.9c-6.4,4.7-8,15.7-8,15.7
	c7.7,2.1,13.7,3.6,22.9,4.4l1.8-7.2l1.4,7.3c5.4,0.4,11.5,0.7,18.6,0.7v0c0,0,0,0,0,0c0,0,0,0,0,0v0c15.8,0,26.6-1.1,36.6-3.3
	l-0.1-5l2,4.6C201.8,156.8,203.9,156.3,205.9,155.7z"/>
</svg>
