<?xml version="1.0" encoding="utf-8"?>
<!-- Generator: Adobe Illustrator 19.0.0, SVG Export Plug-In . SVG Version: 6.00 Build 0)  -->
<svg version="1.1" id="Layer_1" xmlns="http://www.w3.org/2000/svg" xmlns:xlink="http://www.w3.org/1999/xlink" x="0px" y="0px"
	 viewBox="0 0 318 286.5" style="enable-background:new 0 0 318 286.5;" xml:space="preserve">
<style type="text/css">
	.st0{fill:#EF7B05;}
</style>
<path id="Horseshoe_2_" class="st0" d="M207,130.5c-1.9-5.1-6-9.2-11.2-11.1c-9.2-3.5-19.6-11-34.1-11v0h0h0h0v0
	c-14.5,0-24.9,7.5-34.1,11c-5.1,1.9-9.3,5.9-11.2,11.1c-2.3,6.1-4.5,15.9-4.5,30.7c0,6.4,6.2,12.8,13.3,12.8c3.2,0,3.6,0.2,3.6-1
	c0-29.7-6.1-44,14.4-44c10.4,0,16-2.5,18.5-2.5h0c2.5,0,8.1,2.5,18.5,2.5c20.5,0,14.4,13.2,14.4,44c0,1.2,0.4,1,3.6,1
	c7.1,0,13.3-6.4,13.3-12.8C211.5,146.4,209.3,136.6,207,130.5z"/>
</svg>
