<?xml version="1.0" encoding="utf-8"?>
<!-- Generator: Adobe Illustrator 19.0.0, SVG Export Plug-In . SVG Version: 6.00 Build 0)  -->
<svg version="1.1" id="Layer_1" xmlns="http://www.w3.org/2000/svg" xmlns:xlink="http://www.w3.org/1999/xlink" x="0px" y="0px"
	 viewBox="0 0 373 295.9" style="enable-background:new 0 0 373 295.9;" xml:space="preserve">
<style type="text/css">
	.st0{fill:#FFFFFF;}
	.st1{fill:#EF7B05;}
</style>
<g id="XMLID_2140_">
	<path id="XMLID_2152_" class="st0" d="M296.3,133.6c-9.7,26.9-27.4,61-47,78.6c-5,4.5-13.1,10-18.2,13.1
		c-15.4,3.8-28.2,5.7-44.2,5.5c-16.6,0.2-31.5-2.4-47.5-6.6c-4.8-3-11.5-7.8-16.2-12c-23-20.6-43.4-64.2-51.3-91.9
		c1.7,4.3,3.5,8.6,5.2,12.8c5.8,14,14.4,26.4,25.2,36.9c5.4,5.3,11.2,9.9,17.5,14.1c-0.3,8.4,1.3,13.5,1.3,13.5s2.6-4.1,7.5-8.3
		c3.7,2,7.6,3.8,11.5,5.4c12.5,5.1,25.8,7.9,39.2,8.6c1.8,3.1,3,4.2,6.7,4.2h0.5c3.7,0,4.9-1.1,6.7-4.2c14-0.5,27.8-3.3,40.9-8.6
		c3.8-1.5,7.4-3.1,11-4.9c4.4,3.9,6.8,7.7,6.8,7.7s1.4-4.6,1.3-12.2c6.7-4.1,13-8.8,18.6-14.8h-0.4
		C282,159.6,290.5,147.5,296.3,133.6z"/>
	<g id="XMLID_2141_">
		<g id="XMLID_2145_">
			<path id="XMLID_2147_" class="st1" d="M186.4,159.5c-1.2,2.6-2.8,5-4.7,7.2c-7.4,8.1-27.1,11.7-40.2,15.5
				c-5.3,1.5-9.7,4.3-13,7.2c-4.9,4.1-7.5,8.3-7.5,8.3s-1.6-5.1-1.3-13.5c0.1-2.4,0.3-5,0.8-7.8c2.1-12.9,13.7-21.7,26.1-24.2
				c12.4-2.6,18.9-11.7,27.5-13.4c6.5-1.3,10.3-1.1,12.3,0.2c0.6,0.4,1.1,1,1.4,1.7C190,145,189.6,152.6,186.4,159.5z"/>
			<path id="XMLID_2146_" class="st1" d="M251.8,197.6c0,0-2.4-3.7-6.8-7.7c-3.4-3-8-6.2-13.7-7.8c-13.1-3.8-32.8-7.4-40.2-15.5
				c-2-2.2-3.6-4.6-4.7-7.2c-3.2-6.9-3.6-14.5-1.4-18.9c0.3-0.7,0.8-1.2,1.4-1.7c2-1.4,5.8-1.5,12.3-0.2
				c8.6,1.7,15.1,10.8,27.5,13.4c12.4,2.6,24,11.3,26.1,24.2c0.5,3.4,0.8,6.4,0.8,9.1C253.2,193,251.8,197.6,251.8,197.6z"/>
		</g>
		<g id="XMLID_2142_">
			<path id="XMLID_2144_" class="st1" d="M331.6,28.7L326.9,56c0,0-9,61.5-12.3,94.1c-1.4,13.8-5.4,26.6-10.6,38.4
				c-7.1,16.2-16.4,30.5-24.2,42.7c-13.4,21.1-53.7,39.3-69.5,42.5c-15.7,3.3-23.8,3.9-23.8,3.9h-0.8c0,0-8-0.6-23.8-3.9
				c-15.7-3.3-56.1-21.4-69.5-42.5c-7.9-12.5-17.6-27.3-24.8-44.1c-4.9-11.4-8.6-23.8-10-37C54.5,117.5,47,57.6,47,57.6l-4.9-22.4
				l8.3-8c0,0,7.9,33.6,14.2,61.4c2,8.8,3.8,16.9,5.1,23.2c0.6,2.6,1.3,5.4,2.1,8.5c7.9,27.7,28.3,71.3,51.3,91.9
				c4.7,4.2,9.5,7.9,14.3,10.9c21.4,13.2,42.3,15.6,48.6,15.6h0.2c6.2,0,26.5-2.3,47.5-14.9c5.2-3.1,10.4-6.9,15.4-11.5
				c19.6-17.5,37.3-51.7,47-78.6c2.9-8.1,5.2-15.6,6.5-21.8c0.4-2,0.9-4.2,1.4-6.7c6.4-30,19.5-90.3,19.5-90.3L331.6,28.7z"/>
			<path id="XMLID_2143_" class="st1" d="M214.8,190.2c0,0-13.4,0.1-18.1,7.4c-1.6,2.5-2.7,4.3-3.6,5.8c-1.8,3-2.9,4.2-6.7,4.2H186
				c-3.8,0-4.9-1.2-6.7-4.2c-0.9-1.5-1.9-3.4-3.5-5.8c-4.8-7.3-18.1-7.4-18.1-7.4s6.2-3.7,12.6-1.6c6.4,2.1,12.7,2.4,16,2.4
				c3.3,0,9.6-0.3,16-2.4C208.6,186.5,214.8,190.2,214.8,190.2z"/>
		</g>
	</g>
</g>
</svg>
