<?xml version="1.0" encoding="utf-8"?>
<!-- Generator: Adobe Illustrator 19.0.0, SVG Export Plug-In . SVG Version: 6.00 Build 0)  -->
<svg version="1.1" id="Layer_1" xmlns="http://www.w3.org/2000/svg" xmlns:xlink="http://www.w3.org/1999/xlink" x="0px" y="0px"
	 viewBox="0 0 205.4 172.3" style="enable-background:new 0 0 205.4 172.3;" xml:space="preserve">
<style type="text/css">
	.st0{fill:#EF7B05;}
</style>
<g id="XMLID_322_">
	<path id="XMLID_606_" class="st0" d="M152.9,67.6c0,0.1-0.1,0.1-0.1,0.3c0,0.1,0,0.1-0.1,0.2c0,0.1-0.1,0.1-0.1,0.2
		C152.8,67.8,152.8,67.7,152.9,67.6z"/>
	<path id="XMLID_635_" class="st0" d="M160.6,41.4c-9-5.3-21.3-2.7-31.3-3c-7.3-0.2-24.1,1.5-24.1,1.5c-7.3-0.4-17.7-1.7-25-1.5
		c-10,0.3-22.2-2.3-31.3,3C36,49,46.3,68.4,48.9,80c5,22.6,16.3,56.6,37.6,60.8c11.8,2.3,25.3,2.3,37.1,0
		c12.5-2.4,23-22.3,27.8-36.5c2.6-7.7,7.4-15.1,9.4-24.2c0.1-0.5,0.3-1.1,0.4-1.7C164.3,65.8,173.1,48.7,160.6,41.4z M156.5,57.2
		c-0.3,4.1-2.7,7.7-3.8,10.7c0-0.1,0.1-0.2,0.1-0.3c0,0.1-0.1,0.3-0.2,0.6c0,0.1-0.1,0.2-0.1,0.3c-1.6,4.7-3.4,9.7-5.2,14.3
		c0,0,0,0.1,0,0.1c-0.2,0.4-0.4,0.9-0.5,1.3c-0.1,0.2-0.2,0.4-0.3,0.6c-0.1,0.3-0.2,0.5-0.3,0.8c-0.2,0.5-0.4,1-0.6,1.4
		c-2,4.3-5.4,8.4-9.3,10.8c-0.6,0.4-1.2,0.7-1.9,1c-0.3,0.1-0.6,0.3-0.9,0.4c-6.2,2.4-10.6,2.5-16.9,0.3c-4.6-1.6-9-5.1-11.6-9.7
		c-2.6,4.6-7,8.1-11.6,9.7c-6.5,2.2-11.4,2.1-17.7-0.3c-5-1.9-9.6-6.8-12.1-12.2c-3.8-8.4-6.3-10-8.4-19.2
		c-1.1-4.7-3.7-12.7-0.6-16.6c3-3.9,7.7-4.4,12.3-4.2c11.8,0.3,26.7,1.1,38.5,1.1c0,0,24.3-0.2,35.5-1c5.2-0.4,10.8-0.3,14.2,4.1
		C156.3,52.7,156.6,54.8,156.5,57.2z"/>
	<path id="XMLID_615_" class="st0" d="M152.9,67.6c0,0.1-0.1,0.1-0.1,0.3c0,0.1,0,0.1-0.1,0.2c-0.1,0.2-0.1,0.4-0.2,0.6
		c0,0,0-0.1,0-0.1c0-0.1,0.1-0.2,0.1-0.3C152.8,67.8,152.8,67.7,152.9,67.6z"/>
</g>
</svg>
