<?xml version="1.0" encoding="utf-8"?>
<!-- Generator: Adobe Illustrator 19.0.0, SVG Export Plug-In . SVG Version: 6.00 Build 0)  -->
<svg version="1.1" id="Layer_1" xmlns="http://www.w3.org/2000/svg" xmlns:xlink="http://www.w3.org/1999/xlink" x="0px" y="0px"
	 viewBox="-251 321 283 160" style="enable-background:new -251 321 283 160;" xml:space="preserve">
<style type="text/css">
	.st0{fill:#EF7B05;}
</style>
<path id="XMLID_1029_" class="st0" d="M-34.9,362c-17.5,4.6-54.5,2.9-73.1,2.9c-18.7,0-55.6,1.8-73.1-2.9c-16.4-4.3-43-31.2-43-31.2
	s-7.5,52.3,0,68.6c9.1,19.6,43.1,56.9,68.9,66.2c20.6,7.4,71.7,7.3,92.4,0c26.1-9.2,61.6-46.4,70.9-66.2c7.7-16.2,0-68.6,0-68.6
	S-18.5,357.7-34.9,362z M-70.3,411.1c-9.1,2.3-37.7-6-37.7-6s-28.6,8.3-37.7,6c-9.6-2.5-28.8-16.2-25.2-23.1
	c5.7-10.7,46.9-8.4,62.9-8.4c16,0,57.3-2.3,62.9,8.4C-41.5,394.9-60.7,408.6-70.3,411.1z"/>
</svg>
