<?xml version="1.0" encoding="utf-8"?>
<!-- Generator: Adobe Illustrator 19.0.0, SVG Export Plug-In . SVG Version: 6.00 Build 0)  -->
<svg version="1.1" id="Layer_1" xmlns="http://www.w3.org/2000/svg" xmlns:xlink="http://www.w3.org/1999/xlink" x="0px" y="0px"
	 viewBox="0 0 205.4 172.3" style="enable-background:new 0 0 205.4 172.3;" xml:space="preserve">
<style type="text/css">
	.st0{fill:#EF7B05;}
</style>
<path id="XMLID_583_" class="st0" d="M121.6,44.2c-7.5,0-11,2.7-16.6,2.7c-5.6,0-8.9-2.7-16.4-2.7c-5,0-36.3,1.1-35.2,39.1l0,0
	c0,0,0.1,24.1,5.7,33.4c6.1,10.1,23.4,18.3,46.1,18.3s40.1-8.2,46.1-18.3c5.4-8.9,5.5-31.2,5.5-33.1l0,0
	C158.2,45.4,126.6,44.2,121.6,44.2z M116.2,93.8c-4.1-3.4,0-10.2,0-10.2h-11h-11c0,0,3.7,7-0.2,10.2c-7.7,6.4-29.7-2.2-31.7-15v0
	c0,0-3.3-18.3,20.5-18.3c12.6,0,14.3-2.7,22.1-2.7s9.3,2.7,22,2.7c22.3,0,20.8,16.2,20.5,18.3l0-0.1
	C146.2,91.6,123.9,100.2,116.2,93.8z"/>
</svg>
