<?xml version="1.0" encoding="utf-8"?>
<!-- Generator: Adobe Illustrator 19.0.0, SVG Export Plug-In . SVG Version: 6.00 Build 0)  -->
<svg version="1.1" id="Layer_1" xmlns="http://www.w3.org/2000/svg" xmlns:xlink="http://www.w3.org/1999/xlink" x="0px" y="0px"
	 viewBox="0 0 280.4 168.9" style="enable-background:new 0 0 280.4 168.9;" xml:space="preserve">
<style type="text/css">
	.st0{fill:#EF7B05;}
</style>
<g id="XMLID_5738_">
	<g id="XMLID_5745_">
		<path id="XMLID_5746_" class="st0" d="M179.6,67.3c2-12.7,2.7-32.1-10.1-33.3l-0.1-1.8c0.2,0,4.4-0.3,8,3.7
			c14.7,16.1-10.1,50.5,16.1,78.3c14.1,15.1,40.2,18,51-0.7c4.3-7.5,5.3-17.1,2.5-23.3l1.6-0.7c3.1,6.7,2,17-2.6,25
			C228.8,144.2,170.5,124.7,179.6,67.3z"/>
	</g>
	<path id="XMLID_5742_" class="st0" d="M165.1,27.1c-7.6,0-7.6,11.4,0,11.4C172.7,38.5,172.7,27.1,165.1,27.1z M165.1,36.1
		c-4.3,0-4.3-6.5,0-6.5C169.4,29.6,169.4,36.1,165.1,36.1z"/>
	<path id="XMLID_5739_" class="st0" d="M133.6,9.8c-18.2,0-33,14.8-33,33c0,18.2,14.8,33,33,33c18.2,0,33-14.8,33-33
		C166.5,24.6,151.7,9.8,133.6,9.8z M133.6,68.6c-14.2,0-25.8-11.6-25.8-25.8c0-14.2,11.6-25.8,25.8-25.8c14.2,0,25.8,11.6,25.8,25.8
		C159.3,57,147.8,68.6,133.6,68.6z"/>
</g>
<g id="XMLID_5747_">
	<path id="XMLID_5749_" class="st0" d="M84.7,88.2C80,82.8,66.8,78.9,55,89.6c-13.4,12-20,10.5-25.6,4.7c0,0-3.2,18.4,20.4,22.2
		C73.3,120.2,96.8,102,84.7,88.2z"/>
	<path id="XMLID_5748_" class="st0" d="M88.9,88.2c4.7-5.3,17.8-9.3,29.7,1.4c13.4,12,20,10.5,25.6,4.7c0,0,3.2,18.4-20.4,22.2
		C100.2,120.2,76.8,102,88.9,88.2z"/>
</g>
</svg>
