<?xml version="1.0" encoding="utf-8"?>
<!-- Generator: Adobe Illustrator 19.0.0, SVG Export Plug-In . SVG Version: 6.00 Build 0)  -->
<svg version="1.1" id="Layer_1" xmlns="http://www.w3.org/2000/svg" xmlns:xlink="http://www.w3.org/1999/xlink" x="0px" y="0px"
	 viewBox="0 0 373 353.4" style="enable-background:new 0 0 373 353.4;" xml:space="preserve">
<style type="text/css">
	.st0{fill:#EF7B05;}
</style>
<g id="XMLID_2127_">
	<g id="XMLID_2129_">
		<path id="XMLID_2131_" class="st0" d="M191.7,124.2c0.3-1,0.5-2,0.5-3c0-3.4-0.9-11.6-9.8-14.6c-11.4-3.8-32,1.2-41.7,18
			c-9.7,16.8-34.4,34.1-34.4,34.1s8.5,1.1,16-1.3c7.5-2.4,8.6-4,8.6-4s-2,3.7-6.3,5.9c0,0,16.8-2.5,22.6-10.7c0,0-1.2,4.4-3.4,6.6
			c0,0,10.1-1.1,15.9-8.1c4.7-5.7,5.9-5.4,5.9-5.4l-1.3,4.1c0,0,12.9-5.8,19.8-11.5C188.9,130.5,190.9,126.4,191.7,124.2z"/>
		<path id="XMLID_2130_" class="st0" d="M181.4,124.2c-0.3-1-0.5-2-0.5-3c0-3.4,0.9-11.6,9.8-14.6c11.4-3.8,32,1.2,41.7,18
			c9.7,16.8,34.4,34.1,34.4,34.1s-8.5,1.1-16-1.3c-7.5-2.4-8.6-4-8.6-4s2,3.7,6.3,5.9c0,0-16.8-2.5-22.6-10.7c0,0,1.2,4.4,3.4,6.6
			c0,0-10.1-1.1-15.9-8.1c-4.7-5.7-5.9-5.4-5.9-5.4l1.3,4.1c0,0-12.9-5.8-19.8-11.5C184.2,130.5,182.2,126.4,181.4,124.2z"/>
	</g>
	<path id="XMLID_2128_" class="st0" d="M329.7,186.9c-3-17.4-9.5-52.2-13.2-93.5c-3.8-41.3,3.4-63.3,3.4-63.3s-10.9,49.7-22.2,71.6
		c-15.1,29.5-42.7,43-42.7,43l16.6,15.1c0,0-2.3,1.5-9.4,1.6c-7.1,0.1-8.9-0.1-8.9-0.1l2.3,1.7c0,0-13.5-2.7-15.9-3.7
		c-2.4-1-4.2,7.7-19.7,9.9c-15.5,2.3-20.4-3.6-23.3-6.4c-1.1-1.1-0.7-2.5,0.3-3.8c0.8-1.1-0.1-2.6-1.4-2.3c-2.9,0.7-6.3,1.4-8.1,1.4
		h-1c-1.8,0-5.2-0.7-8.1-1.4c-1.3-0.3-2.2,1.2-1.4,2.3c1,1.3,1.4,2.7,0.3,3.8c-2.8,2.8-7.8,8.7-23.3,6.4
		c-15.5-2.3-17.3-10.9-19.7-9.9s-15.9,3.7-15.9,3.7l2.3-1.7c0,0-1.8,0.3-8.9,0.1c-7.1-0.1-9.4-1.6-9.4-1.6l16.6-15.1
		c0,0-21.8-16.9-38-42.2C67.6,81.9,54,30.1,54,30.1s7.2,22.1,3.4,63.3c-3.8,41.3-10.2,76.1-13.2,93.5c-3,17.4,2.3,42.4,2.3,42.4
		l3.8-13.2c0,0,4.5,32.9,14,48.1c0,0-0.8-12.9,0.8-19.7c0,0,13.6,32.5,23.5,44.7c9.8,12.1,12.5,12.5,12.5,12.5l-1.1-9.8
		c0,0,14,14,28.8,20.8l-4.2-11.7c0,0,21.6,29.1,62.1,29.1h1c40.5,0,62.1-29.1,62.1-29.1l-4.2,11.7c14.8-6.8,28.8-20.8,28.8-20.8
		l-1.1,9.8c0,0,2.6-0.4,12.5-12.5c9.8-12.1,23.5-44.7,23.5-44.7c1.5,6.8,0.8,19.7,0.8,19.7c9.5-15.1,14-48.1,14-48.1l3.8,13.2
		C327.5,229.3,332.8,204.3,329.7,186.9z"/>
</g>
</svg>
