<?xml version="1.0" encoding="utf-8"?>
<!-- Generator: Adobe Illustrator 19.0.0, SVG Export Plug-In . SVG Version: 6.00 Build 0)  -->
<svg version="1.1" id="Layer_1" xmlns="http://www.w3.org/2000/svg" xmlns:xlink="http://www.w3.org/1999/xlink" x="0px" y="0px"
	 viewBox="0 0 205.4 172.3" style="enable-background:new 0 0 205.4 172.3;" xml:space="preserve">
<style type="text/css">
	.st0{fill-rule:evenodd;clip-rule:evenodd;fill:#EF7B05;}
</style>
<path id="XMLID_589_" class="st0" d="M157.4,52.9c-12.2-7.6-51.4-9-51.4-9s-39.9,1.4-52.1,9c-12.4,7.7-5.5,33.6-4.2,40.7
	c4.6,25.5,13.1,35.9,32.6,39.6c8.9,1.7,37.7,1.7,46.7,0c19.5-3.6,28-14,32.6-39.6C162.8,86.6,169.8,60.7,157.4,52.9z M146.9,85
	c-1.8,3.9-6.8,9.4-11.4,11.1c-8.8,3.3-10.2,2.2-17.4,0.3c-5-1.4-10.4-11.1-12.4-14.6c-2.1,3.6-7.1,13.3-12.1,14.6
	c-7.1,1.9-9.3,3-18.1-0.3c-4.6-1.7-9.6-7.2-11.4-11.1c-4.3-9.3-10.4-14.2-5.7-19.3c7-7.5,14.7-9.4,47.4-9.2
	c32.7-0.1,40.4,1.7,47.4,9.2C157.7,70.8,151.2,75.7,146.9,85z"/>
</svg>
