<?xml version="1.0" encoding="utf-8"?>
<!-- Generator: Adobe Illustrator 19.0.0, SVG Export Plug-In . SVG Version: 6.00 Build 0)  -->
<svg version="1.1" id="Layer_1" xmlns="http://www.w3.org/2000/svg" xmlns:xlink="http://www.w3.org/1999/xlink" x="0px" y="0px"
	 viewBox="0 0 291.2 204.1" style="enable-background:new 0 0 291.2 204.1;" xml:space="preserve">
<style type="text/css">
	.st0{fill:#EF7B05;}
</style>
<g id="XMLID_1097_">
	<g id="XMLID_1705_">
		<path id="XMLID_1706_" class="st0" d="M271,36.2c0,0-2-3.9-2-4c0,0,0.2-4.2,0.2-4.2s1.9,3.8,2,3.8S271,36.2,271,36.2z"/>
	</g>
	<g id="XMLID_1480_">
		<g id="XMLID_1703_">
			<path id="XMLID_1704_" class="st0" d="M211.3,132.6c0,0-1.4-7.1-1.4-7.2c0,0-0.1-7-0.1-7s2,6.9,2.1,6.9
				C211.9,125.3,211.3,132.6,211.3,132.6z"/>
		</g>
		<g id="XMLID_1701_">
			<path id="XMLID_1702_" class="st0" d="M215.1,128.9c0,0-1.6-6.8-1.6-6.8c0-0.1,0.4-6.8,0.4-6.8s1.6,6.6,1.6,6.6
				C215.5,122,215.1,128.9,215.1,128.9z"/>
		</g>
		<g id="XMLID_1699_">
			<path id="XMLID_1700_" class="st0" d="M217.4,123.1c0,0-0.5-1.2-1-2.3c-0.3-0.6-0.5-1.2-0.7-1.6c-0.2-0.5-0.3-0.8-0.3-0.8
				c0,0,0.6-4.9,0.6-4.9s1.4,4.6,1.4,4.7C217.3,118.2,217.4,123.1,217.4,123.1z"/>
		</g>
		<g id="XMLID_1697_">
			<path id="XMLID_1698_" class="st0" d="M220.9,121c0,0-2.4-6.3-2.4-6.4c0-0.1-0.4-6.5-0.4-6.5s2.3,6.1,2.3,6.2
				C220.5,114.5,220.9,121,220.9,121z"/>
		</g>
		<g id="XMLID_1695_">
			<path id="XMLID_1696_" class="st0" d="M223.5,119c0,0-1.6-6.4-1.6-6.4s0.4-6.4,0.4-6.4s1.6,6.2,1.6,6.2
				C223.9,112.5,223.5,119,223.5,119z"/>
		</g>
		<g id="XMLID_1693_">
			<path id="XMLID_1694_" class="st0" d="M157.1,151.5c0,0-0.5-1.4-1.1-2.9c-0.3-0.7-0.5-1.5-0.7-2c-0.1-0.3-0.2-0.5-0.2-0.7
				c-0.1-0.2-0.1-0.3-0.1-0.3c0,0,0.4-5.9,0.4-5.9s1.5,5.7,1.5,5.7C157,145.5,157.1,151.5,157.1,151.5z"/>
		</g>
		<g id="XMLID_1691_">
			<path id="XMLID_1692_" class="st0" d="M160.3,150.7c0,0-0.6-1.3-1.2-2.7c-0.2-0.7-0.5-1.4-0.6-1.9c-0.1-0.3-0.2-0.5-0.2-0.6
				c-0.1-0.2-0.1-0.2-0.1-0.3c0,0,0.2-1.4,0.3-2.8c0.3-1.4,0.6-2.7,0.6-2.7s0.2,1.3,0.4,2.7c0.3,1.3,0.7,2.7,0.7,2.7
				c0,0,0,1.4-0.1,2.8C160.2,149.3,160.3,150.7,160.3,150.7z"/>
		</g>
		<g id="XMLID_1689_">
			<path id="XMLID_1690_" class="st0" d="M155,156.1c0,0-0.6-1.3-1.2-2.7c-0.2-0.7-0.5-1.4-0.6-1.9c-0.1-0.3-0.2-0.5-0.2-0.6
				c-0.1-0.2-0.1-0.2-0.1-0.3c0,0,0.2-1.4,0.3-2.8c0.3-1.4,0.6-2.7,0.6-2.7s0.2,1.3,0.4,2.7c0.3,1.3,0.7,2.7,0.7,2.7
				c0,0,0,1.4-0.1,2.8C154.9,154.7,155,156.1,155,156.1z"/>
		</g>
		<g id="XMLID_1687_">
			<path id="XMLID_1688_" class="st0" d="M166.6,152.7c0,0-1.3-5.1-1.3-5.1c0,0,0.7-5,0.7-5s1.2,4.9,1.2,5
				C167.3,147.6,166.6,152.7,166.6,152.7z"/>
		</g>
		<g id="XMLID_1685_">
			<path id="XMLID_1686_" class="st0" d="M156.5,165.9c0,0-0.7-1.1-1.5-2.2c-0.3-0.6-0.6-1.2-0.9-1.6c-0.1-0.2-0.2-0.4-0.3-0.5
				c-0.1-0.1-0.1-0.2-0.1-0.2c0,0,0-1.3,0-2.5c0.1-1.2,0.2-2.5,0.2-2.5s0.4,1.2,0.8,2.3c0.5,1.1,1,2.3,1,2.3c0,0,0.1,1.2,0.3,2.5
				C156.3,164.7,156.5,165.9,156.5,165.9z"/>
		</g>
		<g id="XMLID_1683_">
			<path id="XMLID_1684_" class="st0" d="M161.5,164.5c0,0-2.1-6.4-2.1-6.5c0,0,0.5-6.5,0.5-6.5s1.5,6.3,1.5,6.3
				C161.3,157.8,161.5,164.5,161.5,164.5z"/>
		</g>
		<g id="XMLID_1681_">
			<path id="XMLID_1682_" class="st0" d="M165.5,162.7c0,0-2.1-6.4-2.1-6.5c0-0.1-0.1-6.5-0.1-6.5s2.1,6.2,2.1,6.3
				C165.4,156,165.5,162.7,165.5,162.7z"/>
		</g>
		<g id="XMLID_1679_">
			<path id="XMLID_1680_" class="st0" d="M169,160.4c0,0-0.9-6.2-0.9-6.3c0-0.1,1.1-6.1,1.1-6.1s0.9,6.1,0.9,6.1
				C170.1,154.2,169,160.4,169,160.4z"/>
		</g>
		<g id="XMLID_1677_">
			<path id="XMLID_1678_" class="st0" d="M159.5,173.6c0,0-1.5-5.5-1.5-5.6c0,0,0.5-5.6,0.5-5.6s1.5,5.4,1.5,5.4
				C160,167.9,159.5,173.6,159.5,173.6z"/>
		</g>
		<g id="XMLID_1675_">
			<path id="XMLID_1676_" class="st0" d="M153.9,177.5c0,0-0.1-1.7-0.3-3.3c-0.3-1.7-0.6-3.3-0.6-3.3c0,0,0.1-1.6,0.1-3.3
				c-0.1-1.6-0.1-3.3-0.1-3.3s0.6,1.6,1.1,3.1c0.4,1.6,0.8,3.3,0.9,3.3c0,0,0,0.1,0,0.3c0,0.2-0.1,0.5-0.1,0.8
				c-0.1,0.6-0.2,1.5-0.3,2.3C154.3,175.8,153.9,177.5,153.9,177.5z"/>
		</g>
		<g id="XMLID_1673_">
			<path id="XMLID_1674_" class="st0" d="M150,183.1c0,0-0.1-1.7-0.3-3.3c-0.3-1.7-0.6-3.3-0.6-3.3c0,0,0.1-1.6,0.1-3.3
				c-0.1-1.6-0.1-3.3-0.1-3.3s0.6,1.6,1.1,3.1c0.4,1.6,0.8,3.3,0.9,3.3c0,0,0,0.1,0,0.3c0,0.2-0.1,0.5-0.1,0.8
				c-0.1,0.6-0.2,1.5-0.3,2.3C150.4,181.4,150,183.1,150,183.1z"/>
		</g>
		<g id="XMLID_1671_">
			<path id="XMLID_1672_" class="st0" d="M152,163.4c0,0-0.4-6.8-0.4-6.9c0-0.1,1.6-6.5,1.6-6.5s0.4,6.6,0.4,6.7
				C153.5,156.8,152,163.4,152,163.4z"/>
		</g>
		<g id="XMLID_1669_">
			<path id="XMLID_1670_" class="st0" d="M149.6,154.9c0,0-0.4-6.8-0.4-6.9c0-0.1,1.6-6.5,1.6-6.5s0.4,6.6,0.4,6.7
				C151.2,148.2,149.6,154.9,149.6,154.9z"/>
		</g>
		<g id="XMLID_1667_">
			<path id="XMLID_1668_" class="st0" d="M157.9,162.6c0,0-1.1-5.8-1.1-5.9c0-0.1,0.9-5.7,0.9-5.7s1.1,5.6,1.1,5.7
				C158.8,156.8,157.9,162.6,157.9,162.6z"/>
		</g>
		<g id="XMLID_1665_">
			<path id="XMLID_1666_" class="st0" d="M149.8,165.2c0,0-1.1-5.8-1.1-5.9c0-0.1,0.9-5.7,0.9-5.7s1.1,5.6,1.1,5.7
				C150.7,159.3,149.8,165.2,149.8,165.2z"/>
		</g>
		<g id="XMLID_1663_">
			<path id="XMLID_1664_" class="st0" d="M153.4,180.7c0,0-0.7-1.8-1.3-3.6c-0.3-0.9-0.7-1.8-0.9-2.5c-0.1-0.3-0.2-0.6-0.3-0.8
				c-0.1-0.2-0.1-0.3-0.1-0.3c0,0,0-7.5,0-7.5s2,7.2,2,7.2C152.7,173.2,153.4,180.7,153.4,180.7z"/>
		</g>
		<g id="XMLID_1661_">
			<path id="XMLID_1662_" class="st0" d="M158.3,179.7C158.3,179.7,158.3,179.7,158.3,179.7c0.1,0.1,0.2,0.3-0.1,0.4l0,0l0,0
				c-0.1-0.2-0.4-1-0.7-1.8c-0.3-0.8-0.5-1.6-0.5-1.6c0,0,0.7-3.9,0.7-3.9s1.3,3.8,1.3,3.8c0,0-0.1,0.8-0.3,1.6
				c-0.2,0.8-0.3,1.7-0.4,1.9c0,0,0,0-0.1,0C158.4,180,158.4,179.8,158.3,179.7C158.3,179.7,158.3,179.7,158.3,179.7z"/>
		</g>
		<g id="XMLID_1659_">
			<path id="XMLID_1660_" class="st0" d="M161.8,178.7c0,0-1.7-4.2-1.7-4.2c0,0,0.3-4.3,0.3-4.3s1.7,4,1.7,4.1
				C162.1,174.3,161.8,178.7,161.8,178.7z"/>
		</g>
		<g id="XMLID_1657_">
			<path id="XMLID_1658_" class="st0" d="M164.5,175.2c0,0-1.4-7.5-1.4-7.6c0,0,0.3-7.4,0.3-7.4s1.7,7.3,1.7,7.3
				C165.1,167.6,164.5,175.2,164.5,175.2z"/>
		</g>
		<g id="XMLID_1655_">
			<path id="XMLID_1656_" class="st0" d="M168.1,176.6c0,0-1-5.9-1-6c0-0.1,1-5.8,1-5.8s1,5.7,1,5.8
				C169.1,170.7,168.1,176.6,168.1,176.6z"/>
		</g>
		<g id="XMLID_1653_">
			<path id="XMLID_1654_" class="st0" d="M171.6,168.7c0,0-1.3-6.9-1.3-7c0-0.1,0.7-6.8,0.7-6.8s1.3,6.7,1.3,6.8
				C172.4,161.8,171.6,168.7,171.6,168.7z"/>
		</g>
		<g id="XMLID_1651_">
			<path id="XMLID_1652_" class="st0" d="M175.2,171.2C175.2,171.2,175.2,171.2,175.2,171.2c0.1,0.1,0.1,0.4-0.2,0.4l0,0l0,0
				c-0.1-0.2-0.5-1.2-0.9-2.1c-0.4-1-0.7-1.9-0.7-1.9c-0.1,0,0.2-1.2,0.4-2.3c0.2-1.1,0.5-2.2,0.5-2.2s0.3,1.1,0.5,2.2
				c0.3,1.1,0.5,2.2,0.6,2.2c0,0-0.1,0.9-0.1,1.9c-0.1,1-0.1,2-0.2,2.2c0,0,0,0,0,0C175.3,171.5,175.3,171.3,175.2,171.2
				C175.2,171.2,175.2,171.2,175.2,171.2z"/>
		</g>
		<g id="XMLID_1649_">
			<path id="XMLID_1650_" class="st0" d="M178.3,177.5C178.3,177.5,178.4,177.5,178.3,177.5c0.1,0.1,0.1,0.4-0.2,0.4l0,0l0,0
				c-0.1-0.2-0.5-1.2-0.9-2.1c-0.4-1-0.7-1.9-0.7-1.9c-0.1,0,0.2-1.2,0.4-2.3c0.2-1.1,0.5-2.2,0.5-2.2s0.3,1.1,0.5,2.2
				c0.3,1.1,0.5,2.2,0.6,2.2c0,0-0.1,0.9-0.1,1.9c-0.1,1-0.1,2-0.2,2.2c0,0,0,0,0,0C178.4,177.9,178.4,177.6,178.3,177.5
				C178.3,177.5,178.3,177.5,178.3,177.5z"/>
		</g>
		<g id="XMLID_1647_">
			<path id="XMLID_1648_" class="st0" d="M184.3,175.3C184.3,175.3,184.4,175.3,184.3,175.3c0.1,0.1,0.1,0.4-0.2,0.4l0,0l0,0
				c-0.1-0.2-0.5-1.2-0.9-2.1c-0.4-1-0.7-1.9-0.7-1.9c-0.1,0,0.2-1.2,0.4-2.3c0.2-1.1,0.5-2.2,0.5-2.2s0.3,1.1,0.5,2.2
				c0.3,1.1,0.5,2.2,0.6,2.2c0,0-0.1,0.9-0.1,1.9c-0.1,1-0.1,2-0.2,2.2c0,0,0,0,0,0C184.4,175.7,184.4,175.4,184.3,175.3
				C184.4,175.3,184.3,175.3,184.3,175.3z"/>
		</g>
		<g id="XMLID_1645_">
			<path id="XMLID_1646_" class="st0" d="M178.5,163.8c0,0-0.6-1.4-1.1-2.8c-0.2-0.7-0.5-1.5-0.6-2c-0.1-0.3-0.2-0.5-0.2-0.7
				c-0.1-0.2-0.1-0.3-0.1-0.3c0,0,0.2-1.5,0.3-2.9c0.3-1.4,0.6-2.9,0.6-2.9s0.2,1.4,0.4,2.8c0.3,1.4,0.6,2.8,0.6,2.8
				c0,0-0.1,1.5-0.1,3C178.4,162.4,178.5,163.8,178.5,163.8z"/>
		</g>
		<g id="XMLID_1643_">
			<path id="XMLID_1644_" class="st0" d="M176.7,161.8c0,0-0.8-1.6-1.5-3.1c-0.4-0.8-0.8-1.6-1.1-2.2c-0.1-0.3-0.3-0.6-0.4-0.7
				c-0.1-0.2-0.1-0.3-0.1-0.3c0,0-0.4-6.6-0.4-6.6s2.3,6.3,2.3,6.3C175.6,155.2,176.7,161.8,176.7,161.8z"/>
		</g>
		<g id="XMLID_1641_">
			<path id="XMLID_1642_" class="st0" d="M180.4,173.8c0,0-0.9-5.6-0.9-5.7c0,0,1.1-5.5,1.1-5.5s0.9,5.5,0.9,5.5
				C181.4,168.2,180.4,173.8,180.4,173.8z"/>
		</g>
		<g id="XMLID_1639_">
			<path id="XMLID_1640_" class="st0" d="M184.3,168.7c0,0-1.8-7.2-1.8-7.2c0-0.1,0.2-7.2,0.2-7.2s1.8,7,1.8,7
				C184.5,161.4,184.3,168.7,184.3,168.7z"/>
		</g>
		<g id="XMLID_1637_">
			<path id="XMLID_1638_" class="st0" d="M186.3,171.4c0,0,0.2-1.6,0.4-3.1c0-0.8,0-1.6,0-2.2c0-0.3,0-0.5,0-0.7c0-0.2,0-0.3,0-0.3
				c0,0,0.3-1.5,0.6-3c0.1-1.5,0.3-3.1,0.3-3.1s0.4,1.5,0.7,3c0.2,1.6,0.4,3.2,0.4,3.2c0,0,0,0.1-0.1,0.3c-0.1,0.2-0.1,0.4-0.2,0.7
				c-0.2,0.6-0.4,1.4-0.7,2.2C187,169.9,186.3,171.4,186.3,171.4z"/>
		</g>
		<g id="XMLID_1635_">
			<path id="XMLID_1636_" class="st0" d="M173.3,179.1c0,0-1.1-4.7-1.1-4.7c0,0,0.9-4.6,0.9-4.6s1.1,4.5,1.1,4.6
				C174.2,174.4,173.3,179.1,173.3,179.1z"/>
		</g>
		<g id="XMLID_1633_">
			<path id="XMLID_1634_" class="st0" d="M192.3,167.9c0,0,0.1-1.1,0.2-2.2c0-1.1,0-2.2,0-2.2c0,0,0.4-1,0.8-2
				c0.3-1,0.6-2.1,0.6-2.1s0.2,1.1,0.4,2.2c0.1,1.1,0.2,2.2,0.2,2.2c0,0-0.1,0.3-0.3,0.7c-0.2,0.4-0.4,0.9-0.7,1.5
				C192.8,166.9,192.3,167.9,192.3,167.9z"/>
		</g>
		<g id="XMLID_1631_">
			<path id="XMLID_1632_" class="st0" d="M202.2,167.5c0,0,0.1-1.1,0.2-2.2c0-1.1,0-2.2,0-2.2c0,0,0.4-1,0.8-2
				c0.3-1,0.6-2.1,0.6-2.1s0.2,1.1,0.4,2.2c0.1,1.1,0.2,2.2,0.2,2.2c0,0-0.1,0.3-0.3,0.7c-0.2,0.4-0.4,0.9-0.7,1.5
				C202.7,166.5,202.2,167.5,202.2,167.5z"/>
		</g>
		<g id="XMLID_1629_">
			<path id="XMLID_1630_" class="st0" d="M192.3,164.5c0,0-0.8-1.4-1.5-2.7c-0.4-0.7-0.8-1.4-1-1.9c-0.1-0.3-0.3-0.5-0.3-0.6
				c-0.1-0.2-0.1-0.2-0.1-0.3c0,0-0.3-5.9-0.3-5.9s2.3,5.5,2.3,5.5C191.3,158.6,192.3,164.5,192.3,164.5z"/>
		</g>
		<g id="XMLID_1627_">
			<path id="XMLID_1628_" class="st0" d="M198.2,165.9c0,0-2.6-6-2.6-6c0-0.1-0.6-6.2-0.6-6.2s2.5,5.8,2.5,5.8
				C197.5,159.6,198.2,165.9,198.2,165.9z"/>
		</g>
		<g id="XMLID_1625_">
			<path id="XMLID_1626_" class="st0" d="M201.2,162c0,0-2.7-7.1-2.7-7.1c0,0-1.4-7.1-1.4-7.1s3.3,6.7,3.3,6.8c0,0,0,0.1,0,0.3
				c0,0.2,0.1,0.5,0.1,0.9c0.1,0.7,0.2,1.6,0.3,2.6C201,160.2,201.2,162,201.2,162z"/>
		</g>
		<g id="XMLID_1623_">
			<path id="XMLID_1624_" class="st0" d="M205.7,162.2c0,0-2-6.3-2-6.4c0-0.1,0-6.4,0-6.4s2,6.1,2,6.2
				C205.7,155.7,205.7,162.2,205.7,162.2z"/>
		</g>
		<g id="XMLID_1621_">
			<path id="XMLID_1622_" class="st0" d="M206.6,148.2c0,0-2-5.4-2-5.4c0,0,0-5.5,0-5.5s2,5.2,2,5.3
				C206.5,142.6,206.6,148.2,206.6,148.2z"/>
		</g>
		<g id="XMLID_1619_">
			<path id="XMLID_1620_" class="st0" d="M209.8,143.5c0,0-1.6-5.4-1.6-5.5c0,0,0.4-5.5,0.4-5.5s1.6,5.3,1.6,5.3
				C210.3,138,209.8,143.5,209.8,143.5z"/>
		</g>
		<g id="XMLID_1617_">
			<path id="XMLID_1618_" class="st0" d="M212.2,142.9c0,0-1.1-7.3-1.1-7.4c0,0,0.1-7.2,0.1-7.2s1.8,7.1,1.8,7.1c0,0,0,0.1,0,0.3
				c0,0.2-0.1,0.5-0.1,0.9c-0.1,0.7-0.2,1.6-0.3,2.6C212.4,141.1,212.2,142.9,212.2,142.9z"/>
		</g>
		<g id="XMLID_1615_">
			<path id="XMLID_1616_" class="st0" d="M210.8,159.4c0,0-2.4-4.8-2.4-4.8c0,0,0-5.1,0-5.1s2,4.7,2,4.8
				C210.3,154.2,210.8,159.4,210.8,159.4z"/>
		</g>
		<g id="XMLID_1613_">
			<path id="XMLID_1614_" class="st0" d="M215.8,152.5c0,0-1.5-5.6-1.5-5.6c0,0,0.5-5.6,0.5-5.6s1.5,5.4,1.5,5.4
				C216.3,146.8,215.8,152.5,215.8,152.5z"/>
		</g>
		<g id="XMLID_1611_">
			<path id="XMLID_1612_" class="st0" d="M218.7,139.5c0,0-1.9-6.4-1.9-6.5c0-0.1,0.1-6.5,0.1-6.5s1.9,6.2,1.9,6.3
				C218.8,132.9,218.7,139.5,218.7,139.5z"/>
		</g>
		<g id="XMLID_1609_">
			<path id="XMLID_1610_" class="st0" d="M219.9,150.4c0,0-1.9-6.4-1.9-6.5c0-0.1,0.1-6.5,0.1-6.5s1.9,6.2,1.9,6.3
				C220,143.7,219.9,150.4,219.9,150.4z"/>
		</g>
		<g id="XMLID_1607_">
			<path id="XMLID_1608_" class="st0" d="M220.3,135.6c0,0-1.4-6.3-1.4-6.3c0,0,0-6.3,0-6.3s2,6.1,2,6.1c0,0,0,0.1,0,0.3
				c0,0.2,0,0.4-0.1,0.7c-0.1,0.6-0.1,1.4-0.2,2.2C220.5,134,220.3,135.6,220.3,135.6z"/>
		</g>
		<g id="XMLID_1605_">
			<path id="XMLID_1606_" class="st0" d="M211.8,153.9c0,0-2-4.7-2-4.7c0,0,0-4.8,0-4.8s1.9,4.5,1.9,4.6
				C211.8,149,211.8,153.9,211.8,153.9z"/>
		</g>
		<g id="XMLID_1603_">
			<path id="XMLID_1604_" class="st0" d="M215.4,157.2c0,0-2-4.7-2-4.7c0,0,0-4.8,0-4.8s1.9,4.5,1.9,4.6
				C215.4,152.3,215.4,157.2,215.4,157.2z"/>
		</g>
		<g id="XMLID_1601_">
			<path id="XMLID_1602_" class="st0" d="M223.3,148.4c0,0-2.3-3.8-2.3-3.8c0,0-0.3-4.1-0.3-4.1s2.3,3.6,2.3,3.7
				C222.9,144.2,223.3,148.4,223.3,148.4z"/>
		</g>
		<g id="XMLID_1599_">
			<path id="XMLID_1600_" class="st0" d="M226.2,147.7c0,0-2.3-3.8-2.3-3.8c0,0-0.3-4.1-0.3-4.1s2.3,3.6,2.3,3.7
				C225.8,143.5,226.2,147.7,226.2,147.7z"/>
		</g>
		<g id="XMLID_1597_">
			<path id="XMLID_1598_" class="st0" d="M225.7,142.4c0,0-2.5-4.6-2.6-4.7c0,0-0.6-4.9-0.6-4.9s2.5,4.5,2.5,4.5
				S225.7,142.4,225.7,142.4z"/>
		</g>
		<g id="XMLID_1595_">
			<path id="XMLID_1596_" class="st0" d="M229,146.1c0,0-2.5-4.6-2.6-4.7c0,0-0.6-4.9-0.6-4.9s2.5,4.5,2.5,4.5
				C228.4,141.1,229,146.1,229,146.1z"/>
		</g>
		<g id="XMLID_1593_">
			<path id="XMLID_1594_" class="st0" d="M234.4,141.2c0,0-2.5-4.6-2.6-4.7c0,0-0.6-4.9-0.6-4.9s2.5,4.5,2.5,4.5
				C233.8,136.1,234.4,141.2,234.4,141.2z"/>
		</g>
		<g id="XMLID_1591_">
			<path id="XMLID_1592_" class="st0" d="M228.6,139.9c0,0-2.8-5.9-2.9-6c0-0.1-0.9-6.2-0.9-6.2s2.8,5.7,2.8,5.8
				C227.7,133.6,228.6,139.9,228.6,139.9z"/>
		</g>
		<g id="XMLID_1589_">
			<path id="XMLID_1590_" class="st0" d="M229.1,131.8c0,0-3.3-6.4-3.3-6.5c0-0.1-1.3-6.7-1.3-6.7s3.2,6.2,3.3,6.3
				C227.7,124.9,229.1,131.8,229.1,131.8z"/>
		</g>
		<g id="XMLID_1587_">
			<path id="XMLID_1588_" class="st0" d="M232,120c0,0-3.3-7.2-3.3-7.2c0-0.1-1.3-7.4-1.3-7.4s3.2,6.9,3.2,7
				C230.6,112.5,232,120,232,120z"/>
		</g>
		<g id="XMLID_1585_">
			<path id="XMLID_1586_" class="st0" d="M233.3,110.7c0,0-2.3-5.2-2.3-5.2c0,0-0.3-5.4-0.3-5.4s2.2,5,2.3,5
				C233,105.2,233.3,110.7,233.3,110.7z"/>
		</g>
		<g id="XMLID_1583_">
			<path id="XMLID_1584_" class="st0" d="M236.2,107.8c0,0-2-5.4-2-5.4c0,0,0-5.5,0-5.5s2,5.2,2,5.3
				C236.2,102.2,236.2,107.8,236.2,107.8z"/>
		</g>
		<g id="XMLID_1581_">
			<path id="XMLID_1582_" class="st0" d="M234,136.7c0,0-2.6-6.4-2.6-6.4c0-0.1-0.6-6.6-0.6-6.6s2.6,6.2,2.6,6.2
				C233.4,130,234,136.7,234,136.7z"/>
		</g>
		<g id="XMLID_1579_">
			<path id="XMLID_1580_" class="st0" d="M237.3,130.6c0,0-3.1-8.6-3.1-8.7c0-0.1-1.1-8.8-1.1-8.8s3,8.4,3,8.4
				C236.1,121.6,237.3,130.6,237.3,130.6z"/>
		</g>
		<g id="XMLID_1577_">
			<path id="XMLID_1578_" class="st0" d="M231.8,141.7c0,0-0.9-0.8-1.7-1.5c-0.4-0.4-0.8-0.8-1.1-1.2c-0.3-0.3-0.5-0.6-0.5-0.6
				c0,0-0.2-1-0.4-2.1c-0.1-1-0.1-2-0.1-2s0.5,0.9,1.1,1.8c0.6,0.8,1.3,1.6,1.3,1.7c0,0,0.3,1,0.6,2
				C231.4,140.7,231.8,141.7,231.8,141.7z"/>
		</g>
		<g id="XMLID_1575_">
			<path id="XMLID_1576_" class="st0" d="M246.7,130.9c0,0-0.9-0.8-1.7-1.5c-0.4-0.4-0.8-0.8-1.1-1.2c-0.3-0.3-0.5-0.6-0.5-0.6
				c0,0-0.2-1-0.4-2.1c-0.1-1-0.1-2-0.1-2s0.5,0.9,1.1,1.8c0.6,0.8,1.3,1.6,1.3,1.7c0,0,0.3,1,0.6,2
				C246.3,129.9,246.7,130.9,246.7,130.9z"/>
		</g>
		<g id="XMLID_1573_">
			<path id="XMLID_1574_" class="st0" d="M242.5,131.4c0,0-2.7-5.9-2.7-6c0-0.1-0.7-6.2-0.7-6.2s2.6,5.8,2.7,5.8
				C241.7,125.1,242.5,131.4,242.5,131.4z"/>
		</g>
		<g id="XMLID_1571_">
			<path id="XMLID_1572_" class="st0" d="M245.2,125.7c0,0-2.7-6.3-2.8-6.3c0-0.1-0.8-6.5-0.8-6.5s2.7,6.1,2.7,6.1
				C244.4,119.1,245.2,125.7,245.2,125.7z"/>
		</g>
		<g id="XMLID_1569_">
			<path id="XMLID_1570_" class="st0" d="M249.6,128c0,0-2.7-6.3-2.8-6.3s-0.8-6.5-0.8-6.5s2.7,6.1,2.7,6.1
				C248.8,121.4,249.6,128,249.6,128z"/>
		</g>
		<g id="XMLID_1567_">
			<path id="XMLID_1568_" class="st0" d="M250.4,122.7c0,0-2.7-6.3-2.7-6.3c0,0-0.1-6.5-0.1-6.5s2.1,6.2,2.1,6.2
				C249.7,116.1,250.4,122.7,250.4,122.7z"/>
		</g>
		<g id="XMLID_1565_">
			<path id="XMLID_1566_" class="st0" d="M253.8,123.6c0,0-2.7-6.3-2.7-6.3c0,0-0.1-6.5-0.1-6.5s2.1,6.2,2.1,6.2
				C253.1,117.1,253.8,123.6,253.8,123.6z"/>
		</g>
		<g id="XMLID_1563_">
			<path id="XMLID_1564_" class="st0" d="M255.2,118.8c0,0-2.1-8-2.1-8c0-0.1-0.1-8-0.1-8s2.1,7.7,2.1,7.8
				C255.1,110.6,255.2,118.8,255.2,118.8z"/>
		</g>
		<g id="XMLID_1561_">
			<path id="XMLID_1562_" class="st0" d="M257.9,118c0,0-2.1-8-2.1-8c0-0.1-0.1-8-0.1-8s2.1,7.7,2.1,7.8
				C257.8,109.9,257.9,118,257.9,118z"/>
		</g>
		<g id="XMLID_1559_">
			<path id="XMLID_1560_" class="st0" d="M241.5,112.5c0,0-2.7-2.7-2.7-2.8c0,0-0.9-3.4-0.9-3.4s2.6,2.6,2.7,2.7
				C240.6,109.1,241.5,112.5,241.5,112.5z"/>
		</g>
		<g id="XMLID_1557_">
			<path id="XMLID_1558_" class="st0" d="M247,108.8c0,0-3.5-5-3.5-5.1c0,0-1.6-5.5-1.6-5.5s3.4,4.9,3.4,4.9
				C245.4,103.2,247,108.8,247,108.8z"/>
		</g>
		<g id="XMLID_1555_">
			<path id="XMLID_1556_" class="st0" d="M248.2,104.2c0,0-0.4-1.4-0.8-2.8c-0.3-0.7-0.6-1.3-0.8-1.9c-0.2-0.5-0.4-0.8-0.4-0.8
				c0,0-0.3-1.4-0.5-2.8c-0.4-1.4-0.8-2.7-0.8-2.7s0.9,1.2,1.8,2.4c0.7,1.3,1.5,2.6,1.5,2.6c0,0,0,0.1,0,0.3c0,0.2,0,0.4,0.1,0.7
				c0,0.6,0.1,1.3,0.1,2C248.3,102.7,248.2,104.2,248.2,104.2z"/>
		</g>
		<g id="XMLID_1553_">
			<path id="XMLID_1554_" class="st0" d="M241.4,103.4c0,0-2.9-5.9-2.9-6c0-0.1-0.9-6.2-0.9-6.2s2.8,5.8,2.8,5.8
				C240.5,97,241.4,103.4,241.4,103.4z"/>
		</g>
		<g id="XMLID_1551_">
			<path id="XMLID_1552_" class="st0" d="M238.9,97.7c0,0-3.1-7.3-3.1-7.3c0,0-0.5-7.5-0.5-7.5s2.5,7.1,2.5,7.2
				C237.8,90.1,238.9,97.7,238.9,97.7z"/>
		</g>
		<g id="XMLID_1549_">
			<path id="XMLID_1550_" class="st0" d="M244.2,91.2c0,0-2.9-6-2.9-6.1s-0.9-6.3-0.9-6.3s2.8,5.9,2.8,5.9
				C243.3,84.8,244.2,91.2,244.2,91.2z"/>
		</g>
		<g id="XMLID_1547_">
			<path id="XMLID_1548_" class="st0" d="M246.8,87.5c0,0-0.8-1.7-1.7-3.4c-0.4-0.9-0.9-1.7-1.2-2.4c-0.2-0.3-0.3-0.6-0.4-0.8
				c-0.1-0.2-0.1-0.3-0.1-0.3c0,0-0.7-7.3-0.7-7.3s2.7,6.8,2.7,6.9C245.4,80.2,246.8,87.5,246.8,87.5z"/>
		</g>
		<g id="XMLID_1545_">
			<path id="XMLID_1546_" class="st0" d="M249.4,82.4c0,0-2.6-7.5-2.6-7.6c0-0.1-0.6-7.6-0.6-7.6s2.5,7.3,2.6,7.4
				C248.8,74.6,249.4,82.4,249.4,82.4z"/>
		</g>
		<g id="XMLID_1543_">
			<path id="XMLID_1544_" class="st0" d="M251.7,96.9c0,0-0.8-1.1-1.6-2.2c-0.4-0.6-0.7-1.2-1-1.6c-0.3-0.4-0.5-0.7-0.5-0.7
				c0,0-0.2-1.3-0.3-2.6c0-1.3-0.1-2.5-0.1-2.5s0.5,1.2,1.1,2.3c0.6,1.1,1.2,2.2,1.2,2.3c0,0,0.3,1.3,0.5,2.5
				C251.3,95.6,251.7,96.9,251.7,96.9z"/>
		</g>
		<g id="XMLID_1541_">
			<path id="XMLID_1542_" class="st0" d="M254.6,95.5c0,0-2.2-7.1-2.2-7.1c0,0-0.8-7.1-0.8-7.1s2.7,6.8,2.8,6.8
				C254.4,88.1,254.6,95.5,254.6,95.5z"/>
		</g>
		<g id="XMLID_1539_">
			<path id="XMLID_1540_" class="st0" d="M259.1,108.4c0,0-2.6-7.3-2.6-7.4c0-0.1-0.6-7.4-0.6-7.4s2.6,7.1,2.6,7.1
				S259.1,108.4,259.1,108.4z"/>
		</g>
		<g id="XMLID_1537_">
			<path id="XMLID_1538_" class="st0" d="M262.5,106.4c0,0-2.6-7.3-2.6-7.4s-0.6-7.4-0.6-7.4s2.6,7.1,2.6,7.1
				S262.5,106.4,262.5,106.4z"/>
		</g>
		<g id="XMLID_1535_">
			<path id="XMLID_1536_" class="st0" d="M251.7,109c0,0-1.9-5.8-1.9-5.8c0-0.1,0.1-5.9,0.1-5.9s1.9,5.6,1.9,5.7
				C251.8,103,251.7,109,251.7,109z"/>
		</g>
		<g id="XMLID_1533_">
			<path id="XMLID_1534_" class="st0" d="M245.2,115.9c0,0-2.9-4.8-3-4.9c0,0-1-5.2-1-5.2s2.9,4.7,2.9,4.7S245.2,115.9,245.2,115.9z
				"/>
		</g>
		<g id="XMLID_1531_">
			<path id="XMLID_1532_" class="st0" d="M257.6,86.1c0,0-3.8-8.6-3.9-8.6c0-0.1-2.7-8.6-2.7-8.6s4.6,8.1,4.6,8.1
				c0,0,0.1,0.2,0.1,0.4c0.1,0.3,0.1,0.6,0.2,1.1c0.2,0.9,0.4,2,0.7,3.1C257.1,83.9,257.6,86.1,257.6,86.1z"/>
		</g>
		<g id="XMLID_1529_">
			<path id="XMLID_1530_" class="st0" d="M261.2,93.6c0,0-2.5-4.8-2.5-4.8c0,0-0.5-5.1-0.5-5.1s2.4,4.6,2.4,4.7
				C260.7,88.4,261.2,93.6,261.2,93.6z"/>
		</g>
		<g id="XMLID_1527_">
			<path id="XMLID_1528_" class="st0" d="M262.4,82.8c0,0-3.7-6.2-3.7-6.2c0-0.1-1.7-6.6-1.7-6.6s3.6,6,3.6,6
				C260.6,76.1,262.4,82.8,262.4,82.8z"/>
		</g>
		<g id="XMLID_1525_">
			<path id="XMLID_1526_" class="st0" d="M259,72.9c0,0-3.1-5.2-3.1-5.2c0,0-1.2-5.6-1.2-5.6s3.1,5,3.1,5
				C257.8,67.2,259,72.9,259,72.9z"/>
		</g>
		<g id="XMLID_1523_">
			<path id="XMLID_1524_" class="st0" d="M260.8,68c0,0-0.6-1.9-1.3-3.8c-0.8-1.9-1.6-3.8-1.6-3.8c0,0-0.4-1.9-0.8-3.8
				c-0.6-1.9-1.1-3.8-1.1-3.8s1,1.8,2,3.5c0.9,1.8,1.8,3.7,1.8,3.7c0,0,0,0.1,0.1,0.4c0,0.2,0.1,0.5,0.1,0.9
				c0.1,0.8,0.3,1.8,0.4,2.8C260.6,66,260.8,68,260.8,68z"/>
		</g>
		<g id="XMLID_1521_">
			<path id="XMLID_1522_" class="st0" d="M264.5,78c0,0-0.4-1.3-0.9-2.5c-0.3-0.6-0.6-1.2-0.8-1.7c-0.2-0.5-0.4-0.8-0.4-0.8
				c0,0-0.3-1.3-0.5-2.5c-0.4-1.2-0.8-2.5-0.8-2.5s0.9,1.1,1.7,2.2c0.7,1.2,1.5,2.4,1.5,2.4c0,0,0,0.1,0,0.2c0,0.2,0,0.4,0.1,0.6
				c0,0.5,0.1,1.2,0.2,1.9C264.5,76.7,264.5,78,264.5,78z"/>
		</g>
		<g id="XMLID_1519_">
			<path id="XMLID_1520_" class="st0" d="M262.3,90.4c0,0-0.9-0.3-1.7-0.8c-0.8-0.5-1.5-1.2-1.5-1.2s0-0.2-0.1-0.5
				c-0.1-0.3-0.1-0.7-0.1-1.1c0-0.8,0.3-1.5,0.3-1.5s0.3,0.7,0.7,1.3c0.4,0.6,1,1.1,1,1.1s0.1,0.7,0.5,1.4
				C261.8,89.8,262.3,90.4,262.3,90.4z"/>
		</g>
		<g id="XMLID_1517_">
			<path id="XMLID_1518_" class="st0" d="M265.1,95.2c0,0-0.9-0.3-1.7-0.8c-0.8-0.5-1.5-1.2-1.5-1.2s0-0.2-0.1-0.5
				c-0.1-0.3-0.1-0.7-0.1-1.1c0-0.8,0.3-1.5,0.3-1.5s0.3,0.7,0.7,1.3c0.4,0.6,1,1.1,1,1.1s0.1,0.7,0.5,1.4
				C264.6,94.6,265.1,95.2,265.1,95.2z"/>
		</g>
		<g id="XMLID_1515_">
			<path id="XMLID_1516_" class="st0" d="M265.6,88.3c0,0-0.9-0.3-1.7-0.8c-0.8-0.5-1.5-1.2-1.5-1.2s0-0.2-0.1-0.5
				c-0.1-0.3-0.1-0.7-0.1-1.1c0-0.8,0.3-1.5,0.3-1.5s0.3,0.7,0.7,1.3c0.4,0.6,1,1.1,1,1.1s0.1,0.7,0.5,1.4
				C265.1,87.7,265.6,88.3,265.6,88.3z"/>
		</g>
		<g id="XMLID_1513_">
			<path id="XMLID_1514_" class="st0" d="M267.5,70.9c0,0-2.4-3.9-2.4-3.9c0,0-0.5-4.2-0.5-4.2s2.4,3.7,2.4,3.8
				C267,66.5,267.5,70.9,267.5,70.9z"/>
		</g>
		<g id="XMLID_1511_">
			<path id="XMLID_1512_" class="st0" d="M264.9,83.6c0,0-2.4-3.9-2.4-3.9c0,0-0.5-4.2-0.5-4.2s2.4,3.7,2.4,3.8
				C264.4,79.3,264.9,83.6,264.9,83.6z"/>
		</g>
		<g id="XMLID_1509_">
			<path id="XMLID_1510_" class="st0" d="M268.3,79.2c0,0-2.4-3.9-2.4-3.9c0,0-0.5-4.2-0.5-4.2s2.4,3.7,2.4,3.8
				C267.8,74.9,268.3,79.2,268.3,79.2z"/>
		</g>
		<g id="XMLID_1507_">
			<path id="XMLID_1508_" class="st0" d="M264,60.7c0,0-2.2-4.4-2.2-4.5c0,0-0.2-4.7-0.2-4.7s2.2,4.3,2.2,4.3
				C263.7,56,264,60.7,264,60.7z"/>
		</g>
		<g id="XMLID_1505_">
			<path id="XMLID_1506_" class="st0" d="M264.3,58.5c0,0-3.5-5.2-3.5-5.3c0,0-1.5-5.7-1.5-5.7s3.4,5.1,3.4,5.1
				C262.7,52.7,264.3,58.5,264.3,58.5z"/>
		</g>
		<g id="XMLID_1503_">
			<path id="XMLID_1504_" class="st0" d="M267.1,56.7c0,0-0.8-1.4-1.5-2.7c-0.3-0.7-0.7-1.4-0.9-1.9c-0.1-0.3-0.2-0.5-0.3-0.6
				c-0.1-0.2-0.1-0.3-0.1-0.3c0,0-0.1-1.5-0.1-3c0-1.4,0.1-2.9,0.1-2.9s0.5,1.4,0.9,2.8c0.6,1.4,1.1,2.7,1.1,2.7c0,0,0.2,1.5,0.3,3
				C266.8,55.2,267.1,56.7,267.1,56.7z"/>
		</g>
		<g id="XMLID_1501_">
			<path id="XMLID_1502_" class="st0" d="M269,51.2c0,0-2.7-5.7-2.7-5.8s-0.7-6-0.7-6s2.6,5.6,2.6,5.6C268.3,45.1,269,51.2,269,51.2
				z"/>
		</g>
		<g id="XMLID_1499_">
			<path id="XMLID_1500_" class="st0" d="M270.3,40.6c0,0,0,0.1-0.1,0.6l0,0.1l-0.1-0.1C270,41,269.5,40,269,39c-0.5-1-1-1.9-1-1.9
				c0,0-0.4-5-0.4-5s2.3,4.6,2.3,4.6c0,0,0.1,1,0.2,2.1c0.1,1.1,0.2,2.2,0.1,2.5c-0.1,0,0,0-0.1,0C270.3,40.7,270.3,40.6,270.3,40.6
				z"/>
		</g>
		<g id="XMLID_1497_">
			<path id="XMLID_1498_" class="st0" d="M269.9,58.9c0,0-0.5-1.2-1-2.5c-0.3-0.6-0.5-1.3-0.7-1.7c-0.1-0.2-0.2-0.4-0.2-0.6
				c-0.1-0.1-0.1-0.2-0.1-0.2c0,0,0.5-5.1,0.5-5.1s1.5,4.9,1.5,4.9C269.8,53.7,269.9,58.9,269.9,58.9z"/>
		</g>
		<g id="XMLID_1495_">
			<path id="XMLID_1496_" class="st0" d="M267.6,64.8c0,0-2-3.5-2-3.5c0,0,0-3.8,0-3.8s1.9,3.4,1.9,3.4S267.6,64.8,267.6,64.8z"/>
		</g>
		<g id="XMLID_1493_">
			<path id="XMLID_1494_" class="st0" d="M237.8,122.8c0,0-0.6-1.1-1.2-2.2c-0.3-0.6-0.5-1.1-0.7-1.6c-0.2-0.4-0.3-0.7-0.3-0.7
				c0,0,0.1-1.2,0.1-2.4c0.2-1.2,0.4-2.3,0.4-2.3s0.3,1.1,0.6,2.2c0.4,1.1,0.8,2.2,0.8,2.2c0,0,0,1.2,0.1,2.4
				C237.7,121.7,237.8,122.8,237.8,122.8z"/>
		</g>
		<g id="XMLID_1491_">
			<path id="XMLID_1492_" class="st0" d="M240.1,135.4c0,0-0.6-1.1-1.2-2.2c-0.3-0.6-0.5-1.1-0.7-1.6c-0.2-0.4-0.3-0.7-0.3-0.7
				c0,0,0.1-1.2,0.1-2.4c0.2-1.2,0.4-2.3,0.4-2.3s0.3,1.1,0.6,2.2c0.4,1.1,0.8,2.2,0.8,2.2c0,0,0,1.2,0.1,2.4
				C239.9,134.2,240.1,135.4,240.1,135.4z"/>
		</g>
		<g id="XMLID_1489_">
			<path id="XMLID_1490_" class="st0" d="M231.4,126.3c0,0-3.3-5.2-3.3-5.3c0,0-1.4-5.7-1.4-5.7s3.2,5.1,3.3,5.1
				C230,120.5,231.4,126.3,231.4,126.3z"/>
		</g>
		<g id="XMLID_1487_">
			<path id="XMLID_1488_" class="st0" d="M237.6,136.4c0,0-1.5-4.1-1.5-4.1c0,0,0.5-4.2,0.5-4.2s1.5,4,1.5,4
				C238.1,132.2,237.6,136.4,237.6,136.4z"/>
		</g>
		<g id="XMLID_1485_">
			<path id="XMLID_1486_" class="st0" d="M218.8,150.1c0,0-3.5-6.6-3.5-6.6c0-0.1-1.5-6.9-1.5-6.9s3.4,6.4,3.4,6.4
				C217.2,143,218.8,150.1,218.8,150.1z"/>
		</g>
		<g id="XMLID_1483_">
			<path id="XMLID_1484_" class="st0" d="M202.4,155.5c0,0-1.9-4.4-1.9-4.5c0,0,0.1-4.6,0.1-4.6s1.9,4.3,1.9,4.4
				C202.5,150.8,202.4,155.5,202.4,155.5z"/>
		</g>
		<g id="XMLID_1481_">
			<path id="XMLID_1482_" class="st0" d="M191.7,173.6c0,0-1.9-4.4-1.9-4.5c0,0,0.1-4.6,0.1-4.6s1.9,4.3,1.9,4.4
				C191.8,168.9,191.7,173.6,191.7,173.6z"/>
		</g>
	</g>
	<g id="XMLID_1098_">
		<g id="XMLID_1478_">
			<path id="XMLID_1479_" class="st0" d="M83.7,132.6c0,0,1.4-7.1,1.4-7.2c0,0,0.1-7,0.1-7s-2,6.9-2.1,6.9
				C83.2,125.3,83.7,132.6,83.7,132.6z"/>
		</g>
		<g id="XMLID_1476_">
			<path id="XMLID_1477_" class="st0" d="M80,128.9c0,0,1.6-6.8,1.6-6.8c0-0.1-0.4-6.8-0.4-6.8s-1.6,6.6-1.6,6.6
				C79.6,122,80,128.9,80,128.9z"/>
		</g>
		<g id="XMLID_1474_">
			<path id="XMLID_1475_" class="st0" d="M77.6,123.1c0,0,0.5-1.2,1-2.3c0.3-0.6,0.5-1.2,0.7-1.6c0.2-0.5,0.3-0.8,0.3-0.8
				c0,0-0.6-4.9-0.6-4.9s-1.4,4.6-1.4,4.7C77.7,118.2,77.6,123.1,77.6,123.1z"/>
		</g>
		<g id="XMLID_1472_">
			<path id="XMLID_1473_" class="st0" d="M74.1,121c0,0,2.4-6.3,2.4-6.4c0-0.1,0.4-6.5,0.4-6.5s-2.3,6.1-2.3,6.2
				C74.5,114.5,74.1,121,74.1,121z"/>
		</g>
		<g id="XMLID_1470_">
			<path id="XMLID_1471_" class="st0" d="M71.6,119c0,0,1.6-6.4,1.6-6.4s-0.4-6.4-0.4-6.4s-1.6,6.2-1.6,6.2
				C71.2,112.5,71.6,119,71.6,119z"/>
		</g>
		<g id="XMLID_1468_">
			<path id="XMLID_1469_" class="st0" d="M137.9,151.5c0,0,0.5-1.4,1.1-2.9c0.3-0.7,0.5-1.5,0.7-2c0.1-0.3,0.2-0.5,0.2-0.7
				c0.1-0.2,0.1-0.3,0.1-0.3c0,0-0.4-5.9-0.4-5.9s-1.5,5.7-1.5,5.7C138.1,145.5,137.9,151.5,137.9,151.5z"/>
		</g>
		<g id="XMLID_1466_">
			<path id="XMLID_1467_" class="st0" d="M134.8,150.7c0,0,0.6-1.3,1.2-2.7c0.2-0.7,0.5-1.4,0.6-1.9c0.1-0.3,0.2-0.5,0.2-0.6
				c0.1-0.2,0.1-0.2,0.1-0.3c0,0-0.2-1.4-0.3-2.8c-0.3-1.4-0.6-2.7-0.6-2.7s-0.2,1.3-0.4,2.7c-0.3,1.3-0.7,2.7-0.7,2.7
				c0,0,0,1.4,0.1,2.8C134.9,149.3,134.8,150.7,134.8,150.7z"/>
		</g>
		<g id="XMLID_1464_">
			<path id="XMLID_1465_" class="st0" d="M128.5,152.7c0,0,1.3-5.1,1.3-5.1c0,0-0.7-5-0.7-5s-1.2,4.9-1.2,5
				C127.7,147.6,128.5,152.7,128.5,152.7z"/>
		</g>
		<g id="XMLID_1462_">
			<path id="XMLID_1463_" class="st0" d="M138.5,165.9c0,0,0.7-1.1,1.5-2.2c0.3-0.6,0.6-1.2,0.9-1.6c0.1-0.2,0.2-0.4,0.3-0.5
				c0.1-0.1,0.1-0.2,0.1-0.2c0,0,0-1.3,0-2.5c-0.1-1.2-0.2-2.5-0.2-2.5s-0.4,1.2-0.8,2.3c-0.5,1.1-1,2.3-1,2.3c0,0-0.1,1.2-0.3,2.5
				C138.8,164.7,138.5,165.9,138.5,165.9z"/>
		</g>
		<g id="XMLID_1460_">
			<path id="XMLID_1461_" class="st0" d="M133.6,164.5c0,0,2.1-6.4,2.1-6.5c0,0-0.5-6.5-0.5-6.5s-1.5,6.3-1.5,6.3
				C133.7,157.8,133.6,164.5,133.6,164.5z"/>
		</g>
		<g id="XMLID_1458_">
			<path id="XMLID_1459_" class="st0" d="M129.5,162.7c0,0,2.1-6.4,2.1-6.5c0-0.1,0.1-6.5,0.1-6.5s-2.1,6.2-2.1,6.3
				C129.7,156,129.5,162.7,129.5,162.7z"/>
		</g>
		<g id="XMLID_1456_">
			<path id="XMLID_1457_" class="st0" d="M126.1,160.4c0,0,0.9-6.2,0.9-6.3c0-0.1-1.1-6.1-1.1-6.1s-0.9,6.1-0.9,6.1
				C125,154.2,126.1,160.4,126.1,160.4z"/>
		</g>
		<g id="XMLID_1454_">
			<path id="XMLID_1455_" class="st0" d="M135.5,173.6c0,0,1.5-5.5,1.5-5.6c0,0-0.5-5.6-0.5-5.6s-1.5,5.4-1.5,5.4
				C135,167.9,135.5,173.6,135.5,173.6z"/>
		</g>
		<g id="XMLID_1452_">
			<path id="XMLID_1453_" class="st0" d="M141.2,177.5c0,0,0.1-1.7,0.3-3.3c0.3-1.7,0.6-3.3,0.6-3.3c0,0-0.1-1.6-0.1-3.3
				c0.1-1.6,0.1-3.3,0.1-3.3s-0.6,1.6-1.1,3.1c-0.4,1.6-0.8,3.3-0.9,3.3c0,0,0,0.1,0,0.3c0,0.2,0.1,0.5,0.1,0.8
				c0.1,0.6,0.2,1.5,0.3,2.3C140.8,175.8,141.2,177.5,141.2,177.5z"/>
		</g>
		<g id="XMLID_1450_">
			<path id="XMLID_1451_" class="st0" d="M146,182.2c0,0,0.1-1.7,0.3-3.3c0.3-1.7,0.6-3.3,0.6-3.3c0,0-0.1-1.6-0.1-3.3
				c0.1-1.6,0.1-3.3,0.1-3.3s-0.6,1.6-1.1,3.1c-0.4,1.6-0.8,3.3-0.9,3.3c0,0,0,0.1,0,0.3c0,0.2,0.1,0.5,0.1,0.8
				c0.1,0.6,0.2,1.5,0.3,2.3C145.6,180.6,146,182.2,146,182.2z"/>
		</g>
		<g id="XMLID_1448_">
			<path id="XMLID_1449_" class="st0" d="M145.6,169c0,0,0.1-1.7,0.3-3.3c0.3-1.7,0.6-3.3,0.6-3.3c0,0-0.1-1.6-0.1-3.3
				c0.1-1.6,0.1-3.3,0.1-3.3s-0.6,1.6-1.1,3.1c-0.4,1.6-0.8,3.3-0.9,3.3c0,0,0,0.1,0,0.3c0,0.2,0.1,0.5,0.1,0.8
				c0.1,0.6,0.2,1.5,0.3,2.3C145.2,167.4,145.6,169,145.6,169z"/>
		</g>
		<g id="XMLID_1446_">
			<path id="XMLID_1447_" class="st0" d="M143.2,154c0,0,0.1-1.7,0.3-3.3c0.3-1.7,0.6-3.3,0.6-3.3c0,0-0.1-1.6-0.1-3.3
				c0.1-1.6,0.1-3.3,0.1-3.3s-0.6,1.6-1.1,3.1c-0.4,1.6-0.8,3.3-0.9,3.3c0,0,0,0.1,0,0.3c0,0.2,0.1,0.5,0.1,0.8
				c0.1,0.6,0.2,1.5,0.3,2.3C142.8,152.3,143.2,154,143.2,154z"/>
		</g>
		<g id="XMLID_1444_">
			<path id="XMLID_1445_" class="st0" d="M143.1,163.4c0,0,0.4-6.8,0.4-6.9c0-0.1-1.6-6.5-1.6-6.5s-0.4,6.6-0.4,6.7
				C141.5,156.8,143.1,163.4,143.1,163.4z"/>
		</g>
		<g id="XMLID_1442_">
			<path id="XMLID_1443_" class="st0" d="M137.2,162.6c0,0,1.1-5.8,1.1-5.9c0-0.1-0.9-5.7-0.9-5.7s-1.1,5.6-1.1,5.7
				C136.3,156.8,137.2,162.6,137.2,162.6z"/>
		</g>
		<g id="XMLID_1440_">
			<path id="XMLID_1441_" class="st0" d="M145.7,158.1c0,0,1.1-5.8,1.1-5.9s-0.9-5.7-0.9-5.7s-1.1,5.6-1.1,5.7
				S145.7,158.1,145.7,158.1z"/>
		</g>
		<g id="XMLID_1437_">
			<path id="XMLID_1439_" class="st0" d="M141.6,180.7c0,0,0.7-1.8,1.3-3.6c0.3-0.9,0.7-1.8,0.9-2.5c0.1-0.3,0.2-0.6,0.3-0.8
				c0.1-0.2,0.1-0.3,0.1-0.3c0,0,0-7.5,0-7.5s-2,7.2-2,7.2C142.4,173.2,141.6,180.7,141.6,180.7z"/>
		</g>
		<g id="XMLID_1435_">
			<path id="XMLID_1436_" class="st0" d="M136.8,179.7C136.8,179.7,136.8,179.7,136.8,179.7c-0.1,0.1-0.2,0.3,0.1,0.4l0,0l0,0
				c0.1-0.2,0.4-1,0.7-1.8c0.3-0.8,0.5-1.6,0.5-1.6c0,0-0.7-3.9-0.7-3.9s-1.3,3.8-1.3,3.8c0,0,0.1,0.8,0.3,1.6
				c0.2,0.8,0.3,1.7,0.4,1.9c0,0,0,0,0.1,0C136.7,180,136.7,179.8,136.8,179.7C136.8,179.7,136.8,179.7,136.8,179.7z"/>
		</g>
		<g id="XMLID_1433_">
			<path id="XMLID_1434_" class="st0" d="M133.2,178.7c0,0,1.7-4.2,1.7-4.2c0,0-0.3-4.3-0.3-4.3s-1.7,4-1.7,4.1
				C133,174.3,133.2,178.7,133.2,178.7z"/>
		</g>
		<g id="XMLID_1431_">
			<path id="XMLID_1432_" class="st0" d="M128.4,181.2c0,0,1.7-4.2,1.7-4.2c0,0-0.3-4.3-0.3-4.3s-1.7,4-1.7,4.1
				C128.1,176.8,128.4,181.2,128.4,181.2z"/>
		</g>
		<g id="XMLID_1429_">
			<path id="XMLID_1430_" class="st0" d="M130.5,175.2c0,0,1.4-7.5,1.4-7.6c0,0-0.3-7.4-0.3-7.4s-1.7,7.3-1.7,7.3
				C129.9,167.6,130.5,175.2,130.5,175.2z"/>
		</g>
		<g id="XMLID_1427_">
			<path id="XMLID_1428_" class="st0" d="M126.9,176.6c0,0,1-5.9,1-6c0-0.1-1-5.8-1-5.8s-1,5.7-1,5.8
				C125.9,170.7,126.9,176.6,126.9,176.6z"/>
		</g>
		<g id="XMLID_1425_">
			<path id="XMLID_1426_" class="st0" d="M123.4,168.7c0,0,1.3-6.9,1.3-7c0-0.1-0.7-6.8-0.7-6.8s-1.3,6.7-1.3,6.8
				C122.7,161.8,123.4,168.7,123.4,168.7z"/>
		</g>
		<g id="XMLID_1423_">
			<path id="XMLID_1424_" class="st0" d="M119.9,171.2C119.9,171.2,119.8,171.2,119.9,171.2c-0.1,0.1-0.1,0.4,0.2,0.4l0,0l0,0
				c0.1-0.2,0.5-1.2,0.9-2.1c0.4-1,0.7-1.9,0.7-1.9c0.1,0-0.2-1.2-0.4-2.3c-0.2-1.1-0.5-2.2-0.5-2.2s-0.3,1.1-0.5,2.2
				c-0.3,1.1-0.5,2.2-0.6,2.2c0,0,0.1,0.9,0.1,1.9c0.1,1,0.1,2,0.2,2.2c0,0,0,0,0,0C119.8,171.5,119.8,171.3,119.9,171.2
				C119.8,171.2,119.9,171.2,119.9,171.2z"/>
		</g>
		<g id="XMLID_1421_">
			<path id="XMLID_1422_" class="st0" d="M116.7,177C116.7,177,116.7,177,116.7,177c-0.1,0.1-0.1,0.4,0.2,0.4l0,0l0,0
				c0.1-0.2,0.5-1.2,0.9-2.1c0.4-1,0.7-1.9,0.7-1.9c0.1,0-0.2-1.2-0.4-2.3c-0.2-1.1-0.5-2.2-0.5-2.2s-0.3,1.1-0.5,2.2
				c-0.3,1.1-0.5,2.2-0.6,2.2c0,0,0.1,0.9,0.1,1.9c0.1,1,0.1,2,0.2,2.2c0,0,0,0,0,0C116.7,177.4,116.7,177.1,116.7,177
				C116.7,177,116.7,177,116.7,177z"/>
		</g>
		<g id="XMLID_1419_">
			<path id="XMLID_1420_" class="st0" d="M116.6,163.8c0,0,0.6-1.4,1.1-2.8c0.2-0.7,0.5-1.5,0.6-2c0.1-0.3,0.2-0.5,0.2-0.7
				c0.1-0.2,0.1-0.3,0.1-0.3c0,0-0.2-1.5-0.3-2.9c-0.3-1.4-0.6-2.9-0.6-2.9s-0.2,1.4-0.4,2.8c-0.3,1.4-0.6,2.8-0.6,2.8
				c0,0,0.1,1.5,0.1,3C116.7,162.4,116.6,163.8,116.6,163.8z"/>
		</g>
		<g id="XMLID_1412_">
			<path id="XMLID_1414_" class="st0" d="M118.3,161.8c0,0,0.8-1.6,1.5-3.1c0.4-0.8,0.8-1.6,1.1-2.2c0.1-0.3,0.3-0.6,0.4-0.7
				c0.1-0.2,0.1-0.3,0.1-0.3c0,0,0.4-6.6,0.4-6.6s-2.3,6.3-2.3,6.3C119.5,155.2,118.3,161.8,118.3,161.8z"/>
		</g>
		<g id="XMLID_1408_">
			<path id="XMLID_1411_" class="st0" d="M114.7,173.8c0,0,0.9-5.6,0.9-5.7c0,0-1.1-5.5-1.1-5.5s-0.9,5.5-0.9,5.5
				C113.6,168.2,114.7,173.8,114.7,173.8z"/>
		</g>
		<g id="XMLID_1406_">
			<path id="XMLID_1407_" class="st0" d="M110.7,168.7c0,0,1.8-7.2,1.8-7.2c0-0.1-0.2-7.2-0.2-7.2s-1.8,7-1.8,7
				C110.6,161.4,110.7,168.7,110.7,168.7z"/>
		</g>
		<g id="XMLID_1404_">
			<path id="XMLID_1405_" class="st0" d="M109.8,175.8c0,0,1.8-7.2,1.8-7.2c0-0.1-0.2-7.2-0.2-7.2s-1.8,7-1.8,7
				C109.6,168.5,109.8,175.8,109.8,175.8z"/>
		</g>
		<g id="XMLID_1392_">
			<path id="XMLID_1393_" class="st0" d="M108.8,171.4c0,0-0.2-1.6-0.4-3.1c0-0.8,0-1.6,0-2.2c0-0.3,0-0.5,0-0.7c0-0.2,0-0.3,0-0.3
				c0,0-0.3-1.5-0.6-3c-0.1-1.5-0.3-3.1-0.3-3.1s-0.4,1.5-0.7,3c-0.2,1.6-0.4,3.2-0.4,3.2c0,0,0,0.1,0.1,0.3
				c0.1,0.2,0.1,0.4,0.2,0.7c0.2,0.6,0.4,1.4,0.7,2.2C108.1,169.9,108.8,171.4,108.8,171.4z"/>
		</g>
		<g id="XMLID_1390_">
			<path id="XMLID_1391_" class="st0" d="M121.7,179.1c0,0,1.1-4.7,1.1-4.7c0,0-0.9-4.6-0.9-4.6s-1.1,4.5-1.1,4.6
				C120.9,174.4,121.7,179.1,121.7,179.1z"/>
		</g>
		<g id="XMLID_1321_">
			<path id="XMLID_1363_" class="st0" d="M102.8,167.9c0,0-0.1-1.1-0.2-2.2c0-1.1,0-2.2,0-2.2c0,0-0.4-1-0.8-2
				c-0.3-1-0.6-2.1-0.6-2.1s-0.2,1.1-0.4,2.2c-0.1,1.1-0.2,2.2-0.2,2.2c0,0,0.1,0.3,0.3,0.7c0.2,0.4,0.4,0.9,0.7,1.5
				C102.2,166.9,102.8,167.9,102.8,167.9z"/>
		</g>
		<g id="XMLID_1261_">
			<path id="XMLID_1262_" class="st0" d="M102.7,164.5c0,0,0.8-1.4,1.5-2.7c0.4-0.7,0.8-1.4,1-1.9c0.1-0.3,0.3-0.5,0.3-0.6
				c0.1-0.2,0.1-0.2,0.1-0.3c0,0,0.3-5.9,0.3-5.9s-2.3,5.5-2.3,5.5C103.8,158.6,102.7,164.5,102.7,164.5z"/>
		</g>
		<g id="XMLID_1259_">
			<path id="XMLID_1260_" class="st0" d="M103.2,173.2c0,0,0.8-1.4,1.5-2.7c0.4-0.7,0.8-1.4,1-1.9c0.1-0.3,0.3-0.5,0.3-0.6
				c0.1-0.2,0.1-0.2,0.1-0.3c0,0,0.3-5.9,0.3-5.9s-2.3,5.5-2.3,5.5C104.3,167.3,103.2,173.2,103.2,173.2z"/>
		</g>
		<g id="XMLID_1257_">
			<path id="XMLID_1258_" class="st0" d="M96.9,165.9c0,0,2.6-6,2.6-6c0-0.1,0.6-6.2,0.6-6.2s-2.5,5.8-2.5,5.8
				C97.5,159.6,96.9,165.9,96.9,165.9z"/>
		</g>
		<g id="XMLID_1255_">
			<path id="XMLID_1256_" class="st0" d="M93.9,162c0,0,2.7-7.1,2.7-7.1c0,0,1.4-7.1,1.4-7.1s-3.3,6.7-3.3,6.8c0,0,0,0.1,0,0.3
				c0,0.2-0.1,0.5-0.1,0.9c-0.1,0.7-0.2,1.6-0.3,2.6C94,160.2,93.9,162,93.9,162z"/>
		</g>
		<g id="XMLID_1253_">
			<path id="XMLID_1254_" class="st0" d="M89.4,162.2c0,0,2-6.3,2-6.4c0-0.1,0-6.4,0-6.4s-2,6.1-2,6.2S89.4,162.2,89.4,162.2z"/>
		</g>
		<g id="XMLID_1251_">
			<path id="XMLID_1252_" class="st0" d="M88.5,148.2c0,0,2-5.4,2-5.4c0,0,0-5.5,0-5.5s-2,5.2-2,5.3
				C88.6,142.6,88.5,148.2,88.5,148.2z"/>
		</g>
		<g id="XMLID_1249_">
			<path id="XMLID_1250_" class="st0" d="M79.6,157.1c0,0,2-5.4,2-5.4c0,0,0-5.5,0-5.5s-2,5.2-2,5.3
				C79.7,151.5,79.6,157.1,79.6,157.1z"/>
		</g>
		<g id="XMLID_1247_">
			<path id="XMLID_1248_" class="st0" d="M85.2,143.5c0,0,1.6-5.4,1.6-5.5c0,0-0.4-5.5-0.4-5.5s-1.6,5.3-1.6,5.3
				C84.8,138,85.2,143.5,85.2,143.5z"/>
		</g>
		<g id="XMLID_1245_">
			<path id="XMLID_1246_" class="st0" d="M82.9,142.9c0,0,1.1-7.3,1.1-7.4c0,0-0.1-7.2-0.1-7.2s-1.8,7.1-1.8,7.1c0,0,0,0.1,0,0.3
				c0,0.2,0.1,0.5,0.1,0.9c0.1,0.7,0.2,1.6,0.3,2.6C82.7,141.1,82.9,142.9,82.9,142.9z"/>
		</g>
		<g id="XMLID_1243_">
			<path id="XMLID_1244_" class="st0" d="M84.3,159.4c0,0,2.4-4.8,2.4-4.8c0,0,0-5.1,0-5.1s-2,4.7-2,4.8
				C84.7,154.2,84.3,159.4,84.3,159.4z"/>
		</g>
		<g id="XMLID_1241_">
			<path id="XMLID_1242_" class="st0" d="M79.3,152.5c0,0,1.5-5.6,1.5-5.6c0,0-0.5-5.6-0.5-5.6s-1.5,5.4-1.5,5.4
				C78.8,146.8,79.3,152.5,79.3,152.5z"/>
		</g>
		<g id="XMLID_1239_">
			<path id="XMLID_1240_" class="st0" d="M76.4,139.5c0,0,1.9-6.4,1.9-6.5c0-0.1-0.1-6.5-0.1-6.5s-1.9,6.2-1.9,6.3
				C76.3,132.9,76.4,139.5,76.4,139.5z"/>
		</g>
		<g id="XMLID_1237_">
			<path id="XMLID_1238_" class="st0" d="M74.7,135.6c0,0,1.4-6.3,1.4-6.3c0,0,0-6.3,0-6.3s-2,6.1-2,6.1c0,0,0,0.1,0,0.3
				c0,0.2,0,0.4,0.1,0.7c0.1,0.6,0.1,1.4,0.2,2.2C74.6,134,74.7,135.6,74.7,135.6z"/>
		</g>
		<g id="XMLID_1235_">
			<path id="XMLID_1236_" class="st0" d="M62.5,143.6c0,0,1.4-6.3,1.4-6.3c0,0,0-6.3,0-6.3s-2,6.1-2,6.1c0,0,0,0.1,0,0.3
				c0,0.2,0,0.4,0.1,0.7c0.1,0.6,0.1,1.4,0.2,2.2C62.4,142,62.5,143.6,62.5,143.6z"/>
		</g>
		<g id="XMLID_1228_">
			<path id="XMLID_1230_" class="st0" d="M67.6,149.4c0,0,1.4-6.3,1.4-6.3c0,0,0-6.3,0-6.3s-2,6.1-2,6.1c0,0,0,0.1,0,0.3
				c0,0.2,0,0.4,0.1,0.7c0.1,0.6,0.1,1.4,0.2,2.2C67.5,147.8,67.6,149.4,67.6,149.4z"/>
		</g>
		<g id="XMLID_1226_">
			<path id="XMLID_1227_" class="st0" d="M83.3,153.9c0,0,2-4.7,2-4.7c0,0,0-4.8,0-4.8s-1.9,4.5-1.9,4.6
				C83.3,149,83.3,153.9,83.3,153.9z"/>
		</g>
		<g id="XMLID_1224_">
			<path id="XMLID_1225_" class="st0" d="M71.8,148.4c0,0,2.3-3.8,2.3-3.8c0,0,0.3-4.1,0.3-4.1s-2.3,3.6-2.3,3.7
				C72.1,144.2,71.8,148.4,71.8,148.4z"/>
		</g>
		<g id="XMLID_1222_">
			<path id="XMLID_1223_" class="st0" d="M73,151.5c0,0,2.3-3.8,2.3-3.8c0,0,0.3-4.1,0.3-4.1s-2.3,3.6-2.3,3.7
				C73.3,147.3,73,151.5,73,151.5z"/>
		</g>
		<g id="XMLID_1219_">
			<path id="XMLID_1220_" class="st0" d="M85.4,163.6c0,0,2.3-3.8,2.3-3.8c0,0,0.3-4.1,0.3-4.1s-2.3,3.6-2.3,3.7
				C85.8,159.4,85.4,163.6,85.4,163.6z"/>
		</g>
		<g id="XMLID_1216_">
			<path id="XMLID_1217_" class="st0" d="M98.1,171.4c0,0,2.3-3.8,2.3-3.8c0,0,0.3-4.1,0.3-4.1s-2.3,3.6-2.3,3.7
				C98.5,167.2,98.1,171.4,98.1,171.4z"/>
		</g>
		<g id="XMLID_1214_">
			<path id="XMLID_1215_" class="st0" d="M69.4,142.4c0,0,2.5-4.6,2.6-4.7c0,0,0.6-4.9,0.6-4.9s-2.5,4.5-2.5,4.5
				C70,137.4,69.4,142.4,69.4,142.4z"/>
		</g>
		<g id="XMLID_1212_">
			<path id="XMLID_1213_" class="st0" d="M66.5,139.9c0,0,2.8-5.9,2.9-6c0-0.1,0.9-6.2,0.9-6.2s-2.8,5.7-2.8,5.8
				C67.4,133.6,66.5,139.9,66.5,139.9z"/>
		</g>
		<g id="XMLID_1210_">
			<path id="XMLID_1211_" class="st0" d="M66,131.8c0,0,3.3-6.4,3.3-6.5c0-0.1,1.3-6.7,1.3-6.7s-3.2,6.2-3.3,6.3
				C67.4,124.9,66,131.8,66,131.8z"/>
		</g>
		<g id="XMLID_1208_">
			<path id="XMLID_1209_" class="st0" d="M63.1,120c0,0,3.3-7.2,3.3-7.2c0-0.1,1.3-7.4,1.3-7.4s-3.2,6.9-3.2,7
				C64.4,112.5,63.1,120,63.1,120z"/>
		</g>
		<g id="XMLID_1206_">
			<path id="XMLID_1207_" class="st0" d="M61.8,110.7c0,0,2.3-5.2,2.3-5.2c0,0,0.3-5.4,0.3-5.4s-2.2,5-2.3,5
				C62.1,105.2,61.8,110.7,61.8,110.7z"/>
		</g>
		<g id="XMLID_1204_">
			<path id="XMLID_1205_" class="st0" d="M58.9,107.8c0,0,2-5.4,2-5.4c0,0,0-5.5,0-5.5s-2,5.2-2,5.3
				C58.9,102.2,58.9,107.8,58.9,107.8z"/>
		</g>
		<g id="XMLID_1202_">
			<path id="XMLID_1203_" class="st0" d="M54.4,137.8c0,0,2-5.4,2-5.4c0,0,0-5.5,0-5.5s-2,5.2-2,5.3
				C54.4,132.2,54.4,137.8,54.4,137.8z"/>
		</g>
		<g id="XMLID_1200_">
			<path id="XMLID_1201_" class="st0" d="M61,136.7c0,0,2.6-6.4,2.6-6.4c0-0.1,0.6-6.6,0.6-6.6s-2.6,6.2-2.6,6.2
				C61.7,130,61,136.7,61,136.7z"/>
		</g>
		<g id="XMLID_1198_">
			<path id="XMLID_1199_" class="st0" d="M57.8,130.6c0,0,3.1-8.6,3.1-8.7c0-0.1,1.1-8.8,1.1-8.8s-3,8.4-3,8.4
				C58.9,121.6,57.8,130.6,57.8,130.6z"/>
		</g>
		<g id="XMLID_1196_">
			<path id="XMLID_1197_" class="st0" d="M63.2,141.7c0,0,0.9-0.8,1.7-1.5c0.4-0.4,0.8-0.8,1.1-1.2c0.3-0.3,0.5-0.6,0.5-0.6
				c0,0,0.2-1,0.4-2.1c0.1-1,0.1-2,0.1-2s-0.5,0.9-1.1,1.8c-0.6,0.8-1.3,1.6-1.3,1.7c0,0-0.3,1-0.6,2
				C63.7,140.7,63.2,141.7,63.2,141.7z"/>
		</g>
		<g id="XMLID_1194_">
			<path id="XMLID_1195_" class="st0" d="M52.6,131.4c0,0,2.7-5.9,2.7-6c0-0.1,0.7-6.2,0.7-6.2s-2.6,5.8-2.7,5.8
				C53.3,125.1,52.6,131.4,52.6,131.4z"/>
		</g>
		<g id="XMLID_1192_">
			<path id="XMLID_1193_" class="st0" d="M50,132.5c0,0,2.7-5.9,2.7-6c0-0.1,0.7-6.2,0.7-6.2s-2.6,5.8-2.7,5.8
				C50.8,126.2,50,132.5,50,132.5z"/>
		</g>
		<g id="XMLID_1190_">
			<path id="XMLID_1191_" class="st0" d="M49.8,125.7c0,0,2.7-6.3,2.8-6.3c0-0.1,0.8-6.5,0.8-6.5s-2.7,6.1-2.7,6.1
				C50.6,119.1,49.8,125.7,49.8,125.7z"/>
		</g>
		<g id="XMLID_1188_">
			<path id="XMLID_1189_" class="st0" d="M44.7,122.7c0,0,2.7-6.3,2.7-6.3c0,0,0.1-6.5,0.1-6.5s-2.1,6.2-2.1,6.2
				C45.4,116.1,44.7,122.7,44.7,122.7z"/>
		</g>
		<g id="XMLID_1186_">
			<path id="XMLID_1187_" class="st0" d="M39.9,118.8c0,0,2.1-8,2.1-8c0-0.1,0.1-8,0.1-8s-2.1,7.7-2.1,7.8
				C40,110.6,39.9,118.8,39.9,118.8z"/>
		</g>
		<g id="XMLID_1184_">
			<path id="XMLID_1185_" class="st0" d="M53.5,112.5c0,0,2.7-2.7,2.7-2.8s0.9-3.4,0.9-3.4s-2.6,2.6-2.7,2.7
				C54.4,109.1,53.5,112.5,53.5,112.5z"/>
		</g>
		<g id="XMLID_1182_">
			<path id="XMLID_1183_" class="st0" d="M48,108.8c0,0,3.5-5,3.5-5.1c0,0,1.6-5.5,1.6-5.5s-3.4,4.9-3.4,4.9
				C49.6,103.2,48,108.8,48,108.8z"/>
		</g>
		<g id="XMLID_1180_">
			<path id="XMLID_1181_" class="st0" d="M40.4,124c0,0,3.5-5,3.5-5.1c0,0,1.6-5.5,1.6-5.5s-3.4,4.9-3.4,4.9
				C42.1,118.3,40.4,124,40.4,124z"/>
		</g>
		<g id="XMLID_1178_">
			<path id="XMLID_1179_" class="st0" d="M46.8,104.2c0,0,0.4-1.4,0.8-2.8c0.3-0.7,0.6-1.3,0.8-1.9c0.2-0.5,0.4-0.8,0.4-0.8
				c0,0,0.3-1.4,0.5-2.8c0.4-1.4,0.8-2.7,0.8-2.7s-0.9,1.2-1.8,2.4c-0.7,1.3-1.5,2.6-1.5,2.6c0,0,0,0.1,0,0.3c0,0.2,0,0.4-0.1,0.7
				c0,0.6-0.1,1.3-0.1,2C46.8,102.7,46.8,104.2,46.8,104.2z"/>
		</g>
		<g id="XMLID_1176_">
			<path id="XMLID_1177_" class="st0" d="M36.1,115.1c0,0,0.4-1.4,0.8-2.8c0.3-0.7,0.6-1.3,0.8-1.9c0.2-0.5,0.4-0.8,0.4-0.8
				c0,0,0.3-1.4,0.5-2.8c0.4-1.4,0.8-2.7,0.8-2.7s-0.9,1.2-1.8,2.4c-0.7,1.3-1.5,2.6-1.5,2.6c0,0,0,0.1,0,0.3c0,0.2,0,0.4-0.1,0.7
				c0,0.6-0.1,1.3-0.1,2C36,113.6,36.1,115.1,36.1,115.1z"/>
		</g>
		<g id="XMLID_1174_">
			<path id="XMLID_1175_" class="st0" d="M53.6,103.4c0,0,2.9-5.9,2.9-6c0-0.1,0.9-6.2,0.9-6.2s-2.8,5.8-2.8,5.8
				C54.6,97,53.6,103.4,53.6,103.4z"/>
		</g>
		<g id="XMLID_1172_">
			<path id="XMLID_1173_" class="st0" d="M56.2,97.7c0,0,3.1-7.3,3.1-7.3c0,0,0.5-7.5,0.5-7.5s-2.5,7.1-2.5,7.2
				C57.3,90.1,56.2,97.7,56.2,97.7z"/>
		</g>
		<g id="XMLID_1170_">
			<path id="XMLID_1171_" class="st0" d="M50.9,91.2c0,0,2.9-6,2.9-6.1c0-0.1,0.9-6.3,0.9-6.3s-2.8,5.9-2.8,5.9
				C51.8,84.8,50.9,91.2,50.9,91.2z"/>
		</g>
		<g id="XMLID_1168_">
			<path id="XMLID_1169_" class="st0" d="M48.3,87.5c0,0,0.8-1.7,1.7-3.4c0.4-0.9,0.9-1.7,1.2-2.4c0.2-0.3,0.3-0.6,0.4-0.8
				c0.1-0.2,0.1-0.3,0.1-0.3c0,0,0.7-7.3,0.7-7.3s-2.7,6.8-2.7,6.9C49.7,80.2,48.3,87.5,48.3,87.5z"/>
		</g>
		<g id="XMLID_1166_">
			<path id="XMLID_1167_" class="st0" d="M45.7,82.4c0,0,2.6-7.5,2.6-7.6c0-0.1,0.6-7.6,0.6-7.6s-2.5,7.3-2.6,7.4
				C46.3,74.6,45.7,82.4,45.7,82.4z"/>
		</g>
		<g id="XMLID_1164_">
			<path id="XMLID_1165_" class="st0" d="M43.4,96.9c0,0,0.8-1.1,1.6-2.2c0.4-0.6,0.7-1.2,1-1.6c0.3-0.4,0.5-0.7,0.5-0.7
				c0,0,0.2-1.3,0.3-2.6c0-1.3,0.1-2.5,0.1-2.5s-0.5,1.2-1.1,2.3c-0.6,1.1-1.2,2.2-1.2,2.3c0,0-0.3,1.3-0.5,2.5
				C43.7,95.6,43.4,96.9,43.4,96.9z"/>
		</g>
		<g id="XMLID_1162_">
			<path id="XMLID_1163_" class="st0" d="M39.8,103.6c0,0,0.8-1.1,1.6-2.2c0.4-0.6,0.7-1.2,1-1.6c0.3-0.4,0.5-0.7,0.5-0.7
				c0,0,0.2-1.3,0.3-2.6c0-1.3,0.1-2.5,0.1-2.5s-0.5,1.2-1.1,2.3c-0.6,1.1-1.2,2.2-1.2,2.3c0,0-0.3,1.3-0.5,2.5
				C40.2,102.4,39.8,103.6,39.8,103.6z"/>
		</g>
		<g id="XMLID_1160_">
			<path id="XMLID_1161_" class="st0" d="M40.4,95.5c0,0,2.2-7.1,2.2-7.1c0,0,0.8-7.1,0.8-7.1S40.7,88,40.7,88
				C40.7,88.1,40.4,95.5,40.4,95.5z"/>
		</g>
		<g id="XMLID_1158_">
			<path id="XMLID_1159_" class="st0" d="M33,104.3c0,0,2.2-7.1,2.2-7.1c0,0,0.8-7.1,0.8-7.1s-2.7,6.8-2.8,6.8
				C33.3,96.9,33,104.3,33,104.3z"/>
		</g>
		<g id="XMLID_1156_">
			<path id="XMLID_1157_" class="st0" d="M35.9,108.4c0,0,2.6-7.3,2.6-7.4s0.6-7.4,0.6-7.4s-2.6,7.1-2.6,7.1
				C36.6,100.8,35.9,108.4,35.9,108.4z"/>
		</g>
		<g id="XMLID_1154_">
			<path id="XMLID_1155_" class="st0" d="M43.3,109c0,0,1.9-5.8,1.9-5.8c0-0.1-0.1-5.9-0.1-5.9s-1.9,5.6-1.9,5.7
				C43.2,103,43.3,109,43.3,109z"/>
		</g>
		<g id="XMLID_1152_">
			<path id="XMLID_1153_" class="st0" d="M49.8,115.9c0,0,2.9-4.8,3-4.9s1-5.2,1-5.2s-2.9,4.7-2.9,4.7
				C50.9,110.6,49.8,115.9,49.8,115.9z"/>
		</g>
		<g id="XMLID_1150_">
			<path id="XMLID_1151_" class="st0" d="M46.7,129c0,0,2.9-4.8,3-4.9c0,0,1-5.2,1-5.2s-2.9,4.7-2.9,4.7
				C47.7,123.6,46.7,129,46.7,129z"/>
		</g>
		<g id="XMLID_1148_">
			<path id="XMLID_1149_" class="st0" d="M37.5,86.1c0,0,3.8-8.6,3.9-8.6c0-0.1,2.7-8.6,2.7-8.6s-4.6,8.1-4.6,8.1
				c0,0-0.1,0.2-0.1,0.4c-0.1,0.3-0.1,0.6-0.2,1.1c-0.2,0.9-0.4,2-0.7,3.1C38,83.9,37.5,86.1,37.5,86.1z"/>
		</g>
		<g id="XMLID_1146_">
			<path id="XMLID_1147_" class="st0" d="M30.2,96.3c0,0,3.8-8.6,3.9-8.6c0-0.1,2.7-8.6,2.7-8.6s-4.6,8.1-4.6,8.1
				c0,0-0.1,0.2-0.1,0.4c-0.1,0.3-0.1,0.6-0.2,1.1c-0.2,0.9-0.4,2-0.7,3.1C30.7,94.1,30.2,96.3,30.2,96.3z"/>
		</g>
		<g id="XMLID_1143_">
			<path id="XMLID_1145_" class="st0" d="M33.8,93.6c0,0,2.5-4.8,2.5-4.8c0,0,0.5-5.1,0.5-5.1s-2.4,4.6-2.4,4.7
				C34.4,88.4,33.8,93.6,33.8,93.6z"/>
		</g>
		<g id="XMLID_1140_">
			<path id="XMLID_1141_" class="st0" d="M32.7,82.8c0,0,3.7-6.2,3.7-6.2c0-0.1,1.7-6.6,1.7-6.6s-3.6,6-3.6,6
				C34.5,76.1,32.7,82.8,32.7,82.8z"/>
		</g>
		<g id="XMLID_1138_">
			<path id="XMLID_1139_" class="st0" d="M36,72.9c0,0,3.1-5.2,3.1-5.2c0,0,1.2-5.6,1.2-5.6s-3.1,5-3.1,5C37.3,67.2,36,72.9,36,72.9
				z"/>
		</g>
		<g id="XMLID_1136_">
			<path id="XMLID_1137_" class="st0" d="M28.4,87.7c0,0,3.1-5.2,3.1-5.2c0,0,1.2-5.6,1.2-5.6s-3.1,5-3.1,5
				C29.6,82,28.4,87.7,28.4,87.7z"/>
		</g>
		<g id="XMLID_1134_">
			<path id="XMLID_1135_" class="st0" d="M34.3,68c0,0,0.6-1.9,1.3-3.8c0.8-1.9,1.6-3.8,1.6-3.8c0,0,0.4-1.9,0.8-3.8
				c0.6-1.9,1.1-3.8,1.1-3.8s-1,1.8-2,3.5c-0.9,1.8-1.8,3.7-1.8,3.7c0,0,0,0.1-0.1,0.4c0,0.2-0.1,0.5-0.1,0.9
				C34.9,62,34.7,63,34.6,64C34.4,66,34.3,68,34.3,68z"/>
		</g>
		<g id="XMLID_1132_">
			<path id="XMLID_1133_" class="st0" d="M30.6,78c0,0,0.4-1.3,0.9-2.5c0.3-0.6,0.6-1.2,0.8-1.7c0.2-0.5,0.4-0.8,0.4-0.8
				c0,0,0.3-1.3,0.5-2.5C33.6,69.3,34,68,34,68s-0.9,1.1-1.7,2.2c-0.7,1.2-1.5,2.4-1.5,2.4c0,0,0,0.1,0,0.2c0,0.2,0,0.4-0.1,0.6
				c0,0.5-0.1,1.2-0.2,1.9C30.6,76.7,30.6,78,30.6,78z"/>
		</g>
		<g id="XMLID_1127_">
			<path id="XMLID_1131_" class="st0" d="M32.8,90.4c0,0,0.9-0.3,1.7-0.8c0.8-0.5,1.5-1.2,1.5-1.2s0-0.2,0.1-0.5
				c0.1-0.3,0.1-0.7,0.1-1.1c0-0.8-0.3-1.5-0.3-1.5s-0.3,0.7-0.7,1.3c-0.4,0.6-1,1.1-1,1.1s-0.1,0.7-0.5,1.4
				C33.3,89.8,32.8,90.4,32.8,90.4z"/>
		</g>
		<g id="XMLID_1125_">
			<path id="XMLID_1126_" class="st0" d="M27.6,70.9c0,0,2.4-3.9,2.4-3.9c0,0,0.5-4.2,0.5-4.2s-2.4,3.7-2.4,3.8
				C28.1,66.5,27.6,70.9,27.6,70.9z"/>
		</g>
		<g id="XMLID_1123_">
			<path id="XMLID_1124_" class="st0" d="M31.1,60.7c0,0,2.2-4.4,2.2-4.5c0,0,0.2-4.7,0.2-4.7s-2.2,4.3-2.2,4.3
				C31.4,56,31.1,60.7,31.1,60.7z"/>
		</g>
		<g id="XMLID_1121_">
			<path id="XMLID_1122_" class="st0" d="M30.7,58.5c0,0,3.5-5.2,3.5-5.3c0,0,1.5-5.7,1.5-5.7s-3.4,5.1-3.4,5.1S30.7,58.5,30.7,58.5
				z"/>
		</g>
		<g id="XMLID_1119_">
			<path id="XMLID_1120_" class="st0" d="M27.9,56.7c0,0,0.8-1.4,1.5-2.7c0.3-0.7,0.7-1.4,0.9-1.9c0.1-0.3,0.2-0.5,0.3-0.6
				c0.1-0.2,0.1-0.3,0.1-0.3c0,0,0.1-1.5,0.1-3c0-1.4-0.1-2.9-0.1-2.9s-0.5,1.4-0.9,2.8c-0.6,1.4-1.1,2.7-1.1,2.7c0,0-0.2,1.5-0.3,3
				C28.2,55.2,27.9,56.7,27.9,56.7z"/>
		</g>
		<g id="XMLID_1117_">
			<path id="XMLID_1118_" class="st0" d="M26.1,51.2c0,0,2.7-5.7,2.7-5.8c0-0.1,0.7-6,0.7-6S26.8,45,26.8,45
				C26.8,45.1,26.1,51.2,26.1,51.2z"/>
		</g>
		<g id="XMLID_1115_">
			<path id="XMLID_1116_" class="st0" d="M24.7,40.6c0,0,0,0.1,0.1,0.6l0,0.1l0.1-0.1c0.2-0.2,0.7-1.3,1.2-2.2c0.5-1,1-1.9,1-1.9
				c0,0,0.4-5,0.4-5s-2.3,4.6-2.3,4.6c0,0-0.1,1-0.2,2.1c-0.1,1.1-0.2,2.2-0.1,2.5c0.1,0,0,0,0.1,0C24.7,40.7,24.7,40.6,24.7,40.6z"
				/>
		</g>
		<g id="XMLID_1113_">
			<path id="XMLID_1114_" class="st0" d="M25.2,58.9c0,0,0.5-1.2,1-2.5c0.3-0.6,0.5-1.3,0.7-1.7c0.1-0.2,0.2-0.4,0.2-0.6
				c0.1-0.1,0.1-0.2,0.1-0.2c0,0-0.5-5.1-0.5-5.1s-1.5,4.9-1.5,4.9C25.3,53.7,25.2,58.9,25.2,58.9z"/>
		</g>
		<g id="XMLID_1111_">
			<path id="XMLID_1112_" class="st0" d="M27.5,64.8c0,0,2-3.5,2-3.5c0,0,0-3.8,0-3.8s-1.9,3.4-1.9,3.4C27.5,61,27.5,64.8,27.5,64.8
				z"/>
		</g>
		<g id="XMLID_1109_">
			<path id="XMLID_1110_" class="st0" d="M57.3,122.8c0,0,0.6-1.1,1.2-2.2c0.3-0.6,0.5-1.1,0.7-1.6c0.2-0.4,0.3-0.7,0.3-0.7
				c0,0-0.1-1.2-0.1-2.4c-0.2-1.2-0.4-2.3-0.4-2.3s-0.3,1.1-0.6,2.2c-0.4,1.1-0.8,2.2-0.8,2.2c0,0,0,1.2-0.1,2.4
				C57.4,121.7,57.3,122.8,57.3,122.8z"/>
		</g>
		<g id="XMLID_1107_">
			<path id="XMLID_1108_" class="st0" d="M63.7,126.3c0,0,3.3-5.2,3.3-5.3c0,0,1.4-5.7,1.4-5.7s-3.2,5.1-3.3,5.1
				C65.1,120.5,63.7,126.3,63.7,126.3z"/>
		</g>
		<g id="XMLID_1105_">
			<path id="XMLID_1106_" class="st0" d="M57.5,136.4c0,0,1.5-4.1,1.5-4.1c0,0-0.5-4.2-0.5-4.2s-1.5,4-1.5,4
				C57,132.2,57.5,136.4,57.5,136.4z"/>
		</g>
		<g id="XMLID_1103_">
			<path id="XMLID_1104_" class="st0" d="M76.3,150.1c0,0,3.5-6.6,3.5-6.6c0-0.1,1.5-6.9,1.5-6.9s-3.4,6.4-3.4,6.4
				C77.8,143,76.3,150.1,76.3,150.1z"/>
		</g>
		<g id="XMLID_1101_">
			<path id="XMLID_1102_" class="st0" d="M92.6,155.5c0,0,1.9-4.4,1.9-4.5c0,0-0.1-4.6-0.1-4.6s-1.9,4.3-1.9,4.4
				C92.6,150.8,92.6,155.5,92.6,155.5z"/>
		</g>
		<g id="XMLID_1099_">
			<path id="XMLID_1100_" class="st0" d="M91.9,165.9c0,0,1.9-4.4,1.9-4.5c0,0-0.1-4.6-0.1-4.6s-1.9,4.3-1.9,4.4
				C91.8,161.2,91.9,165.9,91.9,165.9z"/>
		</g>
	</g>
</g>
</svg>
