<?xml version="1.0" encoding="utf-8"?>
<!-- Generator: Adobe Illustrator 19.0.0, SVG Export Plug-In . SVG Version: 6.00 Build 0)  -->
<svg version="1.1" id="Layer_1" xmlns="http://www.w3.org/2000/svg" xmlns:xlink="http://www.w3.org/1999/xlink" x="0px" y="0px"
	 viewBox="0 0 318 286.5" style="enable-background:new 0 0 318 286.5;" xml:space="preserve">
<style type="text/css">
	.st0{fill:#EF7B05;}
</style>
<g id="Bandholz_2_">
	<path id="XMLID_147_" class="st0" d="M289.7,98l2.8,2.6c-5.6-13.4-5.4-48.9-5.4-48.9l-6.9,4.2c0,0-2.1,12.5-4.8,22.5
		c-3.9,14.3-23,29.8-43.7,45.2c-14.2,10.6-25.6,24.3-41.6,25.4c-12.4,0.8-13.9-8.5-13.9-8.5h-27.7c0,0-1.5,9.3-13.9,8.5
		c-16-1.1-27.4-14.8-41.6-25.4c-20.7-15.4-39.8-30.4-43.7-44.7c-2.7-10-4.9-22.9-4.9-22.9l-6.9-4.2c0,0,0.2,35.5-5.4,48.9L35,98
		c0,0,2.1,25.5-2.3,34l4.9-4.2c0,0-0.7,26.2,4.2,38.1l2.8-5c0,0,6.3,28.4,23.6,41.3V198c0,0,10.8,15,38.8,21.6c0,0,0-3,0-3
		c20.3,11.6,55.8,14.6,55.8,14.6s42.2-4.3,55.1-14.6c0,0,0,3,0,3c28-6.6,38.8-21.6,38.8-21.6v4.2c17.3-12.9,23.6-41.3,23.6-41.3
		l2.8,5c4.8-11.9,4.2-38.1,4.2-38.1l4.9,4.2C287.6,123.5,289.7,98,289.7,98z"/>
	<g id="XMLID_144_">
		<g id="XMLID_145_">
			<path id="XMLID_146_" class="st0" d="M271.1,135.8c-27-6.3-39.4-23.2-66.4-31c-22-6.3-36.1-1.2-43.5-1.2h0
				c-7.4,0-21.5-5.1-43.5,1.2c-27,7.7-39.4,24.7-66.4,31c0,0,44.5,3.3,64.9-7.7l-3,4.9c0,0,23.4-3.8,35.5-11
				c7-4.1,12.5-4.6,12.5-4.6c0,0,5.6,0.5,12.6,4.6c12.1,7.1,35.5,11,35.5,11l-3-4.9C226.6,139,271.1,135.8,271.1,135.8z"/>
		</g>
	</g>
</g>
</svg>
