<?xml version="1.0" encoding="utf-8"?>
<!-- Generator: Adobe Illustrator 19.0.0, SVG Export Plug-In . SVG Version: 6.00 Build 0)  -->
<svg version="1.1" id="Layer_1" xmlns="http://www.w3.org/2000/svg" xmlns:xlink="http://www.w3.org/1999/xlink" x="0px" y="0px"
	 viewBox="0 0 136.30138 89.0411" style="enable-background:new 0 0 136.30138 89.0411;" xml:space="preserve">
<style type="text/css">
	.st0{fill:#EF7B05;}
</style>
<path id="XMLID_1125_" class="st0" d="M128.31462,10.79463c-2.8237,3.84495-16.31338,24.85069-20.30685,28.5526
	c-7.5069,6.95399-19.46733,8.70521-26.93224,5.65117c-6.1963-2.53543-10.90002-16.87659-12.61115-23.92827
	c-1.71145,7.05168-6.41455,21.39284-12.61116,23.92827c-7.4649,3.05404-19.22017,1.92061-26.93104-5.65117
	c-3.9101-3.83974-17.48522-24.70765-20.30745-28.5526C1.5325,31.99872,18.56954,76.1589,44.33591,79.44997
	c5.6105,0.71586,14.83183,2.606,24.12848,2.62087c9.29784-0.01488,18.51828-1.90501,24.12878-2.62087
	C118.35896,76.1589,135.39685,31.99872,128.31462,10.79463z"/>
</svg>
