<?xml version="1.0" encoding="utf-8"?>
<!-- Generator: Adobe Illustrator 19.0.0, SVG Export Plug-In . SVG Version: 6.00 Build 0)  -->
<svg version="1.1" id="Layer_1" xmlns="http://www.w3.org/2000/svg" xmlns:xlink="http://www.w3.org/1999/xlink" x="0px" y="0px"
	 viewBox="0 0 318 286.5" style="enable-background:new 0 0 318 286.5;" xml:space="preserve">
<style type="text/css">
	.st0{fill:#EF7B05;}
</style>
<path id="_x31__2_" class="st0" d="M214.9,134.6c12.5,1.3-1.9,21.1-18.7,4.1c-5.9-6-10.9-12.7-19-13.8c-6.2-0.8-11.8,1.3-14.5,5.5
	c-2.7-4.2-8.4-6.3-14.5-5.5c-8.1,1.1-13.1,7.8-19,13.8c-16.7,17-31.1-2.8-18.7-4.1c-10.6-2.8-13.2,13.5,2.7,19.2
	c13.1,4.8,41.3,0.9,49.5-12.1c6.7,12.7,35.2,17,49.5,12.1C228.2,148.3,225.5,131.7,214.9,134.6z"/>
</svg>
