<?xml version="1.0" encoding="utf-8"?>
<!-- Generator: Adobe Illustrator 19.0.0, SVG Export Plug-In . SVG Version: 6.00 Build 0)  -->
<svg version="1.1" id="Layer_1" xmlns="http://www.w3.org/2000/svg" xmlns:xlink="http://www.w3.org/1999/xlink" x="0px" y="0px"
	 viewBox="0 0 287.8378 160.1351" enable-background="new 0 0 287.8378 160.1351" xml:space="preserve">
<g id="XMLID_15107_">
	<path id="XMLID_15116_" fill="#A00202" d="M141.5978,61.8668c-7.93,10.0468-82.4959,21.682-83.4261,2.2122
		C57.0162,39.8937,128.9607,43.9451,141.5978,61.8668z"/>
	<path id="XMLID_15115_" fill="#D10702" d="M138.1591,57.7926c-21.1249,3.2579-54.6625,22.6244-80.319,61.7172l33.6865-6.7522
		l14.0629,33.0028c8.8099-43.6129,23.5769-69.7654,31.3935-77.4331L138.1591,57.7926z"/>
	<path id="XMLID_15114_" fill="#EA1303" d="M142.8133,56.0382c-12.84-24.6299-35.7696-39.1754-63.2781-49.1445
		c-12.248,13.0588-22.76,31.9873-21.3636,57.1854c11.1058-11.3985,49.6796-11.5194,81.5397-2.2122L142.8133,56.0382z"/>
	<path id="XMLID_15113_" fill="#FF2D17" d="M122.2386,39.6005c-9.236-10.1273-21.7673-17.3499-36.3824-22.7361
		c-2.2071-0.8136-4.6696-0.0473-6.1767,1.9065c-4.9058,6.3598-8.1854,14.3306-10.2463,23.5087
		c-0.9364,4.1704,2.4933,7.9512,6.4022,7.0596c13.383-3.0525,27.1438-2.7739,41.2143,0.2318
		C122.3688,50.7072,126.0136,43.7397,122.2386,39.6005z"/>
	<path id="XMLID_15112_" fill="#A00202" d="M144.0907,61.8668c7.93,10.0468,82.4959,21.682,83.4261,2.2122
		C228.6723,39.8937,156.7276,43.9451,144.0907,61.8668z"/>
	<path id="XMLID_15111_" fill="#D10702" d="M147.5294,57.7926c21.1249,3.2579,54.6622,22.6244,80.319,61.7172l-33.6868-6.7522
		l-14.0626,33.0028c-8.8099-43.6129-23.5771-69.7654-31.3935-77.4331L147.5294,57.7926z"/>
	<path id="XMLID_15110_" fill="#EA1303" d="M142.8752,56.0382c12.8401-24.6299,35.7697-39.1754,63.2781-49.1445
		c12.2479,13.0588,22.7597,31.9873,21.3635,57.1854c-11.1058-11.3985-49.6798-11.5194-81.5399-2.2122L142.8752,56.0382z"/>
	<path id="XMLID_15109_" fill="#FF2D17" d="M163.4499,39.6005c9.236-10.1273,21.7673-17.3499,36.3822-22.7361
		c2.2074-0.8136,4.6696-0.0473,6.177,1.9065c4.9055,6.3598,8.1854,14.3306,10.2463,23.5087
		c0.9364,4.1704-2.4935,7.9512-6.4025,7.0596c-13.3828-3.0525-27.1435-2.7739-41.214,0.2318
		C163.3195,50.7072,159.6749,43.7397,163.4499,39.6005z"/>
	<path id="XMLID_15108_" fill="#FF2D17" d="M145.3266,69.7315c0.9524-0.1685,1.919-0.4573,2.709-1.147
		c2.0313-1.7728,2.2074-5.3982,2.1829-8.5066c-0.0166-2.1247-0.0361-4.275-0.4652-6.3302
		c-0.4294-2.0552-1.3185-4.0384-2.7384-5.1914c-1.4606-1.1859-3.2878-1.3644-5.0267-1.3612
		c-1.4386,0.0027-3.0261,0.1867-4.0253,1.4875c-0.9856,1.2829-1.3421,3.7582-1.6832,5.4895
		c-0.6443,3.2718-1.5381,11.0797,0.1973,13.2904C138.2771,69.7557,143.1951,70.1087,145.3266,69.7315z"/>
</g>
</svg>
