<?xml version="1.0" encoding="utf-8"?>
<!-- Generator: Adobe Illustrator 19.0.0, SVG Export Plug-In . SVG Version: 6.00 Build 0)  -->
<svg version="1.1" id="Layer_1" xmlns="http://www.w3.org/2000/svg" xmlns:xlink="http://www.w3.org/1999/xlink" x="0px" y="0px"
	 viewBox="0 0 287.8378 160.1351" enable-background="new 0 0 287.8378 160.1351" xml:space="preserve">
<g id="XMLID_14914_">
	<g id="XMLID_15177_">
		<path id="XMLID_15179_" fill="#353535" d="M212.5704,37.7663c4.5821-0.369,9.527-0.3139,13.342,1.9767
			c5.4484,3.2715,6.728,9.8281,7.2829,15.6605c1.3568,14.2635,1.2574,28.637-0.2967,42.8844
			c-0.441,4.0446-1.15,8.3792-4.2807,11.3344c-3.2984,3.1133-8.4618,3.9131-13.2561,4.2044
			c-22.1828,1.3489-44.8377-4.7666-62.4493-16.8581c-4.4753-3.0723-8.8134-6.7631-10.4131-11.5906
			c-1.7957-5.418,13.4985-20.9929,17.4043-24.6538c8.7794-8.2294,19.6866-14.6463,31.6155-18.6363
			C198.2806,39.8261,205.3752,38.3456,212.5704,37.7663z"/>
		<path id="XMLID_15178_" fill="#353535" d="M74.5812,37.7663c-4.5818-0.369-9.5267-0.3139-13.3417,1.9767
			c-5.4487,3.2715-6.7281,9.8281-7.283,15.6605c-1.3568,14.2635-1.2576,28.637,0.2965,42.8844
			c0.4413,4.0446,1.1503,8.3792,4.281,11.3344c3.2984,3.1133,8.4615,3.9131,13.2558,4.2044
			c22.1831,1.3489,44.8377-4.7666,62.4495-16.8581c4.4751-3.0723,8.8131-6.7631,10.4131-11.5906
			c1.7957-5.418-13.4988-20.9929-17.4042-24.6538c-8.7795-8.2294-19.6866-14.6463-31.6156-18.6363
			C88.8713,39.8261,81.7767,38.3456,74.5812,37.7663z"/>
	</g>
	<g id="XMLID_14918_">
		<circle id="XMLID_15176_" cx="132.2519" cy="75.3936" r="2.4169"/>
		<circle id="XMLID_15175_" cx="84.2354" cy="46.5156" r="2.4171"/>
		<circle id="XMLID_15174_" cx="84.2354" cy="104.2717" r="2.4173"/>
		<circle id="XMLID_15173_" cx="84.2354" cy="65.7677" r="2.4171"/>
		<circle id="XMLID_15172_" cx="84.2354" cy="85.0198" r="2.4171"/>
		<circle id="XMLID_15171_" cx="103.4419" cy="65.7677" r="2.4171"/>
		<circle id="XMLID_15170_" cx="93.8388" cy="75.3936" r="2.4171"/>
		<circle id="XMLID_15169_" cx="93.8388" cy="94.6457" r="2.4171"/>
		<circle id="XMLID_15168_" cx="74.6321" cy="56.1416" r="2.4173"/>
		<path id="XMLID_15167_" d="M93.8388,111.4806c-1.0435,0-1.9242,0.6649-2.2631,1.5913c1.3946-0.1883,2.7832-0.4038,4.1666-0.6473
			C95.2999,111.8543,94.6162,111.4806,93.8388,111.4806z"/>
		<path id="XMLID_15166_" d="M122.6488,101.8544c-1.3351,0-2.4174,1.0824-2.4174,2.4174c0,0.1935,0.0285,0.3785,0.0712,0.5584
			c1.4291-0.6533,2.8323-1.3484,4.2204-2.0669C124.0801,102.2131,123.4097,101.8544,122.6488,101.8544z"/>
		<circle id="XMLID_15165_" cx="103.4419" cy="104.2717" r="2.4173"/>
		<path id="XMLID_15164_" d="M77.04,113.9907c0.0014-0.0318,0.0092-0.0611,0.0092-0.0929c0-1.3351-1.0826-2.4171-2.4171-2.4171
			c-1.3166,0-2.3824,1.0535-2.4117,2.3636C73.8255,113.9347,75.4323,113.9774,77.04,113.9907z"/>
		<circle id="XMLID_15163_" cx="74.6321" cy="75.3936" r="2.4171"/>
		<path id="XMLID_15162_" d="M72.3443,37.6359c0.3163,0.9674,1.215,1.6709,2.2878,1.6709c0.928,0,1.7245-0.5294,2.1294-1.2965
			c-0.7272-0.0772-1.45-0.1853-2.1799-0.2438C73.8435,37.7071,73.0951,37.666,72.3443,37.6359z"/>
		<circle id="XMLID_15161_" cx="74.6321" cy="94.6457" r="2.4171"/>
		<circle id="XMLID_15160_" cx="93.8388" cy="56.1416" r="2.4173"/>
		<circle id="XMLID_15159_" cx="218.6824" cy="85.0198" r="2.4171"/>
		<circle id="XMLID_15158_" cx="228.2855" cy="56.1416" r="2.4173"/>
		<circle id="XMLID_15157_" cx="218.6824" cy="104.2717" r="2.4173"/>
		<circle id="XMLID_15156_" cx="218.6824" cy="46.5156" r="2.4171"/>
		<circle id="XMLID_15155_" cx="228.2855" cy="75.3936" r="2.4171"/>
		<circle id="XMLID_15154_" cx="218.6824" cy="65.7677" r="2.4171"/>
		<circle id="XMLID_15153_" cx="228.2855" cy="94.6457" r="2.4171"/>
		<circle id="XMLID_15152_" cx="122.6488" cy="85.0198" r="2.4171"/>
		<circle id="XMLID_15151_" cx="113.0452" cy="56.1416" r="2.4173"/>
		<circle id="XMLID_15150_" cx="113.0452" cy="94.6457" r="2.4171"/>
		<path id="XMLID_15149_" d="M101.025,46.5156c0,1.3351,1.0823,2.4171,2.4169,2.4171c1.3351,0,2.4171-1.0821,2.4171-2.4171
			c0-0.0954-0.0171-0.1859-0.028-0.2788c-1.2432-0.594-2.5036-1.1568-3.7783-1.6935
			C101.4326,44.9802,101.025,45.699,101.025,46.5156z"/>
		<circle id="XMLID_15148_" cx="113.0452" cy="75.3936" r="2.4171"/>
		<circle id="XMLID_15147_" cx="122.6488" cy="65.7677" r="2.4171"/>
		<circle id="XMLID_15146_" cx="103.4419" cy="85.0198" r="2.4171"/>
		<path id="XMLID_15145_" d="M209.0791,111.4806c-1.3351,0-2.4171,1.0821-2.4171,2.4171c0,0.0253,0.0065,0.0478,0.0073,0.072
			c1.6057,0.0418,3.2123,0.0462,4.8183,0.0109c0.0009-0.0277,0.0081-0.0544,0.0081-0.0829
			C211.4957,112.5627,210.4136,111.4806,209.0791,111.4806z"/>
		<circle id="XMLID_15144_" cx="65.0287" cy="104.2717" r="2.4173"/>
		<circle id="XMLID_15143_" cx="170.6654" cy="94.6457" r="2.4171"/>
		<circle id="XMLID_15142_" cx="161.0621" cy="65.7677" r="2.417"/>
		<circle id="XMLID_15141_" cx="180.2687" cy="85.0198" r="2.4171"/>
		<circle id="XMLID_15140_" cx="161.062" cy="85.0198" r="2.4171"/>
		<circle id="XMLID_15139_" cx="170.6654" cy="75.3936" r="2.4171"/>
		<path id="XMLID_15138_" d="M161.062,101.8544c-0.038,0-0.0736,0.0092-0.1114,0.0111c0.7221,0.3927,1.4411,0.7889,2.1742,1.1633
			C162.702,102.3278,161.9406,101.8544,161.062,101.8544z"/>
		<circle id="XMLID_15137_" cx="180.2687" cy="104.2717" r="2.4173"/>
		<circle id="XMLID_15136_" cx="180.2687" cy="65.7677" r="2.4171"/>
		<circle id="XMLID_15135_" cx="170.6654" cy="56.1416" r="2.4173"/>
		<path id="XMLID_15134_" d="M53.7525,57.8812c0.4348,0.4179,1.0223,0.6777,1.6728,0.6777c1.3351,0,2.4171-1.0823,2.4171-2.4174
			s-1.0821-2.4171-2.4171-2.4171c-0.4935,0-0.9516,0.1492-1.3343,0.4038c-0.0486,0.4272-0.0943,0.8535-0.1345,1.2756
			C53.8783,56.2287,53.8213,57.0553,53.7525,57.8812z"/>
		<path id="XMLID_15133_" d="M55.4254,77.8107c1.3351,0,2.4171-1.0821,2.4171-2.4171s-1.0821-2.4171-2.4171-2.4171
			c-1.2859,0-2.3269,1.0068-2.4027,2.2731c-0.0003,0.0905-0.0016,0.1818-0.0016,0.2723
			C53.0892,76.7958,54.134,77.8107,55.4254,77.8107z"/>
		<path id="XMLID_15132_" d="M55.4254,92.2285c-0.6576,0-1.2527,0.2647-1.6883,0.6902c0.1041,1.2495,0.2335,2.4968,0.3598,3.7438
			c0.3813,0.2522,0.8372,0.4003,1.3285,0.4003c1.3351,0,2.4171-1.0821,2.4171-2.4171S56.7604,92.2285,55.4254,92.2285z"/>
		<circle id="XMLID_15131_" cx="132.2522" cy="94.6457" r="2.4171"/>
		<circle id="XMLID_15130_" cx="65.0287" cy="65.7677" r="2.4171"/>
		<path id="XMLID_15129_" d="M189.8721,111.4806c-0.4856,0-0.9353,0.1465-1.3144,0.3927c1.0883,0.2236,2.1796,0.4323,3.2761,0.6207
			C191.3949,111.8825,190.6821,111.4806,189.8721,111.4806z"/>
		<circle id="XMLID_15128_" cx="65.0287" cy="46.5156" r="2.4171"/>
		<circle id="XMLID_15127_" cx="65.0287" cy="85.0198" r="2.4171"/>
		<path id="XMLID_15126_" d="M209.0791,39.3068c0.9674,0,1.7957-0.5728,2.1818-1.3938c-1.3631,0.1307-2.7264,0.263-4.0796,0.4573
			C207.6239,38.9364,208.3051,39.3068,209.0791,39.3068z"/>
		<circle id="XMLID_15125_" cx="209.0791" cy="75.3936" r="2.4171"/>
		<circle id="XMLID_15124_" cx="209.0791" cy="56.1416" r="2.4173"/>
		<circle id="XMLID_15123_" cx="209.0791" cy="94.6457" r="2.4171"/>
		<circle id="XMLID_15122_" cx="141.8556" cy="85.0198" r="2.4171"/>
		<circle id="XMLID_15121_" cx="151.4586" cy="75.3936" r="2.4171"/>
		<path id="XMLID_15120_" d="M180.2687,48.9327c1.3351,0,2.4171-1.0821,2.4171-2.4171c0-0.3049-0.0628-0.5938-0.1658-0.8628
			c-1.4582,0.6693-2.893,1.3788-4.3058,2.1226C178.6396,48.4672,179.397,48.9327,180.2687,48.9327z"/>
		<path id="XMLID_15119_" d="M153.8758,94.6457c0-1.3351-1.0821-2.4171-2.4171-2.4171c-1.1475,0-2.1033,0.8016-2.3503,1.8745
			c1.1199,0.938,2.3025,1.819,3.5047,2.6541C153.3619,96.346,153.8758,95.5604,153.8758,94.6457z"/>
		<circle id="XMLID_15118_" cx="189.8721" cy="94.6457" r="2.4171"/>
		<circle id="XMLID_15117_" cx="189.8721" cy="56.1416" r="2.4173"/>
		<circle id="XMLID_15015_" cx="189.8721" cy="75.3936" r="2.4171"/>
		<circle id="XMLID_14993_" cx="199.4757" cy="46.5156" r="2.4171"/>
		<circle id="XMLID_14921_" cx="199.4757" cy="85.0198" r="2.4171"/>
		<circle id="XMLID_14920_" cx="199.4757" cy="104.2717" r="2.4173"/>
		<circle id="XMLID_14919_" cx="199.4757" cy="65.7677" r="2.4171"/>
	</g>
	<path id="XMLID_14917_" d="M147.17,96.9772c1.3788-0.1943,2.7783-0.5269,3.922-1.3212c2.9411-2.0421,3.196-6.218,3.1606-9.7985
		c-0.0245-2.4473-0.0524-4.9242-0.6739-7.2917c-0.6215-2.3671-1.9087-4.6517-3.9647-5.9797
		c-2.1144-1.3658-4.7601-1.5715-7.2773-1.5677c-2.0829,0.003-4.3813,0.2147-5.828,1.7131c-1.4269,1.478-1.9429,4.3291-2.4367,6.3234
		c-0.9332,3.7685-2.2269,12.7621,0.2853,15.3086C136.9637,97.0052,144.0841,97.4115,147.17,96.9772z"/>
	<path id="XMLID_14916_" opacity="0.5" fill="#353535" d="M195.0317,87.6961c-0.5495-0.1986-4.3974-1.6582-9.9879-2.8519
		c-5.577-1.2674-12.8561-2.1158-19.976-2.2949c-6.0128-0.1299-11.8835,0.1299-16.679,0.5785
		c4.9204-1.7622,11.5031-3.9057,18.2879-5.8838c3.4087-0.9949,6.8335-1.9938,10.0705-2.9386
		c3.1946-0.9122,6.1547-1.6688,8.7545-2.2209c5.1911-1.1041,8.9916-1.603,9.5346-1.7242c2.1718-0.4212,4.3174-2.0685,3.6028-6.2291
		c-0.715-4.1568-3.3199-4.9748-5.6226-4.5299c-0.5666,0.1291-4.5228,0.9557-10.1023,2.734
		c-2.7845,0.8845-5.9261,2.0565-9.1368,3.3911c-3.1943,1.3432-6.4664,2.7585-9.78,4.2533
		c-6.6022,2.962-13.0499,6.3267-17.5586,9.3498c-3.0136,1.9997-5.1422,3.7799-6.1322,4.9411
		c-1.9082,0.4182-3.0394,0.8601-3.0375,1.2666c-0.0084,1.5932,13.6725,2.4916,27.0364,4.7177
		c6.677,1.1337,13.2341,2.6805,18.0752,4.3191c4.8704,1.5726,8.0648,3.1008,8.5498,3.2731c1.8919,0.7549,4.3965,0.5334,6.2313-3.287
		C198.9833,90.7714,197.2434,88.5839,195.0317,87.6961z"/>
	<path id="XMLID_14915_" opacity="0.5" fill="#353535" d="M92.12,87.6961c0.5497-0.1986,4.3976-1.6582,9.9881-2.8519
		c5.577-1.2674,12.8561-2.1158,19.976-2.2949c6.0128-0.1299,11.8833,0.1299,16.679,0.5785
		c-4.9207-1.7622-11.5031-3.9057-18.288-5.8838c-3.409-0.9949-6.8335-1.9938-10.0708-2.9386
		c-3.1943-0.9122-6.1544-1.6688-8.7544-2.2209c-5.1911-1.1041-8.9916-1.603-9.5343-1.7242
		c-2.1718-0.4212-4.3177-2.0685-3.6028-6.2291c0.715-4.1568,3.3199-4.9748,5.6226-4.5299c0.5663,0.1291,4.5229,0.9557,10.1023,2.734
		c2.7845,0.8845,5.9262,2.0565,9.1368,3.3911c3.1944,1.3432,6.4664,2.7585,9.7797,4.2533
		c6.6023,2.962,13.0501,6.3267,17.5586,9.3498c3.0139,1.9997,5.1424,3.7799,6.1324,4.9411
		c1.9082,0.4182,3.0394,0.8601,3.0375,1.2666c0.0081,1.5932-13.6724,2.4916-27.0364,4.7177
		c-6.6769,1.1337-13.2341,2.6805-18.0752,4.3191c-4.8704,1.5726-8.0648,3.1008-8.5498,3.2731
		c-1.8918,0.7549-4.3965,0.5334-6.2313-3.287C88.1686,90.7714,89.9083,88.5839,92.12,87.6961z"/>
</g>
</svg>
