<?xml version="1.0" encoding="utf-8"?>
<!-- Generator: Adobe Illustrator 19.0.0, SVG Export Plug-In . SVG Version: 6.00 Build 0)  -->
<svg version="1.1" id="Layer_1" xmlns="http://www.w3.org/2000/svg" xmlns:xlink="http://www.w3.org/1999/xlink" x="0px" y="0px"
	 viewBox="0 0 243.9189 234.4595" enable-background="new 0 0 243.9189 234.4595" xml:space="preserve">
<g id="XMLID_5700_">
	<polygon id="XMLID_5720_" fill="#FCFCFC" stroke="#EF7B05" stroke-miterlimit="10" points="153.5231,12.6487 98.7009,12.6487 
		115.1448,45.5435 90.4761,176.2143 126.1134,214.5914 161.7451,176.2143 137.0794,45.5435 	"/>
	<g id="XMLID_5701_">
		<path id="XMLID_5719_" fill="#EF7B05" d="M137.8737,18.0495c2.2747,0,4.1175-1.8411,4.1175-4.1173
			c0-0.4464-0.0742-0.8786-0.2068-1.2836h-7.817c-0.1368,0.405-0.2068,0.8371-0.2068,1.2836
			C133.7606,16.2084,135.6004,18.0495,137.8737,18.0495z"/>
		<path id="XMLID_5718_" fill="#EF7B05" d="M149.6354,174.4786c-2.2733,0-4.1144,1.8413-4.1144,4.1145
			c0,2.272,1.8411,4.1203,4.1144,4.1203c2.2734,0,4.1175-1.8483,4.1175-4.1203
			C153.7528,176.3199,151.9088,174.4786,149.6354,174.4786z"/>
		<path id="XMLID_5717_" fill="#EF7B05" d="M126.1134,80.3865c-2.2747,0-4.1188,1.8411-4.1188,4.1173
			c0,2.272,1.8441,4.1103,4.1188,4.1103c2.2733,0,4.1188-1.8384,4.1188-4.1103C130.2322,82.2276,128.3867,80.3865,126.1134,80.3865z
			"/>
		<path id="XMLID_5716_" fill="#EF7B05" d="M126.1134,127.4304c-2.2747,0-4.1188,1.8411-4.1188,4.1146
			c0,2.2762,1.8441,4.1173,4.1188,4.1173c2.2733,0,4.1188-1.8411,4.1188-4.1173
			C130.2322,129.2716,128.3867,127.4304,126.1134,127.4304z"/>
		<path id="XMLID_5715_" fill="#EF7B05" d="M137.8737,150.9538c-2.2733,0-4.1131,1.8455-4.1131,4.1146
			c0,2.2733,1.8398,4.1145,4.1131,4.1145c2.2747,0,4.1175-1.8413,4.1175-4.1145
			C141.9911,152.7993,140.1484,150.9538,137.8737,150.9538z"/>
		<path id="XMLID_5714_" fill="#EF7B05" d="M137.8737,103.9071c-2.2733,0-4.1131,1.8441-4.1131,4.1173s1.8398,4.1173,4.1131,4.1173
			c2.2747,0,4.1175-1.8441,4.1175-4.1173S140.1484,103.9071,137.8737,103.9071z"/>
		<path id="XMLID_5713_" fill="#EF7B05" d="M137.8737,56.8616c-2.2733,0-4.1131,1.8411-4.1131,4.1173
			c0,2.2734,1.8398,4.1175,4.1131,4.1175c1.0354,0,1.9796-0.3836,2.7026-1.0154l-1.315-6.9755
			C138.8264,56.95,138.3644,56.8616,137.8737,56.8616z"/>
		<path id="XMLID_5712_" fill="#EF7B05" d="M149.6354,127.4304c-2.2733,0-4.1144,1.8411-4.1144,4.1146
			c0,2.2762,1.8411,4.1173,4.1144,4.1173c1.8341,0,3.3858-1.198,3.9164-2.8509l-0.7287-3.8721
			C152.0671,128.0179,150.9189,127.4304,149.6354,127.4304z"/>
		<circle id="XMLID_5711_" fill="#EF7B05" cx="126.1134" cy="37.4556" r="4.1173"/>
		<circle id="XMLID_5709_" fill="#EF7B05" cx="126.1134" cy="178.5932" r="4.1188"/>
		<path id="XMLID_5708_" fill="#EF7B05" d="M102.5914,174.4786c-2.2718,0-4.1173,1.8413-4.1173,4.1145
			c0,2.272,1.8455,4.1203,4.1173,4.1203c2.2734,0,4.1189-1.8483,4.1189-4.1203
			C106.7103,176.3199,104.8648,174.4786,102.5914,174.4786z"/>
		<path id="XMLID_5707_" fill="#EF7B05" d="M114.3518,150.9538c-2.2734,0-4.116,1.8455-4.116,4.1146
			c0,2.2733,1.8426,4.1145,4.116,4.1145c2.2747,0,4.1173-1.8413,4.1173-4.1145
			C118.4691,152.7993,116.6265,150.9538,114.3518,150.9538z"/>
		<path id="XMLID_5705_" fill="#EF7B05" d="M102.5914,135.6623c2.2734,0,4.1189-1.8411,4.1189-4.1173
			c0-2.2734-1.8455-4.1146-4.1189-4.1146c-1.2863,0-2.4358,0.5904-3.1932,1.516l-0.7258,3.8578
			C99.2028,134.4614,100.7589,135.6623,102.5914,135.6623z"/>
		<path id="XMLID_5704_" fill="#EF7B05" d="M118.4691,60.979c0-2.2762-1.8426-4.1173-4.1173-4.1173
			c-0.4863,0-0.9541,0.0884-1.3906,0.2439l-1.3135,6.9698c0.723,0.6345,1.6687,1.0211,2.7041,1.0211
			C116.6265,65.0964,118.4691,63.2524,118.4691,60.979z"/>
		<circle id="XMLID_5703_" fill="#EF7B05" cx="114.3518" cy="108.0244" r="4.1173"/>
		<path id="XMLID_5702_" fill="#EF7B05" d="M114.3518,18.0495c2.2747,0,4.1173-1.8411,4.1173-4.1173
			c0-0.4464-0.0755-0.8786-0.2068-1.2836h-7.8197c-0.1341,0.405-0.2068,0.8371-0.2068,1.2836
			C110.2357,16.2084,112.0783,18.0495,114.3518,18.0495z"/>
	</g>
</g>
</svg>
