<?xml version="1.0" encoding="utf-8"?>
<!-- Generator: Adobe Illustrator 19.0.0, SVG Export Plug-In . SVG Version: 6.00 Build 0)  -->
<svg version="1.1" id="Layer_1" xmlns="http://www.w3.org/2000/svg" xmlns:xlink="http://www.w3.org/1999/xlink" x="0px" y="0px"
	 viewBox="0 0 269.5946 132.4324" enable-background="new 0 0 269.5946 132.4324" xml:space="preserve">
<path id="XMLID_14327_" fill="#959C9D" d="M83.7317,70.6002c0.2165-0.111,0.4679-0.1339,0.7491-0.0241
	C84.2294,70.5797,83.9797,70.5878,83.7317,70.6002z"/>
<path id="XMLID_14200_" fill="#EF7B05" d="M72.4454,59.8229c-2.4035,1.2261-7.7642,5.4029-11.4973,8.8633
	c-4.8952,0.0135-8.224-4.2603-9.4413-5.1043c0,0,2.362,5.7213,5.3444,8.7425c-0.0521,0.0432-0.1036,0.0844-0.1556,0.1272
	c-7.7117,0.7028-14.4374-7.2976-14.4374-7.2976s4.1865,9.3865,8.0212,11.2122c-11.6454,3.8475-15.066-11.0359-15.066-11.0359
	s-3.8077,18.5398,15.3264,17.5158c9.0547-0.4846,21.1105-31.6106,58.822-12.3453C114.1867,72.9657,95.7708,47.9247,72.4454,59.8229z
	"/>
<path id="XMLID_14198_" fill="#EF7B05" d="M198.1348,60.536c2.4361,1.1599,6.0513,4.6898,9.7845,8.1501
	c4.8952,0.0135,8.224-4.2603,9.4413-5.1043c0,0-2.362,5.7213-5.3445,8.7425c0.0521,0.0432,0.1036,0.0844,0.1556,0.1272
	c7.7117,0.7028,14.4373-7.2976,14.4373-7.2976s-4.1865,9.3865-8.0211,11.2122c11.6454,3.8475,15.066-11.0359,15.066-11.0359
	s3.8077,18.5398-15.3264,17.5158c-9.0547-0.4846-21.1106-31.6106-58.822-12.3453C154.6806,72.9657,172.1592,48.168,198.1348,60.536z
	"/>
</svg>
