<?xml version="1.0" encoding="utf-8"?>
<!-- Generator: Adobe Illustrator 19.0.0, SVG Export Plug-In . SVG Version: 6.00 Build 0)  -->
<svg version="1.1" id="Layer_1" xmlns="http://www.w3.org/2000/svg" xmlns:xlink="http://www.w3.org/1999/xlink" x="0px" y="0px"
	 viewBox="0 0 243.9189 234.4595" enable-background="new 0 0 243.9189 234.4595" xml:space="preserve">
<g id="XMLID_5721_">
	<polygon id="XMLID_5730_" fill="#EF7B05" points="152.8964,12.9204 98.212,12.9204 114.6141,45.7316 90.0082,176.0701 
		125.5536,214.3495 161.096,176.0701 136.4914,45.7316 	"/>
	<g id="XMLID_5722_">
		<polygon id="XMLID_5729_" fill="#F9F9F9" points="142.8817,79.5797 141.7692,73.6804 102.9277,107.6496 101.3716,115.8833 		"/>
		<polygon id="XMLID_5727_" fill="#F9F9F9" points="131.1939,12.9204 108.2467,32.9926 110.638,37.7723 139.0564,12.9204 		"/>
		<polygon id="XMLID_5726_" fill="#F9F9F9" points="137.2056,49.5341 136.4914,45.7316 138.6623,41.3899 110.8414,65.7213 
			109.2894,73.9535 		"/>
		<polygon id="XMLID_5725_" fill="#F9F9F9" points="159.9011,169.707 158.7871,163.8076 114.5472,202.4983 118.0666,206.2879 		"/>
		<polygon id="XMLID_5724_" fill="#F9F9F9" points="154.2236,139.6612 153.1126,133.7676 96.6117,183.1786 100.1296,186.9697 		"/>
		<polygon id="XMLID_5723_" fill="#F9F9F9" points="148.5533,109.6227 147.438,103.7233 95.0099,149.5792 93.455,157.8045 		"/>
	</g>
</g>
</svg>
