<?xml version="1.0" encoding="utf-8"?>
<!-- Generator: Adobe Illustrator 19.0.0, SVG Export Plug-In . SVG Version: 6.00 Build 0)  -->
<svg version="1.1" id="Layer_1" xmlns="http://www.w3.org/2000/svg" xmlns:xlink="http://www.w3.org/1999/xlink" x="0px" y="0px"
	 viewBox="-185 375 370 370" style="enable-background:new -185 375 370 370;" xml:space="preserve">
<style type="text/css">
	.st0{fill:#EF7B05;}
</style>
<path id="XMLID_259_" class="st0" d="M169,487.5c-8.9-21.3-22-40.6-38.5-56.9c-16.6-16.2-36.1-29-57.5-37.7
	c-22.8-9.3-47.2-13.9-71.8-13.6c-24.6-0.2-49,4.4-71.7,13.6c-21.4,8.8-40.9,21.6-57.5,37.7c-16.5,16.2-29.5,35.6-38.5,56.9
	c-9.4,22.5-14.2,46.6-14,71c-0.2,24.4,4.5,48.5,13.9,71c8.9,21.3,22,40.6,38.5,56.9c16.6,16.1,36.1,28.9,57.5,37.7
	c22.8,9.3,47.2,13.9,71.7,13.6c24.6,0.4,49-4.2,71.8-13.3c21.4-8.7,41-21.6,57.5-37.7c16.5-16.2,29.5-35.6,38.5-56.9
	c9.4-22.5,14.1-46.6,13.9-71C183.1,534.4,178.4,510.1,169,487.5z M-107.3,545.1c20.3-6.7,47.2-15.2,47.2-15.2
	c59.1-18.7,67-41.1,67-41.1s12.4,22.3,55.3,36.9c0,0,23.7,7.8,45.8,15.8c1.1,2.1,2.2,4.4,3.2,6.7c4,9.2,6.8,18.9,8.2,28.8H88.7
	c0,0,0,0,0-0.5c-2.1-5.1-5.3-9.7-9.2-13.6c-3.9-3.6-8.5-6.5-13.5-8.5c-16.3-6.8-35.1-3.3-47.9,9c-4,3.8-7.3,8.2-9.6,13.2
	c-0.7,1.6-1.2,3.3-1.7,5H-4.7c-0.4-1.7-0.9-3.4-1.6-5c-2.1-5.1-5.2-9.7-9.1-13.6c-12.9-12-31.5-15.4-47.8-9c-5.1,2.1-9.8,5.1-13.7,9
	c-3.9,3.8-7,8.5-9.1,13.6v0.5h-30.6c1.5-9.9,4.2-19.6,8.2-28.8c0.2-0.7,0.7-1.7,1.2-2.8L-107.3,545.1L-107.3,545.1z M74.3,593.7
	c0,3.5-0.6,6.9-2,10.1c-1.2,3.1-3.1,5.9-5.4,8.2c-2.4,2.3-5.1,4.1-8.2,5.3c-3.2,1.3-6.6,2-10.1,2c-6.8,0-13.4-2.6-18.2-7.3
	c-2.4-2.3-4.3-5.1-5.5-8.2c-2.6-6.5-2.6-13.7,0-20.1c1.2-3.1,3.1-5.9,5.5-8.2c2.3-2.3,5.1-4.2,8.2-5.3c3.2-1.3,6.6-1.9,10.1-1.8
	c3.5,0,6.9,0.6,10.1,2c3.1,1.2,5.9,3,8.2,5.3s4.2,5.1,5.4,8.2S74.3,590.3,74.3,593.7z M-20.5,593.7c0,3.5-0.6,6.9-2,10.1
	c-1.2,3.1-3.1,5.9-5.4,8.2c-2.4,2.3-5.1,4.1-8.2,5.3c-6.5,2.6-13.8,2.6-20.3,0c-3.1-1.2-5.9-3-8.2-5.3c-2.3-2.3-4.2-5.1-5.4-8.2
	c-2.6-6.5-2.6-13.7,0-20.1c1.2-3.1,3.1-5.9,5.4-8.2c2.3-2.3,5.1-4.2,8.2-5.3c6.5-2.6,13.8-2.6,20.3,0c3.1,1.2,5.9,3,8.2,5.3
	c2.3,2.3,4.2,5.1,5.4,8.2C-21.1,586.9-20.5,590.3-20.5,593.7z M86.3,678.7c-10.8,10.6-23.6,19-37.7,24.7c-14.9,6.1-30.9,9.1-47,9
	c-16.1,0.2-32.1-2.9-47-9c-14.1-5.7-26.9-14-37.7-24.7c-10.8-10.6-19.4-23.2-25.2-37.2c-5.9-14.2-9-29.4-9-44.8h28.1
	c0.6,10.3,5,20.1,12.3,27.4c3.9,3.9,8.6,6.9,13.7,9c11,4.3,23.1,4.3,34.1,0c5.1-2.1,9.8-5.2,13.7-9c3.9-3.8,7-8.4,9.1-13.5
	c1.5-3.5,2.5-7.2,3-10.9h9.1c0.4,3.8,1.3,7.4,2.7,10.9c2.1,5,5.2,9.6,9.1,13.5c4,3.9,8.6,6.9,13.7,9c11,4.3,23.2,4.3,34.2,0
	c5.1-2.1,9.7-5.2,13.6-9c4-3.8,7.1-8.4,9.2-13.5c1.8-4.4,2.9-9.1,3.2-13.9H120c0,15.4-3.1,30.6-9,44.8c-5.8,14-14.3,26.6-25.1,37.2
	H86.3z"/>
</svg>
