<svg id="Layer_1" data-name="Layer 1" xmlns="http://www.w3.org/2000/svg" viewBox="0 0 44.22 43.62"><defs><style>.cls-1{fill:#ef7b05;}</style></defs><path class="cls-1" d="M42.53,13.17a21.27,21.27,0,0,0-4.68-6.92,21.85,21.85,0,0,0-7-4.59A22.59,22.59,0,0,0,22.11,0a22.59,22.59,0,0,0-8.73,1.66,22,22,0,0,0-7,4.59,21.27,21.27,0,0,0-4.68,6.92A21.86,21.86,0,0,0,0,21.81a21.86,21.86,0,0,0,1.69,8.64,21.27,21.27,0,0,0,4.68,6.92,22,22,0,0,0,7,4.59,22.59,22.59,0,0,0,8.73,1.66A22.59,22.59,0,0,0,30.84,42a21.85,21.85,0,0,0,7-4.59,21.27,21.27,0,0,0,4.68-6.92,21.86,21.86,0,0,0,1.69-8.64A21.86,21.86,0,0,0,42.53,13.17Zm-33.62,7c2.47-.81,5.74-1.85,5.74-1.85,7.19-2.28,8.15-5,8.15-5s1.51,2.71,6.73,4.49c0,0,2.89.95,5.57,1.92.13.26.27.53.39.81a13.81,13.81,0,0,1,1,3.51H32.76s0,0,0-.06a5.08,5.08,0,0,0-1.12-1.65A5.38,5.38,0,0,0,30,21.3a5.43,5.43,0,0,0-5.83,1.09A5.21,5.21,0,0,0,23,24a6.26,6.26,0,0,0-.21.61h-1.4A3.39,3.39,0,0,0,21.2,24a5.21,5.21,0,0,0-1.11-1.65,5.55,5.55,0,0,0-5.82-1.09,5.31,5.31,0,0,0-1.67,1.09A4.9,4.9,0,0,0,11.49,24l0,.06H7.77a13.81,13.81,0,0,1,1-3.51C8.79,20.46,8.86,20.34,8.91,20.21ZM31,26.09a3.14,3.14,0,0,1-.24,1.23,3,3,0,0,1-.66,1,3,3,0,0,1-1,.65,3.14,3.14,0,0,1-1.23.24,3.16,3.16,0,0,1-2.22-.89,2.86,2.86,0,0,1-.67-1,3.25,3.25,0,0,1,0-2.45,2.86,2.86,0,0,1,.67-1,2.89,2.89,0,0,1,1-.65A3.07,3.07,0,0,1,27.88,23a3.14,3.14,0,0,1,1.23.24,2.89,2.89,0,0,1,1,.65,3,3,0,0,1,.66,1A3.12,3.12,0,0,1,31,26.09Zm-11.53,0a3.14,3.14,0,0,1-.24,1.23,3,3,0,0,1-.66,1,3,3,0,0,1-1,.65,3.3,3.3,0,0,1-2.47,0,3,3,0,0,1-1-.65,3,3,0,0,1-.66-1,3.25,3.25,0,0,1,0-2.45,3,3,0,0,1,.66-1,2.89,2.89,0,0,1,1-.65,3.3,3.3,0,0,1,2.47,0,2.89,2.89,0,0,1,1,.65,3,3,0,0,1,.66,1A3.12,3.12,0,0,1,19.47,26.09Zm13,10.35a13.91,13.91,0,0,1-4.59,3,14.72,14.72,0,0,1-5.72,1.09,14.76,14.76,0,0,1-5.72-1.09,14.12,14.12,0,0,1-4.59-3,13.71,13.71,0,0,1-3.07-4.53,14.25,14.25,0,0,1-1.1-5.45H11.1a5.07,5.07,0,0,0,1.5,3.33,5.16,5.16,0,0,0,1.67,1.1,5.72,5.72,0,0,0,4.15,0,5.27,5.27,0,0,0,1.67-1.1,5.06,5.06,0,0,0,1.11-1.64,4.93,4.93,0,0,0,.36-1.33h1.11A4.92,4.92,0,0,0,23,28.15a5.06,5.06,0,0,0,1.11,1.64,5.27,5.27,0,0,0,1.67,1.1,5.74,5.74,0,0,0,4.16,0,5.23,5.23,0,0,0,1.66-1.1,4.93,4.93,0,0,0,1.12-1.64,5.28,5.28,0,0,0,.39-1.69h3.46a14.25,14.25,0,0,1-1.1,5.45A13.71,13.71,0,0,1,32.42,36.44Z"/></svg>