<svg xmlns="http://www.w3.org/2000/svg" version="1.1" width="600px" height="600px" xlink="http://www.w3.org/1999/xlink" style="overflow:hidden!important;"><g id="svga-group-wrapper" transform="scale(3 3)"><g id="svga-group-backs-single"><path id="SvgjsPath4285" d="M225,225H-25V-25h250V225z" fill="#cdb380" stroke-width="none" opacity="1" stroke="none"></path><path id="SvgjsPath4286" d="M16,9.999c0,3.313-2.687,6-6,6s-6-2.687-6-6s2.687-6,6-6S16,6.686,16,9.999z M28,3.999c-3.313,0-6,2.687-6,6s2.687,6,6,6s6-2.687,6-6S31.313,3.999,28,3.999z M46,3.999c-3.313,0-6,2.687-6,6s2.687,6,6,6s6-2.687,6-6S49.313,3.999,46,3.999z M64,3.999c-3.313,0-6,2.687-6,6s2.687,6,6,6s6-2.687,6-6S67.313,3.999,64,3.999z M82,3.999c-3.313,0-6,2.687-6,6s2.687,6,6,6s6-2.687,6-6S85.313,3.999,82,3.999z M100,3.999c-3.313,0-6,2.687-6,6s2.687,6,6,6s6-2.687,6-6S103.313,3.999,100,3.999z M118,3.999c-3.313,0-6,2.687-6,6s2.687,6,6,6s6-2.687,6-6S121.313,3.999,118,3.999z M136,3.999c-3.313,0-6,2.687-6,6s2.687,6,6,6s6-2.687,6-6S139.313,3.999,136,3.999z M154,3.999c-3.313,0-6,2.687-6,6s2.687,6,6,6s6-2.687,6-6S157.313,3.999,154,3.999z M172,3.999c-3.313,0-6,2.687-6,6s2.687,6,6,6s6-2.687,6-6S175.313,3.999,172,3.999z M190,3.999c-3.313,0-6,2.687-6,6s2.687,6,6,6s6-2.687,6-6S193.313,3.999,190,3.999z M16,27.999c0,3.313-2.687,6-6,6s-6-2.687-6-6s2.687-6,6-6S16,24.686,16,27.999z M28,21.999c-3.313,0-6,2.687-6,6s2.687,6,6,6s6-2.687,6-6S31.313,21.999,28,21.999z M46,21.999c-3.313,0-6,2.687-6,6s2.687,6,6,6s6-2.687,6-6S49.313,21.999,46,21.999z M64,21.999c-3.313,0-6,2.687-6,6s2.687,6,6,6s6-2.687,6-6S67.313,21.999,64,21.999z M82,21.999c-3.313,0-6,2.687-6,6s2.687,6,6,6s6-2.687,6-6S85.313,21.999,82,21.999z M100,21.999c-3.313,0-6,2.687-6,6s2.687,6,6,6s6-2.687,6-6S103.313,21.999,100,21.999z M118,21.999c-3.313,0-6,2.687-6,6s2.687,6,6,6s6-2.687,6-6S121.313,21.999,118,21.999z M136,21.999c-3.313,0-6,2.687-6,6s2.687,6,6,6s6-2.687,6-6S139.313,21.999,136,21.999z M154,21.999c-3.313,0-6,2.687-6,6s2.687,6,6,6s6-2.687,6-6S157.313,21.999,154,21.999z M172,21.999c-3.313,0-6,2.687-6,6s2.687,6,6,6s6-2.687,6-6S175.313,21.999,172,21.999z M190,21.999c-3.313,0-6,2.687-6,6s2.687,6,6,6s6-2.687,6-6S193.313,21.999,190,21.999z M16,45.999c0,3.313-2.687,6-6,6s-6-2.687-6-6s2.687-6,6-6S16,42.686,16,45.999z M28,39.999c-3.313,0-6,2.687-6,6s2.687,6,6,6s6-2.687,6-6S31.313,39.999,28,39.999z M46,39.999c-3.313,0-6,2.687-6,6s2.687,6,6,6s6-2.687,6-6S49.313,39.999,46,39.999z M64,39.999c-3.313,0-6,2.687-6,6s2.687,6,6,6s6-2.687,6-6S67.313,39.999,64,39.999z M82,39.999c-3.313,0-6,2.687-6,6s2.687,6,6,6s6-2.687,6-6S85.313,39.999,82,39.999z M100,39.999c-3.313,0-6,2.687-6,6s2.687,6,6,6s6-2.687,6-6S103.313,39.999,100,39.999z M118,39.999c-3.313,0-6,2.687-6,6s2.687,6,6,6s6-2.687,6-6S121.313,39.999,118,39.999z M136,39.999c-3.313,0-6,2.687-6,6s2.687,6,6,6s6-2.687,6-6S139.313,39.999,136,39.999z M154,39.999c-3.313,0-6,2.687-6,6s2.687,6,6,6s6-2.687,6-6S157.313,39.999,154,39.999z M172,39.999c-3.313,0-6,2.687-6,6s2.687,6,6,6s6-2.687,6-6S175.313,39.999,172,39.999z M190,39.999c-3.313,0-6,2.687-6,6s2.687,6,6,6s6-2.687,6-6S193.313,39.999,190,39.999z M16,63.999c0,3.313-2.687,6-6,6s-6-2.687-6-6s2.687-6,6-6S16,60.686,16,63.999z M28,57.999c-3.313,0-6,2.687-6,6s2.687,6,6,6s6-2.687,6-6S31.313,57.999,28,57.999z M46,57.999c-3.313,0-6,2.687-6,6s2.687,6,6,6s6-2.687,6-6S49.313,57.999,46,57.999z M64,57.999c-3.313,0-6,2.687-6,6s2.687,6,6,6s6-2.687,6-6S67.313,57.999,64,57.999z M82,57.999c-3.313,0-6,2.687-6,6s2.687,6,6,6s6-2.687,6-6S85.313,57.999,82,57.999z M100,57.999c-3.313,0-6,2.687-6,6s2.687,6,6,6s6-2.687,6-6S103.313,57.999,100,57.999z M118,57.999c-3.313,0-6,2.687-6,6s2.687,6,6,6s6-2.687,6-6S121.313,57.999,118,57.999z M136,57.999c-3.313,0-6,2.687-6,6s2.687,6,6,6s6-2.687,6-6S139.313,57.999,136,57.999z M154,57.999c-3.313,0-6,2.687-6,6s2.687,6,6,6s6-2.687,6-6S157.313,57.999,154,57.999z M172,57.999c-3.313,0-6,2.687-6,6s2.687,6,6,6s6-2.687,6-6S175.313,57.999,172,57.999z M190,57.999c-3.313,0-6,2.687-6,6s2.687,6,6,6s6-2.687,6-6S193.313,57.999,190,57.999z M16,81.999c0,3.313-2.687,6-6,6s-6-2.687-6-6s2.687-6,6-6S16,78.686,16,81.999z M28,75.999c-3.313,0-6,2.687-6,6s2.687,6,6,6s6-2.687,6-6S31.313,75.999,28,75.999z M46,75.999c-3.313,0-6,2.687-6,6s2.687,6,6,6s6-2.687,6-6S49.313,75.999,46,75.999z M64,75.999c-3.313,0-6,2.687-6,6s2.687,6,6,6s6-2.687,6-6S67.313,75.999,64,75.999z M82,75.999c-3.313,0-6,2.687-6,6s2.687,6,6,6s6-2.687,6-6S85.313,75.999,82,75.999z M100,75.999c-3.313,0-6,2.687-6,6s2.687,6,6,6s6-2.687,6-6S103.313,75.999,100,75.999z M118,75.999c-3.313,0-6,2.687-6,6s2.687,6,6,6s6-2.687,6-6S121.313,75.999,118,75.999z M136,75.999c-3.313,0-6,2.687-6,6s2.687,6,6,6s6-2.687,6-6S139.313,75.999,136,75.999z M154,75.999c-3.313,0-6,2.687-6,6s2.687,6,6,6s6-2.687,6-6S157.313,75.999,154,75.999z M172,75.999c-3.313,0-6,2.687-6,6s2.687,6,6,6s6-2.687,6-6S175.313,75.999,172,75.999z M190,75.999c-3.313,0-6,2.687-6,6s2.687,6,6,6s6-2.687,6-6S193.313,75.999,190,75.999z M16,99.999c0,3.313-2.687,6-6,6s-6-2.687-6-6s2.687-6,6-6S16,96.686,16,99.999z M28,93.999c-3.313,0-6,2.687-6,6s2.687,6,6,6s6-2.687,6-6S31.313,93.999,28,93.999z M46,93.999c-3.313,0-6,2.687-6,6s2.687,6,6,6s6-2.687,6-6S49.313,93.999,46,93.999z M64,93.999c-3.313,0-6,2.687-6,6s2.687,6,6,6s6-2.687,6-6S67.313,93.999,64,93.999z M82,93.999c-3.313,0-6,2.687-6,6s2.687,6,6,6s6-2.687,6-6S85.313,93.999,82,93.999z M100,93.999c-3.313,0-6,2.687-6,6s2.687,6,6,6s6-2.687,6-6S103.313,93.999,100,93.999z M118,93.999c-3.313,0-6,2.687-6,6s2.687,6,6,6s6-2.687,6-6S121.313,93.999,118,93.999z M136,93.999c-3.313,0-6,2.687-6,6s2.687,6,6,6s6-2.687,6-6S139.313,93.999,136,93.999z M154,93.999c-3.313,0-6,2.687-6,6s2.687,6,6,6s6-2.687,6-6S157.313,93.999,154,93.999z M172,93.999c-3.313,0-6,2.687-6,6s2.687,6,6,6s6-2.687,6-6S175.313,93.999,172,93.999z M190,93.999c-3.313,0-6,2.687-6,6s2.687,6,6,6s6-2.687,6-6S193.313,93.999,190,93.999z M16,171.999c0,3.313-2.687,6-6,6s-6-2.687-6-6s2.687-6,6-6S16,168.686,16,171.999z M28,165.999c-3.313,0-6,2.687-6,6s2.687,6,6,6s6-2.687,6-6S31.313,165.999,28,165.999z M46,165.999c-3.313,0-6,2.687-6,6s2.687,6,6,6s6-2.687,6-6S49.313,165.999,46,165.999z M64,165.999c-3.313,0-6,2.687-6,6s2.687,6,6,6s6-2.687,6-6S67.313,165.999,64,165.999z M82,165.999c-3.313,0-6,2.687-6,6s2.687,6,6,6s6-2.687,6-6S85.313,165.999,82,165.999z M100,165.999c-3.313,0-6,2.687-6,6s2.687,6,6,6s6-2.687,6-6S103.313,165.999,100,165.999z M118,165.999c-3.313,0-6,2.687-6,6s2.687,6,6,6s6-2.687,6-6S121.313,165.999,118,165.999z M136,165.999c-3.313,0-6,2.687-6,6s2.687,6,6,6s6-2.687,6-6S139.313,165.999,136,165.999z M154,165.999c-3.313,0-6,2.687-6,6s2.687,6,6,6s6-2.687,6-6S157.313,165.999,154,165.999z M172,165.999c-3.313,0-6,2.687-6,6s2.687,6,6,6s6-2.687,6-6S175.313,165.999,172,165.999z M190,165.999c-3.313,0-6,2.687-6,6s2.687,6,6,6s6-2.687,6-6S193.313,165.999,190,165.999z M16,189.999c0,3.313-2.687,6-6,6s-6-2.687-6-6s2.687-6,6-6S16,186.686,16,189.999z M28,183.999c-3.313,0-6,2.687-6,6s2.687,6,6,6s6-2.687,6-6S31.313,183.999,28,183.999z M46,183.999c-3.313,0-6,2.687-6,6s2.687,6,6,6s6-2.687,6-6S49.313,183.999,46,183.999z M64,183.999c-3.313,0-6,2.687-6,6s2.687,6,6,6s6-2.687,6-6S67.313,183.999,64,183.999z M82,183.999c-3.313,0-6,2.687-6,6s2.687,6,6,6s6-2.687,6-6S85.313,183.999,82,183.999z M100,183.999c-3.313,0-6,2.687-6,6s2.687,6,6,6s6-2.687,6-6S103.313,183.999,100,183.999z M118,183.999c-3.313,0-6,2.687-6,6s2.687,6,6,6s6-2.687,6-6S121.313,183.999,118,183.999z M136,183.999c-3.313,0-6,2.687-6,6s2.687,6,6,6s6-2.687,6-6S139.313,183.999,136,183.999z M154,183.999c-3.313,0-6,2.687-6,6s2.687,6,6,6s6-2.687,6-6S157.313,183.999,154,183.999z M172,183.999c-3.313,0-6,2.687-6,6s2.687,6,6,6s6-2.687,6-6S175.313,183.999,172,183.999z M190,183.999c-3.313,0-6,2.687-6,6s2.687,6,6,6s6-2.687,6-6S193.313,183.999,190,183.999z M16,117.999c0,3.313-2.687,6-6,6s-6-2.687-6-6s2.687-6,6-6S16,114.686,16,117.999z M28,111.999c-3.313,0-6,2.687-6,6s2.687,6,6,6s6-2.687,6-6S31.313,111.999,28,111.999z M46,111.999c-3.313,0-6,2.687-6,6s2.687,6,6,6s6-2.687,6-6S49.313,111.999,46,111.999z M64,111.999c-3.313,0-6,2.687-6,6s2.687,6,6,6s6-2.687,6-6S67.313,111.999,64,111.999z M82,111.999c-3.313,0-6,2.687-6,6s2.687,6,6,6s6-2.687,6-6S85.313,111.999,82,111.999z M100,111.999c-3.313,0-6,2.687-6,6s2.687,6,6,6s6-2.687,6-6S103.313,111.999,100,111.999z M118,111.999c-3.313,0-6,2.687-6,6s2.687,6,6,6s6-2.687,6-6S121.313,111.999,118,111.999z M136,111.999c-3.313,0-6,2.687-6,6s2.687,6,6,6s6-2.687,6-6S139.313,111.999,136,111.999z M154,111.999c-3.313,0-6,2.687-6,6s2.687,6,6,6s6-2.687,6-6S157.313,111.999,154,111.999z M172,111.999c-3.313,0-6,2.687-6,6s2.687,6,6,6s6-2.687,6-6S175.313,111.999,172,111.999z M190,111.999c-3.313,0-6,2.687-6,6s2.687,6,6,6s6-2.687,6-6S193.313,111.999,190,111.999z M16,135.999c0,3.313-2.687,6-6,6s-6-2.687-6-6s2.687-6,6-6S16,132.686,16,135.999z M28,129.999c-3.313,0-6,2.687-6,6s2.687,6,6,6s6-2.687,6-6S31.313,129.999,28,129.999z M46,129.999c-3.313,0-6,2.687-6,6s2.687,6,6,6s6-2.687,6-6S49.313,129.999,46,129.999z M64,129.999c-3.313,0-6,2.687-6,6s2.687,6,6,6s6-2.687,6-6S67.313,129.999,64,129.999z M82,129.999c-3.313,0-6,2.687-6,6s2.687,6,6,6s6-2.687,6-6S85.313,129.999,82,129.999z M100,129.999c-3.313,0-6,2.687-6,6s2.687,6,6,6s6-2.687,6-6S103.313,129.999,100,129.999z M118,129.999c-3.313,0-6,2.687-6,6s2.687,6,6,6s6-2.687,6-6S121.313,129.999,118,129.999z M136,129.999c-3.313,0-6,2.687-6,6s2.687,6,6,6s6-2.687,6-6S139.313,129.999,136,129.999z M154,129.999c-3.313,0-6,2.687-6,6s2.687,6,6,6s6-2.687,6-6S157.313,129.999,154,129.999z M172,129.999c-3.313,0-6,2.687-6,6s2.687,6,6,6s6-2.687,6-6S175.313,129.999,172,129.999z M190,129.999c-3.313,0-6,2.687-6,6s2.687,6,6,6s6-2.687,6-6S193.313,129.999,190,129.999z M16,153.999c0,3.313-2.687,6-6,6s-6-2.687-6-6s2.687-6,6-6S16,150.686,16,153.999z M28,147.999c-3.313,0-6,2.687-6,6s2.687,6,6,6s6-2.687,6-6S31.313,147.999,28,147.999z M46,147.999c-3.313,0-6,2.687-6,6s2.687,6,6,6s6-2.687,6-6S49.313,147.999,46,147.999z M64,147.999c-3.313,0-6,2.687-6,6s2.687,6,6,6s6-2.687,6-6S67.313,147.999,64,147.999z M82,147.999c-3.313,0-6,2.687-6,6s2.687,6,6,6s6-2.687,6-6S85.313,147.999,82,147.999z M100,147.999c-3.313,0-6,2.687-6,6s2.687,6,6,6s6-2.687,6-6S103.313,147.999,100,147.999z M118,147.999c-3.313,0-6,2.687-6,6s2.687,6,6,6s6-2.687,6-6S121.313,147.999,118,147.999z M136,147.999c-3.313,0-6,2.687-6,6s2.687,6,6,6s6-2.687,6-6S139.313,147.999,136,147.999z M154,147.999c-3.313,0-6,2.687-6,6s2.687,6,6,6s6-2.687,6-6S157.313,147.999,154,147.999z M172,147.999c-3.313,0-6,2.687-6,6s2.687,6,6,6s6-2.687,6-6S175.313,147.999,172,147.999z M190,147.999c-3.313,0-6,2.687-6,6s2.687,6,6,6s6-2.687,6-6S193.313,147.999,190,147.999z" fill="#be9f63" stroke-width="none" opacity="1" stroke="none"></path></g><g id="svga-group-subwrapper" ><g id="svga-group-hair-back" ><path id="SvgjsPath4291" d="M146.969 104.885c-46.51-1.001-92.949 0.02-93.95 0.02 -2.675 4.014-4.176 11.498-3.28 15.61 0.934 4.212 4.441 8.009 5.66 16.46 0.07 0.83-0.04 1.71 0.3 2.76 0.35 1.001 2.022 3.206 3.34 3.44 0.129-0.016 0.381-0.046 0.5-0.061 0.523 0.935 1.48 1.218 2.11 0.91 1.516 2.89 3.099-0.453 5.14 1.32 3.383 2.757 3.832 0.049 6.58-0.931 2.146-0.04 5.034 3.43 7.71 0.761 5.499-5.354 8.082 4.5 12.97 1.869 1-0.506 3.922-2.7 5.96-1.42 3.889-2.455 5.717 5.161 11.56-0.05 5.623-5.015 6.653 1.352 10.72 0.51 1.852-0.43 2.478-1.777 4.35-1.67 2.654 1.003 3.25 3.637 6.57 0.931 2.014-1.75 3.577 1.521 5.141-1.32 0.62 0.311 1.589 0.028 2.109-0.91 0.12 0.015 0.38 0.045 0.51 0.061 1.243-0.235 2.975-2.42 3.341-3.44 0.488-1.559-0.315-5.524 3.609-13.46C151.914 118.111 151.265 110.834 146.969 104.885z" fill="#982a13" stroke-width="none" opacity="1" stroke="none"></path><path id="SvgjsPath4292" d="M146.969 104.885c-46.51-1.001-92.949 0.02-93.95 0.02 -2.675 4.014-4.176 11.498-3.28 15.61 0.934 4.212 4.441 8.009 5.66 16.46 0.07 0.83-0.04 1.71 0.3 2.76 0.35 1.001 2.022 3.206 3.34 3.44 0.129-0.016 0.381-0.046 0.5-0.061 0.523 0.935 1.48 1.218 2.11 0.91 1.516 2.89 3.099-0.453 5.14 1.32 3.383 2.757 3.832 0.049 6.58-0.931 2.146-0.04 5.034 3.43 7.71 0.761 5.499-5.354 8.082 4.5 12.97 1.869 1-0.506 3.922-2.7 5.96-1.42 3.889-2.455 5.717 5.161 11.56-0.05 5.623-5.015 6.653 1.352 10.72 0.51 1.852-0.43 2.478-1.777 4.35-1.67 2.654 1.003 3.25 3.637 6.57 0.931 2.014-1.75 3.577 1.521 5.141-1.32 0.62 0.311 1.589 0.028 2.109-0.91 0.12 0.015 0.38 0.045 0.51 0.061 1.243-0.235 2.975-2.42 3.341-3.44 0.488-1.559-0.315-5.524 3.609-13.46C151.914 118.111 151.265 110.834 146.969 104.885zM147.039 125.775c-5.513 10.228-2.238 14.543-6.01 16.14 -0.05 0-0.09 0.011-0.141 0.03 -0.312-0.07-0.85-0.322-1.14-0.46 -0.006 0.015-0.19 0.59-0.36 1.04 -0.058 0.078-0.041 0.102-0.199 0.26 -0.051 0.021-0.09 0.05-0.13 0.08 -0.37 0.084-0.932-0.389-1.28-0.63 -0.951 2.268-1.016 1.841-1.86 1.57 -2.987-0.938-3.279 0.839-4.62 1.39 -1.356 0.511-2.175-1.354-4.46-2.03 -2.538-0.171-3.387 1.449-4.89 1.75 -2.598 0.548-5.365-5.445-11.05 0.08 -5.063 4.924-6.429-2.163-10.91 0.24 -4.396-2.515-5.807 4.695-10.95-0.3 -5.512-5.221-8.704-0.136-9.84 0.01 -1.911 0.413-2.582-1.3-5.19-1.8 -2.841 0-3.702 2.653-5.31 2.05 -1.344-0.553-1.628-2.329-4.62-1.39 -1 0.32-1.005 0.471-1.86-1.57 -0.344 0.238-0.908 0.715-1.28 0.63 -0.04-0.03-0.08-0.06-0.13-0.08 -0.379-0.509-0.325-0.681-0.56-1.3 0.191-0.098-0.692 0.358-1.14 0.46 -0.04-0.02-0.09-0.03-0.13-0.03 -0.2-0.08-0.47-0.35-0.73-0.67 -1.661-2.134-1.418-1.179-1.63-4.35 -1.82-12.19-11.412-17.353-3.55-31.81 30.144 0.618 62.703 0.696 93.88 0.02C151.487 113.794 150.327 119.547 147.039 125.775z" fill="#891b03" stroke-width="none" opacity="1" stroke="none"></path></g><g id="svga-group-humanbody-single"><path id="SvgjsPath4138" d="M195.417 199.778c-2.196-4.746-8.195-11.779-14.86-13.722 -8.239-2.403-26.837-5.308-33.733-6.923 -5.528-1.296-16.662-11.294-20.564-14.65 -0.7-0.6-1.273-1.839-1.287-2.76 -0.139-10.864 4.195-39.724 4.195-39.724H100 70.833c0 0 4.334 28.859 4.193 39.724 -0.011 0.921-0.587 2.16-1.285 2.76 -3.902 3.356-15.036 13.354-20.564 14.65 -6.897 1.615-25.495 4.619-33.733 7.022 -6.667 1.942-12.664 8.876-14.86 13.622 -3.708 8.008-4.584 22.5-4.584 35h100 100C200 222.278 199.123 207.786 195.417 199.778z" fill="#f3d4cf" stroke-width="none" opacity="1" stroke="none"></path><path id="SvgjsPath4139" d="M159.156 184.058c24.342 3.542 34.586 8.708 37.794 50.721H200c0-12.5-0.877-26.992-4.583-35 -2.196-4.746-8.195-11.779-14.86-13.722 -8.239-2.403-26.837-5.308-33.733-6.923 -5.528-1.296-18.242-12.069-21.643-16.35 3.36 4.704 12.791 15.605 21.054 18.46C150.188 182.61 153.48 183.232 159.156 184.058zM53.766 181.244c8.263-2.854 17.693-13.756 21.054-18.46 -3.4 4.28-16.114 15.054-21.643 16.35 -6.896 1.615-25.494 4.619-33.733 7.022 -6.665 1.942-12.664 8.876-14.86 13.622 -3.706 8.008-4.583 22.5-4.583 35h3.05c3.188-41.744 13.475-47.183 37.794-50.721C46.52 183.232 49.813 182.61 53.766 181.244z" fill="#fff4f3" stroke-width="none" opacity="1" stroke="none"></path><path id="SvgjsPath4140" d="M95.646 197.62c0 0-5.074-1.609-7.083-2.379 -10.449-4.009-44.395-6.607-44.395-6.607s35.754 1.419 43.644 2.779c-0.458-4.767-3.017-20.004-3.017-20.004s5.149 16.815 6.409 21.057C91.878 194.734 95.646 197.62 95.646 197.62zM106.445 196.278c-0.089 0.073-0.191 0.168-0.302 0.268C106.256 196.461 106.358 196.372 106.445 196.278zM95.646 197.62c0 0 2.893 2.992 4.347 3.03 1.91 0.051 4.828-2.899 6.151-4.104 -1.265 0.957-4.159 1.391-5.31 1.436C99.504 198.033 95.646 197.62 95.646 197.62zM116.664 190.101c-1.545 0.248-4.386 0.789-4.386 0.789l2.287-14.89c-0.646 3.071-4.474 16.211-8.12 20.278 1.91-1.616 6.158-2.391 8.324-2.704 10.236-1.484 10.232-1.483 41.062-4.94C155.831 188.634 126.76 188.479 116.664 190.101z" fill="#e4b3ab" stroke-width="none" opacity="1" stroke="none"></path><path id="SvgjsPath4141" d="M195.417 199.778c-2.196-4.746-8.195-11.779-14.86-13.722 -8.239-2.403-26.837-5.308-33.733-6.923 -5.528-1.296-16.662-11.294-20.564-14.65 -0.7-0.6-1.273-1.839-1.287-2.76 -0.139-10.864 4.195-39.724 4.195-39.724H100 70.833c0 0 4.334 28.859 4.193 39.724 -0.011 0.921-0.587 2.16-1.285 2.76 -3.902 3.356-15.036 13.354-20.564 14.65 -6.897 1.615-25.495 4.619-33.733 7.022 -6.667 1.942-12.664 8.876-14.86 13.622 -3.708 8.008-4.584 22.5-4.584 35h100 100C200 222.278 199.123 207.786 195.417 199.778z" fill="none" stroke="#c5796d" stroke-width="1.5" opacity="1"></path></g><g id="svga-group-chinshadow-single"><path id="SvgjsPath4395" d="M100.021 171.866c8.183 0 16.871-4.943 24.199-10.675 -0.001-6.702 1.451-19.105 2.652-28.205 -15.382-2.247-38.406-2.279-53.766-0.152 1.184 8.96 2.625 21.206 2.671 28.02C83.119 166.767 91.822 171.866 100.021 171.866z" fill="url(#SvgjsLinearGradient4396)" opacity="1"></path></g><g id="svga-group-clothes-single" ><path id="SvgjsPath4382" d="M-0.35 235.399c-5.397-68.442 34.095-42.726 62.751-62.455 0.43-2.869 2.012-4.49 4.209-6.688 8.539-8.537 3.556-12.475 6.837-16.225 0.061 0.682 0.121 1.609 0.203 2.609 14.335 15.54 41.122 21.975 52.534 1.957 0.057-1.388 0.281-4.84 0.455-6.532 2.596 1.968 2.467 4.504 2.671 7.165 0.952 12.423 8.132 15.523 9.356 18.519 29.112 18.84 64.362-8.488 61.582 61.22C190.104 235.4 82.543 236.083-0.35 235.399z" fill="#d46fbb" stroke-width="none" opacity="1" stroke="none"></path><path id="SvgjsPath4383" d="M200.249 234.97c-0.493 0.021-1.225 0.043-2.165 0.064C197.343 222.419 196.966 209.61 190 198c-10-16-30-10-46-18 -12.592-5.396-14.666-18.072-15.685-30.026 0.869 1.59 0.853 3.393 0.995 5.258 0.952 12.423 8.132 15.523 9.356 18.519C167.779 192.59 203.029 165.262 200.249 234.97zM12 194.805c11.883-11.718 38-5.801 51-20.801 2.369-5.019 8.619-7.769 9.354-21.899 -0.828 3.247 1.257 7.153-5.743 14.152 -2.197 2.197-3.779 3.818-4.209 6.688 -28.656 19.729-68.148-5.987-62.751 62.455 0.475 0.004 0.955 0.008 1.432 0.012C0.058 220.805 2.523 204.149 12 194.805zM73.869 166.735c14.154 9.8 28.403 14.222 47.5 6.75C98.572 180.314 85.85 173.819 73.869 166.735zM93.095 170.59c12.673 4 24.608 2.148 35.774-6.604C117.411 171.174 106.868 173.999 93.095 170.59zM67.786 176.957c11.886 10.565 44.754 17.908 69.083-1.222C111.67 193.004 79.525 186.392 67.786 176.957zM86.209 180.108c16.699 7.246 43.293-0.997 47.602-5.373C129.232 178.65 101.399 185.549 86.209 180.108z" fill="#e38ece" stroke-width="none" opacity="1" stroke="none"></path><path id="SvgjsPath4384" d="M139.439 173.615h-0.011c-0.119-0.06-0.239-0.13-0.359-0.2 -0.018-0.054-0.39-0.846-0.851-1.3 -13.21-13.021-4.921-19.103-11.609-24.479 -0.035 0.62-0.531 4.908-0.62 6.819 -11.334 19.824-38.513 12.837-52.13-1.939 -0.045-0.542-0.211-2.664-0.29-3.221 -1.843 1.843-2.156 3.686-2.122 6.281 0.117 9.025-8.533 10.548-9.508 17.079 -28.303 19.487-68.409-6.355-62.75 63.24 84.796 0.705 195.013-0.026 201.541-0.45C203.572 167.624 173.061 191.379 139.439 173.615zM126.739 148.365c0.092 0.092 0.661 0.819 1.11 1.521 -0.366 1-0.638 2.347-1.53 3.93C126.651 149.852 126.667 149.771 126.739 148.365zM73.379 150.216c0.037 0.463 0.12 1.46 0.16 1.949 -0.29-0.31-0.57-0.6-0.82-0.88C72.919 150.905 73.129 150.545 73.379 150.216zM65.859 167.075c18.439 21.978 40.26 18.955 62.26 11.08 -30.612 9.414-44.329 5.81-61.99-11.37 7.46-6.32 5.691-8.829 6.35-15.01 20.39 23.21 50.375 17.96 55.81-1.13h0.01c1.958 11.071-2.637 8.336 10.301 23.06 -12.049 15.935-54.963 20.369-76.121-0.739C62.904 170.416 64.056 168.941 65.859 167.075zM0.109 234.838C0 165.37 32.869 196.235 62.059 173.204c18.395 20.038 59.684 22.314 76.89 0.892 24.883 17.816 61.965-6.61 60.533 60.223C140.951 233.913 65.786 234.118 0.109 234.838zM120.929 174.306c-5.603 3.779-29.402 8.238-44-5.38h-0.01l-0.07-0.061c0.235 0.061 0.513 0.131 0.73 0.46 -0.01-0.01-0.03-0.03-0.06-0.05 -0.085-0.105-0.354-0.32-0.5-0.32C103.716 186.869 130.316 168.975 120.929 174.306zM128.089 164.665c-17.654 15.185-38.134 9.989-54.24-3.34C89.656 172.72 108.896 177.796 128.089 164.665z" fill="#a62586" stroke-width="none" opacity="1" stroke="none"></path></g><g id="svga-group-head" ><g id="svga-group-ears-left" ><path id="SvgjsPath4377" d="M47.218 81.505c-0.967-2.487-8.082-6.002-11.21-5.447 -3.538 0.627-4.838 4.356-4.369 7.119 1.103 6.487 3.996 9.219 5.296 14.286 1.096 4.273 3.433 6.732 4.588 8.548 1.42 2.228 2.73 7.341 3.023 8.087 0.463 1.18 2.103 4.043 5.002 3.896 3.333-0.172 7.545-6.688 7.614-8.135C57.544 102.009 49.733 87.979 47.218 81.505z" fill="#f3d4cf" stroke="#c5796d" stroke-width="1.5" opacity="1"></path><path id="SvgjsPath4378" d="M47.953 107.96c0 0 0.429-1.071-0.094-2.022 -0.672-1.223-2.423-3.468-2.821-4.811 -0.325-1.098-0.16-3.445-0.213-4.593 -0.094-2.03-1.492-3.42-1.927-4.585 -2.914-7.793-6.792-12.623-9-13.626 -1.633 3.989-0.339 6.907 1.94 13.045 -1.375-8.342-0.054-10.95-0.054-10.95s4.018 3.465 6.001 11.172c0.359 1.391-1.111 4.294-0.83 5.705 0.352 1.772 4.184 5.201 5.257 6.635C47.049 105.047 47.953 107.96 47.953 107.96z" fill="#c5796d" stroke-width="none" opacity="1" stroke="none"></path></g><g id="svga-group-ears-right" ><path id="SvgjsPath4379" d="M152.52 81.505c0.967-2.487 8.082-6.002 11.211-5.447 3.539 0.627 4.838 4.356 4.369 7.119 -1.104 6.487-3.996 9.219-5.297 14.286 -1.096 4.273-3.434 6.732-4.588 8.548 -1.42 2.228-2.73 7.341-3.023 8.087 -0.463 1.18-2.104 4.043-5.002 3.896 -3.332-0.172-7.545-6.688-7.613-8.135C142.193 102.009 150.006 87.979 152.52 81.505z" fill="#f3d4cf" stroke="#c5796d" stroke-width="1.5" opacity="1"></path><path id="SvgjsPath4380" d="M151.785 107.96c0 0-0.43-1.071 0.094-2.022 0.672-1.223 2.424-3.468 2.82-4.811 0.324-1.098 0.16-3.445 0.215-4.593 0.094-2.03 1.49-3.42 1.926-4.585 2.914-7.793 6.793-12.623 9-13.626 1.633 3.989 0.338 6.907-1.939 13.045 1.375-8.342 0.053-10.95 0.053-10.95s-4.018 3.465-6.002 11.172c-0.357 1.391 1.111 4.294 0.83 5.705 -0.352 1.772-4.184 5.201-5.256 6.635C152.689 105.047 151.785 107.96 151.785 107.96z" fill="#c5796d" stroke-width="none" opacity="1" stroke="none"></path></g><g id="svga-group-faceshape-wrap" ><g id="svga-group-faceshape-single" ><path id="SvgjsPath4392" d="M158.785 78.006l-0.005 0c-0.01 0.046-12.197 40.27-15.879 52.418 -0.715 2.358-1.931 4.551-3.556 6.386 -6.375 7.194-23.768 25.057-39.324 25.057 -15.849 0-33.591-19.045-39.708-26.214 -1.442-1.688-2.507-3.633-3.172-5.765 -3.607-11.551-16.126-51.648-16.137-51.694h-0.001c-1.298-4.992-1.994-10.231-2.002-15.634C38.949 28.536 66.155 0.92 99.773 0.867c33.621-0.053 60.913 27.476 60.964 61.499C160.746 67.769 160.068 73.01 158.785 78.006z" fill="#f3d4cf" stroke-width="none" opacity="1"></path><path id="SvgjsPath4393" d="M132.168 10.26c14.31 11.135 23.671 29.457 23.699 50.208 0.009 5.404-0.615 10.645-1.796 15.641l-0.004 0c-0.009 0.046-11.223 40.27-14.608 52.417 -0.658 2.358-1.776 4.551-3.271 6.385 -5.865 7.195-21.866 25.059-36.178 25.059 -14.582 0-30.904-19.047-36.531-26.215 -1.327-1.689-2.306-3.633-2.918-5.764 -3.318-11.552-14.836-51.649-14.846-51.695h-0.001c-1.194-4.992-1.834-10.231-1.842-15.634 -0.029-20.827 9.348-39.239 23.713-50.412C50.392 21.159 38.967 40.508 39.001 62.56c0.008 5.403 0.704 10.643 2.002 15.634h0.001c0.01 0.046 12.53 40.143 16.137 51.694 0.666 2.132 1.73 4.076 3.172 5.765 6.116 7.169 23.858 26.214 39.708 26.214 15.557 0 32.949-17.862 39.324-25.057 1.625-1.835 2.841-4.027 3.556-6.386 3.682-12.148 15.869-52.372 15.879-52.418l0.005 0c1.283-4.997 1.961-10.237 1.952-15.641C160.704 40.389 149.297 21.135 132.168 10.26z" fill="#ebc3bd" stroke-width="none" opacity="1"></path><path id="SvgjsPath4394" d="M158.785 78.006l-0.005 0c-0.01 0.046-12.197 40.27-15.879 52.418 -0.715 2.358-1.931 4.551-3.556 6.386 -6.375 7.194-23.768 25.057-39.324 25.057 -15.849 0-33.591-19.045-39.708-26.214 -1.442-1.688-2.507-3.633-3.172-5.765 -3.607-11.551-16.126-51.648-16.137-51.694h-0.001c-1.298-4.992-1.994-10.231-2.002-15.634C38.949 28.536 66.155 0.92 99.773 0.867c33.621-0.053 60.913 27.476 60.964 61.499C160.746 67.769 160.068 73.01 158.785 78.006z" fill="none" stroke="#c5796d" stroke-width="1.5" opacity="1"></path></g></g><g id="svga-group-mouth-single" ><path id="SvgjsPath4373" d="M94.859 137.427c0.259 0.002 11.018-0.099 11.018-0.099s-3.174 0.714-5.865 0.688C97.688 137.997 94.859 137.427 94.859 137.427z" fill="#e4b3ab" stroke-width="none" opacity="1" stroke="none"></path><path id="SvgjsPath4374" d="M86.537 135.998c-0.649-0.642 3.796-2.875 5.987-3.547 2.769-0.882 5.481-0.17 8.3-0.383 2.571-0.195 4.901-0.735 7.421 0.076 2.277 0.733 6.579 3.048 6.292 3.601 -0.289 0.558-4.189-1.703-6.378-2.18 -2.508-0.534-4.781 0.241-7.28 0.488 -2.558 0.254-5.083-0.713-7.64-0.307C90.92 134.114 86.894 136.351 86.537 135.998z" fill="#c5796d" stroke-width="none" opacity="1" stroke="none"></path></g><g id="svga-group-eyes-left" ><g id="svga-group-eyesback-left"><path id="SvgjsPath4319" d="M74.8 71.999c7.18 0 13 5.82 13 13 0 7.18-5.82 13-13 13s-13-5.82-13-13C61.8 77.819 67.62 71.999 74.8 71.999z" fill="url(#SvgjsRadialGradient4320)" opacity="1"></path></g><g id="svga-group-eyesiriswrapper-left" transform="translate(1 1)"><g id="svga-group-eyesiriscontrol-left" ><g id="svga-group-eyesiris-left" ><path id="SvgjsPath4357" d="M81.235 86.646c-1.087 5.321-5.202 8.456-9.201 6.994 -3.996-1.46-6.356-6.964-5.269-12.286 1.086-5.324 5.211-8.458 9.207-6.996C79.965 75.818 82.323 81.322 81.235 86.646z" fill="#00f0f1" stroke="#00c2c3" stroke-width="0.5" opacity="1"></path><path id="SvgjsPath4358" d="M80.068 86.771c-1.06 4.085-4.26 6.469-7.374 5.332 -2.875-1.053-4.689-4.732-4.454-8.62 1.068-0.112 2.233-0.146 3.444-0.066 -0.012 0.056-0.033 0.104-0.045 0.161 -0.381 1.875 0.509 3.841 1.991 4.384 1.487 0.542 3.001-0.545 3.385-2.419 0.047-0.245 0.073-0.49 0.081-0.732C78.112 85.304 79.109 85.942 80.068 86.771z" fill="#19feff" stroke-width="none" opacity="1" stroke="none"></path><path id="SvgjsPath4359" d="M75.015 81.018c-1.501-0.574-3.035 0.569-3.422 2.564 -0.389 1.986 0.515 4.063 2.017 4.638 1.505 0.575 3.039-0.569 3.426-2.555C77.427 83.669 76.52 81.591 75.015 81.018zM75.344 88.071c-0.625 0.258-1.271-0.085-1.443-0.771 -0.166-0.685 0.205-1.444 0.833-1.698 0.629-0.259 1.273 0.086 1.447 0.767C76.35 87.05 75.978 87.812 75.344 88.071z" fill="#000000" stroke-width="none" opacity="0.9"></path><path id="SvgjsPath4360" d="M70.014 89.265c-0.463 0.37-1.152 0.04-1.548-0.744 -0.396-0.777-0.335-1.708 0.129-2.079 0.458-0.364 1.156-0.034 1.549 0.744C70.532 87.964 70.477 88.896 70.014 89.265z" fill="#ffffff" stroke-width="none" opacity="0.6"></path><path id="SvgjsPath4361" d="M79.888 83.568c-1.058 0.843-2.647 0.083-3.547-1.701 -0.9-1.786-0.764-3.92 0.293-4.762 1.056-0.849 2.646-0.087 3.542 1.699C81.074 80.589 80.945 82.721 79.888 83.568z" fill="#ffffff" stroke-width="none" opacity="0.9"></path></g></g></g><g id="svga-group-eyesfront-left"><path id="SvgjsPath4344" d="M56.198 84.999c0 13.807 8.507 25 19 25s19-11.193 19-25 -8.507-25-19-25S56.198 71.192 56.198 84.999zM61.8 84.999c0-7.18 5.82-13 13-13s13 5.82 13 13c0 7.18-5.82 13-13 13S61.8 92.179 61.8 84.999z" fill="#f3d4cf" stroke-width="none" opacity="1" stroke="none"></path><path id="SvgjsPath4345" d="M61.8 84.999c0 7.18 5.82 13 13 13s13-5.82 13-13c0-7.18-5.82-13-13-13S61.8 77.819 61.8 84.999zM62.8 84.999c0-6.627 5.373-12 12-12s12 5.373 12 12c0 6.628-5.373 12-12 12S62.8 91.627 62.8 84.999z" fill="#1b2a40" stroke-width="none" opacity="1" stroke="none"></path></g></g><g id="svga-group-eyes-right" ><g id="svga-group-eyesback-right"><path id="SvgjsPath4327" d="M137.801 84.999c0 7.18-5.82 13-13 13s-13-5.82-13-13c0-7.18 5.82-13 13-13S137.801 77.819 137.801 84.999z" fill="url(#SvgjsRadialGradient4328)" opacity="1"></path></g><g id="svga-group-eyesiriswrapper-right" transform="translate(-1 1)"><g id="svga-group-eyesiriscontrol-right" ><g id="svga-group-eyesiris-right" ><path id="SvgjsPath4362" d="M133.234 86.646c-1.088 5.321-5.203 8.456-9.202 6.992 -3.994-1.458-6.356-6.963-5.267-12.284 1.087-5.324 5.21-8.458 9.204-6.994C131.966 75.818 134.324 81.323 133.234 86.646z" fill="#00f0f1" stroke="#00c2c3" stroke-width="0.5" opacity="1"></path><path id="SvgjsPath4363" d="M132.069 86.771c-1.062 4.085-4.261 6.468-7.375 5.33 -2.875-1.052-4.69-4.73-4.454-8.618 1.067-0.111 2.235-0.146 3.445-0.066 -0.011 0.055-0.035 0.103-0.046 0.161 -0.381 1.875 0.508 3.84 1.99 4.383 1.489 0.542 3.001-0.547 3.385-2.42 0.049-0.244 0.073-0.49 0.083-0.732C130.11 85.305 131.108 85.943 132.069 86.771z" fill="#19feff" stroke-width="none" opacity="1" stroke="none"></path><path id="SvgjsPath4364" d="M127.017 81.018c-1.504-0.573-3.036 0.569-3.425 2.564 -0.387 1.987 0.515 4.063 2.02 4.637 1.504 0.575 3.035-0.57 3.426-2.555C129.427 83.669 128.52 81.591 127.017 81.018zM127.343 88.071c-0.623 0.258-1.271-0.085-1.44-0.771 -0.168-0.684 0.204-1.445 0.833-1.697 0.629-0.26 1.272 0.085 1.445 0.766C128.351 87.049 127.978 87.811 127.343 88.071z" fill="#000000" stroke-width="none" opacity="0.9"></path><path id="SvgjsPath4365" d="M122.014 89.265c-0.461 0.368-1.15 0.039-1.547-0.745 -0.396-0.776-0.335-1.706 0.128-2.079 0.459-0.364 1.155-0.033 1.547 0.746C122.533 87.964 122.479 88.895 122.014 89.265z" fill="#ffffff" stroke-width="none" opacity="0.6"></path><path id="SvgjsPath4366" d="M131.888 83.568c-1.06 0.844-2.646 0.083-3.548-1.701 -0.897-1.786-0.766-3.919 0.293-4.761 1.056-0.85 2.646-0.088 3.54 1.698C133.074 80.591 132.945 82.722 131.888 83.568z" fill="#ffffff" stroke-width="none" opacity="0.9"></path></g></g></g><g id="svga-group-eyesfront-right"><path id="SvgjsPath4355" d="M124.402 59.999c-10.493 0-19 11.193-19 25s8.507 25 19 25 19-11.193 19-25S134.896 59.999 124.402 59.999zM124.801 98c-7.18 0-13-5.82-13-13 0-7.18 5.82-13 13-13s13 5.82 13 13C137.801 92.179 131.98 98 124.801 98z" fill="#f3d4cf" stroke-width="none" opacity="1" stroke="none"></path><path id="SvgjsPath4356" d="M124.801 71.999c-7.18 0-13 5.82-13 13 0 7.18 5.82 13 13 13s13-5.82 13-13C137.801 77.819 131.98 71.999 124.801 71.999zM124.801 96.999c-6.627 0-12-5.372-12-12 0-6.627 5.373-12 12-12s12 5.373 12 12C136.801 91.627 131.428 96.999 124.801 96.999z" fill="#1b2a40" stroke-width="none" opacity="1" stroke="none"></path></g></g><g id="svga-group-facehighlight-single" ><path id="SvgjsPath4130" d="M141 113.974c0.035 22.622-18.292 40.994-40.938 41.025 -22.642 0.037-41.028-18.273-41.063-40.9 -0.035-22.62 18.292-41.064 40.937-41.1C122.579 72.964 140.967 91.349 141 113.974z" fill="url(#SvgjsRadialGradient4131)" opacity="1"></path><path id="SvgjsPath4134" d="M137.5 53.999c0 20.711-16.789 37.5-37.499 37.5 -20.711 0-37.501-16.789-37.501-37.5s16.79-37.5 37.501-37.5C120.711 16.499 137.5 33.288 137.5 53.999z" fill="url(#SvgjsRadialGradient4135)" opacity="1"></path></g><g id="svga-group-eyebrows-left" ><path id="SvgjsPath4367" d="M59.396 71.48c16.138-1.701 18.92 1.72 27.556 5.214 0.474 0.186 1.583 0.391 1.88-0.098 0.787-1.312-2.444-3.681-3.84-4.295C75.852 68.053 63.962 68.259 59.396 71.48z" fill="#b7513b" stroke-width="none" opacity="1" stroke="none"></path></g><g id="svga-group-eyebrows-right" ><path id="SvgjsPath4368" d="M140.604 71.48c-16.139-1.701-18.921 1.72-27.556 5.214 -0.474 0.186-1.583 0.391-1.88-0.098 -0.787-1.312 2.443-3.681 3.84-4.295C124.148 68.053 136.038 68.259 140.604 71.48z" fill="#b7513b" stroke-width="none" opacity="1" stroke="none"></path></g><g id="svga-group-nose-single" ><path id="SvgjsPath4375" d="M99.757 119.999c-0.91 0-1.88 0.006-2.721-0.371 -0.899-0.405-1.498-0.567-2.429-0.902 -0.899-0.324-1.98 0.466-2.88 0.541 -0.728 0.06-1.559-0.149-2.003-0.719 -1.499-1.917 0.286-3.096 0.286-3.096s-0.583 1.346-0.212 1.942c0.319 0.509 0.789 0.925 1.369 1.063 0.968 0.235 1.889-0.476 2.839-0.55 1.062-0.083 1.833-0.102 2.602 0.519 0.767 0.619 1.606 0.737 2.582 0.787 0.906 0.049 1.857 0.088 2.708-0.263 0.743-0.303 1.365-0.835 2.062-1.226 1.482-0.831 2.647 0.212 4.194 0.633 1.238 0.338 2.575-0.86 2.09-2.225 -0.277-0.777-0.232-1.24-0.232-1.24s1.181 0.535 1.11 1.854c-0.089 1.642-1.521 2.794-3.137 2.361 -0.794-0.21-1.65-0.808-2.493-0.656 -0.857 0.153-1.517 0.154-2.229 0.622C102.187 119.781 101.047 119.999 99.757 119.999z" fill="#c5796d" stroke-width="none" opacity="1" stroke="none"></path><path id="SvgjsPath4376" d="M93.316 110.211c0 0 3.245-4.518 6.193-4.573 2.73-0.05 6.324 3.968 6.324 3.968s-3.311-1.387-6.588-1.156C96.32 108.655 93.316 110.211 93.316 110.211z" fill="#ebc3bd" stroke-width="none" opacity="1" stroke="none"></path></g><g id="svga-group-beardwrap" ><g id="svga-group-beard-single" ><path id="SvgjsPath4148" d="M100,18.13L100,18.13L100,18.13L100,18.13z" fill="#2a232b" stroke-width="none" opacity="1"></path></g></g><g id="svga-group-mustache-single" ><path id="SvgjsPath4299" d="M115.21 138.36c-3.66 0-8.39-1.01-15.21-5.26 -1.9 1.14-7.32 5.17-15.15 5.17 -10.15 0-18.42-6.98-19.73-16.64 13.91 8.38 15.18 1.06 27.43-1.35 1.01-0.18 2.33-0.34 3.34-0.17l0.04-0.05c5.29 1.54 5.27 0.44 8.1 0.06v-0.01c2.58-0.1 3.37-0.52 9.87 2.36 8.99 3.97 12.79 4.08 20.97-0.84C133.66 130.49 125.65 138.36 115.21 138.36z" fill="#b7513b" stroke-width="none" opacity="1" stroke="none"></path><path id="SvgjsPath4300" d="M100 128c-11.21 10.46-26.82 5.27-34.86-5.64 2.4 13.83 18.81 21.33 33.68 11.58 0.4-0.25 0.8-0.5 1.18-0.73 9.15 5.61 16.86 7.34 26.17 2.1 5.41-3.66 8.23-9.04 8.83-13.87 -0.03 0.02-0.06 0.03-0.08 0.05C128.58 133.79 110.54 138.46 100 128z" fill="#a83c25" stroke-width="none" opacity="1" stroke="none"></path><path id="SvgjsPath4301" d="M65.55 122.58c9.71 12.19 24.14 14.03 34.45 5.45C90.19 137.3 74.83 135.91 65.55 122.58zM118.27 133.15c-8.2 1-12.38-0.29-18.27-5.12 6.17 5.74 10.77 6.67 18.39 5.73 8.07-2.15 11.68-4.87 16.06-11.18C129.89 128.33 126.31 130.99 118.27 133.15z" fill="#982a13" stroke-width="none" opacity="1" stroke="none"></path><path id="SvgjsPath4302" d="M131.43 123.45c-11.64 5.96-19.05-4.71-27.28-3.43 -0.02 0-0.22 0-0.22 0.02 -1.81 0.24-3.01 1.1-5.41 0.56 -0.07-0.01-2.63-0.65-2.67-0.59 -0.98-0.16-2.34 0.01-3.32 0.18 -12.37 2.43-13.45 9.8-27.54 1.25 1.81 14.42 18.63 22.47 33.83 12.51 0.4-0.25 0.8-0.5 1.18-0.73 9.15 5.61 16.86 7.34 26.17 2.1 5.41-3.66 8.23-9.04 8.83-13.87C133.92 122.1 132.47 122.9 131.43 123.45zM100.01 132.31c-1 0.42-7.44 3.81-13.99 4.09 -8.37 0.87-16.86-5.19-19.86-13.21 11.3 8.18 15.02 1.39 26.64-1.73 4.69-1.16 3.05 0.47 10.21-0.31 8.29-0.92 17.24 9.23 26.34 4.77 1.68-0.76 3.17-1.76 4.49-2.71C130.49 131.78 120 142.25 100.01 132.31z" fill="#891b03" stroke-width="none" opacity="1" stroke="none"></path></g><g id="svga-group-hair-front" ><path id="SvgjsPath4294" d="M45.066 90.479c-1.663-4.941-4.339-12.356-8.735-15.286 -2.688-14.785-7.848-34.075 7.836-52.385 3.342-3.917 7.695-7.354 12.827-8.128C69.672-4.083 84.836-12.747 119.576-1.432c52.479 15.34 43.691 53.39 41.853 76.293 -2.476 2.597-4.824 9.932-6.139 14.359 -1.17-25.195-10.647-60.91-38.688-60.91 -14.208 0-17.067 5.674-37.26 3.394C42.051 28.826 48.983 73.242 45.066 90.479z" fill="#b7513b" stroke-width="none" opacity="1" stroke="none"></path><path id="SvgjsPath4295" d="M102.566 19.442C88.011 22.011 80 16 83 5c-5.661 3.59-7.699 9.31-6.903 14.442C72.65 15.482 72.796 8.737 74.843 1c-8.02 8.578-9.465 16.139-7.549 23.801 -5.012-5.458-8.708-12.687-3.697-18.978 -2.321 2.513-4.498 5.343-6.603 8.459 -0.479 0.072-4.142 2.217-4.142 2.217 2.935 0 9.319 2.98 13.005 9.154 -4.542-1.424-10.958 0.219-13.534 2.379 -9.399 7.885-14.204 20.903-7.164 61.423 2.253-11.969 1.543-23.55 3.268-33.198 2.885-16.144 10.068-26.874 30.916-24.951 20.192 2.28 23.052-3.394 37.26-3.394 28.04 0 37.518 35.715 38.688 60.91 1.314-4.427 3.663-11.762 6.139-14.359 0.302-3.759 0.416-3.52 0.79-7.927C153.869 28.485 133.09 14.055 102.566 19.442z" fill="#982a13" stroke-width="none" opacity="1" stroke="none"></path><path id="SvgjsPath4296" d="M39.369 61.985c-3.731-41.197 18.025-41.045 21-38.75C56.222 22.745 42.114 19.045 39.369 61.985zM86.619 9.485c1.66 4.085 4.553 6.995 10.868 7.394 0 0 1.125 0.776 17.403-2.094 2.292-0.411 3.952-0.545 4.729-0.549C107.662 13.148 93.121 20.9 86.619 9.485zM150.391 26.592c0 0-0.389-0.601-1.072-1.436 -9.444-11.944-25.151-12.229-24.199-11.171 -0.937-1.19 19.347 2.377 26.987 18.344 4.835 8.836 1.414 2.542 5.513 10.656C154.017 31.66 152.175 29.292 150.391 26.592zM130.182 17.505c0 0-1.276-0.383-2.578-0.662 -1.301-0.277-2.615-0.469-2.614-0.469 -3.583-0.505-6.562-0.275-8.37-0.138 6.199 0.063 15.622 1.509 20.75 5.5C135.201 19.539 132.727 18.172 130.182 17.505zM37.369 44.735c-1.341 9.794-1.69 21.234 3.25 29.75C37.33 66.374 37.256 53.492 37.369 44.735zM73.543 28.958c0.823 0.173 1.125 0.078 1.125 0.078s-0.278 0.029-1.063-0.253c-6.856-2.076-9.987-15.147 1.013-27.297C61.436 11.777 64.929 27.814 73.543 28.958zM82.619 5.235C78.885 8.15 76.356 11.463 75.917 16c-0.636 7.067 3.239 12.869 10.953 13.485C74.702 26.658 75.11 13.108 82.619 5.235zM109.42 10.36c0 0-8.481 0.526-16.551-2.875 8.332 4.85 17.038 4.377 27 2.5C115.675 10.167 113.511 10.273 109.42 10.36z" fill="#a83c25" stroke-width="none" opacity="1" stroke="none"></path><path id="SvgjsPath4297" d="M122.869 8.069c-10.39 0.727-12.784 0.221-17.333-2.333C111.313 8.266 113.479 7.609 122.869 8.069zM86.367 16.514c-5.562-5.748-3.748-8.528-3.748-8.528s-2.659 7.062 6.636 11.581c5.177 2.818 14.232 0.009 16.864-0.331C102.686 19.224 91.563 21.687 86.367 16.514zM59.369 25.235c-18.715 0.179-19.006 29.31-16.603 47.764C43.266 55.375 42.898 27.77 59.369 25.235zM160.737 62.366c-2.301-13.429-7.88-28.915-19.618-35.88C150.653 34.103 157.559 51.017 160.737 62.366zM159.619 44.235c-0.742-13.17-7.966-23.253-18.114-30.338C150.438 22.187 157.423 32.042 159.619 44.235zM133.869 8.735c-11.854-6.716-22.503-11.642-36.5-7.5C110.17-0.881 120.844 3.054 133.869 8.735zM82.869-2.015c-10.119 0.956-17.762 5.85-18.528 15.99C65.948 3.828 73.604-0.092 82.869-2.015zM75.254 13.19C77.523 1.846 85.291-0.489 94.426-2.125 84.84-1.67 75.651 1.79 75.254 13.19z" fill="#c66854" stroke-width="none" opacity="1" stroke="none"></path><path id="SvgjsPath4298" d="M119.669-2.115c-35.293-11.496-50.395-2.204-62.85 16.12 -5.104 0.782-9.536 4.29-12.88 8.21 -15.82 18.468-10.556 38.009-7.88 52.76 4.675 3.016 7.39 11.212 9.05 16.18 4.515-16.777-3.539-62.465 34.2-59.55 20.792 2.347 23.297-3.704 38.46-3.38 25.709-1.096 36.541 36.643 37.29 62.45 1.127-3.874 3.839-13.236 6.659-16.08C163.233 55.411 174.156 13.812 119.669-2.115zM160.739 74.995c-2.396 2.86-4.208 7.944-5.22 11.51 0.247-23.89-10.323-61.938-37.74-61.06 -15.95-0.254-17.956 5.64-38.19 3.59 -18.563-1.35-28.966 9.705-32.23 26.71 -1.966 9.824-0.408 22.838-2.2 33.51 -1.491-4.808-4.014-11.26-8.21-14.08 -1.698-18.831-5.956-33.256 8.28-51.85 3.022-3.928 8.035-7.64 12.89-8.72 6.947-7.295 15.002-29.315 60.86-14.46C167.916 14.516 162.6 50.069 160.739 74.995z" fill="#891b03" stroke-width="none" opacity="1" stroke="none"></path></g><g id="svga-group-glasses-single" ><path id="SvgjsPath4369" d="M148.02 85.54c-0.11 1.96-0.35 4.05-0.59 6.25 -1.04 9.74-5.26 12.49-24.57 11.1 -6.3-0.45-11.06-4.04-13.41-10.1 -0.99-2.55-1.87-5.52-2.37-8.48C116.7 77.81 139.4 77.62 148.02 85.54zM51.98 85.54c0.11 1.96 0.35 4.05 0.59 6.25 1.04 9.74 5.26 12.49 24.57 11.1 6.3-0.45 11.06-4.04 13.41-10.1 0.99-2.55 1.87-5.52 2.37-8.48C83.3 77.81 60.6 77.62 51.98 85.54z" fill="#ffffff" stroke-width="none" opacity="0.2"></path><path id="SvgjsPath4370" d="M148.02 85.54c-8.62-7.92-31.33-7.73-40.93-1.23 -0.36-2.11-0.52-4.22-0.36-6.16h0c0.66-7.81 13.45-6.88 20.98-7.17C146.33 70.26 148.56 76.34 148.02 85.54zM93.27 78.14L93.27 78.14c-0.66-7.81-13.45-6.88-20.99-7.17 -18.61-0.71-20.85 5.37-20.31 14.56 8.62-7.92 31.33-7.73 40.93-1.23C93.26 82.19 93.43 80.09 93.27 78.14z" fill="#ffffff" stroke-width="none" opacity="0.4"></path><path id="SvgjsPath4371" d="M149.91 75.08c-0.62-1.42-1.48-2.7-2.56-3.65 -2.47-2.16-7.08-2.46-11.39-2.71 -4.19-0.23-12.15-0.42-17.46-0.08 -13.8 0.9-13.57 7-13.57 7 -1.81 0-8.03 0-9.84 0 0 0 0.23-6.11-13.57-7 -5.32-0.34-13.27-0.16-17.46 0.08 -4.31 0.24-8.93 0.55-11.39 2.71 -1.09 0.95-1.94 2.22-2.56 3.65l-8.19-1.58v3.99c7.17 1.38 9.02 1.82 10.02 1.76 -0.25 3.01-0.36 8.35 0.29 12.59 1.54 10.07 5.78 12.78 24.94 11.4 6.36-0.46 11.35-4.23 13.72-10.33 1.86-4.8 3.14-9.09 2.81-14.28h12.64c-0.33 5.19 0.95 9.49 2.81 14.28 2.36 6.1 7.36 9.87 13.72 10.33 19.17 1.38 23.41-1.33 24.94-11.4 0.65-4.24 0.54-9.58 0.29-12.59 1 0.06 2.85-0.38 10.02-1.76V73.5L149.91 75.08zM90.07 92.61c-2.27 5.87-6.88 9.35-12.98 9.78 -19.08 1.37-22.61-1.33-24.04-10.68 -0.76-5.01-0.35-11.52-0.25-12.52 0.19-0.03 0.31-0.06 0.32-0.1 1.09-6.36 6.45-8.42 29.02-7.35 3.73 0.18 6.92 0.88 8.69 2.75 1.04 1.09 2.04 2.66 1.95 4.17l0.04 0C93.02 81.2 92.44 86.5 90.07 92.61zM146.94 91.72c-1.43 9.35-4.96 12.05-24.04 10.68 -6.1-0.44-10.71-3.92-12.98-9.78 -2.37-6.11-2.94-11.41-2.74-13.95l0.04 0c-0.09-1.5 0.91-3.07 1.95-4.17 1.77-1.87 4.96-2.57 8.69-2.75 22.57-1.06 27.92 0.99 29.02 7.35 0.01 0.04 0.13 0.08 0.32 0.1C147.29 80.2 147.71 86.71 146.94 91.72z" fill="#153a4d" stroke-width="none" opacity="1" stroke="none"></path><path id="SvgjsPath4372" d="M104.94 75.34c0.17-1.26 1.63-5.92 13.54-6.69 5.32-0.34 13.27-0.16 17.46 0.08 4.31 0.24 8.93 0.55 11.39 2.71 1.09 0.95 1.94 2.22 2.56 3.65l0 0c-3.72-6.16-10.22-5.54-14.01-5.75 -2.3-0.13-6.21-0.27-10.28-0.27 -2.77 0-5.15 0.06-7.06 0.19C111.48 69.71 107.56 70.92 104.94 75.34zM95.06 75.34c-0.17-1.26-1.63-5.92-13.54-6.69 -5.32-0.34-13.27-0.16-17.46 0.08 -4.31 0.24-8.93 0.55-11.39 2.71 -1.09 0.95-1.94 2.22-2.56 3.65l0 0c3.72-6.16 10.22-5.54 14.01-5.75 2.3-0.13 6.21-0.27 10.28-0.27 2.77 0 5.15 0.06 7.06 0.19C88.52 69.71 92.44 70.92 95.06 75.34z" fill="#22495c" stroke-width="none" opacity="1" stroke="none"></path></g></g></g><rect id="SvgjsRect4115" width="200" height="15" x="0" y="185" fill="#ecf0f1" opacity="0.5" style="display:none;"></rect><text id="SvgjsText4116" font-family="&quot;Roboto&quot;, &quot;Helvetica Neue&quot;, Helvetica, Arial, sans-serif" style="font-size:0.84em;font-family:&quot;Roboto&quot;, &quot;Helvetica Neue&quot;, Helvetica, Arial, sans-serif;text-anchor:middle;font-weight:400;display:none;" font-size="0.84em" text-anchor="middle" font-weight="400" fill="#000000" x="100" y="185"><tspan id="SvgjsTspan4117" dy="1.2em" x="100" style="font-size:0.84em;font-family:&quot;Roboto&quot;, &quot;Helvetica Neue&quot;, Helvetica, Arial, sans-serif;text-anchor:middle;font-weight:400;">Created on AvatarMaker.com</tspan></text></g><defs id="SvgjsDefs4080"><radialGradient id="SvgjsRadialGradient4131" cx="100" cy="114" r="41" gradientUnits="userSpaceOnUse" class="svga-on-canvas-facehighlight-gradient-single-0"><stop id="SvgjsStop4132" stop-opacity="0.5" stop-color="#fff4f3" offset="0" ></stop><stop id="SvgjsStop4133" stop-opacity="0" stop-color="#f3d4cf" offset="0.9" ></stop></radialGradient><radialGradient id="SvgjsRadialGradient4135" cx="100" cy="54" r="37" gradientUnits="userSpaceOnUse" class="svga-on-canvas-facehighlight-gradient-single-1"><stop id="SvgjsStop4136" stop-opacity="0.5" stop-color="#fff4f3" offset="0" ></stop><stop id="SvgjsStop4137" stop-opacity="0" stop-color="#f3d4cf" offset="0.9" ></stop></radialGradient><radialGradient id="SvgjsRadialGradient4188" cx="121.986" cy="82.496" fx="133.239" fy="82.527" r="16.003" gradientTransform="matrix(0.9998 0.0208 0.0166 -0.7998 -45.3195 145.9395)" gradientUnits="userSpaceOnUse" class="svga-on-canvas-eyesfront-gradient-left-3"><stop id="SvgjsStop4189" stop-opacity="1" stop-color="#e4b3ab" offset="0" ></stop><stop id="SvgjsStop4190" stop-opacity="0.3" stop-color="#e4b3ab" offset="0.7" ></stop><stop id="SvgjsStop4191" stop-opacity="0" stop-color="#f3d4cf" offset="1" ></stop></radialGradient><radialGradient id="SvgjsRadialGradient4193" cx="68.931" cy="105.995" r="29.524" gradientTransform="matrix(1.0336 0 0 1.0336 -1.6796 1.3127)" gradientUnits="userSpaceOnUse" class="svga-on-canvas-eyesfront-gradient-left-4"><stop id="SvgjsStop4194" stop-opacity="0" stop-color="#000000" offset="0.95" ></stop><stop id="SvgjsStop4195" stop-opacity="0.2" stop-color="#000000" offset="1" ></stop></radialGradient><radialGradient id="SvgjsRadialGradient4208" cx="121.587" cy="82.496" fx="132.839" fy="82.527" r="16.003" gradientTransform="matrix(-0.9998 0.0208 -0.0166 -0.7998 244.5208 145.9478)" gradientUnits="userSpaceOnUse" class="svga-on-canvas-eyesfront-gradient-right-3"><stop id="SvgjsStop4209" stop-opacity="1" stop-color="#e4b3ab" offset="0" ></stop><stop id="SvgjsStop4210" stop-opacity="0.3" stop-color="#e4b3ab" offset="0.7" ></stop><stop id="SvgjsStop4211" stop-opacity="0" stop-color="#f3d4cf" offset="1" ></stop></radialGradient><radialGradient id="SvgjsRadialGradient4213" cx="69.316" cy="105.995" r="29.524" gradientTransform="matrix(-1.0336 0 0 1.0336 201.6796 1.3127)" gradientUnits="userSpaceOnUse" class="svga-on-canvas-eyesfront-gradient-right-4"><stop id="SvgjsStop4214" stop-opacity="0" stop-color="#000000" offset="0.95" ></stop><stop id="SvgjsStop4215" stop-opacity="0.2" stop-color="#000000" offset="1" ></stop></radialGradient><radialGradient id="SvgjsRadialGradient4220" cx="-568.659" cy="-521.042" r="59.751" gradientTransform="matrix(0.096 -0.0248 0.0245 0.0961 141.2814 119.9893)" gradientUnits="userSpaceOnUse" class="svga-on-canvas-eyesiris-gradient-left-1"><stop id="SvgjsStop4221" stop-opacity="1" stop-color="#ffffff" offset="0" ></stop><stop id="SvgjsStop4222" stop-opacity="0" stop-color="#ffffff" offset="1" ></stop></radialGradient><radialGradient id="SvgjsRadialGradient4224" cx="-582.838" cy="-519.099" r="59.745" gradientTransform="matrix(0.0991 8.856319e-004 -0.0011 0.0991 131.1134 135.9855)" gradientUnits="userSpaceOnUse" class="svga-on-canvas-eyesiris-gradient-left-2"><stop id="SvgjsStop4225" stop-opacity="1" stop-color="#ffffff" offset="0" ></stop><stop id="SvgjsStop4226" stop-opacity="0" stop-color="#ffffff" offset="1" ></stop></radialGradient><linearGradient id="SvgjsLinearGradient4230" x1="122.67" y1="88.268" x2="123.606" y2="87.152" gradientTransform="matrix(1 0 0 1 -52 0)" gradientUnits="userSpaceOnUse" class="svga-on-canvas-eyesiris-gradient-left-5"><stop id="SvgjsStop4231" stop-opacity="1" stop-color="#ffffff" offset="0" ></stop><stop id="SvgjsStop4232" stop-opacity="0" stop-color="#ffffff" offset="1" ></stop></linearGradient><linearGradient id="SvgjsLinearGradient4234" x1="127.212" y1="82.296" x2="126.463" y2="83.189" gradientTransform="matrix(1 0 0 1 -52 0)" gradientUnits="userSpaceOnUse" class="svga-on-canvas-eyesiris-gradient-left-6"><stop id="SvgjsStop4235" stop-opacity="1" stop-color="#ffffff" offset="0" ></stop><stop id="SvgjsStop4236" stop-opacity="0" stop-color="#ffffff" offset="1" ></stop></linearGradient><linearGradient id="SvgjsLinearGradient4238" x1="129.636" y1="79.822" x2="127.91" y2="81.879" gradientTransform="matrix(1 0 0 1 -52 0)" gradientUnits="userSpaceOnUse" class="svga-on-canvas-eyesiris-gradient-left-7"><stop id="SvgjsStop4239" stop-opacity="1" stop-color="#ffffff" offset="0" ></stop><stop id="SvgjsStop4240" stop-opacity="0" stop-color="#ffffff" offset="1" ></stop></linearGradient><radialGradient id="SvgjsRadialGradient4243" cx="-568.654" cy="-521.042" r="59.752" gradientTransform="matrix(0.096 -0.0248 0.0245 0.0961 193.2804 119.9894)" gradientUnits="userSpaceOnUse" class="svga-on-canvas-eyesiris-gradient-right-1"><stop id="SvgjsStop4244" stop-opacity="1" stop-color="#ffffff" offset="0" ></stop><stop id="SvgjsStop4245" stop-opacity="0" stop-color="#ffffff" offset="1" ></stop></radialGradient><radialGradient id="SvgjsRadialGradient4247" cx="-582.833" cy="-519.102" r="59.747" gradientTransform="matrix(0.0991 8.856319e-004 -0.0011 0.0991 183.1126 135.9856)" gradientUnits="userSpaceOnUse" class="svga-on-canvas-eyesiris-gradient-right-2"><stop id="SvgjsStop4248" stop-opacity="1" stop-color="#ffffff" offset="0" ></stop><stop id="SvgjsStop4249" stop-opacity="0" stop-color="#ffffff" offset="1" ></stop></radialGradient><linearGradient id="SvgjsLinearGradient4253" x1="122.67" y1="88.268" x2="123.606" y2="87.152" gradientUnits="userSpaceOnUse" class="svga-on-canvas-eyesiris-gradient-right-5"><stop id="SvgjsStop4254" stop-opacity="1" stop-color="#ffffff" offset="0" ></stop><stop id="SvgjsStop4255" stop-opacity="0" stop-color="#ffffff" offset="1" ></stop></linearGradient><linearGradient id="SvgjsLinearGradient4257" x1="127.212" y1="82.296" x2="126.463" y2="83.189" gradientUnits="userSpaceOnUse" class="svga-on-canvas-eyesiris-gradient-right-6"><stop id="SvgjsStop4258" stop-opacity="1" stop-color="#ffffff" offset="0" ></stop><stop id="SvgjsStop4259" stop-opacity="0" stop-color="#ffffff" offset="1" ></stop></linearGradient><linearGradient id="SvgjsLinearGradient4261" x1="129.636" y1="79.822" x2="127.91" y2="81.879" gradientUnits="userSpaceOnUse" class="svga-on-canvas-eyesiris-gradient-right-7"><stop id="SvgjsStop4262" stop-opacity="1" stop-color="#ffffff" offset="0" ></stop><stop id="SvgjsStop4263" stop-opacity="0" stop-color="#ffffff" offset="1" ></stop></linearGradient><linearGradient id="SvgjsLinearGradient4269" x1="100" y1="142" x2="100" y2="139" gradientUnits="userSpaceOnUse" class="svga-on-canvas-mouth-gradient-single-0"><stop id="SvgjsStop4270" stop-opacity="1" stop-color="#ebc3bd" offset="0.1" ></stop><stop id="SvgjsStop4271" stop-opacity="1" stop-color="#e4b3ab" offset="1" ></stop></linearGradient><radialGradient id="SvgjsRadialGradient4320" cx="125.2" cy="85" r="13" gradientTransform="matrix(-1 0 0 1 200 0)" gradientUnits="userSpaceOnUse" class="svga-on-canvas-eyesback-gradient-left-0"><stop id="SvgjsStop4321" stop-opacity="1" stop-color="#ffffff" offset="0" ></stop><stop id="SvgjsStop4322" stop-opacity="1" stop-color="#fdfefe" offset="0.544" ></stop><stop id="SvgjsStop4323" stop-opacity="1" stop-color="#f6f8f9" offset="0.74" ></stop><stop id="SvgjsStop4324" stop-opacity="1" stop-color="#eaeff2" offset="0.879" ></stop><stop id="SvgjsStop4325" stop-opacity="1" stop-color="#d9e3e8" offset="0.992" ></stop><stop id="SvgjsStop4326" stop-opacity="1" stop-color="#d8e2e7" offset="1" ></stop></radialGradient><radialGradient id="SvgjsRadialGradient4328" cx="124.801" cy="85" r="13" gradientUnits="userSpaceOnUse" class="svga-on-canvas-eyesback-gradient-right-0"><stop id="SvgjsStop4329" stop-opacity="1" stop-color="#ffffff" offset="0" ></stop><stop id="SvgjsStop4330" stop-opacity="1" stop-color="#fdfefe" offset="0.544" ></stop><stop id="SvgjsStop4331" stop-opacity="1" stop-color="#f6f8f9" offset="0.74" ></stop><stop id="SvgjsStop4332" stop-opacity="1" stop-color="#eaeff2" offset="0.879" ></stop><stop id="SvgjsStop4333" stop-opacity="1" stop-color="#d9e3e8" offset="0.992" ></stop><stop id="SvgjsStop4334" stop-opacity="1" stop-color="#d8e2e7" offset="1" ></stop></radialGradient><radialGradient id="SvgjsRadialGradient4336" cx="125.2" cy="85" r="13" gradientTransform="matrix(-1 0 0 1 200 0)" gradientUnits="userSpaceOnUse" class="svga-on-canvas-eyesfront-gradient-left-0"><stop id="SvgjsStop4337" stop-opacity="1" stop-color="#ffffff" offset="0" ></stop><stop id="SvgjsStop4338" stop-opacity="1" stop-color="#fdfefe" offset="0.544" ></stop><stop id="SvgjsStop4339" stop-opacity="1" stop-color="#f6f8f9" offset="0.74" ></stop><stop id="SvgjsStop4340" stop-opacity="1" stop-color="#eaeff2" offset="0.879" ></stop><stop id="SvgjsStop4341" stop-opacity="1" stop-color="#d9e3e8" offset="0.992" ></stop><stop id="SvgjsStop4342" stop-opacity="1" stop-color="#d8e2e7" offset="1" ></stop></radialGradient><radialGradient id="SvgjsRadialGradient4347" cx="124.801" cy="85" r="13" gradientUnits="userSpaceOnUse" class="svga-on-canvas-eyesfront-gradient-right-0"><stop id="SvgjsStop4348" stop-opacity="1" stop-color="#ffffff" offset="0" ></stop><stop id="SvgjsStop4349" stop-opacity="1" stop-color="#fdfefe" offset="0.544" ></stop><stop id="SvgjsStop4350" stop-opacity="1" stop-color="#f6f8f9" offset="0.74" ></stop><stop id="SvgjsStop4351" stop-opacity="1" stop-color="#eaeff2" offset="0.879" ></stop><stop id="SvgjsStop4352" stop-opacity="1" stop-color="#d9e3e8" offset="0.992" ></stop><stop id="SvgjsStop4353" stop-opacity="1" stop-color="#d8e2e7" offset="1" ></stop></radialGradient><linearGradient id="SvgjsLinearGradient4396" x1="100" y1="171" x2="100" y2="131" gradientUnits="userSpaceOnUse" class="svga-on-canvas-chinshadow-gradient-single-0"><stop id="SvgjsStop4397" stop-opacity="0.8" stop-color="#e4b3ab" offset="0" ></stop><stop id="SvgjsStop4398" stop-opacity="1" stop-color="#c5796d" offset="0.7" ></stop></linearGradient></defs></svg>