<?xml version="1.0" encoding="utf-8"?>
<!-- Generator: Adobe Illustrator 19.0.0, SVG Export Plug-In . SVG Version: 6.00 Build 0)  -->
<svg version="1.1" id="Layer_1" xmlns="http://www.w3.org/2000/svg" xmlns:xlink="http://www.w3.org/1999/xlink" x="0px" y="0px"
	 viewBox="0 0 960 560" enable-background="new 0 0 960 560" xml:space="preserve">
<g id="XMLID_1536_">
	<path id="XMLID_1537_" fill="#EF7B05" d="M187.5,526.6492v-91.3443c0-11.3262,3.4347-20.5768,10.304-27.7565
		c6.8698-7.1781,15.7811-10.768,26.7351-10.768c12.996,0,22.9901,5.9735,29.9841,17.9156
		c4.27-6.4355,8.8492-11.0311,13.7387-13.7852c4.8879-2.7525,10.922-4.1304,18.1017-4.1304c11.3864,0,20.1124,3.5899,26.1781,10.768
		c6.0645,7.1797,9.0974,17.5146,9.0974,31.0047v88.0961h-37.6888V444.217c0-4.0855-0.3252-6.7915-0.9749-8.1229
		c-0.6496-1.3298-1.9654-1.9955-3.9452-1.9955c-3.7134,0-5.5701,3.1552-5.5701,9.4671v83.0834h-37.6888V444.217
		c0-4.0229-0.3409-6.7145-1.021-8.0764c-0.6817-1.3602-2.0119-2.042-3.9917-2.042c-3.7134,0-5.5701,3.3733-5.5701,10.1183v82.4322
		H187.5z"/>
	<path id="XMLID_1542_" fill="#EF7B05" d="M390.426,463.0614v33.4188h-10.8614v30.169h-37.6888v-80.5763
		c0-15.5946,4.2543-27.71,12.7642-36.343c8.5083-8.633,20.4689-12.9495,35.8786-12.9495c14.8527,0,25.8372,3.9155,32.9544,11.7433
		c7.1164,7.8294,10.6758,19.9111,10.6758,36.2499v81.8755h-37.6891v-79.37c0-4.9501-0.5887-8.3844-1.7637-10.3028
		c-1.1762-1.9184-3.2811-2.8777-6.3123-2.8777c-5.88,0-8.8191,4.3935-8.8191,13.1805v15.7823H390.426z"/>
	<path id="XMLID_1544_" fill="#EF7B05" d="M494.6736,399.9372v126.712h-37.6888v-126.712H494.6736z M566.9882,399.9372
		l-33.4188,57.4603l33.2331,69.2517H524.472l-28.6844-69.9944l32.4905-56.7176H566.9882z"/>
	<path id="XMLID_1547_" fill="#EF7B05" d="M647.1927,449.2297v28.2201H622.593c-3.342,0-5.7092,0.4956-7.1016,1.4854
		c-1.3923,0.9897-2.0885,2.6611-2.0885,5.0126c0,2.6611,0.7106,4.4095,2.135,5.2452c1.4228,0.8341,4.3309,1.2528,8.726,1.2528
		h25.3424v36.2034h-29.6127c-13.9244,0-24.5693-3.3252-31.9335-9.9788c-7.3654-6.652-11.0467-16.2603-11.0467-28.8248v-49.663
		c0-12.1282,3.4812-21.536,10.4436-28.2201c6.962-6.6841,16.7555-10.0253,29.3806-10.0253h32.7687v36.3879h-24.0427
		c-6.4984,0-9.7474,2.1061-9.7474,6.3136c0,2.475,0.7731,4.193,2.321,5.1522c1.5459,0.9592,4.3005,1.4388,8.2617,1.4388H647.1927z"
		/>
	<path id="XMLID_1549_" fill="#EF7B05" d="M708.9246,434.0056v92.6435h-37.6888v-126.712h48.3641
		c14.728,0,26.1461,3.6524,34.2545,10.9541c9.0348,8.1678,13.553,18.5348,13.553,31.0977c0,12.8099-5.6017,23.61-16.8024,32.397
		l21.7225,52.2632H732.782l-18.2877-40.8456v-32.5831h2.9706c7.9212,0,11.8824-3.4022,11.8824-10.2114
		c0-6.0023-4.5808-9.0035-13.7391-9.0035H708.9246z"/>
</g>
<path id="XMLID_1555_" fill="#EF7B05" d="M750.8397,218.1257c-14.3817-34.319-35.4302-65.4492-61.9227-91.5709
	c-26.6851-26.0412-58.1375-46.6551-92.6496-60.7467c-36.7026-14.9129-76.0303-22.3855-115.6475-21.9667
	c-39.5853-0.4026-78.8647,7.07-115.5346,21.9667c-34.4803,14.1237-65.9327,34.7537-92.6339,60.7467
	c-26.4921,26.1218-47.5409,57.252-61.9388,91.5709c-15.1704,36.1872-22.8201,74.9776-22.4977,114.2247
	C187.8698,348.0524,188.997,363,191.3805,379h172.4969c0.4989-2,1.1595-4.1172,1.9969-6.1626
	c1.997-4.9602,4.9604-9.3943,8.7447-13.1788c3.7525-3.7523,8.2619-6.6539,13.2218-8.5703
	c10.4842-4.2357,22.2084-4.2209,32.6925,0.0148c4.9604,1.9164,9.4693,4.8549,13.238,8.6072
	c3.7686,3.7845,6.7316,8.1632,8.729,13.1234c0.8532,2.0453,1.5295,4.1663,2.0288,6.1663h72.0683
	c0.4832-2,1.1599-4.1172,1.9973-6.1626c1.9808-4.9924,5.0084-9.4427,8.8575-13.1788c3.7682-3.7523,8.2776-6.6539,13.2376-8.5703
	c5.1699-2.0776,10.7098-3.0451,16.2819-2.9003c5.5883-0.0322,11.1125,1.0542,16.282,3.1961
	c4.96,1.9164,9.4694,4.8512,13.2219,8.6037c3.7847,3.7684,6.7477,8.1612,8.7447,13.1216c0.7891,1.9486,1.4332,3.8906,1.9164,5.8906
	h172.6581c2.3351-16,3.4301-30.6095,3.285-46.1342C773.5632,293.4738,765.994,254.5061,750.8397,218.1257z M626,363
	c0,0,0-0.8988,0-1.6879c-3-8.1811-10.7194-15.6055-17.0484-21.8378c-6.3456-5.8623-14.7972-10.5325-22.8173-13.7534
	c-26.299-10.9029-57.1216-5.2501-77.7034,14.4136c-6.4902,6.0392-12.0133,13.0156-15.7654,21.0518
	c-1.0632,2.6412-2.2703,6.8138-3.059,7.8138h-18.5203c-0.5799-1-1.4174-5.2049-2.5124-7.8138
	c-3.4466-8.149-8.4392-15.4457-14.6876-21.7107c-20.7587-19.245-50.7135-24.7937-77.0286-14.358
	c-8.2131,3.366-13.7473,8.2978-20.1246,14.4656C350.3877,345.7674,347,353.2436,344,361.4408V363h-53.1573
	c2.3351-16,8.8216-31.9984,15.2634-46.8307c0.274-1.1917,2.8938-3.155,3.8938-4.8781v-0.5316
	c33-10.7255,73.9239-24.4791,73.9239-24.4791c95.1463-30.1801,106.8321-66.1739,106.8321-66.1739s19.4835,35.865,88.5561,59.4261
	c0,0,37.9974,12.5617,73.4598,25.397c1.7233,3.4464,3.4417,7.4711,5.0357,11.175C664.2495,330.9373,668.5771,347,670.9122,363H626z"
	/>
</svg>
