<?xml version="1.0" encoding="utf-8"?>
<!-- Generator: Adobe Illustrator 19.0.0, SVG Export Plug-In . SVG Version: 6.00 Build 0)  -->
<svg version="1.1" id="Layer_1" xmlns="http://www.w3.org/2000/svg" xmlns:xlink="http://www.w3.org/1999/xlink" x="0px" y="0px"
	 viewBox="-298.5 187 380 415" style="enable-background:new -298.5 187 380 415;" xml:space="preserve">
<style type="text/css">
	.st0{fill:#EF7B05;stroke:#EF7B05;stroke-width:8;stroke-miterlimit:10;}
</style>
<g id="XMLID_8614_">
	<path id="XMLID_8615_" class="st0" d="M-135.4,419.4c5.1-3.4,10.6-9.5,12.9-15.1c1.5-3.6,1.9-6.4,1.6-8.7c0-2.1-0.9-3.8-2.6-5.2
		c0,0-2.7-1.9-2.7-1.9c-7.3-4.4-15.4-5.2-23.6-5.8c-9-0.7-18.4-0.9-27.1,2.2c-8.6,3.1-10.8,12.9-10.4,20.7c0.4,6.5,1.1,13.4,7.7,16
		C-167.7,426.2-146.6,426.8-135.4,419.4z M-27.7,405.7c0.4-7.9-1.8-17.7-10.4-20.7c-8.7-3.1-18.1-2.9-27.1-2.2
		c-8.2,0.6-16.2,1.4-23.6,5.8c0,0-2.7,1.9-2.7,1.9c-1.6,1.4-2.6,3.1-2.6,5.2c-0.3,2.2,0.2,5.1,1.6,8.7c2.3,5.6,7.9,11.7,12.9,15.1
		c11.1,7.4,32.3,6.8,44.1,2.2C-28.9,419.1-28.1,412.2-27.7,405.7z M-21.3,399.4c-1.7,5.7-1.6,13.8-4.3,19.1
		c-5.5,10.6-18.6,10.4-29.1,10.5c-13.6,0.1-23.6-1.4-33.5-10.9c-4.7-4.5-8.2-11.8-13.2-15.9c-1.7-1.3-3.7-2.2-6-2.5
		c-2.3,0.3-4.3,1.2-6,2.5c-5.1,4-8.6,11.4-13.2,15.9c-9.9,9.5-19.9,11-33.5,10.9c-10.5-0.1-23.6,0.1-29.1-10.5
		c-2.7-5.4-2.6-13.4-4.3-19.1c-1.4-4.6-5-7-5.6-10.4c0-0.3-29-0.5-29-0.5v-7.9c0,0,28.4,0.5,28.4,0.4c0-5,17.5-4.9,23-5.4
		c13.6-1.2,28.2-0.3,41.6,2.1c8.8,1.5,18.6,7,27.6,7.6c9.1-0.6,18.9-6.1,27.6-7.6c13.4-2.4,28-3.3,41.6-2.1
		c4.9,0.4,19.1,0.4,22.3,3.8c0.4,0.5,24.9,0.1,24.9,0.1l0.4,8.4c0,0-25,0.7-25.2,1.1C-16.9,392-20.1,395.3-21.3,399.4z"/>
</g>
</svg>
