<?xml version="1.0" encoding="utf-8"?>
<svg version="1.1" id="Layer_1" xmlns="http://www.w3.org/2000/svg" xmlns:xlink="http://www.w3.org/1999/xlink" x="0px" y="0px"
	 viewBox="-306.5 287.5 395 280" style="enable-background:new -306.5 287.5 395 280;" xml:space="preserve">
<style type="text/css">
	.ac-st0{fill-rule:evenodd;clip-rule:evenodd;fill:#676766;}
	.ac-st1{fill-rule:evenodd;clip-rule:evenodd;fill:#313130;}
	.ac-st2{fill-rule:evenodd;clip-rule:evenodd;fill:#232323;}
	.st3{fill-rule:evenodd;clip-rule:evenodd;fill:#EBEBEB;}
	.st4{fill-rule:evenodd;clip-rule:evenodd;fill:#4D4D4D;}
</style>
<g id="XMLID_7415_">
	<path id="XMLID_7565_" class="ac-st0" d="M-283.7,420.8c0,0-5.4,37.3-6,37.2c-0.5-0.2,10.2-6.4,10.2-6.4l4.6-29L-283.7,420.8z"/>
	<path id="XMLID_7424_" class="ac-st0" d="M66.4,420.8c0,0,5.4,37.3,5.8,37.2c0.6-0.2-10.2-6.4-10.2-6.4l-4.5-29L66.4,420.8z"/>
	<path id="XMLID_7423_" class="ac-st1" d="M-255.2,429.5L-255.2,429.5c9.4,0,17.1,6.2,17.1,13.7v97.1c0,7.5-7.7,13.7-17.1,13.7l0,0
		c-9.4,0-16.9-6.2-16.9-13.7v-97.1C-272.2,435.7-264.6,429.5-255.2,429.5L-255.2,429.5z"/>
	<path id="XMLID_7422_" class="ac-st1" d="M37.8,429.5L37.8,429.5c-9.2,0-16.9,6.2-16.9,13.7v97.1c0,7.5,7.7,13.7,16.9,13.7l0,0
		c9.4,0,17.1-6.2,17.1-13.7v-97.1C54.9,435.7,47.2,429.5,37.8,429.5L37.8,429.5z"/>
	<path id="XMLID_7421_" class="ac-st2" d="M-272.2,540.9c-34.3-7.7-34.3-90.5,0-98.1c0,0.1,0,0.4,0,0.5v97.1
		C-272.2,540.6-272.2,540.7-272.2,540.9L-272.2,540.9z"/>
	<path id="XMLID_7420_" class="ac-st2" d="M54.9,540.9c34.3-7.7,34.3-90.5,0-98.1c0,0.1,0,0.4,0,0.5v97.1
		C54.9,540.6,54.9,540.7,54.9,540.9L54.9,540.9z"/>
	<path id="XMLID_7419_" class="st3" d="M-255.2,426.6L-255.2,426.6c1.5,0,2.8,1,2.8,2.2v126c0,1.2-1.2,2.2-2.8,2.2l0,0
		c-1.5,0-2.8-1-2.8-2.2v-126C-258,427.6-256.8,426.6-255.2,426.6L-255.2,426.6z"/>
	<path id="XMLID_7418_" class="st3" d="M37.8,426.6L37.8,426.6c-1.5,0-2.8,1-2.8,2.2v126c0,1.2,1.2,2.2,2.8,2.2l0,0
		c1.7,0,2.9-1,2.9-2.2v-126C40.7,427.6,39.5,426.6,37.8,426.6L37.8,426.6z"/>
	<path id="XMLID_7417_" class="ac-st1" d="M-285.7,428.3c5.1,1,5.4,1,10.5,2.1c27.2-144.9,305.8-145.3,333.2,0
		c4.9-1.1,5.2-1.1,10.3-2.1C50.4,247.3-267.7,246.7-285.7,428.3L-285.7,428.3z"/>
	<path id="XMLID_7416_" class="st4" d="M-279.7,429.4l4.5,1c27.2-144.9,305.8-145.3,333.2,0l4.3-1
		C44.4,263.3-261.7,262.8-279.7,429.4L-279.7,429.4z"/>
</g>
</svg>
