<?xml version="1.0" encoding="utf-8"?>
<!-- Generator: Adobe Illustrator 19.0.0, SVG Export Plug-In . SVG Version: 6.00 Build 0)  -->
<svg version="1.1" id="Layer_1" xmlns="http://www.w3.org/2000/svg" xmlns:xlink="http://www.w3.org/1999/xlink" x="0px" y="0px"
	 viewBox="0 0 517.6 409.5" style="enable-background:new 0 0 517.6 409.5;" xml:space="preserve">
<style type="text/css">
	.st0{fill:#EF7B05;}
	.st1{opacity:0.99;fill:#FFFFFF;}
</style>
<g id="XMLID_131_">
	<path id="XMLID_139_" class="st0" d="M310.8,150.5c-11.7,6.4-23.4,13.9-32.4,25.7c23.6,3.5,45,24.4,63.6,46.5
		c18.7,22.1,36.5,46.7,58.6,61c16.5,10.7,35,14.9,52,10.6c17-4.3,32.4-17.4,41.4-37c-7.5,1.7-15.5,1.2-23.1-1.5
		c15.2-5.9,26.6-24.7,28.2-46.5c-10.7,9.9-25.9,8.3-38.6,0.7c-12.7-7.6-23.6-20.5-34.3-33.2c-10.6-12.7-21.5-25.6-34.2-33.4
		C365.4,127.3,336.1,136.7,310.8,150.5z"/>
	<path id="XMLID_136_" class="st1" d="M409.5,198.4c-4.4-2.3-8.8-3.5-12.9-3.3c4.1,12.6,10.9,24.5,19.1,33.1
		c5.3,5.5,11.4,10.3,14.6,18.2c-5.9,1.4-13.1-2.9-19.6-7.6c-10.8-7.7-21.3-16.8-31.5-27.1c-17.7-18-34.7-40.2-53.7-51.2
		c18-2,38.6,13.4,57.4,29.1c-7.7-13.3-17-24.9-27.1-33.6c12.6,1.7,26.3,10.2,37.9,23.7c-2.6-7.9-6.5-15.5-11.1-21.9
		c14.4,7.6,30.3,18.1,39.9,37.4c-6.3-6.3-13.3-10.5-19.9-11.8C405,188.3,407.2,193.3,409.5,198.4z"/>
	<path id="XMLID_135_" class="st0" d="M265.8,187.7c8.1,13.6,9.3,28.7,7.5,43.3c-1.8,14.6-6.6,29-10.1,43.5
		c-1-19.5-4.7-38.9-11.1-57.9c-0.6,14.4,0.5,28.9,3.3,43.2c-5.1-16.5-15.1-32.4-29.3-46.3c-12.4-12.2-28.3-23.4-34.7-37.6
		c-2.2,0-3.4,1.7-4.2,3.1c-4.2,7.1-12.5,12.7-20.9,17.9c-45.2,28.1-98.5,49.7-145,76.8c0.2-2.9,3.6-5.2,6.9-7.1
		c28.8-17.3,58.6-33.8,89.2-49.6c-37.3,13.6-76.3,28.3-97.8,52.8c-3.1-23.7,4.5-47.6,16.7-69.9c8.6-15.6,19.7-30.9,37.1-42.8
		c17.4-11.9,41.8-19.9,66.5-18.6c7.4,0.4,14.6,1.6,21.8,2.8c8,1.3,16.1,2.7,24.1,4c7.6,1.3,15.1,2.5,22.4,4.4
		C234.1,156.3,255.5,170.4,265.8,187.7z"/>
	<path id="XMLID_132_" class="st1" d="M117.3,125c-13.6,4.4-24.1,13-27.8,22.9c2.4,1.4,6.2,0,9.4,0.2c9.4,0.6,6.4,12.5,15.3,14.7
		c3.1,0.7,6.9-0.1,9.8,0.9c2.1,0.7,3.4,2.2,5.2,3.2c5.9,3.3,14.9,1,21.4-1.7c6.5-2.7,14.1-6,21.3-4.1c0.8,0.2,1.6,0.5,1.9,1
		c0.3,0.6,0,1.2-0.3,1.7c-3.7,6.2-10.7,11.1-17.9,15.6c-10.1,6.2-21,11.7-31.9,17.3c-12.3,6.3-24.7,12.5-37,18.8
		c14.9-12.8,39.3-20.5,50-35.1c-19.3,8.6-39.7,16.1-60.9,22.5c6.1-10.6,14-20.6,23.5-30c-14.3,1.9-28.2,5.2-40.9,10
		c0-6.1,1-12.2,3.1-18.2c-7.6,0.9-14.9,2.8-21.5,5.5C47.6,146.1,80.7,126.7,117.3,125z"/>
</g>
</svg>
