<?xml version="1.0" encoding="utf-8"?>
<!-- Generator: Adobe Illustrator 19.0.0, SVG Export Plug-In . SVG Version: 6.00 Build 0)  -->
<svg version="1.1" id="Layer_1" xmlns="http://www.w3.org/2000/svg" xmlns:xlink="http://www.w3.org/1999/xlink" x="0px" y="0px"
	 viewBox="0 0 402.02704 378.37839" style="enable-background:new 0 0 402.02704 378.37839;" xml:space="preserve">
<style type="text/css">
	.st0{fill:url(#XMLID_28_);}
</style>
<linearGradient id="XMLID_28_" gradientUnits="userSpaceOnUse" x1="201.88091" y1="88.75164" x2="195.88091" y2="302.75165">
	<stop  offset="0" style="stop-color:#8E4604"/>
	<stop  offset="1" style="stop-color:#EF7B05"/>
	<stop  offset="1" style="stop-color:#EF7B05"/>
</linearGradient>
<path id="XMLID_31_" class="st0" d="M381.07159,146.38254c-1.73727-12.0206-12.37772-34.85383-20.09189-44.23233
	c-6.64987-8.07913-34.05753-24.32538-34.05753-24.32538l33.04413,13.41038c0,0-36.79092-41.1721-53.57611-47.28913
	c-10.39188-3.78638-44.23062,1.07267-44.23062,1.07267s-42.78145-31.50015-59.78012-34.34735
	c-23.56288-3.94452-72.25888,7.79756-93.85481,18.01817c-18.86108,8.9269-64.13882,53.41705-64.13882,53.41705l37.01581-11.90725
	c0,0-33.59143,21.33936-41.78085,31.5481c-7.78578,9.70352-18.82249,32.96325-20.66162,45.26586
	c-4.10879,27.50652,14.58758,110.28502,14.58758,110.28502l20.80303-19.78036l-16.31776,46.28491l15.30006-15.50558
	l26.49267,91.44327l-2.11458-122.3588l111.71178-51.78313l-47.94016,44.44185l120.59784-54.62854l61.42654,61.96982
	l-2.50372,122.3588l27.34079-84.84525l12.97031,8.90756l-15.01102-53.98064l19.24493,27.47609
	C365.54745,257.29834,385.08017,174.0929,381.07159,146.38254z"/>
</svg>
