<?xml version="1.0" encoding="utf-8"?>
<!-- Generator: Adobe Illustrator 19.0.0, SVG Export Plug-In . SVG Version: 6.00 Build 0)  -->
<svg version="1.1" id="Layer_1" xmlns="http://www.w3.org/2000/svg" xmlns:xlink="http://www.w3.org/1999/xlink" x="0px" y="0px"
	 viewBox="0 0 478.5 445.5" style="enable-background:new 0 0 478.5 445.5;" xml:space="preserve">
<style type="text/css">
	.st0{fill:#EF7B05;}
	.st1{fill:#FFFFFF;}
</style>
<g id="XMLID_1173_">
	<path id="XMLID_1227_" class="st0" d="M462.3,263.8c0-37-14.2-76.1-23.5-101.2c-3.7-10-7.6-20.1-11.4-29.8
		c-6.6-16.9-13.4-34.4-19.1-51.9c-4.3-13-14.1-28.7-29-33.5c-8.3-2.7-17.1-1.7-26.1,3c-2.2-2.8-4.8-5.4-8.2-7.3
		c-6.9-3.9-16.7-4.5-26.3-1.8c-6.9,2-13,5.4-19,9.2c-4.5-10.1-17.2-17.2-30.2-16.5c-5.4,0.3-10.5,1.9-15.5,3.4
		c-4,1.2-8.1,2.5-12.2,3c-5.2,0.7-10.4,0.3-15.8-0.1c-3.6-0.3-7.4-0.5-11.1-0.4c-14.3,0.3-27.7,5.5-39.2,10.3
		c-15.1,6.3-32.3,14.4-46.1,26.1c-11,9.3-19.4,20.6-27.6,31.5c-2.4,3.2-4.8,6.4-7.2,9.5c-4.9,6.3-10.1,12.5-15.2,18.5
		c-8.1,9.6-16.4,19.5-23.5,29.8c-13.6,19.9-20.2,38.7-19.6,55.9c0,0.2,0.1,0.5,0.1,0.7c-0.1,1.5-0.1,3-0.1,4.5
		c0.3,7.2,3.8,18.1,8.3,25.8c-0.2,0.5-0.5,0.9-0.7,1.4c-8.2,17.2-11.9,32.3-11.2,45.7c-0.2,6.2,0.4,12.2,2,17.8
		c4.9,17.3,21,35.8,45,37.3c3.8,5.7,5.5,12.6,7.1,19.4c2.4,10.6,4.9,21.5,15.7,28.4c9.6,6.2,21.3,6,32.8,5.9
		c8.8-0.1,18-0.2,25.8,2.7c0.2,0.1,0.4,0.1,0.6,0.1c0.5,0,1-0.2,1.3-0.6c0.4-0.5,0.4-1.2-0.2-1.7c-1.5-1.3-3.3-2.7-5.2-4.1
		c1.2,0.3,2.3,0.5,3.5,0.9c0.2,0.1,0.4,0.1,0.6,0.1c0.5,0,1-0.2,1.3-0.6c0.4-0.5,0.4-1.2-0.2-1.7c-1.9-1.7-4.4-3.5-7-5.4
		c-4-2.9-8.6-6.3-11.8-9.8c0,0,0,0-0.1,0c-8.9-8.5-15.9-23.5-21.5-45.9c-0.1-0.2-0.2-0.5-0.4-0.6c-9.2-8.3-14.5-19.3-15.2-30.5
		c0.2-2.5,0.5-5,1.1-7.5c0.1-0.3,0-0.6-0.2-0.9c8.2-14.2,19.1-25.5,31.8-32.8c6.6-3.8,14.1-6.7,21.3-9.6c5.3-2.1,10.8-4.2,16-6.7
		c5.3-2.6,10.4-5.5,15.2-8.7c-3,2.9-6,5.9-9.1,8.7c-0.4,0.4-0.5,3.8-0.3,4.3c0.2,0.5,0.8,3.6,1.4,3.6h0c0.7,0,1.4-2.9,2.1-3
		c-1.1,1-2.2,0.7-3.3,1.7c-0.4,0.4-0.5,3-0.3,3.4c0.2,0.5,0.8,2.8,1.4,2.8h0c29.9,0,57.1-21.3,76-41.5
		c-8.6,15.3-21.4,31.1-30.7,34.7c-0.7,0.3-1,3.1-0.9,3.7c0.2,0.6,0.8,3.2,1.5,3.2c0,0,0.1,0,0.1,0c1.5,0,3-3.1,4.5-3.2
		c-1.8,1.4-3.6,1.1-5.2,1.7c-0.7,0.3-1,3.9-0.9,4.5c0.2,0.6,0.8,4,1.5,4c0,0,0.1,0,0.1,0c15.3,0,30.3-7.2,44.7-11.6
		c6.4-1.9,13.8-6.4,19.8-10.9c1.2-0.9,2.2-2.8,3.1-3.8c-2.2,3.4-5.3,5.9-9,8.1c-0.6,0.4-0.8,0.8-0.5,1.3c0.2,0.5,0.8,0.7,1.4,0.7
		c0.1,0,0.2-0.1,0.3-0.1c1.2-0.2,2.3-0.5,3.5-0.7c-1.4,1.3-3,2.5-4.7,3.5c-0.6,0.4-0.8,1-0.5,1.6c0.2,0.5,0.8,0.8,1.4,0.8
		c0.1,0,0.2,0,0.3,0c34.3-5,56.4-31.8,63.1-56.2c0.9-3.2,1.5-6.4,2-9.6c3.3,16.3,9.2,32.1,15,47.5c2.3,6.1,4.7,12.5,6.9,18.7
		c6.2,17.9,9.3,35.4,9.6,52.4c-0.1,5.4-0.5,10.8-1.3,16.1c-3.6,25.7-14.6,49.2-31.7,68c-0.2,0-0.4,0.1-0.6,0.1
		c-0.8,0.2-1.3,0.9-1.1,1.6c0.2,0.6,0.8,1,1.5,1c0.1,0,0.3,0,0.4,0c0.8-0.2,1.6-0.3,2.4-0.5c-0.9,1-1.7,2.1-2.6,3.1
		c-0.2,0-0.4,0.1-0.6,0.1c-0.8,0.2-1.3,0.9-1.1,1.6c0.2,0.6,0.8,1,1.5,1c0.1,0,0.3,0,0.4,0c14.9-3.2,30.3-5,45.7-5.3
		c0.4,0,0.8-0.2,1.1-0.4c9.5-2.2,15.9-11,17.6-13.9c8-12.7,11.1-22.6,14-32.2c3-9.8,5.9-19,13.7-30.4c0.6-0.1,1.1-0.4,1.3-1
		c0.1-0.4,0.1-0.9,0.2-1.4C459.4,305.9,463,285.1,462.3,263.8z M398.3,399.9C398.3,399.9,398.3,399.9,398.3,399.9
		C398.3,399.9,398.3,399.9,398.3,399.9c7-0.9,12.5-6.4,15.4-10.2C410.8,393.5,405.4,399,398.3,399.9z"/>
	<g id="XMLID_1224_">
		<path id="XMLID_432_" class="st1" d="M115,409.7l2.2,0.1l2.2,0c1.5,0,3,0,4.5-0.1l2.2-0.1l2.2-0.2l2.2-0.3l2.2-0.3l2.2-0.4
			l2.2-0.4l2.1-0.5l2.1-0.6l2.1-0.6l2.1-0.7l2.1-0.7l2-0.8l-0.2,2.6l-1.6-0.9l-1.5-0.9l-1.5-1l-1.4-1.1l-1.4-1.1l-1.4-1.2l-1.3-1.2
			l-1.2-1.3l-1.2-1.3l-1.1-1.4l-1.1-1.4l-1-1.5l-1-1.5l-0.9-1.5l-0.8-1.6l-0.8-1.6l-0.7-1.6l-0.6-1.7l-0.5-1.7l-0.5-1.7
			c-0.3-1.1-0.5-2.3-0.7-3.5l-0.3-1.8l-0.2-1.8l-0.1-1.8l0-1.8l0-1.8l0.1-1.8l0.2-1.7l0.3-1.7l0.3-1.7l0.4-1.7l-0.2,1.7l-0.1,1.7
			l0,1.7l0,1.7l0.1,1.7l0.1,1.7l0.2,1.7l0.3,1.7l0.3,1.7l0.4,1.7l0.4,1.6l0.5,1.6l0.6,1.6l0.6,1.6l0.7,1.5l0.7,1.6l0.8,1.5l0.8,1.5
			l0.9,1.4l0.9,1.4l1,1.4l1,1.3l1.1,1.3l1.1,1.2l1.2,1.2l1.2,1.1l1.3,1.1l1.3,1.1l1.3,1l1.4,1l1.4,0.9l1.4,0.8l2.7,1.6l-2.9,1
			l-2.2,0.8l-2.2,0.7l-2.2,0.6l-2.2,0.6l-2.2,0.5l-2.2,0.4l-2.3,0.3l-2.3,0.2l-2.3,0.1l-2.3,0.1l-2.3,0l-2.3-0.1l-2.3-0.2l-2.2-0.3
			l-2.2-0.4L115,409.7z"/>
	</g>
	<g id="XMLID_1221_">
		<path id="XMLID_430_" class="st1" d="M401,404.8c-3.7,0-7.3-0.1-11-0.1c-1.8,0-3.7-0.1-5.5-0.2c-1.8-0.1-3.7-0.1-5.5-0.2
			c-3.7-0.2-7.3-0.4-11-0.6c-3.7-0.2-7.3-0.5-11-0.7l-3.1-0.2l2.1-2.3l2.1-2.3l2.1-2.4l2-2.5l1.9-2.5l1.8-2.6l1.7-2.7l1.6-2.7
			l1.5-2.8l1.4-2.8l1.3-2.9l1.2-2.9l1.1-3l1-3l0.9-3.1l0.8-3.1l0.7-3.1l-0.2,3.2l-0.4,3.2l-0.5,3.2l-0.7,3.2l-0.8,3.1l-1,3.1l-1.1,3
			l-1.3,3l-1.4,2.9l-1.5,2.9l-1.6,2.8l-1.8,2.7l-1.9,2.7l-2,2.6l-2.1,2.5l-2.2,2.4l-0.9-2.5c3.7,0.3,7.3,0.6,11,0.9
			c3.7,0.3,7.3,0.7,10.9,1.1c1.8,0.2,3.6,0.4,5.5,0.6c1.8,0.2,3.6,0.4,5.5,0.7C393.7,403.7,397.4,404.2,401,404.8z"/>
	</g>
	<g id="XMLID_1174_">
		<path id="XMLID_428_" class="st1" d="M138.5,278.1l-1.7-0.2l-1.7-0.1l-1.7,0l-1.7,0.1l-1.7,0.1l-1.7,0.2l-1.7,0.3l-1.7,0.4
			l-1.7,0.5l-1.6,0.5l-1.6,0.6l-1.6,0.7l-1.5,0.8l-1.5,0.8l-1.4,0.9l-1.4,1l-2.8,2l0.9-3.3l1.3-4.7l1.4-4.6l1.6-4.6l1.8-4.5l2-4.5
			l2.1-4.4l2.3-4.3l2.5-4.2l2.6-4.1l2.8-4l2.9-3.9l3.1-3.8l3.2-3.6l3.4-3.5l3.5-3.3c1.2-1.1,2.4-2.1,3.6-3.2
			c-1.1,1.2-2.1,2.4-3.2,3.6l-3.1,3.7l-3,3.7l-2.9,3.8l-2.8,3.9l-2.7,4l-2.6,4l-2.4,4.1l-2.3,4.2l-2.2,4.2l-2.1,4.3l-2,4.3l-1.8,4.4
			l-1.7,4.5l-1.6,4.5l-1.4,4.6l-1.9-1.3l1.5-1l1.6-0.9l1.6-0.8l1.7-0.7l1.7-0.6l1.7-0.5l1.7-0.4l1.8-0.4l1.8-0.3l1.8-0.2l1.8-0.1
			l1.8,0l1.8,0.1l1.8,0.2l1.7,0.3L138.5,278.1z"/>
	</g>
</g>
</svg>
