<?xml version="1.0" encoding="utf-8"?>
<!-- Generator: Adobe Illustrator 19.0.0, SVG Export Plug-In . SVG Version: 6.00 Build 0)  -->
<svg version="1.1" id="Layer_1" xmlns="http://www.w3.org/2000/svg" xmlns:xlink="http://www.w3.org/1999/xlink" x="0px" y="0px"
	 viewBox="0 0 337.5 292.5" style="enable-background:new 0 0 337.5 292.5;" xml:space="preserve">
<style type="text/css">
	.st0{fill:#FFFFFF;}
	.st1{fill:#EF7B05;}
	.st2{fill:none;}
</style>
<g id="XMLID_1373_">
	<path id="XMLID_7334_" class="st0" d="M291.2,218.5c-0.2-8.5-10.3-16.8-11.8-24.9c-0.2-1.2,0.6-2.3,0.3-3.5
		c-0.1-0.6-0.2-1.2-0.4-1.7c-0.3-1.1-0.5-2.3-0.8-3.4c-0.1-0.6-0.3-1.1-0.4-1.7c-0.6-2.3-1.2-4.5-1.9-6.7c-0.8-2.8-1.8-5.5-2.7-8.1
		c-0.4-1.1-0.8-2.1-1.2-3.2c-0.2-0.5-0.2-1.2-0.6-1.6c-16.5-15.4-18.3-32.2-27.2-51.4c4,1.1,7.8,2.2,11.4,3.3
		c1.2,0.4,2.4,0.7,3.6,1.1c9.2,5.8,18.6,11.7,27.5,44.9C290.1,173.2,291.1,196.5,291.2,218.5z"/>
	<path id="XMLID_7333_" class="st0" d="M105.8,100c-12.1,35.2-29,70-59.9,94.5c0-0.4,0-0.8,0-1.2c0-0.9,0-1.8,0.1-2.7
		c0-0.3,0-0.6,0-0.9c0-0.8,0-1.7,0.1-2.5c0,0,0-0.1,0-0.2c0-1,0.1-1.9,0.1-2.9c0-0.1,0-0.1,0-0.2c0.1-1,0.1-2,0.2-3
		c0-0.5,0.1-1,0.1-1.5c0.1-1.9,0.3-3.8,0.5-5.7c0.1-0.5,0.1-0.9,0.1-1.4c3.3-31.3,12.8-46.3,19.4-53.2c0.1,0.1,0.1,0.1,0.1,0.1
		c2.1-1.9,4.2-3.7,6.5-5.3c0,0,0,0,0,0C82.5,107.4,93.6,102.9,105.8,100z"/>
	<g id="XMLID_7318_">
		<path id="XMLID_7332_" class="st1" d="M73.1,114.1C73.1,114.1,73.1,114.1,73.1,114.1c-0.3,0.1-3,1.4-6.6,5.2
			c-6.5,6.8-16,21.8-19.4,53.2c-0.1,0.5-0.1,0.9-0.1,1.4c-0.2,1.8-0.4,3.7-0.5,5.7c0,0.5-0.1,1-0.1,1.5c-0.1,1-0.1,2-0.2,3
			c0,0.1,0,0.1,0,0.2c-0.1,1-0.1,1.9-0.1,2.9c0,0.1,0,0.1,0,0.2c0,0.8-0.1,1.7-0.1,2.5c0,0.3,0,0.6,0,0.9c0,0.9-0.3,1.8-0.3,2.7
			c0,0.4-0.3,0.8-0.3,1.2c0,0,0,0,0,0c0,0.7,0.3,1.5,0.3,2.3c0,10.9-0.3,25.5-0.8,38.8c-0.7,18.2-1.4,33.9-1.4,33.9s0-0.3-0.2-1
			c0-0.2-0.1-0.4-0.1-0.6c-0.3-1.3-0.7-3.2-1.2-5.8c-0.1-0.3-0.1-0.6-0.2-0.9c-0.2-1-0.4-2.1-0.6-3.2c-0.1-0.6-0.2-1.2-0.3-1.8
			c0-0.1,0-0.2,0-0.3c-0.1-0.3-0.1-0.7-0.2-1c-0.2-0.9-0.3-1.8-0.5-2.8c-0.1-0.3-0.1-0.6-0.2-0.9c-0.2-0.9-0.3-1.8-0.5-2.8
			c-0.1-0.5-0.2-1-0.3-1.6c0,0,0-0.1,0-0.1c-0.1-0.5-0.2-1.1-0.3-1.6c-0.2-1.3-0.5-2.5-0.7-3.9c-0.1-0.7-0.3-1.5-0.4-2.2
			c0-0.2-0.1-0.4-0.1-0.6c-0.1-0.6-0.2-1.1-0.3-1.7c-2-11.9-4.2-25.7-5.7-39.5c-0.2-1.9-0.4-3.9-0.6-5.8c-0.5-4.8-0.9-9.6-1.1-14.2
			c0-0.5-0.1-1.1-0.1-1.6c-0.2-4.1-0.3-8.1-0.3-11.9c0-12.4,1.2-22.8,4.4-28.8c9.9-18.4,21.5-22.5,29.5-22.7
			C69.2,112.2,73.1,114.1,73.1,114.1z"/>
		<path id="XMLID_7331_" class="st1" d="M291.4,234.9c0-5.2,0-10.6-0.1-16.2c0,0,0-0.1-0.1-0.2c-0.1-22-1.2-45.3-4.3-56.9
			c-8.8-33.1-18.3-39.1-27.5-44.9c-1.2-0.4-2.4-0.7-3.6-1.1c-3.6-1.1-7.5-2.2-11.4-3.3c-0.4-0.1-0.9-0.2-1.3-0.4
			c-39.6-10.9-95-21.9-137.4-12.1c-12.2,2.8-23.3,7-32.7,14h0c0,0,0,0,0,0c0,0-0.1,0-0.1,0h0c-0.1,0-0.3,0.3-0.4,0.4
			c0,0,0,0.1,0,0.1c-0.3,0.2-0.5,0.4-0.8,0.6c-0.4,0.3-0.8,0.6-1.2,1c-1.4,1.1-2.7,2.2-4,3.4c0,0,0,0-0.1-0.1c0,0,0,0,0,0
			c-0.3-0.6-2.1-3.1-3.1-6.9v0c-4-8.6-8-24-5-38.6v0c2-9.8,7.5-19.3,19.2-26.2c3.2-1.9,6.4-3.7,9.6-5.4c0.6-0.3,1.2-0.7,1.9-1
			c1.3-0.6,2.5-1.3,3.7-1.9c0,0,0,0,0.1,0c32.4-16.1,63.1-21,93.9-14.3c8,1.8,26.9,9.6,46.9,23.6c17.9,12.6,36.6,30.1,49,52.8
			c4.5,8.2,8.2,17.1,10.7,26.7c5.6,4.7,10.2,10.8,12.4,18.8c0.5,2,0.9,4.4,1.2,6.9c0.1,0.8,0.2,1.5,0.2,2.3c0,0.4,0.1,0.8,0.1,1.2
			c0,0,0,0,0,0.1c0,0.4,0,0.8,0.1,1.2c0,0.8,0.1,1.7,0.1,2.6c0,0.4,0,0.8,0,1.2c0.4,38.4-17,107.2-17,107.2s0.9-15.1,0.9-34.3V234.9
			z"/>
		<path id="XMLID_7330_" class="st1" d="M291.4,234.9c0-5.2,0-10.6-0.1-16.2c0,0,0-0.1-0.1-0.2c-0.1-22-1.2-45.3-4.3-56.9
			c-8.8-33.1-18.3-39.1-27.5-44.9c-1.2-0.4-2.4-0.7-3.6-1.1c-3.6-1.1-7.5-2.2-11.4-3.3c-0.4-0.1-0.9-0.2-1.3-0.4
			c-39.6-10.9-95-21.9-137.4-12.1c-12.2,2.8-23.3,7-32.7,14h0c0,0,0,0,0,0c0,0-0.1,0-0.1,0h0c-0.1,0-0.3,0.3-0.4,0.4
			c0,0,0,0.1,0,0.1c-0.3,0.2-0.5,0.4-0.8,0.6c-0.4,0.3-0.8,0.6-1.2,1c-1.4,1.1-2.7,2.2-4,3.4c0,0,0,0-0.1-0.1c0,0,0,0,0,0
			c-0.3-0.6-2.1-3.1-3.1-6.9v0c-4-8.6-8-24-5-38.6v0c2-9.8,7.5-19.3,19.2-26.2c3.2-1.9,6.4-3.7,9.6-5.4c0.6-0.3,1.2-0.7,1.9-1
			c1.3-0.6,2.5-1.3,3.7-1.9c-14.5,8.1-20.2,17-21.9,26c-2.3,11.9,2,23.8,2,33.7c0,5.8,1.5,5.5,5.5,2.4v0c0-0.1,0.3-0.2,0.4-0.3
			c0,0,0.1,0,0.1,0c8.1-6.5,23.8-23.6,48-25.9c50.9-4.8,118.7,18.6,146.6,37.3c22.4,15,23.3,61.8,23.3,70.5c0,0.9,0.1,1.3,0.3,1.3
			c1.7,0,9.8-30.5,9.8-30.5c0.1,0.8,0.2,1.5,0.2,2.3c0,0.4,0.1,0.8,0.1,1.2c0,0,0,0,0,0.1c0,0.4,0,0.8,0.1,1.2
			c0,0.8,0.1,1.7,0.1,2.6c0,0.4,0,0.8,0,1.2c0.4,38.4-17,107.2-17,107.2s0.9-15.1,0.9-34.3V234.9z"/>
		<path id="XMLID_7329_" class="st1" d="M47.2,172.4c-0.1,0.5-0.1,0.9-0.1,1.4c-0.2,1.8-0.3,3.7-0.5,5.7c0,0.5-0.1,1-0.1,1.5
			c-0.1,1-0.1,2-0.2,3c0,0.1,0,0.1,0,0.2c-0.1,1-0.1,1.9-0.1,2.9c0,0.1,0,0.1,0,0.2c0,0.8-0.1,1.7-0.1,2.5c0,0.3,0,0.6,0,0.9
			c0,0.9-0.3,1.8-0.3,2.7c0,0.4-0.3,0.8-0.3,1.2c0,0,0,0,0,0c0,0.7,0.3,1.5,0.3,2.3c0,10.9-0.3,25.5-0.8,38.8
			c-0.7,18.2-1.4,33.9-1.4,33.9s0-0.3-0.2-1c0-0.2-0.1-0.4-0.1-0.6c-0.3-1.3-0.7-3.2-1.2-5.8c-0.1-0.3-0.1-0.6-0.2-0.9
			c-0.2-1-0.4-2.1-0.6-3.2c-0.1-0.6-0.2-1.2-0.3-1.8c0-0.1,0-0.2,0-0.3c-0.1-0.3-0.1-0.7-0.2-1c-0.2-0.9-0.3-1.8-0.5-2.8
			c-0.1-0.3-0.1-0.6-0.2-0.9c-0.2-0.9-0.3-1.8-0.5-2.8c-0.1-0.5-0.2-1-0.3-1.6c0,0,0-0.1,0-0.1c-0.1-0.5-0.2-1.1-0.3-1.6
			c-0.2-1.3-0.5-2.5-0.7-3.9c-0.1-0.7-0.3-1.5-0.4-2.2c0-0.2-0.1-0.4-0.1-0.6c-0.1-0.6-0.2-1.1-0.3-1.7c-2-11.9-4.2-25.7-5.7-39.5
			c-0.2-1.9-0.4-3.9-0.6-5.8c-0.5-4.8-0.9-9.6-1.1-14.2c0-0.5-0.1-1.1-0.1-1.6c-0.2-4.1-0.3-8.1-0.3-11.9c0,0,8.5,29.2,10.3,27.1
			c3.5-4.1,6.8-20,6.8-20L47.2,172.4z"/>
		<path id="XMLID_7328_" class="st0" d="M78.9,101.3c0,0,8.4-47.6,61-37.3s107,30.9,142.9,37.3c0,0-95.3-37.3-117.4-42.8
			S78.9,31.6,78.9,101.3z"/>
		<g id="XMLID_7325_">
			<path id="XMLID_17_" class="st0" d="M62.3,116.5c0,0-1.3,0.6-3.6,1.8c-2.2,1.1-5.5,2.8-8.9,5.2c-1.7,1.2-3.4,2.7-5,4.4
				c-0.4,0.4-0.8,0.9-1.1,1.4c-0.3,0.5-0.7,1-1,1.4l-0.5,0.8l-0.3,0.4l-0.2,0.4c-0.3,0.5-0.6,1-0.8,1.6c-1,2.3-1.7,4.8-2.2,7.5
				c-0.5,2.7-0.7,5.5-0.8,8.3c-0.1,2.8-0.1,5.7-0.1,8.5c0,2.8-0.1,5.6-0.1,8.3c0,2.7-0.1,5.3-0.2,7.8c-0.1,2.5-0.2,4.8-0.3,7
				c-0.2,4.3-0.5,7.9-0.7,10.5c-0.2,2.5-0.4,4-0.4,4s-0.2-1.4-0.4-4c-0.2-2.5-0.5-6.1-0.8-10.5c-0.1-2.2-0.3-4.5-0.4-7
				c-0.1-2.5-0.2-5.1-0.3-7.8c-0.1-2.7-0.2-5.5-0.2-8.3c0-2.8-0.1-5.7,0-8.7c0.1-2.9,0.4-5.9,1-8.8c0.5-2.9,1.5-5.8,2.8-8.3
				c0.3-0.6,0.7-1.3,1.1-1.9c0.4-0.7,0.8-1.1,1.2-1.7c0.5-0.6,0.9-1.1,1.3-1.6c0.5-0.5,0.9-1,1.4-1.4c1.9-1.8,4-3.2,5.9-4.2
				c1.9-1.1,3.8-1.9,5.5-2.5c1.7-0.6,3.1-1.1,4.4-1.5c1.2-0.4,2.2-0.6,2.8-0.8C62,116.6,62.3,116.5,62.3,116.5z"/>
		</g>
		<g id="XMLID_7322_">
			<path id="XMLID_14_" class="st2" d="M298.2,139.6"/>
		</g>
		<g id="XMLID_7319_">
			<path id="XMLID_12_" class="st0" d="M67.1,108c0,0-0.1-0.2-0.3-0.7c-0.2-0.4-0.4-1.1-0.7-1.9c-0.6-1.7-1.4-4.3-1.9-7.6
				c-0.5-3.4-0.9-7.5-0.5-12.3c0.4-4.8,1.4-10.2,3.6-15.7c2.2-5.5,5.5-11.3,10.3-16.3c2.3-2.5,5.1-4.9,7.9-7c2.9-2.2,6-4.1,9.3-5.8
				c6.5-3.5,13.5-6.3,20.7-9c7.3-2.6,14.9-4.6,22.7-5.9c3.9-0.7,7.8-1.1,12-1.2c1,0,2.1,0,3.1,0.1l2.9,0.2c2,0.2,3.9,0.4,5.8,0.6
				c7.7,0.9,15.2,2.9,22.1,5.3c3.4,1.2,6.8,2.4,10,3.7c1.7,0.7,3.2,1.3,4.8,2c1.6,0.7,3.2,1.4,4.7,2.2c6,2.9,11.4,6.2,16.3,9.3
				c4.9,3.1,9.2,6.1,13.1,8.8c3.9,2.6,7.1,5,9.9,7c2.7,1.9,4.9,3.4,6.4,4.5c1.5,1,2.3,1.6,2.3,1.6s-0.9-0.4-2.5-1.2
				c-1.6-0.8-3.9-2-6.9-3.7c-2.9-1.6-6.5-3.6-10.6-5.9c-4-2.3-8.7-4.9-13.7-7.6c-5-2.7-10.5-5.5-16.5-8c-1.5-0.7-3-1.2-4.5-1.8
				c-1.5-0.6-3.2-1.2-4.8-1.6c-3.3-1-6.6-2-10-3.1c-3.4-1-6.8-1.9-10.3-2.7c-3.5-0.7-7.1-1.3-10.7-1.7c-1.8-0.2-3.7-0.3-5.5-0.5
				l-2.8-0.2c-0.9,0-1.7-0.1-2.6-0.1c-3.5,0.1-7.2,0.5-10.8,1.1c-7.3,1.3-14.7,3.1-21.5,5.5c-7,2.5-13.9,5-20.1,8.1
				c-3.1,1.5-6.1,3.2-8.8,5c-2.8,1.8-5.2,3.8-7.6,6c-2.3,2.1-4.2,4.5-5.9,6.9c-1.7,2.4-3.2,4.9-4.4,7.4c-1.2,2.5-2.2,5-2.9,7.4
				c-0.8,2.4-1.3,4.8-1.7,7c-0.8,4.5-0.9,8.5-0.8,11.8c0.2,3.3,0.5,5.9,0.9,7.7c0.2,0.9,0.3,1.6,0.4,2C67,107.8,67.1,108,67.1,108z"
				/>
		</g>
	</g>
	<g id="XMLID_7315_">
		<path id="XMLID_10_" class="st0" d="M292,99.9c0,0,0.2,0.4,0.5,1.2c0.3,0.8,0.9,1.9,1.5,3.3c0.3,0.7,0.7,1.5,1.1,2.3
			c0.4,0.9,0.7,1.8,1.1,2.8c0.7,2,1.7,4.3,2.4,6.9c0.4,1.3,0.8,2.6,1.2,4c0.4,1.4,0.7,2.9,1,4.4c0.7,3,1.2,6.2,1.7,9.5
			c0.3,1.7,0.4,3.4,0.6,5.1c0.1,0.9,0.2,1.7,0.3,2.6c0.1,0.9,0.1,1.7,0.2,2.6c0.1,1.8,0.2,3.5,0.3,5.3c0,1.8,0.1,3.6,0.1,5.4
			c0,1.8-0.1,3.6-0.1,5.4c0,0.9-0.1,1.8-0.1,2.7c0,0.9-0.1,1.8-0.1,2.6c-0.1,3.5-0.5,6.9-0.8,10.3c-0.3,3.3-0.7,6.5-1.1,9.6
			c-0.4,3-0.8,5.9-1.2,8.5c-0.8,5.3-1.6,9.6-2.1,12.7c-0.5,3.1-0.9,4.8-0.9,4.8s0-1.8,0.1-4.9c0.1-3.1,0.3-7.5,0.6-12.9
			c0.3-5.3,0.7-11.5,1.1-18.1c0.1-1.7,0.2-3.3,0.3-5c0.1-1.7,0.1-3.4,0.2-5.1c0-0.9,0.1-1.7,0.1-2.6c0-0.9,0-1.7,0-2.6
			c0-1.7,0.1-3.5,0.1-5.3c0-1.8,0-3.5,0-5.3c0-1.7-0.1-3.5-0.2-5.2c-0.1-1.7-0.2-3.4-0.3-5.1c-0.1-1.7-0.2-3.4-0.4-5
			c-0.4-3.3-0.7-6.4-1.2-9.4c-0.2-1.5-0.4-2.9-0.7-4.3c-0.3-1.4-0.5-2.7-0.8-4c-0.5-2.6-1.1-4.9-1.6-7c-0.3-1-0.5-2-0.7-2.9
			c-0.3-0.9-0.5-1.7-0.7-2.5c-0.4-1.5-0.7-2.7-1-3.5C292.1,100.3,292,99.9,292,99.9z"/>
	</g>
	<g id="XMLID_7060_">
		<path id="XMLID_8_" class="st0" d="M69,120c0,0-0.9-0.9-2.3-2.3c-1.4-1.4-3.2-3.3-4.9-5.3c-3.5-3.9-6.6-8-6.6-8s4.1,3.3,8.3,6.2
			c2.1,1.5,4.3,2.9,5.9,3.9c1.6,1,2.7,1.7,2.7,1.7L69,120z"/>
	</g>
</g>
</svg>
