<?xml version="1.0" encoding="utf-8"?>
<!-- Generator: Adobe Illustrator 19.0.0, SVG Export Plug-In . SVG Version: 6.00 Build 0)  -->
<svg version="1.1" id="Layer_1" xmlns="http://www.w3.org/2000/svg" xmlns:xlink="http://www.w3.org/1999/xlink" x="0px" y="0px"
	 viewBox="-293 75.2 373 410.8" enable-background="new -293 75.2 373 410.8" xml:space="preserve">
<g id="XMLID_2157_">
	<g id="XMLID_7290_">
		<path id="XMLID_7294_" fill="#EF7B05" d="M-218,246.2v-0.7c-12.4,11.1-20.6,22.5-22.9,31c-6.7,25.2-11.1,87.7-7.8,121.9
			s8.1,69,8.1,69s5.2-3.9,5.2-19.8s-0.4-57.6,3.3-73.9c3.7-16.3,10.7-23.2,11.4-29.7c0.7-6.4,2.2-32.7,20.7-59.3
			c5.8-8.3,12.5-15.6,19.6-21.7C-186.1,262.2-205.3,258.7-218,246.2z"/>
		<g id="XMLID_7291_">
			<path id="XMLID_7293_" fill="#EF7B05" d="M-5.4,241.2c-2.3-6.3-12-27.5-41.5-43.3c-16-8.6-26.4-14-33.4-19
				c-9-6.3-10.3-20.8-2.8-29.3c2.8-3.1,6-7.3,9.7-12.8c13.7-20.2,5.2-49.4-30.6-50.3s-42.1,38.2-29.5,50.3
				c12.5,12,9.4,22.3,9.4,22.3c-4.4,16.1-12.7,20-47.6,38.7c-29.6,15.9-39.3,37.4-41.5,43.5c6.7,6,19.5,15.3,37.3,18c0,0,0,0,0.1,0
				c11.8-9.1,24.1-14.8,34.4-16.3h14.3c9.4,0.9,7.7,2.6,15.8,2.6l1.6-18.8l1.3,0.3l1.3,18.5c8.1,0,6.5-1.7,16-2.6h14.3
				c10.3,1.5,22.6,7.2,34.4,16.3C-24.9,256.6-12,247.2-5.4,241.2z"/>
			<path id="XMLID_7292_" fill="#EF7B05" d="M22.3,276.5c-2.3-8.6-10.5-20-23-31.2v0.9c-12.6,12.4-31.5,15.9-37.5,16.7
				c7.1,6.1,13.8,13.4,19.6,21.7c18.4,26.6,19.2,51.6,19.9,58c0.7,6.4,8.5,14.6,12.2,30.9s3.3,58,3.3,73.9s5.2,19.8,5.2,19.8
				s4.8-34.8,8.1-69C33.4,364.2,29,301.7,22.3,276.5z"/>
		</g>
	</g>
	<g id="XMLID_7275_">
		<path id="XMLID_148_" fill="#FFFFFF" d="M-38,258.6c0,0,0.7-0.2,1.8-0.4c0.6-0.1,1.3-0.3,2-0.5c0.8-0.2,1.6-0.4,2.6-0.7
			c1.9-0.5,4.1-1.3,6.5-2.1c1.2-0.4,2.4-0.9,3.6-1.4s2.5-1,3.7-1.6s2.4-1.1,3.6-1.7c1.2-0.6,2.3-1.2,3.5-1.8c2.2-1.2,4.3-2.4,6-3.5
			s3.2-2,4.1-2.7c1-0.7,1.5-1.1,1.5-1.1s-0.5,0.5-1.3,1.3c-0.8,0.9-2.1,2-3.6,3.4s-3.3,3-5.4,4.6c-1,0.8-2.1,1.7-3.2,2.5
			s-2.2,1.6-3.4,2.4c-1.1,0.8-2.3,1.6-3.5,2.3s-2.3,1.5-3.5,2.1c-2.3,1.3-4.4,2.5-6.4,3.4c-0.9,0.5-1.8,0.9-2.6,1.3
			c-0.8,0.4-1.5,0.7-2.1,0.9c-1.1,0.5-1.7,0.7-1.7,0.7l-3.7,1.6l-2.7-8.3L-38,258.6z"/>
	</g>
	<g id="XMLID_7272_">
		<path id="XMLID_146_" fill="#FFFFFF" d="M-181.3,266.2c0,0-0.6-0.3-1.7-0.7c-0.5-0.2-1.2-0.6-2.1-0.9c-0.8-0.4-1.7-0.8-2.6-1.3
			c-1.9-0.9-4.1-2.1-6.4-3.4c-1.1-0.7-2.3-1.4-3.5-2.1c-1.2-0.7-2.3-1.5-3.5-2.3c-1.1-0.8-2.3-1.6-3.4-2.4c-1.1-0.8-2.1-1.7-3.2-2.5
			c-2-1.6-3.8-3.2-5.4-4.6c-1.5-1.4-2.8-2.6-3.6-3.4c-0.8-0.8-1.3-1.3-1.3-1.3s0.6,0.4,1.5,1.1c1,0.7,2.4,1.6,4.1,2.7
			c1.7,1.1,3.8,2.3,6,3.5c1.1,0.6,2.3,1.2,3.5,1.8c1.2,0.6,2.4,1.2,3.6,1.7s2.5,1.1,3.7,1.6s2.4,1,3.6,1.4c2.4,0.9,4.6,1.6,6.5,2.1
			c1,0.3,1.8,0.5,2.6,0.7s1.4,0.4,2,0.5c1.2,0.3,1.8,0.4,1.8,0.4l3.9,0.9l-2.7,8.3L-181.3,266.2z"/>
	</g>
	<g id="XMLID_2178_">
		<path id="XMLID_144_" fill="#FFFFFF" d="M-151.1,187.3c0,0-1.4,0.8-3.8,2.1c-2.4,1.3-5.9,3.1-10.2,5.1c-4.2,2.1-9.3,4.3-14.4,7
			c-2.6,1.3-5.2,2.8-7.8,4.4c-2.6,1.6-5.2,3.3-7.8,5.1c-2.6,1.7-5.2,3.5-7.8,5.2c-2.5,1.8-5,3.4-7.4,5.2c-2.4,1.7-4.6,3.4-6.7,5.1
			c-2.1,1.7-4.1,3.3-5.8,4.8c-1.8,1.5-3.4,2.9-4.8,4.2s-2.6,2.4-3.7,3.3c-2,1.9-3.2,3-3.2,3s0.2-0.3,0.7-0.9c0.5-0.6,1.1-1.4,2-2.5
			c0.9-1,2-2.3,3.3-3.7c1.3-1.4,2.8-3,4.5-4.7c1.7-1.7,3.5-3.5,5.6-5.3c2-1.8,4.2-3.7,6.6-5.5c2.3-1.8,4.8-3.7,7.3-5.5
			s5.1-3.6,7.7-5.3c2.6-1.7,5.3-3.5,8-5.1c2.7-1.6,5.4-3,8.1-4.3s5.3-2.4,7.8-3.4s4.9-2,7.1-2.8c4.4-1.7,8.1-3.1,10.6-4.1
			C-152.5,187.8-151.1,187.3-151.1,187.3z"/>
	</g>
	<g id="XMLID_2174_">
		<path id="XMLID_142_" fill="#FFFFFF" d="M-71.4,184.3c0,0,1.5,0.6,4,1.5c2.6,1,6.2,2.4,10.6,4.1c2.2,0.9,4.6,1.8,7.1,2.8
			s5.2,2.1,7.8,3.4c2.7,1.3,5.4,2.7,8.1,4.3c2.7,1.6,5.4,3.3,8,5.1s5.2,3.5,7.7,5.3s5,3.6,7.3,5.5c2.3,1.8,4.5,3.7,6.6,5.5
			c2,1.8,3.9,3.6,5.6,5.3s3.2,3.3,4.5,4.7s2.4,2.7,3.3,3.7s1.6,1.9,2,2.5c0.5,0.6,0.7,0.9,0.7,0.9s-1.1-1.1-3.2-3
			c-1-0.9-2.2-2.1-3.7-3.3c-1.4-1.3-3-2.7-4.8-4.2s-3.7-3.1-5.8-4.8c-2.1-1.7-4.4-3.4-6.7-5.1c-2.3-1.7-4.9-3.4-7.4-5.2
			c-2.5-1.7-5.1-3.5-7.8-5.2c-2.6-1.8-5.2-3.5-7.8-5.1c-2.6-1.6-5.2-3.1-7.8-4.4c-5.2-2.7-10.2-4.9-14.4-7c-4.3-2-7.7-3.9-10.2-5.1
			C-70,185-71.4,184.3-71.4,184.3z"/>
	</g>
	<g id="XMLID_2169_">
		<path id="XMLID_140_" fill="#FFFFFF" d="M14.1,250.3c0,0,0.3,0.4,1,1c0.6,0.7,1.6,1.7,2.7,3c1.1,1.4,2.5,3,3.9,5s3,4.2,4.6,6.8
			c1.6,2.6,3.2,5.4,4.8,8.5c0.2,0.4,0.4,0.8,0.6,1.2s0.4,0.8,0.6,1.2c0.4,0.8,0.8,1.6,1.1,2.4c0.7,1.7,1.4,3.5,2.1,5.3
			c1.3,3.6,2.2,7.5,3,11.4c0.7,4,1.1,8,1.2,12.1s0,8.2-0.5,12.2c-0.4,4-1.1,7.9-1.9,11.6s-1.9,7.2-3,10.5c-0.6,1.6-1.1,3.2-1.7,4.8
			c-0.6,1.5-1.2,3-1.8,4.3c-0.6,1.4-1.2,2.7-1.8,3.9c-0.6,1.2-1.2,2.4-1.8,3.5c-1.2,2.2-2.3,4-3.2,5.5c-0.9,1.5-1.7,2.6-2.2,3.4
			s-0.8,1.2-0.8,1.2s0.8-1.8,2.1-5.1c0.7-1.6,1.4-3.6,2.3-5.8c0.8-2.3,1.8-4.8,2.7-7.6c0.9-2.8,1.8-5.9,2.7-9.1
			c0.8-3.3,1.6-6.7,2.2-10.3c0.6-3.6,1.1-7.3,1.5-11.2c0.3-3.8,0.4-7.7,0.3-11.6c-0.1-3.9-0.4-7.7-1-11.5c-0.5-3.8-1.3-7.4-2.3-10.9
			c-0.3-0.9-0.5-1.7-0.8-2.6c-0.3-0.9-0.5-1.7-0.8-2.5s-0.6-1.7-0.9-2.5c-0.2-0.4-0.3-0.9-0.5-1.2c-0.2-0.4-0.3-0.8-0.5-1.2
			c-1.3-3.1-2.6-6-4-8.7c-2.6-5.3-5.1-9.6-7-12.5c-0.9-1.5-1.7-2.6-2.2-3.4C14.4,250.7,14.1,250.3,14.1,250.3z"/>
	</g>
	<g id="XMLID_2163_">
		<path id="XMLID_138_" fill="#FFFFFF" d="M-242.7,258.1c0,0-0.4,1.6-1.2,4.3c-0.5,1.4-0.7,3.1-1.1,5c-0.2,1-0.4,2-0.6,3
			c-0.1,1.1-0.3,2.2-0.5,3.4c-0.4,2.4-0.5,5-0.8,7.7c-0.1,0.7-0.1,1.4-0.1,2.1c0,0.7,0,1.4-0.1,2.1c0,1.4-0.2,2.9-0.1,4.4
			c0,1.5,0,3,0.1,4.5c0,1.5,0.2,3.1,0.2,4.6c0,0.8,0.1,1.6,0.1,2.4c0.1,0.8,0.2,1.6,0.2,2.4c0.2,1.6,0.3,3.2,0.5,4.7
			c0.5,3.2,0.8,6.3,1.5,9.4c0.3,1.5,0.5,3.1,0.9,4.6c0.3,1.5,0.7,3,1,4.5s0.7,2.9,1.1,4.3c0.4,1.4,0.7,2.8,1.1,4.1
			c0.8,2.6,1.5,5.2,2.3,7.4c0.4,1.1,0.7,2.2,1.1,3.3c0.4,1,0.7,2,1.1,2.9c0.7,1.8,1.2,3.5,1.8,4.8c1.1,2.6,1.6,4.2,1.6,4.2
			s-0.9-1.3-2.5-3.7c-0.8-1.2-1.7-2.7-2.7-4.4c-0.5-0.9-1-1.8-1.6-2.8c-0.5-1-1-2.1-1.5-3.2s-1.1-2.3-1.6-3.5s-1-2.5-1.5-3.8
			c-0.6-1.3-1-2.7-1.5-4.1s-1-2.8-1.4-4.3c-0.8-3-1.7-6.1-2.3-9.2c-0.7-3.2-1.2-6.4-1.7-9.7c-0.2-1.6-0.3-3.3-0.5-4.9
			c-0.1-0.8-0.2-1.6-0.2-2.5c0-0.8,0-1.6-0.1-2.5c0-1.6-0.1-3.2-0.1-4.8c0.1-1.6,0.1-3.2,0.2-4.7c0-1.5,0.3-3.1,0.4-4.6
			c0.1-0.7,0.2-1.5,0.3-2.2c0.1-0.7,0.2-1.4,0.3-2.1c0.5-2.8,1-5.4,1.7-7.8c0.3-1.2,0.6-2.3,1-3.4c0.3-1.1,0.8-2.1,1.1-3
			c0.7-1.9,1.3-3.5,2-4.8C-243.5,259.5-242.7,258.1-242.7,258.1z"/>
	</g>
</g>
</svg>
