<?xml version="1.0" encoding="utf-8"?>
<!-- Generator: Adobe Illustrator 19.0.0, SVG Export Plug-In . SVG Version: 6.00 Build 0)  -->
<svg version="1.1" id="Layer_1" xmlns="http://www.w3.org/2000/svg" xmlns:xlink="http://www.w3.org/1999/xlink" x="0px" y="0px"
	 viewBox="0 0 513.69861 495.20547" style="enable-background:new 0 0 513.69861 495.20547;" xml:space="preserve">
<style type="text/css">
	.st0{fill:#EF7B05;}
</style>
<path id="XMLID_1430_" class="st0" d="M490.11322,321.15781c0.26669,0.23676,0.59869,0.35922,0.93613,0.35922
	c0.24765,0,1.40811-0.06531,1.63126-0.19592c11.07565-6.58282,14.10022-18.6817,14.10022-27.8089c0-0.00546,0-0.01227,0-0.01907
	c0-1.91577-0.74548-3.79755-0.9169-5.55414c-0.80551-8.27274-4.68872-16.18082-7.9978-23.83038
	c-0.72388-1.67902-1.67764-3.35535-2.37973-5.03439c-2.79205-6.73656-4.13977-11.86755-4.47177-19.41234
	c0.15512-1.37289,0.27725-2.74579,0.3317-4.11595c0.06802-1.68993-0.03964-3.36897-0.07773-5.05072
	c0.01086-0.17416,0.02917-0.34833,0.03461-0.52249c0.86536-21.83838-7.23495-42.95018-16.32407-64.45656
	c-16.58356-39.21929-37.57376-83.82945-76.89645-116.86868C364.9346,20.79504,305.83173-5.99338,248.24373,10.00375
	c-25.38695-2.74715-52.43478,0.27213-78.22449,8.75576c-23.44122,7.70942-45.62293,19.74298-65.93739,35.76052
	C90.64954,65.11947,81.484,74.79367,75.25224,84.97131c-5.37183,8.75984-10.62949,22.57858-9.81582,35.24619
	c-0.1143,1.73755-0.13885,3.47101-0.04632,5.18407c-7.5788,6.05624-14.26505,12.36691-19.63144,19.03
	c-7.72847,9.59801-15.40798,19.94981-16.97,31.65953c-0.31295,2.36073-0.49256,5.30109-0.2803,8.30948
	c-0.45718,6.20863,0.31567,14.42694,5.97596,18.8327c-4.00846,8.72176-5.83445,17.54826-5.37728,25.92441
	c-0.52793,8.51221,1.12934,16.69377,5.10242,23.94875c1.2654,2.31174,3.48326,6.27394,6.92297,7.67812
	c-2.31038,3.49689-5.21128,6.8223-8.16388,10.05112c-0.99599,1.09125-1.99199,2.17703-2.96077,3.271
	c-11.78864,13.31799-18.55378,26.62784-20.11036,39.56216c-0.2939,2.44235-0.24764,4.85071-0.06259,7.23184
	c-1.06947,14.84058,7.21143,28.83752,11.92471,35.43805c0.0381,0.07892,0.00817,0.17142,0.06259,0.24219
	c4.9201,6.38959,7.81011,9.04285,10.01436,9.04285c0.33744,0,0.65855-0.06259,0.97422-0.18503
	c2.17159-0.8504,2.44372-4.1568,2.09812-9.58713c0.29118-2.73761-0.0517-6.72159-0.52521-11.91382
	c-0.01089-0.13879-0.02449-0.29391-0.0381-0.43405l0.48439,1.82462c1.23819,4.64798,2.41923,9.39664,2.82742,14.11536
	c-0.04898,0.58917-0.00816,1.18512-0.10069,1.77158c-1.08852,6.99915-6.37871,15.11951-15.73996,17.48157
	c-0.70754,0.17691-1.15927,0.87628-1.02865,1.59741c0.11974,0.66943,0.70209,1.14566,1.37153,1.14566
	c0,0,0.09797-0.00272,0.15239-0.00815c3.34719-0.36465,6.58825-1.48856,9.53541-3.17303
	c-2.54169,2.7308-5.85894,4.95819-10.03069,6.01132c-0.70754,0.17688-1.15927,0.87625-1.02865,1.59741
	c0.11974,0.66943,0.70209,1.14566,1.37153,1.14566c0,0,0.09797-0.00272,0.15239-0.00815
	c8.52309-0.93069,16.45838-6.64813,20.21377-14.56982c2.98526-6.30386,3.35535-13.19147,3.44516-19.53616
	c4.75138,3.13358,6.90936,8.44553,7.44546,13.75342c-0.00544,0.05307-0.00544,0.1102-0.01088,0.16327
	c-0.54426,4.96365-3.31454,9.49731-6.24809,14.2977c-0.28029,0.4599-0.53337,0.92252-0.81094,1.38242
	c-1.60556,1.39328-3.40978,2.56754-5.49701,3.34991c-0.71842,0.26938-1.08308,1.07217-0.81639,1.7933
	c0.21226,0.55789,0.74019,0.90347,1.30622,0.90347c0.16328,0,0.32655-0.02719,0.48983-0.08978
	c0.60413-0.22589,1.12662-0.55923,1.69537-0.83545c-0.51704,1.01776-0.85448,2.08316-1.29533,3.12134
	c-0.4599,0.22449-0.88714,0.49661-1.3797,0.6803c-0.71842,0.26941-1.08308,1.0722-0.81639,1.79333
	c0.15239,0.39731,0.48167,0.62863,0.85176,0.76334c-2.17159,6.2576-3.00159,12.78601-2.68048,19.29532
	c-0.78917,13.31531,3.51319,26.85782,12.84451,37.84232c0.27213,0.32385,0.664,0.49255,1.06131,0.49255
	c0.27213,0,0.5497-0.07892,0.78918-0.2449c0.5878-0.40549,0.77829-1.18921,0.43813-1.81784
	c-0.64767-1.1824-1.12389-2.42331-1.57563-3.67236c0.12518,0.03671,0.2177,0.1619,0.34832,0.1619
	c0.27213,0,0.5497-0.07892,0.78918-0.2449c0.5878-0.40549,0.77829-1.18921,0.43813-1.81784
	c-1.87225-3.42065-2.81654-7.15836-3.13765-11.06476c0.48439-6.3107,2.45733-12.94519,5.58137-19.55524
	c0.1143,0.25446,0.27485,0.49255,0.52521,0.64496c2.14982,1.3103,4.51463,2.32126,6.95018,3.19479
	c-2.02464,0.10748-4.04657,0.09525-6.03039-0.19049c-0.63678-0.06531-1.28445,0.28574-1.5076,0.90891
	c-0.22315,0.6232,0.02177,1.31711,0.5878,1.66c6.38416,3.89145,14.28679,5.86438,22.19487,5.86438
	c1.1375,0,2.26955-0.10068,3.40161-0.18231c0.18505,0.48303,0.29662,0.9538,0.4218,1.42731
	c-0.11701,0.40549-0.20682,0.81366-0.37826,1.21506c-3.80437,9.02109-19.66407,14.7222-26.43464,17.15503
	c-0.58236,0.20953-0.95245,0.77829-0.9198,1.39603c0.0381,0.61774,0.47895,1.13751,1.08308,1.27356
	c1.99471,0.45447,3.93499,0.6123,5.85078,0.63678c-2.31582,0.93069-4.42482,1.69675-6.01406,2.26685
	c-0.58236,0.20953-0.95245,0.77829-0.9198,1.39603c0.0381,0.61774,0.47895,1.13751,1.08308,1.27356
	c13.42686,3.06146,25.19374-4.4874,33.4828-11.48929c0.11429,6.06848,2.13893,12.0798,5.86166,17.22034
	c0.35921,0.50616,1.00687,0.7048,1.60012,0.49527c0.58236-0.21225,0.95789-0.78372,0.91435-1.40417
	c-0.1143-1.75525-0.1279-3.50912-0.08163-5.25891c0.01904-0.10886,0.0898-0.20001,0.08163-0.3143
	c-0.01905-0.31976,0.00272-0.63815-0.0136-0.95789c0.60957-12.24448,5.18678-24.14059,13.05132-34.04477
	c0.02177,0.4599-0.05987,0.87762-0.00544,1.35114c-0.20138,2.4097-0.19049,4.77859-0.05988,7.11618
	c-0.74019,12.83499,2.83559,24.88895,18.35513,31.83643c1.40964,0.63132,2.79749,1.23273,4.15814,1.82053
	c8.33804,3.61389,15.53859,6.73248,17.33464,12.28122c0.03537,0.11157,0.02177,0.24762,0.0517,0.35919
	c-0.58235,2.83151-1.89946,6.05762-4.13908,9.82388c-0.33743,0.56876-0.22859,1.29807,0.26125,1.74164
	c0.26125,0.24219,0.59868,0.36462,0.93613,0.36462c0.26668,0,0.52249-0.09387,0.75652-0.2449
	c-0.57692,1.19464-1.17288,2.39883-1.95389,3.71185c-0.33743,0.56876-0.22859,1.29803,0.26125,1.74161
	c0.26125,0.24222,0.59868,0.36465,0.93613,0.36465c0.28845,0,0.57147-0.08707,0.82182-0.26666
	c2.7594-2.00833,5.4426-3.70096,8.03326-5.33646c4.43298-2.79614,8.61562-5.43851,12.22404-9.08914
	c8.78162-6.73111,15.78622-17.01489,20.24643-29.75461c3.54312-10.12866,4.78947-21.04376,5.99773-31.60239l0.46806-4.07922
	c0.05716-0.46262-0.15784-0.88715-0.50343-1.18649c0.01088-0.10205,0.02449-0.20544,0.03537-0.3075l0.46806-4.07922
	c0.06532-0.54153-0.19049-1.07217-0.65855-1.35519c-25.34885-15.39301-43.32571-42.05215-48.61319-71.17136
	c-0.26123-1.4491-0.52248-2.89682-0.72113-4.35544c-0.25581-1.87769-0.47351-3.76218-0.62318-5.65485
	c-0.05986-0.76196-0.6259-1.33887-1.4967-1.27899c-0.38371,0.02991-0.71843,0.21497-0.94974,0.48846
	c-0.13062-0.09116-0.28574-0.16055-0.41092-0.2558c-0.35649-0.27078-0.66399-0.58646-0.98511-0.8858
	c-4.08194-3.82886-5.48068-10.05652-6.9012-16.62708c-0.74019-3.43973-1.5076-6.99374-2.68863-10.38174
	c-3.83159-11.0022-5.87528-20.97031-6.23721-30.17642c0.10613-2.71857,0.32656-5.38681,0.75108-7.97612
	c0.7402-4.52007,2.12261-7.18965,4.34319-8.40608c1.37697-0.7429,4.03839-0.22586,5.69838,1.1239
	c0.43541,0.35104,1.09396,1.0096,1.09396,1.75523c-0.03265,0.17145-0.05986,0.34016-0.09253,0.50888
	c-0.13062,0.72931,0.32657,1.4314,1.04498,1.60556c0.71298,0.16328,1.44772-0.24492,1.65999-0.95245
	c0.08708-0.2939,0.14151-0.5878,0.16328-0.88441c0.74019-4.32141,0.91707-8.69453,0.78101-13.05405
	c4.57178,1.98927,9.62793,3.97446,15.1821,4.1908c0.15239,0.00543,0.31294,0.00816,0.46262,0.00816
	c5.35823,0,12.90166-3.42339,16.02843-7.70398c0.03537,0.04762,0.05714,0.10068,0.09251,0.14694
	c3.0914,3.90234,8.83333,7.46724,15.27734,7.46724c0.79735,0,1.60013-0.05443,2.41107-0.16873
	c0.38098-0.05443,0.72931-0.26668,0.94701-0.58507c0.22586-0.31841,0.29935-0.71571,0.2177-1.09396
	c-0.29933-1.36609-0.52248-2.75531-0.7674-4.13908c0.19592-0.10341,0.42451-0.15512,0.5497-0.34016
	c0.22586-0.31839,0.29935-0.7157,0.2177-1.09396c-1.48582-6.76242-2.24779-13.7439-2.44099-20.88593
	c2.49542,11.95056,8.29451,22.65884,17.08701,30.77238c0.26668,0.24492,0.60413,0.3701,0.94701,0.3701
	c0.21771,0,0.43813-0.05171,0.63678-0.15512c0.52249-0.26669,0.81639-0.82999,0.74564-1.40962
	c-0.19321-1.57019-0.26668-3.11316-0.25851-4.64389c0.18504-0.2735,0.30206-0.58644,0.25851-0.92932
	c-0.07619-0.6259-0.06259-1.23412-0.10612-1.85321c0.24492-3.51863,0.81366-7.00868,1.45589-10.61304
	c0.30479-1.70897,0.60957-3.45061,0.8817-5.21808c0.07892,0.19865,0.13335,0.40819,0.21771,0.60548
	c3.47237,8.18837,8.1149,13.91125,14.18881,17.49248c3.83704,2.26411,8.99117,3.75266,14.11807,3.75266
	c3.86424,0,7.70943-0.84631,10.96138-2.84375c0.35921-0.22043,0.59868-0.59052,0.65311-1.0096s-0.08708-0.83815-0.37553-1.14294
	c-0.76469-0.79733-1.40419-1.6627-2.06819-2.51311c0.60686-0.28166,1.21915-0.55515,1.79062-0.90756
	c0.35921-0.22041,0.59868-0.59052,0.65311-1.0096s-0.08708-0.83815-0.37553-1.14294
	c-5.00719-5.20718-7.77473-11.66074-8.41153-18.25716c0.34833-3.74178,1.32256-7.43729,3.11044-10.87564
	c0.65855,17.84215,16.78767,37.86136,36.26939,43.43864c0.12518,0.0381,0.25037,0.05443,0.38098,0.05443
	c0.31567,0,0.62592-0.10886,0.87625-0.31296c0.35379-0.28574,0.54428-0.72931,0.51163-1.18103l-0.33472-4.62349
	c0.21768-0.27077,0.36191-0.59596,0.33472-0.94972l-0.24222-3.32814c9.77219,5.51605,21.90372,8.52989,33.79031,8.19653
	c0.52792-0.01361,1.00687-0.32384,1.23004-0.80551c0.22314-0.47894,0.15781-1.04497-0.17416-1.4586
	c-0.87082-1.08989-1.65182-2.21513-2.48727-3.31862c0.47894-0.00273,0.95517,0.02313,1.4314,0.00952
	c0.52792-0.01361,1.00687-0.32384,1.23004-0.8055c0.22314-0.47896,0.15781-1.04498-0.17416-1.45862
	c-14.44193-18.05579-23.69431-38.10899-29.71381-58.38263c21.2424,17.0421,35.55096,39.79483,39.37982,63.66194
	c0.0871,0.5497,0.49527,0.99327,1.03409,1.12933s1.10486-0.05714,1.44772-0.50072c0.17145-0.22179,0.28574-0.46262,0.45447-0.68576
	c0.01633,0.00679,0.01904,0.02856,0.03537,0.03537c0.16873,0.06804,0.3429,0.09796,0.5116,0.09796
	c0.55515,0,1.07764-0.33199,1.29535-0.8817c0.59869-1.51031,1.1348-3.05602,1.64639-4.61803
	c1.05042-1.91852,1.9675-3.88464,2.70767-5.9025l6.03583,22.7932c0.18506,0.55515,0.70755,5.93205,1.29535,5.93205h0.02176
	c0.58237,0,1.0994-5.34698,1.30621-5.89124c0.45175-1.21915,2.73764-4.55663,5.15414-4.34981
	c1.47495,0.12247,2.90091-0.73805,4.40851-0.32986c1.05585,0.28845,2.11716-0.04927,3.19479,0.14938
	c5.21127,0.96605,10.86612-0.63966,14.98343-3.39088c-3.09412,19.99744-7.80194,33.29971-9.2034,36.96939l-1.5076,3.82166
	c-4.07651,10.4906-8.28906,21.29871-7.95706,32.50229c0.01086,0.36057,0.08707,0.71933,0.11157,1.08398
	c-0.10614,1.48312-0.15512,2.96329-0.11157,4.45999c0.35376,11.93832,7.58151,26.23929,22.92416,31.29272
	c0.54153,0.18231,1.16473-0.00516,1.53482-0.46777c-1.60013,3.86423-3.34177,7.67825-5.32285,11.39828
	c-10.65387,13.40372-24.55698,28.19742-42.63995,44.54697c-5.33917,4.82758-6.83044,16.34241-6.46579,26.60986
	c-0.26941,7.64276,0.63132,15.37106,1.9566,20.0925c2.28317,8.13531,7.51077,22.65784,19.4382,30.21759l0,0
	c0.01904,0.01224,0.03265,3.28494,0.0517,3.28494h0.00818c-0.00818,0-0.01089-3.26666-0.02179-3.27344
	c0.01089,0.00677,0.01361-1.60205,0.02451-1.59659c0.23129,0.14014,0.48166-0.59964,0.73474-0.59964
	c0.1524,0,0.31024-0.43045,0.46262-0.48486c0.01904-0.00546,0.02179-0.23019,0.03812-0.237
	c0.17416-0.06802,0.26123-0.32599,0.38913-0.44983l0,0c-0.13062,0.12518-0.21771,0.22955-0.38913,0.29761
	c0.03537-0.01227,0.07074-0.0322,0.10339-0.04852c0.14423-0.0694,0.18777-0.23581,0.29663-0.34467
	c0.06802-0.06396,0.1796-0.04852,0.23676-0.12881l2.17157-3.07822c0.85995-0.4953,1.77429-0.94724,2.2587-1.18536l1.19736-0.59949
	c0.70209-0.36191,1.43683-0.69159,2.17703-1.02087c1.92667-0.86264,3.91867-1.75272,5.38815-3.25757
	c2.59613-2.65329,2.56619-5.89444,1.96478-9.0484c0.73746-2.75806,0.01361-5.77328-0.68576-8.53949
	c-0.23404-0.92661-0.44086-1.84097-0.6123-2.74445c0.42725-2.29132,1.33344-4.52689,2.8111-6.54608
	c1.06674-1.45862,3.35263-3.94861,6.67261-4.22345c4.56091-0.332,7.86182,3.26282,9.57898,6.77875
	c1.56201,3.17981,2.4682,6.55557,2.78931,9.96808c-0.32925,3.1322-1.17831,6.22632-2.5553,9.1626
	c-0.27213,0.5769-0.11429,1.26541,0.38098,1.66815c0.28845,0.23813,0.64496,0.29935,1.00418,0.26669
	c-0.38644,1.23138-0.8273,2.45053-1.38516,3.63837c-0.27213,0.5769-0.11429,1.26541,0.38098,1.66815
	c0.48441,0.40274,1.19739,0.42725,1.70898,0.04355c8.71359-6.44131,15.0025-14.51266,18.10748-22.9024
	c0.58237,3.33084,1.54568,6.34879,2.89545,9.15714c3.60846,7.50534,10.22662,13.26633,18.16193,15.80801
	c0.60413,0.18777,1.26813-0.05444,1.61374-0.59326c0.32925-0.54425,0.25308-1.24634-0.18777-1.70624
	c-1.328-1.36746-2.52808-2.79205-3.64655-4.24658c0.74835,0.30887,1.44501,0.72522,2.22058,0.97287
	c0.60413,0.18777,1.26813-0.05444,1.61374-0.59326c0.32925-0.54425,0.25308-1.24634-0.18777-1.70624
	c-7.31485-7.53119-11.39951-16.5033-12.12064-25.61688c0.23947-3.20163,0.8436-6.39096,1.94299-9.50687
	c1.77429,8.28635,7.80466,16.03659,16.43118,20.68185c0.49527,0.26941,1.12115,0.20953,1.55658-0.1633
	c0.43539-0.36737,0.60413-0.96603,0.4245-1.5076c-0.41907-1.25177-0.74292-2.52536-1.03952-3.80301
	c0.22043-0.04761,0.43811-0.1102,0.61502-0.2626c0.43539-0.36737,0.60413-0.96603,0.4245-1.50757
	c-1.11029-3.30911-1.73889-6.72162-1.98108-10.15451c0.05441-0.88034,0.07617-1.7634,0.18774-2.64102
	c1.31168,5.2861,4.34592,10.50555,8.83878,14.36569c5.84262,5.02081,14.48544,7.87,23.03574,7.86728
	c2.50903,0,5.0072-0.24493,7.42914-0.7511c0.58237-0.12244,1.02322-0.60413,1.09396-1.19736
	c0.07074-0.59052-0.23947-1.1647-0.77829-1.42325c-1.4559-0.698-2.8111-1.51437-4.12277-2.3811
	c1.28445-0.12384,2.55801-0.31024,3.8071-0.57147c0.58237-0.12247,1.02322-0.60413,1.09396-1.19739
	c0.07074-0.59052-0.23947-1.1647-0.77829-1.42322c-8.9585-4.29965-15.28824-11.93561-17.36731-20.95398
	c-0.24762-1.07898-0.27756-2.14029-0.39185-3.20975c0.49799-4.44254,2.03281-8.67142,4.83029-12.33701
	c0.11429-0.15784,0.2449-0.32654,0.36465-0.48709c1.97565-2.47232,4.41937-4.73779,7.07535-6.88351
	c0.02451,0.23538,0.08167,0.48575,0.11703,0.72522c-0.50345,3.14172-0.15512,6.72159,1.21915,10.66745
	c1.69263,4.85208,3.89145,8.36526,6.91208,11.05392c3.5159,3.1322,8.16931,4.92007,12.68121,4.92007
	c0.45718,0,0.91437-0.01904,1.36609-0.05713c5.54056-0.45175,10.72736-3.68735,13.86771-8.651
	c2.40836-3.79758,3.15399-7.8591,2.25598-11.4621c0.62589-3.29276,0.20682-6.5202-1.56476-9.21701
	c-3.271-4.9827-10.84164-7.34479-16.52368-5.14868c-0.61502,0.23676-0.97968,0.87082-0.87628,1.52121
	c0.10342,0.65036,0.64767,1.13748,1.30624,1.17014c1.68448,0.08438,3.06143,0.98511,4.01935,2.06546
	c-1.53482,0.0177-3.04785,0.27621-4.44931,0.81641c-0.61502,0.23676-0.97968,0.87079-0.87628,1.52118
	c0.10342,0.65039,0.64767,1.13751,1.30624,1.17017c1.70352,0.08572,3.09683,1.00415,4.05472,2.10083
	c-3.14853,3.24106-6.0712,4.24658-8.93127,2.83289c-3.84521-1.90491-6.63724-7.39105-8.10675-11.7764
	c0.40549-0.28711,0.81094-0.57556,1.21643-0.85858c8.3707-5.83716,17.02441-11.87573,20.2301-20.64645
	c1.2681-3.46149,1.47766-6.89575,1.10211-10.30554c1.1647-9.18298-3.57306-18.18503-8.22647-26.93265
	c-2.04642-3.85062-4.16904-7.83731-5.70383-11.72604c-2.32944-5.90112-3.32816-11.84851-3.55945-17.84897
	c0.48166-10.94504,3.34445-22.10233,6.54471-33.60934c6.87943,7.64685,10.50146,14.77936,11.2226,22.384
	c-0.42996,4.814-1.8559,9.87424-4.46017,15.46783c-0.25583,0.55515-0.12518,1.211,0.32654,1.62189
	c0.26669,0.23676,0.59869,0.35922,0.93613,0.35922c0.0762,0,0.14694-0.04761,0.22043-0.05988
	c-0.47623,1.20963-0.89529,2.39474-1.48309,3.65198C489.53085,320.09106,489.6615,320.74692,490.11322,321.15781z
	 M387.83069,322.34973c-0.03812,0.00275-0.08163,0.00546-0.08163,0.00546s0-0.00137-0.00272-0.00137
	C387.77353,322.35248,387.80347,322.35248,387.83069,322.34973z M57.22617,411.42584
	c-0.1796-0.01767-0.34288,0.06668-0.51432,0.11157c7.88086-15.67465,21.51455-30.90573,34.43525-40.48331
	c1.35793,3.34854,2.6968,7.82098,3.09411,12.77103c-0.34833,4.02615-1.45862,8.21149-3.85336,12.29617
	C84.21051,406.67175,69.93461,413.24911,57.22617,411.42584z M378.40411,350.80902
	c-0.77557-1.20007-1.33615-2.42194-1.94299-3.63837c0.11972,0.04083,0.21771,0.10477,0.33743,0.14423
	c0.54425,0.18234,1.17017-0.00272,1.54025-0.47076c0.35922-0.46808,0.38641-1.11301,0.06531-1.60831
	c-3.75809-5.80588-5.3555-11.84714-5.72287-17.79724c0.42178-6.81277,2.19608-13.36429,4.14996-19.09805
	c2.10086-6.15283,5.21402-13.4704,8.51221-21.21793c3.89145-9.12994,7.89175-18.52383,10.45523-26.61151
	c0.49527,1.28989,1.08307,2.68863,1.72528,4.22345c1.55115,3.6955,3.36624,8.16251,4.83029,13.38467
	c-1.03409,12.74655-5.88342,24.86038-10.62119,36.58643c-0.80823,1.99606-1.60831,3.26419-2.46552,4.02481
	c-0.15237-0.0871-0.26123-0.23404-0.44629-0.25854c-0.15784-0.02448-0.26395,0.07892-0.40546,0.10205
	c-0.0354-0.01086-0.05173-0.04626-0.08981-0.05579c-0.72931-0.19049-1.50217,0.26126-1.69266,1.0069l-0.27213,1.09393
	c-0.11429,0.43814-0.00543,0.90076,0.28845,1.24365c0.04901,0.05713,0.13879,0.04218,0.19324,0.08978
	c-1.57019,10.41577-4.41666,20.49951-8.39792,30.17508C378.63815,351.70163,378.66809,351.21451,378.40411,350.80902z"/>
</svg>
