<?xml version="1.0" encoding="utf-8"?>
<!-- Generator: Adobe Illustrator 19.0.0, SVG Export Plug-In . SVG Version: 6.00 Build 0)  -->
<svg version="1.1" id="Layer_1" xmlns="http://www.w3.org/2000/svg" xmlns:xlink="http://www.w3.org/1999/xlink" x="0px" y="0px"
	 viewBox="0 0 471 697.5" style="enable-background:new 0 0 471 697.5;" xml:space="preserve">
<style type="text/css">
	.st0{fill:#EF7B05;}
	.st1{fill:#FFFFFF;}
</style>
<g id="XMLID_605_">
	<path id="XMLID_950_" class="st0" d="M35.4,154.3c-9.1,94,22.1,118.1,22.1,119.2c0,0.6,0.5,1.1,1.2,1.2c0.7,0.1,1.4-0.4,1.5-1
		c0.2-1.2,0.3-2.4,0.3-3.6c1.9-22.8,8.5-45.1,19.6-66.3c0-0.1,0.1-0.2,0.1-0.3c2.5-14.9,12.1-28,26.8-37.5c0.1-0.1,0.2-0.1,0.3-0.2
		c4.1-2.6,8.7-5,13.6-7c25.8-10.6,56-19.1,80.8-7.7c0.2,0.1,0.4-0.9,0.7-0.9c3.1,0,6,3.8,8.9,2.6c2.6-1.1,5,2.9,7.4,2.8
		c18.2,7.6,42.4,20.7,54.3,40.5c4.1,6.2,9.9,15.9,15.4,27.8c1.6,6.3,3.3,12.6,5.4,18.8c1.9,5.5,4,10.9,6.4,16.3
		c7.6,36.3,1.5,79.6-50.3,111.3c0,0,0,0,0,0c0,0,0,0,0,0c-0.8-0.2-1.5,0.2-1.7,0.8c-0.4,1.2-0.6,2.5-0.8,3.8
		c-12.2,25.6-12.8,55.8-1.2,79.9c9.3,19.4,26,34.2,48.6,43.1l-2.6,0.3c-55.3,11-45.1,54.4-37,89.4l1.3,5.4c1.1,4.6-1.3,8.1-3.4,10.2
		c-4,4-11,6.7-17.3,6.7c-5.3,0-9.8,0-11.8-11.8c-0.1-0.6-0.6-1.1-1.5-1c-0.7,0-1.3,0.6-1.3,1.2c0.2,9.6,7.1,18.1,18,22
		c7.7,2.8,16,2.8,23.3,0.3c-2.8,3.6-4.5,7.9-5.1,12.5c-1,8.3,2.1,16.9,8.3,22.9c0,0,0,0,0.1,0c0,0,0,0,0,0.1
		c7.8,6.2,15.7,9.3,23.6,9.3c4.4,0,8.8-1,13.1-3c0.4-0.2,0.7-0.6,0.7-1L303,658c0-0.4-0.3-0.7-0.7-0.9c-0.4-0.2-0.9-0.2-1.3,0
		c-2.5,1-5.4,1-8.3,0c-3.6-1.2-6.6-3.7-7.9-6.6c-2.2-4.9-0.8-11.1,3.7-16.7c3.2-4,7.5-7.4,11.7-10.7c1.2-0.9,2.3-1.8,3.5-2.8
		c0.7-0.6,1.6-1.2,2.6-1.9c7.1-4.9,20.2-14.1,18.4-35.9c0,0,0,0,0,0c0.1-1.1-0.2-2.9-0.7-5.2c7.5,13.3,8.8,29.2,2.4,42.8
		c-1.6,3.5-3.7,6.9-5.8,10.2c-4.2,6.9-8.6,14.1-9,22c-0.4,7.8,3.5,15.3,10.2,19.5c3.9,2.4,8.6,3.7,13.3,3.7c4.4,0,8.7-1.1,12-3.3
		c3.7-2.4,6-6.3,6.3-10.5c0.2-2.6-0.6-5-1.9-7.1c4.3-1.5,7-5.3,7.8-8.8c0.8-3.3,0.4-6.7-0.1-9.9c-0.1-1-0.3-2-0.4-3
		c-1.1-11.4,0.6-19.8,5.4-27.2c-0.1,1.4-0.2,2.7-0.2,4.1c0.6,11,9.9,21.4,22.5,25.1c3.5,1,7.3,1.5,11,1.5c9.6,0,19.1-3.3,25.6-9.2
		c0.4-0.3,0.4-0.8,0.2-1.2c-0.2-0.4-0.7-0.7-1.2-0.7c-1.3-0.1-3-0.5-4.7-1.1c-0.1,0-0.1-0.1-0.2-0.1c-0.9-0.3-1.7-0.6-2.6-1
		c-2.4-1.2-4.8-2.8-6.7-4.8c-2-2.2-4.2-5.7-3-10.1c0,0,0-0.1,0-0.1c0,0,0-0.1,0-0.1c1.1-22.1,11.1-44,20.7-65.2
		c5-11.1,10.2-22.5,14-33.7c13-38.3,6.9-60.9-18.8-68.9c15.3-12.3,18.9-24.8,20-41.9c0.8-12.5-8.8-22.7-18.1-32.5
		c-7.7-8.2-15-15.9-15-24.1c-1.5-16.1-1.8-32.6-2-48.5c-0.7-42.6-1.5-86.6-25.7-130c-26-43-59.1-91-122.2-114.7
		c-31.9-11.3-67.5-13.3-100.9-6.1c-0.2,0-0.4-0.1-0.5,0c-0.6,0.2-1.2,0.4-1.8,0.6c-0.5,0.1-0.9,0.2-1.4,0.3c-0.5,0.1-1,0.1-1.5,0.1
		c-0.3,0-0.6,0.2-0.8,0.4c-5.3,1.3-10.6,2.9-15.8,4.7C95.6,67.4,84.3,73.6,62,105.9l-1.8,2.5c-4.6,6.6-11.7,16.8-17.4,27.7
		c0,0.1-0.1,0.2-0.1,0.2c0,0,0,0,0,0C39.6,142.3,36.1,151.1,35.4,154.3 M91.3,155.7c0.4-0.3,0.7-0.5,1.1-0.8
		C92,155.2,91.6,155.5,91.3,155.7z M94,173.2c-0.4,0.4-0.8,0.8-1.2,1.2C93.2,174,93.6,173.6,94,173.2z M402.4,607.9
		C402.4,607.9,402.4,608,402.4,607.9C402.4,608,402.4,607.9,402.4,607.9c0.1-1.4,0.2-2.8,0.3-4.2
		C402.6,605.1,402.5,606.5,402.4,607.9z M118.5,108.5c-0.3,0.3-0.6,0.6-0.8,0.9C117.9,109.1,118.2,108.8,118.5,108.5z M117,110.1
		c-0.3,0.3-0.5,0.6-0.8,0.9C116.5,110.7,116.8,110.4,117,110.1z M115.6,111.8c-0.2,0.3-0.5,0.6-0.7,0.9
		C115.1,112.4,115.4,112.1,115.6,111.8z M114.3,113.4c-0.2,0.3-0.5,0.6-0.7,0.9C113.8,114.1,114,113.8,114.3,113.4z M120,107
		c-0.3,0.3-0.6,0.6-0.9,0.9C119.4,107.6,119.7,107.3,120,107z M121.6,105.5c-0.3,0.3-0.7,0.6-1,0.9
		C121,106.1,121.3,105.8,121.6,105.5z M123.7,103.7c-0.5,0.4-1.1,0.9-1.6,1.3C122.7,104.6,123.2,104.1,123.7,103.7z M70.9,173
		c-0.4,0.4-0.8,0.9-1.2,1.3C70.1,173.9,70.5,173.4,70.9,173z M68.3,175.8c-0.4,0.4-0.8,0.9-1.2,1.3
		C67.4,176.7,67.8,176.2,68.3,175.8z M65.7,178.6c-0.4,0.5-0.8,0.9-1.2,1.4C65,179.6,65.3,179.1,65.7,178.6z M63.3,181.5
		c-0.4,0.5-0.7,0.9-1.1,1.4C62.6,182.5,62.9,182,63.3,181.5z M61,184.5c-0.4,0.5-0.7,0.9-1.1,1.4C60.3,185.4,60.7,185,61,184.5z
		 M58.8,187.5c-0.3,0.5-0.7,1-1,1.5C58.2,188.4,58.5,187.9,58.8,187.5z M56.8,190.5c-0.3,0.5-0.6,1-0.9,1.5
		C56.1,191.5,56.5,191,56.8,190.5z M54.8,193.5c-0.3,0.5-0.6,1-0.9,1.5C54.2,194.5,54.5,194,54.8,193.5z M53,196.6
		c-0.3,0.5-0.6,1-0.8,1.5C52.4,197.6,52.7,197.1,53,196.6z M51.3,199.8c-0.3,0.5-0.5,1-0.8,1.5C50.8,200.8,51,200.3,51.3,199.8z
		 M49.7,202.9c-0.2,0.5-0.5,1-0.7,1.5C49.2,204,49.5,203.4,49.7,202.9z M48.2,206.1c-0.2,0.5-0.4,1-0.7,1.6
		C47.8,207.2,48,206.6,48.2,206.1z M46.9,209.3c-0.2,0.5-0.4,1-0.6,1.6C46.5,210.4,46.7,209.9,46.9,209.3z M45.7,212.6
		c-0.2,0.5-0.4,1.1-0.5,1.6C45.3,213.6,45.5,213.1,45.7,212.6z M73.6,170.2c-0.4,0.4-0.9,0.9-1.3,1.3
		C72.8,171.1,73.2,170.7,73.6,170.2z M89,157.3c-0.4,0.3-0.9,0.7-1.3,1C88.1,158,88.5,157.7,89,157.3z M85.7,159.8
		c-0.5,0.4-0.9,0.7-1.4,1.1C84.8,160.5,85.2,160.2,85.7,159.8z M82.5,162.3c-0.5,0.4-0.9,0.8-1.4,1.1
		C81.6,163.1,82.1,162.7,82.5,162.3z M76.5,167.5c-0.4,0.4-0.9,0.8-1.3,1.2C75.6,168.4,76,168,76.5,167.5z M101.2,167.2
		c-0.5,0.3-0.9,0.7-1.4,1C100.2,167.9,100.7,167.5,101.2,167.2z M98.7,169.1c-0.4,0.4-0.9,0.7-1.3,1.1
		C97.8,169.8,98.2,169.5,98.7,169.1z M101.1,149.1c0,0.4,0,0.8,0,1.2C101.1,149.9,101.1,149.5,101.1,149.1z M104,132.5
		c-0.1,0.4-0.2,0.7-0.4,1.1C103.7,133.3,103.8,132.9,104,132.5z M103.3,134.6c-0.1,0.4-0.2,0.7-0.3,1.1
		C103.1,135.3,103.2,135,103.3,134.6z M102.7,136.7c-0.1,0.4-0.2,0.7-0.3,1.1C102.6,137.4,102.6,137,102.7,136.7z M101.8,140.8
		c-0.1,0.4-0.1,0.7-0.2,1.1C101.7,141.5,101.8,141.2,101.8,140.8z M101.5,142.9c0,0.4-0.1,0.8-0.1,1.1
		C101.4,143.6,101.5,143.3,101.5,142.9z M101.3,144.9c0,0.4-0.1,0.8-0.1,1.1C101.2,145.7,101.3,145.3,101.3,144.9z M101.2,147
		c0,0.4,0,0.8,0,1.2C101.1,147.8,101.1,147.4,101.2,147z M113,115.2c-0.2,0.3-0.5,0.6-0.7,0.9C112.5,115.8,112.7,115.5,113,115.2z
		 M111.7,117c-0.2,0.3-0.4,0.6-0.6,1C111.3,117.6,111.5,117.3,111.7,117z M110.5,118.8c-0.2,0.3-0.4,0.7-0.6,1
		C110.1,119.5,110.3,119.1,110.5,118.8z M109.4,120.7c-0.2,0.3-0.4,0.7-0.6,1C109,121.3,109.2,121,109.4,120.7z M107.3,124.5
		c-0.2,0.3-0.3,0.7-0.5,1C107,125.2,107.1,124.9,107.3,124.5z M106.4,126.5c-0.2,0.4-0.3,0.7-0.5,1.1
		C106.1,127.2,106.2,126.8,106.4,126.5z M105.5,128.5c-0.1,0.4-0.3,0.7-0.4,1.1C105.2,129.2,105.4,128.8,105.5,128.5z M104.7,130.5
		c-0.1,0.4-0.3,0.7-0.4,1.1C104.4,131.2,104.6,130.9,104.7,130.5z M402.9,602.5c0.1-1,0.2-2,0.4-3
		C403.1,600.5,403,601.5,402.9,602.5z M59.5,256c0-0.2,0.1-0.3,0.1-0.5 M59.8,254.1c0.1-0.7,0.3-1.5,0.4-2.2
		C60.1,252.7,60,253.4,59.8,254.1z M75.7,206.7c0.5-1.1,1.1-2.1,1.6-3.2c0.1-0.2,0.2-0.5,0.3-0.8c0.1-0.5,0.2-1,0.3-1.5
		c-0.1,0.6-0.3,1.3-0.4,1.9C76.9,204.3,76.3,205.5,75.7,206.7z M60.5,250.4c0.1-0.7,0.3-1.4,0.5-2.2C60.8,249,60.7,249.7,60.5,250.4
		z M61.3,246.8c0.2-0.7,0.3-1.4,0.5-2.2C61.7,245.4,61.5,246.1,61.3,246.8z M62.2,243.2c0.2-0.8,0.4-1.5,0.6-2.3
		C62.6,241.7,62.4,242.4,62.2,243.2z M63.1,239.6c0.2-0.9,0.5-1.7,0.7-2.6C63.6,237.9,63.3,238.7,63.1,239.6z M65.5,231.7
		c0.3-0.9,0.6-1.8,0.9-2.8C66,229.9,65.7,230.8,65.5,231.7z M66.8,227.7c0.3-0.8,0.5-1.5,0.8-2.3C67.3,226.2,67.1,227,66.8,227.7z
		 M68.1,224.1c0.3-0.7,0.5-1.4,0.8-2.1C68.7,222.6,68.4,223.4,68.1,224.1z M69.5,220.5c0.3-0.7,0.6-1.4,0.8-2.1
		C70.1,219.1,69.8,219.8,69.5,220.5z M70.9,217c0.3-0.7,0.6-1.4,0.9-2.1C71.5,215.6,71.2,216.3,70.9,217z M72.4,213.5
		c0.3-0.8,0.7-1.5,1-2.3C73.1,212,72.8,212.8,72.4,213.5z M74,210.1c0.5-1,1-2,1.5-3.1C75,208,74.5,209.1,74,210.1z M79.9,194.3
		c0.3-0.7,0.5-1.4,0.8-2.1C80.4,192.9,80.2,193.6,79.9,194.3z M78.1,200.1c0.2-0.7,0.3-1.3,0.5-1.9
		C78.5,198.8,78.3,199.5,78.1,200.1z M78.8,197.4c0.3-0.9,0.6-1.8,0.9-2.7C79.4,195.6,79.1,196.5,78.8,197.4z M91.9,175.4
		c-0.4,0.4-0.7,0.8-1.1,1.2C91.1,176.2,91.5,175.8,91.9,175.4z M89.9,177.6c-0.4,0.4-0.7,0.8-1,1.2C89.2,178.4,89.5,178,89.9,177.6z
		 M88,179.9c-0.3,0.4-0.6,0.9-1,1.3C87.4,180.7,87.7,180.3,88,179.9z M86.3,182.2c-0.3,0.4-0.6,0.9-0.9,1.3
		C85.7,183.1,86,182.7,86.3,182.2z M84.7,184.6c-0.3,0.5-0.6,0.9-0.8,1.4C84.1,185.5,84.4,185.1,84.7,184.6z M83.2,187.1
		c-0.3,0.5-0.5,1-0.8,1.5C82.7,188.1,83,187.6,83.2,187.1z M81.9,189.6c-0.3,0.5-0.5,1.1-0.8,1.6C81.4,190.7,81.7,190.1,81.9,189.6z
		 M95,172.3c0.4-0.4,0.8-0.7,1.2-1.1C95.9,171.5,95.4,171.9,95,172.3z M101.2,151.1c0,0.4,0.1,0.9,0.1,1.3
		C101.2,152,101.2,151.5,101.2,151.1z M101.3,153.1c0.1,0.6,0.2,1.3,0.3,1.9C101.5,154.4,101.4,153.7,101.3,153.1z M101.6,155.1
		c0.1,0.7,0.2,1.3,0.4,2C101.8,156.4,101.7,155.8,101.6,155.1z M102.1,157.7c0.1,0.4,0.2,0.9,0.3,1.3
		C102.3,158.6,102.2,158.1,102.1,157.7z M102.7,159.7c0.1,0.4,0.2,0.8,0.4,1.2C102.9,160.5,102.8,160.1,102.7,159.7z"/>
	<path id="XMLID_697_" class="st0" d="M35.4,155.3c-9.1,94,22.1,118.1,22.1,119.2c0,0.6,0.5,1.1,1.2,1.2c0.7,0.1,1.4-0.4,1.5-1
		c0.2-1.2,0.3-2.4,0.3-3.6c1.9-22.8,8.5-45.1,19.6-66.3c0-0.1,0.1-0.2,0.1-0.3c2.5-14.9,12.1-28,26.8-37.5c0.1-0.1,0.2-0.1,0.3-0.2
		c4.1-2.6,8.7-5,13.6-7c25.8-10.6,56-20.1,80.8-8.7c0.2,0.1,0.4,0.1,0.7,0.1c3.3,0.3,5.9,1.9,8.9,2.6c3.3,0.8,3.4,1.4,7.4,2.8
		c18.2,7.6,42.4,20.7,54.3,40.5c4.1,6.2,9.9,15.9,15.4,27.8c1.6,6.3,3.3,12.6,5.4,18.8c1.9,5.5,4,10.9,6.4,16.3
		c7.6,36.3,1.5,79.6-50.3,111.3c0,0,0,0,0,0c0,0,0,0,0,0c-0.8-0.2-1.5,0.2-1.7,0.8c-0.4,1.2-0.6,2.5-0.8,3.8
		c-12.2,25.6-12.8,55.8-1.2,79.9c9.3,19.4,26,34.2,48.6,43.1l-2.6,0.3c-55.3,11-45.1,54.4-37,89.4l1.3,5.4c1.1,4.6-1.3,8.1-3.4,10.2
		c-4,4-11,6.7-17.3,6.7c-5.3,0-9.8,0-11.8-11.8c-0.1-0.6-0.6-1.1-1.5-1c-0.7,0-1.3,0.6-1.3,1.2c0.2,9.6,7.1,18.1,18,22
		c7.7,2.8,16,2.8,23.3,0.3c-2.8,3.6-4.5,7.9-5.1,12.5c-1,8.3,2.1,16.9,8.3,22.9c0,0,0,0,0.1,0c0,0,0,0,0,0.1
		c7.8,6.2,15.7,9.3,23.6,9.3c4.4,0,8.8-1,13.1-3c0.4-0.2,0.7-0.6,0.7-1L303,659c0-0.4-0.3-0.7-0.7-0.9c-0.4-0.2-0.9-0.2-1.3,0
		c-2.5,1-5.4,1-8.3,0c-3.6-1.2-6.6-3.7-7.9-6.6c-2.2-4.9-0.8-11.1,3.7-16.7c3.2-4,7.5-7.4,11.7-10.7c1.2-0.9,2.3-1.8,3.5-2.8
		c0.7-0.6,1.6-1.2,2.6-1.9c7.1-4.9,20.2-14.1,18.4-35.9c0,0,0,0,0,0c0.1-1.1-0.2-2.9-0.7-5.2c7.5,13.3,8.8,29.2,2.4,42.8
		c-1.6,3.5-3.7,6.9-5.8,10.2c-4.2,6.9-8.6,14.1-9,22c-0.4,7.8,3.5,15.3,10.2,19.5c3.9,2.4,8.6,3.7,13.3,3.7c4.4,0,8.7-1.1,12-3.3
		c3.7-2.4,6-6.3,6.3-10.5c0.2-2.6-0.6-5-1.9-7.1c4.3-1.5,7-5.3,7.8-8.8c0.8-3.3,0.4-6.7-0.1-9.9c-0.1-1-0.3-2-0.4-3
		c-1.1-11.4,0.6-19.8,5.4-27.2c-0.1,1.4-0.2,2.7-0.2,4.1c0.6,11,9.9,21.4,22.5,25.1c3.5,1,7.3,1.5,11,1.5c9.6,0,19.1-3.3,25.6-9.2
		c0.4-0.3,0.4-0.8,0.2-1.2c-0.2-0.4-0.7-0.7-1.2-0.7c-1.3-0.1-3-0.5-4.7-1.1c-0.1,0-0.1-0.1-0.2-0.1c-0.9-0.3-1.7-0.6-2.6-1
		c-2.4-1.2-4.8-2.8-6.7-4.8c-2-2.2-4.2-5.7-3-10.1c0,0,0-0.1,0-0.1c0,0,0-0.1,0-0.1c1.1-22.1,11.1-44,20.7-65.2
		c5-11.1,10.2-22.5,14-33.7c13-38.3,6.9-60.9-18.8-68.9c15.3-12.3,18.9-24.8,20-41.9c0.8-12.5-8.8-22.7-18.1-32.5
		c-7.7-8.2-15-15.9-15-24.1c-1.5-16.1-1.8-32.6-2-48.5c-0.7-42.6-1.5-86.6-25.7-130c-26-43-59.1-91-122.2-114.7
		c-31.9-11.3-67.5-13.3-100.9-6.1c-0.2,0-0.4-0.1-0.5,0c-0.6,0.2-1.2,0.4-1.8,0.6c-0.5,0.1-0.9,0.2-1.4,0.3c-0.5,0.1-1,0.1-1.5,0.1
		c-0.3,0-0.6,0.2-0.8,0.4c-5.3,1.3-10.6,2.9-15.8,4.7C95.6,68.4,84.3,74.6,62,106.9l-1.8,2.5c-4.6,6.6-11.7,16.8-17.4,27.7
		c0,0.1-0.1,0.2-0.1,0.2c0,0,0,0,0,0C39.6,143.3,36.1,152.1,35.4,155.3 M91.3,156.7c0.4-0.3,0.7-0.5,1.1-0.8
		C92,156.2,91.6,156.5,91.3,156.7z M94,174.2c-0.4,0.4-0.8,0.8-1.2,1.2C93.2,175,93.6,174.6,94,174.2z M402.4,608.9
		C402.4,608.9,402.4,609,402.4,608.9C402.4,609,402.4,608.9,402.4,608.9c0.1-1.4,0.2-2.8,0.3-4.2
		C402.6,606.1,402.5,607.5,402.4,608.9z M117,111.1c-0.3,0.3-0.5,0.6-0.8,0.9C116.5,111.7,116.8,111.4,117,111.1z M115.6,112.8
		c-0.2,0.3-0.5,0.6-0.7,0.9C115.1,113.4,115.4,113.1,115.6,112.8z M114.3,114.4c-0.2,0.3-0.5,0.6-0.7,0.9
		C113.8,115.1,114,114.8,114.3,114.4z M120,108c-0.3,0.3-0.6,0.6-0.9,0.9C119.4,108.6,119.7,108.3,120,108z M121.6,106.5
		c-0.3,0.3-0.7,0.6-1,0.9C121,107.1,121.3,106.8,121.6,106.5z M123.7,104.7c-0.5,0.4-1.1,0.9-1.6,1.3
		C122.7,105.6,123.2,105.1,123.7,104.7z M70.9,174c-0.4,0.4-0.8,0.9-1.2,1.3C70.1,174.9,70.5,174.4,70.9,174z M68.3,176.8
		c-0.4,0.4-0.8,0.9-1.2,1.3C67.4,177.7,67.8,177.2,68.3,176.8z M65.7,179.6c-0.4,0.5-0.8,0.9-1.2,1.4
		C65,180.6,65.3,180.1,65.7,179.6z M63.3,182.5c-0.4,0.5-0.7,0.9-1.1,1.4C62.6,183.5,62.9,183,63.3,182.5z M61,185.5
		c-0.4,0.5-0.7,0.9-1.1,1.4C60.3,186.4,60.7,186,61,185.5z M58.8,188.5c-0.3,0.5-0.7,1-1,1.5C58.2,189.4,58.5,188.9,58.8,188.5z
		 M56.8,191.5c-0.3,0.5-0.6,1-0.9,1.5C56.1,192.5,56.5,192,56.8,191.5z M54.8,194.5c-0.3,0.5-0.6,1-0.9,1.5
		C54.2,195.5,54.5,195,54.8,194.5z M53,197.6c-0.3,0.5-0.6,1-0.8,1.5C52.4,198.6,52.7,198.1,53,197.6z M51.3,200.8
		c-0.3,0.5-0.5,1-0.8,1.5C50.8,201.8,51,201.3,51.3,200.8z M49.7,203.9c-0.2,0.5-0.5,1-0.7,1.5C49.2,205,49.5,204.4,49.7,203.9z
		 M48.2,207.1c-0.2,0.5-0.4,1-0.7,1.6C47.8,208.2,48,207.6,48.2,207.1z M46.9,210.3c-0.2,0.5-0.4,1-0.6,1.6
		C46.5,211.4,46.7,210.9,46.9,210.3z M45.7,213.6c-0.2,0.5-0.4,1.1-0.5,1.6C45.3,214.6,45.5,214.1,45.7,213.6z M73.6,171.2
		c-0.4,0.4-0.9,0.9-1.3,1.3C72.8,172.1,73.2,171.7,73.6,171.2z M89,158.3c-0.4,0.3-0.9,0.7-1.3,1C88.1,159,88.5,158.7,89,158.3z
		 M85.7,160.8c-0.5,0.4-0.9,0.7-1.4,1.1C84.8,161.5,85.2,161.2,85.7,160.8z M82.5,163.3c-0.5,0.4-0.9,0.8-1.4,1.1
		C81.6,164.1,82.1,163.7,82.5,163.3z M76.5,168.5c-0.4,0.4-0.9,0.8-1.3,1.2C75.6,169.4,76,169,76.5,168.5z M101.2,168.2
		c-0.5,0.3-0.9,0.7-1.4,1C100.2,168.9,100.7,168.5,101.2,168.2z M98.7,170.1c-0.4,0.4-0.9,0.7-1.3,1.1
		C97.8,170.8,98.2,170.5,98.7,170.1z M101.1,150.1c0,0.4,0,0.8,0,1.2C101.1,150.9,101.1,150.5,101.1,150.1z M104,133.5
		c-0.1,0.4-0.2,0.7-0.4,1.1C103.7,134.3,103.8,133.9,104,133.5z M103.3,135.6c-0.1,0.4-0.2,0.7-0.3,1.1
		C103.1,136.3,103.2,136,103.3,135.6z M102.7,137.7c-0.1,0.4-0.2,0.7-0.3,1.1C102.6,138.4,102.6,138,102.7,137.7z M101.8,141.8
		c-0.1,0.4-0.1,0.7-0.2,1.1C101.7,142.5,101.8,142.2,101.8,141.8z M101.3,145.9c0,0.4-0.1,0.8-0.1,1.1
		C101.2,146.7,101.3,146.3,101.3,145.9z M101.2,148c0,0.4,0,0.8,0,1.2C101.1,148.8,101.1,148.4,101.2,148z M111.7,118
		c-0.2,0.3-0.4,0.6-0.6,1C111.3,118.6,111.5,118.3,111.7,118z M110.5,119.8c-0.2,0.3-0.4,0.7-0.6,1
		C110.1,120.5,110.3,120.1,110.5,119.8z M109.4,121.7c-0.2,0.3-0.4,0.7-0.6,1C109,122.3,109.2,122,109.4,121.7z M107.3,125.5
		c-0.2,0.3-0.3,0.7-0.5,1C107,126.2,107.1,125.9,107.3,125.5z M106.4,127.5c-0.2,0.4-0.3,0.7-0.5,1.1
		C106.1,128.2,106.2,127.8,106.4,127.5z M104.7,131.5c-0.1,0.4-0.3,0.7-0.4,1.1C104.4,132.2,104.6,131.9,104.7,131.5z M402.9,603.5
		c0.1-1,0.2-2,0.4-3C403.1,601.5,403,602.5,402.9,603.5z M59.5,257c0-0.2,0.1-0.3,0.1-0.5 M59.8,255.1c0.1-0.7,0.3-1.5,0.4-2.2
		C60.1,253.7,60,254.4,59.8,255.1z M75.7,207.7c0.5-1.1,1.1-2.1,1.6-3.2c0.1-0.2,0.2-0.5,0.3-0.8c0.1-0.5,0.2-1,0.3-1.5
		c-0.1,0.6-0.3,1.3-0.4,1.9C76.9,205.3,76.3,206.5,75.7,207.7z M60.5,251.4c0.1-0.7,0.3-1.4,0.5-2.2C60.8,250,60.7,250.7,60.5,251.4
		z M61.3,247.8c0.2-0.7,0.3-1.4,0.5-2.2C61.7,246.4,61.5,247.1,61.3,247.8z M62.2,244.2c0.2-0.8,0.4-1.5,0.6-2.3
		C62.6,242.7,62.4,243.4,62.2,244.2z M63.1,240.6c0.2-0.9,0.5-1.7,0.7-2.6C63.6,238.9,63.3,239.7,63.1,240.6z M65.5,232.7
		c0.3-0.9,0.6-1.8,0.9-2.8C66,230.9,65.7,231.8,65.5,232.7z M66.8,228.7c0.3-0.8,0.5-1.5,0.8-2.3C67.3,227.2,67.1,228,66.8,228.7z
		 M68.1,225.1c0.3-0.7,0.5-1.4,0.8-2.1C68.7,223.6,68.4,224.4,68.1,225.1z M69.5,221.5c0.3-0.7,0.6-1.4,0.8-2.1
		C70.1,220.1,69.8,220.8,69.5,221.5z M70.9,218c0.3-0.7,0.6-1.4,0.9-2.1C71.5,216.6,71.2,217.3,70.9,218z M72.4,214.5
		c0.3-0.8,0.7-1.5,1-2.3C73.1,213,72.8,213.8,72.4,214.5z M74,211.1c0.5-1,1-2,1.5-3.1C75,209,74.5,210.1,74,211.1z M79.9,195.3
		c0.3-0.7,0.5-1.4,0.8-2.1C80.4,193.9,80.2,194.6,79.9,195.3z M78.1,201.1c0.2-0.7,0.3-1.3,0.5-1.9
		C78.5,199.8,78.3,200.5,78.1,201.1z M78.8,198.4c0.3-0.9,0.6-1.8,0.9-2.7C79.4,196.6,79.1,197.5,78.8,198.4z M91.9,176.4
		c-0.4,0.4-0.7,0.8-1.1,1.2C91.1,177.2,91.5,176.8,91.9,176.4z M89.9,178.6c-0.4,0.4-0.7,0.8-1,1.2C89.2,179.4,89.5,179,89.9,178.6z
		 M88,180.9c-0.3,0.4-0.6,0.9-1,1.3C87.4,181.7,87.7,181.3,88,180.9z M86.3,183.2c-0.3,0.4-0.6,0.9-0.9,1.3
		C85.7,184.1,86,183.7,86.3,183.2z M84.7,185.6c-0.3,0.5-0.6,0.9-0.8,1.4C84.1,186.5,84.4,186.1,84.7,185.6z M83.2,188.1
		c-0.3,0.5-0.5,1-0.8,1.5C82.7,189.1,83,188.6,83.2,188.1z M81.9,190.6c-0.3,0.5-0.5,1.1-0.8,1.6C81.4,191.7,81.7,191.1,81.9,190.6z
		 M95,173.3c0.4-0.4,0.8-0.7,1.2-1.1C95.9,172.5,95.4,172.9,95,173.3z M101.3,154.1c0.1,0.6,0.2,1.3,0.3,1.9
		C101.5,155.4,101.4,154.7,101.3,154.1z M102.1,158.7c0.1,0.4,0.2,0.9,0.3,1.3C102.3,159.6,102.2,159.1,102.1,158.7z M102.7,160.7
		c0.1,0.4,0.2,0.8,0.4,1.2C102.9,161.5,102.8,161.1,102.7,160.7z"/>
	<g id="XMLID_694_">
		<path id="XMLID_359_" class="st1" d="M84.1,68.9c0,0-0.3,0.5-0.8,1.6c-0.6,1-1.3,2.5-2.4,4.4c-0.5,0.9-1.1,2-1.7,3.1
			c-0.6,1.2-1.2,2.4-1.9,3.7c-0.7,1.3-1.4,2.8-2.1,4.2c-0.7,1.5-1.5,3.1-2.2,4.8c-0.8,1.7-1.6,3.4-2.4,5.2c-0.8,1.8-1.6,3.7-2.4,5.6
			c-0.4,1-0.8,1.9-1.2,2.9c-0.4,1-0.8,2-1.2,3.1c-0.8,2.1-1.6,4.1-2.4,6.3c-1.5,4.3-3.1,8.8-4.5,13.4c-1.5,4.6-2.7,9.3-4,14
			c-1.1,4.8-2.4,9.5-3.2,14.2c-1,4.7-1.7,9.4-2.5,13.9c-0.3,2.3-0.6,4.5-0.9,6.7c-0.1,1.1-0.3,2.2-0.4,3.2c-0.1,1.1-0.2,2.1-0.3,3.2
			c-0.2,2.1-0.4,4.1-0.6,6.1c-0.2,2-0.3,3.9-0.4,5.7c-0.1,1.8-0.2,3.6-0.3,5.3c-0.1,1.7-0.1,3.3-0.2,4.8c-0.1,1.5-0.1,2.9-0.2,4.2
			c0,1.3,0,2.5,0,3.6c0,2.1,0,3.8,0,5c0,1.2,0,1.8,0,1.8s-0.1-0.6-0.1-1.8c-0.1-1.1-0.3-2.8-0.4-5c-0.1-1.1-0.2-2.3-0.2-3.6
			c0-1.3-0.1-2.7-0.1-4.2c0-1.5-0.1-3.1-0.2-4.8c0-1.7,0-3.5,0.1-5.3c0-1.8,0-3.8,0.1-5.8c0.1-2,0.2-4.1,0.4-6.2
			c0.1-1.1,0.1-2.1,0.2-3.2c0.1-1.1,0.2-2.2,0.3-3.3c0.2-2.2,0.5-4.5,0.7-6.8c0.7-4.6,1.3-9.3,2.3-14.1c0.8-4.8,2.1-9.6,3.2-14.4
			c1.4-4.8,2.6-9.5,4.2-14.1c1.4-4.7,3.2-9.1,4.8-13.5c0.9-2.2,1.7-4.2,2.6-6.3c0.4-1,0.9-2,1.3-3c0.4-1,0.9-2,1.4-2.9
			c0.9-1.9,1.8-3.8,2.6-5.6c0.9-1.8,1.8-3.5,2.7-5.1c0.9-1.6,1.7-3.2,2.5-4.7c0.9-1.5,1.7-2.8,2.4-4.1c0.8-1.3,1.5-2.5,2.1-3.6
			c0.7-1.1,1.3-2.1,1.9-3c1.2-1.8,2.1-3.2,2.7-4.2C83.8,69.4,84.1,68.9,84.1,68.9z"/>
	</g>
	<g id="XMLID_691_">
		<path id="XMLID_357_" class="st1" d="M365.4,636.8c0,0-0.2-0.5-0.6-1.3c-0.4-0.9-0.9-2.2-1.5-3.9c-0.5-1.7-1.1-3.9-1.4-6.4
			c-0.2-1.2-0.3-2.6-0.4-4c0-1.4-0.1-2.9,0-4.5c0.3-6.2,1.8-13.4,4.6-20.6c0.7-1.8,1.5-3.6,2.3-5.4c0.8-1.8,1.7-3.6,2.6-5.4
			c1.8-3.6,3.8-7.2,5.9-10.8c2-3.6,4.1-7.1,6-10.6c1.9-3.5,3.7-7,5.3-10.5c1.5-3.5,2.9-6.9,3.9-10.2c1-3.3,1.8-6.6,2.2-9.6
			c0.5-3,0.7-5.8,0.7-8.3c0-2.5-0.2-4.6-0.5-6.4c-0.3-1.8-0.6-3.1-0.8-4.1c-0.2-0.9-0.4-1.4-0.4-1.4s0.2,0.5,0.5,1.4
			c0.3,0.9,0.7,2.3,1.1,4c0.3,1.8,0.7,3.9,0.8,6.5c0.1,1.3,0.1,2.6,0.1,4c-0.1,1.4-0.1,2.9-0.3,4.4c-0.7,6.2-2.6,13.2-5.7,20.4
			c-1.5,3.5-3.3,7.2-5.2,10.7c-1.9,3.6-3.9,7.1-6,10.7c-2,3.6-4,7.1-5.9,10.7c-0.9,1.8-1.8,3.6-2.7,5.3c-0.8,1.8-1.6,3.6-2.3,5.3
			c-1.4,3.5-2.6,7-3.4,10.4c-0.8,3.4-1.4,6.6-1.6,9.7c-0.3,3-0.3,5.8,0,8.3c0.2,2.5,0.6,4.6,1,6.3c0.5,1.7,0.8,3.1,1.2,4
			C365.2,636.3,365.4,636.8,365.4,636.8z"/>
	</g>
	<g id="XMLID_688_">
		<path id="XMLID_355_" class="st1" d="M393.8,276.4c0,0-0.4,0.6-1.1,1.7c-0.4,0.5-0.8,1.2-1.2,2c-0.5,0.8-0.9,1.8-1.5,2.9
			c-1,2.2-2.1,4.9-2.8,8.2c-0.8,3.3-1.3,7-1.5,11.1c-0.1,4.1,0.2,8.6,0.9,13.2c0.2,1.2,0.4,2.3,0.7,3.5c0.3,1.2,0.5,2.4,0.9,3.6
			c0.6,2.4,1.4,4.8,2.2,7.3c1.6,4.9,3.6,9.8,5.8,14.8c2.2,5,4.5,10,6.8,15.1c2.2,5.1,4.3,10.2,6.1,15.4c1.8,5.2,3.2,10.4,4,15.6
			c0.9,5.2,1.1,10.3,0.8,15.1c-0.4,4.8-1.4,9.3-2.8,13.3c-1.4,4-3.2,7.4-5.2,10.2c-1.9,2.8-4,4.9-5.8,6.6c-0.9,0.8-1.7,1.5-2.5,2
			c-0.8,0.5-1.4,1-2,1.3c-1.1,0.7-1.7,1-1.7,1s0.6-0.4,1.7-1.1c0.6-0.3,1.2-0.8,1.9-1.4c0.8-0.6,1.5-1.3,2.4-2.1
			c1.7-1.7,3.7-3.9,5.5-6.7c1.8-2.8,3.4-6.2,4.7-10.1c1.3-3.9,2.1-8.3,2.4-13c0.1-2.4,0.1-4.8-0.1-7.2c-0.2-2.5-0.5-5-0.9-7.5
			c-0.9-5.1-2.3-10.2-4.1-15.3c-1.8-5.1-3.9-10.2-6.2-15.2c-2.2-5.1-4.5-10.1-6.7-15.1c-2.1-5-4.1-10-5.8-15
			c-0.8-2.5-1.5-4.9-2.1-7.4c-0.3-1.2-0.5-2.4-0.8-3.6c-0.2-1.2-0.4-2.4-0.6-3.6c-0.7-4.8-0.9-9.3-0.6-13.5c0.2-4.2,0.9-8,1.9-11.3
			c0.9-3.3,2.1-6,3.2-8.2c0.6-1.1,1.1-2,1.6-2.8c0.5-0.8,0.9-1.5,1.3-2C393.4,277,393.8,276.4,393.8,276.4z"/>
	</g>
	<g id="XMLID_685_">
		<path id="XMLID_353_" class="st1" d="M259.2,384.9c0,0-0.4,0.9-1.1,2.4c-0.4,0.8-0.8,1.7-1.2,2.8c-0.5,1.1-1,2.3-1.5,3.6
			c-0.5,1.3-1,2.8-1.6,4.4c-0.3,0.8-0.5,1.6-0.8,2.4c-0.2,0.8-0.5,1.7-0.8,2.5c-0.4,1.7-0.9,3.5-1.3,5.4c-0.4,1.8-0.7,3.7-1.1,5.6
			c-0.3,1.9-0.6,3.8-0.7,5.6c-0.2,1.9-0.3,3.7-0.5,5.5c0,0.9-0.1,1.8-0.1,2.6c0,0.9-0.1,1.7,0,2.5c0,1.6,0,3.2,0.1,4.6
			c0,1.4,0.1,2.8,0.2,3.9c0.1,1.2,0.1,2.2,0.3,3c0.2,1.7,0.3,2.6,0.3,2.6s-0.2-0.9-0.7-2.6c-0.2-0.8-0.4-1.8-0.6-3
			c-0.1-0.6-0.2-1.2-0.3-1.9c-0.1-0.7-0.2-1.3-0.3-2.1c-0.1-0.7-0.2-1.5-0.3-2.3c-0.1-0.8-0.1-1.6-0.2-2.4c-0.1-1.7-0.1-3.4-0.1-5.3
			c0.1-1.8,0.1-3.7,0.3-5.6c0.1-1.9,0.4-3.8,0.7-5.8c0.4-1.9,0.7-3.8,1.2-5.7c0.4-1.9,1-3.7,1.5-5.4c0.6-1.7,1.1-3.4,1.8-4.9
			c0.3-0.8,0.6-1.5,0.9-2.2c0.3-0.7,0.7-1.4,1-2.1c0.3-0.7,0.6-1.3,0.9-1.9c0.3-0.6,0.6-1.1,0.9-1.7c0.6-1,1.1-1.9,1.5-2.6
			C258.7,385.7,259.2,384.9,259.2,384.9z"/>
	</g>
	<g id="XMLID_682_">
		<path id="XMLID_351_" class="st1" d="M147.8,66.5c0,0,1.4-0.5,4-1.3c1.3-0.4,2.8-0.9,4.6-1.4c0.9-0.3,1.9-0.5,2.9-0.8
			c1-0.3,2.1-0.5,3.2-0.8c1.1-0.3,2.3-0.6,3.5-0.8c1.2-0.2,2.5-0.5,3.8-0.8c1.3-0.3,2.6-0.5,4-0.7c1.4-0.2,2.8-0.5,4.2-0.7
			c2.9-0.4,5.8-0.8,8.8-1c3-0.3,6.1-0.4,9.1-0.6c3.1-0.1,6.1-0.2,9.2-0.1c3,0,6,0.2,8.9,0.3c2.9,0.2,5.6,0.4,8.3,0.7
			c1.3,0.2,2.6,0.3,3.8,0.5c1.2,0.2,2.4,0.4,3.5,0.5c1.1,0.2,2.2,0.3,3.3,0.5c1,0.2,2,0.4,2.9,0.6c1.8,0.4,3.4,0.7,4.7,1
			c2.6,0.6,4.1,1,4.1,1s-1.5-0.2-4.2-0.6c-1.3-0.2-2.9-0.4-4.8-0.7c-1.8-0.2-3.9-0.5-6.2-0.7c-2.3-0.3-4.7-0.4-7.3-0.7
			c-1.3-0.1-2.6-0.2-4-0.3c-1.4-0.1-2.8-0.1-4.2-0.2c-2.9-0.1-5.8-0.2-8.8-0.1c-3,0-6,0.1-9.1,0.2c-3,0.2-6.1,0.3-9.1,0.6
			c-3,0.2-5.9,0.6-8.7,0.9c-1.4,0.2-2.8,0.4-4.2,0.6c-1.4,0.2-2.7,0.4-4,0.6c-2.6,0.4-5,0.8-7.3,1.2c-1.1,0.2-2.2,0.4-3.2,0.6
			c-1,0.2-2,0.4-2.9,0.6c-1.8,0.4-3.4,0.7-4.7,1C149.3,66.2,147.8,66.5,147.8,66.5z"/>
	</g>
	<g id="XMLID_679_">
		<path id="XMLID_349_" class="st1" d="M218,74.9c0,0,1.5-0.3,4.2-0.7c0.7-0.1,1.4-0.2,2.2-0.3c0.8-0.1,1.7-0.2,2.6-0.3
			c0.9-0.1,1.9-0.2,3-0.3c1.1-0.1,2.2-0.1,3.3-0.2c1.2-0.1,2.4-0.2,3.6-0.2c1.3,0,2.6,0,3.9,0c1.3,0,2.7,0,4.1,0.1
			c1.4,0,2.8,0.1,4.3,0.2c2.9,0.3,5.9,0.4,9,0.9c3.1,0.3,6.1,1,9.2,1.5c3,0.7,6.1,1.3,9,2.2c3,0.7,5.8,1.8,8.6,2.6
			c1.4,0.5,2.7,1,4,1.5c1.3,0.5,2.6,1,3.8,1.5c1.2,0.5,2.4,1,3.6,1.5c1.1,0.5,2.2,1.1,3.3,1.6c1,0.5,2.1,1,3,1.5
			c0.9,0.5,1.8,1,2.6,1.5c0.8,0.5,1.6,0.9,2.3,1.3c0.7,0.4,1.3,0.8,1.9,1.2c2.3,1.4,3.6,2.3,3.6,2.3s-1.4-0.7-3.8-1.9
			c-0.6-0.3-1.3-0.7-2-1c-0.7-0.3-1.5-0.7-2.4-1.1c-0.9-0.4-1.8-0.8-2.7-1.3c-1-0.4-2-0.9-3.1-1.3c-1.1-0.4-2.2-0.9-3.3-1.4
			c-1.2-0.4-2.4-0.9-3.6-1.4c-1.2-0.5-2.5-0.9-3.8-1.4c-1.3-0.4-2.7-0.9-4-1.4c-2.8-0.8-5.6-1.7-8.6-2.4c-2.9-0.8-5.9-1.4-8.9-2.1
			c-3-0.5-6-1.2-9.1-1.5c-3-0.5-6-0.7-8.8-1.1c-1.4-0.1-2.9-0.2-4.2-0.3c-1.4-0.1-2.7-0.2-4.1-0.2c-1.3,0-2.6-0.1-3.9-0.1
			c-1.2,0-2.5,0-3.6,0c-1.2,0-2.3,0-3.3,0c-1.1,0-2.1,0.1-3,0.1c-0.9,0-1.8,0.1-2.6,0.1c-0.8,0-1.6,0.1-2.2,0.2
			C219.5,74.8,218,74.9,218,74.9z"/>
	</g>
	<g id="XMLID_672_">
		<path id="XMLID_327_" class="st1" d="M231.6,136.9c5.2,1.2,10.4,2.5,15.5,4.1c2.6,0.8,5.1,1.6,7.6,2.6c2.5,0.9,5,2,7.4,3.2
			c2.4,1.2,4.8,2.5,7,4c1.1,0.8,2.2,1.5,3.3,2.3l1.6,1.2l1.5,1.4l1.5,1.3l0.7,0.7c0.2,0.2,0.5,0.5,0.7,0.7l2.8,3
			c1.7,2.1,3.4,4.2,4.9,6.4l1.2,1.7c0.4,0.6,0.7,1.1,1.1,1.7c0.7,1.1,1.4,2.3,2.1,3.4l2,3.5c0.6,1.2,1.3,2.4,1.9,3.5
			c1.2,2.4,2.4,4.8,3.6,7.2l3.5,7.2c1.2,2.4,2.3,4.8,3.6,7.1c0.6,1.2,1.2,2.4,1.9,3.5l2,3.5c0.7,1.2,1.4,2.3,2.1,3.4
			c0.4,0.6,0.7,1.1,1.1,1.7l1.1,1.6c1.5,2.2,3.1,4.2,4.8,6.3l0,0v0l0,0.6l0-0.6l0,0l-2.7-2.9c-0.9-1-1.7-2.1-2.5-3.1l-1.2-1.6
			c-0.4-0.5-0.8-1.1-1.2-1.6c-0.8-1.1-1.6-2.2-2.3-3.3l-2.1-3.4c-0.7-1.1-1.3-2.3-2-3.5c-1.3-2.3-2.6-4.7-3.8-7
			c-1.2-2.4-2.5-4.7-3.7-7.1c-1.2-2.4-2.4-4.7-3.7-7.1l-1.9-3.5l-2-3.4c-0.7-1.1-1.4-2.2-2.1-3.4c-0.4-0.6-0.7-1.1-1.1-1.7l-1.1-1.6
			c-1.5-2.2-3.1-4.2-4.8-6.3l-2.6-2.9c-0.2-0.2-0.4-0.5-0.7-0.7l-0.7-0.7l-1.5-1.4l-1.4-1.3l-1.5-1.2c-1-0.8-2.1-1.6-3.2-2.3
			c-2.2-1.5-4.4-2.8-6.8-4.1c-2.3-1.2-4.7-2.4-7.2-3.4c-2.4-1-4.9-2-7.4-2.9C241.8,140.1,236.7,138.6,231.6,136.9z"/>
	</g>
	<g id="XMLID_669_">
		<path id="XMLID_325_" class="st1" d="M281.9,319.3c0,0-0.1,0.7-0.4,1.9c-0.2,1.2-0.7,3-1.4,5.3c-0.7,2.3-1.6,5-2.9,8
			c-0.6,1.5-1.4,3.1-2.1,4.8c-0.8,1.7-1.7,3.4-2.6,5.2c-3.8,7.2-8.9,15.2-14.3,23.7c-5.4,8.5-11,17.8-14.9,27.7
			c-2,4.9-3.6,10.1-4.5,15.2c-0.3,1.3-0.4,2.6-0.6,3.9c-0.1,1.3-0.2,2.6-0.3,3.9c0,1.3-0.1,2.6,0,3.8c0.1,1.3,0.1,2.6,0.2,3.8
			c0.5,4.9,1.5,9.7,2.9,14.1c1.4,4.4,3.1,8.4,4.9,12c1.8,3.6,3.6,6.9,5.3,9.7c1.7,2.8,3.2,5.2,4.5,7.2c1.3,2,2.4,3.5,3.1,4.5
			c0.7,1,1.1,1.6,1.1,1.6s-0.4-0.5-1.2-1.5c-0.8-1-1.9-2.5-3.3-4.4c-1.4-1.9-3-4.3-4.8-7c-1.8-2.7-3.7-5.9-5.6-9.5
			c-1.9-3.6-3.7-7.6-5.3-12.1c-1.5-4.4-2.8-9.2-3.3-14.4c-0.2-1.3-0.2-2.5-0.3-3.8c0-1.3,0-2.6,0-4c0.1-1.3,0.2-2.6,0.3-4
			c0.2-1.3,0.3-2.7,0.6-4c0.9-5.3,2.5-10.6,4.5-15.6c4.1-10.1,9.8-19.4,15.3-27.9c2.8-4.2,5.5-8.3,8-12.2c2.5-3.9,4.8-7.6,6.8-11.1
			c2-3.5,3.7-6.8,5.1-9.8c1.4-3,2.4-5.6,3.2-7.9c0.7-2.2,1.3-4,1.6-5.2C281.8,320,281.9,319.3,281.9,319.3z"/>
	</g>
	<g id="XMLID_654_">
		<path id="XMLID_323_" class="st1" d="M292.2,332.7c0,0,0.3-0.4,0.7-1.1c0.5-0.7,1.2-1.7,2-3c0.4-0.7,0.9-1.4,1.4-2.2
			c0.5-0.8,1-1.7,1.5-2.6c0.5-0.9,1.1-2,1.7-3c0.5-1.1,1.1-2.2,1.7-3.4c1.1-2.4,2.3-5,3.4-7.9c1.1-2.8,2-5.9,3-9
			c0.9-3.2,1.6-6.5,2.2-9.9c0.6-3.4,0.9-6.9,1.1-10.4c0.2-3.6,0.2-7,0-10.5c-0.3-3.4-0.6-6.8-1.1-10.1c-0.6-3.2-1.2-6.4-2-9.3
			c-0.8-2.9-1.7-5.7-2.5-8.2c-0.5-1.2-0.9-2.4-1.4-3.6c-0.5-1.1-0.9-2.2-1.3-3.2c-0.4-1-0.9-1.9-1.3-2.8c-0.4-0.9-0.8-1.6-1.1-2.3
			c-0.7-1.4-1.3-2.5-1.7-3.2c-0.4-0.7-0.6-1.1-0.6-1.1s0.3,0.4,0.7,1c0.5,0.7,1.2,1.7,2.1,3c0.4,0.7,0.9,1.4,1.4,2.2
			c0.5,0.8,1,1.7,1.5,2.7c0.5,1,1,2,1.6,3.1c0.5,1.1,1.1,2.3,1.6,3.5c0.5,1.3,1.1,2.5,1.6,3.9c0.5,1.4,1,2.8,1.5,4.3
			c1,2.9,1.8,6.1,2.4,9.5c0.6,3.3,1.1,6.8,1.4,10.4c0.2,3.5,0.3,7.3,0.1,10.8c-0.2,3.7-0.7,7.2-1.3,10.8c-0.6,3.5-1.5,6.9-2.5,10.2
			c-1,3.2-2.2,6.3-3.4,9.1c-1.2,2.9-2.6,5.4-3.9,7.8c-0.7,1.2-1.3,2.3-2,3.3c-0.7,1-1.3,2-1.9,2.9c-0.6,0.9-1.2,1.7-1.8,2.5
			c-0.6,0.8-1.1,1.4-1.6,2c-1,1.2-1.8,2.1-2.4,2.8C292.5,332.3,292.2,332.7,292.2,332.7z"/>
	</g>
	<g id="XMLID_649_">
		<path id="XMLID_321_" class="st1" d="M381,246.4c0,0-0.3,0.3-0.7,0.7c-0.5,0.5-1.2,1.2-2,2.1c-0.4,0.5-0.9,1-1.4,1.6
			c-0.5,0.6-0.9,1.3-1.5,2c-0.5,0.7-1,1.5-1.5,2.4c-0.5,0.9-1,1.8-1.5,2.7c-0.9,2-1.8,4.1-2.5,6.5c-0.8,2.3-1.3,4.9-1.7,7.5
			c-0.4,2.7-0.6,5.4-0.7,8.2c0,2.8,0.2,5.7,0.5,8.5c0.4,2.9,0.9,5.7,1.6,8.4c0.7,2.7,1.5,5.4,2.4,8c0.9,2.6,1.8,5,2.7,7.3
			c0.9,2.3,1.8,4.5,2.7,6.5c1.8,4,3.2,7.3,4.3,9.6c1,2.3,1.6,3.7,1.6,3.7s-0.7-1.3-2-3.5c-1.2-2.2-3-5.4-5-9.3
			c-2-3.9-4.1-8.6-6-13.7c-0.9-2.6-1.8-5.3-2.6-8.1c-0.7-2.8-1.3-5.8-1.7-8.6c-0.4-3-0.5-5.9-0.5-8.8c0.1-2.9,0.4-5.8,0.9-8.5
			c0.5-2.7,1.2-5.3,2.1-7.7c0.8-2.4,1.9-4.6,2.9-6.5c0.6-1,1.1-1.9,1.7-2.7c0.6-0.8,1.2-1.6,1.7-2.3c0.6-0.7,1.1-1.3,1.6-1.9
			c0.5-0.6,1.1-1.1,1.5-1.5c0.9-0.9,1.7-1.5,2.2-1.9C380.7,246.6,381,246.4,381,246.4z"/>
	</g>
	<g id="XMLID_614_">
		<path id="XMLID_319_" class="st1" d="M250.5,660.6c0,0-0.3-0.4-1-1.1c-0.6-0.8-1.5-1.9-2.2-3.6c-0.7-1.7-1.3-3.8-1.5-6.4
			c-0.2-2.5,0.1-5.4,0.9-8.5c0.4-1.5,1-3,1.8-4.6c0.7-1.5,1.7-3,2.7-4.5c2-3,4.5-5.8,7.3-8.5c2.7-2.8,5.6-5.5,8.5-8.3
			c2.8-2.8,5.6-5.8,8.2-8.9c5.3-6.2,9.8-13,13-19.9c1.6-3.5,2.8-6.9,3.7-10.3c0.9-3.4,1.4-6.6,1.6-9.7c0.2-3,0.1-5.8-0.1-8.3
			c-0.2-2.5-0.7-4.6-1.1-6.3c-0.5-1.7-0.9-3.1-1.2-4c-0.3-0.9-0.5-1.4-0.5-1.4s0.2,0.5,0.6,1.3c0.4,0.9,0.9,2.2,1.5,3.9
			c0.5,1.7,1.1,3.8,1.5,6.3c0.4,2.5,0.6,5.3,0.5,8.4c-0.1,3.1-0.5,6.5-1.3,9.9c-0.8,3.5-1.9,7.1-3.5,10.6c-1.6,3.6-3.4,7.1-5.7,10.5
			c-2.2,3.4-4.7,6.7-7.4,9.9c-2.7,3.1-5.5,6.1-8.4,9c-2.9,2.9-5.9,5.5-8.6,8.2c-2.7,2.7-5.3,5.3-7.3,8.2c-1,1.4-1.9,2.8-2.7,4.3
			c-0.7,1.4-1.4,2.9-1.8,4.3c-0.9,2.9-1.3,5.6-1.3,8.1c0,2.5,0.5,4.6,1.1,6.2c0.3,0.8,0.7,1.5,1,2.2c0.3,0.6,0.7,1.1,0.9,1.5
			C250.2,660.1,250.5,660.6,250.5,660.6z"/>
	</g>
	<g id="XMLID_607_">
		<path id="XMLID_317_" class="st1" d="M308.2,592.9c0,0-0.1,0.5-0.2,1.2c-0.1,0.4-0.2,0.9-0.3,1.4c-0.1,0.5-0.3,1.2-0.6,1.8
			c-0.2,0.7-0.5,1.3-0.9,2.1c-0.3,0.7-0.7,1.5-1.2,2.2c-0.5,0.7-0.9,1.5-1.5,2.2c-0.5,0.7-1.2,1.4-1.8,2.1c-0.7,0.7-1.3,1.3-2,1.9
			c-0.7,0.6-1.4,1.1-2.1,1.7c-0.7,0.5-1.4,1-2.1,1.3c-0.7,0.4-1.4,0.7-2,1c-0.3,0.1-0.6,0.3-0.9,0.4c-0.3,0.1-0.6,0.2-0.8,0.3
			c-0.5,0.2-1,0.4-1.4,0.5c-0.8,0.2-1.2,0.3-1.2,0.3s0.4-0.2,1.2-0.5c0.4-0.1,0.8-0.4,1.3-0.6c0.5-0.2,1-0.5,1.6-0.9
			c0.6-0.3,1.2-0.7,1.9-1.1c0.7-0.4,1.3-0.9,2-1.4c0.7-0.5,1.3-1.1,2-1.7c0.7-0.6,1.3-1.2,1.9-1.9c0.6-0.7,1.2-1.3,1.7-2.1
			c0.6-0.7,1-1.4,1.5-2.1c0.4-0.7,0.9-1.4,1.3-2.1c0.4-0.7,0.7-1.3,1-2c0.3-0.6,0.5-1.2,0.7-1.7c0.2-0.5,0.4-1,0.5-1.3
			C308,593.3,308.2,592.9,308.2,592.9z"/>
	</g>
</g>
</svg>
