<?xml version="1.0" encoding="utf-8"?>
<!-- Generator: Adobe Illustrator 19.0.0, SVG Export Plug-In . SVG Version: 6.00 Build 0)  -->
<svg version="1.1" id="Layer_1" xmlns="http://www.w3.org/2000/svg" xmlns:xlink="http://www.w3.org/1999/xlink" x="0px" y="0px"
	 viewBox="0 0 577.5 598.5" style="enable-background:new 0 0 577.5 598.5;" xml:space="preserve">
<style type="text/css">
	.st0{fill:#EF7B05;}
	.st1{fill:#FFFFFF;}
</style>
<g id="XMLID_427_">
	<path id="XMLID_1472_" class="st0" d="M538.5,242.4c0.7-11.2-3.1-23.1-14-35c-8.3-9-20.8-14.9-33.4-15.8c-4.6-0.3-8.7,0.1-11.5,1.2
		c-0.2-0.2-0.6-0.4-0.8-0.6c-1.9-2-3.1-4.2-3.7-6.4c0.3-1.4,1-2.7,1.9-3.9c3.9-4.8,13.1-7.2,20-5.3c3.3,0.9,5.8,3,7,5.5
		c-0.4,0.7-0.9,1.4-1.6,2c-0.5,0.4-0.6,1-0.2,1.5c0.4,0.5,1.1,0.7,1.9,0.5c0.1,0,0.2-0.1,0.3-0.1c-0.3,1.1-1,2.1-2,3
		c-0.5,0.4-0.6,1-0.2,1.5c0.4,0.5,1.1,0.7,1.9,0.5c3-0.6,5.3-2,6.7-4c1.8-2.5,2-5.5,1.4-8.2c0.6-2.8,0.1-5.7-1-7.9
		c-3.5-7.3-10.6-12.4-19-13.7c-12.1-1.9-23.6,4.4-28.3,11.2c-1.2,1.8-2.1,3.7-2.8,5.6c0.1-2.3,0.1-4.6,0-6.9
		c0.5-24.9-6.9-51.9-29.7-78c-36.8-42.1-85.2-58-172.9-56.8c-25.4,0.3-64.7,10.7-76.4,26.5c0-0.1,0.1-0.3,0-0.4
		c-0.4-0.6-1.4-0.9-2.2-0.6c-32,10.3-58.9,28.5-74,50.1c-14.9,21.3-20.9,47.2-20.4,72.1c-0.4,32.3,10.4,63.4,28.1,80.7
		c0,0,0,0.1,0,0.1c0.1,0.1,8.4,10.9,13,14.8c0.8,4.4,1.7,9,2.6,13.7c1.2,6.5,2.4,12.9,3.5,18.6c0,0.1-0.1,0.1-0.1,0.2
		c2.2,10.7,4.7,22.9,12.9,33c1.2,1.4,2.5,2.8,3.8,4.1c0,0.2,0.1,0.5,0.1,0.7c-0.3,0.2-0.5,0.5-0.5,0.9c0.3,1.4,0.4,2.8,0.5,4.3
		c-1.6,25.1-28.2,47.7-56.9,58.3l0,0l0,0c-2.3,0.1-4.5,0.2-6.8,0.5c-15.5,1.7-27.9,5.9-35.7,12.1c-6.4,5.2-9.3,11.9-8.4,18
		c-0.6,3.4,0,6.8,1.6,9.9c-3.5,2-6.4,4.7-8.3,8c-1.9,3.3-2.4,6.7-1.8,9.9c-0.8,4.1,0.2,8.2,3.1,11.6c6.1,6.9,19.1,11.1,35.5,11.4
		c5.1,0.1,10.3-0.1,15.2-0.3c3.6-0.1,7.2-0.2,10.8-0.3c13.2,0.9,29.8,7.3,34.7,14.4c1.5,2.1,2.4,4.4,2.8,6.7
		c-0.8,5.5-4.2,10.8-10.2,14.5c-8.9,5.5-22.5,6.9-33.5,3.8c-1.7-0.6-3.3-1.2-4.9-1.8c-0.8-0.3-1.8-0.1-2.2,0.5
		c-0.4,0.6-0.2,1.3,0.6,1.6c1.6,0.7,3.4,1.4,5.2,1.9c4.6,1.6,9.7,3.1,15,4.3c-4.6,0.1-9.3-0.4-13.6-1.6c-1.7-0.6-3.3-1.2-4.9-1.8
		c-0.8-0.3-1.8-0.1-2.2,0.5c-0.4,0.6-0.2,1.3,0.6,1.6c1.6,0.7,3.4,1.4,5.2,1.9c7.6,2.6,16.2,5.1,25.4,5.9c2.1,0.2,4.2,0.3,6.3,0.3
		c9.8,0,18.7-2.1,25-6c4.5-2.8,8.1-8,9.6-13.3c0.1,0.8,0.1,1.6,0.2,2.4c-1.3,12.7-11.9,24.9-28.1,31.1c-1.5,0.3-3.1,0.5-4.6,0.7
		c-0.9,0.1-1.5,0.7-1.4,1.4c0.1,0.6,0.8,1,1.6,1c0.1,0,0.2,0,0.3,0c0.6-0.1,1.2-0.2,1.8-0.3c0.3,0.2,0.6,0.3,1,0.3
		c0.2,0,0.5,0,0.7-0.1c0.7-0.2,1.3-0.5,2-0.8c2.4-0.4,4.7-1,7-1.6c-2.6,1.6-5.4,3-8.5,4.2c-1.5,0.3-3.1,0.5-4.6,0.7
		c-0.9,0.1-1.5,0.7-1.4,1.4c0.1,0.6,0.8,1,1.6,1c0.1,0,0.2,0,0.3,0c0.6-0.1,1.2-0.2,1.8-0.3c0.3,0.2,0.6,0.3,1,0.3
		c0.2,0,0.5,0,0.7-0.1c0.7-0.2,1.3-0.5,2-0.8c29.8-5.5,54.3-25.1,58.2-47.3c0.6-3.1,0.6-6.3,0.4-9.5c0.4-7.4-1.3-14.9-4.8-22
		c2.8-5.7,4-11.8,3.6-17.9c1-13.6-5.9-27.7-19.4-38.3c14.8-15.3,24.2-33.1,27.1-51.7c0.1-0.4-0.1-0.7-0.5-1
		c-0.1-0.1-0.2-0.1-0.3-0.2c0.2-1.2,0.6-2.4,0.7-3.7c0.1-0.4-0.1-0.7-0.5-1c-4.5-3.3-8.8-6.4-13.1-9.6c-4.4-3.2-8.8-6.5-13.4-9.8
		c-7.2-5.3-14.4-10.7-19.7-17.2c-7-8.7-9.5-19.1-11.5-28.8v0c-3-6.5-2.9-14.3-4.4-22.1c-0.8-4.2-3.4-8.3-4.1-12.3
		c-0.2,0.1-2.5,0.1-2.5,0.2c0,0,0,0,0,0c0-0.1,2.2-0.1,2.4-0.2c0.1-0.1,1.1-0.1,1.2-0.2c0.4-0.3,0.9-0.8,0.7-1.2
		c-0.8-1.4-1.2-3.3-1.6-5.4c-0.2-0.8-0.2-1.6-0.3-2.4c-0.3-2.3-0.5-4.8-0.6-7.5c0.4-18.4,5.1-42.3,7.1-52.4
		c6.2-31.2,28.9-50.5,43-59.7c0.8,1.3,1.7,2.6,2.6,3.9c19,25.7,60.6,38.4,92.1,44.5c17,3.3,34.7,5.6,51.7,7.8
		c20.1,2.6,40.9,5.3,60.6,9.7c13.6,3,45.4,11.9,47.6,29.6c0,0.1,0.1,0.2,0.2,0.3c0.1,0.1,0.1,0.2,0.2,0.3c0.2,0.2,0.4,0.3,0.7,0.4
		c0.1,0,0.1,0.1,0.2,0.1c0.1,0,0.1-1.9,0.2-1.9c0.1,0,0.1-1.9,0.2-1.9h0.1c0.3,0,0.5,1.8,0.8,1.7c0,0,0.1,1,0.1,0.9
		c0.2-0.1,0.3,0.2,0.4,0.1c0.1-0.1,0.2,0.1,0.2,0c0-0.1,0-0.1,0.1-0.2c0.2-0.3,1.3-0.8,2.2-1.2c1.7-0.9,3.9-2.1,5.7-3.8
		c3,5.2,4.8,10.8,5.4,16.5c-0.6,10.6-4.1,19.7-11.3,29.8c0,0,0,0,0,0c0,0,0,0,0,0l-1.6,2.7c-1,1.6-1.5,3.3-1.6,5.1c0,0,0,0.1,0,0.1
		c0,0.4,0,0.7,0,1.1c0,0.3,0,0.5,0,0.8c-0.4,5.3-5,10.5-11.4,12.6c0,0,0,0-0.1,0.1c-0.1,0-0.1,0-0.2,0.1c-0.1,0.1-0.2,0.2-0.3,0.3
		l0,0c0.1-0.1,0.2-0.2,0.3-0.3c-0.2,0.1-0.2,0.2-0.3,0.3c-0.1,0.1-0.3,0.2-0.3,0.3c0,0,0,0-0.1,0.1c0,0,0,0,0,0.1c0,0,0,0,0,0.1
		c-2.2,10.5-4.6,22.4-12.5,32.2c-5.2,6.5-12.7,11.9-19.9,17.2c-4.5,3.3-8.8,6.4-13.1,9.6c-4.4,3.2-8.8,6.5-13.4,9.8
		c-0.4,0.3-0.5,0.6-0.5,1c0.2,1.2,0.5,2.5,0.7,3.7c-0.1,0.1-0.2,0.1-0.3,0.2c-0.4,0.3-0.5,0.6-0.5,1c2.9,18.7,12.3,36.4,27.1,51.7
		c-13.4,10.6-20.4,24.8-19.4,38.3c-0.4,6.1,0.7,12.2,3.6,17.9c-3.5,7.1-5.2,14.6-4.8,22c-0.2,3.2-0.2,6.3,0.4,9.5
		c3.9,22.1,28.5,41.8,58.3,47.3c0.7,0.3,1.3,0.5,2,0.8c0.2,0.1,0.5,0.1,0.7,0.1c0.4,0,0.7-0.1,1-0.3c0.6,0.1,1.2,0.2,1.8,0.3
		c0.1,0,0.2,0,0.3,0c0.8,0,1.5-0.4,1.6-1c0.2-0.7-0.5-1.3-1.4-1.4c-1.6-0.2-3.1-0.5-4.6-0.7c-3.1-1.2-5.9-2.7-8.5-4.2
		c2.3,0.6,4.6,1.2,7,1.6c0.7,0.3,1.3,0.5,2,0.8c0.2,0.1,0.5,0.1,0.7,0.1c0.4,0,0.7-0.1,1-0.3c0.6,0.1,1.2,0.2,1.8,0.3
		c0.1,0,0.2,0,0.3,0c0.8,0,1.5-0.4,1.6-1c0.2-0.7-0.5-1.3-1.4-1.4c-1.6-0.2-3.1-0.5-4.6-0.7c-16.2-6.3-26.8-18.4-28.1-31.1
		c0.1-0.8,0-1.6,0.2-2.4c1.4,5.3,5,10.5,9.6,13.3c6.4,3.9,15.3,6,25,6c2.1,0,4.1-0.1,6.3-0.3c9.2-0.8,17.8-3.3,25.4-5.9
		c1.8-0.5,3.5-1.1,5.2-1.9c0.8-0.3,1-1.1,0.6-1.6c-0.4-0.6-1.4-0.8-2.2-0.5c-1.6,0.6-3.2,1.2-4.9,1.8c-4.3,1.2-8.9,1.7-13.6,1.6
		c5.3-1.1,10.3-2.6,15-4.3c1.8-0.5,3.5-1.1,5.2-1.9c0.8-0.3,1-1.1,0.6-1.6c-0.4-0.6-1.4-0.8-2.2-0.5c-1.6,0.6-3.2,1.2-4.9,1.8
		c-11,3.1-24.6,1.7-33.5-3.8c-6-3.7-9.4-9-10.2-14.5c0.4-2.3,1.3-4.6,2.8-6.7c5-7.1,21.5-13.6,34.7-14.4c3.6,0,7.3,0.1,10.8,0.3
		c5,0.2,10.1,0.4,15.2,0.3c16.4-0.3,29.4-4.5,35.5-11.4c2.9-3.3,3.9-7.4,3.1-11.6c0.6-3.2,0.1-6.6-1.8-9.9c-1.9-3.3-4.8-6-8.3-8
		c1.7-3,2.2-6.4,1.7-9.9c0.9-6.1-1.9-12.9-8.4-18c-7.8-6.2-20.1-10.4-35.7-12.1c-2.3-0.2-4.5-0.3-6.8-0.5
		c-28.6-10.6-55.3-33.3-56.9-58.3c0.1-1.4,0.2-2.8,0.5-4.3c0.1-0.3-0.2-0.6-0.5-0.8c0-0.2,0.1-0.5,0.1-0.7c1.3-1.3,2.6-2.7,3.8-4.1
		c7.8-9.7,10.4-21.2,12.6-31.6c12.1,3.1,17.6,8.2,19.9,12c1,1.5,1.5,3.1,1.8,4.8c-0.3,1.4-0.8,2.8-1.6,4.1c-1.3,2-3.6,4.7-7.5,6.1
		c-3.5,1.3-7.8,1-10.2-0.5c-0.2-0.1-0.3-0.3-0.4-0.5c0.3-0.3,0.4-0.6,0.7-0.9c0.5-0.5,0.5-1.2-0.1-1.6c-0.5-0.4-1.3-0.4-2-0.2
		c0-0.1-0.1-0.2-0.1-0.3c0,0,0-0.1,0-0.1c0.5-1,1.3-1.9,2.1-2.7c0.5-0.5,0.5-1.2-0.1-1.6c-0.6-0.4-1.5-0.5-2.2-0.1
		c-1.7,0.9-2.8,2.3-3.1,3.8c-1.2,2.4-1.6,5.1-1,7.8c-0.4,1.9-0.4,3.9,0.2,5.9c1.4,4.6,5.3,8.6,10.6,11c-2.2,3.6-3.4,7.8-3.4,12.3
		c0,0.9,0.1,1.9,0.2,2.8c-0.1,0.7-0.2,1.4-0.2,2.1c0,9.4,5.1,17.7,13.7,22.1c8.3,4.3,19.9,6.4,31.4,6.4c11.7,0,23.3-2.2,31.1-6.6
		c13.6-7.7,19.9-17.9,19.1-30.4c0.6-6.5-0.8-13.8-4.5-21.7c-4.6-9.9-14.7-18.7-28.4-25.3c10.8-2.9,16.4-8.5,18.6-11.5
		c3.3-4.4,4.5-9.4,3.7-13.3c0.3-1.9,0.3-3.8-0.1-5.4c0.2-0.2,0.5-0.3,0.7-0.5C528.4,276.9,539.6,260.5,538.5,242.4z M181.5,60.2
		L181.5,60.2c0-0.1,0.1-0.1,0.1-0.1l0,0C181.6,60.1,181.5,60.1,181.5,60.2L181.5,60.2C181.5,60.2,181.5,60.2,181.5,60.2
		C181.5,60.2,181.5,60.2,181.5,60.2z M425.4,304.8c0.6,0.1,1,0.3,1.6,0.5c-0.6,0.3-1.2,0.7-1.9,1
		C425.2,305.7,425.3,305.3,425.4,304.8z M181.6,60L181.6,60c0.2-0.3,0.5-0.6,0.7-0.9C182.1,59.4,181.8,59.7,181.6,60z M181.6,60
		L181.6,60c-0.1,0-0.1-0.1-0.2-0.1C181.5,60,181.5,60,181.6,60z M149.9,340.9c-0.1,0.1-0.2,0.1-0.3,0.2c-0.3-0.4-0.7-0.8-1.1-1.1
		c-0.6-0.8-1.2-1.6-1.7-2.4C147.8,338.7,148.8,339.9,149.9,340.9z M408.9,341.1c-0.1-0.1-0.2-0.1-0.3-0.2c1.1-1,2-2.1,3-3.2
		c-0.5,0.8-1,1.5-1.6,2.3C409.6,340.4,409.2,340.7,408.9,341.1z"/>
	<g id="XMLID_1469_">
		<path id="XMLID_527_" class="st1" d="M140.2,185.1c0,0-0.9,1.9-2.6,5.2c-0.4,0.8-0.9,1.7-1.3,2.7c-0.4,1-0.9,2.1-1.4,3.3
			c-0.5,1.2-1.1,2.4-1.7,3.7c-0.5,1.3-1.1,2.7-1.7,4.2c-0.6,1.5-1.2,3-1.8,4.5c-0.5,1.6-1.1,3.2-1.7,4.9c-0.3,0.8-0.6,1.7-0.9,2.6
			c-0.3,0.9-0.5,1.8-0.8,2.7c-0.5,1.8-1.1,3.6-1.6,5.5c-0.9,3.8-1.9,7.7-2.6,11.7c-0.9,4-1.4,8.1-2,12.2c-0.4,4.1-1,8.3-1.1,12.3
			c-0.3,4.1-0.3,8.1-0.3,12c0,1.9,0.1,3.9,0.2,5.7c0,0.9,0.1,1.9,0.1,2.8c0,0.9,0.1,1.8,0.2,2.7c0.1,1.8,0.3,3.5,0.4,5.2
			c0.1,1.7,0.4,3.3,0.6,4.8c0.2,1.6,0.4,3,0.6,4.5c0.2,1.4,0.5,2.7,0.7,4c0.2,1.3,0.4,2.4,0.6,3.5c0.2,1.1,0.4,2.1,0.6,3
			c0.8,3.6,1.2,5.6,1.2,5.6s-0.6-2-1.8-5.5c-0.3-0.9-0.6-1.8-0.9-2.9c-0.3-1.1-0.6-2.2-0.9-3.5c-0.3-1.2-0.6-2.6-1-4
			c-0.3-1.4-0.6-2.9-0.9-4.5c-0.3-1.6-0.6-3.2-0.9-4.9c-0.2-1.7-0.4-3.4-0.7-5.2c-0.1-0.9-0.2-1.8-0.3-2.7c-0.1-0.9-0.1-1.9-0.2-2.8
			c-0.1-1.9-0.3-3.8-0.4-5.8c0-4-0.2-8.1,0.1-12.2c0.1-4.2,0.6-8.4,1-12.6c0.7-4.2,1.2-8.4,2.1-12.4c0.7-4.1,1.9-8,2.9-11.8
			c0.6-1.9,1.2-3.7,1.8-5.5c0.3-0.9,0.6-1.8,0.9-2.7c0.3-0.9,0.7-1.7,1-2.6c0.7-1.7,1.3-3.3,1.9-4.9c0.6-1.6,1.4-3.1,2-4.5
			c0.7-1.4,1.3-2.8,1.9-4.1c0.7-1.3,1.3-2.5,1.9-3.6c0.6-1.1,1.2-2.2,1.7-3.2c0.5-1,1.1-1.8,1.6-2.6
			C139.1,186.9,140.2,185.1,140.2,185.1z"/>
	</g>
	<g id="XMLID_1466_">
		<path id="XMLID_525_" class="st1" d="M367.8,494.7c0,0-0.1-0.2-0.2-0.6c-0.1-0.2-0.1-0.4-0.2-0.7c-0.1-0.3-0.1-0.7-0.1-1
			c0-0.8,0.1-1.8,0.5-2.8c0.4-1.1,1-2.2,1.8-3.2c0.8-1.1,1.8-2.2,3-3.2c0.6-0.5,1.2-1,1.9-1.5c0.6-0.5,1.3-0.9,2-1.4
			c1.4-0.9,2.8-1.8,4.4-2.6c1.5-0.8,3.1-1.6,4.7-2.3c1.6-0.7,3.3-1.3,4.9-1.8c1.6-0.6,3.3-0.9,4.9-1.3c0.8-0.2,1.6-0.4,2.4-0.5
			c0.8-0.1,1.5-0.2,2.3-0.3c1.5-0.2,2.9-0.3,4.2-0.4c1.3-0.1,2.5,0,3.6,0c1.1,0,2,0.1,2.7,0.2c1.5,0.2,2.4,0.3,2.4,0.3
			s-0.9,0.1-2.4,0.3c-0.7,0.1-1.6,0.2-2.7,0.4c-1,0.2-2.2,0.4-3.4,0.6c-1.3,0.2-2.6,0.6-4,0.9c-1.4,0.4-2.9,0.7-4.4,1.2
			c-1.5,0.4-3.1,1-4.6,1.5c-1.6,0.5-3.1,1.2-4.7,1.8c-1.6,0.6-3.1,1.3-4.6,2.1c-1.5,0.8-2.9,1.5-4.3,2.3c-0.7,0.4-1.4,0.8-2,1.2
			c-0.7,0.4-1.3,0.8-1.9,1.2c-1.2,0.8-2.2,1.6-3.1,2.5c-0.9,0.9-1.6,1.7-2.1,2.6c-0.5,0.9-0.8,1.7-0.9,2.4c-0.1,0.7-0.2,1.3-0.1,1.7
			C367.8,494.5,367.8,494.7,367.8,494.7z"/>
	</g>
	<g id="XMLID_1389_">
		<path id="XMLID_523_" class="st1" d="M194,500.3c0,0,0-0.2-0.1-0.7c0-0.2-0.1-0.5-0.1-0.8c-0.1-0.3-0.1-0.7-0.2-1
			c-0.2-0.8-0.5-1.7-0.9-2.7c-0.5-1-1.1-2.1-1.9-3.1c-1.6-2.2-3.9-4.3-6.6-6.2c-1.4-1-2.9-1.8-4.4-2.6c-1.6-0.9-3.2-1.6-4.9-2.3
			c-1.7-0.7-3.4-1.4-5-1.9c-1.7-0.5-3.4-1.1-5-1.5c-3.3-0.9-6.4-1.5-9.1-2c-1.4-0.2-2.6-0.4-3.7-0.6c-1.1-0.2-2.1-0.3-2.9-0.4
			c-1.6-0.2-2.5-0.4-2.5-0.4s0.2,0,0.7-0.1c0.4,0,1.1-0.1,1.9-0.2c0.8,0,1.8-0.1,2.9-0.1c1.1,0,2.4,0,3.8,0c1.4,0.1,2.9,0.2,4.5,0.4
			c1.6,0.2,3.3,0.4,5,0.8c0.9,0.2,1.7,0.4,2.6,0.6c0.9,0.2,1.8,0.5,2.7,0.7c1.8,0.5,3.6,1.2,5.3,1.9c1.7,0.7,3.5,1.6,5.1,2.5
			c1.7,0.9,3.2,2,4.6,3.1c1.4,1.1,2.7,2.3,3.8,3.6c1.1,1.2,2,2.5,2.7,3.8c0.4,0.6,0.6,1.3,0.9,1.9c0.2,0.6,0.4,1.2,0.6,1.8
			c0.3,1.1,0.4,2.2,0.4,3c0,0.4,0,0.8,0,1.1c0,0.3-0.1,0.6-0.1,0.8C194,500,194,500.3,194,500.3z"/>
	</g>
	<g id="XMLID_1381_">
		<path id="XMLID_521_" class="st1" d="M81.8,409.2c0,0,0.6-0.1,1.6-0.2c0.5-0.1,1.1-0.1,1.8-0.2c0.7-0.1,1.5-0.1,2.4-0.1
			c1.8-0.1,3.8,0,6,0.2c1.1,0.1,2.2,0.2,3.4,0.4c1.1,0.2,2.3,0.4,3.4,0.6c1.1,0.3,2.3,0.5,3.4,0.8c1.1,0.3,2.2,0.6,3.2,1
			c2.1,0.7,4,1.5,5.6,2.3c0.8,0.4,1.5,0.7,2.1,1.1c0.6,0.3,1.2,0.6,1.6,0.9c0.9,0.5,1.4,0.9,1.4,0.9s-0.6-0.1-1.6-0.3
			c-1-0.2-2.4-0.5-4.1-0.9c-1.7-0.4-3.6-0.8-5.7-1.3c-2.1-0.5-4.3-1-6.5-1.5c-2.2-0.5-4.5-0.9-6.6-1.3c-2.1-0.4-4.1-0.8-5.8-1.1
			c-1.7-0.3-3.1-0.6-4.1-0.8C82.3,409.4,81.8,409.2,81.8,409.2z"/>
	</g>
	<g id="XMLID_1378_">
		<path id="XMLID_519_" class="st1" d="M380.4,434.2c0,0,1-0.7,2.9-1.8c0.9-0.6,2-1.3,3.3-2c1.3-0.8,2.8-1.6,4.4-2.5
			c1.6-0.9,3.4-1.8,5.3-2.7c1.9-0.9,4-1.9,6.1-2.8c2.1-0.9,4.3-1.9,6.6-2.7c2.3-0.9,4.6-1.7,6.9-2.5c2.4-0.8,4.7-1.5,7.1-2.2
			c2.3-0.7,4.7-1.3,6.9-1.9c2.3-0.6,4.4-1.1,6.5-1.5c2.1-0.4,4.1-0.8,5.9-1.1c1.8-0.3,3.5-0.6,5-0.7c1.5-0.2,2.8-0.4,3.9-0.5
			c2.2-0.2,3.4-0.3,3.4-0.3s-4.8,1.3-11.9,3.2c-1.8,0.5-3.7,1-5.7,1.6c-2,0.6-4.2,1.2-6.4,1.9c-2.2,0.7-4.5,1.4-6.8,2.1
			c-2.3,0.7-4.6,1.5-6.9,2.3c-2.3,0.8-4.6,1.6-6.9,2.4c-2.3,0.8-4.5,1.6-6.6,2.5c-2.1,0.9-4.2,1.6-6.2,2.4c-2,0.8-3.8,1.5-5.5,2.2
			C384.9,432.3,380.4,434.2,380.4,434.2z"/>
	</g>
	<g id="XMLID_1375_">
		<path id="XMLID_517_" class="st1" d="M454.6,327.4c-2,2.5-4.3,4.7-7.1,6.4c-0.7,0.4-1.4,0.8-2.2,1.1c-0.8,0.3-1.5,0.6-2.3,0.9
			c-1.6,0.5-3.3,0.7-4.9,0.7c-1.7,0-3.4-0.3-5-0.8c-0.4-0.2-0.8-0.3-1.2-0.5l-0.3-0.1c-0.1,0-0.1,0-0.2-0.1l-0.1-0.1l-0.5-0.3
			c-0.8-0.5-1.5-1-2.1-1.6c-1.3-1.2-2.3-2.6-3.1-4.3c-0.3-0.8-0.6-1.7-0.8-2.6c-0.2-0.9-0.2-1.8-0.1-2.7l2.4,1.2
			c-1.5,1.4-2.7,3.1-3.5,5c-0.8,1.9-1.2,4-1,6c0,0.4,0.1,1.1,0.2,1.5c0.1,0.5,0.2,1,0.4,1.5c0.3,1,0.7,1.9,1.3,2.8
			c1,1.8,2.5,3.4,4.2,4.5c0.2,0.1,0.5,0.3,0.6,0.4c0.2,0.1,0.5,0.3,0.7,0.4c0.4,0.2,0.9,0.5,1.4,0.7c1,0.4,2,0.7,3.1,1
			c2.1,0.5,4.4,0.8,6.7,1c2.3,0.2,4.5,0.5,6.7,0.2c1.1-0.1,2.2-0.3,3.2-0.8c1-0.4,2-1.1,2.7-1.9c-0.6,1-1.5,1.8-2.5,2.4
			c-1,0.6-2.2,1-3.3,1.3c-2.3,0.5-4.7,0.6-7,0.5c-2.3-0.1-4.6-0.1-7-0.5c-1.2-0.2-2.3-0.5-3.5-0.9c-0.6-0.2-1.1-0.4-1.7-0.7
			c-0.3-0.1-0.5-0.3-0.8-0.4c-0.3-0.2-0.6-0.3-0.8-0.5c-2.1-1.3-3.9-3.1-5.3-5.2c-0.7-1.1-1.2-2.2-1.6-3.4c-0.2-0.6-0.4-1.2-0.5-1.8
			c-0.1-0.7-0.2-1.1-0.3-1.9c-0.2-2.5,0.2-5.1,1.2-7.4c1-2.3,2.4-4.4,4.4-6.1l2.8-2.4l-0.4,3.6c-0.3,2.6,0.9,5.4,2.9,7.4
			c0.5,0.5,1.1,0.9,1.6,1.3l0.5,0.3l0.1,0.1c0,0,0.1,0,0.1,0l0.2,0.1c0.3,0.2,0.6,0.3,1,0.5c1.3,0.6,2.8,0.9,4.2,1
			c1.5,0.1,3,0,4.5-0.3c0.7-0.1,1.5-0.4,2.2-0.6c0.7-0.2,1.4-0.5,2.1-0.8C449.7,331.3,452.3,329.5,454.6,327.4z"/>
	</g>
	<g id="XMLID_1277_">
		<path id="XMLID_515_" class="st1" d="M513.6,298.8c0,0,0.1-0.2,0.2-0.6c0.2-0.4,0.3-1,0.5-1.8c0.1-0.8,0.2-1.7,0.2-2.8
			c0-1.1-0.2-2.3-0.5-3.6c-0.3-1.3-0.9-2.6-1.6-3.9c-0.7-1.3-1.7-2.6-2.8-3.7c-0.3-0.3-0.6-0.5-0.9-0.8c-0.3-0.3-0.7-0.6-1-0.8
			c-0.6-0.4-1.3-0.9-2.1-1.3c-1.5-0.8-3.1-1.4-4.8-1.8c-1.7-0.4-3.4-0.7-5.1-0.8c-1.7-0.1-3.4,0-5.1,0.2c-1.6,0.2-3.2,0.6-4.5,1.1
			c-1.4,0.5-2.6,1.2-3.6,2.1c-1,0.8-1.7,1.8-2.2,2.7c-0.5,0.9-0.8,1.8-0.9,2.6c-0.1,0.8-0.1,1.4-0.1,1.8c0.1,0.4,0.1,0.7,0.1,0.7
			s-0.1-0.2-0.2-0.6c-0.1-0.4-0.3-1.1-0.4-1.9c0-0.8,0.1-1.9,0.4-3c0.4-1.1,1-2.4,2-3.5c1-1.1,2.3-2.1,3.9-2.9
			c1.5-0.8,3.2-1.3,5-1.7c1.8-0.3,3.7-0.6,5.6-0.5c1.9,0,3.9,0.3,5.8,0.8c1.9,0.5,3.8,1.2,5.5,2.2c0.9,0.5,1.6,1,2.4,1.7
			c0.4,0.3,0.7,0.6,1,0.9c0.4,0.4,0.7,0.7,1,1c1.3,1.4,2.2,3,2.9,4.5c0.7,1.6,1.1,3.1,1.2,4.6c0.2,1.5,0.2,2.8,0,4
			c-0.1,1.2-0.5,2.1-0.8,2.9c-0.3,0.8-0.6,1.3-0.9,1.7C513.7,298.6,513.6,298.8,513.6,298.8z"/>
	</g>
	<g id="XMLID_1274_">
		<path id="XMLID_493_" class="st1" d="M486.1,190.4c0,0-1,0.5-2.7,1.4c-1.7,0.9-4.2,2.1-7,3.8c-1.4,0.9-2.8,1.8-4.3,3
			c-1.4,1.1-2.8,2.5-4,4.1c-1.2,1.5-2.2,3.3-2.8,5.2c-0.2,0.5-0.3,0.9-0.4,1.4c-0.1,0.4-0.2,1.1-0.3,1.5c-0.1,0.9-0.1,1.9,0,2.9
			c0.2,2,0.8,4,1.7,5.7c1,1.7,2.1,3.4,3.6,4.6c1.4,1.2,3.1,2.1,4.8,2.7c1.7,0.5,3.4,0.8,5,0.8c1.6,0,3-0.2,4.3-0.6
			c1.2-0.4,2.3-0.8,3.2-1.2c0.4-0.2,0.8-0.4,1.1-0.6c0.3-0.2,0.6-0.4,0.8-0.5c0.4-0.3,0.7-0.5,0.7-0.5s-0.2,0.2-0.5,0.6
			c-0.2,0.2-0.4,0.4-0.7,0.7c-0.3,0.3-0.6,0.6-1,0.8c-0.8,0.6-1.8,1.2-3.1,1.8c-1.3,0.6-2.8,1-4.6,1.2c-1.7,0.2-3.7,0.2-5.7-0.3
			c-2-0.5-4-1.4-5.8-2.8c-1.8-1.4-3.4-3.2-4.5-5.3c-1.1-2.1-1.9-4.4-2.1-6.8c-0.1-1.2-0.1-2.4,0.1-3.7c0-0.3,0.1-0.6,0.1-0.8
			l0.1-0.4l0-0.2l0.1-0.3c0.1-0.6,0.3-1.2,0.5-1.7c0.8-2.2,2.1-4.2,3.5-5.9c1.4-1.7,3-3,4.7-4.2c1.6-1.1,3.2-2,4.8-2.7
			c3.1-1.4,5.7-2.2,7.6-2.8C485.1,190.7,486.1,190.4,486.1,190.4z"/>
	</g>
	<g id="XMLID_481_">
		<path id="XMLID_491_" class="st1" d="M174.5,110.6c0,0,0.1,0.4,0.2,1.2c0.1,0.8,0.3,1.9,0.5,3.4c0.2,1.5,0.5,3.2,0.9,5.2
			c0.4,2,0.9,4.3,1.5,6.7c0.3,1.2,0.6,2.5,1,3.8c0.4,1.3,0.8,2.6,1.2,4c0.9,2.7,2,5.5,3.3,8.3c1.3,2.8,2.8,5.6,4.6,8.3
			c0.4,0.7,0.9,1.4,1.4,2c0.5,0.6,0.9,1.3,1.5,2l1.5,1.9l1.7,1.9c2.2,2.5,4.4,5,6.7,7.3c2.3,2.3,4.7,4.5,7.1,6.4
			c2.4,2,4.9,3.6,7.3,5.2c2.4,1.5,4.8,2.9,7,4c2.2,1.2,4.3,2.2,6.1,3.1c1.9,0.8,3.5,1.6,4.8,2.2c2.7,1.2,4.3,1.8,4.3,1.8
			s-1.6-0.4-4.5-1.3c-1.4-0.4-3.1-1-5.1-1.7c-1-0.4-2-0.7-3.1-1.2c-1.1-0.4-2.2-0.9-3.4-1.4c-2.3-1-4.8-2.2-7.4-3.7
			c-2.5-1.5-5.2-3.1-7.7-5c-2.6-1.9-5.1-4.1-7.5-6.4c-2.4-2.4-4.7-4.9-6.9-7.4l-1.6-1.9l-1.6-2c-0.6-0.7-1-1.4-1.5-2.1
			c-0.5-0.7-1-1.4-1.4-2.1c-1.9-2.8-3.3-5.9-4.6-8.8c-1.3-2.9-2.2-5.9-3-8.7c-0.8-2.8-1.3-5.5-1.8-8c-0.2-1.3-0.4-2.5-0.6-3.6
			c-0.1-1.2-0.3-2.2-0.4-3.3c-0.2-2.1-0.3-3.8-0.4-5.3c-0.1-1.5-0.1-2.6-0.1-3.4C174.5,111,174.5,110.6,174.5,110.6z"/>
	</g>
	<g id="XMLID_454_">
		<path id="XMLID_489_" class="st1" d="M446.9,167.8l-0.4,3c-0.1,0.5-0.2,1-0.2,1.5l-0.1,1.5c-0.1,1-0.2,2-0.2,3l0,3.1
			c0,1,0,2,0.1,3c0.1,1,0.1,2,0.2,3c0.2,2,0.3,4.1,0.6,6.1c0.2,2,0.5,4,0.8,6l1,6c0.7,4,1.4,8,1.9,12.1c0.3,2,0.6,4.1,0.7,6.1
			l0.3,3.1l0.2,3.1l0.1,1.5l0,1.5l0,3.1c-0.1,2.1-0.1,4.1-0.3,6.2c-0.2,2.1-0.5,4.1-1.1,6.2c-0.6,2-1.4,4-2.5,5.8
			c-1.2,1.9-2.7,3.4-4.4,4.7c-1.8,1.3-3.9,2.1-6.1,2.4l-6.1,0.7l5.6-2.5c2.3-1,4-2.9,5.1-5.2c0.6-1.1,0.9-2.4,1.2-3.6
			c0.1-0.3,0.1-0.6,0.1-1l0-0.2l0-0.2l0-0.5c0-0.3,0.1-0.7,0-1l0-0.9c0-0.6-0.1-1.3-0.2-1.9c-0.1-0.6-0.2-1.3-0.4-1.9
			c-0.3-1.3-0.8-2.5-1.3-3.7c-0.6-1.2-1.2-2.3-2-3.4c-0.7-1.1-1.6-2.1-2.5-3.1c-0.9-1-1.9-1.9-2.9-2.7c-0.5-0.4-1.1-0.8-1.6-1.2
			c-0.5-0.4-1.1-0.7-1.7-1.1c-1.2-0.7-2.3-1.3-3.6-1.8c-1.2-0.6-2.5-1-3.8-1.4c-2.6-0.8-5.2-1.3-7.9-1.7c-2.7-0.3-5.4-0.5-8.1-0.6
			c5.4-0.2,10.9,0.1,16.2,1.5c1.3,0.4,2.6,0.8,3.9,1.3c1.3,0.5,2.5,1.1,3.8,1.7c1.2,0.7,2.4,1.4,3.5,2.2c1.1,0.8,2.2,1.7,3.1,2.7
			c1,1,1.9,2,2.7,3.2c0.8,1.1,1.5,2.3,2.2,3.6c0.6,1.3,1.2,2.6,1.5,3.9c0.2,0.7,0.3,1.4,0.5,2.1c0.1,0.7,0.2,1.4,0.2,2.1l0,1.1
			c0,0.4,0,0.7,0,1l0,0.5l0,0.3l0,0.3c0,0.4-0.1,0.7-0.2,1.1c-0.2,1.4-0.7,2.8-1.3,4.1c-0.6,1.3-1.4,2.5-2.4,3.6
			c-1,1.1-2.2,2-3.6,2.6l-0.5-1.8c1.9-0.2,3.6-1,5.2-2.1c1.5-1.1,2.9-2.6,3.9-4.2c1-1.7,1.8-3.5,2.3-5.4c0.5-1.9,0.9-3.9,1.1-5.8
			c0.2-2,0.2-4,0.4-6l0-3l0-1.5l-0.1-1.5l-0.2-3l-0.3-3c-0.2-2-0.4-4-0.7-6.1l-1.6-12.1l-0.8-6.1c-0.2-2-0.5-4.1-0.6-6.1
			c-0.2-2-0.3-4.1-0.4-6.1c-0.1-1,0-2.1,0-3.1c0-1,0-2,0.1-3.1l0.2-3.1c0.1-1,0.2-2,0.3-3.1l0.2-1.5c0.1-0.5,0.2-1,0.3-1.5
			L446.9,167.8z"/>
	</g>
</g>
</svg>
