<?xml version="1.0" encoding="utf-8"?>
<!-- Generator: Adobe Illustrator 19.0.0, SVG Export Plug-In . SVG Version: 6.00 Build 0)  -->
<svg version="1.1" id="Layer_1" xmlns="http://www.w3.org/2000/svg" xmlns:xlink="http://www.w3.org/1999/xlink" x="0px" y="0px"
	 viewBox="-361.5 113 490 580" style="enable-background:new -361.5 113 490 580;" xml:space="preserve">
<style type="text/css">
	.st0{fill:#EF7B05;}
</style>
<g id="XMLID_165_">
	<path id="XMLID_166_" class="st0" d="M111.7,621.4c-24.5-37.9-23.4-34.2-36.9-59.9c-13.6-25.6-14.7-41.5-15.8-52.5
		c-1.1-11,23-148.8,23-184.8c0-36.1-11.4-72.6-27.2-95.8c-15.8-23.2-39.9-49.5-59.1-57.5c-19.2-8-72.7-36.3-93.1-40.6
		c-20.4-4.3-49.6-9-71-9c-21.5,0-45.1,5.8-65.5,18.6c-8.3,5.2-15.6,13.9-21.5,22.3c-79.7,25.3-96.4,89.7-96.7,148.4
		c-0.1,14.7,0.9,29.1,2.2,42.4c2.1,1.6,4.4,3.6,6.4,6.1c1.5,1.8,2.9,3.8,4.1,6.3c5.7,12,7.9,9.9,7.9,9.9l3.8-10.6
		c0,0-0.5-95.8,66-126.6c0.4-0.1,0.8-0.3,1.2-0.4c28.8-7.7,55.2,8.4,86,8.4h2.4c2.3,0,4.5-0.2,6.7-0.4c0.1,0,0.2,0,0.3,0
		c0.5,0,1-0.1,1.6-0.2c26.7-2.7,50.5-14.7,76-7.9c11.8,3.2,27.6,14.9,42,28.4c9.8,23.5,12.9,45.1,14.1,46.6c2.3,3,4.5,55.2,0,95.7
		c-1.5,13.4-2.9,24.3-4.1,33.4c-1.6,11.4-3.1,19.9-4.4,26.3c-1.8,8.9-3.3,14-4.5,17.9c-2.2,6.8-3.5,9.9-4,22.9
		c-1,22.6,1.4,41.9,6,58.4c0.8,2.9,1.7,5.8,2.6,8.5c1.2,3.4,2.4,6.6,3.8,9.8c-0.5,0-1-0.1-1.5-0.1c0.7,0.6,1.5,1.3,2.2,1.9
		c2,5.3,9.4,21.5,28.2,40C24,657.4,61.3,663,61.3,663S28,651.8,9.9,588.8c-0.4-1.2-1-3.6-1.8-6.6c14.7,39.3,68,57.5,68,57.5
		s-23.1-16.8-36.6-47.1c20.3,14.1,44.3,24.1,55.6,35.5c20,20,23.8,39.7,10.2,53.8C105.3,681.9,136.2,659.2,111.7,621.4z"/>
</g>
</svg>
