<?xml version="1.0" encoding="utf-8"?>
<!-- Generator: Adobe Illustrator 19.0.0, SVG Export Plug-In . SVG Version: 6.00 Build 0)  -->
<svg version="1.1" id="Layer_1" xmlns="http://www.w3.org/2000/svg" xmlns:xlink="http://www.w3.org/1999/xlink" x="0px" y="0px"
	 viewBox="-290 20.7 377.7 520.3" enable-background="new -290 20.7 377.7 520.3" xml:space="preserve">
<g id="XMLID_1018_">
	<path id="XMLID_1024_" fill="#EF7B05" d="M81.5,273.7c-0.6,37.7-5.9,89.7-12.8,123.9c-8.6,42.7-28.3,102.6-73.4,121.2
		c-5.7,2.4-12.6,5-20,7.6c69.1-240.5-0.5-308.8-31.8-405.9c-9.8,49.6-51.8,67.1-96.5,87.3c5.8-6,12.3-13.2,17.2-21.9
		c-56.6,40.8-107.8,65.4-59.7,334.4c0,0.1,0,0.1,0,0.2c0,0.1,0,0.2001,0,0.3l0,0v0.1c0,0.1,0,0.1,0,0.1c-1.9-0.7-3.7-1.5-5.4-2.2
		c-45.1-18.6-64.9-78.5-73.5-121.2c-6.8-34.2-12.1-86.2-11.7-129.9s6.5-79.2,11.5-100.2c2.3-9.5,4.3-16,6.1-20.8l0,0
		c2.2-5.7,3.9-8.8,5.2-11.3c49.4-98,160.5-91.2,232.5-62.7c61.1,24.1,87.9,63.9,89.5,68.7C62,152,67.9,170.5,73,191.5
		c0.8,3.3,1.6,6.8,2.3,10.3C79.2,220.3,82,242,81.5,273.7z"/>
	<path id="XMLID_1023_" fill="#EF7B05" d="M41.7,266.1c-4.5,15.6-63.2,254.8-66.5,260.3c69.1-240.5-0.5-308.8-31.8-405.9
		c-9.8,49.6-51.8,67.1-96.5,87.3c5.8-6,12.3-13.2,17.2-21.9c-56.5,40.8-107.7,65.4-59.6,334.4c-2.8-15.2-47.9-252.6-53.2-266.2
		c-10.6-27.1-27.2-30.7-27.7-54.3c-0.4-18.8,2.5-36.7,7.9-53.1l0,0C-238,54.4-125.4,5.5-34.3,63.3c76.2-0.9,100.9,85,108.2,125.7
		c0.8,4.7,1.3,9,1.4,12.8C76.4,236.9,49.8,237.9,41.7,266.1z"/>
	<path id="XMLID_1022_" fill="#FFFFFF" d="M-84.7,100.6c-30.4,34.3-44.2,38.4-83.1,60.8c-14.5,8.3-24,15.9-35.4,26.4
		c-11.4,10.4-24.6,23.7-31.1,31.7s-6.4,10.6-4.9,5s4.5-19.5,14.3-33.4c9.9-13.8,26.6-27.5,40.1-38.2s23.6-18.4,21.9-18
		c-1.7,0.5-15.3,9.1-28.9,17.5c-13.6,8.5-27.3,16.7-35.7,23.1c-8.4,6.4-11.6,10.8-17,19.2s-13,20.6-16.4,25.4
		c-3.4,4.8-2.7,2.2,0-7.3s7.2-25.8,17.6-44c28.5-49.5,61.7-63.6,112.4-87.1c19-8.8,32-16.6,44-19.1c12-2.6,23.1,0,23.2,7.2
		C-63.5,77-74.4,89-84.7,100.6z"/>
	<path id="XMLID_1021_" fill="#FFFFFF" d="M-262.9,349.4c-0.9,52.3,10.4,104.9,51.8,142.2c7.7,6.9,8.9,7.6,6.6,3.7
		c-25.8-42.7-48.5-88.7-56.2-137.6C-262.1,348.4-262.8,343.8-262.9,349.4z"/>
	<path id="XMLID_1020_" fill="#FFFFFF" d="M-28.9,109.5c17.7,37.4,52.6,95.1,64.2,115c4.2,7.3,8.5,12.3,11.3,15.8s4,5.4,0.6-3.1
		c-9.7-24.4-37.5-94.1-46.9-118.7c23.7,14,50,65.9,54.8,93.1c2,11.3,3.3,23.7,3.2,27.2c0,1.7,2.3-9.5,0.8-27.2
		c-2-23.3-12.6-58.2-23.8-78.3C20.6,106.9-10.5,83.8-12,82.5C-33.9,64.4-33.5,99.7-28.9,109.5z"/>
	<path id="XMLID_1019_" fill="#FFFFFF" d="M51.2,361.2c2,9.2-1,39.5-6.5,55.7C34.8,446,17,464.3,6.1,479.5c-5,6.9-6.9,10.5-6.3,7.1
		s3.8-13.8,6.4-22.2c8.2-25.7,24.1-45.4,34.2-70.1C47.3,377.5,51,360,51.2,361.2z"/>
</g>
</svg>
