<?xml version="1.0" encoding="utf-8"?>
<!-- Generator: Adobe Illustrator 19.0.0, SVG Export Plug-In . SVG Version: 6.00 Build 0)  -->
<svg version="1.1" id="Layer_1" xmlns="http://www.w3.org/2000/svg" xmlns:xlink="http://www.w3.org/1999/xlink" x="0px" y="0px"
	 viewBox="0 0 357.4 347.3" style="enable-background:new 0 0 357.4 347.3;" xml:space="preserve">
<style type="text/css">
	.st0{fill:#EF7B05;}
	.st1{fill:#FFFFFF;}
</style>
<g id="XMLID_2624_">
	<path id="XMLID_2992_" class="st0" d="M37.8,291.6c-2.2-7.7-3.9-15.5-5.8-23.3c-1.8-7.4-3.4-15-4.3-22.6c-0.6-5.3-2.7-16.8,0-21.7
		c-1.1,2-2.2,4.4-3.4,6c-0.4-4.9,0-10-0.2-14.9c0,0.7-2.9-4-3.1-4.7c-0.9-3.1-1.1-9-0.6-12.3c0.2-1.4,2.6-12.2,3.2-12.7
		c-2.1,1.8-3.1,5-6,5.1c-0.9-11.1,4.6-19.6,5.4-30.2c-1.6,1.9-3.2,3.9-4.4,5.8c-3-8.9,1.3-25.6,3.5-34.5
		c3.8-15.4,13.7-19.6,26.4-27.3c-1.1-0.2-4.2-2.3-5.6-2.6c6.2-5.1,15.9-6.5,21.7-11.5c-4.1-0.2-8.4-0.3-10.9-2.9
		c9.8-5.6,17.8-13.1,28.1-18c5.5-2.7,17.7-4.3,21.1-9.4c-1.1-0.6-3-3.1-4.1-3.6c13.6-8.2,28.6-10.6,42.7-14.8
		c-3.2-0.9-5.3-3.1-7.6-4.7c9.3-0.6,18.8-0.2,28.2-0.2c0.9,0.6-1.7-1.5-2-1.7c13.4-2,26.3,7.9,38.9,9.4c0.2-3.8,0.1-7.7,0.3-11.4
		c3.5,1.5,6.7,4.4,9.7,6.6c0.3-14.2,9.8,0,12.2,4.1c7.7-14.5,11.1,2.7,11.2,10.4c3.3,0.6,7.9,0.8,10.7,2.8c2.5,1.8,2.7,5.5,4.4,6.8
		c5.7,4.5,11.1,3.1,18,4.9c-1.1,0.3-2.3,0.7-3.3,1.1c4.9,3,13,4,17.4,7.6c-3.8,0.2-7.7,0.2-11.6,0.2c10.7,3,22.2,3.3,29.8,12.6
		c-3-0.3-5.9-0.8-8.5-1.9c6,5.1,11.7,10,16.8,16.2c-3-0.7-5.1-1.5-7.6-3.5c4.5,3.6,9.2,6.6,12.6,11.2c-1.1,0.3-2.4,1.6-4,1.9
		c3.4,3.6,10.1,7.4,9.5,13.1c-0.6,0.1-1.1,0.2-1.7,0.3c0.4-0.1,11.3,12.3,12.2,13.6c2.2,3.5,1.7,26.5,6.3,27.1
		c-3.1-0.4-6.1-2.3-8.8-4.1c3.9,2.6,3,12.3,3.9,16.4c1.3,6,2,12.6,3.5,18.5c1.5,6,5,11.3,5.5,17.7c-2.4,0.1-4.6-1.1-7-1
		c1.7,5.4,8.2,8.6,9.2,13.9c-2.5,0-5-1.4-7.1-2.8c-0.5,7.9-0.4,15.2-3,22.8c-2.9,8.2-9.3,14.3-11.8,22.8c-2.4,8.2-2.3,17.2-6.7,24.8
		c0,0.7,0.1,0.7,0.1,0c-8.2-18.1,4.7-41.1-4.4-59.2c-4.2-8.3-12.9-12.1-16.1-21.2c-3.2-9.2-1.6-20.9,0.1-30.1
		c-2.9,3.5-0.3,7.5-4.2,9.5c0-6.9,0-14.4,2.1-21.2c-1.1,0.9-2.4,2.2-3.7,3.4c-1.7-12.2,5.7-19.5-10.7-25.6
		c-9.8-3.7-19.2-4.2-29.5-3.7c0.4,1.4-0.2,2.7,1,4.2c-3.9-0.4-7.4-3.6-11.2-3.6c0.3,2.7,2.3,5.2,3.9,7.3c-5.9,0-16.7-3.9-21.7-6.6
		c-5.7-3.1-9.6-3.2-16.1-3.2c-14.2,0-33.5,2.9-44,13.4c0.6-2.3,2.3-4.8,3.9-6.7c-2.4,0.1-4.5,0.5-6.9,0.6c-0.9,0,9.5-6.7,9.7-7.2
		c-4.4-0.8-16.8,0.7-21.3,0.4c-4-0.3-7.4-1.5-11.6-0.7c-9,1.7-15.4,9-25,8.2c-7.7-0.6-12.8-4-20.1-0.7c-4.6,2.1-9.4,8.5-12.4,12.3
		c-9.9,12.6-8.1,29.3-8.1,44.6c0,9-3.6,15.1-8.6,22c-4.8,6.6-9,17.3-10.5,25.5c-1.1,6.2-1.5,12.9-1.5,19.3c0,11.1,0.2,22,0.8,32.8
		C41.8,304.6,39.7,298.1,37.8,291.6z"/>
	<g id="XMLID_2726_">
		<g id="XMLID_2990_">
			<path id="XMLID_2991_" class="st1" d="M149.7,109.4c0,0,0.5,1,1.3,2.5c0.8,1.5,2,3.4,3.1,5.4c1.3,1.9,2.5,3.8,3.5,5.1
				c0.5,0.7,0.9,1.3,1.2,1.7c0.3,0.4,0.5,0.6,0.5,0.6c0,0,0.7,0.9,1.6,2.3c0.2,0.3,0.5,0.7,0.8,1.1c0.3,0.4,0.6,0.8,0.9,1.2
				c0.6,0.8,1.3,1.7,2,2.5c1.4,1.6,2.8,3.3,4,4.5c1.1,1.2,1.9,2,1.9,2s-0.8-0.7-2-1.8c-1.2-1.1-2.8-2.6-4.3-4.2
				c-0.8-0.8-1.5-1.6-2.2-2.4c-0.3-0.4-0.7-0.8-1-1.1c-0.3-0.4-0.6-0.7-0.9-1c-1.1-1.3-1.8-2.2-1.8-2.2c0,0-0.2-0.3-0.5-0.7
				c-0.3-0.4-0.7-1-1.1-1.8c-1-1.4-2.1-3.4-3.2-5.4c-1-2-2.1-4-2.8-5.6C150.2,110.5,149.7,109.4,149.7,109.4z"/>
		</g>
		<g id="XMLID_2988_">
			<path id="XMLID_2989_" class="st1" d="M181.7,107.6c0,0,0.3-0.1,0.9-0.3c0.6-0.1,1.4-0.2,2.4-0.1c2,0.2,4.6,1.3,6.7,3.1
				c1.1,0.8,2.1,1.8,3,2.7c0.9,1,1.8,1.8,2.4,2.6c0.7,0.8,1.2,1.5,1.6,2c0.4,0.5,0.6,0.8,0.6,0.8c0,0,0.2,0.3,0.5,0.8
				c0.3,0.5,0.8,1.2,1.3,2.1c0.5,0.9,1,2,1.7,3.1c0.5,1.2,1.1,2.4,1.6,3.6c0.5,1.3,1,2.5,1.4,3.7c0.4,1.2,0.7,2.3,1,3.3
				c0.4,2,0.7,3.3,0.7,3.3s-0.4-1.3-0.9-3.2c-0.3-1-0.7-2.1-1.2-3.2c-0.4-1.2-1-2.4-1.6-3.6c-0.6-1.2-1.2-2.4-1.8-3.5
				c-0.7-1.1-1.3-2.1-1.8-2.9c-0.5-0.8-1.1-1.5-1.4-2c-0.3-0.5-0.5-0.8-0.6-0.8c0,0-0.2-0.3-0.6-0.8c-0.4-0.5-0.9-1.2-1.5-2
				c-0.6-0.9-1.4-1.7-2.2-2.7c-0.8-1-1.7-2-2.7-2.9c-2-1.8-4.4-3.1-6.4-3.4c-1-0.2-1.8-0.1-2.4,0C182,107.6,181.7,107.6,181.7,107.6
				z"/>
		</g>
		<g id="XMLID_2986_">
			<path id="XMLID_2987_" class="st1" d="M190.1,108.9c0,0,0.3,0,0.9,0c0.6,0.1,1.3,0,2.3,0.2c1.9,0.2,4.4,0.7,6.8,1.6
				c2.4,0.9,4.8,2,6.4,3.1c0.9,0.5,1.5,1,2,1.4c0.5,0.4,0.8,0.6,0.8,0.6c0,0,0.3,0.2,0.7,0.7c0.4,0.4,1,1,1.6,1.7
				c1.3,1.5,2.8,3.6,4.1,5.8c1.2,2.3,2.1,4.7,2.6,6.6c0.1,0.2,0.1,0.5,0.2,0.7c0,0.2,0.1,0.4,0.1,0.6c0.1,0.4,0.1,0.7,0.2,1
				c0.1,0.6,0.2,0.9,0.2,0.9s-0.1-0.3-0.2-0.9c-0.1-0.3-0.2-0.6-0.3-1c0-0.2-0.1-0.4-0.2-0.6c-0.1-0.2-0.2-0.4-0.2-0.6
				c-0.6-1.8-1.7-4.1-3-6.3c-1.4-2.1-3-4.1-4.3-5.4c-0.6-0.7-1.3-1.1-1.7-1.5c-0.4-0.4-0.7-0.6-0.7-0.6c0,0-0.3-0.2-0.7-0.6
				c-0.4-0.4-1-0.9-1.8-1.4c-1.5-1.2-3.8-2.4-6.1-3.4c-2.3-1-4.8-1.7-6.6-2c-0.9-0.2-1.7-0.2-2.3-0.3
				C190.4,109,190.1,108.9,190.1,108.9z"/>
		</g>
		<g id="XMLID_2984_">
			<path id="XMLID_2985_" class="st1" d="M194.6,108.5c0,0,0.3,0,0.8,0c0.5,0,1.3,0,2.2,0.1c1.8,0.2,4.3,0.5,6.7,1.1
				c2.4,0.6,4.8,1.4,6.5,2.2c0.9,0.3,1.6,0.7,2.1,0.9c0.5,0.2,0.8,0.4,0.8,0.4c0,0,0.3,0.2,0.8,0.5c0.5,0.3,1.1,0.7,1.9,1.2
				c1.5,1,3.5,2.6,5.3,4.2c1.8,1.7,3.4,3.5,4.5,5c0.6,0.7,1,1.4,1.3,1.8c0.3,0.4,0.5,0.7,0.5,0.7s-0.2-0.2-0.5-0.7
				c-0.3-0.4-0.8-1-1.4-1.7c-1.2-1.4-2.9-3.1-4.8-4.6c-1.9-1.5-3.9-2.9-5.4-3.8c-0.8-0.5-1.4-0.8-1.9-1.1c-0.5-0.3-0.7-0.4-0.8-0.4
				c0,0-0.3-0.2-0.8-0.4c-0.5-0.3-1.1-0.7-2-1.1c-1.6-0.9-3.9-1.8-6.2-2.6c-2.3-0.7-4.7-1.3-6.5-1.6c-0.9-0.2-1.7-0.2-2.2-0.3
				C194.9,108.5,194.6,108.5,194.6,108.5z"/>
		</g>
		<g id="XMLID_2982_">
			<path id="XMLID_2983_" class="st1" d="M154,114.6c0,0,0.8,0.8,2,2.1c1.2,1.3,3,2.8,4.7,4.4c1.8,1.5,3.6,3,5.1,4
				c0.7,0.5,1.3,0.9,1.7,1.2c0.4,0.3,0.7,0.5,0.7,0.5c0,0,1,0.7,2.3,1.7c0.3,0.3,0.7,0.5,1.1,0.8c0.4,0.3,0.8,0.5,1.3,0.8
				c0.9,0.6,1.8,1.2,2.8,1.8c2,1.1,3.9,2.3,5.4,3c1.5,0.8,2.5,1.3,2.5,1.3s-1-0.4-2.6-1.1c-1.6-0.6-3.6-1.6-5.6-2.6
				c-1-0.5-2-1.1-2.9-1.6c-0.5-0.3-0.9-0.5-1.4-0.7c-0.4-0.3-0.8-0.5-1.2-0.7c-1.5-0.9-2.4-1.6-2.5-1.6c0,0-0.3-0.2-0.7-0.5
				c-0.4-0.3-1-0.8-1.7-1.4c-1.4-1.1-3.1-2.8-4.8-4.4c-1.6-1.7-3.3-3.4-4.4-4.8C154.7,115.5,154,114.6,154,114.6z"/>
		</g>
		<g id="XMLID_2980_">
			<path id="XMLID_2981_" class="st1" d="M145.8,113.1c0,0,0,0.9,0,2.3c-0.1,1.4,0.2,3.2,0.4,5c0.3,1.8,0.6,3.6,1,4.9
				c0.2,0.7,0.3,1.2,0.4,1.6c0.1,0.4,0.2,0.6,0.2,0.6c0,0,0.2,0.9,0.6,2.2c0.1,0.3,0.2,0.7,0.3,1c0.1,0.4,0.3,0.7,0.4,1.1
				c0.3,0.8,0.6,1.6,0.9,2.4c0.7,1.6,1.4,3.2,2.1,4.3c0.7,1.1,1.1,1.9,1.1,1.9s-0.5-0.7-1.3-1.8c-0.8-1-1.6-2.6-2.5-4.1
				c-0.4-0.8-0.8-1.6-1.1-2.4c-0.2-0.4-0.4-0.7-0.5-1.1c-0.1-0.4-0.3-0.7-0.4-1c-0.5-1.3-0.8-2.1-0.8-2.2c0,0-0.1-0.2-0.1-0.7
				c-0.1-0.4-0.2-1-0.3-1.7c-0.3-1.4-0.4-3.2-0.6-5.1c0-1.8-0.1-3.7,0.1-5C145.7,114,145.8,113.1,145.8,113.1z"/>
		</g>
		<g id="XMLID_2978_">
			<path id="XMLID_2979_" class="st1" d="M113.1,114c0,0,0.3,0.8,0.7,2c0.4,1.2,1.1,2.7,1.7,4.2c0.7,1.5,1.5,3,2.1,4
				c0.3,0.5,0.6,1,0.8,1.3c0.2,0.3,0.3,0.5,0.3,0.5c0,0,0.4,0.7,0.9,1.8c0.3,0.5,0.6,1.2,1,1.8c0.4,0.6,0.8,1.3,1.2,2
				c0.9,1.3,1.8,2.7,2.5,3.6c0.7,0.9,1.2,1.6,1.2,1.6s-0.5-0.6-1.4-1.4c-0.9-0.8-1.9-2.1-2.9-3.3c-0.5-0.6-1-1.3-1.4-1.9
				c-0.5-0.6-0.9-1.2-1.2-1.7c-0.7-1-1.1-1.7-1.2-1.7c0,0-0.1-0.2-0.3-0.6c-0.2-0.3-0.4-0.8-0.6-1.4c-0.6-1.1-1.1-2.7-1.7-4.3
				c-0.5-1.6-1.1-3.2-1.3-4.4C113.3,114.8,113.1,114,113.1,114z"/>
		</g>
		<g id="XMLID_2976_">
			<path id="XMLID_2977_" class="st1" d="M105.9,115.3c0,0,0.1,0.8,0.2,1.9c0,0.3,0.1,0.6,0.1,0.9c0,0.3,0.1,0.7,0.2,1
				c0.2,0.7,0.3,1.4,0.5,2.2c0.5,1.4,0.9,2.9,1.5,3.9c0.2,0.5,0.4,0.9,0.6,1.2c0.1,0.3,0.3,0.5,0.3,0.5c0,0,0.3,0.7,0.8,1.7
				c0.1,0.2,0.2,0.5,0.4,0.8c0.2,0.3,0.3,0.6,0.5,0.9c0.3,0.6,0.7,1.2,1.1,1.8c0.8,1.2,1.7,2.4,2.4,3.2c0.7,0.8,1.2,1.4,1.2,1.4
				s-0.5-0.5-1.3-1.2c-0.9-0.7-1.8-1.8-2.8-2.9c-0.5-0.6-0.9-1.2-1.3-1.7c-0.2-0.3-0.4-0.6-0.6-0.8c-0.2-0.3-0.3-0.5-0.5-0.8
				c-0.6-1-1-1.6-1-1.7c0,0-0.1-0.2-0.2-0.5c-0.1-0.3-0.3-0.8-0.5-1.4c-0.4-1.1-0.7-2.6-1.1-4.1c-0.1-0.8-0.2-1.5-0.3-2.3
				c0-0.4-0.1-0.7-0.1-1c0-0.3,0-0.6,0-0.9C105.9,116.1,105.9,115.3,105.9,115.3z"/>
		</g>
		<g id="XMLID_2974_">
			<path id="XMLID_2975_" class="st1" d="M83.4,110.1c0,0,0.5,0.9,1.2,2.2c0.3,0.7,0.8,1.4,1.3,2.2c0.5,0.8,1,1.7,1.6,2.5
				c1.2,1.6,2.3,3.2,3.4,4.4c0.5,0.6,0.9,1,1.2,1.4c0.3,0.3,0.5,0.5,0.5,0.5c0,0,0.6,0.8,1.6,1.9c0.2,0.3,0.5,0.6,0.8,0.9
				c0.3,0.3,0.6,0.6,0.9,0.9c0.6,0.6,1.3,1.4,2,2c1.4,1.3,2.8,2.6,4,3.5c1.1,0.9,1.9,1.5,1.9,1.5s-0.8-0.5-2-1.3
				c-1.2-0.7-2.7-1.9-4.3-3.1c-0.8-0.6-1.5-1.3-2.2-1.9c-0.3-0.3-0.7-0.6-1-0.9c-0.3-0.3-0.6-0.6-0.8-0.8c-1-1.1-1.7-1.8-1.8-1.8
				c0,0-0.2-0.2-0.5-0.6c-0.3-0.4-0.6-0.9-1.1-1.5c-0.9-1.2-2-3-3-4.7c-0.5-0.9-0.9-1.8-1.4-2.6c-0.5-0.8-0.8-1.7-1.1-2.4
				C83.8,111,83.4,110.1,83.4,110.1z"/>
		</g>
		<g id="XMLID_2972_">
			<path id="XMLID_2973_" class="st1" d="M78.9,114.9c0,0,0.5,0.7,1.1,1.8c0.7,1.1,1.7,2.5,2.7,3.9c1.1,1.4,2.1,2.7,3,3.7
				c0.4,0.5,0.8,0.9,1,1.2c0.2,0.3,0.4,0.4,0.4,0.5c0,0,0.5,0.7,1.3,1.7c0.4,0.5,0.8,1.1,1.4,1.6c0.5,0.6,1,1.2,1.6,1.8
				c1.2,1.2,2.3,2.4,3.2,3.2c0.9,0.9,1.5,1.4,1.5,1.4s-0.7-0.5-1.6-1.3c-1-0.7-2.3-1.8-3.5-2.9c-0.6-0.6-1.2-1.1-1.8-1.7
				c-0.6-0.5-1.1-1-1.5-1.5c-0.9-0.9-1.5-1.5-1.5-1.6c0,0-0.2-0.2-0.4-0.5c-0.2-0.3-0.5-0.8-0.9-1.3c-0.8-1.1-1.7-2.5-2.6-4
				c-0.9-1.5-1.8-3-2.3-4.2C79.3,115.7,78.9,114.9,78.9,114.9z"/>
		</g>
		<g id="XMLID_2970_">
			<path id="XMLID_2971_" class="st1" d="M76.8,114c0,0,0,0.9-0.1,2.1c-0.1,1.3,0,3,0,4.7c0.1,1.7,0.2,3.4,0.4,4.7
				c0.1,0.6,0.1,1.2,0.2,1.6c0,0.4,0.1,0.6,0.1,0.6c0,0,0.1,0.9,0.2,2.1c0,0.3,0,0.7,0.1,1c0,0.4,0.1,0.7,0.1,1.1
				c0.1,0.8,0.2,1.6,0.3,2.4c0.3,1.6,0.6,3.3,0.9,4.5c0.3,1.2,0.5,2,0.5,2s-0.3-0.8-0.7-2c-0.5-1.2-0.9-2.8-1.4-4.4
				c-0.2-0.8-0.4-1.6-0.6-2.4c-0.1-0.4-0.2-0.8-0.3-1.1c-0.1-0.4-0.1-0.7-0.2-1c-0.2-1.3-0.4-2.1-0.4-2.1c0,0,0-0.2,0-0.6
				c0-0.4,0-0.9,0-1.6c-0.1-1.3,0-3.1,0.1-4.8c0.2-1.7,0.3-3.4,0.5-4.7C76.6,114.8,76.8,114,76.8,114z"/>
		</g>
		<g id="XMLID_2968_">
			<path id="XMLID_2969_" class="st1" d="M158.5,155.7c0,0,0.1-0.2,0.4-0.6c0.2-0.4,0.5-1,1-1.6c0.8-1.3,2.1-3,3.6-4.5
				c1.5-1.5,3.1-2.8,4.4-3.8c0.7-0.4,1.2-0.8,1.6-1.1c0.4-0.3,0.6-0.4,0.7-0.4c0,0,0.3-0.1,0.7-0.3c0.4-0.2,1-0.5,1.7-0.7
				c1.4-0.6,3.3-1.1,5.3-1.6c2-0.4,3.9-0.6,5.4-0.6c0.7,0,1.4,0,1.8,0c0.4,0,0.7,0,0.7,0s-0.2,0-0.7,0c-0.4,0-1,0-1.8,0.1
				c-1.5,0.2-3.4,0.5-5.3,1c-1.9,0.6-3.7,1.3-5,2c-0.7,0.3-1.2,0.6-1.6,0.8c-0.4,0.2-0.6,0.3-0.6,0.4c0,0-0.3,0.1-0.7,0.3
				c-0.4,0.2-1,0.5-1.6,0.9c-1.3,0.8-3,1.9-4.5,3.3c-1.5,1.4-2.9,2.9-3.9,4.1c-0.5,0.6-0.8,1.2-1.1,1.5
				C158.6,155.5,158.5,155.7,158.5,155.7z"/>
		</g>
		<g id="XMLID_2966_">
			<path id="XMLID_2967_" class="st1" d="M119.4,144.6c0,0,0.2-0.1,0.4-0.4c0.3-0.2,0.6-0.6,1.1-0.9c0.9-0.8,2.3-1.6,3.7-2.4
				c1.4-0.7,2.9-1.3,4.1-1.7c0.6-0.2,1.1-0.3,1.4-0.4c0.3-0.1,0.6-0.1,0.6-0.1c0,0,0.2,0,0.6-0.1c0.3,0,0.8-0.1,1.4-0.1
				c1.2-0.1,2.7,0,4.3,0.2c1.5,0.2,3,0.6,4.1,0.9c0.6,0.2,1,0.3,1.3,0.5c0.3,0.1,0.5,0.2,0.5,0.2s-0.2,0-0.5-0.1
				c-0.3-0.1-0.8-0.2-1.3-0.3c-1.1-0.2-2.6-0.4-4.1-0.4c-1.5,0-3,0.1-4.1,0.3c-0.6,0.1-1,0.2-1.3,0.2c-0.3,0.1-0.5,0.1-0.5,0.1
				c0,0-0.2,0-0.6,0.1c-0.3,0.1-0.8,0.1-1.4,0.2c-1.1,0.2-2.6,0.6-4.1,1.2c-1.4,0.6-2.9,1.3-3.9,1.9c-0.5,0.3-0.9,0.6-1.2,0.8
				C119.6,144.5,119.4,144.6,119.4,144.6z"/>
		</g>
		<g id="XMLID_2964_">
			<path id="XMLID_2965_" class="st1" d="M127.9,117.6c0,0,0,0.2,0.1,0.6c0.1,0.4,0.2,1,0.4,1.6c0.3,1.3,1,3.1,1.9,4.7
				c0.8,1.6,1.9,3.1,2.8,4.1c0.4,0.5,0.8,0.9,1.1,1.2c0.3,0.3,0.4,0.4,0.5,0.5c0,0,0.2,0.2,0.4,0.5c0.2,0.3,0.6,0.7,1.1,1.2
				c0.9,1,2.2,2.1,3.6,3.1c1.4,1,3,1.8,4.1,2.4c0.6,0.3,1.1,0.4,1.5,0.6c0.4,0.1,0.6,0.2,0.6,0.2s-0.2-0.1-0.6-0.2
				c-0.4-0.1-0.9-0.2-1.5-0.4c-1.2-0.4-2.9-1.1-4.4-2c-1.5-0.9-3-1.9-4-2.8c-0.5-0.4-1-0.8-1.2-1.1c-0.3-0.3-0.5-0.5-0.5-0.5
				c0,0-0.2-0.2-0.4-0.5c-0.3-0.3-0.6-0.8-1-1.4c-0.8-1.2-1.8-2.8-2.5-4.6c-0.7-1.7-1.3-3.5-1.5-4.9c-0.2-0.7-0.2-1.3-0.2-1.7
				C128,117.8,127.9,117.6,127.9,117.6z"/>
		</g>
		<g id="XMLID_2962_">
			<path id="XMLID_2963_" class="st1" d="M43.3,172.1c0,0,0.7-1.1,1.7-2.6c0.5-0.8,1.1-1.7,1.8-2.7c0.7-1,1.4-2,2.2-3
				c1.4-2.1,3.1-4,4.3-5.5c0.6-0.7,1.1-1.4,1.5-1.8c0.4-0.4,0.6-0.7,0.6-0.7c0,0,0.9-0.9,2.2-2.2c1.3-1.3,3.1-3,5.1-4.3
				c2-1.4,4.3-2.3,6.1-2.4c0.9-0.1,1.6,0,2.1,0c0.5,0.1,0.8,0.1,0.8,0.1s-0.3,0-0.8-0.1c-0.5,0-1.2,0-2.1,0.1
				c-1.7,0.3-3.9,1.3-5.7,2.8c-1.9,1.5-3.5,3.2-4.7,4.6c-1.2,1.4-2,2.3-2.1,2.3c0,0-0.2,0.2-0.6,0.6c-0.4,0.4-0.9,1-1.6,1.7
				c-1.3,1.4-3,3.2-4.6,5.1c-0.8,1-1.6,1.9-2.3,2.8c-0.7,0.9-1.4,1.8-1.9,2.6C44,171.1,43.3,172.1,43.3,172.1z"/>
		</g>
		<g id="XMLID_2960_">
			<path id="XMLID_2961_" class="st1" d="M36.7,173.8c0,0,1.2-3.2,2.3-6.4c0.7-1.6,1.3-3.1,1.8-4.3c0.3-0.6,0.5-1.1,0.6-1.4
				c0.1-0.4,0.2-0.6,0.3-0.6c0,0,1.8-2.9,3.5-5.7c1.9-2.7,3.7-5.4,3.7-5.4s-1.6,2.9-3.2,5.7c-1.4,3-2.9,5.9-2.9,6
				c0,0-0.1,0.2-0.3,0.5c-0.2,0.3-0.4,0.8-0.7,1.4c-0.6,1.1-1.4,2.6-2.2,4.1C38.2,170.8,36.7,173.8,36.7,173.8z"/>
		</g>
		<g id="XMLID_2958_">
			<path id="XMLID_2959_" class="st1" d="M27.9,165.3c0,0,0.3-2.8,0.5-5.7c0.2-1.4,0.5-2.8,0.7-3.9c0.1-0.5,0.2-1,0.2-1.3
				c0.1-0.3,0.1-0.5,0.1-0.5c0,0,1-2.6,2.1-5.2c1.2-2.5,2.4-4.9,2.4-4.9s-0.9,2.6-1.8,5.2c-0.7,2.6-1.4,5.3-1.4,5.3
				c0,0-0.1,0.2-0.2,0.5c-0.1,0.3-0.2,0.7-0.4,1.2c-0.3,1-0.7,2.4-1.1,3.7C28.5,162.6,27.9,165.3,27.9,165.3z"/>
		</g>
		<g id="XMLID_2956_">
			<path id="XMLID_2957_" class="st1" d="M22.6,152.4c0,0,0.1-1.2,0.3-3.1c0.1-1.9,0.6-4.3,1-6.8c0.5-2.4,1-4.9,1.6-6.7
				c0.2-0.9,0.5-1.7,0.6-2.2c0.1-0.5,0.3-0.9,0.3-0.9c0,0,0.5-1.2,1.2-2.9c0.2-0.4,0.4-0.9,0.6-1.4c0.2-0.5,0.5-1,0.7-1.5
				c0.5-1,1-2.1,1.5-3.2c1.2-2.1,2.3-4.2,3.2-5.7c0.9-1.5,1.6-2.5,1.6-2.5s-0.6,1.1-1.4,2.6c-0.9,1.6-1.8,3.8-2.8,5.9
				c-0.5,1.1-0.9,2.2-1.3,3.3c-0.2,0.5-0.4,1-0.6,1.5c-0.2,0.5-0.3,1-0.5,1.4c-0.6,1.7-1,2.9-1,2.9c0,0-0.1,0.3-0.3,0.8
				c-0.2,0.5-0.4,1.3-0.7,2.1c-0.7,1.7-1.3,4.1-2,6.5c-0.5,2.4-1.2,4.8-1.4,6.6C22.8,151.2,22.6,152.4,22.6,152.4z"/>
		</g>
		<g id="XMLID_2954_">
			<path id="XMLID_2955_" class="st1" d="M31,181.9c0,0,0.4-9.1,0.4-9.2c0-0.1,1.7-8.7,1.7-8.7s-0.4,8.8-0.4,8.9
				C32.7,172.9,31,181.9,31,181.9z"/>
		</g>
		<g id="XMLID_2952_">
			<path id="XMLID_2953_" class="st1" d="M20.9,185.7c0,0-0.4-8.1-0.4-8.1s0.9-7.9,0.9-7.9s0.5,7.8,0.5,7.9S20.9,185.7,20.9,185.7z"
				/>
		</g>
		<g id="XMLID_2950_">
			<path id="XMLID_2951_" class="st1" d="M36.6,199.3c0,0,1.8-2.3,3.6-4.5c1-1.1,2-2.2,2.7-3c0.4-0.4,0.7-0.8,0.9-1
				c0.2-0.2,0.4-0.4,0.4-0.4c0,0,2.3-1.8,4.5-3.5c2.3-1.6,4.6-3.2,4.6-3.2s-2.1,1.9-4.2,3.7c-2,2-4,4-4,4c0,0-0.2,0.1-0.4,0.3
				c-0.2,0.2-0.6,0.5-1,0.9c-0.8,0.7-1.9,1.7-3,2.6C38.7,197.2,36.6,199.3,36.6,199.3z"/>
		</g>
		<g id="XMLID_2948_">
			<path id="XMLID_2949_" class="st1" d="M36.6,214.8c0,0,0.6-0.7,1.4-1.8c0.8-1.1,2.1-2.5,3.3-3.9c1.3-1.3,2.6-2.7,3.6-3.6
				c0.5-0.5,1-0.9,1.3-1.2c0.3-0.3,0.5-0.4,0.5-0.4c0,0,0.8-0.5,1.9-1.3c0.6-0.4,1.2-0.8,1.9-1.2c0.7-0.4,1.5-0.9,2.3-1.3
				c1.6-0.8,3.1-1.7,4.4-2.2c1.2-0.5,2-0.9,2-0.9s-0.8,0.4-1.9,1.1c-1.2,0.6-2.6,1.6-4.1,2.6c-0.7,0.5-1.4,1-2.1,1.5
				c-0.7,0.5-1.3,1-1.8,1.4c-1,0.9-1.7,1.4-1.8,1.5c0,0-0.2,0.1-0.5,0.4c-0.3,0.2-0.8,0.6-1.3,1c-1.1,0.8-2.5,2-3.9,3.2
				c-1.3,1.3-2.7,2.5-3.6,3.6C37.2,214.2,36.6,214.8,36.6,214.8z"/>
		</g>
		<g id="XMLID_2946_">
			<path id="XMLID_2947_" class="st1" d="M44.9,223.3c0,0,1.5-1.6,3-3.2c0.8-0.7,1.6-1.5,2.2-2c0.3-0.3,0.6-0.5,0.8-0.7
				c0.2-0.2,0.3-0.2,0.3-0.3c0,0,1.9-1,3.8-2c1.9-0.8,3.8-1.6,3.8-1.6s-1.8,1.1-3.5,2.2c-1.7,1.3-3.3,2.5-3.4,2.5
				c0,0-0.1,0.1-0.3,0.2c-0.2,0.1-0.5,0.3-0.8,0.5c-0.7,0.4-1.6,1-2.5,1.6C46.6,222,44.9,223.3,44.9,223.3z"/>
		</g>
		<g id="XMLID_2944_">
			<path id="XMLID_2945_" class="st1" d="M37.7,238c0,0,0.5-0.6,1.3-1.4c0.4-0.4,0.8-0.9,1.3-1.4c0.5-0.5,1.1-1,1.6-1.5
				c1.2-0.9,2.4-1.9,3.4-2.5c0.5-0.3,0.9-0.6,1.2-0.8c0.3-0.2,0.5-0.3,0.5-0.3c0,0,0.7-0.3,1.8-0.7c0.3-0.1,0.5-0.2,0.8-0.3
				c0.3-0.1,0.6-0.2,1-0.3c0.7-0.2,1.4-0.4,2.1-0.6c1.4-0.3,2.8-0.6,3.9-0.7c1.1-0.1,1.8-0.2,1.8-0.2s-0.7,0.2-1.8,0.4
				c-1.1,0.2-2.4,0.7-3.8,1.1c-0.7,0.3-1.3,0.6-2,0.8c-0.3,0.1-0.6,0.3-0.9,0.4c-0.3,0.1-0.5,0.3-0.8,0.4c-1,0.5-1.6,0.9-1.6,0.9
				c0,0-0.2,0.1-0.5,0.2c-0.3,0.1-0.7,0.4-1.2,0.6c-1,0.5-2.3,1.3-3.5,2.1c-0.6,0.4-1.2,0.9-1.8,1.3c-0.6,0.4-1.1,0.9-1.5,1.2
				C38.3,237.5,37.7,238,37.7,238z"/>
		</g>
		<g id="XMLID_2942_">
			<path id="XMLID_2943_" class="st1" d="M36.7,258.3c0,0,2.2-6.6,2.2-6.6c0-0.1,3.3-5.9,3.3-5.9s-2.1,6.4-2.1,6.5
				C40.1,252.3,36.7,258.3,36.7,258.3z"/>
		</g>
		<g id="XMLID_2940_">
			<path id="XMLID_2941_" class="st1" d="M38.9,270.3c0,0,1.2-6.9,1.2-7c0-0.1,2.5-6.4,2.5-6.4s-1.2,6.7-1.2,6.8
				C41.4,263.8,38.9,270.3,38.9,270.3z"/>
		</g>
		<g id="XMLID_2938_">
			<path id="XMLID_2939_" class="st1" d="M30.7,233.2c0,0,0.5-2.1,1.1-4.2c0.4-1,0.8-2,1-2.8c0.1-0.4,0.3-0.7,0.4-0.9
				c0.1-0.2,0.2-0.4,0.2-0.4c0,0,0.3-0.4,0.8-1.1c0.5-0.6,1-1.5,1.7-2.3c1.4-1.5,2.7-3.1,2.7-3.1s-1.1,1.7-2.2,3.5
				c-0.9,1.8-1.8,3.7-1.8,3.7c0,0-0.3,0.5-0.7,1.2c-0.4,0.7-0.9,1.6-1.4,2.5C31.6,231.3,30.7,233.2,30.7,233.2z"/>
		</g>
		<g id="XMLID_2936_">
			<path id="XMLID_2937_" class="st1" d="M28.9,216.7c0,0,0-0.6,0-1.4c0-0.8,0-2,0.1-3.1c0.1-1.1,0.2-2.3,0.4-3.1
				c0.1-0.4,0.1-0.8,0.2-1c0-0.3,0.1-0.4,0.1-0.4c0,0,0.2-0.5,0.5-1.3c0.3-0.8,0.8-1.8,1.2-2.8c0.5-1,1-1.9,1.4-2.6
				c0.4-0.7,0.7-1.2,0.7-1.2s-0.2,0.5-0.5,1.3c-0.3,0.7-0.7,1.8-1,2.8c-0.3,1-0.6,2.1-0.8,2.9c-0.2,0.8-0.3,1.3-0.3,1.3
				c0,0-0.1,0.1-0.1,0.4c-0.1,0.2-0.2,0.6-0.3,1c-0.3,0.8-0.5,1.9-0.8,3c-0.2,1.1-0.5,2.2-0.5,3C28.9,216.2,28.9,216.7,28.9,216.7z"
				/>
		</g>
		<g id="XMLID_2934_">
			<path id="XMLID_2935_" class="st1" d="M23.8,214.9c0,0-0.4-2.5-0.8-5c-0.1-1.3-0.2-2.6-0.3-3.5c0-0.5-0.1-0.9-0.1-1.2
				c0-0.3,0-0.5,0-0.5c0,0,0.3-2.5,0.6-5c0.5-2.4,1-4.9,1-4.9s-0.2,2.5-0.3,4.9c0,2.5,0,4.9,0,5c0,0,0,0.2,0,0.5
				c0,0.3,0,0.7-0.1,1.2c0,1-0.1,2.2-0.2,3.5C23.7,212.4,23.8,214.9,23.8,214.9z"/>
		</g>
		<g id="XMLID_2932_">
			<path id="XMLID_2933_" class="st1" d="M307.6,226.9c0,0-6.3-6.7-6.3-6.8s-5.2-7.5-5.2-7.5s6.1,6.5,6.2,6.6
				C302.3,219.3,307.6,226.9,307.6,226.9z"/>
		</g>
		<g id="XMLID_2930_">
			<path id="XMLID_2931_" class="st1" d="M313.5,214.5c0,0-1.6-1.7-3.2-3.3c-0.8-0.8-1.7-1.6-2.3-2.1c-0.3-0.3-0.6-0.5-0.8-0.7
				c-0.2-0.2-0.3-0.3-0.3-0.3c0,0-1.5-1.7-3-3.4c-1.6-1.6-3.2-3.2-3.2-3.2s1.8,1.3,3.6,2.6c1.8,1.4,3.5,2.9,3.5,2.9
				c0,0,0.1,0.1,0.3,0.3c0.2,0.2,0.4,0.5,0.7,0.8c0.6,0.7,1.3,1.6,2,2.5C312.1,212.6,313.5,214.5,313.5,214.5z"/>
		</g>
		<g id="XMLID_2928_">
			<path id="XMLID_2929_" class="st1" d="M309.8,203.3c0,0-1.1-1.6-2.2-3.2c-0.6-0.7-1.2-1.5-1.7-2c-0.2-0.3-0.4-0.5-0.6-0.7
				c-0.1-0.2-0.2-0.2-0.2-0.3c0,0-1.1-1.5-2.2-3.1c-1.2-1.4-2.4-2.8-2.4-2.8s1.4,1.2,2.9,2.4c0.7,0.6,1.3,1.3,1.9,1.8
				c0.5,0.5,0.9,0.9,0.9,0.9c0,0,0.1,0.1,0.2,0.3c0.1,0.2,0.3,0.5,0.5,0.8c0.4,0.6,0.9,1.5,1.3,2.4
				C309,201.5,309.8,203.3,309.8,203.3z"/>
		</g>
		<g id="XMLID_2926_">
			<path id="XMLID_2927_" class="st1" d="M312.5,194c0,0-1.9-2.6-3.9-5.1c-1-1.2-2.1-2.4-2.9-3.4c-0.4-0.5-0.7-0.8-0.9-1.1
				c-0.2-0.3-0.4-0.4-0.4-0.4c0,0-1.9-2.5-3.8-5c-2-2.4-4-4.7-4-4.7s2.3,2.1,4.5,4.2c2.2,2.3,4.3,4.5,4.4,4.6c0,0,0.1,0.2,0.3,0.5
				c0.2,0.3,0.5,0.7,0.8,1.2c0.7,1,1.6,2.4,2.5,3.7C310.8,191.2,312.5,194,312.5,194z"/>
		</g>
		<g id="XMLID_2924_">
			<path id="XMLID_2925_" class="st1" d="M321.3,206.9c0,0,0-7.3,0-7.3c0-0.1,1.3-7,1.3-7s0,7,0,7.1
				C322.7,199.8,321.3,206.9,321.3,206.9z"/>
		</g>
		<g id="XMLID_2922_">
			<path id="XMLID_2923_" class="st1" d="M316.9,226.9c0,0-1.9-6.8-1.9-6.9c0-0.1-0.5-6.9-0.5-6.9s1.8,6.6,1.8,6.7
				C316.4,219.9,316.9,226.9,316.9,226.9z"/>
		</g>
		<g id="XMLID_2920_">
			<path id="XMLID_2921_" class="st1" d="M313.3,249.7c0,0-2.8-8.1-2.9-8.2c0-0.1-1.5-8.3-1.5-8.3s2.8,7.9,2.8,7.9
				C311.7,241.2,313.3,249.7,313.3,249.7z"/>
		</g>
		<g id="XMLID_2918_">
			<path id="XMLID_2919_" class="st1" d="M310.3,260c0,0-2.1-6.3-2.1-6.4c0-0.1-0.8-6.5-0.8-6.5s2.1,6.1,2.1,6.2
				C309.5,253.4,310.3,260,310.3,260z"/>
		</g>
		<g id="XMLID_2916_">
			<path id="XMLID_2917_" class="st1" d="M311.6,270.8c0,0-0.2-4.3-0.2-4.4c0,0,1.1-4.1,1.1-4.1s0.2,4.2,0.2,4.3
				C312.7,266.6,311.6,270.8,311.6,270.8z"/>
		</g>
		<g id="XMLID_2914_">
			<path id="XMLID_2915_" class="st1" d="M288.7,182c0,0,1.6-1.8,3.2-3.5c1.5-1.9,3-3.8,3-3.8c0,0,1.6-1.7,3.2-3.4
				c1.5-1.8,2.9-3.6,2.9-3.6s-1.2,2-2.4,4.1c-1.3,2-2.7,3.9-2.7,3.9c0,0-0.1,0.1-0.3,0.3c-0.2,0.2-0.5,0.4-0.8,0.8
				c-0.7,0.6-1.5,1.5-2.4,2.3C290.5,180.5,288.7,182,288.7,182z"/>
		</g>
		<g id="XMLID_2912_">
			<path id="XMLID_2913_" class="st1" d="M288.8,176.7c0,0,0.5-0.6,1.2-1.6c0.8-0.9,1.6-2.3,2.5-3.7c0.8-1.4,1.6-2.8,2.1-3.9
				c0.3-0.6,0.5-1,0.6-1.3c0.2-0.3,0.2-0.5,0.2-0.5c0,0,0.4-0.7,0.9-1.8c0.6-1,1.2-2.5,1.8-4c0.5-1.5,1.1-3,1.4-4.1
				c0.3-1.2,0.5-1.9,0.5-1.9s-0.1,0.8-0.3,2c-0.1,1.2-0.6,2.7-0.9,4.3c-0.5,1.5-0.9,3.1-1.4,4.2c-0.4,1.1-0.8,1.9-0.8,1.9
				c0,0-0.1,0.2-0.3,0.5c-0.2,0.3-0.5,0.8-0.8,1.3c-0.6,1.1-1.6,2.4-2.5,3.8c-1,1.3-2,2.6-2.9,3.4
				C289.3,176.1,288.8,176.7,288.8,176.7z"/>
		</g>
		<g id="XMLID_2910_">
			<path id="XMLID_2911_" class="st1" d="M232.5,130.1c0,0,0.7-0.1,1.6,0.5c0.9,0.6,1.4,2.2,1.4,3.7c0,1.5-0.2,2.9-0.2,4
				c0,0.5-0.1,1-0.1,1.3c0,0.3-0.1,0.5-0.1,0.5c0,0-0.2,0.7-0.4,1.7c-0.2,1-0.7,2.3-1.1,3.7c-0.4,1.3-1,2.6-1.4,3.5
				c-0.4,0.9-0.7,1.6-0.7,1.6s0.2-0.7,0.5-1.7c0.3-1,0.7-2.3,0.9-3.6c0.3-1.3,0.6-2.7,0.7-3.7c0.1-1,0.2-1.7,0.2-1.7
				c0,0,0-0.2,0.1-0.5c0.1-0.3,0.2-0.7,0.3-1.3c0.2-1,0.5-2.4,0.6-3.8c0.2-1.4-0.1-2.8-0.8-3.5c-0.4-0.4-0.7-0.5-1-0.6
				C232.6,130.1,232.5,130.1,232.5,130.1z"/>
		</g>
		<g id="XMLID_2908_">
			<path id="XMLID_2909_" class="st1" d="M233,130.4c0,0,0.4,0.5,1,1.3c0.7,0.8,1.4,2,2.2,3.1c0.7,1.2,1.4,2.4,1.8,3.4
				c0.2,0.5,0.4,0.9,0.6,1.2c0.1,0.3,0.2,0.5,0.2,0.5c0,0,0.2,0.7,0.5,1.7c0.3,1,0.5,2.3,0.8,3.7c0.2,1.4,0.4,2.7,0.4,3.7
				c0.1,1,0.1,1.7,0.1,1.7s-0.1-0.7-0.3-1.7c-0.1-1-0.5-2.3-0.8-3.6c-0.4-1.3-0.8-2.5-1.2-3.5c-0.4-0.9-0.6-1.5-0.6-1.6
				c0,0-0.1-0.2-0.2-0.5c-0.1-0.3-0.2-0.7-0.4-1.2c-0.3-1-0.9-2.2-1.4-3.5c-0.6-1.2-1.2-2.5-1.8-3.3C233.3,131,233,130.4,233,130.4z
				"/>
		</g>
		<g id="XMLID_2906_">
			<path id="XMLID_2907_" class="st1" d="M233.1,126.7c0,0,0.7,0.6,1.8,1.6c1.1,0.9,2.4,2.3,3.7,3.7c1.2,1.5,2.4,3,3.2,4.2
				c0.4,0.6,0.7,1.1,1,1.5c0.2,0.4,0.4,0.6,0.4,0.6c0,0,0.4,0.9,1,2.2c0.6,1.3,1.1,3.1,1.7,4.9c0.4,1.9,0.9,3.7,1,5.1
				c0.2,1.4,0.3,2.3,0.3,2.3s-0.2-0.9-0.5-2.3c-0.2-1.4-0.9-3.1-1.4-4.9c-0.7-1.7-1.4-3.4-2.1-4.6c-0.7-1.2-1.1-2.1-1.1-2.1
				c0,0-0.5-0.9-1.1-2.1c-0.6-1.3-1.7-2.8-2.8-4.4c-1.2-1.5-2.3-3-3.3-4C233.8,127.3,233.1,126.7,233.1,126.7z"/>
		</g>
		<g id="XMLID_2904_">
			<path id="XMLID_2905_" class="st1" d="M321.3,172.9c0,0-0.4-0.3-0.9-0.8c-0.6-0.4-1.2-1.2-2-1.9c-0.6-0.8-1.3-1.5-1.8-2.1
				c-0.2-0.3-0.4-0.6-0.5-0.7c-0.1-0.2-0.2-0.3-0.2-0.3c0,0-0.2-0.5-0.5-1.2c-0.3-0.7-0.6-1.6-0.9-2.6c-0.2-1-0.5-1.9-0.6-2.6
				c-0.1-0.7-0.2-1.2-0.2-1.2s0.2,0.5,0.4,1.1c0.2,0.7,0.6,1.6,1,2.4c0.5,0.8,0.8,1.7,1.3,2.3c0.4,0.6,0.6,1,0.6,1
				c0,0,0.2,0.5,0.6,1.1c0.3,0.7,0.8,1.5,1.3,2.3c0.6,0.8,1.1,1.6,1.6,2.1C321,172.6,321.3,172.9,321.3,172.9z"/>
		</g>
		<g id="XMLID_2902_">
			<path id="XMLID_2903_" class="st1" d="M328.2,160c0,0-4-3.8-4-3.9c0,0-2.9-4.6-2.9-4.6s3.9,3.7,3.9,3.7
				C325.3,155.2,328.2,160,328.2,160z"/>
		</g>
		<g id="XMLID_2900_">
			<path id="XMLID_2901_" class="st1" d="M316.7,130.5c0,0-0.4,0-0.9,0c-0.5,0-1.2-0.1-2-0.1c-0.7-0.1-1.4-0.2-2-0.4
				c-0.3-0.1-0.5-0.1-0.7-0.2c-0.2,0-0.3-0.1-0.3-0.1c0,0-0.3-0.2-0.8-0.5c-0.5-0.3-1-0.8-1.6-1.2c-0.5-0.5-1.1-1-1.4-1.4
				c-0.4-0.4-0.6-0.7-0.6-0.7s0.3,0.2,0.7,0.5c0.4,0.3,1,0.6,1.6,1c0.6,0.3,1.2,0.6,1.7,0.7c0.5,0.2,0.8,0.3,0.8,0.3
				c0,0,0.3,0.2,0.8,0.4c0.5,0.3,1.1,0.5,1.8,0.8c0.7,0.2,1.3,0.5,1.9,0.6C316.3,130.4,316.7,130.5,316.7,130.5z"/>
		</g>
		<g id="XMLID_2898_">
			<path id="XMLID_2899_" class="st1" d="M237.1,110.6c0,0,0.2-0.1,0.6-0.2c0.4-0.1,1-0.3,1.7-0.5c1.4-0.4,3.3-0.6,5.2-0.8
				c1.9-0.1,3.8,0,5.3,0.2c0.7,0.1,1.3,0.2,1.8,0.3c0.4,0.1,0.7,0.1,0.7,0.1c0,0,0.3,0.1,0.7,0.2c0.4,0.1,1,0.3,1.6,0.6
				c1.3,0.5,3,1.3,4.7,2.3c1.6,1,3.1,2.1,4.2,3.1c0.5,0.4,0.9,0.9,1.2,1.2c0.3,0.3,0.5,0.5,0.5,0.5s-0.2-0.1-0.5-0.4
				c-0.3-0.2-0.7-0.7-1.3-1c-1.1-0.8-2.7-1.8-4.3-2.6c-1.7-0.8-3.4-1.4-4.7-1.8c-0.7-0.2-1.2-0.3-1.6-0.4c-0.4-0.1-0.6-0.1-0.6-0.1
				c0,0-0.3-0.1-0.7-0.2c-0.4-0.1-1-0.3-1.7-0.4c-1.4-0.3-3.2-0.6-5.1-0.7c-1.9,0-3.8,0.1-5.2,0.3c-0.7,0.1-1.3,0.2-1.7,0.3
				C237.3,110.6,237.1,110.6,237.1,110.6z"/>
		</g>
		<g id="XMLID_2896_">
			<path id="XMLID_2897_" class="st1" d="M237.1,111.6c0,0,0.9,0.2,2.3,0.5c1.4,0.3,3.2,0.8,5,1.3c1.8,0.6,3.6,1.1,4.9,1.7
				c0.7,0.3,1.2,0.5,1.6,0.6c0.4,0.1,0.6,0.2,0.6,0.3c0,0,0.9,0.5,2.1,1.1c1.2,0.6,2.8,1.6,4.4,2.6c1.5,1,3.1,2,4.2,2.9
				c1.1,0.8,1.9,1.4,1.9,1.4s-0.8-0.5-2-1.2c-1.2-0.7-2.8-1.6-4.4-2.4c-1.7-0.8-3.3-1.6-4.6-2.1c-1.3-0.5-2.1-0.9-2.2-0.9
				c0,0-0.2-0.1-0.6-0.3c-0.4-0.2-0.9-0.4-1.6-0.7c-1.3-0.7-3-1.3-4.7-2.1c-1.8-0.6-3.5-1.4-4.9-1.8
				C238,111.8,237.1,111.6,237.1,111.6z"/>
		</g>
		<g id="XMLID_2894_">
			<path id="XMLID_2895_" class="st1" d="M234.7,113.8c0,0,0.6,0.1,1.6,0.2c1,0.1,2.2,0.4,3.4,0.6c1.2,0.4,2.5,0.7,3.4,1
				c0.5,0.2,0.8,0.3,1.1,0.4c0.3,0.1,0.4,0.2,0.4,0.2c0,0,0.6,0.4,1.4,0.9c0.8,0.5,1.8,1.3,2.8,2.1c0.9,0.9,1.9,1.7,2.5,2.4
				c0.6,0.7,1.1,1.1,1.1,1.1s-0.5-0.4-1.2-1c-0.7-0.6-1.7-1.3-2.8-2c-1.1-0.6-2.1-1.3-3-1.6c-0.8-0.4-1.4-0.7-1.4-0.7
				c0,0-0.6-0.3-1.4-0.8c-0.8-0.5-2-0.9-3.1-1.5c-1.2-0.4-2.4-0.9-3.3-1C235.3,114,234.7,113.8,234.7,113.8z"/>
		</g>
		<g id="XMLID_2892_">
			<path id="XMLID_2893_" class="st1" d="M225,92.6c0,0,9.9,2.2,10,2.3c0.1,0,9.4,3.5,9.4,3.5s-9.6-2.2-9.7-2.2
				C234.6,96.1,225,92.6,225,92.6z"/>
		</g>
		<g id="XMLID_2890_">
			<path id="XMLID_2891_" class="st1" d="M161.4,72.5c0,0,0.5,0.8,1.2,2c0.2,0.3,0.4,0.6,0.6,0.9c0.2,0.3,0.5,0.6,0.7,1
				c0.5,0.7,1,1.4,1.6,2.1c0.6,0.6,1.2,1.3,1.8,1.9c0.1,0.1,0.3,0.3,0.4,0.4c0.2,0.1,0.3,0.3,0.5,0.4c0.3,0.2,0.6,0.5,0.8,0.7
				c0.5,0.4,0.9,0.8,1.2,1c0.3,0.3,0.5,0.4,0.5,0.4c0,0,0.7,0.6,1.7,1.4c0.3,0.2,0.5,0.4,0.8,0.6c0.3,0.2,0.6,0.4,1,0.6
				c0.7,0.4,1.4,0.9,2.1,1.3c1.5,0.7,3,1.6,4.3,1.9c1.2,0.4,2,0.7,2,0.7s-0.8-0.2-2.1-0.5c-1.3-0.2-2.9-0.9-4.5-1.5
				c-0.8-0.3-1.6-0.8-2.3-1.1c-0.4-0.2-0.7-0.4-1.1-0.5c-0.3-0.2-0.6-0.4-0.9-0.6c-1.1-0.7-1.9-1.2-1.9-1.2c0,0-0.2-0.1-0.5-0.4
				c-0.3-0.3-0.7-0.7-1.2-1.2c-0.2-0.2-0.5-0.5-0.8-0.8c-0.1-0.1-0.3-0.3-0.4-0.4c-0.1-0.2-0.3-0.3-0.4-0.5
				c-0.5-0.7-1.1-1.4-1.7-2.1c-0.5-0.7-1-1.6-1.5-2.3c-0.2-0.4-0.5-0.7-0.6-1.1c-0.2-0.4-0.3-0.7-0.5-1
				C161.8,73.3,161.4,72.5,161.4,72.5z"/>
		</g>
		<g id="XMLID_2888_">
			<path id="XMLID_2889_" class="st1" d="M160.1,76.4c0,0,1.1,1.9,2.2,3.8c0.6,0.9,1.2,1.8,1.7,2.5c0.2,0.3,0.4,0.6,0.6,0.8
				c0.1,0.2,0.2,0.3,0.2,0.3c0,0,1.1,1.9,2.1,3.7c1.2,1.8,2.4,3.5,2.4,3.5s-1.4-1.6-2.9-3.1c-1.3-1.7-2.7-3.4-2.7-3.4
				c0,0-0.1-0.1-0.2-0.4c-0.1-0.2-0.3-0.5-0.4-0.9c-0.4-0.8-0.8-1.8-1.3-2.8C160.9,78.5,160.1,76.4,160.1,76.4z"/>
		</g>
		<g id="XMLID_2886_">
			<path id="XMLID_2887_" class="st1" d="M159.7,77.3c0,0,0.1,0.6,0.2,1.5c0.1,0.9,0.3,2.1,0.5,3.3c0.3,1.2,0.5,2.4,0.8,3.3
				c0.1,0.4,0.2,0.8,0.3,1.1c0.1,0.3,0.1,0.4,0.1,0.4c0,0,0.1,0.6,0.3,1.5c0.1,0.9,0.5,2,0.8,3.2c0.4,1.1,0.7,2.3,1,3.1
				c0.3,0.8,0.5,1.4,0.5,1.4s-0.3-0.5-0.7-1.3c-0.5-0.8-0.9-1.9-1.5-2.9c-0.5-1.1-1-2.2-1.2-3.1c-0.3-0.9-0.5-1.5-0.5-1.5
				c0,0,0-0.2-0.1-0.5c0-0.3-0.1-0.7-0.2-1.1c-0.2-0.9-0.2-2.2-0.3-3.4c0-1.3-0.1-2.5,0-3.4C159.7,78,159.7,77.3,159.7,77.3z"/>
		</g>
		<g id="XMLID_2884_">
			<path id="XMLID_2885_" class="st1" d="M127.4,81.3c0,0,0.6,0.3,1.5,0.7c0.9,0.4,2.1,1,3.3,1.6c1.2,0.7,2.3,1.3,3.2,1.9
				c0.4,0.3,0.8,0.5,1,0.7c0.3,0.2,0.4,0.3,0.4,0.3c0,0,0.5,0.5,1.2,1.2c0.7,0.7,1.6,1.7,2.6,2.6c0.9,1,1.7,2,2.3,2.8
				c0.6,0.8,1,1.3,1,1.3s-0.5-0.5-1.2-1.1c-0.7-0.7-1.7-1.5-2.6-2.4c-1-0.8-2-1.7-2.8-2.2c-0.8-0.6-1.3-1-1.3-1c0,0-0.5-0.5-1.3-1.1
				c-0.8-0.7-1.8-1.5-2.9-2.3c-1.1-0.7-2.2-1.5-3-2C128,81.7,127.4,81.3,127.4,81.3z"/>
		</g>
		<g id="XMLID_2882_">
			<path id="XMLID_2883_" class="st1" d="M123.4,85c0,0,0.6,0.2,1.4,0.6c0.9,0.3,2,1,3.1,1.5c1.1,0.7,2.2,1.3,3,1.9
				c0.4,0.3,0.7,0.5,1,0.7c0.2,0.2,0.4,0.3,0.4,0.3c0,0,0.5,0.5,1.1,1.2c0.7,0.7,1.4,1.7,2.2,2.6c0.7,1,1.5,2,1.9,2.8
				c0.5,0.8,0.8,1.3,0.8,1.3s-0.4-0.5-1-1.2c-0.6-0.7-1.4-1.6-2.3-2.5c-0.9-0.8-1.8-1.7-2.5-2.2c-0.7-0.6-1.2-1-1.2-1
				c0,0-0.5-0.4-1.2-1.1c-0.7-0.7-1.7-1.4-2.6-2.2c-1-0.7-2-1.5-2.8-1.9C124,85.4,123.4,85,123.4,85z"/>
		</g>
		<g id="XMLID_2880_">
			<path id="XMLID_2881_" class="st1" d="M124.2,85.8c0,0,0.2,0.4,0.5,1.1c0.4,0.6,0.7,1.5,1.1,2.4c0.3,0.9,0.7,1.8,0.9,2.5
				c0.1,0.4,0.2,0.7,0.3,0.9c0.1,0.2,0.1,0.3,0.1,0.3c0,0,0,0.5,0.1,1.2c0.1,0.7,0,1.7,0,2.6c-0.1,0.9-0.1,1.9-0.2,2.6
				c-0.1,0.7-0.1,1.2-0.1,1.2s0-0.5-0.1-1.2c0-0.7-0.2-1.6-0.3-2.5c-0.2-0.9-0.3-1.8-0.5-2.5c-0.2-0.7-0.3-1.1-0.3-1.1
				c0,0,0-0.1,0-0.3c0-0.2-0.1-0.5-0.1-0.9c-0.1-0.7-0.3-1.6-0.4-2.6c-0.2-0.9-0.4-1.9-0.7-2.5C124.4,86.3,124.2,85.8,124.2,85.8z"
				/>
		</g>
		<g id="XMLID_2878_">
			<path id="XMLID_2879_" class="st1" d="M102.1,80.5c0,0-0.3,0.6-0.9,1.4c-0.6,0.8-1.1,2-1.7,3.2c-0.5,1.2-1,2.4-1.3,3.4
				c-0.1,0.5-0.3,0.9-0.3,1.1c-0.1,0.3-0.1,0.4-0.1,0.5c0,0-0.2,0.6-0.5,1.5c-0.4,0.9-0.6,2.2-0.9,3.4c-0.2,1.3-0.4,2.5-0.4,3.5
				c-0.1,1-0.1,1.6-0.1,1.6s0-0.6-0.1-1.6c-0.1-1,0-2.3,0-3.6c0.2-1.3,0.2-2.6,0.5-3.6c0.2-1,0.3-1.7,0.3-1.7c0,0,0.1-0.2,0.2-0.5
				c0.1-0.3,0.3-0.7,0.5-1.1c0.4-1,1.1-2.1,1.7-3.3c0.8-1.1,1.4-2.2,2.1-3C101.7,81,102.1,80.5,102.1,80.5z"/>
		</g>
		<g id="XMLID_2876_">
			<path id="XMLID_2877_" class="st1" d="M100.3,81.8c0,0-1.3,1.5-2.6,3c-1.2,1.6-2.3,3.1-2.4,3.2c0,0-1.3,1.4-2.6,2.8
				c-1.2,1.5-2.3,3-2.3,3s0.9-1.7,1.8-3.4c1-1.6,2.1-3.3,2.1-3.3c0,0,0.1-0.1,0.3-0.3c0.2-0.2,0.4-0.4,0.7-0.6
				c0.5-0.5,1.3-1.2,2-1.9C98.8,83.1,100.3,81.8,100.3,81.8z"/>
		</g>
		<g id="XMLID_2874_">
			<path id="XMLID_2875_" class="st1" d="M98.9,79.1c0,0-0.7,0.2-1.9,0.5c-1.1,0.2-2.5,0.8-4,1.3c-1.4,0.7-2.8,1.3-3.7,1.9
				c-1,0.6-1.6,1-1.7,1c0,0-0.7,0.4-1.6,1c-1,0.5-2.1,1.5-3.3,2.4c-1.1,1-2.2,2-2.9,2.9c-0.7,0.9-1.2,1.5-1.2,1.5S79,91,79.6,90
				c0.6-1,1.6-2.1,2.6-3.3c1.1-1,2.2-2.2,3.1-2.9c0.9-0.7,1.6-1.2,1.6-1.2c0,0,0.7-0.4,1.8-0.9c1-0.6,2.6-1,4-1.5
				c1.5-0.3,3-0.8,4.2-0.9C98.1,79.2,98.9,79.1,98.9,79.1z"/>
		</g>
		<g id="XMLID_2872_">
			<path id="XMLID_2873_" class="st1" d="M113.6,94.2c0,0,0,0.2,0,0.4c0,0.3-0.1,0.6,0,1.1c0,0.9,0.1,2.1,0.3,3.2
				c0.2,1.2,0.6,2.3,1,3.1c0.2,0.4,0.3,0.7,0.4,1c0.1,0.2,0.2,0.4,0.2,0.4c0,0,0.1,0.1,0.1,0.4c0.1,0.2,0.2,0.6,0.4,0.9
				c0.3,0.8,0.9,1.8,1.5,2.7c0.6,0.9,1.4,1.8,2,2.4c0.6,0.6,1.1,0.9,1.1,0.9s-0.5-0.3-1.2-0.8c-0.7-0.5-1.6-1.2-2.4-2.1
				c-0.8-0.9-1.5-1.8-2-2.6c-0.3-0.4-0.4-0.7-0.6-0.9c-0.1-0.2-0.2-0.4-0.2-0.4c0,0-0.1-0.2-0.2-0.4c-0.1-0.3-0.2-0.6-0.3-1.1
				c-0.2-0.9-0.5-2.1-0.6-3.4c-0.1-1.2,0-2.5,0.1-3.4c0-0.5,0.2-0.8,0.2-1.1C113.6,94.4,113.6,94.2,113.6,94.2z"/>
		</g>
		<g id="XMLID_2870_">
			<path id="XMLID_2871_" class="st1" d="M101.6,97.4c0,0-0.2,0.4-0.4,1.1c-0.3,0.6-0.5,1.5-0.7,2.4c-0.1,0.9-0.3,1.8-0.3,2.4
				c0,0.3,0,0.6-0.1,0.8c0,0.2,0,0.3,0,0.3c0,0-0.1,0.4-0.2,1.1c-0.1,0.6-0.2,1.5-0.2,2.4c0,0.9,0,1.8,0.1,2.4
				c0.1,0.7,0.1,1.1,0.1,1.1s-0.1-0.4-0.3-1c-0.2-0.6-0.4-1.5-0.6-2.4c-0.1-0.9-0.3-1.8-0.2-2.5c0-0.7,0-1.2,0-1.2
				c0,0,0-0.1,0.1-0.3c0.1-0.2,0.1-0.5,0.2-0.8c0.1-0.7,0.5-1.6,0.8-2.4c0.4-0.8,0.8-1.7,1.1-2.2C101.4,97.8,101.6,97.4,101.6,97.4z
				"/>
		</g>
		<g id="XMLID_2868_">
			<path id="XMLID_2869_" class="st1" d="M146.5,83.1c0,0,1.6,2.5,3.2,5.1c0.7,1.3,1.5,2.7,2,3.7c0.3,0.5,0.5,0.9,0.7,1.2
				c0.2,0.3,0.3,0.5,0.3,0.5c0,0,1,2.9,1.9,5.7c0.7,2.9,1.5,5.7,1.5,5.7s-1-2.7-2.1-5.5c-1.2-2.7-2.5-5.3-2.5-5.4
				c0,0-1.2-2.9-2.3-5.7C147.8,85.8,146.5,83.1,146.5,83.1z"/>
		</g>
		<g id="XMLID_2866_">
			<path id="XMLID_2867_" class="st1" d="M64.3,113.5c0,0-0.2,0.5-0.5,1.2c-0.3,0.7-0.6,1.7-0.9,2.6c-0.2,1-0.4,2-0.5,2.7
				c0,0.4-0.1,0.7-0.1,0.9c0,0.2,0,0.4,0,0.4c0,0-0.1,0.5-0.2,1.2c-0.2,0.7-0.2,1.7-0.3,2.7c0,1,0,2,0.1,2.7
				c0.1,0.7,0.1,1.2,0.1,1.2s-0.1-0.5-0.3-1.2c-0.2-0.7-0.4-1.7-0.5-2.7c-0.1-1-0.2-2-0.2-2.8c0-0.8,0-1.3,0-1.3c0,0,0-0.1,0.1-0.4
				c0.1-0.2,0.2-0.6,0.3-0.9c0.2-0.8,0.6-1.7,1-2.7c0.5-0.9,0.9-1.9,1.3-2.5C64,114,64.3,113.5,64.3,113.5z"/>
		</g>
		<g id="XMLID_2864_">
			<path id="XMLID_2865_" class="st1" d="M51.1,108.7c0,0-0.3,0.6-0.9,1.5c-0.6,0.9-1.1,2.2-1.6,3.5c-0.4,1.3-0.9,2.7-1.1,3.7
				c-0.1,0.5-0.2,0.9-0.3,1.3c-0.1,0.3-0.1,0.5-0.1,0.5c0,0-0.2,0.7-0.4,1.7c-0.1,0.2-0.1,0.5-0.2,0.8c-0.1,0.3-0.1,0.6-0.2,0.9
				c-0.1,0.6-0.2,1.3-0.3,2c-0.1,1.4-0.3,2.7-0.2,3.8c0,1,0,1.7,0,1.7s-0.1-0.7-0.2-1.7c-0.2-1-0.2-2.4-0.3-3.8
				c0-0.7,0.1-1.4,0.1-2.1c0-0.3,0-0.7,0.1-1c0-0.3,0.1-0.6,0.1-0.9c0.2-1.1,0.3-1.8,0.3-1.8c0,0,0.1-0.2,0.2-0.5
				c0.1-0.3,0.3-0.7,0.5-1.3c0.3-1.1,1-2.3,1.6-3.6c0.7-1.2,1.4-2.5,2.1-3.3C50.7,109.2,51.1,108.7,51.1,108.7z"/>
		</g>
		<g id="XMLID_2862_">
			<path id="XMLID_2863_" class="st1" d="M55.2,117.6c0,0-0.2,0.5-0.6,1.3c-0.4,0.8-0.7,1.9-1.1,2.9c-0.3,1.1-0.6,2.2-0.8,3
				c-0.1,0.4-0.2,0.8-0.2,1c-0.1,0.2-0.1,0.4-0.1,0.4c0,0-0.2,0.5-0.4,1.3c-0.3,0.8-0.5,1.9-0.8,2.9c-0.2,1.1-0.4,2.2-0.5,3
				c-0.1,0.8-0.1,1.4-0.1,1.4s0-0.6-0.1-1.4c-0.1-0.8,0-2,0-3.1c0.1-1.1,0.2-2.3,0.3-3.1c0.1-0.9,0.2-1.4,0.2-1.4c0,0,0-0.2,0.1-0.4
				c0.1-0.2,0.2-0.6,0.4-1c0.3-0.8,0.8-1.9,1.3-2.9c0.5-1,1-2,1.5-2.8C54.9,118.1,55.2,117.6,55.2,117.6z"/>
		</g>
		<g id="XMLID_2860_">
			<path id="XMLID_2861_" class="st1" d="M72.7,91.7c0,0-8.4,7.6-8.4,7.6c-0.1,0.1-9,6.3-9,6.3s8.1-7.4,8.2-7.4
				C63.5,98.2,72.7,91.7,72.7,91.7z"/>
		</g>
		<g id="XMLID_2835_">
			<path id="XMLID_2836_" class="st1" d="M79.5,78.8c0,0-1.8,1.1-3.6,2.1c-1.7,1.2-3.4,2.5-3.5,2.5c0,0-1.8,1.1-3.5,2.2
				c-1.6,1.2-3.3,2.5-3.3,2.5s1.4-1.5,2.9-3c1.6-1.4,3.2-2.8,3.2-2.8c0,0,0.1-0.1,0.3-0.2c0.2-0.1,0.5-0.3,0.9-0.4
				c0.7-0.4,1.7-0.8,2.6-1.3C77.6,79.5,79.5,78.8,79.5,78.8z"/>
		</g>
		<g id="XMLID_2833_">
			<path id="XMLID_2834_" class="st1" d="M139.8,67.1c0,0-0.7,0-1.7,0c-0.5,0-1.1,0-1.8,0c-0.7,0.1-1.3,0-2,0.2
				c-0.7,0.1-1.4,0.2-2,0.3c-0.6,0.1-1.2,0.2-1.8,0.4c-0.5,0.1-0.9,0.2-1.2,0.3c-0.3,0.1-0.5,0.1-0.5,0.1c0,0-0.2,0-0.5,0.1
				c-0.3,0.1-0.7,0.1-1.2,0.2c-1,0.2-2.3,0.5-3.6,0.9c-0.3,0.1-0.7,0.2-1,0.3c-0.3,0.1-0.6,0.2-0.9,0.3c-0.3,0.1-0.6,0.2-0.9,0.3
				c-0.1,0-0.2,0.1-0.4,0.1c-0.1,0-0.3,0-0.2,0.2c0,1,0,1.7,0,1.7s-0.1-0.7-0.2-1.8c-0.1-0.2,0.1-0.2,0.3-0.3
				c0.1-0.1,0.3-0.1,0.4-0.2c0.3-0.1,0.5-0.3,0.8-0.4c0.3-0.1,0.6-0.3,0.9-0.5c0.3-0.1,0.6-0.3,0.9-0.4c1.3-0.6,2.6-1,3.6-1.4
				c0.5-0.2,0.9-0.3,1.2-0.4c0.3-0.1,0.5-0.1,0.5-0.1c0,0,0.2,0,0.5-0.1c0.3-0.1,0.8-0.1,1.3-0.1c0.5,0,1.2-0.1,1.8-0.1
				c0.7,0,1.4,0,2.1,0c0.7,0,1.4,0.1,2.1,0.1c0.7,0,1.3,0.1,1.8,0.2C139.1,67,139.8,67.1,139.8,67.1z"/>
		</g>
		<g id="XMLID_2831_">
			<path id="XMLID_2832_" class="st1" d="M297.7,93.3c0,0-7.8,5.3-7.8,5.4c-0.1,0-8.3,4-8.3,4s7.5-5.2,7.6-5.2
				C289.3,97.4,297.7,93.3,297.7,93.3z"/>
		</g>
		<g id="XMLID_2829_">
			<path id="XMLID_2830_" class="st1" d="M301.9,100.6c0,0-0.4,0-0.9,0c-0.5-0.1-1.2,0-1.9,0.1c-0.7,0.1-1.4,0.2-1.9,0.4
				c-0.2,0.1-0.5,0.1-0.6,0.2c-0.1,0-0.2,0.1-0.2,0.1c0,0-0.3,0.1-0.8,0.1c-0.5,0-1.1,0.3-1.8,0.5c-0.6,0.3-1.3,0.5-1.7,0.8
				c-0.5,0.3-0.8,0.4-0.8,0.4s0.3-0.2,0.6-0.6c0.4-0.4,1-0.8,1.5-1.2c0.6-0.4,1.2-0.8,1.8-1c0.5-0.2,0.9-0.4,0.9-0.4
				c0,0,0.1,0,0.3,0c0.2,0,0.4,0,0.7,0c0.6-0.1,1.3,0,2,0c0.7,0.1,1.4,0.2,2,0.4C301.6,100.5,301.9,100.6,301.9,100.6z"/>
		</g>
		<g id="XMLID_2822_">
			<path id="XMLID_2828_" class="st1" d="M319.9,118.5c0,0-0.5-0.4-1.4-1.1c-0.2-0.2-0.4-0.3-0.7-0.5c-0.2-0.2-0.5-0.3-0.8-0.5
				c-0.5-0.3-1.1-0.7-1.7-1.1c-1.2-0.6-2.4-1.2-3.4-1.5c-0.5-0.2-0.9-0.3-1.2-0.4c-0.3-0.1-0.5-0.1-0.5-0.1c0,0-0.6-0.3-1.6-0.6
				c-0.2-0.1-0.5-0.2-0.7-0.3c-0.3-0.1-0.6-0.2-0.9-0.3c-0.6-0.2-1.2-0.4-1.9-0.5c-1.3-0.2-2.6-0.5-3.6-0.6c-1-0.1-1.6-0.1-1.6-0.1
				s0.7,0,1.7-0.1c1-0.1,2.3,0,3.7,0.1c0.7,0.1,1.3,0.2,2,0.3c0.3,0.1,0.6,0.1,0.9,0.1c0.3,0.1,0.6,0.1,0.8,0.2
				c1,0.3,1.7,0.4,1.7,0.4c0,0,0.2,0.1,0.5,0.2c0.3,0.1,0.7,0.4,1.2,0.6c1,0.4,2.1,1.3,3.3,2c0.6,0.4,1.1,0.9,1.6,1.3
				c0.3,0.2,0.5,0.4,0.7,0.6c0.2,0.2,0.4,0.4,0.6,0.6C319.4,118,319.9,118.5,319.9,118.5z"/>
		</g>
		<g id="XMLID_2820_">
			<path id="XMLID_2821_" class="st1" d="M323.4,121.8c0,0-0.6-0.2-1.6-0.4c-0.9-0.3-2.3-0.4-3.5-0.5c-1.3,0-2.6,0-3.6,0.2
				c-0.5,0.1-0.9,0.1-1.2,0.2c-0.3,0-0.4,0.1-0.5,0.1c0,0-0.6,0.1-1.6,0.2c-0.2,0-0.5,0.1-0.8,0.1c-0.3,0-0.5,0.1-0.8,0.2
				c-0.6,0.2-1.2,0.3-1.8,0.5c-1.2,0.5-2.4,0.9-3.2,1.4c-0.8,0.5-1.4,0.8-1.4,0.8s0.5-0.4,1.3-1c0.7-0.7,1.9-1.2,3.1-1.9
				c0.6-0.3,1.2-0.5,1.8-0.7c0.3-0.1,0.6-0.2,0.8-0.3c0.3-0.1,0.5-0.1,0.8-0.2c1-0.3,1.6-0.4,1.6-0.4c0,0,0.2,0,0.5,0
				c0.3,0,0.7,0,1.2,0c1-0.1,2.4,0.2,3.7,0.3c1.3,0.3,2.6,0.6,3.5,1C322.8,121.6,323.4,121.8,323.4,121.8z"/>
		</g>
		<g id="XMLID_2818_">
			<path id="XMLID_2819_" class="st1" d="M323.1,136.7c0,0-0.4,0.3-0.9,0.8c-0.5,0.5-1.3,1.1-2.2,1.7c-0.8,0.5-1.7,1.1-2.4,1.4
				c-0.3,0.2-0.6,0.3-0.8,0.4c-0.2,0.1-0.3,0.1-0.3,0.2c0,0-0.5,0.1-1.2,0.3c-0.4,0.1-0.8,0.2-1.2,0.2c-0.4,0.1-0.9,0.1-1.4,0.2
				c-1,0-1.9,0.1-2.6,0c-0.7,0-1.2-0.1-1.2-0.1s0.5-0.1,1.2-0.2c0.7-0.1,1.6-0.3,2.5-0.5c0.5-0.1,0.9-0.3,1.3-0.4
				c0.4-0.1,0.8-0.3,1.1-0.4c0.7-0.3,1.1-0.4,1.1-0.5c0,0,0.1,0,0.3-0.1c0.2-0.1,0.5-0.1,0.8-0.3c0.7-0.2,1.6-0.6,2.5-0.9
				c0.9-0.4,1.7-0.8,2.3-1.3C322.7,137,323.1,136.7,323.1,136.7z"/>
		</g>
		<g id="XMLID_2816_">
			<path id="XMLID_2817_" class="st1" d="M329.6,143.5c0,0-0.7-0.1-1.6-0.4c-1-0.3-2.3-0.4-3.6-0.5c-1.3,0-2.7-0.1-3.6,0
				c-0.5,0-0.9,0.1-1.2,0.1c-0.3,0-0.5,0-0.5,0c0,0-0.7,0-1.6,0.1c-0.2,0-0.5,0-0.8,0c-0.3,0-0.6,0.1-0.9,0.1
				c-0.6,0.1-1.2,0.2-1.9,0.3c-1.2,0.3-2.5,0.6-3.4,0.9c-0.9,0.3-1.5,0.5-1.5,0.5s0.6-0.3,1.5-0.7c0.9-0.5,2.1-0.9,3.4-1.4
				c0.6-0.2,1.3-0.4,1.9-0.5c0.3-0.1,0.6-0.2,0.9-0.2c0.3,0,0.6-0.1,0.8-0.1c1-0.2,1.7-0.3,1.7-0.3c0,0,0.2,0,0.5,0
				c0.3,0,0.7,0,1.3,0.1c1,0,2.4,0.3,3.7,0.4c1.3,0.3,2.7,0.6,3.6,1C328.9,143.3,329.6,143.5,329.6,143.5z"/>
		</g>
		<g id="XMLID_2814_">
			<path id="XMLID_2815_" class="st1" d="M286.7,85.9c0,0-0.7-0.1-1.7-0.3c-1-0.2-2.4-0.3-3.8-0.4c-1.4,0.1-2.8,0.1-3.8,0.3
				c-0.5,0.1-0.9,0.1-1.2,0.2c-0.3,0-0.5,0.1-0.5,0.1c0,0-0.7,0.1-1.7,0.2c-0.2,0-0.5,0.1-0.8,0.1c-0.3,0-0.6,0.1-0.9,0.2
				c-0.6,0.1-1.3,0.3-1.9,0.5c-1.3,0.5-2.6,0.8-3.5,1.3c-0.9,0.4-1.5,0.7-1.5,0.7s0.6-0.4,1.4-0.9c0.8-0.6,2.1-1.2,3.3-1.8
				c0.6-0.2,1.3-0.5,1.9-0.7c0.3-0.1,0.6-0.2,0.9-0.3c0.3-0.1,0.6-0.1,0.8-0.2c1-0.3,1.7-0.4,1.7-0.4c0,0,0.2,0,0.5,0
				c0.3,0,0.8,0,1.3,0c1.1-0.1,2.5,0.1,3.9,0.2c1.4,0.3,2.8,0.5,3.8,0.8C286.1,85.7,286.7,85.9,286.7,85.9z"/>
		</g>
		<g id="XMLID_2812_">
			<path id="XMLID_2813_" class="st1" d="M279.8,82.7c0,0-2.5-0.8-5.1-1.6c-1.3-0.3-2.6-0.6-3.6-0.9c-0.5-0.1-0.9-0.2-1.2-0.3
				c-0.3-0.1-0.5-0.1-0.5-0.1c0,0-2.5-0.8-5-1.6c-2.5-0.7-5-1.3-5-1.3s2.6,0.3,5.1,0.7c2.6,0.5,5.1,1,5.2,1c0,0,0.2,0.1,0.5,0.2
				c0.3,0.1,0.7,0.3,1.2,0.5c0.9,0.4,2.2,0.9,3.5,1.4C277.4,81.6,279.8,82.7,279.8,82.7z"/>
		</g>
		<g id="XMLID_2810_">
			<path id="XMLID_2811_" class="st1" d="M272.3,81c0,0-0.9-0.6-2.3-1.6c-0.3-0.2-0.7-0.5-1.1-0.8c-0.4-0.3-0.8-0.5-1.3-0.7
				c-0.9-0.5-1.9-1-2.8-1.5c-2-0.9-4-1.8-5.6-2.2c-0.8-0.2-1.4-0.5-1.9-0.6c-0.5-0.2-0.7-0.2-0.8-0.2c0,0-1.1-0.3-2.6-0.8
				c-0.4-0.1-0.8-0.2-1.2-0.4c-0.4-0.1-0.9-0.2-1.4-0.3c-1-0.2-2-0.4-3.1-0.6c-2.1-0.2-4.2-0.5-5.8-0.4c-1.6,0-2.7,0-2.7,0
				s1.1-0.1,2.6-0.2c1.6-0.2,3.7-0.1,5.9-0.1c1.1,0.1,2.1,0.2,3.1,0.3c0.5,0.1,1,0.1,1.5,0.2c0.5,0.1,0.9,0.2,1.3,0.3
				c1.6,0.3,2.7,0.6,2.7,0.6c0,0,0.3,0.1,0.8,0.3c0.5,0.2,1.1,0.5,1.9,0.8c1.6,0.6,3.6,1.6,5.5,2.7c1,0.6,1.9,1.2,2.8,1.8
				c0.4,0.3,0.9,0.5,1.2,0.8c0.4,0.3,0.7,0.6,1.1,0.9C271.5,80.3,272.3,81,272.3,81z"/>
		</g>
		<g id="XMLID_2808_">
			<path id="XMLID_2809_" class="st1" d="M224.6,43.8c0,0,1.4,2.3,2.8,4.7c0.6,1.2,1.3,2.5,1.8,3.4c0.2,0.5,0.4,0.9,0.6,1.1
				c0.1,0.3,0.2,0.4,0.2,0.5c0,0,0.8,2.6,1.6,5.2c0.6,2.6,1.3,5.2,1.3,5.2s-1-2.5-1.9-5c-1.1-2.4-2.2-4.9-2.2-4.9c0,0-1-2.6-1.9-5.2
				C225.7,46.3,224.6,43.8,224.6,43.8z"/>
		</g>
		<g id="XMLID_2806_">
			<path id="XMLID_2807_" class="st1" d="M221.3,43.1c0,0,0.1,0.1,0.3,0.4c0.2,0.2,0.5,0.5,0.8,1c0.7,0.8,1.4,2,2,3.3
				c0.6,1.3,1.1,2.7,1.3,3.8c0.2,0.5,0.2,1,0.3,1.3c0.1,0.3,0.1,0.5,0.1,0.5c0,0,0,0.2,0,0.5c0,0.3,0,0.8,0,1.3
				c0,1.1-0.2,2.5-0.6,3.9c-0.3,1.4-0.9,2.7-1.3,3.6c-0.2,0.5-0.4,0.8-0.6,1.1c-0.1,0.3-0.2,0.4-0.2,0.4s0.1-0.2,0.2-0.4
				c0.1-0.3,0.3-0.7,0.4-1.2c0.3-1,0.7-2.3,0.8-3.7c0.1-1.4,0.2-2.7,0.1-3.7c0-0.5-0.1-0.9-0.1-1.2c0-0.3-0.1-0.5-0.1-0.5
				c0,0,0-0.2,0-0.5c0-0.3,0-0.8-0.1-1.3c-0.1-1-0.4-2.4-0.9-3.7c-0.5-1.3-1.1-2.6-1.6-3.5c-0.2-0.5-0.5-0.8-0.7-1.1
				C221.4,43.3,221.3,43.1,221.3,43.1z"/>
		</g>
		<g id="XMLID_2804_">
			<path id="XMLID_2805_" class="st1" d="M215.6,42.8c0,0,0.1,0.1,0.3,0.4c0.2,0.3,0.5,0.6,0.7,1c0.6,0.9,1.2,2.2,1.7,3.5
				c0.4,1.4,0.7,2.8,0.9,3.9c0.1,0.5,0.1,1,0.1,1.3c0,0.3,0,0.5,0,0.5c0,0,0,0.2-0.1,0.5c0,0.3-0.1,0.8-0.2,1.3
				c-0.2,1.1-0.6,2.4-1.1,3.7c-0.6,1.3-1.3,2.4-1.9,3.3c-0.3,0.4-0.6,0.7-0.8,1c-0.2,0.2-0.3,0.4-0.3,0.4s0.1-0.1,0.2-0.4
				c0.1-0.3,0.4-0.6,0.6-1c0.5-0.9,1-2.1,1.4-3.4c0.4-1.3,0.6-2.6,0.7-3.6c0.1-0.5,0-0.9,0.1-1.2c0-0.3,0-0.5,0-0.5c0,0,0-0.2,0-0.5
				c0-0.3,0.1-0.7,0.1-1.2c0-1-0.1-2.4-0.4-3.8c-0.3-1.3-0.8-2.7-1.2-3.6c-0.2-0.5-0.4-0.8-0.6-1.1
				C215.7,42.9,215.6,42.8,215.6,42.8z"/>
		</g>
		<g id="XMLID_2802_">
			<path id="XMLID_2803_" class="st1" d="M161.9,36.5c0,0,0.3,0,0.8-0.1c0.2,0,0.5-0.1,0.9-0.1c0.3,0,0.7,0,1.2,0.1
				c1.7,0.2,3.8,1.1,5.8,2.4c1.9,1.2,3.8,2.6,5.2,3.6c0.7,0.5,1.3,0.9,1.7,1.2c0.4,0.3,0.7,0.5,0.7,0.5c0,0,0.9,0.8,2.2,1.9
				c1.3,1.1,2.9,2.7,4.5,4.2c1.6,1.5,3.2,3.2,4.3,4.4c1.2,1.2,1.9,2,1.9,2s-0.8-0.7-2.1-1.9c-1.2-1.1-2.9-2.6-4.6-4
				c-1.7-1.4-3.4-2.9-4.8-3.9c-1.3-1-2.2-1.7-2.3-1.7c0,0-0.2-0.2-0.6-0.6c-0.4-0.4-0.9-0.8-1.6-1.3c-1.4-1.1-3.1-2.6-4.9-4
				c-1.8-1.3-3.8-2.4-5.5-2.7c-0.4-0.1-0.8-0.1-1.1-0.1c-0.3-0.1-0.6,0-0.9,0C162.2,36.5,161.9,36.5,161.9,36.5z"/>
		</g>
		<g id="XMLID_2800_">
			<path id="XMLID_2801_" class="st1" d="M161.3,38c0,0,0.2-0.1,0.5-0.2c0.3-0.1,0.9-0.2,1.5-0.2c1.3,0,2.9,0.5,4.4,1.5
				c0.7,0.5,1.4,1,2,1.5c0.6,0.5,1.1,1.1,1.6,1.5c0.9,0.9,1.6,1.5,1.6,1.5c0,0,0.1,0.2,0.4,0.5c0.2,0.3,0.5,0.7,0.9,1.3
				c0.4,0.5,0.8,1.1,1.3,1.7c0.4,0.7,0.8,1.4,1.3,2.1c0.4,0.7,0.9,1.4,1.2,2.1c0.3,0.7,0.6,1.4,0.9,1.9c0.5,1.1,0.9,1.9,0.9,1.9
				s-0.4-0.7-1.1-1.8c-0.3-0.5-0.7-1.2-1.1-1.8c-0.4-0.6-0.9-1.3-1.4-2c-0.5-0.7-0.9-1.3-1.4-1.9c-0.5-0.6-1-1.1-1.4-1.6
				c-0.4-0.5-0.7-0.8-1-1.1c-0.2-0.3-0.4-0.4-0.4-0.4c0,0-0.6-0.7-1.4-1.6c-0.4-0.5-0.9-1-1.4-1.6c-0.5-0.6-1.1-1.1-1.8-1.6
				c-1.3-1-2.8-1.7-4-1.8c-0.6-0.1-1.1,0-1.5,0.1C161.5,38,161.3,38,161.3,38z"/>
		</g>
		<g id="XMLID_2798_">
			<path id="XMLID_2799_" class="st1" d="M158.8,36.2c0,0,0.5,0.6,1.3,1.5c0.8,0.8,1.7,2.2,2.6,3.5c0.8,1.4,1.7,2.8,2.1,3.9
				c0.3,0.6,0.5,1,0.6,1.4c0.1,0.3,0.2,0.5,0.2,0.5c0,0,0.2,0.8,0.4,2c0.1,0.3,0.1,0.6,0.2,0.9c0.1,0.3,0.1,0.7,0.1,1.1
				c0.1,0.7,0.2,1.5,0.3,2.3c0,1.6,0.1,3.1-0.1,4.3c-0.1,1.2-0.2,1.9-0.2,1.9s0-0.8,0-1.9c0-1.2-0.2-2.7-0.4-4.2
				c-0.2-0.7-0.3-1.5-0.5-2.2c-0.1-0.3-0.1-0.7-0.2-1c-0.1-0.3-0.2-0.6-0.3-0.9c-0.4-1.1-0.6-1.8-0.6-1.9c0,0-0.1-0.2-0.2-0.5
				c-0.1-0.3-0.3-0.8-0.4-1.4c-0.3-1.2-1-2.6-1.6-4c-0.8-1.3-1.5-2.8-2.2-3.7C159.3,36.8,158.8,36.2,158.8,36.2z"/>
		</g>
		<g id="XMLID_2796_">
			<path id="XMLID_2797_" class="st1" d="M137.4,46c0,0,0.2,0,0.4-0.1c0.3-0.1,0.7-0.2,1.1-0.2c1-0.2,2.3-0.3,3.6-0.3
				c1.3,0.1,2.6,0.2,3.6,0.4c0.5,0.1,0.9,0.2,1.2,0.3c0.3,0.1,0.5,0.1,0.5,0.1c0,0,0.2,0.1,0.4,0.2c0.3,0.1,0.6,0.3,1.1,0.6
				c0.9,0.5,1.9,1.2,3,2c1,0.9,1.9,1.8,2.5,2.6c0.3,0.4,0.5,0.7,0.7,1c0.2,0.2,0.3,0.4,0.3,0.4s-0.1-0.1-0.3-0.3
				c-0.2-0.2-0.4-0.5-0.8-0.8c-0.7-0.7-1.7-1.5-2.7-2.2c-1.1-0.7-2.2-1.2-3-1.5c-0.4-0.2-0.8-0.3-1.1-0.4c-0.3-0.1-0.4-0.1-0.4-0.1
				c0,0-0.2-0.1-0.4-0.2c-0.3-0.1-0.6-0.3-1.1-0.4c-0.9-0.3-2.1-0.7-3.4-0.9c-1.3-0.2-2.5-0.3-3.5-0.2c-0.5,0-0.9,0.1-1.2,0.1
				C137.6,46,137.4,46,137.4,46z"/>
		</g>
		<g id="XMLID_2794_">
			<path id="XMLID_2795_" class="st1" d="M126.1,51.3c0,0,2.6,0.5,5.2,1.1c1.3,0.2,2.6,0.4,3.6,0.5c0.5,0.1,0.9,0.1,1.2,0.2
				c0.3,0,0.5,0.1,0.5,0.1c0,0,2.6,0.5,5.1,1c2.6,0.3,5.1,0.7,5.1,0.7s-2.6,0-5.2,0c-2.6-0.2-5.2-0.3-5.2-0.3c0,0-0.2,0-0.5-0.1
				c-0.3-0.1-0.7-0.2-1.2-0.3c-1-0.3-2.3-0.6-3.6-1C128.6,52.2,126.1,51.3,126.1,51.3z"/>
		</g>
		<g id="XMLID_2792_">
			<path id="XMLID_2793_" class="st1" d="M113.6,56c0,0,2.6-1.9,5.2-3.8c1.4-0.8,2.7-1.7,3.8-2.3c0.5-0.3,1-0.6,1.3-0.8
				c0.3-0.2,0.5-0.3,0.5-0.3c0,0,3-1.2,5.9-2.3c2.9-0.9,5.9-1.8,5.9-1.8s-2.8,1.2-5.6,2.5c-2.7,1.4-5.5,2.9-5.5,2.9
				c0,0-0.2,0.1-0.5,0.2c-0.3,0.2-0.8,0.4-1.3,0.6c-1.1,0.5-2.5,1.2-4,1.9C116.4,54.4,113.6,56,113.6,56z"/>
		</g>
		<g id="XMLID_2790_">
			<path id="XMLID_2791_" class="st1" d="M103,57.6c0,0,3.6,0.2,7.3,0.5c1.8,0,3.7,0,5.1,0.1c0.7,0,1.3,0,1.7,0c0.4,0,0.7,0,0.7,0
				c0.1,0,3.6,0.2,7.2,0.4c3.6,0,7.1,0.1,7.1,0.1s-3.5,0.3-7.1,0.6c-3.6,0.1-7.2,0.3-7.2,0.3c0,0-0.3,0-0.7-0.1
				c-0.4,0-1-0.1-1.7-0.2c-1.4-0.1-3.2-0.3-5.1-0.5C106.6,58.2,103,57.6,103,57.6z"/>
		</g>
		<g id="XMLID_2788_">
			<path id="XMLID_2789_" class="st1" d="M101.6,73.3c0,0,0.3-0.4,0.8-1c0.4-0.6,1.1-1.4,1.8-2.2c0.7-0.7,1.4-1.5,2-2
				c0.3-0.3,0.5-0.5,0.7-0.6c0.2-0.2,0.3-0.2,0.3-0.2c0,0,0.5-0.2,1.1-0.6c0.7-0.4,1.6-0.7,2.5-1.1c0.9-0.3,1.8-0.7,2.5-0.9
				c0.7-0.2,1.2-0.3,1.2-0.3s-0.4,0.2-1.1,0.5c-0.7,0.3-1.5,0.8-2.3,1.3c-0.8,0.5-1.6,1-2.2,1.5c-0.6,0.4-1,0.8-1,0.8
				c0,0-0.1,0.1-0.3,0.2c-0.2,0.1-0.5,0.3-0.8,0.5c-0.6,0.4-1.4,1-2.2,1.6c-0.8,0.6-1.6,1.3-2.1,1.8C102,73,101.6,73.3,101.6,73.3z"
				/>
		</g>
		<g id="XMLID_2786_">
			<path id="XMLID_2787_" class="st1" d="M86,74.2c0,0,1.6-1.4,3.2-2.9c0.9-0.6,1.8-1.3,2.4-1.8c0.3-0.2,0.6-0.4,0.8-0.6
				c0.2-0.2,0.3-0.2,0.3-0.2c0,0,0.5-0.2,1.3-0.5c0.7-0.3,1.7-0.7,2.7-1c2-0.6,4-1.1,4-1.1S98.8,67,97,67.9
				c-1.8,1.1-3.6,2.1-3.6,2.1c0,0-0.1,0-0.3,0.2c-0.2,0.1-0.5,0.3-0.9,0.4c-0.7,0.4-1.7,0.8-2.6,1.3C87.8,73.1,86,74.2,86,74.2z"/>
		</g>
		<g id="XMLID_2784_">
			<path id="XMLID_2785_" class="st1" d="M214.7,103c0,0-2.7-2.2-5.4-4.5c-1.4-1-2.8-2-3.9-2.8c-0.5-0.4-1-0.7-1.3-0.9
				c-0.3-0.2-0.5-0.3-0.5-0.4c0,0-2.7-2.1-5.4-4.2c-2.8-1.9-5.6-3.8-5.6-3.8s3,1.6,5.9,3.2c2.9,1.8,5.8,3.6,5.8,3.7
				c0,0,0.2,0.1,0.5,0.4c0.3,0.3,0.7,0.6,1.2,1.1c1,0.9,2.3,2.1,3.6,3.2C212.2,100.6,214.7,103,214.7,103z"/>
		</g>
		<g id="XMLID_2782_">
			<path id="XMLID_2783_" class="st1" d="M221.1,89.7c0,0-0.1-0.2-0.3-0.5c-0.2-0.3-0.5-0.8-0.9-1.3c-0.7-1-1.9-2.2-3.2-3.3
				c-1.3-1.1-2.7-1.9-3.8-2.4c-0.6-0.2-1-0.5-1.4-0.6c-0.3-0.1-0.5-0.2-0.5-0.2c0,0-0.2-0.1-0.5-0.2c-0.3-0.2-0.8-0.4-1.3-0.6
				c-1.1-0.5-2.6-0.9-4.2-1.2c-1.6-0.3-3.1-0.3-4.3-0.3c-0.6,0-1.1,0.1-1.4,0.1c-0.3,0-0.5,0.1-0.5,0.1s0.2,0,0.5-0.1
				c0.3-0.1,0.8-0.2,1.4-0.3c1.2-0.2,2.8-0.3,4.4-0.2c1.6,0.1,3.2,0.4,4.4,0.7c0.6,0.2,1.1,0.3,1.4,0.4c0.4,0.1,0.6,0.2,0.6,0.2
				c0,0,0.2,0.1,0.6,0.3c0.3,0.2,0.8,0.5,1.4,0.8c1.1,0.7,2.5,1.7,3.7,2.9c1.2,1.2,2.3,2.6,2.9,3.7c0.4,0.5,0.6,1,0.7,1.4
				C221.1,89.5,221.1,89.7,221.1,89.7z"/>
		</g>
		<g id="XMLID_2780_">
			<path id="XMLID_2781_" class="st1" d="M226.4,80.9c0,0-0.5-0.3-1.3-0.8c-0.7-0.5-1.8-1-2.9-1.6c-1.1-0.5-2.2-1-3-1.2
				c-0.4-0.1-0.8-0.3-1-0.3c-0.2-0.1-0.4-0.1-0.4-0.1c0,0-0.6-0.2-1.4-0.5c-0.4-0.2-0.9-0.3-1.4-0.5c-0.5-0.2-1.1-0.3-1.6-0.5
				c-1.1-0.2-2.2-0.5-3.1-0.6c-0.9-0.1-1.4-0.2-1.4-0.2s0.6,0,1.4,0c0.9-0.1,2,0,3.2,0.1c0.6,0.1,1.2,0.2,1.7,0.2
				c0.6,0.1,1.1,0.2,1.5,0.3c0.9,0.2,1.5,0.4,1.5,0.4c0,0,0.2,0.1,0.4,0.2c0.2,0.1,0.6,0.3,1,0.5c0.8,0.4,1.9,1,2.9,1.7
				c1,0.7,2,1.4,2.7,2C225.9,80.5,226.4,80.9,226.4,80.9z"/>
		</g>
		<g id="XMLID_2778_">
			<path id="XMLID_2779_" class="st1" d="M244.6,92.7c0,0-0.4-0.6-1-1.5c-0.5-0.9-1.4-2-2.2-3.2c-0.9-1.1-1.8-2.2-2.5-2.9
				c-0.4-0.4-0.7-0.7-0.9-0.9c-0.2-0.2-0.3-0.4-0.4-0.4c0,0-0.4-0.6-1.1-1.4c-0.6-0.8-1.6-1.8-2.5-2.8c-1-1-1.9-1.9-2.7-2.6
				c-0.8-0.7-1.3-1.1-1.3-1.1s0.6,0.4,1.4,1c0.8,0.6,1.9,1.4,3,2.3c1,0.9,2.1,1.8,2.8,2.5c0.7,0.7,1.2,1.2,1.3,1.2
				c0,0,0.1,0.2,0.3,0.4c0.2,0.3,0.5,0.6,0.8,1.1c0.7,0.9,1.4,2.1,2.2,3.3c0.7,1.3,1.4,2.5,1.9,3.5C244.3,92,244.6,92.7,244.6,92.7z
				"/>
		</g>
		<g id="XMLID_2776_">
			<path id="XMLID_2777_" class="st1" d="M259.1,90.3c0,0-0.1,0-0.3,0.1c-0.2,0-0.5,0.1-0.9,0.1c-0.8,0.1-1.8,0.1-2.8,0
				c-1-0.1-2-0.4-2.8-0.6c-0.4-0.1-0.7-0.3-0.9-0.3c-0.2-0.1-0.4-0.1-0.4-0.1c0,0-0.1-0.1-0.3-0.2c-0.2-0.1-0.5-0.3-0.8-0.6
				c-0.6-0.5-1.4-1.2-2-2c-0.6-0.8-1.2-1.7-1.5-2.4c-0.2-0.3-0.3-0.6-0.4-0.8c-0.1-0.2-0.1-0.3-0.1-0.3s0.1,0.1,0.2,0.3
				c0.1,0.2,0.3,0.5,0.5,0.8c0.4,0.6,1.1,1.3,1.8,2c0.7,0.6,1.5,1.2,2.2,1.5c0.3,0.2,0.6,0.3,0.8,0.4c0.2,0.1,0.3,0.1,0.3,0.1
				c0,0,0.1,0.1,0.3,0.2c0.2,0.1,0.4,0.3,0.8,0.4c0.6,0.4,1.6,0.7,2.5,1c0.9,0.3,1.9,0.4,2.7,0.5c0.4,0,0.7,0,0.9,0
				C259,90.3,259.1,90.3,259.1,90.3z"/>
		</g>
		<g id="XMLID_2774_">
			<path id="XMLID_2775_" class="st1" d="M204.3,74.4c0,0-2.7,0.3-5.4,0.6c-2.7,0.4-5.3,0.8-5.4,0.8c0,0-2.7,0.2-5.3,0.3
				c-2.6,0.3-5.2,0.5-5.2,0.5s2.6-0.6,5.1-1.2c2.6-0.5,5.2-1,5.2-1c0,0,0.2,0,0.5,0c0.3,0,0.7,0,1.2,0c1,0,2.4-0.1,3.7-0.1
				C201.6,74.3,204.3,74.4,204.3,74.4z"/>
		</g>
		<g id="XMLID_2772_">
			<path id="XMLID_2773_" class="st1" d="M204.7,67.7c0,0-0.8-0.3-2.1-0.7c-0.3-0.1-0.7-0.2-1-0.4c-0.4-0.1-0.8-0.2-1.2-0.3
				c-0.8-0.2-1.7-0.4-2.5-0.6c-1.8-0.2-3.5-0.4-4.8-0.3c-1.3,0-2.2,0-2.2,0c0,0-0.9,0-2.2,0c-0.3,0-0.7,0-1,0
				c-0.4,0-0.7,0.1-1.1,0.1c-0.8,0.1-1.6,0.2-2.5,0.3c-1.6,0.4-3.4,0.8-4.5,1.3c-1.2,0.5-2,0.8-2,0.8s0.8-0.4,1.9-1
				c1.1-0.7,2.8-1.2,4.5-1.8c0.8-0.2,1.7-0.4,2.5-0.6c0.4-0.1,0.8-0.2,1.2-0.3c0.4,0,0.7-0.1,1.1-0.1c1.3-0.2,2.2-0.3,2.2-0.3
				c0,0,1,0.1,2.3,0.2c1.4,0,3.1,0.5,4.9,0.8c0.9,0.3,1.7,0.6,2.5,0.8c0.4,0.1,0.8,0.2,1.1,0.4c0.4,0.2,0.7,0.3,1,0.5
				C203.9,67.3,204.7,67.7,204.7,67.7z"/>
		</g>
		<g id="XMLID_2770_">
			<path id="XMLID_2771_" class="st1" d="M185.9,69.8c0,0-0.8,0.3-1.9,0.8c-1.1,0.5-2.8,0.9-4.4,1.3c-1.6,0.3-3.3,0.6-4.6,0.6
				c-0.6,0-1.2,0.1-1.5,0.1c-0.4,0-0.6,0-0.6,0c0,0-0.8-0.1-2.1-0.3c-0.3,0-0.6-0.1-1-0.1c-0.3-0.1-0.7-0.2-1.1-0.3
				c-0.7-0.2-1.5-0.4-2.3-0.6c-1.5-0.6-3.1-1-4.1-1.6c-1.1-0.5-1.8-0.9-1.8-0.9s0.8,0.3,1.9,0.7c1.1,0.5,2.7,0.8,4.2,1.1
				c0.8,0.1,1.6,0.2,2.3,0.3c0.4,0,0.7,0.1,1.1,0.1c0.3,0,0.7,0,1,0c1.2,0,2,0.1,2,0.1c0,0,0.2,0,0.6,0c0.4,0,0.9,0,1.5,0.1
				c1.2,0.1,2.8-0.1,4.5-0.1c1.6-0.3,3.2-0.5,4.4-0.8C185.1,70,185.9,69.8,185.9,69.8z"/>
		</g>
		<g id="XMLID_2768_">
			<path id="XMLID_2769_" class="st1" d="M153.1,85.9c0,0-0.2-0.5-0.5-1.3c-0.1-0.2-0.2-0.4-0.2-0.6c-0.1-0.2-0.2-0.4-0.3-0.6
				c-0.3-0.4-0.5-0.9-0.8-1.4c-0.6-0.9-1.2-1.7-1.8-2.3c-0.5-0.6-0.9-1-0.9-1c0,0-0.3-0.4-0.8-1c-0.2-0.3-0.6-0.6-0.9-0.9
				c-0.4-0.3-0.7-0.7-1.1-1c-0.8-0.6-1.6-1.2-2.3-1.6c-0.7-0.4-1.1-0.6-1.1-0.6s0.5,0.2,1.2,0.4c0.7,0.2,1.6,0.7,2.6,1.2
				c0.5,0.3,0.9,0.6,1.3,0.8c0.4,0.3,0.8,0.5,1.1,0.8c0.6,0.5,1,0.9,1,0.9c0,0,0.1,0.1,0.3,0.3c0.1,0.2,0.3,0.5,0.6,0.9
				c0.5,0.7,1,1.7,1.5,2.7c0.2,0.5,0.4,1,0.6,1.5c0.1,0.2,0.2,0.5,0.3,0.7c0.1,0.2,0.1,0.4,0.2,0.7C153,85.3,153.1,85.9,153.1,85.9z
				"/>
		</g>
		<g id="XMLID_2766_">
			<path id="XMLID_2767_" class="st1" d="M149,68.4c0,0-0.6,0.4-1.4,0.9c-0.2,0.1-0.4,0.3-0.7,0.4c-0.2,0.1-0.5,0.3-0.8,0.4
				c-0.5,0.3-1.1,0.6-1.7,0.9c-0.6,0.3-1.2,0.5-1.8,0.8c-0.6,0.2-1.1,0.4-1.6,0.6c-0.5,0.2-0.9,0.3-1.2,0.4
				c-0.3,0.1-0.5,0.1-0.5,0.1c0,0-0.5,0.1-1.2,0.2c-0.7,0.1-1.7,0.1-2.8,0.2c-1,0-2.1,0-3-0.1c-0.9-0.1-1.6-0.2-1.9-0.2l0-0.1
				c1.2,0,1.4,0,1.4,0s-0.2,0-1.4,0.1c0,0,0,0,0-0.1c0.3,0,1-0.1,1.8-0.1c0.9,0,1.9-0.2,2.9-0.3c1-0.2,1.9-0.4,2.6-0.6
				c0.7-0.2,1.2-0.3,1.2-0.3c0,0,0.2,0,0.5-0.1c0.3,0,0.7-0.1,1.2-0.2c0.5-0.1,1-0.2,1.6-0.4c0.6-0.2,1.2-0.4,1.8-0.5
				c0.6-0.2,1.2-0.4,1.8-0.7c0.3-0.1,0.6-0.2,0.8-0.3c0.3-0.1,0.5-0.2,0.7-0.3C148.4,68.7,149,68.4,149,68.4z"/>
		</g>
		<g id="XMLID_2763_">
			<path id="XMLID_2764_" class="st1" d="M263.7,101.4c0,0-0.6,0-1.4-0.1c-0.9,0-2-0.2-3.2-0.4c-1.1-0.4-2.3-0.6-3.1-1
				c-0.8-0.4-1.4-0.6-1.4-0.6c0,0-0.5-0.4-1.2-1c-0.7-0.5-1.5-1.4-2.3-2.3c-0.7-1-1.4-1.9-1.8-2.7c-0.4-0.8-0.7-1.3-0.7-1.3
				s0.3,0.5,0.9,1.2c0.5,0.7,1.3,1.5,2.1,2.3c0.9,0.7,1.7,1.4,2.5,1.8c0.7,0.4,1.2,0.7,1.2,0.7c0,0,0.5,0.3,1.2,0.8
				c0.7,0.5,1.8,0.9,2.8,1.4c1.1,0.3,2.2,0.8,3,0.9C263.2,101.3,263.7,101.4,263.7,101.4z"/>
		</g>
		<g id="XMLID_2761_">
			<path id="XMLID_2762_" class="st1" d="M284.4,101c0,0-0.5,0.2-1.3,0.4c-0.8,0.2-1.8,0.6-2.8,1c-0.9,0.5-1.9,1-2.6,1.5
				c-0.7,0.5-1.1,0.8-1.1,0.8c0,0-0.5,0.3-1.1,0.7c-0.7,0.4-1.5,1-2.4,1.6c-0.8,0.7-1.6,1.4-2.1,2c-0.5,0.6-0.9,1-0.9,1
				s0.3-0.5,0.7-1.1c0.4-0.7,1.1-1.5,1.8-2.4c0.8-0.8,1.5-1.6,2.2-2.1c0.6-0.5,1.1-0.9,1.1-0.9c0,0,0.5-0.2,1.3-0.6
				c0.7-0.4,1.8-0.7,2.9-1.1c1.1-0.2,2.1-0.5,2.9-0.6C283.9,101.1,284.4,101,284.4,101z"/>
		</g>
		<g id="XMLID_2759_">
			<path id="XMLID_2760_" class="st1" d="M280.6,103.2c0,0-0.3,0.2-0.7,0.5c-0.4,0.2-0.9,0.7-1.4,1.2c-0.2,0.2-0.4,0.5-0.6,0.8
				c-0.2,0.2-0.3,0.5-0.4,0.7c-0.2,0.4-0.4,0.7-0.4,0.7c0,0,0,0.1-0.1,0.2c-0.1,0.1-0.2,0.3-0.3,0.5c-0.3,0.4-0.5,1-0.8,1.5
				c-0.1,0.6-0.4,1.2-0.3,1.7c0,0.5,0,0.8,0,0.8s-0.1-0.3-0.2-0.8c-0.1-0.5-0.1-1.2-0.1-1.9c0.1-0.7,0.2-1.4,0.4-1.9
				c0.1-0.3,0.2-0.5,0.2-0.6c0.1-0.2,0.1-0.2,0.1-0.2c0,0,0.3-0.3,0.6-0.7c0.2-0.2,0.4-0.4,0.7-0.6c0.3-0.2,0.5-0.4,0.8-0.6
				c0.6-0.3,1.2-0.7,1.7-0.8C280.2,103.3,280.6,103.2,280.6,103.2z"/>
		</g>
		<g id="XMLID_2757_">
			<path id="XMLID_2758_" class="st1" d="M286,106.7c0,0-0.1,0.1-0.4,0.2c-0.3,0.2-0.6,0.3-1,0.6c-0.8,0.6-1.9,1.4-2.8,2.4
				c-0.9,1-1.6,2.2-2,3.1c-0.2,0.4-0.3,0.9-0.5,1.1c-0.1,0.3-0.2,0.4-0.2,0.5c0,0-0.1,0.2-0.2,0.4c-0.1,0.3-0.3,0.6-0.4,1.1
				c-0.3,0.9-0.5,2.2-0.5,3.6c0,1.3,0.3,2.7,0.6,3.6c0.1,0.5,0.3,0.9,0.4,1.1c0.1,0.3,0.2,0.4,0.2,0.4s-0.1-0.1-0.2-0.4
				c-0.1-0.3-0.4-0.6-0.6-1.1c-0.4-0.9-0.8-2.3-1-3.6c-0.2-1.4-0.1-2.8,0.1-3.9c0.1-0.5,0.2-1,0.3-1.3c0.1-0.3,0.1-0.5,0.1-0.5
				c0,0,0.1-0.2,0.2-0.5c0.2-0.3,0.3-0.7,0.6-1.2c0.5-1,1.5-2.1,2.5-3c1-0.9,2.2-1.7,3.1-2.1c0.4-0.2,0.9-0.4,1.1-0.5
				C285.9,106.7,286,106.7,286,106.7z"/>
		</g>
		<g id="XMLID_2755_">
			<path id="XMLID_2756_" class="st1" d="M295.9,139.5c0,0-0.5-0.2-1.1-0.4c-0.7-0.3-1.6-0.5-2.5-0.7c-0.9-0.1-1.9-0.3-2.6-0.3
				c-0.4,0-0.6,0-0.9,0c-0.2,0-0.3,0-0.3,0c0,0-0.5-0.1-1.2-0.2c-0.3-0.1-0.7-0.1-1.2-0.1c-0.4,0-0.9-0.1-1.3-0.1
				c-0.9,0-1.8,0-2.5,0.2c-0.7,0.1-1.2,0.2-1.2,0.2s0.4-0.1,1.1-0.4c0.7-0.3,1.6-0.4,2.5-0.7c0.5-0.1,0.9-0.1,1.4-0.2
				c0.4-0.1,0.9-0.1,1.2-0.1c0.7,0,1.2,0,1.2,0c0,0,0.1,0,0.4,0.1c0.2,0.1,0.5,0.1,0.9,0.2c0.7,0.1,1.7,0.5,2.6,0.8
				c0.9,0.4,1.8,0.8,2.4,1.2C295.5,139.2,295.9,139.5,295.9,139.5z"/>
		</g>
		<g id="XMLID_2753_">
			<path id="XMLID_2754_" class="st1" d="M302.5,146c0,0-0.1-0.1-0.3-0.2c-0.2-0.1-0.5-0.3-0.8-0.5c-0.7-0.4-1.6-0.7-2.6-1
				c-1-0.2-2-0.3-2.7-0.3c-0.4,0-0.7,0-0.9,0c-0.2,0-0.4,0-0.4,0c0,0-0.1,0-0.3,0c-0.2,0-0.5,0-0.9,0c-0.7,0-1.7,0.1-2.7,0.4
				c-0.9,0.3-1.9,0.6-2.5,1c-0.3,0.2-0.6,0.4-0.8,0.5c-0.2,0.1-0.3,0.2-0.3,0.2s0.1-0.1,0.3-0.2c0.2-0.1,0.4-0.4,0.7-0.6
				c0.6-0.5,1.5-1,2.4-1.5c1-0.4,2-0.7,2.7-0.9c0.4-0.1,0.7-0.1,1-0.2c0.2,0,0.4,0,0.4,0c0,0,0.2,0,0.4,0c0.2,0,0.6,0,1,0.1
				c0.8,0.1,1.9,0.4,2.8,0.8c1,0.4,1.9,1,2.5,1.4c0.3,0.2,0.6,0.5,0.7,0.6C302.4,145.9,302.5,146,302.5,146z"/>
		</g>
		<g id="XMLID_2751_">
			<path id="XMLID_2752_" class="st1" d="M307.1,142.1c0,0,0,0.5,0,1.4c0,0.8-0.1,1.9-0.2,3.1c-0.2,1.1-0.3,2.2-0.5,3
				c-0.1,0.4-0.2,0.8-0.2,1c-0.1,0.2-0.1,0.4-0.1,0.4c0,0-0.2,0.5-0.6,1.3c-0.2,0.4-0.4,0.8-0.7,1.2c-0.3,0.4-0.5,0.9-0.8,1.4
				c-0.6,0.9-1.2,1.8-1.7,2.3c-0.5,0.6-0.8,1-0.8,1s0.3-0.5,0.7-1.1c0.4-0.7,0.9-1.6,1.3-2.6c0.2-0.5,0.4-1,0.6-1.4
				c0.2-0.5,0.3-0.9,0.4-1.3c0.2-0.8,0.4-1.3,0.4-1.3c0,0,0.1-0.1,0.2-0.4c0.1-0.2,0.2-0.5,0.4-0.9c0.3-0.7,0.6-1.8,0.9-2.8
				c0.2-1.1,0.5-2.1,0.6-2.9C307,142.7,307.1,142.1,307.1,142.1z"/>
		</g>
		<g id="XMLID_2749_">
			<path id="XMLID_2750_" class="st1" d="M257.3,144c0,0,0.5-0.1,1.4-0.2c0.8-0.1,1.9-0.5,2.9-0.8c1-0.5,2-0.8,2.8-1.3
				c0.7-0.4,1.2-0.7,1.2-0.7c0,0,0.5-0.3,1.2-0.6c0.7-0.3,1.6-1,2.5-1.5c0.8-0.7,1.7-1.3,2.2-2c0.6-0.6,0.9-1,0.9-1
				s-0.3,0.5-0.8,1.1c-0.4,0.7-1.2,1.5-2,2.4c-0.8,0.7-1.6,1.6-2.4,2c-0.7,0.5-1.2,0.8-1.2,0.8c0,0-0.6,0.2-1.4,0.5
				c-0.8,0.4-1.9,0.6-3,0.9c-1.1,0.1-2.2,0.4-3.1,0.3C257.8,144,257.3,144,257.3,144z"/>
		</g>
		<g id="XMLID_2747_">
			<path id="XMLID_2748_" class="st1" d="M260,148.6c0,0,0.5-0.1,1.2-0.1c0.7,0,1.7-0.3,2.6-0.5c0.9-0.3,1.8-0.5,2.5-0.8
				c0.3-0.1,0.6-0.2,0.8-0.3c0.2-0.1,0.3-0.1,0.3-0.1c0,0,0.5-0.1,1.1-0.3c0.7-0.2,1.5-0.5,2.4-0.8c0.8-0.4,1.7-0.8,2.3-1.2
				c0.6-0.4,1-0.6,1-0.6s-0.4,0.3-0.9,0.8c-0.5,0.5-1.3,1-2.1,1.6c-0.8,0.5-1.6,1-2.3,1.3c-0.7,0.3-1.1,0.5-1.1,0.5
				c0,0-0.1,0-0.4,0.1c-0.2,0-0.5,0.1-0.9,0.2c-0.7,0.2-1.7,0.2-2.7,0.4c-1,0-2,0.1-2.7,0C260.5,148.7,260,148.6,260,148.6z"/>
		</g>
		<g id="XMLID_2745_">
			<path id="XMLID_2746_" class="st1" d="M267.8,148.1c0,0,0.5,0.2,1.2,0.6c0.7,0.4,1.8,0.7,2.8,1c1,0.3,2.1,0.6,2.9,0.7
				c0.4,0.1,0.7,0.1,1,0.2c0.2,0,0.4,0.1,0.4,0.1c0,0,0.5,0.1,1.3,0.3c0.4,0.1,0.8,0.2,1.3,0.3c0.5,0.1,1,0.2,1.5,0.3
				c1,0.1,2.1,0.2,2.9,0.2c0.8,0,1.3,0,1.3,0s-0.5,0.1-1.3,0.2c-0.8,0.2-1.8,0.2-2.9,0.3c-0.5,0-1.1,0-1.6,0c-0.5,0-1,0-1.4-0.1
				c-0.8-0.1-1.4-0.1-1.4-0.1c0,0-0.2,0-0.4-0.1c-0.2-0.1-0.6-0.2-1-0.3c-0.8-0.2-1.8-0.7-2.8-1.2c-1-0.5-2-1-2.7-1.5
				C268.3,148.4,267.8,148.1,267.8,148.1z"/>
		</g>
		<g id="XMLID_2743_">
			<path id="XMLID_2744_" class="st1" d="M252.2,147.5c0,0,0-0.6,0-1.6c0-0.2,0-0.5,0-0.8c0-0.3,0.1-0.6,0.1-0.9
				c0.1-0.6,0.1-1.2,0.2-1.9c0.3-1.2,0.6-2.5,1-3.4c0.3-0.9,0.6-1.5,0.6-1.6c0,0,0.4-0.5,0.9-1.3c0.2-0.4,0.6-0.8,1-1.3
				c0.4-0.4,0.8-0.9,1.2-1.3c0.9-0.8,1.8-1.7,2.5-2.1c0.7-0.5,1.2-0.9,1.2-0.9s-0.4,0.4-1.1,1c-0.7,0.6-1.4,1.5-2.2,2.4
				c-0.4,0.5-0.7,1-1,1.5c-0.3,0.5-0.6,0.9-0.8,1.3c-0.4,0.8-0.7,1.3-0.7,1.4c0,0-0.3,0.5-0.8,1.4c-0.5,0.8-0.9,2-1.3,3.1
				c-0.2,0.6-0.3,1.2-0.5,1.8c-0.1,0.3-0.2,0.6-0.2,0.8c0,0.3-0.1,0.5-0.1,0.8C252.3,146.9,252.2,147.5,252.2,147.5z"/>
		</g>
		<g id="XMLID_2741_">
			<path id="XMLID_2742_" class="st1" d="M221.8,147.5c0,0-4.9-4.5-4.9-4.5c0,0-3.8-5.3-3.8-5.3s4.7,4.3,4.8,4.4
				C217.9,142.1,221.8,147.5,221.8,147.5z"/>
		</g>
		<g id="XMLID_2739_">
			<path id="XMLID_2740_" class="st1" d="M223.7,146.6c0,0,0.7-1.6,1.4-3.1c0.5-1.6,1.1-3.2,1.1-3.3c0,0,0.7-1.5,1.4-3
				c0.5-1.6,1.1-3.1,1.1-3.1s-0.2,1.7-0.4,3.3c-0.4,1.7-0.8,3.3-0.8,3.4c0,0-0.1,0.1-0.2,0.3c-0.1,0.2-0.2,0.4-0.4,0.7
				c-0.3,0.6-0.8,1.3-1.2,2.1C224.6,145.2,223.7,146.6,223.7,146.6z"/>
		</g>
		<g id="XMLID_2737_">
			<path id="XMLID_2738_" class="st1" d="M50.6,175.2c0,0,0.6-0.9,1.5-2.1c0.2-0.3,0.5-0.7,0.7-1c0.3-0.4,0.6-0.7,0.9-1.1
				c0.6-0.7,1.2-1.6,1.9-2.4c1.4-1.5,2.8-3,4-4c0.6-0.5,1.1-1,1.4-1.3c0.3-0.3,0.6-0.5,0.6-0.5c0,0,0.9-0.6,2.2-1.4
				c0.3-0.2,0.7-0.4,1-0.6c0.4-0.2,0.8-0.4,1.2-0.6c0.8-0.4,1.7-0.9,2.6-1.4c1.8-0.8,3.6-1.6,5-2.1c1.4-0.5,2.3-0.8,2.3-0.8
				s-0.9,0.4-2.2,1c-1.4,0.5-3.1,1.5-4.8,2.5c-0.8,0.5-1.6,1.1-2.4,1.6c-0.4,0.3-0.8,0.5-1.1,0.7c-0.3,0.2-0.7,0.5-1,0.7
				c-1.2,0.9-2,1.5-2,1.5c0,0-0.3,0.1-0.6,0.4c-0.4,0.3-0.9,0.7-1.5,1.1c-1.3,0.9-2.7,2.3-4.3,3.6c-0.7,0.7-1.4,1.5-2.1,2.2
				c-0.3,0.4-0.7,0.7-0.9,1c-0.3,0.3-0.5,0.7-0.8,1C51.2,174.4,50.6,175.2,50.6,175.2z"/>
		</g>
		<g id="XMLID_2735_">
			<path id="XMLID_2736_" class="st1" d="M51.5,183.5c0,0,0.3-0.8,0.8-2c0.1-0.3,0.3-0.6,0.4-1c0.2-0.3,0.4-0.7,0.5-1
				c0.4-0.7,0.8-1.5,1.2-2.2c0.5-0.7,1-1.4,1.5-2.1c0.2-0.3,0.5-0.6,0.7-0.9c0.2-0.3,0.5-0.5,0.7-0.8c0.4-0.5,0.8-0.9,1-1.2
				c0.3-0.3,0.4-0.4,0.4-0.4c0,0,0.7-0.5,1.7-1.3c0.3-0.2,0.5-0.4,0.8-0.6c0.3-0.2,0.6-0.4,1-0.6c0.7-0.4,1.4-0.8,2.1-1.2
				c1.5-0.7,2.9-1.4,4.1-1.7c1.1-0.4,1.9-0.6,1.9-0.6s-0.7,0.3-1.8,0.8c-1.1,0.4-2.5,1.3-3.8,2.1c-0.7,0.4-1.3,0.9-1.9,1.4
				c-0.3,0.2-0.6,0.4-0.9,0.6c-0.3,0.2-0.5,0.5-0.7,0.7c-0.9,0.8-1.5,1.4-1.5,1.4c0,0-0.2,0.1-0.5,0.4c-0.3,0.3-0.7,0.6-1.1,1
				c-0.2,0.2-0.5,0.4-0.7,0.7c-0.3,0.2-0.5,0.5-0.8,0.8c-0.5,0.6-1.1,1.2-1.6,1.8c-0.5,0.7-1,1.4-1.4,2c-0.2,0.3-0.5,0.6-0.6,0.9
				c-0.2,0.3-0.3,0.6-0.5,0.9C51.9,182.8,51.5,183.5,51.5,183.5z"/>
		</g>
		<g id="XMLID_2733_">
			<path id="XMLID_2734_" class="st1" d="M104,130.9c0,0,0.1,0.7,0.3,1.7c0.2,1,0.6,2.3,0.9,3.6c0.5,1.3,0.9,2.6,1.3,3.5
				c0.2,0.5,0.4,0.9,0.5,1.1c0.1,0.3,0.2,0.4,0.2,0.4c0,0,0.2,0.6,0.6,1.6c0.2,0.5,0.4,1,0.6,1.6c0.3,0.6,0.5,1.2,0.8,1.8
				c0.6,1.2,1.2,2.3,1.8,3.2c0.5,0.8,0.9,1.4,0.9,1.4s-0.4-0.5-1-1.3c-0.7-0.7-1.4-1.8-2.2-2.9c-0.4-0.6-0.7-1.1-1-1.7
				c-0.3-0.5-0.6-1-0.8-1.5c-0.5-0.9-0.8-1.5-0.8-1.5c0,0-0.1-0.2-0.2-0.5c-0.1-0.3-0.2-0.7-0.4-1.2c-0.3-1-0.6-2.4-0.9-3.7
				c-0.2-1.4-0.4-2.7-0.5-3.8C104.1,131.6,104,130.9,104,130.9z"/>
		</g>
		<g id="XMLID_2731_">
			<path id="XMLID_2732_" class="st1" d="M103.5,134.5c0,0-0.1,0.5-0.3,1.2c-0.2,0.7-0.3,1.6-0.5,2.6c0,1-0.1,1.9,0,2.6
				c0,0.7,0.1,1.2,0.1,1.2c0,0,0,0.5,0,1.2c0,0.2,0,0.4,0,0.6c0,0.2,0,0.4,0.1,0.6c0,0.4,0.1,0.9,0.1,1.3c0.2,0.9,0.4,1.8,0.6,2.5
				c0.2,0.7,0.4,1.1,0.4,1.1s-0.2-0.4-0.6-1c-0.4-0.6-0.7-1.5-1.1-2.4c-0.2-0.5-0.3-0.9-0.4-1.4c-0.1-0.2-0.1-0.4-0.2-0.6
				c0-0.2-0.1-0.4-0.1-0.6c-0.1-0.7-0.2-1.2-0.2-1.2c0,0,0-0.5,0.1-1.3c0-0.8,0.3-1.7,0.5-2.7c0.3-0.9,0.6-1.9,0.9-2.5
				C103.3,135,103.5,134.5,103.5,134.5z"/>
		</g>
		<g id="XMLID_2729_">
			<path id="XMLID_2730_" class="st1" d="M79.6,143.5c0,0,0.6,0.1,1.4,0.2c0.9,0.1,2,0.4,3.2,0.6c1.1,0.3,2.3,0.6,3.1,1
				c0.4,0.2,0.8,0.3,1,0.4c0.3,0.1,0.4,0.1,0.4,0.2c0,0,0.5,0.3,1.3,0.8c0.8,0.4,1.7,1.2,2.6,1.9c0.9,0.8,1.8,1.5,2.4,2.1
				c0.6,0.6,1,1,1,1s-0.5-0.3-1.2-0.9c-0.7-0.5-1.7-1.1-2.6-1.7c-1-0.5-2-1.1-2.8-1.4c-0.8-0.3-1.3-0.6-1.3-0.6c0,0-0.5-0.3-1.3-0.7
				c-0.8-0.4-1.8-0.9-2.9-1.4c-1.1-0.4-2.2-0.8-3-1C80.2,143.6,79.6,143.5,79.6,143.5z"/>
		</g>
		<g id="XMLID_2727_">
			<path id="XMLID_2728_" class="st1" d="M69.8,154.6c0,0,0.1-0.1,0.2-0.4c0.1-0.2,0.3-0.6,0.5-1c0.5-0.8,1.3-1.7,2.3-2.5
				c1-0.8,2.1-1.3,3.1-1.6c0.5-0.1,0.9-0.2,1.1-0.3c0.3-0.1,0.4-0.1,0.5-0.1c0,0,0.2,0,0.5,0c0.3,0,0.7,0,1.1,0.1
				c0.9,0.1,2.1,0.5,3.2,1c1.1,0.6,2,1.3,2.6,2c0.3,0.3,0.5,0.6,0.7,0.8c0.2,0.2,0.3,0.3,0.3,0.3s-0.1-0.1-0.3-0.3
				c-0.2-0.2-0.4-0.5-0.8-0.7c-0.7-0.6-1.7-1.1-2.7-1.5c-1.1-0.3-2.2-0.5-3-0.5c-0.4,0-0.8,0-1,0.1c-0.2,0-0.4,0-0.4,0
				c0,0-0.2,0-0.4,0c-0.2,0-0.6,0-1,0.1c-0.8,0.2-1.9,0.5-3,1.1c-1,0.6-1.9,1.4-2.5,2.1c-0.3,0.3-0.5,0.7-0.6,0.9
				C69.9,154.5,69.8,154.6,69.8,154.6z"/>
		</g>
	</g>
</g>
</svg>
