<?xml version="1.0" encoding="utf-8"?>
<!-- Generator: Adobe Illustrator 19.0.0, SVG Export Plug-In . SVG Version: 6.00 Build 0)  -->
<svg version="1.1" id="Layer_1" xmlns="http://www.w3.org/2000/svg" xmlns:xlink="http://www.w3.org/1999/xlink" x="0px" y="0px"
	 viewBox="-234 -10 490 580" enable-background="new -234 -10 490 580" xml:space="preserve">
<path id="XMLID_109_" fill="#EF7B05" d="M228.35,262.7c0,0-19.2-4.7-31.1-31.2c-11.8-26.4-7.6-36.8-12-52.8
	c-4.3-15.5-13.5-26.4-20.9-32.9c0.4,0.2,0.8,0.4,1.3,0.7c31.8,16.3,33.3,30.8,33.3,32.5c0-2-0.6-32.3-29.4-50.7
	c-6.9-4.4-15.8-8.6-25.3-12.4c41.2,1.3,69-19.5,69-19.5s-46.2,18-93.1,0c-27.4-10.5-59.3-29.2-76.4-29.2c-17,0-39,4.6-56.5,13.7
	c-14.2,7.4-28.2,18.9-34.1,18.9s-4.5,2.1-31.1,6.8c-26.6,4.8-38.8,3.5-72.7,36.6c-34,33.3-33.7,120.1-33.7,120.1s0.2-17.2,12.3-32.7
	c5.7-7.3,8.2-10.9,9.2-12.6c-3.4,6.5-16.8,34-16.1,63.7c1.2999,59.8-13.4,68-13.4,68s9-1.4,21.6-14.5c-1.4,7.4-2,14.3-1.2,19.1
	c10.5,63.4-11.5,84.9-11.5,84.9s21.7999-12.8,34.5-37.4c5-9.7,7.8-19.2,9.4-27.6c0.3,4.9,0.7,10.4,1.3,16.7
	c3.1,31-20.3,54.2-20.3,54.2s28.3-10.3,40-31.9c0.8,8.7,1.1,17.3,0.8,25.2c-0.7,20.3-9.4,25.6-9.4,25.6
	c12.4-6.8,19.7-20.6,24.5-40.1c2.4-10,4.2-21.4,5.6-34.1c0.4-3.3,0.7-6.7,1-10.2l0.5-0.6c-0.1-0.3-0.3-0.6-0.4-0.8
	c0.1-1.2,0.2-2.4,0.3-3.6c1.4-16.1,1.8-40,1.8-64.4c0-9-0.1-18-0.2-26.8c2.5,6.1,5.2,12.1,7.8,18c4.8,11.1,6.6,25.7,6.6,25.7
	s15.2-24,7.2-60.9c-1.5-7.2-2.8-13.8-3.7-19.9c11.7,24.9,37.3,28.5,37.3,28.5s-11.8-9.5-12.5-33.2c-0.4-12.1,2.7-22,7.6-31.5
	c1.4,7.3,3.5,15,6.6,23.3c9,24.7,30.2,41.3,44.3,50.2c0.1,0,0.1,0.1,0.2,0.1c0.4,0.3,0.8,0.5,1.2,0.8c7.2,4.4,12.3,6.6,12.3,6.6
	s-5.9-4.5-12.3-13c-0.4-0.5-0.8-1.1-1.2-1.7c-0.1-0.1-0.2-0.2-0.2-0.3c-7.7-10.8-15.7-27.2-14.8-48.3c0-0.9,0.1-1.7,0.1-2.5
	c1.9,5.6,4,10.5,6.4,14.2c3.3,4.9,5.9,8.7,8.3,11.8c0.1,0.1,0.1,0.2,0.2,0.3c0.4,0.5,0.8,1.1,1.2,1.5c6.2,7.6,11.3,11,22.4,16.7
	c25.3,13.1,51,13.5,51,13.5s-22.7-6.6-35.3-34.8c-2.4-5.4-5-10.9-7.5-16.3c6.6,7.6,15.2,15,26.3,21.1c25.8,14.1,41.5,38.4,52.3,66.6
	c0.4,1.2,0.9,2.4,1.3,3.6c4.3,11.7,7.9,23.9,11,36.4c0.1,0.2,0.1,0.5,0.2,0.8c9.2,38.1-9.8,72.9-15,81.3c0,0.1,0,0.3,0.1,0.4
	c2.5,16.9,7.2,29.3,15.9,36.5c-1.4-1.6-6.5-8.6-5.2-27c0.6-8.3,1.8-17.3,3.3-26.2c8,23.3,31.3,36.3,31.3,36.3s-17.8-26-12.1-57.8
	c1.2-6.5,2.1-12.1,2.8-17.3c0.5,8.9,2,18.9,5.3,29.4c8.5,26.5,25.9,41.4,25.9,41.4s-16.7-24-1.4-88.9c1.2-5,1.3-12.2,0.8-19.9
	c2.1,3.2,4.1,5.8,5.9,7.9c-1,9.8-5.3,18.1-4.8,17.3c0.5-0.7,4.6-5.2,9.1-12.9c4.2,3.7,6.9,4.5,6.9,4.5s-2.3-1.9-4.3-9.3
	c7.5-14.6,14.7-37.4,8.4-66.2c-2.2-10.1-5.6-20.6-9.4-30.5c-0.1-0.6-0.2-1.2-0.2-1.8C209.05,263.2,228.35,262.7,228.35,262.7z"/>
</svg>
