<?xml version="1.0" encoding="utf-8"?>
<!-- Generator: Adobe Illustrator 19.0.0, SVG Export Plug-In . SVG Version: 6.00 Build 0)  -->
<svg version="1.1" id="Layer_1" xmlns="http://www.w3.org/2000/svg" xmlns:xlink="http://www.w3.org/1999/xlink" x="0px" y="0px"
	 viewBox="0 0 423.28766 467.12329" style="enable-background:new 0 0 423.28766 467.12329;" xml:space="preserve">
<style type="text/css">
	.st0{fill:#EF7B05;}
</style>
<path id="XMLID_1018_" class="st0" d="M407.41541,415.21075c-0.67673-0.05569-1.42993,0.0325-2.15964,0.11374
	c-0.54138,0.05801-1.16516,0.1207-1.49469,0.10211l-0.06177,0.01627c-0.02649-0.00119-0.0412-0.0209-0.0412-0.0209
	c-0.08829,0.02786-0.35602,0.00464-0.53256,0.00232c-0.35309,0-0.6738-0.0441-1.02097-0.05338
	c2.15668-0.71487,4.24277-1.58755,6.13467-2.8107c0.47665-0.30637,0.66498-0.80768,0.48843-1.26956
	c-0.18243-0.46185-0.70029-0.79144-1.31229-0.83322c-0.67673-0.05569-1.42993,0.0325-2.15964,0.11374
	c-0.54138,0.05801-1.16516,0.12067-1.49469,0.10211l-0.06177,0.01624c-0.02649-0.00116-0.0412-0.02087-0.0412-0.02087
	c-0.08829,0.02786-0.35602,0.00464-0.53256,0.00232c-24.62704,0-33.86588-20.35251-36.11966-26.62607
	c-1.5506-4.31934-2.23322-8.73495-2.40976-13.21326c0.37073-8.50052,2.44507-17.22849,4.85187-26.10385
	c2.74811-10.09619,5.70804-20.35254,8.56796-30.26999c9.51541-32.9368,19.34857-66.99458,22.91464-101.15915
	c1.05038-10.06718,1.48291-19.83263,1.33875-29.30679c0.22653-40.965-10.4393-76.46411-31.91513-105.74073
	c-30.8765-42.07904-86.9332-70.00254-142.80745-71.14214c-24.86243-0.47348-48.08894,4.34716-65.18959,13.67511
	c-2.5598,1.39722-4.86656,2.99636-7.06445,4.68138c-0.00883,0.00812-0.0206,0.01741-0.02943,0.02553
	c-0.00587,0.00348-0.00587,0.00928-0.01176,0.01276l0,0c0.00589-0.00348,0.00589-0.00928,0.01176-0.01276
	c-0.00587,0.00464-0.01176,0.00928-0.01765,0.01393c-0.03824,0.03017-0.07649,0.06267-0.11475,0.09284
	c-0.05591,0.0441-0.10886,0.09052-0.16476,0.13461c-0.02942,0.02321-0.05591,0.04642-0.08533,0.06963
	c-1.56236,1.22315-3.05116,2.49735-4.43993,3.84699c-31.32372-1.79526-64.00679,15.21391-80.08939,33.1004
	c-25.62449,28.50374-38.66182,65.96638-38.41761,109.38695c-0.17065,10.06602,0.36485,20.45465,1.6624,31.14964
	c3.54841,29.1861,11.8045,58.3165,19.78402,86.48834c4.80183,16.93375,9.76255,34.44308,13.64639,51.77139
	c1.68299,7.5083,3.22182,15.56088,3.54547,23.66916c-0.19714,7.41663-1.55943,14.80426-5.12843,21.78918
	c-7.55582,14.78687-31.77095,28.53394-54.50315,24.60919c-0.11475-0.01859-0.20302,0.0441-0.31777,0.04526
	c-0.19125,0.00232-0.37073,0.02435-0.54138,0.07773c-0.17948,0.05804-0.33248,0.14624-0.47665,0.25763
	c-0.07356,0.0592-0.19125,0.06268-0.25304,0.13693c-0.05296,0.065-0.01177,0.14044-0.04708,0.20889
	c-0.03825,0.0708-0.13535,0.1033-0.15888,0.18103c-0.02354,0.09052,0.0559,0.16479,0.05885,0.25415
	c0.00294,0.15088,0.02648,0.29245,0.0971,0.42706c0.07061,0.13693,0.18536,0.25415,0.31777,0.36322
	c0.07944,0.06268,0.08827,0.159,0.18536,0.20889c2.65395,1.34616,5.558,2.37088,8.55032,3.23077
	c-2.47447-0.03247-4.95189-0.21353-7.41459-0.63824c-0.11475-0.01859-0.20302,0.0441-0.31777,0.04526
	c-0.19125,0.00232-0.37073,0.02435-0.54138,0.07776c-0.17948,0.05801-0.33248,0.14621-0.47665,0.2576
	c-0.07356,0.0592-0.19125,0.06268-0.25304,0.13696c-0.05296,0.06497-0.01177,0.14041-0.04708,0.20886
	c-0.03825,0.0708-0.13535,0.1033-0.15888,0.18106c-0.02354,0.09052,0.0559,0.16476,0.05885,0.25412
	c0.00294,0.15088,0.02648,0.29245,0.0971,0.42706c0.07061,0.13693,0.18536,0.25415,0.31777,0.36325
	c0.07944,0.06265,0.08827,0.15897,0.18536,0.20886c7.07917,3.59286,15.64421,5.48676,24.18276,5.48676
	c3.53959,0,7.08212-0.32492,10.51284-0.99103c7.87359-1.52487,14.72621-5.61557,19.98704-10.20181
	c-1.57707,3.07877-3.8397,5.77341-7.09977,8.18256c-8.32082,6.14822-23.4972,11.03387-33.96002,10.72052
	c-0.71204-0.07657-1.47703,0.45956-1.54177,1.08621c-0.07062,0.62668,0.49431,1.18835,1.28284,1.27887
	c5.39029,0.61505,11.18957,0.44678,17.05651-0.27158c-5.84046,1.76395-11.8457,2.80838-16.79759,2.65985
	c-0.71204-0.0766-1.47703,0.45953-1.54177,1.08618c-0.07062,0.62668,0.49431,1.18835,1.28284,1.27887
	c19.3721,2.21188,43.99915-4.87402,58.28401-16.34772c0.0559,0.12186,0.20596,0.17407,0.30011,0.26578
	c-0.96213,4.93784-3.39835,8.19531-3.43954,8.23709c-7.07918,7.65683-14.92334,11.93207-23.3089,12.70261
	c-0.73557,0.06964-1.3005,0.55008-1.32992,1.13495c-0.02942,0.5849,0.48842,1.10016,1.21811,1.21155
	c2.47741,0.38528,4.87245,0.56168,7.17332,0.56168c0.30011,0,0.58552-0.02786,0.88269-0.03482
	c-2.58628,0.97714-5.23435,1.63165-7.94421,1.88c-0.73557,0.06961-1.3005,0.55005-1.32992,1.13495
	c-0.02942,0.58487,0.48842,1.10013,1.21811,1.21152c2.47741,0.38528,4.87245,0.56168,7.17332,0.56168
	c19.05139-0.00232,31.8092-12.10382,35.50179-19.38699c15.86193,11.51663,36.46391,18.99591,58.37521,21.04648
	c0.05885,0.00699,0.11769,0.00931,0.17654,0.00931c0.62965,0,1.20634-0.31335,1.41818-0.79147
	c0.23538-0.52222-0.01765-1.10477-0.612-1.40186c-1.63885-0.81931-3.33951-1.88345-5.06664-3.08109
	c1.36229,0.17059,2.70985,0.38412,4.08391,0.51178c0.05885,0.00696,0.11769,0.00928,0.17654,0.00928
	c0.62965,0,1.20634-0.31332,1.41818-0.79144c0.23538-0.52222-0.01765-1.10477-0.612-1.40186
	c-7.13802-3.56036-15.24405-10.9967-22.84695-19.86047c11.5191-10.51627,17.92743-24.56274,18.46294-41.25046
	c0.05002-1.5423,0.03825-3.07877-0.00883-4.60828c0-0.0499,0.00883-0.09515,0.00883-0.14505
	c0.69438-21.64297-8.63271-42.6709-13.74054-46.44943c-15.51769-11.47946-45.64095-35.8844-48.54206-46.08734
	c-8.70921-30.63904-11.19545-46.73375-11.31314-77.41803c0.00588-1.25331,0.00588-2.47646,0.01471-3.78084
	c0.2707-33.54488,19.63103-70.94717,50.64286-98.25446c8.54443,44.05419,46.47067,85.17352,98.72592,106.15734
	c0.22949,0.09283,0.42369,0.16478,0.58846,0.21817c0.44724,0.22049,0.90034,0.43866,1.35934,0.65451
	c0.65318,0.31564,1.50645,0.18799,1.97134-0.29477c0.47076-0.48044,0.40015-1.16048-0.153-1.58057
	c-0.74734-0.56631-1.04745-0.75896-1.70065-0.88661c-0.03531-0.00696-0.07649-0.01625-0.12946-0.03018
	c-5.78456-2.83505-11.1925-6.0403-16.40332-9.40918c4.7018,2.3465,9.49774,4.57927,14.46729,6.57529
	c0.22949,0.09285,0.42369,0.16479,0.58846,0.21817c0.44724,0.22049,0.90034,0.43867,1.35934,0.65451
	c0.65318,0.31566,1.50645,0.188,1.97134-0.29475c0.47076-0.48044,0.40015-1.16048-0.153-1.58058
	c-0.74734-0.56631-1.04745-0.75896-1.70065-0.8866c-0.03531-0.00697-0.07649-0.01625-0.12946-0.03018
	c-27.94302-13.69136-49.46889-33.98933-61.29694-57.27438c41.30989,45.01622,103.36592,78.34988,173.07487,92.66791
	c0.28836,0.15434,0.50903,0.36322,0.80325,0.50945c1.47998,0.73575,3.1424,1.27769,4.86069,1.70822
	c-0.30893,1.6328-0.61789,3.22847-0.91507,4.77655c-1.73593,9.01926-3.22769,16.81073-3.80731,22.90326
	c-2.41858,25.45398-33.87177,46.96002-52.66718,59.80887c-5.57858,3.81567-9.98615,6.82596-12.55185,9.15619
	c-0.21185,0.19266-0.34131,0.4317-0.36484,0.68469c-0.51489,5.05737-0.68555,10.84122-0.60907,16.89429
	c-0.20596,15.98447,1.70361,34.94556,5.20493,49.1394c1.53,6.20395,3.53076,12.76065,7.77356,18.68143
	c3.86325,5.3974,9.30063,9.37439,15.45297,11.78238c-3.26596,7.00119-9.03287,12.51114-16.31799,15.38913
	c-0.72382,0.28781-1.02982,0.97482-0.6944,1.55505c0.25305,0.43634,0.80032,0.69629,1.37112,0.69629
	c0.19418,0,0.38837-0.02786,0.5708-0.0882c2.39798-0.77753,4.89893-1.65717,7.41754-2.63895
	c-2.54214,2.18753-5.45798,3.96188-8.66507,5.22913c-0.72382,0.28781-1.02982,0.97482-0.6944,1.55505
	c0.25305,0.43634,0.80032,0.69629,1.37112,0.69629c0.19418,0,0.38837-0.02783,0.5708-0.0882
	c15.44119-5.00864,35.31644-13.75751,34.82504-32.50159c13.92886,12.75369,32.85666,22.34854,53.89117,27.1123
	c0.14124,0.0325,0.28247,0.04642,0.41782,0.04642c0.58255,0,1.13571-0.26923,1.37698-0.71021
	c0.30893-0.54309,0.05295-1.17905-0.58847-1.49005c-2.46271-1.19296-4.7724-2.57047-6.93204-4.07794
	c1.89777,0.51874,3.7926,1.04095,5.72571,1.47845c0.14124,0.0325,0.28247,0.04642,0.41782,0.04642
	c0.58255,0,1.13571-0.26923,1.37698-0.71021c0.30893-0.54309,0.05295-1.17905-0.58847-1.49005
	c-6.00229-2.90585-11.02774-3.16562-15.00867-7.68103c10.83649,5.73624,24.72122,11.8754,35.93433,11.8754
	c0.02353,0,0.05295,0,0.05295,0c0.72382,0,1.33582-4.11526,1.49469-4.65839c0.15887-0.56396-0.21774-3.00574-0.89447-3.22623
	c-2.71869-0.88776-5.36087,0.77618-7.95007-0.31235c2.50684,0.23907,4.97247,3.19696,7.29691,3.19696c0.02353,0,0.05295,0,0.05295,0
	c0.72382,0,1.33582-3.99194,1.49469-4.53503c0.15887-0.564-0.21774-2.94409-0.89447-3.16458
	c-18.25989-5.96255-33.69519-17.60388-43.76376-30.58386c4.72241,3.83423,9.95969,6.89124,15.41177,9.0567
	c5.00192,1.98907,11.13367,3.047,17.27719,3.047c6.27298,0,12.55774-1.45197,17.65967-4.75006
	c0.47665-0.30637,0.66498-0.86407,0.48843-1.32596C408.54526,415.63849,408.0274,415.25253,407.41541,415.21075z
	 M156.38725,25.29373c0.02354,0.00116,0.0412-0.00116,0.05002,0c-0.01176-0.00116-0.01765,0.0058-0.02942,0.00464
	C156.40785,25.29837,156.39314,25.29489,156.38725,25.29373z M324.1507,309.83444c0,0,0,0.00232,0,0.00464
	c0-0.00232,0-0.00348,0-0.00348c-1,1.11984-2.37149,2.22812-3.58963,3.30969
	C321.77921,312.06372,323.1507,310.95544,324.1507,309.83444z M323.19504,433.91077c0,0-0.00589,0-0.01178,0
	c0.82974,0,1.49469-0.51294,1.51825-1.15817C324.67795,433.39783,324.013,433.91077,323.19504,433.91077z"/>
</svg>
