<?xml version="1.0" encoding="utf-8"?>
<!-- Generator: Adobe Illustrator 19.0.0, SVG Export Plug-In . SVG Version: 6.00 Build 0)  -->
<svg version="1.1" id="Layer_1" xmlns="http://www.w3.org/2000/svg" xmlns:xlink="http://www.w3.org/1999/xlink" x="0px" y="0px"
	 viewBox="-315 141.5 328 278.5" enable-background="new -315 141.5 328 278.5" xml:space="preserve">
<g id="XMLID_2640_">
	<path id="XMLID_2714_" fill="#FFFFFF" d="M-238.3613,193.7076c-1.6,2.9-2.5,5.8-2.4,8.6c-4.9,0.6-10,1.2-15.2,2.1c0,0,0,0-0.1,0
		c0,0,0,0,0.1,0C-255.4613,196.4076-245.4613,190.0076-238.3613,193.7076C-238.3613,193.6076-238.3613,193.6076-238.3613,193.7076
		C-238.3613,193.6076-238.3613,193.6076-238.3613,193.7076z"/>
	<path id="XMLID_2713_" fill="#FFFFFF" d="M-242.5613,261.1075c13.6,12-2.9,33-21.8,37.3c0.1-2.3,0.4-4.6,0.9-7
		c2.6-11.4,8.5-22.8,18.4-29C-244.1613,261.9075-243.3613,261.4075-242.5613,261.1075z"/>
	<path id="XMLID_2712_" fill="#FFFFFF" d="M-42.5613,204.7076c-7-4.3-47.5-5.8-32.3-18
		C-51.4613,171.9076-39.7613,184.4076-42.5613,204.7076z"/>
	<path id="XMLID_2711_" fill="#EF7B05" d="M-4.6613,327.1075c2.1,14.3,1.1,30-3.3,43.8c-2.6,8.2-21.6,26.9-18,35.3
		c-5-10.1-2.9-20.8-4-31.7c-0.2-1.8-0.4-3.5-0.5-5.2c-0.7-5.9-1.7-11.2-4.2-17.1c-4.5-10.8-6.8-21.9-7-33.7
		c-0.2-7,1.3-14.3,1.3-21.3l0,0v-0.2c0-3.4-0.4-6.8-2.1-10.1c-1.6-3.1-3.3-5.1-5.4-6.3c0,0,0.1,0,0,0l0,0c-5.3-3-11.8-1.5-18.8-3.2
		c-4.5-1.1-10.7-5.4-13.3-9.4c-1.6-2.5-5.1-12.7-3.2-15.4c-16.2,22.9-53.4,24-77.1,16.2c-8.9-2.9-16.7-13.9-26.2-14.4
		c-9.5-0.4-16.8,9.5-27.1,8c-10.6-1.6-19.2-6.1-29-1.4l0,0c-0.8,0.4-1.6,0.8-2.4,1.3c-9.9,6.2-15.8,17.6-18.4,29
		c-0.5,2.3-0.8,4.7-0.9,7c0,0.1,0,0.3,0,0.4c-0.3,11.6,4,22.9,3.5,34.6s-1.1,24.7-3.4,36.7c-0.6,3.3-1.4,6.4-2.3,9.5
		c-1.1,3.7-2.9,7.1-4.2,10.5c-0.4,1-0.6,2-1.6,3.1l0,0c-1,4.5-2.6,9-3,14.2c0.2-3.1-0.3-5.8-1.4-8.3c-3.1-6.7-9.7-11.6-11.8-19.1
		c-3.6-13.2-2.8-29.8-3.6-43.6c-0.7-11.9-8.1-20.2-10.6-31.4c-4.1-18.4-2.3-37.6,2.5-55.8c0-0.2,0.1-0.4,0.2-0.6
		c1.9-7,4.2-13.8,6.9-20.3c6.5-15.9,21.7-21.1,37.1-23.8c0,0,0,0,0.1,0c5.1-0.9,10.3-1.5,15.2-2.1c-0.1-2.8,0.8-5.7,2.4-8.6
		c0,0,0-0.1,0.1-0.1c6.6-12,25.2-24.1,33.6-29.5c16.9-11,36.6-13.4,54.9-4.4c9.7,4.8,18.8,10.3,28.5,14.2c0.1,0,0.2,0.1,0.3,0.1
		c6.7,2.6,13.7,4.5,21.5,4.8c0.6,0,1.2,0,1.8,0c6.5,0,12.8-1.1,18.8-1.5c-1.6,1.6-2.8,4.7-3.8,6.4v0.1c0.3,0.1,0.6,0.2,0.9,0.2
		c3.2,0.8,6.6,0.9,9.9,1c-1,0.6-1.9,1.3-2.7,1.9c-15.2,12.2,25.3,13.7,32.3,18c0.1,0.1,0.2,0.1,0.3,0.2l0.1,0.1
		c12.5,9.3,17.7,35.1,22.1,49.7c3.7,12.6,8,23.2,22.6,22.4C-2.4613,293.1075-7.1613,309.8076-4.6613,327.1075z"/>
	<g id="XMLID_2641_">
		<g id="XMLID_2709_">
			<path id="XMLID_2710_" fill="#FFFFFF" d="M-89.2613,181.3076c0,0-0.2,0.2-0.6,0.7c-0.2,0.2-0.4,0.5-0.7,0.8s-0.6,0.7-1,1.1
				c-1.6,1.5-4.3,3.3-7.8,4.5c-3.6,1.2-8,1.6-12.6,1.1c-4.7-0.5-9.5-1.9-14.2-3.4c-4.8-1.5-9.5-3.1-14.1-3.9s-8.9-0.8-12.6-0.4
				c-3.7,0.4-6.7,1.2-8.8,2c-2.1,0.7-3.3,1.2-3.4,1.2c0,0-0.4,0.1-0.9,0.4c-0.6,0.2-1.3,0.6-2.3,1.1c-1,0.4-2.1,1.1-3.4,1.8
				c-0.6,0.4-1.3,0.8-2,1.3c-0.7,0.4-1.4,1-2.1,1.5c-2.9,2.2-6.1,5.1-8.9,8.7c-2.8,3.6-5.2,8-6.9,12.7s-2.6,9.6-2.9,14.3
				s0.1,9,0.8,12.7c0.6,3.7,1.7,6.6,2.5,8.7c0.9,2,1.4,3.1,1.4,3.1s-0.5-1.1-1.4-3.1c-0.8-2-1.9-4.9-2.6-8.6
				c-0.7-3.7-1.2-8.1-1-12.8s1-9.7,2.7-14.5c1.6-4.8,4-9.2,6.8-13s6-6.8,9-9.1c0.7-0.6,1.5-1.1,2.2-1.6s1.4-0.9,2-1.3
				c1.3-0.7,2.5-1.5,3.5-1.9c1-0.5,1.8-0.9,2.3-1.1c0.6-0.2,0.9-0.4,0.9-0.4c0.1,0,1.3-0.6,3.5-1.2c2.2-0.7,5.3-1.5,9.1-1.8
				c3.8-0.4,8.2-0.3,12.9,0.6c4.6,0.9,9.4,2.5,14.1,4.1c4.7,1.6,9.5,3.1,14.1,3.7c4.6,0.5,9,0.2,12.5-0.9c3.6-1.1,6.2-2.8,7.9-4.3
				c0.4-0.4,0.7-0.7,1-1s0.5-0.6,0.7-0.8C-89.4613,181.6076-89.2613,181.3076-89.2613,181.3076z"/>
		</g>
		<g id="XMLID_2707_">
			<path id="XMLID_2708_" fill="#FFFFFF" d="M-84.3613,185.7076c0,0,0,0.3-0.1,0.8c0,0.3-0.1,0.6-0.2,1s-0.2,0.8-0.4,1.3
				c-0.6,1.9-2,4.5-4.7,6.8c-1.3,1.1-2.8,2.2-4.6,3c-1.7,0.9-3.7,1.6-5.7,2.1c-4.1,1-8.7,0.8-13.1,0.1s-8.8-1.8-12.9-2.5
				c-4.1-0.8-8-1.2-11.3-1.1c-3.3,0.1-6.1,0.6-8,1.1c-1,0.3-1.7,0.4-2.2,0.6c-0.5,0.2-0.8,0.3-0.9,0.3c-0.1,0-1.2,0.3-3,1
				c-0.9,0.3-2,0.8-3.2,1.4c-1.2,0.6-2.5,1.3-3.9,2.1c-2.8,1.7-5.8,4-8.7,7c-2.8,3-5.4,6.7-7.3,10.6c-1.9,4-3.2,8.3-3.9,12.4
				s-0.8,8.1-0.5,11.4c0.3,3.3,0.9,6.1,1.4,8c0.2,0.9,0.5,1.7,0.7,2.2s0.2,0.8,0.2,0.8s-0.1-0.3-0.3-0.8s-0.4-1.2-0.7-2.2
				c-0.5-1.9-1.2-4.6-1.5-8s-0.3-7.3,0.3-11.5s1.8-8.6,3.7-12.7c1.9-4.1,4.4-7.9,7.2-11s5.9-5.6,8.8-7.4c1.4-0.9,2.8-1.6,4-2.3
				c1.2-0.6,2.3-1.1,3.2-1.5c1.8-0.8,3-1.1,3-1.1s0.3-0.1,0.9-0.3c0.5-0.2,1.3-0.3,2.3-0.6c2-0.4,4.8-0.9,8.3-0.9
				c3.4-0.1,7.4,0.5,11.5,1.4c4.1,0.8,8.5,2,12.8,2.8c4.4,0.8,8.9,1.1,12.9,0.1c2-0.4,3.9-1.1,5.7-1.9c1.7-0.8,3.3-1.8,4.6-2.9
				c2.6-2.1,4.1-4.7,4.7-6.6c0.2-0.5,0.3-0.9,0.4-1.3c0.1-0.4,0.1-0.7,0.2-1C-84.3613,186.0076-84.3613,185.7076-84.3613,185.7076z"
				/>
		</g>
		<g id="XMLID_2705_">
			<path id="XMLID_2706_" fill="#FFFFFF" d="M-81.9613,190.6076c0,0,0,0.3,0,0.7c0,0.2,0,0.5,0,0.9c-0.1,0.3-0.1,0.8-0.2,1.2
				c-0.2,0.9-0.5,2-1.1,3.1s-1.4,2.3-2.4,3.4c-2.1,2.3-5.2,4.3-8.8,5.5c-1.8,0.6-3.8,1-5.8,1c-1,0-2,0.1-3,0.1s-2,0-3-0.1
				c-4-0.3-8-1-11.8-1.4s-7.3-0.4-10.2-0.1c-3,0.4-5.4,1-7.1,1.6s-2.7,1-2.7,1c-0.1,0-1,0.4-2.6,1.1s-3.8,1.9-6.2,3.5
				c-2.4,1.7-5.1,3.9-7.5,6.7s-4.7,6.1-6.3,9.8c-1.7,3.6-2.8,7.5-3.4,11.3c-0.6,3.7-0.7,7.3-0.5,10.3s0.7,5.5,1.1,7.2
				c0.4,1.7,0.7,2.7,0.7,2.7s-0.3-1-0.8-2.7c-0.4-1.7-1-4.2-1.2-7.2c-0.3-3-0.2-6.6,0.3-10.4c0.6-3.8,1.6-7.7,3.3-11.5
				c1.6-3.7,3.8-7.2,6.3-10.1c2.4-2.9,5.1-5.3,7.6-7c2.5-1.8,4.7-3,6.3-3.8s2.6-1.1,2.7-1.2c0.1,0,1.1-0.4,2.8-1
				c1.8-0.5,4.3-1.1,7.4-1.5c3.1-0.3,6.7-0.2,10.5,0.3s7.7,1.2,11.7,1.6c1,0.1,2,0.1,3,0.2c1,0.1,2,0,3,0c2,0,3.9-0.4,5.7-0.9
				c3.6-1.1,6.7-3,8.8-5.2c1.1-1.1,1.9-2.3,2.5-3.4c0.6-1.1,0.9-2.2,1.1-3c0.1-0.4,0.2-0.8,0.2-1.2s0-0.7,0.1-0.9
				C-81.9613,190.8076-81.9613,190.6076-81.9613,190.6076z"/>
		</g>
		<g id="XMLID_2703_">
			<path id="XMLID_2704_" fill="#FFFFFF" d="M-38.4613,231.5076c0,0-0.1-0.3-0.3-0.7c-0.1-0.2-0.2-0.5-0.3-0.9
				c-0.1-0.3-0.3-0.7-0.5-1.2c-0.8-1.7-2.1-4.1-4.2-6.5s-5-4.8-8.5-6.4c-3.5-1.7-7.7-2.5-11.8-2.1c-4.1,0.3-8.1,1.7-11.4,3.8
				s-5.8,4.9-7.7,7.5s-3.2,4.9-4.1,6.6c-0.9,1.7-1.4,2.7-1.5,2.8c0,0.1-0.6,1-1.5,2.7c-0.9,1.6-2.2,4-3.8,6.7
				c-1.7,2.7-3.9,5.7-6.8,8.3c-0.4,0.3-0.7,0.7-1.1,1s-0.8,0.6-1.2,0.9c-0.8,0.6-1.6,1.2-2.4,1.8c-0.8,0.6-1.7,1.1-2.6,1.7
				c-0.9,0.5-1.8,1.1-2.6,1.6c-7.1,4.1-15,6.5-21,7.5c-1.5,0.2-2.9,0.4-4.1,0.5c-0.6,0.1-1.2,0.1-1.7,0.1s-1,0-1.5,0.1
				c-1.8,0.1-2.8,0.1-2.8,0.1s1-0.1,2.8-0.2c0.4,0,0.9-0.1,1.5-0.1c0.5,0,1.1,0,1.7-0.2c1.2-0.2,2.6-0.4,4.1-0.6
				c5.9-1.1,13.8-3.6,20.7-7.8c0.9-0.6,1.7-1.1,2.6-1.7c0.9-0.6,1.7-1.1,2.5-1.7s1.6-1.2,2.4-1.8c0.4-0.3,0.8-0.6,1.2-0.9
				c0.4-0.3,0.7-0.7,1.1-1c2.8-2.6,4.9-5.6,6.5-8.3s2.8-5,3.7-6.7c0.9-1.7,1.4-2.6,1.4-2.7c0-0.1,0.6-1.1,1.5-2.8
				c1-1.7,2.3-4.1,4.3-6.7c2-2.6,4.6-5.5,8.1-7.6c3.4-2.1,7.6-3.5,11.8-3.7c4.2-0.3,8.5,0.6,12,2.4c3.6,1.8,6.5,4.2,8.5,6.7
				c2.1,2.4,3.3,4.9,4.1,6.6c0.2,0.4,0.3,0.8,0.5,1.2c0.1,0.3,0.2,0.6,0.3,0.9C-38.4613,231.3076-38.4613,231.5076-38.4613,231.5076
				z"/>
		</g>
		<g id="XMLID_2701_">
			<path id="XMLID_2702_" fill="#FFFFFF" d="M-80.2613,196.5076c0,0,0,0.2,0,0.7c0,0.2,0,0.5,0,0.8s0,0.7,0,1.1
				c-0.1,1.6-0.5,3.9-1.8,6.3c-1.2,2.5-3.3,5-5.9,7.1c-1.3,1-2.8,2-4.4,2.7c-0.8,0.4-1.6,0.8-2.4,1c-0.8,0.3-1.7,0.6-2.5,0.8
				c-6.9,1.9-14.1,1.9-19.4,2.4c-2.7,0.2-4.9,0.5-6.4,0.7c-1.6,0.2-2.4,0.5-2.5,0.4c-0.1,0-0.9,0.1-2.4,0.5
				c-0.4,0.1-0.8,0.2-1.2,0.3s-0.9,0.3-1.4,0.4c-1,0.3-2.1,0.8-3.3,1.3c-2.3,1.1-4.8,2.7-7.2,5c-2.3,2.3-4.4,5.1-5.9,8.3
				c-1.5,3.1-2.4,6.6-2.6,9.9c-0.2,3.3,0.1,6.4,0.7,9c0.2,0.6,0.4,1.2,0.5,1.8c0.1,0.3,0.2,0.6,0.2,0.8c0.1,0.3,0.2,0.5,0.3,0.8
				c0.2,0.5,0.4,1,0.6,1.4c0.2,0.4,0.3,0.8,0.5,1.2c0.7,1.4,1.1,2.1,1.1,2.1s-0.4-0.8-1.2-2.1c-0.2-0.3-0.4-0.7-0.5-1.1
				c-0.2-0.4-0.4-0.9-0.6-1.4c-0.1-0.2-0.2-0.5-0.3-0.8s-0.2-0.6-0.3-0.8c-0.2-0.6-0.4-1.2-0.6-1.8c-0.6-2.6-1.1-5.7-0.9-9.1
				c0.2-3.3,1-6.9,2.5-10.2c1.4-3.3,3.5-6.2,5.8-8.6s5-4.1,7.3-5.3c1.2-0.5,2.3-1.1,3.3-1.4c0.5-0.2,1-0.3,1.4-0.5
				c0.4-0.1,0.9-0.2,1.2-0.3c1.5-0.4,2.4-0.6,2.5-0.6s1-0.2,2.6-0.4s3.8-0.4,6.5-0.5c5.3-0.3,12.4-0.1,19.3-1.9
				c0.9-0.2,1.7-0.5,2.5-0.8c0.8-0.2,1.6-0.6,2.4-1c1.6-0.7,3.1-1.5,4.4-2.5c2.6-2,4.7-4.4,6-6.8c1.3-2.4,1.8-4.6,1.9-6.2
				c0-0.4,0-0.8,0.1-1.1c0-0.3,0-0.6,0-0.8C-80.2613,196.7076-80.2613,196.5076-80.2613,196.5076z"/>
		</g>
		<g id="XMLID_2699_">
			<path id="XMLID_2700_" fill="#FFFFFF" d="M-104.3613,183.5076c0,0-0.3,0.2-0.8,0.5c-0.3,0.2-0.6,0.4-1,0.6s-0.9,0.4-1.4,0.6
				c-2.1,0.9-5.4,1.7-9.4,1.4c-4-0.2-8.5-1.5-13.1-3.6c-4.5-2.1-9.1-4.8-13.9-7.2c-4.8-2.4-9.8-4-14.7-4.5
				c-4.9-0.6-9.5-0.3-13.4,0.4c-1,0.2-1.9,0.4-2.8,0.6c-0.9,0.2-1.7,0.5-2.5,0.7s-1.5,0.5-2.2,0.7s-1.3,0.5-1.8,0.7
				c-2.2,0.9-3.4,1.6-3.5,1.6s-1.3,0.7-3.3,1.8c-1,0.6-2.1,1.4-3.5,2.2c-0.6,0.5-1.3,1-2,1.5c-0.3,0.3-0.7,0.5-1.1,0.8
				c-0.3,0.3-0.7,0.6-1.1,1c-2.9,2.6-6,6.1-8.4,10.3c-2.5,4.3-4.4,9.2-5.4,14.4c-1.1,5.2-1.3,10.5-0.8,15.5c0.4,5,1.6,9.5,3,13.2
				c0.2,0.5,0.3,0.9,0.5,1.4c0.2,0.4,0.4,0.9,0.6,1.3c0.4,0.8,0.7,1.6,1.1,2.3c0.8,1.4,1.5,2.6,2.1,3.6c1.3,1.9,2,3,2,3
				s-0.8-1.1-2.1-2.9c-0.6-1-1.3-2.2-2.1-3.6c-0.4-0.7-0.7-1.5-1.1-2.3c-0.2-0.4-0.4-0.8-0.6-1.3c-0.2-0.4-0.3-0.9-0.5-1.4
				c-1.5-3.7-2.8-8.2-3.3-13.2s-0.4-10.4,0.6-15.7s2.8-10.4,5.3-14.8c2.4-4.4,5.5-8,8.5-10.7c0.4-0.3,0.7-0.7,1.1-1
				c0.4-0.3,0.7-0.6,1.1-0.9c0.7-0.6,1.4-1.1,2-1.6c1.4-0.9,2.5-1.7,3.5-2.3c2.1-1.2,3.3-1.9,3.4-1.9c0.1,0,1.4-0.7,3.6-1.6
				c0.6-0.2,1.2-0.4,1.9-0.7c0.7-0.2,1.4-0.5,2.2-0.7s1.7-0.4,2.5-0.7c0.9-0.2,1.9-0.4,2.9-0.5c4-0.7,8.7-0.9,13.7-0.2
				c5,0.6,10.2,2.4,14.9,4.8c4.8,2.4,9.3,5.3,13.8,7.4c4.5,2.2,9,3.5,12.9,3.8c3.9,0.4,7.2-0.4,9.4-1.2c0.5-0.2,1-0.4,1.4-0.6
				c0.4-0.2,0.7-0.4,1-0.5C-104.6613,183.6076-104.3613,183.5076-104.3613,183.5076z"/>
		</g>
		<g id="XMLID_2697_">
			<path id="XMLID_2698_" fill="#FFFFFF" d="M-198.5613,179.7076c0,0-0.6,0.3-1.6,0.9c-0.5,0.3-1.1,0.6-1.8,1
				c-0.3,0.2-0.7,0.4-1.1,0.7s-0.8,0.5-1.2,0.8c-1.6,1.1-3.4,2.6-5.2,4.3s-3.5,3.8-5.1,5.9c-1.6,2.2-2.9,4.5-4.1,6.7
				c-0.5,1.2-1.1,2.2-1.5,3.3c-0.2,0.5-0.4,1.1-0.6,1.6c-0.2,0.5-0.3,1-0.5,1.5c-0.3,1-0.5,1.9-0.8,2.7c-0.2,0.8-0.4,1.5-0.5,2.1
				c-0.3,1.2-0.4,1.9-0.4,1.9s-0.1,0.7-0.3,1.9c-0.1,1.2-0.4,2.8-0.4,4.8c-0.2,4,0.3,9.3,1.7,14.3c0.7,2.5,1.6,5,2.6,7.2
				c0.6,1.1,1,2.2,1.6,3.1c0.3,0.5,0.5,1,0.8,1.4s0.6,0.9,0.8,1.3c0.5,0.8,1,1.6,1.5,2.2c0.2,0.3,0.5,0.6,0.7,0.9
				c0.2,0.3,0.4,0.5,0.6,0.7c0.7,0.9,1.1,1.4,1.1,1.4s-0.4-0.5-1.2-1.3c-0.2-0.2-0.4-0.4-0.6-0.7c-0.2-0.3-0.4-0.6-0.7-0.9
				c-0.5-0.6-1.1-1.3-1.6-2.1c-0.3-0.4-0.6-0.8-0.9-1.3s-0.6-0.9-0.9-1.4c-0.6-0.9-1.1-2-1.7-3.1c-1.1-2.2-2.1-4.7-2.9-7.2
				c-1.6-5.1-2.3-10.5-2.2-14.5c0-2,0.2-3.7,0.3-4.9c0.2-1.2,0.3-1.9,0.3-2c0,0,0.1-0.8,0.4-2c0.1-0.6,0.3-1.3,0.6-2.2
				c0.3-0.8,0.5-1.7,0.9-2.7c0.2-0.5,0.4-1,0.6-1.5s0.4-1,0.7-1.6c0.4-1.1,1-2.2,1.6-3.4c1.2-2.3,2.7-4.6,4.4-6.7
				c1.7-2.1,3.5-4.1,5.4-5.8s3.7-3.1,5.4-4.2c0.4-0.3,0.8-0.5,1.2-0.8c0.4-0.2,0.8-0.4,1.1-0.6c0.7-0.4,1.3-0.8,1.8-1
				C-199.1613,180.0076-198.5613,179.7076-198.5613,179.7076z"/>
		</g>
		<g id="XMLID_2695_">
			<path id="XMLID_2696_" fill="#FFFFFF" d="M-45.9613,219.8076c0,0-0.5-0.1-1.5-0.3c-0.5-0.1-1.1-0.1-1.7-0.2
				c-0.7-0.1-1.4-0.1-2.3-0.1c-3.3-0.1-7.8,0.7-11.8,2.8c-2,1-3.9,2.3-5.4,3.7c-0.4,0.4-0.8,0.7-1.1,1.1c-0.4,0.4-0.7,0.7-1,1.1
				c-0.7,0.7-1.2,1.5-1.7,2.2s-0.9,1.4-1.3,2s-0.7,1.1-0.9,1.6c-0.5,0.9-0.8,1.4-0.8,1.5c0,0-0.3,0.6-0.8,1.4
				c-0.5,0.9-1.1,2.2-1.8,3.7c-1.5,3-3.2,7.2-5.5,11.1c-1.2,1.9-2.4,3.8-3.8,5.4c-1.4,1.6-2.8,2.9-4.2,3.9s-2.6,1.6-3.5,1.9
				s-1.4,0.5-1.4,0.5s0.5-0.2,1.4-0.6c0.9-0.4,2.1-1,3.4-2s2.7-2.3,4-4c1.3-1.6,2.5-3.5,3.6-5.4c2.1-3.9,3.7-8.1,5-11.3
				c0.7-1.6,1.2-2.9,1.7-3.8c0.4-0.9,0.7-1.5,0.7-1.5s0.3-0.6,0.9-1.5c0.3-0.5,0.6-1,1-1.6s0.8-1.3,1.4-2s1.1-1.4,1.8-2.2
				c0.4-0.4,0.7-0.7,1.1-1.1c0.4-0.3,0.8-0.7,1.2-1.1c1.7-1.4,3.6-2.6,5.7-3.6c4.2-1.9,8.7-2.6,12.1-2.4c0.8,0,1.6,0.1,2.3,0.2
				c0.7,0.1,1.3,0.2,1.7,0.3C-46.4613,219.6076-45.9613,219.8076-45.9613,219.8076z"/>
		</g>
		<g id="XMLID_2693_">
			<path id="XMLID_2694_" fill="#FFFFFF" d="M-301.3613,283.8076c0,0,0-0.9-0.1-2.6c0-0.8,0-1.8,0-2.9c0-0.6,0-1.2,0-1.8
				s0.1-1.3,0.1-2c0.1-2.8,0.5-6,1.1-9.5s1.4-7.1,2.3-10.7c1-3.6,2.2-7.2,3.5-10.4c1.4-3.2,2.7-6.2,4.1-8.7c0.3-0.6,0.7-1.2,1-1.8
				s0.7-1.1,1-1.6s0.6-1,0.8-1.4c0.3-0.4,0.5-0.8,0.8-1.1c0.9-1.4,1.5-2.2,1.6-2.2c0-0.1,0.6-0.8,1.7-2.1c1.1-1.2,2.6-3,4.5-4.8
				c0.5-0.5,1-1,1.6-1.4c0.6-0.5,1.1-1,1.7-1.5s1.3-0.9,1.9-1.4c0.3-0.2,0.6-0.5,1-0.7c0.3-0.2,0.7-0.4,1.1-0.7
				c0.7-0.4,1.4-0.9,2.2-1.3c0.8-0.4,1.5-0.8,2.3-1.2s1.6-0.7,2.4-1.1c0.8-0.4,1.6-0.6,2.5-0.9c1.7-0.6,3.4-1,5.1-1.4
				c1.7-0.2,3.4-0.6,5-0.6c3.3-0.3,6.4,0,8.9,0.3c2.6,0.4,4.7,0.8,6.2,1.3c1.5,0.4,2.3,0.6,2.3,0.6s-0.8-0.2-2.3-0.6
				c-1.5-0.4-3.6-0.8-6.2-1.1c-2.6-0.3-5.6-0.5-8.9-0.1c-1.6,0.1-3.3,0.4-5,0.7c-1.7,0.4-3.4,0.8-5,1.5c-0.8,0.3-1.6,0.6-2.4,1
				s-1.6,0.7-2.4,1.1c-0.8,0.4-1.5,0.8-2.2,1.2s-1.4,0.9-2.1,1.4c-0.3,0.2-0.7,0.5-1,0.7s-0.6,0.5-1,0.7c-0.6,0.5-1.2,1-1.8,1.4
				c-0.6,0.5-1.1,1-1.7,1.5c-0.5,0.5-1,0.9-1.5,1.4c-1.9,1.9-3.3,3.6-4.3,4.8c-1,1.3-1.5,2-1.6,2.1c-0.1,0-0.6,0.8-1.6,2.2
				c-0.2,0.3-0.5,0.7-0.8,1.1c-0.3,0.4-0.6,0.9-0.9,1.3c-0.3,0.5-0.6,1-1,1.5c-0.3,0.5-0.7,1.1-1,1.7c-1.4,2.4-2.8,5.3-4.3,8.5
				c-1.4,3.2-2.6,6.7-3.7,10.2c-1,3.6-1.9,7.2-2.5,10.6c-0.6,3.4-1,6.7-1.3,9.5c-0.1,0.7-0.1,1.4-0.2,2c0,0.6-0.1,1.2-0.1,1.8
				c-0.1,1.1-0.1,2.1-0.1,2.9C-301.3613,282.9075-301.3613,283.8076-301.3613,283.8076z"/>
		</g>
		<g id="XMLID_2691_">
			<path id="XMLID_2692_" fill="#FFFFFF" d="M-285.2613,247.4076c0,0,0.1-0.5,0.2-1.5c0-0.5,0.1-1,0.3-1.7c0.1-0.3,0.1-0.7,0.2-1
				c0.1-0.4,0.2-0.7,0.3-1.1c0.3-1.6,1-3.4,1.7-5.3c0.8-1.9,1.8-3.8,2.9-5.7c1.2-1.8,2.5-3.5,3.9-5.1c1.4-1.5,2.8-2.8,4.1-3.8
				c1.3-1,2.4-1.8,3.3-2.3c0.8-0.5,1.3-0.8,1.4-0.8c0,0,0.5-0.3,1.4-0.7c0.9-0.3,2.1-0.9,3.6-1.3c3-0.9,7.1-1.5,11.2-1.3
				c2.1,0.1,4.1,0.4,5.9,0.8c0.9,0.3,1.8,0.5,2.7,0.8c0.4,0.1,0.8,0.3,1.2,0.4c0.4,0.2,0.8,0.3,1.1,0.5c0.7,0.3,1.3,0.6,1.9,0.9
				s1,0.5,1.4,0.7c0.8,0.4,1.2,0.7,1.2,0.7s-0.5-0.2-1.2-0.6c-0.4-0.2-0.9-0.4-1.5-0.7s-1.2-0.5-1.9-0.8c-0.4-0.1-0.7-0.3-1.1-0.4
				c-0.4-0.1-0.8-0.2-1.2-0.4c-0.8-0.3-1.7-0.4-2.7-0.6c-1.9-0.3-3.9-0.6-5.9-0.6c-4,0-8,0.7-10.9,1.7c-1.4,0.5-2.6,1-3.4,1.4
				s-1.3,0.7-1.3,0.7s-0.5,0.2-1.3,0.7c-0.8,0.4-1.9,1.1-3.2,2.1c-1.3,0.9-2.7,2.1-4.1,3.5s-2.7,3-4,4.8c-1.2,1.8-2.2,3.6-3.1,5.5
				c-0.8,1.8-1.5,3.6-1.9,5.2c-0.1,0.4-0.2,0.8-0.3,1.1c-0.1,0.4-0.1,0.7-0.2,1c-0.1,0.6-0.3,1.2-0.3,1.7
				C-285.1613,246.8076-285.2613,247.4076-285.2613,247.4076z"/>
		</g>
		<g id="XMLID_2689_">
			<path id="XMLID_2690_" fill="#FFFFFF" d="M-300.0613,284.1075c0,0,0.2-0.1,0.4-0.3c0.3-0.2,0.7-0.5,1.2-0.9c1-0.8,2.4-2.1,3.5-4
				c1.2-1.9,2.2-4.3,2.9-7.1c0.8-2.7,1.3-5.7,2.2-8.6c1.7-5.9,4.6-11.3,7.2-15.1c0.6-0.9,1.3-1.8,1.9-2.5s1.1-1.4,1.6-1.9
				c0.9-1,1.5-1.6,1.5-1.6s0.6-0.6,1.6-1.4c0.5-0.4,1.1-0.9,1.8-1.5c0.7-0.5,1.6-1.1,2.5-1.7c1.9-1.2,4.2-2.3,6.8-3.1
				s5.5-1.2,8.4-1.2c5.8-0.1,11.4,1.8,15.1,3.9c1.9,1,3.3,2.1,4.3,2.9s1.5,1.3,1.5,1.3s-0.6-0.4-1.5-1.2c-1-0.7-2.5-1.8-4.4-2.7
				c-3.8-2-9.3-3.6-15-3.4c-2.8,0.1-5.6,0.6-8.1,1.4c-2.5,0.9-4.7,2-6.5,3.2c-0.9,0.6-1.7,1.2-2.4,1.7c-0.7,0.6-1.3,1.1-1.7,1.5
				c-0.9,0.9-1.5,1.4-1.5,1.4s-0.6,0.6-1.5,1.5c-0.5,0.5-1,1.1-1.6,1.8s-1.2,1.5-1.9,2.4c-2.6,3.6-5.6,8.9-7.4,14.6
				c-0.9,2.9-1.6,5.8-2.4,8.6c-0.8,2.7-1.9,5.2-3.2,7.1c-1.3,1.9-2.7,3.1-3.7,3.9c-0.5,0.4-1,0.6-1.2,0.8
				C-299.9613,284.0076-300.0613,284.1075-300.0613,284.1075z"/>
		</g>
		<g id="XMLID_2687_">
			<path id="XMLID_2688_" fill="#FFFFFF" d="M-296.1613,290.1075c0,0,0.4,0,1,0c0.3,0,0.7,0,1.1,0s0.9,0,1.5-0.1
				c2.2-0.1,5-0.7,7.8-1.4c2.8-0.8,5.4-1.9,7.4-2.9c1-0.5,1.8-1,2.3-1.3c0.6-0.3,0.9-0.5,0.9-0.5s0.3-0.2,0.9-0.5
				c0.5-0.3,1.3-0.7,2.2-1.3c0.4-0.3,0.9-0.6,1.4-0.9c0.5-0.4,1-0.7,1.5-1.1c0.3-0.2,0.5-0.4,0.8-0.6s0.5-0.4,0.8-0.7
				c0.5-0.5,1.1-0.9,1.6-1.4c2.1-1.9,3.9-4.1,5.2-5.8c0.7-0.8,1.1-1.6,1.5-2.1c0.3-0.5,0.5-0.8,0.5-0.8s-0.2,0.3-0.5,0.9
				c-0.3,0.5-0.7,1.3-1.4,2.2c-1.2,1.8-2.9,4.1-4.9,6.2c-0.5,0.5-1,1-1.5,1.5c-0.3,0.2-0.5,0.5-0.8,0.7s-0.5,0.4-0.8,0.7
				c-0.5,0.4-1,0.9-1.5,1.3c-0.5,0.4-1,0.7-1.4,1c-0.9,0.7-1.6,1.1-2.2,1.5c-0.5,0.3-0.9,0.6-0.9,0.6s-0.4,0.2-1,0.5
				s-1.4,0.7-2.5,1.1c-2,0.9-4.8,1.8-7.7,2.5c-2.9,0.6-5.7,0.9-7.9,1c-0.5,0-1,0-1.5,0c-0.4,0-0.8,0-1.1,0
				C-295.7613,290.1075-296.1613,290.1075-296.1613,290.1075z"/>
		</g>
		<g id="XMLID_2685_">
			<path id="XMLID_2686_" fill="#FFFFFF" d="M-295.7613,303.6075c0,0,0.2,0.2,0.5,0.6c0.2,0.2,0.4,0.4,0.6,0.7
				c0.1,0.1,0.2,0.3,0.4,0.4c0.1,0.1,0.3,0.3,0.5,0.4c0.3,0.3,0.7,0.6,1,1c0.4,0.4,0.8,0.6,1.2,1c0.8,0.7,1.9,1.2,2.9,1.7
				c2.1,0.9,4.3,1.4,6,1.4c0.4,0.1,0.8,0,1.2,0c0.3,0,0.6,0,0.9,0c0.5,0,0.8-0.1,0.8-0.1s0.3,0,0.8-0.1c0.5-0.1,1.2-0.1,2-0.4
				c0.4-0.1,0.8-0.2,1.3-0.4c0.4-0.2,0.9-0.4,1.4-0.6c0.2-0.1,0.5-0.2,0.7-0.3c0.2-0.1,0.5-0.3,0.7-0.4c0.5-0.3,1-0.5,1.4-0.9
				c0.4-0.3,0.9-0.7,1.3-1l0.3-0.3l0.3-0.3c0.2-0.2,0.4-0.4,0.6-0.6c0.8-0.7,1.3-1.6,1.8-2.3c0.3-0.3,0.5-0.7,0.6-1
				c0.2-0.3,0.3-0.6,0.4-0.8c0.2-0.4,0.4-0.7,0.4-0.7s-0.1,0.3-0.3,0.7c-0.1,0.2-0.2,0.5-0.4,0.8c-0.1,0.3-0.3,0.7-0.6,1
				c-0.5,0.7-1,1.6-1.7,2.4c-0.2,0.2-0.4,0.4-0.5,0.6l-0.3,0.3l-0.3,0.3c-0.4,0.4-0.8,0.8-1.3,1.2c-0.4,0.4-0.9,0.7-1.4,1
				c-0.2,0.2-0.5,0.3-0.7,0.5c-0.2,0.1-0.5,0.3-0.7,0.4c-0.5,0.3-1,0.5-1.4,0.7c-0.5,0.2-0.9,0.3-1.3,0.5c-0.8,0.3-1.6,0.4-2.1,0.6
				c-0.5,0.1-0.8,0.2-0.8,0.2s-0.3,0.1-0.9,0c-0.3,0-0.6,0-1,0s-0.8,0-1.2-0.1c-1.8-0.2-4.1-0.9-6.2-2c-1-0.6-2.1-1.2-2.9-2
				c-0.4-0.4-0.9-0.7-1.2-1.1c-0.3-0.4-0.7-0.7-1-1.1c-0.1-0.2-0.3-0.3-0.4-0.5s-0.2-0.3-0.3-0.5c-0.2-0.3-0.4-0.6-0.5-0.8
				C-295.5613,303.8076-295.7613,303.6075-295.7613,303.6075z"/>
		</g>
		<g id="XMLID_2683_">
			<path id="XMLID_2684_" fill="#FFFFFF" d="M-297.0613,316.1075c0,0,0.3,0.2,0.7,0.6c0.2,0.2,0.5,0.4,0.9,0.7
				c0.3,0.3,0.7,0.5,1.2,0.8c1.8,1.2,4.3,2.4,6.9,3.5c2.6,1.1,5.2,2.1,7.2,2.9c1,0.4,1.8,0.8,2.4,1c0.6,0.3,0.9,0.4,0.9,0.4
				s0.3,0.2,0.9,0.5c0.5,0.3,1.3,0.8,2.2,1.4c0.9,0.6,1.9,1.3,2.9,2.2s2,1.9,2.7,3.1c1.7,2.3,2.5,5.1,2.9,7.2
				c0.1,1.1,0.3,1.9,0.3,2.5c0,0.6,0.1,1,0.1,1s0-0.3-0.1-1c0-0.6-0.2-1.5-0.4-2.5c-0.5-2-1.5-4.7-3.2-6.8c-0.8-1.1-1.8-2-2.8-2.8
				s-2-1.4-2.9-2c-0.9-0.5-1.6-0.9-2.2-1.2c-0.5-0.3-0.9-0.4-0.9-0.4s-0.3-0.2-0.9-0.5s-1.3-0.7-2.3-1.1c-1.9-0.9-4.5-2.1-7.1-3.3
				c-2.5-1.2-5-2.7-6.7-4c-0.4-0.3-0.8-0.6-1.1-0.9c-0.3-0.3-0.6-0.5-0.8-0.7
				C-296.7613,316.3076-297.0613,316.1075-297.0613,316.1075z"/>
		</g>
		<g id="XMLID_2681_">
			<path id="XMLID_2682_" fill="#FFFFFF" d="M-292.7613,322.7076c0,0,0.7,1.3,1.7,3.2c1.1,1.9,2.6,4.4,4.4,6.7
				c1.8,2.3,3.7,4.5,5.2,6c0.8,0.8,1.4,1.4,1.9,1.9c0.5,0.4,0.8,0.7,0.8,0.7s0.3,0.3,0.7,0.7c0.4,0.5,1.1,1.1,1.8,1.8
				c0.8,0.7,1.7,1.5,2.7,2.4c1,0.8,2.1,1.8,3.1,2.8s1.9,2.2,2.5,3.4c0.6,1.2,1,2.4,1.3,3.5c0.2,1.1,0.4,1.9,0.4,2.6
				c0.1,0.6,0.1,1,0.1,1s-0.1-0.4-0.1-1c-0.1-0.6-0.3-1.5-0.5-2.5c-0.3-1-0.8-2.2-1.4-3.3c-0.7-1.1-1.6-2.2-2.6-3.1
				c-2.1-1.9-4.4-3.4-6.1-4.8c-0.8-0.7-1.5-1.3-2-1.7c-0.5-0.4-0.7-0.7-0.8-0.7c0,0-0.3-0.3-0.7-0.8c-0.5-0.5-1.1-1.2-1.8-2
				c-1.5-1.6-3.3-4-5-6.4c-1.7-2.4-3-5-4-7S-292.7613,322.7076-292.7613,322.7076z"/>
		</g>
		<g id="XMLID_2679_">
			<path id="XMLID_2680_" fill="#FFFFFF" d="M-288.6613,349.9075c0,0,0.1,0.2,0.3,0.5c0.2,0.3,0.5,0.9,0.9,1.4c0.7,1.2,1.8,2.6,3,4
				c1.2,1.4,2.5,2.6,3.6,3.5c0.5,0.4,1,0.8,1.3,1s0.5,0.4,0.5,0.4s0.2,0.2,0.5,0.4s0.7,0.6,1.3,1c1,0.8,2.5,1.7,4,2.6
				c1.5,0.8,3.1,1.5,4.4,1.9c0.6,0.2,1.1,0.4,1.5,0.5c0.4,0.1,0.6,0.2,0.6,0.2s-0.2,0-0.6-0.1c-0.4-0.1-0.9-0.2-1.5-0.3
				c-1.3-0.3-3-0.8-4.6-1.5s-3.2-1.5-4.4-2.3c-0.6-0.3-1.1-0.7-1.4-0.9c-0.3-0.2-0.5-0.4-0.5-0.4s-0.2-0.2-0.5-0.5s-0.8-0.7-1.2-1.2
				c-1-1-2.2-2.4-3.4-3.9c-1.1-1.5-2.1-3.1-2.7-4.3c-0.3-0.6-0.5-1.1-0.7-1.5
				C-288.5613,350.1075-288.6613,349.9075-288.6613,349.9075z"/>
		</g>
		<g id="XMLID_2677_">
			<path id="XMLID_2678_" fill="#FFFFFF" d="M-290.1613,363.1075c0,0,7.7,8.3,7.7,8.4c0.1,0.1,6.5,9,6.5,9s-7.5-8-7.5-8.1
				C-283.4613,372.3076-290.1613,363.1075-290.1613,363.1075z"/>
		</g>
		<g id="XMLID_2675_">
			<path id="XMLID_2676_" fill="#FFFFFF" d="M-10.3613,294.4075c0,0-0.1,0.2-0.4,0.6c-0.1,0.2-0.3,0.4-0.4,0.7
				c-0.1,0.1-0.2,0.3-0.3,0.4c-0.1,0.1-0.2,0.3-0.3,0.4c-0.9,1.3-2.4,2.7-4.2,4c-1.8,1.2-3.7,2-5.3,2.4c-0.8,0.2-1.4,0.3-1.9,0.4
				c-0.5,0.1-0.7,0.1-0.8,0.1c0,0-0.3,0-0.8,0s-1.1,0-1.9-0.2c-0.4-0.1-0.8-0.1-1.2-0.2c-0.4-0.1-0.9-0.3-1.3-0.4
				c-0.2-0.1-0.5-0.1-0.7-0.2c-0.2-0.1-0.5-0.2-0.7-0.3c-0.5-0.2-0.9-0.4-1.4-0.6c-0.9-0.5-1.8-1-2.5-1.6c-0.8-0.5-1.4-1.2-2-1.7
				c-0.3-0.2-0.5-0.5-0.7-0.8c-0.2-0.2-0.4-0.4-0.5-0.6c-0.3-0.3-0.4-0.5-0.4-0.5s0.2,0.2,0.5,0.5c0.2,0.2,0.3,0.3,0.6,0.6
				c0.2,0.2,0.4,0.5,0.8,0.7c0.6,0.5,1.2,1,2,1.5s1.7,0.9,2.6,1.3c0.4,0.2,0.9,0.3,1.4,0.5c0.2,0.1,0.5,0.1,0.7,0.2
				c0.2,0,0.5,0.1,0.7,0.1c0.4,0.1,0.9,0.2,1.3,0.3c0.4,0,0.8,0.1,1.2,0.1c0.7,0.1,1.3,0,1.8,0c0.4,0,0.7,0,0.7,0s0.3,0,0.7,0
				c0.4-0.1,1.1-0.1,1.8-0.2c1.5-0.3,3.4-0.9,5.2-1.9c1.7-1,3.3-2.3,4.3-3.5c0.1-0.1,0.3-0.3,0.4-0.4c0.1-0.1,0.2-0.3,0.3-0.4
				c0.2-0.3,0.4-0.5,0.5-0.7C-10.5613,294.6075-10.3613,294.4075-10.3613,294.4075z"/>
		</g>
		<g id="XMLID_2673_">
			<path id="XMLID_2674_" fill="#FFFFFF" d="M-9.4613,296.3076c0,0-0.6,1.1-1.5,2.8c-0.9,1.7-2.1,4-3.3,6.3s-2.5,4.5-3.6,6.2
				c-0.5,0.8-1,1.5-1.3,2s-0.5,0.7-0.6,0.8c0,0-0.2,0.3-0.6,0.7s-0.9,1-1.6,1.7c-1.4,1.3-3.4,2.9-5.6,3.9c-2.2,1.1-4.7,1.5-6.5,1.6
				c-0.9,0-1.7,0-2.2,0s-0.8-0.1-0.8-0.1s0.3,0,0.8,0s1.3,0,2.2-0.1c1.8-0.2,4.1-0.8,6.2-2s3.9-2.8,5.1-4.1c0.6-0.7,1.1-1.3,1.5-1.7
				c0.3-0.4,0.5-0.7,0.5-0.7s0.2-0.3,0.6-0.7s0.9-1.1,1.4-1.8c1.1-1.5,2.6-3.7,3.9-5.8c1.3-2.2,2.7-4.4,3.6-6
				C-10.1613,297.3076-9.4613,296.3076-9.4613,296.3076z"/>
		</g>
		<g id="XMLID_2671_">
			<path id="XMLID_2672_" fill="#FFFFFF" d="M-11.0613,307.6075c0,0-0.5,1.2-1.1,3.1c-0.6,1.9-1.4,4.5-2.2,7c-0.8,2.6-1.7,5.1-2.5,7
				c-0.4,0.9-0.7,1.7-1,2.3c-0.3,0.5-0.4,0.9-0.4,0.9s-0.2,0.3-0.5,0.8s-0.8,1.2-1.4,2c-1.2,1.6-2.9,3.6-5.1,5
				c-2.1,1.5-4.6,2.3-6.4,2.6c-0.9,0.2-1.7,0.2-2.3,0.3c-0.5,0-0.9,0.1-0.9,0.1s0.3,0,0.9-0.1c0.5-0.1,1.3-0.2,2.2-0.4
				c1.8-0.5,4.2-1.4,6.1-2.9c2-1.5,3.6-3.5,4.6-5.1c0.5-0.8,0.9-1.5,1.2-2c0.3-0.5,0.4-0.8,0.4-0.8s0.2-0.3,0.5-0.8s0.7-1.2,1.1-2.1
				c0.9-1.8,1.9-4.2,2.9-6.7c0.9-2.5,1.9-5,2.6-6.8C-11.5613,308.9075-11.0613,307.6075-11.0613,307.6075z"/>
		</g>
		<g id="XMLID_2669_">
			<path id="XMLID_2670_" fill="#FFFFFF" d="M-9.0613,321.9075c0,0-0.2,0.2-0.6,0.6c-0.2,0.2-0.4,0.5-0.6,0.8s-0.5,0.6-0.8,1
				c-0.6,0.8-1.2,1.7-1.8,2.7s-1.2,2.2-1.7,3.4c-1,2.3-1.9,4.8-2.6,6.6c-0.3,0.9-0.6,1.7-0.8,2.2c-0.2,0.5-0.3,0.9-0.3,0.9
				s-0.2,0.3-0.4,0.8c-0.2,0.5-0.6,1.2-1,2.1c-0.9,1.7-2.2,3.9-3.9,5.7c-0.9,0.9-1.8,1.7-2.8,2.4c-1,0.7-1.9,1.2-2.8,1.5
				c-0.8,0.4-1.6,0.6-2.1,0.7c-0.5,0.1-0.8,0.2-0.8,0.2s0.3-0.1,0.8-0.3s1.2-0.5,2-0.9c0.8-0.4,1.7-1,2.6-1.7s1.7-1.6,2.5-2.5
				c1.5-1.9,2.7-4.1,3.4-5.8c0.4-0.8,0.7-1.6,0.9-2.1c0.2-0.5,0.3-0.8,0.3-0.8s0.6-1.2,1.4-3s1.8-4.2,3-6.4c0.6-1.1,1.3-2.3,1.9-3.3
				c0.7-1,1.3-1.9,1.9-2.6c0.3-0.4,0.6-0.7,0.9-1c0.3-0.3,0.5-0.5,0.7-0.7C-9.2613,322.2076-9.0613,321.9075-9.0613,321.9075z"/>
		</g>
		<g id="XMLID_2667_">
			<path id="XMLID_2668_" fill="#FFFFFF" d="M-25.3613,379.4075c0,0,0.1-1.2,0.2-3c0-0.5,0-1,0.1-1.5c0-0.5,0.1-1.1,0.2-1.6
				c0.2-1.1,0.3-2.3,0.5-3.6c0.6-2.4,1.1-4.8,1.8-6.5c0.3-0.9,0.5-1.6,0.7-2.1s0.3-0.8,0.3-0.8s0.6-1.1,1.4-2.7
				c0.2-0.4,0.4-0.8,0.7-1.3c0.3-0.4,0.6-0.9,0.9-1.4c0.6-0.9,1.2-1.9,1.9-2.9c1.5-1.8,2.8-3.7,4.1-4.9c1.2-1.3,2-2.1,2-2.1
				s-0.7,0.9-1.9,2.2c-1.2,1.3-2.4,3.3-3.7,5.2c-0.6,1-1.1,2-1.7,3c-0.3,0.5-0.5,0.9-0.8,1.4c-0.2,0.5-0.4,0.9-0.6,1.3
				c-0.7,1.6-1.2,2.7-1.2,2.7s-0.2,0.3-0.4,0.8c-0.2,0.5-0.5,1.2-0.8,2c-0.8,1.6-1.4,4-2.1,6.3c-0.3,1.2-0.5,2.4-0.8,3.5
				c-0.1,0.6-0.3,1.1-0.3,1.6c-0.1,0.5-0.1,1-0.2,1.5C-25.1613,378.2076-25.3613,379.4075-25.3613,379.4075z"/>
		</g>
		<g id="XMLID_2665_">
			<path id="XMLID_2666_" fill="#FFFFFF" d="M-21.1613,278.7076c0,0-0.1-0.6-0.2-1.6c-0.2-1-0.5-2.4-1.4-3.9
				c-0.8-1.5-2.1-3.1-3.7-4.5c-1.6-1.3-3.7-2.4-5.8-2.9c-2.2-0.5-4.4-0.4-6.4,0.3c-2,0.7-3.6,1.8-5.1,2.7c-1.4,0.9-2.7,1.7-3.6,2.2
				s-1.5,0.7-1.6,0.7c0,0-0.6,0.3-1.6,0.6c-0.5,0.1-1.1,0.3-1.8,0.5c-0.7,0.1-1.5,0.3-2.3,0.4c-3.4,0.3-8-0.1-12.1-2
				c-2.1-0.8-4-2.1-5.6-3.4c-0.8-0.7-1.6-1.3-2.2-2c-0.3-0.4-0.7-0.7-1-1c-0.3-0.4-0.6-0.7-0.8-1c-0.5-0.6-0.9-1.3-1.3-1.9
				c-0.2-0.3-0.4-0.6-0.5-0.8c-0.1-0.3-0.2-0.5-0.4-0.7c-0.4-0.9-0.7-1.4-0.7-1.4s0.3,0.5,0.7,1.4c0.1,0.2,0.2,0.5,0.4,0.7
				s0.3,0.5,0.5,0.8c0.4,0.6,0.8,1.2,1.4,1.8c0.3,0.3,0.6,0.7,0.8,1c0.3,0.3,0.7,0.6,1,1c0.7,0.7,1.5,1.3,2.3,1.9
				c1.7,1.2,3.6,2.3,5.6,3.1c4.1,1.7,8.5,1.9,11.7,1.4c0.8-0.1,1.5-0.3,2.2-0.4c0.6-0.2,1.2-0.4,1.6-0.5c0.9-0.3,1.4-0.6,1.5-0.6
				c0,0,0.6-0.2,1.5-0.6c0.9-0.4,2.1-1.2,3.6-2c1.5-0.9,3.3-1.9,5.4-2.6c2.1-0.7,4.5-0.7,6.8-0.1c2.2,0.6,4.3,1.8,6,3.2
				s2.9,3.1,3.7,4.7c0.8,1.6,1.1,3,1.3,4C-21.2613,278.1075-21.1613,278.7076-21.1613,278.7076z"/>
		</g>
		<g id="XMLID_2663_">
			<path id="XMLID_2664_" fill="#FFFFFF" d="M-4.5613,280.5076c0,0-0.2,0-0.5,0s-0.8,0.1-1.3,0c-1.1-0.1-2.8-0.4-4.5-1.5
				c-1.7-1-3.4-2.7-5-4.7s-2.9-4.4-4.2-6.7c-1.3-2.4-2.6-4.7-4.2-6.6c-0.8-1-1.6-1.8-2.4-2.6c-0.9-0.7-1.7-1.3-2.6-1.7
				c-1.7-0.9-3.3-1-4.4-1s-1.8,0.1-1.8,0.1s-0.7,0.1-1.8,0.3c-1.1,0.2-2.6,0.7-4.4,1.3c-1.8,0.6-4,1.4-6.4,1.8
				c-2.4,0.5-5.1,0.2-7.5-0.8s-4.6-2.6-6.1-4.5c-1.6-1.9-2.7-3.9-3.3-5.8c-0.6-1.9-0.7-3.6-0.7-4.7c0.1-1.1,0.1-1.8,0.1-1.8
				s0,0.7-0.1,1.8c0.1,1.1,0.2,2.8,0.9,4.6s1.8,3.8,3.4,5.6c1.6,1.8,3.7,3.3,6.1,4.1c2.3,0.9,4.9,1,7.1,0.5c2.3-0.5,4.4-1.3,6.2-2
				c1.8-0.7,3.4-1.2,4.5-1.5s1.8-0.4,1.9-0.4c0,0,0.8-0.1,2-0.1s3,0.3,4.9,1.3c0.9,0.5,1.8,1.2,2.7,2c0.9,0.8,1.7,1.8,2.5,2.8
				c1.5,2.1,2.8,4.5,4,6.9c1.2,2.4,2.4,4.8,3.9,6.8s3.1,3.7,4.8,4.7c1.6,1.1,3.3,1.5,4.4,1.6c0.6,0.1,1,0,1.3,0
				C-4.7613,280.5076-4.5613,280.5076-4.5613,280.5076z"/>
		</g>
		<g id="XMLID_2661_">
			<path id="XMLID_2662_" fill="#FFFFFF" d="M-31.6613,243.9076c0,0-0.2,0.1-0.5,0.3c-0.2,0.1-0.4,0.2-0.6,0.4
				c-0.2,0.1-0.5,0.3-0.8,0.4c-1.2,0.6-2.9,1.1-4.6,1.3c-1.8,0.2-3.5,0-4.9-0.2c-0.7-0.1-1.2-0.3-1.6-0.4c-0.4-0.1-0.6-0.2-0.6-0.2
				s-0.2-0.1-0.6-0.3c-0.4-0.2-0.9-0.4-1.4-0.8c-1.2-0.6-2.5-1.8-3.7-3c-1.2-1.3-2.1-2.8-2.6-4c-0.3-0.6-0.4-1.1-0.6-1.5
				c-0.1-0.4-0.2-0.6-0.2-0.6s0.1,0.2,0.2,0.5c0.2,0.3,0.3,0.9,0.7,1.4c0.6,1.1,1.7,2.5,2.9,3.6c1.3,1.1,2.6,2,3.8,2.5
				c0.5,0.3,1,0.5,1.4,0.6c0.3,0.1,0.5,0.2,0.6,0.2c0,0,0.2,0.1,0.6,0.2c0.4,0.1,0.8,0.3,1.5,0.5c1.2,0.4,2.9,0.7,4.6,0.7
				c1.7-0.1,3.4-0.4,4.6-0.9c0.3-0.1,0.6-0.2,0.8-0.3s0.4-0.2,0.6-0.3C-31.8613,244.0076-31.6613,243.9076-31.6613,243.9076z"/>
		</g>
		<g id="XMLID_2659_">
			<path id="XMLID_2660_" fill="#FFFFFF" d="M-13.4613,285.6075c0,0,0,0.3-0.1,0.9c-0.1,0.5-0.3,1.4-0.9,2.2
				c-0.5,0.8-1.4,1.6-2.4,2.2c-1,0.6-2.3,1-3.6,1.2c-1.3,0.2-2.6,0.1-3.8-0.3c-0.6-0.2-1.2-0.3-1.7-0.6c-0.5-0.2-1-0.4-1.4-0.7
				c-0.4-0.2-0.8-0.5-1.2-0.7c-0.3-0.2-0.6-0.4-0.9-0.6c-0.5-0.3-0.8-0.5-0.8-0.5s-0.3-0.2-0.7-0.6c-0.4-0.4-1-0.9-1.7-1.6
				c-1.4-1.3-3.1-3.1-5.1-4.5c-2-1.5-4.2-2.5-6-2.8c-0.9-0.2-1.6-0.2-2.2-0.1c-0.5,0.1-0.8,0.1-0.8,0.1s0.3-0.1,0.8-0.1
				s1.3-0.1,2.2,0c1.8,0.2,4.2,1.1,6.3,2.4s4,3,5.4,4.2c0.7,0.6,1.3,1.1,1.8,1.4c0.4,0.3,0.7,0.5,0.7,0.5s0.3,0.2,0.7,0.6
				c0.2,0.2,0.5,0.4,0.8,0.6s0.7,0.4,1.1,0.7c1.6,1,3.8,2.1,6.3,1.9c1.2-0.1,2.4-0.4,3.4-0.9s1.9-1.2,2.5-2c0.6-0.7,0.8-1.5,1-2.1
				C-13.4613,285.9075-13.4613,285.6075-13.4613,285.6075z"/>
		</g>
		<g id="XMLID_2657_">
			<path id="XMLID_2658_" fill="#FFFFFF" d="M-116.5613,183.8076c0,0-1.3-0.6-3.5-1.7s-5.4-2.6-9.3-4.4c-3.9-1.7-8.4-3.7-13.4-5.6
				c-5-1.8-10.4-3.6-15.9-4.8s-11.1-2-16.4-2.1c-5.3-0.1-10.2,0.6-14.4,1.5c-1,0.3-2,0.6-2.9,0.8c-0.9,0.3-1.8,0.5-2.6,0.8
				s-1.6,0.5-2.3,0.9c-0.7,0.3-1.3,0.6-1.9,0.8c-2.3,1.1-3.6,1.8-3.7,1.8c0,0-0.4,0.2-1,0.5c-0.3,0.2-0.7,0.4-1.1,0.6
				c-0.4,0.2-0.9,0.6-1.4,0.9c-2.1,1.3-5,3.3-8,6.2c-0.8,0.7-1.5,1.5-2.3,2.3s-1.5,1.7-2.4,2.6c-1.5,1.9-3.1,3.9-4.5,6.1
				c-1.5,2.2-2.7,4.6-3.9,7.1c-0.3,0.6-0.5,1.3-0.8,1.9l-0.4,1l-0.4,1l-0.7,2l-0.6,2c-1.6,5.4-2.2,11.1-2.2,16.5
				c0.1,5.3,0.8,10.3,1.9,14.4c1.1,4.1,2.4,7.4,3.4,9.7c0.5,1.1,1,2,1.3,2.6s0.5,0.9,0.5,0.9s-0.2-0.3-0.5-0.9
				c-0.3-0.6-0.8-1.4-1.3-2.6c-1.1-2.2-2.4-5.5-3.5-9.6s-2-9.1-2.1-14.4c-0.1-5.4,0.4-11.1,2-16.6l0.6-2.1l0.7-2l0.3-1l0.4-1
				c0.3-0.7,0.5-1.3,0.8-2c1.2-2.6,2.4-5,3.9-7.3c1.4-2.3,3-4.3,4.5-6.3c0.8-0.9,1.6-1.8,2.4-2.7c0.8-0.8,1.6-1.6,2.3-2.4
				c3.1-3,6-5.1,8.1-6.4c0.5-0.3,1-0.7,1.4-0.9s0.8-0.5,1.1-0.6c0.6-0.3,0.9-0.5,1-0.6s1.4-0.8,3.8-1.8c0.6-0.2,1.3-0.5,2-0.8
				s1.5-0.5,2.3-0.8s1.7-0.5,2.7-0.8c1-0.2,2-0.5,3-0.8c4.2-0.8,9.3-1.5,14.6-1.3c5.4,0.2,11,1,16.5,2.4c5.5,1.3,10.9,3.2,15.9,5.1
				c5,1.9,9.5,4,13.4,5.8c3.9,1.8,7,3.4,9.3,4.5C-117.8613,183.2076-116.5613,183.8076-116.5613,183.8076z"/>
		</g>
		<g id="XMLID_2655_">
			<path id="XMLID_2656_" fill="#FFFFFF" d="M-292.8613,282.2076c0,0,6.2-6.9,12.4-13.9c3.1-3.5,6.2-7,8.8-9.4
				c0.6-0.6,1.2-1.2,1.8-1.7s1-0.9,1.4-1.2c0.8-0.7,1.3-1.1,1.3-1.1s0.5-0.4,1.4-0.9c0.8-0.6,2.1-1.3,3.6-2.1
				c0.8-0.4,1.6-0.7,2.5-1.1c0.9-0.4,1.9-0.7,2.9-1c2.1-0.5,4.3-0.8,6.6-0.8c2.2,0.1,4.5,0.4,6.5,1.1c2,0.7,3.7,1.7,5,2.7
				c0.7,0.5,1.2,1.1,1.7,1.5c0.4,0.5,0.8,1,1.1,1.4c0.5,0.8,0.9,1.3,0.9,1.3s-0.3-0.5-0.9-1.3c-0.3-0.4-0.7-0.8-1.2-1.3
				c-0.5-0.4-1.1-1-1.8-1.5c-1.3-1-3.1-1.9-5.1-2.5s-4.2-0.9-6.3-0.9c-2.2,0-4.4,0.4-6.3,1c-1,0.3-1.9,0.6-2.8,1.1
				c-0.8,0.4-1.7,0.7-2.4,1.2c-1.4,0.9-2.6,1.6-3.4,2.2c-0.8,0.6-1.3,0.9-1.3,0.9s-0.5,0.4-1.3,1c-0.4,0.3-0.9,0.7-1.5,1.1
				c-0.5,0.5-1.1,1-1.8,1.6c-2.6,2.3-5.9,5.6-9.1,9C-286.3613,275.5076-292.8613,282.2076-292.8613,282.2076z"/>
		</g>
		<g id="XMLID_2653_">
			<path id="XMLID_2654_" fill="#FFFFFF" d="M-267.4613,294.1075c0,0-0.1,0.2-0.3,0.5c-0.1,0.2-0.2,0.4-0.4,0.6
				c-0.1,0.2-0.3,0.5-0.6,0.8c-0.8,1.1-2.2,2.4-3.7,3.5c-1.6,1-3.3,1.8-4.6,2.2c-0.7,0.2-1.3,0.3-1.7,0.5c-0.4,0.1-0.7,0.1-0.7,0.1
				s-0.3,0-0.7,0c-0.4,0-1,0.1-1.7,0c-1.4,0-3.2-0.3-4.9-0.8c-1.7-0.5-3.3-1.4-4.4-2.1c-0.6-0.3-1-0.8-1.3-1s-0.5-0.4-0.5-0.4
				s0.2,0.1,0.5,0.3c0.3,0.2,0.7,0.6,1.3,0.9c1.1,0.7,2.8,1.3,4.5,1.7c1.7,0.3,3.4,0.4,4.7,0.3c0.6,0,1.2-0.1,1.6-0.2
				c0.4-0.1,0.6-0.1,0.6-0.1s0.2,0,0.6-0.1c0.4-0.1,0.9-0.1,1.6-0.3c1.3-0.3,3-0.9,4.6-1.7c1.5-0.9,3-2,3.9-3
				c0.3-0.2,0.5-0.5,0.6-0.7c0.2-0.2,0.3-0.4,0.4-0.6C-267.5613,294.2076-267.4613,294.1075-267.4613,294.1075z"/>
		</g>
		<g id="XMLID_2651_">
			<path id="XMLID_2652_" fill="#FFFFFF" d="M-70.6613,209.1076c0,0-0.7,0-1.8,0c-1.2,0.1-2.8,0.2-4.7,0.7s-4.1,1.3-6.3,2.5
				s-4.4,2.7-6.4,4.5c-4.1,3.5-7.4,7.8-9.9,11.1c-1.2,1.6-2.2,3-2.9,4s-1.1,1.6-1.2,1.6c0,0-0.5,0.6-1.2,1.5s-1.8,2.3-3,3.8
				c-2.5,3.1-6.1,7.1-10.4,10.2c-2.1,1.6-4.4,2.9-6.6,3.9s-4.4,1.6-6.3,1.9c-1.9,0.3-3.5,0.3-4.7,0.3c-1.1-0.1-1.8-0.2-1.8-0.2
				s0.6,0,1.8,0.1c1.1,0,2.7,0,4.6-0.4c1.9-0.4,4-1.1,6.2-2.1s4.4-2.4,6.4-4c4.1-3.2,7.5-7.3,9.9-10.4c1.2-1.6,2.2-2.9,2.9-3.9
				s1.1-1.5,1.1-1.6c0,0,0.5-0.6,1.2-1.6s1.8-2.3,3.1-4c2.6-3.2,6.1-7.5,10.3-10.9c2.1-1.7,4.4-3.2,6.6-4.3s4.5-1.9,6.4-2.3
				c1.9-0.5,3.6-0.5,4.8-0.5C-71.3613,209.1076-70.6613,209.1076-70.6613,209.1076z"/>
		</g>
		<g id="XMLID_2649_">
			<path id="XMLID_2650_" fill="#FFFFFF" d="M-106.6613,216.9076c0,0-0.8-0.1-2.1-0.2s-3.2-0.3-5.5-0.5s-5-0.3-7.8-0.3
				c-2.9,0-5.9,0.2-9,0.6c-6,0.9-11.9,3.1-15.7,5.8c-0.5,0.3-0.9,0.7-1.4,1c-0.2,0.2-0.4,0.3-0.6,0.4c-0.2,0.2-0.4,0.3-0.5,0.5
				c-0.7,0.6-1.3,1.2-1.8,1.6c-0.9,1-1.5,1.6-1.5,1.7c0,0-0.2,0.2-0.4,0.4c-0.2,0.3-0.5,0.7-0.9,1.3c-0.4,0.5-0.9,1.2-1.3,2
				c-0.4,0.8-1,1.7-1.5,2.7c-0.2,0.5-0.5,1.1-0.7,1.6c-0.2,0.6-0.4,1.2-0.6,1.8c-0.5,1.2-0.6,2.6-0.9,4c-0.4,2.8-0.4,5.9,0.1,8.9
				c0.6,3,1.7,5.9,3.1,8.4c1.5,2.4,3.1,4.6,4.8,6.1c0.4,0.4,0.8,0.8,1.2,1.1c0.4,0.3,0.8,0.6,1.2,0.9s0.7,0.5,1,0.8
				c0.3,0.2,0.6,0.4,0.9,0.6c1.1,0.7,1.8,1,1.8,1s-0.7-0.4-1.8-1c-0.3-0.2-0.6-0.3-0.9-0.5c-0.3-0.2-0.7-0.5-1-0.8
				c-0.4-0.3-0.8-0.6-1.2-0.9s-0.8-0.7-1.2-1.1c-1.7-1.5-3.4-3.6-5-6c-1.5-2.5-2.7-5.4-3.4-8.5c-0.6-3.1-0.7-6.3-0.4-9.2
				c0.3-1.5,0.4-2.9,0.9-4.2c0.2-0.7,0.4-1.3,0.6-1.9c0.2-0.6,0.5-1.2,0.7-1.7c0.4-1.1,1-2,1.4-2.9s1-1.5,1.4-2.1s0.7-1,1-1.3
				s0.4-0.5,0.4-0.5s0.6-0.7,1.6-1.7c0.5-0.5,1.2-1,2-1.7c0.2-0.2,0.4-0.3,0.6-0.5c0.2-0.1,0.4-0.3,0.7-0.4c0.5-0.3,0.9-0.6,1.4-1
				c4-2.7,10-4.8,16.2-5.5c3.1-0.4,6.2-0.4,9.1-0.4c2.9,0.1,5.6,0.3,7.9,0.5s4.2,0.5,5.5,0.6
				C-107.4613,216.8076-106.6613,216.9076-106.6613,216.9076z"/>
		</g>
		<g id="XMLID_2647_">
			<path id="XMLID_2648_" fill="#FFFFFF" d="M-176.2613,252.6076c0,0-0.7-0.8-1.8-2.2s-2.6-3.5-4-6.3c-0.4-0.7-0.6-1.5-1-2.2
				c-0.3-0.8-0.7-1.6-0.9-2.4c-0.3-0.9-0.5-1.7-0.8-2.6c-0.2-0.9-0.4-1.9-0.6-2.8c-0.7-3.9-0.7-8.2-0.1-12.3c0.6-4.2,2.1-8.2,4-11.7
				s4.1-6.4,6.4-8.6c2.2-2.3,4.4-3.8,6-4.7c0.8-0.5,1.4-0.9,1.9-1.1c0.5-0.2,0.7-0.4,0.7-0.4c0.1,0,1-0.5,2.7-1.2s4.1-1.5,7-2.2
				s6.4-1.1,10.1-1.2c1.9,0,3.8,0,5.7,0.2c1,0.1,1.9,0.2,2.9,0.3s1.9,0.3,2.9,0.4c7.8,1.3,15.3,3.8,20.8,5.7c2.8,1,5.1,1.9,6.7,2.5
				s2.5,1,2.5,1s-0.9-0.3-2.5-0.9c-1.6-0.6-3.9-1.4-6.7-2.3c-5.6-1.9-13.1-4.2-20.8-5.3c-1-0.1-1.9-0.2-2.9-0.3s-1.9-0.2-2.9-0.2
				c-1.9-0.1-3.8-0.1-5.6,0c-3.7,0.2-7,0.7-9.9,1.4c-2.8,0.7-5.2,1.6-6.8,2.3s-2.5,1.2-2.6,1.2c-0.1,0.1-1,0.5-2.6,1.4
				c-1.5,0.9-3.7,2.3-5.9,4.5c-2.3,2-4.5,4.9-6.4,8.2s-3.4,7.2-4.2,11.3s-0.8,8.3-0.2,12.1c0.2,1,0.4,1.9,0.5,2.8
				c0.3,0.9,0.5,1.8,0.8,2.6c0.2,0.9,0.6,1.7,0.9,2.4c0.3,0.8,0.6,1.6,0.9,2.2c1.3,2.8,2.8,5,3.9,6.4
				C-176.8613,251.8076-176.2613,252.6076-176.2613,252.6076z"/>
		</g>
		<g id="XMLID_2645_">
			<path id="XMLID_2646_" fill="#FFFFFF" d="M-95.5613,217.6076c0,0-0.2,0.3-0.6,0.8s-1,1.3-1.7,2.1c-1.4,1.7-3.5,3.9-5.7,5.9
				s-4.6,3.9-6.5,5.2c-0.9,0.7-1.7,1.2-2.3,1.5c-0.6,0.4-0.9,0.6-0.9,0.6s-0.4,0.2-0.9,0.5c-0.6,0.3-1.4,0.7-2.4,1.2
				c-2,1-4.7,2-7.4,2.9s-5.5,1.5-7.6,1.9c-1,0.2-1.9,0.3-2.5,0.4s-1,0.1-1,0.1s0.3-0.1,1-0.2c0.6-0.1,1.5-0.3,2.5-0.6
				c2.1-0.5,4.8-1.3,7.5-2.3c2.6-1.1,5.3-2.2,7.1-3.3c1-0.5,1.7-1,2.3-1.3s0.9-0.5,0.9-0.5s0.4-0.2,0.9-0.5c0.6-0.3,1.4-0.8,2.3-1.4
				c1.9-1.2,4.3-2.9,6.6-4.7c2.3-1.9,4.5-3.9,6-5.6c0.8-0.8,1.4-1.5,1.8-2C-95.7613,217.9076-95.5613,217.6076-95.5613,217.6076z"/>
		</g>
		<g id="XMLID_2643_">
			<path id="XMLID_2644_" fill="#FFFFFF" d="M-190.5613,253.0076c0,0-0.4-0.6-1.2-1.8c-0.8-1.1-1.9-2.8-3.1-4.8
				c-2.5-4-5.8-9.4-7.9-15.4c-1.1-3-1.9-6.1-2.2-9.1s-0.2-5.9,0.1-8.3c0.3-2.4,0.9-4.4,1.4-5.8c0.5-1.4,0.9-2.1,0.9-2.2
				c0-0.1,0.4-0.8,1-2c0.7-1.2,1.7-2.9,3.1-4.8c2.8-3.7,7.3-8,12.5-11.1c5.2-3.2,10.7-5.4,15-6.8c2.1-0.7,3.9-1.3,5.1-1.7
				c1.2-0.4,2-0.6,2-0.6s-0.7,0.2-1.9,0.6c-1.2,0.4-3,1-5.1,1.8c-4.2,1.6-9.7,4-14.7,7.2c-5.1,3.2-9.4,7.5-12,11.2
				c-1.3,1.8-2.3,3.5-2.9,4.7c-0.6,1.2-0.9,1.9-0.9,2s-0.4,0.8-0.9,2.1s-1.1,3.2-1.5,5.5s-0.6,5.1-0.3,8s1,6,2,9
				c2,6,5.1,11.5,7.5,15.6c1.2,2,2.3,3.7,3,4.8C-190.9613,252.3076-190.5613,253.0076-190.5613,253.0076z"/>
		</g>
	</g>
</g>
</svg>
