<?xml version="1.0" encoding="utf-8"?>
<!-- Generator: Adobe Illustrator 19.0.0, SVG Export Plug-In . SVG Version: 6.00 Build 0)  -->
<svg version="1.1" id="Layer_1" xmlns="http://www.w3.org/2000/svg" xmlns:xlink="http://www.w3.org/1999/xlink" x="0px" y="0px"
	 viewBox="0 0 478.5 697.5" style="enable-background:new 0 0 478.5 697.5;" xml:space="preserve">
<style type="text/css">
	.st0{fill:#EF7B05;}
</style>
<path id="XMLID_988_" class="st0" d="M463,599.9l-24.8-354.1c-2-28.4-4-57.8-13.5-86.1c-10.8-32-29.6-57.5-55.9-75.9
	c-30.5-21.3-72.1-31.6-109-27.1l-0.1,0c-0.3,0-0.6,0.1-0.8,0.1c-49.4-4.2-104,12.1-139,41.7c-30.5,25.8-50.2,60.4-58.7,103.1
	c-2.3,11.8,0.1,23.7-0.7,35.7c-0.5,12.3-1,23.3-1,34.8c-0.1,10.7-1.8,21.3-1.6,31.8c0.1,5-0.8,9.9-0.7,14.9
	c0.1,10.4-0.4,20.7-0.5,31.1c-1,83.6-9.3,167.6-24.5,250.3c-0.1,0.5,0.1,0.8,0.5,1.1c-0.2,1.3-0.5,2.5-0.7,3.8
	c-0.1,0.6,0.4,1.2,1.2,1.4c0.8,0.1,1.5-0.3,1.7-0.9c3.9-12.3,7.7-24.3,11.4-36.3c2.1-6.7,4.2-13.4,6.4-20.2
	c-0.1,2.9-0.2,5.7-0.1,8.6c0.1,31.6,10.5,67.7,30.3,97.9c0.1,0.2,0.3,2.9,0.6,2.9h0c0.2,0,0.5-2.3,0.7-2.3c0.1,0,0.2-1.3,0.3-1.3
	c0,0,0.1-0.6,0.1-0.6c0,0,0-0.3,0.1-0.4c0.1,0,0.2-0.2,0.2-0.2c0.1-0.1,0.2-0.3,0.3-0.3c0.1-0.1,0.3-0.2,0.3-0.4
	c0.1-0.1,0.1-0.3,0.1-0.5c0-0.1,0.1-0.2,0.1-0.3c-0.4-1.1-0.7-2.3-1-3.4c0,0,0,0,0,0c0.1,0,0.2,0,0.2,0c0.1-0.1,0.2-0.2,0.3-0.3
	c0.1-0.1,0.3-0.2,0.3-0.3c0.1-0.1,0.1-0.3,0.1-0.4c0-0.1,0.1-0.2,0.1-0.3c-8.3-24.7-12.5-50.3-12.9-76c0.1-14.9,1.5-29.8,4.3-44.6
	c1.3,44.4,13,90,34.2,132.6c0.2,0.5,0.8,0.8,1.4,0.8c0.1,0,0.2,0,0.3,0c0.7-0.1,1.2-0.6,1.2-1.2c0-1.5-0.1-3-0.1-4.5
	c0-0.1,0.1-0.2,0.1-0.3c-0.9-31.9-1.7-65.4-1.6-100.4c0.1-21.4,0.4-43.4,1.2-65.9c6.9,54.4,15.9,108.4,25.5,162.7
	c0.1,0.6,0.7,1,1.5,1c0.1,0,0.1,0,0.2,0c0.8-0.1,1.4-0.7,1.3-1.4c0-0.1,0-0.3-0.1-0.4c0.2-0.2,0.3-0.5,0.3-0.7
	c-0.1-1.2-0.2-2.3-0.3-3.5c0-0.1,0.1-0.1,0.1-0.2c0-0.1,0-0.3-0.1-0.4c0.2-0.2,0.3-0.5,0.3-0.7c-3.7-44.7-6.5-89.8-8.5-134.8
	c6.6,31.8,16,55.6,23.9,75.4c5.8,14.5,10.7,27,13.5,39.6c0.1,0.6,0.8,1,1.5,1c0.1,0,0.2,0,0.2,0c0.8-0.1,1.4-0.7,1.2-1.4
	c-0.2-1.2-0.4-2.5-0.7-3.8c0.4-0.3,0.7-0.6,0.7-1.1c-10.6-56.3-18.2-113.1-22.9-170c-0.9-33.9-4-37.2-2.1-58.4c0-0.4-0.2-0.8-0.5-1
	c0.2-1.3,0.4-2.5,0.5-3.8c0-0.4-0.5-0.6-0.6-1c-2.3-21.7-1.5-14.3-2.7-29c0-0.4,0.1-0.5,0.3-1.8c-0.2-6.5-0.4-13-0.4-19.5
	c0-3.7-0.1-7.3-0.1-11c0.1-28.3,1.8-57.5,10-86c19.5-6.3,40.6-13.4,40.6-13.4c59.1-18.7,67-41.1,67-41.1s12.4,22.3,55.3,36.9
	c0,0,20,6.6,40.3,13.8c1.5,4.4,2.7,8.8,3.6,13.3c0.1,0.4,0.4,0.6,0.8,0.8c0.2,3.7,0.4,7.4,0.6,11c1,24.2,1.5,48.5,1.5,72.7
	c0,7.8-0.1,15.6-0.2,23.4l0.3,29.9c-0.2,0.2-0.3,0.4-0.4,0.6c-0.7,4-0.9,8-0.7,12c-0.9,20.7-2.9,20.2-3.4,54.2
	c-4,56.5-10.6,113-20,168.9c-0.1,0.4,0.2,0.8,0.6,1c-0.2,1.3-0.4,2.5-0.6,3.8c-0.1,0.6,0.4,1.2,1.2,1.4c0.1,0,0.2,0,0.3,0
	c0.7,0,1.3-0.4,1.5-0.9c16.9-54.3,29.4-110.7,37.8-168.5c-1.5,17.4-3.2,34.2-5.6,49.2c-0.2,0.2-0.4,0.5-0.4,0.8
	c-5,51.6-9.9,79.1-17.9,124.7l-1.7,9.6c-0.1,0.4,0.1,0.9,0.6,1.1c0,0,0.1,0,0.1,0l-0.7,3.7c-0.1,0.4,0.1,0.9,0.6,1.1
	c0.3,0.2,0.6,0.3,0.9,0.3c0.2,0,0.4,0,0.6-0.1c6.4-2.1,11.7-5.5,15.5-9.7c0.1,0,0.1,0.1,0.2,0.1c0.1,0,3.5,0,3.6,0
	c0.2,0,3.8-0.1,3.8-0.1v0c0,0.2-3.1,0.5-3,0.7l-1.8,4.2c0,0.5-0.4,1,0.2,1.2c0.6,0.2,0.9,0,1.3-0.4l4.1-4.4l-0.2,0.8
	c-0.1,0.4,0.2,0.8,0.6,1l-0.6,3.8c-0.1,0.6,0.3,1.2,1.1,1.3c0.7,0.2,1.5-0.1,1.8-0.7c0.8-1.4,2-3.2,3.3-5.1c0.1-0.1,0.2-0.1,0.2-0.2
	c0.3-0.4,0.6-1,0.9-1.4c0,0,0-0.1,0.1-0.1c1.7-2.4,3.4-4.9,4.6-6.9c0.2-0.3,0.2-0.6,0-0.9c6.7-12.5,12.8-28.8,18.3-47.5
	c1,8.3,1.8,17.5,1.9,26.8c-0.1,14.9-1.7,29.6-6,40.3c-0.2,0.6,0.2,1.3,0.9,1.5c0,0,0.1,0,0.1,0c-0.4,1.1-0.7,2.3-1.1,3.3
	c-0.2,0.6,0.2,1.3,0.9,1.5c0.2,0,0.3,0.1,0.5,0.1c0.6,0,1.2-0.3,1.4-0.8c13.1-28.5,24.5-60.6,24.3-102.6c0.2-11.8-0.6-24.4-2.4-37.9
	c12.5,24,19.3,53.5,25.3,80l2.1,9.2c0.1,0.6,0.8,1,1.5,1c0.1,0,0.1,0,0.2,0c0.8-0.1,1.4-0.6,1.3-1.3l-0.3-4.1
	C462.9,600.4,463,600.2,463,599.9z"/>
</svg>
