<?xml version="1.0" encoding="utf-8"?>
<!-- Generator: Adobe Illustrator 19.0.0, SVG Export Plug-In . SVG Version: 6.00 Build 0)  -->
<svg version="1.1" id="Layer_1" xmlns="http://www.w3.org/2000/svg" xmlns:xlink="http://www.w3.org/1999/xlink" x="0px" y="0px"
	 viewBox="-240 58.5 478.5 445.5" enable-background="new -240 58.5 478.5 445.5" xml:space="preserve">
<g id="XMLID_427_">
	<g id="XMLID_1142_">
		<path id="XMLID_1144_" fill="#EF7B05" d="M-99.7,339.1C-99.8,339.3-99.8,339.3-99.7,339.1L-99.7,339.1z"/>
		<path id="XMLID_1143_" fill="#EF7B05" d="M183.8,212.4c-15-20.2-16.1-14.5-16.1-14.5s15-55.2-78.5-67.4c-15.5-2-36.7-1-36.7-1
			l12.7,11.3c0,0-49.2-14.7-114.2-5.9c-47.3,6.4-79.5,26.9-106.3,60.2c-17.9,22.3-23.4,55.2-23.4,55.2l24.4-28.6
			c-12.3,16.8-31.1,50.8-24.2,96.6c14.5,96.2,65.3,114.1,65.3,114.1s-35-57.7-11.9-95c38.8-62.7,107.8-64.6,107.8-64.6
			s-64.5,5-82.3,66.1c-0.1,0.2-0.1,0.2-0.1,0.3c0.6-1.8,7.4-18.6,32.7-27.1c15.3-5.2,35.4-5,58.4-10.3
			C-30.2,326.1-33,351.7-33,351.7s20.3-28.8,70.1-45.3c2.9-1,6-2,9.3-3.1c-14.7,16.6-9.4,44.6-4.7,50.1c0,0-1.7-25.2,60.8-40.9
			c36-9.1,41.7-27,41.7-27s-0.2,17.8,4.6,29.1c5.6,13.2,21.5,21.7,22.7,33.6c2.1,22.1-11.4,63.5-11.4,63.5l20.2-14
			c10.5-32.2,20.3-86.1,20.3-110.9C200.5,261.9,195.2,227.8,183.8,212.4z"/>
	</g>
	<g id="XMLID_428_">
		<path id="XMLID_456_" fill="#FFFFFF" d="M-107.2,314.5l-3.5,6.8l-3.1,7l-2.7,7.1l-2.3,7.3l-1.9,7.4l-1.5,7.4l-1.1,7.5l-0.7,7.5
			l-0.3,7.6l0.1,7.6l0.5,7.5l1,7.5l1.3,7.4l1.8,7.3l2.2,7.2l2.6,7.1l1,2.6l-2.7-0.6c-2.3-0.6-4.6-1.3-6.8-2.3
			c-2.2-1-4.2-2.2-6.2-3.5c-2-1.3-3.8-2.8-5.5-4.4c-1.7-1.6-3.4-3.3-4.9-5c-1.5-1.8-3-3.6-4.4-5.4c-1.4-1.8-2.8-3.6-4.2-5.3
			c-1.5-1.8-2.9-3.5-4.4-5.3c-1.4-1.8-2.9-3.7-4-5.8c-0.6-1-1.1-2.1-1.6-3.2c-0.3-0.5-0.4-1.1-0.6-1.7l-0.6-1.6
			c-0.7-2.2-1.5-4.3-2.3-6.4c-0.8-2.1-1.7-4.2-2.6-6.3c-0.9-2.1-1.9-4.1-2.9-6.2c-1-2-2.1-4.1-3.2-6c-1.1-2-2.3-4-3.5-5.9
			c-1.2-1.9-2.5-3.8-3.8-5.7c-1.3-1.9-2.7-3.7-4.1-5.5c1.5,1.7,3,3.4,4.5,5.2c1.4,1.8,2.8,3.6,4.1,5.5s2.6,3.8,3.8,5.8
			c1.2,1.9,2.4,3.9,3.5,5.9s2.2,4.1,3.2,6.1c1,2.1,2,4.2,2.9,6.3c0.9,2.1,1.8,4.3,2.6,6.4l0.6,1.6c0.2,0.5,0.4,1,0.6,1.5
			c0.4,1,1,2,1.5,2.9c2.3,3.8,5.5,7.1,8.5,10.6c1.5,1.7,3,3.6,4.4,5.4c1.4,1.8,2.8,3.5,4.3,5.2s3.1,3.3,4.8,4.8
			c1.7,1.5,3.4,2.9,5.2,4.2c1.8,1.2,3.7,2.4,5.8,3.3c2,0.9,4.1,1.6,6.2,2.1l-1.7,2l-2.7-7.2l-2.2-7.4l-1.8-7.5l-1.3-7.6l-0.9-7.7
			l-0.4-7.7v-7.7l0.4-7.7l0.9-7.7l1.3-7.6l1.8-7.5l2.2-7.4l2.6-7.2l3-7l3.4-6.8L-107.2,314.5z"/>
	</g>
</g>
</svg>
