<?xml version="1.0" encoding="utf-8"?>
<!-- Generator: Adobe Illustrator 19.0.0, SVG Export Plug-In . SVG Version: 6.00 Build 0)  -->
<svg version="1.1" id="Layer_1" xmlns="http://www.w3.org/2000/svg" xmlns:xlink="http://www.w3.org/1999/xlink" x="0px" y="0px"
	 viewBox="-180 -23 598 606" enable-background="new -180 -23 598 606" xml:space="preserve">
<g id="XMLID_4508_">
	<path id="XMLID_4509_" fill="#EF7B05" d="M279.4,281.5c0.2-10.5-1.6-20.8-3.5-30.7c-0.2-1.2-0.8-3-1-4.1c-0.1-0.6-0.4-2.1-0.5-2.7
		c-0.3-1.1-0.3-1.2-0.6-2.4c-0.1-0.6-0.7-2.1-0.8-2.6c-0.6-2.3-1.1-3.5-1.8-5.7c-0.8-2.8-1.8-4.6-2.8-7.3c-0.4-1.1-1.1-2.1-1.6-3.1
		c-0.2-0.5-0.8-2-1.1-2.6c-17.6-43.5-53.9-76.5-96.9-82.8c-5.2-0.8-10.3-0.9-15.6-0.9c-5.4,0-13,0.6-18.1,1.4
		c-60.7,8.9-108.6,71.6-109.1,143.9c0,0.8,0,1.5,0.1,2.3l2.1,21.8l7.3,22.7c0,0,0.2-30.3,1.1-35.8c1.5-9.7,4.1-19.2,8-28.3
		c0.2-0.7,1.1-1.7,1.1-2.8h0.1c21-6.7,47.2-15.5,47.2-15.5c59.1-18.7,67-41.1,67-41.1s12.4,22.3,55.3,36.9c0,0,23.8,7.8,45.8,15.8
		c1.1,2.1,2.2,4.4,3.2,6.7c3.4,7.8,5.9,15.9,7.4,24.2c0.5,2.4,0.7,4.9,0.8,7.3l1,29.3c0,0,3.6-9.2,4.3-19.1
		C278.7,296.6,279.3,285.7,279.4,281.5z M227.4,168.9L227.4,168.9L227.4,168.9c0.5,0.4,1,0.8,1.4,1.2
		C228.3,169.6,227.9,169.3,227.4,168.9z"/>
</g>
<path id="XMLID_4507_" fill="#EF7B05" d="M371.9,357.6c-2.5,8.6-9.6,15.2-16.9,20.7c-4.6,3.4-9.4,6.7-12.5,11.5
	c-3,4.7-3.7,11.4,0.1,15.5c4.2,4.4,12.5,5.2,14.3,10.9c0.5,1.6,0.4,3.2-0.1,4.8c0,3.3-1,6.7-2.9,9.5c-2.6,3.7-6.9,6.8-7.1,11.3
	c-0.2,5.1,5.3,9.6,4.1,14.6c-1.7,6.8-13,6.2-16.9,12.1c-1.9,2.9-1.6,6.7,0,9.8c1.6,3,4.2,5.5,6.8,7.8c-3.5,0.7-7.4,0.4-10.4-1.5
	c-3-1.8-5.1-5.3-4.5-8.7c0.4-2.5,2.1-4.7,2.5-7.2c0.9-5.2-3.6-9.4-8-12.7c2.2,2.1,2.5,5.8,1.7,8.8c-1,3.5-3.2,6.8-3.8,10.4
	c-0.5,2.7-0.1,5.5-0.8,8.1c-1.9,7-10.6,10-18.1,11.1s-16,1.9-20.8,7.5c-4.4,5.2-3.6,13.8,1.8,18.1c-9,1.4-18.1-5.3-20.5-13.7
	s0.9-17.7,7-24.2c4-4.3,9.5-8.1,10.4-13.7c0.4-2.3,0-4.3-0.8-6.3c-0.3-0.4-0.6-0.7-1-1c0.1,0,0.2-0.2,0.2-0.7
	c-2.8-5.2-8.3-9.8-11-15.3c-0.4-0.8-0.7-1.7-0.3-2.5c0.3-0.5,0.9-0.8,1.4-1.1c2.7-1.3,5.5-2.5,8.3-3.8c-1.3-21.5-1.7-53.9,6.8-79.9
	h-0.3c4.3-13.3,6.7-27.6,6.7-42.5c0-14.3-2.7-29.6-7.7-44.9c-0.6,0.5-1.2,1.1-1.8,1.5c0.6-0.6,1.2-1.3,1.7-1.9
	c-19-57.5-67-72-133-68.7c-71.4,3.5-121.8,69.8-125.3,139c-2.2,2.4-5,4.8-6.1,6.4c-5.8,8.7-8.5,19.3-7.2,29.6
	c1.3,9.8,5.9,18.8,9.7,28s6.9,19.1,4.8,28.8c-1.7,8-8,16.4-16.8,17.6c-0.1,0-0.2,0-0.3,0c-0.2,0-0.3,0-0.5,0.1
	c-4.9,0.4-17.6-1.6-13.4,8.7c1.2,3,4.1,5.2,4.6,8.3c0.5,3-1.5,5.8-3.5,8c-12,13-33.5,17-49.8,9.3c7.1-0.5,14.5-1.1,20.6-4.5
	s10.6-10.7,8.2-17.1c-2.2-6-9-9-15.3-11c-21.5-7.1-46.1-12.5-58.8-30.5c-1.4-1.9-2.6-4.1-2.5-6.4c0.1-4.5,4.7-7.5,8.7-9.7
	c9.5-5.2,18.9-10.4,28.4-15.6c-13.3-11.9-26.6-23.9-39.9-35.9c-8.1-7.3-16.9-18.5-10.8-27.4c7.3-10.7,27.1-4.4,36.1-13.8
	c6.8-7.1,3-18.7-2.6-26.6c-5.7-8-13.2-15.7-13.5-25.3c-0.4-14.2,14.8-23.7,28.2-29.9c2.5-1.1,5-2.4,6.5-4.5
	c5.6-8.1-7.4-16.3-10.7-25.5c-3.2-8.9,3.8-18.4,12.4-23.1c8.5-4.6,18.5-6.1,27.5-10c8.9-3.9,17.4-11.5,16.9-20.9
	c-0.3-5.8-4-11.2-3.1-16.9c2.5-15.5,31.8-12.4,37.5-27.1c1.9-4.7,0.6-10.1,2-15c3.4-12.1,20.6-14.9,33.2-11.4c7.3,2,16,5.1,21.8,0.4
	c3.2-2.6,4.3-6.9,6.3-10.4c6.2-10.9,21-14.2,34-14.5c10.6-0.2,23.3-5.1,33.6-2.9c12.2,2.7,29.9,4.1,41.6,8.5
	c3.9,1.4,7.7,2.9,11.6,4.4c19.6,7.4,33.2,17.7,52.4,25.9c11.7,5,21.5,16.3,31,24.6c9.5,8.2,16.6,19.8,16.4,32
	c-0.1,7.3-2.7,15.3,1.2,21.7c5.1,8.3,18.9,9.4,22.7,18.4c4.6,10.8-9.3,24.3-2.2,33.7c4.4,5.9,14.5,5.7,18.9,11.5
	c6.5,8.6-4.2,22.1,2.1,30.9c4.8,6.7,16,5.5,22.4,10.9c8,6.7,4.4,19.5-2.2,27.4c-6.6,7.9-15.8,14.5-18.7,24.3c-0.6,2.1-0.9,4.3,0,6.3
	c2.5,5.6,11,4.3,17.1,6C370.4,338.2,374.4,349,371.9,357.6z"/>
<path id="XMLID_4492_" fill="#FFFFFF" d="M15.6,236.2c2.6-2.3,5.9-3.9,8.5-6.3c5.4-4.8,7.7-12.3,7.6-19.4c-0.1-7.1-2.3-14-4.5-20.8
	c1.6,5.2-3.8,9.8-8.7,12.5s-10.7,6.5-10.1,11.9c-0.8-15.5,0.7-32.6,11.7-43.9c7-7.2,16.9-11.1,24.8-17.3c7.9-6.2,14-16.9,9.4-25.7
	c2.4,8.5,4.7,17.2,3.4,25.9s-7.1,17.4-16,19.6c-1.4-1.9,1.9-3.7,4.3-3.9c5-0.3,10,0,14.9,0.9c3.7,0.7,7.7,1.6,11-0.1
	c5.6-2.9,4.8-10.6,5.5-16.7c0.8-7.1,5.1-13.8,11.5-17.4c6.4-3.6,14.9-3.9,21.3-0.3c-14.6,4.9-23.9,21.3-20.2,35.7
	c0.7,2.8,1.8,6.1-0.2,8.2c-1.2,1.3-3.1,1.7-4.8,1.9c-6.8,0.7-13.9-0.8-20.6,0.5c-12.3,2.5-20.7,15.4-19.1,27.4
	c0.8,6,3.7,12.2,1.3,17.8c-3,7-12.2,8.9-18.4,13.7c-6.4,5-9.4,13.7-7.2,21.3c1.6,5.7,5.8,10.7,6.2,16.7c0.6,9.5-8.5,16.7-16.7,22.2
	c6.7-4.8,11.9-13,9.4-20.6c-1-3-3-5.5-4.8-8.1C7.6,261.1,5.7,245,15.6,236.2z"/>
<path id="XMLID_2247_" fill="#FFFFFF" d="M-51,399c2-4.2,5.2-7.8,7.1-11.9c4.3-9.1,2-20.7-5.5-27.6c5.1,3.8,10,8,13.2,13.3
	s4.5,12.1,1.9,17.7c-1.8,4-5.6,7.5-5.5,11.9c0.1,5,5,8.6,9.5,11.3c8.4,5.1,16.8,10.2,25.1,15.4c-13.2-4.6-23.9-18.7-18.9-31.2
	c1.8-4.6,5.5-8.4,7.5-12.9c3.4-7.4,1.9-16.6-3.6-22.7c-7-7.8-19.6-10.8-23.5-20.4c-4.4-10.9,5.6-21.8,9.1-33
	c6-18.8-7.4-39.2-25.1-49.1c4.9,5.8,8.6,12.6,10.7,19.8c0.7,2.3-0.3,6.1-2.7,5.3c-0.5-0.2-0.8-0.5-1.2-0.8c-7-6.6-14-13.2-20.9-19.9
	c-2.2,1.8-2.1,5.3-0.7,7.7c1.4,2.5,3.8,4.2,5.9,6.2c7.9,7.2,12.6,17.4,12.9,27.8c0.2,7.3-2.3,15.4-8.7,19.2c-4,2.4-9,2.9-13.5,4.2
	c-4.5,1.3-9.3,4.1-10.1,8.6c-0.5,2.4,0.3,4.9,1.6,7.1c4,6.9,12.3,10.3,19.6,14s14.9,9.3,15.5,17.2c1,12.9-17.4,22.5-14.6,35.2
	c1.2,5.3,5.9,9.3,10.9,11.9s10.6,4.1,15.5,6.9C-50.9,424.7-56.2,410.1-51,399z"/>
<path id="XMLID_2234_" fill="#FFFFFF" d="M309.4,256.9c0.1-7.1-0.3-15.3-6.3-19.5c-3.8-2.6-8.9-2.8-13.3-4.3s-8.7-6-6.9-10.1
	c-3.1,1.1-3.9,5.2-2.8,8.2c1.1,3,3.6,5.3,5.3,8.1c6.3,9.6,2.8,22.9-5.8,30.9c-0.6,0.5-1.2,1.1-1.8,1.5c0.6-0.6,1.2-1.3,1.7-1.9
	c7-9.2,5.4-23.6-3.9-30.9c-5.9-4.6-15-7.9-14.9-15.2c0-3.2,2.1-6,3.4-8.9c4.2-8.9,2-20.1-5.2-27c-6.7-6.4-17.6-10.3-18.8-19.2
	c4,5.1,11.2,6.4,17.2,9.2c11.9,5.4,19.7,18.1,19,30.7c6.8-5.9,8.6-16.4,4.2-24.2c3.3,3.8,6.7,7.8,8.4,12.5
	c1.8,4.7,1.7,10.3-1.6,14.2c6.7-1,11.4-7.5,11.9-13.9c0.5-6.5-2.4-12.8-6.2-18.1c9.9,4.1,16.4,14.8,15.2,25.1
	c-0.6,5.1-2.9,9.9-4.1,15c-1.3,5-1.3,10.8,2,14.9c1.4,1.7,3.2,3,4.7,4.6C315.4,243.7,314.8,252.4,309.4,256.9z"/>
<path id="XMLID_2224_" fill="#FFFFFF" d="M319.2,367.7c3.3-8.1-2.3-16.9-8.5-23.2c-6.2-6.3-13.6-12.6-15-21.1
	c-1.2-7.6,2.8-15.1,8-21.1c5.1-5.9,11.5-10.8,16.3-17c-9,5.7-15,15.6-15.7,26c-0.7,10.3,3.9,20.9,12,27.7
	c-1.9-12.1,3.9-25.1,14.3-32.2c-2.8,6.7-5.4,13.9-4.6,21.1c0.7,7.2,5.5,14.6,12.8,16.4c2.3,0.6,4.7,0.6,6.9,1.3
	c6.4,2,9.9,9.2,9,15.5c-0.9,6.4-5.4,11.8-10.6,15.8s-11.4,6.8-17.1,10.2c-4.5,2.6-9,5.8-10.5,10.6c-2.1,6.2,1.5,12.8,5.7,18
	c4.1,5.2,9.1,10.2,10.3,16.6s-1.7,13-6.1,18c-4.4,4.9-10.3,8.5-16.1,12c10.9-2.2,16.8-16.2,10.5-25c-4.3-6.1-12.6-8.8-16.8-15
	c-3.6-5.4-3.5-12.5-1.2-18.5s6.4-11.2,10.5-16.3c-4.4,8.6-16.2,11-22.9,18.1c-7.1,7.5-6.8,20.3,0.7,27.5
	c-4.9-7.3-8.5-15.5-10.5-24.1c-1.4-6-1.9-12.6,1.4-17.9C289.9,378.6,313.6,381.3,319.2,367.7z"/>
</svg>
