<?xml version="1.0" encoding="utf-8"?>
<!-- Generator: Adobe Illustrator 19.0.0, SVG Export Plug-In . SVG Version: 6.00 Build 0)  -->
<svg version="1.1" id="Layer_1" xmlns="http://www.w3.org/2000/svg" xmlns:xlink="http://www.w3.org/1999/xlink" x="0px" y="0px"
	 viewBox="0 0 377.7 520.3" style="enable-background:new 0 0 377.7 520.3;" xml:space="preserve">
<style type="text/css">
	.st0{fill-rule:evenodd;clip-rule:evenodd;fill:#EF7B05;}
	.st1{fill-rule:evenodd;clip-rule:evenodd;fill:#FFFFFF;}
</style>
<g id="XMLID_1018_">
	<path id="XMLID_1024_" class="st0" d="M371.5,253c-0.6,37.7-5.9,89.7-12.8,123.9c-8.6,42.7-28.3,102.6-73.4,121.2
		c-5.7,2.4-12.6,5-20,7.6c69.1-240.5-0.5-308.8-31.8-405.9c-9.8,49.6-51.8,67.1-96.5,87.3c5.8-6,12.3-13.2,17.2-21.9
		C97.6,206,46.4,230.6,94.5,499.6c0,0.1,0,0.1,0,0.2c0,0.1,0,0.2,0,0.3c0,0,0,0,0,0c0,0,0,0.1,0,0.1c0,0.1,0,0.1,0,0.1
		c-1.9-0.7-3.7-1.5-5.4-2.2c-45.1-18.6-64.9-78.5-73.5-121.2C8.8,342.7,3.5,290.7,3.9,247c0.4-43.7,6.5-79.2,11.5-100.2
		c2.3-9.5,4.3-16,6.1-20.8c0,0,0,0,0,0c2.2-5.7,3.9-8.8,5.2-11.3c49.4-98,160.5-91.2,232.5-62.7c61.1,24.1,87.9,63.9,89.5,68.7
		c3.3,10.6,9.2,29.1,14.3,50.1c0.8,3.3,1.6,6.8,2.3,10.3C369.2,199.6,372,221.3,371.5,253z"/>
	<path id="XMLID_1023_" class="st0" d="M331.7,245.4c-4.5,15.6-63.2,254.8-66.5,260.3c69.1-240.5-0.5-308.8-31.8-405.9
		c-9.8,49.6-51.8,67.1-96.5,87.3c5.8-6,12.3-13.2,17.2-21.9C97.6,206,46.4,230.6,94.5,499.6c-2.8-15.2-47.9-252.6-53.2-266.2
		c-10.6-27.1-27.2-30.7-27.7-54.3c-0.4-18.8,2.5-36.7,7.9-53.1c0,0,0,0,0,0C52,33.7,164.6-15.2,255.7,42.6
		c76.2-0.9,100.9,85,108.2,125.7c0.8,4.7,1.3,9,1.4,12.8C366.4,216.2,339.8,217.2,331.7,245.4z"/>
	<path id="XMLID_1022_" class="st1" d="M205.3,79.9c-30.4,34.3-44.2,38.4-83.1,60.8c-14.5,8.3-24,15.9-35.4,26.4
		c-11.4,10.4-24.6,23.7-31.1,31.7c-6.5,8-6.4,10.6-4.9,5c1.5-5.6,4.5-19.5,14.3-33.4c9.9-13.8,26.6-27.5,40.1-38.2
		c13.5-10.7,23.6-18.4,21.9-18c-1.7,0.5-15.3,9.1-28.9,17.5c-13.6,8.5-27.3,16.7-35.7,23.1c-8.4,6.4-11.6,10.8-17,19.2
		c-5.4,8.4-13,20.6-16.4,25.4c-3.4,4.8-2.7,2.2,0-7.3c2.7-9.5,7.2-25.8,17.6-44C75.2,98.6,108.4,84.5,159.1,61
		c19-8.8,32-16.6,44-19.1c12-2.6,23.1,0,23.2,7.2C226.5,56.3,215.6,68.3,205.3,79.9z"/>
	<path id="XMLID_1021_" class="st1" d="M27.1,328.7c-0.9,52.3,10.4,104.9,51.8,142.2c7.7,6.9,8.9,7.6,6.6,3.7
		C59.7,431.9,37,385.9,29.3,337C27.9,327.7,27.2,323.1,27.1,328.7z"/>
	<path id="XMLID_1020_" class="st1" d="M261.1,88.8c17.7,37.4,52.6,95.1,64.2,115c4.2,7.3,8.5,12.3,11.3,15.8c2.8,3.5,4,5.4,0.6-3.1
		c-9.7-24.4-37.5-94.1-46.9-118.7c23.7,14,50,65.9,54.8,93.1c2,11.3,3.3,23.7,3.2,27.2c0,1.7,2.3-9.5,0.8-27.2
		c-2-23.3-12.6-58.2-23.8-78.3c-14.7-26.4-45.8-49.5-47.3-50.8C256.1,43.7,256.5,79,261.1,88.8z"/>
	<path id="XMLID_1019_" class="st1" d="M341.2,340.5c2,9.2-1,39.5-6.5,55.7c-9.9,29.1-27.7,47.4-38.6,62.6c-5,6.9-6.9,10.5-6.3,7.1
		s3.8-13.8,6.4-22.2c8.2-25.7,24.1-45.4,34.2-70.1C337.3,356.8,341,339.3,341.2,340.5z"/>
</g>
</svg>
