<?xml version="1.0" encoding="utf-8"?>
<!-- Generator: Adobe Illustrator 19.0.0, SVG Export Plug-In . SVG Version: 6.00 Build 0)  -->
<svg version="1.1" id="Layer_1" xmlns="http://www.w3.org/2000/svg" xmlns:xlink="http://www.w3.org/1999/xlink" x="0px" y="0px"
	 viewBox="-361.5 113 490 580" style="enable-background:new -361.5 113 490 580;" xml:space="preserve">
<style type="text/css">
	.st0{fill:#EF7B05;}
</style>
<path id="XMLID_249_" class="st0" d="M32.4,496.9c-0.7,11.6-1.3,12.9,4.6,22c5.9,9.2,12.8,12.6,6.2,23
	c-6.6,10.4-17.4,11.6-16.7,20.8c0.6,9.2,12.5,13.5,10.5,25.7C35.2,599.4,16.4,611,12.9,613c2.9-1.9,15-10.9,13.3-22.2
	c-2-12.8-3.5-13.5-17.9-20.7c-14.5-7.4-16.6-10.6-12.6-20.9c3.9-10.4,17.1-11.3,7.1-22.3c-9.8-11-15.6-18.5-13-25.3
	c2.7-6.8-1.7-11.7,9.9-24.7c7.3-7.9,6.2-25.7,6.2-33.7c0-8,11.7-46.4-7.3-63.3c-3.4-3-9.2-9.9-16.3-17.9
	c-5.7-6.6-12.3-13.9-18.9-20.4c-6.9-6.7-13-16.7-17.3-25.4c-4.3-8.5-7.1-15.6-7.7-17.2c0.2,1.9,1.4,10.1,2.3,16.6
	c0.3,2.4,0.6,4.5,0.7,6.1c1.2,16,11.7,24.7,15,27.1C-48.4,346.3-68,335-76,325.1c-3.3-4.1-5.6-8.1-7.3-11.9
	c-7.4-16.8-1.9-30.4-1-32.6c-1.5,2.1-11.9,17.7-23.6,27.8c-0.9,0.8-1.8,1.5-2.8,2.3c-12.5,10-34.2,22.2-37.1,23.8
	c1.7-1.5,12.7-10.9,20.3-25c1-1.5,1.7-3.1,2.5-4.8c2.5-5.5,12.5-34.2,12.5-34.2c-5.1,8.1-13.7,23.4-25.4,38.4
	c-7.7,10.1-16.9,20-27.1,27.7c-3.8,2.8-9,6.7-14.7,11.3c-20.7,16.2-49.4,40.7-52,54.1c-3.2,17.1,5.9,54.4,11.8,69.7
	c6,15.3,6.6,20.2,0,26.3c-6.6,6.1-23,17.1-20.3,22.6c2.6,5.5,12.5,14.6,10.5,22c-2,7.4-23.6,24.9-26.3,34.9
	c-4.8,17.5,23.8,32.4,27.1,34c-3.4-1.1-42-14.9-37.6-33.4c2.9-12,0.7-14-6.6-23.2c-7.2-9.1-17.7-24.5-7.9-33.6
	c9.9-9.2,23.7-19.6,20.4-30c-3.3-10.4-38.6-82.3-38.6-107.8c0-7.5,1.5-21.4,4.9-37.9c2.7-13.1,6.7-28.1,12.3-43
	c11.2-29.2,28.3-58.2,54.4-74c55.9-33.6,94.9-36,115.1-37c22.3-1.1,37.9-0.6,45.1,1.2c5.4,1.4,55.7,21.8,74.8,41.9
	c14.7,15.6,51.1,53.7,67,97.8c4.8,13,7.6,26.6,7.6,40.3c0,1.5,0,3-0.1,4.5C79.7,435.4,33.1,485.5,32.4,496.9z"/>
</svg>
