<?xml version="1.0" encoding="utf-8"?>
<!-- Generator: Adobe Illustrator 19.0.0, SVG Export Plug-In . SVG Version: 6.00 Build 0)  -->
<svg version="1.1" id="Layer_1" xmlns="http://www.w3.org/2000/svg" xmlns:xlink="http://www.w3.org/1999/xlink" x="0px" y="0px"
	 viewBox="0 0 459.58905 596.57532" style="enable-background:new 0 0 459.58905 596.57532;" xml:space="preserve">
<style type="text/css">
	.st0{fill:#EF7B05;}
</style>
<path id="XMLID_1104_" class="st0" d="M340.49799,252.23058c8.37827-20.14633,12.1344-28.67702,14.82886-49.9223
	c0.0697,0.25642,0.14209,0.49568,0.21179,0.75323l0.4826,1.75833c2.6864,9.78984,4.12076,19.14697,4.37814,28.0462
	c-0.1582,8.06013-1.28693,15.73221-3.51486,22.92235c-2.858,9.21518-7.56592,18.10526-12.11295,26.70456
	c-2.19312,4.14169-4.4559,8.42075-6.49887,12.70209c-4.37277,9.16022-7.00555,17.2879-8.06995,24.74704
	c-0.28149,0.07785-0.56033,0.19003-0.73996,0.4144c-7.6785,9.81503-17.81821,17.19632-28.5531,25.01263
	c-2.81512,2.0491-5.67847,4.13254-8.55789,6.30524c-0.0885,0.0687-0.08313,0.17517-0.14481,0.25644
	c-0.07239,0.08472-0.19571,0.12021-0.24127,0.22208c-3.57385,8.41614-5.10471,17.72864-4.93848,27.36853
	c-0.63541,14.17993,2.75073,32.46365,9.88232,46.8382c0.48795,1.43436,1.10995,7.01028,2.04294,7.01028c0,0,0.00537,0,0.00806,0
	c2.92233,6,6.42377,7.36081,10.3515,12.34503c-2.51215,4.40497-3.79904,8.05618-3.27356,13.05756
	c-0.70242,6.53305,1.30032,12.42422,7.35144,16.85666c0.26004,0.18774,0.57642-0.11203,0.89279-0.11203
	c0.38605,0,0.77213-0.33646,1.04022-0.60663c0.49332-0.48996,0.42899-1.33014-0.14478-1.75143
	c-2.12875-1.55911-3.66498-3.52921-4.71594-5.64355c0.84988,0.95816,1.80701,1.84247,2.9277,2.66211
	c0.26004,0.18774,0.57642,0.26932,0.89279,0.26932c0.38605,0,0.77213-0.14581,1.04022-0.41599
	c0.49332-0.48993,0.42899-1.2348-0.14478-1.65607c-3.92505-2.87445-5.82858-6.96616-6.31116-11.28757
	c0.3941-3.34607,1.52551-6.63684,3.22797-9.43231c0.11261-0.18317,0.2547-0.34952,0.39142-0.52124
	c0.01611,0.31366,0.04291,0.62485,0.06705,0.93851c-0.54694,6.53647,1.41827,13.94287,4.2977,18.36273
	c2.86337,4.39352,6.75089,8.21005,10.51508,11.90298c2.16092,2.12006,4.39691,4.31335,6.38623,6.57309
	c2.6998,3.05762,6.47205,8.25586,7.397,13.95554c-0.10187,0.66281-0.17694,1.32446-0.38876,1.98615
	c-1.74268,5.43753-6.99216,10.19278-16.04871,14.54053c-1.79633,0.86084-3.63016,1.68048-5.46933,2.50012
	c-5.61948,2.5047-11.43198,5.0918-16.05948,8.9931c-6.88492,5.79926-10.30325,14.16962-9.59543,22.32819
	c-0.42093,3.95398,0.10989,7.9823,1.67563,11.76685c2.81509,6.80432,8.81528,12.42731,16.25787,15.68756
	c0.06433,0.05035,0.1394,0.10529,0.20911,0.15564c2.71323,2.00562,5.80179,3.04962,8.92252,3.04962
	c0.95981,0,1.92499-0.10077,2.87946-0.29761c0.6488-0.13739,1.0885-0.65485,1.04022-1.2226
	c-0.04825-0.57239-0.56836-1.0257-1.23328-1.08521c-3.59796-0.30225-7.12085-1.22717-10.3649-2.64667
	c-1.19843-0.98218-2.13681-2.18304-2.93576-3.448c0.50671,0.25189,0.95981,0.57697,1.48264,0.80591
	c0.06433,0.05035,0.1394,0.10535,0.20911,0.1557c2.71323,2.00562,5.80179,3.04962,8.92252,3.04962
	c0.95981,0,1.92499-0.10077,2.87946-0.29767c0.6488-0.13739,1.0885-0.65479,1.04022-1.2226
	c-0.04825-0.57233-0.56836-1.0257-1.23328-1.08521c-3.59796-0.30219-7.12085-1.22717-10.3649-2.64667
	c-2.39954-1.96552-4.02963-4.67737-4.65698-7.4259c1.23596-5.89429,6.16104-11.51843,14.7645-16.72815
	c2.37543-1.43781,4.84198-2.77484,7.30853-4.11194c5.39426-2.92139,10.96548-5.9389,15.47498-10.00043
	c9.85553-8.88324,12.04327-21.5235,12.87976-32.7168c0.1394-1.83844,0.11795-3.73529,0.02948-5.64816
	c0.16086-3.07364-0.00537-6.26059-0.4397-9.47733c1.5148,1.78467,2.95184,3.50522,4.08859,5.38831
	c3.64621,6.03052,3.96796,13.18973,4.27359,20.11545l0.12332,2.63062c0.37537,7.13632,1.53625,15.07852,6.68921,21.09872
	c-0.11795,1.35199-0.03217,2.70392,0.18231,4.04901c-0.06168,0.11786-0.16891,0.21289-0.185,0.34796
	c-1.03488,9.6983,7.03506,19.81323,18.36514,23.02307c2.86337,0.81049,5.87149,1.19971,8.90643,1.19971
	c8.38095,0,16.9603-2.9809,23.12671-8.36121c7.32996-6.38306,11.09146-15.7345,10.38367-25.3183
	c0.17426-2.16583,0.16354-4.36029-0.13672-6.56506c-0.28955-2.12927-0.79895-4.26306-1.28693-6.32819
	c-0.53351-2.24597-1.03754-4.42557-1.29761-6.57425c0.05093-0.42126,0.04288-0.84253,0.12869-1.26263
	c0.51474-2.50928,1.68369-4.85831,2.92233-7.34467c1.15283-2.31699,2.34323-4.70947,2.96524-7.25998
	c0.58713-2.41312,0.56302-4.81937,0.30832-7.21188c0.49597-4.94757-0.80432-9.85965-2.18506-14.63211
	c-0.90887-3.12628-1.80435-6.33728-2.17163-9.52197c0.45575-5.79468,2.7695-11.50238,5.13687-17.04065
	c0.82574-1.92773,1.64615-3.85089,2.39148-5.78094c1.85797-4.7999,2.547-9.38116,2.08853-13.63275
	c0.49332-6.07971-1.09653-11.63629-4.83124-16.36411c-0.02948-2.08456-0.22519-4.24011-0.47723-6.41855
	c0.74533-7.55533,3.42102-14.74316,6.14764-21.74899c3.44781-8.84656,6.93585-17.95758,6.31119-27.82642
	c0.21179-3.40674,0.04288-6.88678-0.80432-10.48813c-2.39148-6.13126-7.78574-10.56827-13.00305-14.86105
	c-6.49619-5.34366-12.66794-10.43549-14.10498-18.48303c4.03766-13.99335,7.5257-29.94189,9.29517-47.06497
	c0.06436-0.63074,0.1019-1.27753,0.16354-1.91171c0.72656-7.62971,1.0751-15.48723,1.00003-23.48212
	c0.38071-30.90463-5.77765-64.24184-24.50204-95.81271c-0.04828-0.12935-0.02145-0.2713-0.12601-0.38348
	c-0.08044-0.08701-0.16623-0.17172-0.24936-0.25986c-0.58444-0.97876-1.13943-1.96095-1.71854-2.94084
	c0.40485-3.20071,0.52817-6.28122,0.38876-9.25869c1.00806-22.64989-12.54193-39.33566-34.43802-58.02474
	c-2.77222-1.97353-5.5444-3.98141-8.32733-5.99387c-30.31723-21.93786-61.6774-44.56599-107.18546-35.37829
	C241.18138,15.12331,225.01201,8.1564,208.40831,7.43636c-17.4536-0.78987-34.18332,5.59321-48.22127,11.90762
	c-24.40822,10.9758-47.4223,24.53185-69.67496,37.64144c-20.07566,11.82062-37.29869,22.98415-44.7359,39.88514
	c-3.12878,7.11916-4.11004,14.4604-3.81245,22.07065c-0.25738,6.75628,0.66758,13.72777,2.27084,20.96254
	c-1.99738,5.71799-7.10477,11.45316-12.09419,17.02003c-5.1476,5.74203-10.47216,11.67868-12.48294,17.73207
	c-1.00539,3.0267-1.244,6.82268-1.01075,10.82584c-0.49867,8.15057,1.81775,18.3262,5.23876,25.37782
	c-3.6489,2.99693-7.03238,6.25029-9.7724,9.91576c-4.91167,6.57426-7.0994,13.94641-6.50153,20.66833
	c-0.53889,5.43639,0.62468,10.67587,3.57383,15.01102c1.27618,1.88196,2.89017,3.64029,4.44517,5.33908
	c2.67836,2.9191,5.11543,5.72372,5.94387,8.93588c-0.44773,1.78922-1.23596,3.57617-2.09926,5.42606
	c-0.43969,0.95016-0.88474,1.9003-1.27618,2.85272c-1.73732,4.24011-2.34323,8.78476-1.99201,13.29276
	c-0.64881,8.25131,2.17701,16.7453,7.87959,23.41113c-4.30576,2.62262-7.77771,6.42432-9.76972,11.03647
	c-1.53892,3.57159-1.97325,7.25882-1.54428,10.78806c-0.50672,4.27106,0.23593,8.49286,2.43439,12.12054
	c1.46385,2.42227,3.46927,4.72778,5.40499,6.95776c1.76681,2.03763,3.46659,4.02719,4.75081,6.03851
	c-0.08847,0.24155-0.14209,0.50024-0.03217,0.75668c0.5657,1.28781,1.11531,2.39709,1.66225,3.4491
	c-0.87938,2.47952-2.85263,4.63391-4.99747,6.88562c-2.63815,2.77258-5.36745,5.63901-5.93047,9.3251
	c-0.20376,1.33017-0.04022,2.60541,0.25202,3.86121c-0.07239,0.28046-0.20644,0.5369-0.25202,0.82764
	c-0.55766,3.61969,1.14212,6.92114,2.78292,10.11496c0.98394,1.91858,1.92767,3.75934,2.39953,5.62756
	c-0.86598,3.46857-3.54434,6.59143-6.3782,9.85165c-2.31642,2.66498-4.71327,5.41922-6.17712,8.50085
	c-1.59254,3.35526-1.93571,6.73911-1.53356,9.99475c-1.35393,10.52249,7.02434,20.50693,11.17459,24.72531
	c2.40758,2.44519,5.035,4.80563,7.57663,7.09055c5.78569,5.19943,11.76442,10.57742,15.24978,17.06812
	c1.25741,2.33643,1.92767,4.94644,2.21991,7.57135c-0.22789,1.96323-0.63541,3.87723-1.4424,5.5932
	c-1.7534,3.73187-4.73472,6.39682-8.61152,7.711c-0.45578,0.15338-0.78286,0.50369-0.85257,0.91809
	c-0.07507,0.41437,0.11797,0.82877,0.50404,1.08978c0.92496,0.62732,1.98665,1.08865,3.11269,1.4252
	c-0.86061,0.50024-1.78021,0.9238-2.76416,1.2558c-0.45578,0.15338-0.78286,0.50366-0.85257,0.91806
	c-0.07507,0.4144,0.11797,0.8288,0.50404,1.08981c1.94644,1.32101,4.43981,2.01016,7.06723,2.01016
	c1.26545,0,2.56844-0.16028,3.85534-0.48767c3.27087-0.8345,5.8554-2.64319,7.32729-4.92926
	c1.23328,2.11435,1.84456,4.4462,2.06977,6.80206c-0.18499,2.21396-0.58447,4.33517-1.00539,6.18851
	c-0.22521,0.97986-0.46114,1.95978-0.69439,2.94885c-1.17162,4.8468-2.34859,9.81958-1.88209,14.73285
	c-0.2547,2.97058-0.11529,5.94232,0.81772,8.87177c0.87938,2.76111,2.40758,5.29785,3.88751,7.7522
	c0.91156,1.51563,1.86065,3.08618,2.6167,4.66138c0.89011,1.84302,1.46385,3.79138,1.89282,5.76721
	c-0.47187,1.6839-0.57375,3.38727-0.11797,5.10669c-0.48259,1.95294-0.51476,6.40674,0.36998,8.40546
	c0.19839,0.46246,0.71316,3.23468,1.28154,3.23468c0.0429,0,0.0858,0,0.12869,0c0.61664,0,1.11531-2.92102,1.22255-3.44299
	c0.50404-2.46808,0.64882-6.24323,0.45042-8.76166c0.46114-1.10815,1.02952-2.85834,1.61399-4.00311
	c0.89547-1.78119,1.82847-3.93616,2.39685-5.80896c0.78555-2.58252,0.82845-5.3382,0.52817-7.92871
	c0.45578-4.36609-0.63809-8.82666-1.79362-13.09198c-0.47723-1.78125-0.95982-3.59656-1.31908-5.36865
	c-0.13137-0.6571-0.2118-1.35071-0.28687-2.02496c0.52012-4.6499,2.68372-8.87909,7.23077-10.57562
	c0.83113-0.30908,1.70515-0.52911,2.58185-0.74664c1.46117-0.36633,2.97328-0.74652,4.3567-1.50891
	c3.36203-1.85675,4.56582-5.05179,4.84733-8.40817c0.59251,1.22601,1.06169,2.48691,1.48262,3.76215
	c0.00268,0.14767-0.0563,0.28131-0.0295,0.43356c0.0563,0.29761,0.27615,0.56079,0.41288,0.84583
	c0.13673,0.45905,0.29491,0.91339,0.41557,1.37592c-0.69707,0.65704-1.00003,1.52588-0.82845,2.46686
	c0.2252,1.22717,1.20647,2.41083,2.5041,3.01752c1.19306,0.55634,2.45316,0.72119,3.68107,0.86084
	c0.79627,0.34802,1.53356,0.55865,2.22259,0.3938c0,0,0.02413-0.01489,0.03486-0.01831
	c4.81247,1.06232,7.86349,5.16394,8.75361,9.4212c-0.87135,5.34827-4.21192,10.31647-7.63562,15.23657
	c-3.98403,5.73285-7.57127,11.39703-7.69996,17.66107c-0.01876,0.8952,0.04826,1.78693,0.17963,2.66956
	c-0.09383,0.66852-0.16354,1.33936-0.17963,2.01929c-0.14478,6.85474,4.21461,13.56293,11.10489,17.08417
	c3.53898,1.80872,7.63561,2.71991,11.73225,2.71991c3.86607,0,7.73213-0.81049,11.1317-2.44061
	c0.53621-0.25183,0.80431-0.78296,0.66489-1.29126c-0.13673-0.50824-0.65954-0.87457-1.27081-0.90204
	c-1.52015-0.06183-2.82046-0.42242-4.01352-0.87689c1.5979-0.39838,3.15826-0.91693,4.61944-1.61865
	c0.53621-0.25183,0.80431-0.78302,0.66489-1.29126c-0.13673-0.5083-0.65954-0.87457-1.27081-0.90204
	c-4.16634-0.16943-7.0994-2.21625-8.81796-3.90131c-2.2494-2.19562-3.71056-5.07922-4.24409-8.01776
	c1.00272-5.79358,5.10471-11.68787,12.59019-17.97705c1.09386-0.92041,2.21454-1.82703,3.34058-2.73364
	c4.42908-3.58081,9.01366-7.28058,11.9521-12.00153c2.09657-3.36554,3.09123-7.54156,2.47459-11.41766
	c0.72121-4.62933-0.47186-9.44409-4.67842-12.62421c-2.72929-2.06284-6.31117-3.16638-9.77509-4.23099
	c-4.45857-1.37369-8.60883-2.7222-10.11558-5.88971c1.10727-2.56192,3.68912-4.97162,6.39429-6.7139
	c0.85257-0.54721,1.73195-1.08066,2.6167-1.61639c4.01084-2.42914,8.15842-4.94299,10.04318-8.96332
	c1.12872-2.40512,1.21719-4.84,0.79895-7.27026c0.77483-4.09134-0.82843-8.23187-2.42366-12.26135
	c-0.94373-2.38565-1.83651-4.81479-2.26816-7.21417c3.30841-5.73975,5.82054-8.44363,6.88492-9.15567
	c0.26274,0.16486,0.60056,0.24042,0.933,0.22668c21.69501-1.51337,36.78929-18.64331,41.63126-33.91647
	c3.03226-9.56546,4.42908-21.46393,4.16634-33.88782c0.11261-8.21811-0.48526-16.7579-1.90353-25.11911
	c-0.00536-0.03204-0.04289-0.04578-0.05093-0.07553c-0.03218-0.13394-0.14211-0.22211-0.22253-0.33313
	c-0.10188-0.1431-0.19035-0.29306-0.36462-0.38922c-0.0295-0.01602-0.0295-0.04922-0.05898-0.06296
	c-7.53374-3.53497-14.84763-9.88141-21.92023-16.01953c-3.18507-2.76343-6.4774-5.61841-9.75363-8.18719
	c-19.17215-15.03506-30.395-36.86874-30.80251-59.06534c45.98795-41.01498,95.81422-51.80492,135.92606-110.33105
	c3.53362-3.44911,6.8876-8.20667,10.13165-12.83029c6.52029-9.29759,13.20148-18.93634,21.45374-18.15334
	c12.42395,1.16077,27.75415,25.50717,46.85928,74.42662c5.19049,13.29504,3.2576,4.45552,6.22284,18.14894
	c1.00272,4.64766,0.01077,1.29074,1.09393,5.89948C339.31027,235.58258,340.36392,244.10062,340.49799,252.23058
	 M377.38379,533.46185c-0.75339-0.94556-1.23059-1.97351-1.59521-3.02899c0.15817,0.05267,0.28955,0.17169,0.45844,0.17169
	c0.30029,0,0.60056-0.0824,0.85257-0.25641c0.56302-0.38007,0.68637-1.06689,0.28421-1.57513
	c-1.10727-1.38971-1.75876-2.92139-2.06174-4.52521c0.53085-3.43994,2.06976-6.89819,3.71326-9.76581
	c0.5094-0.88599,1.03488-1.77661,1.56573-2.66953c3.35129-5.6413,6.82056-11.47488,6.02161-17.85797
	c-0.01608-0.13968-0.06702-0.27246-0.08847-0.41211c0.20914-1.40118,0.27078-2.82294,0.08847-4.27676
	c-0.25735-2.0285-0.93567-3.96997-1.60324-5.84506c-0.55499-1.57288-1.01077-3.08051-1.29764-4.60074
	c0.54425-2.79544,1.87137-5.51306,3.38617-8.01089c0.0697,0.29993,0.07507,0.59296,0.16354,0.89633
	c0.97589,3.35867,3.20651,6.28922,5.36743,9.12131c2.2226,2.92368,4.25751,5.72372,4.96799,8.82138
	c-0.50403,2.29178-1.54965,4.58014-2.68909,6.95547c-1.93839,4.03635-3.93311,8.20895-2.89017,12.62881
	c-0.27347,1.54309-0.38071,3.10339,0,4.7049c0.80432,3.38611,3.23334,6.10376,5.58728,8.72754
	c1.86603,2.08337,3.63016,4.05695,4.62213,6.31897c0.21179,0.47961,0.32172,0.99133,0.44772,1.49731
	c-0.22787,0.95929-0.54156,1.91516-1.03757,2.83893c-1.59253,2.96722-4.37009,5.25671-7.61951,6.27777
	c-3.24942,1.01654-7.10477,0.81049-10.56332-0.56775c-2.547-1.01654-4.64624-2.58484-6.0538-4.44849
	C377.60632,534.21967,377.6626,533.81445,377.38379,533.46185z M128.23973,448.70624
	c1.97057-2.66269,4.12344-4.88464,5.86612-4.88464c0,0,0.01341,0.00116,0.01877,0.00116
	c-1.75876,0.00229-3.91969,2.23224-5.89561,4.90063C128.23169,448.71768,128.23705,448.7131,128.23973,448.70624z
	 M319.13007,334.49634c0,0,0,0.00229,0,0.00345c0-0.00116,0-0.00229,0-0.00229c0.19034-0.28162,0.23056-0.60101,0.14209-0.89063
	C319.36063,333.89648,319.3204,334.21588,319.13007,334.49634z"/>
</svg>
