<?xml version="1.0" encoding="utf-8"?>
<!-- Generator: Adobe Illustrator 19.0.0, SVG Export Plug-In . SVG Version: 6.00 Build 0)  -->
<svg version="1.1" id="Layer_1" xmlns="http://www.w3.org/2000/svg" xmlns:xlink="http://www.w3.org/1999/xlink" x="0px" y="0px"
	 viewBox="-240 2 478.5 558" style="enable-background:new -240 2 478.5 558;" xml:space="preserve">
<style type="text/css">
	.st0{fill:#FFFFFF;}
	.st1{fill:#EF7B05;}
</style>
<g id="XMLID_427_">
	<g id="XMLID_1240_">
		<path id="XMLID_459_" class="st0" d="M201,260c0,0-0.3,0.4-0.9,1.2c-0.6,0.7-1.4,1.9-2.5,3.2c-1.1,1.4-2.4,3-4,4.9
			c-1.6,1.8-3.5,3.9-5.6,6c-2.2,2.1-4.6,4.3-7.5,6.4c-2.8,2-6.1,4-9.8,5.3c-1.8,0.6-3.8,1.1-5.8,1.3c-2.1,0.2-4.1,0.2-6.1,0
			c-4.1-0.3-8.1-1.2-12-2.5c-1-0.3-1.9-0.7-2.9-1.1l-1.4-0.6l-1.4-0.7c-1.9-0.9-3.7-2-5.3-3.3c-1.6-1.3-3.1-2.7-4.4-4.3
			c-1.3-1.5-2.4-3.1-3.5-4.6s-2.1-3-3.2-4.4s-2.2-2.8-3.2-4.2c-2.1-2.7-4.2-5.1-6.2-7.4c-3.9-4.5-7.3-8.1-9.8-10.7
			c-1.2-1.2-2.2-2.2-2.9-2.9c-0.7-0.7-1-1-1-1s0.4,0.3,1.2,0.9c0.8,0.6,1.8,1.4,3.2,2.5c2.7,2.2,6.5,5.6,10.7,9.9
			c2.1,2.1,4.3,4.5,6.6,7.1c2.3,2.6,4.6,5.5,6.8,8.5c2.2,3,4.5,5.9,7.5,8.2c1.5,1.1,3.1,2.1,4.8,3l1.3,0.6l1.4,0.6
			c0.8,0.3,1.8,0.7,2.7,1c3.7,1.2,7.5,2.1,11.3,2.4c1.9,0.2,3.8,0.2,5.6,0.1c1.8-0.1,3.6-0.5,5.3-1.1c3.4-1.1,6.6-2.8,9.4-4.6
			c2.8-1.9,5.3-3.9,7.6-5.8c4.5-3.9,8-7.5,10.4-10C199.7,261.5,201,260,201,260z"/>
	</g>
	<g id="XMLID_1149_">
		<g id="XMLID_1236_">
			<path id="XMLID_1239_" class="st1" d="M183.8,295.4c-0.1-0.1-0.1-0.1-0.2-0.2c-4.9-2.9-9.2-3-9.2-3c-8,33.8-37.2,58.9-72,74.9
				c-11,6-23,10.7-35.3,14.2c-0.2,0.1-0.5,0.1-0.7,0.2h-0.1c0.2,1.5,0.5,3,0.7,4.5v0.1c0,0,0,0,0,0.1s0,0.2,0,0.2
				c0.3,1.9,0.7,3.7,1.2,5.4c3,12.2,7.2,21.5,13.2,25.6l0,0c0,0,0.1,0,0.1,0.1c0.9,0.6,1.8,1.1,2.7,1.4c4.8,2.2,15.1,6,27.8,4.3
				c0.1,0,0.2,0,0.3-0.1c45.7-2.9,70.2-29.5,83.9-49c14.5-20.5,8.3-41.8,5.2-56.9C199.2,306.8,192.5,300,183.8,295.4z"/>
			<path id="XMLID_1238_" class="st1" d="M191.9,180.9c-12.4-14.8-6.2-35.5-8.2-53.7c-2.1-18.2-50.7-66.8-78.6-86.7
				S16.2,23.2-14.8,23.2s-48.6,12.2-62,20.8c-13.5,8.6-16.5,6.1-33.1,8.6c-16.5,2.6-26.9,8.7-56.8,53.8
				c-30,45.1-12.4,68.5-9.7,106.6c2.7,38.2-7.6,72.2-7.6,88.8c0,61,48.5,111.6,41.1,173c-4.9,40.5-24.8,71.9-24.8,71.9
				s22.7-27.7,32-53.7s6.2-72.8-9.3-110.1c-13-31.2-10.7-67.2-4.2-97.4c0.3-1.6,0.7-3.2,1.1-4.8c1-4.2,2-8.3,3.2-12.2
				c0.3-1.2,0.7-2.4,1.1-3.6c0.9-3,1.8-6,2.9-9.3c0.5-0.5,0.9-1.1,1.2-1.9c0.4-1.3,0.6-2.5,0.7-3.5c0.5-1.4,0.9-2.7,1.4-4.1
				c-1.1,7.8-1.4,15.9-0.8,23.9c0,0.4,0,0.8,0.1,1.3c0.3,2.7,0.4,5.1,1,8.1l1,5.4l0.4,2c0.4,1.4,0.7,2.7,1.1,4.1
				c1,3.9,2.1,7.7,3.4,11.2c3.2,9.8,7.6,18.9,11.5,27.5c3.7,8.6,7.6,16.8,10.5,24.6c2.7,7.8,5.1,15.3,6.3,22.3
				c0.7,3.5,1.1,7,1.4,10.2c0.5,3.3,0.6,6.4,0.6,9.4c0.3,5.9-0.3,11.1-0.5,15.4c-1.1,8.6-1.7,13.5-1.7,13.5s0.6-1.1,1.6-3.3
				c1-2.2,2.8-5.3,4.4-9.5c1.4-4.2,3.6-9.4,4.6-15.5c1.4-6.1,2.4-13.2,2.2-20.9c0.2-10.8-2-22.7-5.6-35c-1.3-4.4-2.7-8.8-4.3-13.2
				c-0.4-1.1-0.8-2.2-1.2-3.2c-2.7-7.1-5.1-14.3-7.5-21.5c-0.6-1.8-1.2-3.7-1.8-5.5c-1.6-4.6-2.5-8.9-3.6-13.3l-1.3-7.3
				c-0.4-1.9-0.4-4.5-0.6-6.7c-0.6-5.7-0.7-11.5-0.3-17.2c0.2-3.5,0.6-6.9,1.1-10.3c1.3-9.1,3.3-18.2,5.9-26.9
				c5.2-17.4,11.9-33.7,17.4-47.8c2.5-6.3,4.8-12.2,6.8-17.5c0.7,6,3.1,13.7,9.9,19.6c38.4,33.4,71.2,37.6,98.7,39.8
				c0.3,0,0.6,0,0.8,0.1c0.3,0,0.6,0,0.8,0.1c12,0.9,23,1.6,32.9,4.3c56,15,65.4,67.5,99,71c2.5,0.3,5.1,0.3,7.9,0
				c5.5-0.6,10.7-2.8,15.5-5.9c13.7-8.9,23.9-26,27.8-39.6c0.7-2.4,1.2-4.7,1.5-6.8c0.2-1.4,0.3-2.8,0.3-4
				C209.5,211.3,204.3,195.6,191.9,180.9z"/>
			<path id="XMLID_1237_" class="st1" d="M179.6,291.5h0.2l0,0C179.7,291.4,179.7,291.5,179.6,291.5z"/>
		</g>
		<g id="XMLID_1164_">
			<path id="XMLID_457_" class="st0" d="M-147.1,264.5c0,0,0,4.1-0.4,10.3c-0.1,1.5-0.2,3.2-0.3,5c-0.1,1.8-0.3,3.6-0.5,5.5
				s-0.3,3.9-0.6,5.9c-0.2,2-0.4,4-0.7,6.1c-0.3,2-0.5,4.1-0.8,6.1c-0.2,2-0.6,4-0.8,5.9c-0.2,1.9-0.5,3.7-0.6,5.4
				c-0.1,1.7-0.2,3.4-0.2,4.9s0.1,2.9,0.2,4.1c0.1,0.6,0.2,1.2,0.2,1.7c0.1,0.5,0.2,1,0.3,1.4c0.2,0.9,0.4,1.5,0.6,2
				c0.1,0.5,0.2,0.7,0.2,0.7s-0.1-0.2-0.4-0.6s-0.6-1-1-1.9c-0.2-0.4-0.4-0.9-0.6-1.4c-0.2-0.5-0.4-1.1-0.5-1.7
				c-0.3-1.2-0.6-2.7-0.8-4.2c-0.4-3.1-0.3-6.8,0-10.7c0.2-1.9,0.3-3.9,0.6-5.9c0.2-2,0.4-4,0.7-6.1c0.3-2,0.5-4.1,0.8-6.1
				c0.2-2,0.6-4,0.8-5.9c0.3-1.9,0.6-3.7,0.9-5.5c0.3-1.7,0.6-3.4,0.8-4.9C-148,268.5-147.1,264.5-147.1,264.5z"/>
		</g>
		<g id="XMLID_1155_">
			<path id="XMLID_455_" class="st0" d="M-67.8,34.6c0,0-0.9,0.9-2.5,2.4c-0.4,0.4-0.9,0.8-1.3,1.2c-0.5,0.5-0.9,1-1.5,1.5
				c-0.5,0.5-1.1,1.1-1.7,1.7c-0.5,0.6-1.1,1.3-1.7,2c-0.6,0.7-1.2,1.4-1.8,2.2s-1.2,1.6-1.8,2.5c-0.3,0.4-0.6,0.8-0.9,1.3
				c-0.3,0.5-0.6,0.9-0.9,1.4c-0.6,0.9-1.2,1.9-1.8,2.9c-1.1,2-2.3,4.1-3.3,6.3c-1.1,2.1-2,4.5-2.9,6.7c-0.8,2.3-1.7,4.6-2.2,7
				c-0.7,2.3-1.1,4.7-1.6,6.9c-0.2,1.1-0.3,2.3-0.5,3.4c-0.1,0.5-0.2,1.1-0.2,1.6c-0.1,0.5-0.1,1.1-0.1,1.6
				c-0.1,1.1-0.2,2.1-0.2,3.1c-0.1,1,0,2-0.1,2.9c0,0.9,0,1.8,0,2.7c0,0.8,0.1,1.6,0.1,2.4s0.1,1.5,0.1,2.1c0,0.7,0.1,1.3,0.2,1.8
				c0.2,2.2,0.4,3.4,0.4,3.4s-0.4-1.2-1-3.3c-0.1-0.5-0.3-1.1-0.5-1.8c-0.1-0.7-0.2-1.4-0.4-2.1c-0.1-0.8-0.3-1.6-0.4-2.4
				c-0.1-0.9-0.2-1.8-0.3-2.7c-0.1-0.9-0.2-1.9-0.2-3c0-1,0-2.1,0-3.2c0-0.5,0-1.1,0-1.7s0.1-1.1,0.1-1.7c0.1-1.1,0.2-2.3,0.3-3.5
				c0.4-2.4,0.7-4.8,1.4-7.2c0.5-2.5,1.4-4.9,2.2-7.3c1-2.3,1.9-4.7,3.1-7c1.1-2.3,2.5-4.3,3.7-6.4c0.7-1,1.4-1.9,2-2.9
				c0.3-0.5,0.7-0.9,1-1.4c0.3-0.4,0.7-0.9,1.1-1.3c0.7-0.8,1.4-1.6,2.1-2.4c0.7-0.8,1.4-1.4,2.1-2.1c0.7-0.7,1.3-1.3,2-1.9
				c0.7-0.5,1.3-1.1,1.9-1.6c0.6-0.5,1.2-0.9,1.7-1.4c0.5-0.4,1-0.7,1.5-1C-68.9,35.3-67.8,34.6-67.8,34.6z"/>
		</g>
	</g>
</g>
</svg>
