<?xml version="1.0" encoding="utf-8"?>
<!-- Generator: Adobe Illustrator 19.0.0, SVG Export Plug-In . SVG Version: 6.00 Build 0)  -->
<svg version="1.1" id="Layer_1" xmlns="http://www.w3.org/2000/svg" xmlns:xlink="http://www.w3.org/1999/xlink" x="0px" y="0px"
	 viewBox="-244 -68.5 471 697.5" enable-background="new -244 -68.5 471 697.5" xml:space="preserve">
<g id="XMLID_605_">
	<path id="XMLID_950_" fill="#EF7B05" d="M-208.6,85.8c-9.1,94,22.1,118.1,22.1,119.2c0,0.6,0.5,1.1,1.2,1.2s1.4-0.4,1.5-1
		c0.2-1.2,0.3-2.4,0.3-3.6c1.9-22.8,8.5-45.1,19.6-66.3c0-0.1,0.1-0.2,0.1-0.3c2.5-14.9,12.1-28,26.8-37.5c0.1-0.1,0.2-0.1,0.3-0.2
		c4.1-2.6,8.7-5,13.6-7c25.8-10.6,56-19.1,80.8-7.7c0.2,0.1,0.4-0.9,0.7-0.9c3.1,0,6,3.8,8.9,2.6c2.6-1.1,5,2.9,7.4,2.8
		c18.2,7.6,42.4,20.7,54.3,40.5c4.1,6.2,9.9,15.9,15.4,27.8c1.6,6.3,3.3,12.6,5.4,18.8c1.9,5.5,4,10.9,6.4,16.3
		c7.6,36.3,1.5,79.6-50.3,111.3l0,0l0,0c-0.8-0.2-1.5,0.2-1.7,0.8c-0.4,1.2-0.6,2.5-0.8,3.8C-8.8,332-9.4,362.2,2.2,386.3
		c9.3,19.4,26,34.2,48.6,43.1l-2.6,0.3c-55.3,11-45.1,54.4-37,89.4l1.3,5.4c1.1,4.6-1.3,8.1-3.4,10.2c-4,4-11,6.7-17.3,6.7
		c-5.3,0-9.8,0-11.8-11.8c-0.1-0.6-0.6-1.1-1.5-1c-0.7,0-1.3,0.6-1.3,1.2c0.2,9.6,7.1,18.1,18,22c7.7,2.8,16,2.8,23.3,0.3
		c-2.8,3.6-4.5,7.9-5.1,12.5c-1,8.3,2.1,16.9,8.3,22.9c0,0,0,0,0.1,0c0,0,0,0,0,0.1c7.8,6.2,15.7,9.3,23.6,9.3c4.4,0,8.8-1,13.1-3
		c0.4-0.2,0.7-0.6,0.7-1L59,589.5c0-0.4-0.3-0.7-0.7-0.9c-0.4-0.2-0.9-0.2-1.3,0c-2.5,1-5.4,1-8.3,0c-3.6-1.2-6.6-3.7-7.9-6.6
		c-2.2-4.9-0.8-11.1,3.7-16.7c3.2-4,7.5-7.4,11.7-10.7c1.2-0.9,2.3-1.8,3.5-2.8c0.7-0.6,1.6-1.2,2.6-1.9
		c7.1-4.9,20.2-14.1,18.4-35.9l0,0c0.1-1.1-0.2-2.9-0.7-5.2c7.5,13.3,8.8,29.2,2.4,42.8c-1.6,3.5-3.7,6.9-5.8,10.2
		c-4.2,6.9-8.6,14.1-9,22c-0.4,7.8,3.5,15.3,10.2,19.5c3.9,2.4,8.6,3.7,13.3,3.7c4.4,0,8.7-1.1,12-3.3c3.7-2.4,6-6.3,6.3-10.5
		c0.2-2.6-0.6-5-1.9-7.1c4.3-1.5,7-5.3,7.8-8.8c0.8-3.3,0.4-6.7-0.1-9.9c-0.1-1-0.3-2-0.4-3c-1.1-11.4,0.6-19.8,5.4-27.2
		c-0.1,1.4-0.2,2.7-0.2,4.1c0.6,11,9.9,21.4,22.5,25.1c3.5,1,7.3,1.5,11,1.5c9.6,0,19.1-3.3,25.6-9.2c0.4-0.3,0.4-0.8,0.2-1.2
		c-0.2-0.4-0.7-0.7-1.2-0.7c-1.3-0.1-3-0.5-4.7-1.1c-0.1,0-0.1-0.1-0.2-0.1c-0.9-0.3-1.7-0.6-2.6-1c-2.4-1.2-4.8-2.8-6.7-4.8
		c-2-2.2-4.2-5.7-3-10.1v-0.1v-0.1c1.1-22.1,11.1-44,20.7-65.2c5-11.1,10.2-22.5,14-33.7c13-38.3,6.9-60.9-18.8-68.9
		c15.3-12.3,18.9-24.8,20-41.9c0.8-12.5-8.8-22.7-18.1-32.5c-7.7-8.2-15-15.9-15-24.1c-1.5-16.1-1.8-32.6-2-48.5
		c-0.7-42.6-1.5-86.6-25.7-130C110,51.7,76.9,3.7,13.8-20c-31.9-11.3-67.5-13.3-100.9-6.1c-0.2,0-0.4-0.1-0.5,0
		c-0.6,0.2-1.2,0.4-1.8,0.6c-0.5,0.1-0.9,0.2-1.4,0.3s-1,0.1-1.5,0.1c-0.3,0-0.6,0.2-0.8,0.4c-5.3,1.3-10.6,2.9-15.8,4.7
		C-148.4-1.1-159.7,5.1-182,37.4l-1.8,2.5c-4.6,6.6-11.7,16.8-17.4,27.7c0,0.1-0.1,0.2-0.1,0.2l0,0
		C-204.4,73.8-207.9,82.6-208.6,85.8 M-152.7,87.2c0.4-0.3,0.7-0.5,1.1-0.8C-152,86.7-152.4,87-152.7,87.2z M-150,104.7
		c-0.4,0.4-0.8,0.8-1.2,1.2C-150.8,105.5-150.4,105.1-150,104.7z M158.4,539.4C158.4,539.4,158.4,539.5,158.4,539.4
		C158.4,539.5,158.4,539.4,158.4,539.4c0.1-1.4,0.2-2.8,0.3-4.2C158.6,536.6,158.5,538,158.4,539.4z M-125.5,40
		c-0.3,0.3-0.6,0.6-0.8,0.9C-126.1,40.6-125.8,40.3-125.5,40z M-127,41.6c-0.3,0.3-0.5,0.6-0.8,0.9C-127.5,42.2-127.2,41.9-127,41.6
		z M-128.4,43.3c-0.2,0.3-0.5,0.6-0.7,0.9C-128.9,43.9-128.6,43.6-128.4,43.3z M-129.7,44.9c-0.2,0.3-0.5,0.6-0.7,0.9
		C-130.2,45.6-130,45.3-129.7,44.9z M-124,38.5c-0.3,0.3-0.6,0.6-0.9,0.9C-124.6,39.1-124.3,38.8-124,38.5z M-122.4,37
		c-0.3,0.3-0.7,0.6-1,0.9C-123,37.6-122.7,37.3-122.4,37z M-120.3,35.2c-0.5,0.4-1.1,0.9-1.6,1.3C-121.3,36.1-120.8,35.6-120.3,35.2
		z M-173.1,104.5c-0.4,0.4-0.8,0.9-1.2,1.3C-173.9,105.4-173.5,104.9-173.1,104.5z M-175.7,107.3c-0.4,0.4-0.8,0.9-1.2,1.3
		C-176.6,108.2-176.2,107.7-175.7,107.3z M-178.3,110.1c-0.4,0.5-0.8,0.9-1.2,1.4C-179,111.1-178.7,110.6-178.3,110.1z M-180.7,113
		c-0.4,0.5-0.7,0.9-1.1,1.4C-181.4,114-181.1,113.5-180.7,113z M-183,116c-0.4,0.5-0.7,0.9-1.1,1.4
		C-183.7,116.9-183.3,116.5-183,116z M-185.2,119c-0.3,0.5-0.7,1-1,1.5C-185.8,119.9-185.5,119.4-185.2,119z M-187.2,122
		c-0.3,0.5-0.6,1-0.9,1.5C-187.9,123-187.5,122.5-187.2,122z M-189.2,125c-0.3,0.5-0.6,1-0.9,1.5C-189.8,126-189.5,125.5-189.2,125z
		 M-191,128.1c-0.3,0.5-0.6,1-0.8,1.5C-191.6,129.1-191.3,128.6-191,128.1z M-192.7,131.3c-0.3,0.5-0.5,1-0.8,1.5
		C-193.2,132.3-193,131.8-192.7,131.3z M-194.3,134.4c-0.2,0.5-0.5,1-0.7,1.5C-194.8,135.5-194.5,134.9-194.3,134.4z M-195.8,137.6
		c-0.2,0.5-0.4,1-0.7,1.6C-196.2,138.7-196,138.1-195.8,137.6z M-197.1,140.8c-0.2,0.5-0.4,1-0.6,1.6
		C-197.5,141.9-197.3,141.4-197.1,140.8z M-198.3,144.1c-0.2,0.5-0.4,1.1-0.5,1.6C-198.7,145.1-198.5,144.6-198.3,144.1z
		 M-170.4,101.7c-0.4,0.4-0.9,0.9-1.3,1.3C-171.2,102.6-170.8,102.2-170.4,101.7z M-155,88.8c-0.4,0.3-0.9,0.7-1.3,1
		C-155.9,89.5-155.5,89.2-155,88.8z M-158.3,91.3c-0.5,0.4-0.9,0.7-1.4,1.1C-159.2,92-158.8,91.7-158.3,91.3z M-161.5,93.8
		c-0.5,0.4-0.9,0.8-1.4,1.1C-162.4,94.6-161.9,94.2-161.5,93.8z M-167.5,99c-0.4,0.4-0.9,0.8-1.3,1.2C-168.4,99.9-168,99.5-167.5,99
		z M-142.8,98.7c-0.5,0.3-0.9,0.7-1.4,1C-143.8,99.4-143.3,99-142.8,98.7z M-145.3,100.6c-0.4,0.4-0.9,0.7-1.3,1.1
		C-146.2,101.3-145.8,101-145.3,100.6z M-142.9,80.6c0,0.4,0,0.8,0,1.2C-142.9,81.4-142.9,81-142.9,80.6z M-140,64
		c-0.1,0.4-0.2,0.7-0.4,1.1C-140.3,64.8-140.2,64.4-140,64z M-140.7,66.1c-0.1,0.4-0.2,0.7-0.3,1.1
		C-140.9,66.8-140.8,66.5-140.7,66.1z M-141.3,68.2c-0.1,0.4-0.2,0.7-0.3,1.1C-141.4,68.9-141.4,68.5-141.3,68.2z M-142.2,72.3
		c-0.1,0.4-0.1,0.7-0.2,1.1C-142.3,73-142.2,72.7-142.2,72.3z M-142.5,74.4c0,0.4-0.1,0.8-0.1,1.1
		C-142.6,75.1-142.5,74.8-142.5,74.4z M-142.7,76.4c0,0.4-0.1,0.8-0.1,1.1C-142.8,77.2-142.7,76.8-142.7,76.4z M-142.8,78.5
		c0,0.4,0,0.8,0,1.2C-142.9,79.3-142.9,78.9-142.8,78.5z M-131,46.7c-0.2,0.3-0.5,0.6-0.7,0.9C-131.5,47.3-131.3,47-131,46.7z
		 M-132.3,48.5c-0.2,0.3-0.4,0.6-0.6,1C-132.7,49.1-132.5,48.8-132.3,48.5z M-133.5,50.3c-0.2,0.3-0.4,0.7-0.6,1
		C-133.9,51-133.7,50.6-133.5,50.3z M-134.6,52.2c-0.2,0.3-0.4,0.7-0.6,1C-135,52.8-134.8,52.5-134.6,52.2z M-136.7,56
		c-0.2,0.3-0.3,0.7-0.5,1C-137,56.7-136.9,56.4-136.7,56z M-137.6,58c-0.2,0.4-0.3,0.7-0.5,1.1C-137.9,58.7-137.8,58.3-137.6,58z
		 M-138.5,60c-0.1,0.4-0.3,0.7-0.4,1.1C-138.8,60.7-138.6,60.3-138.5,60z M-139.3,62c-0.1,0.4-0.3,0.7-0.4,1.1
		C-139.6,62.7-139.4,62.4-139.3,62z M158.9,534c0.1-1,0.2-2,0.4-3C159.1,532,159,533,158.9,534z M-184.5,187.5
		c0-0.2,0.1-0.3,0.1-0.5 M-184.2,185.6c0.1-0.7,0.3-1.5,0.4-2.2C-183.9,184.2-184,184.9-184.2,185.6z M-168.3,138.2
		c0.5-1.1,1.1-2.1,1.6-3.2c0.1-0.2,0.2-0.5,0.3-0.8c0.1-0.5,0.2-1,0.3-1.5c-0.1,0.6-0.3,1.3-0.4,1.9
		C-167.1,135.8-167.7,137-168.3,138.2z M-183.5,181.9c0.1-0.7,0.3-1.4,0.5-2.2C-183.2,180.5-183.3,181.2-183.5,181.9z M-182.7,178.3
		c0.2-0.7,0.3-1.4,0.5-2.2C-182.3,176.9-182.5,177.6-182.7,178.3z M-181.8,174.7c0.2-0.8,0.4-1.5,0.6-2.3
		C-181.4,173.2-181.6,173.9-181.8,174.7z M-180.9,171.1c0.2-0.9,0.5-1.7,0.7-2.6C-180.4,169.4-180.7,170.2-180.9,171.1z
		 M-178.5,163.2c0.3-0.9,0.6-1.8,0.9-2.8C-178,161.4-178.3,162.3-178.5,163.2z M-177.2,159.2c0.3-0.8,0.5-1.5,0.8-2.3
		C-176.7,157.7-176.9,158.5-177.2,159.2z M-175.9,155.6c0.3-0.7,0.5-1.4,0.8-2.1C-175.3,154.1-175.6,154.9-175.9,155.6z M-174.5,152
		c0.3-0.7,0.6-1.4,0.8-2.1C-173.9,150.6-174.2,151.3-174.5,152z M-173.1,148.5c0.3-0.7,0.6-1.4,0.9-2.1
		C-172.5,147.1-172.8,147.8-173.1,148.5z M-171.6,145c0.3-0.8,0.7-1.5,1-2.3C-170.9,143.5-171.2,144.3-171.6,145z M-170,141.6
		c0.5-1,1-2,1.5-3.1C-169,139.5-169.5,140.6-170,141.6z M-164.1,125.8c0.3-0.7,0.5-1.4,0.8-2.1
		C-163.6,124.4-163.8,125.1-164.1,125.8z M-165.9,131.6c0.2-0.7,0.3-1.3,0.5-1.9C-165.5,130.3-165.7,131-165.9,131.6z M-165.2,128.9
		c0.3-0.9,0.6-1.8,0.9-2.7C-164.6,127.1-164.9,128-165.2,128.9z M-152.1,106.9c-0.4,0.4-0.7,0.8-1.1,1.2
		C-152.9,107.7-152.5,107.3-152.1,106.9z M-154.1,109.1c-0.4,0.4-0.7,0.8-1,1.2C-154.8,109.9-154.5,109.5-154.1,109.1z M-156,111.4
		c-0.3,0.4-0.6,0.9-1,1.3C-156.6,112.2-156.3,111.8-156,111.4z M-157.7,113.7c-0.3,0.4-0.6,0.9-0.9,1.3
		C-158.3,114.6-158,114.2-157.7,113.7z M-159.3,116.1c-0.3,0.5-0.6,0.9-0.8,1.4C-159.9,117-159.6,116.6-159.3,116.1z M-160.8,118.6
		c-0.3,0.5-0.5,1-0.8,1.5C-161.3,119.6-161,119.1-160.8,118.6z M-162.1,121.1c-0.3,0.5-0.5,1.1-0.8,1.6
		C-162.6,122.2-162.3,121.6-162.1,121.1z M-149,103.8c0.4-0.4,0.8-0.7,1.2-1.1C-148.1,103-148.6,103.4-149,103.8z M-142.8,82.6
		c0,0.4,0.1,0.9,0.1,1.3C-142.8,83.5-142.8,83-142.8,82.6z M-142.7,84.6c0.1,0.6,0.2,1.3,0.3,1.9C-142.5,85.9-142.6,85.2-142.7,84.6
		z M-142.4,86.6c0.1,0.7,0.2,1.3,0.4,2C-142.2,87.9-142.3,87.3-142.4,86.6z M-141.9,89.2c0.1,0.4,0.2,0.9,0.3,1.3
		C-141.7,90.1-141.8,89.6-141.9,89.2z M-141.3,91.2c0.1,0.4,0.2,0.8,0.4,1.2C-141.1,92-141.2,91.6-141.3,91.2z"/>
	<path id="XMLID_697_" fill="#EF7B05" d="M-208.6,86.8c-9.1,94,22.1,118.1,22.1,119.2c0,0.6,0.5,1.1,1.2,1.2s1.4-0.4,1.5-1
		c0.2-1.2,0.3-2.4,0.3-3.6c1.9-22.8,8.5-45.1,19.6-66.3c0-0.1,0.1-0.2,0.1-0.3c2.5-14.9,12.1-28,26.8-37.5c0.1-0.1,0.2-0.1,0.3-0.2
		c4.1-2.6,8.7-5,13.6-7c25.8-10.6,56-20.1,80.8-8.7c0.2,0.1,0.4,0.1,0.7,0.1c3.3,0.3,5.9,1.9,8.9,2.6c3.3,0.8,3.4,1.4,7.4,2.8
		c18.2,7.6,42.4,20.7,54.3,40.5c4.1,6.2,9.9,15.9,15.4,27.8c1.6,6.3,3.3,12.6,5.4,18.8c1.9,5.5,4,10.9,6.4,16.3
		c7.6,36.3,1.5,79.6-50.3,111.3l0,0l0,0c-0.8-0.2-1.5,0.2-1.7,0.8c-0.4,1.2-0.6,2.5-0.8,3.8C-8.8,333-9.4,363.2,2.2,387.3
		c9.3,19.4,26,34.2,48.6,43.1l-2.6,0.3c-55.3,11-45.1,54.4-37,89.4l1.3,5.4c1.1,4.6-1.3,8.1-3.4,10.2c-4,4-11,6.7-17.3,6.7
		c-5.3,0-9.8,0-11.8-11.8c-0.1-0.6-0.6-1.1-1.5-1c-0.7,0-1.3,0.6-1.3,1.2c0.2,9.6,7.1,18.1,18,22c7.7,2.8,16,2.8,23.3,0.3
		c-2.8,3.6-4.5,7.9-5.1,12.5c-1,8.3,2.1,16.9,8.3,22.9c0,0,0,0,0.1,0c0,0,0,0,0,0.1c7.8,6.2,15.7,9.3,23.6,9.3c4.4,0,8.8-1,13.1-3
		c0.4-0.2,0.7-0.6,0.7-1L59,590.5c0-0.4-0.3-0.7-0.7-0.9c-0.4-0.2-0.9-0.2-1.3,0c-2.5,1-5.4,1-8.3,0c-3.6-1.2-6.6-3.7-7.9-6.6
		c-2.2-4.9-0.8-11.1,3.7-16.7c3.2-4,7.5-7.4,11.7-10.7c1.2-0.9,2.3-1.8,3.5-2.8c0.7-0.6,1.6-1.2,2.6-1.9
		c7.1-4.9,20.2-14.1,18.4-35.9l0,0c0.1-1.1-0.2-2.9-0.7-5.2c7.5,13.3,8.8,29.2,2.4,42.8c-1.6,3.5-3.7,6.9-5.8,10.2
		c-4.2,6.9-8.6,14.1-9,22c-0.4,7.8,3.5,15.3,10.2,19.5c3.9,2.4,8.6,3.7,13.3,3.7c4.4,0,8.7-1.1,12-3.3c3.7-2.4,6-6.3,6.3-10.5
		c0.2-2.6-0.6-5-1.9-7.1c4.3-1.5,7-5.3,7.8-8.8c0.8-3.3,0.4-6.7-0.1-9.9c-0.1-1-0.3-2-0.4-3c-1.1-11.4,0.6-19.8,5.4-27.2
		c-0.1,1.4-0.2,2.7-0.2,4.1c0.6,11,9.9,21.4,22.5,25.1c3.5,1,7.3,1.5,11,1.5c9.6,0,19.1-3.3,25.6-9.2c0.4-0.3,0.4-0.8,0.2-1.2
		c-0.2-0.4-0.7-0.7-1.2-0.7c-1.3-0.1-3-0.5-4.7-1.1c-0.1,0-0.1-0.1-0.2-0.1c-0.9-0.3-1.7-0.6-2.6-1c-2.4-1.2-4.8-2.8-6.7-4.8
		c-2-2.2-4.2-5.7-3-10.1v-0.1v-0.1c1.1-22.1,11.1-44,20.7-65.2c5-11.1,10.2-22.5,14-33.7c13-38.3,6.9-60.9-18.8-68.9
		c15.3-12.3,18.9-24.8,20-41.9c0.8-12.5-8.8-22.7-18.1-32.5c-7.7-8.2-15-15.9-15-24.1c-1.5-16.1-1.8-32.6-2-48.5
		c-0.7-42.6-1.5-86.6-25.7-130C110,52.7,76.9,4.7,13.8-19c-31.9-11.3-67.5-13.3-100.9-6.1c-0.2,0-0.4-0.1-0.5,0
		c-0.6,0.2-1.2,0.4-1.8,0.6c-0.5,0.1-0.9,0.2-1.4,0.3s-1,0.1-1.5,0.1c-0.3,0-0.6,0.2-0.8,0.4c-5.3,1.3-10.6,2.9-15.8,4.7
		C-148.4-0.1-159.7,6.1-182,38.4l-1.8,2.5c-4.6,6.6-11.7,16.8-17.4,27.7c0,0.1-0.1,0.2-0.1,0.2l0,0
		C-204.4,74.8-207.9,83.6-208.6,86.8 M-152.7,88.2c0.4-0.3,0.7-0.5,1.1-0.8C-152,87.7-152.4,88-152.7,88.2z M-150,105.7
		c-0.4,0.4-0.8,0.8-1.2,1.2C-150.8,106.5-150.4,106.1-150,105.7z M158.4,540.4C158.4,540.4,158.4,540.5,158.4,540.4
		C158.4,540.5,158.4,540.4,158.4,540.4c0.1-1.4,0.2-2.8,0.3-4.2C158.6,537.6,158.5,539,158.4,540.4z M-127,42.6
		c-0.3,0.3-0.5,0.6-0.8,0.9C-127.5,43.2-127.2,42.9-127,42.6z M-128.4,44.3c-0.2,0.3-0.5,0.6-0.7,0.9
		C-128.9,44.9-128.6,44.6-128.4,44.3z M-129.7,45.9c-0.2,0.3-0.5,0.6-0.7,0.9C-130.2,46.6-130,46.3-129.7,45.9z M-124,39.5
		c-0.3,0.3-0.6,0.6-0.9,0.9C-124.6,40.1-124.3,39.8-124,39.5z M-122.4,38c-0.3,0.3-0.7,0.6-1,0.9C-123,38.6-122.7,38.3-122.4,38z
		 M-120.3,36.2c-0.5,0.4-1.1,0.9-1.6,1.3C-121.3,37.1-120.8,36.6-120.3,36.2z M-173.1,105.5c-0.4,0.4-0.8,0.9-1.2,1.3
		C-173.9,106.4-173.5,105.9-173.1,105.5z M-175.7,108.3c-0.4,0.4-0.8,0.9-1.2,1.3C-176.6,109.2-176.2,108.7-175.7,108.3z
		 M-178.3,111.1c-0.4,0.5-0.8,0.9-1.2,1.4C-179,112.1-178.7,111.6-178.3,111.1z M-180.7,114c-0.4,0.5-0.7,0.9-1.1,1.4
		C-181.4,115-181.1,114.5-180.7,114z M-183,117c-0.4,0.5-0.7,0.9-1.1,1.4C-183.7,117.9-183.3,117.5-183,117z M-185.2,120
		c-0.3,0.5-0.7,1-1,1.5C-185.8,120.9-185.5,120.4-185.2,120z M-187.2,123c-0.3,0.5-0.6,1-0.9,1.5C-187.9,124-187.5,123.5-187.2,123z
		 M-189.2,126c-0.3,0.5-0.6,1-0.9,1.5C-189.8,127-189.5,126.5-189.2,126z M-191,129.1c-0.3,0.5-0.6,1-0.8,1.5
		C-191.6,130.1-191.3,129.6-191,129.1z M-192.7,132.3c-0.3,0.5-0.5,1-0.8,1.5C-193.2,133.3-193,132.8-192.7,132.3z M-194.3,135.4
		c-0.2,0.5-0.5,1-0.7,1.5C-194.8,136.5-194.5,135.9-194.3,135.4z M-195.8,138.6c-0.2,0.5-0.4,1-0.7,1.6
		C-196.2,139.7-196,139.1-195.8,138.6z M-197.1,141.8c-0.2,0.5-0.4,1-0.6,1.6C-197.5,142.9-197.3,142.4-197.1,141.8z M-198.3,145.1
		c-0.2,0.5-0.4,1.1-0.5,1.6C-198.7,146.1-198.5,145.6-198.3,145.1z M-170.4,102.7c-0.4,0.4-0.9,0.9-1.3,1.3
		C-171.2,103.6-170.8,103.2-170.4,102.7z M-155,89.8c-0.4,0.3-0.9,0.7-1.3,1C-155.9,90.5-155.5,90.2-155,89.8z M-158.3,92.3
		c-0.5,0.4-0.9,0.7-1.4,1.1C-159.2,93-158.8,92.7-158.3,92.3z M-161.5,94.8c-0.5,0.4-0.9,0.8-1.4,1.1
		C-162.4,95.6-161.9,95.2-161.5,94.8z M-167.5,100c-0.4,0.4-0.9,0.8-1.3,1.2C-168.4,100.9-168,100.5-167.5,100z M-142.8,99.7
		c-0.5,0.3-0.9,0.7-1.4,1C-143.8,100.4-143.3,100-142.8,99.7z M-145.3,101.6c-0.4,0.4-0.9,0.7-1.3,1.1
		C-146.2,102.3-145.8,102-145.3,101.6z M-142.9,81.6c0,0.4,0,0.8,0,1.2C-142.9,82.4-142.9,82-142.9,81.6z M-140,65
		c-0.1,0.4-0.2,0.7-0.4,1.1C-140.3,65.8-140.2,65.4-140,65z M-140.7,67.1c-0.1,0.4-0.2,0.7-0.3,1.1
		C-140.9,67.8-140.8,67.5-140.7,67.1z M-141.3,69.2c-0.1,0.4-0.2,0.7-0.3,1.1C-141.4,69.9-141.4,69.5-141.3,69.2z M-142.2,73.3
		c-0.1,0.4-0.1,0.7-0.2,1.1C-142.3,74-142.2,73.7-142.2,73.3z M-142.7,77.4c0,0.4-0.1,0.8-0.1,1.1
		C-142.8,78.2-142.7,77.8-142.7,77.4z M-142.8,79.5c0,0.4,0,0.8,0,1.2C-142.9,80.3-142.9,79.9-142.8,79.5z M-132.3,49.5
		c-0.2,0.3-0.4,0.6-0.6,1C-132.7,50.1-132.5,49.8-132.3,49.5z M-133.5,51.3c-0.2,0.3-0.4,0.7-0.6,1C-133.9,52-133.7,51.6-133.5,51.3
		z M-134.6,53.2c-0.2,0.3-0.4,0.7-0.6,1C-135,53.8-134.8,53.5-134.6,53.2z M-136.7,57c-0.2,0.3-0.3,0.7-0.5,1
		C-137,57.7-136.9,57.4-136.7,57z M-137.6,59c-0.2,0.4-0.3,0.7-0.5,1.1C-137.9,59.7-137.8,59.3-137.6,59z M-139.3,63
		c-0.1,0.4-0.3,0.7-0.4,1.1C-139.6,63.7-139.4,63.4-139.3,63z M158.9,535c0.1-1,0.2-2,0.4-3C159.1,533,159,534,158.9,535z
		 M-184.5,188.5c0-0.2,0.1-0.3,0.1-0.5 M-184.2,186.6c0.1-0.7,0.3-1.5,0.4-2.2C-183.9,185.2-184,185.9-184.2,186.6z M-168.3,139.2
		c0.5-1.1,1.1-2.1,1.6-3.2c0.1-0.2,0.2-0.5,0.3-0.8c0.1-0.5,0.2-1,0.3-1.5c-0.1,0.6-0.3,1.3-0.4,1.9
		C-167.1,136.8-167.7,138-168.3,139.2z M-183.5,182.9c0.1-0.7,0.3-1.4,0.5-2.2C-183.2,181.5-183.3,182.2-183.5,182.9z M-182.7,179.3
		c0.2-0.7,0.3-1.4,0.5-2.2C-182.3,177.9-182.5,178.6-182.7,179.3z M-181.8,175.7c0.2-0.8,0.4-1.5,0.6-2.3
		C-181.4,174.2-181.6,174.9-181.8,175.7z M-180.9,172.1c0.2-0.9,0.5-1.7,0.7-2.6C-180.4,170.4-180.7,171.2-180.9,172.1z
		 M-178.5,164.2c0.3-0.9,0.6-1.8,0.9-2.8C-178,162.4-178.3,163.3-178.5,164.2z M-177.2,160.2c0.3-0.8,0.5-1.5,0.8-2.3
		C-176.7,158.7-176.9,159.5-177.2,160.2z M-175.9,156.6c0.3-0.7,0.5-1.4,0.8-2.1C-175.3,155.1-175.6,155.9-175.9,156.6z M-174.5,153
		c0.3-0.7,0.6-1.4,0.8-2.1C-173.9,151.6-174.2,152.3-174.5,153z M-173.1,149.5c0.3-0.7,0.6-1.4,0.9-2.1
		C-172.5,148.1-172.8,148.8-173.1,149.5z M-171.6,146c0.3-0.8,0.7-1.5,1-2.3C-170.9,144.5-171.2,145.3-171.6,146z M-170,142.6
		c0.5-1,1-2,1.5-3.1C-169,140.5-169.5,141.6-170,142.6z M-164.1,126.8c0.3-0.7,0.5-1.4,0.8-2.1
		C-163.6,125.4-163.8,126.1-164.1,126.8z M-165.9,132.6c0.2-0.7,0.3-1.3,0.5-1.9C-165.5,131.3-165.7,132-165.9,132.6z M-165.2,129.9
		c0.3-0.9,0.6-1.8,0.9-2.7C-164.6,128.1-164.9,129-165.2,129.9z M-152.1,107.9c-0.4,0.4-0.7,0.8-1.1,1.2
		C-152.9,108.7-152.5,108.3-152.1,107.9z M-154.1,110.1c-0.4,0.4-0.7,0.8-1,1.2C-154.8,110.9-154.5,110.5-154.1,110.1z M-156,112.4
		c-0.3,0.4-0.6,0.9-1,1.3C-156.6,113.2-156.3,112.8-156,112.4z M-157.7,114.7c-0.3,0.4-0.6,0.9-0.9,1.3
		C-158.3,115.6-158,115.2-157.7,114.7z M-159.3,117.1c-0.3,0.5-0.6,0.9-0.8,1.4C-159.9,118-159.6,117.6-159.3,117.1z M-160.8,119.6
		c-0.3,0.5-0.5,1-0.8,1.5C-161.3,120.6-161,120.1-160.8,119.6z M-162.1,122.1c-0.3,0.5-0.5,1.1-0.8,1.6
		C-162.6,123.2-162.3,122.6-162.1,122.1z M-149,104.8c0.4-0.4,0.8-0.7,1.2-1.1C-148.1,104-148.6,104.4-149,104.8z M-142.7,85.6
		c0.1,0.6,0.2,1.3,0.3,1.9C-142.5,86.9-142.6,86.2-142.7,85.6z M-141.9,90.2c0.1,0.4,0.2,0.9,0.3,1.3
		C-141.7,91.1-141.8,90.6-141.9,90.2z M-141.3,92.2c0.1,0.4,0.2,0.8,0.4,1.2C-141.1,93-141.2,92.6-141.3,92.2z"/>
	<g id="XMLID_694_">
		<path id="XMLID_359_" fill="#FFFFFF" d="M-159.9,0.4c0,0-0.3,0.5-0.8,1.6c-0.6,1-1.3,2.5-2.4,4.4c-0.5,0.9-1.1,2-1.7,3.1
			c-0.6,1.2-1.2,2.4-1.9,3.7c-0.7,1.3-1.4,2.8-2.1,4.2c-0.7,1.5-1.5,3.1-2.2,4.8c-0.8,1.7-1.6,3.4-2.4,5.2c-0.8,1.8-1.6,3.7-2.4,5.6
			c-0.4,1-0.8,1.9-1.2,2.9s-0.8,2-1.2,3.1c-0.8,2.1-1.6,4.1-2.4,6.3c-1.5,4.3-3.1,8.8-4.5,13.4c-1.5,4.6-2.7,9.3-4,14
			c-1.1,4.8-2.4,9.5-3.2,14.2c-1,4.7-1.7,9.4-2.5,13.9c-0.3,2.3-0.6,4.5-0.9,6.7c-0.1,1.1-0.3,2.2-0.4,3.2c-0.1,1.1-0.2,2.1-0.3,3.2
			c-0.2,2.1-0.4,4.1-0.6,6.1s-0.3,3.9-0.4,5.7c-0.1,1.8-0.2,3.6-0.3,5.3c-0.1,1.7-0.1,3.3-0.2,4.8c-0.1,1.5-0.1,2.9-0.2,4.2
			c0,1.3,0,2.5,0,3.6c0,2.1,0,3.8,0,5s0,1.8,0,1.8s-0.1-0.6-0.1-1.8c-0.1-1.1-0.3-2.8-0.4-5c-0.1-1.1-0.2-2.3-0.2-3.6
			s-0.1-2.7-0.1-4.2s-0.1-3.1-0.2-4.8c0-1.7,0-3.5,0.1-5.3c0-1.8,0-3.8,0.1-5.8c0.1-2,0.2-4.1,0.4-6.2c0.1-1.1,0.1-2.1,0.2-3.2
			c0.1-1.1,0.2-2.2,0.3-3.3c0.2-2.2,0.5-4.5,0.7-6.8c0.7-4.6,1.3-9.3,2.3-14.1c0.8-4.8,2.1-9.6,3.2-14.4c1.4-4.8,2.6-9.5,4.2-14.1
			c1.4-4.7,3.2-9.1,4.8-13.5c0.9-2.2,1.7-4.2,2.6-6.3c0.4-1,0.9-2,1.3-3c0.4-1,0.9-2,1.4-2.9c0.9-1.9,1.8-3.8,2.6-5.6
			c0.9-1.8,1.8-3.5,2.7-5.1c0.9-1.6,1.7-3.2,2.5-4.7c0.9-1.5,1.7-2.8,2.4-4.1c0.8-1.3,1.5-2.5,2.1-3.6c0.7-1.1,1.3-2.1,1.9-3
			c1.2-1.8,2.1-3.2,2.7-4.2C-160.2,0.9-159.9,0.4-159.9,0.4z"/>
	</g>
	<g id="XMLID_691_">
		<path id="XMLID_357_" fill="#FFFFFF" d="M121.4,568.3c0,0-0.2-0.5-0.6-1.3c-0.4-0.9-0.9-2.2-1.5-3.9c-0.5-1.7-1.1-3.9-1.4-6.4
			c-0.2-1.2-0.3-2.6-0.4-4c0-1.4-0.1-2.9,0-4.5c0.3-6.2,1.8-13.4,4.6-20.6c0.7-1.8,1.5-3.6,2.3-5.4c0.8-1.8,1.7-3.6,2.6-5.4
			c1.8-3.6,3.8-7.2,5.9-10.8c2-3.6,4.1-7.1,6-10.6s3.7-7,5.3-10.5c1.5-3.5,2.9-6.9,3.9-10.2s1.8-6.6,2.2-9.6c0.5-3,0.7-5.8,0.7-8.3
			s-0.2-4.6-0.5-6.4c-0.3-1.8-0.6-3.1-0.8-4.1c-0.2-0.9-0.4-1.4-0.4-1.4s0.2,0.5,0.5,1.4s0.7,2.3,1.1,4c0.3,1.8,0.7,3.9,0.8,6.5
			c0.1,1.3,0.1,2.6,0.1,4c-0.1,1.4-0.1,2.9-0.3,4.4c-0.7,6.2-2.6,13.2-5.7,20.4c-1.5,3.5-3.3,7.2-5.2,10.7c-1.9,3.6-3.9,7.1-6,10.7
			c-2,3.6-4,7.1-5.9,10.7c-0.9,1.8-1.8,3.6-2.7,5.3c-0.8,1.8-1.6,3.6-2.3,5.3c-1.4,3.5-2.6,7-3.4,10.4s-1.4,6.6-1.6,9.7
			c-0.3,3-0.3,5.8,0,8.3c0.2,2.5,0.6,4.6,1,6.3c0.5,1.7,0.8,3.1,1.2,4C121.2,567.8,121.4,568.3,121.4,568.3z"/>
	</g>
	<g id="XMLID_688_">
		<path id="XMLID_355_" fill="#FFFFFF" d="M149.8,207.9c0,0-0.4,0.6-1.1,1.7c-0.4,0.5-0.8,1.2-1.2,2c-0.5,0.8-0.9,1.8-1.5,2.9
			c-1,2.2-2.1,4.9-2.8,8.2c-0.8,3.3-1.3,7-1.5,11.1c-0.1,4.1,0.2,8.6,0.9,13.2c0.2,1.2,0.4,2.3,0.7,3.5c0.3,1.2,0.5,2.4,0.9,3.6
			c0.6,2.4,1.4,4.8,2.2,7.3c1.6,4.9,3.6,9.8,5.8,14.8c2.2,5,4.5,10,6.8,15.1c2.2,5.1,4.3,10.2,6.1,15.4c1.8,5.2,3.2,10.4,4,15.6
			c0.9,5.2,1.1,10.3,0.8,15.1c-0.4,4.8-1.4,9.3-2.8,13.3s-3.2,7.4-5.2,10.2c-1.9,2.8-4,4.9-5.8,6.6c-0.9,0.8-1.7,1.5-2.5,2
			s-1.4,1-2,1.3c-1.1,0.7-1.7,1-1.7,1s0.6-0.4,1.7-1.1c0.6-0.3,1.2-0.8,1.9-1.4c0.8-0.6,1.5-1.3,2.4-2.1c1.7-1.7,3.7-3.9,5.5-6.7
			c1.8-2.8,3.4-6.2,4.7-10.1c1.3-3.9,2.1-8.3,2.4-13c0.1-2.4,0.1-4.8-0.1-7.2c-0.2-2.5-0.5-5-0.9-7.5c-0.9-5.1-2.3-10.2-4.1-15.3
			c-1.8-5.1-3.9-10.2-6.2-15.2c-2.2-5.1-4.5-10.1-6.7-15.1c-2.1-5-4.1-10-5.8-15c-0.8-2.5-1.5-4.9-2.1-7.4c-0.3-1.2-0.5-2.4-0.8-3.6
			c-0.2-1.2-0.4-2.4-0.6-3.6c-0.7-4.8-0.9-9.3-0.6-13.5c0.2-4.2,0.9-8,1.9-11.3c0.9-3.3,2.1-6,3.2-8.2c0.6-1.1,1.1-2,1.6-2.8
			s0.9-1.5,1.3-2C149.4,208.5,149.8,207.9,149.8,207.9z"/>
	</g>
	<g id="XMLID_685_">
		<path id="XMLID_353_" fill="#FFFFFF" d="M15.2,316.4c0,0-0.4,0.9-1.1,2.4c-0.4,0.8-0.8,1.7-1.2,2.8c-0.5,1.1-1,2.3-1.5,3.6
			c-0.5,1.3-1,2.8-1.6,4.4c-0.3,0.8-0.5,1.6-0.8,2.4c-0.2,0.8-0.5,1.7-0.8,2.5c-0.4,1.7-0.9,3.5-1.3,5.4c-0.4,1.8-0.7,3.7-1.1,5.6
			c-0.3,1.9-0.6,3.8-0.7,5.6c-0.2,1.9-0.3,3.7-0.5,5.5c0,0.9-0.1,1.8-0.1,2.6c0,0.9-0.1,1.7,0,2.5c0,1.6,0,3.2,0.1,4.6
			c0,1.4,0.1,2.8,0.2,3.9c0.1,1.2,0.1,2.2,0.3,3c0.2,1.7,0.3,2.6,0.3,2.6s-0.2-0.9-0.7-2.6c-0.2-0.8-0.4-1.8-0.6-3
			c-0.1-0.6-0.2-1.2-0.3-1.9c-0.1-0.7-0.2-1.3-0.3-2.1c-0.1-0.7-0.2-1.5-0.3-2.3s-0.1-1.6-0.2-2.4c-0.1-1.7-0.1-3.4-0.1-5.3
			c0.1-1.8,0.1-3.7,0.3-5.6c0.1-1.9,0.4-3.8,0.7-5.8c0.4-1.9,0.7-3.8,1.2-5.7c0.4-1.9,1-3.7,1.5-5.4c0.6-1.7,1.1-3.4,1.8-4.9
			c0.3-0.8,0.6-1.5,0.9-2.2c0.3-0.7,0.7-1.4,1-2.1s0.6-1.3,0.9-1.9c0.3-0.6,0.6-1.1,0.9-1.7c0.6-1,1.1-1.9,1.5-2.6
			C14.7,317.2,15.2,316.4,15.2,316.4z"/>
	</g>
	<g id="XMLID_682_">
		<path id="XMLID_351_" fill="#FFFFFF" d="M-96.2-2c0,0,1.4-0.5,4-1.3c1.3-0.4,2.8-0.9,4.6-1.4c0.9-0.3,1.9-0.5,2.9-0.8
			s2.1-0.5,3.2-0.8c1.1-0.3,2.3-0.6,3.5-0.8s2.5-0.5,3.8-0.8s2.6-0.5,4-0.7s2.8-0.5,4.2-0.7c2.9-0.4,5.8-0.8,8.8-1
			c3-0.3,6.1-0.4,9.1-0.6C-45-11-42-11.1-38.9-11c3,0,6,0.2,8.9,0.3c2.9,0.2,5.6,0.4,8.3,0.7c1.3,0.2,2.6,0.3,3.8,0.5
			s2.4,0.4,3.5,0.5c1.1,0.2,2.2,0.3,3.3,0.5c1,0.2,2,0.4,2.9,0.6c1.8,0.4,3.4,0.7,4.7,1c2.6,0.6,4.1,1,4.1,1s-1.5-0.2-4.2-0.6
			c-1.3-0.2-2.9-0.4-4.8-0.7c-1.8-0.2-3.9-0.5-6.2-0.7c-2.3-0.3-4.7-0.4-7.3-0.7c-1.3-0.1-2.6-0.2-4-0.3s-2.8-0.1-4.2-0.2
			c-2.9-0.1-5.8-0.2-8.8-0.1c-3,0-6,0.1-9.1,0.2c-3,0.2-6.1,0.3-9.1,0.6c-3,0.2-5.9,0.6-8.7,0.9c-1.4,0.2-2.8,0.4-4.2,0.6
			c-1.4,0.2-2.7,0.4-4,0.6c-2.6,0.4-5,0.8-7.3,1.2c-1.1,0.2-2.2,0.4-3.2,0.6c-1,0.2-2,0.4-2.9,0.6c-1.8,0.4-3.4,0.7-4.7,1
			C-94.7-2.3-96.2-2-96.2-2z"/>
	</g>
	<g id="XMLID_679_">
		<path id="XMLID_349_" fill="#FFFFFF" d="M-26,6.4c0,0,1.5-0.3,4.2-0.7c0.7-0.1,1.4-0.2,2.2-0.3c0.8-0.1,1.7-0.2,2.6-0.3
			c0.9-0.1,1.9-0.2,3-0.3c1.1-0.1,2.2-0.1,3.3-0.2c1.2-0.1,2.4-0.2,3.6-0.2c1.3,0,2.6,0,3.9,0c1.3,0,2.7,0,4.1,0.1
			c1.4,0,2.8,0.1,4.3,0.2c2.9,0.3,5.9,0.4,9,0.9c3.1,0.3,6.1,1,9.2,1.5c3,0.7,6.1,1.3,9,2.2c3,0.7,5.8,1.8,8.6,2.6
			c1.4,0.5,2.7,1,4,1.5s2.6,1,3.8,1.5c1.2,0.5,2.4,1,3.6,1.5c1.1,0.5,2.2,1.1,3.3,1.6c1,0.5,2.1,1,3,1.5s1.8,1,2.6,1.5
			c0.8,0.5,1.6,0.9,2.3,1.3c0.7,0.4,1.3,0.8,1.9,1.2c2.3,1.4,3.6,2.3,3.6,2.3s-1.4-0.7-3.8-1.9c-0.6-0.3-1.3-0.7-2-1
			s-1.5-0.7-2.4-1.1s-1.8-0.8-2.7-1.3c-1-0.4-2-0.9-3.1-1.3s-2.2-0.9-3.3-1.4c-1.2-0.4-2.4-0.9-3.6-1.4s-2.5-0.9-3.8-1.4
			c-1.3-0.4-2.7-0.9-4-1.4c-2.8-0.8-5.6-1.7-8.6-2.4c-2.9-0.8-5.9-1.4-8.9-2.1c-3-0.5-6-1.2-9.1-1.5c-3-0.5-6-0.7-8.8-1.1
			C3.6,6.4,2.1,6.3,0.8,6.2C-0.6,6.1-1.9,6-3.3,6c-1.3,0-2.6-0.1-3.9-0.1c-1.2,0-2.5,0-3.6,0c-1.2,0-2.3,0-3.3,0
			c-1.1,0-2.1,0.1-3,0.1s-1.8,0.1-2.6,0.1s-1.6,0.1-2.2,0.2C-24.5,6.3-26,6.4-26,6.4z"/>
	</g>
	<g id="XMLID_672_">
		<path id="XMLID_327_" fill="#FFFFFF" d="M-12.4,68.4c5.2,1.2,10.4,2.5,15.5,4.1c2.6,0.8,5.1,1.6,7.6,2.6c2.5,0.9,5,2,7.4,3.2
			s4.8,2.5,7,4c1.1,0.8,2.2,1.5,3.3,2.3l1.6,1.2l1.5,1.4l1.5,1.3l0.7,0.7c0.2,0.2,0.5,0.5,0.7,0.7l2.8,3c1.7,2.1,3.4,4.2,4.9,6.4
			l1.2,1.7c0.4,0.6,0.7,1.1,1.1,1.7c0.7,1.1,1.4,2.3,2.1,3.4l2,3.5c0.6,1.2,1.3,2.4,1.9,3.5c1.2,2.4,2.4,4.8,3.6,7.2l3.5,7.2
			c1.2,2.4,2.3,4.8,3.6,7.1c0.6,1.2,1.2,2.4,1.9,3.5l2,3.5c0.7,1.2,1.4,2.3,2.1,3.4c0.4,0.6,0.7,1.1,1.1,1.7l1.1,1.6
			c1.5,2.2,3.1,4.2,4.8,6.3l0,0l0,0v0.6v-0.6l0,0l-2.7-2.9c-0.9-1-1.7-2.1-2.5-3.1l-1.2-1.6c-0.4-0.5-0.8-1.1-1.2-1.6
			c-0.8-1.1-1.6-2.2-2.3-3.3l-2.1-3.4c-0.7-1.1-1.3-2.3-2-3.5c-1.3-2.3-2.6-4.7-3.8-7c-1.2-2.4-2.5-4.7-3.7-7.1
			c-1.2-2.4-2.4-4.7-3.7-7.1l-1.9-3.5l-2-3.4c-0.7-1.1-1.4-2.2-2.1-3.4c-0.4-0.6-0.7-1.1-1.1-1.7l-1.1-1.6c-1.5-2.2-3.1-4.2-4.8-6.3
			l-2.6-2.9c-0.2-0.2-0.4-0.5-0.7-0.7l-0.7-0.7l-1.5-1.4L29,87.1l-1.5-1.2c-1-0.8-2.1-1.6-3.2-2.3c-2.2-1.5-4.4-2.8-6.8-4.1
			c-2.3-1.2-4.7-2.4-7.2-3.4c-2.4-1-4.9-2-7.4-2.9C-2.2,71.6-7.3,70.1-12.4,68.4z"/>
	</g>
	<g id="XMLID_669_">
		<path id="XMLID_325_" fill="#FFFFFF" d="M37.9,250.8c0,0-0.1,0.7-0.4,1.9c-0.2,1.2-0.7,3-1.4,5.3c-0.7,2.3-1.6,5-2.9,8
			c-0.6,1.5-1.4,3.1-2.1,4.8c-0.8,1.7-1.7,3.4-2.6,5.2c-3.8,7.2-8.9,15.2-14.3,23.7s-11,17.8-14.9,27.7c-2,4.9-3.6,10.1-4.5,15.2
			c-0.3,1.3-0.4,2.6-0.6,3.9c-0.1,1.3-0.2,2.6-0.3,3.9c0,1.3-0.1,2.6,0,3.8c0.1,1.3,0.1,2.6,0.2,3.8c0.5,4.9,1.5,9.7,2.9,14.1
			s3.1,8.4,4.9,12c1.8,3.6,3.6,6.9,5.3,9.7c1.7,2.8,3.2,5.2,4.5,7.2s2.4,3.5,3.1,4.5c0.7,1,1.1,1.6,1.1,1.6s-0.4-0.5-1.2-1.5
			c-0.8-1-1.9-2.5-3.3-4.4c-1.4-1.9-3-4.3-4.8-7s-3.7-5.9-5.6-9.5c-1.9-3.6-3.7-7.6-5.3-12.1c-1.5-4.4-2.8-9.2-3.3-14.4
			c-0.2-1.3-0.2-2.5-0.3-3.8c0-1.3,0-2.6,0-4c0.1-1.3,0.2-2.6,0.3-4c0.2-1.3,0.3-2.7,0.6-4c0.9-5.3,2.5-10.6,4.5-15.6
			c4.1-10.1,9.8-19.4,15.3-27.9c2.8-4.2,5.5-8.3,8-12.2c2.5-3.9,4.8-7.6,6.8-11.1s3.7-6.8,5.1-9.8s2.4-5.6,3.2-7.9
			c0.7-2.2,1.3-4,1.6-5.2S37.9,250.8,37.9,250.8z"/>
	</g>
	<g id="XMLID_654_">
		<path id="XMLID_323_" fill="#FFFFFF" d="M48.2,264.2c0,0,0.3-0.4,0.7-1.1c0.5-0.7,1.2-1.7,2-3c0.4-0.7,0.9-1.4,1.4-2.2
			c0.5-0.8,1-1.7,1.5-2.6s1.1-2,1.7-3c0.5-1.1,1.1-2.2,1.7-3.4c1.1-2.4,2.3-5,3.4-7.9c1.1-2.8,2-5.9,3-9c0.9-3.2,1.6-6.5,2.2-9.9
			s0.9-6.9,1.1-10.4c0.2-3.6,0.2-7,0-10.5c-0.3-3.4-0.6-6.8-1.1-10.1c-0.6-3.2-1.2-6.4-2-9.3c-0.8-2.9-1.7-5.7-2.5-8.2
			c-0.5-1.2-0.9-2.4-1.4-3.6c-0.5-1.1-0.9-2.2-1.3-3.2s-0.9-1.9-1.3-2.8c-0.4-0.9-0.8-1.6-1.1-2.3c-0.7-1.4-1.3-2.5-1.7-3.2
			c-0.4-0.7-0.6-1.1-0.6-1.1s0.3,0.4,0.7,1c0.5,0.7,1.2,1.7,2.1,3c0.4,0.7,0.9,1.4,1.4,2.2s1,1.7,1.5,2.7s1,2,1.6,3.1
			c0.5,1.1,1.1,2.3,1.6,3.5c0.5,1.3,1.1,2.5,1.6,3.9s1,2.8,1.5,4.3c1,2.9,1.8,6.1,2.4,9.5c0.6,3.3,1.1,6.8,1.4,10.4
			c0.2,3.5,0.3,7.3,0.1,10.8c-0.2,3.7-0.7,7.2-1.3,10.8c-0.6,3.5-1.5,6.9-2.5,10.2c-1,3.2-2.2,6.3-3.4,9.1c-1.2,2.9-2.6,5.4-3.9,7.8
			c-0.7,1.2-1.3,2.3-2,3.3s-1.3,2-1.9,2.9s-1.2,1.7-1.8,2.5c-0.6,0.8-1.1,1.4-1.6,2c-1,1.2-1.8,2.1-2.4,2.8
			C48.5,263.8,48.2,264.2,48.2,264.2z"/>
	</g>
	<g id="XMLID_649_">
		<path id="XMLID_321_" fill="#FFFFFF" d="M137,177.9c0,0-0.3,0.3-0.7,0.7c-0.5,0.5-1.2,1.2-2,2.1c-0.4,0.5-0.9,1-1.4,1.6
			s-0.9,1.3-1.5,2c-0.5,0.7-1,1.5-1.5,2.4c-0.5,0.9-1,1.8-1.5,2.7c-0.9,2-1.8,4.1-2.5,6.5c-0.8,2.3-1.3,4.9-1.7,7.5
			c-0.4,2.7-0.6,5.4-0.7,8.2c0,2.8,0.2,5.7,0.5,8.5c0.4,2.9,0.9,5.7,1.6,8.4c0.7,2.7,1.5,5.4,2.4,8s1.8,5,2.7,7.3
			c0.9,2.3,1.8,4.5,2.7,6.5c1.8,4,3.2,7.3,4.3,9.6c1,2.3,1.6,3.7,1.6,3.7s-0.7-1.3-2-3.5c-1.2-2.2-3-5.4-5-9.3s-4.1-8.6-6-13.7
			c-0.9-2.6-1.8-5.3-2.6-8.1c-0.7-2.8-1.3-5.8-1.7-8.6c-0.4-3-0.5-5.9-0.5-8.8c0.1-2.9,0.4-5.8,0.9-8.5s1.2-5.3,2.1-7.7
			c0.8-2.4,1.9-4.6,2.9-6.5c0.6-1,1.1-1.9,1.7-2.7s1.2-1.6,1.7-2.3c0.6-0.7,1.1-1.3,1.6-1.9c0.5-0.6,1.1-1.1,1.5-1.5
			c0.9-0.9,1.7-1.5,2.2-1.9C136.7,178.1,137,177.9,137,177.9z"/>
	</g>
	<g id="XMLID_614_">
		<path id="XMLID_319_" fill="#FFFFFF" d="M6.5,592.1c0,0-0.3-0.4-1-1.1c-0.6-0.8-1.5-1.9-2.2-3.6c-0.7-1.7-1.3-3.8-1.5-6.4
			c-0.2-2.5,0.1-5.4,0.9-8.5c0.4-1.5,1-3,1.8-4.6c0.7-1.5,1.7-3,2.7-4.5c2-3,4.5-5.8,7.3-8.5c2.7-2.8,5.6-5.5,8.5-8.3
			c2.8-2.8,5.6-5.8,8.2-8.9c5.3-6.2,9.8-13,13-19.9c1.6-3.5,2.8-6.9,3.7-10.3c0.9-3.4,1.4-6.6,1.6-9.7c0.2-3,0.1-5.8-0.1-8.3
			s-0.7-4.6-1.1-6.3c-0.5-1.7-0.9-3.1-1.2-4c-0.3-0.9-0.5-1.4-0.5-1.4s0.2,0.5,0.6,1.3c0.4,0.9,0.9,2.2,1.5,3.9
			c0.5,1.7,1.1,3.8,1.5,6.3s0.6,5.3,0.5,8.4c-0.1,3.1-0.5,6.5-1.3,9.9c-0.8,3.5-1.9,7.1-3.5,10.6c-1.6,3.6-3.4,7.1-5.7,10.5
			c-2.2,3.4-4.7,6.7-7.4,9.9c-2.7,3.1-5.5,6.1-8.4,9s-5.9,5.5-8.6,8.2s-5.3,5.3-7.3,8.2c-1,1.4-1.9,2.8-2.7,4.3
			c-0.7,1.4-1.4,2.9-1.8,4.3c-0.9,2.9-1.3,5.6-1.3,8.1s0.5,4.6,1.1,6.2c0.3,0.8,0.7,1.5,1,2.2c0.3,0.6,0.7,1.1,0.9,1.5
			C6.2,591.6,6.5,592.1,6.5,592.1z"/>
	</g>
	<g id="XMLID_607_">
		<path id="XMLID_317_" fill="#FFFFFF" d="M64.2,524.4c0,0-0.1,0.5-0.2,1.2c-0.1,0.4-0.2,0.9-0.3,1.4c-0.1,0.5-0.3,1.2-0.6,1.8
			c-0.2,0.7-0.5,1.3-0.9,2.1c-0.3,0.7-0.7,1.5-1.2,2.2s-0.9,1.5-1.5,2.2c-0.5,0.7-1.2,1.4-1.8,2.1c-0.7,0.7-1.3,1.3-2,1.9
			c-0.7,0.6-1.4,1.1-2.1,1.7c-0.7,0.5-1.4,1-2.1,1.3c-0.7,0.4-1.4,0.7-2,1c-0.3,0.1-0.6,0.3-0.9,0.4c-0.3,0.1-0.6,0.2-0.8,0.3
			c-0.5,0.2-1,0.4-1.4,0.5c-0.8,0.2-1.2,0.3-1.2,0.3s0.4-0.2,1.2-0.5c0.4-0.1,0.8-0.4,1.3-0.6c0.5-0.2,1-0.5,1.6-0.9
			c0.6-0.3,1.2-0.7,1.9-1.1c0.7-0.4,1.3-0.9,2-1.4s1.3-1.1,2-1.7c0.7-0.6,1.3-1.2,1.9-1.9s1.2-1.3,1.7-2.1c0.6-0.7,1-1.4,1.5-2.1
			c0.4-0.7,0.9-1.4,1.3-2.1c0.4-0.7,0.7-1.3,1-2c0.3-0.6,0.5-1.2,0.7-1.7s0.4-1,0.5-1.3C64,524.8,64.2,524.4,64.2,524.4z"/>
	</g>
</g>
</svg>
