<?xml version="1.0" encoding="utf-8"?>
<!-- Generator: Adobe Illustrator 19.0.0, SVG Export Plug-In . SVG Version: 6.00 Build 0)  -->
<svg version="1.1" id="Layer_1" xmlns="http://www.w3.org/2000/svg" xmlns:xlink="http://www.w3.org/1999/xlink" x="0px" y="0px"
	 viewBox="0 0 471 697.5" style="enable-background:new 0 0 471 697.5;" xml:space="preserve">
<style type="text/css">
	.st0{fill:#EF7B05;}
	.st1{fill:#FFFFFF;}
</style>
<path id="XMLID_8646_" class="st0" d="M361.5,320.6c-2.7,20.9-13.2,62.1-34.9,72.8c-0.7,0.4-0.9,1.1-0.4,1.6c0,0.1,0.1,0.1,0.2,0.1
	c-7.2,11.7-14.4,23.9-17.4,36.9c-2.7,11.7-1.9,23.6-1.2,35.2c0.7,10.1,1.3,20.6-0.3,30.8c-1,6-2.8,12-4.6,17.9
	c-2.9,9.4-5.8,19.1-5.4,29c0.3,5.7,1.7,11.4,3,16.9c1,4.1,2.1,8.3,2.6,12.5c0.5,3.8,0.6,7.8,0.7,11.6c0.1,3.8,0.2,7.7,0.7,11.6
	c1.2,9.4,4.8,16.9,10.8,22.1c5.6,4.9,13.4,7.6,20.9,7.6c2.9,0,5.7-0.4,8.3-1.2c1.4-0.4,2.6-1,3.9-1.7c-1.5,3.9-1.3,8.1,0.7,11.8
	c0.6,1.1,1.1,2.3,1.6,3.4c1,2.3,2.1,4.7,3.8,6.5c-6.6,0.2-13.1-1.6-17.3-5.1c-0.6-0.5-1.6-0.6-2.2-0.2c-0.7,0.4-0.8,1.1-0.3,1.6
	c5.5,5.6,14.3,7.9,22.8,7.9c3.8,0,7.6-0.4,11-1.2c4.7-1.1,8.9-2.8,12.3-5.1c-0.1,0.5,0.2,1,0.8,1.2c0.2,0.1,0.4,0.1,0.7,0.1
	c0.6,0,1.1-0.2,1.4-0.6c9.2,1.7,20-1.5,26.7-8.2c5.2-5.1,8.1-11.9,9.4-21.2c3.6,1.8,7.6,3,11.7,3.2c0.5,0,1,0,1.6,0
	c8.1,0,16.2-3.3,21.6-8.9c4.7-4.8,7.3-11.4,7.7-18.9c0-0.6-0.5-1.1-1.2-1.2c-0.7-0.1-1.5,0.1-1.8,0.6c-2.2,3.3-6.4,5.6-11.9,6.4
	c-4.8,0.7-9.9,0.3-14.2-1.2c3.5-2.2,5.9-5.8,6.4-10.1c0.4-3,0-6.1-0.4-9c-0.1-1.1-0.3-2.3-0.4-3.4c-0.9-9.4,1.5-18.9,3.8-28.1
	c1.3-5.4,2.7-11,3.4-16.6c1.5-11.2-4.8-22.4-10.8-33.2c-3.9-7.1-8-14.4-9.7-21.5c-1.8-7.5-0.1-15.3,1.5-22.8
	c1.7-7.7,3.4-15.6,1.5-23.5c-1.6-6.8-6.3-14.9-11.2-23.4c-5.7-9.8-11.5-19.9-12.3-27.8c-1.5-14,0.3-25,2.1-35.7
	c2.3-13.3,4.3-26-0.7-42.6c-0.5-2.3-1.1-4.6-2-6.9c-0.1-0.2-0.3-0.3-0.5-0.4c2.1-7.6,3.3-15.4,2.6-23.2c-0.2-2.3-0.6-4.6-2-6.8
	c1.7-3.3,3.4-6.4,5.2-9.5c1.8-3.2,3.6-6.5,5.4-10c0.4-0.7,0.7-1.5,1.2-2.2c0,0,0,0,0-0.1c1.3-2.4,3-4.7,5.5-6.4
	c1.4-0.9,3.1-1.6,4.8-2.3c2.3-0.9,4.6-1.9,6.5-3.4c4.8-3.8,4.6-9.6,4-14.6l-2.3-20.4c0,0,0,0,0,0c0,0,0,0,0,0c-0.7-4.6,0-9.3,0.6-14
	c0.7-5.2,1.4-10.5,0.3-15.7c0-0.4,0-0.7,0-1.1c0-0.3-0.2-0.5-0.5-0.7c-0.5-1.6-1.1-3.1-2-4.6c-3-5.2-8.5-9.2-13.9-13.2l-2.6-1.9
	c-4.8-3.6-9.5-6.4-14-9c-8.5-5-15.9-9.3-20.9-17.9c-1.6-2.7-3.2-6.7-4.9-11c-2-5-4.1-10.2-6.2-13.4c-2.7-4-8.7-7.7-15.1-9.2
	c-5.4-1.3-10.7-1-15.4,0.9c-1.3,0.6-3.1,1-4.6,1.3c0,0-0.1,0-0.1,0c-0.5,0.1-1,0.2-1.4,0.2c0,0-0.1,0-0.1,0c0,0,0,0-0.1,0
	c-2,0.2-4.1,0.1-6.1-0.3c0,0,0,0-0.1,0c-5.6-1-11.4-3.9-17.7-7.1c-7.1-3.6-15.2-7.6-24.5-9.5c-10.2-2.1-21.8-4.4-33.3-3.3
	c-9.4,0.9-18.1,3.9-26.6,6.9c-3.8,1.3-7.4,2.6-11.1,3.7c-0.2,0-0.3,0.1-0.5,0.1c-6.4,1.9-12.9,3.2-19.7,2.9
	c-3.2-0.1-6.4-0.6-9.6-1.1c-4.2-0.6-8.7-1.3-13.1-1.1c-9.4,0.3-16.3,5.4-22.9,10.4c-4.6,3.4-9.3,6.9-14.7,8.8
	c-21.8,7.5-37.5,15.3-49.5,24.6c-15.2,11.8-23.7,25.9-23.9,39.7c0,1.9,0.1,3.9,0.2,5.9c0.3,5.1,0.6,9.9-1.7,14.3c-1.7,3.3-4.8,6-8,9
	c-2.3,2-4.6,4.2-6.4,6.5c-3.3,4.1-4.2,9.9-2.3,14.1c1.2,2.6,3.3,4.4,6.3,5.4l2.1,0.7c-2.7,3.4-5.4,7-6.8,11c-1.8,5-1,10,2.1,13.6
	c1.5,1.7,3.5,3.2,5.5,4.6c2.4,1.7,4.6,3.3,5.8,5.3c1.3,2.2,1.2,4.6,1.1,7.3c0,1-0.1,2.1,0,3.1c0.4,9.9,13,24.7,18.4,29
	c0.3,1.4,0.7,2.7,1.1,4.1c-0.2,0.1-0.4,0.2-0.5,0.4c-1,2.3-1.6,4.6-2.1,6.9c-5.3,16.6-3.1,29.3-0.8,42.7c1.9,10.6,3.8,21.6,2.2,35.6
	c-0.9,7.8-7,18-12.9,27.8c-5.2,8.6-10,16.7-11.7,23.4c-2,7.9-0.2,15.9,1.5,23.6c1.7,7.5,3.5,15.2,1.6,22.7
	c-1.8,7.1-6.1,14.4-10.2,21.5c-6.3,10.8-12.8,22-11.3,33.2c0.8,5.6,2.2,11.2,3.6,16.6c2.4,9.2,4.8,18.7,3.9,28.1
	c-0.1,1.1-0.3,2.3-0.4,3.4c-0.4,3-0.8,6-0.4,9.1c0.6,4.4,3.1,7.9,6.7,10.1c-4.6,1.5-10.1,2-15.2,1.2c-5.6-0.9-10-3.2-12.2-6.4
	c-0.3-0.5-1.1-0.8-1.9-0.6c-0.7,0.1-1.2,0.6-1.2,1.2c0.4,7.5,3.2,14,8.1,18.9c5.6,5.6,14.1,8.9,22.5,8.9c0.5,0,1.1,0,1.6,0
	c4.3-0.2,8.5-1.4,12.3-3.2c1.3,9.3,4.4,16.1,9.8,21.2c7,6.7,18.3,9.9,27.9,8.1c0.3,0.4,0.8,0.6,1.4,0.6c0.2,0,0.5,0,0.7-0.1
	c0.7-0.2,0.9-0.7,0.8-1.2c3.6,2.3,8,4,13,5.1c3.5,0.8,7.5,1.2,11.4,1.2c8.9,0,18-2.2,23.8-7.9c0.5-0.5,0.4-1.2-0.3-1.6
	c-0.7-0.4-1.7-0.3-2.2,0.1c-4.3,3.6-11.2,5.4-18.2,5.2c1.8-1.8,2.9-4.1,4-6.5c0.5-1.1,1-2.3,1.7-3.4c2.1-3.8,2.3-8,0.7-11.9
	c1.3,0.7,2.7,1.3,4.2,1.8c2.8,0.8,5.6,1.2,8.5,1.2c8.5,0,16.9-3.3,22-7.6c6.2-5.2,10-12.6,11.3-22.1c0.5-3.9,0.6-7.8,0.7-11.6
	c0.1-3.8,0.2-7.8,0.8-11.6c0.6-4.2,1.7-8.4,2.7-12.5c1.4-5.5,2.9-11.2,3.2-16.9c0.5-9.9-2.6-19.6-5.6-29c-1.9-5.8-3.8-11.9-4.8-17.9
	c-1.8-10.1-1.1-20.6-0.4-30.8c0.8-11.6,1.6-23.6-1.3-35.2c-3.2-13-10.7-25.1-18.2-36.9c0.1-0.1,0.2-0.1,0.2-0.1
	c0.5-0.5,0.1-1-0.5-1.6c-15-15-17.1-18.5-26.9-35.8c-0.1-0.1-1.4-4.4-4.1-10c0,0-1.8-4.3-2.8-8 M124.9,339.7l-1.4-15.7
	c0,0,0.2-30.3,1.1-35.8c1.5-9.7,4.1-19.2,8-28.3c0.2-0.7,1.1-1.7,1.1-2.8l0.1,0c21-6.7,47.2-15.5,47.2-15.5
	c59.1-18.7,67-41.1,67-41.1s12.4,22.3,55.3,36.9c0,0,14.6,4.8,31.5,10.7c13.3,46.2,12.2,87.8-3.4,124.2c-0.3,0.6,0.2,1.3,1.1,1.5
	c0.2,0,0.3,0.1,0.5,0.1c0.7,0,1.3-0.3,1.5-0.8c1.7-4,3.2-8.1,4.6-12.3c0,0,0.1-0.1,0.1-0.1c11.9-28,16.8-61.9,15.1-95.9
	c2.4,6.2,4.2,12.7,5.4,19.3c0.5,2.4,0.7,4.9,0.8,7.3l1,29.3 M430,169.4L430,169.4C430,169.4,430,169.4,430,169.4
	C430,169.4,430,169.4,430,169.4z M121.7,371.3C121.7,371.3,121.7,371.3,121.7,371.3C121.7,371.3,121.7,371.3,121.7,371.3
	C121.7,371.3,121.7,371.3,121.7,371.3z"/>
<path id="XMLID_9071_" class="st0" d="M361.5,321.6c-2.7,20.9-13.2,62.1-34.9,72.8c-0.7,0.4-0.9,1.1-0.4,1.6c0,0.1,0.1,0.1,0.2,0.1
	c-7.2,11.7-14.4,23.9-17.4,36.9c-2.7,11.7-1.9,23.6-1.2,35.2c0.7,10.1,1.3,20.6-0.3,30.8c-1,6-2.8,12-4.6,17.9
	c-2.9,9.4-5.8,19.1-5.4,29c0.3,5.7,1.7,11.4,3,16.9c1,4.1,2.1,8.3,2.6,12.5c0.5,3.8,0.6,7.8,0.7,11.6c0.1,3.8,0.2,7.7,0.7,11.6
	c1.2,9.4,4.8,16.9,10.8,22.1c5.6,4.9,13.4,7.6,20.9,7.6c2.9,0,5.7-0.4,8.3-1.2c1.4-0.4,2.6-1,3.9-1.7c-1.5,3.9-1.3,8.1,0.7,11.8
	c0.6,1.1,1.1,2.3,1.6,3.4c1,2.3,2.1,4.7,3.8,6.5c-6.6,0.2-13.1-1.6-17.3-5.1c-0.6-0.5-1.6-0.6-2.2-0.2c-0.7,0.4-0.8,1.1-0.3,1.6
	c5.5,5.6,14.3,7.9,22.8,7.9c3.8,0,7.6-0.4,11-1.2c4.7-1.1,8.9-2.8,12.3-5.1c-0.1,0.5,0.2,1,0.8,1.2c0.2,0.1,0.4,0.1,0.7,0.1
	c0.6,0,1.1-0.2,1.4-0.6c9.2,1.7,20-1.5,26.7-8.2c5.2-5.1,8.1-11.9,9.4-21.2c3.6,1.8,7.6,3,11.7,3.2c0.5,0,1,0,1.6,0
	c8.1,0,16.2-3.3,21.6-8.9c4.7-4.8,7.3-11.4,7.7-18.9c0-0.6-0.5-1.1-1.2-1.2c-0.7-0.1-1.5,0.1-1.8,0.6c-2.2,3.3-6.4,5.6-11.9,6.4
	c-4.8,0.7-9.9,0.3-14.2-1.2c3.5-2.2,5.9-5.8,6.4-10.1c0.4-3,0-6.1-0.4-9c-0.1-1.1-0.3-2.3-0.4-3.4c-0.9-9.4,1.5-18.9,3.8-28.1
	c1.3-5.4,2.7-11,3.4-16.6c1.5-11.2-4.8-22.4-10.8-33.2c-3.9-7.1-8-14.4-9.7-21.5c-1.8-7.5-0.1-15.3,1.5-22.8
	c1.7-7.7,3.4-15.6,1.5-23.5c-1.6-6.8-6.3-14.9-11.2-23.4c-5.7-9.8-11.5-19.9-12.3-27.8c-1.5-14,0.3-25,2.1-35.7
	c2.3-13.3,4.3-26-0.7-42.6c-0.5-2.3-1.1-4.6-2-6.9c-0.1-0.2-0.3-0.3-0.5-0.4c2.1-7.6,3.3-15.4,2.6-23.2c-0.2-2.3-0.6-4.6-2-6.8
	c1.7-3.3,3.4-6.4,5.2-9.5c1.8-3.2,3.6-6.5,5.4-10c0.4-0.7,0.7-1.5,1.2-2.2c0,0,0,0,0-0.1c1.3-2.4,3-4.7,5.5-6.4
	c1.4-0.9,3.1-1.6,4.8-2.3c2.3-0.9,4.6-1.9,6.5-3.4c4.8-3.8,4.6-9.6,4-14.6l-2.3-20.4c0,0,0,0,0,0c0,0,0,0,0,0c-0.7-4.6,0-9.3,0.6-14
	c0.7-5.2,1.4-10.5,0.3-15.7c0-0.4,0-0.7,0-1.1c0-0.3-0.2-0.5-0.5-0.7c-0.5-1.6-1.1-3.1-2-4.6c-3-5.2-8.5-9.2-13.9-13.2l-2.6-1.9
	c-4.8-3.6-9.5-6.4-14-9c-8.5-5-15.9-9.3-20.9-17.9c-1.6-2.7-3.2-6.7-4.9-11c-2-5-4.1-10.2-6.2-13.4c-2.7-4-8.7-7.7-15.1-9.2
	c-5.4-1.3-10.7-1-15.4,0.9c-1.3,0.6-3.1,1-4.6,1.3c0,0-0.1,0-0.1,0c-0.5,0.1-1,0.2-1.4,0.2c0,0-0.1,0-0.1,0c0,0,0,0-0.1,0
	c-2,0.2-4.1,0.1-6.1-0.3c0,0,0,0-0.1,0c-5.6-1-11.4-3.9-17.7-7.1c-7.1-3.6-15.2-7.6-24.5-9.5c-10.2-2.1-21.8-4.4-33.3-3.3
	c-9.4,0.9-18.1,3.9-26.6,6.9c-3.8,1.3-7.4,2.6-11.1,3.7c-0.2,0-0.3,0.1-0.5,0.1c-6.4,1.9-12.9,3.2-19.7,2.9
	c-3.2-0.1-6.4-0.6-9.6-1.1c-4.2-0.6-8.7-1.3-13.1-1.1c-9.4,0.3-16.3,5.4-22.9,10.4c-4.6,3.4-9.3,6.9-14.7,8.8
	c-21.8,7.5-37.5,15.3-49.5,24.6c-15.2,11.8-23.7,25.9-23.9,39.7c0,1.9,0.1,3.9,0.2,5.9c0.3,5.1,0.6,9.9-1.7,14.3c-1.7,3.3-4.8,6-8,9
	c-2.3,2-4.6,4.2-6.4,6.5c-3.3,4.1-4.2,9.9-2.3,14.1c1.2,2.6,3.3,4.4,6.3,5.4l2.1,0.7c-2.7,3.4-5.4,7-6.8,11c-1.8,5-1,10,2.1,13.6
	c1.5,1.7,3.5,3.2,5.5,4.6c2.4,1.7,4.6,3.3,5.8,5.3c1.3,2.2,1.2,4.6,1.1,7.3c0,1-0.1,2.1,0,3.1c0.4,9.9,13,24.7,18.4,29
	c0.3,1.4,0.7,2.7,1.1,4.1c-0.2,0.1-0.4,0.2-0.5,0.4c-1,2.3-1.6,4.6-2.1,6.9c-5.3,16.6-3.1,29.3-0.8,42.7c1.9,10.6,3.8,21.6,2.2,35.6
	c-0.9,7.8-7,18-12.9,27.8c-5.2,8.6-10,16.7-11.7,23.4c-2,7.9-0.2,15.9,1.5,23.6c1.7,7.5,3.5,15.2,1.6,22.7
	c-1.8,7.1-6.1,14.4-10.2,21.5c-6.3,10.8-12.8,22-11.3,33.2c0.8,5.6,2.2,11.2,3.6,16.6c2.4,9.2,4.8,18.7,3.9,28.1
	c-0.1,1.1-0.3,2.3-0.4,3.4c-0.4,3-0.8,6-0.4,9.1c0.6,4.4,3.1,7.9,6.7,10.1c-4.6,1.5-10.1,2-15.2,1.2c-5.6-0.9-10-3.2-12.2-6.4
	c-0.3-0.5-1.1-0.8-1.9-0.6c-0.7,0.1-1.2,0.6-1.2,1.2c0.4,7.5,3.2,14,8.1,18.9c5.6,5.6,14.1,8.9,22.5,8.9c0.5,0,1.1,0,1.6,0
	c4.3-0.2,8.5-1.4,12.3-3.2c1.3,9.3,4.4,16.1,9.8,21.2c7,6.7,18.3,9.9,27.9,8.1c0.3,0.4,0.8,0.6,1.4,0.6c0.2,0,0.5,0,0.7-0.1
	c0.7-0.2,0.9-0.7,0.8-1.2c3.6,2.3,8,4,13,5.1c3.5,0.8,7.5,1.2,11.4,1.2c8.9,0,18-2.2,23.8-7.9c0.5-0.5,0.4-1.2-0.3-1.6
	c-0.7-0.4-1.7-0.3-2.2,0.1c-4.3,3.6-11.2,5.4-18.2,5.2c1.8-1.8,2.9-4.1,4-6.5c0.5-1.1,1-2.3,1.7-3.4c2.1-3.8,2.3-8,0.7-11.9
	c1.3,0.7,2.7,1.3,4.2,1.8c2.8,0.8,5.6,1.2,8.5,1.2c8.5,0,16.9-3.3,22-7.6c6.2-5.2,10-12.6,11.3-22.1c0.5-3.9,0.6-7.8,0.7-11.6
	c0.1-3.8,0.2-7.8,0.8-11.6c0.6-4.2,1.7-8.4,2.7-12.5c1.4-5.5,2.9-11.2,3.2-16.9c0.5-9.9-2.6-19.6-5.6-29c-1.9-5.8-3.8-11.9-4.8-17.9
	c-1.8-10.1-1.1-20.6-0.4-30.8c0.8-11.6,1.6-23.6-1.3-35.2c-3.2-13-10.7-25.1-18.2-36.9c0.1-0.1,0.2-0.1,0.2-0.1
	c0.5-0.5,0.1-1-0.5-1.6c-15-15-17.1-18.5-26.9-35.8c-0.1-0.1-1.4-4.4-4.1-10c0,0-1.8-4.3-2.8-8 M124.9,340.7l-1.4-15.7
	c0,0,0.2-30.3,1.1-35.8c1.5-9.7,4.1-19.2,8-28.3c0.2-0.7,1.1-1.7,1.1-2.8l0.1,0c21-6.7,47.2-15.5,47.2-15.5
	c59.1-18.7,67-41.1,67-41.1s12.4,22.3,55.3,36.9c0,0,14.6,4.8,31.5,10.7c13.3,46.2,12.2,87.8-3.4,124.2c-0.3,0.6,0.2,1.3,1.1,1.5
	c0.2,0,0.3,0.1,0.5,0.1c0.7,0,1.3-0.3,1.5-0.8c1.7-4,3.2-8.1,4.6-12.3c0,0,0.1-0.1,0.1-0.1c11.9-28,16.8-61.9,15.1-95.9
	c2.4,6.2,4.2,12.7,5.4,19.3c0.5,2.4,0.7,4.9,0.8,7.3l1,29.3 M430,170.4L430,170.4C430,170.4,430,170.4,430,170.4
	C430,170.4,430,170.4,430,170.4z M121.7,372.3C121.7,372.3,121.7,372.3,121.7,372.3C121.7,372.3,121.7,372.3,121.7,372.3
	C121.7,372.3,121.7,372.3,121.7,372.3z"/>
<g id="XMLID_571_">
	<path id="XMLID_426_" class="st1" d="M364.1,133c0,0,0.1-0.1,0.2-0.3c0.2-0.2,0.4-0.6,0.5-1c0.4-0.9,0.5-2.5-0.2-4.3
		c-0.6-1.8-2.3-3.4-4.7-4.5c-1.2-0.6-2.5-1-3.9-1.4c-1.5-0.4-2.9-0.7-4.6-1c-3.2-0.5-6.7-0.7-10.4-0.4c-3.7,0.3-7.5,1.1-11.3,2.5
		c-1.9,0.7-3.7,1.6-5.8,2.4c-2,0.8-4.4,1.5-7,1.2c-0.6-0.1-1.3-0.2-1.9-0.5l-0.2-0.1c-0.1,0,0,0-0.1-0.1l0,0l-0.1,0l-0.4-0.2
		c-0.2-0.1-0.6-0.3-0.9-0.5c-1.1-0.7-2-1.7-2.7-2.8c-1.4-2.1-2-4.5-2.4-6.8c-0.3-2.3-0.4-4.5-0.6-6.6c-0.2-2.1-0.7-4.1-1.6-5.7
		c-1.9-3.4-5.6-5.3-9.4-6.3c-3.8-1-7.8-1.3-11.5-1.4c-3.7-0.2-7.3-0.1-10.6,0c-6.6,0.3-12,0.9-15.8,1.5c-3.8,0.6-6,1-6,1
		s0.5-0.2,1.5-0.5c1-0.3,2.5-0.7,4.3-1.2c3.8-0.9,9.2-2.1,15.8-2.7c3.3-0.3,6.9-0.5,10.8-0.5c3.8,0,7.9,0.1,12.1,1.1
		c2.1,0.5,4.2,1.3,6.2,2.4c1,0.6,1.9,1.3,2.8,2.1c0.4,0.5,0.8,0.8,1.2,1.4l0.6,0.8c0.2,0.3,0.3,0.5,0.4,0.7c1.3,2.1,1.8,4.5,2.1,6.8
		c0.3,2.3,0.3,4.5,0.6,6.5c0.3,2,0.9,4,1.9,5.6c0.5,0.8,1.1,1.5,1.8,1.9c0.2,0.1,0.3,0.2,0.5,0.3l0.4,0.2l0.1,0l0,0
		c-0.1-0.1,0,0,0,0l0.2,0.1c0.4,0.2,0.8,0.3,1.3,0.3c1.8,0.2,3.7-0.2,5.6-0.9c1.9-0.7,3.8-1.6,5.9-2.3c4-1.4,8.1-2.1,12-2.3
		c3.9-0.2,7.6,0.2,10.9,0.9c1.6,0.4,3.3,0.8,4.7,1.3c1.5,0.5,2.8,1.1,4,1.8c2.4,1.4,4.2,3.4,4.7,5.3c0.6,1.9,0.2,3.6-0.2,4.5
		c-0.2,0.5-0.5,0.8-0.7,1C364.2,132.9,364.1,133,364.1,133z"/>
</g>
<g id="XMLID_608_">
	<path id="XMLID_424_" class="st1" d="M397.2,219.3c0,0,0.3,0,0.8,0.1c0.2,0,0.6,0,0.9,0.1c0.4,0,0.8,0,1.2,0c0.5,0,0.9,0,1.5-0.1
		c0.5-0.1,1.1-0.1,1.7-0.3c0.6-0.1,1.2-0.3,1.9-0.6c0.3-0.1,0.7-0.2,1-0.4c0.3-0.2,0.7-0.3,1-0.5c0.7-0.3,1.3-0.8,2-1.2
		c0.6-0.5,1.4-0.9,2-1.5c1.3-1.1,2.5-2.5,3.5-4c1-1.5,1.8-3.3,2.2-5.1c0.1-0.5,0.1-0.9,0.2-1.4c0-0.2,0.1-0.5,0.1-0.7l0-0.8
		c0-0.5,0-0.9,0-1.4c0-0.5-0.1-1-0.1-1.5c-0.2-2-0.7-4-1.3-5.9c-0.6-2-1.2-4-1.7-5.9c-0.3-1-0.5-1.9-0.7-2.9c-0.2-0.9-0.4-2-0.5-2.9
		c-0.2-1.9-0.2-3.7,0-5.3c0.4-3.3,1.7-5.9,3-7.3c0.3-0.4,0.6-0.7,0.9-0.9c0.3-0.3,0.5-0.4,0.7-0.6c0.4-0.3,0.6-0.4,0.6-0.4
		s-0.2,0.2-0.5,0.6c-0.2,0.2-0.4,0.4-0.6,0.7c-0.2,0.3-0.4,0.6-0.7,1c-0.9,1.5-1.7,4-1.7,7.1c0,1.5,0.2,3.2,0.5,4.9
		c0.2,0.9,0.4,1.7,0.6,2.6c0.3,0.9,0.5,1.8,0.9,2.7c0.6,1.9,1.4,3.8,2,5.8c0.6,2,1.2,4.2,1.5,6.4c0.1,0.6,0.1,1.1,0.1,1.7
		c0,0.6,0,1.2,0,1.7l0,0.8c0,0.4-0.1,0.6-0.1,0.9c-0.1,0.6-0.1,1.1-0.3,1.7c-0.5,2.2-1.6,4.2-2.8,6c-1.2,1.7-2.7,3.2-4.3,4.3
		c-0.8,0.6-1.6,1-2.4,1.5c-0.8,0.4-1.6,0.8-2.4,1c-0.4,0.1-0.8,0.3-1.2,0.4c-0.4,0.1-0.8,0.2-1.1,0.3c-0.7,0.2-1.4,0.3-2.1,0.3
		c-0.7,0.1-1.3,0.1-1.9,0.1c-0.3,0-0.6,0-0.8,0c-0.3,0-0.5-0.1-0.8-0.1c-1-0.1-1.6-0.3-2.1-0.5C397.4,219.4,397.2,219.3,397.2,219.3
		z"/>
</g>
<g id="XMLID_613_">
	<path id="XMLID_422_" class="st1" d="M389.3,408.9c0,0,0.2,0.4,0.7,1.1c0.4,0.7,1.1,1.7,1.8,3c0.8,1.3,1.7,2.9,2.7,4.8
		c1,1.9,2,4.1,2.9,6.5c0.9,2.5,1.8,5.3,2.2,8.3c0.5,3,0.6,6.3,0.4,9.5c-0.1,3.3-0.3,6.6-0.5,10c-0.1,1.7-0.1,3.4-0.1,5.1l0,1.3
		l0.1,1.2l0.2,2.6c0.4,3.3,0.9,6.6,1.8,9.9c0.9,3.2,1.9,6.4,3.1,9.3c1.2,3,2.5,5.8,3.7,8.5c1.3,2.6,2.6,5.1,3.8,7.4
		c2.5,4.5,4.7,8.3,6.2,10.9c1.5,2.6,2.4,4.1,2.4,4.1s-0.3-0.3-0.8-1c-0.5-0.7-1.2-1.6-2.1-2.8c-0.9-1.2-2-2.7-3.2-4.4
		c-1.2-1.7-2.6-3.7-4-5.9c-1.4-2.2-2.9-4.6-4.3-7.2c-1.4-2.6-2.9-5.5-4.2-8.5c-1.3-3-2.5-6.2-3.4-9.6c-0.9-3.4-1.6-6.8-2-10.4
		l-0.2-2.6l-0.1-1.3l0-1.3c0-1.8,0.1-3.5,0.2-5.2c0.2-3.4,0.6-6.8,0.8-10c0.2-3.2,0.3-6.3,0-9.2c-0.3-2.9-0.9-5.6-1.6-8
		c-1.5-4.9-3.3-8.9-4.5-11.6C390,410.5,389.3,408.9,389.3,408.9z"/>
</g>
<g id="XMLID_625_">
	<path id="XMLID_420_" class="st1" d="M52.7,537.9c0,0-0.1-0.4-0.2-1.2c-0.1-0.4-0.1-0.8-0.2-1.4c0-0.3,0-0.6-0.1-0.9
		c0-0.3,0-0.7,0-1c0-2.9,0.8-7,2.7-11.6c0.9-2.3,2.1-4.7,3.4-7.2c0.6-1.2,1.3-2.5,1.9-3.8c0.6-1.3,1.3-2.7,1.9-4
		c0.7-1.4,1.2-2.8,1.8-4.2c0.6-1.4,1.1-2.9,1.7-4.4c0.6-1.5,1-3,1.6-4.5c0.5-1.5,0.9-3.1,1.4-4.6c0.4-1.5,0.8-3.1,1.2-4.6
		c0.3-1.6,0.7-3.1,1-4.7c0.3-1.6,0.5-3.1,0.8-4.6c0.2-1.5,0.4-3.1,0.6-4.5c0.1-1.5,0.3-3,0.4-4.4c0.1-1.4,0.2-2.9,0.3-4.2
		c0.1-2.8,0.2-5.4,0.1-7.8c0-2.4-0.2-4.6-0.2-6.6c-0.2-2-0.3-3.7-0.4-5.1c-0.3-2.8-0.5-4.4-0.5-4.4s0.4,1.6,1.1,4.4
		c0.3,1.4,0.6,3.1,1,5.1c0.3,2,0.6,4.2,0.8,6.7c0.2,2.4,0.3,5.1,0.4,7.9c0,1.4,0,2.9-0.1,4.3c-0.1,1.5-0.2,3-0.3,4.5
		c-0.2,1.5-0.3,3.1-0.5,4.7c-0.2,1.6-0.5,3.2-0.7,4.8c-0.3,1.6-0.7,3.2-1,4.8c-0.4,1.6-0.8,3.2-1.2,4.8c-0.5,1.6-0.9,3.2-1.5,4.7
		c-0.6,1.5-1.1,3.1-1.6,4.6c-0.6,1.5-1.2,3-1.8,4.5c-0.7,1.4-1.3,2.9-2,4.3c-0.7,1.4-1.4,2.7-2.1,4c-0.7,1.3-1.4,2.5-2.1,3.7
		c-1.4,2.4-2.7,4.7-3.8,6.8c-2.2,4.3-3.4,8.1-3.7,10.9c-0.1,0.7-0.1,1.3-0.2,1.9c0,0.5-0.1,1,0,1.4
		C52.7,537.5,52.7,537.9,52.7,537.9z"/>
</g>
<g id="XMLID_626_">
	<path id="XMLID_359_" class="st1" d="M143.7,534.3c0,0,0.2,0.4,0.5,1c0.2,0.3,0.4,0.7,0.6,1.3c0.2,0.5,0.4,1.1,0.6,1.8
		c0.8,2.7,1.3,6.9,0.4,11.7c-0.4,2.4-1.1,5-2.1,7.6c-1,2.6-2.2,5.3-3.6,8c-1.4,2.6-2.8,5.4-4.3,8.2c-1.4,2.8-2.8,5.6-3.9,8.5
		c-0.6,1.4-1,2.9-1.4,4.4l-0.3,1.1l-0.2,1.2c-0.1,0.8-0.3,1.6-0.4,2.3c-0.1,0.7-0.2,1.5-0.2,2.2c0,0.7-0.1,1.5-0.1,2.2
		c0,1.5,0,3,0.2,4.4c0.3,2.9,0.7,5.7,1.3,8.3c0.6,2.6,1.3,5.1,2,7.4c0.7,2.3,1.4,4.3,2.1,6.2c0.7,1.8,1.3,3.4,1.7,4.7
		c1,2.6,1.5,4.1,1.5,4.1s-0.2-0.4-0.5-1c-0.4-0.7-0.9-1.6-1.5-2.9c-0.6-1.2-1.4-2.8-2.2-4.5c-0.8-1.8-1.8-3.8-2.6-6
		c-0.9-2.2-1.8-4.7-2.6-7.4c-0.8-2.7-1.4-5.6-1.8-8.6c-0.4-3.1-0.5-6.2-0.1-9.5c0.1-0.9,0.2-1.6,0.4-2.4l0.2-1.2l0.3-1.3
		c0.4-1.6,0.9-3.2,1.5-4.7c1.2-3.1,2.6-6,4.1-8.8c1.5-2.8,3.1-5.4,4.5-8c1.4-2.6,2.8-5.1,3.8-7.6c1.1-2.5,1.9-4.9,2.5-7.1
		c1.1-4.5,1.1-8.5,0.7-11.2c-0.1-0.7-0.2-1.3-0.4-1.8c-0.1-0.5-0.2-1-0.4-1.3C143.9,534.6,143.7,534.3,143.7,534.3z"/>
</g>
<g id="XMLID_650_">
	<path id="XMLID_357_" class="st1" d="M49.4,629.1c0,0,0.2-0.2,0.6-0.7c0.4-0.4,0.9-1.1,1.6-1.9c0.3-0.4,0.7-0.9,1.1-1.4
		c0.4-0.5,0.8-1.1,1.2-1.7c0.4-0.6,0.8-1.3,1.3-2c0.4-0.7,0.8-1.5,1.3-2.3c0.8-1.6,1.7-3.4,2.4-5.4c0.7-1.9,1.3-4,1.8-6.2
		c0.5-2.2,0.7-4.5,0.9-6.9c0.1-2.3,0-4.8-0.1-7.2c-0.1-2.5-0.2-5-0.1-7.5c0.1-1.3,0.2-2.5,0.4-3.8c0.1-0.6,0.2-1.2,0.4-1.9
		c0.2-0.6,0.3-1.1,0.5-1.7c0.8-2.4,2-4.4,3.2-6.2c1.2-1.8,2.6-3.4,3.9-4.8c2.6-2.7,5.1-4.7,6.8-6c1.7-1.3,2.7-2.1,2.7-2.1
		s-0.8,0.9-2.3,2.5c-0.7,0.8-1.6,1.8-2.6,2.9c-1,1.1-2.1,2.4-3.2,3.8c-1.1,1.4-2.3,3.1-3.3,4.8c-1,1.8-1.9,3.8-2.6,5.8
		c-0.2,0.5-0.3,1.1-0.4,1.7c-0.1,0.5-0.2,1.1-0.3,1.6c-0.2,1.1-0.2,2.3-0.3,3.4c-0.1,2.3,0.1,4.8,0.2,7.3c0.1,2.5,0.2,5,0,7.5
		c-0.2,2.5-0.6,5-1.2,7.3c-0.6,2.3-1.4,4.5-2.3,6.5c-0.9,2-1.9,3.8-3,5.4c-1,1.6-2.1,3-3.1,4.1c-0.5,0.6-1,1.1-1.4,1.6
		c-0.5,0.5-0.9,0.9-1.3,1.3c-0.8,0.8-1.5,1.3-1.9,1.6C49.6,629,49.4,629.1,49.4,629.1z"/>
</g>
<g id="XMLID_653_">
	<path id="XMLID_355_" class="st1" d="M428,621c0,0-0.3,0-0.8,0c-0.5-0.1-1.3-0.1-2.2-0.4c-1.8-0.6-4.4-2.1-6.4-4.8
		c-1-1.3-1.9-2.9-2.7-4.7c-0.7-1.8-1.4-3.7-1.9-5.6c-0.5-2-1.1-3.9-1.6-6c-0.5-2.1-0.9-4.3-1.1-6.5c-0.2-2.2-0.2-4.5,0.2-6.7
		c0.3-2.2,1.1-4.4,2.1-6.3l0.4-0.7l0.4-0.7c0.3-0.5,0.6-0.9,0.9-1.3c0.6-0.8,1.2-1.6,1.8-2.3c1.2-1.4,2.4-2.7,3.5-3.9
		c1.1-1.2,2-2.3,2.7-3.3c0.8-1,1.3-2,1.7-2.8c0.4-0.8,0.7-1.5,0.8-2c0.1-0.5,0.2-0.7,0.2-0.7s0,0.3-0.1,0.8c0,0.5-0.1,1.3-0.4,2.2
		c-0.3,0.9-0.6,2-1.3,3.2c-0.6,1.2-1.4,2.5-2.4,3.8c-0.9,1.3-2,2.7-3.1,4.2c-0.5,0.7-1,1.5-1.5,2.3c-0.2,0.4-0.5,0.8-0.7,1.2
		l-0.3,0.6l-0.3,0.7c-0.8,1.7-1.3,3.6-1.6,5.5c-0.3,2-0.2,4,0,6c0.2,2.1,0.5,4.1,0.9,6.1c0.4,2,0.9,4.1,1.3,6
		c0.5,1.9,0.9,3.8,1.4,5.5c0.6,1.7,1.2,3.2,2,4.5c0.8,1.3,1.7,2.4,2.6,3.3c0.9,0.9,1.8,1.5,2.6,1.9c0.8,0.4,1.5,0.7,2,0.8
		C427.7,621,428,621,428,621z"/>
</g>
<g id="XMLID_657_">
	<path id="XMLID_353_" class="st1" d="M335.1,630.9c0,0,1.4-0.3,3.8-1c1.2-0.3,2.6-0.7,4.2-1.3c1.6-0.6,3.4-1.3,5.1-2.3
		c0.4-0.2,0.9-0.5,1.3-0.8c0.2-0.2,0.4-0.3,0.7-0.5c0.2-0.2,0.4-0.3,0.6-0.5c0.8-0.7,1.6-1.5,2.3-2.4c1.4-1.8,2.4-4,2.6-6.3
		c0-0.6,0-1.2,0-1.7l-0.1-0.4l-0.1-0.4c-0.1-0.3-0.1-0.7-0.3-0.9l-0.3-0.8l-0.4-0.8c-0.3-0.5-0.6-1.1-1-1.5c-1.5-2-3.6-3.7-5.9-5.4
		c-1.1-0.9-2.3-1.7-3.4-2.6c-0.6-0.5-1.1-0.9-1.7-1.4c-0.5-0.5-1-0.9-1.5-1.4c-2.1-2.1-3.8-4.4-5.2-6.7c-1.4-2.3-2.4-4.8-3.2-7.2
		c-0.8-2.4-1.2-4.7-1.4-6.9c-0.1-1.1-0.2-2.1-0.2-3.1c0-0.5,0-1,0-1.4c0-0.5,0.1-0.9,0.1-1.4c0-0.9,0.2-1.7,0.3-2.4
		c0.1-0.4,0.1-0.7,0.2-1.1c0.1-0.3,0.2-0.7,0.2-1c0.3-1.2,0.6-2.1,0.8-2.8c0.2-0.6,0.3-1,0.3-1s-0.1,0.3-0.2,1
		c-0.1,0.3-0.1,0.7-0.2,1.2c-0.1,0.5-0.1,1-0.2,1.6c0,0.3-0.1,0.6-0.1,1c0,0.3,0,0.7,0,1.1c0,0.7-0.1,1.5,0,2.4c0,0.4,0,0.9,0,1.3
		c0,0.4,0.1,0.9,0.1,1.4c0.1,0.9,0.3,1.9,0.4,2.9c0.4,2,1,4.2,1.8,6.4c0.9,2.2,1.9,4.4,3.3,6.5c1.4,2.1,3.1,4.1,4.9,5.9
		c0.5,0.5,1,0.9,1.6,1.4c0.4,0.4,1,0.8,1.6,1.2c1.1,0.8,2.3,1.7,3.4,2.5c2.3,1.7,4.6,3.6,6.4,6c0.9,1.2,1.6,2.5,2.1,4.2
		c0.1,0.4,0.2,0.7,0.2,1l0.1,0.2l0,0.1l0,0.1c0,0,0,0.2,0,0.1l0,0l0.1,0.6c0.1,0.8,0.1,1.5,0,2.3c-0.3,3-1.8,5.5-3.5,7.4
		c-0.9,1-1.8,1.8-2.8,2.5c-0.3,0.2-0.5,0.4-0.8,0.5c-0.2,0.1-0.5,0.3-0.7,0.4c-0.5,0.3-1,0.6-1.5,0.8c-2,1-3.9,1.5-5.6,1.9
		c-1.7,0.4-3.2,0.6-4.4,0.7c-1.2,0.2-2.2,0.2-2.9,0.3C335.5,630.9,335.1,630.9,335.1,630.9z"/>
</g>
<g id="XMLID_658_">
	<path id="XMLID_351_" class="st1" d="M49.2,264.7l0.2,1.6l0.3,1.5l0.4,1.5l0.4,1.5l0.5,1.5l0.6,1.4l0.6,1.4l0.7,1.4l0.8,1.3
		l0.8,1.3l0.9,1.2l1,1.2l1,1.1l1.1,1.1l1.1,1l1.2,1l1.2,0.9l1.2,0.8l1.3,0.8l1.3,0.7l1.4,0.6l1.4,0.6l1.4,0.5l1.4,0.4l1.5,0.4
		l1.5,0.3l1.5,0.2l1.5,0.1l1.5,0l1.5,0l1.5-0.1l1.5-0.2l2.1-0.2l-0.4,2c-0.6,2.8-0.8,5.7-1.1,8.7l-0.6,8.9l-0.6,8.9
		c-0.2,3-0.5,6-0.8,8.9c-0.3,3-0.7,6-1.2,8.9c-0.5,3-1,5.9-1.8,8.8c-0.8,2.9-1.7,5.8-3,8.5c-0.7,1.3-1.4,2.7-2.4,3.8
		c-1,1.2-2.1,2.2-3.4,2.9c1.3-0.8,2.3-1.9,3.1-3.2c0.8-1.2,1.5-2.5,2-3.9c1.1-2.7,1.8-5.6,2.4-8.5c0.6-2.9,1-5.8,1.3-8.8
		c0.3-2.9,0.6-5.9,0.8-8.9c0.2-3,0.3-5.9,0.5-8.9l0.4-8.9c0.1-3,0.3-6,0.5-9c0.2-3,0.5-6,1.1-9.1l1.7,1.8l-1.6,0.2l-1.7,0.1l-1.7,0
		l-1.7-0.1l-1.6-0.2l-1.6-0.2l-1.6-0.3l-1.6-0.4l-1.6-0.5l-1.5-0.6l-1.5-0.7l-1.5-0.7l-1.4-0.8l-1.4-0.9l-1.4-1l-1.2-1l-1.2-1.1
		l-1.1-1.2l-1.1-1.2l-1-1.3l-0.9-1.4l-0.8-1.4l-0.8-1.4l-0.7-1.5l-0.6-1.5l-0.5-1.5l-0.4-1.5l-0.3-1.6l-0.3-1.6l-0.2-1.6l-0.1-1.6
		L49.2,264.7z"/>
</g>
<g id="XMLID_670_">
	<path id="XMLID_349_" class="st1" d="M425.6,235.3c0,0-0.6-0.1-1.7-0.2c-0.6,0-1.3-0.1-2.1,0c-0.8,0.1-1.8,0.1-2.8,0.3
		c-2.1,0.4-4.5,1.2-7.1,2.7c-1.2,0.8-2.5,1.7-3.7,2.8c-1.2,1.1-2.4,2.3-3.5,3.7c-1.1,1.4-2,3-2.9,4.7c-0.4,0.9-0.8,1.8-1.1,2.7
		c-0.3,0.9-0.6,1.9-0.9,2.9c-1,4-1.4,8.3-1.3,12.8c0.1,4.5,0.8,9.1,1.6,13.8c0.9,4.7,1.9,9.5,2.8,14.4c0.4,2.4,0.8,4.9,1.1,7.4
		c0.1,1.2,0.2,2.5,0.3,3.7l0.1,1.8l0.1,1.9c0.1,4.9-0.2,9.7-0.4,14.3c-0.2,4.6-0.3,9,0,13.1c0.1,1,0.2,2.1,0.3,3
		c0.1,0.5,0.1,1,0.2,1.5c0.1,0.5,0.2,1,0.3,1.4c0.1,0.9,0.4,1.9,0.6,2.8c0.3,0.9,0.5,1.8,0.8,2.6c1.1,3.4,2.6,6.4,4.3,8.8
		c1.7,2.4,3.5,4.3,5.1,5.6c0.4,0.4,0.8,0.6,1.2,0.9c0.4,0.3,0.7,0.5,1.1,0.7c0.7,0.4,1.3,0.8,1.9,1c1.1,0.5,1.6,0.7,1.6,0.7
		s-0.6-0.2-1.7-0.5c-0.6-0.2-1.2-0.5-2-0.8c-0.4-0.2-0.8-0.4-1.2-0.6c-0.4-0.2-0.9-0.5-1.3-0.8c-1.8-1.2-3.8-3-5.7-5.4
		c-1.9-2.4-3.6-5.4-5-8.9c-0.4-0.9-0.6-1.8-1-2.7c-0.3-0.9-0.6-1.9-0.8-2.9c-0.1-0.5-0.2-1-0.3-1.5c-0.1-0.5-0.2-1-0.3-1.5
		c-0.2-1.1-0.3-2.1-0.4-3.2c-0.4-4.3-0.5-8.8-0.4-13.4c0.1-4.6,0.3-9.3,0.2-14.1l-0.1-1.8l-0.1-1.8c-0.1-1.2-0.2-2.4-0.3-3.6
		c-0.3-2.4-0.7-4.8-1.1-7.2c-0.8-4.8-1.9-9.6-2.7-14.4c-0.9-4.8-1.4-9.6-1.4-14.3c0-4.7,0.6-9.3,1.8-13.4c0.3-1,0.7-2,1.1-3
		c0.4-1,0.8-2,1.3-2.8c1-1.8,2.1-3.5,3.3-4.9c2.5-2.9,5.3-5,8-6.4c2.7-1.4,5.3-2.1,7.5-2.3c2.2-0.3,3.9,0,5,0.2
		C425,235.2,425.6,235.3,425.6,235.3z"/>
</g>
<g id="XMLID_671_">
	<path id="XMLID_327_" class="st1" d="M118,117.3c0,0-0.4,0.1-1.3,0.2c-0.4,0.1-0.9,0.2-1.5,0.4c-0.6,0.2-1.2,0.5-1.9,0.8
		c-1.4,0.7-2.8,1.9-4.2,3.5c-1.4,1.6-2.5,3.8-3.4,6.2c-0.4,1.2-0.7,2.5-0.9,3.9c-0.1,0.6-0.2,1.5-0.2,2.1c0,0.7-0.1,1.5-0.1,2.2
		c0,3,0.5,6.2,0.9,9.5c0.5,3.3,1.1,6.8,1.2,10.5c0.1,3.7-0.2,7.5-1.4,11.1c-0.6,1.8-1.5,3.6-2.6,5.2c-1.1,1.6-2.6,3-4.1,4.1
		c-1.6,1.1-3.3,1.9-5,2.5c-1.7,0.6-3.3,1.2-4.9,1.7c-1.6,0.5-3,1.2-4.4,1.9c-0.3,0.2-0.7,0.4-1,0.6l-0.2,0.1l-0.1,0c0,0,0.1-0.1,0,0
		l0,0l-0.1,0.1l-0.5,0.4c-0.3,0.2-0.7,0.5-0.9,0.7c-0.3,0.2-0.5,0.5-0.8,0.7c-0.5,0.5-0.9,1.1-1.4,1.6c-0.4,0.6-0.8,1.1-1.2,1.8
		c-0.3,0.6-0.7,1.2-1,1.8c-0.1,0.3-0.3,0.6-0.4,0.9c-0.1,0.3-0.2,0.6-0.3,0.9c-0.9,2.5-1.4,4.9-1.8,7c-0.3,2.1-0.5,4-0.6,5.6
		c-0.2,3.1-0.3,5-0.3,5s0-0.5-0.1-1.3c-0.1-0.8-0.2-2.1-0.2-3.7c0-1.6-0.1-3.5,0.1-5.7c0.2-2.2,0.5-4.7,1.3-7.4c0.8-2.7,2-5.6,4.3-8
		c0.3-0.3,0.6-0.6,0.9-0.9c0.3-0.3,0.6-0.5,0.9-0.8l0.5-0.4l0.1-0.1l0,0l0.1-0.1l0.1,0l0.3-0.2c0.4-0.2,0.7-0.5,1.1-0.7
		c1.5-0.9,3.1-1.6,4.7-2.2c3.2-1.2,6.5-2.3,9.1-4.1c2.7-1.9,4.5-4.7,5.6-7.9c1.1-3.2,1.4-6.7,1.4-10.1c-0.1-3.5-0.5-6.9-0.9-10.3
		c-0.4-3.4-0.6-6.7-0.5-9.9c0-0.8,0.1-1.6,0.2-2.4c0.1-0.8,0.2-1.5,0.3-2.3c0.3-1.5,0.8-2.9,1.3-4.2c1.1-2.6,2.6-4.8,4.2-6.4
		c1.6-1.6,3.3-2.7,4.8-3.3c0.7-0.3,1.4-0.5,2-0.6c0.6-0.1,1.1-0.2,1.6-0.2C117.5,117.3,118,117.3,118,117.3z"/>
</g>
<g id="XMLID_673_">
	<path id="XMLID_325_" class="st1" d="M97.2,189.1c0,0-0.8,0.7-2.3,1.9c-1.5,1.2-3.6,2.9-5.9,5.1c-1.1,1.1-2.3,2.4-3.4,3.8
		c-1.1,1.4-2,3-2.7,4.7c-0.7,1.7-1,3.6-1,5.6c0,1.9,0.4,3.9,1,5.9c0.5,2,1.2,4.1,1.6,6.3c0.5,2.1,0.6,4.5,0.4,6.6
		c-0.3,2.2-1,4.2-1.9,6c-0.9,1.7-2,3.2-3.2,4.4c-1.2,1.2-2.4,2.1-3.6,2.8c-0.6,0.4-1.2,0.6-1.7,0.9c-0.5,0.2-1,0.4-1.5,0.6
		c-0.9,0.3-1.7,0.4-2.2,0.5c-0.5,0.1-0.8,0.1-0.8,0.1s0.3-0.1,0.7-0.3c0.5-0.2,1.1-0.5,2-0.9c0.4-0.2,0.8-0.5,1.3-0.8
		c0.4-0.3,1-0.6,1.4-1.1c1-0.8,2-1.8,3-3c1-1.2,1.8-2.7,2.5-4.3c0.7-1.6,1.1-3.4,1.3-5.2c0.2-1.9-0.1-3.8-0.6-5.8
		c-0.4-2-1.1-4-1.7-6.1c-0.6-2.1-1-4.4-1-6.8c0-2.3,0.6-4.6,1.5-6.6c0.9-2,2.1-3.7,3.4-5.1c1.3-1.4,2.7-2.6,4-3.6
		c2.6-2,5-3.4,6.7-4.3c0.8-0.5,1.5-0.8,2-1C96.9,189.2,97.2,189.1,97.2,189.1z"/>
</g>
<g id="XMLID_674_">
	<path id="XMLID_323_" class="st1" d="M331.6,377.7c0,0-0.2,0.3-0.7,1c-0.4,0.6-1.1,1.6-1.9,2.8c-0.8,1.2-1.7,2.7-2.7,4.4
		c-0.5,0.9-1,1.8-1.6,2.8c-0.5,1-1.1,2-1.7,3.1c-1.1,2.2-2.3,4.6-3.4,7.2c-1.1,2.6-2.2,5.4-3.3,8.3c-1.1,2.9-2,5.9-3,9
		c-0.9,3.1-1.8,6.3-2.5,9.5c-0.8,3.2-1.5,6.4-2.1,9.6c-0.6,3.2-1.2,6.3-1.7,9.4c-0.5,3.1-1,6-1.4,8.8c-0.4,2.8-0.8,5.5-1.2,7.9
		c-0.7,4.9-1.3,9-1.7,11.9c-0.5,2.9-0.7,4.5-0.7,4.5s0-1.7,0.1-4.6c0.1-2.9,0.3-7.1,0.6-12c0.2-2.5,0.4-5.2,0.7-8
		c0.3-2.8,0.6-5.9,1-8.9c0.4-3.1,0.9-6.3,1.5-9.5c0.6-3.2,1.3-6.5,2-9.8c0.8-3.3,1.7-6.5,2.7-9.6c1-3.1,2.1-6.2,3.3-9.1
		c1.2-2.9,2.4-5.7,3.7-8.3c1.3-2.6,2.6-5,3.9-7.1c0.7-1.1,1.3-2.1,1.9-3c0.6-0.9,1.3-1.8,1.8-2.7c1.2-1.7,2.3-3.1,3.2-4.2
		c0.9-1.2,1.7-2,2.2-2.6C331.3,378,331.6,377.7,331.6,377.7z"/>
</g>
</svg>
