<?xml version="1.0" encoding="utf-8"?>
<!-- Generator: Adobe Illustrator 19.0.0, SVG Export Plug-In . SVG Version: 6.00 Build 0)  -->
<svg version="1.1" id="Layer_1" xmlns="http://www.w3.org/2000/svg" xmlns:xlink="http://www.w3.org/1999/xlink" x="0px" y="0px"
	 viewBox="0 0 374.3 328.4" style="enable-background:new 0 0 374.3 328.4;" xml:space="preserve">
<style type="text/css">
	.st0{fill:#EF7B05;}
	.st1{fill:#FFFFFF;}
</style>
<g id="XMLID_7737_">
	<path id="XMLID_7949_" class="st0" d="M63.9,314c0.2,2.9,0.3,5.8,0.2,8.7c-6.6-6.8-12.5-24-14.2-33.2c-1.3-6.7,1.2-27.2-11.2-21.7
		c-0.2-1.6-1.7-3.6-1.7-5.4c-1.9,2-3.3,5-5.2,7c-1.5-3-1.7-6.3-2.7-9.4c-2.3,1.1-5,2.7-7.7,2.9c-0.9,0.1-3.6-21.5-3.5-23.6
		c0.4-6.7,3.4-12.6,4.9-19.1c-2.2,0.3-4.8-0.6-7-0.2c1.9-4.5,5.3-9.5,6.2-14.1c-3.9-0.2-8.3,0.4-11.8-0.9c8-9.7,10.5-20,12.7-31.9
		c1-5.5,3.6-12.9,3-18.3c-0.3-3.2-3.4-4.9-2.9-8.7c0.5-3.8,4.7-7.6,6-11.2c2-5.4,1.9-11.6,2.8-17.4c1.2-7.8,0-10,7-15
		c6.3-4.5,9.9-8.3,13.6-15.3c4.4-8.5,12.9-18.1,19.7-25.7c4.2-4.7,9.5-8,13.9-12.4c4.6-4.5,5.3-9.5,10.4-14.4
		c9.4-9,23.3-13,35.7-13.7c6-0.4,13-0.7,19.1-1.6c6.7-1.1,11.2-5.3,17.5-7.8c12.2-4.9,23.2,5.6,35.9,6.2c6.7,0.3,12.3,0,18.3,2.6
		c9.5,4.1,18.2,7.8,23.3,17.2c-0.5-0.9,16.7-6.7,17.7-6.9c36.4-8.7,56,26.6,64,57.3c2.8,10.6,4.5,22.1,9.9,31.9
		c5,9.1,10.1,19.5,9.2,30.2c-1.1-0.1-2.6,0.4-3.8,0.2c0.9,2.3,4.1,7.4,3.9,10.2c-0.3,4.3-3.2,8.1-3.7,12.6
		c-0.8,7.5,1.9,15.1,0.4,22.5c-2.3,11.4-2.6,15.1,4.2,25.3c5.2,7.9,8.9,12.1-2.5,14.7c0.5,2.3,0.4,4.9,1.4,6.9
		c-7.1,0.4-11.2-1-14.9,5.9c-2.3,4.3,0.7,15.2-6.4,14.3c-0.6,9.7-3.7,18.7-8.1,27.5c-0.3-1.8-1.2-3.4-1.6-5.1
		c-0.7,12.3-7.1,26.1-12,36.9c-0.4-26.9,6.6-53-5.5-78.6c-6.5-13.7-13-25.9-10.2-40.8c2.5-13.2,3.1-29.5-5.3-40.9
		c-8.4-11.5-19.2-11.3-31.7-11.3c-12.9,0-28.1-0.3-40.3,3.9c-10.9,3.7-21.2,6.2-32.8,6.6c-18.6,0.7-38-5.5-55.6-10.6
		c-14.6-4.2-31-1.7-44.6,4.8c-10.9,5.2-13.6,17.7-13.5,29.1c0.1,6.3,0.5,13,2,19.1c1.6,6.4,4.9,12.1,3.9,19
		c-1.2,8-8.2,13.8-9.5,21.8c-1.1,6.2,0,13.6,0,20c0,9.1-1.3,17.2-0.1,26.1C62,297.8,63.3,305.9,63.9,314z"/>
	<g id="XMLID_7886_">
		<g id="XMLID_7947_">
			<path id="XMLID_7948_" class="st1" d="M21.2,170.4c0,0,0.5,0,1.4,0c0.9-0.1,2.2-0.2,3.9-0.6c3.3-0.8,7.7-3.2,11.7-7.4
				c4.1-4.2,7.2-10.4,9.8-17.2c2.6-6.8,5-14.3,8.8-21.2c3.7-6.9,8.3-13.4,13.4-18.8c5.1-5.4,10.5-9.8,15.6-13C91,89,95.6,87,99,85.8
				c3.4-1.2,5.4-1.7,5.6-1.7c0.1,0,2.1-0.5,5.6-1.1c3.4-0.5,8.3-0.9,14.2-0.5c5.8,0.4,12.5,1.7,19.2,4.4c6.7,2.6,13.4,6.7,19,11.9
				c5.7,5.2,10.2,11.5,13.2,18c3.1,6.5,4,13.3,3.6,19c-0.5,5.7-2.4,10.2-4.2,13c-0.9,1.4-1.7,2.4-2.3,3c-0.6,0.7-0.9,1-0.9,1
				s0.3-0.4,0.9-1c0.6-0.6,1.4-1.7,2.3-3.1c1.7-2.8,3.6-7.3,3.9-12.9c0.3-5.6-0.7-12.3-3.9-18.6c-3.2-6.3-7.7-12.4-13.4-17.4
				c-5.6-5-12.2-8.8-18.8-11.3c-6.6-2.5-13.2-3.6-18.8-3.9c-5.7-0.3-10.4,0.2-13.7,0.7c-3.3,0.6-5.2,1.1-5.3,1.1
				c-0.1,0-2.1,0.4-5.4,1.5c-3.3,1.1-7.8,2.9-12.8,5.9c-5,3-10.4,7.2-15.5,12.4c-5.1,5.2-9.7,11.5-13.5,18.3
				c-3.9,6.7-6.5,14.1-9.2,20.9c-2.7,6.8-6,13-10.2,17.1c-4.1,4.2-8.7,6.5-12,7.2c-1.7,0.4-3,0.5-3.9,0.6
				C21.7,170.4,21.2,170.4,21.2,170.4z"/>
		</g>
		<g id="XMLID_7945_">
			<path id="XMLID_7946_" class="st1" d="M26.8,168c0,0,0.4-0.1,1.1-0.1c0.4-0.1,0.8-0.1,1.4-0.2c0.5-0.1,1.1-0.3,1.8-0.4
				c0.7-0.2,1.4-0.4,2.2-0.7c0.8-0.3,1.6-0.7,2.5-1c1.7-0.9,3.6-1.9,5.5-3.4c1.9-1.4,3.8-3.2,5.7-5.1c1.9-2,3.6-4.3,5.3-6.7
				c3.4-4.9,6.1-10.7,8.9-16.4c2.8-5.8,5.6-11.6,9.1-16.6c3.4-5.1,7.4-9.2,11.4-12.2c1-0.7,2-1.4,2.9-2c0.9-0.6,1.9-1.1,2.8-1.6
				c1.7-1.1,3.4-1.7,4.7-2.3c1.3-0.6,2.4-1,3.2-1.3c0.8-0.3,1.2-0.4,1.3-0.4c0.1,0,0.5-0.2,1.2-0.4c0.8-0.2,1.9-0.5,3.2-0.8
				c2.8-0.7,6.7-1.3,11.5-1.5c4.8-0.2,10.3,0.2,16.1,1.5c5.8,1.3,11.7,3.5,17.2,6.6c2.7,1.7,5.3,3.5,7.4,5.7c1.2,1,2.1,2.3,3.1,3.4
				c0.4,0.6,0.9,1.2,1.3,1.9c0.2,0.3,0.4,0.6,0.6,0.9l0.5,1c0.3,0.7,0.7,1.3,1,1.9c0.3,0.7,0.5,1.3,0.8,2l0.4,1
				c0.1,0.3,0.2,0.7,0.3,1c0.2,0.7,0.3,1.3,0.4,2c0.4,2.7,0.3,5.2-0.1,7.5c-0.8,4.6-2.9,8.1-4.8,10c-0.5,0.5-0.9,0.9-1.3,1.3
				c-0.4,0.3-0.7,0.6-1,0.8c-0.6,0.4-0.9,0.6-0.9,0.6s0.3-0.2,0.9-0.7c0.3-0.2,0.6-0.5,1-0.9c0.4-0.3,0.8-0.8,1.3-1.3
				c1.8-2,3.8-5.4,4.5-10c0.3-2.3,0.4-4.8-0.1-7.4c-0.1-0.6-0.2-1.3-0.5-1.9l-0.3-1l-0.4-1c-0.3-0.6-0.5-1.3-0.8-1.9
				c-0.3-0.6-0.7-1.2-1-1.9l-0.5-0.9c-0.2-0.3-0.4-0.6-0.6-0.9c-0.4-0.6-0.9-1.2-1.3-1.8c-1-1.1-1.9-2.3-3.1-3.2
				c-2.2-2.1-4.7-3.8-7.4-5.4c-5.4-3-11.3-5-16.9-6.1c-5.7-1.1-11.1-1.4-15.7-1.1c-4.6,0.3-8.4,1-11.1,1.7c-1.3,0.4-2.4,0.6-3.1,0.8
				c-0.7,0.3-1.1,0.4-1.2,0.4c-0.1,0-0.5,0.2-1.2,0.4c-0.7,0.3-1.8,0.6-3.1,1.2c-1.3,0.6-2.9,1.2-4.6,2.1c-0.8,0.5-1.8,0.9-2.7,1.5
				c-0.9,0.6-1.8,1.2-2.8,1.9c-3.8,2.8-7.8,6.7-11.2,11.5c-3.5,4.8-6.4,10.5-9.3,16.2c-2.9,5.7-5.8,11.4-9.4,16.3
				c-1.8,2.4-3.6,4.7-5.5,6.7c-1.9,2-3.9,3.7-5.9,5.1c-1.9,1.4-3.9,2.4-5.7,3.3c-0.9,0.4-1.7,0.7-2.5,1c-0.8,0.2-1.5,0.5-2.2,0.6
				c-0.7,0.1-1.3,0.3-1.8,0.4c-0.5,0.1-1,0.1-1.4,0.2C27.2,168,26.8,168,26.8,168z"/>
		</g>
		<g id="XMLID_7943_">
			<path id="XMLID_7944_" class="st1" d="M81.1,94c0,0,0.2-0.3,0.6-0.8c0.4-0.5,1-1.3,1.7-2.2c1.6-1.8,4-4.3,7.4-6.7
				c3.4-2.4,7.7-4.7,12.7-6.3c4.9-1.6,10.5-2.6,16.1-2.8c5.6-0.2,11.2,0.3,16.3,1.7c1.3,0.3,2.6,0.5,3.8,0.9
				c1.2,0.4,2.4,0.8,3.5,1.2c2.3,0.7,4.4,1.6,6.3,2.5c1,0.4,1.9,0.8,2.8,1.2c0.9,0.4,1.7,0.9,2.4,1.3c1.5,0.8,2.9,1.5,4,2.1
				c2.1,1.3,3.4,2.1,3.5,2.1c0.1,0.1,1.3,0.8,3.3,2.2c2,1.4,4.8,3.4,8,6c0.8,0.6,1.6,1.3,2.5,2c0.8,0.7,1.7,1.4,2.6,2.2
				c1.8,1.5,3.6,3.1,5.5,4.8c3.7,3.5,7.5,7.4,10.2,12.2c0.6,1.2,1.3,2.4,1.8,3.7c0.2,0.6,0.5,1.2,0.7,1.9c0.2,0.7,0.4,1.3,0.5,2
				c0.6,2.6,0.6,5.3,0.3,7.8c-0.3,2.5-1,4.9-1.9,7c-0.9,2.1-2,4-3.2,5.7c-2.3,3.3-4.8,5.6-6.7,7c-0.9,0.7-1.7,1.2-2.2,1.6
				c-0.5,0.3-0.8,0.5-0.8,0.5s0.3-0.2,0.8-0.5c0.5-0.3,1.3-0.9,2.2-1.6c1.8-1.5,4.2-3.8,6.5-7.1c1.1-1.7,2.2-3.6,3-5.7
				c0.8-2.1,1.5-4.4,1.7-6.9c0.2-2.5,0.1-5-0.5-7.5c-0.2-0.6-0.4-1.2-0.6-1.9c-0.2-0.6-0.5-1.2-0.7-1.8c-0.5-1.2-1.2-2.4-1.8-3.5
				c-2.7-4.5-6.6-8.3-10.3-11.6c-1.9-1.7-3.8-3.2-5.6-4.6c-0.9-0.7-1.8-1.4-2.6-2.1c-0.9-0.7-1.7-1.3-2.5-1.9c-3.2-2.5-6-4.3-8-5.7
				c-2-1.3-3.2-2-3.3-2.1c-0.1-0.1-1.3-0.8-3.4-2.2c-1.1-0.6-2.4-1.3-3.8-2.1c-0.7-0.4-1.5-0.8-2.4-1.3c-0.9-0.4-1.8-0.8-2.7-1.2
				c-1.9-0.9-3.9-1.9-6.1-2.6c-1.1-0.4-2.3-0.8-3.4-1.2c-1.2-0.4-2.4-0.7-3.6-1c-4.9-1.5-10.4-2.1-15.9-2.1
				c-5.5,0-10.9,0.9-15.9,2.3c-4.9,1.5-9.3,3.6-12.7,5.9c-3.4,2.3-5.9,4.7-7.5,6.5c-0.8,0.9-1.4,1.7-1.8,2.2
				C81.3,93.7,81.1,94,81.1,94z"/>
		</g>
		<g id="XMLID_7941_">
			<path id="XMLID_7942_" class="st1" d="M30.9,141.3c0,0,1.2-1.8,3.2-5c2.1-3.2,5-7.7,8.7-13c3.7-5.3,8.2-11.5,13.5-17.7
				c5.3-6.2,11.4-12.5,18.3-17.8c6.9-5.4,14.6-9.8,22.4-12.6c7.8-2.8,15.5-4.2,22.1-4.6c6.6-0.4,12.2-0.3,16.1,0
				c3.9,0.2,6.2,0.4,6.4,0.5c0.1,0,2.4,0.2,6.2,0.7c3.8,0.5,9.1,1.2,15.4,2.4c6.3,1.2,13.6,2.9,21.1,5.9c7.4,3,15,7.3,20.9,13.5
				c6,6.1,9.9,14.2,10.6,22.2c0.8,8-1.5,15.5-4.9,20.8c-1.7,2.7-3.6,4.9-5.4,6.7c-1.9,1.8-3.6,3.1-5.1,4.2c-1.5,1-2.8,1.8-3.6,2.2
				c-0.9,0.5-1.3,0.7-1.3,0.7s0.5-0.3,1.3-0.7c0.9-0.5,2.1-1.2,3.6-2.3c1.5-1.1,3.2-2.5,5.1-4.3c1.8-1.8,3.6-4,5.3-6.7
				c3.3-5.3,5.4-12.7,4.5-20.5c-0.9-7.8-4.8-15.6-10.7-21.4c-5.9-5.9-13.4-10-20.7-12.8c-7.4-2.8-14.6-4.4-20.8-5.4
				c-6.3-1.1-11.6-1.7-15.3-2.1c-3.8-0.4-6-0.6-6.1-0.6c-0.1,0-2.4-0.3-6.3-0.6c-3.9-0.3-9.3-0.5-15.8-0.2c-6.5,0.3-14,1.5-21.7,4.1
				c-7.6,2.6-15.3,6.8-22.2,12C68.5,93.9,62.3,100,57,106.1c-5.4,6.1-9.9,12.1-13.8,17.4c-3.8,5.3-6.8,9.8-9,12.9
				C32.1,139.5,30.9,141.3,30.9,141.3z"/>
		</g>
		<g id="XMLID_7939_">
			<path id="XMLID_7940_" class="st1" d="M59.5,137.2c0,0,0.4-0.7,1.2-1.8c0.4-0.6,0.8-1.3,1.4-2.1c0.6-0.8,1.2-1.6,1.9-2.6
				c2.9-3.7,7.3-8.3,12.5-12c1.3-0.8,2.6-1.8,4-2.5c0.7-0.4,1.4-0.7,2.1-1.1c0.3-0.2,0.7-0.4,1-0.5c0.4-0.1,0.7-0.3,1-0.4
				c2.7-1.2,5.4-2.1,7.8-2.7c1.2-0.3,2.3-0.5,3.3-0.7c1-0.1,1.9-0.2,2.6-0.3c0.7-0.1,1.3-0.1,1.7-0.2c0.4,0,0.6,0,0.7,0
				c0.1,0,0.9,0,2.3,0.1c0.4,0,0.7,0,1.2,0c0.4,0,0.9,0.1,1.4,0.2c1,0.1,2,0.3,3.2,0.5c1.1,0.3,2.4,0.6,3.7,1c1.3,0.5,2.6,1,4,1.5
				c2.7,1.2,5.3,2.9,7.7,5c2.4,2,4.4,4.4,6,6.8c1.6,2.4,2.7,4.9,3.4,7.1c0.8,2.2,1,4.1,1.2,5.4c0.1,1.3,0.2,2.1,0.2,2.1
				s-0.1-0.8-0.3-2.1c-0.3-1.3-0.6-3.2-1.5-5.3c-0.8-2.1-2-4.5-3.7-6.7c-1.7-2.3-3.8-4.5-6.1-6.3c-4.7-3.8-10.5-5.8-14.9-6.4
				c-1.1-0.2-2.1-0.2-3.1-0.3c-0.5,0-0.9-0.1-1.3-0.1c-0.4,0-0.8,0-1.1,0c-1.3,0-2.1,0-2.2,0c0,0-0.2,0-0.6,0
				c-0.4,0-0.9,0.1-1.6,0.1c-0.7,0-1.5,0.1-2.5,0.2c-0.9,0.2-2,0.3-3.1,0.5c-2.3,0.4-4.9,1.1-7.6,2.2c-0.3,0.1-0.7,0.3-1,0.4
				c-0.3,0.2-0.7,0.3-1,0.5c-0.7,0.3-1.4,0.6-2,1c-1.4,0.7-2.7,1.5-4,2.3c-5.3,3.3-9.8,7.7-12.9,11.2c-0.7,0.9-1.4,1.7-2,2.5
				c-0.6,0.7-1.1,1.4-1.5,2C59.9,136.6,59.5,137.2,59.5,137.2z"/>
		</g>
		<g id="XMLID_7937_">
			<path id="XMLID_7938_" class="st1" d="M22.4,179.7c0,0,0.2,0,0.7,0c0.4,0,1,0,1.8-0.1c1.6-0.1,3.8-0.5,6.4-1.5
				c2.5-1,5.3-2.5,8-4.6c2.7-2.1,5.2-4.7,7.4-7.5c4.3-5.8,7.9-12.1,10.7-16.9c1.4-2.4,2.7-4.3,3.6-5.7c0.9-1.4,1.4-2.2,1.5-2.3
				c0-0.1,0.6-0.8,1.6-2.1c1-1.2,2.5-3,4.5-4.8c2-1.9,4.5-3.9,7.5-5.6c3-1.7,6.4-3,10.1-3.4c1.8-0.2,3.6-0.1,5.4,0.2
				c1.8,0.3,3.4,0.8,5,1.5c3.1,1.4,5.6,3.3,7.3,5.4c1.7,2.1,2.5,4.2,2.8,5.7c0.2,0.7,0.2,1.4,0.3,1.8c0,0.4,0.1,0.6,0.1,0.6
				s0-0.2-0.1-0.6c-0.1-0.4-0.1-1-0.4-1.7c-0.4-1.5-1.3-3.5-3-5.5c-1.7-2-4.3-3.8-7.3-5c-1.5-0.6-3.2-1-4.8-1.2
				c-1.7-0.2-3.4-0.2-5.1,0.1c-3.4,0.5-6.7,1.9-9.4,3.6c-2.8,1.7-5.1,3.7-6.9,5.6c-1.8,1.9-3.2,3.6-4.2,4.8c-0.9,1.2-1.5,2-1.5,2
				c0,0-0.6,0.8-1.5,2.1c-0.9,1.3-2.3,3.2-3.7,5.5c-3,4.6-6.8,10.9-11.5,16.6c-2.4,2.8-5.1,5.3-7.9,7.3c-2.8,2-5.7,3.5-8.3,4.4
				c-2.6,0.9-4.9,1.2-6.5,1.3c-0.8,0.1-1.4,0-1.8,0C22.6,179.7,22.4,179.7,22.4,179.7z"/>
		</g>
		<g id="XMLID_7935_">
			<path id="XMLID_7936_" class="st1" d="M20.5,209.9c0,0,1.4-0.7,3.5-1.8c2.1-1,4.7-2.8,7.3-4.5c2.5-2,5-3.8,6.6-5.5
				c0.9-0.8,1.6-1.5,2.1-1.9c0.5-0.5,0.8-0.8,0.8-0.8c0,0,1.2-1.1,2.9-2.6c0.4-0.4,0.9-0.8,1.4-1.2c0.4-0.5,0.9-1,1.4-1.5
				c1-1.1,2-2.1,3-3.3c1.8-2.4,3.8-4.8,4.9-6.7c1.2-1.9,2-3.2,2-3.2s-0.7,1.4-1.7,3.4c-0.9,2.1-2.7,4.6-4.3,7.3
				c-0.9,1.3-1.8,2.5-2.7,3.6c-0.4,0.6-0.9,1.1-1.3,1.7c-0.4,0.5-0.9,1-1.3,1.4c-1.6,1.7-2.6,2.9-2.7,3c0,0-0.3,0.3-0.9,0.7
				c-0.6,0.4-1.4,1.1-2.3,1.8c-1.8,1.6-4.6,3.2-7.3,4.9c-2.8,1.5-5.6,3.1-7.8,3.9C21.9,209.3,20.5,209.9,20.5,209.9z"/>
		</g>
		<g id="XMLID_7933_">
			<path id="XMLID_7934_" class="st1" d="M25.4,233.9c0,0-0.1-0.5-0.2-1.3c0-0.8-0.1-2,0.1-3.3c0.3-2.8,1.7-6.4,4-9.4
				c2.2-3.1,5.2-5.4,7.4-7.2c1.1-0.8,2.1-1.5,2.8-2c0.7-0.5,1.1-0.8,1.1-0.8c0.1,0,1.6-0.9,4-2.3c1.1-0.7,2.5-1.5,3.9-2.4
				c0.7-0.5,1.4-0.9,2.1-1.4c0.7-0.5,1.4-1.1,2.1-1.6c2.7-2.2,5-5,6.2-7.3c0.3-0.6,0.6-1.1,0.8-1.6c0.2-0.5,0.3-1,0.5-1.3
				c0.2-0.7,0.4-1.2,0.4-1.2s-0.1,0.4-0.3,1.2c-0.1,0.4-0.2,0.9-0.3,1.4c-0.2,0.5-0.4,1.1-0.7,1.7c-1.1,2.5-3.2,5.5-5.8,8.1
				c-0.6,0.6-1.3,1.2-2,1.8c-0.7,0.6-1.4,1.1-2,1.7c-1.4,1-2.7,1.9-3.8,2.7c-2.2,1.5-3.7,2.6-3.8,2.6c0,0-0.5,0.3-1.1,0.7
				c-0.7,0.4-1.7,1-2.9,1.7c-2.2,1.6-5.3,3.5-7.6,6.3c-2.4,2.7-4,6-4.6,8.7c-0.3,1.3-0.3,2.5-0.3,3.3
				C25.4,233.4,25.4,233.9,25.4,233.9z"/>
		</g>
		<g id="XMLID_7931_">
			<path id="XMLID_7932_" class="st1" d="M26.5,260.1c0,0-0.2-0.5-0.4-1.3c-0.2-0.9-0.5-2.1-0.5-3.6c-0.1-3.1,0.8-7.2,2.8-10.8
				c1.9-3.7,4.8-6.7,7.1-8.9c1.1-1.1,2.1-1.9,2.8-2.5c0.7-0.6,1.1-0.9,1.1-1c0.1,0,1.7-1.2,4.2-2.9c2.4-1.7,5.7-3.9,8.5-6.5
				c2.9-2.6,5.4-5.6,6.8-8.2c0.3-0.7,0.6-1.2,0.9-1.8c0.3-0.5,0.4-1,0.5-1.4c0.3-0.8,0.5-1.3,0.5-1.3s-0.1,0.5-0.4,1.3
				c-0.1,0.4-0.2,0.9-0.4,1.5c-0.2,0.6-0.5,1.2-0.8,1.9c-1.2,2.7-3.5,6-6.3,8.8c-2.7,2.9-5.9,5.4-8.2,7.2c-2.3,1.9-3.8,3.1-3.9,3.2
				c0,0-0.5,0.3-1.2,0.9c-0.7,0.5-1.7,1.3-2.9,2.2c-2.3,1.9-5.3,4.6-7.4,8c-2.2,3.3-3.4,7.2-3.5,10.2c-0.1,1.5,0.1,2.7,0.2,3.6
				C26.4,259.6,26.5,260.1,26.5,260.1z"/>
		</g>
		<g id="XMLID_7929_">
			<path id="XMLID_7930_" class="st1" d="M42.5,263.1c0,0-0.1-0.3-0.2-0.8c-0.1-0.5-0.3-1.3-0.4-2.2c-0.3-1.9-0.3-4.4-0.2-7
				c0.2-2.6,0.7-5.1,1.3-7c0.3-0.9,0.6-1.7,0.7-2.3c0.2-0.6,0.3-0.9,0.3-0.9c0,0,0.2-0.3,0.4-0.8c0.3-0.5,0.6-1.2,1.2-2
				c1-1.6,2.6-3.6,4.3-5.4c1.7-1.8,3.6-3.3,5.2-4.4c0.7-0.5,1.4-0.9,1.9-1.2c0.5-0.3,0.7-0.4,0.7-0.4s-0.2,0.2-0.7,0.5
				c-0.4,0.3-1,0.8-1.7,1.4c-1.4,1.2-3,2.9-4.5,4.9c-1.4,1.9-2.7,4-3.4,5.6c-0.4,0.8-0.7,1.5-0.9,2c-0.2,0.5-0.3,0.8-0.3,0.8
				c0,0-0.2,0.3-0.4,0.8c-0.2,0.5-0.6,1.2-0.9,2c-0.7,1.7-1.5,4.1-2,6.5c-0.5,2.4-0.7,4.9-0.6,6.8c0,0.9,0.1,1.7,0.1,2.3
				C42.5,262.8,42.5,263.1,42.5,263.1z"/>
		</g>
		<g id="XMLID_7927_">
			<path id="XMLID_7928_" class="st1" d="M56.2,291.7c0,0,0.1-0.3,0.4-0.9c0.1-0.3,0.3-0.6,0.4-1.1c0.1-0.4,0.2-0.9,0.3-1.4
				c0.4-2.1,0.2-5-0.6-7.8c-0.7-2.8-2-5.3-2.9-7.3c-0.5-1-0.9-1.8-1.2-2.4c-0.3-0.6-0.4-0.9-0.5-1c0,0-0.5-1.5-1.1-3.5
				c-0.2-1.1-0.5-2.3-0.8-3.7c-0.2-1.4-0.3-2.9-0.1-4.3c0.2-2.9,1.3-5.7,2.6-7.4c0.6-0.9,1.3-1.4,1.8-1.8c0.5-0.4,0.8-0.6,0.8-0.6
				s-0.3,0.2-0.7,0.6c-0.4,0.4-1,1.1-1.6,2c-1.1,1.8-1.8,4.5-1.7,7.3c0,1.4,0.2,2.7,0.5,4c0.4,1.2,0.8,2.4,1.1,3.4
				c0.8,1.9,1.4,3.2,1.4,3.3c0,0,0.1,0.4,0.4,1c0.2,0.6,0.5,1.5,0.9,2.5c0.7,2.1,1.8,4.9,2.2,7.9c0.5,2.9,0.4,6-0.2,8.1
				c-0.2,0.5-0.3,1-0.5,1.4c-0.1,0.4-0.4,0.7-0.5,1C56.4,291.4,56.2,291.7,56.2,291.7z"/>
		</g>
		<g id="XMLID_7925_">
			<path id="XMLID_7926_" class="st1" d="M40.8,116.9c0,0,0.2-0.5,0.6-1.4c0.4-0.9,1-2.3,1.8-3.9c1.6-3.4,4.3-8,8.1-13.2
				c3.8-5.2,8.9-10.7,15.1-15.8c3.1-2.5,6.5-5,10.1-7.2c1.8-1.1,3.7-2.1,5.6-3.2c1.9-0.9,3.8-1.9,5.9-2.7c8-3.2,16.4-5.6,24.4-6.7
				c2-0.4,4-0.5,5.9-0.8c1.9-0.2,3.8-0.5,5.7-0.6c3.7-0.2,7.2-0.5,10.5-0.5c1.6,0,3.2-0.1,4.7-0.1c1.5,0,2.9,0,4.2,0
				c2.7,0,5,0,6.9,0.1c3.9,0.1,6.1,0.1,6.3,0.1c0.1,0,2.4,0.1,6.1,0.3c3.7,0.2,9,0.5,15.3,1.2c6.3,0.7,13.6,1.8,21.2,3.9
				c7.6,2.1,15.5,5.3,22.4,10c3.5,2.4,6.8,4.9,9.7,7.9c0.7,0.7,1.4,1.5,2.1,2.2c0.7,0.7,1.3,1.6,1.9,2.4c0.6,0.8,1.2,1.6,1.8,2.4
				c0.6,0.8,1.1,1.7,1.6,2.5c4,6.8,5.9,14,6.2,20.2c0.4,6.3-0.8,11.4-2,14.8c-0.7,1.7-1.2,3-1.7,3.8c-0.4,0.9-0.7,1.3-0.7,1.3
				s0.2-0.5,0.7-1.3c0.5-0.9,1-2.2,1.6-3.9c1.2-3.4,2.3-8.6,1.8-14.8c-0.4-6.2-2.4-13.3-6.5-19.9c-0.5-0.8-1.1-1.6-1.6-2.4
				c-0.6-0.8-1.2-1.5-1.8-2.3c-0.6-0.8-1.2-1.6-1.9-2.3c-0.7-0.7-1.4-1.4-2.1-2.2c-2.9-2.9-6.2-5.3-9.6-7.6
				c-6.9-4.5-14.7-7.5-22.2-9.4c-7.5-2-14.7-2.9-21-3.5c-6.2-0.5-11.5-0.7-15.2-0.9c-3.7-0.1-5.9-0.2-6.1-0.2
				c-0.1,0-2.4-0.1-6.2-0.2c-1.9-0.1-4.2-0.1-6.9-0.2c-1.3,0-2.7-0.1-4.2-0.1c-1.5,0-3,0-4.6,0c-3.2,0-6.7,0.2-10.4,0.3
				c-1.8,0-3.7,0.3-5.6,0.5c-1.9,0.2-3.9,0.3-5.9,0.7c-8,0.9-16.2,3.2-24.2,6.2c-2,0.7-3.9,1.7-5.8,2.6c-1.9,1-3.8,1.9-5.6,3
				c-3.6,2.1-7,4.5-10.1,6.9c-6.2,5-11.4,10.4-15.3,15.5c-3.9,5.1-6.6,9.7-8.3,13c-0.9,1.6-1.5,3-1.9,3.9
				C41,116.4,40.8,116.9,40.8,116.9z"/>
		</g>
		<g id="XMLID_7923_">
			<path id="XMLID_7924_" class="st1" d="M168.5,69c0,0,0.9,0.3,2.5,0.8c1.6,0.5,3.8,1.2,6.5,2c5.4,1.6,12.8,3.4,20,5.7
				c3.6,1.2,7.2,2.6,10.4,4.2c3.2,1.6,6.1,3.5,8.4,5.3c2.3,1.9,4,3.7,5.1,5c1.1,1.4,1.7,2.2,1.8,2.3c0,0.1,0.6,0.9,1.5,2.4
				c0.9,1.5,1.9,3.6,2.9,6.3c1,2.7,1.9,5.9,2.3,9.4c0.4,3.5,0.4,7.3-0.3,11c-1.3,7.4-5,14.2-9,18c-0.2,0.2-0.5,0.5-0.7,0.7
				c-0.3,0.2-0.5,0.4-0.7,0.6c-0.5,0.4-0.9,0.8-1.4,1.2c-0.9,0.6-1.7,1.2-2.4,1.6c-1.4,0.8-2.2,1.2-2.2,1.2s0.8-0.5,2.2-1.3
				c0.7-0.4,1.4-1.1,2.3-1.7c0.4-0.4,0.8-0.8,1.3-1.2c0.2-0.2,0.5-0.4,0.7-0.7c0.2-0.2,0.4-0.5,0.7-0.8c3.8-4,7.2-10.7,8.1-18
				c0.5-3.6,0.4-7.2-0.1-10.6c-0.6-3.3-1.6-6.4-2.6-8.9c-1.1-2.5-2.1-4.5-3-5.9c-0.8-1.4-1.4-2.1-1.5-2.2c0-0.1-0.6-0.9-1.6-2.2
				c-1-1.3-2.6-3.1-4.7-4.9c-2.1-1.9-4.8-3.7-7.9-5.4c-3.1-1.7-6.5-3.2-10.1-4.6c-7.1-2.6-14.4-4.7-19.8-6.5
				c-2.7-0.9-4.9-1.7-6.5-2.3C169.4,69.3,168.5,69,168.5,69z"/>
		</g>
		<g id="XMLID_7921_">
			<path id="XMLID_7922_" class="st1" d="M71.9,73c0,0,0.3-0.4,0.7-1c0.5-0.7,1.1-1.6,2.1-2.8c1.9-2.3,4.9-5.5,9.1-8.6
				c4.2-3.1,9.5-6.2,15.6-8.5c3-1.2,6.3-2.2,9.6-3c3.3-0.8,6.8-1.5,10.2-1.8c6.9-0.9,13.9-0.8,20.4-0.5c6.5,0.3,12.6,1,17.8,1.7
				c5.2,0.7,9.6,1.3,12.6,1.8c3.1,0.5,4.9,0.7,5,0.7c0.1,0,1.9,0.3,4.9,0.9c3,0.5,7.2,1.3,12.2,2.4c1.2,0.3,2.5,0.6,3.9,0.9
				c0.7,0.2,1.3,0.3,2,0.5c0.7,0.2,1.4,0.4,2.1,0.6c1.4,0.4,2.8,0.8,4.3,1.2c1.5,0.5,2.9,1,4.4,1.5c0.8,0.3,1.5,0.5,2.3,0.8
				c0.8,0.3,1.5,0.6,2.3,0.9c1.5,0.6,3,1.3,4.6,1.9c1.5,0.8,3,1.5,4.5,2.3c0.7,0.4,1.5,0.7,2.2,1.2l2.2,1.3c2.9,1.8,5.6,3.8,8.2,5.9
				c1.3,1,2.5,2.2,3.7,3.3c1.1,1.2,2.3,2.3,3.3,3.5c4.2,4.8,7.3,9.8,9.3,14.5c2,4.7,2.9,8.8,3.2,11.7c0.1,0.4,0.1,0.7,0.1,1
				c0,0.3,0,0.6,0.1,0.9c0,0.6,0.1,1.1,0.1,1.4c0,0.8,0.1,1.2,0.1,1.2s0-0.4-0.1-1.2c0-0.4-0.1-0.9-0.1-1.4c0-0.3,0-0.6-0.1-0.9
				c-0.1-0.3-0.1-0.7-0.2-1c-0.4-2.9-1.4-7-3.4-11.6c-2-4.6-5.3-9.5-9.5-14.1c-1-1.2-2.2-2.2-3.3-3.4c-1.2-1.1-2.4-2.2-3.7-3.2
				c-2.5-2.1-5.3-3.9-8.2-5.7l-2.2-1.2c-0.7-0.4-1.5-0.7-2.2-1.1c-1.5-0.7-3-1.4-4.5-2.2c-1.5-0.6-3.1-1.2-4.6-1.8
				c-0.8-0.3-1.5-0.6-2.2-0.9c-0.8-0.2-1.5-0.5-2.3-0.7c-1.5-0.5-3-1-4.4-1.4c-1.5-0.4-2.9-0.8-4.3-1.1c-0.7-0.2-1.4-0.4-2.1-0.5
				c-0.7-0.1-1.4-0.3-2-0.4c-1.3-0.3-2.6-0.6-3.9-0.8c-5-1-9.2-1.7-12.1-2.1c-3-0.5-4.7-0.7-4.9-0.7c-0.1,0-1.9-0.3-5-0.8
				c-3.1-0.5-7.4-1.2-12.6-2c-5.2-0.7-11.2-1.6-17.6-2c-6.5-0.5-13.4-0.6-20.2,0.1c-3.4,0.2-6.8,0.8-10.1,1.5
				c-3.3,0.7-6.5,1.6-9.5,2.7C93.5,55,88.2,57.9,84,60.9c-4.2,3-7.3,6.1-9.2,8.4c-1,1.1-1.7,2.1-2.2,2.7C72.2,72.7,71.9,73,71.9,73z
				"/>
		</g>
		<g id="XMLID_7919_">
			<path id="XMLID_7920_" class="st1" d="M94,54.5c0,0,0.1-0.4,0.3-1c0.1-0.3,0.2-0.7,0.4-1.2c0.2-0.5,0.4-1,0.7-1.6
				c1.1-2.3,3.3-5.4,7-8c1.8-1.3,4-2.4,6.3-3.4c2.4-0.9,5-1.6,7.7-2.1c2.8-0.4,5.6-0.6,8.6-0.4c1.5,0,2.9,0.3,4.4,0.5l2.2,0.3
				l2.2,0.4c5.8,1.1,11.5,2.8,16.9,4.2c5.4,1.4,10.4,2.3,14.8,2.6c4.4,0.2,8.1,0.1,10.7-0.2c2.6-0.2,4.2-0.4,4.3-0.4
				c0.1,0,1.6-0.1,4.2-0.3c2.6-0.2,6.2-0.6,10.6-0.7c4.4-0.2,9.5,0,14.9,1.2c5.3,1.1,10.8,3.2,15.9,6.1c5,2.8,9.6,6.4,13.4,10.3
				c3.8,3.9,6.8,7.9,8.9,11.7c0.6,0.9,1,1.8,1.5,2.7c0.4,0.9,0.9,1.7,1.2,2.5c0.6,1.6,1.2,3,1.6,4.2c0.7,2.4,1.1,3.8,1.1,3.8
				s-0.4-1.4-1.2-3.7c-0.4-1.2-1.1-2.5-1.7-4.1c-0.4-0.8-0.8-1.6-1.3-2.5c-0.5-0.9-0.9-1.8-1.5-2.7c-2.2-3.7-5.3-7.6-9.1-11.3
				c-3.8-3.7-8.4-7.1-13.4-9.8c-5-2.7-10.4-4.5-15.6-5.5c-5.2-1-10.2-1.1-14.5-0.8c-4.3,0.2-7.9,0.7-10.4,1
				c-2.6,0.3-4.1,0.4-4.2,0.4c-0.1,0-1.7,0.1-4.3,0.3c-2.7,0.2-6.5,0.2-11-0.1c-4.5-0.5-9.7-1.6-15-3.1c-5.4-1.5-11-3.3-16.7-4.6
				l-2.1-0.5l-2.2-0.3c-1.4-0.2-2.9-0.5-4.3-0.6c-2.9-0.2-5.7-0.1-8.4,0.2c-2.7,0.4-5.3,1-7.7,1.8c-2.3,0.9-4.5,1.9-6.3,3.2
				c-3.7,2.4-5.9,5.5-7.1,7.7c-0.3,0.6-0.6,1.1-0.7,1.5c-0.2,0.5-0.3,0.9-0.4,1.2C94.1,54.2,94,54.5,94,54.5z"/>
		</g>
		<g id="XMLID_7917_">
			<path id="XMLID_7918_" class="st1" d="M122.7,32.2c0,0,0.2-0.2,0.6-0.7c0.3-0.4,0.9-1,1.7-1.7c1.6-1.3,4.2-3,7.8-3.7
				c3.5-0.8,7.8-1,12.3-0.2c4.4,0.9,9,2.5,13.5,4.1c4.5,1.6,9,3.1,13.4,3.7c4.4,0.7,8.5,0.6,12.1,0.4c3.6-0.2,6.6-0.4,8.8-0.5
				c2.2-0.1,3.4-0.2,3.5-0.2c0.1,0,1.3,0,3.4,0c1.1,0,2.3,0.1,3.8,0.2c0.7,0.1,1.5,0.1,2.3,0.2c0.8,0.1,1.7,0.3,2.5,0.4
				c7,1.1,16.1,4.2,24,9.4c2,1.2,3.8,2.7,5.7,4.1c1.8,1.5,3.5,2.9,5,4.5c0.8,0.8,1.6,1.5,2.2,2.3c0.7,0.8,1.4,1.6,2,2.3
				c0.6,0.8,1.2,1.6,1.8,2.3c0.3,0.4,0.6,0.7,0.8,1.1c0.3,0.4,0.5,0.7,0.7,1.1c0.5,0.7,1,1.4,1.4,2.1c0.4,0.7,0.8,1.3,1.1,1.9
				c0.7,1.2,1.3,2.3,1.7,3.2c0.9,1.8,1.4,2.9,1.4,2.9s-0.5-1-1.5-2.8c-0.4-0.9-1.1-1.9-1.8-3.1c-0.4-0.6-0.7-1.3-1.2-1.9
				c-0.5-0.6-0.9-1.3-1.5-2c-0.3-0.4-0.5-0.7-0.8-1.1c-0.3-0.3-0.6-0.7-0.9-1.1c-0.6-0.7-1.2-1.5-1.8-2.2c-0.7-0.7-1.4-1.5-2.1-2.2
				c-0.7-0.8-1.5-1.5-2.3-2.2c-1.6-1.5-3.3-2.9-5.1-4.3c-1.9-1.3-3.7-2.7-5.7-3.8c-7.9-4.8-16.8-7.6-23.7-8.4
				c-0.9-0.1-1.7-0.3-2.5-0.3c-0.8,0-1.5-0.1-2.2-0.1c-1.4-0.1-2.6-0.1-3.7-0.1c-2.1,0-3.3,0.1-3.4,0.1c-0.1,0-1.3,0-3.5,0.1
				c-2.1,0.1-5.2,0.2-8.8,0.3c-3.6,0-7.9,0-12.4-0.8c-4.5-0.8-9.1-2.5-13.5-4.2c-4.4-1.8-8.9-3.5-13.2-4.5c-4.3-0.9-8.6-0.9-12-0.2
				c-3.5,0.7-6.1,2.2-7.8,3.5c-0.8,0.7-1.4,1.2-1.7,1.7C122.9,32,122.7,32.2,122.7,32.2z"/>
		</g>
		<g id="XMLID_7915_">
			<path id="XMLID_7916_" class="st1" d="M151.9,20.1c0,0,0.9,0,2.4,0.1c1.5,0.1,3.7,0.1,6.3,0.3c5.2,0.3,12.1,1.2,18.9,2
				c13.8,1.7,27.6,3.4,27.8,3.4c0.1,0,0.9,0.2,2.4,0.4c1.5,0.2,3.6,0.6,6.1,1.1c5,1,11.7,2.4,17.9,5.4c6.2,2.9,11.4,7.5,14.1,11.9
				c0.3,0.5,0.7,1,1,1.5c0.3,0.5,0.5,1,0.7,1.5c0.4,0.9,0.8,1.7,1,2.5c0.4,1.4,0.7,2.2,0.7,2.2s-0.3-0.8-0.8-2.2
				c-0.2-0.7-0.6-1.5-1.1-2.4c-0.2-0.4-0.5-0.9-0.8-1.4c-0.3-0.5-0.7-1-1-1.5c-2.8-4.1-8.2-8.4-14.3-11c-6.1-2.6-12.8-3.7-17.8-4.5
				c-2.5-0.4-4.6-0.6-6.1-0.8c-1.5-0.2-2.4-0.3-2.4-0.3c-0.2,0-14-2.3-27.6-4.6c-6.8-1.1-13.6-2.3-18.8-2.8
				c-2.6-0.4-4.7-0.4-6.2-0.6C152.8,20.1,151.9,20.1,151.9,20.1z"/>
		</g>
		<g id="XMLID_7913_">
			<path id="XMLID_7914_" class="st1" d="M310,204.7c0,0-0.2-0.1-0.5-0.2c-0.4-0.1-0.9-0.3-1.5-0.6c-1.3-0.5-3-1.5-4.8-3.1
				c-1.8-1.6-3.6-3.8-5-6.4c-0.7-1.3-1.4-2.7-2-4.2c-0.6-1.5-0.9-3-1.4-4.6c-0.5-1.5-0.7-3.1-1.1-4.7c-0.3-1.5-0.6-3.1-0.9-4.5
				c-0.5-3-1.1-5.7-1.6-8c-0.6-2.2-1.5-3.9-2.1-5.2c-0.7-1.2-1.1-1.9-1.1-2c0,0-0.4-0.8-1.1-1.9c-0.7-1.2-1.8-2.8-3.1-4.6
				c-2.8-3.7-6.9-8.3-12-11.6c-2.5-1.7-5.4-2.9-8.2-3.3c-2.8-0.3-5.5,0.4-7.3,1.8c-1.9,1.3-2.9,3-3.7,4.1c-0.7,1.2-1,1.8-1,1.8
				s0.3-0.7,1-1.9c0.7-1.1,1.7-2.9,3.6-4.3c1.8-1.5,4.6-2.4,7.6-2.2c3,0.3,6,1.4,8.7,3c5.5,3.2,9.9,7.7,13,11.3
				c1.5,1.8,2.7,3.4,3.5,4.6c0.8,1.2,1.2,1.9,1.3,1.9c0,0,0.4,0.8,1.1,2.1c0.6,1.3,1.5,3.2,2,5.8c0.4,2.4,0.9,5.2,1.2,8.2
				c0.2,1.5,0.4,3,0.6,4.5c0.3,1.5,0.4,3.1,0.8,4.6c0.4,1.5,0.7,3.1,1.2,4.5c0.5,1.5,1.1,2.9,1.7,4.2c1.3,2.6,3,4.9,4.6,6.5
				c1.7,1.6,3.4,2.7,4.6,3.3c0.6,0.3,1.1,0.5,1.5,0.6C309.8,204.6,310,204.7,310,204.7z"/>
		</g>
		<g id="XMLID_7911_">
			<path id="XMLID_7912_" class="st1" d="M325.7,182.2c0,0-0.7-0.3-1.8-0.8c-0.6-0.3-1.3-0.5-2-1c-0.8-0.5-1.6-1-2.5-1.5
				c-3.6-2.4-7.9-6.4-10.7-11.6c-1.4-2.5-2.5-5.3-3.3-7.9c-0.7-2.6-1.4-5-2-7.1c-0.6-2.1-1.2-3.7-1.7-4.9c-0.5-1.1-0.8-1.8-0.9-1.8
				c0,0-0.3-0.7-0.9-1.7c-0.6-1-1.5-2.4-3-3.8c-2.8-2.9-7.6-5.8-12.8-7.6c-5.2-1.9-10.8-2.3-14.9-1.6c-1,0.1-1.9,0.4-2.8,0.6
				c-0.8,0.3-1.5,0.5-2.1,0.7c-1.1,0.5-1.8,0.7-1.8,0.7s0.6-0.3,1.7-0.8c0.6-0.2,1.3-0.5,2.1-0.8c0.8-0.2,1.7-0.6,2.8-0.7
				c4.1-1,9.9-0.8,15.3,0.8c2.7,0.8,5.3,1.9,7.7,3.2c2.4,1.2,4.5,2.7,6.1,4.2c1.6,1.5,2.8,3,3.5,4.1c0.7,1.1,1,1.8,1.1,1.8
				c0,0,0.4,0.8,0.9,2c0.5,1.3,1,3,1.5,5.2c1.1,4.3,1.9,10,4.4,15c2.5,5.1,6.5,9.3,9.9,11.8c0.9,0.6,1.7,1.1,2.4,1.6
				c0.7,0.5,1.4,0.8,2,1.1C325.1,181.8,325.7,182.2,325.7,182.2z"/>
		</g>
		<g id="XMLID_7909_">
			<path id="XMLID_7910_" class="st1" d="M337.4,176.6c0,0-0.2,0-0.5-0.1c-0.3-0.1-0.8-0.1-1.5-0.3c-1.2-0.4-2.9-1.2-4.6-2.6
				c-1.7-1.4-3.4-3.5-4.6-6c-1.2-2.5-2.3-5.3-3.2-8.1c-0.9-2.8-1.9-5.6-3-8.1c-1.2-2.5-2.5-4.7-3.7-6.5c-0.6-0.9-1.2-1.7-1.8-2.4
				c-0.6-0.7-1-1.3-1.4-1.8c-0.9-1-1.4-1.5-1.4-1.5c0,0-0.5-0.6-1.3-1.6c-0.4-0.4-1-1-1.6-1.6c-0.3-0.3-0.6-0.6-1-1
				c-0.4-0.3-0.8-0.7-1.2-1c-3.2-2.8-7.8-6.1-13-8.4c-5.2-2.4-10.8-3.7-15-4.1c-1.1-0.1-2-0.2-2.9-0.2c-0.9,0-1.6,0-2.3,0
				c-1.3,0-2,0-2,0s0.7,0,2-0.1c0.6,0,1.4-0.1,2.3-0.1c0.9,0,1.9,0.1,2.9,0.1c4.3,0.2,10,1.2,15.4,3.4c5.4,2.1,10.4,5.2,13.9,8
				c0.4,0.3,0.9,0.7,1.3,1c0.4,0.3,0.7,0.7,1.1,1c0.7,0.6,1.3,1.1,1.7,1.6c0.9,0.9,1.4,1.5,1.5,1.6c0,0,0.5,0.6,1.4,1.7
				c0.4,0.6,0.9,1.2,1.4,2c0.5,0.8,1.2,1.6,1.7,2.6c1.2,1.9,2.4,4.3,3.5,6.9c1.1,2.6,1.9,5.5,2.7,8.4c0.8,2.9,1.6,5.6,2.7,8.1
				c1.1,2.5,2.6,4.6,4.2,6.1c1.6,1.5,3.2,2.4,4.4,2.8c0.6,0.2,1.1,0.3,1.4,0.4C337.2,176.6,337.4,176.6,337.4,176.6z"/>
		</g>
		<g id="XMLID_7907_">
			<path id="XMLID_7908_" class="st1" d="M341.7,146c0,0-0.5,0.6-1.8,1.2c-1.3,0.5-3.4,0.7-5.6-0.3c-2.2-1-4.3-3-6.2-5.2
				c-1.9-2.3-4-4.6-5.9-7.2c-1.9-2.5-3.9-5-5.7-7.3c-1.8-2.3-3.6-4.4-5.1-6.2c-1.6-1.8-2.9-3.2-4-4.1c-1-1-1.6-1.5-1.7-1.5
				c0,0-0.6-0.6-1.6-1.5c-0.5-0.5-1.1-1-1.8-1.6c-0.7-0.6-1.5-1.3-2.5-1.9c-0.9-0.6-1.9-1.4-3.1-2c-0.6-0.3-1.1-0.6-1.7-1
				c-0.6-0.3-1.3-0.5-1.9-0.8c-1.3-0.6-2.7-1-4.1-1.4c-1.4-0.4-2.9-0.6-4.4-0.7c-3-0.2-6,0.2-8.7,1c-2.7,0.8-5.1,2.1-6.8,3.5
				c-1.8,1.4-3,2.9-3.7,4c-0.4,0.5-0.6,1-0.8,1.3c-0.2,0.3-0.3,0.5-0.3,0.5s0.1-0.2,0.2-0.5c0.2-0.3,0.4-0.8,0.7-1.4
				c0.7-1.2,1.8-2.7,3.6-4.2c1.7-1.5,4.1-3,6.8-4c2.7-1,5.9-1.5,9-1.5c6.4,0.1,12.3,2.9,16.3,5.4c1,0.6,1.9,1.3,2.7,1.8
				c0.8,0.6,1.5,1.1,2,1.5c1.1,0.9,1.7,1.4,1.7,1.5c0.1,0,0.7,0.6,1.6,1.7c1,1,2.4,2.6,3.9,4.4c1.4,1.9,3.2,4.1,4.9,6.6
				c1.7,2.4,3.5,5,5.4,7.6c1.8,2.6,3.8,5.1,5.6,7.4c1.8,2.3,3.7,4.3,5.8,5.4c2,1.1,4.2,1,5.4,0.6C341.1,146.7,341.7,146,341.7,146z"
				/>
		</g>
		<g id="XMLID_7905_">
			<path id="XMLID_7906_" class="st1" d="M329.1,119.5c0,0-0.1,0.1-0.4,0.1c-0.2,0.1-0.6,0.2-1.1,0.3c-0.9,0.2-2.4,0.3-4-0.2
				c-3.3-0.9-7-3.9-9.9-7.2c-3.1-3.3-6-6.6-8.4-8.9c-1.2-1.2-2.2-2.1-2.9-2.8c-0.7-0.6-1.2-1-1.2-1c0,0-0.4-0.4-1.1-1
				c-0.7-0.6-1.7-1.6-3-2.4c-1.3-1-2.8-2-4.6-2.8c-1.8-0.8-3.8-1.5-5.9-1.8c-4.1-0.8-8.5-0.3-11.4,1.2c-0.7,0.3-1.4,0.7-1.9,1.1
				c-0.5,0.4-1,0.7-1.3,1c-0.7,0.6-1.1,1-1.1,1s0.4-0.4,1-1.1c0.3-0.3,0.8-0.7,1.3-1.1c0.5-0.4,1.1-0.8,1.9-1.2
				c2.8-1.6,7.3-2.5,11.7-2c4.4,0.4,8.7,2.3,11.4,4.2c1.5,0.8,2.5,1.8,3.3,2.3c0.8,0.6,1.2,1,1.3,1c0,0,0.5,0.4,1.2,1.2
				c0.7,0.7,1.7,1.8,2.8,3c2.2,2.6,5,6.1,7.8,9.5c1.4,1.7,2.8,3.4,4.4,4.7c1.5,1.3,3.2,2.4,4.7,2.9c1.5,0.5,3,0.6,3.9,0.4
				c0.5-0.1,0.8-0.2,1.1-0.3C329,119.5,329.1,119.5,329.1,119.5z"/>
		</g>
		<g id="XMLID_7903_">
			<path id="XMLID_7904_" class="st1" d="M334.3,113.1c0,0-0.1,0.7-0.7,1.6c-0.6,0.9-2.1,1.9-4,2.1c-2,0.3-4.3-0.6-6.2-2.2
				c-1.9-1.5-3.5-3.6-5.1-5.6c-3.2-4-6.2-8.2-8.5-11.2c-1.2-1.5-2.2-2.7-2.9-3.6c-0.7-0.9-1.2-1.4-1.2-1.4c0,0-0.4-0.5-1.1-1.4
				c-0.7-0.8-1.7-2-3-3.3c-2.5-2.6-6.4-5.6-10.9-7.4c-4.5-1.9-9.5-2.4-13.1-1.7c-0.9,0.2-1.7,0.4-2.4,0.6c-0.7,0.3-1.3,0.5-1.8,0.7
				c-1,0.5-1.5,0.8-1.5,0.8s0.5-0.3,1.5-0.9c0.5-0.3,1.1-0.5,1.8-0.8c0.7-0.3,1.5-0.5,2.4-0.8c3.6-1,8.8-0.7,13.6,0.9
				c4.8,1.6,9.1,4.5,11.9,7.1c1.5,1.2,2.5,2.4,3.3,3.2c0.8,0.8,1.2,1.3,1.3,1.3c0,0,0.4,0.6,1.2,1.5c0.7,0.9,1.7,2.2,2.8,3.8
				c2.2,3.2,5,7.5,7.9,11.6c1.5,2.1,2.9,4.2,4.6,5.7c1.7,1.6,3.8,2.5,5.7,2.4c1.9-0.1,3.3-1,4-1.8
				C334.2,113.8,334.3,113.1,334.3,113.1z"/>
		</g>
		<g id="XMLID_7901_">
			<path id="XMLID_7902_" class="st1" d="M321.3,88.5c0,0,0.5,0.5,0.4,1.7c0,1.1-0.8,2.7-2.6,3.6c-1.8,0.9-4.4,0.2-6.2-1.5
				c-0.9-0.8-1.7-1.9-2.2-3c-0.6-1.1-1-2.4-1.4-3.6c-0.4-1.2-0.7-2.4-1.1-3.5c-0.5-1.1-0.9-2.2-1.4-3.2c-0.6-1-1.1-2-1.7-2.8
				c-0.6-0.8-1.2-1.6-1.8-2.4c-1.3-1.3-2.2-2.5-3.1-3.2c-0.8-0.7-1.3-1.1-1.3-1.1c0,0-0.5-0.5-1.3-1.1c-0.4-0.3-0.9-0.7-1.5-1.1
				c-0.6-0.4-1.3-0.8-2.1-1.2c-0.4-0.2-0.8-0.5-1.2-0.7c-0.4-0.2-0.9-0.4-1.4-0.6c-0.5-0.2-0.9-0.4-1.4-0.6c-0.5-0.2-1-0.3-1.6-0.5
				c-0.5-0.1-1.1-0.3-1.6-0.5c-0.5-0.2-1.1-0.2-1.7-0.3c-0.6-0.1-1.2-0.2-1.7-0.3c-0.6-0.1-1.2,0-1.8-0.1c-4.8-0.2-9.5,1-12.8,2.5
				c-0.8,0.4-1.6,0.7-2.2,1.1c-0.6,0.4-1.2,0.7-1.6,1c-0.9,0.6-1.4,0.9-1.4,0.9s0.5-0.4,1.3-1c0.4-0.3,0.9-0.7,1.6-1.1
				c0.6-0.4,1.4-0.8,2.2-1.2c3.2-1.7,8-3.2,13-3.3c0.6,0,1.2-0.1,1.9,0c0.6,0.1,1.2,0.1,1.8,0.2c0.6,0.1,1.2,0.1,1.8,0.2
				c0.6,0.1,1.2,0.3,1.7,0.4c0.6,0.1,1.2,0.2,1.7,0.4c0.5,0.2,1.1,0.4,1.6,0.6c0.5,0.2,1,0.4,1.5,0.5c0.5,0.2,0.9,0.4,1.3,0.7
				c0.8,0.4,1.7,0.8,2.3,1.2c0.7,0.4,1.2,0.8,1.7,1.1c1,0.6,1.5,1,1.5,1.1c0,0,0.5,0.5,1.4,1.3c0.9,0.7,1.9,2.1,3.1,3.6
				c0.5,0.8,1.1,1.7,1.7,2.6c0.6,1,1,2,1.6,3.1c0.5,1.1,0.8,2.3,1.3,3.5c0.4,1.2,0.6,2.4,0.9,3.6c0.3,1.2,0.6,2.4,1.1,3.5
				c0.4,1.1,1.1,2.1,1.9,2.9c0.8,0.8,1.7,1.4,2.7,1.7c0.5,0.2,1,0.2,1.5,0.2c0.5,0,0.9-0.1,1.3-0.3c1.7-0.7,2.5-2.2,2.6-3.3
				C321.7,89,321.2,88.5,321.3,88.5z"/>
		</g>
		<g id="XMLID_7899_">
			<path id="XMLID_7900_" class="st1" d="M314,67.3c0,0-0.4,0.1-1.2,0.2c-0.7,0.1-1.8,0-3.1-0.3c-2.5-0.6-5.6-2.5-8-5
				c-2.5-2.4-4.7-5.1-6.6-6.7c-0.5-0.4-0.9-0.8-1.3-1.1c-0.4-0.3-0.8-0.5-1.1-0.7c-0.6-0.4-1-0.5-1-0.6c0,0-0.3-0.3-1-0.6
				c-0.3-0.2-0.7-0.4-1.1-0.6c-0.5-0.2-1-0.4-1.5-0.6c-2.2-0.9-5.5-1.4-8.7-1.2c-3.2,0.2-6.4,1.3-8.5,2.6c-1.1,0.6-1.9,1.2-2.5,1.7
				c-0.6,0.5-0.9,0.7-0.9,0.7s0.3-0.3,0.8-0.8c0.5-0.5,1.3-1.2,2.3-1.9c2.1-1.4,5.2-2.9,8.6-3.4c3.4-0.5,6.9-0.3,9.4,0.5
				c0.6,0.2,1.2,0.4,1.7,0.5c0.5,0.2,0.9,0.4,1.3,0.5c0.7,0.3,1.1,0.6,1.2,0.6c0,0,0.4,0.3,1.1,0.7c0.3,0.3,0.7,0.6,1.1,0.9
				c0.4,0.3,0.8,0.8,1.3,1.3c2,1.9,3.9,4.8,6.1,7.3c2.1,2.6,4.9,4.7,7.3,5.5c1.2,0.4,2.3,0.5,3,0.5C313.5,67.3,314,67.3,314,67.3z"
				/>
		</g>
		<g id="XMLID_7897_">
			<path id="XMLID_7898_" class="st1" d="M302.2,53.7c0,0-0.2-0.3-0.6-0.8c-0.4-0.5-0.9-1.2-1.7-2c-1.5-1.6-3.7-3.5-6.1-5
				c-2.5-1.5-5.1-2.6-7.1-3.2c-1-0.3-1.9-0.5-2.5-0.6c-0.6-0.2-1-0.2-1-0.2c0,0-0.4-0.1-1-0.2c-0.6-0.1-1.4-0.4-2.5-0.5
				c-0.5-0.1-1.1-0.2-1.7-0.2c-0.6,0-1.2-0.1-1.9-0.1c-0.3,0-0.7,0-1,0c-0.3,0-0.7,0-1,0c-0.7,0-1.4,0-2.1,0.1
				c-2.8,0.3-5.5,1-7.5,1.7c-1,0.3-1.8,0.8-2.3,1c-0.6,0.3-0.9,0.4-0.9,0.4s0.3-0.2,0.8-0.5c0.5-0.3,1.3-0.8,2.2-1.2
				c1.9-1,4.6-2,7.4-2.6c0.7-0.2,1.4-0.2,2.1-0.3c0.4-0.1,0.7-0.1,1.1-0.2c0.3,0,0.7,0,1-0.1c0.7,0,1.3-0.1,2-0.1
				c0.6,0,1.2,0,1.8,0.1c1.1,0,2,0.2,2.7,0.2c0.7,0.1,1,0.1,1.1,0.1c0,0,0.4,0.1,1.1,0.3c0.6,0.2,1.6,0.5,2.6,0.9
				c2.1,0.9,4.8,2.3,7.1,4.1c2.3,1.9,4.4,4,5.7,5.7c0.7,0.8,1.1,1.7,1.5,2.2C302,53.4,302.2,53.7,302.2,53.7z"/>
		</g>
		<g id="XMLID_7895_">
			<path id="XMLID_7896_" class="st1" d="M339.2,226.9c0,0-0.7,0-1.8-0.1c-1.1-0.3-2.8-0.7-4.4-1.9c-1.7-1.2-3.3-2.9-4.6-5.1
				c-0.4-0.5-0.6-1.1-0.9-1.7c-0.3-0.6-0.5-1.2-0.8-1.8c-0.5-1.2-0.8-2.5-1.3-3.8c-0.7-2.6-1.3-5.2-2-7.6c-0.7-2.4-1.5-4.5-2.2-6.4
				c-0.4-0.9-0.7-1.7-1.1-2.5c-0.4-0.7-0.7-1.4-0.9-1.9c-0.5-1.1-0.8-1.7-0.9-1.7c0,0-0.3-0.6-0.8-1.7c-0.5-1-1.3-2.4-2.2-4.1
				c-2-3.3-4.9-7.5-8.4-11.3c-3.5-3.8-7.4-7.1-10.6-9.3c-0.8-0.5-1.5-1-2.2-1.5c-0.7-0.4-1.3-0.8-1.7-1.1c-1-0.6-1.5-0.9-1.5-0.9
				s0.6,0.3,1.6,0.8c0.5,0.3,1.1,0.6,1.8,1c0.7,0.4,1.4,0.9,2.3,1.3c3.3,2,7.5,5.1,11.2,8.7c3.8,3.6,7,7.7,9.2,11
				c1.1,1.7,2,3.1,2.5,4.1c0.6,1,0.9,1.6,0.9,1.7c0,0,0.3,0.7,0.8,1.8c0.2,0.6,0.5,1.2,0.9,2c0.3,0.8,0.6,1.7,1,2.6
				c0.7,1.9,1.4,4.2,1.9,6.7c0.6,2.5,1,5.1,1.6,7.7c0.3,1.3,0.6,2.6,1,3.8c0.2,0.6,0.5,1.2,0.7,1.8c0.2,0.6,0.4,1.2,0.7,1.7
				c1.1,2.2,2.6,3.9,4.2,5.1c1.5,1.3,3.1,1.7,4.2,2.1C338.5,226.9,339.2,226.9,339.2,226.9z"/>
		</g>
		<g id="XMLID_7893_">
			<path id="XMLID_7894_" class="st1" d="M306.5,295.3c0,0,0.5-0.7,1.3-1.8c0.8-1.2,1.7-3,2.5-5.3c0.7-2.3,1.1-5.1,1.1-8.1
				c0-3-0.4-6.2-0.9-9.4c-0.5-3.2-1.2-6.4-1.7-9.4c-0.5-3-0.9-5.9-1.1-8.4c-0.2-2.4-0.4-4.5-0.5-5.9c-0.2-1.4-0.3-2.3-0.3-2.3
				c0-0.1-0.1-0.9-0.2-2.3c-0.1-1.4-0.4-3.4-0.8-5.6c-0.5-2.3-1.2-4.9-2.4-7.5c-1.2-2.6-3.1-5.2-4.7-7.9c-1.7-2.7-3.3-5.5-4.3-8.3
				c-1.1-2.8-1.7-5.6-1.8-7.9c-0.1-2.4,0.2-4.3,0.4-5.7c0.3-1.3,0.5-2.1,0.5-2.1s-0.1,0.8-0.4,2.1c-0.1,1.4-0.4,3.3-0.2,5.7
				c0.2,2.3,0.9,5,2.1,7.7c1.2,2.7,2.8,5.3,4.6,7.9c0.9,1.3,1.8,2.6,2.7,3.8c0.5,0.6,0.9,1.3,1.3,2c0.4,0.7,0.8,1.3,1.2,2
				c1.4,2.7,2.3,5.4,2.9,7.8c0.6,2.4,0.9,4.4,1.1,5.8c0.2,1.4,0.3,2.3,0.3,2.3c0,0.1,0.1,0.9,0.2,2.4c0.1,1.5,0.2,3.5,0.3,6
				c0.1,2.5,0.3,5.3,0.7,8.3c0.4,3,0.9,6.2,1.3,9.5c0.4,3.2,0.6,6.5,0.5,9.6c-0.1,3.1-0.7,5.9-1.5,8.2c-0.9,2.3-1.9,4.1-2.8,5.2
				C307,294.6,306.5,295.3,306.5,295.3z"/>
		</g>
		<g id="XMLID_7891_">
			<path id="XMLID_7892_" class="st1" d="M319.3,261.4c0,0-0.3-0.4-0.7-1.2c-0.1-0.2-0.2-0.4-0.4-0.6c-0.1-0.2-0.2-0.5-0.4-0.8
				c-0.2-0.6-0.6-1.2-0.8-1.9c-1-2.9-1.4-7-1.1-11c0.2-4.1,1-8,1.1-11c0.1-1.5,0-2.7-0.1-3.5c-0.1-0.8-0.2-1.3-0.2-1.3
				c0,0,0-0.5-0.2-1.3c-0.1-0.8-0.5-1.8-1.2-3c-0.2-0.3-0.4-0.6-0.6-0.9c-0.2-0.3-0.5-0.5-0.8-0.8c-0.6-0.5-1.3-1-1.9-1.6
				c-1.4-1.1-3.1-2.1-4.7-3.2c-0.8-0.5-1.6-1.2-2.4-1.7c-0.8-0.6-1.5-1.3-2.1-2c-1.2-1.4-2-3-2.4-4.4c-0.4-1.4-0.3-2.7-0.1-3.5
				c0.2-0.8,0.5-1.2,0.5-1.3c0,0-0.2,0.4-0.4,1.3c-0.2,0.8-0.1,2.1,0.3,3.4c0.5,1.3,1.4,2.8,2.6,4c0.6,0.6,1.3,1.2,2.1,1.7
				c0.8,0.5,1.6,1.1,2.4,1.5c1.7,0.9,3.4,1.8,5,2.8c0.8,0.6,1.6,1,2.2,1.6c0.3,0.3,0.7,0.6,1,0.9c0.3,0.3,0.5,0.7,0.8,1
				c0.9,1.3,1.5,2.6,1.7,3.5c0.3,0.9,0.4,1.5,0.4,1.5c0,0,0.1,0.6,0.1,1.6c0.1,1,0,2.3-0.2,3.8c-0.3,3.1-1.4,7-1.9,10.9
				c-0.6,3.9-0.4,7.9,0.3,10.8c0.1,0.7,0.4,1.4,0.6,1.9c0.1,0.3,0.2,0.6,0.3,0.8c0.1,0.2,0.2,0.4,0.3,0.6
				C319.1,260.9,319.3,261.4,319.3,261.4z"/>
		</g>
		<g id="XMLID_7889_">
			<path id="XMLID_7890_" class="st1" d="M340,218.6c0,0-0.3-1.2-0.7-2.9c-0.3-1.7-1.1-4-1.8-6.2c-0.9-2.2-1.6-4.4-2.4-6
				c-0.4-0.8-0.7-1.5-0.9-1.9c-0.2-0.5-0.4-0.7-0.4-0.8c0,0-0.4-1.1-1.1-2.7c-0.2-0.4-0.3-0.8-0.5-1.3c-0.2-0.4-0.4-0.9-0.7-1.4
				c-0.5-1-0.9-2-1.5-3c-1.1-2-2.2-4-3.2-5.4c-0.9-1.4-1.6-2.4-1.6-2.4s0.7,0.9,1.9,2.2c1.2,1.3,2.5,3.2,3.9,5
				c0.7,1,1.3,1.9,1.9,2.9c0.3,0.5,0.6,0.9,0.9,1.3c0.2,0.4,0.5,0.9,0.7,1.2c0.9,1.6,1.4,2.6,1.4,2.6c0,0,0.1,0.3,0.3,0.8
				c0.2,0.5,0.4,1.2,0.7,2.1c0.6,1.7,1.1,4.1,1.7,6.4c0.4,2.4,0.9,4.7,1,6.5C339.8,217.4,340,218.6,340,218.6z"/>
		</g>
		<g id="XMLID_7887_">
			<path id="XMLID_7888_" class="st1" d="M337.3,241.7c0,0-0.1,0-0.3,0.1c-0.2,0.1-0.6,0.1-1,0.2c-0.9,0.1-2.2,0-3.6-0.6
				c-1.4-0.6-2.9-1.6-4.1-3.1c-1.2-1.5-2-3.4-2.6-5.4c-0.6-1.9-1-3.9-1.3-5.7c-0.4-1.8-0.9-3.4-1.3-4.9c-0.2-0.7-0.4-1.4-0.6-1.9
				c-0.2-0.6-0.4-1.1-0.5-1.5c-0.3-0.8-0.5-1.3-0.5-1.3c0,0-0.1-0.5-0.4-1.3c-0.3-0.8-0.7-1.9-1.2-3.3c-0.2-0.7-0.6-1.4-0.9-2.1
				c-0.4-0.7-0.7-1.5-1.1-2.3c-0.4-0.8-0.9-1.6-1.3-2.4c-0.5-0.8-1-1.6-1.5-2.4c-1.1-1.6-2.2-3.1-3.3-4.6c-1.2-1.4-2.2-2.6-3.2-3.7
				c-2.1-2-3.4-3.3-3.4-3.3s1.5,1.2,3.7,3.1c1,1,2.2,2.2,3.5,3.5c1.2,1.4,2.4,2.8,3.7,4.4c0.6,0.8,1.1,1.6,1.7,2.4
				c0.5,0.8,1.1,1.5,1.6,2.4c0.5,0.8,0.9,1.6,1.3,2.3c0.4,0.7,0.8,1.4,1.1,2.1c0.6,1.3,1.2,2.5,1.5,3.3c0.4,0.8,0.5,1.3,0.5,1.3
				c0,0,0.2,0.5,0.4,1.4c0.1,0.4,0.3,1,0.5,1.6c0.2,0.6,0.4,1.3,0.5,2c0.3,1.5,0.7,3.2,0.9,5.1c0.3,1.9,0.5,3.8,0.9,5.7
				c0.4,1.9,1.1,3.7,2.1,5.2c1,1.5,2.3,2.6,3.6,3.3c1.3,0.7,2.5,0.8,3.4,0.8c0.4,0,0.8-0.1,1-0.1
				C337.2,241.7,337.3,241.7,337.3,241.7z"/>
		</g>
	</g>
</g>
</svg>
