<?xml version="1.0" encoding="utf-8"?>
<!-- Generator: Adobe Illustrator 19.0.0, SVG Export Plug-In . SVG Version: 6.00 Build 0)  -->
<svg version="1.1" id="Layer_1" xmlns="http://www.w3.org/2000/svg" xmlns:xlink="http://www.w3.org/1999/xlink" x="0px" y="0px"
	 viewBox="0 0 370.3 323" style="enable-background:new 0 0 370.3 323;" xml:space="preserve">
<style type="text/css">
	.st0{fill-rule:evenodd;clip-rule:evenodd;fill:#EF7B05;}
	.st1{fill-rule:evenodd;clip-rule:evenodd;fill:#FFFFFF;}
	.st2{fill:#FFFFFF;}
</style>
<g id="XMLID_7381_">
	<g id="XMLID_7392_">
		<path id="XMLID_7400_" class="st0" d="M331.2,115.7c-4.3-23.6-11.3-40-14.9-43.6c-3.7-3.7-4,5.4-4.5,10.8
			c-0.5,5.4-1.2,1.9-5.9-4.4c-6.3-8.4-24.9-28.8-45.3-43.3c-12.6-9-30.6-17.6-32.3-14.1c-0.5,1.1,3,5.6,5.7,12
			c2.8,6.4,4.9,14.8,4.8,17c0,0.1-5.4-5.8-12.5-10.2c-9.4-5.8-21.7-10.5-25.4-12.1c-4.5-1.9-5.7-2.4-5.8-0.4c-0.1,2,1,6.5,1.7,11.2
			c0.7,4.7,1,9.6-3.8,8.7c-4.9-0.9-15-7.5-21.2-12.4c-6.2-4.9-8.6-8.1-10-10.1c-1.4-1.9-1.8-2.5-2.4-0.5c-0.6,2-1.3,6.5-2.7,11
			c-1.4,4.5-3.5,9-6.4,9.7c-3,0.7-6.8-2.4-9.6-6.6c-2.8-4.2-4.5-9.4-5.6-11.7c-1.1-2.3-1.4-1.7-3,0.9c-6.5,10.8-14.5,21.1-19.4,32.7
			c-1.4,3.2-2.1,5.2-3.7,4.1c-2.1-1.4-5.6-8-7.8-12.9c-2.3-4.9-3.3-8-4.1-9.1c-0.7-1.1-2.2-0.5-5.2,4.9c-3.3,6-20,39.2-20,39.3
			c-2.4,2.4-3.6,3.5-5.3-1.7c-1.7-5.2-3.5-12.9-4.8-15.7c-1.4-2.8-2.3-0.7-5.8,6.6c-3.5,7.3-9.5,19.9-13.5,35.9
			c-4,16-6.1,35.5-3.5,53.9c2.6,18.4,9.9,35.8,14.1,56.5c4.2,20.7,6.2,40,11.8,68.3c0.1-4.6,0.2-9.4,0.4-14.2
			c0.6-21.2-0.8-43.2,0.4-62.8c4.2-66.8,67.9-84.4,114.9-50.9c6,4.3,4.1,3.5,9.7-0.7c1.8-1.3,4.3-2.9,8.1-4.9c34-17,69-9.3,87.4,6.3
			c44.7,37.9,21.9,120.2,25.2,137.7C329.7,241.5,342.5,178,331.2,115.7z"/>
		<path id="XMLID_7399_" class="st1" d="M209.8,45c-3.7-2.2-1.1-0.6,1.8,3.8c16.9,25.4,16.6,43.8,14.1,69.6
			c-1.7,17.1,13.6,13.2,14.8-1C242.2,96.9,236.5,61.1,209.8,45z"/>
		<path id="XMLID_7398_" class="st1" d="M188.2,129c10.7-22.2-2.9-57.5-14.8-77c-3.7-6-6.2-8.6-6.2-6.9c-0.1,1.6,2.3,7.5,4.3,13.7
			c8.2,25.7,6.8,45,4.3,63.3C174.8,128.8,183.7,138.4,188.2,129z"/>
		<path id="XMLID_7397_" class="st1" d="M133.2,132.3c1.3-2.2-1.8-12-3-25.9c-1.4-17.2-1.1-39.6,0.3-49.9c0.9-6.7,1.4-9.2-0.5-4.1
			c-6.5,17.4-21.3,65.8-4.8,80.6C128.4,135.8,131.5,135.2,133.2,132.3z"/>
		<path id="XMLID_7396_" class="st1" d="M92.3,111.3c-0.6-7.4-0.7-15.9-0.1-24c1-11.5,3.7-21.9,3.3-23.3c-0.5-1.4-4.1,6.3-7.8,17.9
			c-2.9,9-5.8,20.4-7.3,30.6C76.6,137.4,96.6,167.6,92.3,111.3z"/>
		<path id="XMLID_7395_" class="st1" d="M309.8,164.9c14.5-17.2,13.7-50.6,6.7-69.9c-0.3-0.9,0.3,14.5-2.3,28.1
			c-2.7,14.2-8.9,26.8-12.4,36.1C298.5,168,304.3,171.3,309.8,164.9z"/>
		<path id="XMLID_7394_" class="st1" d="M59.8,136.9c-2-6.8-3.4-13.5-3.6-22.3c-0.2-8.7,0.7-19.5,0-20.8c-0.7-1.3-3,6.9-4.7,19
			c-1.1,7.7-1.9,17-2.1,25.5C48.7,171.4,72.7,180.8,59.8,136.9z"/>
		<path id="XMLID_7393_" class="st1" d="M260.5,51c-7.6-7.4-12.1-10.5-2.9,3.1c20.4,30.1,23.4,49.4,13.9,80.2
			c-3,9.6,8.3,14.4,14.6,0.4C302,99.8,284.8,74.7,260.5,51z"/>
	</g>
	<g id="XMLID_7389_">
		<path id="XMLID_10_" class="st2" d="M59.5,244.2c0,0-0.3-0.2-0.9-0.6c-0.5-0.4-1.4-0.9-2.4-1.6c-0.5-0.4-1-0.8-1.6-1.2
			c-0.6-0.5-1.2-1-1.8-1.6c-0.6-0.6-1.3-1.2-2-1.9c-0.7-0.7-1.3-1.4-2-2.2c-0.7-0.8-1.4-1.6-2.1-2.5c-0.7-0.9-1.4-1.8-2.1-2.8
			c-1.4-1.9-2.7-4.1-4-6.3c-0.6-1.1-1.2-2.3-1.8-3.5c-0.6-1.2-1.2-2.4-1.7-3.7c-1.1-2.5-2-5.1-2.9-7.7c-0.7-2.7-1.5-5.3-1.9-8
			c-0.3-1.3-0.5-2.7-0.7-4c-0.2-1.3-0.3-2.6-0.4-3.9c-0.1-1.3-0.2-2.6-0.2-3.8c0-1.2-0.1-2.5,0-3.7c0.1-1.2,0.1-2.3,0.2-3.5
			c0.1-1.1,0.2-2.2,0.4-3.2c0.2-1,0.3-2,0.5-3c0.2-0.9,0.4-1.8,0.6-2.7c0.2-0.8,0.4-1.6,0.6-2.3c0.2-0.7,0.4-1.4,0.6-2
			c0.4-1.2,0.8-2,1-2.6c0.3-0.6,0.4-0.9,0.4-0.9h0.9c0,0,0.1,1.2,0.1,3.5c0,1.1,0.1,2.5,0.3,4.1c0.1,0.8,0.1,1.6,0.2,2.5
			c0.1,0.9,0.2,1.8,0.3,2.8c0.1,1,0.2,2,0.3,3c0.1,1,0.3,2.1,0.5,3.2c0.1,1.1,0.3,2.2,0.5,3.4c0.2,1.2,0.4,2.3,0.6,3.5
			c0.5,2.4,1,4.9,1.7,7.3c0.6,2.5,1.4,5,2.1,7.5c0.8,2.5,1.5,5,2.4,7.4c0.8,2.4,1.8,4.7,2.7,7c0.5,1.1,1,2.2,1.4,3.3
			c0.5,1.1,0.9,2.1,1.4,3.1c0.5,1,1,2,1.4,2.9c0.5,0.9,1,1.8,1.4,2.7c0.9,1.7,1.8,3.3,2.6,4.7c0.8,1.4,1.5,2.6,2.1,3.6
			c1.2,1.9,1.9,3.1,1.9,3.1L59.5,244.2z"/>
	</g>
	<g id="XMLID_7382_">
		<path id="XMLID_8_" class="st2" d="M315.4,228.7c0,0,0-0.4,0.1-1c0.1-0.6,0.2-1.6,0.5-2.8c0.3-1.2,0.6-2.7,0.9-4.2
			c0.4-1.6,0.8-3.3,1.3-5.2c0.5-1.9,1-3.9,1.6-6c0.1-0.5,0.3-1.1,0.5-1.6c0.1-0.5,0.3-1.1,0.4-1.6c0.3-1.1,0.7-2.2,1-3.3
			c0.3-1.1,0.6-2.3,1-3.4c0.2-0.6,0.4-1.1,0.5-1.7c0.2-0.6,0.4-1.2,0.5-1.7c0.7-2.3,1.4-4.7,2.2-7.1c0.7-2.4,1.5-4.7,2.2-7.1
			c0.3-1.2,0.8-2.3,1.1-3.5c0.3-1.1,0.7-2.3,1.1-3.4c0.7-2.2,1.5-4.4,2.1-6.5c0.7-2.1,1.4-4.1,2-5.9c0.7-1.9,1.3-3.6,1.9-5.1
			c0.6-1.5,1.2-2.9,1.6-4c0.4-1.1,0.9-1.9,1.1-2.5c0.3-0.6,0.5-0.9,0.5-0.9h0.9c0,0,0,1.2,0,3.5c0,1.2,0,2.5-0.1,4.1
			c0,0.8-0.1,1.6-0.1,2.5c0,0.9-0.2,1.8-0.2,2.8c-0.1,1-0.2,2-0.3,3.1c-0.1,1.1-0.3,2.1-0.4,3.3c-0.1,1.1-0.3,2.3-0.5,3.4
			c-0.2,1.2-0.4,2.4-0.6,3.6c-0.5,2.4-1,4.9-1.6,7.4c-0.6,2.5-1.3,5.1-2,7.6c-0.8,2.5-1.6,5-2.6,7.4c-0.9,2.4-1.9,4.8-2.8,7.1
			c-0.5,1.1-1,2.2-1.5,3.3c-0.5,1.1-1,2.1-1.5,3.1c-0.5,1-1,2-1.5,2.9c-0.5,0.9-1,1.8-1.5,2.7c-0.5,0.9-0.9,1.7-1.4,2.5
			c-0.5,0.8-0.9,1.5-1.4,2.2c-0.8,1.4-1.6,2.5-2.2,3.5c-1.3,1.9-2,3-2,3L315.4,228.7z"/>
	</g>
</g>
</svg>
