<?xml version="1.0" encoding="utf-8"?>
<!-- Generator: Adobe Illustrator 19.0.0, SVG Export Plug-In . SVG Version: 6.00 Build 0)  -->
<svg version="1.1" id="Layer_1" xmlns="http://www.w3.org/2000/svg" xmlns:xlink="http://www.w3.org/1999/xlink" x="0px" y="0px"
	 viewBox="0 0 577.5 598.5" style="enable-background:new 0 0 577.5 598.5;" xml:space="preserve">
<style type="text/css">
	.st0{fill:#EF7B05;}
	.st1{fill:#FFFFFF;}
	.st2{fill:none;stroke:#FFFFFF;stroke-miterlimit:10;}
</style>
<g id="XMLID_1607_">
	<path id="XMLID_1702_" class="st0" d="M469.5,294.7c-2.8-21-7.5-43.8-14.9-60.7c-16.3-37-49.9-52.8-102.9-75.1
		c-47.2-20-64.4-9.8-113.3,2.2c-1.1-3.5-2.5-6.9-4.6-10c-14.8-21.8-50.7-22.8-80.3-2.2c-29.5,20.7-41.5,55.1-26.7,77
		c3.3,4.8,7.6,8.6,12.6,11.3c-8.7,19.1-13.4,37.8-15.3,50.5c-0.3,2.3-0.6,4.6-1,6.8c-6.5,49-0.3,69.2,5.1,80.2
		c2.5,5.2,4.8,8.4,5.6,11.6c2.8,11.6,1.1,15.4,6.8,27.7c3.7,3.4,13.1,7.9,16,16c5.2,13.8,7.1,11.5,7.1,11.5s-7.2-48.8-8-66.8
		c-0.1-1-0.1-1.9-0.1-2.7c0-8.7,3.9-52.4,31.9-77.5c1.3-1.3,2.7-2.5,4.2-3.6c23.6-18.2,63.8-10.5,68.3-10.5c0.9,0,10,7.2,23.2,14.1
		c12.7,6.7,29.1,13,45.3,12.2c100.5-5.3,121.6,50.5,123.9,62.1c-0.1,1.9-0.3,3.9-0.4,5.9c-1.2,14.4-2.7,31.2-3.8,42.4
		c-1.8,13.4-3.5,24.4-3.5,24.4s2.1,2.3,7.1-11.5c2.5-6.8,10.9-11.1,14.1-14.3c0.6-7.6,2.7-27.2,3.6-29.4c0.9-1.8,1.7-6.1,2.4-11.6
		c1.2-8.6,1.9-19.7,1.9-26.5C474.1,342.3,473.1,319.9,469.5,294.7z"/>
	<g id="XMLID_1699_">
		<path id="XMLID_581_" class="st1" d="M235,148c0,0,0.3,0.7,0.9,1.9c0.6,1.2,1.4,3.1,2,5.5c0.7,2.5,1.3,5.5,1.4,9.1
			c0.1,3.6-0.3,7.7-1.4,11.9c-1.1,4.3-3.1,8.7-5.6,13.1c-1.3,2.2-2.7,4.4-4.3,6.5c-1.6,2.1-3.2,4.2-5.2,6.3c-3.9,4-8.2,7.6-12.9,11
			c-2.3,1.7-4.7,3.4-7.2,4.9c-1.2,0.8-2.5,1.5-3.8,2.2c-0.6,0.4-1.3,0.7-2,1l-2,0.9c-5.3,2.4-10.5,4.8-15.8,7.1
			c-5.3,2.2-10.6,4.2-15.8,5.8c-5.2,1.6-10.3,3.1-15.4,3.8c-5,0.8-9.8,1-14.1,0.9c-4.4-0.1-8.4-0.5-11.9-0.9c-3.5-0.5-6.6-1-9-1.5
			c-1.2-0.2-2.4-0.5-3.3-0.7c-1-0.2-1.8-0.4-2.4-0.6c-1.3-0.3-2-0.5-2-0.5s0.7,0.1,2.1,0.4c1.3,0.2,3.3,0.5,5.8,0.9
			c5,0.7,12.2,1.5,20.8,1.3c4.3-0.1,9-0.5,13.8-1.4c4.8-0.8,9.8-2.4,14.9-4.1c5.1-1.7,10.3-3.8,15.5-6c5.2-2.2,10.4-4.7,15.7-7.1
			l2-0.9c0.6-0.3,1.3-0.6,1.9-0.9c1.2-0.7,2.5-1.4,3.7-2.1c2.4-1.5,4.8-3.1,7.1-4.7c4.5-3.3,8.9-6.8,12.7-10.6
			c1.8-1.8,3.5-3.9,5.1-5.9c1.6-2,3-4.1,4.3-6.2c2.6-4.1,4.6-8.4,5.9-12.4c1.3-4.1,1.9-8,2-11.4c0.1-3.5-0.3-6.5-0.8-9
			c-0.5-2.5-1.1-4.4-1.6-5.6C235.2,148.6,235,148,235,148z"/>
	</g>
	<g id="XMLID_1696_">
		<path id="XMLID_579_" class="st1" d="M203.5,422.9c0,0-1.7-0.5-4.7-1.4c-1.5-0.4-3.3-1.1-5.3-2c-1-0.4-2.1-0.8-3.2-1.4
			c-1.1-0.6-2.2-1.2-3.4-1.8c-2.4-1.2-4.8-2.9-7.4-4.6c-1.3-0.9-2.5-1.9-3.8-2.9c-1.3-1-2.6-2-3.8-3.2c-1.2-1.1-2.5-2.3-3.8-3.5
			c-1.2-1.3-2.4-2.6-3.6-3.9c-1.3-1.3-2.3-2.7-3.5-4.1c-1.1-1.4-2.3-2.8-3.3-4.3c-1-1.5-2-3-3-4.5c-0.9-1.5-1.8-3.1-2.7-4.6
			c-0.4-0.8-0.9-1.5-1.3-2.3c-0.4-0.8-0.8-1.6-1.1-2.4c-0.7-1.6-1.6-3.1-2.2-4.7c-1.3-3.1-2.5-6.2-3.4-9.1c-0.5-1.5-0.9-2.9-1.3-4.3
			c-0.3-1.4-0.6-2.8-0.9-4.1c-0.1-0.7-0.3-1.3-0.4-1.9c-0.2-0.6-0.3-1.2-0.4-1.9c-0.2-1.2-0.3-2.4-0.5-3.5c-0.2-1.1-0.3-2.1-0.4-3
			c-0.1-0.9-0.1-1.8-0.2-2.6c-0.2-3.1-0.3-4.9-0.3-4.9s0.3,1.8,0.9,4.8c0.1,0.8,0.3,1.6,0.4,2.5c0.2,0.9,0.5,1.9,0.7,3
			c0.5,2.1,1,4.5,1.8,7c0.4,1.3,0.8,2.6,1.2,4c0.5,1.3,1,2.7,1.5,4.2c1,2.9,2.4,5.8,3.7,8.8c0.7,1.5,1.5,3,2.3,4.5
			c0.8,1.5,1.6,3,2.5,4.5c0.9,1.5,1.8,3,2.7,4.5c1,1.4,2,2.9,3,4.3c0.9,1.5,2.1,2.8,3.2,4.2c1.1,1.4,2.1,2.8,3.3,4
			c1.2,1.3,2.3,2.6,3.4,3.8c1.2,1.2,2.4,2.4,3.6,3.5c1.1,1.2,2.4,2.2,3.6,3.2c1.2,1,2.4,2.1,3.6,3c1.2,0.9,2.4,1.8,3.6,2.6
			c1.1,0.9,2.3,1.6,3.4,2.3c1.1,0.7,2.2,1.4,3.2,2c1,0.6,2.1,1.1,3,1.6c1.9,1,3.6,1.9,5,2.5C201.9,422.1,203.5,422.9,203.5,422.9z"
			/>
	</g>
	<path id="XMLID_1695_" class="st2" d="M490,243.2C490.2,243.2,490,243.2,490,243.2"/>
	<g id="XMLID_1692_">
		<path id="XMLID_577_" class="st1" d="M458.5,233.7c0,6.5-0.2,13-0.1,19.5c0,6.5,0.2,13,0.7,19.4c0.5,6.4,1.3,12.9,2.7,19.1
			c0.7,3.1,1.6,6.2,2.7,9.2c1.1,3,2.3,6.1,3.1,9.3c0.8,3.2,1.3,6.7,0.9,10.1c-0.4,3.5-1.7,6.7-3.1,9.7c-1.4,3-3.1,5.8-4.3,8.6
			c-0.2,0.4-0.3,0.7-0.4,1.1c-0.1,0.3-0.3,0.7-0.3,1.1c-0.2,0.7-0.4,1.5-0.5,2.2c-0.3,1.5-0.4,3-0.3,4.6c0,3.1,0.6,6.2,1.3,9.4
			c0.7,3.1,1.4,6.3,1.9,9.6c0.5,3.3,0.9,6.6,0.7,10c-0.1,3.4-0.8,6.7-1.8,9.9l-1.6,5l-1.1-5.2c-1.4-6.8-2.8-13.7-4.7-20.3
			c-0.2-0.8-0.5-1.7-0.8-2.5c-0.3-0.8-0.5-1.6-0.8-2.4c-0.6-1.6-1.2-3.2-1.9-4.8c-0.7-1.6-1.5-3.1-2.3-4.6l-1.3-2.2l-1.4-2.2
			c-1-1.4-2-2.8-3.1-4.1c-1.1-1.3-2.3-2.6-3.5-3.8c-2.5-2.4-5.2-4.5-8.2-6.3c-3-1.8-6.1-3.2-9.5-4.1c-3.3-0.9-6.8-1.4-10.3-1.2
			c3.5-0.4,7-0.2,10.5,0.6c3.4,0.8,6.8,2.1,9.9,3.8c3.1,1.7,6,3.7,8.7,6.1c1.3,1.2,2.6,2.4,3.8,3.8c1.2,1.3,2.3,2.7,3.4,4.1l1.5,2.2
			c0.5,0.8,1,1.5,1.4,2.3c0.9,1.5,1.8,3.1,2.5,4.7c0.8,1.6,1.5,3.2,2.1,4.9c0.3,0.8,0.6,1.7,0.9,2.5c0.3,0.8,0.6,1.7,0.8,2.5
			c0.5,1.7,1,3.4,1.5,5.1c0.5,1.7,0.9,3.4,1.3,5.1c0.8,3.4,1.6,6.8,2.3,10.2l-2.7-0.1c0.9-3,1.5-6.1,1.5-9.2
			c0.1-3.1-0.2-6.3-0.7-9.4c-0.5-3.1-1.3-6.3-2-9.5c-0.7-3.2-1.3-6.5-1.3-9.9c0-1.7,0.1-3.4,0.4-5.1c0.2-0.8,0.4-1.7,0.6-2.5
			c0.1-0.4,0.3-0.8,0.4-1.3c0.2-0.4,0.3-0.8,0.5-1.2c1.4-3.1,3-5.9,4.4-8.7c1.4-2.8,2.6-5.7,3-8.7c0.4-3,0-6.1-0.7-9.2
			c-0.8-3.1-1.8-6.1-2.9-9.2c-1.1-3.1-1.9-6.3-2.6-9.5c-1.3-6.4-1.9-13-2.2-19.5c-0.3-6.5-0.2-13,0.1-19.5
			C457.6,246.6,458,240.1,458.5,233.7z"/>
	</g>
	<g id="XMLID_1689_">
		<path id="XMLID_575_" class="st1" d="M238.2,170.9c0,0,1.1-0.6,2.8-1.4c1.7-0.8,4-1.7,6.4-2.5c2.4-0.8,4.8-1.4,6.6-1.8
			c1.8-0.4,3-0.6,3-0.6s-1.2,0.3-3,0.9c-1.8,0.6-4.1,1.4-6.3,2.4c-2.2,1-4.4,2.2-6,3.1c-1.6,0.9-2.6,1.6-2.6,1.6L238.2,170.9z"/>
	</g>
	<g id="XMLID_1686_">
		<path id="XMLID_573_" class="st1" d="M232.8,185.2c0,0,0.4-0.1,1-0.1c0.6-0.1,1.6-0.2,2.6-0.3c2.2-0.2,5.1-0.3,8-0.2
			c2.9,0.1,5.8,0.5,7.9,0.9c1.1,0.2,1.9,0.4,2.6,0.5c0.6,0.1,1,0.2,1,0.2s-0.4-0.1-1-0.1c-0.6-0.1-1.5-0.2-2.6-0.3
			c-2.1-0.2-5-0.3-7.9-0.2c-2.9,0.1-5.7,0.5-7.8,0.9c-1.1,0.2-1.9,0.4-2.5,0.5c-0.6,0.1-1,0.2-1,0.2L232.8,185.2z"/>
	</g>
	<g id="XMLID_1683_">
		<path id="XMLID_571_" class="st1" d="M236.2,178.4c0,0,1.7-0.4,4.3-0.9c2.6-0.5,6-1.1,9.5-1.4c3.5-0.4,6.9-0.5,9.5-0.5
			c2.6,0,4.3,0,4.3,0s-1.7,0.1-4.3,0.3c-2.6,0.2-6,0.6-9.4,1.2c-3.4,0.6-6.7,1.4-9.2,2.1c-2.5,0.7-4.1,1.2-4.1,1.2L236.2,178.4z"/>
	</g>
	<g id="XMLID_1680_">
		<path id="XMLID_569_" class="st0" d="M232.3,154c0,0,0.3-0.9,0.8-2.3c0.5-1.5,1.3-3.5,1.9-6c0.1-0.6,0.2-1.3,0.3-1.9l0-0.5l0-0.6
			c0-0.4,0-0.6,0-1c-0.1-1.4-0.4-2.7-0.9-4c-0.6-1.3-1.4-2.3-2.5-3c-1.1-0.7-2.6-1.1-4.2-1.4c-0.8-0.1-1.6-0.2-2.5-0.3
			c-0.9-0.1-1.7-0.2-2.5-0.2c-1.6-0.1-3.2-0.1-4.7,0.1c-1.5,0.2-2.9,0.6-4.1,1.1c-0.2,0.1-0.7,0.3-0.9,0.5c-0.2,0.1-0.5,0.3-0.7,0.5
			c-0.5,0.4-1,0.8-1.4,1.2c-0.8,0.9-1.4,1.8-1.7,2.8c-0.4,0.9-0.5,1.8-0.6,2.5c0,0.7,0.1,1.3,0.2,1.7c0.1,0.4,0.2,0.6,0.2,0.6
			s-0.1-0.2-0.4-0.5c-0.2-0.4-0.5-0.9-0.7-1.7c-0.2-0.8-0.3-1.8-0.1-3c0.2-1.2,0.6-2.5,1.4-3.7c0.4-0.6,0.8-1.3,1.4-1.8
			c0.3-0.3,0.6-0.6,0.9-0.9c0.4-0.3,0.6-0.4,1-0.8c1.4-0.9,3.1-1.6,4.9-2c1.8-0.4,3.6-0.5,5.5-0.5c0.9,0,1.8,0.1,2.8,0.1
			c0.9,0.1,1.8,0.2,2.8,0.3c1.9,0.3,3.9,0.9,5.7,2.1c1.8,1.3,3,3.1,3.6,4.9c0.6,1.8,0.8,3.7,0.6,5.4c0,0.4-0.1,0.9-0.2,1.3l-0.1,0.5
			c-0.1,0.3-0.1,0.4-0.2,0.6c-0.2,0.7-0.4,1.5-0.7,2.1c-0.5,1.3-1.2,2.4-1.7,3.4c-0.6,0.9-1.2,1.7-1.6,2.3
			C232.9,153.3,232.3,154,232.3,154z"/>
	</g>
	<g id="XMLID_1677_">
		<path id="XMLID_567_" class="st0" d="M194.9,136.9c0,0,0-0.1,0-0.3c0-0.2,0-0.4,0-0.7c0-0.3-0.1-0.6-0.1-1
			c-0.1-0.4-0.2-0.8-0.3-1.2c-0.2-0.4-0.4-0.8-0.6-1.2c-0.2-0.4-0.5-0.8-0.8-1.2c-0.3-0.4-0.7-0.7-1.1-0.9c-0.4-0.2-0.8-0.4-1.2-0.6
			c0.2,0.1,0.1,0,0.1,0l0,0l0,0l0,0l-0.1,0l-0.1,0l-0.2-0.1c-0.2-0.1-0.2,0-0.3-0.1c-0.1,0-0.4,0-0.6-0.1c-0.5,0-0.9,0-1.4,0.2
			c-0.5,0.1-0.9,0.3-1.4,0.5c-0.4,0.2-0.8,0.4-1.2,0.7c-0.4,0.3-0.7,0.5-1,0.8c-0.3,0.3-0.5,0.5-0.7,0.8c-0.2,0.2-0.3,0.4-0.4,0.6
			c-0.1,0.1-0.2,0.2-0.2,0.2s0-0.1-0.1-0.3c0-0.2-0.1-0.4-0.1-0.8c0-0.3,0-0.8,0.1-1.2c0-0.2,0.1-0.5,0.2-0.8
			c0.1-0.3,0.2-0.5,0.4-0.8c0.3-0.5,0.7-1.1,1.2-1.6c0.5-0.5,1.1-1,1.9-1.3c0.7-0.4,1.6-0.6,2.4-0.7c0.5,0,0.9-0.1,1.4,0
			c0.3,0,0.6,0.1,0.7,0.1l0.2,0.1l0.1,0l0.1,0l0.2,0.1c0.9,0.3,1.7,0.8,2.4,1.4c0.7,0.6,1.2,1.3,1.6,2c0.4,0.7,0.6,1.5,0.7,2.2
			c0.1,0.7,0.1,1.4,0.1,2c-0.1,0.3-0.1,0.6-0.2,0.9c-0.1,0.3-0.2,0.5-0.3,0.7c-0.2,0.4-0.4,0.8-0.7,1.1c-0.2,0.3-0.4,0.4-0.5,0.5
			C194.9,136.9,194.9,136.9,194.9,136.9z"/>
	</g>
	<g id="XMLID_1674_">
		<path id="XMLID_565_" class="st0" d="M202.3,129.9c0,0,0,0-0.1-0.1c-0.1-0.1-0.2-0.2-0.3-0.3c-0.1-0.2-0.2-0.4-0.3-0.6
			c-0.1-0.2-0.2-0.5-0.3-0.9c-0.1-0.7-0.1-1.5,0.2-2.3c0.3-0.8,0.9-1.7,1.7-2.2c0.3-0.2,0.9-0.5,1.3-0.7c0.5-0.1,0.9-0.2,1.3-0.2
			c0.9,0,1.7,0.2,2.3,0.5c0.3,0.2,0.5,0.3,0.8,0.5c0.2,0.2,0.4,0.4,0.5,0.5c0.1,0.1,0.2,0.3,0.2,0.4c0,0.1,0.1,0.1,0.1,0.1
			s-0.2-0.1-0.5-0.2c-0.3-0.1-0.8-0.2-1.3-0.2c-0.5,0-1.1,0-1.7,0.1c-0.3,0.1-0.6,0.2-0.9,0.3c-0.3,0.1-0.5,0.2-0.8,0.5
			c-1,0.7-1.6,1.9-1.9,3c-0.1,0.5-0.2,1-0.2,1.3C202.3,129.7,202.3,129.9,202.3,129.9z"/>
	</g>
	<g id="XMLID_1671_">
		<path id="XMLID_563_" class="st0" d="M181.1,142.7c0,0-0.1-0.1-0.3-0.4c-0.2-0.3-0.4-0.7-0.8-1.1c-0.3-0.5-0.8-1-1.2-1.6
			c-0.5-0.6-1.1-1.3-1.8-1.9c-0.7-0.7-1.4-1.4-2.3-2c-0.8-0.7-1.8-1.3-2.7-1.9c-1-0.6-2-1.1-3.1-1.6c-0.6-0.2-1.1-0.4-1.7-0.6
			c-0.3-0.1-0.6-0.2-0.9-0.3l-0.8-0.2c-1.4-0.3-2.4-0.4-3.6-0.5c-1.2,0-2.4-0.1-3.5,0c-1.1,0.1-2.2,0.3-3.3,0.5
			c-1,0.2-2,0.5-2.9,0.8c-0.9,0.3-1.7,0.6-2.4,1c-0.7,0.3-1.3,0.6-1.8,0.9c-0.5,0.3-0.9,0.5-1.2,0.7c-0.3,0.2-0.4,0.2-0.4,0.2
			s0.1-0.1,0.3-0.4c0.2-0.3,0.4-0.7,0.8-1.1c0.4-0.5,0.9-1,1.5-1.6c0.3-0.3,0.7-0.6,1-0.9c0.4-0.3,0.8-0.6,1.2-0.9
			c0.9-0.6,1.9-1.1,3-1.6c1.1-0.5,2.4-0.9,3.7-1.1c1.3-0.3,2.7-0.4,4.1-0.4c1.4,0,3,0.2,4.2,0.5l1.1,0.3c0.4,0.1,0.7,0.2,1,0.3
			c0.7,0.2,1.3,0.5,2,0.8c1.3,0.6,2.5,1.4,3.5,2.2c1.1,0.8,2,1.7,2.8,2.7c0.8,0.9,1.5,1.9,2,2.8c0.2,0.5,0.5,0.9,0.7,1.3
			c0.2,0.4,0.4,0.9,0.5,1.2c0.3,0.8,0.5,1.5,0.7,2.1c0.2,0.6,0.2,1,0.3,1.4C181.1,142.5,181.1,142.7,181.1,142.7z"/>
	</g>
	<g id="XMLID_1668_">
		<path id="XMLID_561_" class="st0" d="M139.5,170.2c0,0-0.1-0.2-0.2-0.4c-0.1-0.1-0.2-0.3-0.3-0.5c-0.1-0.2-0.3-0.4-0.4-0.5
			c-0.7-0.7-2.1-1.4-3.7-1.3c-0.4,0-0.8,0.1-1.2,0.2c-0.2,0.1-0.4,0.1-0.6,0.2c-0.3,0.1-0.4,0.1-0.6,0.3c-0.8,0.4-1.7,0.9-2.5,1.6
			c-0.9,0.7-1.7,1.5-2.7,2.3c-1,0.8-2,1.6-2.9,2.3c-0.9,0.7-1.7,1.5-2.4,2.3l-0.2,0.3c0,0,0,0.1,0,0l0,0l-0.1,0.1l-0.1,0.2
			c-0.2,0.2-0.2,0.3-0.4,0.6c-0.2,0.4-0.4,0.9-0.6,1.3c-0.3,0.9-0.4,1.8-0.3,2.6c0,0.2,0.1,0.4,0.1,0.6c0,0.1,0.1,0.2,0.1,0.3l0,0.1
			l0,0l0,0l0,0c0,0.1-0.1-0.1,0-0.1l0,0.1l0.2,0.3l0.1,0.2c0.1,0.1,0.2,0.3,0.3,0.4c0.5,0.5,1.1,0.9,1.8,1.1
			c0.6,0.2,1.2,0.2,1.7,0.1c0.5-0.1,0.9-0.3,1.1-0.4c0.2-0.2,0.4-0.3,0.4-0.3s-0.1,0.1-0.2,0.4c-0.2,0.3-0.4,0.7-1,1
			c-1,0.7-3.1,1.1-5.2-0.1c-0.3-0.2-0.5-0.3-0.8-0.6c-0.1-0.1-0.3-0.3-0.4-0.4l-0.3-0.3l-0.1-0.1l-0.1-0.2l-0.1-0.2
			c-0.1-0.1-0.2-0.3-0.3-0.4c-0.2-0.3-0.3-0.6-0.4-0.9c-0.4-1.3-0.5-2.8-0.2-4.2c0.1-0.7,0.4-1.4,0.7-2.1c0.1-0.3,0.4-0.7,0.5-1
			l0.3-0.4l0.3-0.4c0.9-1.2,1.9-2.2,2.9-3c1.1-0.9,2.1-1.6,3.1-2.3c1-0.7,2-1.5,3.1-2.1c1.1-0.7,2.3-1.2,3.5-1.5
			c0.3-0.1,0.7-0.2,1-0.2l0.4,0c0.2,0,0.3,0,0.5,0c0.6,0,1.2,0.1,1.8,0.2c2.2,0.6,3.6,2,4,3.2c0.2,0.6,0.3,1.1,0.3,1.4
			C139.5,170,139.5,170.2,139.5,170.2z"/>
	</g>
	<g id="XMLID_1665_">
		<path id="XMLID_526_" class="st0" d="M127.2,197.2c0,0-0.6,0.5-1.6,1.2c-1,0.8-2.5,1.9-4.2,3.3c-1.6,1.4-3.4,3.1-4.5,5.2
			c-0.3,0.5-0.5,1.1-0.8,1.6c-0.1,0.3-0.2,0.6-0.3,0.9c-0.1,0.3-0.1,0.5-0.2,0.8c-0.2,1.2-0.3,2.4-0.1,3.7c0.1,1.2,0.5,2.4,1,3.6
			c0.3,0.6,0.6,1.1,0.9,1.6c0.2,0.2,0.4,0.5,0.5,0.7l0.5,0.6c0.2,0.2,0.5,0.5,0.7,0.7c0.2,0.2,0.4,0.3,0.6,0.5
			c0.5,0.3,0.9,0.6,1.4,0.9c1,0.5,2,0.9,3,1.2c2,0.5,3.8,0.5,5,0.3c0.6-0.1,1.1-0.2,1.5-0.3c0.3-0.1,0.5-0.1,0.5-0.1
			s-0.2,0.1-0.4,0.3c-0.3,0.2-0.7,0.5-1.3,0.8c-0.6,0.3-1.4,0.6-2.3,0.8c-0.9,0.2-2,0.4-3.2,0.3c-1.2,0-2.5-0.2-3.9-0.7
			c-0.7-0.2-1.3-0.5-2-0.9c-0.3-0.2-0.7-0.4-1-0.6c-0.3-0.2-0.6-0.4-0.9-0.6l-0.1,0L116,223l-0.1-0.1l-0.2-0.2l-0.4-0.4
			c-0.3-0.3-0.6-0.6-0.8-0.9c-0.5-0.6-1-1.3-1.4-2.1c-0.8-1.5-1.3-3.1-1.5-4.8c-0.2-1.7-0.1-3.4,0.3-5c0.1-0.4,0.3-0.9,0.4-1.3
			l0.2-0.5l0.1-0.2l0.1-0.1l0-0.1l0,0l0,0l0-0.1c0.4-0.7,0.8-1.4,1.2-2.1c1.8-2.6,4.2-4.1,6.2-5.2c1-0.6,2-0.9,2.8-1.3
			c0.9-0.3,1.6-0.6,2.2-0.8C126.5,197.3,127.2,197.2,127.2,197.2z"/>
	</g>
	<g id="XMLID_1662_">
		<path id="XMLID_524_" class="st0" d="M150.2,152.1c0,0,0-0.1-0.1-0.2c0-0.1-0.1-0.3-0.2-0.4c-0.1-0.2-0.2-0.4-0.3-0.6
			c-0.1-0.2-0.2-0.4-0.4-0.6c-0.6-0.9-1.3-1.7-1.9-2.2c-0.2-0.1-0.4-0.3-0.5-0.4c-0.2-0.1-0.4-0.3-0.6-0.4c-0.4-0.3-0.9-0.5-1.4-0.7
			c-0.5-0.2-0.9-0.3-1.3-0.4c-0.4-0.1-0.6-0.1-0.6-0.1s0-0.1,0.1-0.2c0.1-0.1,0.1-0.3,0.2-0.4c0.1-0.2,0.3-0.4,0.5-0.6
			c0.2-0.2,0.5-0.4,0.8-0.6c0.7-0.3,1.5-0.5,2.5-0.5c0.5,0,1,0.2,1.5,0.4c0.2,0.1,0.5,0.2,0.7,0.4c0.1,0.1,0.3,0.2,0.3,0.2l0.3,0.2
			c0.8,0.7,1.4,1.7,1.7,2.6c0.3,0.9,0.2,1.8,0,2.5c-0.1,0.4-0.3,0.7-0.4,0.9c-0.1,0.3-0.3,0.5-0.5,0.6c-0.1,0.2-0.3,0.2-0.4,0.3
			C150.3,152.1,150.2,152.1,150.2,152.1z"/>
	</g>
	<g id="XMLID_1659_">
		<path id="XMLID_522_" class="st0" d="M138,230.6c0,0-0.2,0.3-0.6,0.8c-0.4,0.5-1,1.1-1.8,1.9c-0.8,0.7-1.9,1.5-3.2,2
			c-0.2,0.1-0.3,0.1-0.5,0.2c-0.2,0-0.3,0.1-0.5,0.1c-0.4,0.1-0.8,0.2-1.2,0.2c-0.8,0.1-1.6,0-2.4-0.2c-0.8-0.2-1.5-0.6-2.2-1.1
			c-0.7-0.5-1.2-1.2-1.5-1.9c0-0.1-0.1-0.1-0.1-0.2l-0.1-0.3c-0.1-0.2-0.1-0.4-0.1-0.6c0-0.4,0-0.8,0.1-1.1c0.1-0.7,0.4-1.3,0.7-1.8
			c0.3-0.5,0.8-0.9,1.2-1.1c0.4-0.3,0.8-0.4,1.1-0.4c0.3,0,0.6,0,0.8,0c0.2,0,0.3,0.1,0.3,0.1s-0.1,0-0.3,0.1
			c-0.2,0-0.4,0.1-0.6,0.2c-0.3,0.1-0.5,0.3-0.8,0.6c-0.2,0.3-0.5,0.6-0.6,1.1c-0.2,0.4-0.2,0.9-0.3,1.4c0,0.2,0,0.5,0.1,0.7
			c0,0.1,0.1,0.2,0.1,0.3l0,0.1c0,0.1,0.1,0.1,0.1,0.2c0.2,0.4,0.6,0.8,1.1,1.1c0.4,0.3,1,0.6,1.5,0.7c0.6,0.2,1.2,0.2,1.8,0.2
			c0.3,0,0.6,0,0.9,0c0.1,0,0.3-0.1,0.5-0.1l0.4-0.1c1.2-0.3,2.2-0.8,3.1-1.3c0.9-0.5,1.7-0.9,2.2-1.2
			C137.6,230.7,138,230.6,138,230.6z"/>
	</g>
	<g id="XMLID_1656_">
		<path id="XMLID_520_" class="st0" d="M166.1,149.7c0,0-0.2-0.2-0.5-0.6c-0.3-0.4-0.7-1-1.2-1.7c-0.5-0.7-1-1.5-1.5-2.4
			c-0.6-0.9-1.1-1.8-1.7-2.7c-0.6-0.9-1.2-1.9-1.7-2.7c-0.6-0.9-1-1.7-1.5-2.4c-0.4-0.7-0.8-1.3-1-1.8c-0.2-0.4-0.4-0.7-0.4-0.7
			s1,0.6,2.3,1.8c0.6,0.6,1.3,1.3,2,2.1c0.3,0.4,0.7,0.8,1,1.3c0.3,0.4,0.6,0.9,1,1.4c0.3,0.5,0.6,1,0.9,1.5c0.3,0.5,0.5,1,0.7,1.5
			c0.4,1,0.8,1.9,1,2.7C166,148.5,166.1,149.7,166.1,149.7z"/>
	</g>
	<g id="XMLID_1653_">
		<path id="XMLID_518_" class="st0" d="M140.7,165.1c0,0-0.8-0.2-1.8-0.8c-1-0.6-2.2-1.5-3.2-2.7c-1-1.2-1.7-2.5-2.1-3.6
			c-0.4-1.1-0.4-1.9-0.4-1.9s0.2,0.1,0.4,0.3c0.3,0.2,0.6,0.5,1,0.9c0.8,0.8,1.7,1.9,2.7,2.9c0.9,1.1,1.8,2.2,2.4,3.1
			c0.3,0.5,0.6,0.9,0.8,1.1C140.6,165,140.7,165.1,140.7,165.1z"/>
	</g>
	<g id="XMLID_1650_">
		<path id="XMLID_516_" class="st0" d="M127.5,193.3c0,0-0.1,0-0.2,0.1c-0.1,0.1-0.3,0.2-0.4,0.3c-0.4,0.2-0.9,0.6-1.5,0.9
			c-0.6,0.3-1.3,0.7-2,1c-0.4,0.2-0.7,0.3-1.1,0.5c-0.4,0.2-0.7,0.3-1.1,0.5c-0.4,0.2-0.8,0.3-1.1,0.5c-0.4,0.1-0.7,0.3-1.1,0.4
			c-0.4,0.1-0.7,0.2-1.1,0.4c-0.4,0.1-0.7,0.2-1,0.3c-0.7,0.2-1.3,0.3-1.7,0.4c-0.2,0.1-0.4,0.1-0.5,0.1c-0.1,0-0.2,0-0.2,0
			s0-0.1,0-0.2c0-0.1,0.1-0.3,0.1-0.5c0.1-0.2,0.2-0.5,0.3-0.8c0.1-0.3,0.3-0.6,0.5-0.9c0.4-0.6,1-1.3,1.7-1.9
			c0.4-0.3,0.8-0.6,1.2-0.8c0.4-0.3,0.9-0.5,1.3-0.7c0.5-0.2,0.9-0.4,1.4-0.5c0.5-0.1,1-0.2,1.4-0.3c0.9-0.1,1.8,0,2.6,0.1
			c0.4,0.1,0.7,0.2,1,0.3c0.3,0.1,0.6,0.2,0.8,0.3c0.2,0.1,0.4,0.2,0.5,0.3C127.5,193.2,127.5,193.3,127.5,193.3z"/>
	</g>
	<g id="XMLID_1611_">
		<path id="XMLID_494_" class="st0" d="M221.7,153.9c0,0,0.1-0.3,0.4-0.7c0.3-0.4,0.7-1,1.1-1.8c0.2-0.4,0.4-0.8,0.7-1.2
			c0.2-0.4,0.4-0.9,0.7-1.3c0.4-0.9,0.8-1.9,1.2-3c0.3-1,0.7-2.1,0.9-3.1c0.1-0.5,0.2-1,0.3-1.5c0.1-0.5,0.2-0.9,0.2-1.3
			c0.1-0.8,0.2-1.5,0.2-2.1c0-0.5,0.1-0.8,0.1-0.8s0.1,0.3,0.3,0.8c0.1,0.2,0.2,0.5,0.3,0.9c0.1,0.4,0.2,0.8,0.2,1.2
			c0.1,0.9,0.2,1.9,0.1,3.1c-0.1,0.6-0.1,1.1-0.3,1.7c-0.1,0.6-0.3,1.2-0.5,1.7c-0.2,0.6-0.4,1.1-0.7,1.7c-0.2,0.5-0.6,1-0.9,1.5
			c-0.6,0.9-1.3,1.8-2,2.4c-0.3,0.3-0.6,0.6-0.9,0.8c-0.3,0.2-0.5,0.4-0.8,0.5C221.9,153.7,221.7,153.9,221.7,153.9z"/>
	</g>
	<g id="XMLID_1608_">
		<path id="XMLID_492_" class="st0" d="M128.4,210c0,0-0.3,0.5-1,1.2c-0.7,0.7-1.7,1.7-3,2.7c-1.3,1-2.9,2.1-4.6,3.2
			c-0.4,0.3-0.8,0.6-1.2,0.8c-0.4,0.3-0.8,0.6-1.2,0.9c-0.8,0.6-1.6,1.2-2.3,1.9c-0.7,0.6-1.4,1.3-2,2c-0.6,0.7-1.1,1.4-1.5,2.2
			c-0.8,1.4-1.1,3.1-1.1,4.5c-0.1,1.5,0.3,2.7,0.6,3.5c0.2,0.4,0.4,0.8,0.5,1c0.1,0.2,0.2,0.3,0.2,0.3s-0.1-0.1-0.4-0.2
			c-0.2-0.1-0.6-0.3-1-0.7c-0.4-0.3-0.9-0.8-1.2-1.4c-0.4-0.6-0.8-1.4-1.1-2.3c-0.5-1.8-0.6-4,0.2-6.3c0.4-1.1,0.9-2.2,1.6-3.2
			c0.7-1,1.5-1.9,2.4-2.7c0.9-0.8,1.8-1.5,2.8-2.1c0.5-0.3,1-0.6,1.5-0.9l0.7-0.4c0.3-0.1,0.5-0.2,0.7-0.4c1.9-0.9,3.7-1.6,5.2-2.1
			c1.5-0.5,2.8-1,3.7-1.4C127.9,210.2,128.4,210,128.4,210z"/>
	</g>
</g>
</svg>
