<?xml version="1.0" encoding="utf-8"?>
<!-- Generator: Adobe Illustrator 19.0.0, SVG Export Plug-In . SVG Version: 6.00 Build 0)  -->
<svg version="1.1" id="Layer_1" xmlns="http://www.w3.org/2000/svg" xmlns:xlink="http://www.w3.org/1999/xlink" x="0px" y="0px"
	 viewBox="0 0 360 177" style="enable-background:new 0 0 360 177;" xml:space="preserve">
<style type="text/css">
	.st0{fill:#EF7B05;}
	.st1{fill:none;}
	.st2{fill:#FFFFFF;}
</style>
<g id="XMLID_257_">
	<g id="XMLID_3206_">
		<g id="XMLID_3215_">
			<path id="XMLID_3216_" class="st0" d="M73.8,13.5C101-3.7,93,43.3,90.1,45.8C69,64.2,64.7,147.7,64.7,147.7l-3.8,21.2
				C50.1,117.8,35.8,37.4,73.8,13.5z"/>
		</g>
		<g id="XMLID_3213_">
			<path id="XMLID_3214_" class="st0" d="M303.7,13.5c-27.2-17.1-19.1,29.8-16.2,32.4c21.1,18.4,25.4,101.9,25.4,101.9l3.8,21.2
				C327.4,117.8,341.7,37.4,303.7,13.5z"/>
		</g>
		<g id="XMLID_3210_">
			<path id="XMLID_109_" class="st1" d="M90.8,23.2"/>
		</g>
		<g id="XMLID_3207_">
			<path id="XMLID_106_" class="st1" d="M307.4,89.3"/>
		</g>
	</g>
	<g id="XMLID_3203_">
		<path id="XMLID_104_" class="st2" d="M86,73.7c0,0,0.1-0.8,0.4-2.2c0.3-1.4,0.7-3.3,1.2-5.6c0.4-2.3,0.9-5,1-7.8
			c0-0.7,0-1.4,0-2.1c0-0.3,0-0.8-0.1-1.1c0-0.3,0-0.7-0.1-1.1c-0.1-1.5-0.4-2.9-0.6-4.4c-0.3-1.5-0.6-3-0.9-4.5
			c-0.3-1.5-0.7-3-0.9-4.5c-0.6-2.9-1.1-5.7-1.4-8c-0.4-2.4-0.6-4.4-0.7-5.8c-0.1-1.4-0.1-2.2-0.1-2.2s0.4,0.7,0.9,2
			c0.6,1.3,1.3,3.1,2.1,5.4c0.8,2.2,1.7,4.9,2.6,7.7c0.8,2.8,1.8,5.9,2.4,9.1c0.3,1.6,0.5,3.3,0.6,4.9c0,0.4,0,0.8,0,1.3
			c0,0.5,0,0.8,0,1.2c0,0.8-0.1,1.6-0.2,2.4c-0.5,3.1-1.4,5.9-2.4,8.1c-1,2.2-1.9,4-2.6,5.2C86.4,73,86,73.7,86,73.7z"/>
	</g>
	<g id="XMLID_3200_">
		<path id="XMLID_102_" class="st2" d="M79,85.7c0,0,0.1-0.8,0.4-2.2c0.3-1.4,0.7-3.3,1.2-5.6c0.4-2.3,0.9-5,1-7.8
			c0-0.7,0-1.4,0-2.1c0-0.3,0-0.8-0.1-1.1c0-0.3,0-0.7-0.1-1.1c-0.1-1.5-0.4-2.9-0.6-4.4c-0.3-1.5-0.6-3-0.9-4.5
			c-0.3-1.5-0.7-3-0.9-4.5c-0.6-2.9-1.1-5.7-1.4-8c-0.4-2.4-0.6-4.4-0.7-5.8c-0.1-1.4-0.1-2.2-0.1-2.2s0.4,0.7,0.9,2
			c0.6,1.3,1.3,3.1,2.1,5.4c0.8,2.2,1.7,4.9,2.6,7.7c0.8,2.8,1.8,5.9,2.4,9.1c0.3,1.6,0.5,3.3,0.6,4.9c0,0.4,0,0.8,0,1.3
			c0,0.5,0,0.8,0,1.2c0,0.8-0.1,1.6-0.2,2.4c-0.5,3.1-1.4,5.9-2.4,8.1c-1,2.2-1.9,4-2.6,5.2C79.4,85,79,85.7,79,85.7z"/>
	</g>
	<g id="XMLID_3197_">
		<path id="XMLID_100_" class="st2" d="M76,100.7c0,0,0.1-0.8,0.4-2.2c0.3-1.4,0.7-3.3,1.2-5.6c0.4-2.3,0.9-5,1-7.8
			c0-0.7,0-1.4,0-2.1c0-0.3,0-0.8-0.1-1.1c0-0.3,0-0.7-0.1-1.1c-0.1-1.5-0.4-2.9-0.6-4.4c-0.3-1.5-0.6-3-0.9-4.5
			c-0.3-1.5-0.7-3-0.9-4.5c-0.6-2.9-1.1-5.7-1.4-8c-0.4-2.4-0.6-4.4-0.7-5.8c-0.1-1.4-0.1-2.2-0.1-2.2s0.4,0.7,0.9,2
			c0.6,1.3,1.3,3.1,2.1,5.4c0.8,2.2,1.7,4.9,2.6,7.7c0.8,2.8,1.8,5.9,2.4,9.1c0.3,1.6,0.5,3.3,0.6,4.9c0,0.4,0,0.8,0,1.3
			c0,0.5,0,0.8,0,1.2c0,0.8-0.1,1.6-0.2,2.4c-0.5,3.1-1.4,5.9-2.4,8.1c-1,2.2-1.9,4-2.6,5.2C76.4,100,76,100.7,76,100.7z"/>
	</g>
	<g id="XMLID_3177_">
		<path id="XMLID_98_" class="st2" d="M73,114.7c0,0,0.1-0.8,0.4-2.2c0.3-1.4,0.7-3.3,1.2-5.6c0.4-2.3,0.9-5,1-7.8
			c0-0.7,0-1.4,0-2.1c0-0.3,0-0.8-0.1-1.1c0-0.3,0-0.7-0.1-1.1c-0.1-1.5-0.4-2.9-0.6-4.4c-0.3-1.5-0.6-3-0.9-4.5
			c-0.3-1.5-0.7-3-0.9-4.5c-0.6-2.9-1.1-5.7-1.4-8c-0.4-2.4-0.6-4.4-0.7-5.8c-0.1-1.4-0.1-2.2-0.1-2.2s0.4,0.7,0.9,2
			c0.6,1.3,1.3,3.1,2.1,5.4c0.8,2.2,1.7,4.9,2.6,7.7c0.8,2.8,1.8,5.9,2.4,9.1c0.3,1.6,0.5,3.3,0.6,4.9c0,0.4,0,0.8,0,1.3
			c0,0.5,0,0.8,0,1.2c0,0.8-0.1,1.6-0.2,2.4c-0.5,3.1-1.4,5.9-2.4,8.1c-1,2.2-1.9,4-2.6,5.2C73.4,114,73,114.7,73,114.7z"/>
	</g>
	<g id="XMLID_3174_">
		<path id="XMLID_96_" class="st2" d="M70,119c0,0,0.1-0.6,0.4-1.6c0.3-1,0.7-2.4,1.2-4.1c0.4-1.7,0.9-3.6,1.1-5.5c0-0.5,0-1,0-1.5
			c0-0.2,0-0.6,0-0.8c0-0.2,0-0.5-0.1-0.7c-0.1-1-0.3-2.1-0.6-3.1c-0.3-1.1-0.6-2.1-0.9-3.2c-0.3-1.1-0.7-2.2-0.9-3.2
			c-0.6-2.1-1.1-4.1-1.4-5.9c-0.3-1.7-0.6-3.2-0.7-4.3c-0.1-1-0.2-1.7-0.2-1.7s0.4,0.5,0.9,1.4c0.6,0.9,1.3,2.2,2.1,3.8
			c0.8,1.6,1.7,3.4,2.6,5.5c0.4,1,0.9,2.1,1.3,3.2c0.4,1.1,0.8,2.3,1.1,3.5c0.3,1.2,0.5,2.5,0.6,3.8c0,0.3,0,0.7,0,1
			c0,0.4,0,0.5,0,0.9c-0.1,0.6-0.1,1.3-0.3,1.9c-0.5,2.4-1.5,4.4-2.4,5.9c-1,1.6-1.9,2.7-2.6,3.5C70.4,118.6,70,119,70,119z"/>
	</g>
	<g id="XMLID_3171_">
		<path id="XMLID_94_" class="st2" d="M291.3,75.7c0,0-0.4-0.7-1.1-1.9c-0.7-1.2-1.7-3-2.6-5.2c-1-2.2-1.9-5-2.4-8.1
			c-0.1-0.8-0.2-1.6-0.2-2.4c0-0.5,0-0.8,0-1.2c0-0.4,0-0.9,0-1.3c0.1-1.7,0.3-3.3,0.6-4.9c0.6-3.2,1.5-6.3,2.4-9.1
			c0.9-2.8,1.7-5.5,2.6-7.7c0.8-2.2,1.6-4.1,2.1-5.4c0.6-1.3,0.9-2,0.9-2s0,0.8-0.1,2.2c-0.1,1.4-0.3,3.4-0.7,5.8
			c-0.3,2.4-0.8,5.1-1.4,8c-0.3,1.5-0.6,3-0.9,4.5c-0.3,1.5-0.7,3-0.9,4.5c-0.3,1.5-0.5,3-0.6,4.4c0,0.4-0.1,0.7-0.1,1.1
			c0,0.3,0,0.8-0.1,1.1c0,0.7,0,1.4,0,2.1c0.1,2.8,0.6,5.5,1,7.8c0.5,2.3,0.9,4.3,1.2,5.6C291.2,74.9,291.3,75.7,291.3,75.7z"/>
	</g>
	<g id="XMLID_3168_">
		<path id="XMLID_92_" class="st2" d="M298.3,87.7c0,0-0.4-0.7-1.1-1.9c-0.7-1.2-1.7-3-2.6-5.2c-1-2.2-1.9-5-2.4-8.1
			c-0.1-0.8-0.2-1.6-0.2-2.4c0-0.5,0-0.8,0-1.2c0-0.4,0-0.9,0-1.3c0.1-1.7,0.3-3.3,0.6-4.9c0.6-3.2,1.5-6.3,2.4-9.1
			c0.9-2.8,1.7-5.5,2.6-7.7c0.8-2.2,1.6-4.1,2.1-5.4c0.6-1.3,0.9-2,0.9-2s0,0.8-0.1,2.2c-0.1,1.4-0.3,3.4-0.7,5.8
			c-0.3,2.4-0.8,5.1-1.4,8c-0.3,1.5-0.6,3-0.9,4.5c-0.3,1.5-0.7,3-0.9,4.5c-0.3,1.5-0.5,3-0.6,4.4c0,0.4-0.1,0.7-0.1,1.1
			c0,0.3,0,0.8-0.1,1.1c0,0.7,0,1.4,0,2.1c0.1,2.8,0.6,5.5,1,7.8c0.5,2.3,0.9,4.3,1.2,5.6C298.2,86.9,298.3,87.7,298.3,87.7z"/>
	</g>
	<g id="XMLID_3165_">
		<path id="XMLID_90_" class="st2" d="M301.3,102.7c0,0-0.4-0.7-1.1-1.9c-0.7-1.2-1.7-3-2.6-5.2c-1-2.2-1.9-5-2.4-8.1
			c-0.1-0.8-0.2-1.6-0.2-2.4c0-0.5,0-0.8,0-1.2c0-0.4,0-0.9,0-1.3c0.1-1.7,0.3-3.3,0.6-4.9c0.6-3.2,1.5-6.3,2.4-9.1
			c0.9-2.8,1.7-5.5,2.6-7.7c0.8-2.2,1.6-4.1,2.1-5.4c0.6-1.3,0.9-2,0.9-2s0,0.8-0.1,2.2c-0.1,1.4-0.3,3.4-0.7,5.8
			c-0.3,2.4-0.8,5.1-1.4,8c-0.3,1.5-0.6,3-0.9,4.5c-0.3,1.5-0.7,3-0.9,4.5c-0.3,1.5-0.5,3-0.6,4.4c0,0.4-0.1,0.7-0.1,1.1
			c0,0.3,0,0.8-0.1,1.1c0,0.7,0,1.4,0,2.1c0.1,2.8,0.6,5.5,1,7.8c0.5,2.3,0.9,4.3,1.2,5.6C301.2,101.9,301.3,102.7,301.3,102.7z"/>
	</g>
	<g id="XMLID_261_">
		<path id="XMLID_88_" class="st2" d="M304.3,116.7c0,0-0.4-0.7-1.1-1.9c-0.7-1.2-1.7-3-2.6-5.2c-1-2.2-1.9-5-2.4-8.1
			c-0.1-0.8-0.2-1.6-0.2-2.4c0-0.5,0-0.8,0-1.2c0-0.4,0-0.9,0-1.3c0.1-1.7,0.3-3.3,0.6-4.9c0.6-3.2,1.5-6.3,2.4-9.1
			c0.9-2.8,1.7-5.5,2.6-7.7c0.8-2.2,1.6-4.1,2.1-5.4c0.6-1.3,0.9-2,0.9-2s0,0.8-0.1,2.2c-0.1,1.4-0.3,3.4-0.7,5.8
			c-0.3,2.4-0.8,5.1-1.4,8c-0.3,1.5-0.6,3-0.9,4.5c-0.3,1.5-0.7,3-0.9,4.5c-0.3,1.5-0.5,3-0.6,4.4c0,0.4-0.1,0.7-0.1,1.1
			c0,0.3,0,0.8-0.1,1.1c0,0.7,0,1.4,0,2.1c0.1,2.8,0.6,5.5,1,7.8c0.5,2.3,0.9,4.3,1.2,5.6C304.2,115.9,304.3,116.7,304.3,116.7z"/>
	</g>
	<g id="XMLID_258_">
		<path id="XMLID_86_" class="st2" d="M307.3,121c0,0-0.4-0.4-1.1-1.2c-0.7-0.8-1.6-2-2.6-3.5c-0.9-1.6-1.9-3.5-2.4-5.9
			c-0.1-0.6-0.2-1.2-0.3-1.9c0-0.4,0-0.6,0-0.9c0-0.3,0-0.7,0-1c0.1-1.3,0.3-2.6,0.6-3.8c0.3-1.2,0.7-2.4,1.1-3.5
			c0.4-1.1,0.8-2.1,1.3-3.2c0.9-2,1.7-3.9,2.6-5.5c0.8-1.6,1.6-2.9,2.1-3.8c0.5-0.9,0.9-1.4,0.9-1.4s0,0.6-0.2,1.7
			c-0.1,1-0.3,2.5-0.7,4.3c-0.3,1.7-0.8,3.8-1.4,5.9c-0.3,1.1-0.6,2.2-0.9,3.2c-0.3,1.1-0.7,2.2-0.9,3.2c-0.3,1.1-0.5,2.1-0.6,3.1
			c0,0.3-0.1,0.5-0.1,0.7c0,0.2,0,0.6,0,0.8c0,0.5,0,1,0,1.5c0.1,2,0.6,3.9,1.1,5.5c0.5,1.7,0.9,3.1,1.2,4.1
			C307.2,120.4,307.3,121,307.3,121z"/>
	</g>
</g>
</svg>
