<?xml version="1.0" encoding="utf-8"?>
<!-- Generator: Adobe Illustrator 19.0.0, SVG Export Plug-In . SVG Version: 6.00 Build 0)  -->
<svg version="1.1" id="Layer_1" xmlns="http://www.w3.org/2000/svg" xmlns:xlink="http://www.w3.org/1999/xlink" x="0px" y="0px"
	 viewBox="0 0 517.6 573" style="enable-background:new 0 0 517.6 573;" xml:space="preserve">
<style type="text/css">
	.st0{fill:#EF7B05;}
	.st1{fill:#FFFFFF;}
</style>
<g id="XMLID_4462_">
	<path id="XMLID_7159_" class="st0" d="M446.7,265.7c0.6-11.1,9.8-22.3,9.3-33.5c-0.5-11.2-10.7-20.6-12.4-31.5
		c-1.7-11,4.8-25.3,1.9-35.7c-2.9-10.5-14.7-15.2-18.9-24.7c-4.2-9.6-1.7-26.1-7.2-34.4c-5.4-8.2-17.6-6.4-24.4-13
		c-4.1-4-3.8-18.5-8.6-22.1c-4.5-3.4-13.4,4.7-18.4,1.7c-4.8-2.8-6.6-17.1-11.7-19.4c-5-2.3-12.7,7.8-17.9,6.2
		c-5.2-1.7-8.8-15.3-14.1-16.2c-5.4-1-11.4,11-16.6,10.9c-5.4-0.1-11.3-12.2-16.5-11.2c-6.3,1.2-5.9,13-11.1,15.5
		c-5.9,2.8-12.1-10.3-18.1-2.5c-1.7,2.2-1.1,6.8-2.7,8.7c-1.4,0-2.8,0-4.3,0.2c-2.7-1.5-4.7-7.9-6-11.6c-6.8-2-8.5,8.4-14.2,3.7
		c-4-3.4-4.8-12.9-10.3-14c-5.2-1-11,11.1-16.5,11.2C203,53.9,197,42,191.7,43c-5.2,0.9-8.9,14.6-14.1,16.2
		c-5.2,1.7-12.8-8.4-17.9-6.2c-5.1,2.3-6.9,16.6-11.7,19.4c-5,2.9-13.9-5.1-18.4-1.7c-4.9,3.7-4.5,18.1-8.6,22.1
		c-6.7,6.6-18.9,4.8-24.4,13c-5.5,8.3-3,24.8-7.2,34.4c-4.2,9.6-16,14.2-18.9,24.7c-2.9,10.4,3.6,24.7,1.9,35.7
		c-1.7,10.9-11.9,20.3-12.4,31.5c-0.5,11.2,8.7,22.4,9.3,33.5c0.6,11.2-7.3,24.2-5.5,35c0.9,5.5,4.1,10,7.4,14.4
		c-0.8,1.1-1.7,2.3-2.7,4.1c-0.5,1-1.2,45.8-1.6,47.9c-0.1,0.5-0.1,1.2-0.2,1.8l0,0.9c-0.1-0.6,0.1,1.4,0.1,1.2l0,0.2l0.1,0.6
		c0,0,0.1-2.2,0.2-1.9c0.1,0.3,0.2,0.6,0.3,0.9c0.2,0.5,0.5,3.9,0.7,4.1l0.5,0.9c0.4,0.6,0.7,1,1,1.4c0.7,0.8,1.3,1.4,1.9,2
		c1.2,1.1,2.3,2,3.2,2.8c0.8,0.7,1.6,1.3,2.1,1.8c-0.1,0.1-0.2,0.3-0.2,0.4c-0.6,0.9-1.3-0.7-2.1,0.3c-0.8,1-1.7,2.1-2.6,3.4
		c-0.2,0.3-0.5,0.7-0.7,1.1c-0.2,0.4-0.5,0.8-0.7,1.3l-0.4,0.8c-0.1,0.3-0.3,0.7-0.4,1.1c-0.2,0.6-0.4,1.8-0.5,2.8
		c-0.1-0.7,0.1,1.4,0.1,1.2l0,0.1l0,0.3l0.1,0.3c0.1,0.3,0.2,0.7,0.3,1c0.2,0.6,0.5,1.4,0.8,1.8l0.6,0.8c0.8,1,1.4,1.5,2,1.9
		c1.2,0.9,2.2,1.4,3.2,2c1,0.5,1.9,1,2.7,1.5c0.1,0,0.1,0.1,0.2,0.1c-0.4,0.8-0.9,1.6-1.5,2.5c-0.7,1-1.3,2-1.9,3
		c-0.7,1.1-1.3,2-2,4.2c-0.1,0.3-0.1,0.7-0.2,1l-0.1,0.5c0,0.2,0,0.5,0,0.7c0,0.2,0,0.5,0.1,0.7l0.1,0.4c0,0,0.4,1.2,0.2,0.7
		l0.2,0.4l0.1,0.2l0.3,0.5c0.2,0.3,0.4,0.6,0.6,0.8c0.4,0.5,0.6,0.6,0.9,0.8c1.1,0.8,2,1.2,2.9,1.5c1.7,0.7,3.3,1.1,4.7,1.7
		c0.4,0.2,0.8,0.4,1.1,0.6c-0.2,0.2-0.5,0.4-0.7,0.6c-0.6,0.4-1.2,0.8-1.8,1.1c-1.2,0.7-2.4,1.4-3.6,2.3c-0.6,0.4-1.1,0.9-1.7,1.5
		c-0.3,0.4-0.5,0.6-0.7,1.2l-0.2,0.4l-0.1,0.2l0,0.1c-0.1,0.5,0,0.2-0.1,0.3l-0.1,0.6c0,1.5,0.3,2,0.5,2.7c0.2,0.7,0.5,1.3,0.7,1.9
		c1,2.3,1.8,4.1,2.4,5.7c0.6,1.6,0.8,2.9,0.8,3.8c0,0.5-0.1,0.8-0.2,1c-0.1,0.2-0.1,0.3-0.1,0.3s0.1-0.1,0.2-0.3
		c0.1-0.2,0.3-0.5,0.3-1c0.2-0.9,0.1-2.4-0.3-4.1c-0.4-1.7-1-3.8-1.7-6.2c-0.2-0.6-0.3-1.2-0.5-1.8c-0.2-0.6-0.2-1.4-0.2-1.4
		c0.1-0.7,1-1.4,2-2c1-0.6,2.2-1,3.5-1.5c0.7-0.3,1.3-0.5,2-0.9c0.7-0.4,1.5-0.7,2.4-1.8c0.2-0.1,0.6-0.8,0.8-1.5
		c0.1-0.2,0.1-0.4,0.1-0.5l0-0.2l0.1-0.4c0-1.1,0-0.4,0-0.8l0-0.2l-0.1-0.5c-0.1-0.3-0.2-0.7-0.3-0.9c-0.2-0.4-0.5-0.9-0.7-1.1
		c-1-1.1-1.7-1.5-2.5-2c-1.6-0.9-3.2-1.6-4.6-2.4c-0.5-0.3-1-0.6-1.4-0.9c0.2-0.3,0.5-0.7,0.8-1.1c0.7-0.8,1.3-1.6,2-2.5
		c0.5-0.7,1.1-1.4,1.7-2.2c0,0.6,0,1.1,0.1,1.7l0.2,1.2l0.1,0.6c0.1,0.4-0.1-0.4,0.2,0.9l0.1,0.1l0.4,1c0.3,0.7,0.7,1.4,1,2.1
		c1.3,2,2.4,3,3.5,4c1.1,0.9,2.1,1.7,3,2.4c1.3,0.9,2.5,1.8,3.4,2.6c0.2,1.9,0.6,3.6,1.4,4.9c0,0.1,0.1,0.1,0.1,0.1
		c-0.4,0.9-1,1.8-1.6,2.7c-2.1,3.5-4.7,6.7-5.9,11.5l-0.1,0.4l0,0.1c0-0.2-0.1,0.4-0.1,0.4l0,0.2l-0.1,0.7c0,0.5,0,1.4,0,2
		c0.1,1.1,0.3,2.1,0.5,3c0.4,1.8,0.9,3.3,1.3,4.7c0.8,2.8,1.5,5.1,1.7,7.1c0.3,2,0.1,3.5-0.1,4.5c-0.3,1-0.5,1.5-0.5,1.5
		s0.3-0.4,0.7-1.3c0.4-1,0.8-2.6,0.9-4.8c0.1-2.2-0.2-4.9-0.6-7.9c-0.2-1.5-0.4-3.1-0.6-4.7c-0.1-0.8-0.1-1.6-0.1-2.3
		c0.1-0.3,0-0.4,0.1-0.8l0.1-0.7l0-0.2c0-0.1-0.1,0.4,0,0.2l0-0.1l0.1-0.2c1-2.6,3.4-5,6.2-8.1c1.1-1.3,2.3-2.5,3.5-4.7
		c0.2,0,0.3,0.1,0.5,0.1c0,0,0,0.1-0.1,0.1c-0.2,0.3-0.6,1.1-0.8,1.6c-0.1,0.3-0.2,0.6-0.4,1c-0.1,0.5-0.2,1-0.3,1.5
		c-0.1,0.5-0.1,1-0.2,1.5c0,0.1,0,2.2,0,1.4l0,0.2l0.1,0.6l0.1,0.8c0.1,0.4,0.1,0.7,0.2,1.1c0.2,0.7,0.4,1.5,0.6,1.9
		c0.3,0.7,0.7,1.5,1,2c0.3,0.5,0.7,1,1,1.5l0.9,1.1c1.2,1.3,2.2,2.3,3.2,3.2c1,0.9,1.8,1.7,2.5,2.3c0.1,0.1,0.1,0.1,0.2,0.2
		c-0.3,0.6-0.7,1.4-1.1,2.1c-1.2,2.2-2.8,4.1-4.2,7.9c-0.2,0.5-0.3,1.1-0.5,1.7c-0.1,0.7-0.3,1.5-0.3,2.2c0,0.4,0,0.9,0,1.4l0.1,0.7
		l0,0.3c0,0,0.3,1.6,0.2,0.9l0.2,0.5l0.1,0.2l0.2,0.4c0.3,0.8,0.8,1.7,1.2,2.2c0.3,0.4,0.6,0.8,0.9,1.1c0.6,0.5,1.2,1,1.7,1.4
		c2.1,1.5,3.8,2.2,5.4,3c0.8,0.4,1.5,0.8,2,1.2c0.6,0.4,0.8,0.8,0.8,0.6l0,0l0,0c0,0,0,0,0-0.1l0,0l0,0.2c0,0,0,0,0,0.1c0,0,0,0,0,0
		c0,0.1,0,0.2,0,0.3c-0.2,0.7-0.4,1.5-0.8,2.4c-1.4,3.5-3.4,6.5-4.2,11c-0.1,1.2-0.2,2.6,0.3,3.8c0.1,0.3,0.5,1,0.8,1.5
		c0.3,0.5,0.6,0.7,0.9,1c1.1,1,2.2,1.5,3.1,2.1c1.9,1,3.5,1.7,4.7,2.5c1.2,0.8,2.1,1.6,2.5,2.3c0.5,0.7,0.5,1.3,0.5,1.2
		c0,0,0-0.5-0.3-1.4c-0.3-0.9-1.1-2.1-2.2-3.2c-1.1-1.2-2.7-2.3-4.3-3.8c-0.8-0.7-1.7-1.5-2.4-2.4c-0.1-0.2-0.3-0.5-0.4-0.6
		c0-0.2-0.1,0-0.2-0.6c-0.1-0.3,0-0.7,0.1-1.2c0.3-1.1,1.1-2.5,2-3.8c0.9-1.4,1.9-2.9,3-4.7c0.5-0.9,1.1-1.9,1.6-3.2
		c0.2-0.8,0.5-1.3,0.6-2.8c0-0.3,0-0.7,0.1-1l0-0.4l0-0.4c0.1,0.4-0.1-0.7-0.1-0.7l-0.1-0.2l-0.1-0.4c-0.6-2.3-1.7-3.5-2.6-4.4
		c-0.9-0.9-1.8-1.6-2.6-2.3c-1.6-1.3-3.4-2.4-4.5-3.6c-0.1-0.1-0.1-0.1-0.2-0.2c0.7-1.1,2-2.8,3.4-4.7c0.8-1.1,1.7-2.3,2.6-3.9
		c0.4-0.7,0.8-1.5,1.2-2.7c0.4,0.9,0.9,1.7,1.5,2.3c1.3,1.2,2.9,1.6,4.8,1.5c-0.5,1.7-1.2,3.6-1.9,5.9c-0.4,1.4-0.8,3-1.1,5
		l-0.1,1.7c0,0.6,0,1.3,0,2c0,0.6,0.2,1.5,0.3,2.2l0.1,0.6l0.1,0.3c0.5,1.5,0.2,0.5,0.3,0.8l0.2,0.4l0.2,0.4c0.2,0.3,0.4,0.7,0.6,1
		c0.4,0.6,0.9,1.3,1.2,1.5l0.9,0.9l0.8,0.6c1.1,0.8,2.1,1.2,3,1.6c1.8,0.8,3.4,1.3,4.7,1.9c0.7,0.3,1.2,0.6,1.6,0.9
		c0.4,0.2,0.3,0.4,0.3-0.4l0.1,0.6c0,0.1,0,0.1,0,0.2c-0.1,0.6-0.3,1.2-0.6,2c-0.6,1.4-1.4,3-2.2,4.5c-0.8,1.5-1.6,3.1-2.2,4.9
		c-0.3,0.9-0.6,1.9-0.7,3.1l0,0.9l0,0.1c0-0.2,0,0.4,0,0.3l0,0.1l0,0.3l0.1,0.6l0.2,0.8c0.5,2,1.1,3.1,1.7,4.3
		c0.6,1.1,1.2,2.1,1.7,3c1.1,1.8,1.9,3.4,2.5,4.8c0.5,1.4,0.8,2.5,0.6,3.3c-0.1,0.8-0.3,1.2-0.3,1.2c0,0,0.2-0.3,0.5-1.1
		c0.3-0.8,0.3-2.2,0-3.9c-0.3-1.7-0.9-3.6-1.7-5.7c-0.4-1.1-0.7-2.2-1.1-3.4c-0.4-1.1-0.8-2.6-0.8-3.5l0-0.3l0-0.6v-0.3v-0.1
		c0-0.1,0,0.4,0,0.2l0,0c0-0.1,0.1-0.2,0.1-0.2c0.1-0.3,0.3-0.8,0.6-1.3c0.6-1.1,1.5-2.2,2.4-3.4c1-1.2,2-2.6,3.1-4.3
		c0.5-0.9,1.1-1.9,1.6-3.2c0.1-0.3,0.2-0.7,0.3-1.1c0.1-0.4,0.2-0.7,0.2-1.2c1,0.5,1.9,1,2.5,1.3c-0.1,0.9-0.3,1.9-0.5,2.9
		c-0.4,2.9-1.2,6-0.9,11.5c0.2,1.5,0.4,3,1,4.7c0.1,0.4,0.3,0.8,0.5,1.2c0-0.1,0.9,1.8,0.5,1l0.1,0.1l0.1,0.2l0.8,1.2
		c0.5,0.7,1.2,1.5,1.7,1.9l1.2,0.9c0.8,0.5,1.4,0.8,2.1,1.1c2.5,0.9,4.3,1.2,6,1.5c1.6,0.2,3,0.6,3.5,0.7c0.3,0,0-0.1-0.1-1.1
		l0.3,0.6c-0.1-0.2-0.1-0.4-0.1-0.5c0-0.1,0-0.2,0-0.2l0,0.1c0,0.1,0,0.1,0.1,0.2c0.1,1-0.1,2.8-0.3,4.6c-0.3,1.8-0.7,3.7-0.9,5.7
		c-0.3,2-0.6,4.1-0.3,6.9c0,0.6,0.3,1.4,0.5,2.1l0.1,0.3c0.2,0.7,0.1,0.2,0.1,0.4l0,0.1l0.1,0.2l0.3,0.5c0.4,0.8,1.2,2,1.7,2.4
		c2.2,2.2,4.1,3.1,5.7,4.1c1.6,0.9,2.9,1.6,3.9,2.4c1,0.8,1.7,1.5,2,2.2c0.3,0.7,0.3,1.2,0.4,1.1c0,0,0.1-0.4,0-1.3
		c-0.1-0.9-0.6-2.1-1.5-3.4c-0.8-1.3-2-2.7-3.3-4.2c-1.3-1.6-2.9-3.3-3.9-5.3c-0.3-0.6-0.3-0.7-0.4-1.2l-0.1-0.6l-0.1-0.3l0-0.1
		c0,0.1-0.1-0.4,0.1,0.3l0,0c0.1-0.1,0-0.1,0.1-0.3c0.1-0.6,0.5-1.9,1-3.4c0.6-1.6,1.2-3.2,1.9-4.9c0.7-1.9,1.5-4,1.9-7.2l0.1-1.4
		l0-0.7c0-0.2,0-0.7-0.1-1c-0.1-0.7-0.2-1.4-0.3-2.1l0,0c0.5,0.4,1,0.8,1.5,1.2c0.5,0.3,0.8,0.5,1.2,0.7c1.5,0.8,2.5,1.1,3.5,1.4
		c0.6,0.2,1.1,0.3,1.6,0.4c-0.3,1-0.7,2.1-1.1,3.4c-0.3,1.4-0.7,2.7-0.8,5.4l0,0.9c0,0.3,0.1,0.8,0.1,1.2c0.1,0.4,0.1,0.8,0.2,1.2
		l0.1,0.6c-0.3-0.8,0.5,1.4,0.4,1.2l0,0.1l0.3,0.5l0.4,0.8c0.2,0.3,0.4,0.6,0.6,0.9c0.2,0.3,0.4,0.5,0.7,0.8
		c0.2,0.2,0.3,0.3,0.4,0.4l0.8,0.6c0.5,0.3,0.9,0.5,1.3,0.8c0.8,0.4,1.5,0.6,2.2,0.8c0.3,0.1,0.6,0.1,0.9,0.2
		c3.2-11.3,5.2-22.9,5.8-34.3c0.1-2.4,15.1,21.6,15.1,19.2c0-0.1-2.9-4.9-2.9-4.9c-0.1-17.3,0,0-4.1-18.1l-11.3-120.3
		c-9.4-10.6-17.7-22.7-21.3-34.6c-1.6-5.3-4-13.5-6.5-24.5c-7.1-10.5-22.7-36.8-20.5-47.1c2.1-10.2,9.2-15.6,9.2-15.6l0.9-0.1
		c-0.3-2.5-0.5-5.1-0.7-7.6c3-6.4,5.7-14.8,6-16.8c2.2-13.1-4-26.7-2.1-30.2c2.1-3.8,7.4-4.9,12.2-6.4c0.4,0.4,0.8,0.9,1.1,1.3
		c0.5,0.5,0.8,1.1,1.1,1.5c-0.4,0.4-1,0.9-1.6,1.5c-1,0.8-2,1.7-3.1,2.5c-1.1,1-2.3,2-3.6,3.9c-0.3,0.4-0.6,1.2-0.9,1.8
		c-0.1,0.3-0.2,0.8-0.3,1.2l-0.1,0.6l0,0.3c0,1.3,0,0.4,0,0.8l0,0.5c0,0,0,0.3,0.1,0.5l0.2,0.7c0.1,0.4,0.3,1,0.4,1.3l0.4,0.7
		c1,1.8,2,2.8,2.8,3.8c1.7,1.9,3.4,3.6,4.2,5c0.4,0.6,0.4,1.2,0.5,0.7l0,0.2l-0.1,0.1c-0.1,0.2-0.4,0.6-0.7,0.9
		c-1.2,1.4-3,2.8-4.7,4.5c-0.9,0.9-1.7,1.8-2.6,3c-0.4,0.7-0.8,1.4-1.1,2.4c-0.2,0.4-0.2,1-0.3,1.5l0,0.2c0,0.3,0-0.3,0,0.6l0,0.2
		l0.1,0.4l0,0.2l0.1,0.4c0.1,0.3,0.2,0.6,0.2,0.9c0.2,0.6,0.4,0.9,0.6,1.3c0.4,0.7,0.8,1.2,1.2,1.7c0.8,1,1.6,1.7,2.3,2.4
		c1.5,1.4,2.9,2.6,4,3.8c0.5,0.6,1,1.2,1.1,1.6c0.1,0.1,0.1,0.2,0.1,0.3c0,0,0,0.1,0,0.1c0-0.1,0,0,0,0l0,0c0,0.2,0,0.5,0,0.6
		c0,0.1-0.1,0.1-0.1,0.2c-0.3,1.1-1.2,2.6-2,3.9c-0.9,1.3-1.8,2.6-2.7,4c-0.8,1.4-1.7,2.8-1.9,4.7c0,0.2,0,0.5,0,0.7
		c0.1,0.3,0,0.4,0.2,0.9c0.2,0.3,0.2,0.6,0.5,1c0.5,0.9,1.1,1.3,1.6,1.7c1.1,0.8,2.2,1.1,3.2,1.4c2,0.6,3.6,0.8,5,1.2
		c2.7,0.6,3.8,1.8,3.8,1.8c0,0-0.2-0.3-0.8-0.8c-0.6-0.5-1.5-1.1-2.8-1.6c-1.3-0.6-2.9-1.1-4.7-2c-0.9-0.4-1.8-0.9-2.6-1.6
		c-0.4-0.3-0.7-0.8-0.8-1c-0.1-0.1-0.2-0.6-0.3-0.9c0.1,0,0-0.3,0.1-0.5c0.2-0.9,0.9-2,1.8-3.1c0.9-1.1,1.9-2.2,3-3.5
		c1.1-1.3,2.3-2.6,3.2-5c0.1-0.4,0.2-0.7,0.3-1.1c0.1-0.3,0.1-0.5,0.1-0.7l0-0.2l0-0.1c0-0.5,0-0.2,0-0.4l-0.1-0.6
		c0-0.4-0.1-0.8-0.2-1.1c-0.4-1.4-1.1-2.3-1.7-3.2c-1.3-1.7-2.7-3.1-4-4.6c-0.6-0.7-1.2-1.4-1.7-2.1c-0.2-0.3-0.4-0.7-0.5-0.9
		c0-0.1,0-0.1-0.1-0.2c0,0,0,0,0,0c0,0,0,0,0,0l0-0.2l0-0.2c0,0,0-0.1,0,0l0,0c0.1,0,0,0,0.1-0.1c0.1-0.1,0.1-0.1,0.1-0.2
		c0.1-0.1,0.2-0.2,0.2-0.3c0.4-0.5,1.1-1.2,1.8-1.8c1.5-1.3,3.3-2.5,5.3-4.4c0.5-0.5,1-1,1.5-1.8l0.4-0.6c0.2-0.3,0.3-0.6,0.5-1
		c0.1-0.3,0.3-0.7,0.4-1l0.1-0.4c0.5-2.9-0.3-4.8-1-6.4c-1.5-3-3.3-4.9-4.7-6.8c-0.5-0.6-0.9-1.2-1.2-1.7c0.3-0.3,0.9-0.8,1.4-1.2
		c1-0.7,2-1.5,3.1-2.2c1.1-0.9,2.4-1.7,3.7-3.4l0.5-0.7l0.3-0.4c0.1-0.2,0.2-0.4,0.3-0.6c0.2-0.5,0.4-0.9,0.6-1.4
		c0.1-0.3,0.1-0.3,0.1-0.4l0.1-0.3l0.1-0.3c0.1-0.4-0.1,0.6,0.1-0.8l0-0.3c0-0.5,0-0.9,0-1.4c-0.1-0.9-0.3-1.6-0.5-2.3
		c-0.9-2.4-1.9-3.7-2.8-5c1.5-2.4,2.4-5.8,3.3-9.1c0.3-0.2,0.6-0.5,0.9-0.8c0.4-0.3,0.8-0.9,1.3-1.4c0.2-0.2,0.5-0.7,0.8-1.3
		c0.3-0.5,0.6-1.2,0.7-1.6l0.2-0.5l0-0.1c0,0.2,0.4-1.6,0.2-1.1l0.1-0.8c0-0.7,0-1.3-0.1-1.8c0.4-0.4,0.8-0.8,1.2-1.1
		c5.4-3.8,15.5,1.7,21.4-1.3c5.9-3,8.6-15.1,14.6-17.3c6.3-2.3,15.1,5.6,21.1,4.1c5.1-1.3,8.8-12.4,14.7-13.7c5.4-1.2,13,7.5,18.5,6
		c5.6-1.5,8.3-13,13.5-15.1c5.5-2.3,14.9,3.8,19.3,0.4c4.3-3.3,2.3-9.3,3-14c1-6.5,5.3-1.6,8.9-5.5c0.6-0.6,1.1-1.3,1.5-2
		c-0.3,4.7-3.2,8.3-1,13.5c1.3,3,10.9,1.3,12.6,4.5c1.5,2.9-4.5,11.3-2.6,14.3c1.7,2.8,11.2-0.2,13.4,3c2,2.8-3.2,12-1.1,15
		c2.1,2.9,11.4-0.3,13.4,2.6c2,3.1-3.5,11.9-1.8,14.9c1.9,3.3,11.7,1.7,12.9,4.8c1.3,3.2-6.5,10.4-5.7,15.3c0.5,3.2,3.4,3.2,5.2,4.7
		c2.1,1.8,2.6,4.5,2.6,7.4c0,2.5-0.7,4.8-2,6.7c-1.3,1.9-3.9,3.4-3.8,6.2c0.1,3.1,3.6,4.6,4.2,7.4c0.7,3.2-0.6,9.3-0.5,12.9
		c0.1,3.9,0.4,5.8,2.4,7.7c-0.1,1.1-0.2,2.2-0.3,3.3l0.9,0.1c0,0,7.1,5.4,9.2,15.6c2.2,10.3-13.5,36.7-20.5,47.1
		c-2.6,11-4.9,19.2-6.5,24.5c-3.6,12-11.9,24-21.3,34.6l-5.5,30.3c-4.1,18.1-0.9,76.9-1,94.1c0,0.2,2,12.8,2,12.9
		c0,2.5,1.3-15,1.4-12.5c0.4,7.4,1.4,14.9,2.9,22.3c0,0.2,0.1,0.4,0.1,0.6c0.8,3.6,1.7,7.3,2.7,10.9c0.5-0.1,0.9-0.2,1.4-0.3
		c0.7-0.2,1.4-0.4,2.2-0.8c0.4-0.2,0.8-0.4,1.3-0.8l0.8-0.6c0.1-0.1,0.2-0.2,0.4-0.4c0.2-0.2,0.4-0.5,0.7-0.8
		c0.2-0.3,0.4-0.6,0.6-0.9l0.4-0.8l0.3-0.5l0-0.1c-0.1,0.2,0.7-2,0.4-1.2l0.1-0.6c0.1-0.4,0.2-0.8,0.2-1.2c0.1-0.4,0.1-0.8,0.1-1.2
		l0-0.9c0-2.7-0.5-3.9-0.8-5.4c-0.3-1.3-0.7-2.4-1.1-3.4c0.5-0.1,1-0.2,1.6-0.4c1-0.3,2-0.6,3.5-1.4c0.4-0.2,0.7-0.4,1.2-0.7
		c0.5-0.4,1-0.8,1.5-1.2l0,0c-0.1,0.7-0.2,1.4-0.3,2.1c0,0.3-0.1,0.8-0.1,1l0,0.7l0.1,1.4c0.4,3.2,1.2,5.3,1.9,7.2
		c0.7,1.7,1.3,3.4,1.9,4.9c0.5,1.4,0.9,2.7,1,3.4c0.1,0.2,0,0.2,0.1,0.3l0,0c0.2-0.6,0.1-0.1,0.1-0.3l0,0.1l-0.1,0.3l-0.1,0.6
		c-0.2,0.5-0.1,0.6-0.4,1.2c-1,2-2.6,3.7-3.9,5.3c-1.3,1.6-2.5,2.9-3.3,4.2c-0.8,1.3-1.4,2.5-1.5,3.4c-0.1,0.9,0,1.3,0,1.3
		c0,0,0.1-0.5,0.4-1.1c0.3-0.7,1-1.4,2-2.2c1-0.8,2.3-1.5,3.9-2.4c1.6-1,3.5-1.8,5.7-4.1c0.5-0.4,1.3-1.6,1.7-2.4l0.3-0.5l0.1-0.2
		l0-0.1c0.1-0.2-0.1,0.3,0.1-0.4l0.1-0.3c0.2-0.7,0.4-1.5,0.5-2.1c0.3-2.7,0-4.8-0.3-6.9c-0.3-2-0.7-3.9-0.9-5.7
		c-0.3-1.8-0.5-3.6-0.3-4.6c0-0.1,0.1-0.2,0.1-0.2l0-0.1c0,0,0,0.1,0,0.2c0,0.2,0,0.4-0.1,0.5l0.3-0.6c-0.2,1-0.4,1.1-0.1,1.1
		c0.4-0.1,1.9-0.5,3.5-0.7c1.6-0.3,3.5-0.5,6-1.5c0.6-0.3,1.3-0.6,2.1-1.1l1.2-0.9c0.5-0.4,1.2-1.2,1.7-1.9l0.8-1.2l0.1-0.2l0.1-0.1
		c-0.4,0.8,0.6-1.1,0.5-1c0.2-0.4,0.3-0.8,0.5-1.2c0.6-1.7,0.8-3.2,1-4.7c0.4-5.5-0.5-8.6-0.9-11.5c-0.2-1-0.4-2-0.5-2.9
		c0.6-0.4,1.5-0.8,2.5-1.3c0.1,0.5,0.2,0.8,0.2,1.2c0.1,0.4,0.2,0.8,0.3,1.1c0.5,1.3,1,2.3,1.6,3.2c1.1,1.8,2.1,3.1,3.1,4.3
		c0.9,1.2,1.8,2.4,2.4,3.4c0.3,0.5,0.5,1,0.6,1.3c0,0.1,0,0.2,0.1,0.2l0,0c0,0.2,0-0.3,0-0.2v0.1l0,0.3l0,0.6l0,0.3
		c-0.1,0.9-0.5,2.3-0.8,3.5c-0.4,1.2-0.8,2.3-1.1,3.4c-0.7,2.1-1.4,4.1-1.7,5.7c-0.3,1.6-0.3,3.1,0,3.9c0.3,0.8,0.5,1.1,0.5,1.1
		c0,0-0.2-0.4-0.3-1.2c-0.1-0.8,0.1-2,0.6-3.3c0.5-1.4,1.4-2.9,2.5-4.8c0.5-0.9,1.1-1.9,1.7-3c0.6-1.2,1.2-2.3,1.7-4.3l0.2-0.8
		l0.1-0.6l0-0.3l0-0.1c0,0,0-0.5,0-0.3l0-0.1l0-0.9c-0.1-1.2-0.4-2.2-0.7-3.1c-0.7-1.8-1.5-3.3-2.2-4.9c-0.8-1.5-1.6-3-2.2-4.5
		c-0.3-0.7-0.5-1.4-0.6-2c0-0.1,0-0.1,0-0.2l0.1-0.6c0,0.8-0.1,0.6,0.3,0.4c0.3-0.2,0.9-0.6,1.6-0.9c1.3-0.6,2.9-1.2,4.7-1.9
		c0.9-0.4,1.9-0.8,3-1.6l0.8-0.6l0.9-0.9c0.2-0.2,0.8-0.9,1.2-1.5c0.2-0.3,0.4-0.6,0.6-1l0.2-0.4l0.2-0.4c0.1-0.4-0.2,0.7,0.3-0.8
		l0.1-0.3l0.1-0.6c0.2-0.7,0.3-1.6,0.3-2.2c0-0.6,0.1-1.4,0-2l-0.1-1.7c-0.3-2-0.7-3.6-1.1-5c-0.7-2.2-1.4-4.2-1.9-5.9
		c1.9,0,3.6-0.3,4.8-1.5c0.6-0.6,1.1-1.4,1.5-2.3c0.4,1.2,0.8,2,1.2,2.7c0.9,1.6,1.8,2.8,2.6,3.9c1.4,1.9,2.8,3.6,3.4,4.7
		c-0.1,0.1-0.1,0.1-0.1,0.2c-1.2,1.2-2.9,2.3-4.5,3.6c-0.8,0.7-1.7,1.3-2.6,2.3c-0.8,0.9-1.9,2.1-2.6,4.4l-0.1,0.4l-0.1,0.2
		c0,0-0.2,1.1-0.1,0.7l0,0.4l0,0.4c0,0.3,0,0.7,0.1,1c0.1,1.5,0.4,2,0.6,2.8c0.5,1.3,1.1,2.3,1.6,3.2c1.1,1.8,2.1,3.3,3,4.7
		c0.9,1.4,1.6,2.7,2,3.8c0.1,0.5,0.2,0.9,0.1,1.2c-0.1,0.5-0.2,0.4-0.2,0.6c-0.1,0.2-0.3,0.4-0.4,0.6c-0.7,0.9-1.6,1.7-2.4,2.4
		c-1.7,1.4-3.2,2.6-4.3,3.8c-1.2,1.1-1.9,2.3-2.2,3.2c-0.3,0.9-0.3,1.4-0.3,1.4c0,0,0.1-0.5,0.5-1.2c0.4-0.7,1.3-1.5,2.5-2.3
		c1.2-0.8,2.8-1.5,4.7-2.5c1-0.5,2-1,3.1-2.1c0.3-0.3,0.5-0.5,0.9-1c0.3-0.5,0.7-1.2,0.8-1.5c0.5-1.2,0.5-2.6,0.3-3.8
		c-0.8-4.5-2.8-7.5-4.2-11c-0.4-0.8-0.6-1.7-0.8-2.4c0-0.1,0-0.2,0-0.3c0,0,0,0,0,0c0,0,0,0,0-0.1l0-0.2l0,0c0,0.1,0,0.1,0,0.1l0,0
		l0,0c0,0.2,0.2-0.2,0.8-0.6c0.5-0.4,1.2-0.8,2-1.2c1.6-0.9,3.3-1.6,5.4-3c0.5-0.3,1.1-0.9,1.7-1.4c0.3-0.3,0.6-0.7,0.9-1.1
		c0.3-0.4,0.8-1.4,1.2-2.2l0.2-0.4l0.1-0.2l0.2-0.5c-0.1,0.6,0.2-1,0.2-0.9l0-0.3l0.1-0.7c0-0.5,0-0.9,0-1.4
		c-0.1-0.7-0.2-1.5-0.3-2.2c-0.2-0.6-0.3-1.2-0.5-1.7c-1.4-3.7-3-5.7-4.2-7.9c-0.5-0.8-0.8-1.5-1.1-2.1c0.1-0.1,0.1-0.1,0.2-0.2
		c0.6-0.7,1.5-1.4,2.5-2.3c1-0.9,2-1.8,3.2-3.2l0.9-1.1c0.3-0.4,0.7-1,1-1.5c0.3-0.5,0.7-1.3,1-2c0.2-0.5,0.4-1.3,0.6-1.9
		c0.1-0.3,0.2-0.7,0.2-1.1l0.1-0.8l0.1-0.6l0-0.2c0,0.8,0.1-1.3,0-1.4c0-0.5-0.1-1-0.2-1.5c-0.1-0.5-0.2-1-0.3-1.5
		c-0.1-0.4-0.2-0.6-0.4-1c-0.2-0.6-0.6-1.3-0.8-1.6c0,0,0-0.1-0.1-0.1c0.2,0,0.3-0.1,0.5-0.1c1.1,2.2,2.4,3.4,3.5,4.7
		c2.7,3,5.2,5.5,6.2,8.1l0.1,0.2l0,0.1c0,0.2,0-0.3,0-0.2l0,0.2l0.1,0.7c0.1,0.4,0,0.5,0.1,0.8c0,0.7,0,1.5-0.1,2.3
		c-0.2,1.6-0.4,3.2-0.6,4.7c-0.4,3-0.7,5.7-0.6,7.9c0,2.2,0.5,3.8,0.9,4.8c0.4,0.9,0.7,1.3,0.7,1.3s-0.2-0.5-0.5-1.5
		c-0.2-1-0.3-2.6-0.1-4.5c0.2-2,0.9-4.3,1.7-7.1c0.4-1.4,0.9-2.9,1.3-4.7c0.2-0.9,0.4-1.9,0.5-3c0-0.6,0.1-1.5,0-2l-0.1-0.7l0-0.2
		c0,0-0.1-0.5-0.1-0.4l0-0.1l-0.1-0.4c-1.1-4.8-3.8-8-5.9-11.5c-0.5-0.9-1.1-1.8-1.6-2.7c0-0.1,0.1-0.1,0.1-0.1
		c0.8-1.3,1.2-3,1.4-4.9c1-0.8,2.2-1.7,3.4-2.6c0.9-0.7,2-1.4,3-2.4c1.1-1,2.2-2,3.5-4c0.4-0.7,0.7-1.4,1-2.1l0.4-1l0-0.1
		c0.4-1.2,0.1-0.5,0.2-0.9l0.1-0.6l0.2-1.2c0.1-0.6,0.1-1.2,0.1-1.7c0.6,0.8,1.1,1.6,1.7,2.2c0.7,0.8,1.4,1.7,2,2.5
		c0.3,0.4,0.6,0.8,0.8,1.1c-0.4,0.3-0.9,0.6-1.4,0.9c-1.4,0.8-3,1.5-4.6,2.4c-0.8,0.5-1.6,0.9-2.5,2c-0.2,0.2-0.5,0.7-0.7,1.1
		c-0.1,0.2-0.2,0.6-0.3,0.9l-0.1,0.5l0,0.2c0,0.3,0-0.3,0,0.8l0.1,0.4l0,0.2c0,0.1,0.1,0.3,0.1,0.5c0.2,0.7,0.6,1.4,0.8,1.5
		c0.9,1.1,1.7,1.4,2.4,1.8c0.7,0.4,1.4,0.6,2,0.9c1.3,0.5,2.5,1,3.5,1.5c1,0.6,1.9,1.2,2,2c0,0,0,0.8-0.2,1.4
		c-0.1,0.6-0.3,1.2-0.5,1.8c-0.7,2.4-1.3,4.4-1.7,6.2c-0.4,1.7-0.5,3.2-0.3,4.1c0.1,0.5,0.2,0.8,0.3,1c0.1,0.2,0.2,0.3,0.2,0.3
		s0-0.1-0.1-0.3c-0.1-0.2-0.2-0.5-0.2-1c-0.1-0.9,0.2-2.2,0.8-3.8c0.6-1.6,1.4-3.4,2.4-5.7c0.2-0.6,0.5-1.2,0.7-1.9
		c0.2-0.7,0.5-1.3,0.5-2.7l-0.1-0.6c0-0.1,0.1,0.2-0.1-0.3l0-0.1l-0.1-0.2l-0.2-0.4c-0.2-0.5-0.5-0.8-0.7-1.2
		c-0.5-0.6-1.1-1.1-1.7-1.5c-1.1-0.9-2.4-1.6-3.6-2.3c-0.6-0.4-1.2-0.7-1.8-1.1c-0.2-0.2-0.5-0.4-0.7-0.6c0.3-0.2,0.7-0.4,1.1-0.6
		c1.4-0.6,3-1,4.7-1.7c0.9-0.3,1.8-0.7,2.9-1.5c0.3-0.3,0.5-0.3,0.9-0.8c0.2-0.3,0.4-0.5,0.6-0.8l0.3-0.5l0.1-0.2l0.2-0.4
		c-0.1,0.5,0.2-0.7,0.2-0.7l0.1-0.4c0-0.2,0.1-0.5,0.1-0.7c0-0.2,0-0.5,0-0.7l-0.1-0.5c-0.1-0.3-0.1-0.7-0.2-1c-0.7-2.2-1.3-3-2-4.2
		c-0.6-1-1.3-2-1.9-3c-0.6-0.9-1.1-1.7-1.5-2.5c0.1,0,0.1-0.1,0.2-0.1c0.8-0.5,1.7-1,2.7-1.5c1-0.6,2-1.1,3.2-2c0.6-0.5,1.2-1,2-1.9
		l0.6-0.8c0.2-0.4,0.6-1.1,0.8-1.8c0.1-0.3,0.2-0.7,0.3-1l0.1-0.3l0-0.3l0-0.1c0,0.2,0.1-1.9,0.1-1.2c-0.1-1-0.3-2.2-0.5-2.8
		c-0.1-0.4-0.2-0.7-0.4-1.1l-0.4-0.8c-0.3-0.6-0.5-0.9-0.7-1.3c-0.2-0.4-0.5-0.8-0.7-1.1c-0.9-1.3-1.8-2.4-2.6-3.4
		c-0.8-1-1.6-2-2.1-2.9c-0.1-0.1-0.2-0.3-0.2-0.4c0.5-0.5,1.3-1.2,2.1-1.8c1-0.8,2.1-1.7,3.2-2.8c0.6-0.5,1.2-1.2,1.9-2
		c0.3-0.4,0.7-0.8,1-1.4l0.5-0.9c0.2-0.3,0.5-1,0.7-1.6c0.1-0.3,0.2-0.6,0.3-0.9c0.1-0.3,0.2-0.7,0.2-0.7l0.1-0.6l0-0.2
		c0,0.2,0.2-1.9,0.1-1.2l0-0.9c0-0.6-0.1-1.3-0.2-1.8c-0.4-2.1-1-3.5-1.6-4.5c-0.9-1.8-1.8-3-2.7-4.1c3.3-4.4,6.5-8.9,7.4-14.4
		C454,330.7,446.1,277,446.7,265.7z M166.3,230.4c0,0,0-0.1,0-0.2c0,0,0,0,0-0.1L166.3,230.4z M167.8,203.5
		C167.8,203.5,167.7,203.5,167.8,203.5C167.7,203.5,167.7,203.5,167.8,203.5C167.8,203.5,167.8,203.4,167.8,203.5L167.8,203.5z"/>
	<g id="XMLID_7156_">
		<path id="XMLID_320_" class="st1" d="M162.6,494.5c0,0,0,0.1,0,0.2c0,0.1,0,0.2-0.1,0.5c-0.2,0.5-0.6,1.1-1.5,1.5
			c-0.9,0.4-2.1,0.6-3.4-0.1c-0.3-0.2-0.7-0.4-1-0.7l-0.2-0.3l-0.1-0.1l0,0c-0.1-0.2,0-0.1-0.1-0.1l0,0l-0.1-0.1l-0.1-0.2
			c0-0.1-0.1-0.2-0.2-0.3c-0.5-0.8-0.6-1.7-0.7-2.6c-0.1-1.8,0.5-3.6,1.6-5.1c1-1.5,2.3-2.6,3.2-3.5c0.2-0.2,0.4-0.5,0.7-0.7
			l0.6-0.7c0.2-0.2,0.2-0.2,0.3-0.4l0.2-0.3l0.5-0.7c0.6-1,1.1-2.2,1.4-3.4c0.4-1.2,0.6-2.5,0.7-3.8c0.1-1.3,0.2-2.6,0.1-4
			c0-0.3,0-0.7-0.1-1c0-0.3-0.1-0.6-0.1-1c-0.1-0.7-0.1-1.3-0.2-1.9c-0.2-1.3-0.4-2.5-0.6-3.6c-0.2-1.1-0.4-2.2-0.6-3.2
			c-0.2-1-0.3-1.8-0.4-2.5c-0.1-0.7-0.2-1.3-0.2-1.7c0-0.4-0.1-0.6-0.1-0.6l0.4-0.2c0,0,0.3,0.7,0.9,2c0.6,1.3,1.5,3.1,2.3,5.3
			c0.9,2.2,1.8,4.9,2.2,7.9c0.5,3,0.4,6.3-0.5,9.4c-0.5,1.6-1.1,3.1-2,4.4c-0.9,1.4-2,2.5-3.2,3.5c-1.2,0.9-2.3,1.8-3.2,2.8
			c-0.9,1-1.4,2.2-1.5,3.3c-0.1,0.6,0,1.1,0.2,1.5c0.2,0.5,0.4,0.8,0.8,1.1c0.7,0.5,1.6,0.6,2.2,0.5c0.6-0.1,1-0.5,1.2-0.7
			c0.2-0.2,0.2-0.5,0.2-0.5L162.6,494.5z"/>
	</g>
	<g id="XMLID_7152_">
		<path id="XMLID_318_" class="st1" d="M347.2,477.8c0,0-0.2,0-0.6,0.1c-0.4,0-1,0.1-1.8,0.1c-0.8,0-1.7,0-2.8-0.2
			c-0.6-0.1-1.2-0.3-1.8-0.5l-0.2-0.1l-0.1,0c-0.1-0.1-0.1,0-0.1-0.1l-0.1,0c-0.1-0.1-0.3-0.1-0.5-0.2c-0.4-0.2-0.7-0.4-1-0.6
			c-1.3-0.9-2.6-2.3-3.1-4.5c-0.1-0.5-0.4-1.1-0.4-1.7l-0.2-0.2v0v-0.2v0l0.2-0.1l0.1-0.3c0-0.2,0.1-0.7,0.2-1
			c0.2-1.2,0.8-2.2,1.4-3.1c0.6-0.9,1.4-1.7,2.2-2.3c0.8-0.7,1.6-1.2,2.4-1.7c1.5-0.9,2.8-1.6,3.7-2.3c0.2-0.2,0.4-0.3,0.6-0.5l0,0
			c0.1-0.1-0.1,0.1-0.1,0.1l0,0l0,0l0.1-0.1l0.2-0.2c0.1-0.1,0.2-0.2,0.2-0.2l0.1-0.1c0.1-0.1,0.2-0.3,0.3-0.5
			c0.1-0.2,0.2-0.4,0.3-0.7c0.4-0.9,0.6-2.1,0.7-3.2c0-1.2-0.1-2.4-0.4-3.5c-0.1-0.3-0.2-0.6-0.3-0.9c-0.1-0.3-0.2-0.5-0.3-0.8
			c-0.2-0.6-0.4-1.1-0.6-1.6c-0.5-1-1-2-1.4-2.9c-0.5-0.9-0.9-1.7-1.2-2.3c-0.4-0.6-0.6-1.2-0.8-1.5c-0.2-0.4-0.3-0.6-0.3-0.6
			l0.3-0.3c0,0,0.6,0.6,1.6,1.6c1,1,2.4,2.5,3.8,4.6c0.7,1,1.4,2.2,2,3.5c0.6,1.3,1,2.8,1.1,4.4c0.1,1.6,0,3.2-0.6,4.8
			c-0.5,1.6-1.6,3.1-2.9,4.1c-1.3,1-2.9,1.7-4.2,2.5c-1.4,0.8-2.7,1.6-3.6,2.8c-0.9,1.1-1.4,2.5-1.1,3.8c0.2,1.3,1,2.4,1.8,3.2
			c0.8,0.8,1.8,1.4,2.7,1.7c0.9,0.4,1.7,0.6,2.4,0.8c1.4,0.4,2.2,0.5,2.2,0.5L347.2,477.8z"/>
	</g>
	<g id="XMLID_7148_">
		<path id="XMLID_316_" class="st1" d="M379.4,442c0,0-0.1,0-0.4,0c-0.2,0-0.7-0.1-1.2-0.3c-0.5-0.2-1.1-0.7-1.5-1.3
			c-0.5-0.6-0.9-1.4-1.1-2.4c-0.2-0.9-0.3-2-0.1-3.1c0.1-0.6,0.3-1.2,0.4-1.6c0.2-0.6,0.4-1,0.7-1.5c0.5-0.9,1-1.7,1.5-2.4
			c0.5-0.7,0.9-1.3,1.2-1.9l0.1-0.1l0,0l0,0l0,0l0,0c0,0.1,0.1-0.2-0.1,0.2l0.1-0.3l0.1-0.3c0.1-0.1,0.1-0.2,0.1-0.2
			c0-0.1,0.1-0.2,0.1-0.2c0-0.1,0.1-0.3,0.1-0.4c0.2-0.5,0.3-1.1,0.4-1.7c0.1-0.6,0.1-1.2,0.1-1.8c0-0.6-0.1-1.2-0.1-1.8
			c-0.1-0.6-0.2-1.1-0.3-1.6c-0.2-0.5-0.3-1-0.5-1.3c-0.1-0.4-0.3-0.7-0.4-0.9c-0.1-0.2-0.2-0.3-0.2-0.3l0.2-0.3
			c0,0,0.1,0.1,0.3,0.2c0.2,0.1,0.5,0.3,0.8,0.6c0.3,0.3,0.7,0.6,1.1,1c0.2,0.2,0.4,0.5,0.6,0.7c0.2,0.3,0.4,0.5,0.5,0.9
			c0.3,0.6,0.7,1.3,0.9,2.1c0.3,0.8,0.4,1.6,0.5,2.5c0.1,0.9,0,1.8-0.2,2.7c-0.1,0.5-0.2,0.9-0.4,1.4c-0.2,0.5-0.3,0.8-0.6,1.3
			c-0.9,1.7-2.2,3-3.2,4.4c-0.5,0.7-0.9,1.4-1.2,2.1c-0.3,0.7-0.4,1.4-0.4,2.1c0,0.7,0.1,1.2,0.3,1.7c0.2,0.5,0.4,0.9,0.7,1.2
			c0.3,0.3,0.5,0.4,0.7,0.5c0.2,0.1,0.3,0.2,0.3,0.2L379.4,442z"/>
	</g>
	<g id="XMLID_7039_">
		<path id="XMLID_314_" class="st1" d="M410.5,393.1c0,0-0.2,0-0.4-0.1c-0.1,0-0.3-0.1-0.5-0.2c-0.2-0.1-0.5-0.2-0.7-0.4
			c-0.5-0.3-1.1-0.9-1.6-1.6c-0.5-0.8-0.9-1.7-1.1-2.8c-0.2-1.1-0.3-2.2-0.1-3.5c0.1-0.6,0.2-1.2,0.4-1.9c0.1-0.3,0.2-0.6,0.4-1
			c0.1-0.3,0.2-0.5,0.3-0.8c0.3-0.6,0.6-1.2,0.9-1.7c0.3-0.5,0.6-1,0.9-1.5c0.6-1,1.3-1.8,1.8-2.7c0.3-0.4,0.5-0.8,0.8-1.2
			c0.1-0.2,0.2-0.4,0.3-0.6l0.1-0.3l0.1-0.1l0,0c0,0.1,0.1-0.1,0,0.1l0,0l0,0l0-0.1l0.3-0.7c0.1-0.1,0.1-0.3,0.2-0.4
			c0.1-0.4,0.3-0.7,0.4-1.1c0.2-0.8,0.4-1.6,0.4-2.4c0.1-0.8,0.1-1.6,0.1-2.3c-0.1-0.7-0.1-1.4-0.3-2.1c-0.1-0.6-0.3-1.2-0.4-1.7
			c-0.1-0.5-0.3-0.9-0.4-1.1c-0.1-0.3-0.1-0.4-0.1-0.4l0.3-0.3c0,0,0.1,0.1,0.3,0.3c0.2,0.2,0.5,0.5,0.8,0.9
			c0.3,0.4,0.7,0.9,1.1,1.5c0.4,0.6,0.7,1.3,1,2.1c0.6,1.6,1,3.7,0.7,5.9c0,0.5-0.2,1.1-0.3,1.7l-0.2,0.8l-0.3,0.8
			c-0.4,1.1-1,2.1-1.7,3.1c-1.3,1.9-2.8,3.6-3.9,5.4c-0.6,0.9-1,1.8-1.2,2.7c-0.3,0.9-0.4,1.8-0.4,2.6c0,1.7,0.5,3,1,3.7
			c0.3,0.4,0.5,0.6,0.7,0.8c0.2,0.2,0.3,0.3,0.3,0.3L410.5,393.1z"/>
	</g>
	<g id="XMLID_6957_">
		<path id="XMLID_312_" class="st1" d="M385.2,382.3c-0.4-0.5-0.8-1-1.1-1.7c-0.3-0.6-0.6-1.2-0.8-1.9c-0.2-0.7-0.4-1.3-0.5-2
			c-0.1-0.7-0.2-1.4-0.2-2.1c0-0.7,0-1.4,0.1-2.1c0.1-0.7,0.3-1.4,0.4-2.1c0.2-0.7,0.4-1.4,0.7-2.1c0.3-0.7,0.7-1.3,1-2l0.6-0.9
			l0.8-1c0.5-0.6,1-1.1,1.6-1.6c0.6-0.5,1.2-1,1.8-1.4c0.6-0.4,1.3-0.8,1.9-1.1c0.7-0.3,1.4-0.6,2.1-0.9c0.7-0.2,1.4-0.4,2.2-0.6
			c0.7-0.2,1.5-0.2,2.3-0.3l1.1,0c0.4,0,0.8,0,1.1,0.1l-3.3,4.7c-0.2-0.6-0.4-1.2-0.6-1.8c-0.2-0.6-0.5-1.2-0.7-1.8
			c-0.2-0.6-0.5-1.2-0.8-1.8c-0.3-0.6-0.6-1.2-0.9-1.8c-0.3-0.6-0.6-1.2-1-1.8c-0.4-0.6-0.7-1.2-1-1.8c-0.4-0.6-0.7-1.2-1.1-1.9
			c-0.2-0.3-0.4-0.6-0.6-0.9c-0.2-0.3-0.4-0.6-0.6-1l0.2-0.3c1.2,0.9,2.3,1.8,3.3,2.9c0.5,0.5,1,1,1.5,1.6c0.5,0.6,0.9,1.1,1.4,1.7
			c1.8,2.3,3.2,4.9,4.4,7.6l0.2,0.5l-0.6,0c-0.6,0-1.2,0-1.8,0.1c-0.6,0.1-1.2,0.2-1.8,0.3c-0.6,0.1-1.2,0.3-1.7,0.5
			c-0.6,0.2-1.1,0.4-1.7,0.7c-0.5,0.3-1.1,0.6-1.6,0.9c-0.5,0.3-1,0.7-1.5,1c-0.5,0.4-0.9,0.8-1.3,1.2l-0.6,0.7l-0.6,0.7
			c-0.4,0.5-0.7,1-1,1.5c-0.3,0.5-0.5,1.1-0.8,1.6c-0.2,0.6-0.4,1.1-0.6,1.7c-0.2,0.6-0.3,1.2-0.4,1.8c-0.1,0.6-0.1,1.2-0.2,1.8
			c0,0.6,0,1.2,0,1.8c0,0.6,0.1,1.2,0.2,1.8l0.2,0.9l0.3,0.9L385.2,382.3z"/>
	</g>
	<g id="XMLID_6657_">
		<path id="XMLID_310_" class="st1" d="M290.8,98.9c0,0-0.1,0.5-0.3,1.6c-0.2,1-0.6,2.6-1.4,4.4c-0.8,1.8-2,4-3.8,6.2
			c-1.8,2.2-4.1,4.5-7.2,6.2c-1.5,0.9-3.2,1.7-5.1,2.4c-0.5,0.2-0.9,0.3-1.4,0.4c-0.5,0.1-1,0.3-1.5,0.3c-0.5,0.1-1,0.2-1.5,0.3
			c-0.5,0.1-0.9,0.1-1.4,0.2c-2,0.2-3.9,0.4-5.7,0.7c-0.9,0.2-1.7,0.3-2.5,0.6c-0.8,0.2-1.4,0.5-2,0.9c-0.3,0.2-0.5,0.4-0.7,0.6
			c-0.1,0.1-0.2,0.2-0.3,0.3L256,124l-0.1,0.1c0-0.1-0.1,0.2,0.1-0.1l0,0l-0.1,0.1c-0.1,0.2-0.3,0.5-0.4,0.6c0,0.1-0.1,0.2-0.1,0.3
			l-0.2,0.5l-0.2,0.6c-0.4,1.6-0.6,3.7-1.3,6.1c-0.3,1.2-0.8,2.6-1.6,3.9l-0.7,1l-0.7,0.8c-0.3,0.3-0.7,0.6-1,0.9
			c-0.3,0.2-0.6,0.5-1,0.7c-2.7,1.7-5.6,2.2-8.2,2.2c-2.6,0-5.1-0.5-7.3-1c-2.1-0.5-4.1-0.9-5.9-1c-0.9-0.1-1.7,0-2.4,0.1
			c-0.2,0-0.4,0-0.6,0.1l-0.3,0.1l-0.1,0c0.4-0.1,0.1,0,0.2-0.1l0,0l-0.1,0l-0.8,0.3l-0.4,0.1l-0.2,0.1c-0.3,0.1-0.5,0.2-0.9,0.5
			l-0.5,0.3l-0.5,0.4c-0.7,0.5-1.4,1.1-2.1,1.7c-2.7,2.6-5.4,6-9.3,8.3c-0.5,0.3-1,0.5-1.5,0.8c-0.5,0.2-1,0.4-1.6,0.6l-0.1,0l0,0
			l-0.1,0l-0.2,0l-0.3,0.1c-0.2,0.1-0.5,0.1-0.8,0.2c-0.6,0.1-1.1,0.2-1.6,0.2c-2.1,0.2-3.9,0-5.6-0.2c-1.7-0.2-3.2-0.5-4.7-0.7
			c-0.7-0.1-1.4-0.2-2.1-0.3c-0.1,0-0.2,0-0.2,0l-0.3,0l-0.5,0c-0.3,0-0.6,0-0.9,0c-2.4,0.1-4.6,0.7-6.1,1.6c-0.8,0.4-1.3,1-1.8,1.4
			c-0.4,0.5-0.8,1-1,1.5c-0.1,0.2-0.2,0.4-0.3,0.6c0,0.2-0.1,0.3-0.1,0.5c-0.1,0.3-0.1,0.4-0.1,0.4l-0.4,0c0,0,0-0.1,0.1-0.4
			c0-0.1,0-0.3,0.1-0.5c0.1-0.2,0.1-0.4,0.2-0.7c0.2-0.5,0.4-1.1,0.9-1.7c0.5-0.6,1.1-1.3,1.9-1.8c1.6-1.2,3.8-2.1,6.5-2.4
			c2.7-0.3,5.7,0.2,9,0.5c1.6,0.1,3.3,0.2,5.1-0.1c1.7-0.3,3.4-0.9,5-1.9c3.1-2,5.5-5.3,8.4-8.2c1.5-1.5,3.1-2.9,5.1-3.8
			c0.5-0.3,1-0.4,1.5-0.6c0.5-0.2,1.1-0.3,1.6-0.4c1.1-0.2,2.2-0.2,3.3-0.2c4.4,0.2,8.6,2,12.9,1.9c2.1,0,4.3-0.4,6.1-1.5l0.6-0.5
			l0.6-0.5l0.5-0.6l0.4-0.6c0.6-0.9,0.9-1.9,1.2-2.9c0.6-2,0.8-4.2,1.5-6.3c0.2-0.5,0.4-1,0.6-1.5l0.4-0.7c0.1-0.2,0.3-0.4,0.4-0.7
			c0.7-0.9,1.5-1.6,2.4-2.2c1.9-1.1,3.9-1.5,5.9-1.7c2-0.2,3.9-0.3,5.8-0.4c1.9-0.1,3.6-0.4,5.4-0.9c1.7-0.5,3.3-1.1,4.7-1.9
			c2.9-1.5,5.3-3.4,7.1-5.3c1.8-1.9,3.1-3.8,4.1-5.5c0.9-1.7,1.4-3.1,1.8-4c0.3-1,0.5-1.5,0.5-1.5L290.8,98.9z"/>
	</g>
	<g id="XMLID_6643_">
		<path id="XMLID_308_" class="st1" d="M187.8,139.4c0,0-0.3,0-0.9,0.1c-0.6,0-1.5,0.1-2.6,0.2c-1.1,0.1-2.5,0.2-4,0.4
			c-1.5,0.2-3.2,0.5-4.8,1c-0.2,0.1-0.5,0.1-0.7,0.2c-0.2,0.1-0.4,0.1-0.6,0.2c-0.4,0.2-0.8,0.3-1.2,0.5c-0.8,0.4-1.6,0.8-2.4,1.3
			c-1.5,1-2.8,2.4-3.6,3.9l-0.2,0.4c-0.1,0.1-0.1,0.2-0.1,0.3l-0.1,0.3l-0.1,0.3c-0.2,0.4-0.3,0.9-0.4,1.4c-0.2,1-0.3,2-0.4,3.1
			c-0.2,2.3-0.1,4.7-0.2,7.5c-0.2,2.8-0.6,5.7-1.8,8.6c-0.6,1.5-1.5,2.9-2.7,4.1c-0.3,0.3-0.6,0.6-0.9,0.9l-0.2,0.2l-0.1,0.1l0,0
			l-0.1,0.1l-0.4,0.3c-0.7,0.5-1.3,0.8-1.9,1.2c-1.2,0.6-2.2,1.1-3.1,1.6c-0.4,0.2-0.8,0.4-1.1,0.7c0,0-0.5,0.4-0.5,0.4
			c-0.1,0.1-0.2,0.2-0.4,0.4c-1.1,1.1-1.9,2.7-2.4,4.3c-0.2,0.8-0.3,1.6-0.5,2.4c0,0.5-0.1,0.8-0.1,1.2c0,0.4,0,0.8,0,1.1
			c0,1.5,0.1,2.8,0.2,3.9c0.2,2.3,0.3,3.6,0.3,3.6l-0.4,0.1c0,0-0.4-1.2-1-3.4c-0.3-1.1-0.6-2.4-0.9-4c-0.2-1.6-0.4-3.4-0.1-5.3
			c0.3-1.9,1-4,2.4-5.8c0.7-0.9,1.6-1.7,2.6-2.3c1-0.6,2-1.2,3.1-1.8c1-0.6,2-1.3,2.8-2.2c0.8-0.9,1.4-2,1.9-3.1
			c0.9-2.3,1.3-4.8,1.4-7.4c0.1-2.5,0.1-5.1,0.3-7.7c0.2-2.5,0.8-5.1,2.1-7.2c1.3-2.1,3.2-3.7,5.1-4.8c2-1.1,4-1.7,6-2
			c3.9-0.6,7.1-0.2,9.3,0c2.2,0.2,3.5,0.4,3.5,0.4L187.8,139.4z"/>
	</g>
	<g id="XMLID_5916_">
		<path id="XMLID_306_" class="st1" d="M124.6,111.4c0,0-0.3,0.1-0.9,0.2c-0.6,0.1-1.5,0.4-2.5,0.8c-0.5,0.2-1.1,0.4-1.6,0.7
			c-0.3,0.2-0.6,0.3-0.9,0.5c-0.3,0.2-0.6,0.4-0.9,0.6c-1.2,0.8-2.5,1.8-3.7,3.1c-1.2,1.3-2.3,2.8-3.1,4.5c-0.4,0.9-0.8,1.8-1,2.7
			c-0.1,0.5-0.2,0.9-0.3,1.4c-0.1,0.4-0.1,0.9-0.2,1.3c0,0.6-0.1,1.3-0.1,1.7l0,0.7l0.1,0.8c0.1,1.1,0.3,2.2,0.4,3.4
			c0.4,2.4,0.9,4.9,1.3,7.7c0.3,2.8,0.4,5.8-0.3,8.8c-0.2,1.1-0.8,2.9-1.4,4.2c-0.3,0.6-0.6,1.3-0.9,1.9c-0.3,0.6-0.7,1.2-1,1.8
			c-1.3,2.3-2.8,4.2-4.2,6c-1.4,1.8-2.7,3.4-3.8,4.9c-1.1,1.5-2.1,2.9-2.8,4.2c-0.4,0.7-0.7,1.3-0.9,1.9c-0.3,0.6-0.5,1.1-0.7,1.7
			c-0.2,0.5-0.3,1-0.5,1.4c-0.1,0.4-0.2,0.8-0.2,1.1c-0.1,0.6-0.2,0.9-0.2,0.9l-0.4,0c0,0,0-0.3,0-0.9c0-0.3,0-0.7,0-1.1
			c0-0.4,0.1-1,0.2-1.5c0-0.6,0.2-1.2,0.4-1.9c0.1-0.7,0.4-1.4,0.7-2.1c0.5-1.5,1.4-3.1,2.3-4.8c1.9-3.4,4.7-7.1,7-11.3
			c1.1-2.1,2.1-4.4,2.6-6.9c0.5-2.4,0.4-5,0.1-7.6c-0.3-2.6-0.8-5.1-1.1-7.7c-0.4-2.5-0.5-5.1-0.2-7.6c0.3-2.5,1.3-4.7,2.4-6.7
			c1.2-1.9,2.7-3.5,4.2-4.8c1.5-1.3,3.1-2.2,4.6-2.8c0.4-0.2,0.7-0.3,1.1-0.4c0.4-0.1,0.7-0.2,1-0.3c0.7-0.2,1.3-0.3,1.8-0.5
			c1.1-0.2,2.1-0.3,2.7-0.3c0.6,0,0.9,0,0.9,0L124.6,111.4z"/>
	</g>
	<g id="XMLID_5814_">
		<path id="XMLID_304_" class="st1" d="M382.4,182.4c0,0,0,0.3,0,0.9c0,0.6,0,1.4,0,2.5c0,1,0,2.3,0,3.7c0,1.4,0.1,3,0.3,4.6
			c0.2,1.6,0.7,3.3,1.3,4.9c0.2,0.4,0.4,0.8,0.5,1.1l0.4,0.7l0.3,0.5c0.5,0.7,1.1,1.6,1.7,2.4c0.7,0.9,1.4,1.8,2.1,2.7
			c0.7,1,1.5,2,2.1,3.2c0.7,1.2,1.3,2.5,1.7,4l0.1,0.6l0,0.1l0,0.1l0,0l0,0.2l0,0.2c0.1,0.3,0.1,0.5,0.2,1c0.1,0.9,0.2,1.6,0.1,2.4
			c-0.1,3-1,5.7-2,8.1c-0.5,1.2-1.1,2.3-1.7,3.4c-0.6,1-1.2,2-1.8,3c-1.1,1.9-2.2,3.6-3.1,5.3c-0.4,0.8-0.7,1.6-1,2.4
			c-0.1,0.2-0.1,0.4-0.2,0.6l-0.1,0.1l0,0.1l0,0l0,0c0,0,0-0.1,0-0.1l-0.1,0.3c-0.1,0.5-0.2,0.8-0.3,1.1c-0.2,1.5-0.3,3-0.1,4.2
			c0.2,1.3,0.6,2.4,1,3.2c0.5,0.8,1,1.4,1.3,1.8c0.4,0.4,0.6,0.6,0.6,0.6l-0.2,0.4c0,0-0.3-0.1-0.8-0.4c-0.5-0.3-1.2-0.8-1.9-1.6
			c-0.7-0.8-1.4-1.9-1.8-3.4c-0.5-1.4-0.7-3.1-0.7-4.9c0.1-1.8,0.6-3.8,1.3-5.7c0.7-1.9,1.7-3.9,2.8-5.9c1.1-2,2.2-4,3-6.2
			c0.9-2.2,1.5-4.4,1.5-6.8c0.1-2.3-0.6-4.6-1.7-6.6c-1.1-2-2.5-3.9-3.7-5.8c-1.2-1.9-2.3-3.8-2.9-5.8c-0.6-2-0.8-4-0.8-5.8
			c0-3.6,0.6-6.6,1.1-8.6c0.4-2,0.7-3.2,0.7-3.2L382.4,182.4z"/>
	</g>
	<g id="XMLID_5573_">
		<path id="XMLID_302_" class="st1" d="M418.6,164.2c0,0,0.2,0.3,0.6,1c0.4,0.7,1,1.6,1.6,2.8c0.7,1.2,1.5,2.7,2.4,4.5
			c0.4,0.9,0.9,1.8,1.4,2.8c0.5,1,0.9,2.1,1.4,3.2c0.9,2.3,1.9,4.8,2.6,7.5c0.4,1.4,0.7,2.8,1.1,4.3c0.2,0.7,0.3,1.5,0.4,2.3
			c0.1,0.8,0.2,1.5,0.3,2.3c0.3,3.1,0.4,6.5-0.1,9.9c-0.2,1.7-0.6,3.4-1,5.1l-0.8,2.5l-0.1,0.3l-0.1,0.2l-0.1,0.1l-0.2,0.6
			c-0.2,0.4-0.3,0.8-0.5,1.2c-1.4,3-2.7,5.7-3.3,8.1c-0.1,0.3-0.1,0.6-0.2,0.9l0,0.1l0,0c0,0.1,0-0.2,0-0.1l0,0.1l0,0.3l-0.1,0.6
			l0,0.3l0,0.2l0,0.4c0,0.2,0,0.6,0,0.9c0.1,1.2,0.3,2.4,0.7,3.6c0.8,2.4,2.1,4.8,3.4,7.1c1.4,2.3,2.8,4.5,4,6.6
			c1.3,2.1,2.3,4.1,3.1,6c0.8,1.9,1.3,3.6,1.5,5.1c0.3,1.4,0.3,2.6,0.3,3.4c0,0.8-0.1,1.2-0.1,1.2l-0.4,0c0,0,0-0.4-0.1-1.1
			c-0.1-0.7-0.3-1.8-0.7-3.1c-0.4-1.3-1.1-2.9-2-4.6c-0.9-1.7-2.1-3.5-3.5-5.5c-1.4-1.9-3-4-4.5-6.3c-1.6-2.3-3.1-4.7-4.2-7.6
			c-0.5-1.4-0.9-2.9-1.1-4.5c-0.2-1.6-0.1-3.2,0.2-4.7c0.6-3.2,2.1-6,3.4-8.9c0.7-1.4,1.1-2.9,1.6-4.4c0.4-1.5,0.8-3,1-4.6
			c0.5-3.1,0.6-6.1,0.4-9.1c0-1.5-0.3-2.9-0.4-4.3c-0.2-1.4-0.4-2.8-0.7-4.1c-0.5-2.7-1.2-5.2-1.9-7.4c-0.4-1.1-0.7-2.2-1-3.3
			c-0.4-1-0.7-2-1-2.9c-0.7-1.8-1.2-3.4-1.8-4.7c-1-2.6-1.6-4.1-1.6-4.1L418.6,164.2z"/>
	</g>
	<g id="XMLID_5564_">
		<path id="XMLID_300_" class="st1" d="M88.6,362.3c0,0-0.2,0-0.6,0c-0.4,0-1.1-0.1-1.8-0.4c-0.7-0.3-1.6-0.8-2.5-1.6
			c-0.9-0.8-1.7-1.8-2.3-3.1c-0.6-1.3-1.1-2.8-1.2-4.5c0-0.4,0-0.8,0-1.4c0-0.3,0-0.7,0.1-1.2c0.1-0.9,0.3-1.7,0.5-2.6
			c0.5-1.7,1.1-3.3,1.9-4.8c0.8-1.5,1.7-2.9,2.5-4.2c0.9-1.3,1.7-2.5,2.4-3.7c0.7-1.2,1.4-2.4,1.8-3.5c0.5-1.1,0.8-2.1,1-3.3
			c0.1-0.4,0.1-0.9,0.1-1.4c0-0.5,0-1-0.1-1.5c-0.2-0.9-0.4-1.8-0.8-2.6c-0.4-0.7-0.8-1.3-1.2-1.8c-0.4-0.4-0.9-0.8-1.2-1
			c-0.3-0.2-0.5-0.3-0.5-0.3l0.1-0.4c0,0,0.2,0,0.6,0.1c0.4,0.1,0.9,0.3,1.5,0.6c0.6,0.3,1.3,0.9,2,1.6c0.7,0.7,1.3,1.7,1.8,2.8
			c0.5,1.1,0.8,2.4,0.8,3.9c0,1.4-0.2,2.9-0.7,4.3c-0.9,2.9-2.6,5.7-4.3,8.3c-1.7,2.6-3.5,5.3-4.5,8c-0.2,0.7-0.5,1.4-0.6,2.1
			c-0.1,0.3-0.1,0.7-0.2,1c0,0.3-0.1,0.7-0.1,1c-0.1,1.3,0.1,2.6,0.5,3.7c0.3,1.1,0.8,2.1,1.4,2.8c0.5,0.8,1.2,1.3,1.7,1.7
			c0.6,0.4,1,0.6,1.4,0.7c0.3,0.1,0.5,0.2,0.5,0.2L88.6,362.3z"/>
	</g>
	<g id="XMLID_5441_">
		<path id="XMLID_298_" class="st1" d="M346.1,409.1c0,0-0.2,0-0.5-0.1c-0.3-0.1-0.9-0.3-1.5-0.6c-0.6-0.4-1.3-0.9-1.9-1.7
			c-0.6-0.8-1.3-1.7-1.7-2.9c-0.4-1.2-0.8-2.5-0.8-3.9c0-0.4,0-0.7,0-1.1c0-0.3,0-0.6,0.1-1c0.1-0.8,0.2-1.5,0.4-2.2
			c0.3-1.4,0.8-2.8,1.3-4.1c0.5-1.3,1.1-2.5,1.6-3.7c0.6-1.2,1-2.3,1.4-3.3c0.4-1.1,0.7-2.1,0.9-3c0.2-1,0.3-1.8,0.2-2.8
			c0-0.3,0-0.7-0.1-1.1c-0.1-0.4-0.2-0.8-0.3-1.2c-0.3-0.7-0.7-1.4-1.1-2c-0.4-0.5-0.9-1-1.3-1.3c-0.4-0.3-0.9-0.5-1.2-0.6
			c-0.3-0.1-0.5-0.2-0.5-0.2l0-0.4c0,0,0.2,0,0.5,0c0.3,0,0.8,0,1.4,0.2c1.2,0.3,2.9,1.1,4.1,2.9c0.6,0.9,1.2,1.9,1.5,3.1
			c0.3,1.2,0.4,2.4,0.3,3.8c-0.2,2.6-1.2,5.3-2.3,7.7c-1.2,2.5-2.4,4.9-3.2,7.3c-0.4,1.2-0.7,2.4-0.8,3.5c-0.1,1.1,0,2.2,0.1,3.2
			c0.2,1,0.5,1.8,0.8,2.6c0.4,0.7,0.8,1.3,1.2,1.7c0.4,0.4,0.7,0.7,1,0.9c0.3,0.2,0.4,0.3,0.4,0.3L346.1,409.1z"/>
	</g>
	<g id="XMLID_5382_">
		<path id="XMLID_296_" class="st1" d="M410.4,307c0,0-0.2-0.1-0.4-0.4c-0.3-0.3-0.7-0.6-1.1-1.3c-0.5-0.6-1-1.3-1.5-2.3
			c-0.5-0.9-1-2-1.4-3.3c-0.4-1.3-0.7-2.7-0.8-4.2c-0.1-1.5-0.1-3.2,0.1-4.8c0.3-1.7,0.7-3.4,1.4-5.1l0.6-1.2
			c0.2-0.4,0.4-0.8,0.7-1.2l0.2-0.3l0.2-0.3l0.4-0.5c0.3-0.4,0.5-0.7,0.7-1.1c1-1.3,1.9-2.5,2.6-3.5c0.3-0.5,0.6-1,0.8-1.5l0.1-0.2
			l0,0l0,0l0,0c-0.1,0.3,0,0.1,0,0.2l0-0.1l0.2-0.5c0.2-0.4,0.2-0.5,0.2-0.7c0.2-0.9,0.4-2.1,0.3-3.2c-0.1-1.1-0.3-2.2-0.5-3.3
			c-0.3-1.1-0.6-2.1-0.8-3c-0.3-0.9-0.5-1.7-0.8-2.4c-0.2-0.7-0.4-1.2-0.5-1.6c-0.1-0.4-0.2-0.6-0.2-0.6l0.3-0.2
			c0,0,0.5,0.6,1.2,1.8c0.8,1.1,1.9,2.8,2.9,5c1,2.2,1.9,4.9,1.6,8c-0.2,1.5-0.7,3-1.5,4.4c-0.8,1.4-1.8,2.6-2.7,3.9
			c-0.9,1.3-1.8,2.5-2.4,3.9c-0.6,1.4-1.1,2.8-1.5,4.2c-0.6,2.8-0.7,5.6-0.4,7.9c0.3,2.3,0.9,4.2,1.4,5.4c0.2,0.6,0.5,1.1,0.7,1.4
			c0.2,0.3,0.3,0.5,0.3,0.5L410.4,307z"/>
	</g>
	<g id="XMLID_4463_">
		<path id="XMLID_294_" class="st1" d="M114.6,267.8c-0.7,0.1-1.5,0.2-2.2,0.3l-0.1,0l-0.3-0.2c-0.6-0.4-1.3-0.9-1.9-1.4
			c-0.6-0.5-1.2-1-1.7-1.7c-0.5-0.6-1-1.2-1.4-1.9c-0.2-0.3-0.4-0.7-0.6-1l-0.5-1.1c-0.7-1.4-1.3-3-1.6-4.6
			c-0.1-0.8-0.3-1.6-0.4-2.4c0-0.8-0.2-1.6-0.1-2.5c0-0.8,0-1.7,0.2-2.5l0.2-1.2c0.1-0.4,0.2-0.8,0.3-1.2c0.4-1.6,1-3.2,1.8-4.8
			c0.4-0.8,0.9-1.5,1.4-2.2c0.6-0.7,1.1-1.4,1.7-2l0.4-0.4l0.5-0.5l0.9-0.8c0.5-0.5,1.1-1,1.6-1.4c1.1-0.9,2-1.7,2.7-2.6
			c0.3-0.4,0.7-0.8,0.9-1.2c0.1-0.2,0.2-0.4,0.3-0.6l0.1-0.3l0-0.1l0,0c-0.2,0.6,0,0.2-0.1,0.3l0,0l0-0.1l0.1-0.3l0.3-1l0-0.1
			c0,0,0,0,0-0.1l0-0.1c0-0.1,0-0.2,0-0.2c0-0.1,0-0.2,0-0.2c0-0.1,0-0.2,0-0.4l0-0.8c-0.2-1.1-0.4-2.2-0.9-3.5
			c-0.4-1.2-1-2.5-1.6-3.8c-0.6-1.3-1.2-2.7-1.7-4.1c-0.3-0.7-0.4-1.5-0.7-2.2c-0.1-0.8-0.4-1.5-0.4-2.3c-0.2-1.6,0.1-3.2,0.6-4.6
			l0.4,0.1c-0.1,1.4-0.1,2.8,0.4,4.2c0.1,0.7,0.5,1.3,0.7,2c0.3,0.6,0.6,1.3,0.9,1.9c1.3,2.5,2.9,4.9,4.2,7.6
			c0.7,1.3,1.1,2.7,1.5,4.1c0.1,0.7,0.3,1.5,0.2,2.2c0,0.4,0,0.8-0.1,1.1l-0.2,1.1c-0.3,1.5-1.2,2.8-2.1,3.9c-0.9,1.1-2,2.1-3.1,3.1
			c-1.1,1-2.2,1.9-3.2,2.9c-0.5,0.5-0.9,1.1-1.4,1.6c-0.4,0.6-0.8,1.1-1.2,1.8c-0.7,1.2-1.3,2.5-1.7,3.9l-0.3,1l-0.2,1
			c-0.2,0.7-0.2,1.4-0.3,2.1c-0.1,0.7,0,1.4-0.1,2.1c0,0.7,0.1,1.4,0.2,2.1c0.2,1.4,0.5,2.8,1,4.1l0.4,1c0.1,0.3,0.3,0.6,0.4,1
			c0.3,0.7,0.6,1.3,1,1.9c0.3,0.6,0.8,1.2,1.2,1.7c0.4,0.6,1,1,1.4,1.6l-0.1-0.1l2.2,0.2L114.6,267.8z"/>
	</g>
</g>
</svg>
