<?xml version="1.0" encoding="utf-8"?>
<!-- Generator: Adobe Illustrator 19.0.0, SVG Export Plug-In . SVG Version: 6.00 Build 0)  -->
<svg version="1.1" id="Layer_1" xmlns="http://www.w3.org/2000/svg" xmlns:xlink="http://www.w3.org/1999/xlink" x="0px" y="0px"
	 viewBox="0 0 430 734" style="enable-background:new 0 0 430 734;" xml:space="preserve">
<style type="text/css">
	.st0{fill:#EF7B05;}
</style>
<path id="XMLID_340_" class="st0" d="M400.5,162.1c-14.3-42.7-45-79.9-86.3-104.7c0,0,0,0,0,0c0,0,0,0,0,0
	c-57.6-33-128.6-33.3-180.8-0.7c-0.2,0.1-0.3,0.3-0.4,0.5c-0.4-0.1-0.8,0-1.2,0.2c-41.3,24.8-71.9,62-86.3,104.7
	c-6.9,20.5-10.3,42.3-10.3,65.7c-0.1,18.1,1.9,37.3,5.9,57.6c2,10.2,4.6,20.9,12,30.2c5.5,7,13.6,12.9,23.2,17.1
	c-6.4,3.8-11.1,9.1-13,15.1c-0.7,2.2-1,4.5-1,6.7c-0.1,4.5,1.2,8.9,4,12.9c3.9,5.6,10,9.5,16.5,13c-9.1,4.4-13.2,16.5-13.1,26
	c0,1.5,0.1,2.9,0.2,4.2c1,7.9,10,13.8,17.6,18l0.5,0.3c-5.8,6.8-11.1,13.3-10.7,21c0,1.4,0.1,2.8,0.5,4.3
	c1.7,6.9,7.8,12.4,15.5,17.3c-2.7,5.1-4.1,10.3-4,15.2c-0.1,5.2,1.4,10.1,4.4,14.3c2.7,3.7,6.4,6.9,10.1,9.9l7.9,6.6
	c-0.2,1.8-0.2,3.7-0.2,5.5c0,3.1,0.2,6.3,0.5,9.6c-0.4-0.1-0.9-0.2-1.3-0.3c-0.8-0.2-1.6,0.2-1.9,0.9c-0.1,0.3-0.1,0.6,0.1,0.8
	c0,0-0.1,0.1-0.1,0.2c-0.2,0.7,0.2,1.3,1,1.5c0,0.3,0.2,0.7,0.6,0.9c0.7,0.4,1,1,1.1,1.7c-0.1,0.9-0.6,1.9-0.8,2.4l-0.4,0.8
	c-1,1.7-2,3.6-1.8,5.5c-0.1,0.8,0,1.6,0.4,2.5c0.1,0.2,0.2,0.4,0.4,0.6c-20.5,16.9-31.7,39.5-31.8,61.9c-0.2,10.2,2,20.5,6.6,30.1
	c4.7,9.7,13.8,22.7,31,29c0.6,0.2,1.4,0.1,1.8-0.4c0.3-0.4,0.4-0.8,0.1-1.2c0.2-0.5,0.1-1-0.3-1.3c-2.6-2.3-4.1-5.2-4.4-8.1
	c1.4,4.1,4.4,7.8,8.7,10.7c0.5,0.3,1.1,0.4,1.6,0.1c0.5-0.2,0.8-0.7,0.8-1.2c0-0.3,0-0.7,0-1c0,0,0,0,0,0c0-0.1,0-0.2,0-0.3
	c0.1-2.9,1-5.8,2.5-8.5c4.3,6.9,13.4,12,23.8,13.2c0.1,0.1,0.1,0.2,0.2,0.3c0.3,0.3,0.7,0.5,1.2,0.5c0.3,0,0.7-0.1,1-0.3
	c0.5-0.4,0.6-0.9,0.4-1.4c0.1-0.1,0.1-0.3,0.1-0.5l2.2-2c0.4-0.4,0.5-0.9,0.2-1.3c0.3-0.5,0.1-1.1-0.4-1.4c-0.6-0.5-1.6-0.4-2.1,0.1
	l-2,1.9c-8.8-9.8-11.5-21.4-11.5-33.9c0.1-7.7,1.1-15.6,2.4-23.7c1.4-8.4,2.5-17,2.4-25.3c0.1-13.9-3.1-27.3-14.1-38.2
	c-0.1-0.1-0.3-0.2-0.4-0.2l1.6-10.6c0-0.2,0-0.4-0.1-0.6l0.1-0.4c0.1-0.4-0.1-0.7-0.4-1c-0.3-0.3-0.7-0.4-1.2-0.4
	c-1.1,0-2.2,0-3.4,0c1.3-2.2,2.5-4.5,3.6-6.8c1.9-3.8,3.9-7.7,6.4-11c3.9-5.2,8.5-12.1,9.4-19.7c0.1-1,0.1-2,0.1-3
	c0.1-6.7-3-12.9-8.7-17c0.5-0.8,1-1.6,1.5-2.4c3.2-5.8,4.8-11.4,4.7-16.6c0.1-2.3-0.2-4.5-0.7-6.6c-1.2-4.5-5.3-10.1-10.5-12.7
	c2.8-3.5,5.1-7.2,6.5-11.1c1.3-3.6,1.9-7.2,1.8-10.8c0.1-7.4-2.5-14.4-7.7-20.1c1.2-1.5,2.4-3,3.4-4.6c3-4.5,4.4-8.8,4.3-12.8
	c0-1.3-0.1-2.6-0.4-3.8c0-0.2-0.1-0.3-0.1-0.5c0.2-0.7,0.2-1.4,0.2-2.1c0.1-2.1-0.6-4.5-2.3-6.5c-1.9-2.4-4.6-4.1-7.2-5.8l-1.2-0.8
	c-22.3-14.7-36-38.2-35.7-61.9c0-0.7-0.7-0.9-1.5-0.9h0c-0.3,0-0.5-0.3-0.7-0.2c-0.3-0.1-0.6-0.4-0.9-0.6c-0.1-0.3-0.4-0.6-0.7-0.7
	c-0.1,0-0.1-0.1-0.2-0.1c-2.3-2.2-3.9-6.3-4.9-4.5c-0.2-0.4-0.7-0.6-1.3-0.7c-0.7-3.4-1.1-6.8-1.1-10.2c0-5.6,1-11.1,2.9-16.5
	l13.1,23.8c0.3,0.6,1.1,0.9,1.8,0.7c0.7-0.2,1.2-0.8,1-1.4c0-0.1,0-0.3-0.1-0.4c0.1-0.2,0.1-0.4,0.1-0.6c-2.7-12.2-4.1-24.6-4.2-37
	c-0.1-15.6,1.8-31.3,5.6-46.7c0.6,0.1,1.2,0.2,1.8,0.2c2,0,4-0.5,5.4-1.6c0.2-0.2,0.4-0.4,0.5-0.7c0.7-2.6,1.8-5.1,3.2-7.6l-0.1,2.2
	c0,0.3,0,0.7,0,1.1c-0.1,1-0.1,2.7,1.6,3.9c1.8,1.2,4.3,1.1,6.5,1l0.9,0c1.5-0.1,3,0,4.6,0.1c1.3,0.1,2.6,0.1,3.9,0.1
	c2.4,0,4.8-0.3,6.9-1.3c2.9-1.4,4-3.7,5-5.8l0.4-0.9c2.4-4.7,7-8.8,12.9-11.9c-3.6,4.4-5.5,9.3-5.4,14.3c0,0.6,0,1.2,0,1.7
	c0,0.7,0.7,1.4,1.5,1.4l27.7,0.6c0,0,0,0,0,0c0.7,0,1.3-0.7,1.5-1.3c1.6-7.2,8.5-14.4,21-21.9c3.2-1.9,6.6-3.8,9.9-5.7
	c7.2-4,14.6-8.1,20.6-13c5-4.1,9-8.8,12-13.9c-0.1,16.6-4.6,33-13.2,48c-0.2,0.3-0.2,0.7,0,1c-0.3,0.5-0.1,1,0.3,1.4
	c0.3,0.2,0.7,0.4,1,0.4c0.2,0,0.5,0,0.7-0.1c17.7-7.8,31.1-23.9,36.6-44c2.6-9.6,3.4-19.4,3.5-29.1c0-1.1,0-2.2,0-3.3
	c3.9,11.4,6,23.2,6.1,35c0,6.9-0.6,13.8-1.9,20.6c0,0.2,0,0.4,0.1,0.6c0,0.1,0,0.3-0.1,0.4c-0.1,0.6,0.3,1.1,0.9,1.3
	c0.2,0.1,0.4,0.1,0.6,0.1c0.4,0,0.9-0.2,1.2-0.5c12.2-12.9,18.6-29.1,18.5-45.4c0.1-5.8-0.7-11.6-2.2-17.3
	c33.9,40.4,52,87.2,52.2,134.2c0,13.1-1.4,26.1-4.2,39.1c0,0.2,0,0.4,0.1,0.6c0,0.1,0,0.3-0.1,0.4c-0.1,0.6,0.3,1.2,1,1.4
	c0.7,0.2,1.5-0.1,1.8-0.7l13.1-23.8c1.9,5.4,2.9,10.9,2.9,16.5c0,3.4-0.4,6.8-1.1,10.2c-0.5,0-1.1,0.2-1.3,0.7
	c-1-1.8-2.6,2.3-4.9,4.5c-0.1,0-0.1,0.1-0.2,0.1c-0.3,0.1-0.6,0.4-0.7,0.6c-0.3,0.2-0.6,0.3-0.9,0.4c-0.2-0.1-0.4-0.1-0.7-0.1
	c-0.8-0.2-1.5,0.6-1.5,1.3c0.2,14.3-4.8,28.6-13.6,40.9c-2.2,1.7-4.3,3.4-6.5,5c-0.5,0.4-0.7,1-0.4,1.5c-0.2,0.4-0.2,0.9,0.2,1.3
	c0.1,0.1,0.1,0.1,0.2,0.1c-4.6,5-9.7,9.5-15.6,13.3l-1.2,0.8c-2.6,1.7-5.3,3.4-7.3,5.8c-1.7,2.1-2.5,4.4-2.3,6.5
	c0,0.7,0,1.4,0.2,2.1c-0.1,0.1-0.1,0.3-0.1,0.5c-0.3,1.2-0.4,2.5-0.4,3.8c-0.1,3.9,1.3,8.2,4.3,12.8c1,1.6,2.2,3.1,3.4,4.6
	c-5.2,5.7-7.8,12.8-7.7,20.1c-0.1,3.5,0.5,7.2,1.8,10.8c1.4,3.9,3.7,7.6,6.5,11.1c-5.3,2.6-9.4,8.2-10.5,12.7
	c-0.5,2.1-0.8,4.3-0.7,6.6c-0.1,5.2,1.5,10.8,4.7,16.6c0.4,0.8,1,1.6,1.5,2.4c-5.6,4.2-8.8,10.3-8.7,17c0,1,0,2,0.1,3
	c0.9,7.6,5.5,14.6,9.4,19.7c2.5,3.3,4.5,7.2,6.4,11c1.1,2.3,2.3,4.6,3.6,6.8c-1.1,0-2.2,0.1-3.4,0c-0.4,0-0.9,0.1-1.2,0.4
	c-0.3,0.3-0.4,0.6-0.4,1l0.1,0.4c-0.1,0.2-0.1,0.4-0.1,0.6l1.6,10.6c-0.2,0-0.3,0.1-0.4,0.2c-11,10.9-14.2,24.2-14.1,38.2
	c-0.1,8.3,1.1,16.9,2.4,25.3c1.3,8.1,2.4,16.1,2.4,23.7c0,12.5-2.8,24-11.5,33.9l-2-1.9c-0.6-0.5-1.5-0.6-2.1-0.1
	c-0.5,0.4-0.6,1-0.4,1.4c-0.2,0.4-0.2,1,0.2,1.3l2.2,2c0,0.2,0,0.3,0.1,0.5c-0.2,0.5-0.1,1,0.4,1.4c0.3,0.2,0.6,0.3,1,0.3
	c0.4,0,0.9-0.2,1.2-0.5c0.1-0.1,0.2-0.2,0.2-0.3c10.4-1.2,19.6-6.3,23.8-13.2c1.5,2.7,2.4,5.6,2.5,8.5c0,0.1,0,0.2,0,0.3
	c0,0,0,0,0,0c0,0.3,0,0.7,0,1c0,0.5,0.3,0.9,0.8,1.2c0.5,0.2,1.2,0.2,1.6-0.1c4.3-2.9,7.2-6.6,8.7-10.7c-0.4,2.9-1.9,5.8-4.4,8.1
	c-0.4,0.4-0.5,0.9-0.3,1.3c-0.2,0.4-0.2,0.9,0.1,1.2c0.4,0.5,1.2,0.7,1.8,0.4c17.2-6.3,26.3-19.2,31-29c4.6-9.7,6.8-19.9,6.6-30.1
	c0-22.4-11.2-45-31.8-61.9c0.2-0.2,0.3-0.4,0.4-0.6c0.4-0.8,0.5-1.6,0.4-2.5c0.2-2-0.8-3.8-1.8-5.5l-0.4-0.8
	c-0.3-0.5-0.7-1.5-0.8-2.4c0.1-0.6,0.4-1.2,1.1-1.7c0.4-0.2,0.6-0.6,0.6-0.9c0.8-0.2,1.2-0.9,1-1.5c0,0-0.1-0.1-0.1-0.1
	c0.1-0.3,0.2-0.6,0.1-0.9c-0.2-0.7-1.1-1.1-1.9-0.9c-0.4,0.1-0.9,0.2-1.3,0.3c0.4-3.3,0.6-6.5,0.5-9.6c0-1.9-0.1-3.7-0.2-5.5
	l7.9-6.6c3.7-3.1,7.4-6.2,10.1-9.9c3-4.2,4.5-9.1,4.4-14.3c0.1-4.9-1.2-10.1-4-15.2c7.6-5,13.7-10.4,15.5-17.3
	c0.4-1.5,0.5-2.9,0.5-4.3c0.3-7.7-4.9-14.2-10.7-21l0.5-0.3c7.7-4.3,16.6-10.1,17.6-18c0.2-1.3,0.2-2.7,0.2-4.2
	c0.1-9.4-4-21.6-13.1-26c6.5-3.5,12.6-7.4,16.5-13c2.8-4,4.2-8.5,4-12.9c0.1-2.2-0.3-4.5-1-6.7c-1.9-6-6.6-11.3-13-15.1
	c9.6-4.2,17.7-10.1,23.2-17.1c7.4-9.4,10-20.1,12-30.2c4-20.4,6-39.5,5.9-57.6C410.8,204.3,407.4,182.6,400.5,162.1z"/>
</svg>
