<?xml version="1.0" encoding="utf-8"?>
<!-- Generator: Adobe Illustrator 19.0.0, SVG Export Plug-In . SVG Version: 6.00 Build 0)  -->
<svg version="1.1" id="Layer_1" xmlns="http://www.w3.org/2000/svg" xmlns:xlink="http://www.w3.org/1999/xlink" x="0px" y="0px"
	 viewBox="0 0 517.6 556.8" style="enable-background:new 0 0 517.6 556.8;" xml:space="preserve">
<style type="text/css">
	.st0{fill:#EF7B05;}
</style>
<path id="XMLID_5282_" class="st0" d="M350.2,198.1c11.4,12.6,17.6,25.9,23.2,40.9c2.9,7.9,5.5,14.8,5.7,23.2
	c0.7,31.2-11.1,60.9-25.1,89.2c-4.1,8.3-8.6,16.5-13.3,24.6c-7.7,13-15.3,26.1-24.6,38.4c-3.4,4.5-9.6,8.5-11.9,13.5
	c-0.1,0.1-0.1,0.1,0,0c12.9-13.9,25.9-27.7,38.3-42c13.9-16,23.4-33.5,34.4-50.9c-1.4,5.5-4.9,10.8-7,16.1
	c-3.8,9.4-7.8,18.1-13.3,26.9c-13.8,22.1-34,40.3-48.1,62c-6.1,9.3-11,18.5-15.5,28.6c-3.9,8.7-7.8,17.4-11.3,26.2
	c-2.6,6.4-6.7,12.8-7.6,19.7c0.4-3.9,3-7.8,4.8-11.4c4.3-8.4,8.1-17,12.2-25.5c6.2-12.7,15.4-26.1,26.1-36.4
	c-28.4,32.7-34.7,73.3-45.3,111.9c2.6-16,13.1-33.9,21.7-48c10.4-17.1,25.7-31.6,36.8-48.4c13-19.7,30.5-37.4,46.1-55.6
	c22.2-26,36.6-54.8,49.2-85.3c12.9-31.1,20.2-64.3,21.4-97.3c0.7-19-0.9-38-4.9-56.7c-9.7-45.8-36-96.3-82.2-122.5
	c-24.7-13.9-46-12.7-58.2,11.4c-12.9-2.2-7.8-15-23.4-16.9c-48.7-5.9-102.7,3.7-150.7,58.3c-14,15.9-30.2,30-37.7,48.9
	C67,198.9,71.3,254,93.4,311.5c2.1,5.4,3.8,11.2,6.3,16.4c2.8,5.9,7.1,11.3,9.9,17.2c3.4,7.1,5.4,14.8,7.2,22.3
	c2.1,8.9,4,18.2,5,27.3c-1.3-15.8,0.2-33.2-4.5-48.6c8.1,21.6,17.4,44.2,17.5,67.3c0,11.7-2.1,21.6-5.1,32.9
	c2.7-12.6,9.9-23.8,11.5-36.9c1.7-13.7,0.5-27.1-1.3-40.6c-0.1,6.8,2.3,13.9,3.1,20.6c1.4,12,2.7,24,2.5,36.1
	c-0.2,12.8-0.8,25.7-5.5,38c-2,5.3-6.5,10.3-7.9,15.7c9.4-9.8,14.5-24.7,18.1-36.8c3.7-12.1,6.9-24.3,6.9-36.8
	c1.5,4.8,1,11.1,1.2,16c0.5,13.4-2.2,27.2-4.9,40.3c-3.6,17-10.8,32.3-17.8,48.3c4.1-5.2,8.7-9.9,12.8-15.2
	c6.5-8.3,11.3-17.4,15.5-26.8c12-27.1,16.3-58.7,13-87.4c-1.5-13-4.6-25.8-9-38.2c-19.8-54.8-22.9-109.4-5.9-167
	c6.4-21.8,95.6-77.8,110.1-96.3C250.6,134.8,317.1,161.4,350.2,198.1z"/>
</svg>
