<?xml version="1.0" encoding="utf-8"?>
<!-- Generator: Adobe Illustrator 19.0.0, SVG Export Plug-In . SVG Version: 6.00 Build 0)  -->
<svg version="1.1" id="Layer_1" xmlns="http://www.w3.org/2000/svg" xmlns:xlink="http://www.w3.org/1999/xlink" x="0px" y="0px"
	 viewBox="-249 -18.5753 459.5891 596.5753" enable-background="new -249 -18.5753 459.5891 596.5753" xml:space="preserve">
<path id="XMLID_1104_" fill="#EF7B05" d="M91.498,233.6553c8.3783-20.1463,12.1344-28.677,14.8289-49.9223
	c0.0697,0.2564,0.1421,0.4957,0.2118,0.7532l0.4826,1.7583c2.6864,9.7898,4.1208,19.147,4.3781,28.0462
	c-0.1582,8.0601-1.2869,15.7322-3.5149,22.9223c-2.858,9.2152-7.5659,18.1053-12.1129,26.7046
	c-2.1931,4.1417-4.4559,8.4207-6.4989,12.7021c-4.3728,9.1602-7.0056,17.2879-8.0699,24.747c-0.2815,0.0779-0.5603,0.19-0.74,0.4144
	c-7.6785,9.815-17.8182,17.1963-28.5531,25.0126c-2.8151,2.0491-5.6785,4.1325-8.5579,6.3052
	c-0.0885,0.0687-0.0831,0.1752-0.1448,0.2564c-0.0724,0.0847-0.1957,0.1202-0.2413,0.2221
	c-3.5739,8.4161-5.1047,17.7286-4.9385,27.3685c-0.6354,14.1799,2.7507,32.4637,9.8823,46.8382
	c0.4879,1.4344,1.11,7.0103,2.0429,7.0103c0,0,0.0054,0,0.0081,0c2.9223,6,6.4238,7.3608,10.3515,12.345
	c-2.5121,4.405-3.799,8.0562-3.2736,13.0576c-0.7024,6.5331,1.3003,12.4242,7.3514,16.8567c0.26,0.1877,0.5764-0.112,0.8928-0.112
	c0.386,0,0.7721-0.3365,1.0402-0.6066c0.4933-0.49,0.429-1.3301-0.1448-1.7514c-2.1288-1.5591-3.665-3.5292-4.7159-5.6436
	c0.8499,0.9582,1.807,1.8425,2.9277,2.6621c0.26,0.1877,0.5764,0.2693,0.8928,0.2693c0.386,0,0.7721-0.1458,1.0402-0.416
	c0.4933-0.4899,0.429-1.2348-0.1448-1.6561c-3.925-2.8745-5.8286-6.9662-6.3112-11.2876c0.3941-3.3461,1.5255-6.6368,3.228-9.4323
	c0.1126-0.1832,0.2547-0.3495,0.3914-0.5212c0.0161,0.3137,0.0429,0.6248,0.067,0.9385
	c-0.5469,6.5365,1.4183,13.9429,4.2977,18.3627c2.8634,4.3935,6.7509,8.2101,10.5151,11.903
	c2.1609,2.1201,4.3969,4.3134,6.3862,6.5731c2.6998,3.0576,6.472,8.2559,7.397,13.9555c-0.1019,0.6628-0.1769,1.3245-0.3888,1.9861
	c-1.7427,5.4375-6.9922,10.1928-16.0487,14.5405c-1.7963,0.8608-3.6302,1.6805-5.4693,2.5001
	c-5.6195,2.5047-11.432,5.0918-16.0595,8.9931c-6.8849,5.7993-10.3033,14.1696-9.5954,22.3282
	c-0.4209,3.954,0.1099,7.9823,1.6756,11.7668c2.8151,6.8043,8.8153,12.4273,16.2579,15.6876
	c0.0643,0.0504,0.1394,0.1053,0.2091,0.1556c2.7132,2.0056,5.8018,3.0496,8.9225,3.0496c0.9598,0,1.925-0.1008,2.8795-0.2976
	c0.6488-0.1374,1.0885-0.6548,1.0402-1.2226c-0.0482-0.5724-0.5684-1.0257-1.2333-1.0852
	c-3.598-0.3022-7.1208-1.2272-10.3649-2.6467c-1.1984-0.9822-2.1368-2.183-2.9358-3.448c0.5067,0.2519,0.9598,0.577,1.4826,0.8059
	c0.0643,0.0504,0.1394,0.1053,0.2091,0.1557c2.7132,2.0056,5.8018,3.0496,8.9225,3.0496c0.9598,0,1.925-0.1008,2.8795-0.2977
	c0.6488-0.1374,1.0885-0.6548,1.0402-1.2226c-0.0482-0.5723-0.5684-1.0257-1.2333-1.0852
	c-3.598-0.3022-7.1208-1.2272-10.3649-2.6467c-2.3995-1.9655-4.0296-4.6774-4.657-7.4259
	c1.236-5.8943,6.161-11.5184,14.7645-16.7281c2.3754-1.4378,4.842-2.7748,7.3085-4.1119
	c5.3943-2.9214,10.9655-5.9389,15.475-10.0004c9.8555-8.8832,12.0433-21.5235,12.8798-32.7168
	c0.1394-1.8384,0.118-3.7353,0.0295-5.6482c0.1609-3.0736-0.0054-6.2606-0.4397-9.4773c1.5148,1.7847,2.9518,3.5052,4.0886,5.3883
	c3.6462,6.0305,3.968,13.1897,4.2736,20.1154l0.1233,2.6306c0.3754,7.1363,1.5363,15.0785,6.6892,21.0987
	c-0.118,1.352-0.0322,2.7039,0.1823,4.049c-0.0617,0.1179-0.1689,0.2129-0.185,0.348c-1.0349,9.6983,7.0351,19.8132,18.3651,23.0231
	c2.8634,0.8105,5.8715,1.1997,8.9064,1.1997c8.381,0,16.9603-2.9809,23.1267-8.3612c7.33-6.3831,11.0915-15.7345,10.3837-25.3183
	c0.1743-2.1658,0.1635-4.3603-0.1367-6.5651c-0.2896-2.1293-0.799-4.2631-1.2869-6.3282c-0.5335-2.246-1.0375-4.4256-1.2976-6.5742
	c0.0509-0.4213,0.0429-0.8425,0.1287-1.2626c0.5147-2.5093,1.6837-4.8583,2.9223-7.3447c1.1528-2.317,2.3432-4.7095,2.9652-7.26
	c0.5871-2.4131,0.563-4.8194,0.3083-7.2119c0.496-4.9476-0.8043-9.8596-2.1851-14.6321c-0.9089-3.1263-1.8044-6.3373-2.1716-9.522
	c0.4557-5.7947,2.7695-11.5024,5.1369-17.0406c0.8257-1.9277,1.6461-3.8509,2.3915-5.7809c1.858-4.7999,2.547-9.3812,2.0885-13.6328
	c0.4933-6.0797-1.0965-11.6363-4.8312-16.3641c-0.0295-2.0846-0.2252-4.2401-0.4772-6.4185
	c0.7453-7.5553,3.421-14.7432,6.1476-21.749c3.4478-8.8466,6.9359-17.9576,6.3112-27.8264
	c0.2118-3.4067,0.0429-6.8868-0.8043-10.4881c-2.3915-6.1313-7.7857-10.5683-13.0031-14.8611
	c-6.4962-5.3437-12.6679-10.4355-14.105-18.483c4.0377-13.9933,7.5257-29.9419,9.2952-47.065
	c0.0644-0.6307,0.1019-1.2775,0.1635-1.9117c0.7266-7.6297,1.0751-15.4872,1-23.4821c0.3807-30.9046-5.7776-64.2418-24.502-95.8127
	c-0.0483-0.1293-0.0215-0.2713-0.126-0.3835c-0.0804-0.087-0.1662-0.1717-0.2494-0.2599c-0.5844-0.9788-1.1394-1.961-1.7185-2.9408
	c0.4048-3.2007,0.5282-6.2812,0.3888-9.2587c1.0081-22.6499-12.5419-39.3357-34.438-58.0247
	c-2.7722-1.9735-5.5444-3.9814-8.3273-5.9939C84.5594,23.0064,53.1993,0.3783,7.6912,9.566
	C-7.8186-3.452-23.988-10.4189-40.5917-11.139C-58.0453-11.9288-74.775-5.5457-88.813,0.7687
	c-24.4082,10.9758-47.4223,24.5319-69.675,37.6414c-20.0757,11.8206-37.2987,22.9842-44.7359,39.8851
	c-3.1288,7.1192-4.11,14.4604-3.8125,22.0706c-0.2574,6.7563,0.6676,13.7278,2.2708,20.9625
	c-1.9974,5.718-7.1048,11.4532-12.0942,17.02c-5.1476,5.742-10.4722,11.6787-12.4829,17.7321
	c-1.0054,3.0267-1.244,6.8227-1.0107,10.8258c-0.4987,8.1506,1.8177,18.3262,5.2388,25.3778
	c-3.6489,2.9969-7.0324,6.2503-9.7724,9.9158c-4.9117,6.5743-7.0994,13.9464-6.5015,20.6683
	c-0.5389,5.4364,0.6247,10.6759,3.5738,15.011c1.2762,1.882,2.8902,3.6403,4.4452,5.3391c2.6784,2.9191,5.1154,5.7237,5.9439,8.9359
	c-0.4477,1.7892-1.236,3.5762-2.0993,5.4261c-0.4397,0.9502-0.8847,1.9003-1.2762,2.8527
	c-1.7373,4.2401-2.3432,8.7848-1.992,13.2928c-0.6488,8.2513,2.177,16.7453,7.8796,23.4111
	c-4.3058,2.6226-7.7777,6.4243-9.7697,11.0365c-1.5389,3.5716-1.9733,7.2588-1.5443,10.7881
	c-0.5067,4.2711,0.2359,8.4929,2.4344,12.1205c1.4639,2.4223,3.4693,4.7278,5.405,6.9578c1.7668,2.0376,3.4666,4.0272,4.7508,6.0385
	c-0.0885,0.2415-0.1421,0.5002-0.0322,0.7567c0.5657,1.2878,1.1153,2.3971,1.6622,3.4491
	c-0.8794,2.4795-2.8526,4.6339-4.9975,6.8856c-2.6382,2.7726-5.3674,5.639-5.9305,9.3251c-0.2038,1.3302-0.0402,2.6054,0.252,3.8612
	c-0.0724,0.2805-0.2064,0.5369-0.252,0.8276c-0.5577,3.6197,1.1421,6.9211,2.7829,10.115c0.9839,1.9186,1.9277,3.7593,2.3995,5.6276
	c-0.866,3.4686-3.5443,6.5914-6.3782,9.8517c-2.3164,2.665-4.7133,5.4192-6.1771,8.5009c-1.5925,3.3553-1.9357,6.7391-1.5336,9.9948
	c-1.3539,10.5225,7.0243,20.5069,11.1746,24.7253c2.4076,2.4452,5.035,4.8056,7.5766,7.0905
	c5.7857,5.1994,11.7644,10.5774,15.2498,17.0681c1.2574,2.3364,1.9277,4.9464,2.2199,7.5714
	c-0.2279,1.9632-0.6354,3.8772-1.4424,5.5932c-1.7534,3.7319-4.7347,6.3968-8.6115,7.711
	c-0.4558,0.1534-0.7829,0.5037-0.8526,0.9181c-0.0751,0.4144,0.118,0.8288,0.504,1.0898c0.925,0.6273,1.9866,1.0887,3.1127,1.4252
	c-0.8606,0.5002-1.7802,0.9238-2.7642,1.2558c-0.4558,0.1534-0.7829,0.5037-0.8526,0.9181c-0.0751,0.4144,0.118,0.8288,0.504,1.0898
	c1.9464,1.321,4.4398,2.0102,7.0672,2.0102c1.2654,0,2.5684-0.1603,3.8553-0.4877c3.2709-0.8345,5.8554-2.6432,7.3273-4.9293
	c1.2333,2.1143,1.8446,4.4462,2.0698,6.8021c-0.185,2.214-0.5845,4.3352-1.0054,6.1885c-0.2252,0.9799-0.4612,1.9598-0.6944,2.9489
	c-1.1716,4.8468-2.3486,9.8196-1.8821,14.7328c-0.2547,2.9706-0.1153,5.9423,0.8177,8.8718
	c0.8794,2.7611,2.4076,5.2979,3.8875,7.7522c0.9116,1.5156,1.8607,3.0862,2.6167,4.6614c0.8901,1.843,1.4639,3.7914,1.8928,5.7672
	c-0.4719,1.6839-0.5737,3.3873-0.118,5.1067c-0.4826,1.9529-0.5148,6.4067,0.37,8.4055c0.1984,0.4625,0.7132,3.2347,1.2815,3.2347
	c0.0429,0,0.0858,0,0.1287,0c0.6166,0,1.1153-2.921,1.2225-3.443c0.504-2.4681,0.6488-6.2432,0.4504-8.7617
	c0.4611-1.1082,1.0295-2.8583,1.614-4.0031c0.8955-1.7812,1.8285-3.9362,2.3969-5.809c0.7856-2.5825,0.8284-5.3382,0.5282-7.9287
	c0.4558-4.3661-0.6381-8.8267-1.7936-13.092c-0.4772-1.7813-0.9598-3.5966-1.3191-5.3687c-0.1314-0.6571-0.2118-1.3507-0.2869-2.025
	c0.5201-4.6499,2.6837-8.8791,7.2308-10.5756c0.8311-0.3091,1.7052-0.5291,2.5818-0.7466c1.4612-0.3663,2.9733-0.7465,4.3567-1.5089
	c3.362-1.8568,4.5658-5.0518,4.8473-8.4082c0.5925,1.226,1.0617,2.4869,1.4826,3.7621c0.0027,0.1477-0.0563,0.2813-0.0295,0.4336
	c0.0563,0.2976,0.2762,0.5608,0.4129,0.8458c0.1367,0.459,0.2949,0.9134,0.4156,1.3759c-0.6971,0.657-1,1.5259-0.8284,2.4669
	c0.2252,1.2272,1.2065,2.4108,2.5041,3.0175c1.1931,0.5563,2.4532,0.7212,3.6811,0.8608c0.7963,0.348,1.5336,0.5587,2.2226,0.3938
	c0,0,0.0241-0.0149,0.0349-0.0183c4.8125,1.0623,7.8635,5.1639,8.7536,9.4212c-0.8714,5.3483-4.2119,10.3165-7.6356,15.2366
	c-3.984,5.7328-7.5713,11.397-7.7,17.6611c-0.0188,0.8952,0.0483,1.7869,0.1796,2.6696c-0.0938,0.6685-0.1635,1.3394-0.1796,2.0193
	c-0.1448,6.8547,4.2146,13.5629,11.1049,17.0842c3.539,1.8087,7.6356,2.7199,11.7323,2.7199c3.8661,0,7.7321-0.8105,11.1317-2.4406
	c0.5362-0.2518,0.8043-0.783,0.6649-1.2913c-0.1367-0.5082-0.6595-0.8746-1.2708-0.902c-1.5201-0.0618-2.8205-0.4224-4.0135-0.8769
	c1.5979-0.3984,3.1583-0.9169,4.6194-1.6187c0.5362-0.2518,0.8043-0.783,0.6649-1.2913c-0.1367-0.5083-0.6595-0.8746-1.2708-0.902
	c-4.1664-0.1694-7.0994-2.2162-8.818-3.9013c-2.2494-2.1956-3.7106-5.0792-4.2441-8.0178
	c1.0027-5.7936,5.1047-11.6879,12.5902-17.9771c1.0938-0.9204,2.2145-1.827,3.3406-2.7336
	c4.4291-3.5808,9.0137-7.2806,11.9521-12.0015c2.0966-3.3655,3.0912-7.5416,2.4746-11.4177
	c0.7212-4.6293-0.4719-9.4441-4.6784-12.6242c-2.7293-2.0628-6.3112-3.1664-9.7751-4.231
	c-4.4586-1.3737-8.6088-2.7222-10.1156-5.8897c1.1073-2.5619,3.6891-4.9716,6.3943-6.7139
	c0.8526-0.5472,1.7319-1.0807,2.6167-1.6164c4.0108-2.4291,8.1584-4.943,10.0432-8.9633c1.1287-2.4051,1.2172-4.84,0.799-7.2703
	c0.7748-4.0913-0.8284-8.2319-2.4237-12.2614c-0.9437-2.3857-1.8365-4.8148-2.2682-7.2142
	c3.3084-5.7397,5.8205-8.4436,6.8849-9.1557c0.2627,0.1649,0.6006,0.2404,0.933,0.2267
	c21.695-1.5134,36.7893-18.6433,41.6313-33.9165c3.0323-9.5655,4.4291-21.4639,4.1663-33.8878
	c0.1126-8.2181-0.4853-16.7579-1.9035-25.1191c-0.0054-0.032-0.0429-0.0458-0.0509-0.0755
	c-0.0322-0.1339-0.1421-0.2221-0.2225-0.3331c-0.1019-0.1431-0.1904-0.2931-0.3646-0.3892c-0.0295-0.016-0.0295-0.0492-0.059-0.063
	c-7.5337-3.535-14.8476-9.8814-21.9202-16.0195c-3.1851-2.7634-6.4774-5.6184-9.7536-8.1872
	c-19.1721-15.0351-30.395-36.8687-30.8025-59.0653c45.9879-41.015,95.8142-51.8049,135.9261-110.3311
	c3.5336-3.4491,6.8876-8.2067,10.1316-12.8303c6.5203-9.2976,13.2015-18.9363,21.4537-18.1533
	c12.424,1.1608,27.7542,25.5072,46.8593,74.4266c5.1905,13.295,3.2576,4.4555,6.2228,18.1489
	c1.0027,4.6477,0.0108,1.2907,1.0939,5.8995C90.3103,217.0073,91.3639,225.5253,91.498,233.6553 M128.3838,514.8865
	c-0.7534-0.9456-1.2306-1.9735-1.5952-3.029c0.1582,0.0527,0.2896,0.1717,0.4584,0.1717c0.3003,0,0.6006-0.0824,0.8526-0.2564
	c0.563-0.3801,0.6864-1.0669,0.2842-1.5751c-1.1073-1.3897-1.7588-2.9214-2.0617-4.5252c0.5309-3.4399,2.0698-6.8982,3.7133-9.7658
	c0.5094-0.886,1.0349-1.7766,1.5657-2.6695c3.3513-5.6413,6.8206-11.4749,6.0216-17.858c-0.0161-0.1397-0.067-0.2725-0.0885-0.4121
	c0.2091-1.4012,0.2708-2.8229,0.0885-4.2768c-0.2574-2.0285-0.9357-3.97-1.6032-5.8451c-0.555-1.5729-1.0108-3.0805-1.2976-4.6007
	c0.5443-2.7954,1.8714-5.5131,3.3862-8.0109c0.0697,0.2999,0.0751,0.593,0.1635,0.8963c0.9759,3.3587,3.2065,6.2892,5.3674,9.1213
	c2.2226,2.9237,4.2575,5.7237,4.968,8.8214c-0.504,2.2918-1.5497,4.5801-2.6891,6.9555c-1.9384,4.0363-3.9331,8.209-2.8902,12.6288
	c-0.2735,1.5431-0.3807,3.1034,0,4.7049c0.8043,3.3861,3.2333,6.1038,5.5873,8.7275c1.866,2.0834,3.6302,4.0569,4.6221,6.319
	c0.2118,0.4796,0.3217,0.9913,0.4477,1.4973c-0.2279,0.9593-0.5416,1.9152-1.0376,2.8389
	c-1.5925,2.9672-4.3701,5.2567-7.6195,6.2778c-3.2494,1.0165-7.1048,0.8105-10.5633-0.5677
	c-2.547-1.0165-4.6462-2.5848-6.0538-4.4485C128.6063,515.6443,128.6626,515.2391,128.3838,514.8865z M-120.7603,430.1309
	c1.9706-2.6627,4.1234-4.8846,5.8661-4.8846c0,0,0.0134,0.0012,0.0188,0.0012c-1.7588,0.0023-3.9197,2.2322-5.8956,4.9006
	C-120.7683,430.1424-120.763,430.1378-120.7603,430.1309z M70.1301,315.921c0,0,0,0.0023,0,0.0034c0-0.0012,0-0.0023,0-0.0023
	c0.1903-0.2816,0.2306-0.601,0.1421-0.8906C70.3606,315.3212,70.3204,315.6406,70.1301,315.921z"/>
</svg>
