<?xml version="1.0" encoding="utf-8"?>
<!-- Generator: Adobe Illustrator 19.0.0, SVG Export Plug-In . SVG Version: 6.00 Build 0)  -->
<svg version="1.1" id="Layer_1" xmlns="http://www.w3.org/2000/svg" xmlns:xlink="http://www.w3.org/1999/xlink" x="0px" y="0px"
	 viewBox="-218 43.8741 522.3776 474.1259" enable-background="new -218 43.8741 522.3776 474.1259" xml:space="preserve">
<path id="XMLID_1621_" fill="#EF7B05" d="M298.4333,376.7739c-0.0027-0.03-0.0108-0.0588-0.0135-0.0889
	c0.0569-1.604,0.1437-3.2021,0.0135-4.8289c-1.236-15.6106-11.2977-29.7084-21.0287-43.3428
	c-10.3598-14.5084-20.0448-28.2821-20.2209-43.6814c0.9379-11.8958,1.5992-23.8974,1.5179-35.9085
	c0.1219-12.3545-0.9161-24.7306-2.8298-37.0179c-5.0417-32.3919-19.1656-60.2333-41.1656-80.5168c0-0.0012,0-0.0036,0-0.0036
	c0-0.0288,0.3794-0.0504,0.3496-0.078c-13.0487-12.2332-29.0385-22.2957-44.7192-32.0233l-25.5418-15.9108
	c-25.4524-15.7883-50.86-29.8477-80.1234-28.8344c-24.0131,0.8477-37.6683,7.893-57.8486,19.3098
	c-0.0569-0.0624-0.0349-0.1525-0.1108-0.2053c-2.4178-1.7505-5.6257-2.627-8.694-2.4445c-0.1138,0.0072-0.1754,0.0961-0.2784,0.1261
	c-0.0976-0.0252-0.1636-0.0912-0.2693-0.1044c-29.6592,0.6651-59.0681,10.0493-80.6932,25.744
	c-21.6196,15.6815-35.0908,36.4836-38.0995,58.6749c-6.0527,3.7808-11.7637,7.4824-16.7674,11.1563
	c-16.7568,12.3065-29.7296,29.2858-40.8158,53.4378c-8.7227,19-12.4063,33.8374-11.9509,47.8632
	c-0.0813,2.1479-0.0921,4.2779,0.019,6.3838c0.9812,18.2988,10.0834,34.6947,24.9618,45.1402
	c0.1328,0.5307,0.1057,1.107,0.1843,1.6533c-0.5096,3.8588-2.0519,7.917-4.8926,11.9583
	c-3.3015,4.6993-7.7306,9.0096-12.0133,13.1805c-2.1631,2.1083-4.3315,4.219-6.3753,6.3922
	c-12.9295,13.7112-19.8414,29.161-19.4674,43.5037c0.0135,0.4395,0.1084,0.8633,0.1328,1.2991
	c-0.0678,1.2102-0.1626,2.4229-0.1328,3.6187c0.4391,16.5195,10.7393,31.6391,26.8944,39.6701
	c-0.1708,0.7396-0.4093,1.466-0.5475,2.2104c-0.7237,3.9236-0.9216,7.7489-0.7237,11.448
	c-0.5557,10.5139,2.3257,20.1598,8.4651,27.6302c7.6655,9.3313,20.9637,15.1616,33.7413,15.1616
	c1.7998,0,3.5942-0.1153,5.3615-0.3554c0.6722-0.0912,1.171-0.5979,1.1764-1.2007s-0.4771-1.1214-1.1493-1.2246
	c-3.0386-0.4731-5.9823-1.2763-8.7823-2.3268c1.133,0.09,2.266,0.1897,3.3936,0.1897c1.7998,0,3.5942-0.1153,5.3615-0.3554
	c0.6722-0.0912,1.171-0.5979,1.1764-1.2006s-0.4771-1.1214-1.1493-1.2246c-5.2206-0.8128-10.1566-2.5862-14.5179-4.9958
	c5.3588,2.292,10.7854,4.0257,15.5804,4.3931c1.8703,0.1441,3.746,0.2137,5.6218,0.2809c2.7811,0.1033,5.6488,0.2089,8.3974,0.5715
	c3.5834,0.4778,8.4679,1.6569,11.4088,4.5744c0.0732,0.0745,0.1952,0.0588,0.2819,0.1129c-0.2439,0.5667-0.0461,1.2198,0.5719,1.52
	c0.2114,0.1032,0.4391,0.1513,0.6668,0.1513c0.4879,0,0.965-0.2305,1.2198-0.6387c1.1439-1.8526,1.2008-4.0197,0.4472-6.1713
	c1.0897-2.9475,0.0678-6.391-2.8895-9.3049c4.074,2.5573,7.7794,5.4185,10.6011,8.8079c2.5967,3.1192,4.1282,6.5062,4.6649,9.8152
	c-0.3632,2.1455-1.1656,4.1842-2.5344,5.978c-0.4066,0.5307-0.2819,1.2462,0.2819,1.6472c0.2548,0.1825,0.5584,0.2714,0.8674,0.2714
	c0.2277,0,0.4174-0.1393,0.6207-0.2353c-0.45,1.131-1.0029,2.2284-1.77,3.2345c-0.4066,0.5307-0.2819,1.2462,0.2819,1.6473
	c0.2548,0.1825,0.5584,0.2713,0.8674,0.2713c0.3686,0,0.7373-0.1297,1.0083-0.3842l0.3632-0.3434
	c6.9797-6.517,16.7893-15.7031,17.4643-24.3248c2.5615,3.8564,3.5861,8.6145,4.5077,12.9452l0.1301,0.5859
	c0.0813,0.3986,0.3849,0.7348,0.8078,0.8957c0.1789,0.0696,0.3632,0.1033,0.553,0.1033c0.2602,0,0.515-0.0648,0.7373-0.1897
	c5.3724-2.9968,8.7416-7.3071,10.6607-12.0219c7.6357,8.4873,20.0908,13.5155,33.4567,13.5155c1.4664,0,2.9464,4.3732,4.4264,4.2531
	c0.4852,0.4322,1.068,5.3169,1.7592,5.3169c0.0434,0,0.0867,0,0.1301,0c0.6993,0,1.2198-4.9495,1.2848-5.5858
	c0.0379-0.377-0.1708-2.937-0.4771-3.1783c0.0488-0.4839-0.225-2.0574-0.7048-2.2927c-0.0406-0.3578-0.206-1.2568-0.5746-1.4693
	c-0.4039-0.2377-0.8647-0.4729-1.2821-0.3097c-0.8891-0.4214-1.6914-1.1333-2.5425-1.622c0.8023-0.0468,1.6019,4.3171,2.407,4.2523
	c0.4852,0.4322,1.068,5.2055,1.7592,5.2055c0.0434,0,0.0867,0,0.1301,0c0.6993,0,1.2198-4.9084,1.2848-5.5447
	c0.0379-0.377-0.1708-2.9164-0.4771-3.1577c0.0488-0.4839-0.225-2.0471-0.7048-2.2824c-0.0406-0.3578-0.206-1.2517-0.5746-1.4642
	c-0.4039-0.2377-0.8647-0.4704-1.2821-0.3071c-6.7222-3.1901-12.3413-8.5471-16.3963-14.8036
	c3.7596-3.4338,6.9445-7.8305,9.3895-13.1613c2.6726-5.8279,4.2393-12.0675,5.7681-18.1067l3.868-15.3435
	c0.0461,0.0036,0.0786,0.0405,0.122,0.0405c0.3198,0,0.6397-0.1004,0.8999-0.2973c0.5855-0.4418,0.656-1.2196,0.1572-1.7359
	c-0.1708-0.1777-0.3686-0.3673-0.5421-0.545l0.0921-0.3667c0.1545-0.6027-0.2629-1.1577-0.8945-1.3726l0.1653-0.6581
	c0.0461,0.0036,0.0786,0.0491,0.122,0.0491c0.3198,0,0.6397-0.0961,0.8999-0.293c0.5855-0.4418,0.656-1.2175,0.1572-1.7337
	c-0.1708-0.1777-0.3686-0.3662-0.5421-0.5439l0.0921-0.3662c0.1681-0.6628-0.3036-1.3207-1.0517-1.4696
	c-0.2792-0.0516-0.515,0.0408-0.7535,0.1165c-6.3319-6.3754-13.8186-13.1877-22.4328-20.9763l-0.8891-0.8068
	c-8.6576-7.8329-18.4753-18.0935-21.11-29.7133c0.8809-1.5896,1.7077-3.1937,2.3745-4.8385
	c2.6022-6.4234,3.3286-12.9452,2.9464-19.4935c0.4283-12.0856-3.5482-24.3212-7.5164-36.2711
	c-2.0384-6.1461-4.0767-12.3869-5.5513-18.6434c-0.4364-3.022-0.9433-6.1208-1.6101-9.3938
	c-0.0081-0.042-0.0569-0.0588-0.0705-0.0984c-0.1572-1.3735-0.1816-2.741-0.2494-4.111c0.0678-1.496,0.0949-2.9944,0.3198-4.4832
	c1.9706-13.0052,10.2569-25.744,18.2693-38.0625c7.3077-11.2403,14.7483-22.7628,17.5863-34.6851
	c2.8949,19.0829,11.2489,39.6617,25.1379,61.6104c5.0851,8.0347,11.4495,16.9673,22.6388,21.2993
	c6.0283,2.334,12.7668,2.9919,19.2993,2.9919c4.5917,0,9.0859-0.3242,13.168-0.6195l2.1847-0.1573
	c0.0217,0.0012,0.038,0.0204,0.038,0.0204c0.0515,0,0.0705-0.0288,0.0976-0.03l15.4883-1.1154
	c0.2548,0.1609,0.515,0.2329,0.759,0.2642c0.3686,0.3314,0.927,0.4586,1.4366,0.2881c0.5638-0.1753,0.9325-0.6483,0.927-1.1766
	c-0.0054-0.3314-0.2602-0.9125-0.5313-1.1406c-0.0922-0.0745-0.1843-0.1369-0.2819-0.1873
	c-0.8457-0.9677-1.5992-1.9799-2.4287-2.956l0.1193-0.0096c0.2548,0.1609,0.515,0.2329,0.759,0.2642
	c0.3686,0.3314,0.927,0.4586,1.4366,0.2881c0.5638-0.1753,0.9325-0.6483,0.927-1.1766c-0.0054-0.3314-0.2602-0.9125-0.5313-1.1406
	c-0.0922-0.0744-0.1843-0.1369-0.2819-0.1873c-13.6396-15.5926-24.913-32.3547-33.6763-49.8683
	c2.5534,4.5864,5.3588,12.1598,8.5817,16.5445c12.0838,16.4391,38.23,50.1178,77.5606,50.1178c0.0298,0,0.0677,0,0.0677,0
	c-0.5015,0-1.2827-3.3375-1.5104-3.801c0.2277,0.4634,1.0023-2.7738,1.0023-2.7738v-0.2455v6.8203h0.557
	c0.1816,0,0.3605-3.0902,0.534-3.1586c0.0569-0.0216,0.0678-1.6093,0.1166-1.6357c0.2168-0.1117,0.3795-1.0316,0.496-1.2153
	c0.0434-0.0672,0.1003-0.5074,0.1274-0.5818c0.0271-0.066,0.1003-0.2933,0.1111-0.3629c0.0298-0.1753-0.0732-0.4126-0.1193-0.5711
	c-0.019-0.072,0.0298-0.1907-0.0054-0.2615c-0.5231-1.0782-1.0761,0.8448-1.6046-0.2321c0.0786,0.0048,0.1491,3.0192,0.2277,3.0192
	c0.0298,0,0.0677,0,0.0677,0c-0.1138,0-0.5082-6.097-0.5082-6.1246c0-0.0024,0-0.0048,0-0.0072c0,0.0312,0.3246,3.114,0.4547,3.114
	l0,0l0.0915,3.0179h0.0108c0.1816,0,0.3605-3.0491,0.534-3.1175c0.0569-0.0216,0.0678-1.5888,0.1166-1.6152
	c0.2168-0.1117,0.3795-1.0213,0.496-1.205c0.0434-0.0673,0.1003-0.5023,0.1274-0.5767c0.0271-0.066,0.1003-0.2907,0.1111-0.3604
	c0.0298-0.1753-0.0732-0.4113-0.1193-0.5698c-0.019-0.072,0.0298-0.19-0.0054-0.2609
	c-5.0742-10.4359-10.3734-20.857-15.7729-31.2316c4.2556,3.6103,7.6438,7.8536,11.1161,12.2911
	c3.4262,4.3751,6.9716,8.8932,11.52,12.8625c11.9374,10.4047,31.4482,16.8587,50.4927,16.8587c1.1222,0,2.2498-0.0255,3.3719-0.0711
	c0.2521-0.0096,0.4608-0.1004,0.6479-0.2241c-2.4287,11.8262-3.5997,23.8334-3.5373,35.8589
	c-0.0651,2.8527-0.0054,5.704,0.0705,8.5567c-0.1626,0.1861-0.3225,0.3841-0.3415,0.6363
	c-1.6833,24.4569-12.5283,48.0517-30.0251,66.8632c-0.2467,0.2642-0.4852,0.5343-0.7346,0.7972
	c-6.4268,6.7872-13.7101,12.9476-21.7795,18.2592c-0.1057-0.0156-0.1789-0.0865-0.29-0.084
	c-0.7644,0.0576-1.3282,0.6531-1.2631,1.3303c0.1301,1.3159,0.3361,2.6198,0.5231,3.9285c-0.328,0.2485-0.5611,0.5787-0.5231,0.9893
	c1.5992,16.3862,7.7469,32.1794,17.8302,45.8618c-0.0325,0.1009,0,0.2041-0.0027,0.3074c-1.8703,3.7988-4.6297,7.2578-9.0398,9.413
	c-0.5367,0.2617-0.8132,0.8092-0.6831,1.3423c0.1355,0.5307,0.6451,0.9221,1.2577,0.9605c1.0869,0.066,2.1712,0.0912,3.2581,0.0997
	c-1.1249,0.9521-2.3853,1.8081-3.8328,2.5153c-0.5367,0.2617-0.8132,0.8092-0.6831,1.3423
	c0.1355,0.5307,0.6451,0.9221,1.2577,0.9605c1.2361,0.0744,2.4721,0.1129,3.7081,0.1129c11.604,0,23.2324-3.2885,32.283-8.9519
	c0.0786,0.0192,0.1437,0.0696,0.2277,0.0768c0.8294,0.0672,1.6751,0.1009,2.5208,0.1009c7.1993,0,14.732-2.4781,20.8552-6.7572
	c-5.5675,7.9866-15.6997,15.2697-24.6392,17.7334c-0.6451,0.1777-1.0517,0.7372-0.965,1.3303
	c0.0867,0.5907,0.6397,1.0421,1.3119,1.071c1.0138,0.0432,2.0275,0.0648,3.0467,0.0648c1.0381,0,2.0736-0.1033,3.109-0.1477
	c-2.1847,1.077-4.3749,2.0135-6.5027,2.5994c-0.6451,0.1777-1.0517,0.7372-0.965,1.3303c0.0867,0.5907,0.6397,1.0421,1.3119,1.071
	c1.0138,0.0432,2.0275,0.0648,3.0467,0.0648c18.7084,0,37.5741-7.2302,48.7417-18.8451
	c8.2592-8.5941,12.2464-19.5883,11.623-30.3532c0.3985-5.4965-0.393-11.0374-2.4368-16.2722
	c-0.019-0.1105,0.0434-0.2185-0.0135-0.3266c-0.2982-0.5763-0.534-1.2174-0.7969-1.8333c-0.0244-0.0552-0.0379-0.1141-0.065-0.1693
	c-0.0027-0.0072-0.0135-0.0072-0.0163-0.0144c-0.6207-1.4888-1.1764-3.0436-1.6237-4.6933c0.2277,0.4034,0.45,0.808,0.6831,1.2115
	c5.7491,10.0277,11.7016,20.3939,14.0273,31.2501c0.4987,2.3208,0.7427,4.8001,0.8647,7.3239
	c-0.6316,11.2643-5.2748,22.9201-15.865,29.0913c-0.1084,0.0648-0.122,0.1837-0.2033,0.2677
	c-0.1138,0.1153-0.225,0.2269-0.2819,0.3674c-0.0569,0.1441-0.0488,0.2978-0.0434,0.455c0.0054,0.1081-0.0678,0.2065-0.0298,0.3146
	c0.0244,0.0672,0.0976,0.1009,0.1328,0.1621c0.0271,0.0432,0,0.0937,0.0298,0.1357c0.065,0.0876,0.1681,0.1345,0.2494,0.2017
	c0.0623,0.048,0.1111,0.1068,0.1816,0.1441c0.2196,0.1225,0.4662,0.2089,0.7292,0.2089c0.141,0,0.2819-0.0192,0.4229-0.06
	c1.4474-0.4118,2.8596-0.9125,4.2529-1.4672c-1.6209,1.5596-3.3936,2.9956-5.4401,4.1878c-0.1084,0.0648-0.122,0.1837-0.2033,0.2677
	c-0.1138,0.1153-0.225,0.2269-0.2819,0.3674c-0.0569,0.1441-0.0488,0.2978-0.0434,0.455c0.0054,0.108-0.0678,0.2065-0.0298,0.3145
	c0.0244,0.0673,0.0976,0.1009,0.1328,0.1621c0.0271,0.0432,0,0.0936,0.0298,0.1357c0.065,0.0876,0.1681,0.1345,0.2494,0.2017
	c0.0623,0.048,0.1111,0.1068,0.1816,0.1441c0.2196,0.1225,0.4662,0.2089,0.7292,0.2089c0.141,0,0.2819-0.0192,0.4229-0.06
	c10.5875-3.0184,19.8794-9.9989,25.4957-19.1525c3.8978-6.3561,6.2343-13.8481,7.0963-22.7976
	c1.8486,3.5107,2.9057,7.2662,3.2337,11.0566c-0.2656,2.8983-0.9568,5.769-2.1495,8.5137
	c-0.2548,0.5835,0.0271,1.2391,0.6505,1.5296c0.1707,0.0793,0.3524,0.0432,0.534,0.0564c-0.328,1.125-0.7102,2.2392-1.1845,3.3318
	c-0.2548,0.5835,0.0271,1.2391,0.6505,1.5296c0.6234,0.2905,1.3932,0.1176,1.789-0.3938c6.1395-7.941,8.991-17.57,8.4218-26.7861
	c0.1518-2.202,0.0434-4.3895-0.1897-6.5579c3.5725,5.2396,5.6516,10.9702,6.1124,16.7332c-0.2792,3.3462-1.0571,6.6527-2.4992,9.808
	l-1.1222,2.4565c-0.2386,0.5139-0.0542,1.1022,0.4445,1.4384c0.29,0.1957,0.637,0.2425,0.9785,0.2101
	c-0.1111,0.269-0.1789,0.5463-0.3009,0.8128l-1.1222,2.4565c-0.2386,0.5139-0.0542,1.1022,0.4445,1.4384s1.1818,0.3362,1.6806,0
	c6.9337-4.6848,10.6201-12.4409,10.1105-21.2824c-0.0135-0.2701-0.0868-0.5331-0.1084-0.8032
	c0.1274-1.3435,0.1897-2.7086,0.1084-4.1146c-0.4012-6.9253-3.1226-13.5984-5.7573-20.053l-0.7942-1.957
	c-1.8242-4.5036-3.0304-8.5809-3.3693-13.1541c0.0244-0.4034-0.0081-0.76,0.0298-1.1742
	C288.6075,412.8589,299.935,395.6431,298.4333,376.7739z M6.1459,75.6985v0.0024c-0.1084,0.0216-0.187,0.1225-0.2982,0.1225
	C5.9588,75.8233,6.0374,75.7213,6.1459,75.6985z M213.5759,133.0719l0.0027,0.0024c0.2711,0.2545,0.6397,0.3842,1.0056,0.3842
	c-0.3659,0-0.7346-0.1297-1.0029-0.383l-0.0054-0.0012h0.0027L213.5759,133.0719z"/>
</svg>
