<?xml version="1.0" encoding="utf-8"?>
<!-- Generator: Adobe Illustrator 19.0.0, SVG Export Plug-In . SVG Version: 6.00 Build 0)  -->
<svg version="1.1" id="Layer_1" xmlns="http://www.w3.org/2000/svg" xmlns:xlink="http://www.w3.org/1999/xlink" x="0px" y="0px"
	 viewBox="0 0 577.5 598.5" style="enable-background:new 0 0 577.5 598.5;" xml:space="preserve">
<style type="text/css">
	.st0{fill:#EF7B05;}
	.st1{fill:#FFFFFF;}
</style>
<g id="XMLID_1667_">
	<path id="XMLID_1704_" class="st0" d="M496.9,266.1c0.4-27.2-14.5-36-23.9-49.3c-9.4-13.3-30.4-29.1-39.8-35.6
		c-9.4-6.5-19.5-14.8-19.5-14.8s-15.9-9.6-37.6-13.4c-21.7-3.8-28.2,0.7-48.5,6.9c-2.5,0.8-4.8,1.6-6.8,2.4
		c-12.6-9.2-12.4-10-26.3-14.4c-26-8.2-41.2,4-41.2,4l15.2,1.8c0,0-24.6-2.6-44.9,8.1c-20.3,10.8-27.3,19.5-27.3,19.5
		s29.2-5.2,10.4,0c-18.8,5.3-35.5,13.5-50.6,24.2c-15.2,10.7-31.1,25.9-38.4,41.7c-7.2,15.8,3.6-8.2,18.1-17.1
		c14.5-8.9,26.1-12,26.1-12s-19.8,15.6-36.9,47.4c-10.4,19.4-21.3,45.1-17.8,87.1c5.5,66.9,45.4,91.3,45.4,91.3s-9.2-7.8-13-18.2
		c-3.7-10.4-1.9-23.4-1.6-21.8c0.7,3.2,40.1,49.3,40.1,49.3s-31.6-35.9-19.8-82.4c4.3-16.8,15.9-26.9,20.9-32
		c1.6-1.6,2.8-3.2,4.2-4.8c19.1,19.3,55.2,27.5,55.2,27.5s-23.3-19.9-26.2-34.4c-2.9-14.6-1.6-44.7,18.7-61.8c2.8-2.3,6-4.7,9.4-7.1
		c-9.4,16.7-8.7,32.3,0.2,48.3c4.4,7.9,12.5,14.1,20.2,18.6c20.5,14,51.8,22.9,86.8,22.9c16.9,0,32.8-2.1,47.2-5.8v0
		c0,0,0.1,0,0.1,0c2.4-0.6,4.8-1.3,7.1-2c24.9-6.3,103.3-19.7,65.9,76.9l-0.3,1.4c0,0,0,0,0,0c-5.4,21.6-29.3,35.3-29.3,35.3
		s28-14.5,44-37.3c15.9-22.8,17.9-44,16.4-72.9c-0.3-5.9-0.9-11.1-1.7-16c1.8,1.9,3.6,3.6,5.5,4.9c13,8.8,23.4,8.7,23.4,8.7
		S496,327.7,496.9,266.1z"/>
	<g id="XMLID_1700_">
		<path id="XMLID_516_" class="st1" d="M496.7,328.6l0.4,4.1l0.2,4.1l0,4.1l-0.1,4.1l-0.3,4.1l-0.4,4.1l-0.6,4.1l-0.7,4.1l-0.8,4
			l-1,4l-1.1,4l-1.3,3.9l-1.4,3.9l-1.5,3.8l-1.7,3.8l-1.8,3.7l-1.9,3.7l-2,3.6l-2.1,3.5l-2.3,3.5l-2.4,3.4l-2.5,3.3l-2.6,3.2
			l-2.7,3.1l-2.8,3l-2.9,2.9l-3,2.8l-3.1,2.7l-3.2,2.6l-3.3,2.4l-3.4,2.3l-3.5,2.2l-1.6-2.5c5.7-4.1,10.1-9.6,13.5-15.7
			c1.7-3.1,3.1-6.3,4.2-9.6c1.2-3.3,2-6.7,2.7-10.2c0.7-3.5,1.2-7,1.7-10.6c0.5-3.5,0.8-7.1,1-10.7c0.5-7.1,0.5-14.3,0.2-21.4
			c-0.2-3.5-0.6-7-1.5-10.5c-0.9-3.4-1.8-6.9-4.2-9.3c-1.2-1.2-2.6-2.2-4.1-2.9c-1.6-0.7-3.2-1.2-4.9-1.5c-3.5-0.5-7.1-0.6-10.6-0.2
			c-1.8,0.2-3.5,0.6-5.2,1.1c-1.7,0.5-3.4,1.2-5.1,1.7c-3.5,1-7,1.7-10.6,2.4c-7.1,1.3-14.2,2.4-21.3,3.5c7.1-1.3,14.2-2.6,21.2-4.1
			c3.5-0.7,7-1.5,10.4-2.6c1.7-0.5,3.3-1.3,5.1-1.8c1.7-0.6,3.5-1,5.3-1.3c3.6-0.6,7.3-0.6,11-0.2c1.8,0.3,3.7,0.7,5.4,1.5
			c1.7,0.8,3.3,1.8,4.7,3.2c0.7,0.7,1.3,1.4,1.8,2.3c0.5,0.8,1,1.8,1.3,2.5c0.7,1.8,1.3,3.5,1.8,5.2c1,3.5,1.5,7.2,1.8,10.8
			c0.6,7.2,0.6,14.5,0.2,21.7c-0.2,3.6-0.5,7.2-0.9,10.8c-0.4,3.6-1,7.2-1.7,10.8c-0.7,3.6-1.6,7.2-2.8,10.6
			c-1.2,3.5-2.6,6.9-4.4,10.1c-3.5,6.5-8.3,12.4-14.4,16.7l-1.6-2.5l3.4-2.1l3.3-2.2l3.3-2.4l3.2-2.5l3.1-2.6l3-2.7l2.9-2.8l2.8-2.9
			l2.7-3l2.6-3.1l2.5-3.2l2.4-3.3l2.3-3.3l2.2-3.4l2.1-3.5l2-3.5l1.8-3.6l1.7-3.7l1.6-3.7l1.5-3.8l1.3-3.8l1.2-3.9l1.1-3.9l1-3.9
			l0.8-4l0.7-4l0.6-4l0.4-4.1l0.3-4.1l0.1-4.1l0-4.1L496.7,328.6z"/>
	</g>
	<g id="XMLID_1682_">
		<path id="XMLID_494_" class="st1" d="M162.3,390.6l-1,1.7l-0.9,1.7l-0.9,1.7l-0.8,1.8l-0.7,1.8l-0.7,1.8l-0.6,1.8l-0.5,1.8
			c-0.3,1.2-0.6,2.5-0.9,3.7l-0.3,1.9l-0.3,1.9c-0.2,1.3-0.3,2.5-0.4,3.8c-0.1,1.3-0.1,2.5-0.1,3.8c0,1.3,0.1,2.5,0.2,3.8
			c0.1,1.3,0.2,2.5,0.4,3.8c0.2,1.3,0.4,2.5,0.7,3.7l0.5,1.8l0.5,1.8l0.6,1.8l0.7,1.8l0.8,1.7l0.8,1.7l0.9,1.7l1,1.6l1,1.6l1.1,1.5
			l0,0c0.3,0.4,0.2,1.1-0.2,1.4c-0.4,0.3-1,0.2-1.4-0.2c-2.5-3.3-5-6.5-7.4-9.9c-2.4-3.4-4.7-6.8-6.7-10.4c-2.1-3.6-4-7.2-5.7-11
			c-0.8-1.9-1.6-3.8-2.3-5.7c-0.7-1.9-1.3-3.9-1.8-5.9c1.4,3.9,3,7.6,5,11.2c1,1.8,1.9,3.6,3,5.4c1,1.8,2.1,3.5,3.2,5.2
			c2.2,3.4,4.5,6.8,6.9,10.1c2.4,3.3,5,6.5,7.5,9.8l-1.6,1.2l-1.2-1.6l-1.1-1.7l-1-1.7l-0.9-1.8l-0.9-1.8l-0.8-1.8l-0.7-1.9
			l-0.6-1.9c-0.4-1.3-0.7-2.5-1-3.8c-0.3-1.3-0.5-2.6-0.7-3.9c-0.2-1.3-0.3-2.6-0.4-3.9c-0.1-1.3-0.1-2.6-0.1-3.9
			c0-1.3,0.1-2.6,0.2-3.9c0.1-1.3,0.3-2.6,0.5-3.9c0.2-1.3,0.5-2.6,0.8-3.8c0.3-1.3,0.7-2.5,1.1-3.8c0.4-1.2,0.9-2.5,1.4-3.7
			l0.8-1.8l0.9-1.8l0.9-1.7l1-1.7l1.1-1.6L162.3,390.6z"/>
	</g>
	<g id="XMLID_1670_">
		<path id="XMLID_492_" class="st1" d="M208.8,351.3c0,0-0.2,0-0.5-0.1c-0.3,0-0.7-0.1-1.3-0.2c-0.6-0.1-1.2-0.2-2-0.4
			c-0.8-0.2-1.6-0.4-2.5-0.8c-0.9-0.3-1.9-0.7-2.9-1.2c-1-0.5-2-1.1-3-1.7c-1-0.7-2-1.4-3-2.3c-1-0.8-1.9-1.8-2.7-2.7
			c-0.8-1-1.6-2-2.3-3.1c-0.7-1.1-1.3-2.2-1.9-3.2c-1.1-2.2-1.8-4.3-2.2-6.2c-0.2-0.9-0.4-1.8-0.5-2.6c-0.1-0.8-0.1-1.4-0.2-2
			c0-0.6,0-1,0-1.3c0-0.3,0-0.5,0-0.5s0.1,0.6,0.4,1.7c0.1,0.5,0.3,1.2,0.5,1.9c0.2,0.7,0.5,1.5,0.8,2.4c0.3,0.9,0.7,1.8,1.1,2.8
			c0.4,1,1,1.9,1.5,3c0.6,1,1.2,2,1.9,3c0.7,1,1.4,1.9,2.3,2.9c0.8,0.9,1.7,1.8,2.5,2.6c0.9,0.8,1.8,1.6,2.7,2.3
			c0.9,0.7,1.8,1.3,2.7,1.9c0.9,0.6,1.8,1.1,2.6,1.5c0.8,0.4,1.6,0.8,2.3,1.1c0.7,0.3,1.3,0.6,1.8,0.8
			C208.2,351.1,208.8,351.3,208.8,351.3z"/>
	</g>
</g>
</svg>
