<?xml version="1.0" encoding="utf-8"?>
<!-- Generator: Adobe Illustrator 19.0.0, SVG Export Plug-In . SVG Version: 6.00 Build 0)  -->
<svg version="1.1" id="Layer_1" xmlns="http://www.w3.org/2000/svg" xmlns:xlink="http://www.w3.org/1999/xlink" x="0px" y="0px"
	 viewBox="0 0 357.4 347.3" style="enable-background:new 0 0 357.4 347.3;" xml:space="preserve">
<style type="text/css">
	.st0{fill:#EF7B05;}
	.st1{fill:#FFFFFF;}
</style>
<g id="XMLID_453_">
	<path id="XMLID_1095_" class="st0" d="M34.3,273.9c-9.7-15.4-11.7-37.8-13.7-55.5c-2.8-24-12-48.5-9.4-73.3
		C16,99.4,39.4,46.2,89.1,34c10-2.5,18.9,1.6,28.2,2.1c10.8,0.6,15.5-4.6,26.2-9.1c9.6-4,20.7-6.7,31.1-6.9c8.9-0.2,17.1,3,26.1,3.4
		c20.4,0.8,43.5,0.1,61.7,10.6c17.3,10,29.5,26.8,39.4,43.4c4.9,8.2,7.1,14.3,14.5,20.5c6.9,5.8,14.2,11.7,17.4,20.3
		c6.5,17.8,11.5,37.4,11.5,56.4c0,19,1.6,38.5-3.9,57.2c-4.8,16.4-15,30.4-19.8,46.1c-2.4,7.8-2.7,14-9,20.9
		c-5.6,6.2-11,10.8-12.9,16.9c17.2-53.8-1-91-29.1-137.1c0-0.8,0.1-0.8,0.1,0c-5.4,13.7,5.7,28.3,11.1,40.7
		c-13.5-8.8-14.1-24.1-24-32.6c-4.1,10.2-11,24-21.9,28c7.8-19.4,13.5-34.8,11.5-56.4c-1.6-17-9.2-37-30.2-36.2
		c-9.9,0.4-16.9,5-27,3.6c-9.1-1.2-17.3-5.1-26.2-7.3c-16.1-4-42.7-3.9-57.3,5.9c-13.3,8.9-13,27-17.4,40.7
		c-5.7,17.5-17.5,30.6-24.4,47.5c-7.3,17.9-2.7,32.4-4.6,50.9c-1.5,14.8,1.6,37.8-3.5,51.5c5.1-13.9-13.9-29.2-21-39.2
		C35.2,275.3,34.7,274.6,34.3,273.9z"/>
	<path id="XMLID_1094_" class="st0" d="M242,137.5c-2.4-20.8-21.3-44.7-40-54.3c-28.9-14.8-67.1-11.6-97.8-3
		c-19.7,5.5-34,15.7-43.6,33c-4.3,7.8-4.8,14.7-6.8,23.2c-3.3,14.1-10.9,27.3-16.4,40.6c-1.6,3.9-3.2,7.8-4.6,11.8
		c-0.6,1.8-1.2,3.6-1.8,5.3c0,0.1-0.1,0.2-0.1,0.3c-0.3,0.9-0.5,1.8-0.8,2.7c-2,7.1-3.5,14.3-4.5,21.6c-0.4,3.1-2,5.7-4.2,7.7
		c1.9,16.1,4.6,34.4,12.8,47.6c0.4,0.7,0.9,1.4,1.4,2.1c7,10,26.1,25.3,21,39.2c5.1-13.7,2-36.8,3.5-51.5c1.9-18.4-2.7-33,4.6-50.9
		c6.9-16.9,18.7-30,24.4-47.5c4.5-13.7,4.2-31.8,17.4-40.7c14.6-9.8,41.2-9.9,57.3-5.9c9,2.2,17.2,6,26.2,7.3
		c11.5,1.6,22.1-5.6,33.7-3.2C233.5,124.8,234.6,132.5,242,137.5z"/>
	<g id="XMLID_455_">
		<g id="XMLID_1092_">
			<path id="XMLID_1093_" class="st1" d="M247.2,192.3c0,0,0.2-1.9,0.5-5.2c0.2-1.7,0.3-3.7,0.5-6c0.2-2.3,0.4-4.9,0.5-7.8
				c0.1-1.4,0.2-2.9,0.3-4.4c0.1-1.5,0.1-3.1,0.2-4.8c0-1.6,0.1-3.3,0.1-5c0-1.7,0-3.5-0.1-5.2c-0.2-7.1-0.7-14.7-2.3-22.2l-0.5-2.8
				c-0.2-0.9-0.5-1.8-0.7-2.8l-0.3-1.4l-0.4-1.4c-0.3-0.9-0.5-1.8-0.8-2.7c-0.6-1.8-1.2-3.5-1.9-5.2c-0.4-0.8-0.7-1.7-1-2.5
				c-0.4-0.8-0.8-1.6-1.1-2.5c-3-6.5-6.8-12-10.5-16.4c-3.7-4.4-7.4-7.5-10.2-9.5c-2.7-2-4.5-3-4.6-3.1c-0.1,0-0.5-0.3-1.3-0.8
				c-0.8-0.4-2-1.1-3.4-1.8c-3-1.5-7.4-3.2-12.9-4.5c-5.5-1.2-12.2-1.9-19.2-1.5c-3.5,0.2-7.2,0.6-10.9,1.2
				c-1.8,0.3-3.7,0.7-5.5,1.1c-0.9,0.2-1.8,0.4-2.7,0.7l-2.7,0.8c-1.8,0.5-3.6,1.2-5.3,1.8c-0.9,0.3-1.7,0.7-2.6,1.1
				c-0.8,0.4-1.7,0.7-2.5,1.1c-1.6,0.9-3.3,1.6-4.8,2.6c-0.8,0.5-1.5,0.9-2.3,1.4c-0.7,0.5-1.5,1-2.2,1.5c-0.4,0.3-0.7,0.5-1.1,0.8
				c-0.4,0.2-0.7,0.5-1,0.8c-0.7,0.5-1.3,1.1-2,1.6c-1.3,1.1-2.5,2.2-3.7,3.3c-1.1,1.2-2.2,2.3-3.2,3.4c-1,1.2-1.9,2.3-2.8,3.4
				c-3.4,4.4-5.6,8.5-7.2,11.4c-1.4,2.9-2.2,4.6-2.2,4.6s0.8-1.7,2.1-4.6c1.5-2.9,3.6-7,7-11.5c0.8-1.1,1.8-2.3,2.7-3.4
				c1-1.2,2.1-2.3,3.1-3.5c1.2-1.1,2.3-2.3,3.6-3.4c0.7-0.5,1.3-1.1,2-1.7c0.3-0.3,0.7-0.6,1-0.8c0.4-0.3,0.7-0.5,1.1-0.8
				c0.7-0.5,1.4-1.1,2.2-1.6c0.8-0.5,1.5-1,2.3-1.5c1.5-1,3.2-1.8,4.8-2.8c0.8-0.5,1.7-0.8,2.6-1.2c0.9-0.4,1.7-0.8,2.6-1.2
				c1.8-0.7,3.5-1.4,5.4-2l2.7-0.9c0.9-0.2,1.9-0.5,2.8-0.7c1.8-0.5,3.7-0.9,5.6-1.3c3.7-0.8,7.4-1.2,11-1.5
				c7.2-0.5,14.1,0,19.8,1.2c5.8,1.2,10.4,2.9,13.5,4.4c1.6,0.8,2.8,1.4,3.6,1.9c0.8,0.5,1.3,0.8,1.4,0.8c0.1,0.1,2,1.1,4.8,3.3
				c2.8,2.2,6.6,5.5,10.4,10.1c3.7,4.6,7.5,10.4,10.5,17.1c0.4,0.8,0.7,1.7,1.1,2.5c0.4,0.8,0.7,1.7,1,2.6c0.7,1.7,1.2,3.5,1.8,5.4
				c0.3,0.9,0.5,1.8,0.8,2.8l0.4,1.4l0.3,1.4c0.2,0.9,0.4,1.9,0.6,2.8l0.5,2.8c1.4,7.6,1.8,15.2,1.9,22.4c0,1.8,0,3.5-0.1,5.3
				c0,1.7-0.1,3.4-0.2,5c-0.1,1.6-0.1,3.2-0.3,4.8c-0.1,1.5-0.2,3-0.3,4.4c-0.2,2.8-0.5,5.5-0.7,7.8c-0.2,2.3-0.4,4.3-0.6,6
				C247.4,190.4,247.2,192.3,247.2,192.3z"/>
		</g>
		<g id="XMLID_1090_">
			<path id="XMLID_1091_" class="st1" d="M268.4,199.2c0,0-0.5-0.6-1.4-1.6c-0.4-0.5-0.9-1.2-1.4-2c-0.3-0.4-0.5-0.8-0.7-1.3
				c-0.3-0.5-0.5-0.9-0.8-1.4c-1-2-1.9-4.6-2.5-7.3c-0.6-2.8-1-5.8-1.3-8.8c-0.5-6-0.5-12.1-1-16.6c-0.1-1.1-0.2-2.2-0.3-3.1
				c0-0.5-0.1-0.9-0.1-1.3c-0.1-0.4-0.1-0.8-0.2-1.1c-0.2-1.3-0.3-2.1-0.4-2.1c0-0.1-0.1-0.8-0.2-2.1c-0.1-0.6-0.1-1.4-0.3-2.3
				c-0.2-0.9-0.3-1.9-0.5-3c-0.2-1.1-0.4-2.2-0.6-3.5c-0.3-1.2-0.6-2.5-0.9-3.8c-0.2-0.7-0.3-1.3-0.5-2c-0.1-0.3-0.2-0.7-0.3-1
				c-0.1-0.3-0.2-0.7-0.3-1c-0.4-1.4-0.9-2.8-1.3-4.1c-0.2-0.7-0.4-1.4-0.7-2.1c-0.3-0.7-0.5-1.4-0.8-2c-0.5-1.3-1-2.7-1.5-3.9
				c-1.1-2.5-2.2-4.8-3.1-6.8c-2.1-3.9-3.5-6.4-3.5-6.4s1.5,2.5,3.9,6.2c1,1.9,2.3,4.2,3.5,6.7c0.6,1.3,1.2,2.6,1.8,3.9
				c0.3,0.7,0.6,1.3,0.9,2c0.3,0.7,0.5,1.4,0.8,2.1c0.5,1.4,1,2.8,1.6,4.1c0.1,0.3,0.3,0.7,0.4,1c0.1,0.3,0.2,0.7,0.3,1
				c0.2,0.7,0.4,1.4,0.6,2c0.4,1.3,0.8,2.6,1.2,3.8c0.3,1.2,0.6,2.4,0.8,3.5c0.3,1.1,0.5,2.1,0.7,3c0.2,0.9,0.3,1.7,0.4,2.3
				c0.2,1.3,0.3,2.1,0.3,2.1c0,0.1,0.1,0.9,0.2,2.2c0,0.3,0.1,0.7,0.1,1.1c0,0.4,0,0.8,0.1,1.3c0,0.9,0.1,2,0.1,3.1
				c0.3,4.6-0.1,10.6,0.1,16.6c0.1,3,0.3,6,0.8,8.7c0.5,2.7,1.2,5.3,2.1,7.3c0.2,0.5,0.4,1,0.7,1.5c0.2,0.5,0.4,0.9,0.7,1.3
				c0.5,0.8,0.9,1.5,1.3,2C268,198.6,268.4,199.2,268.4,199.2z"/>
		</g>
		<g id="XMLID_1088_">
			<path id="XMLID_1089_" class="st1" d="M36.4,188.4c0,0-0.1-0.8-0.2-2.1c-0.1-0.7-0.1-1.5-0.2-2.4c0-0.5-0.1-1-0.1-1.5
				c0-0.5,0-1.1,0-1.7c-0.1-2.3,0.1-5,0.3-7.9c0.3-2.9,0.8-6,1.5-9c0.7-3,1.6-6,2.6-8.8c0.5-1.4,1-2.7,1.6-3.9
				c0.3-0.6,0.5-1.2,0.8-1.8c0.3-0.6,0.6-1.1,0.8-1.7c0.5-1.1,1.1-2,1.5-2.9c0.5-0.9,0.9-1.6,1.3-2.2c0.7-1.2,1.2-1.9,1.2-2
				c0,0,0.5-0.7,1.4-1.8c0.9-1.1,2.1-2.6,3.7-4.3c3.1-3.5,7.7-7.6,12.8-11.1c2.5-1.8,5.2-3.3,7.7-4.7c1.3-0.6,2.5-1.3,3.7-1.8
				c0.6-0.3,1.2-0.5,1.8-0.8c0.6-0.2,1.1-0.5,1.7-0.7c1.1-0.4,2.1-0.8,2.9-1.1c0.9-0.3,1.7-0.6,2.3-0.8c1.3-0.4,2-0.6,2-0.6
				s-0.7,0.3-2,0.7c-0.6,0.2-1.4,0.5-2.2,0.9c-0.9,0.3-1.8,0.7-2.9,1.2c-0.5,0.2-1.1,0.5-1.6,0.7c-0.5,0.3-1.1,0.6-1.7,0.9
				c-1.2,0.6-2.4,1.3-3.6,2c-2.4,1.5-5,3.1-7.4,5c-4.8,3.7-9.1,8-11.9,11.5c-1.4,1.7-2.5,3.3-3.3,4.3c-0.7,1.1-1.2,1.8-1.2,1.8
				c0,0-0.5,0.7-1.3,1.8c-0.4,0.6-0.9,1.2-1.4,2.1c-0.5,0.8-1.1,1.7-1.6,2.7c-0.3,0.5-0.6,1-0.9,1.6c-0.3,0.6-0.6,1.1-0.9,1.7
				c-0.6,1.2-1.2,2.5-1.8,3.8c-1.1,2.7-2.2,5.5-3,8.5c-0.8,3-1.5,5.9-1.9,8.8c-0.4,2.8-0.7,5.5-0.7,7.8c0,0.6,0,1.1-0.1,1.7
				c0,0.5,0,1,0,1.5c0,0.9,0,1.8,0.1,2.4C36.4,187.7,36.4,188.4,36.4,188.4z"/>
		</g>
		<g id="XMLID_1086_">
			<path id="XMLID_1087_" class="st1" d="M48.4,211.9c0,0,0.1-2.8,0.3-7c0.1-2.1,0.4-4.5,0.6-7.1c0.3-2.6,0.7-5.4,1.1-8.2
				c0.5-2.8,1-5.5,1.6-8.1c0.6-2.6,1.2-5,1.7-7.1c1.2-4.1,2-6.9,2.1-7c0-0.1,1.1-2.7,2.7-6.5c1.8-3.8,4-8.8,6.9-13.5
				c1.5-2.4,3.1-4.6,4.8-6.5c1.7-2,3.5-3.6,5.2-4.8c1.7-1.2,3.3-2,4.4-2.5c1.1-0.4,1.8-0.7,1.8-0.7s-0.6,0.3-1.7,0.8
				c-1.1,0.6-2.6,1.4-4.2,2.7c-1.6,1.3-3.3,3-4.8,5c-1.6,2-3,4.3-4.3,6.7c-2.6,4.7-4.5,9.9-6,13.7c-1.3,3.9-2.3,6.5-2.3,6.6
				c0,0.1-1,2.8-2.4,6.7c-0.6,2-1.3,4.4-2.1,6.9c-0.7,2.5-1.3,5.2-2,8c-0.5,2.7-1.1,5.5-1.5,8c-0.4,2.6-0.8,5-1,7.1
				C48.7,209.1,48.4,211.9,48.4,211.9z"/>
		</g>
		<g id="XMLID_1084_">
			<path id="XMLID_1085_" class="st1" d="M59.4,248c0,0-0.1-1.9-0.2-4.7c-0.2-2.8-0.2-6.6-0.3-10.4c0.1-3.8,0.1-7.6,0.3-10.5
				c0.1-1.4,0.1-2.7,0.2-3.5c0-0.9,0.1-1.4,0.1-1.4c0-0.1,0.3-1.9,0.8-4.7c0.1-0.7,0.2-1.4,0.4-2.2c0.2-0.8,0.3-1.6,0.5-2.5
				c0.3-1.7,0.7-3.5,1.1-5.3c0.9-3.6,1.7-7.2,2.4-9.9c0.7-2.7,1.2-4.4,1.2-4.4s-0.3,1.8-0.8,4.5c-0.5,2.7-1,6.4-1.6,10
				c-0.2,1.8-0.4,3.7-0.6,5.4c-0.1,0.9-0.2,1.7-0.3,2.5c-0.1,0.8-0.1,1.5-0.2,2.2c-0.2,2.8-0.4,4.6-0.4,4.7c0,0-0.1,0.5-0.2,1.4
				c-0.1,0.8-0.3,2-0.5,3.4c-0.4,2.8-0.8,6.6-1.1,10.4c-0.2,3.8-0.6,7.6-0.6,10.4C59.4,246.1,59.4,248,59.4,248z"/>
		</g>
		<g id="XMLID_1080_">
			<path id="XMLID_1083_" class="st1" d="M38.8,144.5c0,0-0.1-0.6-0.3-1.6c-0.1-0.5-0.2-1.1-0.2-1.8c0-0.4-0.1-0.7-0.1-1.1
				c0-0.4,0-0.8,0-1.3c-0.1-1.8,0.1-3.8,0.4-6c0.3-2.2,0.9-4.5,1.7-6.8c0.8-2.3,1.9-4.4,3-6.4c0.6-1,1.2-1.9,1.8-2.7
				c0.3-0.4,0.6-0.8,0.9-1.2c0.3-0.4,0.6-0.8,0.9-1.1c0.6-0.7,1.2-1.3,1.7-1.9c0.5-0.6,1-1,1.4-1.4c0.4-0.4,0.7-0.7,1-0.9
				c0.2-0.2,0.4-0.3,0.4-0.3c0,0,0.6-0.4,1.4-1c0.9-0.6,2.2-1.4,3.9-2.2c3.2-1.6,7.9-3.1,12.6-3.7c2.4-0.3,4.8-0.3,7-0.2
				c1.1,0.1,2.2,0.2,3.2,0.3c0.5,0.1,1,0.2,1.5,0.2c0.5,0.1,0.9,0.2,1.3,0.3c0.9,0.2,1.6,0.4,2.3,0.6c0.3,0.1,0.7,0.2,1,0.3
				c0.3,0.1,0.6,0.2,0.8,0.3c1,0.3,1.5,0.5,1.5,0.5s-0.6-0.2-1.5-0.4c-0.2-0.1-0.5-0.1-0.8-0.2c-0.3-0.1-0.6-0.1-1-0.2
				c-0.7-0.2-1.5-0.3-2.3-0.4c-0.4-0.1-0.9-0.1-1.3-0.2c-0.5,0-1-0.1-1.4-0.1c-1-0.1-2-0.1-3.1-0.1c-2.2,0-4.5,0.2-6.7,0.6
				c-4.5,0.8-8.8,2.5-11.8,4.3c-1.5,0.8-2.6,1.7-3.5,2.3c-0.8,0.6-1.3,1-1.3,1c0,0-0.1,0.1-0.4,0.3c-0.2,0.2-0.5,0.4-1,0.8
				c-0.4,0.3-0.9,0.7-1.4,1.2c-0.5,0.5-1.1,1-1.7,1.7c-0.3,0.3-0.6,0.6-0.9,1c-0.3,0.4-0.6,0.7-0.9,1.1c-0.7,0.7-1.2,1.6-1.9,2.5
				c-1.2,1.8-2.4,3.8-3.3,6c-0.9,2.1-1.6,4.3-2.1,6.5c-0.4,2.1-0.7,4.2-0.8,5.9c0,0.4,0,0.9-0.1,1.3c0,0.4,0,0.8,0,1.1
				c0,0.7,0,1.3,0.1,1.8C38.8,144,38.8,144.5,38.8,144.5z"/>
		</g>
		<g id="XMLID_1075_">
			<path id="XMLID_1076_" class="st1" d="M31.9,139.8c0,0,0-0.7-0.1-1.9c0-0.6,0-1.3,0-2.2c0-0.8,0-1.8,0.1-2.9
				c0.1-2.1,0.3-4.5,0.7-7.1c0.4-2.6,1-5.4,1.7-8.1c0.8-2.7,1.8-5.4,2.9-7.8c0.6-1.2,1.1-2.4,1.8-3.5c0.3-0.5,0.6-1.1,0.9-1.6
				c0.3-0.5,0.6-1,0.9-1.4c0.6-0.9,1.2-1.7,1.7-2.5c0.5-0.7,1-1.3,1.4-1.8c0.4-0.5,0.7-0.9,1-1.2c0.2-0.3,0.4-0.4,0.4-0.4
				c0,0,0.6-0.6,1.5-1.4c1-0.8,2.3-2,4.1-3.2c3.5-2.5,8.7-5,14.2-6.4c2.8-0.7,5.6-1,8.2-1.1c0.7,0,1.3,0,1.9,0c0.3,0,0.6,0,0.9,0
				c0.3,0,0.6,0.1,0.9,0.1c0.6,0.1,1.2,0.1,1.7,0.2c0.6,0.1,1.1,0.2,1.6,0.3c0.5,0.1,1,0.2,1.5,0.3c0.5,0.1,0.9,0.3,1.3,0.4
				c0.4,0.1,0.8,0.2,1.1,0.3c0.3,0.1,0.7,0.2,0.9,0.4c1.1,0.4,1.8,0.7,1.8,0.7s-0.7-0.2-1.8-0.6c-0.3-0.1-0.6-0.2-1-0.3
				c-0.4-0.1-0.7-0.2-1.2-0.3c-0.4-0.1-0.8-0.2-1.3-0.3c-0.5-0.1-1-0.1-1.5-0.2c-0.5-0.1-1-0.1-1.6-0.2c-0.6,0-1.1,0-1.7-0.1
				c-0.3,0-0.6,0-0.9,0c-0.3,0-0.6,0-0.9,0c-0.6,0-1.3,0.1-1.9,0.1c-2.6,0.2-5.3,0.7-7.9,1.5c-5.2,1.6-10,4.3-13.2,6.9
				c-1.6,1.2-2.8,2.4-3.7,3.2c-0.8,0.9-1.3,1.4-1.3,1.4c0,0-0.2,0.1-0.4,0.4c-0.2,0.3-0.6,0.6-1,1.1c-0.4,0.5-0.9,1-1.5,1.7
				c-0.5,0.7-1.2,1.4-1.8,2.2c-0.3,0.4-0.6,0.9-1,1.3c-0.3,0.5-0.6,1-0.9,1.5c-0.7,1-1.2,2.1-1.9,3.2c-1.2,2.3-2.3,4.8-3.2,7.5
				c-0.9,2.6-1.6,5.3-2.2,7.8c-0.5,2.5-0.9,4.9-1.1,7c-0.1,1-0.2,2-0.2,2.8c-0.1,0.8-0.1,1.6-0.1,2.2
				C32,139.1,31.9,139.8,31.9,139.8z"/>
		</g>
		<g id="XMLID_1073_">
			<path id="XMLID_1074_" class="st1" d="M40.8,98.1c0,0,0.8-1.2,1.9-2.9c0.3-0.4,0.6-0.9,0.9-1.4c0.3-0.5,0.7-1,1.1-1.5
				c0.8-1,1.7-2.1,2.5-3.3c1.9-2.1,3.8-4.2,5.4-5.6c0.8-0.7,1.5-1.4,1.9-1.8c0.5-0.4,0.8-0.7,0.8-0.7c0,0,1.2-0.8,3-1.9
				c0.4-0.3,0.9-0.6,1.4-0.9c0.5-0.3,1.1-0.6,1.7-0.9c1.2-0.6,2.4-1.3,3.6-1.9c2.6-1.1,5-2.2,7-2.8c2-0.7,3.3-1.1,3.3-1.1
				s-1.2,0.6-3.1,1.5c-1.9,0.8-4.2,2.2-6.6,3.6c-1.1,0.7-2.2,1.5-3.3,2.2c-0.5,0.4-1,0.7-1.5,1c-0.5,0.4-0.9,0.7-1.3,1
				C58.1,82,57,82.9,57,82.9c0,0-0.3,0.2-0.8,0.6c-0.5,0.4-1.2,0.9-2,1.5c-1.7,1.2-3.8,3.1-5.9,4.9c-1,1-1.9,2-2.9,2.9
				c-0.4,0.5-0.9,0.9-1.3,1.4c-0.4,0.5-0.7,0.9-1.1,1.3C41.7,97.1,40.8,98.1,40.8,98.1z"/>
		</g>
		<g id="XMLID_1071_">
			<path id="XMLID_1072_" class="st1" d="M47.1,88.8c0,0-0.1-0.8-0.4-2.2c-0.1-0.4-0.1-0.7-0.2-1.2c0-0.4-0.1-0.9-0.1-1.4
				c0-0.5-0.1-1-0.1-1.6c0-0.6,0-1.2,0-1.8c-0.1-2.5,0.2-5.3,0.7-8.4c0.6-3,1.6-6.2,2.9-9.3c1.3-3.1,3-6,4.8-8.6
				c1-1.2,1.9-2.5,2.9-3.6c0.5-0.5,1-1.1,1.4-1.6c0.5-0.5,1-0.9,1.5-1.4c0.9-0.9,1.9-1.6,2.7-2.3c0.8-0.7,1.6-1.2,2.2-1.6
				c0.6-0.4,1.1-0.8,1.5-1c0.4-0.2,0.6-0.3,0.6-0.4c0.1,0,0.8-0.4,2.2-1.1c1.4-0.6,3.3-1.5,5.8-2.2c4.8-1.6,11.6-2.5,18.2-1.9
				c3.3,0.2,6.6,0.9,9.5,1.8c1.5,0.5,2.9,0.9,4.2,1.5c0.7,0.3,1.3,0.5,1.9,0.8c0.6,0.3,1.2,0.6,1.7,0.9c0.5,0.3,1.1,0.5,1.6,0.8
				c0.5,0.3,0.9,0.6,1.4,0.8c0.4,0.3,0.8,0.5,1.2,0.7c0.4,0.2,0.7,0.5,1,0.7c1.1,0.8,1.8,1.3,1.8,1.3s-0.7-0.4-1.9-1.2
				c-0.3-0.2-0.6-0.4-1-0.6c-0.4-0.2-0.8-0.4-1.2-0.7c-0.4-0.2-0.9-0.5-1.4-0.7c-0.5-0.3-1-0.5-1.6-0.7c-0.6-0.2-1.1-0.5-1.7-0.8
				c-0.6-0.2-1.3-0.4-1.9-0.7c-1.3-0.5-2.7-0.8-4.2-1.2c-3-0.7-6.2-1.2-9.4-1.3c-6.5-0.2-12.9,1-17.4,2.7c-2.3,0.8-4.1,1.7-5.3,2.3
				c-1.2,0.7-1.9,1.1-2,1.2c0,0-0.2,0.1-0.6,0.3c-0.4,0.2-0.8,0.5-1.5,0.9c-0.6,0.4-1.4,0.8-2.2,1.4c-0.8,0.6-1.7,1.2-2.6,2.1
				c-0.5,0.4-0.9,0.8-1.4,1.3c-0.5,0.5-0.9,1-1.4,1.4c-1,1-1.9,2.1-2.9,3.3c-1.9,2.4-3.6,5.2-5.1,8.1c-1.4,2.9-2.5,6-3.2,9
				c-0.7,3-1.1,5.8-1.1,8.2c0,0.6,0,1.2-0.1,1.8c0,0.6,0,1.1,0.1,1.6c0,0.5,0,1,0.1,1.4c0,0.4,0.1,0.8,0.1,1.2
				C47,88,47.1,88.8,47.1,88.8z"/>
		</g>
		<g id="XMLID_1069_">
			<path id="XMLID_1070_" class="st1" d="M52.9,82.1c0,0,0.1-0.4,0.3-1.1c0.1-0.4,0.2-0.8,0.3-1.3c0.1-0.2,0.1-0.5,0.2-0.8
				c0.1-0.3,0.2-0.6,0.3-0.8c0.2-0.6,0.5-1.2,0.7-1.9c0.2-0.7,0.6-1.4,0.9-2.1c0.6-1.5,1.6-2.9,2.4-4.4c1.9-2.8,4.2-5.4,6.2-7.2
				c0.5-0.5,1-0.8,1.4-1.2c0.4-0.3,0.8-0.6,1.1-0.9c0.6-0.5,1-0.8,1-0.8c0,0,0.4-0.2,1.1-0.6c0.7-0.4,1.6-0.9,2.8-1.4
				c0.6-0.2,1.2-0.5,1.9-0.8c0.7-0.2,1.4-0.5,2.2-0.7c0.4-0.1,0.8-0.2,1.2-0.4c0.4-0.1,0.8-0.2,1.2-0.3c0.8-0.2,1.6-0.4,2.5-0.5
				c0.8-0.1,1.7-0.2,2.5-0.3l0.6-0.1l0.6,0c0.4,0,0.8,0,1.2-0.1c1.6-0.1,3,0,4.3,0c0.6,0,1.2,0.1,1.7,0.2c0.5,0.1,0.9,0.1,1.3,0.2
				c0.7,0.1,1.1,0.1,1.1,0.1s-0.4,0-1.1,0c-0.4,0-0.8,0-1.3,0c-0.5,0-1.1,0-1.7,0c-1.2,0.1-2.7,0.1-4.2,0.4
				c-0.4,0.1-0.8,0.1-1.2,0.2L84,55.7l-0.6,0.1c-0.8,0.2-1.6,0.4-2.4,0.6c-0.8,0.2-1.6,0.5-2.3,0.7c-0.4,0.1-0.8,0.2-1.1,0.4
				c-0.4,0.2-0.7,0.3-1.1,0.5c-0.7,0.3-1.4,0.6-2,0.9c-0.6,0.3-1.2,0.6-1.7,0.9c-1.1,0.5-1.9,1.1-2.5,1.5c-0.6,0.4-1,0.6-1,0.6
				c0,0-0.4,0.2-1,0.6c-0.3,0.2-0.7,0.4-1.1,0.7c-0.4,0.3-0.9,0.6-1.4,1c-2,1.5-4.5,3.7-6.6,6.3c-1,1.3-2,2.6-2.8,4
				c-0.4,0.7-0.8,1.3-1.1,1.9c-0.3,0.6-0.6,1.3-0.9,1.8c-0.1,0.3-0.3,0.6-0.4,0.8c-0.1,0.3-0.2,0.5-0.3,0.8
				c-0.2,0.5-0.3,0.9-0.5,1.2C53,81.8,52.9,82.1,52.9,82.1z"/>
		</g>
		<g id="XMLID_1067_">
			<path id="XMLID_1068_" class="st1" d="M16.7,174.3c0,0-0.1-0.1-0.4-0.3c-0.3-0.2-0.7-0.5-1.1-1c-0.9-0.9-1.9-2.5-2.7-4.5
				c-0.8-2-1.4-4.5-1.6-7.3c-0.1-1.4-0.1-2.8,0.1-4.2c0.1-1.4,0.4-2.9,0.7-4.3c1.2-5.8,4.1-11.1,6.4-14.9c1.1-1.9,2.1-3.5,2.8-4.6
				c0.7-1.1,1-1.8,1.1-1.8c0,0,0.4-0.7,1.1-1.7c0.3-0.5,0.7-1.2,1.1-1.9c0.2-0.4,0.4-0.8,0.7-1.2c0.1-0.2,0.2-0.4,0.4-0.6
				c0.1-0.2,0.2-0.5,0.3-0.7c2-3.7,4-8.9,5.6-14.3c1.7-5.3,3.2-10.7,4.3-14.8c1.2-4,1.9-6.7,1.9-6.7s-0.6,2.7-1.5,6.8
				c-0.9,4.1-2.1,9.5-3.5,15c-1.3,5.5-3.1,10.9-4.9,14.8c-0.1,0.2-0.2,0.5-0.3,0.7c-0.1,0.2-0.2,0.5-0.3,0.7
				c-0.2,0.4-0.4,0.9-0.6,1.3c-0.4,0.8-0.8,1.5-1.1,2c-0.6,1.1-1,1.8-1.1,1.8c0,0-0.5,0.7-1.2,1.8c-0.7,1.1-1.8,2.6-3,4.4
				c-2.5,3.6-5.5,8.5-7,14c-0.4,1.4-0.7,2.8-0.9,4.1c-0.2,1.4-0.3,2.7-0.3,4.1c0,2.7,0.5,5.1,1.1,7.2c0.7,2,1.6,3.6,2.4,4.6
				c0.4,0.5,0.8,0.8,1,1C16.5,174.2,16.7,174.3,16.7,174.3z"/>
		</g>
		<g id="XMLID_1065_">
			<path id="XMLID_1066_" class="st1" d="M24.4,197.9c0,0-0.3-0.4-0.8-1.2c-0.3-0.4-0.5-0.8-0.8-1.4c-0.3-0.5-0.6-1.2-0.9-1.9
				c-1.3-2.8-2.5-6.7-3-10.8c-0.3-2-0.4-4.1-0.5-6c0-1.9,0-3.7,0.1-5.3c0.1-1.6,0.3-2.9,0.4-3.8c0.1-0.9,0.2-1.5,0.2-1.5
				c0,0,0.1-0.6,0.4-1.4c0.3-0.9,0.5-2.1,1-3.5c0.9-2.9,2.4-6.6,4.1-10.2c1.7-3.6,3.6-7.1,5-9.6c1.5-2.6,2.4-4.3,2.4-4.3
				s-0.8,1.8-2.1,4.5c-1.2,2.7-2.8,6.3-4.2,9.9c-1.4,3.7-2.5,7.4-3.2,10.3c-0.4,1.4-0.5,2.6-0.7,3.5c-0.2,0.9-0.3,1.4-0.3,1.4
				c0,0-0.1,0.5-0.3,1.4c-0.2,0.9-0.4,2.1-0.6,3.6c-0.2,1.5-0.4,3.2-0.5,5.1c-0.1,1.9-0.1,3.9,0,5.9c0.2,4,1,7.9,2.1,10.8
				c0.3,0.7,0.5,1.4,0.8,1.9c0.3,0.6,0.5,1.1,0.7,1.4C24.1,197.4,24.4,197.9,24.4,197.9z"/>
		</g>
		<g id="XMLID_1063_">
			<path id="XMLID_1064_" class="st1" d="M18.6,219.9c0,0,0.3-0.4,0.7-1.1c0.2-0.3,0.5-0.8,0.8-1.3c0.3-0.5,0.7-1,1-1.7
				c1.5-2.4,3.3-5.8,4.8-9.3c1.5-3.5,2.6-7.1,3.4-9.9c0.4-1.4,0.6-2.5,0.8-3.4c0.2-0.8,0.3-1.3,0.3-1.3c0,0,0.1-0.5,0.3-1.3
				c0.2-0.8,0.5-1.9,0.8-3.3c0.1-0.7,0.3-1.4,0.5-2.2c0.1-0.8,0.3-1.6,0.4-2.4c0.1-0.4,0.1-0.9,0.2-1.3c0-0.4,0.1-0.9,0.2-1.3
				c0.1-0.9,0.2-1.8,0.3-2.7c0.3-3.7,0.3-7.3,0.1-10.1c0-1.4-0.2-2.5-0.3-3.3c-0.1-0.8-0.1-1.3-0.1-1.3s0.1,0.5,0.2,1.2
				c0.1,0.8,0.4,1.9,0.6,3.3c0.4,2.7,0.7,6.4,0.8,10.2c0,0.9,0,1.9-0.1,2.8c0,0.5,0,0.9,0,1.4c0,0.5-0.1,0.9-0.1,1.3
				c-0.1,0.9-0.1,1.7-0.2,2.5c-0.1,0.8-0.2,1.6-0.3,2.3c-0.2,1.4-0.4,2.6-0.5,3.4c-0.2,0.8-0.2,1.3-0.2,1.4c0,0-0.1,0.5-0.4,1.4
				c-0.3,0.8-0.6,2-1.1,3.4c-1,2.8-2.5,6.3-4.3,9.8c-1.8,3.4-3.9,6.7-5.6,9c-0.4,0.6-0.8,1.1-1.2,1.6c-0.4,0.5-0.7,0.9-0.9,1.2
				C18.9,219.6,18.6,219.9,18.6,219.9z"/>
		</g>
		<g id="XMLID_1061_">
			<path id="XMLID_1062_" class="st1" d="M46.1,284.9c0,0-0.6-1.8-1.4-4.5c-0.2-0.7-0.5-1.4-0.7-2.2c-0.3-0.8-0.4-1.6-0.7-2.5
				c-0.4-1.7-0.9-3.5-1.4-5.4c-0.7-3.7-1.5-7.4-1.8-10.3c-0.2-1.4-0.4-2.6-0.5-3.5c-0.1-0.8-0.2-1.3-0.2-1.4c0-0.1,0-1.9,0-4.7
				c0-0.7,0-1.4,0-2.2c0.1-0.8,0.1-1.6,0.2-2.5c0.1-1.7,0.2-3.6,0.4-5.4c0.5-3.6,0.8-7.3,1.4-10c0.5-2.7,0.8-4.5,0.8-4.5
				s-0.2,1.8-0.4,4.5c-0.3,2.7-0.4,6.3-0.5,10c0,1.8,0.1,3.6,0.1,5.3c0,0.9,0,1.7,0.1,2.5c0.1,0.8,0.1,1.5,0.2,2.2
				c0.2,2.7,0.4,4.6,0.4,4.6c0,0,0,0.5,0,1.4c0,0.8,0.1,2,0.2,3.4c0.1,2.8,0.6,6.5,1,10.3c0.3,1.8,0.6,3.7,0.9,5.4
				c0.2,0.9,0.3,1.7,0.5,2.5c0.2,0.8,0.4,1.5,0.5,2.2C45.7,283.1,46.1,284.9,46.1,284.9z"/>
		</g>
		<g id="XMLID_1059_">
			<path id="XMLID_1060_" class="st1" d="M49.4,279.1c0,0,0.2-0.5,0.4-1.3c0.1-0.4,0.3-0.9,0.5-1.5c0.1-0.3,0.2-0.6,0.3-0.9
				c0.1-0.3,0.2-0.7,0.3-1c0.8-2.8,1.6-6.6,2.1-10.4c0.4-3.8,0.6-7.7,0.5-10.6c0-1.4-0.1-2.7-0.2-3.5c0-0.9-0.1-1.4-0.1-1.4
				c0,0,0-0.5,0-1.4c0-0.8,0-2-0.2-3.4c-0.1-0.7-0.1-1.5-0.2-2.3c-0.1-0.8-0.2-1.6-0.3-2.5c-0.1-0.4-0.1-0.9-0.2-1.3
				c-0.1-0.4-0.2-0.9-0.3-1.3c-0.2-0.9-0.3-1.8-0.5-2.7c-0.8-3.7-1.9-7.2-3-9.9c-0.2-0.7-0.5-1.3-0.7-1.8c-0.2-0.5-0.4-1-0.6-1.4
				c-0.3-0.8-0.5-1.2-0.5-1.2s0.2,0.4,0.6,1.1c0.2,0.4,0.4,0.8,0.7,1.3c0.3,0.5,0.6,1.1,0.9,1.7c1.2,2.6,2.7,6.1,3.8,9.7
				c0.3,0.9,0.5,1.8,0.8,2.7c0.1,0.5,0.2,0.9,0.4,1.3c0.1,0.4,0.2,0.9,0.3,1.3c0.2,0.9,0.4,1.7,0.6,2.5c0.1,0.8,0.3,1.6,0.4,2.3
				c0.3,1.4,0.4,2.6,0.5,3.5c0.1,0.9,0.2,1.4,0.2,1.4c0,0,0,0.6,0,1.4c0,0.9,0,2.1-0.1,3.6c-0.2,3-0.6,6.9-1.4,10.7
				c-0.8,3.8-1.9,7.6-3,10.3c-0.1,0.3-0.2,0.7-0.4,1c-0.1,0.3-0.3,0.6-0.4,0.9c-0.2,0.5-0.4,1-0.6,1.4
				C49.6,278.6,49.4,279.1,49.4,279.1z"/>
		</g>
		<g id="XMLID_1057_">
			<path id="XMLID_1058_" class="st1" d="M63.9,184.7c0,0-0.1-0.8-0.1-2.1c-0.1-1.3-0.1-2.9,0-4.6c0.2-1.7,0.2-3.4,0.5-4.7
				c0.1-0.6,0.2-1.2,0.3-1.6c0.1-0.4,0.1-0.6,0.1-0.6c0,0,0.4-0.8,0.9-2c0.1-0.3,0.3-0.6,0.4-0.9c0.2-0.3,0.4-0.7,0.5-1
				c0.4-0.7,0.8-1.4,1.2-2.1c0.9-1.4,1.8-2.8,2.6-3.8c0.7-1,1.2-1.6,1.2-1.6s-0.4,0.7-0.9,1.8c-0.6,1.1-1.1,2.6-1.7,4.1
				c-0.3,0.8-0.5,1.5-0.7,2.3c-0.1,0.4-0.2,0.7-0.3,1c-0.1,0.3-0.2,0.7-0.2,0.9c-0.3,1.2-0.5,2-0.5,2c0,0-0.1,0.2-0.2,0.6
				c-0.1,0.3-0.3,0.8-0.5,1.4c-0.5,1.2-0.9,2.7-1.3,4.3c-0.3,1.6-0.7,3.2-0.8,4.5C64,183.9,63.9,184.7,63.9,184.7z"/>
		</g>
		<g id="XMLID_1055_">
			<path id="XMLID_1056_" class="st1" d="M268.5,111.2c0,0-4.7-4.1-11.7-10.4c-3.5-3.1-7.6-6.7-12.1-10.6
				c-4.4-3.9-9.2-7.9-14.3-11.6c-1.3-0.9-2.6-1.8-3.9-2.7c-1.3-0.8-2.6-1.7-4-2.5c-1.4-0.7-2.7-1.5-4-2.2c-0.7-0.3-1.4-0.7-2-1
				c-0.7-0.3-1.3-0.6-2-0.9c-5.4-2.4-10.7-4-15.3-5.1c-2.3-0.5-4.5-1-6.4-1.3c-1-0.2-1.9-0.3-2.7-0.4c-0.8-0.1-1.6-0.2-2.3-0.3
				c-0.7-0.1-1.3-0.2-1.9-0.2c-0.6,0-1-0.1-1.4-0.1c-0.8-0.1-1.2-0.1-1.3-0.1c-0.1,0-1.7-0.2-4.5-0.3c-2.7-0.2-6.6-0.2-11.2,0
				c-4.6,0.3-10,1-15.6,2.3c-5.6,1.3-11.4,3.3-16.8,6c-5.4,2.7-10.5,6.2-14.5,10.2c-4.1,3.9-7.2,8.2-9.4,12.2
				c-0.3,0.5-0.6,1-0.8,1.4c-0.2,0.5-0.4,1-0.7,1.4c-0.4,0.9-0.9,1.8-1.2,2.7c-0.6,1.7-1.2,3.2-1.6,4.5c-0.7,2.5-1.1,4-1.1,4
				s0.4-1.5,1-4c0.3-1.3,0.9-2.8,1.5-4.5c0.3-0.9,0.7-1.7,1.1-2.7c0.2-0.5,0.4-1,0.6-1.5c0.2-0.5,0.5-1,0.8-1.5
				c2.1-4,5.1-8.5,9.1-12.6c4-4.1,9-7.8,14.5-10.7c5.5-2.9,11.3-5.1,17-6.6c5.7-1.5,11.1-2.3,15.8-2.7c4.7-0.4,8.7-0.4,11.5-0.3
				c2.8,0.1,4.5,0.2,4.6,0.2c0.1,0,0.5,0,1.3,0.1c0.4,0,0.9,0.1,1.4,0.1c0.6,0.1,1.2,0.2,1.9,0.3c0.7,0.1,1.5,0.2,2.4,0.3
				c0.9,0.1,1.8,0.3,2.7,0.5c2,0.3,4.1,0.9,6.5,1.4c4.7,1.2,10.1,3,15.5,5.6c0.7,0.3,1.4,0.6,2,1c0.7,0.3,1.4,0.7,2,1.1
				c1.4,0.7,2.7,1.6,4.1,2.3c1.3,0.8,2.6,1.7,4,2.6c1.3,0.9,2.6,1.8,3.8,2.8c5,3.8,9.8,8,14.1,12c4.3,4,8.3,7.7,11.8,10.9
				C263.9,107,268.5,111.2,268.5,111.2z"/>
		</g>
		<g id="XMLID_1053_">
			<path id="XMLID_1054_" class="st1" d="M311.3,123.5c0,0-0.6,0.2-1.7,0.5c-0.5,0.2-1.2,0.3-2,0.4c-0.4,0.1-0.8,0.2-1.2,0.2
				c-0.4,0-0.9,0.1-1.4,0.1c-0.2,0-0.5,0-0.7,0c-0.3,0-0.5,0-0.8,0c-0.5,0-1.1,0-1.6-0.1c-1.1-0.2-2.3-0.3-3.5-0.6
				c-1.2-0.2-2.4-0.7-3.6-1.1c-1.2-0.5-2.4-1-3.6-1.6c-4.7-2.3-8.8-5.6-11.7-8.1c-3-2.5-5-4.2-5-4.2c-0.3-0.2-28.7-27.4-28.7-27.4
				s30.2,25.4,30.4,25.6c0.1,0.1,1.9,1.8,4.7,4.5c2.8,2.6,6.5,6,10.9,8.6c1.1,0.7,2.2,1.2,3.3,1.7c1.2,0.4,2.3,0.9,3.4,1.2
				c1.1,0.4,2.3,0.5,3.3,0.8c0.5,0.1,1.1,0.1,1.6,0.2c0.3,0,0.5,0.1,0.8,0.1c0.2,0,0.5,0,0.7,0c0.5,0,0.9,0,1.4,0
				c0.4,0,0.8-0.1,1.2-0.1c0.8-0.1,1.5-0.1,2-0.3C310.7,123.7,311.3,123.5,311.3,123.5z"/>
		</g>
		<g id="XMLID_1051_">
			<path id="XMLID_1052_" class="st1" d="M213.7,55.2c0,0-0.9-0.5-2.5-1.5c-0.8-0.5-1.8-1-3-1.6c-1.2-0.6-2.5-1.2-4-1.8
				c-3-1.3-6.5-2.5-10.4-3.6c-3.9-1-8.1-1.9-12.4-2.3c-8.5-0.9-17.2-0.2-23.4,1.1c-0.8,0.2-1.5,0.3-2.3,0.5c-0.7,0.2-1.4,0.4-2,0.5
				c-1.3,0.4-2.4,0.7-3.3,0.9c-1.8,0.6-2.8,1-2.9,1c0,0-0.3,0.1-0.8,0.3c-0.5,0.2-1.2,0.4-2,0.7c-0.9,0.3-1.9,0.8-3.1,1.2
				c-0.6,0.2-1.2,0.5-1.8,0.9c-0.6,0.3-1.3,0.6-2,1c-0.3,0.2-0.7,0.3-1.1,0.5c-0.3,0.2-0.7,0.4-1.1,0.6c-0.7,0.4-1.5,0.9-2.2,1.3
				c-0.8,0.4-1.5,1-2.3,1.5c-0.8,0.5-1.5,1.1-2.3,1.6c-0.8,0.6-1.5,1.2-2.3,1.9c-0.8,0.6-1.6,1.2-2.3,2c-0.7,0.7-1.5,1.4-2.2,2.1
				c-0.4,0.3-0.7,0.7-1.1,1.1l-1,1.1c-2.8,3-5.2,6.3-7.4,9.5c-1,1.6-2,3.2-2.9,4.7c-0.8,1.5-1.6,3-2.3,4.4c-0.7,1.4-1.3,2.6-1.8,3.8
				c-0.5,1.1-0.9,2.1-1.3,3c-0.7,1.6-1.1,2.6-1.1,2.6s0.4-1,1-2.6c0.3-0.8,0.7-1.9,1.2-3c0.5-1.1,1-2.4,1.6-3.8
				c0.7-1.4,1.4-2.9,2.2-4.5c0.8-1.6,1.8-3.2,2.7-4.9c2.1-3.3,4.3-6.7,7.1-9.9l1-1.2c0.3-0.4,0.7-0.8,1-1.2c0.7-0.7,1.4-1.5,2.2-2.2
				c0.7-0.8,1.5-1.4,2.2-2.1c0.8-0.7,1.5-1.4,2.3-2c0.8-0.6,1.6-1.2,2.3-1.8c0.8-0.6,1.5-1.2,2.3-1.6c0.8-0.5,1.5-1,2.2-1.5
				c0.4-0.2,0.7-0.5,1.1-0.7c0.4-0.2,0.7-0.4,1.1-0.6c0.7-0.4,1.4-0.8,2-1.1c0.6-0.3,1.2-0.7,1.9-1c1.2-0.5,2.3-1,3.1-1.4
				c0.9-0.4,1.6-0.7,2.1-0.8c0.5-0.2,0.8-0.3,0.8-0.3c0.1,0,1.2-0.4,3.1-1c1-0.2,2.1-0.5,3.4-0.8c0.7-0.1,1.4-0.3,2.1-0.5
				c0.7-0.1,1.5-0.3,2.3-0.4c6.5-1.2,15.4-1.5,24-0.3c4.3,0.6,8.6,1.6,12.4,2.8c3.9,1.2,7.4,2.6,10.3,4c1.4,0.7,2.8,1.4,3.9,2
				c1.1,0.6,2.1,1.2,2.9,1.7C212.8,54.6,213.7,55.2,213.7,55.2z"/>
		</g>
		<g id="XMLID_1040_">
			<path id="XMLID_1041_" class="st1" d="M241.6,46c0,0-1-1-2.7-2.7c-0.9-0.8-2-1.8-3.3-2.9c-0.6-0.5-1.4-1.1-2.1-1.7
				c-0.7-0.6-1.5-1.2-2.4-1.8c-3.4-2.5-7.5-5-12.2-7.3c-4.7-2.3-9.9-4.2-15.4-5.7c-5.4-1.4-11-2.3-16.2-2.6
				c-5.2-0.3-10.1-0.1-14.3,0.4c-4.2,0.5-7.6,1.2-10.1,1.8c-2.4,0.6-3.8,1-3.9,1c-0.1,0-1.5,0.4-3.8,1.1c-2.3,0.7-5.5,1.9-9.2,3.5
				c-3.7,1.7-7.9,3.9-12,6.8c-4.2,2.9-8.3,6.3-12,10.1c-3.7,3.8-7.1,8-9.8,12.2c-2.7,4.2-4.8,8.4-6.4,12c-1.6,3.7-2.6,6.8-3.3,9
				c-0.6,2.2-1,3.5-1,3.5s0.3-1.3,0.9-3.5c0.7-2.2,1.6-5.4,3.1-9.1c1.5-3.7,3.5-8,6.1-12.3c2.6-4.3,5.8-8.7,9.5-12.7
				c3.6-4,7.8-7.6,11.9-10.7c4.2-3,8.4-5.5,12.1-7.3c3.8-1.8,7-3.1,9.4-3.9c2.4-0.8,3.8-1.2,3.9-1.2c0.1,0,1.6-0.4,4.1-1
				c2.5-0.5,6.1-1.1,10.4-1.5c4.3-0.4,9.3-0.5,14.7,0c5.3,0.5,11,1.5,16.4,3.1c5.4,1.6,10.7,3.7,15.4,6.2c4.7,2.4,8.8,5.1,12.1,7.7
				c0.9,0.6,1.6,1.3,2.3,1.9c0.7,0.6,1.4,1.2,2.1,1.7c1.2,1.2,2.3,2.1,3.2,3C240.6,45,241.6,46,241.6,46z"/>
		</g>
		<g id="XMLID_1037_">
			<path id="XMLID_1039_" class="st1" d="M292.5,95.5c0,0,0.1-0.8,0.2-2.2c0.1-0.7,0.1-1.5,0.1-2.5c0-0.5,0-1,0-1.6
				c0-0.5,0-1.1-0.1-1.7c0-2.4-0.4-5.2-0.9-8.1c-0.5-2.9-1.3-6-2.4-9.1c-1-3-2.4-5.9-3.7-8.6c-0.7-1.3-1.4-2.6-2.2-3.7
				c-0.4-0.6-0.7-1.2-1.1-1.7c-0.4-0.5-0.7-1-1.1-1.5c-0.7-1-1.4-1.8-2-2.6c-0.6-0.8-1.2-1.4-1.7-1.9c-0.5-0.5-0.9-1-1.1-1.3
				c-0.3-0.3-0.4-0.4-0.5-0.5c0,0-0.6-0.6-1.5-1.7c-1-1-2.4-2.4-4.1-3.9c-3.5-3.1-8.8-6.7-14.5-9.4c-2.9-1.4-5.9-2.4-8.7-3.3
				c-1.4-0.4-2.8-0.8-4.2-1.1c-0.7-0.1-1.3-0.3-1.9-0.4c-0.6-0.1-1.2-0.2-1.8-0.3c-1.2-0.2-2.3-0.3-3.2-0.4
				c-0.5-0.1-0.9-0.1-1.4-0.2c-0.4,0-0.8-0.1-1.2-0.1c-1.4-0.1-2.2-0.1-2.2-0.1s0.8,0,2.2,0c0.4,0,0.7,0,1.2,0
				c0.4,0,0.9,0.1,1.4,0.1c1,0.1,2.1,0.1,3.3,0.3c0.6,0.1,1.2,0.1,1.9,0.2c0.6,0.1,1.3,0.2,2,0.3c1.4,0.2,2.8,0.6,4.3,0.9
				c2.9,0.8,6,1.7,9,2.9c6,2.4,11.6,5.9,15.4,8.9c1.9,1.5,3.4,2.9,4.5,3.9c1,1,1.6,1.6,1.7,1.7c0,0,0.2,0.2,0.5,0.5
				c0.3,0.3,0.6,0.8,1.1,1.4c0.5,0.6,1.1,1.3,1.6,2.1c0.6,0.8,1.3,1.7,1.9,2.8c0.3,0.5,0.7,1.1,1.1,1.6c0.3,0.6,0.7,1.2,1,1.8
				c0.7,1.2,1.4,2.6,2.1,4c1.3,2.8,2.5,5.9,3.4,9c0.9,3.1,1.6,6.3,1.9,9.3c0.3,3,0.5,5.8,0.5,8.2c0,0.6,0,1.2,0,1.7
				c0,0.5-0.1,1.1-0.1,1.6c-0.1,1-0.1,1.8-0.2,2.5C292.6,94.7,292.5,95.5,292.5,95.5z"/>
		</g>
		<g id="XMLID_1034_">
			<path id="XMLID_1035_" class="st1" d="M320.5,128.2c0,0-0.1-0.8-0.3-2.1c-0.3-1.3-0.6-3.2-1.5-5.3c-0.8-2.1-2.1-4.5-3.7-6.8
				c-1.6-2.3-3.7-4.6-5.9-6.7c-4.5-4.2-9.8-7.4-13.9-9.6c-1-0.5-2-1-2.8-1.5c-0.9-0.4-1.6-0.8-2.2-1.1c-1.3-0.6-2-1-2-1
				c-0.1-0.1-2.8-1.5-6.8-3.7c-4-2.2-9.4-5.2-14.3-8.9c-2.4-1.8-4.7-3.8-6.7-5.9c-2-2-3.6-4.1-4.9-6c-1.3-1.9-2.1-3.5-2.7-4.7
				c-0.5-1.2-0.8-1.9-0.8-1.9s0.3,0.7,0.9,1.8c0.6,1.1,1.5,2.8,2.9,4.5c1.3,1.8,3.1,3.7,5.1,5.6c2.1,1.9,4.4,3.7,6.9,5.4
				c5,3.4,10.4,6,14.5,8c4.1,2,6.9,3.3,7,3.4c0,0,0.8,0.4,2,1.1c0.6,0.3,1.4,0.8,2.2,1.2c0.8,0.5,1.8,1.1,2.8,1.7
				c4,2.5,9.4,6,13.7,10.5c2.2,2.2,4.1,4.7,5.7,7.2c1.5,2.5,2.7,4.9,3.4,7.1c0.8,2.2,1,4.1,1.2,5.4
				C320.5,127.5,320.5,128.2,320.5,128.2z"/>
		</g>
		<g id="XMLID_1032_">
			<path id="XMLID_1033_" class="st1" d="M326.7,195.2c0,0,0.1-0.5,0.4-1.4c0.1-0.4,0.3-1,0.4-1.6c0.1-0.3,0.2-0.6,0.3-1
				c0.1-0.4,0.2-0.7,0.2-1.1c0.7-3.1,1.4-7.3,1.7-11.5c0.3-4.2,0.2-8.4-0.1-11.6c-0.1-1.6-0.3-2.9-0.4-3.8c-0.1-0.9-0.2-1.5-0.2-1.5
				c0,0-0.1-0.6-0.1-1.5c-0.1-0.9-0.2-2.2-0.4-3.7c-0.1-0.8-0.2-1.6-0.3-2.5c-0.2-0.9-0.3-1.8-0.5-2.7c-0.1-0.5-0.2-1-0.3-1.4
				c-0.1-0.5-0.2-1-0.4-1.5c-0.3-1-0.5-2-0.8-3c-0.6-2-1.2-3.9-1.9-5.7c-0.6-1.8-1.4-3.5-2-4.9c-0.3-0.7-0.6-1.3-0.9-1.9
				c-0.3-0.6-0.5-1.1-0.7-1.5c-0.4-0.8-0.6-1.3-0.6-1.3s0.3,0.4,0.7,1.2c0.2,0.4,0.5,0.9,0.8,1.4c0.3,0.5,0.7,1.2,1,1.8
				c0.7,1.4,1.6,3,2.4,4.8c0.9,1.8,1.6,3.7,2.4,5.6c0.4,1,0.7,2,1,2.9c0.2,0.5,0.3,1,0.5,1.5c0.1,0.5,0.3,1,0.4,1.4
				c0.3,0.9,0.5,1.9,0.8,2.7c0.2,0.9,0.4,1.7,0.5,2.5c0.4,1.5,0.6,2.9,0.7,3.8c0.2,0.9,0.2,1.5,0.2,1.5c0,0,0.1,0.6,0.1,1.6
				c0,1,0.1,2.3,0.1,4c0,3.3-0.2,7.6-0.8,11.8c-0.7,4.2-1.6,8.4-2.6,11.4c-0.1,0.4-0.2,0.7-0.3,1.1c-0.1,0.3-0.2,0.7-0.3,1
				c-0.2,0.6-0.4,1.1-0.6,1.6C326.9,194.7,326.7,195.2,326.7,195.2z"/>
		</g>
		<g id="XMLID_1030_">
			<path id="XMLID_1031_" class="st1" d="M308.8,200.5c0,0,0-0.5,0-1.4c0-0.4,0-1,0-1.6c0-0.3,0-0.6,0-1c0-0.3,0-0.7,0-1.1
				c0-3-0.4-7-1.1-11c-0.8-3.9-1.9-7.8-2.9-10.6c-0.5-1.4-1-2.6-1.3-3.4c-0.3-0.8-0.5-1.3-0.6-1.3c0,0-0.2-0.5-0.5-1.3
				c-0.3-0.8-0.7-2-1.3-3.3c-0.3-0.7-0.6-1.4-0.9-2.2c-0.4-0.8-0.8-1.5-1.2-2.4c-0.2-0.4-0.4-0.8-0.6-1.2c-0.2-0.4-0.5-0.8-0.7-1.2
				c-0.5-0.8-1-1.7-1.5-2.5c-1.1-1.6-2.1-3.3-3.3-4.8c-1.1-1.5-2.2-2.8-3.1-3.9c-0.5-0.6-0.9-1.1-1.3-1.5c-0.4-0.4-0.8-0.8-1.1-1.1
				c-0.6-0.6-0.9-1-0.9-1s0.4,0.3,1,0.9c0.3,0.3,0.7,0.6,1.2,1.1c0.5,0.4,1,0.9,1.5,1.4c1,1.1,2.3,2.3,3.5,3.7
				c1.3,1.4,2.5,3,3.7,4.6c0.6,0.8,1.1,1.6,1.7,2.4c0.3,0.4,0.6,0.8,0.8,1.2c0.3,0.4,0.5,0.8,0.7,1.2c0.5,0.8,1,1.6,1.4,2.3
				c0.4,0.8,0.8,1.5,1.2,2.1c0.7,1.3,1.3,2.5,1.6,3.3c0.4,0.8,0.6,1.3,0.6,1.3c0,0,0.2,0.5,0.5,1.4c0.3,0.9,0.7,2.1,1.1,3.6
				c0.8,3,1.6,7,2.1,11.1c0.4,4.1,0.5,8.1,0.3,11.1c0,0.4,0,0.7,0,1.1c0,0.3-0.1,0.7-0.1,1c-0.1,0.6-0.1,1.1-0.2,1.6
				C308.8,200,308.8,200.5,308.8,200.5z"/>
		</g>
		<g id="XMLID_1027_">
			<path id="XMLID_1029_" class="st1" d="M317.3,216.1c0,0-0.6-0.5-1.6-1.3c-0.5-0.4-1.1-0.9-1.8-1.4c-0.4-0.3-0.7-0.6-1.1-0.9
				c-0.4-0.3-0.8-0.7-1.2-1c-0.8-0.7-1.8-1.5-2.7-2.4c-1-0.8-1.9-1.8-2.9-2.8c-2.1-1.9-4-4.1-6.1-6.3c-3.9-4.5-7.5-9.3-10-13
				c-0.7-0.9-1.2-1.8-1.7-2.6c-0.5-0.8-0.9-1.5-1.3-2c-0.7-1.1-1.1-1.8-1.1-1.9c0,0-0.4-0.7-0.9-1.9c-0.6-1.2-1.4-2.8-2.2-4.8
				c-0.4-1-0.9-2.1-1.4-3.2c-0.4-1.2-0.9-2.4-1.3-3.7c-0.2-0.6-0.5-1.3-0.7-1.9c-0.2-0.7-0.4-1.3-0.6-2c-0.4-1.4-0.9-2.7-1.2-4.1
				c-0.3-1.4-0.7-2.8-1-4.1c-0.1-0.3-0.2-0.7-0.3-1c-0.1-0.3-0.1-0.7-0.2-1c-0.1-0.7-0.3-1.3-0.4-2c-0.6-2.6-0.9-5.1-1.2-7.2
				c-0.2-1.1-0.3-2-0.3-2.9c-0.1-0.9-0.1-1.6-0.2-2.2c-0.1-1.2-0.2-1.9-0.2-1.9s0.1,0.7,0.3,1.9c0.1,0.6,0.2,1.4,0.3,2.2
				c0.1,0.9,0.3,1.8,0.5,2.9c0.4,2.1,0.9,4.5,1.6,7.1c0.2,0.6,0.3,1.3,0.5,2c0.1,0.3,0.2,0.7,0.3,1c0.1,0.3,0.2,0.7,0.3,1
				c0.4,1.3,0.8,2.7,1.3,4c0.4,1.3,1,2.7,1.4,4c0.2,0.7,0.5,1.3,0.7,1.9c0.3,0.6,0.5,1.3,0.8,1.9c0.5,1.2,1,2.4,1.5,3.5
				c0.5,1.1,1,2.1,1.5,3.1c0.9,1.9,1.8,3.5,2.4,4.6c0.6,1.1,1,1.8,1,1.8c0,0,0.4,0.7,1,1.9c0.3,0.6,0.7,1.3,1.1,2.1
				c0.4,0.8,0.9,1.7,1.5,2.6c2.2,3.8,5.5,8.7,9.2,13.3c1.9,2.3,3.7,4.6,5.7,6.5c1,1,1.8,2,2.7,2.9c0.9,0.9,1.8,1.7,2.6,2.5
				c0.4,0.4,0.8,0.8,1.1,1.1c0.4,0.3,0.7,0.6,1.1,0.9c0.7,0.6,1.3,1.1,1.8,1.5C316.7,215.6,317.3,216.1,317.3,216.1z"/>
		</g>
		<g id="XMLID_1025_">
			<path id="XMLID_1026_" class="st1" d="M320.8,234.5c0,0,0.2-0.6,0.4-1.8c0.1-0.6,0.3-1.2,0.5-2c0.1-0.4,0.2-0.8,0.3-1.2
				c0.1-0.4,0.2-0.9,0.3-1.4c0.2-1,0.4-2,0.6-3.1c0.2-1.1,0.3-2.3,0.5-3.5c0.4-2.4,0.5-5.1,0.7-7.7c0.2-5.2-0.1-10.5-0.5-14.4
				c-0.1-1-0.2-1.9-0.3-2.7c-0.1-0.8-0.2-1.5-0.3-2.1c-0.2-1.2-0.3-1.8-0.3-1.9c0,0-0.1-0.7-0.3-1.8c-0.2-1.1-0.3-2.7-0.8-4.6
				c-0.2-0.9-0.4-2-0.6-3c-0.3-1.1-0.6-2.2-0.8-3.3c-0.1-0.6-0.3-1.2-0.4-1.8c-0.2-0.6-0.4-1.2-0.6-1.8c-0.4-1.2-0.7-2.4-1.2-3.6
				c-0.5-1.2-0.9-2.4-1.3-3.6c-0.1-0.3-0.2-0.6-0.3-0.9c-0.1-0.3-0.3-0.6-0.4-0.8c-0.2-0.6-0.5-1.1-0.7-1.7c-0.9-2.2-2-4.2-2.9-5.9
				c-0.4-0.9-0.9-1.6-1.3-2.3c-0.4-0.7-0.7-1.3-1-1.7c-0.6-1-0.9-1.5-0.9-1.5s0.4,0.5,1,1.5c0.3,0.5,0.7,1,1.1,1.7
				c0.4,0.6,0.9,1.4,1.4,2.2c1,1.7,2.2,3.6,3.3,5.7c0.3,0.5,0.6,1.1,0.9,1.6c0.1,0.3,0.3,0.6,0.4,0.8c0.1,0.3,0.3,0.6,0.4,0.9
				c0.5,1.2,1.1,2.3,1.6,3.5c0.5,1.2,0.9,2.4,1.4,3.6c0.2,0.6,0.5,1.2,0.7,1.8c0.2,0.6,0.4,1.2,0.6,1.8c0.4,1.2,0.7,2.3,1.1,3.3
				c0.3,1.1,0.6,2.1,0.8,3.1c0.5,1.9,0.8,3.5,1.1,4.6c0.2,1.1,0.4,1.8,0.4,1.9c0,0,0.1,0.7,0.2,1.9c0.1,0.6,0.1,1.3,0.2,2.1
				c0.1,0.8,0.2,1.7,0.2,2.8c0.2,4,0.1,9.4-0.4,14.6c-0.4,2.6-0.6,5.3-1.2,7.7c-0.3,1.2-0.4,2.4-0.7,3.5c-0.3,1.1-0.5,2.1-0.8,3.1
				c-0.1,0.5-0.2,0.9-0.4,1.4c-0.1,0.4-0.3,0.8-0.4,1.2c-0.2,0.8-0.5,1.4-0.6,2C321,233.9,320.8,234.5,320.8,234.5z"/>
		</g>
		<g id="XMLID_649_">
			<path id="XMLID_650_" class="st1" d="M318.1,280.6c0,0-0.2-0.7-0.6-2c-0.3-1.3-0.7-3.1-0.9-5.4c-0.2-2.3-0.2-4.9,0.2-7.8
				c0.3-2.8,1-5.8,1.8-8.8c1.7-5.9,4.5-11.4,6.5-15.6c2.1-4.1,3.5-6.9,3.6-7c0.1-0.1,1.6-2.7,3.8-6.6c1-2,2.2-4.3,3.5-6.7
				c1.2-2.5,2.3-5.2,3.1-8c0.9-2.8,1.5-5.6,1.9-8.3c0.4-2.7,0.4-5.3,0.2-7.4c-0.1-2.2-0.5-4-0.8-5.2c-0.4-1.2-0.6-1.9-0.6-1.9
				s0.2,0.7,0.7,1.9c0.3,1.2,0.9,3,1.1,5.2c0.3,2.2,0.4,4.8,0.2,7.5c-0.2,2.8-0.7,5.7-1.4,8.6c-0.7,2.9-1.7,5.7-2.8,8.3
				c-1.1,2.6-2.2,4.9-3.1,7c-2,4-3.4,6.7-3.5,6.8c-0.1,0.1-1.6,2.8-3.9,6.7c-2.2,4-5.2,9.3-7.2,15c-1,2.8-1.8,5.7-2.3,8.5
				c-0.5,2.8-0.6,5.4-0.6,7.6c0,2.3,0.4,4.1,0.6,5.4C318,279.8,318.1,280.6,318.1,280.6z"/>
		</g>
		<g id="XMLID_647_">
			<path id="XMLID_648_" class="st1" d="M317.3,295.8c0,0-0.4-0.4-1.1-1.2c-0.7-0.8-1.6-2-2.5-3.5c-0.9-1.6-1.8-3.5-2.4-5.6
				c-0.7-2.2-1.1-4.5-1.3-6.9c-0.2-2.4-0.3-4.8-0.1-7.1c0.2-2.2,0.3-4.4,0.6-6.1c0.5-3.6,0.9-6,0.9-6.1c0-0.1,0.5-2.4,1.2-5.8
				c0.3-1.7,0.6-3.7,0.9-5.8c0.3-2.1,0.4-4.4,0.3-6.6c-0.1-2.3-0.4-4.5-0.9-6.6c-0.5-2.1-1.2-3.9-1.9-5.5c-0.7-1.6-1.6-2.7-2.2-3.5
				c-0.6-0.8-1-1.2-1-1.2s0.4,0.4,1.1,1.2c0.6,0.8,1.6,1.9,2.5,3.4c0.9,1.5,1.7,3.4,2.4,5.5c0.7,2.1,1.1,4.4,1.4,6.7
				c0.2,2.3,0.3,4.7,0.2,6.9c-0.2,2.2-0.4,4.2-0.5,6c-0.5,3.5-0.8,5.8-0.8,5.9c0,0.1-0.5,2.4-1.3,5.9c-0.6,3.5-1.6,8.1-1.4,12.8
				c0,2.3,0.3,4.7,0.8,6.8c0.5,2.1,1.2,4.1,2,5.7c0.8,1.6,1.7,2.8,2.3,3.6C316.9,295.4,317.3,295.8,317.3,295.8z"/>
		</g>
		<g id="XMLID_645_">
			<path id="XMLID_646_" class="st1" d="M303.9,125.2c0,0,0-0.2,0-0.5c0-0.3,0-0.9-0.1-1.5c-0.2-1.3-0.6-3.1-1.5-5.1
				c-0.9-2-2.4-4.2-4.3-6.2c-0.9-1-2-2-3.1-2.9c-1.1-0.9-2.3-1.8-3.6-2.6c-5.1-3.1-10.8-5.2-15.1-6.9c-2.1-0.8-3.9-1.6-5.2-2.1
				c-1.3-0.6-2-0.9-2.1-0.9c0,0-0.7-0.4-1.9-1.1c-0.6-0.3-1.3-0.7-2.1-1.2c-0.4-0.2-0.8-0.5-1.3-0.7c-0.4-0.3-0.9-0.6-1.3-0.9
				c-0.9-0.6-1.9-1.3-3-2c-0.5-0.3-1.1-0.8-1.6-1.2c-0.5-0.4-1.1-0.8-1.6-1.3c-0.5-0.4-1.1-0.9-1.7-1.3c-0.6-0.4-1.1-0.9-1.6-1.4
				c-1.1-1-2.2-2-3.3-3c-2-2.1-4.1-4.2-5.8-6.3c-0.4-0.5-0.9-1-1.3-1.6c-0.2-0.3-0.4-0.5-0.6-0.8c-0.2-0.3-0.4-0.5-0.6-0.8
				c-0.7-1-1.4-2-2-2.9c-0.3-0.4-0.6-0.9-0.9-1.3c-0.3-0.4-0.5-0.8-0.7-1.2c-0.5-0.8-0.9-1.4-1.2-2c-0.7-1.1-1-1.7-1-1.7
				s0.4,0.6,1.1,1.6c0.4,0.5,0.8,1.2,1.3,1.9c0.2,0.4,0.5,0.8,0.8,1.2c0.3,0.4,0.6,0.8,1,1.2c0.7,0.8,1.4,1.8,2.2,2.7
				c0.2,0.2,0.4,0.5,0.6,0.7c0.2,0.2,0.4,0.5,0.7,0.7c0.4,0.5,0.9,1,1.4,1.5c1.8,2.1,4,4,6.1,6c1.1,0.9,2.3,1.8,3.4,2.7
				c0.6,0.4,1.1,0.9,1.7,1.3c0.6,0.4,1.1,0.8,1.7,1.2c0.6,0.4,1.1,0.8,1.6,1.1c0.5,0.4,1.1,0.8,1.6,1.1c1.1,0.6,2.1,1.2,3,1.8
				c0.5,0.3,0.9,0.5,1.4,0.8c0.4,0.2,0.9,0.4,1.3,0.6c0.8,0.4,1.5,0.7,2.1,1c1.2,0.6,1.8,0.9,1.9,0.9c0,0,0.8,0.4,2,1
				c1.2,0.6,2.9,1.4,5,2.3c4.2,1.9,9.8,4.3,14.9,7.8c1.3,0.9,2.5,1.8,3.6,2.8c1.1,1,2.1,2.1,3,3.2c1.8,2.2,3.2,4.5,4,6.6
				c0.8,2.1,1.2,3.9,1.2,5.2c0.1,0.6,0,1.2,0.1,1.5C303.9,125,303.9,125.2,303.9,125.2z"/>
		</g>
		<g id="XMLID_632_">
			<path id="XMLID_638_" class="st1" d="M319.8,155.4c0,0-0.1-0.5-0.2-1.3c-0.2-0.8-0.4-2-1.1-3.3c-0.6-1.3-1.6-2.7-2.8-3.9
				c-1.2-1.3-2.7-2.5-4.4-3.5c-3.2-2-7-3.2-9.8-4c-1.4-0.4-2.6-0.7-3.5-0.9c-0.9-0.2-1.4-0.4-1.4-0.4c0,0-0.5-0.2-1.3-0.5
				c-0.8-0.3-2-0.7-3.3-1.2c-0.7-0.3-1.4-0.6-2.2-0.9c-0.8-0.4-1.6-0.7-2.4-1.1c-1.6-0.8-3.3-1.9-4.8-3.2c-1.5-1.2-2.8-2.7-3.9-4.1
				c-1-1.5-1.8-3-2.2-4.3c-0.5-1.3-0.5-2.5-0.6-3.3c0-0.8,0-1.3,0-1.3s0,0.5,0.1,1.3c0.1,0.8,0.3,1.9,0.8,3.2c0.5,1.3,1.4,2.7,2.5,4
				c1.1,1.3,2.5,2.6,4,3.6c3,2.2,6.6,3.4,9.3,4.2c1.4,0.4,2.5,0.7,3.4,0.9c0.8,0.2,1.3,0.3,1.3,0.4c0,0,0.5,0.2,1.4,0.5
				c0.8,0.3,2,0.7,3.4,1.2c1.4,0.5,3.1,1.2,4.8,2c1.7,0.8,3.5,1.8,5.1,3c1.6,1.2,3.1,2.6,4.2,4c1.2,1.4,2,2.9,2.6,4.3
				c0.6,1.4,0.7,2.6,0.8,3.4C319.7,154.9,319.8,155.4,319.8,155.4z"/>
		</g>
		<g id="XMLID_630_">
			<path id="XMLID_631_" class="st1" d="M67,68.6c0,0,0.2-0.2,0.5-0.5c0.2-0.2,0.4-0.4,0.6-0.6c0.2-0.2,0.5-0.5,0.8-0.7
				c1.2-1.1,3.1-2.3,5.1-3.4c2-1,4.2-1.7,5.9-2.2c0.8-0.2,1.6-0.3,2.1-0.4c0.5-0.1,0.8-0.1,0.8-0.1c0,0,0.3,0,0.8,0
				c0.5,0,1.2,0,2.1,0.1c0.4,0,0.9,0.1,1.4,0.1c0.5,0.1,1,0.2,1.5,0.3c0.3,0,0.5,0.1,0.8,0.1c0.3,0.1,0.5,0.1,0.8,0.2
				c0.5,0.1,1.1,0.3,1.6,0.4c2.1,0.7,4.1,1.6,5.5,2.4c0.7,0.4,1.2,0.8,1.6,1.1c0.4,0.3,0.6,0.4,0.6,0.4s-0.2-0.1-0.7-0.3
				c-0.4-0.2-1-0.5-1.7-0.8c-1.5-0.6-3.5-1.2-5.6-1.6c-0.5-0.1-1-0.1-1.6-0.2c-0.3,0-0.5-0.1-0.8-0.1c-0.3,0-0.5,0-0.7,0
				c-0.5,0-1,0-1.4,0c-0.4,0-0.9,0-1.3,0.1c-0.8,0-1.4,0.1-1.9,0.2c-0.5,0.1-0.7,0.1-0.7,0.1c0,0-0.3,0-0.8,0c-0.5,0-1.2,0-1.9,0.1
				c-1.6,0.2-3.7,0.6-5.8,1.2c-2,0.7-4,1.6-5.4,2.5c-0.4,0.2-0.7,0.4-0.9,0.6c-0.3,0.2-0.5,0.4-0.7,0.5C67.2,68.4,67,68.6,67,68.6z"
				/>
		</g>
		<g id="XMLID_628_">
			<path id="XMLID_629_" class="st1" d="M18,138.1c0,0-0.1-0.6-0.3-1.7c-0.1-0.5-0.2-1.2-0.3-1.9c0-0.7-0.1-1.6-0.1-2.5
				c-0.1-3.7,0.4-8.6,1.8-13.3c0.3-1.2,0.7-2.4,1.1-3.5c0.4-1.1,0.8-2.3,1.3-3.4c1-2.1,1.8-4.1,2.6-5.8c1.7-3.3,2.8-5.6,2.9-5.6
				c0,0,0.3-0.6,0.9-1.5c0.5-0.9,1.3-2.2,2.2-3.8c0.8-1.6,1.9-3.4,2.9-5.4c0.9-2,1.9-4.2,2.6-6.4c1.5-4.4,2.4-9.1,2.5-12.6
				c0-0.9,0-1.7,0-2.4c0-0.7-0.1-1.3-0.1-1.9c-0.1-1-0.1-1.6-0.1-1.6s0.1,0.6,0.2,1.6c0.1,0.5,0.2,1.1,0.3,1.8
				c0,0.7,0.1,1.5,0.1,2.4c0.1,3.6-0.4,8.3-1.7,13c-0.6,2.3-1.4,4.6-2.2,6.7c-0.9,2.1-1.8,4-2.5,5.6c-0.8,1.6-1.5,3-2,3.9
				c-0.5,1-0.8,1.5-0.8,1.6c0,0.1-1.3,2.2-3.2,5.4c-0.9,1.6-1.9,3.5-3,5.5c-0.5,1-1,2.1-1.5,3.2c-0.4,1.1-0.9,2.2-1.3,3.4
				c-1.6,4.6-2.5,9.4-2.6,13c0,0.9,0,1.7,0,2.5c0,0.7,0.1,1.4,0.1,1.9C18,137.4,18,138.1,18,138.1z"/>
		</g>
		<g id="XMLID_460_">
			<path id="XMLID_467_" class="st1" d="M33.4,255.1c0,0-0.2-0.4-0.6-1.2c-0.4-0.8-1-1.9-1.5-3.3c-0.3-0.7-0.6-1.5-0.9-2.3
				c-0.2-0.8-0.5-1.7-0.7-2.6c-0.3-0.9-0.4-1.9-0.6-2.9c-0.1-0.5-0.2-1-0.3-1.5c-0.1-0.5-0.1-1-0.1-1.5l-0.1-1.5
				c0-0.5-0.1-1-0.1-1.5c0-1,0-2,0-3c0.1-1,0.2-1.9,0.3-2.8c0.1-0.4,0.1-0.9,0.2-1.3c0.1-0.4,0.2-0.8,0.2-1.2
				c0.2-0.8,0.3-1.5,0.4-2.1c0.1-0.6,0.3-1.1,0.4-1.6c0.2-0.9,0.4-1.4,0.5-1.4c0,0,0.2-0.5,0.6-1.3c0.4-0.8,0.9-2,1.6-3.3
				c1.3-2.7,3.3-6.1,5-9.6c1.7-3.5,3-7.1,3.5-10c0.2-0.7,0.2-1.4,0.3-2c0-0.3,0.1-0.6,0.1-0.8c0-0.3,0-0.5,0-0.7c0-0.8,0-1.3,0-1.3
				s0,0.5,0.1,1.3c0,0.2,0,0.4,0.1,0.7c0,0.3,0,0.5,0,0.8c0,0.6,0,1.3-0.1,2c-0.2,2.9-1.2,6.8-2.7,10.4c-1.4,3.7-3.1,7.2-4.2,9.9
				c-0.6,1.4-1,2.5-1.3,3.3c-0.3,0.8-0.4,1.3-0.4,1.3c0,0-0.2,0.5-0.5,1.3c-0.1,0.4-0.4,0.9-0.5,1.5c-0.2,0.6-0.4,1.2-0.6,1.9
				c-0.1,0.4-0.2,0.7-0.3,1.1c-0.1,0.4-0.2,0.8-0.2,1.2c-0.2,0.8-0.3,1.7-0.5,2.6c-0.1,0.9-0.2,1.9-0.3,2.8c-0.1,0.5-0.1,1-0.1,1.5
				l0,1.5c0,0.5,0,1,0,1.5c0,0.5,0.1,1,0.1,1.5c0.1,1,0.1,1.9,0.4,2.8c0.2,0.9,0.4,1.8,0.5,2.6c0.2,0.8,0.5,1.6,0.7,2.3
				c0.4,1.5,0.9,2.6,1.3,3.4C33.2,254.6,33.4,255.1,33.4,255.1z"/>
		</g>
	</g>
</g>
</svg>
