<?xml version="1.0" encoding="utf-8"?>
<!-- Generator: Adobe Illustrator 19.0.0, SVG Export Plug-In . SVG Version: 6.00 Build 0)  -->
<svg version="1.1" id="Layer_1" xmlns="http://www.w3.org/2000/svg" xmlns:xlink="http://www.w3.org/1999/xlink" x="0px" y="0px"
	 viewBox="0 0 598 606" style="enable-background:new 0 0 598 606;" xml:space="preserve">
<style type="text/css">
	.st0{fill:#EF7B05;}
	.st1{fill:#FFFFFF;}
</style>
<g id="XMLID_1427_">
	<path id="XMLID_1535_" class="st0" d="M499.7,511.2c6.9-22.5,5.1-47.3-4.8-68.6c-1.3,38.8-51.6,136.3-51.6,136.3l2.8-21.5
		c-1-5.6-2.5-11.1-4.3-16.5c-3.2-9.3-12.1-24.9-13.5-34.6c-3.6-25.2,1.5-51,0.5-76.4c-1.7-45.9-10.5-91.3-21.8-135.9
		c-4.7-18.7-12.5-31.4-24.5-44.8C360,223.8,336,173.6,336,173.6s-54.5,13.5-109,73.5c-36.4,40.1-57,98.8-74.9,149.2
		c-11.8,33.2-1.6,70.2,10.4,103.3c6.7,18.5,17.1,35.7,30.2,50.5c-8.2-1.9-16.4-4.4-24.4-7.4c2.2,3.8,5.2,7.2,8.7,9.9
		c-20-13.5-38.2-29.9-50.5-50.2c-13.2-21.8-28.9-48.6-21.6-72.8c-9.1,27.6,3.1,58.6,16.1,84.7c-29.6-51.1-35.9-114.7-19.3-171
		c16.6-56.4,12.2-112.8,30.9-168.6c9.4-28.1,41.3-62,67.2-77.6c49.5-29.8,106.7-61.7,157.3-32.4c3.8,2.2,7.5,4.6,11.8,5.7
		c4.9,1.2,10,0.5,15,0.8c27.2,1.2,45.1,27.3,57,51.1c36.2,72.4,58.9,151,66.7,231.1c-5.5-14.3-11-28.6-16.5-42.8
		C507.8,376.4,524.2,447.4,499.7,511.2z"/>
	<path id="XMLID_1534_" class="st0" d="M195.9,157.9c10.4-43.8,49.9-80.9,96-85.4c13.2-1.3,26.7,0,39.4,3.6c6,1.7,11.8,4,18,4.9
		c4.7,0.7,9.5,0.6,14.3,1c25.3,2,48.4,17.5,62.2,38.2c13.8,20.7,19,46.1,18.1,70.7c-0.9,24.7-7.7,48.8-16.3,72
		c1.6-16.3-4.8-32.3-12.8-46.7c-17.7-31.6-43.5-57.9-69.1-83.9c-21.6,14.2-43.3,28.4-64.9,42.6c-31.6,20.7-63.2,41.4-93.2,64.2
		c1.2-15.3,2.5-30.6,3.7-45.9C192.2,181.4,193.2,169.5,195.9,157.9z"/>
	<path id="XMLID_1525_" class="st1" d="M243.7,159.6c15.2-0.6,30.6,2.3,44.5,8.4c-26.2,18.7-54,35.1-83.2,49
		c-2.1-12.2,11.1-21.3,16-32.6c0.5-1.1,0.9-2.4,0.4-3.6c-1.1-2.6-5.1-1.7-7.6-0.4c-6.9,3.6-13.8,7.3-20.6,11.1
		c5.2-7.6,8.6-16.3,9.9-25.2c-8.2,2.1-16.2,5.1-23.8,8.9c-4.9-20.4,7.1-41.9,24.6-54.1c17.5-12.2,39.4-16.7,60.9-19.1
		c-10.8,6.8-19.9,16.1-26.5,26.8c2.5,1.8,5.9,0.7,8.9,0.2c3-0.5,7.1,0.3,7.5,3.2c0.1,1.1-0.3,2.1-0.7,3.2
		C250.5,143.5,247.1,151.5,243.7,159.6z"/>
	<path id="XMLID_1516_" class="st1" d="M435.1,201.3c0.6-4.4,0.9-8.8,0.7-13.2c2.7,3,5.5,5.9,8.2,8.9c-0.7-32-16.2-63.4-41.4-84
		c12.8,15.6,20.6,34.9,22.2,54.8c-9.8-5.5-19.5-11.1-29.3-16.6c-0.2,5.7-0.5,11.3-0.7,17c-5.5,1.7-11.2-1.8-15.6-5.5
		c-4.4-3.7-8.9-8-14.7-8.3c1.9,9.2,8.4,16.9,15,23.8c13,13.8,26.9,26.7,41.7,38.7c-0.5-9.9-1.1-19.7-1.6-29.6
		C423.7,193,429,197.7,435.1,201.3z"/>
</g>
</svg>
