<?xml version="1.0" encoding="utf-8"?>
<!-- Generator: Adobe Illustrator 19.0.0, SVG Export Plug-In . SVG Version: 6.00 Build 0)  -->
<svg version="1.1" id="Layer_1" xmlns="http://www.w3.org/2000/svg" xmlns:xlink="http://www.w3.org/1999/xlink" x="0px" y="0px"
	 viewBox="0 0 517.6 466.9" style="enable-background:new 0 0 517.6 466.9;" xml:space="preserve">
<style type="text/css">
	.st0{fill:#EF7B05;}
	.st1{fill:#FFFFFF;}
	.st2{opacity:0;fill:#FFFFFF;}
	.st3{fill:#5E483C;}
	.st4{fill:none;}
</style>
<g id="XMLID_20891_">
	<path id="XMLID_21985_" class="st0" d="M439.6,250.6c0-0.1,0-0.1,0-0.2c-2.1-7.5-4.3-15-6.4-22.4c2.5,5.5,5,11.1,7.5,16.6
		c0,0,0,0.1,0,0.1c2.8,6.2,5.6,12.4,8.4,18.6c-1.5-13.2-3.6-26.4-6.3-39.5c0-0.1,0-0.1,0-0.2c-9.4-46-25.8-91.1-48.7-133.8
		c-0.3-0.6-0.7-1.2-1-1.8c-2.7-4.9-5.4-9.9-8.3-14.7c0-0.1-0.1-0.2-0.1-0.2c-5.1-8.7-11.4-17.8-19.1-25.3
		c-9.6-9.3-21.4-16.2-35.9-16.7c-4.8-0.2-9.8,0.4-14.5-0.6c-4.1-0.9-7.7-2.9-11.4-4.7c-9-4.4-18.8-7.7-28.9-9.7
		c-12.8-2.6-26.2-3.3-39.4-2.2c-32.8,2.7-64.5,16.2-83.6,38.5c-8.7,10.2-14.8,21.5-19.9,33.2c-0.2,0.4-0.3,0.8-0.5,1.2
		c-4.6,10.8-8.4,21.9-12.7,32.8c-11,28-25.6,54.9-38.8,82.2c0,0,0,0,0,0.1c-8.5,17.5-16.5,35-22.8,53.1
		c-16.1,46.4-19.6,98.6,8.9,140.7c-12.5-21.5-14.6-47-5.8-69.7c-7.1,19.9-1.5,42,11.2,59.9c11.9,16.8,29.5,30.2,48.9,41.3
		c-3.4-2.2-6.3-5-8.5-8.1c91.9,29.5,197-10.1,293.4,7.3c27.5-22.4,30.4-57.7,31.6-89.6c9.6,17.6,11.2,38,4.6,56.5
		C461.8,348,452.8,298.4,439.6,250.6z M380.5,253.3c0,0.9-0.2,1.9-0.2,2.8c0,0.2-0.1,0.3-0.1,0.5c-0.1,1.7-0.2,3.4-0.4,5.2
		c-0.3,3.4-0.8,6.9-1.4,10.3c-0.1,0.9-0.3,1.7-0.5,2.6c-0.1,0.7-0.3,1.4-0.4,2.2c0,0.2-0.1,0.4-0.1,0.6c0,0.1,0,0.1,0,0.2
		c-0.1,0.6-0.2,1.1-0.4,1.6c0,0,0,0.1,0,0.1c-0.1,0.2-0.1,0.5-0.2,0.7c0,0,0,0.1,0,0.1c-0.1,0.4-0.2,0.7-0.3,1.1
		c-0.1,0.4-0.2,0.7-0.3,1.1c-0.2,0.8-0.4,1.5-0.6,2.3c0,0.1,0,0.1,0,0.2c0,0.1,0,0.1-0.1,0.2c-0.6,2.1-1.3,4.1-2,6.2
		c-0.2,0.5-0.4,1-0.6,1.5c-0.6,1.5-1.1,2.8-1.8,4.3c-5.8,14-14.3,26-25.1,37h0.4c-10.8,11-23.6,18.8-37.7,24.4
		c-14.9,6.1-30.9,9-47,8.9c-16.1,0.2-32.1-2.9-47-9c-14.1-5.7-26.9-14.1-37.7-24.7c-1.3-1.3-2.6-2.6-3.8-3.9
		c-9-9.7-16.2-20.6-21.3-32.9c-5.7-13.6-12.4-28.1-12.4-42.4v-0.1c-1-7.1-2-13.9-3-20.9c0,0,0,0,0,0c0-0.5-0.3-1.4-0.4-1.4H136
		c-0.1,0-0.1,0-0.2,0l0-0.1l-0.2-3.2l0-0.2l0-0.3l0-0.6l-0.5-6.9c0-1.1-0.5-2.1-0.5-3.2v-0.2c0,0,0.3-0.1,0.3-0.1
		c0-0.4,0.2-0.8,0.3-1.2c0-0.1,0.1-0.2,0.2-0.3c0-0.1,0-0.2,0.1-0.3c0-0.1,0.1-0.2,0.1-0.3v0c0-0.1,0.1-0.2,0.1-0.3
		c0-1.2,0.1-2.4,0.2-3.5c0-0.8,0.1-1.5,0.1-2.3c0-0.2,0-0.5,0.1-0.7c0.1-1,0.1-1.9,0.2-2.9c0.1-1.2,0.2-2.4,0.4-3.6
		c0.1-1.1,0.2-2.1,0.4-3.1c0.1-1,0.3-2,0.4-2.9c0.1-0.8,0.2-1.6,0.4-2.3c0.2-1.2,0.4-2.4,0.6-3.6c0.1-0.4,0.2-0.8,0.2-1.3
		c0.6-3.1,1.3-6.1,2.1-9.1c0.2-0.7,0.4-1.4,0.6-2c0.1-0.3,0.1-0.5,0.2-0.8c0.2-0.6,0.3-1.2,0.5-1.7c0.3-0.9,0.5-1.8,0.8-2.7
		c0.2-0.6,0.4-1.2,0.5-1.7c0.2-0.6,0.4-1.2,0.6-1.7c0.2-0.6,0.4-1.1,0.6-1.7c0.4-1.1,0.8-2.3,1.2-3.4c0.2-0.6,0.4-1.1,0.7-1.7
		c0.4-1.1,0.9-2.2,1.3-3.3c0.4-1.1,0.6-2.2,1.1-3.3c0-0.1-0.2-0.1-0.2-0.1v0c1-1,1.2-1.9,1.6-2.9c0.4-0.9,1-1.9,1.5-2.8
		c0.3-0.6,0.7-1.2,1-1.9c0.3-0.6,0.7-1.2,1-1.8c0.3-0.6,0.7-1.2,1-1.8c0.3-0.5,0.5-0.9,0.8-1.4c0,0,0,0,0,0c0.1-0.3,0.3-0.5,0.5-0.8
		c0,0,0,0,0,0c0.3-0.4,0.5-0.9,0.8-1.3c0.3-0.6,0.7-1.2,1.1-1.8c0.2-0.3,0.3-0.6,0.5-0.8c0.2-0.3,0.4-0.7,0.6-1
		c0.2-0.4,0.5-0.8,0.7-1.2c0.5-0.9,1.1-1.7,1.7-2.5c0.4-0.6,0.8-1.3,1.3-1.9c0.1-0.2,0.3-0.4,0.4-0.6c0.5-0.7,1-1.5,1.5-2.2
		c0.6-0.8,1.2-1.6,1.7-2.3c0.6-0.8,1.3-1.6,1.9-2.4c0.6-0.7,1.1-1.4,1.7-2.1c0.6-0.7,1.2-1.5,1.9-2.2c0.6-0.7,1.3-1.4,1.9-2.1
		c1.3-1.4,2.6-2.8,3.9-4.2c0.7-0.7,1.3-1.4,2-2c2.7-2.6,5.5-5.1,8.5-7.5c0.7-0.6,1.5-1.2,2.2-1.8c2.2-1.7,4.5-3.4,6.8-4.9
		c0.8-0.5,1.5-1,2.3-1.5c0.7-0.4,1.4-0.9,2.1-1.3c0.3-0.1,0.5-0.3,0.8-0.5c0.6-0.4,1.3-0.8,1.9-1.1c0.1-0.1,0.3-0.1,0.4-0.2
		c0.7-0.4,1.4-0.8,2.1-1.2c2.5-1.3,4.9-2.6,7.5-3.7c0.8-0.4,1.7-0.8,2.6-1.1c1.8-0.8,3.6-1.5,5.4-2.1c0.7-0.3,1.4-0.5,2.1-0.8
		c0.1,0,0.2-0.1,0.4-0.1c0.8-0.3,1.7-0.6,2.5-0.8c0.1,0,0.1,0,0.2-0.1c0.8-0.3,1.6-0.5,2.4-0.7c0.9-0.3,1.8-0.5,2.7-0.7
		c0.9-0.2,1.8-0.5,2.7-0.7c0.8-0.2,1.6-0.4,2.4-0.5c0,0,0,0,0,0c0.3-0.1,0.6-0.1,0.9-0.2c1.6-0.3,3.2-0.6,4.9-0.8
		c5.2-0.8,10.3-1.1,15.7-1.1c5.3,0,10.5,0.4,15.7,1.1c42.9,6.3,79,37.9,96.6,81.4c0.2,0.5,0.4,1,0.6,1.6c0.4,1.1,0.8,2.1,1.2,3.2
		c1,2.7,1.9,5.4,2.7,8.1c0.7,2.2,1.3,4.4,1.9,6.7c0.1,0.6,0.3,1.1,0.4,1.7c0.3,1.1,0.5,2.3,0.8,3.4c0.1,0.6,0.3,1.1,0.4,1.7
		c0.2,1.1,0.5,2.3,0.7,3.5c0.2,1,0.4,2,0.5,3.1c0,0.1,0.1,0.3,0.1,0.4c1.4,8.8,2.1,17.8,2,27.1c0,2.1-0.2,3.7-0.3,5.1
		c0,0.2-0.1,0.4-0.1,0.6v0.1c1,1.4,0.6,2.4,0.7,3.2c0,0.1,0.1,0.2,0.1,0.2c0.1,1.1-0.1,1.3-0.1,1.3l-1.7-0.3h0h-1.8h-0.1
		c0,0-0.2,1.1-0.2,1.3c0,0,0,0,0,0c0,2.3,0.5,4.4,0.7,6.4c0.3,4.6,0.3,8.9,0.3,14.1V253.3z"/>
	<path id="XMLID_21984_" class="st1" d="M442.9,214.6c-2.8,1.1,0,6.1-0.1,9.1c-9.4-46-25.8-91.1-48.7-133.8
		c53.8-18.9,65.3,20.5,73.6,40.3C477.1,152.8,470.6,203.6,442.9,214.6z"/>
	<path id="XMLID_21983_" class="st1" d="M131.6,86.9c-4.6,10.8-8.4,21.9-12.7,32.8c-11,28-25.6,54.9-38.8,82.2c0,0,0,0,0,0.1
		c-12.6-22.1-15.9-57.4-8.1-76C80.7,104.8,104.6,85.8,131.6,86.9z"/>
	<path id="XMLID_20912_" class="st0" d="M333.9,107.7C333.9,107.7,333.9,107.7,333.9,107.7C333.9,107.7,333.9,107.7,333.9,107.7
		c0.5,0.4,1,0.8,1.4,1.2C334.9,108.5,334.4,108.1,333.9,107.7z M333.9,107.7C333.9,107.7,333.9,107.7,333.9,107.7
		C333.9,107.7,333.9,107.7,333.9,107.7c0.5,0.4,1,0.8,1.4,1.2C334.9,108.5,334.4,108.1,333.9,107.7z M333.9,107.7
		C333.9,107.7,333.9,107.7,333.9,107.7C333.9,107.7,333.9,107.7,333.9,107.7c0.5,0.4,1,0.8,1.4,1.2
		C334.9,108.5,334.4,108.1,333.9,107.7z M333.9,107.7C333.9,107.7,333.9,107.7,333.9,107.7C333.9,107.7,333.9,107.7,333.9,107.7
		c0.5,0.4,1,0.8,1.4,1.2C334.9,108.5,334.4,108.1,333.9,107.7z M333.9,107.7C333.9,107.7,333.9,107.7,333.9,107.7
		C333.9,107.7,333.9,107.7,333.9,107.7c0.5,0.4,1,0.8,1.4,1.2C334.9,108.5,334.4,108.1,333.9,107.7z M333.9,107.7
		C333.9,107.7,333.9,107.7,333.9,107.7C333.9,107.7,333.9,107.7,333.9,107.7c0.5,0.4,1,0.8,1.4,1.2
		C334.9,108.5,334.4,108.1,333.9,107.7z M333.9,107.7C333.9,107.7,333.9,107.7,333.9,107.7C333.9,107.7,333.9,107.7,333.9,107.7
		c0.5,0.4,1,0.8,1.4,1.2C334.9,108.5,334.4,108.1,333.9,107.7z M333.9,107.7C333.9,107.7,333.9,107.7,333.9,107.7
		C333.9,107.7,333.9,107.7,333.9,107.7c0.5,0.4,1,0.8,1.4,1.2C334.9,108.5,334.4,108.1,333.9,107.7z M333.9,107.7
		C333.9,107.7,333.9,107.7,333.9,107.7C333.9,107.7,333.9,107.7,333.9,107.7c0.5,0.4,1,0.8,1.4,1.2
		C334.9,108.5,334.4,108.1,333.9,107.7z M333.9,107.7C333.9,107.7,333.9,107.7,333.9,107.7C333.9,107.7,333.9,107.7,333.9,107.7
		c0.5,0.4,1,0.8,1.4,1.2C334.9,108.5,334.4,108.1,333.9,107.7z M333.9,107.7C333.9,107.7,333.9,107.7,333.9,107.7
		C333.9,107.7,333.9,107.7,333.9,107.7c0.5,0.4,1,0.8,1.4,1.2C334.9,108.5,334.4,108.1,333.9,107.7z M383.3,229.9
		C383.3,229.9,383.3,229.9,383.3,229.9c-0.1-1.7-0.2-4.5-0.2-9.2c0.1-9.3-0.7-18.3-2.2-27c0-0.1-0.1-0.3-0.1-0.4c-0.2-1-0.4-2-0.5-3
		c-0.2-1.2-0.5-2.3-0.7-3.5c-0.1-0.6-0.2-1.1-0.4-1.7c-0.3-1.1-0.5-2.3-0.8-3.4c-0.1-0.6-0.3-1.1-0.4-1.7c-0.6-2.3-1.2-4.5-1.9-6.7
		c-0.8-2.8-1.7-5.5-2.7-8.1c-0.4-1.1-0.8-2.1-1.2-3.2c-0.2-0.5-0.4-1.1-0.6-1.6C353.9,116.9,317.9,85.3,275,79
		c-5.2-0.8-10.4-1.1-15.7-1.1c-5.3,0-10.5,0.4-15.7,1.1c-1.6,0.2-3.3,0.5-4.9,0.8c-0.3,0.1-0.6,0.1-0.9,0.2c0,0,0,0,0,0
		c-0.8,0.2-1.6,0.3-2.4,0.5c-0.9,0.2-1.8,0.4-2.7,0.7c-0.9,0.2-1.8,0.5-2.7,0.7c-0.8,0.2-1.6,0.5-2.4,0.7c-0.1,0-0.2,0.1-0.2,0.1
		c-0.9,0.3-1.7,0.5-2.5,0.8c-0.1,0-0.2,0.1-0.4,0.1c-0.7,0.3-1.4,0.5-2.1,0.8c-1.8,0.6-3.6,1.4-5.4,2.1c-0.8,0.4-1.7,0.7-2.6,1.1
		c-2.5,1.1-5,2.4-7.5,3.7c-0.7,0.4-1.4,0.8-2.1,1.2c-0.1,0.1-0.3,0.2-0.4,0.2c-0.6,0.4-1.3,0.7-1.9,1.1c-0.3,0.2-0.5,0.3-0.8,0.5
		c-0.7,0.4-1.4,0.9-2.1,1.3c-0.8,0.5-1.5,1-2.3,1.5c-2.3,1.6-4.6,3.2-6.8,4.9c-0.7,0.6-1.5,1.2-2.2,1.8c-2.9,2.4-5.8,4.9-8.5,7.5
		c-0.7,0.7-1.4,1.3-2,2c-1.3,1.4-2.7,2.7-3.9,4.2c-0.6,0.7-1.3,1.4-1.9,2.1c-0.6,0.7-1.3,1.5-1.9,2.2c-0.6,0.7-1.2,1.4-1.7,2.1
		c-0.6,0.8-1.3,1.6-1.9,2.4c-0.6,0.8-1.2,1.5-1.7,2.3c-0.5,0.7-1,1.4-1.5,2.2c-0.2,0.2-0.3,0.4-0.4,0.6c-0.4,0.6-0.9,1.3-1.3,1.9
		c-0.6,0.8-1.1,1.7-1.7,2.5c-0.3,0.4-0.5,0.8-0.7,1.2c-0.2,0.3-0.4,0.7-0.6,1c-0.2,0.3-0.3,0.5-0.5,0.8c-0.4,0.6-0.7,1.2-1,1.8
		c-0.3,0.4-0.5,0.9-0.8,1.3c0,0,0,0,0,0c-0.2,0.3-0.3,0.5-0.4,0.8c0,0,0,0,0,0c-0.3,0.5-0.5,0.9-0.8,1.4c-0.3,0.6-0.7,1.2-1,1.8
		c-0.3,0.6-0.6,1.2-1,1.8c-0.3,0.6-0.6,1.2-0.9,1.9c-0.5,0.9-1.2,1.9-1.7,2.8c-0.4,0.9-0.6,1.9-1.6,2.9v0c0,0.1,0.2,0.1,0.2,0.1
		c-0.5,1.1-0.8,2.2-1.3,3.3c-0.5,1.1-0.8,2.2-1.3,3.3c-0.2,0.6-0.4,1.1-0.6,1.7c-0.4,1.1-0.8,2.3-1.2,3.4c-0.2,0.6-0.4,1.1-0.6,1.7
		c-0.2,0.6-0.4,1.2-0.6,1.7c-0.2,0.6-0.4,1.2-0.5,1.7c-0.3,0.9-0.5,1.8-0.8,2.7c-0.2,0.6-0.3,1.2-0.5,1.7c-0.1,0.3-0.1,0.5-0.2,0.8
		c-0.2,0.7-0.4,1.4-0.5,2c-0.8,3-1.4,6-2,9.1c-0.1,0.4-0.2,0.8-0.2,1.3c-0.2,1.2-0.4,2.4-0.6,3.6c-0.1,0.8-0.2,1.5-0.4,2.3
		c-0.1,1-0.3,1.9-0.4,2.9c-0.1,1-0.3,2.1-0.4,3.1c-0.1,1.2-0.2,2.4-0.4,3.6c-0.1,1-0.2,1.9-0.2,2.9c0,0.2,0,0.5-0.1,0.7
		c-0.1,0.8-0.1,1.5-0.1,2.3c-0.1,1.2-0.1,2.4-0.1,3.5c29.9-18.7,61.3-35.8,92.6-52.8c22.3-12.1,44.6-24.3,66.9-36.4
		c26.3,22.2,53,44.8,71.2,71.7c7.1,10.5,14.2,21.9,15,33.8l-1.8-0.3h-0.1c0,0-0.2,1.1-0.2,1.3c0,0,0,0,0,0c0,2.3,0.6,4.4,0.7,6.4
		c-0.1-2.2-0.3-4.6-0.5-7.1l1.8-0.3l1.7-0.3h0.2C383.4,231.2,383.4,231,383.3,229.9z M139.5,254.6L139.5,254.6c-1-7.2-2-14-3-21
		c0,0,0,0,0,0c0-0.5-0.3-1.4-0.4-1.4h0c1,8,2.4,14.6,3.2,22.1c0.6,14.4,6.9,29,12.5,42.6c5.1,12.3,12.4,23.3,21.4,33
		c-9-9.7-16.2-20.6-21.3-32.9C146.3,283.4,139.5,268.9,139.5,254.6z M135.6,228.4l0-0.6L135.6,228.4l0.2,3.8c0,0,0,0,0,0
		c0,0,0.1,0,0.2,0c-0.2-1.1-0.3-2.3-0.4-3.5L135.6,228.4z M333.9,107.7C333.9,107.7,333.9,107.7,333.9,107.7
		C333.9,107.7,333.9,107.7,333.9,107.7c0.5,0.4,1,0.8,1.4,1.2C334.9,108.5,334.4,108.1,333.9,107.7z M333.9,107.7
		C333.9,107.7,333.9,107.7,333.9,107.7C333.9,107.7,333.9,107.7,333.9,107.7c0.5,0.4,1,0.8,1.4,1.2
		C334.9,108.5,334.4,108.1,333.9,107.7z M333.9,107.7C333.9,107.7,333.9,107.7,333.9,107.7C333.9,107.7,333.9,107.7,333.9,107.7
		c0.5,0.4,1,0.8,1.4,1.2C334.9,108.5,334.4,108.1,333.9,107.7z M333.9,107.7C333.9,107.7,333.9,107.7,333.9,107.7
		C333.9,107.7,333.9,107.7,333.9,107.7c0.5,0.4,1,0.8,1.4,1.2C334.9,108.5,334.4,108.1,333.9,107.7z M333.9,107.7
		C333.9,107.7,333.9,107.7,333.9,107.7C333.9,107.7,333.9,107.7,333.9,107.7c0.5,0.4,1,0.8,1.4,1.2
		C334.9,108.5,334.4,108.1,333.9,107.7z M333.9,107.7C333.9,107.7,333.9,107.7,333.9,107.7C333.9,107.7,333.9,107.7,333.9,107.7
		c0.5,0.4,1,0.8,1.4,1.2C334.9,108.5,334.4,108.1,333.9,107.7z M333.9,107.7C333.9,107.7,333.9,107.7,333.9,107.7
		C333.9,107.7,333.9,107.7,333.9,107.7c0.5,0.4,1,0.8,1.4,1.2C334.9,108.5,334.4,108.1,333.9,107.7z M333.9,107.7
		C333.9,107.7,333.9,107.7,333.9,107.7C333.9,107.7,333.9,107.7,333.9,107.7c0.5,0.4,1,0.8,1.4,1.2
		C334.9,108.5,334.4,108.1,333.9,107.7z M333.9,107.7C333.9,107.7,333.9,107.7,333.9,107.7C333.9,107.7,333.9,107.7,333.9,107.7
		c0.5,0.4,1,0.8,1.4,1.2C334.9,108.5,334.4,108.1,333.9,107.7z M333.9,107.7C333.9,107.7,333.9,107.7,333.9,107.7
		C333.9,107.7,333.9,107.7,333.9,107.7c0.5,0.4,1,0.8,1.4,1.2C334.9,108.5,334.4,108.1,333.9,107.7z"/>
	<path id="XMLID_20911_" class="st2" d="M135.6,228.4l0,0.3C135.6,228.6,135.6,228.5,135.6,228.4l0-0.6L135.6,228.4z"/>
	<path id="XMLID_20910_" class="st2" d="M151.9,297c5.1,12.3,12.3,23.3,21.3,32.9c-9-9.7-16.3-20.6-21.4-32.9
		c-5.7-13.6-12-28.3-12.5-42.7c-0.8-7.5-2.2-14.1-3.2-22.1h0c0.1,0,0.4,0.9,0.4,1.4c0,0,0,0,0,0c1,7,2,13.8,3,20.9v0.1
		C139.5,268.9,146.3,283.4,151.9,297z"/>
	<path id="XMLID_20909_" class="st2" d="M379.7,231.8c0.3,2.6,0.4,4.9,0.5,7.1c-0.1-2-0.7-4.1-0.7-6.4c0,0,0,0,0,0
		c0-0.2,0.2-1.3,0.2-1.3h0.1l1.8,0.3c0,0,0,0.2,0,0.2L379.7,231.8z"/>
	<path id="XMLID_20908_" class="st3" d="M124.4,429.6c-1.4-0.7-2.8-1.5-4.1-2.3C121.7,428.1,123,428.9,124.4,429.6z"/>
	<path id="XMLID_20907_" class="st3" d="M333.9,107.7c0.5,0.4,1,0.8,1.4,1.2C334.9,108.5,334.4,108.1,333.9,107.7
		C333.9,107.7,333.9,107.7,333.9,107.7C333.9,107.7,333.9,107.7,333.9,107.7z"/>
	<path id="XMLID_20906_" class="st0" d="M396.5,176c-1,21.1-6.3,41.7-15.1,61.6c0.2-1.9,0.3-3.9,0.1-5.8c0,0,0-0.1,0-0.1
		c-0.8-11.9-7.9-23.5-15-34c-18.2-27-44.9-49.5-71.2-71.7c-22.3,12.1-44.6,24.3-66.9,36.4c-31.4,17-62.8,34.1-92.6,52.8
		c-1.1,0.7-2.3,1.4-3.4,2.1c1.3-13.1,2.5-26.2,3.8-39.3c1-10.1,2-20.3,4.8-30.3c4.7-16.4,15.2-31.7,29.4-44.1
		c13.6-11.8,30.6-20.8,49.4-25.6c6.5-1.7,13.2-2.8,20.1-3.4c13.6-1.1,27.5,0,40.6,3.1c6.2,1.5,12.2,3.4,18.5,4.2
		c4.9,0.6,9.8,0.5,14.8,0.9c19.7,1.3,38,9.1,51.9,20.5c4.6,3.7,8.7,7.8,12.2,12.2c4.7,5.8,8.4,12,11.2,18.5
		C394.9,147.4,397.1,161.8,396.5,176z"/>
	<path id="XMLID_20903_" class="st1" d="M194.9,70c9.7-0.4,19.5,1.5,28.3,5.5c-16.7,12.3-34.4,23-53,32.2c-1.3-8,7.1-13.9,10.2-21.4
		c0.3-0.7,0.6-1.6,0.3-2.3c-0.7-1.7-3.2-1.1-4.8-0.2c-4.4,2.4-8.8,4.8-13.1,7.3c3.3-5,5.5-10.7,6.3-16.6c-5.2,1.4-10.3,3.3-15.1,5.8
		c-3.1-13.4,4.5-27.5,15.7-35.5c11.1-8,25.1-11,38.8-12.5c-6.9,4.5-12.7,10.6-16.9,17.6c1.6,1.2,3.7,0.5,5.7,0.1
		c1.9-0.3,4.5,0.2,4.8,2.1c0.1,0.7-0.2,1.4-0.5,2.1C199.2,59.4,197,64.7,194.9,70z"/>
	<path id="XMLID_20899_" class="st1" d="M390.9,135.3c0.4-2.9,0.6-5.8,0.4-8.7c1.7,1.9,3.5,3.9,5.2,5.8c-0.4-21-10.3-41.6-26.4-55.1
		c8.2,10.2,13.1,22.9,14.1,36c-6.2-3.6-12.4-7.3-18.6-10.9c-0.1,3.7-0.3,7.4-0.4,11.1c-3.5,1.1-7.1-1.2-9.9-3.6
		c-2.8-2.4-5.7-5.2-9.4-5.4c1.2,6.1,5.4,11.1,9.5,15.6c8.3,9.1,17.1,17.5,26.5,25.4c-0.3-6.5-0.7-13-1-19.4
		C383.7,129.8,387.1,132.9,390.9,135.3z"/>
	<path id="XMLID_20893_" class="st4" d="M380.2,253.1c0,0.5-0.1,1.1-0.1,1.6"/>
	<path id="XMLID_20892_" class="st4" d="M379.7,231.8c0-0.3-0.1-0.6-0.1-0.9"/>
</g>
</svg>
