<?xml version="1.0" encoding="utf-8"?>
<!-- Generator: Adobe Illustrator 19.0.0, SVG Export Plug-In . SVG Version: 6.00 Build 0)  -->
<svg version="1.1" id="Layer_1" xmlns="http://www.w3.org/2000/svg" xmlns:xlink="http://www.w3.org/1999/xlink" x="0px" y="0px"
	 viewBox="-273 76.5 412.8 409.5" enable-background="new -273 76.5 412.8 409.5" xml:space="preserve">
<g id="XMLID_131_">
	<path id="XMLID_145_" fill="#EF7B05" d="M-150.4,363.9c-3.4-7.8-7.6-15.6-15.1-22.2c-4.9,14.3-21.9,25.6-39.5,35.3
		c-17.6,9.6-36.9,18.5-49.3,30.9c-9.2,9.3-14.1,20.3-12.8,31.1c1.4,10.9,9.2,21.5,22.3,28.7c-0.5-4.8,0.7-9.6,3.4-14.1
		c2.7,9.9,15,18.5,30.4,21.4c-6-7.5-3.4-16.7,3.3-23.9s17-12.8,27.1-18.3c10.1-5.5,20.4-11,27.2-18.2
		C-139.3,399.6-143.1,380.6-150.4,363.9z"/>
	<path id="XMLID_142_" opacity="0.99" fill="#FFFFFF" enable-background="new    " d="M-219.1,412.2c2.3-2.3,3.9-5,4.7-7.7
		c-8.3-0.4-16.7,1.2-23.5,4.5c-4.4,2.1-8.5,5-13.9,5.2c0.5-4.3,4.5-8,8.7-11.2c6.8-5.2,14.5-10,22.7-14.2
		c14.4-7.3,31.1-13.1,41.7-23c-2.8,12.4-16.2,22.3-29.6,30.9c9.5-1.8,18.3-5.2,25.6-9.7c-3.7,8-11.7,14.9-22.1,19.3
		c5.2,0.2,10.5-0.5,15.2-2c-7.6,7.7-17.2,15.6-30.6,17.2c5.1-2.6,9-6.2,11.3-10.3C-212.2,411.7-215.6,412-219.1,412.2z"/>
	<path id="XMLID_139_" opacity="0.13" fill="#FFFFFF" enable-background="new    " d="M-105.6,220.2c0.1,0.3,0.3,0.5,0.6,0.7
		c3.1,2,7.8,2.5,12.1,2.2c4.3-0.4,8.3-1.5,12.4-2.4c9.9-2,20.4-2.4,30.7-2.7c2.8-0.1,5.5-0.2,8.3-0.3c-7.9-4.1-17.9-5.6-27.7-6.5
		c-2.6-0.2-5.2-0.5-7.8-0.1c-2.3,0.3-4.5,0.9-6.7,1.6c-6.8,2.1-13.6,4.2-20.4,6.3C-104.8,219.3-105.7,219.7-105.6,220.2z"/>
	<path id="XMLID_136_" opacity="0.13" fill="#FFFFFF" enable-background="new    " d="M89.2,221.3c-0.1,0.3-0.3,0.5-0.6,0.7
		c-3.1,2-7.8,2.5-12.1,2.2c-4.3-0.4-8.3-1.5-12.4-2.4c-9.9-2-20.4-2.4-30.7-2.7c-2.8-0.1-5.5-0.2-8.3-0.3c7.9-4.1,17.9-5.6,27.7-6.5
		c2.6-0.2,5.2-0.5,7.8-0.1c2.3,0.3,4.5,0.9,6.7,1.6c6.8,2.1,13.6,4.2,20.4,6.3C88.4,220.4,89.3,220.8,89.2,221.3z"/>
	<path id="XMLID_135_" fill="#EF7B05" d="M112,164.7c8.1,13.6,9.3,28.7,7.5,43.3s-6.6,29-10.1,43.5c-1-19.5-4.7-38.9-11.1-57.9
		c-0.6,14.4,0.5,28.9,3.3,43.2c-5.1-16.5-15.1-32.4-29.3-46.3c-12.4-12.2-28.3-23.4-34.7-37.6c-2.2,0-3.4,1.7-4.2,3.1
		c-4.2,7.1-12.5,12.7-20.9,17.9c-45.2,28.1-98.5,49.7-145,76.8c0.2-2.9,3.6-5.2,6.9-7.1c28.8-17.3,58.6-33.8,89.2-49.6
		c-37.3,13.6-76.3,28.3-97.8,52.8c-3.1-23.7,4.5-47.6,16.7-69.9c8.6-15.6,19.7-30.9,37.1-42.8C-63.2,122.3-38.8,114.2-14,115.5
		c7.4,0.4,14.6,1.6,21.8,2.8c8,1.3,16.1,2.7,24.1,4c7.6,1.3,15.1,2.5,22.4,4.4C80.3,133.3,101.8,147.5,112,164.7z"/>
	<path id="XMLID_132_" opacity="0.99" fill="#FFFFFF" enable-background="new    " d="M-36.5,102c-13.6,4.4-24.1,13-27.8,22.9
		c2.4,1.4,6.2,0,9.4,0.2c9.4,0.6,6.4,12.5,15.3,14.7c3.1,0.7,6.9-0.1,9.8,0.9c2.1,0.7,3.4,2.2,5.2,3.2c5.9,3.3,14.9,1,21.4-1.7
		c6.5-2.7,14.1-6,21.3-4.1c0.8,0.2,1.6,0.5,1.9,1c0.3,0.6,0,1.2-0.3,1.7C16,147,9,151.9,1.8,156.4c-10.1,6.2-21,11.7-31.9,17.3
		c-12.3,6.3-24.7,12.5-37,18.8c14.9-12.8,39.3-20.5,50-35.1c-19.3,8.6-39.7,16.1-60.9,22.5c6.1-10.6,14-20.6,23.5-30
		c-14.3,1.9-28.2,5.2-40.9,10c0-6.1,1-12.2,3.1-18.2c-7.6,0.9-14.9,2.8-21.5,5.5C-106.2,123.1-73.1,103.8-36.5,102z"/>
</g>
</svg>
