<?xml version="1.0" encoding="utf-8"?>
<!-- Generator: Adobe Illustrator 19.0.0, SVG Export Plug-In . SVG Version: 6.00 Build 0)  -->
<svg version="1.1" id="Layer_1" xmlns="http://www.w3.org/2000/svg" xmlns:xlink="http://www.w3.org/1999/xlink" x="0px" y="0px"
	 viewBox="0 0 469.6 410.8" style="enable-background:new 0 0 469.6 410.8;" xml:space="preserve">
<style type="text/css">
	.st0{fill:#EF7B05;}
	.st1{fill:#FFFFFF;}
</style>
<g id="XMLID_323_">
	<g id="XMLID_622_">
		<polygon id="XMLID_632_" class="st0" points="298.6,210.7 298.6,210.7 298.6,210.7 		"/>
		<path id="XMLID_623_" class="st0" d="M350,212c1.3,21,0.7,41.3-1.2,59.9c0,0-0.1,0.1-0.1,0.1c-5.6,26.5-23,50.7-46.8,64.7
			c-0.1,0-0.1,0.1-0.1,0.2c-0.1,0.1-0.2,0.2-0.3,0.4c-0.1,0.1-0.1,0.3-0.1,0.4c0,0.1-0.1,0.1-0.1,0.2c1.9,10.8,4.7,21.6,8.3,32
			c-2.7,1.4-5.5,2.8-8.2,4.2c-4.2,2-8.1,4-11.7,6.1c-0.3,0.2-0.5,0.5-0.5,0.8c-0.1,0.1-0.2,0.1-0.3,0.2c-0.4,0.5-0.2,1.3,0.3,1.6
			c8,5,20.1,9,32.6,9c4.3,0,8.6-0.5,12.8-1.5c29.2-1.3,56.5-17.4,67.7-40.4c0-0.1,0-0.2,0-0.2c20-5.3,33.7-21.8,38.8-37.2
			c6.1-18.8,3.2-38.4-0.4-57c-3.5-18.1-7.7-36.3-12.6-54.2c-7.4-27.3-18.5-62.7-39.1-94.4c-20.9-32.3-49.1-56.9-81.5-71.2
			c-37.2-16.3-79.7-18.2-113.9-5.2c-30.5-0.9-62,13.1-84.7,37.7c-19.3,21-30.3,46-40.9,76.9C47.6,205,37.4,257.9,37,306.8
			c-0.1,9.2,0.2,18.8,4.5,27.6c5,10.2,12.9,16.3,22.3,17.5c2,5.7,5,11.1,9.7,15.6c5.3,5.1,13.1,9.5,21.2,9.5c3.6,0,7.3-0.9,10.9-3
			c3.9,3.9,8,7,11.9,9.2c8,4.6,18,7,28.2,7c4.6,0,9.3-0.5,13.9-1.5c13.9-3,26.5-10.7,34.7-21.2c0.3-0.4,0.3-1,0-1.4
			c-0.3-0.4-0.9-0.6-1.4-0.4c-4.9,1.7-9.8,2.8-14.6,3.4c-2.7-2.5-5-5.4-7-8.6c2.6-7.2,3.7-14.3,3.4-22.8c0-0.1-0.1-0.1-0.1-0.2
			c0-0.2-0.1-0.4-0.2-0.6c-1.5-1.4-3.2-3-5-4.7c-13.4-12.7-35.9-33.8-38.2-53.9c-0.1-0.5-0.5-0.8-1-0.9c0.2-28.5,1.5-57.3,5.3-85.8
			c11-18.1,20.8-49.7,30.3-80.3c1.5-4.8,3-9.7,4.5-14.5c0.6,37.2,15.6,67.4,45.6,91.9c10.5,8.6,20,13.7,29.9,16
			c8.7,2,17.5,2.5,25.9,2.9c8.7,0.4,17.7,0.8,26.5,3c0.1,0,0.2-0.1,0.3-0.1h-0.4v0v0.1c0,0,0.3,0.1,0.4,0c0.1,0,0.2-0.1,0.3-0.1
			 M352.3,209 M231.2,105.8L231.2,105.8C231.2,105.8,231.2,105.8,231.2,105.8L231.2,105.8L231.2,105.8z M230.3,107.3L230.3,107.3
			C230.3,107.3,230.3,107.3,230.3,107.3C230.3,107.3,230.3,107.3,230.3,107.3z M352.4,211c0-0.1-0.1-0.2-0.2-0.3
			C352.3,210.8,352.4,210.8,352.4,211C352.4,211,352.4,211,352.4,211z M195,30.5L195,30.5C195,30.5,195,30.5,195,30.5
			C195,30.5,195,30.5,195,30.5L195,30.5z"/>
	</g>
	<g id="XMLID_619_">
		<path id="XMLID_24_" class="st1" d="M403.3,368c0,0-0.2-0.5-0.5-1.4c-0.4-0.9-0.7-2.2-1.1-4c-0.1-0.9-0.3-1.9-0.4-3
			c0-1.1-0.1-2.3,0-3.5c0.1-2.5,0.5-5.3,1.2-8.3c0.7-3,1.7-6.2,2.9-9.5c1.2-3.3,2.6-6.7,4-10.2c0.4-0.9,0.7-1.8,1.1-2.7l0.3-0.7
			l0.2-0.7l0.5-1.4c0.3-0.9,0.7-1.8,1-2.8c0.3-0.9,0.6-1.9,0.9-2.8c0.3-0.9,0.6-1.9,0.9-2.8c0.3-1,0.5-1.9,0.8-2.9
			c0.6-1.9,1-3.9,1.5-5.8c0.5-1.9,0.8-3.9,1.2-5.9c0.3-2,0.7-3.9,0.9-5.9c0.1-1,0.2-2,0.3-2.9c0.1-1,0.3-1.9,0.3-2.9
			c0.1-1.9,0.4-3.8,0.4-5.7c0.1-1.9,0.2-3.7,0.2-5.5c0-1.8,0.1-3.6,0-5.3c-0.1-3.5-0.3-6.7-0.5-9.7c-0.2-1.5-0.3-2.9-0.4-4.3
			c-0.2-1.4-0.4-2.7-0.5-3.9c-0.1-1.2-0.4-2.4-0.5-3.4c-0.2-1.1-0.3-2-0.5-2.9c-0.7-3.5-1.1-5.5-1.1-5.5s0.2,0.5,0.4,1.4
			c0.3,0.9,0.7,2.2,1.2,3.9c0.4,1.7,1.1,3.8,1.6,6.2c0.3,1.2,0.5,2.5,0.8,3.9c0.2,1.4,0.5,2.8,0.7,4.3c0.4,3,0.8,6.3,1,9.8
			c0.2,3.5,0.3,7.2,0.2,11c-0.1,3.8-0.4,7.8-0.9,11.8c-0.3,2-0.6,4-0.9,6c-0.4,2-0.7,4-1.2,6c-0.5,2-0.9,4-1.5,5.9
			c-0.3,1-0.6,2-0.9,2.9c-0.3,1-0.6,1.9-1,2.9c-0.3,1-0.6,1.9-1,2.9c-0.4,0.9-0.7,1.8-1.1,2.7l-0.5,1.4l-0.3,0.7l-0.3,0.7
			c-0.4,0.9-0.8,1.8-1.1,2.7c-1.5,3.5-3.1,6.8-4.4,10c-1.3,3.2-2.5,6.2-3.3,9.1c-0.8,2.9-1.5,5.6-1.7,8c-0.2,1.2-0.2,2.3-0.2,3.4
			c0,1.1,0.1,2,0.1,2.9c0.1,0.9,0.2,1.6,0.3,2.3c0.1,0.7,0.3,1.2,0.4,1.7C403.2,367.5,403.3,368,403.3,368z"/>
	</g>
	<g id="XMLID_616_">
		<path id="XMLID_22_" class="st1" d="M122.7,395.6c0,0-0.5-0.1-1.4-0.5c-0.9-0.4-2.1-1.2-3.4-2.4c-2.7-2.4-6-6.4-9.3-11.6
			c-1.7-2.6-3.3-5.5-4.9-8.6c-1.7-3.1-3.3-6.4-4.8-9.9c-1.6-3.5-3.1-7.2-4.4-11c-0.3-1-0.7-1.9-1-2.9l-0.2-0.7l-0.2-0.8l-0.4-1.5
			l-0.8-2.9c-0.2-1-0.4-2-0.7-3c-0.9-4-1.5-8.1-2.1-12.1c-0.5-4-0.8-8-1-11.8c0-1-0.1-1.9-0.1-2.8c0-0.9,0-1.9,0-2.8
			c0-1.8,0-3.6,0-5.4c0-3.5,0.2-6.8,0.4-9.9c0.2-3,0.5-5.8,0.7-8.3c0.2-2.5,0.5-4.6,0.7-6.4c0.4-3.5,0.7-5.6,0.7-5.6s0,2-0.1,5.6
			c0,1.8-0.1,3.9-0.2,6.4c0,2.5-0.1,5.3-0.1,8.3c0,1.5,0,3.1,0,4.7c0,1.6,0.1,3.3,0.1,5.1c0.1,3.5,0.3,7.1,0.6,10.9
			c0.3,3.8,0.7,7.6,1.3,11.6c0.6,3.9,1.3,7.9,2.2,11.8c0.2,1,0.4,1.9,0.7,2.9l0.8,2.9l0.4,1.5l0.2,0.7l0.2,0.7
			c0.3,0.9,0.6,1.9,0.9,2.8c1.3,3.7,2.7,7.4,4.1,10.9c2.9,7,5.9,13.4,8.8,18.7c1.5,2.6,2.9,5,4.3,7.1c1.4,2,2.7,3.7,3.9,5
			c1.2,1.3,2.3,2.2,3.1,2.7C122.2,395.4,122.7,395.6,122.7,395.6z"/>
	</g>
	<g id="XMLID_609_">
		<path id="XMLID_20_" class="st1" d="M71.9,368.9c0,0-0.7-0.8-1.9-2.3c-0.6-0.7-1.3-1.6-2-2.7c-0.4-0.5-0.8-1.1-1.2-1.7
			c-0.4-0.6-0.8-1.3-1.2-2c-0.4-0.7-0.9-1.4-1.3-2.2c-0.4-0.8-0.8-1.6-1.2-2.4c-0.4-0.8-0.8-1.7-1.2-2.6c-0.4-0.9-0.8-1.8-1.2-2.7
			c-0.7-1.9-1.5-3.8-2.1-5.9c-0.7-2-1.1-4.1-1.7-6.3c-0.4-2.1-0.8-4.3-1.1-6.4c-0.3-2.1-0.4-4.2-0.6-6.2c0-1-0.1-2-0.1-3
			c0-1,0-1.9,0.1-2.9c0-0.9,0.1-1.8,0.1-2.7c0.1-0.9,0.2-1.7,0.3-2.5c0.1-0.8,0.2-1.6,0.3-2.3c0.1-0.7,0.3-1.4,0.4-2.1
			c0.2-1.3,0.5-2.4,0.7-3.3c0.5-1.8,0.8-2.9,0.8-2.9s0,1.1-0.2,2.9c-0.1,0.9-0.1,2.1-0.2,3.4c0,0.6,0,1.3-0.1,2.1c0,0.7,0,1.5,0,2.3
			c0,1.6,0.1,3.3,0.1,5.1c0,0.9,0.1,1.8,0.2,2.8c0.1,0.9,0.1,1.9,0.2,2.9c0.2,2,0.5,4,0.8,6c0.3,2.1,0.7,4.1,1.1,6.2
			c0.5,2,0.9,4.1,1.5,6.1c0.5,2,1.2,3.9,1.8,5.8c0.3,0.9,0.7,1.8,1,2.7c0.3,0.9,0.6,1.8,1,2.6c0.7,1.7,1.3,3.3,2,4.7
			c0.3,0.7,0.6,1.4,0.9,2.1c0.3,0.6,0.6,1.3,0.9,1.8c0.6,1.2,1.1,2.2,1.5,3C71.4,368,71.9,368.9,71.9,368.9z"/>
	</g>
	<g id="XMLID_600_">
		<path id="XMLID_18_" class="st1" d="M350.2,214.5c0,0-2.7-5.7-6.5-14.4c-1.8-4.3-4-9.4-6.3-14.8c-1.2-2.7-2.4-5.5-3.7-8.2
			c-1.3-2.8-2.7-5.6-4.2-8.3c-1.5-2.7-3-5.4-4.7-8c-0.4-0.6-0.9-1.3-1.3-1.9c-0.4-0.6-0.9-1.2-1.3-1.8c-0.9-1.2-1.7-2.4-2.7-3.5
			c-1.8-2.3-3.6-4.4-5.5-6.3c-1.9-1.9-3.7-3.6-5.5-5.1c-1.8-1.5-3.5-2.8-5.1-3.8c-0.8-0.5-1.5-1-2.2-1.4c-0.7-0.4-1.4-0.8-2-1.1
			c-0.6-0.3-1.1-0.6-1.6-0.9c-0.5-0.2-0.9-0.4-1.2-0.6c-0.7-0.3-1-0.5-1-0.5s0.4,0.1,1.1,0.3c0.4,0.1,0.8,0.3,1.3,0.4
			c0.5,0.2,1.1,0.4,1.7,0.7c0.7,0.2,1.3,0.6,2.1,0.9c0.8,0.3,1.6,0.8,2.4,1.2c1.7,0.9,3.6,2,5.6,3.4c3.9,2.7,8.1,6.5,12,11.1
			c1,1.1,1.9,2.3,2.9,3.6c0.5,0.6,0.9,1.3,1.4,1.9c0.4,0.6,0.9,1.3,1.3,1.9c1.8,2.7,3.4,5.4,4.9,8.2c1.5,2.8,2.9,5.7,4.2,8.5
			c1.3,2.8,2.4,5.7,3.5,8.5c1.1,2.8,2.1,5.5,3,8c0.9,2.5,1.7,5,2.5,7.2C348.4,208.4,350.2,214.5,350.2,214.5z"/>
	</g>
	<g id="XMLID_591_">
		<path id="XMLID_16_" class="st1" d="M144.8,214.9c0,0-0.3-0.3-0.8-0.9c-0.3-0.3-0.6-0.7-0.9-1.1c-0.3-0.5-0.7-1-1.2-1.6
			c-0.5-0.6-0.9-1.3-1.3-2.1c-0.5-0.8-0.9-1.7-1.4-2.6c-0.5-0.9-0.9-2-1.4-3.1c-0.4-1.1-0.9-2.3-1.3-3.5c-0.8-2.5-1.5-5.2-2-8.2
			c-0.5-2.9-0.9-6.1-1.1-9.3c-0.2-3.2-0.3-6.6-0.2-10c0.1-3.3,0.2-6.8,0.4-10.2c0.2-3.4,0.6-6.8,1-10.2c0.4-3.4,0.9-6.6,1.5-9.8
			c0.5-3.2,1.2-6.2,1.8-9.1c0.6-2.9,1.3-5.6,2-8.1c0.7-2.5,1.3-4.7,2-6.7c0.6-2,1.2-3.7,1.7-5.1c0.5-1.4,0.9-2.5,1.2-3.3
			c0.3-0.8,0.4-1.2,0.4-1.2s-0.4,1.7-1.1,4.6c-0.3,1.5-0.7,3.2-1.2,5.3c-0.4,2-0.9,4.3-1.4,6.8c-1,5-2,10.9-2.9,17.2
			c-0.5,3.1-0.8,6.4-1.2,9.7c-0.3,3.3-0.7,6.7-0.9,10.1c-0.3,3.4-0.4,6.7-0.5,10.1c-0.1,3.3-0.2,6.6-0.1,9.8
			c0.1,3.2,0.3,6.2,0.6,9.1c0.4,2.9,0.8,5.6,1.4,8c0.6,2.4,1.3,4.7,2,6.6c0.4,1,0.7,1.9,1.1,2.7c0.4,0.8,0.7,1.6,1.1,2.2
			c0.4,0.7,0.7,1.2,0.9,1.7c0.3,0.5,0.6,0.9,0.8,1.3C144.6,214.5,144.8,214.9,144.8,214.9z"/>
	</g>
	<g id="XMLID_588_">
		<path id="XMLID_14_" class="st1" d="M395.8,144.5c0,0,0.2,0.7,0.6,2.1c0.4,1.3,0.9,3.3,1.5,5.8c0.6,2.5,1.4,5.6,2.3,9.1
			c0.9,3.5,1.9,7.5,2.9,11.8c1,4.4,2.1,9.1,3.1,14.1c1,5,2,10.3,2.9,15.8c0.9,5.5,1.7,11.2,2.3,17.1c0.6,5.8,1.1,11.8,1.3,17.8
			c0.2,6,0.2,12,0,17.8c-0.3,5.9-0.8,11.7-1.5,17.2c-0.8,5.6-1.7,10.9-2.9,15.9c-0.5,2.5-1.2,4.9-1.9,7.3c-0.6,2.3-1.4,4.5-2.1,6.7
			c-0.8,2.1-1.5,4.1-2.2,6c-0.8,1.9-1.5,3.7-2.2,5.4c-0.8,1.6-1.5,3.2-2.1,4.6c-0.7,1.4-1.4,2.7-2,3.8c-1.2,2.3-2.3,4.1-3,5.3
			c-0.7,1.2-1.1,1.8-1.1,1.8s0.3-0.7,0.9-1.9c0.6-1.3,1.6-3.1,2.6-5.4c0.5-1.2,1.1-2.5,1.7-3.9c0.6-1.5,1.2-3,1.9-4.7
			c0.6-1.7,1.2-3.5,1.9-5.4c0.6-1.9,1.2-4,1.9-6.1c1.2-4.3,2.4-8.9,3.4-13.9c1-5,1.8-10.3,2.5-15.8c0.6-5.5,1-11.2,1.2-17
			c0.2-5.8,0.2-11.7-0.1-17.6c-0.2-5.9-0.7-11.8-1.2-17.6c-0.6-5.8-1.3-11.5-2-17c-0.8-5.5-1.6-10.8-2.5-15.8
			c-0.9-5-1.7-9.8-2.5-14.1C398,156.2,395.8,144.5,395.8,144.5z"/>
	</g>
	<g id="XMLID_585_">
		<path id="XMLID_12_" class="st1" d="M151.4,47.7c0,0-0.8,0.4-2.2,1.1c-0.7,0.3-1.6,0.8-2.6,1.4c-1,0.6-2.2,1.2-3.4,2
			c-0.6,0.4-1.3,0.8-2,1.2c-0.7,0.4-1.4,1-2.1,1.5c-1.5,1-2.9,2.2-4.6,3.5c-3.1,2.6-6.5,5.8-10,9.5c-3.4,3.7-6.9,7.9-10.3,12.5
			c-3.4,4.6-6.8,9.7-10.2,15.1c-0.8,1.3-1.7,2.7-2.5,4.1c-0.8,1.4-1.6,2.8-2.4,4.2c-0.8,1.4-1.6,2.8-2.5,4.2
			c-0.8,1.4-1.6,2.9-2.4,4.3c-0.8,1.5-1.6,2.9-2.4,4.4c-0.8,1.5-1.5,3-2.3,4.5c-0.7,1.5-1.5,3-2.2,4.5l-2.1,4.6
			c-1.5,3-2.8,6.1-4.1,9.2c-1.4,3.1-2.5,6.2-3.8,9.3l-0.9,2.3c-0.3,0.8-0.6,1.5-0.8,2.3c-0.6,1.5-1.1,3.1-1.7,4.6
			c-0.6,1.5-1.1,3-1.6,4.6c-0.5,1.5-1,3-1.5,4.5c-1.9,6-3.7,11.9-5.1,17.5c-0.8,2.8-1.4,5.5-2,8.2c-0.3,1.3-0.7,2.6-0.9,3.9
			c-0.3,1.3-0.5,2.5-0.8,3.8c-1.1,4.9-1.9,9.5-2.6,13.6c-0.7,4.1-1.2,7.6-1.6,10.5c-0.4,2.9-0.7,5.2-0.8,6.8
			c-0.2,1.6-0.3,2.4-0.3,2.4s0.1-0.8,0.1-2.4c0.1-1.6,0.2-3.9,0.4-6.9c0.3-2.9,0.6-6.5,1.1-10.6c0.5-4.1,1.1-8.7,2-13.7
			c0.2-1.3,0.4-2.5,0.7-3.8c0.2-1.3,0.5-2.6,0.8-4c0.6-2.7,1.1-5.5,1.8-8.3c1.3-5.7,2.9-11.6,4.8-17.7c1.9-6.1,4-12.3,6.4-18.6
			c1.2-3.1,2.4-6.3,3.8-9.4c1.3-3.1,2.6-6.2,4.1-9.3l2.2-4.6c0.7-1.5,1.5-3,2.3-4.5c0.8-1.5,1.5-3,2.3-4.5c0.8-1.5,1.6-2.9,2.4-4.4
			c0.8-1.5,1.6-2.9,2.4-4.4c0.9-1.4,1.7-2.8,2.6-4.2c0.9-1.4,1.7-2.8,2.5-4.2c0.9-1.4,1.7-2.7,2.6-4c3.4-5.4,7-10.4,10.6-15
			c3.6-4.6,7.3-8.8,10.9-12.4c3.6-3.6,7.2-6.7,10.5-9.1c1.7-1.2,3.2-2.4,4.8-3.3c0.8-0.5,1.5-1,2.2-1.4c0.7-0.4,1.4-0.8,2-1.2
			c1.3-0.8,2.5-1.3,3.5-1.8c1-0.5,1.9-0.9,2.7-1.2C150.6,48,151.4,47.7,151.4,47.7z"/>
	</g>
	<g id="XMLID_567_">
		<path id="XMLID_10_" class="st1" d="M395.1,377c0,0,0.9-1,2.4-2.7c0.8-0.8,1.7-1.9,2.7-3.1c1-1.2,2.2-2.5,3.4-4
			c1.3-1.5,2.5-3.1,3.9-4.8c0.7-0.9,1.4-1.8,2.1-2.7c0.7-0.9,1.4-1.9,2.1-2.8c1.4-2,2.8-4,4.2-6.1c1.5-2.1,2.8-4.3,4.1-6.4
			c1.3-2.2,2.7-4.4,3.9-6.6c1.2-2.2,2.4-4.4,3.5-6.5c0.5-1.1,1.1-2.1,1.6-3.2c0.5-1,1-2.1,1.5-3.1c0.9-2,1.8-3.9,2.6-5.7
			c0.8-1.8,1.5-3.4,2-4.9c0.6-1.5,1.1-2.7,1.5-3.8c0.8-2.1,1.3-3.3,1.3-3.3s-0.2,1.3-0.7,3.5c-0.2,1.1-0.6,2.5-1,4
			c-0.2,0.8-0.4,1.6-0.7,2.4c-0.3,0.9-0.6,1.7-0.9,2.7c-0.3,0.9-0.6,1.9-1,2.9c-0.4,1-0.8,2-1.2,3.1c-0.8,2.1-1.7,4.3-2.7,6.5
			c-1.1,2.2-2.1,4.5-3.4,6.8c-1.2,2.3-2.5,4.5-3.9,6.8c-1.4,2.2-2.8,4.4-4.3,6.5c-1.4,2.1-3,4.1-4.5,6c-1.6,1.9-3.1,3.7-4.6,5.4
			c-0.8,0.8-1.5,1.6-2.2,2.4c-0.7,0.8-1.5,1.5-2.2,2.2c-0.7,0.7-1.3,1.4-2,2c-0.7,0.6-1.3,1.2-1.9,1.7c-1.2,1.1-2.2,2-3.1,2.7
			C396.1,376.2,395.1,377,395.1,377z"/>
	</g>
	<g id="XMLID_399_">
		<path id="XMLID_8_" class="st1" d="M67.6,277.2c0,0,0,1,0,2.7c0,1.7,0,4.1-0.1,7c0,1.4-0.1,3-0.1,4.6c-0.1,1.6-0.1,3.4-0.2,5.2
			c-0.1,3.6-0.2,7.4-0.4,11.2c-0.1,3.8-0.3,7.6-0.4,11.2c0,1.8-0.1,3.5-0.2,5.2c-0.1,1.6-0.1,3.2-0.2,4.6c-0.1,2.9-0.3,5.3-0.4,7
			c-0.1,1.7-0.2,2.6-0.2,2.6s-0.2-1-0.4-2.6c-0.1-0.8-0.3-1.9-0.4-3c-0.1-1.2-0.3-2.5-0.4-3.9c-0.1-1.4-0.2-3-0.3-4.7
			c-0.1-1.7-0.2-3.4-0.2-5.2c0-1.8-0.1-3.7-0.1-5.6c0-1.9,0.1-3.8,0.1-5.8c0.1-1.9,0.2-3.8,0.3-5.7c0.1-1.9,0.3-3.8,0.4-5.6
			c0.2-1.8,0.4-3.5,0.6-5.2c0.2-1.6,0.4-3.2,0.6-4.6c0.2-1.4,0.4-2.7,0.7-3.9c0.2-1.2,0.4-2.2,0.6-3
			C67.4,278.1,67.6,277.2,67.6,277.2z"/>
	</g>
</g>
</svg>
