<?xml version="1.0" encoding="utf-8"?>
<!-- Generator: Adobe Illustrator 19.0.0, SVG Export Plug-In . SVG Version: 6.00 Build 0)  -->
<svg version="1.1" id="Layer_1" xmlns="http://www.w3.org/2000/svg" xmlns:xlink="http://www.w3.org/1999/xlink" x="0px" y="0px"
	 viewBox="-294 119 370.3 323" enable-background="new -294 119 370.3 323" xml:space="preserve">
<g id="XMLID_998_">
	<path id="XMLID_1006_" fill="#EF7B05" d="M14,433.4c3-5.5,7.4-33.2,11.5-48.8c12.8-48.7,42.9-146.3-9.2-184.1
		c-2.2-1.6-2.2-4.8-5.2-11.9c-11.5-27.4-43.3-36.2-70-32.1c-5.6,0.8-12-1.9-19.6-5.8c-50.2-26.2-144.2,33-163.9-19.1
		c-21,32.9-19.4,67.7-1.2,85c-38.5,55.8-12.2,111.5,3.8,156c5,13.9,11.4,47.6,12.1,52c-0.8-32.4-1.9-105.8,13.6-130.3
		c16.6-26.2,50.4-16.6,74.5-10.5c47.1,12,31.7,2.2,76-4.6c22.1-3.4,46.3-0.1,58.7,8.2c21.2,14.3,22,43.2,20,78.5
		C13.9,387.1,16.8,412.4,14,433.4z"/>
	<path id="XMLID_999_" fill="#FFFFFF" d="M-33.1,269.6c4.4-1.8,14-6.7,21.4-15c33.8-38,2.9-82-38.9-85.9c-3.8-0.3,0.8,3.3,4.7,8.6
		c22.3,30,2.4,65.9-20.8,88.9c-3.6,3.6-4.9,4.8-1.9,3.9c3.1-0.9,10.5-3.8,18.4-8.8c18.7-11.6,27.1-23.8,29.5-44.8
		c0.8-7.3,0.7-12.6,2.1-11.8c1.5,0.8,4.6,7.6,5.2,16.2s-1.5,18.9-5.6,27.1c-4.2,8.2-10.5,14.4-14.1,18.1
		C-36.6,270-37.5,271.4-33.1,269.6L-33.1,269.6z M-218.9,279.9c-0.7-0.6-1.4-1.2-2.1-1.7c-14.5-12-17.8-14.9-28.9-39.5
		c2.7,23.1,14.2,43.1,14.2,44.2c0,1.6-4.5-1.4-8.4-5.5c-3.8-4.1-7-9.4-7.7-9c-0.7,0.3,1.1,6.3,3.3,12.5c2.3,6.2,5,12.5,9,16.8
		c4,4.2,9.2,6.3,11.2,5.9c2.1-0.4,1.1-3.3,0.3-6.3c-0.8-3-1.3-6.2-0.8-7.6c0.6-1.4,2.2-1.1,4.8-1.2
		C-216.2,288.2-211.9,285.7-218.9,279.9L-218.9,279.9z M0.9,273.3c14.6-12.6,28.4-43.5,28.4-43.4c1.6,15-2,25.2-9.9,37.9
		c-2.9,4.7-5,5-3.4,5.5c3,0.9,8.4-2.7,12.8-8.3c4.8-6.2,8.5-14.5,8.5-14.5c1.1-0.5,0.2,6.1-1.3,12.4c-2.7,10.9-11.7,22.6-22.4,28.2
		c-7.5,3.9-0.9-10-2.1-11.6c-0.2-0.2-1.2,0.2-2.3,0.7c-4.8,2.2-12.9-2.8-10.1-5.3C-0.3,274.4,0.3,273.8,0.9,273.3L0.9,273.3z
		 M-244.9,167.1c21.4,56.3,93.9,50.8,91.2,106.9C-168.4,229.3-243.1,243.5-244.9,167.1L-244.9,167.1z M-144.7,270
		c-5.9,6.1-2.3,0.8-0.9-3.9c11.8-38.7,10.1-47-34.4-63.7c-21.5-8-46.2-19.1-58-51.2c16.6,22.2,47.3,28.3,72.9,37
		C-114.4,205.5-110.8,235-144.7,270L-144.7,270z M-97,270.1c-3.6,1,1.4-4.2,4.4-8.5c6.4-9,16.4-25.2,12.7-36.7
		c-2,13.6-27.4,39.8-41,46.3c-5.6,2.7-9.3,2.9-8.9,1.8c0.5-1,5.1-3.3,9.6-7.3c4.5-3.9,9-9.5,12.4-15.6c22.3-39.3-7.6-59.8-34-68.9
		c-16.3-5.6-28.8-3.5-34.3-8.7c-1-1,2.5-0.3,7-1c57.1-9.7,71.3,15.2,81.3,30.7c-3.3-16.7-9.1-23.6-21.9-35.2
		c-2.6-2.4-4.7-3.3-4.5-4.2c0.3-2,9.2-0.1,18.2,3.4c9.1,3.5,18.3,8.6,25.2,16.9s11.3,19.8,11.2,32.3c-0.1,12.4-4.7,25.7-13.1,36
		C-81.2,261.7-93.4,269.1-97,270.1z"/>
</g>
</svg>
