<?xml version="1.0" encoding="utf-8"?>
<!-- Generator: Adobe Illustrator 19.0.0, SVG Export Plug-In . SVG Version: 6.00 Build 0)  -->
<svg version="1.1" id="Layer_1" xmlns="http://www.w3.org/2000/svg" xmlns:xlink="http://www.w3.org/1999/xlink" x="0px" y="0px"
	 viewBox="0 0 374.3 328.4" style="enable-background:new 0 0 374.3 328.4;" xml:space="preserve">
<style type="text/css">
	.st0{fill:#EF7B05;}
	.st1{fill:#FFFFFF;}
</style>
<g id="XMLID_7738_">
	<g id="XMLID_7884_">
		<path id="XMLID_7885_" class="st0" d="M60.3,305.5c-7.6-5.8-11.5-9.6-14-19c-1.9-7.1-6.6-17.1-4.8-24.3c1.2-4.8,3.8-6.4,2.2-11.9
			c-1.1-3.9-3.8-8.3-6.5-11.4c-3.9-4.4-4.7-3.8-4-9.7c0.5-4.9-0.9-6.4-3.1-10.8c-4.3-8.8,0-15.5-1-24.5c-1-9.1-0.2-17.9-0.7-26.9
			c-0.4-8.3,0.5-17.5-2.7-24.9c-3.9-9,1.7-15.6,3.3-24.3c2-11,4.5-15.9,14-21.8c4.1-2.5,7.2-5.5,8.1-10.2c0.8-3.8-1.5-9.6,0.6-12.9
			c2.2-3.3,7.3-4.6,9.7-8.2c1.5-2.3,1.7-4.4,4.3-6.4c2.3-1.7,4.8-1.5,6.4-4.4c2.1-4.1-0.3-8.1,2.7-12c2.7-3.5,7.5-4.9,11.5-5.7
			c7.8-1.5,15.8,5.4,22.2,1.5c3.7-2.3,4.7-4.4,9.2-5.4c4.2-0.9,8.7-0.5,12.9-0.1c-1.5-9.6,17.8-7.2,22.8-8c4.3-0.7,7.1-2.5,11.9-3.3
			c5.5-0.9,5.7-4.8,10.8-7c7.6-3.2,18.9-0.9,26,1.6c3.8,1.4,7.8,3,11.3,5c4.5,2.5,4.9,5.3,7.6,8.5c5.5,6.7,17.8,3.9,25.4,4.3
			c5.5,0.3,8.1,3.6,12,7c4.8,4,6,3.8,11.8,3.8c3.8,0,8.3,0.6,11.4,2.7c3.6,2.5,3.3,5.1,5.3,8.7c2.3,4,5.2,4.8,8.8,7.2
			c4.2,2.8,5.3,7.1,9.2,9.1c3.8,1.9,7.5,0.8,9.9,5.8c2,4.2,0.5,7.8,4.1,11.5c2.9,3.1,7.1,3.7,9.7,7.7c2.4,3.7,3.6,8.2,4.9,12.3
			c2.4,7.7,8.7,13.5,10.3,21.2c1.9,9.2-4,18-6.3,26.9c-2.7,10.6-2.7,17.9-2.2,28.7c0.4,9,3.3,17.9,3.7,26.5
			c0.2,5.1-1.8,8.9-3.9,13.4c-2.3,5-2.7,9.4-3.5,14.7c-0.9,6.1-1.4,6-5.5,9.6c-3.2,2.8-5.8,6.2-7.6,9.9c-2.2,4.7-4,9-5.5,13.9
			c-0.9,2.9-2.7,5.1-3.1,8.3c-0.4,2.8,0.7,5.4,0.5,8.1c-0.2,5.2-2.7,10.3-5.5,14.6c-3,4.6-4.6,8-6.9,12.8c-2.2-8.4-0.5-17.2,0-26.3
			c0.4-8.6,4.9-17.9,3.3-26.5c-0.7-3.9-2.5-6.9-2.7-11.3c-0.7-13.5-7.3-18.2-12.2-29.3c-3.7-8.4-1.7-21.2-1.9-30.1
			c-0.4-18.7-2.4-40.2-22.5-47.9c-14.7-5.7-30.9-7.8-46.5-8.6c-12.9-0.7-26.3,10.3-39,4.1c-18.5-9.1-38.2-13.6-58.8-8.5
			c-15.3,3.8-32.1,14.4-37,30.1c-4,12.8,1.7,23.9-4.8,36.9c-5.8,11.7-13.6,23.1-14.4,36.6c-0.5,9.1,4.1,16.7,2.7,25.9
			c-1.2,8.5-1.1,16.1-1.1,24.9c0,3.6,1,7.5,0.5,10.9C63.1,302.2,62.2,302.3,60.3,305.5z"/>
	</g>
	<g id="XMLID_7739_">
		<g id="XMLID_7881_">
			<g id="XMLID_7882_">
				<path id="XMLID_7883_" class="st1" d="M196.1,40.3c0,0,0.6,0.6,1.5,1.7c0.9,1.1,2.3,2.7,3.6,4.8c1.3,2.1,2.5,4.8,3.1,7.9
					c0.6,3.1,0.5,6.5,0.1,9.8c-0.4,3.3-1.3,6.7-2.6,9.6c-1.3,2.9-2.9,5.4-4.3,7.5c-1.4,2.1-2.7,3.8-3.5,5c-0.9,1.2-1.4,1.9-1.4,1.9
					c0,0-0.6,0.7-1.4,1.8c-0.8,1.1-1.9,2.7-2.8,4.8c-0.9,2.1-1.6,4.7-1.9,7.7c-0.3,2.9-0.2,6.1,0,9.3c0.2,3.2,0.5,6.4,0.5,9.4
					c0.1,3-0.2,5.8-0.6,8.2c-0.5,2.4-1.1,4.3-1.7,5.5c-0.3,0.7-0.5,1.1-0.7,1.5c-0.2,0.3-0.3,0.5-0.3,0.5s0.1-0.2,0.2-0.5
					c0.1-0.3,0.4-0.8,0.6-1.5c0.5-1.3,1.1-3.2,1.4-5.6c0.3-2.4,0.4-5.1,0.2-8.1c-0.2-3-0.6-6.1-1-9.3c-0.4-3.2-0.7-6.4-0.5-9.5
					c0.1-3.1,0.7-6,1.6-8.4c0.9-2.4,2-4.2,2.9-5.5c0.8-1.2,1.3-1.9,1.4-1.9c0,0,0.6-0.7,1.5-1.9c0.9-1.2,2.3-2.8,3.7-4.7
					c1.5-2,3.1-4.3,4.5-7c1.4-2.7,2.4-5.7,3-8.9c0.5-3.2,0.8-6.5,0.4-9.5c-0.4-3-1.4-5.7-2.6-7.9c-1.2-2.1-2.4-3.8-3.3-4.9
					C196.7,40.9,196.1,40.3,196.1,40.3z"/>
			</g>
		</g>
		<g id="XMLID_7878_">
			<g id="XMLID_7879_">
				<path id="XMLID_7880_" class="st1" d="M209.6,49c0,0,0,0.2,0.1,0.5c0,0.2,0.1,0.4,0.2,0.6c0.1,0.3,0.1,0.5,0.3,0.9
					c0.4,1.3,1.3,3,2.4,5c0.5,1,1.1,2.2,1.6,3.4c0.3,0.6,0.4,1.3,0.6,2c0.1,0.7,0.3,1.4,0.4,2.1c0.1,0.4,0.1,0.7,0.2,1.1
					c0,0.4,0.1,0.8,0.1,1.1c0,0.8,0.1,1.5,0.1,2.3c0,0.8,0,1.6-0.1,2.3c0,0.8-0.1,1.6-0.2,2.4c0,0.4-0.1,0.8-0.1,1.2l-0.2,1.2
					c-0.2,0.8-0.3,1.6-0.5,2.3c-0.5,1.5-0.9,3-1.5,4.4c-0.3,0.7-0.6,1.4-0.9,2c-0.3,0.6-0.7,1.3-1,1.9c-0.3,0.6-0.6,1.2-1,1.7
					c-0.3,0.6-0.7,1.1-1,1.6c-1.3,2-2.5,3.6-3.3,4.8c-0.8,1.1-1.3,1.8-1.4,1.8c0,0-0.6,0.7-1.4,1.7c-0.4,0.5-0.9,1.1-1.4,1.8
					c-0.3,0.3-0.5,0.8-0.8,1.2c-0.3,0.4-0.5,0.9-0.8,1.3c-1,1.9-1.8,4.3-2.2,7c-0.4,2.7-0.4,5.7-0.5,8.8c-0.3,6.1-2,12-3.3,16.3
					c-1.4,4.3-2.3,7.2-2.3,7.2s0.7-2.9,1.8-7.3c1.1-4.4,2.4-10.3,2.3-16.2c0-3-0.2-6,0-8.9c0.2-2.9,1-5.7,2-7.9
					c0.3-0.5,0.6-1,0.8-1.5c0.3-0.5,0.5-1,0.8-1.3c0.6-0.8,1-1.5,1.4-2.1c0.8-1.1,1.3-1.7,1.3-1.8c0,0,0.6-0.7,1.4-1.7
					c0.9-1.1,2.1-2.6,3.5-4.4c0.3-0.5,0.7-1,1-1.5c0.4-0.5,0.7-1,1-1.6c0.3-0.6,0.7-1.1,1-1.7c0.3-0.6,0.6-1.2,0.9-1.9
					c0.7-1.3,1.1-2.7,1.7-4.1c0.2-0.7,0.4-1.4,0.6-2.2l0.3-1.1c0.1-0.4,0.1-0.8,0.2-1.1c1.1-6,0.6-12.3-1.7-16.4
					c-1-2.1-1.8-3.9-2.1-5.2c-0.1-0.3-0.2-0.6-0.2-0.9c-0.1-0.3-0.1-0.5-0.1-0.7C209.7,49.1,209.6,49,209.6,49z"/>
			</g>
		</g>
		<g id="XMLID_7875_">
			<g id="XMLID_7876_">
				<path id="XMLID_7877_" class="st1" d="M220.5,55.5c0,0,0.8,0.4,2.1,1.1c1.3,0.7,3.2,1.8,5.3,3.3c2.1,1.5,4.4,3.5,6.3,6.1
					c1.9,2.6,3.3,6,3.7,9.5l0.1,1.3c0,0.4,0,0.9,0,1.3c0,0.4,0,0.9,0,1.3c0,0.4-0.1,0.9-0.1,1.3c-0.2,1.7-0.4,3.4-0.9,5
					c-0.8,3.2-2.4,6.1-4.1,8.2c-1.7,2.1-3.5,3.6-4.7,4.6c-0.6,0.5-1.2,0.8-1.5,1.1c-0.4,0.2-0.6,0.4-0.6,0.4c-0.1,0-0.8,0.5-2.2,1.2
					c-1.3,0.7-3.3,1.6-5.5,2.7c-2.2,1.1-4.9,2.3-7.4,4c-2.5,1.7-4.8,3.9-6.4,6.7l-0.6,1.1c-0.2,0.4-0.3,0.7-0.5,1.1
					c-0.3,0.7-0.6,1.5-0.8,2.3c-0.1,0.4-0.3,0.8-0.4,1.1c-0.1,0.4-0.2,0.8-0.3,1.1c-0.2,0.8-0.4,1.5-0.6,2.3c-0.7,3-1.2,5.9-1.7,8.3
					c-0.5,2.4-0.9,4.5-1.2,5.9c-0.4,1.4-0.6,2.2-0.6,2.2s0.2-0.8,0.5-2.2c0.3-1.4,0.6-3.5,0.9-5.9c0.3-2.5,0.7-5.3,1.2-8.4
					c0.1-0.8,0.3-1.5,0.5-2.3c0.1-0.4,0.2-0.8,0.3-1.2c0.1-0.4,0.2-0.8,0.3-1.2c0.2-0.8,0.4-1.6,0.8-2.4c0.2-0.4,0.3-0.8,0.5-1.2
					l0.5-1.2c1.5-3.1,4-5.7,6.5-7.6c2.6-1.9,5.2-3.3,7.4-4.6c2.2-1.2,4.1-2.2,5.3-2.9c1.3-0.7,1.9-1.2,2-1.2c0,0,0.2-0.1,0.6-0.3
					c0.3-0.2,0.8-0.5,1.5-0.9c1.2-0.8,2.9-2.1,4.5-3.9c0.8-0.9,1.6-2,2.3-3.2c0.4-0.6,0.7-1.3,1-1.9c0.3-0.7,0.6-1.4,0.8-2.1
					c0.9-2.9,1.5-6.3,1.3-9.6c-0.1-3.3-1.3-6.5-3-9.1c-1.7-2.6-3.9-4.7-5.9-6.3c-2-1.6-3.8-2.7-5.1-3.5
					C221.2,55.9,220.5,55.5,220.5,55.5z"/>
			</g>
		</g>
		<g id="XMLID_7872_">
			<g id="XMLID_7873_">
				<path id="XMLID_7874_" class="st1" d="M173.4,125.8c0,0,0-0.2-0.1-0.6c-0.1-0.4-0.2-1-0.4-1.8c-0.4-1.5-1.2-3.7-2.5-6.1
					c-1.2-2.4-2.9-5.1-4.3-8.3c-0.6-1.6-1.2-3.3-1.5-5.2c-0.2-1.8-0.2-3.8,0.1-5.6c0.3-1.9,0.8-3.7,1.6-5.4c0.3-0.9,0.8-1.7,1.2-2.5
					c0.5-0.8,0.9-1.6,1.5-2.3c2.1-2.9,4.5-5.2,6.6-7c2.1-1.8,4-3.3,5.2-4.3c0.6-0.5,1.1-0.9,1.5-1.2c0.3-0.3,0.5-0.4,0.5-0.5
					c0,0,0.2-0.2,0.5-0.4c0.2-0.1,0.4-0.3,0.6-0.5c0.2-0.2,0.5-0.4,0.8-0.7c1.1-1,2.6-2.5,4-4.7c1.4-2.1,2.5-4.9,3-8.1
					c0.4-3.2,0.1-6.6-1.1-9.9c-0.6-1.6-1.3-3.2-2.2-4.6c-0.4-0.7-0.9-1.4-1.4-2.1c-0.5-0.6-1-1.3-1.6-1.9c-2.2-2.4-4.7-4.2-7.1-5.4
					c-2.3-1.2-4.4-2-5.9-2.4c-0.7-0.2-1.3-0.3-1.7-0.4c-0.4-0.1-0.6-0.1-0.6-0.1s0.2,0,0.6,0.1c0.4,0.1,1,0.1,1.8,0.3
					c1.5,0.3,3.7,1,6.1,2.1c2.4,1.1,5.1,2.8,7.5,5.2c0.6,0.6,1.2,1.2,1.8,1.9c0.5,0.7,1.1,1.4,1.6,2.1c1,1.5,1.9,3.1,2.6,4.8
					c1.4,3.4,2,7.1,1.7,10.6c-0.3,3.5-1.4,6.6-2.9,9.1c-1.4,2.5-3,4.2-4.2,5.4c-0.3,0.3-0.6,0.6-0.8,0.8c-0.2,0.2-0.5,0.4-0.6,0.6
					c-0.4,0.3-0.6,0.5-0.6,0.5c-0.1,0.2-3.2,2.2-7.5,5.6c-2.1,1.7-4.5,3.7-6.6,6.4c-0.5,0.6-1,1.3-1.5,2c-0.4,0.7-0.9,1.5-1.3,2.2
					c-0.8,1.5-1.3,3.2-1.7,5c-0.4,1.7-0.5,3.5-0.3,5.2c0.1,1.7,0.6,3.4,1.2,5c1.1,3.2,2.7,6,3.8,8.5c1.2,2.5,1.9,4.7,2.2,6.2
					c0.2,0.8,0.2,1.4,0.3,1.8C173.4,125.6,173.4,125.8,173.4,125.8z"/>
			</g>
		</g>
		<g id="XMLID_7869_">
			<g id="XMLID_7870_">
				<path id="XMLID_7871_" class="st1" d="M171.3,135.8c0,0-0.3-0.9-0.9-2.4c-0.6-1.5-1.5-3.6-2.5-6.2c-2.1-5.1-5.3-11.8-7.2-19
					c-0.9-3.6-1.5-7.4-1.3-11c0-0.9,0.1-1.8,0.2-2.6c0-0.4,0.1-0.9,0.1-1.3c0-0.4,0.2-0.8,0.2-1.2c0.2-0.8,0.3-1.6,0.5-2.4
					c0.2-0.7,0.5-1.5,0.7-2.1c0.1-0.3,0.2-0.7,0.3-1c0.1-0.3,0.3-0.6,0.4-1c0.1-0.3,0.3-0.6,0.4-0.9c0.2-0.3,0.3-0.6,0.5-0.8
					c0.3-0.5,0.6-1,0.9-1.4c0.3-0.4,0.6-0.8,0.8-1.2c0.3-0.3,0.5-0.6,0.7-0.9c0.2-0.3,0.4-0.5,0.6-0.7c0.3-0.4,0.5-0.6,0.5-0.6
					c0,0,0.7-0.7,2-1.8c1.2-1.1,3-2.6,4.8-4.4c1-0.9,1.9-2,2.8-3.1c0.9-1.2,1.6-2.5,2.2-4c1.1-3,1.6-6.5,1.3-10
					c-0.1-0.9-0.3-1.7-0.4-2.6c-0.2-0.8-0.4-1.7-0.7-2.5c-0.3-0.8-0.6-1.6-1-2.3c-0.2-0.4-0.4-0.7-0.6-1.1c-0.2-0.4-0.4-0.7-0.6-1.1
					c-0.5-0.7-0.9-1.4-1.4-2c-0.5-0.6-1-1.2-1.5-1.8c-0.5-0.5-1.1-1.1-1.6-1.6c-0.5-0.5-1-1-1.5-1.4c-2-1.8-3.6-3.3-4.7-4.4
					c-1.1-1.1-1.7-1.8-1.7-1.8s0.7,0.6,1.8,1.7c1.2,1,2.9,2.5,4.9,4.2c0.5,0.4,1.1,0.9,1.6,1.4c0.5,0.5,1.1,1,1.7,1.5
					c0.5,0.6,1.1,1.2,1.6,1.8c0.5,0.6,1,1.3,1.5,2c0.3,0.3,0.5,0.7,0.7,1.1c0.2,0.4,0.4,0.8,0.7,1.1c0.5,0.7,0.8,1.6,1.2,2.4
					c0.4,0.8,0.6,1.7,0.9,2.6c0.2,0.9,0.4,1.8,0.5,2.7c0.5,3.7,0.2,7.4-0.8,10.8c-0.6,1.7-1.4,3.3-2.3,4.6c-0.9,1.3-1.9,2.5-2.9,3.5
					c-1.9,2-3.6,3.6-4.7,4.7c-1.1,1.1-1.7,1.8-1.8,1.8c0,0-0.2,0.2-0.5,0.5c-0.2,0.2-0.3,0.4-0.6,0.6c-0.2,0.2-0.4,0.5-0.7,0.8
					c-1,1.2-2.3,2.9-3.2,5.5c-0.2,0.6-0.5,1.3-0.7,2c-0.2,0.7-0.4,1.4-0.6,2.2c-0.1,0.4-0.2,0.7-0.3,1.1c-0.1,0.4-0.1,0.8-0.2,1.2
					c-0.1,0.8-0.3,1.6-0.3,2.5c-0.3,3.4,0,7,0.8,10.6c1.5,7.2,4.3,14,6.2,19.2c1,2.6,1.7,4.8,2.3,6.3
					C171,135,171.3,135.8,171.3,135.8z"/>
			</g>
		</g>
		<g id="XMLID_7866_">
			<g id="XMLID_7867_">
				<path id="XMLID_7868_" class="st1" d="M149.6,122.6c0,0,0.1-0.2,0.2-0.7c0.1-0.2,0.2-0.5,0.3-0.8c0.1-0.2,0.1-0.3,0.2-0.5
					c0-0.2,0.1-0.4,0.1-0.6c0.1-0.4,0.2-0.9,0.3-1.4c0.1-0.5,0.1-1,0.2-1.6c0.1-1.2,0.1-2.5-0.1-3.9c-0.3-2.9-1.1-6.1-2.5-9.4
					c-1.3-3.3-3.1-6.7-5.2-9.9c-0.5-0.8-1.1-1.6-1.6-2.4c-0.6-0.8-1.1-1.5-1.7-2.2c-1.2-1.4-2.5-2.6-4-3.6c-1.4-0.9-3-1.6-4.5-2.1
					c-1.5-0.4-3-0.7-4.4-0.8c-2.8-0.3-5.3-0.4-7-0.5c-1.8-0.1-2.8-0.2-2.9-0.2c0,0-0.3,0-0.8-0.1c-0.2,0-0.5-0.1-0.9-0.1
					c-0.3-0.1-0.8-0.2-1.2-0.3c-0.9-0.2-2-0.6-3.1-1.2c-1.1-0.7-2.3-1.7-3.2-3c-0.9-1.4-1.4-3.1-1.6-4.8c-0.2-1.8,0-3.6,0.4-5.4
					c0.8-3.6,2.4-7.2,4.8-10.3c2.4-3.1,5.5-5.4,8.6-7.2c3.1-1.8,6.2-3,8.9-3.6c2.7-0.7,5.1-0.9,6.7-0.9c0.8,0,1.5,0,1.9,0.1
					c0.4,0,0.7,0.1,0.7,0.1s-0.2,0-0.7,0c-0.4,0-1.1,0-1.9,0c-1.6,0.1-4,0.4-6.6,1.2c-2.7,0.8-5.7,2.1-8.6,4
					c-2.9,1.9-5.8,4.3-7.9,7.2c-2.1,3-3.5,6.5-4,9.8c-0.6,3.3-0.1,6.5,1.3,8.5c1.4,2,3.5,2.7,5,3c0.4,0.1,0.7,0.1,1,0.2
					c0.3,0,0.6,0.1,0.8,0.1c0.5,0.1,0.7,0.1,0.7,0.1c0.1,0,1.1,0.2,2.8,0.4c1.7,0.2,4.1,0.4,7.1,0.8c1.5,0.2,3.1,0.6,4.8,1.1
					c1.7,0.6,3.3,1.4,4.9,2.5c1.5,1.2,2.9,2.6,4.2,4.1c0.6,0.8,1.2,1.6,1.7,2.4c0.5,0.8,1,1.7,1.5,2.5c2,3.4,3.6,6.9,4.8,10.4
					c1.2,3.4,1.9,6.8,2.1,9.7c0.1,1.5,0,2.8-0.1,4c-0.1,0.6-0.2,1.1-0.2,1.6c-0.1,0.5-0.3,0.9-0.4,1.4c-0.1,0.2-0.1,0.4-0.2,0.6
					c-0.1,0.2-0.1,0.3-0.2,0.5c-0.1,0.3-0.2,0.6-0.3,0.8C149.7,122.3,149.6,122.6,149.6,122.6z"/>
			</g>
		</g>
		<g id="XMLID_7863_">
			<g id="XMLID_7864_">
				<path id="XMLID_7865_" class="st1" d="M152.8,125.3c0,0,0.2-0.8,0.6-2.2c0.4-1.4,0.9-3.4,1.5-5.8c0.6-2.4,1.2-5.3,1.5-8.3
					c0.3-3.1,0.3-6.4-0.3-9.6c-0.5-3.2-1.5-6.3-2.7-9.2c-1.1-2.9-2.5-5.4-3.7-7.5c-1.3-2.1-2.6-3.7-3.5-4.7c-1-1-1.6-1.6-1.6-1.6
					c0,0-0.6-0.6-1.6-1.5c-1-0.8-2.8-1.8-4.9-2.9c-2.2-1.1-4.8-2.3-7.4-4.2c-1.3-0.9-2.5-2.1-3.5-3.6c-0.4-0.8-0.8-1.6-1-2.5
					c-0.2-0.9-0.1-1.8,0-2.7c0.3-1.7,1.1-3.3,2.1-4.6c1-1.3,2.2-2.4,3.4-3.3c2.4-1.9,4.9-3.3,7.1-4.4c2.2-1.1,4.1-1.7,5.4-2.1
					c0.7-0.2,1.2-0.3,1.6-0.4c0.4-0.1,0.6-0.1,0.6-0.1s-0.2,0.1-0.6,0.2c-0.4,0.1-0.9,0.3-1.5,0.5c-1.3,0.5-3.2,1.3-5.3,2.4
					c-2.1,1.2-4.5,2.7-6.7,4.6c-1.1,1-2.2,2.1-3,3.3c-0.9,1.2-1.5,2.6-1.6,4.1c-0.1,0.7,0,1.5,0.1,2.1c0.2,0.7,0.5,1.3,0.9,1.9
					c0.8,1.2,2,2.1,3.2,2.9c2.4,1.6,5,2.6,7.3,3.6c2.2,1,4.2,1.9,5.5,2.8c1.3,0.9,1.9,1.5,2,1.6c0,0,0.7,0.7,1.7,1.9
					c1,1.2,2.3,3,3.5,5.3c1.3,2.3,2.5,5,3.5,8c1,3,1.9,6.3,2.3,9.7c0.4,3.4,0.2,6.8-0.3,9.9c-0.5,3.1-1.2,5.9-1.9,8.3
					c-0.7,2.4-1.3,4.4-1.8,5.7C153.1,124.5,152.8,125.3,152.8,125.3z"/>
			</g>
		</g>
		<g id="XMLID_7860_">
			<g id="XMLID_7861_">
				<path id="XMLID_7862_" class="st1" d="M155,25.7c0,0-0.2-0.1-0.5-0.2c-0.3-0.1-0.8-0.4-1.4-0.6c-1.3-0.4-3.1-0.9-5.4-1.1
					c-2.2-0.1-4.9,0.1-7.5,1.1c-1.3,0.5-2.5,1.4-3.5,2.3c-1.1,1-2,2.1-2.5,3.4c-0.6,1.3-0.4,2.6,0.3,3.6c0.8,1.1,1.9,1.7,3.1,1.9
					c1.2,0.2,2.6,0.1,3.8,0c1.2-0.2,2.4-0.5,3.5-0.7c2.2-0.5,4.1-1.1,5.5-1.3c1.4-0.3,2.3-0.4,2.3-0.4c0.1,0,0.9-0.1,2.4,0
					c0.7,0.1,1.7,0.2,2.7,0.7c0.4,0.2,0.9,0.5,1.4,0.7c0.5,0.3,1,0.6,1.5,1c1,0.7,1.9,1.7,2.7,2.9c0.8,1.2,1.4,2.5,1.8,3.9
					c0.8,2.8,1,6,0.6,9c-0.7,6-2.9,11.7-4.8,15.7c-1,2-2,3.6-2.7,4.7c-0.4,0.5-0.7,1-0.9,1.2c-0.2,0.3-0.3,0.4-0.3,0.4
					s0.1-0.2,0.3-0.4c0.2-0.3,0.5-0.7,0.8-1.3c0.7-1.1,1.5-2.7,2.4-4.8c1.7-4,3.5-9.8,3.8-15.6c0.2-2.9-0.1-5.8-1-8.3
					c-0.5-1.2-1.1-2.3-1.8-3.3c-0.7-0.9-1.5-1.7-2.4-2.2c-0.4-0.3-0.9-0.5-1.2-0.8c-0.4-0.2-0.8-0.4-1.2-0.5
					c-0.7-0.3-1.3-0.3-1.9-0.4c-1.2,0-1.9,0.1-1.9,0.1c0,0-0.8,0-2.1,0.2c-1.3,0.2-3.2,0.6-5.5,1c-1.2,0.2-2.4,0.4-3.8,0.6
					c-1.4,0.1-2.9,0.2-4.5-0.2c-0.8-0.2-1.6-0.5-2.3-1l-0.5-0.4l-0.5-0.4c-0.3-0.3-0.5-0.7-0.8-1c-1-1.5-1-3.6-0.2-5.1
					c0.7-1.5,1.9-2.7,3.1-3.7c1.2-1,2.5-1.8,4-2.3c2.8-1,5.6-1,7.9-0.7c2.3,0.3,4.1,0.9,5.4,1.4c0.6,0.3,1.1,0.5,1.4,0.7
					C154.8,25.6,155,25.7,155,25.7z"/>
			</g>
		</g>
		<g id="XMLID_7857_">
			<g id="XMLID_7858_">
				<path id="XMLID_7859_" class="st1" d="M116,84.1c0,0-0.8-0.3-2.3-0.7c-1.5-0.4-3.6-0.8-6.2-1.4c-1.3-0.3-2.7-0.7-4.1-1.2
					c-1.4-0.5-3-1.2-4.3-2.2c-1.4-1-2.5-2.5-3.1-4.3c-0.6-1.8-0.7-3.7-0.3-5.5c0.3-1.8,0.7-3.5,0.8-5.1c0-0.8,0.1-1.6-0.1-2.3
					c-0.2-0.7-0.5-1.3-0.9-1.7l-0.4-0.3c-0.1,0-0.2-0.1-0.3-0.1c-0.3-0.1-0.6-0.1-0.9-0.1c-0.6,0-1.3,0.2-2,0.4
					c-1.4,0.4-2.6,1-3.8,1.6c-1.2,0.6-2.4,1.1-3.4,1.5c-1,0.4-1.9,0.9-2.7,1.2c-1.6,0.6-2.7,0.8-2.8,0.8c0,0-0.3,0-0.9,0.1
					c-0.5,0-1.3,0-2.3-0.5c-1-0.4-1.9-1.3-2.6-2.4c-0.1-0.3-0.3-0.6-0.4-0.8c-0.2-0.3-0.2-0.7-0.4-1c-0.2-0.7-0.3-1.4-0.3-2.2
					c0-3,1.3-6,3-8.8c0.9-1.4,2-2.8,3.3-4c0.7-0.6,1.4-1.1,2.1-1.6c0.3-0.3,0.8-0.5,1.1-0.7l1.2-0.6c3.2-1.5,7-1.9,10.2-1.1
					c3.2,0.8,5.8,2.6,7.6,4.5c1.8,1.9,2.9,3.8,3.5,5.1c0.3,0.7,0.5,1.2,0.7,1.6c0.1,0.4,0.2,0.6,0.2,0.6s-0.1-0.2-0.3-0.6
					c-0.2-0.4-0.4-0.9-0.7-1.6c-0.7-1.3-1.9-3.1-3.7-4.9C98.6,44,96,42.5,93,41.8c-3.1-0.6-6.5-0.1-9.4,1.5L82.5,44
					c-0.3,0.2-0.7,0.4-1,0.7c-0.6,0.5-1.3,1-1.9,1.6c-1.1,1.1-2,2.5-2.8,3.8c-1.5,2.7-2.4,5.5-2.3,7.8c0.1,1.1,0.4,1.9,0.9,2.7
					c0.5,0.7,1,1.1,1.5,1.2c0.9,0.3,1.7,0.1,1.8,0.1c0,0,0.8-0.1,2.2-0.5c0.7-0.2,1.6-0.6,2.6-1c1.1-0.4,2.1-0.8,3.4-1.3
					c1.3-0.5,2.6-1.1,4.2-1.5c0.8-0.2,1.6-0.4,2.6-0.3c0.5,0,1,0.1,1.5,0.3c0.3,0.1,0.5,0.2,0.8,0.4c0.2,0.2,0.4,0.3,0.6,0.5
					c0.8,0.7,1.2,1.7,1.4,2.7c0.2,1,0.1,1.9,0,2.8c-0.2,1.8-0.7,3.6-1.1,5.2c-0.4,1.6-0.4,3.3,0,4.9c0.4,1.6,1.4,2.9,2.6,3.9
					c1.2,1,2.6,1.7,4,2.3c1.4,0.6,2.7,1,4,1.4c2.5,0.7,4.7,1.3,6.1,1.7C115.2,83.8,116,84.1,116,84.1z"/>
			</g>
		</g>
		<g id="XMLID_7854_">
			<g id="XMLID_7855_">
				<path id="XMLID_7856_" class="st1" d="M127.9,124.7c0,0-0.3-0.7-0.8-1.9c-0.5-1.2-1.2-3-2.1-5.2c-0.4-1.1-0.8-2.2-1.4-3.4
					c-0.3-0.6-0.5-1.2-0.8-1.9c-0.3-0.6-0.6-1.2-0.9-1.9c-0.2-0.3-0.3-0.6-0.5-1c-0.2-0.3-0.4-0.6-0.6-0.9c-0.4-0.6-0.8-1.3-1.1-1.9
					c-0.4-0.6-0.9-1.2-1.3-1.8c-0.2-0.3-0.4-0.6-0.7-0.9l-0.8-0.8l-1.5-1.6c-0.6-0.5-1.1-1.1-1.7-1.6c-1.1-1-2.2-2.1-3.2-3
					c-2.1-1.9-4.1-3.8-5.9-5.2c-0.9-0.7-1.7-1.4-2.4-2c-0.7-0.6-1.4-1.1-1.9-1.5c-1.1-0.8-1.7-1.3-1.8-1.3c0,0-0.6-0.5-1.7-1.4
					c-1.1-0.9-2.5-2.2-4.1-3.7c-1.7-1.5-3.5-3.4-5.7-5.1c-1.1-0.9-2.2-1.7-3.5-2.4c-1.2-0.7-2.5-1.3-3.9-1.8c-1.4-0.5-2.8-0.8-4.2-1
					c-1.4-0.2-2.8-0.4-4.2-0.5c-2.8-0.2-5.4,0-7.5,0.6c-1.1,0.3-2,0.7-2.7,1.3c-0.7,0.5-1.2,1.2-1.5,1.7c-0.3,0.6-0.4,1.1-0.4,1.4
					c0,0.3-0.1,0.5-0.1,0.5s0-0.2,0-0.5c0-0.3,0.1-0.9,0.4-1.5c0.3-0.6,0.7-1.3,1.4-1.9c0.7-0.6,1.6-1.1,2.7-1.5
					c2.1-0.8,4.8-1.1,7.6-1.1c1.4,0,2.9,0.1,4.4,0.2c1.5,0.2,3,0.4,4.5,0.8c1.5,0.4,2.9,0.9,4.3,1.6c1.4,0.7,2.6,1.5,3.8,2.3
					c2.4,1.6,4.4,3.4,6.1,4.8c1.7,1.5,3.2,2.6,4.2,3.4c1.1,0.8,1.7,1.3,1.7,1.3c0,0,0.7,0.6,1.7,1.5c0.5,0.5,1.2,1,1.9,1.6
					c0.7,0.7,1.5,1.4,2.3,2.2c1.7,1.6,3.6,3.6,5.6,5.6c1,1,2,2.1,3.1,3.2c0.5,0.6,1,1.1,1.6,1.7c0.5,0.6,1,1.2,1.5,1.8l0.8,0.9
					c0.2,0.3,0.4,0.6,0.7,1c0.4,0.7,0.9,1.3,1.3,1.9c0.4,0.7,0.7,1.4,1.1,2c0.2,0.3,0.3,0.7,0.5,1c0.1,0.3,0.3,0.7,0.4,1
					c0.3,0.7,0.6,1.3,0.8,2c0.2,0.7,0.5,1.3,0.7,1.9c0.5,1.2,0.8,2.4,1.2,3.5c0.7,2.2,1.3,4,1.8,5.3
					C127.7,124,127.9,124.7,127.9,124.7z"/>
			</g>
		</g>
		<g id="XMLID_7851_">
			<g id="XMLID_7852_">
				<path id="XMLID_7853_" class="st1" d="M139.3,124.7c0,0,0-0.4-0.1-1c-0.1-0.6-0.1-1.5-0.4-2.5c-0.4-2.1-1.3-4.8-2.3-7.4
					c-0.3-0.6-0.6-1.3-0.8-1.9c-0.3-0.6-0.6-1.2-0.9-1.8c-0.6-1.2-1.2-2.2-1.7-3.2c-0.5-0.9-1-1.6-1.4-2.2c-0.3-0.5-0.5-0.8-0.6-0.9
					c0,0-0.2-0.3-0.5-0.9c-0.3-0.5-0.7-1.3-1.2-2.2c-0.6-0.9-1.1-1.9-1.9-2.9c-0.4-0.5-0.7-1.1-1.1-1.6c-0.4-0.5-0.9-1-1.3-1.6
					c-1.8-2.1-3.7-4-5.5-5.1c-0.8-0.6-1.6-1-2.1-1.3c-0.5-0.3-0.8-0.5-0.8-0.5s0.3,0.1,0.9,0.3c0.6,0.2,1.4,0.5,2.3,1
					c1.9,0.9,4.2,2.6,6.3,4.5c0.5,0.5,1,1,1.5,1.5c0.5,0.5,0.9,1,1.4,1.5c0.9,1,1.7,2,2.3,2.8c0.7,0.8,1.2,1.6,1.6,2.1
					c0.4,0.5,0.6,0.8,0.6,0.8c0,0,0.2,0.4,0.5,1c0.3,0.6,0.7,1.4,1.1,2.4c0.4,1,1,2.2,1.4,3.5c0.2,0.6,0.5,1.3,0.7,2
					c0.2,0.7,0.4,1.4,0.6,2.1c0.8,2.8,1.3,5.6,1.5,7.8c0.1,1.1,0.1,2,0.1,2.6C139.3,124.4,139.3,124.7,139.3,124.7z"/>
			</g>
		</g>
		<g id="XMLID_7848_">
			<g id="XMLID_7849_">
				<path id="XMLID_7850_" class="st1" d="M143.6,126.9c0,0-0.1-1.1-0.2-2.8c-0.1-1.7-0.4-3.9-0.7-6.1c-0.3-2.2-0.8-4.4-1.2-6
					c-0.2-0.8-0.4-1.5-0.5-1.9c-0.1-0.5-0.2-0.7-0.2-0.8c0,0,0-0.3-0.1-0.8c-0.1-0.5-0.2-1.1-0.3-1.9c-0.3-1.6-0.9-3.6-1.7-5.6
					c-0.8-1.9-1.9-3.8-2.9-5.1c-0.2-0.3-0.5-0.6-0.7-0.9c-0.2-0.2-0.4-0.5-0.6-0.6c-0.3-0.4-0.5-0.6-0.5-0.6s0.2,0.2,0.6,0.5
					c0.2,0.1,0.4,0.3,0.7,0.5c0.3,0.2,0.6,0.4,0.8,0.7c1.2,1.1,2.6,2.8,3.8,4.7c1.1,1.9,2.1,4,2.7,5.6c0.3,0.8,0.5,1.5,0.7,2
					c0.2,0.5,0.2,0.8,0.3,0.8c0,0,0.1,0.3,0.1,0.8c0.1,0.5,0.2,1.2,0.2,2.1c0.1,1.7,0.3,4,0.2,6.3c0,2.3-0.1,4.5-0.2,6.2
					C143.7,125.8,143.6,126.9,143.6,126.9z"/>
			</g>
		</g>
		<g id="XMLID_7845_">
			<g id="XMLID_7846_">
				<path id="XMLID_7847_" class="st1" d="M182.6,85.2c0,0-1.1,1.3-2.8,3.3c-1.6,2-3.9,4.7-4.9,7.9c-0.5,1.6-0.7,3.2-0.6,4.7
					c0,1.5,0.4,3,0.7,4.2c0.8,2.5,1.3,4.1,1.3,4.2c0,0.1,0.4,1.7,0.9,4.3c0.5,2.5,1.3,5.8,1.9,9.1c1.2,6.6,2.3,13.3,2.3,13.3
					s-1.8-6.4-3.7-12.9c-1-3.2-2.1-6.4-2.8-8.8c-0.8-2.4-1.3-4-1.3-4.1c0-0.1-0.4-1.8-1-4.4c-0.2-1.4-0.4-3-0.3-4.7
					c0.1-1.7,0.5-3.6,1.2-5.2c1.5-3.4,4.1-5.8,5.9-7.7C181.3,86.4,182.6,85.2,182.6,85.2z"/>
			</g>
		</g>
		<g id="XMLID_7842_">
			<g id="XMLID_7843_">
				<path id="XMLID_7844_" class="st1" d="M119.8,128.5c0,0,0-0.2-0.1-0.5c0-0.3-0.2-0.8-0.4-1.4c-0.4-1.2-1.2-2.8-2.5-4.5
					c-1.2-1.7-2.9-3.6-5.1-5.1c-1.1-0.7-2.3-1.4-3.6-1.6l-1-0.2l-1-0.1c-0.7-0.1-1.4,0-2.1-0.1c-2.8,0.1-5.6,0.7-8.6,0.4
					c-1.5-0.1-2.9-0.7-4.1-1.5c-0.3-0.2-0.6-0.4-0.8-0.6c-0.3-0.2-0.5-0.5-0.7-0.7c-0.2-0.2-0.5-0.5-0.6-0.7
					c-0.2-0.3-0.3-0.5-0.5-0.8c-0.2-0.2-0.3-0.5-0.5-0.7c-0.1-0.2-0.2-0.5-0.4-0.7c-0.2-0.5-0.5-0.9-0.7-1.4
					c-0.3-0.8-0.7-1.6-0.9-2.2c-0.5-1.2-0.7-2-0.7-2c0,0-0.2-0.8-0.5-2c-0.3-1.2-0.7-2.9-1.3-4.9c-0.6-1.9-1.5-4.1-3.1-6
					c-1.5-2-3.7-3.6-6.1-4.8c-2.4-1.2-5.1-2-7.6-2.3c-2.5-0.2-5,0-7,0.6c-2,0.5-3.6,1.2-4.7,1.8c-0.5,0.3-0.9,0.5-1.2,0.7
					c-0.3,0.2-0.4,0.3-0.4,0.3s0.1-0.1,0.4-0.3c0.3-0.2,0.7-0.5,1.2-0.8c1-0.7,2.6-1.5,4.6-2.1c2-0.7,4.5-1.1,7.1-1
					c2.7,0.1,5.5,0.7,8.1,1.9c2.6,1.1,5.2,2.7,7,4.8c1.9,2.1,3,4.5,3.8,6.5c0.8,2,1.3,3.7,1.7,4.9c0.4,1.2,0.6,1.9,0.6,1.9
					c0,0,0.2,0.8,0.6,2c0.2,0.6,0.4,1.3,0.7,2.1c0.1,0.4,0.3,0.8,0.5,1.2c0.1,0.2,0.2,0.4,0.3,0.7c0.1,0.2,0.2,0.4,0.4,0.6
					c0.1,0.2,0.2,0.4,0.4,0.7c0.1,0.2,0.3,0.4,0.5,0.6c0.2,0.2,0.3,0.4,0.5,0.6c0.2,0.2,0.4,0.3,0.6,0.5c0.8,0.6,1.8,1.2,3.1,1.3
					c2.4,0.4,5.4,0,8.3,0.1c0.7,0.1,1.5,0.1,2.2,0.2l1.1,0.2l1.1,0.3c1.5,0.4,2.7,1.2,3.8,2c2.2,1.7,3.8,3.7,4.9,5.6
					c1.2,1.8,1.9,3.5,2.2,4.7c0.1,0.6,0.3,1.1,0.3,1.4C119.8,128.3,119.8,128.5,119.8,128.5z"/>
			</g>
		</g>
		<g id="XMLID_7839_">
			<g id="XMLID_7840_">
				<path id="XMLID_7841_" class="st1" d="M125.8,130.1c0,0-0.2-0.5-0.5-1.2c-0.4-0.8-0.8-1.9-1.4-3.3c-1.2-2.7-3.2-6.1-5.4-9.3
					c-2.2-3.2-4.7-6.3-6.6-8.5c-1-1.1-1.8-2-2.4-2.7c-0.6-0.7-0.9-1-1-1c0,0-0.3-0.4-0.9-1.1c-0.5-0.7-1.3-1.6-2.3-2.7
					c-1.9-2.2-4.5-4.9-7.3-7.6c-2.8-2.6-5.7-5.1-7.9-6.9c-1.1-0.9-2.1-1.6-2.8-2.1c-0.7-0.5-1.1-0.8-1.1-0.8s0.4,0.2,1.1,0.7
					c0.7,0.4,1.8,1,2.9,1.8c2.4,1.5,5.5,3.8,8.6,6.1c3,2.4,6,4.9,8.1,7c1.1,1,1.9,1.9,2.5,2.5c0.6,0.6,1,1,1,1c0,0,0.4,0.4,0.9,1.1
					c0.5,0.7,1.3,1.7,2.2,2.9c1.8,2.5,4,5.8,5.9,9.3c1.9,3.5,3.6,7.1,4.6,9.9c0.6,1.4,0.9,2.6,1.2,3.4
					C125.6,129.7,125.8,130.1,125.8,130.1z"/>
			</g>
		</g>
		<g id="XMLID_7836_">
			<g id="XMLID_7837_">
				<path id="XMLID_7838_" class="st1" d="M238.9,54.4c0,0,0.1,0.2,0.2,0.5c0.2,0.3,0.5,0.8,1,1.2c1,1,2.8,1.8,4.9,3.1
					c0.5,0.3,1,0.7,1.6,1.1c0.3,0.2,0.5,0.5,0.7,0.7c0.2,0.3,0.5,0.5,0.7,0.8c0.9,1.1,1.6,2.4,2.3,3.8c1.3,2.8,2.4,5.9,3.1,9.1
					c1.4,6.4,1.1,13.1,0.4,18c-0.4,2.5-0.9,4.5-1.3,6c-0.5,1.4-0.9,2.3-0.9,2.3c0,0-0.1,0.2-0.3,0.6c-0.1,0.2-0.2,0.4-0.4,0.7
					c-0.2,0.2-0.3,0.5-0.5,0.8c-0.8,1.3-2.1,3-3.9,4.6c-1.8,1.7-4.1,3.4-6.7,4.9c-2.6,1.5-5.4,3-8.1,4.5c-2.7,1.5-5.4,3.1-7.7,4.8
					c-2.3,1.7-4.2,3.7-5.6,5.6c-1.4,1.9-2.2,3.7-2.7,4.9c-0.3,0.6-0.4,1.1-0.5,1.5c-0.1,0.3-0.2,0.5-0.2,0.5s0.1-0.2,0.2-0.5
					c0.1-0.3,0.2-0.9,0.4-1.5c0.4-1.3,1.2-3.1,2.4-5.1c1.3-2,3.1-4.1,5.4-6c2.3-1.9,4.9-3.7,7.6-5.3c2.7-1.7,5.4-3.2,7.8-4.9
					c2.4-1.6,4.5-3.3,6-5c1.6-1.6,2.6-3.2,3.2-4.4c0.2-0.3,0.3-0.5,0.4-0.8c0.1-0.2,0.2-0.4,0.3-0.6c0.2-0.3,0.2-0.5,0.3-0.5
					c0,0,0.4-0.8,0.9-2c0.5-1.3,1-3.2,1.5-5.5c1-4.6,1.6-11.1,0.6-17.3c-0.5-3.1-1.4-6.2-2.5-9c-1.1-2.7-2.6-5.1-4.7-6.4
					c-2-1.3-3.8-2.3-4.8-3.3c-0.5-0.5-0.8-1-1-1.3C239,54.6,238.9,54.4,238.9,54.4z"/>
			</g>
		</g>
		<g id="XMLID_7833_">
			<g id="XMLID_7834_">
				<path id="XMLID_7835_" class="st1" d="M255.7,68.4c0,0-0.1-0.9-0.3-2.4c-0.3-1.5-0.7-3.7-1.4-6.2c-0.8-2.5-1.9-5.4-3.5-8.2
					c-1.6-2.8-3.8-5.6-6.5-7.7c-0.3-0.3-0.7-0.5-1-0.8l-1.1-0.7c-0.7-0.5-1.5-0.8-2.2-1.2c-0.8-0.4-1.6-0.6-2.3-0.9
					c-0.7-0.2-1.5-0.3-2.2-0.3c-1.6,0-3.1,0.2-4.6,0.4c-1.5,0.2-2.9,0.5-4.3,0.7c-2.7,0.4-5,0.6-6.8,0.3c-0.9-0.1-1.7-0.4-2.2-0.7
					c-0.5-0.3-0.8-0.5-0.8-0.5c0,0-0.3-0.2-0.7-0.7c-0.4-0.4-0.9-1.2-1.1-2.2c-0.2-1-0.3-2.1,0-3.3c0.3-1.2,0.9-2.4,1.4-3.5
					c0.5-1.1,0.7-2.2,0.5-3.4c-0.3-1.2-1-2.5-2-3.6c-1-1-2.3-1.8-3.8-2.4c-1.5-0.6-3.2-0.9-4.8-1.4c-1.7-0.5-3.3-1-4.9-1.4
					c-0.8-0.2-1.6-0.4-2.4-0.6c-0.8-0.2-1.6-0.3-2.4-0.4c-3.1-0.4-6.1-0.4-8.6,0.2c-0.6,0.1-1.2,0.2-1.8,0.4
					c-0.6,0.2-1.1,0.3-1.6,0.4c-0.5,0.1-1,0.3-1.4,0.4c-0.4,0.2-0.8,0.3-1.2,0.4c-1.4,0.5-2.2,0.8-2.2,0.8s0.8-0.3,2.1-0.9
					c0.3-0.1,0.7-0.3,1.1-0.5c0.4-0.2,0.9-0.3,1.4-0.5c0.5-0.2,1-0.3,1.6-0.5c0.6-0.2,1.2-0.3,1.8-0.5c2.5-0.7,5.6-0.9,8.8-0.6
					c0.8,0.1,1.6,0.1,2.5,0.3c0.8,0.1,1.7,0.3,2.5,0.5c1.6,0.4,3.4,0.8,5,1.2c1.6,0.4,3.3,0.7,5,1.2c0.8,0.3,1.7,0.6,2.5,1
					c0.8,0.4,1.5,1,2.2,1.6c0.6,0.6,1.2,1.3,1.6,2c0.5,0.7,0.8,1.5,1.1,2.3c0.2,0.8,0.3,1.7,0.2,2.6c-0.1,0.8-0.3,1.6-0.6,2.2
					c-0.5,1.3-0.9,2.3-1.1,3.2c-0.2,0.8-0.1,1.6,0.1,2.1c0.2,0.5,0.4,0.8,0.6,1c0.2,0.2,0.3,0.3,0.3,0.3c0,0,0.1,0.1,0.4,0.3
					c0.3,0.1,0.7,0.3,1.4,0.5c1.3,0.3,3.5,0.3,6.1,0c1.3-0.1,2.8-0.3,4.3-0.4c1.5-0.1,3.2-0.3,4.9-0.2c0.9,0.1,1.8,0.2,2.7,0.5
					c0.8,0.4,1.7,0.6,2.5,1.1c0.8,0.5,1.6,0.8,2.3,1.4l1.1,0.8c0.4,0.3,0.7,0.6,1,0.9c2.8,2.4,4.9,5.4,6.4,8.3c1.5,3,2.5,6,3.1,8.5
					c0.6,2.6,0.9,4.8,1.1,6.3C255.6,67.6,255.7,68.4,255.7,68.4z"/>
			</g>
		</g>
		<g id="XMLID_7830_">
			<g id="XMLID_7831_">
				<path id="XMLID_7832_" class="st1" d="M229.8,133c0,0,0.8-0.4,2.2-1.1c0.3-0.2,0.7-0.4,1.2-0.6c0.4-0.2,0.9-0.5,1.3-0.8
					c0.9-0.6,2-1.1,3.1-1.9c4.5-2.9,10.4-7.1,15.4-12.3c5-5.1,9.3-10.9,11.6-15.7c0.5-1.2,1.1-2.3,1.5-3.3c0.4-1,0.7-1.9,1-2.6
					c0.3-0.7,0.4-1.3,0.5-1.8c0.1-0.4,0.2-0.7,0.2-0.7c0,0,0.1-0.3,0.2-0.7c0.1-0.2,0.1-0.4,0.2-0.7c0-0.1,0.1-0.3,0.1-0.5
					c0-0.2,0.1-0.3,0.1-0.5c0.1-0.7,0.3-1.6,0.5-2.7c0.2-1,0.3-2.2,0.4-3.5c0.1-0.6,0.1-1.3,0.1-2c0-0.7,0.1-1.4,0.1-2.2
					c0-0.7,0-1.5-0.1-2.3c0-0.8-0.1-1.6-0.2-2.4c-0.3-3.2-1.1-6.6-2.3-9.8c-1.2-3.2-2.8-6.3-4.5-9.1c-1.7-2.8-3.5-5.2-5.1-7.3
					c-1.6-2.1-3-3.8-4-4.9c-1-1.2-1.5-1.8-1.5-1.8s0.6,0.6,1.6,1.8c1,1.1,2.5,2.7,4.2,4.7c1.7,2,3.6,4.4,5.5,7.1
					c1.9,2.7,3.7,5.8,5.1,9c1.4,3.3,2.4,6.7,2.9,10.1c0.1,0.8,0.3,1.7,0.3,2.5c0.1,0.8,0.1,1.6,0.2,2.4c0.1,0.8,0,1.5,0,2.3
					c0,0.7,0,1.4,0,2.1c-0.1,1.4-0.1,2.6-0.3,3.7c-0.2,1.1-0.3,2.1-0.4,2.9c0,0.2-0.1,0.4-0.1,0.6c0,0.2-0.1,0.3-0.1,0.5
					c-0.1,0.3-0.1,0.6-0.2,0.8c-0.1,0.4-0.2,0.7-0.2,0.7c0,0-0.1,0.3-0.2,0.7c-0.1,0.4-0.3,1.1-0.6,1.9c-0.3,0.8-0.7,1.7-1.1,2.8
					c-0.5,1-1.1,2.2-1.7,3.4c-2.7,4.9-7.3,10.7-12.7,15.6c-5.4,4.9-11.4,9-16.1,11.6c-1.2,0.7-2.3,1.2-3.2,1.7
					c-0.5,0.3-0.9,0.5-1.4,0.7c-0.4,0.2-0.8,0.4-1.2,0.5C230.6,132.6,229.8,133,229.8,133z"/>
			</g>
		</g>
		<g id="XMLID_7827_">
			<g id="XMLID_7828_">
				<path id="XMLID_7829_" class="st1" d="M111.6,132.2c0,0-0.1-0.2-0.2-0.5c-0.1-0.2-0.1-0.3-0.2-0.6c-0.1-0.2-0.3-0.4-0.4-0.7
					c-0.4-0.5-0.9-1.1-1.7-1.4c-0.8-0.3-1.8-0.4-2.8-0.3c-1.1,0.1-2.2,0.4-3.4,0.7c-1.2,0.3-2.5,0.6-3.9,0.7
					c-2.8,0.2-5.7-0.2-8.5-1.1c-2.8-0.9-5.5-2.3-7.7-4.1c-0.3-0.2-0.6-0.4-0.8-0.6c-0.3-0.2-0.5-0.5-0.7-0.7c-0.5-0.5-1-0.9-1.4-1.4
					c-0.8-1-1.7-1.8-2.4-2.7c-1.4-1.7-2.5-3.2-3.3-4.2c-0.8-1-1.2-1.6-1.3-1.6c0,0-0.5-0.6-1.2-1.6c-0.8-0.9-1.8-2.2-3.4-3.7
					c-1.5-1.4-3.3-3-5.4-4.4c-2.1-1.4-4.5-2.7-7.2-3.3c-2.6-0.6-5.4-0.4-7.9,0.2c-2.5,0.6-4.8,1.5-6.4,2.7c-1.7,1.2-2.8,2.5-3.3,3.6
					c-0.1,0.3-0.3,0.5-0.3,0.7c-0.1,0.2-0.1,0.4-0.2,0.6c-0.1,0.3-0.1,0.5-0.1,0.5s0-0.2,0.1-0.5c0-0.2,0.1-0.4,0.1-0.6
					c0.1-0.2,0.2-0.5,0.3-0.8c0.5-1.1,1.5-2.6,3.2-3.9c1.7-1.3,3.9-2.4,6.5-3.2c2.5-0.7,5.5-1.2,8.4-0.7c2.9,0.5,5.6,1.6,7.9,3
					c2.3,1.4,4.3,2.9,6,4.3c1.6,1.4,2.9,2.7,3.8,3.7c0.8,1,1.3,1.6,1.4,1.6c0,0,0.5,0.7,1.2,1.7c0.8,1.1,1.7,2.6,3,4.3
					c0.6,0.9,1.3,1.8,2.1,2.7c0.4,0.4,0.8,0.9,1.2,1.4c0.2,0.2,0.4,0.5,0.7,0.7c0.2,0.2,0.5,0.4,0.7,0.6c1.9,1.8,4.3,3.2,6.9,4.2
					c2.6,1,5.4,1.6,8,1.5c1.3,0,2.6-0.2,3.8-0.5c1.2-0.2,2.4-0.4,3.5-0.5c1.1,0,2.1,0.1,2.9,0.5c0.8,0.4,1.3,1,1.7,1.6
					c0.1,0.3,0.3,0.5,0.4,0.7c0.1,0.2,0.1,0.4,0.2,0.6C111.6,132,111.6,132.2,111.6,132.2z"/>
			</g>
		</g>
		<g id="XMLID_7824_">
			<g id="XMLID_7825_">
				<path id="XMLID_7826_" class="st1" d="M97.6,136.1c0,0-0.4,0-1,0.1c-0.6,0-1.5,0.2-2.6,0.2c-0.6,0-1.2,0-1.8,0
					c-0.6,0-1.3,0-2-0.1c-0.7-0.1-1.4-0.2-2.1-0.3c-0.7-0.2-1.4-0.4-2.2-0.5c-2.9-0.8-5.7-2.1-7.6-3.4c-1-0.6-1.7-1.2-2.3-1.5
					c-0.6-0.4-0.9-0.6-0.9-0.6c0,0-0.3-0.3-0.8-0.7c-0.5-0.5-1.1-1.1-1.9-1.9c-1.5-1.6-3.4-3.7-5.3-5.8c-1.9-2.1-3.8-4.2-5.3-5.7
					c-0.8-0.7-1.4-1.3-1.9-1.7c-0.5-0.4-0.7-0.7-0.7-0.7s0.3,0.2,0.8,0.6c0.5,0.4,1.3,0.8,2.1,1.5c1.7,1.3,3.9,3.1,6,5
					c2.1,1.9,4.3,3.8,5.9,5.1c0.8,0.7,1.5,1.2,2,1.6c0.5,0.4,0.8,0.6,0.8,0.6c0,0,0.3,0.3,0.8,0.7c0.5,0.4,1.1,1.1,2,1.7
					c1.7,1.4,4.1,2.9,6.7,4c0.7,0.3,1.3,0.5,2,0.8c0.7,0.2,1.4,0.3,2,0.5c0.6,0.2,1.3,0.3,1.9,0.4c0.6,0.1,1.2,0.2,1.7,0.2
					c1.1,0.1,2,0.1,2.6,0.1C97.2,136.1,97.6,136.1,97.6,136.1z"/>
			</g>
		</g>
		<g id="XMLID_7821_">
			<g id="XMLID_7822_">
				<path id="XMLID_7823_" class="st1" d="M83.5,146.4c0,0-1.5-1-3.8-2.6c-2.3-1.6-5.3-3.7-8.4-5.7c-3.1-2-6.3-3.9-8.8-5.1
					c-1.2-0.6-2.3-1.1-3-1.4c-0.8-0.3-1.2-0.5-1.2-0.5c0,0-0.4-0.2-1.1-0.6c-0.4-0.2-0.8-0.4-1.3-0.6c-0.5-0.2-1-0.5-1.7-0.7
					c-2.4-0.9-5.9-1.7-9.4-1.5c-3.5,0.1-7,1.1-9.5,2c-1.3,0.4-2.3,0.8-3,1.1c-0.7,0.3-1.1,0.5-1.1,0.5s0.4-0.2,1.1-0.6
					c0.7-0.4,1.7-0.9,2.9-1.4c2.5-1.1,5.9-2.5,9.6-3c3.7-0.6,7.5-0.1,10.2,0.6c0.7,0.2,1.3,0.4,1.9,0.6c0.6,0.2,1,0.4,1.4,0.5
					c0.8,0.3,1.2,0.5,1.2,0.5c0,0,0.5,0.2,1.2,0.6c0.8,0.4,1.8,1,3,1.8c2.5,1.5,5.5,3.7,8.4,6c2.9,2.3,5.7,4.7,7.9,6.5
					C82.1,145.2,83.5,146.4,83.5,146.4z"/>
			</g>
		</g>
		<g id="XMLID_7818_">
			<g id="XMLID_7819_">
				<path id="XMLID_7820_" class="st1" d="M73.3,150.7c0,0-0.3-0.1-0.7-0.2c-0.5-0.1-1.1-0.3-2-0.4c-1.6-0.2-3.9-0.3-6.1-0.1
					c-2.2,0.2-4.4,0.5-6,0.9c-0.8,0.2-1.5,0.3-2,0.5c-0.5,0.1-0.8,0.2-0.8,0.2c0,0-0.3,0-0.8,0.1c-0.5,0.1-1.1,0.1-1.9,0.3
					c-1.6,0.3-3.7,0.7-5.7,1.4c-2,0.7-3.9,1.6-5.2,2.6c-0.6,0.5-1.1,0.9-1.5,1.3c-0.3,0.4-0.5,0.6-0.5,0.6s0.1-0.2,0.4-0.6
					c0.3-0.4,0.7-0.9,1.3-1.5c1.2-1.2,3-2.5,4.9-3.5c2-1.1,4.1-1.9,5.7-2.4c0.8-0.3,1.5-0.5,2-0.6c0.5-0.1,0.8-0.2,0.8-0.2
					c0,0,0.3,0,0.8-0.1c0.5-0.1,1.2-0.1,2.1-0.2c1.7-0.1,4-0.1,6.3,0.1c2.3,0.2,4.5,0.6,6.1,1.1c0.8,0.2,1.5,0.5,1.9,0.7
					C73,150.6,73.3,150.7,73.3,150.7z"/>
			</g>
		</g>
		<g id="XMLID_7815_">
			<g id="XMLID_7816_">
				<path id="XMLID_7817_" class="st1" d="M74.3,159.9c0,0-0.1,0-0.4-0.1c-0.2-0.1-0.6-0.2-1-0.3c-0.8-0.2-2-0.2-3.1-0.1
					c-1.1,0.1-2.2,0.4-3,0.6c-0.4,0.1-0.7,0.2-1,0.3c-0.2,0.1-0.4,0.1-0.4,0.1c0,0-0.2,0-0.4,0c-0.2,0-0.6,0-1,0.1
					c-0.8,0.1-2,0.2-3.1,0.4c-2.2,0.4-4.4,1.1-4.4,1.1s1.9-1.3,4-2.5c1-0.6,2.1-1.1,3-1.4c0.4-0.2,0.8-0.3,1-0.4
					c0.3-0.1,0.4-0.1,0.4-0.2c0,0,0.2,0,0.5,0c0.3,0,0.7,0,1.2,0c1,0,2.2,0.1,3.4,0.3c1.2,0.3,2.4,0.7,3.2,1.1
					c0.4,0.2,0.7,0.5,0.9,0.6C74.2,159.8,74.3,159.9,74.3,159.9z"/>
			</g>
		</g>
		<g id="XMLID_7812_">
			<g id="XMLID_7813_">
				<path id="XMLID_7814_" class="st1" d="M80.8,162.1c0,0-1.2,0.1-2.9,0.3c-1.7,0.2-4.1,0.4-6.3,0.9c-2.3,0.5-4.4,1.2-6,1.9
					c-1.6,0.7-2.7,1.2-2.7,1.3c0,0-1.2,0.3-2.8,0.8c-1.7,0.5-3.8,1.1-6,1.9c-2.1,0.8-4.2,1.7-5.6,2.6c-0.4,0.2-0.7,0.4-1,0.6
					c-0.3,0.2-0.5,0.4-0.7,0.5c-0.4,0.3-0.6,0.5-0.6,0.5s0.2-0.2,0.5-0.6c0.2-0.2,0.4-0.4,0.6-0.7c0.2-0.2,0.5-0.5,0.9-0.8
					c1.3-1.1,3.2-2.4,5.3-3.5c2-1.1,4.1-2.1,5.7-2.8c1.6-0.7,2.6-1.2,2.7-1.2c0,0,0.3-0.1,0.8-0.2c0.5-0.1,1.2-0.4,2.1-0.6
					c1.8-0.6,4.2-0.9,6.6-1.1c2.4-0.2,4.8-0.1,6.5,0C79.7,162,80.8,162.1,80.8,162.1z"/>
			</g>
		</g>
		<g id="XMLID_7809_">
			<g id="XMLID_7810_">
				<path id="XMLID_7811_" class="st1" d="M77.6,177.8c0,0-0.3-0.1-0.9-0.2c-0.3-0.1-0.6-0.1-1-0.2c-0.4-0.1-0.8-0.1-1.3-0.2
					c-2-0.2-4.6-0.1-7.1,0.5c-2.5,0.6-4.9,1.6-6.7,2.4c-0.9,0.4-1.6,0.8-2.1,1.1c-0.5,0.3-0.8,0.5-0.8,0.5c0,0-0.3,0.1-0.9,0.4
					c-0.5,0.2-1.3,0.5-2.1,1c-1.7,0.8-4,2-6.2,3.3c-2.2,1.3-4.4,2.7-6,3.7c-1.6,1.1-2.7,1.8-2.7,1.8s1-0.8,2.4-2.1
					c1.5-1.3,3.4-2.9,5.5-4.5c2-1.6,4.2-3.1,5.9-4.2c0.8-0.5,1.6-1,2.1-1.3c0.5-0.3,0.8-0.5,0.8-0.5c0,0,0.4-0.2,0.9-0.4
					c0.6-0.2,1.4-0.5,2.4-0.9c2-0.7,4.6-1.4,7.4-1.6c2.7-0.3,5.5-0.1,7.4,0.4c0.5,0.1,0.9,0.2,1.3,0.4c0.4,0.1,0.7,0.2,1,0.3
					C77.3,177.6,77.6,177.8,77.6,177.8z"/>
			</g>
		</g>
		<g id="XMLID_7806_">
			<g id="XMLID_7807_">
				<path id="XMLID_7808_" class="st1" d="M75.4,184.3c0,0-0.2,0-0.6,0.1c-0.4,0.1-1,0.2-1.6,0.4c-1.3,0.3-3,1.1-4.6,2
					c-1.6,0.9-3.1,1.9-4.2,2.7c-1.1,0.8-1.9,1.4-1.9,1.4c0,0-0.2,0.1-0.6,0.3c-0.4,0.2-0.9,0.4-1.4,0.8c-1.2,0.6-2.7,1.6-4.3,2.5
					c-1.5,0.9-3.1,1.9-4.2,2.6c-1.1,0.7-1.9,1.2-1.9,1.2s0.7-0.6,1.6-1.6c1-0.9,2.3-2.2,3.6-3.4c1.3-1.2,2.7-2.4,3.8-3.3
					c0.5-0.5,1-0.8,1.3-1.1c0.3-0.3,0.5-0.4,0.5-0.4c0,0,0.2-0.1,0.6-0.3c0.4-0.2,0.9-0.5,1.6-0.8c1.3-0.6,3.1-1.4,4.9-2
					c1.8-0.6,3.7-1,5.1-1.1c0.7-0.1,1.3-0.1,1.7-0.1C75.2,184.3,75.4,184.3,75.4,184.3z"/>
			</g>
		</g>
		<g id="XMLID_7803_">
			<g id="XMLID_7804_">
				<path id="XMLID_7805_" class="st1" d="M74.3,194c0,0-1.1,0.9-2.9,2.3c-1.8,1.4-4.1,3.2-6.4,5c-2.3,1.8-4.6,3.7-6.3,5.1
					c-0.8,0.7-1.5,1.3-2,1.8c-0.5,0.4-0.8,0.7-0.8,0.7c0,0-0.3,0.2-0.8,0.6c-0.5,0.4-1.2,0.9-2,1.6c-1.7,1.3-3.8,3.2-5.7,5.3
					c-1.9,2.1-3.5,4.4-4.5,6.3c-0.1,0.2-0.3,0.5-0.4,0.7c-0.1,0.2-0.2,0.4-0.3,0.6c-0.2,0.4-0.3,0.7-0.5,1c-0.3,0.6-0.4,0.9-0.4,0.9
					s0.1-0.3,0.3-0.9c0.1-0.3,0.2-0.7,0.3-1.1c0.1-0.2,0.1-0.4,0.2-0.7c0.1-0.2,0.2-0.5,0.3-0.7c0.8-2,2.2-4.6,3.8-7
					c1.7-2.4,3.6-4.6,5.2-6.2c0.8-0.8,1.4-1.4,1.9-1.9c0.5-0.5,0.8-0.7,0.8-0.7c0,0,0.3-0.3,0.9-0.6c0.6-0.4,1.3-0.9,2.3-1.6
					c1.9-1.3,4.4-2.9,6.9-4.4c2.5-1.5,5.1-3,7-4.2C73.1,194.8,74.3,194,74.3,194z"/>
			</g>
		</g>
		<g id="XMLID_7800_">
			<g id="XMLID_7801_">
				<path id="XMLID_7802_" class="st1" d="M65.1,210.2c0,0-0.2,0.1-0.6,0.3c-0.4,0.2-1,0.4-1.6,0.9c-1.3,0.8-2.7,2.2-4,3.8
					c-1.3,1.6-2.3,3.3-3,4.6c-0.4,0.7-0.7,1.2-0.9,1.6c-0.2,0.4-0.3,0.6-0.3,0.7c0,0-0.2,0.2-0.4,0.6c-0.3,0.4-0.6,0.9-1,1.5
					c-0.8,1.2-1.9,2.9-3,4.6c-2.1,3.4-4.1,6.8-4.1,6.8s1.4-3.7,2.8-7.5c0.7-1.9,1.5-3.7,2.1-5.1c0.3-0.7,0.6-1.3,0.8-1.7
					c0.2-0.4,0.3-0.7,0.3-0.7c0,0,0.2-0.2,0.5-0.6c0.3-0.4,0.7-0.9,1.2-1.5c1-1.2,2.4-2.9,4-4.3c1.6-1.4,3.3-2.6,4.8-3.2
					c0.7-0.4,1.3-0.5,1.8-0.6C64.9,210.3,65.1,210.2,65.1,210.2z"/>
			</g>
		</g>
		<g id="XMLID_7797_">
			<g id="XMLID_7798_">
				<path id="XMLID_7799_" class="st1" d="M58.6,232.4c0,0-0.3,0.7-0.7,1.7c-0.4,1-1.1,2.4-1.7,3.7c-0.6,1.3-1.2,2.7-1.6,3.7
					c-0.4,1-0.7,1.7-0.7,1.7c0,0-0.1,0.2-0.3,0.4c-0.2,0.3-0.4,0.6-0.7,1.1c-0.6,0.9-1.2,2.1-1.8,3.4c-0.5,1.3-0.9,2.6-1.1,3.7
					c-0.1,0.5-0.1,1-0.1,1.3c0,0.3,0,0.5,0,0.5s0-0.2-0.1-0.5c0-0.3-0.2-0.7-0.2-1.3c-0.1-1.1-0.1-2.6,0.1-4c0.2-1.5,0.6-2.9,1-4
					c0.2-0.5,0.3-1,0.4-1.3c0.1-0.3,0.2-0.5,0.2-0.5c0,0,0.1-0.2,0.3-0.5c0.2-0.3,0.5-0.7,0.8-1.1c0.7-0.9,1.6-2.1,2.5-3.3
					c0.9-1.2,1.8-2.3,2.5-3.2C58.2,233,58.6,232.4,58.6,232.4z"/>
			</g>
		</g>
		<g id="XMLID_7794_">
			<g id="XMLID_7795_">
				<path id="XMLID_7796_" class="st1" d="M59.2,254.1c0,0-0.3,1-0.7,2.4c-0.2,0.7-0.4,1.5-0.7,2.4c-0.2,0.9-0.5,1.9-0.7,2.8
					c-0.1,0.5-0.2,1-0.3,1.4c-0.1,0.5-0.2,0.9-0.3,1.4c-0.2,0.9-0.3,1.8-0.5,2.5c-0.2,0.7-0.2,1.3-0.3,1.8c-0.1,0.4-0.1,0.7-0.1,0.7
					c0,0-0.3,1-0.7,2.3c-0.4,1.4-1,3.3-1.5,5.1c-0.5,1.8-1,3.7-1.3,5.1c-0.1,0.7-0.2,1.3-0.2,1.7c0,0.4,0.2,0.6,0.2,0.6
					s-0.2-0.2-0.3-0.6c-0.1-0.4-0.1-1-0.1-1.8c0-1.5,0.2-3.4,0.4-5.3c0.2-1.9,0.4-3.8,0.6-5.3c0.2-1.5,0.3-2.5,0.3-2.5
					c0,0,0.1-0.3,0.2-0.7c0.1-0.4,0.3-1.1,0.6-1.8c0.3-0.7,0.6-1.5,0.9-2.4c0.2-0.4,0.3-0.9,0.5-1.4c0.2-0.5,0.4-0.9,0.6-1.4
					c0.4-0.9,0.8-1.8,1.2-2.7c0.4-0.8,0.8-1.6,1.1-2.3C58.8,255,59.2,254.1,59.2,254.1z"/>
			</g>
		</g>
		<g id="XMLID_7791_">
			<g id="XMLID_7792_">
				<path id="XMLID_7793_" class="st1" d="M277.3,47.9c0,0-0.2,0.1-0.6,0.3c-0.2,0.1-0.4,0.2-0.6,0.4c-0.2,0.2-0.5,0.4-0.8,0.7
					c-0.6,0.5-1.2,1.2-1.6,2.2c-0.2,0.5-0.3,1.1-0.3,1.7c0,0.6,0.1,1.2,0.3,1.9c0.8,2.5,2.9,5,5.1,7.5c1.1,1.2,2.4,2.5,3.6,3.9
					c0.3,0.3,0.6,0.7,0.9,1.1l0.8,1.1l0.8,1.2l0.6,1.2c1.7,3.3,2.5,7.1,2.8,10.5c0.2,1.7,0.3,3.4,0.4,4.9c0.1,0.8,0.1,1.6,0.1,2.3
					c0,0.8,0,1.5,0,2.2c-0.1,2.8-0.5,5.2-0.9,6.8c-0.4,1.6-0.7,2.6-0.7,2.7c0,0.1-0.4,1-1,2.5c-0.7,1.5-1.7,3.6-3.2,5.9
					c-1.5,2.3-3.4,4.8-5.7,7.2c-1.1,1.2-2.4,2.4-3.7,3.6c-0.7,0.6-1.3,1.2-2,1.7c-0.7,0.6-1.4,1.1-2.1,1.7l-1,0.8l-1.1,0.8
					c-0.7,0.5-1.4,1-2.1,1.5c-0.7,0.5-1.5,0.9-2.2,1.4c-0.7,0.4-1.4,0.9-2.2,1.3c-3,1.6-6,2.3-8.5,3c-2.6,0.6-4.7,1.2-6.1,1.7
					c-1.4,0.5-2.2,0.8-2.2,0.8s0.8-0.3,2.2-1c1.4-0.5,3.5-1.2,6-2c2.5-0.8,5.4-1.7,8.2-3.3c0.7-0.4,1.4-0.9,2.1-1.4
					c0.7-0.5,1.4-0.9,2.1-1.5c0.7-0.5,1.4-1.1,2-1.6l1-0.8l1-0.9c0.7-0.6,1.3-1.2,2-1.7c0.6-0.6,1.2-1.2,1.9-1.8
					c1.2-1.2,2.4-2.4,3.4-3.6c2.1-2.5,3.9-4.9,5.1-7.2c1.3-2.2,2.1-4.2,2.7-5.6c0.5-1.4,0.8-2.3,0.8-2.3c0-0.1,0.3-0.9,0.8-2.4
					c0.4-1.5,0.9-3.7,1.1-6.3c0.1-0.7,0.1-1.3,0.1-2.1c0-0.7,0-1.5,0-2.2c0-1.6-0.1-3.2-0.2-4.9c-0.2-3.3-0.7-6.9-2.2-10.1l-0.5-1.2
					l-0.7-1.1l-0.7-1.1c-0.2-0.4-0.5-0.7-0.8-1c-1.1-1.4-2.3-2.7-3.3-4c-2.2-2.6-4.1-5.2-4.9-7.9c-0.2-0.7-0.2-1.3-0.2-2
					c0.1-0.6,0.2-1.2,0.4-1.7c0.5-1,1.2-1.7,1.8-2.2c0.3-0.3,0.6-0.5,0.9-0.6c0.3-0.2,0.5-0.3,0.7-0.4
					C277.1,48,277.3,47.9,277.3,47.9z"/>
			</g>
		</g>
		<g id="XMLID_7788_">
			<g id="XMLID_7789_">
				<path id="XMLID_7790_" class="st1" d="M290.3,72.8c0,0,0.1,0.2,0.4,0.4c0.2,0.3,0.6,0.7,1,1.3c0.8,1.1,2,2.7,3.3,4.7
					c2.6,4,5.6,9.7,7,16.1c0.7,3.2,0.9,6.5,0.5,9.6c-0.2,1.5-0.6,3-1,4.4c-0.5,1.4-1,2.6-1.7,3.7c-0.3,0.6-0.6,1.1-0.9,1.6
					c-0.3,0.5-0.7,0.9-1,1.3c-0.3,0.4-0.6,0.8-0.8,1.2c-0.3,0.3-0.6,0.6-0.8,0.9c-1,1.1-1.5,1.8-1.6,1.8c0,0-0.7,0.6-1.7,1.6
					c-1.1,0.9-2.7,2.2-4.7,3.5c-1,0.7-2.1,1.3-3.3,2c-1.2,0.6-2.4,1.4-3.8,2c-2.7,1.3-5.5,2.5-8.3,3.8c-5.6,2.6-11.4,4.9-15.8,6.3
					c-2.2,0.7-4.1,1.2-5.4,1.5c-1.3,0.3-2.1,0.5-2.1,0.5s0.7-0.2,2-0.6c1.3-0.3,3.1-1,5.3-1.8c4.3-1.6,9.9-4.3,15.3-7.2
					c2.7-1.4,5.5-2.9,8-4.3c1.3-0.7,2.4-1.5,3.5-2.1c1.1-0.8,2.1-1.4,3-2.1c1.8-1.4,3.2-2.7,4.2-3.6c0.9-1,1.5-1.5,1.5-1.6
					c0.1,0,0.6-0.6,1.6-1.6c0.2-0.3,0.5-0.5,0.8-0.8c0.3-0.3,0.5-0.7,0.8-1c0.3-0.4,0.6-0.8,1-1.2c0.3-0.4,0.6-0.9,0.9-1.4
					c0.6-1,1.2-2.1,1.7-3.3c0.5-1.2,0.9-2.5,1.1-4c0.5-2.8,0.5-6,0-9c-1-6.2-3.7-12-6-16.1c-1.2-2.1-2.3-3.7-3-4.9
					c-0.4-0.6-0.7-1-0.9-1.3C290.4,72.9,290.3,72.8,290.3,72.8z"/>
			</g>
		</g>
		<g id="XMLID_7785_">
			<g id="XMLID_7786_">
				<path id="XMLID_7787_" class="st1" d="M273,138.3c0,0,2.6-1.9,6.5-4.8c2-1.4,4.3-3,6.8-4.8c2.5-1.8,5.1-3.7,7.7-5.6
					c2.6-2,5.1-4,7.5-5.9c2.6-1.8,5-3.2,6.8-4.7c0.5-0.4,0.9-0.7,1.2-1.1c0.3-0.3,0.8-0.8,1.2-1.1c0.7-0.7,1.3-1.2,1.6-1.7
					c0.1-0.2,0.3-0.4,0.3-0.6c0-0.1,0.1-0.1,0.1-0.2c0-0.1,0-0.1,0-0.2c0-0.2,0-0.3,0-0.4c0,0,0-0.2,0-0.4c0-0.2-0.1-0.4-0.4-0.7
					c-0.2-0.2-0.4-0.4-0.8-0.7c-0.4-0.3-0.9-0.8-1.2-1.6l-0.1-0.3l0-0.2l0-0.1c0-0.1,0-0.3,0-0.4c0-0.3,0-0.6-0.1-0.9
					c0-0.3,0-0.6,0.1-1c0-0.3,0.1-0.7,0.2-1c0.3-1.4,0.9-2.6,1.6-3.8c0.7-1.2,1.5-2.4,2.2-3.6c0.7-1.2,1.2-2.5,1.3-3.9
					c0.1-1.4-0.3-2.8-1-4.1c-0.7-1.3-1.6-2.5-2.7-3.4c-1.1-0.9-2.5-1.6-3.8-2.1c-2.7-1.1-5.4-1.8-7.5-2.9c-2.2-1-3.7-2.4-4.5-3.5
					c-0.5-0.5-0.7-1-0.9-1.3c-0.2-0.3-0.3-0.5-0.3-0.5s0.1,0.2,0.3,0.5c0.2,0.3,0.5,0.8,0.9,1.3c0.9,1.1,2.4,2.3,4.6,3.1
					c2.1,0.9,4.8,1.5,7.6,2.5c1.4,0.5,2.9,1.1,4.2,2c1.3,0.9,2.4,2.3,3.3,3.7c0.8,1.4,1.4,3.1,1.4,4.9c0,1.7-0.6,3.3-1.3,4.7
					c-0.7,1.4-1.4,2.6-2,3.8c-0.6,1.2-1.1,2.3-1.2,3.3c-0.1,0.3-0.1,0.5-0.1,0.7c0,0.2,0,0.5,0,0.7c0,0.2,0.1,0.4,0.1,0.7
					c0,0.1,0,0.2,0,0.3l0,0.1l0,0c0,0,0,0,0,0c0,0.1,0.2,0.3,0.5,0.5c0.3,0.2,0.7,0.5,1,0.8c0.3,0.3,0.7,0.7,0.9,1
					c0.2,0.4,0.3,0.7,0.4,1c0.1,0.6,0.1,0.9,0.1,0.9c0,0,0,0.3-0.1,1c0,0.1-0.1,0.3-0.1,0.5c-0.1,0.2-0.1,0.3-0.2,0.5
					c-0.2,0.4-0.4,0.7-0.7,1.1c-0.6,0.7-1.3,1.3-2.1,2c-0.4,0.3-0.8,0.7-1.2,1c-0.5,0.4-0.9,0.8-1.5,1.2c-2.1,1.5-4.7,2.8-7.2,4.4
					c-2.5,1.7-5.1,3.6-7.8,5.5c-2.7,1.8-5.5,3.5-8,5.2c-2.6,1.6-5,3.1-7,4.4C275.7,136.5,273,138.3,273,138.3z"/>
			</g>
		</g>
		<g id="XMLID_7782_">
			<g id="XMLID_7783_">
				<path id="XMLID_7784_" class="st1" d="M324.4,103.1c0,0-0.2,0-0.4,0.1c-0.3,0.1-0.7,0.1-1.2,0.4c-0.5,0.2-1.1,0.5-1.7,1
					c-0.6,0.5-1,1.2-1.4,2.1c-0.3,0.9-0.4,1.9-0.4,3c0,1.1,0.2,2.2,0.3,3.4c0.2,1.2,0.4,2.4,0.6,3.7c0.1,1.3,0.3,2.6,0.3,3.9
					c0.1,2.6-0.2,5.4-1.1,7.8c-0.3,0.6-0.5,1.2-0.7,1.7c-0.3,0.5-0.6,1.1-0.9,1.6c-0.3,0.5-0.7,0.9-1,1.4c-0.3,0.4-0.7,0.9-1,1.3
					c-1.4,1.5-2.9,2.6-4,3.2c-1.1,0.6-1.8,0.9-1.8,0.9c0,0-0.7,0.3-1.9,0.6c-1.2,0.3-2.8,0.6-4.7,0.9c-1.9,0.2-4.1,0.4-6.4,0.6
					c-1.2,0.1-2.3,0.3-3.5,0.5c-1.2,0.2-2.4,0.5-3.6,0.7c-4.9,1.1-9.7,2.4-13.3,3.3c-1.8,0.4-3.4,0.7-4.4,0.9
					c-1.1,0.2-1.7,0.3-1.7,0.3s0.6-0.2,1.7-0.4c1.1-0.2,2.6-0.7,4.3-1.2c3.6-1.1,8.3-2.8,13.1-4.2c1.2-0.3,2.4-0.7,3.6-1
					c1.2-0.3,2.4-0.5,3.6-0.8c2.3-0.4,4.5-0.7,6.3-1.1c1.8-0.3,3.3-0.8,4.3-1.1c1-0.4,1.5-0.6,1.6-0.6c0,0,0.6-0.2,1.6-0.7
					c0.9-0.5,2.2-1.3,3.5-2.5c0.3-0.3,0.6-0.7,1-1c0.3-0.4,0.7-0.7,1-1.2c0.3-0.4,0.6-0.9,0.9-1.3c0.3-0.5,0.5-1,0.8-1.5
					c0.9-2.1,1.4-4.5,1.5-7c0.1-1.3,0-2.5-0.1-3.8c-0.1-1.2-0.2-2.5-0.3-3.7c-0.1-1.2-0.2-2.4-0.1-3.5c0.1-1.1,0.3-2.2,0.6-3.1
					c0.4-0.9,1-1.7,1.6-2.2c0.6-0.5,1.3-0.8,1.8-1c0.5-0.2,1-0.2,1.3-0.3C324.2,103.1,324.4,103.1,324.4,103.1z"/>
			</g>
		</g>
		<g id="XMLID_7779_">
			<g id="XMLID_7780_">
				<path id="XMLID_7781_" class="st1" d="M286.5,146.4c0,0,2.2-0.1,5.5-0.2c3.3-0.2,7.7-0.5,12.1-1.1c2.2-0.3,4.3-0.8,6.3-1.3
					c2-0.5,3.8-1.1,5.3-1.8c1.5-0.6,2.7-1.2,3.5-1.7c0.9-0.4,1.3-0.8,1.3-0.8c0,0,0.1-0.1,0.4-0.2c0.2-0.1,0.5-0.3,0.9-0.6
					c0.7-0.5,1.7-1.3,2.5-2.5c0.9-1.2,1.6-2.8,2.1-4.7c0.5-1.9,0.7-4,0.8-6.1c0.1-2.2,0.2-4.3,0.2-6.3c0.1-2,0.3-3.9,0.6-5.5
					c0.3-1.6,0.7-2.9,1.1-3.8c0.2-0.4,0.4-0.8,0.5-1c0.1-0.2,0.2-0.3,0.2-0.3s0,0.1-0.1,0.4c-0.1,0.2-0.2,0.6-0.4,1
					c-0.3,0.9-0.6,2.2-0.8,3.8c-0.2,1.6-0.2,3.5-0.2,5.5c0.1,2,0.2,4.2,0.3,6.3c0.1,2.2,0,4.4-0.3,6.5c-0.3,2.1-1,4.1-2,5.6
					c-0.9,1.5-2.1,2.6-2.9,3.3c-0.4,0.3-0.8,0.6-1,0.8c-0.2,0.2-0.4,0.2-0.4,0.3c0,0-0.6,0.4-1.5,0.8c-0.9,0.4-2.3,1-3.9,1.5
					c-1.6,0.6-3.6,1-5.7,1.4c-2.1,0.4-4.3,0.7-6.6,0.8c-4.5,0.3-8.9,0.3-12.3,0.2C288.7,146.5,286.5,146.4,286.5,146.4z"/>
			</g>
		</g>
		<g id="XMLID_7776_">
			<g id="XMLID_7777_">
				<path id="XMLID_7778_" class="st1" d="M328.7,163.2c0,0-0.4,0.1-1,0.4c-0.6,0.2-1.5,0.6-2.6,0.9c-1.1,0.4-2.4,0.8-3.8,1.1
					c-1.4,0.3-3,0.5-4.6,0.5c-1.6,0-3.2-0.3-4.7-0.7c-1.4-0.4-2.8-0.9-3.8-1.5c-1.1-0.5-2-1-2.6-1.3c-0.6-0.3-1-0.5-1-0.6
					c0,0-0.3-0.2-0.9-0.6c-0.3-0.2-0.6-0.4-0.9-0.6c-0.4-0.2-0.8-0.5-1.3-0.7c-1.9-1-4.6-1.8-7.5-1.9c-2.9-0.1-5.9,0.1-8.1,0.1
					c-1.1,0-2,0-2.7,0c-0.6,0-1,0-1,0s0.4,0,1-0.1c0.6,0,1.6-0.1,2.7-0.3c2.2-0.3,5.1-0.9,8.2-1.1c1.5-0.1,3.1-0.1,4.5,0.1
					c1.5,0.2,2.8,0.6,3.9,1c0.6,0.2,1.1,0.4,1.5,0.6c0.4,0.2,0.8,0.4,1.1,0.6c0.6,0.3,1,0.5,1,0.5c0,0,0.3,0.2,0.9,0.6
					c0.6,0.4,1.3,0.9,2.3,1.5c1,0.6,2.1,1.2,3.4,1.7c1.3,0.5,2.7,0.9,4.1,1.1c1.5,0.2,3,0.2,4.4,0c1.4-0.1,2.7-0.4,3.8-0.6
					c1.1-0.3,2-0.5,2.7-0.6C328.3,163.2,328.7,163.2,328.7,163.2z"/>
			</g>
		</g>
		<g id="XMLID_7773_">
			<g id="XMLID_7774_">
				<path id="XMLID_7775_" class="st1" d="M317.9,209.2c0,0-0.1-0.4-0.3-1.2c-0.2-0.7-0.4-1.8-0.9-3.1c-0.7-2.5-2.1-5.8-3.6-8.9
					c-1.6-3.1-3.6-5.9-5.3-8c-0.9-0.9-1.6-1.7-2.1-2.3c-0.6-0.5-0.9-0.8-0.9-0.9c0,0-0.3-0.4-0.8-0.9c-0.3-0.3-0.6-0.6-0.9-1
					c-0.4-0.4-0.8-0.8-1.2-1.2c-0.5-0.4-1-0.9-1.5-1.4c-0.5-0.5-1.1-1-1.7-1.5c-0.6-0.5-1.2-1.1-1.9-1.6c-0.7-0.5-1.3-1-2-1.5
					c-1.3-1.1-2.8-1.9-4.2-2.7c-1.4-0.8-2.7-1.7-3.7-2.5c-1-0.9-1.6-1.7-2-2.4c-0.2-0.3-0.3-0.6-0.4-0.8c-0.1-0.2-0.1-0.3-0.1-0.3
					s0,0.1,0.1,0.3c0.1,0.2,0.2,0.4,0.4,0.7c0.4,0.6,1.1,1.4,2.2,2.1c1,0.7,2.3,1.4,3.8,2.1c1.4,0.7,3.1,1.4,4.5,2.3
					c0.7,0.5,1.5,0.9,2.2,1.3c0.7,0.4,1.4,1,2.1,1.4c0.7,0.5,1.3,0.9,1.9,1.4c0.6,0.5,1.2,0.9,1.7,1.3c0.5,0.4,1,0.8,1.4,1.1
					c0.4,0.4,0.8,0.7,1,1c0.6,0.5,0.9,0.8,1,0.9c0,0,0.4,0.4,0.9,1c0.5,0.7,1.2,1.6,2.1,2.7c1.5,2.3,3.4,5.5,4.7,8.8
					c1.3,3.4,2.3,6.8,2.8,9.4c0.3,1.3,0.4,2.4,0.6,3.2C317.8,208.7,317.9,209.2,317.9,209.2z"/>
			</g>
		</g>
		<g id="XMLID_7770_">
			<g id="XMLID_7771_">
				<path id="XMLID_7772_" class="st1" d="M307.1,211.3c0,0-0.6-0.8-1.4-1.9c-0.8-1.2-2-2.6-3.2-4.1c-0.6-0.7-1.3-1.4-1.8-2.1
					c-0.3-0.3-0.6-0.7-0.8-1c-0.3-0.3-0.6-0.6-0.8-0.8c-1-1-1.7-1.7-1.7-1.7c0,0-0.5-0.8-1.4-1.8c-0.9-1-2.2-2.3-3.5-3.7
					c-1.3-1.3-2.6-2.7-3.5-3.8c-0.2-0.3-0.4-0.5-0.6-0.8c-0.1-0.2-0.3-0.5-0.4-0.6c-0.2-0.3-0.3-0.5-0.3-0.5s0.2,0.2,0.4,0.5
					c0.1,0.1,0.3,0.3,0.5,0.5c0.2,0.2,0.4,0.4,0.7,0.6c1,0.9,2.5,2,4.1,3c1.5,1,3.1,2.1,4.2,3c0.6,0.5,1,0.9,1.4,1.2
					c0.3,0.3,0.5,0.5,0.5,0.5c0,0,0.6,0.8,1.4,2.1c0.2,0.3,0.4,0.6,0.7,1c0.2,0.4,0.4,0.7,0.7,1.1c0.5,0.8,1,1.6,1.5,2.4
					c0.9,1.7,1.8,3.4,2.4,4.7C306.7,210.5,307.1,211.3,307.1,211.3z"/>
			</g>
		</g>
		<g id="XMLID_7767_">
			<g id="XMLID_7768_">
				<path id="XMLID_7769_" class="st1" d="M311.9,254.6c0,0,0-0.5,0-1.3c0-0.4,0-0.9,0-1.5c0-0.6,0-1.2-0.1-1.9
					c-0.2-2.8-0.8-6.4-1.8-9.9c-1-3.5-2.4-6.9-3.6-9.4c-0.6-1.3-1.1-2.3-1.5-3c-0.4-0.7-0.6-1.2-0.6-1.2c0,0-0.2-0.5-0.5-1.2
					c-0.3-0.7-0.7-1.8-1.3-3c-1.1-2.5-2.8-5.6-4.5-8.8c-1.7-3.1-3.5-6.3-4.9-8.6c-1.3-2.3-2.2-3.9-2.2-3.9s1,1.5,2.6,3.7
					c1.6,2.2,3.6,5.1,5.7,8.1c2,3,4,6,5.4,8.4c0.7,1.2,1.3,2.2,1.7,2.9c0.4,0.7,0.6,1.1,0.6,1.2c0,0,0.2,0.5,0.5,1.3
					c0.3,0.8,0.8,1.9,1.2,3.2c1,2.7,2,6.3,2.7,10c0.7,3.7,0.9,7.4,0.9,10.2c0,0.7,0,1.3-0.1,1.9c0,0.6-0.1,1.1-0.1,1.5
					C312,254.2,311.9,254.6,311.9,254.6z"/>
			</g>
		</g>
		<g id="XMLID_7764_">
			<g id="XMLID_7765_">
				<path id="XMLID_7766_" class="st1" d="M308.2,276.3c0,0,0-0.5-0.1-1.3c-0.1-0.9-0.1-2.1-0.3-3.5c-0.2-2.9-0.7-6.8-1.3-10.6
					c-0.6-3.9-1.4-7.7-2.1-10.5c-0.3-1.4-0.7-2.6-0.9-3.5c-0.2-0.8-0.4-1.3-0.4-1.4c0,0-0.1-0.5-0.3-1.3c-0.2-0.8-0.4-2-0.7-3.4
					c-0.6-2.8-1.6-6.4-2.7-10c-1.2-3.6-2.6-7.1-3.8-9.7c-0.6-1.3-1.2-2.3-1.5-3.1c-0.4-0.7-0.6-1.2-0.6-1.2s0.3,0.4,0.7,1.1
					c0.4,0.7,1.1,1.7,1.8,2.9c1.5,2.4,3.2,5.9,4.7,9.4c1.5,3.5,2.8,7.1,3.7,9.9c0.5,1.4,0.8,2.6,1,3.4c0.2,0.8,0.4,1.3,0.4,1.4
					c0,0,0.1,0.5,0.3,1.4c0.1,0.9,0.4,2.1,0.6,3.6c0.4,3,0.9,6.9,1.2,10.8c0.3,3.9,0.4,7.8,0.3,10.8c0,1.5-0.1,2.7-0.1,3.5
					C308.2,275.8,308.2,276.3,308.2,276.3z"/>
			</g>
		</g>
		<g id="XMLID_7761_">
			<g id="XMLID_7762_">
				<path id="XMLID_7763_" class="st1" d="M330.3,198.9c0,0-0.2-0.2-0.6-0.5c-0.4-0.3-0.9-0.7-1.5-1.2c-1.2-1.1-2.6-2.8-3.8-4.6
					c-1.2-1.8-2.3-3.7-3.2-5.1c-0.4-0.7-0.8-1.3-1.1-1.6c-0.3-0.4-0.4-0.6-0.4-0.6c0,0-0.1-0.3-0.3-0.7c-0.2-0.4-0.4-0.9-0.9-1.4
					c-0.8-1.2-2.3-2.6-3.9-4c-1.5-1.4-3.1-2.9-3.9-4.3c-0.2-0.3-0.4-0.7-0.5-0.9c-0.1-0.3-0.2-0.6-0.3-0.8c-0.1-0.4-0.2-0.7-0.2-0.7
					s0.1,0.2,0.3,0.7c0.1,0.2,0.3,0.4,0.4,0.7c0.2,0.2,0.4,0.5,0.7,0.8c1.1,1.1,2.7,2.3,4.5,3.5c1.7,1.2,3.5,2.3,4.8,3.6
					c0.6,0.6,1.1,1.2,1.4,1.6c0.3,0.4,0.4,0.6,0.4,0.7c0,0,0.1,0.3,0.4,0.7c0.2,0.4,0.5,1.1,0.8,1.9c0.7,1.5,1.4,3.5,2.3,5.5
					c0.8,2,2,3.7,2.9,5c0.5,0.6,1,1.1,1.3,1.5C330.2,198.7,330.3,198.9,330.3,198.9z"/>
			</g>
		</g>
		<g id="XMLID_7758_">
			<g id="XMLID_7759_">
				<path id="XMLID_7760_" class="st1" d="M323.8,235.1c0,0-0.2-0.1-0.5-0.3c-0.3-0.2-0.8-0.4-1.3-0.8c-1.1-0.7-2.4-1.9-3.6-3.3
					c-1.2-1.3-2.2-2.8-3-3.9c-0.7-1.1-1.2-1.9-1.3-1.9c0,0-0.3-0.8-0.8-2c-0.5-1.2-1.1-2.7-1.8-4.3c-0.7-1.5-1.5-3-2.2-4
					c-0.3-0.5-0.7-0.9-0.9-1.2c-0.2-0.3-0.3-0.5-0.3-0.5s0.2,0.1,0.4,0.4c0.3,0.3,0.7,0.6,1.1,1c0.9,0.9,2,2.2,3,3.6
					c1,1.4,2,2.8,2.7,3.9c0.7,1.1,1.2,1.8,1.2,1.8c0,0,0.3,0.8,0.8,2c0.5,1.2,1.2,2.7,2.1,4.2c0.9,1.5,1.9,2.8,2.8,3.8
					c0.4,0.5,0.9,0.8,1.1,1.1C323.7,235,323.8,235.1,323.8,235.1z"/>
			</g>
		</g>
		<g id="XMLID_7755_">
			<g id="XMLID_7756_">
				<path id="XMLID_7757_" class="st1" d="M46.2,195.1c0,0-0.5,0.5-1.3,1.3c-0.8,0.8-1.8,1.8-2.8,2.8c-1,1-1.9,2.1-2.5,3
					c-0.3,0.4-0.6,0.8-0.7,1c-0.2,0.2-0.3,0.4-0.3,0.4c0,0-0.1,0.1-0.3,0.3c-0.2,0.2-0.5,0.5-0.9,0.9c-0.7,0.7-1.5,1.8-2.2,2.9
					c-0.7,1.2-1,2.5-1.2,3.5c-0.1,0.5-0.1,0.9-0.2,1.2c0,0.3-0.1,0.5-0.1,0.5s0-0.2-0.1-0.5c0-0.3-0.1-0.7-0.2-1.3
					c-0.1-1.1,0-2.5,0.4-4c0.4-1.4,1-2.8,1.5-3.8c0.3-0.5,0.5-0.9,0.7-1.2c0.2-0.3,0.3-0.5,0.3-0.5c0,0,0.2-0.2,0.4-0.4
					c0.3-0.2,0.6-0.6,1.1-0.9c0.9-0.7,2.1-1.6,3.3-2.4c1.2-0.8,2.5-1.5,3.4-2.1C45.6,195.5,46.2,195.1,46.2,195.1z"/>
			</g>
		</g>
		<g id="XMLID_7752_">
			<g id="XMLID_7753_">
				<path id="XMLID_7754_" class="st1" d="M44.6,163.7c0,0-0.5,0.4-1.1,1c-0.2,0.1-0.3,0.3-0.5,0.5c-0.2,0.2-0.4,0.4-0.6,0.6
					c-0.4,0.4-0.8,0.8-1.2,1.2c-0.8,0.9-1.6,1.8-2.1,2.5c-0.3,0.3-0.5,0.6-0.7,0.8c-0.2,0.2-0.2,0.3-0.3,0.3c0,0-0.5,0.4-1.2,0.9
					c-0.7,0.5-1.6,1.3-2.5,2c-0.9,0.8-1.7,1.5-2.3,2.2c-0.6,0.6-1,1-1,1s0.3-0.5,0.7-1.3c0.4-0.8,1-1.8,1.6-2.8c0.7-1,1.3-2,1.8-2.7
					c0.5-0.7,0.9-1.2,0.9-1.2c0,0,0.1-0.1,0.4-0.3c0.2-0.2,0.5-0.4,0.9-0.7c0.7-0.6,1.8-1.2,2.8-1.8c0.5-0.3,1.1-0.6,1.6-0.9
					c0.3-0.1,0.5-0.3,0.7-0.4c0.2-0.1,0.5-0.2,0.7-0.3C44,163.9,44.6,163.7,44.6,163.7z"/>
			</g>
		</g>
		<g id="XMLID_7749_">
			<g id="XMLID_7750_">
				<path id="XMLID_7751_" class="st1" d="M50,142.6c0,0-0.2-0.1-0.5-0.2c-0.3-0.1-0.7-0.3-1.3-0.5c-1.1-0.3-2.5-0.6-4-0.7
					c-1.5-0.1-2.9,0.1-4,0.2c-0.5,0.1-1,0.2-1.3,0.2c-0.3,0.1-0.5,0.1-0.5,0.1c0,0-0.2,0-0.5,0c-0.3,0-0.7,0-1.3,0.1
					c-1,0.1-2.4,0.3-3.7,0.9c-1.3,0.5-2.5,1.3-3.2,2.1c-0.4,0.4-0.6,0.8-0.8,1c-0.2,0.3-0.3,0.4-0.3,0.4s0.1-0.2,0.1-0.5
					c0.1-0.3,0.3-0.7,0.5-1.2c0.5-1,1.6-2.2,2.8-3.1c1.3-0.9,2.7-1.6,3.8-1.9c0.6-0.2,1-0.3,1.4-0.4c0.3-0.1,0.5-0.1,0.6-0.1
					c0,0,0.2,0,0.6,0c0.4,0,0.9,0,1.5,0.1c1.2,0.1,2.8,0.3,4.3,0.7c1.5,0.4,2.9,1,3.9,1.6c0.5,0.3,0.9,0.6,1.1,0.8
					C49.8,142.5,50,142.6,50,142.6z"/>
			</g>
		</g>
		<g id="XMLID_7746_">
			<g id="XMLID_7747_">
				<path id="XMLID_7748_" class="st1" d="M61.9,128.5c0,0-0.1-0.2-0.4-0.6c-0.2-0.4-0.6-0.9-1.1-1.4c-1-1.1-2.5-2.3-4.2-3.3
					c-1.6-1-3.4-1.8-4.8-2.3c-0.7-0.3-1.3-0.5-1.7-0.6c-0.4-0.2-0.6-0.2-0.7-0.2c0,0-0.2-0.1-0.6-0.3c-0.4-0.2-0.9-0.5-1.5-0.8
					c-1.3-0.6-3-1.4-4.8-2c-1.8-0.6-3.6-1.1-5-1.3c-0.7-0.1-1.3-0.2-1.7-0.2c-0.4,0-0.7-0.1-0.7-0.1s0.2,0,0.7-0.1
					c0.4,0,1-0.1,1.7-0.1c1.5-0.1,3.4,0.1,5.3,0.4c1.9,0.3,3.9,0.7,5.3,1.1c0.7,0.2,1.3,0.4,1.7,0.5c0.4,0.1,0.7,0.2,0.7,0.2
					c0,0,0.3,0.1,0.7,0.4c0.4,0.2,1,0.6,1.6,0.9c1.3,0.8,3,1.9,4.5,3.3c1.5,1.3,2.9,2.8,3.7,4.1c0.4,0.6,0.7,1.2,0.9,1.6
					C61.8,128.3,61.9,128.5,61.9,128.5z"/>
			</g>
		</g>
		<g id="XMLID_7743_">
			<g id="XMLID_7744_">
				<path id="XMLID_7745_" class="st1" d="M336.8,135c0,0-0.3-0.1-0.8-0.2c-0.5-0.1-1.3-0.3-2.2-0.2c-0.4,0-0.9,0.2-1.3,0.5
					c-0.4,0.3-0.6,0.7-0.7,1.3c-0.3,1-0.2,2.3-0.1,3.5c0.2,2.5,0.7,5,0.7,7.1c0,1-0.1,2-0.3,2.7c-0.1,0.4-0.2,0.6-0.2,0.7
					c-0.1,0.2-0.1,0.3-0.1,0.3c0,0-0.2,0.3-0.5,0.9c-0.3,0.5-0.8,1.2-1.5,2c-1.4,1.6-3.8,3-6.3,3.6c-2.5,0.7-5,0.7-6.9,0.7
					c-1.9,0-3.1-0.1-3.1-0.1s1.2-0.1,3.1-0.3c1.8-0.2,4.2-0.7,6.4-1.6c2.2-0.9,4-2.4,4.9-3.8c0.5-0.7,0.8-1.3,1-1.8
					c0.2-0.5,0.3-0.7,0.3-0.8c0,0,0-0.1,0.1-0.2c0.1-0.1,0.2-0.3,0.2-0.5c0.2-0.4,0.3-1.1,0.5-1.9c0.2-1.8,0.1-4.3,0.2-6.9
					c0.1-1.3,0.2-2.6,0.7-3.8c0.3-0.6,0.7-1.2,1.2-1.5c0.5-0.3,1.1-0.5,1.6-0.4c1,0,1.8,0.3,2.3,0.5
					C336.5,134.9,336.8,135,336.8,135z"/>
			</g>
		</g>
		<g id="XMLID_7740_">
			<g id="XMLID_7741_">
				<path id="XMLID_7742_" class="st1" d="M238.7,94.4c0,0-0.2,0.4-0.5,1.1c-0.3,0.7-0.8,1.7-1.3,2.9c-0.3,0.6-0.7,1.2-1,1.9
					c-0.4,0.7-0.8,1.4-1.3,2c-0.5,0.7-1,1.4-1.6,2c-0.3,0.3-0.6,0.7-0.9,1l-1,0.9c-2.6,2.5-5.7,4.5-8,5.9c-1.1,0.7-2.1,1.3-2.7,1.7
					c-0.6,0.4-1,0.7-1,0.7c0,0-0.4,0.2-1.1,0.6c-0.3,0.2-0.7,0.4-1.1,0.7c-0.2,0.1-0.4,0.3-0.7,0.4c-0.2,0.2-0.5,0.3-0.7,0.5
					c-1,0.7-2.1,1.7-3.2,2.7c-1.1,1.1-2.1,2.4-3.1,3.8c-0.9,1.4-1.6,2.9-2,4.4c-0.4,1.5-0.5,3-0.7,4.3c-0.2,1.3-0.3,2.3-0.5,3.1
					c-0.2,0.7-0.3,1.1-0.3,1.1s0.1-0.4,0.2-1.2c0.1-0.7,0.1-1.8,0.2-3.1c0.1-1.3,0-2.8,0.3-4.4c0.2-1.6,0.9-3.4,1.7-4.9
					c0.8-1.6,1.8-3.1,2.9-4.4c1.1-1.3,2.2-2.4,3.2-3.3c0.3-0.2,0.5-0.4,0.7-0.6c0.2-0.2,0.5-0.4,0.7-0.5c0.4-0.3,0.8-0.6,1.2-0.9
					c0.7-0.4,1-0.7,1.1-0.7c0,0,0.4-0.2,1.2-0.6c0.7-0.4,1.7-0.9,2.9-1.4c2.4-1.2,5.5-2.7,8.2-4.9l1-0.8c0.3-0.3,0.6-0.6,0.9-0.9
					c0.6-0.6,1.2-1.2,1.7-1.8c0.5-0.6,1-1.3,1.5-1.8c0.4-0.6,0.8-1.2,1.2-1.8c0.7-1.1,1.3-2.1,1.6-2.7
					C238.5,94.8,238.7,94.4,238.7,94.4z"/>
			</g>
		</g>
	</g>
</g>
</svg>
