<?xml version="1.0" encoding="utf-8"?>
<!-- Generator: Adobe Illustrator 19.0.0, SVG Export Plug-In . SVG Version: 6.00 Build 0)  -->
<svg version="1.1" id="Layer_1" xmlns="http://www.w3.org/2000/svg" xmlns:xlink="http://www.w3.org/1999/xlink" x="0px" y="0px"
	 viewBox="-256 115.5 446.5 330.5" enable-background="new -256 115.5 446.5 330.5" xml:space="preserve">
<g id="XMLID_272_">
	<path id="XMLID_275_" fill="#EF7B05" d="M-147.6,311.2c1.6,6.9,2.9,14,1.8,21c-1.3,8.5-6.8,17-15.1,19c-6.2,1.5-12.6-0.6-18.9-1.5
		c-2.7,16.3-4,28-3.9,29.7c2,24,27.4,30.2,27.9,31.6c3.9,8.6-2.6,12-6.5,14.9c-2.5,1.9-4.5,4.6-13.1,4.4c-2.6,0.7-5.3,1.2-8.1,1.2
		c-14.1,0-25.7-9.4-25.7-21.1c0-3,0.8-5.8,2.1-8.3c-0.7,0-1.4,0.2-2.1,0.2c-9.5,0-17.3-6.6-17.3-14.9c0-4.6,2.5-8.7,6.3-11.4
		c-7.3-3.6-12.2-10.2-12.2-17.9c0-7.1,4.2-13.5,10.8-17.2c-6.3-2.4-10.8-8.3-10.8-15.2c0-9.1,7.7-16.5,17.2-16.5
		c0.7,0,1.4,0.1,2.1,0.2c-11.4-4.7-19.4-15.6-19.4-28.4c0-10.9,5.9-20.5,14.8-26c-1.2-3.2-1.8-6.8-1.8-10.5
		c0-14.9,10.4-26.9,23.2-26.9c1.9,0,3.8,0.3,5.5,0.9c0.9-1.6,1.9-3,2.9-4.3c-0.9-3.4-1.4-6.9-1.4-10.7c0-19.8,12.9-35.9,28.9-35.9
		c4.1,0,8,1.1,11.5,3c2.4-17.9,16.4-31.8,33.6-31.8c7.1,0,13.7,2.4,19.1,6.5c5.8-4,13.5-6.5,21.9-6.5c8.1,0,15.4,2.3,21.1,6
		c0.1-0.1,0.1-0.2,0.2-0.2c11.1-17.2,36.6-17.2,47.7,0c0.1,0.1,0.1,0.2,0.2,0.3c5.7-3.7,7.9-9.8,21.4-10.2
		c14.2-0.4,15.8,6.7,21.6,10.7c5.4-4.1,12.1-6.5,19.2-6.5c17.1,0,31.1,13.8,33.5,31.8c3.6-1.9,7.5-3,11.6-3
		c16,0,28.9,16.1,28.9,35.9c0,3.7-0.5,7.3-1.5,10.7c1,1.3,2,2.7,2.9,4.3c1.8-0.5,3.6-0.9,5.6-0.9c12.8,0,23.2,12,23.2,26.9
		c0,3.7-0.6,7.3-1.8,10.5c8.9,5.5,14.8,15,14.8,26c0,12.8-8,23.7-19.4,28.4c0.7,0,1.4-0.2,2.1-0.2c9.5,0,17.3,7.4,17.3,16.5
		c0,6.9-4.5,12.8-10.8,15.2c6.5,3.7,10.8,10.1,10.8,17.2c0,7.7-4.9,14.3-12.2,17.9c3.8,2.7,6.3,6.8,6.3,11.4
		c0,8.2-7.7,14.9-17.3,14.9c-0.7,0-1.4-0.1-2.1-0.2c1.3,2.5,2.1,5.4,2.1,8.3c0,11.7-11.5,21.1-25.7,21.1c-2.8,0-5.5-0.5-8.1-1.2
		c-1.7,0.5-3.7-1-4-3c-0.6-4.6,0.2-4.6,0.3-12c1.9-5,10.2-15,12-35.9c0.3-3-3.1-21.2-9.4-44.8c-7.7-0.7-18.8-2.3-24.4-7.3
		c-5.8-5.2-6.6-14.3-2.2-20c-6.9,1.4-15.2-3.3-19.2-9s-0.7-14,2.9-20c-6.7,0.6-13.6-2.6-17.4-8.2c-3.8-5.6-4.3-13.1-1.4-19.1
		c-7.1,7.2-20.6,6.4-26.8-1.6c-6.2-8-3.5-21.3,5.3-26.3c-5.7,4.4-10.4,10.1-16.1,14.5s-13.2,7.5-20.1,5.4c-6.9-2.1-11.6-11.1-7.4-17
		c-3.4,5.3-6.8,10.6-11.5,14.7c-4.7,4.1-11.1,6.7-17.3,5.5c-6.1-1.2-11.5-7-10.8-13.2c-1.2,7.4-6.7,14.7-14.2,15.5
		s-13.9-3.4-19.7-8.2c6.5,7.8,8.4,11.1,7.6,19.6c-0.8,8.5-4.4,17.4-11.9,21.6c-7.5,4.2-19,1-20.8-7.4c4.4,10.6,1.4,23.8-7.1,31.5
		s-21.9,9.4-32,4"/>
	<path id="XMLID_274_" fill="#EF7B05" d="M95.1,303.6c-2.2-0.5-4.4-0.8-6.7-0.9l3.7,3.6C92.8,305.2,93.8,304.3,95.1,303.6z"/>
	<path id="XMLID_273_" fill="#EF7B05" d="M-147.6,311.2l2.1-2c-1.1-0.7-2.2-1.5-3.1-2.5C-148.3,308.2-148,309.7-147.6,311.2z"/>
</g>
</svg>
