<?xml version="1.0" encoding="utf-8"?>
<!-- Generator: Adobe Illustrator 19.0.0, SVG Export Plug-In . SVG Version: 6.00 Build 0)  -->
<svg version="1.1" id="Layer_1" xmlns="http://www.w3.org/2000/svg" xmlns:xlink="http://www.w3.org/1999/xlink" x="0px" y="0px"
	 viewBox="0 0 387.5 330.5" style="enable-background:new 0 0 387.5 330.5;" xml:space="preserve">
<style type="text/css">
	.st0{fill:#EF7B05;}
	.st1{fill:#FFFFFF;}
</style>
<g id="XMLID_3039_">
	<g id="XMLID_3043_">
		<g id="XMLID_3227_">
			<g id="XMLID_3235_">
				<path id="XMLID_3638_" class="st0" d="M42,125.6c0,0-13.5-43.7,29.4-80.8s126-35.5,181.3,6.3s69.4,87,61.2,130.6
					s0,81.7,26.5,98.2c0,0-29.4,25.3-57.6-24.1s-14.1-107-78.8-112.9C139.3,136.9,101.9,164,42,125.6z"/>
				<path id="XMLID_3637_" class="st0" d="M115.7,48.7c1.8-0.6,10-17.6,35.9-23.5s87.1-4,129.4,40.9c32.3,34.4,41.7,61.4,48.8,90.4
					c7.1,29,25.5,45.9,25.5,45.9s-29.6,5.7-72.5-45.5S173.4,72.2,173.4,72.2L115.7,48.7z"/>
				<path id="XMLID_3636_" class="st0" d="M251,113.8c0,0,57.2-4.3,62.3,28.2c5.1,32.5,2.4,60.4,20.8,81.9
					c18.4,21.6,33.7,26.3,33.7,26.3s-42,17.3-63.9-21.6c-22-38.8-28.2-88.2-28.2-88.2L249,111.8L251,113.8z"/>
				<path id="XMLID_3635_" class="st0" d="M42,125.6c0,0-7.3-2.7-17.8,5.7c-10.6,8.4-12.3,19.6-12.3,19.6s5.9-8.2,12.7-11.4
					c6.9-3.1-5.7,19.6-10.4,30.2c-4.7,10.6-5.5,16.9-5.5,16.9s4.5-7.3,13.7-11.8c9.2-4.5,19.8-21.4,19.8-21.4l4.7-19l2.7-11
					L42,125.6z"/>
				<path id="XMLID_3634_" class="st0" d="M295,146.2C275.8,98.8,203.3,71,163.7,72.1h-0.2c-0.1,0-0.1,0-0.2,0v0c0,0,0,0,0,0
					c0,0,0,0,0,0v0c-0.1,0-0.1,0-0.2,0h-0.2C123.2,71,50.7,98.8,31.5,146.2C12.3,193.7,9.6,237.3,16.2,276c4.4,25.8,8.9,43,8.9,43
					s5.1-24.3,2.8-50.5s12.2-45,16-57.3s-1.1-53.8,12.3-72.3c23.8-32.6,48.2-29.1,69-30c10.6-0.4,19.9-0.2,26.7,0.1
					c3.8,0.2,7.6,0.2,11.4,0.1c3.8,0.1,7.6,0.1,11.4-0.1c6.8-0.3,16.1-0.5,26.7-0.1c20.8,0.9,45.1-2.6,69,30
					c13.5,18.5,8.5,60,12.3,72.3c3.8,12.3,18.4,31.2,16,57.3s3.2,45.1,3.2,45.1s4.1-11.9,8.5-37.6
					C316.8,237.3,314.2,193.7,295,146.2z"/>
				<path id="XMLID_3633_" class="st1" d="M49.7,123.4c0,0,0-0.8,0.1-2.3c0.1-1.5,0.3-3.7,0.7-6.5c0.4-2.8,1-6.2,2-10
					c1-3.8,2.3-8.1,4.2-12.6c1.9-4.5,4.3-9.3,7.5-13.9c3.2-4.6,7-9.3,11.6-13.4c4.7-4.1,10-7.7,15.9-10.5l0.3-0.1l0.3-0.1l0.5-0.2
					l1.1-0.5c0.7-0.3,1.4-0.6,2.2-1c1.5-0.6,3.1-1.2,4.6-1.8c1.5-0.5,3.1-1.1,4.6-1.5l2.3-0.7l2.4-0.6c6.3-1.6,12.8-2.8,19.2-3.3
					c6.4-0.6,12.7-0.7,18.8-0.4c6.1,0.3,11.9,1,17.4,2c2.7,0.5,5.4,1,7.9,1.6c2.5,0.6,5,1.3,7.3,2c4.7,1.4,8.8,2.9,12.4,4.5
					c3.6,1.5,6.7,3.1,9.2,4.5c2.5,1.4,4.3,2.6,5.6,3.4c1.2,0.8,1.9,1.3,1.9,1.3s-0.7-0.4-2-1.1c-1.3-0.7-3.3-1.6-5.9-2.8
					c-2.6-1.1-5.7-2.4-9.4-3.6c-3.7-1.2-7.9-2.4-12.5-3.6c-2.3-0.6-4.7-1.1-7.3-1.5c-2.5-0.5-5.1-0.9-7.8-1.3
					c-5.4-0.7-11.1-1.2-17-1.3c-5.9-0.1-12,0.1-18.2,0.8c-6.2,0.6-12.4,1.7-18.4,3.3l-2.3,0.6l-2.3,0.7c-1.5,0.4-3,1-4.5,1.5
					c-0.7,0.2-1.5,0.5-2.2,0.8c-0.7,0.3-1.4,0.5-2.2,0.8c-0.7,0.3-1.5,0.6-2.2,0.9l-1.1,0.5l-0.5,0.2L94,58.2l-0.1,0c0,0,0,0,0,0
					l-0.3,0.1c-5.5,2.5-10.7,5.8-15.1,9.5c-0.6,0.4-1.1,1-1.6,1.4c-0.5,0.5-1.1,1-1.6,1.5c-0.5,0.5-1,1-1.5,1.5L73,73
					c-0.2,0.3-0.5,0.5-0.7,0.8c-0.5,0.5-0.9,1-1.4,1.5c-0.5,0.5-0.9,1.1-1.3,1.6c-0.4,0.5-0.9,1-1.3,1.6c-0.4,0.5-0.8,1.1-1.2,1.6
					c-3.2,4.3-5.8,8.8-7.9,13c-2.1,4.3-3.7,8.3-5,12c-1.2,3.7-2.2,6.9-2.8,9.6c-0.7,2.7-1.1,4.9-1.3,6.4
					C49.8,122.6,49.7,123.4,49.7,123.4z"/>
				<path id="XMLID_3632_" class="st1" d="M61.6,124c0,0,0.9,0.3,2.6,0.7c1.7,0.4,4.2,0.9,7.4,1.4c3.2,0.5,7.1,1,11.6,1.3
					c4.5,0.3,9.6,0.5,15.1,0.5c2.8-0.1,5.6-0.1,8.6-0.3c3-0.1,6-0.4,9.2-0.7c1.5-0.2,3.2-0.3,4.8-0.5c1.6-0.2,3.2-0.4,4.9-0.7
					c3.3-0.5,6.7-1,10.1-1.6c3.4-0.6,6.9-1.2,10.4-1.8c3.5-0.6,7.1-1.3,10.7-1.9c7.2-1.3,14.5-2.5,21.9-3.7c7.4-1.1,14.8-2,22.2-2.6
					c1.8-0.2,3.7-0.3,5.5-0.4c0.9-0.1,1.8-0.1,2.7-0.1c0.9,0,1.8-0.1,2.7-0.1c3.6-0.1,7.2,0,10.8,0.3c0.9,0.1,1.8,0.2,2.7,0.2
					c0.9,0.1,1.8,0.2,2.6,0.3c0.9,0.1,1.7,0.3,2.6,0.4c0.4,0.1,0.9,0.2,1.3,0.2c0.4,0.1,0.8,0.2,1.3,0.3c0.8,0.2,1.7,0.4,2.5,0.6
					c0.4,0.1,0.8,0.2,1.2,0.4l0.6,0.2l0.2,0l0.1,0l0.1,0l0.3,0.1c0.8,0.3,1.5,0.6,2.3,0.9c0.8,0.4,1.6,0.7,2.3,1.1
					c3,1.5,5.7,3.3,8.1,5.3c2.4,2,4.5,4.1,6.3,6.4c3.6,4.4,6.2,9,8.1,13.2c1,2.1,1.7,4.1,2.4,5.9c0.7,1.9,1.2,3.6,1.6,5.2
					c0.9,3.1,1.3,5.7,1.6,7.4c0.3,1.7,0.4,2.6,0.4,2.6s-0.2-0.9-0.6-2.6c-0.4-1.7-1.2-4.1-2.3-7.2c-0.6-1.5-1.2-3.2-2-5
					c-0.4-0.9-0.8-1.8-1.3-2.8c-0.5-0.9-0.9-1.9-1.5-2.9c-1.1-2-2.3-4-3.7-6.1c-1.4-2.1-3-4.1-4.8-6.1c-3.7-4-8.3-7.7-13.9-10.2
					c-0.7-0.3-1.4-0.6-2.1-0.9c-0.8-0.3-1.5-0.5-2.3-0.8l-0.3-0.1l-0.2-0.1l-0.6-0.1c-0.4-0.1-0.8-0.2-1.1-0.3
					c-0.8-0.2-1.6-0.3-2.4-0.5c-3.2-0.6-6.5-1-9.9-1.2c-3.4-0.2-6.9-0.2-10.4,0c-0.9,0-1.8,0.1-2.7,0.1c-0.9,0.1-1.8,0.1-2.7,0.2
					c-1.8,0.1-3.6,0.2-5.4,0.4c-7.2,0.6-14.5,1.6-21.8,2.7c-7.3,1.1-14.6,2.3-21.8,3.5c-7.2,1.2-14.3,2.3-21.3,3.3
					c-3.5,0.5-6.9,1-10.2,1.3c-1.7,0.2-3.3,0.3-5,0.5c-1.7,0.2-3.2,0.2-4.9,0.4c-6.4,0.4-12.5,0.4-18.1,0.2
					c-5.6-0.2-10.7-0.8-15.2-1.4c-4.5-0.6-8.4-1.5-11.6-2.2c-3.2-0.8-5.6-1.5-7.3-2.1C62.5,124.4,61.6,124,61.6,124z"/>
				<path id="XMLID_3631_" class="st1" d="M62,114.2c0,0,0.3-0.5,1-1.3c0.7-0.8,1.6-2,2.9-3.5c0.7-0.7,1.4-1.5,2.2-2.4
					c0.4-0.4,0.8-0.9,1.3-1.3c0.5-0.4,0.9-0.9,1.4-1.4c2-1.9,4.3-4,7-6.1c1.3-1.1,2.8-2.1,4.2-3.2c0.8-0.5,1.5-1,2.3-1.6
					c0.8-0.5,1.6-1.1,2.4-1.6c0.8-0.5,1.7-1,2.6-1.5c0.9-0.5,1.7-1,2.6-1.5c0.9-0.5,1.8-0.9,2.8-1.4c0.5-0.2,0.9-0.5,1.4-0.7
					c0.5-0.2,1-0.4,1.5-0.6c1-0.4,2-0.9,3-1.3c0.5-0.2,1-0.4,1.5-0.6c0.5-0.2,1-0.4,1.5-0.6c1-0.4,2.1-0.8,3.1-1.1
					c1.1-0.3,2.1-0.6,3.2-0.9c0.5-0.2,1.1-0.3,1.6-0.5l0.8-0.2l0.4-0.1l0.1,0c0,0,0.1,0,0.1,0l0.1,0l0.2,0c1.1-0.2,2.2-0.5,3.3-0.7
					c1.1-0.2,2.2-0.5,3.3-0.7c1.1-0.2,2.3-0.3,3.4-0.5c2.3-0.3,4.5-0.7,6.8-0.8c1.1-0.1,2.3-0.2,3.4-0.3c0.6,0,1.1-0.1,1.7-0.1
					c0.6,0,1.1,0,1.7,0c2.2,0,4.4-0.2,6.6-0.1c2.2,0.1,4.3,0.1,6.5,0.2c2.1,0.1,4.2,0.2,6.2,0.4c2,0.2,4,0.4,5.9,0.6
					c1.9,0.2,3.8,0.5,5.6,0.8c1.8,0.3,3.5,0.6,5.2,0.9c3.3,0.6,6.3,1.3,9,1.9c1.3,0.3,2.6,0.6,3.7,0.9c1.1,0.3,2.2,0.6,3.1,0.9
					c1.9,0.5,3.4,1,4.4,1.3c1,0.3,1.5,0.5,1.5,0.5s-2.2-0.5-6-1.2c-1-0.2-2-0.4-3.2-0.6c-1.2-0.2-2.4-0.4-3.8-0.6
					c-1.3-0.2-2.8-0.4-4.3-0.6c-1.5-0.2-3.1-0.5-4.8-0.6c-1.7-0.2-3.4-0.4-5.2-0.6c-1.8-0.2-3.6-0.3-5.6-0.5
					c-1.9-0.1-3.9-0.2-5.9-0.4c-2-0.1-4.1-0.1-6.1-0.2c-2.1,0-4.2,0-6.3,0c-1.1,0-2.1,0.1-3.2,0.1c-1.1,0-2.2,0.1-3.3,0.1
					c-0.5,0-1.1,0-1.6,0.1c-0.5,0-1.1,0.1-1.6,0.1c-1.1,0.1-2.2,0.2-3.3,0.3c-2.2,0.1-4.4,0.5-6.5,0.8c-1.1,0.2-2.2,0.3-3.3,0.5
					c-1.1,0.2-2.2,0.4-3.3,0.7c-1.1,0.2-2.2,0.4-3.3,0.7l-0.2,0l-0.1,0c0,0,0.1,0,0,0l-0.1,0l-0.4,0.1l-0.8,0.2
					c-0.5,0.1-1,0.3-1.6,0.4c-1,0.3-2.1,0.6-3.1,0.9c-1,0.3-2,0.7-3,1c-0.5,0.2-1,0.3-1.5,0.5c-0.5,0.2-1,0.3-1.5,0.5
					c-1,0.4-1.9,0.8-2.9,1.2c-3.8,1.6-7.4,3.4-10.7,5.2c-1.7,0.9-3.2,1.9-4.8,2.8c-1.5,1-3,1.9-4.3,2.8c-2.7,1.9-5.2,3.7-7.3,5.5
					c-0.5,0.4-1,0.8-1.5,1.2c-0.5,0.4-0.9,0.8-1.4,1.2c-0.9,0.8-1.7,1.5-2.4,2.1C63.5,112.5,62,114.2,62,114.2z"/>
				<path id="XMLID_3630_" class="st1" d="M245.5,89.9c0,0,0.6,0.2,1.7,0.6c1.1,0.4,2.7,1,4.6,1.9c2,0.9,4.3,2,6.9,3.5
					c2.6,1.5,5.5,3.3,8.5,5.5c3,2.2,6.1,4.8,9.2,7.8c3,3,6.1,6.4,8.8,10.2c2.7,3.8,5.3,7.9,7.4,12.4c2.1,4.5,3.8,9.2,5.1,14.1
					c0.3,1.2,0.6,2.4,0.8,3.7c0.2,1.2,0.4,2.5,0.7,3.7c0.4,2.4,0.7,4.8,1.1,7.2c0.8,4.7,1.5,9.4,2.3,13.8c0.4,2.2,0.8,4.4,1.2,6.6
					c0.4,2.2,0.8,4.2,1.2,6.3c0.8,4.1,1.7,7.9,2.6,11.4c0.5,1.7,0.9,3.4,1.4,5c0.4,1.6,1,3.1,1.4,4.4c1,2.7,2,5.1,3,7
					c0.2,0.5,0.5,0.9,0.7,1.3c0.2,0.4,0.4,0.8,0.7,1.1c0.4,0.7,0.8,1.3,1.1,1.8c0.7,0.9,1,1.4,1,1.4s-0.4-0.4-1.2-1.3
					c-0.4-0.4-0.8-1-1.4-1.6c-0.5-0.7-1.1-1.4-1.7-2.3c-1.3-1.8-2.6-4-3.9-6.8c-1.3-2.7-2.6-5.9-3.8-9.4c-0.6-1.7-1.2-3.6-1.8-5.5
					c-0.3-1-0.5-1.9-0.8-2.9c-0.3-1-0.6-2-0.8-3c-1.1-4.1-2.1-8.4-3-12.9c-0.5-2.2-1-4.5-1.4-6.9c-0.4-2.3-0.9-4.7-1.3-7
					c-0.4-2.4-0.8-4.7-1.2-7.1c-0.2-1.2-0.4-2.3-0.7-3.5c-0.2-1.2-0.5-2.3-0.8-3.5c-1.2-4.6-2.7-9.1-4.6-13.3
					c-1.9-4.2-4.1-8.3-6.6-12c-2.5-3.7-5.2-7.1-7.9-10.1c-2.8-3-5.6-5.7-8.3-8.1c-2.7-2.3-5.4-4.4-7.8-6.1c-2.4-1.7-4.6-3.1-6.4-4.2
					c-1.8-1.1-3.3-1.9-4.3-2.4C246.1,90.2,245.5,89.9,245.5,89.9z"/>
				<path id="XMLID_3629_" class="st1" d="M41,141.1c-2.6,6.3-5.2,12.6-8.7,18.4s-8.1,11.1-13.8,14.7"/>
				<g id="XMLID_3626_">
					<path id="XMLID_104_" class="st1" d="M40.6,129.9c-0.6,0-1.2,0-1.8,0c-0.6,0-1.2,0.1-1.8,0.1c-0.6,0.1-1.2,0.1-1.8,0.2
						c-0.6,0.1-1.2,0.2-1.7,0.3c-0.6,0.1-1.1,0.3-1.7,0.5c-0.6,0.2-1.1,0.4-1.6,0.6c-0.5,0.2-1.1,0.4-1.6,0.7
						c-0.5,0.3-1,0.5-1.5,0.8l-0.8,0.5l-0.7,0.5c-0.5,0.3-0.9,0.7-1.4,1c-0.4,0.4-0.9,0.7-1.3,1.1c-0.4,0.4-0.8,0.8-1.2,1.2
						c-0.4,0.4-0.7,0.9-1.1,1.3c-0.3,0.5-0.7,0.9-1,1.4c-0.3,0.5-0.6,1-0.9,1.5c-0.3,0.5-0.5,1-0.8,1.5l-2.1-1.8
						c0.8-0.4,1.5-0.8,2.3-1.2c0.8-0.4,1.6-0.7,2.4-1c0.8-0.3,1.6-0.6,2.4-0.9c0.8-0.3,1.7-0.5,2.5-0.7c0.8-0.2,1.7-0.4,2.5-0.5
						l1.3-0.2l1.3-0.2c0.9-0.1,1.7-0.2,2.6-0.2c0.9,0,1.7,0,2.6,0l-2.5,0.6l-2.4,0.7l-2.4,0.8c-0.8,0.3-1.6,0.6-2.3,0.9
						c-0.8,0.3-1.5,0.6-2.3,1l-2.2,1c-0.7,0.4-1.5,0.7-2.2,1.1l-2.1,1.2l-3.8,2.3l1.8-4.1c0.3-0.6,0.5-1.2,0.8-1.8
						c0.3-0.6,0.6-1.1,1-1.7c0.4-0.5,0.7-1.1,1.2-1.6c0.4-0.5,0.8-1,1.3-1.5c0.5-0.5,0.9-0.9,1.4-1.4c0.5-0.4,1-0.8,1.5-1.2
						c0.5-0.4,1.1-0.7,1.6-1.1l0.9-0.5l0.8-0.4c0.6-0.3,1.2-0.5,1.8-0.7c0.6-0.2,1.2-0.4,1.8-0.6c0.6-0.2,1.2-0.3,1.9-0.4
						c0.6-0.1,1.3-0.2,1.9-0.2c0.6,0,1.3-0.1,1.9,0c0.6,0,1.3,0.1,1.9,0.1c0.6,0.1,1.2,0.2,1.8,0.3C39.4,129.5,40,129.7,40.6,129.9z
						"/>
				</g>
				<g id="XMLID_3238_">
					<path id="XMLID_102_" class="st1" d="M59.2,135.7c0,0-1.1,0.3-2.6,0.2c-0.4,0-0.8,0-1.2-0.1c-0.4-0.1-0.9-0.1-1.4-0.2
						c-0.5-0.1-1-0.2-1.4-0.4c-0.5-0.2-1-0.4-1.4-0.6c-0.4-0.2-0.9-0.5-1.3-0.8c-0.4-0.3-0.8-0.7-1.2-1c-0.4-0.3-0.7-0.7-1-1.1
						c-0.3-0.4-0.5-0.8-0.7-1.1c-0.2-0.4-0.3-0.7-0.4-1c-0.1-0.3-0.2-0.6-0.2-0.8c-0.1-0.2,0-0.4-0.1-0.6c0-0.1,0-0.2,0-0.2l0.2-0.1
						c0,0,0.1,0.2,0.4,0.6c0.2,0.3,0.6,0.8,1.1,1.4c1,1.1,2.5,2.2,4.2,3.1c1.7,0.9,3.5,1.6,4.9,2c1.4,0.4,2.3,0.7,2.3,0.7
						L59.2,135.7z"/>
				</g>
			</g>
			<g id="XMLID_3230_">
				<path id="XMLID_100_" class="st1" d="M125.1,26.2c0,0-0.5,0.2-1.4,0.5c-0.9,0.3-2.3,0.7-4,1.2c-3.4,1-8.5,2-14.4,3.4
					c-3,0.7-6.1,1.6-9.4,2.7c-3.2,1.1-6.5,2.7-9.7,4.6c-3.2,1.9-6.3,4.3-9.2,7c-2.9,2.7-5.6,5.6-8.2,8.7c-2.6,3.1-5,6.3-7.3,9.6
					c-2.2,3.3-4.4,6.6-6.2,9.9c-1.8,3.3-3.5,6.6-4.8,9.8c-1.3,3.2-2.5,6.3-3.3,9.2c-1.7,5.8-2.5,10.8-2.8,14.4
					c-0.1,1.8-0.2,3.2-0.2,4.1c0,1,0,1.5,0,1.5s0-0.5-0.1-1.5c-0.1-1-0.2-2.4-0.2-4.2c0-3.6,0.3-8.8,1.7-14.8c0.7-3,1.7-6.2,2.9-9.6
					c1.2-3.3,2.8-6.8,4.6-10.2c1.8-3.4,3.8-6.9,6.1-10.2c2.3-3.4,4.7-6.7,7.4-9.9c2.6-3.2,5.5-6.2,8.5-9c3-2.7,6.4-5.1,9.8-7.1
					c3.4-2,6.9-3.4,10.3-4.5c3.4-1,6.7-1.7,9.7-2.2c3-0.5,5.8-0.9,8.3-1.3c2.5-0.4,4.6-0.7,6.4-1c1.8-0.3,3.1-0.6,4.1-0.8
					C124.6,26.3,125.1,26.2,125.1,26.2z"/>
			</g>
		</g>
		<g id="XMLID_3044_">
			<path id="XMLID_98_" class="st1" d="M334,281.4c0,0-0.4,0.1-1.2,0.3c-0.8,0.2-1.9,0.5-3.4,0.9c-1.5,0.4-3.3,0.8-5.4,1.1
				c-2.1,0.3-4.5,0.5-7.2,0.3c-2.7-0.2-5.5-0.9-8.4-1.8c-0.7-0.2-1.4-0.5-2.2-0.7c-0.4-0.1-0.7-0.2-1.1-0.4
				c-0.3-0.1-0.8-0.3-1.1-0.5c-1.5-0.8-2.9-1.6-4.2-2.6c-2.7-1.9-5.3-4.1-7.8-6.6l-0.9-1l-0.8-1c-0.6-0.7-1.1-1.3-1.7-2l-1.6-2.1
				l-1.5-2.2c-2-2.9-3.8-5.9-5.4-9c-0.8-1.5-1.5-3.1-2.3-4.6c-0.7-1.6-1.4-3.1-1.9-4.6c-0.6-1.5-1.2-3-1.6-4.6
				c-0.3-0.7-0.5-1.5-0.7-2.2c-0.2-0.7-0.4-1.5-0.6-2.2c-0.2-0.7-0.4-1.4-0.6-2.1c-0.2-0.7-0.4-1.4-0.5-2.1c-0.4-1.4-0.7-2.7-0.9-4
				c-0.5-2.6-0.9-4.9-1.2-7c-0.3-2.1-0.5-3.9-0.6-5.5c-0.2-3-0.3-4.8-0.3-4.8s0.4,1.7,1,4.7c0.3,1.5,0.8,3.3,1.2,5.3
				c0.5,2,1.1,4.3,1.8,6.8c0.3,1.2,0.7,2.5,1.2,3.9c0.2,0.7,0.4,1.3,0.6,2c0.2,0.7,0.5,1.4,0.7,2.1c0.5,1.4,1,2.8,1.6,4.3
				c0.5,1.5,1.1,2.9,1.8,4.4c0.6,1.5,1.3,2.9,2,4.5c0.7,1.5,1.4,3,2.2,4.5c0.4,0.7,0.8,1.5,1.2,2.2c0.4,0.7,0.9,1.5,1.3,2.2
				c0.4,0.7,0.9,1.5,1.3,2.2c0.5,0.7,0.9,1.5,1.4,2.1l1.5,2.1l1.5,2c0.5,0.7,1.1,1.3,1.6,2l0.8,1l0.8,0.9c2.3,2.4,4.8,4.6,7.3,6.5
				c1.3,0.9,2.6,1.8,3.8,2.5c1.2,0.7,2.7,1.2,4.1,1.7c2.7,1,5.4,1.9,7.9,2.2c2.5,0.4,4.9,0.4,6.9,0.3c2.1-0.1,3.9-0.3,5.4-0.6
				C332.3,281.7,334,281.4,334,281.4z"/>
		</g>
	</g>
	<g id="XMLID_3040_">
		<path id="XMLID_3042_" class="st1" d="M26.9,175.6c-0.7,1.9-1.3,3.8-2,5.7c-0.6,1.9-1.3,3.7-1.8,5.6c-0.3,0.9-0.5,1.9-0.7,2.8
			c-0.1,0.5-0.1,0.9-0.2,1.4l-0.1,1.5c-0.2,2-0.3,3.9-0.4,5.9c-0.2,4-0.4,8-0.5,11.9l-0.4,12c-0.3,8-0.6,16-1,24
			c-0.2,4-0.5,8-0.9,12l-0.3,3l0,0.3l0,0.2l0,0.1c0,0.1,0,0.3,0.1,0.4c0.1,0.3,0.2,0.6,0.4,0.8c0.4,0.5,1.1,0.8,1.7,0.8
			c0.6,0,1.2-0.3,1.6-0.9l-0.1,0.3l3.4-9.7l3.4-9.7l3.5-9.6c1.2-3.2,2.4-6.4,3.6-9.6c-0.9,3.3-1.8,6.6-2.8,9.9l-2.9,9.8l-3,9.8
			l-3,9.8l0,0.1l-0.1,0.2c-0.7,1.1-2,1.9-3.4,2c-1.4,0.1-2.7-0.5-3.7-1.5c-0.5-0.5-0.8-1.1-1-1.8c-0.1-0.3-0.1-0.7-0.1-1l0-0.3
			l0-0.2l0-0.4l0.3-3c0.1-2,0.3-4,0.4-5.9l0.3-6l0.9-23.9c0.3-8,0.7-16,1.3-24c0.2-2,0.3-4,0.6-6c0.1-0.5,0.1-1,0.2-1.5
			c0.1-0.5,0.2-1.1,0.4-1.6c0.3-1,0.6-2,1-2.9c0.8-1.9,1.7-3.7,2.7-5.5C24.7,179,25.8,177.3,26.9,175.6z"/>
	</g>
</g>
</svg>
