<?xml version="1.0" encoding="utf-8"?>
<!-- Generator: Adobe Illustrator 19.0.0, SVG Export Plug-In . SVG Version: 6.00 Build 0)  -->
<svg version="1.1" id="Layer_1" xmlns="http://www.w3.org/2000/svg" xmlns:xlink="http://www.w3.org/1999/xlink" x="0px" y="0px"
	 viewBox="0 0 577.5 598.5" style="enable-background:new 0 0 577.5 598.5;" xml:space="preserve">
<style type="text/css">
	.st0{fill:#EF7B05;}
	.st1{fill:#FFFFFF;}
</style>
<g id="XMLID_1426_">
	<g id="XMLID_1515_">
		<path id="XMLID_1529_" class="st0" d="M433.8,538.7c-0.3,0-0.6,0.4-0.9,0.6c0.1,0,0.1,0,0.2-0.1
			C433.4,539.1,433.6,538.9,433.8,538.7C433.9,538.7,433.9,538.7,433.8,538.7C433.9,538.7,433.8,538.7,433.8,538.7z"/>
		<path id="XMLID_1528_" class="st0" d="M432.6,539.2c0.1,0.2,0.2,0.2,0.3,0C432.6,539.3,432.5,538.8,432.6,539.2z"/>
		<path id="XMLID_1527_" class="st0" d="M433.8,533.9c-0.5,0-1,1.5-1.2,1c-0.2-0.5,0.1,0.8,0.5,0.5c0.6-0.4,1.3-0.7,1.9-1.1
			C434.7,534.1,434.3,533.9,433.8,533.9C433.9,533.9,433.8,533.9,433.8,533.9z"/>
		<path id="XMLID_1526_" class="st0" d="M483,526.4C483,526.4,483,526.4,483,526.4C483,526.4,483,526.4,483,526.4L483,526.4z"/>
		<path id="XMLID_1525_" class="st0" d="M483,531.2C483,531.2,483,531.2,483,531.2C483,531.2,483,531.2,483,531.2L483,531.2z"/>
		<path id="XMLID_1524_" class="st0" d="M388,525.3c0,0.2,0.2,0.2,0.3,0.1C388.1,525.2,387.9,524.9,388,525.3z"/>
		<path id="XMLID_1521_" class="st0" d="M510.3,481.4c0.2-4.2-0.5-8.6-1.2-13c-3.1-17.5-12.6-34-21.8-49.9
			c-1.9-3.3-3.2-17.1-3.6-20.8c-2.9-24.1-1.9-20-2.6-36.7c0.1-2.4,0.4-4.9,0.8-7.3c1-14.4,1-12.4,1.9-25.6
			c0.7-10.4,3.5-20.2,3.4-29.8c0-3.8,0-7.6-0.1-11.2c-0.2-8-0.4-16-0.8-24c0,0,0,0,0-0.1c0-0.3,0-0.6-0.1-0.8
			c-1.2-28.5-4-56.4-11.9-83.4c-0.8-2.6-1.7-5.1-2.5-7.6c0-0.2,0-0.5-0.1-0.7c-0.1-0.1-0.1-0.2-0.2-0.4
			c-12.1-35.7-32.9-66-60.7-87.8C396.4,71.1,382.1,63.4,367,59c-23.9-7.1-50.1-6.4-72.1,1.7c-23.6-9.2-55.5-7-81.5,5.7
			c-20.7,10-38.6,26.2-54.7,49.4c-24.3,34.9-39.2,81.7-39.9,125.4c-6.3,21.7-5.6,27.9-10.3,43.4c-6.4,21-4.9,27.2-4.5,39.5
			c-0.2,8,0.7,15.7,2.8,23c5.4,18.4,1.9,8.5,17,44.2c0.1,1.1,0,2.1,0.1,3.1c-0.2,5.9,0.1,11.5-1.3,16.8
			c-3.4,12.9-3.9,25.1-14.7,35.4c-2.3,2.2-4.8,4.4-7.3,6.6c-7.3,6.3-14.8,12.9-18.1,21.1c-1.5,3.7-2,7.7-1.6,11.7
			c-0.7,7.7,2.1,15.8,8.3,22.7c6.4,7.2,16.3,12.9,28,16.3c0.4,0.6,1.1,1.1,2,1.3c0.3,0.1,0.7,0.1,1,0.1c0.5,0,0.9-0.1,1.3-0.3
			c0.1,0.1,0.1,0.2,0.2,0.2l1.6,0.9c0.2,0.1,0.4,0.2,0.6,0.2c0.4,0,0.8-0.2,1-0.5c0.4-0.5,0.3-1.2-0.2-1.6c-1.5-1.2-2.9-2.5-4.2-3.8
			c0.4,0,0.7-0.1,1-0.2c0.1,0.1,0.1,0.2,0.2,0.2l1.6,0.9c0.2,0.1,0.4,0.2,0.6,0.2c0.4,0,0.8-0.2,1-0.5c0.4-0.5,0.3-1.2-0.2-1.6
			c-10.3-8.2-16.1-19.5-16.7-30.9c0.4-5.9,2.3-11.7,5.6-16.9c1.6-2.6,3.6-5.1,5.6-7.6c2.4-3.1,4.9-6.3,6.8-9.8c0,0,0.1,0,0.1,0.1
			c0.9,18,2.5,36.8,12.7,54.3c9.9,17,32.3,33.3,60,33.3h0c0.1,0,0.2,1.1,0.3,1.1c0.4,0,0.8,0.6,1.2,0.6c0.3,0,0.5,0.3,0.8,0.3
			c0.7,0,1.2-0.4,1.2-1.1c0-0.6-0.6-1.1-1.2-1.1c-0.3,0-0.5,0-0.7,0c-5.5,0-10.4-2.2-14.7-4.6c4.2,0.9,8.6,0.7,13.2,0.7h0
			c0.1,0,0.2,0.7,0.3,0.7c0.4,0,0.8,0.4,1.2,0.4c0.3,0,0.5,0.2,0.8,0.2c0.7,0,1.2-0.5,1.2-1.1c0-0.6-0.6-1.1-1.2-1.1
			c-0.3,0-0.5,0-0.7,0c-15.6,0-26.7-11.5-32-22.5c-0.4-0.7-0.6-1.5-0.9-2.2c0.1,0,0.2,0,0.3-0.1c0.5-0.4,0.6-1.2,0.2-1.7
			c-0.9-1.2-1.8-2.4-2.7-3.7c-2.1-6.1-3.2-12.4-3.4-18.7c0.3-6.9,1.6-13.7,4.1-20.3c6.6,12.5,24.5,21.6,44,22
			c18.4,0.4,37.2-6.4,51.7-18.4c0.5-0.4,0.6-1.1,0.2-1.6c-0.3-0.5-1-0.7-1.6-0.4c-1.6,0.7-3.3,1.3-5.1,1.9c2.2-1.5,4.3-3,6.4-4.7
			c0.5-0.4,0.6-1.1,0.2-1.6c-0.3-0.5-1-0.7-1.6-0.4c-18.6,8.6-44,8-61.8-1.5c-1.5-0.8-3-1.7-4.4-2.7
			c-67.5-59.5,19.5-232.5,25.2-232.1c0.3,0,0.7-0.1,0.9-0.3c0.2-0.2,0.4-0.5,0.4-0.8c0.5-8.7,3.7-20.5,6.6-30
			c0.2,7.9,1.2,15.9,3,23.7c0,0,0,0,0,0c0.3,2.7,0.7,3.8,1.2,6.5c0.1,0.5,0.6-0.5,1.2-0.5h0c0.6,0,1.1,1.1,1.2,0.6l4.8-16.3
			c6.1,5.1,15,8.9,22.9,12l1.4,0.7c0.1,0,0.1,0.1,0.2,0.1c0.1,0,0.2,0.1,0.2,0.1c0.1,0,0.1,0,0.2,0c0.1,0,0.1-0.1,0.1-0.1
			c0.2,0,0.3-0.1,0.4-0.2c0.1-0.1,0.2-0.2,0.3-0.3c0,0,0.1-0.1,0.1-0.1c0-0.1,0-0.2,0-0.3c0-0.1,0.1-0.2,0.1-0.3
			c-0.2-1.3-0.3-2.5-0.5-3.8c0.1-0.1,0.2-0.2,0.3-0.3c0,0,0.1-0.1,0.1-0.1c0-0.1,0-0.2,0-0.3c0-0.1,0.1-0.2,0.1-0.3
			c-1.9-13.3-2.8-26.7-2.9-40.1c0.2-14.1,1.5-28.3,3.8-42.3c-0.1,2.6-0.1,5.3-0.1,8c-0.2,24.8,2.3,53,4.7,75.8
			c-0.1,0.1-0.2,0.2-0.3,0.3c-0.2,0.6,0.1,1.3,0.7,1.5c5,1.9,10.6,2.8,16.2,2.8c4.4,0,8.8-0.6,12.9-1.8c0.4-0.1,0.7-0.4,0.8-0.8
			c5.7-15.8,9.4-31.9,11.2-48.1c0.1,3.7,0.2,7.3,0.3,11c0,11.2-0.5,22.5-1.5,33.6c0,0.3,0.1,0.6,0.3,0.8c-0.1,1.3-0.2,2.6-0.3,4
			c0,0.3,0.1-0.9,0.3-0.7c0.2,0.2,0.6-1.2,0.9-1.2h0c10.4,0,20.8,0,30.8-2.3c0.2,0.2,0.4,1.2,0.7,1.3l10.2,3.2
			c0.2,0.1,0.5,0.5,0.9,0.5c0.2,0,0.5,0.1,0.8-0.1c0.5-0.2,0.8-0.7,0.7-1.2c0.5,0,1-0.3,1.1-0.8c0.2-0.7,0.4-1.4,0.6-2.1
			c0,0,0,0.1,0,0.1c4.7,2.9,9.8,4.4,14.8,4.4c3.5,0,6.8-0.7,9.9-2.2c0,0,0-0.1,0.1-0.1c0.3-0.2,0.5-0.9,0.6-1.2c0,0,1-0.5,1-0.5h1.9
			v0.9c0-3-0.2-6.1,0.3-9.2c0.1-0.4-0.6-0.8-0.5-1.1c0-0.1-0.4-0.1-0.4-0.2c0.3-2.5,0.4-5,0.5-7.5l4.1,14.6c0.1,0.5,0.5,0.8,1,0.9
			c0.4,0.1,0.8,0.1,1.2,0.1c1,0,2.1-0.1,3.4-0.3c-0.1,3,66.2,159.2,10.3,240.7c-10.7,13.1-26.5,23.8-45,30.2c1.9,0.4,3.7,1.2,5.6,1
			c-2.6,1.1-5.3,2.9-8.1,3.8c-0.6,0.2-0.9,0.2-0.8,0.7c0.1,0.6,0.6,0.4,1.2,0.4h0c28.2,0,52.1-11.7,69.8-34.5
			c0.2-0.1,0.4,0.4,0.5,0.3c2-2.3,3.7-4.7,5.2-7.6c0.2-0.3,0.5-0.5,0.7-0.9c0.1-0.1,0-0.2,0.1-0.4c0.1-0.3,0.3-0.5,0.4-0.7
			c1,2.9,1.7,6,1.9,9.3c-0.5,8.3-3.4,17.6-8.8,27.9c-6.8,12.9-19.7,24.1-35.7,31c1.4,0.5,2.7,1,4,0.8c-1.9,0.9-3.9,2.5-5.9,3.6
			c20.7-0.3,40.7-9.7,53.8-25.6c8.8-10.6,13.7-21.4,16.7-32.4c0,0,0,0.5,0,0.5c0-0.1,0,0,0.1-0.1c1.1-4,2-7.7,2.7-11.4
			c4,7.4,6,15.2,6.3,22.8c-0.9,22.2-15.2,43.3-34.8,55.7c0.8,0.5,1.7,1.2,2.6,1.1c-1.2,0.9-2.3,2.4-3.6,3.4c1.6,0,5.3,3,10.3,2.6
			v-2.4h-4.8c19.2-5,34.7-18.1,42.8-31.1c7.6-12.1,11.2-24.1,10.6-35.9c0-0.2,0,0,0-0.2c2.1,5.5,3.3,11.4,3.6,17.2
			c-0.6,13.1-6.1,25.9-16,35.4c-0.1,0.1-0.1,0.2-0.1,0.3c-0.1,0.1-0.2,0.3-0.2,0.4c0,0.1,0,0.3,0.1,0.5c0,0.1,0,0.2,0,0.3
			c0,0.1,0.1,0.1,0.2,0.2c0,0,0,0.1,0,0.1c0,0,0.8,0,0.9,0c0.2,0.2,1.3,0.3,1.5,0.3c-0.1,0-0.3-0.1-0.1-0.1c0.9-0.5,1.3-1,2.2-1.5
			c-1.3,1.5-2.8,3-4.2,4.4c-0.1,0.1-0.2,0.2-0.2,0.3c-0.1,0.1-0.2,0.3-0.2,0.4c0,0.1,0,0.3,0,0.4c0,0.1,0,0.2,0,0.3
			c0,0.1,0.1,0.1,0.2,0.2c0,0,0,0.1,0,0.1c0,0,0.8,0,0.9,0c0.2,0.2,1.3,0.3,1.5,0.3c-0.1,0-0.3-0.1-0.1-0.1
			C501.1,521.2,511.1,502.3,510.3,481.4z M286.6,224.3L286.6,224.3C286.6,224.3,286.6,224.3,286.6,224.3
			C286.6,224.3,286.6,224.3,286.6,224.3z"/>
		<path id="XMLID_1520_" class="st0" d="M389.2,524.7c-0.4,0-0.7,0.4-0.9,0.6c0.1,0.1,0.3,0.1,0.5,0c0.5-0.2,1-0.4,1.4-0.7
			C389.9,524.7,389.6,524.7,389.2,524.7C389.3,524.7,389.2,524.7,389.2,524.7z"/>
		<path id="XMLID_1519_" class="st0" d="M358,489.9c-0.4,0-0.8,0.5-1,0.7c0.1,0.2,0.4,0.3,0.6,0.3c0.8-0.3,1.7-0.5,2.5-0.8
			C359.5,490,358.7,489.9,358,489.9L358,489.9z"/>
		<path id="XMLID_1518_" class="st0" d="M356.8,490.5c0,0.2,0.1,0.2,0.2,0.1C356.8,490.3,356.7,490.1,356.8,490.5z"/>
		<path id="XMLID_1517_" class="st0" d="M389.2,519.9c-0.5,0-1,1.3-1.2,1.2c0.1,0.3,0.4,0.7,0.7,0.6c1.1-0.4,2.2-0.8,3.3-1.3
			C391.1,520.1,390.2,519.9,389.2,519.9C389.3,519.9,389.2,519.9,389.2,519.9z"/>
		<path id="XMLID_1516_" class="st0" d="M388,520.9C388,521,388.1,521,388,520.9C388,520.8,388,520.7,388,520.9z"/>
	</g>
	<g id="XMLID_1512_">
		<path id="XMLID_518_" class="st1" d="M387.8,138c0,0,0.5,1.6,1.5,4.4c0.5,1.4,1,3.1,1.6,5.1c0.3,1,0.6,2,0.9,3.2
			c0.3,1.1,0.6,2.3,0.9,3.5c0.3,1.2,0.6,2.5,0.9,3.8c0.3,1.3,0.6,2.7,0.9,4.2c0.3,1.4,0.6,2.9,0.8,4.4c0.3,1.5,0.5,3,0.8,4.6
			c0.4,3.2,0.9,6.4,1.2,9.7c0.4,3.3,0.5,6.7,0.7,10.1c0.1,3.4,0.2,6.8,0.1,10.1c0,3.3-0.3,6.6-0.4,9.8c-0.1,1.6-0.3,3.1-0.4,4.7
			c-0.1,1.5-0.3,3-0.5,4.5c-0.2,1.4-0.4,2.8-0.6,4.2c-0.2,1.4-0.4,2.7-0.6,3.9c-0.2,1.3-0.4,2.5-0.6,3.6c-0.2,1.1-0.5,2.2-0.7,3.2
			c-0.4,2-0.8,3.8-1.2,5.2c-0.7,2.9-1.2,4.5-1.2,4.5s0.3-1.7,0.8-4.6c0.3-1.4,0.6-3.2,0.8-5.3c0.1-1,0.3-2.1,0.5-3.2
			c0.1-1.1,0.3-2.3,0.4-3.6c0.1-1.3,0.3-2.6,0.5-3.9c0.1-1.4,0.3-2.8,0.4-4.2c0.2-1.4,0.3-2.9,0.3-4.4c0.1-1.5,0.2-3.1,0.3-4.6
			c0.1-3.1,0.2-6.4,0.2-9.7c0.1-3.3-0.1-6.7-0.1-10c-0.2-3.4-0.3-6.7-0.6-10c-0.2-3.3-0.6-6.5-1-9.7c-0.2-1.6-0.4-3.1-0.6-4.6
			c-0.2-1.5-0.4-3-0.7-4.4c-0.2-1.4-0.5-2.8-0.7-4.2c-0.2-1.3-0.5-2.6-0.8-3.9c-0.2-1.2-0.5-2.4-0.7-3.6c-0.3-1.1-0.5-2.2-0.7-3.2
			c-0.4-2-0.8-3.8-1.2-5.2C388.2,139.6,387.8,138,387.8,138z"/>
	</g>
	<g id="XMLID_1509_">
		<path id="XMLID_516_" class="st1" d="M223.5,242.6c0,0-1.2-1.5-3.3-4.1c-0.5-0.7-1.1-1.4-1.7-2.2c-0.6-0.8-1.2-1.7-1.8-2.7
			c-0.7-1-1.3-2-2.1-3.1c-0.7-1.1-1.3-2.3-2.1-3.6c-0.7-1.3-1.5-2.5-2.2-3.9c-0.7-1.4-1.3-2.9-2.1-4.3c-0.3-0.7-0.7-1.5-1.1-2.3
			c-0.3-0.8-0.6-1.6-0.9-2.4c-0.6-1.6-1.3-3.3-1.9-5c-1-3.4-2.3-7-3-10.7c-1-3.7-1.5-7.5-2.1-11.3c-0.3-3.8-0.8-7.7-0.8-11.4
			c-0.2-3.8,0.1-7.5,0.2-11.1c0.1-1.8,0.4-3.6,0.6-5.3c0.1-0.9,0.2-1.7,0.3-2.6c0.1-0.8,0.3-1.7,0.4-2.5c0.3-1.6,0.6-3.2,0.9-4.7
			c0.3-1.5,0.8-3,1.1-4.4c0.4-1.4,0.7-2.7,1.1-4c0.4-1.2,0.8-2.4,1.2-3.5c0.4-1.1,0.7-2.1,1.1-3.1c0.3-0.9,0.8-1.8,1.1-2.6
			c1.4-3.1,2.1-4.8,2.1-4.8s-0.6,1.8-1.8,4.9c-0.3,0.8-0.6,1.6-0.9,2.6c-0.3,1-0.6,2-0.9,3.1c-0.3,1.1-0.7,2.3-1,3.5
			c-0.3,1.3-0.6,2.6-0.9,4c-0.3,1.4-0.7,2.8-0.9,4.3c-0.2,1.5-0.5,3.1-0.7,4.7c-0.1,0.8-0.3,1.6-0.4,2.4c-0.1,0.8-0.1,1.7-0.2,2.5
			c-0.1,1.7-0.3,3.4-0.4,5.2c-0.1,3.5-0.3,7.2,0,10.9c0,3.7,0.5,7.5,0.9,11.2c0.6,3.7,1.1,7.5,2,11.1c0.7,3.7,1.8,7.2,2.8,10.6
			c0.5,1.7,1.2,3.3,1.7,4.9c0.3,0.8,0.6,1.6,0.9,2.4c0.3,0.8,0.7,1.5,1,2.3c0.6,1.5,1.3,2.9,1.9,4.4c0.6,1.4,1.3,2.7,2,4
			c0.7,1.3,1.3,2.5,1.9,3.6c0.7,1.1,1.3,2.2,1.9,3.2c0.6,1,1.1,1.9,1.7,2.8c0.5,0.9,1.1,1.6,1.6,2.3
			C222.4,241,223.5,242.6,223.5,242.6z"/>
	</g>
	<g id="XMLID_1506_">
		<path id="XMLID_494_" class="st1" d="M208.5,257.7c0,0-0.3,0.6-1,1.6c-0.6,1-1.5,2.6-2.7,4.5c-0.6,1-1.3,2-1.9,3.2
			c-0.6,1.2-1.4,2.5-2.1,3.8c-0.7,1.4-1.5,2.8-2.4,4.4c-0.8,1.6-1.6,3.2-2.5,4.9c-0.8,1.7-1.8,3.5-2.6,5.4c-0.8,1.9-1.7,3.8-2.6,5.9
			c-0.4,1-0.9,2-1.3,3.1c-0.4,1.1-0.8,2.1-1.2,3.2c-0.8,2.2-1.7,4.3-2.5,6.6c-1.5,4.5-3.2,9.2-4.5,14.1c-1.5,4.8-2.5,9.8-3.7,14.8
			c-0.9,5-2,10-2.6,15c-0.8,5-1.2,9.9-1.7,14.6c-0.2,2.4-0.2,4.7-0.4,7c-0.1,1.2-0.1,2.3-0.2,3.4c0,1.1,0,2.2,0,3.3
			c0,2.2,0,4.3,0,6.4c0,2.1,0.1,4.1,0.2,6c0.1,1.9,0.2,3.8,0.2,5.5c0.1,1.7,0.3,3.4,0.4,5c0.1,1.6,0.2,3,0.4,4.4
			c0.1,1.3,0.3,2.6,0.5,3.7c0.3,2.2,0.5,4,0.7,5.2c0.1,1.2,0.2,1.8,0.2,1.8s-0.1-0.6-0.4-1.8c-0.2-1.2-0.6-2.9-1.1-5.1
			c-0.2-1.1-0.5-2.3-0.7-3.7c-0.2-1.3-0.4-2.8-0.6-4.3c-0.2-1.6-0.5-3.2-0.7-5c-0.2-1.7-0.3-3.6-0.5-5.5c-0.1-1.9-0.4-3.9-0.5-6
			c-0.1-2.1-0.1-4.2-0.2-6.5c0-1.1-0.1-2.2-0.1-3.4c0-1.1,0-2.3,0.1-3.5c0.1-2.3,0.1-4.7,0.2-7.1c0.4-4.8,0.6-9.8,1.4-14.9
			c0.6-5.1,1.6-10.1,2.6-15.2c1.2-5,2.3-10.1,3.9-14.9c1.3-4.9,3.2-9.6,4.8-14.2c0.9-2.3,1.8-4.4,2.7-6.6c0.5-1.1,0.9-2.1,1.3-3.2
			c0.5-1,1-2,1.4-3c1-2,1.9-3.9,2.8-5.8c0.9-1.9,2-3.6,2.9-5.3c1-1.7,1.8-3.3,2.7-4.8c0.9-1.5,1.8-2.9,2.7-4.2
			c0.8-1.3,1.6-2.6,2.4-3.7c0.7-1.1,1.5-2.1,2.1-3c1.3-1.8,2.4-3.3,3.1-4.2C208.1,258.2,208.5,257.7,208.5,257.7z"/>
	</g>
	<g id="XMLID_1465_">
		<path id="XMLID_492_" class="st1" d="M403.9,247.6c0,0,0.2,0.6,0.7,1.7c0.5,1.1,1.1,2.8,2,4.9c0.4,1.1,0.9,2.2,1.4,3.5
			c0.5,1.3,1,2.7,1.5,4.2c0.5,1.5,1.1,3.1,1.7,4.8c0.6,1.7,1.1,3.5,1.7,5.4c0.6,1.9,1.2,3.8,1.8,5.9c0.6,2,1.1,4.2,1.8,6.3
			c0.3,1.1,0.6,2.2,0.9,3.3c0.3,1.1,0.6,2.3,0.8,3.4c0.6,2.3,1.1,4.6,1.7,7c1,4.8,2.1,9.8,2.9,14.9c0.9,5.1,1.6,10.3,2.4,15.5
			c0.5,5.2,1.2,10.4,1.5,15.6c0.5,5.1,0.6,10.2,0.8,15.1c0.1,2.5,0.1,4.9,0.1,7.2c0,1.2,0,2.4,0,3.5c0,1.2,0,2.3-0.1,3.4
			c0,2.3-0.1,4.4-0.1,6.6c-0.1,2.1-0.2,4.2-0.3,6.1c-0.1,2-0.2,3.8-0.3,5.6c-0.2,1.8-0.3,3.5-0.5,5.1c-0.1,1.6-0.3,3.1-0.4,4.5
			c-0.1,1.4-0.3,2.6-0.4,3.8c-0.3,2.3-0.5,4.1-0.7,5.3c-0.2,1.2-0.2,1.9-0.2,1.9s0-0.7,0.1-1.9c0.1-1.2,0.1-3,0.3-5.3
			c0.1-1.1,0.2-2.4,0.2-3.8c0-1.4,0.1-2.9,0.1-4.5c0-1.6,0.1-3.3,0.1-5.1c0-1.8,0-3.7,0.1-5.6c0-2,0.1-4,0-6.1
			c0-2.1-0.1-4.3-0.1-6.5c0-1.1,0-2.3-0.1-3.4c0-1.1-0.1-2.3-0.1-3.5c-0.1-2.3-0.2-4.7-0.3-7.2c-0.3-4.9-0.6-9.9-1.1-15
			c-0.4-5.1-1-10.3-1.6-15.5c-0.7-5.2-1.3-10.3-2.2-15.4c-0.8-5.1-1.7-10-2.6-14.8c-0.5-2.4-1-4.7-1.5-7c-0.2-1.2-0.5-2.3-0.7-3.4
			c-0.2-1.1-0.5-2.2-0.8-3.3c-0.5-2.2-1-4.3-1.5-6.3c-0.5-2.1-1-4-1.5-5.9c-0.5-1.9-1-3.7-1.4-5.4c-0.5-1.7-1-3.3-1.4-4.9
			c-0.4-1.5-0.8-3-1.2-4.3c-0.4-1.3-0.8-2.5-1.1-3.6c-0.7-2.2-1.2-3.9-1.6-5.1C404.1,248.2,403.9,247.6,403.9,247.6z"/>
	</g>
</g>
</svg>
