<?xml version="1.0" encoding="utf-8"?>
<!-- Generator: Adobe Illustrator 19.0.0, SVG Export Plug-In . SVG Version: 6.00 Build 0)  -->
<svg version="1.1" id="Layer_1" xmlns="http://www.w3.org/2000/svg" xmlns:xlink="http://www.w3.org/1999/xlink" x="0px" y="0px"
	 viewBox="-310 132 339 297" enable-background="new -310 132 339 297" xml:space="preserve">
<g id="XMLID_7354_">
	<path id="XMLID_7537_" fill="#FFFFFF" d="M-29.5698,280.569c-28.2-18-35.2-34.3-53.2-54.5c5.9-0.4,12.8,1.2,18.3,2.7
		c8.4,2.3,16,5.9,21.7,12.6C-32.9698,252.569-29.6698,265.869-29.5698,280.569z"/>
	<path id="XMLID_7536_" fill="#FFFFFF" d="M-184.3698,224.869c21.2,34-3.6,87.9-60.7,65.4c-0.7-2.8-1.4-5.6-2.2-8.4
		c-2.1-7.2-4.1-13.7-2.2-21.2c4.9-19.6,34.1-31.6,51.7-34.8C-193.3698,224.969-188.8698,224.869-184.3698,224.869z"/>
	<path id="XMLID_7535_" fill="#EF7B05" d="M-10.1698,384.269c-0.1,4,1.3,19.8-4.3,21.3c-0.1-2.7,0-5.4,0.1-8.1c0.1-3.3,0.3-6.6,0-10
		c0-0.7-0.1-1.3-0.2-2c-0.9-6.3-2.3-12.4-3.3-18.7c-0.2-1.4-0.5-2.7-0.6-4.1c-1.5-10.9-8.9-19.3-11.5-29.6c-2.4-9.5,0-18.1,0.9-27.5
		c0.8-7.8-0.1-16-0.1-23.9v-0.3c0-0.4-0.1-0.7-0.1-1.1c-0.1-14.7-3.5-27.9-13.2-39.2c-5.8-6.7-13.4-10.3-21.8-12.6
		c-5.6-1.5-12.4-3.1-18.3-2.7c-0.2,0-0.3,0-0.4,0c-0.2,0-0.4,0.1-0.6,0.1c2.5,3.9,6.7,6.4,9.2,10.6c-5.4-3.4-12-10.6-19-9
		c0.4,1.2,2,3.8,3.3,4.4c-5.8-2.8-11.4-7.1-17.8-8.5c-7.7-1.7-17.9-0.9-25.6,0.8c-4.8,1.1-14.5,5.4-16.8,10c1.9-3.6,4.2-7.8,6.7-9.7
		c-5.9-0.1-16.2,5-20.3,8.9c2.7-5.5,12.3-12,18.6-11.7c-8.3-1.9-16.3,1.5-24.3,2.5c-5,0.6-9.9,0.5-14.9,0.5c-4.5,0-9,0.1-13.4,1
		c-12.7,2.3-31.3,9.1-42.6,20.1c-0.2,0.2-0.5,0.5-0.7,0.7c-4.1,4.1-7.1,8.8-8.4,14c-0.1,0.5-0.2,1-0.3,1.4c0,0.1,0,0.2,0,0.3
		c-1.2,6.9,0.7,12.9,2.6,19.6c0.8,2.8,1.6,5.6,2.2,8.4c2.8,11.7,4.2,23.7,1.8,35.7c-2.1,10.5-8.3,19.5-11.3,29.7
		c-1.1,3.7-1.9,7.6-2.5,11.6c-1.2,8.2-1.4,16.7-1.4,24.6c0.1,6.7,2.1,12.4,1.8,19.4c-1.8,0.3-3.2-1.6-4.3-4.7
		c-3.6-10.3-3.8-34.2-4.5-37.9c-1.3-6.7-8.2-12.1-10.7-18.7c-7.7-19.8-11-41.3-10.6-62.5c0.3-18.7,5.6-34.2,10.9-51
		c1-3.1,1.9-6.1,2.9-9.3c4.8-16.2,17.5-29,32.5-36.5c8-4,15.9-8.1,24.2-11.4c7.7-3,16.5-2.7,24.8-3.2c-4.1-2.3-9.8-5.2-14.8-4.9
		c10.1-0.4,22.3-4.5,32-0.1c-3.4-1.8-18-6.4-21.5-5.4c13.9-4.1,28.8-4.2,43.1-3.8c12.8,0.3,22.6,2.9,33.5,8.1
		c1.6,0.8,3.2,1.6,4.9,2.4c-0.4-0.8-0.9-1.5-1.4-2.2c-1.9-2.5-4.6-4.4-6.8-6.6c6.2,1.6,12.7,5.1,18.4,7.9c0.1,0,0.1,0.1,0.2,0.1
		c4.3,2.1,8.8,6.4,13.4,7.7c5,1.4,9.7-1.1,14.7-1.1c0.3,0,0.6,0,1,0c10.4,0.2,20.5,3.3,29.8,7.8c8.8,4.3,14.6,11.9,22.3,17.4
		c-2.9-2.1-6.1-3.8-9.2-5.6c0.5,0.4,1,0.9,1.4,1.3c2.2,2.4,3.8,5.3,5.9,8.2c3.5,4.8,7.6,8.7,10.1,14.2c13.3,29.6,19,64.7,20.2,96.9
		c0.5,14.7-1.5,25.8-9.3,38.4C-9.4698,366.069-9.8698,373.669-10.1698,384.269z"/>
	<g id="XMLID_7533_">
		<path id="XMLID_7534_" fill="#FFFFFF" d="M-266.0698,356.169c0,0,0-0.4,0-1.1s0-1.8,0.1-3c0.1-2.5,0.5-5.8,1.1-9.1
			c0.6-3.3,1.5-6.5,2.3-8.9c0.4-1.2,0.8-2.2,1-2.9c0.3-0.7,0.4-1.1,0.4-1.1s0.2-0.4,0.5-1.1s0.8-1.6,1.4-2.6c1.2-2.2,3-4.9,5-7.5
			c2-2.5,4.3-4.8,6.2-6.4c0.4-0.4,0.9-0.8,1.3-1c0.4-0.3,0.7-0.6,1-0.8c0.6-0.4,0.9-0.7,0.9-0.7s-0.3,0.3-0.8,0.7
			c-0.3,0.2-0.6,0.5-1,0.8s-0.8,0.7-1.2,1.1c-1.8,1.6-3.9,4.1-5.7,6.6c-1.8,2.6-3.5,5.4-4.5,7.6c-0.6,1.1-0.9,2-1.2,2.7
			s-0.5,1-0.5,1.1c0,0-0.2,0.4-0.5,1.1s-0.7,1.6-1.2,2.8c-0.9,2.3-2,5.5-2.7,8.7s-1.3,6.5-1.5,8.9c-0.2,1.2-0.2,2.3-0.2,3
			C-266.0698,355.769-266.0698,356.169-266.0698,356.169z"/>
	</g>
	<g id="XMLID_7531_">
		<path id="XMLID_7532_" fill="#FFFFFF" d="M-270.0698,348.169c0,0,0.1-1.7,0.3-4.2s0.6-5.8,1.1-9.1c0.6-3.3,1.3-6.6,2-9.1
			c0.3-1.2,0.7-2.2,0.9-3c0.2-0.7,0.4-1.1,0.4-1.2c0,0,0.2-0.4,0.5-1.1s0.7-1.6,1.3-2.7c1-2.3,2.8-5.1,4.7-7.7c1.9-2.7,4.2-5,6-6.7
			c0.9-0.8,1.7-1.5,2.2-1.9c0.5-0.5,0.8-0.7,0.8-0.7s-0.3,0.3-0.8,0.8s-1.3,1.2-2.1,2c-1.7,1.8-3.8,4.2-5.5,6.9s-3.3,5.6-4.2,7.8
			c-0.5,1.1-0.8,2.1-1.1,2.7c-0.3,0.7-0.4,1.1-0.4,1.1s-0.2,0.4-0.4,1.1c-0.2,0.7-0.7,1.7-1,2.9c-0.8,2.4-1.7,5.6-2.4,8.9
			s-1.2,6.6-1.6,9C-269.8698,346.569-270.0698,348.169-270.0698,348.169z"/>
	</g>
	<g id="XMLID_7529_">
		<path id="XMLID_7530_" fill="#FFFFFF" d="M-274.1698,335.969c0,0,0.1-0.4,0.2-1.2c0.1-0.7,0.3-1.8,0.5-3.1
			c0.5-2.5,1.2-5.9,2.2-9.2s2.2-6.6,3.2-8.9c0.5-1.2,1-2.2,1.3-2.9s0.5-1.1,0.6-1.1c0,0,0.2-0.4,0.6-1.1c0.4-0.6,0.9-1.6,1.6-2.6
			c1.3-2.2,3-5,5.1-7.7c2.1-2.6,4.5-5,6.5-6.4c0.2-0.2,0.5-0.4,0.7-0.5s0.5-0.3,0.7-0.4c0.4-0.3,0.8-0.5,1.1-0.7
			c0.6-0.4,1-0.6,1-0.6s-0.3,0.2-1,0.6c-0.3,0.2-0.7,0.4-1.1,0.7c-0.2,0.1-0.4,0.3-0.7,0.4c-0.2,0.2-0.4,0.4-0.7,0.6
			c-2,1.5-4.2,4-6.1,6.7s-3.5,5.6-4.7,7.8c-0.6,1.1-1.1,2-1.4,2.7s-0.5,1.1-0.5,1.1s-0.2,0.4-0.6,1.1s-0.9,1.6-1.4,2.8
			c-1.2,2.3-2.5,5.5-3.6,8.7s-2,6.5-2.6,9c-0.3,1.2-0.5,2.3-0.7,3C-274.0698,335.569-274.1698,335.969-274.1698,335.969z"/>
	</g>
	<g id="XMLID_7527_">
		<path id="XMLID_7528_" fill="#FFFFFF" d="M-272.4698,320.369c0,0,0.2-1.4,0.6-3.6c0.3-2.2,1.1-5,1.7-7.9c0.9-2.8,1.7-5.7,2.7-7.7
			c0.4-1,0.8-1.9,1.1-2.5c0.2-0.6,0.4-1,0.4-1s0.8-1.3,1.9-3.2c0.3-0.5,0.6-1,0.9-1.5c0.4-0.5,0.7-1,1.1-1.6
			c0.8-1.1,1.6-2.3,2.5-3.4c1.9-2.1,3.7-4.4,5.3-5.8c1.5-1.5,2.6-2.5,2.6-2.5s-1,1-2.4,2.6c-1.5,1.5-3.2,3.8-4.9,6
			c-0.8,1.2-1.5,2.4-2.3,3.5c-0.4,0.6-0.7,1.1-1,1.6s-0.6,1.1-0.8,1.5c-1,1.9-1.7,3.2-1.7,3.2s-0.2,0.3-0.5,0.9s-0.7,1.4-1.2,2.4
			c-1.1,1.9-2,4.7-3.1,7.4c-0.8,2.8-1.8,5.6-2.2,7.7C-272.1698,318.969-272.4698,320.369-272.4698,320.369z"/>
	</g>
	<g id="XMLID_7525_">
		<path id="XMLID_7526_" fill="#FFFFFF" d="M-277.3698,328.369c0,0,0-0.5,0-1.3s0-2.1,0.1-3.5c0.1-2.9,0.3-6.8,0.7-10.7
			c0.4-3.9,1.1-7.7,1.8-10.6c0.3-1.5,0.7-2.6,0.9-3.5c0.2-0.9,0.4-1.3,0.4-1.4c0,0,0.2-0.5,0.5-1.3s0.7-1.9,1.3-3.3
			c1.1-2.7,2.9-6,5-9.2c0.5-0.8,1.1-1.6,1.6-2.3c0.5-0.8,1.1-1.5,1.7-2.2c1.1-1.4,2.3-2.6,3.2-3.6c1-1,1.9-1.8,2.4-2.4
			c0.6-0.6,0.9-0.9,0.9-0.9s-0.3,0.3-0.9,0.9s-1.4,1.4-2.3,2.5s-2,2.3-3,3.8c-0.5,0.7-1.1,1.4-1.6,2.2c-0.5,0.8-1,1.6-1.5,2.4
			c-1.9,3.2-3.5,6.6-4.5,9.3c-0.5,1.3-0.9,2.4-1.1,3.2c-0.3,0.8-0.4,1.3-0.4,1.3s-0.2,0.5-0.4,1.3c-0.2,0.8-0.7,2-1,3.4
			c-0.8,2.8-1.6,6.6-2.2,10.4s-1,7.7-1.2,10.6c-0.1,1.4-0.2,2.7-0.2,3.5C-277.2698,327.869-277.3698,328.369-277.3698,328.369z"/>
	</g>
	<g id="XMLID_7523_">
		<path id="XMLID_7524_" fill="#FFFFFF" d="M-278.2698,339.969c0,0-0.1-0.6-0.4-1.7c-0.2-1.1-0.7-2.6-1-4.5
			c-0.8-3.7-1.6-8.8-2.1-13.9c-0.4-5.1-0.2-10.3,0.3-14.2c0.1-1,0.3-1.9,0.4-2.6c0.1-0.8,0.3-1.5,0.4-2c0.2-1.2,0.4-1.8,0.4-1.8
			s0.2-0.7,0.5-1.8s0.8-2.6,1.4-4.4c0.3-0.9,0.7-1.9,1-2.9c0.4-1,0.9-2,1.3-3.1c0.2-0.5,0.5-1.1,0.7-1.6c0.3-0.5,0.5-1.1,0.8-1.6
			c0.5-1.1,1.1-2.2,1.6-3.3c1.2-2.2,2.4-4.4,3.6-6.3c1.2-2,2.5-3.8,3.5-5.3c0.5-0.8,1-1.4,1.5-2s0.9-1.1,1.2-1.5
			c0.7-0.9,1-1.3,1-1.3s-0.4,0.5-1,1.4c-0.3,0.4-0.7,1-1.1,1.6s-0.9,1.3-1.4,2.1c-1,1.6-2.2,3.4-3.3,5.4c-1.2,2-2.3,4.2-3.4,6.4
			c-0.5,1.1-1,2.3-1.5,3.4c-0.2,0.6-0.5,1.1-0.7,1.7s-0.4,1.1-0.6,1.7c-0.4,1.1-0.8,2.1-1.2,3.1c-0.3,1-0.6,2-0.9,2.9
			c-0.6,1.8-1,3.3-1.3,4.4s-0.4,1.7-0.5,1.7c0,0-0.2,0.7-0.4,1.8c-0.1,0.6-0.3,1.2-0.4,2c-0.2,0.8-0.4,1.6-0.5,2.6
			c-0.6,3.8-0.9,8.9-0.7,14c0.3,5.1,0.9,10.2,1.6,13.9c0.3,1.9,0.7,3.4,0.9,4.5
			C-278.3698,339.269-278.2698,339.969-278.2698,339.969z"/>
	</g>
	<g id="XMLID_7521_">
		<path id="XMLID_7522_" fill="#FFFFFF" d="M-284.5698,304.369c0,0,0.3-6.3,0.8-12.7c0.3-3.2,0.6-6.4,1-8.8c0.2-1.2,0.3-2.2,0.4-2.9
			s0.2-1.1,0.2-1.2s0.4-1.6,1-3.9c0.2-0.6,0.3-1.2,0.5-1.8c0.2-0.6,0.5-1.3,0.7-2c0.5-1.4,0.9-2.9,1.5-4.3c1.3-2.8,2.4-5.7,3.7-7.7
			c1.1-2,1.9-3.4,1.9-3.4s-0.7,1.4-1.7,3.5c-1.1,2-2.1,5-3.2,7.8c-0.5,1.5-0.9,3-1.3,4.3c-0.2,0.7-0.4,1.4-0.6,2
			c-0.1,0.7-0.3,1.3-0.4,1.8c-0.5,2.3-0.8,3.8-0.8,3.9c0,0-0.1,0.4-0.3,1.1c-0.1,0.7-0.3,1.7-0.6,2.9c-0.5,2.3-1,5.5-1.5,8.6
			C-283.9698,298.069-284.5698,304.369-284.5698,304.369z"/>
	</g>
	<g id="XMLID_7519_">
		<path id="XMLID_7520_" fill="#FFFFFF" d="M-262.8698,361.369c0,0,0-0.4,0-1s0-1.5,0.1-2.6c0.2-2.2,0.5-5,1-7.9
			c0.6-2.9,1.3-5.7,2-7.8c0.3-1.1,0.7-1.9,0.9-2.5c0.2-0.6,0.4-1,0.4-1s0.2-0.4,0.5-0.9c0.3-0.6,0.7-1.4,1.2-2.3
			c1-1.9,2.6-4.3,4.3-6.5s3.7-4.3,5.2-5.8c0.7-0.7,1.4-1.3,1.9-1.7s0.7-0.6,0.7-0.6s-0.2,0.3-0.7,0.7c-0.4,0.4-1.1,1-1.7,1.8
			c-1.4,1.6-3.2,3.7-4.7,6s-3,4.7-3.8,6.7c-0.5,0.9-0.8,1.8-1.1,2.3c-0.2,0.6-0.4,0.9-0.4,0.9s-0.2,0.4-0.4,1
			c-0.2,0.6-0.6,1.4-1,2.4c-0.8,2-1.7,4.7-2.4,7.5c-0.7,2.8-1.2,5.6-1.5,7.8c-0.2,1.1-0.2,2-0.3,2.6
			C-262.8698,361.069-262.8698,361.369-262.8698,361.369z"/>
	</g>
	<g id="XMLID_7517_">
		<path id="XMLID_7518_" fill="#FFFFFF" d="M-3.5698,352.869c0,0-0.4-1.4-1-3.5s-1.5-5-2.4-7.8s-2-5.6-2.8-7.6
			c-0.4-1-0.8-1.9-1.1-2.5s-0.4-1-0.4-1s-0.2-0.4-0.4-1s-0.6-1.4-1.1-2.4c-0.9-2-2.3-4.5-3.8-6.9c-1.6-2.4-3.4-4.6-4.9-6.2
			c-0.7-0.8-1.4-1.4-1.9-1.8s-0.7-0.7-0.7-0.7s0.3,0.2,0.8,0.6s1.2,1,2,1.7c1.6,1.5,3.6,3.6,5.3,5.9s3.3,4.8,4.3,6.8
			c0.5,1,0.9,1.8,1.2,2.4s0.5,0.9,0.5,1c0,0,0.2,0.4,0.4,1s0.6,1.5,0.9,2.6c0.7,2.1,1.6,5,2.4,7.9s1.4,5.8,1.9,7.9
			C-3.8698,351.469-3.5698,352.869-3.5698,352.869z"/>
	</g>
	<g id="XMLID_7515_">
		<path id="XMLID_7516_" fill="#FFFFFF" d="M-1.2698,343.469c0,0-0.1-0.4-0.1-1.1c-0.1-0.7-0.2-1.6-0.4-2.8
			c-0.4-2.3-1.2-5.3-2.2-8.2s-2.2-5.8-3.2-7.9c-0.5-1.1-1-1.9-1.3-2.5s-0.5-1-0.5-1s-0.2-0.4-0.5-1s-0.7-1.5-1.2-2.5
			c-1-2-2.6-4.6-4.2-7.1c-1.7-2.5-3.4-4.9-4.8-6.7c-0.7-0.9-1.3-1.6-1.7-2.1c-0.4-0.5-0.7-0.8-0.7-0.8s0.3,0.3,0.7,0.7
			c0.4,0.5,1.1,1.1,1.9,2c1.5,1.7,3.4,4,5.2,6.4s3.5,5,4.7,6.9c0.6,1,1.1,1.8,1.4,2.4c0.3,0.6,0.5,0.9,0.5,1c0,0,0.2,0.4,0.5,1
			s0.7,1.5,1.2,2.6c0.9,2.2,2,5.1,2.8,8.1s1.5,6.1,1.7,8.4c0.2,1.1,0.2,2.1,0.3,2.8C-1.3698,343.069-1.2698,343.469-1.2698,343.469z
			"/>
	</g>
	<g id="XMLID_7513_">
		<path id="XMLID_7514_" fill="#FFFFFF" d="M-5.0698,318.269c0,0-0.5-1.1-1.2-2.9c-0.7-1.7-1.9-3.9-3.1-6.1
			c-1.3-2.1-2.6-4.3-3.7-5.8c-0.5-0.8-1-1.4-1.3-1.9s-0.5-0.7-0.5-0.7s-0.7-1-1.8-2.5c-0.3-0.4-0.6-0.8-0.9-1.2s-0.7-0.8-1-1.3
			c-0.7-0.9-1.5-1.8-2.3-2.7c-1.7-1.7-3.3-3.5-4.7-4.7c-1.3-1.2-2.2-2-2.2-2s1,0.7,2.4,1.9c1.5,1.1,3.2,2.8,5.1,4.4
			c0.9,0.9,1.7,1.8,2.5,2.6c0.4,0.4,0.8,0.8,1.1,1.2c0.3,0.4,0.7,0.8,1,1.1c1.2,1.4,2,2.4,2,2.4s0.2,0.3,0.5,0.8s0.7,1.2,1.2,2
			c1.1,1.6,2.2,3.9,3.4,6.1c1,2.3,2.1,4.6,2.7,6.4C-5.4698,317.169-5.0698,318.269-5.0698,318.269z"/>
	</g>
	<g id="XMLID_7505_">
		<path id="XMLID_7506_" fill="#FFFFFF" d="M1.2302,334.469c0,0-0.1-0.5-0.2-1.5c-0.1-0.9-0.3-2.3-0.6-3.8
			c-0.5-3.2-1.5-7.3-2.6-11.5c-1.2-4.1-2.7-8.1-3.9-11.1c-0.6-1.5-1.1-2.7-1.5-3.6s-0.6-1.4-0.6-1.4s-0.2-0.5-0.6-1.4
			s-0.8-2.1-1.5-3.5c-1.2-2.9-3-6.7-4.9-10.4c-1.9-3.7-3.8-7.4-5.3-10.1s-2.5-4.6-2.5-4.6s1.1,1.8,2.7,4.4c1.6,2.7,3.7,6.3,5.7,9.9
			c2,3.7,4,7.4,5.3,10.2c0.7,1.4,1.2,2.6,1.6,3.5s0.6,1.4,0.6,1.4s0.2,0.6,0.6,1.5c0.3,0.9,0.8,2.2,1.4,3.7
			c1.1,3.1,2.4,7.2,3.4,11.4c1,4.2,1.8,8.4,2.2,11.6c0.2,1.6,0.3,2.9,0.4,3.9C1.2302,333.969,1.2302,334.469,1.2302,334.469z"/>
	</g>
	<g id="XMLID_7503_">
		<path id="XMLID_7504_" fill="#FFFFFF" d="M1.3302,319.469c0,0,0-0.5,0.1-1.3c0-0.9,0.2-2.1,0.1-3.6c0.1-2.9-0.2-6.9-0.7-10.8
			s-1.4-7.7-2.1-10.6c-0.4-1.4-0.7-2.6-1-3.5c-0.2-0.8-0.4-1.3-0.4-1.4c0,0-0.1-0.5-0.4-1.3c-0.2-0.8-0.5-2-1-3.3
			c-0.8-2.8-2.2-6.3-3.7-9.8c-1.6-3.5-3.3-6.9-4.7-9.3c-0.7-1.3-1.4-2.2-1.8-3c-0.4-0.7-0.7-1.1-0.7-1.1s0.3,0.4,0.7,1.1
			c0.5,0.7,1.2,1.6,1.9,2.9c1.6,2.4,3.5,5.7,5.2,9.2s3.2,7,4.2,9.7c0.5,1.4,0.9,2.5,1.2,3.3s0.4,1.3,0.4,1.3s0.2,0.5,0.4,1.4
			s0.5,2.1,0.8,3.6c0.6,2.9,1.3,6.9,1.6,10.8s0.4,7.9,0.2,10.8c0,1.5-0.2,2.7-0.3,3.6C1.4302,318.969,1.3302,319.469,1.3302,319.469
			z"/>
	</g>
	<g id="XMLID_7501_">
		<path id="XMLID_7502_" fill="#FFFFFF" d="M1.2302,277.569c0,0-0.1-0.3-0.4-0.9s-0.6-1.4-1.1-2.4c-0.9-2-2.3-4.5-3.8-7
			s-3.2-4.8-4.5-6.6c-0.6-0.9-1.2-1.6-1.6-2.1s-0.6-0.8-0.7-0.8c0,0-0.2-0.3-0.6-0.8s-0.9-1.2-1.6-2c-1.3-1.7-3.2-3.7-5.2-5.7
			s-4.1-3.8-5.8-5.1c-0.8-0.7-1.6-1.1-2.1-1.5s-0.8-0.6-0.8-0.6s0.3,0.2,0.8,0.5s1.3,0.8,2.2,1.4c1.8,1.2,4,2.9,6.2,4.7
			c2.1,1.9,4.2,3.9,5.6,5.5c0.7,0.8,1.3,1.5,1.7,2s0.7,0.8,0.7,0.8s0.3,0.3,0.6,0.9c0.4,0.5,0.9,1.3,1.5,2.2
			c1.2,1.8,2.7,4.3,4.1,6.9c1.3,2.6,2.6,5.2,3.4,7.2c0.4,1,0.7,1.9,0.9,2.4C1.1302,277.269,1.2302,277.569,1.2302,277.569z"/>
	</g>
	<g id="XMLID_7499_">
		<path id="XMLID_7500_" fill="#FFFFFF" d="M-4.1698,259.569c0,0-0.2-0.4-0.5-1s-0.6-1.5-1.2-2.5c-1.1-2.1-2.8-4.7-4.6-7.2
			c-1.9-2.5-4.1-4.7-5.8-6.4c-0.8-0.8-1.6-1.5-2.1-1.9c-0.5-0.5-0.8-0.7-0.9-0.7c0,0-0.3-0.3-0.8-0.7c-0.5-0.5-1.2-1.1-2.1-1.8
			c-1.7-1.5-4.2-3.3-6.7-5s-5.1-3.2-7.1-4.3c-1-0.6-1.9-1-2.4-1.3c-0.6-0.3-0.9-0.5-0.9-0.5s0.3,0.2,1,0.4c0.6,0.3,1.5,0.6,2.5,1.1
			c2.1,1,4.8,2.4,7.4,3.9c2.6,1.6,5.2,3.3,7,4.7c0.9,0.7,1.7,1.3,2.2,1.7s0.9,0.7,0.9,0.7s0.3,0.3,0.8,0.8s1.2,1.2,2,2.1
			c1.6,1.8,3.7,4.2,5.5,6.8s3.3,5.4,4.3,7.5c0.5,1,0.8,2,1.1,2.6C-4.2698,259.269-4.1698,259.569-4.1698,259.569z"/>
	</g>
	<g id="XMLID_7497_">
		<path id="XMLID_7498_" fill="#FFFFFF" d="M-17.3698,236.469c0,0-0.8-0.9-1.9-2.2c-0.3-0.3-0.6-0.7-0.9-1c-0.3-0.4-0.7-0.7-1.1-1.1
			c-0.8-0.7-1.6-1.5-2.5-2.3c-1.9-1.4-3.6-2.8-5.2-3.6c-1.5-0.9-2.5-1.5-2.5-1.5s-1-0.6-2.5-1.4c-0.4-0.2-0.8-0.4-1.2-0.7
			c-0.4-0.2-0.9-0.4-1.4-0.6c-1-0.4-2-0.9-3-1.3c-2.1-0.7-4.2-1.5-5.9-1.7c-1.6-0.3-2.7-0.6-2.7-0.6s1.1,0.1,2.8,0.4
			c1.7,0.1,3.9,0.8,6.1,1.3c1.1,0.3,2.1,0.7,3.2,1.1c0.5,0.2,1,0.4,1.5,0.5c0.4,0.2,0.9,0.4,1.3,0.6c1.6,0.7,2.6,1.2,2.7,1.3
			c0,0,0.3,0.2,0.7,0.5c0.4,0.3,1,0.7,1.8,1.2c1.5,0.9,3.2,2.6,5,4.1c0.8,0.9,1.6,1.7,2.3,2.5c0.4,0.4,0.8,0.8,1,1.2
			c0.3,0.4,0.6,0.8,0.8,1.1C-18.0698,235.569-17.3698,236.469-17.3698,236.469z"/>
	</g>
	<g id="XMLID_7495_">
		<path id="XMLID_7496_" fill="#FFFFFF" d="M-266.8698,254.169c0,0,0.3-0.4,0.7-1.2c0.2-0.4,0.5-0.9,0.8-1.4s0.7-1.1,1.1-1.8
			c1.6-2.6,4.1-5.8,6.9-8.9c2.8-3,5.9-5.8,8.3-7.7c1.2-1,2.3-1.7,3-2.3s1.2-0.9,1.2-0.9s0.5-0.3,1.3-0.7c0.8-0.5,1.9-1.1,3.2-1.8
			c0.7-0.3,1.4-0.7,2.2-1.1s1.6-0.7,2.5-1.1c0.4-0.2,0.9-0.4,1.3-0.6c0.5-0.2,0.9-0.3,1.4-0.5c0.9-0.3,1.8-0.7,2.8-1
			c3.8-1.3,7.6-2.2,10.6-2.7c1.5-0.3,2.7-0.4,3.5-0.5c0.9-0.1,1.3-0.2,1.3-0.2s-0.5,0.1-1.3,0.2c-0.8,0.2-2.1,0.3-3.5,0.7
			c-2.9,0.6-6.7,1.7-10.4,3.1c-0.9,0.4-1.8,0.8-2.7,1.1c-0.4,0.2-0.9,0.4-1.3,0.6c-0.4,0.2-0.8,0.4-1.3,0.6
			c-0.8,0.4-1.6,0.8-2.4,1.2c-0.7,0.4-1.4,0.8-2.1,1.2c-1.3,0.7-2.3,1.4-3.1,1.9c-0.7,0.5-1.2,0.8-1.2,0.8s-0.5,0.3-1.2,0.8
			s-1.8,1.2-3.1,2.1c-2.5,1.8-5.6,4.4-8.5,7.3c-2.8,2.9-5.5,6-7.2,8.5c-0.5,0.6-0.9,1.2-1.2,1.7s-0.6,1-0.9,1.3
			C-266.6698,253.769-266.8698,254.169-266.8698,254.169z"/>
	</g>
	<g id="XMLID_7493_">
		<path id="XMLID_7494_" fill="#FFFFFF" d="M-273.1698,250.269c0,0,1.3-1.6,3.2-4c0.5-0.6,1-1.2,1.6-1.9c0.5-0.7,1.2-1.3,1.9-2.1
			c1.3-1.4,2.7-2.9,4.1-4.4c3-2.8,5.9-5.7,8.4-7.6c1.2-1,2.2-1.8,2.9-2.4c0.7-0.6,1.1-0.9,1.2-0.9s1.8-1.2,4.3-2.9
			c0.6-0.4,1.3-0.9,2-1.4c0.7-0.4,1.5-0.9,2.3-1.4c1.6-0.9,3.3-2,5.1-2.9c3.6-1.8,7.1-3.6,9.9-4.7c2.7-1.2,4.6-1.9,4.6-1.9
			s-1.8,0.8-4.5,2.1c-2.7,1.2-6.2,3.2-9.6,5.1c-1.7,1-3.4,2.1-4.9,3.1c-0.8,0.5-1.5,1-2.3,1.5c-0.7,0.5-1.3,1-1.9,1.4
			c-2.4,1.8-4,3-4.1,3c0,0-0.5,0.3-1.2,0.9s-1.8,1.3-3,2.3c-2.5,1.8-5.5,4.6-8.6,7.2c-1.5,1.4-2.9,2.9-4.3,4.2
			c-0.7,0.7-1.4,1.3-1.9,2c-0.6,0.7-1.1,1.3-1.6,1.8C-271.8698,248.769-273.1698,250.269-273.1698,250.269z"/>
	</g>
	<g id="XMLID_7491_">
		<path id="XMLID_7492_" fill="#FFFFFF" d="M-266.3698,240.569c0,0,0.2-0.4,0.5-1.1c0.4-0.7,0.8-1.7,1.5-2.9
			c1.2-2.4,3.2-5.4,5.3-8.2c2.2-2.8,4.6-5.5,6.5-7.4c1-1,1.8-1.7,2.4-2.3c0.6-0.6,1-0.9,1-0.9s0.4-0.3,1-0.8s1.5-1.1,2.6-1.9
			c2.1-1.5,5.2-3.3,8.3-4.8s6.3-2.8,8.8-3.5c1.2-0.4,2.3-0.7,3-0.9s1.1-0.3,1.1-0.3s-0.4,0.1-1.1,0.4c-0.7,0.3-1.7,0.5-2.9,1
			c-2.4,0.9-5.5,2.3-8.5,4s-5.9,3.6-7.9,5.2c-1.1,0.8-1.9,1.5-2.5,2s-0.9,0.8-1,0.8c0,0-0.4,0.3-1,0.8s-1.5,1.2-2.5,2.1
			c-2,1.8-4.5,4.3-6.8,7c-2.2,2.7-4.3,5.6-5.6,7.9c-0.7,1.1-1.2,2.1-1.6,2.8C-266.1698,240.169-266.3698,240.569-266.3698,240.569z"
			/>
	</g>
	<g id="XMLID_7489_">
		<path id="XMLID_7490_" fill="#FFFFFF" d="M-269.8698,229.169c0,0,0.8-1.3,2.1-3.1c0.3-0.5,0.7-1,1-1.5c0.4-0.5,0.8-1.1,1.2-1.6
			c0.9-1.1,1.8-2.3,2.8-3.5c2.1-2.2,4.1-4.5,5.8-6c0.8-0.8,1.6-1.4,2.1-1.9s0.8-0.7,0.8-0.7s1.3-0.9,3.1-2.2c0.5-0.3,1-0.7,1.5-1
			s1.1-0.7,1.7-1c1.2-0.7,2.5-1.5,3.7-2.2c2.7-1.3,5.3-2.7,7.3-3.4c2-0.8,3.4-1.3,3.4-1.3s-1.3,0.6-3.3,1.5c-2,0.8-4.5,2.4-7.1,3.8
			c-1.2,0.8-2.4,1.6-3.6,2.4c-0.6,0.4-1.1,0.8-1.6,1.1c-0.5,0.4-1,0.8-1.4,1.1c-1.7,1.4-2.9,2.3-2.9,2.3s-0.3,0.2-0.9,0.7
			c-0.5,0.4-1.3,1-2.1,1.8c-1.8,1.4-3.9,3.5-6.1,5.6c-1,1.1-2,2.3-2.9,3.3c-0.5,0.5-0.9,1-1.3,1.5s-0.8,1-1.1,1.5
			C-268.9698,227.869-269.8698,229.169-269.8698,229.169z"/>
	</g>
	<g id="XMLID_7487_">
		<path id="XMLID_7488_" fill="#FFFFFF" d="M-260.7698,255.969c0,0,0.9-1,2.3-2.5c1.3-1.6,3.4-3.4,5.3-5.4c2.1-1.8,4.2-3.7,5.9-4.9
			c0.8-0.6,1.5-1.2,2-1.5c0.5-0.4,0.8-0.6,0.8-0.6s1.2-0.7,3-1.7c0.4-0.3,0.9-0.5,1.4-0.8s1.1-0.5,1.6-0.8c1.1-0.6,2.3-1.2,3.5-1.8
			c2.5-1,4.9-2.2,6.8-2.8c1.9-0.7,3.1-1.1,3.1-1.1s-1.2,0.5-3.1,1.3c-1.9,0.7-4.2,2-6.6,3.2c-1.2,0.6-2.3,1.3-3.4,2
			c-0.5,0.3-1.1,0.6-1.6,0.9c-0.5,0.3-0.9,0.6-1.3,0.9c-1.7,1.1-2.8,1.9-2.8,1.9s-0.3,0.2-0.8,0.5s-1.2,0.8-2.1,1.4
			c-1.8,1.1-3.9,2.8-6.1,4.5c-2.1,1.8-4.2,3.5-5.6,5C-259.7698,254.969-260.7698,255.969-260.7698,255.969z"/>
	</g>
	<g id="XMLID_7485_">
		<path id="XMLID_7486_" fill="#FFFFFF" d="M-207.8698,187.669c0,0,0.7,0,1.8,0c0.6,0,1.3,0,2.1,0s1.7,0,2.7,0
			c3.9,0.1,9.1,0.5,14.3,1.3c5.2,0.9,10.3,2.1,14.1,3.2c1.9,0.5,3.5,1.1,4.6,1.5s1.8,0.6,1.8,0.6s0.7,0.3,1.7,0.7
			c1.1,0.5,2.6,1.1,4.3,1.9c0.9,0.4,1.8,0.9,2.8,1.3c1,0.5,2,1.1,3,1.6c0.5,0.3,1.1,0.6,1.6,0.9c0.5,0.3,1.1,0.6,1.6,1
			c1.1,0.7,2.2,1.3,3.2,2c4.3,2.8,8.3,5.8,11.2,8.3c1.5,1.2,2.6,2.3,3.4,3c0.8,0.7,1.3,1.2,1.3,1.2s-0.5-0.4-1.3-1.1
			c-0.9-0.7-2-1.8-3.5-2.9c-3-2.4-7.1-5.3-11.4-7.9c-1.1-0.7-2.2-1.2-3.3-1.9c-0.5-0.3-1.1-0.6-1.6-0.9s-1.1-0.5-1.6-0.8
			c-1.1-0.5-2.1-1-3.1-1.5c-1-0.4-1.9-0.9-2.8-1.2c-1.7-0.8-3.2-1.3-4.3-1.8c-1.1-0.4-1.7-0.6-1.7-0.7c0,0-0.7-0.3-1.8-0.7
			s-2.6-1-4.5-1.6c-3.7-1.3-8.8-2.7-13.9-3.7c-5.1-0.9-10.3-1.6-14.2-1.8c-1-0.1-1.9-0.1-2.7-0.1s-1.5,0-2.1,0
			C-207.2698,187.669-207.8698,187.669-207.8698,187.669z"/>
	</g>
	<g id="XMLID_7483_">
		<path id="XMLID_7484_" fill="#FFFFFF" d="M-179.0698,184.369c0,0,0.6,0,1.6,0c0.5,0,1.1,0,1.9,0c0.4,0,0.7,0,1.2,0
			c0.4,0,0.8,0.1,1.3,0.1c3.6,0.2,8.3,0.8,12.9,1.8c4.7,1.1,9.2,2.6,12.6,3.9c1.7,0.6,3.1,1.3,4,1.7c1,0.4,1.6,0.7,1.6,0.7
			s0.6,0.3,1.5,0.8s2.2,1.2,3.7,2.2c0.7,0.5,1.5,1,2.4,1.5c0.8,0.6,1.7,1.2,2.6,1.8c0.4,0.3,0.9,0.6,1.3,1c0.4,0.3,0.9,0.7,1.3,1.1
			c0.9,0.7,1.8,1.4,2.7,2.2c1.7,1.6,3.4,3.1,4.9,4.7c1.5,1.5,2.8,3.1,3.9,4.5c0.6,0.7,1,1.3,1.4,1.9s0.8,1.1,1,1.5
			c0.6,0.8,0.9,1.3,0.9,1.3s-0.3-0.5-1-1.3c-0.3-0.4-0.7-0.9-1.1-1.4c-0.4-0.6-0.9-1.2-1.5-1.8c-1.1-1.3-2.4-2.8-4-4.3
			c-1.5-1.6-3.3-3-5-4.5c-0.9-0.7-1.8-1.4-2.7-2.1c-0.5-0.3-0.9-0.7-1.3-1c-0.5-0.3-0.9-0.6-1.4-0.9c-0.9-0.6-1.8-1.2-2.6-1.7
			c-0.9-0.5-1.7-1-2.4-1.4c-1.5-0.9-2.8-1.5-3.7-2s-1.5-0.7-1.5-0.8c0,0-0.6-0.3-1.5-0.8c-1-0.4-2.3-1.2-3.9-1.8
			c-3.3-1.4-7.7-3.1-12.3-4.3s-9.3-2-12.8-2.3c-0.4,0-0.9-0.1-1.3-0.1c-0.4,0-0.8,0-1.1-0.1c-0.7,0-1.3-0.1-1.9-0.1
			C-178.4698,184.369-179.0698,184.369-179.0698,184.369z"/>
	</g>
	<g id="XMLID_7481_">
		<path id="XMLID_7482_" fill="#FFFFFF" d="M-181.3698,172.269c0,0,0.6,0.1,1.6,0.2c1,0.2,2.4,0.3,4.1,0.6c3.4,0.5,7.9,1.6,12.4,2.9
			c4.4,1.4,8.8,3,12,4.5c1.6,0.7,2.9,1.4,3.9,1.8c0.9,0.4,1.5,0.7,1.5,0.8c0,0,0.5,0.3,1.4,0.8s2.1,1.2,3.5,2.2
			c2.9,1.8,6.5,4.5,10,7.4c3.4,2.9,6.7,6,9,8.5c1.2,1.2,2,2.3,2.7,3c0.6,0.7,1,1.2,1,1.2s-0.4-0.4-1.1-1.1c-0.7-0.7-1.6-1.8-2.8-2.9
			c-2.4-2.4-5.7-5.3-9.2-8.1c-3.6-2.7-7.3-5.2-10.2-6.9c-1.4-0.9-2.7-1.5-3.6-2c-0.9-0.5-1.4-0.8-1.4-0.8s-0.6-0.3-1.5-0.8
			s-2.2-1.2-3.7-1.9c-3.1-1.5-7.4-3.4-11.7-4.9c-4.4-1.5-8.8-2.6-12.2-3.3c-1.7-0.4-3.1-0.6-4.1-0.7
			C-180.7698,172.369-181.3698,172.269-181.3698,172.269z"/>
	</g>
	<g id="XMLID_7479_">
		<path id="XMLID_7480_" fill="#FFFFFF" d="M-158.2698,168.069c0,0,0.5,0.1,1.3,0.2c0.9,0.1,2.1,0.3,3.5,0.6
			c2.9,0.6,6.7,1.5,10.5,2.7s7.5,2.7,10.2,4c1.4,0.6,2.5,1.2,3.3,1.6c0.8,0.4,1.2,0.7,1.3,0.7c0,0,0.5,0.3,1.2,0.8s1.7,1.2,2.9,2
			c2.4,1.7,5.4,4.2,7.9,7.1c1.3,1.4,2.4,3,3.5,4.5c1,1.5,1.8,3,2.4,4.3c0.3,0.6,0.6,1.3,0.8,1.8s0.4,1,0.5,1.4
			c0.2,0.8,0.4,1.3,0.4,1.3s-0.2-0.4-0.4-1.2c-0.1-0.4-0.3-0.9-0.6-1.4c-0.2-0.5-0.5-1.1-0.8-1.8c-0.6-1.3-1.5-2.7-2.5-4.2
			c-1.1-1.4-2.3-2.9-3.6-4.3c-2.7-2.7-5.7-5-8.1-6.6c-1.2-0.8-2.2-1.4-3-1.8c-0.7-0.4-1.2-0.7-1.2-0.7s-0.5-0.3-1.2-0.7
			c-0.8-0.4-1.8-1.1-3.1-1.8c-2.6-1.4-6.2-3-9.9-4.4s-7.5-2.5-10.3-3.2c-1.4-0.3-2.6-0.6-3.5-0.7
			C-157.7698,168.169-158.2698,168.069-158.2698,168.069z"/>
	</g>
	<g id="XMLID_7477_">
		<path id="XMLID_7478_" fill="#FFFFFF" d="M-94.7698,187.469c0,0-0.1,0.2-0.4,0.5c-0.2,0.3-0.6,0.7-1,1.3c-0.8,1.1-1.8,2.6-2.7,4.2
			c-0.8,1.6-1.5,3.3-2,4.6c-0.2,0.6-0.4,1.2-0.6,1.6c-0.1,0.4-0.2,0.6-0.2,0.6s-0.1,0.2-0.2,0.6c-0.2,0.4-0.4,0.9-0.6,1.5
			c-0.5,1.2-1.1,2.9-1.6,4.6c-1,3.4-1.8,6.9-1.8,6.9s0.4-3.5,1.1-7c0.4-1.8,0.8-3.5,1.1-4.8c0.2-0.7,0.3-1.2,0.5-1.6
			c0.1-0.4,0.2-0.6,0.2-0.6s0.1-0.2,0.3-0.6c0.2-0.4,0.4-0.9,0.7-1.6c0.6-1.3,1.5-2.9,2.5-4.5c1-1.5,2.2-3,3.1-4
			c0.4-0.5,0.9-0.9,1.2-1.2C-94.8698,187.669-94.7698,187.469-94.7698,187.469z"/>
	</g>
	<g id="XMLID_7475_">
		<path id="XMLID_7476_" fill="#FFFFFF" d="M-130.7698,181.969c0,0,0.3,0.1,0.9,0.4c0.5,0.3,1.4,0.5,2.2,1c1.8,0.9,4.2,2.4,6.3,4.1
			c2.1,1.8,4.1,3.7,5.4,5.4c0.7,0.8,1.2,1.5,1.6,2s0.6,0.8,0.6,0.8s0.2,0.3,0.5,0.9c0.1,0.3,0.3,0.6,0.5,1s0.4,0.8,0.6,1.3
			c0.9,1.9,1.7,4.5,2.3,7.1s1.1,5.2,1.6,7.1c0.2,1,0.5,1.7,0.7,2.3s0.3,0.9,0.3,0.9s-0.1-0.3-0.3-0.8s-0.5-1.3-0.8-2.3
			c-0.6-1.9-1.3-4.5-2-7s-1.7-5-2.6-6.7c-0.2-0.5-0.5-0.8-0.7-1.2c-0.2-0.3-0.4-0.6-0.6-0.9c-0.3-0.5-0.5-0.8-0.5-0.8
			s-0.2-0.3-0.6-0.8s-0.8-1.2-1.4-2c-1.2-1.7-3-3.7-5-5.6c-2-1.8-4.2-3.4-6-4.5c-0.9-0.6-1.6-0.9-2.2-1.2
			C-130.4698,182.169-130.7698,181.969-130.7698,181.969z"/>
	</g>
	<g id="XMLID_7473_">
		<path id="XMLID_7474_" fill="#FFFFFF" d="M-65.7698,190.069c0,0-0.9,0.2-2.3,0.6c-1.4,0.3-3.2,1-5,1.6c-1.7,0.8-3.5,1.5-4.7,2.2
			c-0.6,0.3-1.1,0.6-1.5,0.8s-0.6,0.3-0.6,0.3s-0.8,0.5-2,1.1c-0.3,0.2-0.6,0.3-1,0.5c-0.3,0.2-0.7,0.5-1,0.7
			c-0.7,0.5-1.5,1-2.2,1.5c-1.4,1.2-2.9,2.3-3.8,3.3c-1,1-1.6,1.6-1.6,1.6s0.6-0.7,1.5-1.8c0.8-1.1,2.2-2.4,3.5-3.7
			c0.7-0.6,1.4-1.2,2.1-1.8c0.3-0.3,0.7-0.5,1-0.8c0.3-0.2,0.7-0.4,0.9-0.6c1.2-0.8,2-1.3,2-1.4c0,0,0.2-0.1,0.6-0.3s1-0.4,1.6-0.7
			c1.3-0.7,3.2-1.2,5-1.8c1.9-0.4,3.7-1,5.1-1.1C-66.7698,190.169-65.7698,190.069-65.7698,190.069z"/>
	</g>
	<g id="XMLID_7471_">
		<path id="XMLID_7472_" fill="#FFFFFF" d="M-39.2698,204.769c0,0-0.4-0.2-1-0.4c-0.3-0.1-0.7-0.3-1.1-0.5c-0.4-0.2-0.9-0.4-1.5-0.6
			c-2.2-0.9-5.2-1.7-8.2-2.2c-3.1-0.5-6.2-0.6-8.5-0.5c-1.2,0-2.1,0.2-2.8,0.2s-1.1,0.1-1.1,0.1s-0.4,0-1.1,0.1s-1.6,0.1-2.7,0.3
			c-0.6,0.1-1.2,0.2-1.8,0.3s-1.3,0.3-2,0.5c-0.3,0.1-0.7,0.2-1,0.2c-0.3,0.1-0.7,0.2-1,0.3c-0.7,0.2-1.4,0.4-2.1,0.7
			c-2.8,1-5.5,2.4-7.5,3.5c-1,0.5-1.7,1.1-2.3,1.5c-0.5,0.4-0.9,0.6-0.9,0.6s0.3-0.2,0.8-0.6s1.2-1,2.2-1.6c1.9-1.3,4.5-2.8,7.3-4
			c0.7-0.3,1.4-0.5,2.1-0.8c0.4-0.1,0.7-0.3,1.1-0.4c0.4-0.1,0.7-0.2,1-0.3c0.7-0.2,1.4-0.4,2-0.6c0.6-0.1,1.3-0.3,1.8-0.4
			c1.1-0.3,2.1-0.4,2.8-0.5s1.1-0.2,1.1-0.2s0.4-0.1,1.2-0.1c0.7,0,1.7-0.1,2.9,0c2.4,0,5.6,0.4,8.6,1c3.1,0.7,6,1.7,8.2,2.7
			c0.5,0.2,1,0.5,1.4,0.7s0.8,0.4,1.1,0.6C-39.5698,204.569-39.2698,204.769-39.2698,204.769z"/>
	</g>
	<g id="XMLID_7469_">
		<path id="XMLID_7470_" fill="#FFFFFF" d="M-34.3698,213.869c0,0-1.2-0.4-2.9-0.9c-1.7-0.7-4.2-1.1-6.6-1.6
			c-2.4-0.3-4.9-0.7-6.7-0.7c-0.9,0-1.7-0.1-2.2-0.1s-0.9,0-0.9,0s-1.3,0-3.1-0.1c-0.5,0-0.9,0-1.5,0c-0.5,0-1.1,0.1-1.6,0.1
			c-1.1,0.1-2.3,0.1-3.5,0.2c-2.4,0.4-4.7,0.6-6.5,1.1c-1.7,0.4-2.9,0.7-2.9,0.7s1.1-0.4,2.9-0.9c1.7-0.6,4.1-1.1,6.4-1.6
			c1.2-0.2,2.4-0.3,3.5-0.5c0.6-0.1,1.1-0.1,1.6-0.2c0.5,0,1,0,1.5-0.1c1.8-0.1,3.1-0.1,3.1-0.1s0.4,0,0.9,0.1
			c0.6,0.1,1.3,0.2,2.3,0.3c1.9,0.1,4.3,0.7,6.8,1.2c2.4,0.7,4.8,1.3,6.5,2.1C-35.5698,213.469-34.3698,213.869-34.3698,213.869z"/>
	</g>
	<g id="XMLID_7467_">
		<path id="XMLID_7468_" fill="#FFFFFF" d="M-206.0698,198.969c0,0,2.1,0.2,5.4,0.4c3.2,0.3,7.5,0.7,11.8,1.3s8.6,1.4,11.8,2.2
			c1.6,0.3,2.9,0.7,3.9,0.9s1.5,0.4,1.5,0.4s0.6,0.2,1.5,0.5s2.2,0.7,3.7,1.3c3,1.1,6.9,2.7,10.7,4.6s7.4,4,10,5.7
			c1.3,0.8,2.4,1.6,3.1,2.1c0.8,0.5,1.2,0.8,1.2,0.8s-0.4-0.3-1.2-0.8s-1.9-1.2-3.2-2c-2.7-1.6-6.4-3.6-10.2-5.3s-7.7-3.2-10.8-4.1
			c-1.5-0.5-2.8-0.9-3.7-1.1c-0.9-0.3-1.4-0.4-1.5-0.4c0,0-0.6-0.2-1.5-0.5s-2.2-0.7-3.8-1.1c-3.1-0.9-7.4-1.8-11.6-2.6
			c-4.3-0.8-8.5-1.4-11.7-1.8C-203.8698,199.269-206.0698,198.969-206.0698,198.969z"/>
	</g>
	<g id="XMLID_7457_">
		<path id="XMLID_7466_" fill="#FFFFFF" d="M-227.9698,214.769c0,0,1.5-0.3,3.7-0.7s5.2-0.8,8.1-1.2c3-0.3,6-0.6,8.3-0.7
			c1.1-0.1,2.1-0.1,2.8-0.1s1.1,0,1.1,0c0.1,0,1.5,0.1,3.7,0.2c0.6,0,1.1,0.1,1.8,0.1c0.6,0.1,1.3,0.1,2,0.2
			c1.4,0.1,2.8,0.3,4.3,0.4c2.9,0.4,5.8,0.8,7.9,1.2c2.1,0.4,3.6,0.7,3.6,0.7s-1.4-0.2-3.6-0.4c-2.1-0.3-5-0.5-7.9-0.7
			c-1.4-0.1-2.9-0.1-4.3-0.2c-0.7,0-1.3,0-2-0.1c-0.6,0-1.2,0-1.8,0c-2.2,0-3.7,0-3.7,0s-0.4,0-1.1,0c-0.7,0-1.6,0-2.7,0
			c-2.3-0.1-5.2,0.1-8.2,0.2c-3,0.2-6,0.4-8.2,0.7C-226.4698,214.669-227.9698,214.769-227.9698,214.769z"/>
	</g>
	<g id="XMLID_7455_">
		<path id="XMLID_7456_" fill="#FFFFFF" d="M-236.1698,230.769c0,0,1.8-0.7,4.6-1.7c2.7-1.1,6.5-2.2,10.2-3.5
			c3.8-1.1,7.5-2.3,10.4-2.9c1.4-0.4,2.6-0.7,3.5-0.9s1.4-0.3,1.4-0.3c0.1,0,2-0.3,4.8-0.8c0.7-0.1,1.5-0.3,2.3-0.4
			c0.8-0.1,1.7-0.2,2.6-0.4c1.8-0.2,3.7-0.5,5.5-0.8c3.8-0.4,7.6-0.8,10.4-1s4.7-0.3,4.7-0.3s-1.9,0.2-4.7,0.5s-6.6,0.9-10.3,1.5
			c-1.9,0.3-3.7,0.7-5.5,1c-0.9,0.2-1.7,0.3-2.5,0.5s-1.6,0.3-2.3,0.5c-2.8,0.6-4.7,1-4.8,1.1c0,0-0.5,0.1-1.4,0.3s-2.1,0.4-3.5,0.7
			c-2.9,0.6-6.7,1.5-10.5,2.5c-3.8,1.1-7.5,2.1-10.3,3C-234.3698,230.169-236.1698,230.769-236.1698,230.769z"/>
	</g>
	<g id="XMLID_7445_">
		<path id="XMLID_7454_" fill="#FFFFFF" d="M-255.9698,206.069c0,0,0.3-0.3,0.8-0.9s1.2-1.5,2.2-2.5c1.9-2,4.6-4.5,7.5-6.8
			s6-4.3,8.5-5.7c1.2-0.7,2.3-1.2,3-1.6c0.7-0.4,1.2-0.6,1.2-0.6s0.5-0.2,1.2-0.5c0.8-0.3,1.8-0.8,3.1-1.2c2.5-1,6-1.9,9.5-2.7
			c3.5-0.7,7.1-1.1,9.7-1.3c1.3-0.1,2.4-0.1,3.2-0.1s1.2,0,1.2,0s-0.4,0-1.2,0.1s-1.9,0.1-3.2,0.3c-2.6,0.3-6.2,0.9-9.6,1.7
			c-3.4,0.9-6.8,2-9.3,3.1c-1.3,0.5-2.3,1-3,1.3s-1.1,0.5-1.2,0.5c0,0-0.5,0.2-1.2,0.5c-0.7,0.4-1.8,0.8-3,1.5
			c-2.5,1.3-5.6,3.1-8.6,5.2s-5.8,4.5-7.7,6.4c-1,0.9-1.8,1.8-2.3,2.4C-255.6698,205.769-255.9698,206.069-255.9698,206.069z"/>
	</g>
	<g id="XMLID_7443_">
		<path id="XMLID_7444_" fill="#FFFFFF" d="M-241.9698,206.769c0,0,0.3-0.1,0.8-0.4c0.5-0.2,1.2-0.6,2-0.9c1.7-0.7,4-1.5,6.4-2.1
			s4.9-0.9,6.8-1.1c0.9-0.1,1.7-0.1,2.3-0.1s0.9,0,0.9,0s0.3,0,0.9,0.1c0.5,0,1.3,0.1,2.2,0.2c1.8,0.2,4.2,0.7,6.5,1.3
			c2.3,0.7,4.6,1.5,6.2,2.3c0.8,0.4,1.5,0.7,1.9,1c0.5,0.2,0.7,0.4,0.7,0.4s-0.3-0.1-0.8-0.3s-1.2-0.5-2-0.8
			c-1.7-0.6-3.9-1.3-6.3-1.8c-2.3-0.4-4.7-0.8-6.5-0.8c-0.7-0.3-1.4-0.3-2-0.3c-0.5,0-0.8,0-0.9,0c0,0-0.3,0-0.9,0
			c-0.5,0-1.3-0.1-2.2,0c-1.8,0-4.3,0.2-6.7,0.6c-2.4,0.4-4.8,1-6.5,1.7c-0.9,0.3-1.6,0.6-2.1,0.8
			C-241.6698,206.569-241.9698,206.769-241.9698,206.769z"/>
	</g>
	<g id="XMLID_7441_">
		<path id="XMLID_7442_" fill="#FFFFFF" d="M-73.9698,182.469c0,0-0.3,0.1-0.8,0.2c-0.5,0.1-1.2,0.2-2.1,0.5c-1.7,0.5-3.9,1.4-6,2.5
			c-2.1,1.2-3.9,2.6-5.3,3.8c-0.7,0.6-1.2,1.1-1.6,1.5s-0.6,0.6-0.6,0.6s-0.2,0.2-0.6,0.6c-0.4,0.4-0.9,0.9-1.4,1.5
			c-1.2,1.3-2.5,3.1-3.8,5.1c-1.2,2-2.2,4.1-2.8,5.7c-0.3,0.8-0.5,1.5-0.7,2s-0.3,0.8-0.3,0.8s0.1-0.3,0.2-0.8s0.3-1.2,0.6-2
			c0.5-1.7,1.3-3.9,2.4-5.9c1.1-2.1,2.3-4.1,3.5-5.5c0.5-0.7,1-1.3,1.4-1.7s0.6-0.6,0.6-0.7c0,0,0.2-0.3,0.7-0.6
			c0.4-0.3,1-0.9,1.7-1.4c1.5-1.1,3.5-2.5,5.7-3.5s4.5-1.7,6.3-2.1c0.9-0.2,1.6-0.3,2.1-0.4
			C-74.2698,182.569-73.9698,182.469-73.9698,182.469z"/>
	</g>
	<g id="XMLID_7439_">
		<path id="XMLID_7440_" fill="#FFFFFF" d="M-38.1698,198.669c0,0-0.9-0.3-2.3-0.8c-1.3-0.5-3.2-0.9-5-1.4c-1.9-0.3-3.7-0.6-5.2-0.6
			c-0.7,0-1.3-0.1-1.7-0.1s-0.7,0-0.7,0s-1-0.1-2.3-0.2c-0.3,0-0.7,0-1.1-0.1c-0.4,0-0.8,0-1.2,0c-0.9,0-1.8,0-2.7,0.1
			c-1.8,0.2-3.7,0.3-5,0.7c-1.4,0.3-2.3,0.5-2.3,0.5s0.9-0.3,2.2-0.7c1.3-0.5,3.2-0.8,5-1.2c0.9-0.1,1.9-0.2,2.7-0.3
			c0.4,0,0.9-0.1,1.3-0.1c0.4,0,0.8,0,1.1,0c1.4,0,2.4-0.1,2.4-0.1s0.3,0,0.7,0.1s1,0.2,1.8,0.3c1.5,0.2,3.3,0.7,5.2,1.1
			c1.8,0.6,3.7,1.2,5,1.8C-38.9698,198.369-38.1698,198.669-38.1698,198.669z"/>
	</g>
	<g id="XMLID_7437_">
		<path id="XMLID_7438_" fill="#FFFFFF" d="M-8.8698,244.369c0,0-0.1-0.3-0.3-0.9c-0.2-0.6-0.5-1.4-0.9-2.4c-0.8-2-2-4.5-3.5-7
			c-1.5-2.4-3-4.8-4.4-6.4c-0.3-0.4-0.6-0.8-0.9-1.1s-0.5-0.6-0.7-0.9c-0.4-0.5-0.7-0.8-0.7-0.8s-0.9-1.2-2.2-2.8
			c-1.3-1.7-2.9-3.9-4.6-6.1c-1.7-2.1-3.6-4.1-5.3-5.4c-0.2-0.2-0.4-0.3-0.6-0.5c-0.2-0.1-0.4-0.2-0.6-0.4c-0.4-0.2-0.7-0.4-0.9-0.6
			c-0.5-0.3-0.8-0.5-0.8-0.5s0.3,0.2,0.8,0.5c0.3,0.1,0.6,0.3,1,0.5c0.2,0.1,0.4,0.2,0.6,0.3s0.4,0.3,0.6,0.4
			c1.7,1.1,3.8,3.1,5.7,5.1c1.9,2.1,3.6,4.2,5,5.8s2.3,2.6,2.3,2.7c0,0,0.2,0.3,0.6,0.8c0.2,0.3,0.4,0.6,0.7,0.9
			c0.3,0.4,0.5,0.8,0.8,1.2c1.3,1.8,2.7,4.3,4.1,6.8c1.3,2.6,2.4,5.2,3,7.2c0.4,1,0.6,1.9,0.8,2.5
			C-8.9698,243.969-8.8698,244.369-8.8698,244.369z"/>
	</g>
	<g id="XMLID_7435_">
		<path id="XMLID_7436_" fill="#FFFFFF" d="M-28.0698,258.869c0,0-0.2-0.4-0.4-1c-0.3-0.7-0.7-1.6-1.2-2.7c-1-2.3-2.7-5.1-4.4-7.9
			c-1.8-2.7-3.9-5.4-5.5-7.2c-0.8-0.9-1.6-1.7-2-2.2c-0.5-0.5-0.8-0.8-0.8-0.9c0,0-0.3-0.3-0.8-0.9c-0.5-0.5-1.2-1.3-2-2.1
			c-1.7-1.7-4.1-3.8-6.7-5.8c-2.6-1.9-5.3-3.7-7.4-4.8c-1-0.6-2-1-2.6-1.4c-0.6-0.3-1-0.5-1-0.5s0.4,0.2,1,0.5s1.6,0.7,2.6,1.2
			c2.2,1.1,5,2.6,7.7,4.5c2.7,1.8,5.3,3.8,7.1,5.5c0.9,0.8,1.7,1.5,2.2,2s0.8,0.8,0.9,0.8c0,0,0.3,0.3,0.8,0.9
			c0.5,0.6,1.2,1.4,2,2.4c1.6,2,3.5,4.7,5.2,7.6c1.7,2.9,3.1,5.9,4.1,8.2c0.5,1.1,0.8,2.1,1.1,2.8
			C-28.1698,258.469-28.0698,258.869-28.0698,258.869z"/>
	</g>
	<g id="XMLID_7433_">
		<path id="XMLID_7434_" fill="#FFFFFF" d="M-5.7698,296.369c0,0,0-0.3-0.1-0.9s-0.2-1.3-0.4-2.3c-0.3-1.9-0.9-4.4-1.7-6.8
			s-1.7-4.8-2.5-6.6c-0.4-0.9-0.8-1.6-1-2.1s-0.4-0.8-0.4-0.8s-0.1-0.3-0.4-0.8c-0.2-0.5-0.5-1.2-1-2c-0.8-1.7-2.1-3.8-3.5-5.9
			c-1.4-2-3-3.9-4.3-5.3c-0.6-0.7-1.2-1.2-1.6-1.6s-0.6-0.6-0.6-0.6s0.2,0.2,0.7,0.5c0.4,0.4,1,0.8,1.7,1.5c1.4,1.2,3.1,3.1,4.7,5
			c1.5,2,3,4.1,3.9,5.7c0.5,0.8,0.9,1.5,1.1,2c0.3,0.5,0.4,0.8,0.4,0.8s0.2,0.3,0.4,0.9c0.2,0.5,0.5,1.3,0.9,2.2
			c0.7,1.8,1.4,4.3,2,6.8s1,5,1.2,7c0.1,1,0.2,1.8,0.2,2.3C-5.7698,296.069-5.7698,296.369-5.7698,296.369z"/>
	</g>
	<g id="XMLID_7431_">
		<path id="XMLID_7432_" fill="#FFFFFF" d="M-58.8698,217.569c0,0-4.9,0.3-9.9,0.6c-2.5,0.3-4.9,0.6-6.8,0.8
			c-0.9,0.1-1.7,0.2-2.3,0.3c-0.6,0.1-0.9,0.1-0.9,0.1c-0.1,0-4.9,0.5-9.7,0.9c-4.8,0.7-9.5,1.4-9.5,1.4s4.7-1,9.4-2.1
			c4.8-0.8,9.5-1.6,9.6-1.6c0,0,0.3,0,0.9-0.1c0.6,0,1.3-0.1,2.3-0.1c1.9-0.1,4.4-0.2,6.8-0.3
			C-63.8698,217.469-58.8698,217.569-58.8698,217.569z"/>
	</g>
	<g id="XMLID_7363_">
		<path id="XMLID_7430_" fill="#FFFFFF" d="M-11.5698,361.869c0,0-0.1-1.3-0.3-3.3c-0.1-2-0.6-4.6-1-7.2c-0.6-2.6-1.1-5.2-1.7-7.1
			c-0.3-1-0.5-1.8-0.7-2.3c-0.2-0.6-0.3-0.9-0.3-0.9s-0.4-1.3-0.9-3.2c-0.1-0.5-0.3-1-0.4-1.5c-0.2-0.5-0.4-1.1-0.6-1.6
			c-0.4-1.1-0.9-2.4-1.3-3.6c-1.1-2.3-2.1-4.7-3-6.4s-1.5-2.9-1.5-2.9s0.7,1.1,1.7,2.7c1.1,1.6,2.2,3.9,3.5,6.2
			c0.6,1.2,1.1,2.4,1.6,3.5c0.2,0.6,0.5,1.1,0.7,1.6s0.4,1,0.6,1.5c0.7,1.9,1.1,3.1,1.2,3.2c0,0,0.1,0.4,0.2,1
			c0.1,0.6,0.3,1.4,0.5,2.4c0.5,2,0.8,4.7,1.3,7.3c0.2,2.7,0.5,5.3,0.5,7.3C-11.5698,360.569-11.5698,361.869-11.5698,361.869z"/>
	</g>
	<g id="XMLID_7358_">
		<path id="XMLID_7359_" fill="#FFFFFF" d="M-71.9698,207.569c0,0-1.1,0.2-2.7,0.6c-1.6,0.3-3.8,1-5.9,1.6c-2.1,0.8-4.2,1.4-5.8,2.1
			c-0.8,0.3-1.4,0.6-1.9,0.8s-0.7,0.3-0.7,0.3s-1.1,0.4-2.6,1c-0.4,0.2-0.8,0.3-1.2,0.5s-0.9,0.4-1.3,0.6c-0.9,0.4-1.9,0.9-2.9,1.4
			c-1.9,1-3.8,2-5.2,2.9c-1.4,0.9-2.3,1.4-2.3,1.4s0.9-0.6,2.2-1.6s3.1-2.1,5-3.3c0.9-0.6,1.9-1.1,2.8-1.6c0.4-0.3,0.9-0.5,1.3-0.7
			s0.8-0.4,1.2-0.6c1.5-0.7,2.5-1.2,2.5-1.2s0.3-0.1,0.8-0.3s1.2-0.4,2-0.7c1.6-0.6,3.8-1.1,6-1.7c2.2-0.4,4.4-1,6.1-1.1
			C-73.0698,207.669-71.9698,207.569-71.9698,207.569z"/>
	</g>
	<g id="XMLID_7356_">
		<path id="XMLID_7357_" fill="#FFFFFF" d="M-164.0698,203.269c0,0-0.5-0.2-1.2-0.6c-0.8-0.4-1.9-1-3.3-1.6c-2.8-1.3-6.6-2.8-10.4-4
			c-3.9-1.2-7.9-2-10.9-2.5c-1.5-0.3-2.8-0.4-3.7-0.5s-1.4-0.2-1.5-0.2c0,0-0.5-0.1-1.4-0.2c-0.9-0.1-2.1-0.3-3.6-0.4
			c-3-0.3-6.9-0.4-10.9-0.3c-3.9,0.2-7.9,0.6-10.8,1.1c-1.5,0.2-2.7,0.5-3.5,0.7s-1.3,0.3-1.3,0.3s0.5-0.1,1.3-0.3s2-0.6,3.5-0.8
			c2.9-0.6,6.8-1.3,10.8-1.6s8-0.4,11-0.2c1.5,0,2.8,0.2,3.7,0.2c0.9,0.1,1.4,0.1,1.5,0.1c0,0,0.6,0.1,1.5,0.2
			c0.9,0.2,2.2,0.4,3.7,0.7c3,0.6,7,1.7,10.9,3c3.9,1.4,7.6,3,10.3,4.4c1.4,0.7,2.5,1.3,3.2,1.8
			C-164.4698,203.069-164.0698,203.269-164.0698,203.269z"/>
	</g>
</g>
</svg>
