<?xml version="1.0" encoding="utf-8"?>
<!-- Generator: Adobe Illustrator 19.0.0, SVG Export Plug-In . SVG Version: 6.00 Build 0)  -->
<svg version="1.1" id="Layer_1" xmlns="http://www.w3.org/2000/svg" xmlns:xlink="http://www.w3.org/1999/xlink" x="0px" y="0px"
	 viewBox="-298.5 187 380 415" style="enable-background:new -298.5 187 380 415;" xml:space="preserve">
<style type="text/css">
	.st0{fill:#EF7B05;}
</style>
<path id="XMLID_8658_" class="st0" d="M78.7,424.4c-1.6-14.9-0.8-93.6-37.1-106c-0.8-1-1.5-2-2.3-2.9c-4.3-5.1-3.8-17.3-8.7-23.9
	c-5.8-7.9-14-14.1-22.6-19.2c-48.1-28.9-95.9-22.1-148.7-31.5c-44.4-7.9-49.5-15-56.3-46.5c-3.9,2-45.8,19.9-57.7,52.3
	c9.3-37.1,30.8-36.5,40.7-44.4c-51.8,16.8-69.7,59.6-56.9,83.2c0.4,0.7,0.9,1.5,1.4,2.2c-0.5-0.7-0.9-1.4-1.4-2.2
	c-12.6-21.1-7.5-34.5-1.4-46.5c-15.3,21.2-19.3,59.4-2.7,81.4c-6.3,8.1-9.4,18.8-10,33.7l11.8-8.4c-9.7,13.5-23.1,51.2-20.6,74.5
	c0.8,6.9,0.2,16.3,0.3,23.5c0,2.1,0.1,4.3,0.2,6.4c0.7,13.3,2.4,27.2,1.7,39.7c2.1-1,3.1-5.2,5.4-4.7c0,0.6,0,1.1-0.1,1.7
	c-0.6,9.8-5.6,22.8-0.1,31.1c0.9-1.1,0.4-3.6,2.5-3.4c1.2,7.4,4.1,13.1,7.6,18.1c3.3,4.7,11,34.9,10.1,40.8
	c-0.2,1.1,2.1-1.2,1.7,0.9c-0.8,7.7,10.2,22.3,10.1,20.5l0,0c0,0-0.8-54-1.6-58.9c-1.6-10,1-20.2-0.3-32c-0.7-6.6-2.8-10.3-2.9-17.9
	c0-31.6,10.8-46.3,17.9-52.9c21.5-20,66.7-36.7,136.1-36.4c70.6,0.2,123.9,20.8,139.1,43.8c3.9,5.9,13.2,10.4,10.5,46.7
	c-0.6,7.6-2.2,11.3-3,17.7c-1.3,10.9-2.3,19.5-0.5,31.6c3.1,20.9-4.9,56.7-4.9,56.7c-0.1,14.4,13.7-10.4,13.1-18.3
	c0.3-1.6,2.1,1.2,1.7-0.8c-3.3-4.4,7.3-35.8,10.5-40.6c3.5-5.1,6.3-10.9,8-17.8c1.9,0.1,1,3,2.5,3.4c5.5-10.1-1.2-24,0.1-33.3
	c2.2,1.2,2.9,3.8,5,5.1c-0.8-12.8,0.9-26.7,1.8-40.4C79.3,441.6,79.6,432.7,78.7,424.4z"/>
</svg>
