<?xml version="1.0" encoding="utf-8"?>
<!-- Generator: Adobe Illustrator 19.0.0, SVG Export Plug-In . SVG Version: 6.00 Build 0)  -->
<svg version="1.1" id="Layer_1" xmlns="http://www.w3.org/2000/svg" xmlns:xlink="http://www.w3.org/1999/xlink" x="0px" y="0px"
	 viewBox="0 0 300 200" style="enable-background:new 0 0 300 200;" xml:space="preserve">
<style type="text/css">
	.st0{fill:#EF7B05;}
</style>
<path id="XMLID_7486_" class="st0" d="M272,125.8c-0.2-1.2-0.4-2.3-0.7-3.5c-0.1-0.6-0.2-1.2-0.4-1.7c-0.3-1.1-0.5-2.3-0.8-3.4
	c-0.1-0.6-0.3-1.1-0.4-1.7c-0.6-2.3-1.2-4.5-1.9-6.7c-0.8-2.8-1.8-5.5-2.7-8.1c-0.4-1.1-0.8-2.1-1.2-3.2c-0.2-0.5-0.4-1-0.6-1.6
	c-17.6-43.5-53.7-75.1-96.6-81.4c-5.2-0.8-10.4-1.1-15.8-1.1c-5.3,0-10.6,0.4-15.8,1.2C74.1,23.5,26.9,83.7,26.9,156.5l0.4,0
	c6.4-61.5,59-109.3,123-109.3c1.1,0,2.1,0,3.2,0c2.1,0.1,4.2,0.2,6.3,0.3c2.9,0.2,5.7,0.5,8.5,0.9c0.6,0.1,1.1,0.2,1.7,0.3
	c1.7,0.3,3.4,0.6,5,0.9c1,0.2,2,0.4,3,0.6c12.8,2.9,24.9,7.7,35.8,14.2c1.7,1,3.3,2,5,3.1c32.6,21.4,54.1,57.8,54.7,99.7L272,187
	l1.2,0.2l0.8-9.6l0.8-10.3c0,0,0-2.5,0.1-10.9C275,145.9,273.9,135.6,272,125.8z M225.7,43.2C225.7,43.2,225.7,43.2,225.7,43.2
	C225.7,43.2,225.7,43.2,225.7,43.2c0.5,0.4,1,0.8,1.5,1.2C226.6,44,226.2,43.6,225.7,43.2z"/>
</svg>
