<?xml version="1.0" encoding="utf-8"?>
<!-- Generator: Adobe Illustrator 19.0.0, SVG Export Plug-In . SVG Version: 6.00 Build 0)  -->
<svg version="1.1" id="Layer_1" xmlns="http://www.w3.org/2000/svg" xmlns:xlink="http://www.w3.org/1999/xlink" x="0px" y="0px"
	 viewBox="0 0 360 247.5" style="enable-background:new 0 0 360 247.5;" xml:space="preserve">
<style type="text/css">
	.st0{fill:#EF7B05;}
	.st1{fill:none;}
	.st2{fill:#FFFFFF;}
</style>
<g id="XMLID_3451_">
	<g id="XMLID_3474_">
		<g id="XMLID_3576_">
			<g id="XMLID_3585_">
				<path id="XMLID_3586_" class="st0" d="M73.8,62.5C101,45.3,93,92.3,90.1,94.8C69,113.2,64.7,196.7,64.7,196.7l-3.8,21.2
					C50.1,166.8,35.8,86.4,73.8,62.5z"/>
			</g>
			<g id="XMLID_3583_">
				<path id="XMLID_3584_" class="st0" d="M303.7,62.5c-27.2-17.1-19.1,29.8-16.2,32.4c21.1,18.4,25.4,101.9,25.4,101.9l3.8,21.2
					C327.4,166.8,341.7,86.4,303.7,62.5z"/>
			</g>
			<g id="XMLID_3580_">
				<path id="XMLID_132_" class="st1" d="M90.8,72.2"/>
			</g>
			<g id="XMLID_3577_">
				<path id="XMLID_129_" class="st1" d="M307.4,138.3"/>
			</g>
		</g>
		<g id="XMLID_3573_">
			<path id="XMLID_127_" class="st2" d="M86,122.7c0,0,0.1-0.8,0.4-2.2c0.3-1.4,0.7-3.3,1.2-5.6c0.4-2.3,0.9-5,1-7.8
				c0-0.7,0-1.4,0-2.1c0-0.3,0-0.8-0.1-1.1c0-0.3,0-0.7-0.1-1.1c-0.1-1.5-0.4-2.9-0.6-4.4c-0.3-1.5-0.6-3-0.9-4.5
				c-0.3-1.5-0.7-3-0.9-4.5c-0.6-2.9-1.1-5.7-1.4-8c-0.4-2.4-0.6-4.4-0.7-5.8c-0.1-1.4-0.1-2.2-0.1-2.2s0.4,0.7,0.9,2
				c0.6,1.3,1.3,3.1,2.1,5.4c0.8,2.2,1.7,4.9,2.6,7.7c0.8,2.8,1.8,5.9,2.4,9.1c0.3,1.6,0.5,3.3,0.6,4.9c0,0.4,0,0.8,0,1.3
				c0,0.5,0,0.8,0,1.2c0,0.8-0.1,1.6-0.2,2.4c-0.5,3.1-1.4,5.9-2.4,8.1c-1,2.2-1.9,4-2.6,5.2C86.4,122,86,122.7,86,122.7z"/>
		</g>
		<g id="XMLID_3569_">
			<path id="XMLID_125_" class="st2" d="M79,134.7c0,0,0.1-0.8,0.4-2.2c0.3-1.4,0.7-3.3,1.2-5.6c0.4-2.3,0.9-5,1-7.8
				c0-0.7,0-1.4,0-2.1c0-0.3,0-0.8-0.1-1.1c0-0.3,0-0.7-0.1-1.1c-0.1-1.5-0.4-2.9-0.6-4.4c-0.3-1.5-0.6-3-0.9-4.5
				c-0.3-1.5-0.7-3-0.9-4.5c-0.6-2.9-1.1-5.7-1.4-8c-0.4-2.4-0.6-4.4-0.7-5.8c-0.1-1.4-0.1-2.2-0.1-2.2s0.4,0.7,0.9,2
				c0.6,1.3,1.3,3.1,2.1,5.4c0.8,2.2,1.7,4.9,2.6,7.7c0.8,2.8,1.8,5.9,2.4,9.1c0.3,1.6,0.5,3.3,0.6,4.9c0,0.4,0,0.8,0,1.3
				c0,0.5,0,0.8,0,1.2c0,0.8-0.1,1.6-0.2,2.4c-0.5,3.1-1.4,5.9-2.4,8.1c-1,2.2-1.9,4-2.6,5.2C79.4,134,79,134.7,79,134.7z"/>
		</g>
		<g id="XMLID_3551_">
			<path id="XMLID_123_" class="st2" d="M76,149.7c0,0,0.1-0.8,0.4-2.2c0.3-1.4,0.7-3.3,1.2-5.6c0.4-2.3,0.9-5,1-7.8
				c0-0.7,0-1.4,0-2.1c0-0.3,0-0.8-0.1-1.1c0-0.3,0-0.7-0.1-1.1c-0.1-1.5-0.4-2.9-0.6-4.4c-0.3-1.5-0.6-3-0.9-4.5
				c-0.3-1.5-0.7-3-0.9-4.5c-0.6-2.9-1.1-5.7-1.4-8c-0.4-2.4-0.6-4.4-0.7-5.8c-0.1-1.4-0.1-2.2-0.1-2.2s0.4,0.7,0.9,2
				c0.6,1.3,1.3,3.1,2.1,5.4c0.8,2.2,1.7,4.9,2.6,7.7c0.8,2.8,1.8,5.9,2.4,9.1c0.3,1.6,0.5,3.3,0.6,4.9c0,0.4,0,0.8,0,1.3
				c0,0.5,0,0.8,0,1.2c0,0.8-0.1,1.6-0.2,2.4c-0.5,3.1-1.4,5.9-2.4,8.1c-1,2.2-1.9,4-2.6,5.2C76.4,149,76,149.7,76,149.7z"/>
		</g>
		<g id="XMLID_3547_">
			<path id="XMLID_121_" class="st2" d="M73,163.7c0,0,0.1-0.8,0.4-2.2c0.3-1.4,0.7-3.3,1.2-5.6c0.4-2.3,0.9-5,1-7.8
				c0-0.7,0-1.4,0-2.1c0-0.3,0-0.8-0.1-1.1c0-0.3,0-0.7-0.1-1.1c-0.1-1.5-0.4-2.9-0.6-4.4c-0.3-1.5-0.6-3-0.9-4.5
				c-0.3-1.5-0.7-3-0.9-4.5c-0.6-2.9-1.1-5.7-1.4-8c-0.4-2.4-0.6-4.4-0.7-5.8c-0.1-1.4-0.1-2.2-0.1-2.2s0.4,0.7,0.9,2
				c0.6,1.3,1.3,3.1,2.1,5.4c0.8,2.2,1.7,4.9,2.6,7.7c0.8,2.8,1.8,5.9,2.4,9.1c0.3,1.6,0.5,3.3,0.6,4.9c0,0.4,0,0.8,0,1.3
				c0,0.5,0,0.8,0,1.2c0,0.8-0.1,1.6-0.2,2.4c-0.5,3.1-1.4,5.9-2.4,8.1c-1,2.2-1.9,4-2.6,5.2C73.4,163,73,163.7,73,163.7z"/>
		</g>
		<g id="XMLID_3541_">
			<path id="XMLID_119_" class="st2" d="M70,168c0,0,0.1-0.6,0.4-1.6c0.3-1,0.7-2.4,1.2-4.1c0.4-1.7,0.9-3.6,1.1-5.5
				c0-0.5,0-1,0-1.5c0-0.2,0-0.6,0-0.8c0-0.2,0-0.5-0.1-0.7c-0.1-1-0.3-2.1-0.6-3.1c-0.3-1.1-0.6-2.1-0.9-3.2
				c-0.3-1.1-0.7-2.2-0.9-3.2c-0.6-2.1-1.1-4.1-1.4-5.9c-0.3-1.7-0.6-3.2-0.7-4.3c-0.1-1-0.2-1.7-0.2-1.7s0.4,0.5,0.9,1.4
				c0.6,0.9,1.3,2.2,2.1,3.8c0.8,1.6,1.7,3.4,2.6,5.5c0.4,1,0.9,2.1,1.3,3.2c0.4,1.1,0.8,2.3,1.1,3.5c0.3,1.2,0.5,2.5,0.6,3.8
				c0,0.3,0,0.7,0,1c0,0.4,0,0.5,0,0.9c-0.1,0.6-0.1,1.3-0.3,1.9c-0.5,2.4-1.5,4.4-2.4,5.9c-1,1.6-1.9,2.7-2.6,3.5
				C70.4,167.6,70,168,70,168z"/>
		</g>
		<g id="XMLID_3537_">
			<path id="XMLID_109_" class="st2" d="M291.3,124.7c0,0-0.4-0.7-1.1-1.9c-0.7-1.2-1.7-3-2.6-5.2c-1-2.2-1.9-5-2.4-8.1
				c-0.1-0.8-0.2-1.6-0.2-2.4c0-0.5,0-0.8,0-1.2c0-0.4,0-0.9,0-1.3c0.1-1.7,0.3-3.3,0.6-4.9c0.6-3.2,1.5-6.3,2.4-9.1
				c0.9-2.8,1.7-5.5,2.6-7.7c0.8-2.2,1.6-4.1,2.1-5.4c0.6-1.3,0.9-2,0.9-2s0,0.8-0.1,2.2c-0.1,1.4-0.3,3.4-0.7,5.8
				c-0.3,2.4-0.8,5.1-1.4,8c-0.3,1.5-0.6,3-0.9,4.5c-0.3,1.5-0.7,3-0.9,4.5c-0.3,1.5-0.5,3-0.6,4.4c0,0.4-0.1,0.7-0.1,1.1
				c0,0.3,0,0.8-0.1,1.1c0,0.7,0,1.4,0,2.1c0.1,2.8,0.6,5.5,1,7.8c0.5,2.3,0.9,4.3,1.2,5.6C291.2,123.9,291.3,124.7,291.3,124.7z"/>
		</g>
		<g id="XMLID_3532_">
			<path id="XMLID_106_" class="st2" d="M298.3,136.7c0,0-0.4-0.7-1.1-1.9c-0.7-1.2-1.7-3-2.6-5.2c-1-2.2-1.9-5-2.4-8.1
				c-0.1-0.8-0.2-1.6-0.2-2.4c0-0.5,0-0.8,0-1.2c0-0.4,0-0.9,0-1.3c0.1-1.7,0.3-3.3,0.6-4.9c0.6-3.2,1.5-6.3,2.4-9.1
				c0.9-2.8,1.7-5.5,2.6-7.7c0.8-2.2,1.6-4.1,2.1-5.4c0.6-1.3,0.9-2,0.9-2s0,0.8-0.1,2.2c-0.1,1.4-0.3,3.4-0.7,5.8
				c-0.3,2.4-0.8,5.1-1.4,8c-0.3,1.5-0.6,3-0.9,4.5c-0.3,1.5-0.7,3-0.9,4.5c-0.3,1.5-0.5,3-0.6,4.4c0,0.4-0.1,0.7-0.1,1.1
				c0,0.3,0,0.8-0.1,1.1c0,0.7,0,1.4,0,2.1c0.1,2.8,0.6,5.5,1,7.8c0.5,2.3,0.9,4.3,1.2,5.6C298.2,135.9,298.3,136.7,298.3,136.7z"/>
		</g>
		<g id="XMLID_3528_">
			<path id="XMLID_104_" class="st2" d="M301.3,151.7c0,0-0.4-0.7-1.1-1.9c-0.7-1.2-1.7-3-2.6-5.2c-1-2.2-1.9-5-2.4-8.1
				c-0.1-0.8-0.2-1.6-0.2-2.4c0-0.5,0-0.8,0-1.2c0-0.4,0-0.9,0-1.3c0.1-1.7,0.3-3.3,0.6-4.9c0.6-3.2,1.5-6.3,2.4-9.1
				c0.9-2.8,1.7-5.5,2.6-7.7c0.8-2.2,1.6-4.1,2.1-5.4c0.6-1.3,0.9-2,0.9-2s0,0.8-0.1,2.2c-0.1,1.4-0.3,3.4-0.7,5.8
				c-0.3,2.4-0.8,5.1-1.4,8c-0.3,1.5-0.6,3-0.9,4.5c-0.3,1.5-0.7,3-0.9,4.5c-0.3,1.5-0.5,3-0.6,4.4c0,0.4-0.1,0.7-0.1,1.1
				c0,0.3,0,0.8-0.1,1.1c0,0.7,0,1.4,0,2.1c0.1,2.8,0.6,5.5,1,7.8c0.5,2.3,0.9,4.3,1.2,5.6C301.2,150.9,301.3,151.7,301.3,151.7z"/>
		</g>
		<g id="XMLID_3523_">
			<path id="XMLID_102_" class="st2" d="M304.3,165.7c0,0-0.4-0.7-1.1-1.9c-0.7-1.2-1.7-3-2.6-5.2c-1-2.2-1.9-5-2.4-8.1
				c-0.1-0.8-0.2-1.6-0.2-2.4c0-0.5,0-0.8,0-1.2c0-0.4,0-0.9,0-1.3c0.1-1.7,0.3-3.3,0.6-4.9c0.6-3.2,1.5-6.3,2.4-9.1
				c0.9-2.8,1.7-5.5,2.6-7.7c0.8-2.2,1.6-4.1,2.1-5.4c0.6-1.3,0.9-2,0.9-2s0,0.8-0.1,2.2c-0.1,1.4-0.3,3.4-0.7,5.8
				c-0.3,2.4-0.8,5.1-1.4,8c-0.3,1.5-0.6,3-0.9,4.5c-0.3,1.5-0.7,3-0.9,4.5c-0.3,1.5-0.5,3-0.6,4.4c0,0.4-0.1,0.7-0.1,1.1
				c0,0.3,0,0.8-0.1,1.1c0,0.7,0,1.4,0,2.1c0.1,2.8,0.6,5.5,1,7.8c0.5,2.3,0.9,4.3,1.2,5.6C304.2,164.9,304.3,165.7,304.3,165.7z"/>
		</g>
		<g id="XMLID_3476_">
			<path id="XMLID_100_" class="st2" d="M307.3,170c0,0-0.4-0.4-1.1-1.2c-0.7-0.8-1.6-2-2.6-3.5c-0.9-1.6-1.9-3.5-2.4-5.9
				c-0.1-0.6-0.2-1.2-0.3-1.9c0-0.4,0-0.6,0-0.9c0-0.3,0-0.7,0-1c0.1-1.3,0.3-2.6,0.6-3.8c0.3-1.2,0.7-2.4,1.1-3.5
				c0.4-1.1,0.8-2.1,1.3-3.2c0.9-2,1.7-3.9,2.6-5.5c0.8-1.6,1.6-2.9,2.1-3.8c0.5-0.9,0.9-1.4,0.9-1.4s0,0.6-0.2,1.7
				c-0.1,1-0.3,2.5-0.7,4.3c-0.3,1.7-0.8,3.8-1.4,5.9c-0.3,1.1-0.6,2.2-0.9,3.2c-0.3,1.1-0.7,2.2-0.9,3.2c-0.3,1.1-0.5,2.1-0.6,3.1
				c0,0.3-0.1,0.5-0.1,0.7c0,0.2,0,0.6,0,0.8c0,0.5,0,1,0,1.5c0.1,2,0.6,3.9,1.1,5.5c0.5,1.7,0.9,3.1,1.2,4.1
				C307.2,169.4,307.3,170,307.3,170z"/>
		</g>
	</g>
	<g id="XMLID_3469_">
		<path id="XMLID_98_" class="st0" d="M198.2,50.2c0,0,0.6-0.6,1.6-1.5c1-0.9,2.6-2.2,4.3-3.6c0.9-0.7,1.8-1.5,2.8-2.3
			c1-0.8,1.9-1.7,3-2.6c0.5-0.4,0.9-0.9,1.4-1.4c0.5-0.5,0.9-1,1.4-1.5c0.9-1,1.7-2,2.4-3.1c0.8-1.1,1.4-2.2,1.9-3.3l0-0.1
			c-0.1,0.2,0,0,0,0.1l0,0l0,0l0.1-0.1l0.1-0.3l0.2-0.5c0.1-0.3,0.2-0.6,0.3-0.8c0.2-0.5,0.4-1.2,0.6-1.8c0.7-2.4,1-5,1.3-7.2
			c0.3-2.2,0.5-4.2,0.7-5.6c0.2-1.4,0.4-2.2,0.4-2.2s0.4,0.7,1,2c0.6,1.3,1.3,3.1,1.9,5.5c0.6,2.4,1,5.3,0.7,8.5
			c-0.1,0.8-0.2,1.6-0.4,2.5c-0.1,0.4-0.2,0.9-0.3,1.3l-0.2,0.5l-0.1,0.3l0,0.1l-0.1,0.2c-0.6,1.7-1.4,3.3-2.4,4.8
			c-1,1.4-2.2,2.8-3.4,3.9c-0.6,0.6-1.2,1.1-1.9,1.6c-0.6,0.5-1.3,1-2,1.4c-1.3,0.8-2.6,1.5-3.9,2.1c-1.3,0.6-2.5,1-3.7,1.4
			c-2.3,0.7-4.3,1.1-5.6,1.3C199,50.2,198.2,50.2,198.2,50.2z"/>
	</g>
	<g id="XMLID_3466_">
		<path id="XMLID_96_" class="st0" d="M211.5,11.6c0,0,0,0.2-0.1,0.7c-0.1,0.5-0.1,1.1-0.3,2c-0.1,0.9-0.4,1.9-0.7,3.1
			c-0.2,0.6-0.3,1.2-0.5,1.9c-0.2,0.7-0.5,1.3-0.7,2c-0.3,0.7-0.5,1.4-0.9,2.2c-0.3,0.7-0.7,1.5-1.1,2.3c-0.4,0.8-0.8,1.6-1.2,2.3
			c-0.4,0.8-0.9,1.6-1.4,2.4c-1,1.6-2.1,3.2-3.4,4.7c-1.2,1.6-2.6,3-4,4.5c-1.5,1.4-2.9,2.8-4.5,4c-1.5,1.3-3.1,2.4-4.7,3.4
			c-0.8,0.5-1.6,1-2.4,1.4c-0.8,0.5-1.5,0.9-2.3,1.3c-0.8,0.4-1.5,0.7-2.3,1.1c-0.7,0.3-1.5,0.6-2.2,0.9c-0.7,0.3-1.4,0.5-2,0.7
			c-0.7,0.2-1.3,0.4-1.9,0.5c-1.2,0.3-2.2,0.6-3.1,0.7c-0.9,0.2-1.5,0.3-2,0.3c-0.5,0.1-0.7,0.1-0.7,0.1s0.2-0.2,0.6-0.5
			c0.4-0.3,0.9-0.7,1.6-1.2c0.7-0.5,1.5-1.2,2.4-1.9c0.5-0.4,1-0.7,1.5-1.1c0.5-0.4,1-0.8,1.6-1.3c1.1-0.9,2.3-1.8,3.6-2.9
			c0.6-0.5,1.3-1,1.9-1.6c0.6-0.6,1.3-1.1,2-1.7c0.6-0.6,1.3-1.2,2-1.8c0.7-0.6,1.3-1.2,2-1.8c1.3-1.2,2.6-2.5,4-3.8
			c1.3-1.3,2.6-2.6,3.8-4c1.3-1.3,2.4-2.7,3.6-4c0.6-0.7,1.1-1.3,1.6-2c0.6-0.6,1.1-1.3,1.6-1.9c1-1.3,2-2.4,2.8-3.6
			c0.4-0.6,0.9-1.1,1.3-1.6c0.4-0.5,0.8-1,1.1-1.5c0.7-0.9,1.4-1.7,1.9-2.5c0.5-0.7,0.9-1.2,1.2-1.6
			C211.3,11.8,211.5,11.6,211.5,11.6z"/>
	</g>
	<g id="XMLID_3463_">
		<path id="XMLID_94_" class="st0" d="M196.3,11.9c0,0-0.1,0.7-0.4,2c-0.1,0.6-0.4,1.4-0.7,2.2c-0.3,0.8-0.7,1.8-1.1,2.8
			c-0.4,1-1,2-1.6,3.1c-0.6,1.1-1.4,2.2-2.1,3.3c-0.8,1.1-1.7,2.2-2.6,3.2c-0.9,1.1-2,2.1-3,3.1c-1.1,0.9-2.2,1.9-3.3,2.7
			c-1.1,0.9-2.3,1.6-3.5,2.3c-1.2,0.7-2.3,1.3-3.4,1.8c-1.1,0.5-2.2,1-3.2,1.3c-1,0.4-2,0.7-2.8,0.9c-0.9,0.2-1.6,0.4-2.3,0.5
			c-1.3,0.2-2,0.2-2,0.2s0.5-0.6,1.4-1.5c0.4-0.4,1-1,1.6-1.6c0.6-0.6,1.3-1.3,2.1-2c0.7-0.7,1.6-1.5,2.4-2.3
			c0.9-0.8,1.8-1.6,2.7-2.5c0.9-0.9,1.9-1.7,2.8-2.6c1-0.9,1.9-1.8,2.9-2.7c1-0.9,2-1.8,2.9-2.7c1-0.9,1.9-1.8,2.8-2.6
			c0.9-0.9,1.8-1.7,2.7-2.5c0.9-0.8,1.7-1.5,2.5-2.2c0.8-0.7,1.5-1.3,2.1-1.9c0.7-0.6,1.3-1,1.7-1.5
			C195.7,12.3,196.3,11.9,196.3,11.9z"/>
	</g>
	<g id="XMLID_3452_">
		<path id="XMLID_92_" class="st0" d="M174.9,14.4c0,0,0,0.5-0.2,1.4c-0.2,0.9-0.5,2.1-1.1,3.5c-0.6,1.4-1.4,2.9-2.4,4.3
			c-0.5,0.7-1.1,1.5-1.7,2.2c-0.6,0.7-1.3,1.4-1.9,2.1c-0.7,0.7-1.4,1.3-2.1,1.9c-0.7,0.6-1.5,1.1-2.2,1.6c-1.5,1-3,1.7-4.4,2.2
			c-1.4,0.5-2.6,0.8-3.5,1c-0.9,0.1-1.4,0.2-1.4,0.2s0.2-0.5,0.6-1.3c0.4-0.8,1-1.9,1.8-3c0.8-1.2,1.8-2.5,2.9-3.7
			c0.5-0.6,1.1-1.3,1.7-1.9c0.6-0.6,1.2-1.3,1.9-1.9c0.6-0.6,1.3-1.2,1.9-1.8c0.7-0.6,1.3-1.1,2-1.6c1.3-1.1,2.6-2,3.8-2.7
			c1.2-0.8,2.3-1.3,3.1-1.7C174.4,14.5,174.9,14.4,174.9,14.4z"/>
	</g>
</g>
</svg>
