<?xml version="1.0" encoding="utf-8"?>
<!-- Generator: Adobe Illustrator 19.0.0, SVG Export Plug-In . SVG Version: 6.00 Build 0)  -->
<svg version="1.1" id="Layer_1" xmlns="http://www.w3.org/2000/svg" xmlns:xlink="http://www.w3.org/1999/xlink" x="0px" y="0px"
	 viewBox="-299 157.5 360 247.5" enable-background="new -299 157.5 360 247.5" xml:space="preserve">
<g id="XMLID_3451_">
	<g id="XMLID_3474_">
		<g id="XMLID_3576_">
			<g id="XMLID_3585_">
				<path id="XMLID_3586_" fill="#EF7B05" d="M-225.2,220c27.2-17.2,19.2,29.8,16.3,32.3c-21.1,18.4-25.4,101.9-25.4,101.9
					l-3.8,21.2C-248.9,324.3-263.2,243.9-225.2,220z"/>
			</g>
			<g id="XMLID_3583_">
				<path id="XMLID_3584_" fill="#EF7B05" d="M4.7,220c-27.2-17.1-19.1,29.8-16.2,32.4c21.1,18.4,25.4,101.9,25.4,101.9l3.8,21.2
					C28.4,324.3,42.7,243.9,4.7,220z"/>
			</g>
			<g id="XMLID_3580_">
				<path id="XMLID_132_" fill="none" d="M-208.2,229.7"/>
			</g>
			<g id="XMLID_3577_">
				<path id="XMLID_129_" fill="none" d="M8.4,295.8"/>
			</g>
		</g>
		<g id="XMLID_3573_">
			<path id="XMLID_127_" fill="#FFFFFF" d="M-213,280.2c0,0,0.1-0.8,0.4-2.2c0.3-1.4,0.7-3.3,1.2-5.6c0.4-2.3,0.9-5,1-7.8
				c0-0.7,0-1.4,0-2.1c0-0.3,0-0.8-0.1-1.1c0-0.3,0-0.7-0.1-1.1c-0.1-1.5-0.4-2.9-0.6-4.4c-0.3-1.5-0.6-3-0.9-4.5
				c-0.3-1.5-0.7-3-0.9-4.5c-0.6-2.9-1.1-5.7-1.4-8c-0.4-2.4-0.6-4.4-0.7-5.8c-0.1-1.4-0.1-2.2-0.1-2.2s0.4,0.7,0.9,2
				c0.6,1.3,1.3,3.1,2.1,5.4c0.8,2.2,1.7,4.9,2.6,7.7c0.8,2.8,1.8,5.9,2.4,9.1c0.3,1.6,0.5,3.3,0.6,4.9c0,0.4,0,0.8,0,1.3
				s0,0.8,0,1.2c0,0.8-0.1,1.6-0.2,2.4c-0.5,3.1-1.4,5.9-2.4,8.1s-1.9,4-2.6,5.2C-212.6,279.5-213,280.2-213,280.2z"/>
		</g>
		<g id="XMLID_3569_">
			<path id="XMLID_125_" fill="#FFFFFF" d="M-220,292.2c0,0,0.1-0.8,0.4-2.2c0.3-1.4,0.7-3.3,1.2-5.6c0.4-2.3,0.9-5,1-7.8
				c0-0.7,0-1.4,0-2.1c0-0.3,0-0.8-0.1-1.1c0-0.3,0-0.7-0.1-1.1c-0.1-1.5-0.4-2.9-0.6-4.4c-0.3-1.5-0.6-3-0.9-4.5
				c-0.3-1.5-0.7-3-0.9-4.5c-0.6-2.9-1.1-5.7-1.4-8c-0.4-2.4-0.6-4.4-0.7-5.8c-0.1-1.4-0.1-2.2-0.1-2.2s0.4,0.7,0.9,2
				c0.6,1.3,1.3,3.1,2.1,5.4c0.8,2.2,1.7,4.9,2.6,7.7c0.8,2.8,1.8,5.9,2.4,9.1c0.3,1.6,0.5,3.3,0.6,4.9c0,0.4,0,0.8,0,1.3
				s0,0.8,0,1.2c0,0.8-0.1,1.6-0.2,2.4c-0.5,3.1-1.4,5.9-2.4,8.1s-1.9,4-2.6,5.2C-219.6,291.5-220,292.2-220,292.2z"/>
		</g>
		<g id="XMLID_3551_">
			<path id="XMLID_123_" fill="#FFFFFF" d="M-223,307.2c0,0,0.1-0.8,0.4-2.2c0.3-1.4,0.7-3.3,1.2-5.6c0.4-2.3,0.9-5,1-7.8
				c0-0.7,0-1.4,0-2.1c0-0.3,0-0.8-0.1-1.1c0-0.3,0-0.7-0.1-1.1c-0.1-1.5-0.4-2.9-0.6-4.4c-0.3-1.5-0.6-3-0.9-4.5
				c-0.3-1.5-0.7-3-0.9-4.5c-0.6-2.9-1.1-5.7-1.4-8c-0.4-2.4-0.6-4.4-0.7-5.8c-0.1-1.4-0.1-2.2-0.1-2.2s0.4,0.7,0.9,2
				c0.6,1.3,1.3,3.1,2.1,5.4c0.8,2.2,1.7,4.9,2.6,7.7c0.8,2.8,1.8,5.9,2.4,9.1c0.3,1.6,0.5,3.3,0.6,4.9c0,0.4,0,0.8,0,1.3
				s0,0.8,0,1.2c0,0.8-0.1,1.6-0.2,2.4c-0.5,3.1-1.4,5.9-2.4,8.1c-1,2.2-1.9,4-2.6,5.2C-222.6,306.5-223,307.2-223,307.2z"/>
		</g>
		<g id="XMLID_3547_">
			<path id="XMLID_121_" fill="#FFFFFF" d="M-226,321.2c0,0,0.1-0.8,0.4-2.2c0.3-1.4,0.7-3.3,1.2-5.6c0.4-2.3,0.9-5,1-7.8
				c0-0.7,0-1.4,0-2.1c0-0.3,0-0.8-0.1-1.1c0-0.3,0-0.7-0.1-1.1c-0.1-1.5-0.4-2.9-0.6-4.4c-0.3-1.5-0.6-3-0.9-4.5
				c-0.3-1.5-0.7-3-0.9-4.5c-0.6-2.9-1.1-5.7-1.4-8c-0.4-2.4-0.6-4.4-0.7-5.8c-0.1-1.4-0.1-2.2-0.1-2.2s0.4,0.7,0.9,2
				c0.6,1.3,1.3,3.1,2.1,5.4c0.8,2.2,1.7,4.9,2.6,7.7c0.8,2.8,1.8,5.9,2.4,9.1c0.3,1.6,0.5,3.3,0.6,4.9c0,0.4,0,0.8,0,1.3
				s0,0.8,0,1.2c0,0.8-0.1,1.6-0.2,2.4c-0.5,3.1-1.4,5.9-2.4,8.1c-1,2.2-1.9,4-2.6,5.2C-225.6,320.5-226,321.2-226,321.2z"/>
		</g>
		<g id="XMLID_3541_">
			<path id="XMLID_119_" fill="#FFFFFF" d="M-229,325.5c0,0,0.1-0.6,0.4-1.6c0.3-1,0.7-2.4,1.2-4.1c0.4-1.7,0.9-3.6,1.1-5.5
				c0-0.5,0-1,0-1.5c0-0.2,0-0.6,0-0.8c0-0.2,0-0.5-0.1-0.7c-0.1-1-0.3-2.1-0.6-3.1c-0.3-1.1-0.6-2.1-0.9-3.2
				c-0.3-1.1-0.7-2.2-0.9-3.2c-0.6-2.1-1.1-4.1-1.4-5.9c-0.3-1.7-0.6-3.2-0.7-4.3c-0.1-1-0.2-1.7-0.2-1.7s0.4,0.5,0.9,1.4
				c0.6,0.9,1.3,2.2,2.1,3.8c0.8,1.6,1.7,3.4,2.6,5.5c0.4,1,0.9,2.1,1.3,3.2c0.4,1.1,0.8,2.3,1.1,3.5c0.3,1.2,0.5,2.5,0.6,3.8
				c0,0.3,0,0.7,0,1c0,0.4,0,0.5,0,0.9c-0.1,0.6-0.1,1.3-0.3,1.9c-0.5,2.4-1.5,4.4-2.4,5.9c-1,1.6-1.9,2.7-2.6,3.5
				C-228.6,325.1-229,325.5-229,325.5z"/>
		</g>
		<g id="XMLID_3537_">
			<path id="XMLID_109_" fill="#FFFFFF" d="M-7.7,282.2c0,0-0.4-0.7-1.1-1.9c-0.7-1.2-1.7-3-2.6-5.2c-1-2.2-1.9-5-2.4-8.1
				c-0.1-0.8-0.2-1.6-0.2-2.4c0-0.5,0-0.8,0-1.2s0-0.9,0-1.3c0.1-1.7,0.3-3.3,0.6-4.9c0.6-3.2,1.5-6.3,2.4-9.1
				c0.9-2.8,1.7-5.5,2.6-7.7c0.8-2.2,1.6-4.1,2.1-5.4c0.6-1.3,0.9-2,0.9-2s0,0.8-0.1,2.2c-0.1,1.4-0.3,3.4-0.7,5.8
				c-0.3,2.4-0.8,5.1-1.4,8c-0.3,1.5-0.6,3-0.9,4.5s-0.7,3-0.9,4.5c-0.3,1.5-0.5,3-0.6,4.4c0,0.4-0.1,0.7-0.1,1.1
				c0,0.3,0,0.8-0.1,1.1c0,0.7,0,1.4,0,2.1c0.1,2.8,0.6,5.5,1,7.8c0.5,2.3,0.9,4.3,1.2,5.6C-7.8,281.4-7.7,282.2-7.7,282.2z"/>
		</g>
		<g id="XMLID_3532_">
			<path id="XMLID_106_" fill="#FFFFFF" d="M-0.7,294.2c0,0-0.4-0.7-1.1-1.9c-0.7-1.2-1.7-3-2.6-5.2c-1-2.2-1.9-5-2.4-8.1
				c-0.1-0.8-0.2-1.6-0.2-2.4c0-0.5,0-0.8,0-1.2c0-0.4,0-0.9,0-1.3c0.1-1.7,0.3-3.3,0.6-4.9c0.6-3.2,1.5-6.3,2.4-9.1
				c0.9-2.8,1.7-5.5,2.6-7.7c0.8-2.2,1.6-4.1,2.1-5.4c0.6-1.3,0.9-2,0.9-2s0,0.8-0.1,2.2s-0.3,3.4-0.7,5.8c-0.3,2.4-0.8,5.1-1.4,8
				c-0.3,1.5-0.6,3-0.9,4.5s-0.7,3-0.9,4.5c-0.3,1.5-0.5,3-0.6,4.4c0,0.4-0.1,0.7-0.1,1.1c0,0.3,0,0.8-0.1,1.1c0,0.7,0,1.4,0,2.1
				c0.1,2.8,0.6,5.5,1,7.8c0.5,2.3,0.9,4.3,1.2,5.6C-0.8,293.4-0.7,294.2-0.7,294.2z"/>
		</g>
		<g id="XMLID_3528_">
			<path id="XMLID_104_" fill="#FFFFFF" d="M2.3,309.2c0,0-0.4-0.7-1.1-1.9c-0.7-1.2-1.7-3-2.6-5.2c-1-2.2-1.9-5-2.4-8.1
				c-0.1-0.8-0.2-1.6-0.2-2.4c0-0.5,0-0.8,0-1.2c0-0.4,0-0.9,0-1.3c0.1-1.7,0.3-3.3,0.6-4.9c0.6-3.2,1.5-6.3,2.4-9.1
				c0.9-2.8,1.7-5.5,2.6-7.7c0.8-2.2,1.6-4.1,2.1-5.4c0.6-1.3,0.9-2,0.9-2s0,0.8-0.1,2.2s-0.3,3.4-0.7,5.8c-0.3,2.4-0.8,5.1-1.4,8
				c-0.3,1.5-0.6,3-0.9,4.5s-0.7,3-0.9,4.5c-0.3,1.5-0.5,3-0.6,4.4c0,0.4-0.1,0.7-0.1,1.1c0,0.3,0,0.8-0.1,1.1c0,0.7,0,1.4,0,2.1
				c0.1,2.8,0.6,5.5,1,7.8c0.5,2.3,0.9,4.3,1.2,5.6C2.2,308.4,2.3,309.2,2.3,309.2z"/>
		</g>
		<g id="XMLID_3523_">
			<path id="XMLID_102_" fill="#FFFFFF" d="M5.3,323.2c0,0-0.4-0.7-1.1-1.9c-0.7-1.2-1.7-3-2.6-5.2c-1-2.2-1.9-5-2.4-8.1
				c-0.1-0.8-0.2-1.6-0.2-2.4c0-0.5,0-0.8,0-1.2c0-0.4,0-0.9,0-1.3c0.1-1.7,0.3-3.3,0.6-4.9c0.6-3.2,1.5-6.3,2.4-9.1
				s1.7-5.5,2.6-7.7c0.8-2.2,1.6-4.1,2.1-5.4c0.6-1.3,0.9-2,0.9-2s0,0.8-0.1,2.2s-0.3,3.4-0.7,5.8c-0.3,2.4-0.8,5.1-1.4,8
				c-0.3,1.5-0.6,3-0.9,4.5s-0.7,3-0.9,4.5c-0.3,1.5-0.5,3-0.6,4.4c0,0.4-0.1,0.7-0.1,1.1c0,0.3,0,0.8-0.1,1.1c0,0.7,0,1.4,0,2.1
				c0.1,2.8,0.6,5.5,1,7.8c0.5,2.3,0.9,4.3,1.2,5.6C5.2,322.4,5.3,323.2,5.3,323.2z"/>
		</g>
		<g id="XMLID_3476_">
			<path id="XMLID_100_" fill="#FFFFFF" d="M8.3,327.5c0,0-0.4-0.4-1.1-1.2c-0.7-0.8-1.6-2-2.6-3.5c-0.9-1.6-1.9-3.5-2.4-5.9
				c-0.1-0.6-0.2-1.2-0.3-1.9c0-0.4,0-0.6,0-0.9c0-0.3,0-0.7,0-1c0.1-1.3,0.3-2.6,0.6-3.8c0.3-1.2,0.7-2.4,1.1-3.5s0.8-2.1,1.3-3.2
				c0.9-2,1.7-3.9,2.6-5.5c0.8-1.6,1.6-2.9,2.1-3.8s0.9-1.4,0.9-1.4s0,0.6-0.2,1.7c-0.1,1-0.3,2.5-0.7,4.3c-0.3,1.7-0.8,3.8-1.4,5.9
				c-0.3,1.1-0.6,2.2-0.9,3.2c-0.3,1.1-0.7,2.2-0.9,3.2c-0.3,1.1-0.5,2.1-0.6,3.1c0,0.3-0.1,0.5-0.1,0.7c0,0.2,0,0.6,0,0.8
				c0,0.5,0,1,0,1.5c0.1,2,0.6,3.9,1.1,5.5c0.5,1.7,0.9,3.1,1.2,4.1C8.2,326.9,8.3,327.5,8.3,327.5z"/>
		</g>
	</g>
	<g id="XMLID_3469_">
		<path id="XMLID_98_" fill="#EF7B05" d="M-100.8,207.7c0,0,0.6-0.6,1.6-1.5c1-0.9,2.6-2.2,4.3-3.6c0.9-0.7,1.8-1.5,2.8-2.3
			s1.9-1.7,3-2.6c0.5-0.4,0.9-0.9,1.4-1.4s0.9-1,1.4-1.5c0.9-1,1.7-2,2.4-3.1c0.8-1.1,1.4-2.2,1.9-3.3v-0.1c-0.1,0.2,0,0,0,0.1l0,0
			l0,0l0.1-0.1l0.1-0.3l0.2-0.5c0.1-0.3,0.2-0.6,0.3-0.8c0.2-0.5,0.4-1.2,0.6-1.8c0.7-2.4,1-5,1.3-7.2c0.3-2.2,0.5-4.2,0.7-5.6
			s0.4-2.2,0.4-2.2s0.4,0.7,1,2s1.3,3.1,1.9,5.5c0.6,2.4,1,5.3,0.7,8.5c-0.1,0.8-0.2,1.6-0.4,2.5c-0.1,0.4-0.2,0.9-0.3,1.3l-0.2,0.5
			l-0.1,0.3v0.1l-0.1,0.2c-0.6,1.7-1.4,3.3-2.4,4.8c-1,1.4-2.2,2.8-3.4,3.9c-0.6,0.6-1.2,1.1-1.9,1.6c-0.6,0.5-1.3,1-2,1.4
			c-1.3,0.8-2.6,1.5-3.9,2.1c-1.3,0.6-2.5,1-3.7,1.4c-2.3,0.7-4.3,1.1-5.6,1.3C-100,207.7-100.8,207.7-100.8,207.7z"/>
	</g>
	<g id="XMLID_3466_">
		<path id="XMLID_96_" fill="#EF7B05" d="M-87.5,169.1c0,0,0,0.2-0.1,0.7s-0.1,1.1-0.3,2c-0.1,0.9-0.4,1.9-0.7,3.1
			c-0.2,0.6-0.3,1.2-0.5,1.9s-0.5,1.3-0.7,2c-0.3,0.7-0.5,1.4-0.9,2.2c-0.3,0.7-0.7,1.5-1.1,2.3c-0.4,0.8-0.8,1.6-1.2,2.3
			c-0.4,0.8-0.9,1.6-1.4,2.4c-1,1.6-2.1,3.2-3.4,4.7c-1.2,1.6-2.6,3-4,4.5c-1.5,1.4-2.9,2.8-4.5,4c-1.5,1.3-3.1,2.4-4.7,3.4
			c-0.8,0.5-1.6,1-2.4,1.4c-0.8,0.5-1.5,0.9-2.3,1.3c-0.8,0.4-1.5,0.7-2.3,1.1c-0.7,0.3-1.5,0.6-2.2,0.9s-1.4,0.5-2,0.7
			c-0.7,0.2-1.3,0.4-1.9,0.5c-1.2,0.3-2.2,0.6-3.1,0.7c-0.9,0.2-1.5,0.3-2,0.3c-0.5,0.1-0.7,0.1-0.7,0.1s0.2-0.2,0.6-0.5
			c0.4-0.3,0.9-0.7,1.6-1.2c0.7-0.5,1.5-1.2,2.4-1.9c0.5-0.4,1-0.7,1.5-1.1s1-0.8,1.6-1.3c1.1-0.9,2.3-1.8,3.6-2.9
			c0.6-0.5,1.3-1,1.9-1.6c0.6-0.6,1.3-1.1,2-1.7c0.6-0.6,1.3-1.2,2-1.8c0.7-0.6,1.3-1.2,2-1.8c1.3-1.2,2.6-2.5,4-3.8
			c1.3-1.3,2.6-2.6,3.8-4c1.3-1.3,2.4-2.7,3.6-4c0.6-0.7,1.1-1.3,1.6-2c0.6-0.6,1.1-1.3,1.6-1.9c1-1.3,2-2.4,2.8-3.6
			c0.4-0.6,0.9-1.1,1.3-1.6c0.4-0.5,0.8-1,1.1-1.5c0.7-0.9,1.4-1.7,1.9-2.5c0.5-0.7,0.9-1.2,1.2-1.6
			C-87.7,169.3-87.5,169.1-87.5,169.1z"/>
	</g>
	<g id="XMLID_3463_">
		<path id="XMLID_94_" fill="#EF7B05" d="M-102.7,169.4c0,0-0.1,0.7-0.4,2c-0.1,0.6-0.4,1.4-0.7,2.2c-0.3,0.8-0.7,1.8-1.1,2.8
			c-0.4,1-1,2-1.6,3.1s-1.4,2.2-2.1,3.3c-0.8,1.1-1.7,2.2-2.6,3.2c-0.9,1.1-2,2.1-3,3.1c-1.1,0.9-2.2,1.9-3.3,2.7
			c-1.1,0.9-2.3,1.6-3.5,2.3c-1.2,0.7-2.3,1.3-3.4,1.8c-1.1,0.5-2.2,1-3.2,1.3c-1,0.4-2,0.7-2.8,0.9c-0.9,0.2-1.6,0.4-2.3,0.5
			c-1.3,0.2-2,0.2-2,0.2s0.5-0.6,1.4-1.5c0.4-0.4,1-1,1.6-1.6c0.6-0.6,1.3-1.3,2.1-2c0.7-0.7,1.6-1.5,2.4-2.3
			c0.9-0.8,1.8-1.6,2.7-2.5c0.9-0.9,1.9-1.7,2.8-2.6c1-0.9,1.9-1.8,2.9-2.7c1-0.9,2-1.8,2.9-2.7c1-0.9,1.9-1.8,2.8-2.6
			c0.9-0.9,1.8-1.7,2.7-2.5s1.7-1.5,2.5-2.2c0.8-0.7,1.5-1.3,2.1-1.9c0.7-0.6,1.3-1,1.7-1.5C-103.3,169.8-102.7,169.4-102.7,169.4z"
			/>
	</g>
	<g id="XMLID_3452_">
		<path id="XMLID_92_" fill="#EF7B05" d="M-124.1,171.9c0,0,0,0.5-0.2,1.4c-0.2,0.9-0.5,2.1-1.1,3.5c-0.6,1.4-1.4,2.9-2.4,4.3
			c-0.5,0.7-1.1,1.5-1.7,2.2c-0.6,0.7-1.3,1.4-1.9,2.1c-0.7,0.7-1.4,1.3-2.1,1.9c-0.7,0.6-1.5,1.1-2.2,1.6c-1.5,1-3,1.7-4.4,2.2
			s-2.6,0.8-3.5,1c-0.9,0.1-1.4,0.2-1.4,0.2s0.2-0.5,0.6-1.3c0.4-0.8,1-1.9,1.8-3c0.8-1.2,1.8-2.5,2.9-3.7c0.5-0.6,1.1-1.3,1.7-1.9
			c0.6-0.6,1.2-1.3,1.9-1.9c0.6-0.6,1.3-1.2,1.9-1.8c0.7-0.6,1.3-1.1,2-1.6c1.3-1.1,2.6-2,3.8-2.7c1.2-0.8,2.3-1.3,3.1-1.7
			C-124.6,172-124.1,171.9-124.1,171.9z"/>
	</g>
</g>
</svg>
