<?xml version="1.0" encoding="utf-8"?>
<!-- Generator: Adobe Illustrator 19.0.0, SVG Export Plug-In . SVG Version: 6.00 Build 0)  -->
<svg version="1.1" id="Layer_1" xmlns="http://www.w3.org/2000/svg" xmlns:xlink="http://www.w3.org/1999/xlink" x="0px" y="0px"
	 viewBox="-300 107.7 357.4 347.3" enable-background="new -300 107.7 357.4 347.3" xml:space="preserve">
<g id="XMLID_2624_">
	<path id="XMLID_2992_" fill="#EF7B05" d="M-262.2,399.3c-2.2-7.7-3.9-15.5-5.8-23.3c-1.8-7.4-3.4-15-4.3-22.6
		c-0.6-5.3-2.7-16.8,0-21.7c-1.1,2-2.2,4.4-3.4,6c-0.4-4.9,0-10-0.2-14.9c0,0.7-2.9-4-3.1-4.7c-0.9-3.1-1.1-9-0.6-12.3
		c0.2-1.4,2.6-12.2,3.2-12.7c-2.1,1.8-3.1,5-6,5.1c-0.9-11.1,4.6-19.6,5.4-30.2c-1.6,1.9-3.2,3.9-4.4,5.8c-3-8.9,1.3-25.6,3.5-34.5
		c3.8-15.4,13.7-19.6,26.4-27.3c-1.1-0.2-4.2-2.3-5.6-2.6c6.2-5.1,15.9-6.5,21.7-11.5c-4.1-0.2-8.4-0.3-10.9-2.9
		c9.8-5.6,17.8-13.1,28.1-18c5.5-2.7,17.7-4.3,21.1-9.4c-1.1-0.6-3-3.1-4.1-3.6c13.6-8.2,28.6-10.6,42.7-14.8
		c-3.2-0.9-5.3-3.1-7.6-4.7c9.3-0.6,18.8-0.2,28.2-0.2c0.9,0.6-1.7-1.5-2-1.7c13.4-2,26.3,7.9,38.9,9.4c0.2-3.8,0.1-7.7,0.3-11.4
		c3.5,1.5,6.7,4.4,9.7,6.6c0.3-14.2,9.8,0,12.2,4.1c7.7-14.5,11.1,2.7,11.2,10.4c3.3,0.6,7.9,0.8,10.7,2.8c2.5,1.8,2.7,5.5,4.4,6.8
		c5.7,4.5,11.1,3.1,18,4.9c-1.1,0.3-2.3,0.7-3.3,1.1c4.9,3,13,4,17.4,7.6c-3.8,0.2-7.7,0.2-11.6,0.2c10.7,3,22.2,3.3,29.8,12.6
		c-3-0.3-5.9-0.8-8.5-1.9c6,5.1,11.7,10,16.8,16.2c-3-0.7-5.1-1.5-7.6-3.5c4.5,3.6,9.2,6.6,12.6,11.2c-1.1,0.3-2.4,1.6-4,1.9
		c3.4,3.6,10.1,7.4,9.5,13.1c-0.6,0.1-1.1,0.2-1.7,0.3c0.4-0.1,11.3,12.3,12.2,13.6c2.2,3.5,1.7,26.5,6.3,27.1
		c-3.1-0.4-6.1-2.3-8.8-4.1c3.9,2.6,3,12.3,3.9,16.4c1.3,6,2,12.6,3.5,18.5c1.5,6,5,11.3,5.5,17.7c-2.4,0.1-4.6-1.1-7-1
		c1.7,5.4,8.2,8.6,9.2,13.9c-2.5,0-5-1.4-7.1-2.8c-0.5,7.9-0.4,15.2-3,22.8c-2.9,8.2-9.3,14.3-11.8,22.8c-2.4,8.2-2.3,17.2-6.7,24.8
		c0,0.7,0.1,0.7,0.1,0c-8.2-18.1,4.7-41.1-4.4-59.2c-4.2-8.3-12.9-12.1-16.1-21.2c-3.2-9.2-1.6-20.9,0.1-30.1
		c-2.9,3.5-0.3,7.5-4.2,9.5c0-6.9,0-14.4,2.1-21.2c-1.1,0.9-2.4,2.2-3.7,3.4c-1.7-12.2,5.7-19.5-10.7-25.6
		c-9.8-3.7-19.2-4.2-29.5-3.7c0.4,1.4-0.2,2.7,1,4.2c-3.9-0.4-7.4-3.6-11.2-3.6c0.3,2.7,2.3,5.2,3.9,7.3c-5.9,0-16.7-3.9-21.7-6.6
		c-5.7-3.1-9.6-3.2-16.1-3.2c-14.2,0-33.5,2.9-44,13.4c0.6-2.3,2.3-4.8,3.9-6.7c-2.4,0.1-4.5,0.5-6.9,0.6c-0.9,0,9.5-6.7,9.7-7.2
		c-4.4-0.8-16.8,0.7-21.3,0.4c-4-0.3-7.4-1.5-11.6-0.7c-9,1.7-15.4,9-25,8.2c-7.7-0.6-12.8-4-20.1-0.7c-4.6,2.1-9.4,8.5-12.4,12.3
		c-9.9,12.6-8.1,29.3-8.1,44.6c0,9-3.6,15.1-8.6,22c-4.8,6.6-9,17.3-10.5,25.5c-1.1,6.2-1.5,12.9-1.5,19.3c0,11.1,0.2,22,0.8,32.8
		C-258.2,412.3-260.3,405.8-262.2,399.3z"/>
	<g id="XMLID_2726_">
		<g id="XMLID_2990_">
			<path id="XMLID_2991_" fill="#FFFFFF" d="M-150.3,217.1c0,0,0.5,1,1.3,2.5s2,3.4,3.1,5.4c1.3,1.9,2.5,3.8,3.5,5.1
				c0.5,0.7,0.9,1.3,1.2,1.7s0.5,0.6,0.5,0.6s0.7,0.9,1.6,2.3c0.2,0.3,0.5,0.7,0.8,1.1c0.3,0.4,0.6,0.8,0.9,1.2
				c0.6,0.8,1.3,1.7,2,2.5c1.4,1.6,2.8,3.3,4,4.5c1.1,1.2,1.9,2,1.9,2s-0.8-0.7-2-1.8s-2.8-2.6-4.3-4.2c-0.8-0.8-1.5-1.6-2.2-2.4
				c-0.3-0.4-0.7-0.8-1-1.1c-0.3-0.4-0.6-0.7-0.9-1c-1.1-1.3-1.8-2.2-1.8-2.2s-0.2-0.3-0.5-0.7c-0.3-0.4-0.7-1-1.1-1.8
				c-1-1.4-2.1-3.4-3.2-5.4c-1-2-2.1-4-2.8-5.6C-149.8,218.2-150.3,217.1-150.3,217.1z"/>
		</g>
		<g id="XMLID_2988_">
			<path id="XMLID_2989_" fill="#FFFFFF" d="M-118.3,215.3c0,0,0.3-0.1,0.9-0.3c0.6-0.1,1.4-0.2,2.4-0.1c2,0.2,4.6,1.3,6.7,3.1
				c1.1,0.8,2.1,1.8,3,2.7c0.9,1,1.8,1.8,2.4,2.6c0.7,0.8,1.2,1.5,1.6,2c0.4,0.5,0.6,0.8,0.6,0.8s0.2,0.3,0.5,0.8s0.8,1.2,1.3,2.1
				c0.5,0.9,1,2,1.7,3.1c0.5,1.2,1.1,2.4,1.6,3.6c0.5,1.3,1,2.5,1.4,3.7s0.7,2.3,1,3.3c0.4,2,0.7,3.3,0.7,3.3s-0.4-1.3-0.9-3.2
				c-0.3-1-0.7-2.1-1.2-3.2c-0.4-1.2-1-2.4-1.6-3.6c-0.6-1.2-1.2-2.4-1.8-3.5c-0.7-1.1-1.3-2.1-1.8-2.9c-0.5-0.8-1.1-1.5-1.4-2
				c-0.3-0.5-0.5-0.8-0.6-0.8c0,0-0.2-0.3-0.6-0.8c-0.4-0.5-0.9-1.2-1.5-2c-0.6-0.9-1.4-1.7-2.2-2.7s-1.7-2-2.7-2.9
				c-2-1.8-4.4-3.1-6.4-3.4c-1-0.2-1.8-0.1-2.4,0C-118,215.3-118.3,215.3-118.3,215.3z"/>
		</g>
		<g id="XMLID_2986_">
			<path id="XMLID_2987_" fill="#FFFFFF" d="M-109.9,216.6c0,0,0.3,0,0.9,0c0.6,0.1,1.3,0,2.3,0.2c1.9,0.2,4.4,0.7,6.8,1.6
				c2.4,0.9,4.8,2,6.4,3.1c0.9,0.5,1.5,1,2,1.4s0.8,0.6,0.8,0.6s0.3,0.2,0.7,0.7c0.4,0.4,1,1,1.6,1.7c1.3,1.5,2.8,3.6,4.1,5.8
				c1.2,2.3,2.1,4.7,2.6,6.6c0.1,0.2,0.1,0.5,0.2,0.7c0,0.2,0.1,0.4,0.1,0.6c0.1,0.4,0.1,0.7,0.2,1c0.1,0.6,0.2,0.9,0.2,0.9
				s-0.1-0.3-0.2-0.9c-0.1-0.3-0.2-0.6-0.3-1c0-0.2-0.1-0.4-0.2-0.6c-0.1-0.2-0.2-0.4-0.2-0.6c-0.6-1.8-1.7-4.1-3-6.3
				c-1.4-2.1-3-4.1-4.3-5.4c-0.6-0.7-1.3-1.1-1.7-1.5c-0.4-0.4-0.7-0.6-0.7-0.6s-0.3-0.2-0.7-0.6c-0.4-0.4-1-0.9-1.8-1.4
				c-1.5-1.2-3.8-2.4-6.1-3.4s-4.8-1.7-6.6-2c-0.9-0.2-1.7-0.2-2.3-0.3C-109.6,216.7-109.9,216.6-109.9,216.6z"/>
		</g>
		<g id="XMLID_2984_">
			<path id="XMLID_2985_" fill="#FFFFFF" d="M-105.4,216.2c0,0,0.3,0,0.8,0s1.3,0,2.2,0.1c1.8,0.2,4.3,0.5,6.7,1.1s4.8,1.4,6.5,2.2
				c0.9,0.3,1.6,0.7,2.1,0.9c0.5,0.2,0.8,0.4,0.8,0.4s0.3,0.2,0.8,0.5s1.1,0.7,1.9,1.2c1.5,1,3.5,2.6,5.3,4.2c1.8,1.7,3.4,3.5,4.5,5
				c0.6,0.7,1,1.4,1.3,1.8s0.5,0.7,0.5,0.7s-0.2-0.2-0.5-0.7c-0.3-0.4-0.8-1-1.4-1.7c-1.2-1.4-2.9-3.1-4.8-4.6
				c-1.9-1.5-3.9-2.9-5.4-3.8c-0.8-0.5-1.4-0.8-1.9-1.1s-0.7-0.4-0.8-0.4c0,0-0.3-0.2-0.8-0.4c-0.5-0.3-1.1-0.7-2-1.1
				c-1.6-0.9-3.9-1.8-6.2-2.6c-2.3-0.7-4.7-1.3-6.5-1.6c-0.9-0.2-1.7-0.2-2.2-0.3C-105.1,216.2-105.4,216.2-105.4,216.2z"/>
		</g>
		<g id="XMLID_2982_">
			<path id="XMLID_2983_" fill="#FFFFFF" d="M-146,222.3c0,0,0.8,0.8,2,2.1s3,2.8,4.7,4.4c1.8,1.5,3.6,3,5.1,4
				c0.7,0.5,1.3,0.9,1.7,1.2c0.4,0.3,0.7,0.5,0.7,0.5s1,0.7,2.3,1.7c0.3,0.3,0.7,0.5,1.1,0.8c0.4,0.3,0.8,0.5,1.3,0.8
				c0.9,0.6,1.8,1.2,2.8,1.8c2,1.1,3.9,2.3,5.4,3c1.5,0.8,2.5,1.3,2.5,1.3s-1-0.4-2.6-1.1c-1.6-0.6-3.6-1.6-5.6-2.6
				c-1-0.5-2-1.1-2.9-1.6c-0.5-0.3-0.9-0.5-1.4-0.7c-0.4-0.3-0.8-0.5-1.2-0.7c-1.5-0.9-2.4-1.6-2.5-1.6c0,0-0.3-0.2-0.7-0.5
				c-0.4-0.3-1-0.8-1.7-1.4c-1.4-1.1-3.1-2.8-4.8-4.4c-1.6-1.7-3.3-3.4-4.4-4.8C-145.3,223.2-146,222.3-146,222.3z"/>
		</g>
		<g id="XMLID_2980_">
			<path id="XMLID_2981_" fill="#FFFFFF" d="M-154.2,220.8c0,0,0,0.9,0,2.3c-0.1,1.4,0.2,3.2,0.4,5c0.3,1.8,0.6,3.6,1,4.9
				c0.2,0.7,0.3,1.2,0.4,1.6c0.1,0.4,0.2,0.6,0.2,0.6s0.2,0.9,0.6,2.2c0.1,0.3,0.2,0.7,0.3,1c0.1,0.4,0.3,0.7,0.4,1.1
				c0.3,0.8,0.6,1.6,0.9,2.4c0.7,1.6,1.4,3.2,2.1,4.3c0.7,1.1,1.1,1.9,1.1,1.9s-0.5-0.7-1.3-1.8c-0.8-1-1.6-2.6-2.5-4.1
				c-0.4-0.8-0.8-1.6-1.1-2.4c-0.2-0.4-0.4-0.7-0.5-1.1c-0.1-0.4-0.3-0.7-0.4-1c-0.5-1.3-0.8-2.1-0.8-2.2c0,0-0.1-0.2-0.1-0.7
				c-0.1-0.4-0.2-1-0.3-1.7c-0.3-1.4-0.4-3.2-0.6-5.1c0-1.8-0.1-3.7,0.1-5C-154.3,221.7-154.2,220.8-154.2,220.8z"/>
		</g>
		<g id="XMLID_2978_">
			<path id="XMLID_2979_" fill="#FFFFFF" d="M-186.9,221.7c0,0,0.3,0.8,0.7,2c0.4,1.2,1.1,2.7,1.7,4.2c0.7,1.5,1.5,3,2.1,4
				c0.3,0.5,0.6,1,0.8,1.3c0.2,0.3,0.3,0.5,0.3,0.5s0.4,0.7,0.9,1.8c0.3,0.5,0.6,1.2,1,1.8c0.4,0.6,0.8,1.3,1.2,2
				c0.9,1.3,1.8,2.7,2.5,3.6c0.7,0.9,1.2,1.6,1.2,1.6s-0.5-0.6-1.4-1.4c-0.9-0.8-1.9-2.1-2.9-3.3c-0.5-0.6-1-1.3-1.4-1.9
				c-0.5-0.6-0.9-1.2-1.2-1.7c-0.7-1-1.1-1.7-1.2-1.7c0,0-0.1-0.2-0.3-0.6c-0.2-0.3-0.4-0.8-0.6-1.4c-0.6-1.1-1.1-2.7-1.7-4.3
				c-0.5-1.6-1.1-3.2-1.3-4.4C-186.7,222.5-186.9,221.7-186.9,221.7z"/>
		</g>
		<g id="XMLID_2976_">
			<path id="XMLID_2977_" fill="#FFFFFF" d="M-194.1,223c0,0,0.1,0.8,0.2,1.9c0,0.3,0.1,0.6,0.1,0.9s0.1,0.7,0.2,1
				c0.2,0.7,0.3,1.4,0.5,2.2c0.5,1.4,0.9,2.9,1.5,3.9c0.2,0.5,0.4,0.9,0.6,1.2c0.1,0.3,0.3,0.5,0.3,0.5s0.3,0.7,0.8,1.7
				c0.1,0.2,0.2,0.5,0.4,0.8c0.2,0.3,0.3,0.6,0.5,0.9c0.3,0.6,0.7,1.2,1.1,1.8c0.8,1.2,1.7,2.4,2.4,3.2c0.7,0.8,1.2,1.4,1.2,1.4
				s-0.5-0.5-1.3-1.2c-0.9-0.7-1.8-1.8-2.8-2.9c-0.5-0.6-0.9-1.2-1.3-1.7c-0.2-0.3-0.4-0.6-0.6-0.8c-0.2-0.3-0.3-0.5-0.5-0.8
				c-0.6-1-1-1.6-1-1.7c0,0-0.1-0.2-0.2-0.5c-0.1-0.3-0.3-0.8-0.5-1.4c-0.4-1.1-0.7-2.6-1.1-4.1c-0.1-0.8-0.2-1.5-0.3-2.3
				c0-0.4-0.1-0.7-0.1-1s0-0.6,0-0.9C-194.1,223.8-194.1,223-194.1,223z"/>
		</g>
		<g id="XMLID_2974_">
			<path id="XMLID_2975_" fill="#FFFFFF" d="M-216.6,217.8c0,0,0.5,0.9,1.2,2.2c0.3,0.7,0.8,1.4,1.3,2.2c0.5,0.8,1,1.7,1.6,2.5
				c1.2,1.6,2.3,3.2,3.4,4.4c0.5,0.6,0.9,1,1.2,1.4c0.3,0.3,0.5,0.5,0.5,0.5s0.6,0.8,1.6,1.9c0.2,0.3,0.5,0.6,0.8,0.9
				c0.3,0.3,0.6,0.6,0.9,0.9c0.6,0.6,1.3,1.4,2,2c1.4,1.3,2.8,2.6,4,3.5c1.1,0.9,1.9,1.5,1.9,1.5s-0.8-0.5-2-1.3
				c-1.2-0.7-2.7-1.9-4.3-3.1c-0.8-0.6-1.5-1.3-2.2-1.9c-0.3-0.3-0.7-0.6-1-0.9s-0.6-0.6-0.8-0.8c-1-1.1-1.7-1.8-1.8-1.8
				c0,0-0.2-0.2-0.5-0.6c-0.3-0.4-0.6-0.9-1.1-1.5c-0.9-1.2-2-3-3-4.7c-0.5-0.9-0.9-1.8-1.4-2.6c-0.5-0.8-0.8-1.7-1.1-2.4
				C-216.2,218.7-216.6,217.8-216.6,217.8z"/>
		</g>
		<g id="XMLID_2972_">
			<path id="XMLID_2973_" fill="#FFFFFF" d="M-221.1,222.6c0,0,0.5,0.7,1.1,1.8c0.7,1.1,1.7,2.5,2.7,3.9c1.1,1.4,2.1,2.7,3,3.7
				c0.4,0.5,0.8,0.9,1,1.2c0.2,0.3,0.4,0.4,0.4,0.5c0,0,0.5,0.7,1.3,1.7c0.4,0.5,0.8,1.1,1.4,1.6c0.5,0.6,1,1.2,1.6,1.8
				c1.2,1.2,2.3,2.4,3.2,3.2c0.9,0.9,1.5,1.4,1.5,1.4s-0.7-0.5-1.6-1.3c-1-0.7-2.3-1.8-3.5-2.9c-0.6-0.6-1.2-1.1-1.8-1.7
				c-0.6-0.5-1.1-1-1.5-1.5c-0.9-0.9-1.5-1.5-1.5-1.6c0,0-0.2-0.2-0.4-0.5c-0.2-0.3-0.5-0.8-0.9-1.3c-0.8-1.1-1.7-2.5-2.6-4
				c-0.9-1.5-1.8-3-2.3-4.2C-220.7,223.4-221.1,222.6-221.1,222.6z"/>
		</g>
		<g id="XMLID_2970_">
			<path id="XMLID_2971_" fill="#FFFFFF" d="M-223.2,221.7c0,0,0,0.9-0.1,2.1c-0.1,1.3,0,3,0,4.7c0.1,1.7,0.2,3.4,0.4,4.7
				c0.1,0.6,0.1,1.2,0.2,1.6c0,0.4,0.1,0.6,0.1,0.6s0.1,0.9,0.2,2.1c0,0.3,0,0.7,0.1,1c0,0.4,0.1,0.7,0.1,1.1
				c0.1,0.8,0.2,1.6,0.3,2.4c0.3,1.6,0.6,3.3,0.9,4.5s0.5,2,0.5,2s-0.3-0.8-0.7-2c-0.5-1.2-0.9-2.8-1.4-4.4
				c-0.2-0.8-0.4-1.6-0.6-2.4c-0.1-0.4-0.2-0.8-0.3-1.1c-0.1-0.4-0.1-0.7-0.2-1c-0.2-1.3-0.4-2.1-0.4-2.1s0-0.2,0-0.6s0-0.9,0-1.6
				c-0.1-1.3,0-3.1,0.1-4.8c0.2-1.7,0.3-3.4,0.5-4.7C-223.4,222.5-223.2,221.7-223.2,221.7z"/>
		</g>
		<g id="XMLID_2968_">
			<path id="XMLID_2969_" fill="#FFFFFF" d="M-141.5,263.4c0,0,0.1-0.2,0.4-0.6c0.2-0.4,0.5-1,1-1.6c0.8-1.3,2.1-3,3.6-4.5
				c1.5-1.5,3.1-2.8,4.4-3.8c0.7-0.4,1.2-0.8,1.6-1.1c0.4-0.3,0.6-0.4,0.7-0.4c0,0,0.3-0.1,0.7-0.3s1-0.5,1.7-0.7
				c1.4-0.6,3.3-1.1,5.3-1.6c2-0.4,3.9-0.6,5.4-0.6c0.7,0,1.4,0,1.8,0c0.4,0,0.7,0,0.7,0s-0.2,0-0.7,0c-0.4,0-1,0-1.8,0.1
				c-1.5,0.2-3.4,0.5-5.3,1c-1.9,0.6-3.7,1.3-5,2c-0.7,0.3-1.2,0.6-1.6,0.8c-0.4,0.2-0.6,0.3-0.6,0.4c0,0-0.3,0.1-0.7,0.3
				s-1,0.5-1.6,0.9c-1.3,0.8-3,1.9-4.5,3.3c-1.5,1.4-2.9,2.9-3.9,4.1c-0.5,0.6-0.8,1.2-1.1,1.5
				C-141.4,263.2-141.5,263.4-141.5,263.4z"/>
		</g>
		<g id="XMLID_2966_">
			<path id="XMLID_2967_" fill="#FFFFFF" d="M-180.6,252.3c0,0,0.2-0.1,0.4-0.4c0.3-0.2,0.6-0.6,1.1-0.9c0.9-0.8,2.3-1.6,3.7-2.4
				c1.4-0.7,2.9-1.3,4.1-1.7c0.6-0.2,1.1-0.3,1.4-0.4c0.3-0.1,0.6-0.1,0.6-0.1s0.2,0,0.6-0.1c0.3,0,0.8-0.1,1.4-0.1
				c1.2-0.1,2.7,0,4.3,0.2c1.5,0.2,3,0.6,4.1,0.9c0.6,0.2,1,0.3,1.3,0.5c0.3,0.1,0.5,0.2,0.5,0.2s-0.2,0-0.5-0.1s-0.8-0.2-1.3-0.3
				c-1.1-0.2-2.6-0.4-4.1-0.4s-3,0.1-4.1,0.3c-0.6,0.1-1,0.2-1.3,0.2c-0.3,0.1-0.5,0.1-0.5,0.1s-0.2,0-0.6,0.1
				c-0.3,0.1-0.8,0.1-1.4,0.2c-1.1,0.2-2.6,0.6-4.1,1.2c-1.4,0.6-2.9,1.3-3.9,1.9c-0.5,0.3-0.9,0.6-1.2,0.8
				S-180.6,252.3-180.6,252.3z"/>
		</g>
		<g id="XMLID_2964_">
			<path id="XMLID_2965_" fill="#FFFFFF" d="M-172.1,225.3c0,0,0,0.2,0.1,0.6s0.2,1,0.4,1.6c0.3,1.3,1,3.1,1.9,4.7
				c0.8,1.6,1.9,3.1,2.8,4.1c0.4,0.5,0.8,0.9,1.1,1.2s0.4,0.4,0.5,0.5c0,0,0.2,0.2,0.4,0.5s0.6,0.7,1.1,1.2c0.9,1,2.2,2.1,3.6,3.1
				c1.4,1,3,1.8,4.1,2.4c0.6,0.3,1.1,0.4,1.5,0.6c0.4,0.1,0.6,0.2,0.6,0.2s-0.2-0.1-0.6-0.2c-0.4-0.1-0.9-0.2-1.5-0.4
				c-1.2-0.4-2.9-1.1-4.4-2s-3-1.9-4-2.8c-0.5-0.4-1-0.8-1.2-1.1c-0.3-0.3-0.5-0.5-0.5-0.5s-0.2-0.2-0.4-0.5c-0.3-0.3-0.6-0.8-1-1.4
				c-0.8-1.2-1.8-2.8-2.5-4.6c-0.7-1.7-1.3-3.5-1.5-4.9c-0.2-0.7-0.2-1.3-0.2-1.7C-172,225.5-172.1,225.3-172.1,225.3z"/>
		</g>
		<g id="XMLID_2962_">
			<path id="XMLID_2963_" fill="#FFFFFF" d="M-256.7,279.8c0,0,0.7-1.1,1.7-2.6c0.5-0.8,1.1-1.7,1.8-2.7s1.4-2,2.2-3
				c1.4-2.1,3.1-4,4.3-5.5c0.6-0.7,1.1-1.4,1.5-1.8c0.4-0.4,0.6-0.7,0.6-0.7s0.9-0.9,2.2-2.2c1.3-1.3,3.1-3,5.1-4.3
				c2-1.4,4.3-2.3,6.1-2.4c0.9-0.1,1.6,0,2.1,0c0.5,0.1,0.8,0.1,0.8,0.1s-0.3,0-0.8-0.1c-0.5,0-1.2,0-2.1,0.1
				c-1.7,0.3-3.9,1.3-5.7,2.8c-1.9,1.5-3.5,3.2-4.7,4.6c-1.2,1.4-2,2.3-2.1,2.3c0,0-0.2,0.2-0.6,0.6c-0.4,0.4-0.9,1-1.6,1.7
				c-1.3,1.4-3,3.2-4.6,5.1c-0.8,1-1.6,1.9-2.3,2.8c-0.7,0.9-1.4,1.8-1.9,2.6C-256,278.8-256.7,279.8-256.7,279.8z"/>
		</g>
		<g id="XMLID_2960_">
			<path id="XMLID_2961_" fill="#FFFFFF" d="M-263.3,281.5c0,0,1.2-3.2,2.3-6.4c0.7-1.6,1.3-3.1,1.8-4.3c0.3-0.6,0.5-1.1,0.6-1.4
				c0.1-0.4,0.2-0.6,0.3-0.6c0,0,1.8-2.9,3.5-5.7c1.9-2.7,3.7-5.4,3.7-5.4s-1.6,2.9-3.2,5.7c-1.4,3-2.9,5.9-2.9,6
				c0,0-0.1,0.2-0.3,0.5s-0.4,0.8-0.7,1.4c-0.6,1.1-1.4,2.6-2.2,4.1C-261.8,278.5-263.3,281.5-263.3,281.5z"/>
		</g>
		<g id="XMLID_2958_">
			<path id="XMLID_2959_" fill="#FFFFFF" d="M-272.1,273c0,0,0.3-2.8,0.5-5.7c0.2-1.4,0.5-2.8,0.7-3.9c0.1-0.5,0.2-1,0.2-1.3
				c0.1-0.3,0.1-0.5,0.1-0.5s1-2.6,2.1-5.2c1.2-2.5,2.4-4.9,2.4-4.9s-0.9,2.6-1.8,5.2c-0.7,2.6-1.4,5.3-1.4,5.3s-0.1,0.2-0.2,0.5
				s-0.2,0.7-0.4,1.2c-0.3,1-0.7,2.4-1.1,3.7C-271.5,270.3-272.1,273-272.1,273z"/>
		</g>
		<g id="XMLID_2956_">
			<path id="XMLID_2957_" fill="#FFFFFF" d="M-277.4,260.1c0,0,0.1-1.2,0.3-3.1c0.1-1.9,0.6-4.3,1-6.8c0.5-2.4,1-4.9,1.6-6.7
				c0.2-0.9,0.5-1.7,0.6-2.2s0.3-0.9,0.3-0.9s0.5-1.2,1.2-2.9c0.2-0.4,0.4-0.9,0.6-1.4c0.2-0.5,0.5-1,0.7-1.5c0.5-1,1-2.1,1.5-3.2
				c1.2-2.1,2.3-4.2,3.2-5.7s1.6-2.5,1.6-2.5s-0.6,1.1-1.4,2.6c-0.9,1.6-1.8,3.8-2.8,5.9c-0.5,1.1-0.9,2.2-1.3,3.3
				c-0.2,0.5-0.4,1-0.6,1.5c-0.2,0.5-0.3,1-0.5,1.4c-0.6,1.7-1,2.9-1,2.9s-0.1,0.3-0.3,0.8c-0.2,0.5-0.4,1.3-0.7,2.1
				c-0.7,1.7-1.3,4.1-2,6.5c-0.5,2.4-1.2,4.8-1.4,6.6C-277.2,258.9-277.4,260.1-277.4,260.1z"/>
		</g>
		<g id="XMLID_2954_">
			<path id="XMLID_2955_" fill="#FFFFFF" d="M-269,289.6c0,0,0.4-9.1,0.4-9.2c0-0.1,1.7-8.7,1.7-8.7s-0.4,8.8-0.4,8.9
				C-267.3,280.6-269,289.6-269,289.6z"/>
		</g>
		<g id="XMLID_2952_">
			<path id="XMLID_2953_" fill="#FFFFFF" d="M-279.1,293.4l-0.4-8.1l0.9-7.9c0,0,0.5,7.8,0.5,7.9
				C-278.1,285.4-279.1,293.4-279.1,293.4z"/>
		</g>
		<g id="XMLID_2950_">
			<path id="XMLID_2951_" fill="#FFFFFF" d="M-263.4,307c0,0,1.8-2.3,3.6-4.5c1-1.1,2-2.2,2.7-3c0.4-0.4,0.7-0.8,0.9-1
				c0.2-0.2,0.4-0.4,0.4-0.4s2.3-1.8,4.5-3.5c2.3-1.6,4.6-3.2,4.6-3.2s-2.1,1.9-4.2,3.7c-2,2-4,4-4,4s-0.2,0.1-0.4,0.3
				s-0.6,0.5-1,0.9c-0.8,0.7-1.9,1.7-3,2.6C-261.3,304.9-263.4,307-263.4,307z"/>
		</g>
		<g id="XMLID_2948_">
			<path id="XMLID_2949_" fill="#FFFFFF" d="M-263.4,322.5c0,0,0.6-0.7,1.4-1.8s2.1-2.5,3.3-3.9c1.3-1.3,2.6-2.7,3.6-3.6
				c0.5-0.5,1-0.9,1.3-1.2c0.3-0.3,0.5-0.4,0.5-0.4s0.8-0.5,1.9-1.3c0.6-0.4,1.2-0.8,1.9-1.2c0.7-0.4,1.5-0.9,2.3-1.3
				c1.6-0.8,3.1-1.7,4.4-2.2c1.2-0.5,2-0.9,2-0.9s-0.8,0.4-1.9,1.1c-1.2,0.6-2.6,1.6-4.1,2.6c-0.7,0.5-1.4,1-2.1,1.5
				c-0.7,0.5-1.3,1-1.8,1.4c-1,0.9-1.7,1.4-1.8,1.5c0,0-0.2,0.1-0.5,0.4c-0.3,0.2-0.8,0.6-1.3,1c-1.1,0.8-2.5,2-3.9,3.2
				c-1.3,1.3-2.7,2.5-3.6,3.6C-262.8,321.9-263.4,322.5-263.4,322.5z"/>
		</g>
		<g id="XMLID_2946_">
			<path id="XMLID_2947_" fill="#FFFFFF" d="M-255.1,331c0,0,1.5-1.6,3-3.2c0.8-0.7,1.6-1.5,2.2-2c0.3-0.3,0.6-0.5,0.8-0.7
				c0.2-0.2,0.3-0.2,0.3-0.3c0,0,1.9-1,3.8-2c1.9-0.8,3.8-1.6,3.8-1.6s-1.8,1.1-3.5,2.2c-1.7,1.3-3.3,2.5-3.4,2.5
				c0,0-0.1,0.1-0.3,0.2c-0.2,0.1-0.5,0.3-0.8,0.5c-0.7,0.4-1.6,1-2.5,1.6C-253.4,329.7-255.1,331-255.1,331z"/>
		</g>
		<g id="XMLID_2944_">
			<path id="XMLID_2945_" fill="#FFFFFF" d="M-262.3,345.7c0,0,0.5-0.6,1.3-1.4c0.4-0.4,0.8-0.9,1.3-1.4s1.1-1,1.6-1.5
				c1.2-0.9,2.4-1.9,3.4-2.5c0.5-0.3,0.9-0.6,1.2-0.8c0.3-0.2,0.5-0.3,0.5-0.3s0.7-0.3,1.8-0.7c0.3-0.1,0.5-0.2,0.8-0.3
				c0.3-0.1,0.6-0.2,1-0.3c0.7-0.2,1.4-0.4,2.1-0.6c1.4-0.3,2.8-0.6,3.9-0.7c1.1-0.1,1.8-0.2,1.8-0.2s-0.7,0.2-1.8,0.4
				c-1.1,0.2-2.4,0.7-3.8,1.1c-0.7,0.3-1.3,0.6-2,0.8c-0.3,0.1-0.6,0.3-0.9,0.4c-0.3,0.1-0.5,0.3-0.8,0.4c-1,0.5-1.6,0.9-1.6,0.9
				s-0.2,0.1-0.5,0.2c-0.3,0.1-0.7,0.4-1.2,0.6c-1,0.5-2.3,1.3-3.5,2.1c-0.6,0.4-1.2,0.9-1.8,1.3c-0.6,0.4-1.1,0.9-1.5,1.2
				C-261.7,345.2-262.3,345.7-262.3,345.7z"/>
		</g>
		<g id="XMLID_2942_">
			<path id="XMLID_2943_" fill="#FFFFFF" d="M-263.3,366l2.2-6.6c0-0.1,3.3-5.9,3.3-5.9s-2.1,6.4-2.1,6.5
				C-259.9,360-263.3,366-263.3,366z"/>
		</g>
		<g id="XMLID_2940_">
			<path id="XMLID_2941_" fill="#FFFFFF" d="M-261.1,378c0,0,1.2-6.9,1.2-7s2.5-6.4,2.5-6.4s-1.2,6.7-1.2,6.8
				C-258.6,371.5-261.1,378-261.1,378z"/>
		</g>
		<g id="XMLID_2938_">
			<path id="XMLID_2939_" fill="#FFFFFF" d="M-269.3,340.9c0,0,0.5-2.1,1.1-4.2c0.4-1,0.8-2,1-2.8c0.1-0.4,0.3-0.7,0.4-0.9
				c0.1-0.2,0.2-0.4,0.2-0.4s0.3-0.4,0.8-1.1c0.5-0.6,1-1.5,1.7-2.3c1.4-1.5,2.7-3.1,2.7-3.1s-1.1,1.7-2.2,3.5
				c-0.9,1.8-1.8,3.7-1.8,3.7s-0.3,0.5-0.7,1.2c-0.4,0.7-0.9,1.6-1.4,2.5C-268.4,339-269.3,340.9-269.3,340.9z"/>
		</g>
		<g id="XMLID_2936_">
			<path id="XMLID_2937_" fill="#FFFFFF" d="M-271.1,324.4c0,0,0-0.6,0-1.4s0-2,0.1-3.1c0.1-1.1,0.2-2.3,0.4-3.1
				c0.1-0.4,0.1-0.8,0.2-1c0-0.3,0.1-0.4,0.1-0.4s0.2-0.5,0.5-1.3c0.3-0.8,0.8-1.8,1.2-2.8c0.5-1,1-1.9,1.4-2.6
				c0.4-0.7,0.7-1.2,0.7-1.2s-0.2,0.5-0.5,1.3c-0.3,0.7-0.7,1.8-1,2.8s-0.6,2.1-0.8,2.9c-0.2,0.8-0.3,1.3-0.3,1.3s-0.1,0.1-0.1,0.4
				c-0.1,0.2-0.2,0.6-0.3,1c-0.3,0.8-0.5,1.9-0.8,3c-0.2,1.1-0.5,2.2-0.5,3C-271.1,323.9-271.1,324.4-271.1,324.4z"/>
		</g>
		<g id="XMLID_2934_">
			<path id="XMLID_2935_" fill="#FFFFFF" d="M-276.2,322.6c0,0-0.4-2.5-0.8-5c-0.1-1.3-0.2-2.6-0.3-3.5c0-0.5-0.1-0.9-0.1-1.2
				c0-0.3,0-0.5,0-0.5s0.3-2.5,0.6-5c0.5-2.4,1-4.9,1-4.9s-0.2,2.5-0.3,4.9c0,2.5,0,4.9,0,5c0,0,0,0.2,0,0.5c0,0.3,0,0.7-0.1,1.2
				c0,1-0.1,2.2-0.2,3.5C-276.3,320.1-276.2,322.6-276.2,322.6z"/>
		</g>
		<g id="XMLID_2932_">
			<path id="XMLID_2933_" fill="#FFFFFF" d="M7.6,334.6c0,0-6.3-6.7-6.3-6.8c0-0.1-5.2-7.5-5.2-7.5s6.1,6.5,6.2,6.6
				C2.3,327,7.6,334.6,7.6,334.6z"/>
		</g>
		<g id="XMLID_2930_">
			<path id="XMLID_2931_" fill="#FFFFFF" d="M13.5,322.2c0,0-1.6-1.7-3.2-3.3c-0.8-0.8-1.7-1.6-2.3-2.1c-0.3-0.3-0.6-0.5-0.8-0.7
				c-0.2-0.2-0.3-0.3-0.3-0.3s-1.5-1.7-3-3.4c-1.6-1.6-3.2-3.2-3.2-3.2s1.8,1.3,3.6,2.6c1.8,1.4,3.5,2.9,3.5,2.9s0.1,0.1,0.3,0.3
				c0.2,0.2,0.4,0.5,0.7,0.8c0.6,0.7,1.3,1.6,2,2.5C12.1,320.3,13.5,322.2,13.5,322.2z"/>
		</g>
		<g id="XMLID_2928_">
			<path id="XMLID_2929_" fill="#FFFFFF" d="M9.8,311c0,0-1.1-1.6-2.2-3.2c-0.6-0.7-1.2-1.5-1.7-2c-0.2-0.3-0.4-0.5-0.6-0.7
				c-0.1-0.2-0.2-0.2-0.2-0.3c0,0-1.1-1.5-2.2-3.1c-1.2-1.4-2.4-2.8-2.4-2.8s1.4,1.2,2.9,2.4c0.7,0.6,1.3,1.3,1.9,1.8
				c0.5,0.5,0.9,0.9,0.9,0.9s0.1,0.1,0.2,0.3c0.1,0.2,0.3,0.5,0.5,0.8c0.4,0.6,0.9,1.5,1.3,2.4C9,309.2,9.8,311,9.8,311z"/>
		</g>
		<g id="XMLID_2926_">
			<path id="XMLID_2927_" fill="#FFFFFF" d="M12.5,301.7c0,0-1.9-2.6-3.9-5.1c-1-1.2-2.1-2.4-2.9-3.4c-0.4-0.5-0.7-0.8-0.9-1.1
				c-0.2-0.3-0.4-0.4-0.4-0.4s-1.9-2.5-3.8-5c-2-2.4-4-4.7-4-4.7s2.3,2.1,4.5,4.2c2.2,2.3,4.3,4.5,4.4,4.6c0,0,0.1,0.2,0.3,0.5
				c0.2,0.3,0.5,0.7,0.8,1.2c0.7,1,1.6,2.4,2.5,3.7C10.8,298.9,12.5,301.7,12.5,301.7z"/>
		</g>
		<g id="XMLID_2924_">
			<path id="XMLID_2925_" fill="#FFFFFF" d="M21.3,314.6v-7.3c0-0.1,1.3-7,1.3-7s0,7,0,7.1C22.7,307.5,21.3,314.6,21.3,314.6z"/>
		</g>
		<g id="XMLID_2922_">
			<path id="XMLID_2923_" fill="#FFFFFF" d="M16.9,334.6c0,0-1.9-6.8-1.9-6.9c0-0.1-0.5-6.9-0.5-6.9s1.8,6.6,1.8,6.7
				C16.4,327.6,16.9,334.6,16.9,334.6z"/>
		</g>
		<g id="XMLID_2920_">
			<path id="XMLID_2921_" fill="#FFFFFF" d="M13.3,357.4c0,0-2.8-8.1-2.9-8.2c0-0.1-1.5-8.3-1.5-8.3l2.8,7.9
				C11.7,348.9,13.3,357.4,13.3,357.4z"/>
		</g>
		<g id="XMLID_2918_">
			<path id="XMLID_2919_" fill="#FFFFFF" d="M10.3,367.7c0,0-2.1-6.3-2.1-6.4s-0.8-6.5-0.8-6.5s2.1,6.1,2.1,6.2
				C9.5,361.1,10.3,367.7,10.3,367.7z"/>
		</g>
		<g id="XMLID_2916_">
			<path id="XMLID_2917_" fill="#FFFFFF" d="M11.6,378.5c0,0-0.2-4.3-0.2-4.4l1.1-4.1c0,0,0.2,4.2,0.2,4.3
				C12.7,374.3,11.6,378.5,11.6,378.5z"/>
		</g>
		<g id="XMLID_2914_">
			<path id="XMLID_2915_" fill="#FFFFFF" d="M-11.3,289.7c0,0,1.6-1.8,3.2-3.5c1.5-1.9,3-3.8,3-3.8s1.6-1.7,3.2-3.4
				c1.5-1.8,2.9-3.6,2.9-3.6s-1.2,2-2.4,4.1c-1.3,2-2.7,3.9-2.7,3.9s-0.1,0.1-0.3,0.3c-0.2,0.2-0.5,0.4-0.8,0.8
				c-0.7,0.6-1.5,1.5-2.4,2.3C-9.5,288.2-11.3,289.7-11.3,289.7z"/>
		</g>
		<g id="XMLID_2912_">
			<path id="XMLID_2913_" fill="#FFFFFF" d="M-11.2,284.4c0,0,0.5-0.6,1.2-1.6c0.8-0.9,1.6-2.3,2.5-3.7c0.8-1.4,1.6-2.8,2.1-3.9
				c0.3-0.6,0.5-1,0.6-1.3c0.2-0.3,0.2-0.5,0.2-0.5s0.4-0.7,0.9-1.8c0.6-1,1.2-2.5,1.8-4c0.5-1.5,1.1-3,1.4-4.1
				c0.3-1.2,0.5-1.9,0.5-1.9s-0.1,0.8-0.3,2c-0.1,1.2-0.6,2.7-0.9,4.3c-0.5,1.5-0.9,3.1-1.4,4.2c-0.4,1.1-0.8,1.9-0.8,1.9
				s-0.1,0.2-0.3,0.5c-0.2,0.3-0.5,0.8-0.8,1.3c-0.6,1.1-1.6,2.4-2.5,3.8c-1,1.3-2,2.6-2.9,3.4C-10.7,283.8-11.2,284.4-11.2,284.4z"
				/>
		</g>
		<g id="XMLID_2910_">
			<path id="XMLID_2911_" fill="#FFFFFF" d="M-67.5,237.8c0,0,0.7-0.1,1.6,0.5c0.9,0.6,1.4,2.2,1.4,3.7s-0.2,2.9-0.2,4
				c0,0.5-0.1,1-0.1,1.3s-0.1,0.5-0.1,0.5s-0.2,0.7-0.4,1.7s-0.7,2.3-1.1,3.7c-0.4,1.3-1,2.6-1.4,3.5s-0.7,1.6-0.7,1.6
				s0.2-0.7,0.5-1.7c0.3-1,0.7-2.3,0.9-3.6c0.3-1.3,0.6-2.7,0.7-3.7c0.1-1,0.2-1.7,0.2-1.7s0-0.2,0.1-0.5s0.2-0.7,0.3-1.3
				c0.2-1,0.5-2.4,0.6-3.8c0.2-1.4-0.1-2.8-0.8-3.5c-0.4-0.4-0.7-0.5-1-0.6C-67.4,237.8-67.5,237.8-67.5,237.8z"/>
		</g>
		<g id="XMLID_2908_">
			<path id="XMLID_2909_" fill="#FFFFFF" d="M-67,238.1c0,0,0.4,0.5,1,1.3c0.7,0.8,1.4,2,2.2,3.1c0.7,1.2,1.4,2.4,1.8,3.4
				c0.2,0.5,0.4,0.9,0.6,1.2c0.1,0.3,0.2,0.5,0.2,0.5s0.2,0.7,0.5,1.7s0.5,2.3,0.8,3.7c0.2,1.4,0.4,2.7,0.4,3.7
				c0.1,1,0.1,1.7,0.1,1.7s-0.1-0.7-0.3-1.7c-0.1-1-0.5-2.3-0.8-3.6c-0.4-1.3-0.8-2.5-1.2-3.5c-0.4-0.9-0.6-1.5-0.6-1.6
				c0,0-0.1-0.2-0.2-0.5c-0.1-0.3-0.2-0.7-0.4-1.2c-0.3-1-0.9-2.2-1.4-3.5c-0.6-1.2-1.2-2.5-1.8-3.3C-66.7,238.7-67,238.1-67,238.1z
				"/>
		</g>
		<g id="XMLID_2906_">
			<path id="XMLID_2907_" fill="#FFFFFF" d="M-66.9,234.4c0,0,0.7,0.6,1.8,1.6c1.1,0.9,2.4,2.3,3.7,3.7c1.2,1.5,2.4,3,3.2,4.2
				c0.4,0.6,0.7,1.1,1,1.5c0.2,0.4,0.4,0.6,0.4,0.6s0.4,0.9,1,2.2s1.1,3.1,1.7,4.9c0.4,1.9,0.9,3.7,1,5.1c0.2,1.4,0.3,2.3,0.3,2.3
				s-0.2-0.9-0.5-2.3c-0.2-1.4-0.9-3.1-1.4-4.9c-0.7-1.7-1.4-3.4-2.1-4.6c-0.7-1.2-1.1-2.1-1.1-2.1s-0.5-0.9-1.1-2.1
				c-0.6-1.3-1.7-2.8-2.8-4.4c-1.2-1.5-2.3-3-3.3-4C-66.2,235-66.9,234.4-66.9,234.4z"/>
		</g>
		<g id="XMLID_2904_">
			<path id="XMLID_2905_" fill="#FFFFFF" d="M21.3,280.6c0,0-0.4-0.3-0.9-0.8c-0.6-0.4-1.2-1.2-2-1.9c-0.6-0.8-1.3-1.5-1.8-2.1
				c-0.2-0.3-0.4-0.6-0.5-0.7c-0.1-0.2-0.2-0.3-0.2-0.3s-0.2-0.5-0.5-1.2s-0.6-1.6-0.9-2.6c-0.2-1-0.5-1.9-0.6-2.6
				c-0.1-0.7-0.2-1.2-0.2-1.2s0.2,0.5,0.4,1.1c0.2,0.7,0.6,1.6,1,2.4c0.5,0.8,0.8,1.7,1.3,2.3c0.4,0.6,0.6,1,0.6,1s0.2,0.5,0.6,1.1
				c0.3,0.7,0.8,1.5,1.3,2.3c0.6,0.8,1.1,1.6,1.6,2.1C21,280.3,21.3,280.6,21.3,280.6z"/>
		</g>
		<g id="XMLID_2902_">
			<path id="XMLID_2903_" fill="#FFFFFF" d="M28.2,267.7c0,0-4-3.8-4-3.9l-2.9-4.6l3.9,3.7C25.3,262.9,28.2,267.7,28.2,267.7z"/>
		</g>
		<g id="XMLID_2900_">
			<path id="XMLID_2901_" fill="#FFFFFF" d="M16.7,238.2c0,0-0.4,0-0.9,0s-1.2-0.1-2-0.1c-0.7-0.1-1.4-0.2-2-0.4
				c-0.3-0.1-0.5-0.1-0.7-0.2c-0.2,0-0.3-0.1-0.3-0.1s-0.3-0.2-0.8-0.5s-1-0.8-1.6-1.2c-0.5-0.5-1.1-1-1.4-1.4
				c-0.4-0.4-0.6-0.7-0.6-0.7s0.3,0.2,0.7,0.5c0.4,0.3,1,0.6,1.6,1c0.6,0.3,1.2,0.6,1.7,0.7c0.5,0.2,0.8,0.3,0.8,0.3
				s0.3,0.2,0.8,0.4c0.5,0.3,1.1,0.5,1.8,0.8c0.7,0.2,1.3,0.5,1.9,0.6C16.3,238.1,16.7,238.2,16.7,238.2z"/>
		</g>
		<g id="XMLID_2898_">
			<path id="XMLID_2899_" fill="#FFFFFF" d="M-62.9,218.3c0,0,0.2-0.1,0.6-0.2c0.4-0.1,1-0.3,1.7-0.5c1.4-0.4,3.3-0.6,5.2-0.8
				c1.9-0.1,3.8,0,5.3,0.2c0.7,0.1,1.3,0.2,1.8,0.3c0.4,0.1,0.7,0.1,0.7,0.1s0.3,0.1,0.7,0.2s1,0.3,1.6,0.6c1.3,0.5,3,1.3,4.7,2.3
				c1.6,1,3.1,2.1,4.2,3.1c0.5,0.4,0.9,0.9,1.2,1.2c0.3,0.3,0.5,0.5,0.5,0.5s-0.2-0.1-0.5-0.4c-0.3-0.2-0.7-0.7-1.3-1
				c-1.1-0.8-2.7-1.8-4.3-2.6c-1.7-0.8-3.4-1.4-4.7-1.8c-0.7-0.2-1.2-0.3-1.6-0.4c-0.4-0.1-0.6-0.1-0.6-0.1s-0.3-0.1-0.7-0.2
				s-1-0.3-1.7-0.4c-1.4-0.3-3.2-0.6-5.1-0.7c-1.9,0-3.8,0.1-5.2,0.3c-0.7,0.1-1.3,0.2-1.7,0.3C-62.7,218.3-62.9,218.3-62.9,218.3z"
				/>
		</g>
		<g id="XMLID_2896_">
			<path id="XMLID_2897_" fill="#FFFFFF" d="M-62.9,219.3c0,0,0.9,0.2,2.3,0.5c1.4,0.3,3.2,0.8,5,1.3c1.8,0.6,3.6,1.1,4.9,1.7
				c0.7,0.3,1.2,0.5,1.6,0.6c0.4,0.1,0.6,0.2,0.6,0.3c0,0,0.9,0.5,2.1,1.1c1.2,0.6,2.8,1.6,4.4,2.6c1.5,1,3.1,2,4.2,2.9
				c1.1,0.8,1.9,1.4,1.9,1.4s-0.8-0.5-2-1.2s-2.8-1.6-4.4-2.4c-1.7-0.8-3.3-1.6-4.6-2.1s-2.1-0.9-2.2-0.9c0,0-0.2-0.1-0.6-0.3
				c-0.4-0.2-0.9-0.4-1.6-0.7c-1.3-0.7-3-1.3-4.7-2.1c-1.8-0.6-3.5-1.4-4.9-1.8C-62,219.5-62.9,219.3-62.9,219.3z"/>
		</g>
		<g id="XMLID_2894_">
			<path id="XMLID_2895_" fill="#FFFFFF" d="M-65.3,221.5c0,0,0.6,0.1,1.6,0.2s2.2,0.4,3.4,0.6c1.2,0.4,2.5,0.7,3.4,1
				c0.5,0.2,0.8,0.3,1.1,0.4s0.4,0.2,0.4,0.2s0.6,0.4,1.4,0.9c0.8,0.5,1.8,1.3,2.8,2.1c0.9,0.9,1.9,1.7,2.5,2.4
				c0.6,0.7,1.1,1.1,1.1,1.1s-0.5-0.4-1.2-1s-1.7-1.3-2.8-2c-1.1-0.6-2.1-1.3-3-1.6c-0.8-0.4-1.4-0.7-1.4-0.7s-0.6-0.3-1.4-0.8
				c-0.8-0.5-2-0.9-3.1-1.5c-1.2-0.4-2.4-0.9-3.3-1C-64.7,221.7-65.3,221.5-65.3,221.5z"/>
		</g>
		<g id="XMLID_2892_">
			<path id="XMLID_2893_" fill="#FFFFFF" d="M-75,200.3c0,0,9.9,2.2,10,2.3c0.1,0,9.4,3.5,9.4,3.5s-9.6-2.2-9.7-2.2
				C-65.4,203.8-75,200.3-75,200.3z"/>
		</g>
		<g id="XMLID_2890_">
			<path id="XMLID_2891_" fill="#FFFFFF" d="M-138.6,180.2c0,0,0.5,0.8,1.2,2c0.2,0.3,0.4,0.6,0.6,0.9c0.2,0.3,0.5,0.6,0.7,1
				c0.5,0.7,1,1.4,1.6,2.1c0.6,0.6,1.2,1.3,1.8,1.9c0.1,0.1,0.3,0.3,0.4,0.4c0.2,0.1,0.3,0.3,0.5,0.4c0.3,0.2,0.6,0.5,0.8,0.7
				c0.5,0.4,0.9,0.8,1.2,1c0.3,0.3,0.5,0.4,0.5,0.4s0.7,0.6,1.7,1.4c0.3,0.2,0.5,0.4,0.8,0.6s0.6,0.4,1,0.6c0.7,0.4,1.4,0.9,2.1,1.3
				c1.5,0.7,3,1.6,4.3,1.9c1.2,0.4,2,0.7,2,0.7s-0.8-0.2-2.1-0.5c-1.3-0.2-2.9-0.9-4.5-1.5c-0.8-0.3-1.6-0.8-2.3-1.1
				c-0.4-0.2-0.7-0.4-1.1-0.5c-0.3-0.2-0.6-0.4-0.9-0.6c-1.1-0.7-1.9-1.2-1.9-1.2s-0.2-0.1-0.5-0.4c-0.3-0.3-0.7-0.7-1.2-1.2
				c-0.2-0.2-0.5-0.5-0.8-0.8c-0.1-0.1-0.3-0.3-0.4-0.4c-0.1-0.2-0.3-0.3-0.4-0.5c-0.5-0.7-1.1-1.4-1.7-2.1c-0.5-0.7-1-1.6-1.5-2.3
				c-0.2-0.4-0.5-0.7-0.6-1.1c-0.2-0.4-0.3-0.7-0.5-1C-138.2,181-138.6,180.2-138.6,180.2z"/>
		</g>
		<g id="XMLID_2888_">
			<path id="XMLID_2889_" fill="#FFFFFF" d="M-139.9,184.1c0,0,1.1,1.9,2.2,3.8c0.6,0.9,1.2,1.8,1.7,2.5c0.2,0.3,0.4,0.6,0.6,0.8
				c0.1,0.2,0.2,0.3,0.2,0.3s1.1,1.9,2.1,3.7c1.2,1.8,2.4,3.5,2.4,3.5s-1.4-1.6-2.9-3.1c-1.3-1.7-2.7-3.4-2.7-3.4s-0.1-0.1-0.2-0.4
				c-0.1-0.2-0.3-0.5-0.4-0.9c-0.4-0.8-0.8-1.8-1.3-2.8C-139.1,186.2-139.9,184.1-139.9,184.1z"/>
		</g>
		<g id="XMLID_2886_">
			<path id="XMLID_2887_" fill="#FFFFFF" d="M-140.3,185c0,0,0.1,0.6,0.2,1.5c0.1,0.9,0.3,2.1,0.5,3.3c0.3,1.2,0.5,2.4,0.8,3.3
				c0.1,0.4,0.2,0.8,0.3,1.1c0.1,0.3,0.1,0.4,0.1,0.4s0.1,0.6,0.3,1.5c0.1,0.9,0.5,2,0.8,3.2c0.4,1.1,0.7,2.3,1,3.1
				c0.3,0.8,0.5,1.4,0.5,1.4s-0.3-0.5-0.7-1.3c-0.5-0.8-0.9-1.9-1.5-2.9c-0.5-1.1-1-2.2-1.2-3.1c-0.3-0.9-0.5-1.5-0.5-1.5
				s0-0.2-0.1-0.5c0-0.3-0.1-0.7-0.2-1.1c-0.2-0.9-0.2-2.2-0.3-3.4c0-1.3-0.1-2.5,0-3.4C-140.3,185.7-140.3,185-140.3,185z"/>
		</g>
		<g id="XMLID_2884_">
			<path id="XMLID_2885_" fill="#FFFFFF" d="M-172.6,189c0,0,0.6,0.3,1.5,0.7s2.1,1,3.3,1.6c1.2,0.7,2.3,1.3,3.2,1.9
				c0.4,0.3,0.8,0.5,1,0.7c0.3,0.2,0.4,0.3,0.4,0.3s0.5,0.5,1.2,1.2s1.6,1.7,2.6,2.6c0.9,1,1.7,2,2.3,2.8c0.6,0.8,1,1.3,1,1.3
				s-0.5-0.5-1.2-1.1c-0.7-0.7-1.7-1.5-2.6-2.4c-1-0.8-2-1.7-2.8-2.2c-0.8-0.6-1.3-1-1.3-1s-0.5-0.5-1.3-1.1
				c-0.8-0.7-1.8-1.5-2.9-2.3c-1.1-0.7-2.2-1.5-3-2C-172,189.4-172.6,189-172.6,189z"/>
		</g>
		<g id="XMLID_2882_">
			<path id="XMLID_2883_" fill="#FFFFFF" d="M-176.6,192.7c0,0,0.6,0.2,1.4,0.6c0.9,0.3,2,1,3.1,1.5c1.1,0.7,2.2,1.3,3,1.9
				c0.4,0.3,0.7,0.5,1,0.7c0.2,0.2,0.4,0.3,0.4,0.3s0.5,0.5,1.1,1.2c0.7,0.7,1.4,1.7,2.2,2.6c0.7,1,1.5,2,1.9,2.8
				c0.5,0.8,0.8,1.3,0.8,1.3s-0.4-0.5-1-1.2c-0.6-0.7-1.4-1.6-2.3-2.5c-0.9-0.8-1.8-1.7-2.5-2.2c-0.7-0.6-1.2-1-1.2-1
				s-0.5-0.4-1.2-1.1s-1.7-1.4-2.6-2.2c-1-0.7-2-1.5-2.8-1.9C-176,193.1-176.6,192.7-176.6,192.7z"/>
		</g>
		<g id="XMLID_2880_">
			<path id="XMLID_2881_" fill="#FFFFFF" d="M-175.8,193.5c0,0,0.2,0.4,0.5,1.1c0.4,0.6,0.7,1.5,1.1,2.4c0.3,0.9,0.7,1.8,0.9,2.5
				c0.1,0.4,0.2,0.7,0.3,0.9c0.1,0.2,0.1,0.3,0.1,0.3s0,0.5,0.1,1.2c0.1,0.7,0,1.7,0,2.6c-0.1,0.9-0.1,1.9-0.2,2.6
				c-0.1,0.7-0.1,1.2-0.1,1.2s0-0.5-0.1-1.2c0-0.7-0.2-1.6-0.3-2.5c-0.2-0.9-0.3-1.8-0.5-2.5c-0.2-0.7-0.3-1.1-0.3-1.1s0-0.1,0-0.3
				c0-0.2-0.1-0.5-0.1-0.9c-0.1-0.7-0.3-1.6-0.4-2.6c-0.2-0.9-0.4-1.9-0.7-2.5C-175.6,194-175.8,193.5-175.8,193.5z"/>
		</g>
		<g id="XMLID_2878_">
			<path id="XMLID_2879_" fill="#FFFFFF" d="M-197.9,188.2c0,0-0.3,0.6-0.9,1.4c-0.6,0.8-1.1,2-1.7,3.2c-0.5,1.2-1,2.4-1.3,3.4
				c-0.1,0.5-0.3,0.9-0.3,1.1c-0.1,0.3-0.1,0.4-0.1,0.5c0,0-0.2,0.6-0.5,1.5c-0.4,0.9-0.6,2.2-0.9,3.4c-0.2,1.3-0.4,2.5-0.4,3.5
				c-0.1,1-0.1,1.6-0.1,1.6s0-0.6-0.1-1.6c-0.1-1,0-2.3,0-3.6c0.2-1.3,0.2-2.6,0.5-3.6c0.2-1,0.3-1.7,0.3-1.7s0.1-0.2,0.2-0.5
				c0.1-0.3,0.3-0.7,0.5-1.1c0.4-1,1.1-2.1,1.7-3.3c0.8-1.1,1.4-2.2,2.1-3C-198.3,188.7-197.9,188.2-197.9,188.2z"/>
		</g>
		<g id="XMLID_2876_">
			<path id="XMLID_2877_" fill="#FFFFFF" d="M-199.7,189.5c0,0-1.3,1.5-2.6,3c-1.2,1.6-2.3,3.1-2.4,3.2c0,0-1.3,1.4-2.6,2.8
				c-1.2,1.5-2.3,3-2.3,3s0.9-1.7,1.8-3.4c1-1.6,2.1-3.3,2.1-3.3s0.1-0.1,0.3-0.3c0.2-0.2,0.4-0.4,0.7-0.6c0.5-0.5,1.3-1.2,2-1.9
				C-201.2,190.8-199.7,189.5-199.7,189.5z"/>
		</g>
		<g id="XMLID_2874_">
			<path id="XMLID_2875_" fill="#FFFFFF" d="M-201.1,186.8c0,0-0.7,0.2-1.9,0.5c-1.1,0.2-2.5,0.8-4,1.3c-1.4,0.7-2.8,1.3-3.7,1.9
				c-1,0.6-1.6,1-1.7,1c0,0-0.7,0.4-1.6,1c-1,0.5-2.1,1.5-3.3,2.4c-1.1,1-2.2,2-2.9,2.9s-1.2,1.5-1.2,1.5s0.4-0.6,1-1.6
				c0.6-1,1.6-2.1,2.6-3.3c1.1-1,2.2-2.2,3.1-2.9c0.9-0.7,1.6-1.2,1.6-1.2s0.7-0.4,1.8-0.9c1-0.6,2.6-1,4-1.5c1.5-0.3,3-0.8,4.2-0.9
				C-201.9,186.9-201.1,186.8-201.1,186.8z"/>
		</g>
		<g id="XMLID_2872_">
			<path id="XMLID_2873_" fill="#FFFFFF" d="M-186.4,201.9c0,0,0,0.2,0,0.4c0,0.3-0.1,0.6,0,1.1c0,0.9,0.1,2.1,0.3,3.2
				c0.2,1.2,0.6,2.3,1,3.1c0.2,0.4,0.3,0.7,0.4,1c0.1,0.2,0.2,0.4,0.2,0.4s0.1,0.1,0.1,0.4c0.1,0.2,0.2,0.6,0.4,0.9
				c0.3,0.8,0.9,1.8,1.5,2.7s1.4,1.8,2,2.4c0.6,0.6,1.1,0.9,1.1,0.9s-0.5-0.3-1.2-0.8c-0.7-0.5-1.6-1.2-2.4-2.1
				c-0.8-0.9-1.5-1.8-2-2.6c-0.3-0.4-0.4-0.7-0.6-0.9c-0.1-0.2-0.2-0.4-0.2-0.4s-0.1-0.2-0.2-0.4c-0.1-0.3-0.2-0.6-0.3-1.1
				c-0.2-0.9-0.5-2.1-0.6-3.4c-0.1-1.2,0-2.5,0.1-3.4c0-0.5,0.2-0.8,0.2-1.1C-186.4,202.1-186.4,201.9-186.4,201.9z"/>
		</g>
		<g id="XMLID_2870_">
			<path id="XMLID_2871_" fill="#FFFFFF" d="M-198.4,205.1c0,0-0.2,0.4-0.4,1.1c-0.3,0.6-0.5,1.5-0.7,2.4c-0.1,0.9-0.3,1.8-0.3,2.4
				c0,0.3,0,0.6-0.1,0.8c0,0.2,0,0.3,0,0.3s-0.1,0.4-0.2,1.1c-0.1,0.6-0.2,1.5-0.2,2.4s0,1.8,0.1,2.4c0.1,0.7,0.1,1.1,0.1,1.1
				s-0.1-0.4-0.3-1c-0.2-0.6-0.4-1.5-0.6-2.4c-0.1-0.9-0.3-1.8-0.2-2.5c0-0.7,0-1.2,0-1.2s0-0.1,0.1-0.3c0.1-0.2,0.1-0.5,0.2-0.8
				c0.1-0.7,0.5-1.6,0.8-2.4c0.4-0.8,0.8-1.7,1.1-2.2C-198.6,205.5-198.4,205.1-198.4,205.1z"/>
		</g>
		<g id="XMLID_2868_">
			<path id="XMLID_2869_" fill="#FFFFFF" d="M-153.5,190.8c0,0,1.6,2.5,3.2,5.1c0.7,1.3,1.5,2.7,2,3.7c0.3,0.5,0.5,0.9,0.7,1.2
				s0.3,0.5,0.3,0.5s1,2.9,1.9,5.7c0.7,2.9,1.5,5.7,1.5,5.7s-1-2.7-2.1-5.5c-1.2-2.7-2.5-5.3-2.5-5.4c0,0-1.2-2.9-2.3-5.7
				C-152.2,193.5-153.5,190.8-153.5,190.8z"/>
		</g>
		<g id="XMLID_2866_">
			<path id="XMLID_2867_" fill="#FFFFFF" d="M-235.7,221.2c0,0-0.2,0.5-0.5,1.2s-0.6,1.7-0.9,2.6c-0.2,1-0.4,2-0.5,2.7
				c0,0.4-0.1,0.7-0.1,0.9c0,0.2,0,0.4,0,0.4s-0.1,0.5-0.2,1.2c-0.2,0.7-0.2,1.7-0.3,2.7c0,1,0,2,0.1,2.7c0.1,0.7,0.1,1.2,0.1,1.2
				s-0.1-0.5-0.3-1.2s-0.4-1.7-0.5-2.7c-0.1-1-0.2-2-0.2-2.8s0-1.3,0-1.3s0-0.1,0.1-0.4c0.1-0.2,0.2-0.6,0.3-0.9
				c0.2-0.8,0.6-1.7,1-2.7c0.5-0.9,0.9-1.9,1.3-2.5C-236,221.7-235.7,221.2-235.7,221.2z"/>
		</g>
		<g id="XMLID_2864_">
			<path id="XMLID_2865_" fill="#FFFFFF" d="M-248.9,216.4c0,0-0.3,0.6-0.9,1.5c-0.6,0.9-1.1,2.2-1.6,3.5c-0.4,1.3-0.9,2.7-1.1,3.7
				c-0.1,0.5-0.2,0.9-0.3,1.3c-0.1,0.3-0.1,0.5-0.1,0.5s-0.2,0.7-0.4,1.7c-0.1,0.2-0.1,0.5-0.2,0.8s-0.1,0.6-0.2,0.9
				c-0.1,0.6-0.2,1.3-0.3,2c-0.1,1.4-0.3,2.7-0.2,3.8c0,1,0,1.7,0,1.7s-0.1-0.7-0.2-1.7c-0.2-1-0.2-2.4-0.3-3.8
				c0-0.7,0.1-1.4,0.1-2.1c0-0.3,0-0.7,0.1-1c0-0.3,0.1-0.6,0.1-0.9c0.2-1.1,0.3-1.8,0.3-1.8s0.1-0.2,0.2-0.5
				c0.1-0.3,0.3-0.7,0.5-1.3c0.3-1.1,1-2.3,1.6-3.6c0.7-1.2,1.4-2.5,2.1-3.3C-249.3,216.9-248.9,216.4-248.9,216.4z"/>
		</g>
		<g id="XMLID_2862_">
			<path id="XMLID_2863_" fill="#FFFFFF" d="M-244.8,225.3c0,0-0.2,0.5-0.6,1.3c-0.4,0.8-0.7,1.9-1.1,2.9c-0.3,1.1-0.6,2.2-0.8,3
				c-0.1,0.4-0.2,0.8-0.2,1c-0.1,0.2-0.1,0.4-0.1,0.4s-0.2,0.5-0.4,1.3c-0.3,0.8-0.5,1.9-0.8,2.9c-0.2,1.1-0.4,2.2-0.5,3
				c-0.1,0.8-0.1,1.4-0.1,1.4s0-0.6-0.1-1.4c-0.1-0.8,0-2,0-3.1c0.1-1.1,0.2-2.3,0.3-3.1c0.1-0.9,0.2-1.4,0.2-1.4s0-0.2,0.1-0.4
				c0.1-0.2,0.2-0.6,0.4-1c0.3-0.8,0.8-1.9,1.3-2.9s1-2,1.5-2.8C-245.1,225.8-244.8,225.3-244.8,225.3z"/>
		</g>
		<g id="XMLID_2860_">
			<path id="XMLID_2861_" fill="#FFFFFF" d="M-227.3,199.4l-8.4,7.6c-0.1,0.1-9,6.3-9,6.3s8.1-7.4,8.2-7.4
				C-236.5,205.9-227.3,199.4-227.3,199.4z"/>
		</g>
		<g id="XMLID_2835_">
			<path id="XMLID_2836_" fill="#FFFFFF" d="M-220.5,186.5c0,0-1.8,1.1-3.6,2.1c-1.7,1.2-3.4,2.5-3.5,2.5c0,0-1.8,1.1-3.5,2.2
				c-1.6,1.2-3.3,2.5-3.3,2.5s1.4-1.5,2.9-3c1.6-1.4,3.2-2.8,3.2-2.8s0.1-0.1,0.3-0.2c0.2-0.1,0.5-0.3,0.9-0.4
				c0.7-0.4,1.7-0.8,2.6-1.3C-222.4,187.2-220.5,186.5-220.5,186.5z"/>
		</g>
		<g id="XMLID_2833_">
			<path id="XMLID_2834_" fill="#FFFFFF" d="M-160.2,174.8c0,0-0.7,0-1.7,0c-0.5,0-1.1,0-1.8,0c-0.7,0.1-1.3,0-2,0.2
				c-0.7,0.1-1.4,0.2-2,0.3c-0.6,0.1-1.2,0.2-1.8,0.4c-0.5,0.1-0.9,0.2-1.2,0.3c-0.3,0.1-0.5,0.1-0.5,0.1s-0.2,0-0.5,0.1
				s-0.7,0.1-1.2,0.2c-1,0.2-2.3,0.5-3.6,0.9c-0.3,0.1-0.7,0.2-1,0.3c-0.3,0.1-0.6,0.2-0.9,0.3c-0.3,0.1-0.6,0.2-0.9,0.3
				c-0.1,0-0.2,0.1-0.4,0.1c-0.1,0-0.3,0-0.2,0.2c0,1,0,1.7,0,1.7s-0.1-0.7-0.2-1.8c-0.1-0.2,0.1-0.2,0.3-0.3
				c0.1-0.1,0.3-0.1,0.4-0.2c0.3-0.1,0.5-0.3,0.8-0.4c0.3-0.1,0.6-0.3,0.9-0.5c0.3-0.1,0.6-0.3,0.9-0.4c1.3-0.6,2.6-1,3.6-1.4
				c0.5-0.2,0.9-0.3,1.2-0.4s0.5-0.1,0.5-0.1s0.2,0,0.5-0.1s0.8-0.1,1.3-0.1s1.2-0.1,1.8-0.1c0.7,0,1.4,0,2.1,0
				c0.7,0,1.4,0.1,2.1,0.1c0.7,0,1.3,0.1,1.8,0.2C-160.9,174.7-160.2,174.8-160.2,174.8z"/>
		</g>
		<g id="XMLID_2831_">
			<path id="XMLID_2832_" fill="#FFFFFF" d="M-2.3,201c0,0-7.8,5.3-7.8,5.4c-0.1,0-8.3,4-8.3,4s7.5-5.2,7.6-5.2
				C-10.7,205.1-2.3,201-2.3,201z"/>
		</g>
		<g id="XMLID_2829_">
			<path id="XMLID_2830_" fill="#FFFFFF" d="M1.9,208.3c0,0-0.4,0-0.9,0c-0.5-0.1-1.2,0-1.9,0.1c-0.7,0.1-1.4,0.2-1.9,0.4
				c-0.2,0.1-0.5,0.1-0.6,0.2c-0.1,0-0.2,0.1-0.2,0.1s-0.3,0.1-0.8,0.1s-1.1,0.3-1.8,0.5c-0.6,0.3-1.3,0.5-1.7,0.8
				c-0.5,0.3-0.8,0.4-0.8,0.4s0.3-0.2,0.6-0.6c0.4-0.4,1-0.8,1.5-1.2c0.6-0.4,1.2-0.8,1.8-1c0.5-0.2,0.9-0.4,0.9-0.4s0.1,0,0.3,0
				c0.2,0,0.4,0,0.7,0c0.6-0.1,1.3,0,2,0c0.7,0.1,1.4,0.2,2,0.4C1.6,208.2,1.9,208.3,1.9,208.3z"/>
		</g>
		<g id="XMLID_2822_">
			<path id="XMLID_2828_" fill="#FFFFFF" d="M19.9,226.2c0,0-0.5-0.4-1.4-1.1c-0.2-0.2-0.4-0.3-0.7-0.5c-0.2-0.2-0.5-0.3-0.8-0.5
				c-0.5-0.3-1.1-0.7-1.7-1.1c-1.2-0.6-2.4-1.2-3.4-1.5c-0.5-0.2-0.9-0.3-1.2-0.4c-0.3-0.1-0.5-0.1-0.5-0.1s-0.6-0.3-1.6-0.6
				c-0.2-0.1-0.5-0.2-0.7-0.3c-0.3-0.1-0.6-0.2-0.9-0.3c-0.6-0.2-1.2-0.4-1.9-0.5c-1.3-0.2-2.6-0.5-3.6-0.6s-1.6-0.1-1.6-0.1
				s0.7,0,1.7-0.1s2.3,0,3.7,0.1c0.7,0.1,1.3,0.2,2,0.3c0.3,0.1,0.6,0.1,0.9,0.1c0.3,0.1,0.6,0.1,0.8,0.2c1,0.3,1.7,0.4,1.7,0.4
				s0.2,0.1,0.5,0.2c0.3,0.1,0.7,0.4,1.2,0.6c1,0.4,2.1,1.3,3.3,2c0.6,0.4,1.1,0.9,1.6,1.3c0.3,0.2,0.5,0.4,0.7,0.6
				c0.2,0.2,0.4,0.4,0.6,0.6C19.4,225.7,19.9,226.2,19.9,226.2z"/>
		</g>
		<g id="XMLID_2820_">
			<path id="XMLID_2821_" fill="#FFFFFF" d="M23.4,229.5c0,0-0.6-0.2-1.6-0.4c-0.9-0.3-2.3-0.4-3.5-0.5c-1.3,0-2.6,0-3.6,0.2
				c-0.5,0.1-0.9,0.1-1.2,0.2c-0.3,0-0.4,0.1-0.5,0.1c0,0-0.6,0.1-1.6,0.2c-0.2,0-0.5,0.1-0.8,0.1s-0.5,0.1-0.8,0.2
				c-0.6,0.2-1.2,0.3-1.8,0.5c-1.2,0.5-2.4,0.9-3.2,1.4c-0.8,0.5-1.4,0.8-1.4,0.8s0.5-0.4,1.3-1c0.7-0.7,1.9-1.2,3.1-1.9
				c0.6-0.3,1.2-0.5,1.8-0.7c0.3-0.1,0.6-0.2,0.8-0.3c0.3-0.1,0.5-0.1,0.8-0.2c1-0.3,1.6-0.4,1.6-0.4s0.2,0,0.5,0s0.7,0,1.2,0
				c1-0.1,2.4,0.2,3.7,0.3c1.3,0.3,2.6,0.6,3.5,1C22.8,229.3,23.4,229.5,23.4,229.5z"/>
		</g>
		<g id="XMLID_2818_">
			<path id="XMLID_2819_" fill="#FFFFFF" d="M23.1,244.4c0,0-0.4,0.3-0.9,0.8s-1.3,1.1-2.2,1.7c-0.8,0.5-1.7,1.1-2.4,1.4
				c-0.3,0.2-0.6,0.3-0.8,0.4c-0.2,0.1-0.3,0.1-0.3,0.2c0,0-0.5,0.1-1.2,0.3c-0.4,0.1-0.8,0.2-1.2,0.2c-0.4,0.1-0.9,0.1-1.4,0.2
				c-1,0-1.9,0.1-2.6,0c-0.7,0-1.2-0.1-1.2-0.1s0.5-0.1,1.2-0.2c0.7-0.1,1.6-0.3,2.5-0.5c0.5-0.1,0.9-0.3,1.3-0.4
				c0.4-0.1,0.8-0.3,1.1-0.4c0.7-0.3,1.1-0.4,1.1-0.5c0,0,0.1,0,0.3-0.1c0.2-0.1,0.5-0.1,0.8-0.3c0.7-0.2,1.6-0.6,2.5-0.9
				c0.9-0.4,1.7-0.8,2.3-1.3C22.7,244.7,23.1,244.4,23.1,244.4z"/>
		</g>
		<g id="XMLID_2816_">
			<path id="XMLID_2817_" fill="#FFFFFF" d="M29.6,251.2c0,0-0.7-0.1-1.6-0.4c-1-0.3-2.3-0.4-3.6-0.5c-1.3,0-2.7-0.1-3.6,0
				c-0.5,0-0.9,0.1-1.2,0.1c-0.3,0-0.5,0-0.5,0s-0.7,0-1.6,0.1c-0.2,0-0.5,0-0.8,0s-0.6,0.1-0.9,0.1c-0.6,0.1-1.2,0.2-1.9,0.3
				c-1.2,0.3-2.5,0.6-3.4,0.9c-0.9,0.3-1.5,0.5-1.5,0.5s0.6-0.3,1.5-0.7c0.9-0.5,2.1-0.9,3.4-1.4c0.6-0.2,1.3-0.4,1.9-0.5
				c0.3-0.1,0.6-0.2,0.9-0.2s0.6-0.1,0.8-0.1c1-0.2,1.7-0.3,1.7-0.3s0.2,0,0.5,0s0.7,0,1.3,0.1c1,0,2.4,0.3,3.7,0.4
				c1.3,0.3,2.7,0.6,3.6,1C28.9,251,29.6,251.2,29.6,251.2z"/>
		</g>
		<g id="XMLID_2814_">
			<path id="XMLID_2815_" fill="#FFFFFF" d="M-13.3,193.6c0,0-0.7-0.1-1.7-0.3c-1-0.2-2.4-0.3-3.8-0.4c-1.4,0.1-2.8,0.1-3.8,0.3
				c-0.5,0.1-0.9,0.1-1.2,0.2c-0.3,0-0.5,0.1-0.5,0.1s-0.7,0.1-1.7,0.2c-0.2,0-0.5,0.1-0.8,0.1s-0.6,0.1-0.9,0.2
				c-0.6,0.1-1.3,0.3-1.9,0.5c-1.3,0.5-2.6,0.8-3.5,1.3c-0.9,0.4-1.5,0.7-1.5,0.7s0.6-0.4,1.4-0.9c0.8-0.6,2.1-1.2,3.3-1.8
				c0.6-0.2,1.3-0.5,1.9-0.7c0.3-0.1,0.6-0.2,0.9-0.3c0.3-0.1,0.6-0.1,0.8-0.2c1-0.3,1.7-0.4,1.7-0.4s0.2,0,0.5,0s0.8,0,1.3,0
				c1.1-0.1,2.5,0.1,3.9,0.2c1.4,0.3,2.8,0.5,3.8,0.8C-13.9,193.4-13.3,193.6-13.3,193.6z"/>
		</g>
		<g id="XMLID_2812_">
			<path id="XMLID_2813_" fill="#FFFFFF" d="M-20.2,190.4c0,0-2.5-0.8-5.1-1.6c-1.3-0.3-2.6-0.6-3.6-0.9c-0.5-0.1-0.9-0.2-1.2-0.3
				c-0.3-0.1-0.5-0.1-0.5-0.1s-2.5-0.8-5-1.6c-2.5-0.7-5-1.3-5-1.3s2.6,0.3,5.1,0.7c2.6,0.5,5.1,1,5.2,1c0,0,0.2,0.1,0.5,0.2
				s0.7,0.3,1.2,0.5c0.9,0.4,2.2,0.9,3.5,1.4C-22.6,189.3-20.2,190.4-20.2,190.4z"/>
		</g>
		<g id="XMLID_2810_">
			<path id="XMLID_2811_" fill="#FFFFFF" d="M-27.7,188.7c0,0-0.9-0.6-2.3-1.6c-0.3-0.2-0.7-0.5-1.1-0.8c-0.4-0.3-0.8-0.5-1.3-0.7
				c-0.9-0.5-1.9-1-2.8-1.5c-2-0.9-4-1.8-5.6-2.2c-0.8-0.2-1.4-0.5-1.9-0.6c-0.5-0.2-0.7-0.2-0.8-0.2c0,0-1.1-0.3-2.6-0.8
				c-0.4-0.1-0.8-0.2-1.2-0.4c-0.4-0.1-0.9-0.2-1.4-0.3c-1-0.2-2-0.4-3.1-0.6c-2.1-0.2-4.2-0.5-5.8-0.4c-1.6,0-2.7,0-2.7,0
				s1.1-0.1,2.6-0.2c1.6-0.2,3.7-0.1,5.9-0.1c1.1,0.1,2.1,0.2,3.1,0.3c0.5,0.1,1,0.1,1.5,0.2s0.9,0.2,1.3,0.3
				c1.6,0.3,2.7,0.6,2.7,0.6s0.3,0.1,0.8,0.3c0.5,0.2,1.1,0.5,1.9,0.8c1.6,0.6,3.6,1.6,5.5,2.7c1,0.6,1.9,1.2,2.8,1.8
				c0.4,0.3,0.9,0.5,1.2,0.8c0.4,0.3,0.7,0.6,1.1,0.9C-28.5,188-27.7,188.7-27.7,188.7z"/>
		</g>
		<g id="XMLID_2808_">
			<path id="XMLID_2809_" fill="#FFFFFF" d="M-75.4,151.5c0,0,1.4,2.3,2.8,4.7c0.6,1.2,1.3,2.5,1.8,3.4c0.2,0.5,0.4,0.9,0.6,1.1
				c0.1,0.3,0.2,0.4,0.2,0.5c0,0,0.8,2.6,1.6,5.2c0.6,2.6,1.3,5.2,1.3,5.2s-1-2.5-1.9-5c-1.1-2.4-2.2-4.9-2.2-4.9s-1-2.6-1.9-5.2
				C-74.3,154-75.4,151.5-75.4,151.5z"/>
		</g>
		<g id="XMLID_2806_">
			<path id="XMLID_2807_" fill="#FFFFFF" d="M-78.7,150.8c0,0,0.1,0.1,0.3,0.4c0.2,0.2,0.5,0.5,0.8,1c0.7,0.8,1.4,2,2,3.3
				s1.1,2.7,1.3,3.8c0.2,0.5,0.2,1,0.3,1.3c0.1,0.3,0.1,0.5,0.1,0.5s0,0.2,0,0.5c0,0.3,0,0.8,0,1.3c0,1.1-0.2,2.5-0.6,3.9
				c-0.3,1.4-0.9,2.7-1.3,3.6c-0.2,0.5-0.4,0.8-0.6,1.1c-0.1,0.3-0.2,0.4-0.2,0.4s0.1-0.2,0.2-0.4c0.1-0.3,0.3-0.7,0.4-1.2
				c0.3-1,0.7-2.3,0.8-3.7s0.2-2.7,0.1-3.7c0-0.5-0.1-0.9-0.1-1.2c0-0.3-0.1-0.5-0.1-0.5s0-0.2,0-0.5c0-0.3,0-0.8-0.1-1.3
				c-0.1-1-0.4-2.4-0.9-3.7c-0.5-1.3-1.1-2.6-1.6-3.5c-0.2-0.5-0.5-0.8-0.7-1.1C-78.6,151-78.7,150.8-78.7,150.8z"/>
		</g>
		<g id="XMLID_2804_">
			<path id="XMLID_2805_" fill="#FFFFFF" d="M-84.4,150.5c0,0,0.1,0.1,0.3,0.4s0.5,0.6,0.7,1c0.6,0.9,1.2,2.2,1.7,3.5
				c0.4,1.4,0.7,2.8,0.9,3.9c0.1,0.5,0.1,1,0.1,1.3c0,0.3,0,0.5,0,0.5s0,0.2-0.1,0.5c0,0.3-0.1,0.8-0.2,1.3
				c-0.2,1.1-0.6,2.4-1.1,3.7c-0.6,1.3-1.3,2.4-1.9,3.3c-0.3,0.4-0.6,0.7-0.8,1c-0.2,0.2-0.3,0.4-0.3,0.4s0.1-0.1,0.2-0.4
				c0.1-0.3,0.4-0.6,0.6-1c0.5-0.9,1-2.1,1.4-3.4s0.6-2.6,0.7-3.6c0.1-0.5,0-0.9,0.1-1.2c0-0.3,0-0.5,0-0.5s0-0.2,0-0.5
				s0.1-0.7,0.1-1.2c0-1-0.1-2.4-0.4-3.8c-0.3-1.3-0.8-2.7-1.2-3.6c-0.2-0.5-0.4-0.8-0.6-1.1C-84.3,150.6-84.4,150.5-84.4,150.5z"/>
		</g>
		<g id="XMLID_2802_">
			<path id="XMLID_2803_" fill="#FFFFFF" d="M-138.1,144.2c0,0,0.3,0,0.8-0.1c0.2,0,0.5-0.1,0.9-0.1c0.3,0,0.7,0,1.2,0.1
				c1.7,0.2,3.8,1.1,5.8,2.4c1.9,1.2,3.8,2.6,5.2,3.6c0.7,0.5,1.3,0.9,1.7,1.2c0.4,0.3,0.7,0.5,0.7,0.5s0.9,0.8,2.2,1.9
				s2.9,2.7,4.5,4.2s3.2,3.2,4.3,4.4c1.2,1.2,1.9,2,1.9,2s-0.8-0.7-2.1-1.9c-1.2-1.1-2.9-2.6-4.6-4c-1.7-1.4-3.4-2.9-4.8-3.9
				c-1.3-1-2.2-1.7-2.3-1.7c0,0-0.2-0.2-0.6-0.6c-0.4-0.4-0.9-0.8-1.6-1.3c-1.4-1.1-3.1-2.6-4.9-4c-1.8-1.3-3.8-2.4-5.5-2.7
				c-0.4-0.1-0.8-0.1-1.1-0.1c-0.3-0.1-0.6,0-0.9,0C-137.8,144.2-138.1,144.2-138.1,144.2z"/>
		</g>
		<g id="XMLID_2800_">
			<path id="XMLID_2801_" fill="#FFFFFF" d="M-138.7,145.7c0,0,0.2-0.1,0.5-0.2c0.3-0.1,0.9-0.2,1.5-0.2c1.3,0,2.9,0.5,4.4,1.5
				c0.7,0.5,1.4,1,2,1.5s1.1,1.1,1.6,1.5c0.9,0.9,1.6,1.5,1.6,1.5s0.1,0.2,0.4,0.5c0.2,0.3,0.5,0.7,0.9,1.3c0.4,0.5,0.8,1.1,1.3,1.7
				c0.4,0.7,0.8,1.4,1.3,2.1c0.4,0.7,0.9,1.4,1.2,2.1c0.3,0.7,0.6,1.4,0.9,1.9c0.5,1.1,0.9,1.9,0.9,1.9s-0.4-0.7-1.1-1.8
				c-0.3-0.5-0.7-1.2-1.1-1.8c-0.4-0.6-0.9-1.3-1.4-2s-0.9-1.3-1.4-1.9c-0.5-0.6-1-1.1-1.4-1.6s-0.7-0.8-1-1.1
				c-0.2-0.3-0.4-0.4-0.4-0.4s-0.6-0.7-1.4-1.6c-0.4-0.5-0.9-1-1.4-1.6s-1.1-1.1-1.8-1.6c-1.3-1-2.8-1.7-4-1.8
				c-0.6-0.1-1.1,0-1.5,0.1C-138.5,145.7-138.7,145.7-138.7,145.7z"/>
		</g>
		<g id="XMLID_2798_">
			<path id="XMLID_2799_" fill="#FFFFFF" d="M-141.2,143.9c0,0,0.5,0.6,1.3,1.5c0.8,0.8,1.7,2.2,2.6,3.5c0.8,1.4,1.7,2.8,2.1,3.9
				c0.3,0.6,0.5,1,0.6,1.4c0.1,0.3,0.2,0.5,0.2,0.5s0.2,0.8,0.4,2c0.1,0.3,0.1,0.6,0.2,0.9c0.1,0.3,0.1,0.7,0.1,1.1
				c0.1,0.7,0.2,1.5,0.3,2.3c0,1.6,0.1,3.1-0.1,4.3c-0.1,1.2-0.2,1.9-0.2,1.9s0-0.8,0-1.9c0-1.2-0.2-2.7-0.4-4.2
				c-0.2-0.7-0.3-1.5-0.5-2.2c-0.1-0.3-0.1-0.7-0.2-1c-0.1-0.3-0.2-0.6-0.3-0.9c-0.4-1.1-0.6-1.8-0.6-1.9c0,0-0.1-0.2-0.2-0.5
				c-0.1-0.3-0.3-0.8-0.4-1.4c-0.3-1.2-1-2.6-1.6-4c-0.8-1.3-1.5-2.8-2.2-3.7C-140.7,144.5-141.2,143.9-141.2,143.9z"/>
		</g>
		<g id="XMLID_2796_">
			<path id="XMLID_2797_" fill="#FFFFFF" d="M-162.6,153.7c0,0,0.2,0,0.4-0.1c0.3-0.1,0.7-0.2,1.1-0.2c1-0.2,2.3-0.3,3.6-0.3
				c1.3,0.1,2.6,0.2,3.6,0.4c0.5,0.1,0.9,0.2,1.2,0.3c0.3,0.1,0.5,0.1,0.5,0.1s0.2,0.1,0.4,0.2c0.3,0.1,0.6,0.3,1.1,0.6
				c0.9,0.5,1.9,1.2,3,2c1,0.9,1.9,1.8,2.5,2.6c0.3,0.4,0.5,0.7,0.7,1c0.2,0.2,0.3,0.4,0.3,0.4s-0.1-0.1-0.3-0.3s-0.4-0.5-0.8-0.8
				c-0.7-0.7-1.7-1.5-2.7-2.2c-1.1-0.7-2.2-1.2-3-1.5c-0.4-0.2-0.8-0.3-1.1-0.4c-0.3-0.1-0.4-0.1-0.4-0.1s-0.2-0.1-0.4-0.2
				c-0.3-0.1-0.6-0.3-1.1-0.4c-0.9-0.3-2.1-0.7-3.4-0.9c-1.3-0.2-2.5-0.3-3.5-0.2c-0.5,0-0.9,0.1-1.2,0.1
				C-162.4,153.7-162.6,153.7-162.6,153.7z"/>
		</g>
		<g id="XMLID_2794_">
			<path id="XMLID_2795_" fill="#FFFFFF" d="M-173.9,159c0,0,2.6,0.5,5.2,1.1c1.3,0.2,2.6,0.4,3.6,0.5c0.5,0.1,0.9,0.1,1.2,0.2
				c0.3,0,0.5,0.1,0.5,0.1s2.6,0.5,5.1,1c2.6,0.3,5.1,0.7,5.1,0.7s-2.6,0-5.2,0c-2.6-0.2-5.2-0.3-5.2-0.3s-0.2,0-0.5-0.1
				s-0.7-0.2-1.2-0.3c-1-0.3-2.3-0.6-3.6-1C-171.4,159.9-173.9,159-173.9,159z"/>
		</g>
		<g id="XMLID_2792_">
			<path id="XMLID_2793_" fill="#FFFFFF" d="M-186.4,163.7c0,0,2.6-1.9,5.2-3.8c1.4-0.8,2.7-1.7,3.8-2.3c0.5-0.3,1-0.6,1.3-0.8
				c0.3-0.2,0.5-0.3,0.5-0.3s3-1.2,5.9-2.3c2.9-0.9,5.9-1.8,5.9-1.8s-2.8,1.2-5.6,2.5c-2.7,1.4-5.5,2.9-5.5,2.9s-0.2,0.1-0.5,0.2
				c-0.3,0.2-0.8,0.4-1.3,0.6c-1.1,0.5-2.5,1.2-4,1.9C-183.6,162.1-186.4,163.7-186.4,163.7z"/>
		</g>
		<g id="XMLID_2790_">
			<path id="XMLID_2791_" fill="#FFFFFF" d="M-197,165.3c0,0,3.6,0.2,7.3,0.5c1.8,0,3.7,0,5.1,0.1c0.7,0,1.3,0,1.7,0s0.7,0,0.7,0
				c0.1,0,3.6,0.2,7.2,0.4c3.6,0,7.1,0.1,7.1,0.1s-3.5,0.3-7.1,0.6c-3.6,0.1-7.2,0.3-7.2,0.3s-0.3,0-0.7-0.1c-0.4,0-1-0.1-1.7-0.2
				c-1.4-0.1-3.2-0.3-5.1-0.5C-193.4,165.9-197,165.3-197,165.3z"/>
		</g>
		<g id="XMLID_2788_">
			<path id="XMLID_2789_" fill="#FFFFFF" d="M-198.4,181c0,0,0.3-0.4,0.8-1c0.4-0.6,1.1-1.4,1.8-2.2c0.7-0.7,1.4-1.5,2-2
				c0.3-0.3,0.5-0.5,0.7-0.6c0.2-0.2,0.3-0.2,0.3-0.2s0.5-0.2,1.1-0.6c0.7-0.4,1.6-0.7,2.5-1.1c0.9-0.3,1.8-0.7,2.5-0.9
				c0.7-0.2,1.2-0.3,1.2-0.3s-0.4,0.2-1.1,0.5c-0.7,0.3-1.5,0.8-2.3,1.3c-0.8,0.5-1.6,1-2.2,1.5c-0.6,0.4-1,0.8-1,0.8
				s-0.1,0.1-0.3,0.2c-0.2,0.1-0.5,0.3-0.8,0.5c-0.6,0.4-1.4,1-2.2,1.6c-0.8,0.6-1.6,1.3-2.1,1.8C-198,180.7-198.4,181-198.4,181z"
				/>
		</g>
		<g id="XMLID_2786_">
			<path id="XMLID_2787_" fill="#FFFFFF" d="M-214,181.9c0,0,1.6-1.4,3.2-2.9c0.9-0.6,1.8-1.3,2.4-1.8c0.3-0.2,0.6-0.4,0.8-0.6
				c0.2-0.2,0.3-0.2,0.3-0.2s0.5-0.2,1.3-0.5c0.7-0.3,1.7-0.7,2.7-1c2-0.6,4-1.1,4-1.1s-1.9,0.9-3.7,1.8c-1.8,1.1-3.6,2.1-3.6,2.1
				s-0.1,0-0.3,0.2c-0.2,0.1-0.5,0.3-0.9,0.4c-0.7,0.4-1.7,0.8-2.6,1.3C-212.2,180.8-214,181.9-214,181.9z"/>
		</g>
		<g id="XMLID_2784_">
			<path id="XMLID_2785_" fill="#FFFFFF" d="M-85.3,210.7c0,0-2.7-2.2-5.4-4.5c-1.4-1-2.8-2-3.9-2.8c-0.5-0.4-1-0.7-1.3-0.9
				c-0.3-0.2-0.5-0.3-0.5-0.4c0,0-2.7-2.1-5.4-4.2c-2.8-1.9-5.6-3.8-5.6-3.8s3,1.6,5.9,3.2c2.9,1.8,5.8,3.6,5.8,3.7
				c0,0,0.2,0.1,0.5,0.4c0.3,0.3,0.7,0.6,1.2,1.1c1,0.9,2.3,2.1,3.6,3.2C-87.8,208.3-85.3,210.7-85.3,210.7z"/>
		</g>
		<g id="XMLID_2782_">
			<path id="XMLID_2783_" fill="#FFFFFF" d="M-78.9,197.4c0,0-0.1-0.2-0.3-0.5s-0.5-0.8-0.9-1.3c-0.7-1-1.9-2.2-3.2-3.3
				c-1.3-1.1-2.7-1.9-3.8-2.4c-0.6-0.2-1-0.5-1.4-0.6c-0.3-0.1-0.5-0.2-0.5-0.2s-0.2-0.1-0.5-0.2c-0.3-0.2-0.8-0.4-1.3-0.6
				c-1.1-0.5-2.6-0.9-4.2-1.2c-1.6-0.3-3.1-0.3-4.3-0.3c-0.6,0-1.1,0.1-1.4,0.1c-0.3,0-0.5,0.1-0.5,0.1s0.2,0,0.5-0.1
				s0.8-0.2,1.4-0.3c1.2-0.2,2.8-0.3,4.4-0.2c1.6,0.1,3.2,0.4,4.4,0.7c0.6,0.2,1.1,0.3,1.4,0.4c0.4,0.1,0.6,0.2,0.6,0.2
				s0.2,0.1,0.6,0.3c0.3,0.2,0.8,0.5,1.4,0.8c1.1,0.7,2.5,1.7,3.7,2.9c1.2,1.2,2.3,2.6,2.9,3.7c0.4,0.5,0.6,1,0.7,1.4
				C-78.9,197.2-78.9,197.4-78.9,197.4z"/>
		</g>
		<g id="XMLID_2780_">
			<path id="XMLID_2781_" fill="#FFFFFF" d="M-73.6,188.6c0,0-0.5-0.3-1.3-0.8c-0.7-0.5-1.8-1-2.9-1.6c-1.1-0.5-2.2-1-3-1.2
				c-0.4-0.1-0.8-0.3-1-0.3c-0.2-0.1-0.4-0.1-0.4-0.1s-0.6-0.2-1.4-0.5c-0.4-0.2-0.9-0.3-1.4-0.5c-0.5-0.2-1.1-0.3-1.6-0.5
				c-1.1-0.2-2.2-0.5-3.1-0.6c-0.9-0.1-1.4-0.2-1.4-0.2s0.6,0,1.4,0c0.9-0.1,2,0,3.2,0.1c0.6,0.1,1.2,0.2,1.7,0.2
				c0.6,0.1,1.1,0.2,1.5,0.3c0.9,0.2,1.5,0.4,1.5,0.4s0.2,0.1,0.4,0.2s0.6,0.3,1,0.5c0.8,0.4,1.9,1,2.9,1.7s2,1.4,2.7,2
				C-74.1,188.2-73.6,188.6-73.6,188.6z"/>
		</g>
		<g id="XMLID_2778_">
			<path id="XMLID_2779_" fill="#FFFFFF" d="M-55.4,200.4c0,0-0.4-0.6-1-1.5c-0.5-0.9-1.4-2-2.2-3.2c-0.9-1.1-1.8-2.2-2.5-2.9
				c-0.4-0.4-0.7-0.7-0.9-0.9s-0.3-0.4-0.4-0.4c0,0-0.4-0.6-1.1-1.4c-0.6-0.8-1.6-1.8-2.5-2.8c-1-1-1.9-1.9-2.7-2.6
				c-0.8-0.7-1.3-1.1-1.3-1.1s0.6,0.4,1.4,1c0.8,0.6,1.9,1.4,3,2.3c1,0.9,2.1,1.8,2.8,2.5s1.2,1.2,1.3,1.2c0,0,0.1,0.2,0.3,0.4
				c0.2,0.3,0.5,0.6,0.8,1.1c0.7,0.9,1.4,2.1,2.2,3.3c0.7,1.3,1.4,2.5,1.9,3.5C-55.7,199.7-55.4,200.4-55.4,200.4z"/>
		</g>
		<g id="XMLID_2776_">
			<path id="XMLID_2777_" fill="#FFFFFF" d="M-40.9,198c0,0-0.1,0-0.3,0.1c-0.2,0-0.5,0.1-0.9,0.1c-0.8,0.1-1.8,0.1-2.8,0
				c-1-0.1-2-0.4-2.8-0.6c-0.4-0.1-0.7-0.3-0.9-0.3c-0.2-0.1-0.4-0.1-0.4-0.1s-0.1-0.1-0.3-0.2s-0.5-0.3-0.8-0.6
				c-0.6-0.5-1.4-1.2-2-2c-0.6-0.8-1.2-1.7-1.5-2.4c-0.2-0.3-0.3-0.6-0.4-0.8c-0.1-0.2-0.1-0.3-0.1-0.3s0.1,0.1,0.2,0.3
				c0.1,0.2,0.3,0.5,0.5,0.8c0.4,0.6,1.1,1.3,1.8,2c0.7,0.6,1.5,1.2,2.2,1.5c0.3,0.2,0.6,0.3,0.8,0.4c0.2,0.1,0.3,0.1,0.3,0.1
				s0.1,0.1,0.3,0.2s0.4,0.3,0.8,0.4c0.6,0.4,1.6,0.7,2.5,1c0.9,0.3,1.9,0.4,2.7,0.5c0.4,0,0.7,0,0.9,0C-41,198-40.9,198-40.9,198z"
				/>
		</g>
		<g id="XMLID_2774_">
			<path id="XMLID_2775_" fill="#FFFFFF" d="M-95.7,182.1c0,0-2.7,0.3-5.4,0.6c-2.7,0.4-5.3,0.8-5.4,0.8c0,0-2.7,0.2-5.3,0.3
				c-2.6,0.3-5.2,0.5-5.2,0.5s2.6-0.6,5.1-1.2c2.6-0.5,5.2-1,5.2-1s0.2,0,0.5,0s0.7,0,1.2,0c1,0,2.4-0.1,3.7-0.1
				C-98.4,182-95.7,182.1-95.7,182.1z"/>
		</g>
		<g id="XMLID_2772_">
			<path id="XMLID_2773_" fill="#FFFFFF" d="M-95.3,175.4c0,0-0.8-0.3-2.1-0.7c-0.3-0.1-0.7-0.2-1-0.4c-0.4-0.1-0.8-0.2-1.2-0.3
				c-0.8-0.2-1.7-0.4-2.5-0.6c-1.8-0.2-3.5-0.4-4.8-0.3c-1.3,0-2.2,0-2.2,0s-0.9,0-2.2,0c-0.3,0-0.7,0-1,0c-0.4,0-0.7,0.1-1.1,0.1
				c-0.8,0.1-1.6,0.2-2.5,0.3c-1.6,0.4-3.4,0.8-4.5,1.3c-1.2,0.5-2,0.8-2,0.8s0.8-0.4,1.9-1c1.1-0.7,2.8-1.2,4.5-1.8
				c0.8-0.2,1.7-0.4,2.5-0.6c0.4-0.1,0.8-0.2,1.2-0.3c0.4,0,0.7-0.1,1.1-0.1c1.3-0.2,2.2-0.3,2.2-0.3s1,0.1,2.3,0.2
				c1.4,0,3.1,0.5,4.9,0.8c0.9,0.3,1.7,0.6,2.5,0.8c0.4,0.1,0.8,0.2,1.1,0.4c0.4,0.2,0.7,0.3,1,0.5C-96.1,175-95.3,175.4-95.3,175.4
				z"/>
		</g>
		<g id="XMLID_2770_">
			<path id="XMLID_2771_" fill="#FFFFFF" d="M-114.1,177.5c0,0-0.8,0.3-1.9,0.8c-1.1,0.5-2.8,0.9-4.4,1.3c-1.6,0.3-3.3,0.6-4.6,0.6
				c-0.6,0-1.2,0.1-1.5,0.1c-0.4,0-0.6,0-0.6,0s-0.8-0.1-2.1-0.3c-0.3,0-0.6-0.1-1-0.1c-0.3-0.1-0.7-0.2-1.1-0.3
				c-0.7-0.2-1.5-0.4-2.3-0.6c-1.5-0.6-3.1-1-4.1-1.6c-1.1-0.5-1.8-0.9-1.8-0.9s0.8,0.3,1.9,0.7c1.1,0.5,2.7,0.8,4.2,1.1
				c0.8,0.1,1.6,0.2,2.3,0.3c0.4,0,0.7,0.1,1.1,0.1c0.3,0,0.7,0,1,0c1.2,0,2,0.1,2,0.1s0.2,0,0.6,0c0.4,0,0.9,0,1.5,0.1
				c1.2,0.1,2.8-0.1,4.5-0.1c1.6-0.3,3.2-0.5,4.4-0.8C-114.9,177.7-114.1,177.5-114.1,177.5z"/>
		</g>
		<g id="XMLID_2768_">
			<path id="XMLID_2769_" fill="#FFFFFF" d="M-146.9,193.6c0,0-0.2-0.5-0.5-1.3c-0.1-0.2-0.2-0.4-0.2-0.6c-0.1-0.2-0.2-0.4-0.3-0.6
				c-0.3-0.4-0.5-0.9-0.8-1.4c-0.6-0.9-1.2-1.7-1.8-2.3c-0.5-0.6-0.9-1-0.9-1s-0.3-0.4-0.8-1c-0.2-0.3-0.6-0.6-0.9-0.9
				c-0.4-0.3-0.7-0.7-1.1-1c-0.8-0.6-1.6-1.2-2.3-1.6s-1.1-0.6-1.1-0.6s0.5,0.2,1.2,0.4c0.7,0.2,1.6,0.7,2.6,1.2
				c0.5,0.3,0.9,0.6,1.3,0.8c0.4,0.3,0.8,0.5,1.1,0.8c0.6,0.5,1,0.9,1,0.9s0.1,0.1,0.3,0.3c0.1,0.2,0.3,0.5,0.6,0.9
				c0.5,0.7,1,1.7,1.5,2.7c0.2,0.5,0.4,1,0.6,1.5c0.1,0.2,0.2,0.5,0.3,0.7s0.1,0.4,0.2,0.7C-147,193-146.9,193.6-146.9,193.6z"/>
		</g>
		<g id="XMLID_2766_">
			<path id="XMLID_2767_" fill="#FFFFFF" d="M-151,176.1c0,0-0.6,0.4-1.4,0.9c-0.2,0.1-0.4,0.3-0.7,0.4c-0.2,0.1-0.5,0.3-0.8,0.4
				c-0.5,0.3-1.1,0.6-1.7,0.9c-0.6,0.3-1.2,0.5-1.8,0.8c-0.6,0.2-1.1,0.4-1.6,0.6s-0.9,0.3-1.2,0.4c-0.3,0.1-0.5,0.1-0.5,0.1
				s-0.5,0.1-1.2,0.2s-1.7,0.1-2.8,0.2c-1,0-2.1,0-3-0.1c-0.9-0.1-1.6-0.2-1.9-0.2v-0.1c1.2,0,1.4,0,1.4,0s-0.2,0-1.4,0.1
				c0,0,0,0,0-0.1c0.3,0,1-0.1,1.8-0.1c0.9,0,1.9-0.2,2.9-0.3c1-0.2,1.9-0.4,2.6-0.6c0.7-0.2,1.2-0.3,1.2-0.3s0.2,0,0.5-0.1
				c0.3,0,0.7-0.1,1.2-0.2c0.5-0.1,1-0.2,1.6-0.4s1.2-0.4,1.8-0.5c0.6-0.2,1.2-0.4,1.8-0.7c0.3-0.1,0.6-0.2,0.8-0.3
				c0.3-0.1,0.5-0.2,0.7-0.3C-151.6,176.4-151,176.1-151,176.1z"/>
		</g>
		<g id="XMLID_2763_">
			<path id="XMLID_2764_" fill="#FFFFFF" d="M-36.3,209.1c0,0-0.6,0-1.4-0.1c-0.9,0-2-0.2-3.2-0.4c-1.1-0.4-2.3-0.6-3.1-1
				c-0.8-0.4-1.4-0.6-1.4-0.6s-0.5-0.4-1.2-1c-0.7-0.5-1.5-1.4-2.3-2.3c-0.7-1-1.4-1.9-1.8-2.7c-0.4-0.8-0.7-1.3-0.7-1.3
				s0.3,0.5,0.9,1.2c0.5,0.7,1.3,1.5,2.1,2.3c0.9,0.7,1.7,1.4,2.5,1.8c0.7,0.4,1.2,0.7,1.2,0.7s0.5,0.3,1.2,0.8
				c0.7,0.5,1.8,0.9,2.8,1.4c1.1,0.3,2.2,0.8,3,0.9C-36.8,209-36.3,209.1-36.3,209.1z"/>
		</g>
		<g id="XMLID_2761_">
			<path id="XMLID_2762_" fill="#FFFFFF" d="M-15.6,208.7c0,0-0.5,0.2-1.3,0.4c-0.8,0.2-1.8,0.6-2.8,1c-0.9,0.5-1.9,1-2.6,1.5
				s-1.1,0.8-1.1,0.8s-0.5,0.3-1.1,0.7c-0.7,0.4-1.5,1-2.4,1.6c-0.8,0.7-1.6,1.4-2.1,2s-0.9,1-0.9,1s0.3-0.5,0.7-1.1
				c0.4-0.7,1.1-1.5,1.8-2.4c0.8-0.8,1.5-1.6,2.2-2.1c0.6-0.5,1.1-0.9,1.1-0.9s0.5-0.2,1.3-0.6c0.7-0.4,1.8-0.7,2.9-1.1
				c1.1-0.2,2.1-0.5,2.9-0.6C-16.1,208.8-15.6,208.7-15.6,208.7z"/>
		</g>
		<g id="XMLID_2759_">
			<path id="XMLID_2760_" fill="#FFFFFF" d="M-19.4,210.9c0,0-0.3,0.2-0.7,0.5c-0.4,0.2-0.9,0.7-1.4,1.2c-0.2,0.2-0.4,0.5-0.6,0.8
				c-0.2,0.2-0.3,0.5-0.4,0.7c-0.2,0.4-0.4,0.7-0.4,0.7s0,0.1-0.1,0.2s-0.2,0.3-0.3,0.5c-0.3,0.4-0.5,1-0.8,1.5
				c-0.1,0.6-0.4,1.2-0.3,1.7c0,0.5,0,0.8,0,0.8s-0.1-0.3-0.2-0.8s-0.1-1.2-0.1-1.9c0.1-0.7,0.2-1.4,0.4-1.9
				c0.1-0.3,0.2-0.5,0.2-0.6c0.1-0.2,0.1-0.2,0.1-0.2s0.3-0.3,0.6-0.7c0.2-0.2,0.4-0.4,0.7-0.6c0.3-0.2,0.5-0.4,0.8-0.6
				c0.6-0.3,1.2-0.7,1.7-0.8C-19.8,211-19.4,210.9-19.4,210.9z"/>
		</g>
		<g id="XMLID_2757_">
			<path id="XMLID_2758_" fill="#FFFFFF" d="M-14,214.4c0,0-0.1,0.1-0.4,0.2c-0.3,0.2-0.6,0.3-1,0.6c-0.8,0.6-1.9,1.4-2.8,2.4
				s-1.6,2.2-2,3.1c-0.2,0.4-0.3,0.9-0.5,1.1c-0.1,0.3-0.2,0.4-0.2,0.5c0,0-0.1,0.2-0.2,0.4c-0.1,0.3-0.3,0.6-0.4,1.1
				c-0.3,0.9-0.5,2.2-0.5,3.6c0,1.3,0.3,2.7,0.6,3.6c0.1,0.5,0.3,0.9,0.4,1.1c0.1,0.3,0.2,0.4,0.2,0.4s-0.1-0.1-0.2-0.4
				c-0.1-0.3-0.4-0.6-0.6-1.1c-0.4-0.9-0.8-2.3-1-3.6c-0.2-1.4-0.1-2.8,0.1-3.9c0.1-0.5,0.2-1,0.3-1.3c0.1-0.3,0.1-0.5,0.1-0.5
				s0.1-0.2,0.2-0.5c0.2-0.3,0.3-0.7,0.6-1.2c0.5-1,1.5-2.1,2.5-3s2.2-1.7,3.1-2.1c0.4-0.2,0.9-0.4,1.1-0.5
				C-14.1,214.4-14,214.4-14,214.4z"/>
		</g>
		<g id="XMLID_2755_">
			<path id="XMLID_2756_" fill="#FFFFFF" d="M-4.1,247.2c0,0-0.5-0.2-1.1-0.4c-0.7-0.3-1.6-0.5-2.5-0.7c-0.9-0.1-1.9-0.3-2.6-0.3
				c-0.4,0-0.6,0-0.9,0c-0.2,0-0.3,0-0.3,0s-0.5-0.1-1.2-0.2c-0.3-0.1-0.7-0.1-1.2-0.1c-0.4,0-0.9-0.1-1.3-0.1c-0.9,0-1.8,0-2.5,0.2
				c-0.7,0.1-1.2,0.2-1.2,0.2s0.4-0.1,1.1-0.4c0.7-0.3,1.6-0.4,2.5-0.7c0.5-0.1,0.9-0.1,1.4-0.2c0.4-0.1,0.9-0.1,1.2-0.1
				c0.7,0,1.2,0,1.2,0s0.1,0,0.4,0.1c0.2,0.1,0.5,0.1,0.9,0.2c0.7,0.1,1.7,0.5,2.6,0.8c0.9,0.4,1.8,0.8,2.4,1.2
				C-4.5,246.9-4.1,247.2-4.1,247.2z"/>
		</g>
		<g id="XMLID_2753_">
			<path id="XMLID_2754_" fill="#FFFFFF" d="M2.5,253.7c0,0-0.1-0.1-0.3-0.2c-0.2-0.1-0.5-0.3-0.8-0.5c-0.7-0.4-1.6-0.7-2.6-1
				c-1-0.2-2-0.3-2.7-0.3c-0.4,0-0.7,0-0.9,0c-0.2,0-0.4,0-0.4,0s-0.1,0-0.3,0c-0.2,0-0.5,0-0.9,0c-0.7,0-1.7,0.1-2.7,0.4
				c-0.9,0.3-1.9,0.6-2.5,1c-0.3,0.2-0.6,0.4-0.8,0.5c-0.2,0.1-0.3,0.2-0.3,0.2s0.1-0.1,0.3-0.2c0.2-0.1,0.4-0.4,0.7-0.6
				c0.6-0.5,1.5-1,2.4-1.5c1-0.4,2-0.7,2.7-0.9c0.4-0.1,0.7-0.1,1-0.2c0.2,0,0.4,0,0.4,0s0.2,0,0.4,0c0.2,0,0.6,0,1,0.1
				c0.8,0.1,1.9,0.4,2.8,0.8c1,0.4,1.9,1,2.5,1.4c0.3,0.2,0.6,0.5,0.7,0.6C2.4,253.6,2.5,253.7,2.5,253.7z"/>
		</g>
		<g id="XMLID_2751_">
			<path id="XMLID_2752_" fill="#FFFFFF" d="M7.1,249.8c0,0,0,0.5,0,1.4c0,0.8-0.1,1.9-0.2,3.1c-0.2,1.1-0.3,2.2-0.5,3
				c-0.1,0.4-0.2,0.8-0.2,1c-0.1,0.2-0.1,0.4-0.1,0.4s-0.2,0.5-0.6,1.3c-0.2,0.4-0.4,0.8-0.7,1.2c-0.3,0.4-0.5,0.9-0.8,1.4
				c-0.6,0.9-1.2,1.8-1.7,2.3c-0.5,0.6-0.8,1-0.8,1s0.3-0.5,0.7-1.1c0.4-0.7,0.9-1.6,1.3-2.6c0.2-0.5,0.4-1,0.6-1.4
				c0.2-0.5,0.3-0.9,0.4-1.3c0.2-0.8,0.4-1.3,0.4-1.3s0.1-0.1,0.2-0.4c0.1-0.2,0.2-0.5,0.4-0.9c0.3-0.7,0.6-1.8,0.9-2.8
				c0.2-1.1,0.5-2.1,0.6-2.9C7,250.4,7.1,249.8,7.1,249.8z"/>
		</g>
		<g id="XMLID_2749_">
			<path id="XMLID_2750_" fill="#FFFFFF" d="M-42.7,251.7c0,0,0.5-0.1,1.4-0.2c0.8-0.1,1.9-0.5,2.9-0.8c1-0.5,2-0.8,2.8-1.3
				c0.7-0.4,1.2-0.7,1.2-0.7s0.5-0.3,1.2-0.6s1.6-1,2.5-1.5c0.8-0.7,1.7-1.3,2.2-2c0.6-0.6,0.9-1,0.9-1s-0.3,0.5-0.8,1.1
				c-0.4,0.7-1.2,1.5-2,2.4c-0.8,0.7-1.6,1.6-2.4,2c-0.7,0.5-1.2,0.8-1.2,0.8s-0.6,0.2-1.4,0.5c-0.8,0.4-1.9,0.6-3,0.9
				c-1.1,0.1-2.2,0.4-3.1,0.3C-42.2,251.7-42.7,251.7-42.7,251.7z"/>
		</g>
		<g id="XMLID_2747_">
			<path id="XMLID_2748_" fill="#FFFFFF" d="M-40,256.3c0,0,0.5-0.1,1.2-0.1s1.7-0.3,2.6-0.5c0.9-0.3,1.8-0.5,2.5-0.8
				c0.3-0.1,0.6-0.2,0.8-0.3c0.2-0.1,0.3-0.1,0.3-0.1s0.5-0.1,1.1-0.3c0.7-0.2,1.5-0.5,2.4-0.8c0.8-0.4,1.7-0.8,2.3-1.2
				c0.6-0.4,1-0.6,1-0.6s-0.4,0.3-0.9,0.8s-1.3,1-2.1,1.6c-0.8,0.5-1.6,1-2.3,1.3c-0.7,0.3-1.1,0.5-1.1,0.5s-0.1,0-0.4,0.1
				c-0.2,0-0.5,0.1-0.9,0.2c-0.7,0.2-1.7,0.2-2.7,0.4c-1,0-2,0.1-2.7,0C-39.5,256.4-40,256.3-40,256.3z"/>
		</g>
		<g id="XMLID_2745_">
			<path id="XMLID_2746_" fill="#FFFFFF" d="M-32.2,255.8c0,0,0.5,0.2,1.2,0.6c0.7,0.4,1.8,0.7,2.8,1s2.1,0.6,2.9,0.7
				c0.4,0.1,0.7,0.1,1,0.2c0.2,0,0.4,0.1,0.4,0.1s0.5,0.1,1.3,0.3c0.4,0.1,0.8,0.2,1.3,0.3s1,0.2,1.5,0.3c1,0.1,2.1,0.2,2.9,0.2
				s1.3,0,1.3,0s-0.5,0.1-1.3,0.2c-0.8,0.2-1.8,0.2-2.9,0.3c-0.5,0-1.1,0-1.6,0s-1,0-1.4-0.1c-0.8-0.1-1.4-0.1-1.4-0.1
				s-0.2,0-0.4-0.1c-0.2-0.1-0.6-0.2-1-0.3c-0.8-0.2-1.8-0.7-2.8-1.2s-2-1-2.7-1.5C-31.7,256.1-32.2,255.8-32.2,255.8z"/>
		</g>
		<g id="XMLID_2743_">
			<path id="XMLID_2744_" fill="#FFFFFF" d="M-47.8,255.2c0,0,0-0.6,0-1.6c0-0.2,0-0.5,0-0.8s0.1-0.6,0.1-0.9
				c0.1-0.6,0.1-1.2,0.2-1.9c0.3-1.2,0.6-2.5,1-3.4c0.3-0.9,0.6-1.5,0.6-1.6c0,0,0.4-0.5,0.9-1.3c0.2-0.4,0.6-0.8,1-1.3
				c0.4-0.4,0.8-0.9,1.2-1.3c0.9-0.8,1.8-1.7,2.5-2.1c0.7-0.5,1.2-0.9,1.2-0.9s-0.4,0.4-1.1,1s-1.4,1.5-2.2,2.4
				c-0.4,0.5-0.7,1-1,1.5s-0.6,0.9-0.8,1.3c-0.4,0.8-0.7,1.3-0.7,1.4c0,0-0.3,0.5-0.8,1.4c-0.5,0.8-0.9,2-1.3,3.1
				c-0.2,0.6-0.3,1.2-0.5,1.8c-0.1,0.3-0.2,0.6-0.2,0.8c0,0.3-0.1,0.5-0.1,0.8C-47.7,254.6-47.8,255.2-47.8,255.2z"/>
		</g>
		<g id="XMLID_2741_">
			<path id="XMLID_2742_" fill="#FFFFFF" d="M-78.2,255.2l-4.9-4.5l-3.8-5.3c0,0,4.7,4.3,4.8,4.4C-82.1,249.8-78.2,255.2-78.2,255.2
				z"/>
		</g>
		<g id="XMLID_2739_">
			<path id="XMLID_2740_" fill="#FFFFFF" d="M-76.3,254.3c0,0,0.7-1.6,1.4-3.1c0.5-1.6,1.1-3.2,1.1-3.3c0,0,0.7-1.5,1.4-3
				c0.5-1.6,1.1-3.1,1.1-3.1s-0.2,1.7-0.4,3.3c-0.4,1.7-0.8,3.3-0.8,3.4c0,0-0.1,0.1-0.2,0.3c-0.1,0.2-0.2,0.4-0.4,0.7
				c-0.3,0.6-0.8,1.3-1.2,2.1C-75.4,252.9-76.3,254.3-76.3,254.3z"/>
		</g>
		<g id="XMLID_2737_">
			<path id="XMLID_2738_" fill="#FFFFFF" d="M-249.4,282.9c0,0,0.6-0.9,1.5-2.1c0.2-0.3,0.5-0.7,0.7-1c0.3-0.4,0.6-0.7,0.9-1.1
				c0.6-0.7,1.2-1.6,1.9-2.4c1.4-1.5,2.8-3,4-4c0.6-0.5,1.1-1,1.4-1.3s0.6-0.5,0.6-0.5s0.9-0.6,2.2-1.4c0.3-0.2,0.7-0.4,1-0.6
				c0.4-0.2,0.8-0.4,1.2-0.6c0.8-0.4,1.7-0.9,2.6-1.4c1.8-0.8,3.6-1.6,5-2.1c1.4-0.5,2.3-0.8,2.3-0.8s-0.9,0.4-2.2,1
				c-1.4,0.5-3.1,1.5-4.8,2.5c-0.8,0.5-1.6,1.1-2.4,1.6c-0.4,0.3-0.8,0.5-1.1,0.7c-0.3,0.2-0.7,0.5-1,0.7c-1.2,0.9-2,1.5-2,1.5
				s-0.3,0.1-0.6,0.4c-0.4,0.3-0.9,0.7-1.5,1.1c-1.3,0.9-2.7,2.3-4.3,3.6c-0.7,0.7-1.4,1.5-2.1,2.2c-0.3,0.4-0.7,0.7-0.9,1
				c-0.3,0.3-0.5,0.7-0.8,1C-248.8,282.1-249.4,282.9-249.4,282.9z"/>
		</g>
		<g id="XMLID_2735_">
			<path id="XMLID_2736_" fill="#FFFFFF" d="M-248.5,291.2c0,0,0.3-0.8,0.8-2c0.1-0.3,0.3-0.6,0.4-1c0.2-0.3,0.4-0.7,0.5-1
				c0.4-0.7,0.8-1.5,1.2-2.2c0.5-0.7,1-1.4,1.5-2.1c0.2-0.3,0.5-0.6,0.7-0.9c0.2-0.3,0.5-0.5,0.7-0.8c0.4-0.5,0.8-0.9,1-1.2
				c0.3-0.3,0.4-0.4,0.4-0.4s0.7-0.5,1.7-1.3c0.3-0.2,0.5-0.4,0.8-0.6c0.3-0.2,0.6-0.4,1-0.6c0.7-0.4,1.4-0.8,2.1-1.2
				c1.5-0.7,2.9-1.4,4.1-1.7c1.1-0.4,1.9-0.6,1.9-0.6s-0.7,0.3-1.8,0.8c-1.1,0.4-2.5,1.3-3.8,2.1c-0.7,0.4-1.3,0.9-1.9,1.4
				c-0.3,0.2-0.6,0.4-0.9,0.6s-0.5,0.5-0.7,0.7c-0.9,0.8-1.5,1.4-1.5,1.4s-0.2,0.1-0.5,0.4s-0.7,0.6-1.1,1c-0.2,0.2-0.5,0.4-0.7,0.7
				c-0.3,0.2-0.5,0.5-0.8,0.8c-0.5,0.6-1.1,1.2-1.6,1.8c-0.5,0.7-1,1.4-1.4,2c-0.2,0.3-0.5,0.6-0.6,0.9c-0.2,0.3-0.3,0.6-0.5,0.9
				C-248.1,290.5-248.5,291.2-248.5,291.2z"/>
		</g>
		<g id="XMLID_2733_">
			<path id="XMLID_2734_" fill="#FFFFFF" d="M-196,238.6c0,0,0.1,0.7,0.3,1.7s0.6,2.3,0.9,3.6c0.5,1.3,0.9,2.6,1.3,3.5
				c0.2,0.5,0.4,0.9,0.5,1.1c0.1,0.3,0.2,0.4,0.2,0.4s0.2,0.6,0.6,1.6c0.2,0.5,0.4,1,0.6,1.6c0.3,0.6,0.5,1.2,0.8,1.8
				c0.6,1.2,1.2,2.3,1.8,3.2c0.5,0.8,0.9,1.4,0.9,1.4s-0.4-0.5-1-1.3c-0.7-0.7-1.4-1.8-2.2-2.9c-0.4-0.6-0.7-1.1-1-1.7
				c-0.3-0.5-0.6-1-0.8-1.5c-0.5-0.9-0.8-1.5-0.8-1.5s-0.1-0.2-0.2-0.5s-0.2-0.7-0.4-1.2c-0.3-1-0.6-2.4-0.9-3.7
				c-0.2-1.4-0.4-2.7-0.5-3.8C-195.9,239.3-196,238.6-196,238.6z"/>
		</g>
		<g id="XMLID_2731_">
			<path id="XMLID_2732_" fill="#FFFFFF" d="M-196.5,242.2c0,0-0.1,0.5-0.3,1.2s-0.3,1.6-0.5,2.6c0,1-0.1,1.9,0,2.6
				c0,0.7,0.1,1.2,0.1,1.2s0,0.5,0,1.2c0,0.2,0,0.4,0,0.6c0,0.2,0,0.4,0.1,0.6c0,0.4,0.1,0.9,0.1,1.3c0.2,0.9,0.4,1.8,0.6,2.5
				c0.2,0.7,0.4,1.1,0.4,1.1s-0.2-0.4-0.6-1s-0.7-1.5-1.1-2.4c-0.2-0.5-0.3-0.9-0.4-1.4c-0.1-0.2-0.1-0.4-0.2-0.6
				c0-0.2-0.1-0.4-0.1-0.6c-0.1-0.7-0.2-1.2-0.2-1.2s0-0.5,0.1-1.3c0-0.8,0.3-1.7,0.5-2.7c0.3-0.9,0.6-1.9,0.9-2.5
				C-196.7,242.7-196.5,242.2-196.5,242.2z"/>
		</g>
		<g id="XMLID_2729_">
			<path id="XMLID_2730_" fill="#FFFFFF" d="M-220.4,251.2c0,0,0.6,0.1,1.4,0.2c0.9,0.1,2,0.4,3.2,0.6c1.1,0.3,2.3,0.6,3.1,1
				c0.4,0.2,0.8,0.3,1,0.4c0.3,0.1,0.4,0.1,0.4,0.2c0,0,0.5,0.3,1.3,0.8c0.8,0.4,1.7,1.2,2.6,1.9c0.9,0.8,1.8,1.5,2.4,2.1
				c0.6,0.6,1,1,1,1s-0.5-0.3-1.2-0.9c-0.7-0.5-1.7-1.1-2.6-1.7c-1-0.5-2-1.1-2.8-1.4c-0.8-0.3-1.3-0.6-1.3-0.6s-0.5-0.3-1.3-0.7
				c-0.8-0.4-1.8-0.9-2.9-1.4c-1.1-0.4-2.2-0.8-3-1C-219.8,251.3-220.4,251.2-220.4,251.2z"/>
		</g>
		<g id="XMLID_2727_">
			<path id="XMLID_2728_" fill="#FFFFFF" d="M-230.2,262.3c0,0,0.1-0.1,0.2-0.4c0.1-0.2,0.3-0.6,0.5-1c0.5-0.8,1.3-1.7,2.3-2.5
				s2.1-1.3,3.1-1.6c0.5-0.1,0.9-0.2,1.1-0.3c0.3-0.1,0.4-0.1,0.5-0.1c0,0,0.2,0,0.5,0s0.7,0,1.1,0.1c0.9,0.1,2.1,0.5,3.2,1
				c1.1,0.6,2,1.3,2.6,2c0.3,0.3,0.5,0.6,0.7,0.8s0.3,0.3,0.3,0.3s-0.1-0.1-0.3-0.3s-0.4-0.5-0.8-0.7c-0.7-0.6-1.7-1.1-2.7-1.5
				c-1.1-0.3-2.2-0.5-3-0.5c-0.4,0-0.8,0-1,0.1c-0.2,0-0.4,0-0.4,0s-0.2,0-0.4,0c-0.2,0-0.6,0-1,0.1c-0.8,0.2-1.9,0.5-3,1.1
				c-1,0.6-1.9,1.4-2.5,2.1c-0.3,0.3-0.5,0.7-0.6,0.9C-230.1,262.2-230.2,262.3-230.2,262.3z"/>
		</g>
	</g>
</g>
</svg>
