<?xml version="1.0" encoding="utf-8"?>
<!-- Generator: Adobe Illustrator 19.0.0, SVG Export Plug-In . SVG Version: 6.00 Build 0)  -->
<svg version="1.1" id="Layer_1" xmlns="http://www.w3.org/2000/svg" xmlns:xlink="http://www.w3.org/1999/xlink" x="0px" y="0px"
	 viewBox="0 0 377.02704 362.83783" style="enable-background:new 0 0 377.02704 362.83783;" xml:space="preserve">
<style type="text/css">
	.st0{fill:url(#XMLID_28_);}
</style>
<linearGradient id="XMLID_28_" gradientUnits="userSpaceOnUse" x1="164.19652" y1="46.22219" x2="194.19652" y2="204.2222">
	<stop  offset="0" style="stop-color:#8E4604"/>
	<stop  offset="1" style="stop-color:#EF7B05"/>
	<stop  offset="1" style="stop-color:#EF7B05"/>
</linearGradient>
<path id="XMLID_356_" class="st0" d="M334.91013,130.58153c-0.65356-0.9839,1.49243-16.44032-11.93832-39.14619
	c-4.73578-8.00671-11.90927-17.54874-21.63672-26.62086c-31.03207-28.94014-76.75545-41.91895-146.11659-28.53333
	c-31.40865,6.06174-44.36069-5.35676-44.38212-20.2944C102.72079,29.09882,70.61604,38.91278,65.154,72.7832
	C64.65769,40.47643,81.13631,32.4037,93.45706,25.88632c-52.13752,7.2942-58.42305,58.70088-51.74424,84.34238
	c0.36695,0.71378,0.35619,0.75887,0,0c-10.77695-20.81017-7.21531-34.57086-1.19681-45.91914
	c-13.8347,10.86715-15.90912,27.23107-17.40001,45.98936c-1.34165,16.89509,3.24644,35.62455,10.42793,50.54252
	c3.67347,7.63087,7.41387,15.08502,7.41387,15.08502c-14.18976,19.64075-0.7331,94.83379,0.5775,102.39192
	c2.29523,1.5925,7.40074,8.97531,12.09268,18.49057c10.55524,21.40277,9.55553,26.65182,14.82382,41.08276
	c0.35734,0.97775-3.48128-75.65524-3.39968-83.16046c0.28455-26.68646,3.83502-38.30666,6.98399-43.3602
	c8.56013,5.38602,17.09076,7.50513,25.15572,9.50398c21.78075,5.39432,49.07015,2.86678,93.54423-18.79584
	c6.21071-2.81032,12.07834-5.38345,17.62326-7.74069c43.10292-16.95274,82.86035-16.8839,95.84735-18.74281
	c0.71722-0.10272,1.43124-0.24394,2.142-0.42101c0.45767,5.60611,1.4913,23.07881,9.33618,43.22455
	c2.4505,6.2914,8.4021,22.79689,7.35739,44.78188c-0.3558,7.47092,0.66064,62.15152-0.43338,74.7106
	c4.51523-20.0809,11.98639-35.48923,14.42612-40.42542c3.75034-7.5899,9.92126-16.85123,12.05487-19.11618
	c1.59637-10.9733,6.48138-71.78995,6.7106-80.43448C356.19095,183.15344,356.54715,149.37283,334.91013,130.58153z"/>
</svg>
