<?xml version="1.0" encoding="utf-8"?>
<!-- Generator: Adobe Illustrator 19.0.0, SVG Export Plug-In . SVG Version: 6.00 Build 0)  -->
<svg version="1.1" id="Layer_1" xmlns="http://www.w3.org/2000/svg" xmlns:xlink="http://www.w3.org/1999/xlink" x="0px" y="0px"
	 viewBox="-285 115.5 387.5 330.5" enable-background="new -285 115.5 387.5 330.5" xml:space="preserve">
<g id="XMLID_3039_">
	<g id="XMLID_3043_">
		<g id="XMLID_3227_">
			<g id="XMLID_3235_">
				<path id="XMLID_3638_" fill="#EF7B05" d="M-243,241.1c0,0-13.5-43.7,29.4-80.8s126-35.5,181.3,6.3s69.4,87,61.2,130.6
					c-8.2,43.6,0,81.7,26.5,98.2c0,0-29.4,25.3-57.6-24.1s-14.1-107-78.8-112.9C-145.7,252.4-183.1,279.5-243,241.1z"/>
				<path id="XMLID_3637_" fill="#EF7B05" d="M-169.3,164.2c1.8-0.6,10-17.6,35.9-23.5c25.9-5.9,87.1-4,129.4,40.9
					C28.3,216,37.7,243,44.8,272c7.1,29,25.5,45.9,25.5,45.9s-29.6,5.7-72.5-45.5s-109.4-84.7-109.4-84.7L-169.3,164.2z"/>
				<path id="XMLID_3636_" fill="#EF7B05" d="M-34,229.3c0,0,57.2-4.3,62.3,28.2c5.1,32.5,2.4,60.4,20.8,81.9
					c18.4,21.6,33.7,26.3,33.7,26.3s-42,17.3-63.9-21.6c-22-38.8-28.2-88.2-28.2-88.2L-36,227.3L-34,229.3z"/>
				<path id="XMLID_3635_" fill="#EF7B05" d="M-243,241.1c0,0-7.3-2.7-17.8,5.7c-10.6,8.4-12.3,19.6-12.3,19.6s5.9-8.2,12.7-11.4
					c6.9-3.1-5.7,19.6-10.4,30.2c-4.7,10.6-5.5,16.9-5.5,16.9s4.5-7.3,13.7-11.8c9.2-4.5,19.8-21.4,19.8-21.4l4.7-19l2.7-11
					L-243,241.1z"/>
				<path id="XMLID_3634_" fill="#EF7B05" d="M10,261.7c-19.2-47.4-91.7-75.2-131.3-74.1h-0.2c-0.1,0-0.1,0-0.2,0l0,0l0,0l0,0l0,0
					c-0.1,0-0.1,0-0.2,0h-0.2c-39.7-1.1-112.2,26.7-131.4,74.1c-19.2,47.5-21.9,91.1-15.3,129.8c4.4,25.8,8.9,43,8.9,43
					s5.1-24.3,2.8-50.5c-2.3-26.2,12.2-45,16-57.3c3.8-12.3-1.1-53.8,12.3-72.3c23.8-32.6,48.2-29.1,69-30
					c10.6-0.4,19.9-0.2,26.7,0.1c3.8,0.2,7.6,0.2,11.4,0.1c3.8,0.1,7.6,0.1,11.4-0.1c6.8-0.3,16.1-0.5,26.7-0.1
					c20.8,0.9,45.1-2.6,69,30c13.5,18.5,8.5,60,12.3,72.3c3.8,12.3,18.4,31.2,16,57.3s3.2,45.1,3.2,45.1s4.1-11.9,8.5-37.6
					C31.8,352.8,29.2,309.2,10,261.7z"/>
				<path id="XMLID_3633_" fill="#FFFFFF" d="M-235.3,238.9c0,0,0-0.8,0.1-2.3c0.1-1.5,0.3-3.7,0.7-6.5c0.4-2.8,1-6.2,2-10
					c1-3.8,2.3-8.1,4.2-12.6c1.9-4.5,4.3-9.3,7.5-13.9c3.2-4.6,7-9.3,11.6-13.4c4.7-4.1,10-7.7,15.9-10.5l0.3-0.1l0.3-0.1l0.5-0.2
					l1.1-0.5c0.7-0.3,1.4-0.6,2.2-1c1.5-0.6,3.1-1.2,4.6-1.8c1.5-0.5,3.1-1.1,4.6-1.5l2.3-0.7l2.4-0.6c6.3-1.6,12.8-2.8,19.2-3.3
					c6.4-0.6,12.7-0.7,18.8-0.4s11.9,1,17.4,2c2.7,0.5,5.4,1,7.9,1.6c2.5,0.6,5,1.3,7.3,2c4.7,1.4,8.8,2.9,12.4,4.5
					c3.6,1.5,6.7,3.1,9.2,4.5c2.5,1.4,4.3,2.6,5.6,3.4c1.2,0.8,1.9,1.3,1.9,1.3s-0.7-0.4-2-1.1s-3.3-1.6-5.9-2.8
					c-2.6-1.1-5.7-2.4-9.4-3.6s-7.9-2.4-12.5-3.6c-2.3-0.6-4.7-1.1-7.3-1.5c-2.5-0.5-5.1-0.9-7.8-1.3c-5.4-0.7-11.1-1.2-17-1.3
					s-12,0.1-18.2,0.8c-6.2,0.6-12.4,1.7-18.4,3.3l-2.3,0.6l-2.3,0.7c-1.5,0.4-3,1-4.5,1.5c-0.7,0.2-1.5,0.5-2.2,0.8
					c-0.7,0.3-1.4,0.5-2.2,0.8c-0.7,0.3-1.5,0.6-2.2,0.9l-1.1,0.5l-0.5,0.2l0.1,0h-0.1l0,0l-0.3,0.1c-5.5,2.5-10.7,5.8-15.1,9.5
					c-0.6,0.4-1.1,1-1.6,1.4c-0.5,0.5-1.1,1-1.6,1.5s-1,1-1.5,1.5l-0.8,0.8c-0.2,0.3-0.5,0.5-0.7,0.8c-0.5,0.5-0.9,1-1.4,1.5
					s-0.9,1.1-1.3,1.6c-0.4,0.5-0.9,1-1.3,1.6c-0.4,0.5-0.8,1.1-1.2,1.6c-3.2,4.3-5.8,8.8-7.9,13c-2.1,4.3-3.7,8.3-5,12
					c-1.2,3.7-2.2,6.9-2.8,9.6c-0.7,2.7-1.1,4.9-1.3,6.4C-235.2,238.1-235.3,238.9-235.3,238.9z"/>
				<path id="XMLID_3632_" fill="#FFFFFF" d="M-223.4,239.5c0,0,0.9,0.3,2.6,0.7c1.7,0.4,4.2,0.9,7.4,1.4c3.2,0.5,7.1,1,11.6,1.3
					c4.5,0.3,9.6,0.5,15.1,0.5c2.8-0.1,5.6-0.1,8.6-0.3c3-0.1,6-0.4,9.2-0.7c1.5-0.2,3.2-0.3,4.8-0.5c1.6-0.2,3.2-0.4,4.9-0.7
					c3.3-0.5,6.7-1,10.1-1.6s6.9-1.2,10.4-1.8c3.5-0.6,7.1-1.3,10.7-1.9c7.2-1.3,14.5-2.5,21.9-3.7c7.4-1.1,14.8-2,22.2-2.6
					c1.8-0.2,3.7-0.3,5.5-0.4c0.9-0.1,1.8-0.1,2.7-0.1s1.8-0.1,2.7-0.1c3.6-0.1,7.2,0,10.8,0.3c0.9,0.1,1.8,0.2,2.7,0.2
					c0.9,0.1,1.8,0.2,2.6,0.3c0.9,0.1,1.7,0.3,2.6,0.4c0.4,0.1,0.9,0.2,1.3,0.2c0.4,0.1,0.8,0.2,1.3,0.3c0.8,0.2,1.7,0.4,2.5,0.6
					c0.4,0.1,0.8,0.2,1.2,0.4l0.6,0.2h0.2h0.1h0.1l0.3,0.1c0.8,0.3,1.5,0.6,2.3,0.9c0.8,0.4,1.6,0.7,2.3,1.1c3,1.5,5.7,3.3,8.1,5.3
					c2.4,2,4.5,4.1,6.3,6.4c3.6,4.4,6.2,9,8.1,13.2c1,2.1,1.7,4.1,2.4,5.9c0.7,1.9,1.2,3.6,1.6,5.2c0.9,3.1,1.3,5.7,1.6,7.4
					c0.3,1.7,0.4,2.6,0.4,2.6s-0.2-0.9-0.6-2.6c-0.4-1.7-1.2-4.1-2.3-7.2c-0.6-1.5-1.2-3.2-2-5c-0.4-0.9-0.8-1.8-1.3-2.8
					c-0.5-0.9-0.9-1.9-1.5-2.9c-1.1-2-2.3-4-3.7-6.1c-1.4-2.1-3-4.1-4.8-6.1c-3.7-4-8.3-7.7-13.9-10.2c-0.7-0.3-1.4-0.6-2.1-0.9
					c-0.8-0.3-1.5-0.5-2.3-0.8l-0.3-0.1l-0.2-0.1l-0.6-0.1c-0.4-0.1-0.8-0.2-1.1-0.3c-0.8-0.2-1.6-0.3-2.4-0.5
					c-3.2-0.6-6.5-1-9.9-1.2s-6.9-0.2-10.4,0c-0.9,0-1.8,0.1-2.7,0.1c-0.9,0.1-1.8,0.1-2.7,0.2c-1.8,0.1-3.6,0.2-5.4,0.4
					c-7.2,0.6-14.5,1.6-21.8,2.7s-14.6,2.3-21.8,3.5s-14.3,2.3-21.3,3.3c-3.5,0.5-6.9,1-10.2,1.3c-1.7,0.2-3.3,0.3-5,0.5
					s-3.2,0.2-4.9,0.4c-6.4,0.4-12.5,0.4-18.1,0.2s-10.7-0.8-15.2-1.4c-4.5-0.6-8.4-1.5-11.6-2.2c-3.2-0.8-5.6-1.5-7.3-2.1
					C-222.5,239.9-223.4,239.5-223.4,239.5z"/>
				<path id="XMLID_3631_" fill="#FFFFFF" d="M-223,229.7c0,0,0.3-0.5,1-1.3s1.6-2,2.9-3.5c0.7-0.7,1.4-1.5,2.2-2.4
					c0.4-0.4,0.8-0.9,1.3-1.3c0.5-0.4,0.9-0.9,1.4-1.4c2-1.9,4.3-4,7-6.1c1.3-1.1,2.8-2.1,4.2-3.2c0.8-0.5,1.5-1,2.3-1.6
					c0.8-0.5,1.6-1.1,2.4-1.6c0.8-0.5,1.7-1,2.6-1.5s1.7-1,2.6-1.5c0.9-0.5,1.8-0.9,2.8-1.4c0.5-0.2,0.9-0.5,1.4-0.7s1-0.4,1.5-0.6
					c1-0.4,2-0.9,3-1.3c0.5-0.2,1-0.4,1.5-0.6s1-0.4,1.5-0.6c1-0.4,2.1-0.8,3.1-1.1c1.1-0.3,2.1-0.6,3.2-0.9
					c0.5-0.2,1.1-0.3,1.6-0.5l0.8-0.2l0.4-0.1h0.1h0.1h0.1h0.2c1.1-0.2,2.2-0.5,3.3-0.7s2.2-0.5,3.3-0.7c1.1-0.2,2.3-0.3,3.4-0.5
					c2.3-0.3,4.5-0.7,6.8-0.8c1.1-0.1,2.3-0.2,3.4-0.3c0.6,0,1.1-0.1,1.7-0.1c0.6,0,1.1,0,1.7,0c2.2,0,4.4-0.2,6.6-0.1
					c2.2,0.1,4.3,0.1,6.5,0.2c2.1,0.1,4.2,0.2,6.2,0.4c2,0.2,4,0.4,5.9,0.6s3.8,0.5,5.6,0.8s3.5,0.6,5.2,0.9c3.3,0.6,6.3,1.3,9,1.9
					c1.3,0.3,2.6,0.6,3.7,0.9c1.1,0.3,2.2,0.6,3.1,0.9c1.9,0.5,3.4,1,4.4,1.3s1.5,0.5,1.5,0.5s-2.2-0.5-6-1.2c-1-0.2-2-0.4-3.2-0.6
					c-1.2-0.2-2.4-0.4-3.8-0.6c-1.3-0.2-2.8-0.4-4.3-0.6c-1.5-0.2-3.1-0.5-4.8-0.6c-1.7-0.2-3.4-0.4-5.2-0.6
					c-1.8-0.2-3.6-0.3-5.6-0.5c-1.9-0.1-3.9-0.2-5.9-0.4c-2-0.1-4.1-0.1-6.1-0.2c-2.1,0-4.2,0-6.3,0c-1.1,0-2.1,0.1-3.2,0.1
					c-1.1,0-2.2,0.1-3.3,0.1c-0.5,0-1.1,0-1.6,0.1c-0.5,0-1.1,0.1-1.6,0.1c-1.1,0.1-2.2,0.2-3.3,0.3c-2.2,0.1-4.4,0.5-6.5,0.8
					c-1.1,0.2-2.2,0.3-3.3,0.5c-1.1,0.2-2.2,0.4-3.3,0.7c-1.1,0.2-2.2,0.4-3.3,0.7h-0.2h-0.1c0,0,0.1,0,0,0h-0.1l-0.4,0.1l-0.8,0.2
					c-0.5,0.1-1,0.3-1.6,0.4c-1,0.3-2.1,0.6-3.1,0.9c-1,0.3-2,0.7-3,1c-0.5,0.2-1,0.3-1.5,0.5c-0.5,0.2-1,0.3-1.5,0.5
					c-1,0.4-1.9,0.8-2.9,1.2c-3.8,1.6-7.4,3.4-10.7,5.2c-1.7,0.9-3.2,1.9-4.8,2.8c-1.5,1-3,1.9-4.3,2.8c-2.7,1.9-5.2,3.7-7.3,5.5
					c-0.5,0.4-1,0.8-1.5,1.2s-0.9,0.8-1.4,1.2c-0.9,0.8-1.7,1.5-2.4,2.1C-221.5,228-223,229.7-223,229.7z"/>
				<path id="XMLID_3630_" fill="#FFFFFF" d="M-39.5,205.4c0,0,0.6,0.2,1.7,0.6c1.1,0.4,2.7,1,4.6,1.9c2,0.9,4.3,2,6.9,3.5
					s5.5,3.3,8.5,5.5c3,2.2,6.1,4.8,9.2,7.8c3,3,6.1,6.4,8.8,10.2c2.7,3.8,5.3,7.9,7.4,12.4s3.8,9.2,5.1,14.1
					c0.3,1.2,0.6,2.4,0.8,3.7c0.2,1.2,0.4,2.5,0.7,3.7c0.4,2.4,0.7,4.8,1.1,7.2c0.8,4.7,1.5,9.4,2.3,13.8c0.4,2.2,0.8,4.4,1.2,6.6
					c0.4,2.2,0.8,4.2,1.2,6.3c0.8,4.1,1.7,7.9,2.6,11.4c0.5,1.7,0.9,3.4,1.4,5c0.4,1.6,1,3.1,1.4,4.4c1,2.7,2,5.1,3,7
					c0.2,0.5,0.5,0.9,0.7,1.3c0.2,0.4,0.4,0.8,0.7,1.1c0.4,0.7,0.8,1.3,1.1,1.8c0.7,0.9,1,1.4,1,1.4s-0.4-0.4-1.2-1.3
					c-0.4-0.4-0.8-1-1.4-1.6c-0.5-0.7-1.1-1.4-1.7-2.3c-1.3-1.8-2.6-4-3.9-6.8c-1.3-2.7-2.6-5.9-3.8-9.4c-0.6-1.7-1.2-3.6-1.8-5.5
					c-0.3-1-0.5-1.9-0.8-2.9s-0.6-2-0.8-3c-1.1-4.1-2.1-8.4-3-12.9c-0.5-2.2-1-4.5-1.4-6.9c-0.4-2.3-0.9-4.7-1.3-7
					c-0.4-2.4-0.8-4.7-1.2-7.1c-0.2-1.2-0.4-2.3-0.7-3.5c-0.2-1.2-0.5-2.3-0.8-3.5c-1.2-4.6-2.7-9.1-4.6-13.3s-4.1-8.3-6.6-12
					s-5.2-7.1-7.9-10.1c-2.8-3-5.6-5.7-8.3-8.1c-2.7-2.3-5.4-4.4-7.8-6.1c-2.4-1.7-4.6-3.1-6.4-4.2c-1.8-1.1-3.3-1.9-4.3-2.4
					C-38.9,205.7-39.5,205.4-39.5,205.4z"/>
				<path id="XMLID_3629_" fill="#FFFFFF" d="M-244,256.6c-2.6,6.3-5.2,12.6-8.7,18.4c-3.5,5.8-8.1,11.1-13.8,14.7"/>
				<g id="XMLID_3626_">
					<path id="XMLID_104_" fill="#FFFFFF" d="M-244.4,245.4c-0.6,0-1.2,0-1.8,0c-0.6,0-1.2,0.1-1.8,0.1c-0.6,0.1-1.2,0.1-1.8,0.2
						c-0.6,0.1-1.2,0.2-1.7,0.3c-0.6,0.1-1.1,0.3-1.7,0.5c-0.6,0.2-1.1,0.4-1.6,0.6c-0.5,0.2-1.1,0.4-1.6,0.7s-1,0.5-1.5,0.8
						l-0.8,0.5l-0.7,0.5c-0.5,0.3-0.9,0.7-1.4,1c-0.4,0.4-0.9,0.7-1.3,1.1c-0.4,0.4-0.8,0.8-1.2,1.2c-0.4,0.4-0.7,0.9-1.1,1.3
						c-0.3,0.5-0.7,0.9-1,1.4c-0.3,0.5-0.6,1-0.9,1.5c-0.3,0.5-0.5,1-0.8,1.5l-2.1-1.8c0.8-0.4,1.5-0.8,2.3-1.2
						c0.8-0.4,1.6-0.7,2.4-1s1.6-0.6,2.4-0.9c0.8-0.3,1.7-0.5,2.5-0.7c0.8-0.2,1.7-0.4,2.5-0.5l1.3-0.2l1.3-0.2
						c0.9-0.1,1.7-0.2,2.6-0.2c0.9,0,1.7,0,2.6,0l-2.5,0.6l-2.4,0.7l-2.4,0.8c-0.8,0.3-1.6,0.6-2.3,0.9c-0.8,0.3-1.5,0.6-2.3,1
						l-2.2,1c-0.7,0.4-1.5,0.7-2.2,1.1l-2.1,1.2l-3.8,2.3l1.8-4.1c0.3-0.6,0.5-1.2,0.8-1.8c0.3-0.6,0.6-1.1,1-1.7
						c0.4-0.5,0.7-1.1,1.2-1.6c0.4-0.5,0.8-1,1.3-1.5s0.9-0.9,1.4-1.4c0.5-0.4,1-0.8,1.5-1.2s1.1-0.7,1.6-1.1l0.9-0.5l0.8-0.4
						c0.6-0.3,1.2-0.5,1.8-0.7c0.6-0.2,1.2-0.4,1.8-0.6c0.6-0.2,1.2-0.3,1.9-0.4c0.6-0.1,1.3-0.2,1.9-0.2c0.6,0,1.3-0.1,1.9,0
						c0.6,0,1.3,0.1,1.9,0.1c0.6,0.1,1.2,0.2,1.8,0.3C-245.6,245-245,245.2-244.4,245.4z"/>
				</g>
				<g id="XMLID_3238_">
					<path id="XMLID_102_" fill="#FFFFFF" d="M-225.8,251.2c0,0-1.1,0.3-2.6,0.2c-0.4,0-0.8,0-1.2-0.1c-0.4-0.1-0.9-0.1-1.4-0.2
						c-0.5-0.1-1-0.2-1.4-0.4c-0.5-0.2-1-0.4-1.4-0.6c-0.4-0.2-0.9-0.5-1.3-0.8s-0.8-0.7-1.2-1s-0.7-0.7-1-1.1
						c-0.3-0.4-0.5-0.8-0.7-1.1c-0.2-0.4-0.3-0.7-0.4-1c-0.1-0.3-0.2-0.6-0.2-0.8c-0.1-0.2,0-0.4-0.1-0.6c0-0.1,0-0.2,0-0.2l0.2-0.1
						c0,0,0.1,0.2,0.4,0.6c0.2,0.3,0.6,0.8,1.1,1.4c1,1.1,2.5,2.2,4.2,3.1c1.7,0.9,3.5,1.6,4.9,2c1.4,0.4,2.3,0.7,2.3,0.7
						L-225.8,251.2z"/>
				</g>
			</g>
			<g id="XMLID_3230_">
				<path id="XMLID_100_" fill="#FFFFFF" d="M-159.9,141.7c0,0-0.5,0.2-1.4,0.5s-2.3,0.7-4,1.2c-3.4,1-8.5,2-14.4,3.4
					c-3,0.7-6.1,1.6-9.4,2.7c-3.2,1.1-6.5,2.7-9.7,4.6c-3.2,1.9-6.3,4.3-9.2,7c-2.9,2.7-5.6,5.6-8.2,8.7c-2.6,3.1-5,6.3-7.3,9.6
					c-2.2,3.3-4.4,6.6-6.2,9.9s-3.5,6.6-4.8,9.8c-1.3,3.2-2.5,6.3-3.3,9.2c-1.7,5.8-2.5,10.8-2.8,14.4c-0.1,1.8-0.2,3.2-0.2,4.1
					c0,1,0,1.5,0,1.5s0-0.5-0.1-1.5s-0.2-2.4-0.2-4.2c0-3.6,0.3-8.8,1.7-14.8c0.7-3,1.7-6.2,2.9-9.6c1.2-3.3,2.8-6.8,4.6-10.2
					s3.8-6.9,6.1-10.2c2.3-3.4,4.7-6.7,7.4-9.9c2.6-3.2,5.5-6.2,8.5-9c3-2.7,6.4-5.1,9.8-7.1s6.9-3.4,10.3-4.5
					c3.4-1,6.7-1.7,9.7-2.2s5.8-0.9,8.3-1.3c2.5-0.4,4.6-0.7,6.4-1c1.8-0.3,3.1-0.6,4.1-0.8C-160.4,141.8-159.9,141.7-159.9,141.7z"
					/>
			</g>
		</g>
		<g id="XMLID_3044_">
			<path id="XMLID_98_" fill="#FFFFFF" d="M49,396.9c0,0-0.4,0.1-1.2,0.3c-0.8,0.2-1.9,0.5-3.4,0.9s-3.3,0.8-5.4,1.1
				c-2.1,0.3-4.5,0.5-7.2,0.3s-5.5-0.9-8.4-1.8c-0.7-0.2-1.4-0.5-2.2-0.7c-0.4-0.1-0.7-0.2-1.1-0.4c-0.3-0.1-0.8-0.3-1.1-0.5
				c-1.5-0.8-2.9-1.6-4.2-2.6c-2.7-1.9-5.3-4.1-7.8-6.6l-0.9-1l-0.8-1c-0.6-0.7-1.1-1.3-1.7-2L2,380.8l-1.5-2.2
				c-2-2.9-3.8-5.9-5.4-9c-0.8-1.5-1.5-3.1-2.3-4.6c-0.7-1.6-1.4-3.1-1.9-4.6c-0.6-1.5-1.2-3-1.6-4.6c-0.3-0.7-0.5-1.5-0.7-2.2
				c-0.2-0.7-0.4-1.5-0.6-2.2s-0.4-1.4-0.6-2.1s-0.4-1.4-0.5-2.1c-0.4-1.4-0.7-2.7-0.9-4c-0.5-2.6-0.9-4.9-1.2-7
				c-0.3-2.1-0.5-3.9-0.6-5.5c-0.2-3-0.3-4.8-0.3-4.8s0.4,1.7,1,4.7c0.3,1.5,0.8,3.3,1.2,5.3c0.5,2,1.1,4.3,1.8,6.8
				c0.3,1.2,0.7,2.5,1.2,3.9c0.2,0.7,0.4,1.3,0.6,2s0.5,1.4,0.7,2.1c0.5,1.4,1,2.8,1.6,4.3c0.5,1.5,1.1,2.9,1.8,4.4
				c0.6,1.5,1.3,2.9,2,4.5c0.7,1.5,1.4,3,2.2,4.5c0.4,0.7,0.8,1.5,1.2,2.2c0.4,0.7,0.9,1.5,1.3,2.2s0.9,1.5,1.3,2.2
				c0.5,0.7,0.9,1.5,1.4,2.1l1.5,2.1l1.5,2c0.5,0.7,1.1,1.3,1.6,2l0.8,1l0.8,0.9c2.3,2.4,4.8,4.6,7.3,6.5c1.3,0.9,2.6,1.8,3.8,2.5
				c1.2,0.7,2.7,1.2,4.1,1.7c2.7,1,5.4,1.9,7.9,2.2c2.5,0.4,4.9,0.4,6.9,0.3c2.1-0.1,3.9-0.3,5.4-0.6C47.3,397.2,49,396.9,49,396.9z
				"/>
		</g>
	</g>
	<g id="XMLID_3040_">
		<path id="XMLID_3042_" fill="#FFFFFF" d="M-258.1,291.1c-0.7,1.9-1.3,3.8-2,5.7c-0.6,1.9-1.3,3.7-1.8,5.6
			c-0.3,0.9-0.5,1.9-0.7,2.8c-0.1,0.5-0.1,0.9-0.2,1.4l-0.1,1.5c-0.2,2-0.3,3.9-0.4,5.9c-0.2,4-0.4,8-0.5,11.9l-0.4,12
			c-0.3,8-0.6,16-1,24c-0.2,4-0.5,8-0.9,12l-0.3,3v0.3v0.2v0.1c0,0.1,0,0.3,0.1,0.4c0.1,0.3,0.2,0.6,0.4,0.8
			c0.4,0.5,1.1,0.8,1.7,0.8c0.6,0,1.2-0.3,1.6-0.9l-0.1,0.3l3.4-9.7l3.4-9.7l3.5-9.6c1.2-3.2,2.4-6.4,3.6-9.6
			c-0.9,3.3-1.8,6.6-2.8,9.9l-2.9,9.8l-3,9.8l-3,9.8v0.1l-0.1,0.2c-0.7,1.1-2,1.9-3.4,2s-2.7-0.5-3.7-1.5c-0.5-0.5-0.8-1.1-1-1.8
			c-0.1-0.3-0.1-0.7-0.1-1v-0.3v-0.2v-0.4l0.3-3c0.1-2,0.3-4,0.4-5.9l0.3-6l0.9-23.9c0.3-8,0.7-16,1.3-24c0.2-2,0.3-4,0.6-6
			c0.1-0.5,0.1-1,0.2-1.5c0.1-0.5,0.2-1.1,0.4-1.6c0.3-1,0.6-2,1-2.9c0.8-1.9,1.7-3.7,2.7-5.5C-260.3,294.5-259.2,292.8-258.1,291.1
			z"/>
	</g>
</g>
</svg>
