<?xml version="1.0" encoding="utf-8"?>
<!-- Generator: Adobe Illustrator 19.0.0, SVG Export Plug-In . SVG Version: 6.00 Build 0)  -->
<svg version="1.1" id="Layer_1" xmlns="http://www.w3.org/2000/svg" xmlns:xlink="http://www.w3.org/1999/xlink" x="0px" y="0px"
	 viewBox="0 0 373 356.8" style="enable-background:new 0 0 373 356.8;" xml:space="preserve">
<style type="text/css">
	.st0{fill:#EF7B05;}
	.st1{fill:#FFFFFF;}
</style>
<g id="XMLID_6683_">
	<path id="XMLID_7092_" class="st0" d="M98.1,122c0,0-26.6-21.3-39.1-19.5S10.5,126.7,11.1,164c0.4,23.7,28.4,179.1,28.4,179.1
		s-1.7-57.8-1.2-65.5c0.6-7.7,4.7-59.8,7.7-69.2c3-9.5,24.8-46.6,24.8-46.6l24.3-28L98.1,122z"/>
	<path id="XMLID_7091_" class="st0" d="M47.8,127.3c0,0-7.1-52.1,43-79.6C160.7,9.4,238.3,22,272.7,35.3
		c38.4,14.9,64.4,41,75.7,65.4c7.5,16.2,9.7,36.3,9.7,36.3s-14-16.2-20.9-14.4c-12.3,3.2,11.5,27.7,18.3,47.3
		c7.5,21.7,3.6,32.5,3.6,32.5l-11.2-8.9c0,0,0.6,29.6-8.9,63.9c-9.5,34.3-21.3,83.4-21.3,83.4l-1.8-103L281,139.7l-59.8-15.4
		l-68.6-3l-37.9,4.7L47.8,127.3z"/>
	<path id="XMLID_7090_" class="st0" d="M48.4,107.2c0,0,0-31.7,17.8-57.4s57.1-35.2,57.1-35.2s-7.7,8-3.6,13.3
		c4.1,5.3,30.7-10.1,55.9-16.3C199.2,5.9,205.2,9,205.2,9s-14.8,11.1,9.6,13.9c18.3,2.1,15.3,69.3,15.3,69.3l-71,6.2L48.4,107.2z"/>
	<path id="XMLID_7089_" class="st0" d="M311.1,169.2c-19.3-47.7-92.3-75.7-132.2-74.6h-0.2c-0.1,0-0.1,0-0.2,0v0c0,0,0,0,0,0
		c0,0,0,0,0,0v0c-0.1,0-0.1,0-0.2,0h-0.2C138.3,93.5,65.3,121.5,46,169.2C26.6,217,24,260.9,30.6,299.8c4.4,25.9,8.9,43.3,8.9,43.3
		s5.2-24.5,2.8-50.8C39.9,266,54.6,247,58.4,234.6s-1.1-54.2,12.4-72.8c24-32.8,48.5-29.3,69.4-30.2c10.6-0.4,20.1-0.2,26.9,0.1
		c3.8,0.2,7.6,0.2,11.4,0.1c3.8,0.1,7.6,0.1,11.4-0.1c6.8-0.3,16.2-0.5,26.9-0.1c20.9,0.9,45.4-2.7,69.4,30.2
		c13.6,18.6,8.6,60.4,12.4,72.8s18.5,31.4,16.1,57.7c-2.4,26.3,2.8,50.8,2.8,50.8s4.5-17.4,8.9-43.3
		C333.1,260.9,330.5,217,311.1,169.2z"/>
	<path id="XMLID_7088_" class="st1" d="M62.2,103.5c0,0,0-0.3,0.1-0.8c0.1-0.5,0.1-1.3,0.3-2.3c0.2-1,0.4-2.1,0.8-3.5
		c0.4-1.3,0.8-2.8,1.4-4.4c0.6-1.6,1.3-3.3,2.1-5.1c0.8-1.8,1.8-3.6,2.9-5.4c1.1-1.8,2.3-3.7,3.6-5.5c1.3-1.8,2.8-3.6,4.3-5.3
		c0.8-0.8,1.6-1.7,2.3-2.5c0.8-0.8,1.6-1.6,2.4-2.3c0.8-0.7,1.6-1.5,2.5-2.2c0.8-0.7,1.7-1.4,2.5-2c0.9-0.6,1.7-1.3,2.5-1.9
		c0.8-0.6,1.7-1.1,2.5-1.7c0.8-0.5,1.6-1,2.4-1.5c0.8-0.5,1.5-0.9,2.3-1.3c1.5-0.8,2.8-1.5,4.1-2.1c1.2-0.6,2.3-1.1,3.2-1.4
		c0.9-0.4,1.6-0.6,2.1-0.8c0.5-0.2,0.8-0.3,0.8-0.3s-0.2,0.2-0.6,0.5c-0.4,0.3-1,0.8-1.8,1.3c-0.8,0.5-1.7,1.3-2.8,2.1
		c-1.1,0.8-2.3,1.7-3.6,2.7c-0.7,0.5-1.3,1-2,1.6c-0.7,0.6-1.4,1.1-2.1,1.7c-0.7,0.6-1.5,1.2-2.2,1.9c-0.7,0.7-1.5,1.3-2.3,2
		c-0.7,0.7-1.5,1.4-2.3,2.1c-0.7,0.7-1.5,1.5-2.3,2.2c-0.7,0.8-1.5,1.5-2.2,2.3c-0.7,0.8-1.5,1.6-2.2,2.4c-0.7,0.8-1.5,1.6-2.1,2.4
		c-0.3,0.4-0.7,0.8-1,1.2c-0.3,0.4-0.7,0.8-1,1.3c-1.3,1.7-2.6,3.4-3.7,5c-1.1,1.7-2.3,3.3-3.2,4.9c-1,1.6-1.9,3.1-2.7,4.6
		c-1.6,2.9-2.8,5.4-3.5,7.1c-0.4,0.9-0.7,1.6-0.9,2.1C62.3,103.2,62.2,103.5,62.2,103.5z"/>
	<path id="XMLID_7087_" class="st1" d="M74.1,114.5c0,0,0.2-0.5,0.7-1.4c0.5-0.9,1.2-2.3,2.3-3.9c1-1.7,2.3-3.6,4-5.8
		c1.6-2.2,3.5-4.6,5.7-7.1c2.2-2.5,4.7-5.2,7.6-7.8c0.7-0.7,1.4-1.3,2.2-2c0.7-0.7,1.5-1.3,2.3-2c0.8-0.6,1.6-1.3,2.4-1.9
		c0.8-0.7,1.6-1.3,2.5-1.9c0.8-0.6,1.7-1.3,2.5-1.9c0.9-0.6,1.8-1.2,2.7-1.8c1.8-1.3,3.7-2.4,5.5-3.6c0.9-0.6,1.9-1.1,2.9-1.7
		c1-0.5,1.9-1.1,2.9-1.6c2-1,4-2.1,6.1-3l3.1-1.4c1-0.4,2.1-0.8,3.1-1.2c1-0.4,2.1-0.8,3.1-1.2c1.1-0.4,2.1-0.7,3.2-1.1
		c1.1-0.3,2.1-0.7,3.2-1c1.1-0.3,2.1-0.6,3.2-0.9c2.1-0.6,4.2-1,6.3-1.5c2.1-0.5,4.1-0.8,6.1-1.1c1-0.1,2-0.3,3-0.4
		c1-0.1,2-0.2,2.9-0.3c1-0.1,1.9-0.2,2.8-0.3c0.9-0.1,1.9-0.1,2.8-0.2c1.8-0.1,3.6-0.2,5.2-0.2c1.7,0,3.3,0.1,4.8,0.1
		c0.8,0,1.5,0,2.2,0.1c0.7,0.1,1.4,0.1,2.1,0.2c1.4,0.1,2.6,0.2,3.8,0.3c0.6,0.1,1.1,0.1,1.7,0.2c0.5,0.1,1,0.2,1.5,0.2
		c1.9,0.3,3.4,0.5,4.5,0.7c1,0.2,1.6,0.3,1.6,0.3s-0.6,0-1.6,0.1c-1,0-2.6,0.2-4.5,0.2c-0.5,0-1,0-1.5,0.1c-0.5,0-1.1,0.1-1.7,0.1
		c-1.2,0.1-2.4,0.2-3.7,0.3c-0.7,0-1.4,0.1-2.1,0.1c-0.7,0.1-1.4,0.2-2.2,0.3c-1.5,0.2-3,0.3-4.7,0.5c-1.6,0.2-3.3,0.5-5,0.7
		c-0.9,0.1-1.8,0.2-2.6,0.4c-0.9,0.2-1.8,0.3-2.7,0.5c-0.9,0.2-1.8,0.3-2.8,0.5c-0.9,0.2-1.9,0.4-2.8,0.6c-1.9,0.5-3.8,0.8-5.8,1.4
		c-1.9,0.6-3.9,1-5.9,1.7c-2,0.6-4,1.2-6,2c-1,0.4-2,0.7-3,1.1c-1,0.4-2,0.8-3,1.2c-1,0.4-2,0.8-3,1.2l-2.9,1.3
		c-2,0.8-3.9,1.8-5.8,2.8c-0.5,0.2-1,0.5-1.4,0.7l-1.4,0.8c-0.9,0.5-1.9,1-2.8,1.5c-3.7,2.1-7.3,4.3-10.6,6.6
		c-1.7,1.1-3.3,2.3-4.9,3.4c-1.6,1.2-3.1,2.3-4.6,3.5c-0.7,0.6-1.5,1.1-2.2,1.7c-0.7,0.6-1.4,1.1-2.1,1.7c-1.4,1.1-2.6,2.3-3.9,3.3
		c-2.4,2.2-4.6,4.2-6.5,6.1c-1.9,1.9-3.5,3.5-4.8,5c-1.3,1.4-2.3,2.5-3,3.3C74.4,114.1,74.1,114.5,74.1,114.5z"/>
	<path id="XMLID_7086_" class="st1" d="M50,115.7c0,0-0.4,0.3-1.1,0.8c-0.7,0.5-1.8,1.4-3.1,2.4c-1.3,1.1-2.8,2.5-4.4,4.1
		c-1.6,1.7-3.3,3.7-5.1,5.9c-1.7,2.3-3.4,4.9-4.8,7.8c-1.4,2.9-2.6,6.1-3.4,9.5c-0.8,3.4-1.2,7-1.1,10.7c0,0.9,0,1.9,0.1,2.8
		c0,1,0.1,1.9,0.1,2.9c0.1,1.9,0.2,3.8,0.3,5.8c0.2,3.8,0.4,7.7,0.6,11.5c0.2,3.8,0.5,7.5,0.7,11.1c0.2,3.6,0.4,7.1,0.6,10.4
		c0.2,3.3,0.4,6.4,0.5,9.3c0.1,2.9,0.2,5.5,0.3,7.9c0.1,2.4,0.1,4.4,0.1,6.1c0,1.7,0,3,0,3.9c0,0.9,0,1.4,0,1.4s-0.2-1.9-0.6-5.3
		c-0.4-3.4-0.9-8.1-1.5-13.9c-0.3-2.9-0.7-6-1-9.3c-0.3-3.3-0.7-6.8-1-10.4c-0.2-1.8-0.3-3.6-0.5-5.5c-0.2-1.9-0.3-3.7-0.4-5.6
		c-0.3-3.8-0.5-7.7-0.7-11.5c-0.1-1.9-0.1-3.9-0.2-5.8c0-1-0.1-1.9-0.1-2.9c0-1-0.1-1.9-0.1-2.9c0-3.9,0.5-7.8,1.5-11.4
		c0.9-3.6,2.4-6.9,4-9.9c1.6-3,3.5-5.6,5.4-7.8c3.8-4.5,7.7-7.5,10.4-9.5c1.4-1,2.5-1.6,3.3-2.1C49.6,115.9,50,115.7,50,115.7z"/>
	<path id="XMLID_7085_" class="st1" d="M64.6,129.5c0,0-1.1,0.8-2.8,2.4c-1.7,1.6-4,4.1-6.4,7.4c-1.2,1.6-2.3,3.5-3.3,5.5
		c-1,2-2,4.2-2.7,6.6c-0.8,2.3-1.3,4.8-1.7,7.4c-0.3,2.6-0.5,5.2-0.4,7.8l0.1,2l0.1,1l0.1,1c0.1,1.4,0.2,2.7,0.3,4
		c0.1,1.3,0.1,2.7,0.2,4c0,1.3,0.1,2.6,0.1,3.9c0,2.6,0,5-0.1,7.4c-0.1,2.3-0.2,4.6-0.4,6.6c-0.1,1-0.2,2-0.3,2.9
		c-0.1,0.9-0.2,1.8-0.4,2.6c-0.2,1.6-0.5,3.1-0.7,4.2c-0.5,2.3-0.9,3.6-0.9,3.6s0-0.3,0.1-1c0.1-0.6,0.1-1.6,0.2-2.8
		c0.1-1.2,0.1-2.6,0.2-4.3c0-1.7,0.1-3.5,0.1-5.5c0-2,0-4.2-0.1-6.5c-0.1-2.3-0.2-4.8-0.3-7.3c-0.1-1.3-0.1-2.5-0.2-3.8
		c-0.1-1.3-0.2-2.6-0.3-3.9c-0.1-1.3-0.2-2.7-0.3-4l-0.1-1l-0.1-1c0-0.7-0.1-1.4-0.1-2.1c-0.1-2.8,0.1-5.6,0.5-8.3
		c0.4-2.7,1.1-5.4,2-7.8c0.9-2.5,2.1-4.7,3.3-6.8c1.2-2.1,2.6-3.9,3.9-5.5c2.7-3.2,5.4-5.4,7.3-6.8
		C63.3,130.1,64.6,129.5,64.6,129.5z"/>
	<path id="XMLID_7074_" class="st0" d="M221.8,130.9c0,0,57.4,65.1,98.2,65.1s-6.5-81.7-9.5-82.8c-3-1.2-66.3-26-66.3-26
		L221.8,130.9z"/>
	<path id="XMLID_7071_" class="st1" d="M103.4,118.6c0,0,0.5-0.6,1.5-1.7c1-1.1,2.6-2.6,4.6-4.4c2.1-1.8,4.6-4,7.8-6.3
		c3.1-2.3,6.7-4.8,10.9-7.1c4.1-2.4,8.8-4.7,13.9-6.7c5.1-2,10.7-3.8,16.6-5c5.9-1.2,12.1-1.9,18.5-1.9c6.4,0,12.8,0.7,19.1,2.1
		c3.2,0.7,6.3,1.5,9.3,2.5c3,1,5.9,2,8.9,3c5.9,2,11.6,4,17.2,6c5.6,2,10.9,4,16,5.9c5.1,1.9,9.8,3.7,14.2,5.5
		c4.4,1.7,8.4,3.4,12,4.8c3.6,1.5,6.6,2.8,9.2,3.9c2.5,1.1,4.5,2,5.9,2.6c1.3,0.6,2.1,0.9,2.1,0.9s-12-3.9-30-9.7
		c-2.2-0.7-4.6-1.5-7-2.3c-2.4-0.8-4.9-1.6-7.5-2.5c-5.1-1.7-10.6-3.4-16.2-5.3c-5.6-1.8-11.4-3.7-17.3-5.7c-2.9-1-5.9-1.9-8.9-2.9
		c-2.9-0.9-5.9-1.7-8.9-2.4c-6-1.3-12.1-2-18.2-2.1c-6-0.1-12,0.4-17.7,1.4c-5.7,1-11.1,2.4-16.1,4.2c-5,1.8-9.7,3.7-13.9,5.8
		c-4.2,2.1-7.9,4.2-11.1,6.2c-3.2,2-6,3.9-8.2,5.6c-2.2,1.6-3.9,3-5,3.9C104,118.1,103.4,118.6,103.4,118.6z"/>
	<path id="XMLID_6686_" class="st1" d="M224.9,41c0,0,1.6-0.4,4.4-0.9c1.4-0.3,3.1-0.5,5.1-0.8c2-0.3,4.2-0.6,6.6-0.8
		c2.4-0.2,5.1-0.5,7.9-0.7c2.8-0.2,5.8-0.3,8.9-0.4c1.5,0,3.1-0.1,4.7-0.1c1.6,0,3.2,0,4.8,0.1c1.6,0,3.3,0.1,4.9,0.2
		c1.6,0.1,3.3,0.2,4.9,0.3c3.3,0.2,6.6,0.5,9.8,1c1.6,0.2,3.2,0.4,4.8,0.6c1.6,0.2,3.2,0.5,4.7,0.8c3.1,0.5,6,1.1,8.9,1.8
		c1.4,0.3,2.8,0.6,4.1,1c1.3,0.3,2.6,0.7,3.8,1c1.2,0.3,2.4,0.7,3.5,1c1.1,0.3,2.2,0.6,3.1,1c1.9,0.7,3.7,1.2,5,1.7
		c2.8,1,4.4,1.6,4.4,1.6l-5.1,11.3c0,0-1.4-0.7-3.8-2c-1.2-0.6-2.7-1.3-4.5-2.1c-0.9-0.4-1.8-0.8-2.8-1.2c-1-0.4-2-0.9-3.1-1.3
		c-1.1-0.4-2.2-0.9-3.4-1.4c-1.2-0.4-2.4-0.9-3.7-1.4c-2.6-0.9-5.3-1.8-8.2-2.7c-1.4-0.5-2.9-0.8-4.4-1.2c-1.5-0.4-3-0.8-4.5-1.2
		c-3.1-0.8-6.2-1.4-9.3-2c-1.6-0.3-3.2-0.6-4.7-0.8c-1.6-0.2-3.2-0.5-4.7-0.7c-1.6-0.2-3.1-0.4-4.7-0.6c-1.5-0.2-3.1-0.3-4.6-0.5
		c-3-0.3-5.9-0.5-8.7-0.6c-2.8-0.2-5.4-0.2-7.8-0.3c-2.4,0-4.7,0-6.6,0c-2,0-3.7,0.1-5.1,0.2C226.5,40.8,224.9,41,224.9,41z"/>
	<path id="XMLID_6685_" class="st0" d="M89.2,138.6c0,0,58-15.4,104.1,18.9s117.8,36.7,117.8,36.7s-42-21.3-64.5-54.4
		s-99.4-24.3-99.4-24.3S106.4,110.2,89.2,138.6z"/>
	<path id="XMLID_6684_" class="st1" d="M120.6,125.2c0,0,0.4-0.5,1.3-1.4c0.9-0.8,2.4-2,4.4-3.2c0.5-0.3,1.1-0.6,1.6-0.9
		c0.3-0.2,0.6-0.3,0.9-0.5c0.3-0.2,0.6-0.3,0.9-0.4c0.6-0.3,1.3-0.6,2-0.9c0.7-0.3,1.5-0.5,2.2-0.8c0.8-0.3,1.6-0.5,2.4-0.8
		c0.8-0.2,1.7-0.5,2.6-0.7c1.8-0.4,3.7-0.8,5.7-1c4-0.6,8.4-0.7,13.1-0.6c1.2,0,2.3,0.2,3.5,0.2c1.2,0.1,2.4,0.2,3.6,0.3
		c1.2,0.2,2.4,0.3,3.7,0.5c0.6,0.1,1.2,0.2,1.9,0.3l0.5,0.1l0.2,0l0.1,0l0.1,0l0.1,0l0.9,0.2c1.2,0.3,2.4,0.5,3.7,0.8
		c0.6,0.2,1.3,0.3,1.9,0.5c0.6,0.2,1.3,0.4,1.9,0.6c0.6,0.2,1.3,0.4,1.9,0.6c0.6,0.2,1.2,0.5,1.9,0.7c1.3,0.4,2.5,1,3.7,1.5
		c4.9,2.1,9.7,4.8,14.2,7.6c4.5,2.9,8.9,6,13.2,9c2.1,1.5,4.2,3.1,6.3,4.6c2.1,1.5,4.1,3,6.1,4.4c4.1,2.8,8,5.5,11.9,7.9
		c3.9,2.3,7.6,4.4,11.2,6.1c1.8,0.9,3.5,1.6,5.2,2.3c0.8,0.4,1.6,0.7,2.4,1c0.8,0.3,1.6,0.6,2.3,0.9c1.5,0.5,2.9,1.1,4.3,1.5
		c1.3,0.4,2.5,0.8,3.7,1.1c1.1,0.3,2.1,0.6,3,0.8c0.9,0.2,1.6,0.4,2.2,0.5c1.2,0.3,1.9,0.4,1.9,0.4s-0.7-0.1-1.9-0.2
		c-0.6-0.1-1.4-0.2-2.3-0.3c-0.9-0.1-1.9-0.3-3.1-0.5c-1.2-0.2-2.4-0.5-3.8-0.7c-1.4-0.3-2.9-0.7-4.4-1.1c-0.8-0.2-1.6-0.5-2.4-0.7
		c-0.8-0.3-1.7-0.5-2.6-0.8c-1.7-0.6-3.6-1.3-5.4-2c-3.7-1.5-7.7-3.4-11.7-5.6c-4-2.2-8.2-4.7-12.4-7.5c-4.2-2.8-8.4-5.7-12.7-8.7
		c-4.3-3-8.6-6-13.1-8.8c-4.4-2.8-9-5.4-13.6-7.5c-1.2-0.5-2.3-1-3.5-1.5c-0.6-0.2-1.2-0.5-1.8-0.7c-0.6-0.2-1.2-0.4-1.8-0.6
		c-0.6-0.2-1.2-0.4-1.8-0.6c-0.6-0.2-1.2-0.3-1.8-0.5c-1.1-0.4-2.4-0.6-3.6-0.9l-0.9-0.2l-0.9-0.2c-0.6-0.1-1.2-0.2-1.8-0.3
		c-1.2-0.2-2.4-0.4-3.5-0.6c-1.2-0.2-2.3-0.3-3.5-0.5c-1.1-0.1-2.3-0.3-3.4-0.4c-1.1-0.1-2.2-0.1-3.3-0.2c-0.5,0-1.1-0.1-1.6-0.1
		c-0.5,0-1.1,0-1.6,0c-1.1,0-2.1,0-3.1,0c-1,0-2,0.1-3,0.2c-2,0.1-3.8,0.4-5.6,0.6c-0.9,0.1-1.7,0.3-2.6,0.5
		c-0.8,0.2-1.6,0.3-2.4,0.5c-0.8,0.2-1.5,0.4-2.2,0.6c-0.7,0.2-1.4,0.5-2,0.7c-0.3,0.1-0.7,0.2-1,0.3c-0.3,0.1-0.6,0.3-0.9,0.4
		c-0.6,0.3-1.2,0.5-1.7,0.7c-2.1,1-3.6,2-4.6,2.7C121.1,124.7,120.6,125.2,120.6,125.2z"/>
</g>
</svg>
