<?xml version="1.0" encoding="utf-8"?>
<!-- Generator: Adobe Illustrator 19.0.0, SVG Export Plug-In . SVG Version: 6.00 Build 0)  -->
<svg version="1.1" id="Layer_1" xmlns="http://www.w3.org/2000/svg" xmlns:xlink="http://www.w3.org/1999/xlink" x="0px" y="0px"
	 viewBox="0 0 433.56165 413.0137" style="enable-background:new 0 0 433.56165 413.0137;" xml:space="preserve">
<style type="text/css">
	.st0{fill:#EF7B05;}
</style>
<path id="XMLID_195_" class="st0" d="M417.59827,125.93383C364.29605,21.64771,295.78989,4.30527,217.825,3.86692v0.04731
	C139.81415,4.36117,71.33936,21.68842,18.01318,126.03704c-37.97742,74.28185,27.06856,245.37164,27.06856,245.37164
	s25.83782,18.75211,72.44151,28.1604c21.06041,4.26361,35.41736,6.42105,44.89311,7.51715
	c0.71655,0.08582,1.41878,0.15887,2.08244,0.23633c4.77766,0.50943,8.12668,0.73499,10.2961,0.82104
	c2.35251,0.09021,3.39001,0.03851,3.39001,0.03851l-2.35497-35.84503c0.0121-0.06888,0.0242-0.14612,0.03854-0.22577
	c-0.02397,0-0.03362-0.01077-0.05783-0.01938c-0.32813-0.09439-0.66589-0.18903-0.99426-0.29224
	c-15.98822-4.66321-31.88699-11.20264-46.37688-19.59866c-11.75835-7.98145-14.00227-21.6507-21.50901-32.94794
	c-0.9241-1.75143-5.49639-28.54932-5.93486-30.43665c-7.56514-32.56335,2.93486-70.81337,13.27399-89.85913l10.34769,0.15828
	l0.21249-1.92769l3.07895-27.38451l7.04096,26.79784l0.72397,2.67325l30.20532,0.4729l-4.16489-25.36459l14.15927,24.49625
	l0.60562,1.0488l23.18608,0.36331l0.0845-0.28387l6.91298-26.84294l3.20694,27.26633l7.10126,0.13754l0.85419,0.01936v-0.09242
	l0.8349-0.01717l7.10373-0.11597l3.20447-27.31584l6.90828,26.88167l0.0939,0.28806l23.18857-0.36971l0.60806-1.02942
	l14.13037-24.52861l-4.14807,25.40334l30.21271-0.48149l0.69482-2.66026l7.07483-26.83678l3.04507,27.42345l0.22461,1.89755
	l13.93155-0.21933c14.86795,33.89511,14.88232,74.52177,9.1048,118.21608c-0.62097,4.69626-3.78833,8.70325-6.16257,12.90677
	c-1.14624,2.04584-2.40341,4.06577-3.66776,6.08368c-8.07626,8.62817-17.84854,16.13257-28.63458,22.37534
	c-11.2323,5.51221-23.03391,9.99939-34.8938,13.44635c-0.32318,0.09439-0.64166,0.19321-0.96512,0.28781
	c-0.01431,0-0.0289,0.00861-0.04349,0.00861l-2.22452,35.99994c0,0,1.00861,0.05148,3.2959-0.04294
	c2.15237-0.09021,5.48236-0.30521,10.25037-0.81662c0.54037-0.0603,1.1171-0.13336,1.68909-0.19342
	c9.46588-1.08313,23.95578-3.22559,45.42139-7.56027c46.57727-9.43604,72.45361-28.17099,72.45361-28.17099
	S455.57816,200.23724,417.59827,125.93383z"/>
</svg>
