<?xml version="1.0" encoding="utf-8"?>
<!-- Generator: Adobe Illustrator 19.0.0, SVG Export Plug-In . SVG Version: 6.00 Build 0)  -->
<svg version="1.1" id="Layer_1" xmlns="http://www.w3.org/2000/svg" xmlns:xlink="http://www.w3.org/1999/xlink" x="0px" y="0px"
	 viewBox="0 0 328.4 301.4" style="enable-background:new 0 0 328.4 301.4;" xml:space="preserve">
<style type="text/css">
	.st0{fill-rule:evenodd;clip-rule:evenodd;fill:#EF7B05;}
	.st1{fill-rule:evenodd;clip-rule:evenodd;fill:#FFFFFF;}
</style>
<g id="XMLID_1336_">
	<path id="XMLID_1344_" class="st0" d="M306.8,206.9c-3.3,12.7-14.9,50.2-18.1,70.5c-4.9,31.9-4.5,6-5.3-5.4
		c-1.5-20.2-4.3-47.4-5.1-52.2c-0.9-5.6-2.1-10.1-3.3-7.7c-2.8,5.7-4.2,9.1-4.5-0.1c-0.5-15-5.6-28.4-9-38.1
		c-1.6-4.5-1.7-1.5-2.3,1.5c-0.6,3-0.8,3.9-1.4,6.3c-10.2-20.7-16.6-30.8-24.5-54.2c-13.2,13.6-48.9,32.2-67.6,39
		c2.5-5.7,7.4-17.8,7.8-22.1c0.5-4.3-1.5,0.3-6.6,3.9c-9.7,6.9-24.3,19-34.3,22.2c1.3-4.7,2.6-8.5,4.1-13.3s1.7-7.3-2.9-2.8
		c-16.2,15.8-26.1,23-42.4,32.4c-0.6,0.3-1.2,0.7-1.8,1c-0.6-3.2-0.9-6.4,1.7-12.2c0.7-1.7-32.4,27.3-36.4,29.8
		c0.1-4.1-1.1-7.6,0-11.7c-20,19.4-13.5,35.6-14,64.7c-0.7,35.7-0.3,48.6-4.5,24.2C27.6,232.2-2.1,133.6,22.5,95.1
		c1.7-2.6,1.1-2.3,0.3-1.8c-0.8,0.6-1.7,1.5-0.9-1.2c3.5-12,21-31.6,31-36.5c2.5-1.2-0.9-0.7-2.2-0.1c-1.2,0.5-2,1,0-1.3
		c2-2.3,6.6-7.5,12.7-12c6.1-4.5,13.9-8.4,19.7-10.6c5.7-2.3,9.5-2.9,10.8-3.5c1.3-0.6,0.3-1.1-0.8-1.4c-1-0.2-2.1-0.1-0.5-1.2
		c1.5-1.1,5.6-3.3,12.7-5.8c7.1-2.5,17.2-5.2,24.8-6c7.7-0.8,13,0.3,15.3,0.4c2.3,0.1,1.5-0.8,0.4-1.6c-1.1-0.8-2.6-1.4-1.5-2
		c1.1-0.6,4.8-1.3,12.7-0.3c7.9,1,20.1,3.6,27.7,6c7.5,2.4,10.4,4.6,11.6,4.8c1.2,0.2,0.9-1.6,0.2-2.9c-0.7-1.3-1.6-2.2,5.2,0.7
		c6.8,2.8,21.4,9.3,31.4,17.6c5.3,4.4,9.3,9.4,12.1,13.6c27.8,0.2,55.7,16.5,66.1,42.8c1.5,3.9,0.6,3.1-0.6,2.3
		c-1.2-0.8-2.7-1.6-2.3-0.4c0.4,1.2,2.6,4.4,4.8,9.7c2.2,5.3,4.2,12.7,5.3,19.2c1.1,6.4,1.3,11.9,1.2,16.2c-0.1,4.3-0.6,7.3-1.1,8.2
		c-0.5,0.9-1.1-0.4-1.7-1.5c-0.6-1.1-1.3-1.9-1.2,0.3c0.1,2.3,1,7.6,0.6,17.2c-0.4,9.6-2.2,23.4-3.6,32.2
		c-1.4,8.8-2.4,12.5-3.1,13.7c-0.6,1.2-0.9-0.2-1.4-1.6C307.9,207.7,307.5,206.8,306.8,206.9z"/>
	<path id="XMLID_1340_" class="st1" d="M187.5,132.1c2.8-19,8.4-29.3,15.6-35.9c-37.9,9-109.1,21.6-127.2,54.6
		c3-45.8,75.5-61.1,117.6-66.9C146.3,83.6,57.8,76,30.7,134.1C45,58.3,157.3,63.9,208.9,66.9c-17.9-13.1-78.7-28.7-112.6-5
		c25.2-36.9,105.4-33.3,145.4,9.4C277,70,299,94.1,301.4,128.8c-3.7-11.7-8.8-18.3-18.6-25.9c-2.2-1.7-0.8,0.1,1.2,5.2
		c5.1,13.2,9.6,32.5,9.5,46.7c0,7.6-1.3,14.2-2.4,19.2c-1.1,5-1.9,8.3-2.2,7c-0.3-1.3,0-7.3-1.1-15.8c-2.9-23.2-13.2-44.7-24.8-64.7
		c4.8,24.5,4.5,35.6-3,46.2c-1.2-9.4-7-42.8-21.1-59.8C218.9,103.7,207.4,102.7,187.5,132.1z"/>
</g>
</svg>
