<?xml version="1.0" encoding="utf-8"?>
<!-- Generator: Adobe Illustrator 19.0.0, SVG Export Plug-In . SVG Version: 6.00 Build 0)  -->
<svg version="1.1" id="Layer_1" xmlns="http://www.w3.org/2000/svg" xmlns:xlink="http://www.w3.org/1999/xlink" x="0px" y="0px"
	 viewBox="-180 -23 598 606" enable-background="new -180 -23 598 606" xml:space="preserve">
<g id="XMLID_1549_">
	<path id="XMLID_1566_" fill="#EF7B05" d="M29.6,385.7c1.3,1.5,2.7,3,4.2,4.5C32.4,388.7,31,387.2,29.6,385.7z M207.6,382.3
		c-0.5,0.7-1.1,1.4-1.7,2c1.3-1.1,2.6-2.2,3.9-3.3C209.1,381.5,208.4,381.9,207.6,382.3z M29.6,385.7c1.3,1.5,2.7,3,4.2,4.5
		C32.4,388.7,31,387.2,29.6,385.7z M29.6,385.7c1.3,1.5,2.7,3,4.2,4.5C32.4,388.7,31,387.2,29.6,385.7z M29.6,385.7
		c1.3,1.5,2.7,3,4.2,4.5C32.4,388.7,31,387.2,29.6,385.7z M287.6,210.4c-6.6-26.8-13.3-54.6-34.6-77c-21.3-22.5-61.6-38-97.1-29
		c1.8-3.9-4-7.3-9.2-9c-41.5-14-92.9-7.1-129.8,12.5s-60.6,50.2-72.5,82.1c-12,32-13.3,65.5-12.6,98.5c0.4,19.6,1.4,39.1,3.2,58.7
		c2.8,31.1,7.8,63,28.5,90.4c20.6,27.3,60.4,49.3,103.4,47.5c-13.3-5.1-25.2-12-35.2-20.1c4.7,2,10.2,3.4,15.4,4.4
		c3.4,0.6,6.8,1.1,10.2,1.5c-6.3-6.3-10.6-15-13.3-23.7c-0.1-0.5-0.3-0.9-0.4-1.4c-3.5-12.6-4.2-25.9-7.2-38.6
		c-2.2-1.9-4.3-3.8-6.4-5.8c-10.8-10.6-19.4-22.1-25.2-36.1c-2.1-5.2-4.4-10.3-6.4-15.6c9.6,12.3,20.3,24.2,31.1,36
		c-9.4-11.2-14.4-24.2-14.2-37.3c10,17.6,20.6,35.8,40.2,48.5c-17.1-23.7-31.9-49.2-39-75.3c-1.8-6.6-3.1-13.3-3.8-20
		c-1.1-10.7-0.7-21.5,1.6-32.2c2.9-13.6,8.7-26.7,14.5-39.8c8.3-18.8,17-38,33.3-53.9c8.2-8,18.9-15.3,32.3-17.5s29.6,2.2,34.1,11.6
		c6.1-8.8,22-12.2,35.2-9.9c1.7,0.3,3.4,0.7,5.1,1.2c10.9,3,20.1,9,28,15.3c21.8,17.6,36.7,39.7,42.5,63c3.2,12.9,3.7,26,3.7,39.1
		c0,20.5-1.2,41.3-9.5,61c-0.9,2.2-1.9,4.3-3,6.4c-8.8,17.2-23.8,33-45.2,42.8c8-0.5,15.7-2.8,22.2-6.3c-0.5,0.7-1.1,1.4-1.7,2
		c1.3-1.1,2.6-2.2,3.9-3.3l0,0c2.9-1.8,5.5-3.8,7.7-6c-16,18.3-38,33.9-63.6,45.2c13.7-2.5,27-6.3,39.4-11.2
		c0.2-0.1,0.3,0.1,0.2,0.3c-0.9,1.6-0.2,5.6-3.8,18.4c-3.6,13.3-4.3,13.2-9.4,19.3c-2.5,3-16.1,13-22.7,17.7c1.8,0,22.9-4.2,24.7-4
		c-1.8,3.2-3.6,6.3-5.4,9.5c26.3,0.1,54.4-0.1,76.1-10.8c11.9-5.9,20.8-14.4,27.7-23.5c9.8-12.9,16.1-27.1,20.4-41.5
		C319.1,333.9,302.5,271.2,287.6,210.4z M29.6,385.7c1.3,1.5,2.7,3,4.2,4.5C32.4,388.7,31,387.2,29.6,385.7z M29.6,385.7
		c1.3,1.5,2.7,3,4.2,4.5C32.4,388.7,31,387.2,29.6,385.7z M29.6,385.7c1.3,1.5,2.7,3,4.2,4.5C32.4,388.7,31,387.2,29.6,385.7z
		 M207.6,382.3c-0.5,0.7-1.1,1.4-1.7,2c1.3-1.1,2.6-2.2,3.9-3.3C209.1,381.5,208.4,381.9,207.6,382.3z M29.6,385.7
		c1.3,1.5,2.7,3,4.2,4.5C32.4,388.7,31,387.2,29.6,385.7z"/>
	<path id="XMLID_1563_" fill="#EF7B05" d="M284.4,299.2c-0.9,11.4-2.5,22.9-6.4,33.9c-11.3,32.3-43.4,59.6-84,75.6l0,0
		c-12.7,5-26.2,8.8-40.1,11.4c25.7-11.2,47.6-26.8,63.6-45.2c-2.2,2.2-4.8,4.3-7.7,6l0,0c-0.7,0.4-1.5,0.9-2.2,1.3
		c-6.5,3.5-14.2,5.7-22.2,6.3c21.4-9.8,36.4-25.5,45.2-42.8c1.1-2.1,2.1-4.3,3-6.4c8.3-19.6,9.5-40.4,9.5-61
		c0-13.1-0.5-26.2-3.7-39.1c-5.8-23.3-20.7-45.3-42.5-63c-7.9-6.4-17-12.3-28-15.3c-1.7-0.5-3.4-0.8-5.1-1.2
		c-13.2-2.3-29.1,1.1-35.2,9.9c-4.5-9.4-20.7-13.8-34.1-11.6s-24.1,9.5-32.3,17.5c-16.3,15.9-24.9,35.1-33.3,53.9
		c-5.8,13.1-11.6,26.2-14.5,39.8c-2.3,10.7-2.7,21.5-1.6,32.2c0.7,6.7,2,13.4,3.8,20c7.1,26.1,21.9,51.6,39,75.3
		c-19.6-12.7-30.2-30.9-40.2-48.5c-0.2,13.1,4.9,26.1,14.2,37.3c-10.8-11.8-21.5-23.7-31.1-36c-11.8-15.2-21.8-30.9-28.3-47.7
		c-7.3-18.9-9.4-38.7-6.7-58.2c0,0,0,0,0-0.1c3.1-22.7,12.7-44.9,27.9-64.8c10.3-13.4,23.2-25.8,38.5-36.5s33.5-20.1,54.5-22.7
		c21-2.6,45,2.9,55.5,16.3c26.9-12.5,64.5-6.9,88.7,8.2c11.6,7.2,20.7,16.2,27.8,26l0,0c7.7,10.6,13.2,22.3,17.3,33.9
		c1.4,4,2.9,7.9,3.9,11.9c0,0.2,0.3,0.3,0.3,0.5l0,0C285,243.6,286.6,271.5,284.4,299.2z"/>
	<path id="XMLID_1558_" fill="#FFFFFF" d="M-9.1,210.9c9.9-17,22.4-33.3,37.4-48.3c6.5-6.5,13.7-13,23.3-17.1s17-5.6,31.9-4.7
		c-11.5-1.6-23.3,5.8-31.5,11.8c-8.1,6.1-13.2,13.8-18.1,21.5c-8.3,13-16.4,26.1-24.4,39.3c-6.4,10.6-12.7,21.3-15,32.7
		c-2,9.8-1.1,19.7,0,29.6c2.8,26.1,6.4,52.9,22.2,76.5c-19.2-19.5-30.7-42.8-32.9-66.6c-3.2,17.1-2.6,34.6,1.9,51.6
		c-30-43.3-36.5-94.8-17.7-141.3c-5,8.7-10.8,17.2-17.3,25.3c-6.5-34.7,12.9-71.4,49.7-94.2c-17.1,18-26.1,39.9-25.4,61.7
		c4.9-7.4,13.9-13.2,24.6-16.1C-5.8,185.2-8.7,198-9.1,210.9z"/>
	<path id="XMLID_1552_" fill="#FFFFFF" d="M284.5,243.9c1.7,15.2,0.5,30.6-3.6,45.6c1.5-23.7-9.2-47.8-29.4-66.5
		c34.6,55,25.6,122.7-20.8,172.6c-4.3,4.6-8.9,9.1-13.8,13.4l0,0c-1.3,1.1-2.6,2.2-3.9,3.3c0.6-0.7,1.1-1.3,1.7-2
		c8.4-10.2,15.7-20.9,21.9-31.8c13.8-24.3,22.1-50.2,23.5-76.4c2.1-38.9-11.2-78.3-40-111.2c12.8,5.4,23.5,13.3,30.8,22.7
		c0.9-4,1.9-8.1,2.9-12.1c4.3,2,8.1,4.6,10.8,7.7c-0.3-3.7-0.6-7.3-1-11l0,0c-0.1-1.2-0.3-2.4-0.5-3.6c-1.3-10-3.4-19.9-6.2-29.7
		c19.6,17.9,29.8,41,28.3,63.8c-2.7-7.3-6.2-14.3-10.7-21.1c1.1,2.5,2.1,5,3.1,7.6l0,0C281.1,224.5,283.4,234.2,284.5,243.9z"/>
</g>
<path id="XMLID_1547_" fill="none" d="M208.9,369.4c-1,3.9-2,7.7-3,11.6"/>
</svg>
